<?xml version="1.0" encoding="utf-8" ?>
<svg baseProfile="full" height="256" version="1.1" width="256" xmlns="http://www.w3.org/2000/svg" xmlns:ev="http://www.w3.org/2001/xml-events" xmlns:xlink="http://www.w3.org/1999/xlink"><defs /><path d="M2375 1336Q2375 1320 2365 1310L1697 642Q1675 620 1669.5 598.0Q1664 576 1661.0 554.0Q1658 532 1652.0 509.5Q1646 487 1624 465L905 -255Q889 -271 865 -271Q842 -271 826 -255L644 -72Q636 -64 631.5 -54.0Q627 -44 627 -33Q627 -22 631.5 -12.0Q636 -2 644 6L1362 726Q1383 747 1405.5 753.5Q1428 760 1451.5 763.0Q1475 766 1497.5 772.0Q1520 778 1541 799L2208 1467Q2213 1472 2220.5 1474.5Q2228 1477 2235 1477Q2251 1477 2261 1467L2365 1363Q2370 1358 2372.5 1350.5Q2375 1343 2375 1336Z" style="fill:#6d4534;stroke:none" transform="scale(1,-1) translate(0,-256)" /></svg>