<?xml version="1.0" encoding="utf-8" ?>
<svg baseProfile="full" height="256" version="1.1" width="256" xmlns="http://www.w3.org/2000/svg" xmlns:ev="http://www.w3.org/2001/xml-events" xmlns:xlink="http://www.w3.org/1999/xlink"><defs /><path d="M741 1452Q757 1452 767 1442L1435 774Q1457 752 1479.0 746.0Q1501 740 1523.5 737.0Q1546 734 1568.0 727.5Q1590 721 1613 699L2305 7Q2321 -9 2321 -32Q2321 -55 2305 -71L2122 -254Q2106 -270 2083 -270Q2060 -270 2044 -254L1352 438Q1329 461 1323.0 483.5Q1317 506 1314.5 528.5Q1312 551 1306.0 573.0Q1300 595 1278 617L611 1284Q600 1295 600 1310Q600 1326 611 1337L715 1442Q725 1452 741 1452Z" style="fill:#a56953;stroke:none" transform="scale(1,-1) translate(0,-256)" /></svg>