<?xml version="1.0" encoding="utf-8" ?>
<svg baseProfile="full" height="256" version="1.1" width="256" xmlns="http://www.w3.org/2000/svg" xmlns:ev="http://www.w3.org/2001/xml-events" xmlns:xlink="http://www.w3.org/1999/xlink"><defs /><path d="M1396 1311Q1396 1288 1380 1272L780 673Q772 665 762.0 660.5Q752 656 741 656Q719 656 702 673L416 959Q399 976 399 998Q399 1009 403.5 1019.5Q408 1030 416 1038L1015 1637Q1031 1653 1054 1653Q1078 1653 1094 1637L1380 1350Q1396 1334 1396 1311ZM2259 680Q2213 680 2180 713L1621 1272Q1605 1288 1605 1311Q1605 1334 1621 1350L1908 1637Q1924 1653 1947 1653Q1970 1653 1986 1637L2295 1328Q2351 1272 2381.5 1198.5Q2412 1125 2412 1046Q2412 1011 2406 978L2370 773Q2363 733 2331.5 706.5Q2300 680 2259 680Z" style="fill:#b4acbc;stroke:none" transform="scale(1,-1) translate(0,-256)" /></svg>