<?xml version="1.0" encoding="utf-8" ?>
<svg baseProfile="full" height="256" version="1.1" width="256" xmlns="http://www.w3.org/2000/svg" xmlns:ev="http://www.w3.org/2001/xml-events" xmlns:xlink="http://www.w3.org/1999/xlink"><defs /><path d="M1581 1330Q1581 1293 1567.0 1260.0Q1553 1227 1528.5 1202.5Q1504 1178 1471.5 1164.0Q1439 1150 1402 1150Q1365 1150 1332.0 1164.0Q1299 1178 1274.5 1202.5Q1250 1227 1236.0 1260.0Q1222 1293 1222 1330Q1222 1367 1236.0 1400.0Q1250 1433 1274.5 1457.5Q1299 1482 1332.0 1496.0Q1365 1510 1402 1510Q1439 1510 1471.5 1496.0Q1504 1482 1528.5 1457.5Q1553 1433 1567.0 1400.0Q1581 1367 1581 1330ZM1195 1083Q1146 1083 1107.5 1053.5Q1069 1024 1056 976L975 670Q973 665 973.0 661.0Q973 657 973 652Q973 623 994.0 601.5Q1015 580 1044 580Q1068 580 1088.0 595.0Q1108 610 1114 633L1190 919Q1193 932 1202.0 933.5Q1211 935 1222 935Q1227 935 1233.5 932.0Q1240 929 1245.0 924.0Q1250 919 1252.5 913.0Q1255 907 1254 901Q1251 889 1239.0 848.5Q1227 808 1211.5 753.0Q1196 698 1179.0 637.0Q1162 576 1147.5 523.5Q1133 471 1123.5 435.0Q1114 399 1114 395Q1114 380 1124.5 369.0Q1135 358 1150 358H1226V2Q1226 -29 1247.5 -50.5Q1269 -72 1300 -72Q1329 -72 1349.5 -50.5Q1370 -29 1370 0V323Q1370 337 1381.0 347.5Q1392 358 1406 358Q1420 358 1431.0 347.5Q1442 337 1442 323V2Q1442 -28 1463.0 -50.0Q1484 -72 1515 -72Q1544 -72 1565.0 -50.5Q1586 -29 1586 0V358H1663Q1678 358 1688.5 369.0Q1699 380 1699 395Q1699 399 1690.0 435.0Q1681 471 1666.5 523.5Q1652 576 1635.5 637.5Q1619 699 1603.5 754.5Q1588 810 1576.5 851.0Q1565 892 1562 904Q1559 916 1571.5 926.0Q1584 936 1595 936Q1606 936 1615.0 929.5Q1624 923 1627 912L1703 633Q1710 609 1728.5 594.5Q1747 580 1772 580Q1801 580 1822.5 601.0Q1844 622 1844 651Q1844 661 1841 670L1758 977Q1752 1000 1738.5 1019.5Q1725 1039 1706.5 1053.0Q1688 1067 1665.5 1075.0Q1643 1083 1619 1083Z" style="fill:#ffffff;stroke:none" transform="scale(1,-1) translate(0,-256)" /></svg>