<?xml version="1.0" encoding="utf-8" ?>
<svg baseProfile="full" height="256" version="1.1" width="256" xmlns="http://www.w3.org/2000/svg" xmlns:ev="http://www.w3.org/2001/xml-events" xmlns:xlink="http://www.w3.org/1999/xlink"><defs /><path d="M1626 1437Q1706 1381 1771.5 1307.0Q1837 1233 1883.5 1146.0Q1930 1059 1955.5 961.0Q1981 863 1981 757Q1981 728 1960.0 707.0Q1939 686 1909 686Q1879 686 1858.0 707.0Q1837 728 1837 757Q1837 865 1805.5 963.5Q1774 1062 1717.0 1144.5Q1660 1227 1581.0 1290.5Q1502 1354 1408 1392Q1455 1411 1511.5 1422.0Q1568 1433 1626 1437Z" style="fill:#ff6723;stroke:none" transform="scale(1,-1) translate(0,-256)" /></svg>