<?xml version="1.0" encoding="utf-8" ?>
<svg baseProfile="full" height="256" version="1.1" width="256" xmlns="http://www.w3.org/2000/svg" xmlns:ev="http://www.w3.org/2001/xml-events" xmlns:xlink="http://www.w3.org/1999/xlink"><defs /><path d="M678 1713H1045Q1120 1713 1186.0 1684.5Q1252 1656 1300.5 1607.5Q1349 1559 1377.5 1493.5Q1406 1428 1406 1353H1039Q964 1353 898.0 1381.5Q832 1410 783.5 1458.5Q735 1507 706.5 1572.5Q678 1638 678 1713ZM1406 1353Q1406 1428 1434.5 1493.5Q1463 1559 1511.5 1607.5Q1560 1656 1626.0 1684.5Q1692 1713 1767 1713H2134Q2134 1638 2105.5 1572.5Q2077 1507 2028.5 1458.5Q1980 1410 1914.0 1381.5Q1848 1353 1773 1353Z" style="fill:#00d26a;stroke:none" transform="scale(1,-1) translate(0,-256)" /></svg>