<?xml version="1.0" encoding="utf-8" ?>
<svg baseProfile="full" height="256" version="1.1" width="256" xmlns="http://www.w3.org/2000/svg" xmlns:ev="http://www.w3.org/2001/xml-events" xmlns:xlink="http://www.w3.org/1999/xlink"><defs /><path d="M1190 935Q1219 935 1240.5 913.5Q1262 892 1262 863V647Q1262 617 1241.0 596.0Q1220 575 1190 575H975Q945 575 924.0 596.0Q903 617 903 647V863Q903 892 924.5 913.5Q946 935 975 935ZM1693 935Q1722 935 1743.5 913.5Q1765 892 1765 863V647Q1765 617 1744.0 596.0Q1723 575 1693 575H1478Q1448 575 1427.0 596.0Q1406 617 1406 647V863Q1406 892 1427.5 913.5Q1449 935 1478 935ZM1909 863Q1909 892 1930.5 913.5Q1952 935 1981 935H2197Q2226 935 2247.0 913.5Q2268 892 2268 863V647Q2268 618 2247.0 596.5Q2226 575 2197 575H1981Q1951 575 1930.0 596.0Q1909 617 1909 647ZM400 575V863Q400 899 412 934H681Q697 934 711.5 927.5Q726 921 737.0 910.5Q748 900 754.5 885.5Q761 871 761 855V654Q761 621 737.5 598.0Q714 575 681 575Z" style="fill:#00a6ed;stroke:none" transform="scale(1,-1) translate(0,-256)" /></svg>