<?xml version="1.0" encoding="utf-8" ?>
<svg baseProfile="full" height="256" version="1.1" width="256" xmlns="http://www.w3.org/2000/svg" xmlns:ev="http://www.w3.org/2001/xml-events" xmlns:xlink="http://www.w3.org/1999/xlink"><defs /><path d="M2412 72Q2412 42 2400.5 16.0Q2389 -10 2369.5 -29.5Q2350 -49 2324.0 -60.5Q2298 -72 2268 -72H543Q513 -72 487.0 -60.5Q461 -49 441.5 -29.5Q422 -10 411.0 16.0Q400 42 400 72V367L1071 415Q1120 418 1160.0 422.5Q1200 427 1238.0 430.5Q1276 434 1316.5 436.5Q1357 439 1406 439Q1455 439 1495.5 436.5Q1536 434 1574.0 430.5Q1612 427 1652.0 422.5Q1692 418 1741 415L2412 367Z" style="fill:#00f397;stroke:none" transform="scale(1,-1) translate(0,-256)" /></svg>