<?xml version="1.0" encoding="utf-8" ?>
<svg baseProfile="full" height="256" version="1.1" width="256" xmlns="http://www.w3.org/2000/svg" xmlns:ev="http://www.w3.org/2001/xml-events" xmlns:xlink="http://www.w3.org/1999/xlink"><defs /><path d="M1693 1510Q1722 1510 1743.5 1488.5Q1765 1467 1765 1438Q1765 1408 1744.0 1387.0Q1723 1366 1693 1366Q1661 1366 1631.0 1354.0Q1601 1342 1574.5 1321.5Q1548 1301 1527.5 1275.0Q1507 1249 1494 1222H1622Q1651 1222 1672.0 1200.5Q1693 1179 1693 1150V1078H2197Q2242 1078 2281.0 1061.0Q2320 1044 2349.0 1015.0Q2378 986 2395.0 947.0Q2412 908 2412 863V360H400V863Q400 908 417.0 947.0Q434 986 463.0 1015.0Q492 1044 531.0 1061.0Q570 1078 615 1078H1190V1150Q1190 1182 1206.0 1197.5Q1222 1213 1245.0 1218.5Q1268 1224 1295.0 1223.0Q1322 1222 1343 1222Q1356 1279 1390.0 1331.5Q1424 1384 1471.5 1423.5Q1519 1463 1576.0 1486.5Q1633 1510 1693 1510Z" style="fill:#bebebe;stroke:none" transform="scale(1,-1) translate(0,-256)" /></svg>