<?xml version="1.0" encoding="utf-8" ?>
<svg baseProfile="full" height="256" version="1.1" width="256" xmlns="http://www.w3.org/2000/svg" xmlns:ev="http://www.w3.org/2001/xml-events" xmlns:xlink="http://www.w3.org/1999/xlink"><defs /><path d="M975 -179Q975 -193 964.0 -204.0Q953 -215 939 -215Q924 -215 913.5 -204.5Q903 -194 903 -179Q903 -165 914.0 -154.5Q925 -144 939 -144Q953 -144 964.0 -154.5Q975 -165 975 -179ZM1118 -179Q1118 -193 1107.5 -204.0Q1097 -215 1083 -215Q1068 -215 1057.5 -204.5Q1047 -194 1047 -179Q1047 -165 1058.0 -154.5Q1069 -144 1083 -144Q1097 -144 1107.5 -154.5Q1118 -165 1118 -179Z" style="fill:#008463;stroke:none" transform="scale(1,-1) translate(0,-256)" /></svg>