<?xml version="1.0" encoding="utf-8" ?>
<svg baseProfile="full" height="256" version="1.1" width="256" xmlns="http://www.w3.org/2000/svg" xmlns:ev="http://www.w3.org/2001/xml-events" xmlns:xlink="http://www.w3.org/1999/xlink"><defs /><path d="M1731 1212Q1731 1226 1742.0 1236.5Q1753 1247 1767 1247Q1781 1247 1791.5 1236.5Q1802 1226 1802 1212V1136Q1802 1121 1792.0 1110.5Q1782 1100 1767 1100Q1753 1100 1742.0 1110.5Q1731 1121 1731 1135ZM1592 1212Q1592 1226 1602.5 1236.5Q1613 1247 1627 1247Q1641 1247 1652.0 1236.5Q1663 1226 1663 1212V1136Q1663 1121 1652.5 1110.5Q1642 1100 1627 1100Q1613 1100 1602.5 1110.5Q1592 1121 1592 1135ZM1627 880Q1613 880 1602.5 891.0Q1592 902 1592 916V991Q1592 1005 1602.5 1015.5Q1613 1026 1627 1026Q1642 1026 1652.5 1016.0Q1663 1006 1663 991V916Q1663 901 1652.5 890.5Q1642 880 1627 880ZM1592 771Q1592 785 1602.5 796.0Q1613 807 1627 807Q1642 807 1652.5 796.5Q1663 786 1663 771V696Q1663 681 1652.5 671.0Q1642 661 1627 661Q1613 661 1602.5 671.5Q1592 682 1592 696ZM1592 552Q1592 566 1602.5 576.5Q1613 587 1627 587Q1641 587 1652.0 576.5Q1663 566 1663 552V476Q1663 461 1652.5 451.0Q1642 441 1627 441Q1613 441 1602.5 451.5Q1592 462 1592 476ZM1767 441Q1753 441 1742.0 451.5Q1731 462 1731 476V552Q1731 566 1742.0 576.5Q1753 587 1767 587Q1781 587 1791.5 576.5Q1802 566 1802 552V476Q1802 461 1792.0 451.0Q1782 441 1767 441ZM1731 771Q1731 786 1741.5 796.5Q1752 807 1767 807Q1781 807 1791.5 796.0Q1802 785 1802 771V696Q1802 681 1792.0 671.0Q1782 661 1767 661Q1753 661 1742.0 671.5Q1731 682 1731 696ZM1767 880Q1752 880 1741.5 890.5Q1731 901 1731 916V991Q1731 1006 1741.5 1016.0Q1752 1026 1767 1026Q1781 1026 1791.5 1015.5Q1802 1005 1802 991V916Q1802 901 1792.5 890.5Q1783 880 1767 880ZM1906 441Q1892 441 1881.5 451.5Q1871 462 1871 476V552Q1871 566 1881.5 576.5Q1892 587 1906 587Q1920 587 1930.5 576.5Q1941 566 1941 552V476Q1941 462 1930.5 451.5Q1920 441 1906 441ZM1871 769Q1871 783 1881.5 793.5Q1892 804 1906 804Q1920 804 1930.5 793.5Q1941 783 1941 769V693Q1941 679 1930.5 668.5Q1920 658 1906 658Q1892 658 1881.5 668.5Q1871 679 1871 693ZM1906 880Q1891 880 1881.0 890.5Q1871 901 1871 916V991Q1871 1006 1881.0 1016.0Q1891 1026 1906 1026Q1920 1026 1930.5 1015.5Q1941 1005 1941 991V916Q1941 902 1930.5 891.0Q1920 880 1906 880ZM1871 1212Q1871 1226 1881.5 1236.5Q1892 1247 1906 1247Q1920 1247 1930.5 1236.5Q1941 1226 1941 1212V1136Q1941 1122 1930.5 1111.0Q1920 1100 1906 1100Q1892 1100 1881.5 1110.5Q1871 1121 1871 1135Z" style="fill:#fcd53f;stroke:none" transform="scale(1,-1) translate(0,-256)" /></svg>