<?xml version="1.0" encoding="utf-8" ?>
<svg baseProfile="full" height="256" version="1.1" width="256" xmlns="http://www.w3.org/2000/svg" xmlns:ev="http://www.w3.org/2001/xml-events" xmlns:xlink="http://www.w3.org/1999/xlink"><defs /><path d="M1463 1710Q1561 1710 1654.0 1680.5Q1747 1651 1827.5 1597.5Q1908 1544 1971.0 1469.5Q2034 1395 2073 1305Q2097 1305 2113.5 1300.5Q2130 1296 2143.0 1288.0Q2156 1280 2168.5 1268.0Q2181 1256 2197 1240Q2257 1182 2297.0 1146.0Q2337 1110 2361.5 1083.5Q2386 1057 2397.5 1033.5Q2409 1010 2413.5 977.5Q2418 945 2417.5 896.5Q2417 848 2417 772Q2417 754 2409.0 739.5Q2401 725 2380 725Q2357 725 2351.0 740.0Q2345 755 2344 773Q2344 774 2343.5 780.5Q2343 787 2340 787Q2337 787 2337.0 780.5Q2337 774 2337 773Q2336 756 2331.0 740.5Q2326 725 2304 725Q2287 725 2279.5 731.0Q2272 737 2270.0 746.5Q2268 756 2267.5 767.0Q2267 778 2263 787Q2260 786 2259.5 776.5Q2259 767 2257.0 756.0Q2255 745 2248.0 736.0Q2241 727 2225 727Q2205 727 2196.5 740.5Q2188 754 2188 772V905Q2188 932 2168.0 941.0Q2148 950 2125 951V398Q2125 352 2118.5 306.5Q2112 261 2100 216H2300Q2323 216 2343.5 207.0Q2364 198 2379.0 183.0Q2394 168 2403.0 147.5Q2412 127 2412 104V-108Q2412 -124 2401.0 -131.0Q2390 -138 2376 -138Q2356 -138 2350.5 -123.5Q2345 -109 2343 -92Q2343 -91 2343.0 -83.5Q2343 -76 2339 -76Q2335 -76 2334.5 -83.0Q2334 -90 2334 -92Q2333 -100 2332.5 -108.0Q2332 -116 2329.0 -122.5Q2326 -129 2320.0 -133.5Q2314 -138 2304 -138Q2282 -138 2276.0 -123.5Q2270 -109 2269 -91Q2269 -89 2269.0 -82.5Q2269 -76 2265 -76Q2261 -76 2261.0 -82.5Q2261 -89 2261 -91Q2261 -109 2255.5 -123.5Q2250 -138 2228 -138Q2214 -138 2205.0 -130.5Q2196 -123 2196 -108V-13Q2196 -5 2191.0 0.0Q2186 5 2178 5H2000Q1952 -63 1890.0 -117.0Q1828 -171 1756.0 -208.5Q1684 -246 1604.0 -265.5Q1524 -285 1440 -285H987Q960 -285 931.5 -279.0Q903 -273 879.0 -259.0Q855 -245 840.0 -222.5Q825 -200 825 -168Q825 -141 839.5 -118.0Q854 -95 876.5 -75.0Q899 -55 928.0 -38.0Q957 -21 986.0 -6.5Q1015 8 1042.0 21.0Q1069 34 1087 45Q1091 47 1093.0 49.5Q1095 52 1095 57Q1095 76 1103.5 92.5Q1112 109 1126.5 122.0Q1141 135 1158.5 142.5Q1176 150 1194 150Q1207 150 1219.5 147.5Q1232 145 1241.5 141.5Q1251 138 1257.5 135.5Q1264 133 1266 133Q1268 133 1269.0 133.5Q1270 134 1272 134Q1277 137 1282.0 139.5Q1287 142 1292 145Q1333 167 1357.0 186.5Q1381 206 1393.0 229.0Q1405 252 1408.5 283.0Q1412 314 1412 360H1280Q1267 360 1263.5 349.5Q1260 339 1260.0 323.0Q1260 307 1262.0 288.0Q1264 269 1262.5 253.0Q1261 237 1254.0 226.5Q1247 216 1230 216Q1209 216 1203.5 231.0Q1198 246 1196 263Q1196 265 1195.5 273.0Q1195 281 1190 281Q1186 281 1185.0 272.5Q1184 264 1184 262Q1183 254 1182.5 246.0Q1182 238 1179.0 231.0Q1176 224 1170.0 220.0Q1164 216 1154 216Q1133 216 1128.5 230.5Q1124 245 1124 262Q1124 264 1123.5 272.5Q1123 281 1118 281Q1113 281 1112.0 272.0Q1111 263 1111 261Q1109 246 1103.0 231.0Q1097 216 1078 216Q1061 216 1053.5 228.5Q1046 241 1046 256V456Q1046 480 1057.0 501.0Q1068 522 1085.5 537.5Q1103 553 1125.0 562.5Q1147 572 1170 572H1413L1416 948Q1393 948 1379.5 943.0Q1366 938 1359.5 928.5Q1353 919 1351.0 904.0Q1349 889 1349 869V764Q1349 727 1314 727Q1294 727 1288.5 741.5Q1283 756 1281 772Q1281 774 1280.5 781.0Q1280 788 1276 788Q1272 788 1272.0 781.5Q1272 775 1272 773Q1271 755 1265.0 741.0Q1259 727 1237 727Q1215 727 1209.0 741.0Q1203 755 1202 773Q1202 775 1201.5 781.5Q1201 788 1198 788Q1195 788 1194.5 781.0Q1194 774 1194 773Q1193 764 1192.0 755.5Q1191 747 1187.5 741.0Q1184 735 1177.5 731.0Q1171 727 1159 727Q1142 727 1133.5 737.0Q1125 747 1125 764V986Q1125 1003 1133.0 1020.5Q1141 1038 1152.5 1054.0Q1164 1070 1177.5 1084.5Q1191 1099 1203 1110Q1256 1161 1308.5 1210.5Q1361 1260 1414 1311Q1394 1360 1338 1360Q1314 1360 1291.5 1353.5Q1269 1347 1247.5 1336.5Q1226 1326 1206.0 1313.0Q1186 1300 1167 1288Q1125 1261 1082.5 1237.0Q1040 1213 992 1197Q941 1180 888.0 1169.5Q835 1159 781 1159Q699 1159 625.5 1184.5Q552 1210 483 1254Q475 1259 463.5 1267.5Q452 1276 441.5 1286.0Q431 1296 423.0 1307.0Q415 1318 415 1328Q415 1334 417 1337Q426 1353 438.0 1356.0Q450 1359 467 1359Q493 1359 520.0 1358.0Q547 1357 573 1357Q650 1357 711.5 1373.0Q773 1389 827.0 1418.5Q881 1448 932.0 1488.5Q983 1529 1039 1579Q1086 1621 1135.5 1646.5Q1185 1672 1237.5 1686.0Q1290 1700 1346.5 1705.0Q1403 1710 1463 1710Z" style="fill:#00d26a;stroke:none" transform="scale(1,-1) translate(0,-256)" /></svg>