<?xml version="1.0" encoding="utf-8" ?>
<svg baseProfile="full" height="256" version="1.1" width="256" xmlns="http://www.w3.org/2000/svg" xmlns:ev="http://www.w3.org/2001/xml-events" xmlns:xlink="http://www.w3.org/1999/xlink"><defs /><path d="M1765 1797Q1864 1797 1956.0 1771.5Q2048 1746 2128.0 1699.5Q2208 1653 2273.5 1587.5Q2339 1522 2386.0 1442.0Q2433 1362 2458.5 1270.0Q2484 1178 2484 1079Q2484 983 2459.5 892.0Q2435 801 2390.0 721.5Q2345 642 2282.0 575.5Q2219 509 2141.5 461.0Q2064 413 1974.5 386.5Q1885 360 1787 360H874Q762 360 663.0 403.5Q564 447 489.5 521.0Q415 595 371.5 694.5Q328 794 328 906Q328 1012 366.5 1106.5Q405 1201 472.5 1273.5Q540 1346 632.0 1390.5Q724 1435 830 1442Q855 1482 888.5 1513.5Q922 1545 961.5 1567.0Q1001 1589 1045.5 1601.0Q1090 1613 1137 1613Q1169 1613 1200.5 1607.5Q1232 1602 1262 1591Q1363 1691 1493.0 1744.0Q1623 1797 1765 1797Z" style="fill:#b4acbc;stroke:none" transform="scale(1,-1) translate(0,-256)" /></svg>