<?xml version="1.0" encoding="utf-8" ?>
<svg baseProfile="full" height="256" version="1.1" width="256" xmlns="http://www.w3.org/2000/svg" xmlns:ev="http://www.w3.org/2001/xml-events" xmlns:xlink="http://www.w3.org/1999/xlink"><defs /><path d="M1082 239Q1106 239 1118.5 225.0Q1131 211 1140.5 194.5Q1150 178 1162.0 164.5Q1174 151 1198 151Q1212 151 1226.5 153.5Q1241 156 1255 156Q1278 156 1294.0 140.0Q1310 124 1310 101Q1310 81 1300.0 62.5Q1290 44 1290 24Q1290 6 1299.5 -6.5Q1309 -19 1321.0 -30.5Q1333 -42 1342.5 -54.0Q1352 -66 1352 -84Q1352 -102 1345.0 -113.0Q1338 -124 1326.5 -131.0Q1315 -138 1301.0 -142.5Q1287 -147 1274 -151Q1257 -157 1249.5 -169.5Q1242 -182 1238.5 -197.0Q1235 -212 1233.0 -228.5Q1231 -245 1226.0 -258.5Q1221 -272 1210.5 -280.5Q1200 -289 1178 -289Q1164 -289 1152.5 -283.0Q1141 -277 1130.0 -269.5Q1119 -262 1107.5 -256.0Q1096 -250 1082 -250Q1068 -250 1057.0 -256.0Q1046 -262 1035.0 -269.5Q1024 -277 1012.5 -283.0Q1001 -289 988 -289Q966 -289 955.0 -280.5Q944 -272 938.5 -258.5Q933 -245 931.5 -228.5Q930 -212 926.5 -197.0Q923 -182 915.5 -169.5Q908 -157 891 -151Q877 -147 863.5 -142.5Q850 -138 838.5 -131.0Q827 -124 820.0 -113.0Q813 -102 813 -84Q813 -66 822.5 -54.0Q832 -42 844.0 -30.5Q856 -19 865.5 -6.5Q875 6 875 25Q875 45 865.0 63.0Q855 81 855 101Q855 124 871.0 140.0Q887 156 910 156Q924 156 938.5 153.5Q953 151 967 151Q991 151 1002.5 164.5Q1014 178 1024.0 194.5Q1034 211 1046.0 225.0Q1058 239 1082 239ZM1738 415Q1756 415 1764.0 406.5Q1772 398 1777.0 387.5Q1782 377 1788.5 366.5Q1795 356 1811 353Q1826 350 1835.5 338.5Q1845 327 1845 311Q1845 297 1836.5 286.5Q1828 276 1828 261Q1828 250 1833.0 241.5Q1838 233 1838 222Q1838 201 1828.5 193.5Q1819 186 1806.0 182.5Q1793 179 1780.0 174.5Q1767 170 1760 155Q1755 144 1744.5 137.0Q1734 130 1721 130Q1709 130 1702.0 134.5Q1695 139 1688.5 145.0Q1682 151 1675.0 155.5Q1668 160 1656 160Q1651 160 1645.5 159.0Q1640 158 1635 158Q1618 158 1605.5 170.5Q1593 183 1593 200Q1593 204 1594.0 208.0Q1595 212 1595 216Q1595 229 1590.0 236.0Q1585 243 1578.5 249.0Q1572 255 1567.0 262.5Q1562 270 1562 283Q1562 299 1569.0 307.0Q1576 315 1584.5 321.0Q1593 327 1600.0 335.0Q1607 343 1607 359Q1607 377 1619.0 389.5Q1631 402 1649 402Q1659 402 1666.5 398.5Q1674 395 1683 395Q1692 395 1698.5 398.0Q1705 401 1711.0 405.0Q1717 409 1723.0 412.0Q1729 415 1738 415Z" style="fill:#00a6ed;stroke:none" transform="scale(1,-1) translate(0,-256)" /></svg>