<?xml version="1.0" encoding="utf-8" ?>
<svg baseProfile="full" height="256" version="1.1" width="256" xmlns="http://www.w3.org/2000/svg" xmlns:ev="http://www.w3.org/2001/xml-events" xmlns:xlink="http://www.w3.org/1999/xlink"><defs /><path d="M931 1552Q966 1541 992 1510Q1054 1437 1114.0 1363.5Q1174 1290 1235 1216Q1410 1005 1587.0 795.0Q1764 585 1949 383Q1957 375 1962.5 366.5Q1968 358 1976 350Q1963 337 1941.0 329.5Q1919 322 1901 322Q1878 322 1856.0 332.0Q1834 342 1819 360L928 1410Q903 1440 903 1479Q903 1521 931 1552Z" style="fill:#1c1c1c;stroke:none" transform="scale(1,-1) translate(0,-256)" /></svg>