<?xml version="1.0" encoding="utf-8" ?>
<svg baseProfile="full" height="256" version="1.1" width="256" xmlns="http://www.w3.org/2000/svg" xmlns:ev="http://www.w3.org/2001/xml-events" xmlns:xlink="http://www.w3.org/1999/xlink"><defs /><path d="M687 689Q633 689 579.5 684.0Q526 679 472 674V1149Q472 1217 492.0 1281.5Q512 1346 549.0 1401.5Q586 1457 638.5 1500.0Q691 1543 755 1567Q774 1574 792.5 1578.0Q811 1582 831 1582Q882 1582 925.0 1560.0Q968 1538 1001 1500Q1062 1430 1120.0 1358.5Q1178 1287 1237 1215Q1352 1078 1465.0 942.5Q1578 807 1694 671Q1768 584 1842.0 497.5Q1916 411 1997 330Q2055 272 2111.5 213.5Q2168 155 2223 95Q2249 67 2277.0 37.0Q2305 7 2325 -25Q2339 -47 2348.5 -66.0Q2358 -85 2358 -112Q2358 -141 2341.5 -159.0Q2325 -177 2295 -177L1172 -173Q1131 -173 1095.0 -157.5Q1059 -142 1032.5 -115.0Q1006 -88 990.5 -52.0Q975 -16 975 25V433Q975 499 953.0 547.0Q931 595 892.5 626.5Q854 658 801.5 673.5Q749 689 687 689Z" style="fill:#ca0b4a;stroke:none" transform="scale(1,-1) translate(0,-256)" /></svg>