<?xml version="1.0" encoding="utf-8" ?>
<svg baseProfile="full" height="256" version="1.1" width="256" xmlns="http://www.w3.org/2000/svg" xmlns:ev="http://www.w3.org/2001/xml-events" xmlns:xlink="http://www.w3.org/1999/xlink"><defs /><path d="M945 1683Q946 1695 954.5 1703.5Q963 1712 976 1712Q991 1712 1007.5 1695.0Q1024 1678 1040.0 1658.0Q1056 1638 1071.5 1621.0Q1087 1604 1100 1604Q1106 1604 1113 1609Q1152 1637 1187.5 1658.5Q1223 1680 1260.5 1695.0Q1298 1710 1338.5 1717.5Q1379 1725 1428 1725Q1504 1725 1573.0 1701.5Q1642 1678 1700.5 1636.0Q1759 1594 1804.0 1536.0Q1849 1478 1876 1409Q1885 1386 1894.0 1356.0Q1903 1326 1903 1303Q1903 1296 1899.5 1291.0Q1896 1286 1888 1286H1713Q1706 1286 1700.5 1296.0Q1695 1306 1690.0 1319.0Q1685 1332 1681.0 1345.0Q1677 1358 1674 1364Q1658 1397 1633.0 1425.5Q1608 1454 1577.0 1476.0Q1546 1498 1510.0 1510.5Q1474 1523 1437 1523Q1415 1523 1389.5 1519.5Q1364 1516 1339.0 1509.0Q1314 1502 1291.0 1490.5Q1268 1479 1252 1463Q1245 1456 1245 1447Q1245 1435 1260.5 1419.0Q1276 1403 1295.0 1385.5Q1314 1368 1329.5 1350.5Q1345 1333 1345 1319Q1345 1306 1335.5 1296.5Q1326 1287 1313 1287L947 1285Q933 1285 924.0 1295.0Q915 1305 916 1319ZM1861 -254Q1860 -267 1851.0 -275.0Q1842 -283 1829 -283Q1814 -283 1797.5 -266.0Q1781 -249 1765.0 -229.0Q1749 -209 1734.0 -192.0Q1719 -175 1706 -175Q1700 -175 1693 -180Q1655 -207 1619.0 -228.5Q1583 -250 1545.5 -265.0Q1508 -280 1467.0 -288.0Q1426 -296 1378 -296Q1302 -296 1233.0 -273.0Q1164 -250 1105.5 -208.0Q1047 -166 1002.0 -108.0Q957 -50 930 20Q921 43 912.0 73.0Q903 103 903 126Q903 133 906.5 138.0Q910 143 918 143H1093Q1099 143 1102.0 140.0Q1105 137 1107 132Q1114 115 1118.5 98.5Q1123 82 1131 65Q1147 32 1172.0 3.5Q1197 -25 1228.5 -47.0Q1260 -69 1295.5 -81.5Q1331 -94 1369 -94Q1392 -94 1417.0 -90.5Q1442 -87 1466.5 -80.0Q1491 -73 1513.5 -61.5Q1536 -50 1553 -34Q1561 -28 1561 -18Q1561 -6 1545.5 10.0Q1530 26 1511.0 43.5Q1492 61 1476.5 78.0Q1461 95 1461 110Q1461 123 1470.5 132.5Q1480 142 1493 142L1859 144Q1872 144 1881.5 133.5Q1891 123 1890 110Z" style="fill:#00a6ed;stroke:none" transform="scale(1,-1) translate(0,-256)" /></svg>