<?xml version="1.0" encoding="utf-8" ?>
<svg baseProfile="full" height="256" version="1.1" width="256" xmlns="http://www.w3.org/2000/svg" xmlns:ev="http://www.w3.org/2001/xml-events" xmlns:xlink="http://www.w3.org/1999/xlink"><defs /><path d="M687 1294Q719 1294 734.5 1278.0Q750 1262 755.5 1239.0Q761 1216 760.0 1189.5Q759 1163 759 1141Q801 1131 837.0 1108.0Q873 1085 899.5 1053.0Q926 1021 941.5 981.0Q957 941 957 898L886 896L957 898Q957 883 952.0 870.0Q947 857 937.5 847.0Q928 837 915.0 831.0Q902 825 887 825Q855 825 841.0 838.5Q827 852 820.0 872.0Q813 892 808.0 915.5Q803 939 790.0 959.0Q777 979 751.5 992.5Q726 1006 677 1006Q648 1006 623.5 1001.0Q599 996 581.0 984.0Q563 972 553.0 950.5Q543 929 543 896Q543 864 554.5 844.5Q566 825 584.5 814.0Q603 803 627.5 799.5Q652 796 679 796Q739 796 790.0 778.5Q841 761 878.0 727.0Q915 693 936.0 644.5Q957 596 957 534Q957 493 940.5 455.5Q924 418 896.5 388.0Q869 358 833.5 337.0Q798 316 759 307Q759 293 759.5 278.5Q760 264 760 249Q760 229 757.5 210.5Q755 192 747.5 177.0Q740 162 725.5 153.0Q711 144 687 144Q654 144 639.0 160.5Q624 177 618.5 201.5Q613 226 614.0 254.0Q615 282 615 304Q528 321 475.0 380.0Q422 439 401 522L472 535L401 522Q400 525 400.0 528.5Q400 532 400 535Q400 564 421.0 585.5Q442 607 471 607Q498 607 512.0 595.0Q526 583 535.0 564.5Q544 546 552.0 524.5Q560 503 574.0 484.5Q588 466 612.5 454.0Q637 442 679 442Q710 442 741.0 451.0Q772 460 792 486Q799 495 805.5 508.0Q812 521 813 533L814 534Q814 566 804.0 588.5Q794 611 776.0 625.0Q758 639 733.5 645.5Q709 652 679 652Q645 652 610.5 657.0Q576 662 544.5 674.5Q513 687 486.0 707.0Q459 727 439 757Q418 788 409.0 824.0Q400 860 400 897Q400 1000 457.0 1065.5Q514 1131 615 1146L614 1187Q614 1206 616.5 1225.5Q619 1245 626.5 1260.0Q634 1275 648.5 1284.5Q663 1294 687 1294ZM1914 1125Q1885 1125 1863.5 1104.0Q1842 1083 1842 1054Q1842 1045 1844.5 1036.5Q1847 1028 1851 1020L2045 647H1909Q1879 647 1858.0 626.0Q1837 605 1837 575Q1837 545 1858.0 524.0Q1879 503 1909 503H2053V431H1909Q1880 431 1858.5 410.0Q1837 389 1837 360Q1837 330 1858.0 309.0Q1879 288 1909 288H2053V250Q2053 230 2055.0 211.0Q2057 192 2064.5 177.0Q2072 162 2086.5 153.0Q2101 144 2125 144Q2156 144 2171.0 158.5Q2186 173 2192.0 194.5Q2198 216 2197.5 241.5Q2197 267 2197 288H2340Q2370 288 2391.0 309.0Q2412 330 2412 360Q2412 389 2390.5 410.0Q2369 431 2340 431H2197V503H2340Q2370 503 2391.0 524.0Q2412 545 2412 575Q2412 605 2391.0 626.0Q2370 647 2340 647H2205L2399 1020Q2407 1036 2407 1053Q2407 1082 2385.5 1103.5Q2364 1125 2335 1125Q2315 1125 2297.5 1114.5Q2280 1104 2271 1086L2125 805L1978 1086Q1968 1104 1951.0 1114.5Q1934 1125 1914 1125Z" style="fill:#635994;stroke:none" transform="scale(1,-1) translate(0,-256)" /></svg>