<?xml version="1.0" encoding="utf-8" ?>
<svg baseProfile="full" height="256" version="1.1" width="256" xmlns="http://www.w3.org/2000/svg" xmlns:ev="http://www.w3.org/2001/xml-events" xmlns:xlink="http://www.w3.org/1999/xlink"><defs /><path d="M1039 -287Q1037 -277 1031.5 -250.5Q1026 -224 1019.0 -190.5Q1012 -157 1004.0 -119.5Q996 -82 989.5 -50.0Q983 -18 979.0 5.5Q975 29 975 35Q975 51 985.5 61.5Q996 72 1011 72Q1024 72 1034.0 63.5Q1044 55 1046 43L1112 -287ZM1700 -287 1766 43Q1768 55 1778.0 63.5Q1788 72 1801 72Q1815 72 1826.0 62.0Q1837 52 1837 37Q1837 30 1833.0 6.0Q1829 -18 1822.5 -50.0Q1816 -82 1808.5 -119.0Q1801 -156 1793.5 -189.5Q1786 -223 1780.5 -249.5Q1775 -276 1773 -287ZM1442 36V-287H1370V36Q1370 51 1380.5 61.5Q1391 72 1406 72Q1421 72 1431.5 61.5Q1442 51 1442 36Z" style="fill:#3f5fff;stroke:none" transform="scale(1,-1) translate(0,-256)" /></svg>