<?xml version="1.0" encoding="utf-8" ?>
<svg baseProfile="full" height="256" version="1.1" width="256" xmlns="http://www.w3.org/2000/svg" xmlns:ev="http://www.w3.org/2001/xml-events" xmlns:xlink="http://www.w3.org/1999/xlink"><defs /><path d="M1560 1163Q1560 1178 1571 1189L1624 1242Q1635 1253 1649 1253Q1664 1253 1674.5 1242.0Q1685 1231 1685 1217Q1685 1201 1675 1191L1622 1138Q1611 1127 1596 1127Q1582 1127 1571.0 1138.0Q1560 1149 1560 1163ZM917 904Q917 919 927.5 929.5Q938 940 953 940H1029Q1044 940 1054.5 929.5Q1065 919 1065 904Q1065 889 1054.5 878.5Q1044 868 1029 868H953Q938 868 927.5 878.5Q917 889 917 904ZM1766 593Q1766 578 1756.0 567.0Q1746 556 1730 556Q1716 556 1705 567L1652 620Q1641 631 1641 646Q1641 660 1652.0 671.0Q1663 682 1677 682Q1693 682 1703 672L1756 618Q1766 608 1766 593Z" style="fill:#5092ff;stroke:none" transform="scale(1,-1) translate(0,-256)" /></svg>