<?xml version="1.0" encoding="utf-8" ?>
<svg baseProfile="full" height="256" version="1.1" width="256" xmlns="http://www.w3.org/2000/svg" xmlns:ev="http://www.w3.org/2001/xml-events" xmlns:xlink="http://www.w3.org/1999/xlink"><defs /><path d="M831 -287Q814 -287 797.0 -282.0Q780 -277 765.0 -267.5Q750 -258 739.0 -245.0Q728 -232 723 -215L594 216Q591 225 591 236Q591 247 596.5 259.0Q602 271 615 271Q625 271 630.0 258.5Q635 246 638 238Q642 250 652.0 261.5Q662 273 676 273Q690 273 703.5 260.0Q717 247 728.5 231.5Q740 216 749.5 203.0Q759 190 765 190Q772 190 776.5 203.0Q781 216 788.0 231.5Q795 247 808.0 260.0Q821 273 845 273Q868 273 887.0 259.5Q906 246 922.5 230.0Q939 214 953.0 200.5Q967 187 981 187Q992 187 1002.0 200.5Q1012 214 1025.0 230.5Q1038 247 1056.5 260.5Q1075 274 1105 274Q1132 274 1152.5 260.5Q1173 247 1190.0 230.5Q1207 214 1222.5 200.5Q1238 187 1255 187Q1273 187 1287.0 200.5Q1301 214 1317.0 230.5Q1333 247 1353.5 260.5Q1374 274 1404 274Q1438 274 1459.5 260.0Q1481 246 1496.5 229.5Q1512 213 1525.0 199.0Q1538 185 1554 185Q1569 185 1585.5 199.0Q1602 213 1621.5 229.5Q1641 246 1665.0 260.0Q1689 274 1719 274Q1743 274 1759.0 260.0Q1775 246 1786.5 229.5Q1798 213 1808.0 199.0Q1818 185 1832 185Q1844 185 1858.0 199.0Q1872 213 1888.5 229.5Q1905 246 1925.0 260.0Q1945 274 1971 274Q1995 274 2006.5 260.5Q2018 247 2024.0 231.5Q2030 216 2034.0 202.5Q2038 189 2047 189Q2054 189 2064.0 202.0Q2074 215 2086.0 230.0Q2098 245 2111.0 258.0Q2124 271 2139 271Q2156 271 2162.0 261.0Q2168 251 2173 238Q2177 247 2182.0 259.5Q2187 272 2199 272Q2207 272 2213.0 266.0Q2219 260 2219 252Q2219 237 2211.0 202.0Q2203 167 2191.0 122.0Q2179 77 2164.0 26.0Q2149 -25 2134.5 -71.5Q2120 -118 2107.5 -156.5Q2095 -195 2089 -215Q2077 -253 2048.0 -270.0Q2019 -287 1981 -287H831Z" style="fill:#5092ff;stroke:none" transform="scale(1,-1) translate(0,-256)" /></svg>