<?xml version="1.0" encoding="utf-8" ?>
<svg baseProfile="full" height="256" version="1.1" width="256" xmlns="http://www.w3.org/2000/svg" xmlns:ev="http://www.w3.org/2001/xml-events" xmlns:xlink="http://www.w3.org/1999/xlink"><defs /><path d="M1766 1369Q1766 1330 1749 1293H1803Q1855 1293 1900.5 1273.0Q1946 1253 1980.0 1219.0Q2014 1185 2034.0 1139.5Q2054 1094 2054 1042Q2054 1014 2048.0 986.5Q2042 959 2029 934Q2079 932 2123.0 911.0Q2167 890 2199.5 856.0Q2232 822 2251.0 777.0Q2270 732 2270 682Q2270 630 2250.0 584.5Q2230 539 2195.5 505.0Q2161 471 2115.5 451.0Q2070 431 2018 431H795Q743 431 697.5 451.0Q652 471 617.5 505.0Q583 539 563.0 584.5Q543 630 543 682Q543 732 561.5 777.0Q580 822 612.5 856.0Q645 890 689.0 911.0Q733 932 783 934Q759 985 759 1042Q759 1094 779.0 1140.0Q799 1186 833.0 1220.0Q867 1254 913.0 1273.5Q959 1293 1011 1293H1064Q1047 1330 1047 1369Q1047 1407 1063.0 1443.0Q1079 1479 1108 1505L1326 1695Q1361 1725 1406 1725Q1452 1725 1487 1695L1698 1511Q1730 1482 1748.0 1447.5Q1766 1413 1766 1369Z" style="fill:#ff6dc6;stroke:none" transform="scale(1,-1) translate(0,-256)" /></svg>