<?xml version="1.0" encoding="utf-8" ?>
<svg baseProfile="full" height="256" version="1.1" width="256" xmlns="http://www.w3.org/2000/svg" xmlns:ev="http://www.w3.org/2001/xml-events" xmlns:xlink="http://www.w3.org/1999/xlink"><defs /><path d="M2070 433Q2096 433 2119.5 423.0Q2143 413 2160.5 395.5Q2178 378 2188.0 355.0Q2198 332 2198 305Q2198 296 2197.0 287.0Q2196 278 2193 269L2041 -227Q2035 -247 2016.5 -260.0Q1998 -273 1977 -273H836Q815 -273 796.5 -260.0Q778 -247 772 -227L621 269Q618 278 617.0 287.0Q616 296 616 305Q616 332 626.0 355.0Q636 378 653.0 395.5Q670 413 693.5 423.0Q717 433 743 433L1407 760L2070 433Z" style="fill:#fbb8ab;stroke:none" transform="scale(1,-1) translate(0,-256)" /></svg>