<?xml version="1.0" encoding="utf-8" ?>
<svg baseProfile="full" height="256" version="1.1" width="256" xmlns="http://www.w3.org/2000/svg" xmlns:ev="http://www.w3.org/2001/xml-events" xmlns:xlink="http://www.w3.org/1999/xlink"><defs /><path d="M1431 1376Q1416 1376 1405 1387L1352 1441Q1341 1452 1341 1466Q1341 1481 1351.5 1491.5Q1362 1502 1377 1502Q1393 1502 1403 1492L1456 1438Q1467 1427 1467 1412Q1467 1398 1456.0 1387.0Q1445 1376 1431 1376ZM1772 1033Q1787 1033 1798 1022L1851 969Q1861 959 1861 943Q1861 928 1850.5 917.5Q1840 907 1825 907Q1811 907 1800 918L1747 971Q1736 982 1736 996Q1736 1011 1747.0 1022.0Q1758 1033 1772 1033ZM1097 593Q1097 607 1108 618L1162 672Q1172 682 1187 682Q1202 682 1212.5 671.5Q1223 661 1223 646Q1223 630 1213 620L1159 567Q1148 556 1134 556Q1119 556 1108.0 566.5Q1097 577 1097 593Z" style="fill:#efd5ff;stroke:none" transform="scale(1,-1) translate(0,-256)" /></svg>