<?xml version="1.0" encoding="utf-8" ?>
<svg baseProfile="full" height="256" version="1.1" width="256" xmlns="http://www.w3.org/2000/svg" xmlns:ev="http://www.w3.org/2001/xml-events" xmlns:xlink="http://www.w3.org/1999/xlink"><defs /><path d="M1272 1297Q1272 1293 1270.0 1289.5Q1268 1286 1263 1286H1198Q1193 1286 1191.0 1290.0Q1189 1294 1189 1298Q1189 1315 1201.0 1326.0Q1213 1337 1230 1337Q1248 1337 1260.0 1326.0Q1272 1315 1272 1297ZM1532 1297Q1532 1293 1534.0 1289.5Q1536 1286 1541 1286H1606Q1611 1286 1613.0 1290.0Q1615 1294 1615 1298Q1615 1315 1602.5 1326.0Q1590 1337 1573 1337Q1556 1337 1544.0 1325.5Q1532 1314 1532 1297Z" style="fill:#ffffff;stroke:none" transform="scale(1,-1) translate(0,-256)" /></svg>