<?xml version="1.0" encoding="utf-8" ?>
<svg baseProfile="full" height="256" version="1.1" width="256" xmlns="http://www.w3.org/2000/svg" xmlns:ev="http://www.w3.org/2001/xml-events" xmlns:xlink="http://www.w3.org/1999/xlink"><defs /><path d="M1889 1232Q1889 1227 1892.0 1223.5Q1895 1220 1898.0 1216.5Q1901 1213 1904.0 1208.0Q1907 1203 1907 1195Q1907 1175 1890.5 1163.0Q1874 1151 1855 1151Q1830 1151 1817.0 1160.5Q1804 1170 1798.5 1185.0Q1793 1200 1792.5 1219.0Q1792 1238 1792 1257Q1796 1265 1798.5 1272.5Q1801 1280 1801 1288Q1801 1297 1796.0 1307.5Q1791 1318 1783.0 1327.0Q1775 1336 1765.5 1340.5Q1756 1345 1746 1342Q1746 1360 1733.0 1371.5Q1720 1383 1701.5 1389.0Q1683 1395 1663.5 1397.5Q1644 1400 1632 1400Q1605 1400 1578.5 1402.5Q1552 1405 1531.0 1415.0Q1510 1425 1496.5 1444.5Q1483 1464 1483 1497Q1483 1535 1507.0 1558.0Q1531 1581 1569 1581Q1598 1581 1625.0 1570.0Q1652 1559 1679 1559Q1701 1559 1722.0 1565.5Q1743 1572 1766 1572Q1811 1572 1843.5 1554.0Q1876 1536 1898.0 1506.5Q1920 1477 1930.5 1438.5Q1941 1400 1941 1360Q1941 1329 1933.0 1306.5Q1925 1284 1915.0 1268.5Q1905 1253 1897.0 1244.0Q1889 1235 1889 1232ZM915 1232Q915 1227 912.0 1223.5Q909 1220 906.0 1216.5Q903 1213 900.0 1208.0Q897 1203 897 1195Q897 1175 913.0 1162.5Q929 1150 948 1150Q973 1150 986.5 1159.5Q1000 1169 1005.5 1184.0Q1011 1199 1011.5 1218.0Q1012 1237 1012 1256Q1003 1269 1003 1287Q1003 1308 1019.0 1326.5Q1035 1345 1058 1342Q1058 1360 1071.0 1371.5Q1084 1383 1102.0 1389.5Q1120 1396 1139.5 1398.0Q1159 1400 1171 1400Q1198 1400 1224.5 1402.5Q1251 1405 1272.0 1415.0Q1293 1425 1306.5 1444.5Q1320 1464 1320 1497Q1320 1535 1296.0 1558.0Q1272 1581 1234 1581Q1205 1581 1178.5 1570.0Q1152 1559 1125 1559Q1103 1559 1082.0 1565.5Q1061 1572 1038 1572Q994 1572 961.0 1554.0Q928 1536 906.0 1507.0Q884 1478 873.0 1440.0Q862 1402 862 1362Q862 1329 870.5 1306.0Q879 1283 888.5 1268.0Q898 1253 906.5 1244.5Q915 1236 915 1232Z" style="fill:#f1a11e;stroke:none" transform="scale(1,-1) translate(0,-256)" /></svg>