<?xml version="1.0" encoding="utf-8" ?>
<svg baseProfile="full" height="256" version="1.1" width="256" xmlns="http://www.w3.org/2000/svg" xmlns:ev="http://www.w3.org/2001/xml-events" xmlns:xlink="http://www.w3.org/1999/xlink"><defs /><path d="M1161 1498Q1189 1498 1213.5 1487.5Q1238 1477 1256.5 1458.5Q1275 1440 1286.0 1415.5Q1297 1391 1297 1363Q1297 1345 1296.5 1325.5Q1296 1306 1305 1289Q1310 1279 1322.0 1265.5Q1334 1252 1334 1242Q1334 1231 1328.5 1225.5Q1323 1220 1316.0 1216.5Q1309 1213 1303.0 1210.5Q1297 1208 1297 1204Q1294 1172 1290.0 1145.5Q1286 1119 1274.5 1100.0Q1263 1081 1240.5 1070.5Q1218 1060 1179 1060Q1156 1060 1126.5 1067.0Q1097 1074 1069.5 1087.0Q1042 1100 1021.0 1119.0Q1000 1138 993 1163Q986 1187 980.0 1211.5Q974 1236 967 1260Q966 1263 961.5 1279.5Q957 1296 951.5 1314.5Q946 1333 941.5 1348.0Q937 1363 937 1363Q937 1391 948.0 1415.5Q959 1440 977.5 1458.5Q996 1477 1020.5 1487.5Q1045 1498 1073 1498ZM1642 1498H1731Q1759 1498 1783.5 1487.5Q1808 1477 1826.5 1458.5Q1845 1440 1855.5 1415.5Q1866 1391 1866 1363Q1866 1363 1861.5 1348.0Q1857 1333 1852.0 1314.5Q1847 1296 1842.5 1279.5Q1838 1263 1837 1260Q1830 1236 1823.5 1211.5Q1817 1187 1810 1163Q1803 1138 1781.5 1119.0Q1760 1100 1733.0 1087.0Q1706 1074 1676.5 1067.0Q1647 1060 1624 1060Q1585 1060 1562.5 1070.5Q1540 1081 1528.5 1100.0Q1517 1119 1513.0 1145.5Q1509 1172 1506 1204Q1506 1208 1500.0 1211.0Q1494 1214 1487.5 1217.0Q1481 1220 1475.5 1225.5Q1470 1231 1470 1242Q1470 1246 1473.5 1252.5Q1477 1259 1481.5 1265.5Q1486 1272 1491.0 1278.0Q1496 1284 1498 1289Q1507 1306 1506.5 1325.0Q1506 1344 1506 1363Q1506 1391 1517.0 1415.5Q1528 1440 1546.5 1458.5Q1565 1477 1589.5 1487.5Q1614 1498 1642 1498Z" style="fill:#ffc83d;stroke:none" transform="scale(1,-1) translate(0,-256)" /></svg>