<?xml version="1.0" encoding="utf-8" ?>
<svg baseProfile="full" height="256" version="1.1" width="256" xmlns="http://www.w3.org/2000/svg" xmlns:ev="http://www.w3.org/2001/xml-events" xmlns:xlink="http://www.w3.org/1999/xlink"><defs /><path d="M1132 1560Q1132 1557 1131 1555Q1122 1528 1111.0 1496.0Q1100 1464 1090.5 1430.5Q1081 1397 1074.0 1363.0Q1067 1329 1067 1298Q1067 1226 1093.0 1171.0Q1119 1116 1167 1065Q1171 1061 1171 1054Q1171 1048 1166.5 1043.0Q1162 1038 1156 1038Q1149 1038 1145 1042Q1092 1090 1063.5 1158.5Q1035 1227 1035 1298Q1035 1331 1042.0 1365.5Q1049 1400 1059.0 1434.0Q1069 1468 1080.5 1501.0Q1092 1534 1101 1564Q1104 1576 1116 1576Q1123 1576 1127.5 1571.0Q1132 1566 1132 1560ZM1686 1576Q1699 1576 1702 1564Q1712 1533 1723.5 1500.0Q1735 1467 1745.0 1433.0Q1755 1399 1762.0 1364.5Q1769 1330 1769 1297Q1769 1226 1740.5 1157.5Q1712 1089 1659 1041Q1655 1037 1648 1037Q1642 1037 1637.0 1041.0Q1632 1045 1632 1052Q1632 1059 1637 1064Q1685 1116 1711.0 1171.0Q1737 1226 1737 1298Q1737 1329 1730.0 1362.5Q1723 1396 1713.0 1429.5Q1703 1463 1692.0 1495.0Q1681 1527 1672 1555Q1672 1556 1671.5 1557.0Q1671 1558 1671 1560Q1671 1566 1675.5 1571.0Q1680 1576 1686 1576Z" style="fill:#321b41;stroke:none" transform="scale(1,-1) translate(0,-256)" /></svg>