<?xml version="1.0" encoding="utf-8" ?>
<svg baseProfile="full" height="256" version="1.1" width="256" xmlns="http://www.w3.org/2000/svg" xmlns:ev="http://www.w3.org/2001/xml-events" xmlns:xlink="http://www.w3.org/1999/xlink"><defs /><path d="M629 742Q669 742 697 714L926 490L795 359L563 578Q549 592 541.5 609.5Q534 627 534 646Q534 666 541.5 683.5Q549 701 562.0 714.0Q575 727 592.0 734.5Q609 742 629 742ZM2017 360 2249 578Q2263 591 2270.5 608.5Q2278 626 2278 646Q2278 665 2270.5 682.5Q2263 700 2249.5 713.5Q2236 727 2218.5 734.5Q2201 742 2182 742Q2142 742 2114 714L1886 491Z" style="fill:#f95725;stroke:none" transform="scale(1,-1) translate(0,-256)" /></svg>