<?xml version="1.0" encoding="utf-8" ?>
<svg baseProfile="full" height="256" version="1.1" width="256" xmlns="http://www.w3.org/2000/svg" xmlns:ev="http://www.w3.org/2001/xml-events" xmlns:xlink="http://www.w3.org/1999/xlink"><defs /><path d="M411 664Q411 713 430.5 749.0Q450 785 483 818L738 1074Q764 1101 799.5 1115.0Q835 1129 873 1129Q913 1129 948.0 1114.0Q983 1099 1009.0 1073.0Q1035 1047 1050.0 1012.5Q1065 978 1065 938Q1065 898 1050.5 865.0Q1036 832 1009 803L795 579Q766 549 727.0 535.0Q688 521 646 527L707 342H505L427 579Q420 600 415.5 620.5Q411 641 411 664ZM2306 342 2385 579Q2392 600 2396.5 620.5Q2401 641 2401 664Q2401 713 2381.5 749.0Q2362 785 2329 818L2073 1074Q2046 1101 2011.0 1115.0Q1976 1129 1938 1129Q1898 1129 1863.5 1114.0Q1829 1099 1803.0 1073.0Q1777 1047 1762.0 1012.5Q1747 978 1747 938Q1747 898 1761.5 865.0Q1776 832 1803 803L2017 579Q2046 550 2085.0 535.5Q2124 521 2165 527L2104 342Z" style="fill:#ff6723;stroke:none" transform="scale(1,-1) translate(0,-256)" /></svg>