<?xml version="1.0" encoding="utf-8" ?>
<svg baseProfile="full" height="256" version="1.1" width="256" xmlns="http://www.w3.org/2000/svg" xmlns:ev="http://www.w3.org/2001/xml-events" xmlns:xlink="http://www.w3.org/1999/xlink"><defs /><path d="M724 -157Q738 -166 738 -183Q738 -196 729.0 -205.0Q720 -214 707 -214H421Q413 -214 406.5 -207.5Q400 -201 400 -193Q400 -190 405.5 -172.0Q411 -154 418.0 -133.0Q425 -112 431.5 -93.0Q438 -74 440 -68H591ZM2372 -68Q2374 -73 2380.5 -92.0Q2387 -111 2394.0 -132.5Q2401 -154 2406.5 -172.0Q2412 -190 2412 -193Q2412 -201 2405.5 -207.5Q2399 -214 2390 -214H2104Q2091 -214 2082.0 -205.0Q2073 -196 2073 -183Q2073 -166 2087 -157L2221 -68ZM1109 -71 1255 -148Q1263 -152 1268.0 -159.5Q1273 -167 1273 -176Q1273 -192 1264.0 -203.0Q1255 -214 1238 -214H996Q982 -214 974.0 -205.5Q966 -197 965 -183L960 -71ZM1851 -71 1846 -183Q1845 -197 1837.0 -205.5Q1829 -214 1815 -214H1574Q1557 -214 1548.0 -203.0Q1539 -192 1539 -176Q1539 -167 1544.0 -160.0Q1549 -153 1557 -148L1703 -71Z" style="fill:#533566;stroke:none" transform="scale(1,-1) translate(0,-256)" /></svg>