<?xml version="1.0" encoding="utf-8" ?>
<svg baseProfile="full" height="256" version="1.1" width="256" xmlns="http://www.w3.org/2000/svg" xmlns:ev="http://www.w3.org/2001/xml-events" xmlns:xlink="http://www.w3.org/1999/xlink"><defs /><path d="M911 505Q947 470 982.5 437.5Q1018 405 1045.5 369.5Q1073 334 1090.5 292.5Q1108 251 1108 197V2H957L933 197Q931 211 924.0 227.0Q917 243 906 254L778 375ZM1901 505Q1865 470 1830.0 437.5Q1795 405 1766.5 369.5Q1738 334 1720.5 292.5Q1703 251 1703 197V2H1855L1879 197Q1881 211 1887.5 227.5Q1894 244 1905 254L2034 375Z" style="fill:#fcb100;stroke:none" transform="scale(1,-1) translate(0,-256)" /></svg>