<?xml version="1.0" encoding="utf-8" ?>
<svg baseProfile="full" height="256" version="1.1" width="256" xmlns="http://www.w3.org/2000/svg" xmlns:ev="http://www.w3.org/2001/xml-events" xmlns:xlink="http://www.w3.org/1999/xlink"><defs /><path d="M1266 1297Q1266 1292 1262 1286H1240Q1237 1290 1237 1297Q1237 1303 1240.5 1309.5Q1244 1316 1251 1316Q1258 1316 1262.0 1309.5Q1266 1303 1266 1297ZM1538 1297Q1538 1290 1542 1286H1563Q1567 1292 1567 1297Q1567 1303 1563.0 1309.5Q1559 1316 1552 1316Q1545 1316 1541.5 1309.5Q1538 1303 1538 1297Z" style="fill:#000000;stroke:none" transform="scale(1,-1) translate(0,-256)" /></svg>