<?xml version="1.0" encoding="utf-8" ?>
<svg baseProfile="full" height="256" version="1.1" width="256" xmlns="http://www.w3.org/2000/svg" xmlns:ev="http://www.w3.org/2001/xml-events" xmlns:xlink="http://www.w3.org/1999/xlink"><defs /><path d="M2231 695Q2198 695 2174.0 718.5Q2150 742 2150 776Q2150 788 2157.5 814.5Q2165 841 2175.0 871.0Q2185 901 2194.5 928.5Q2204 956 2209 970H1941Q1908 970 1884.5 994.0Q1861 1018 1861 1051Q1861 1084 1884.0 1108.5Q1907 1133 1941 1133H2240Q2269 1133 2294.5 1122.0Q2320 1111 2338.5 1092.0Q2357 1073 2368.0 1047.5Q2379 1022 2379 994Q2379 970 2372 950L2307 752Q2299 726 2279.0 710.5Q2259 695 2231 695ZM1521 945Q1535 945 1549.5 949.0Q1564 953 1578 953Q1589 953 1596.5 945.0Q1604 937 1604 926Q1604 912 1598.0 907.0Q1592 902 1584.0 900.0Q1576 898 1567.0 896.0Q1558 894 1552 888L1534 869Q1468 796 1390.0 752.0Q1312 708 1211 708Q1205 708 1198.5 708.0Q1192 708 1186 709Q1097 717 1029.0 758.0Q961 799 909 871Q898 885 887.5 902.0Q877 919 870 936L1016 1002L1017 1001Q1023 991 1028.0 981.0Q1033 971 1040 962Q1068 922 1107.0 896.5Q1146 871 1196 871Q1229 871 1262.0 878.5Q1295 886 1325.0 901.0Q1355 916 1380.5 937.5Q1406 959 1425 987Q1435 1001 1444.5 1014.5Q1454 1028 1464 1042Q1472 1053 1485.5 1058.5Q1499 1064 1512 1064Q1521 1064 1533.5 1065.0Q1546 1066 1557.5 1064.0Q1569 1062 1577.0 1056.0Q1585 1050 1585 1036Q1585 1028 1579.5 1021.5Q1574 1015 1567 1012Q1589 1007 1589 985Q1589 972 1582.0 966.5Q1575 961 1565.0 959.0Q1555 957 1543.5 957.5Q1532 958 1524 958L1514 945Z" style="fill:#fcb100;stroke:none" transform="scale(1,-1) translate(0,-256)" /></svg>