<?xml version="1.0" encoding="utf-8" ?>
<svg baseProfile="full" height="256" version="1.1" width="256" xmlns="http://www.w3.org/2000/svg" xmlns:ev="http://www.w3.org/2001/xml-events" xmlns:xlink="http://www.w3.org/1999/xlink"><defs /><path d="M1325 494Q1331 490 1340.5 485.5Q1350 481 1359.0 475.5Q1368 470 1374.5 462.5Q1381 455 1381 446Q1381 438 1376.5 430.5Q1372 423 1364 421Q1367 415 1367 408Q1367 394 1357.0 386.0Q1347 378 1333 382Q1331 373 1324.0 366.5Q1317 360 1307 360Q1301 360 1295 363Q1295 354 1285.5 347.0Q1276 340 1268 340Q1265 340 1258.0 343.0Q1251 346 1243.5 350.0Q1236 354 1229.0 358.0Q1222 362 1219 364Q1201 374 1183.0 383.0Q1165 392 1147 402Q1035 465 953.0 557.0Q871 649 820 767Q796 768 774.5 778.0Q753 788 737.5 804.5Q722 821 712.5 842.5Q703 864 703 888Q703 911 710.5 929.0Q718 947 730.0 962.0Q742 977 757.0 991.5Q772 1006 787 1021Q804 1038 827.0 1048.0Q850 1058 875 1058Q899 1058 920.5 1048.5Q942 1039 958.5 1022.5Q975 1006 984.5 984.0Q994 962 994 938Q994 915 985.0 893.5Q976 872 960 855Q1001 749 1076.5 665.0Q1152 581 1252 528H1254Q1260 529 1269.0 532.5Q1278 536 1288.0 539.0Q1298 542 1307.0 544.5Q1316 547 1321 547Q1332 547 1340.0 540.0Q1348 533 1348 522Q1348 515 1340.5 503.5Q1333 492 1325 494ZM2112 883Q2112 858 2102.5 836.0Q2093 814 2076.5 797.0Q2060 780 2037.5 770.0Q2015 760 1990 760Q1958 760 1933 775Q1915 751 1892.0 721.5Q1869 692 1841.0 662.0Q1813 632 1782.0 603.5Q1751 575 1718.0 553.0Q1685 531 1650.5 517.5Q1616 504 1582 504Q1542 504 1502.0 503.0Q1462 502 1422 502Q1410 502 1402.5 510.5Q1395 519 1395 530Q1395 539 1399 544Q1388 544 1379.5 551.5Q1371 559 1371 571Q1371 589 1389 596Q1371 603 1371 622Q1371 637 1382.0 643.0Q1393 649 1408.0 650.5Q1423 652 1438.0 650.5Q1453 649 1462 649L1449 662Q1440 671 1427.0 672.0Q1414 673 1402.0 674.0Q1390 675 1381.0 679.5Q1372 684 1372 701Q1372 712 1377.0 717.5Q1382 723 1389.0 725.5Q1396 728 1404.5 728.0Q1413 728 1421 728Q1458 728 1486 702Q1488 712 1495.5 718.5Q1503 725 1513 725Q1523 725 1529.5 719.0Q1536 713 1539.5 704.0Q1543 695 1545.5 685.0Q1548 675 1550 668H1558Q1601 668 1641.5 692.0Q1682 716 1716.5 751.5Q1751 787 1778.5 827.5Q1806 868 1824 900Q1822 910 1820.0 918.0Q1818 926 1818 937Q1818 962 1827.5 984.0Q1837 1006 1853.5 1022.5Q1870 1039 1891.5 1048.5Q1913 1058 1938 1058Q1962 1058 1981.5 1049.5Q2001 1041 2017.5 1027.5Q2034 1014 2048.5 997.5Q2063 981 2079 965Q2112 930 2112 883Z" style="fill:#ffc83d;stroke:none" transform="scale(1,-1) translate(0,-256)" /></svg>