<?xml version="1.0" encoding="utf-8" ?>
<svg baseProfile="full" height="256" version="1.1" width="256" xmlns="http://www.w3.org/2000/svg" xmlns:ev="http://www.w3.org/2001/xml-events" xmlns:xlink="http://www.w3.org/1999/xlink"><defs /><path d="M701 358Q712 326 719.0 301.5Q726 277 726 243Q726 237 725.0 226.5Q724 216 722.5 205.0Q721 194 719.0 184.0Q717 174 714 168L581 -87H435Q438 -77 446.5 -50.5Q455 -24 466.0 11.0Q477 46 489.5 84.5Q502 123 512.0 156.0Q522 189 528.5 213.0Q535 237 535 243Q535 252 530.5 267.5Q526 283 520.0 300.0Q514 317 508.0 332.5Q502 348 499 358ZM2110 358H2312Q2309 348 2303.0 332.5Q2297 317 2291.0 300.0Q2285 283 2280.5 267.5Q2276 252 2276 243Q2276 237 2282.5 213.5Q2289 190 2299.0 156.5Q2309 123 2321.5 84.5Q2334 46 2345.0 11.5Q2356 -23 2365.0 -50.0Q2374 -77 2377 -87H2231L2097 168Q2094 174 2091.5 184.0Q2089 194 2087.5 205.0Q2086 216 2085.5 226.5Q2085 237 2085 243Q2085 277 2092.0 301.5Q2099 326 2110 358Z" style="fill:#ffc83d;stroke:none" transform="scale(1,-1) translate(0,-256)" /></svg>