<?xml version="1.0" encoding="utf-8" ?>
<svg baseProfile="full" height="256" version="1.1" width="256" xmlns="http://www.w3.org/2000/svg" xmlns:ev="http://www.w3.org/2001/xml-events" xmlns:xlink="http://www.w3.org/1999/xlink"><defs /><path d="M1128 1288Q1128 1269 1120.5 1252.0Q1113 1235 1100.5 1222.0Q1088 1209 1071.0 1201.5Q1054 1194 1035 1194Q1015 1194 998.0 1201.5Q981 1209 968.5 1221.5Q956 1234 948.5 1251.0Q941 1268 941 1288Q941 1307 948.5 1324.0Q956 1341 969.0 1353.5Q982 1366 999.0 1373.5Q1016 1381 1035 1381Q1054 1381 1071.0 1373.5Q1088 1366 1100.5 1353.5Q1113 1341 1120.5 1324.0Q1128 1307 1128 1288ZM1862 1288Q1862 1269 1854.5 1252.0Q1847 1235 1834.5 1222.0Q1822 1209 1805.0 1201.5Q1788 1194 1769 1194Q1749 1194 1732.0 1201.5Q1715 1209 1702.5 1221.5Q1690 1234 1682.5 1251.0Q1675 1268 1675 1288Q1675 1307 1682.5 1324.0Q1690 1341 1703.0 1353.5Q1716 1366 1733.0 1373.5Q1750 1381 1769 1381Q1788 1381 1805.0 1373.5Q1822 1366 1834.5 1353.5Q1847 1341 1854.5 1324.0Q1862 1307 1862 1288Z" style="fill:#321b41;stroke:none" transform="scale(1,-1) translate(0,-256)" /></svg>