<?xml version="1.0" encoding="utf-8" ?>
<svg baseProfile="full" height="256" version="1.1" width="256" xmlns="http://www.w3.org/2000/svg" xmlns:ev="http://www.w3.org/2001/xml-events" xmlns:xlink="http://www.w3.org/1999/xlink"><defs /><path d="M1272 1297Q1272 1290 1271 1286H1222Q1221 1289 1220.5 1291.5Q1220 1294 1220 1297Q1220 1308 1226.5 1319.0Q1233 1330 1246 1330Q1259 1330 1265.5 1319.0Q1272 1308 1272 1297ZM1532 1297Q1532 1290 1533 1286H1582Q1583 1290 1583 1297Q1583 1308 1576.5 1319.0Q1570 1330 1557 1330Q1544 1330 1538.0 1319.0Q1532 1308 1532 1297Z" style="fill:#7d4533;stroke:none" transform="scale(1,-1) translate(0,-256)" /></svg>