<?xml version="1.0" encoding="utf-8" ?>
<svg baseProfile="full" height="256" version="1.1" width="256" xmlns="http://www.w3.org/2000/svg" xmlns:ev="http://www.w3.org/2001/xml-events" xmlns:xlink="http://www.w3.org/1999/xlink"><defs /><path d="M1626 78Q1603 78 1587.5 94.0Q1572 110 1572 132Q1572 148 1582 163L2259 1113Q2282 1145 2293.5 1182.0Q2305 1219 2305 1257L2304 1527Q2304 1549 2320.0 1565.0Q2336 1581 2358 1581Q2381 1581 2396.5 1565.5Q2412 1550 2412 1527Q2413 1459 2413.5 1392.0Q2414 1325 2414 1257Q2414 1201 2397.0 1148.0Q2380 1095 2348 1050L1670 100Q1654 78 1626 78Z" style="fill:#ca0b4a;stroke:none" transform="scale(1,-1) translate(0,-256)" /></svg>