<?xml version="1.0" encoding="utf-8" ?>
<svg baseProfile="full" height="256" version="1.1" width="256" xmlns="http://www.w3.org/2000/svg" xmlns:ev="http://www.w3.org/2001/xml-events" xmlns:xlink="http://www.w3.org/1999/xlink"><defs /><path d="M2412 1293V790Q2412 614 2358.0 452.0Q2304 290 2205.5 155.0Q2107 20 1969.0 -81.0Q1831 -182 1664 -236Q1601 -256 1529.5 -271.0Q1458 -286 1391 -286Q1368 -286 1351.0 -272.0Q1334 -258 1334 -233Q1333 -78 1331.5 75.0Q1330 228 1330 383Q1330 509 1364.5 625.5Q1399 742 1461.0 843.0Q1523 944 1609.5 1027.0Q1696 1110 1799.5 1169.0Q1903 1228 2020.5 1260.5Q2138 1293 2262 1293Z" style="fill:#f8312f;stroke:none" transform="scale(1,-1) translate(0,-256)" /></svg>