<?xml version="1.0" encoding="utf-8" ?>
<svg baseProfile="full" height="256" version="1.1" width="256" xmlns="http://www.w3.org/2000/svg" xmlns:ev="http://www.w3.org/2001/xml-events" xmlns:xlink="http://www.w3.org/1999/xlink"><defs /><path d="M1501 1527Q1501 1507 1486 1497L858 1050Q828 1028 792.5 1017.0Q757 1006 720 1006H579Q564 1006 553.5 1016.5Q543 1027 543 1042Q543 1061 556.0 1068.5Q569 1076 591.0 1077.5Q613 1079 641.5 1077.0Q670 1075 700.5 1076.0Q731 1077 761.0 1083.5Q791 1090 816 1108L1445 1556Q1455 1563 1465 1563Q1479 1563 1490.0 1552.0Q1501 1541 1501 1527ZM1190 182Q1190 164 1181.5 156.0Q1173 148 1161.0 145.5Q1149 143 1134.5 143.5Q1120 144 1108 144Q1032 144 971 188L665 406Q650 418 650 435Q650 450 661.0 460.5Q672 471 687 471Q698 471 707 465L1013 246Q1056 215 1108 215Q1117 215 1131.0 215.5Q1145 216 1158.0 214.0Q1171 212 1180.5 204.5Q1190 197 1190 182Z" style="fill:#d3883e;stroke:none" transform="scale(1,-1) translate(0,-256)" /></svg>