<?xml version="1.0" encoding="utf-8" ?>
<svg baseProfile="full" height="256" version="1.1" width="256" xmlns="http://www.w3.org/2000/svg" xmlns:ev="http://www.w3.org/2001/xml-events" xmlns:xlink="http://www.w3.org/1999/xlink"><defs /><path d="M697 1106Q697 1188 718.5 1266.0Q740 1344 779.0 1413.0Q818 1482 873.0 1539.0Q928 1596 995.0 1637.0Q1062 1678 1139.0 1701.0Q1216 1724 1300 1724Q1403 1724 1503.5 1724.5Q1604 1725 1707 1725Q1724 1725 1733.0 1714.0Q1742 1703 1742 1687Q1742 1642 1732.5 1595.0Q1723 1548 1709 1506Q1674 1395 1607.0 1303.0Q1540 1211 1450.5 1145.0Q1361 1079 1253.5 1042.5Q1146 1006 1029 1006H697ZM704 646Q790 646 865.5 611.5Q941 577 997.0 518.5Q1053 460 1085.5 383.0Q1118 306 1118 221V143H890Q809 143 735.0 169.5Q661 196 599.5 243.0Q538 290 492.5 354.5Q447 419 423 495Q413 524 406.5 556.5Q400 589 400 620Q400 631 406.5 638.5Q413 646 424 646Z" style="fill:#e19747;stroke:none" transform="scale(1,-1) translate(0,-256)" /></svg>