<?xml version="1.0" encoding="utf-8" ?>
<svg baseProfile="full" height="256" version="1.1" width="256" xmlns="http://www.w3.org/2000/svg" xmlns:ev="http://www.w3.org/2001/xml-events" xmlns:xlink="http://www.w3.org/1999/xlink"><defs /><path d="M1329 1192Q1307 1192 1287.5 1200.5Q1268 1209 1253.0 1223.0Q1238 1237 1229.5 1256.5Q1221 1276 1221 1299Q1221 1321 1229.5 1341.0Q1238 1361 1252.5 1375.5Q1267 1390 1286.5 1398.5Q1306 1407 1329 1407Q1351 1407 1370.5 1398.5Q1390 1390 1405.0 1375.0Q1420 1360 1428.5 1340.5Q1437 1321 1437 1299Q1437 1277 1428.5 1257.5Q1420 1238 1405.0 1223.5Q1390 1209 1370.5 1200.5Q1351 1192 1329 1192ZM1469 1167Q1492 1167 1512 1152L1720 992Q1741 975 1747 950Q1751 931 1757.5 906.0Q1764 881 1770.0 855.0Q1776 829 1780.0 804.5Q1784 780 1784 761Q1784 732 1763.0 710.5Q1742 689 1713 689Q1687 689 1667.5 705.0Q1648 721 1643 746L1612 894L1545 945L1575 728Q1576 723 1576 713V516L1780 235Q1794 216 1794 193Q1794 164 1772.5 142.5Q1751 121 1722 121Q1686 121 1664 151L1446 451Q1437 463 1434.0 482.0Q1431 501 1431.0 521.5Q1431 542 1432.0 562.0Q1433 582 1433 595L1327 467V137Q1327 107 1306.0 86.0Q1285 65 1255 65Q1225 65 1204.0 86.0Q1183 107 1183 137V493Q1183 519 1200 539L1337 705L1320 889L1284 800Q1277 783 1262.0 771.0Q1247 759 1229 756L983 715Q979 714 972 714Q942 714 920.5 735.0Q899 756 899 786Q899 812 916.0 832.0Q933 852 959 857L1166 892L1251 1100Q1259 1117 1273.5 1129.0Q1288 1141 1307 1144Q1346 1151 1387.5 1159.0Q1429 1167 1469 1167ZM1406 -287Q1267 -287 1138.5 -251.0Q1010 -215 898.0 -149.5Q786 -84 694.5 7.5Q603 99 537.5 211.0Q472 323 436.0 451.5Q400 580 400 719Q400 858 436.0 986.5Q472 1115 537.5 1227.0Q603 1339 694.5 1430.5Q786 1522 898.0 1587.5Q1010 1653 1138.5 1689.0Q1267 1725 1406 1725Q1545 1725 1673.5 1689.0Q1802 1653 1914.0 1587.5Q2026 1522 2117.5 1430.5Q2209 1339 2274.5 1227.0Q2340 1115 2376.0 986.5Q2412 858 2412 719Q2412 580 2376.0 451.5Q2340 323 2274.5 211.0Q2209 99 2117.5 7.5Q2026 -84 1914.0 -149.5Q1802 -215 1673.5 -251.0Q1545 -287 1406 -287ZM2197 719Q2197 828 2169.0 929.0Q2141 1030 2089.5 1118.0Q2038 1206 1965.5 1278.5Q1893 1351 1805.0 1402.5Q1717 1454 1616.0 1482.0Q1515 1510 1406 1510Q1297 1510 1196.0 1482.0Q1095 1454 1007.0 1402.5Q919 1351 846.5 1278.5Q774 1206 722.5 1118.0Q671 1030 643.0 929.0Q615 828 615 719Q615 610 643.0 509.0Q671 408 722.5 320.0Q774 232 846.5 159.5Q919 87 1007.0 35.5Q1095 -16 1196.0 -44.0Q1297 -72 1406 -72Q1515 -72 1616.0 -44.0Q1717 -16 1805.0 35.5Q1893 87 1965.5 159.5Q2038 232 2089.5 320.0Q2141 408 2169.0 509.0Q2197 610 2197 719Z" style="fill:#000000;stroke:none" transform="scale(1,-1) translate(0,-256)" /></svg>