<?xml version="1.0" encoding="utf-8" ?>
<svg baseProfile="full" height="256" version="1.1" width="256" xmlns="http://www.w3.org/2000/svg" xmlns:ev="http://www.w3.org/2001/xml-events" xmlns:xlink="http://www.w3.org/1999/xlink"><defs /><path d="M2081 1316 2060 1280 1948 1344 1863 1197 1974 1132 1953 1096 1842 1161 1756 1014 1809 983 1788 948 1736 978 1721 953 1685 974 1700 999 1579 1068 1493 921 1644 834 1623 798 1472 885 1362 693 1326 714 1437 906 1286 993 1306 1029 1457 942 1543 1089 1422 1159 1408 1134 1372 1155 1386 1180 1334 1210 1355 1246 1407 1216 1493 1363 1381 1428 1402 1464 1513 1399 1599 1546 1488 1611 1508 1647 1620 1582 1702 1725 1738 1704 1656 1561 1777 1492 1871 1655 1907 1635 1812 1471 1933 1401 2016 1544 2052 1523 1969 1380ZM1755 1456 1634 1525 1549 1378 1669 1308ZM1529 1341 1443 1194 1564 1124 1649 1272ZM1600 1103 1720 1034 1806 1181 1685 1251ZM1706 1287 1827 1217 1912 1364 1792 1434ZM759 -159Q759 -195 784.5 -221.0Q810 -247 847 -247Q870 -247 891.0 -235.0Q912 -223 923 -203L1404 629L1251 717L770 -115Q759 -135 759 -159Z" style="fill:#bebebe;stroke:none" transform="scale(1,-1) translate(0,-256)" /></svg>