<?xml version="1.0" encoding="utf-8" ?>
<svg baseProfile="full" height="256" version="1.1" width="256" xmlns="http://www.w3.org/2000/svg" xmlns:ev="http://www.w3.org/2001/xml-events" xmlns:xlink="http://www.w3.org/1999/xlink"><defs /><path d="M1514 -36Q1477 -36 1444.0 -22.0Q1411 -8 1386.5 16.5Q1362 41 1348.0 74.0Q1334 107 1334 144Q1334 181 1348.0 214.0Q1362 247 1386.5 271.5Q1411 296 1444.0 310.0Q1477 324 1514 324Q1551 324 1583.5 310.0Q1616 296 1640.5 271.5Q1665 247 1679.0 214.0Q1693 181 1693 144Q1693 107 1679.0 74.0Q1665 41 1640.5 16.5Q1616 -8 1583.5 -22.0Q1551 -36 1514 -36Z" style="fill:#ff6723;stroke:none" transform="scale(1,-1) translate(0,-256)" /></svg>