<?xml version="1.0" encoding="utf-8" ?>
<svg baseProfile="full" height="256" version="1.1" width="256" xmlns="http://www.w3.org/2000/svg" xmlns:ev="http://www.w3.org/2001/xml-events" xmlns:xlink="http://www.w3.org/1999/xlink"><defs /><path d="M1262 1222Q1262 1163 1239.5 1110.5Q1217 1058 1178.0 1019.0Q1139 980 1086.5 957.5Q1034 935 975 935Q915 935 862.5 957.5Q810 980 771.0 1019.0Q732 1058 709.5 1110.0Q687 1162 687 1222Q687 1282 709.5 1334.5Q732 1387 771.0 1426.0Q810 1465 862.5 1487.5Q915 1510 975 1510Q1034 1510 1086.5 1487.0Q1139 1464 1178.0 1425.0Q1217 1386 1239.5 1333.5Q1262 1281 1262 1222ZM2125 1222Q2125 1162 2102.5 1110.0Q2080 1058 2041.0 1019.0Q2002 980 1949.5 957.5Q1897 935 1837 935Q1777 935 1725.0 957.5Q1673 980 1634.0 1019.0Q1595 1058 1572.5 1110.0Q1550 1162 1550 1222Q1550 1282 1572.5 1334.5Q1595 1387 1634.0 1426.0Q1673 1465 1725.0 1487.5Q1777 1510 1837 1510Q1897 1510 1949.5 1487.5Q2002 1465 2041.0 1426.0Q2080 1387 2102.5 1334.5Q2125 1282 2125 1222Z" style="fill:#1c1c1c;stroke:none" transform="scale(1,-1) translate(0,-256)" /></svg>