<?xml version="1.0" encoding="utf-8" ?>
<svg baseProfile="full" height="256" version="1.1" width="256" xmlns="http://www.w3.org/2000/svg" xmlns:ev="http://www.w3.org/2001/xml-events" xmlns:xlink="http://www.w3.org/1999/xlink"><defs /><path d="M1153 1185Q1153 1155 1141.5 1128.5Q1130 1102 1110.0 1082.0Q1090 1062 1063.5 1050.5Q1037 1039 1007 1039Q977 1039 950.0 1050.5Q923 1062 903.0 1081.5Q883 1101 871.5 1128.0Q860 1155 860 1185Q860 1215 871.5 1242.0Q883 1269 903.0 1288.5Q923 1308 950.0 1319.5Q977 1331 1007 1331Q1037 1331 1063.5 1319.5Q1090 1308 1110.0 1288.0Q1130 1268 1141.5 1241.5Q1153 1215 1153 1185ZM1950 1185Q1950 1155 1938.5 1128.0Q1927 1101 1907.5 1081.5Q1888 1062 1861.0 1050.5Q1834 1039 1804 1039Q1774 1039 1747.0 1050.5Q1720 1062 1700.5 1081.5Q1681 1101 1669.5 1128.0Q1658 1155 1658 1185Q1658 1215 1669.5 1242.0Q1681 1269 1700.5 1288.5Q1720 1308 1747.0 1319.5Q1774 1331 1804 1331Q1834 1331 1861.0 1319.5Q1888 1308 1907.5 1288.5Q1927 1269 1938.5 1242.0Q1950 1215 1950 1185Z" style="fill:#533566;stroke:none" transform="scale(1,-1) translate(0,-256)" /></svg>