<?xml version="1.0" encoding="utf-8" ?>
<svg baseProfile="full" height="256" version="1.1" width="256" xmlns="http://www.w3.org/2000/svg" xmlns:ev="http://www.w3.org/2001/xml-events" xmlns:xlink="http://www.w3.org/1999/xlink"><defs /><path d="M819 820Q883 782 960.5 762.0Q1038 742 1119.0 732.0Q1200 722 1281.0 720.5Q1362 719 1435 719Q1501 719 1574.5 722.0Q1648 725 1721.5 735.0Q1795 745 1865.0 764.5Q1935 784 1994 817Q2026 721 2026 620Q2026 540 2004.5 452.5Q1983 365 1944.0 280.0Q1905 195 1849.0 118.0Q1793 41 1724.5 -17.0Q1656 -75 1575.5 -109.5Q1495 -144 1406 -144Q1317 -144 1236.5 -109.5Q1156 -75 1087.5 -17.0Q1019 41 963.0 118.0Q907 195 868.0 280.0Q829 365 807.5 452.5Q786 540 786 620Q786 724 819 820Z" style="fill:#ffdea7;stroke:none" transform="scale(1,-1) translate(0,-256)" /></svg>