<?xml version="1.0" encoding="utf-8" ?>
<svg baseProfile="full" height="256" version="1.1" width="256" xmlns="http://www.w3.org/2000/svg" xmlns:ev="http://www.w3.org/2001/xml-events" xmlns:xlink="http://www.w3.org/1999/xlink"><defs /><path d="M1244 1185Q1244 1136 1225.5 1093.0Q1207 1050 1174.5 1017.5Q1142 985 1099.0 966.5Q1056 948 1007 948Q958 948 914.5 966.5Q871 985 839.0 1017.5Q807 1050 788.0 1093.0Q769 1136 769 1185Q769 1234 788.0 1277.5Q807 1321 839.0 1353.0Q871 1385 914.5 1404.0Q958 1423 1007 1423Q1056 1423 1099.0 1404.0Q1142 1385 1174.5 1353.0Q1207 1321 1225.5 1277.5Q1244 1234 1244 1185ZM2041 1185Q2041 1136 2022.5 1093.0Q2004 1050 1971.5 1017.5Q1939 985 1896.0 966.5Q1853 948 1804 948Q1755 948 1711.5 966.5Q1668 985 1636.0 1017.5Q1604 1050 1585.0 1093.0Q1566 1136 1566 1185Q1566 1234 1585.0 1277.5Q1604 1321 1636.0 1353.0Q1668 1385 1711.5 1404.0Q1755 1423 1804 1423Q1853 1423 1896.0 1404.0Q1939 1385 1971.5 1353.0Q2004 1321 2022.5 1277.5Q2041 1234 2041 1185Z" style="fill:#fcd53f;stroke:none" transform="scale(1,-1) translate(0,-256)" /></svg>