<?xml version="1.0" encoding="utf-8" ?>
<svg baseProfile="full" height="256" version="1.1" width="256" xmlns="http://www.w3.org/2000/svg" xmlns:ev="http://www.w3.org/2001/xml-events" xmlns:xlink="http://www.w3.org/1999/xlink"><defs /><path d="M1301 935Q1301 957 1309.5 976.5Q1318 996 1333.0 1010.5Q1348 1025 1367.5 1033.5Q1387 1042 1409 1042Q1431 1042 1450.5 1033.5Q1470 1025 1484.5 1010.5Q1499 996 1507.5 976.5Q1516 957 1516 935ZM1406 -144Q1502 -144 1594.0 -121.5Q1686 -99 1771 -55Q1782 -73 1793.5 -96.0Q1805 -119 1814.0 -144.5Q1823 -170 1829.0 -194.5Q1835 -219 1835 -240Q1835 -261 1819.5 -274.0Q1804 -287 1784 -287H1028Q1008 -287 992.5 -274.0Q977 -261 977 -240Q977 -219 983.0 -194.5Q989 -170 998.0 -144.5Q1007 -119 1018.5 -96.0Q1030 -73 1041 -55Q1126 -99 1218.0 -121.5Q1310 -144 1406 -144Z" style="fill:#ff822d;stroke:none" transform="scale(1,-1) translate(0,-256)" /></svg>