<?xml version="1.0" encoding="utf-8" ?>
<svg baseProfile="full" height="256" version="1.1" width="256" xmlns="http://www.w3.org/2000/svg" xmlns:ev="http://www.w3.org/2001/xml-events" xmlns:xlink="http://www.w3.org/1999/xlink"><defs /><path d="M2053 791Q2083 791 2104.0 769.0Q2125 747 2125 718Q2125 689 2103.5 667.5Q2082 646 2053 646H1768Q1778 528 1818.5 418.5Q1859 309 1927 212Q1936 199 1951.5 181.0Q1967 163 1982.0 144.0Q1997 125 2007.5 106.0Q2018 87 2018 72Q2018 42 1997.0 21.0Q1976 0 1946 0Q1928 0 1916.5 6.0Q1905 12 1893 24Q1836 79 1789.0 154.0Q1742 229 1707.5 312.0Q1673 395 1651.5 481.5Q1630 568 1624 646H1188Q1183 568 1165.0 492.0Q1147 416 1118 343Q1103 305 1081.5 261.0Q1060 217 1034.0 173.5Q1008 130 979.0 91.0Q950 52 920 24Q907 12 895.0 6.0Q883 0 866 0Q851 0 838.0 6.0Q825 12 815.5 22.0Q806 32 800.0 45.5Q794 59 794 73Q794 88 804.5 107.0Q815 126 830.0 145.0Q845 164 860.5 181.5Q876 199 885 212Q954 308 994.0 419.0Q1034 530 1044 648H759Q730 648 708.5 669.5Q687 691 687 720Q687 749 708.5 770.5Q730 792 759 792H1044Q1037 878 1019.0 946.0Q1001 1014 972.0 1075.0Q943 1136 903.5 1194.0Q864 1252 813 1318Q804 1330 799.0 1340.0Q794 1350 794 1366Q794 1395 815.5 1416.5Q837 1438 866 1438Q883 1438 895.5 1431.5Q908 1425 920 1414Q948 1388 977.5 1348.0Q1007 1308 1033.5 1264.0Q1060 1220 1082.0 1175.0Q1104 1130 1118 1094Q1147 1021 1164.5 945.0Q1182 869 1187 791H1624Q1630 871 1651.0 957.0Q1672 1043 1706.5 1125.5Q1741 1208 1788.0 1282.0Q1835 1356 1893 1413Q1905 1425 1917.0 1431.5Q1929 1438 1946 1438Q1976 1438 1997.0 1416.0Q2018 1394 2018 1365Q2018 1350 2009.0 1333.5Q2000 1317 1987.0 1300.5Q1974 1284 1960.5 1269.0Q1947 1254 1938 1242Q1865 1144 1822.0 1028.0Q1779 912 1768 791Z" style="fill:#ffffff;stroke:none" transform="scale(1,-1) translate(0,-256)" /></svg>