<?xml version="1.0" encoding="utf-8" ?>
<svg baseProfile="full" height="256" version="1.1" width="256" xmlns="http://www.w3.org/2000/svg" xmlns:ev="http://www.w3.org/2001/xml-events" xmlns:xlink="http://www.w3.org/1999/xlink"><defs /><path d="M2309 719Q2309 594 2277.0 478.5Q2245 363 2186.0 263.0Q2127 163 2044.5 80.5Q1962 -2 1862.0 -61.0Q1762 -120 1646.5 -152.0Q1531 -184 1406 -184Q1281 -184 1165.5 -152.0Q1050 -120 950.0 -61.0Q850 -2 767.5 80.5Q685 163 626.0 263.0Q567 363 535.0 478.5Q503 594 503 719Q503 844 535.0 959.5Q567 1075 626.0 1175.0Q685 1275 767.5 1357.5Q850 1440 950.0 1499.0Q1050 1558 1165.5 1590.0Q1281 1622 1406 1622Q1531 1622 1646.5 1590.0Q1762 1558 1862.0 1499.0Q1962 1440 2044.5 1357.5Q2127 1275 2186.0 1175.0Q2245 1075 2277.0 959.5Q2309 844 2309 719Z" style="fill:#e6e6e6;stroke:none" transform="scale(1,-1) translate(0,-256)" /></svg>