<?xml version="1.0" encoding="utf-8" ?>
<svg baseProfile="full" height="256" version="1.1" width="256" xmlns="http://www.w3.org/2000/svg" xmlns:ev="http://www.w3.org/2001/xml-events" xmlns:xlink="http://www.w3.org/1999/xlink"><defs /><path d="M723 1150Q708 1150 697.5 1161.0Q687 1172 687 1187Q687 1190 687.5 1192.5Q688 1195 689 1198Q705 1249 737.5 1293.0Q770 1337 812.5 1369.5Q855 1402 906.0 1420.0Q957 1438 1011 1438Q1025 1438 1036.0 1427.0Q1047 1416 1047 1402Q1047 1388 1036.0 1377.0Q1025 1366 1011 1366Q910 1366 836 1295Q809 1269 790.0 1239.5Q771 1210 757 1175Q747 1150 723 1150ZM1118 647Q1148 647 1174.0 658.0Q1200 669 1219.5 688.5Q1239 708 1250.5 734.5Q1262 761 1262 791Q1262 821 1250.5 847.0Q1239 873 1219.5 892.5Q1200 912 1174.0 923.5Q1148 935 1118 935Q1088 935 1062.0 923.5Q1036 912 1016.5 892.5Q997 873 986.0 847.0Q975 821 975 791Q975 761 986.0 735.0Q997 709 1016.5 689.5Q1036 670 1062.0 658.5Q1088 647 1118 647ZM1693 647Q1723 647 1749.0 658.0Q1775 669 1794.5 688.5Q1814 708 1825.5 734.5Q1837 761 1837 791Q1837 821 1825.5 847.0Q1814 873 1794.5 892.5Q1775 912 1749.0 923.5Q1723 935 1693 935Q1663 935 1637.0 923.5Q1611 912 1591.5 892.5Q1572 873 1561.0 847.0Q1550 821 1550 791Q1550 761 1561.0 735.0Q1572 709 1591.5 689.5Q1611 670 1637.0 658.5Q1663 647 1693 647ZM1765 1402Q1765 1417 1775.5 1427.5Q1786 1438 1801 1438Q1854 1438 1905.0 1419.5Q1956 1401 1999.5 1369.0Q2043 1337 2075.0 1293.0Q2107 1249 2123 1198Q2124 1195 2124.5 1192.5Q2125 1190 2125 1187Q2125 1172 2114.5 1161.0Q2104 1150 2089 1150Q2065 1150 2055 1175Q2041 1210 2022.0 1239.5Q2003 1269 1976 1295Q1940 1330 1896.0 1348.0Q1852 1366 1801 1366Q1786 1366 1775.5 1376.5Q1765 1387 1765 1402Z" style="fill:#402a32;stroke:none" transform="scale(1,-1) translate(0,-256)" /></svg>