<?xml version="1.0" encoding="utf-8" ?>
<svg baseProfile="full" height="256" version="1.1" width="256" xmlns="http://www.w3.org/2000/svg" xmlns:ev="http://www.w3.org/2001/xml-events" xmlns:xlink="http://www.w3.org/1999/xlink"><defs /><path d="M1937 1461Q1991 1407 2043.5 1355.0Q2096 1303 2149 1249Q2277 1120 2344.5 957.0Q2412 794 2412 613Q2412 489 2380.0 373.5Q2348 258 2289.5 158.0Q2231 58 2149.0 -24.0Q2067 -106 1967.0 -164.5Q1867 -223 1751.5 -255.0Q1636 -287 1512 -287Q1331 -287 1167.5 -219.5Q1004 -152 876 -24Q822 30 770.0 82.5Q718 135 664 189L1937 1461Z" style="fill:#6d4534;stroke:none" transform="scale(1,-1) translate(0,-256)" /></svg>