<?xml version="1.0" encoding="utf-8" ?>
<svg baseProfile="full" height="256" version="1.1" width="256" xmlns="http://www.w3.org/2000/svg" xmlns:ev="http://www.w3.org/2001/xml-events" xmlns:xlink="http://www.w3.org/1999/xlink"><defs /><path d="M1300 421Q1216 421 1143.0 453.0Q1070 485 1015.0 539.5Q960 594 928.5 667.5Q897 741 897 825Q897 909 928.5 982.5Q960 1056 1015.0 1110.5Q1070 1165 1143.0 1197.0Q1216 1229 1300 1229Q1384 1229 1457.5 1197.0Q1531 1165 1585.5 1110.5Q1640 1056 1672.0 982.5Q1704 909 1704 825Q1704 741 1672.0 667.5Q1640 594 1585.5 539.5Q1531 485 1457.5 453.0Q1384 421 1300 421Z" style="fill:#e2ff92;stroke:none" transform="scale(1,-1) translate(0,-256)" /></svg>