<?xml version="1.0" encoding="utf-8" ?>
<svg baseProfile="full" height="256" version="1.1" width="256" xmlns="http://www.w3.org/2000/svg" xmlns:ev="http://www.w3.org/2001/xml-events" xmlns:xlink="http://www.w3.org/1999/xlink"><defs /><path d="M1783 1245 1772 1054Q1748 1054 1733.0 1054.0Q1718 1054 1697 1045Q1673 1034 1649.0 1025.5Q1625 1017 1598 1017Q1576 1017 1556.5 1023.0Q1537 1029 1520.0 1036.0Q1503 1043 1487.0 1049.0Q1471 1055 1456 1055H1353Q1338 1055 1322.5 1049.0Q1307 1043 1290.0 1036.5Q1273 1030 1254.0 1024.0Q1235 1018 1213 1018Q1185 1018 1160.5 1026.0Q1136 1034 1112 1047Q1096 1055 1076.5 1055.0Q1057 1055 1040 1055L1029 1247Q1053 1247 1074.5 1247.5Q1096 1248 1117 1262L1119 1265Q1142 1278 1164.5 1286.0Q1187 1294 1213 1294Q1239 1294 1258.0 1286.5Q1277 1279 1293.5 1270.5Q1310 1262 1325.5 1254.5Q1341 1247 1361 1247H1448Q1466 1247 1482.0 1254.5Q1498 1262 1514.5 1270.5Q1531 1279 1551.0 1286.5Q1571 1294 1598 1294Q1624 1294 1643.5 1286.5Q1663 1279 1679.0 1269.5Q1695 1260 1710.0 1252.5Q1725 1245 1742 1245Z" style="fill:#f8312f;stroke:none" transform="scale(1,-1) translate(0,-256)" /></svg>