<?xml version="1.0" encoding="utf-8" ?>
<svg baseProfile="full" height="256" version="1.1" width="256" xmlns="http://www.w3.org/2000/svg" xmlns:ev="http://www.w3.org/2001/xml-events" xmlns:xlink="http://www.w3.org/1999/xlink"><defs /><path d="M1029 1280Q1029 1329 1050.0 1371.0Q1071 1413 1105.5 1444.0Q1140 1475 1184.0 1492.5Q1228 1510 1275 1510H1369Q1387 1510 1396.5 1502.0Q1406 1494 1414 1480Q1440 1436 1468.0 1414.5Q1496 1393 1528.0 1385.5Q1560 1378 1597.5 1378.5Q1635 1379 1681 1378Q1726 1377 1754.0 1346.5Q1782 1316 1783 1272V1244L1729 1150L1771 1054Q1768 1012 1765.5 971.0Q1763 930 1760 888Q1758 871 1753.5 854.0Q1749 837 1742 822Q1725 782 1698.0 749.5Q1671 717 1636.0 694.5Q1601 672 1560.0 659.5Q1519 647 1476 647H1339Q1296 647 1255.0 659.5Q1214 672 1179.0 694.5Q1144 717 1116.5 749.5Q1089 782 1073 822Q1067 837 1062.0 854.0Q1057 871 1055 888Q1052 930 1049.5 972.0Q1047 1014 1044 1056L1083 1150L1031 1245Q1030 1254 1029.5 1263.0Q1029 1272 1029 1280Z" style="fill:#ffc83d;stroke:none" transform="scale(1,-1) translate(0,-256)" /></svg>