<?xml version="1.0" encoding="utf-8" ?>
<svg baseProfile="full" height="256" version="1.1" width="256" xmlns="http://www.w3.org/2000/svg" xmlns:ev="http://www.w3.org/2001/xml-events" xmlns:xlink="http://www.w3.org/1999/xlink"><defs /><path d="M543 -287V-215Q543 -116 561.5 -16.0Q580 84 616.5 178.0Q653 272 707.0 357.5Q761 443 831 514V-287ZM1981 514Q2051 443 2104.5 357.5Q2158 272 2194.5 178.0Q2231 84 2249.5 -16.0Q2268 -116 2268 -215V-287H1981ZM1214 216H1598Q1628 216 1649.0 195.0Q1670 174 1670 144Q1670 123 1658 105L1466 -193Q1456 -208 1440.0 -217.0Q1424 -226 1406 -226Q1388 -226 1371.5 -217.0Q1355 -208 1345 -193L1154 105Q1149 114 1145.5 123.5Q1142 133 1142 144Q1142 174 1163.0 195.0Q1184 216 1214 216Z" style="fill:#0092e7;stroke:none" transform="scale(1,-1) translate(0,-256)" /></svg>