<?xml version="1.0" encoding="utf-8" ?>
<svg baseProfile="full" height="256" version="1.1" width="256" xmlns="http://www.w3.org/2000/svg" xmlns:ev="http://www.w3.org/2001/xml-events" xmlns:xlink="http://www.w3.org/1999/xlink"><defs /><path d="M831 -287 723 108 831 514Q915 598 1016 656Q1018 651 1045.0 631.5Q1072 612 1112.0 585.5Q1152 559 1199.0 529.0Q1246 499 1288.5 471.5Q1331 444 1363.0 423.5Q1395 403 1406 396Q1413 400 1446.5 420.0Q1480 440 1525.5 467.0Q1571 494 1622.5 525.0Q1674 556 1717.5 581.5Q1761 607 1789.5 624.5Q1818 642 1818 642Q1908 587 1981 514L2089 108L1981 -287Z" style="fill:#007acf;stroke:none" transform="scale(1,-1) translate(0,-256)" /></svg>