<?xml version="1.0" encoding="utf-8" ?>
<svg baseProfile="full" height="256" version="1.1" width="256" xmlns="http://www.w3.org/2000/svg" xmlns:ev="http://www.w3.org/2001/xml-events" xmlns:xlink="http://www.w3.org/1999/xlink"><defs /><path d="M1837 673Q1893 655 1945.0 626.5Q1997 598 2044 563Q2142 488 2210.0 390.0Q2278 292 2321.5 181.5Q2365 71 2386.0 -48.5Q2407 -168 2412 -287H2268L1406 -72L543 -287H400Q406 -160 431.0 -35.5Q456 89 505.5 202.5Q555 316 632.0 414.5Q709 513 817 588Q837 601 861.0 615.5Q885 630 910.5 643.0Q936 656 961.5 666.5Q987 677 1011 683Q1013 699 1025.5 709.0Q1038 719 1054 719H1793Q1812 719 1825.5 706.0Q1839 693 1837 673Z" style="fill:#f8312f;stroke:none" transform="scale(1,-1) translate(0,-256)" /></svg>