<?xml version="1.0" encoding="utf-8" ?>
<svg baseProfile="full" height="256" version="1.1" width="256" xmlns="http://www.w3.org/2000/svg" xmlns:ev="http://www.w3.org/2001/xml-events" xmlns:xlink="http://www.w3.org/1999/xlink"><defs /><path d="M1406 539Q1374 539 1348.0 552.0Q1322 565 1302.5 586.5Q1283 608 1272.5 636.0Q1262 664 1262 694V887Q1262 917 1272.5 945.0Q1283 973 1302.5 994.5Q1322 1016 1348.0 1029.0Q1374 1042 1406 1042Q1437 1042 1463.5 1029.0Q1490 1016 1509.5 994.5Q1529 973 1539.5 945.0Q1550 917 1550 887V694Q1550 664 1539.0 636.0Q1528 608 1509.0 586.5Q1490 565 1463.5 552.0Q1437 539 1406 539Z" style="fill:#fcb100;stroke:none" transform="scale(1,-1) translate(0,-256)" /></svg>