<?xml version="1.0" encoding="utf-8" ?>
<svg baseProfile="full" height="256" version="1.1" width="256" xmlns="http://www.w3.org/2000/svg" xmlns:ev="http://www.w3.org/2001/xml-events" xmlns:xlink="http://www.w3.org/1999/xlink"><defs /><path d="M1759 1357Q1759 1333 1748.5 1322.5Q1738 1312 1722.0 1308.0Q1706 1304 1688.0 1305.0Q1670 1306 1654.0 1305.5Q1638 1305 1627.5 1301.5Q1617 1298 1617 1285V775Q1617 761 1607.5 751.0Q1598 741 1584 741H1255Q1241 741 1231.0 751.0Q1221 761 1221 775V1285Q1221 1298 1210.5 1301.5Q1200 1305 1184.0 1305.5Q1168 1306 1150.0 1305.5Q1132 1305 1116.0 1308.5Q1100 1312 1089.5 1323.0Q1079 1334 1079 1357Q1079 1376 1093 1392L1382 1708Q1397 1725 1420 1725Q1443 1725 1458 1708L1746 1392Q1759 1379 1759 1357Z" style="fill:#f92f60;stroke:none" transform="scale(1,-1) translate(0,-256)" /></svg>