<?xml version="1.0" encoding="utf-8" ?>
<svg baseProfile="full" height="256" version="1.1" width="256" xmlns="http://www.w3.org/2000/svg" xmlns:ev="http://www.w3.org/2001/xml-events" xmlns:xlink="http://www.w3.org/1999/xlink"><defs /><path d="M867 1402Q844 1402 828.5 1417.5Q813 1433 813 1456Q813 1478 829.0 1494.0Q845 1510 867 1510Q889 1510 905.0 1494.0Q921 1478 921 1456Q921 1433 905.5 1417.5Q890 1402 867 1402ZM1154 1402Q1132 1402 1116.0 1418.0Q1100 1434 1100 1456Q1100 1478 1116.0 1494.0Q1132 1510 1154 1510Q1176 1510 1192.0 1494.0Q1208 1478 1208 1456Q1208 1433 1192.5 1417.5Q1177 1402 1154 1402ZM1658 1402Q1635 1402 1619.5 1417.5Q1604 1433 1604 1456Q1604 1478 1620.0 1494.0Q1636 1510 1658 1510Q1680 1510 1696.0 1494.0Q1712 1478 1712 1456Q1712 1433 1696.5 1417.5Q1681 1402 1658 1402ZM1945 1402Q1922 1402 1906.5 1417.5Q1891 1433 1891 1456Q1891 1478 1907.0 1494.0Q1923 1510 1945 1510Q1967 1510 1983.0 1494.0Q1999 1478 1999 1456Q1999 1433 1983.5 1417.5Q1968 1402 1945 1402Z" style="fill:#fdbb11;stroke:none" transform="scale(1,-1) translate(0,-256)" /></svg>