<?xml version="1.0" encoding="utf-8" ?>
<svg baseProfile="full" height="256" version="1.1" width="256" xmlns="http://www.w3.org/2000/svg" xmlns:ev="http://www.w3.org/2001/xml-events" xmlns:xlink="http://www.w3.org/1999/xlink"><defs /><path d="M1706 1457Q1704 1463 1704 1465Q1704 1476 1712.0 1484.0Q1720 1492 1731 1492Q1742 1492 1750.0 1484.0Q1758 1476 1758 1465Q1758 1463 1757.5 1461.0Q1757 1459 1757 1457ZM1847 1457Q1846 1460 1846 1465Q1846 1476 1854.0 1484.0Q1862 1492 1873 1492Q1884 1492 1891.5 1484.0Q1899 1476 1899 1465Q1899 1460 1898 1457ZM914 1450Q913 1453 913 1458Q913 1469 920.5 1476.5Q928 1484 939 1484Q950 1484 958.0 1476.5Q966 1469 966 1458Q966 1453 965 1450ZM1056 1450Q1055 1453 1055 1458Q1055 1469 1062.5 1476.5Q1070 1484 1081 1484Q1092 1484 1100.0 1476.5Q1108 1469 1108 1458Q1108 1456 1107.5 1454.0Q1107 1452 1107 1450Z" style="fill:#7d4533;stroke:none" transform="scale(1,-1) translate(0,-256)" /></svg>