<?xml version="1.0" encoding="utf-8" ?>
<svg baseProfile="full" height="256" version="1.1" width="256" xmlns="http://www.w3.org/2000/svg" xmlns:ev="http://www.w3.org/2001/xml-events" xmlns:xlink="http://www.w3.org/1999/xlink"><defs /><path d="M924 1498Q937 1498 947.0 1491.0Q957 1484 963 1473Q948 1469 933.0 1465.0Q918 1461 904 1456Q899 1460 892.5 1465.0Q886 1470 886 1477Q886 1482 890.5 1486.0Q895 1490 901.0 1492.5Q907 1495 913.5 1496.5Q920 1498 924 1498ZM1098 1498Q1086 1498 1076.0 1490.5Q1066 1483 1060 1473Q1074 1468 1089.0 1464.5Q1104 1461 1118 1456Q1123 1461 1130.0 1465.0Q1137 1469 1137 1477Q1137 1483 1132.5 1487.0Q1128 1491 1121.5 1493.5Q1115 1496 1108.5 1497.0Q1102 1498 1098 1498Z" style="fill:#000000;stroke:none" transform="scale(1,-1) translate(0,-256)" /></svg>