<?xml version="1.0" encoding="utf-8" ?>
<svg baseProfile="full" height="256" version="1.1" width="256" xmlns="http://www.w3.org/2000/svg" xmlns:ev="http://www.w3.org/2001/xml-events" xmlns:xlink="http://www.w3.org/1999/xlink"><defs /><path d="M1738 1471Q1732 1471 1732 1476Q1732 1481 1738 1481Q1743 1478 1743 1476Q1743 1473 1738 1471ZM1884 1471Q1879 1471 1879 1476Q1879 1481 1884 1481Q1889 1481 1889 1476Q1889 1471 1884 1471ZM928 1464Q933 1464 933 1469Q930 1474 928 1474Q925 1474 923 1469Q923 1464 928 1464ZM1075 1464Q1080 1466 1080 1469L1075 1474Q1072 1474 1070 1469Q1070 1464 1075 1464Z" style="fill:#ffffff;stroke:none" transform="scale(1,-1) translate(0,-256)" /></svg>