<?xml version="1.0" encoding="utf-8" ?>
<svg baseProfile="full" height="256" version="1.1" width="256" xmlns="http://www.w3.org/2000/svg" xmlns:ev="http://www.w3.org/2001/xml-events" xmlns:xlink="http://www.w3.org/1999/xlink"><defs /><path d="M1684 1463Q1684 1480 1698.5 1491.0Q1713 1502 1728 1502Q1742 1502 1757.5 1491.5Q1773 1481 1773 1466Q1773 1457 1765 1457H1692Q1690 1457 1687.0 1458.5Q1684 1460 1684 1463ZM1919 1463Q1919 1460 1916.0 1458.5Q1913 1457 1911 1457H1839Q1837 1457 1834.0 1458.5Q1831 1460 1831 1463Q1831 1480 1845.0 1491.0Q1859 1502 1875 1502Q1891 1502 1905.0 1491.0Q1919 1480 1919 1463ZM893 1456Q893 1473 907.0 1484.0Q921 1495 937 1495Q953 1495 967.0 1484.0Q981 1473 981 1456Q981 1453 978.0 1451.5Q975 1450 973 1450H901Q899 1450 896.0 1451.5Q893 1453 893 1456ZM1128 1456Q1128 1453 1125.0 1451.5Q1122 1450 1120 1450H1047Q1040 1450 1040 1456Q1040 1473 1054.0 1484.0Q1068 1495 1084 1495Q1100 1495 1114.0 1484.0Q1128 1473 1128 1456Z" style="fill:#ffffff;stroke:none" transform="scale(1,-1) translate(0,-256)" /></svg>