<?xml version="1.0" encoding="utf-8" ?>
<svg baseProfile="full" height="256" version="1.1" width="256" xmlns="http://www.w3.org/2000/svg" xmlns:ev="http://www.w3.org/2001/xml-events" xmlns:xlink="http://www.w3.org/1999/xlink"><defs /><path d="M1445 556Q1455 556 1462.0 549.0Q1469 542 1469 532Q1469 527 1465.0 517.5Q1461 508 1454.5 498.0Q1448 488 1440.0 481.0Q1432 474 1424 474Q1414 474 1407.0 480.5Q1400 487 1400 497Q1400 502 1404.0 512.0Q1408 522 1414.5 531.5Q1421 541 1429.0 548.5Q1437 556 1445 556ZM2065 522Q2075 522 2081.5 514.5Q2088 507 2088 497Q2088 491 2083.0 482.0Q2078 473 2070.5 464.0Q2063 455 2054.0 449.0Q2045 443 2038 443Q2029 443 2022.0 450.0Q2015 457 2015 466Q2015 472 2020.0 481.5Q2025 491 2032.5 500.0Q2040 509 2049.0 515.5Q2058 522 2065 522ZM747 522Q737 522 730.5 514.5Q724 507 724 497Q724 491 729.0 482.0Q734 473 741.5 464.5Q749 456 758.0 449.5Q767 443 774 443Q783 443 790.0 450.0Q797 457 797 466Q797 472 792.0 481.5Q787 491 779.5 500.0Q772 509 763.0 515.5Q754 522 747 522Z" style="fill:#fdbb11;stroke:none" transform="scale(1,-1) translate(0,-256)" /></svg>