<?xml version="1.0" encoding="utf-8" ?>
<svg baseProfile="full" height="256" version="1.1" width="256" xmlns="http://www.w3.org/2000/svg" xmlns:ev="http://www.w3.org/2001/xml-events" xmlns:xlink="http://www.w3.org/1999/xlink"><defs /><path d="M1488 963Q1479 963 1479 973Q1479 1000 1488.5 1028.5Q1498 1057 1513.5 1084.0Q1529 1111 1548.0 1135.0Q1567 1159 1586 1177Q1632 1221 1684.5 1244.0Q1737 1267 1801 1267Q1865 1267 1918.0 1244.0Q1971 1221 2017 1177Q2036 1159 2055.0 1135.0Q2074 1111 2089.5 1084.0Q2105 1057 2114.5 1028.5Q2124 1000 2124 973Q2124 963 2115 963H2017V719H1586V963Z" style="fill:#00a6ed;stroke:none" transform="scale(1,-1) translate(0,-256)" /></svg>