<?xml version="1.0" encoding="utf-8" ?>
<svg baseProfile="full" height="256" version="1.1" width="256" xmlns="http://www.w3.org/2000/svg" xmlns:ev="http://www.w3.org/2001/xml-events" xmlns:xlink="http://www.w3.org/1999/xlink"><defs /><path d="M1715 1457Q1713 1463 1713 1465Q1713 1473 1718.0 1478.0Q1723 1483 1731 1483Q1739 1483 1744.0 1478.0Q1749 1473 1749 1465Q1749 1463 1747 1457ZM1856 1457Q1855 1460 1855 1465Q1855 1473 1860.0 1478.0Q1865 1483 1873 1483Q1881 1483 1886.0 1478.0Q1891 1473 1891 1465Q1891 1463 1889 1457ZM923 1450Q921 1456 921 1458Q921 1465 926.0 1470.5Q931 1476 939 1476Q947 1476 952.0 1471.0Q957 1466 957 1458Q957 1453 956 1450ZM1065 1450Q1063 1456 1063 1458Q1063 1466 1068.0 1471.0Q1073 1476 1081 1476Q1089 1476 1094.0 1471.0Q1099 1466 1099 1458Q1099 1456 1097 1450Z" style="fill:#000000;stroke:none" transform="scale(1,-1) translate(0,-256)" /></svg>