<?xml version="1.0" encoding="utf-8" ?>
<svg baseProfile="full" height="256" version="1.1" width="256" xmlns="http://www.w3.org/2000/svg" xmlns:ev="http://www.w3.org/2001/xml-events" xmlns:xlink="http://www.w3.org/1999/xlink"><defs /><path d="M1681 1524Q1681 1527 1684.0 1533.5Q1687 1540 1690 1538Q1712 1553 1740 1553Q1748 1553 1757.0 1550.5Q1766 1548 1766 1537Q1766 1530 1762.0 1525.0Q1758 1520 1750 1520Q1741 1520 1734.5 1519.5Q1728 1519 1719 1516Q1716 1515 1713.5 1512.0Q1711 1509 1708 1511Q1703 1508 1698 1508Q1691 1508 1686.0 1512.5Q1681 1517 1681 1524ZM1927 1524Q1927 1508 1911 1508Q1903 1508 1892.5 1514.0Q1882 1520 1867 1520Q1858 1520 1850.0 1522.0Q1842 1524 1842 1536Q1842 1547 1851.5 1550.0Q1861 1553 1869 1553Q1875 1553 1884.5 1551.5Q1894 1550 1903.5 1546.0Q1913 1542 1920.0 1536.5Q1927 1531 1927 1524ZM910 1511 905 1513Q903 1515 903 1518Q903 1524 910.0 1528.5Q917 1533 926.0 1535.5Q935 1538 944.0 1539.5Q953 1541 958 1541Q966 1541 966 1534Q966 1526 958 1526Q942 1526 927.0 1518.5Q912 1511 910 1511ZM1131 1511Q1128 1511 1121.5 1515.0Q1115 1519 1110 1521Q1107 1522 1101.0 1523.0Q1095 1524 1089.5 1525.0Q1084 1526 1080.0 1528.0Q1076 1530 1076 1534Q1076 1541 1084 1541Q1088 1541 1097.5 1539.5Q1107 1538 1116.0 1535.5Q1125 1533 1132.0 1528.5Q1139 1524 1139 1518Q1139 1515 1137 1513Z" style="fill:#d37034;stroke:none" transform="scale(1,-1) translate(0,-256)" /></svg>