<?xml version="1.0" encoding="utf-8" ?>
<svg baseProfile="full" height="256" version="1.1" width="256" xmlns="http://www.w3.org/2000/svg" xmlns:ev="http://www.w3.org/2001/xml-events" xmlns:xlink="http://www.w3.org/1999/xlink"><defs /><path d="M1226 963V719H795V963H697Q688 963 688 973Q688 1000 697.5 1028.5Q707 1057 722.5 1084.0Q738 1111 757.0 1135.0Q776 1159 795 1177Q841 1221 894.0 1244.0Q947 1267 1011 1267Q1076 1267 1127.5 1244.0Q1179 1221 1226 1177Q1245 1159 1264.0 1135.0Q1283 1111 1298.5 1084.0Q1314 1057 1323.5 1028.5Q1333 1000 1333 973Q1333 963 1325 963Z" style="fill:#8b62bf;stroke:none" transform="scale(1,-1) translate(0,-256)" /></svg>