<?xml version="1.0" encoding="utf-8" ?>
<svg baseProfile="full" height="256" version="1.1" width="256" xmlns="http://www.w3.org/2000/svg" xmlns:ev="http://www.w3.org/2001/xml-events" xmlns:xlink="http://www.w3.org/1999/xlink"><defs /><path d="M1244 1460Q1244 1445 1238.0 1432.0Q1232 1419 1232 1409Q1232 1398 1238.0 1385.0Q1244 1372 1244 1358Q1244 1316 1215.0 1287.0Q1186 1258 1144 1258H877Q835 1258 806.0 1287.0Q777 1316 777 1358Q777 1372 782.5 1385.0Q788 1398 788 1409Q788 1420 782.5 1433.0Q777 1446 777 1460Q777 1491 794 1517Q810 1542 810 1573Q810 1615 839.0 1644.0Q868 1673 910 1675Q921 1675 927 1682Q945 1702 963.5 1713.5Q982 1725 1011 1725Q1040 1725 1058.0 1713.5Q1076 1702 1094 1682Q1101 1675 1108 1675Q1129 1675 1147.5 1667.0Q1166 1659 1180.5 1645.0Q1195 1631 1203.0 1612.5Q1211 1594 1211 1573Q1211 1559 1215.0 1544.0Q1219 1529 1227 1517Q1244 1493 1244 1460ZM1604 1601Q1604 1619 1611.5 1629.5Q1619 1640 1629.5 1647.5Q1640 1655 1652.5 1661.5Q1665 1668 1676 1678Q1694 1695 1710.0 1709.0Q1726 1723 1753 1723Q1766 1723 1777.0 1719.0Q1788 1715 1801 1715Q1815 1715 1827.5 1720.0Q1840 1725 1854 1725Q1879 1725 1894.5 1709.5Q1910 1694 1927 1678Q1937 1668 1950.0 1661.5Q1963 1655 1973.5 1648.0Q1984 1641 1991.5 1630.5Q1999 1620 1999 1601Q1999 1576 1992.5 1548.5Q1986 1521 1981 1496Q1978 1479 1961 1479Q1962 1490 1963.0 1502.0Q1964 1514 1964 1525Q1964 1534 1959.5 1540.0Q1955 1546 1950.0 1551.0Q1945 1556 1940.5 1562.0Q1936 1568 1936 1579Q1936 1590 1936.5 1603.5Q1937 1617 1923 1620Q1865 1633 1801 1633Q1794 1633 1772.5 1632.5Q1751 1632 1727.5 1629.0Q1704 1626 1685.5 1620.5Q1667 1615 1667 1605V1579Q1667 1568 1662.5 1562.0Q1658 1556 1652.5 1550.5Q1647 1545 1642.5 1539.0Q1638 1533 1638 1523Q1638 1512 1639.0 1501.0Q1640 1490 1641 1479Q1625 1481 1622 1496Q1617 1521 1610.5 1548.0Q1604 1575 1604 1601Z" style="fill:#f1a11e;stroke:none" transform="scale(1,-1) translate(0,-256)" /></svg>