<?xml version="1.0" encoding="utf-8" ?>
<svg baseProfile="full" height="256" version="1.1" width="256" xmlns="http://www.w3.org/2000/svg" xmlns:ev="http://www.w3.org/2001/xml-events" xmlns:xlink="http://www.w3.org/1999/xlink"><defs /><path d="M1005 703Q942 703 887.0 726.5Q832 750 791.0 791.0Q750 832 726.5 887.0Q703 942 703 1005Q703 1068 726.5 1123.0Q750 1178 791.0 1219.0Q832 1260 887.0 1283.5Q942 1307 1005 1307Q1068 1307 1123.0 1283.5Q1178 1260 1219.0 1219.0Q1260 1178 1283.5 1123.0Q1307 1068 1307 1005Q1307 942 1283.5 887.0Q1260 832 1219.0 791.0Q1178 750 1123.0 726.5Q1068 703 1005 703ZM1806 697Q1743 697 1687.5 721.0Q1632 745 1590.5 786.5Q1549 828 1525.0 883.5Q1501 939 1501 1002Q1501 1065 1525.0 1120.5Q1549 1176 1590.5 1217.5Q1632 1259 1687.5 1283.0Q1743 1307 1806 1307Q1869 1307 1925.0 1283.0Q1981 1259 2022.0 1218.0Q2063 1177 2087.0 1121.0Q2111 1065 2111 1002Q2111 939 2087.0 883.5Q2063 828 2021.5 786.5Q1980 745 1924.5 721.0Q1869 697 1806 697Z" style="fill:#ffffff;stroke:none" transform="scale(1,-1) translate(0,-256)" /></svg>