<?xml version="1.0" encoding="utf-8" ?>
<svg baseProfile="full" height="256" version="1.1" width="256" xmlns="http://www.w3.org/2000/svg" xmlns:ev="http://www.w3.org/2001/xml-events" xmlns:xlink="http://www.w3.org/1999/xlink"><defs /><path d="M831 605 405 841Q413 918 429 993L897 733Q918 744 957.0 755.5Q996 767 1044.0 777.5Q1092 788 1145.5 797.0Q1199 806 1248.5 812.5Q1298 819 1339.5 823.0Q1381 827 1406 827Q1431 827 1472.5 823.0Q1514 819 1563.5 812.5Q1613 806 1666.5 797.0Q1720 788 1768.0 777.5Q1816 767 1855.0 755.5Q1894 744 1915 733L2383 992Q2391 954 2397.0 916.5Q2403 879 2406 841L1981 605L1941 555L1981 505V288H2334Q2319 250 2301.5 214.5Q2284 179 2263 144H1979Q1974 106 1951.5 78.5Q1929 51 1894 37Q1843 16 1781.0 -3.5Q1719 -23 1654.0 -38.5Q1589 -54 1525.0 -63.0Q1461 -72 1406 -72Q1351 -72 1287.0 -63.0Q1223 -54 1158.0 -38.5Q1093 -23 1031.0 -3.5Q969 16 918 37Q883 51 860.5 78.5Q838 106 833 144H549Q507 213 477 288H831V507L869 556Z" style="fill:#f4f4f4;stroke:none" transform="scale(1,-1) translate(0,-256)" /></svg>