<?xml version="1.0" encoding="utf-8" ?>
<svg baseProfile="full" height="256" version="1.1" width="256" xmlns="http://www.w3.org/2000/svg" xmlns:ev="http://www.w3.org/2001/xml-events" xmlns:xlink="http://www.w3.org/1999/xlink"><defs /><path d="M1406 -287Q1275 -287 1151.0 -262.5Q1027 -238 916.5 -186.0Q806 -134 712.0 -52.0Q618 30 548 145L569 222Q547 239 524.5 255.5Q502 272 478 286Q437 389 418.5 498.5Q400 608 400 719Q400 751 401.5 781.5Q403 812 405 844Q429 875 447 910Q443 930 438.5 950.0Q434 970 428 990Q468 1173 557.5 1311.0Q647 1449 774.5 1541.0Q902 1633 1062.5 1679.0Q1223 1725 1406 1725Q1589 1725 1749.0 1679.0Q1909 1633 2036.5 1540.5Q2164 1448 2253.0 1310.5Q2342 1173 2383 990L2346 898L2406 843Q2412 781 2412 719Q2412 608 2393.5 498.5Q2375 389 2334 286Q2311 271 2287.5 255.5Q2264 240 2241 224Q2246 204 2251.5 184.5Q2257 165 2264 145Q2194 30 2100.0 -52.0Q2006 -134 1895.5 -186.0Q1785 -238 1661.0 -262.5Q1537 -287 1406 -287Z" style="fill:#ffb02e;stroke:none" transform="scale(1,-1) translate(0,-256)" /></svg>