<?xml version="1.0" encoding="utf-8" ?>
<svg baseProfile="full" height="256" version="1.1" width="256" xmlns="http://www.w3.org/2000/svg" xmlns:ev="http://www.w3.org/2001/xml-events" xmlns:xlink="http://www.w3.org/1999/xlink"><defs /><path d="M2168 1697Q2213 1697 2252.5 1680.0Q2292 1663 2321.0 1634.0Q2350 1605 2367.0 1565.5Q2384 1526 2384 1481Q2384 1439 2367.5 1399.0Q2351 1359 2321 1329L1025 33Q1014 22 999 22Q985 22 974 33L770 93L720 287Q709 298 709 312Q709 327 720 338L2016 1634Q2046 1664 2086.0 1680.5Q2126 1697 2168 1697Z" style="fill:#0074ba;stroke:none" transform="scale(1,-1) translate(0,-256)" /></svg>