<?xml version="1.0" encoding="utf-8" ?>
<svg baseProfile="full" height="256" version="1.1" width="256" xmlns="http://www.w3.org/2000/svg" xmlns:ev="http://www.w3.org/2001/xml-events" xmlns:xlink="http://www.w3.org/1999/xlink"><defs /><path d="M1011 1330Q1011 1315 1000.5 1304.5Q990 1294 975 1294Q960 1294 949.5 1304.5Q939 1315 939 1330Q939 1345 949.5 1355.5Q960 1366 975 1366Q990 1366 1000.5 1355.5Q1011 1345 1011 1330ZM1873 1330Q1873 1315 1862.5 1304.5Q1852 1294 1837 1294Q1822 1294 1811.5 1304.5Q1801 1315 1801 1330Q1801 1345 1811.5 1355.5Q1822 1366 1837 1366Q1852 1366 1862.5 1355.5Q1873 1345 1873 1330Z" style="fill:#37c9cd;stroke:none" transform="scale(1,-1) translate(0,-256)" /></svg>