<?xml version="1.0" encoding="utf-8" ?>
<svg baseProfile="full" height="256" version="1.1" width="256" xmlns="http://www.w3.org/2000/svg" xmlns:ev="http://www.w3.org/2001/xml-events" xmlns:xlink="http://www.w3.org/1999/xlink"><defs /><path d="M1652 1502Q1633 1518 1633 1543Q1633 1565 1648.0 1581.5Q1663 1598 1686 1598Q1708 1598 1724.0 1582.0Q1740 1566 1740 1544Q1740 1526 1729.0 1511.5Q1718 1497 1701 1492L1765 1292L1512 1346ZM1161 1502 1299 1346 1047 1292 1111 1492Q1094 1497 1083.0 1511.0Q1072 1525 1072 1543Q1072 1566 1087.5 1582.0Q1103 1598 1126 1598Q1148 1598 1164.0 1582.5Q1180 1567 1180 1545Q1180 1533 1174.5 1521.5Q1169 1510 1161 1502Z" style="fill:#f9c23c;stroke:none" transform="scale(1,-1) translate(0,-256)" /></svg>