<?xml version="1.0" encoding="utf-8" ?>
<svg baseProfile="full" height="256" version="1.1" width="256" xmlns="http://www.w3.org/2000/svg" xmlns:ev="http://www.w3.org/2001/xml-events" xmlns:xlink="http://www.w3.org/1999/xlink"><defs /><path d="M1047 970Q1047 1007 1063.5 1031.5Q1080 1056 1111 1072Q1130 1082 1143.5 1092.0Q1157 1102 1166.5 1114.0Q1176 1126 1184.0 1140.5Q1192 1155 1200 1174Q1205 1186 1217 1186Q1227 1186 1233 1178Q1278 1122 1330.5 1090.0Q1383 1058 1457 1058H1684Q1705 1058 1720.0 1048.5Q1735 1039 1745.0 1024.0Q1755 1009 1759.5 990.5Q1764 972 1764 954H1765L1756 735Q1753 662 1725.5 600.0Q1698 538 1651.5 492.5Q1605 447 1542.0 421.5Q1479 396 1406 396Q1332 396 1269.5 421.5Q1207 447 1160.5 492.5Q1114 538 1086.5 600.0Q1059 662 1056 735Q1054 794 1050.5 852.5Q1047 911 1047 970Z" style="fill:#ffc83d;stroke:none" transform="scale(1,-1) translate(0,-256)" /></svg>