<?xml version="1.0" encoding="utf-8" ?>
<svg baseProfile="full" height="256" version="1.1" width="256" xmlns="http://www.w3.org/2000/svg" xmlns:ev="http://www.w3.org/2001/xml-events" xmlns:xlink="http://www.w3.org/1999/xlink"><defs /><path d="M1154 809Q1154 787 1145.5 767.5Q1137 748 1123.0 733.0Q1109 718 1089.0 709.5Q1069 701 1047 701Q1024 701 1004.5 709.5Q985 718 970.5 732.5Q956 747 947.5 766.5Q939 786 939 809Q939 831 947.5 850.5Q956 870 971.0 885.0Q986 900 1005.5 908.5Q1025 917 1047 917Q1069 917 1088.5 908.5Q1108 900 1122.5 885.0Q1137 870 1145.5 850.5Q1154 831 1154 809ZM1873 809Q1873 786 1864.5 766.5Q1856 747 1841.5 732.5Q1827 718 1807.0 709.5Q1787 701 1765 701Q1742 701 1722.5 709.5Q1703 718 1689.0 733.0Q1675 748 1666.5 767.5Q1658 787 1658 809Q1658 831 1666.5 850.5Q1675 870 1689.5 885.0Q1704 900 1723.5 908.5Q1743 917 1765 917Q1787 917 1806.5 908.5Q1826 900 1841.0 885.0Q1856 870 1864.5 850.5Q1873 831 1873 809Z" style="fill:#fdbb11;stroke:none" transform="scale(1,-1) translate(0,-256)" /></svg>