<?xml version="1.0" encoding="utf-8" ?>
<svg baseProfile="full" height="256" version="1.1" width="256" xmlns="http://www.w3.org/2000/svg" xmlns:ev="http://www.w3.org/2001/xml-events" xmlns:xlink="http://www.w3.org/1999/xlink"><defs /><path d="M1185 838Q1185 866 1205.0 886.0Q1225 906 1253 906Q1281 906 1301.0 886.0Q1321 866 1321 838Q1321 833 1320.5 829.0Q1320 825 1319 820H1187Q1185 825 1185.0 829.0Q1185 833 1185 838ZM1636 838Q1636 866 1616.0 886.0Q1596 906 1568 906Q1540 906 1520.0 886.0Q1500 866 1500 838Q1500 833 1500.0 829.0Q1500 825 1502 820H1634Q1636 825 1636.0 829.0Q1636 833 1636 838Z" style="fill:#7d4533;stroke:none" transform="scale(1,-1) translate(0,-256)" /></svg>