<?xml version="1.0" encoding="utf-8" ?>
<svg baseProfile="full" height="256" version="1.1" width="256" xmlns="http://www.w3.org/2000/svg" xmlns:ev="http://www.w3.org/2001/xml-events" xmlns:xlink="http://www.w3.org/1999/xlink"><defs /><path d="M1406 600Q1424 600 1443.5 604.5Q1463 609 1479.5 615.0Q1496 621 1507.0 625.5Q1518 630 1520 630Q1525 630 1528.5 626.0Q1532 622 1532 617Q1532 614 1530 610Q1511 578 1477.0 558.5Q1443 539 1406 539Q1370 539 1334.5 558.5Q1299 578 1282 610Q1280 614 1280 617Q1280 622 1283.5 626.0Q1287 630 1292 630Q1294 630 1298 628Q1324 614 1350.0 607.0Q1376 600 1406 600Z" style="fill:#990839;stroke:none" transform="scale(1,-1) translate(0,-256)" /></svg>