<?xml version="1.0" encoding="utf-8" ?>
<svg baseProfile="full" height="256" version="1.1" width="256" xmlns="http://www.w3.org/2000/svg" xmlns:ev="http://www.w3.org/2001/xml-events" xmlns:xlink="http://www.w3.org/1999/xlink"><defs /><path d="M2046 252Q2101 252 2149.0 231.0Q2197 210 2233.0 174.0Q2269 138 2289.5 90.0Q2310 42 2310 -13Q2310 -57 2293.5 -95.5Q2277 -134 2248.5 -162.5Q2220 -191 2181.5 -207.5Q2143 -224 2099 -224Q2067 -224 2037.0 -214.5Q2007 -205 1981 -188V252ZM831 252V-188Q805 -205 775.5 -214.5Q746 -224 714 -224Q670 -224 631.5 -207.5Q593 -191 564.0 -162.0Q535 -133 518.5 -94.5Q502 -56 502 -12Q502 43 522.5 91.0Q543 139 579.0 175.0Q615 211 663.0 231.5Q711 252 766 252Z" style="fill:#774aa6;stroke:none" transform="scale(1,-1) translate(0,-256)" /></svg>