<?xml version="1.0" encoding="utf-8" ?>
<svg baseProfile="full" height="256" version="1.1" width="256" xmlns="http://www.w3.org/2000/svg" xmlns:ev="http://www.w3.org/2001/xml-events" xmlns:xlink="http://www.w3.org/1999/xlink"><defs /><path d="M1343 704Q1343 714 1347.5 732.5Q1352 751 1358.5 772.0Q1365 793 1371.0 812.0Q1377 831 1380 842Q1382 851 1389.0 857.0Q1396 863 1406 863Q1416 863 1423.0 857.0Q1430 851 1432 842Q1435 831 1441.0 812.0Q1447 793 1453.5 772.5Q1460 752 1464.5 733.5Q1469 715 1469 705Q1469 689 1459.0 677.0Q1449 665 1432 665H1380Q1364 665 1353.5 677.0Q1343 689 1343 704Z" style="fill:#ed9200;stroke:none" transform="scale(1,-1) translate(0,-256)" /></svg>