<?xml version="1.0" encoding="utf-8" ?>
<svg baseProfile="full" height="256" version="1.1" width="256" xmlns="http://www.w3.org/2000/svg" xmlns:ev="http://www.w3.org/2001/xml-events" xmlns:xlink="http://www.w3.org/1999/xlink"><defs /><path d="M1944 827Q1944 799 1938.0 774.5Q1932 750 1921 724Q1917 714 1917 708Q1917 703 1918.0 699.5Q1919 696 1921 692Q1933 667 1939.0 643.0Q1945 619 1945 591Q1945 543 1927.0 501.0Q1909 459 1877.5 427.5Q1846 396 1804.0 378.0Q1762 360 1714 360H1098Q1050 360 1008.0 378.0Q966 396 934.5 427.5Q903 459 885.0 501.0Q867 543 867 591Q867 610 871.0 628.5Q875 647 880.5 662.5Q886 678 890.0 690.0Q894 702 894 709Q894 714 893.0 717.5Q892 721 890 725Q879 751 873.0 775.0Q867 799 867 827Q867 864 877.5 895.5Q888 927 907 958Q944 1018 944 1086Q944 1135 962.5 1178.0Q981 1221 1013.5 1253.5Q1046 1286 1089.0 1304.5Q1132 1323 1181 1323Q1200 1323 1214 1339Q1254 1385 1298.0 1411.5Q1342 1438 1406 1438Q1469 1438 1514.0 1412.0Q1559 1386 1598 1339Q1605 1331 1612.0 1326.5Q1619 1322 1630 1322Q1679 1322 1722.0 1303.5Q1765 1285 1797.5 1252.5Q1830 1220 1848.5 1177.0Q1867 1134 1867 1085Q1867 1045 1879.0 1015.0Q1891 985 1905.5 956.5Q1920 928 1932.0 897.5Q1944 867 1944 827Z" style="fill:#f1a11e;stroke:none" transform="scale(1,-1) translate(0,-256)" /></svg>