<?xml version="1.0" encoding="utf-8" ?>
<svg baseProfile="full" height="256" version="1.1" width="256" xmlns="http://www.w3.org/2000/svg" xmlns:ev="http://www.w3.org/2001/xml-events" xmlns:xlink="http://www.w3.org/1999/xlink"><defs /><path d="M1237 927Q1269 927 1295.5 909.0Q1322 891 1336 862Q1337 859 1340.0 851.0Q1343 843 1343 840Q1343 832 1338.5 826.0Q1334 820 1325 820H1154Q1146 820 1139.5 826.0Q1133 832 1133 840Q1133 858 1143.0 874.0Q1153 890 1168.5 901.5Q1184 913 1202.5 920.0Q1221 927 1237 927ZM1584 927Q1552 927 1525.0 909.0Q1498 891 1485 862Q1483 859 1480.5 851.0Q1478 843 1478 840Q1478 832 1482.0 826.0Q1486 820 1495 820H1666Q1674 820 1681.0 826.0Q1688 832 1688 840Q1688 858 1678.0 874.0Q1668 890 1652.5 901.5Q1637 913 1618.5 920.0Q1600 927 1584 927Z" style="fill:#ffffff;stroke:none" transform="scale(1,-1) translate(0,-256)" /></svg>