<?xml version="1.0" encoding="utf-8" ?>
<svg baseProfile="full" height="256" version="1.1" width="256" xmlns="http://www.w3.org/2000/svg" xmlns:ev="http://www.w3.org/2001/xml-events" xmlns:xlink="http://www.w3.org/1999/xlink"><defs /><path d="M1223 935Q1255 935 1281.0 916.0Q1307 897 1324 871Q1286 860 1247.0 849.0Q1208 838 1170 825Q1164 830 1156.0 836.5Q1148 843 1140.5 850.0Q1133 857 1128.0 865.0Q1123 873 1123 882Q1123 896 1134.5 906.0Q1146 916 1162.0 922.5Q1178 929 1195.0 932.0Q1212 935 1223 935ZM1597 935Q1565 935 1539.5 916.0Q1514 897 1497 871Q1535 859 1574.0 848.5Q1613 838 1651 825Q1657 830 1665.0 836.5Q1673 843 1680.5 850.0Q1688 857 1693.0 865.0Q1698 873 1698 882Q1698 896 1686.5 906.0Q1675 916 1658.5 922.5Q1642 929 1625.0 932.0Q1608 935 1597 935Z" style="fill:#000000;stroke:none" transform="scale(1,-1) translate(0,-256)" /></svg>