<?xml version="1.0" encoding="utf-8" ?>
<svg baseProfile="full" height="256" version="1.1" width="256" xmlns="http://www.w3.org/2000/svg" xmlns:ev="http://www.w3.org/2001/xml-events" xmlns:xlink="http://www.w3.org/1999/xlink"><defs /><path d="M1836 1485Q1836 1508 1851.5 1523.5Q1867 1539 1890 1539Q1913 1539 1929.0 1522.5Q1945 1506 1945 1483Q1945 1460 1928.5 1444.0Q1912 1428 1890 1428Q1883 1428 1880 1429L1815 1275Q1808 1258 1790 1258H1022Q1003 1258 997 1275L932 1429Q919 1427 907.0 1430.5Q895 1434 886.0 1441.5Q877 1449 872.0 1460.5Q867 1472 867 1485Q867 1508 882.5 1523.5Q898 1539 921 1539Q944 1539 959.5 1523.0Q975 1507 975 1485Q975 1472 971 1463Q980 1460 1009.0 1451.0Q1038 1442 1070.5 1432.0Q1103 1422 1130.0 1414.0Q1157 1406 1162 1406Q1172 1406 1179 1413L1382 1621Q1368 1627 1359.0 1640.5Q1350 1654 1350 1670Q1350 1693 1366.5 1709.0Q1383 1725 1406 1725Q1429 1725 1444.0 1708.5Q1459 1692 1459 1669Q1459 1653 1450.5 1639.5Q1442 1626 1428 1619L1632 1413Q1640 1405 1650 1405Q1652 1405 1665.5 1409.0Q1679 1413 1698.5 1419.0Q1718 1425 1740.5 1432.0Q1763 1439 1783.0 1445.5Q1803 1452 1818.5 1456.5Q1834 1461 1839 1463Q1836 1473 1836 1485Z" style="fill:#ff9f2e;stroke:none" transform="scale(1,-1) translate(0,-256)" /></svg>