<?xml version="1.0" encoding="utf-8" ?>
<svg baseProfile="full" height="256" version="1.1" width="256" xmlns="http://www.w3.org/2000/svg" xmlns:ev="http://www.w3.org/2001/xml-events" xmlns:xlink="http://www.w3.org/1999/xlink"><defs /><path d="M1649 960Q1632 971 1608.0 976.0Q1584 981 1565 981Q1558 981 1551.5 980.0Q1545 979 1538 979Q1528 979 1523.0 985.0Q1518 991 1518 1000Q1518 1008 1523.5 1012.0Q1529 1016 1536.5 1018.0Q1544 1020 1552.0 1020.0Q1560 1020 1565 1020Q1572 1020 1591.0 1017.5Q1610 1015 1629.5 1010.0Q1649 1005 1664.0 997.0Q1679 989 1679 978Q1679 970 1673.5 963.5Q1668 957 1660 957Q1654 957 1650 960ZM1152 957Q1144 957 1138.5 962.5Q1133 968 1133 976Q1133 988 1142 993V994Q1168 1004 1191.5 1011.5Q1215 1019 1244 1019Q1250 1019 1259.0 1019.0Q1268 1019 1275.5 1016.5Q1283 1014 1288.5 1009.5Q1294 1005 1294 996Q1294 988 1288.0 983.0Q1282 978 1275 978Q1268 978 1261.0 979.0Q1254 980 1247 980Q1231 980 1216.5 976.5Q1202 973 1189.5 968.5Q1177 964 1167.5 960.5Q1158 957 1152 957Z" style="fill:#d37034;stroke:none" transform="scale(1,-1) translate(0,-256)" /></svg>