<?xml version="1.0" encoding="utf-8" ?>
<svg baseProfile="full" height="256" version="1.1" width="256" xmlns="http://www.w3.org/2000/svg" xmlns:ev="http://www.w3.org/2001/xml-events" xmlns:xlink="http://www.w3.org/1999/xlink"><defs /><path d="M1405 1725Q1450 1725 1490.0 1707.5Q1530 1690 1560.0 1660.0Q1590 1630 1607.5 1590.0Q1625 1550 1625 1505V940H2190Q2235 940 2275.0 922.5Q2315 905 2345.0 875.0Q2375 845 2392.5 805.0Q2410 765 2410 720Q2410 675 2392.5 635.0Q2375 595 2345.0 565.0Q2315 535 2275.0 517.5Q2235 500 2190 500H1625V-65Q1625 -110 1607.5 -150.0Q1590 -190 1560.0 -220.0Q1530 -250 1490.0 -267.5Q1450 -285 1405 -285Q1360 -285 1320.0 -267.5Q1280 -250 1250.0 -220.0Q1220 -190 1202.5 -150.0Q1185 -110 1185 -65V500H620Q575 500 535.0 517.5Q495 535 465.0 565.0Q435 595 417.5 635.0Q400 675 400 720Q400 765 417.5 805.0Q435 845 465.0 875.0Q495 905 535.0 922.5Q575 940 620 940H1185V1505Q1185 1550 1202.5 1590.0Q1220 1630 1250.0 1660.0Q1280 1690 1320.0 1707.5Q1360 1725 1405 1725Z" style="fill:#635994;stroke:none" transform="scale(1,-1) translate(0,-256)" /></svg>