<?xml version="1.0" encoding="utf-8" ?>
<svg baseProfile="full" height="256" version="1.1" width="256" xmlns="http://www.w3.org/2000/svg" xmlns:ev="http://www.w3.org/2001/xml-events" xmlns:xlink="http://www.w3.org/1999/xlink"><defs /><path d="M1313 1668Q1333 1668 1350.5 1660.5Q1368 1653 1381.5 1639.5Q1395 1626 1403.0 1608.5Q1411 1591 1411 1571Q1411 1571 1408.0 1560.0Q1405 1549 1401.0 1536.0Q1397 1523 1394.0 1511.5Q1391 1500 1390 1498Q1385 1481 1380.5 1463.0Q1376 1445 1371 1428Q1366 1410 1351.0 1396.5Q1336 1383 1316.5 1374.0Q1297 1365 1275.5 1360.0Q1254 1355 1238 1355Q1212 1355 1195.5 1362.5Q1179 1370 1170.0 1383.5Q1161 1397 1157.5 1416.0Q1154 1435 1154 1458L1149 1462Q1127 1464 1127 1484Q1127 1490 1131.0 1496.0Q1135 1502 1140.0 1509.0Q1145 1516 1149.0 1524.5Q1153 1533 1153 1543V1571Q1153 1591 1160.5 1608.5Q1168 1626 1181.5 1639.5Q1195 1653 1212.5 1660.5Q1230 1668 1250 1668H1313Z" style="fill:#ffc83d;stroke:none" transform="scale(1,-1) translate(0,-256)" /></svg>