<?xml version="1.0" encoding="utf-8" ?>
<svg baseProfile="full" height="256" version="1.1" width="256" xmlns="http://www.w3.org/2000/svg" xmlns:ev="http://www.w3.org/2001/xml-events" xmlns:xlink="http://www.w3.org/1999/xlink"><defs /><path d="M793 1653Q793 1623 781.5 1597.0Q770 1571 750.5 1551.5Q731 1532 705.0 1521.0Q679 1510 649 1510H540Q531 1510 527.0 1516.0Q523 1522 523 1530Q523 1535 525.5 1544.5Q528 1554 530 1559Q546 1601 583.5 1627.0Q621 1653 666 1653ZM802 1653H1215Q1229 1653 1237.5 1644.5Q1246 1636 1246 1622Q1246 1588 1229.5 1558.0Q1213 1528 1184 1510H1376Q1389 1510 1398.0 1500.5Q1407 1491 1407 1478Q1407 1449 1404.5 1423.5Q1402 1398 1393.5 1375.5Q1385 1353 1370.0 1332.5Q1355 1312 1331 1294Q1339 1294 1352.5 1295.0Q1366 1296 1378.5 1295.0Q1391 1294 1400.0 1288.5Q1409 1283 1409 1270V1255Q1409 1207 1391.0 1164.5Q1373 1122 1341.5 1090.5Q1310 1059 1268.0 1040.5Q1226 1022 1177 1022H1047V1257H903V1489H802ZM1981 1186Q1981 1223 1995.0 1256.0Q2009 1289 2033.5 1313.5Q2058 1338 2091.0 1352.0Q2124 1366 2161 1366H2245Q2259 1366 2264.0 1376.5Q2269 1387 2269.0 1403.0Q2269 1419 2267.5 1438.0Q2266 1457 2268.0 1473.0Q2270 1489 2278.0 1499.5Q2286 1510 2306 1510Q2328 1510 2347.5 1501.5Q2367 1493 2381.5 1478.0Q2396 1463 2404.0 1443.5Q2412 1424 2412 1402V1258Q2412 1221 2398.5 1188.5Q2385 1156 2361.0 1131.5Q2337 1107 2304.5 1092.5Q2272 1078 2235 1078H2151Q2140 1078 2132.5 1070.5Q2125 1063 2125 1052V719H1981Z" style="fill:#212121;stroke:none" transform="scale(1,-1) translate(0,-256)" /></svg>