<?xml version="1.0" encoding="utf-8" ?>
<svg baseProfile="full" height="256" version="1.1" width="256" xmlns="http://www.w3.org/2000/svg" xmlns:ev="http://www.w3.org/2001/xml-events" xmlns:xlink="http://www.w3.org/1999/xlink"><defs /><path d="M831 1114V1660L903 1606V1110H1107V1039H870Q825 1039 785.5 1060.5Q746 1082 722 1120L527 1431L578 1486L783 1157Q792 1143 803.0 1131.0Q814 1119 831 1114ZM1981 1000H1980L1981 654Q1981 622 1957.5 598.5Q1934 575 1902 575H1340Q1308 575 1285.0 598.5Q1262 622 1262 654V1054Q1294 1031 1331.5 1018.5Q1369 1006 1408 1006H1915Q1948 1006 1981 1000Z" style="fill:#00d26a;stroke:none" transform="scale(1,-1) translate(0,-256)" /></svg>