<?xml version="1.0" encoding="utf-8" ?>
<svg baseProfile="full" height="256" version="1.1" width="256" xmlns="http://www.w3.org/2000/svg" xmlns:ev="http://www.w3.org/2001/xml-events" xmlns:xlink="http://www.w3.org/1999/xlink"><defs /><path d="M1758 1438Q1791 1438 1821.0 1425.5Q1851 1413 1873.0 1391.5Q1895 1370 1908.0 1340.5Q1921 1311 1921 1278Q1921 1239 1906.5 1210.5Q1892 1182 1864 1156L1703 1006Q1693 996 1693 983V737Q1693 729 1688.0 724.0Q1683 719 1675 719H1548Q1540 719 1535.0 724.0Q1530 729 1530 737Q1530 743 1535.5 756.0Q1541 769 1548.0 786.5Q1555 804 1560.5 823.5Q1566 843 1566 861Q1566 883 1564.5 916.5Q1563 950 1566.0 984.0Q1569 1018 1579.0 1049.0Q1589 1080 1612 1098Q1625 1108 1637.0 1117.0Q1649 1126 1662 1136V1438H1758Z" style="fill:#d3d3d3;stroke:none" transform="scale(1,-1) translate(0,-256)" /></svg>