<?xml version="1.0" encoding="utf-8" ?>
<svg baseProfile="full" height="256" version="1.1" width="256" xmlns="http://www.w3.org/2000/svg" xmlns:ev="http://www.w3.org/2001/xml-events" xmlns:xlink="http://www.w3.org/1999/xlink"><defs /><path d="M1410 1475Q1422 1475 1430.5 1468.5Q1439 1462 1439 1449Q1439 1429 1424.5 1425.5Q1410 1422 1395 1422Q1374 1422 1365.5 1433.0Q1357 1444 1357 1464Q1357 1470 1356.0 1485.5Q1355 1501 1352.0 1517.0Q1349 1533 1342.5 1545.0Q1336 1557 1325 1557H1323Q1323 1580 1306.0 1590.0Q1289 1600 1266.0 1603.5Q1243 1607 1219.5 1608.5Q1196 1610 1182 1617Q1214 1627 1246.5 1635.0Q1279 1643 1312 1651Q1317 1648 1335.5 1638.5Q1354 1629 1375.0 1618.5Q1396 1608 1413.0 1599.5Q1430 1591 1432 1591H1445Q1447 1583 1448.0 1575.0Q1449 1567 1449 1559Q1449 1536 1439.5 1512.0Q1430 1488 1410 1475Z" style="fill:#f1a11e;stroke:none" transform="scale(1,-1) translate(0,-256)" /></svg>