<?xml version="1.0" encoding="utf-8" ?>
<svg baseProfile="full" height="256" version="1.1" width="256" xmlns="http://www.w3.org/2000/svg" xmlns:ev="http://www.w3.org/2001/xml-events" xmlns:xlink="http://www.w3.org/1999/xlink"><defs /><path d="M737 1725Q742 1725 764.0 1709.5Q786 1694 812.5 1674.5Q839 1655 862.5 1637.0Q886 1619 893 1614Q916 1597 937.0 1575.5Q958 1554 972 1528L1191 1134Q1224 1075 1282.0 1040.5Q1340 1006 1408 1006H1915Q1988 1006 2052.5 978.5Q2117 951 2165.0 903.0Q2213 855 2240.5 790.5Q2268 726 2268 653V137Q2268 73 2228 22L1995 -269Q1980 -287 1958 -287H1870Q1863 -287 1858.5 -282.0Q1854 -277 1854 -270Q1854 -267 1865.0 -251.0Q1876 -235 1893.0 -212.0Q1910 -189 1930.0 -162.5Q1950 -136 1968.0 -112.0Q1986 -88 2000.0 -70.0Q2014 -52 2018 -46Q2053 0 2053 58Q2053 98 2034.5 135.0Q2016 172 1984 196L1803 332Q1785 346 1763.0 353.0Q1741 360 1718 360H1190H1142Q1120 360 1102.5 362.5Q1085 365 1069.0 368.5Q1053 372 1036.5 377.5Q1020 383 1000 389Q998 389 996.5 389.5Q995 390 993 390Q988 390 973.0 378.5Q958 367 942.5 351.0Q927 335 915.0 318.5Q903 302 903 292Q903 280 906.0 270.5Q909 261 918 252L1008 161Q1024 145 1044.0 144.5Q1064 144 1084 144Q1099 144 1108.5 133.5Q1118 123 1118 109V35Q1118 21 1108.5 10.5Q1099 0 1084 0Q1030 0 996.0 9.0Q962 18 935.5 36.0Q909 54 882.5 82.5Q856 111 817 150Q790 177 774.5 213.5Q759 250 759 288Q759 333 775.5 365.5Q792 398 812.5 421.0Q833 444 849.5 459.0Q866 474 866 483Q866 490 862 495Q833 534 814.0 576.5Q795 619 788 668L709 1246Q708 1254 701.5 1259.0Q695 1264 687 1264Q672 1264 645.0 1252.0Q618 1240 587.5 1225.5Q557 1211 527.0 1199.0Q497 1187 476 1187Q443 1187 421.5 1209.5Q400 1232 400 1264Q400 1294 420 1316L712 1632Q719 1640 718.5 1655.5Q718 1671 717.5 1686.5Q717 1702 720.0 1713.5Q723 1725 737 1725Z" style="fill:#7d4533;stroke:none" transform="scale(1,-1) translate(0,-256)" /></svg>