<?xml version="1.0" encoding="utf-8" ?>
<svg baseProfile="full" height="256" version="1.1" width="256" xmlns="http://www.w3.org/2000/svg" xmlns:ev="http://www.w3.org/2001/xml-events" xmlns:xlink="http://www.w3.org/1999/xlink"><defs /><path d="M1459 1599Q1459 1591 1454.0 1586.0Q1449 1581 1441 1581H1330V1376Q1330 1368 1323.5 1361.5Q1317 1355 1309 1355Q1300 1355 1294.0 1361.0Q1288 1367 1288 1376V1581H1134Q1123 1581 1114.5 1589.5Q1106 1598 1106 1609Q1106 1623 1113.0 1628.5Q1120 1634 1130.0 1637.0Q1140 1640 1151.5 1643.0Q1163 1646 1171 1657Q1196 1689 1228.0 1707.0Q1260 1725 1302 1725Q1329 1725 1354.5 1716.0Q1380 1707 1401.0 1691.0Q1422 1675 1437.0 1653.0Q1452 1631 1458 1604ZM1424 1438H1662V1150H1400Q1386 1150 1376.5 1130.0Q1367 1110 1352.0 1086.0Q1337 1062 1313.5 1042.0Q1290 1022 1249 1022H1060Q1035 1022 1016.0 1039.5Q997 1057 997 1083Q997 1111 1015.5 1130.5Q1034 1150 1063 1150H1246L1366 1402Q1374 1419 1389.5 1428.5Q1405 1438 1424 1438Z" style="fill:#635994;stroke:none" transform="scale(1,-1) translate(0,-256)" /></svg>