<?xml version="1.0" encoding="utf-8" ?>
<svg baseProfile="full" height="256" version="1.1" width="256" xmlns="http://www.w3.org/2000/svg" xmlns:ev="http://www.w3.org/2001/xml-events" xmlns:xlink="http://www.w3.org/1999/xlink"><defs /><path d="M977 1006Q947 1006 925.0 1028.0Q903 1050 903 1080V1507Q903 1538 924.5 1559.5Q946 1581 977 1581H1691Q1722 1581 1743.5 1559.5Q1765 1538 1765 1507V1080Q1765 1050 1743.0 1028.0Q1721 1006 1691 1006ZM759 -144H1910Q1939 -144 1960.0 -165.0Q1981 -186 1981 -215V-287H687V-215Q687 -186 708.5 -165.0Q730 -144 759 -144ZM1909 1333Q1909 1346 1917.5 1356.0Q1926 1366 1940 1366Q1949 1366 1958 1359L2184 1179Q2197 1169 2197 1153V896Q2197 883 2188.5 873.0Q2180 863 2166 863H2052Q2020 863 2000.5 886.0Q1981 909 1981 939V1162Q1981 1177 1969.5 1200.0Q1958 1223 1944.5 1247.5Q1931 1272 1920.0 1295.0Q1909 1318 1909 1333ZM2095 940Q2108 940 2116.5 949.5Q2125 959 2125 971V1079Q2125 1093 2112.0 1108.0Q2099 1123 2085 1123Q2072 1123 2063.0 1113.5Q2054 1104 2054 1091V972Q2054 959 2062.0 949.5Q2070 940 2084 940ZM759 863H1909V791H759Z" style="fill:#d3d3d3;stroke:none" transform="scale(1,-1) translate(0,-256)" /></svg>