<?xml version="1.0" encoding="utf-8" ?>
<svg baseProfile="full" height="256" version="1.1" width="256" xmlns="http://www.w3.org/2000/svg" xmlns:ev="http://www.w3.org/2001/xml-events" xmlns:xlink="http://www.w3.org/1999/xlink"><defs /><path d="M903 1507Q903 1538 924.5 1559.5Q946 1581 977 1581H1691Q1722 1581 1743.5 1559.5Q1765 1538 1765 1507V1438H903ZM1370 1366H1658Q1673 1366 1683.0 1355.5Q1693 1345 1693 1330Q1693 1315 1683.0 1304.5Q1673 1294 1658 1294H1370Q1355 1294 1344.5 1304.5Q1334 1315 1334 1330Q1334 1345 1344.5 1355.5Q1355 1366 1370 1366Z" style="fill:#212121;stroke:none" transform="scale(1,-1) translate(0,-256)" /></svg>