<?xml version="1.0" encoding="utf-8" ?>
<svg baseProfile="full" height="256" version="1.1" width="256" xmlns="http://www.w3.org/2000/svg" xmlns:ev="http://www.w3.org/2001/xml-events" xmlns:xlink="http://www.w3.org/1999/xlink"><defs /><path d="M2125 971Q2125 956 2114.5 945.5Q2104 935 2089 935Q2074 935 2063.5 945.5Q2053 956 2053 971Q2053 985 2064.0 995.5Q2075 1006 2089 1006Q2103 1006 2114.0 995.5Q2125 985 2125 971ZM2125 935H2197V108Q2197 86 2188.5 66.5Q2180 47 2165.0 32.0Q2150 17 2130.5 8.5Q2111 0 2089 0Q2066 0 2046.5 8.5Q2027 17 2012.5 31.5Q1998 46 1989.5 65.5Q1981 85 1981 108V611Q1981 624 1973.5 632.5Q1966 641 1955.0 645.0Q1944 649 1931.5 649.5Q1919 650 1909 647V719H1945Q1967 719 1987.0 710.5Q2007 702 2021.5 687.5Q2036 673 2044.5 653.0Q2053 633 2053 611V108Q2053 93 2063.5 82.5Q2074 72 2089 72Q2104 72 2114.5 82.5Q2125 93 2125 108Z" style="fill:#212121;stroke:none" transform="scale(1,-1) translate(0,-256)" /></svg>