<?xml version="1.0" encoding="utf-8" ?>
<svg baseProfile="full" height="256" version="1.1" width="256" xmlns="http://www.w3.org/2000/svg" xmlns:ev="http://www.w3.org/2001/xml-events" xmlns:xlink="http://www.w3.org/1999/xlink"><defs /><path d="M1419 1294Q1492 1294 1556.5 1266.5Q1621 1239 1669.0 1191.5Q1717 1144 1745.0 1080.0Q1773 1016 1773 943Q1773 852 1729 773Q1795 722 1832.0 649.0Q1869 576 1869 493Q1869 419 1840.5 355.0Q1812 291 1763.0 243.5Q1714 196 1649.0 169.0Q1584 142 1511 142H1099Q1073 142 1050.0 152.0Q1027 162 1010.0 179.0Q993 196 983.0 219.0Q973 242 973 268L975 1168Q975 1194 985.0 1217.0Q995 1240 1012.0 1257.0Q1029 1274 1052.0 1284.0Q1075 1294 1101 1294ZM1226 593 1225 592V394H1514Q1535 394 1553.5 401.5Q1572 409 1586.0 422.5Q1600 436 1608.5 454.0Q1617 472 1617 493Q1617 514 1608.5 532.0Q1600 550 1586.0 563.5Q1572 577 1553.5 585.0Q1535 593 1514 593H1422Q1421 593 1420.5 592.5Q1420 592 1419 592L1417 593ZM1421 844Q1441 844 1459.5 852.0Q1478 860 1492.0 873.5Q1506 887 1514.0 905.0Q1522 923 1522 943Q1522 964 1513.5 982.0Q1505 1000 1491.0 1013.5Q1477 1027 1458.5 1034.5Q1440 1042 1419 1042H1226V844Z" style="fill:#ffffff;stroke:none" transform="scale(1,-1) translate(0,-256)" /></svg>