<?xml version="1.0" encoding="utf-8" ?>
<svg baseProfile="full" height="256" version="1.1" width="256" xmlns="http://www.w3.org/2000/svg" xmlns:ev="http://www.w3.org/2001/xml-events" xmlns:xlink="http://www.w3.org/1999/xlink"><defs /><path d="M831 1294Q831 1324 852.0 1345.0Q873 1366 903 1366H975Q1004 1366 1025.5 1344.5Q1047 1323 1047 1294V360Q1047 331 1025.5 309.5Q1004 288 975 288H903Q873 288 852.0 309.0Q831 330 831 360ZM1334 1294Q1334 1324 1355.0 1345.0Q1376 1366 1406 1366H1478Q1508 1366 1529.0 1345.0Q1550 1324 1550 1294V360Q1550 330 1529.0 309.0Q1508 288 1478 288H1406Q1376 288 1355.0 309.0Q1334 330 1334 360ZM1909 1366Q1879 1366 1858.0 1345.0Q1837 1324 1837 1294V360Q1837 330 1858.0 309.0Q1879 288 1909 288H1981Q2011 288 2032.0 309.0Q2053 330 2053 360V1294Q2053 1324 2032.0 1345.0Q2011 1366 1981 1366Z" style="fill:#1c1c1c;stroke:none" transform="scale(1,-1) translate(0,-256)" /></svg>