<?xml version="1.0" encoding="utf-8" ?>
<svg baseProfile="full" height="256" version="1.1" width="256" xmlns="http://www.w3.org/2000/svg" xmlns:ev="http://www.w3.org/2001/xml-events" xmlns:xlink="http://www.w3.org/1999/xlink"><defs /><path d="M831 1366Q861 1366 882.0 1345.0Q903 1324 903 1294V-144Q903 -173 881.5 -194.0Q860 -215 831 -215H543Q514 -215 493.0 -194.0Q472 -173 472 -144V1294Q472 1323 493.0 1344.5Q514 1366 543 1366ZM1334 1366Q1364 1366 1385.0 1345.0Q1406 1324 1406 1294V-144Q1406 -173 1384.5 -194.0Q1363 -215 1334 -215H1047Q1018 -215 996.5 -194.0Q975 -173 975 -144V1294Q975 1324 996.0 1345.0Q1017 1366 1047 1366ZM1478 1294Q1478 1324 1499.0 1345.0Q1520 1366 1550 1366H1837Q1867 1366 1888.0 1345.0Q1909 1324 1909 1294V-144Q1909 -173 1887.5 -194.0Q1866 -215 1837 -215H1550Q1521 -215 1499.5 -194.0Q1478 -173 1478 -144ZM2340 1366Q2370 1366 2391.0 1345.0Q2412 1324 2412 1294V-144Q2412 -173 2390.5 -194.0Q2369 -215 2340 -215H2053Q2024 -215 2002.5 -194.0Q1981 -173 1981 -144V1294Q1981 1324 2002.0 1345.0Q2023 1366 2053 1366Z" style="fill:#f4f4f4;stroke:none" transform="scale(1,-1) translate(0,-256)" /></svg>