<?xml version="1.0" encoding="utf-8" ?>
<svg baseProfile="full" height="256" version="1.1" width="256" xmlns="http://www.w3.org/2000/svg" xmlns:ev="http://www.w3.org/2001/xml-events" xmlns:xlink="http://www.w3.org/1999/xlink"><defs /><path d="M859 455Q901 455 941.0 438.5Q981 422 1011 392L1115 287Q1145 256 1161.5 217.0Q1178 178 1178 135Q1178 67 1140.5 13.0Q1103 -41 1046.5 -79.5Q990 -118 923.0 -138.5Q856 -159 797 -159Q759 -159 722.0 -152.5Q685 -146 648.5 -136.0Q612 -126 576.5 -114.0Q541 -102 505 -91Q494 -88 487.5 -78.5Q481 -69 481 -58Q481 -53 484 -48L520 -16Q554 14 568.5 48.0Q583 82 588.0 117.0Q593 152 594.0 188.0Q595 224 602.0 258.0Q609 292 627.5 323.5Q646 355 686 383L735 416Q764 435 794.0 445.0Q824 455 859 455Z" style="fill:#ffb02e;stroke:none" transform="scale(1,-1) translate(0,-256)" /></svg>