<?xml version="1.0" encoding="utf-8" ?>
<svg baseProfile="full" height="256" version="1.1" width="256" xmlns="http://www.w3.org/2000/svg" xmlns:ev="http://www.w3.org/2001/xml-events" xmlns:xlink="http://www.w3.org/1999/xlink"><defs /><path d="M1229 1374Q1229 1377 1231.0 1386.5Q1233 1396 1236.5 1406.5Q1240 1417 1244.0 1426.5Q1248 1436 1252 1440Q1253 1440 1255.5 1441.0Q1258 1442 1259 1442Q1261 1442 1267 1440Q1270 1437 1273.5 1428.0Q1277 1419 1280.5 1407.5Q1284 1396 1286.5 1385.5Q1289 1375 1289 1370L1286 1363Q1279 1356 1272 1356H1246Q1238 1356 1233.5 1361.5Q1229 1367 1229 1374Z" style="fill:#ed9200;stroke:none" transform="scale(1,-1) translate(0,-256)" /></svg>