<?xml version="1.0" encoding="utf-8" ?>
<svg baseProfile="full" height="256" version="1.1" width="256" xmlns="http://www.w3.org/2000/svg" xmlns:ev="http://www.w3.org/2001/xml-events" xmlns:xlink="http://www.w3.org/1999/xlink"><defs /><path d="M1770 1414Q1756 1414 1745.0 1425.0Q1734 1436 1734 1450V1534Q1734 1549 1739.5 1560.5Q1745 1572 1754.0 1582.5Q1763 1593 1773.5 1602.5Q1784 1612 1793 1621Q1804 1632 1819 1632Q1835 1632 1846.0 1621.5Q1857 1611 1857 1595Q1857 1586 1851.0 1576.5Q1845 1567 1837.0 1558.5Q1829 1550 1820.5 1542.5Q1812 1535 1807 1530V1450Q1807 1434 1796.0 1424.0Q1785 1414 1770 1414Z" style="fill:#fdbb11;stroke:none" transform="scale(1,-1) translate(0,-256)" /></svg>