<?xml version="1.0" encoding="utf-8" ?>
<svg baseProfile="full" height="256" version="1.1" width="256" xmlns="http://www.w3.org/2000/svg" xmlns:ev="http://www.w3.org/2001/xml-events" xmlns:xlink="http://www.w3.org/1999/xlink"><defs /><path d="M1440 1242Q1451 1222 1464.5 1202.5Q1478 1183 1490.0 1162.0Q1502 1141 1510.0 1119.0Q1518 1097 1518 1073Q1518 1050 1512.0 1033.0Q1506 1016 1499.5 1002.0Q1493 988 1487.0 976.0Q1481 964 1481 950Q1481 907 1485.5 863.5Q1490 820 1492 776H1773Q1892 776 2009.5 801.0Q2127 826 2235 877Q2247 883 2258.0 886.0Q2269 889 2283 889Q2306 889 2326.5 880.5Q2347 872 2362.0 857.5Q2377 843 2386.0 823.0Q2395 803 2395 780V750L2235 396Q2235 366 2211.0 335.5Q2187 305 2147.0 274.5Q2107 244 2054.5 214.5Q2002 185 1945.0 158.0Q1888 131 1830.5 107.0Q1773 83 1721.5 63.0Q1670 43 1629.0 28.5Q1588 14 1565 5Q1473 -29 1382.0 -61.0Q1291 -93 1199 -127Q1181 -134 1153.0 -144.5Q1125 -155 1092.5 -167.5Q1060 -180 1025.5 -195.0Q991 -210 960.0 -225.0Q929 -240 905.0 -255.5Q881 -271 868 -285Q826 -285 790.5 -269.5Q755 -254 730.0 -227.0Q705 -200 691.0 -164.0Q677 -128 677 -87Q677 -45 696.5 -6.0Q716 33 748 59Q799 101 837.5 145.0Q876 189 905 248Q932 303 947.0 363.5Q962 424 962 486Q962 520 964.0 548.5Q966 577 973.5 603.0Q981 629 995.0 653.5Q1009 678 1034 704Q1065 737 1108 755Q1102 820 1091.5 883.0Q1081 946 1067 1009Q1061 1035 1053.5 1060.0Q1046 1085 1040 1111Q1037 1124 1037 1138Q1037 1158 1045.5 1176.5Q1054 1195 1068.0 1209.5Q1082 1224 1100.5 1233.0Q1119 1242 1139 1242Z" style="fill:#f8312f;stroke:none" transform="scale(1,-1) translate(0,-256)" /></svg>