<?xml version="1.0" encoding="utf-8" ?>
<svg baseProfile="full" height="256" version="1.1" width="256" xmlns="http://www.w3.org/2000/svg" xmlns:ev="http://www.w3.org/2001/xml-events" xmlns:xlink="http://www.w3.org/1999/xlink"><defs /><path d="M1088 1486Q1088 1501 1091.5 1509.0Q1095 1517 1100.5 1521.5Q1106 1526 1111.0 1529.0Q1116 1532 1119 1537Q1129 1541 1137.5 1550.0Q1146 1559 1152.5 1568.0Q1159 1577 1163.5 1584.0Q1168 1591 1171 1591Q1173 1591 1181.0 1581.5Q1189 1572 1203.5 1560.5Q1218 1549 1239.0 1539.5Q1260 1530 1287 1530H1396Q1409 1530 1417.0 1524.0Q1425 1518 1429.0 1509.0Q1433 1500 1434.0 1488.5Q1435 1477 1435 1467L1431 1386Q1429 1351 1415.5 1321.5Q1402 1292 1379.5 1271.0Q1357 1250 1327.0 1238.5Q1297 1227 1262 1227Q1227 1227 1197.0 1239.0Q1167 1251 1144.0 1272.0Q1121 1293 1107.0 1322.0Q1093 1351 1092 1386Q1091 1411 1089.5 1436.0Q1088 1461 1088 1486Z" style="fill:#ffc83d;stroke:none" transform="scale(1,-1) translate(0,-256)" /></svg>