<?xml version="1.0" encoding="utf-8" ?>
<svg baseProfile="full" height="256" version="1.1" width="256" xmlns="http://www.w3.org/2000/svg" xmlns:ev="http://www.w3.org/2001/xml-events" xmlns:xlink="http://www.w3.org/1999/xlink"><defs /><path d="M1216 1441Q1199 1436 1182.5 1430.5Q1166 1425 1149 1420Q1144 1425 1138.5 1430.0Q1133 1435 1129 1440Q1129 1442 1128.5 1443.0Q1128 1444 1128 1446Q1128 1448 1128.5 1449.0Q1129 1450 1129 1452Q1135 1460 1148.0 1464.0Q1161 1468 1171 1468Q1185 1468 1196.5 1460.0Q1208 1452 1216 1441ZM1303 1441Q1337 1429 1370 1420Q1375 1425 1380.5 1430.0Q1386 1435 1390 1440Q1390 1442 1390.5 1443.0Q1391 1444 1391 1446Q1391 1448 1390.5 1449.0Q1390 1450 1390 1452Q1385 1460 1371.5 1464.0Q1358 1468 1348 1468Q1334 1468 1322.5 1460.0Q1311 1452 1303 1441Z" style="fill:#000000;stroke:none" transform="scale(1,-1) translate(0,-256)" /></svg>