<?xml version="1.0" encoding="utf-8" ?>
<svg baseProfile="full" height="256" version="1.1" width="256" xmlns="http://www.w3.org/2000/svg" xmlns:ev="http://www.w3.org/2001/xml-events" xmlns:xlink="http://www.w3.org/1999/xlink"><defs /><path d="M768 774V703Q768 690 777 681Q782 676 789.5 669.5Q797 663 803.5 656.0Q810 649 814.5 641.0Q819 633 819 624Q819 610 808.5 599.5Q798 589 784 589Q769 589 759 599Q747 611 735.5 622.0Q724 633 715.5 644.5Q707 656 702.0 670.0Q697 684 697 702V745Q716 748 733.5 757.0Q751 766 768 774Z" style="fill:#fdbb11;stroke:none" transform="scale(1,-1) translate(0,-256)" /></svg>