<?xml version="1.0" encoding="utf-8" ?>
<svg baseProfile="full" height="256" version="1.1" width="256" xmlns="http://www.w3.org/2000/svg" xmlns:ev="http://www.w3.org/2001/xml-events" xmlns:xlink="http://www.w3.org/1999/xlink"><defs /><path d="M1499 1374Q1526 1320 1526 1256Q1526 1201 1505.5 1153.0Q1485 1105 1449.0 1069.0Q1413 1033 1365.0 1012.0Q1317 991 1262 991H1243Q1203 947 1149.0 922.0Q1095 897 1035 897Q978 897 926.5 919.0Q875 941 837.0 979.0Q799 1017 776.5 1067.5Q754 1118 754 1176Q754 1219 766.0 1257.5Q778 1296 801.0 1326.5Q824 1357 858.0 1377.5Q892 1398 936 1407Q956 1410 967 1423Q979 1436 980.5 1455.5Q982 1475 984.0 1498.5Q986 1522 994.0 1549.0Q1002 1576 1027 1603Q1047 1625 1078.5 1641.5Q1110 1658 1140 1659Q1145 1659 1151.0 1659.0Q1157 1659 1162 1661Q1166 1663 1169 1667Q1186 1689 1208.5 1701.0Q1231 1713 1259 1713Q1287 1713 1310.0 1701.0Q1333 1689 1350 1667Q1352 1665 1353.0 1663.5Q1354 1662 1356 1661Q1363 1657 1372.0 1657.0Q1381 1657 1392.0 1655.0Q1403 1653 1415.5 1647.0Q1428 1641 1443 1626Q1461 1607 1467.0 1590.5Q1473 1574 1475.0 1557.5Q1477 1541 1479.5 1524.0Q1482 1507 1494 1488Q1504 1472 1508.0 1455.5Q1512 1439 1512 1421Q1512 1395 1500 1374Z" style="fill:#ed9200;stroke:none" transform="scale(1,-1) translate(0,-256)" /></svg>