<?xml version="1.0" encoding="utf-8" ?>
<svg baseProfile="full" height="256" version="1.1" width="256" xmlns="http://www.w3.org/2000/svg" xmlns:ev="http://www.w3.org/2001/xml-events" xmlns:xlink="http://www.w3.org/1999/xlink"><defs /><path d="M1476 1653Q1496 1653 1509.0 1640.0Q1522 1627 1522 1608Q1522 1597 1516.0 1586.0Q1510 1575 1500 1569Q1516 1556 1516 1536Q1516 1518 1503.5 1504.0Q1491 1490 1473 1490Q1459 1490 1446 1498Q1440 1484 1427.0 1477.5Q1414 1471 1400 1471Q1383 1471 1370.5 1482.5Q1358 1494 1358 1511Q1358 1520 1361 1528Q1341 1528 1328.0 1540.0Q1315 1552 1315 1572Q1315 1590 1327.5 1603.5Q1340 1617 1359 1617H1364Q1360 1625 1360 1637Q1360 1656 1372.5 1668.0Q1385 1680 1405 1680Q1421 1680 1433.0 1669.5Q1445 1659 1447 1643Q1462 1653 1476 1653Z" style="fill:#f92f60;stroke:none" transform="scale(1,-1) translate(0,-256)" /></svg>