<?xml version="1.0" encoding="utf-8" ?>
<svg baseProfile="full" height="256" version="1.1" width="256" xmlns="http://www.w3.org/2000/svg" xmlns:ev="http://www.w3.org/2001/xml-events" xmlns:xlink="http://www.w3.org/1999/xlink"><defs /><path d="M1373 1484Q1364 1489 1353.5 1491.5Q1343 1494 1332 1494Q1327 1494 1320.0 1494.5Q1313 1495 1313 1503Q1313 1508 1315 1510Q1317 1515 1324.5 1515.5Q1332 1516 1337 1516Q1342 1516 1351.0 1515.0Q1360 1514 1369.0 1511.5Q1378 1509 1385.0 1504.5Q1392 1500 1392 1494Q1390 1488 1385 1485Q1383 1484 1378 1484ZM1131 1490Q1130 1492 1130 1496Q1130 1498 1131.5 1500.0Q1133 1502 1134 1504Q1158 1516 1186 1516Q1192 1516 1197.0 1515.5Q1202 1515 1207 1511Q1207 1510 1207.5 1509.0Q1208 1508 1208 1507V1503Q1208 1498 1204.0 1496.0Q1200 1494 1196 1494Q1180 1494 1172.5 1493.0Q1165 1492 1161.0 1490.5Q1157 1489 1153.0 1487.0Q1149 1485 1140 1484L1135 1486Z" style="fill:#d37034;stroke:none" transform="scale(1,-1) translate(0,-256)" /></svg>