<?xml version="1.0" encoding="utf-8" ?>
<svg baseProfile="full" height="256" version="1.1" width="256" xmlns="http://www.w3.org/2000/svg" xmlns:ev="http://www.w3.org/2001/xml-events" xmlns:xlink="http://www.w3.org/1999/xlink"><defs /><path d="M1093 1216Q1124 1216 1145.5 1194.5Q1167 1173 1167 1143Q1167 1116 1153.5 1099.0Q1140 1082 1117 1071L903 966Q891 960 880.0 946.5Q869 933 863 922Q849 895 849 864V747V671Q849 657 839.0 646.0Q829 635 815 635Q792 635 786.0 647.0Q780 659 778.5 674.0Q777 689 774.0 701.0Q771 713 755 713Q750 713 744.5 708.0Q739 703 737 698Q728 689 729.0 670.0Q730 651 730.0 631.5Q730 612 723.5 597.5Q717 583 693 583Q679 583 668.5 593.5Q658 604 658 618V683Q658 703 664.0 715.5Q670 728 677.5 737.0Q685 746 693.0 754.5Q701 763 705 775Q706 779 706.5 791.5Q707 804 707.0 819.0Q707 834 706.5 847.5Q706 861 706 867Q706 902 714.5 935.5Q723 969 740 1000Q747 1013 757.5 1027.5Q768 1042 781.0 1056.0Q794 1070 807.5 1082.0Q821 1094 834 1100L1059 1209Q1074 1216 1093 1216Z" style="fill:#ffc83d;stroke:none" transform="scale(1,-1) translate(0,-256)" /></svg>