<?xml version="1.0" encoding="utf-8" ?>
<svg baseProfile="full" height="256" version="1.1" width="256" xmlns="http://www.w3.org/2000/svg" xmlns:ev="http://www.w3.org/2001/xml-events" xmlns:xlink="http://www.w3.org/1999/xlink"><defs /><path d="M1448 1623Q1460 1623 1470.0 1617.0Q1480 1611 1480 1597Q1480 1581 1468 1574Q1473 1570 1475.5 1563.0Q1478 1556 1478 1550Q1478 1542 1470.5 1534.5Q1463 1527 1455 1527Q1443 1527 1436 1532Q1434 1524 1426.0 1519.5Q1418 1515 1410 1515Q1399 1515 1391.5 1523.0Q1384 1531 1384 1542Q1384 1547 1385 1549Q1374 1549 1366.0 1556.5Q1358 1564 1358 1575Q1358 1585 1365.0 1593.5Q1372 1602 1382 1602H1386Q1381 1616 1389.0 1628.0Q1397 1640 1412 1640Q1421 1640 1428.0 1633.0Q1435 1626 1437 1617Q1439 1619 1442.5 1621.0Q1446 1623 1448 1623Z" style="fill:#ca0b4a;stroke:none" transform="scale(1,-1) translate(0,-256)" /></svg>