<?xml version="1.0" encoding="utf-8" ?>
<svg baseProfile="full" height="256" version="1.1" width="256" xmlns="http://www.w3.org/2000/svg" xmlns:ev="http://www.w3.org/2001/xml-events" xmlns:xlink="http://www.w3.org/1999/xlink"><defs /><path d="M1177 1465Q1194 1465 1207.5 1454.0Q1221 1443 1224 1426L1221 1421L1216 1418H1141Q1140 1418 1139.0 1418.5Q1138 1419 1137 1419L1133 1422Q1132 1425 1132 1430Q1132 1445 1148.0 1455.0Q1164 1465 1177 1465ZM1342 1465Q1325 1465 1311.5 1454.0Q1298 1443 1296 1426L1298 1421L1303 1418H1378Q1379 1418 1380.0 1418.5Q1381 1419 1382 1419L1386 1422L1388 1426V1430Q1388 1437 1383.0 1443.5Q1378 1450 1371.0 1454.5Q1364 1459 1356.0 1462.0Q1348 1465 1342 1465Z" style="fill:#ffffff;stroke:none" transform="scale(1,-1) translate(0,-256)" /></svg>