<?xml version="1.0" encoding="utf-8" ?>
<svg baseProfile="full" height="256" version="1.1" width="256" xmlns="http://www.w3.org/2000/svg" xmlns:ev="http://www.w3.org/2001/xml-events" xmlns:xlink="http://www.w3.org/1999/xlink"><defs /><path d="M1976 1617Q1989 1617 1998.0 1608.0Q2007 1599 2007 1586Q2007 1580 2003.0 1570.5Q1999 1561 1994.0 1550.5Q1989 1540 1984.0 1530.5Q1979 1521 1976 1515Q1963 1488 1938.0 1482.0Q1913 1476 1887 1476V1307Q1887 1262 1869.5 1222.5Q1852 1183 1822.5 1153.0Q1793 1123 1753.0 1106.0Q1713 1089 1668 1089H1440V1242H1668Q1696 1242 1715 1261Q1730 1275 1734.0 1297.5Q1738 1320 1737.0 1346.0Q1736 1372 1733.5 1400.5Q1731 1429 1731.5 1455.5Q1732 1482 1739.0 1506.0Q1746 1530 1765 1547Q1790 1570 1825 1570Q1844 1570 1864.0 1563.0Q1884 1556 1902 1551Q1914 1548 1921.0 1557.5Q1928 1567 1935.0 1580.5Q1942 1594 1951.0 1605.5Q1960 1617 1976 1617Z" style="fill:#ffc83d;stroke:none" transform="scale(1,-1) translate(0,-256)" /></svg>