<?xml version="1.0" encoding="utf-8" ?>
<svg baseProfile="full" height="256" version="1.1" width="256" xmlns="http://www.w3.org/2000/svg" xmlns:ev="http://www.w3.org/2001/xml-events" xmlns:xlink="http://www.w3.org/1999/xlink"><defs /><path d="M1136 1294Q1128 1294 1123.0 1299.0Q1118 1304 1118 1312V1420Q1118 1428 1123.0 1433.0Q1128 1438 1136 1438H2035Q2043 1438 2048.0 1433.0Q2053 1428 2053 1420V1312Q2053 1304 2048.0 1299.0Q2043 1294 2035 1294ZM1729 1150Q1744 1150 1754.5 1139.5Q1765 1129 1765 1114Q1765 1099 1754.5 1088.5Q1744 1078 1729 1078H1154Q1140 1078 1129.0 1089.0Q1118 1100 1118 1114Q1118 1128 1129.0 1139.0Q1140 1150 1154 1150ZM1729 935Q1743 935 1754.0 924.0Q1765 913 1765 899Q1765 884 1754.5 873.5Q1744 863 1729 863H1154Q1140 863 1129.0 874.0Q1118 885 1118 899Q1118 913 1129.0 924.0Q1140 935 1154 935ZM1118 683Q1118 697 1129.0 708.0Q1140 719 1154 719H1729Q1744 719 1754.5 708.5Q1765 698 1765 683Q1765 668 1754.5 657.5Q1744 647 1729 647H1154Q1140 647 1129.0 658.0Q1118 669 1118 683ZM1729 503Q1744 503 1754.5 492.5Q1765 482 1765 467Q1765 453 1754.0 442.0Q1743 431 1729 431H1154Q1140 431 1129.0 442.0Q1118 453 1118 467Q1118 481 1129.0 492.0Q1140 503 1154 503ZM1118 252Q1118 266 1129.0 277.0Q1140 288 1154 288H1729Q1744 288 1754.5 277.5Q1765 267 1765 252Q1765 237 1754.5 226.5Q1744 216 1729 216H1154Q1140 216 1129.0 227.0Q1118 238 1118 252ZM2017 1150Q2032 1150 2042.5 1139.5Q2053 1129 2053 1114Q2053 1099 2042.5 1088.5Q2032 1078 2017 1078H1873Q1858 1078 1847.5 1088.5Q1837 1099 1837 1114Q1837 1129 1847.5 1139.5Q1858 1150 1873 1150ZM1837 899Q1837 913 1848.0 924.0Q1859 935 1873 935H2017Q2031 935 2042.0 924.0Q2053 913 2053 899Q2053 884 2042.5 873.5Q2032 863 2017 863H1873Q1858 863 1847.5 873.5Q1837 884 1837 899ZM2017 719Q2032 719 2042.5 708.5Q2053 698 2053 683Q2053 668 2042.5 657.5Q2032 647 2017 647H1873Q1858 647 1847.5 657.5Q1837 668 1837 683Q1837 698 1847.5 708.5Q1858 719 1873 719ZM1837 467Q1837 482 1847.5 492.5Q1858 503 1873 503H2017Q2032 503 2042.5 492.5Q2053 482 2053 467Q2053 453 2042.0 442.0Q2031 431 2017 431H1873Q1859 431 1848.0 442.0Q1837 453 1837 467ZM2017 288Q2032 288 2042.5 277.5Q2053 267 2053 252Q2053 237 2042.5 226.5Q2032 216 2017 216H1873Q1858 216 1847.5 226.5Q1837 237 1837 252Q1837 267 1847.5 277.5Q1858 288 1873 288ZM1770 72Q1798 72 1817.5 52.5Q1837 33 1837 5V-107Q1837 -144 1851.0 -177.0Q1865 -210 1889.5 -234.5Q1914 -259 1947.0 -273.0Q1980 -287 2017 -287H867Q830 -287 797.0 -273.0Q764 -259 739.5 -234.5Q715 -210 701.0 -177.0Q687 -144 687 -107V5Q687 33 707.0 52.5Q727 72 755 72Z" style="fill:#9b9b9b;stroke:none" transform="scale(1,-1) translate(0,-256)" /></svg>