<?xml version="1.0" encoding="utf-8" ?>
<svg baseProfile="full" height="256" version="1.1" width="256" xmlns="http://www.w3.org/2000/svg" xmlns:ev="http://www.w3.org/2001/xml-events" xmlns:xlink="http://www.w3.org/1999/xlink"><defs /><path d="M1044 1186Q1044 1208 1052.5 1228.0Q1061 1248 1075.5 1262.5Q1090 1277 1109.5 1285.5Q1129 1294 1152 1294H1550Q1627 1294 1693.5 1267.0Q1760 1240 1809.0 1192.5Q1858 1145 1886.0 1079.0Q1914 1013 1914 935Q1914 857 1886.0 791.0Q1858 725 1809.5 677.5Q1761 630 1694.5 603.5Q1628 577 1550 577H1259V179Q1259 157 1250.5 137.5Q1242 118 1227.5 103.0Q1213 88 1193.5 79.5Q1174 71 1152 71Q1129 71 1109.5 79.5Q1090 88 1075.5 102.5Q1061 117 1052.5 136.5Q1044 156 1044 179ZM1259 793H1550Q1616 793 1657.0 830.0Q1698 867 1698 935Q1698 1002 1657.0 1040.0Q1616 1078 1550 1078H1259Z" style="fill:#ffffff;stroke:none" transform="scale(1,-1) translate(0,-256)" /></svg>