<?xml version="1.0" encoding="utf-8" ?>
<svg baseProfile="full" height="256" version="1.1" width="256" xmlns="http://www.w3.org/2000/svg" xmlns:ev="http://www.w3.org/2001/xml-events" xmlns:xlink="http://www.w3.org/1999/xlink"><defs /><path d="M1987 1395Q2165 1264 2252.5 1084.5Q2340 905 2340 685Q2340 590 2331.0 493.0Q2322 396 2297.5 303.0Q2273 210 2230.0 125.0Q2187 40 2119 -31Q2133 -42 2157.0 -58.0Q2181 -74 2204.0 -93.5Q2227 -113 2244.0 -134.0Q2261 -155 2261 -175Q2261 -189 2253.5 -197.0Q2246 -205 2235.5 -209.5Q2225 -214 2212.5 -215.5Q2200 -217 2190 -217H2097Q2077 -217 2058.0 -217.5Q2039 -218 2020 -218Q1978 -218 1939.0 -215.0Q1900 -212 1860 -201L1847 -206Q1800 -189 1754.5 -172.0Q1709 -155 1663 -135Q1619 -116 1578.0 -95.5Q1537 -75 1502.5 -48.0Q1468 -21 1442.0 14.5Q1416 50 1401 99Q1382 162 1378.5 228.5Q1375 295 1370 360Q1365 426 1339.0 483.5Q1313 541 1270.5 583.5Q1228 626 1170.5 652.0Q1113 678 1047 683Q886 694 725.0 700.5Q564 707 403 715Q402 730 402.0 745.0Q402 760 402 774V799Q405 870 445.0 934.0Q485 998 546.0 1046.0Q607 1094 679.5 1122.5Q752 1151 819 1151H1290Q1387 1151 1469.5 1114.5Q1552 1078 1612.0 1015.0Q1672 952 1706.0 868.0Q1740 784 1740 688Q1740 656 1752.5 628.0Q1765 600 1786.0 578.5Q1807 557 1835.0 544.5Q1863 532 1895 532Q1941 532 1967.0 555.0Q1993 578 2006.0 612.5Q2019 647 2022.0 687.0Q2025 727 2025 761Q2025 827 2014.0 893.5Q2003 960 1981.0 1023.5Q1959 1087 1927.5 1146.5Q1896 1206 1855 1258Q1845 1260 1840 1260Q1830 1260 1815.0 1246.5Q1800 1233 1777.5 1216.5Q1755 1200 1723.5 1186.5Q1692 1173 1650 1173Q1639 1173 1614.0 1175.0Q1589 1177 1563.5 1183.0Q1538 1189 1518.5 1199.0Q1499 1209 1499 1224Q1499 1240 1509.0 1259.0Q1519 1278 1533.0 1296.0Q1547 1314 1562.5 1330.5Q1578 1347 1589 1359Q1620 1392 1661.0 1413.5Q1702 1435 1748 1435Q1761 1435 1773.5 1430.5Q1786 1426 1797 1426Q1800 1426 1800 1427Q1800 1436 1797.5 1440.5Q1795 1445 1793 1453Q1787 1480 1787 1511Q1787 1540 1795.0 1561.0Q1803 1582 1819 1605Q1829 1620 1846.0 1641.0Q1863 1662 1883.5 1680.5Q1904 1699 1925.5 1712.0Q1947 1725 1967 1725Q1987 1725 2000.5 1706.5Q2014 1688 2022.5 1662.5Q2031 1637 2034.5 1610.5Q2038 1584 2038 1569Q2038 1530 2025.5 1493.5Q2013 1457 1987 1427V1426Q1985 1421 1982.5 1416.0Q1980 1411 1980 1406ZM773 72H1278L1009 -132Q955 -172 892.5 -193.5Q830 -215 763 -215H520Q504 -215 492.5 -204.0Q481 -193 481 -177Q481 -159 497 -146Z" style="fill:#00a6ed;stroke:none" transform="scale(1,-1) translate(0,-256)" /></svg>