<?xml version="1.0" encoding="utf-8" ?>
<svg baseProfile="full" height="256" version="1.1" width="256" xmlns="http://www.w3.org/2000/svg" xmlns:ev="http://www.w3.org/2001/xml-events" xmlns:xlink="http://www.w3.org/1999/xlink"><defs /><path d="M1557 1572Q1539 1572 1523.0 1579.0Q1507 1586 1495.0 1598.0Q1483 1610 1476.0 1626.0Q1469 1642 1469 1660Q1469 1696 1495.0 1721.5Q1521 1747 1557 1747Q1593 1747 1618.5 1721.5Q1644 1696 1644 1660Q1644 1624 1618.5 1598.0Q1593 1572 1557 1572ZM544 1222Q514 1222 493.0 1243.0Q472 1264 472 1294Q472 1324 493.0 1345.0Q514 1366 544 1366Q573 1366 594.5 1344.5Q616 1323 616 1294Q616 1265 594.5 1243.5Q573 1222 544 1222ZM1047 1666Q1076 1694 1113.0 1709.5Q1150 1725 1191 1725Q1236 1725 1275.0 1708.0Q1314 1691 1343.0 1662.0Q1372 1633 1389.0 1594.0Q1406 1555 1406 1510V1476Q1406 1429 1374.5 1397.5Q1343 1366 1296 1366Q1274 1366 1255.0 1375.0Q1236 1384 1221.5 1399.0Q1207 1414 1199.0 1433.5Q1191 1453 1191 1474Q1191 1488 1180.0 1499.0Q1169 1510 1155 1510Q1141 1510 1131.0 1501.5Q1121 1493 1119 1479L1088 1258Q1086 1242 1074.5 1232.0Q1063 1222 1047 1222Q1031 1222 1019.5 1232.0Q1008 1242 1006 1258L975 1479Q973 1493 963.0 1501.5Q953 1510 939 1510Q925 1510 914.0 1499.0Q903 1488 903 1474Q903 1452 894.5 1432.5Q886 1413 872.0 1398.0Q858 1383 838.5 1374.5Q819 1366 797 1366Q750 1366 718.5 1397.5Q687 1429 687 1476V1510Q687 1555 704.0 1594.0Q721 1633 750.5 1662.0Q780 1691 819.0 1708.0Q858 1725 903 1725Q944 1725 981.0 1709.5Q1018 1694 1047 1666Z" style="fill:#26eafc;stroke:none" transform="scale(1,-1) translate(0,-256)" /></svg>