<?xml version="1.0" encoding="utf-8" ?>
<svg baseProfile="full" height="256" version="1.1" width="256" xmlns="http://www.w3.org/2000/svg" xmlns:ev="http://www.w3.org/2001/xml-events" xmlns:xlink="http://www.w3.org/1999/xlink"><defs /><path d="M808 723Q865 723 921.0 723.0Q977 723 1033 719Q1086 715 1144.0 695.5Q1202 676 1255.0 644.0Q1308 612 1351.0 569.0Q1394 526 1417 477Q1429 452 1434.5 429.5Q1440 407 1442 380Q1443 375 1443.0 370.0Q1443 365 1443 360Q1447 286 1451.0 218.0Q1455 150 1472.5 89.5Q1490 29 1528.0 -22.0Q1566 -73 1639 -112Q1674 -131 1710.0 -144.5Q1746 -158 1783 -172Q1803 -180 1821.0 -188.0Q1839 -196 1860 -201Q1803 -224 1739.0 -241.5Q1675 -259 1608.0 -271.0Q1541 -283 1474.5 -289.5Q1408 -296 1347 -296Q1216 -296 1098.5 -258.0Q981 -220 879.5 -153.0Q778 -86 695.0 6.5Q612 99 550.5 207.0Q489 315 452.0 435.0Q415 555 405 678Q404 689 404.0 698.5Q404 708 403 719Q505 721 605.5 722.0Q706 723 808 723Z" style="fill:#aeddff;stroke:none" transform="scale(1,-1) translate(0,-256)" /></svg>