<?xml version="1.0" encoding="utf-8" ?>
<svg baseProfile="full" height="256" version="1.1" width="256" xmlns="http://www.w3.org/2000/svg" xmlns:ev="http://www.w3.org/2001/xml-events" xmlns:xlink="http://www.w3.org/1999/xlink"><defs /><path d="M1677 1427Q1683 1404 1683 1382Q1683 1342 1667.5 1309.0Q1652 1276 1627.5 1248.5Q1603 1221 1572.5 1197.5Q1542 1174 1512 1153L1334 1150Q1367 1169 1405.5 1191.0Q1444 1213 1482.0 1236.0Q1520 1259 1556.5 1283.0Q1593 1307 1622 1330Q1668 1367 1677 1427ZM1995 -38Q1968 -68 1928.0 -86.0Q1888 -104 1847 -104H1838Q1619 -91 1402.5 -78.5Q1186 -66 967 -53Q848 -46 746.0 8.0Q644 62 568.0 147.0Q492 232 448.0 340.0Q404 448 401 564Q431 476 476.5 385.5Q522 295 584.5 219.5Q647 144 728.0 91.5Q809 39 911 27Q977 19 1043.0 14.5Q1109 10 1175 5Q1337 -7 1497.5 -14.5Q1658 -22 1821 -30Q1865 -32 1908.0 -34.0Q1951 -36 1995 -38ZM2383 588Q2366 564 2347.0 550.0Q2328 536 2306.0 528.0Q2284 520 2260.0 517.0Q2236 514 2208 513L1730 503Q1716 503 1704.5 514.0Q1693 525 1693 539Q1693 554 1704.0 564.5Q1715 575 1729 575ZM2244 935Q2240 926 2233.5 915.5Q2227 905 2218.5 895.0Q2210 885 2201.5 876.0Q2193 867 2184 863H1658Q1643 863 1632.5 873.5Q1622 884 1622 899Q1622 913 1633.0 924.0Q1644 935 1658 935ZM2192 863H2225ZM2243 301Q2235 280 2222.0 262.0Q2209 244 2191.5 230.5Q2174 217 2153.0 209.0Q2132 201 2110 201H2058L1585 209Q1569 209 1559.5 220.0Q1550 231 1550 246Q1550 262 1560.5 271.5Q1571 281 1586 281Q1670 281 1752.0 277.5Q1834 274 1918 274Q1958 274 1999.5 273.5Q2041 273 2082.0 275.5Q2123 278 2164.0 283.5Q2205 289 2243 301Z" style="fill:#d67d00;stroke:none" transform="scale(1,-1) translate(0,-256)" /></svg>