<?xml version="1.0" encoding="utf-8" ?>
<svg baseProfile="full" height="256" version="1.1" width="256" xmlns="http://www.w3.org/2000/svg" xmlns:ev="http://www.w3.org/2001/xml-events" xmlns:xlink="http://www.w3.org/1999/xlink"><defs /><path d="M2034 61Q2034 25 2017.5 -5.5Q2001 -36 1974.5 -57.5Q1948 -79 1914.5 -91.5Q1881 -104 1847 -104H1838Q1619 -91 1402.5 -78.5Q1186 -66 967 -53Q887 -48 813.5 -21.5Q740 5 677.5 49.0Q615 93 564.0 151.5Q513 210 476.5 278.5Q440 347 420.5 422.5Q401 498 401 577Q401 658 424.0 735.0Q447 812 488.0 880.0Q529 948 585.5 1005.5Q642 1063 710 1105Q747 1128 785.0 1144.5Q823 1161 865 1175Q902 1187 947.0 1211.5Q992 1236 1040.5 1267.0Q1089 1298 1139.5 1333.5Q1190 1369 1238.0 1404.0Q1286 1439 1329.5 1470.5Q1373 1502 1408 1525Q1450 1552 1499 1552Q1535 1552 1568.5 1540.0Q1602 1528 1627.0 1506.0Q1652 1484 1667.0 1453.0Q1682 1422 1682 1383Q1682 1342 1666.5 1308.5Q1651 1275 1626.0 1246.5Q1601 1218 1570.0 1194.5Q1539 1171 1508 1151L2051 1177Q2056 1177 2061.5 1177.5Q2067 1178 2072 1178Q2107 1178 2140.5 1165.5Q2174 1153 2200.5 1131.0Q2227 1109 2243.0 1078.0Q2259 1047 2259 1010Q2259 968 2239.0 926.5Q2219 885 2183 862Q2229 865 2271.0 856.5Q2313 848 2345.0 825.5Q2377 803 2395.5 766.5Q2414 730 2414 679Q2414 655 2404.0 629.0Q2394 603 2376.5 581.0Q2359 559 2336.5 543.0Q2314 527 2290 522Q2261 516 2229.5 514.0Q2198 512 2168 511Q2192 505 2208.0 486.0Q2224 467 2233.5 443.0Q2243 419 2247.5 393.5Q2252 368 2252 347Q2252 319 2240.5 293.0Q2229 267 2209.5 246.5Q2190 226 2164.0 213.5Q2138 201 2110 201H1972Q1987 189 1998.5 172.5Q2010 156 2018.0 137.5Q2026 119 2030.0 99.0Q2034 79 2034 61Z" style="fill:#ffc83d;stroke:none" transform="scale(1,-1) translate(0,-256)" /></svg>