<?xml version="1.0" encoding="utf-8" ?>
<svg baseProfile="full" height="256" version="1.1" width="256" xmlns="http://www.w3.org/2000/svg" xmlns:ev="http://www.w3.org/2001/xml-events" xmlns:xlink="http://www.w3.org/1999/xlink"><defs /><path d="M1406 934Q1440 934 1471 920L2228 567Q2238 562 2250.0 551.5Q2262 541 2262 529Q2262 516 2250.5 503.5Q2239 491 2223.0 480.0Q2207 469 2190.5 460.0Q2174 451 2164 447L1460 116Q1436 105 1412 105Q1392 105 1372.5 111.0Q1353 117 1335 125L641 449Q632 453 616.5 461.5Q601 470 586.0 480.5Q571 491 560.0 503.5Q549 516 549 528Q549 540 561.0 551.0Q573 562 584 567L1341 920Q1372 934 1406 934ZM1047 502Q1047 473 1063.0 452.0Q1079 431 1104 420Q1137 405 1174.5 393.5Q1212 382 1251.5 374.5Q1291 367 1330.5 363.0Q1370 359 1406 359Q1442 359 1481.5 362.5Q1521 366 1560.5 373.5Q1600 381 1637.5 392.5Q1675 404 1708 420Q1733 431 1749.0 452.5Q1765 474 1765 502Q1765 507 1764.5 511.5Q1764 516 1763 521Q1748 582 1714.0 632.0Q1680 682 1632.0 717.5Q1584 753 1526.0 772.0Q1468 791 1406 791Q1344 791 1286.0 772.0Q1228 753 1180.5 717.5Q1133 682 1098.5 632.0Q1064 582 1049 521Q1047 516 1047.0 511.5Q1047 507 1047 502Z" style="fill:#635994;stroke:none" transform="scale(1,-1) translate(0,-256)" /></svg>