<?xml version="1.0" encoding="utf-8" ?>
<svg baseProfile="full" height="256" version="1.1" width="256" xmlns="http://www.w3.org/2000/svg" xmlns:ev="http://www.w3.org/2001/xml-events" xmlns:xlink="http://www.w3.org/1999/xlink"><defs /><path d="M1598 1712Q1682 1712 1750.0 1671.5Q1818 1631 1862 1561Q1895 1508 1939.0 1473.5Q1983 1439 2042 1418Q2090 1401 2129.0 1371.5Q2168 1342 2195.5 1303.5Q2223 1265 2238.0 1219.0Q2253 1173 2253 1122Q2253 1072 2238.5 1028.5Q2224 985 2197 943Q2180 918 2172.5 895.0Q2165 872 2162.5 848.5Q2160 825 2160.5 800.0Q2161 775 2161 746L2130 764Q2131 760 2136.0 739.5Q2141 719 2147.0 696.0Q2153 673 2158.0 654.0Q2163 635 2163 634V286Q2163 242 2150.5 201.0Q2138 160 2115.0 124.5Q2092 89 2059.0 61.5Q2026 34 1985 18H809Q768 34 735.0 61.5Q702 89 678.5 124.5Q655 160 642.5 201.0Q630 242 630 286V669Q630 670 633.0 682.5Q636 695 639.5 711.0Q643 727 646.0 740.5Q649 754 650 757L632 746Q632 776 632.5 800.5Q633 825 630.5 848.5Q628 872 620.0 894.5Q612 917 596 943Q570 985 555.5 1028.5Q541 1072 541 1123Q541 1173 556.0 1219.0Q571 1265 598.5 1303.0Q626 1341 664.5 1370.5Q703 1400 750 1418Q810 1441 854.5 1476.0Q899 1511 934 1565Q979 1634 1046.0 1673.0Q1113 1712 1196 1712Q1227 1712 1253.0 1705.5Q1279 1699 1302.5 1691.0Q1326 1683 1349.0 1676.5Q1372 1670 1397 1670Q1423 1670 1446.0 1676.5Q1469 1683 1492.5 1691.0Q1516 1699 1541.5 1705.5Q1567 1712 1598 1712Z" style="fill:#9b9b9b;stroke:none" transform="scale(1,-1) translate(0,-256)" /></svg>