<?xml version="1.0" encoding="utf-8" ?>
<svg baseProfile="full" height="256" version="1.1" width="256" xmlns="http://www.w3.org/2000/svg" xmlns:ev="http://www.w3.org/2001/xml-events" xmlns:xlink="http://www.w3.org/1999/xlink"><defs /><path d="M1106 670Q1134 670 1154.0 650.0Q1174 630 1174 602Q1174 585 1166 571H1047Q1039 585 1039 602Q1039 630 1058.5 650.0Q1078 670 1106 670ZM1687 670Q1659 670 1639.0 650.0Q1619 630 1619 602Q1619 585 1627 571H1746Q1754 585 1754 602Q1754 630 1734.5 650.0Q1715 670 1687 670Z" style="fill:#000000;stroke:none" transform="scale(1,-1) translate(0,-256)" /></svg>