<?xml version="1.0" encoding="utf-8" ?>
<svg baseProfile="full" height="256" version="1.1" width="256" xmlns="http://www.w3.org/2000/svg" xmlns:ev="http://www.w3.org/2001/xml-events" xmlns:xlink="http://www.w3.org/1999/xlink"><defs /><path d="M579 -287Q580 -193 591.5 -100.0Q603 -7 630.5 79.5Q658 166 706.5 243.5Q755 321 831 385Q952 487 1100.0 539.5Q1248 592 1406 592Q1485 592 1562.5 579.0Q1640 566 1714.0 540.0Q1788 514 1856.5 475.5Q1925 437 1985 386Q2061 322 2108.5 244.0Q2156 166 2183.0 79.5Q2210 -7 2220.5 -100.0Q2231 -193 2233 -287Z" style="fill:#ca0b4a;stroke:none" transform="scale(1,-1) translate(0,-256)" /></svg>