<?xml version="1.0" encoding="utf-8" ?>
<svg baseProfile="full" height="256" version="1.1" width="256" xmlns="http://www.w3.org/2000/svg" xmlns:ev="http://www.w3.org/2001/xml-events" xmlns:xlink="http://www.w3.org/1999/xlink"><defs /><path d="M1442 1617Q1523 1617 1595.0 1586.5Q1667 1556 1720.5 1503.5Q1774 1451 1805.5 1380.0Q1837 1309 1837 1228Q1837 1221 1837.0 1214.0Q1837 1207 1836 1200Q1828 1086 1820.0 973.5Q1812 861 1804 747Q1800 695 1777.5 650.5Q1755 606 1719.0 573.0Q1683 540 1636.5 521.5Q1590 503 1538 503H1274Q1222 503 1175.5 521.5Q1129 540 1093.0 573.0Q1057 606 1034.5 650.5Q1012 695 1008 747Q1000 861 992.0 973.5Q984 1086 976 1200Q975 1207 975.0 1214.0Q975 1221 975 1228Q975 1309 1006.5 1380.0Q1038 1451 1091.5 1503.5Q1145 1556 1217.0 1586.5Q1289 1617 1370 1617Z" style="fill:#ffc83d;stroke:none" transform="scale(1,-1) translate(0,-256)" /></svg>