<?xml version="1.0" encoding="utf-8" ?>
<svg baseProfile="full" height="256" version="1.1" width="256" xmlns="http://www.w3.org/2000/svg" xmlns:ev="http://www.w3.org/2001/xml-events" xmlns:xlink="http://www.w3.org/1999/xlink"><defs /><path d="M1693 664V473Q1693 438 1679.0 407.0Q1665 376 1641.5 353.5Q1618 331 1587.0 318.0Q1556 305 1521 305Q1515 305 1501.5 306.0Q1488 307 1475.0 306.0Q1462 305 1452.0 301.0Q1442 297 1442 287V-287H1370V287Q1370 297 1360.0 301.5Q1350 306 1337.0 306.5Q1324 307 1311.0 306.0Q1298 305 1291 305Q1256 305 1224.5 318.0Q1193 331 1169.5 353.5Q1146 376 1132.0 406.5Q1118 437 1118 473V664Z" style="fill:#ffc83d;stroke:none" transform="scale(1,-1) translate(0,-256)" /></svg>