<?xml version="1.0" encoding="utf-8" ?>
<svg baseProfile="full" height="256" version="1.1" width="256" xmlns="http://www.w3.org/2000/svg" xmlns:ev="http://www.w3.org/2001/xml-events" xmlns:xlink="http://www.w3.org/1999/xlink"><defs /><path d="M1334 921Q1334 928 1339.5 946.5Q1345 965 1352.5 987.0Q1360 1009 1367.0 1029.0Q1374 1049 1377 1058Q1384 1078 1406 1078Q1428 1078 1435 1058Q1438 1049 1445.0 1029.0Q1452 1009 1459.5 987.0Q1467 965 1472.5 946.5Q1478 928 1478 921Q1478 904 1465.5 892.5Q1453 881 1436 881H1376Q1359 881 1346.5 892.5Q1334 904 1334 921Z" style="fill:#ed9200;stroke:none" transform="scale(1,-1) translate(0,-256)" /></svg>