<?xml version="1.0" encoding="utf-8" ?>
<svg baseProfile="full" height="256" version="1.1" width="256" xmlns="http://www.w3.org/2000/svg" xmlns:ev="http://www.w3.org/2001/xml-events" xmlns:xlink="http://www.w3.org/1999/xlink"><defs /><path d="M1289 377Q1269 377 1251.0 384.5Q1233 392 1219.5 405.0Q1206 418 1198.0 435.5Q1190 453 1190 473V592H1622V473Q1622 453 1613.5 435.5Q1605 418 1591.5 405.0Q1578 392 1559.5 384.5Q1541 377 1522 377ZM1459 216Q1474 216 1485.0 206.0Q1496 196 1496 180Q1496 164 1485.0 154.0Q1474 144 1459 144H1353Q1338 144 1327.0 154.0Q1316 164 1316 180Q1316 196 1327.0 206.0Q1338 216 1353 216ZM1316 -39Q1316 -23 1327.0 -13.0Q1338 -3 1353 -3H1459Q1474 -3 1485.0 -13.0Q1496 -23 1496 -39Q1496 -55 1485.0 -65.0Q1474 -75 1459 -75H1353Q1338 -75 1327.0 -65.0Q1316 -55 1316 -39ZM1459 -215Q1474 -215 1485.0 -225.0Q1496 -235 1496 -251Q1496 -267 1485.0 -277.0Q1474 -287 1459 -287H1353Q1338 -287 1327.0 -277.0Q1316 -267 1316 -251Q1316 -235 1327.0 -225.0Q1338 -215 1353 -215Z" style="fill:#321b41;stroke:none" transform="scale(1,-1) translate(0,-256)" /></svg>