<?xml version="1.0" encoding="utf-8" ?>
<svg baseProfile="full" height="256" version="1.1" width="256" xmlns="http://www.w3.org/2000/svg" xmlns:ev="http://www.w3.org/2001/xml-events" xmlns:xlink="http://www.w3.org/1999/xlink"><defs /><path d="M1228 1132Q1261 1132 1289.5 1113.5Q1318 1095 1332 1065Q1334 1061 1336.5 1053.0Q1339 1045 1339 1042Q1339 1033 1334.5 1026.5Q1330 1020 1320 1020H1141Q1132 1020 1125.0 1026.5Q1118 1033 1118 1042Q1118 1061 1129.0 1077.5Q1140 1094 1156.5 1106.0Q1173 1118 1192.0 1125.0Q1211 1132 1228 1132ZM1614 1132Q1580 1132 1552.0 1113.5Q1524 1095 1510 1065Q1509 1062 1506.0 1053.5Q1503 1045 1503 1042Q1503 1033 1507.5 1026.5Q1512 1020 1522 1020H1701Q1710 1020 1717.0 1026.5Q1724 1033 1724 1042Q1724 1061 1713.0 1077.5Q1702 1094 1685.5 1106.0Q1669 1118 1649.5 1125.0Q1630 1132 1614 1132Z" style="fill:#ffffff;stroke:none" transform="scale(1,-1) translate(0,-256)" /></svg>