<?xml version="1.0" encoding="utf-8" ?>
<svg baseProfile="full" height="256" version="1.1" width="256" xmlns="http://www.w3.org/2000/svg" xmlns:ev="http://www.w3.org/2001/xml-events" xmlns:xlink="http://www.w3.org/1999/xlink"><defs /><path d="M1173 1039Q1173 1068 1194.5 1089.5Q1216 1111 1245 1111Q1275 1111 1296.0 1090.0Q1317 1069 1317 1039Q1317 1034 1316.5 1029.0Q1316 1024 1315 1019H1176Q1173 1029 1173 1039ZM1669 1039Q1669 1068 1647.5 1089.5Q1626 1111 1597 1111Q1568 1111 1546.5 1089.5Q1525 1068 1525 1039Q1525 1034 1525.5 1029.0Q1526 1024 1527 1019H1666Q1669 1029 1669 1039Z" style="fill:#7d4533;stroke:none" transform="scale(1,-1) translate(0,-256)" /></svg>