<?xml version="1.0" encoding="utf-8" ?>
<svg baseProfile="full" height="256" version="1.1" width="256" xmlns="http://www.w3.org/2000/svg" xmlns:ev="http://www.w3.org/2001/xml-events" xmlns:xlink="http://www.w3.org/1999/xlink"><defs /><path d="M903 1402H1057V1335Q1057 1306 1046.0 1290.0Q1035 1274 1021.5 1260.5Q1008 1247 997.0 1232.5Q986 1218 986 1194Q986 1164 989.0 1133.0Q992 1102 994 1072Q976 1073 960.5 1085.0Q945 1097 942 1116L906 1364Q903 1383 903 1402ZM1754 1335V1402H1909V1395Q1909 1379 1906 1364L1868 1116Q1865 1098 1851.0 1086.0Q1837 1074 1819 1073Q1821 1102 1824.0 1132.5Q1827 1163 1827 1192Q1827 1217 1815.5 1231.5Q1804 1246 1790.5 1259.5Q1777 1273 1765.5 1289.5Q1754 1306 1754 1335Z" style="fill:#f1a11e;stroke:none" transform="scale(1,-1) translate(0,-256)" /></svg>