<?xml version="1.0" encoding="utf-8" ?>
<svg baseProfile="full" height="256" version="1.1" width="256" xmlns="http://www.w3.org/2000/svg" xmlns:ev="http://www.w3.org/2001/xml-events" xmlns:xlink="http://www.w3.org/1999/xlink"><defs /><path d="M1154 1024Q1154 998 1144.0 975.5Q1134 953 1117.0 936.0Q1100 919 1077.5 909.0Q1055 899 1029 899Q1003 899 980.0 908.5Q957 918 940.0 935.0Q923 952 913.0 975.0Q903 998 903 1024Q903 1050 913.0 1073.0Q923 1096 940.0 1113.0Q957 1130 980.0 1140.0Q1003 1150 1029 1150Q1055 1150 1078.0 1140.0Q1101 1130 1118.0 1113.0Q1135 1096 1144.5 1073.0Q1154 1050 1154 1024ZM1909 1024Q1909 998 1899.0 975.0Q1889 952 1872.0 935.0Q1855 918 1832.0 908.5Q1809 899 1783 899Q1757 899 1734.5 909.0Q1712 919 1695.0 936.0Q1678 953 1668.0 975.5Q1658 998 1658 1024Q1658 1050 1667.5 1073.0Q1677 1096 1694.0 1113.0Q1711 1130 1734.0 1140.0Q1757 1150 1783 1150Q1809 1150 1832.0 1140.0Q1855 1130 1872.0 1113.0Q1889 1096 1899.0 1073.0Q1909 1050 1909 1024Z" style="fill:#fdbb11;stroke:none" transform="scale(1,-1) translate(0,-256)" /></svg>