<?xml version="1.0" encoding="utf-8" ?>
<svg baseProfile="full" height="256" version="1.1" width="256" xmlns="http://www.w3.org/2000/svg" xmlns:ev="http://www.w3.org/2001/xml-events" xmlns:xlink="http://www.w3.org/1999/xlink"><defs /><path d="M1678 1154Q1669 1154 1658.5 1159.5Q1648 1165 1634.5 1171.0Q1621 1177 1604.5 1182.5Q1588 1188 1566 1188Q1554 1188 1542.5 1188.5Q1531 1189 1521.5 1193.0Q1512 1197 1506.0 1205.5Q1500 1214 1500 1230Q1500 1245 1506.5 1254.5Q1513 1264 1523.0 1268.5Q1533 1273 1545.0 1274.5Q1557 1276 1569 1276Q1583 1276 1609.0 1271.5Q1635 1267 1660.0 1258.0Q1685 1249 1703.5 1234.5Q1722 1220 1722 1199Q1722 1180 1709.0 1167.0Q1696 1154 1678 1154ZM1127 1154Q1108 1154 1095.5 1166.0Q1083 1178 1083 1198Q1083 1219 1101.5 1234.0Q1120 1249 1145.5 1258.5Q1171 1268 1196.5 1272.0Q1222 1276 1237 1276Q1249 1276 1260.5 1274.5Q1272 1273 1282.0 1268.0Q1292 1263 1298.0 1254.0Q1304 1245 1304 1230Q1304 1212 1291.5 1199.0Q1279 1186 1260 1186Q1254 1186 1248.0 1186.5Q1242 1187 1236 1187Q1214 1187 1198.0 1182.0Q1182 1177 1169.0 1170.5Q1156 1164 1146.0 1159.0Q1136 1154 1127 1154Z" style="fill:#d37034;stroke:none" transform="scale(1,-1) translate(0,-256)" /></svg>