<?xml version="1.0" encoding="utf-8" ?>
<svg baseProfile="full" height="256" version="1.1" width="256" xmlns="http://www.w3.org/2000/svg" xmlns:ev="http://www.w3.org/2001/xml-events" xmlns:xlink="http://www.w3.org/1999/xlink"><defs /><path d="M1297 987Q1299 969 1287.0 959.0Q1275 949 1258 949Q1245 949 1235.5 959.5Q1226 970 1225 982L1190 1492L1193 1488Q1193 1495 1192.5 1501.0Q1192 1507 1192 1514Q1192 1559 1200.5 1596.0Q1209 1633 1229.0 1660.5Q1249 1688 1281.5 1705.0Q1314 1722 1362 1725V1724Q1332 1724 1312.0 1709.0Q1292 1694 1280.0 1671.5Q1268 1649 1263.0 1621.5Q1258 1594 1258 1570Q1258 1564 1258.0 1558.0Q1258 1552 1259 1546ZM1538 1488 1539 1507Q1530 1480 1526.0 1452.0Q1522 1424 1521 1395L1512 953Q1512 938 1522.0 927.5Q1532 917 1547 917Q1563 917 1573.0 926.5Q1583 936 1583 952L1592 1393Q1592 1417 1597.5 1446.5Q1603 1476 1615.0 1502.5Q1627 1529 1646.5 1548.5Q1666 1568 1695 1572Q1673 1572 1650.0 1566.5Q1627 1561 1605.5 1550.5Q1584 1540 1566.0 1524.5Q1548 1509 1538 1488ZM977 602Q996 602 1015.5 604.0Q1035 606 1054 607Q1096 609 1138.5 610.5Q1181 612 1223 612Q1310 612 1397.0 605.0Q1484 598 1568 575Q1492 550 1415.0 512.5Q1338 475 1267.0 426.5Q1196 378 1134.5 319.5Q1073 261 1027 195Q1020 184 1020 174Q1020 159 1031.0 148.5Q1042 138 1056 138Q1073 138 1085 153Q1099 170 1112.5 188.0Q1126 206 1141 223Q1209 298 1293.0 357.0Q1377 416 1469 459Q1544 494 1625 518Q1640 523 1656.0 526.0Q1672 529 1687 534Q1700 539 1708.0 546.5Q1716 554 1716 569Q1716 590 1698 601Q1657 627 1596.0 643.5Q1535 660 1468.5 669.0Q1402 678 1336.5 681.0Q1271 684 1223 684Q1195 684 1162.5 684.0Q1130 684 1097.0 683.0Q1064 682 1031.5 680.0Q999 678 972 674Q939 669 939 636Q939 620 951.0 611.0Q963 602 977 602ZM882 1295Q882 1327 884.0 1360.0Q886 1393 888 1425Q889 1452 905.0 1476.5Q921 1501 944.0 1520.0Q967 1539 994.5 1550.5Q1022 1562 1048 1563Q987 1554 963.5 1522.0Q940 1490 940 1430Q940 1413 941.5 1395.5Q943 1378 945 1361L1007 899V894Q1007 878 996.5 868.5Q986 859 972 859Q958 859 948.0 867.5Q938 876 936 889L900 1160Q897 1179 894.0 1195.5Q891 1212 888.5 1227.5Q886 1243 884.0 1259.0Q882 1275 882 1295ZM1297 987Q1299 969 1287.0 959.0Q1275 949 1258 949Q1245 949 1235.5 959.5Q1226 970 1225 982L1190 1492L1193 1488Q1193 1495 1192.5 1501.0Q1192 1507 1192 1514Q1192 1559 1200.5 1596.0Q1209 1633 1229.0 1660.5Q1249 1688 1281.5 1705.0Q1314 1722 1362 1725V1724Q1332 1724 1312.0 1709.0Q1292 1694 1280.0 1671.5Q1268 1649 1263.0 1621.5Q1258 1594 1258 1570Q1258 1564 1258.0 1558.0Q1258 1552 1259 1546ZM1538 1488 1539 1507Q1530 1480 1526.0 1452.0Q1522 1424 1521 1395L1512 953Q1512 938 1522.0 927.5Q1532 917 1547 917Q1563 917 1573.0 926.5Q1583 936 1583 952L1592 1393Q1592 1417 1597.5 1446.5Q1603 1476 1615.0 1502.5Q1627 1529 1646.5 1548.5Q1666 1568 1695 1572Q1673 1572 1650.0 1566.5Q1627 1561 1605.5 1550.5Q1584 1540 1566.0 1524.5Q1548 1509 1538 1488ZM977 602Q996 602 1015.5 604.0Q1035 606 1054 607Q1096 609 1138.5 610.5Q1181 612 1223 612Q1310 612 1397.0 605.0Q1484 598 1568 575Q1492 550 1415.0 512.5Q1338 475 1267.0 426.5Q1196 378 1134.5 319.5Q1073 261 1027 195Q1020 184 1020 174Q1020 159 1031.0 148.5Q1042 138 1056 138Q1073 138 1085 153Q1099 170 1112.5 188.0Q1126 206 1141 223Q1209 298 1293.0 357.0Q1377 416 1469 459Q1544 494 1625 518Q1640 523 1656.0 526.0Q1672 529 1687 534Q1700 539 1708.0 546.5Q1716 554 1716 569Q1716 590 1698 601Q1657 627 1596.0 643.5Q1535 660 1468.5 669.0Q1402 678 1336.5 681.0Q1271 684 1223 684Q1195 684 1162.5 684.0Q1130 684 1097.0 683.0Q1064 682 1031.5 680.0Q999 678 972 674Q939 669 939 636Q939 620 951.0 611.0Q963 602 977 602ZM882 1295Q882 1327 884.0 1360.0Q886 1393 888 1425Q889 1452 905.0 1476.5Q921 1501 944.0 1520.0Q967 1539 994.5 1550.5Q1022 1562 1048 1563Q987 1554 963.5 1522.0Q940 1490 940 1430Q940 1413 941.5 1395.5Q943 1378 945 1361L1007 899V894Q1007 878 996.5 868.5Q986 859 972 859Q958 859 948.0 867.5Q938 876 936 889L900 1160Q897 1179 894.0 1195.5Q891 1212 888.5 1227.5Q886 1243 884.0 1259.0Q882 1275 882 1295Z" style="fill:#d67d00;stroke:none" transform="scale(1,-1) translate(0,-256)" /></svg>