<?xml version="1.0" encoding="utf-8" ?>
<svg baseProfile="full" height="256" version="1.1" width="256" xmlns="http://www.w3.org/2000/svg" xmlns:ev="http://www.w3.org/2001/xml-events" xmlns:xlink="http://www.w3.org/1999/xlink"><defs /><path d="M760 1345Q774 1345 792.0 1342.5Q810 1340 827.0 1334.0Q844 1328 858.5 1318.0Q873 1308 881 1294Q883 1327 884.5 1359.5Q886 1392 888 1425Q890 1452 906.0 1477.0Q922 1502 945.0 1521.0Q968 1540 996.0 1551.5Q1024 1563 1050 1563Q1070 1563 1091.0 1558.0Q1112 1553 1131.5 1543.5Q1151 1534 1167.0 1520.0Q1183 1506 1193 1488L1192 1513Q1192 1563 1202.5 1602.5Q1213 1642 1236.0 1669.5Q1259 1697 1295.5 1711.5Q1332 1726 1385 1726Q1426 1726 1455.0 1706.5Q1484 1687 1503.0 1657.0Q1522 1627 1530.5 1590.0Q1539 1553 1539 1519Q1539 1511 1539.0 1503.5Q1539 1496 1538 1488Q1548 1509 1566.0 1524.5Q1584 1540 1606.0 1550.5Q1628 1561 1651.5 1566.5Q1675 1572 1697 1572Q1740 1572 1771.0 1553.5Q1802 1535 1821.0 1505.0Q1840 1475 1848.5 1437.0Q1857 1399 1856 1361L1843 809Q1865 842 1891.0 875.0Q1917 908 1947.0 934.5Q1977 961 2013.0 977.5Q2049 994 2092 994Q2132 994 2164.5 980.0Q2197 966 2220.0 941.0Q2243 916 2256.0 882.5Q2269 849 2269 810Q2269 786 2262.5 762.5Q2256 739 2242 719Q2223 693 2203.0 667.5Q2183 642 2164 616Q2126 565 2086.5 511.0Q2047 457 2008.5 401.0Q1970 345 1935.0 288.0Q1900 231 1872 174Q1828 87 1770.0 4.0Q1712 -79 1639.5 -144.0Q1567 -209 1478.0 -248.5Q1389 -288 1283 -288Q1183 -288 1093.0 -259.5Q1003 -231 927.0 -178.5Q851 -126 791.5 -52.0Q732 22 694 114Q668 177 653.5 241.5Q639 306 633 373Q620 514 612.5 654.0Q605 794 600 935Q598 989 597.5 1042.5Q597 1096 594 1150V1161Q594 1195 606.5 1228.0Q619 1261 641.5 1287.0Q664 1313 694.0 1329.0Q724 1345 760 1345Z" style="fill:#ffc83d;stroke:none" transform="scale(1,-1) translate(0,-256)" /></svg>