<?xml version="1.0" encoding="utf-8" ?>
<svg baseProfile="full" height="256" version="1.1" width="256" xmlns="http://www.w3.org/2000/svg" xmlns:ev="http://www.w3.org/2001/xml-events" xmlns:xlink="http://www.w3.org/1999/xlink"><defs /><path d="M1909 1006Q1938 1006 1959.5 985.0Q1981 964 1981 935V503Q1981 474 1959.5 452.5Q1938 431 1909 431Q1880 431 1858.5 452.5Q1837 474 1837 503V935Q1837 964 1858.5 985.0Q1880 1006 1909 1006ZM1550 719Q1550 689 1538.5 663.0Q1527 637 1507.5 617.5Q1488 598 1462.0 586.5Q1436 575 1406 575Q1376 575 1350.0 586.5Q1324 598 1304.5 617.5Q1285 637 1274.0 663.0Q1263 689 1263 719Q1263 749 1274.0 775.0Q1285 801 1304.5 820.5Q1324 840 1350.0 851.5Q1376 863 1406 863Q1436 863 1462.0 851.5Q1488 840 1507.5 820.5Q1527 801 1538.5 775.0Q1550 749 1550 719ZM831 935Q831 965 853.0 985.5Q875 1006 904 1006Q933 1006 954.5 985.0Q976 964 976 935V503Q976 474 954.5 452.5Q933 431 904 431Q875 431 853.0 452.0Q831 473 831 503ZM1942 1149Q1975 1149 2004.5 1137.0Q2034 1125 2056.5 1104.0Q2079 1083 2092.5 1054.5Q2106 1026 2106 992V444Q2106 410 2092.5 381.0Q2079 352 2056.5 331.0Q2034 310 2004.5 298.0Q1975 286 1942 286H870Q837 286 807.0 298.0Q777 310 754.5 331.0Q732 352 719.0 381.0Q706 410 706 444V992Q706 1026 719.0 1054.5Q732 1083 754.5 1104.0Q777 1125 807.0 1137.0Q837 1149 870 1149ZM1942 327Q1966 327 1988.5 336.0Q2011 345 2028.0 360.5Q2045 376 2055.0 397.5Q2065 419 2065 444V992Q2065 1017 2055.0 1038.5Q2045 1060 2028.0 1075.5Q2011 1091 1988.5 1099.5Q1966 1108 1942 1108H1739V327ZM1698 1108H1114V327H1698ZM870 1108Q846 1108 823.5 1099.5Q801 1091 784.0 1075.5Q767 1060 757.0 1038.5Q747 1017 747 992V444Q747 419 757.0 397.5Q767 376 784.0 360.5Q801 345 823.5 336.0Q846 327 870 327H1074V1108Z" style="fill:#ca0b4a;stroke:none" transform="scale(1,-1) translate(0,-256)" /></svg>