<?xml version="1.0" encoding="utf-8" ?>
<svg baseProfile="full" height="256" version="1.1" width="256" xmlns="http://www.w3.org/2000/svg" xmlns:ev="http://www.w3.org/2001/xml-events" xmlns:xlink="http://www.w3.org/1999/xlink"><defs /><path d="M2281 558Q2281 524 2305.5 501.0Q2330 478 2363 478Q2381 478 2396.5 472.0Q2412 466 2412 443V331Q2412 317 2403.5 308.5Q2395 300 2382 298Q2217 268 2184 105Q2181 90 2170.0 81.0Q2159 72 2143 72H669Q654 72 643.0 81.0Q632 90 629 105Q595 268 430 298Q417 300 408.5 308.5Q400 317 400 331V443Q400 467 416.0 472.5Q432 478 450 478Q483 478 507.5 501.0Q532 524 532 558Q532 592 508.0 615.5Q484 639 450 639Q432 639 416.0 644.5Q400 650 400 674V764Q400 776 404.5 782.5Q409 789 416.5 792.5Q424 796 432.5 797.0Q441 798 450 798Q485 798 508.5 821.5Q532 845 532 880Q532 897 525.0 911.5Q518 926 506.0 937.0Q494 948 478.5 954.0Q463 960 447 960Q430 960 415.0 966.0Q400 972 400 994V1105Q400 1119 408.5 1128.0Q417 1137 430 1139Q512 1156 562.0 1202.5Q612 1249 629 1332Q632 1347 642.5 1356.5Q653 1366 669 1366H2142Q2158 1366 2168.5 1356.5Q2179 1347 2182 1332Q2217 1168 2383 1138Q2396 1136 2404.5 1127.5Q2413 1119 2413 1105V994Q2413 982 2408.5 975.5Q2404 969 2396.5 965.5Q2389 962 2380.5 961.0Q2372 960 2363 960Q2328 960 2304.5 936.0Q2281 912 2281 877Q2281 843 2306.5 820.5Q2332 798 2365 798Q2382 798 2397.5 792.0Q2413 786 2413 764V674Q2413 651 2397.0 645.0Q2381 639 2363 639Q2329 639 2305.0 615.5Q2281 592 2281 558Z" style="fill:#f8312f;stroke:none" transform="scale(1,-1) translate(0,-256)" /></svg>