<?xml version="1.0" encoding="utf-8" ?>
<svg baseProfile="full" height="256" version="1.1" width="256" xmlns="http://www.w3.org/2000/svg" xmlns:ev="http://www.w3.org/2001/xml-events" xmlns:xlink="http://www.w3.org/1999/xlink"><defs /><path d="M1118 1070Q1191 1070 1255.0 1042.5Q1319 1015 1367.0 967.5Q1415 920 1442.5 856.0Q1470 792 1470 719Q1470 646 1442.5 582.0Q1415 518 1367.0 470.5Q1319 423 1255.0 395.5Q1191 368 1118 368Q1045 368 981.0 395.5Q917 423 869.5 470.5Q822 518 794.5 582.0Q767 646 767 719Q767 792 794.5 856.0Q822 920 869.5 967.5Q917 1015 981.0 1042.5Q1045 1070 1118 1070ZM1281 625Q1286 624 1291.0 624.0Q1296 624 1301 624Q1346 624 1376.0 648.0Q1406 672 1406 719Q1406 744 1397.0 762.0Q1388 780 1373.0 791.5Q1358 803 1338.5 808.5Q1319 814 1298 814Q1293 814 1289.5 814.0Q1286 814 1281 813Q1292 830 1301.0 847.0Q1310 864 1310 885Q1310 925 1282.0 953.0Q1254 981 1214 981Q1176 981 1154.0 960.0Q1132 939 1118 907Q1107 939 1082.5 960.0Q1058 981 1023 981Q983 981 955.0 953.0Q927 925 927 885Q927 864 936.0 847.0Q945 830 956 813Q951 814 946.0 814.0Q941 814 936 814Q891 814 861.0 790.0Q831 766 831 719Q831 694 840.0 676.0Q849 658 864.0 646.5Q879 635 898.5 629.5Q918 624 939 624Q944 624 947.5 624.0Q951 624 956 625Q944 608 935.5 591.0Q927 574 927 553Q927 513 955.0 485.0Q983 457 1023 457Q1058 457 1082.5 478.0Q1107 499 1118 531Q1132 499 1154.0 478.0Q1176 457 1214 457Q1254 457 1282.0 485.0Q1310 513 1310 553Q1310 574 1301.5 591.0Q1293 608 1281 625ZM1316 719Q1316 701 1298 701H1225Q1221 682 1211.5 665.0Q1202 648 1187 636Q1190 632 1196.5 622.0Q1203 612 1209.5 600.0Q1216 588 1221.0 578.0Q1226 568 1226 564Q1226 556 1221.0 550.5Q1216 545 1208 545Q1201 545 1193.5 554.5Q1186 564 1178.5 576.0Q1171 588 1165.0 600.0Q1159 612 1156 618Q1147 615 1137.5 613.0Q1128 611 1118 611Q1108 611 1099.0 613.0Q1090 615 1081 618Q1078 612 1072.0 600.0Q1066 588 1058.5 576.0Q1051 564 1043.5 554.5Q1036 545 1029 545Q1021 545 1016.0 550.5Q1011 556 1011 564Q1011 568 1016.0 578.0Q1021 588 1027.5 600.0Q1034 612 1040.5 622.0Q1047 632 1050 636Q1035 648 1025.5 665.0Q1016 682 1012 701H939Q921 701 921 719Q921 737 939 737H1012Q1016 756 1025.5 773.0Q1035 790 1050 802Q1047 806 1040.5 816.0Q1034 826 1027.5 838.0Q1021 850 1016.0 860.0Q1011 870 1011 874Q1011 892 1029 892Q1036 892 1044.0 883.0Q1052 874 1059.0 862.0Q1066 850 1072.0 838.0Q1078 826 1081 820Q1090 823 1099.0 825.0Q1108 827 1118 827Q1128 827 1137.5 825.0Q1147 823 1156 820Q1159 826 1165.0 838.0Q1171 850 1178.0 862.0Q1185 874 1192.5 883.0Q1200 892 1208 892Q1226 892 1226 874Q1226 870 1221.0 860.0Q1216 850 1209.5 838.0Q1203 826 1196.5 816.0Q1190 806 1187 802Q1202 790 1211.5 773.0Q1221 756 1225 737H1298Q1316 737 1316 719ZM1118 647Q1148 647 1169.0 668.0Q1190 689 1190 719Q1190 749 1169.0 770.0Q1148 791 1118 791Q1089 791 1068.0 769.5Q1047 748 1047 719Q1047 690 1068.0 668.5Q1089 647 1118 647Z" style="fill:#5a93cb;stroke:none" transform="scale(1,-1) translate(0,-256)" /></svg>