<?xml version="1.0" encoding="utf-8" ?>
<svg baseProfile="full" height="256" version="1.1" width="256" xmlns="http://www.w3.org/2000/svg" xmlns:ev="http://www.w3.org/2001/xml-events" xmlns:xlink="http://www.w3.org/1999/xlink"><defs /><path d="M1118 1366Q1207 1366 1290.0 1343.0Q1373 1320 1444.5 1277.5Q1516 1235 1575.0 1176.0Q1634 1117 1676.5 1045.5Q1719 974 1742.0 891.0Q1765 808 1765 719Q1765 630 1742.0 547.0Q1719 464 1676.5 392.5Q1634 321 1575.0 262.0Q1516 203 1444.5 160.5Q1373 118 1290.0 95.0Q1207 72 1118 72Q984 72 866.5 123.0Q749 174 661.0 261.5Q573 349 522.5 467.0Q472 585 472 719Q472 853 522.5 971.0Q573 1089 661.0 1176.5Q749 1264 866.5 1315.0Q984 1366 1118 1366ZM1118 611Q1140 611 1160.0 619.5Q1180 628 1194.5 642.5Q1209 657 1217.5 676.5Q1226 696 1226 719Q1226 741 1217.5 760.5Q1209 780 1194.0 795.0Q1179 810 1159.5 818.5Q1140 827 1118 827Q1096 827 1076.5 818.5Q1057 810 1042.5 795.0Q1028 780 1019.5 760.5Q1011 741 1011 719Q1011 697 1019.5 677.5Q1028 658 1042.0 643.0Q1056 628 1075.5 619.5Q1095 611 1118 611ZM762 327Q775 327 785.0 335.0Q795 343 801.5 355.0Q808 367 811.0 380.5Q814 394 814 405V414Q811 414 808.5 414.5Q806 415 803 415Q792 415 778.5 412.0Q765 409 753.5 402.5Q742 396 734.0 386.0Q726 376 726 363Q726 349 737.0 338.0Q748 327 762 327ZM1554 431Q1570 431 1580.0 442.0Q1590 453 1590 468Q1590 480 1584.5 488.0Q1579 496 1570.0 501.0Q1561 506 1550.5 508.0Q1540 510 1530 510Q1520 510 1510.5 508.0Q1501 506 1492 503Q1494 492 1499.0 479.5Q1504 467 1512.5 456.5Q1521 446 1531.5 438.5Q1542 431 1554 431ZM683 431Q695 431 705.5 438.5Q716 446 724.5 456.5Q733 467 738.0 479.5Q743 492 745 503Q736 506 726.5 508.0Q717 510 707 510Q697 510 686.5 508.0Q676 506 667.0 501.0Q658 496 652.5 488.0Q647 480 647 468Q647 453 657.0 442.0Q667 431 683 431ZM903 1092Q906 1101 908.0 1110.0Q910 1119 910 1128Q910 1138 908.0 1149.0Q906 1160 900.5 1169.5Q895 1179 887.0 1185.0Q879 1191 867 1191Q853 1191 842.0 1180.0Q831 1169 831 1155Q831 1143 838.0 1132.0Q845 1121 856.0 1113.0Q867 1105 879.5 1099.5Q892 1094 903 1092ZM814 1033Q814 1044 811.0 1057.5Q808 1071 801.5 1082.5Q795 1094 785.0 1102.0Q775 1110 762 1110Q748 1110 737.0 1099.0Q726 1088 726 1074Q726 1061 734.0 1051.5Q742 1042 753.5 1035.5Q765 1029 778.0 1026.0Q791 1023 802 1023Q805 1023 808.0 1023.5Q811 1024 814 1024ZM579 719Q579 704 589.5 693.5Q600 683 615 683Q636 683 654.5 692.5Q673 702 687 719Q673 736 654.5 745.5Q636 755 615 755Q600 755 589.5 744.5Q579 734 579 719ZM988 197Q1009 197 1017.5 212.0Q1026 227 1026 246Q1026 277 1007 302Q987 293 969.5 274.0Q952 255 952 232Q952 218 963.0 207.5Q974 197 988 197ZM1249 197Q1263 197 1274.0 207.5Q1285 218 1285 232Q1285 255 1267.5 274.0Q1250 293 1230 302Q1211 277 1211 246Q1211 227 1219.5 212.0Q1228 197 1249 197ZM988 1241Q974 1241 963.0 1230.5Q952 1220 952 1206Q952 1183 969.5 1164.0Q987 1145 1007 1136Q1026 1161 1026 1192Q1026 1210 1017.5 1225.5Q1009 1241 988 1241ZM1230 1136Q1250 1145 1267.5 1164.0Q1285 1183 1285 1206Q1285 1220 1274.0 1230.5Q1263 1241 1249 1241Q1228 1241 1219.5 1225.5Q1211 1210 1211 1192Q1211 1161 1230 1136ZM1334 1092Q1344 1094 1357.0 1099.5Q1370 1105 1380.5 1113.5Q1391 1122 1398.5 1132.5Q1406 1143 1406 1155Q1406 1169 1395.0 1180.0Q1384 1191 1370 1191Q1358 1191 1350.0 1185.0Q1342 1179 1336.5 1169.5Q1331 1160 1329.0 1149.0Q1327 1138 1327 1128Q1327 1119 1329.0 1110.0Q1331 1101 1334 1092ZM1474 327Q1488 327 1499.0 338.0Q1510 349 1510 363Q1510 376 1502.0 386.0Q1494 396 1482.5 402.5Q1471 409 1458.0 412.0Q1445 415 1434 415Q1431 415 1428.5 414.5Q1426 414 1423 414V405Q1423 394 1426.0 380.5Q1429 367 1435.5 355.0Q1442 343 1451.5 335.0Q1461 327 1474 327ZM1370 247Q1384 247 1395.0 258.0Q1406 269 1406 283Q1406 296 1399.0 306.5Q1392 317 1381.0 325.0Q1370 333 1357.5 338.0Q1345 343 1334 345Q1327 326 1327 309Q1327 299 1329.5 288.0Q1332 277 1337.0 268.0Q1342 259 1350.0 253.0Q1358 247 1370 247ZM867 247Q879 247 887.0 253.0Q895 259 900.0 268.0Q905 277 907.5 288.0Q910 299 910 309Q910 326 903 345Q892 343 879.5 338.0Q867 333 856.0 325.0Q845 317 838.0 306.5Q831 296 831 283Q831 269 842.0 258.0Q853 247 867 247ZM1554 1007Q1542 1007 1531.5 999.5Q1521 992 1513.0 981.5Q1505 971 1499.5 958.0Q1494 945 1492 935Q1501 932 1510.5 930.0Q1520 928 1530 928Q1540 928 1550.5 930.0Q1561 932 1570.0 937.0Q1579 942 1584.5 950.0Q1590 958 1590 970Q1590 984 1579.5 995.5Q1569 1007 1554 1007ZM683 1007Q668 1007 657.5 995.5Q647 984 647 970Q647 958 652.5 950.0Q658 942 667.0 937.0Q676 932 686.5 930.0Q697 928 707 928Q717 928 726.5 930.0Q736 932 745 935Q743 945 737.5 958.0Q732 971 724.0 981.5Q716 992 705.5 999.5Q695 1007 683 1007ZM1622 683Q1636 683 1647.0 694.0Q1658 705 1658 719Q1658 733 1647.0 744.0Q1636 755 1622 755Q1601 755 1582.5 745.5Q1564 736 1550 719Q1564 702 1582.5 692.5Q1601 683 1622 683ZM1640 849Q1640 864 1629.5 874.5Q1619 885 1604 885Q1582 885 1563.0 867.5Q1544 850 1535 831Q1548 822 1562.5 816.5Q1577 811 1593 811Q1610 811 1625.0 820.0Q1640 829 1640 849ZM633 885Q618 885 607.5 874.5Q597 864 597 849Q597 829 612.0 820.0Q627 811 644 811Q660 811 674.5 816.5Q689 822 702 831Q693 850 674.0 867.5Q655 885 633 885ZM1474 1110Q1461 1110 1451.5 1102.0Q1442 1094 1435.5 1082.5Q1429 1071 1426.0 1057.5Q1423 1044 1423 1033V1024Q1426 1024 1429.0 1023.5Q1432 1023 1435 1023Q1446 1023 1459.0 1026.0Q1472 1029 1483.5 1035.5Q1495 1042 1502.5 1051.5Q1510 1061 1510 1074Q1510 1089 1499.5 1099.5Q1489 1110 1474 1110ZM1604 553Q1619 553 1629.5 563.5Q1640 574 1640 589Q1640 610 1624.5 618.0Q1609 626 1591 626Q1560 626 1535 607Q1544 588 1563.0 570.5Q1582 553 1604 553ZM597 589Q597 574 607.5 563.5Q618 553 633 553Q655 553 674.0 570.5Q693 588 702 607Q677 626 646 626Q628 626 612.5 618.0Q597 610 597 589ZM1118 180Q1133 180 1143.5 190.5Q1154 201 1154 216Q1154 237 1144.5 255.5Q1135 274 1118 288Q1103 274 1093.0 255.5Q1083 237 1083 216Q1083 202 1093.5 191.0Q1104 180 1118 180ZM1118 1258Q1104 1258 1093.5 1247.0Q1083 1236 1083 1222Q1083 1201 1093.0 1182.5Q1103 1164 1118 1150Q1135 1164 1144.5 1182.5Q1154 1201 1154 1222Q1154 1237 1143.5 1247.5Q1133 1258 1118 1258Z" style="fill:#b4acbc;stroke:none" transform="scale(1,-1) translate(0,-256)" /></svg>