<?xml version="1.0" encoding="utf-8" ?>
<svg baseProfile="full" height="256" version="1.1" width="256" xmlns="http://www.w3.org/2000/svg" xmlns:ev="http://www.w3.org/2001/xml-events" xmlns:xlink="http://www.w3.org/1999/xlink"><defs /><path d="M1909 962Q1909 907 1888.0 856.0Q1867 805 1829 766Q1886 721 1917.5 655.0Q1949 589 1949 517Q1949 451 1924.0 393.0Q1899 335 1855.5 291.5Q1812 248 1754.0 223.0Q1696 198 1630 198Q1564 198 1506.0 223.0Q1448 248 1404.5 291.5Q1361 335 1336.0 393.0Q1311 451 1311 517Q1311 589 1342.5 655.0Q1374 721 1431 766Q1393 805 1372.0 856.0Q1351 907 1351 962Q1351 1020 1373.0 1070.5Q1395 1121 1433.0 1159.0Q1471 1197 1521.5 1219.0Q1572 1241 1630 1241Q1688 1241 1738.5 1219.0Q1789 1197 1827.0 1159.0Q1865 1121 1887.0 1070.5Q1909 1020 1909 962ZM1630 845Q1654 845 1675.5 854.5Q1697 864 1712.5 879.5Q1728 895 1737.5 916.5Q1747 938 1747 962Q1747 986 1737.5 1007.5Q1728 1029 1712.5 1044.5Q1697 1060 1675.5 1069.5Q1654 1079 1630 1079Q1606 1079 1584.5 1070.0Q1563 1061 1547.0 1045.0Q1531 1029 1522.0 1007.5Q1513 986 1513 962Q1513 938 1522.0 916.5Q1531 895 1547.0 879.0Q1563 863 1584.5 854.0Q1606 845 1630 845ZM1630 396Q1655 396 1677.0 405.5Q1699 415 1715.5 431.5Q1732 448 1741.5 470.0Q1751 492 1751 517Q1751 542 1741.5 564.0Q1732 586 1715.5 602.5Q1699 619 1677.0 628.5Q1655 638 1630 638Q1605 638 1582.5 628.5Q1560 619 1543.5 602.5Q1527 586 1517.5 564.0Q1508 542 1508 517Q1508 492 1517.5 470.0Q1527 448 1543.5 431.5Q1560 415 1582.5 405.5Q1605 396 1630 396ZM1230 1126Q1230 1164 1204.5 1190.0Q1179 1216 1141 1216Q1105 1216 1078 1191L880 1002Q852 976 852 937Q852 900 878.5 873.5Q905 847 942 847Q960 847 975.0 853.5Q990 860 1003.0 870.0Q1016 880 1027.5 892.5Q1039 905 1051 916V315Q1051 278 1077.5 252.0Q1104 226 1141 226Q1178 226 1204.0 252.0Q1230 278 1230 315Z" style="fill:#000000;stroke:none" transform="scale(1,-1) translate(0,-256)" /></svg>