<?xml version="1.0" encoding="utf-8" ?>
<svg baseProfile="full" height="256" version="1.1" width="256" xmlns="http://www.w3.org/2000/svg" xmlns:ev="http://www.w3.org/2001/xml-events" xmlns:xlink="http://www.w3.org/1999/xlink"><defs /><path d="M975 1078Q975 1049 953.5 1027.5Q932 1006 903 1006Q874 1006 852.5 1027.5Q831 1049 831 1078Q831 1108 852.0 1129.0Q873 1150 903 1150Q933 1150 954.0 1129.0Q975 1108 975 1078ZM2053 503H1909V-144H2053ZM615 431H472V216H615ZM1693 1006Q1722 1006 1743.5 1027.5Q1765 1049 1765 1078Q1765 1108 1744.0 1129.0Q1723 1150 1693 1150Q1664 1150 1643.0 1128.5Q1622 1107 1622 1078Q1622 1049 1643.0 1027.5Q1664 1006 1693 1006Z" style="fill:#9b9b9b;stroke:none" transform="scale(1,-1) translate(0,-256)" /></svg>