<?xml version="1.0" encoding="utf-8" ?>
<svg baseProfile="full" height="256" version="1.1" width="256" xmlns="http://www.w3.org/2000/svg" xmlns:ev="http://www.w3.org/2001/xml-events" xmlns:xlink="http://www.w3.org/1999/xlink"><defs /><path d="M1406 863Q1371 910 1352.5 965.0Q1334 1020 1334 1078Q1334 1152 1362.0 1217.5Q1390 1283 1439.0 1332.0Q1488 1381 1553.0 1409.5Q1618 1438 1693 1438Q1768 1438 1833.5 1409.5Q1899 1381 1947.5 1332.5Q1996 1284 2024.5 1218.5Q2053 1153 2053 1078Q2053 1003 2024.5 938.0Q1996 873 1947.0 824.0Q1898 775 1832.5 747.0Q1767 719 1693 719V647H1765Q1810 647 1847.0 621.5Q1884 596 1900 553Q1906 537 1906.5 533.5Q1907 530 1906.5 528.5Q1906 527 1905.5 523.0Q1905 519 1909 503L1981 180L1909 -144Q1906 -160 1906.0 -164.0Q1906 -168 1906.5 -169.5Q1907 -171 1906.5 -175.0Q1906 -179 1900 -194Q1884 -236 1847.0 -261.5Q1810 -287 1765 -287H759Q729 -287 703.0 -276.0Q677 -265 657.5 -245.5Q638 -226 626.5 -200.0Q615 -174 615 -144V96Q615 131 616.5 156.0Q618 181 615 216Q615 217 610.0 232.5Q605 248 598.5 267.5Q592 287 586.0 304.0Q580 321 579 324Q587 349 598.5 377.0Q610 405 615 431Q615 432 615.0 442.5Q615 453 615.0 465.5Q615 478 615.0 489.0Q615 500 615 503Q615 533 626.5 559.0Q638 585 657.5 604.5Q677 624 703.0 635.5Q729 647 759 647H831V726Q768 739 715.5 771.5Q663 804 624.5 850.5Q586 897 564.5 955.5Q543 1014 543 1078Q543 1153 571.5 1218.5Q600 1284 648.5 1332.5Q697 1381 762.5 1409.5Q828 1438 903 1438Q978 1438 1043.0 1409.5Q1108 1381 1157.0 1332.0Q1206 1283 1234.0 1217.5Q1262 1152 1262 1078Q1262 1020 1243.5 965.0Q1225 910 1190 863ZM400 467Q400 482 410.5 492.5Q421 503 436 503Q454 503 461.0 495.0Q468 487 469.5 476.0Q471 465 470.5 452.5Q470 440 472 431Q479 405 489.0 377.5Q499 350 508 324Q505 313 499.5 299.0Q494 285 488.5 270.0Q483 255 478.0 240.5Q473 226 472 216Q470 206 470.0 192.0Q470 178 470.5 163.0Q471 148 471.5 133.5Q472 119 472 108Q472 94 461.0 83.0Q450 72 436 72Q421 72 410.5 82.5Q400 93 400 108ZM2053 495Q2058 518 2063.5 532.5Q2069 547 2093 559L2308 667Q2324 675 2340 675Q2370 675 2391.0 653.5Q2412 632 2412 603V-243Q2412 -272 2391.0 -293.5Q2370 -315 2340 -315Q2324 -315 2308 -307L2093 -199Q2069 -187 2063.5 -172.5Q2058 -158 2053 -135L1981 180Z" style="fill:#635994;stroke:none" transform="scale(1,-1) translate(0,-256)" /></svg>