<?xml version="1.0" encoding="utf-8" ?>
<svg baseProfile="full" height="256" version="1.1" width="256" xmlns="http://www.w3.org/2000/svg" xmlns:ev="http://www.w3.org/2001/xml-events" xmlns:xlink="http://www.w3.org/1999/xlink"><defs /><path d="M2412 683Q2412 589 2387.5 501.5Q2363 414 2318.5 338.0Q2274 262 2212.0 200.0Q2150 138 2074.0 93.5Q1998 49 1910.5 24.5Q1823 0 1729 0H975V505Q913 512 860.5 540.0Q808 568 769.5 611.0Q731 654 709.0 709.5Q687 765 687 827V863H853Q889 863 919.0 882.5Q949 902 964 935L651 1078L428 1435Q436 1442 445.5 1447.5Q455 1453 466 1456L979 1596Q1021 1607 1063 1607Q1095 1607 1126.5 1600.5Q1158 1594 1188 1582Q1201 1614 1229.5 1633.5Q1258 1653 1293 1653Q1317 1653 1337.5 1644.0Q1358 1635 1373.0 1620.0Q1388 1605 1397.0 1584.5Q1406 1564 1406 1540Q1406 1510 1390.0 1483.5Q1374 1457 1348 1443Q1358 1428 1368.0 1414.5Q1378 1401 1390.0 1390.0Q1402 1379 1417.0 1372.5Q1432 1366 1452 1366H1729Q1823 1366 1910.5 1341.5Q1998 1317 2074.0 1272.5Q2150 1228 2212.0 1166.0Q2274 1104 2318.5 1028.0Q2363 952 2387.5 864.5Q2412 777 2412 683Z" style="fill:#a56953;stroke:none" transform="scale(1,-1) translate(0,-256)" /></svg>