<?xml version="1.0" encoding="utf-8" ?>
<svg baseProfile="full" height="256" version="1.1" width="256" xmlns="http://www.w3.org/2000/svg" xmlns:ev="http://www.w3.org/2001/xml-events" xmlns:xlink="http://www.w3.org/1999/xlink"><defs /><path d="M2197 185Q2197 102 2165.5 29.0Q2134 -44 2079.5 -98.0Q2025 -152 1952.0 -183.5Q1879 -215 1796 -215H867Q798 -215 739.0 -189.0Q680 -163 636.5 -118.5Q593 -74 568.0 -14.0Q543 46 543 114Q543 181 570.0 238.5Q597 296 642.0 339.0Q687 382 746.5 406.5Q806 431 871 431Q900 431 926.5 426.0Q953 421 979 411L1741 135Q1829 104 1918 104Q1992 104 2063.0 124.5Q2134 145 2197 185Z" style="fill:#533566;stroke:none" transform="scale(1,-1) translate(0,-256)" /></svg>