<?xml version="1.0" encoding="utf-8" ?>
<svg baseProfile="full" height="256" version="1.1" width="256" xmlns="http://www.w3.org/2000/svg" xmlns:ev="http://www.w3.org/2001/xml-events" xmlns:xlink="http://www.w3.org/1999/xlink"><defs /><path d="M1396 1599V990H1324V1035H912V988H841V1599ZM912 1169V1107H1324V1206H1220Q1191 1206 1173.5 1224.5Q1156 1243 1156 1272V1528H1080V1513Q1080 1453 1077.5 1403.0Q1075 1353 1062.5 1309.0Q1050 1265 1024.0 1223.5Q998 1182 951 1139ZM1008 1528H912V1202Q967 1253 987.5 1314.0Q1008 1375 1008 1447ZM1324 1279V1528H1228V1279Z" style="fill:#007356;stroke:none" transform="scale(1,-1) translate(0,-256)" /></svg>