<?xml version="1.0" encoding="utf-8" ?>
<svg baseProfile="full" height="256" version="1.1" width="256" xmlns="http://www.w3.org/2000/svg" xmlns:ev="http://www.w3.org/2001/xml-events" xmlns:xlink="http://www.w3.org/1999/xlink"><defs /><path d="M1190 1725Q1279 1725 1358.0 1691.0Q1437 1657 1495.5 1598.5Q1554 1540 1588.0 1461.5Q1622 1383 1622 1294V1078H1442V1294Q1442 1346 1422.0 1392.0Q1402 1438 1368.0 1472.0Q1334 1506 1288.0 1526.0Q1242 1546 1190 1546Q1138 1546 1092.0 1526.0Q1046 1506 1012.0 1472.0Q978 1438 958.5 1392.0Q939 1346 939 1294V1078H759V1294Q759 1383 793.0 1461.5Q827 1540 885.5 1598.5Q944 1657 1022.5 1691.0Q1101 1725 1190 1725ZM1693 288V719H2340V288Q2340 272 2335.0 251.0Q2330 230 2322 216L2089 -215Q2080 -232 2069.0 -249.0Q2058 -266 2042 -277Q2043 -276 2043 -274Q2043 -270 2039.0 -262.0Q2035 -254 2030.0 -245.0Q2025 -236 2021.0 -228.0Q2017 -220 2017 -215Q2017 -220 2012.0 -229.0Q2007 -238 2001.5 -247.5Q1996 -257 1992.5 -265.5Q1989 -274 1991 -277Q1976 -265 1965.0 -248.5Q1954 -232 1945 -215L1711 216Q1703 230 1698.0 251.0Q1693 272 1693 288Z" style="fill:#9b9b9b;stroke:none" transform="scale(1,-1) translate(0,-256)" /></svg>