<?xml version="1.0" encoding="utf-8" ?>
<svg baseProfile="full" height="256" version="1.1" width="256" xmlns="http://www.w3.org/2000/svg" xmlns:ev="http://www.w3.org/2001/xml-events" xmlns:xlink="http://www.w3.org/1999/xlink"><defs /><path d="M1298 144Q1298 121 1289.5 101.5Q1281 82 1266.5 67.5Q1252 53 1232.0 44.5Q1212 36 1190 36Q1167 36 1147.5 44.5Q1128 53 1114.0 68.0Q1100 83 1091.5 102.5Q1083 122 1083 144V395Q1049 421 1030.0 458.5Q1011 496 1011 539Q1011 576 1025.0 609.0Q1039 642 1063.5 666.5Q1088 691 1120.5 705.0Q1153 719 1190 719Q1227 719 1260.0 705.0Q1293 691 1317.5 666.5Q1342 642 1356.0 609.0Q1370 576 1370 539Q1370 496 1351.0 458.5Q1332 421 1298 395Z" style="fill:#433b6b;stroke:none" transform="scale(1,-1) translate(0,-256)" /></svg>