<?xml version="1.0" encoding="utf-8" ?>
<svg baseProfile="full" height="256" version="1.1" width="256" xmlns="http://www.w3.org/2000/svg" xmlns:ev="http://www.w3.org/2001/xml-events" xmlns:xlink="http://www.w3.org/1999/xlink"><defs /><path d="M2053 -251Q2053 -266 2042.5 -276.5Q2032 -287 2017 -287Q2002 -287 1991.5 -276.5Q1981 -266 1981 -251V222Q1949 233 1929.0 261.0Q1909 289 1909 324Q1909 346 1917.5 366.0Q1926 386 1941.0 400.0Q1956 414 1975.5 422.5Q1995 431 2017 431Q2039 431 2058.5 422.5Q2078 414 2093.0 399.5Q2108 385 2116.5 365.5Q2125 346 2125 324Q2125 289 2105.0 261.0Q2085 233 2053 222Z" style="fill:#636363;stroke:none" transform="scale(1,-1) translate(0,-256)" /></svg>