<?xml version="1.0" encoding="utf-8" ?>
<svg baseProfile="full" height="256" version="1.1" width="256" xmlns="http://www.w3.org/2000/svg" xmlns:ev="http://www.w3.org/2001/xml-events" xmlns:xlink="http://www.w3.org/1999/xlink"><defs /><path d="M900 1275H901V943Q901 905 923.0 874.5Q945 844 980 830L1162 760L1085 559L902 628Q855 646 815.5 677.0Q776 708 747.5 748.5Q719 789 703.0 836.5Q687 884 686 935Q626 939 573.5 965.0Q521 991 482.5 1032.5Q444 1074 422.0 1128.0Q400 1182 400 1243V1474Q400 1520 415.0 1561.5Q430 1603 457.5 1636.0Q485 1669 522.5 1692.0Q560 1715 605 1724Q607 1725 612 1725Q628 1725 639.5 1713.5Q651 1702 651 1686V1481Q651 1462 663.5 1449.0Q676 1436 695 1436H721Q755 1436 786.0 1423.5Q817 1411 841.0 1389.5Q865 1368 880.5 1338.5Q896 1309 900 1275Z" style="fill:#f8312f;stroke:none" transform="scale(1,-1) translate(0,-256)" /></svg>