<?xml version="1.0" encoding="utf-8" ?>
<svg baseProfile="full" height="256" version="1.1" width="256" xmlns="http://www.w3.org/2000/svg" xmlns:ev="http://www.w3.org/2001/xml-events" xmlns:xlink="http://www.w3.org/1999/xlink"><defs /><path d="M1107 378Q1099 378 1076.0 383.5Q1053 389 1026.5 396.5Q1000 404 975.5 411.0Q951 418 940 421Q909 429 886.0 450.5Q863 472 852 503Q847 518 837.5 540.5Q828 563 828 578Q828 593 838.5 604.0Q849 615 864 615Q886 615 894.5 598.0Q903 581 909.0 559.0Q915 537 925.0 517.0Q935 497 960 490L1116 449Q1128 446 1135.0 436.0Q1142 426 1142 414Q1142 400 1132.0 389.0Q1122 378 1107 378ZM1701 372Q1687 372 1676.0 382.5Q1665 393 1665 407Q1665 419 1672.5 429.0Q1680 439 1691 442L1848 484Q1873 491 1882.5 511.0Q1892 531 1898.5 552.5Q1905 574 1913.0 591.0Q1921 608 1943 608Q1957 608 1968.0 598.0Q1979 588 1979 573Q1979 555 1970.5 534.5Q1962 514 1956 497Q1946 468 1921.0 445.0Q1896 422 1867 414Q1856 411 1832.0 404.5Q1808 398 1781.0 390.5Q1754 383 1731.0 377.5Q1708 372 1701 372ZM1303 83Q1325 83 1345.5 74.5Q1366 66 1382 51V50Q1389 43 1394.5 35.5Q1400 28 1404 19Q1418 48 1445.0 65.5Q1472 83 1504 83Q1551 83 1583 51L1731 -98Q1763 -130 1763 -176Q1763 -199 1754.0 -219.0Q1745 -239 1730.0 -254.0Q1715 -269 1695.0 -278.0Q1675 -287 1652 -287Q1630 -287 1609.5 -279.0Q1589 -271 1573 -255L1425 -107Q1412 -94 1404 -76Q1400 -85 1394.5 -92.5Q1389 -100 1382 -107L1234 -255Q1202 -287 1156 -287Q1134 -287 1113.5 -278.5Q1093 -270 1077 -255V-254Q1045 -222 1045 -176Q1045 -130 1077 -98L1225 51Q1257 83 1303 83ZM1805 0Q1770 0 1744.5 9.5Q1719 19 1698.0 35.5Q1677 52 1658.0 73.5Q1639 95 1617 119Q1607 131 1607 144Q1607 158 1617.0 169.0Q1627 180 1643 180Q1661 180 1675.5 163.5Q1690 147 1708.0 126.5Q1726 106 1749.0 89.5Q1772 73 1806 73Q1817 73 1834.0 74.5Q1851 76 1867.5 74.0Q1884 72 1896.0 64.0Q1908 56 1908 37Q1908 23 1896.5 11.5Q1885 0 1871 0ZM1915 288H1650Q1636 288 1625.0 299.0Q1614 310 1614 324Q1614 339 1624.5 349.5Q1635 360 1650 360H1915Q1958 360 1983.0 380.5Q2008 401 2024.0 426.0Q2040 451 2053.0 471.5Q2066 492 2086 492Q2101 492 2112.0 481.0Q2123 470 2123 456Q2123 448 2117.0 436.5Q2111 425 2103.5 413.0Q2096 401 2088.0 390.0Q2080 379 2076 373Q2050 332 2006.5 310.0Q1963 288 1915 288ZM1912 142Q1885 142 1861 148L1606 217Q1595 220 1587.5 229.5Q1580 239 1580 251Q1580 265 1590.5 276.0Q1601 287 1615 287Q1621 287 1624 286L1880 217Q1893 213 1912 213Q1943 213 1964.0 225.0Q1985 237 2001.0 251.5Q2017 266 2030.5 278.0Q2044 290 2059 290Q2073 290 2083.5 279.0Q2094 268 2094 254Q2094 240 2082 228Q2061 209 2043.0 193.5Q2025 178 2005.5 166.5Q1986 155 1963.5 148.5Q1941 142 1912 142ZM1003 7H937Q922 7 911.5 17.5Q901 28 901 43Q901 62 912.5 70.0Q924 78 940.0 80.0Q956 82 973.5 80.5Q991 79 1002 79Q1036 79 1059.0 95.5Q1082 112 1100.0 132.5Q1118 153 1132.5 169.5Q1147 186 1165 186Q1180 186 1190.5 175.5Q1201 165 1201 150Q1201 137 1191 125Q1169 102 1149.5 80.5Q1130 59 1109.0 42.5Q1088 26 1062.5 16.5Q1037 7 1003 7ZM893 295Q846 295 802.0 317.0Q758 339 732 379Q728 385 720.0 396.5Q712 408 704.5 420.0Q697 432 691.0 443.5Q685 455 685 462Q685 477 695.5 487.5Q706 498 720 498Q741 498 753.5 477.5Q766 457 782.0 432.5Q798 408 823.0 387.5Q848 367 893 367H1157Q1171 367 1182.0 356.0Q1193 345 1193 331Q1193 316 1182.5 305.5Q1172 295 1157 295ZM896 149Q866 149 843.5 155.5Q821 162 801.5 173.5Q782 185 764.0 200.5Q746 216 725 235Q714 246 714 261Q714 276 724.0 286.5Q734 297 749 297Q764 297 777.0 285.0Q790 273 806.0 258.5Q822 244 843.5 232.0Q865 220 896 220Q915 220 928 224L1183 293Q1186 294 1192 294Q1207 294 1217.5 283.5Q1228 273 1228 258Q1228 246 1221.0 236.5Q1214 227 1202 224L947 155Q923 149 896 149Z" style="fill:#ca0b4a;stroke:none" transform="scale(1,-1) translate(0,-256)" /></svg>