<?xml version="1.0" encoding="utf-8" ?>
<svg baseProfile="full" height="256" version="1.1" width="256" xmlns="http://www.w3.org/2000/svg" xmlns:ev="http://www.w3.org/2001/xml-events" xmlns:xlink="http://www.w3.org/1999/xlink"><defs /><path d="M1334 961Q1334 938 1318.5 922.5Q1303 907 1280 907Q1257 907 1241.5 922.5Q1226 938 1226 961Q1226 984 1241.5 999.5Q1257 1015 1280 1015Q1303 1015 1318.5 999.5Q1334 984 1334 961ZM1581 961Q1581 938 1565.5 922.5Q1550 907 1527 907Q1504 907 1489.0 923.0Q1474 939 1474 961Q1474 983 1489.0 999.0Q1504 1015 1527 1015Q1550 1015 1565.5 999.5Q1581 984 1581 961Z" style="fill:#1c1c1c;stroke:none" transform="scale(1,-1) translate(0,-256)" /></svg>