<?xml version="1.0" encoding="utf-8" ?>
<svg baseProfile="full" height="256" version="1.1" width="256" xmlns="http://www.w3.org/2000/svg" xmlns:ev="http://www.w3.org/2001/xml-events" xmlns:xlink="http://www.w3.org/1999/xlink"><defs /><path d="M1404 307Q1482 307 1552.0 335.5Q1622 364 1676.0 414.0Q1730 464 1763.5 531.5Q1797 599 1803 677Q1804 667 1804.0 657.0Q1804 647 1804 637Q1804 586 1796.0 535.5Q1788 485 1773 436L1591 -149Q1582 -180 1563.0 -205.5Q1544 -231 1519.5 -249.0Q1495 -267 1465.0 -277.0Q1435 -287 1403 -287Q1371 -287 1341.5 -276.5Q1312 -266 1287.0 -247.5Q1262 -229 1244.0 -203.0Q1226 -177 1216 -146L1034 436Q1019 486 1011.5 537.5Q1004 589 1004 640Q1004 650 1004.0 659.0Q1004 668 1005 677Q1011 599 1044.5 531.0Q1078 463 1132.0 413.5Q1186 364 1256.0 335.5Q1326 307 1404 307Z" style="fill:#ca0b4a;stroke:none" transform="scale(1,-1) translate(0,-256)" /></svg>