<?xml version="1.0" encoding="utf-8" ?>
<svg baseProfile="full" height="256" version="1.1" width="256" xmlns="http://www.w3.org/2000/svg" xmlns:ev="http://www.w3.org/2001/xml-events" xmlns:xlink="http://www.w3.org/1999/xlink"><defs /><path d="M1295 917Q1280 917 1269.5 927.5Q1259 938 1259 953V1546Q1259 1568 1250.5 1587.5Q1242 1607 1227.5 1621.5Q1213 1636 1193.5 1644.5Q1174 1653 1152 1653Q1130 1653 1110.5 1644.5Q1091 1636 1076.0 1621.5Q1061 1607 1052.5 1587.5Q1044 1568 1044 1546H1045Q1045 1531 1034.5 1520.5Q1024 1510 1009 1510Q994 1510 983.5 1520.5Q973 1531 973 1546Q973 1583 987.0 1615.5Q1001 1648 1025.5 1672.5Q1050 1697 1082.5 1711.0Q1115 1725 1152 1725Q1189 1725 1221.5 1711.0Q1254 1697 1278.5 1672.5Q1303 1648 1317.0 1615.5Q1331 1583 1331 1546V954Q1331 939 1320.5 928.0Q1310 917 1295 917ZM1512 917Q1496 917 1486.0 928.0Q1476 939 1476 954V1546Q1476 1583 1490.0 1615.5Q1504 1648 1528.5 1672.5Q1553 1697 1585.5 1711.0Q1618 1725 1655 1725Q1692 1725 1724.5 1711.0Q1757 1697 1781.5 1672.5Q1806 1648 1820.0 1615.5Q1834 1583 1834 1546Q1834 1530 1824.0 1520.0Q1814 1510 1798 1510Q1783 1510 1772.5 1520.5Q1762 1531 1762 1546Q1762 1568 1753.5 1587.5Q1745 1607 1730.5 1621.5Q1716 1636 1696.5 1644.5Q1677 1653 1655 1653Q1633 1653 1613.5 1644.5Q1594 1636 1579.5 1621.5Q1565 1607 1556.5 1587.5Q1548 1568 1548 1546V953Q1548 938 1537.5 927.5Q1527 917 1512 917Z" style="fill:#f8312f;stroke:none" transform="scale(1,-1) translate(0,-256)" /></svg>