<?xml version="1.0" encoding="utf-8" ?>
<svg baseProfile="full" height="256" version="1.1" width="256" xmlns="http://www.w3.org/2000/svg" xmlns:ev="http://www.w3.org/2001/xml-events" xmlns:xlink="http://www.w3.org/1999/xlink"><defs /><path d="M1909 1275Q1913 1309 1928.5 1338.5Q1944 1368 1968.0 1390.0Q1992 1412 2023.0 1424.0Q2054 1436 2089 1436H2115Q2134 1436 2146.5 1449.0Q2159 1462 2159 1481V1686Q2159 1701 2170.0 1713.0Q2181 1725 2197 1725Q2202 1725 2204 1724Q2249 1715 2287.0 1692.0Q2325 1669 2352.0 1636.0Q2379 1603 2394.5 1561.5Q2410 1520 2410 1474V1243Q2410 1182 2388.0 1128.0Q2366 1074 2327.5 1032.5Q2289 991 2236.5 965.0Q2184 939 2124 935Q2123 884 2107.0 836.5Q2091 789 2062.5 748.5Q2034 708 1994.5 677.0Q1955 646 1908 628L1725 559L1647 760L1830 830Q1865 844 1886.5 874.5Q1908 905 1908 943V1275H1909Z" style="fill:#f8312f;stroke:none" transform="scale(1,-1) translate(0,-256)" /></svg>