<?xml version="1.0" encoding="utf-8" ?>
<svg baseProfile="full" height="256" version="1.1" width="256" xmlns="http://www.w3.org/2000/svg" xmlns:ev="http://www.w3.org/2001/xml-events" xmlns:xlink="http://www.w3.org/1999/xlink"><defs /><path d="M1882 1302Q1904 1302 1923.5 1293.5Q1943 1285 1957.5 1270.5Q1972 1256 1980.5 1236.5Q1989 1217 1989 1195Q1989 1174 1981.0 1154.0Q1973 1134 1958 1119L1558 719L1958 319Q1973 304 1981.0 284.0Q1989 264 1989 243Q1989 221 1980.5 201.5Q1972 182 1957.5 167.0Q1943 152 1923.5 143.5Q1904 135 1882 135Q1838 135 1806 167L1406 566L1006 167Q991 152 971.0 143.5Q951 135 930 135Q908 135 888.5 143.5Q869 152 854.0 167.0Q839 182 830.5 201.5Q822 221 822 243Q822 264 830.5 284.0Q839 304 854 319L1253 719L854 1119Q822 1151 822 1195Q822 1217 830.5 1236.5Q839 1256 854.0 1270.5Q869 1285 888.5 1293.5Q908 1302 930 1302Q951 1302 971.0 1294.0Q991 1286 1006 1271L1406 871L1806 1271Q1821 1286 1841.0 1294.0Q1861 1302 1882 1302Z" style="fill:#ffffff;stroke:none" transform="scale(1,-1) translate(0,-256)" /></svg>