<?xml version="1.0" encoding="utf-8" ?>
<svg baseProfile="full" height="256" version="1.1" width="256" xmlns="http://www.w3.org/2000/svg" xmlns:ev="http://www.w3.org/2001/xml-events" xmlns:xlink="http://www.w3.org/1999/xlink"><defs /><path d="M2412 1477Q2412 1412 2380 1354L1553 -123Q1515 -192 1447.5 -231.0Q1380 -270 1301 -270Q1248 -270 1200.0 -251.5Q1152 -233 1112 -198L485 354Q444 390 422.0 439.5Q400 489 400 543Q400 595 419.5 641.0Q439 687 473.0 721.0Q507 755 553.0 774.5Q599 794 651 794Q697 794 740.0 777.5Q783 761 818 731L1244 355L1941 1600Q1974 1660 2033.0 1694.0Q2092 1728 2160 1728Q2212 1728 2258.0 1708.5Q2304 1689 2338.5 1655.0Q2373 1621 2392.5 1575.0Q2412 1529 2412 1477Z" style="fill:#635994;stroke:none" transform="scale(1,-1) translate(0,-256)" /></svg>