<?xml version="1.0" encoding="utf-8" ?>
<svg baseProfile="full" height="256" version="1.1" width="256" xmlns="http://www.w3.org/2000/svg" xmlns:ev="http://www.w3.org/2001/xml-events" xmlns:xlink="http://www.w3.org/1999/xlink"><defs /><path d="M1070 1196Q1117 1196 1164.5 1183.5Q1212 1171 1255.5 1147.5Q1299 1124 1335.0 1090.5Q1371 1057 1394 1015Q1410 988 1410 959Q1410 939 1402.0 921.0Q1394 903 1380.5 889.5Q1367 876 1349.0 868.0Q1331 860 1311 860Q1286 860 1269.0 870.5Q1252 881 1238.0 896.0Q1224 911 1210.5 929.5Q1197 948 1178.5 963.0Q1160 978 1134.0 988.5Q1108 999 1070 999Q1032 999 999.5 985.0Q967 971 942.0 946.0Q917 921 903.0 888.0Q889 855 889 818V619Q889 581 903.5 548.0Q918 515 943.0 490.0Q968 465 1001.0 451.0Q1034 437 1072 437Q1109 437 1134.5 447.0Q1160 457 1178.5 472.0Q1197 487 1211.0 504.5Q1225 522 1239.0 537.0Q1253 552 1270.0 562.0Q1287 572 1312 572Q1332 572 1350.0 564.0Q1368 556 1381.5 542.5Q1395 529 1402.5 511.0Q1410 493 1410 473Q1410 458 1405.5 444.5Q1401 431 1394 418Q1371 377 1335.0 343.5Q1299 310 1256.0 287.0Q1213 264 1165.5 251.5Q1118 239 1072 239Q993 239 924.0 269.0Q855 299 803.5 350.5Q752 402 722.0 471.0Q692 540 692 619V818Q692 896 721.5 965.0Q751 1034 802.5 1085.5Q854 1137 923.0 1166.5Q992 1196 1070 1196ZM1649 1196Q1669 1196 1687.0 1188.0Q1705 1180 1718.5 1166.5Q1732 1153 1739.5 1135.0Q1747 1117 1747 1097V440L1748 439H2028Q2070 439 2098.5 410.5Q2127 382 2127 340Q2127 320 2119.0 302.0Q2111 284 2097.5 270.5Q2084 257 2066.0 249.5Q2048 242 2028 242H1649Q1629 242 1611.0 249.5Q1593 257 1579.5 270.5Q1566 284 1558.0 302.0Q1550 320 1550 340V1097Q1550 1139 1578.5 1167.5Q1607 1196 1649 1196Z" style="fill:#ffffff;stroke:none" transform="scale(1,-1) translate(0,-256)" /></svg>