<?xml version="1.0" encoding="utf-8" ?>
<svg baseProfile="full" height="256" version="1.1" width="256" xmlns="http://www.w3.org/2000/svg" xmlns:ev="http://www.w3.org/2001/xml-events" xmlns:xlink="http://www.w3.org/1999/xlink"><defs /><path d="M1385 1653Q1421 1653 1451.0 1641.0Q1481 1629 1504.0 1607.5Q1527 1586 1543.0 1557.0Q1559 1528 1567 1495Q1572 1473 1573.0 1447.5Q1574 1422 1576 1399Q1581 1354 1585.5 1310.5Q1590 1267 1595 1222Q1597 1205 1598.0 1187.5Q1599 1170 1603 1153Q1609 1126 1627.0 1103.0Q1645 1080 1669.0 1061.0Q1693 1042 1719.5 1026.5Q1746 1011 1769 999Q1807 979 1848.5 966.5Q1890 954 1929 939Q1991 915 2052.0 883.5Q2113 852 2161.0 808.5Q2209 765 2238.5 707.5Q2268 650 2268 575H472V1372H903Q973 1439 1041 1510V1653Z" style="fill:#f92f60;stroke:none" transform="scale(1,-1) translate(0,-256)" /></svg>