<?xml version="1.0" encoding="utf-8" ?>
<svg baseProfile="full" height="256" version="1.1" width="256" xmlns="http://www.w3.org/2000/svg" xmlns:ev="http://www.w3.org/2001/xml-events" xmlns:xlink="http://www.w3.org/1999/xlink"><defs /><path d="M975 -36Q975 -58 966.5 -77.5Q958 -97 943.0 -112.0Q928 -127 908.5 -135.5Q889 -144 867 -144Q845 -144 825.5 -135.5Q806 -127 791.0 -112.0Q776 -97 767.5 -77.5Q759 -58 759 -36Q759 -14 767.5 6.0Q776 26 790.5 40.5Q805 55 824.5 63.5Q844 72 867 72Q889 72 908.5 63.5Q928 55 943.0 40.0Q958 25 966.5 5.5Q975 -14 975 -36ZM2053 -36Q2053 -58 2044.5 -77.5Q2036 -97 2021.0 -112.0Q2006 -127 1986.5 -135.5Q1967 -144 1945 -144Q1923 -144 1903.5 -135.5Q1884 -127 1869.0 -112.0Q1854 -97 1845.5 -77.5Q1837 -58 1837 -36Q1837 -14 1845.5 6.0Q1854 26 1868.5 40.5Q1883 55 1902.5 63.5Q1922 72 1945 72Q1967 72 1987.0 63.5Q2007 55 2021.5 40.5Q2036 26 2044.5 6.0Q2053 -14 2053 -36Z" style="fill:#d3d3d3;stroke:none" transform="scale(1,-1) translate(0,-256)" /></svg>