<?xml version="1.0" encoding="utf-8" ?>
<svg baseProfile="full" height="256" version="1.1" width="256" xmlns="http://www.w3.org/2000/svg" xmlns:ev="http://www.w3.org/2001/xml-events" xmlns:xlink="http://www.w3.org/1999/xlink"><defs /><path d="M1439 1294Q1425 1294 1415.5 1305.0Q1406 1316 1406 1330Q1406 1344 1415.5 1355.0Q1425 1366 1439 1366H1589Q1603 1366 1612.5 1355.0Q1622 1344 1622 1330Q1622 1316 1612.5 1305.0Q1603 1294 1589 1294ZM1439 1150Q1425 1150 1415.5 1161.0Q1406 1172 1406 1186Q1406 1200 1415.5 1211.0Q1425 1222 1439 1222H1589Q1603 1222 1612.5 1211.0Q1622 1200 1622 1186Q1622 1172 1612.5 1161.0Q1603 1150 1589 1150Z" style="fill:#321b41;stroke:none" transform="scale(1,-1) translate(0,-256)" /></svg>