<?xml version="1.0" encoding="utf-8" ?>
<svg baseProfile="full" height="256" version="1.1" width="256" xmlns="http://www.w3.org/2000/svg" xmlns:ev="http://www.w3.org/2001/xml-events" xmlns:xlink="http://www.w3.org/1999/xlink"><defs /><path d="M601 288Q574 288 550.5 298.0Q527 308 509.5 325.5Q492 343 482.0 366.5Q472 390 472 417V575L1071 647Q1114 652 1150.0 658.5Q1186 665 1220.0 670.5Q1254 676 1290.0 679.5Q1326 683 1370 683Q1414 683 1450.0 679.5Q1486 676 1520.0 670.5Q1554 665 1589.5 658.5Q1625 652 1669 647L2268 575V417Q2268 391 2258.0 368.0Q2248 345 2231.0 327.0Q2214 309 2191.5 298.5Q2169 288 2143 288Z" style="fill:#433b6b;stroke:none" transform="scale(1,-1) translate(0,-256)" /></svg>