<?xml version="1.0" encoding="utf-8" ?>
<svg baseProfile="full" height="256" version="1.1" width="256" xmlns="http://www.w3.org/2000/svg" xmlns:ev="http://www.w3.org/2001/xml-events" xmlns:xlink="http://www.w3.org/1999/xlink"><defs /><path d="M1298 575H1083Q1068 575 1057.5 585.5Q1047 596 1047 611V756Q1047 771 1057.5 781.5Q1068 792 1083 792H1299Q1313 792 1324.0 781.0Q1335 770 1335 756V611Q1335 596 1323.5 585.5Q1312 575 1298 575ZM1765 610Q1765 596 1754.5 585.0Q1744 574 1730 574H1514Q1500 574 1489.0 585.0Q1478 596 1478 610V755Q1478 770 1488.5 780.5Q1499 791 1514 791H1729Q1744 791 1754.5 780.5Q1765 770 1765 755ZM1334 251Q1334 237 1323.5 226.0Q1313 215 1299 215H1083Q1068 215 1057.5 225.5Q1047 236 1047 251V396Q1047 411 1057.5 421.0Q1068 431 1083 431H1298Q1312 431 1323.0 420.5Q1334 410 1334 396ZM1765 251Q1765 237 1754.5 226.0Q1744 215 1730 215H1514Q1500 215 1489.0 226.0Q1478 237 1478 251V396Q1478 411 1488.5 421.0Q1499 431 1514 431H1729Q1744 431 1754.5 421.0Q1765 411 1765 396ZM1334 1329Q1334 1315 1323.5 1304.0Q1313 1293 1299 1293H1083Q1068 1293 1057.5 1303.5Q1047 1314 1047 1329V1474Q1047 1489 1057.5 1499.5Q1068 1510 1083 1510H1298Q1312 1510 1323.0 1499.0Q1334 1488 1334 1474ZM1765 1329Q1765 1315 1754.5 1304.0Q1744 1293 1730 1293H1514Q1500 1293 1489.0 1304.0Q1478 1315 1478 1329V1474Q1478 1489 1488.5 1499.5Q1499 1510 1514 1510H1729Q1744 1510 1754.5 1499.5Q1765 1489 1765 1474ZM1334 970Q1334 956 1323.5 945.0Q1313 934 1299 934H1083Q1068 934 1057.5 944.5Q1047 955 1047 970V1114Q1047 1129 1057.5 1139.5Q1068 1150 1083 1150H1298Q1313 1150 1323.5 1139.5Q1334 1129 1334 1114ZM1765 970Q1765 956 1755.0 945.0Q1745 934 1730 934H1514Q1499 934 1488.5 944.5Q1478 955 1478 970V1114Q1478 1129 1488.5 1139.5Q1499 1150 1514 1150H1729Q1744 1150 1754.5 1139.5Q1765 1129 1765 1114Z" style="fill:#83cbff;stroke:none" transform="scale(1,-1) translate(0,-256)" /></svg>