<?xml version="1.0" encoding="utf-8" ?>
<svg baseProfile="full" height="256" version="1.1" width="256" xmlns="http://www.w3.org/2000/svg" xmlns:ev="http://www.w3.org/2001/xml-events" xmlns:xlink="http://www.w3.org/1999/xlink"><defs /><path d="M400 1201Q400 1235 413.0 1265.0Q426 1295 448.5 1317.5Q471 1340 501.0 1353.0Q531 1366 565 1366H2247Q2281 1366 2311.0 1353.0Q2341 1340 2363.5 1317.5Q2386 1295 2399.0 1265.0Q2412 1235 2412 1201V-287H2119Q2118 -287 2089.0 -279.0Q2060 -271 2012.5 -258.0Q1965 -245 1904.0 -227.5Q1843 -210 1778.5 -192.0Q1714 -174 1650.5 -156.5Q1587 -139 1535.5 -124.5Q1484 -110 1448.5 -100.0Q1413 -90 1404 -88Q1395 -90 1359.5 -100.0Q1324 -110 1272.5 -124.5Q1221 -139 1157.5 -156.5Q1094 -174 1029.5 -192.0Q965 -210 904.0 -227.5Q843 -245 795.5 -258.0Q748 -271 719.0 -279.0Q690 -287 689 -287H400Z" style="fill:#9b9b9b;stroke:none" transform="scale(1,-1) translate(0,-256)" /></svg>