<?xml version="1.0" encoding="utf-8" ?>
<svg baseProfile="full" height="256" version="1.1" width="256" xmlns="http://www.w3.org/2000/svg" xmlns:ev="http://www.w3.org/2001/xml-events" xmlns:xlink="http://www.w3.org/1999/xlink"><defs /><path d="M759 288V216Q759 186 738.0 165.0Q717 144 687 144H615Q586 144 564.5 165.5Q543 187 543 216V288Q543 317 564.5 338.5Q586 360 615 360H687Q716 360 737.5 338.5Q759 317 759 288ZM687 1078Q717 1078 738.0 1057.0Q759 1036 759 1006V935Q759 905 738.0 884.0Q717 863 687 863H615Q586 863 564.5 884.5Q543 906 543 935V1006Q543 1035 564.5 1056.5Q586 1078 615 1078ZM687 719Q717 719 738.0 698.0Q759 677 759 647V575Q759 546 737.5 524.5Q716 503 687 503H615Q586 503 564.5 524.5Q543 546 543 575V647Q543 676 564.5 697.5Q586 719 615 719Z" style="fill:#83cbff;stroke:none" transform="scale(1,-1) translate(0,-256)" /></svg>