<?xml version="1.0" encoding="utf-8" ?>
<svg baseProfile="full" height="256" version="1.1" width="256" xmlns="http://www.w3.org/2000/svg" xmlns:ev="http://www.w3.org/2001/xml-events" xmlns:xlink="http://www.w3.org/1999/xlink"><defs /><path d="M2197 863H2125Q2095 863 2074.0 884.0Q2053 905 2053 935V1006Q2053 1036 2074.0 1057.0Q2095 1078 2125 1078H2197Q2226 1078 2247.0 1056.5Q2268 1035 2268 1006V935Q2268 905 2247.5 884.0Q2227 863 2197 863ZM2268 575V647Q2268 676 2247.0 697.5Q2226 719 2197 719H2125Q2095 719 2074.0 698.0Q2053 677 2053 647V575Q2053 546 2074.5 524.5Q2096 503 2125 503H2197Q2226 503 2247.0 524.5Q2268 546 2268 575ZM2268 216V288Q2268 317 2247.0 338.5Q2226 360 2197 360H2125Q2096 360 2074.5 338.5Q2053 317 2053 288V216Q2053 186 2074.0 165.0Q2095 144 2125 144H2197Q2226 144 2247.0 165.5Q2268 187 2268 216Z" style="fill:#83cbff;stroke:none" transform="scale(1,-1) translate(0,-256)" /></svg>