<?xml version="1.0" encoding="utf-8" ?>
<svg baseProfile="full" height="256" version="1.1" width="256" xmlns="http://www.w3.org/2000/svg" xmlns:ev="http://www.w3.org/2001/xml-events" xmlns:xlink="http://www.w3.org/1999/xlink"><defs /><path d="M1481 1507Q1493 1487 1502.0 1465.5Q1511 1444 1519 1422L1633 1078H1634L1799 583Q1813 590 1857.5 611.0Q1902 632 1961.0 660.0Q2020 688 2085.5 718.5Q2151 749 2207.5 775.0Q2264 801 2303.0 817.5Q2342 834 2349 834Q2370 834 2385.5 819.0Q2401 804 2401 782V125Q2401 103 2386.0 88.0Q2371 73 2349 73H1969V72H981Q898 72 825.5 103.5Q753 135 698.5 189.0Q644 243 612.5 315.5Q581 388 581 471Q581 494 584 518L676 1322Q680 1354 685.5 1384.5Q691 1415 703 1446Q727 1509 768.0 1560.5Q809 1612 862.0 1648.5Q915 1685 977.5 1705.0Q1040 1725 1107 1725H1643Q1663 1725 1678.0 1710.0Q1693 1695 1693 1675Q1693 1640 1680.0 1609.5Q1667 1579 1644.5 1556.0Q1622 1533 1591.5 1520.0Q1561 1507 1526 1507H1481Z" style="fill:#ca0b4a;stroke:none" transform="scale(1,-1) translate(0,-256)" /></svg>