<?xml version="1.0" encoding="utf-8" ?>
<svg baseProfile="full" height="256" version="1.1" width="256" xmlns="http://www.w3.org/2000/svg" xmlns:ev="http://www.w3.org/2001/xml-events" xmlns:xlink="http://www.w3.org/1999/xlink"><defs /><path d="M673 987 485 1165Q472 1178 472 1196Q472 1208 477.5 1218.5Q483 1229 494 1234L715 1350ZM1590 -179Q1628 -179 1658.0 -203.5Q1688 -228 1695 -266L1696 -270Q1696 -278 1690.5 -282.5Q1685 -287 1678 -287H777Q770 -287 764.5 -282.5Q759 -278 759 -270L760 -266Q768 -228 797.0 -203.5Q826 -179 865 -179H995L1081 252H1189L1103 -179H1354L1440 252H1548L1462 -179Z" style="fill:#f9c23c;stroke:none" transform="scale(1,-1) translate(0,-256)" /></svg>