<?xml version="1.0" encoding="utf-8" ?>
<svg baseProfile="full" height="256" version="1.1" width="256" xmlns="http://www.w3.org/2000/svg" xmlns:ev="http://www.w3.org/2001/xml-events" xmlns:xlink="http://www.w3.org/1999/xlink"><defs /><path d="M1837 1366Q1882 1366 1921.0 1349.0Q1960 1332 1989.5 1302.5Q2019 1273 2036.0 1234.0Q2053 1195 2053 1150V288Q2053 243 2036.0 204.0Q2019 165 1989.5 135.5Q1960 106 1921.0 89.0Q1882 72 1837 72H975Q930 72 891.0 89.0Q852 106 822.5 135.5Q793 165 776.0 204.0Q759 243 759 288V1150Q759 1195 776.0 1234.0Q793 1273 822.5 1302.5Q852 1332 891.0 1349.0Q930 1366 975 1366Z" style="fill:#636363;stroke:none" transform="scale(1,-1) translate(0,-256)" /></svg>