<?xml version="1.0" encoding="utf-8" ?>
<svg baseProfile="full" height="256" version="1.1" width="256" xmlns="http://www.w3.org/2000/svg" xmlns:ev="http://www.w3.org/2001/xml-events" xmlns:xlink="http://www.w3.org/1999/xlink"><defs /><path d="M831 1150Q831 1180 842.0 1206.0Q853 1232 872.5 1251.5Q892 1271 918.5 1282.5Q945 1294 975 1294H1837Q1867 1294 1893.0 1282.5Q1919 1271 1938.5 1251.5Q1958 1232 1969.5 1206.0Q1981 1180 1981 1150V288Q1981 258 1969.5 231.5Q1958 205 1938.5 185.5Q1919 166 1893.0 155.0Q1867 144 1837 144H975Q945 144 918.5 155.0Q892 166 872.5 185.5Q853 205 842.0 231.5Q831 258 831 288Z" style="fill:#000000;stroke:none" transform="scale(1,-1) translate(0,-256)" /></svg>