<?xml version="1.0" encoding="utf-8" ?>
<svg baseProfile="full" height="256" version="1.1" width="256" xmlns="http://www.w3.org/2000/svg" xmlns:ev="http://www.w3.org/2001/xml-events" xmlns:xlink="http://www.w3.org/1999/xlink"><defs /><path d="M1934 761Q1934 742 1917.5 711.5Q1901 681 1878.5 648.0Q1856 615 1832.5 586.0Q1809 557 1796 541Q1774 515 1751.0 493.5Q1728 472 1700 453Q1695 437 1686.5 412.5Q1678 388 1665.5 364.5Q1653 341 1637.0 324.5Q1621 308 1601 308Q1578 308 1564.0 323.5Q1550 339 1550 361Q1550 375 1556.0 385.5Q1562 396 1570 407Q1542 408 1516.5 420.0Q1491 432 1472.0 451.5Q1453 471 1441.5 496.0Q1430 521 1430 550Q1430 578 1441.0 602.5Q1452 627 1470.5 645.5Q1489 664 1514.0 674.5Q1539 685 1567 685Q1610 685 1648.5 658.5Q1687 632 1702 591Q1706 595 1709.5 599.0Q1713 603 1717 608Q1718 607 1718.5 607.5Q1719 608 1718 609Q1749 645 1782.5 690.5Q1816 736 1834 780Q1840 795 1853.0 804.0Q1866 813 1883 813Q1904 813 1919.0 797.5Q1934 782 1934 761ZM1609 519Q1609 522 1609.5 525.0Q1610 528 1610 532Q1610 549 1598.5 566.0Q1587 583 1567 583Q1554 583 1544.0 574.0Q1534 565 1534 551Q1534 534 1547.5 522.5Q1561 511 1577 511Q1593 511 1609 519ZM1406 -287Q1436 -287 1457.5 -266.0Q1479 -245 1479 -215Q1479 -185 1457.0 -164.5Q1435 -144 1406 -144Q1377 -144 1355.5 -165.0Q1334 -186 1334 -215Q1334 -245 1355.0 -266.0Q1376 -287 1406 -287ZM774 402Q774 468 758.5 532.0Q743 596 714 656Q733 684 754.5 709.0Q776 734 799 758Q848 677 873.0 586.5Q898 496 898 402Q898 328 882.0 253.5Q866 179 835.0 110.0Q804 41 758.5 -20.5Q713 -82 655 -128Q645 -136 636.5 -140.0Q628 -144 615 -144Q589 -144 570.5 -126.0Q552 -108 552 -82Q552 -54 574 -34Q590 -18 606.0 -3.5Q622 11 636 28Q696 98 730.5 182.0Q765 266 772 358Q773 369 773.5 380.0Q774 391 774 402Z" style="fill:#00a6ed;stroke:none" transform="scale(1,-1) translate(0,-256)" /></svg>