<?xml version="1.0" encoding="utf-8" ?>
<svg baseProfile="full" height="256" version="1.1" width="256" xmlns="http://www.w3.org/2000/svg" xmlns:ev="http://www.w3.org/2001/xml-events" xmlns:xlink="http://www.w3.org/1999/xlink"><defs /><path d="M697 295Q650 295 624.5 320.0Q599 345 599 393Q599 449 630.0 517.5Q661 586 712.5 656.0Q764 726 830.0 791.5Q896 857 966.0 908.5Q1036 960 1104.5 991.0Q1173 1022 1229 1022Q1276 1022 1301.5 997.0Q1327 972 1327 924Q1327 868 1296.0 799.5Q1265 731 1213.5 661.0Q1162 591 1096.0 525.0Q1030 459 960.0 408.0Q890 357 821.5 326.0Q753 295 697 295ZM2118 294Q2166 294 2191.5 319.5Q2217 345 2217 393Q2217 449 2186.0 517.5Q2155 586 2103.5 656.0Q2052 726 1986.0 791.5Q1920 857 1850.0 908.5Q1780 960 1711.5 991.0Q1643 1022 1587 1022Q1539 1022 1514.0 997.0Q1489 972 1489 924Q1489 868 1520.0 799.5Q1551 731 1602.5 661.0Q1654 591 1719.5 525.0Q1785 459 1855.0 407.5Q1925 356 1993.5 325.0Q2062 294 2118 294Z" style="fill:#6d4534;stroke:none" transform="scale(1,-1) translate(0,-256)" /></svg>