<?xml version="1.0" encoding="utf-8" ?>
<svg baseProfile="full" height="256" version="1.1" width="256" xmlns="http://www.w3.org/2000/svg" xmlns:ev="http://www.w3.org/2001/xml-events" xmlns:xlink="http://www.w3.org/1999/xlink"><defs /><path d="M1349 266Q1349 234 1362.5 218.0Q1376 202 1392.0 190.5Q1408 179 1421.5 166.5Q1435 154 1435 129Q1435 103 1417.0 85.0Q1399 67 1373 67Q1359 67 1346 73Q1290 100 1257.0 150.5Q1224 201 1224 264Q1224 309 1234.0 352.5Q1244 396 1244 441Q1244 460 1237.0 476.5Q1230 493 1217.5 504.5Q1205 516 1188.0 522.5Q1171 529 1152 529Q1141 529 1130.0 528.5Q1119 528 1108 528Q1051 528 1000.5 557.5Q950 587 922 638L835 797Q858 820 881.5 840.5Q905 861 930 881L1030 699Q1041 678 1055.0 668.5Q1069 659 1085.0 656.0Q1101 653 1118.5 653.5Q1136 654 1156 654Q1200 654 1238.5 637.0Q1277 620 1306.0 591.0Q1335 562 1351.5 523.0Q1368 484 1368 440Q1368 396 1358.5 353.0Q1349 310 1349 266ZM2138 -105Q2124 -105 2113.5 -99.5Q2103 -94 2093 -85Q2060 -52 2034.0 -10.5Q2008 31 1990.5 77.5Q1973 124 1964.0 172.5Q1955 221 1955 267Q1955 373 1996.0 470.0Q2037 567 2113 641Q2132 614 2148.5 585.5Q2165 557 2179 527Q2131 473 2105.5 405.0Q2080 337 2080 265Q2080 224 2087.0 189.0Q2094 154 2107.0 122.5Q2120 91 2139.5 60.5Q2159 30 2184 -1Q2192 -11 2196.5 -20.0Q2201 -29 2201 -43Q2201 -69 2182.5 -87.0Q2164 -105 2138 -105ZM1023 -289Q1051 -289 1068 -266Q1112 -207 1134.5 -137.0Q1157 -67 1157 5Q1157 48 1148.5 96.5Q1140 145 1121 184Q1114 199 1100.0 208.5Q1086 218 1069 218Q1046 218 1030.5 201.5Q1015 185 1015 163Q1015 150 1019 141Q1032 108 1039.0 75.0Q1046 42 1046 6Q1046 -54 1028.5 -103.0Q1011 -152 978 -201Q968 -215 968 -233Q968 -256 984.0 -272.5Q1000 -289 1023 -289ZM1658 44Q1684 44 1701.5 61.5Q1719 79 1719 105Q1719 131 1701.5 148.5Q1684 166 1658 166Q1632 166 1614.5 148.5Q1597 131 1597 105Q1597 79 1614.5 61.5Q1632 44 1658 44Z" style="fill:#f70a8d;stroke:none" transform="scale(1,-1) translate(0,-256)" /></svg>