<?xml version="1.0" encoding="utf-8" ?>
<svg baseProfile="full" height="256" version="1.1" width="256" xmlns="http://www.w3.org/2000/svg" xmlns:ev="http://www.w3.org/2001/xml-events" xmlns:xlink="http://www.w3.org/1999/xlink"><defs /><path d="M833 434 707 228Q692 205 669 205Q662 205 644.0 213.0Q626 221 601.5 234.0Q577 247 549.0 262.5Q521 278 496.0 292.0Q471 306 451.0 317.5Q431 329 422 334Q411 339 405.5 350.0Q400 361 400 372Q400 383 404 391L888 1341Q907 1379 931.5 1399.0Q956 1419 984.5 1427.5Q1013 1436 1046.0 1437.0Q1079 1438 1117 1438L1378 949L1622 1437H1727Q1802 1437 1855.0 1395.5Q1908 1354 1940 1290L2399 391Q2403 384 2403 373Q2403 362 2397.0 351.0Q2391 340 2380 334Q2371 329 2351.5 317.5Q2332 306 2306.5 292.0Q2281 278 2253.5 262.5Q2226 247 2201.5 234.0Q2177 221 2158.5 213.0Q2140 205 2134 205Q2109 205 2096 228L1981 432V-215Q1981 -246 1960.5 -266.5Q1940 -287 1909 -287H904Q873 -287 851.5 -267.5Q830 -248 830 -216Z" style="fill:#ffdea7;stroke:none" transform="scale(1,-1) translate(0,-256)" /></svg>