<?xml version="1.0" encoding="utf-8" ?>
<svg baseProfile="full" height="256" version="1.1" width="256" xmlns="http://www.w3.org/2000/svg" xmlns:ev="http://www.w3.org/2001/xml-events" xmlns:xlink="http://www.w3.org/1999/xlink"><defs /><path d="M1442 503Q1427 503 1416.5 513.5Q1406 524 1406 539Q1406 554 1416.5 564.5Q1427 575 1442 575Q1457 575 1467.5 564.5Q1478 554 1478 539Q1478 524 1467.5 513.5Q1457 503 1442 503ZM1442 287Q1428 287 1417.0 298.0Q1406 309 1406 323Q1406 338 1416.5 349.0Q1427 360 1442 360Q1457 360 1467.5 349.0Q1478 338 1478 323Q1478 309 1467.0 298.0Q1456 287 1442 287ZM1478 108Q1478 93 1467.5 82.5Q1457 72 1442 72Q1427 72 1416.5 82.5Q1406 93 1406 108Q1406 123 1416.5 133.5Q1427 144 1442 144Q1457 144 1467.5 133.5Q1478 123 1478 108Z" style="fill:#8c5543;stroke:none" transform="scale(1,-1) translate(0,-256)" /></svg>