<?xml version="1.0" encoding="utf-8" ?>
<svg baseProfile="full" height="256" version="1.1" width="256" xmlns="http://www.w3.org/2000/svg" xmlns:ev="http://www.w3.org/2001/xml-events" xmlns:xlink="http://www.w3.org/1999/xlink"><defs /><path d="M1180 326Q1190 326 1190 317V287Q1190 272 1184.5 260.0Q1179 248 1166 240L986 133Q972 124 955 124Q949 124 940.5 126.5Q932 129 923.5 133.5Q915 138 909.5 144.5Q904 151 904 158Q904 164 908 167Q913 170 935.0 183.0Q957 196 987.0 214.0Q1017 232 1050.5 251.5Q1084 271 1112.5 287.5Q1141 304 1160.0 315.0Q1179 326 1180 326ZM1632 326Q1622 326 1622 317V287Q1622 272 1627.5 260.0Q1633 248 1646 240L1826 133Q1839 124 1857 124Q1863 124 1872.0 126.5Q1881 129 1889.0 133.5Q1897 138 1903.0 144.5Q1909 151 1909 158Q1909 164 1904 167Q1898 170 1876.5 183.0Q1855 196 1825.0 214.0Q1795 232 1761.5 251.5Q1728 271 1699.5 287.5Q1671 304 1652.0 315.0Q1633 326 1632 326Z" style="fill:#e19747;stroke:none" transform="scale(1,-1) translate(0,-256)" /></svg>