<?xml version="1.0" encoding="utf-8" ?>
<svg baseProfile="full" height="256" version="1.1" width="256" xmlns="http://www.w3.org/2000/svg" xmlns:ev="http://www.w3.org/2001/xml-events" xmlns:xlink="http://www.w3.org/1999/xlink"><defs /><path d="M959 1071Q959 1083 971.5 1095.0Q984 1107 999.0 1118.5Q1014 1130 1026.5 1140.5Q1039 1151 1039 1159Q1039 1164 1033 1166Q1020 1170 1002.0 1169.5Q984 1169 967.5 1171.5Q951 1174 939.5 1182.5Q928 1191 928 1214Q928 1224 931.5 1242.5Q935 1261 940.0 1281.0Q945 1301 950.0 1320.0Q955 1339 958 1351Q962 1370 973.0 1386.0Q984 1402 998.5 1413.5Q1013 1425 1031.0 1431.5Q1049 1438 1068 1438H1119L1467 885Q1435 842 1403.0 801.0Q1371 760 1336 719L969 1049Q959 1057 959 1071Z" style="fill:#e19747;stroke:none" transform="scale(1,-1) translate(0,-256)" /></svg>