<?xml version="1.0" encoding="utf-8" ?>
<svg baseProfile="full" height="256" version="1.1" width="256" xmlns="http://www.w3.org/2000/svg" xmlns:ev="http://www.w3.org/2001/xml-events" xmlns:xlink="http://www.w3.org/1999/xlink"><defs /><path d="M1154 288V106Q1154 92 1143.0 82.0Q1132 72 1118 72Q1104 72 1093.0 83.0Q1082 94 1082 108Q1082 94 1071.5 84.0Q1061 74 1047 74Q1032 74 1021.5 84.0Q1011 94 1011 109Q1011 95 1000.5 83.5Q990 72 975 72Q960 72 949.5 82.5Q939 93 939 108Q939 93 927.5 82.5Q916 72 902 72Q887 72 877.0 83.0Q867 94 867 108Q865 94 855.5 84.0Q846 74 831 74Q816 74 805.5 84.5Q795 95 795 110V288ZM2017 288V110Q2017 95 2007.0 83.5Q1997 72 1981 72Q1966 72 1955.5 82.5Q1945 93 1945 108Q1945 94 1934.0 84.0Q1923 74 1909 74Q1895 74 1884.0 84.5Q1873 95 1873 109Q1873 94 1863.0 83.0Q1853 72 1837 72Q1822 72 1811.5 82.5Q1801 93 1801 108Q1801 93 1790.5 82.5Q1780 72 1765 72Q1751 72 1740.0 83.0Q1729 94 1729 108Q1729 93 1718.0 83.5Q1707 74 1693 74Q1677 74 1667.5 84.5Q1658 95 1658 110V288ZM1370 228H1442V-286H1370Z" style="fill:#f9c23c;stroke:none" transform="scale(1,-1) translate(0,-256)" /></svg>