<?xml version="1.0" encoding="utf-8" ?>
<svg baseProfile="full" height="256" version="1.1" width="256" xmlns="http://www.w3.org/2000/svg" xmlns:ev="http://www.w3.org/2001/xml-events" xmlns:xlink="http://www.w3.org/1999/xlink"><defs /><path d="M1029 1186Q1029 1164 1013.0 1148.0Q997 1132 975 1132Q952 1132 936.5 1147.5Q921 1163 921 1186Q921 1209 936.5 1224.5Q952 1240 975 1240Q997 1240 1013.0 1224.0Q1029 1208 1029 1186ZM1891 1186Q1891 1163 1875.5 1147.5Q1860 1132 1837 1132Q1814 1132 1798.5 1147.5Q1783 1163 1783 1186Q1783 1209 1798.5 1224.5Q1814 1240 1837 1240Q1860 1240 1875.5 1224.5Q1891 1209 1891 1186Z" style="fill:#37c9cd;stroke:none" transform="scale(1,-1) translate(0,-256)" /></svg>