<?xml version="1.0" encoding="utf-8" ?>
<svg baseProfile="full" height="256" version="1.1" width="256" xmlns="http://www.w3.org/2000/svg" xmlns:ev="http://www.w3.org/2001/xml-events" xmlns:xlink="http://www.w3.org/1999/xlink"><defs /><path d="M1338 536Q1338 484 1318.0 438.0Q1298 392 1264.0 358.0Q1230 324 1184.0 304.0Q1138 284 1086 284Q1034 284 988.0 304.0Q942 324 907.5 358.0Q873 392 853.0 438.0Q833 484 833 536Q833 588 853.0 634.5Q873 681 907.0 715.0Q941 749 987.0 769.0Q1033 789 1086 789Q1138 789 1184.0 769.0Q1230 749 1264.0 714.5Q1298 680 1318.0 634.0Q1338 588 1338 536ZM1981 536Q1981 484 1961.0 438.0Q1941 392 1906.5 358.0Q1872 324 1826.0 304.0Q1780 284 1728 284Q1676 284 1630.0 304.0Q1584 324 1550.0 358.0Q1516 392 1496.0 438.0Q1476 484 1476 536Q1476 588 1496.0 634.0Q1516 680 1550.0 714.5Q1584 749 1630.0 769.0Q1676 789 1728 789Q1780 789 1826.5 769.0Q1873 749 1907.0 715.0Q1941 681 1961.0 634.5Q1981 588 1981 536Z" style="fill:#ffffff;stroke:none" transform="scale(1,-1) translate(0,-256)" /></svg>