<?xml version="1.0" encoding="utf-8" ?>
<svg baseProfile="full" height="256" version="1.1" width="256" xmlns="http://www.w3.org/2000/svg" xmlns:ev="http://www.w3.org/2001/xml-events" xmlns:xlink="http://www.w3.org/1999/xlink"><defs /><path d="M1621 1205Q1651 1205 1677.0 1193.5Q1703 1182 1722.5 1162.5Q1742 1143 1753.5 1117.0Q1765 1091 1765 1061V985Q1828 965 1881.0 927.0Q1934 889 1972.5 838.0Q2011 787 2032.0 725.5Q2053 664 2053 597Q2053 585 2051.0 573.0Q2049 561 2046 550Q2129 523 2196.5 472.5Q2264 422 2312.0 354.5Q2360 287 2386.0 206.5Q2412 126 2412 39Q2412 -28 2387.0 -87.5Q2362 -147 2318.5 -191.0Q2275 -235 2216.0 -261.0Q2157 -287 2090 -287H721Q653 -287 594.5 -261.0Q536 -235 493.0 -190.5Q450 -146 425.0 -87.0Q400 -28 400 39Q400 126 426.0 206.0Q452 286 500.0 353.5Q548 421 615.5 472.0Q683 523 766 550Q763 561 761.0 573.0Q759 585 759 597Q759 687 793.5 762.0Q828 837 887.5 891.5Q947 946 1025.0 976.0Q1103 1006 1190 1006L1557 1190Q1587 1205 1621 1205Z" style="fill:#9d5044;stroke:none" transform="scale(1,-1) translate(0,-256)" /></svg>