<?xml version="1.0" encoding="utf-8" ?>
<svg baseProfile="full" height="256" version="1.1" width="256" xmlns="http://www.w3.org/2000/svg" xmlns:ev="http://www.w3.org/2001/xml-events" xmlns:xlink="http://www.w3.org/1999/xlink"><defs /><path d="M2053 1546Q2090 1546 2123.0 1532.0Q2156 1518 2180.5 1493.5Q2205 1469 2219.0 1436.0Q2233 1403 2233 1366V72Q2233 35 2219.0 2.0Q2205 -31 2180.5 -55.5Q2156 -80 2123.0 -94.0Q2090 -108 2053 -108H759Q722 -108 689.0 -94.0Q656 -80 631.5 -55.5Q607 -31 593.0 2.0Q579 35 579 72V1366Q579 1403 593.0 1436.0Q607 1469 631.5 1493.5Q656 1518 689.0 1532.0Q722 1546 759 1546Z" style="fill:#9b9b9b;stroke:none" transform="scale(1,-1) translate(0,-256)" /></svg>