<?xml version="1.0" encoding="utf-8" ?>
<svg baseProfile="full" height="256" version="1.1" width="256" xmlns="http://www.w3.org/2000/svg" xmlns:ev="http://www.w3.org/2001/xml-events" xmlns:xlink="http://www.w3.org/1999/xlink"><defs /><path d="M651 1366Q651 1388 659.5 1407.5Q668 1427 683.0 1442.0Q698 1457 717.5 1465.5Q737 1474 759 1474H2053Q2075 1474 2094.5 1465.5Q2114 1457 2129.0 1442.0Q2144 1427 2152.5 1407.5Q2161 1388 2161 1366V72Q2161 50 2152.5 30.5Q2144 11 2129.0 -4.0Q2114 -19 2094.5 -27.5Q2075 -36 2053 -36H759Q737 -36 717.5 -27.5Q698 -19 683.0 -4.0Q668 11 659.5 30.5Q651 50 651 72Z" style="fill:#ffffff;stroke:none" transform="scale(1,-1) translate(0,-256)" /></svg>