<?xml version="1.0" encoding="utf-8" ?>
<svg baseProfile="full" height="256" version="1.1" width="256" xmlns="http://www.w3.org/2000/svg" xmlns:ev="http://www.w3.org/2001/xml-events" xmlns:xlink="http://www.w3.org/1999/xlink"><defs /><path d="M1807 145Q1807 130 1796.5 119.5Q1786 109 1771 109Q1756 109 1745.5 119.5Q1735 130 1735 145Q1735 160 1745.5 170.5Q1756 181 1771 181Q1786 181 1796.5 170.5Q1807 160 1807 145ZM1963 -3Q1963 -18 1952.5 -28.5Q1942 -39 1927 -39Q1912 -39 1901.5 -28.5Q1891 -18 1891 -3Q1891 11 1902.0 22.0Q1913 33 1927 33Q1941 33 1952.0 22.0Q1963 11 1963 -3ZM2082 109Q2097 109 2107.5 119.5Q2118 130 2118 145Q2118 160 2107.5 170.5Q2097 181 2082 181Q2067 181 2056.5 170.5Q2046 160 2046 145Q2046 130 2056.5 119.5Q2067 109 2082 109ZM2118 -151Q2118 -166 2107.5 -176.5Q2097 -187 2082 -187Q2067 -187 2056.5 -176.5Q2046 -166 2046 -151Q2046 -136 2056.5 -125.5Q2067 -115 2082 -115Q2097 -115 2107.5 -125.5Q2118 -136 2118 -151ZM1771 -187Q1786 -187 1796.5 -176.5Q1807 -166 1807 -151Q1807 -136 1796.5 -125.5Q1786 -115 1771 -115Q1756 -115 1745.5 -125.5Q1735 -136 1735 -151Q1735 -166 1745.5 -176.5Q1756 -187 1771 -187ZM2273 -3Q2273 -18 2262.5 -28.5Q2252 -39 2237 -39Q2223 -39 2212.0 -28.0Q2201 -17 2201 -3Q2201 11 2212.0 22.0Q2223 33 2237 33Q2251 33 2262.0 22.0Q2273 11 2273 -3Z" style="fill:#feefc2;stroke:none" transform="scale(1,-1) translate(0,-256)" /></svg>