<?xml version="1.0" encoding="utf-8" ?>
<svg baseProfile="full" height="256" version="1.1" width="256" xmlns="http://www.w3.org/2000/svg" xmlns:ev="http://www.w3.org/2001/xml-events" xmlns:xlink="http://www.w3.org/1999/xlink"><defs /><path d="M1035 1188Q1035 1166 1038.5 1145.0Q1042 1124 1042 1103Q1042 1096 1039.5 1087.0Q1037 1078 1028 1078Q1022 1078 1017.0 1082.0Q1012 1086 1008 1090Q989 1109 970.0 1133.5Q951 1158 936.0 1185.0Q921 1212 912.0 1241.0Q903 1270 903 1298Q903 1345 924.0 1385.5Q945 1426 969 1464Q983 1486 994.5 1506.0Q1006 1526 1015.0 1545.5Q1024 1565 1030.5 1586.5Q1037 1608 1042 1635Q1044 1642 1047.0 1647.5Q1050 1653 1058 1653Q1069 1653 1080.0 1628.5Q1091 1604 1099.5 1572.5Q1108 1541 1113.5 1510.5Q1119 1480 1119 1468Q1119 1429 1106.0 1399.0Q1093 1369 1077.0 1339.0Q1061 1309 1048.0 1273.5Q1035 1238 1035 1188ZM664 550Q664 519 667.0 488.5Q670 458 675 428Q678 414 678 401Q678 388 673.0 374.0Q668 360 651 360Q639 360 629.0 365.5Q619 371 610 379Q595 391 581.5 406.0Q568 421 555 435Q526 466 498.0 502.0Q470 538 448.5 577.0Q427 616 413.5 658.0Q400 700 400 744Q400 786 412.0 824.5Q424 863 442.5 899.0Q461 935 484.5 969.0Q508 1003 532 1035Q559 1072 582.0 1106.0Q605 1140 624.0 1175.0Q643 1210 656.5 1248.0Q670 1286 678 1333Q680 1347 687.5 1356.5Q695 1366 711 1366Q725 1366 733.0 1355.0Q741 1344 746 1333Q762 1302 777.0 1266.0Q792 1230 804.0 1192.0Q816 1154 823.5 1115.5Q831 1077 831 1042Q831 995 818.5 957.5Q806 920 787.5 885.5Q769 851 747.5 817.0Q726 783 707.5 744.0Q689 705 676.5 657.5Q664 610 664 550Z" style="fill:#9b9b9b;stroke:none" transform="scale(1,-1) translate(0,-256)" /></svg>