<?xml version="1.0" encoding="utf-8" ?>
<svg baseProfile="full" height="256" version="1.1" width="256" xmlns="http://www.w3.org/2000/svg" xmlns:ev="http://www.w3.org/2001/xml-events" xmlns:xlink="http://www.w3.org/1999/xlink"><defs /><path d="M400 180Q400 202 408.5 221.5Q417 241 432.0 256.0Q447 271 466.5 279.5Q486 288 508 288H687Q675 272 661.5 255.5Q648 239 636.0 221.5Q624 204 616.5 185.0Q609 166 609 144Q609 123 616.5 105.5Q624 88 633.0 71.5Q642 55 649.5 38.0Q657 21 657 0Q657 -21 649.5 -38.0Q642 -55 633.0 -71.5Q624 -88 616.5 -105.5Q609 -123 609 -144Q609 -165 616.5 -184.0Q624 -203 636.0 -220.5Q648 -238 661.5 -254.5Q675 -271 687 -287H508Q485 -287 465.5 -278.5Q446 -270 431.5 -255.5Q417 -241 408.5 -221.5Q400 -202 400 -179Z" style="fill:#636363;stroke:none" transform="scale(1,-1) translate(0,-256)" /></svg>