<?xml version="1.0" encoding="utf-8" ?>
<svg baseProfile="full" height="256" version="1.1" width="256" xmlns="http://www.w3.org/2000/svg" xmlns:ev="http://www.w3.org/2001/xml-events" xmlns:xlink="http://www.w3.org/1999/xlink"><defs /><path d="M1478 1312Q1478 1286 1467.0 1263.0Q1456 1240 1437 1223L1433 1222Q1431 1222 1427.0 1228.5Q1423 1235 1418.5 1243.0Q1414 1251 1410.0 1258.5Q1406 1266 1405 1269Q1403 1266 1400.0 1258.5Q1397 1251 1392.5 1242.5Q1388 1234 1384.0 1228.0Q1380 1222 1377 1222Q1375 1222 1374 1223Q1355 1236 1344.5 1263.0Q1334 1290 1334 1312V1380H1478Z" style="fill:#f4f4f4;stroke:none" transform="scale(1,-1) translate(0,-256)" /></svg>