<?xml version="1.0" encoding="utf-8" ?>
<svg baseProfile="full" height="256" version="1.1" width="256" xmlns="http://www.w3.org/2000/svg" xmlns:ev="http://www.w3.org/2001/xml-events" xmlns:xlink="http://www.w3.org/1999/xlink"><defs /><path d="M1437 1678Q1459 1678 1479.0 1669.0Q1499 1660 1514.0 1645.0Q1529 1630 1537.5 1610.0Q1546 1590 1546 1568Q1546 1527 1542.5 1486.0Q1539 1445 1536 1404Q1535 1385 1525.5 1368.5Q1516 1352 1501.5 1340.0Q1487 1328 1469.0 1321.5Q1451 1315 1433 1315H1383Q1365 1315 1347.0 1321.5Q1329 1328 1315.0 1340.0Q1301 1352 1291.0 1368.5Q1281 1385 1280 1404Q1277 1445 1273.0 1486.0Q1269 1527 1269 1568Q1269 1591 1277.5 1611.0Q1286 1631 1300.5 1646.0Q1315 1661 1335.0 1669.5Q1355 1678 1378 1678H1437Z" style="fill:#ffc83d;stroke:none" transform="scale(1,-1) translate(0,-256)" /></svg>