<?xml version="1.0" encoding="utf-8" ?>
<svg baseProfile="full" height="256" version="1.1" width="256" xmlns="http://www.w3.org/2000/svg" xmlns:ev="http://www.w3.org/2001/xml-events" xmlns:xlink="http://www.w3.org/1999/xlink"><defs /><path d="M1309 1538Q1310 1537 1310.5 1537.5Q1311 1538 1310 1539Q1321 1542 1329.0 1546.5Q1337 1551 1350 1551Q1354 1551 1360.0 1550.0Q1366 1549 1366 1544Q1366 1541 1364.5 1538.0Q1363 1535 1360 1535Q1345 1535 1338.5 1534.0Q1332 1533 1319 1526V1525Q1318 1525 1317.0 1524.5Q1316 1524 1315 1524Q1310 1524 1309.0 1526.0Q1308 1528 1306 1532Q1306 1535 1309 1538ZM1505 1532Q1502 1524 1497 1524Q1496 1524 1493.5 1524.5Q1491 1525 1492 1526Q1485 1529 1480.5 1531.0Q1476 1533 1472.0 1534.0Q1468 1535 1463.5 1535.0Q1459 1535 1452 1535Q1445 1535 1445 1543Q1445 1549 1451.0 1550.0Q1457 1551 1461 1551Q1468 1551 1480.5 1548.0Q1493 1545 1498 1540L1501 1539Q1505 1535 1505 1532Z" style="fill:#d37034;stroke:none" transform="scale(1,-1) translate(0,-256)" /></svg>