<?xml version="1.0" encoding="utf-8" ?>
<svg baseProfile="full" height="256" version="1.1" width="256" xmlns="http://www.w3.org/2000/svg" xmlns:ev="http://www.w3.org/2001/xml-events" xmlns:xlink="http://www.w3.org/1999/xlink"><defs /><path d="M1267 1635Q1268 1650 1270.0 1665.5Q1272 1681 1277.5 1694.5Q1283 1708 1294.0 1716.5Q1305 1725 1325 1725Q1336 1725 1346.0 1721.0Q1356 1717 1366.0 1712.5Q1376 1708 1386.0 1704.5Q1396 1701 1407 1701Q1418 1701 1427.5 1704.5Q1437 1708 1446.5 1712.5Q1456 1717 1465.5 1721.0Q1475 1725 1486 1725Q1506 1725 1517.0 1716.5Q1528 1708 1533.5 1694.5Q1539 1681 1540.5 1665.5Q1542 1650 1544 1635L1535 1612L1545 1590Q1550 1590 1558.5 1590.5Q1567 1591 1575.0 1590.0Q1583 1589 1588.5 1584.5Q1594 1580 1594 1571Q1594 1563 1588.5 1557.5Q1583 1552 1575 1552H1236Q1228 1552 1223.0 1557.5Q1218 1563 1218 1571Q1218 1580 1223.0 1584.5Q1228 1589 1235.5 1590.0Q1243 1591 1251.0 1590.5Q1259 1590 1265 1590L1277 1612ZM1440 1531H1528Q1535 1531 1536.0 1526.5Q1537 1522 1537 1517Q1537 1513 1533 1507Q1533 1486 1531.0 1471.5Q1529 1457 1522.5 1447.5Q1516 1438 1502.5 1434.0Q1489 1430 1466 1430Q1442 1430 1432.5 1441.5Q1423 1453 1419.5 1467.0Q1416 1481 1415.0 1492.5Q1414 1504 1408 1504Q1399 1504 1399.0 1494.0Q1399 1484 1399 1479Q1399 1464 1393.0 1454.0Q1387 1444 1377.5 1439.0Q1368 1434 1356.0 1432.0Q1344 1430 1332 1430Q1314 1430 1304.5 1437.0Q1295 1444 1290.0 1455.5Q1285 1467 1284.0 1480.5Q1283 1494 1283 1507Q1279 1513 1278.0 1513.5Q1277 1514 1277 1522Q1277 1531 1286 1531H1375Q1382 1531 1385.5 1528.5Q1389 1526 1392.0 1523.0Q1395 1520 1398.5 1517.5Q1402 1515 1407 1515Q1411 1515 1414.5 1517.5Q1418 1520 1421.5 1523.0Q1425 1526 1429.0 1528.5Q1433 1531 1440 1531ZM1348 1440Q1365 1440 1377.0 1452.0Q1389 1464 1389 1481V1500Q1389 1509 1382.5 1515.5Q1376 1522 1367 1522H1314Q1305 1522 1298.5 1515.5Q1292 1509 1292 1500V1481Q1292 1464 1304.0 1452.0Q1316 1440 1333 1440ZM1482 1440Q1499 1440 1511.5 1452.0Q1524 1464 1524 1481V1500Q1524 1509 1517.5 1515.5Q1511 1522 1502 1522H1448Q1439 1522 1432.5 1515.5Q1426 1509 1426 1500V1481Q1426 1464 1438.5 1452.0Q1451 1440 1468 1440Z" style="fill:#533566;stroke:none" transform="scale(1,-1) translate(0,-256)" /></svg>