<?xml version="1.0" encoding="utf-8" ?>
<svg baseProfile="full" height="256" version="1.1" width="256" xmlns="http://www.w3.org/2000/svg" xmlns:ev="http://www.w3.org/2001/xml-events" xmlns:xlink="http://www.w3.org/1999/xlink"><defs /><path d="M1524 1240Q1528 1240 1533.5 1240.5Q1539 1241 1542 1239L1548 1233Q1549 1197 1538.5 1161.0Q1528 1125 1509.5 1093.5Q1491 1062 1464.5 1036.0Q1438 1010 1406 993Q1374 1010 1348.0 1035.5Q1322 1061 1303.0 1091.5Q1284 1122 1273.5 1157.0Q1263 1192 1263 1228Q1263 1230 1263.5 1230.5Q1264 1231 1264 1233Q1265 1235 1269 1239Q1272 1241 1277.5 1240.5Q1283 1240 1287 1240L1291 1242L1293 1246V1322Q1293 1335 1300.5 1344.0Q1308 1353 1320 1358Q1340 1365 1362.5 1368.0Q1385 1371 1406 1371Q1452 1371 1491 1358Q1503 1354 1510.5 1345.5Q1518 1337 1518 1323V1246L1520 1242L1524 1240Z" style="fill:#321b41;stroke:none" transform="scale(1,-1) translate(0,-256)" /></svg>