<?xml version="1.0" encoding="utf-8" ?>
<svg baseProfile="full" height="256" version="1.1" width="256" xmlns="http://www.w3.org/2000/svg" xmlns:ev="http://www.w3.org/2001/xml-events" xmlns:xlink="http://www.w3.org/1999/xlink"><defs /><path d="M1321 1481Q1321 1463 1308.0 1450.5Q1295 1438 1277 1438Q1259 1438 1246.0 1450.5Q1233 1463 1233 1481Q1233 1499 1246.0 1512.0Q1259 1525 1277 1525Q1296 1525 1308.5 1512.5Q1321 1500 1321 1481ZM1577 1481Q1577 1463 1564.0 1450.5Q1551 1438 1533 1438Q1515 1438 1502.0 1450.5Q1489 1463 1489 1481Q1489 1499 1502.0 1512.0Q1515 1525 1533 1525Q1551 1525 1564.0 1512.0Q1577 1499 1577 1481Z" style="fill:#fdbb11;stroke:none" transform="scale(1,-1) translate(0,-256)" /></svg>