<?xml version="1.0" encoding="utf-8" ?>
<svg baseProfile="full" height="256" version="1.1" width="256" xmlns="http://www.w3.org/2000/svg" xmlns:ev="http://www.w3.org/2001/xml-events" xmlns:xlink="http://www.w3.org/1999/xlink"><defs /><path d="M1360 941Q1360 934 1355.0 929.0Q1350 924 1343 924Q1335 924 1330.0 928.5Q1325 933 1325 941Q1325 949 1330.5 953.5Q1336 958 1343 958Q1350 958 1355.0 953.0Q1360 948 1360 941ZM1360 852Q1360 845 1355.5 839.5Q1351 834 1343 834Q1335 834 1330.0 839.0Q1325 844 1325 852Q1325 860 1330.5 864.5Q1336 869 1343 869Q1350 869 1355.0 864.0Q1360 859 1360 852Z" style="fill:#321b41;stroke:none" transform="scale(1,-1) translate(0,-256)" /></svg>