<?xml version="1.0" encoding="utf-8" ?>
<svg baseProfile="full" height="256" version="1.1" width="256" xmlns="http://www.w3.org/2000/svg" xmlns:ev="http://www.w3.org/2001/xml-events" xmlns:xlink="http://www.w3.org/1999/xlink"><defs /><path d="M1333 1440Q1316 1440 1304.0 1452.0Q1292 1464 1292 1481V1500Q1292 1509 1298.5 1515.5Q1305 1522 1314 1522H1367Q1376 1522 1382.5 1515.5Q1389 1509 1389 1500V1481Q1389 1464 1377.0 1452.0Q1365 1440 1348 1440ZM1468 1440Q1451 1440 1438.5 1452.0Q1426 1464 1426 1481V1500Q1426 1509 1432.5 1515.5Q1439 1522 1448 1522H1502Q1511 1522 1517.5 1515.5Q1524 1509 1524 1500V1481Q1524 1464 1511.5 1452.0Q1499 1440 1482 1440Z" style="fill:#321b41;stroke:none" transform="scale(1,-1) translate(0,-256)" /></svg>