<?xml version="1.0" encoding="utf-8" ?>
<svg baseProfile="full" height="256" version="1.1" width="256" xmlns="http://www.w3.org/2000/svg" xmlns:ev="http://www.w3.org/2001/xml-events" xmlns:xlink="http://www.w3.org/1999/xlink"><defs /><path d="M1405 1401Q1416 1401 1428.0 1405.5Q1440 1410 1446 1410Q1450 1410 1450 1406Q1450 1401 1444.5 1396.0Q1439 1391 1432.0 1387.5Q1425 1384 1417.0 1382.0Q1409 1380 1405 1380Q1400 1380 1392.5 1382.0Q1385 1384 1378.0 1387.5Q1371 1391 1365.5 1396.0Q1360 1401 1360 1406Q1360 1411 1364 1411Q1371 1411 1382.5 1406.0Q1394 1401 1405 1401Z" style="fill:#990839;stroke:none" transform="scale(1,-1) translate(0,-256)" /></svg>