<?xml version="1.0" encoding="utf-8" ?>
<svg baseProfile="full" height="256" version="1.1" width="256" xmlns="http://www.w3.org/2000/svg" xmlns:ev="http://www.w3.org/2001/xml-events" xmlns:xlink="http://www.w3.org/1999/xlink"><defs /><path d="M1526 653Q1563 653 1596.0 639.0Q1629 625 1654.0 600.0Q1679 575 1693.0 542.0Q1707 509 1707 472Q1707 411 1670 362Q1707 314 1707 253Q1707 215 1693.0 182.5Q1679 150 1654.0 125.0Q1629 100 1596.0 86.0Q1563 72 1526 72Q1496 72 1475.0 93.0Q1454 114 1454 144Q1454 174 1475.0 195.0Q1496 216 1526 216Q1541 216 1552.0 227.0Q1563 238 1563 253Q1563 269 1552.5 280.0Q1542 291 1526 291Q1497 291 1475.5 312.0Q1454 333 1454 362Q1454 392 1475.0 413.0Q1496 434 1526 434Q1542 434 1552.5 445.0Q1563 456 1563 472Q1563 487 1552.0 498.0Q1541 509 1526 509Q1496 509 1475.0 530.0Q1454 551 1454 581Q1454 611 1475.0 632.0Q1496 653 1526 653Z" style="fill:#402a32;stroke:none" transform="scale(1,-1) translate(0,-256)" /></svg>