<?xml version="1.0" encoding="utf-8" ?>
<svg baseProfile="full" height="256" version="1.1" width="256" xmlns="http://www.w3.org/2000/svg" xmlns:ev="http://www.w3.org/2001/xml-events" xmlns:xlink="http://www.w3.org/1999/xlink"><defs /><path d="M328 719Q328 749 349.0 770.0Q370 791 400 791H687Q717 791 738.0 770.0Q759 749 759 719Q759 689 738.0 668.0Q717 647 687 647H400Q370 647 349.0 668.0Q328 689 328 719ZM328 431Q328 461 349.0 482.0Q370 503 400 503H615Q645 503 666.0 482.0Q687 461 687 431Q687 402 665.5 381.0Q644 360 615 360H400Q371 360 349.5 381.0Q328 402 328 431ZM400 216Q370 216 349.0 195.0Q328 174 328 144Q328 114 349.0 93.0Q370 72 400 72H543Q573 72 594.0 93.0Q615 114 615 144Q615 174 594.0 195.0Q573 216 543 216Z" style="fill:#00a6ed;stroke:none" transform="scale(1,-1) translate(0,-256)" /></svg>