<?xml version="1.0" encoding="utf-8" ?>
<svg baseProfile="full" height="256" version="1.1" width="256" xmlns="http://www.w3.org/2000/svg" xmlns:ev="http://www.w3.org/2001/xml-events" xmlns:xlink="http://www.w3.org/1999/xlink"><defs /><path d="M2436 935Q2461 935 2482.5 925.5Q2504 916 2520.0 900.0Q2536 884 2545.5 862.5Q2555 841 2555 816Q2555 811 2555.0 807.0Q2555 803 2554 798L2412 -172Q2408 -196 2396.0 -217.0Q2384 -238 2366.5 -253.5Q2349 -269 2326.5 -278.0Q2304 -287 2279 -287H877Q852 -287 830.5 -278.0Q809 -269 793.0 -253.0Q777 -237 767.5 -215.5Q758 -194 758 -169Q758 -164 758.0 -160.0Q758 -156 759 -151L901 819Q905 843 917.0 864.5Q929 886 946.5 901.5Q964 917 986.5 926.0Q1009 935 1034 935H2436Z" style="fill:#998ea4;stroke:none" transform="scale(1,-1) translate(0,-256)" /></svg>