<?xml version="1.0" encoding="utf-8" ?>
<svg baseProfile="full" height="256" version="1.1" width="256" xmlns="http://www.w3.org/2000/svg" xmlns:ev="http://www.w3.org/2001/xml-events" xmlns:xlink="http://www.w3.org/1999/xlink"><defs /><path d="M1841 1722Q1818 1704 1803.0 1675.5Q1788 1647 1779.5 1614.5Q1771 1582 1768.0 1548.5Q1765 1515 1765 1488V863H1696V1541Q1696 1574 1706.5 1604.0Q1717 1634 1735.5 1658.0Q1754 1682 1781.0 1699.0Q1808 1716 1841 1722ZM1047 1271V1178Q1026 1156 1013.0 1129.5Q1000 1103 1000 1072Q1000 1021 998.0 969.5Q996 918 996 867Q996 852 999.5 833.0Q1003 814 1009.0 794.0Q1015 774 1023.0 756.0Q1031 738 1040 726Q1064 691 1105.5 672.0Q1147 653 1189 653Q1224 653 1256.0 665.5Q1288 678 1314 701Q1298 736 1289.5 772.5Q1281 809 1281 847V1145Q1281 1162 1282.5 1179.5Q1284 1197 1286 1214Q1328 1190 1352 1152Q1351 1144 1351.0 1136.5Q1351 1129 1351 1121V897Q1351 871 1352.0 841.5Q1353 812 1360 787Q1384 815 1408.5 830.0Q1433 845 1459.5 852.0Q1486 859 1515.5 859.5Q1545 860 1579 860Q1546 854 1513.0 839.0Q1480 824 1453.0 801.5Q1426 779 1409.0 749.5Q1392 720 1392 683Q1392 661 1394.0 638.5Q1396 616 1406 595Q1420 563 1449.5 545.5Q1479 528 1514.5 520.0Q1550 512 1587.0 510.0Q1624 508 1653 508Q1702 508 1748.5 499.0Q1795 490 1831.0 468.5Q1867 447 1889.0 409.5Q1911 372 1911 315Q1911 289 1898.5 269.0Q1886 249 1866.5 235.0Q1847 221 1823.0 213.5Q1799 206 1776 206Q1752 206 1733 214L1696 358Q1691 359 1681 359Q1642 359 1604.0 355.0Q1566 351 1528 343Q1473 332 1427.0 316.0Q1381 300 1339.5 277.0Q1298 254 1260.0 224.0Q1222 194 1182 155Q1176 149 1170.0 146.0Q1164 143 1155 143Q1140 143 1130.0 153.0Q1120 163 1120 179Q1120 192 1129 203Q1175 258 1237.5 300.0Q1300 342 1370.0 370.0Q1440 398 1514.0 413.0Q1588 428 1659 430Q1645 432 1627.5 432.5Q1610 433 1592.0 432.5Q1574 432 1556.5 431.5Q1539 431 1524 431Q1467 431 1417.5 459.0Q1368 487 1339 536Q1331 549 1326.5 561.0Q1322 573 1317 587Q1317 588 1315 590Q1297 565 1278.0 548.0Q1259 531 1237.5 521.0Q1216 511 1191.0 507.0Q1166 503 1135 503Q1067 503 1025.5 540.5Q984 578 961.5 633.5Q939 689 931.5 752.0Q924 815 924 867Q924 898 924.5 928.0Q925 958 926 989Q927 1038 929.0 1076.5Q931 1115 942.5 1148.0Q954 1181 978.0 1210.5Q1002 1240 1047 1271Z" style="fill:#d67d00;stroke:none" transform="scale(1,-1) translate(0,-256)" /></svg>