<?xml version="1.0" encoding="utf-8" ?>
<svg baseProfile="full" height="256" version="1.1" width="256" xmlns="http://www.w3.org/2000/svg" xmlns:ev="http://www.w3.org/2001/xml-events" xmlns:xlink="http://www.w3.org/1999/xlink"><defs /><path d="M2367 1725Q2387 1725 2400.5 1711.0Q2414 1697 2414 1677Q2414 1666 2410.5 1657.5Q2407 1649 2400 1640Q2389 1626 2377.5 1613.5Q2366 1601 2355 1588Q2330 1559 2306.0 1529.5Q2282 1500 2259 1470Q2244 1451 2230.0 1432.5Q2216 1414 2202 1394L2181 1365Q2134 1330 2080.5 1294.0Q2027 1258 1982 1221Q1943 1189 1909.0 1149.5Q1875 1110 1836 1078Q1825 1069 1811.0 1060.0Q1797 1051 1782.0 1041.5Q1767 1032 1752.0 1023.0Q1737 1014 1725 1006Q1717 1006 1712.5 1001.0Q1708 996 1708 988Q1708 976 1725.0 950.0Q1742 924 1762.0 894.5Q1782 865 1799.0 836.5Q1816 808 1816 789Q1816 781 1804.0 754.5Q1792 728 1776.0 698.0Q1760 668 1745.5 640.0Q1731 612 1725 601Q1706 564 1679.5 522.0Q1653 480 1622.0 440.0Q1591 400 1557.0 364.0Q1523 328 1490 303Q1480 295 1470.5 291.5Q1461 288 1449 288H1123Q1115 288 1115 280Q1115 276 1136.5 265.0Q1158 254 1185.5 241.0Q1213 228 1239.5 216.5Q1266 205 1276 200Q1287 195 1287 182Q1287 170 1276 164Q1234 140 1180.5 122.0Q1127 104 1070.5 92.0Q1014 80 957.5 74.0Q901 68 853 68H571Q570 83 573.5 97.0Q577 111 580 126Q571 112 562.0 97.5Q553 83 545 68V301Q545 496 595.5 673.0Q646 850 739.5 1004.0Q833 1158 965.5 1286.0Q1098 1414 1263 1510L1479 1435L1622 1662Q1731 1694 1842.5 1709.5Q1954 1725 2067 1725H2367Z" style="fill:#f3ad61;stroke:none" transform="scale(1,-1) translate(0,-256)" /></svg>