<?xml version="1.0" encoding="utf-8" ?>
<svg baseProfile="full" height="256" version="1.1" width="256" xmlns="http://www.w3.org/2000/svg" xmlns:ev="http://www.w3.org/2001/xml-events" xmlns:xlink="http://www.w3.org/1999/xlink"><defs /><path d="M2042 1591Q2057 1591 2067.0 1579.5Q2077 1568 2077 1554Q2077 1542 2071.0 1534.5Q2065 1527 2055 1522Q1994 1491 1933.0 1462.0Q1872 1433 1812 1399Q1641 1301 1485.5 1182.5Q1330 1064 1190 924Q787 521 565 -3Q548 -44 532.0 -84.0Q516 -124 501 -166Q493 -189 486.0 -213.5Q479 -238 470 -261Q460 -287 435 -287Q420 -287 409.5 -276.0Q399 -265 399 -250Q399 -243 405.0 -223.0Q411 -203 421.0 -175.5Q431 -148 442.5 -116.5Q454 -85 465.0 -57.0Q476 -29 485.0 -7.0Q494 15 498 25Q607 284 763.5 517.5Q920 751 1115.5 950.5Q1311 1150 1540.5 1311.5Q1770 1473 2027 1588Q2034 1591 2042 1591Z" style="fill:#d3883e;stroke:none" transform="scale(1,-1) translate(0,-256)" /></svg>