<?xml version="1.0" encoding="utf-8" ?>
<svg baseProfile="full" height="256" version="1.1" width="256" xmlns="http://www.w3.org/2000/svg" xmlns:ev="http://www.w3.org/2001/xml-events" xmlns:xlink="http://www.w3.org/1999/xlink"><defs /><path d="M1083 1653Q1119 1653 1151.5 1639.0Q1184 1625 1208.5 1601.0Q1233 1577 1247.5 1545.0Q1262 1513 1262 1476L1263 1195Q1263 1176 1276.5 1163.0Q1290 1150 1309 1150Q1344 1150 1374.5 1136.5Q1405 1123 1428.0 1100.0Q1451 1077 1464.5 1046.5Q1478 1016 1478 981V625Q1478 562 1456.5 505.5Q1435 449 1396.5 404.5Q1358 360 1305.0 330.0Q1252 300 1190 291V-265Q1190 -274 1183.5 -280.5Q1177 -287 1168 -287H1069Q1056 -287 1051.0 -275.5Q1046 -264 1045.0 -249.0Q1044 -234 1045.5 -219.0Q1047 -204 1047 -196Q1012 -215 975 -215Q945 -215 919.0 -204.0Q893 -193 873.5 -173.5Q854 -154 842.5 -128.0Q831 -102 831 -72Q831 -42 842.0 -16.0Q853 10 872.5 29.5Q892 49 918.5 60.5Q945 72 975 72Q1012 72 1047 53V288H835Q782 288 735.0 308.5Q688 329 653.0 364.0Q618 399 597.5 446.0Q577 493 577 546Q577 569 580.0 596.0Q583 623 586.5 650.5Q590 678 594.5 705.5Q599 733 602 756Q605 778 615.5 798.0Q626 818 642.0 832.0Q658 846 678.5 854.5Q699 863 722 863H1120L1118 1168Q1118 1190 1103.0 1206.0Q1088 1222 1065 1222H759Q729 1222 703.0 1233.5Q677 1245 657.5 1264.5Q638 1284 626.5 1310.0Q615 1336 615 1366Q615 1396 626.5 1422.0Q638 1448 657.5 1467.5Q677 1487 703.0 1498.5Q729 1510 759 1510H850Q875 1510 892.5 1522.0Q910 1534 922 1555Q948 1600 988.5 1626.5Q1029 1653 1083 1653ZM2053 -215Q2023 -215 1997.0 -204.0Q1971 -193 1951.5 -173.5Q1932 -154 1920.5 -128.0Q1909 -102 1909 -72Q1909 -42 1920.0 -16.0Q1931 10 1950.5 29.5Q1970 49 1996.5 60.5Q2023 72 2053 72Q2083 72 2109.0 60.5Q2135 49 2154.5 29.5Q2174 10 2185.5 -16.0Q2197 -42 2197 -72Q2197 -102 2185.5 -128.0Q2174 -154 2154.5 -173.5Q2135 -193 2109.0 -204.0Q2083 -215 2053 -215Z" style="fill:#d3d3d3;stroke:none" transform="scale(1,-1) translate(0,-256)" /></svg>