<?xml version="1.0" encoding="utf-8" ?>
<svg baseProfile="full" height="256" version="1.1" width="256" xmlns="http://www.w3.org/2000/svg" xmlns:ev="http://www.w3.org/2001/xml-events" xmlns:xlink="http://www.w3.org/1999/xlink"><defs /><path d="M759 1100Q759 1115 769.0 1126.0Q779 1137 795 1137Q811 1137 821.0 1126.0Q831 1115 831 1100V1057Q831 1042 821.0 1030.5Q811 1019 795 1019Q779 1019 769.0 1030.5Q759 1042 759 1057ZM436 1006Q421 1006 410.5 1016.5Q400 1027 400 1042Q400 1057 410.5 1067.5Q421 1078 436 1078H472Q487 1078 497.5 1067.5Q508 1057 508 1042Q508 1027 497.5 1016.5Q487 1006 472 1006Z" style="fill:#212121;stroke:none" transform="scale(1,-1) translate(0,-256)" /></svg>