<?xml version="1.0" encoding="utf-8" ?>
<svg baseProfile="full" height="256" version="1.1" width="256" xmlns="http://www.w3.org/2000/svg" xmlns:ev="http://www.w3.org/2001/xml-events" xmlns:xlink="http://www.w3.org/1999/xlink"><defs /><path d="M1622 441V647H1981V316Q1981 298 1991.5 287.0Q2002 276 2018.0 267.5Q2034 259 2052.5 251.5Q2071 244 2087.0 234.0Q2103 224 2113.5 209.5Q2124 195 2124 172V-265Q2124 -274 2117.5 -280.5Q2111 -287 2102 -287H2003Q1994 -287 1987.0 -280.5Q1980 -274 1980 -265V118Q1980 140 1953.5 154.5Q1927 169 1887.0 183.0Q1847 197 1801.0 214.5Q1755 232 1715.0 260.5Q1675 289 1648.5 332.0Q1622 375 1622 441ZM903 360H1047V-265Q1047 -274 1040.0 -280.5Q1033 -287 1024 -287H925Q916 -287 909.5 -280.5Q903 -274 903 -265Z" style="fill:#636363;stroke:none" transform="scale(1,-1) translate(0,-256)" /></svg>