<?xml version="1.0" encoding="utf-8" ?>
<svg baseProfile="full" height="256" version="1.1" width="256" xmlns="http://www.w3.org/2000/svg" xmlns:ev="http://www.w3.org/2001/xml-events" xmlns:xlink="http://www.w3.org/1999/xlink"><defs /><path d="M759 1294H1118V1006H1964Q2012 1006 2054.5 987.5Q2097 969 2128.5 937.5Q2160 906 2178.5 864.0Q2197 822 2197 774V316Q2197 299 2207.5 288.0Q2218 277 2234.0 269.0Q2250 261 2268.5 253.5Q2287 246 2303.0 235.5Q2319 225 2329.5 210.0Q2340 195 2340 172V-265Q2340 -275 2333.0 -281.0Q2326 -287 2317 -287H2218Q2209 -287 2202.5 -280.5Q2196 -274 2196 -265V118Q2196 143 2172 153L1977 232Q1945 245 1919.5 266.5Q1894 288 1875.5 315.5Q1857 343 1847.0 375.0Q1837 407 1837 441V659Q1837 627 1825.0 598.5Q1813 570 1792.0 549.0Q1771 528 1742.5 515.5Q1714 503 1682 503H759V863H579Q541 863 508.5 877.0Q476 891 452.0 915.5Q428 940 414.0 973.0Q400 1006 400 1043Q400 1058 410.5 1068.0Q421 1078 436 1078H631Q656 1078 676.5 1093.0Q697 1108 705 1132Z" style="fill:#9b9b9b;stroke:none" transform="scale(1,-1) translate(0,-256)" /></svg>