<?xml version="1.0" encoding="utf-8" ?>
<svg baseProfile="full" height="256" version="1.1" width="256" xmlns="http://www.w3.org/2000/svg" xmlns:ev="http://www.w3.org/2001/xml-events" xmlns:xlink="http://www.w3.org/1999/xlink"><defs /><path d="M1477 1725Q1507 1725 1533.0 1713.5Q1559 1702 1578.5 1682.5Q1598 1663 1609.5 1637.0Q1621 1611 1621 1581Q1621 1574 1621.0 1568.0Q1621 1562 1619 1555L1493 836Q1478 748 1434.0 674.0Q1390 600 1325.5 546.0Q1261 492 1180.5 461.5Q1100 431 1011 431Q922 431 841.0 461.5Q760 492 695.5 546.0Q631 600 587.0 674.0Q543 748 528 836L402 1555Q400 1562 400.0 1568.0Q400 1574 400 1581Q400 1611 411.5 1637.0Q423 1663 442.5 1682.5Q462 1702 488.5 1713.5Q515 1725 544 1725Q563 1725 587.5 1717.5Q612 1710 637.0 1700.0Q662 1690 686.0 1678.5Q710 1667 728 1660Q865 1602 1011 1602Q1157 1602 1294 1660Q1312 1668 1335.5 1679.0Q1359 1690 1384.0 1700.5Q1409 1711 1433.0 1718.0Q1457 1725 1477 1725ZM831 1213Q881 1213 911.5 1187.0Q942 1161 962 1119Q964 1114 968 1114Q974 1114 974.5 1121.5Q975 1129 975 1133Q975 1163 964.5 1192.0Q954 1221 935.0 1243.5Q916 1266 889.5 1280.0Q863 1294 831 1294Q795 1294 768.0 1279.0Q741 1264 723.0 1239.5Q705 1215 696.0 1184.0Q687 1153 687 1121Q687 1114 694 1114Q697 1114 700 1119Q712 1139 724.0 1156.5Q736 1174 751.0 1186.5Q766 1199 785.5 1206.0Q805 1213 831 1213ZM1011 819Q928 819 849.0 848.5Q770 878 710 938Q696 951 685.5 965.5Q675 980 664 994Q655 1006 641 1006Q631 1006 623.0 1000.5Q615 995 615 984Q615 906 650.0 844.0Q685 782 741.5 738.0Q798 694 869.0 670.5Q940 647 1011 647Q1082 647 1152.5 670.5Q1223 694 1279.5 737.5Q1336 781 1371.0 843.5Q1406 906 1406 984Q1406 995 1398.5 1000.5Q1391 1006 1380 1006Q1366 1006 1358 995Q1347 980 1336.5 966.0Q1326 952 1312 938Q1253 878 1173.5 848.5Q1094 819 1011 819ZM1190 1213Q1239 1213 1270.0 1186.5Q1301 1160 1321 1119Q1323 1114 1327 1114Q1334 1114 1334 1121V1145Q1334 1173 1322.0 1200.0Q1310 1227 1290.5 1248.0Q1271 1269 1244.5 1281.5Q1218 1294 1190 1294Q1154 1294 1127.5 1279.0Q1101 1264 1083.0 1239.0Q1065 1214 1056.0 1183.0Q1047 1152 1047 1121Q1047 1114 1053 1114Q1056 1114 1059 1119Q1071 1139 1083.0 1156.5Q1095 1174 1110.5 1186.5Q1126 1199 1145.0 1206.0Q1164 1213 1190 1213Z" style="fill:#00a6ed;stroke:none" transform="scale(1,-1) translate(0,-256)" /></svg>