<?xml version="1.0" encoding="utf-8" ?>
<svg baseProfile="full" height="256" version="1.1" width="256" xmlns="http://www.w3.org/2000/svg" xmlns:ev="http://www.w3.org/2001/xml-events" xmlns:xlink="http://www.w3.org/1999/xlink"><defs /><path d="M1236 589Q1286 616 1324.0 658.0Q1362 700 1390.0 750.5Q1418 801 1436.0 856.0Q1454 911 1465 964Q1549 926 1628.5 904.5Q1708 883 1801 883Q1948 883 2084 941Q2102 949 2125.5 960.0Q2149 971 2174.0 981.5Q2199 992 2223.0 999.5Q2247 1007 2267 1007Q2297 1007 2323.0 995.5Q2349 984 2369.0 964.0Q2389 944 2400.5 918.0Q2412 892 2412 862Q2412 855 2412.0 849.0Q2412 843 2410 836L2284 117Q2269 29 2224.5 -45.0Q2180 -119 2115.5 -173.0Q2051 -227 1970.5 -257.0Q1890 -287 1801 -287Q1712 -287 1631.0 -257.0Q1550 -227 1486.0 -173.0Q1422 -119 1378.0 -45.0Q1334 29 1319 117ZM1621 495Q1646 495 1665.5 487.5Q1685 480 1700.5 467.5Q1716 455 1728.5 437.5Q1741 420 1752 400Q1754 396 1758 396Q1765 396 1765 402V426Q1765 454 1753.0 481.0Q1741 508 1721.5 529.0Q1702 550 1675.5 562.5Q1649 575 1621 575Q1589 575 1562.5 561.0Q1536 547 1517.0 524.5Q1498 502 1488.0 473.0Q1478 444 1478 414Q1478 410 1478.0 403.0Q1478 396 1484 396Q1489 396 1491 400Q1502 420 1514.0 437.5Q1526 455 1541.5 467.5Q1557 480 1576.5 487.5Q1596 495 1621 495ZM1801 171Q1882 171 1953.0 136.0Q2024 101 2075 39Q2088 24 2097.0 9.0Q2106 -6 2117 -23Q2121 -29 2125.0 -32.5Q2129 -36 2137 -36Q2148 -36 2154.5 -29.0Q2161 -22 2161 -12Q2161 63 2133.5 130.5Q2106 198 2057.5 249.0Q2009 300 1943.5 330.0Q1878 360 1802 360Q1725 360 1659.5 330.0Q1594 300 1545.5 249.0Q1497 198 1469.5 130.5Q1442 63 1442 -12Q1442 -22 1448.5 -29.0Q1455 -36 1465 -36Q1478 -36 1486 -23Q1497 -7 1506.0 8.5Q1515 24 1528 39Q1579 102 1649.5 136.5Q1720 171 1801 171ZM1982 495Q2007 495 2026.5 487.5Q2046 480 2061.5 467.5Q2077 455 2089.5 437.5Q2102 420 2113 400Q2115 396 2119 396Q2126 396 2126 402V426Q2126 454 2114.0 481.0Q2102 508 2082.5 529.0Q2063 550 2036.5 562.5Q2010 575 1982 575Q1950 575 1923.5 561.0Q1897 547 1878.0 524.5Q1859 502 1849.0 473.0Q1839 444 1839 414Q1839 410 1839.0 403.0Q1839 396 1845 396Q1849 396 1851 400Q1871 442 1902.0 468.5Q1933 495 1982 495Z" style="fill:#ffb02e;stroke:none" transform="scale(1,-1) translate(0,-256)" /></svg>