<?xml version="1.0" encoding="utf-8" ?>
<svg baseProfile="full" height="256" version="1.1" width="256" xmlns="http://www.w3.org/2000/svg" xmlns:ev="http://www.w3.org/2001/xml-events" xmlns:xlink="http://www.w3.org/1999/xlink"><defs /><path d="M2053 1725Q2083 1725 2104.0 1704.0Q2125 1683 2125 1653Q2125 1624 2103.5 1602.5Q2082 1581 2053 1581H759Q730 1581 708.5 1602.5Q687 1624 687 1653Q687 1683 708.0 1704.0Q729 1725 759 1725ZM2053 -144Q2082 -144 2103.5 -165.0Q2125 -186 2125 -215Q2125 -245 2104.0 -266.0Q2083 -287 2053 -287H759Q729 -287 708.0 -266.0Q687 -245 687 -215Q687 -186 708.5 -165.0Q730 -144 759 -144Z" style="fill:#9b9b9b;stroke:none" transform="scale(1,-1) translate(0,-256)" /></svg>