<?xml version="1.0" encoding="utf-8" ?>
<svg baseProfile="full" height="256" version="1.1" width="256" xmlns="http://www.w3.org/2000/svg" xmlns:ev="http://www.w3.org/2001/xml-events" xmlns:xlink="http://www.w3.org/1999/xlink"><defs /><path d="M1478 273Q1478 246 1493.5 224.5Q1509 203 1535 194Q1553 187 1572.0 183.0Q1591 179 1609 172Q1685 143 1751.5 94.0Q1818 45 1866 -21Q1874 -32 1878.5 -42.5Q1883 -53 1883 -67Q1883 -84 1876.0 -98.0Q1869 -112 1858.0 -122.0Q1847 -132 1832.0 -138.0Q1817 -144 1801 -144H1011Q978 -144 953.5 -121.0Q929 -98 929 -64Q929 -50 933.5 -38.0Q938 -26 946 -14Q968 18 997.0 47.0Q1026 76 1059.0 101.0Q1092 126 1128.0 145.5Q1164 165 1200 179Q1220 187 1238.5 191.5Q1257 196 1277 201Q1304 209 1319.0 226.5Q1334 244 1334 273V805Q1334 834 1319.0 852.0Q1304 870 1277 877Q1249 885 1222.5 892.5Q1196 900 1170 912Q1101 942 1045.0 987.0Q989 1032 947.0 1088.5Q905 1145 877.5 1211.5Q850 1278 838 1351Q837 1355 837 1362Q837 1377 843.0 1390.5Q849 1404 858.5 1414.5Q868 1425 881.5 1431.5Q895 1438 910 1438H1902Q1917 1438 1930.5 1431.5Q1944 1425 1953.5 1414.5Q1963 1404 1969.0 1390.5Q1975 1377 1975 1362Q1975 1355 1974 1351Q1962 1278 1934.5 1211.5Q1907 1145 1865.0 1088.5Q1823 1032 1767.0 987.0Q1711 942 1642 912Q1616 900 1589.5 892.5Q1563 885 1535 877Q1508 870 1493.0 852.0Q1478 834 1478 805V273Z" style="fill:#ffb02e;stroke:none" transform="scale(1,-1) translate(0,-256)" /></svg>