<?xml version="1.0" encoding="utf-8" ?>
<svg baseProfile="full" height="256" version="1.1" width="256" xmlns="http://www.w3.org/2000/svg" xmlns:ev="http://www.w3.org/2001/xml-events" xmlns:xlink="http://www.w3.org/1999/xlink"><defs /><path d="M1841 1371Q1841 1388 1839.0 1404.5Q1837 1421 1837 1438Q1837 1468 1858.5 1489.0Q1880 1510 1910 1510Q1938 1510 1953.5 1495.5Q1969 1481 1976.0 1460.0Q1983 1439 1984.0 1414.5Q1985 1390 1985 1370Q1985 1301 1968.5 1239.5Q1952 1178 1918.5 1126.5Q1885 1075 1834.5 1036.0Q1784 997 1717 975Q1706 971 1693 971Q1663 971 1642.5 992.5Q1622 1014 1622 1043Q1622 1067 1635.0 1084.5Q1648 1102 1670 1110Q1761 1145 1801.0 1210.0Q1841 1275 1841 1371ZM1585 503Q1593 503 1599.0 501.5Q1605 500 1612 498Q1695 467 1763.0 419.5Q1831 372 1879.5 309.0Q1928 246 1954.5 168.0Q1981 90 1981 0Q1981 -30 1960.0 -51.0Q1939 -72 1909 -72Q1879 -72 1858.0 -51.0Q1837 -30 1837 0Q1837 63 1819.0 121.5Q1801 180 1760 229Q1719 278 1667.5 309.0Q1616 340 1559 365Q1538 374 1526.0 391.0Q1514 408 1514 431Q1514 460 1535.0 481.5Q1556 503 1585 503Z" style="fill:#ffffff;stroke:none" transform="scale(1,-1) translate(0,-256)" /></svg>