<?xml version="1.0" encoding="utf-8" ?>
<svg baseProfile="full" height="256" version="1.1" width="256" xmlns="http://www.w3.org/2000/svg" xmlns:ev="http://www.w3.org/2001/xml-events" xmlns:xlink="http://www.w3.org/1999/xlink"><defs /><path d="M1543 1392Q1543 1377 1532.5 1366.5Q1522 1356 1507 1356Q1492 1356 1481.5 1366.5Q1471 1377 1471 1392Q1471 1406 1482.0 1416.5Q1493 1427 1507 1427Q1521 1427 1532.0 1416.5Q1543 1406 1543 1392ZM656 1003Q671 1003 681.0 1013.5Q691 1024 691 1039Q691 1054 681.0 1064.5Q671 1075 656 1075Q641 1075 630.5 1064.5Q620 1054 620 1039Q620 1024 630.5 1013.5Q641 1003 656 1003ZM1154 504Q1169 504 1179.5 514.5Q1190 525 1190 540Q1190 554 1179.0 564.5Q1168 575 1154 575Q1140 575 1129.5 564.5Q1119 554 1119 540Q1119 526 1129.5 515.0Q1140 504 1154 504ZM1037 1300Q1051 1300 1062.0 1310.5Q1073 1321 1073 1335Q1073 1350 1062.5 1360.5Q1052 1371 1037 1371Q1022 1371 1011.5 1360.5Q1001 1350 1001 1335Q1001 1321 1012.0 1310.5Q1023 1300 1037 1300ZM1308 742Q1308 727 1297.5 716.5Q1287 706 1272 706Q1257 706 1246.5 716.5Q1236 727 1236 742Q1236 757 1246.5 767.5Q1257 778 1272 778Q1287 778 1297.5 767.5Q1308 757 1308 742ZM857 885Q872 885 882.5 895.5Q893 906 893 921Q893 936 882.5 946.5Q872 957 857 957Q842 957 831.5 946.5Q821 936 821 921Q821 906 831.5 895.5Q842 885 857 885ZM1487 1156Q1487 1141 1476.5 1130.5Q1466 1120 1451 1120Q1437 1120 1426.5 1131.0Q1416 1142 1416 1156Q1416 1170 1426.5 1181.0Q1437 1192 1451 1192Q1466 1192 1476.5 1181.5Q1487 1171 1487 1156Z" style="fill:#402a32;stroke:none" transform="scale(1,-1) translate(0,-256)" /></svg>