<?xml version="1.0" encoding="utf-8" ?>
<svg baseProfile="full" height="256" version="1.1" width="256" xmlns="http://www.w3.org/2000/svg" xmlns:ev="http://www.w3.org/2001/xml-events" xmlns:xlink="http://www.w3.org/1999/xlink"><defs /><path d="M1656 1290Q1691 1292 1725.5 1295.0Q1760 1298 1795 1298Q1834 1298 1865.5 1286.0Q1897 1274 1925.5 1255.5Q1954 1237 1981.0 1213.5Q2008 1190 2036 1167Q2072 1138 2106.5 1118.5Q2141 1099 2170.5 1077.0Q2200 1055 2223.0 1026.0Q2246 997 2259 950Q2269 915 2276.5 877.0Q2284 839 2298 805Q2307 781 2317.5 757.0Q2328 733 2337.5 708.0Q2347 683 2353.0 657.5Q2359 632 2359 606Q2359 580 2353.0 554.5Q2347 529 2337.5 504.5Q2328 480 2317.5 456.0Q2307 432 2298 408Q2284 374 2276.5 336.0Q2269 298 2259 263Q2246 216 2223.0 186.5Q2200 157 2170.0 135.5Q2140 114 2105.5 94.0Q2071 74 2036 46Q2006 22 1979.5 -1.5Q1953 -25 1924.5 -43.0Q1896 -61 1864.0 -72.5Q1832 -84 1792 -84Q1752 -84 1711.5 -79.5Q1671 -75 1630 -77Q1595 -79 1560.5 -82.0Q1526 -85 1491 -85Q1453 -85 1421.0 -73.5Q1389 -62 1360.5 -43.0Q1332 -24 1305.5 -0.5Q1279 23 1251 46Q1222 69 1189.5 88.5Q1157 108 1126 128Q1090 152 1069.0 179.5Q1048 207 1035.5 239.0Q1023 271 1014.5 307.0Q1006 343 996 383Q988 411 976.5 438.5Q965 466 954.0 493.0Q943 520 935.0 548.0Q927 576 927 606Q927 632 933.0 657.5Q939 683 948.0 708.0Q957 733 968.0 757.0Q979 781 988 805Q1002 840 1010.0 877.0Q1018 914 1027 949Q1039 996 1062.5 1025.5Q1086 1055 1116.5 1077.0Q1147 1099 1181.5 1118.5Q1216 1138 1251 1167Q1281 1191 1307.5 1214.5Q1334 1238 1362.5 1256.5Q1391 1275 1422.5 1286.0Q1454 1297 1494 1297Q1535 1297 1575.0 1292.5Q1615 1288 1656 1290Z" style="fill:#ffe5d9;stroke:none" transform="scale(1,-1) translate(0,-256)" /></svg>