<?xml version="1.0" encoding="utf-8" ?>
<svg baseProfile="full" height="256" version="1.1" width="256" xmlns="http://www.w3.org/2000/svg" xmlns:ev="http://www.w3.org/2001/xml-events" xmlns:xlink="http://www.w3.org/1999/xlink"><defs /><path d="M1697 359H1625Q1589 359 1557.5 372.5Q1526 386 1502.5 409.5Q1479 433 1465.5 464.5Q1452 496 1452 532Q1452 568 1465.5 599.5Q1479 631 1502.5 654.5Q1526 678 1557.5 691.5Q1589 705 1625 705H1697Q1733 705 1764.5 691.5Q1796 678 1819.5 654.5Q1843 631 1856.5 599.5Q1870 568 1870 532Q1870 496 1856.5 464.5Q1843 433 1819.5 409.5Q1796 386 1764.5 372.5Q1733 359 1697 359Z" style="fill:#6d4534;stroke:none" transform="scale(1,-1) translate(0,-256)" /></svg>