<?xml version="1.0" encoding="utf-8" ?>
<svg baseProfile="full" height="256" version="1.1" width="256" xmlns="http://www.w3.org/2000/svg" xmlns:ev="http://www.w3.org/2001/xml-events" xmlns:xlink="http://www.w3.org/1999/xlink"><defs /><path d="M2339 650V415H2338Q2339 409 2339.0 403.5Q2339 398 2339 392Q2339 299 2314.5 212.0Q2290 125 2246.0 49.5Q2202 -26 2140.0 -88.0Q2078 -150 2002.5 -194.0Q1927 -238 1840.0 -262.5Q1753 -287 1660 -287Q1565 -287 1477.5 -263.0Q1390 -239 1313.5 -195.5Q1237 -152 1174.5 -90.5Q1112 -29 1067.0 46.5Q1022 122 997.5 209.0Q973 296 973 392Q973 452 973.5 510.0Q974 568 974 628Q977 534 1004.0 454.5Q1031 375 1077.0 310.5Q1123 246 1186.0 197.0Q1249 148 1323.5 115.0Q1398 82 1481.5 65.0Q1565 48 1653 48Q1744 48 1830.5 65.5Q1917 83 1993.0 117.0Q2069 151 2133.0 202.0Q2197 253 2243.0 320.0Q2289 387 2314.5 469.5Q2340 552 2340 650Z" style="fill:#e19747;stroke:none" transform="scale(1,-1) translate(0,-256)" /></svg>