<?xml version="1.0" encoding="utf-8" ?>
<svg baseProfile="full" height="256" version="1.1" width="256" xmlns="http://www.w3.org/2000/svg" xmlns:ev="http://www.w3.org/2001/xml-events" xmlns:xlink="http://www.w3.org/1999/xlink"><defs /><path d="M472 1041Q472 1135 496.5 1222.5Q521 1310 566.0 1386.0Q611 1462 673.5 1524.5Q736 1587 812.0 1631.5Q888 1676 975.5 1700.5Q1063 1725 1157 1725Q1251 1725 1337.5 1701.0Q1424 1677 1500.0 1632.5Q1576 1588 1638.0 1526.5Q1700 1465 1744.0 1389.5Q1788 1314 1812.5 1227.5Q1837 1141 1837 1047Q1837 953 1812.5 865.5Q1788 778 1743.0 702.0Q1698 626 1635.5 563.5Q1573 501 1497.0 456.5Q1421 412 1334.0 387.5Q1247 363 1153 363Q1059 363 972.0 387.0Q885 411 809.5 455.5Q734 500 671.5 561.5Q609 623 565.0 698.5Q521 774 496.5 860.5Q472 947 472 1041Z" style="fill:#f3ad61;stroke:none" transform="scale(1,-1) translate(0,-256)" /></svg>