<?xml version="1.0" encoding="utf-8" ?>
<svg baseProfile="full" height="256" version="1.1" width="256" xmlns="http://www.w3.org/2000/svg" xmlns:ev="http://www.w3.org/2001/xml-events" xmlns:xlink="http://www.w3.org/1999/xlink"><defs /><path d="M1197 865H1125Q1089 865 1057.5 878.5Q1026 892 1002.5 915.5Q979 939 965.5 970.5Q952 1002 952 1038Q952 1074 965.5 1105.5Q979 1137 1002.5 1160.5Q1026 1184 1057.5 1197.5Q1089 1211 1125 1211H1197Q1233 1211 1264.5 1197.5Q1296 1184 1319.5 1160.5Q1343 1137 1356.5 1105.5Q1370 1074 1370 1038Q1370 1002 1356.5 970.5Q1343 939 1319.5 915.5Q1296 892 1264.5 878.5Q1233 865 1197 865Z" style="fill:#6d4534;stroke:none" transform="scale(1,-1) translate(0,-256)" /></svg>