<?xml version="1.0" encoding="utf-8" ?>
<svg baseProfile="full" height="256" version="1.1" width="256" xmlns="http://www.w3.org/2000/svg" xmlns:ev="http://www.w3.org/2001/xml-events" xmlns:xlink="http://www.w3.org/1999/xlink"><defs /><path d="M1406 -144Q1280 -144 1169.0 -96.0Q1058 -48 974.5 35.0Q891 118 843.0 229.0Q795 340 795 466Q795 579 824.5 691.0Q854 803 907.0 906.5Q960 1010 1032.5 1101.0Q1105 1192 1191 1262Q1113 1291 1027.5 1311.0Q942 1331 854.5 1343.0Q767 1355 679.0 1360.5Q591 1366 508 1366Q485 1366 465.5 1374.5Q446 1383 431.5 1397.5Q417 1412 408.5 1431.5Q400 1451 400 1474Q400 1496 408.5 1515.5Q417 1535 432.0 1549.5Q447 1564 466.5 1572.5Q486 1581 508 1581Q619 1581 736.0 1572.0Q853 1563 968.5 1542.0Q1084 1521 1195.0 1487.0Q1306 1453 1407 1402Q1507 1453 1618.0 1487.5Q1729 1522 1844.5 1542.5Q1960 1563 2076.5 1572.0Q2193 1581 2304 1581Q2326 1581 2345.5 1572.5Q2365 1564 2380.0 1549.0Q2395 1534 2403.5 1514.5Q2412 1495 2412 1473Q2412 1450 2403.5 1430.5Q2395 1411 2380.5 1396.5Q2366 1382 2346.0 1373.5Q2326 1365 2304 1365Q2221 1365 2133.5 1359.5Q2046 1354 1958.5 1342.0Q1871 1330 1786.0 1310.0Q1701 1290 1623 1261Q1708 1192 1780.5 1101.0Q1853 1010 1905.5 906.5Q1958 803 1987.5 690.5Q2017 578 2017 467Q2017 341 1969.0 229.5Q1921 118 1838.0 35.0Q1755 -48 1643.5 -96.0Q1532 -144 1406 -144ZM1407 1153Q1365 1126 1326.5 1094.5Q1288 1063 1254 1028Q1203 975 1158.5 909.5Q1114 844 1081.0 771.0Q1048 698 1029.5 621.5Q1011 545 1011 469Q1011 387 1042.0 314.5Q1073 242 1126.0 188.0Q1179 134 1251.0 103.0Q1323 72 1406 72Q1489 72 1561.0 103.0Q1633 134 1686.5 188.0Q1740 242 1770.5 314.5Q1801 387 1801 470Q1801 545 1781.5 622.5Q1762 700 1729.0 773.5Q1696 847 1651.0 913.0Q1606 979 1555 1032Q1522 1066 1484.5 1096.5Q1447 1127 1407 1153Z" style="fill:#635994;stroke:none" transform="scale(1,-1) translate(0,-256)" /></svg>