<?xml version="1.0" encoding="utf-8" ?>
<svg baseProfile="full" height="256" version="1.1" width="256" xmlns="http://www.w3.org/2000/svg" xmlns:ev="http://www.w3.org/2001/xml-events" xmlns:xlink="http://www.w3.org/1999/xlink"><defs /><path d="M2250 -133Q2218 -165 2177.0 -181.5Q2136 -198 2094.0 -198.0Q2052 -198 2011.0 -181.5Q1970 -165 1938 -133L1397 408L857 -133Q825 -165 784.0 -181.5Q743 -198 701.0 -198.0Q659 -198 618.0 -181.5Q577 -165 545 -133Q513 -101 497.0 -60.5Q481 -20 481.0 22.0Q481 64 497.0 105.0Q513 146 545 178L1086 719L545 1260Q513 1292 497.0 1332.5Q481 1373 481.0 1415.0Q481 1457 497.0 1498.0Q513 1539 545 1571Q577 1603 618.0 1619.0Q659 1635 701.0 1635.0Q743 1635 784.0 1619.0Q825 1603 857 1571L1397 1030L1938 1571Q1970 1603 2011.0 1619.0Q2052 1635 2094.0 1635.0Q2136 1635 2177.0 1619.0Q2218 1603 2250 1571Q2282 1539 2298.0 1498.0Q2314 1457 2314.0 1415.0Q2314 1373 2298.0 1332.5Q2282 1292 2250 1260L1709 719L2250 178Q2282 146 2298.0 105.0Q2314 64 2314.0 22.0Q2314 -20 2298.0 -60.5Q2282 -101 2250 -133Z" style="fill:#635994;stroke:none" transform="scale(1,-1) translate(0,-256)" /></svg>