<?xml version="1.0" encoding="utf-8" ?>
<svg baseProfile="full" height="256" version="1.1" width="256" xmlns="http://www.w3.org/2000/svg" xmlns:ev="http://www.w3.org/2001/xml-events" xmlns:xlink="http://www.w3.org/1999/xlink"><defs /><path d="M1262 863Q1262 818 1245.0 779.0Q1228 740 1199.0 710.5Q1170 681 1131.0 664.0Q1092 647 1047 647Q1002 647 963.0 664.0Q924 681 894.5 710.5Q865 740 848.0 779.0Q831 818 831 863Q831 908 848.0 947.0Q865 986 894.5 1015.0Q924 1044 963.0 1061.0Q1002 1078 1047 1078Q1092 1078 1131.0 1061.0Q1170 1044 1199.0 1015.0Q1228 986 1245.0 947.0Q1262 908 1262 863ZM1981 863Q1981 818 1964.0 779.0Q1947 740 1917.5 710.5Q1888 681 1849.0 664.0Q1810 647 1765 647Q1720 647 1681.0 664.0Q1642 681 1613.0 710.5Q1584 740 1567.0 779.0Q1550 818 1550 863Q1550 908 1567.0 947.0Q1584 986 1613.0 1015.0Q1642 1044 1681.0 1061.0Q1720 1078 1765 1078Q1810 1078 1849.0 1061.0Q1888 1044 1917.5 1015.0Q1947 986 1964.0 947.0Q1981 908 1981 863ZM1407 219Q1498 219 1571.0 186.5Q1644 154 1711 94Q1733 73 1762 73Q1791 73 1812.5 94.0Q1834 115 1834 145Q1834 174 1812 196Q1773 236 1726.0 267.0Q1679 298 1626.5 319.5Q1574 341 1518.0 352.0Q1462 363 1407 363Q1351 363 1295.0 352.0Q1239 341 1186.0 319.0Q1133 297 1085.5 265.5Q1038 234 999 193Q978 170 978 142Q978 113 999.5 92.0Q1021 71 1050 71Q1066 71 1078.0 76.5Q1090 82 1101 92Q1168 153 1241.0 186.0Q1314 219 1407 219Z" style="fill:#402a32;stroke:none" transform="scale(1,-1) translate(0,-256)" /></svg>