<?xml version="1.0" encoding="utf-8" ?>
<svg baseProfile="full" height="256" version="1.1" width="256" xmlns="http://www.w3.org/2000/svg" xmlns:ev="http://www.w3.org/2001/xml-events" xmlns:xlink="http://www.w3.org/1999/xlink"><defs /><path d="M1657 -287H1155Q1132 -287 1112.5 -278.5Q1093 -270 1078.5 -255.5Q1064 -241 1055.5 -221.5Q1047 -202 1047 -179Q1047 -157 1055.5 -137.0Q1064 -117 1079.0 -103.0Q1094 -89 1113.5 -80.5Q1133 -72 1155 -72H1657Q1679 -72 1698.5 -80.5Q1718 -89 1733.0 -103.0Q1748 -117 1756.5 -137.0Q1765 -157 1765 -179Q1765 -202 1756.5 -221.5Q1748 -241 1733.5 -255.5Q1719 -270 1699.0 -278.5Q1679 -287 1657 -287Z" style="fill:#ff9f2e;stroke:none" transform="scale(1,-1) translate(0,-256)" /></svg>