<?xml version="1.0" encoding="utf-8" ?>
<svg baseProfile="full" height="256" version="1.1" width="256" xmlns="http://www.w3.org/2000/svg" xmlns:ev="http://www.w3.org/2001/xml-events" xmlns:xlink="http://www.w3.org/1999/xlink"><defs /><path d="M2059 1389Q2065 1290 2108.0 1211.5Q2151 1133 2223 1067Q2332 967 2390.0 844.5Q2448 722 2448 573Q2448 438 2396.5 320.0Q2345 202 2256.0 114.0Q2167 26 2048.0 -25.0Q1929 -76 1795 -76H1534V-187H1314V-76H1053Q964 -76 881.0 -53.0Q798 -30 725.0 12.5Q652 55 592.5 114.5Q533 174 490.0 246.0Q447 318 423.5 400.5Q400 483 400 573Q400 722 458.5 844.5Q517 967 626 1067Q698 1133 740.5 1212.0Q783 1291 790 1389H646Q631 1389 621.0 1399.5Q611 1410 611 1425Q611 1441 624 1451L946 1706Q956 1714 970 1714Q987 1714 999.0 1702.5Q1011 1691 1011 1674Q1011 1602 1010.5 1531.5Q1010 1461 1010 1389Q1010 1311 993.5 1243.5Q977 1176 946.0 1117.0Q915 1058 870.5 1004.0Q826 950 770 899Q698 833 659.5 751.5Q621 670 621 571Q621 482 655.5 404.5Q690 327 749.5 269.0Q809 211 887.5 177.5Q966 144 1054 144Q1108 144 1155.5 164.5Q1203 185 1239.0 221.0Q1275 257 1295.5 304.5Q1316 352 1316 406V1389H1220Q1202 1389 1189.5 1402.0Q1177 1415 1177 1433Q1177 1447 1186 1459L1375 1704Q1391 1725 1418 1725Q1444 1725 1460 1704L1649 1459Q1658 1447 1658 1432Q1658 1417 1651.0 1408.0Q1644 1399 1633.5 1394.5Q1623 1390 1610.5 1388.5Q1598 1387 1586 1387Q1573 1387 1560.5 1388.0Q1548 1389 1535 1389V407Q1535 353 1555.5 305.5Q1576 258 1611.5 222.0Q1647 186 1694.5 165.5Q1742 145 1796 145Q1883 145 1962.0 178.5Q2041 212 2100.5 270.0Q2160 328 2195.0 406.0Q2230 484 2230 572Q2230 672 2191.5 753.5Q2153 835 2080 901Q2023 952 1978.5 1005.5Q1934 1059 1903.0 1118.0Q1872 1177 1855.5 1244.0Q1839 1311 1839 1390V1674Q1839 1691 1850.5 1702.5Q1862 1714 1879 1714Q1893 1714 1903 1706L2225 1451Q2238 1441 2238 1424Q2238 1410 2227.5 1399.5Q2217 1389 2203 1389H2059Z" style="fill:#ffb02e;stroke:none" transform="scale(1,-1) translate(0,-256)" /></svg>