<?xml version="1.0" encoding="utf-8" ?>
<svg baseProfile="full" height="256" version="1.1" width="256" xmlns="http://www.w3.org/2000/svg" xmlns:ev="http://www.w3.org/2001/xml-events" xmlns:xlink="http://www.w3.org/1999/xlink"><defs /><path d="M1334 690Q1334 699 1339.5 719.5Q1345 740 1352.0 763.5Q1359 787 1366.5 808.0Q1374 829 1377 840Q1380 850 1387.5 856.5Q1395 863 1406 863Q1428 863 1435 841Q1438 830 1445.5 808.5Q1453 787 1460.0 764.5Q1467 742 1472.5 721.5Q1478 701 1478 691Q1478 674 1466.0 660.5Q1454 647 1436 647H1376Q1358 647 1346.0 660.0Q1334 673 1334 690Z" style="fill:#ed9200;stroke:none" transform="scale(1,-1) translate(0,-256)" /></svg>