<?xml version="1.0" encoding="utf-8" ?>
<svg baseProfile="full" height="256" version="1.1" width="256" xmlns="http://www.w3.org/2000/svg" xmlns:ev="http://www.w3.org/2001/xml-events" xmlns:xlink="http://www.w3.org/1999/xlink"><defs /><path d="M1406 144Q1374 144 1347.5 157.5Q1321 171 1302.0 193.0Q1283 215 1272.5 243.5Q1262 272 1262 302V489Q1262 519 1272.5 547.5Q1283 576 1302.0 598.0Q1321 620 1347.5 633.5Q1374 647 1406 647Q1438 647 1464.5 633.5Q1491 620 1510.0 598.0Q1529 576 1539.5 547.5Q1550 519 1550 489V302Q1550 272 1539.5 243.5Q1529 215 1510.0 193.0Q1491 171 1464.5 157.5Q1438 144 1406 144Z" style="fill:#fcb100;stroke:none" transform="scale(1,-1) translate(0,-256)" /></svg>