<?xml version="1.0" encoding="utf-8" ?>
<svg baseProfile="full" height="256" version="1.1" width="256" xmlns="http://www.w3.org/2000/svg" xmlns:ev="http://www.w3.org/2001/xml-events" xmlns:xlink="http://www.w3.org/1999/xlink"><defs /><path d="M975 1076Q975 1136 994.5 1191.5Q1014 1247 1052 1293H1400Q1419 1293 1431.0 1284.0Q1443 1275 1451 1259Q1480 1205 1524.0 1173.5Q1568 1142 1631 1142Q1662 1142 1692.0 1142.5Q1722 1143 1753 1142Q1776 1142 1800.0 1126.0Q1824 1110 1837 1092V1078Q1837 1067 1836.0 1056.0Q1835 1045 1834 1034Q1826 918 1819.5 803.0Q1813 688 1805 572Q1803 554 1797.5 535.0Q1792 516 1786 499Q1768 453 1737.0 415.5Q1706 378 1666.0 351.5Q1626 325 1579.5 310.5Q1533 296 1484 296H1329Q1279 296 1232.5 310.5Q1186 325 1146.5 351.0Q1107 377 1076.0 414.5Q1045 452 1027 499Q1020 516 1015.0 535.0Q1010 554 1008 572Q1000 688 992.5 803.0Q985 918 977 1034Q976 1045 975.5 1055.0Q975 1065 975 1076Z" style="fill:#ffc83d;stroke:none" transform="scale(1,-1) translate(0,-256)" /></svg>