<?xml version="1.0" encoding="utf-8" ?>
<svg baseProfile="full" height="256" version="1.1" width="256" xmlns="http://www.w3.org/2000/svg" xmlns:ev="http://www.w3.org/2001/xml-events" xmlns:xlink="http://www.w3.org/1999/xlink"><defs /><path d="M1407 574Q1429 574 1443.5 576.0Q1458 578 1471.0 582.0Q1484 586 1497.0 591.5Q1510 597 1529 603Q1530 603 1532.0 603.5Q1534 604 1535 604Q1540 604 1544.5 600.5Q1549 597 1549 592Q1549 589 1547 585Q1524 550 1486.0 530.5Q1448 511 1406 511Q1388 511 1366.5 516.0Q1345 521 1325.0 530.5Q1305 540 1288.5 554.0Q1272 568 1264 585Q1264 586 1263.0 588.0Q1262 590 1262 591Q1262 596 1266.5 600.0Q1271 604 1276 604Q1280 604 1282 603Q1313 589 1342.5 581.5Q1372 574 1407 574Z" style="fill:#990839;stroke:none" transform="scale(1,-1) translate(0,-256)" /></svg>