<?xml version="1.0" encoding="utf-8" ?>
<svg baseProfile="full" height="256" version="1.1" width="256" xmlns="http://www.w3.org/2000/svg" xmlns:ev="http://www.w3.org/2001/xml-events" xmlns:xlink="http://www.w3.org/1999/xlink"><defs /><path d="M1109 1484Q1109 1449 1122.5 1417.5Q1136 1386 1160 1361L1290 1230Q1315 1205 1315 1169Q1315 1136 1291.0 1112.0Q1267 1088 1234 1088Q1207 1088 1189.0 1101.5Q1171 1115 1156.5 1131.5Q1142 1148 1127.0 1162.0Q1112 1176 1090 1176Q1065 1176 1048.0 1159.0Q1031 1142 1031 1118V889Q1031 873 1025.0 858.5Q1019 844 1008.5 832.5Q998 821 983.5 814.0Q969 807 953 807Q917 807 892.5 830.5Q868 854 868 891L867 1725H1109ZM1703 1725H1945L1944 891Q1944 875 1938.0 860.0Q1932 845 1921.0 833.0Q1910 821 1895.5 814.0Q1881 807 1865 807Q1830 807 1805.5 830.5Q1781 854 1781 889V1119Q1781 1143 1764.0 1160.0Q1747 1177 1722 1177Q1700 1177 1685.0 1163.0Q1670 1149 1655.0 1132.5Q1640 1116 1622.5 1102.0Q1605 1088 1578 1088Q1544 1088 1520.5 1112.0Q1497 1136 1497 1169Q1497 1205 1522 1230L1652 1361Q1676 1385 1689.5 1417.5Q1703 1450 1703 1484Z" style="fill:#d67d00;stroke:none" transform="scale(1,-1) translate(0,-256)" /></svg>