<?xml version="1.0" encoding="utf-8" ?>
<svg baseProfile="full" height="256" version="1.1" width="256" xmlns="http://www.w3.org/2000/svg" xmlns:ev="http://www.w3.org/2001/xml-events" xmlns:xlink="http://www.w3.org/1999/xlink"><defs /><path d="M1307 860Q1315 860 1321.0 854.0Q1327 848 1327 840Q1327 828 1316.0 817.5Q1305 807 1289.5 799.5Q1274 792 1257.5 787.5Q1241 783 1231 783Q1221 783 1205.0 787.5Q1189 792 1173.5 799.5Q1158 807 1147.0 817.5Q1136 828 1136 840Q1136 848 1142.0 854.0Q1148 860 1156 860Q1162 860 1168.5 854.5Q1175 849 1183.0 842.5Q1191 836 1202.5 830.5Q1214 825 1231 825Q1248 825 1259.5 830.5Q1271 836 1279.5 842.5Q1288 849 1294.5 854.5Q1301 860 1307 860ZM1656 860Q1664 860 1669.5 853.5Q1675 847 1675 839Q1675 827 1664.0 816.5Q1653 806 1637.5 798.5Q1622 791 1606.0 787.0Q1590 783 1580 783Q1570 783 1554.0 787.5Q1538 792 1522.5 799.5Q1507 807 1496.0 817.5Q1485 828 1485 840Q1485 848 1491.0 854.0Q1497 860 1505 860Q1511 860 1517.0 854.5Q1523 849 1531.5 842.5Q1540 836 1551.5 830.5Q1563 825 1580 825Q1597 825 1608.5 830.5Q1620 836 1628.5 842.5Q1637 849 1643.0 854.5Q1649 860 1656 860Z" style="fill:#d37034;stroke:none" transform="scale(1,-1) translate(0,-256)" /></svg>