<?xml version="1.0" encoding="utf-8" ?>
<svg baseProfile="full" height="256" version="1.1" width="256" xmlns="http://www.w3.org/2000/svg" xmlns:ev="http://www.w3.org/2001/xml-events" xmlns:xlink="http://www.w3.org/1999/xlink"><defs /><path d="M1280 1438H1531Q1564 1438 1593.5 1425.5Q1623 1413 1645.0 1391.5Q1667 1370 1680.0 1341.0Q1693 1312 1693 1279V677L2020 844Q2078 873 2141 873Q2183 873 2222.5 860.5Q2262 848 2295.0 825.0Q2328 802 2354.0 770.0Q2380 738 2395 699Q2399 688 2404.5 667.5Q2410 647 2410 635Q2410 623 2405.0 602.5Q2400 582 2395 571Q2380 532 2354.5 499.5Q2329 467 2296.0 443.5Q2263 420 2223.5 407.5Q2184 395 2142 395Q2110 395 2079.5 403.0Q2049 411 2020 425L1680 599Q1660 555 1619.5 529.0Q1579 503 1531 503H1280Q1232 503 1191.5 529.0Q1151 555 1132 599L791 425Q762 411 731.5 403.0Q701 395 669 395Q627 395 588.0 407.5Q549 420 515.5 443.5Q482 467 456.5 499.5Q431 532 416 571Q411 582 406.0 602.5Q401 623 401 635Q401 647 406.0 667.0Q411 687 416 699Q431 738 456.5 770.0Q482 802 515.5 825.5Q549 849 588.0 861.5Q627 874 669 874Q701 874 731.5 866.0Q762 858 791 844L1118 677V1279Q1118 1312 1131.0 1341.0Q1144 1370 1166.0 1391.5Q1188 1413 1217.5 1425.5Q1247 1438 1280 1438Z" style="fill:#ca0b4a;stroke:none" transform="scale(1,-1) translate(0,-256)" /></svg>