<?xml version="1.0" encoding="utf-8" ?>
<svg baseProfile="full" height="256" version="1.1" width="256" xmlns="http://www.w3.org/2000/svg" xmlns:ev="http://www.w3.org/2001/xml-events" xmlns:xlink="http://www.w3.org/1999/xlink"><defs /><path d="M2019 1480Q2048 1494 2078.5 1502.0Q2109 1510 2141 1510Q2197 1510 2246.0 1489.0Q2295 1468 2332.0 1431.0Q2369 1394 2390.0 1345.0Q2411 1296 2411 1240V666Q2411 610 2390.0 561.0Q2369 512 2332.5 475.0Q2296 438 2247.0 417.0Q2198 396 2142 396Q2115 396 2093.5 400.0Q2072 404 2052.0 411.5Q2032 419 2012.0 429.5Q1992 440 1969 452Q1974 438 1991.5 394.0Q2009 350 2032.0 291.0Q2055 232 2080.5 166.0Q2106 100 2127.0 44.0Q2148 -12 2162.0 -51.0Q2176 -90 2176 -96Q2176 -116 2161.0 -131.5Q2146 -147 2126 -147Q2106 -147 2079.0 -134.0Q2052 -121 2023.5 -106.0Q1995 -91 1968.0 -78.0Q1941 -65 1921 -65Q1906 -65 1893.5 -73.0Q1881 -81 1875 -95L1803 -257Q1797 -271 1784.5 -279.0Q1772 -287 1757 -287Q1741 -287 1728.0 -278.0Q1715 -269 1709 -255L1405 534L1101 -255Q1088 -287 1054 -287Q1039 -287 1026.0 -279.0Q1013 -271 1007 -257L936 -95Q930 -81 917.0 -73.0Q904 -65 889 -65Q869 -65 842.0 -78.0Q815 -91 786.5 -106.0Q758 -121 731.0 -134.0Q704 -147 685 -147Q665 -147 649.5 -132.0Q634 -117 634 -97Q634 -93 642.0 -69.5Q650 -46 663.5 -9.5Q677 27 694.5 72.0Q712 117 730.5 165.0Q749 213 767.0 259.5Q785 306 800.5 345.5Q816 385 827.0 413.0Q838 441 842 451Q819 439 799.0 429.0Q779 419 759.0 411.5Q739 404 717.5 400.0Q696 396 669 396Q613 396 564.0 417.0Q515 438 478.5 475.0Q442 512 421.0 561.0Q400 610 400 666V1240Q400 1296 421.0 1345.0Q442 1394 479.0 1431.0Q516 1468 565.0 1489.0Q614 1510 670 1510Q702 1510 732.5 1502.0Q763 1494 792 1480L1406 1167Z" style="fill:#f8312f;stroke:none" transform="scale(1,-1) translate(0,-256)" /></svg>