<?xml version="1.0" encoding="utf-8" ?>
<svg baseProfile="full" height="256" version="1.1" width="256" xmlns="http://www.w3.org/2000/svg" xmlns:ev="http://www.w3.org/2001/xml-events" xmlns:xlink="http://www.w3.org/1999/xlink"><defs /><path d="M2033 1089Q2035 1089 2036 1088Q2058 1073 2075.0 1051.5Q2092 1030 2104.0 1004.5Q2116 979 2122.0 952.0Q2128 925 2128 899Q2128 860 2117.5 830.5Q2107 801 2088 768L1853 359Q1821 304 1766.0 272.5Q1711 241 1648 241Q1599 241 1556.0 259.5Q1513 278 1480.5 310.5Q1448 343 1429.5 386.0Q1411 429 1411 478Q1411 541 1443 596L1584 840L1460 938Q1449 946 1435.5 950.5Q1422 955 1408 955Q1392 955 1377.0 951.5Q1362 948 1346.5 944.5Q1331 941 1315.5 937.5Q1300 934 1284 934Q1221 934 1167 968L910 1128Q838 1173 798.5 1246.0Q759 1319 759 1404Q759 1471 785.0 1529.5Q811 1588 856.0 1631.5Q901 1675 960.0 1700.0Q1019 1725 1085 1725Q1136 1725 1186.0 1707.5Q1236 1690 1277 1660L2033 1090ZM1262 -208V43Q1262 73 1273.5 99.0Q1285 125 1304.5 144.5Q1324 164 1350.5 175.0Q1377 186 1406 186Q1433 186 1458.5 176.0Q1484 166 1504 147L1505 148L1808 -118Q1820 -129 1831.5 -134.5Q1843 -140 1855.0 -142.0Q1867 -144 1880.5 -144.0Q1894 -144 1909 -144Q1938 -144 1959.5 -165.0Q1981 -186 1981 -215Q1981 -245 1960.0 -266.0Q1939 -287 1909 -287H1342Q1309 -287 1285.5 -264.0Q1262 -241 1262 -208Z" style="fill:#9b9b9b;stroke:none" transform="scale(1,-1) translate(0,-256)" /></svg>