<?xml version="1.0" encoding="utf-8" ?>
<svg baseProfile="full" height="256" version="1.1" width="256" xmlns="http://www.w3.org/2000/svg" xmlns:ev="http://www.w3.org/2001/xml-events" xmlns:xlink="http://www.w3.org/1999/xlink"><defs /><path d="M1548 778 1584 840 1474 927V928L1762 700Q1774 691 1792.0 681.0Q1810 671 1830.0 663.5Q1850 656 1869.5 651.0Q1889 646 1904 646Q1951 646 1991.0 665.0Q2031 684 2061 720L1983 585Q1942 574 1904 574Q1883 574 1857.5 580.0Q1832 586 1807.0 595.5Q1782 605 1758.5 617.5Q1735 630 1719 643H1718Z" style="fill:#636363;stroke:none" transform="scale(1,-1) translate(0,-256)" /></svg>