<?xml version="1.0" encoding="utf-8" ?>
<svg baseProfile="full" height="256" version="1.1" width="256" xmlns="http://www.w3.org/2000/svg" xmlns:ev="http://www.w3.org/2001/xml-events" xmlns:xlink="http://www.w3.org/1999/xlink"><defs /><path d="M1083 1258Q1053 1258 1027.0 1269.0Q1001 1280 981.5 1299.5Q962 1319 950.5 1345.0Q939 1371 939 1401Q939 1431 950.5 1457.0Q962 1483 981.5 1502.5Q1001 1522 1027.0 1533.0Q1053 1544 1083 1544Q1113 1544 1139.0 1533.0Q1165 1522 1184.5 1502.5Q1204 1483 1215.0 1457.0Q1226 1431 1226 1401Q1226 1371 1215.0 1345.0Q1204 1319 1184.5 1299.5Q1165 1280 1139.0 1269.0Q1113 1258 1083 1258ZM1891 783Q1867 783 1846.0 792.0Q1825 801 1809.0 817.0Q1793 833 1784.0 854.0Q1775 875 1775 899Q1775 923 1784.0 944.5Q1793 966 1808.5 981.5Q1824 997 1845.5 1006.5Q1867 1016 1891 1016Q1915 1016 1936.5 1006.5Q1958 997 1973.5 981.5Q1989 966 1998.5 944.5Q2008 923 2008 899Q2008 875 1998.5 854.0Q1989 833 1973.5 817.0Q1958 801 1936.5 792.0Q1915 783 1891 783ZM1460 43Q1460 20 1444.5 4.5Q1429 -11 1406 -11Q1383 -11 1367.5 4.5Q1352 20 1352 43Q1352 66 1368.0 81.0Q1384 96 1406 96Q1428 96 1444.0 81.0Q1460 66 1460 43Z" style="fill:#d3d3d3;stroke:none" transform="scale(1,-1) translate(0,-256)" /></svg>