<?xml version="1.0" encoding="utf-8" ?>
<svg baseProfile="full" height="256" version="1.1" width="256" xmlns="http://www.w3.org/2000/svg" xmlns:ev="http://www.w3.org/2001/xml-events" xmlns:xlink="http://www.w3.org/1999/xlink"><defs /><path d="M2122 431Q2122 332 2096.0 240.5Q2070 149 2023.0 69.5Q1976 -10 1910.5 -76.0Q1845 -142 1765.0 -188.5Q1685 -235 1593.5 -261.0Q1502 -287 1404 -287Q1305 -287 1213.5 -261.5Q1122 -236 1042.0 -189.0Q962 -142 897.0 -76.5Q832 -11 785.0 69.0Q738 149 712.5 240.5Q687 332 687 431Q687 525 712.5 615.0Q738 705 784 786L1276 1650Q1296 1685 1330.0 1705.0Q1364 1725 1404 1725Q1445 1725 1479.0 1705.0Q1513 1685 1533 1650L2031 773Q2076 695 2099.0 607.5Q2122 520 2122 431Z" style="fill:#f8312f;stroke:none" transform="scale(1,-1) translate(0,-256)" /></svg>