<?xml version="1.0" encoding="utf-8" ?>
<svg baseProfile="full" height="256" version="1.1" width="256" xmlns="http://www.w3.org/2000/svg" xmlns:ev="http://www.w3.org/2001/xml-events" xmlns:xlink="http://www.w3.org/1999/xlink"><defs /><path d="M674 1507Q688 1507 701.0 1499.5Q714 1492 721 1479L870 1198L1029 1480Q1045 1507 1075 1507Q1097 1507 1113.0 1492.0Q1129 1477 1129 1454Q1129 1438 1122 1427L950 1121H1076Q1099 1121 1114.0 1105.0Q1129 1089 1129 1067Q1129 1045 1114.0 1029.0Q1099 1013 1076 1013H922V945H1076Q1098 945 1113.5 929.0Q1129 913 1129 891Q1129 869 1114.0 853.0Q1099 837 1076 837H922V736Q922 714 907.0 698.0Q892 682 869 682Q846 682 830.5 697.5Q815 713 815 736V837H684Q661 837 645.5 852.5Q630 868 630 891Q630 913 646.0 929.0Q662 945 684 945H815V1013H684Q661 1013 645.5 1028.5Q630 1044 630 1067Q630 1090 645.5 1105.5Q661 1121 684 1121H789L626 1428Q620 1440 620 1453Q620 1476 635.5 1491.5Q651 1507 674 1507ZM2197 869Q2197 892 2181.5 907.5Q2166 923 2143 923Q2121 923 2105 907L1356 158Q1351 153 1343 153Q1338 153 1323.0 165.5Q1308 178 1288.0 198.0Q1268 218 1244.5 241.0Q1221 264 1200.5 286.0Q1180 308 1164.0 324.5Q1148 341 1142 347Q1124 365 1101.0 375.0Q1078 385 1053 385Q1028 385 1004.5 375.0Q981 365 964 348L646 30Q630 14 630 -8Q630 -31 646.0 -46.5Q662 -62 684 -62Q707 -62 723 -46L1040 271Q1045 276 1053 276Q1057 276 1072.5 263.0Q1088 250 1108.0 230.5Q1128 211 1151.5 187.5Q1175 164 1196.0 142.5Q1217 121 1232.5 104.5Q1248 88 1254 82Q1292 44 1343 44Q1368 44 1391.5 54.0Q1415 64 1432 81L2181 831Q2197 847 2197 869Z" style="fill:#f4f4f4;stroke:none" transform="scale(1,-1) translate(0,-256)" /></svg>