<?xml version="1.0" encoding="utf-8" ?>
<svg baseProfile="full" height="256" version="1.1" width="256" xmlns="http://www.w3.org/2000/svg" xmlns:ev="http://www.w3.org/2001/xml-events" xmlns:xlink="http://www.w3.org/1999/xlink"><defs /><path d="M760 1149Q730 1149 708.5 1170.5Q687 1192 687 1222Q687 1252 708.5 1273.5Q730 1295 760 1295Q790 1295 811.0 1273.5Q832 1252 832 1222Q832 1192 811.0 1170.5Q790 1149 760 1149ZM975 1006Q945 1006 924.0 1027.0Q903 1048 903 1078Q903 1108 924.0 1129.5Q945 1151 975 1151Q1005 1151 1026.5 1129.5Q1048 1108 1048 1078Q1048 1048 1026.5 1027.0Q1005 1006 975 1006ZM832 935Q832 905 811.0 883.5Q790 862 760 862Q730 862 708.5 883.5Q687 905 687 935Q687 965 708.5 986.0Q730 1007 760 1007Q790 1007 811.0 986.0Q832 965 832 935ZM1048 791Q1048 761 1026.5 739.5Q1005 718 975 718Q945 718 924.0 739.5Q903 761 903 791Q903 821 924.0 842.0Q945 863 975 863Q1005 863 1026.5 842.0Q1048 821 1048 791ZM1264 935Q1264 905 1242.5 883.5Q1221 862 1191 862Q1161 862 1139.5 883.5Q1118 905 1118 935Q1118 965 1139.5 986.0Q1161 1007 1191 1007Q1221 1007 1242.5 986.0Q1264 965 1264 935ZM1478 791Q1478 761 1456.5 739.5Q1435 718 1405 718Q1375 718 1354.0 739.5Q1333 761 1333 791Q1333 821 1354.0 842.0Q1375 863 1405 863Q1435 863 1456.5 842.0Q1478 821 1478 791ZM1836 718Q1806 718 1784.5 739.5Q1763 761 1763 791Q1763 821 1784.5 842.0Q1806 863 1836 863Q1866 863 1887.0 842.0Q1908 821 1908 791Q1908 761 1887.0 739.5Q1866 718 1836 718ZM2124 935Q2124 905 2102.5 883.5Q2081 862 2051 862Q2021 862 2000.0 883.5Q1979 905 1979 935Q1979 965 2000.0 986.0Q2021 1007 2051 1007Q2081 1007 2102.5 986.0Q2124 965 2124 935ZM1836 1006Q1806 1006 1784.5 1027.0Q1763 1048 1763 1078Q1763 1108 1784.5 1129.5Q1806 1151 1836 1151Q1866 1151 1887.0 1129.5Q1908 1108 1908 1078Q1908 1048 1887.0 1027.0Q1866 1006 1836 1006ZM1693 935Q1693 905 1671.5 883.5Q1650 862 1620 862Q1590 862 1569.0 883.5Q1548 905 1548 935Q1548 965 1569.0 986.0Q1590 1007 1620 1007Q1650 1007 1671.5 986.0Q1693 965 1693 935ZM2051 1149Q2021 1149 2000.0 1170.5Q1979 1192 1979 1222Q1979 1252 2000.0 1273.5Q2021 1295 2051 1295Q2081 1295 2102.5 1273.5Q2124 1252 2124 1222Q2124 1192 2102.5 1170.5Q2081 1149 2051 1149ZM904 287Q873 287 852.0 308.0Q831 329 831 360Q831 390 852.5 411.0Q874 432 904 432Q934 432 955.0 411.0Q976 390 976 360Q976 330 955.0 308.5Q934 287 904 287ZM1228 360Q1228 330 1206.5 308.5Q1185 287 1155 287Q1125 287 1104.0 308.5Q1083 330 1083 360Q1083 390 1104.0 411.0Q1125 432 1155 432Q1185 432 1206.5 411.0Q1228 390 1228 360ZM1405 287Q1375 287 1354.0 308.5Q1333 330 1333 360Q1333 390 1354.0 411.0Q1375 432 1405 432Q1435 432 1456.5 411.0Q1478 390 1478 360Q1478 330 1456.5 308.5Q1435 287 1405 287ZM1479 108Q1479 78 1458.0 56.5Q1437 35 1407 35Q1377 35 1355.5 56.5Q1334 78 1334 108Q1334 138 1355.5 159.5Q1377 181 1407 181Q1437 181 1458.0 159.5Q1479 138 1479 108ZM1479 -144Q1479 -174 1458.0 -195.0Q1437 -216 1407 -216Q1377 -216 1355.5 -195.0Q1334 -174 1334 -144Q1334 -114 1355.5 -92.5Q1377 -71 1407 -71Q1437 -71 1458.0 -92.5Q1479 -114 1479 -144ZM1228 108Q1228 78 1206.5 56.5Q1185 35 1155 35Q1125 35 1104.0 56.5Q1083 78 1083 108Q1083 138 1104.0 159.5Q1125 181 1155 181Q1185 181 1206.5 159.5Q1228 138 1228 108ZM1657 287Q1627 287 1605.5 308.5Q1584 330 1584 360Q1584 390 1605.5 411.0Q1627 432 1657 432Q1687 432 1708.0 411.0Q1729 390 1729 360Q1729 330 1708.0 308.5Q1687 287 1657 287ZM1981 360Q1981 330 1959.5 308.5Q1938 287 1908 287Q1878 287 1857.0 308.5Q1836 330 1836 360Q1836 390 1857.0 411.0Q1878 432 1908 432Q1938 432 1959.5 411.0Q1981 390 1981 360ZM1657 35Q1627 35 1605.5 56.5Q1584 78 1584 108Q1584 138 1605.5 159.5Q1627 181 1657 181Q1687 181 1708.0 159.5Q1729 138 1729 108Q1729 78 1708.0 56.5Q1687 35 1657 35Z" style="fill:#ff6dc6;stroke:none" transform="scale(1,-1) translate(0,-256)" /></svg>