<?xml version="1.0" encoding="utf-8" ?>
<svg baseProfile="full" height="256" version="1.1" width="256" xmlns="http://www.w3.org/2000/svg" xmlns:ev="http://www.w3.org/2001/xml-events" xmlns:xlink="http://www.w3.org/1999/xlink"><defs /><path d="M332 94Q339 71 353.0 52.0Q367 33 386.0 19.5Q405 6 427.5 -1.5Q450 -9 474 -9Q500 -9 523.0 -8.0Q546 -7 567.5 -10.0Q589 -13 609.5 -22.0Q630 -31 651 -51Q700 -99 756.5 -141.5Q813 -184 875.0 -216.5Q937 -249 1004.0 -268.0Q1071 -287 1142 -287Q1203 -287 1250.0 -280.0Q1297 -273 1338.0 -258.0Q1379 -243 1419.0 -219.0Q1459 -195 1507 -160Q1525 -147 1542.0 -134.5Q1559 -122 1576.0 -113.0Q1593 -104 1612.5 -98.5Q1632 -93 1656 -93Q1690 -93 1723.0 -101.0Q1756 -109 1788.5 -119.0Q1821 -129 1854.0 -137.0Q1887 -145 1921 -145Q1927 -145 1933.0 -144.5Q1939 -144 1945 -144Q1975 -143 1996.0 -140.0Q2017 -137 2034.0 -130.0Q2051 -123 2068.0 -111.5Q2085 -100 2107 -81Q2145 -47 2192.5 -23.0Q2240 1 2293 1Q2307 1 2321.5 0.0Q2336 -1 2350 -1Q2392 -1 2428.5 23.0Q2465 47 2479 89Q2484 66 2484 45Q2484 20 2471.5 -1.5Q2459 -23 2439.5 -39.0Q2420 -55 2396.5 -64.0Q2373 -73 2350 -73Q2336 -73 2321.5 -72.0Q2307 -71 2293 -71Q2240 -71 2192.5 -95.0Q2145 -119 2107 -153Q2085 -172 2068.0 -183.5Q2051 -195 2033.5 -201.5Q2016 -208 1995.5 -211.0Q1975 -214 1945 -215Q1938 -216 1931.5 -216.5Q1925 -217 1918 -217Q1884 -217 1851.5 -209.0Q1819 -201 1787.0 -191.0Q1755 -181 1722.5 -173.0Q1690 -165 1656 -165Q1632 -165 1612.5 -170.5Q1593 -176 1576.0 -185.0Q1559 -194 1542.5 -206.5Q1526 -219 1507 -232Q1459 -267 1419.0 -291.0Q1379 -315 1337.5 -330.0Q1296 -345 1249.5 -352.0Q1203 -359 1142 -359Q1071 -359 1004.0 -340.0Q937 -321 875.0 -288.5Q813 -256 756.5 -213.5Q700 -171 651 -123Q634 -107 618.0 -98.0Q602 -89 585.5 -85.0Q569 -81 550.5 -80.5Q532 -80 510 -80L474 -81Q445 -81 418.5 -70.5Q392 -60 372.0 -42.0Q352 -24 340.0 1.5Q328 27 328 57Q328 66 329.0 75.5Q330 85 332 94Z" style="fill:#ff822d;stroke:none" transform="scale(1,-1) translate(0,-256)" /></svg>