<?xml version="1.0" encoding="utf-8" ?>
<svg baseProfile="full" height="256" version="1.1" width="256" xmlns="http://www.w3.org/2000/svg" xmlns:ev="http://www.w3.org/2001/xml-events" xmlns:xlink="http://www.w3.org/1999/xlink"><defs /><path d="M471 54Q449 54 433.0 69.5Q417 85 417 108Q417 129 427.5 141.0Q438 153 453.5 159.0Q469 165 487.5 166.5Q506 168 521 168Q587 168 650.0 144.5Q713 121 761 74Q803 33 846.0 -3.5Q889 -40 937.0 -67.0Q985 -94 1038.5 -110.0Q1092 -126 1154 -126Q1219 -126 1265.5 -112.0Q1312 -98 1348.5 -77.5Q1385 -57 1416.0 -32.5Q1447 -8 1480.5 12.5Q1514 33 1554.0 47.0Q1594 61 1648 61Q1693 61 1736.5 53.0Q1780 45 1823 34Q1844 29 1865.5 23.5Q1887 18 1909 18Q1941 18 1968.0 29.0Q1995 40 2021.5 56.5Q2048 73 2075.5 92.0Q2103 111 2134.0 127.5Q2165 144 2202.0 155.0Q2239 166 2286 166Q2301 166 2320.0 165.0Q2339 164 2355.5 159.0Q2372 154 2383.0 142.0Q2394 130 2394 109Q2394 86 2378.5 70.0Q2363 54 2340 54Q2326 54 2312.5 56.5Q2299 59 2285 59Q2249 59 2219.0 48.0Q2189 37 2162.0 20.5Q2135 4 2108.0 -15.5Q2081 -35 2051.5 -51.5Q2022 -68 1987.0 -79.0Q1952 -90 1909 -90Q1877 -90 1845.0 -83.5Q1813 -77 1780.0 -68.5Q1747 -60 1714.0 -53.5Q1681 -47 1647 -47Q1599 -47 1559.5 -66.5Q1520 -86 1485 -116L1482 -117Q1409 -177 1329.0 -205.0Q1249 -233 1154 -233Q1081 -233 1017.5 -215.5Q954 -198 897.0 -167.5Q840 -137 788.0 -95.0Q736 -53 687 -4Q653 30 607.5 45.0Q562 60 515 60Q504 60 493.0 57.0Q482 54 471 54Z" style="fill:#f9c23c;stroke:none" transform="scale(1,-1) translate(0,-256)" /></svg>