<?xml version="1.0" encoding="utf-8" ?>
<svg baseProfile="full" height="256" version="1.1" width="256" xmlns="http://www.w3.org/2000/svg" xmlns:ev="http://www.w3.org/2001/xml-events" xmlns:xlink="http://www.w3.org/1999/xlink"><defs /><path d="M2340 827Q2340 779 2336.0 735.5Q2332 692 2324.5 650.0Q2317 608 2306.5 566.0Q2296 524 2282 478Q2274 453 2263.0 422.5Q2252 392 2252 366Q2252 340 2264.5 316.5Q2277 293 2295.5 272.5Q2314 252 2336.0 235.0Q2358 218 2378 205Q2402 189 2421.5 174.0Q2441 159 2455.0 140.5Q2469 122 2476.5 99.0Q2484 76 2484 45Q2484 35 2483 30L2479 49Q2473 33 2462.5 18.0Q2452 3 2438.5 -9.0Q2425 -21 2409.0 -29.0Q2393 -37 2376 -40Q2356 -43 2335.5 -41.0Q2315 -39 2295 -39Q2241 -39 2193.5 -63.0Q2146 -87 2107 -122Q2085 -141 2068.0 -152.5Q2051 -164 2033.5 -170.5Q2016 -177 1995.0 -180.0Q1974 -183 1945 -184Q1938 -184 1932.0 -185.0Q1926 -186 1919 -186Q1885 -186 1852.0 -178.0Q1819 -170 1787.0 -160.0Q1755 -150 1722.5 -142.0Q1690 -134 1656 -134Q1632 -134 1612.5 -139.5Q1593 -145 1575.5 -154.0Q1558 -163 1541.5 -175.5Q1525 -188 1507 -201Q1460 -236 1419.5 -260.0Q1379 -284 1337.5 -299.0Q1296 -314 1249.0 -321.0Q1202 -328 1142 -328Q1070 -328 1003.0 -308.5Q936 -289 874.5 -256.5Q813 -224 757.5 -181.0Q702 -138 651 -91Q630 -72 609.5 -63.0Q589 -54 568.0 -51.0Q547 -48 524.5 -48.5Q502 -49 476 -49Q452 -49 429.0 -42.0Q406 -35 386.5 -21.5Q367 -8 353.0 11.0Q339 30 332 54L329 37Q328 42 328.0 47.0Q328 52 328 57Q328 100 350.5 140.0Q373 180 413 198Q440 210 466.5 225.0Q493 240 515.0 259.5Q537 279 550.5 305.0Q564 331 564 364Q564 395 552 422Q509 517 490.5 620.0Q472 723 472 827Q472 1038 540.0 1205.0Q608 1372 731.0 1487.5Q854 1603 1026.0 1664.0Q1198 1725 1406 1725Q1614 1725 1786.0 1664.0Q1958 1603 2081.0 1487.5Q2204 1372 2272.0 1205.0Q2340 1038 2340 827Z" style="fill:#ffb02e;stroke:none" transform="scale(1,-1) translate(0,-256)" /></svg>