<?xml version="1.0" encoding="utf-8" ?>
<svg baseProfile="full" height="256" version="1.1" width="256" xmlns="http://www.w3.org/2000/svg" xmlns:ev="http://www.w3.org/2001/xml-events" xmlns:xlink="http://www.w3.org/1999/xlink"><defs /><path d="M1136 935Q1095 935 1059.0 950.5Q1023 966 996.5 992.5Q970 1019 954.5 1055.0Q939 1091 939 1132Q939 1173 954.5 1209.0Q970 1245 996.5 1272.0Q1023 1299 1059.0 1314.5Q1095 1330 1136 1330Q1177 1330 1213.0 1314.5Q1249 1299 1276.0 1272.0Q1303 1245 1318.5 1209.0Q1334 1173 1334 1132Q1334 1091 1318.5 1055.0Q1303 1019 1276.0 992.5Q1249 966 1213.0 950.5Q1177 935 1136 935ZM1765 827Q1724 827 1688.0 842.5Q1652 858 1625.5 884.5Q1599 911 1583.5 947.0Q1568 983 1568 1024Q1568 1065 1583.5 1101.0Q1599 1137 1625.5 1164.0Q1652 1191 1688.0 1206.5Q1724 1222 1765 1222Q1806 1222 1842.0 1206.5Q1878 1191 1905.0 1164.0Q1932 1137 1947.5 1101.0Q1963 1065 1963 1024Q1963 983 1947.5 947.0Q1932 911 1905.0 884.5Q1878 858 1842.0 842.5Q1806 827 1765 827ZM1074 756Q1094 756 1110.5 746.5Q1127 737 1137 720V719Q1159 683 1190.0 654.5Q1221 626 1257.5 606.5Q1294 587 1335.0 577.0Q1376 567 1417 567Q1449 567 1479.5 572.5Q1510 578 1540 588Q1552 592 1568.0 600.0Q1584 608 1600.5 615.5Q1617 623 1632.0 629.0Q1647 635 1658 635Q1687 635 1708.0 613.5Q1729 592 1729 563Q1729 525 1697 503Q1670 484 1635.0 469.5Q1600 455 1562.5 444.5Q1525 434 1487.5 428.5Q1450 423 1417 423Q1393 423 1368.5 425.5Q1344 428 1320 433Q1251 447 1194.5 477.5Q1138 508 1087 556Q1076 566 1061.5 582.0Q1047 598 1033.5 615.5Q1020 633 1011.0 651.0Q1002 669 1002 684Q1002 714 1023.5 735.0Q1045 756 1074 756Z" style="fill:#402a32;stroke:none" transform="scale(1,-1) translate(0,-256)" /></svg>