<?xml version="1.0" encoding="utf-8" ?>
<svg baseProfile="full" height="256" version="1.1" width="256" xmlns="http://www.w3.org/2000/svg" xmlns:ev="http://www.w3.org/2001/xml-events" xmlns:xlink="http://www.w3.org/1999/xlink"><defs /><path d="M1370 1132Q1370 1076 1349.0 1027.0Q1328 978 1291.0 941.5Q1254 905 1205.0 884.0Q1156 863 1100 863Q1044 863 995.5 884.0Q947 905 910.0 942.0Q873 979 852.0 1027.5Q831 1076 831 1132Q831 1187 852.0 1236.5Q873 1286 910.0 1322.5Q947 1359 995.5 1380.5Q1044 1402 1100 1402Q1156 1402 1205.0 1381.0Q1254 1360 1291.0 1323.0Q1328 1286 1349.0 1237.0Q1370 1188 1370 1132ZM2071 1006Q2071 950 2049.5 901.5Q2028 853 1991.5 816.0Q1955 779 1905.5 758.0Q1856 737 1801 737Q1745 737 1696.5 758.0Q1648 779 1611.0 816.0Q1574 853 1553.0 901.5Q1532 950 1532 1006Q1532 1062 1553.0 1111.0Q1574 1160 1610.5 1197.0Q1647 1234 1696.0 1255.0Q1745 1276 1801 1276Q1857 1276 1906.0 1255.0Q1955 1234 1992.0 1197.0Q2029 1160 2050.0 1111.0Q2071 1062 2071 1006Z" style="fill:#ffffff;stroke:none" transform="scale(1,-1) translate(0,-256)" /></svg>