<?xml version="1.0" encoding="utf-8" ?>
<svg baseProfile="full" height="256" version="1.1" width="256" xmlns="http://www.w3.org/2000/svg" xmlns:ev="http://www.w3.org/2001/xml-events" xmlns:xlink="http://www.w3.org/1999/xlink"><defs /><path d="M1190 1510Q1221 1510 1236.0 1495.5Q1251 1481 1257.0 1459.0Q1263 1437 1262.5 1412.0Q1262 1387 1262 1366H2053Q2083 1366 2104.0 1345.0Q2125 1324 2125 1294Q2125 1264 2104.0 1243.0Q2083 1222 2053 1222H1231Q1216 1182 1198.0 1148.0Q1180 1114 1156 1079V1078H1909Q1939 1078 1960.0 1057.0Q1981 1036 1981 1006V144Q1981 114 1969.5 88.0Q1958 62 1938.5 42.5Q1919 23 1893.0 11.5Q1867 0 1837 0H1693Q1664 0 1643.0 21.5Q1622 43 1622 72Q1622 101 1643.0 122.5Q1664 144 1693 144H1837V360H1190V0Q1190 -30 1169.0 -51.0Q1148 -72 1118 -72Q1089 -72 1068.0 -50.5Q1047 -29 1047 0V934H1046Q1024 905 994.5 869.0Q965 833 933.0 797.0Q901 761 869.0 727.0Q837 693 810 668Q787 647 759 647Q729 647 708.0 668.0Q687 689 687 719Q687 735 692.5 747.0Q698 759 709 770Q749 812 801.5 868.5Q854 925 906.0 986.5Q958 1048 1003.5 1109.5Q1049 1171 1076 1222H759Q729 1222 708.0 1243.0Q687 1264 687 1294Q687 1324 708.0 1345.0Q729 1366 759 1366H1118Q1118 1387 1117.5 1412.0Q1117 1437 1123.0 1458.5Q1129 1480 1144.0 1495.0Q1159 1510 1190 1510ZM1837 647H1190V503H1837ZM1837 935H1190V791H1837Z" style="fill:#ffffff;stroke:none" transform="scale(1,-1) translate(0,-256)" /></svg>