<?xml version="1.0" encoding="utf-8" ?>
<svg baseProfile="full" height="256" version="1.1" width="256" xmlns="http://www.w3.org/2000/svg" xmlns:ev="http://www.w3.org/2001/xml-events" xmlns:xlink="http://www.w3.org/1999/xlink"><defs /><path d="M1134 1238Q1143 1238 1150.5 1232.5Q1158 1227 1160 1218L1197 1083Q1208 1103 1231.0 1114.5Q1254 1126 1274 1133Q1274 1118 1269.5 1102.5Q1265 1087 1257.0 1074.5Q1249 1062 1236.5 1053.5Q1224 1045 1208 1042L1215 1016L1330 987Q1338 985 1344.0 977.5Q1350 970 1350 962Q1350 951 1343.0 943.0Q1336 935 1325 935Q1319 935 1306.0 938.0Q1293 941 1278.5 944.5Q1264 948 1250.5 952.0Q1237 956 1230 958Q1232 951 1236.0 938.5Q1240 926 1243.5 912.5Q1247 899 1250.0 887.0Q1253 875 1253 869Q1253 858 1245.5 850.5Q1238 843 1227 843Q1219 843 1211.5 848.5Q1204 854 1202 862L1172 973L1153 977Q1153 962 1144.0 950.0Q1135 938 1122.0 928.5Q1109 919 1094.5 912.5Q1080 906 1068 902Q1068 927 1079.5 951.5Q1091 976 1115 987L994 1017Q985 1019 979.5 1026.5Q974 1034 974 1043Q974 1054 982.0 1061.5Q990 1069 1001 1069Q1005 1069 1027.5 1063.5Q1050 1058 1076.0 1051.5Q1102 1045 1125.5 1038.5Q1149 1032 1157 1030Q1155 1038 1147.0 1066.0Q1139 1094 1130.5 1125.0Q1122 1156 1115.5 1181.5Q1109 1207 1109 1212Q1109 1223 1116.0 1230.5Q1123 1238 1134 1238Z" style="fill:#86d72f;stroke:none" transform="scale(1,-1) translate(0,-256)" /></svg>