<?xml version="1.0" encoding="utf-8" ?>
<svg baseProfile="full" height="256" version="1.1" width="256" xmlns="http://www.w3.org/2000/svg" xmlns:ev="http://www.w3.org/2001/xml-events" xmlns:xlink="http://www.w3.org/1999/xlink"><defs /><path d="M2268 321Q2268 298 2259.0 276.5Q2250 255 2233 238L1972 -11Q1940 -41 1897 -41Q1865 -41 1837 -22L731 736Q692 762 664.0 800.0Q636 838 621 883L506 1230Q495 1265 495 1299Q495 1344 512.5 1384.0Q530 1424 563 1455L796 1674Q826 1703 864.0 1718.0Q902 1733 944 1733Q979 1733 1009 1723L1331 1621Q1402 1598 1443 1539L2248 387Q2268 358 2268 321Z" style="fill:#8c5543;stroke:none" transform="scale(1,-1) translate(0,-256)" /></svg>