<?xml version="1.0" encoding="utf-8" ?>
<svg baseProfile="full" height="256" version="1.1" width="256" xmlns="http://www.w3.org/2000/svg" xmlns:ev="http://www.w3.org/2001/xml-events" xmlns:xlink="http://www.w3.org/1999/xlink"><defs /><path d="M1157 1204Q1157 1190 1147.0 1180.0Q1137 1170 1123 1170Q1109 1170 1098.5 1180.0Q1088 1190 1088 1204Q1088 1218 1098.5 1228.5Q1109 1239 1123 1239Q1137 1239 1147.0 1228.5Q1157 1218 1157 1204ZM1022 1060Q1022 1046 1012.0 1036.0Q1002 1026 988 1026Q974 1026 963.5 1036.0Q953 1046 953 1060Q953 1074 963.5 1084.5Q974 1095 988 1095Q1003 1095 1012.5 1084.5Q1022 1074 1022 1060Z" style="fill:#ffe5d9;stroke:none" transform="scale(1,-1) translate(0,-256)" /></svg>