<?xml version="1.0" encoding="utf-8" ?>
<svg baseProfile="full" height="256" version="1.1" width="256" xmlns="http://www.w3.org/2000/svg" xmlns:ev="http://www.w3.org/2001/xml-events" xmlns:xlink="http://www.w3.org/1999/xlink"><defs /><path d="M832 568Q842 568 853 561L1035 428Q1050 416 1050 399Q1050 385 1039.0 374.0Q1028 363 1014 363Q1003 363 993 370L810 503Q795 515 795 532Q795 547 806.0 557.5Q817 568 832 568ZM1262 271Q1272 271 1283 264L1466 132Q1481 120 1481 103Q1481 88 1470.5 77.5Q1460 67 1446 67Q1432 67 1424 74L1241 206Q1226 218 1226 235Q1226 250 1237.0 260.5Q1248 271 1262 271Z" style="fill:#d3883e;stroke:none" transform="scale(1,-1) translate(0,-256)" /></svg>