<?xml version="1.0" encoding="utf-8" ?>
<svg baseProfile="full" height="256" version="1.1" width="256" xmlns="http://www.w3.org/2000/svg" xmlns:ev="http://www.w3.org/2001/xml-events" xmlns:xlink="http://www.w3.org/1999/xlink"><defs /><path d="M439 1221Q425 1221 414.5 1231.5Q404 1242 404 1256Q404 1270 414.5 1281.0Q425 1292 439 1292H863Q877 1292 887.5 1281.5Q898 1271 898 1257Q898 1241 888.5 1231.0Q879 1221 863 1221ZM2445 1221H2022Q2007 1221 1997.0 1231.5Q1987 1242 1987 1257Q1987 1271 1997.5 1281.5Q2008 1292 2022 1292H2445Q2460 1292 2470.0 1281.5Q2480 1271 2480 1256Q2480 1241 2470.0 1231.0Q2460 1221 2445 1221ZM1842 789H1041Q1028 789 1019.0 798.0Q1010 807 1010 820V830Q1010 843 1019.0 852.0Q1028 861 1041 861H1842Q1856 861 1864.0 852.0Q1872 843 1872 830V820Q1872 807 1863.5 798.0Q1855 789 1842 789Z" style="fill:#6d4534;stroke:none" transform="scale(1,-1) translate(0,-256)" /></svg>