<?xml version="1.0" encoding="utf-8" ?>
<svg baseProfile="full" height="256" version="1.1" width="256" xmlns="http://www.w3.org/2000/svg" xmlns:ev="http://www.w3.org/2001/xml-events" xmlns:xlink="http://www.w3.org/1999/xlink"><defs /><path d="M1802 805Q1802 783 1801.0 755.5Q1800 728 1805.0 703.5Q1810 679 1825.0 662.0Q1840 645 1873 645Q1884 645 1893.5 644.5Q1903 644 1914 644Q1933 644 1951.5 646.0Q1970 648 1985.0 655.5Q2000 663 2009.0 677.0Q2018 691 2018 715V1218Q2018 1248 2038.5 1268.0Q2059 1288 2089 1288H2378Q2407 1288 2428.0 1267.5Q2449 1247 2449 1218V-218H2376L2197 -144L2017 -215L1658 -218L1442 -108L1226 -218H867L687 -144L508 -218H436V1231Q436 1253 452.0 1269.0Q468 1285 490 1285H815Q838 1285 853.5 1269.5Q869 1254 869 1231V715Q869 686 890.0 665.0Q911 644 940 644Q978 644 1005.0 644.5Q1032 645 1049.5 654.0Q1067 663 1075.5 685.0Q1084 707 1084 750Q1084 764 1083.5 777.5Q1083 791 1083 805H1802Z" style="fill:#9b9b9b;stroke:none" transform="scale(1,-1) translate(0,-256)" /></svg>