<?xml version="1.0" encoding="utf-8" ?>
<svg baseProfile="full" height="256" version="1.1" width="256" xmlns="http://www.w3.org/2000/svg" xmlns:ev="http://www.w3.org/2001/xml-events" xmlns:xlink="http://www.w3.org/1999/xlink"><defs /><path d="M903 1398Q903 1346 882.5 1301.5Q862 1257 827.5 1224.0Q793 1191 747.5 1172.0Q702 1153 651 1153Q600 1153 554.5 1172.0Q509 1191 474.5 1224.0Q440 1257 420.0 1302.0Q400 1347 400 1398Q400 1437 420.0 1480.0Q440 1523 470.0 1563.5Q500 1604 534.5 1639.0Q569 1674 599 1697Q609 1705 624.0 1715.0Q639 1725 652 1725Q667 1725 692.0 1706.5Q717 1688 742.5 1663.5Q768 1639 790.0 1614.5Q812 1590 822 1577Q836 1559 850.5 1537.5Q865 1516 876.5 1493.0Q888 1470 895.5 1446.0Q903 1422 903 1398ZM2484 1398Q2484 1347 2464.0 1302.0Q2444 1257 2409.5 1224.0Q2375 1191 2329.5 1172.0Q2284 1153 2233 1153Q2182 1153 2136.0 1172.0Q2090 1191 2055.5 1224.0Q2021 1257 2001.0 1301.5Q1981 1346 1981 1398Q1981 1437 2001.0 1480.0Q2021 1523 2051.0 1563.5Q2081 1604 2115.5 1639.0Q2150 1674 2180 1697Q2190 1705 2205.0 1715.0Q2220 1725 2233 1725Q2248 1725 2273.0 1706.5Q2298 1688 2323.5 1663.5Q2349 1639 2371.0 1614.5Q2393 1590 2403 1577Q2417 1559 2431.5 1537.5Q2446 1516 2457.5 1493.0Q2469 1470 2476.5 1446.0Q2484 1422 2484 1398ZM1872 1161Q1872 1211 1853.0 1248.5Q1834 1286 1803.5 1315.5Q1773 1345 1735.0 1368.0Q1697 1391 1659 1413Q1629 1430 1603.0 1446.0Q1577 1462 1553.5 1479.0Q1530 1496 1508.0 1517.0Q1486 1538 1464 1565Q1458 1573 1453.0 1577.0Q1448 1581 1437 1581Q1427 1581 1421.5 1576.5Q1416 1572 1410 1565Q1387 1537 1365.5 1516.0Q1344 1495 1321.5 1478.0Q1299 1461 1274.0 1445.5Q1249 1430 1218 1412Q1185 1393 1148.0 1370.5Q1111 1348 1080.5 1319.5Q1050 1291 1029.5 1255.5Q1009 1220 1009 1177V1011Q1009 981 1020.5 954.0Q1032 927 1051.5 906.5Q1071 886 1097.5 874.0Q1124 862 1154 862H1725Q1757 862 1783.0 874.0Q1809 886 1828.0 906.0Q1847 926 1858.0 953.5Q1869 981 1870 1011Q1872 1049 1872.0 1086.0Q1872 1123 1872 1161Z" style="fill:#ffb02e;stroke:none" transform="scale(1,-1) translate(0,-256)" /></svg>