<?xml version="1.0" encoding="utf-8" ?>
<svg baseProfile="full" height="256" version="1.1" width="256" xmlns="http://www.w3.org/2000/svg" xmlns:ev="http://www.w3.org/2001/xml-events" xmlns:xlink="http://www.w3.org/1999/xlink"><defs /><path d="M722 717H578L579 885Q579 895 586.0 915.0Q593 935 603.5 954.5Q614 974 626.5 989.0Q639 1004 651 1004Q663 1004 675.5 989.0Q688 974 698.5 954.0Q709 934 716.0 914.0Q723 894 723 884ZM2304 717H2159L2160 885Q2160 895 2167.0 915.0Q2174 935 2184.5 954.5Q2195 974 2207.5 989.0Q2220 1004 2232 1004Q2244 1004 2256.5 989.0Q2269 974 2279.5 954.0Q2290 934 2297.0 914.0Q2304 894 2304 884ZM1226 216Q1226 235 1236.0 263.5Q1246 292 1262.5 324.0Q1279 356 1300.5 387.5Q1322 419 1345.5 444.0Q1369 469 1393.0 485.0Q1417 501 1438 501Q1460 501 1484.5 485.0Q1509 469 1533.0 444.0Q1557 419 1579.0 387.0Q1601 355 1618.0 323.5Q1635 292 1645.0 263.0Q1655 234 1655 214V-217H1226ZM868 -1Q868 22 862.5 52.0Q857 82 846.0 114.0Q835 146 819.0 177.0Q803 208 783.0 232.0Q763 256 738.5 271.0Q714 286 686 286Q658 286 634.5 271.0Q611 256 591.0 232.0Q571 208 555.5 177.0Q540 146 529.5 114.0Q519 82 513.5 52.0Q508 22 508 0V-216H579V-217H866Q867 -163 867.5 -109.0Q868 -55 868 -1ZM2194 286Q2222 286 2246.5 271.0Q2271 256 2291.5 232.0Q2312 208 2327.5 177.5Q2343 147 2354.0 115.0Q2365 83 2370.5 52.5Q2376 22 2376 -1Q2376 -55 2375.5 -109.0Q2375 -163 2374 -217H2016Q2016 -163 2016.5 -108.5Q2017 -54 2017 0Q2017 22 2022.5 52.0Q2028 82 2038.5 114.0Q2049 146 2064.5 177.0Q2080 208 2099.5 232.0Q2119 256 2142.5 271.0Q2166 286 2194 286Z" style="fill:#212121;stroke:none" transform="scale(1,-1) translate(0,-256)" /></svg>