<?xml version="1.0" encoding="utf-8" ?>
<svg baseProfile="full" height="256" version="1.1" width="256" xmlns="http://www.w3.org/2000/svg" xmlns:ev="http://www.w3.org/2001/xml-events" xmlns:xlink="http://www.w3.org/1999/xlink"><defs /><path d="M1262 1797Q1351 1797 1429.5 1763.0Q1508 1729 1566.5 1670.5Q1625 1612 1659.0 1533.5Q1693 1455 1693 1366V1150H1514V1366Q1514 1418 1494.0 1464.0Q1474 1510 1440.0 1544.0Q1406 1578 1360.0 1597.5Q1314 1617 1262 1617Q1210 1617 1164.0 1597.5Q1118 1578 1084.0 1544.0Q1050 1510 1030.5 1464.0Q1011 1418 1011 1366V1150H831V1366Q831 1455 865.0 1533.5Q899 1612 957.5 1670.5Q1016 1729 1094.5 1763.0Q1173 1797 1262 1797ZM2412 1186Q2412 1135 2396.5 1087.0Q2381 1039 2353.0 999.0Q2325 959 2285.0 928.5Q2245 898 2197 881V252Q2197 230 2188.5 210.5Q2180 191 2165.0 176.0Q2150 161 2130.5 152.5Q2111 144 2089 144Q2066 144 2046.5 152.5Q2027 161 2012.5 175.5Q1998 190 1989.5 209.5Q1981 229 1981 252V378Q1981 396 1989.5 406.5Q1998 417 2008.0 426.5Q2018 436 2026.5 446.5Q2035 457 2035 475Q2035 489 2030.0 497.0Q2025 505 2019.0 512.0Q2013 519 2008.0 527.0Q2003 535 2003 549Q2003 562 2008.0 570.5Q2013 579 2019.0 586.0Q2025 593 2030.0 601.5Q2035 610 2035 624Q2035 641 2026.5 651.5Q2018 662 2008.0 671.5Q1998 681 1989.5 692.0Q1981 703 1981 721V881Q1933 898 1893.0 928.5Q1853 959 1824.5 999.0Q1796 1039 1780.5 1087.0Q1765 1135 1765 1186Q1765 1253 1790.5 1312.0Q1816 1371 1860.0 1415.0Q1904 1459 1963.0 1484.5Q2022 1510 2089 1510Q2156 1510 2214.5 1484.5Q2273 1459 2317.0 1415.0Q2361 1371 2386.5 1312.0Q2412 1253 2412 1186ZM2089 1294Q2118 1294 2139.5 1315.5Q2161 1337 2161 1366Q2161 1395 2139.5 1416.5Q2118 1438 2089 1438Q2059 1438 2038.0 1417.0Q2017 1396 2017 1366Q2017 1336 2038.0 1315.0Q2059 1294 2089 1294Z" style="fill:#9b9b9b;stroke:none" transform="scale(1,-1) translate(0,-256)" /></svg>