<?xml version="1.0" encoding="utf-8" ?>
<svg baseProfile="full" height="256" version="1.1" width="256" xmlns="http://www.w3.org/2000/svg" xmlns:ev="http://www.w3.org/2001/xml-events" xmlns:xlink="http://www.w3.org/1999/xlink"><defs /><path d="M1370 216Q1370 193 1361.5 173.5Q1353 154 1338.5 139.5Q1324 125 1304.0 116.5Q1284 108 1262 108Q1240 108 1220.5 116.5Q1201 125 1186.0 140.0Q1171 155 1162.5 174.5Q1154 194 1154 216V467Q1121 493 1102.0 531.0Q1083 569 1083 611Q1083 648 1097.0 681.0Q1111 714 1135.5 738.5Q1160 763 1192.5 777.0Q1225 791 1262 791Q1299 791 1332.0 777.0Q1365 763 1389.5 738.5Q1414 714 1428.0 681.0Q1442 648 1442 611Q1442 568 1423.0 530.5Q1404 493 1370 467Z" style="fill:#433b6b;stroke:none" transform="scale(1,-1) translate(0,-256)" /></svg>