<?xml version="1.0" encoding="utf-8" ?>
<svg baseProfile="full" height="256" version="1.1" width="256" xmlns="http://www.w3.org/2000/svg" xmlns:ev="http://www.w3.org/2001/xml-events" xmlns:xlink="http://www.w3.org/1999/xlink"><defs /><path d="M2412 1405Q2412 1298 2371.5 1204.5Q2331 1111 2261.5 1041.5Q2192 972 2098.0 931.5Q2004 891 1898 891H1461V316H1287V1211H914Q807 1211 713.5 1251.5Q620 1292 550.5 1361.5Q481 1431 440.5 1524.5Q400 1618 400 1725H947Q1049 1725 1139.5 1687.5Q1230 1650 1299.5 1585.0Q1369 1520 1411.5 1431.5Q1454 1343 1460 1241H1461V1208Q1534 1302 1640.0 1353.5Q1746 1405 1865 1405Z" style="fill:#86d72f;stroke:none" transform="scale(1,-1) translate(0,-256)" /></svg>