<?xml version="1.0" encoding="utf-8" ?>
<svg baseProfile="full" height="256" version="1.1" width="256" xmlns="http://www.w3.org/2000/svg" xmlns:ev="http://www.w3.org/2001/xml-events" xmlns:xlink="http://www.w3.org/1999/xlink"><defs /><path d="M1251 1222Q1343 1222 1418.0 1186.5Q1493 1151 1550 1078Q1577 1043 1613.0 1024.5Q1649 1006 1694 1006H2040Q2117 1006 2184.5 977.0Q2252 948 2302.5 897.5Q2353 847 2382.5 779.5Q2412 712 2412 635V288H2411V-265Q2411 -274 2404.5 -280.5Q2398 -287 2389 -287H2075Q2066 -287 2059.5 -280.5Q2053 -274 2053 -265V44Q2053 58 2047.0 70.5Q2041 83 2031.5 93.5Q2022 104 2011.5 114.0Q2001 124 1992 133Q1893 67 1780.5 33.5Q1668 0 1550 0Q1416 0 1292 42L1185 -241Q1177 -261 1158.5 -274.0Q1140 -287 1118 -287H878Q859 -287 845.0 -273.5Q831 -260 831 -241Q831 -236 842.5 -203.0Q854 -170 871.0 -123.5Q888 -77 909.0 -22.5Q930 32 949.0 81.0Q968 130 982.0 167.0Q996 204 1001 216H579Q541 216 508.5 230.0Q476 244 452.0 268.5Q428 293 414.0 325.5Q400 358 400 396V575H592Q601 575 608.0 581.0Q615 587 615 597V700Q615 731 626.0 759.0Q637 787 656.5 808.5Q676 830 702.5 844.0Q729 858 760 862Q756 870 749.5 881.5Q743 893 736.5 906.0Q730 919 725.5 931.0Q721 943 721 952Q721 975 737.0 990.5Q753 1006 776 1006Q803 1006 815.0 990.0Q827 974 830.5 951.5Q834 929 832.5 904.5Q831 880 831 863H933V889Q933 954 957.5 1014.0Q982 1074 1025.0 1120.5Q1068 1167 1126.0 1194.5Q1184 1222 1251 1222Z" style="fill:#9b9b9b;stroke:none" transform="scale(1,-1) translate(0,-256)" /></svg>