<?xml version="1.0" encoding="utf-8" ?>
<svg baseProfile="full" height="256" version="1.1" width="256" xmlns="http://www.w3.org/2000/svg" xmlns:ev="http://www.w3.org/2001/xml-events" xmlns:xlink="http://www.w3.org/1999/xlink"><defs /><path d="M1370 144Q1370 121 1361.5 101.5Q1353 82 1338.5 67.5Q1324 53 1304.0 44.5Q1284 36 1262 36Q1240 36 1220.5 44.5Q1201 53 1186.0 68.0Q1171 83 1162.5 102.5Q1154 122 1154 144V395Q1121 421 1102.0 459.0Q1083 497 1083 539Q1083 576 1097.0 609.0Q1111 642 1135.5 666.5Q1160 691 1192.5 705.0Q1225 719 1262 719Q1299 719 1332.0 705.0Q1365 691 1389.5 666.5Q1414 642 1428.0 609.0Q1442 576 1442 539Q1442 496 1423.0 458.5Q1404 421 1370 395Z" style="fill:#433b6b;stroke:none" transform="scale(1,-1) translate(0,-256)" /></svg>