<?xml version="1.0" encoding="utf-8" ?>
<svg baseProfile="full" height="256" version="1.1" width="256" xmlns="http://www.w3.org/2000/svg" xmlns:ev="http://www.w3.org/2001/xml-events" xmlns:xlink="http://www.w3.org/1999/xlink"><defs /><path d="M472 863Q472 908 489.0 947.0Q506 986 535.0 1015.0Q564 1044 603.0 1061.0Q642 1078 687 1078H1837Q1882 1078 1921.0 1061.0Q1960 1044 1989.5 1015.0Q2019 986 2036.0 947.0Q2053 908 2053 863V-72Q2053 -117 2036.0 -156.0Q2019 -195 1989.5 -224.0Q1960 -253 1921.0 -270.0Q1882 -287 1837 -287H687Q642 -287 603.0 -270.0Q564 -253 535.0 -224.0Q506 -195 489.0 -156.0Q472 -117 472 -72Z" style="fill:#f9c23c;stroke:none" transform="scale(1,-1) translate(0,-256)" /></svg>