<?xml version="1.0" encoding="utf-8" ?>
<svg baseProfile="full" height="256" version="1.1" width="256" xmlns="http://www.w3.org/2000/svg" xmlns:ev="http://www.w3.org/2001/xml-events" xmlns:xlink="http://www.w3.org/1999/xlink"><defs /><path d="M1875 580Q1764 580 1666.0 622.0Q1568 664 1495.5 737.0Q1423 810 1380.5 907.5Q1338 1005 1338 1116Q1338 1227 1380.0 1325.0Q1422 1423 1495.0 1496.0Q1568 1569 1666.0 1611.0Q1764 1653 1875 1653Q1949 1653 2017.5 1634.0Q2086 1615 2145.5 1580.0Q2205 1545 2254.5 1495.5Q2304 1446 2339.0 1386.5Q2374 1327 2393.0 1258.5Q2412 1190 2412 1116Q2412 1005 2369.5 907.5Q2327 810 2254.5 737.0Q2182 664 2084.0 622.0Q1986 580 1875 580Z" style="fill:#533566;stroke:none" transform="scale(1,-1) translate(0,-256)" /></svg>