<?xml version="1.0" encoding="utf-8" ?>
<svg baseProfile="full" height="256" version="1.1" width="256" xmlns="http://www.w3.org/2000/svg" xmlns:ev="http://www.w3.org/2001/xml-events" xmlns:xlink="http://www.w3.org/1999/xlink"><defs /><path d="M2370 737Q2370 711 2360.0 688.5Q2350 666 2333.0 649.0Q2316 632 2293.0 622.0Q2270 612 2245 612Q2219 612 2196.0 622.5Q2173 633 2155 652L1440 1410Q1406 1446 1406 1496Q1406 1521 1416.0 1544.0Q1426 1567 1442.5 1583.5Q1459 1600 1481.5 1610.0Q1504 1620 1530 1620Q1556 1620 1580.0 1610.0Q1604 1600 1621 1581L2336 823Q2353 806 2361.5 783.0Q2370 760 2370 737ZM1364 537Q1364 515 1355.5 496.0Q1347 477 1332.5 462.5Q1318 448 1299.0 439.5Q1280 431 1258 431Q1236 431 1217.0 439.5Q1198 448 1183.5 462.5Q1169 477 1161.0 496.0Q1153 515 1153 537Q1153 559 1161.0 578.0Q1169 597 1183.5 611.5Q1198 626 1217.0 634.5Q1236 643 1258 643Q1280 643 1299.0 634.5Q1318 626 1332.5 611.5Q1347 597 1355.5 578.0Q1364 559 1364 537Z" style="fill:#bebebe;stroke:none" transform="scale(1,-1) translate(0,-256)" /></svg>