<?xml version="1.0" encoding="utf-8" ?>
<svg baseProfile="full" height="256" version="1.1" width="256" xmlns="http://www.w3.org/2000/svg" xmlns:ev="http://www.w3.org/2001/xml-events" xmlns:xlink="http://www.w3.org/1999/xlink"><defs /><path d="M1414 -287Q1224 -287 1086.0 -242.0Q948 -197 851.0 -116.0Q754 -35 694.0 76.5Q634 188 600.5 320.5Q567 453 555.5 602.0Q544 751 544 906Q544 943 543.5 979.0Q543 1015 543 1052V1280Q543 1363 581.5 1425.5Q620 1488 700 1517Q717 1523 736.0 1527.5Q755 1532 773 1532Q815 1532 857.0 1523.0Q899 1514 934 1489Q945 1520 964.5 1548.0Q984 1576 1009.5 1597.0Q1035 1618 1066.0 1630.0Q1097 1642 1132 1642Q1160 1642 1193.5 1636.5Q1227 1631 1258.0 1619.0Q1289 1607 1315.0 1588.0Q1341 1569 1356 1541Q1367 1579 1388.5 1612.5Q1410 1646 1439.0 1671.0Q1468 1696 1504.5 1710.5Q1541 1725 1582 1725Q1669 1725 1734.0 1680.5Q1799 1636 1834 1558Q1836 1552 1836 1550Q1845 1598 1861.0 1630.0Q1877 1662 1902.5 1681.5Q1928 1701 1963.5 1709.0Q1999 1717 2045 1717Q2092 1717 2135.5 1698.5Q2179 1680 2212.0 1648.0Q2245 1616 2265.0 1573.5Q2285 1531 2285 1483V1367Q2285 1265 2285.5 1164.0Q2286 1063 2286 961Q2319 901 2329.5 834.0Q2340 767 2340 700Q2340 489 2278.5 308.5Q2217 128 2098.5 -4.5Q1980 -137 1807.5 -212.0Q1635 -287 1414 -287Z" style="fill:#ffc83d;stroke:none" transform="scale(1,-1) translate(0,-256)" /></svg>