<?xml version="1.0" encoding="utf-8" ?>
<svg baseProfile="full" height="256" version="1.1" width="256" xmlns="http://www.w3.org/2000/svg" xmlns:ev="http://www.w3.org/2001/xml-events" xmlns:xlink="http://www.w3.org/1999/xlink"><defs /><path d="M1910 1179Q1944 1179 1975.0 1168.0Q2006 1157 2035 1140Q2005 1142 1958.0 1141.5Q1911 1141 1857.5 1136.5Q1804 1132 1750.5 1120.5Q1697 1109 1653.5 1089.5Q1610 1070 1583.0 1039.5Q1556 1009 1556 966Q1556 940 1558.5 913.0Q1561 886 1572 862Q1589 824 1623.5 802.5Q1658 781 1700.0 770.0Q1742 759 1786.0 756.0Q1830 753 1865 753Q1931 753 1990.5 738.0Q2050 723 2094.5 690.5Q2139 658 2165.5 606.5Q2192 555 2192 482Q2192 458 2181.0 435.0Q2170 412 2152.0 394.0Q2134 376 2111.0 365.5Q2088 355 2064 355Q2038 355 2020.0 374.0Q2002 393 1989.0 420.0Q1976 447 1967.5 475.5Q1959 504 1953 523Q1943 555 1932.5 586.5Q1922 618 1907 648Q1838 648 1771.0 642.0Q1704 636 1636 622Q1497 594 1372.0 537.0Q1247 480 1138 388Q1113 368 1091.5 346.0Q1070 324 1047 301Q1035 289 1020 289Q1006 289 995.5 300.0Q985 311 985 325Q985 338 994 349Q1040 403 1097.0 450.0Q1154 497 1218.0 536.0Q1282 575 1349.5 605.5Q1417 636 1484 657Q1451 666 1416.0 684.5Q1381 703 1355 726Q1338 709 1317.0 695.0Q1296 681 1272.0 670.5Q1248 660 1223.0 654.5Q1198 649 1174 649Q1153 649 1124.5 653.0Q1096 657 1068.0 666.0Q1040 675 1017.0 689.5Q994 704 983 726Q966 704 943.0 689.0Q920 674 894.5 665.0Q869 656 841.5 652.5Q814 649 787 649Q745 649 711.5 666.0Q678 683 652.0 711.5Q626 740 607.0 777.0Q588 814 575.0 854.0Q562 894 555.5 933.5Q549 973 547 1007Q554 970 576.5 936.0Q599 902 630.0 876.0Q661 850 698.0 834.5Q735 819 773 819Q830 819 885.0 836.0Q940 853 975 901Q943 940 928.5 987.0Q914 1034 914 1084V1347Q914 1380 918.5 1414.0Q923 1448 933.5 1480.5Q944 1513 962.0 1541.5Q980 1570 1007 1591Q996 1550 992.0 1508.5Q988 1467 988 1425V887Q1016 858 1053.5 838.5Q1091 819 1132 819Q1165 819 1195.5 824.5Q1226 830 1252.0 843.5Q1278 857 1298.5 878.5Q1319 900 1331 933Q1336 945 1340.0 961.5Q1344 978 1344 991Q1344 999 1342.0 1005.5Q1340 1012 1339 1020Q1336 1040 1335.0 1061.0Q1334 1082 1334 1103V1399Q1334 1446 1341.5 1493.0Q1349 1540 1367.5 1581.0Q1386 1622 1417.0 1655.0Q1448 1688 1495 1708Q1474 1686 1461.5 1653.0Q1449 1620 1442.5 1583.5Q1436 1547 1433.5 1510.5Q1431 1474 1431 1446V1009Q1445 1045 1471.0 1071.0Q1497 1097 1530.5 1115.5Q1564 1134 1603.0 1146.0Q1642 1158 1682.0 1165.0Q1722 1172 1760.5 1175.0Q1799 1178 1831 1179Q1829 1242 1828.0 1304.5Q1827 1367 1827 1430Q1827 1472 1831.5 1517.5Q1836 1563 1851.5 1602.0Q1867 1641 1896.5 1670.0Q1926 1699 1976 1708Q1955 1691 1942.5 1665.0Q1930 1639 1922.5 1609.5Q1915 1580 1912.5 1550.5Q1910 1521 1910 1496Z" style="fill:#d67d00;stroke:none" transform="scale(1,-1) translate(0,-256)" /></svg>