<?xml version="1.0" encoding="utf-8" ?>
<svg baseProfile="full" height="256" version="1.1" width="256" xmlns="http://www.w3.org/2000/svg" xmlns:ev="http://www.w3.org/2001/xml-events" xmlns:xlink="http://www.w3.org/1999/xlink"><defs /><path d="M1625 1170Q1625 1177 1627.5 1189.5Q1630 1202 1634.0 1215.0Q1638 1228 1642.0 1240.0Q1646 1252 1649 1259Q1671 1316 1709.0 1362.5Q1747 1409 1795.0 1441.5Q1843 1474 1900.0 1492.0Q1957 1510 2018 1510Q2099 1510 2171.0 1478.5Q2243 1447 2296.5 1393.0Q2350 1339 2381.0 1266.5Q2412 1194 2412 1113Q2412 1057 2396.5 1004.0Q2381 951 2352.0 904.5Q2323 858 2282.5 821.0Q2242 784 2191 759Q2197 732 2197 703V324Q2197 308 2219.5 295.0Q2242 282 2269.0 264.5Q2296 247 2318.5 221.5Q2341 196 2341 155V-265Q2341 -274 2334.5 -280.5Q2328 -287 2319 -287H2148Q2139 -287 2132.0 -281.0Q2125 -275 2125 -265V-15Q2125 1 2111 6L1935 76Q1897 91 1866.5 116.0Q1836 141 1813.5 173.5Q1791 206 1778.5 243.5Q1766 281 1765 322L1566 347Q1537 351 1516.0 355.5Q1495 360 1466 360Q1463 360 1438.5 355.0Q1414 350 1378.0 342.5Q1342 335 1299.5 326.5Q1257 318 1219.5 310.0Q1182 302 1154.0 296.0Q1126 290 1118 288V204Q1118 162 1102.0 124.5Q1086 87 1058.5 59.5Q1031 32 994.0 16.0Q957 0 915 0H831Q831 -12 830.5 -25.0Q830 -38 825.5 -48.5Q821 -59 812.0 -65.5Q803 -72 786 -72H661Q641 -72 631.0 -62.5Q621 -53 617.5 -39.0Q614 -25 614.5 -9.0Q615 7 615 21Q615 61 630.5 96.5Q646 132 672.0 158.5Q698 185 733.5 200.5Q769 216 809 216H903V290Q834 358 796.5 447.0Q759 536 759 633V769Q759 778 752.5 784.5Q746 791 737 791H615Q570 791 531.0 808.0Q492 825 463.0 854.0Q434 883 417.0 922.0Q400 961 400 1006V1024Q400 1047 415.5 1062.5Q431 1078 454 1078H563Q582 1078 594.0 1084.5Q606 1091 613.5 1101.5Q621 1112 626.0 1126.0Q631 1140 635 1155Q647 1201 672.5 1240.0Q698 1279 733.0 1307.0Q768 1335 811.5 1350.5Q855 1366 904 1366H1044Q1075 1366 1101.5 1348.0Q1128 1330 1139 1301L1228 1077Q1237 1053 1248.0 1029.0Q1259 1005 1274.0 986.5Q1289 968 1310.0 956.0Q1331 944 1362 944Q1367 944 1371.0 944.0Q1375 944 1380 945L1870 1006Q1876 1007 1882.0 1007.0Q1888 1007 1893 1007Q1963 1007 2026.0 976.5Q2089 946 2132 891Q2163 907 2188.0 930.5Q2213 954 2231.0 983.0Q2249 1012 2258.5 1045.0Q2268 1078 2268 1113Q2268 1165 2248.5 1211.5Q2229 1258 2194.5 1292.0Q2160 1326 2114.0 1346.0Q2068 1366 2016 1366Q1942 1366 1885.0 1329.5Q1828 1293 1793 1229Q1767 1183 1730.0 1166.5Q1693 1150 1643 1150Q1634 1150 1629.5 1156.0Q1625 1162 1625 1170Z" style="fill:#f3ad61;stroke:none" transform="scale(1,-1) translate(0,-256)" /></svg>