<?xml version="1.0" encoding="utf-8" ?>
<svg baseProfile="full" height="256" version="1.1" width="256" xmlns="http://www.w3.org/2000/svg" xmlns:ev="http://www.w3.org/2001/xml-events" xmlns:xlink="http://www.w3.org/1999/xlink"><defs /><path d="M2292 719Q2292 597 2260.5 483.5Q2229 370 2171.0 272.0Q2113 174 2032.0 93.0Q1951 12 1853.0 -46.0Q1755 -104 1641.5 -135.5Q1528 -167 1406 -167Q1284 -167 1170.5 -135.5Q1057 -104 959.0 -46.0Q861 12 780.0 93.0Q699 174 641.0 272.0Q583 370 551.5 483.5Q520 597 520 719Q520 841 551.5 954.5Q583 1068 641.0 1166.0Q699 1264 780.0 1345.0Q861 1426 959.0 1484.0Q1057 1542 1170.5 1573.5Q1284 1605 1406 1605Q1528 1605 1641.5 1573.5Q1755 1542 1853.0 1484.0Q1951 1426 2032.0 1345.0Q2113 1264 2171.0 1166.0Q2229 1068 2260.5 954.5Q2292 841 2292 719Z" style="fill:#e6e6e6;stroke:none" transform="scale(1,-1) translate(0,-256)" /></svg>