<?xml version="1.0" encoding="utf-8" ?>
<svg baseProfile="full" height="256" version="1.1" width="256" xmlns="http://www.w3.org/2000/svg" xmlns:ev="http://www.w3.org/2001/xml-events" xmlns:xlink="http://www.w3.org/1999/xlink"><defs /><path d="M1550 216Q1595 216 1634.0 199.0Q1673 182 1702.0 152.5Q1731 123 1748.0 84.0Q1765 45 1765 0Q1765 -45 1748.0 -84.0Q1731 -123 1702.0 -152.0Q1673 -181 1634.0 -198.0Q1595 -215 1550 -215Q1507 -215 1468.5 -199.0Q1430 -183 1400.5 -155.0Q1371 -127 1353.0 -89.5Q1335 -52 1334 -9Q1332 -52 1314.0 -89.5Q1296 -127 1267.0 -155.0Q1238 -183 1199.5 -199.0Q1161 -215 1118 -215Q1075 -215 1036.5 -199.0Q998 -183 969.0 -155.0Q940 -127 922.0 -89.5Q904 -52 903 -9Q901 -52 883.0 -89.5Q865 -127 836.0 -155.0Q807 -183 768.5 -199.0Q730 -215 687 -215Q642 -215 603.0 -198.0Q564 -181 535.0 -152.0Q506 -123 489.0 -84.0Q472 -45 472 0Q472 45 489.0 84.0Q506 123 535.0 152.5Q564 182 603.0 199.0Q642 216 687 216Q730 216 768.5 200.0Q807 184 836.5 156.0Q866 128 883.5 90.0Q901 52 903 9Q904 52 921.5 90.0Q939 128 968.5 156.0Q998 184 1036.5 200.0Q1075 216 1118 216Q1161 216 1199.5 200.0Q1238 184 1267.5 156.0Q1297 128 1314.5 90.0Q1332 52 1334 9Q1335 52 1353.0 90.0Q1371 128 1400.0 156.0Q1429 184 1468.0 200.0Q1507 216 1550 216ZM1550 -27Q1561 -27 1569.0 -19.0Q1577 -11 1577 0Q1577 11 1569.0 19.0Q1561 27 1550 27Q1539 27 1531.0 19.0Q1523 11 1523 0Q1523 -11 1531.0 -19.0Q1539 -27 1550 -27ZM687 -27Q698 -27 706.0 -19.0Q714 -11 714 0Q714 11 706.0 19.0Q698 27 687 27Q676 27 668.0 19.0Q660 11 660 0Q660 -11 668.0 -19.0Q676 -27 687 -27ZM1118 -27Q1129 -27 1137.0 -19.0Q1145 -11 1145 0Q1145 11 1137.0 19.0Q1129 27 1118 27Q1107 27 1099.0 19.0Q1091 11 1091 0Q1091 -11 1099.0 -19.0Q1107 -27 1118 -27Z" style="fill:#007356;stroke:none" transform="scale(1,-1) translate(0,-256)" /></svg>