<?xml version="1.0" encoding="utf-8" ?>
<svg baseProfile="full" height="256" version="1.1" width="256" xmlns="http://www.w3.org/2000/svg" xmlns:ev="http://www.w3.org/2001/xml-events" xmlns:xlink="http://www.w3.org/1999/xlink"><defs /><path d="M1550 1653Q1595 1653 1634.0 1636.0Q1673 1619 1702.0 1590.0Q1731 1561 1748.0 1522.0Q1765 1483 1765 1438Q1765 1393 1748.0 1354.0Q1731 1315 1702.0 1285.5Q1673 1256 1634.0 1239.0Q1595 1222 1550 1222Q1507 1222 1468.0 1238.0Q1429 1254 1400.0 1282.0Q1371 1310 1353.0 1347.5Q1335 1385 1334 1429Q1332 1385 1314.5 1347.5Q1297 1310 1267.5 1282.0Q1238 1254 1199.5 1238.0Q1161 1222 1118 1222Q1075 1222 1036.5 1238.0Q998 1254 968.5 1282.0Q939 1310 921.5 1347.5Q904 1385 903 1429Q901 1385 883.5 1347.5Q866 1310 836.5 1282.0Q807 1254 768.5 1238.0Q730 1222 687 1222Q642 1222 603.0 1239.0Q564 1256 535.0 1285.5Q506 1315 489.0 1354.0Q472 1393 472 1438Q472 1483 489.0 1522.0Q506 1561 535.0 1590.0Q564 1619 603.0 1636.0Q642 1653 687 1653Q732 1653 771.0 1636.0Q810 1619 839.5 1590.0Q869 1561 886.0 1522.0Q903 1483 903 1438Q903 1483 920.0 1522.0Q937 1561 966.0 1590.0Q995 1619 1034.0 1636.0Q1073 1653 1118 1653Q1161 1653 1199.5 1637.0Q1238 1621 1267.0 1593.0Q1296 1565 1314.0 1527.5Q1332 1490 1334 1447Q1335 1490 1353.0 1527.5Q1371 1565 1400.5 1593.0Q1430 1621 1468.5 1637.0Q1507 1653 1550 1653ZM1550 1411Q1561 1411 1569.0 1419.0Q1577 1427 1577 1438Q1577 1449 1569.0 1457.0Q1561 1465 1550 1465Q1539 1465 1531.0 1457.0Q1523 1449 1523 1438Q1523 1427 1531.0 1419.0Q1539 1411 1550 1411ZM687 1411Q698 1411 706.0 1419.0Q714 1427 714 1438Q714 1449 706.0 1457.0Q698 1465 687 1465Q676 1465 668.0 1457.0Q660 1449 660 1438Q660 1427 668.0 1419.0Q676 1411 687 1411ZM1118 1411Q1129 1411 1137.0 1419.0Q1145 1427 1145 1438Q1145 1449 1137.0 1457.0Q1129 1465 1118 1465Q1107 1465 1099.0 1457.0Q1091 1449 1091 1438Q1091 1427 1099.0 1419.0Q1107 1411 1118 1411Z" style="fill:#b4acbc;stroke:none" transform="scale(1,-1) translate(0,-256)" /></svg>