<?xml version="1.0" encoding="utf-8" ?>
<svg baseProfile="full" height="256" version="1.1" width="256" xmlns="http://www.w3.org/2000/svg" xmlns:ev="http://www.w3.org/2001/xml-events" xmlns:xlink="http://www.w3.org/1999/xlink"><defs /><path d="M1658 575Q1643 575 1632.5 585.5Q1622 596 1622 611Q1622 626 1632.5 636.5Q1643 647 1658 647Q1672 647 1682.5 636.0Q1693 625 1693 611Q1693 597 1682.5 586.0Q1672 575 1658 575ZM1514 431Q1500 431 1489.0 442.0Q1478 453 1478 467Q1478 482 1488.5 492.5Q1499 503 1514 503Q1529 503 1539.5 492.5Q1550 482 1550 467Q1550 453 1539.0 442.0Q1528 431 1514 431Z" style="fill:#1c1c1c;stroke:none" transform="scale(1,-1) translate(0,-256)" /></svg>