<?xml version="1.0" encoding="utf-8" ?>
<svg baseProfile="full" height="256" version="1.1" width="256" xmlns="http://www.w3.org/2000/svg" xmlns:ev="http://www.w3.org/2001/xml-events" xmlns:xlink="http://www.w3.org/1999/xlink"><defs /><path d="M2199 1730Q2207 1730 2211.5 1723.5Q2216 1717 2216 1710Q2216 1704 2214.0 1699.5Q2212 1695 2210 1690Q2191 1657 2182.5 1620.0Q2174 1583 2174 1545Q2174 1469 2209.0 1407.0Q2244 1345 2316 1313Q2333 1305 2350.0 1301.0Q2367 1297 2384 1292Q2390 1290 2393.0 1285.0Q2396 1280 2396 1274Q2396 1264 2388 1256Q2339 1200 2308.5 1135.0Q2278 1070 2278 994Q2278 919 2313.0 856.5Q2348 794 2407 748Q2410 746 2412.5 743.5Q2415 741 2415 736Q2415 728 2405.0 723.0Q2395 718 2388 715Q2277 666 2222.5 586.5Q2168 507 2168 381Q2168 345 2172.5 308.5Q2177 272 2185 237L1730 691Q1756 714 1766.5 749.0Q1777 784 1777 817Q1777 857 1766.0 895.0Q1755 933 1737.0 968.5Q1719 1004 1696.5 1037.5Q1674 1071 1651 1102Q1644 1111 1639.5 1121.5Q1635 1132 1635 1143Q1635 1153 1638.5 1163.0Q1642 1173 1649 1180L2174 1711Q2179 1716 2185.0 1723.0Q2191 1730 2199 1730ZM406 -63Q406 -71 412.5 -76.0Q419 -81 426 -81Q432 -81 436.5 -78.5Q441 -76 446 -74Q479 -55 516.0 -46.5Q553 -38 591 -38Q667 -38 729.0 -73.0Q791 -108 823 -180Q831 -197 835.0 -214.0Q839 -231 844 -248Q846 -254 851.0 -257.0Q856 -260 862 -260Q872 -260 880 -252Q936 -203 1001.0 -172.5Q1066 -142 1142 -142Q1219 -142 1279.5 -177.0Q1340 -212 1388 -271Q1394 -279 1399 -279Q1407 -279 1412.5 -269.0Q1418 -259 1421 -252Q1468 -140 1550.0 -85.5Q1632 -31 1756 -31Q1792 -31 1828.0 -35.5Q1864 -40 1899 -48L1445 406Q1422 380 1387.0 369.5Q1352 359 1320 359Q1279 359 1241.0 370.0Q1203 381 1167.0 398.5Q1131 416 1098.0 438.5Q1065 461 1034 485Q1025 492 1015.0 497.0Q1005 502 993 502Q971 502 956 487L425 -37Q420 -42 413.0 -48.5Q406 -55 406 -63Z" style="fill:#a56953;stroke:none" transform="scale(1,-1) translate(0,-256)" /></svg>