<?xml version="1.0" encoding="utf-8" ?>
<svg baseProfile="full" height="256" version="1.1" width="256" xmlns="http://www.w3.org/2000/svg" xmlns:ev="http://www.w3.org/2001/xml-events" xmlns:xlink="http://www.w3.org/1999/xlink"><defs /><path d="M1602 456Q1602 498 1618.0 514.0Q1634 530 1676 530Q1685 530 1700.0 528.0Q1715 526 1729.5 521.5Q1744 517 1754.0 508.5Q1764 500 1764 487Q1764 474 1750.5 454.0Q1737 434 1718.0 415.5Q1699 397 1679.0 384.0Q1659 371 1646 371Q1633 371 1624.5 381.0Q1616 391 1611.0 404.5Q1606 418 1604.0 432.5Q1602 447 1602 456Z" style="fill:#ff8687;stroke:none" transform="scale(1,-1) translate(0,-256)" /></svg>