<?xml version="1.0" encoding="utf-8" ?>
<svg baseProfile="full" height="256" version="1.1" width="256" xmlns="http://www.w3.org/2000/svg" xmlns:ev="http://www.w3.org/2001/xml-events" xmlns:xlink="http://www.w3.org/1999/xlink"><defs /><path d="M1209 200Q1209 181 1203.5 163.0Q1198 145 1187.0 130.5Q1176 116 1160.5 107.0Q1145 98 1124 98Q1100 98 1079.5 109.5Q1059 121 1045.0 139.5Q1031 158 1023.0 180.5Q1015 203 1015 226Q1015 245 1020.5 263.0Q1026 281 1037.0 295.0Q1048 309 1063.5 318.0Q1079 327 1100 327Q1124 327 1144.5 315.5Q1165 304 1179.0 285.5Q1193 267 1201.0 244.5Q1209 222 1209 200ZM2271 199Q2271 180 2265.5 162.0Q2260 144 2249.0 129.5Q2238 115 2222.0 106.0Q2206 97 2185 97Q2161 97 2141.0 108.5Q2121 120 2106.5 138.5Q2092 157 2084.5 179.5Q2077 202 2077 225Q2077 244 2082.5 262.0Q2088 280 2098.5 294.5Q2109 309 2124.5 318.0Q2140 327 2161 327Q2186 327 2206.0 315.5Q2226 304 2240.5 285.5Q2255 267 2263.0 244.0Q2271 221 2271 199Z" style="fill:#d3d3d3;stroke:none" transform="scale(1,-1) translate(0,-256)" /></svg>