<?xml version="1.0" encoding="utf-8" ?>
<svg baseProfile="full" height="256" version="1.1" width="256" xmlns="http://www.w3.org/2000/svg" xmlns:ev="http://www.w3.org/2001/xml-events" xmlns:xlink="http://www.w3.org/1999/xlink"><defs /><path d="M878 -287Q779 -287 692.0 -249.5Q605 -212 540.0 -147.0Q475 -82 437.5 5.0Q400 92 400 191Q400 262 420.5 310.0Q441 358 476.5 388.0Q512 418 559.5 433.5Q607 449 660.0 455.5Q713 462 769.0 462.5Q825 463 878 463Q911 463 951.5 463.0Q992 463 1034.5 461.0Q1077 459 1119.5 452.5Q1162 446 1200.0 432.5Q1238 419 1269.5 397.5Q1301 376 1321 343Q1363 355 1408 355Q1449 355 1493 344Q1523 392 1577.5 417.0Q1632 442 1694.5 452.0Q1757 462 1821.0 462.5Q1885 463 1935 463Q1988 463 2044.0 462.5Q2100 462 2153.5 455.5Q2207 449 2254.0 433.5Q2301 418 2336.5 388.0Q2372 358 2393.0 310.0Q2414 262 2414 191Q2414 92 2376.5 5.0Q2339 -82 2273.5 -147.0Q2208 -212 2121.0 -249.5Q2034 -287 1935 -287Q1836 -287 1749.0 -249.5Q1662 -212 1596.5 -147.5Q1531 -83 1493.5 4.5Q1456 92 1456 191Q1456 196 1456.0 201.5Q1456 207 1457 212Q1445 215 1432.5 217.0Q1420 219 1407 219Q1379 219 1357 212V191Q1357 92 1319.5 4.5Q1282 -83 1216.5 -147.5Q1151 -212 1064.0 -249.5Q977 -287 878 -287Z" style="fill:#635994;stroke:none" transform="scale(1,-1) translate(0,-256)" /></svg>