<?xml version="1.0" encoding="utf-8" ?>
<svg baseProfile="full" height="256" version="1.1" width="256" xmlns="http://www.w3.org/2000/svg" xmlns:ev="http://www.w3.org/2001/xml-events" xmlns:xlink="http://www.w3.org/1999/xlink"><defs /><path d="M1980 791Q2040 791 2097.0 811.5Q2154 832 2201 870Q2209 877 2214.0 882.0Q2219 887 2227 894Q2245 909 2261.5 917.0Q2278 925 2303 925Q2325 925 2345.0 916.5Q2365 908 2380.0 893.5Q2395 879 2403.5 859.5Q2412 840 2412 817V488Q2412 381 2383.0 282.0Q2354 183 2301.5 97.0Q2249 11 2176.0 -60.0Q2103 -131 2015.0 -181.5Q1927 -232 1827.5 -259.5Q1728 -287 1622 -287H1406Q1558 -287 1698.0 -231.5Q1838 -176 1949 -72H1449Q1337 -72 1241.0 -36.0Q1145 0 1074.5 66.5Q1004 133 963.5 226.5Q923 320 923 434Q936 411 953.5 389.0Q971 367 989 348Q1081 251 1198.0 202.0Q1315 153 1449 153Q1576 153 1676.5 186.0Q1777 219 1846.5 284.0Q1916 349 1953.0 445.5Q1990 542 1990 670Q1990 697 1987.5 730.5Q1985 764 1980 791Z" style="fill:#9b9b9b;stroke:none" transform="scale(1,-1) translate(0,-256)" /></svg>