<?xml version="1.0" encoding="utf-8" ?>
<svg baseProfile="full" height="256" version="1.1" width="256" xmlns="http://www.w3.org/2000/svg" xmlns:ev="http://www.w3.org/2001/xml-events" xmlns:xlink="http://www.w3.org/1999/xlink"><defs /><path d="M1337 1400Q1337 1367 1330.5 1334.0Q1324 1301 1310 1271L1162 935L903 863L705 935Q709 944 722.0 972.5Q735 1001 749.0 1033.0Q763 1065 774.5 1091.5Q786 1118 786 1123Q786 1134 778.0 1142.0Q770 1150 759 1150L687 1294L705 1293Q697 1319 692.0 1346.0Q687 1373 687 1400Q687 1467 712.5 1526.0Q738 1585 782.5 1629.5Q827 1674 886.0 1699.5Q945 1725 1012 1725Q1079 1725 1138.0 1699.5Q1197 1674 1241.5 1629.5Q1286 1585 1311.5 1526.0Q1337 1467 1337 1400Z" style="fill:#44911b;stroke:none" transform="scale(1,-1) translate(0,-256)" /></svg>