<?xml version="1.0" encoding="utf-8" ?>
<svg baseProfile="full" height="256" version="1.1" width="256" xmlns="http://www.w3.org/2000/svg" xmlns:ev="http://www.w3.org/2001/xml-events" xmlns:xlink="http://www.w3.org/1999/xlink"><defs /><path d="M2268 1797Q2313 1797 2352.5 1780.0Q2392 1763 2421.0 1734.0Q2450 1705 2467.0 1665.5Q2484 1626 2484 1581V-144Q2484 -189 2467.0 -228.0Q2450 -267 2420.5 -296.0Q2391 -325 2352.0 -342.0Q2313 -359 2268 -359H543Q498 -359 459.0 -342.0Q420 -325 391.0 -296.0Q362 -267 345.0 -228.0Q328 -189 328 -144V1581Q328 1626 345.0 1665.0Q362 1704 391.0 1733.5Q420 1763 459.0 1780.0Q498 1797 543 1797Z" style="fill:#636363;stroke:none" transform="scale(1,-1) translate(0,-256)" /></svg>