<?xml version="1.0" encoding="utf-8" ?>
<svg baseProfile="full" height="256" version="1.1" width="256" xmlns="http://www.w3.org/2000/svg" xmlns:ev="http://www.w3.org/2001/xml-events" xmlns:xlink="http://www.w3.org/1999/xlink"><defs /><path d="M2411 250V-191Q2411 -200 2404.5 -206.5Q2398 -213 2389 -213H2291Q2282 -213 2275.0 -206.5Q2268 -200 2268 -191V51Q2268 63 2263.0 70.5Q2258 78 2249 85L1954 296Q1913 325 1889.5 370.5Q1866 416 1866 467L1612 460Q1593 460 1578.0 460.5Q1563 461 1548.5 461.0Q1534 461 1518.5 460.5Q1503 460 1485 457Q1455 452 1435.0 443.0Q1415 434 1387 425L1190 360V155Q1190 117 1178.5 90.5Q1167 64 1153.5 44.0Q1140 24 1129.0 9.5Q1118 -5 1118 -18V-192Q1118 -201 1111.5 -207.5Q1105 -214 1096 -214H997Q988 -214 981.5 -207.5Q975 -201 975 -192V362Q900 362 836.0 383.0Q772 404 717 456L766 811L615 1006H512Q489 1006 468.5 1015.0Q448 1024 433.0 1040.0Q418 1056 409.0 1076.5Q400 1097 400 1120Q400 1135 405.5 1149.5Q411 1164 422 1175L652 1405Q669 1422 691.5 1431.0Q714 1440 738 1440H1133Q1148 1440 1158.5 1429.5Q1169 1419 1169 1404Q1169 1393 1162 1383Q1145 1357 1123.0 1340.0Q1101 1323 1075.5 1313.0Q1050 1303 1022.0 1299.0Q994 1295 965 1295L1083 1078Q1100 1046 1130.0 1027.5Q1160 1009 1196 1009H1981V1222Q2011 1222 2037.0 1210.5Q2063 1199 2082.5 1179.5Q2102 1160 2113.5 1134.0Q2125 1108 2125 1078V977Q2158 959 2184.5 933.5Q2211 908 2229.5 877.5Q2248 847 2258.0 811.5Q2268 776 2268 739V461Q2268 442 2278.5 425.5Q2289 409 2305.0 393.5Q2321 378 2339.5 362.0Q2358 346 2374.0 329.0Q2390 312 2400.5 292.5Q2411 273 2411 250Z" style="fill:#f3ad61;stroke:none" transform="scale(1,-1) translate(0,-256)" /></svg>