<?xml version="1.0" encoding="utf-8" ?>
<svg baseProfile="full" height="256" version="1.1" width="256" xmlns="http://www.w3.org/2000/svg" xmlns:ev="http://www.w3.org/2001/xml-events" xmlns:xlink="http://www.w3.org/1999/xlink"><defs /><path d="M1118 -265Q1118 -274 1111.5 -280.5Q1105 -287 1096 -287H997Q988 -287 981.5 -280.5Q975 -274 975 -265V-144H1118ZM1456 -287Q1447 -287 1439.0 -284.0Q1431 -281 1428 -271L1393 -144H1541Q1544 -154 1549.0 -171.5Q1554 -189 1559.5 -207.5Q1565 -226 1569.0 -243.0Q1573 -260 1573 -268Q1573 -276 1568.5 -281.5Q1564 -287 1556 -287ZM1681 -144H1852L1785 -260Q1777 -273 1761.5 -280.0Q1746 -287 1732 -287H1658Q1649 -287 1642.0 -280.5Q1635 -274 1635 -264Q1635 -260 1641.0 -243.0Q1647 -226 1655.0 -206.0Q1663 -186 1670.5 -168.0Q1678 -150 1681 -144ZM2412 -144V-265Q2412 -274 2405.0 -280.5Q2398 -287 2389 -287H2291Q2282 -287 2275.0 -280.5Q2268 -274 2268 -265V-144Z" style="fill:#6d4534;stroke:none" transform="scale(1,-1) translate(0,-256)" /></svg>