<?xml version="1.0" encoding="utf-8" ?>
<svg baseProfile="full" height="256" version="1.1" width="256" xmlns="http://www.w3.org/2000/svg" xmlns:ev="http://www.w3.org/2001/xml-events" xmlns:xlink="http://www.w3.org/1999/xlink"><defs /><path d="M1226 1724Q1241 1724 1251.5 1713.5Q1262 1703 1262 1688V1650Q1262 1606 1234.5 1574.0Q1207 1542 1164 1535L869 1486Q849 1483 841.0 1470.0Q833 1457 831.0 1439.5Q829 1422 830.5 1403.0Q832 1384 830.5 1367.5Q829 1351 821.5 1340.5Q814 1330 795 1330Q775 1330 768.0 1340.5Q761 1351 759.5 1367.0Q758 1383 759.5 1402.0Q761 1421 758.5 1439.0Q756 1457 747.5 1470.5Q739 1484 717 1490L676 1500Q634 1511 605.5 1543.0Q577 1575 577 1620Q577 1634 588.5 1643.5Q600 1653 613 1653Q628 1653 638.5 1642.5Q649 1632 649 1617V1622Q649 1595 664.0 1584.0Q679 1573 701.5 1567.0Q724 1561 749.0 1553.5Q774 1546 795 1525Q822 1550 858 1556L1152 1605Q1170 1608 1178.0 1618.0Q1186 1628 1188.0 1641.0Q1190 1654 1190.0 1669.0Q1190 1684 1192.0 1696.0Q1194 1708 1201.0 1716.0Q1208 1724 1226 1724Z" style="fill:#6d4534;stroke:none" transform="scale(1,-1) translate(0,-256)" /></svg>