<?xml version="1.0" encoding="utf-8" ?>
<svg baseProfile="full" height="256" version="1.1" width="256" xmlns="http://www.w3.org/2000/svg" xmlns:ev="http://www.w3.org/2001/xml-events" xmlns:xlink="http://www.w3.org/1999/xlink"><defs /><path d="M687 1186Q687 1171 676.5 1160.5Q666 1150 651 1150Q636 1150 625.5 1160.5Q615 1171 615 1186Q615 1201 625.5 1211.5Q636 1222 651 1222Q666 1222 676.5 1211.5Q687 1201 687 1186ZM476 1078H407Q404 1088 402.0 1098.0Q400 1108 400 1119Q400 1136 407 1150H473Q489 1150 499.0 1139.5Q509 1129 509 1113Q509 1099 499.5 1088.5Q490 1078 476 1078Z" style="fill:#212121;stroke:none" transform="scale(1,-1) translate(0,-256)" /></svg>