<?xml version="1.0" encoding="utf-8" ?>
<svg baseProfile="full" height="256" version="1.1" width="256" xmlns="http://www.w3.org/2000/svg" xmlns:ev="http://www.w3.org/2001/xml-events" xmlns:xlink="http://www.w3.org/1999/xlink"><defs /><path d="M400 1694Q400 1708 411.0 1719.0Q422 1730 436 1730Q535 1730 621.5 1692.5Q708 1655 772.5 1590.5Q837 1526 874.0 1439.5Q911 1353 911 1254Q911 1240 900.5 1229.0Q890 1218 876 1218Q862 1218 851.0 1229.0Q840 1240 840 1254Q840 1338 808.0 1411.5Q776 1485 721.5 1539.5Q667 1594 593.5 1626.0Q520 1658 436 1658Q422 1658 411.0 1669.0Q400 1680 400 1694ZM1481 751Q1481 766 1469.5 776.5Q1458 787 1444 787Q1437 787 1429.0 783.0Q1421 779 1413.0 774.0Q1405 769 1398.0 763.0Q1391 757 1385 753Q1382 754 1376 754Q1362 754 1352.0 744.5Q1342 735 1341 721L949 441Q895 486 827.5 506.5Q760 527 691 527Q653 527 615.0 520.5Q577 514 540.5 501.0Q504 488 471.0 468.0Q438 448 411 420Q400 409 400 394Q400 380 411.0 369.0Q422 358 436 358Q451 358 462 369Q510 414 567.5 434.5Q625 455 691 455Q757 455 815.0 434.5Q873 414 921 369Q933 359 946 359Q959 359 967 366L1291 597L772 -232Q767 -240 767 -251Q767 -266 777.5 -276.5Q788 -287 803 -287Q822 -287 833 -270L1341 541V-251Q1341 -265 1351.5 -276.0Q1362 -287 1376 -287Q1391 -287 1401.5 -276.5Q1412 -266 1412 -251V656Q1413 659 1418.0 666.0Q1423 673 1428.0 681.0Q1433 689 1437.5 696.0Q1442 703 1442 705Q1455 714 1468.0 724.0Q1481 734 1481 751Z" style="fill:#533566;stroke:none" transform="scale(1,-1) translate(0,-256)" /></svg>