<?xml version="1.0" encoding="utf-8" ?>
<svg baseProfile="full" height="256" version="1.1" width="256" xmlns="http://www.w3.org/2000/svg" xmlns:ev="http://www.w3.org/2001/xml-events" xmlns:xlink="http://www.w3.org/1999/xlink"><defs /><path d="M1192 716Q1161 692 1121.5 678.0Q1082 664 1039.0 657.5Q996 651 952.5 649.0Q909 647 872 647Q803 647 732.5 653.5Q662 660 605.5 685.0Q549 710 513.0 760.5Q477 811 477 899Q477 981 508.0 1053.0Q539 1125 592.5 1178.5Q646 1232 718.0 1263.0Q790 1294 872 1294Q954 1294 1026.0 1263.0Q1098 1232 1151.5 1178.5Q1205 1125 1236.0 1053.0Q1267 981 1267 899V882Q1296 908 1333.0 921.5Q1370 935 1409 935Q1454 935 1493.5 918.0Q1533 901 1562.5 871.5Q1592 842 1609.0 802.5Q1626 763 1626 718Q1626 708 1625.0 698.0Q1624 688 1622 678Q1643 711 1670.5 733.5Q1698 756 1730.0 769.5Q1762 783 1797.5 789.0Q1833 795 1871 795Q1983 795 2081.5 752.5Q2180 710 2253.5 636.5Q2327 563 2369.5 464.5Q2412 366 2412 254Q2412 142 2369.5 43.5Q2327 -55 2253.5 -128.5Q2180 -202 2081.5 -244.5Q1983 -287 1871 -287Q1790 -287 1735.5 -264.0Q1681 -241 1646.0 -201.0Q1611 -161 1592.5 -107.5Q1574 -54 1565.5 6.0Q1557 66 1556.0 129.5Q1555 193 1555 254Q1555 338 1558.5 424.0Q1562 510 1585 591Q1554 549 1508.0 525.0Q1462 501 1409 501Q1364 501 1325.0 518.0Q1286 535 1256.5 564.0Q1227 593 1209.5 632.0Q1192 671 1192 716Z" style="fill:#635994;stroke:none" transform="scale(1,-1) translate(0,-256)" /></svg>