<?xml version="1.0" encoding="utf-8" ?>
<svg baseProfile="full" height="256" version="1.1" width="256" xmlns="http://www.w3.org/2000/svg" xmlns:ev="http://www.w3.org/2001/xml-events" xmlns:xlink="http://www.w3.org/1999/xlink"><defs /><path d="M1420 1214Q1416 1181 1413.0 1148.0Q1410 1115 1399.0 1088.5Q1388 1062 1364.5 1045.5Q1341 1029 1297 1029Q1275 1029 1253.5 1030.5Q1232 1032 1215.0 1039.0Q1198 1046 1187.5 1061.0Q1177 1076 1177 1103L1196 1436H1074Q1067 1361 1053.5 1304.0Q1040 1247 1014.5 1198.5Q989 1150 950.5 1106.0Q912 1062 856 1013L798 1075Q847 1107 882.0 1146.0Q917 1185 940.0 1230.5Q963 1276 976.0 1327.5Q989 1379 994 1436H820V1513H999Q1001 1545 1002.0 1576.0Q1003 1607 1003 1639H1080V1588Q1080 1569 1080.0 1550.5Q1080 1532 1078 1513H1279L1256 1106H1293Q1295 1106 1298.0 1105.5Q1301 1105 1303 1105Q1312 1105 1320 1108Q1326 1115 1330.0 1133.0Q1334 1151 1336.5 1171.5Q1339 1192 1340.0 1211.5Q1341 1231 1341 1241Z" style="fill:#007356;stroke:none" transform="scale(1,-1) translate(0,-256)" /></svg>