<?xml version="1.0" encoding="utf-8" ?>
<svg baseProfile="full" height="256" version="1.1" width="256" xmlns="http://www.w3.org/2000/svg" xmlns:ev="http://www.w3.org/2001/xml-events" xmlns:xlink="http://www.w3.org/1999/xlink"><defs /><path d="M1933 1475Q1907 1475 1884.5 1485.0Q1862 1495 1845.0 1512.0Q1828 1529 1818.0 1551.5Q1808 1574 1808 1600Q1808 1626 1818.0 1648.5Q1828 1671 1845.0 1688.0Q1862 1705 1884.5 1715.0Q1907 1725 1933 1725Q1959 1725 1981.5 1715.0Q2004 1705 2021.0 1688.0Q2038 1671 2048.0 1648.5Q2058 1626 2058 1600Q2058 1574 2048.0 1551.5Q2038 1529 2021.0 1512.0Q2004 1495 1981.5 1485.0Q1959 1475 1933 1475Z" style="fill:#fcd53f;stroke:none" transform="scale(1,-1) translate(0,-256)" /></svg>