<?xml version="1.0" encoding="utf-8" ?>
<svg baseProfile="full" height="256" version="1.1" width="256" xmlns="http://www.w3.org/2000/svg" xmlns:ev="http://www.w3.org/2001/xml-events" xmlns:xlink="http://www.w3.org/1999/xlink"><defs /><path d="M958 245 934 259Q889 285 868.0 330.5Q847 376 856 426Q861 453 874.5 477.0Q888 501 908 518Q937 543 972.5 552.5Q1008 562 1043 555L1005 577Q950 608 924.0 664.5Q898 721 909 782Q915 816 931.5 844.5Q948 873 973 895Q1014 930 1065.0 940.0Q1116 950 1166 933Q1124 966 1104.0 1016.0Q1084 1066 1094 1120Q1100 1152 1116.0 1181.0Q1132 1210 1157 1231Q1204 1272 1265.0 1278.0Q1326 1284 1380 1254L1405 1239Q1363 1268 1342.5 1316.0Q1322 1364 1332 1415Q1343 1475 1389 1515Q1431 1551 1485.5 1556.5Q1540 1562 1589 1535L1706 1468Q1678 1487 1664.0 1517.5Q1650 1548 1657 1582Q1663 1621 1693 1646Q1720 1669 1755.5 1672.5Q1791 1676 1822 1659L2047 1533Q2078 1516 2093.0 1483.5Q2108 1451 2102 1416Q2094 1378 2065 1352Q2038 1329 2002.5 1325.5Q1967 1322 1936 1339L1904 1358L2058 1270Q2106 1242 2129.5 1192.0Q2153 1142 2143 1087Q2134 1028 2087 987Q2046 952 1994.5 945.5Q1943 939 1895 962L1932 941Q1959 926 1979.5 904.0Q2000 882 2012.5 855.0Q2025 828 2029.0 798.0Q2033 768 2027 738Q2015 671 1964 627Q1923 592 1870.5 582.5Q1818 573 1769 592Q1807 558 1824.0 509.5Q1841 461 1832 409Q1825 376 1809.0 347.0Q1793 318 1767 296Q1743 275 1715.0 263.0Q1687 251 1657.5 248.0Q1628 245 1598.0 251.5Q1568 258 1541 273L1502 296Q1526 269 1536.5 233.5Q1547 198 1540 160Q1535 134 1521.5 110.0Q1508 86 1488 68Q1469 51 1446.0 41.5Q1423 32 1399.0 30.0Q1375 28 1351.0 33.0Q1327 38 1305 51L1276 67L1227 -34L903 160Z" style="fill:#f9c23c;stroke:none" transform="scale(1,-1) translate(0,-256)" /></svg>