<?xml version="1.0" encoding="utf-8" ?>
<svg baseProfile="full" height="256" version="1.1" width="256" xmlns="http://www.w3.org/2000/svg" xmlns:ev="http://www.w3.org/2001/xml-events" xmlns:xlink="http://www.w3.org/1999/xlink"><defs /><path d="M2412 1366Q2412 1325 2405.5 1293.5Q2399 1262 2387.0 1234.5Q2375 1207 2357.5 1179.5Q2340 1152 2319 1120Q2292 1079 2258.5 1044.5Q2225 1010 2195.5 973.5Q2166 937 2145.5 896.0Q2125 855 2125 801Q2125 783 2127.5 754.0Q2130 725 2134.5 690.5Q2139 656 2145.5 619.5Q2152 583 2159.0 549.5Q2166 516 2174.0 489.0Q2182 462 2190 447L2395 56Q2404 38 2408.0 11.0Q2412 -16 2412 -36Q2412 -88 2392.5 -133.5Q2373 -179 2339.0 -213.0Q2305 -247 2260.0 -266.5Q2215 -286 2163 -286Q2154 -286 2145.5 -286.0Q2137 -286 2129 -284L1622 -215Q1605 -213 1585.5 -214.0Q1566 -215 1549 -215Q1508 -215 1471.0 -200.5Q1434 -186 1405.5 -160.5Q1377 -135 1358.0 -100.0Q1339 -65 1335 -24Q1318 -12 1302 -12Q1285 -12 1276.5 -27.5Q1268 -43 1265 -57Q1249 -62 1232.5 -65.5Q1216 -69 1199 -69Q1148 -69 1107.0 -51.5Q1066 -34 1030.0 -7.5Q994 19 960.5 50.0Q927 81 891 109Q875 88 853.5 69.0Q832 50 806.5 35.0Q781 20 754.0 11.5Q727 3 700 3Q657 3 614.5 23.5Q572 44 537.0 76.5Q502 109 478.0 150.0Q454 191 448 232Q444 258 445.0 287.5Q446 317 446 343Q443 470 443 598Q443 613 443.0 651.5Q443 690 443.5 739.5Q444 789 446.5 844.0Q449 899 454.0 947.5Q459 996 467.0 1031.5Q475 1067 487 1078Q528 1113 573.5 1131.5Q619 1150 673 1150Q692 1150 710.0 1147.5Q728 1145 747 1145Q799 1145 838.0 1172.5Q877 1200 906 1242Q955 1313 1018.5 1353.0Q1082 1393 1171 1393Q1196 1393 1220.5 1389.0Q1245 1385 1268 1377V1378Q1283 1372 1298.0 1367.0Q1313 1362 1330 1362Q1365 1362 1393.0 1383.5Q1421 1405 1444 1429V1428Q1486 1470 1536.5 1489.5Q1587 1509 1647 1509Q1651 1496 1660.0 1486.0Q1669 1476 1683 1476Q1694 1476 1702.5 1482.5Q1711 1489 1718 1497Q1738 1548 1772.0 1590.0Q1806 1632 1850.0 1662.0Q1894 1692 1945.5 1708.5Q1997 1725 2053 1725Q2127 1725 2192.5 1696.5Q2258 1668 2306.5 1619.5Q2355 1571 2383.5 1505.5Q2412 1440 2412 1366Z" style="fill:#ffc83d;stroke:none" transform="scale(1,-1) translate(0,-256)" /></svg>