<?xml version="1.0" encoding="utf-8" ?>
<svg baseProfile="full" height="256" version="1.1" width="256" xmlns="http://www.w3.org/2000/svg" xmlns:ev="http://www.w3.org/2001/xml-events" xmlns:xlink="http://www.w3.org/1999/xlink"><defs /><path d="M1622 1366Q1622 1440 1646 1509Q1684 1507 1718 1497Q1693 1435 1693 1366Q1693 1292 1721.5 1226.5Q1750 1161 1799.0 1112.0Q1848 1063 1913.5 1034.5Q1979 1006 2053 1006Q2134 1006 2206.5 1040.5Q2279 1075 2330 1137Q2265 1037 2231.0 934.5Q2197 832 2197 712Q2197 643 2209.5 577.0Q2222 511 2245 447Q2283 343 2324.5 241.0Q2366 139 2402 34Q2384 69 2360.0 101.5Q2336 134 2306.0 159.0Q2276 184 2240.0 199.0Q2204 214 2162 214H1575Q1525 214 1481.5 195.0Q1438 176 1405.5 144.0Q1373 112 1354.0 68.0Q1335 24 1334 -25Q1317 -35 1300.0 -43.5Q1283 -52 1264 -57Q1263 -49 1262.5 -42.5Q1262 -36 1262 -28Q1262 37 1287.5 96.5Q1313 156 1361 201V997Q1361 1014 1373.0 1026.0Q1385 1038 1402 1038Q1419 1038 1431.0 1026.0Q1443 1014 1443 997V256Q1474 271 1507.5 278.0Q1541 285 1575 285H1909V959Q1844 982 1791.5 1023.0Q1739 1064 1701.0 1117.5Q1663 1171 1642.5 1234.5Q1622 1298 1622 1366ZM864 883Q864 900 876.0 911.5Q888 923 905 923Q922 923 934.0 911.5Q946 900 946 883V235Q946 178 966.0 126.0Q986 74 1022.0 33.0Q1058 -8 1106.5 -35.0Q1155 -62 1212 -69Q1191 -72 1171 -72Q1108 -72 1052.0 -48.0Q996 -24 954.0 18.0Q912 60 888.0 116.0Q864 172 864 235ZM482 273Q482 222 499.5 176.5Q517 131 548.0 95.0Q579 59 621.5 34.5Q664 10 714 3Q693 0 673 0Q616 0 566.5 21.5Q517 43 480.0 80.0Q443 117 421.5 166.5Q400 216 400 273V877Q400 933 421.0 983.5Q442 1034 482 1073Z" style="fill:#d67d00;stroke:none" transform="scale(1,-1) translate(0,-256)" /></svg>