<?xml version="1.0" encoding="utf-8" ?>
<svg baseProfile="full" height="256" version="1.1" width="256" xmlns="http://www.w3.org/2000/svg" xmlns:ev="http://www.w3.org/2001/xml-events" xmlns:xlink="http://www.w3.org/1999/xlink"><defs /><path d="M1897 813Q1872 813 1855.0 830.0Q1838 847 1838 872Q1838 897 1855 914L1951 1011Q1968 1028 1993 1028Q2019 1028 2036.0 1011.0Q2053 994 2053 969Q2053 944 2036 927L1939 830Q1922 813 1897 813ZM2125 568H1988Q1963 568 1945.5 585.5Q1928 603 1928 628Q1928 653 1945.5 670.0Q1963 687 1988 687H2125Q2150 687 2167.0 670.0Q2184 653 2184 628Q2184 603 2167.0 585.5Q2150 568 2125 568ZM1837 382Q1837 407 1854.5 424.0Q1872 441 1896 441Q1922 441 1939 424L2035 328Q2052 311 2052 286Q2052 261 2035.0 244.0Q2018 227 1993 227Q1968 227 1951 244L1854 340Q1837 357 1837 382Z" style="fill:#a56953;stroke:none" transform="scale(1,-1) translate(0,-256)" /></svg>