<?xml version="1.0" encoding="utf-8" ?>
<svg baseProfile="full" height="256" version="1.1" width="256" xmlns="http://www.w3.org/2000/svg" xmlns:ev="http://www.w3.org/2001/xml-events" xmlns:xlink="http://www.w3.org/1999/xlink"><defs /><path d="M1118 863Q1118 892 1139.5 913.5Q1161 935 1190 935Q1219 935 1240.5 913.5Q1262 892 1262 863V719Q1262 689 1241.0 668.0Q1220 647 1190 647Q1161 647 1139.5 668.5Q1118 690 1118 719ZM472 683Q472 698 482.5 708.5Q493 719 508 719Q523 719 533.0 708.5Q543 698 543 683V467Q543 452 533.0 441.5Q523 431 508 431Q493 431 482.5 441.5Q472 452 472 467Z" style="fill:#1c1c1c;stroke:none" transform="scale(1,-1) translate(0,-256)" /></svg>