<?xml version="1.0" encoding="utf-8" ?>
<svg baseProfile="full" height="256" version="1.1" width="256" xmlns="http://www.w3.org/2000/svg" xmlns:ev="http://www.w3.org/2001/xml-events" xmlns:xlink="http://www.w3.org/1999/xlink"><defs /><path d="M2412 1162V-182Q2412 -210 2393.0 -230.0Q2374 -250 2345 -250Q2330 -250 2317 -244L1755 12Q1690 41 1619.0 56.5Q1548 72 1476 72H1090Q1029 72 971.0 87.0Q913 102 861.5 129.5Q810 157 765.5 197.0Q721 237 687 288Q677 288 657.0 287.5Q637 287 612.0 286.5Q587 286 560.0 286.0Q533 286 509.5 286.5Q486 287 468.0 288.0Q450 289 443 292L444 858Q456 863 467 863Q536 863 601.0 879.5Q666 896 724.5 927.5Q783 959 832.5 1004.0Q882 1049 920 1106L1002 1229Q1046 1295 1103.5 1347.0Q1161 1399 1228.0 1435.5Q1295 1472 1369.5 1491.0Q1444 1510 1524 1510Q1537 1510 1545.0 1515.0Q1553 1520 1561 1529Q1575 1546 1587.0 1562.0Q1599 1578 1614 1594Q1677 1657 1758.5 1691.0Q1840 1725 1929 1725H2035Q2058 1725 2078.5 1716.0Q2099 1707 2114.0 1692.0Q2129 1677 2138.0 1656.5Q2147 1636 2147 1613Q2147 1592 2134.5 1557.5Q2122 1523 2107.5 1487.0Q2093 1451 2080.5 1421.0Q2068 1391 2068 1379Q2068 1364 2082 1358L2356 1245Q2381 1234 2396.5 1211.5Q2412 1189 2412 1162Z" style="fill:#6d4534;stroke:none" transform="scale(1,-1) translate(0,-256)" /></svg>