<?xml version="1.0" encoding="utf-8" ?>
<svg baseProfile="full" height="256" version="1.1" width="256" xmlns="http://www.w3.org/2000/svg" xmlns:ev="http://www.w3.org/2001/xml-events" xmlns:xlink="http://www.w3.org/1999/xlink"><defs /><path d="M932 288Q914 288 900.0 297.5Q886 307 878 324Q856 373 846.0 430.0Q836 487 836 540Q836 554 836.0 572.5Q836 591 840.0 607.5Q844 624 854.5 635.0Q865 646 885 646Q911 646 926 620Q950 575 973.0 541.0Q996 507 1022.0 478.5Q1048 450 1080.0 424.5Q1112 399 1154 371Q1164 364 1170.0 354.5Q1176 345 1176 333Q1176 314 1163.0 301.0Q1150 288 1131 288Z" style="fill:#d3d3d3;stroke:none" transform="scale(1,-1) translate(0,-256)" /></svg>