<?xml version="1.0" encoding="utf-8" ?>
<svg baseProfile="full" height="256" version="1.1" width="256" xmlns="http://www.w3.org/2000/svg" xmlns:ev="http://www.w3.org/2001/xml-events" xmlns:xlink="http://www.w3.org/1999/xlink"><defs /><path d="M752 863Q784 863 807.5 839.5Q831 816 831 784V151Q831 118 808.0 95.0Q785 72 752 72H400V863ZM2060 72Q2027 72 2004.0 95.0Q1981 118 1981 151V784Q1981 816 2004.5 839.5Q2028 863 2060 863H2412V72ZM1054 863H1758Q1790 863 1813.5 839.5Q1837 816 1837 784V151Q1837 118 1814.0 95.0Q1791 72 1758 72H1054Q1021 72 998.0 95.0Q975 118 975 151V784Q975 816 998.5 839.5Q1022 863 1054 863Z" style="fill:#26c9fc;stroke:none" transform="scale(1,-1) translate(0,-256)" /></svg>