<?xml version="1.0" encoding="utf-8" ?>
<svg baseProfile="full" height="256" version="1.1" width="256" xmlns="http://www.w3.org/2000/svg" xmlns:ev="http://www.w3.org/2001/xml-events" xmlns:xlink="http://www.w3.org/1999/xlink"><defs /><path d="M2267 1006Q2297 1006 2323.5 994.5Q2350 983 2369.5 963.5Q2389 944 2400.5 918.0Q2412 892 2412 862L2197 467L2412 72V-71Q2412 -116 2395.0 -155.0Q2378 -194 2348.5 -223.5Q2319 -253 2280.0 -270.0Q2241 -287 2196 -287H616Q571 -287 532.0 -270.0Q493 -253 463.5 -223.5Q434 -194 417.0 -155.0Q400 -116 400 -71V72L579 467L400 862Q400 892 411.0 918.0Q422 944 441.5 963.5Q461 983 487.5 994.5Q514 1006 544 1006H2267Z" style="fill:#f8312f;stroke:none" transform="scale(1,-1) translate(0,-256)" /></svg>