<?xml version="1.0" encoding="utf-8" ?>
<svg baseProfile="full" height="256" version="1.1" width="256" xmlns="http://www.w3.org/2000/svg" xmlns:ev="http://www.w3.org/2001/xml-events" xmlns:xlink="http://www.w3.org/1999/xlink"><defs /><path d="M1263 1046Q1275 1046 1284.0 1038.5Q1293 1031 1297 1020L1388 730L1693 1035Q1703 1045 1718 1045Q1733 1045 1743.0 1034.5Q1753 1024 1753 1009Q1753 994 1743 984L1438 679L1729 589Q1740 585 1747.5 575.5Q1755 566 1755 555Q1755 540 1744.0 529.0Q1733 518 1719 518Q1714 518 1690.0 525.0Q1666 532 1631.5 542.5Q1597 553 1557.0 566.0Q1517 579 1481.0 590.5Q1445 602 1417.5 610.5Q1390 619 1381 622L1089 330L1294 266Q1305 262 1312.0 252.5Q1319 243 1319 231Q1319 216 1308.0 206.0Q1297 196 1282 196Q1278 196 1260.0 201.0Q1242 206 1216.5 213.5Q1191 221 1162.0 230.0Q1133 239 1106.5 247.5Q1080 256 1060.0 262.5Q1040 269 1032 272L872 112Q861 101 846 101Q832 101 821.0 112.0Q810 123 810 137Q810 152 821 163L981 323Q978 331 971.5 351.5Q965 372 956.5 398.0Q948 424 938.5 453.5Q929 483 921.5 508.0Q914 533 909.0 551.5Q904 570 904 575Q904 589 915.0 600.0Q926 611 941 611Q952 611 961.5 603.5Q971 596 975 585L1038 380L1330 672Q1327 682 1318.0 709.0Q1309 736 1298.0 772.0Q1287 808 1274.0 847.5Q1261 887 1251.0 921.5Q1241 956 1234.0 980.5Q1227 1005 1227 1010Q1227 1025 1237.5 1035.5Q1248 1046 1263 1046Z" style="fill:#c3ef3c;stroke:none" transform="scale(1,-1) translate(0,-256)" /></svg>