<?xml version="1.0" encoding="utf-8" ?>
<svg baseProfile="full" height="256" version="1.1" width="256" xmlns="http://www.w3.org/2000/svg" xmlns:ev="http://www.w3.org/2001/xml-events" xmlns:xlink="http://www.w3.org/1999/xlink"><defs /><path d="M2092 557Q2092 477 2061.5 406.5Q2031 336 1978.5 283.0Q1926 230 1855.5 199.5Q1785 169 1705 169Q1687 169 1669.0 171.0Q1651 173 1633 176Q1622 116 1593.0 66.0Q1564 16 1521.0 -21.0Q1478 -58 1424.0 -78.5Q1370 -99 1309 -99Q1276 -99 1243.5 -93.5Q1211 -88 1177 -88Q1012 -88 890 -205Q850 -243 802.0 -264.0Q754 -285 697 -285Q641 -285 591.5 -263.5Q542 -242 505.0 -205.0Q468 -168 446.5 -118.0Q425 -68 425 -12Q425 45 446.0 92.5Q467 140 505 181Q562 241 591.5 313.0Q621 385 621 468Q621 501 615.5 533.0Q610 565 610 598Q610 657 630.5 712.0Q651 767 688.0 810.5Q725 854 775.5 883.5Q826 913 885 922Q882 940 880.0 958.0Q878 976 878 994Q878 1075 908.5 1145.5Q939 1216 992.0 1269.0Q1045 1322 1116.0 1352.5Q1187 1383 1267 1383Q1342 1383 1411.5 1355.0Q1481 1327 1535 1276Q1556 1313 1586.5 1343.0Q1617 1373 1654.0 1393.5Q1691 1414 1732.5 1425.0Q1774 1436 1817 1436Q1885 1436 1945.0 1410.0Q2005 1384 2049.5 1339.5Q2094 1295 2119.5 1235.0Q2145 1175 2145 1107Q2145 1017 2103.0 944.5Q2061 872 1985 825Q2037 771 2064.5 701.5Q2092 632 2092 557Z" style="fill:#86d72f;stroke:none" transform="scale(1,-1) translate(0,-256)" /></svg>