<?xml version="1.0" encoding="utf-8" ?>
<svg baseProfile="full" height="256" version="1.1" width="256" xmlns="http://www.w3.org/2000/svg" xmlns:ev="http://www.w3.org/2001/xml-events" xmlns:xlink="http://www.w3.org/1999/xlink"><defs /><path d="M1127 1482Q1143 1536 1173.0 1580.5Q1203 1625 1244.5 1657.5Q1286 1690 1337.5 1707.5Q1389 1725 1446 1725Q1514 1725 1573.5 1699.0Q1633 1673 1677.5 1628.5Q1722 1584 1748.0 1524.0Q1774 1464 1774 1396Q1774 1331 1750.5 1274.5Q1727 1218 1684 1170Q1707 1156 1732.0 1136.0Q1757 1116 1780.5 1092.5Q1804 1069 1824.0 1044.0Q1844 1019 1858 996Q1906 1039 1962.5 1062.5Q2019 1086 2084 1086Q2152 1086 2212.0 1060.0Q2272 1034 2316.5 989.5Q2361 945 2387.0 885.0Q2413 825 2413 757Q2413 700 2395.5 649.0Q2378 598 2345.5 556.5Q2313 515 2268.0 484.5Q2223 454 2169 439Q2191 397 2202.0 351.5Q2213 306 2213 259Q2213 178 2182.5 107.5Q2152 37 2099.5 -16.0Q2047 -69 1976.5 -99.5Q1906 -130 1825 -130Q1733 -130 1651 -89Q1631 -132 1600.0 -166.5Q1569 -201 1530.5 -225.5Q1492 -250 1447.0 -263.5Q1402 -277 1355 -277Q1308 -277 1271.0 -265.5Q1234 -254 1197.5 -240.0Q1161 -226 1120.5 -214.5Q1080 -203 1028 -203Q975 -203 927.5 -215.5Q880 -228 833 -253Q801 -270 768.5 -279.0Q736 -288 700 -288Q635 -288 587.0 -263.5Q539 -239 494 -194Q449 -149 424.5 -100.5Q400 -52 400 13Q400 48 408.5 80.5Q417 113 434 145Q459 192 472.0 239.0Q485 286 485 340Q485 393 473.5 433.5Q462 474 447.5 510.5Q433 547 421.5 583.5Q410 620 410 667Q410 715 423.5 759.5Q437 804 461.5 842.5Q486 881 521.0 912.0Q556 943 599 963Q558 1045 558 1137Q558 1218 588.5 1288.5Q619 1359 672.0 1412.0Q725 1465 796.0 1495.5Q867 1526 948 1526Q995 1526 1040.0 1515.0Q1085 1504 1127 1482Z" style="fill:#008463;stroke:none" transform="scale(1,-1) translate(0,-256)" /></svg>