<?xml version="1.0" encoding="utf-8" ?>
<svg baseProfile="full" height="256" version="1.1" width="256" xmlns="http://www.w3.org/2000/svg" xmlns:ev="http://www.w3.org/2001/xml-events" xmlns:xlink="http://www.w3.org/1999/xlink"><defs /><path d="M1852 1366Q1863 1366 1871 1358L2115 1135Q2125 1127 2125 1114Q2125 1101 2115 1093L1871 869Q1864 862 1853 862Q1833 862 1828.0 877.0Q1823 892 1823 908Q1823 922 1824.0 935.5Q1825 949 1825 963Q1825 978 1820.5 993.0Q1816 1008 1797 1008L1088 1010Q1049 1010 1015.0 995.0Q981 980 955.5 954.0Q930 928 915.0 893.5Q900 859 900 821V742Q900 732 892 724L731 576Q722 569 713 569Q702 569 694.5 577.0Q687 585 687 596V822Q687 905 718.5 977.5Q750 1050 805.0 1104.0Q860 1158 932.5 1189.0Q1005 1220 1088 1220H1797Q1816 1220 1820.0 1234.5Q1824 1249 1824 1263Q1824 1277 1823.0 1291.0Q1822 1305 1822 1319Q1822 1336 1827.0 1351.0Q1832 1366 1852 1366ZM960 73Q949 73 941 81L697 304Q687 312 687 324Q687 335 697 345L941 569Q949 577 960 577Q980 577 984.5 561.5Q989 546 989 531Q989 517 988.0 503.5Q987 490 987 476Q987 461 991.0 446.0Q995 431 1014 431L1723 429Q1762 429 1796.5 443.5Q1831 458 1856.5 483.5Q1882 509 1897.0 543.5Q1912 578 1912 617V694Q1912 704 1920 712L2081 860Q2090 867 2099 867Q2110 867 2117.5 859.0Q2125 851 2125 840V616Q2125 533 2093.0 460.5Q2061 388 2006.5 334.0Q1952 280 1879.0 249.0Q1806 218 1724 218H1015Q996 218 992.0 203.5Q988 189 988 174Q988 160 989.0 147.0Q990 134 990 120Q990 103 985.0 88.0Q980 73 960 73Z" style="fill:#ffffff;stroke:none" transform="scale(1,-1) translate(0,-256)" /></svg>