<?xml version="1.0" encoding="utf-8" ?>
<svg baseProfile="full" height="256" version="1.1" width="256" xmlns="http://www.w3.org/2000/svg" xmlns:ev="http://www.w3.org/2001/xml-events" xmlns:xlink="http://www.w3.org/1999/xlink"><defs /><path d="M903 1150V1186Q903 1201 913.5 1211.5Q924 1222 939 1222Q954 1222 964.5 1211.5Q975 1201 975 1186V1150ZM459 863Q468 863 482.0 861.5Q496 860 509.5 861.5Q523 863 533.0 869.0Q543 875 543 889V582Q511 591 485.0 609.5Q459 628 440.0 653.0Q421 678 410.5 708.5Q400 739 400 772ZM830 432V171Q797 187 770.5 211.0Q744 235 725.5 265.0Q707 295 697.0 329.5Q687 364 687 401V575Q717 575 743.0 564.0Q769 553 788.5 533.5Q808 514 819.0 488.0Q830 462 830 432Z" style="fill:#ffdea7;stroke:none" transform="scale(1,-1) translate(0,-256)" /></svg>