<?xml version="1.0" encoding="utf-8" ?>
<svg baseProfile="full" height="256" version="1.1" width="256" xmlns="http://www.w3.org/2000/svg" xmlns:ev="http://www.w3.org/2001/xml-events" xmlns:xlink="http://www.w3.org/1999/xlink"><defs /><path d="M1226 250Q1228 242 1235.0 215.5Q1242 189 1252.5 152.0Q1263 115 1275.0 70.5Q1287 26 1299.0 -19.5Q1311 -65 1322.5 -108.5Q1334 -152 1343.0 -186.0Q1352 -220 1357.5 -241.5Q1363 -263 1363 -266Q1363 -275 1356.5 -281.0Q1350 -287 1341 -287H1080Q1072 -287 1065.5 -281.5Q1059 -276 1059 -268Q1059 -251 1064.0 -230.5Q1069 -210 1072 -193Q1075 -176 1087.0 -163.0Q1099 -150 1116 -146L1011 250ZM1476 -144 1581 250H1796L1659 -261Q1652 -287 1624 -287H1420Q1411 -287 1405.0 -280.5Q1399 -274 1399 -265Q1399 -248 1403.5 -229.0Q1408 -210 1411 -193Q1416 -167 1434.0 -155.5Q1452 -144 1476 -144Z" style="fill:#ff9f2e;stroke:none" transform="scale(1,-1) translate(0,-256)" /></svg>