<?xml version="1.0" encoding="utf-8" ?>
<svg baseProfile="full" height="256" version="1.1" width="256" xmlns="http://www.w3.org/2000/svg" xmlns:ev="http://www.w3.org/2001/xml-events" xmlns:xlink="http://www.w3.org/1999/xlink"><defs /><path d="M687 575Q652 575 615.0 573.5Q578 572 543 583L441 741L518 863Q529 863 536.0 870.5Q543 878 543 889Q543 943 563.5 990.5Q584 1038 620.0 1073.5Q656 1109 703.5 1129.5Q751 1150 805 1150H830V1186Q830 1208 838.5 1228.0Q847 1248 861.5 1262.5Q876 1277 895.5 1285.5Q915 1294 938 1294Q960 1294 980.0 1285.5Q1000 1277 1014.5 1262.5Q1029 1248 1037.5 1228.0Q1046 1208 1046 1186V1100Q1046 1041 1069 984V847Q1075 847 1095.0 845.0Q1115 843 1136.5 841.0Q1158 839 1176.0 837.5Q1194 836 1196 835Q1237 815 1273.0 803.0Q1309 791 1355 791H1454L1549 744L1638 791H2053Q2097 791 2136.0 774.0Q2175 757 2204.5 727.5Q2234 698 2251.0 658.5Q2268 619 2268 575V144Q2268 115 2289.5 93.5Q2311 72 2340 72Q2370 72 2391.0 51.0Q2412 30 2412 0Q2412 -29 2390.5 -50.5Q2369 -72 2340 -72Q2296 -72 2256.5 -55.0Q2217 -38 2188.0 -8.5Q2159 21 2142.0 60.5Q2125 100 2125 144V199Q2123 194 2123.5 187.0Q2124 180 2123 175Q2115 116 2097 61L1990 -263Q1986 -274 1976.5 -280.5Q1967 -287 1956 -287H1724Q1714 -287 1707.0 -280.5Q1700 -274 1700 -264Q1700 -250 1705.5 -232.0Q1711 -214 1715 -200Q1723 -166 1747.5 -155.0Q1772 -144 1803 -144L1834 -29L1662 144H1045V-265Q1045 -274 1038.5 -280.5Q1032 -287 1023 -287H789Q777 -287 768.0 -278.0Q759 -269 759 -257Q759 -238 760.0 -218.0Q761 -198 768.0 -181.5Q775 -165 789.0 -154.5Q803 -144 830 -144V171Q830 194 824.5 210.0Q819 226 814 249L782 406Q780 411 766.5 435.0Q753 459 737.0 487.5Q721 516 706.0 541.5Q691 567 687 575Z" style="fill:#ffb02e;stroke:none" transform="scale(1,-1) translate(0,-256)" /></svg>