<?xml version="1.0" encoding="utf-8" ?>
<svg baseProfile="full" height="256" version="1.1" width="256" xmlns="http://www.w3.org/2000/svg" xmlns:ev="http://www.w3.org/2001/xml-events" xmlns:xlink="http://www.w3.org/1999/xlink"><defs /><path d="M615 827Q615 937 642.5 1041.0Q670 1145 720.0 1237.0Q770 1329 841.5 1405.5Q913 1482 1000.5 1537.0Q1088 1592 1190.5 1622.5Q1293 1653 1406 1653Q1519 1653 1621.5 1622.5Q1724 1592 1811.5 1537.0Q1899 1482 1970.5 1405.5Q2042 1329 2092.0 1237.0Q2142 1145 2169.5 1041.0Q2197 937 2197 827Q2197 812 2196.5 797.5Q2196 783 2195 768Q2187 869 2149.5 947.5Q2112 1026 2053.0 1084.5Q1994 1143 1918.0 1183.0Q1842 1223 1757.0 1247.5Q1672 1272 1582.0 1283.0Q1492 1294 1406 1294Q1320 1294 1230.0 1283.0Q1140 1272 1055.0 1247.5Q970 1223 894.0 1183.0Q818 1143 759.0 1084.5Q700 1026 662.5 948.0Q625 870 617 768Q616 783 615.5 797.5Q615 812 615 827ZM1406 -72Q1525 -72 1634.5 -40.5Q1744 -9 1838.5 48.0Q1933 105 2010.0 185.0Q2087 265 2143.0 361.0Q2199 457 2231.5 566.5Q2264 676 2268 793V575Q2268 478 2248.0 383.0Q2228 288 2188 200Q2134 80 2054.0 -11.0Q1974 -102 1873.0 -163.5Q1772 -225 1654.0 -256.0Q1536 -287 1406 -287Q1276 -287 1158.0 -256.0Q1040 -225 939.0 -163.5Q838 -102 757.5 -11.0Q677 80 623 200Q583 288 563.0 383.0Q543 478 543 575Q543 629 544.0 683.0Q545 737 543 791L544 793Q548 676 580.5 566.5Q613 457 669.0 361.0Q725 265 802.0 185.0Q879 105 973.5 48.0Q1068 -9 1177.5 -40.5Q1287 -72 1406 -72Z" style="fill:#83cbff;stroke:none" transform="scale(1,-1) translate(0,-256)" /></svg>