<?xml version="1.0" encoding="utf-8" ?>
<svg baseProfile="full" height="256" version="1.1" width="256" xmlns="http://www.w3.org/2000/svg" xmlns:ev="http://www.w3.org/2001/xml-events" xmlns:xlink="http://www.w3.org/1999/xlink"><defs /><path d="M1406 -144Q1172 -144 1008.0 -73.0Q844 -2 740.5 126.0Q637 254 590.0 432.5Q543 611 543 827Q543 947 573.0 1060.0Q603 1173 658.0 1273.0Q713 1373 790.5 1456.0Q868 1539 964.0 1599.0Q1060 1659 1171.5 1692.0Q1283 1725 1406 1725Q1529 1725 1640.5 1692.0Q1752 1659 1847.5 1599.0Q1943 1539 2021.0 1456.0Q2099 1373 2153.5 1273.0Q2208 1173 2238.0 1060.0Q2268 947 2268 827Q2268 608 2222.5 429.0Q2177 250 2075.0 122.5Q1973 -5 1808.5 -74.5Q1644 -144 1406 -144Z" style="fill:#aeddff;stroke:none" transform="scale(1,-1) translate(0,-256)" /></svg>