<?xml version="1.0" encoding="utf-8" ?>
<svg baseProfile="full" height="256" version="1.1" width="256" xmlns="http://www.w3.org/2000/svg" xmlns:ev="http://www.w3.org/2001/xml-events" xmlns:xlink="http://www.w3.org/1999/xlink"><defs /><path d="M1154 1510Q1168 1510 1179.0 1499.0Q1190 1488 1190 1474Q1190 1419 1171.5 1373.0Q1153 1327 1119.5 1293.5Q1086 1260 1040.0 1241.0Q994 1222 939 1222Q924 1222 913.5 1232.5Q903 1243 903 1258Q903 1273 913.5 1283.5Q924 1294 939 1294Q973 1294 1005.0 1305.0Q1037 1316 1063 1339Q1092 1365 1105.0 1400.0Q1118 1435 1118 1474Q1118 1488 1129.0 1499.0Q1140 1510 1154 1510ZM1262 1078Q1262 1107 1241.5 1128.5Q1221 1150 1191 1150Q1169 1150 1152.5 1139.5Q1136 1129 1126 1110Q1098 1059 1046.5 1035.5Q995 1012 939 1012Q897 1012 871.0 1022.5Q845 1033 826.5 1045.0Q808 1057 793.0 1067.5Q778 1078 759 1078Q730 1078 708.5 1057.0Q687 1036 687 1006Q687 979 708 956Q753 910 815.0 889.5Q877 869 940 869Q986 869 1033.5 880.5Q1081 892 1123.0 914.0Q1165 936 1199.5 969.0Q1234 1002 1255 1046Q1262 1060 1262 1078ZM1550 1078Q1550 1108 1570.5 1129.0Q1591 1150 1621 1150Q1664 1150 1686 1110Q1714 1059 1765.5 1035.5Q1817 1012 1873 1012Q1915 1012 1941.0 1022.5Q1967 1033 1985.5 1045.0Q2004 1057 2019.0 1067.5Q2034 1078 2053 1078Q2082 1078 2103.5 1057.0Q2125 1036 2125 1006Q2125 979 2104 956Q2059 910 1997.0 889.5Q1935 869 1872 869Q1825 869 1778.0 880.5Q1731 892 1689.0 914.0Q1647 936 1612.5 969.0Q1578 1002 1557 1046Q1550 1060 1550 1078ZM1622 1474Q1622 1488 1633.0 1499.0Q1644 1510 1658 1510Q1672 1510 1682.5 1499.0Q1693 1488 1693 1474Q1693 1435 1706.5 1400.0Q1720 1365 1749 1339Q1775 1316 1807.0 1305.0Q1839 1294 1873 1294Q1888 1294 1898.5 1283.5Q1909 1273 1909 1258Q1909 1243 1898.5 1232.5Q1888 1222 1873 1222Q1818 1222 1772.0 1241.0Q1726 1260 1692.5 1293.5Q1659 1327 1640.5 1373.0Q1622 1419 1622 1474Z" style="fill:#402a32;stroke:none" transform="scale(1,-1) translate(0,-256)" /></svg>