<?xml version="1.0" encoding="utf-8" ?>
<svg baseProfile="full" height="256" version="1.1" width="256" xmlns="http://www.w3.org/2000/svg" xmlns:ev="http://www.w3.org/2001/xml-events" xmlns:xlink="http://www.w3.org/1999/xlink"><defs /><path d="M1274 1142Q1290 1142 1301.0 1131.0Q1312 1120 1312 1104Q1312 1095 1307 1087H1240Q1236 1094 1236 1104Q1236 1120 1247.0 1131.0Q1258 1142 1274 1142ZM1599 1142Q1583 1142 1571.5 1131.0Q1560 1120 1560 1104Q1560 1094 1566 1087H1632Q1637 1095 1637 1104Q1637 1119 1625.5 1130.5Q1614 1142 1599 1142Z" style="fill:#000000;stroke:none" transform="scale(1,-1) translate(0,-256)" /></svg>