<?xml version="1.0" encoding="utf-8" ?>
<svg baseProfile="full" height="256" version="1.1" width="256" xmlns="http://www.w3.org/2000/svg" xmlns:ev="http://www.w3.org/2001/xml-events" xmlns:xlink="http://www.w3.org/1999/xlink"><defs /><path d="M1182 1239Q1174 1239 1167.5 1245.5Q1161 1252 1161 1260Q1161 1272 1176.5 1281.5Q1192 1291 1213.0 1297.5Q1234 1304 1254.0 1307.5Q1274 1311 1283 1311Q1291 1311 1299.5 1310.0Q1308 1309 1316 1307Q1320 1303 1323.0 1300.0Q1326 1297 1326 1290Q1326 1282 1321.0 1275.5Q1316 1269 1307 1269Q1276 1269 1248.5 1265.5Q1221 1262 1194 1243Q1189 1239 1182 1239ZM1691 1239Q1686 1239 1676.5 1244.0Q1667 1249 1653.5 1254.5Q1640 1260 1623.5 1265.0Q1607 1270 1588 1270Q1582 1270 1574.5 1269.5Q1567 1269 1561.0 1270.0Q1555 1271 1551.0 1275.5Q1547 1280 1547 1290Q1547 1298 1551.5 1302.0Q1556 1306 1562.5 1308.0Q1569 1310 1576.5 1310.5Q1584 1311 1589 1311Q1599 1311 1619.0 1307.5Q1639 1304 1659.5 1297.5Q1680 1291 1695.5 1281.5Q1711 1272 1711 1259Q1711 1251 1705.0 1245.0Q1699 1239 1691 1239Z" style="fill:#d37034;stroke:none" transform="scale(1,-1) translate(0,-256)" /></svg>