<?xml version="1.0" encoding="utf-8" ?>
<svg baseProfile="full" height="256" version="1.1" width="256" xmlns="http://www.w3.org/2000/svg" xmlns:ev="http://www.w3.org/2001/xml-events" xmlns:xlink="http://www.w3.org/1999/xlink"><defs /><path d="M1914 1391Q1914 1361 1907.0 1341.5Q1900 1322 1891.0 1306.0Q1882 1290 1873.5 1275.0Q1865 1260 1863 1239Q1839 1225 1813 1207Q1814 1224 1815.5 1241.5Q1817 1259 1817 1276Q1817 1297 1808.5 1316.5Q1800 1336 1785.5 1351.0Q1771 1366 1752.0 1375.0Q1733 1384 1712 1384Q1670 1384 1629.5 1384.0Q1589 1384 1553.5 1393.0Q1518 1402 1488.5 1424.5Q1459 1447 1438 1492Q1417 1447 1387.0 1424.5Q1357 1402 1321.5 1393.0Q1286 1384 1246.0 1384.0Q1206 1384 1163 1384Q1142 1384 1123.0 1375.0Q1104 1366 1089.5 1351.0Q1075 1336 1066.5 1316.5Q1058 1297 1058 1276Q1058 1259 1059.5 1241.5Q1061 1224 1062 1207H1061Q1035 1225 1011 1239Q1009 1260 1001.0 1275.5Q993 1291 984.0 1307.0Q975 1323 968.0 1343.0Q961 1363 961 1392Q961 1450 993.5 1494.5Q1026 1539 1080 1559Q1113 1571 1139.0 1591.0Q1165 1611 1184 1640Q1210 1680 1249.0 1702.5Q1288 1725 1336 1725Q1365 1725 1388.0 1716.0Q1411 1707 1438 1702Q1465 1707 1488.0 1716.0Q1511 1725 1540 1725Q1588 1725 1626.5 1702.5Q1665 1680 1691 1640Q1713 1605 1739.0 1589.0Q1765 1573 1792.0 1560.0Q1819 1547 1844.5 1530.5Q1870 1514 1890 1480Q1914 1439 1914 1391Z" style="fill:#f1a11e;stroke:none" transform="scale(1,-1) translate(0,-256)" /></svg>