<?xml version="1.0" encoding="utf-8" ?>
<svg baseProfile="full" height="256" version="1.1" width="256" xmlns="http://www.w3.org/2000/svg" xmlns:ev="http://www.w3.org/2001/xml-events" xmlns:xlink="http://www.w3.org/1999/xlink"><defs /><path d="M1519 1625Q1582 1625 1637.0 1601.0Q1692 1577 1733.0 1536.0Q1774 1495 1798.0 1440.0Q1822 1385 1822 1322Q1822 1312 1821.0 1302.5Q1820 1293 1819 1282Q1812 1176 1806.0 1072.0Q1800 968 1793 862Q1790 809 1764.0 763.5Q1738 718 1698.0 684.0Q1658 650 1608.5 631.0Q1559 612 1508 612H1369Q1326 612 1286.0 624.5Q1246 637 1211.5 659.5Q1177 682 1149.5 714.0Q1122 746 1105 785Q1097 802 1091.0 822.5Q1085 843 1083 862Q1075 968 1069.0 1072.0Q1063 1176 1056 1282Q1055 1292 1054.5 1301.5Q1054 1311 1054 1322Q1054 1386 1077.0 1441.0Q1100 1496 1140.5 1537.0Q1181 1578 1236.5 1601.5Q1292 1625 1356 1625H1519Z" style="fill:#ffc83d;stroke:none" transform="scale(1,-1) translate(0,-256)" /></svg>