<?xml version="1.0" encoding="utf-8" ?>
<svg baseProfile="full" height="256" version="1.1" width="256" xmlns="http://www.w3.org/2000/svg" xmlns:ev="http://www.w3.org/2001/xml-events" xmlns:xlink="http://www.w3.org/1999/xlink"><defs /><path d="M985 1087H1175L1126 756V757Q1123 723 1108.0 693.5Q1093 664 1069.0 642.5Q1045 621 1014.5 608.5Q984 596 950 596Q913 596 880.5 610.0Q848 624 823.5 648.0Q799 672 785.0 704.0Q771 736 771 773Q771 815 787.5 849.0Q804 883 835 910Q836 910 836.0 910.5Q836 911 837 911Q862 931 882.5 950.0Q903 969 921.0 990.0Q939 1011 955.0 1034.5Q971 1058 985 1087ZM1889 1087H1701L1748 756L1749 757Q1752 722 1767.0 693.0Q1782 664 1805.5 642.0Q1829 620 1859.5 608.0Q1890 596 1925 596Q1962 596 1994.5 610.0Q2027 624 2051.0 648.5Q2075 673 2089.0 706.0Q2103 739 2103 776Q2103 815 2086.5 850.5Q2070 886 2040 910Q2039 910 2039.0 910.5Q2039 911 2038 911L2010 933Q1970 965 1941.5 1003.5Q1913 1042 1889 1087Z" style="fill:#f1a11e;stroke:none" transform="scale(1,-1) translate(0,-256)" /></svg>