<?xml version="1.0" encoding="utf-8" ?>
<svg baseProfile="full" height="256" version="1.1" width="256" xmlns="http://www.w3.org/2000/svg" xmlns:ev="http://www.w3.org/2001/xml-events" xmlns:xlink="http://www.w3.org/1999/xlink"><defs /><path d="M1263 1130Q1263 1125 1259.5 1122.0Q1256 1119 1251 1119Q1240 1119 1240 1130Q1240 1135 1243.0 1138.5Q1246 1142 1251 1142Q1256 1142 1259.5 1138.5Q1263 1135 1263 1130ZM1589 1130Q1589 1119 1578 1119Q1573 1119 1569.5 1122.0Q1566 1125 1566 1130Q1566 1135 1569.5 1138.5Q1573 1142 1578 1142Q1583 1142 1586.0 1138.5Q1589 1135 1589 1130Z" style="fill:#ffffff;stroke:none" transform="scale(1,-1) translate(0,-256)" /></svg>