<?xml version="1.0" encoding="utf-8" ?>
<svg baseProfile="full" height="256" version="1.1" width="256" xmlns="http://www.w3.org/2000/svg" xmlns:ev="http://www.w3.org/2001/xml-events" xmlns:xlink="http://www.w3.org/1999/xlink"><defs /><path d="M1693 1065Q1693 1109 1724 1140Q1740 1157 1776.0 1182.5Q1812 1208 1852.5 1232.0Q1893 1256 1932.0 1273.0Q1971 1290 1994 1290Q2023 1290 2023 1261Q2023 1238 2006.0 1199.0Q1989 1160 1965.0 1119.5Q1941 1079 1915.5 1043.0Q1890 1007 1873 991Q1842 960 1798 960Q1776 960 1757.0 968.0Q1738 976 1723.5 990.5Q1709 1005 1701.0 1024.0Q1693 1043 1693 1065ZM1182 1065Q1182 1044 1173.5 1024.5Q1165 1005 1151.0 991.0Q1137 977 1118.0 968.5Q1099 960 1077 960Q1055 960 1036.5 968.5Q1018 977 1002 992Q985 1008 959.5 1044.0Q934 1080 910.0 1120.5Q886 1161 869.0 1200.0Q852 1239 852 1262Q852 1291 881 1291Q896 1291 919.0 1283.0Q942 1275 968.5 1262.0Q995 1249 1022.5 1232.5Q1050 1216 1075.0 1199.0Q1100 1182 1120.0 1166.5Q1140 1151 1151 1140Q1182 1109 1182 1065Z" style="fill:#fdbb11;stroke:none" transform="scale(1,-1) translate(0,-256)" /></svg>