<?xml version="1.0" encoding="utf-8" ?>
<svg baseProfile="full" height="256" version="1.1" width="256" xmlns="http://www.w3.org/2000/svg" xmlns:ev="http://www.w3.org/2001/xml-events" xmlns:xlink="http://www.w3.org/1999/xlink"><defs /><path d="M1436 864Q1468 864 1491.5 871.5Q1515 879 1544 890Q1545 890 1547.0 891.0Q1549 892 1550 892Q1555 892 1558.0 888.5Q1561 885 1561 880Q1561 877 1559 873Q1539 841 1505.5 824.0Q1472 807 1436 807Q1419 807 1401.0 811.5Q1383 816 1366.5 824.5Q1350 833 1336.0 845.5Q1322 858 1313 873Q1311 877 1311 879Q1311 892 1322 892Q1324 892 1328 890Q1380 864 1436 864Z" style="fill:#990839;stroke:none" transform="scale(1,-1) translate(0,-256)" /></svg>