<?xml version="1.0" encoding="utf-8" ?>
<svg baseProfile="full" height="256" version="1.1" width="256" xmlns="http://www.w3.org/2000/svg" xmlns:ev="http://www.w3.org/2001/xml-events" xmlns:xlink="http://www.w3.org/1999/xlink"><defs /><path d="M1208 1104Q1208 1132 1227.0 1151.0Q1246 1170 1274 1170Q1302 1170 1321.0 1151.0Q1340 1132 1340 1104Q1340 1099 1339.5 1095.5Q1339 1092 1338 1087H1210Q1208 1091 1208.0 1095.0Q1208 1099 1208 1104ZM1665 1104Q1665 1131 1645.5 1150.5Q1626 1170 1599 1170Q1571 1170 1551.5 1151.0Q1532 1132 1532 1104Q1532 1094 1535 1087H1663Q1664 1092 1664.5 1095.5Q1665 1099 1665 1104Z" style="fill:#7d4533;stroke:none" transform="scale(1,-1) translate(0,-256)" /></svg>