<?xml version="1.0" encoding="utf-8" ?>
<svg baseProfile="full" height="256" version="1.1" width="256" xmlns="http://www.w3.org/2000/svg" xmlns:ev="http://www.w3.org/2001/xml-events" xmlns:xlink="http://www.w3.org/1999/xlink"><defs /><path d="M2186 -286 1561 96 1261 699Q1305 710 1349.0 715.5Q1393 721 1438 721Q1577 721 1704.5 671.0Q1832 621 1934 526V527Q2003 462 2051.0 385.0Q2099 308 2129.5 222.5Q2160 137 2173.5 46.0Q2187 -45 2187 -137Q2187 -175 2186.5 -211.5Q2186 -248 2186 -286ZM1445 -287H687V-145Q687 -81 695.0 -12.0Q703 57 719.0 125.5Q735 194 760.0 258.5Q785 323 820 378L1248 124Z" style="fill:#44911b;stroke:none" transform="scale(1,-1) translate(0,-256)" /></svg>