<?xml version="1.0" encoding="utf-8" ?>
<svg baseProfile="full" height="256" version="1.1" width="256" xmlns="http://www.w3.org/2000/svg" xmlns:ev="http://www.w3.org/2001/xml-events" xmlns:xlink="http://www.w3.org/1999/xlink"><defs /><path d="M1622 1511Q1651 1511 1672.0 1489.5Q1693 1468 1693 1439V1266Q1746 1291 1801 1291Q1853 1291 1899.0 1271.0Q1945 1251 1979.0 1217.0Q2013 1183 2033.0 1137.0Q2053 1091 2053 1039Q2053 987 2033.0 941.0Q2013 895 1979.0 861.0Q1945 827 1899.0 807.0Q1853 787 1801 787Q1770 787 1740.0 795.0Q1710 803 1682 817Q1672 802 1656.0 793.0Q1640 784 1622 784Q1592 784 1571.0 805.0Q1550 826 1550 856V1439Q1550 1469 1571.0 1490.0Q1592 1511 1622 1511ZM1801 931Q1823 931 1843.0 939.5Q1863 948 1877.5 962.5Q1892 977 1900.5 996.5Q1909 1016 1909 1039Q1909 1061 1900.5 1081.0Q1892 1101 1877.5 1115.5Q1863 1130 1843.0 1138.5Q1823 1147 1801 1147Q1779 1147 1759.5 1138.5Q1740 1130 1725.0 1115.0Q1710 1100 1701.5 1080.5Q1693 1061 1693 1039Q1693 1017 1701.5 997.5Q1710 978 1725.0 963.0Q1740 948 1759.5 939.5Q1779 931 1801 931ZM1189 1301Q1169 1301 1152.0 1290.5Q1135 1280 1126 1263Q1072 1291 1011 1291Q959 1291 913.0 1271.0Q867 1251 833.0 1217.0Q799 1183 779.0 1137.0Q759 1091 759 1039Q759 987 779.0 941.0Q799 895 833.0 861.0Q867 827 913.0 807.0Q959 787 1011 787Q1075 787 1129 817Q1139 802 1155.0 793.0Q1171 784 1189 784Q1219 784 1240.0 805.0Q1261 826 1261 856Q1261 902 1261.5 947.5Q1262 993 1262 1039Q1262 1087 1261.5 1134.0Q1261 1181 1261 1229Q1261 1259 1240.0 1280.0Q1219 1301 1189 1301ZM1117 1024Q1117 1005 1107.0 988.0Q1097 971 1082.0 958.5Q1067 946 1048.0 938.5Q1029 931 1011 931Q988 931 968.5 939.5Q949 948 934.5 962.5Q920 977 911.5 996.5Q903 1016 903 1039Q903 1061 911.5 1081.0Q920 1101 934.5 1115.5Q949 1130 968.5 1138.5Q988 1147 1011 1147Q1029 1147 1048.0 1139.5Q1067 1132 1082.0 1119.5Q1097 1107 1107.0 1090.0Q1117 1073 1117 1054ZM1048 360Q1026 360 1006.5 351.5Q987 343 972.0 328.0Q957 313 948.5 293.5Q940 274 940 252Q940 229 948.5 209.5Q957 190 971.5 175.5Q986 161 1005.5 152.5Q1025 144 1048 144Q1066 144 1079.0 149.5Q1092 155 1103.5 161.5Q1115 168 1126.5 173.5Q1138 179 1153 179Q1183 179 1204.0 157.0Q1225 135 1225 106Q1225 79 1205.5 59.0Q1186 39 1158.0 26.0Q1130 13 1100.0 6.5Q1070 0 1048 0Q996 0 950.0 20.0Q904 40 870.0 74.0Q836 108 816.0 154.0Q796 200 796 252Q796 304 816.0 350.0Q836 396 870.0 430.0Q904 464 950.0 483.5Q996 503 1048 503Q1070 503 1100.0 497.0Q1130 491 1158.0 478.0Q1186 465 1205.5 445.5Q1225 426 1225 398Q1225 369 1204.0 347.0Q1183 325 1153 325Q1138 325 1127.0 330.5Q1116 336 1104.5 342.5Q1093 349 1079.5 354.5Q1066 360 1048 360ZM2023 647Q2023 677 2002.0 698.0Q1981 719 1951 719Q1922 719 1901.0 697.5Q1880 676 1880 647V479Q1829 503 1772 503Q1720 503 1674.0 483.5Q1628 464 1594.0 430.0Q1560 396 1540.0 350.0Q1520 304 1520 252Q1520 200 1540.0 154.0Q1560 108 1594.0 74.0Q1628 40 1674.0 20.0Q1720 0 1772 0Q1834 0 1889 29Q1898 12 1914.5 2.0Q1931 -8 1951 -8Q1981 -8 2002.0 13.0Q2023 34 2023 64ZM1880 252Q1880 230 1871.5 210.5Q1863 191 1848.0 176.0Q1833 161 1813.5 152.5Q1794 144 1772 144Q1749 144 1729.5 152.5Q1710 161 1695.5 175.5Q1681 190 1672.5 209.5Q1664 229 1664 252Q1664 274 1672.5 293.5Q1681 313 1696.0 328.0Q1711 343 1730.5 351.5Q1750 360 1772 360Q1794 360 1813.5 351.5Q1833 343 1848.0 328.0Q1863 313 1871.5 293.5Q1880 274 1880 252Z" style="fill:#ffffff;stroke:none" transform="scale(1,-1) translate(0,-256)" /></svg>