<?xml version="1.0" encoding="utf-8" ?>
<svg baseProfile="full" height="256" version="1.1" width="256" xmlns="http://www.w3.org/2000/svg" xmlns:ev="http://www.w3.org/2001/xml-events" xmlns:xlink="http://www.w3.org/1999/xlink"><defs /><path d="M1817 306Q1894 306 1946.5 350.0Q1999 394 2022 465V211Q2022 170 2005.0 134.5Q1988 99 1959.5 73.0Q1931 47 1894.0 32.5Q1857 18 1817 18H995Q955 18 918.0 32.5Q881 47 852.5 73.0Q824 99 807.0 134.5Q790 170 790 211V469Q801 434 820.0 404.0Q839 374 865.5 352.5Q892 331 924.5 318.5Q957 306 995 306H1817Z" style="fill:#f8312f;stroke:none" transform="scale(1,-1) translate(0,-256)" /></svg>