<?xml version="1.0" encoding="utf-8" ?>
<svg baseProfile="full" height="256" version="1.1" width="256" xmlns="http://www.w3.org/2000/svg" xmlns:ev="http://www.w3.org/2001/xml-events" xmlns:xlink="http://www.w3.org/1999/xlink"><defs /><path d="M1406 1338Q1436 1338 1456 1318L1838 950Q1860 930 1860 899Q1860 869 1839.0 848.0Q1818 827 1788 827H1568Q1560 827 1555.0 822.0Q1550 817 1550 809V108Q1550 78 1529.0 57.0Q1508 36 1478 36H1334Q1304 36 1283.0 57.0Q1262 78 1262 108V809Q1262 817 1257.0 822.0Q1252 827 1244 827H1024Q994 827 973.0 848.0Q952 869 952 899Q952 930 974 950L1356 1318Q1376 1338 1406 1338Z" style="fill:#ffffff;stroke:none" transform="scale(1,-1) translate(0,-256)" /></svg>