<?xml version="1.0" encoding="utf-8" ?>
<svg baseProfile="full" height="256" version="1.1" width="256" xmlns="http://www.w3.org/2000/svg" xmlns:ev="http://www.w3.org/2001/xml-events" xmlns:xlink="http://www.w3.org/1999/xlink"><defs /><path d="M1399 1316Q1439 1316 1470.0 1295.5Q1501 1275 1516 1238L1901 295Q1910 272 1910 248Q1910 222 1900.0 199.0Q1890 176 1873.0 159.0Q1856 142 1833.5 132.0Q1811 122 1785 122Q1747 122 1714.5 143.5Q1682 165 1668 200L1613 335H1197L1144 201Q1130 165 1097.5 143.0Q1065 121 1027 121Q1001 121 978.0 131.0Q955 141 938.0 158.0Q921 175 911.5 198.0Q902 221 902 247Q902 271 911 294L1283 1237Q1297 1272 1329.0 1294.0Q1361 1316 1399 1316ZM1402 852V853V852L1297 587V586H1510V587Z" style="fill:#ffffff;stroke:none" transform="scale(1,-1) translate(0,-256)" /></svg>