<?xml version="1.0" encoding="utf-8" ?>
<svg baseProfile="full" height="256" version="1.1" width="256" xmlns="http://www.w3.org/2000/svg" xmlns:ev="http://www.w3.org/2001/xml-events" xmlns:xlink="http://www.w3.org/1999/xlink"><defs /><path d="M1291 -142Q1279 -142 1270.5 -133.5Q1262 -125 1262 -113V259Q1262 270 1257.0 276.0Q1252 282 1244.0 285.0Q1236 288 1226.5 289.0Q1217 290 1209 290Q1187 290 1166.0 287.5Q1145 285 1123 285Q1115 285 1106.0 286.0Q1097 287 1089.0 290.0Q1081 293 1076.0 299.0Q1071 305 1071 316Q1071 324 1076 332L1425 856Q1432 868 1449 868Q1461 868 1469.5 860.0Q1478 852 1478 840V460Q1478 439 1493.5 434.0Q1509 429 1526 429Q1542 429 1557.5 430.5Q1573 432 1589 432Q1604 432 1619.5 427.5Q1635 423 1635 403Q1635 400 1622.5 377.5Q1610 355 1589.5 320.0Q1569 285 1542.5 241.0Q1516 197 1488.0 150.5Q1460 104 1431.5 58.0Q1403 12 1379.5 -26.0Q1356 -64 1339.0 -91.5Q1322 -119 1315 -128Q1310 -134 1304.5 -138.0Q1299 -142 1291 -142Z" style="fill:#ff6723;stroke:none" transform="scale(1,-1) translate(0,-256)" /></svg>