<?xml version="1.0" encoding="utf-8" ?>
<svg baseProfile="full" height="256" version="1.1" width="256" xmlns="http://www.w3.org/2000/svg" xmlns:ev="http://www.w3.org/2001/xml-events" xmlns:xlink="http://www.w3.org/1999/xlink"><defs /><path d="M2053 697Q2076 697 2092 679L2236 527Q2251 510 2251 490Q2251 468 2235.0 452.0Q2219 436 2197 436Q2173 436 2156.0 453.5Q2139 471 2125 488V324Q2125 272 2105.0 226.0Q2085 180 2051.0 146.0Q2017 112 1971.0 92.0Q1925 72 1873 72Q1821 72 1775.0 92.0Q1729 112 1695.0 146.0Q1661 180 1641.5 226.0Q1622 272 1622 324V1078Q1622 1108 1610.5 1134.0Q1599 1160 1579.5 1179.5Q1560 1199 1534.0 1210.5Q1508 1222 1478 1222Q1448 1222 1422.0 1210.5Q1396 1199 1376.5 1179.5Q1357 1160 1345.5 1134.0Q1334 1108 1334 1078V144Q1334 114 1313.0 93.0Q1292 72 1262 72Q1233 72 1211.5 93.5Q1190 115 1190 144V1078Q1190 1108 1179.0 1134.0Q1168 1160 1148.5 1179.5Q1129 1199 1103.0 1210.5Q1077 1222 1047 1222Q1017 1222 991.0 1210.5Q965 1199 945.5 1179.5Q926 1160 914.5 1134.0Q903 1108 903 1078V827V144Q903 115 881.5 93.5Q860 72 831 72Q801 72 780.0 93.0Q759 114 759 144V827V1078Q759 1108 747.5 1134.0Q736 1160 716.5 1179.5Q697 1199 671.0 1210.5Q645 1222 615 1222Q586 1222 564.5 1243.5Q543 1265 543 1294Q543 1323 564.5 1344.5Q586 1366 615 1366Q678 1366 733.5 1340.5Q789 1315 831 1268Q872 1315 928.5 1340.5Q985 1366 1047 1366Q1109 1366 1165.0 1340.5Q1221 1315 1262 1268Q1304 1315 1359.5 1340.5Q1415 1366 1478 1366Q1538 1366 1590.0 1343.5Q1642 1321 1681.0 1282.0Q1720 1243 1742.5 1190.5Q1765 1138 1765 1078V324Q1765 301 1773.5 281.5Q1782 262 1796.5 247.5Q1811 233 1830.5 224.5Q1850 216 1873 216Q1895 216 1914.5 224.5Q1934 233 1949.0 247.0Q1964 261 1972.5 280.5Q1981 300 1981 322V488Q1967 472 1950.0 454.0Q1933 436 1909 436Q1887 436 1871.0 452.0Q1855 468 1855 490Q1855 512 1870 527L2013 679Q2029 697 2053 697Z" style="fill:#ffffff;stroke:none" transform="scale(1,-1) translate(0,-256)" /></svg>