<?xml version="1.0" encoding="utf-8" ?>
<svg baseProfile="full" height="256" version="1.1" width="256" xmlns="http://www.w3.org/2000/svg" xmlns:ev="http://www.w3.org/2001/xml-events" xmlns:xlink="http://www.w3.org/1999/xlink"><defs /><path d="M1226 1725Q1241 1725 1251.5 1714.5Q1262 1704 1262 1689V575H1873Q1888 575 1898.5 564.5Q1909 554 1909 539Q1909 524 1898.5 513.5Q1888 503 1873 503H1262V431L1226 412L1190 431V503H795Q780 503 769.5 513.5Q759 524 759 539Q759 554 769.5 564.5Q780 575 795 575H1190V1689Q1190 1704 1200.5 1714.5Q1211 1725 1226 1725Z" style="fill:#ffffff;stroke:none" transform="scale(1,-1) translate(0,-256)" /></svg>