<?xml version="1.0" encoding="utf-8" ?>
<svg baseProfile="full" height="256" version="1.1" width="256" xmlns="http://www.w3.org/2000/svg" xmlns:ev="http://www.w3.org/2001/xml-events" xmlns:xlink="http://www.w3.org/1999/xlink"><defs /><path d="M2412 -287H400V144Q439 144 468.5 132.5Q498 121 525.0 107.5Q552 94 581.5 83.0Q611 72 651 72Q690 72 719.5 83.0Q749 94 776.0 107.5Q803 121 832.5 132.5Q862 144 902 144Q942 144 971.5 132.5Q1001 121 1028.5 107.5Q1056 94 1085.5 83.0Q1115 72 1154 72Q1194 72 1223.0 83.0Q1252 94 1279.5 107.5Q1307 121 1336.0 132.5Q1365 144 1405 144Q1445 144 1474.5 132.5Q1504 121 1531.5 107.5Q1559 94 1588.5 83.0Q1618 72 1658 72Q1697 72 1726.5 83.0Q1756 94 1783.0 107.5Q1810 121 1839.5 132.5Q1869 144 1908 144Q1948 144 1977.5 132.5Q2007 121 2034.5 107.5Q2062 94 2091.5 83.0Q2121 72 2161 72Q2201 72 2230.5 83.0Q2260 94 2287.0 107.5Q2314 121 2343.5 132.5Q2373 144 2413 144Z" style="fill:#00a6ed;stroke:none" transform="scale(1,-1) translate(0,-256)" /></svg>