<?xml version="1.0" encoding="utf-8" ?>
<svg baseProfile="full" height="256" version="1.1" width="256" xmlns="http://www.w3.org/2000/svg" xmlns:ev="http://www.w3.org/2001/xml-events" xmlns:xlink="http://www.w3.org/1999/xlink"><defs /><path d="M1262 1653 1837 575 1646 553Q1617 550 1598.0 546.0Q1579 542 1550 542Q1521 542 1501.5 546.0Q1482 550 1454 553L1262 575L1245 934Q1243 960 1241.5 981.5Q1240 1003 1239.0 1024.0Q1238 1045 1237.0 1066.5Q1236 1088 1236 1114Q1236 1140 1237.0 1161.5Q1238 1183 1239.0 1204.0Q1240 1225 1241.5 1246.5Q1243 1268 1245 1294ZM1190 1438 831 575 1011 542 1190 575 1211 862Q1212 883 1214.0 900.0Q1216 917 1218.0 933.5Q1220 950 1221.0 967.5Q1222 985 1222 1006Q1222 1027 1221.0 1044.0Q1220 1061 1218.0 1077.5Q1216 1094 1214.0 1111.5Q1212 1129 1211 1150Z" style="fill:#fcd53f;stroke:none" transform="scale(1,-1) translate(0,-256)" /></svg>