<?xml version="1.0" encoding="utf-8" ?>
<svg baseProfile="full" height="256" version="1.1" width="256" xmlns="http://www.w3.org/2000/svg" xmlns:ev="http://www.w3.org/2001/xml-events" xmlns:xlink="http://www.w3.org/1999/xlink"><defs /><path d="M1831 1725Q1910 1725 1982.5 1704.5Q2055 1684 2118.5 1647.0Q2182 1610 2234.0 1558.0Q2286 1506 2323.0 1443.0Q2360 1380 2380.5 1307.0Q2401 1234 2401 1156Q2401 1041 2358.5 938.0Q2316 835 2235 754L1948 467Q1868 387 1762.5 343.5Q1657 300 1544 300Q1441 300 1347.5 335.0Q1254 370 1179.0 432.5Q1104 495 1053.5 581.0Q1003 667 985 769Q1013 797 1038.0 820.0Q1063 843 1090.5 860.0Q1118 877 1149.5 887.5Q1181 898 1222 903Q1214 831 1236.0 766.0Q1258 701 1302.0 652.0Q1346 603 1408.0 574.0Q1470 545 1543 545Q1589 545 1626.0 554.5Q1663 564 1695.0 582.0Q1727 600 1756.5 625.0Q1786 650 1817 681L2062 926Q2108 972 2132.5 1031.0Q2157 1090 2157 1156Q2157 1223 2131.5 1282.0Q2106 1341 2062.0 1385.5Q2018 1430 1958.5 1455.5Q1899 1481 1832 1481Q1767 1481 1707.5 1456.5Q1648 1432 1602 1386L1357 1141Q1332 1146 1307.5 1147.5Q1283 1149 1258 1149Q1198 1149 1139.0 1137.0Q1080 1125 1025 1100Q1066 1196 1141 1271L1429 1559Q1510 1640 1613.5 1682.5Q1717 1725 1831 1725Z" style="fill:#bebebe;stroke:none" transform="scale(1,-1) translate(0,-256)" /></svg>