<?xml version="1.0" encoding="utf-8" ?>
<svg baseProfile="full" height="256" version="1.1" width="256" xmlns="http://www.w3.org/2000/svg" xmlns:ev="http://www.w3.org/2001/xml-events" xmlns:xlink="http://www.w3.org/1999/xlink"><defs /><path d="M1776 349Q1733 251 1659 177L1372 -110Q1291 -191 1187.0 -234.0Q1083 -277 969 -277Q851 -277 747.0 -232.5Q643 -188 566.0 -110.5Q489 -33 444.0 70.5Q399 174 399 292Q399 407 442.0 510.5Q485 614 566 695L854 983Q893 1022 935.0 1048.5Q977 1075 1025 1100Q1069 1122 1112.0 1144.0Q1155 1166 1199 1189Q1238 1177 1277.5 1164.5Q1317 1152 1356 1140Q1374 1135 1393.0 1131.5Q1412 1128 1431 1122Q1495 1102 1553.0 1066.5Q1611 1031 1659 983Q1721 921 1761.5 843.5Q1802 766 1816 680L1753 532Q1737 516 1717.5 506.5Q1698 497 1675 497Q1646 497 1621.5 511.5Q1597 526 1578 546Q1585 618 1563.5 683.0Q1542 748 1498.5 797.0Q1455 846 1393.0 875.0Q1331 904 1258 904Q1249 904 1240.0 903.5Q1231 903 1222 902L1050 768H984L739 523Q693 477 668.5 417.5Q644 358 644 293Q644 226 669.5 167.0Q695 108 739.0 63.5Q783 19 842.0 -6.5Q901 -32 969 -32Q1034 -32 1093.5 -7.5Q1153 17 1199 63L1444 308Q1498 330 1554.5 347.0Q1611 364 1670 364Q1697 364 1723.5 360.0Q1750 356 1776 349Z" style="fill:#9b9b9b;stroke:none" transform="scale(1,-1) translate(0,-256)" /></svg>