<?xml version="1.0" encoding="utf-8" ?>
<svg baseProfile="full" height="256" version="1.1" width="256" xmlns="http://www.w3.org/2000/svg" xmlns:ev="http://www.w3.org/2001/xml-events" xmlns:xlink="http://www.w3.org/1999/xlink"><defs /><path d="M472 1472Q472 1524 492.0 1570.5Q512 1617 546.5 1651.5Q581 1686 627.0 1706.5Q673 1727 725 1727Q758 1727 786.5 1717.5Q815 1708 845 1696L903 1581L831 1294L669 1225Q652 1231 635.5 1237.0Q619 1243 602 1250Q592 1254 582.0 1261.5Q572 1269 564 1276Q520 1311 496.0 1363.0Q472 1415 472 1472Z" style="fill:#aeddff;stroke:none" transform="scale(1,-1) translate(0,-256)" /></svg>