<?xml version="1.0" encoding="utf-8" ?>
<svg baseProfile="full" height="256" version="1.1" width="256" xmlns="http://www.w3.org/2000/svg" xmlns:ev="http://www.w3.org/2001/xml-events" xmlns:xlink="http://www.w3.org/1999/xlink"><defs /><path d="M1370 -287Q1347 -287 1331.5 -271.5Q1316 -256 1316 -233V555L713 -265Q697 -287 669 -287Q646 -287 630.5 -271.5Q615 -256 615 -233Q615 -215 626 -201L1251 648Q1225 652 1207.5 672.5Q1190 693 1190 719Q1190 748 1211.5 769.5Q1233 791 1262 791H1316V1024Q1316 1047 1331.5 1062.5Q1347 1078 1370 1078Q1393 1078 1408.5 1062.5Q1424 1047 1424 1024V791H1478Q1507 791 1528.5 769.5Q1550 748 1550 719Q1550 697 1537.0 678.5Q1524 660 1504 652L2132 -201Q2143 -215 2143 -233Q2143 -256 2127.5 -271.5Q2112 -287 2089 -287Q2061 -287 2045 -265L1424 579V-233Q1424 -256 1408.5 -271.5Q1393 -287 1370 -287Z" style="fill:#7167a4;stroke:none" transform="scale(1,-1) translate(0,-256)" /></svg>