<?xml version="1.0" encoding="utf-8" ?>
<svg baseProfile="full" height="256" version="1.1" width="256" xmlns="http://www.w3.org/2000/svg" xmlns:ev="http://www.w3.org/2001/xml-events" xmlns:xlink="http://www.w3.org/1999/xlink"><defs /><path d="M1335 935V1006Q1335 1036 1356.0 1057.0Q1377 1078 1407 1078Q1437 1078 1458.0 1057.0Q1479 1036 1479 1006V935Q1479 905 1458.0 884.0Q1437 863 1407 863Q1377 863 1356.0 884.0Q1335 905 1335 935ZM1335 0V72Q1335 102 1356.0 123.0Q1377 144 1407 144Q1437 144 1458.0 123.0Q1479 102 1479 72V0Q1479 -29 1457.5 -50.5Q1436 -72 1407 -72Q1378 -72 1356.5 -50.5Q1335 -29 1335 0ZM1910 575H1838Q1808 575 1787.0 554.0Q1766 533 1766 503Q1766 474 1787.5 452.5Q1809 431 1838 431H1910Q1939 431 1960.5 452.5Q1982 474 1982 503Q1982 533 1961.0 554.0Q1940 575 1910 575ZM904 575H976Q1005 575 1026.5 553.5Q1048 532 1048 503Q1048 474 1026.5 452.5Q1005 431 976 431H904Q875 431 853.5 452.5Q832 474 832 503Q832 533 853.0 554.0Q874 575 904 575ZM1712 270Q1682 270 1661.0 249.0Q1640 228 1640 198Q1640 181 1653.0 160.0Q1666 139 1685.0 120.0Q1704 101 1725.5 88.0Q1747 75 1763 75Q1792 75 1813.5 96.5Q1835 118 1835 147Q1835 164 1822.0 185.5Q1809 207 1790.5 225.5Q1772 244 1750.5 257.0Q1729 270 1712 270ZM1174 807Q1174 778 1152.5 757.0Q1131 736 1102 736Q1085 736 1063.5 749.0Q1042 762 1023.5 780.5Q1005 799 992.0 820.0Q979 841 979 858Q979 887 1000.0 909.0Q1021 931 1051 931Q1067 931 1088.5 918.0Q1110 905 1129.0 886.0Q1148 867 1161.0 845.5Q1174 824 1174 807ZM979 148Q979 119 1000.5 97.5Q1022 76 1051 76Q1068 76 1089.5 89.0Q1111 102 1129.5 120.5Q1148 139 1161.0 160.5Q1174 182 1174 199Q1174 229 1153.0 250.0Q1132 271 1102 271Q1085 271 1063.5 258.0Q1042 245 1023.5 226.5Q1005 208 992.0 186.5Q979 165 979 148Z" style="fill:#d3d3d3;stroke:none" transform="scale(1,-1) translate(0,-256)" /></svg>