<?xml version="1.0" encoding="utf-8" ?>
<svg baseProfile="full" height="256" version="1.1" width="256" xmlns="http://www.w3.org/2000/svg" xmlns:ev="http://www.w3.org/2001/xml-events" xmlns:xlink="http://www.w3.org/1999/xlink"><defs /><path d="M1407 -144Q1318 -144 1235.0 -121.0Q1152 -98 1080.5 -55.5Q1009 -13 950.0 46.0Q891 105 848.5 176.5Q806 248 783.0 331.0Q760 414 760 503Q760 592 783.0 675.0Q806 758 848.5 829.5Q891 901 950.0 960.0Q1009 1019 1080.5 1061.5Q1152 1104 1235.0 1127.0Q1318 1150 1407 1150Q1496 1150 1579.0 1127.0Q1662 1104 1733.5 1061.5Q1805 1019 1864.0 960.0Q1923 901 1965.5 829.5Q2008 758 2031.0 675.0Q2054 592 2054 503Q2054 414 2031.0 331.0Q2008 248 1965.5 176.5Q1923 105 1864.0 46.0Q1805 -13 1733.5 -55.5Q1662 -98 1579.0 -121.0Q1496 -144 1407 -144Z" style="fill:#ffffff;stroke:none" transform="scale(1,-1) translate(0,-256)" /></svg>