<?xml version="1.0" encoding="utf-8" ?>
<svg baseProfile="full" height="256" version="1.1" width="256" xmlns="http://www.w3.org/2000/svg" xmlns:ev="http://www.w3.org/2001/xml-events" xmlns:xlink="http://www.w3.org/1999/xlink"><defs /><path d="M1210 1438Q1172 1438 1145.5 1464.5Q1119 1491 1119 1529V1634Q1119 1652 1126.5 1668.5Q1134 1685 1146.5 1697.5Q1159 1710 1175.5 1717.5Q1192 1725 1210 1725H1603Q1641 1725 1667.5 1698.5Q1694 1672 1694 1634V1529Q1694 1491 1667.5 1464.5Q1641 1438 1603 1438ZM2198 503Q2198 394 2169.5 293.0Q2141 192 2089.5 104.5Q2038 17 1966.0 -55.5Q1894 -128 1806.0 -179.5Q1718 -231 1617.0 -259.0Q1516 -287 1407 -287Q1298 -287 1197.0 -259.0Q1096 -231 1008.0 -179.5Q920 -128 848.0 -55.5Q776 17 724.5 104.5Q673 192 644.5 293.0Q616 394 616 503Q616 612 644.0 713.0Q672 814 723.5 902.0Q775 990 847.5 1062.5Q920 1135 1008.0 1186.5Q1096 1238 1197.0 1266.0Q1298 1294 1407 1294Q1516 1294 1617.0 1266.0Q1718 1238 1806.0 1186.5Q1894 1135 1966.5 1062.5Q2039 990 2090.5 902.0Q2142 814 2170.0 713.0Q2198 612 2198 503Z" style="fill:#636363;stroke:none" transform="scale(1,-1) translate(0,-256)" /></svg>