<?xml version="1.0" encoding="utf-8" ?>
<svg baseProfile="full" height="256" version="1.1" width="256" xmlns="http://www.w3.org/2000/svg" xmlns:ev="http://www.w3.org/2001/xml-events" xmlns:xlink="http://www.w3.org/1999/xlink"><defs /><path d="M1551 1222H1263V1438L1407 1510L1551 1438ZM780 862Q743 862 716 889L642 963Q615 990 615 1027Q615 1064 642 1091L818 1267Q845 1294 883 1294Q920 1294 947 1267L1022 1193Q1048 1167 1048 1129Q1048 1092 1021 1065L845 889Q818 862 780 862ZM1765 1129Q1765 1166 1792 1193L1867 1268Q1894 1295 1931 1295Q1969 1295 1996 1268L2172 1092Q2199 1065 2199 1028Q2199 990 2172 963L2097 889Q2070 862 2033 862Q1995 862 1968 889L1792 1065Q1765 1092 1765 1129Z" style="fill:#d3d3d3;stroke:none" transform="scale(1,-1) translate(0,-256)" /></svg>