<?xml version="1.0" encoding="utf-8" ?>
<svg baseProfile="full" height="256" version="1.1" width="256" xmlns="http://www.w3.org/2000/svg" xmlns:ev="http://www.w3.org/2001/xml-events" xmlns:xlink="http://www.w3.org/1999/xlink"><defs /><path d="M2144 958Q2186 958 2222.0 944.0Q2258 930 2284.5 904.5Q2311 879 2325.5 843.5Q2340 808 2340 765Q2340 720 2323.5 682.0Q2307 644 2272 616Q2264 610 2257.0 604.5Q2250 599 2242 594Q2170 542 2100.5 486.5Q2031 431 1972 363Q1945 331 1923.5 294.5Q1902 258 1881 222Q1837 147 1790.0 73.5Q1743 0 1682 -63Q1632 -114 1573.5 -155.5Q1515 -197 1449.5 -226.0Q1384 -255 1314.5 -270.5Q1245 -286 1173 -286Q1024 -286 896.5 -239.0Q769 -192 675.0 -105.5Q581 -19 528.0 104.5Q475 228 475 381Q475 598 472.0 813.5Q469 1029 469 1246Q469 1283 482.5 1317.5Q496 1352 520.0 1379.0Q544 1406 577.0 1422.0Q610 1438 648 1438Q690 1438 724.0 1423.5Q758 1409 782.0 1383.5Q806 1358 819.0 1322.5Q832 1287 832 1246V1146Q860 1181 900.5 1201.5Q941 1222 986 1222Q1024 1222 1060.0 1207.5Q1096 1193 1123 1167Q1134 1248 1179.5 1293.5Q1225 1339 1310 1339Q1358 1339 1393.5 1319.5Q1429 1300 1450 1256V1521Q1450 1561 1465.0 1597.5Q1480 1634 1506.0 1662.5Q1532 1691 1567.0 1708.0Q1602 1725 1643 1725Q1686 1725 1721.5 1709.0Q1757 1693 1782.5 1665.0Q1808 1637 1822.0 1600.0Q1836 1563 1836 1521V838Q1836 830 1838.5 818.0Q1841 806 1852 806Q1857 806 1873.0 817.5Q1889 829 1911.5 845.5Q1934 862 1962.5 882.0Q1991 902 2021.5 918.5Q2052 935 2083.5 946.5Q2115 958 2144 958Z" style="fill:#ffc83d;stroke:none" transform="scale(1,-1) translate(0,-256)" /></svg>