<?xml version="1.0" encoding="utf-8" ?>
<svg baseProfile="full" height="256" version="1.1" width="256" xmlns="http://www.w3.org/2000/svg" xmlns:ev="http://www.w3.org/2001/xml-events" xmlns:xlink="http://www.w3.org/1999/xlink"><defs /><path d="M1403 -287Q1302 -287 1209.0 -260.0Q1116 -233 1036.0 -184.5Q956 -136 890.5 -67.5Q825 1 778.5 83.0Q732 165 706.5 258.5Q681 352 681 452Q681 552 706.5 646.0Q732 740 778.0 822.0Q824 904 889.5 972.0Q955 1040 1035.5 1089.0Q1116 1138 1208.5 1165.0Q1301 1192 1403 1192Q1505 1192 1598.0 1165.0Q1691 1138 1771.0 1089.0Q1851 1040 1916.5 972.0Q1982 904 2028.5 822.0Q2075 740 2100.0 646.0Q2125 552 2125 452Q2125 352 2099.5 258.0Q2074 164 2028.0 82.0Q1982 0 1916.5 -68.0Q1851 -136 1770.5 -184.5Q1690 -233 1597.0 -260.0Q1504 -287 1403 -287Z" style="fill:#bebebe;stroke:none" transform="scale(1,-1) translate(0,-256)" /></svg>