<?xml version="1.0" encoding="utf-8" ?>
<svg baseProfile="full" height="256" version="1.1" width="256" xmlns="http://www.w3.org/2000/svg" xmlns:ev="http://www.w3.org/2001/xml-events" xmlns:xlink="http://www.w3.org/1999/xlink"><defs /><path d="M1403 -198Q1269 -198 1153.0 -146.0Q1037 -94 951.5 -5.0Q866 84 817.0 202.0Q768 320 768 452Q768 540 790.5 622.0Q813 704 853.5 776.5Q894 849 952.0 909.0Q1010 969 1080.5 1011.5Q1151 1054 1232.5 1078.0Q1314 1102 1403 1102Q1537 1102 1653.0 1050.0Q1769 998 1854.5 909.0Q1940 820 1989.0 702.0Q2038 584 2038 452Q2038 364 2016.0 281.5Q1994 199 1953.0 126.5Q1912 54 1854.5 -5.5Q1797 -65 1726.5 -108.0Q1656 -151 1574.0 -174.5Q1492 -198 1403 -198ZM1402 1014Q1286 1014 1186.0 969.0Q1086 924 1012.5 847.5Q939 771 897.0 668.5Q855 566 855 452Q855 338 897.0 236.0Q939 134 1012.5 57.0Q1086 -20 1186.0 -65.0Q1286 -110 1402 -110Q1518 -110 1618.0 -65.0Q1718 -20 1792.0 56.5Q1866 133 1908.0 235.5Q1950 338 1950 452Q1950 528 1931.0 599.5Q1912 671 1877.0 733.5Q1842 796 1792.5 847.5Q1743 899 1682.0 936.0Q1621 973 1550.0 993.5Q1479 1014 1402 1014Z" style="fill:#e6e6e6;stroke:none" transform="scale(1,-1) translate(0,-256)" /></svg>