<?xml version="1.0" encoding="utf-8" ?>
<svg baseProfile="full" height="256" version="1.1" width="256" xmlns="http://www.w3.org/2000/svg" xmlns:ev="http://www.w3.org/2001/xml-events" xmlns:xlink="http://www.w3.org/1999/xlink"><defs /><path d="M1538 148H1253Q1223 148 1201.5 168.5Q1180 189 1180 220Q1180 246 1197 266L1434 557Q1446 572 1446 589Q1446 611 1432.0 626.0Q1418 641 1396 641Q1373 641 1360.5 631.5Q1348 622 1337.5 611.0Q1327 600 1314.5 590.5Q1302 581 1279 581Q1249 581 1228.0 602.0Q1207 623 1207 653Q1207 676 1220 695Q1252 742 1300.0 764.0Q1348 786 1404 786Q1443 786 1476.5 769.5Q1510 753 1535.5 725.5Q1561 698 1575.5 662.5Q1590 627 1590 590Q1590 520 1545 466L1405 293H1537Q1567 293 1588.5 272.0Q1610 251 1610 221Q1610 191 1589.0 169.5Q1568 148 1538 148Z" style="fill:#636363;stroke:none" transform="scale(1,-1) translate(0,-256)" /></svg>