<?xml version="1.0" encoding="utf-8" ?>
<svg baseProfile="full" height="256" version="1.1" width="256" xmlns="http://www.w3.org/2000/svg" xmlns:ev="http://www.w3.org/2001/xml-events" xmlns:xlink="http://www.w3.org/1999/xlink"><defs /><path d="M2237 -289Q2211 -289 2185.5 -279.0Q2160 -269 2142 -249L1216 730Q1184 765 1140.5 783.0Q1097 801 1049 801Q1035 801 1022.0 800.0Q1009 799 995 799Q917 799 842.0 823.5Q767 848 699.0 891.0Q631 934 573.5 993.0Q516 1052 474.0 1120.5Q432 1189 408.5 1265.0Q385 1341 385 1418Q385 1496 410.5 1561.5Q436 1627 482.0 1674.0Q528 1721 592.5 1747.5Q657 1774 736 1774Q813 1774 888.5 1749.5Q964 1725 1031.5 1682.0Q1099 1639 1156.5 1580.5Q1214 1522 1256.5 1453.5Q1299 1385 1322.5 1309.5Q1346 1234 1346 1157Q1346 1134 1343.0 1111.0Q1340 1088 1340 1065Q1340 1020 1355.5 978.5Q1371 937 1402 905L2330 -75Q2347 -92 2355.5 -115.0Q2364 -138 2364 -162Q2364 -188 2354.0 -211.5Q2344 -235 2327.0 -252.0Q2310 -269 2287.0 -279.0Q2264 -289 2237 -289Z" style="fill:#b4acbc;stroke:none" transform="scale(1,-1) translate(0,-256)" /></svg>