<?xml version="1.0" encoding="utf-8" ?>
<svg baseProfile="full" height="256" version="1.1" width="256" xmlns="http://www.w3.org/2000/svg" xmlns:ev="http://www.w3.org/2001/xml-events" xmlns:xlink="http://www.w3.org/1999/xlink"><defs /><path d="M504 1385Q504 1444 523.0 1493.0Q542 1542 577.0 1577.5Q612 1613 661.0 1633.0Q710 1653 769 1653Q857 1653 939.5 1613.0Q1022 1573 1086.0 1507.5Q1150 1442 1188.5 1358.5Q1227 1275 1227 1188Q1227 1129 1208.0 1080.0Q1189 1031 1154.0 995.5Q1119 960 1070.5 940.0Q1022 920 963 920Q905 920 848.5 938.5Q792 957 741.0 989.5Q690 1022 646.5 1066.0Q603 1110 571.5 1161.5Q540 1213 522.0 1270.0Q504 1327 504 1385Z" style="fill:#998ea4;stroke:none" transform="scale(1,-1) translate(0,-256)" /></svg>