<?xml version="1.0" encoding="utf-8" ?>
<svg baseProfile="full" height="256" version="1.1" width="256" xmlns="http://www.w3.org/2000/svg" xmlns:ev="http://www.w3.org/2001/xml-events" xmlns:xlink="http://www.w3.org/1999/xlink"><defs /><path d="M1592 954Q1646 1002 1708.5 1024.5Q1771 1047 1843 1047Q1871 1107 1927.0 1142.5Q1983 1178 2049 1178Q2096 1178 2137.5 1160.0Q2179 1142 2209.5 1111.5Q2240 1081 2258.0 1039.5Q2276 998 2276 951Q2276 898 2252.5 850.5Q2229 803 2187 771Q2198 727 2198 684Q2198 609 2169.5 542.5Q2141 476 2091.5 426.5Q2042 377 1975.5 348.5Q1909 320 1834 320Q1764 320 1701.5 345.0Q1639 370 1590.5 414.0Q1542 458 1510.5 518.0Q1479 578 1472 647H400V1376Q442 1390 484 1390Q540 1390 590.5 1367.5Q641 1345 679 1303Q754 1375 850.5 1413.0Q947 1451 1051 1451Q1157 1451 1251.0 1413.0Q1345 1375 1418.0 1308.0Q1491 1241 1537.0 1150.0Q1583 1059 1592 954Z" style="fill:#e6e6e6;stroke:none" transform="scale(1,-1) translate(0,-256)" /></svg>