<?xml version="1.0" encoding="utf-8" ?>
<svg baseProfile="full" height="256" version="1.1" width="256" xmlns="http://www.w3.org/2000/svg" xmlns:ev="http://www.w3.org/2001/xml-events" xmlns:xlink="http://www.w3.org/1999/xlink"><defs /><path d="M608 575Q640 575 663.5 598.5Q687 622 687 654V1143Q687 1178 670.0 1195.0Q653 1212 627.5 1218.0Q602 1224 573.0 1223.0Q544 1222 521 1222Q525 1247 530.0 1273.0Q535 1299 546.0 1320.0Q557 1341 577.0 1354.0Q597 1367 630 1367H1134Q1160 1367 1183.5 1357.0Q1207 1347 1224.5 1329.5Q1242 1312 1252.0 1288.5Q1262 1265 1262 1239V863H2291Q2316 863 2338.0 853.5Q2360 844 2376.5 827.5Q2393 811 2402.5 788.5Q2412 766 2412 741V503L1745 455Q1696 452 1656.5 447.5Q1617 443 1578.5 439.5Q1540 436 1500.5 433.5Q1461 431 1412 431Q1363 431 1323.0 433.5Q1283 436 1245.0 439.5Q1207 443 1167.0 447.5Q1127 452 1078 455L411 503L422 575ZM2291 -72H528Q502 -72 478.5 -62.0Q455 -52 437.5 -34.5Q420 -17 410.0 6.5Q400 30 400 56V367H2412V50Q2412 25 2402.5 2.5Q2393 -20 2376.5 -36.5Q2360 -53 2338.0 -62.5Q2316 -72 2291 -72Z" style="fill:#f8312f;stroke:none" transform="scale(1,-1) translate(0,-256)" /></svg>