<?xml version="1.0" encoding="utf-8" ?>
<svg baseProfile="full" height="256" version="1.1" width="256" xmlns="http://www.w3.org/2000/svg" xmlns:ev="http://www.w3.org/2001/xml-events" xmlns:xlink="http://www.w3.org/1999/xlink"><defs /><path d="M2412 1186Q2412 1171 2401.5 1160.5Q2391 1150 2376 1150H2211Q2197 1150 2197 1136V949Q2197 935 2211 935H2376Q2390 935 2401.0 924.0Q2412 913 2412 899Q2412 884 2401.5 873.5Q2391 863 2376 863H1226Q1211 863 1200.5 873.5Q1190 884 1190 899Q1190 914 1197.5 921.5Q1205 929 1215.5 932.0Q1226 935 1238.5 935.0Q1251 935 1262 935V1150Q1251 1150 1238.5 1149.5Q1226 1149 1215.5 1152.0Q1205 1155 1197.5 1162.5Q1190 1170 1190 1186Q1190 1201 1200.5 1211.5Q1211 1222 1226 1222H2376Q2391 1222 2401.5 1211.5Q2412 1201 2412 1186ZM1550 1136Q1550 1142 1545.5 1146.0Q1541 1150 1535 1150H1348Q1343 1150 1338.5 1145.5Q1334 1141 1334 1136V949Q1334 944 1338.5 939.5Q1343 935 1348 935H1535Q1541 935 1545.5 939.0Q1550 943 1550 949ZM1622 949Q1622 935 1636 935H1823Q1837 935 1837 949V1143Q1837 1150 1830 1150H1629Q1622 1150 1622 1143ZM2125 1136Q2125 1142 2120.5 1146.0Q2116 1150 2110 1150H1923Q1918 1150 1913.5 1145.5Q1909 1141 1909 1136V949Q1909 944 1913.5 939.5Q1918 935 1923 935H2110Q2116 935 2120.5 939.0Q2125 943 2125 949Z" style="fill:#d3d3d3;stroke:none" transform="scale(1,-1) translate(0,-256)" /></svg>