<?xml version="1.0" encoding="utf-8" ?>
<svg baseProfile="full" height="256" version="1.1" width="256" xmlns="http://www.w3.org/2000/svg" xmlns:ev="http://www.w3.org/2001/xml-events" xmlns:xlink="http://www.w3.org/1999/xlink"><defs /><path d="M687 654Q687 622 663.5 598.5Q640 575 608 575H422L521 1222H608Q640 1222 663.5 1198.5Q687 1175 687 1143ZM831 1222Q801 1222 780.0 1201.0Q759 1180 759 1150V647Q759 617 780.0 596.0Q801 575 831 575H1047Q1076 575 1097.0 596.5Q1118 618 1118 647V1150Q1118 1179 1097.0 1200.5Q1076 1222 1047 1222Z" style="fill:#26c9fc;stroke:none" transform="scale(1,-1) translate(0,-256)" /></svg>