<?xml version="1.0" encoding="utf-8" ?>
<svg baseProfile="full" height="256" version="1.1" width="256" xmlns="http://www.w3.org/2000/svg" xmlns:ev="http://www.w3.org/2001/xml-events" xmlns:xlink="http://www.w3.org/1999/xlink"><defs /><path d="M579 935H686Q715 935 737.0 914.0Q759 893 759 863V647Q759 618 737.5 596.5Q716 575 687 575H405Q408 587 412.5 598.5Q417 610 422 621ZM902 935H975Q1004 935 1025.5 913.5Q1047 892 1047 863V647Q1047 618 1025.5 596.5Q1004 575 975 575H902Q873 575 852.0 596.5Q831 618 831 647V863Q831 892 852.0 913.5Q873 935 902 935Z" style="fill:#00a6ed;stroke:none" transform="scale(1,-1) translate(0,-256)" /></svg>