<?xml version="1.0" encoding="utf-8" ?>
<svg baseProfile="full" height="256" version="1.1" width="256" xmlns="http://www.w3.org/2000/svg" xmlns:ev="http://www.w3.org/2001/xml-events" xmlns:xlink="http://www.w3.org/1999/xlink"><defs /><path d="M903 36Q903 14 894.5 -5.5Q886 -25 871.0 -40.0Q856 -55 836.5 -63.5Q817 -72 795 -72Q773 -72 753.5 -63.5Q734 -55 719.0 -40.0Q704 -25 695.5 -5.5Q687 14 687 36Q687 58 695.5 78.0Q704 98 718.5 112.5Q733 127 752.5 135.5Q772 144 795 144Q817 144 837.0 135.5Q857 127 871.5 112.5Q886 98 894.5 78.0Q903 58 903 36ZM1514 -72Q1536 -72 1555.5 -63.5Q1575 -55 1590.0 -40.0Q1605 -25 1613.5 -5.5Q1622 14 1622 36Q1622 58 1613.5 77.5Q1605 97 1590.0 112.0Q1575 127 1555.5 135.5Q1536 144 1514 144Q1491 144 1471.5 135.5Q1452 127 1437.5 112.5Q1423 98 1414.5 78.0Q1406 58 1406 36Q1406 14 1414.5 -5.5Q1423 -25 1438.0 -40.0Q1453 -55 1472.5 -63.5Q1492 -72 1514 -72ZM2017 -72Q2039 -72 2058.5 -63.5Q2078 -55 2093.0 -40.0Q2108 -25 2116.5 -5.5Q2125 14 2125 36Q2125 58 2116.5 77.5Q2108 97 2093.0 112.0Q2078 127 2058.5 135.5Q2039 144 2017 144Q1994 144 1974.5 135.5Q1955 127 1940.5 112.5Q1926 98 1917.5 78.0Q1909 58 1909 36Q1909 14 1917.5 -5.5Q1926 -25 1941.0 -40.0Q1956 -55 1975.5 -63.5Q1995 -72 2017 -72Z" style="fill:#f4f4f4;stroke:none" transform="scale(1,-1) translate(0,-256)" /></svg>