<?xml version="1.0" encoding="utf-8" ?>
<svg baseProfile="full" height="256" version="1.1" width="256" xmlns="http://www.w3.org/2000/svg" xmlns:ev="http://www.w3.org/2001/xml-events" xmlns:xlink="http://www.w3.org/1999/xlink"><defs /><path d="M1047 36Q1047 -16 1027.0 -62.0Q1007 -108 973.0 -142.0Q939 -176 893.0 -195.5Q847 -215 795 -215Q743 -215 697.0 -195.5Q651 -176 617.0 -142.0Q583 -108 563.0 -62.0Q543 -16 543 36Q543 88 563.0 134.0Q583 180 617.0 214.0Q651 248 697.0 268.0Q743 288 795 288Q847 288 893.0 268.0Q939 248 973.0 214.0Q1007 180 1027.0 134.0Q1047 88 1047 36ZM1514 -215Q1564 -215 1608.5 -196.5Q1653 -178 1687.0 -146.0Q1721 -114 1741.5 -70.5Q1762 -27 1765 23Q1768 -27 1788.5 -70.5Q1809 -114 1843.0 -146.0Q1877 -178 1921.5 -196.5Q1966 -215 2016 -215Q2068 -215 2114.0 -195.5Q2160 -176 2194.0 -142.0Q2228 -108 2248.0 -62.0Q2268 -16 2268 36Q2268 88 2248.0 134.0Q2228 180 2194.0 214.0Q2160 248 2114.0 268.0Q2068 288 2016 288Q1966 288 1921.5 269.5Q1877 251 1843.0 219.0Q1809 187 1788.5 143.5Q1768 100 1765 50Q1762 100 1741.5 143.5Q1721 187 1687.0 219.0Q1653 251 1608.5 269.5Q1564 288 1514 288Q1462 288 1416.0 268.0Q1370 248 1336.0 214.0Q1302 180 1282.0 134.0Q1262 88 1262 36Q1262 -16 1282.0 -62.0Q1302 -108 1336.0 -142.0Q1370 -176 1416.0 -195.5Q1462 -215 1514 -215Z" style="fill:#321b41;stroke:none" transform="scale(1,-1) translate(0,-256)" /></svg>