<?xml version="1.0" encoding="utf-8" ?>
<svg baseProfile="full" height="256" version="1.1" width="256" xmlns="http://www.w3.org/2000/svg" xmlns:ev="http://www.w3.org/2001/xml-events" xmlns:xlink="http://www.w3.org/1999/xlink"><defs /><path d="M1509 360H1375Q1358 360 1346.0 372.0Q1334 384 1334 401V1253Q1334 1270 1346.0 1282.0Q1358 1294 1375 1294H1509Q1526 1294 1538.0 1282.0Q1550 1270 1550 1253V401Q1550 384 1538.0 372.0Q1526 360 1509 360ZM1868 360H1734Q1717 360 1705.0 372.0Q1693 384 1693 401V1253Q1693 1270 1705.0 1282.0Q1717 1294 1734 1294H1868Q1885 1294 1897.0 1282.0Q1909 1270 1909 1253V401Q1909 384 1897.0 372.0Q1885 360 1868 360ZM2094 360H2227Q2244 360 2256.0 372.0Q2268 384 2268 401V1253Q2268 1270 2256.0 1282.0Q2244 1294 2227 1294H2094Q2077 1294 2065.0 1282.0Q2053 1270 2053 1253V401Q2053 384 2065.0 372.0Q2077 360 2094 360Z" style="fill:#f4f4f4;stroke:none" transform="scale(1,-1) translate(0,-256)" /></svg>