<?xml version="1.0" encoding="utf-8" ?>
<svg baseProfile="full" height="256" version="1.1" width="256" xmlns="http://www.w3.org/2000/svg" xmlns:ev="http://www.w3.org/2001/xml-events" xmlns:xlink="http://www.w3.org/1999/xlink"><defs /><path d="M1909 719Q1909 615 1869.5 523.0Q1830 431 1761.5 363.0Q1693 295 1601.5 255.5Q1510 216 1406 216Q1302 216 1210.0 255.5Q1118 295 1050.0 363.0Q982 431 942.5 523.0Q903 615 903 719Q903 823 942.5 914.5Q982 1006 1050.0 1074.5Q1118 1143 1210.0 1182.5Q1302 1222 1406 1222Q1510 1222 1601.5 1182.5Q1693 1143 1761.5 1074.5Q1830 1006 1869.5 914.5Q1909 823 1909 719Z" style="fill:#e6e6e6;stroke:none" transform="scale(1,-1) translate(0,-256)" /></svg>