<?xml version="1.0" encoding="utf-8" ?>
<svg baseProfile="full" height="256" version="1.1" width="256" xmlns="http://www.w3.org/2000/svg" xmlns:ev="http://www.w3.org/2001/xml-events" xmlns:xlink="http://www.w3.org/1999/xlink"><defs /><path d="M1226 827Q1226 920 1269.0 963.0Q1312 1006 1406 1006Q1500 1006 1543.0 965.5Q1586 925 1586 830Q1586 798 1573.5 769.0Q1561 740 1535 720Q1569 695 1577.5 656.5Q1586 618 1586 579Q1586 539 1571.0 511.0Q1556 483 1531.0 465.0Q1506 447 1473.5 439.0Q1441 431 1406 431Q1371 431 1339.0 438.5Q1307 446 1281.5 463.5Q1256 481 1241.0 508.5Q1226 536 1226 575Q1226 614 1235.0 653.5Q1244 693 1278 718Q1252 735 1239.0 765.5Q1226 796 1226 827ZM1502 845Q1502 887 1474.0 911.0Q1446 935 1406 935Q1365 935 1339.0 911.0Q1313 887 1313 845Q1313 803 1339.0 779.0Q1365 755 1406 755Q1446 755 1474.0 779.0Q1502 803 1502 845ZM1502 593Q1502 635 1474.5 659.0Q1447 683 1406 683Q1365 683 1339.0 659.0Q1313 635 1313 593Q1313 551 1339.0 527.0Q1365 503 1406 503Q1446 503 1474.0 527.0Q1502 551 1502 593Z" style="fill:#212121;stroke:none" transform="scale(1,-1) translate(0,-256)" /></svg>