<?xml version="1.0" encoding="utf-8" ?>
<svg baseProfile="full" height="256" version="1.1" width="256" xmlns="http://www.w3.org/2000/svg" xmlns:ev="http://www.w3.org/2001/xml-events" xmlns:xlink="http://www.w3.org/1999/xlink"><defs /><path d="M1636 1190Q1636 1167 1620.0 1151.0Q1604 1135 1581 1135Q1558 1135 1542.0 1151.0Q1526 1167 1526 1190Q1526 1213 1542.0 1229.5Q1558 1246 1581 1246Q1604 1246 1620.0 1229.5Q1636 1213 1636 1190ZM1231 1135Q1254 1135 1270.0 1151.0Q1286 1167 1286 1190Q1286 1213 1270.0 1229.5Q1254 1246 1231 1246Q1208 1246 1191.5 1229.5Q1175 1213 1175 1190Q1175 1167 1191.5 1151.0Q1208 1135 1231 1135ZM1829 1034Q1829 1011 1813.0 995.0Q1797 979 1774 979Q1751 979 1735.0 995.0Q1719 1011 1719 1034Q1719 1057 1735.0 1073.5Q1751 1090 1774 1090Q1797 1090 1813.0 1073.5Q1829 1057 1829 1034ZM1038 979Q1061 979 1077.0 995.0Q1093 1011 1093 1034Q1093 1057 1077.0 1073.5Q1061 1090 1038 1090Q1015 1090 998.5 1073.5Q982 1057 982 1034Q982 1011 998.5 995.0Q1015 979 1038 979ZM1406 916Q1429 916 1445.0 932.0Q1461 948 1461 971Q1461 994 1445.0 1010.5Q1429 1027 1406 1027Q1383 1027 1366.5 1010.5Q1350 994 1350 971Q1350 948 1366.5 932.0Q1383 916 1406 916Z" style="fill:#fff3d7;stroke:none" transform="scale(1,-1) translate(0,-256)" /></svg>