<?xml version="1.0" encoding="utf-8" ?>
<svg baseProfile="full" height="256" version="1.1" width="256" xmlns="http://www.w3.org/2000/svg" xmlns:ev="http://www.w3.org/2001/xml-events" xmlns:xlink="http://www.w3.org/1999/xlink"><defs /><path d="M951 851Q1027 851 1093.5 833.5Q1160 816 1226 778Q1272 751 1313.0 740.0Q1354 729 1407 729Q1436 729 1458.5 731.5Q1481 734 1501.5 740.0Q1522 746 1542.5 755.5Q1563 765 1588 778Q1624 797 1656.0 811.0Q1688 825 1720.0 834.0Q1752 843 1787.0 847.0Q1822 851 1863 851Q1904 851 1938.5 847.0Q1973 843 2005.5 834.0Q2038 825 2069.5 811.0Q2101 797 2137 778Q2162 765 2182.5 755.5Q2203 746 2223.5 740.0Q2244 734 2266.5 731.5Q2289 729 2318 729Q2360 729 2389.0 700.0Q2418 671 2418 629Q2418 587 2389.0 558.0Q2360 529 2318 529Q2242 529 2175.5 546.0Q2109 563 2043 601Q2020 614 1999.0 623.5Q1978 633 1957.0 639.0Q1936 645 1913.0 648.0Q1890 651 1863 651Q1833 651 1810.5 648.0Q1788 645 1768.0 639.0Q1748 633 1727.5 623.5Q1707 614 1682 601Q1646 582 1614.0 568.5Q1582 555 1550.0 546.0Q1518 537 1483.5 533.0Q1449 529 1407 529Q1330 529 1263.5 546.0Q1197 563 1131 601Q1108 614 1087.0 623.5Q1066 633 1045.0 639.0Q1024 645 1001.0 648.0Q978 651 951 651Q924 651 901.0 648.0Q878 645 856.5 639.0Q835 633 814.0 623.5Q793 614 770 601Q704 563 637.5 546.0Q571 529 495 529Q453 529 424.0 558.0Q395 587 395 629Q395 671 424.0 700.0Q453 729 495 729Q524 729 546.5 731.5Q569 734 589.5 740.0Q610 746 630.5 755.5Q651 765 676 778Q712 797 744.0 811.0Q776 825 808.0 834.0Q840 843 875.0 847.0Q910 851 951 851Z" style="fill:#44911b;stroke:none" transform="scale(1,-1) translate(0,-256)" /></svg>