<?xml version="1.0" encoding="utf-8" ?>
<svg baseProfile="full" height="256" version="1.1" width="256" xmlns="http://www.w3.org/2000/svg" xmlns:ev="http://www.w3.org/2001/xml-events" xmlns:xlink="http://www.w3.org/1999/xlink"><defs /><path d="M2042 -266H770Q732 -266 698.0 -251.5Q664 -237 639.0 -212.0Q614 -187 599.5 -153.0Q585 -119 585 -81V62L1132 117Q1172 121 1205.0 125.5Q1238 130 1269.0 134.0Q1300 138 1333.0 141.0Q1366 144 1406 144Q1446 144 1479.0 141.0Q1512 138 1543.5 134.0Q1575 130 1607.5 125.5Q1640 121 1680 117L2229 62V-80Q2229 -118 2214.0 -152.0Q2199 -186 2173.5 -211.5Q2148 -237 2114.0 -251.5Q2080 -266 2042 -266Z" style="fill:#e19747;stroke:none" transform="scale(1,-1) translate(0,-256)" /></svg>