<?xml version="1.0" encoding="utf-8" ?>
<svg baseProfile="full" height="256" version="1.1" width="256" xmlns="http://www.w3.org/2000/svg" xmlns:ev="http://www.w3.org/2001/xml-events" xmlns:xlink="http://www.w3.org/1999/xlink"><defs /><path d="M1641 1366Q1723 1366 1799.5 1344.5Q1876 1323 1942.5 1284.0Q2009 1245 2063.5 1190.5Q2118 1136 2157.0 1069.5Q2196 1003 2217.5 926.5Q2239 850 2239 768V673H574V768Q574 850 595.5 926.5Q617 1003 656.0 1069.5Q695 1136 749.5 1190.5Q804 1245 870.5 1284.0Q937 1323 1013.0 1344.5Q1089 1366 1172 1366H1641Z" style="fill:#f3ad61;stroke:none" transform="scale(1,-1) translate(0,-256)" /></svg>