<?xml version="1.0" encoding="utf-8" ?>
<svg baseProfile="full" height="256" version="1.1" width="256" xmlns="http://www.w3.org/2000/svg" xmlns:ev="http://www.w3.org/2001/xml-events" xmlns:xlink="http://www.w3.org/1999/xlink"><defs /><path d="M2291 719Q2291 597 2259.5 484.0Q2228 371 2170.5 272.5Q2113 174 2032.0 93.0Q1951 12 1852.5 -45.5Q1754 -103 1641.0 -134.5Q1528 -166 1406 -166Q1284 -166 1171.0 -134.5Q1058 -103 959.5 -45.5Q861 12 780.0 93.0Q699 174 641.5 272.5Q584 371 552.5 484.0Q521 597 521 719Q521 841 552.5 954.0Q584 1067 641.5 1165.5Q699 1264 780.0 1345.0Q861 1426 959.5 1483.5Q1058 1541 1171.0 1572.5Q1284 1604 1406 1604Q1528 1604 1641.0 1572.5Q1754 1541 1852.5 1483.5Q1951 1426 2032.0 1345.0Q2113 1264 2170.5 1165.5Q2228 1067 2259.5 954.0Q2291 841 2291 719Z" style="fill:#e6e6e6;stroke:none" transform="scale(1,-1) translate(0,-256)" /></svg>