<?xml version="1.0" encoding="utf-8" ?>
<svg baseProfile="full" height="256" version="1.1" width="256" xmlns="http://www.w3.org/2000/svg" xmlns:ev="http://www.w3.org/2001/xml-events" xmlns:xlink="http://www.w3.org/1999/xlink"><defs /><path d="M543 719Q543 837 575.0 950.5Q607 1064 668 1165L939 1294L1173 1550Q1285 1581 1406 1581Q1491 1581 1574.5 1564.5Q1658 1548 1736 1516L1875 1248Q1885 1228 1892.5 1211.5Q1900 1195 1907.5 1179.5Q1915 1164 1923.5 1148.0Q1932 1132 1945 1114Q1958 1096 1970.5 1083.0Q1983 1070 1996.0 1058.5Q2009 1047 2022.5 1035.0Q2036 1023 2052 1007L2265 794Q2268 756 2268 719V575Q2268 545 2257.0 519.0Q2246 493 2226.5 473.5Q2207 454 2181.0 442.5Q2155 431 2125 431H687Q657 431 631.0 442.5Q605 454 585.5 473.5Q566 493 554.5 519.0Q543 545 543 575Z" style="fill:#f8312f;stroke:none" transform="scale(1,-1) translate(0,-256)" /></svg>