<?xml version="1.0" encoding="utf-8" ?>
<svg baseProfile="full" height="256" version="1.1" width="256" xmlns="http://www.w3.org/2000/svg" xmlns:ev="http://www.w3.org/2001/xml-events" xmlns:xlink="http://www.w3.org/1999/xlink"><defs /><path d="M1102 1273Q1087 1250 1062.5 1236.0Q1038 1222 1010 1222Q987 1222 967.5 1230.5Q948 1239 934.0 1253.5Q920 1268 911.5 1287.5Q903 1307 903 1330Q903 1347 907.0 1360.0Q911 1373 919 1387Q919 1388 919.5 1388.0Q920 1388 920 1389Q931 1402 940.0 1415.5Q949 1429 960 1443Q1010 1506 1072.5 1558.0Q1135 1610 1206.0 1647.0Q1277 1684 1355.0 1704.5Q1433 1725 1514 1725Q1596 1725 1673.5 1702.5Q1751 1680 1819.0 1639.5Q1887 1599 1943.0 1543.0Q1999 1487 2039.5 1419.0Q2080 1351 2102.5 1273.5Q2125 1196 2125 1114V-179Q2125 -201 2116.5 -220.5Q2108 -240 2093.0 -255.0Q2078 -270 2058.5 -278.5Q2039 -287 2017 -287Q1994 -287 1974.5 -278.5Q1955 -270 1940.5 -255.5Q1926 -241 1917.5 -221.5Q1909 -202 1909 -179V1114Q1909 1193 1877.0 1264.5Q1845 1336 1790.5 1390.5Q1736 1445 1664.5 1477.5Q1593 1510 1514 1510Q1457 1510 1402.5 1494.5Q1348 1479 1298.5 1452.0Q1249 1425 1205.5 1388.0Q1162 1351 1127 1307Q1121 1299 1113.5 1290.0Q1106 1281 1102 1272Z" style="fill:#6d4534;stroke:none" transform="scale(1,-1) translate(0,-256)" /></svg>