<?xml version="1.0" encoding="utf-8" ?>
<svg baseProfile="full" height="256" version="1.1" width="256" xmlns="http://www.w3.org/2000/svg" xmlns:ev="http://www.w3.org/2001/xml-events" xmlns:xlink="http://www.w3.org/1999/xlink"><defs /><path d="M2053 396Q2053 344 2033.0 298.0Q2013 252 1979.0 218.0Q1945 184 1899.0 164.0Q1853 144 1801 144Q1749 144 1703.0 164.0Q1657 184 1623.0 218.0Q1589 252 1569.5 298.0Q1550 344 1550 396Q1550 448 1570.0 493.5Q1590 539 1624.0 573.0Q1658 607 1703.5 627.0Q1749 647 1801 647Q1853 647 1898.5 627.0Q1944 607 1978.5 573.0Q2013 539 2033.0 493.5Q2053 448 2053 396Z" style="fill:#bebebe;stroke:none" transform="scale(1,-1) translate(0,-256)" /></svg>