<?xml version="1.0" encoding="utf-8" ?>
<svg baseProfile="full" height="256" version="1.1" width="256" xmlns="http://www.w3.org/2000/svg" xmlns:ev="http://www.w3.org/2001/xml-events" xmlns:xlink="http://www.w3.org/1999/xlink"><defs /><path d="M1334 539Q1334 472 1308.5 413.5Q1283 355 1239.0 311.0Q1195 267 1136.5 241.5Q1078 216 1011 216Q944 216 885.0 241.5Q826 267 782.0 311.0Q738 355 712.5 413.5Q687 472 687 539Q687 606 712.5 665.0Q738 724 782.0 768.0Q826 812 885.0 837.5Q944 863 1011 863Q1078 863 1136.5 837.5Q1195 812 1239.0 768.0Q1283 724 1308.5 665.0Q1334 606 1334 539Z" style="fill:#26eafc;stroke:none" transform="scale(1,-1) translate(0,-256)" /></svg>