<?xml version="1.0" encoding="utf-8" ?>
<svg baseProfile="full" height="256" version="1.1" width="256" xmlns="http://www.w3.org/2000/svg" xmlns:ev="http://www.w3.org/2001/xml-events" xmlns:xlink="http://www.w3.org/1999/xlink"><defs /><path d="M903 -72Q903 -68 894.5 -56.5Q886 -45 875.5 -32.5Q865 -20 854.5 -9.0Q844 2 841 6Q830 20 820.0 34.5Q810 49 800 63Q767 116 745.5 174.0Q724 232 711.0 292.5Q698 353 692.5 415.5Q687 478 687 539H1334Q1334 478 1328.5 415.5Q1323 353 1310.0 292.5Q1297 232 1275.5 174.0Q1254 116 1221 63Q1211 49 1201.0 34.5Q1191 20 1180 6Q1177 2 1166.5 -9.0Q1156 -20 1145.5 -32.5Q1135 -45 1126.5 -56.5Q1118 -68 1118 -72V-108Q1118 -113 1124.0 -115.5Q1130 -118 1138.0 -119.0Q1146 -120 1153.0 -120.5Q1160 -121 1162 -121Q1203 -125 1235.0 -134.0Q1267 -143 1289.0 -161.5Q1311 -180 1322.5 -210.5Q1334 -241 1334 -287H1154Q1136 -287 1111.5 -277.5Q1087 -268 1065.0 -253.0Q1043 -238 1027.5 -218.5Q1012 -199 1011 -179Q1010 -200 994.5 -219.5Q979 -239 956.5 -254.0Q934 -269 909.5 -278.0Q885 -287 867 -287H687Q687 -241 698.5 -210.5Q710 -180 732.0 -161.5Q754 -143 786.0 -133.5Q818 -124 859 -121Q861 -121 868.0 -121.0Q875 -121 883.0 -119.5Q891 -118 897.0 -115.5Q903 -113 903 -108Z" style="fill:#00a6ed;stroke:none" transform="scale(1,-1) translate(0,-256)" /></svg>