<?xml version="1.0" encoding="utf-8" ?>
<svg baseProfile="full" height="256" version="1.1" width="256" xmlns="http://www.w3.org/2000/svg" xmlns:ev="http://www.w3.org/2001/xml-events" xmlns:xlink="http://www.w3.org/1999/xlink"><defs /><path d="M2415 611V218Q2415 204 2408.0 191.0Q2401 178 2387 171L1495 -267Q1453 -287 1408 -287Q1363 -287 1321 -267L429 171Q415 178 407.5 190.5Q400 203 400 218V611H499V585L1385 1093Q1385 1095 1386.5 1101.0Q1388 1107 1390.0 1113.5Q1392 1120 1394.5 1125.0Q1397 1130 1401 1130Q1405 1130 1408.5 1125.0Q1412 1120 1416.0 1113.5Q1420 1107 1423.5 1101.0Q1427 1095 1431 1093L2317 585V611Z" style="fill:#321b41;stroke:none" transform="scale(1,-1) translate(0,-256)" /></svg>