<?xml version="1.0" encoding="utf-8" ?>
<svg baseProfile="full" height="256" version="1.1" width="256" xmlns="http://www.w3.org/2000/svg" xmlns:ev="http://www.w3.org/2001/xml-events" xmlns:xlink="http://www.w3.org/1999/xlink"><defs /><path d="M1716 630Q1716 634 1720.5 642.5Q1725 651 1732.0 659.5Q1739 668 1746.0 674.0Q1753 680 1759 680Q1767 680 1771.5 675.0Q1776 670 1776 663Q1776 659 1771.5 650.5Q1767 642 1760.0 634.0Q1753 626 1746.0 619.5Q1739 613 1733 613Q1726 613 1721.0 618.0Q1716 623 1716 630ZM1880 635Q1880 641 1885.0 645.0Q1890 649 1896 649Q1907 649 1918.5 645.5Q1930 642 1941 640Q1954 637 1954 623Q1954 607 1938 607Q1927 607 1915.5 610.5Q1904 614 1893 616Q1880 619 1880 635ZM1735 520Q1735 513 1731.0 508.0Q1727 503 1719 503Q1708 503 1696.5 505.0Q1685 507 1674 509Q1668 510 1664.0 515.0Q1660 520 1660 526Q1660 534 1665.0 538.5Q1670 543 1677 543Q1681 543 1690.5 542.5Q1700 542 1710.0 539.5Q1720 537 1727.5 532.5Q1735 528 1735 520ZM1639 378Q1639 381 1641.5 390.0Q1644 399 1648.5 408.5Q1653 418 1659.5 425.5Q1666 433 1673 433Q1681 433 1685.5 428.0Q1690 423 1690 416Q1690 406 1683.0 393.0Q1676 380 1672 371Q1667 361 1656 361Q1639 361 1639 378ZM1458 334Q1458 350 1474 350Q1485 350 1496.5 346.5Q1508 343 1519 341Q1532 338 1532 324Q1532 308 1516 308Q1505 308 1493.5 311.5Q1482 315 1471 317Q1458 320 1458 334ZM1880 465Q1873 465 1868.0 469.5Q1863 474 1863 481Q1863 486 1868.5 494.0Q1874 502 1881.5 509.5Q1889 517 1897.0 522.0Q1905 527 1910 527Q1926 527 1926 511Q1926 506 1920.5 498.0Q1915 490 1907.5 482.5Q1900 475 1892.5 470.0Q1885 465 1880 465ZM1590 609Q1590 604 1585.0 596.5Q1580 589 1572.5 581.5Q1565 574 1557.0 568.5Q1549 563 1544 563Q1537 563 1532.0 567.5Q1527 572 1527 580Q1527 585 1532.5 593.0Q1538 601 1545.5 608.5Q1553 616 1560.5 621.0Q1568 626 1573 626Q1580 626 1585.0 621.0Q1590 616 1590 609ZM2136 572Q2136 565 2131.0 559.5Q2126 554 2119 554Q2115 554 2106.5 558.5Q2098 563 2090.0 570.0Q2082 577 2075.5 584.0Q2069 591 2069 597Q2069 604 2073.5 609.0Q2078 614 2085 614Q2089 614 2098.0 609.5Q2107 605 2115.0 598.5Q2123 592 2129.5 585.0Q2136 578 2136 572ZM1473 490Q1473 485 1467.0 477.5Q1461 470 1453.5 463.0Q1446 456 1437.5 451.0Q1429 446 1425 446Q1418 446 1413.0 451.0Q1408 456 1408 463Q1408 469 1414.0 476.5Q1420 484 1428.0 490.5Q1436 497 1444.0 502.0Q1452 507 1457 507Q1473 507 1473 490ZM1271 372Q1271 379 1276.0 384.0Q1281 389 1288 389Q1299 389 1304 378Q1307 371 1314.0 355.5Q1321 340 1321 333Q1321 326 1316.5 321.0Q1312 316 1305 316Q1293 316 1288 327Q1285 335 1278.0 349.5Q1271 364 1271 372Z" style="fill:#d3d3d3;stroke:none" transform="scale(1,-1) translate(0,-256)" /></svg>