<?xml version="1.0" encoding="utf-8" ?>
<svg baseProfile="full" height="256" version="1.1" width="256" xmlns="http://www.w3.org/2000/svg" xmlns:ev="http://www.w3.org/2001/xml-events" xmlns:xlink="http://www.w3.org/1999/xlink"><defs /><path d="M1840 728Q1858 728 1888.5 726.0Q1919 724 1951.5 720.0Q1984 716 2013.0 710.5Q2042 705 2057 698Q2101 677 2144.0 655.5Q2187 634 2231 613Q2241 609 2241 596Q2241 583 2231 578L1447 195Q1431 187 1415 187Q1406 187 1385.0 195.0Q1364 203 1336.0 216.0Q1308 229 1277.0 244.5Q1246 260 1217.5 274.5Q1189 289 1166.5 300.5Q1144 312 1133 318Q1192 409 1268.5 484.5Q1345 560 1435.0 614.0Q1525 668 1627.0 698.0Q1729 728 1840 728Z" style="fill:#f4f4f4;stroke:none" transform="scale(1,-1) translate(0,-256)" /></svg>