<?xml version="1.0" encoding="utf-8" ?>
<svg baseProfile="full" height="256" version="1.1" width="256" xmlns="http://www.w3.org/2000/svg" xmlns:ev="http://www.w3.org/2001/xml-events" xmlns:xlink="http://www.w3.org/1999/xlink"><defs /><path d="M1408 952Q1425 952 1440.5 958.0Q1456 964 1471.5 970.5Q1487 977 1504.0 983.0Q1521 989 1542 989Q1577 989 1608.5 976.0Q1640 963 1663.5 940.0Q1687 917 1701.0 886.0Q1715 855 1715 820Q1715 812 1714.5 805.5Q1714 799 1713 792L1437 656Q1421 648 1405 648Q1389 648 1373 656L1104 789Q1101 801 1101 815Q1101 852 1114.5 883.5Q1128 915 1151.0 938.5Q1174 962 1206.0 975.5Q1238 989 1276 989Q1297 989 1313.5 983.0Q1330 977 1345.5 970.5Q1361 964 1376.0 958.0Q1391 952 1408 952Z" style="fill:#86d72f;stroke:none" transform="scale(1,-1) translate(0,-256)" /></svg>