<?xml version="1.0" encoding="utf-8" ?>
<svg baseProfile="full" height="256" version="1.1" width="256" xmlns="http://www.w3.org/2000/svg" xmlns:ev="http://www.w3.org/2001/xml-events" xmlns:xlink="http://www.w3.org/1999/xlink"><defs /><path d="M1408 1116Q1447 1116 1483 1098L2387 655Q2401 648 2408.0 635.5Q2415 623 2415 608Q2415 594 2408.0 581.5Q2401 569 2387 562L1495 124Q1453 104 1408 104Q1363 104 1321 124L429 562Q415 569 407.5 581.5Q400 594 400 608Q400 640 429 655L1332 1098Q1368 1116 1408 1116ZM1030 837Q1030 825 1041 820L1373 656Q1389 648 1405 648Q1421 648 1437 656L1769 820Q1779 825 1779 837Q1779 849 1769 854L1433 1019Q1417 1026 1405 1026Q1397 1026 1390.5 1024.0Q1384 1022 1377 1019L1041 854Q1030 848 1030 837ZM1040 376Q1040 364 1051 359L1383 196Q1399 188 1415 188Q1431 188 1447 196L2231 579Q2241 584 2241 596Q2241 608 2231 613L1895 779Q1881 785 1867 785Q1851 785 1839 779L1051 393Q1040 387 1040 376ZM574 602Q574 590 585 585L916 422Q932 414 948 414Q965 414 981 422L1312 585Q1323 590 1323 602Q1323 615 1312 620L976 785Q969 788 962.5 790.0Q956 792 948 792Q936 792 920 785L585 620Q574 615 574 602Z" style="fill:#635994;stroke:none" transform="scale(1,-1) translate(0,-256)" /></svg>