<?xml version="1.0" encoding="utf-8" ?>
<svg baseProfile="full" height="256" version="1.1" width="256" xmlns="http://www.w3.org/2000/svg" xmlns:ev="http://www.w3.org/2001/xml-events" xmlns:xlink="http://www.w3.org/1999/xlink"><defs /><path d="M1397 150Q1448 150 1492.0 161.0Q1536 172 1581 194Q1587 196 1590 196Q1598 196 1604.5 190.5Q1611 185 1611 177Q1611 172 1607 166Q1573 113 1516.5 83.5Q1460 54 1397 54Q1335 54 1277.5 83.5Q1220 113 1186 166Q1183 170 1183 177Q1183 185 1189.0 190.5Q1195 196 1203 196Q1207 196 1213 194Q1259 173 1302.5 161.5Q1346 150 1397 150Z" style="fill:#990839;stroke:none" transform="scale(1,-1) translate(0,-256)" /></svg>