<?xml version="1.0" encoding="utf-8" ?>
<svg baseProfile="full" height="256" version="1.1" width="256" xmlns="http://www.w3.org/2000/svg" xmlns:ev="http://www.w3.org/2001/xml-events" xmlns:xlink="http://www.w3.org/1999/xlink"><defs /><path d="M898 1141Q898 1109 884.0 1080.0Q870 1051 845 1031H846L746 949Q719 927 719 893V642Q689 642 667.0 662.5Q645 683 643 713L614 1121Q614 1126 613.0 1131.0Q612 1136 612 1141Q612 1171 623.0 1197.0Q634 1223 653.5 1242.5Q673 1262 699.0 1273.0Q725 1284 755 1284Q785 1284 811.0 1273.0Q837 1262 856.5 1242.5Q876 1223 887.0 1197.0Q898 1171 898 1141ZM1896 1141Q1896 1109 1909.5 1080.0Q1923 1051 1948 1031L2048 949Q2074 928 2074 893V642Q2104 642 2126.5 662.5Q2149 683 2151 713L2180 1121Q2180 1126 2180.5 1131.0Q2181 1136 2181 1141Q2181 1170 2170.0 1196.0Q2159 1222 2139.5 1241.5Q2120 1261 2094.5 1272.5Q2069 1284 2039 1284Q2009 1284 1983.0 1273.0Q1957 1262 1937.5 1242.5Q1918 1223 1907.0 1197.0Q1896 1171 1896 1141Z" style="fill:#9b9b9b;stroke:none" transform="scale(1,-1) translate(0,-256)" /></svg>