<?xml version="1.0" encoding="utf-8" ?>
<svg baseProfile="full" height="256" version="1.1" width="256" xmlns="http://www.w3.org/2000/svg" xmlns:ev="http://www.w3.org/2001/xml-events" xmlns:xlink="http://www.w3.org/1999/xlink"><defs /><path d="M1272 357Q1272 369 1281.5 403.0Q1291 437 1304.0 476.5Q1317 516 1329.0 552.5Q1341 589 1346 604Q1351 621 1365.5 631.0Q1380 641 1397 641Q1415 641 1429.0 631.0Q1443 621 1448 604L1518 378Q1520 373 1521.0 367.5Q1522 362 1522 356Q1522 327 1500.0 306.0Q1478 285 1449 285H1345Q1315 285 1293.5 306.0Q1272 327 1272 357Z" style="fill:#ed9200;stroke:none" transform="scale(1,-1) translate(0,-256)" /></svg>