<?xml version="1.0" encoding="utf-8" ?>
<svg baseProfile="full" height="256" version="1.1" width="256" xmlns="http://www.w3.org/2000/svg" xmlns:ev="http://www.w3.org/2001/xml-events" xmlns:xlink="http://www.w3.org/1999/xlink"><defs /><path d="M1457 1533Q1588 1533 1703.5 1484.5Q1819 1436 1905.5 1351.5Q1992 1267 2042.0 1153.0Q2092 1039 2092 907Q2092 894 2091.5 881.5Q2091 869 2090 856Q2077 670 2065.0 485.0Q2053 300 2040 114Q2034 30 1998.0 -43.0Q1962 -116 1904.5 -170.0Q1847 -224 1772.0 -254.5Q1697 -285 1613 -285H1187Q1100 -285 1025.0 -255.0Q950 -225 893.5 -171.5Q837 -118 802.0 -45.0Q767 28 760 114Q745 300 731.0 485.0Q717 670 703 856Q702 866 702.0 875.5Q702 885 702 895Q702 1027 751.5 1143.0Q801 1259 887.0 1346.0Q973 1433 1088.5 1483.0Q1204 1533 1336 1533Z" style="fill:#ffc83d;stroke:none" transform="scale(1,-1) translate(0,-256)" /></svg>