<?xml version="1.0" encoding="utf-8" ?>
<svg baseProfile="full" height="256" version="1.1" width="256" xmlns="http://www.w3.org/2000/svg" xmlns:ev="http://www.w3.org/2001/xml-events" xmlns:xlink="http://www.w3.org/1999/xlink"><defs /><path d="M895 928Q896 927 896.5 927.5Q897 928 896 929Q898 930 899.0 931.0Q900 932 902 934Q916 946 936.5 956.0Q957 966 974 973Q1040 999 1113 999Q1132 999 1153.5 997.0Q1175 995 1192.5 987.0Q1210 979 1221.5 964.0Q1233 949 1233 923Q1233 908 1227.0 895.5Q1221 883 1211.0 873.0Q1201 863 1188.0 857.5Q1175 852 1161 852Q1148 852 1135.5 854.0Q1123 856 1110 856Q1078 856 1045.0 847.5Q1012 839 986 819H985Q964 803 940 803Q911 803 890.5 823.5Q870 844 870 873Q870 889 876.5 903.5Q883 918 895 928ZM1674 999Q1654 999 1633.0 997.0Q1612 995 1594.5 987.0Q1577 979 1565.5 964.0Q1554 949 1554 923Q1554 894 1575.0 873.0Q1596 852 1625 852Q1638 852 1650.5 854.0Q1663 856 1677 856Q1709 856 1741.5 847.5Q1774 839 1800 819H1801Q1820 803 1846 803Q1875 803 1896.0 823.5Q1917 844 1917 873Q1917 895 1903.5 913.5Q1890 932 1868.5 946.0Q1847 960 1820.0 970.0Q1793 980 1766.0 986.5Q1739 993 1714.5 996.0Q1690 999 1674 999Z" style="fill:#9b9b9b;stroke:none" transform="scale(1,-1) translate(0,-256)" /></svg>