<?xml version="1.0" encoding="utf-8" ?>
<svg baseProfile="full" height="256" version="1.1" width="256" xmlns="http://www.w3.org/2000/svg" xmlns:ev="http://www.w3.org/2001/xml-events" xmlns:xlink="http://www.w3.org/1999/xlink"><defs /><path d="M1032 1006Q1038 1006 1042.5 1002.0Q1047 998 1047 992V805Q1047 799 1042.5 795.0Q1038 791 1032 791H831Q817 791 817 805V992Q817 1006 831 1006ZM1032 611Q1038 611 1042.5 607.0Q1047 603 1047 597V410Q1047 404 1042.5 400.0Q1038 396 1032 396H831Q817 396 817 410V597Q817 611 831 611ZM817 209Q817 223 831 223H1032Q1038 223 1042.5 219.0Q1047 215 1047 209V22Q1047 16 1042.5 11.5Q1038 7 1032 7H831Q825 7 821.0 11.5Q817 16 817 22ZM1507 1006Q1521 1006 1521 992V805Q1521 791 1507 791H1305Q1291 791 1291 805V992Q1291 1006 1305 1006ZM1291 597Q1291 611 1305 611H1507Q1521 611 1521 597V410Q1521 396 1507 396H1305Q1291 396 1291 410ZM1507 223Q1521 223 1521 209V22Q1521 16 1517.0 11.5Q1513 7 1507 7H1305Q1299 7 1295.0 11.5Q1291 16 1291 22V209Q1291 223 1305 223ZM1765 992Q1765 998 1769.5 1002.0Q1774 1006 1780 1006H1981Q1995 1006 1995 992V805Q1995 791 1981 791H1780Q1774 791 1769.5 795.0Q1765 799 1765 805ZM1981 223Q1995 223 1995 209V22Q1995 16 1991.0 11.5Q1987 7 1981 7H1780Q1774 7 1769.5 11.5Q1765 16 1765 22V209Q1765 215 1769.5 219.0Q1774 223 1780 223Z" style="fill:#998ea4;stroke:none" transform="scale(1,-1) translate(0,-256)" /></svg>