<?xml version="1.0" encoding="utf-8" ?>
<svg baseProfile="full" height="256" version="1.1" width="256" xmlns="http://www.w3.org/2000/svg" xmlns:ev="http://www.w3.org/2001/xml-events" xmlns:xlink="http://www.w3.org/1999/xlink"><defs /><path d="M2038 1725Q2116 1725 2184.0 1695.5Q2252 1666 2302.5 1615.5Q2353 1565 2382.5 1497.0Q2412 1429 2412 1351V1222H400V1351Q400 1428 429.0 1496.0Q458 1564 508.5 1615.0Q559 1666 627.0 1695.5Q695 1725 773 1725ZM1981 611Q1995 611 1995 597V410Q1995 396 1981 396H1780Q1774 396 1769.5 400.0Q1765 404 1765 410V597Q1765 603 1769.5 607.0Q1774 611 1780 611Z" style="fill:#0084ce;stroke:none" transform="scale(1,-1) translate(0,-256)" /></svg>