<?xml version="1.0" encoding="utf-8" ?>
<svg baseProfile="full" height="256" version="1.1" width="256" xmlns="http://www.w3.org/2000/svg" xmlns:ev="http://www.w3.org/2001/xml-events" xmlns:xlink="http://www.w3.org/1999/xlink"><defs /><path d="M1013 1682Q1037 1717 1074.0 1736.0Q1111 1755 1153 1755Q1195 1755 1232.5 1734.0Q1270 1713 1294 1680Q1317 1715 1355.0 1735.0Q1393 1755 1435 1755Q1477 1755 1514.0 1734.0Q1551 1713 1575 1680Q1599 1715 1636.0 1735.0Q1673 1755 1716 1755Q1750 1755 1781.5 1741.0Q1813 1727 1836.5 1703.0Q1860 1679 1874.0 1647.5Q1888 1616 1888 1582H1812Q1812 1600 1804.0 1617.5Q1796 1635 1782.5 1648.5Q1769 1662 1751.5 1670.5Q1734 1679 1716 1679Q1695 1679 1677.0 1670.5Q1659 1662 1646.0 1647.5Q1633 1633 1626.0 1614.5Q1619 1596 1619 1575Q1619 1546 1627.5 1529.0Q1636 1512 1648.0 1501.5Q1660 1491 1675.0 1485.0Q1690 1479 1702.0 1473.5Q1714 1468 1722.5 1460.0Q1731 1452 1731 1438Q1731 1421 1720.0 1410.5Q1709 1400 1692 1400Q1658 1400 1630.5 1417.0Q1603 1434 1583.5 1461.0Q1564 1488 1553.5 1520.0Q1543 1552 1543 1582H1532Q1532 1600 1523.5 1617.5Q1515 1635 1501.5 1648.5Q1488 1662 1470.5 1670.5Q1453 1679 1435 1679Q1414 1679 1396.0 1670.5Q1378 1662 1365.0 1647.5Q1352 1633 1345.0 1614.5Q1338 1596 1338 1575Q1338 1546 1346.5 1529.0Q1355 1512 1367.0 1501.5Q1379 1491 1394.0 1485.0Q1409 1479 1421.0 1473.5Q1433 1468 1441.5 1460.0Q1450 1452 1450 1438Q1450 1421 1439.0 1410.5Q1428 1400 1411 1400Q1377 1400 1349.5 1417.0Q1322 1434 1302.5 1461.0Q1283 1488 1272.5 1520.0Q1262 1552 1262 1582H1250Q1250 1600 1241.5 1617.5Q1233 1635 1219.5 1648.5Q1206 1662 1188.5 1670.5Q1171 1679 1153 1679Q1132 1679 1114.0 1670.5Q1096 1662 1083.0 1647.5Q1070 1633 1063.0 1614.5Q1056 1596 1056 1575Q1056 1546 1064.5 1529.0Q1073 1512 1085.0 1501.5Q1097 1491 1112.0 1485.5Q1127 1480 1139.0 1474.0Q1151 1468 1159.5 1460.0Q1168 1452 1168 1438Q1168 1421 1157.0 1410.5Q1146 1400 1129 1400Q1095 1400 1067.5 1417.0Q1040 1434 1020.5 1461.0Q1001 1488 990.5 1520.0Q980 1552 980 1582H971Q971 1600 963.0 1617.5Q955 1635 941.5 1648.5Q928 1662 910.5 1670.5Q893 1679 875 1679Q854 1679 836.0 1670.5Q818 1662 805.0 1647.5Q792 1633 785.0 1614.5Q778 1596 778 1575Q778 1546 786.5 1529.0Q795 1512 807.0 1501.5Q819 1491 834.0 1485.0Q849 1479 861.0 1473.5Q873 1468 881.5 1460.0Q890 1452 890 1438Q890 1421 879.0 1410.5Q868 1400 851 1400Q819 1400 792.0 1416.5Q765 1433 744.5 1458.5Q724 1484 712.5 1515.5Q701 1547 701 1576Q701 1612 714.5 1644.5Q728 1677 751.5 1701.5Q775 1726 806.5 1740.5Q838 1755 875 1755Q916 1755 953.0 1734.5Q990 1714 1013 1682Z" style="fill:#bebebe;stroke:none" transform="scale(1,-1) translate(0,-256)" /></svg>