<?xml version="1.0" encoding="utf-8" ?>
<svg baseProfile="full" height="256" version="1.1" width="256" xmlns="http://www.w3.org/2000/svg" xmlns:ev="http://www.w3.org/2001/xml-events" xmlns:xlink="http://www.w3.org/1999/xlink"><defs /><path d="M1967 1653Q2000 1653 2028.5 1640.5Q2057 1628 2078.5 1606.5Q2100 1585 2112.5 1556.5Q2125 1528 2125 1495V-201Q2125 -234 2112.5 -262.5Q2100 -291 2078.5 -312.5Q2057 -334 2028.5 -346.5Q2000 -359 1967 -359H1564Q1560 -359 1556.0 -359.0Q1552 -359 1548 -358Q1545 -359 1541.5 -359.0Q1538 -359 1535 -359H794Q758 -359 725.5 -347.5Q693 -336 668.5 -314.0Q644 -292 629.5 -261.5Q615 -231 615 -193V1494Q615 1527 627.5 1556.0Q640 1585 661.0 1606.5Q682 1628 711.0 1640.5Q740 1653 773 1653Z" style="fill:#b4acbc;stroke:none" transform="scale(1,-1) translate(0,-256)" /></svg>