<?xml version="1.0" encoding="utf-8" ?>
<svg baseProfile="full" height="256" version="1.1" width="256" xmlns="http://www.w3.org/2000/svg" xmlns:ev="http://www.w3.org/2001/xml-events" xmlns:xlink="http://www.w3.org/1999/xlink"><defs /><path d="M1904 1581H1967Q1985 1581 2000.5 1574.0Q2016 1567 2027.5 1555.5Q2039 1544 2046.0 1528.5Q2053 1513 2053 1495V-201Q2053 -219 2046.0 -234.5Q2039 -250 2027.5 -261.5Q2016 -273 2000.5 -280.0Q1985 -287 1967 -287H1564Q1528 -287 1503.0 -262.0Q1478 -237 1478 -201V205Q1478 216 1481 227L1820 1517Q1828 1546 1851.5 1563.5Q1875 1581 1904 1581Z" style="fill:#cdc4d6;stroke:none" transform="scale(1,-1) translate(0,-256)" /></svg>