<?xml version="1.0" encoding="utf-8" ?>
<svg baseProfile="full" height="256" version="1.1" width="256" xmlns="http://www.w3.org/2000/svg" xmlns:ev="http://www.w3.org/2001/xml-events" xmlns:xlink="http://www.w3.org/1999/xlink"><defs /><path d="M1801 1150Q1816 1150 1826.5 1139.5Q1837 1129 1837 1114Q1837 1099 1826.5 1088.5Q1816 1078 1801 1078H867Q852 1078 841.5 1088.5Q831 1099 831 1114Q831 1129 841.5 1139.5Q852 1150 867 1150ZM831 899Q831 913 842.0 924.0Q853 935 867 935H1801Q1815 935 1826.0 924.0Q1837 913 1837 899Q1837 884 1826.5 873.5Q1816 863 1801 863H867Q852 863 841.5 873.5Q831 884 831 899ZM1801 719Q1816 719 1826.5 708.5Q1837 698 1837 683Q1837 668 1826.5 657.5Q1816 647 1801 647H867Q852 647 841.5 657.5Q831 668 831 683Q831 698 841.5 708.5Q852 719 867 719ZM1370 503Q1385 503 1395.5 492.5Q1406 482 1406 467Q1406 453 1395.0 442.0Q1384 431 1370 431H867Q853 431 842.0 442.0Q831 453 831 467Q831 482 841.5 492.5Q852 503 867 503Z" style="fill:#998ea4;stroke:none" transform="scale(1,-1) translate(0,-256)" /></svg>