<?xml version="1.0" encoding="utf-8" ?>
<svg baseProfile="full" height="256" version="1.1" width="256" xmlns="http://www.w3.org/2000/svg" xmlns:ev="http://www.w3.org/2001/xml-events" xmlns:xlink="http://www.w3.org/1999/xlink"><defs /><path d="M1100 1725H1712Q1765 1725 1814.0 1705.0Q1863 1685 1901 1647L2334 1214Q2372 1176 2392.0 1127.0Q2412 1078 2412 1025V413Q2412 360 2392.0 311.0Q2372 262 2334 224L1901 -209Q1863 -247 1814.0 -267.0Q1765 -287 1712 -287H1100Q1047 -287 998.0 -267.0Q949 -247 911 -209L478 224Q440 262 420.0 311.0Q400 360 400 413V1025Q400 1078 420.0 1127.0Q440 1176 478 1214L911 1647Q949 1685 998.0 1705.0Q1047 1725 1100 1725Z" style="fill:#d3d3d3;stroke:none" transform="scale(1,-1) translate(0,-256)" /></svg>