<?xml version="1.0" encoding="utf-8" ?>
<svg baseProfile="full" height="256" version="1.1" width="256" xmlns="http://www.w3.org/2000/svg" xmlns:ev="http://www.w3.org/2001/xml-events" xmlns:xlink="http://www.w3.org/1999/xlink"><defs /><path d="M1159 1581H1652Q1705 1581 1754.5 1561.0Q1804 1541 1842 1503L2190 1155Q2228 1117 2248.0 1067.5Q2268 1018 2268 965V472Q2268 419 2248.0 370.0Q2228 321 2190 283L1842 -65Q1804 -103 1755.0 -123.5Q1706 -144 1652 -144H1159Q1105 -144 1056.5 -123.5Q1008 -103 970 -65L622 283Q584 321 563.5 369.5Q543 418 543 472V965Q543 1019 563.5 1068.0Q584 1117 622 1155L970 1503Q1008 1541 1057.0 1561.0Q1106 1581 1159 1581Z" style="fill:#f8312f;stroke:none" transform="scale(1,-1) translate(0,-256)" /></svg>