<?xml version="1.0" encoding="utf-8" ?>
<svg baseProfile="full" height="256" version="1.1" width="256" xmlns="http://www.w3.org/2000/svg" xmlns:ev="http://www.w3.org/2001/xml-events" xmlns:xlink="http://www.w3.org/1999/xlink"><defs /><path d="M400 874V1036Q400 1075 414.5 1108.5Q429 1142 454.5 1167.5Q480 1193 513.5 1207.5Q547 1222 586 1222H1037V1013Q1037 984 1026.0 959.0Q1015 934 996.0 915.0Q977 896 951.5 885.0Q926 874 898 874ZM1643 983Q1643 1004 1628.5 1018.0Q1614 1032 1593 1032L1420 1030Q1400 1030 1385.5 1015.0Q1371 1000 1371 980Q1371 960 1386.5 945.5Q1402 931 1422 931L1594 933Q1615 933 1629.0 947.5Q1643 962 1643 983ZM2412 5V-134Q2412 -164 2400.0 -192.0Q2388 -220 2368.0 -241.0Q2348 -262 2321.0 -274.5Q2294 -287 2263 -287Q2219 -287 2182.5 -262.0Q2146 -237 2129 -197H2054Q2037 -238 2000.5 -262.5Q1964 -287 1920 -287Q1875 -287 1838.5 -262.5Q1802 -238 1785 -197H1711Q1694 -238 1657.5 -262.5Q1621 -287 1576 -287Q1532 -287 1495.5 -262.5Q1459 -238 1442 -197H1367Q1350 -238 1313.5 -262.5Q1277 -287 1233 -287Q1188 -287 1151.5 -262.5Q1115 -238 1098 -197H1024Q1007 -238 970.5 -262.5Q934 -287 889 -287Q845 -287 808.5 -262.5Q772 -238 755 -197H680Q663 -238 626.5 -262.5Q590 -287 546 -287Q516 -287 489.5 -275.5Q463 -264 443.0 -244.0Q423 -224 411.5 -197.5Q400 -171 400 -141V5ZM1643 752Q1643 731 1629.0 716.5Q1615 702 1594 702L1422 699Q1402 699 1386.5 713.5Q1371 728 1371 748Q1371 768 1385.5 783.0Q1400 798 1420 798L1593 801Q1613 801 1628.0 786.5Q1643 772 1643 752Z" style="fill:#7d4533;stroke:none" transform="scale(1,-1) translate(0,-256)" /></svg>