<?xml version="1.0" encoding="utf-8" ?>
<svg baseProfile="full" height="256" version="1.1" width="256" xmlns="http://www.w3.org/2000/svg" xmlns:ev="http://www.w3.org/2001/xml-events" xmlns:xlink="http://www.w3.org/1999/xlink"><defs /><path d="M1430 1222Q1469 1222 1503.0 1207.5Q1537 1193 1562.5 1167.5Q1588 1142 1602.5 1108.5Q1617 1075 1617 1036Q1617 988 1616.5 941.5Q1616 895 1616 847Q1616 824 1615.0 800.0Q1614 776 1617 753Q1618 747 1622.5 736.5Q1627 726 1632.5 715.0Q1638 704 1644.0 693.5Q1650 683 1653 677Q1686 623 1730.5 584.0Q1775 545 1827.0 517.5Q1879 490 1936.0 471.5Q1993 453 2052 440Q2131 422 2197.0 383.0Q2263 344 2311.0 287.5Q2359 231 2385.5 159.0Q2412 87 2412 5L2340 -58Q2341 -82 2333.0 -95.5Q2325 -109 2311.0 -116.0Q2297 -123 2279.0 -124.5Q2261 -126 2243 -126H1278Q1278 -81 1259.5 -54.5Q1241 -28 1212.0 -15.0Q1183 -2 1146.5 1.5Q1110 5 1075 5H400V1036Q400 1075 414.5 1108.5Q429 1142 454.5 1167.5Q480 1193 513.5 1207.5Q547 1222 586 1222H1430Z" style="fill:#ffb02e;stroke:none" transform="scale(1,-1) translate(0,-256)" /></svg>