<?xml version="1.0" encoding="utf-8" ?>
<svg baseProfile="full" height="256" version="1.1" width="256" xmlns="http://www.w3.org/2000/svg" xmlns:ev="http://www.w3.org/2001/xml-events" xmlns:xlink="http://www.w3.org/1999/xlink"><defs /><path d="M1620 763 1918 775V269H1916L1638 -10Q1622 -26 1620.5 -49.0Q1619 -72 1620.0 -93.0Q1621 -114 1618.0 -129.0Q1615 -144 1597 -144H1499Q1490 -144 1483.0 -137.0Q1476 -130 1476 -121V-53Q1476 -16 1486.5 12.5Q1497 41 1513.0 63.5Q1529 86 1548.0 103.5Q1567 121 1583.0 137.0Q1599 153 1609.5 168.5Q1620 184 1620 203ZM578 178Q585 178 600.0 189.5Q615 201 630.0 216.0Q645 231 656.5 246.0Q668 261 668 268Q668 280 659.5 288.5Q651 297 641.5 306.5Q632 316 623.5 328.0Q615 340 615 358V528Q615 548 628.5 561.5Q642 575 662 575H1190V719H662Q623 719 588.0 704.0Q553 689 527.0 663.0Q501 637 486.0 602.0Q471 567 471 528V358Q471 317 486.5 280.0Q502 243 531 214Q540 205 552.5 191.5Q565 178 578 178Z" style="fill:#6d4534;stroke:none" transform="scale(1,-1) translate(0,-256)" /></svg>