<?xml version="1.0" encoding="utf-8" ?>
<svg baseProfile="full" height="256" version="1.1" width="256" xmlns="http://www.w3.org/2000/svg" xmlns:ev="http://www.w3.org/2001/xml-events" xmlns:xlink="http://www.w3.org/1999/xlink"><defs /><path d="M2266 653V137Q2266 71 2225 21L1993 -269Q1978 -287 1956 -287H1868Q1861 -287 1856.5 -282.0Q1852 -277 1852 -271Q1852 -268 1863.0 -252.0Q1874 -236 1891.0 -212.5Q1908 -189 1928.0 -162.5Q1948 -136 1966.0 -112.0Q1984 -88 1998.0 -70.0Q2012 -52 2016 -46Q2050 0 2050 58Q2050 98 2032.0 135.0Q2014 172 1982 196L1801 331Q1781 345 1760.5 352.5Q1740 360 1716 360H1141Q1103 360 1069.0 367.5Q1035 375 1000 389Q998 390 993 390Q987 390 976.0 381.0Q965 372 953.0 360.5Q941 349 931.0 337.5Q921 326 916 321Q902 307 902 286Q902 277 906.5 268.0Q911 259 917 253L1008 161Q1021 147 1039.5 145.5Q1058 144 1075.5 143.5Q1093 143 1105.0 137.0Q1117 131 1117 110V35Q1117 20 1110.5 12.5Q1104 5 1094.0 2.5Q1084 0 1072.0 0.0Q1060 0 1050 0Q1009 0 972.0 15.5Q935 31 906 60Q879 88 852.5 112.5Q826 137 805.0 163.5Q784 190 771.5 221.0Q759 252 759 293Q759 336 775.5 367.0Q792 398 812.5 420.5Q833 443 849.5 458.0Q866 473 866 483Q866 490 862 494Q832 536 813.5 576.5Q795 617 788 668L708 1246Q707 1254 701.0 1259.0Q695 1264 687 1264Q683 1264 665.0 1257.0Q647 1250 625.5 1241.5Q604 1233 585.0 1225.0Q566 1217 560 1215L436 1258L470 1370L712 1632Q719 1639 718.0 1654.5Q717 1670 716.5 1685.5Q716 1701 719.0 1713.0Q722 1725 737 1725Q742 1725 764.5 1709.5Q787 1694 813.0 1674.5Q839 1655 862.0 1637.0Q885 1619 892 1614Q915 1597 936.5 1575.0Q958 1553 972 1528L1190 1134Q1206 1105 1229.5 1081.0Q1253 1057 1281.0 1040.5Q1309 1024 1341.0 1015.0Q1373 1006 1407 1006H1913Q1986 1006 2050.5 978.5Q2115 951 2163.0 903.0Q2211 855 2238.5 790.5Q2266 726 2266 653Z" style="fill:#a56953;stroke:none" transform="scale(1,-1) translate(0,-256)" /></svg>