<?xml version="1.0" encoding="utf-8" ?>
<svg baseProfile="full" height="256" version="1.1" width="256" xmlns="http://www.w3.org/2000/svg" xmlns:ev="http://www.w3.org/2001/xml-events" xmlns:xlink="http://www.w3.org/1999/xlink"><defs /><path d="M902 1489H802V1654H1214Q1227 1654 1236.0 1645.0Q1245 1636 1245 1623Q1245 1589 1228.5 1558.5Q1212 1528 1183 1510H1374Q1388 1510 1397.0 1501.0Q1406 1492 1406 1478Q1406 1422 1380.0 1373.0Q1354 1324 1307 1294H1493Q1505 1294 1513.5 1285.0Q1522 1276 1522 1264Q1522 1204 1499.5 1151.5Q1477 1099 1438.0 1060.0Q1399 1021 1346.5 998.5Q1294 976 1234 976H1046V1257H902ZM2303 1510Q2325 1510 2345.0 1501.5Q2365 1493 2380.0 1478.0Q2395 1463 2403.5 1443.0Q2412 1423 2412 1401V1258Q2412 1221 2398.0 1188.0Q2384 1155 2359.5 1130.5Q2335 1106 2302.5 1092.0Q2270 1078 2233 1078H2150Q2139 1078 2131.5 1071.0Q2124 1064 2124 1053V719H1981V1186Q1981 1223 1995.0 1256.0Q2009 1289 2033.5 1313.5Q2058 1338 2090.5 1352.0Q2123 1366 2160 1366H2243Q2258 1366 2263.5 1376.5Q2269 1387 2269.5 1403.0Q2270 1419 2268.5 1438.0Q2267 1457 2268.5 1473.0Q2270 1489 2277.5 1499.5Q2285 1510 2303 1510ZM523 1529Q523 1534 525.5 1543.5Q528 1553 530 1558Q546 1601 583.5 1627.0Q621 1653 666 1653H793Q793 1623 781.5 1597.0Q770 1571 750.5 1551.5Q731 1532 705.0 1520.5Q679 1509 649 1509H540Q530 1509 526.5 1515.0Q523 1521 523 1529Z" style="fill:#1c1c1c;stroke:none" transform="scale(1,-1) translate(0,-256)" /></svg>