<?xml version="1.0" encoding="utf-8" ?>
<svg baseProfile="full" height="256" version="1.1" width="256" xmlns="http://www.w3.org/2000/svg" xmlns:ev="http://www.w3.org/2001/xml-events" xmlns:xlink="http://www.w3.org/1999/xlink"><defs /><path d="M913 -36 490 -282Q480 -287 472 -287Q457 -287 446.5 -276.0Q436 -265 436 -250Q436 -241 440.5 -233.0Q445 -225 453 -220L867 21V297L490 77Q482 72 472 72Q457 72 446.5 83.0Q436 94 436 109Q436 118 440.5 126.0Q445 134 453 139L867 380V656L490 436Q482 431 472 431Q457 431 446.5 442.0Q436 453 436 468Q436 477 440.5 485.0Q445 493 453 498L867 740V1078H939V755H1370V1078H1442V755H1873V1078H1945V740L2358 498Q2376 488 2376 467Q2376 453 2365.5 442.0Q2355 431 2340 431Q2330 431 2322 436L1945 656V380L2358 139Q2376 129 2376 108Q2376 94 2365.5 83.0Q2355 72 2340 72Q2330 72 2322 77L1945 297V21L2358 -220Q2376 -230 2376 -251Q2376 -265 2365.5 -276.0Q2355 -287 2340 -287Q2332 -287 2322 -282L1899 -36ZM1873 36V324H1442V36ZM1873 396V683H1442V396ZM939 683V396H1370V683ZM939 324V36H1370V324Z" style="fill:#9b9b9b;stroke:none" transform="scale(1,-1) translate(0,-256)" /></svg>