<?xml version="1.0" encoding="utf-8" ?>
<svg baseProfile="full" height="256" version="1.1" width="256" xmlns="http://www.w3.org/2000/svg" xmlns:ev="http://www.w3.org/2001/xml-events" xmlns:xlink="http://www.w3.org/1999/xlink"><defs /><path d="M436 -287Q421 -287 410.5 -276.5Q400 -266 400 -251V791Q400 877 431.0 944.0Q462 1011 515.5 1056.5Q569 1102 641.0 1126.0Q713 1150 795 1150H2017Q2099 1150 2171.0 1126.0Q2243 1102 2296.5 1056.5Q2350 1011 2381.0 944.0Q2412 877 2412 791V-251Q2412 -270 2399.5 -278.0Q2387 -286 2369.5 -288.0Q2352 -290 2334.0 -288.5Q2316 -287 2304 -287Q2290 -287 2279.0 -276.0Q2268 -265 2268 -251V791Q2268 847 2248.0 887.5Q2228 928 2194.0 954.5Q2160 981 2114.0 993.5Q2068 1006 2017 1006H795Q744 1006 698.0 993.5Q652 981 617.5 954.5Q583 928 563.0 887.5Q543 847 543 791V-251Q543 -270 530.5 -278.0Q518 -286 501.0 -288.0Q484 -290 466.0 -288.5Q448 -287 436 -287Z" style="fill:#f8312f;stroke:none" transform="scale(1,-1) translate(0,-256)" /></svg>