<?xml version="1.0" encoding="utf-8" ?>
<svg baseProfile="full" height="256" version="1.1" width="256" xmlns="http://www.w3.org/2000/svg" xmlns:ev="http://www.w3.org/2001/xml-events" xmlns:xlink="http://www.w3.org/1999/xlink"><defs /><path d="M1813 1644Q1813 1659 1823.5 1669.0Q1834 1679 1849 1679Q1861 1679 1870 1673Q1904 1650 1937.0 1614.0Q1970 1578 1998.5 1536.0Q2027 1494 2050.5 1451.0Q2074 1408 2091 1371Q2142 1260 2169.5 1140.0Q2197 1020 2197 898Q2197 772 2149.0 660.5Q2101 549 2018.0 466.5Q1935 384 1823.5 336.0Q1712 288 1586 288H1226Q1139 288 1059.5 310.5Q980 333 912.0 373.5Q844 414 789.0 471.5Q734 529 695.0 598.5Q656 668 635.0 747.5Q614 827 614 913Q614 1007 635.0 1101.5Q656 1196 697.5 1283.0Q739 1370 799.5 1444.5Q860 1519 940 1573Q949 1579 960 1579Q975 1579 986.0 1568.5Q997 1558 997 1543Q997 1527 982 1514Q958 1494 938.5 1477.5Q919 1461 901.0 1444.0Q883 1427 865.5 1407.5Q848 1388 829 1362Q912 1434 1014.5 1471.5Q1117 1509 1226 1509H1586Q1618 1509 1649.0 1506.0Q1680 1503 1711 1496Q1611 1542 1503.5 1561.5Q1396 1581 1287 1581Q1273 1581 1262.0 1592.0Q1251 1603 1251 1617Q1251 1632 1261.5 1642.5Q1272 1653 1287 1653Q1390 1653 1491.0 1636.5Q1592 1620 1685.5 1584.5Q1779 1549 1863.5 1493.0Q1948 1437 2018 1359Q1990 1418 1952.5 1476.5Q1915 1535 1868 1580Q1858 1590 1848.0 1597.5Q1838 1605 1828 1614Q1813 1627 1813 1644Z" style="fill:#f3ad61;stroke:none" transform="scale(1,-1) translate(0,-256)" /></svg>