<?xml version="1.0" encoding="utf-8" ?>
<svg baseProfile="full" height="256" version="1.1" width="256" xmlns="http://www.w3.org/2000/svg" xmlns:ev="http://www.w3.org/2001/xml-events" xmlns:xlink="http://www.w3.org/1999/xlink"><defs /><path d="M400 496 2412 1301V942L1299 505H2412V137H1878Q1867 137 1867 126Q1867 121 1885.0 109.5Q1903 98 1925.5 85.0Q1948 72 1969.5 60.5Q1991 49 1997 45Q2022 31 2036.0 7.0Q2050 -17 2050 -46Q2050 -69 2042.0 -88.5Q2034 -108 2019.5 -122.0Q2005 -136 1985.5 -144.5Q1966 -153 1944 -153Q1916 -153 1891 -139L1496 89Q1455 112 1409.5 124.5Q1364 137 1317 137H400Z" style="fill:#7d4533;stroke:none" transform="scale(1,-1) translate(0,-256)" /></svg>