<?xml version="1.0" encoding="utf-8" ?>
<svg baseProfile="full" height="256" version="1.1" width="256" xmlns="http://www.w3.org/2000/svg" xmlns:ev="http://www.w3.org/2001/xml-events" xmlns:xlink="http://www.w3.org/1999/xlink"><defs /><path d="M1622 1451Q1694 1451 1757.5 1423.5Q1821 1396 1868.5 1348.5Q1916 1301 1943.5 1237.5Q1971 1174 1971 1102Q1971 1030 1943.5 966.5Q1916 903 1868.5 855.5Q1821 808 1757.5 780.5Q1694 753 1622 753H1592Q1610 761 1646.5 783.0Q1683 805 1720.0 832.0Q1757 859 1785.0 886.5Q1813 914 1813 933Q1813 948 1802.5 958.5Q1792 969 1777 969Q1762 969 1751 958Q1710 918 1672.0 887.5Q1634 857 1594.0 834.5Q1554 812 1508.5 796.0Q1463 780 1406 768Q1382 763 1355.0 758.0Q1328 753 1304 753H1190Q1118 753 1054.0 780.5Q990 808 943.0 855.0Q896 902 868.5 966.0Q841 1030 841 1102Q841 1174 868.5 1238.0Q896 1302 943.0 1349.0Q990 1396 1054.0 1423.5Q1118 1451 1190 1451Z" style="fill:#b97028;stroke:none" transform="scale(1,-1) translate(0,-256)" /></svg>