<?xml version="1.0" encoding="utf-8" ?>
<svg baseProfile="full" height="256" version="1.1" width="256" xmlns="http://www.w3.org/2000/svg" xmlns:ev="http://www.w3.org/2001/xml-events" xmlns:xlink="http://www.w3.org/1999/xlink"><defs /><path d="M1304 753H1180Q1120 753 1065.5 773.5Q1011 794 967.5 830.5Q924 867 893.5 916.5Q863 966 850 1024Q861 1066 884.0 1101.5Q907 1137 939.5 1163.0Q972 1189 1011.5 1203.5Q1051 1218 1095 1218H1717Q1761 1218 1800.5 1203.5Q1840 1189 1872.5 1163.0Q1905 1137 1928.0 1101.5Q1951 1066 1962 1024Q1949 966 1918.5 916.5Q1888 867 1844.5 830.5Q1801 794 1746.5 773.5Q1692 753 1632 753H1592Q1610 761 1646.5 783.0Q1683 805 1720.0 832.0Q1757 859 1785.0 886.5Q1813 914 1813 933Q1813 948 1802.5 958.5Q1792 969 1777 969Q1762 969 1751 958Q1737 945 1724.5 932.0Q1712 919 1698 907Q1635 852 1562.0 818.5Q1489 785 1408 768Q1383 763 1356.0 758.0Q1329 753 1304 753Z" style="fill:#7d4533;stroke:none" transform="scale(1,-1) translate(0,-256)" /></svg>