<?xml version="1.0" encoding="utf-8" ?>
<svg baseProfile="full" height="256" version="1.1" width="256" xmlns="http://www.w3.org/2000/svg" xmlns:ev="http://www.w3.org/2001/xml-events" xmlns:xlink="http://www.w3.org/1999/xlink"><defs /><path d="M336 1069Q336 1077 341 1082Q358 1100 373.5 1116.0Q389 1132 405.5 1144.0Q422 1156 442.0 1163.5Q462 1171 488 1171Q517 1171 543.5 1160.0Q570 1149 590 1129L870 849Q890 829 901.0 802.5Q912 776 912 747Q912 721 904.5 701.0Q897 681 885.0 664.5Q873 648 857.0 632.5Q841 617 823 599Q818 594 810 594Q803 594 798 599L341 1057Q336 1062 336 1069Z" style="fill:#cdc4d6;stroke:none" transform="scale(1,-1) translate(0,-256)" /></svg>