<?xml version="1.0" encoding="utf-8" ?>
<svg baseProfile="full" height="256" version="1.1" width="256" xmlns="http://www.w3.org/2000/svg" xmlns:ev="http://www.w3.org/2001/xml-events" xmlns:xlink="http://www.w3.org/1999/xlink"><defs /><path d="M558 1174Q558 1189 569 1200L1077 1709Q1082 1714 1089.0 1716.5Q1096 1719 1102 1719H1106L1336 1695Q1350 1693 1359.0 1682.5Q1368 1672 1368 1658Q1368 1643 1358 1633L1162 1438Q1157 1433 1153.0 1421.5Q1149 1410 1149 1402Q1149 1391 1153.5 1382.5Q1158 1374 1166 1366L1306 1226Q1316 1216 1316 1200Q1316 1185 1306 1175L950 819Q939 808 924 808Q915 808 911.0 811.5Q907 815 899 819L687 935L569 1149Q565 1157 561.5 1161.0Q558 1165 558 1174ZM2361 1409Q2380 1409 2390.5 1395.5Q2401 1382 2405.5 1363.0Q2410 1344 2411.0 1323.5Q2412 1303 2412 1290Q2412 1215 2383.5 1148.5Q2355 1082 2305.5 1032.5Q2256 983 2190.0 954.5Q2124 926 2049 926Q1994 926 1938 943L1238 239Q1246 213 1250.0 186.5Q1254 160 1254 133Q1254 58 1225.5 -8.5Q1197 -75 1148.0 -124.5Q1099 -174 1032.5 -202.5Q966 -231 891 -231Q877 -231 856.5 -230.0Q836 -229 817.5 -224.0Q799 -219 785.5 -208.5Q772 -198 772 -178Q772 -161 784 -149L968 34Q980 46 980 64Q980 82 968 94L852 210Q840 222 822 222Q804 222 792 210L609 26Q597 14 580 14Q560 14 549.5 27.5Q539 41 534.5 59.5Q530 78 529.0 98.5Q528 119 528 133Q528 208 556.5 274.0Q585 340 634.0 389.5Q683 439 749.0 468.0Q815 497 890 497Q919 497 948.0 492.0Q977 487 1005 478L1703 1181Q1686 1235 1686 1290Q1686 1365 1714.5 1431.5Q1743 1498 1792.0 1547.5Q1841 1597 1907.5 1625.5Q1974 1654 2049 1654Q2063 1654 2083.5 1653.0Q2104 1652 2122.5 1647.0Q2141 1642 2154.5 1631.0Q2168 1620 2168 1601Q2168 1584 2156 1572L1972 1388Q1960 1376 1960 1358Q1960 1341 1972 1329L2088 1213Q2100 1201 2118 1201Q2136 1201 2148 1213L2331 1396Q2344 1409 2361 1409Z" style="fill:#b4acbc;stroke:none" transform="scale(1,-1) translate(0,-256)" /></svg>