<?xml version="1.0" encoding="utf-8" ?>
<svg baseProfile="full" height="256" version="1.1" width="256" xmlns="http://www.w3.org/2000/svg" xmlns:ev="http://www.w3.org/2001/xml-events" xmlns:xlink="http://www.w3.org/1999/xlink"><defs /><path d="M2412 561V-144H1922Q1815 -144 1736.0 -101.5Q1657 -59 1590 21Q1571 44 1549.0 56.0Q1527 68 1497 68Q1473 68 1443.0 55.0Q1413 42 1379.0 22.5Q1345 3 1309.0 -19.5Q1273 -42 1236.5 -61.5Q1200 -81 1164.5 -94.0Q1129 -107 1097 -107Q1039 -107 989.0 -78.5Q939 -50 910 0H831V252L736 251Q712 209 670.0 185.0Q628 161 580 161Q542 161 509.5 175.5Q477 190 452.5 214.5Q428 239 414.0 272.0Q400 305 400 342Q400 390 424 431L798 1055Q819 1089 848.5 1116.5Q878 1144 913.0 1163.0Q948 1182 987.5 1192.0Q1027 1202 1066 1202Q1132 1202 1194 1175L2333 681Q2369 665 2390.5 632.5Q2412 600 2412 561ZM840 431H1136V382L1299 476Q1316 485 1333 491Q1328 539 1307.0 581.0Q1286 623 1252.5 653.5Q1219 684 1175.5 701.5Q1132 719 1083 719Q1061 719 1044.5 702.0Q1028 685 1014.5 662.5Q1001 640 989.5 616.0Q978 592 966 579Z" style="fill:#ffc83d;stroke:none" transform="scale(1,-1) translate(0,-256)" /></svg>