<?xml version="1.0" encoding="utf-8" ?>
<svg baseProfile="full" height="256" version="1.1" width="256" xmlns="http://www.w3.org/2000/svg" xmlns:ev="http://www.w3.org/2001/xml-events" xmlns:xlink="http://www.w3.org/1999/xlink"><defs /><path d="M1828 1582Q1828 1569 1822 1559L1147 388L988 296Q938 267 909.0 216.5Q880 166 880 109Q880 78 889.0 46.0Q898 14 917 -11Q907 -29 898.0 -45.0Q889 -61 879.5 -76.0Q870 -91 858.0 -105.0Q846 -119 829 -132L631 -282Q623 -288 612 -288Q598 -288 587.5 -277.0Q577 -266 579 -252L606 -4Q608 14 613.5 31.5Q619 49 628 65L1574 1703Q1580 1713 1590.0 1719.0Q1600 1725 1612 1725Q1622 1725 1649.0 1711.5Q1676 1698 1707.5 1680.0Q1739 1662 1767.0 1644.5Q1795 1627 1806 1620Q1828 1606 1828 1582Z" style="fill:#f95725;stroke:none" transform="scale(1,-1) translate(0,-256)" /></svg>