<?xml version="1.0" encoding="utf-8" ?>
<svg baseProfile="full" height="256" version="1.1" width="256" xmlns="http://www.w3.org/2000/svg" xmlns:ev="http://www.w3.org/2001/xml-events" xmlns:xlink="http://www.w3.org/1999/xlink"><defs /><path d="M974 749Q974 786 988.0 819.0Q1002 852 1026.5 876.5Q1051 901 1084.0 915.0Q1117 929 1154 929Q1191 929 1224.0 915.0Q1257 901 1281.5 876.5Q1306 852 1320.0 819.0Q1334 786 1334 749V144H1833V431H2411V-198Q2411 -235 2385.0 -261.0Q2359 -287 2322 -287H1658Q1591 -287 1532.0 -261.5Q1473 -236 1429.0 -192.0Q1385 -148 1359.5 -89.0Q1334 -30 1334 37V-108Q1334 -145 1320.0 -177.5Q1306 -210 1281.5 -234.5Q1257 -259 1224.0 -273.0Q1191 -287 1154 -287Q1117 -287 1084.0 -273.0Q1051 -259 1026.5 -234.5Q1002 -210 988.0 -177.5Q974 -145 974 -108Z" style="fill:#d67d00;stroke:none" transform="scale(1,-1) translate(0,-256)" /></svg>