<?xml version="1.0" encoding="utf-8" ?>
<svg baseProfile="full" height="256" version="1.1" width="256" xmlns="http://www.w3.org/2000/svg" xmlns:ev="http://www.w3.org/2001/xml-events" xmlns:xlink="http://www.w3.org/1999/xlink"><defs /><path d="M1118 216Q1118 276 1140.5 328.0Q1163 380 1202.0 419.0Q1241 458 1293.5 480.5Q1346 503 1406 503Q1466 503 1518.0 480.5Q1570 458 1609.0 419.0Q1648 380 1670.5 328.0Q1693 276 1693 216Q1693 156 1670.5 103.5Q1648 51 1609.0 12.0Q1570 -27 1518.0 -49.5Q1466 -72 1406 -72Q1346 -72 1293.5 -49.5Q1241 -27 1202.0 12.0Q1163 51 1140.5 103.5Q1118 156 1118 216Z" style="fill:#bb1d80;stroke:none" transform="scale(1,-1) translate(0,-256)" /></svg>