<?xml version="1.0" encoding="utf-8" ?>
<svg baseProfile="full" height="256" version="1.1" width="256" xmlns="http://www.w3.org/2000/svg" xmlns:ev="http://www.w3.org/2001/xml-events" xmlns:xlink="http://www.w3.org/1999/xlink"><defs /><path d="M831 1222Q861 1222 882 1201L1011 1072L1140 1201Q1161 1222 1190 1222Q1220 1222 1241.0 1200.5Q1262 1179 1262 1150Q1262 1120 1241 1099L1112 971L1241 842Q1262 821 1262 791Q1262 762 1241.0 740.5Q1220 719 1190 719Q1161 719 1140 740L1011 869L882 740Q861 719 831 719Q801 719 780.0 740.0Q759 761 759 791Q759 821 780 842L909 971L780 1099Q759 1120 759 1150Q759 1180 780.0 1201.0Q801 1222 831 1222ZM1981 1222Q2011 1222 2032.0 1201.0Q2053 1180 2053 1150Q2053 1120 2032 1099L1903 971L2032 842Q2053 821 2053 791Q2053 761 2032.0 740.0Q2011 719 1981 719Q1951 719 1930 740L1801 869L1672 740Q1651 719 1621 719Q1592 719 1571.0 740.5Q1550 762 1550 791Q1550 821 1571 842L1700 971L1571 1099Q1550 1120 1550 1150Q1550 1179 1571.0 1200.5Q1592 1222 1621 1222Q1651 1222 1672 1201L1801 1072L1930 1201Q1951 1222 1981 1222Z" style="fill:#402a32;stroke:none" transform="scale(1,-1) translate(0,-256)" /></svg>