<?xml version="1.0" encoding="utf-8" ?>
<svg baseProfile="full" height="256" version="1.1" width="256" xmlns="http://www.w3.org/2000/svg" xmlns:ev="http://www.w3.org/2001/xml-events" xmlns:xlink="http://www.w3.org/1999/xlink"><defs /><path d="M1084 1510Q1083 1505 1083.0 1500.0Q1083 1495 1083 1490Q1083 1459 1092.5 1439.0Q1102 1419 1115.5 1405.5Q1129 1392 1145.5 1383.0Q1162 1374 1175.5 1364.5Q1189 1355 1198.5 1344.5Q1208 1334 1208 1317Q1208 1297 1195.0 1279.5Q1182 1262 1160 1262Q1155 1262 1147 1264Q1109 1275 1077.0 1296.5Q1045 1318 1022.5 1348.0Q1000 1378 987.5 1414.0Q975 1450 975 1490Q975 1495 975.5 1501.0Q976 1507 976 1512Q976 1516 973.0 1525.5Q970 1535 968 1539Q953 1574 920.5 1595.5Q888 1617 850 1617Q824 1617 800.5 1607.0Q777 1597 760.0 1579.5Q743 1562 733.0 1539.0Q723 1516 723 1490Q723 1459 732.5 1439.0Q742 1419 756.0 1405.5Q770 1392 786.0 1382.5Q802 1373 816.0 1364.0Q830 1355 839.5 1344.0Q849 1333 849 1317Q849 1297 836.0 1279.5Q823 1262 801 1262Q795 1262 787 1264Q749 1274 717.0 1296.0Q685 1318 662.5 1348.0Q640 1378 627.5 1414.0Q615 1450 615 1490Q615 1538 633.5 1581.0Q652 1624 684.0 1656.0Q716 1688 759.0 1706.5Q802 1725 850 1725Q902 1725 949.5 1703.5Q997 1682 1030 1642Q1063 1682 1110.5 1703.5Q1158 1725 1210 1725Q1262 1725 1309.0 1703.5Q1356 1682 1389 1642Q1423 1681 1470.0 1703.0Q1517 1725 1569 1725Q1621 1725 1668.5 1703.5Q1716 1682 1749 1642Q1782 1682 1829.0 1703.5Q1876 1725 1928 1725Q1974 1725 2015.0 1708.5Q2056 1692 2087.5 1663.0Q2119 1634 2139.0 1595.0Q2159 1556 2163 1510H2054Q2047 1557 2011.0 1587.0Q1975 1617 1928 1617Q1902 1617 1878.5 1607.0Q1855 1597 1838.0 1579.5Q1821 1562 1811.0 1539.0Q1801 1516 1801 1490Q1801 1445 1820.5 1421.5Q1840 1398 1864.0 1383.0Q1888 1368 1907.5 1355.0Q1927 1342 1927 1317Q1927 1297 1914.0 1279.5Q1901 1262 1879 1262Q1874 1262 1866 1264Q1828 1275 1796.0 1296.5Q1764 1318 1741.0 1347.5Q1718 1377 1705.5 1413.5Q1693 1450 1693 1490Q1693 1495 1693.5 1501.0Q1694 1507 1694 1512Q1694 1517 1691.0 1526.0Q1688 1535 1686 1539Q1672 1574 1639.5 1595.5Q1607 1617 1569 1617Q1522 1617 1487.0 1587.5Q1452 1558 1444 1512V1510H1443Q1442 1505 1442.0 1500.0Q1442 1495 1442 1490Q1442 1459 1451.5 1439.0Q1461 1419 1475.0 1405.5Q1489 1392 1505.0 1382.5Q1521 1373 1535.0 1364.0Q1549 1355 1558.5 1344.0Q1568 1333 1568 1317Q1568 1297 1554.5 1279.5Q1541 1262 1519 1262Q1514 1262 1506 1264Q1468 1275 1436.0 1296.5Q1404 1318 1381.5 1348.0Q1359 1378 1346.5 1414.0Q1334 1450 1334 1490Q1334 1495 1334.5 1501.0Q1335 1507 1335 1512Q1335 1517 1332.0 1526.0Q1329 1535 1327 1539Q1313 1574 1280.5 1595.5Q1248 1617 1210 1617Q1187 1617 1166.0 1609.0Q1145 1601 1128.0 1587.0Q1111 1573 1099.5 1554.0Q1088 1535 1084 1512L1085 1510Z" style="fill:#cdc4d6;stroke:none" transform="scale(1,-1) translate(0,-256)" /></svg>