<?xml version="1.0" encoding="utf-8" ?>
<svg baseProfile="full" height="256" version="1.1" width="256" xmlns="http://www.w3.org/2000/svg" xmlns:ev="http://www.w3.org/2001/xml-events" xmlns:xlink="http://www.w3.org/1999/xlink"><defs /><path d="M1032 935Q1038 935 1042.5 930.5Q1047 926 1047 920V733Q1047 727 1042.5 723.0Q1038 719 1032 719H845Q831 719 831 733V920Q831 926 835.0 930.5Q839 935 845 935ZM1499 935Q1505 935 1509.5 930.5Q1514 926 1514 920V733Q1514 727 1509.5 723.0Q1505 719 1499 719H1313Q1307 719 1302.5 723.0Q1298 727 1298 733V920Q1298 926 1302.5 930.5Q1307 935 1313 935ZM1765 920Q1765 926 1769.5 930.5Q1774 935 1780 935H1967Q1973 935 1977.0 930.5Q1981 926 1981 920V733Q1981 719 1967 719H1780Q1774 719 1769.5 723.0Q1765 727 1765 733ZM1032 575Q1038 575 1042.5 571.0Q1047 567 1047 561V374Q1047 368 1042.5 364.0Q1038 360 1032 360H845Q831 360 831 374V561Q831 575 845 575ZM1298 561Q1298 567 1302.5 571.0Q1307 575 1313 575H1499Q1505 575 1509.5 571.0Q1514 567 1514 561V374Q1514 368 1509.5 364.0Q1505 360 1499 360H1313Q1307 360 1302.5 364.0Q1298 368 1298 374ZM1032 216Q1038 216 1042.5 211.5Q1047 207 1047 201V15Q1047 9 1042.5 4.5Q1038 0 1032 0H845Q839 0 835.0 4.5Q831 9 831 15V201Q831 207 835.0 211.5Q839 216 845 216ZM1298 201Q1298 207 1302.5 211.5Q1307 216 1313 216H1499Q1505 216 1509.5 211.5Q1514 207 1514 201V15Q1514 9 1509.5 4.5Q1505 0 1499 0H1313Q1307 0 1302.5 4.5Q1298 9 1298 15ZM1967 216Q1973 216 1977.0 211.5Q1981 207 1981 201V15Q1981 9 1977.0 4.5Q1973 0 1967 0H1780Q1774 0 1769.5 4.5Q1765 9 1765 15V201Q1765 207 1769.5 211.5Q1774 216 1780 216Z" style="fill:#998ea4;stroke:none" transform="scale(1,-1) translate(0,-256)" /></svg>