<?xml version="1.0" encoding="utf-8" ?>
<svg baseProfile="full" height="256" version="1.1" width="256" xmlns="http://www.w3.org/2000/svg" xmlns:ev="http://www.w3.org/2001/xml-events" xmlns:xlink="http://www.w3.org/1999/xlink"><defs /><path d="M1095 1176Q1140 1183 1177.0 1191.0Q1214 1199 1249.5 1206.0Q1285 1213 1322.5 1217.5Q1360 1222 1406 1222Q1452 1222 1489.5 1217.5Q1527 1213 1562.5 1206.0Q1598 1199 1635.0 1191.0Q1672 1183 1717 1176L2340 1085V192L1945 -215H795Q728 -215 669.0 -189.5Q610 -164 566.5 -120.5Q523 -77 497.5 -18.0Q472 41 472 108V1085Z" style="fill:#f3eef8;stroke:none" transform="scale(1,-1) translate(0,-256)" /></svg>