<?xml version="1.0" encoding="utf-8" ?>
<svg baseProfile="full" height="256" version="1.1" width="256" xmlns="http://www.w3.org/2000/svg" xmlns:ev="http://www.w3.org/2001/xml-events" xmlns:xlink="http://www.w3.org/1999/xlink"><defs /><path d="M2412 1238V1078H400V1238Q400 1294 421.0 1343.5Q442 1393 478.5 1430.0Q515 1467 564.5 1488.5Q614 1510 670 1510H2055L2108 1551L2163 1509Q2216 1505 2261.5 1482.0Q2307 1459 2340.5 1422.5Q2374 1386 2393.0 1338.5Q2412 1291 2412 1238ZM1780 575Q1774 575 1769.5 571.0Q1765 567 1765 561V374Q1765 368 1769.5 364.0Q1774 360 1780 360H1967Q1981 360 1981 374V561Q1981 575 1967 575Z" style="fill:#0084ce;stroke:none" transform="scale(1,-1) translate(0,-256)" /></svg>