<?xml version="1.0" encoding="utf-8" ?>
<svg baseProfile="full" height="256" version="1.1" width="256" xmlns="http://www.w3.org/2000/svg" xmlns:ev="http://www.w3.org/2001/xml-events" xmlns:xlink="http://www.w3.org/1999/xlink"><defs /><path d="M831 503Q831 486 826.5 470.0Q822 454 815 439Q786 454 762.0 476.0Q738 498 721.5 525.0Q705 552 696.0 583.0Q687 614 687 647Q717 647 743.0 635.5Q769 624 788.5 604.5Q808 585 819.5 559.0Q831 533 831 503ZM975 503H1047V647H975Q946 647 925.0 625.5Q904 604 904 575Q904 546 925.0 524.5Q946 503 975 503Z" style="fill:#fcd53f;stroke:none" transform="scale(1,-1) translate(0,-256)" /></svg>