<?xml version="1.0" encoding="utf-8" ?>
<svg baseProfile="full" height="256" version="1.1" width="256" xmlns="http://www.w3.org/2000/svg" xmlns:ev="http://www.w3.org/2001/xml-events" xmlns:xlink="http://www.w3.org/1999/xlink"><defs /><path d="M1047 36Q1047 -31 1021.5 -89.5Q996 -148 952.0 -192.0Q908 -236 849.0 -261.5Q790 -287 723 -287Q656 -287 597.5 -261.5Q539 -236 495.0 -192.0Q451 -148 425.5 -89.5Q400 -31 400 36Q400 103 425.5 162.0Q451 221 495.0 265.0Q539 309 597.5 334.5Q656 360 723 360Q790 360 849.0 334.5Q908 309 952.0 265.0Q996 221 1021.5 162.0Q1047 103 1047 36ZM2412 36Q2412 -31 2386.5 -89.5Q2361 -148 2317.0 -192.0Q2273 -236 2214.5 -261.5Q2156 -287 2089 -287Q2022 -287 1963.0 -261.5Q1904 -236 1860.0 -192.0Q1816 -148 1790.5 -89.5Q1765 -31 1765 36Q1765 103 1790.5 162.0Q1816 221 1860.0 265.0Q1904 309 1963.0 334.5Q2022 360 2089 360Q2156 360 2214.5 334.5Q2273 309 2317.0 265.0Q2361 221 2386.5 162.0Q2412 103 2412 36Z" style="fill:#321b41;stroke:none" transform="scale(1,-1) translate(0,-256)" /></svg>