<?xml version="1.0" encoding="utf-8" ?>
<svg baseProfile="full" height="256" version="1.1" width="256" xmlns="http://www.w3.org/2000/svg" xmlns:ev="http://www.w3.org/2001/xml-events" xmlns:xlink="http://www.w3.org/1999/xlink"><defs /><path d="M1262 791Q1292 791 1318.0 778.5Q1344 766 1363.5 745.0Q1383 724 1394.5 696.5Q1406 669 1406 640H1909Q1909 661 1908.0 687.0Q1907 713 1912.5 736.0Q1918 759 1932.5 775.0Q1947 791 1979 791H2270Q2299 791 2320.0 770.5Q2341 750 2341 721Q2341 684 2330.5 655.0Q2320 626 2294 600Q2228 532 2145.0 485.0Q2062 438 1974 404Q1903 376 1846.5 329.0Q1790 282 1752 216H1062Q1040 257 1014.0 289.5Q988 322 958.0 348.5Q928 375 892.5 397.0Q857 419 816 439Q811 455 804.5 467.5Q798 480 790.5 491.5Q783 503 775.0 514.0Q767 525 759 539Q742 568 726.5 595.5Q711 623 687 647L795 791Z" style="fill:#f92f60;stroke:none" transform="scale(1,-1) translate(0,-256)" /></svg>