<?xml version="1.0" encoding="utf-8" ?>
<svg baseProfile="full" height="256" version="1.1" width="256" xmlns="http://www.w3.org/2000/svg" xmlns:ev="http://www.w3.org/2001/xml-events" xmlns:xlink="http://www.w3.org/1999/xlink"><defs /><path d="M1551 718Q1551 688 1540.0 662.0Q1529 636 1509.5 616.5Q1490 597 1464.0 586.0Q1438 575 1408 575Q1378 575 1352.0 586.0Q1326 597 1306.5 616.5Q1287 636 1276.0 662.0Q1265 688 1265 718Q1265 748 1276.0 774.0Q1287 800 1306.5 819.5Q1326 839 1352.0 850.0Q1378 861 1408 861Q1438 861 1464.0 850.0Q1490 839 1509.5 819.5Q1529 800 1540.0 774.0Q1551 748 1551 718Z" style="fill:#9b9b9b;stroke:none" transform="scale(1,-1) translate(0,-256)" /></svg>