<?xml version="1.0" encoding="utf-8" ?>
<svg baseProfile="full" height="256" version="1.1" width="256" xmlns="http://www.w3.org/2000/svg" xmlns:ev="http://www.w3.org/2001/xml-events" xmlns:xlink="http://www.w3.org/1999/xlink"><defs /><path d="M945 1371Q945 1386 951.0 1399.0Q957 1412 967.0 1421.5Q977 1431 990.0 1437.0Q1003 1443 1017 1443Q1036 1443 1052.0 1433.5Q1068 1424 1078 1409Q1081 1404 1092.5 1385.0Q1104 1366 1117.0 1346.0Q1130 1326 1141.5 1310.0Q1153 1294 1156 1294H1249Q1258 1294 1258 1303Q1258 1306 1254.0 1312.0Q1250 1318 1245.5 1325.5Q1241 1333 1237.0 1343.0Q1233 1353 1233 1365Q1233 1395 1254.0 1416.0Q1275 1437 1305 1437Q1325 1437 1341.0 1426.5Q1357 1416 1370.0 1400.0Q1383 1384 1392.5 1365.5Q1402 1347 1410.5 1331.0Q1419 1315 1426.5 1304.5Q1434 1294 1441 1294H1730Q1741 1294 1752.5 1316.5Q1764 1339 1779.5 1366.0Q1795 1393 1815.5 1415.5Q1836 1438 1866 1438Q1896 1438 1917.0 1416.5Q1938 1395 1938 1366Q1938 1354 1934.0 1343.5Q1930 1333 1925.5 1325.0Q1921 1317 1917.0 1311.5Q1913 1306 1913 1303Q1913 1294 1922 1294H2053Q2083 1294 2104.0 1273.0Q2125 1252 2125 1222V1006Q2125 977 2103.5 956.0Q2082 935 2053 935Q2024 935 2002.5 956.0Q1981 977 1981 1006V1141Q1981 1150 1972 1150H912Q903 1150 903 1141V1006Q903 977 881.5 956.0Q860 935 831 935Q802 935 780.5 956.0Q759 977 759 1006V1222Q759 1252 780.0 1273.0Q801 1294 831 1294H964Q974 1294 974 1303Q974 1307 969.5 1313.0Q965 1319 959.5 1328.0Q954 1337 949.5 1347.5Q945 1358 945 1371ZM975 1006Q975 1036 996.0 1057.0Q1017 1078 1047 1078H1837Q1867 1078 1888.0 1057.0Q1909 1036 1909 1006V719Q1909 689 1888.0 668.0Q1867 647 1837 647H1341Q1335 647 1329.0 629.0Q1323 611 1317.5 588.0Q1312 565 1307.5 543.0Q1303 521 1301 514Q1300 510 1303.0 506.5Q1306 503 1310 503H2053Q2083 503 2104.0 482.0Q2125 461 2125 431V72Q2125 42 2104.0 21.0Q2083 0 2053 0Q2024 0 2005.5 18.0Q1987 36 1981 63Q1979 72 1972 72H912Q907 72 903.5 60.5Q900 49 892.5 35.5Q885 22 871.0 11.0Q857 0 831 0Q801 0 780.0 21.0Q759 42 759 72V431Q759 461 780.0 482.0Q801 503 831 503H1147Q1154 503 1156 510L1188 636Q1190 647 1179 647H1047Q1017 647 996.0 668.0Q975 689 975 719ZM1118 926V800Q1118 791 1127 791H1756Q1765 791 1765 800V926Q1765 935 1756 935H1127Q1118 935 1118 926ZM1981 351Q1981 360 1972 360H912Q903 360 903 351V225Q903 216 912 216H1972Q1981 216 1981 225Z" style="fill:#ffffff;stroke:none" transform="scale(1,-1) translate(0,-256)" /></svg>