<?xml version="1.0" encoding="utf-8" ?>
<svg baseProfile="full" height="256" version="1.1" width="256" xmlns="http://www.w3.org/2000/svg" xmlns:ev="http://www.w3.org/2001/xml-events" xmlns:xlink="http://www.w3.org/1999/xlink"><defs /><path d="M586 1653H615V1510Q602 1510 589.5 1511.0Q577 1512 566.5 1509.5Q556 1507 549.5 1499.0Q543 1491 543 1474V1078H400V1466Q400 1505 414.5 1539.0Q429 1573 454.5 1598.5Q480 1624 513.5 1638.5Q547 1653 586 1653ZM2197 72Q2242 72 2281.0 89.0Q2320 106 2349.0 135.5Q2378 165 2395.0 204.0Q2412 243 2412 288Q2412 333 2395.0 372.0Q2378 411 2349.0 440.0Q2320 469 2281.0 486.0Q2242 503 2197 503Q2152 503 2113.0 486.0Q2074 469 2044.5 440.0Q2015 411 1998.0 372.0Q1981 333 1981 288Q1981 243 1998.0 204.0Q2015 165 2044.5 135.5Q2074 106 2113.0 89.0Q2152 72 2197 72ZM1190 1653H1219Q1258 1653 1292.0 1638.5Q1326 1624 1351.5 1598.5Q1377 1573 1391.5 1539.0Q1406 1505 1406 1466V1078H1262V1474Q1262 1491 1255.5 1499.0Q1249 1507 1238.5 1509.5Q1228 1512 1215.5 1511.0Q1203 1510 1190 1510Z" style="fill:#00a6ed;stroke:none" transform="scale(1,-1) translate(0,-256)" /></svg>