<?xml version="1.0" encoding="utf-8" ?>
<svg baseProfile="full" height="256" version="1.1" width="256" xmlns="http://www.w3.org/2000/svg" xmlns:ev="http://www.w3.org/2001/xml-events" xmlns:xlink="http://www.w3.org/1999/xlink"><defs /><path d="M2197 180Q2174 180 2154.5 188.5Q2135 197 2120.5 211.5Q2106 226 2097.5 245.5Q2089 265 2089 288Q2089 310 2097.5 329.5Q2106 349 2121.0 364.0Q2136 379 2155.5 387.5Q2175 396 2197 396Q2219 396 2238.5 387.5Q2258 379 2272.5 364.0Q2287 349 2295.5 329.5Q2304 310 2304 288Q2304 266 2295.5 246.5Q2287 227 2273.0 212.0Q2259 197 2239.0 188.5Q2219 180 2197 180Z" style="fill:#3f5fff;stroke:none" transform="scale(1,-1) translate(0,-256)" /></svg>