<?xml version="1.0" encoding="utf-8" ?>
<svg baseProfile="full" height="256" version="1.1" width="256" xmlns="http://www.w3.org/2000/svg" xmlns:ev="http://www.w3.org/2001/xml-events" xmlns:xlink="http://www.w3.org/1999/xlink"><defs /><path d="M615 1510 543 1581 615 1653H689Q719 1653 739.0 1631.5Q759 1610 759 1581Q759 1552 738.5 1531.0Q718 1510 689 1510ZM1909 791Q1987 791 2053.0 764.0Q2119 737 2167.0 689.0Q2215 641 2241.5 575.0Q2268 509 2268 431V287H2125Q2125 333 2126.0 378.0Q2127 423 2123.5 463.0Q2120 503 2109.0 536.5Q2098 570 2074.0 595.0Q2050 620 2010.5 633.5Q1971 647 1909 647Q1796 647 1744.5 595.5Q1693 544 1693 431V171Q1693 79 1661.0 -4.0Q1629 -87 1572.0 -150.0Q1515 -213 1436.0 -250.0Q1357 -287 1262 -287Q1167 -287 1088.0 -250.0Q1009 -213 952.0 -150.0Q895 -87 863.0 -4.0Q831 79 831 171V507Q720 520 639.0 567.0Q558 614 505.0 686.0Q452 758 426.0 851.0Q400 944 400 1049V1078L472 1150Q489 1131 506.5 1112.0Q524 1093 544 1078Q544 991 564.0 912.5Q584 834 627.5 775.0Q671 716 739.0 681.5Q807 647 903 647Q999 647 1067.5 681.5Q1136 716 1179.0 775.0Q1222 834 1242.0 912.5Q1262 991 1262 1078Q1283 1092 1300.0 1111.5Q1317 1131 1334 1150L1406 1078V1042Q1406 938 1379.5 846.5Q1353 755 1299.0 683.5Q1245 612 1164.0 565.5Q1083 519 975 507V171Q975 112 996.5 55.5Q1018 -1 1056.5 -45.5Q1095 -90 1147.5 -117.0Q1200 -144 1262 -144Q1324 -144 1376.5 -117.0Q1429 -90 1467.5 -46.0Q1506 -2 1528.0 55.0Q1550 112 1550 171V424Q1550 505 1575.5 572.5Q1601 640 1648.0 688.5Q1695 737 1761.0 764.0Q1827 791 1909 791ZM1047 1581Q1047 1610 1067.0 1631.5Q1087 1653 1117 1653H1190L1262 1581L1190 1510H1117Q1088 1510 1067.5 1531.0Q1047 1552 1047 1581Z" style="fill:#635994;stroke:none" transform="scale(1,-1) translate(0,-256)" /></svg>