<?xml version="1.0" encoding="utf-8" ?>
<svg baseProfile="full" height="256" version="1.1" width="256" xmlns="http://www.w3.org/2000/svg" xmlns:ev="http://www.w3.org/2001/xml-events" xmlns:xlink="http://www.w3.org/1999/xlink"><defs /><path d="M1406 1797Q1459 1797 1536.0 1795.0Q1613 1793 1701.5 1787.5Q1790 1782 1883.0 1771.5Q1976 1761 2060.5 1743.5Q2145 1726 2214.0 1700.5Q2283 1675 2324 1640L2304 1655Q2304 1643 2290.5 1624.0Q2277 1605 2258.5 1585.0Q2240 1565 2221.5 1547.5Q2203 1530 2193 1521Q2133 1519 2071.0 1519.0Q2009 1519 1949 1511Q1915 1507 1881.5 1502.0Q1848 1497 1813 1493Q1711 1482 1610.0 1478.0Q1509 1474 1406 1474Q1306 1474 1208.0 1478.0Q1110 1482 1011 1492Q976 1496 941.5 1501.0Q907 1506 872 1510H867Q798 1510 729.5 1516.5Q661 1523 593 1528Q564 1553 534.5 1578.0Q505 1603 480 1632Q521 1670 590.5 1697.0Q660 1724 745.0 1742.5Q830 1761 923.5 1771.5Q1017 1782 1106.0 1788.0Q1195 1794 1273.5 1795.5Q1352 1797 1406 1797Z" style="fill:#1c5cd7;stroke:none" transform="scale(1,-1) translate(0,-256)" /></svg>