<?xml version="1.0" encoding="utf-8" ?>
<svg baseProfile="full" height="256" version="1.1" width="256" xmlns="http://www.w3.org/2000/svg" xmlns:ev="http://www.w3.org/2001/xml-events" xmlns:xlink="http://www.w3.org/1999/xlink"><defs /><path d="M480 1632Q493 1617 521.0 1602.5Q549 1588 585.5 1574.5Q622 1561 663.0 1549.0Q704 1537 742.5 1528.5Q781 1520 814.0 1515.0Q847 1510 867 1510H872Q905 1506 938.0 1501.0Q971 1496 1004 1493Q1105 1482 1205.0 1478.0Q1305 1474 1406 1474Q1543 1474 1677.5 1482.5Q1812 1491 1949 1511Q1964 1513 1996.0 1519.5Q2028 1526 2067.5 1535.5Q2107 1545 2149.0 1557.5Q2191 1570 2225.5 1585.0Q2260 1600 2282.0 1617.0Q2304 1634 2304 1653V1655Q2336 1632 2356.0 1600.5Q2376 1569 2376 1528Q2376 1496 2361.5 1466.0Q2347 1436 2324 1415Q2285 1380 2216.0 1355.0Q2147 1330 2062.0 1312.5Q1977 1295 1883.5 1284.0Q1790 1273 1701.0 1267.5Q1612 1262 1535.0 1260.0Q1458 1258 1406 1258Q1354 1258 1277.0 1260.0Q1200 1262 1111.0 1267.5Q1022 1273 928.5 1284.0Q835 1295 750.0 1312.5Q665 1330 596.0 1355.0Q527 1380 488 1415Q465 1436 450.5 1466.0Q436 1496 436 1528Q436 1557 448.0 1584.0Q460 1611 480 1632Z" style="fill:#3f5fff;stroke:none" transform="scale(1,-1) translate(0,-256)" /></svg>