<?xml version="1.0" encoding="utf-8" ?>
<svg baseProfile="full" height="256" version="1.1" width="256" xmlns="http://www.w3.org/2000/svg" xmlns:ev="http://www.w3.org/2001/xml-events" xmlns:xlink="http://www.w3.org/1999/xlink"><defs /><path d="M1482 1050Q1482 964 1449.0 888.5Q1416 813 1360.0 757.0Q1304 701 1228.0 668.5Q1152 636 1067 636Q981 636 906.0 668.5Q831 701 774.5 757.5Q718 814 685.5 889.0Q653 964 653 1050Q653 1136 680.5 1203.5Q708 1271 755.5 1322.5Q803 1374 866.0 1409.5Q929 1445 1000.5 1467.5Q1072 1490 1147.5 1500.0Q1223 1510 1295 1510Q1420 1510 1545.0 1477.0Q1670 1444 1782.5 1383.0Q1895 1322 1989.5 1235.0Q2084 1148 2148 1039Q2153 1030 2156.5 1020.5Q2160 1011 2160 1000Q2160 971 2138.5 949.5Q2117 928 2088 928Q2066 928 2053.0 937.0Q2040 946 2027 962Q2001 994 1978.5 1027.5Q1956 1061 1928 1091Q1871 1152 1803.5 1201.0Q1736 1250 1660.0 1285.0Q1584 1320 1503.0 1340.0Q1422 1360 1338 1364Q1407 1305 1444.5 1223.0Q1482 1141 1482 1050ZM1338 1050Q1338 1106 1316.5 1155.5Q1295 1205 1258.5 1241.5Q1222 1278 1172.5 1299.5Q1123 1321 1067 1321Q1011 1321 961.5 1299.5Q912 1278 875.5 1241.5Q839 1205 817.5 1155.5Q796 1106 796 1050Q796 994 817.5 944.5Q839 895 875.5 858.5Q912 822 961.5 800.5Q1011 779 1067 779Q1123 779 1172.5 800.5Q1222 822 1258.5 858.5Q1295 895 1316.5 944.5Q1338 994 1338 1050ZM1744 802Q1829 802 1905.0 769.5Q1981 737 2037.0 681.0Q2093 625 2126.0 549.5Q2159 474 2159 388Q2159 324 2140.0 264.5Q2121 205 2086.5 154.5Q2052 104 2003.5 65.0Q1955 26 1896 2H1895Q1804 -35 1709.0 -53.5Q1614 -72 1517 -72Q1386 -72 1261.5 -39.0Q1137 -6 1023 58Q972 86 920.5 124.0Q869 162 821.5 206.0Q774 250 733.0 299.0Q692 348 663 399Q652 418 652 437Q652 466 674.0 488.0Q696 510 725 510Q746 510 759.0 501.0Q772 492 785 476Q811 444 833.5 411.0Q856 378 884 347Q940 285 1008.5 236.5Q1077 188 1152.5 153.0Q1228 118 1309.5 98.0Q1391 78 1474 74Q1405 133 1367.5 215.0Q1330 297 1330 388Q1330 473 1362.5 548.5Q1395 624 1451.5 680.5Q1508 737 1583.0 769.5Q1658 802 1744 802ZM1474 388Q1474 332 1495.0 282.5Q1516 233 1553.0 196.5Q1590 160 1639.0 138.5Q1688 117 1744 117Q1800 117 1849.5 138.0Q1899 159 1935.5 196.0Q1972 233 1993.5 282.5Q2015 332 2015 388Q2015 444 1993.5 493.5Q1972 543 1935.5 579.5Q1899 616 1849.5 637.5Q1800 659 1744 659Q1688 659 1639.0 637.5Q1590 616 1553.0 579.5Q1516 543 1495.0 493.5Q1474 444 1474 388Z" style="fill:#ffffff;stroke:none" transform="scale(1,-1) translate(0,-256)" /></svg>