<?xml version="1.0" encoding="utf-8" ?>
<svg baseProfile="full" height="256" version="1.1" width="256" xmlns="http://www.w3.org/2000/svg" xmlns:ev="http://www.w3.org/2001/xml-events" xmlns:xlink="http://www.w3.org/1999/xlink"><defs /><path d="M2340 483Q2340 389 2315.5 301.5Q2291 214 2246.5 138.0Q2202 62 2140.0 0.0Q2078 -62 2002.0 -106.5Q1926 -151 1838.5 -175.5Q1751 -200 1657 -200Q1563 -200 1475.5 -175.5Q1388 -151 1312.0 -106.5Q1236 -62 1173.5 0.0Q1111 62 1066.5 138.0Q1022 214 997.5 301.5Q973 389 973 483Q973 625 1026.5 749.5Q1080 874 1173.0 967.0Q1266 1060 1390.5 1113.5Q1515 1167 1657 1167Q1751 1167 1838.5 1142.5Q1926 1118 2002.0 1073.5Q2078 1029 2140.0 966.5Q2202 904 2246.5 828.0Q2291 752 2315.5 664.5Q2340 577 2340 483ZM2141 304Q2141 375 2114.0 437.0Q2087 499 2040.5 545.5Q1994 592 1931.5 618.5Q1869 645 1799 645Q1728 645 1666.0 618.0Q1604 591 1558.0 545.0Q1512 499 1485.0 436.5Q1458 374 1458 304Q1458 233 1484.5 171.0Q1511 109 1557.5 62.5Q1604 16 1666.0 -11.0Q1728 -38 1799 -38Q1870 -38 1932.0 -11.0Q1994 16 2040.5 62.5Q2087 109 2114.0 171.0Q2141 233 2141 304Z" style="fill:#a56953;stroke:none" transform="scale(1,-1) translate(0,-256)" /></svg>