<?xml version="1.0" encoding="utf-8" ?>
<svg baseProfile="full" height="256" version="1.1" width="256" xmlns="http://www.w3.org/2000/svg" xmlns:ev="http://www.w3.org/2001/xml-events" xmlns:xlink="http://www.w3.org/1999/xlink"><defs /><path d="M436 1599Q436 1625 446.0 1648.0Q456 1671 473.0 1688.0Q490 1705 512.5 1715.0Q535 1725 561 1725Q587 1725 610.0 1715.0Q633 1705 650.0 1688.0Q667 1671 677.0 1648.0Q687 1625 687 1599Q687 1563 667.5 1532.0Q648 1501 615 1486V1233H508V1486Q475 1501 455.5 1532.0Q436 1563 436 1599ZM687 1599Q687 1563 707.0 1532.5Q727 1502 759 1486V1233H867V1486Q899 1502 919.0 1532.5Q939 1563 939 1599Q939 1625 929.0 1648.0Q919 1671 902.0 1688.0Q885 1705 862.0 1715.0Q839 1725 813 1725Q787 1725 764.0 1715.0Q741 1705 724.0 1688.0Q707 1671 697.0 1648.0Q687 1625 687 1599Z" style="fill:#d3883e;stroke:none" transform="scale(1,-1) translate(0,-256)" /></svg>