<?xml version="1.0" encoding="utf-8" ?>
<svg baseProfile="full" height="256" version="1.1" width="256" xmlns="http://www.w3.org/2000/svg" xmlns:ev="http://www.w3.org/2001/xml-events" xmlns:xlink="http://www.w3.org/1999/xlink"><defs /><path d="M1550 1510Q1669 1510 1779.0 1479.0Q1889 1448 1985.0 1392.0Q2081 1336 2159.5 1257.0Q2238 1178 2294.0 1082.0Q2350 986 2381.0 876.0Q2412 766 2412 647Q2412 528 2381.0 418.0Q2350 308 2294.0 212.0Q2238 116 2159.5 37.5Q2081 -41 1985.0 -97.0Q1889 -153 1779.0 -184.0Q1669 -215 1550 -215Q1413 -215 1286.0 -173.5Q1159 -132 1052.0 -56.5Q945 19 863.5 125.0Q782 231 736 360H773V1022Q827 1134 908.5 1224.0Q990 1314 1091.5 1377.5Q1193 1441 1309.5 1475.5Q1426 1510 1550 1510Z" style="fill:#6d4534;stroke:none" transform="scale(1,-1) translate(0,-256)" /></svg>