<?xml version="1.0" encoding="utf-8" ?>
<svg baseProfile="full" height="256" version="1.1" width="256" xmlns="http://www.w3.org/2000/svg" xmlns:ev="http://www.w3.org/2001/xml-events" xmlns:xlink="http://www.w3.org/1999/xlink"><defs /><path d="M1116 191Q1156 114 1214.0 52.0Q1272 -10 1343.0 -53.5Q1414 -97 1496.0 -120.5Q1578 -144 1665 -144Q1743 -144 1817.5 -124.5Q1892 -105 1959.0 -69.0Q2026 -33 2083.0 19.0Q2140 71 2183 136Q2233 126 2275.0 100.0Q2317 74 2347.5 36.5Q2378 -1 2395.0 -47.5Q2412 -94 2412 -145V-175Q2412 -198 2403.0 -218.5Q2394 -239 2379.0 -254.0Q2364 -269 2343.5 -278.0Q2323 -287 2300 -287L848 -282Q755 -282 673.5 -246.5Q592 -211 531.0 -150.0Q470 -89 435.0 -7.5Q400 74 400 167V1084Q400 1144 422.5 1196.0Q445 1248 483.5 1286.5Q522 1325 574.0 1347.5Q626 1370 686 1370Q745 1370 797.5 1347.5Q850 1325 889.0 1286.0Q928 1247 950.5 1195.0Q973 1143 973 1084V461Q973 422 983.0 383.0Q993 344 1012.0 308.5Q1031 273 1057.0 243.0Q1083 213 1116 191Z" style="fill:#f3ad61;stroke:none" transform="scale(1,-1) translate(0,-256)" /></svg>