<?xml version="1.0" encoding="utf-8" ?>
<svg baseProfile="full" height="256" version="1.1" width="256" xmlns="http://www.w3.org/2000/svg" xmlns:ev="http://www.w3.org/2001/xml-events" xmlns:xlink="http://www.w3.org/1999/xlink"><defs /><path d="M1135 928Q1135 941 1150.0 951.0Q1165 961 1185.0 967.5Q1205 974 1225.0 977.0Q1245 980 1254 980Q1261 980 1268.5 980.0Q1276 980 1282.5 977.5Q1289 975 1293.5 970.0Q1298 965 1298 956Q1298 948 1292.0 942.0Q1286 936 1278 936Q1256 936 1237.0 935.5Q1218 935 1197 926Q1189 923 1175.5 915.0Q1162 907 1156 907Q1147 907 1141.0 913.0Q1135 919 1135 928ZM1654 907Q1650 907 1640.5 911.5Q1631 916 1617.5 922.0Q1604 928 1588.0 932.5Q1572 937 1554 937Q1548 937 1541.0 936.5Q1534 936 1527.5 937.0Q1521 938 1516.5 942.5Q1512 947 1512 956Q1512 965 1516.5 970.0Q1521 975 1527.5 977.5Q1534 980 1541.5 980.0Q1549 980 1556 980Q1567 980 1582.0 978.0Q1597 976 1612.5 971.5Q1628 967 1642.0 961.0Q1656 955 1664 947Q1676 942 1676 929Q1676 920 1669.5 913.5Q1663 907 1654 907Z" style="fill:#9b9b9b;stroke:none" transform="scale(1,-1) translate(0,-256)" /></svg>