<?xml version="1.0" encoding="utf-8" ?>
<svg baseProfile="full" height="256" version="1.1" width="256" xmlns="http://www.w3.org/2000/svg" xmlns:ev="http://www.w3.org/2001/xml-events" xmlns:xlink="http://www.w3.org/1999/xlink"><defs /><path d="M1246 835Q1262 835 1272.5 824.5Q1283 814 1283 798Q1283 787 1278 781H1213Q1208 789 1208 798Q1208 814 1219.0 824.5Q1230 835 1246 835ZM1564 835Q1548 835 1537.5 824.5Q1527 814 1527 798Q1527 787 1532 781H1597Q1601 788 1601 798Q1601 814 1590.5 824.5Q1580 835 1564 835Z" style="fill:#000000;stroke:none" transform="scale(1,-1) translate(0,-256)" /></svg>