<?xml version="1.0" encoding="utf-8" ?>
<svg baseProfile="full" height="256" version="1.1" width="256" xmlns="http://www.w3.org/2000/svg" xmlns:ev="http://www.w3.org/2001/xml-events" xmlns:xlink="http://www.w3.org/1999/xlink"><defs /><path d="M1995 108H2212Q2238 108 2253.0 87.5Q2268 67 2268 43V-222Q2268 -246 2253.0 -266.5Q2238 -287 2212 -287H1995Q1971 -287 1958.0 -268.5Q1945 -250 1945 -228Q1945 -200 1967 -184Q1956 -176 1950.5 -163.5Q1945 -151 1945 -137Q1945 -109 1967 -90Q1956 -82 1950.5 -69.5Q1945 -57 1945 -44Q1945 -30 1950.5 -17.5Q1956 -5 1967 3Q1957 11 1951.0 22.5Q1945 34 1945 47Q1945 69 1958.0 88.5Q1971 108 1995 108Z" style="fill:#ffc83d;stroke:none" transform="scale(1,-1) translate(0,-256)" /></svg>