<?xml version="1.0" encoding="utf-8" ?>
<svg baseProfile="full" height="256" version="1.1" width="256" xmlns="http://www.w3.org/2000/svg" xmlns:ev="http://www.w3.org/2001/xml-events" xmlns:xlink="http://www.w3.org/1999/xlink"><defs /><path d="M1154 794Q1154 772 1145.5 752.5Q1137 733 1122.5 718.5Q1108 704 1088.5 695.5Q1069 687 1047 687Q1025 687 1005.5 695.5Q986 704 971.0 718.0Q956 732 947.5 751.5Q939 771 939 794Q939 816 947.5 836.0Q956 856 970.5 870.5Q985 885 1004.5 893.5Q1024 902 1047 902Q1069 902 1089.0 893.5Q1109 885 1123.0 870.0Q1137 855 1145.5 835.5Q1154 816 1154 794ZM1873 794Q1873 771 1864.5 751.5Q1856 732 1841.0 718.0Q1826 704 1806.5 695.5Q1787 687 1765 687Q1743 687 1723.5 695.5Q1704 704 1689.5 718.5Q1675 733 1666.5 752.5Q1658 772 1658 794Q1658 816 1666.5 835.5Q1675 855 1689.0 870.0Q1703 885 1722.5 893.5Q1742 902 1765 902Q1787 902 1807.0 893.5Q1827 885 1841.5 870.5Q1856 856 1864.5 836.0Q1873 816 1873 794Z" style="fill:#fdbb11;stroke:none" transform="scale(1,-1) translate(0,-256)" /></svg>