<?xml version="1.0" encoding="utf-8" ?>
<svg baseProfile="full" height="256" version="1.1" width="256" xmlns="http://www.w3.org/2000/svg" xmlns:ev="http://www.w3.org/2001/xml-events" xmlns:xlink="http://www.w3.org/1999/xlink"><defs /><path d="M1235 824Q1235 819 1231.5 815.5Q1228 812 1223 812Q1218 812 1215.0 815.5Q1212 819 1212 824Q1212 835 1223 835Q1228 835 1231.5 832.0Q1235 829 1235 824ZM1555 824Q1555 819 1552.0 815.5Q1549 812 1544 812Q1539 812 1535.5 815.5Q1532 819 1532 824Q1532 829 1535.5 832.0Q1539 835 1544 835Q1555 835 1555 824Z" style="fill:#ffffff;stroke:none" transform="scale(1,-1) translate(0,-256)" /></svg>