<?xml version="1.0" encoding="utf-8" ?>
<svg baseProfile="full" height="256" version="1.1" width="256" xmlns="http://www.w3.org/2000/svg" xmlns:ev="http://www.w3.org/2001/xml-events" xmlns:xlink="http://www.w3.org/1999/xlink"><defs /><path d="M2204 1491Q2210 1491 2215 1488Q2260 1465 2286.5 1419.0Q2313 1373 2313 1323Q2313 1274 2295.0 1242.0Q2277 1210 2255.0 1189.5Q2233 1169 2215.0 1157.5Q2197 1146 2197 1138V-6Q2197 -36 2178.5 -58.0Q2160 -80 2128 -80Q2097 -80 2075.0 -58.5Q2053 -37 2053 -6V1138Q2053 1146 2050.0 1149.5Q2047 1153 2041 1157Q1993 1188 1966.0 1226.5Q1939 1265 1939 1325Q1939 1376 1965.5 1420.0Q1992 1464 2037 1488Q2041 1491 2047 1491Q2062 1491 2066.5 1476.5Q2071 1462 2070.5 1440.0Q2070 1418 2068.5 1393.0Q2067 1368 2070.5 1346.0Q2074 1324 2086.0 1309.5Q2098 1295 2125 1295Q2153 1295 2165.0 1309.5Q2177 1324 2181.0 1346.0Q2185 1368 2183.0 1393.0Q2181 1418 2180.5 1440.0Q2180 1462 2184.0 1476.5Q2188 1491 2204 1491Z" style="fill:#f3ad61;stroke:none" transform="scale(1,-1) translate(0,-256)" /></svg>