<?xml version="1.0" encoding="utf-8" ?>
<svg baseProfile="full" height="256" version="1.1" width="256" xmlns="http://www.w3.org/2000/svg" xmlns:ev="http://www.w3.org/2001/xml-events" xmlns:xlink="http://www.w3.org/1999/xlink"><defs /><path d="M1782 891V890L1761 566Q1760 550 1755.0 533.0Q1750 516 1744 502Q1728 461 1700.5 428.0Q1673 395 1637.5 372.0Q1602 349 1560.5 336.5Q1519 324 1476 324H1337Q1293 324 1251.5 336.5Q1210 349 1175.0 372.0Q1140 395 1112.0 428.0Q1084 461 1068 502Q1062 516 1057.0 533.0Q1052 550 1051 566Q1045 648 1039.5 730.0Q1034 812 1029 894L1028 906Q1028 935 1039.5 960.0Q1051 985 1070.0 1003.0Q1089 1021 1114.5 1031.5Q1140 1042 1169 1042H1643Q1671 1042 1696.5 1031.0Q1722 1020 1741.5 1001.5Q1761 983 1772.0 957.5Q1783 932 1783 903Q1783 900 1783.0 896.5Q1783 893 1782 890Z" style="fill:#ffc83d;stroke:none" transform="scale(1,-1) translate(0,-256)" /></svg>