<?xml version="1.0" encoding="utf-8" ?>
<svg baseProfile="full" height="256" version="1.1" width="256" xmlns="http://www.w3.org/2000/svg" xmlns:ev="http://www.w3.org/2001/xml-events" xmlns:xlink="http://www.w3.org/1999/xlink"><defs /><path d="M1530 753Q1536 753 1543.5 747.5Q1551 742 1561.5 735.5Q1572 729 1585.5 723.5Q1599 718 1617 718Q1626 718 1632.0 712.0Q1638 706 1638 697Q1638 689 1631.5 682.5Q1625 676 1617 676Q1585 676 1562.5 687.0Q1540 698 1515 717Q1513 719 1511.0 724.0Q1509 729 1509 732Q1509 740 1515.5 746.5Q1522 753 1530 753ZM1289 753Q1298 753 1304.5 746.5Q1311 740 1311 731Q1311 723 1305 717H1304Q1285 697 1257.5 686.5Q1230 676 1203 676Q1195 676 1188.5 682.5Q1182 689 1182 697Q1182 706 1188.0 712.0Q1194 718 1203 718Q1221 718 1234.5 723.5Q1248 729 1258.5 735.5Q1269 742 1276.5 747.5Q1284 753 1289 753Z" style="fill:#d67d00;stroke:none" transform="scale(1,-1) translate(0,-256)" /></svg>