<?xml version="1.0" encoding="utf-8" ?>
<svg baseProfile="full" height="256" version="1.1" width="256" xmlns="http://www.w3.org/2000/svg" xmlns:ev="http://www.w3.org/2001/xml-events" xmlns:xlink="http://www.w3.org/1999/xlink"><defs /><path d="M1231 882Q1247 882 1265.0 875.0Q1283 868 1297.5 856.5Q1312 845 1321.5 829.5Q1331 814 1331 796Q1331 789 1325.5 785.0Q1320 781 1314 781H1152Q1144 781 1137.5 787.0Q1131 793 1131 801Q1131 818 1141.0 832.5Q1151 847 1166.0 858.0Q1181 869 1198.5 875.5Q1216 882 1231 882ZM1579 882Q1562 882 1544.5 875.0Q1527 868 1512.5 856.0Q1498 844 1488.5 828.0Q1479 812 1479 794Q1479 788 1485.0 784.5Q1491 781 1496 781H1658Q1666 781 1672.5 787.0Q1679 793 1679 801Q1679 818 1669.0 832.5Q1659 847 1644.0 858.0Q1629 869 1611.5 875.5Q1594 882 1579 882Z" style="fill:#ffffff;stroke:none" transform="scale(1,-1) translate(0,-256)" /></svg>