<?xml version="1.0" encoding="utf-8" ?>
<svg baseProfile="full" height="256" version="1.1" width="256" xmlns="http://www.w3.org/2000/svg" xmlns:ev="http://www.w3.org/2001/xml-events" xmlns:xlink="http://www.w3.org/1999/xlink"><defs /><path d="M1343 670Q1343 679 1348.0 697.5Q1353 716 1359.5 736.0Q1366 756 1372.5 774.5Q1379 793 1382 804Q1385 813 1393.0 818.0Q1401 823 1410 823Q1419 823 1427.0 818.0Q1435 813 1438 804Q1441 795 1447.5 776.0Q1454 757 1460.5 736.0Q1467 715 1472.0 696.5Q1477 678 1477 671Q1477 655 1465.5 643.5Q1454 632 1438 632H1382Q1366 632 1354.5 643.0Q1343 654 1343 670Z" style="fill:#ed9200;stroke:none" transform="scale(1,-1) translate(0,-256)" /></svg>