<?xml version="1.0" encoding="utf-8" ?>
<svg baseProfile="full" height="256" version="1.1" width="256" xmlns="http://www.w3.org/2000/svg" xmlns:ev="http://www.w3.org/2001/xml-events" xmlns:xlink="http://www.w3.org/1999/xlink"><defs /><path d="M1172 1078Q1194 1078 1210.0 1063.0Q1226 1048 1226 1025V916Q1226 894 1210.5 878.5Q1195 863 1173 863Q1150 863 1134.0 878.0Q1118 893 1118 916V1025Q1118 1048 1134.0 1063.0Q1150 1078 1172 1078ZM1639 1078Q1662 1078 1677.5 1063.0Q1693 1048 1693 1025V916Q1693 894 1677.5 878.5Q1662 863 1640 863Q1618 863 1602.0 878.0Q1586 893 1586 916V1025Q1586 1047 1601.5 1062.5Q1617 1078 1639 1078Z" style="fill:#1c1c1c;stroke:none" transform="scale(1,-1) translate(0,-256)" /></svg>