<?xml version="1.0" encoding="utf-8" ?>
<svg baseProfile="full" height="256" version="1.1" width="256" xmlns="http://www.w3.org/2000/svg" xmlns:ev="http://www.w3.org/2001/xml-events" xmlns:xlink="http://www.w3.org/1999/xlink"><defs /><path d="M2392 12Q2396 10 2400.0 3.5Q2404 -3 2406.5 -10.5Q2409 -18 2410.5 -26.0Q2412 -34 2412 -38Q2412 -57 2403 -73Q2377 -118 2339.5 -155.5Q2302 -193 2257.0 -220.5Q2212 -248 2161.5 -265.0Q2111 -282 2060 -286V-287H2029Q1806 -287 1591.0 -226.0Q1376 -165 1185 -50V-49Q1062 24 956.0 117.0Q850 210 763.0 318.5Q676 427 608.5 549.0Q541 671 494.5 802.5Q448 934 424.0 1073.0Q400 1212 400 1354Q400 1406 416.5 1459.5Q433 1513 461.5 1561.0Q490 1609 529.5 1649.0Q569 1689 614 1715Q632 1725 649 1725Q653 1725 661.0 1723.5Q669 1722 676.5 1719.5Q684 1717 690.5 1713.0Q697 1709 699 1705L867 1366L1211 1193Q1215 1191 1219.0 1184.5Q1223 1178 1225.5 1170.5Q1228 1163 1229.5 1155.0Q1231 1147 1231 1143Q1231 1126 1221 1108Q1190 1054 1142.0 1010.0Q1094 966 1038 939Q1023 931 1007.0 925.5Q991 920 975 914Q949 903 932.5 883.0Q916 863 916 833Q916 809 929 789Q1035 618 1168.5 481.5Q1302 345 1476 242Q1475 240 1481.0 237.5Q1487 235 1495.0 233.0Q1503 231 1510.5 229.5Q1518 228 1520 228Q1549 228 1569.5 245.0Q1590 262 1601 288Q1607 304 1612.5 319.5Q1618 335 1626 351Q1653 406 1697.0 454.5Q1741 503 1795 534Q1813 544 1830 544Q1840 544 1857.5 538.5Q1875 533 1880 524L2060 180Z" style="fill:#f8312f;stroke:none" transform="scale(1,-1) translate(0,-256)" /></svg>