<?xml version="1.0" encoding="utf-8" ?>
<svg baseProfile="full" height="256" version="1.1" width="256" xmlns="http://www.w3.org/2000/svg" xmlns:ev="http://www.w3.org/2001/xml-events" xmlns:xlink="http://www.w3.org/1999/xlink"><defs /><path d="M1536 1761Q1554 1761 1569.5 1754.0Q1585 1747 1596.5 1735.5Q1608 1724 1615.0 1708.5Q1622 1693 1622 1675V1617H1550Q1550 1622 1551.0 1634.0Q1552 1646 1551.5 1658.0Q1551 1670 1548.0 1679.5Q1545 1689 1536 1689H1276Q1267 1689 1264.0 1679.5Q1261 1670 1260.5 1658.0Q1260 1646 1261.0 1634.0Q1262 1622 1262 1617H1190V1675Q1190 1693 1197.0 1708.5Q1204 1724 1215.5 1735.5Q1227 1747 1242.5 1754.0Q1258 1761 1276 1761ZM1118 -294Q1089 -294 1068.0 -273.0Q1047 -252 1047 -223V-144H1190V-223Q1190 -253 1169.0 -273.5Q1148 -294 1118 -294ZM1693 -294Q1664 -294 1643.0 -273.0Q1622 -252 1622 -223V-144H1765V-223Q1765 -253 1744.0 -273.5Q1723 -294 1693 -294Z" style="fill:#212121;stroke:none" transform="scale(1,-1) translate(0,-256)" /></svg>