<?xml version="1.0" encoding="utf-8" ?>
<svg baseProfile="full" height="256" version="1.1" width="256" xmlns="http://www.w3.org/2000/svg" xmlns:ev="http://www.w3.org/2001/xml-events" xmlns:xlink="http://www.w3.org/1999/xlink"><defs /><path d="M1047 -72Q1018 -72 996.5 -50.5Q975 -29 975 0V1222Q975 1252 996.0 1273.0Q1017 1294 1047 1294Q1076 1294 1097.0 1272.5Q1118 1251 1118 1222V0Q1118 -29 1097.0 -50.5Q1076 -72 1047 -72ZM1406 -72Q1377 -72 1355.5 -50.5Q1334 -29 1334 0V1222Q1334 1252 1355.0 1273.0Q1376 1294 1406 1294Q1435 1294 1456.5 1272.5Q1478 1251 1478 1222V0Q1478 -29 1456.5 -50.5Q1435 -72 1406 -72ZM1693 0Q1693 -29 1714.5 -50.5Q1736 -72 1765 -72Q1795 -72 1816.0 -51.0Q1837 -30 1837 0V1222Q1837 1252 1816.0 1273.0Q1795 1294 1765 1294Q1736 1294 1714.5 1272.5Q1693 1251 1693 1222Z" style="fill:#26eafc;stroke:none" transform="scale(1,-1) translate(0,-256)" /></svg>