<?xml version="1.0" encoding="utf-8" ?>
<svg baseProfile="full" height="256" version="1.1" width="256" xmlns="http://www.w3.org/2000/svg" xmlns:ev="http://www.w3.org/2001/xml-events" xmlns:xlink="http://www.w3.org/1999/xlink"><defs /><path d="M1394 1219Q1423 1219 1450.0 1203.5Q1477 1188 1501 1174Q1544 1150 1577.5 1119.5Q1611 1089 1638.0 1054.0Q1665 1019 1686.5 979.0Q1708 939 1726 894Q1729 886 1740.0 861.0Q1751 836 1762.0 808.5Q1773 781 1782.0 757.5Q1791 734 1791 729Q1791 715 1780 706Q1739 672 1682.5 651.0Q1626 630 1573 630Q1566 630 1559.5 630.0Q1553 630 1546 632L1481 883L1332 1029Q1312 1049 1300.5 1066.5Q1289 1084 1289 1114Q1289 1135 1297.0 1154.5Q1305 1174 1319.5 1188.0Q1334 1202 1353.0 1210.5Q1372 1219 1394 1219Z" style="fill:#00a6ed;stroke:none" transform="scale(1,-1) translate(0,-256)" /></svg>