<?xml version="1.0" encoding="utf-8" ?>
<svg baseProfile="full" height="256" version="1.1" width="256" xmlns="http://www.w3.org/2000/svg" xmlns:ev="http://www.w3.org/2001/xml-events" xmlns:xlink="http://www.w3.org/1999/xlink"><defs /><path d="M1436 1178Q1437 1172 1441.0 1152.0Q1445 1132 1449.0 1110.0Q1453 1088 1456.5 1069.5Q1460 1051 1460 1047Q1460 1033 1446 1033Q1443 1033 1429.0 1041.5Q1415 1050 1395.5 1063.5Q1376 1077 1353.0 1093.0Q1330 1109 1309.5 1123.5Q1289 1138 1273.5 1148.5Q1258 1159 1253 1163Q1277 1177 1304.0 1185.0Q1331 1193 1360 1193Q1400 1193 1436 1178Z" style="fill:#fcb100;stroke:none" transform="scale(1,-1) translate(0,-256)" /></svg>