<?xml version="1.0" encoding="utf-8" ?>
<svg baseProfile="full" height="256" version="1.1" width="256" xmlns="http://www.w3.org/2000/svg" xmlns:ev="http://www.w3.org/2001/xml-events" xmlns:xlink="http://www.w3.org/1999/xlink"><defs /><path d="M1599 631 1812 364Q1826 347 1833.5 325.5Q1841 304 1841 281Q1841 271 1840 266L1793 -168Q1743 -177 1694 -177Q1673 -177 1646.5 -174.0Q1620 -171 1593.0 -165.0Q1566 -159 1542.0 -149.0Q1518 -139 1501 -124Q1505 -113 1518.0 -83.0Q1531 -53 1547.5 -14.0Q1564 25 1582.0 67.5Q1600 110 1615.0 146.5Q1630 183 1639.5 207.5Q1649 232 1649 235Q1649 249 1639 258L1461 409Z" style="fill:#007acf;stroke:none" transform="scale(1,-1) translate(0,-256)" /></svg>