<?xml version="1.0" encoding="utf-8" ?>
<svg baseProfile="full" height="256" version="1.1" width="256" xmlns="http://www.w3.org/2000/svg" xmlns:ev="http://www.w3.org/2001/xml-events" xmlns:xlink="http://www.w3.org/1999/xlink"><defs /><path d="M1660 1371 1681 1491 1846 1464Q1847 1459 1851.0 1441.5Q1855 1424 1859.0 1404.5Q1863 1385 1866.0 1368.5Q1869 1352 1869 1349Q1869 1341 1863.0 1335.5Q1857 1330 1849 1332ZM1457 1069 1439 1162 1470 1187Q1475 1182 1490.5 1168.0Q1506 1154 1523.0 1137.5Q1540 1121 1553.0 1106.5Q1566 1092 1566 1088Q1566 1081 1557 1079ZM1410 1054 1249 1167 1238 1162 1208 1004Q1206 996 1211.0 990.5Q1216 985 1224 985Q1226 985 1239.0 989.5Q1252 994 1271.5 1001.0Q1291 1008 1313.0 1016.5Q1335 1025 1355.0 1033.0Q1375 1041 1390.0 1046.5Q1405 1052 1410 1054ZM1066 697 1035 816 846 773Q841 771 837.5 766.5Q834 762 834 757Q834 751 843.5 736.0Q853 721 865.0 704.5Q877 688 888.5 673.5Q900 659 904 653Z" style="fill:#f95725;stroke:none" transform="scale(1,-1) translate(0,-256)" /></svg>