<?xml version="1.0" encoding="utf-8" ?>
<svg baseProfile="full" height="256" version="1.1" width="256" xmlns="http://www.w3.org/2000/svg" xmlns:ev="http://www.w3.org/2001/xml-events" xmlns:xlink="http://www.w3.org/1999/xlink"><defs /><path d="M1406 1577Q1432 1577 1447.5 1563.5Q1463 1550 1480 1533Q1490 1523 1502.5 1517.0Q1515 1511 1525.5 1503.5Q1536 1496 1543.0 1485.5Q1550 1475 1550 1457Q1550 1432 1543.5 1405.0Q1537 1378 1532 1353Q1529 1338 1513 1336Q1514 1347 1515.0 1359.0Q1516 1371 1516 1382Q1516 1391 1512.0 1396.0Q1508 1401 1502.5 1406.0Q1497 1411 1493.0 1417.0Q1489 1423 1489 1434Q1489 1439 1489.5 1445.5Q1490 1452 1489.5 1458.0Q1489 1464 1486.5 1469.0Q1484 1474 1477 1476Q1450 1484 1418.5 1486.5Q1387 1489 1359 1489Q1352 1489 1331.0 1488.5Q1310 1488 1287.5 1485.0Q1265 1482 1247.0 1476.5Q1229 1471 1229 1461V1435Q1229 1424 1225.0 1418.0Q1221 1412 1215.5 1407.0Q1210 1402 1206.0 1396.5Q1202 1391 1202 1381Q1202 1370 1203.0 1358.5Q1204 1347 1205 1336Q1190 1336 1186 1352Q1181 1377 1174.5 1404.0Q1168 1431 1168 1457Q1168 1475 1175.0 1485.5Q1182 1496 1192.5 1503.0Q1203 1510 1215.5 1516.5Q1228 1523 1238 1533Q1254 1549 1269.5 1564.5Q1285 1580 1309 1580Q1323 1580 1334.0 1574.5Q1345 1569 1359 1569Q1371 1569 1382.5 1573.0Q1394 1577 1406 1577Z" style="fill:#ed9200;stroke:none" transform="scale(1,-1) translate(0,-256)" /></svg>