<?xml version="1.0" encoding="utf-8" ?>
<svg baseProfile="full" height="256" version="1.1" width="256" xmlns="http://www.w3.org/2000/svg" xmlns:ev="http://www.w3.org/2001/xml-events" xmlns:xlink="http://www.w3.org/1999/xlink"><defs /><path d="M1190 539Q1185 555 1182.5 571.0Q1180 587 1180 604Q1180 611 1180.5 617.5Q1181 624 1182 631H1599L1597 604Q1592 535 1557.5 482.0Q1523 429 1454 406L1258 212Q1213 168 1193 108L1094 -188Q1086 -190 1078.0 -190.0Q1070 -190 1062 -190Q993 -190 931.5 -163.5Q870 -137 826 -82Q873 -20 918.5 37.5Q964 95 1005.0 154.0Q1046 213 1081.0 276.0Q1116 339 1143 412Z" style="fill:#0092e7;stroke:none" transform="scale(1,-1) translate(0,-256)" /></svg>