<?xml version="1.0" encoding="utf-8" ?>
<svg baseProfile="full" height="256" version="1.1" width="256" xmlns="http://www.w3.org/2000/svg" xmlns:ev="http://www.w3.org/2001/xml-events" xmlns:xlink="http://www.w3.org/1999/xlink"><defs /><path d="M1489 933Q1481 933 1476.0 937.5Q1471 942 1471 950Q1471 958 1476.5 962.5Q1482 967 1489 967Q1496 967 1501.0 962.0Q1506 957 1506 950Q1506 943 1501.0 938.0Q1496 933 1489 933ZM1507 817Q1500 817 1495.0 822.0Q1490 827 1490 834Q1490 841 1495.0 846.0Q1500 851 1507 851Q1514 851 1519.0 846.0Q1524 841 1524 834Q1524 817 1507 817ZM1529 708Q1529 701 1524.0 696.0Q1519 691 1512 691Q1505 691 1499.5 695.5Q1494 700 1494 708Q1494 716 1499.0 720.5Q1504 725 1512 725Q1519 725 1524.0 720.0Q1529 715 1529 708Z" style="fill:#e6e6e6;stroke:none" transform="scale(1,-1) translate(0,-256)" /></svg>