<?xml version="1.0" encoding="utf-8" ?>
<svg baseProfile="full" height="256" version="1.1" width="256" xmlns="http://www.w3.org/2000/svg" xmlns:ev="http://www.w3.org/2001/xml-events" xmlns:xlink="http://www.w3.org/1999/xlink"><defs /><path d="M1288 1368Q1302 1368 1316.5 1357.5Q1331 1347 1331 1332Q1331 1324 1324 1324H1252Q1245 1326 1245 1333Q1245 1348 1259.5 1358.0Q1274 1368 1288 1368ZM1439 1368Q1426 1368 1410.5 1357.0Q1395 1346 1395 1332Q1395 1324 1403 1324H1475Q1482 1326 1482 1333Q1482 1348 1467.5 1358.0Q1453 1368 1439 1368Z" style="fill:#ffffff;stroke:none" transform="scale(1,-1) translate(0,-256)" /></svg>