<?xml version="1.0" encoding="utf-8" ?>
<svg baseProfile="full" height="256" version="1.1" width="256" xmlns="http://www.w3.org/2000/svg" xmlns:ev="http://www.w3.org/2001/xml-events" xmlns:xlink="http://www.w3.org/1999/xlink"><defs /><path d="M1295 1348Q1301 1348 1306.0 1343.0Q1311 1338 1311 1332Q1311 1328 1309 1324H1280Q1279 1327 1279 1332Q1279 1338 1284.0 1343.0Q1289 1348 1295 1348ZM1433 1348Q1426 1348 1421.0 1343.5Q1416 1339 1416 1332Q1416 1328 1418 1324H1447Q1449 1328 1449 1332Q1449 1338 1444.0 1343.0Q1439 1348 1433 1348Z" style="fill:#7d4533;stroke:none" transform="scale(1,-1) translate(0,-256)" /></svg>