<?xml version="1.0" encoding="utf-8" ?>
<svg baseProfile="full" height="256" version="1.1" width="256" xmlns="http://www.w3.org/2000/svg" xmlns:ev="http://www.w3.org/2001/xml-events" xmlns:xlink="http://www.w3.org/1999/xlink"><defs /><path d="M1746 1582Q1746 1589 1746.5 1598.0Q1747 1607 1749.5 1615.5Q1752 1624 1757.5 1630.0Q1763 1636 1772 1636Q1780 1636 1785.5 1629.5Q1791 1623 1791 1615Q1797 1622 1807 1622Q1815 1622 1820.5 1615.5Q1826 1609 1826 1601Q1826 1596 1825.0 1588.0Q1824 1580 1822.0 1572.5Q1820 1565 1815.0 1559.5Q1810 1554 1803 1554Q1795 1554 1789.0 1558.5Q1783 1563 1782 1571Q1777 1563 1767 1563Q1759 1563 1752.5 1568.5Q1746 1574 1746 1582ZM1824 1565Q1824 1570 1824.5 1578.5Q1825 1587 1827.0 1595.0Q1829 1603 1834.0 1608.5Q1839 1614 1847 1614Q1855 1614 1861.0 1609.0Q1867 1604 1867 1596Q1867 1590 1866.5 1582.0Q1866 1574 1864.0 1566.0Q1862 1558 1857.5 1552.5Q1853 1547 1844 1547Q1836 1547 1830.0 1552.0Q1824 1557 1824 1565Z" style="fill:#fdbb11;stroke:none" transform="scale(1,-1) translate(0,-256)" /></svg>