<?xml version="1.0" encoding="utf-8" ?>
<svg baseProfile="full" height="256" version="1.1" width="256" xmlns="http://www.w3.org/2000/svg" xmlns:ev="http://www.w3.org/2001/xml-events" xmlns:xlink="http://www.w3.org/1999/xlink"><defs /><path d="M1290 1178Q1308 1178 1323.0 1171.5Q1338 1165 1349.5 1153.5Q1361 1142 1367.5 1127.0Q1374 1112 1374 1095Q1374 1063 1356 1041Q1385 996 1401.5 945.0Q1418 894 1418 840Q1418 765 1410.5 691.0Q1403 617 1396 542Q1395 533 1384.0 528.0Q1373 523 1358.5 521.0Q1344 519 1329.0 518.5Q1314 518 1307 518Q1298 518 1271.0 521.5Q1244 525 1215.5 532.0Q1187 539 1165.0 549.0Q1143 559 1143 573L1144 577Q1156 629 1170.5 683.0Q1185 737 1185 791Q1185 835 1175.0 869.0Q1165 903 1152 944L1017 886L1035 816L887 722Q883 738 874.5 768.0Q866 798 857.0 831.0Q848 864 841.5 893.0Q835 922 835 935Q835 960 849.0 981.0Q863 1002 886 1012L1258 1171Q1275 1178 1290 1178Z" style="fill:#00a6ed;stroke:none" transform="scale(1,-1) translate(0,-256)" /></svg>