<?xml version="1.0" encoding="utf-8" ?>
<svg baseProfile="full" height="256" version="1.1" width="256" xmlns="http://www.w3.org/2000/svg" xmlns:ev="http://www.w3.org/2001/xml-events" xmlns:xlink="http://www.w3.org/1999/xlink"><defs /><path d="M1848 1613Q1867 1613 1867 1594Q1867 1581 1864.0 1560.0Q1861 1539 1856.5 1515.5Q1852 1492 1847.5 1470.5Q1843 1449 1840 1434L1675 1458Q1677 1472 1681.5 1489.0Q1686 1506 1686 1520Q1686 1533 1681.0 1542.0Q1676 1551 1670.5 1558.0Q1665 1565 1660.0 1571.0Q1655 1577 1655 1584Q1655 1592 1660.0 1597.0Q1665 1602 1673 1602Q1684 1602 1691.0 1592.5Q1698 1583 1704 1575L1723 1695Q1725 1711 1742 1711Q1750 1711 1756.0 1706.0Q1762 1701 1762 1692Q1762 1673 1757.5 1651.5Q1753 1630 1750 1611L1829 1599L1828 1598Q1833 1613 1848 1613ZM1058 727Q1058 725 1059.5 719.0Q1061 713 1062.5 706.5Q1064 700 1065.5 694.5Q1067 689 1068 688Q1079 683 1089.0 674.0Q1099 665 1099 651Q1099 648 1097.5 642.0Q1096 636 1094.0 629.5Q1092 623 1090.0 616.5Q1088 610 1087 606Q1097 596 1097 583Q1097 569 1084.0 557.5Q1071 546 1053.0 538.0Q1035 530 1016.0 525.5Q997 521 985 521Q977 521 966.5 523.0Q956 525 949 531Q941 538 932.5 560.0Q924 582 916.5 607.5Q909 633 903.5 655.5Q898 678 896 686Z" style="fill:#ffc83d;stroke:none" transform="scale(1,-1) translate(0,-256)" /></svg>