<?xml version="1.0" encoding="utf-8" ?>
<svg baseProfile="full" height="256" version="1.1" width="256" xmlns="http://www.w3.org/2000/svg" xmlns:ev="http://www.w3.org/2001/xml-events" xmlns:xlink="http://www.w3.org/1999/xlink"><defs /><path d="M1373 1538Q1403 1538 1429.0 1526.5Q1455 1515 1474.5 1495.0Q1494 1475 1505.5 1449.0Q1517 1423 1517 1393Q1517 1349 1512.5 1304.5Q1508 1260 1504 1216Q1501 1178 1474.0 1151.5Q1447 1125 1408 1125H1311Q1273 1125 1245.0 1151.0Q1217 1177 1214 1215Q1211 1260 1206.5 1305.0Q1202 1350 1202 1394Q1202 1424 1213.5 1450.0Q1225 1476 1244.5 1495.5Q1264 1515 1290.0 1526.5Q1316 1538 1346 1538Z" style="fill:#ffc83d;stroke:none" transform="scale(1,-1) translate(0,-256)" /></svg>