<?xml version="1.0" encoding="utf-8" ?>
<svg baseProfile="full" height="256" version="1.1" width="256" xmlns="http://www.w3.org/2000/svg" xmlns:ev="http://www.w3.org/2001/xml-events" xmlns:xlink="http://www.w3.org/1999/xlink"><defs /><path d="M1335 1277Q1335 1280 1337.0 1288.0Q1339 1296 1342.0 1305.0Q1345 1314 1348.0 1322.5Q1351 1331 1352 1334Q1356 1343 1364 1343Q1370 1343 1375.0 1334.5Q1380 1326 1383.5 1315.5Q1387 1305 1389.0 1295.0Q1391 1285 1392 1282Q1394 1274 1389.0 1267.0Q1384 1260 1376 1260H1347Q1342 1260 1338.5 1266.0Q1335 1272 1335 1277Z" style="fill:#ed9200;stroke:none" transform="scale(1,-1) translate(0,-256)" /></svg>