<?xml version="1.0" encoding="utf-8" ?>
<svg baseProfile="full" height="256" version="1.1" width="256" xmlns="http://www.w3.org/2000/svg" xmlns:ev="http://www.w3.org/2001/xml-events" xmlns:xlink="http://www.w3.org/1999/xlink"><defs /><path d="M1263 1325Q1263 1304 1248.0 1289.0Q1233 1274 1212 1274Q1191 1274 1175.5 1288.5Q1160 1303 1160 1325Q1160 1347 1175.0 1362.0Q1190 1377 1212 1377Q1234 1377 1248.5 1361.5Q1263 1346 1263 1325ZM1566 1325Q1566 1303 1550.5 1288.5Q1535 1274 1514 1274Q1493 1274 1478.0 1289.0Q1463 1304 1463 1325Q1463 1346 1477.5 1361.5Q1492 1377 1514 1377Q1536 1377 1551.0 1362.0Q1566 1347 1566 1325Z" style="fill:#fdbb11;stroke:none" transform="scale(1,-1) translate(0,-256)" /></svg>