<?xml version="1.0" encoding="utf-8" ?>
<svg baseProfile="full" height="256" version="1.1" width="256" xmlns="http://www.w3.org/2000/svg" xmlns:ev="http://www.w3.org/2001/xml-events" xmlns:xlink="http://www.w3.org/1999/xlink"><defs /><path d="M1406 1000Q1502 1000 1587.0 963.5Q1672 927 1735.5 864.0Q1799 801 1835.5 716.0Q1872 631 1872 535Q1872 438 1835.5 352.5Q1799 267 1736.0 203.5Q1673 140 1588.0 103.0Q1503 66 1406 66V575L1001 301Q971 355 955.0 414.0Q939 473 939 535Q939 631 976.0 716.0Q1013 801 1077.0 864.0Q1141 927 1225.5 963.5Q1310 1000 1406 1000Z" style="fill:#c3ef3c;stroke:none" transform="scale(1,-1) translate(0,-256)" /></svg>