<?xml version="1.0" encoding="utf-8" ?>
<svg baseProfile="full" height="256" version="1.1" width="256" xmlns="http://www.w3.org/2000/svg" xmlns:ev="http://www.w3.org/2001/xml-events" xmlns:xlink="http://www.w3.org/1999/xlink"><defs /><path d="M1406 1433Q1431 1433 1452.0 1419.0Q1473 1405 1482 1382Q1473 1359 1452.0 1345.0Q1431 1331 1406 1331Q1381 1331 1360.0 1345.0Q1339 1359 1330 1382Q1339 1405 1360.0 1419.0Q1381 1433 1406 1433ZM1026 1291Q1026 1325 1050.5 1349.5Q1075 1374 1109 1374Q1126 1374 1141.5 1367.0Q1157 1360 1168 1349Q1168 1314 1144.0 1290.5Q1120 1267 1085 1267Q1050 1267 1026 1291ZM781 1091Q775 1106 775 1122Q775 1157 798.5 1181.5Q822 1206 857 1206Q865 1206 873.0 1204.0Q881 1202 889 1199Q895 1184 895 1167Q895 1133 871.0 1109.0Q847 1085 813 1085Q796 1085 781 1091ZM608 872Q608 906 632.0 930.5Q656 955 690 955Q714 929 714 896Q714 862 690.0 837.5Q666 813 632 813Q608 839 608 872ZM600 499Q577 508 562.5 529.0Q548 550 548 575Q548 601 562.0 621.5Q576 642 600 651Q623 642 637.0 621.0Q651 600 651 575Q651 550 637.0 529.0Q623 508 600 499ZM690 196Q656 196 631.5 220.0Q607 244 607 279Q607 295 614.0 310.5Q621 326 632 337Q666 337 690.0 313.0Q714 289 714 254Q714 220 690 196ZM2212 651Q2236 642 2249.5 621.5Q2263 601 2263 575Q2263 550 2249.0 529.0Q2235 508 2212 499Q2189 508 2175.0 529.0Q2161 550 2161 575Q2161 600 2175.0 621.0Q2189 642 2212 651ZM2122 955Q2156 955 2180.5 930.5Q2205 906 2205 872Q2205 855 2198.0 839.5Q2191 824 2180 813Q2145 813 2121.5 837.0Q2098 861 2098 896Q2098 931 2122 955ZM1923 1200Q1938 1206 1954 1206Q1989 1206 2013.0 1182.0Q2037 1158 2037 1123Q2037 1107 2031 1092Q2016 1086 2000 1086Q1965 1086 1941.0 1109.5Q1917 1133 1917 1168Q1917 1185 1923 1200ZM1703 1373Q1737 1373 1761.0 1349.0Q1785 1325 1785 1291Q1761 1267 1727 1267Q1692 1267 1668.0 1291.0Q1644 1315 1644 1349Q1670 1373 1703 1373ZM2180 337Q2204 313 2204 278Q2204 244 2180.0 220.0Q2156 196 2122 196Q2098 220 2098 255Q2098 289 2122.0 313.0Q2146 337 2180 337Z" style="fill:#00a6ed;stroke:none" transform="scale(1,-1) translate(0,-256)" /></svg>