<?xml version="1.0" encoding="utf-8" ?>
<svg baseProfile="full" height="256" version="1.1" width="256" xmlns="http://www.w3.org/2000/svg" xmlns:ev="http://www.w3.org/2001/xml-events" xmlns:xlink="http://www.w3.org/1999/xlink"><defs /><path d="M1216 1150Q1258 1150 1290.0 1141.0Q1322 1132 1354 1103L1389 1101L1381 1069Q1392 1049 1398.5 1026.5Q1405 1004 1405 981V643Q1405 628 1407.5 598.5Q1410 569 1416.0 537.5Q1422 506 1431.5 480.0Q1441 454 1455 447L1940 173Q1943 168 1948.0 158.5Q1953 149 1957.5 139.0Q1962 129 1965.5 119.5Q1969 110 1969 104Q1969 91 1959.5 81.5Q1950 72 1937 72H1313Q1266 72 1224.0 90.0Q1182 108 1150.5 138.5Q1119 169 1101.0 210.5Q1083 252 1083 300Q1083 309 1084.0 317.5Q1085 326 1086 335Q1094 403 1104.5 469.5Q1115 536 1125 603Q1135 669 1144.5 733.5Q1154 798 1165 863L1162 839L1216 1150Z" style="fill:#00a6ed;stroke:none" transform="scale(1,-1) translate(0,-256)" /></svg>