<?xml version="1.0" encoding="utf-8" ?>
<svg baseProfile="full" height="256" version="1.1" width="256" xmlns="http://www.w3.org/2000/svg" xmlns:ev="http://www.w3.org/2001/xml-events" xmlns:xlink="http://www.w3.org/1999/xlink"><defs /><path d="M1353 1103V1193Q1353 1200 1358.0 1205.5Q1363 1211 1370 1211Q1392 1211 1414.5 1199.5Q1437 1188 1455.0 1170.0Q1473 1152 1484.5 1130.0Q1496 1108 1496 1086Q1496 1079 1490.5 1074.0Q1485 1069 1478 1069H1381Q1375 1078 1368.0 1086.5Q1361 1095 1353 1103ZM1162 839 1216 1150H1029Q1019 1150 1012.0 1143.5Q1005 1137 1005 1126Q1005 1115 1017.0 1101.0Q1029 1087 1047.0 1070.0Q1065 1053 1086.0 1033.0Q1107 1013 1125.0 990.0Q1143 967 1155.0 941.0Q1167 915 1167 886Q1167 874 1165.5 862.5Q1164 851 1162 839ZM1337 1041Q1337 1026 1326.0 1015.0Q1315 1004 1300 1004Q1284 1004 1273.0 1014.5Q1262 1025 1262 1041Q1262 1057 1273.0 1067.5Q1284 1078 1300 1078Q1315 1078 1326.0 1067.0Q1337 1056 1337 1041Z" style="fill:#1c1c1c;stroke:none" transform="scale(1,-1) translate(0,-256)" /></svg>