<?xml version="1.0" encoding="utf-8" ?>
<svg baseProfile="full" height="256" version="1.1" width="256" xmlns="http://www.w3.org/2000/svg" xmlns:ev="http://www.w3.org/2001/xml-events" xmlns:xlink="http://www.w3.org/1999/xlink"><defs /><path d="M1370 719 1125 442Q1107 422 1093.5 404.5Q1080 387 1066.5 370.5Q1053 354 1038.0 337.5Q1023 321 1003 303Q991 292 980.0 284.0Q969 276 958.0 269.5Q947 263 935.0 256.5Q923 250 910 241L725 116Q703 102 680.0 94.0Q657 86 631 86Q596 86 565.5 99.5Q535 113 512.5 135.5Q490 158 476.5 188.5Q463 219 463 254Q463 305 490.5 346.5Q518 388 563 408Q529 409 499.0 422.5Q469 436 447.0 458.5Q425 481 412.5 511.0Q400 541 400 575Q400 609 412.5 639.0Q425 669 447.0 691.5Q469 714 498.5 728.0Q528 742 562 743Q517 763 490.5 804.5Q464 846 464 896Q464 930 477.0 961.0Q490 992 513.0 1014.5Q536 1037 566.5 1050.5Q597 1064 632 1064Q661 1064 691 1053Q669 1076 657.0 1106.0Q645 1136 645 1168Q645 1203 658.0 1233.5Q671 1264 694.0 1287.0Q717 1310 747.5 1323.0Q778 1336 813 1336Q845 1336 875.5 1324.0Q906 1312 929 1290Q917 1318 917 1351Q917 1385 930.5 1415.5Q944 1446 966.5 1468.5Q989 1491 1019.5 1504.5Q1050 1518 1085 1518Q1135 1518 1177.0 1490.5Q1219 1463 1239 1418Q1240 1452 1253.5 1482.0Q1267 1512 1289.5 1534.0Q1312 1556 1342.0 1568.5Q1372 1581 1406 1581Q1440 1581 1470.0 1568.5Q1500 1556 1522.5 1534.0Q1545 1512 1558.5 1482.5Q1572 1453 1574 1419Q1594 1464 1636.0 1490.5Q1678 1517 1727 1517Q1762 1517 1792.5 1503.5Q1823 1490 1846.0 1467.5Q1869 1445 1882.0 1414.0Q1895 1383 1895 1349Q1895 1320 1884 1290Q1907 1312 1937.0 1324.0Q1967 1336 1999 1336Q2034 1336 2064.5 1323.0Q2095 1310 2118.0 1287.5Q2141 1265 2154.0 1234.0Q2167 1203 2167 1168Q2167 1136 2155.0 1105.5Q2143 1075 2120 1052Q2150 1064 2182 1064Q2216 1064 2246.5 1050.5Q2277 1037 2300.0 1014.5Q2323 992 2336.0 961.0Q2349 930 2349 896Q2349 846 2322.0 804.5Q2295 763 2249 743Q2283 742 2313.0 728.5Q2343 715 2365.0 692.5Q2387 670 2399.5 639.5Q2412 609 2412 575Q2412 541 2399.0 511.0Q2386 481 2364.0 458.5Q2342 436 2312.5 422.0Q2283 408 2249 407Q2294 387 2321.0 345.5Q2348 304 2348 255Q2348 220 2335.0 189.5Q2322 159 2299.0 136.0Q2276 113 2245.5 99.5Q2215 86 2180 86Q2151 86 2127.0 95.0Q2103 104 2079 120L1898 238Q1872 255 1852.0 266.0Q1832 277 1808 297Q1785 316 1767.5 332.5Q1750 349 1733.5 365.5Q1717 382 1700.0 399.5Q1683 417 1662 438Z" style="fill:#00d26a;stroke:none" transform="scale(1,-1) translate(0,-256)" /></svg>