<?xml version="1.0" encoding="utf-8" ?>
<svg baseProfile="full" height="256" version="1.1" width="256" xmlns="http://www.w3.org/2000/svg" xmlns:ev="http://www.w3.org/2001/xml-events" xmlns:xlink="http://www.w3.org/1999/xlink"><defs /><path d="M1330 1382Q1323 1399 1323 1414Q1323 1449 1347.0 1473.0Q1371 1497 1406 1497Q1441 1497 1465.0 1473.0Q1489 1449 1489 1414Q1489 1399 1482 1382Q1472 1405 1449.5 1409.5Q1427 1414 1405 1414Q1383 1414 1361.5 1410.0Q1340 1406 1330 1382ZM1026 1292Q1003 1317 1003 1350Q1003 1384 1027.0 1408.5Q1051 1433 1085 1433Q1120 1433 1144.0 1409.0Q1168 1385 1168 1350V1349Q1159 1358 1148 1358Q1132 1358 1114.5 1347.0Q1097 1336 1083 1330Q1074 1327 1064.5 1325.0Q1055 1323 1046.5 1319.5Q1038 1316 1032.0 1310.0Q1026 1304 1026 1292ZM890 1199H889Q881 1202 874 1202Q864 1202 847.5 1191.0Q831 1180 815.5 1165.0Q800 1150 788.5 1134.0Q777 1118 777 1109Q777 1102 781 1092Q758 1101 744.0 1122.0Q730 1143 730 1168Q730 1203 754.0 1227.0Q778 1251 813 1251Q838 1251 859.5 1236.5Q881 1222 890 1199ZM632 813H631Q596 813 572.0 837.0Q548 861 548 896Q548 930 572.5 954.0Q597 978 631 978Q664 978 689 955Q677 955 671.0 949.0Q665 943 661.5 935.0Q658 927 656.0 917.5Q654 908 651 899Q645 885 634.0 866.5Q623 848 623 834Q623 824 632 813ZM599 651Q586 646 581.5 636.5Q577 627 577 613V537Q577 524 581.5 514.0Q586 504 599 499Q584 493 567 493Q533 493 509.0 517.0Q485 541 485 575Q485 609 509.0 633.5Q533 658 567 658Q585 658 599 651ZM689 196Q665 172 631 172Q596 172 572.0 196.0Q548 220 548 255Q548 290 572.5 313.5Q597 337 632 337Q626 331 622.0 323.5Q618 316 618 307Q618 297 624.0 278.5Q630 260 639.5 241.5Q649 223 662.0 209.5Q675 196 689 196ZM2245 493Q2227 493 2212 499Q2224 503 2229.0 512.0Q2234 521 2234.5 531.5Q2235 542 2234.0 553.5Q2233 565 2233 575Q2233 585 2234.0 594.5Q2235 604 2235 613Q2235 627 2230.5 636.5Q2226 646 2213 651Q2227 658 2245 658Q2279 658 2303.0 633.5Q2327 609 2327 575Q2327 541 2303.0 517.0Q2279 493 2245 493ZM2263 896Q2263 861 2239.0 837.0Q2215 813 2180 813Q2189 822 2189 833Q2189 840 2185.5 848.5Q2182 857 2177.5 866.0Q2173 875 2168.5 883.5Q2164 892 2161 899Q2158 908 2156.0 917.5Q2154 927 2150.5 935.0Q2147 943 2141.0 949.0Q2135 955 2123 955Q2148 978 2181 978Q2215 978 2239.0 954.0Q2263 930 2263 896ZM2031 1092Q2034 1098 2034 1106Q2034 1116 2023.0 1132.5Q2012 1149 1996.5 1165.0Q1981 1181 1965.0 1192.5Q1949 1204 1940 1204Q1933 1204 1923 1200H1922Q1932 1223 1952.5 1237.0Q1973 1251 1999 1251Q2034 1251 2058.0 1227.0Q2082 1203 2082 1168Q2082 1143 2067.5 1122.0Q2053 1101 2030 1092ZM1644 1349Q1644 1366 1650.5 1381.5Q1657 1397 1668.0 1408.5Q1679 1420 1694.0 1426.5Q1709 1433 1727 1433Q1761 1433 1785.0 1408.5Q1809 1384 1809 1350Q1809 1316 1785 1292Q1785 1307 1773.0 1320.0Q1761 1333 1744.0 1342.5Q1727 1352 1708.5 1357.5Q1690 1363 1677 1363Q1658 1363 1644 1349ZM2181 172Q2147 172 2123 196Q2136 196 2149.0 209.5Q2162 223 2172.0 241.0Q2182 259 2188.0 277.5Q2194 296 2194 307Q2194 323 2180 337Q2214 337 2238.5 313.5Q2263 290 2263 255Q2263 221 2239.0 196.5Q2215 172 2181 172Z" style="fill:#fff478;stroke:none" transform="scale(1,-1) translate(0,-256)" /></svg>