<?xml version="1.0" encoding="utf-8" ?>
<svg baseProfile="full" height="256" version="1.1" width="256" xmlns="http://www.w3.org/2000/svg" xmlns:ev="http://www.w3.org/2001/xml-events" xmlns:xlink="http://www.w3.org/1999/xlink"><defs /><path d="M1576 1006Q1597 1006 1615 997L2124 747Q2138 740 2146.5 726.5Q2155 713 2155 697Q1999 550 1846.0 403.0Q1693 256 1541 105Q1533 101 1524.5 98.5Q1516 96 1507 96Q1501 96 1491.0 98.0Q1481 100 1476 104Q1439 131 1404.5 163.0Q1370 195 1335 226Q1221 328 1119.0 437.0Q1017 546 928 671Q928 687 936.5 700.0Q945 713 959 720L1537 997Q1555 1006 1576 1006Z" style="fill:#fcd53f;stroke:none" transform="scale(1,-1) translate(0,-256)" /></svg>