<?xml version="1.0" encoding="utf-8" ?>
<svg baseProfile="full" height="256" version="1.1" width="256" xmlns="http://www.w3.org/2000/svg" xmlns:ev="http://www.w3.org/2001/xml-events" xmlns:xlink="http://www.w3.org/1999/xlink"><defs /><path d="M400 219Q400 230 406.0 241.0Q412 252 423 257L1568 815Q1576 819 1587 819Q1598 819 1606 815L2388 430Q2411 418 2411 392Q2411 380 2405.0 369.5Q2399 359 2388 354L1295 -178Q1261 -195 1224 -195Q1187 -195 1153 -178L423 181Q412 186 406.0 196.5Q400 207 400 219Z" style="fill:#f4f4f4;stroke:none" transform="scale(1,-1) translate(0,-256)" /></svg>