<?xml version="1.0" encoding="utf-8" ?>
<svg baseProfile="full" height="256" version="1.1" width="256" xmlns="http://www.w3.org/2000/svg" xmlns:ev="http://www.w3.org/2001/xml-events" xmlns:xlink="http://www.w3.org/1999/xlink"><defs /><path d="M820 634Q842 634 860 625L1369 375Q1383 368 1391.0 354.0Q1399 340 1399 325Q1399 324 1394.5 311.5Q1390 299 1383.0 279.5Q1376 260 1368.0 237.0Q1360 214 1352.5 193.0Q1345 172 1339.5 156.0Q1334 140 1332 135Q1319 96 1309.0 56.5Q1299 17 1293 -24Q1279 -34 1259 -34Q1241 -34 1228 -25Q1165 52 1093.0 119.5Q1021 187 948.5 253.5Q876 320 806.5 390.0Q737 460 680 541Q680 560 690.5 573.0Q701 586 716.5 595.5Q732 605 749.5 611.5Q767 618 781 625Q799 634 820 634Z" style="fill:#fcd53f;stroke:none" transform="scale(1,-1) translate(0,-256)" /></svg>