<?xml version="1.0" encoding="utf-8" ?>
<svg baseProfile="full" height="256" version="1.1" width="256" xmlns="http://www.w3.org/2000/svg" xmlns:ev="http://www.w3.org/2001/xml-events" xmlns:xlink="http://www.w3.org/1999/xlink"><defs /><path d="M2156 699V428Q2156 400 2130 387L1542 105Q1537 102 1531 102Q1521 102 1514.5 109.0Q1508 116 1508 126V394Q1508 405 1514.0 415.0Q1520 425 1530 430L2127 717Q2133 719 2136 719Q2144 719 2150.0 713.0Q2156 707 2156 699ZM1399 326V55Q1399 27 1374 15Q1368 12 1355.0 5.0Q1342 -2 1327.5 -9.0Q1313 -16 1300.5 -21.5Q1288 -27 1282 -27Q1273 -27 1266.0 -20.5Q1259 -14 1259 -4V264Q1259 289 1282 300Q1287 303 1301.5 310.5Q1316 318 1332.0 326.0Q1348 334 1361.5 340.0Q1375 346 1379 346Q1387 346 1393.0 340.0Q1399 334 1399 326Z" style="fill:#f9c23c;stroke:none" transform="scale(1,-1) translate(0,-256)" /></svg>