<?xml version="1.0" encoding="utf-8" ?>
<svg baseProfile="full" height="256" version="1.1" width="256" xmlns="http://www.w3.org/2000/svg" xmlns:ev="http://www.w3.org/2001/xml-events" xmlns:xlink="http://www.w3.org/1999/xlink"><defs /><path d="M903 935Q919 935 935 927L1222 783Q1241 774 1251.5 757.0Q1262 740 1262 719Q1262 698 1251.5 681.0Q1241 664 1222 655L935 511Q919 503 903 503Q873 503 852.0 524.5Q831 546 831 576Q831 620 871 639L1030 719L871 798Q853 807 842.0 824.5Q831 842 831 862Q831 892 852.0 913.5Q873 935 903 935ZM1909 935Q1893 935 1877 927L1589 783Q1571 774 1560.5 756.5Q1550 739 1550 719Q1550 699 1560.5 681.5Q1571 664 1589 655L1877 511Q1893 503 1909 503Q1939 503 1960.0 524.5Q1981 546 1981 576Q1981 620 1941 639L1782 719L1941 798Q1959 807 1970.0 824.5Q1981 842 1981 862Q1981 892 1960.0 913.5Q1939 935 1909 935ZM1190 431Q1161 431 1140 410L975 246L882 339Q861 360 831 360Q801 360 780.0 338.5Q759 317 759 288Q759 258 780 237L924 93Q945 72 975 72Q989 72 1002.5 77.5Q1016 83 1026 93L1190 258L1355 93Q1376 72 1406 72Q1436 72 1457 93L1622 258L1786 93Q1807 72 1837 72Q1867 72 1888 93L2032 237Q2053 258 2053 288Q2053 317 2032.0 338.5Q2011 360 1981 360Q1951 360 1930 339L1837 246L1672 410Q1651 431 1621 431Q1592 431 1571 410L1406 246L1241 410Q1220 431 1190 431Z" style="fill:#402a32;stroke:none" transform="scale(1,-1) translate(0,-256)" /></svg>