<?xml version="1.0" encoding="utf-8" ?>
<svg baseProfile="full" height="256" version="1.1" width="256" xmlns="http://www.w3.org/2000/svg" xmlns:ev="http://www.w3.org/2001/xml-events" xmlns:xlink="http://www.w3.org/1999/xlink"><defs /><path d="M1406 629Q1417 629 1421.0 620.0Q1425 611 1426.0 599.0Q1427 587 1425.5 575.0Q1424 563 1424 557H1546Q1552 557 1554 549Q1555 546 1560.0 532.0Q1565 518 1571.0 502.5Q1577 487 1581.5 474.0Q1586 461 1586 460Q1586 453 1579.0 450.5Q1572 448 1563.0 447.5Q1554 447 1545.0 448.0Q1536 449 1532 449V378H1630Q1640 378 1644 367Q1646 362 1654.0 343.5Q1662 325 1671.0 304.5Q1680 284 1687.0 266.5Q1694 249 1694 247Q1694 239 1687.5 236.5Q1681 234 1675 234H1604V72Q1615 72 1630.0 73.0Q1645 74 1659.0 71.5Q1673 69 1683.0 61.5Q1693 54 1693 36Q1693 22 1682.5 11.0Q1672 0 1658 0H1154Q1140 0 1129.0 11.0Q1118 22 1118 36Q1118 54 1128.0 61.5Q1138 69 1152.5 71.5Q1167 74 1182.0 73.0Q1197 72 1208 72V234H1136Q1130 234 1123.5 236.5Q1117 239 1117 247Q1117 249 1124.0 266.5Q1131 284 1140.0 304.5Q1149 325 1157.5 343.5Q1166 362 1168 367Q1170 371 1173.5 374.5Q1177 378 1182 378H1280V449Q1276 449 1267.0 448.0Q1258 447 1249.0 447.5Q1240 448 1233.0 450.5Q1226 453 1226 460Q1226 461 1230.5 474.0Q1235 487 1241.0 502.5Q1247 518 1252.0 532.0Q1257 546 1258 549Q1260 557 1267 557H1388Q1388 563 1386.5 575.0Q1385 587 1386.0 599.0Q1387 611 1391.0 620.0Q1395 629 1406 629ZM1568 234H1244V72H1568ZM1496 378V449H1316V378Z" style="fill:#f8312f;stroke:none" transform="scale(1,-1) translate(0,-256)" /></svg>