<?xml version="1.0" encoding="utf-8" ?>
<svg baseProfile="full" height="256" version="1.1" width="256" xmlns="http://www.w3.org/2000/svg" xmlns:ev="http://www.w3.org/2001/xml-events" xmlns:xlink="http://www.w3.org/1999/xlink"><defs /><path d="M766 719H2046L1874 -242Q1873 -247 1870.0 -255.0Q1867 -263 1862.0 -270.0Q1857 -277 1851.0 -282.0Q1845 -287 1838 -287H973Q965 -287 959.0 -282.0Q953 -277 949.0 -270.0Q945 -263 942.0 -255.5Q939 -248 938 -242Q927 -199 920.5 -153.5Q914 -108 906 -64L843 287Q823 396 804.5 503.0Q786 610 766 719Z" style="fill:#ffffff;stroke:none" transform="scale(1,-1) translate(0,-256)" /></svg>