<?xml version="1.0" encoding="utf-8" ?>
<svg baseProfile="full" height="256" version="1.1" width="256" xmlns="http://www.w3.org/2000/svg" xmlns:ev="http://www.w3.org/2001/xml-events" xmlns:xlink="http://www.w3.org/1999/xlink"><defs /><path d="M1151 781Q1134 781 1122.0 793.0Q1110 805 1110 822Q1110 824 1120.0 863.5Q1130 903 1145.5 961.0Q1161 1019 1179.0 1086.5Q1197 1154 1213.5 1213.0Q1230 1272 1241.5 1313.0Q1253 1354 1255 1359Q1261 1372 1269.5 1380.5Q1278 1389 1294 1389Q1311 1389 1322.5 1377.5Q1334 1366 1334 1349Q1334 1346 1324.0 1306.5Q1314 1267 1298.5 1208.5Q1283 1150 1265.0 1082.5Q1247 1015 1231.0 956.0Q1215 897 1203.0 856.0Q1191 815 1189 810Q1183 797 1174.5 789.0Q1166 781 1151 781ZM1661 781Q1646 781 1637.5 789.0Q1629 797 1623 810Q1620 815 1608.5 856.0Q1597 897 1581.0 956.0Q1565 1015 1547.0 1082.5Q1529 1150 1513.5 1208.5Q1498 1267 1488.0 1306.5Q1478 1346 1478 1349Q1478 1366 1489.5 1377.5Q1501 1389 1518 1389Q1534 1389 1542.5 1380.5Q1551 1372 1557 1359Q1559 1355 1566.0 1330.5Q1573 1306 1583.5 1268.0Q1594 1230 1607.0 1182.5Q1620 1135 1633.0 1086.0Q1646 1037 1658.0 990.0Q1670 943 1679.5 906.0Q1689 869 1695.0 845.5Q1701 822 1701 820Q1701 804 1689.0 792.5Q1677 781 1661 781Z" style="fill:#ffffff;stroke:none" transform="scale(1,-1) translate(0,-256)" /></svg>