<?xml version="1.0" encoding="utf-8" ?>
<svg baseProfile="full" height="256" version="1.1" width="256" xmlns="http://www.w3.org/2000/svg" xmlns:ev="http://www.w3.org/2001/xml-events" xmlns:xlink="http://www.w3.org/1999/xlink"><defs /><path d="M2100 1518Q2144 1518 2167.5 1494.5Q2191 1471 2202.5 1437.0Q2214 1403 2217.5 1364.0Q2221 1325 2225 1294H2023Q2026 1229 2046.0 1168.0Q2066 1107 2100.0 1053.0Q2134 999 2180.5 955.0Q2227 911 2284 880L2297 796Q2222 829 2160.5 880.0Q2099 931 2054.5 996.0Q2010 1061 1984.0 1136.5Q1958 1212 1954 1294H857Q853 1213 827.0 1137.0Q801 1061 756.5 996.0Q712 931 651.0 879.5Q590 828 515 795L527 879Q584 910 630.5 954.5Q677 999 711.0 1053.0Q745 1107 765.0 1168.0Q785 1229 788 1294H587Q591 1325 594.5 1364.0Q598 1403 609.5 1437.0Q621 1471 644.5 1494.5Q668 1518 712 1518H2100Z" style="fill:#00d26a;stroke:none" transform="scale(1,-1) translate(0,-256)" /></svg>