<?xml version="1.0" encoding="utf-8" ?>
<svg baseProfile="full" height="256" version="1.1" width="256" xmlns="http://www.w3.org/2000/svg" xmlns:ev="http://www.w3.org/2001/xml-events" xmlns:xlink="http://www.w3.org/1999/xlink"><defs /><path d="M2100 1518Q2143 1518 2172.0 1491.0Q2201 1464 2207 1422L2412 -6Q2413 -13 2413.5 -19.0Q2414 -25 2414 -32Q2414 -61 2404.0 -87.5Q2394 -114 2376.0 -135.0Q2358 -156 2333.5 -170.5Q2309 -185 2280 -189L1819 -261Q1813 -262 1807.0 -262.5Q1801 -263 1795 -263Q1767 -263 1741.0 -253.5Q1715 -244 1694.0 -227.5Q1673 -211 1658.0 -188.0Q1643 -165 1638 -137L1527 431Q1522 454 1504.0 469.5Q1486 485 1462 485H1350Q1326 485 1308.0 469.5Q1290 454 1285 431L1172 -134Q1167 -161 1152.0 -184.0Q1137 -207 1115.5 -224.0Q1094 -241 1068.0 -250.5Q1042 -260 1015 -260Q1009 -260 1003.0 -259.5Q997 -259 991 -258L530 -186Q502 -182 478.0 -167.5Q454 -153 436.0 -132.0Q418 -111 408.0 -85.0Q398 -59 398 -31Q398 -25 398.5 -18.5Q399 -12 400 -6L605 1422Q611 1464 640.0 1491.0Q669 1518 712 1518H2100Z" style="fill:#6afcac;stroke:none" transform="scale(1,-1) translate(0,-256)" /></svg>