<?xml version="1.0" encoding="utf-8" ?>
<svg baseProfile="full" height="256" version="1.1" width="256" xmlns="http://www.w3.org/2000/svg" xmlns:ev="http://www.w3.org/2001/xml-events" xmlns:xlink="http://www.w3.org/1999/xlink"><defs /><path d="M688 484Q598 484 521.5 528.5Q445 573 400 651V984Q422 1023 453.0 1053.5Q484 1084 521.5 1105.5Q559 1127 601.5 1138.5Q644 1150 688 1150Q734 1150 771.5 1139.0Q809 1128 850 1108Q863 1101 875.0 1096.5Q887 1092 902 1092Q928 1092 945.5 1108.5Q963 1125 977 1145Q1041 1238 1131.5 1290.0Q1222 1342 1337 1342Q1410 1342 1476.5 1318.5Q1543 1295 1598.0 1252.5Q1653 1210 1692.5 1151.5Q1732 1093 1751 1023H1760H1766Q1789 1071 1832.5 1099.0Q1876 1127 1929 1127Q1966 1127 2000.0 1112.0Q2034 1097 2060 1071Q2078 1090 2095.0 1103.5Q2112 1117 2129.0 1127.0Q2146 1137 2165.5 1146.0Q2185 1155 2208 1166Q2218 1171 2227.5 1176.5Q2237 1182 2247 1187Q2325 1223 2412 1223H2414V425H2412Q2370 425 2328 434Q2320 436 2312.0 439.0Q2304 442 2296 442H1766Q1703 442 1647.0 467.5Q1591 493 1549 540Q1500 513 1446.5 498.5Q1393 484 1337 484Z" style="fill:#e6e6e6;stroke:none" transform="scale(1,-1) translate(0,-256)" /></svg>