<?xml version="1.0" encoding="utf-8" ?>
<svg baseProfile="full" height="256" version="1.1" width="256" xmlns="http://www.w3.org/2000/svg" xmlns:ev="http://www.w3.org/2001/xml-events" xmlns:xlink="http://www.w3.org/1999/xlink"><defs /><path d="M889 880Q846 880 808.5 896.5Q771 913 743.0 941.0Q715 969 698.5 1006.5Q682 1044 682 1087Q682 1130 698.5 1167.5Q715 1205 743.0 1233.0Q771 1261 808.5 1277.5Q846 1294 889 1294Q932 1294 970.0 1278.0Q1008 1262 1036.0 1234.0Q1064 1206 1080.0 1168.0Q1096 1130 1096 1087Q1096 1044 1079.5 1006.5Q1063 969 1035.0 941.0Q1007 913 969.5 896.5Q932 880 889 880Z" style="fill:#d3d3d3;stroke:none" transform="scale(1,-1) translate(0,-256)" /></svg>