<?xml version="1.0" encoding="utf-8" ?>
<svg baseProfile="full" height="256" version="1.1" width="256" xmlns="http://www.w3.org/2000/svg" xmlns:ev="http://www.w3.org/2001/xml-events" xmlns:xlink="http://www.w3.org/1999/xlink"><defs /><path d="M2414 991V646Q2414 646 2367.0 632.0Q2320 618 2240.0 594.0Q2160 570 2052.5 537.5Q1945 505 1823.5 468.0Q1702 431 1572.0 391.5Q1442 352 1316.5 314.0Q1191 276 1076.5 241.0Q962 206 871.5 178.5Q781 151 719.5 132.5Q658 114 640 108Q620 128 609.0 154.5Q598 181 598 210Q598 242 609.0 265.0Q620 288 640 312L719 406L400 647V781Q405 784 408.5 787.5Q412 791 417 796L586 964Q606 984 632.5 995.5Q659 1007 688 1007Q717 1007 743.5 995.5Q770 984 790 964L1008 747Q1097 852 1183.5 956.0Q1270 1060 1358 1166Q1377 1189 1397.0 1200.5Q1417 1212 1437.0 1216.5Q1457 1221 1477.0 1222.5Q1497 1224 1516.5 1227.5Q1536 1231 1556.0 1239.5Q1576 1248 1596 1268L1765 1437Q1785 1457 1811.5 1468.0Q1838 1479 1867 1479Q1896 1479 1922.5 1468.0Q1949 1457 1969 1437Z" style="fill:#635994;stroke:none" transform="scale(1,-1) translate(0,-256)" /></svg>