<?xml version="1.0" encoding="utf-8" ?>
<svg baseProfile="full" height="256" version="1.1" width="256" xmlns="http://www.w3.org/2000/svg" xmlns:ev="http://www.w3.org/2001/xml-events" xmlns:xlink="http://www.w3.org/1999/xlink"><defs /><path d="M2187 1726Q2234 1726 2275.5 1708.0Q2317 1690 2347.5 1659.5Q2378 1629 2396.0 1587.5Q2414 1546 2414 1499V-60Q2414 -107 2396.0 -148.5Q2378 -190 2347.5 -221.0Q2317 -252 2275.5 -270.0Q2234 -288 2187 -288H627Q580 -288 538.5 -270.0Q497 -252 466.0 -221.0Q435 -190 417.5 -148.5Q400 -107 400 -60V1499Q400 1546 418.0 1587.5Q436 1629 466.5 1659.5Q497 1690 538.5 1708.0Q580 1726 627 1726H2187Z" style="fill:#26c9fc;stroke:none" transform="scale(1,-1) translate(0,-256)" /></svg>