<?xml version="1.0" encoding="utf-8" ?>
<svg baseProfile="full" height="256" version="1.1" width="256" xmlns="http://www.w3.org/2000/svg" xmlns:ev="http://www.w3.org/2001/xml-events" xmlns:xlink="http://www.w3.org/1999/xlink"><defs /><path d="M2084 546 1757 874Q1725 906 1682.0 923.5Q1639 941 1594 941Q1569 941 1547.0 950.5Q1525 960 1508.5 976.5Q1492 993 1482.5 1015.0Q1473 1037 1473 1062V1222Q1476 1224 1479.5 1223.5Q1483 1223 1486 1223Q1516 1223 1545.0 1234.5Q1574 1246 1596 1268L1765 1437Q1785 1457 1811.5 1468.0Q1838 1479 1867 1479Q1896 1479 1922.5 1468.0Q1949 1457 1969 1437L2414 991V646Q2413 646 2390.0 639.5Q2367 633 2332.5 622.5Q2298 612 2257.0 599.5Q2216 587 2180.0 576.0Q2144 565 2117.0 556.5Q2090 548 2084 546Z" style="fill:#433b6b;stroke:none" transform="scale(1,-1) translate(0,-256)" /></svg>