<?xml version="1.0" encoding="utf-8" ?>
<svg baseProfile="full" height="256" version="1.1" width="256" xmlns="http://www.w3.org/2000/svg" xmlns:ev="http://www.w3.org/2001/xml-events" xmlns:xlink="http://www.w3.org/1999/xlink"><defs /><path d="M2230 221 2227 -209Q2227 -241 2204.0 -264.0Q2181 -287 2149 -287H1533Q1510 -287 1490.0 -278.5Q1470 -270 1455.0 -255.0Q1440 -240 1431.5 -220.0Q1423 -200 1423 -177Q1423 -148 1438 -122L1735 386Q1746 404 1765.0 414.0Q1784 424 1804 424Q1819 424 1830 420L2178 295Q2201 287 2215.5 266.0Q2230 245 2230 221Z" style="fill:#ca0b4a;stroke:none" transform="scale(1,-1) translate(0,-256)" /></svg>