<?xml version="1.0" encoding="utf-8" ?>
<svg baseProfile="full" height="256" version="1.1" width="256" xmlns="http://www.w3.org/2000/svg" xmlns:ev="http://www.w3.org/2001/xml-events" xmlns:xlink="http://www.w3.org/1999/xlink"><defs /><path d="M1973 1725Q2035 1725 2088.0 1701.0Q2141 1677 2180.5 1636.5Q2220 1596 2243.5 1541.5Q2267 1487 2270 1427Q2271 1419 2271.0 1412.5Q2271 1406 2271 1398Q2271 1250 2217.0 1121.5Q2163 993 2061 887L1185 -28Q1095 -122 973.5 -169.5Q852 -217 723 -217Q711 -217 699.5 -216.5Q688 -216 676 -216Q613 -216 550.5 -190.5Q488 -165 438.5 -121.0Q389 -77 358.5 -18.5Q328 40 328 106Q328 201 378.5 267.0Q429 333 512 372Q543 387 565.5 401.0Q588 415 607.0 430.0Q626 445 644.5 463.5Q663 482 687 506L1574 1391Q1616 1432 1650.5 1474.0Q1685 1516 1712 1568Q1731 1605 1758.5 1634.0Q1786 1663 1819.5 1683.5Q1853 1704 1892.0 1714.5Q1931 1725 1973 1725Z" style="fill:#635994;stroke:none" transform="scale(1,-1) translate(0,-256)" /></svg>