<?xml version="1.0" encoding="utf-8" ?>
<svg baseProfile="full" height="256" version="1.1" width="256" xmlns="http://www.w3.org/2000/svg" xmlns:ev="http://www.w3.org/2001/xml-events" xmlns:xlink="http://www.w3.org/1999/xlink"><defs /><path d="M1696 1257Q1696 1242 1685.5 1231.5Q1675 1221 1660 1221Q1645 1221 1634.5 1231.5Q1624 1242 1624 1257Q1624 1272 1634.5 1282.5Q1645 1293 1660 1293Q1675 1293 1685.5 1282.5Q1696 1272 1696 1257ZM1911 1040Q1911 1026 1900.5 1015.0Q1890 1004 1876 1004Q1861 1004 1850.5 1014.5Q1840 1025 1840 1040Q1840 1055 1850.5 1065.5Q1861 1076 1876 1076Q1890 1076 1900.5 1065.0Q1911 1054 1911 1040ZM1516 1077Q1531 1077 1541.5 1087.5Q1552 1098 1552 1113Q1552 1128 1541.5 1138.5Q1531 1149 1516 1149Q1501 1149 1490.5 1138.5Q1480 1128 1480 1113Q1480 1098 1490.5 1087.5Q1501 1077 1516 1077ZM1768 896Q1768 881 1757.5 870.5Q1747 860 1732 860Q1717 860 1706.5 870.5Q1696 881 1696 896Q1696 911 1706.5 921.5Q1717 932 1732 932Q1747 932 1757.5 921.5Q1768 911 1768 896ZM941 501Q956 501 966.5 511.5Q977 522 977 537Q977 552 966.5 562.5Q956 573 941 573Q926 573 915.5 562.5Q905 552 905 537Q905 522 915.5 511.5Q926 501 941 501ZM1193 321Q1193 306 1182.5 295.5Q1172 285 1157 285Q1142 285 1131.5 295.5Q1121 306 1121 321Q1121 336 1131.5 346.5Q1142 357 1157 357Q1172 357 1182.5 346.5Q1193 336 1193 321ZM797 357Q812 357 822.5 367.5Q833 378 833 393Q833 408 822.5 418.5Q812 429 797 429Q783 429 772.0 418.0Q761 407 761 393Q761 379 772.0 368.0Q783 357 797 357ZM1049 177Q1049 163 1038.0 152.0Q1027 141 1013 141Q999 141 988.0 152.0Q977 163 977 177Q977 192 987.5 202.5Q998 213 1013 213Q1028 213 1038.5 202.5Q1049 192 1049 177Z" style="fill:#000000;stroke:none" transform="scale(1,-1) translate(0,-256)" /></svg>