<?xml version="1.0" encoding="utf-8" ?>
<svg baseProfile="full" height="256" version="1.1" width="256" xmlns="http://www.w3.org/2000/svg" xmlns:ev="http://www.w3.org/2001/xml-events" xmlns:xlink="http://www.w3.org/1999/xlink"><defs /><path d="M2126 716Q2126 686 2114.5 660.0Q2103 634 2083.5 614.5Q2064 595 2038.0 584.0Q2012 573 1982 573Q1952 573 1926.0 584.0Q1900 595 1880.5 614.5Q1861 634 1849.5 660.0Q1838 686 1838 716Q1838 746 1849.0 772.0Q1860 798 1879.5 817.5Q1899 837 1925.5 848.5Q1952 860 1982 860Q2012 860 2038.0 848.5Q2064 837 2083.5 817.5Q2103 798 2114.5 772.0Q2126 746 2126 716ZM1408 -2Q1408 -32 1397.0 -58.0Q1386 -84 1366.5 -103.5Q1347 -123 1321.0 -134.5Q1295 -146 1265 -146Q1235 -146 1208.5 -135.0Q1182 -124 1162.5 -104.5Q1143 -85 1132.0 -58.5Q1121 -32 1121 -2Q1121 28 1132.5 54.0Q1144 80 1163.5 99.5Q1183 119 1209.0 130.0Q1235 141 1265 141Q1295 141 1321.0 130.0Q1347 119 1366.5 99.5Q1386 80 1397.0 54.0Q1408 28 1408 -2Z" style="fill:#ca0b4a;stroke:none" transform="scale(1,-1) translate(0,-256)" /></svg>