<?xml version="1.0" encoding="utf-8" ?>
<svg baseProfile="full" height="256" version="1.1" width="256" xmlns="http://www.w3.org/2000/svg" xmlns:ev="http://www.w3.org/2001/xml-events" xmlns:xlink="http://www.w3.org/1999/xlink"><defs /><path d="M635 1171Q655 1171 671.5 1164.5Q688 1158 688 1133Q688 1108 671.5 1101.5Q655 1095 635 1095Q645 1087 651.0 1079.5Q657 1072 657 1059Q657 1043 646.0 1032.0Q635 1021 619 1021Q606 1021 598.0 1027.5Q590 1034 582 1042Q582 1022 575.0 1006.0Q568 990 544 990Q520 990 513.0 1006.0Q506 1022 506 1042Q498 1032 490.5 1026.0Q483 1020 469 1020Q453 1020 442.0 1031.0Q431 1042 431 1058Q431 1071 437.5 1079.0Q444 1087 452 1095Q432 1095 416.0 1102.0Q400 1109 400 1133Q400 1157 416.0 1164.0Q432 1171 452 1171Q443 1179 436.5 1187.0Q430 1195 430 1208Q430 1224 441.5 1235.0Q453 1246 468 1246Q482 1246 489.0 1240.0Q496 1234 505 1225Q505 1244 512.0 1260.5Q519 1277 543 1277Q567 1277 574.5 1261.0Q582 1245 582 1225Q590 1233 598.0 1239.5Q606 1246 619 1246Q635 1246 645.5 1235.5Q656 1225 656 1208Q656 1195 650.0 1187.0Q644 1179 635 1171ZM2240 1155Q2245 1160 2248.5 1164.0Q2252 1168 2252 1175Q2252 1183 2245.5 1189.0Q2239 1195 2231 1195Q2225 1195 2221.0 1192.0Q2217 1189 2212 1184Q2212 1194 2208.0 1203.0Q2204 1212 2192 1212Q2179 1212 2175.0 1203.5Q2171 1195 2171 1184Q2166 1189 2162.0 1192.0Q2158 1195 2151 1195Q2143 1195 2137.0 1189.0Q2131 1183 2131 1175Q2131 1168 2134.5 1164.0Q2138 1160 2143 1155Q2132 1155 2123.5 1151.5Q2115 1148 2115 1135Q2115 1122 2123.5 1118.5Q2132 1115 2143 1115Q2138 1110 2134.5 1106.0Q2131 1102 2131 1094Q2131 1086 2137.0 1080.0Q2143 1074 2151 1074Q2159 1074 2162.5 1077.5Q2166 1081 2171 1086Q2171 1075 2175.0 1066.5Q2179 1058 2192 1058Q2205 1058 2208.5 1067.0Q2212 1076 2212 1086Q2217 1081 2220.5 1077.5Q2224 1074 2231 1074Q2240 1074 2246.0 1080.0Q2252 1086 2252 1094Q2252 1102 2248.5 1106.0Q2245 1110 2240 1115Q2251 1115 2259.5 1118.5Q2268 1122 2268 1135Q2268 1149 2259.5 1152.0Q2251 1155 2240 1155ZM2317 219Q2328 219 2336.5 216.0Q2345 213 2345 199Q2345 186 2336.5 182.5Q2328 179 2317 179Q2322 174 2325.5 170.0Q2329 166 2329 158Q2329 150 2323.0 144.0Q2317 138 2308 138Q2301 138 2297.5 141.5Q2294 145 2289 150Q2289 139 2285.0 130.5Q2281 122 2268 122Q2255 122 2251.5 131.0Q2248 140 2248 150Q2243 145 2239.5 141.5Q2236 138 2228 138Q2220 138 2214.0 144.0Q2208 150 2208 158Q2208 166 2211.5 170.0Q2215 174 2220 179Q2209 179 2200.5 182.5Q2192 186 2192 199Q2192 212 2200.5 215.5Q2209 219 2220 219Q2215 224 2211.5 228.0Q2208 232 2208 239Q2208 248 2214.0 253.5Q2220 259 2228 259Q2236 259 2239.5 256.0Q2243 253 2248 248Q2248 258 2251.5 267.0Q2255 276 2268 276Q2281 276 2285.0 267.5Q2289 259 2289 248Q2294 253 2297.5 256.0Q2301 259 2308 259Q2317 259 2323.0 253.5Q2329 248 2329 239Q2329 232 2325.5 228.0Q2322 224 2317 219Z" style="fill:#00a6ed;stroke:none" transform="scale(1,-1) translate(0,-256)" /></svg>