<?xml version="1.0" encoding="utf-8" ?>
<svg baseProfile="full" height="256" version="1.1" width="256" xmlns="http://www.w3.org/2000/svg" xmlns:ev="http://www.w3.org/2001/xml-events" xmlns:xlink="http://www.w3.org/1999/xlink"><defs /><path d="M1954 995Q1954 944 1943.0 895.0Q1932 846 1906 802Q1971 745 2021.5 676.0Q2072 607 2107.0 530.0Q2142 453 2160.0 369.5Q2178 286 2178 199Q2178 79 2145.5 -9.5Q2113 -98 2056.0 -160.5Q1999 -223 1921.5 -262.0Q1844 -301 1755.0 -323.5Q1666 -346 1568.0 -354.0Q1470 -362 1373 -362Q1275 -362 1177.5 -354.0Q1080 -346 991.0 -323.5Q902 -301 824.5 -262.0Q747 -223 690.0 -160.5Q633 -98 600.5 -9.5Q568 79 568 199Q568 285 586.0 368.5Q604 452 638.5 528.5Q673 605 723.5 674.0Q774 743 838 801Q812 845 801.5 894.5Q791 944 791 995Q791 1115 836.5 1221.0Q882 1327 961.0 1406.0Q1040 1485 1146.0 1530.5Q1252 1576 1372 1576Q1452 1576 1526.5 1555.5Q1601 1535 1665.5 1497.0Q1730 1459 1783.5 1406.0Q1837 1353 1874.5 1288.5Q1912 1224 1933.0 1149.5Q1954 1075 1954 995Z" style="fill:#b4acbc;stroke:none" transform="scale(1,-1) translate(0,-256)" /></svg>