<?xml version="1.0" encoding="utf-8" ?>
<svg baseProfile="full" height="256" version="1.1" width="256" xmlns="http://www.w3.org/2000/svg" xmlns:ev="http://www.w3.org/2001/xml-events" xmlns:xlink="http://www.w3.org/1999/xlink"><defs /><path d="M1298 1294Q1313 1294 1323.5 1283.5Q1334 1273 1334 1258V1186Q1334 1171 1323.5 1160.5Q1313 1150 1298 1150Q1283 1150 1272.5 1160.5Q1262 1171 1262 1186V1258Q1262 1273 1272.5 1283.5Q1283 1294 1298 1294ZM1514 1294Q1529 1294 1539.5 1283.5Q1550 1273 1550 1258V1186Q1550 1171 1539.5 1160.5Q1529 1150 1514 1150Q1499 1150 1488.5 1160.5Q1478 1171 1478 1186V1258Q1478 1273 1488.5 1283.5Q1499 1294 1514 1294Z" style="fill:#433b6b;stroke:none" transform="scale(1,-1) translate(0,-256)" /></svg>