<?xml version="1.0" encoding="utf-8" ?>
<svg baseProfile="full" height="256" version="1.1" width="256" xmlns="http://www.w3.org/2000/svg" xmlns:ev="http://www.w3.org/2001/xml-events" xmlns:xlink="http://www.w3.org/1999/xlink"><defs /><path d="M1732 141H1660Q1660 130 1660.0 118.0Q1660 106 1657.0 95.0Q1654 84 1646.5 77.0Q1639 70 1624 70Q1609 70 1601.5 77.5Q1594 85 1591.0 95.5Q1588 106 1588.5 118.5Q1589 131 1589 141H1515Q1515 131 1515.0 118.5Q1515 106 1512.5 95.5Q1510 85 1502.5 78.0Q1495 71 1480 71Q1461 71 1453.5 83.5Q1446 96 1444.0 112.5Q1442 129 1443.5 146.5Q1445 164 1445 174Q1443 178 1443 188V573H1804V188Q1804 167 1803.5 146.5Q1803 126 1803 105Q1803 91 1792.0 80.5Q1781 70 1767 70Q1752 70 1744.5 77.5Q1737 85 1734.0 95.5Q1731 106 1731.5 118.5Q1732 131 1732 141Z" style="fill:#0074ba;stroke:none" transform="scale(1,-1) translate(0,-256)" /></svg>