<?xml version="1.0" encoding="utf-8" ?>
<svg baseProfile="full" height="256" version="1.1" width="256" xmlns="http://www.w3.org/2000/svg" xmlns:ev="http://www.w3.org/2001/xml-events" xmlns:xlink="http://www.w3.org/1999/xlink"><defs /><path d="M1047 1402Q1047 1388 1036.0 1377.0Q1025 1366 1011 1366Q910 1366 836 1295Q809 1269 790.0 1239.5Q771 1210 757 1175Q747 1150 723 1150Q708 1150 697.5 1161.0Q687 1172 687 1187Q687 1190 687.5 1192.5Q688 1195 689 1198Q705 1249 737.5 1293.0Q770 1337 812.5 1369.5Q855 1402 906.0 1420.0Q957 1438 1011 1438Q1025 1438 1036.0 1427.0Q1047 1416 1047 1402ZM2089 1150Q2065 1150 2055 1175Q2041 1210 2022.0 1239.5Q2003 1269 1976 1295Q1940 1330 1896.0 1348.0Q1852 1366 1801 1366Q1786 1366 1775.5 1376.5Q1765 1387 1765 1402Q1765 1417 1775.5 1427.5Q1786 1438 1801 1438Q1854 1438 1905.0 1419.5Q1956 1401 1999.5 1369.0Q2043 1337 2075.0 1293.0Q2107 1249 2123 1198Q2124 1195 2124.5 1192.5Q2125 1190 2125 1187Q2125 1172 2114.5 1161.0Q2104 1150 2089 1150ZM1011 1006Q974 1006 954.0 995.5Q934 985 922.5 969.0Q911 953 905.0 934.5Q899 916 891.5 900.0Q884 884 870.5 873.5Q857 863 831 863Q801 863 780.0 884.0Q759 905 759 935Q759 938 759.0 941.5Q759 945 760 948Q769 996 791.0 1033.5Q813 1071 846.0 1097.0Q879 1123 921.0 1136.5Q963 1150 1011 1150Q1058 1150 1100.0 1136.0Q1142 1122 1175.0 1095.5Q1208 1069 1230.5 1031.5Q1253 994 1261 947Q1262 943 1262 934Q1262 905 1241.0 884.0Q1220 863 1190 863Q1164 863 1150.5 873.5Q1137 884 1129.0 900.0Q1121 916 1115.5 934.5Q1110 953 1098.5 969.0Q1087 985 1067.0 995.5Q1047 1006 1011 1006ZM1801 1006Q1765 1006 1744.5 995.5Q1724 985 1713.0 969.0Q1702 953 1696.0 934.5Q1690 916 1682.5 900.0Q1675 884 1661.5 873.5Q1648 863 1622 863Q1593 863 1571.5 883.5Q1550 904 1550 934Q1550 943 1551 948Q1560 996 1582.0 1033.5Q1604 1071 1637.0 1097.0Q1670 1123 1711.5 1136.5Q1753 1150 1801 1150Q1848 1150 1890.0 1136.0Q1932 1122 1965.5 1095.5Q1999 1069 2021.5 1031.5Q2044 994 2052 947Q2053 943 2053 935Q2053 905 2031.5 884.0Q2010 863 1980 863Q1954 863 1941.0 873.5Q1928 884 1920.0 900.0Q1912 916 1906.0 934.5Q1900 953 1888.5 969.0Q1877 985 1857.0 995.5Q1837 1006 1801 1006Z" style="fill:#402a32;stroke:none" transform="scale(1,-1) translate(0,-256)" /></svg>