<?xml version="1.0" encoding="utf-8" ?>
<svg baseProfile="full" height="256" version="1.1" width="256" xmlns="http://www.w3.org/2000/svg" xmlns:ev="http://www.w3.org/2001/xml-events" xmlns:xlink="http://www.w3.org/1999/xlink"><defs /><path d="M1478 1366H2197Q2242 1366 2281.0 1349.0Q2320 1332 2349.0 1302.5Q2378 1273 2395.0 1234.0Q2412 1195 2412 1150V431H1262V1150Q1262 1195 1279.0 1234.0Q1296 1273 1325.5 1302.5Q1355 1332 1394.0 1349.0Q1433 1366 1478 1366ZM400 72H465Q497 72 520.0 95.0Q543 118 543 150V281Q543 313 520.0 336.5Q497 360 465 360H400Z" style="fill:#fcd53f;stroke:none" transform="scale(1,-1) translate(0,-256)" /></svg>