<?xml version="1.0" encoding="utf-8" ?>
<svg baseProfile="full" height="256" version="1.1" width="256" xmlns="http://www.w3.org/2000/svg" xmlns:ev="http://www.w3.org/2001/xml-events" xmlns:xlink="http://www.w3.org/1999/xlink"><defs /><path d="M1693 1312Q1782 1312 1861.0 1278.5Q1940 1245 1998.5 1186.5Q2057 1128 2091.0 1049.5Q2125 971 2125 881V557Q2125 467 2091.0 388.5Q2057 310 1998.5 251.5Q1940 193 1861.0 159.5Q1782 126 1693 126Q1604 126 1525.5 160.0Q1447 194 1388.5 252.5Q1330 311 1296.0 389.5Q1262 468 1262 557V881Q1262 970 1296.0 1048.5Q1330 1127 1388.5 1185.5Q1447 1244 1525.5 1278.0Q1604 1312 1693 1312ZM1514 557Q1514 520 1528.0 487.5Q1542 455 1566.5 430.5Q1591 406 1623.5 392.0Q1656 378 1693 378Q1730 378 1763.0 392.0Q1796 406 1820.5 430.5Q1845 455 1859.0 487.5Q1873 520 1873 557V881Q1873 918 1859.0 950.5Q1845 983 1820.5 1007.5Q1796 1032 1763.0 1046.0Q1730 1060 1693 1060Q1656 1060 1623.5 1046.0Q1591 1032 1566.5 1007.5Q1542 983 1528.0 950.5Q1514 918 1514 881ZM1118 252Q1118 226 1108.5 203.0Q1099 180 1082.0 163.0Q1065 146 1042.0 136.0Q1019 126 993 126Q967 126 944.0 136.0Q921 146 904.0 163.0Q887 180 877.0 203.0Q867 226 867 252V872Q846 848 822.0 834.5Q798 821 765 821Q739 821 716.0 831.0Q693 841 676.0 858.0Q659 875 649.0 897.5Q639 920 639 946Q639 970 647.5 993.0Q656 1016 673 1033L902 1273Q920 1292 943.5 1302.0Q967 1312 993 1312Q1019 1312 1041.5 1302.0Q1064 1292 1081.0 1275.0Q1098 1258 1108.0 1235.0Q1118 1212 1118 1186Z" style="fill:#ffffff;stroke:none" transform="scale(1,-1) translate(0,-256)" /></svg>