<?xml version="1.0" encoding="utf-8" ?>
<svg baseProfile="full" height="256" version="1.1" width="256" xmlns="http://www.w3.org/2000/svg" xmlns:ev="http://www.w3.org/2001/xml-events" xmlns:xlink="http://www.w3.org/1999/xlink"><defs /><path d="M1731 817Q1707 777 1667.0 753.5Q1627 730 1580 730Q1544 730 1512.5 743.5Q1481 757 1457.0 781.0Q1433 805 1419.5 836.5Q1406 868 1406 904Q1406 940 1419.5 971.5Q1433 1003 1457.0 1027.0Q1481 1051 1512.5 1064.5Q1544 1078 1580 1078Q1627 1078 1667.0 1054.5Q1707 1031 1731 991H2371Q2408 991 2432.5 965.5Q2457 940 2457 904Q2457 868 2432.0 842.5Q2407 817 2371 817Z" style="fill:#d3d3d3;stroke:none" transform="scale(1,-1) translate(0,-256)" /></svg>