<?xml version="1.0" encoding="utf-8" ?>
<svg baseProfile="full" height="256" version="1.1" width="256" xmlns="http://www.w3.org/2000/svg" xmlns:ev="http://www.w3.org/2001/xml-events" xmlns:xlink="http://www.w3.org/1999/xlink"><defs /><path d="M1343 592Q1343 547 1331.5 508.5Q1320 470 1298 431Q1259 361 1207.5 294.0Q1156 227 1108 163Q1042 76 976.0 -10.0Q910 -96 840 -180Q797 -231 740.5 -259.0Q684 -287 616 -287Q556 -287 503.5 -264.5Q451 -242 412.0 -203.0Q373 -164 350.5 -111.5Q328 -59 328 1Q328 35 331.0 65.0Q334 95 341.5 122.5Q349 150 362.5 177.0Q376 204 398 231L1047 1042Q1101 1006 1154.0 957.0Q1207 908 1249.0 849.5Q1291 791 1317.0 726.0Q1343 661 1343 592Z" style="fill:#8c5543;stroke:none" transform="scale(1,-1) translate(0,-256)" /></svg>