<?xml version="1.0" encoding="utf-8" ?>
<svg baseProfile="full" height="256" version="1.1" width="256" xmlns="http://www.w3.org/2000/svg" xmlns:ev="http://www.w3.org/2001/xml-events" xmlns:xlink="http://www.w3.org/1999/xlink"><defs /><path d="M1779 1024Q1798 1044 1822.5 1061.5Q1847 1079 1876 1079Q1903 1079 1921.5 1065.5Q1940 1052 1951.0 1031.5Q1962 1011 1967.0 986.5Q1972 962 1972 940Q1972 904 1964.5 864.5Q1957 825 1945 791L1855 899H1693L1565 706L1586 683L1550 396L1232 808Q1213 833 1213 863Q1213 901 1239.5 927.5Q1266 954 1304 954Q1323 954 1338 947Q1321 969 1309.5 987.5Q1298 1006 1298 1035Q1298 1057 1306.5 1076.5Q1315 1096 1330.0 1110.0Q1345 1124 1364.5 1132.5Q1384 1141 1406 1141Q1435 1141 1454.5 1129.5Q1474 1118 1494 1098Q1488 1113 1488 1130Q1488 1149 1495.5 1166.5Q1503 1184 1515.5 1196.5Q1528 1209 1545.0 1216.5Q1562 1224 1582 1224Q1604 1224 1623.5 1214.5Q1643 1205 1657 1187L1779 1024Z" style="fill:#fbb8ab;stroke:none" transform="scale(1,-1) translate(0,-256)" /></svg>