<?xml version="1.0" encoding="utf-8" ?>
<svg baseProfile="full" height="256" version="1.1" width="256" xmlns="http://www.w3.org/2000/svg" xmlns:ev="http://www.w3.org/2001/xml-events" xmlns:xlink="http://www.w3.org/1999/xlink"><defs /><path d="M1032 1024 1155 1187Q1169 1204 1188.5 1214.0Q1208 1224 1230 1224Q1249 1224 1266.5 1216.5Q1284 1209 1296.5 1196.5Q1309 1184 1316.5 1166.5Q1324 1149 1324 1130Q1324 1113 1318 1098Q1338 1118 1357.5 1129.5Q1377 1141 1406 1141Q1428 1141 1447.5 1132.5Q1467 1124 1481.5 1109.5Q1496 1095 1504.5 1075.5Q1513 1056 1513 1034Q1513 1005 1502.0 986.5Q1491 968 1474 947Q1489 954 1508 954Q1546 954 1572.0 927.5Q1598 901 1598 863Q1598 832 1580 808L1262 396L1226 683L1247 706L1118 899H957L867 791Q855 825 847.5 864.5Q840 904 840 940Q840 961 845.0 985.5Q850 1010 861.0 1031.0Q872 1052 890.0 1065.5Q908 1079 935 1079Q964 1079 989.0 1061.5Q1014 1044 1032 1024Z" style="fill:#fbb8ab;stroke:none" transform="scale(1,-1) translate(0,-256)" /></svg>