<?xml version="1.0" encoding="utf-8" ?>
<svg baseProfile="full" height="256" version="1.1" width="256" xmlns="http://www.w3.org/2000/svg" xmlns:ev="http://www.w3.org/2001/xml-events" xmlns:xlink="http://www.w3.org/1999/xlink"><defs /><path d="M1469 592Q1469 661 1495.0 726.0Q1521 791 1563.0 849.5Q1605 908 1658.0 957.0Q1711 1006 1765 1042L2414 231Q2457 178 2470.5 122.5Q2484 67 2484 1Q2484 -59 2461.5 -111.5Q2439 -164 2400.0 -203.0Q2361 -242 2308.5 -264.5Q2256 -287 2196 -287Q2128 -287 2071.5 -259.0Q2015 -231 1972 -180Q1902 -96 1836.0 -10.0Q1770 76 1704 163Q1656 227 1604.5 294.0Q1553 361 1514 431Q1492 470 1480.5 508.5Q1469 547 1469 592Z" style="fill:#8c5543;stroke:none" transform="scale(1,-1) translate(0,-256)" /></svg>