<?xml version="1.0" encoding="utf-8" ?>
<svg baseProfile="full" height="256" version="1.1" width="256" xmlns="http://www.w3.org/2000/svg" xmlns:ev="http://www.w3.org/2001/xml-events" xmlns:xlink="http://www.w3.org/1999/xlink"><defs /><path d="M543 863Q543 972 571.5 1073.0Q600 1174 651.5 1261.5Q703 1349 775.0 1421.5Q847 1494 935.0 1545.5Q1023 1597 1124.0 1625.0Q1225 1653 1334 1653H1478Q1587 1653 1688.0 1625.0Q1789 1597 1876.5 1545.5Q1964 1494 2036.5 1421.5Q2109 1349 2160.5 1261.5Q2212 1174 2240.0 1073.0Q2268 972 2268 863V719Q2268 610 2240.0 509.0Q2212 408 2160.5 320.0Q2109 232 2036.5 160.0Q1964 88 1876.5 36.5Q1789 -15 1688.0 -43.5Q1587 -72 1478 -72H1334Q1225 -72 1124.0 -44.0Q1023 -16 935.0 35.5Q847 87 774.5 159.5Q702 232 650.5 320.0Q599 408 571.0 509.0Q543 610 543 719Z" style="fill:#7d4533;stroke:none" transform="scale(1,-1) translate(0,-256)" /></svg>