<?xml version="1.0" encoding="utf-8" ?>
<svg baseProfile="full" height="256" version="1.1" width="256" xmlns="http://www.w3.org/2000/svg" xmlns:ev="http://www.w3.org/2001/xml-events" xmlns:xlink="http://www.w3.org/1999/xlink"><defs /><path d="M867 1294H1658Q1710 1294 1755.5 1274.0Q1801 1254 1835.0 1219.5Q1869 1185 1889.0 1139.5Q1909 1094 1909 1042V811L2126 843Q2131 844 2134.5 844.0Q2138 844 2143 844Q2169 844 2191.5 834.0Q2214 824 2231.0 807.0Q2248 790 2258.0 767.5Q2268 745 2268 719Q2268 693 2258.0 670.5Q2248 648 2231.0 631.0Q2214 614 2191.5 604.0Q2169 594 2143 594Q2138 594 2134.5 594.0Q2131 594 2126 595L1909 626V539Q1909 487 1889.0 441.5Q1869 396 1835.0 362.0Q1801 328 1755.5 308.0Q1710 288 1658 288H867Q815 288 769.5 308.0Q724 328 689.5 362.0Q655 396 635.0 441.5Q615 487 615 539V1042Q615 1094 635.0 1140.0Q655 1186 689.0 1220.0Q723 1254 769.0 1274.0Q815 1294 867 1294Z" style="fill:#f8312f;stroke:none" transform="scale(1,-1) translate(0,-256)" /></svg>