<?xml version="1.0" encoding="utf-8" ?>
<svg baseProfile="full" height="256" version="1.1" width="256" xmlns="http://www.w3.org/2000/svg" xmlns:ev="http://www.w3.org/2001/xml-events" xmlns:xlink="http://www.w3.org/1999/xlink"><defs /><path d="M1765 290Q1765 258 1747.0 231.5Q1729 205 1702.0 185.5Q1675 166 1643.0 155.0Q1611 144 1583 144H1586Q1590 133 1600.5 102.5Q1611 72 1624.5 32.0Q1638 -8 1653.0 -52.0Q1668 -96 1680.5 -134.0Q1693 -172 1701.0 -199.0Q1709 -226 1709 -232Q1709 -255 1693.5 -271.0Q1678 -287 1655 -287H870Q848 -287 832.0 -271.5Q816 -256 816 -234Q816 -228 824.0 -200.5Q832 -173 844.5 -135.0Q857 -97 872.0 -52.5Q887 -8 900.5 32.0Q914 72 924.5 102.5Q935 133 939 144H905Q875 144 848.0 155.5Q821 167 801.5 186.5Q782 206 770.5 233.0Q759 260 759 290V401H1765ZM1442 144H1083L988 -139H1536Z" style="fill:#636363;stroke:none" transform="scale(1,-1) translate(0,-256)" /></svg>