<?xml version="1.0" encoding="utf-8" ?>
<svg baseProfile="full" height="256" version="1.1" width="256" xmlns="http://www.w3.org/2000/svg" xmlns:ev="http://www.w3.org/2001/xml-events" xmlns:xlink="http://www.w3.org/1999/xlink"><defs /><path d="M1406 1653Q1406 1683 1427.0 1704.0Q1448 1725 1478 1725Q1507 1725 1528.5 1703.5Q1550 1682 1550 1653V1438Q1550 1409 1528.5 1388.0Q1507 1367 1478 1367Q1449 1367 1427.5 1388.0Q1406 1409 1406 1438ZM1694 1436Q1694 1441 1694.0 1445.0Q1694 1449 1696 1454L1755 1671Q1761 1694 1780.5 1709.0Q1800 1724 1824 1724Q1853 1724 1874.0 1703.0Q1895 1682 1895 1653Q1895 1648 1895.0 1644.0Q1895 1640 1893 1635L1834 1418Q1828 1395 1809.5 1379.5Q1791 1364 1766 1364Q1737 1364 1715.5 1385.0Q1694 1406 1694 1436Z" style="fill:#a56953;stroke:none" transform="scale(1,-1) translate(0,-256)" /></svg>