<?xml version="1.0" encoding="utf-8" ?>
<svg baseProfile="full" height="256" version="1.1" width="256" xmlns="http://www.w3.org/2000/svg" xmlns:ev="http://www.w3.org/2001/xml-events" xmlns:xlink="http://www.w3.org/1999/xlink"><defs /><path d="M1837 1024Q1837 1015 1833.0 1000.5Q1829 986 1826 978Q1806 926 1760.0 894.5Q1714 863 1658 863H866Q810 863 764.0 894.5Q718 926 698 978Q695 986 691.0 1000.5Q687 1015 687 1024Q687 1050 700.0 1073.0Q713 1096 734.0 1113.5Q755 1131 780.5 1141.0Q806 1151 830 1151H1694Q1719 1151 1744.5 1141.0Q1770 1131 1790.5 1114.0Q1811 1097 1824.0 1074.0Q1837 1051 1837 1024Z" style="fill:#fff478;stroke:none" transform="scale(1,-1) translate(0,-256)" /></svg>