<?xml version="1.0" encoding="utf-8" ?>
<svg baseProfile="full" height="256" version="1.1" width="256" xmlns="http://www.w3.org/2000/svg" xmlns:ev="http://www.w3.org/2001/xml-events" xmlns:xlink="http://www.w3.org/1999/xlink"><defs /><path d="M1362 990Q1362 1011 1370.5 1030.5Q1379 1050 1393.0 1064.0Q1407 1078 1426.5 1086.5Q1446 1095 1467 1095Q1489 1095 1508.0 1086.5Q1527 1078 1541.0 1064.0Q1555 1050 1563.0 1031.0Q1571 1012 1571 990ZM945 937Q945 966 956.0 991.5Q967 1017 986.0 1036.0Q1005 1055 1030.5 1066.0Q1056 1077 1085 1077Q1114 1077 1139.5 1066.0Q1165 1055 1184.0 1036.0Q1203 1017 1214.0 991.5Q1225 966 1225 937Z" style="fill:#ffb02e;stroke:none" transform="scale(1,-1) translate(0,-256)" /></svg>