<?xml version="1.0" encoding="utf-8" ?>
<svg baseProfile="full" height="256" version="1.1" width="256" xmlns="http://www.w3.org/2000/svg" xmlns:ev="http://www.w3.org/2001/xml-events" xmlns:xlink="http://www.w3.org/1999/xlink"><defs /><path d="M2197 -287H615Q570 -287 531.0 -270.0Q492 -253 463.0 -224.0Q434 -195 417.0 -156.0Q400 -117 400 -72V1006Q400 1051 417.0 1090.0Q434 1129 463.0 1158.5Q492 1188 531.0 1205.0Q570 1222 615 1222H2197Q2242 1222 2281.0 1205.0Q2320 1188 2349.0 1158.5Q2378 1129 2395.0 1090.0Q2412 1051 2412 1006V-72Q2412 -117 2395.0 -156.0Q2378 -195 2349.0 -224.0Q2320 -253 2281.0 -270.0Q2242 -287 2197 -287Z" style="fill:#636363;stroke:none" transform="scale(1,-1) translate(0,-256)" /></svg>