<?xml version="1.0" encoding="utf-8" ?>
<svg baseProfile="full" height="256" version="1.1" width="256" xmlns="http://www.w3.org/2000/svg" xmlns:ev="http://www.w3.org/2001/xml-events" xmlns:xlink="http://www.w3.org/1999/xlink"><defs /><path d="M868 845Q868 874 889.0 895.5Q910 917 939 917Q968 917 989.5 895.5Q1011 874 1011 845V773Q1011 743 990.0 722.0Q969 701 939 701Q910 701 889.0 722.5Q868 744 868 773ZM868 558Q868 587 889.0 608.5Q910 630 939 630Q968 630 989.5 608.5Q1011 587 1011 558V486Q1011 456 990.0 435.0Q969 414 939 414Q910 414 889.0 435.5Q868 457 868 486ZM1227 701Q1197 701 1176.0 722.0Q1155 743 1155 773V845Q1155 874 1176.5 895.5Q1198 917 1227 917Q1256 917 1277.5 895.5Q1299 874 1299 845V773Q1299 744 1277.5 722.5Q1256 701 1227 701ZM1155 558Q1155 587 1176.5 608.5Q1198 630 1227 630Q1256 630 1277.5 608.5Q1299 587 1299 558V486Q1299 457 1277.5 435.5Q1256 414 1227 414Q1198 414 1176.5 435.5Q1155 457 1155 486ZM1585 701Q1555 701 1534.0 722.0Q1513 743 1513 773V845Q1513 874 1534.5 895.5Q1556 917 1585 917Q1614 917 1635.5 895.5Q1657 874 1657 845V773Q1657 743 1636.0 722.0Q1615 701 1585 701ZM1513 558Q1513 587 1534.5 608.5Q1556 630 1585 630Q1614 630 1635.5 608.5Q1657 587 1657 558V486Q1657 456 1636.0 435.0Q1615 414 1585 414Q1556 414 1534.5 435.5Q1513 457 1513 486ZM1872 701Q1843 701 1822.0 722.5Q1801 744 1801 773V845Q1801 874 1822.0 895.5Q1843 917 1872 917Q1901 917 1922.5 895.5Q1944 874 1944 845V773Q1944 743 1923.0 722.0Q1902 701 1872 701ZM1801 558Q1801 587 1822.0 608.5Q1843 630 1872 630Q1901 630 1922.5 608.5Q1944 587 1944 558V486Q1944 456 1923.0 435.0Q1902 414 1872 414Q1843 414 1822.0 435.5Q1801 457 1801 486Z" style="fill:#008463;stroke:none" transform="scale(1,-1) translate(0,-256)" /></svg>