<?xml version="1.0" encoding="utf-8" ?>
<svg baseProfile="full" height="256" version="1.1" width="256" xmlns="http://www.w3.org/2000/svg" xmlns:ev="http://www.w3.org/2001/xml-events" xmlns:xlink="http://www.w3.org/1999/xlink"><defs /><path d="M1332 -144Q1310 -144 1290.5 -135.5Q1271 -127 1256.0 -112.0Q1241 -97 1232.5 -77.5Q1224 -58 1224 -36Q1224 -14 1232.5 6.0Q1241 26 1255.5 40.5Q1270 55 1289.5 63.5Q1309 72 1332 72H1691Q1713 72 1733.0 63.5Q1753 55 1767.0 40.0Q1781 25 1789.5 5.5Q1798 -14 1798 -36Q1798 -58 1789.5 -77.5Q1781 -97 1766.5 -112.0Q1752 -127 1732.5 -135.5Q1713 -144 1691 -144ZM651 -144Q629 -144 609.5 -135.5Q590 -127 575.0 -112.0Q560 -97 551.5 -77.5Q543 -58 543 -36Q543 -14 551.5 5.5Q560 25 575.0 39.5Q590 54 609.5 62.5Q629 71 651 71H1010Q1032 71 1051.5 62.5Q1071 54 1086.0 40.0Q1101 26 1109.5 6.0Q1118 -14 1118 -36Q1118 -58 1109.5 -77.5Q1101 -97 1086.0 -112.0Q1071 -127 1051.0 -135.5Q1031 -144 1009 -144Z" style="fill:#9b9b9b;stroke:none" transform="scale(1,-1) translate(0,-256)" /></svg>