<?xml version="1.0" encoding="utf-8" ?>
<svg baseProfile="full" height="256" version="1.1" width="256" xmlns="http://www.w3.org/2000/svg" xmlns:ev="http://www.w3.org/2001/xml-events" xmlns:xlink="http://www.w3.org/1999/xlink"><defs /><path d="M1209 1222Q1209 1227 1208.5 1231.0Q1208 1235 1208 1240Q1208 1281 1223.5 1317.0Q1239 1353 1266.0 1380.0Q1293 1407 1329.0 1422.5Q1365 1438 1406 1438Q1447 1438 1483.0 1422.5Q1519 1407 1546.0 1380.0Q1573 1353 1588.5 1317.0Q1604 1281 1604 1240Q1604 1235 1603.5 1231.0Q1603 1227 1603 1222H1747Q1755 1222 1760.0 1217.0Q1765 1212 1765 1204V378Q1765 370 1760.0 365.0Q1755 360 1747 360H1065Q1057 360 1052.0 365.0Q1047 370 1047 378V1204Q1047 1212 1052.0 1217.0Q1057 1222 1065 1222ZM1281 1222H1530Q1531 1227 1531.5 1231.0Q1532 1235 1532 1240Q1532 1266 1522.0 1289.0Q1512 1312 1495.0 1329.0Q1478 1346 1455.0 1356.0Q1432 1366 1406 1366Q1380 1366 1357.0 1356.0Q1334 1346 1317.0 1329.0Q1300 1312 1290.0 1289.0Q1280 1266 1280 1240Q1280 1235 1280.5 1231.0Q1281 1227 1281 1222ZM831 1222Q801 1222 780.0 1201.0Q759 1180 759 1150V431Q759 402 780.5 381.0Q802 360 831 360H957Q965 360 970.0 365.0Q975 370 975 378V1204Q975 1212 970.0 1217.0Q965 1222 957 1222ZM1837 378Q1837 370 1842.0 365.0Q1847 360 1855 360H1981Q2010 360 2031.5 381.0Q2053 402 2053 431V1150Q2053 1180 2032.0 1201.0Q2011 1222 1981 1222H1855Q1847 1222 1842.0 1217.0Q1837 1212 1837 1204ZM2125 180Q2125 195 2114.5 205.5Q2104 216 2089 216H723Q708 216 697.5 205.5Q687 195 687 180Q687 165 697.5 154.5Q708 144 723 144H903Q903 114 924.0 93.0Q945 72 975 72Q1004 72 1025.5 93.5Q1047 115 1047 144H1190Q1190 115 1211.5 93.5Q1233 72 1262 72Q1292 72 1313.0 93.0Q1334 114 1334 144H1478Q1478 114 1499.0 93.0Q1520 72 1550 72Q1579 72 1600.5 93.5Q1622 115 1622 144H1765Q1765 115 1786.5 93.5Q1808 72 1837 72Q1867 72 1888.0 93.0Q1909 114 1909 144H2089Q2104 144 2114.5 154.5Q2125 165 2125 180Z" style="fill:#ffffff;stroke:none" transform="scale(1,-1) translate(0,-256)" /></svg>