<?xml version="1.0" encoding="utf-8" ?>
<svg baseProfile="full" height="256" version="1.1" width="256" xmlns="http://www.w3.org/2000/svg" xmlns:ev="http://www.w3.org/2001/xml-events" xmlns:xlink="http://www.w3.org/1999/xlink"><defs /><path d="M550 1719 926 1076 405 779Q400 789 400 805V813L530 1691Q533 1711 550 1719ZM2232 -8Q2214 -8 2196.5 -18.0Q2179 -28 2161.0 -40.0Q2143 -52 2125.5 -62.0Q2108 -72 2091 -72Q2076 -72 2064.5 -62.0Q2053 -52 2053 -36V107Q2053 123 2064.5 133.0Q2076 143 2091 143Q2108 143 2125.5 133.0Q2143 123 2161.0 111.5Q2179 100 2196.5 90.0Q2214 80 2232 80Q2250 80 2268.0 90.0Q2286 100 2304.5 112.0Q2323 124 2340.5 134.0Q2358 144 2374 144Q2389 144 2400.5 134.0Q2412 124 2412 109V-35Q2412 -50 2400.0 -60.5Q2388 -71 2374 -71Q2358 -71 2340.5 -61.0Q2323 -51 2304.5 -39.5Q2286 -28 2268.0 -18.0Q2250 -8 2232 -8Z" style="fill:#f8312f;stroke:none" transform="scale(1,-1) translate(0,-256)" /></svg>