<?xml version="1.0" encoding="utf-8" ?>
<svg baseProfile="full" height="256" version="1.1" width="256" xmlns="http://www.w3.org/2000/svg" xmlns:ev="http://www.w3.org/2001/xml-events" xmlns:xlink="http://www.w3.org/1999/xlink"><defs /><path d="M2269 1043Q2269 1032 2263.5 1024.0Q2258 1016 2250 1011Q2200 978 2155.5 944.5Q2111 911 2073 864Q2046 831 2026.5 792.0Q2007 753 2007 709Q2007 671 2026.5 624.0Q2046 577 2075.0 524.0Q2104 471 2138.0 413.5Q2172 356 2201.0 295.5Q2230 235 2249.5 173.5Q2269 112 2269 52Q2269 -20 2251.0 -74.5Q2233 -129 2197.5 -169.5Q2162 -210 2110.0 -238.5Q2058 -267 1991 -286Q1943 -300 1894 -300Q1823 -300 1761.0 -271.5Q1699 -243 1646.5 -197.0Q1594 -151 1552.0 -93.5Q1510 -36 1479 22Q1470 39 1462.5 57.5Q1455 76 1445 93Q1445 95 1444 95L1469 105L1444 95Q1442 99 1442 108Q1442 123 1453.0 133.5Q1464 144 1479 144Q1490 144 1498.5 137.5Q1507 131 1511 121L1512 120Q1517 103 1526.0 87.0Q1535 71 1543 56Q1569 7 1604.5 -43.5Q1640 -94 1684.5 -135.0Q1729 -176 1781.5 -202.0Q1834 -228 1895 -228Q1932 -228 1971 -217Q2025 -201 2067.5 -179.5Q2110 -158 2138.5 -127.0Q2167 -96 2182.0 -53.5Q2197 -11 2197 48V72Q2197 117 2177.5 170.0Q2158 223 2129.0 279.5Q2100 336 2066.0 394.0Q2032 452 2003.0 508.0Q1974 564 1954.5 615.5Q1935 667 1935 710Q1935 765 1961.5 820.0Q1988 875 2028.5 924.0Q2069 973 2118.5 1012.0Q2168 1051 2215 1074Q2222 1078 2232 1078Q2247 1078 2258.0 1067.5Q2269 1057 2269 1043Z" style="fill:#d3d3d3;stroke:none" transform="scale(1,-1) translate(0,-256)" /></svg>