<?xml version="1.0" encoding="utf-8" ?>
<svg baseProfile="full" height="256" version="1.1" width="256" xmlns="http://www.w3.org/2000/svg" xmlns:ev="http://www.w3.org/2001/xml-events" xmlns:xlink="http://www.w3.org/1999/xlink"><defs /><path d="M1529 110Q1529 88 1509 78L1020 528L925 1077L1447 1374Q1457 1359 1459 1340L1529 115ZM1948 431Q1930 431 1919 445Q1914 452 1900.5 468.5Q1887 485 1873.0 504.0Q1859 523 1848.0 540.0Q1837 557 1837 565Q1837 578 1847.5 586.5Q1858 595 1870 596L1971 600Q1994 601 2007.0 619.5Q2020 638 2030.5 660.0Q2041 682 2053.0 700.5Q2065 719 2086 719Q2104 719 2115 705Q2120 698 2133.5 681.5Q2147 665 2161.0 646.0Q2175 627 2186.0 610.0Q2197 593 2197 586Q2197 572 2186.5 564.0Q2176 556 2164 555L2063 550Q2047 549 2036.0 540.0Q2025 531 2017.0 518.0Q2009 505 2002.5 489.5Q1996 474 1988.5 461.0Q1981 448 1971.5 439.5Q1962 431 1948 431Z" style="fill:#f9c23c;stroke:none" transform="scale(1,-1) translate(0,-256)" /></svg>