<?xml version="1.0" encoding="utf-8" ?>
<svg baseProfile="full" height="256" version="1.1" width="256" xmlns="http://www.w3.org/2000/svg" xmlns:ev="http://www.w3.org/2001/xml-events" xmlns:xlink="http://www.w3.org/1999/xlink"><defs /><path d="M404 779 660 1076H926L1510 78Q1501 72 1490 72Q1479 72 1467 79L428 752Q411 764 404 779ZM2196 326Q2174 326 2159.5 309.0Q2145 292 2132.0 271.0Q2119 250 2105.5 233.0Q2092 216 2073 216Q2051 216 2042 235Q2038 244 2028.0 263.0Q2018 282 2007.5 303.5Q1997 325 1989.0 343.5Q1981 362 1981 370Q1981 384 1991.0 393.0Q2001 402 2015 402Q2042 402 2069.5 397.5Q2097 393 2124 393Q2146 393 2160.5 410.0Q2175 427 2188.0 448.0Q2201 469 2214.5 486.0Q2228 503 2248 503Q2269 503 2279 484Q2283 475 2293.0 456.0Q2303 437 2313.5 415.5Q2324 394 2332.0 375.0Q2340 356 2340 349Q2340 335 2330.0 326.0Q2320 317 2306 317Q2279 317 2251.5 321.5Q2224 326 2196 326Z" style="fill:#00a6ed;stroke:none" transform="scale(1,-1) translate(0,-256)" /></svg>