<?xml version="1.0" encoding="utf-8" ?>
<svg baseProfile="full" height="256" version="1.1" width="256" xmlns="http://www.w3.org/2000/svg" xmlns:ev="http://www.w3.org/2001/xml-events" xmlns:xlink="http://www.w3.org/1999/xlink"><defs /><path d="M868 1446Q882 1446 891.0 1436.0Q900 1426 900 1412Q900 1379 882.5 1345.0Q865 1311 837.0 1283.5Q809 1256 775.0 1238.0Q741 1220 708 1220Q694 1220 684.0 1230.0Q674 1240 674 1254Q674 1267 684 1277Q688 1281 699.5 1284.0Q711 1287 726.0 1292.0Q741 1297 758.0 1306.0Q775 1315 791 1330Q807 1346 815.5 1363.0Q824 1380 828.5 1394.5Q833 1409 836.0 1420.5Q839 1432 844 1437Q849 1442 855.5 1444.0Q862 1446 868 1446ZM2117 1340Q2117 1331 2115.5 1321.5Q2114 1312 2114 1302Q2114 1258 2136.0 1222.5Q2158 1187 2196 1166Q2214 1156 2214 1136Q2214 1122 2204.0 1113.0Q2194 1104 2181 1104Q2172 1104 2165 1108Q2110 1137 2078.5 1189.0Q2047 1241 2047 1303Q2047 1313 2047.5 1325.5Q2048 1338 2052.0 1349.0Q2056 1360 2063.0 1367.5Q2070 1375 2084 1375Q2099 1375 2108.0 1364.5Q2117 1354 2117 1340ZM1182 468Q1196 468 1204.0 459.0Q1212 450 1216.0 437.0Q1220 424 1221.0 409.5Q1222 395 1222 385Q1222 326 1193.5 276.5Q1165 227 1114 197Q1106 192 1097 192Q1084 192 1074.0 201.0Q1064 210 1064 224Q1064 244 1080 254Q1115 277 1135.5 309.5Q1156 342 1156 385Q1156 398 1152.5 410.0Q1149 422 1149 433Q1149 447 1158.5 457.5Q1168 468 1182 468Z" style="fill:#e39d89;stroke:none" transform="scale(1,-1) translate(0,-256)" /></svg>