<?xml version="1.0" encoding="utf-8" ?>
<svg baseProfile="full" height="256" version="1.1" width="256" xmlns="http://www.w3.org/2000/svg" xmlns:ev="http://www.w3.org/2001/xml-events" xmlns:xlink="http://www.w3.org/1999/xlink"><defs /><path d="M1118 719Q1088 719 1062.0 730.5Q1036 742 1016.5 761.5Q997 781 986.0 807.0Q975 833 975 863Q975 893 986.0 919.0Q997 945 1016.5 964.5Q1036 984 1062.0 995.0Q1088 1006 1118 1006Q1148 1006 1174.0 995.0Q1200 984 1219.5 964.5Q1239 945 1250.5 919.0Q1262 893 1262 863Q1262 833 1250.5 806.5Q1239 780 1219.5 760.5Q1200 741 1174.0 730.0Q1148 719 1118 719ZM1693 719Q1663 719 1637.0 730.5Q1611 742 1591.5 761.5Q1572 781 1561.0 807.0Q1550 833 1550 863Q1550 893 1561.0 919.0Q1572 945 1591.5 964.5Q1611 984 1637.0 995.0Q1663 1006 1693 1006Q1723 1006 1749.0 995.0Q1775 984 1794.5 964.5Q1814 945 1825.5 919.0Q1837 893 1837 863Q1837 833 1825.5 806.5Q1814 780 1794.5 760.5Q1775 741 1749.0 730.0Q1723 719 1693 719Z" style="fill:#402a32;stroke:none" transform="scale(1,-1) translate(0,-256)" /></svg>