<?xml version="1.0" encoding="utf-8" ?>
<svg baseProfile="full" height="256" version="1.1" width="256" xmlns="http://www.w3.org/2000/svg" xmlns:ev="http://www.w3.org/2001/xml-events" xmlns:xlink="http://www.w3.org/1999/xlink"><defs /><path d="M1047 360Q1047 322 1025.0 294.5Q1003 267 970.0 249.5Q937 232 899.5 224.0Q862 216 831 216Q800 216 762.5 224.0Q725 232 692.0 249.5Q659 267 637.0 294.5Q615 322 615 360Q615 398 637.5 425.0Q660 452 693.0 469.5Q726 487 763.5 495.0Q801 503 831 503Q861 503 898.5 495.0Q936 487 969.0 469.5Q1002 452 1024.5 425.0Q1047 398 1047 360ZM2197 360Q2197 322 2175.0 294.5Q2153 267 2120.0 249.5Q2087 232 2049.5 224.0Q2012 216 1981 216Q1950 216 1912.5 224.0Q1875 232 1842.0 249.5Q1809 267 1787.0 294.5Q1765 322 1765 360Q1765 398 1787.5 425.0Q1810 452 1843.0 469.5Q1876 487 1913.5 495.0Q1951 503 1981 503Q2011 503 2048.5 495.0Q2086 487 2119.0 469.5Q2152 452 2174.5 425.0Q2197 398 2197 360Z" style="fill:#f8312f;stroke:none" transform="scale(1,-1) translate(0,-256)" /></svg>