<?xml version="1.0" encoding="utf-8" ?>
<svg baseProfile="full" height="256" version="1.1" width="256" xmlns="http://www.w3.org/2000/svg" xmlns:ev="http://www.w3.org/2001/xml-events" xmlns:xlink="http://www.w3.org/1999/xlink"><defs /><path d="M1622 109Q1516 72 1406 72Q1321 72 1235 95Q1318 72 1403 72Q1410 72 1417.0 72.5Q1424 73 1432 73Q1407 121 1394.5 174.0Q1382 227 1382 281Q1382 377 1418.5 461.0Q1455 545 1518.0 607.5Q1581 670 1665.0 706.5Q1749 743 1844 743Q1898 743 1951.0 730.5Q2004 718 2052 693Q2053 701 2053.0 708.0Q2053 715 2053 723Q2053 792 2036 865Q2053 791 2053 719Q2053 609 2016 503L1997 488H1873Q1821 488 1778.0 470.5Q1735 453 1704.0 422.0Q1673 391 1655.5 348.0Q1638 305 1638 253V127ZM2028 896Q1938 923 1844 923Q1756 923 1674.0 900.0Q1592 877 1520.5 835.5Q1449 794 1390.5 735.5Q1332 677 1290.0 605.5Q1248 534 1225.0 452.0Q1202 370 1202 282Q1202 187 1229 97Q1138 123 1061 172Q1043 192 1030.0 230.0Q1017 268 1008.5 310.5Q1000 353 995.5 394.5Q991 436 991 463Q991 603 1044.5 726.0Q1098 849 1190.0 940.5Q1282 1032 1405.5 1084.5Q1529 1137 1669 1137Q1735 1137 1807.0 1122.5Q1879 1108 1937 1077Q1941 1075 1945.0 1070.5Q1949 1066 1953 1063Q1900 1147 1827.0 1210.0Q1754 1273 1663 1313Q1658 1312 1656.0 1310.0Q1654 1308 1649 1308Q1603 1304 1563.5 1299.5Q1524 1295 1485.5 1287.5Q1447 1280 1408.5 1268.0Q1370 1256 1327 1237Q1245 1201 1172.5 1149.0Q1100 1097 1040.0 1031.5Q980 966 934.5 889.0Q889 812 860 728Q848 694 841.5 663.5Q835 633 831.0 603.0Q827 573 824.0 542.0Q821 511 818 477Q817 473 815.0 470.0Q813 467 812 463Q759 586 759 719Q759 808 782.0 891.0Q805 974 847.5 1045.5Q890 1117 949.0 1176.0Q1008 1235 1079.5 1277.5Q1151 1320 1234.0 1343.0Q1317 1366 1406 1366Q1514 1366 1614.0 1331.5Q1714 1297 1796.0 1235.0Q1878 1173 1938.0 1086.5Q1998 1000 2028 896Z" style="fill:#fcd53f;stroke:none" transform="scale(1,-1) translate(0,-256)" /></svg>