<?xml version="1.0" encoding="utf-8" ?>
<svg baseProfile="full" height="256" version="1.1" width="256" xmlns="http://www.w3.org/2000/svg" xmlns:ev="http://www.w3.org/2001/xml-events" xmlns:xlink="http://www.w3.org/1999/xlink"><defs /><path d="M1669 1126Q1576 1126 1490.0 1102.0Q1404 1078 1330.0 1034.5Q1256 991 1194.5 930.0Q1133 869 1090.0 794.5Q1047 720 1023.0 634.0Q999 548 999 455Q999 306 1061 171Q979 223 914.5 297.0Q850 371 812 462Q812 579 842.5 687.5Q873 796 929.0 890.0Q985 984 1063.0 1061.5Q1141 1139 1235.5 1194.5Q1330 1250 1438.0 1281.0Q1546 1312 1663 1313Q1754 1273 1827.0 1210.0Q1900 1147 1953 1063Q1887 1095 1815.0 1110.5Q1743 1126 1669 1126ZM1622 252Q1622 304 1642.0 349.5Q1662 395 1696.0 429.0Q1730 463 1775.5 483.0Q1821 503 1873 503H2268Q2298 503 2324.0 492.0Q2350 481 2369.5 461.5Q2389 442 2400.5 416.0Q2412 390 2412 360Q2412 330 2400.5 304.0Q2389 278 2369.5 258.5Q2350 239 2324.0 227.5Q2298 216 2268 216Q2241 216 2222.5 197.0Q2204 178 2204 151Q2204 133 2214.0 119.5Q2224 106 2236.5 90.5Q2249 75 2259.0 54.0Q2269 33 2269 0Q2269 -30 2257.5 -56.0Q2246 -82 2226.5 -101.5Q2207 -121 2181.0 -132.0Q2155 -143 2125 -143Q2092 -143 2071.5 -133.0Q2051 -123 2035.5 -111.0Q2020 -99 2006.5 -89.0Q1993 -79 1974 -79Q1947 -79 1928.0 -98.0Q1909 -117 1909 -144Q1909 -174 1897.5 -200.0Q1886 -226 1866.5 -245.5Q1847 -265 1821.0 -276.0Q1795 -287 1765 -287Q1735 -287 1709.0 -276.0Q1683 -265 1663.5 -245.5Q1644 -226 1633.0 -200.0Q1622 -174 1622 -144ZM1383 278Q1383 169 1432 73L1404 72Q1359 72 1315.5 78.5Q1272 85 1229 97Q1215 142 1206.0 186.5Q1197 231 1197 279Q1197 412 1248.0 529.5Q1299 647 1387.0 735.5Q1475 824 1592.5 875.5Q1710 927 1844 927Q1892 927 1937.5 918.5Q1983 910 2028 896Q2040 853 2046.5 809.5Q2053 766 2053 721Q2053 714 2052.5 707.0Q2052 700 2052 693Q2004 718 1951.0 729.0Q1898 740 1844 740Q1749 740 1665.0 703.5Q1581 667 1518.5 604.0Q1456 541 1419.5 457.0Q1383 373 1383 278Z" style="fill:#f8312f;stroke:none" transform="scale(1,-1) translate(0,-256)" /></svg>