<?xml version="1.0" encoding="utf-8" ?>
<svg baseProfile="full" height="256" version="1.1" width="256" xmlns="http://www.w3.org/2000/svg" xmlns:ev="http://www.w3.org/2001/xml-events" xmlns:xlink="http://www.w3.org/1999/xlink"><defs /><path d="M1190 935H543Q513 935 487.0 946.0Q461 957 441.5 976.5Q422 996 411.0 1022.0Q400 1048 400 1078Q400 1108 411.0 1134.0Q422 1160 441.5 1179.5Q461 1199 487.0 1210.5Q513 1222 543 1222Q570 1222 589.0 1241.0Q608 1260 608 1287Q608 1305 598.0 1318.5Q588 1332 575.5 1348.0Q563 1364 553.0 1384.5Q543 1405 543 1437Q543 1467 554.0 1493.0Q565 1519 584.5 1538.5Q604 1558 630.5 1569.5Q657 1581 687 1581Q719 1581 739.5 1571.0Q760 1561 775.5 1548.5Q791 1536 805.0 1526.0Q819 1516 837 1516Q864 1516 883.5 1535.0Q903 1554 903 1581Q903 1611 914.5 1637.0Q926 1663 945.5 1682.5Q965 1702 991.0 1713.5Q1017 1725 1047 1725Q1077 1725 1103.0 1713.5Q1129 1702 1148.5 1682.5Q1168 1663 1179.0 1637.0Q1190 1611 1190 1581Z" style="fill:#f8312f;stroke:none" transform="scale(1,-1) translate(0,-256)" /></svg>