<?xml version="1.0" encoding="utf-8" ?>
<svg baseProfile="full" height="256" version="1.1" width="256" xmlns="http://www.w3.org/2000/svg" xmlns:ev="http://www.w3.org/2001/xml-events" xmlns:xlink="http://www.w3.org/1999/xlink"><defs /><path d="M2233 -287H580Q542 -287 509.5 -273.0Q477 -259 452.5 -234.5Q428 -210 414.0 -177.5Q400 -145 400 -107V1537Q400 1555 413.0 1568.0Q426 1581 444 1581H2368Q2386 1581 2399.0 1568.0Q2412 1555 2412 1537V-107Q2412 -144 2398.0 -177.0Q2384 -210 2359.5 -234.5Q2335 -259 2302.5 -273.0Q2270 -287 2233 -287Z" style="fill:#aeddff;stroke:none" transform="scale(1,-1) translate(0,-256)" /></svg>