<?xml version="1.0" encoding="utf-8" ?>
<svg baseProfile="full" height="256" version="1.1" width="256" xmlns="http://www.w3.org/2000/svg" xmlns:ev="http://www.w3.org/2001/xml-events" xmlns:xlink="http://www.w3.org/1999/xlink"><defs /><path d="M1904 781Q1863 881 1818.0 961.0Q1773 1041 1727.5 1104.5Q1682 1168 1638.0 1215.5Q1594 1263 1554 1298Q1461 1379 1369 1416Q1479 1387 1587 1312Q1633 1280 1683.0 1234.5Q1733 1189 1783.0 1127.5Q1833 1066 1881.0 987.0Q1929 908 1970 809Q2011 709 2033.0 619.5Q2055 530 2063.0 451.5Q2071 373 2067.5 305.5Q2064 238 2054 183Q2030 54 1974 -45Q2012 46 2021 169Q2025 221 2022.5 286.0Q2020 351 2007.5 427.5Q1995 504 1970.0 592.5Q1945 681 1904 781ZM1373 561Q1290 762 1233.5 912.5Q1177 1063 1142 1166Q1101 1286 1076 1372Q1120 1294 1175 1180Q1223 1083 1289.5 936.0Q1356 789 1439 589Q1522 388 1578.5 237.5Q1635 87 1670 -16Q1711 -136 1736 -222Q1692 -144 1637 -30Q1589 67 1522.5 213.5Q1456 360 1373 561ZM838 1196Q781 1097 757 968Q747 913 743.5 845.5Q740 778 748.0 699.0Q756 620 778.0 530.5Q800 441 842 341Q883 241 931.0 162.0Q979 83 1029.0 22.0Q1079 -39 1129.0 -84.0Q1179 -129 1225 -161Q1333 -236 1443 -265Q1351 -228 1258 -147Q1218 -113 1174.0 -65.0Q1130 -17 1084.5 46.0Q1039 109 994.0 189.0Q949 269 908 369Q867 468 842.0 556.5Q817 645 804.0 722.0Q791 799 788.5 864.0Q786 929 790 982Q799 1105 838 1196Z" style="fill:#608842;stroke:none" transform="scale(1,-1) translate(0,-256)" /></svg>