<?xml version="1.0" encoding="utf-8" ?>
<svg baseProfile="full" height="256" version="1.1" width="256" xmlns="http://www.w3.org/2000/svg" xmlns:ev="http://www.w3.org/2001/xml-events" xmlns:xlink="http://www.w3.org/1999/xlink"><defs /><path d="M2125 647Q2125 580 2099.5 521.0Q2074 462 2030.0 418.5Q1986 375 1927.0 349.5Q1868 324 1801 324Q1734 324 1675.5 349.5Q1617 375 1573.0 419.0Q1529 463 1503.5 521.5Q1478 580 1478 647Q1478 714 1503.5 773.0Q1529 832 1573.0 876.0Q1617 920 1675.5 945.5Q1734 971 1801 971Q1868 971 1927.0 945.5Q1986 920 2030.0 876.0Q2074 832 2099.5 773.0Q2125 714 2125 647ZM472 1078Q472 1108 483.0 1134.0Q494 1160 513.5 1179.5Q533 1199 559.0 1210.5Q585 1222 615 1222H2197Q2227 1222 2253.0 1210.5Q2279 1199 2298.5 1179.5Q2318 1160 2329.0 1134.0Q2340 1108 2340 1078V216Q2340 186 2329.0 160.0Q2318 134 2298.5 114.5Q2279 95 2253.0 83.5Q2227 72 2197 72H615Q585 72 559.0 83.5Q533 95 513.5 114.5Q494 134 483.0 160.0Q472 186 472 216ZM615 1150Q586 1150 564.5 1128.5Q543 1107 543 1078V216Q543 187 564.5 165.5Q586 144 615 144H2197Q2226 144 2247.0 165.5Q2268 187 2268 216V1078Q2268 1107 2247.0 1128.5Q2226 1150 2197 1150ZM400 -144Q400 -174 411.0 -200.0Q422 -226 441.5 -245.5Q461 -265 487.0 -276.0Q513 -287 543 -287H1334L1478 -215L1622 -287H2268Q2298 -287 2324.0 -276.0Q2350 -265 2369.5 -245.5Q2389 -226 2400.5 -200.0Q2412 -174 2412 -144V144Q2412 114 2400.5 88.0Q2389 62 2369.5 42.5Q2350 23 2324.0 11.5Q2298 0 2268 0H543Q513 0 487.0 11.5Q461 23 441.5 42.5Q422 62 411.0 88.0Q400 114 400 144Z" style="fill:#b97028;stroke:none" transform="scale(1,-1) translate(0,-256)" /></svg>