<?xml version="1.0" encoding="utf-8" ?>
<svg baseProfile="full" height="256" version="1.1" width="256" xmlns="http://www.w3.org/2000/svg" xmlns:ev="http://www.w3.org/2001/xml-events" xmlns:xlink="http://www.w3.org/1999/xlink"><defs /><path d="M759 1007Q780 1007 790 988L939 721L1087 988Q1097 1007 1119 1007Q1133 1007 1144.0 995.5Q1155 984 1155 970Q1155 964 1143.5 940.5Q1132 917 1114.5 884.5Q1097 852 1075.5 814.0Q1054 776 1034.5 742.5Q1015 709 1000.0 682.5Q985 656 980 647H1118Q1133 647 1143.5 636.5Q1154 626 1154 611Q1154 596 1143.5 585.5Q1133 575 1118 575H975V503H1118Q1133 503 1143.5 492.5Q1154 482 1154 467Q1154 453 1143.0 442.0Q1132 431 1118 431H975V324Q975 309 964.5 298.5Q954 288 939 288Q924 288 913.5 298.5Q903 309 903 324V431H759Q745 431 734.0 442.0Q723 453 723 467Q723 482 733.5 492.5Q744 503 759 503H903V575H759Q744 575 733.5 585.5Q723 596 723 611Q723 626 733.5 636.5Q744 647 759 647H898Q893 656 878.0 682.5Q863 709 843.5 743.0Q824 777 802.5 814.5Q781 852 763.5 885.0Q746 918 734.5 941.5Q723 965 723 971Q723 985 734.0 996.0Q745 1007 759 1007Z" style="fill:#f4f4f4;stroke:none" transform="scale(1,-1) translate(0,-256)" /></svg>