<?xml version="1.0" encoding="utf-8" ?>
<svg baseProfile="full" height="256" version="1.1" width="256" xmlns="http://www.w3.org/2000/svg" xmlns:ev="http://www.w3.org/2001/xml-events" xmlns:xlink="http://www.w3.org/1999/xlink"><defs /><path d="M1410 1725Q1470 1725 1522.5 1702.0Q1575 1679 1614.0 1639.0Q1653 1599 1675.5 1546.5Q1698 1494 1698 1434Q1698 1394 1694.5 1354.0Q1691 1314 1688 1274Q1715 1283 1745.0 1294.5Q1775 1306 1805.5 1316.0Q1836 1326 1866.5 1332.5Q1897 1339 1926 1339Q1986 1339 2038.0 1316.5Q2090 1294 2128.5 1255.0Q2167 1216 2189.5 1163.5Q2212 1111 2212 1052Q2212 999 2194.0 952.0Q2176 905 2144.0 867.5Q2112 830 2068.0 804.5Q2024 779 1973 770L1837 747L1940 619Q2004 540 2004 439Q2004 380 1981.5 327.5Q1959 275 1920.0 236.0Q1881 197 1829.0 174.0Q1777 151 1718 151Q1681 151 1644.0 161.0Q1607 171 1573.5 190.0Q1540 209 1512.5 236.0Q1485 263 1468 296Q1454 322 1441.5 348.5Q1429 375 1415 401L1350 296Q1308 228 1244.5 189.5Q1181 151 1100 151Q1041 151 988.5 174.0Q936 197 897.0 236.0Q858 275 835.5 327.5Q813 380 813 439Q813 488 829.5 534.5Q846 581 877 619L982 748L854 770Q803 779 759.0 804.5Q715 830 683.5 867.5Q652 905 634.0 952.0Q616 999 616 1052Q616 1111 638.0 1163.5Q660 1216 698.5 1255.0Q737 1294 789.0 1316.5Q841 1339 901 1339Q930 1339 960.5 1332.5Q991 1326 1021.5 1316.0Q1052 1306 1081.5 1295.0Q1111 1284 1138 1275Q1134 1316 1129.0 1357.0Q1124 1398 1124 1440Q1124 1499 1146.5 1551.0Q1169 1603 1208.0 1641.5Q1247 1680 1299.0 1702.5Q1351 1725 1410 1725Z" style="fill:#d3d3d3;stroke:none" transform="scale(1,-1) translate(0,-256)" /></svg>