<?xml version="1.0" encoding="utf-8" ?>
<svg baseProfile="full" height="256" version="1.1" width="256" xmlns="http://www.w3.org/2000/svg" xmlns:ev="http://www.w3.org/2001/xml-events" xmlns:xlink="http://www.w3.org/1999/xlink"><defs /><path d="M1406 1217Q1435 1262 1474.5 1307.5Q1514 1353 1561.0 1392.0Q1608 1431 1660.0 1459.0Q1712 1487 1766 1498Q1797 1504 1829.0 1507.0Q1861 1510 1892 1510Q2011 1510 2107.5 1466.0Q2204 1422 2271.5 1346.5Q2339 1271 2375.5 1170.0Q2412 1069 2412 954Q2412 878 2394 805Q2360 671 2285.5 544.0Q2211 417 2114.0 301.0Q2017 185 1907.0 82.5Q1797 -20 1692 -104Q1639 -146 1584.0 -189.0Q1529 -232 1472 -267Q1456 -277 1440.5 -282.0Q1425 -287 1406 -287Q1387 -287 1371.5 -282.0Q1356 -277 1340 -267Q1283 -232 1228.0 -189.0Q1173 -146 1121 -104Q1051 -48 978.0 16.5Q905 81 834.5 152.0Q764 223 698.5 300.5Q633 378 578.5 460.5Q524 543 482.5 629.5Q441 716 418 805Q400 878 400 954Q400 1069 436.5 1170.0Q473 1271 540.5 1346.5Q608 1422 704.5 1466.0Q801 1510 920 1510Q984 1510 1046 1498Q1100 1487 1152.0 1459.0Q1204 1431 1250.5 1392.0Q1297 1353 1337.0 1307.5Q1377 1262 1406 1217Z" style="fill:#f8312f;stroke:none" transform="scale(1,-1) translate(0,-256)" /></svg>