<?xml version="1.0" encoding="utf-8" ?>
<svg baseProfile="full" height="256" version="1.1" width="256" xmlns="http://www.w3.org/2000/svg" xmlns:ev="http://www.w3.org/2001/xml-events" xmlns:xlink="http://www.w3.org/1999/xlink"><defs /><path d="M915 -144H628Q605 -144 584.0 -135.0Q563 -126 547.0 -110.5Q531 -95 521.5 -74.5Q512 -54 512 -30Q512 -17 520.5 -8.5Q529 0 542 0H915ZM1889 -144H2176Q2199 -144 2220.0 -135.0Q2241 -126 2257.0 -110.5Q2273 -95 2282.5 -74.5Q2292 -54 2292 -30Q2292 -17 2283.5 -8.5Q2275 0 2262 0H1889Z" style="fill:#f4f4f4;stroke:none" transform="scale(1,-1) translate(0,-256)" /></svg>