<?xml version="1.0" encoding="utf-8" ?>
<svg baseProfile="full" height="256" version="1.1" width="256" xmlns="http://www.w3.org/2000/svg" xmlns:ev="http://www.w3.org/2001/xml-events" xmlns:xlink="http://www.w3.org/1999/xlink"><defs /><path d="M1526 1448Q1612 1448 1689.5 1424.0Q1767 1400 1833.0 1357.0Q1899 1314 1952.5 1255.0Q2006 1196 2043.5 1125.5Q2081 1055 2101.0 975.5Q2121 896 2121 813Q2121 781 2118 748L2060 207Q2052 130 2025.0 60.0Q1998 -10 1954.0 -68.0Q1910 -126 1850.0 -170.0Q1790 -214 1715 -238Q1639 -263 1560.0 -275.0Q1481 -287 1401 -287Q1321 -287 1242.5 -275.0Q1164 -263 1088 -238Q1013 -214 953.0 -170.0Q893 -126 849.0 -67.5Q805 -9 778.0 60.5Q751 130 743 207L685 748Q682 779 682 811Q682 894 702.0 973.5Q722 1053 759.5 1123.5Q797 1194 850.0 1254.0Q903 1314 969.5 1357.0Q1036 1400 1113.5 1424.0Q1191 1448 1277 1448H1526Z" style="fill:#ffc83d;stroke:none" transform="scale(1,-1) translate(0,-256)" /></svg>