<?xml version="1.0" encoding="utf-8" ?>
<svg baseProfile="full" height="256" version="1.1" width="256" xmlns="http://www.w3.org/2000/svg" xmlns:ev="http://www.w3.org/2001/xml-events" xmlns:xlink="http://www.w3.org/1999/xlink"><defs /><path d="M1098 470Q1133 470 1157.5 445.0Q1182 420 1182 385Q1182 363 1172 347H1024Q1014 367 1014 385Q1014 420 1038.5 445.0Q1063 470 1098 470ZM1698 470Q1663 470 1638.5 445.0Q1614 420 1614 385Q1614 363 1624 347H1773Q1777 356 1779.5 365.5Q1782 375 1782 385Q1782 420 1757.5 445.0Q1733 470 1698 470Z" style="fill:#000000;stroke:none" transform="scale(1,-1) translate(0,-256)" /></svg>