<?xml version="1.0" encoding="utf-8" ?>
<svg baseProfile="full" height="256" version="1.1" width="256" xmlns="http://www.w3.org/2000/svg" xmlns:ev="http://www.w3.org/2001/xml-events" xmlns:xlink="http://www.w3.org/1999/xlink"><defs /><path d="M993 395Q993 350 976.0 311.0Q959 272 929.5 242.5Q900 213 861.0 196.0Q822 179 777 179Q732 179 693.0 196.0Q654 213 624.5 242.5Q595 272 578.0 311.0Q561 350 561 395Q561 440 578.0 479.0Q595 518 624.5 547.0Q654 576 693.0 593.0Q732 610 777 610Q822 610 861.0 593.0Q900 576 929.5 547.0Q959 518 976.0 479.0Q993 440 993 395ZM2250 395Q2250 350 2233.0 311.0Q2216 272 2187.0 242.5Q2158 213 2119.0 196.0Q2080 179 2035 179Q1990 179 1951.0 196.0Q1912 213 1882.5 242.5Q1853 272 1836.0 311.0Q1819 350 1819 395Q1819 440 1836.0 479.0Q1853 518 1882.5 547.0Q1912 576 1951.0 593.0Q1990 610 2035 610Q2080 610 2119.0 593.0Q2158 576 2187.0 547.0Q2216 518 2233.0 479.0Q2250 440 2250 395Z" style="fill:#fdbb11;stroke:none" transform="scale(1,-1) translate(0,-256)" /></svg>