<?xml version="1.0" encoding="utf-8" ?>
<svg baseProfile="full" height="256" version="1.1" width="256" xmlns="http://www.w3.org/2000/svg" xmlns:ev="http://www.w3.org/2001/xml-events" xmlns:xlink="http://www.w3.org/1999/xlink"><defs /><path d="M1402 116Q1457 116 1506.0 128.5Q1555 141 1604 164Q1608 167 1615 167Q1623 167 1630.0 160.0Q1637 153 1637 145Q1637 141 1633 133Q1615 104 1589.5 80.5Q1564 57 1533.5 40.5Q1503 24 1469.5 15.5Q1436 7 1402 7Q1333 7 1271.0 40.5Q1209 74 1172 133Q1168 141 1168 145Q1168 154 1174.5 160.5Q1181 167 1189 167Q1195 167 1200 164Q1249 141 1298.0 128.5Q1347 116 1402 116Z" style="fill:#990839;stroke:none" transform="scale(1,-1) translate(0,-256)" /></svg>