<?xml version="1.0" encoding="utf-8" ?>
<svg baseProfile="full" height="256" version="1.1" width="256" xmlns="http://www.w3.org/2000/svg" xmlns:ev="http://www.w3.org/2001/xml-events" xmlns:xlink="http://www.w3.org/1999/xlink"><defs /><path d="M1065 443Q1065 432 1057.5 424.5Q1050 417 1039 417Q1028 417 1020.5 424.5Q1013 432 1013 443Q1013 454 1020.5 461.5Q1028 469 1039 469Q1050 469 1057.5 461.5Q1065 454 1065 443ZM1678 443Q1678 432 1670.5 424.5Q1663 417 1652 417Q1641 417 1634.0 424.5Q1627 432 1627 443Q1627 454 1634.0 461.5Q1641 469 1652 469Q1663 469 1670.5 461.5Q1678 454 1678 443Z" style="fill:#ffffff;stroke:none" transform="scale(1,-1) translate(0,-256)" /></svg>