<?xml version="1.0" encoding="utf-8" ?>
<svg baseProfile="full" height="256" version="1.1" width="256" xmlns="http://www.w3.org/2000/svg" xmlns:ev="http://www.w3.org/2001/xml-events" xmlns:xlink="http://www.w3.org/1999/xlink"><defs /><path d="M1065 576Q1107 576 1144.0 562.0Q1181 548 1210.5 523.5Q1240 499 1260.5 464.5Q1281 430 1290 390Q1291 387 1291 382Q1291 367 1279.5 356.5Q1268 346 1253 346H886Q867 346 854.0 359.0Q841 372 841 391Q841 398 842 402Q851 441 872.5 473.0Q894 505 923.5 528.0Q953 551 989.0 563.5Q1025 576 1065 576ZM1732 576Q1690 576 1652.5 562.0Q1615 548 1585.5 523.5Q1556 499 1535.5 464.5Q1515 430 1506 390Q1505 388 1505 383Q1505 367 1516.5 356.5Q1528 346 1543 346H1910Q1928 346 1942.0 359.0Q1956 372 1956 390Q1956 394 1954 402Q1944 440 1923.0 472.0Q1902 504 1873.0 527.0Q1844 550 1808.0 563.0Q1772 576 1732 576Z" style="fill:#ffffff;stroke:none" transform="scale(1,-1) translate(0,-256)" /></svg>