<?xml version="1.0" encoding="utf-8" ?>
<svg baseProfile="full" height="256" version="1.1" width="256" xmlns="http://www.w3.org/2000/svg" xmlns:ev="http://www.w3.org/2001/xml-events" xmlns:xlink="http://www.w3.org/1999/xlink"><defs /><path d="M1401 1581Q1460 1581 1512.0 1558.5Q1564 1536 1602.5 1497.5Q1641 1459 1663.5 1407.5Q1686 1356 1686 1297Q1686 1251 1672.0 1208.5Q1658 1166 1632.5 1130.5Q1607 1095 1571.5 1068.5Q1536 1042 1493 1027Q1490 1026 1487.5 1025.5Q1485 1025 1482 1025Q1467 1025 1456.0 1036.0Q1445 1047 1445 1062Q1445 1071 1455.0 1084.5Q1465 1098 1477.0 1118.0Q1489 1138 1499.0 1165.5Q1509 1193 1509 1229Q1509 1275 1491.5 1315.0Q1474 1355 1444.0 1384.5Q1414 1414 1373.5 1431.0Q1333 1448 1288 1448Q1253 1448 1220.0 1444.5Q1187 1441 1153 1433Q1190 1501 1256.5 1541.0Q1323 1581 1401 1581Z" style="fill:#f1a11e;stroke:none" transform="scale(1,-1) translate(0,-256)" /></svg>