<?xml version="1.0" encoding="utf-8" ?>
<svg baseProfile="full" height="256" version="1.1" width="256" xmlns="http://www.w3.org/2000/svg" xmlns:ev="http://www.w3.org/2001/xml-events" xmlns:xlink="http://www.w3.org/1999/xlink"><defs /><path d="M915 -287H742Q718 -287 697.5 -278.0Q677 -269 661.0 -253.5Q645 -238 636.0 -217.5Q627 -197 627 -173Q627 -161 636.0 -152.5Q645 -144 657 -144H915ZM1889 -287H2062Q2086 -287 2106.5 -278.0Q2127 -269 2143.0 -253.5Q2159 -238 2168.0 -217.5Q2177 -197 2177 -173Q2177 -161 2168.0 -152.5Q2159 -144 2147 -144H1889Z" style="fill:#ffffff;stroke:none" transform="scale(1,-1) translate(0,-256)" /></svg>