<?xml version="1.0" encoding="utf-8" ?>
<svg baseProfile="full" height="256" version="1.1" width="256" xmlns="http://www.w3.org/2000/svg" xmlns:ev="http://www.w3.org/2001/xml-events" xmlns:xlink="http://www.w3.org/1999/xlink"><defs /><path d="M951 385Q951 415 962.5 442.0Q974 469 994.0 489.0Q1014 509 1041.0 520.5Q1068 532 1098 532Q1129 532 1156.0 520.5Q1183 509 1203.0 489.0Q1223 469 1234.5 442.5Q1246 416 1246 385Q1246 365 1240 346H957Q951 365 951 385ZM1845 385Q1845 415 1833.5 442.0Q1822 469 1802.0 489.0Q1782 509 1755.0 520.5Q1728 532 1698 532Q1668 532 1641.0 520.5Q1614 509 1593.5 489.0Q1573 469 1561.5 442.5Q1550 416 1550 385Q1550 375 1552.0 365.5Q1554 356 1556 346H1839Q1845 365 1845 385Z" style="fill:#7d4533;stroke:none" transform="scale(1,-1) translate(0,-256)" /></svg>