<?xml version="1.0" encoding="utf-8" ?>
<svg baseProfile="full" height="256" version="1.1" width="256" xmlns="http://www.w3.org/2000/svg" xmlns:ev="http://www.w3.org/2001/xml-events" xmlns:xlink="http://www.w3.org/1999/xlink"><defs /><path d="M2196 204Q2196 176 2186.0 152.0Q2176 128 2158.0 110.0Q2140 92 2116.0 82.0Q2092 72 2064 72Q2033 72 2005.0 84.5Q1977 97 1955.5 118.5Q1934 140 1921.5 168.5Q1909 197 1909 228Q1909 256 1919.0 280.0Q1929 304 1946.5 322.0Q1964 340 1988.0 350.0Q2012 360 2040 360Q2071 360 2099.5 347.5Q2128 335 2149.5 313.5Q2171 292 2183.5 263.5Q2196 235 2196 204ZM1190 204Q1190 176 1180.0 152.0Q1170 128 1152.5 110.0Q1135 92 1111.0 82.0Q1087 72 1059 72Q1028 72 999.5 84.5Q971 97 949.5 118.5Q928 140 915.5 168.0Q903 196 903 227Q903 255 913.0 279.0Q923 303 941.0 321.0Q959 339 983.0 349.0Q1007 359 1035 359Q1066 359 1094.0 346.5Q1122 334 1143.5 312.5Q1165 291 1177.5 263.0Q1190 235 1190 204Z" style="fill:#ffffff;stroke:none" transform="scale(1,-1) translate(0,-256)" /></svg>