<?xml version="1.0" encoding="utf-8" ?>
<svg baseProfile="full" height="256" version="1.1" width="256" xmlns="http://www.w3.org/2000/svg" xmlns:ev="http://www.w3.org/2001/xml-events" xmlns:xlink="http://www.w3.org/1999/xlink"><defs /><path d="M710 1139Q710 1151 717.5 1161.0Q725 1171 737 1174L911 1218L929 1148Q918 1145 891.0 1138.0Q864 1131 834.0 1123.0Q804 1115 778.5 1109.0Q753 1103 746 1103Q731 1103 720.5 1113.5Q710 1124 710 1139ZM745 1000Q745 1013 752.5 1022.5Q760 1032 772 1035L946 1078L963 1008Q951 1005 924.5 997.5Q898 990 869.0 982.5Q840 975 814.5 969.5Q789 964 780 964Q765 964 755.0 974.5Q745 985 745 1000ZM820 702Q820 688 830.5 677.0Q841 666 855 666Q864 666 889.5 671.5Q915 677 944.5 684.5Q974 692 1000.5 699.5Q1027 707 1039 710L1021 780L847 736Q835 733 827.5 723.5Q820 714 820 702ZM856 563Q856 575 863.5 584.5Q871 594 883 597L1057 641L1075 571Q1063 568 1036.5 560.5Q1010 553 980.5 545.5Q951 538 925.5 532.5Q900 527 891 527Q877 527 866.5 538.0Q856 549 856 563ZM890 413Q890 398 901.5 388.0Q913 378 927 378Q934 378 959.5 384.0Q985 390 1015.0 398.0Q1045 406 1072.0 413.0Q1099 420 1109 423L1092 493L918 449Q906 446 898.0 436.0Q890 426 890 413ZM969 123Q969 135 976.5 145.0Q984 155 996 158L1171 201L1188 131Q1176 128 1149.5 120.5Q1123 113 1094.0 105.5Q1065 98 1039.5 92.5Q1014 87 1005 87Q990 87 979.5 97.5Q969 108 969 123ZM1002 -29Q1002 -43 1013.0 -53.5Q1024 -64 1038 -64Q1047 -64 1072.5 -58.5Q1098 -53 1127.0 -45.5Q1156 -38 1182.5 -30.5Q1209 -23 1221 -20L1204 50L1030 7Q1018 4 1010.0 -6.0Q1002 -16 1002 -29Z" style="fill:#321b41;stroke:none" transform="scale(1,-1) translate(0,-256)" /></svg>