<?xml version="1.0" encoding="utf-8" ?>
<svg baseProfile="full" height="256" version="1.1" width="256" xmlns="http://www.w3.org/2000/svg" xmlns:ev="http://www.w3.org/2001/xml-events" xmlns:xlink="http://www.w3.org/1999/xlink"><defs /><path d="M1990 1522 2347 1482Q2374 1479 2392.5 1459.0Q2411 1439 2411 1412L2410 1403L2246 -97Q2243 -125 2222.5 -143.0Q2202 -161 2174 -161H2167L1810 -122Q1782 -119 1764.0 -98.0Q1746 -77 1746 -50V-42L1910 1458Q1913 1485 1934.0 1503.5Q1955 1522 1983 1522ZM393 1225Q393 1249 408.5 1269.0Q424 1289 448 1295L1075 1451Q1080 1452 1084.0 1452.5Q1088 1453 1093 1453Q1118 1453 1137.0 1438.0Q1156 1423 1162 1399L1527 -66Q1528 -71 1528.5 -75.0Q1529 -79 1529 -84Q1529 -108 1513.5 -127.5Q1498 -147 1475 -153L847 -309Q842 -310 838.0 -310.5Q834 -311 829 -311Q805 -311 785.5 -295.5Q766 -280 760 -257L395 1208Q393 1218 393 1225Z" style="fill:#f92f60;stroke:none" transform="scale(1,-1) translate(0,-256)" /></svg>