<?xml version="1.0" encoding="utf-8" ?>
<svg baseProfile="full" height="256" version="1.1" width="256" xmlns="http://www.w3.org/2000/svg" xmlns:ev="http://www.w3.org/2001/xml-events" xmlns:xlink="http://www.w3.org/1999/xlink"><defs /><path d="M1047 1150Q1047 1210 1069.5 1262.5Q1092 1315 1131.0 1354.0Q1170 1393 1222.0 1415.5Q1274 1438 1334 1438H1765Q1825 1438 1877.5 1415.5Q1930 1393 1969.0 1354.0Q2008 1315 2030.5 1262.5Q2053 1210 2053 1150V216Q2053 156 2030.5 103.5Q2008 51 1969.0 12.0Q1930 -27 1877.5 -49.5Q1825 -72 1765 -72H1334Q1274 -72 1222.0 -49.5Q1170 -27 1131.0 12.0Q1092 51 1069.5 103.5Q1047 156 1047 216Z" style="fill:#ffce7c;stroke:none" transform="scale(1,-1) translate(0,-256)" /></svg>