<?xml version="1.0" encoding="utf-8" ?>
<svg baseProfile="full" height="256" version="1.1" width="256" xmlns="http://www.w3.org/2000/svg" xmlns:ev="http://www.w3.org/2001/xml-events" xmlns:xlink="http://www.w3.org/1999/xlink"><defs /><path d="M473 1199Q473 1211 480.5 1221.0Q488 1231 500 1234L883 1329L918 1190Q907 1187 875.5 1179.0Q844 1171 802.5 1160.0Q761 1149 714.5 1137.5Q668 1126 628.0 1116.0Q588 1106 560.0 1099.5Q532 1093 527 1093Q515 1093 504.5 1100.5Q494 1108 491 1120Q486 1138 479.5 1159.0Q473 1180 473 1199ZM509 1053Q509 1065 516.5 1074.5Q524 1084 536 1087L920 1183L955 1043Q944 1040 912.5 1032.0Q881 1024 839.0 1013.5Q797 1003 750.5 991.0Q704 979 664.0 969.5Q624 960 595.5 953.5Q567 947 562 947Q549 947 540.0 954.5Q531 962 528 974Q523 992 516.0 1013.5Q509 1035 509 1053ZM546 906Q546 888 552.5 867.0Q559 846 564 828Q567 815 577.0 807.5Q587 800 600 800Q605 800 633.0 806.5Q661 813 701.0 823.0Q741 833 787.5 845.0Q834 857 875.5 867.5Q917 878 949.0 886.5Q981 895 991 897L956 1037L573 941Q561 938 553.5 928.0Q546 918 546 906ZM582 760Q582 772 589.5 781.5Q597 791 609 794L993 890L1028 751Q1017 748 985.5 740.0Q954 732 912.0 721.0Q870 710 823.5 698.5Q777 687 737.0 677.0Q697 667 668.5 660.5Q640 654 635 654Q622 654 613.0 661.5Q604 669 601 681Q596 699 589.0 720.5Q582 742 582 760ZM619 613Q619 595 625.5 574.0Q632 553 637 535Q640 522 650.0 514.5Q660 507 673 507Q678 507 706.0 513.5Q734 520 774.0 530.0Q814 540 860.5 552.0Q907 564 948.5 574.5Q990 585 1022.0 593.0Q1054 601 1064 604L1029 744L646 648Q634 645 626.5 635.0Q619 625 619 613ZM655 467Q655 479 662.5 489.0Q670 499 682 502L1066 597L1101 458Q1090 455 1058.5 447.0Q1027 439 985.0 428.0Q943 417 896.5 405.5Q850 394 810.0 384.0Q770 374 741.5 367.5Q713 361 708 361Q695 361 686.0 368.5Q677 376 674 388Q669 406 662.0 427.5Q655 449 655 467ZM692 320Q692 302 698.5 281.0Q705 260 710 242Q713 230 723.0 222.5Q733 215 745 215Q751 215 779.0 221.5Q807 228 847.0 237.5Q887 247 933.0 259.0Q979 271 1020.5 281.5Q1062 292 1094.0 300.0Q1126 308 1137 311L1102 451L719 355Q707 352 699.5 342.0Q692 332 692 320ZM728 174Q728 186 735.5 196.0Q743 206 755 209L1139 304L1174 165Q1163 162 1131.5 154.0Q1100 146 1058.0 135.0Q1016 124 969.5 112.5Q923 101 883.0 91.0Q843 81 814.5 74.5Q786 68 781 68Q768 68 759.0 75.5Q750 83 747 95Q742 113 735.0 134.5Q728 156 728 174ZM765 28Q765 9 771.5 -12.0Q778 -33 783 -51Q786 -63 796.0 -70.5Q806 -78 818 -78Q824 -78 852.0 -71.5Q880 -65 920.0 -55.5Q960 -46 1006.0 -34.0Q1052 -22 1093.5 -11.5Q1135 -1 1167.0 7.0Q1199 15 1210 18L1175 158L792 62Q781 59 773.0 49.5Q765 40 765 28ZM801 -119Q801 -107 808.5 -97.0Q816 -87 828 -84L1212 11L1247 -128Q1236 -131 1204.5 -139.0Q1173 -147 1131.0 -158.0Q1089 -169 1042.5 -180.5Q996 -192 956.0 -202.0Q916 -212 887.5 -218.5Q859 -225 854 -225Q841 -225 832.0 -217.5Q823 -210 820 -198Q815 -180 808.0 -158.5Q801 -137 801 -119ZM2212 1208Q2198 1208 2187.5 1218.5Q2177 1229 2177 1243Q2177 1258 2186.5 1269.0Q2196 1280 2212 1280Q2227 1280 2237.5 1269.5Q2248 1259 2248 1244Q2248 1229 2237.5 1218.5Q2227 1208 2212 1208ZM2063 1153Q2048 1153 2037.0 1163.0Q2026 1173 2026 1188Q2026 1203 2036.5 1213.5Q2047 1224 2061 1224Q2077 1224 2087.0 1213.5Q2097 1203 2097 1188Q2097 1174 2087.0 1163.5Q2077 1153 2063 1153ZM2038 938Q2023 938 2012.5 948.5Q2002 959 2002 974Q2002 989 2012.5 999.5Q2023 1010 2038 1010Q2053 1010 2063.5 999.5Q2074 989 2074 974Q2074 959 2063.5 948.5Q2053 938 2038 938ZM1992 510Q2006 510 2016.5 520.0Q2027 530 2027 544Q2027 559 2017.0 570.0Q2007 581 1992 581Q1978 581 1966.5 571.0Q1955 561 1955 546Q1955 530 1965.5 520.0Q1976 510 1992 510ZM1968 295Q1952 295 1942.0 305.5Q1932 316 1932 331Q1932 346 1942.5 356.5Q1953 367 1968 367Q1982 367 1992.5 356.5Q2003 346 2003 332Q2003 317 1993.0 306.0Q1983 295 1968 295ZM1944 81Q1930 81 1919.0 91.5Q1908 102 1908 116Q1908 131 1919.0 141.5Q1930 152 1944 152Q1959 152 1969.5 141.5Q1980 131 1980 117Q1980 102 1969.5 91.5Q1959 81 1944 81ZM2015 724Q2029 724 2039.5 735.0Q2050 746 2050 760Q2050 774 2039.0 784.5Q2028 795 2014 795Q2000 795 1989.5 784.5Q1979 774 1979 760Q1979 745 1989.5 734.5Q2000 724 2015 724ZM2096 137Q2110 137 2120.5 147.0Q2131 157 2131 171Q2131 186 2121.0 197.0Q2111 208 2096 208Q2081 208 2070.0 198.0Q2059 188 2059 173Q2059 157 2069.5 147.0Q2080 137 2096 137ZM2118 351Q2104 351 2093.5 361.5Q2083 372 2083 386Q2083 400 2092.5 411.0Q2102 422 2117 422Q2132 422 2143.0 412.0Q2154 402 2154 387Q2154 371 2143.5 361.0Q2133 351 2118 351ZM2142 565Q2156 565 2167.0 575.5Q2178 586 2178 601Q2178 615 2167.5 626.0Q2157 637 2142 637Q2127 637 2116.5 626.5Q2106 616 2106 601Q2106 587 2116.5 576.0Q2127 565 2142 565ZM2165 780Q2151 780 2140.5 790.0Q2130 800 2130 814Q2130 829 2140.0 840.0Q2150 851 2165 851Q2180 851 2190.5 840.5Q2201 830 2201 816Q2201 800 2190.5 790.0Q2180 780 2165 780ZM2190 994Q2205 994 2214.5 1005.5Q2224 1017 2224 1031Q2224 1046 2213.0 1055.5Q2202 1065 2188 1065Q2173 1065 2163.0 1054.5Q2153 1044 2153 1029Q2153 1014 2164.0 1004.0Q2175 994 2190 994Z" style="fill:#ffffff;stroke:none" transform="scale(1,-1) translate(0,-256)" /></svg>