<?xml version="1.0" encoding="utf-8" ?>
<svg baseProfile="full" height="256" version="1.1" width="256" xmlns="http://www.w3.org/2000/svg" xmlns:ev="http://www.w3.org/2001/xml-events" xmlns:xlink="http://www.w3.org/1999/xlink"><defs /><path d="M1738 1509Q1753 1509 1763.0 1497.5Q1773 1486 1773 1472L1745 -72Q1745 -87 1734.0 -97.5Q1723 -108 1708 -108Q1694 -108 1684.0 -97.5Q1674 -87 1673 -73Q1672 -88 1661.5 -97.0Q1651 -106 1636 -106Q1622 -106 1612.0 -96.0Q1602 -86 1601 -72L1503 1470Q1502 1486 1513.0 1496.5Q1524 1507 1540 1507Q1554 1507 1564.0 1497.5Q1574 1488 1575 1474L1673 -68L1701 1474Q1701 1488 1712.5 1498.5Q1724 1509 1738 1509ZM1289 1458V1453L1528 -75Q1530 -89 1539.5 -97.0Q1549 -105 1563 -105Q1578 -105 1588.5 -95.5Q1599 -86 1599 -70V-65L1360 1463Q1358 1477 1348.5 1485.0Q1339 1493 1325 1493Q1310 1493 1299.5 1483.5Q1289 1474 1289 1458Z" style="fill:#e19747;stroke:none" transform="scale(1,-1) translate(0,-256)" /></svg>