<?xml version="1.0" encoding="utf-8" ?>
<svg baseProfile="full" height="256" version="1.1" width="256" xmlns="http://www.w3.org/2000/svg" xmlns:ev="http://www.w3.org/2001/xml-events" xmlns:xlink="http://www.w3.org/1999/xlink"><defs /><path d="M779 1206Q925 1137 1085.0 1107.5Q1245 1078 1406 1078Q1567 1078 1727.0 1107.5Q1887 1137 2033 1206Q2095 1143 2139.5 1069.5Q2184 996 2212.5 915.0Q2241 834 2254.5 748.0Q2268 662 2268 575Q2268 378 2207.5 218.5Q2147 59 2034.5 -53.5Q1922 -166 1763.0 -226.5Q1604 -287 1406 -287Q1208 -287 1048.5 -226.5Q889 -166 776.5 -53.5Q664 59 603.5 218.5Q543 378 543 575Q543 662 556.5 748.0Q570 834 598.5 915.0Q627 996 672.0 1069.5Q717 1143 779 1206Z" style="fill:#ffb02e;stroke:none" transform="scale(1,-1) translate(0,-256)" /></svg>