<?xml version="1.0" encoding="utf-8" ?>
<svg baseProfile="full" height="256" version="1.1" width="256" xmlns="http://www.w3.org/2000/svg" xmlns:ev="http://www.w3.org/2001/xml-events" xmlns:xlink="http://www.w3.org/1999/xlink"><defs /><path d="M1615 1797Q1660 1797 1700.5 1780.0Q1741 1763 1771.0 1733.5Q1801 1704 1819.0 1664.0Q1837 1624 1837 1579V1510H1981V1546Q1981 1583 1995.0 1615.5Q2009 1648 2033.5 1672.5Q2058 1697 2091.0 1711.0Q2124 1725 2161 1725Q2243 1725 2304.0 1698.5Q2365 1672 2405.0 1624.5Q2445 1577 2464.5 1511.0Q2484 1445 2484 1366Q2484 1309 2466.5 1259.0Q2449 1209 2418.0 1168.0Q2387 1127 2344.5 1094.5Q2302 1062 2252 1038Q2246 1035 2233.5 1030.0Q2221 1025 2206.5 1019.5Q2192 1014 2179.5 1010.0Q2167 1006 2161 1006Q2122 1006 2081.0 1010.5Q2040 1015 2001 1019Q1920 1026 1840.0 1033.0Q1760 1040 1679 1048Q1648 1052 1617.5 1055.5Q1587 1059 1556 1064Q1555 1064 1550.0 1065.0Q1545 1066 1540.0 1067.0Q1535 1068 1530.5 1069.5Q1526 1071 1526 1072Q1526 1076 1549 1076Q1565 1078 1586.5 1078.0Q1608 1078 1622 1078H1190Q1204 1078 1225.5 1078.0Q1247 1078 1263 1076Q1286 1076 1286 1072Q1286 1071 1281.5 1069.5Q1277 1068 1272.0 1067.0Q1267 1066 1262.0 1065.0Q1257 1064 1256 1064Q1225 1059 1194.5 1055.5Q1164 1052 1133 1048Q1052 1040 972.0 1033.0Q892 1026 811 1019Q772 1015 731.0 1010.5Q690 1006 651 1006Q645 1006 632.0 1010.0Q619 1014 605.0 1019.5Q591 1025 578.0 1030.0Q565 1035 559 1038Q509 1061 466.5 1094.0Q424 1127 393.5 1168.0Q363 1209 345.5 1259.0Q328 1309 328 1366Q328 1445 347.5 1511.0Q367 1577 407.0 1624.5Q447 1672 508.0 1698.5Q569 1725 651 1725Q688 1725 721.0 1711.0Q754 1697 778.5 1672.5Q803 1648 817.0 1615.5Q831 1583 831 1546V1510H975V1579Q975 1625 992.5 1664.5Q1010 1704 1040.5 1733.5Q1071 1763 1111.5 1780.0Q1152 1797 1197 1797Q1240 1797 1268.0 1785.5Q1296 1774 1318.0 1760.0Q1340 1746 1360.0 1734.5Q1380 1723 1406 1723Q1432 1723 1452.0 1734.5Q1472 1746 1494.0 1760.0Q1516 1774 1544.0 1785.5Q1572 1797 1615 1797Z" style="fill:#6d4534;stroke:none" transform="scale(1,-1) translate(0,-256)" /></svg>