<?xml version="1.0" encoding="utf-8" ?>
<svg baseProfile="full" height="256" version="1.1" width="256" xmlns="http://www.w3.org/2000/svg" xmlns:ev="http://www.w3.org/2001/xml-events" xmlns:xlink="http://www.w3.org/1999/xlink"><defs /><path d="M1981 1510Q1981 1484 1981.5 1459.0Q1982 1434 1982 1408Q1982 1343 1959.5 1280.5Q1937 1218 1889 1172Q1882 1164 1867.0 1152.0Q1852 1140 1844 1135Q1843 1134 1837.0 1132.5Q1831 1131 1824.0 1129.0Q1817 1127 1810.5 1125.5Q1804 1124 1802 1124Q1705 1100 1605.5 1089.0Q1506 1078 1406 1078Q1306 1078 1206.5 1089.0Q1107 1100 1010 1124Q1008 1124 1001.5 1126.0Q995 1128 988.0 1129.5Q981 1131 975.0 1133.0Q969 1135 968 1135Q960 1140 945.0 1152.0Q930 1164 923 1172Q875 1218 852.5 1280.5Q830 1343 830 1408Q830 1434 830.5 1459.0Q831 1484 831 1510H1981Z" style="fill:#8c5543;stroke:none" transform="scale(1,-1) translate(0,-256)" /></svg>