<?xml version="1.0" encoding="utf-8" ?>
<svg baseProfile="full" height="256" version="1.1" width="256" xmlns="http://www.w3.org/2000/svg" xmlns:ev="http://www.w3.org/2001/xml-events" xmlns:xlink="http://www.w3.org/1999/xlink"><defs /><path d="M1298 863Q1298 825 1284.0 792.5Q1270 760 1245.5 735.5Q1221 711 1188.0 697.0Q1155 683 1118 683Q1081 683 1048.5 697.0Q1016 711 991.5 735.5Q967 760 953.0 793.0Q939 826 939 863Q939 900 953.0 932.5Q967 965 991.5 989.5Q1016 1014 1048.5 1028.0Q1081 1042 1118 1042Q1155 1042 1188.0 1028.0Q1221 1014 1245.5 989.5Q1270 965 1284.0 932.5Q1298 900 1298 863ZM1873 863Q1873 825 1859.0 792.5Q1845 760 1820.5 735.5Q1796 711 1763.0 697.0Q1730 683 1693 683Q1656 683 1623.5 697.0Q1591 711 1566.5 735.5Q1542 760 1528.0 793.0Q1514 826 1514 863Q1514 900 1528.0 932.5Q1542 965 1566.5 989.5Q1591 1014 1623.5 1028.0Q1656 1042 1693 1042Q1730 1042 1763.0 1028.0Q1796 1014 1820.5 989.5Q1845 965 1859.0 932.5Q1873 900 1873 863Z" style="fill:#402a32;stroke:none" transform="scale(1,-1) translate(0,-256)" /></svg>