<?xml version="1.0" encoding="utf-8" ?>
<svg baseProfile="full" height="256" version="1.1" width="256" xmlns="http://www.w3.org/2000/svg" xmlns:ev="http://www.w3.org/2001/xml-events" xmlns:xlink="http://www.w3.org/1999/xlink"><defs /><path d="M1334 899Q1334 847 1314.0 801.5Q1294 756 1260.0 721.5Q1226 687 1180.5 667.0Q1135 647 1083 647Q1031 647 985.0 667.0Q939 687 905.0 721.0Q871 755 851.0 801.0Q831 847 831 899Q831 951 851.0 997.0Q871 1043 905.0 1077.0Q939 1111 985.0 1130.5Q1031 1150 1083 1150Q1135 1150 1180.5 1130.0Q1226 1110 1260.0 1076.0Q1294 1042 1314.0 996.5Q1334 951 1334 899ZM1981 899Q1981 847 1961.0 801.0Q1941 755 1907.0 721.0Q1873 687 1827.0 667.0Q1781 647 1729 647Q1677 647 1631.0 667.0Q1585 687 1551.0 721.0Q1517 755 1497.5 801.0Q1478 847 1478 899Q1478 951 1497.5 997.0Q1517 1043 1551.0 1077.0Q1585 1111 1631.0 1130.5Q1677 1150 1729 1150Q1781 1150 1827.0 1130.5Q1873 1111 1907.0 1077.0Q1941 1043 1961.0 997.0Q1981 951 1981 899Z" style="fill:#ffffff;stroke:none" transform="scale(1,-1) translate(0,-256)" /></svg>