<?xml version="1.0" encoding="utf-8" ?>
<svg baseProfile="full" height="256" version="1.1" width="256" xmlns="http://www.w3.org/2000/svg" xmlns:ev="http://www.w3.org/2001/xml-events" xmlns:xlink="http://www.w3.org/1999/xlink"><defs /><path d="M1427 1560Q1461 1560 1495.0 1547.0Q1529 1534 1556.0 1511.5Q1583 1489 1600.0 1457.5Q1617 1426 1617 1390Q1617 1357 1599.0 1314.5Q1581 1272 1556.0 1228.5Q1531 1185 1504.0 1144.5Q1477 1104 1459 1076H2194Q2236 1076 2275.5 1062.5Q2315 1049 2345.5 1024.5Q2376 1000 2394.5 964.0Q2413 928 2413 883Q2413 841 2393.0 807.0Q2373 773 2341.5 749.5Q2310 726 2271.0 713.0Q2232 700 2194 700H1911Q1935 691 1952.0 673.0Q1969 655 1980.5 632.0Q1992 609 1997.5 583.5Q2003 558 2003 535Q2003 508 1995.0 482.0Q1987 456 1972.0 433.5Q1957 411 1935.5 394.0Q1914 377 1887 369Q1903 358 1914.0 338.5Q1925 319 1931.5 296.5Q1938 274 1941.0 251.0Q1944 228 1944 211Q1944 185 1935.0 160.0Q1926 135 1910.0 113.5Q1894 92 1873.5 74.5Q1853 57 1829 47Q1840 34 1848.0 15.5Q1856 -3 1860.5 -23.5Q1865 -44 1867.0 -64.0Q1869 -84 1869 -100Q1869 -137 1847.5 -171.0Q1826 -205 1793.5 -230.5Q1761 -256 1722.5 -271.0Q1684 -286 1650 -286Q1555 -286 1451.0 -283.0Q1347 -280 1241.5 -269.5Q1136 -259 1032.5 -238.5Q929 -218 835.5 -182.5Q742 -147 662.5 -94.5Q583 -42 524.5 32.0Q466 106 433.0 204.0Q400 302 400 429Q400 502 418.5 576.5Q437 651 470.5 720.0Q504 789 550.5 850.0Q597 911 654 956Q689 985 727.5 1007.0Q766 1029 808 1047Q869 1074 920.5 1105.5Q972 1137 1017.5 1175.0Q1063 1213 1103.5 1258.0Q1144 1303 1183 1356Q1194 1371 1208.5 1392.5Q1223 1414 1238.0 1436.5Q1253 1459 1268.0 1479.0Q1283 1499 1296 1510Q1352 1560 1427 1560Z" style="fill:#ffc83d;stroke:none" transform="scale(1,-1) translate(0,-256)" /></svg>