<?xml version="1.0" encoding="utf-8" ?>
<svg baseProfile="full" height="256" version="1.1" width="256" xmlns="http://www.w3.org/2000/svg" xmlns:ev="http://www.w3.org/2001/xml-events" xmlns:xlink="http://www.w3.org/1999/xlink"><defs /><path d="M765 989Q816 989 859.0 964.0Q902 939 928 894Q933 886 935.5 879.0Q938 872 938 863Q938 840 922.0 824.5Q906 809 883 809Q862 809 851.5 820.0Q841 831 831.0 844.5Q821 858 807.0 869.5Q793 881 765 881Q732 881 709.0 858.0Q686 835 686 802V632Q686 601 707.5 579.5Q729 558 760 558Q791 558 805.0 572.5Q819 587 828.0 604.0Q837 621 848.0 635.5Q859 650 884 650Q907 650 922.5 634.5Q938 619 938 596Q938 586 934.0 576.5Q930 567 926 558Q903 509 858.5 479.5Q814 450 760 450Q722 450 689.0 464.5Q656 479 631.5 503.5Q607 528 592.5 561.0Q578 594 578 632V802Q578 841 592.5 875.0Q607 909 632.5 934.5Q658 960 692.0 974.5Q726 989 765 989ZM1199 988Q1238 988 1272.5 973.0Q1307 958 1332.5 932.5Q1358 907 1373.0 873.0Q1388 839 1388 800V638Q1388 599 1373.0 564.5Q1358 530 1332.5 504.5Q1307 479 1272.5 464.0Q1238 449 1199 449Q1160 449 1125.5 464.0Q1091 479 1065.5 504.5Q1040 530 1025.5 564.5Q1011 599 1011 638V800Q1011 839 1025.5 873.0Q1040 907 1065.5 932.5Q1091 958 1125.5 973.0Q1160 988 1199 988ZM1118 638Q1118 605 1142.0 581.0Q1166 557 1199 557Q1233 557 1256.5 580.5Q1280 604 1280 638V800Q1280 833 1256.0 857.0Q1232 881 1199 881Q1166 881 1142.0 857.0Q1118 833 1118 800ZM1461 800Q1461 839 1475.5 873.0Q1490 907 1515.5 932.5Q1541 958 1575.5 973.0Q1610 988 1649 988Q1688 988 1722.5 973.0Q1757 958 1782.5 932.5Q1808 907 1823.0 873.0Q1838 839 1838 800V638Q1838 599 1823.0 564.5Q1808 530 1782.5 504.5Q1757 479 1722.5 464.0Q1688 449 1649 449Q1610 449 1575.5 464.0Q1541 479 1515.5 504.5Q1490 530 1475.5 564.5Q1461 599 1461 638ZM1649 881Q1616 881 1592.0 857.0Q1568 833 1568 800V638Q1568 605 1592.0 581.0Q1616 557 1649 557Q1683 557 1706.5 580.5Q1730 604 1730 638V800Q1730 833 1706.0 857.0Q1682 881 1649 881ZM1963 983Q1986 983 2001.0 967.0Q2016 951 2016 929V557H2179Q2202 557 2217.0 541.0Q2232 525 2232 503Q2232 481 2216.5 465.0Q2201 449 2179 449H1963Q1941 449 1925.0 465.0Q1909 481 1909 503V929Q1909 952 1924.5 967.5Q1940 983 1963 983Z" style="fill:#ffffff;stroke:none" transform="scale(1,-1) translate(0,-256)" /></svg>