<?xml version="1.0" encoding="utf-8" ?>
<svg baseProfile="full" height="256" version="1.1" width="256" xmlns="http://www.w3.org/2000/svg" xmlns:ev="http://www.w3.org/2001/xml-events" xmlns:xlink="http://www.w3.org/1999/xlink"><defs /><path d="M1519 378Q1450 378 1394.5 398.0Q1339 418 1283 456L1278 459L1277 461Q1236 493 1214.0 538.5Q1192 584 1192 635Q1192 680 1209.5 720.0Q1227 760 1257.5 790.0Q1288 820 1328.5 837.0Q1369 854 1414 854Q1430 854 1456.0 849.0Q1482 844 1506.5 833.5Q1531 823 1548.5 807.5Q1566 792 1566 771Q1566 753 1552.5 738.5Q1539 724 1520 724Q1509 724 1498.5 730.0Q1488 736 1475.5 743.0Q1463 750 1447.5 756.0Q1432 762 1410 762Q1384 762 1361.0 751.5Q1338 741 1321.0 723.0Q1304 705 1294.5 681.5Q1285 658 1285 633Q1285 591 1308.5 560.5Q1332 530 1366.5 510.0Q1401 490 1441.5 480.0Q1482 470 1517 470Q1580 470 1635.0 493.5Q1690 517 1731.0 558.0Q1772 599 1795.5 654.0Q1819 709 1819 772Q1819 851 1782.5 914.0Q1746 977 1687.5 1020.0Q1629 1063 1557.0 1086.0Q1485 1109 1413 1109Q1301 1109 1203.5 1061.5Q1106 1014 1037 925Q995 871 973.5 814.5Q952 758 940 691Q937 672 925.0 660.5Q913 649 894 649Q875 649 861.5 662.5Q848 676 848 695V701Q858 808 908.0 900.0Q958 992 1034.5 1059.5Q1111 1127 1208.5 1165.0Q1306 1203 1413 1203Q1506 1203 1595.5 1173.0Q1685 1143 1755.5 1087.0Q1826 1031 1869.0 951.5Q1912 872 1912 772Q1912 690 1881.0 618.0Q1850 546 1797.0 493.0Q1744 440 1672.5 409.0Q1601 378 1519 378Z" style="fill:#f8312f;stroke:none" transform="scale(1,-1) translate(0,-256)" /></svg>