<?xml version="1.0" encoding="utf-8" ?>
<svg baseProfile="full" height="256" version="1.1" width="256" xmlns="http://www.w3.org/2000/svg" xmlns:ev="http://www.w3.org/2001/xml-events" xmlns:xlink="http://www.w3.org/1999/xlink"><defs /><path d="M2341 789Q2341 740 2351.0 692.5Q2361 645 2361 597Q2361 567 2354 540Q2346 509 2329.5 482.5Q2313 456 2293.5 431.5Q2274 407 2253.5 382.5Q2233 358 2218 331Q2203 305 2192.0 275.0Q2181 245 2169.0 215.5Q2157 186 2142.5 158.5Q2128 131 2106 109Q2084 87 2056.5 72.5Q2029 58 1999.0 46.0Q1969 34 1939.5 22.5Q1910 11 1883 -4Q1856 -19 1831.5 -39.5Q1807 -60 1782.5 -79.5Q1758 -99 1731.5 -115.5Q1705 -132 1674 -140Q1649 -147 1618 -147Q1569 -147 1521.5 -137.0Q1474 -127 1425 -127Q1376 -127 1328.5 -137.0Q1281 -147 1232 -147Q1201 -147 1176 -140Q1145 -132 1118.5 -115.5Q1092 -99 1067.0 -79.5Q1042 -60 1017.5 -39.5Q993 -19 966 -4Q939 11 909.5 22.5Q880 34 850.5 46.0Q821 58 793.5 72.5Q766 87 744 109Q722 131 707.5 158.5Q693 186 681.0 215.5Q669 245 657.5 275.0Q646 305 631 331Q616 358 595.5 382.5Q575 407 555.5 431.5Q536 456 520.0 482.5Q504 509 496 540Q489 565 489 596Q489 645 499.0 692.5Q509 740 509 789Q509 838 499.0 885.5Q489 933 489 982Q489 1012 496 1039Q504 1069 520.0 1095.5Q536 1122 555.5 1147.0Q575 1172 595.5 1196.5Q616 1221 631 1248Q646 1274 657.5 1304.0Q669 1334 681.0 1363.5Q693 1393 708.0 1421.0Q723 1449 744 1470Q765 1491 792.5 1505.5Q820 1520 850.0 1532.5Q880 1545 910.0 1556.5Q940 1568 966 1583Q992 1598 1017.0 1618.5Q1042 1639 1067.5 1658.5Q1093 1678 1119.5 1694.5Q1146 1711 1176 1719Q1190 1723 1203.0 1724.0Q1216 1725 1230 1725Q1280 1725 1327.5 1715.0Q1375 1705 1425 1705Q1475 1705 1522.5 1715.0Q1570 1725 1620 1725Q1647 1725 1674 1719Q1705 1711 1731.5 1694.5Q1758 1678 1782.5 1658.5Q1807 1639 1831.5 1618.5Q1856 1598 1883 1583Q1909 1568 1939.0 1556.5Q1969 1545 1999.0 1533.0Q2029 1521 2057.0 1506.0Q2085 1491 2106 1470Q2127 1449 2141.5 1421.0Q2156 1393 2168.0 1363.5Q2180 1334 2191.5 1304.0Q2203 1274 2218 1248Q2233 1222 2253.5 1197.0Q2274 1172 2293.5 1147.0Q2313 1122 2329.5 1095.5Q2346 1069 2354 1039Q2361 1012 2361 982Q2361 933 2351.0 885.5Q2341 838 2341 789Z" style="fill:#f3eef8;stroke:none" transform="scale(1,-1) translate(0,-256)" /></svg>