<?xml version="1.0" encoding="utf-8" ?>
<svg baseProfile="full" height="256" version="1.1" width="256" xmlns="http://www.w3.org/2000/svg" xmlns:ev="http://www.w3.org/2001/xml-events" xmlns:xlink="http://www.w3.org/1999/xlink"><defs /><path d="M1425 1777Q1474 1777 1521.5 1787.0Q1569 1797 1618 1797Q1637 1797 1655.5 1795.0Q1674 1793 1693 1788Q1730 1778 1758.5 1761.0Q1787 1744 1812.5 1724.0Q1838 1704 1863.0 1683.5Q1888 1663 1919 1645Q1949 1628 1980.0 1616.0Q2011 1604 2041.5 1591.5Q2072 1579 2101.0 1562.5Q2130 1546 2156 1521Q2183 1494 2199.0 1464.5Q2215 1435 2227.0 1405.0Q2239 1375 2251.0 1344.5Q2263 1314 2281 1284V1283Q2305 1242 2331.5 1211.5Q2358 1181 2380.5 1149.5Q2403 1118 2418.0 1079.0Q2433 1040 2433 983Q2433 934 2422.5 886.0Q2412 838 2412 789Q2412 767 2416.0 745.5Q2420 724 2422 702L2432 617Q2437 579 2443.5 542.0Q2450 505 2450 466Q2450 446 2448.0 427.0Q2446 408 2441 389Q2432 354 2414.5 325.0Q2397 296 2376.5 269.0Q2356 242 2334.5 215.5Q2313 189 2295 159Q2277 129 2265.0 97.5Q2253 66 2240.0 34.5Q2227 3 2211.0 -26.5Q2195 -56 2169 -82Q2143 -108 2113.0 -124.5Q2083 -141 2052.0 -154.0Q2021 -167 1989.0 -179.0Q1957 -191 1927 -209Q1896 -227 1870.5 -248.5Q1845 -270 1819.0 -290.0Q1793 -310 1764.0 -327.5Q1735 -345 1697 -355Q1678 -360 1659.5 -362.0Q1641 -364 1621 -364Q1571 -364 1523.0 -354.0Q1475 -344 1425 -344Q1374 -344 1326.0 -354.0Q1278 -364 1227 -364Q1188 -364 1152 -355Q1117 -346 1088.0 -328.5Q1059 -311 1032.0 -290.0Q1005 -269 978.5 -247.5Q952 -226 922 -209Q892 -191 860.0 -179.0Q828 -167 797.0 -154.0Q766 -141 736.5 -124.5Q707 -108 681 -82Q655 -56 638.5 -26.5Q622 3 609.5 34.5Q597 66 584.5 97.5Q572 129 555 159Q537 190 515.5 215.5Q494 241 474.0 267.0Q454 293 436.5 322.0Q419 351 409 389Q400 425 400 464Q400 491 403.0 521.0Q406 551 410.5 581.5Q415 612 420.0 642.0Q425 672 428 699Q430 722 433.5 744.0Q437 766 437 789Q437 838 427.0 886.0Q417 934 417 984Q417 1021 426 1057Q435 1092 452.0 1120.5Q469 1149 489.0 1175.5Q509 1202 530.0 1228.0Q551 1254 569 1284Q586 1313 598.0 1344.5Q610 1376 623.0 1406.5Q636 1437 652.0 1466.5Q668 1496 693 1521Q718 1546 747.0 1562.0Q776 1578 807.0 1591.0Q838 1604 869.0 1616.0Q900 1628 930 1645H931Q971 1668 1001.5 1695.0Q1032 1722 1064.0 1744.5Q1096 1767 1135.0 1782.0Q1174 1797 1232 1797Q1281 1797 1328.5 1787.0Q1376 1777 1425 1777Z" style="fill:#b4acbc;stroke:none" transform="scale(1,-1) translate(0,-256)" /></svg>