<?xml version="1.0" encoding="utf-8" ?>
<svg baseProfile="full" height="256" version="1.1" width="256" xmlns="http://www.w3.org/2000/svg" xmlns:ev="http://www.w3.org/2001/xml-events" xmlns:xlink="http://www.w3.org/1999/xlink"><defs /><path d="M1185 1126Q1185 1153 1204.5 1172.5Q1224 1192 1251 1192Q1279 1192 1297.5 1172.5Q1316 1153 1316 1126Q1316 1121 1315.5 1117.5Q1315 1114 1314 1109H1187Q1186 1114 1185.5 1117.5Q1185 1121 1185 1126ZM1637 1126Q1637 1153 1618.0 1172.5Q1599 1192 1572 1192Q1545 1192 1525.5 1172.5Q1506 1153 1506 1126Q1506 1116 1509 1109H1635Q1637 1114 1637.0 1117.5Q1637 1121 1637 1126Z" style="fill:#7d4533;stroke:none" transform="scale(1,-1) translate(0,-256)" /></svg>