<?xml version="1.0" encoding="utf-8" ?>
<svg baseProfile="full" height="256" version="1.1" width="256" xmlns="http://www.w3.org/2000/svg" xmlns:ev="http://www.w3.org/2001/xml-events" xmlns:xlink="http://www.w3.org/1999/xlink"><defs /><path d="M1159 1258Q1150 1258 1144.0 1264.0Q1138 1270 1138 1279Q1138 1289 1146 1297H1147Q1154 1305 1168.5 1311.5Q1183 1318 1199.5 1322.5Q1216 1327 1232.0 1329.5Q1248 1332 1259 1332Q1265 1332 1273.0 1332.0Q1281 1332 1287.5 1329.5Q1294 1327 1298.5 1322.5Q1303 1318 1303 1309Q1303 1301 1297.0 1294.5Q1291 1288 1283 1288Q1261 1288 1241.5 1287.0Q1222 1286 1201 1278Q1194 1276 1187.0 1271.0Q1180 1266 1174 1264Q1174 1263 1172 1263Q1165 1258 1159 1258ZM1676 1297Q1685 1290 1685 1280Q1685 1271 1678.5 1264.5Q1672 1258 1663 1258Q1655 1258 1649 1264Q1642 1266 1635.5 1270.5Q1629 1275 1622 1278Q1602 1286 1581.5 1287.0Q1561 1288 1540 1288Q1531 1288 1525.5 1295.0Q1520 1302 1520 1310Q1520 1319 1524.5 1323.5Q1529 1328 1536.0 1330.0Q1543 1332 1550.0 1332.0Q1557 1332 1563 1332Q1574 1332 1590.0 1330.0Q1606 1328 1622.0 1323.5Q1638 1319 1652.5 1312.5Q1667 1306 1675 1297Z" style="fill:#d37034;stroke:none" transform="scale(1,-1) translate(0,-256)" /></svg>