<?xml version="1.0" encoding="utf-8" ?>
<svg baseProfile="full" height="256" version="1.1" width="256" xmlns="http://www.w3.org/2000/svg" xmlns:ev="http://www.w3.org/2001/xml-events" xmlns:xlink="http://www.w3.org/1999/xlink"><defs /><path d="M1486 1725Q1562 1725 1629.5 1695.5Q1697 1666 1747.0 1616.0Q1797 1566 1826.0 1498.5Q1855 1431 1855 1355Q1855 1342 1854.0 1330.0Q1853 1318 1852 1306L1826 889Q1824 862 1816.0 834.5Q1808 807 1795.5 780.5Q1783 754 1766.5 730.0Q1750 706 1732 687Q1839 639 1926.0 564.5Q2013 490 2074.0 395.5Q2135 301 2168.0 191.0Q2201 81 2201 -36V-287H620V-36Q620 67 646.0 166.5Q672 266 723 356Q732 371 741.5 386.5Q751 402 762 417Q767 425 778.5 438.5Q790 452 794 460Q812 499 828.5 539.0Q845 579 862 619L1017 650Q1018 650 1027.0 654.5Q1036 659 1047.5 665.0Q1059 671 1069.5 676.5Q1080 682 1083 684Q1065 703 1048.5 727.5Q1032 752 1018.5 778.5Q1005 805 996.5 833.0Q988 861 986 888L959 1306Q958 1317 957.5 1327.5Q957 1338 957 1349Q957 1427 985.0 1495.5Q1013 1564 1062.0 1615.0Q1111 1666 1178.5 1695.5Q1246 1725 1325 1725ZM424 1243 497 1253 549 1315Q545 1322 541.0 1330.5Q537 1339 531.5 1347.0Q526 1355 519.0 1360.5Q512 1366 502 1366Q494 1366 482.0 1360.5Q470 1355 457.0 1347.5Q444 1340 433.0 1332.5Q422 1325 415 1321Q400 1313 400 1294Q400 1283 409.5 1267.5Q419 1252 424 1243ZM621 1190 568 1128 497 1118 460 1181 508 1243 585 1253ZM568 994 640 1004 693 1066 657 1128 585 1118 533 1056ZM765 941 712 886 640 870 604 932 647 994 729 1003ZM837 817 810 745H712L676 807L721 870L800 879Z" style="fill:#321b41;stroke:none" transform="scale(1,-1) translate(0,-256)" /></svg>