<?xml version="1.0" encoding="utf-8" ?>
<svg baseProfile="full" height="256" version="1.1" width="256" xmlns="http://www.w3.org/2000/svg" xmlns:ev="http://www.w3.org/2001/xml-events" xmlns:xlink="http://www.w3.org/1999/xlink"><defs /><path d="M1235 1212Q1253 1212 1271.0 1205.0Q1289 1198 1303.5 1186.0Q1318 1174 1327.0 1158.0Q1336 1142 1336 1123Q1336 1118 1330.5 1113.5Q1325 1109 1320 1109H1156Q1148 1109 1141.5 1115.0Q1135 1121 1135 1129Q1135 1146 1145.0 1161.0Q1155 1176 1170.0 1187.5Q1185 1199 1202.5 1205.5Q1220 1212 1235 1212ZM1587 1212Q1570 1212 1552.0 1205.0Q1534 1198 1519.5 1186.0Q1505 1174 1495.5 1157.5Q1486 1141 1486 1123Q1486 1117 1492.0 1113.0Q1498 1109 1503 1109H1667Q1675 1109 1681.0 1115.0Q1687 1121 1687 1129Q1687 1146 1677.0 1161.0Q1667 1176 1652.0 1187.5Q1637 1199 1619.5 1205.5Q1602 1212 1587 1212Z" style="fill:#ffffff;stroke:none" transform="scale(1,-1) translate(0,-256)" /></svg>