<?xml version="1.0" encoding="utf-8" ?>
<svg baseProfile="full" height="256" version="1.1" width="256" xmlns="http://www.w3.org/2000/svg" xmlns:ev="http://www.w3.org/2001/xml-events" xmlns:xlink="http://www.w3.org/1999/xlink"><defs /><path d="M1251 1164Q1266 1164 1277.0 1152.5Q1288 1141 1288 1126Q1288 1116 1284 1109H1218Q1213 1117 1213 1126Q1213 1142 1224.0 1153.0Q1235 1164 1251 1164ZM1572 1164Q1556 1164 1545.0 1153.0Q1534 1142 1534 1126Q1534 1117 1539 1109H1605Q1609 1116 1609 1126Q1609 1142 1598.5 1153.0Q1588 1164 1572 1164Z" style="fill:#000000;stroke:none" transform="scale(1,-1) translate(0,-256)" /></svg>