<?xml version="1.0" encoding="utf-8" ?>
<svg baseProfile="full" height="256" version="1.1" width="256" xmlns="http://www.w3.org/2000/svg" xmlns:ev="http://www.w3.org/2001/xml-events" xmlns:xlink="http://www.w3.org/1999/xlink"><defs /><path d="M424 1243 549 1315 585 1253 460 1181ZM496 1118 621 1190 657 1128 532 1056ZM568 994 693 1066 729 1003 604 932ZM640 869 764 941 800 879 676 807ZM939 788 1018 651Q1048 668 1083 684Q1149 617 1240 589L1417 315L1588 594Q1671 623 1732 687Q1792 660 1846 624L1545 114L1803 -287H1562L975 625Q924 590 878.0 548.5Q832 507 794 459L688 643Q684 641 676.5 636.0Q669 631 660.5 626.0Q652 621 644.5 617.5Q637 614 633 614Q627 614 620.0 620.5Q613 627 607.5 635.5Q602 644 598.0 652.5Q594 661 594 666Q594 679 604 684Q612 688 640.0 704.5Q668 721 706.0 743.0Q744 765 786.0 789.5Q828 814 864.0 834.5Q900 855 925.0 868.5Q950 882 953 882Q959 882 966.0 876.0Q973 870 979.0 861.5Q985 853 988.5 844.0Q992 835 992 830Q992 822 986.0 816.0Q980 810 971.5 804.5Q963 799 954.0 795.0Q945 791 939 788Z" style="fill:#533566;stroke:none" transform="scale(1,-1) translate(0,-256)" /></svg>