<?xml version="1.0" encoding="utf-8" ?>
<svg baseProfile="full" height="256" version="1.1" width="256" xmlns="http://www.w3.org/2000/svg" xmlns:ev="http://www.w3.org/2001/xml-events" xmlns:xlink="http://www.w3.org/1999/xlink"><defs /><path d="M1482 1137Q1450 1137 1428.0 1158.0Q1406 1179 1406 1211Q1406 1227 1414 1243L1622 1438H2429Q2429 1396 2418.0 1356.0Q2407 1316 2386.0 1281.0Q2365 1246 2334.5 1217.5Q2304 1189 2267 1170Q2265 1125 2247.5 1085.5Q2230 1046 2201.5 1015.5Q2173 985 2135.0 964.5Q2097 944 2053 938Q2053 899 2037.0 860.0Q2021 821 1994.5 789.5Q1968 758 1932.0 738.5Q1896 719 1855 719H1487Q1460 719 1438.5 736.0Q1417 753 1417 782Q1417 793 1426.5 814.5Q1436 836 1449.0 859.5Q1462 883 1474.0 904.0Q1486 925 1492 935Q1462 935 1439.0 953.5Q1416 972 1416 1004Q1416 1016 1424.0 1034.5Q1432 1053 1442.5 1072.0Q1453 1091 1464.5 1108.5Q1476 1126 1482 1137ZM1115 647 903 288H1478Z" style="fill:#6d4534;stroke:none" transform="scale(1,-1) translate(0,-256)" /></svg>