<?xml version="1.0" encoding="utf-8" ?>
<svg baseProfile="full" height="256" version="1.1" width="256" xmlns="http://www.w3.org/2000/svg" xmlns:ev="http://www.w3.org/2001/xml-events" xmlns:xlink="http://www.w3.org/1999/xlink"><defs /><path d="M1263 981Q1263 1011 1274.5 1037.0Q1286 1063 1305.5 1082.5Q1325 1102 1351.0 1113.5Q1377 1125 1407 1125Q1437 1125 1463.0 1113.5Q1489 1102 1508.5 1082.5Q1528 1063 1539.0 1037.0Q1550 1011 1550 981Q1550 955 1541.0 930.5Q1532 906 1514 886V877Q1534 867 1553.0 854.0Q1572 841 1587 824L1595 827Q1615 860 1648.0 878.5Q1681 897 1719 897Q1749 897 1775.0 886.0Q1801 875 1820.5 855.5Q1840 836 1851.0 810.0Q1862 784 1862 754Q1862 724 1851.0 698.0Q1840 672 1820.5 652.5Q1801 633 1775.0 621.5Q1749 610 1719 610Q1688 610 1661 622L1654 619Q1648 576 1626 533L1631 527Q1655 521 1675.5 508.0Q1696 495 1711.0 476.0Q1726 457 1734.5 434.0Q1743 411 1743 386Q1743 356 1731.5 330.0Q1720 304 1700.5 284.5Q1681 265 1655.0 254.0Q1629 243 1599 243Q1565 243 1538.5 255.5Q1512 268 1493.5 289.5Q1475 311 1465.5 339.5Q1456 368 1456 400L1451 407Q1432 403 1407 403Q1382 403 1362 407L1356 400Q1362 369 1351.5 340.5Q1341 312 1320.0 290.5Q1299 269 1270.5 256.0Q1242 243 1213 243Q1183 243 1157.0 254.0Q1131 265 1111.5 284.5Q1092 304 1081.0 330.0Q1070 356 1070 386Q1070 437 1101.0 476.5Q1132 516 1182 527L1187 534Q1176 554 1169.5 575.0Q1163 596 1159 619L1151 622Q1124 610 1094 610Q1064 610 1038.0 621.5Q1012 633 992.5 652.5Q973 672 961.5 698.0Q950 724 950 754Q950 784 961.5 810.0Q973 836 992.5 855.5Q1012 875 1038.0 886.0Q1064 897 1094 897Q1132 897 1165.0 878.5Q1198 860 1218 827L1226 824Q1259 858 1299 877V886Q1263 927 1263 981Z" style="fill:#ff4058;stroke:none" transform="scale(1,-1) translate(0,-256)" /></svg>