<?xml version="1.0" encoding="utf-8" ?>
<svg baseProfile="full" height="256" version="1.1" width="256" xmlns="http://www.w3.org/2000/svg" xmlns:ev="http://www.w3.org/2001/xml-events" xmlns:xlink="http://www.w3.org/1999/xlink"><defs /><path d="M1501 1576Q1505 1576 1511 1574Q1559 1559 1600.0 1529.0Q1641 1499 1671.0 1459.0Q1701 1419 1717.5 1371.0Q1734 1323 1734 1273Q1734 1258 1730.0 1229.0Q1726 1200 1717.0 1170.5Q1708 1141 1694.0 1119.5Q1680 1098 1661 1098Q1646 1098 1635.0 1109.0Q1624 1120 1624 1134Q1624 1140 1630.0 1153.5Q1636 1167 1643.0 1185.5Q1650 1204 1656.0 1227.0Q1662 1250 1662 1274Q1662 1316 1649.0 1351.5Q1636 1387 1613.0 1416.5Q1590 1446 1558.0 1468.0Q1526 1490 1489 1505Q1464 1515 1464 1540Q1464 1555 1475.0 1565.5Q1486 1576 1501 1576ZM656 1090Q656 1106 669.0 1116.0Q682 1126 700.0 1131.0Q718 1136 736.5 1137.5Q755 1139 767 1139Q824 1139 881.0 1120.0Q938 1101 985 1069Q1001 1058 1001 1039Q1001 1024 990.5 1013.5Q980 1003 965 1003Q958 1003 939.5 1013.0Q921 1023 894.5 1035.0Q868 1047 836.0 1057.0Q804 1067 769 1067Q745 1067 724.0 1060.0Q703 1053 692 1053Q677 1053 666.5 1064.5Q656 1076 656 1090ZM2330 818Q2330 832 2318.5 842.5Q2307 853 2293 853Q2274 853 2266.0 839.5Q2258 826 2258 809Q2258 778 2246.5 748.5Q2235 719 2215.5 693.0Q2196 667 2171.5 646.5Q2147 626 2120 613Q2098 603 2076.5 598.0Q2055 593 2032 588Q2018 585 2010.0 576.5Q2002 568 2002 553Q2002 539 2011.5 528.0Q2021 517 2037 517H2042Q2099 525 2151.0 550.5Q2203 576 2243.0 615.0Q2283 654 2306.5 705.5Q2330 757 2330 818ZM1907 364Q1916 364 1920 362Q1944 353 1971.5 332.0Q1999 311 2016 293Q2054 253 2070.5 209.5Q2087 166 2087 111Q2087 88 2083.5 61.5Q2080 35 2072.5 9.0Q2065 -17 2053.0 -40.5Q2041 -64 2025 -82Q2014 -95 1997 -95Q1983 -95 1972.0 -84.0Q1961 -73 1961 -59Q1961 -52 1963.5 -46.5Q1966 -41 1970 -36Q1995 -4 2005.5 34.5Q2016 73 2016 113Q2016 143 2007.0 170.5Q1998 198 1981.5 221.5Q1965 245 1942.5 264.0Q1920 283 1893 295Q1871 305 1871 328Q1871 343 1881.5 353.5Q1892 364 1907 364ZM1283 134Q1269 134 1262.5 128.5Q1256 123 1253.0 115.0Q1250 107 1250.0 96.5Q1250 86 1250 77Q1250 56 1245.5 32.5Q1241 9 1232.5 -12.5Q1224 -34 1211.0 -53.5Q1198 -73 1180 -86Q1147 -111 1107.5 -126.0Q1068 -141 1026 -141Q1018 -141 1011.0 -140.0Q1004 -139 996 -139Q980 -139 969.5 -149.5Q959 -160 959 -175Q959 -189 965.5 -196.5Q972 -204 982.0 -208.0Q992 -212 1004.0 -212.5Q1016 -213 1026 -213Q1079 -213 1130.0 -194.5Q1181 -176 1223 -144Q1248 -126 1266.5 -100.0Q1285 -74 1297.5 -45.0Q1310 -16 1316.0 15.5Q1322 47 1322 77Q1322 87 1320.5 97.0Q1319 107 1315.0 115.5Q1311 124 1303.5 129.0Q1296 134 1283 134Z" style="fill:#ff9cb1;stroke:none" transform="scale(1,-1) translate(0,-256)" /></svg>