<?xml version="1.0" encoding="utf-8" ?>
<svg baseProfile="full" height="256" version="1.1" width="256" xmlns="http://www.w3.org/2000/svg" xmlns:ev="http://www.w3.org/2001/xml-events" xmlns:xlink="http://www.w3.org/1999/xlink"><defs /><path d="M1326 1657Q1342 1657 1351.0 1643.0Q1360 1629 1367.5 1612.0Q1375 1595 1383.5 1581.0Q1392 1567 1406 1567Q1419 1567 1427.5 1581.0Q1436 1595 1443.5 1612.0Q1451 1629 1459.5 1643.0Q1468 1657 1481 1657L1486 1656Q1555 1642 1612.5 1606.0Q1670 1570 1712.0 1518.5Q1754 1467 1777.5 1403.0Q1801 1339 1801 1269Q1801 1229 1787.0 1188.5Q1773 1148 1756 1113Q1786 1141 1814.5 1162.0Q1843 1183 1874.0 1197.0Q1905 1211 1939.5 1218.0Q1974 1225 2016 1225Q2127 1225 2218.0 1170.0Q2309 1115 2363 1019Q2366 1014 2366 1010Q2366 1000 2356.0 989.0Q2346 978 2333.5 966.5Q2321 955 2311.0 943.5Q2301 932 2301 923Q2301 912 2312.0 905.5Q2323 899 2338.0 895.0Q2353 891 2369.0 889.0Q2385 887 2394 885Q2402 883 2405.5 876.5Q2409 870 2410.5 861.5Q2412 853 2412.0 844.0Q2412 835 2412 829Q2412 756 2384.0 686.0Q2356 616 2307.5 561.5Q2259 507 2193.0 474.0Q2127 441 2051 441Q2025 441 1999.0 444.0Q1973 447 1947 452Q2001 423 2044.5 388.0Q2088 353 2118.0 310.5Q2148 268 2164.0 215.5Q2180 163 2180 99Q2180 28 2153.5 -44.0Q2127 -116 2077 -167Q2070 -174 2062 -174Q2052 -174 2040.5 -168.5Q2029 -163 2017.5 -156.0Q2006 -149 1994.5 -143.5Q1983 -138 1973 -138Q1964 -138 1957.0 -145.0Q1950 -152 1951 -162L1960 -240Q1962 -255 1939.0 -265.5Q1916 -276 1885.5 -283.0Q1855 -290 1825.5 -293.0Q1796 -296 1785 -296Q1689 -296 1605.5 -253.5Q1522 -211 1465 -134Q1452 -116 1442.5 -94.5Q1433 -73 1425.5 -50.0Q1418 -27 1413.0 -4.0Q1408 19 1405 40Q1402 19 1397.0 -4.0Q1392 -27 1384.5 -50.0Q1377 -73 1367.5 -94.5Q1358 -116 1345 -134Q1288 -211 1204.5 -253.5Q1121 -296 1025 -296Q1017 -296 1001.0 -294.5Q985 -293 965.5 -290.0Q946 -287 925.0 -283.0Q904 -279 887.0 -272.5Q870 -266 859.5 -258.0Q849 -250 850 -240L858 -162Q859 -152 853.0 -145.0Q847 -138 837 -138Q827 -138 815.5 -143.5Q804 -149 792.5 -156.0Q781 -163 769.5 -168.5Q758 -174 748 -174Q740 -174 733 -167Q708 -142 689.0 -110.5Q670 -79 657.0 -44.0Q644 -9 637.0 28.0Q630 65 630 100Q630 166 646.0 218.0Q662 270 692.0 312.0Q722 354 765.5 388.5Q809 423 864 453Q809 442 756 442Q680 442 614.0 475.0Q548 508 499.5 562.5Q451 617 423.5 687.0Q396 757 396 830Q396 836 396.0 845.0Q396 854 397.5 862.0Q399 870 402.5 876.5Q406 883 414 885L491 902Q499 904 503.5 910.0Q508 916 508 924Q508 934 498.0 944.5Q488 955 475.5 966.0Q463 977 453.0 988.0Q443 999 443 1010Q443 1016 445 1019Q471 1067 508.0 1105.0Q545 1143 590.0 1169.5Q635 1196 686.5 1210.5Q738 1225 792 1225Q835 1225 870.5 1217.5Q906 1210 937.5 1195.5Q969 1181 998.0 1159.5Q1027 1138 1057 1109Q1039 1145 1024.5 1186.0Q1010 1227 1010 1269Q1010 1327 1026.5 1381.5Q1043 1436 1073.5 1483.5Q1104 1531 1147.0 1568.5Q1190 1606 1243 1630Q1249 1633 1260.5 1637.5Q1272 1642 1284.5 1646.5Q1297 1651 1308.5 1654.0Q1320 1657 1326 1657Z" style="fill:#ff6c90;stroke:none" transform="scale(1,-1) translate(0,-256)" /></svg>