<?xml version="1.0" encoding="utf-8" ?>
<svg baseProfile="full" height="256" version="1.1" width="256" xmlns="http://www.w3.org/2000/svg" xmlns:ev="http://www.w3.org/2001/xml-events" xmlns:xlink="http://www.w3.org/1999/xlink"><defs /><path d="M1162 788Q1197 788 1220.5 766.5Q1244 745 1250 711Q1258 663 1286.5 626.0Q1315 589 1362 572Q1385 564 1410.0 561.5Q1435 559 1459 554Q1472 552 1485.0 551.0Q1498 550 1512 550Q1537 550 1561.0 555.5Q1585 561 1610 561Q1627 561 1640.0 549.5Q1653 538 1653 520Q1653 509 1645.5 500.5Q1638 492 1627.0 486.0Q1616 480 1604.0 476.0Q1592 472 1583 470Q1560 464 1541.5 457.0Q1523 450 1507.0 441.0Q1491 432 1476.0 419.5Q1461 407 1444 390Q1413 359 1395.5 332.5Q1378 306 1368.0 282.0Q1358 258 1353.5 235.0Q1349 212 1344.5 187.5Q1340 163 1333.0 136.0Q1326 109 1311 77Q1276 2 1216.5 -56.0Q1157 -114 1080 -143Q1063 -150 1043 -150Q1002 -150 974.0 -123.0Q946 -96 946 -55Q946 -20 955.5 12.5Q965 45 965 80Q965 106 957.0 128.0Q949 150 931 168L769 330Q743 356 728.5 390.5Q714 425 714 463Q714 514 738.0 554.0Q762 594 800.0 621.5Q838 649 885.0 664.5Q932 680 978 683Q1007 684 1025.5 692.5Q1044 701 1057.5 713.0Q1071 725 1080.5 738.0Q1090 751 1101.0 762.0Q1112 773 1126.0 780.5Q1140 788 1162 788Z" style="fill:#f4f4f4;stroke:none" transform="scale(1,-1) translate(0,-256)" /></svg>