<?xml version="1.0" encoding="utf-8" ?>
<svg baseProfile="full" height="256" version="1.1" width="256" xmlns="http://www.w3.org/2000/svg" xmlns:ev="http://www.w3.org/2001/xml-events" xmlns:xlink="http://www.w3.org/1999/xlink"><defs /><path d="M1800 549Q1800 514 1782.5 490.0Q1765 466 1739.0 450.5Q1713 435 1682.0 425.0Q1651 415 1623 409Q1547 392 1499.5 340.0Q1452 288 1444 210Q1433 108 1389.0 20.5Q1345 -67 1276.0 -131.5Q1207 -196 1116.5 -232.5Q1026 -269 922 -269Q813 -269 717.5 -228.0Q622 -187 551.5 -116.0Q481 -45 440.5 50.5Q400 146 400 255Q400 360 436.0 450.0Q472 540 535.5 609.0Q599 678 686.5 721.5Q774 765 876 777Q953 786 1006.5 833.5Q1060 881 1077 956Q1082 978 1091.5 1006.5Q1101 1035 1115.0 1065.0Q1129 1095 1146.5 1123.5Q1164 1152 1185.0 1174.5Q1206 1197 1230.5 1210.5Q1255 1224 1282 1224Q1305 1224 1325.0 1215.5Q1345 1207 1360.0 1192.0Q1375 1177 1383.5 1157.0Q1392 1137 1392 1114Q1392 1082 1376.0 1058.5Q1360 1035 1341.0 1009.5Q1322 984 1306.0 950.5Q1290 917 1290 864Q1290 814 1309.0 770.0Q1328 726 1360.5 693.0Q1393 660 1437.0 641.0Q1481 622 1531 622Q1557 622 1578.5 628.0Q1600 634 1618.5 641.0Q1637 648 1654.0 654.0Q1671 660 1688 660Q1711 660 1731.5 651.0Q1752 642 1767.0 627.0Q1782 612 1791.0 592.0Q1800 572 1800 549Z" style="fill:#ca0b4a;stroke:none" transform="scale(1,-1) translate(0,-256)" /></svg>