<?xml version="1.0" encoding="utf-8" ?>
<svg baseProfile="full" height="256" version="1.1" width="256" xmlns="http://www.w3.org/2000/svg" xmlns:ev="http://www.w3.org/2001/xml-events" xmlns:xlink="http://www.w3.org/1999/xlink"><defs /><path d="M2245 1412Q2226 1412 2216 1395L2139 1265Q2132 1254 2119.0 1248.0Q2106 1242 2093 1242Q2070 1242 2054 1258L1932 1380Q1916 1396 1916 1419Q1916 1433 1923.5 1447.5Q1931 1462 1944 1468L2239 1604Q2254 1611 2270.0 1615.0Q2286 1619 2303 1619Q2325 1619 2344.5 1610.5Q2364 1602 2378.0 1587.5Q2392 1573 2400.0 1553.5Q2408 1534 2408 1512Q2408 1489 2399.5 1469.0Q2391 1449 2376.0 1434.0Q2361 1419 2341.0 1410.0Q2321 1401 2298 1401Q2284 1401 2271.0 1406.5Q2258 1412 2245 1412Z" style="fill:#ca0b4a;stroke:none" transform="scale(1,-1) translate(0,-256)" /></svg>