<?xml version="1.0" encoding="utf-8" ?>
<svg baseProfile="full" height="256" version="1.1" width="256" xmlns="http://www.w3.org/2000/svg" xmlns:ev="http://www.w3.org/2001/xml-events" xmlns:xlink="http://www.w3.org/1999/xlink"><defs /><path d="M1475 1572 1314 1020Q1311 1009 1301.0 1001.5Q1291 994 1280 994Q1265 994 1254.5 1004.5Q1244 1015 1243 1029Q1249 1037 1252.5 1047.5Q1256 1058 1258 1068Q1281 1158 1306.0 1246.0Q1331 1334 1359 1422Q1374 1470 1389.5 1517.5Q1405 1565 1424 1611Q1445 1662 1484.0 1689.0Q1523 1716 1579 1716Q1604 1716 1624 1712Q1593 1716 1568.5 1704.5Q1544 1693 1525.5 1672.5Q1507 1652 1494.5 1625.5Q1482 1599 1476 1573ZM1639 1708Q1636 1708 1634 1709Q1636 1708 1639 1708ZM1907 1564Q1934 1564 1962 1553Q1950 1556 1939 1556Q1912 1556 1890.5 1542.0Q1869 1528 1852.5 1506.5Q1836 1485 1823.5 1460.0Q1811 1435 1804 1414L1641 940Q1637 929 1627.0 922.5Q1617 916 1606 916Q1592 916 1581.5 927.0Q1571 938 1571 953Q1571 957 1581.5 989.5Q1592 1022 1608.0 1069.5Q1624 1117 1643.5 1172.5Q1663 1228 1680.0 1278.0Q1697 1328 1710.0 1365.0Q1723 1402 1727 1413Q1736 1440 1754.0 1467.0Q1772 1494 1795.5 1515.5Q1819 1537 1847.5 1550.5Q1876 1564 1907 1564ZM748 1391Q748 1433 773.0 1472.5Q798 1512 834 1533Q817 1516 811.0 1493.0Q805 1470 805 1447Q805 1421 810.5 1395.0Q816 1369 825 1344L977 926Q979 918 979 913Q979 899 969.0 888.0Q959 877 944 877Q933 877 923.0 883.5Q913 890 909 901L784 1247Q781 1256 775.0 1277.0Q769 1298 763.0 1320.5Q757 1343 752.5 1363.0Q748 1383 748 1391ZM990 601Q976 601 964.0 610.0Q952 619 952 635Q952 668 985 673Q1008 677 1041.0 679.0Q1074 681 1109.5 682.0Q1145 683 1178.5 683.0Q1212 683 1236 683Q1285 683 1350.0 680.0Q1415 677 1481.5 668.0Q1548 659 1609.0 642.5Q1670 626 1711 600Q1729 589 1729 568Q1729 563 1726.5 556.5Q1724 550 1719.5 544.0Q1715 538 1709.5 534.5Q1704 531 1699 533L1697 532Q1683 532 1667.0 526.5Q1651 521 1638 517Q1557 493 1482 458Q1390 415 1306.0 356.0Q1222 297 1154 222Q1139 205 1125.5 187.0Q1112 169 1098 152Q1086 137 1069 137Q1055 137 1044.0 147.5Q1033 158 1033 173Q1033 183 1040 194Q1086 260 1147.5 318.5Q1209 377 1280.0 425.5Q1351 474 1428.0 511.5Q1505 549 1581 574Q1497 597 1410.0 604.0Q1323 611 1236 611Q1194 611 1151.5 609.5Q1109 608 1067 606Q1048 605 1028.5 603.0Q1009 601 990 601Z" style="fill:#d67d00;stroke:none" transform="scale(1,-1) translate(0,-256)" /></svg>