<?xml version="1.0" encoding="utf-8" ?>
<svg baseProfile="full" height="256" version="1.1" width="256" xmlns="http://www.w3.org/2000/svg" xmlns:ev="http://www.w3.org/2001/xml-events" xmlns:xlink="http://www.w3.org/1999/xlink"><defs /><path d="M1290 -287Q1187 -287 1101.0 -261.0Q1015 -235 945.0 -188.5Q875 -142 820.0 -77.5Q765 -13 725.5 65.0Q686 143 661.0 231.0Q636 319 625 412Q617 480 612.0 548.5Q607 617 595 685Q593 693 590.0 701.0Q587 709 585 717Q574 765 554.0 825.0Q534 885 514.5 947.0Q495 1009 480.0 1067.5Q465 1126 465 1171Q465 1207 479.0 1236.0Q493 1265 516.5 1285.5Q540 1306 571.0 1317.5Q602 1329 636 1329Q660 1329 683.5 1323.0Q707 1317 727.5 1305.0Q748 1293 763.5 1275.0Q779 1257 787 1234Q783 1250 776.5 1271.0Q770 1292 763.5 1313.5Q757 1335 752.5 1355.5Q748 1376 748 1391Q748 1424 762.0 1454.0Q776 1484 800.0 1506.5Q824 1529 854.5 1542.5Q885 1556 918 1556Q944 1556 969.0 1549.0Q994 1542 1016.0 1529.0Q1038 1516 1055.0 1497.0Q1072 1478 1082 1453Q1096 1421 1106.5 1386.5Q1117 1352 1128 1318Q1149 1255 1169.5 1193.0Q1190 1131 1211 1068Q1212 1066 1214.0 1058.5Q1216 1051 1219.0 1043.0Q1222 1035 1226.0 1028.5Q1230 1022 1234 1022Q1239 1022 1243.0 1028.5Q1247 1035 1250.5 1043.0Q1254 1051 1256.0 1058.5Q1258 1066 1258 1068Q1266 1096 1272.5 1124.0Q1279 1152 1287 1180Q1307 1251 1327.5 1321.0Q1348 1391 1371 1461Q1384 1499 1396.0 1537.0Q1408 1575 1424 1611Q1446 1662 1483.5 1689.5Q1521 1717 1578 1717Q1616 1717 1648.5 1704.5Q1681 1692 1705.0 1669.5Q1729 1647 1742.5 1615.0Q1756 1583 1756 1544Q1756 1529 1752.0 1507.0Q1748 1485 1741.5 1461.5Q1735 1438 1728.0 1416.0Q1721 1394 1715 1380Q1726 1411 1743.0 1444.0Q1760 1477 1784.0 1503.5Q1808 1530 1838.5 1547.0Q1869 1564 1907 1564Q1944 1564 1975.5 1549.0Q2007 1534 2029.5 1508.5Q2052 1483 2064.5 1450.5Q2077 1418 2077 1382Q2077 1356 2071.0 1333.5Q2065 1311 2056 1288L1838 725L2026 927Q2052 955 2089.0 971.0Q2126 987 2164 987Q2201 987 2233.5 972.5Q2266 958 2290.0 933.0Q2314 908 2328.0 874.5Q2342 841 2342 804Q2342 759 2326.0 724.0Q2310 689 2281 657Q2227 596 2168.5 523.5Q2110 451 2054.0 374.0Q1998 297 1946.5 219.5Q1895 142 1856 71Q1814 -6 1754.0 -71.5Q1694 -137 1620.5 -185.0Q1547 -233 1463.0 -260.0Q1379 -287 1290 -287Z" style="fill:#ffc83d;stroke:none" transform="scale(1,-1) translate(0,-256)" /></svg>