<?xml version="1.0" encoding="utf-8" ?>
<svg baseProfile="full" height="256" version="1.1" width="256" xmlns="http://www.w3.org/2000/svg" xmlns:ev="http://www.w3.org/2001/xml-events" xmlns:xlink="http://www.w3.org/1999/xlink"><defs /><path d="M723 935Q723 955 711.5 973.5Q700 992 687 1006L701 1018H2107L2125 1006Q2112 992 2100.5 973.5Q2089 955 2089 935Q2089 920 2095.5 900.5Q2102 881 2110.5 860.0Q2119 839 2128.0 819.5Q2137 800 2143 786Q2171 717 2184.0 647.5Q2197 578 2197 503Q2197 391 2169.5 288.5Q2142 186 2091.5 98.5Q2041 11 1970.0 -60.5Q1899 -132 1811.0 -182.0Q1723 -232 1620.5 -259.5Q1518 -287 1406 -287Q1294 -287 1191.5 -259.5Q1089 -232 1001.0 -182.0Q913 -132 842.0 -60.5Q771 11 720.5 98.5Q670 186 642.5 288.5Q615 391 615 503Q615 578 628.0 647.5Q641 717 669 786Q675 800 684.0 819.5Q693 839 701.5 860.0Q710 881 716.5 900.5Q723 920 723 935Z" style="fill:#8c5543;stroke:none" transform="scale(1,-1) translate(0,-256)" /></svg>