<?xml version="1.0" encoding="utf-8" ?>
<svg baseProfile="full" height="256" version="1.1" width="256" xmlns="http://www.w3.org/2000/svg" xmlns:ev="http://www.w3.org/2001/xml-events" xmlns:xlink="http://www.w3.org/1999/xlink"><defs /><path d="M1652 1492Q1652 1507 1663.0 1518.0Q1674 1529 1689 1529Q1698 1529 1714.0 1521.0Q1730 1513 1747.0 1503.0Q1764 1493 1779.5 1482.5Q1795 1472 1803 1468Q1811 1463 1816.0 1454.5Q1821 1446 1821 1437Q1821 1422 1810.0 1411.5Q1799 1401 1784 1401Q1775 1401 1759.0 1408.5Q1743 1416 1726.0 1426.5Q1709 1437 1693.5 1446.5Q1678 1456 1670 1461Q1662 1466 1657.0 1474.5Q1652 1483 1652 1492Z" style="fill:#f9c23c;stroke:none" transform="scale(1,-1) translate(0,-256)" /></svg>