<?xml version="1.0" encoding="utf-8" ?>
<svg baseProfile="full" height="256" version="1.1" width="256" xmlns="http://www.w3.org/2000/svg" xmlns:ev="http://www.w3.org/2001/xml-events" xmlns:xlink="http://www.w3.org/1999/xlink"><defs /><path d="M1940 1628Q1940 1620 1929.5 1607.0Q1919 1594 1902.5 1577.5Q1886 1561 1866.5 1542.5Q1847 1524 1829.0 1505.5Q1811 1487 1798.0 1470.0Q1785 1453 1781 1440L1783 1438L1665 1233Q1615 1257 1563 1272L1690 1492L1692 1491Q1701 1500 1712.0 1530.0Q1723 1560 1734.0 1596.0Q1745 1632 1754.0 1665.0Q1763 1698 1767 1712Q1769 1718 1774.0 1722.0Q1779 1726 1785 1726Q1789 1726 1810.0 1714.5Q1831 1703 1855.5 1688.5Q1880 1674 1902.0 1661.0Q1924 1648 1931 1644Q1940 1639 1940 1628ZM687 1150Q658 1150 636.5 1128.5Q615 1107 615 1078Q615 1049 636.5 1027.5Q658 1006 687 1006H2125Q2154 1006 2175.5 1027.5Q2197 1049 2197 1078Q2197 1107 2175.5 1128.5Q2154 1150 2125 1150Z" style="fill:#d3d3d3;stroke:none" transform="scale(1,-1) translate(0,-256)" /></svg>