<?xml version="1.0" encoding="utf-8" ?>
<svg baseProfile="full" height="256" version="1.1" width="256" xmlns="http://www.w3.org/2000/svg" xmlns:ev="http://www.w3.org/2001/xml-events" xmlns:xlink="http://www.w3.org/1999/xlink"><defs /><path d="M1406 144Q1287 144 1182.0 189.0Q1077 234 999.0 312.0Q921 390 876.0 495.0Q831 600 831 719Q831 838 876.0 943.0Q921 1048 999.0 1126.0Q1077 1204 1182.0 1249.0Q1287 1294 1406 1294Q1486 1294 1566 1271L1633 1294L1662 1234Q1735 1198 1794.0 1143.5Q1853 1089 1894.5 1022.0Q1936 955 1958.5 878.0Q1981 801 1981 719Q1981 600 1936.0 495.0Q1891 390 1813.0 312.0Q1735 234 1630.0 189.0Q1525 144 1406 144Z" style="fill:#86d72f;stroke:none" transform="scale(1,-1) translate(0,-256)" /></svg>