<?xml version="1.0" encoding="utf-8" ?>
<svg baseProfile="full" height="256" version="1.1" width="256" xmlns="http://www.w3.org/2000/svg" xmlns:ev="http://www.w3.org/2001/xml-events" xmlns:xlink="http://www.w3.org/1999/xlink"><defs /><path d="M975 1546Q975 1583 989.0 1615.5Q1003 1648 1027.5 1672.5Q1052 1697 1084.5 1711.0Q1117 1725 1154 1725Q1191 1725 1224.0 1711.0Q1257 1697 1281.5 1672.5Q1306 1648 1320.0 1615.5Q1334 1583 1334 1546V395Q1334 358 1320.0 325.5Q1306 293 1281.5 268.5Q1257 244 1224.0 230.0Q1191 216 1154 216Q1117 216 1084.5 230.0Q1052 244 1027.5 268.5Q1003 293 989.0 325.5Q975 358 975 395ZM975 -103Q975 -65 989.5 -31.5Q1004 2 1029.0 27.0Q1054 52 1087.5 66.5Q1121 81 1159 81Q1197 81 1230.5 66.5Q1264 52 1289.0 27.0Q1314 2 1328.5 -31.5Q1343 -65 1343 -103Q1343 -141 1328.5 -174.5Q1314 -208 1289.0 -233.0Q1264 -258 1230.5 -272.5Q1197 -287 1159 -287Q1121 -287 1087.5 -272.5Q1054 -258 1029.0 -233.0Q1004 -208 989.5 -174.5Q975 -141 975 -103ZM1662 -287Q1624 -287 1590.5 -272.5Q1557 -258 1532.0 -233.0Q1507 -208 1492.5 -174.5Q1478 -141 1478 -103Q1478 -65 1492.5 -31.5Q1507 2 1532.0 27.0Q1557 52 1590.5 66.5Q1624 81 1662 81Q1700 81 1733.5 66.5Q1767 52 1792.0 27.0Q1817 2 1831.5 -31.5Q1846 -65 1846 -103Q1846 -141 1831.5 -174.5Q1817 -208 1792.0 -233.0Q1767 -258 1733.5 -272.5Q1700 -287 1662 -287ZM1478 1546Q1478 1583 1492.0 1615.5Q1506 1648 1530.5 1672.5Q1555 1697 1588.0 1711.0Q1621 1725 1658 1725Q1695 1725 1727.5 1711.0Q1760 1697 1784.5 1672.5Q1809 1648 1823.0 1615.5Q1837 1583 1837 1546V395Q1837 358 1823.0 325.5Q1809 293 1784.5 268.5Q1760 244 1727.5 230.0Q1695 216 1658 216Q1621 216 1588.0 230.0Q1555 244 1530.5 268.5Q1506 293 1492.0 325.5Q1478 358 1478 395Z" style="fill:#f8312f;stroke:none" transform="scale(1,-1) translate(0,-256)" /></svg>