<?xml version="1.0" encoding="utf-8" ?>
<svg baseProfile="full" height="256" version="1.1" width="256" xmlns="http://www.w3.org/2000/svg" xmlns:ev="http://www.w3.org/2001/xml-events" xmlns:xlink="http://www.w3.org/1999/xlink"><defs /><path d="M843 1461Q843 1501 858.0 1536.0Q873 1571 899.0 1597.0Q925 1623 960.0 1638.0Q995 1653 1035 1653Q1075 1653 1110.0 1638.0Q1145 1623 1171.0 1597.0Q1197 1571 1212.0 1536.0Q1227 1501 1227 1461V1211Q1199 1219 1173.5 1220.5Q1148 1222 1119 1222V1461Q1119 1496 1094.5 1521.0Q1070 1546 1035 1546Q1000 1546 975.5 1521.0Q951 1496 951 1461V1222H843Z" style="fill:#00a6ed;stroke:none" transform="scale(1,-1) translate(0,-256)" /></svg>