<?xml version="1.0" encoding="utf-8" ?>
<svg baseProfile="full" height="256" version="1.1" width="256" xmlns="http://www.w3.org/2000/svg" xmlns:ev="http://www.w3.org/2001/xml-events" xmlns:xlink="http://www.w3.org/1999/xlink"><defs /><path d="M676 1222V1461Q676 1496 651.5 1521.0Q627 1546 592 1546Q557 1546 532.5 1521.0Q508 1496 508 1461V1222H400V1461Q400 1501 415.0 1536.0Q430 1571 456.0 1597.0Q482 1623 517.0 1638.0Q552 1653 592 1653Q632 1653 667.0 1638.0Q702 1623 728.0 1597.0Q754 1571 769.0 1536.0Q784 1501 784 1461V1222Z" style="fill:#26c9fc;stroke:none" transform="scale(1,-1) translate(0,-256)" /></svg>