<?xml version="1.0" encoding="utf-8" ?>
<svg baseProfile="full" height="256" version="1.1" width="256" xmlns="http://www.w3.org/2000/svg" xmlns:ev="http://www.w3.org/2001/xml-events" xmlns:xlink="http://www.w3.org/1999/xlink"><defs /><path d="M1190 1258Q1237 1258 1272.5 1239.0Q1308 1220 1335.5 1190.0Q1363 1160 1384.0 1122.5Q1405 1085 1423 1049L1622 647Q1632 627 1648.5 615.5Q1665 604 1688 604H1815Q1847 604 1881.0 590.5Q1915 577 1946.0 555.0Q1977 533 2002.0 505.0Q2027 477 2040 449L2346 -215H1581L1319 388Q1308 412 1286.0 432.5Q1264 453 1237.0 468.0Q1210 483 1180.0 491.0Q1150 499 1125 499Q1105 499 1085.5 498.0Q1066 497 1046 497Q1007 497 976.5 508.0Q946 519 929 557L623 1222H679L728 1243L776 1222H843L896 1243L950 1222H1118L1190 1258Z" style="fill:#a7a8b7;stroke:none" transform="scale(1,-1) translate(0,-256)" /></svg>