<?xml version="1.0" encoding="utf-8" ?>
<svg baseProfile="full" height="256" version="1.1" width="256" xmlns="http://www.w3.org/2000/svg" xmlns:ev="http://www.w3.org/2001/xml-events" xmlns:xlink="http://www.w3.org/1999/xlink"><defs /><path d="M716 1583Q731 1598 746.0 1611.0Q761 1624 777.0 1633.5Q793 1643 811.5 1648.0Q830 1653 853 1653Q887 1653 914.0 1640.5Q941 1628 964.0 1608.0Q987 1588 1008.0 1564.0Q1029 1540 1050 1518L1029 1496Q1063 1525 1105.0 1540.5Q1147 1556 1192 1556Q1245 1556 1291.5 1535.5Q1338 1515 1374 1477L1490 1355Q1517 1358 1545 1358Q1650 1358 1744.0 1320.0Q1838 1282 1910.5 1215.5Q1983 1149 2028.5 1058.0Q2074 967 2082 862L2213 726Q2307 628 2357.5 501.0Q2408 374 2408 237Q2408 90 2350.0 -44.0Q2292 -178 2186 -280Q2172 -280 2155.5 -281.0Q2139 -282 2125 -280L1193 -166L473 1285V1580L567 1634Q573 1635 578.5 1635.5Q584 1636 590 1636Q625 1636 658.0 1622.5Q691 1609 716 1583Z" style="fill:#d3d3d3;stroke:none" transform="scale(1,-1) translate(0,-256)" /></svg>