<?xml version="1.0" encoding="utf-8" ?>
<svg baseProfile="full" height="256" version="1.1" width="256" xmlns="http://www.w3.org/2000/svg" xmlns:ev="http://www.w3.org/2001/xml-events" xmlns:xlink="http://www.w3.org/1999/xlink"><defs /><path d="M569 1238Q569 1224 573.0 1205.5Q577 1187 584.0 1168.5Q591 1150 600.0 1133.0Q609 1116 618 1105L1019 1486Q1054 1519 1097.5 1537.5Q1141 1556 1190 1556Q1197 1556 1203.5 1555.5Q1210 1555 1217 1554Q1188 1529 1138.5 1484.5Q1089 1440 1032.0 1385.0Q975 1330 917.0 1268.5Q859 1207 812.0 1148.0Q765 1089 735.0 1036.5Q705 984 705 947Q705 895 724.0 846.5Q743 798 778 760L1459 1350Q1481 1354 1503.0 1355.5Q1525 1357 1547 1357Q1683 1357 1802 1293Q1653 1268 1520.5 1205.5Q1388 1143 1289.0 1046.0Q1190 949 1132.5 819.0Q1075 689 1075 529Q1075 487 1078.5 444.5Q1082 402 1091 360Q1113 256 1174.0 171.5Q1235 87 1321.5 20.0Q1408 -47 1512.0 -97.5Q1616 -148 1725.5 -184.5Q1835 -221 1942.0 -244.5Q2049 -268 2140 -280Q1947 -280 1756.0 -280.5Q1565 -281 1372 -281Q1274 -281 1184.0 -256.0Q1094 -231 1015.5 -185.0Q937 -139 872.5 -75.0Q808 -11 762.0 67.5Q716 146 691.0 236.0Q666 326 666 424Q666 491 678 557Q646 591 614.0 624.5Q582 658 550 692Q517 727 499.0 772.0Q481 817 481 866Q481 906 493.5 944.0Q506 982 529 1014Q508 1037 486.5 1059.0Q465 1081 444 1104Q400 1151 400 1214Q400 1257 417.0 1284.5Q434 1312 461 1342Q439 1366 427.0 1397.0Q415 1428 415 1460Q415 1493 427.0 1523.5Q439 1554 459.5 1577.5Q480 1601 508.5 1616.0Q537 1631 570 1635Q547 1607 530.0 1571.5Q513 1536 513 1499Q513 1453 542 1418L743 1609Q787 1651 848 1653Q827 1632 798.5 1602.0Q770 1572 739.0 1536.0Q708 1500 677.5 1460.0Q647 1420 623.0 1380.5Q599 1341 584.0 1304.5Q569 1268 569 1238Z" style="fill:#9b9b9b;stroke:none" transform="scale(1,-1) translate(0,-256)" /></svg>