<?xml version="1.0" encoding="utf-8" ?>
<svg baseProfile="full" height="256" version="1.1" width="256" xmlns="http://www.w3.org/2000/svg" xmlns:ev="http://www.w3.org/2001/xml-events" xmlns:xlink="http://www.w3.org/1999/xlink"><defs /><path d="M2085 -172Q2037 -121 1989.0 -71.5Q1941 -22 1893 29Q1861 64 1843.5 116.0Q1826 168 1826 215Q1826 278 1849.0 330.5Q1872 383 1916 427Q1972 483 2009.0 542.5Q2046 602 2066 680Q2112 631 2149.0 583.0Q2186 535 2211.0 482.5Q2236 430 2249.5 371.5Q2263 313 2263 244Q2263 125 2217.0 17.0Q2171 -91 2085 -172Z" style="fill:#212121;stroke:none" transform="scale(1,-1) translate(0,-256)" /></svg>