<?xml version="1.0" encoding="utf-8" ?>
<svg baseProfile="full" height="256" version="1.1" width="256" xmlns="http://www.w3.org/2000/svg" xmlns:ev="http://www.w3.org/2001/xml-events" xmlns:xlink="http://www.w3.org/1999/xlink"><defs /><path d="M1767 1725V1623Q1767 1565 1751.5 1517.0Q1736 1469 1708.5 1427.5Q1681 1386 1643.5 1350.5Q1606 1315 1561 1283Q1436 1193 1312.5 1107.0Q1189 1021 1064 932Q1067 948 1069.0 965.5Q1071 983 1075.0 999.5Q1079 1016 1087.0 1030.0Q1095 1044 1110 1055L1529 1349Q1560 1371 1590.0 1397.0Q1620 1423 1643.0 1454.0Q1666 1485 1680.0 1520.5Q1694 1556 1694 1597V1680Q1694 1695 1699.0 1704.0Q1704 1713 1712.5 1717.5Q1721 1722 1732.0 1723.5Q1743 1725 1756 1725ZM979 442Q978 439 978 434Q978 414 994.0 402.0Q1010 390 1028 390Q1047 390 1060 400L1861 994Q1885 1012 1897.5 1044.0Q1910 1076 1910 1105V1626Q1910 1662 1890.0 1684.5Q1870 1707 1837 1718V1105Q1837 1079 1824.0 1063.0Q1811 1047 1792 1031Q1772 1014 1750.5 999.5Q1729 985 1708 970L1523 836Q1386 737 1251.0 639.0Q1116 541 979 442ZM896 -216H2048Q2039 -247 2011.5 -267.0Q1984 -287 1952 -287H989Q957 -287 931.5 -266.0Q906 -245 896 -216ZM1878 790 1891 717H1982Q2014 717 2033.5 737.5Q2053 758 2053 790Z" style="fill:#fcd53f;stroke:none" transform="scale(1,-1) translate(0,-256)" /></svg>