<?xml version="1.0" encoding="utf-8" ?>
<svg baseProfile="full" height="256" version="1.1" width="256" xmlns="http://www.w3.org/2000/svg" xmlns:ev="http://www.w3.org/2001/xml-events" xmlns:xlink="http://www.w3.org/1999/xlink"><defs /><path d="M1118 1001V1336Q1110 1331 1093.0 1319.5Q1076 1308 1057.5 1296.0Q1039 1284 1022.5 1275.0Q1006 1266 999 1266Q983 1266 975 1280Q971 1287 959.5 1307.5Q948 1328 933.0 1355.0Q918 1382 902.0 1411.5Q886 1441 872.5 1467.0Q859 1493 850.0 1511.5Q841 1530 841 1534Q841 1550 855 1559L1082 1703Q1117 1725 1154 1725H1747L1801 1703H1868L2095 1559Q2109 1550 2109 1534Q2109 1530 2101.0 1511.5Q2093 1493 2080.5 1467.5Q2068 1442 2053.0 1412.0Q2038 1382 2024.0 1355.5Q2010 1329 1999.5 1308.0Q1989 1287 1985 1280Q1980 1271 1973.5 1268.0Q1967 1265 1957 1265Q1954 1265 1936.5 1274.5Q1919 1284 1899.0 1296.5Q1879 1309 1861.0 1320.5Q1843 1332 1837 1336V1001Z" style="fill:#ff8257;stroke:none" transform="scale(1,-1) translate(0,-256)" /></svg>