<?xml version="1.0" encoding="utf-8" ?>
<svg baseProfile="full" height="256" version="1.1" width="256" xmlns="http://www.w3.org/2000/svg" xmlns:ev="http://www.w3.org/2001/xml-events" xmlns:xlink="http://www.w3.org/1999/xlink"><defs /><path d="M1693 -287H543Q513 -287 487.0 -276.0Q461 -265 441.5 -245.5Q422 -226 411.0 -200.0Q400 -174 400 -144V1581Q400 1611 411.0 1637.0Q422 1663 441.5 1682.5Q461 1702 487.0 1713.5Q513 1725 543 1725H1693Q1723 1725 1749.0 1713.5Q1775 1702 1794.5 1682.5Q1814 1663 1825.5 1637.0Q1837 1611 1837 1581V-144Q1837 -174 1825.5 -200.0Q1814 -226 1794.5 -245.5Q1775 -265 1749.0 -276.0Q1723 -287 1693 -287Z" style="fill:#ffffff;stroke:none" transform="scale(1,-1) translate(0,-256)" /></svg>