<?xml version="1.0" encoding="utf-8" ?>
<svg baseProfile="full" height="256" version="1.1" width="256" xmlns="http://www.w3.org/2000/svg" xmlns:ev="http://www.w3.org/2001/xml-events" xmlns:xlink="http://www.w3.org/1999/xlink"><defs /><path d="M1370 -144Q1256 -144 1150.5 -114.5Q1045 -85 953.0 -31.0Q861 23 785.5 98.5Q710 174 656.0 266.0Q602 358 572.5 463.5Q543 569 543 683Q543 797 572.5 902.5Q602 1008 656.0 1100.0Q710 1192 785.5 1267.5Q861 1343 953.0 1397.0Q1045 1451 1150.5 1480.5Q1256 1510 1370 1510Q1484 1510 1590.0 1480.5Q1696 1451 1787.5 1397.0Q1879 1343 1954.5 1267.5Q2030 1192 2084.0 1100.5Q2138 1009 2167.5 903.0Q2197 797 2197 683Q2197 569 2167.5 463.5Q2138 358 2084.0 266.0Q2030 174 1954.5 98.5Q1879 23 1787.0 -31.0Q1695 -85 1589.5 -114.5Q1484 -144 1370 -144Z" style="fill:#f4f4f4;stroke:none" transform="scale(1,-1) translate(0,-256)" /></svg>