<?xml version="1.0" encoding="utf-8" ?>
<svg baseProfile="full" height="256" version="1.1" width="256" xmlns="http://www.w3.org/2000/svg" xmlns:ev="http://www.w3.org/2001/xml-events" xmlns:xlink="http://www.w3.org/1999/xlink"><defs /><path d="M2108 1313Q2221 1181 2280.5 1019.0Q2340 857 2340 683Q2340 549 2305.5 425.0Q2271 301 2208.0 193.5Q2145 86 2056.0 -3.0Q1967 -92 1859.5 -155.0Q1752 -218 1628.0 -252.5Q1504 -287 1370 -287Q1236 -287 1112.0 -252.5Q988 -218 880.5 -155.0Q773 -92 684.0 -3.0Q595 86 532.0 193.5Q469 301 434.5 425.0Q400 549 400 683Q400 817 434.5 941.0Q469 1065 532.0 1172.5Q595 1280 684.0 1369.0Q773 1458 880.5 1521.0Q988 1584 1112.0 1618.5Q1236 1653 1370 1653Q1544 1653 1706.0 1593.5Q1868 1534 2000 1421Q1981 1465 1981 1510Q1981 1554 1998.0 1593.0Q2015 1632 2044.5 1661.5Q2074 1691 2113.5 1708.0Q2153 1725 2197 1725Q2241 1725 2280.0 1708.0Q2319 1691 2348.5 1661.5Q2378 1632 2395.0 1593.0Q2412 1554 2412 1510Q2412 1466 2395.0 1426.5Q2378 1387 2348.5 1357.5Q2319 1328 2280.0 1311.0Q2241 1294 2197 1294Q2152 1294 2108 1313ZM2081 1510Q2081 1486 2090.0 1465.0Q2099 1444 2115.0 1428.5Q2131 1413 2152.0 1404.0Q2173 1395 2197 1395Q2221 1395 2242.0 1404.0Q2263 1413 2278.5 1428.5Q2294 1444 2303.0 1465.0Q2312 1486 2312 1510Q2312 1534 2303.0 1555.0Q2294 1576 2278.0 1591.5Q2262 1607 2241.5 1616.5Q2221 1626 2197 1626Q2173 1626 2152.0 1617.0Q2131 1608 2115.0 1592.0Q2099 1576 2090.0 1555.0Q2081 1534 2081 1510ZM2125 683Q2125 787 2098.0 883.5Q2071 980 2022.0 1064.0Q1973 1148 1904.0 1217.0Q1835 1286 1751.0 1335.0Q1667 1384 1570.5 1411.0Q1474 1438 1370 1438Q1266 1438 1169.5 1411.0Q1073 1384 989.0 1335.0Q905 1286 836.0 1217.0Q767 1148 718.0 1064.0Q669 980 642.0 883.5Q615 787 615 683Q615 579 642.0 482.5Q669 386 718.0 302.0Q767 218 836.0 149.0Q905 80 989.0 31.0Q1073 -18 1169.5 -45.0Q1266 -72 1370 -72Q1474 -72 1570.5 -45.0Q1667 -18 1751.0 31.0Q1835 80 1904.0 149.0Q1973 218 2022.0 302.0Q2071 386 2098.0 482.5Q2125 579 2125 683Z" style="fill:#f9c23c;stroke:none" transform="scale(1,-1) translate(0,-256)" /></svg>