<?xml version="1.0" encoding="utf-8" ?>
<svg baseProfile="full" height="256" version="1.1" width="256" xmlns="http://www.w3.org/2000/svg" xmlns:ev="http://www.w3.org/2001/xml-events" xmlns:xlink="http://www.w3.org/1999/xlink"><defs /><path d="M777 662Q769 664 764.0 669.5Q759 675 759 683Q759 691 764.0 696.5Q769 702 777 704L1272 781L1349 1276Q1351 1284 1356.5 1289.0Q1362 1294 1370 1294Q1378 1294 1383.5 1289.0Q1389 1284 1391 1276L1458 847Q1464 852 1479.5 863.5Q1495 875 1515.0 890.0Q1535 905 1556.5 921.0Q1578 937 1597.0 950.5Q1616 964 1630.0 972.5Q1644 981 1648 981Q1656 981 1661.5 975.5Q1667 970 1667 962Q1667 958 1658.5 944.0Q1650 930 1636.5 911.0Q1623 892 1607.0 870.0Q1591 848 1576.0 828.0Q1561 808 1549.5 792.5Q1538 777 1533 771L1963 704Q1971 702 1976.0 696.5Q1981 691 1981 683Q1981 675 1976.0 669.5Q1971 664 1963 662L1468 585L1391 90Q1389 82 1383.5 77.0Q1378 72 1370 72Q1362 72 1356.5 77.0Q1351 82 1349 90L1282 521Q1275 516 1260.0 504.5Q1245 493 1225.0 478.0Q1205 463 1183.5 446.5Q1162 430 1143.0 416.5Q1124 403 1110.0 394.5Q1096 386 1092 386Q1084 386 1078.0 391.5Q1072 397 1072 405Q1072 409 1080.5 422.5Q1089 436 1102.5 455.0Q1116 474 1132.0 496.0Q1148 518 1163.0 538.0Q1178 558 1189.5 573.5Q1201 589 1206 595Z" style="fill:#9b9b9b;stroke:none" transform="scale(1,-1) translate(0,-256)" /></svg>