<?xml version="1.0" encoding="utf-8" ?>
<svg baseProfile="full" height="256" version="1.1" width="256" xmlns="http://www.w3.org/2000/svg" xmlns:ev="http://www.w3.org/2001/xml-events" xmlns:xlink="http://www.w3.org/1999/xlink"><defs /><path d="M1175 1144Q1175 1168 1192.0 1185.5Q1209 1203 1233 1203Q1258 1203 1275.0 1186.0Q1292 1169 1292 1144V904Q1348 935 1410 935Q1459 935 1502.0 916.5Q1545 898 1577.0 866.0Q1609 834 1627.5 791.5Q1646 749 1646 700V614Q1646 565 1627.5 522.0Q1609 479 1577.0 447.0Q1545 415 1502.0 396.5Q1459 378 1410 378Q1343 378 1287 413Q1280 397 1265.0 387.5Q1250 378 1233 378Q1209 378 1192.0 395.5Q1175 413 1175 437ZM1292 614Q1292 590 1301.5 568.5Q1311 547 1327.0 531.0Q1343 515 1364.5 505.5Q1386 496 1410 496Q1434 496 1455.5 505.5Q1477 515 1493.0 531.0Q1509 547 1518.5 568.5Q1528 590 1528 614V700Q1528 724 1518.5 745.5Q1509 767 1493.0 782.5Q1477 798 1455.5 807.5Q1434 817 1410 817Q1386 817 1364.5 807.5Q1343 798 1327.0 782.5Q1311 767 1301.5 745.5Q1292 724 1292 700ZM1944 378Q1895 378 1852.5 396.5Q1810 415 1778.0 447.0Q1746 479 1727.5 522.0Q1709 565 1709 614V700Q1709 749 1727.5 791.5Q1746 834 1778.0 866.0Q1810 898 1852.5 916.5Q1895 935 1944 935Q1981 935 2016.0 923.5Q2051 912 2080.5 891.5Q2110 871 2132.5 842.0Q2155 813 2167 778Q2170 769 2170 758Q2170 734 2153.0 716.5Q2136 699 2112 699Q2093 699 2082.0 707.5Q2071 716 2062.0 729.5Q2053 743 2044.5 758.0Q2036 773 2023.5 786.5Q2011 800 1992.0 808.5Q1973 817 1944 817Q1920 817 1898.5 807.5Q1877 798 1861.0 782.5Q1845 767 1835.5 745.5Q1826 724 1826 700V614Q1826 590 1835.5 568.5Q1845 547 1861.0 531.0Q1877 515 1898.5 505.5Q1920 496 1944 496Q1988 496 2009.5 514.5Q2031 533 2044.5 555.0Q2058 577 2071.0 595.5Q2084 614 2111 614Q2135 614 2152.5 597.0Q2170 580 2170 556Q2170 545 2167 536Q2155 501 2132.5 472.0Q2110 443 2080.5 422.0Q2051 401 2016.0 389.5Q1981 378 1944 378ZM974 420Q945 400 910.5 389.0Q876 378 841 378H806Q773 378 743.0 391.0Q713 404 691.0 426.0Q669 448 656.0 478.0Q643 508 643 541Q643 575 656.0 604.5Q669 634 691.0 656.5Q713 679 742.5 692.0Q772 705 806 705H972Q972 751 948.5 784.0Q925 817 876 817H736Q712 817 694.5 834.5Q677 852 677 876Q677 900 694.5 917.5Q712 935 736 935H876Q920 935 959.0 918.5Q998 902 1027.0 873.0Q1056 844 1073.0 805.0Q1090 766 1090 722V437Q1090 413 1072.5 395.5Q1055 378 1031 378Q1011 378 995.5 390.0Q980 402 974 420ZM750 541Q750 518 766.5 501.5Q783 485 806 485H841Q865 485 887.0 493.5Q909 502 926.0 517.0Q943 532 954.5 552.5Q966 573 969 597H806Q783 597 766.5 580.5Q750 564 750 541Z" style="fill:#f4f4f4;stroke:none" transform="scale(1,-1) translate(0,-256)" /></svg>