<?xml version="1.0" encoding="utf-8" ?>
<svg baseProfile="full" height="256" version="1.1" width="256" xmlns="http://www.w3.org/2000/svg" xmlns:ev="http://www.w3.org/2001/xml-events" xmlns:xlink="http://www.w3.org/1999/xlink"><defs /><path d="M1986 1645Q2010 1645 2019.5 1657.0Q2029 1669 2036.5 1683.5Q2044 1698 2053.5 1710.0Q2063 1722 2087 1722Q2097 1722 2109 1717Q2121 1712 2134.0 1707.0Q2147 1702 2157.5 1695.0Q2168 1688 2175.0 1677.5Q2182 1667 2182 1651Q2182 1635 2174.5 1623.5Q2167 1612 2167 1597Q2167 1576 2182.5 1560.0Q2198 1544 2219 1544Q2233 1544 2245.0 1550.5Q2257 1557 2271 1557Q2287 1557 2298.0 1550.0Q2309 1543 2316.0 1532.0Q2323 1521 2327.5 1507.5Q2332 1494 2337 1481Q2340 1472 2340 1463Q2340 1438 2327.5 1428.0Q2315 1418 2300.0 1411.0Q2285 1404 2272.5 1394.0Q2260 1384 2260 1360Q2260 1336 2272.0 1326.5Q2284 1317 2298.5 1310.0Q2313 1303 2325.0 1292.5Q2337 1282 2337 1258Q2337 1242 2329.0 1226.0Q2321 1210 2314 1196Q2307 1182 2294.5 1173.5Q2282 1165 2266 1165Q2251 1165 2239.0 1172.5Q2227 1180 2212 1180Q2191 1180 2175.0 1164.0Q2159 1148 2159 1127Q2159 1113 2165.5 1101.5Q2172 1090 2172 1076Q2172 1059 2165.0 1048.5Q2158 1038 2147.0 1031.0Q2136 1024 2122.5 1019.5Q2109 1015 2097 1010Q2092 1008 2087.5 1007.0Q2083 1006 2078 1006Q2053 1006 2043.0 1018.5Q2033 1031 2026.0 1046.0Q2019 1061 2009.0 1073.5Q1999 1086 1975 1086Q1952 1086 1942.0 1074.0Q1932 1062 1925.0 1048.0Q1918 1034 1907.5 1022.0Q1897 1010 1873 1010Q1857 1010 1841.0 1018.0Q1825 1026 1811 1033Q1797 1040 1788.5 1052.5Q1780 1065 1780 1081Q1780 1096 1787.5 1108.0Q1795 1120 1795 1135Q1795 1156 1779.5 1172.0Q1764 1188 1743 1188Q1729 1188 1717.0 1181.0Q1705 1174 1691 1174Q1674 1174 1663.5 1181.0Q1653 1188 1646.0 1199.0Q1639 1210 1634.5 1223.5Q1630 1237 1625 1250Q1622 1259 1622 1269Q1622 1294 1634.5 1303.5Q1647 1313 1661.5 1320.0Q1676 1327 1688.5 1336.5Q1701 1346 1701 1371Q1701 1395 1689.0 1405.0Q1677 1415 1663.0 1422.5Q1649 1430 1637.0 1439.5Q1625 1449 1625 1473Q1625 1485 1629 1493Q1635 1505 1640.0 1518.5Q1645 1532 1652.0 1542.5Q1659 1553 1669.0 1560.0Q1679 1567 1696 1567Q1711 1567 1723.0 1559.5Q1735 1552 1750 1552Q1771 1552 1787.0 1567.5Q1803 1583 1803 1604Q1803 1618 1796.5 1630.0Q1790 1642 1790 1656Q1790 1672 1799.0 1685.5Q1808 1699 1823 1705Q1837 1711 1852.5 1718.0Q1868 1725 1884 1725Q1909 1725 1919.0 1712.5Q1929 1700 1936.0 1685.0Q1943 1670 1952.5 1657.5Q1962 1645 1986 1645Z" style="fill:#ff822d;stroke:none" transform="scale(1,-1) translate(0,-256)" /></svg>