<?xml version="1.0" encoding="utf-8" ?>
<svg baseProfile="full" height="256" version="1.1" width="256" xmlns="http://www.w3.org/2000/svg" xmlns:ev="http://www.w3.org/2001/xml-events" xmlns:xlink="http://www.w3.org/1999/xlink"><defs /><path d="M1118 -72Q1227 -72 1328.0 -44.0Q1429 -16 1517.0 35.5Q1605 87 1677.5 159.5Q1750 232 1801.5 320.0Q1853 408 1881.0 509.0Q1909 610 1909 719Q1909 837 1874 953Q1927 868 1954.0 771.5Q1981 675 1981 575Q1981 476 1955.5 384.0Q1930 292 1883.0 212.0Q1836 132 1770.5 66.5Q1705 1 1625.0 -46.0Q1545 -93 1453.0 -118.5Q1361 -144 1262 -144Q1162 -144 1066.0 -116.5Q970 -89 885 -37Q1001 -72 1118 -72Z" style="fill:#6b438b;stroke:none" transform="scale(1,-1) translate(0,-256)" /></svg>