<?xml version="1.0" encoding="utf-8" ?>
<svg baseProfile="full" height="256" version="1.1" width="256" xmlns="http://www.w3.org/2000/svg" xmlns:ev="http://www.w3.org/2001/xml-events" xmlns:xlink="http://www.w3.org/1999/xlink"><defs /><path d="M1479 1311H878Q878 1329 891 1342L1148 1599Q1161 1612 1178 1612Q1196 1612 1209 1599L1466 1342Q1479 1329 1479 1311ZM1115 947H513Q513 965 526 978L784 1235Q797 1248 814 1248Q832 1248 845 1235L1102 978Q1115 965 1115 947ZM1201 861Q1183 861 1170 848L913 590Q900 577 900 559H1503Q1501 578 1489 590L1232 848Q1219 861 1201 861ZM1866 924H1265Q1265 942 1278 955L1535 1212Q1548 1225 1565 1225Q1583 1225 1596 1212L1854 955Q1866 943 1866 924Z" style="fill:#a56953;stroke:none" transform="scale(1,-1) translate(0,-256)" /></svg>