<?xml version="1.0" encoding="utf-8" ?>
<svg baseProfile="full" height="256" version="1.1" width="256" xmlns="http://www.w3.org/2000/svg" xmlns:ev="http://www.w3.org/2001/xml-events" xmlns:xlink="http://www.w3.org/1999/xlink"><defs /><path d="M974 832Q908 832 850.5 857.0Q793 882 749.5 925.5Q706 969 681.0 1027.0Q656 1085 656 1151Q656 1217 681.0 1274.5Q706 1332 749.5 1375.5Q793 1419 850.5 1444.0Q908 1469 974 1469Q1040 1469 1098.0 1444.0Q1156 1419 1199.5 1375.5Q1243 1332 1268.0 1274.5Q1293 1217 1293 1151Q1293 1085 1268.0 1027.0Q1243 969 1199.5 925.5Q1156 882 1098.0 857.0Q1040 832 974 832Z" style="fill:#f8312f;stroke:none" transform="scale(1,-1) translate(0,-256)" /></svg>