<?xml version="1.0" encoding="utf-8" ?>
<svg baseProfile="full" height="256" version="1.1" width="256" xmlns="http://www.w3.org/2000/svg" xmlns:ev="http://www.w3.org/2001/xml-events" xmlns:xlink="http://www.w3.org/1999/xlink"><defs /><path d="M2298 719Q2298 596 2266.0 482.0Q2234 368 2176.0 269.0Q2118 170 2036.5 88.5Q1955 7 1856.0 -51.0Q1757 -109 1643.0 -141.0Q1529 -173 1406 -173Q1283 -173 1169.0 -141.0Q1055 -109 956.0 -51.0Q857 7 775.5 88.5Q694 170 636.0 269.0Q578 368 546.0 482.0Q514 596 514 719Q514 842 546.0 956.0Q578 1070 636.0 1169.0Q694 1268 775.5 1349.5Q857 1431 956.0 1489.0Q1055 1547 1169.0 1579.0Q1283 1611 1406 1611Q1529 1611 1643.0 1579.0Q1757 1547 1856.0 1489.0Q1955 1431 2036.5 1349.5Q2118 1268 2176.0 1169.0Q2234 1070 2266.0 956.0Q2298 842 2298 719Z" style="fill:#e6e6e6;stroke:none" transform="scale(1,-1) translate(0,-256)" /></svg>