<?xml version="1.0" encoding="utf-8" ?>
<svg baseProfile="full" height="256" version="1.1" width="256" xmlns="http://www.w3.org/2000/svg" xmlns:ev="http://www.w3.org/2001/xml-events" xmlns:xlink="http://www.w3.org/1999/xlink"><defs /><path d="M1631 1725Q1728 1725 1817.0 1700.0Q1906 1675 1984.0 1629.5Q2062 1584 2125.5 1520.0Q2189 1456 2234.0 1378.5Q2279 1301 2304.0 1211.5Q2329 1122 2329 1026Q2329 873 2265 734Q2198 588 2131.5 445.0Q2065 302 1998 156Q1951 55 1878.5 -27.0Q1806 -109 1716.0 -166.5Q1626 -224 1521.0 -255.5Q1416 -287 1305 -287Q1199 -287 1102.0 -259.5Q1005 -232 920.0 -182.0Q835 -132 765.5 -62.0Q696 8 646.5 93.0Q597 178 570.0 275.5Q543 373 543 478Q543 600 581.0 714.0Q619 828 691 927Q785 1056 879.0 1183.5Q973 1311 1068 1440Q1117 1507 1180.0 1560.0Q1243 1613 1315.5 1650.0Q1388 1687 1467.5 1706.0Q1547 1725 1631 1725Z" style="fill:#f3ad61;stroke:none" transform="scale(1,-1) translate(0,-256)" /></svg>