<?xml version="1.0" encoding="utf-8" ?>
<svg baseProfile="full" height="256" version="1.1" width="256" xmlns="http://www.w3.org/2000/svg" xmlns:ev="http://www.w3.org/2001/xml-events" xmlns:xlink="http://www.w3.org/1999/xlink"><defs /><path d="M1792 1398Q1792 1377 1784.0 1359.0Q1776 1341 1762.0 1327.5Q1748 1314 1730.0 1306.0Q1712 1298 1691 1298Q1670 1298 1652.0 1306.0Q1634 1314 1620.0 1327.5Q1606 1341 1598.0 1359.0Q1590 1377 1590 1398Q1590 1419 1598.0 1437.0Q1606 1455 1620.0 1469.0Q1634 1483 1652.0 1491.0Q1670 1499 1691 1499Q1712 1499 1730.5 1491.0Q1749 1483 1762.5 1469.5Q1776 1456 1784.0 1437.5Q1792 1419 1792 1398ZM1585 767Q1612 767 1636.0 777.5Q1660 788 1678.0 806.0Q1696 824 1706.5 848.0Q1717 872 1717 899Q1717 926 1706.5 950.0Q1696 974 1678.0 992.0Q1660 1010 1636.0 1020.0Q1612 1030 1585 1030Q1558 1030 1534.0 1019.5Q1510 1009 1492.5 991.5Q1475 974 1464.5 950.0Q1454 926 1454 899Q1454 872 1464.0 848.0Q1474 824 1492.0 806.0Q1510 788 1534.0 777.5Q1558 767 1585 767ZM974 382Q999 382 1021.0 391.5Q1043 401 1059.5 417.5Q1076 434 1085.5 456.0Q1095 478 1095 503Q1095 528 1085.5 550.0Q1076 572 1059.5 588.5Q1043 605 1021.0 614.5Q999 624 974 624Q949 624 927.0 614.5Q905 605 889.0 588.5Q873 572 863.5 550.0Q854 528 854 503Q854 478 863.5 456.0Q873 434 889.0 417.5Q905 401 927.0 391.5Q949 382 974 382ZM1152 153Q1152 118 1128.0 94.0Q1104 70 1069 70Q1034 70 1009.5 94.0Q985 118 985 153Q985 188 1009.5 212.0Q1034 236 1069 236Q1104 236 1128.0 212.0Q1152 188 1152 153ZM2017 732Q2052 732 2076.0 756.5Q2100 781 2100 816Q2100 851 2076.0 875.0Q2052 899 2017 899Q1982 899 1957.5 875.0Q1933 851 1933 816Q1933 781 1957.5 756.5Q1982 732 2017 732Z" style="fill:#d3883e;stroke:none" transform="scale(1,-1) translate(0,-256)" /></svg>