<?xml version="1.0" encoding="utf-8" ?>
<svg baseProfile="full" height="256" version="1.1" width="256" xmlns="http://www.w3.org/2000/svg" xmlns:ev="http://www.w3.org/2001/xml-events" xmlns:xlink="http://www.w3.org/1999/xlink"><defs /><path d="M778 313Q719 313 667.5 335.5Q616 358 578.0 396.5Q540 435 517.5 486.5Q495 538 495 597V1023Q495 1100 515.0 1171.0Q535 1242 571.0 1304.0Q607 1366 658.0 1417.0Q709 1468 771.0 1504.0Q833 1540 904.0 1560.0Q975 1580 1052 1580Q1073 1580 1094.0 1581.0Q1115 1582 1137 1582Q1170 1582 1204.0 1577.0Q1238 1572 1271.5 1564.5Q1305 1557 1338.5 1549.0Q1372 1541 1405 1534L1552 1566Q1553 1566 1562.5 1568.5Q1572 1571 1583.0 1573.5Q1594 1576 1604.0 1578.0Q1614 1580 1616 1580H1759Q1874 1580 1975.5 1536.0Q2077 1492 2152.5 1416.5Q2228 1341 2272.0 1239.5Q2316 1138 2316 1023V597Q2316 538 2293.5 486.5Q2271 435 2232.5 396.5Q2194 358 2142.5 335.5Q2091 313 2032 313H778Z" style="fill:#00a6ed;stroke:none" transform="scale(1,-1) translate(0,-256)" /></svg>