<?xml version="1.0" encoding="utf-8" ?>
<svg baseProfile="full" height="256" version="1.1" width="256" xmlns="http://www.w3.org/2000/svg" xmlns:ev="http://www.w3.org/2001/xml-events" xmlns:xlink="http://www.w3.org/1999/xlink"><defs /><path d="M2316 631 2406 80Q2408 66 2409.5 53.0Q2411 40 2411 26Q2411 -39 2386.5 -95.5Q2362 -152 2319.0 -195.0Q2276 -238 2219.0 -262.5Q2162 -287 2098 -287H712Q647 -287 590.5 -262.5Q534 -238 491.5 -195.0Q449 -152 424.5 -95.5Q400 -39 400 26Q400 39 401.0 52.0Q402 65 404 78L495 630Z" style="fill:#0074ba;stroke:none" transform="scale(1,-1) translate(0,-256)" /></svg>