<?xml version="1.0" encoding="utf-8" ?>
<svg baseProfile="full" height="256" version="1.1" width="256" xmlns="http://www.w3.org/2000/svg" xmlns:ev="http://www.w3.org/2001/xml-events" xmlns:xlink="http://www.w3.org/1999/xlink"><defs /><path d="M1269 -287Q1217 -287 1172.5 -259.5Q1128 -232 1102 -188Q1097 -180 1092.0 -170.5Q1087 -161 1085 -152Q1072 -95 1060.0 -38.0Q1048 19 1036 76Q1031 99 1013.5 113.0Q996 127 973 127H965Q902 119 839.5 112.0Q777 105 714 98Q682 94 648.5 90.0Q615 86 583 86Q563 86 547.0 94.5Q531 103 531 126Q531 141 536.0 155.5Q541 170 546.5 184.0Q552 198 557.0 212.5Q562 227 562 242Q562 264 554.0 274.5Q546 285 534.0 289.5Q522 294 508.0 294.5Q494 295 482.0 297.5Q470 300 462.0 306.5Q454 313 454 330Q454 349 463 366L806 510Q845 527 885.0 538.0Q925 549 968 549Q1000 549 1029.5 540.0Q1059 531 1082 508L1292 297Q1301 288 1316.0 281.0Q1331 274 1347.5 268.5Q1364 263 1380.5 260.5Q1397 258 1409 258Q1422 258 1438.5 260.5Q1455 263 1471.5 268.5Q1488 274 1502.5 281.0Q1517 288 1526 297L1736 508Q1759 531 1788.5 540.0Q1818 549 1850 549Q1893 549 1933.0 538.0Q1973 527 2012 510L2355 366Q2364 349 2364 330Q2364 313 2356.0 306.5Q2348 300 2336.0 297.5Q2324 295 2310.0 294.5Q2296 294 2284.0 289.5Q2272 285 2264.0 274.5Q2256 264 2256 242Q2256 227 2261.0 212.5Q2266 198 2271.5 184.0Q2277 170 2282.0 155.5Q2287 141 2287 126Q2287 103 2271.0 94.5Q2255 86 2235 86Q2203 86 2169.5 90.0Q2136 94 2104 98Q2041 105 1978.5 112.5Q1916 120 1853 127H1845Q1822 127 1804.5 113.0Q1787 99 1782 76Q1770 19 1758.0 -38.0Q1746 -95 1733 -152Q1731 -161 1726.0 -170.5Q1721 -180 1716 -188Q1690 -233 1645.5 -260.0Q1601 -287 1549 -287H1269Z" style="fill:#d3d3d3;stroke:none" transform="scale(1,-1) translate(0,-256)" /></svg>