<?xml version="1.0" encoding="utf-8" ?>
<svg baseProfile="full" height="256" version="1.1" width="256" xmlns="http://www.w3.org/2000/svg" xmlns:ev="http://www.w3.org/2001/xml-events" xmlns:xlink="http://www.w3.org/1999/xlink"><defs /><path d="M759 1165Q759 1253 759.5 1341.0Q760 1429 760 1517Q760 1530 767.0 1538.5Q774 1547 788 1547Q796 1547 800.0 1545.0Q804 1543 809 1538L1117 1303Q1129 1293 1129 1279Q1129 1257 1109 1250Q1100 1247 1074.5 1237.5Q1049 1228 1015.0 1215.0Q981 1202 943.0 1188.5Q905 1175 872.5 1163.0Q840 1151 817.0 1143.5Q794 1136 790 1136Q778 1136 768.5 1144.5Q759 1153 759 1165ZM2053 1167Q2053 1154 2044.0 1145.0Q2035 1136 2023 1136Q2019 1136 1996.0 1143.5Q1973 1151 1940.0 1163.0Q1907 1175 1869.0 1188.5Q1831 1202 1797.0 1215.0Q1763 1228 1737.0 1237.5Q1711 1247 1703 1250Q1683 1257 1683 1279Q1683 1294 1695 1303L2002 1538Q2007 1542 2011.0 1544.5Q2015 1547 2022 1547Q2035 1547 2043.5 1538.5Q2052 1530 2052 1517Z" style="fill:#d3d3d3;stroke:none" transform="scale(1,-1) translate(0,-256)" /></svg>