<?xml version="1.0" encoding="utf-8" ?>
<svg baseProfile="full" height="256" version="1.1" width="256" xmlns="http://www.w3.org/2000/svg" xmlns:ev="http://www.w3.org/2001/xml-events" xmlns:xlink="http://www.w3.org/1999/xlink"><defs /><path d="M1406 894 1150 1438H1662ZM1399 584 1247 261Q1239 244 1224.0 234.5Q1209 225 1191 225Q1165 225 1146.0 243.5Q1127 262 1127 288Q1127 302 1133 314L1260 584H914Q896 584 886.5 591.5Q877 599 872.5 610.5Q868 622 867.5 636.0Q867 650 867 663Q867 683 880.5 696.5Q894 710 914 710H1898Q1916 710 1925.5 702.5Q1935 695 1939.5 684.0Q1944 673 1944.5 659.0Q1945 645 1945 632Q1945 612 1931.5 598.0Q1918 584 1898 584H1552L1678 314Q1684 302 1684 287Q1684 261 1665.5 243.0Q1647 225 1621 225Q1602 225 1587.5 234.5Q1573 244 1565 261L1413 584Z" style="fill:#635994;stroke:none" transform="scale(1,-1) translate(0,-256)" /></svg>