<?xml version="1.0" encoding="utf-8" ?>
<svg baseProfile="full" height="256" version="1.1" width="256" xmlns="http://www.w3.org/2000/svg" xmlns:ev="http://www.w3.org/2001/xml-events" xmlns:xlink="http://www.w3.org/1999/xlink"><defs /><path d="M1865 1510Q1921 1510 1970.0 1481.5Q2019 1453 2047 1405L2465 682Q2484 650 2484 610Q2484 572 2465.0 538.5Q2446 505 2414 485H2413L2145 331Q2111 311 2073 311Q2044 311 2017 323V-24Q2017 -49 2007.5 -70.5Q1998 -92 1982.0 -108.5Q1966 -125 1944.5 -134.5Q1923 -144 1898 -144H915Q890 -144 868.5 -134.5Q847 -125 830.5 -108.5Q814 -92 804.5 -70.5Q795 -49 795 -24V323Q768 311 739 311Q701 311 667 331H666L400 484Q367 504 347.5 538.0Q328 572 328 610Q328 650 347 682L765 1405Q793 1453 842.0 1481.5Q891 1510 947 1510Z" style="fill:#9b9b9b;stroke:none" transform="scale(1,-1) translate(0,-256)" /></svg>