<?xml version="1.0" encoding="utf-8" ?>
<svg baseProfile="full" height="256" version="1.1" width="256" xmlns="http://www.w3.org/2000/svg" xmlns:ev="http://www.w3.org/2001/xml-events" xmlns:xlink="http://www.w3.org/1999/xlink"><defs /><path d="M1945 1413Q1957 1404 1967.0 1393.5Q1977 1383 1985 1369L2403 646Q2412 631 2412 612Q2412 593 2403.0 575.0Q2394 557 2377 547L2109 393Q2091 383 2073 383Q2054 383 2037.0 392.5Q2020 402 2010 419L1945 531ZM802 419Q792 402 775.0 392.5Q758 383 739 383Q721 383 703 393L436 547Q419 557 409.5 574.0Q400 591 400 611Q400 629 409 646L827 1369Q842 1395 867 1412V532Z" style="fill:#d3d3d3;stroke:none" transform="scale(1,-1) translate(0,-256)" /></svg>