<?xml version="1.0" encoding="utf-8" ?>
<svg baseProfile="full" height="256" version="1.1" width="256" xmlns="http://www.w3.org/2000/svg" xmlns:ev="http://www.w3.org/2001/xml-events" xmlns:xlink="http://www.w3.org/1999/xlink"><defs /><path d="M1556 1339Q1670 1387 1787.5 1385.0Q1905 1383 2010.0 1339.0Q2115 1295 2198.5 1212.0Q2282 1129 2327 1014Q2369 907 2390.0 796.0Q2411 685 2411.0 572.5Q2411 460 2390.0 348.5Q2369 237 2327 131Q2280 12 2196.0 -77.0Q2112 -166 2005.5 -219.5Q1899 -273 1777.0 -286.0Q1655 -299 1532 -264Q1469 -247 1405.0 -247.0Q1341 -247 1279 -264Q1197 -287 1115.0 -288.5Q1033 -290 955.0 -272.5Q877 -255 805.5 -219.5Q734 -184 673.0 -132.5Q612 -81 563.5 -14.5Q515 52 484 131Q442 237 421.0 348.5Q400 460 400.0 572.5Q400 685 421.0 796.0Q442 907 484 1014Q514 1090 562.0 1153.0Q610 1216 670.5 1262.5Q731 1309 801.5 1339.0Q872 1369 947.5 1379.5Q1023 1390 1100.5 1380.5Q1178 1371 1254 1339Q1327 1308 1405.5 1308.0Q1484 1308 1556 1339Z" style="fill:#f8312f;stroke:none" transform="scale(1,-1) translate(0,-256)" /></svg>