<?xml version="1.0" encoding="utf-8" ?>
<svg baseProfile="full" height="256" version="1.1" width="256" xmlns="http://www.w3.org/2000/svg" xmlns:ev="http://www.w3.org/2001/xml-events" xmlns:xlink="http://www.w3.org/1999/xlink"><defs /><path d="M2086 716Q2086 688 2075.5 664.5Q2065 641 2047.0 623.5Q2029 606 2005.0 596.5Q1981 587 1954 587Q1957 554 1960.5 520.5Q1964 487 1964 453Q1964 436 1952.5 424.0Q1941 412 1924 411L1803 406Q1798 403 1794.0 396.0Q1790 389 1790 383Q1790 365 1815.0 349.5Q1840 334 1870.0 318.0Q1900 302 1925.0 282.5Q1950 263 1950 236Q1950 231 1948 223Q1923 132 1869.5 76.5Q1816 21 1745.5 -9.0Q1675 -39 1593.5 -49.0Q1512 -59 1430 -59Q1402 -59 1378.5 -75.0Q1355 -91 1346 -117L1295 -261H576L732 235Q741 263 741 294Q741 343 720 385Q696 431 668.5 486.0Q641 541 613.5 600.0Q586 659 560.5 721.0Q535 783 515.5 844.0Q496 905 484.0 963.5Q472 1022 472 1074Q472 1174 507.5 1265.5Q543 1357 606.0 1428.5Q669 1500 754.5 1547.0Q840 1594 940 1606L1286 1649Q1302 1651 1318.0 1652.0Q1334 1653 1351 1653Q1452 1653 1543.0 1617.5Q1634 1582 1705.0 1519.0Q1776 1456 1823.0 1370.0Q1870 1284 1883 1184L1911 968Q1939 928 1969.0 890.5Q1999 853 2033 818Q2043 807 2052.0 798.0Q2061 789 2067.5 779.0Q2074 769 2078.5 757.5Q2083 746 2085 730Q2086 725 2086 716ZM2446 424Q2446 437 2437.5 445.0Q2429 453 2416 453Q2411 453 2409 452L2176 380Q2168 377 2162.5 368.5Q2157 360 2157 352Q2157 344 2162.5 335.5Q2168 327 2176 325L2409 253Q2411 252 2416 252Q2429 252 2437.5 260.0Q2446 268 2446 281V420ZM2355 596Q2355 590 2350.0 583.5Q2345 577 2340 575L2125 460Q2123 458 2118.5 458.0Q2114 458 2112 458Q2099 458 2091.0 466.0Q2083 474 2083 487Q2083 491 2091.0 507.5Q2099 524 2110.5 547.0Q2122 570 2136.5 596.5Q2151 623 2164.0 647.0Q2177 671 2187.0 689.0Q2197 707 2201 714Q2208 729 2227 729Q2238 729 2248 719L2347 620Q2352 615 2353.5 609.5Q2355 604 2355 596ZM2227 -30Q2208 -30 2201 -15Q2197 -8 2187.0 10.0Q2177 28 2164.0 52.0Q2151 76 2136.5 102.0Q2122 128 2110.0 151.0Q2098 174 2090.5 191.0Q2083 208 2083 212Q2083 221 2089.5 231.5Q2096 242 2107 242Q2112 242 2116.5 241.5Q2121 241 2125 239L2340 124Q2345 122 2350.0 115.5Q2355 109 2355 103Q2355 95 2353.5 89.5Q2352 84 2347 79L2248 -20Q2238 -30 2227 -30Z" style="fill:#635994;stroke:none" transform="scale(1,-1) translate(0,-256)" /></svg>