<?xml version="1.0" encoding="utf-8" ?>
<svg baseProfile="full" height="256" version="1.1" width="256" xmlns="http://www.w3.org/2000/svg" xmlns:ev="http://www.w3.org/2001/xml-events" xmlns:xlink="http://www.w3.org/1999/xlink"><defs /><path d="M1600 155Q1574 155 1551.5 169.0Q1529 183 1518 206L1454 339Q1445 358 1445 379Q1445 417 1471.5 443.5Q1498 470 1536 470Q1562 470 1584.0 456.0Q1606 442 1617 419L1681 286Q1690 266 1690 246Q1690 208 1664.0 181.5Q1638 155 1600 155ZM1170 -4Q1144 -4 1121.5 10.0Q1099 24 1088 47L1024 179Q1015 197 1015 219Q1015 257 1041.5 284.0Q1068 311 1106 311Q1132 311 1154.0 296.5Q1176 282 1187 259L1251 127Q1261 105 1261 86Q1261 48 1234.5 22.0Q1208 -4 1170 -4Z" style="fill:#00a6ed;stroke:none" transform="scale(1,-1) translate(0,-256)" /></svg>