<?xml version="1.0" encoding="utf-8" ?>
<svg baseProfile="full" height="256" version="1.1" width="256" xmlns="http://www.w3.org/2000/svg" xmlns:ev="http://www.w3.org/2001/xml-events" xmlns:xlink="http://www.w3.org/1999/xlink"><defs /><path d="M1458 912Q1481 912 1500.5 901.5Q1520 891 1533 872L1752 549Q1777 511 1777 467Q1777 436 1765.5 410.0Q1754 384 1734.5 365.5Q1715 347 1688.5 336.0Q1662 325 1632 324L1597 323Q1577 322 1560.0 329.5Q1543 337 1531.0 350.0Q1519 363 1512.0 380.5Q1505 398 1505 417Q1505 445 1522.5 468.0Q1540 491 1566 500L1473 636Q1466 645 1456 645Q1453 645 1442.5 642.5Q1432 640 1421.0 636.5Q1410 633 1401.5 628.0Q1393 623 1393 617Q1393 612 1400.5 596.5Q1408 581 1416.5 560.0Q1425 539 1432.5 515.0Q1440 491 1440 467Q1440 425 1423.0 386.0Q1406 347 1374 318L1253 209Q1241 198 1225.0 192.0Q1209 186 1192 186Q1154 186 1128.0 212.5Q1102 239 1102 276Q1102 296 1110.5 314.5Q1119 333 1134 347Q1140 353 1160.5 370.0Q1181 387 1203.0 406.5Q1225 426 1242.0 443.5Q1259 461 1259 467Q1259 469 1252.0 485.5Q1245 502 1234.5 525.5Q1224 549 1211.5 576.5Q1199 604 1187.5 628.5Q1176 653 1167.0 671.0Q1158 689 1156 695Q1148 711 1148 733Q1148 771 1173.5 798.0Q1199 825 1237 825Q1257 825 1276.0 816.5Q1295 808 1308 792L1368 810Q1365 830 1371.5 848.5Q1378 867 1390.5 881.0Q1403 895 1420.5 903.5Q1438 912 1458 912Z" style="fill:#9b9b9b;stroke:none" transform="scale(1,-1) translate(0,-256)" /></svg>