<?xml version="1.0" encoding="utf-8" ?>
<svg baseProfile="full" height="256" version="1.1" width="256" xmlns="http://www.w3.org/2000/svg" xmlns:ev="http://www.w3.org/2001/xml-events" xmlns:xlink="http://www.w3.org/1999/xlink"><defs /><path d="M1876 789Q1807 789 1743.5 822.0Q1680 855 1642 914Q1624 942 1606.5 970.5Q1589 999 1571 1028Q1573 1000 1577.0 970.0Q1581 940 1581 912Q1581 877 1561.0 849.5Q1541 822 1507 811L1239 727Q1227 723 1210 723Q1189 723 1170.5 731.0Q1152 739 1138.0 753.0Q1124 767 1116.0 785.5Q1108 804 1108 825Q1108 837 1111.5 864.0Q1115 891 1119.5 921.0Q1124 951 1128.0 979.0Q1132 1007 1134 1022L1037 976Q1031 973 1027.5 966.0Q1024 959 1024 953V842Q1024 823 1016.5 806.5Q1009 790 996.5 777.5Q984 765 967.0 758.0Q950 751 932 751Q894 751 867.5 777.5Q841 804 841 842V953Q841 1012 872.5 1063.5Q904 1115 958 1141L1196 1255Q1214 1264 1235 1264Q1267 1264 1293.0 1244.0Q1319 1224 1324 1193H1477Q1476 1196 1476.0 1199.5Q1476 1203 1476 1206Q1476 1225 1483.0 1241.5Q1490 1258 1502.0 1270.5Q1514 1283 1530.5 1290.5Q1547 1298 1566 1298Q1589 1298 1610.5 1286.5Q1632 1275 1644 1255L1793 1014Q1803 998 1816.0 989.0Q1829 980 1844.0 976.0Q1859 972 1875.0 971.5Q1891 971 1908 971Q1927 971 1943.5 963.5Q1960 956 1972.0 943.5Q1984 931 1991.0 914.5Q1998 898 1998 879Q1998 841 1972.0 815.0Q1946 789 1908 789Z" style="fill:#ff6723;stroke:none" transform="scale(1,-1) translate(0,-256)" /></svg>