<?xml version="1.0" encoding="utf-8" ?>
<svg baseProfile="full" height="256" version="1.1" width="256" xmlns="http://www.w3.org/2000/svg" xmlns:ev="http://www.w3.org/2001/xml-events" xmlns:xlink="http://www.w3.org/1999/xlink"><defs /><path d="M1443 1683Q1476 1683 1504.5 1670.5Q1533 1658 1554.0 1636.5Q1575 1615 1587.5 1586.5Q1600 1558 1600 1525V1364Q1600 1344 1586.5 1330.5Q1573 1317 1553 1317H1386Q1354 1317 1330.5 1340.5Q1307 1364 1307 1396V1462H1175Q1163 1462 1154.5 1470.5Q1146 1479 1146 1491V1525Q1146 1557 1158.0 1586.0Q1170 1615 1191.0 1636.5Q1212 1658 1240.5 1670.5Q1269 1683 1302 1683H1443Z" style="fill:#5092ff;stroke:none" transform="scale(1,-1) translate(0,-256)" /></svg>