<?xml version="1.0" encoding="utf-8" ?>
<svg baseProfile="full" height="256" version="1.1" width="256" xmlns="http://www.w3.org/2000/svg" xmlns:ev="http://www.w3.org/2001/xml-events" xmlns:xlink="http://www.w3.org/1999/xlink"><defs /><path d="M1111 1385Q1111 1404 1118.5 1421.5Q1126 1439 1139.0 1452.0Q1152 1465 1169.0 1472.5Q1186 1480 1206 1480H1405Q1424 1480 1441.5 1472.5Q1459 1465 1472.0 1452.0Q1485 1439 1492.5 1421.5Q1500 1404 1500 1385Q1500 1345 1472.5 1317.0Q1445 1289 1405 1289H1359Q1336 1289 1323.5 1298.0Q1311 1307 1303.5 1318.5Q1296 1330 1292.0 1339.0Q1288 1348 1283 1348Q1278 1348 1274.0 1339.0Q1270 1330 1262.5 1318.5Q1255 1307 1242.0 1298.0Q1229 1289 1206 1289Q1166 1289 1138.5 1317.0Q1111 1345 1111 1385ZM1206 1444Q1182 1444 1164.5 1426.5Q1147 1409 1147 1385Q1147 1359 1164.5 1342.0Q1182 1325 1208 1325Q1217 1325 1224.5 1330.5Q1232 1336 1236 1344V1345Q1243 1362 1253.0 1373.5Q1263 1385 1283 1385Q1303 1385 1311.5 1375.5Q1320 1366 1325.5 1355.0Q1331 1344 1337.5 1334.5Q1344 1325 1359 1325H1405Q1430 1325 1446.5 1343.0Q1463 1361 1463 1385Q1463 1409 1446.0 1426.5Q1429 1444 1405 1444Z" style="fill:#9b9b9b;stroke:none" transform="scale(1,-1) translate(0,-256)" /></svg>