<?xml version="1.0" encoding="utf-8" ?>
<svg baseProfile="full" height="256" version="1.1" width="256" xmlns="http://www.w3.org/2000/svg" xmlns:ev="http://www.w3.org/2001/xml-events" xmlns:xlink="http://www.w3.org/1999/xlink"><defs /><path d="M1405 1462Q1437 1462 1459.0 1439.5Q1481 1417 1481 1385Q1481 1353 1459.0 1330.0Q1437 1307 1405 1307H1359Q1338 1307 1328.5 1316.5Q1319 1326 1313.5 1337.0Q1308 1348 1302.5 1357.5Q1297 1367 1283 1367Q1269 1367 1263.0 1357.5Q1257 1348 1251.5 1337.0Q1246 1326 1237.0 1316.5Q1228 1307 1208 1307Q1175 1307 1152.0 1329.0Q1129 1351 1129 1385Q1129 1417 1151.5 1439.5Q1174 1462 1206 1462H1405Z" style="fill:#26eafc;stroke:none" transform="scale(1,-1) translate(0,-256)" /></svg>