<?xml version="1.0" encoding="utf-8" ?>
<svg baseProfile="full" height="256" version="1.1" width="256" xmlns="http://www.w3.org/2000/svg" xmlns:ev="http://www.w3.org/2001/xml-events" xmlns:xlink="http://www.w3.org/1999/xlink"><defs /><path d="M1497 210Q1486 210 1478.0 218.5Q1470 227 1470 238Q1470 246 1476 254Q1475 256 1483.0 263.5Q1491 271 1493 273Q1525 304 1564.0 323.5Q1603 343 1648 343Q1657 343 1671.0 342.0Q1685 341 1698.0 337.0Q1711 333 1720.5 325.5Q1730 318 1730 306Q1730 295 1722.0 287.0Q1714 279 1703 279Q1690 279 1676.5 284.0Q1663 289 1649 289Q1618 289 1593.5 276.5Q1569 264 1550.5 249.5Q1532 235 1518.5 222.5Q1505 210 1497 210ZM1075 72Q1067 61 1053 61Q1042 61 1033.5 69.0Q1025 77 1025 88Q1025 97 1031 105H1032Q1033 106 1034.0 108.0Q1035 110 1036 111Q1039 115 1042.0 118.5Q1045 122 1049 125Q1060 136 1072.0 145.0Q1084 154 1096 162Q1120 177 1147.5 185.5Q1175 194 1204 194Q1213 194 1227.0 193.0Q1241 192 1254.0 188.0Q1267 184 1276.5 177.0Q1286 170 1286 158Q1286 147 1278.5 138.5Q1271 130 1259 130Q1246 130 1232.5 135.0Q1219 140 1205 140Q1189 140 1170.5 135.0Q1152 130 1134.5 121.0Q1117 112 1102.0 100.0Q1087 88 1078 75L1075 73Z" style="fill:#212121;stroke:none" transform="scale(1,-1) translate(0,-256)" /></svg>