<?xml version="1.0" encoding="utf-8" ?>
<svg baseProfile="full" height="256" version="1.1" width="256" xmlns="http://www.w3.org/2000/svg" xmlns:ev="http://www.w3.org/2001/xml-events" xmlns:xlink="http://www.w3.org/1999/xlink"><defs /><path d="M1951 1224Q1951 1195 1930.0 1173.5Q1909 1152 1880 1152Q1850 1152 1829.0 1173.0Q1808 1194 1808 1224Q1808 1253 1829.5 1274.0Q1851 1295 1880 1295Q1909 1295 1930.0 1274.0Q1951 1253 1951 1224ZM400 304V-287H2411V1172H2319Q2185 1172 2077.5 1117.0Q1970 1062 1885 962Q1763 819 1609.0 740.5Q1455 662 1265 662Q1143 662 1025.0 638.5Q907 615 797.0 569.5Q687 524 586.5 457.0Q486 390 400 304Z" style="fill:#b4f6fc;stroke:none" transform="scale(1,-1) translate(0,-256)" /></svg>