<?xml version="1.0" encoding="utf-8" ?>
<svg baseProfile="full" height="256" version="1.1" width="256" xmlns="http://www.w3.org/2000/svg" xmlns:ev="http://www.w3.org/2001/xml-events" xmlns:xlink="http://www.w3.org/1999/xlink"><defs /><path d="M1454 1172H1261Q1236 1172 1213.5 1182.0Q1191 1192 1174.5 1208.5Q1158 1225 1148.0 1247.5Q1138 1270 1138 1295V1318H1453Q1482 1318 1505.0 1334.5Q1528 1351 1539 1377L1616 1574Q1629 1608 1651.5 1636.0Q1674 1664 1703.0 1683.5Q1732 1703 1766.0 1714.0Q1800 1725 1837 1725H2063Q2076 1725 2085.5 1716.0Q2095 1707 2095 1694V1610Q2095 1597 2085.5 1588.0Q2076 1579 2063 1579H1837Q1808 1579 1785.5 1563.0Q1763 1547 1752 1520L1675 1323Q1661 1289 1639.0 1261.0Q1617 1233 1588.0 1213.5Q1559 1194 1525.0 1183.0Q1491 1172 1454 1172Z" style="fill:#83cbff;stroke:none" transform="scale(1,-1) translate(0,-256)" /></svg>