<?xml version="1.0" encoding="utf-8" ?>
<svg baseProfile="full" height="256" version="1.1" width="256" xmlns="http://www.w3.org/2000/svg" xmlns:ev="http://www.w3.org/2001/xml-events" xmlns:xlink="http://www.w3.org/1999/xlink"><defs /><path d="M720 1232Q739 1232 753 1246L879 1372Q892 1385 892 1404Q892 1424 879 1437L680 1636Q666 1650 666 1669Q666 1690 680.5 1701.5Q695 1713 715.5 1718.0Q736 1723 758.0 1724.0Q780 1725 795 1725Q877 1725 949.0 1694.0Q1021 1663 1074.5 1609.5Q1128 1556 1159.0 1484.0Q1190 1412 1190 1330Q1190 1298 1185.5 1267.0Q1181 1236 1171 1206L1889 482Q1950 503 2017 503Q2099 503 2171.0 472.0Q2243 441 2296.5 387.0Q2350 333 2381.0 261.0Q2412 189 2412 107Q2412 92 2411.0 70.0Q2410 48 2405.0 28.0Q2400 8 2388.5 -6.5Q2377 -21 2356 -21Q2337 -21 2323 -7L2124 192Q2111 205 2091 205Q2072 205 2059 192L1933 66Q1919 52 1919 33Q1919 15 1933 1L2132 -198Q2146 -212 2146 -231Q2146 -252 2131.5 -263.5Q2117 -275 2096.5 -280.0Q2076 -285 2054.0 -286.0Q2032 -287 2017 -287Q1935 -287 1863.0 -256.0Q1791 -225 1737.5 -171.5Q1684 -118 1653.0 -46.0Q1622 26 1622 108Q1622 169 1640 228L918 954Q889 944 858.0 939.5Q827 935 796 935Q714 935 642.0 966.0Q570 997 516.0 1051.0Q462 1105 431.0 1177.0Q400 1249 400 1331Q400 1346 401.0 1368.0Q402 1390 407.0 1410.0Q412 1430 423.5 1444.5Q435 1459 456 1459Q475 1459 489 1445L688 1246Q702 1232 720 1232Z" style="fill:#b4acbc;stroke:none" transform="scale(1,-1) translate(0,-256)" /></svg>