<?xml version="1.0" encoding="utf-8" ?>
<svg baseProfile="full" height="256" version="1.1" width="256" xmlns="http://www.w3.org/2000/svg" xmlns:ev="http://www.w3.org/2001/xml-events" xmlns:xlink="http://www.w3.org/1999/xlink"><defs /><path d="M1833 -221Q1833 -247 1814.5 -265.0Q1796 -283 1770 -283Q1754 -283 1741 -276Q1620 -216 1542.5 -137.0Q1465 -58 1420.5 37.5Q1376 133 1359.0 244.0Q1342 355 1342 479Q1342 537 1343.5 594.5Q1345 652 1345 710H1471Q1471 651 1469.5 593.0Q1468 535 1468 476Q1468 410 1472.0 344.5Q1476 279 1491 215Q1516 109 1569.5 29.0Q1623 -51 1713 -113Q1734 -127 1755.5 -139.0Q1777 -151 1799 -164Q1833 -183 1833 -221Z" style="fill:#008463;stroke:none" transform="scale(1,-1) translate(0,-256)" /></svg>