<?xml version="1.0" encoding="utf-8" ?>
<svg baseProfile="full" height="256" version="1.1" width="256" xmlns="http://www.w3.org/2000/svg" xmlns:ev="http://www.w3.org/2001/xml-events" xmlns:xlink="http://www.w3.org/1999/xlink"><defs /><path d="M952 895Q944 895 936.5 896.0Q929 897 921 899Q870 912 811.5 936.5Q753 961 695.0 995.0Q637 1029 584.0 1071.5Q531 1114 490.0 1163.0Q449 1212 424.5 1267.0Q400 1322 400 1381Q400 1435 419.0 1480.0Q438 1525 471.5 1557.0Q505 1589 550.5 1607.0Q596 1625 650 1625Q699 1625 746.0 1611.5Q793 1598 837 1578Q878 1645 944.0 1685.0Q1010 1725 1089 1725Q1142 1725 1187.0 1707.0Q1232 1689 1265.0 1657.0Q1298 1625 1316.5 1580.5Q1335 1536 1335 1483Q1335 1469 1333.5 1456.0Q1332 1443 1330 1429Q1319 1363 1290.0 1293.5Q1261 1224 1220.5 1158.0Q1180 1092 1131.5 1033.0Q1083 974 1034 929Q1016 912 996.5 903.5Q977 895 952 895ZM1860 895Q1835 895 1815.5 903.5Q1796 912 1778 929Q1729 974 1680.5 1033.0Q1632 1092 1591.5 1158.0Q1551 1224 1522.0 1293.5Q1493 1363 1482 1429Q1480 1443 1478.5 1456.0Q1477 1469 1477 1483Q1477 1536 1495.5 1580.5Q1514 1625 1547.0 1657.0Q1580 1689 1625.0 1707.0Q1670 1725 1723 1725Q1802 1725 1868.0 1685.0Q1934 1645 1975 1578Q2019 1598 2066.0 1611.5Q2113 1625 2162 1625Q2216 1625 2261.5 1607.0Q2307 1589 2340.5 1557.0Q2374 1525 2393.0 1480.0Q2412 1435 2412 1381Q2412 1322 2387.5 1267.0Q2363 1212 2322.0 1163.0Q2281 1114 2228.0 1071.5Q2175 1029 2117.0 995.0Q2059 961 2000.5 936.5Q1942 912 1891 899Q1883 897 1875.5 896.0Q1868 895 1860 895Z" style="fill:#f70a8d;stroke:none" transform="scale(1,-1) translate(0,-256)" /></svg>