<?xml version="1.0" encoding="utf-8" ?>
<svg baseProfile="full" height="256" version="1.1" width="256" xmlns="http://www.w3.org/2000/svg" xmlns:ev="http://www.w3.org/2001/xml-events" xmlns:xlink="http://www.w3.org/1999/xlink"><defs /><path d="M436 432Q441 432 444.5 431.0Q448 430 452 428L739 284Q759 274 759 252Q759 238 748.5 227.0Q738 216 723 216Q714 216 707 220L420 363Q400 373 400 395Q400 411 410.5 421.5Q421 432 436 432ZM435 -72Q420 -72 410.0 -61.0Q400 -50 400 -35Q400 -14 420 -4L707 140Q714 144 723 144Q738 144 748.5 133.0Q759 122 759 108Q759 86 739 76L452 -68Q445 -72 435 -72ZM2376 432Q2391 432 2401.5 421.5Q2412 411 2412 395Q2412 373 2392 363L2105 220Q2098 216 2088 216Q2074 216 2063.5 226.5Q2053 237 2053 252Q2053 274 2073 284L2360 428Q2364 430 2367.5 431.0Q2371 432 2376 432ZM2377 -72Q2367 -72 2360 -68L2073 76Q2053 86 2053 108Q2053 122 2063.5 133.0Q2074 144 2088 144Q2098 144 2105 140L2392 -4Q2412 -14 2412 -35Q2412 -50 2402.0 -61.0Q2392 -72 2377 -72Z" style="fill:#ff6723;stroke:none" transform="scale(1,-1) translate(0,-256)" /></svg>