<?xml version="1.0" encoding="utf-8" ?>
<svg baseProfile="full" height="256" version="1.1" width="256" xmlns="http://www.w3.org/2000/svg" xmlns:ev="http://www.w3.org/2001/xml-events" xmlns:xlink="http://www.w3.org/1999/xlink"><defs /><path d="M2407 586Q2407 551 2383.5 527.5Q2360 504 2325 504Q2289 504 2264.0 515.5Q2239 527 2216.0 541.0Q2193 555 2166.5 566.5Q2140 578 2100 578Q2059 578 2033.0 566.5Q2007 555 1984.5 541.0Q1962 527 1936.5 515.5Q1911 504 1869 504Q1827 504 1801.5 515.5Q1776 527 1753.0 541.0Q1730 555 1704.5 566.5Q1679 578 1637 578Q1596 578 1570.0 566.5Q1544 555 1521.5 541.0Q1499 527 1473.5 515.5Q1448 504 1406 504Q1364 504 1338.5 515.5Q1313 527 1290.5 541.0Q1268 555 1242.0 566.5Q1216 578 1175 578Q1134 578 1108.0 566.5Q1082 555 1059.5 541.0Q1037 527 1011.5 515.5Q986 504 945 504Q903 504 877.5 515.5Q852 527 829.5 541.0Q807 555 781.0 566.5Q755 578 714 578Q672 578 646.5 566.5Q621 555 598.0 541.0Q575 527 549.0 515.5Q523 504 481 504Q446 504 423.0 527.5Q400 551 400 586Q400 601 405 618Q407 623 411.0 627.5Q415 632 418 637Q461 705 505.0 770.0Q549 835 597 900Q737 1089 894.0 1261.5Q1051 1434 1231 1586Q1269 1618 1314.5 1635.5Q1360 1653 1411 1653Q1462 1653 1508.0 1635.5Q1554 1618 1592 1585Q1767 1433 1922.5 1260.5Q2078 1088 2215 900Q2262 835 2308.0 769.0Q2354 703 2394 634Q2396 629 2398.0 625.5Q2400 622 2403 618Q2405 610 2406.0 602.0Q2407 594 2407 586Z" style="fill:#f3ad61;stroke:none" transform="scale(1,-1) translate(0,-256)" /></svg>