<?xml version="1.0" encoding="utf-8" ?>
<svg baseProfile="full" height="256" version="1.1" width="256" xmlns="http://www.w3.org/2000/svg" xmlns:ev="http://www.w3.org/2001/xml-events" xmlns:xlink="http://www.w3.org/1999/xlink"><defs /><path d="M1190 1150H1152Q1132 1150 1113.5 1148.0Q1095 1146 1080.0 1138.5Q1065 1131 1056.0 1116.5Q1047 1102 1047 1078Q1047 1049 1067.0 1028.0Q1087 1007 1116 1006Q1106 1005 1101.5 998.0Q1097 991 1093.0 983.5Q1089 976 1082.5 969.5Q1076 963 1061 963Q1051 963 1042.0 965.5Q1033 968 1024 971Q1001 991 988.0 1019.0Q975 1047 975 1078Q975 1108 986.0 1134.0Q997 1160 1016.5 1179.5Q1036 1199 1062.0 1210.5Q1088 1222 1118 1222Q1118 1251 1097.0 1272.5Q1076 1294 1047 1294V1330Q1047 1352 1038.5 1371.5Q1030 1391 1015.0 1406.0Q1000 1421 980.5 1429.5Q961 1438 939 1438Q917 1438 897.5 1429.5Q878 1421 863.0 1406.0Q848 1391 839.5 1371.5Q831 1352 831 1330V863H854Q874 863 888.5 856.5Q903 850 903 827Q903 802 887.0 796.5Q871 791 852 791H831V719H854Q874 719 888.5 712.5Q903 706 903 683Q903 670 897.5 662.5Q892 655 883.5 651.5Q875 648 865.0 647.5Q855 647 845 647H834Q840 606 858.5 569.5Q877 533 905.0 505.0Q933 477 969.5 458.5Q1006 440 1047 434V362Q986 367 933.5 395.0Q881 423 842.0 467.0Q803 511 781.0 567.0Q759 623 759 683V1330Q759 1367 773.0 1400.0Q787 1433 811.5 1457.5Q836 1482 868.5 1496.0Q901 1510 939 1510Q973 1510 1004.5 1497.5Q1036 1485 1060.0 1463.0Q1084 1441 1099.5 1411.0Q1115 1381 1118 1347Q1142 1332 1156.5 1315.0Q1171 1298 1178.5 1279.0Q1186 1260 1188.0 1238.5Q1190 1217 1190 1193ZM1406 36Q1421 36 1431.5 25.5Q1442 15 1442 0Q1442 -15 1431.5 -25.5Q1421 -36 1406 -36Q1391 -36 1380.5 -25.5Q1370 -15 1370 0Q1370 15 1380.5 25.5Q1391 36 1406 36ZM1298 144Q1313 144 1323.5 133.5Q1334 123 1334 108Q1334 93 1323.5 82.5Q1313 72 1298 72Q1283 72 1272.5 82.5Q1262 93 1262 108Q1262 123 1272.5 133.5Q1283 144 1298 144ZM1190 252Q1205 252 1215.5 241.5Q1226 231 1226 216Q1226 201 1215.5 190.5Q1205 180 1190 180Q1175 180 1164.5 190.5Q1154 201 1154 216Q1154 231 1164.5 241.5Q1175 252 1190 252Z" style="fill:#b4acbc;stroke:none" transform="scale(1,-1) translate(0,-256)" /></svg>