<?xml version="1.0" encoding="utf-8" ?>
<svg baseProfile="full" height="256" version="1.1" width="256" xmlns="http://www.w3.org/2000/svg" xmlns:ev="http://www.w3.org/2001/xml-events" xmlns:xlink="http://www.w3.org/1999/xlink"><defs /><path d="M1406 -72Q1435 -72 1456.5 -50.5Q1478 -29 1478 0V292Q1478 303 1491.5 307.5Q1505 312 1513 312Q1539 312 1550 288V0Q1550 -30 1538.5 -56.0Q1527 -82 1507.5 -101.5Q1488 -121 1462.0 -132.5Q1436 -144 1406 -144Q1381 -144 1358.0 -135.5Q1335 -127 1316.5 -112.0Q1298 -97 1285.0 -76.5Q1272 -56 1266 -32Q1224 -23 1195.5 5.5Q1167 34 1158 76Q1134 82 1113.5 95.0Q1093 108 1078.0 126.5Q1063 145 1055.0 168.0Q1047 191 1047 216V362L1019 399L1047 434V583Q1054 586 1063 586Q1075 586 1084.0 580.0Q1093 574 1100 565Q1113 548 1115.5 526.0Q1118 504 1118 483V216Q1118 187 1139.5 165.5Q1161 144 1190 144Q1205 144 1215.5 133.5Q1226 123 1226 108Q1226 78 1247.0 57.0Q1268 36 1298 36Q1313 36 1323.5 25.5Q1334 15 1334 0Q1334 -29 1355.5 -50.5Q1377 -72 1406 -72ZM975 72H998Q1018 72 1032.5 65.5Q1047 59 1047 36Q1047 12 1029.0 5.5Q1011 -1 990 -1Q979 -1 969.5 -0.5Q960 0 952 0Q929 -20 916.0 -48.5Q903 -77 903 -108Q903 -122 892.0 -133.0Q881 -144 867 -144Q853 -144 842.0 -133.0Q831 -122 831 -108Q831 -71 843 -38Q832 -48 822.0 -60.0Q812 -72 795 -72Q781 -72 770.0 -61.0Q759 -50 759 -36Q759 -18 775.5 -0.5Q792 17 815.5 31.5Q839 46 863.5 56.0Q888 66 903 69V414Q903 436 925 436Q948 436 961.5 417.5Q975 399 975 378ZM771 394Q760 383 750.0 371.5Q740 360 723 360Q708 360 697.5 370.0Q687 380 687 395Q687 410 703.0 428.0Q719 446 740.5 461.0Q762 476 785.0 486.5Q808 497 822 497Q832 497 843.0 494.5Q854 492 863.5 486.0Q873 480 879.0 471.5Q885 463 885 451Q885 441 880 431Q857 411 844.0 383.0Q831 355 831 324Q831 309 820.5 298.5Q810 288 795 288Q780 288 769.5 298.5Q759 309 759 324Q759 361 771 394ZM1118 1617Q1118 1601 1111.0 1594.5Q1104 1588 1092.5 1585.0Q1081 1582 1066.5 1579.5Q1052 1577 1036.5 1569.5Q1021 1562 1006.0 1547.5Q991 1533 979 1505Q974 1492 964.0 1483.0Q954 1474 939 1474Q929 1474 919.0 1486.0Q909 1498 906 1507Q912 1538 928.5 1565.0Q945 1592 968.5 1611.5Q992 1631 1021.5 1642.0Q1051 1653 1083 1653Q1097 1653 1107.5 1642.0Q1118 1631 1118 1617Z" style="fill:#5a93cb;stroke:none" transform="scale(1,-1) translate(0,-256)" /></svg>