<?xml version="1.0" encoding="utf-8" ?>
<svg baseProfile="full" height="256" version="1.1" width="256" xmlns="http://www.w3.org/2000/svg" xmlns:ev="http://www.w3.org/2001/xml-events" xmlns:xlink="http://www.w3.org/1999/xlink"><defs /><path d="M1246 1160Q1262 1160 1272.5 1149.0Q1283 1138 1283 1122Q1283 1112 1279 1105H1213Q1208 1113 1208 1122Q1208 1138 1219.0 1149.0Q1230 1160 1246 1160ZM1567 1160Q1551 1160 1540.5 1149.0Q1530 1138 1530 1122Q1530 1112 1534 1105H1600Q1604 1112 1604 1122Q1604 1138 1593.5 1149.0Q1583 1160 1567 1160Z" style="fill:#000000;stroke:none" transform="scale(1,-1) translate(0,-256)" /></svg>