<?xml version="1.0" encoding="utf-8" ?>
<svg baseProfile="full" height="256" version="1.1" width="256" xmlns="http://www.w3.org/2000/svg" xmlns:ev="http://www.w3.org/2001/xml-events" xmlns:xlink="http://www.w3.org/1999/xlink"><defs /><path d="M1155 1260Q1147 1260 1141.0 1265.0Q1135 1270 1135 1279Q1135 1291 1149.5 1300.5Q1164 1310 1183.5 1316.5Q1203 1323 1222.5 1326.5Q1242 1330 1252 1330Q1258 1330 1265.5 1330.0Q1273 1330 1280.0 1328.0Q1287 1326 1291.5 1321.5Q1296 1317 1296 1309Q1296 1305 1294 1299Q1289 1294 1285.5 1291.5Q1282 1289 1275 1289Q1243 1289 1219.0 1286.0Q1195 1283 1167 1264Q1164 1262 1161.5 1261.0Q1159 1260 1155 1260ZM1658 1260Q1654 1260 1645.0 1264.5Q1636 1269 1623.0 1275.0Q1610 1281 1593.5 1285.5Q1577 1290 1559 1290Q1554 1290 1547.0 1289.5Q1540 1289 1533.5 1290.0Q1527 1291 1522.0 1294.5Q1517 1298 1517 1306Q1517 1325 1530.5 1327.5Q1544 1330 1558 1330Q1568 1330 1588.0 1326.5Q1608 1323 1628.0 1316.5Q1648 1310 1663.0 1300.5Q1678 1291 1678 1279Q1678 1271 1672.0 1265.5Q1666 1260 1658 1260Z" style="fill:#d37034;stroke:none" transform="scale(1,-1) translate(0,-256)" /></svg>