<?xml version="1.0" encoding="utf-8" ?>
<svg baseProfile="full" height="256" version="1.1" width="256" xmlns="http://www.w3.org/2000/svg" xmlns:ev="http://www.w3.org/2001/xml-events" xmlns:xlink="http://www.w3.org/1999/xlink"><defs /><path d="M1029 1280Q1029 1329 1050.0 1371.0Q1071 1413 1105.5 1444.0Q1140 1475 1184.0 1492.5Q1228 1510 1275 1510H1369Q1387 1510 1396.5 1502.0Q1406 1494 1414 1480Q1440 1436 1468.0 1414.5Q1496 1393 1528.0 1385.5Q1560 1378 1597.5 1378.5Q1635 1379 1681 1378Q1726 1377 1754.5 1346.5Q1783 1316 1783 1272Q1783 1263 1783.0 1254.0Q1783 1245 1782 1236Q1777 1148 1771.5 1062.0Q1766 976 1760 888Q1759 872 1753.5 854.5Q1748 837 1742 822Q1725 782 1698.0 749.5Q1671 717 1636.0 694.5Q1601 672 1560.0 659.5Q1519 647 1476 647H1339Q1296 647 1255.0 659.5Q1214 672 1179.0 694.5Q1144 717 1116.5 749.5Q1089 782 1073 822Q1067 837 1062.0 854.5Q1057 872 1055 888L1038 1149Q1035 1187 1032.0 1214.5Q1029 1242 1029 1280Z" style="fill:#ffc83d;stroke:none" transform="scale(1,-1) translate(0,-256)" /></svg>