<?xml version="1.0" encoding="utf-8" ?>
<svg baseProfile="full" height="256" version="1.1" width="256" xmlns="http://www.w3.org/2000/svg" xmlns:ev="http://www.w3.org/2001/xml-events" xmlns:xlink="http://www.w3.org/1999/xlink"><defs /><path d="M1174 1108Q1174 1083 1164.5 1061.5Q1155 1040 1138.5 1023.5Q1122 1007 1100.5 997.5Q1079 988 1054 988Q1029 988 1007.5 997.5Q986 1007 969.5 1023.5Q953 1040 943.5 1061.5Q934 1083 934 1108Q934 1133 943.5 1154.5Q953 1176 969.5 1192.5Q986 1209 1007.5 1218.5Q1029 1228 1054 1228Q1079 1228 1100.5 1218.5Q1122 1209 1138.5 1192.5Q1155 1176 1164.5 1154.5Q1174 1133 1174 1108ZM1877 1108Q1877 1083 1867.5 1061.5Q1858 1040 1841.5 1023.5Q1825 1007 1803.5 997.5Q1782 988 1757 988Q1732 988 1710.5 997.5Q1689 1007 1672.5 1023.5Q1656 1040 1646.5 1061.5Q1637 1083 1637 1108Q1637 1133 1646.5 1154.5Q1656 1176 1672.5 1192.5Q1689 1209 1710.5 1218.5Q1732 1228 1757 1228Q1782 1228 1803.5 1218.5Q1825 1209 1841.5 1192.5Q1858 1176 1867.5 1154.5Q1877 1133 1877 1108Z" style="fill:#fdbb11;stroke:none" transform="scale(1,-1) translate(0,-256)" /></svg>