<?xml version="1.0" encoding="utf-8" ?>
<svg baseProfile="full" height="256" version="1.1" width="256" xmlns="http://www.w3.org/2000/svg" xmlns:ev="http://www.w3.org/2001/xml-events" xmlns:xlink="http://www.w3.org/1999/xlink"><defs /><path d="M1405 572Q1419 572 1430.5 566.0Q1442 560 1450 549Q1456 553 1470.0 563.5Q1484 574 1499.0 584.5Q1514 595 1528.0 603.5Q1542 612 1548 612Q1559 612 1566.0 605.0Q1573 598 1573 588V449Q1573 439 1565.5 432.0Q1558 425 1548 425Q1542 425 1528.0 433.5Q1514 442 1499.0 452.5Q1484 463 1470.0 473.5Q1456 484 1450 488Q1442 477 1430.5 471.0Q1419 465 1405 465Q1378 465 1362 486Q1356 482 1342.5 472.0Q1329 462 1314.0 451.5Q1299 441 1285.5 433.0Q1272 425 1266 425Q1255 425 1248.0 432.0Q1241 439 1241 449V588Q1241 598 1248.0 605.0Q1255 612 1265 612Q1272 612 1285.5 604.0Q1299 596 1314.0 585.5Q1329 575 1342.5 564.5Q1356 554 1362 550Q1378 572 1405 572ZM1407 196Q1392 196 1381.5 206.5Q1371 217 1371 232Q1371 246 1382.0 257.0Q1393 268 1407 268Q1421 268 1432.0 257.0Q1443 246 1443 232Q1443 217 1432.5 206.5Q1422 196 1407 196ZM1407 -31Q1392 -31 1381.5 -20.5Q1371 -10 1371 5Q1371 20 1381.5 30.5Q1392 41 1407 41Q1422 41 1432.5 30.5Q1443 20 1443 5Q1443 -10 1432.5 -20.5Q1422 -31 1407 -31Z" style="fill:#321b41;stroke:none" transform="scale(1,-1) translate(0,-256)" /></svg>