<?xml version="1.0" encoding="utf-8" ?>
<svg baseProfile="full" height="256" version="1.1" width="256" xmlns="http://www.w3.org/2000/svg" xmlns:ev="http://www.w3.org/2001/xml-events" xmlns:xlink="http://www.w3.org/1999/xlink"><defs /><path d="M1406 755Q1478 755 1549.5 742.0Q1621 729 1688.5 703.5Q1756 678 1818.0 640.5Q1880 603 1933 554Q1997 496 2035.0 427.0Q2073 358 2093.0 282.5Q2113 207 2119.0 126.0Q2125 45 2125 -36V-287H687V-36Q687 42 692.0 120.0Q697 198 715.0 272.0Q733 346 767.5 413.5Q802 481 862 538Q916 590 980.0 630.5Q1044 671 1113.5 698.5Q1183 726 1257.0 740.5Q1331 755 1406 755Z" style="fill:#533566;stroke:none" transform="scale(1,-1) translate(0,-256)" /></svg>