<?xml version="1.0" encoding="utf-8" ?>
<svg baseProfile="full" height="256" version="1.1" width="256" xmlns="http://www.w3.org/2000/svg" xmlns:ev="http://www.w3.org/2001/xml-events" xmlns:xlink="http://www.w3.org/1999/xlink"><defs /><path d="M1343 993Q1343 1002 1348.0 1020.5Q1353 1039 1359.0 1059.5Q1365 1080 1371.5 1099.0Q1378 1118 1381 1129Q1383 1138 1390.0 1144.0Q1397 1150 1407 1150Q1417 1150 1423.5 1144.0Q1430 1138 1432 1129Q1435 1118 1441.5 1099.0Q1448 1080 1454.0 1059.0Q1460 1038 1465.0 1019.5Q1470 1001 1470 992Q1470 977 1459.5 965.0Q1449 953 1433 953H1380Q1364 953 1353.5 965.5Q1343 978 1343 993Z" style="fill:#ed9200;stroke:none" transform="scale(1,-1) translate(0,-256)" /></svg>