<?xml version="1.0" encoding="utf-8" ?>
<svg baseProfile="full" height="256" version="1.1" width="256" xmlns="http://www.w3.org/2000/svg" xmlns:ev="http://www.w3.org/2001/xml-events" xmlns:xlink="http://www.w3.org/1999/xlink"><defs /><path d="M1406 503Q1378 503 1352.0 513.0Q1326 523 1306.0 541.0Q1286 559 1274.0 583.5Q1262 608 1262 637V802Q1262 831 1274.0 855.5Q1286 880 1306.0 897.5Q1326 915 1352.0 925.0Q1378 935 1406 935Q1434 935 1460.0 925.0Q1486 915 1506.0 897.0Q1526 879 1538.0 854.5Q1550 830 1550 801V636Q1550 607 1538.0 582.5Q1526 558 1505.5 540.5Q1485 523 1459.0 513.0Q1433 503 1406 503Z" style="fill:#fcb100;stroke:none" transform="scale(1,-1) translate(0,-256)" /></svg>