<?xml version="1.0" encoding="utf-8" ?>
<svg baseProfile="full" height="256" version="1.1" width="256" xmlns="http://www.w3.org/2000/svg" xmlns:ev="http://www.w3.org/2001/xml-events" xmlns:xlink="http://www.w3.org/1999/xlink"><defs /><path d="M1604 827V643Q1604 575 1575.5 509.5Q1547 444 1494 400Q1488 396 1484 396Q1477 396 1465.5 413.5Q1454 431 1442.0 453.5Q1430 476 1420.0 497.5Q1410 519 1406 526Q1402 518 1391.5 497.0Q1381 476 1369.0 453.5Q1357 431 1345.5 413.5Q1334 396 1327 396Q1321 396 1317 400Q1265 445 1236.5 509.5Q1208 574 1208 643V827Z" style="fill:#f4f4f4;stroke:none" transform="scale(1,-1) translate(0,-256)" /></svg>