<?xml version="1.0" encoding="utf-8" ?>
<svg baseProfile="full" height="256" version="1.1" width="256" xmlns="http://www.w3.org/2000/svg" xmlns:ev="http://www.w3.org/2001/xml-events" xmlns:xlink="http://www.w3.org/1999/xlink"><defs /><path d="M831 1725Q860 1725 882.0 1715.5Q904 1706 926 1689Q1034 1601 1149.5 1555.5Q1265 1510 1405 1510Q1477 1510 1540.0 1521.5Q1603 1533 1661.5 1555.5Q1720 1578 1775.0 1611.5Q1830 1645 1885 1689Q1907 1706 1929.5 1715.5Q1952 1725 1981 1725Q2011 1725 2037.0 1714.0Q2063 1703 2082.5 1683.5Q2102 1664 2113.5 1638.0Q2125 1612 2125 1582Q2125 1550 2112.0 1523.0Q2099 1496 2076 1474Q2010 1412 1931.0 1365.0Q1852 1318 1765.0 1286.5Q1678 1255 1586.5 1238.5Q1495 1222 1406 1222Q1317 1222 1225.5 1238.5Q1134 1255 1047.0 1286.5Q960 1318 880.0 1365.0Q800 1412 735 1474Q712 1496 699.5 1522.5Q687 1549 687 1581Q687 1611 698.5 1637.0Q710 1663 729.5 1682.5Q749 1702 775.0 1713.5Q801 1725 831 1725ZM1406 -72Q1269 -72 1150.5 -115.0Q1032 -158 929 -248Q907 -267 883.0 -277.0Q859 -287 830 -287Q800 -287 774.0 -276.0Q748 -265 728.5 -245.5Q709 -226 698.0 -200.0Q687 -174 687 -144Q687 -113 699.0 -87.0Q711 -61 733 -39Q797 25 877.0 72.5Q957 120 1044.5 152.0Q1132 184 1224.5 200.0Q1317 216 1406 216Q1495 216 1587.0 200.0Q1679 184 1767.0 152.0Q1855 120 1934.5 72.5Q2014 25 2079 -39Q2101 -61 2113.0 -87.0Q2125 -113 2125 -144Q2125 -174 2113.5 -200.0Q2102 -226 2082.5 -245.5Q2063 -265 2037.0 -276.0Q2011 -287 1981 -287Q1952 -287 1928.5 -277.0Q1905 -267 1883 -248Q1780 -158 1661.5 -115.0Q1543 -72 1406 -72ZM2412 1294Q2412 1265 2402.0 1241.5Q2392 1218 2373 1196Q2283 1093 2240.0 974.5Q2197 856 2197 719Q2197 582 2240.0 463.5Q2283 345 2373 242Q2392 220 2402.0 196.0Q2412 172 2412 143Q2412 113 2401.0 87.0Q2390 61 2370.5 41.5Q2351 22 2325.0 11.0Q2299 0 2269 0Q2238 0 2212.0 12.0Q2186 24 2164 46Q2100 110 2052.5 190.0Q2005 270 1973.0 357.5Q1941 445 1925.0 537.5Q1909 630 1909 719Q1909 808 1925.0 900.0Q1941 992 1973.0 1080.0Q2005 1168 2052.5 1247.5Q2100 1327 2164 1392Q2186 1414 2212.0 1426.0Q2238 1438 2269 1438Q2299 1438 2325.0 1426.5Q2351 1415 2370.5 1395.5Q2390 1376 2401.0 1350.0Q2412 1324 2412 1294ZM543 1438Q574 1438 600.0 1426.0Q626 1414 648 1392Q712 1327 759.5 1247.5Q807 1168 839.0 1080.0Q871 992 887.0 900.0Q903 808 903 719Q903 630 887.0 537.5Q871 445 839.0 357.5Q807 270 759.5 190.0Q712 110 648 46Q626 24 600.0 12.0Q574 0 543 0Q513 0 487.0 11.0Q461 22 441.5 41.5Q422 61 411.0 87.0Q400 113 400 143Q400 172 410.0 196.0Q420 220 439 242Q529 345 572.0 463.5Q615 582 615 719Q615 856 572.0 974.5Q529 1093 439 1196Q420 1218 410.0 1241.5Q400 1265 400 1294Q400 1324 411.0 1350.0Q422 1376 441.5 1395.5Q461 1415 487.0 1426.5Q513 1438 543 1438Z" style="fill:#f8312f;stroke:none" transform="scale(1,-1) translate(0,-256)" /></svg>