<?xml version="1.0" encoding="utf-8" ?>
<svg baseProfile="full" height="256" version="1.1" width="256" xmlns="http://www.w3.org/2000/svg" xmlns:ev="http://www.w3.org/2001/xml-events" xmlns:xlink="http://www.w3.org/1999/xlink"><defs /><path d="M749 1418Q749 1392 730.5 1373.5Q712 1355 686 1355Q660 1355 641.0 1373.5Q622 1392 622 1418Q622 1434 629 1447Q632 1453 638.5 1468.0Q645 1483 653.0 1498.0Q661 1513 669.0 1524.5Q677 1536 684 1536Q690 1536 698.5 1524.5Q707 1513 715.5 1498.0Q724 1483 731.0 1469.0Q738 1455 741 1449Q749 1435 749 1418ZM866 1536Q859 1536 851.0 1524.5Q843 1513 835.0 1498.0Q827 1483 820.5 1468.0Q814 1453 811 1447Q804 1434 804 1418Q804 1392 822.5 1373.5Q841 1355 867 1355Q893 1355 912.0 1373.5Q931 1392 931 1418Q931 1435 923 1449Q920 1455 913.0 1469.0Q906 1483 897.5 1498.0Q889 1513 880.5 1524.5Q872 1536 866 1536ZM1110 1418Q1110 1392 1091.5 1373.5Q1073 1355 1047 1355Q1021 1355 1002.5 1373.5Q984 1392 984 1418Q984 1434 991 1447Q994 1453 1000.5 1468.0Q1007 1483 1014.5 1498.0Q1022 1513 1030.5 1524.5Q1039 1536 1046 1536Q1052 1536 1060.5 1524.5Q1069 1513 1077.5 1498.0Q1086 1483 1092.5 1469.0Q1099 1455 1102 1449Q1110 1433 1110 1418ZM1583 1536Q1576 1536 1568.0 1524.5Q1560 1513 1552.0 1498.0Q1544 1483 1537.5 1468.0Q1531 1453 1528 1447Q1521 1434 1521 1418Q1521 1392 1539.5 1373.5Q1558 1355 1584 1355Q1610 1355 1629.0 1373.5Q1648 1392 1648 1418Q1648 1435 1640 1449Q1637 1455 1630.0 1469.0Q1623 1483 1614.5 1498.0Q1606 1513 1597.5 1524.5Q1589 1536 1583 1536ZM2122 1536Q2114 1536 2109 1528L2068 1447Q2061 1434 2061 1418Q2061 1392 2079.5 1373.5Q2098 1355 2124 1355Q2150 1355 2168.5 1373.5Q2187 1392 2187 1418Q2187 1433 2179 1449Q2176 1455 2169.0 1469.5Q2162 1484 2154.0 1498.5Q2146 1513 2137.5 1524.5Q2129 1536 2122 1536ZM1943 1536Q1934 1536 1929 1528L1888 1447Q1881 1434 1881 1418Q1881 1392 1899.5 1373.5Q1918 1355 1944 1355Q1970 1355 1989.0 1373.5Q2008 1392 2008 1418Q2008 1435 2000 1449Q1997 1455 1990.0 1469.0Q1983 1483 1974.5 1498.0Q1966 1513 1957.5 1524.5Q1949 1536 1943 1536ZM1468 1418Q1468 1392 1449.5 1373.5Q1431 1355 1405 1355Q1379 1355 1360.0 1373.5Q1341 1392 1341 1419Q1341 1434 1348 1447L1390 1528Q1395 1536 1403 1536Q1410 1536 1418.5 1524.5Q1427 1513 1435.0 1498.5Q1443 1484 1450.0 1469.5Q1457 1455 1460 1449Q1468 1433 1468 1418ZM1826 1418Q1826 1392 1807.0 1373.5Q1788 1355 1762 1355Q1736 1355 1717.5 1373.5Q1699 1392 1699 1418Q1699 1434 1706 1447Q1709 1453 1715.5 1468.0Q1722 1483 1730.0 1498.0Q1738 1513 1746.0 1524.5Q1754 1536 1761 1536Q1767 1536 1775.5 1524.5Q1784 1513 1792.5 1498.0Q1801 1483 1808.0 1469.0Q1815 1455 1818 1449Q1826 1435 1826 1418ZM1221 1536Q1213 1536 1208 1528L1166 1447Q1159 1434 1159 1419Q1159 1392 1178.0 1373.5Q1197 1355 1223 1355Q1249 1355 1267.5 1373.5Q1286 1392 1286 1418Q1286 1433 1278 1449Q1275 1455 1268.0 1469.5Q1261 1484 1253.0 1498.5Q1245 1513 1236.5 1524.5Q1228 1536 1221 1536ZM1604 -72Q1612 -72 1616.5 -67.0Q1621 -62 1621 -54Q1621 -21 1607.5 10.0Q1594 41 1571.5 66.5Q1549 92 1520.0 110.5Q1491 129 1460 137V419Q1562 426 1655.5 457.5Q1749 489 1829.0 541.0Q1909 593 1975.0 663.5Q2041 734 2087.0 818.0Q2133 902 2158.5 997.5Q2184 1093 2184 1195Q2184 1218 2168.5 1233.5Q2153 1249 2130 1249Q2108 1249 2092.0 1233.0Q2076 1217 2076 1195Q2076 1108 2054.5 1026.5Q2033 945 1993.5 873.0Q1954 801 1898.5 740.5Q1843 680 1774.5 634.5Q1706 589 1626.5 561.5Q1547 534 1460 527V604V605Q1574 615 1672.5 665.5Q1771 716 1843.5 795.5Q1916 875 1957.5 977.5Q1999 1080 1999 1195Q1999 1218 1983.5 1233.5Q1968 1249 1945 1249Q1922 1249 1906.5 1233.5Q1891 1218 1891 1195Q1891 1102 1858.0 1019.0Q1825 936 1767.5 871.5Q1710 807 1631.0 765.0Q1552 723 1460 713V785Q1537 795 1602.5 831.5Q1668 868 1716.0 922.5Q1764 977 1791.5 1047.0Q1819 1117 1819 1195Q1819 1218 1803.5 1233.5Q1788 1249 1765 1249Q1743 1249 1727.0 1233.0Q1711 1217 1711 1195Q1711 1140 1692.0 1089.5Q1673 1039 1639.5 999.0Q1606 959 1560.0 931.5Q1514 904 1460 894V895V968Q1499 977 1532.0 998.5Q1565 1020 1589.0 1050.0Q1613 1080 1626.5 1117.0Q1640 1154 1640 1195Q1640 1217 1624.0 1233.0Q1608 1249 1586 1249Q1564 1249 1554.0 1240.0Q1544 1231 1539.0 1216.5Q1534 1202 1531.0 1184.0Q1528 1166 1521.5 1147.5Q1515 1129 1501.0 1111.5Q1487 1094 1460 1082V1195Q1460 1218 1444.5 1233.5Q1429 1249 1406 1249Q1383 1249 1367.5 1233.5Q1352 1218 1352 1195V1082Q1325 1094 1311.0 1111.5Q1297 1129 1290.5 1147.5Q1284 1166 1281.0 1184.0Q1278 1202 1273.0 1216.5Q1268 1231 1258.0 1240.0Q1248 1249 1226 1249Q1203 1249 1187.5 1233.5Q1172 1218 1172 1195Q1172 1154 1185.5 1117.0Q1199 1080 1223.0 1050.0Q1247 1020 1280.0 998.5Q1313 977 1352 968V895V894Q1298 904 1251.5 931.5Q1205 959 1171.5 999.0Q1138 1039 1119.0 1089.0Q1100 1139 1100 1195Q1100 1217 1085.0 1233.0Q1070 1249 1047 1249Q1024 1249 1008.5 1233.5Q993 1218 993 1195Q993 1117 1020.5 1047.0Q1048 977 1096.0 922.5Q1144 868 1209.5 831.5Q1275 795 1352 785V713Q1260 723 1181.0 765.0Q1102 807 1044.0 871.5Q986 936 953.5 1019.0Q921 1102 921 1195Q921 1218 905.5 1233.5Q890 1249 867 1249Q844 1249 828.5 1233.5Q813 1218 813 1195Q813 1080 854.5 977.5Q896 875 968.5 795.5Q1041 716 1139.5 665.5Q1238 615 1352 605V604V527Q1221 537 1108.5 593.5Q996 650 913.0 740.0Q830 830 782.5 947.0Q735 1064 735 1195Q735 1217 720.0 1233.0Q705 1249 682 1249Q659 1249 643.5 1233.5Q628 1218 628 1195Q628 1093 653.5 997.5Q679 902 725.0 818.0Q771 734 837.0 663.5Q903 593 983.0 541.0Q1063 489 1156.5 457.5Q1250 426 1352 419V137Q1321 129 1292.0 110.5Q1263 92 1240.5 67.0Q1218 42 1204.5 11.0Q1191 -20 1191 -54Q1191 -62 1195.5 -67.0Q1200 -72 1208 -72Z" style="fill:#ffffff;stroke:none" transform="scale(1,-1) translate(0,-256)" /></svg>