<?xml version="1.0" encoding="utf-8" ?>
<svg baseProfile="full" height="256" version="1.1" width="256" xmlns="http://www.w3.org/2000/svg" xmlns:ev="http://www.w3.org/2001/xml-events" xmlns:xlink="http://www.w3.org/1999/xlink"><defs /><path d="M1077 1217Q1076 1225 1075.5 1233.5Q1075 1242 1075 1250Q1075 1303 1098.5 1354.0Q1122 1405 1170 1431L1262 1234Q1376 1199 1474.0 1136.5Q1572 1074 1644.0 987.5Q1716 901 1757.0 794.0Q1798 687 1798 564Q1798 509 1788.0 449.5Q1778 390 1752 341Q1726 362 1707.0 381.5Q1688 401 1674.5 422.5Q1661 444 1652.0 469.5Q1643 495 1636 528Q1634 536 1633.5 543.5Q1633 551 1631 559Q1617 638 1596.5 702.0Q1576 766 1542.0 818.5Q1508 871 1456.5 913.5Q1405 956 1330 991Q1289 1011 1248.0 1029.0Q1207 1047 1165 1065Q1144 1033 1120.5 997.5Q1097 962 1076.5 924.0Q1056 886 1043.0 846.5Q1030 807 1030 767Q1030 710 1043.0 644.5Q1056 579 1074.5 512.0Q1093 445 1113.0 379.5Q1133 314 1147 257Q1127 252 1109 252Q1065 252 1037.5 281.0Q1010 310 993.5 351.0Q977 392 969.0 437.0Q961 482 956 514Q946 577 930.5 638.0Q915 699 900 762Q896 781 896 804Q896 860 911.0 916.0Q926 972 951.0 1025.0Q976 1078 1008.5 1126.5Q1041 1175 1077 1217Z" style="fill:#3f5fff;stroke:none" transform="scale(1,-1) translate(0,-256)" /></svg>