<?xml version="1.0" encoding="utf-8" ?>
<svg baseProfile="full" height="256" version="1.1" width="256" xmlns="http://www.w3.org/2000/svg" xmlns:ev="http://www.w3.org/2001/xml-events" xmlns:xlink="http://www.w3.org/1999/xlink"><defs /><path d="M1298 1725Q1388 1725 1466.0 1699.5Q1544 1674 1608.5 1627.0Q1673 1580 1722.5 1513.5Q1772 1447 1806 1366Q1856 1245 1889.5 1102.0Q1923 959 1943.5 810.0Q1964 661 1972.5 513.5Q1981 366 1981 235Q1981 191 1976.0 148.5Q1971 106 1958 64Q1934 -14 1886.5 -78.5Q1839 -143 1775.5 -189.5Q1712 -236 1635.5 -261.5Q1559 -287 1478 -287Q1374 -287 1282.0 -247.5Q1190 -208 1122.0 -140.0Q1054 -72 1014.5 20.0Q975 112 975 216Q975 302 969.5 389.5Q964 477 949.5 563.0Q935 649 910.0 732.5Q885 816 845 894Q825 932 809.5 966.0Q794 1000 782.5 1034.5Q771 1069 765.0 1105.5Q759 1142 759 1186Q759 1298 801.5 1396.0Q844 1494 917.0 1567.0Q990 1640 1088.0 1682.5Q1186 1725 1298 1725Z" style="fill:#5092ff;stroke:none" transform="scale(1,-1) translate(0,-256)" /></svg>