<?xml version="1.0" encoding="utf-8" ?>
<svg baseProfile="full" height="256" version="1.1" width="256" xmlns="http://www.w3.org/2000/svg" xmlns:ev="http://www.w3.org/2001/xml-events" xmlns:xlink="http://www.w3.org/1999/xlink"><defs /><path d="M1406 1195Q1435 1195 1455 1175L1959 699Q1982 678 1982 647Q1982 617 1961.0 596.0Q1940 575 1910 575H902Q872 575 851.0 596.0Q830 617 830 647Q830 678 853 699L1357 1175Q1377 1195 1406 1195ZM831 396Q831 410 842.0 420.5Q853 431 867 431H1945Q1959 431 1970.0 420.5Q1981 410 1981 396V252Q1981 237 1970.5 226.5Q1960 216 1945 216H867Q852 216 841.5 226.5Q831 237 831 252Z" style="fill:#ffffff;stroke:none" transform="scale(1,-1) translate(0,-256)" /></svg>