<?xml version="1.0" encoding="utf-8" ?>
<svg baseProfile="full" height="256" version="1.1" width="256" xmlns="http://www.w3.org/2000/svg" xmlns:ev="http://www.w3.org/2001/xml-events" xmlns:xlink="http://www.w3.org/1999/xlink"><defs /><path d="M1699 1368Q1688 1368 1677.0 1367.0Q1666 1366 1655 1366Q1641 1366 1631.5 1377.0Q1622 1388 1622 1402Q1622 1417 1630.0 1425.0Q1638 1433 1650.0 1436.5Q1662 1440 1675.5 1440.0Q1689 1440 1700 1440Q1761 1440 1816.5 1424.5Q1872 1409 1918.5 1378.5Q1965 1348 1999.0 1302.5Q2033 1257 2051 1196Q2053 1190 2053 1185Q2053 1170 2042.0 1160.0Q2031 1150 2016 1150Q2004 1150 1995.0 1157.5Q1986 1165 1982 1176Q1961 1236 1929.0 1275.5Q1897 1315 1837 1341Q1805 1355 1769.5 1361.5Q1734 1368 1699 1368ZM1190 1186Q1190 1180 1189 1177Q1174 1118 1145.5 1071.5Q1117 1025 1076.5 992.5Q1036 960 984.0 943.0Q932 926 872 926Q860 926 841.0 926.5Q822 927 804.0 931.0Q786 935 772.5 944.0Q759 953 759 970Q759 985 769.5 995.5Q780 1006 795 1006Q812 1006 832.0 1002.0Q852 998 872 998Q972 998 1033.0 1048.5Q1094 1099 1120 1195Q1123 1207 1132.0 1214.5Q1141 1222 1154 1222Q1169 1222 1179.5 1211.5Q1190 1201 1190 1186ZM1011 108Q973 108 931.0 117.5Q889 127 848.0 144.5Q807 162 770.5 185.5Q734 209 708 237Q687 260 687 288Q687 317 708.0 338.5Q729 360 759 360Q787 360 810 339Q851 302 903.0 277.0Q955 252 1011 252Q1055 252 1088.0 270.5Q1121 289 1149.0 317.0Q1177 345 1203.0 377.5Q1229 410 1258.0 438.0Q1287 466 1322.5 484.5Q1358 503 1406 503Q1449 503 1482.0 492.5Q1515 482 1542.5 466.0Q1570 450 1594.5 431.5Q1619 413 1645.0 397.0Q1671 381 1699.5 370.5Q1728 360 1765 360Q1789 360 1816.0 364.0Q1843 368 1869.0 377.0Q1895 386 1918.5 400.5Q1942 415 1957 435Q1968 450 1982.5 458.5Q1997 467 2017 467Q2046 467 2067.5 446.0Q2089 425 2089 396Q2089 374 2077 356Q2054 320 2017.5 294.0Q1981 268 1938.0 250.5Q1895 233 1850.0 224.5Q1805 216 1765 216Q1692 216 1641.0 238.5Q1590 261 1550.0 288.0Q1510 315 1476.5 337.5Q1443 360 1406 360Q1385 360 1364.5 341.5Q1344 323 1320.0 295.0Q1296 267 1267.5 234.0Q1239 201 1202.0 173.0Q1165 145 1118.0 126.5Q1071 108 1011 108ZM1765 647Q1720 647 1681.0 664.0Q1642 681 1613.0 710.5Q1584 740 1567.0 779.0Q1550 818 1550 863Q1550 914 1572.5 959.5Q1595 1005 1636 1035Q1643 1036 1649.5 1036.5Q1656 1037 1662 1037Q1699 1037 1737 1026L1955 966Q1967 942 1974.0 916.0Q1981 890 1981 863Q1981 818 1964.0 779.0Q1947 740 1917.5 710.5Q1888 681 1849.0 664.0Q1810 647 1765 647ZM1047 647Q988 647 938.0 676.0Q888 705 859 756L1258 906Q1260 895 1261.0 884.5Q1262 874 1262 863Q1262 818 1245.0 779.0Q1228 740 1199.0 710.5Q1170 681 1131.0 664.0Q1092 647 1047 647Z" style="fill:#402a32;stroke:none" transform="scale(1,-1) translate(0,-256)" /></svg>