<?xml version="1.0" encoding="utf-8" ?>
<svg baseProfile="full" height="256" version="1.1" width="256" xmlns="http://www.w3.org/2000/svg" xmlns:ev="http://www.w3.org/2001/xml-events" xmlns:xlink="http://www.w3.org/1999/xlink"><defs /><path d="M1642 1036 1741 884 1949 967Q1977 960 2008.0 951.0Q2039 942 2065.0 926.5Q2091 911 2108.0 887.0Q2125 863 2125 827Q2125 760 2099.5 701.0Q2074 642 2030.0 598.0Q1986 554 1927.0 528.5Q1868 503 1801 503Q1734 503 1675.5 528.5Q1617 554 1573.0 598.0Q1529 642 1503.5 701.0Q1478 760 1478 827Q1478 869 1486.5 905.5Q1495 942 1514.5 970.0Q1534 998 1565.0 1015.5Q1596 1033 1642 1036ZM759 719Q767 665 793.5 624.5Q820 584 859.5 557.0Q899 530 947.5 516.5Q996 503 1047 503Q1130 503 1185.5 538.5Q1241 574 1274.0 630.5Q1307 687 1321.0 757.0Q1335 827 1335 897Q1335 907 1335.0 916.0Q1335 925 1334 935L1256 905L1100 747L861 757Z" style="fill:#ffffff;stroke:none" transform="scale(1,-1) translate(0,-256)" /></svg>