<?xml version="1.0" encoding="utf-8" ?>
<svg baseProfile="full" height="256" version="1.1" width="256" xmlns="http://www.w3.org/2000/svg" xmlns:ev="http://www.w3.org/2001/xml-events" xmlns:xlink="http://www.w3.org/1999/xlink"><defs /><path d="M1530 -287Q1511 -320 1477.5 -339.5Q1444 -359 1406 -359Q1368 -359 1334.5 -339.5Q1301 -320 1281 -287H508Q486 -287 466.5 -278.5Q447 -270 432.0 -255.5Q417 -241 408.5 -221.5Q400 -202 400 -180V-103Q400 -84 408.0 -54.0Q416 -24 430.5 4.0Q445 32 464.5 52.0Q484 72 508 72H2304Q2328 72 2347.5 52.0Q2367 32 2381.5 4.0Q2396 -24 2404.0 -54.0Q2412 -84 2412 -103V-179Q2412 -202 2403.5 -221.5Q2395 -241 2380.5 -255.5Q2366 -270 2346.0 -278.5Q2326 -287 2304 -287H1530Z" style="fill:#0074ba;stroke:none" transform="scale(1,-1) translate(0,-256)" /></svg>