<?xml version="1.0" encoding="utf-8" ?>
<svg baseProfile="full" height="256" version="1.1" width="256" xmlns="http://www.w3.org/2000/svg" xmlns:ev="http://www.w3.org/2001/xml-events" xmlns:xlink="http://www.w3.org/1999/xlink"><defs /><path d="M508 1150H1262V1078H1550V1150H2304Q2326 1150 2345.5 1141.5Q2365 1133 2380.0 1119.0Q2395 1105 2403.5 1085.0Q2412 1065 2412 1043V-107Q2412 -130 2403.5 -149.5Q2395 -169 2380.5 -183.5Q2366 -198 2346.0 -206.5Q2326 -215 2304 -215H1530Q1511 -248 1477.5 -267.5Q1444 -287 1406 -287Q1368 -287 1334.5 -267.5Q1301 -248 1281 -215H508Q486 -215 466.5 -206.5Q447 -198 432.0 -184.0Q417 -170 408.5 -150.5Q400 -131 400 -108V1043Q400 1065 408.5 1085.0Q417 1105 432.0 1119.0Q447 1133 466.5 1141.5Q486 1150 508 1150ZM1514 -108Q1514 -130 1505.5 -149.5Q1497 -169 1482.0 -183.5Q1467 -198 1447.5 -206.5Q1428 -215 1406 -215Q1384 -215 1364.5 -206.5Q1345 -198 1330.0 -184.0Q1315 -170 1306.5 -150.5Q1298 -131 1298 -108Q1298 -86 1306.5 -66.0Q1315 -46 1329.5 -31.5Q1344 -17 1363.5 -8.5Q1383 0 1406 0Q1428 0 1447.5 -8.5Q1467 -17 1482.0 -32.0Q1497 -47 1505.5 -66.5Q1514 -86 1514 -108Z" style="fill:#00a6ed;stroke:none" transform="scale(1,-1) translate(0,-256)" /></svg>