<?xml version="1.0" encoding="utf-8" ?>
<svg baseProfile="full" height="256" version="1.1" width="256" xmlns="http://www.w3.org/2000/svg" xmlns:ev="http://www.w3.org/2001/xml-events" xmlns:xlink="http://www.w3.org/1999/xlink"><defs /><path d="M651 1294H1226Q1263 1294 1296.0 1280.0Q1329 1266 1353.5 1241.5Q1378 1217 1392.0 1184.0Q1406 1151 1406 1114V-72Q1392 -44 1379.0 -18.0Q1366 8 1348.0 28.0Q1330 48 1305.5 60.0Q1281 72 1245 72H651Q622 72 600.5 93.5Q579 115 579 144V1222Q579 1251 600.5 1272.5Q622 1294 651 1294Z" style="fill:#f3eef8;stroke:none" transform="scale(1,-1) translate(0,-256)" /></svg>