<?xml version="1.0" encoding="utf-8" ?>
<svg baseProfile="full" height="256" version="1.1" width="256" xmlns="http://www.w3.org/2000/svg" xmlns:ev="http://www.w3.org/2001/xml-events" xmlns:xlink="http://www.w3.org/1999/xlink"><defs /><path d="M1190 1078H1622V1294H2139Q2166 1294 2190.0 1281.5Q2214 1269 2229 1246L2340 1078V36Q2340 14 2331.5 -5.5Q2323 -25 2308.5 -40.0Q2294 -55 2274.5 -63.5Q2255 -72 2233 -72H579Q557 -72 537.5 -63.5Q518 -55 503.5 -40.0Q489 -25 480.5 -5.5Q472 14 472 36V1078L583 1246Q598 1269 622.0 1281.5Q646 1294 673 1294H1190Z" style="fill:#b4acbc;stroke:none" transform="scale(1,-1) translate(0,-256)" /></svg>