<?xml version="1.0" encoding="utf-8" ?>
<svg baseProfile="full" height="256" version="1.1" width="256" xmlns="http://www.w3.org/2000/svg" xmlns:ev="http://www.w3.org/2001/xml-events" xmlns:xlink="http://www.w3.org/1999/xlink"><defs /><path d="M1981 1402Q2010 1402 2031.5 1380.5Q2053 1359 2053 1330Q2053 1301 2031.5 1279.5Q2010 1258 1981 1258Q1889 1258 1801.5 1226.5Q1714 1195 1645 1134Q1721 1099 1783.5 1044.5Q1846 990 1889.5 921.5Q1933 853 1957.0 774.0Q1981 695 1981 611Q1981 492 1935.5 387.5Q1890 283 1812.0 205.0Q1734 127 1629.5 81.5Q1525 36 1406 36Q1287 36 1182.5 81.5Q1078 127 1000.0 205.0Q922 283 876.5 387.5Q831 492 831 611Q831 695 855.0 774.0Q879 853 922.5 921.5Q966 990 1028.0 1044.5Q1090 1099 1167 1134Q1098 1195 1010.5 1226.5Q923 1258 831 1258Q801 1258 780.0 1279.0Q759 1300 759 1330Q759 1359 780.5 1380.5Q802 1402 831 1402Q897 1402 953.5 1391.5Q1010 1381 1061.5 1360.0Q1113 1339 1162.5 1309.0Q1212 1279 1263 1240Q1296 1214 1329.5 1200.0Q1363 1186 1406 1186Q1448 1186 1482.5 1200.5Q1517 1215 1549 1240Q1601 1279 1650.0 1309.0Q1699 1339 1750.5 1360.0Q1802 1381 1858.5 1391.5Q1915 1402 1981 1402ZM1837 611Q1837 700 1803.0 778.5Q1769 857 1710.5 915.5Q1652 974 1573.5 1008.0Q1495 1042 1406 1042Q1317 1042 1238.5 1008.0Q1160 974 1101.5 915.5Q1043 857 1009.0 778.5Q975 700 975 611Q975 522 1009.0 443.5Q1043 365 1101.5 306.5Q1160 248 1238.5 214.0Q1317 180 1406 180Q1495 180 1573.5 214.0Q1652 248 1710.5 306.5Q1769 365 1803.0 443.5Q1837 522 1837 611Z" style="fill:#ffffff;stroke:none" transform="scale(1,-1) translate(0,-256)" /></svg>