<?xml version="1.0" encoding="utf-8" ?>
<svg baseProfile="full" height="256" version="1.1" width="256" xmlns="http://www.w3.org/2000/svg" xmlns:ev="http://www.w3.org/2001/xml-events" xmlns:xlink="http://www.w3.org/1999/xlink"><defs /><path d="M1966 979Q1966 886 1942.0 800.0Q1918 714 1874.0 639.0Q1830 564 1768.5 502.5Q1707 441 1632.0 397.0Q1557 353 1471.0 329.0Q1385 305 1292 305Q1152 305 1029.5 358.0Q907 411 815.0 502.5Q723 594 670.0 716.5Q617 839 617 979Q617 1072 641.0 1158.0Q665 1244 709.0 1319.0Q753 1394 815.0 1455.5Q877 1517 952.0 1561.0Q1027 1605 1113.0 1629.0Q1199 1653 1292 1653Q1386 1653 1474.5 1628.0Q1563 1603 1640.0 1556.0Q1717 1509 1780.5 1442.5Q1844 1376 1888 1293Q1894 1294 1899.5 1294.0Q1905 1294 1911 1294Q2000 1294 2078.0 1260.0Q2156 1226 2214.5 1167.5Q2273 1109 2306.5 1031.0Q2340 953 2340 864Q2340 780 2310.0 705.5Q2280 631 2227.0 573.0Q2174 515 2102.0 479.0Q2030 443 1946 436Q1965 510 1966 584Q2016 594 2058.5 620.0Q2101 646 2131.5 683.0Q2162 720 2179.5 766.5Q2197 813 2197 864Q2197 918 2177.5 967.0Q2158 1016 2124.5 1054.0Q2091 1092 2044.5 1117.0Q1998 1142 1944 1148Q1955 1106 1960.5 1064.0Q1966 1022 1966 979Z" style="fill:#f4f4f4;stroke:none" transform="scale(1,-1) translate(0,-256)" /></svg>