<?xml version="1.0" encoding="utf-8" ?>
<svg baseProfile="full" height="256" version="1.1" width="256" xmlns="http://www.w3.org/2000/svg" xmlns:ev="http://www.w3.org/2001/xml-events" xmlns:xlink="http://www.w3.org/1999/xlink"><defs /><path d="M1967 979V602Q1967 597 1966.5 592.5Q1966 588 1966 583Q1966 575 1972.5 565.0Q1979 555 1988.0 544.5Q1997 534 2006.5 525.0Q2016 516 2022 511L1946 437Q1917 325 1855.0 231.5Q1793 138 1706.0 70.5Q1619 3 1513.0 -34.5Q1407 -72 1292 -72Q1199 -72 1113.0 -48.0Q1027 -24 952.0 20.0Q877 64 815.5 125.5Q754 187 710.0 262.0Q666 337 642.0 423.0Q618 509 618 602V979H790Q887 1087 1017.0 1145.5Q1147 1204 1292 1204Q1437 1204 1567.0 1145.5Q1697 1087 1794 979Z" style="fill:#e6e6e6;stroke:none" transform="scale(1,-1) translate(0,-256)" /></svg>