<?xml version="1.0" encoding="utf-8" ?>
<svg baseProfile="full" height="256" version="1.1" width="256" xmlns="http://www.w3.org/2000/svg" xmlns:ev="http://www.w3.org/2001/xml-events" xmlns:xlink="http://www.w3.org/1999/xlink"><defs /><path d="M1292 383Q1169 383 1060.5 430.0Q952 477 871.0 558.0Q790 639 743.0 747.5Q696 856 696 979Q696 1067 730.5 1142.5Q765 1218 822.0 1279.5Q879 1341 952.0 1387.5Q1025 1434 1101 1463Q1146 1480 1195.0 1491.5Q1244 1503 1292 1503Q1361 1503 1432.0 1484.5Q1503 1466 1569.5 1432.5Q1636 1399 1694.0 1352.0Q1752 1305 1795.0 1246.5Q1838 1188 1863.0 1120.5Q1888 1053 1888 979Q1888 856 1841.0 747.5Q1794 639 1713.0 558.0Q1632 477 1523.5 430.0Q1415 383 1292 383Z" style="fill:#7d4533;stroke:none" transform="scale(1,-1) translate(0,-256)" /></svg>