<?xml version="1.0" encoding="utf-8" ?>
<svg baseProfile="full" height="256" version="1.1" width="256" xmlns="http://www.w3.org/2000/svg" xmlns:ev="http://www.w3.org/2001/xml-events" xmlns:xlink="http://www.w3.org/1999/xlink"><defs /><path d="M697 937Q696 948 696.0 958.0Q696 968 696 979Q696 1102 743.0 1210.5Q790 1319 871.0 1400.0Q952 1481 1060.5 1528.0Q1169 1575 1292 1575Q1415 1575 1523.5 1528.0Q1632 1481 1713.0 1400.0Q1794 1319 1841.0 1210.5Q1888 1102 1888 979Q1888 968 1887.5 958.0Q1887 948 1886 937Q1881 987 1863.0 1033.5Q1845 1080 1819 1122Q1778 1189 1720.5 1245.5Q1663 1302 1594.5 1343.5Q1526 1385 1449.0 1408.0Q1372 1431 1292 1431Q1212 1431 1135.0 1408.5Q1058 1386 989.5 1345.0Q921 1304 863.0 1247.5Q805 1191 764 1124Q738 1081 720.0 1034.0Q702 987 697 937Z" style="fill:#9b9b9b;stroke:none" transform="scale(1,-1) translate(0,-256)" /></svg>