<?xml version="1.0" encoding="utf-8" ?>
<svg baseProfile="full" height="256" version="1.1" width="256" xmlns="http://www.w3.org/2000/svg" xmlns:ev="http://www.w3.org/2001/xml-events" xmlns:xlink="http://www.w3.org/1999/xlink"><defs /><path d="M459 719Q459 747 470.0 774.0Q481 801 501 821L1315 1634Q1335 1654 1361.5 1665.0Q1388 1676 1416 1676Q1445 1676 1471.5 1665.0Q1498 1654 1518 1634L2331 821Q2351 801 2362.0 774.0Q2373 747 2373 719Q2373 690 2362.0 663.5Q2351 637 2331 617L1518 -196Q1498 -216 1471.5 -227.0Q1445 -238 1416 -238Q1388 -238 1361.5 -227.0Q1335 -216 1315 -196L501 617Q481 637 470.0 663.5Q459 690 459 719Z" style="fill:#0074ba;stroke:none" transform="scale(1,-1) translate(0,-256)" /></svg>