<?xml version="1.0" encoding="utf-8" ?>
<svg baseProfile="full" height="256" version="1.1" width="256" xmlns="http://www.w3.org/2000/svg" xmlns:ev="http://www.w3.org/2001/xml-events" xmlns:xlink="http://www.w3.org/1999/xlink"><defs /><path d="M1067 1496Q1067 1520 1079.0 1540.0Q1091 1560 1111 1572L1338 1706Q1371 1725 1406 1725Q1442 1725 1475 1706L1702 1572Q1722 1560 1733.5 1539.5Q1745 1519 1745 1496Q1745 1473 1733.5 1452.5Q1722 1432 1702 1420L1475 1286Q1442 1267 1406 1267Q1371 1267 1338 1286L1111 1420Q1091 1432 1079.0 1452.5Q1067 1473 1067 1496Z" style="fill:#fcd53f;stroke:none" transform="scale(1,-1) translate(0,-256)" /></svg>