<?xml version="1.0" encoding="utf-8" ?>
<svg baseProfile="full" height="256" version="1.1" width="256" xmlns="http://www.w3.org/2000/svg" xmlns:ev="http://www.w3.org/2001/xml-events" xmlns:xlink="http://www.w3.org/1999/xlink"><defs /><path d="M1017 1257H1795Q1795 1257 1828.5 1247.5Q1862 1238 1912.0 1223.5Q1962 1209 2021.0 1192.0Q2080 1175 2132.0 1159.5Q2184 1144 2222.0 1133.0Q2260 1122 2268 1120V936Q2268 822 2216 721L2268 706V522Q2268 424 2231.0 338.0Q2194 252 2129.5 187.5Q2065 123 1979.0 86.0Q1893 49 1795 49H1017Q919 49 833.0 86.0Q747 123 682.5 187.5Q618 252 581.0 338.0Q544 424 544 522V706L596 721Q544 822 544 936V1120Q552 1122 590.0 1133.0Q628 1144 680.0 1159.5Q732 1175 791.0 1192.0Q850 1209 900.0 1223.5Q950 1238 983.0 1247.5Q1016 1257 1017 1257Z" style="fill:#f9c23c;stroke:none" transform="scale(1,-1) translate(0,-256)" /></svg>