<?xml version="1.0" encoding="utf-8" ?>
<svg baseProfile="full" height="256" version="1.1" width="256" xmlns="http://www.w3.org/2000/svg" xmlns:ev="http://www.w3.org/2001/xml-events" xmlns:xlink="http://www.w3.org/1999/xlink"><defs /><path d="M1791 1002Q1920 1002 2033.5 953.0Q2147 904 2231.0 819.5Q2315 735 2363.5 621.5Q2412 508 2412 379Q2412 293 2390.0 213.5Q2368 134 2327.5 65.0Q2287 -4 2230.0 -61.0Q2173 -118 2104.0 -158.5Q2035 -199 1955.5 -221.0Q1876 -243 1790 -243H1022Q936 -243 856.5 -221.0Q777 -199 708.0 -158.5Q639 -118 582.0 -61.0Q525 -4 484.5 65.0Q444 134 422.0 213.5Q400 293 400 379Q400 465 422.0 544.5Q444 624 484.5 693.5Q525 763 582.0 819.5Q639 876 708.0 916.5Q777 957 856.5 979.5Q936 1002 1022 1002H1791Z" style="fill:#d3d3d3;stroke:none" transform="scale(1,-1) translate(0,-256)" /></svg>