<?xml version="1.0" encoding="utf-8" ?>
<svg baseProfile="full" height="256" version="1.1" width="256" xmlns="http://www.w3.org/2000/svg" xmlns:ev="http://www.w3.org/2001/xml-events" xmlns:xlink="http://www.w3.org/1999/xlink"><defs /><path d="M1017 1623H1795Q1893 1623 1979.0 1586.0Q2065 1549 2129.5 1484.5Q2194 1420 2231.0 1334.0Q2268 1248 2268 1150Q2268 1052 2231.0 966.0Q2194 880 2129.5 815.5Q2065 751 1979.0 714.0Q1893 677 1795 677H1017Q919 677 833.0 714.0Q747 751 682.5 815.5Q618 880 581.0 966.0Q544 1052 544 1150Q544 1248 581.0 1334.0Q618 1420 682.5 1484.5Q747 1549 833.0 1586.0Q919 1623 1017 1623ZM1017 463Q934 463 858.0 491.0Q782 519 720.5 568.5Q659 618 616.0 686.5Q573 755 555 836Q544 784 544 735Q544 637 581.0 551.0Q618 465 682.5 400.5Q747 336 833.0 299.0Q919 262 1017 262H1795Q1893 262 1979.0 299.0Q2065 336 2129.5 400.5Q2194 465 2231.0 551.0Q2268 637 2268 735Q2268 784 2257 836Q2239 755 2196.0 686.5Q2153 618 2091.5 568.5Q2030 519 1954.0 491.0Q1878 463 1795 463Z" style="fill:#d3883e;stroke:none" transform="scale(1,-1) translate(0,-256)" /></svg>