<?xml version="1.0" encoding="utf-8" ?>
<svg baseProfile="full" height="256" version="1.1" width="256" xmlns="http://www.w3.org/2000/svg" xmlns:ev="http://www.w3.org/2001/xml-events" xmlns:xlink="http://www.w3.org/1999/xlink"><defs /><path d="M1745 1501V1350Q1745 1327 1733.5 1307.0Q1722 1287 1702 1275L1475 1141Q1459 1132 1442.0 1126.5Q1425 1121 1406 1121Q1388 1121 1371.0 1126.5Q1354 1132 1338 1141L1111 1275Q1091 1287 1079.5 1307.0Q1068 1327 1068 1350V1501H1306Q1319 1509 1330.5 1516.0Q1342 1523 1353.5 1528.5Q1365 1534 1377.5 1537.0Q1390 1540 1406 1540Q1437 1540 1459.0 1528.5Q1481 1517 1507 1501Z" style="fill:#f9c23c;stroke:none" transform="scale(1,-1) translate(0,-256)" /></svg>