<?xml version="1.0" encoding="utf-8" ?>
<svg baseProfile="full" height="256" version="1.1" width="256" xmlns="http://www.w3.org/2000/svg" xmlns:ev="http://www.w3.org/2001/xml-events" xmlns:xlink="http://www.w3.org/1999/xlink"><defs /><path d="M1653 1423Q1708 1423 1756.5 1402.0Q1805 1381 1841.5 1345.0Q1878 1309 1899.0 1260.5Q1920 1212 1920 1157Q1920 1108 1905.5 1067.5Q1891 1027 1864.5 994.5Q1838 962 1801.5 938.5Q1765 915 1721 900Q1695 892 1679.5 872.0Q1664 852 1664 824V692Q1664 672 1656.5 655.5Q1649 639 1636.0 626.5Q1623 614 1606.0 607.0Q1589 600 1570 600Q1550 600 1533.5 608.0Q1517 616 1505.0 629.0Q1493 642 1486.0 659.0Q1479 676 1479 695V814Q1479 846 1456.0 869.0Q1433 892 1401 892Q1369 892 1346.5 869.0Q1324 846 1324 814V406Q1324 386 1316.5 369.5Q1309 353 1296.0 340.5Q1283 328 1265.5 321.0Q1248 314 1229 314Q1210 314 1193.5 322.0Q1177 330 1165.0 343.5Q1153 357 1146.0 374.5Q1139 392 1139 410V828Q1139 856 1123.5 875.0Q1108 894 1083 903Q998 934 946.0 999.0Q894 1064 894 1158Q894 1213 915.0 1261.0Q936 1309 972.0 1345.0Q1008 1381 1056.0 1402.0Q1104 1423 1159 1423H1653Z" style="fill:#6d4534;stroke:none" transform="scale(1,-1) translate(0,-256)" /></svg>