<?xml version="1.0" encoding="utf-8" ?>
<svg baseProfile="full" height="256" version="1.1" width="256" xmlns="http://www.w3.org/2000/svg" xmlns:ev="http://www.w3.org/2001/xml-events" xmlns:xlink="http://www.w3.org/1999/xlink"><defs /><path d="M1165 -77Q1059 -77 961.0 -49.5Q863 -22 778.0 27.5Q693 77 623.0 147.0Q553 217 503.5 302.0Q454 387 426.5 485.0Q399 583 399 689Q399 842 456.5 981.5Q514 1121 623 1230Q724 1331 845.0 1385.0Q966 1439 1106 1456Q1143 1460 1175.5 1468.5Q1208 1477 1237.5 1490.5Q1267 1504 1294.5 1523.5Q1322 1543 1349 1569Q1427 1644 1513.0 1684.5Q1599 1725 1709 1725Q1811 1725 1900.5 1686.5Q1990 1648 2056.5 1582.0Q2123 1516 2161.5 1426.5Q2200 1337 2200 1235Q2200 1124 2159.5 1038.5Q2119 953 2044 875Q1993 823 1966.0 763.5Q1939 704 1931 632Q1915 491 1861.5 370.0Q1808 249 1707 147Q1653 93 1590.0 51.0Q1527 9 1458.0 -19.5Q1389 -48 1315.0 -62.5Q1241 -77 1165 -77ZM1561 1215Q1561 1189 1570.5 1167.0Q1580 1145 1597.0 1128.0Q1614 1111 1636.0 1101.5Q1658 1092 1684 1092Q1710 1092 1732.5 1101.5Q1755 1111 1772.0 1128.0Q1789 1145 1798.5 1167.0Q1808 1189 1808 1215Q1808 1240 1798.5 1262.5Q1789 1285 1772.0 1302.0Q1755 1319 1732.5 1328.5Q1710 1338 1684 1338Q1658 1338 1636.0 1328.5Q1614 1319 1597.0 1302.0Q1580 1285 1570.5 1262.5Q1561 1240 1561 1215Z" style="fill:#f4f4f4;stroke:none" transform="scale(1,-1) translate(0,-256)" /></svg>