<?xml version="1.0" encoding="utf-8" ?>
<svg baseProfile="full" height="256" version="1.1" width="256" xmlns="http://www.w3.org/2000/svg" xmlns:ev="http://www.w3.org/2001/xml-events" xmlns:xlink="http://www.w3.org/1999/xlink"><defs /><path d="M777 1172Q777 1190 785.0 1208.0Q793 1226 808 1237Q837 1259 875.0 1277.5Q913 1296 954.5 1309.5Q996 1323 1038.0 1332.0Q1080 1341 1116 1344Q1207 1353 1285.5 1388.5Q1364 1424 1429 1489Q1489 1548 1558.0 1579.5Q1627 1611 1712 1611Q1788 1611 1856.0 1582.0Q1924 1553 1976.0 1502.5Q2028 1452 2058.5 1384.5Q2089 1317 2089 1240Q2089 1152 2058.0 1084.0Q2027 1016 1965 954Q1836 823 1819 641Q1816 605 1807.0 563.0Q1798 521 1784.5 479.5Q1771 438 1753.0 399.5Q1735 361 1712 332Q1701 318 1684.0 310.5Q1667 303 1650 303Q1625 303 1605.5 316.0Q1586 329 1575 351L1407 703Q1407 704 1406.5 704.0Q1406 704 1406 705Q1388 742 1388 786Q1388 817 1396.5 841.0Q1405 865 1419.0 885.5Q1433 906 1452.0 924.5Q1471 943 1492 964Q1511 982 1535.0 992.5Q1559 1003 1585 1003Q1611 1003 1635.5 995.0Q1660 987 1687 987Q1733 987 1773.5 1005.0Q1814 1023 1844.5 1053.5Q1875 1084 1892.5 1125.0Q1910 1166 1910 1212Q1910 1258 1892.5 1299.0Q1875 1340 1844.5 1370.0Q1814 1400 1773.0 1417.5Q1732 1435 1686 1435Q1639 1435 1598.5 1417.5Q1558 1400 1528.0 1369.0Q1498 1338 1480.5 1297.0Q1463 1256 1463 1210Q1463 1184 1470.5 1159.5Q1478 1135 1478 1109Q1478 1083 1467.5 1059.0Q1457 1035 1439 1017Q1418 996 1399.0 976.5Q1380 957 1359.5 942.5Q1339 928 1315.0 919.5Q1291 911 1259 911Q1239 911 1219.0 916.0Q1199 921 1180 929Q1180 930 1178 930L824 1097Q802 1108 789.5 1127.5Q777 1147 777 1172ZM680 1074Q697 1074 715 1066L1147 864Q1210 835 1260.5 785.5Q1311 736 1340 673L1545 243Q1553 225 1553 208Q1553 185 1542.5 167.5Q1532 150 1514 137Q1469 106 1409.5 83.0Q1350 60 1297 49Q1265 42 1231.5 39.0Q1198 36 1165 36Q1030 36 910.5 87.0Q791 138 702.5 226.5Q614 315 562.5 434.0Q511 553 511 688Q511 730 517.5 777.0Q524 824 536.5 870.5Q549 917 568.0 960.0Q587 1003 612 1038Q637 1074 680 1074Z" style="fill:#f8312f;stroke:none" transform="scale(1,-1) translate(0,-256)" /></svg>