<?xml version="1.0" encoding="utf-8" ?>
<svg baseProfile="full" height="256" version="1.1" width="256" xmlns="http://www.w3.org/2000/svg" xmlns:ev="http://www.w3.org/2001/xml-events" xmlns:xlink="http://www.w3.org/1999/xlink"><defs /><path d="M1375 -287Q1221 -287 1082.0 -229.5Q943 -172 834 -63L608 163L723 277Q717 325 717 373Q717 527 771.0 659.5Q825 792 920.0 893.5Q1015 995 1144.5 1059.0Q1274 1123 1424 1139L1441 1141Q1430 1179 1430 1215Q1430 1268 1450.0 1314.0Q1470 1360 1504.5 1394.5Q1539 1429 1585.5 1449.0Q1632 1469 1685 1469Q1731 1469 1774.0 1453.0Q1817 1437 1852 1407L2042 1597L2268 1370Q2337 1300 2374.0 1211.0Q2411 1122 2411 1023Q2411 913 2370.5 827.0Q2330 741 2255 663Q2204 611 2177.0 551.5Q2150 492 2142 420Q2131 320 2098.5 228.5Q2066 137 2015.0 58.5Q1964 -20 1896.0 -83.5Q1828 -147 1746.0 -192.5Q1664 -238 1570.5 -262.5Q1477 -287 1375 -287Z" style="fill:#fbb8ab;stroke:none" transform="scale(1,-1) translate(0,-256)" /></svg>