<?xml version="1.0" encoding="utf-8" ?>
<svg baseProfile="full" height="256" version="1.1" width="256" xmlns="http://www.w3.org/2000/svg" xmlns:ev="http://www.w3.org/2001/xml-events" xmlns:xlink="http://www.w3.org/1999/xlink"><defs /><path d="M1090 1636Q1090 1613 1086.0 1588.5Q1082 1564 1071.5 1544.5Q1061 1525 1042.5 1512.5Q1024 1500 996 1500Q958 1500 931.5 1526.0Q905 1552 905 1590Q905 1614 909.0 1638.0Q913 1662 923.5 1681.5Q934 1701 953.0 1713.0Q972 1725 1001 1725Q1019 1725 1035.0 1718.0Q1051 1711 1063.5 1698.5Q1076 1686 1083.0 1670.0Q1090 1654 1090 1636ZM1367 1597Q1367 1622 1357.5 1644.5Q1348 1667 1331.5 1684.0Q1315 1701 1292.5 1710.5Q1270 1720 1244 1720Q1222 1720 1202.0 1712.5Q1182 1705 1166.0 1691.5Q1150 1678 1138.5 1660.0Q1127 1642 1123 1620L1112 1559Q1111 1553 1110.0 1546.5Q1109 1540 1109 1534Q1109 1508 1119.0 1486.0Q1129 1464 1145.5 1447.5Q1162 1431 1184.5 1421.5Q1207 1412 1233 1412Q1254 1412 1274.0 1419.5Q1294 1427 1310.5 1440.5Q1327 1454 1338.5 1472.5Q1350 1491 1354 1512L1365 1573Q1366 1579 1366.5 1585.0Q1367 1591 1367 1597ZM1238 1228Q1238 1286 1221.0 1327.0Q1204 1368 1175.0 1395.5Q1146 1423 1107.5 1438.5Q1069 1454 1025.0 1462.0Q981 1470 934.0 1472.0Q887 1474 842 1474Q777 1474 707.5 1468.5Q638 1463 580.0 1440.0Q522 1417 485.0 1369.0Q448 1321 448 1236V437Q448 371 473.5 312.0Q499 253 542.5 208.5Q586 164 644.5 138.5Q703 113 770 113Q837 113 896.0 138.0Q955 163 999.0 206.5Q1043 250 1069.0 309.0Q1095 368 1095 435Q1095 488 1082.0 524.5Q1069 561 1053.0 592.0Q1037 623 1024.0 655.0Q1011 687 1011 732Q1011 786 1033.0 836.0Q1055 886 1094 922Q1163 985 1200.5 1059.0Q1238 1133 1238 1228ZM879 1622Q879 1656 855.5 1680.0Q832 1704 798 1704Q764 1704 740.5 1680.0Q717 1656 717 1622V1581Q717 1548 741.0 1524.0Q765 1500 798 1500Q831 1500 855.0 1524.0Q879 1548 879 1581ZM615 1664Q639 1664 654.0 1653.5Q669 1643 677.5 1627.0Q686 1611 689.5 1591.0Q693 1571 693 1552Q693 1521 671.0 1499.5Q649 1478 618 1478Q595 1478 580.0 1488.0Q565 1498 556.5 1514.0Q548 1530 544.5 1550.0Q541 1570 541 1589Q541 1620 562.0 1642.0Q583 1664 615 1664ZM399 1514Q399 1498 403.0 1481.0Q407 1464 416.0 1450.5Q425 1437 438.0 1428.5Q451 1420 469 1420Q495 1420 514.0 1438.0Q533 1456 533 1482Q533 1498 529.0 1515.0Q525 1532 516.0 1545.5Q507 1559 493.5 1568.0Q480 1577 462 1577Q436 1577 417.5 1558.5Q399 1540 399 1514ZM1822 1149Q1793 1149 1774.0 1161.0Q1755 1173 1744.0 1192.0Q1733 1211 1729.0 1235.5Q1725 1260 1725 1284Q1725 1302 1732.0 1318.0Q1739 1334 1751.5 1346.5Q1764 1359 1780.0 1366.0Q1796 1373 1814 1373Q1843 1373 1861.5 1361.0Q1880 1349 1891.0 1330.0Q1902 1311 1906.0 1287.5Q1910 1264 1910 1240Q1910 1203 1884.5 1176.0Q1859 1149 1822 1149ZM1583 1060Q1609 1060 1631.5 1069.5Q1654 1079 1671.0 1096.0Q1688 1113 1697.5 1135.0Q1707 1157 1707 1183Q1707 1204 1702.0 1225.5Q1697 1247 1693 1267Q1684 1311 1650.5 1339.0Q1617 1367 1572 1367Q1546 1367 1523.5 1357.5Q1501 1348 1484.5 1331.0Q1468 1314 1458.5 1291.5Q1449 1269 1449 1244Q1449 1223 1454.0 1201.5Q1459 1180 1463 1160Q1472 1116 1505.0 1088.0Q1538 1060 1583 1060ZM1578 876Q1578 934 1595.0 974.5Q1612 1015 1640.5 1042.5Q1669 1070 1708.0 1085.5Q1747 1101 1790.5 1109.0Q1834 1117 1881.0 1119.0Q1928 1121 1973 1121Q2016 1121 2062.0 1119.0Q2108 1117 2152.0 1110.0Q2196 1103 2235.0 1088.0Q2274 1073 2303.5 1046.5Q2333 1020 2350.5 980.5Q2368 941 2368 884V84Q2368 17 2342.5 -41.5Q2317 -100 2273.0 -144.0Q2229 -188 2170.5 -213.5Q2112 -239 2045 -239Q1978 -239 1919.0 -213.5Q1860 -188 1816.0 -144.0Q1772 -100 1746.5 -41.5Q1721 17 1721 84Q1721 136 1734.0 172.0Q1747 208 1763.0 239.0Q1779 270 1792.0 302.5Q1805 335 1805 381Q1805 434 1783.5 483.5Q1762 533 1723 569Q1654 633 1616.0 706.0Q1578 779 1578 876ZM1937 1229Q1937 1196 1961.0 1171.5Q1985 1147 2018 1147Q2052 1147 2076.0 1171.0Q2100 1195 2100 1229V1270Q2100 1303 2075.5 1327.0Q2051 1351 2018 1351Q1985 1351 1961.0 1327.0Q1937 1303 1937 1270ZM2123 1201Q2123 1220 2126.0 1240.0Q2129 1260 2137.5 1276.0Q2146 1292 2161.0 1302.5Q2176 1313 2200 1313Q2231 1313 2253.0 1291.5Q2275 1270 2275 1239Q2275 1220 2271.5 1200.0Q2268 1180 2259.5 1164.0Q2251 1148 2236.0 1137.5Q2221 1127 2197 1127Q2166 1127 2144.5 1148.0Q2123 1169 2123 1201ZM2346 1068Q2364 1068 2377.5 1076.5Q2391 1085 2400.0 1098.5Q2409 1112 2413.0 1129.0Q2417 1146 2417 1162Q2417 1189 2397.5 1207.0Q2378 1225 2352 1225Q2334 1225 2320.5 1216.0Q2307 1207 2299.0 1193.5Q2291 1180 2287.0 1163.5Q2283 1147 2283 1131Q2283 1105 2301.5 1086.5Q2320 1068 2346 1068Z" style="fill:#635994;stroke:none" transform="scale(1,-1) translate(0,-256)" /></svg>