<?xml version="1.0" encoding="utf-8" ?>
<svg baseProfile="full" height="256" version="1.1" width="256" xmlns="http://www.w3.org/2000/svg" xmlns:ev="http://www.w3.org/2001/xml-events" xmlns:xlink="http://www.w3.org/1999/xlink"><defs /><path d="M1334 1147Q1334 1067 1303.0 992.0Q1272 917 1212 863Q1185 873 1164.0 878.5Q1143 884 1124.5 891.5Q1106 899 1087.5 910.5Q1069 922 1047 945Q1023 932 996.0 918.5Q969 905 943 899Q908 891 875.0 883.0Q842 875 809 863Q749 917 718.0 992.0Q687 1067 687 1147Q687 1215 710.5 1280.5Q734 1346 776.5 1397.0Q819 1448 878.5 1479.0Q938 1510 1011 1510Q1084 1510 1143.5 1479.0Q1203 1448 1245.5 1397.0Q1288 1346 1311.0 1280.5Q1334 1215 1334 1147ZM2125 1147Q2125 1067 2094.0 992.0Q2063 917 2003 863Q1969 876 1936.0 883.5Q1903 891 1868 899Q1842 905 1815.5 919.0Q1789 933 1765 945Q1743 922 1724.5 910.5Q1706 899 1687.5 891.5Q1669 884 1648.0 878.5Q1627 873 1600 863Q1540 917 1509.0 992.0Q1478 1067 1478 1147Q1478 1215 1501.0 1280.5Q1524 1346 1566.5 1397.0Q1609 1448 1668.5 1479.0Q1728 1510 1801 1510Q1874 1510 1933.5 1479.0Q1993 1448 2035.5 1397.0Q2078 1346 2101.5 1280.5Q2125 1215 2125 1147Z" style="fill:#ffffff;stroke:none" transform="scale(1,-1) translate(0,-256)" /></svg>