<?xml version="1.0" encoding="utf-8" ?>
<svg baseProfile="full" height="256" version="1.1" width="256" xmlns="http://www.w3.org/2000/svg" xmlns:ev="http://www.w3.org/2001/xml-events" xmlns:xlink="http://www.w3.org/1999/xlink"><defs /><path d="M1262 1114Q1262 1079 1253.5 1045.0Q1245 1011 1229.0 980.5Q1213 950 1188.5 925.0Q1164 900 1133 884Q1103 891 1072.5 895.0Q1042 899 1011 899Q994 899 977.0 897.5Q960 896 943 894Q915 911 894.0 935.5Q873 960 859.0 989.0Q845 1018 838.0 1050.0Q831 1082 831 1114Q831 1160 846.0 1205.0Q861 1250 889.0 1286.0Q917 1322 957.0 1344.0Q997 1366 1047 1366Q1097 1366 1137.0 1344.0Q1177 1322 1204.5 1286.0Q1232 1250 1247.0 1205.0Q1262 1160 1262 1114ZM1981 1114Q1981 1082 1974.0 1050.0Q1967 1018 1953.0 989.0Q1939 960 1918.0 935.5Q1897 911 1869 894Q1852 896 1835.0 897.5Q1818 899 1801 899Q1770 899 1739.5 895.0Q1709 891 1679 884Q1647 900 1623.0 925.0Q1599 950 1583.0 980.5Q1567 1011 1558.5 1045.0Q1550 1079 1550 1114Q1550 1160 1565.0 1205.0Q1580 1250 1607.5 1286.0Q1635 1322 1675.0 1344.0Q1715 1366 1765 1366Q1815 1366 1855.0 1344.0Q1895 1322 1923.0 1286.0Q1951 1250 1966.0 1205.0Q1981 1160 1981 1114Z" style="fill:#402a32;stroke:none" transform="scale(1,-1) translate(0,-256)" /></svg>