<?xml version="1.0" encoding="utf-8" ?>
<svg baseProfile="full" height="256" version="1.1" width="256" xmlns="http://www.w3.org/2000/svg" xmlns:ev="http://www.w3.org/2001/xml-events" xmlns:xlink="http://www.w3.org/1999/xlink"><defs /><path d="M423 275Q401 360 400.0 449.5Q399 539 422.0 626.5Q445 714 493.0 797.0Q541 880 616 952L1305 1613Q1326 1633 1352.0 1643.0Q1378 1653 1405.5 1653.0Q1433 1653 1459.5 1643.0Q1486 1633 1507 1613L2196 952Q2271 880 2319.0 797.0Q2367 714 2390.0 626.5Q2413 539 2412.0 449.5Q2411 360 2389 275Z" style="fill:#6d4534;stroke:none" transform="scale(1,-1) translate(0,-256)" /></svg>