<?xml version="1.0" encoding="utf-8" ?>
<svg baseProfile="full" height="256" version="1.1" width="256" xmlns="http://www.w3.org/2000/svg" xmlns:ev="http://www.w3.org/2001/xml-events" xmlns:xlink="http://www.w3.org/1999/xlink"><defs /><path d="M615 647Q621 711 640.5 772.5Q660 834 692.0 889.0Q724 944 767.5 990.5Q811 1037 867 1071Q926 1106 992.0 1128.0Q1058 1150 1127 1150Q1161 1150 1197.0 1143.5Q1233 1137 1266.5 1123.0Q1300 1109 1329.5 1088.0Q1359 1067 1380 1039Q1391 1024 1398.5 1007.0Q1406 990 1406 971ZM1406 971Q1406 990 1413.5 1007.0Q1421 1024 1432 1039Q1453 1067 1482.0 1088.0Q1511 1109 1545.0 1123.0Q1579 1137 1614.5 1143.5Q1650 1150 1685 1150Q1754 1150 1820.0 1128.0Q1886 1106 1945 1071Q2000 1037 2044.0 990.5Q2088 944 2120.0 889.0Q2152 834 2171.5 772.5Q2191 711 2197 647Z" style="fill:#fdbb11;stroke:none" transform="scale(1,-1) translate(0,-256)" /></svg>