<?xml version="1.0" encoding="utf-8" ?>
<svg baseProfile="full" height="256" version="1.1" width="256" xmlns="http://www.w3.org/2000/svg" xmlns:ev="http://www.w3.org/2001/xml-events" xmlns:xlink="http://www.w3.org/1999/xlink"><defs /><path d="M543 -215Q513 -215 487.0 -204.0Q461 -193 441.5 -173.5Q422 -154 411.0 -128.0Q400 -102 400 -72V216Q400 296 410.5 353.5Q421 411 445.5 458.5Q470 506 511.5 550.0Q553 594 615 647Q663 688 704.5 733.5Q746 779 786.0 823.5Q826 868 867.0 909.0Q908 950 956.5 980.5Q1005 1011 1063.0 1029.5Q1121 1048 1194 1048Q1218 1048 1247.0 1044.5Q1276 1041 1305.0 1033.5Q1334 1026 1360.5 1014.0Q1387 1002 1406 986Q1425 1002 1451.0 1014.0Q1477 1026 1506.0 1033.5Q1535 1041 1564.0 1044.5Q1593 1048 1617 1048Q1690 1048 1748.0 1029.5Q1806 1011 1854.5 980.5Q1903 950 1944.5 909.0Q1986 868 2026.0 823.5Q2066 779 2107.5 733.5Q2149 688 2197 647Q2259 594 2300.5 550.0Q2342 506 2366.5 458.5Q2391 411 2401.5 353.5Q2412 296 2412 216V-72Q2412 -102 2400.5 -128.0Q2389 -154 2369.5 -173.5Q2350 -193 2324.0 -204.0Q2298 -215 2268 -215H1981Q1933 -215 1894.0 -205.5Q1855 -196 1811 -179Q1787 -170 1763.0 -162.5Q1739 -155 1713 -155Q1688 -155 1663.0 -163.0Q1638 -171 1614.0 -183.0Q1590 -195 1568.5 -210.5Q1547 -226 1528 -241Q1511 -254 1498.5 -263.0Q1486 -272 1472.5 -277.0Q1459 -282 1443.5 -284.5Q1428 -287 1406 -287Q1384 -287 1368.5 -284.5Q1353 -282 1339.5 -277.0Q1326 -272 1313.0 -263.0Q1300 -254 1284 -241Q1265 -226 1243.5 -210.5Q1222 -195 1198.0 -183.0Q1174 -171 1149.0 -163.0Q1124 -155 1099 -155Q1073 -155 1049.0 -162.5Q1025 -170 1001 -179Q957 -196 918.0 -205.5Q879 -215 831 -215ZM1833 529Q1833 564 1821.0 604.0Q1809 644 1786.0 677.5Q1763 711 1730.5 733.0Q1698 755 1658 755Q1608 755 1577.0 743.5Q1546 732 1520.5 718.5Q1495 705 1469.5 694.0Q1444 683 1406 683Q1368 683 1342.5 694.0Q1317 705 1291.5 718.5Q1266 732 1234.5 743.5Q1203 755 1154 755Q1113 755 1080.0 734.5Q1047 714 1023.0 681.5Q999 649 986.0 610.0Q973 571 973 535Q973 474 1001.5 424.0Q1030 374 1073.5 332.0Q1117 290 1168.5 255.5Q1220 221 1266 193Q1288 179 1307.0 167.0Q1326 155 1343.0 141.5Q1360 128 1375.5 111.0Q1391 94 1406 72Q1434 114 1476.5 147.5Q1519 181 1566.5 211.5Q1614 242 1661.5 272.5Q1709 303 1747.0 339.5Q1785 376 1809.0 422.0Q1833 468 1833 529Z" style="fill:#ffc83d;stroke:none" transform="scale(1,-1) translate(0,-256)" /></svg>