<?xml version="1.0" encoding="utf-8" ?>
<svg baseProfile="full" height="256" version="1.1" width="256" xmlns="http://www.w3.org/2000/svg" xmlns:ev="http://www.w3.org/2001/xml-events" xmlns:xlink="http://www.w3.org/1999/xlink"><defs /><path d="M2291 1080Q2316 1080 2338.0 1070.5Q2360 1061 2376.5 1045.0Q2393 1029 2402.5 1007.0Q2412 985 2412 960V661Q2412 636 2402.5 614.0Q2393 592 2376.5 576.0Q2360 560 2338.0 550.5Q2316 541 2291 541H2268V-62Q2268 -108 2250.5 -149.0Q2233 -190 2202.5 -220.5Q2172 -251 2131.0 -268.5Q2090 -286 2044 -286H768Q722 -286 681.0 -268.5Q640 -251 609.5 -220.5Q579 -190 561.0 -149.0Q543 -108 543 -62V541H520Q495 541 473.5 550.5Q452 560 435.5 576.5Q419 593 409.5 614.5Q400 636 400 661V960Q400 985 409.5 1006.5Q419 1028 435.5 1044.5Q452 1061 473.5 1070.5Q495 1080 520 1080H2291Z" style="fill:#635994;stroke:none" transform="scale(1,-1) translate(0,-256)" /></svg>