<?xml version="1.0" encoding="utf-8" ?>
<svg baseProfile="full" height="256" version="1.1" width="256" xmlns="http://www.w3.org/2000/svg" xmlns:ev="http://www.w3.org/2001/xml-events" xmlns:xlink="http://www.w3.org/1999/xlink"><defs /><path d="M1047 665Q1047 651 1036.0 640.0Q1025 629 1011 629Q996 629 985.5 639.5Q975 650 975 665V955Q975 970 985.5 980.5Q996 991 1011 991Q1025 991 1036.0 980.0Q1047 969 1047 955ZM1837 665Q1837 650 1826.5 639.5Q1816 629 1801 629Q1786 629 1775.5 639.5Q1765 650 1765 665V955Q1765 970 1775.5 980.5Q1786 991 1801 991Q1816 991 1826.5 980.5Q1837 970 1837 955Z" style="fill:#321b41;stroke:none" transform="scale(1,-1) translate(0,-256)" /></svg>