<?xml version="1.0" encoding="utf-8" ?>
<svg baseProfile="full" height="256" version="1.1" width="256" xmlns="http://www.w3.org/2000/svg" xmlns:ev="http://www.w3.org/2001/xml-events" xmlns:xlink="http://www.w3.org/1999/xlink"><defs /><path d="M1866 1581Q1880 1581 1891.0 1570.5Q1902 1560 1902 1546Q1902 1531 1891.5 1520.5Q1881 1510 1866 1510H1518Q1503 1510 1492.5 1520.5Q1482 1531 1482 1546Q1482 1560 1493.0 1570.5Q1504 1581 1518 1581ZM1866 1294Q1881 1294 1891.5 1283.5Q1902 1273 1902 1258Q1902 1243 1891.5 1232.5Q1881 1222 1866 1222H1518Q1503 1222 1492.5 1232.5Q1482 1243 1482 1258Q1482 1273 1492.5 1283.5Q1503 1294 1518 1294ZM1482 1402Q1482 1417 1492.5 1427.5Q1503 1438 1518 1438H1866Q1881 1438 1891.5 1427.5Q1902 1417 1902 1402Q1902 1387 1891.5 1376.5Q1881 1366 1866 1366H1518Q1503 1366 1492.5 1376.5Q1482 1387 1482 1402ZM1866 1150Q1881 1150 1891.5 1139.5Q1902 1129 1902 1114Q1902 1099 1891.5 1088.5Q1881 1078 1866 1078H1518Q1503 1078 1492.5 1088.5Q1482 1099 1482 1114Q1482 1129 1492.5 1139.5Q1503 1150 1518 1150Z" style="fill:#998ea4;stroke:none" transform="scale(1,-1) translate(0,-256)" /></svg>