<?xml version="1.0" encoding="utf-8" ?>
<svg baseProfile="full" height="256" version="1.1" width="256" xmlns="http://www.w3.org/2000/svg" xmlns:ev="http://www.w3.org/2001/xml-events" xmlns:xlink="http://www.w3.org/1999/xlink"><defs /><path d="M864 863Q842 863 823.0 871.5Q804 880 789.5 894.5Q775 909 767.0 928.5Q759 948 759 970V1618Q759 1640 767.0 1659.5Q775 1679 789.5 1693.5Q804 1708 823.0 1716.5Q842 1725 864 1725H1948Q1970 1725 1989.0 1716.5Q2008 1708 2022.5 1693.5Q2037 1679 2045.0 1659.5Q2053 1640 2053 1618V970Q2053 948 2045.0 928.5Q2037 909 2022.5 894.5Q2008 880 1989.0 871.5Q1970 863 1948 863ZM864 -72Q842 -72 823.0 -63.5Q804 -55 789.5 -40.0Q775 -25 767.0 -5.5Q759 14 759 36V684Q759 706 767.0 725.5Q775 745 789.5 759.5Q804 774 823.0 782.5Q842 791 864 791H1948Q1970 791 1989.0 782.5Q2008 774 2022.5 759.5Q2037 745 2045.0 725.5Q2053 706 2053 684V36Q2053 14 2045.0 -5.5Q2037 -25 2022.5 -40.0Q2008 -55 1989.0 -63.5Q1970 -72 1948 -72Z" style="fill:#f3eef8;stroke:none" transform="scale(1,-1) translate(0,-256)" /></svg>