<?xml version="1.0" encoding="utf-8" ?>
<svg baseProfile="full" height="256" version="1.1" width="256" xmlns="http://www.w3.org/2000/svg" xmlns:ev="http://www.w3.org/2001/xml-events" xmlns:xlink="http://www.w3.org/1999/xlink"><defs /><path d="M864 791Q827 791 795.0 805.0Q763 819 739.0 843.5Q715 868 701.0 900.5Q687 933 687 970V1618Q687 1655 701.0 1687.5Q715 1720 739.0 1744.5Q763 1769 795.0 1783.0Q827 1797 864 1797H1948Q1985 1797 2017.0 1783.0Q2049 1769 2073.0 1744.5Q2097 1720 2111.0 1687.5Q2125 1655 2125 1618V970Q2125 933 2111.0 900.5Q2097 868 2073.0 843.5Q2049 819 2017.0 805.0Q1985 791 1948 791H864Z" style="fill:#cdc4d6;stroke:none" transform="scale(1,-1) translate(0,-256)" /></svg>