<?xml version="1.0" encoding="utf-8" ?>
<svg baseProfile="full" height="256" version="1.1" width="256" xmlns="http://www.w3.org/2000/svg" xmlns:ev="http://www.w3.org/2001/xml-events" xmlns:xlink="http://www.w3.org/1999/xlink"><defs /><path d="M1406 827Q1472 827 1530.5 800.5Q1589 774 1632.0 729.0Q1675 684 1700.0 624.5Q1725 565 1725 500V442Q1725 418 1716.0 396.5Q1707 375 1691.0 359.5Q1675 344 1654.0 334.5Q1633 325 1609 325Q1577 325 1550.0 341.5Q1523 358 1507 385Q1481 359 1447.0 345.5Q1413 332 1377 332Q1339 332 1306.0 346.5Q1273 361 1248.5 385.5Q1224 410 1209.5 443.0Q1195 476 1195 514Q1195 551 1209.0 584.5Q1223 618 1248.0 643.0Q1273 668 1306.0 682.5Q1339 697 1377 697Q1409 697 1438.5 686.5Q1468 676 1492 656Q1492 672 1500.5 684.0Q1509 696 1527 696Q1541 696 1551.0 686.0Q1561 676 1561 662V441Q1561 421 1575.0 407.0Q1589 393 1609 393Q1629 393 1643.5 407.0Q1658 421 1658 441V499Q1658 551 1638.0 598.0Q1618 645 1584.0 681.0Q1550 717 1503.5 738.0Q1457 759 1405 759Q1351 759 1304.0 739.0Q1257 719 1222.0 684.5Q1187 650 1166.5 603.5Q1146 557 1146 503Q1146 450 1166.0 403.5Q1186 357 1221.0 322.0Q1256 287 1302.5 267.0Q1349 247 1402 247Q1416 247 1425.5 237.5Q1435 228 1435 214Q1435 200 1425.5 190.0Q1416 180 1402 180Q1335 180 1276.0 205.5Q1217 231 1173.0 275.0Q1129 319 1103.5 377.5Q1078 436 1078 503Q1078 571 1104.0 630.5Q1130 690 1174.5 733.5Q1219 777 1278.5 802.0Q1338 827 1406 827ZM1378 398Q1402 398 1422.5 407.0Q1443 416 1459.0 432.0Q1475 448 1484.0 468.5Q1493 489 1493 513Q1493 537 1484.0 557.5Q1475 578 1459.0 594.0Q1443 610 1422.5 619.0Q1402 628 1378 628Q1354 628 1333.5 619.0Q1313 610 1297.0 594.0Q1281 578 1272.0 557.5Q1263 537 1263 513Q1263 489 1272.0 468.5Q1281 448 1297.0 432.0Q1313 416 1333.5 407.0Q1354 398 1378 398Z" style="fill:#f4f4f4;stroke:none" transform="scale(1,-1) translate(0,-256)" /></svg>