<?xml version="1.0" encoding="utf-8" ?>
<svg baseProfile="full" height="256" version="1.1" width="256" xmlns="http://www.w3.org/2000/svg" xmlns:ev="http://www.w3.org/2001/xml-events" xmlns:xlink="http://www.w3.org/1999/xlink"><defs /><path d="M1406 0Q1302 0 1210.0 39.5Q1118 79 1050.0 147.0Q982 215 942.5 307.0Q903 399 903 503Q903 607 942.5 698.5Q982 790 1050.0 858.5Q1118 927 1210.0 966.5Q1302 1006 1406 1006Q1510 1006 1601.5 966.5Q1693 927 1761.5 858.5Q1830 790 1869.5 698.5Q1909 607 1909 503Q1909 399 1869.5 307.0Q1830 215 1761.5 147.0Q1693 79 1601.5 39.5Q1510 0 1406 0Z" style="fill:#00a6ed;stroke:none" transform="scale(1,-1) translate(0,-256)" /></svg>