<?xml version="1.0" encoding="utf-8" ?>
<svg baseProfile="full" height="256" version="1.1" width="256" xmlns="http://www.w3.org/2000/svg" xmlns:ev="http://www.w3.org/2001/xml-events" xmlns:xlink="http://www.w3.org/1999/xlink"><defs /><path d="M1810 181Q1810 152 1790.5 133.0Q1771 114 1743 114Q1723 114 1707.0 123.5Q1691 133 1675 142Q1687 135 1700.0 128.5Q1713 122 1723.5 113.5Q1734 105 1740.5 93.5Q1747 82 1747 66Q1747 40 1729.0 22.5Q1711 5 1685 5Q1669 5 1656 12L1450 128L1509 233L1508 234L1541 290L1756 247Q1780 242 1795.0 223.5Q1810 205 1810 181Z" style="fill:#f4f4f4;stroke:none" transform="scale(1,-1) translate(0,-256)" /></svg>