<?xml version="1.0" encoding="utf-8" ?>
<svg baseProfile="full" height="256" version="1.1" width="256" xmlns="http://www.w3.org/2000/svg" xmlns:ev="http://www.w3.org/2001/xml-events" xmlns:xlink="http://www.w3.org/1999/xlink"><defs /><path d="M1593 1764Q1701 1764 1796.5 1723.0Q1892 1682 1962.5 1610.5Q2033 1539 2074.0 1444.0Q2115 1349 2115 1241Q2115 1172 2097.0 1106.0Q2079 1040 2045 980Q2022 938 1998.0 898.0Q1974 858 1950 816Q1914 755 1865.5 706.5Q1817 658 1758.5 624.5Q1700 591 1633.5 573.0Q1567 555 1497 555Q1389 555 1293.5 596.0Q1198 637 1127.5 708.0Q1057 779 1016.0 874.5Q975 970 975 1078Q975 1147 992.5 1213.0Q1010 1279 1045 1339Q1068 1381 1092.0 1421.0Q1116 1461 1140 1503Q1176 1564 1224.5 1612.0Q1273 1660 1331.5 1694.0Q1390 1728 1456.0 1746.0Q1522 1764 1593 1764ZM1593 1656Q1537 1656 1484.5 1641.5Q1432 1627 1385.5 1600.5Q1339 1574 1300.0 1535.5Q1261 1497 1233 1449L1138 1285Q1083 1189 1083 1079Q1083 993 1115.5 917.0Q1148 841 1204.0 784.5Q1260 728 1335.5 695.5Q1411 663 1497 663Q1553 663 1605.5 677.0Q1658 691 1704.5 718.0Q1751 745 1790.0 783.5Q1829 822 1857 870Q1881 912 1905.0 952.0Q1929 992 1952 1034Q1979 1082 1993.0 1134.5Q2007 1187 2007 1241Q2007 1327 1974.5 1402.5Q1942 1478 1886.0 1534.5Q1830 1591 1754.5 1623.5Q1679 1656 1593 1656Z" style="fill:#00a6ed;stroke:none" transform="scale(1,-1) translate(0,-256)" /></svg>