<?xml version="1.0" encoding="utf-8" ?>
<svg baseProfile="full" height="256" version="1.1" width="256" xmlns="http://www.w3.org/2000/svg" xmlns:ev="http://www.w3.org/2001/xml-events" xmlns:xlink="http://www.w3.org/1999/xlink"><defs /><path d="M1627 1725Q1627 1718 1616.0 1697.5Q1605 1677 1591.0 1653.0Q1577 1629 1563.5 1607.5Q1550 1586 1545 1578L1703 1487L1782 1622Q1789 1634 1803 1634Q1813 1634 1820.0 1627.0Q1827 1620 1827 1610Q1827 1603 1816.0 1582.5Q1805 1562 1790.5 1538.0Q1776 1514 1762.5 1492.5Q1749 1471 1745 1463L1903 1371L1983 1507Q1989 1518 2003 1518Q2014 1518 2021.0 1511.0Q2028 1504 2028 1494Q2028 1486 2017.0 1465.5Q2006 1445 1991.5 1421.5Q1977 1398 1963.5 1377.0Q1950 1356 1945 1347L2060 1280Q2072 1274 2072 1260Q2072 1249 2065.0 1242.0Q2058 1235 2048 1235Q2041 1235 2023.0 1244.0Q2005 1253 1985.0 1265.0Q1965 1277 1947.0 1288.5Q1929 1300 1921 1305L1831 1152L1980 1066Q1986 1063 1989.0 1057.0Q1992 1051 1992 1045Q1992 1034 1985.0 1027.5Q1978 1021 1967 1021Q1960 1021 1937.5 1033.0Q1915 1045 1888.5 1061.0Q1862 1077 1838.5 1091.5Q1815 1106 1806 1111L1716 958L1867 871Q1879 864 1879 850Q1879 840 1872.0 833.0Q1865 826 1855 826Q1848 826 1825.0 838.0Q1802 850 1775.5 866.0Q1749 882 1725.0 896.5Q1701 911 1692 916L1602 763L1721 694Q1733 687 1733 673Q1733 663 1726.0 656.0Q1719 649 1709 649Q1702 649 1683.5 658.5Q1665 668 1644.0 680.5Q1623 693 1603.5 705.0Q1584 717 1577 721L1511 609Q1503 597 1491 597Q1480 597 1473.5 603.5Q1467 610 1467 621Q1467 628 1476.0 645.5Q1485 663 1497.0 682.5Q1509 702 1520.0 720.0Q1531 738 1535 745L1377 836L1296 699Q1288 687 1276 687Q1265 687 1258.5 694.0Q1252 701 1252 711Q1252 718 1263.0 739.0Q1274 760 1288.5 784.5Q1303 809 1316.5 831.0Q1330 853 1335 861L1177 952L1112 840Q1109 835 1103.0 832.0Q1097 829 1091 829Q1081 829 1074.0 836.0Q1067 843 1067 853Q1067 860 1076.0 877.5Q1085 895 1097.0 914.5Q1109 934 1120.0 951.5Q1131 969 1135 976L1020 1042Q1015 1045 1012.0 1051.0Q1009 1057 1009 1063Q1009 1073 1015.5 1080.0Q1022 1087 1032 1087Q1039 1087 1057.0 1078.0Q1075 1069 1095.5 1057.0Q1116 1045 1134.0 1033.5Q1152 1022 1160 1018L1250 1171L1107 1253Q1096 1259 1096 1273Q1096 1284 1102.5 1291.0Q1109 1298 1119 1298Q1126 1298 1148.0 1286.5Q1170 1275 1195.5 1260.5Q1221 1246 1243.5 1232.0Q1266 1218 1274 1213L1364 1366L1220 1449Q1208 1456 1208 1471Q1208 1481 1215.0 1487.5Q1222 1494 1232 1494Q1239 1494 1261.5 1482.5Q1284 1471 1309.5 1456.0Q1335 1441 1357.5 1427.0Q1380 1413 1389 1408L1478 1560L1359 1629Q1353 1632 1350.0 1638.0Q1347 1644 1347 1650Q1347 1661 1354.0 1667.5Q1361 1674 1371 1674Q1378 1674 1396.5 1664.5Q1415 1655 1436.0 1642.5Q1457 1630 1476.0 1618.0Q1495 1606 1503 1602L1582 1737Q1585 1743 1591.0 1746.0Q1597 1749 1603 1749Q1614 1749 1620.5 1742.0Q1627 1735 1627 1725ZM1202 994 1360 902 1450 1056 1292 1147ZM1402 878 1560 787 1650 940 1492 1031ZM1764 1135 1606 1226 1516 1073 1674 982ZM1564 1251 1406 1342 1316 1188 1474 1097ZM1431 1383 1588 1292 1678 1445 1520 1536ZM1630 1268 1789 1177 1879 1329 1720 1421Z" style="fill:#bebebe;stroke:none" transform="scale(1,-1) translate(0,-256)" /></svg>