<?xml version="1.0" encoding="utf-8" ?>
<svg baseProfile="full" height="256" version="1.1" width="256" xmlns="http://www.w3.org/2000/svg" xmlns:ev="http://www.w3.org/2001/xml-events" xmlns:xlink="http://www.w3.org/1999/xlink"><defs /><path d="M903 216Q886 216 861.5 216.0Q837 216 814.5 221.0Q792 226 775.5 239.0Q759 252 759 279V647H903V360H1909V647H2053V279Q2053 253 2036.5 239.5Q2020 226 1997.0 221.0Q1974 216 1949.5 216.0Q1925 216 1909 216Q1909 202 1907.0 189.5Q1905 177 1899.5 166.5Q1894 156 1884.0 150.0Q1874 144 1857 144H954Q937 144 927.0 150.5Q917 157 912.0 167.0Q907 177 905.0 190.0Q903 203 903 216ZM661 72H2151Q2170 72 2183.5 59.0Q2197 46 2197 27V-170Q2197 -189 2183.5 -202.0Q2170 -215 2151 -215H661Q642 -215 628.5 -202.5Q615 -190 615 -170V27Q615 47 628.5 59.5Q642 72 661 72Z" style="fill:#bebebe;stroke:none" transform="scale(1,-1) translate(0,-256)" /></svg>