<?xml version="1.0" encoding="utf-8" ?>
<svg baseProfile="full" height="256" version="1.1" width="256" xmlns="http://www.w3.org/2000/svg" xmlns:ev="http://www.w3.org/2001/xml-events" xmlns:xlink="http://www.w3.org/1999/xlink"><defs /><path d="M759 503H903V431H759ZM750 18H696Q687 18 687 9V-45Q687 -54 696 -54H750Q756 -54 758.0 -45.0Q760 -36 760.0 -25.0Q760 -14 759.0 -3.0Q758 8 758 11Q758 18 750 18ZM874 18H820Q812 18 812 10V-44Q812 -47 814.0 -50.0Q816 -53 820 -53H874Q883 -53 883 -44V10Q883 14 880.0 16.0Q877 18 874 18ZM945 18H998Q1001 18 1004.0 16.0Q1007 14 1007 10V-44Q1007 -53 998 -53H945Q936 -53 936 -44V10Q936 18 945 18ZM1123 18H1069Q1066 18 1063.0 16.0Q1060 14 1060 10V-44Q1060 -53 1069 -53H1123Q1131 -53 1131 -44V10Q1131 18 1123 18ZM1192 18H1246Q1249 18 1252.0 16.0Q1255 14 1255 11V-44Q1255 -53 1246 -53H1192Q1188 -53 1186.0 -50.0Q1184 -47 1184 -44V10Q1184 18 1192 18ZM1371 18H1317Q1314 18 1311.0 16.0Q1308 14 1308 10V-44Q1308 -53 1317 -53H1371Q1379 -53 1379 -44V12Q1379 15 1376.0 16.5Q1373 18 1371 18ZM1441 18H1495Q1498 18 1501.0 16.0Q1504 14 1504 10V-44Q1504 -53 1495 -53H1441Q1437 -53 1435.0 -50.0Q1433 -47 1433 -44V10Q1433 18 1441 18ZM1619 18H1566Q1557 18 1557 10V-44Q1557 -53 1566 -53H1619Q1628 -53 1628 -44V10Q1628 14 1625.0 16.0Q1622 18 1619 18ZM1689 18H1743Q1746 18 1749.0 16.0Q1752 14 1752 10V-44Q1752 -53 1743 -53H1689Q1685 -53 1683.0 -50.0Q1681 -47 1681 -44V10Q1681 18 1689 18ZM1867 18H1813Q1805 18 1805 10V-44Q1805 -47 1807.0 -50.0Q1809 -53 1813 -53H1867Q1876 -53 1876 -44V11Q1876 14 1872.5 16.0Q1869 18 1867 18ZM1938 18H1992Q2000 18 2000 10V-44Q2000 -53 1992 -53H1938Q1929 -53 1929 -44V10Q1929 14 1932.0 16.0Q1935 18 1938 18ZM2116 18H2062Q2054 18 2054 10V-44Q2054 -47 2056.0 -50.0Q2058 -53 2062 -53H2116Q2125 -53 2125 -44V10Q2125 13 2122.0 15.5Q2119 18 2116 18ZM696 -90H750Q758 -90 758 -97Q758 -100 759.0 -111.0Q760 -122 760.0 -133.0Q760 -144 758.0 -153.0Q756 -162 750 -162H696Q687 -162 687 -153V-99Q687 -90 696 -90ZM874 -90H820Q812 -90 812 -98V-152Q812 -155 814.0 -158.0Q816 -161 820 -161H874Q883 -161 883 -152V-98Q883 -94 880.0 -92.0Q877 -90 874 -90ZM945 -90H998Q1001 -90 1004.0 -92.0Q1007 -94 1007 -98V-152Q1007 -161 998 -161H945Q936 -161 936 -152V-98Q936 -90 945 -90ZM1123 -90H1069Q1066 -90 1063.0 -92.0Q1060 -94 1060 -98V-152Q1060 -161 1069 -161H1123Q1127 -161 1129.0 -158.0Q1131 -155 1131 -152V-98Q1131 -90 1123 -90ZM1193 -90H1617Q1620 -90 1623.0 -92.0Q1626 -94 1626 -98V-152Q1626 -161 1617 -161H1193Q1189 -161 1187.0 -158.0Q1185 -155 1185 -152V-98Q1185 -90 1193 -90ZM1743 -90H1689Q1681 -90 1681 -98V-152Q1681 -155 1683.0 -158.0Q1685 -161 1689 -161H1743Q1752 -161 1752 -152V-98Q1752 -94 1749.0 -92.0Q1746 -90 1743 -90ZM1813 -90H1867Q1870 -90 1873.0 -92.0Q1876 -94 1876 -97V-152Q1876 -161 1867 -161H1813Q1809 -161 1807.0 -158.0Q1805 -155 1805 -152V-98Q1805 -90 1813 -90ZM1992 -90H1938Q1935 -90 1932.0 -92.0Q1929 -94 1929 -98V-152Q1929 -161 1938 -161H1992Q1996 -161 1998.0 -158.0Q2000 -155 2000 -152V-98Q2000 -90 1992 -90ZM2062 -90H2116Q2119 -90 2122.0 -92.5Q2125 -95 2125 -98V-152Q2125 -161 2116 -161H2062Q2058 -161 2056.0 -158.0Q2054 -155 2054 -152V-98Q2054 -90 2062 -90ZM2053 503H1909V431H2053Z" style="fill:#9b9b9b;stroke:none" transform="scale(1,-1) translate(0,-256)" /></svg>