<?xml version="1.0" encoding="utf-8" ?>
<svg baseProfile="full" height="256" version="1.1" width="256" xmlns="http://www.w3.org/2000/svg" xmlns:ev="http://www.w3.org/2001/xml-events" xmlns:xlink="http://www.w3.org/1999/xlink"><defs /><path d="M1440 1366Q1545 1366 1637.5 1327.5Q1730 1289 1798.5 1223.0Q1867 1157 1907.0 1068.5Q1947 980 1947 879V479Q1947 471 1952.0 466.0Q1957 461 1965 461H2057Q2079 461 2095.5 448.5Q2112 436 2119.5 418.0Q2127 400 2124.0 379.0Q2121 358 2105 342L1859 92Q1839 72 1811.5 72.0Q1784 72 1764 92L1519 342Q1503 358 1500.0 379.0Q1497 400 1504.0 418.0Q1511 436 1527.0 448.5Q1543 461 1566 461H1658Q1666 461 1671.0 466.0Q1676 471 1676 479V879Q1676 915 1660.0 952.0Q1644 989 1613.5 1019.0Q1583 1049 1539.0 1068.0Q1495 1087 1440 1087Q1426 1087 1416.0 1096.0Q1406 1105 1406 1119V1331Q1406 1345 1416.0 1355.5Q1426 1366 1440 1366ZM1372 72Q1267 72 1174.5 110.5Q1082 149 1013.5 215.0Q945 281 905.0 369.5Q865 458 865 559V959Q865 967 860.0 972.0Q855 977 847 977H755Q732 977 716.0 989.5Q700 1002 692.5 1020.0Q685 1038 688.0 1058.5Q691 1079 707 1096L953 1346Q973 1366 1000.5 1366.0Q1028 1366 1048 1346L1293 1096Q1309 1079 1312.0 1058.5Q1315 1038 1308.0 1020.0Q1301 1002 1284.5 989.5Q1268 977 1246 977H1154Q1146 977 1141.0 972.0Q1136 967 1136 959V559Q1136 523 1152.0 485.5Q1168 448 1198.5 418.0Q1229 388 1272.5 369.0Q1316 350 1372 350Q1386 350 1396.0 341.5Q1406 333 1406 319V107Q1406 93 1396.0 82.5Q1386 72 1372 72Z" style="fill:#ffffff;stroke:none" transform="scale(1,-1) translate(0,-256)" /></svg>