<?xml version="1.0" encoding="utf-8" ?>
<svg baseProfile="full" height="256" version="1.1" width="256" xmlns="http://www.w3.org/2000/svg" xmlns:ev="http://www.w3.org/2001/xml-events" xmlns:xlink="http://www.w3.org/1999/xlink"><defs /><path d="M1118 1186Q1118 1119 1092.5 1060.5Q1067 1002 1023.0 958.0Q979 914 920.5 888.5Q862 863 795 863Q728 863 669.5 888.5Q611 914 567.0 958.0Q523 1002 497.5 1060.5Q472 1119 472 1186Q472 1253 497.5 1312.0Q523 1371 566.5 1415.0Q610 1459 669.0 1484.5Q728 1510 795 1510Q862 1510 921.0 1484.5Q980 1459 1023.5 1415.0Q1067 1371 1092.5 1312.0Q1118 1253 1118 1186ZM2340 1186Q2340 1119 2314.5 1060.5Q2289 1002 2245.0 958.0Q2201 914 2142.5 888.5Q2084 863 2017 863Q1950 863 1891.0 888.5Q1832 914 1788.0 958.0Q1744 1002 1718.5 1060.5Q1693 1119 1693 1186Q1693 1253 1718.5 1312.0Q1744 1371 1788.0 1415.0Q1832 1459 1891.0 1484.5Q1950 1510 2017 1510Q2084 1510 2143.0 1484.5Q2202 1459 2245.5 1415.0Q2289 1371 2314.5 1312.0Q2340 1253 2340 1186Z" style="fill:#8c5543;stroke:none" transform="scale(1,-1) translate(0,-256)" /></svg>