<?xml version="1.0" encoding="utf-8" ?>
<svg baseProfile="full" height="256" version="1.1" width="256" xmlns="http://www.w3.org/2000/svg" xmlns:ev="http://www.w3.org/2001/xml-events" xmlns:xlink="http://www.w3.org/1999/xlink"><defs /><path d="M2412 426Q2412 334 2387.5 250.5Q2363 167 2317.5 95.0Q2272 23 2207.0 -35.5Q2142 -94 2062 -136Q1993 -173 1910.5 -198.0Q1828 -223 1741.5 -238.5Q1655 -254 1569.0 -260.5Q1483 -267 1406 -267Q1329 -267 1243.0 -260.5Q1157 -254 1070.5 -238.5Q984 -223 901.5 -198.0Q819 -173 750 -136Q670 -94 605.0 -35.5Q540 23 494.5 95.0Q449 167 424.5 250.5Q400 334 400 426Q400 455 402.5 484.0Q405 513 410 542Q429 671 473.0 789.0Q517 907 582.5 1008.5Q648 1110 734.5 1193.0Q821 1276 925.5 1335.0Q1030 1394 1150.5 1426.0Q1271 1458 1406 1458Q1540 1458 1661.0 1426.0Q1782 1394 1886.5 1335.0Q1991 1276 2077.5 1193.0Q2164 1110 2229.5 1008.5Q2295 907 2339.0 789.0Q2383 671 2402 542Q2407 513 2409.5 485.0Q2412 457 2412 428Z" style="fill:#a56953;stroke:none" transform="scale(1,-1) translate(0,-256)" /></svg>