<?xml version="1.0" encoding="utf-8" ?>
<svg baseProfile="full" height="256" version="1.1" width="256" xmlns="http://www.w3.org/2000/svg" xmlns:ev="http://www.w3.org/2001/xml-events" xmlns:xlink="http://www.w3.org/1999/xlink"><defs /><path d="M909 1325Q832 1280 764.0 1221.5Q696 1163 642 1093Q615 1137 615 1186Q615 1223 629.0 1256.0Q643 1289 667.5 1313.5Q692 1338 725.0 1352.0Q758 1366 795 1366Q826 1366 855.5 1355.5Q885 1345 909 1325ZM2170 1093Q2116 1163 2048.0 1221.5Q1980 1280 1903 1325Q1927 1345 1956.5 1355.5Q1986 1366 2017 1366Q2054 1366 2087.0 1352.0Q2120 1338 2144.5 1313.5Q2169 1289 2183.0 1256.0Q2197 1223 2197 1186Q2197 1137 2170 1093ZM1047 356Q1047 398 1065.5 432.0Q1084 466 1118 489Q1180 531 1255.5 553.0Q1331 575 1406 575Q1481 575 1556.5 553.0Q1632 531 1694 489Q1728 466 1746.5 432.0Q1765 398 1765 356V303Q1765 228 1737.5 160.0Q1710 92 1662.0 40.5Q1614 -11 1548.5 -41.5Q1483 -72 1406 -72Q1329 -72 1263.5 -41.5Q1198 -11 1150.0 40.5Q1102 92 1074.5 160.0Q1047 228 1047 303Z" style="fill:#f3ad61;stroke:none" transform="scale(1,-1) translate(0,-256)" /></svg>