<?xml version="1.0" encoding="utf-8" ?>
<svg baseProfile="full" height="256" version="1.1" width="256" xmlns="http://www.w3.org/2000/svg" xmlns:ev="http://www.w3.org/2001/xml-events" xmlns:xlink="http://www.w3.org/1999/xlink"><defs /><path d="M1244 853V862Q1244 898 1258.0 930.0Q1272 962 1296.0 985.5Q1320 1009 1352.0 1023.0Q1384 1037 1420 1037Q1457 1037 1490.0 1022.0Q1523 1007 1547.0 982.0Q1571 957 1584.0 923.5Q1597 890 1596 853L1865 892Q1868 920 1880.0 944.5Q1892 969 1911.5 987.0Q1931 1005 1956.0 1015.5Q1981 1026 2010 1026Q2040 1026 2066.0 1014.5Q2092 1003 2112.0 983.5Q2132 964 2143.5 938.0Q2155 912 2155 882Q2155 876 2154.5 870.0Q2154 864 2153 858L1986 -202Q1980 -243 1956.5 -261.5Q1933 -280 1902.0 -286.0Q1871 -292 1836.5 -290.5Q1802 -289 1772 -289L1671 14L1551 -288H1288L1196 -51L1070 -289H957Q919 -289 890.5 -264.0Q862 -239 856 -202L689 858Q688 864 687.5 869.5Q687 875 687 881Q687 911 698.5 937.5Q710 964 729.5 983.5Q749 1003 775.5 1014.5Q802 1026 832 1026Q860 1026 886.0 1016.0Q912 1006 931.5 988.0Q951 970 963.0 945.5Q975 921 977 892Z" style="fill:#f8312f;stroke:none" transform="scale(1,-1) translate(0,-256)" /></svg>