<?xml version="1.0" encoding="utf-8" ?>
<svg baseProfile="full" height="256" version="1.1" width="256" xmlns="http://www.w3.org/2000/svg" xmlns:ev="http://www.w3.org/2001/xml-events" xmlns:xlink="http://www.w3.org/1999/xlink"><defs /><path d="M1688 1507Q1688 1466 1671.5 1443.5Q1655 1421 1635.0 1408.5Q1615 1396 1596.0 1389.0Q1577 1382 1573 1372Q1556 1334 1529.0 1312.0Q1502 1290 1458 1290Q1413 1290 1387.0 1312.5Q1361 1335 1343 1372Q1339 1380 1335.0 1383.0Q1331 1386 1323 1389Q1281 1403 1254.5 1431.0Q1228 1459 1228 1507Q1228 1555 1254.0 1584.0Q1280 1613 1323 1627Q1331 1630 1335.0 1633.0Q1339 1636 1343 1644Q1361 1681 1387.5 1703.0Q1414 1725 1458 1725Q1503 1725 1528.5 1702.5Q1554 1680 1573 1643Q1577 1635 1581.5 1632.0Q1586 1629 1594 1626Q1636 1612 1662.0 1583.0Q1688 1554 1688 1507Z" style="fill:#f9c23c;stroke:none" transform="scale(1,-1) translate(0,-256)" /></svg>