<?xml version="1.0" encoding="utf-8" ?>
<svg baseProfile="full" height="256" version="1.1" width="256" xmlns="http://www.w3.org/2000/svg" xmlns:ev="http://www.w3.org/2001/xml-events" xmlns:xlink="http://www.w3.org/1999/xlink"><defs /><path d="M1067 -289 974 881V892Q974 920 984.5 944.5Q995 969 1013.0 987.0Q1031 1005 1055.0 1015.5Q1079 1026 1107 1026Q1134 1026 1158.0 1016.0Q1182 1006 1200.0 988.5Q1218 971 1229.0 947.5Q1240 924 1241 897L1288 -289ZM1551 -289 1598 897Q1599 924 1610.0 947.5Q1621 971 1639.0 988.5Q1657 1006 1681.0 1016.0Q1705 1026 1732 1026Q1759 1026 1783.5 1015.5Q1808 1005 1826.5 987.0Q1845 969 1855.5 944.5Q1866 920 1866 893L1865 881L1773 -289Z" style="fill:#f4f4f4;stroke:none" transform="scale(1,-1) translate(0,-256)" /></svg>