<?xml version="1.0" encoding="utf-8" ?>
<svg baseProfile="full" height="256" version="1.1" width="256" xmlns="http://www.w3.org/2000/svg" xmlns:ev="http://www.w3.org/2001/xml-events" xmlns:xlink="http://www.w3.org/1999/xlink"><defs /><path d="M1660 1264Q1694 1264 1723.5 1246.5Q1753 1229 1770 1200Q1788 1226 1815.5 1240.0Q1843 1254 1874 1254Q1917 1254 1947.5 1230.5Q1978 1207 1994 1169Q1998 1160 2002.0 1156.5Q2006 1153 2015 1150Q2060 1136 2087.5 1105.5Q2115 1075 2115 1026Q2115 975 2087.5 946.0Q2060 917 2015 902Q2003 898 1994.0 881.0Q1985 864 1971.5 845.5Q1958 827 1936.0 812.5Q1914 798 1874 798Q1840 798 1810.5 815.0Q1781 832 1764 862Q1746 837 1718.5 822.5Q1691 808 1660 808Q1621 808 1588.5 829.5Q1556 851 1542 887Q1513 872 1482 872Q1447 872 1416.0 891.0Q1385 910 1369 942Q1352 910 1321.5 891.0Q1291 872 1255 872Q1230 872 1206.5 882.0Q1183 892 1165 909Q1153 904 1143 902Q1130 898 1121.5 881.5Q1113 865 1099.5 846.5Q1086 828 1063.5 813.0Q1041 798 1001 798Q957 798 927.5 821.5Q898 845 881 883Q877 891 873.0 895.0Q869 899 860 902Q815 916 787.5 945.5Q760 975 760 1026Q760 1075 787.5 1105.5Q815 1136 860 1150Q874 1154 881 1169Q898 1207 927.5 1230.5Q957 1254 1001 1254Q1046 1254 1074.5 1230.5Q1103 1207 1121 1169Q1125 1161 1134.5 1155.5Q1144 1150 1156.0 1145.0Q1168 1140 1181.0 1133.0Q1194 1126 1205 1116Q1209 1118 1215 1120Q1226 1124 1233.5 1134.0Q1241 1144 1248.0 1157.0Q1255 1170 1263.5 1184.0Q1272 1198 1285.5 1210.0Q1299 1222 1318.0 1229.5Q1337 1237 1365 1237Q1409 1237 1439.5 1213.5Q1470 1190 1486 1151L1487 1149Q1495 1154 1502.5 1156.0Q1510 1158 1518 1160Q1530 1164 1539.0 1180.5Q1548 1197 1561.5 1215.5Q1575 1234 1597.5 1249.0Q1620 1264 1660 1264Z" style="fill:#fff478;stroke:none" transform="scale(1,-1) translate(0,-256)" /></svg>