<?xml version="1.0" encoding="utf-8" ?>
<svg baseProfile="full" height="256" version="1.1" width="256" xmlns="http://www.w3.org/2000/svg" xmlns:ev="http://www.w3.org/2001/xml-events" xmlns:xlink="http://www.w3.org/1999/xlink"><defs /><path d="M867 1150Q912 1150 951.0 1133.0Q990 1116 1019.5 1087.0Q1049 1058 1066.0 1019.0Q1083 980 1083 935V719V647L1172 360H956Q954 365 945.5 384.5Q937 404 927.0 425.5Q917 447 908.5 464.5Q900 482 898 484L892 486L886 484L882 479L867 360H651V935Q651 980 668.0 1019.0Q685 1058 714.5 1087.0Q744 1116 783.0 1133.0Q822 1150 867 1150ZM1586 935Q1586 980 1603.0 1019.0Q1620 1058 1649.0 1087.0Q1678 1116 1717.0 1133.0Q1756 1150 1801 1150Q1846 1150 1885.0 1133.0Q1924 1116 1953.5 1087.0Q1983 1058 2000.0 1019.0Q2017 980 2017 935V719V647L2107 360H1891Q1889 365 1880.0 384.5Q1871 404 1861.5 425.5Q1852 447 1843.0 464.5Q1834 482 1832 484L1826 486L1820 484L1817 479L1801 360H1586ZM1725 -172Q1721 -197 1708.5 -218.0Q1696 -239 1677.5 -254.5Q1659 -270 1635.5 -278.5Q1612 -287 1587 -287H1586V-144H1729ZM2340 -287Q2302 -287 2271.5 -276.5Q2241 -266 2217.0 -247.5Q2193 -229 2174.0 -202.5Q2155 -176 2139 -144H2288ZM795 -144Q791 -174 780.5 -200.0Q770 -226 753.0 -245.5Q736 -265 711.0 -276.0Q686 -287 653 -287H651V-144ZM1406 -287Q1331 -287 1283.0 -248.0Q1235 -209 1205 -144H1354Z" style="fill:#533566;stroke:none" transform="scale(1,-1) translate(0,-256)" /></svg>