<?xml version="1.0" encoding="utf-8" ?>
<svg baseProfile="full" height="256" version="1.1" width="256" xmlns="http://www.w3.org/2000/svg" xmlns:ev="http://www.w3.org/2001/xml-events" xmlns:xlink="http://www.w3.org/1999/xlink"><defs /><path d="M725 1673Q725 1679 725.5 1687.5Q726 1696 728.5 1704.5Q731 1713 735.5 1719.0Q740 1725 748 1725Q763 1725 775.5 1706.0Q788 1687 798.0 1661.5Q808 1636 814.0 1611.5Q820 1587 822 1576Q843 1583 869 1583Q895 1583 920.0 1574.0Q945 1565 966.0 1549.0Q987 1533 1001.5 1510.5Q1016 1488 1022 1462V1459V1454L1017 1449Q1015 1449 1013.5 1448.5Q1012 1448 1010 1448Q1009 1448 996.5 1459.5Q984 1471 964.0 1485.0Q944 1499 919.0 1510.5Q894 1522 869 1522Q843 1522 818.5 1510.5Q794 1499 774.0 1485.0Q754 1471 741.5 1459.5Q729 1448 728 1448Q726 1448 724.5 1448.5Q723 1449 721 1449L716 1454Q716 1455 715.5 1456.0Q715 1457 715 1458Q715 1466 719.5 1477.5Q724 1489 730.5 1500.0Q737 1511 744.5 1521.0Q752 1531 758 1537Q744 1568 734.5 1603.0Q725 1638 725 1673ZM1660 1673Q1660 1678 1660.5 1687.0Q1661 1696 1663.0 1704.5Q1665 1713 1669.5 1719.0Q1674 1725 1682 1725Q1697 1725 1709.5 1706.0Q1722 1687 1732.0 1662.0Q1742 1637 1748.0 1612.0Q1754 1587 1756 1576Q1777 1583 1803 1583Q1830 1583 1855.0 1574.0Q1880 1565 1900.5 1549.0Q1921 1533 1935.5 1511.0Q1950 1489 1956 1462Q1956 1461 1956.5 1460.0Q1957 1459 1957 1458Q1957 1457 1956.5 1456.0Q1956 1455 1956 1454L1951 1449L1944 1448L1938 1451Q1927 1464 1911.0 1476.5Q1895 1489 1877.0 1499.0Q1859 1509 1840.0 1515.5Q1821 1522 1804 1522Q1764 1522 1730.0 1499.5Q1696 1477 1669 1451Q1664 1448 1660 1448Q1655 1448 1652.5 1451.5Q1650 1455 1650 1459Q1650 1467 1654.5 1478.0Q1659 1489 1665.5 1500.5Q1672 1512 1679.0 1521.5Q1686 1531 1692 1537Q1678 1566 1669.0 1603.5Q1660 1641 1660 1673Z" style="fill:#533566;stroke:none" transform="scale(1,-1) translate(0,-256)" /></svg>