<?xml version="1.0" encoding="utf-8" ?>
<svg baseProfile="full" height="256" version="1.1" width="256" xmlns="http://www.w3.org/2000/svg" xmlns:ev="http://www.w3.org/2001/xml-events" xmlns:xlink="http://www.w3.org/1999/xlink"><defs /><path d="M710 1364H711V1393Q711 1414 719.0 1433.5Q727 1453 741.0 1467.0Q755 1481 773.5 1489.5Q792 1498 814 1498H853Q861 1498 864.5 1494.5Q868 1491 872 1485Q883 1465 894.5 1456.0Q906 1447 918.5 1443.5Q931 1440 947.0 1440.0Q963 1440 983 1440Q1000 1440 1012.5 1426.5Q1025 1413 1025 1396Q1025 1352 1021.5 1309.0Q1018 1266 1015 1222Q1013 1200 1002.5 1180.5Q992 1161 975.5 1147.0Q959 1133 938.0 1124.5Q917 1116 896 1116H838Q817 1116 796.0 1124.5Q775 1133 758.5 1147.0Q742 1161 731.0 1180.5Q720 1200 719 1222Q717 1257 714.5 1293.0Q712 1329 710 1364ZM1644 1364H1646V1393Q1646 1414 1654.0 1433.0Q1662 1452 1675.5 1466.5Q1689 1481 1708.0 1489.5Q1727 1498 1748 1498H1787Q1795 1498 1798.5 1494.5Q1802 1491 1806 1485Q1817 1465 1828.0 1456.0Q1839 1447 1852.5 1443.5Q1866 1440 1881.5 1440.0Q1897 1440 1917 1440Q1934 1440 1947.0 1426.5Q1960 1413 1960 1396Q1960 1388 1959.5 1380.0Q1959 1372 1958 1364Q1956 1329 1954.0 1293.0Q1952 1257 1950 1222Q1948 1199 1937.5 1180.0Q1927 1161 1910.0 1146.5Q1893 1132 1872.0 1124.0Q1851 1116 1830 1116H1772Q1751 1116 1730.0 1124.5Q1709 1133 1692.5 1147.0Q1676 1161 1665.0 1180.5Q1654 1200 1653 1222Q1651 1257 1648.5 1293.0Q1646 1329 1644 1364Z" style="fill:#fcd53f;stroke:none" transform="scale(1,-1) translate(0,-256)" /></svg>