<?xml version="1.0" encoding="utf-8" ?>
<svg baseProfile="full" height="256" version="1.1" width="256" xmlns="http://www.w3.org/2000/svg" xmlns:ev="http://www.w3.org/2001/xml-events" xmlns:xlink="http://www.w3.org/1999/xlink"><defs /><path d="M867 1313Q875 1313 879 1304Q880 1300 883.0 1292.0Q886 1284 889.0 1275.0Q892 1266 894.0 1258.5Q896 1251 896 1247Q896 1240 891.0 1235.0Q886 1230 879 1230H855Q848 1230 843.0 1235.0Q838 1240 838 1247Q838 1250 840.0 1258.0Q842 1266 845.0 1275.0Q848 1284 851.0 1292.0Q854 1300 855 1304Q859 1313 867 1313ZM1801 1313Q1809 1313 1813 1304Q1816 1294 1823.0 1275.0Q1830 1256 1830 1246Q1830 1239 1825.0 1234.5Q1820 1230 1813 1230H1789Q1782 1230 1777.0 1235.0Q1772 1240 1772 1247Q1772 1250 1774.5 1258.0Q1777 1266 1780.0 1275.0Q1783 1284 1786.0 1292.5Q1789 1301 1790 1304Q1794 1313 1801 1313Z" style="fill:#ffb02e;stroke:none" transform="scale(1,-1) translate(0,-256)" /></svg>