<?xml version="1.0" encoding="utf-8" ?>
<svg baseProfile="full" height="256" version="1.1" width="256" xmlns="http://www.w3.org/2000/svg" xmlns:ev="http://www.w3.org/2001/xml-events" xmlns:xlink="http://www.w3.org/1999/xlink"><defs /><path d="M790 1318Q786 1320 786 1323L790 1328Q792 1328 795 1323Q795 1318 790 1318ZM925 1318Q930 1318 930 1323Q927 1328 925 1328L920 1323Q920 1320 925 1318ZM1725 1318Q1730 1320 1730 1323L1725 1328Q1722 1328 1720 1323Q1720 1318 1725 1318ZM1860 1318Q1865 1320 1865 1323L1860 1328Q1857 1328 1855 1323Q1855 1318 1860 1318Z" style="fill:#ffffff;stroke:none" transform="scale(1,-1) translate(0,-256)" /></svg>