<?xml version="1.0" encoding="utf-8" ?>
<svg baseProfile="full" height="256" version="1.1" width="256" xmlns="http://www.w3.org/2000/svg" xmlns:ev="http://www.w3.org/2001/xml-events" xmlns:xlink="http://www.w3.org/1999/xlink"><defs /><path d="M1009 1672Q1009 1635 997.0 1592.0Q985 1549 965 1518L910 1549Q910 1563 915.5 1592.0Q921 1621 931.0 1650.5Q941 1680 955.5 1702.5Q970 1725 987 1725Q994 1725 998.5 1718.5Q1003 1712 1005.0 1703.0Q1007 1694 1008.0 1685.0Q1009 1676 1009 1672ZM1943 1673Q1943 1656 1940.0 1635.0Q1937 1614 1931.0 1592.5Q1925 1571 1917.0 1551.5Q1909 1532 1899 1518L1844 1549Q1845 1562 1850.5 1591.5Q1856 1621 1866.0 1650.5Q1876 1680 1890.0 1702.5Q1904 1725 1921 1725Q1928 1725 1932.5 1718.5Q1937 1712 1939.5 1703.5Q1942 1695 1942.5 1686.0Q1943 1677 1943 1673Z" style="fill:#321b41;stroke:none" transform="scale(1,-1) translate(0,-256)" /></svg>