<?xml version="1.0" encoding="utf-8" ?>
<svg baseProfile="full" height="256" version="1.1" width="256" xmlns="http://www.w3.org/2000/svg" xmlns:ev="http://www.w3.org/2001/xml-events" xmlns:xlink="http://www.w3.org/1999/xlink"><defs /><path d="M815 1312Q815 1307 814 1304H786Q784 1310 784 1312Q784 1328 800 1328Q807 1328 811.0 1323.0Q815 1318 815 1312ZM918 1312Q918 1328 934 1328Q941 1328 945.0 1323.0Q949 1318 949 1312Q949 1307 948 1304H920Q918 1310 918 1312ZM1750 1312Q1750 1310 1748 1304H1720Q1719 1307 1719 1312Q1719 1318 1723.0 1323.0Q1727 1328 1734 1328Q1750 1328 1750 1312ZM1853 1312Q1853 1318 1857.0 1323.0Q1861 1328 1868 1328Q1884 1328 1884 1312Q1884 1310 1882 1304H1854Q1853 1307 1853 1312Z" style="fill:#000000;stroke:none" transform="scale(1,-1) translate(0,-256)" /></svg>