<?xml version="1.0" encoding="utf-8" ?>
<svg baseProfile="full" height="256" version="1.1" width="256" xmlns="http://www.w3.org/2000/svg" xmlns:ev="http://www.w3.org/2001/xml-events" xmlns:xlink="http://www.w3.org/1999/xlink"><defs /><path d="M984 1380Q984 1377 982.0 1374.0Q980 1371 976 1371Q971 1371 963.5 1377.5Q956 1384 936 1384Q930 1384 923.0 1384.0Q916 1384 916 1393Q916 1401 925.0 1401.5Q934 1402 939 1402Q953 1402 962.0 1398.5Q971 1395 982 1386ZM806 1402Q811 1402 817.0 1401.0Q823 1400 823 1393Q823 1384 816.5 1384.0Q810 1384 804 1384Q797 1384 785.5 1381.0Q774 1378 769 1373H768Q764 1371 762 1371Q754 1371 754 1379Q754 1385 760.5 1389.0Q767 1393 776.0 1396.0Q785 1399 793.5 1400.5Q802 1402 806 1402ZM1919 1379Q1919 1371 1911 1371Q1907 1371 1897.0 1377.5Q1887 1384 1870 1384Q1866 1384 1858.0 1383.5Q1850 1383 1850 1391Q1850 1400 1858.5 1401.0Q1867 1402 1873 1402Q1885 1402 1896.0 1398.5Q1907 1395 1916 1386ZM1741 1402Q1746 1402 1751.5 1401.0Q1757 1400 1757 1393Q1757 1383 1751.0 1383.5Q1745 1384 1739 1384Q1732 1384 1720.0 1381.0Q1708 1378 1703 1373Q1702 1373 1700.0 1372.0Q1698 1371 1696 1371Q1689 1371 1689 1379Q1689 1385 1695.5 1389.0Q1702 1393 1711.0 1396.0Q1720 1399 1728.5 1400.5Q1737 1402 1741 1402Z" style="fill:#d37034;stroke:none" transform="scale(1,-1) translate(0,-256)" /></svg>