<?xml version="1.0" encoding="utf-8" ?>
<svg baseProfile="full" height="256" version="1.1" width="256" xmlns="http://www.w3.org/2000/svg" xmlns:ev="http://www.w3.org/2001/xml-events" xmlns:xlink="http://www.w3.org/1999/xlink"><defs /><path d="M800 1340Q811 1340 819.0 1331.5Q827 1323 827 1312Q827 1307 826 1304H773Q773 1306 772.5 1308.0Q772 1310 772 1312Q772 1323 780.5 1331.5Q789 1340 800 1340ZM934 1340Q945 1340 953.0 1331.5Q961 1323 961 1312Q961 1307 960 1304H908Q907 1307 907 1314Q907 1325 915.0 1332.5Q923 1340 934 1340ZM1734 1340Q1745 1340 1753.5 1331.5Q1762 1323 1762 1312Q1762 1310 1761.5 1308.0Q1761 1306 1761 1304H1708Q1707 1307 1707 1312Q1707 1323 1715.0 1331.5Q1723 1340 1734 1340ZM1868 1340Q1879 1340 1887.5 1331.5Q1896 1323 1896 1312Q1896 1310 1895.5 1308.0Q1895 1306 1895 1304H1842Q1841 1307 1841 1312Q1841 1323 1849.0 1331.5Q1857 1340 1868 1340Z" style="fill:#7d4533;stroke:none" transform="scale(1,-1) translate(0,-256)" /></svg>