<?xml version="1.0" encoding="utf-8" ?>
<svg baseProfile="full" height="256" version="1.1" width="256" xmlns="http://www.w3.org/2000/svg" xmlns:ev="http://www.w3.org/2001/xml-events" xmlns:xlink="http://www.w3.org/1999/xlink"><defs /><path d="M913 1581Q952 1581 974 1546Q984 1529 999.5 1521.0Q1015 1513 1029.5 1505.0Q1044 1497 1054.0 1483.5Q1064 1470 1064 1443Q1064 1429 1060.5 1421.0Q1057 1413 1053.5 1404.5Q1050 1396 1046.5 1385.0Q1043 1374 1043 1356Q1042 1357 1041.5 1354.0Q1041 1351 1040 1350Q1039 1345 1038.5 1339.0Q1038 1333 1036 1328Q1034 1313 1032.5 1298.5Q1031 1284 1029 1269Q1033 1270 1036.5 1272.0Q1040 1274 1044 1276Q1044 1262 1043.5 1248.0Q1043 1234 1039.0 1222.0Q1035 1210 1027.0 1200.0Q1019 1190 1003 1184Q1007 1192 1009.0 1201.5Q1011 1211 1013 1220H817H720Q723 1201 731 1184Q712 1192 701.0 1209.5Q690 1227 690 1247V1276Q694 1274 697.5 1272.0Q701 1270 706 1268Q704 1285 701.5 1301.5Q699 1318 696 1335Q696 1337 694.0 1346.0Q692 1355 690 1355Q690 1374 686.5 1385.0Q683 1396 679.5 1404.5Q676 1413 672.5 1421.0Q669 1429 669 1443Q669 1470 679.0 1483.0Q689 1496 703.5 1504.5Q718 1513 733.5 1521.5Q749 1530 760 1547Q771 1563 786.0 1572.0Q801 1581 821 1581Q834 1581 845.0 1576.0Q856 1571 867 1571Q878 1571 889.0 1576.0Q900 1581 913 1581ZM1999 1444Q1999 1431 1995.5 1422.5Q1992 1414 1988.5 1405.5Q1985 1397 1981.5 1385.5Q1978 1374 1978 1356Q1976 1356 1974.5 1347.5Q1973 1339 1972 1337Q1969 1320 1967.0 1303.0Q1965 1286 1963 1269Q1970 1270 1978 1276V1247Q1978 1227 1967.0 1209.5Q1956 1192 1937 1184Q1945 1201 1948 1220H1655Q1657 1211 1659.0 1201.5Q1661 1192 1665 1184Q1650 1190 1641.5 1200.0Q1633 1210 1629.0 1222.0Q1625 1234 1624.5 1248.0Q1624 1262 1624 1276Q1628 1274 1631.5 1272.0Q1635 1270 1640 1268Q1638 1283 1636.0 1298.0Q1634 1313 1632 1328L1629 1345L1626 1354V1355H1625Q1625 1374 1621.5 1385.0Q1618 1396 1614.5 1404.5Q1611 1413 1607.5 1421.5Q1604 1430 1604 1444Q1604 1470 1614.0 1483.0Q1624 1496 1638.0 1504.5Q1652 1513 1667.5 1521.5Q1683 1530 1694 1547Q1705 1563 1720.0 1572.0Q1735 1581 1755 1581Q1768 1581 1779.0 1576.0Q1790 1571 1801 1571Q1813 1571 1824.0 1576.0Q1835 1581 1848 1581Q1867 1581 1883.0 1571.5Q1899 1562 1909 1546Q1919 1529 1934.5 1521.0Q1950 1513 1964.0 1504.5Q1978 1496 1988.5 1483.0Q1999 1470 1999 1444Z" style="fill:#f1a11e;stroke:none" transform="scale(1,-1) translate(0,-256)" /></svg>