<?xml version="1.0" encoding="utf-8" ?>
<svg baseProfile="full" height="256" version="1.1" width="256" xmlns="http://www.w3.org/2000/svg" xmlns:ev="http://www.w3.org/2001/xml-events" xmlns:xlink="http://www.w3.org/1999/xlink"><defs /><path d="M867 1210Q881 1210 895.0 1216.0Q909 1222 912 1222Q917 1222 917 1217Q917 1211 911.0 1205.5Q905 1200 897.0 1195.5Q889 1191 880.5 1188.5Q872 1186 867 1186Q862 1186 853.5 1188.5Q845 1191 837.0 1195.0Q829 1199 823.0 1205.0Q817 1211 817 1217Q817 1222 822 1222Q824 1222 838.5 1216.0Q853 1210 867 1210ZM1801 1210Q1815 1210 1829.5 1216.0Q1844 1222 1846 1222Q1851 1222 1851 1217Q1851 1211 1845.0 1205.0Q1839 1199 1831.0 1195.0Q1823 1191 1814.5 1188.5Q1806 1186 1801 1186Q1796 1186 1787.5 1188.5Q1779 1191 1771.0 1195.0Q1763 1199 1757.5 1205.0Q1752 1211 1752 1217Q1752 1222 1757 1222Q1759 1222 1773.5 1216.0Q1788 1210 1801 1210Z" style="fill:#990838;stroke:none" transform="scale(1,-1) translate(0,-256)" /></svg>