<?xml version="1.0" encoding="utf-8" ?>
<svg baseProfile="full" height="256" version="1.1" width="256" xmlns="http://www.w3.org/2000/svg" xmlns:ev="http://www.w3.org/2001/xml-events" xmlns:xlink="http://www.w3.org/1999/xlink"><defs /><path d="M719 1265Q699 1265 684.0 1280.0Q669 1295 669 1315Q669 1335 684.0 1350.5Q699 1366 719 1366Q740 1366 754.5 1351.0Q769 1336 769 1315Q769 1294 754.5 1279.5Q740 1265 719 1265ZM1016 1265Q995 1265 980.5 1279.5Q966 1294 966 1315Q966 1336 980.5 1351.0Q995 1366 1016 1366Q1036 1366 1051.0 1350.5Q1066 1335 1066 1315Q1066 1295 1051.0 1280.0Q1036 1265 1016 1265ZM1654 1266Q1633 1266 1618.5 1280.5Q1604 1295 1604 1316Q1604 1336 1619.0 1351.0Q1634 1366 1654 1366Q1674 1366 1689.0 1351.0Q1704 1336 1704 1316Q1704 1296 1689.0 1281.0Q1674 1266 1654 1266ZM1950 1266Q1929 1266 1914.5 1280.5Q1900 1295 1900 1316Q1900 1336 1915.0 1351.0Q1930 1366 1950 1366Q1970 1366 1985.0 1351.0Q2000 1336 2000 1316Q2000 1295 1985.5 1280.5Q1971 1266 1950 1266Z" style="fill:#fdbb11;stroke:none" transform="scale(1,-1) translate(0,-256)" /></svg>