<?xml version="1.0" encoding="utf-8" ?>
<svg baseProfile="full" height="256" version="1.1" width="256" xmlns="http://www.w3.org/2000/svg" xmlns:ev="http://www.w3.org/2001/xml-events" xmlns:xlink="http://www.w3.org/1999/xlink"><defs /><path d="M2288 1077Q2208 1077 2151.0 1069.0Q2094 1061 2043.5 1045.5Q1993 1030 1940.5 1006.0Q1888 982 1818 951L905 540Q839 510 784.5 490.0Q730 470 676.5 457.5Q623 445 565.5 439.5Q508 434 435 433Q458 502 465.5 571.5Q473 641 473 713Q473 742 472.5 770.0Q472 798 472 827Q472 950 504.5 1064.0Q537 1178 596.0 1278.0Q655 1378 737.0 1460.0Q819 1542 919.0 1601.0Q1019 1660 1133.0 1692.5Q1247 1725 1370 1725Q1484 1725 1593.0 1697.0Q1702 1669 1799.5 1615.5Q1897 1562 1980.0 1485.5Q2063 1409 2125 1313Q2146 1280 2164.5 1246.0Q2183 1212 2198 1176Q2202 1167 2204.5 1157.5Q2207 1148 2212 1140Q2226 1115 2241.0 1099.0Q2256 1083 2287 1080L2288 1077Z" style="fill:#44911b;stroke:none" transform="scale(1,-1) translate(0,-256)" /></svg>