<?xml version="1.0" encoding="utf-8" ?>
<svg baseProfile="full" height="256" version="1.1" width="256" xmlns="http://www.w3.org/2000/svg" xmlns:ev="http://www.w3.org/2001/xml-events" xmlns:xlink="http://www.w3.org/1999/xlink"><defs /><path d="M1135 407 1454 551 1477 472Q1425 447 1372.0 427.0Q1319 407 1266 384Q1251 377 1234.5 368.5Q1218 360 1204.5 348.5Q1191 337 1182.5 322.0Q1174 307 1174 288Q1174 277 1176.0 267.5Q1178 258 1181 248ZM1463 151H1567L1610 0H1494Q1518 0 1534.5 11.0Q1551 22 1551 48Q1551 59 1548.0 69.5Q1545 80 1542 91Q1532 126 1516.0 138.5Q1500 151 1463 151ZM1293 151Q1266 151 1266 122Q1266 105 1273.0 84.0Q1280 63 1292.0 44.5Q1304 26 1320.5 13.5Q1337 1 1356 0H1262L1209 151Z" style="fill:#5c2614;stroke:none" transform="scale(1,-1) translate(0,-256)" /></svg>