<?xml version="1.0" encoding="utf-8" ?>
<svg baseProfile="full" height="256" version="1.1" width="256" xmlns="http://www.w3.org/2000/svg" xmlns:ev="http://www.w3.org/2001/xml-events" xmlns:xlink="http://www.w3.org/1999/xlink"><defs /><path d="M2412 973Q2412 926 2382.0 894.5Q2352 863 2304 863Q2239 863 2190.0 855.5Q2141 848 2097.0 834.0Q2053 820 2008.0 799.5Q1963 779 1906 754L993 343Q926 313 870.0 289.5Q814 266 758.5 249.5Q703 233 643.0 224.5Q583 216 508 216Q486 216 466.5 224.5Q447 233 432.0 247.0Q417 261 408.5 280.5Q400 300 400 322Q400 333 402.5 343.5Q405 354 409 365Q434 434 453.0 501.0Q472 568 472 643V827Q472 950 504.5 1064.0Q537 1178 596.0 1278.0Q655 1378 737.0 1460.0Q819 1542 919.0 1601.0Q1019 1660 1133.0 1692.5Q1247 1725 1370 1725Q1482 1725 1589.5 1698.0Q1697 1671 1793.5 1619.5Q1890 1568 1972.5 1494.0Q2055 1420 2117 1326Q2146 1281 2166.0 1233.0Q2186 1185 2212 1139Q2228 1112 2246.5 1095.0Q2265 1078 2299 1078Q2321 1078 2341.0 1070.0Q2361 1062 2377.0 1048.0Q2393 1034 2402.5 1015.0Q2412 996 2412 973Z" style="fill:#008463;stroke:none" transform="scale(1,-1) translate(0,-256)" /></svg>