<?xml version="1.0" encoding="utf-8" ?>
<svg baseProfile="full" height="256" version="1.1" width="256" xmlns="http://www.w3.org/2000/svg" xmlns:ev="http://www.w3.org/2001/xml-events" xmlns:xlink="http://www.w3.org/1999/xlink"><defs /><path d="M1011 1259Q1027 1259 1037 1249L1237 1053Q1248 1042 1248 1027Q1248 1012 1237.5 1001.5Q1227 991 1212 991Q1198 991 1187 1002L987 1198Q976 1209 976 1224Q976 1239 986.5 1249.0Q997 1259 1011 1259ZM1751 1224Q1751 1209 1740 1198L1540 1002Q1529 991 1515 991Q1500 991 1489.5 1002.0Q1479 1013 1479 1027Q1479 1042 1490 1053L1690 1249Q1700 1259 1715 1259Q1730 1259 1740.5 1249.0Q1751 1239 1751 1224ZM1515 828Q1530 828 1540 818L1740 622Q1751 611 1751 596Q1751 581 1740.5 570.5Q1730 560 1715 560Q1701 560 1690 571L1490 767Q1479 778 1479 792Q1479 807 1489.5 817.5Q1500 828 1515 828ZM1248 793Q1248 778 1237 767L1037 571Q1026 560 1011 560Q997 560 986.5 570.5Q976 581 976 596Q976 611 987 622L1187 818Q1197 828 1212 828Q1228 828 1238.0 818.0Q1248 808 1248 793Z" style="fill:#d3883e;stroke:none" transform="scale(1,-1) translate(0,-256)" /></svg>