<?xml version="1.0" encoding="utf-8" ?>
<svg baseProfile="full" height="256" version="1.1" width="256" xmlns="http://www.w3.org/2000/svg" xmlns:ev="http://www.w3.org/2001/xml-events" xmlns:xlink="http://www.w3.org/1999/xlink"><defs /><path d="M1364 47Q1256 47 1158.0 76.5Q1060 106 976.0 158.5Q892 211 824.5 284.5Q757 358 709.0 446.0Q661 534 635.0 633.5Q609 733 609 838Q609 943 635.0 1042.5Q661 1142 709.0 1230.0Q757 1318 825.0 1391.0Q893 1464 977.0 1516.5Q1061 1569 1158.5 1598.5Q1256 1628 1364 1628Q1472 1628 1569.5 1598.5Q1667 1569 1751.0 1516.5Q1835 1464 1902.5 1390.5Q1970 1317 2018.0 1229.5Q2066 1142 2092.0 1042.5Q2118 943 2118 838Q2118 733 2092.0 633.5Q2066 534 2018.0 446.0Q1970 358 1902.5 285.0Q1835 212 1751.0 159.0Q1667 106 1569.5 76.5Q1472 47 1364 47Z" style="fill:#f3c07b;stroke:none" transform="scale(1,-1) translate(0,-256)" /></svg>