<?xml version="1.0" encoding="utf-8" ?>
<svg baseProfile="full" height="256" version="1.1" width="256" xmlns="http://www.w3.org/2000/svg" xmlns:ev="http://www.w3.org/2001/xml-events" xmlns:xlink="http://www.w3.org/1999/xlink"><defs /><path d="M1364 -240Q1265 -240 1175.0 -213.0Q1085 -186 1007.5 -137.5Q930 -89 867.5 -21.5Q805 46 761.0 127.0Q717 208 693.0 299.5Q669 391 669 488Q669 585 693.0 676.5Q717 768 761.0 849.0Q805 930 867.5 998.0Q930 1066 1007.0 1114.5Q1084 1163 1174.0 1190.0Q1264 1217 1364 1217Q1463 1217 1553.5 1190.0Q1644 1163 1721.0 1114.5Q1798 1066 1860.5 998.0Q1923 930 1967.0 849.0Q2011 768 2035.0 676.5Q2059 585 2059 488Q2059 391 2035.0 299.5Q2011 208 1967.0 127.0Q1923 46 1860.5 -21.5Q1798 -89 1720.5 -137.5Q1643 -186 1553.0 -213.0Q1463 -240 1364 -240Z" style="fill:#636363;stroke:none" transform="scale(1,-1) translate(0,-256)" /></svg>