<?xml version="1.0" encoding="utf-8" ?>
<svg baseProfile="full" height="256" version="1.1" width="256" xmlns="http://www.w3.org/2000/svg" xmlns:ev="http://www.w3.org/2001/xml-events" xmlns:xlink="http://www.w3.org/1999/xlink"><defs /><path d="M1100 959Q1100 988 1120.5 1008.5Q1141 1029 1170 1029Q1199 1029 1220.0 1008.5Q1241 988 1241 959Q1241 949 1238 940H1103Q1101 945 1100.5 949.5Q1100 954 1100 959ZM1585 959Q1585 988 1564.0 1008.5Q1543 1029 1514 1029Q1486 1029 1464.5 1008.5Q1443 988 1443 959Q1443 954 1444.0 949.5Q1445 945 1446 940H1582Q1585 949 1585 959Z" style="fill:#7d4533;stroke:none" transform="scale(1,-1) translate(0,-256)" /></svg>