<?xml version="1.0" encoding="utf-8" ?>
<svg baseProfile="full" height="256" version="1.1" width="256" xmlns="http://www.w3.org/2000/svg" xmlns:ev="http://www.w3.org/2001/xml-events" xmlns:xlink="http://www.w3.org/1999/xlink"><defs /><path d="M2043 404Q2002 415 1967.5 438.0Q1933 461 1908.0 493.5Q1883 526 1869.0 565.0Q1855 604 1855 647Q1855 699 1875.0 745.0Q1895 791 1929.0 825.0Q1963 859 2009.0 879.0Q2055 899 2107 899Q2159 899 2204.5 879.0Q2250 859 2284.0 824.5Q2318 790 2338.0 744.5Q2358 699 2358 647Q2358 605 2344.0 565.5Q2330 526 2305.5 494.0Q2281 462 2246.5 438.5Q2212 415 2171 404Q2183 391 2190.0 374.0Q2197 357 2197 339V109Q2197 91 2190.0 74.0Q2183 57 2171.0 44.0Q2159 31 2142.5 23.5Q2126 16 2107 16Q2088 16 2071.5 23.5Q2055 31 2043.0 43.5Q2031 56 2024.0 73.0Q2017 90 2017 109V339Q2017 357 2024.0 374.0Q2031 391 2043 404ZM1909 647Q1909 606 1924.5 570.0Q1940 534 1967.0 507.0Q1994 480 2030.0 464.5Q2066 449 2107 449Q2148 449 2184.0 464.5Q2220 480 2247.0 507.0Q2274 534 2289.5 570.0Q2305 606 2305 647Q2305 688 2289.5 724.0Q2274 760 2247.0 787.0Q2220 814 2184.0 829.5Q2148 845 2107 845Q2066 845 2030.0 829.5Q1994 814 1967.0 787.0Q1940 760 1924.5 724.0Q1909 688 1909 647Z" style="fill:#321b41;stroke:none" transform="scale(1,-1) translate(0,-256)" /></svg>