<?xml version="1.0" encoding="utf-8" ?>
<svg baseProfile="full" height="256" version="1.1" width="256" xmlns="http://www.w3.org/2000/svg" xmlns:ev="http://www.w3.org/2001/xml-events" xmlns:xlink="http://www.w3.org/1999/xlink"><defs /><path d="M1158 987Q1158 982 1154.5 978.0Q1151 974 1146 974Q1134 974 1134 987Q1134 992 1137.5 995.5Q1141 999 1146 999Q1151 999 1154.5 995.5Q1158 992 1158 987ZM1504 987Q1504 974 1492 974Q1480 974 1480 987Q1480 992 1483.5 995.5Q1487 999 1492 999Q1497 999 1500.5 995.5Q1504 992 1504 987Z" style="fill:#ffffff;stroke:none" transform="scale(1,-1) translate(0,-256)" /></svg>