<?xml version="1.0" encoding="utf-8" ?>
<svg baseProfile="full" height="256" version="1.1" width="256" xmlns="http://www.w3.org/2000/svg" xmlns:ev="http://www.w3.org/2001/xml-events" xmlns:xlink="http://www.w3.org/1999/xlink"><defs /><path d="M1033 647 1226 -287H1129L762 322Q756 331 756 343Q756 362 768.0 372.0Q780 382 794.0 389.0Q808 396 820.0 404.0Q832 412 832 427Q832 439 822 447L663 585Q651 595 651 611Q651 626 661.5 636.5Q672 647 687 647ZM1636 647 1442 -287H1539L1906 322Q1912 331 1912 343Q1912 362 1900.0 372.0Q1888 382 1874.0 389.0Q1860 396 1848.0 404.0Q1836 412 1836 427Q1836 439 1846 447L2005 585Q2017 595 2017 611Q2017 626 2006.5 636.5Q1996 647 1981 647Z" style="fill:#8d65c5;stroke:none" transform="scale(1,-1) translate(0,-256)" /></svg>