<?xml version="1.0" encoding="utf-8" ?>
<svg baseProfile="full" height="256" version="1.1" width="256" xmlns="http://www.w3.org/2000/svg" xmlns:ev="http://www.w3.org/2001/xml-events" xmlns:xlink="http://www.w3.org/1999/xlink"><defs /><path d="M1422 1510Q1488 1510 1547.5 1485.0Q1607 1460 1651.0 1416.5Q1695 1373 1721.0 1315.0Q1747 1257 1747 1190Q1747 1178 1746.0 1167.0Q1745 1156 1744 1145Q1737 1033 1730.5 921.0Q1724 809 1716 697Q1714 677 1707.5 655.0Q1701 633 1693 615Q1674 573 1644.5 539.0Q1615 505 1578.0 481.0Q1541 457 1498.0 444.0Q1455 431 1409 431H1260Q1214 431 1171.0 444.0Q1128 457 1090.5 481.0Q1053 505 1023.5 539.0Q994 573 975 615Q967 633 960.5 655.0Q954 677 952 697Q944 809 937.5 921.0Q931 1033 923 1145Q922 1156 921.5 1165.5Q921 1175 921 1186Q921 1255 946.0 1314.0Q971 1373 1015.0 1416.5Q1059 1460 1118.0 1485.0Q1177 1510 1246 1510H1422Z" style="fill:#ffc83d;stroke:none" transform="scale(1,-1) translate(0,-256)" /></svg>