<?xml version="1.0" encoding="utf-8" ?>
<svg baseProfile="full" height="256" version="1.1" width="256" xmlns="http://www.w3.org/2000/svg" xmlns:ev="http://www.w3.org/2001/xml-events" xmlns:xlink="http://www.w3.org/1999/xlink"><defs /><path d="M1154 1050Q1172 1050 1191.0 1043.0Q1210 1036 1226.0 1023.0Q1242 1010 1252.0 993.0Q1262 976 1262 957Q1262 949 1256.0 944.5Q1250 940 1243 940H1068Q1059 940 1052.5 946.5Q1046 953 1046 961Q1046 980 1056.5 996.0Q1067 1012 1083.5 1024.0Q1100 1036 1118.5 1043.0Q1137 1050 1154 1050ZM1530 1050Q1497 1050 1470.0 1031.5Q1443 1013 1429 984Q1428 980 1425.0 972.0Q1422 964 1422 961Q1422 953 1426.0 946.5Q1430 940 1440 940H1616Q1624 940 1630.5 946.5Q1637 953 1637 962Q1637 980 1626.5 996.0Q1616 1012 1600.0 1024.0Q1584 1036 1565.0 1043.0Q1546 1050 1530 1050Z" style="fill:#ffffff;stroke:none" transform="scale(1,-1) translate(0,-256)" /></svg>