<?xml version="1.0" encoding="utf-8" ?>
<svg baseProfile="full" height="256" version="1.1" width="256" xmlns="http://www.w3.org/2000/svg" xmlns:ev="http://www.w3.org/2001/xml-events" xmlns:xlink="http://www.w3.org/1999/xlink"><defs /><path d="M1788 1434 1730 1355 1837 1294H1990Q2016 1294 2034.5 1275.5Q2053 1257 2053 1231Q2053 1218 2048.0 1208.0Q2043 1198 2035 1189Q1999 1149 1952.5 1118.5Q1906 1088 1854.0 1067.0Q1802 1046 1747.0 1035.0Q1692 1024 1639 1024H1030Q976 1024 921.5 1034.5Q867 1045 815.0 1066.0Q763 1087 717.0 1118.0Q671 1149 634 1189Q625 1199 620.0 1208.5Q615 1218 615 1232Q615 1259 634.0 1276.5Q653 1294 679 1294H831L937 1364L880 1434Q892 1476 907.5 1517.0Q923 1558 937 1600Q947 1628 965.5 1651.0Q984 1674 1008.5 1690.5Q1033 1707 1061.5 1716.0Q1090 1725 1120 1725Q1151 1725 1176.5 1715.0Q1202 1705 1226.5 1692.5Q1251 1680 1276.5 1670.0Q1302 1660 1333 1660Q1364 1660 1390.0 1670.0Q1416 1680 1440.5 1692.5Q1465 1705 1490.5 1715.0Q1516 1725 1547 1725Q1576 1725 1604.5 1716.0Q1633 1707 1658.0 1690.5Q1683 1674 1701.5 1651.0Q1720 1628 1730 1600Q1744 1558 1758.0 1516.5Q1772 1475 1788 1434Z" style="fill:#433b6b;stroke:none" transform="scale(1,-1) translate(0,-256)" /></svg>