<?xml version="1.0" encoding="utf-8" ?>
<svg baseProfile="full" height="256" version="1.1" width="256" xmlns="http://www.w3.org/2000/svg" xmlns:ev="http://www.w3.org/2001/xml-events" xmlns:xlink="http://www.w3.org/1999/xlink"><defs /><path d="M1748 1396Q1748 1378 1762.0 1355.5Q1776 1333 1792.5 1308.0Q1809 1283 1823.0 1256.0Q1837 1229 1837 1202Q1837 1188 1831.5 1176.5Q1826 1165 1820.0 1153.0Q1814 1141 1808.5 1126.5Q1803 1112 1803 1092V757Q1803 701 1771.0 655.5Q1739 610 1686 591L1537 539V1136Q1514 1162 1500.5 1188.5Q1487 1215 1483 1250Q1445 1245 1406.5 1257.0Q1368 1269 1339 1294Q1313 1271 1282.0 1260.0Q1251 1249 1217 1249Q1212 1249 1206.0 1249.0Q1200 1249 1195 1250Q1191 1220 1177.5 1188.5Q1164 1157 1141 1136V540L991 592Q938 610 906.5 656.5Q875 703 875 758V1093Q875 1116 868.0 1133.0Q861 1150 853.0 1164.0Q845 1178 838.0 1190.5Q831 1203 831 1217Q831 1234 844.0 1256.0Q857 1278 865 1294Q873 1309 880.5 1333.5Q888 1358 897.0 1382.5Q906 1407 918.0 1427.0Q930 1447 946 1453Q984 1468 1009.5 1488.0Q1035 1508 1058 1543Q1067 1557 1077.5 1563.0Q1088 1569 1105 1569Q1134 1569 1161.5 1560.0Q1189 1551 1218 1551Q1227 1551 1236.0 1561.5Q1245 1572 1253.5 1584.5Q1262 1597 1270.5 1607.5Q1279 1618 1287 1618Q1295 1618 1310.0 1612.0Q1325 1606 1339 1606Q1354 1606 1369.0 1612.0Q1384 1618 1392 1618Q1400 1618 1408.5 1607.5Q1417 1597 1425.5 1584.5Q1434 1572 1443.5 1561.5Q1453 1551 1462 1551Q1491 1551 1518.0 1559.0Q1545 1567 1573 1567Q1591 1567 1602.0 1560.5Q1613 1554 1623 1539Q1645 1505 1670.0 1486.5Q1695 1468 1732 1453Q1740 1449 1746.0 1445.0Q1752 1441 1752 1430Q1752 1422 1750.0 1413.0Q1748 1404 1748 1396Z" style="fill:#f1a11e;stroke:none" transform="scale(1,-1) translate(0,-256)" /></svg>