<?xml version="1.0" encoding="utf-8" ?>
<svg baseProfile="full" height="256" version="1.1" width="256" xmlns="http://www.w3.org/2000/svg" xmlns:ev="http://www.w3.org/2001/xml-events" xmlns:xlink="http://www.w3.org/1999/xlink"><defs /><path d="M1170 999Q1187 999 1198.5 987.5Q1210 976 1210 959Q1210 950 1205 940H1134Q1130 948 1130 959Q1130 976 1141.5 987.5Q1153 999 1170 999ZM1514 999Q1497 999 1485.5 987.5Q1474 976 1474 959Q1474 950 1479 940H1550Q1555 950 1555 959Q1555 976 1543.0 987.5Q1531 999 1514 999Z" style="fill:#000000;stroke:none" transform="scale(1,-1) translate(0,-256)" /></svg>