<?xml version="1.0" encoding="utf-8" ?>
<svg baseProfile="full" height="256" version="1.1" width="256" xmlns="http://www.w3.org/2000/svg" xmlns:ev="http://www.w3.org/2001/xml-events" xmlns:xlink="http://www.w3.org/1999/xlink"><defs /><path d="M2107 431Q2062 431 2023.0 448.0Q1984 465 1954.5 494.5Q1925 524 1908.0 563.0Q1891 602 1891 647Q1891 692 1908.0 731.0Q1925 770 1954.5 799.5Q1984 829 2023.0 846.0Q2062 863 2107 863Q2152 863 2191.0 846.0Q2230 829 2259.0 799.5Q2288 770 2305.0 731.0Q2322 692 2322 647Q2322 602 2305.0 563.0Q2288 524 2259.0 494.5Q2230 465 2191.0 448.0Q2152 431 2107 431Z" style="fill:#00d1ed;stroke:none" transform="scale(1,-1) translate(0,-256)" /></svg>