<?xml version="1.0" encoding="utf-8" ?>
<svg baseProfile="full" height="256" version="1.1" width="256" xmlns="http://www.w3.org/2000/svg" xmlns:ev="http://www.w3.org/2001/xml-events" xmlns:xlink="http://www.w3.org/1999/xlink"><defs /><path d="M1262 814Q1262 824 1267.5 844.5Q1273 865 1280.0 887.5Q1287 910 1294.5 931.0Q1302 952 1305 963Q1308 973 1315.5 979.5Q1323 986 1334 986Q1345 986 1353.0 979.5Q1361 973 1364 963Q1367 952 1374.0 931.0Q1381 910 1388.0 887.0Q1395 864 1400.5 844.0Q1406 824 1406 814Q1406 797 1394.0 784.0Q1382 771 1364 771H1304Q1286 771 1274.0 784.0Q1262 797 1262 814Z" style="fill:#ed9200;stroke:none" transform="scale(1,-1) translate(0,-256)" /></svg>