<?xml version="1.0" encoding="utf-8" ?>
<svg baseProfile="full" height="256" version="1.1" width="256" xmlns="http://www.w3.org/2000/svg" xmlns:ev="http://www.w3.org/2001/xml-events" xmlns:xlink="http://www.w3.org/1999/xlink"><defs /><path d="M646 316Q590 338 544.5 375.0Q499 412 467.0 459.5Q435 507 417.5 563.0Q400 619 400 679Q400 757 428.5 826.5Q457 896 507.0 949.0Q557 1002 624.5 1034.5Q692 1067 770 1071Q762 1079 755.5 1087.5Q749 1096 749 1107Q749 1121 760.0 1132.0Q771 1143 785 1143Q800 1143 812.5 1130.0Q825 1117 835 1107Q845 1118 857.5 1130.0Q870 1142 885 1142Q901 1142 911.0 1131.5Q921 1121 921 1106Q921 1095 915.0 1086.5Q909 1078 901 1071Q967 1067 1027.0 1042.0Q1087 1017 1135.0 975.5Q1183 934 1216.0 878.5Q1249 823 1262 758V1438Q1262 1468 1273.5 1494.0Q1285 1520 1304.5 1539.5Q1324 1559 1350.0 1570.0Q1376 1581 1406 1581Q1436 1581 1462.0 1570.0Q1488 1559 1507.5 1539.5Q1527 1520 1538.5 1494.0Q1550 1468 1550 1438V647Q1550 646 1555.5 625.5Q1561 605 1567.5 579.5Q1574 554 1580.0 531.5Q1586 509 1587 504Q1590 491 1589.5 477.0Q1589 463 1593 449Q1600 417 1617.5 399.5Q1635 382 1658.5 373.0Q1682 364 1710.0 362.0Q1738 360 1765 360Q1790 360 1817.5 362.0Q1845 364 1870.5 371.5Q1896 379 1916.0 395.0Q1936 411 1947 438Q1953 455 1953.5 471.0Q1954 487 1957 504Q1959 516 1963.0 536.0Q1967 556 1971.0 577.5Q1975 599 1978.0 618.0Q1981 637 1981 647V1438Q1981 1468 1992.5 1494.0Q2004 1520 2023.5 1539.5Q2043 1559 2069.0 1570.0Q2095 1581 2125 1581Q2155 1581 2181.0 1570.0Q2207 1559 2226.5 1539.5Q2246 1520 2257.0 1494.0Q2268 1468 2268 1438V566Q2302 575 2340 575Q2370 575 2391.0 554.0Q2412 533 2412 503Q2412 474 2390.5 452.5Q2369 431 2340 431Q2312 431 2293.5 417.0Q2275 403 2262.5 381.5Q2250 360 2242.5 335.0Q2235 310 2230 288H2229Q2188 159 2110.5 53.5Q2033 -52 1929.5 -128.0Q1826 -204 1701.5 -245.5Q1577 -287 1442 -287Q1303 -287 1175.5 -243.0Q1048 -199 943.0 -119.0Q838 -39 760.5 71.5Q683 182 646 316Z" style="fill:#f3ad61;stroke:none" transform="scale(1,-1) translate(0,-256)" /></svg>