<?xml version="1.0" encoding="utf-8" ?>
<svg baseProfile="full" height="256" version="1.1" width="256" xmlns="http://www.w3.org/2000/svg" xmlns:ev="http://www.w3.org/2001/xml-events" xmlns:xlink="http://www.w3.org/1999/xlink"><defs /><path d="M669 647Q646 647 630.5 662.5Q615 678 615 701Q615 724 630.5 739.5Q646 755 669 755Q692 755 707.5 739.5Q723 724 723 701Q723 678 707.5 662.5Q692 647 669 647ZM753 613Q753 627 762.5 637.0Q772 647 786 647H884Q898 647 908.0 637.0Q918 627 918 613Q918 602 911.0 592.5Q904 583 894.5 575.0Q885 567 875.0 560.0Q865 553 858 548Q848 540 835 540Q823 540 813 548Q806 553 796.0 560.0Q786 567 776.5 575.0Q767 583 760.0 592.5Q753 602 753 613ZM1047 701Q1047 679 1031.0 663.0Q1015 647 993 647Q970 647 954.5 662.5Q939 678 939 701Q939 724 954.5 739.5Q970 755 993 755Q1015 755 1031.0 739.0Q1047 723 1047 701Z" style="fill:#1c1c1c;stroke:none" transform="scale(1,-1) translate(0,-256)" /></svg>