<?xml version="1.0" encoding="utf-8" ?>
<svg baseProfile="full" height="256" version="1.1" width="256" xmlns="http://www.w3.org/2000/svg" xmlns:ev="http://www.w3.org/2001/xml-events" xmlns:xlink="http://www.w3.org/1999/xlink"><defs /><path d="M2021 1293H791Q739 1293 687.5 1304.0Q636 1315 588.0 1336.0Q540 1357 496.5 1388.0Q453 1419 419 1458Q399 1480 399 1508Q399 1537 418.0 1558.5Q437 1580 466 1580Q481 1580 492.0 1574.5Q503 1569 514 1559Q574 1501 640.0 1468.5Q706 1436 791 1436H2021Q2106 1436 2172.0 1468.5Q2238 1501 2298 1559Q2309 1569 2320.0 1574.5Q2331 1580 2345 1580Q2374 1580 2393.0 1558.5Q2412 1537 2412 1508Q2412 1480 2393 1458Q2359 1419 2316.0 1388.5Q2273 1358 2224.5 1336.5Q2176 1315 2124.0 1304.0Q2072 1293 2021 1293Z" style="fill:#44911b;stroke:none" transform="scale(1,-1) translate(0,-256)" /></svg>