<?xml version="1.0" encoding="utf-8" ?>
<svg baseProfile="full" height="256" version="1.1" width="256" xmlns="http://www.w3.org/2000/svg" xmlns:ev="http://www.w3.org/2001/xml-events" xmlns:xlink="http://www.w3.org/1999/xlink"><defs /><path d="M795 1258V1474Q795 1489 805.5 1499.5Q816 1510 831 1510Q846 1510 856.5 1499.5Q867 1489 867 1474Q867 1489 877.5 1499.5Q888 1510 903 1510Q918 1510 928.5 1499.5Q939 1489 939 1474Q939 1489 949.5 1499.5Q960 1510 975 1510Q990 1510 1000.5 1499.5Q1011 1489 1011 1474V1330Q1011 1301 989.5 1279.5Q968 1258 939 1258V1330Q939 1301 917.5 1279.5Q896 1258 867 1258V1330Q867 1300 846.0 1279.0Q825 1258 795 1258ZM791 999H878Q931 999 980.0 982.5Q1029 966 1069.5 936.0Q1110 906 1140.0 864.0Q1170 822 1185 771L1161 529Q1140 490 1110.0 458.5Q1080 427 1043.5 405.5Q1007 384 965.0 372.0Q923 360 879 360H791Q701 360 625.5 406.5Q550 453 508 532L486 774Q501 824 531.0 865.5Q561 907 601.5 936.5Q642 966 690.5 982.5Q739 999 791 999ZM1981 503Q1981 458 1964.0 419.0Q1947 380 1917.5 351.0Q1888 322 1849.0 305.0Q1810 288 1765 288Q1720 288 1681.0 305.0Q1642 322 1613.0 351.0Q1584 380 1567.0 419.0Q1550 458 1550 503V719Q1550 673 1567.0 633.5Q1584 594 1614.0 565.0Q1644 536 1684.0 519.5Q1724 503 1769 503Q1814 503 1852.5 521.0Q1891 539 1919.5 569.5Q1948 600 1964.5 639.5Q1981 679 1981 723ZM1693 1474V1258Q1723 1258 1744.0 1279.0Q1765 1300 1765 1330V1258Q1795 1258 1816.0 1279.0Q1837 1300 1837 1330V1258Q1867 1258 1888.0 1279.0Q1909 1300 1909 1330V1474Q1909 1489 1898.5 1499.5Q1888 1510 1873 1510Q1858 1510 1847.5 1499.5Q1837 1489 1837 1474Q1837 1489 1826.5 1499.5Q1816 1510 1801 1510Q1786 1510 1775.5 1499.5Q1765 1489 1765 1474Q1765 1489 1754.5 1499.5Q1744 1510 1729 1510Q1714 1510 1703.5 1499.5Q1693 1489 1693 1474Z" style="fill:#ffdea7;stroke:none" transform="scale(1,-1) translate(0,-256)" /></svg>