<?xml version="1.0" encoding="utf-8" ?>
<svg baseProfile="full" height="256" version="1.1" width="256" xmlns="http://www.w3.org/2000/svg" xmlns:ev="http://www.w3.org/2001/xml-events" xmlns:xlink="http://www.w3.org/1999/xlink"><defs /><path d="M872 698Q872 722 881.0 744.0Q890 766 906.0 782.5Q922 799 943.5 809.0Q965 819 990 819Q1005 819 1031.5 813.0Q1058 807 1086.5 799.5Q1115 792 1141.5 783.5Q1168 775 1185 771Q1199 726 1199 680Q1199 640 1189.0 601.5Q1179 563 1161 528L960 583Q921 594 896.5 625.5Q872 657 872 698ZM486 774Q502 778 527.5 785.5Q553 793 580.0 800.5Q607 808 632.0 813.5Q657 819 672 819Q697 819 718.5 809.5Q740 800 756.0 783.5Q772 767 781.5 745.5Q791 724 791 699Q791 659 766.0 626.0Q741 593 702 582L508 531Q490 565 481.0 603.0Q472 641 472 679Q472 703 475.0 727.0Q478 751 486 774Z" style="fill:#636363;stroke:none" transform="scale(1,-1) translate(0,-256)" /></svg>