<?xml version="1.0" encoding="utf-8" ?>
<svg baseProfile="full" height="256" version="1.1" width="256" xmlns="http://www.w3.org/2000/svg" xmlns:ev="http://www.w3.org/2001/xml-events" xmlns:xlink="http://www.w3.org/1999/xlink"><defs /><path d="M641 1173Q641 1190 651 1208L831 1519Q841 1536 857.5 1545.5Q874 1555 894 1555Q923 1555 944.0 1534.0Q965 1513 965 1484Q965 1470 958.5 1454.0Q952 1438 943.0 1422.5Q934 1407 924.0 1392.0Q914 1377 908 1366H1981Q2011 1366 2032.0 1345.0Q2053 1324 2053 1294Q2053 1263 2038.5 1248.0Q2024 1233 2002.0 1227.0Q1980 1221 1955.0 1221.5Q1930 1222 1909 1222V935H2053Q2082 935 2103.5 913.5Q2125 892 2125 863Q2125 833 2104.0 812.0Q2083 791 2053 791H1909V503Q1930 503 1955.0 503.5Q1980 504 2002.0 498.0Q2024 492 2038.5 477.0Q2053 462 2053 431Q2053 402 2031.5 381.0Q2010 360 1981 360H831Q802 360 780.5 381.0Q759 402 759 431Q759 462 773.5 477.0Q788 492 810.0 498.0Q832 504 857.0 503.5Q882 503 903 503V791H759Q729 791 708.0 812.0Q687 833 687 863Q687 892 708.5 913.5Q730 935 759 935H903V1222H831H825L776 1136Q766 1119 749.5 1109.5Q733 1100 714 1100Q684 1100 662.5 1121.5Q641 1143 641 1173ZM1622 791V503H1765V791ZM1622 1222V935H1765V1222ZM1334 1222V935H1478V1222ZM1334 791V503H1478V791ZM1047 791V503H1190V791ZM1047 1222V935H1190V1222ZM1279 200Q1279 229 1300.0 250.0Q1321 271 1350 271Q1374 271 1394.0 256.0Q1414 241 1420 218Q1423 205 1429.5 183.5Q1436 162 1442.5 138.5Q1449 115 1454.0 94.0Q1459 73 1459 61Q1459 32 1438.0 10.5Q1417 -11 1388 -11Q1364 -11 1344.0 4.0Q1324 19 1318 42Q1315 55 1308.5 76.5Q1302 98 1295.5 121.5Q1289 145 1284.0 166.5Q1279 188 1279 200ZM1566 199Q1566 229 1587.0 250.0Q1608 271 1638 271Q1662 271 1681.5 256.5Q1701 242 1707 218Q1710 205 1717.0 183.0Q1724 161 1730.5 137.5Q1737 114 1742.0 93.0Q1747 72 1747 60Q1747 31 1726.0 10.0Q1705 -11 1676 -11Q1651 -11 1632.0 4.0Q1613 19 1606 42Q1603 55 1596.0 77.0Q1589 99 1582.5 122.0Q1576 145 1571.0 166.0Q1566 187 1566 199ZM1854 200Q1854 229 1875.0 250.0Q1896 271 1925 271Q1949 271 1969.0 256.0Q1989 241 1995 218Q1998 205 2004.5 183.5Q2011 162 2017.5 138.5Q2024 115 2029.0 94.0Q2034 73 2034 61Q2034 32 2013.0 10.5Q1992 -11 1963 -11Q1939 -11 1919.0 4.0Q1899 19 1893 42Q1890 55 1883.5 76.5Q1877 98 1870.5 121.5Q1864 145 1859.0 166.5Q1854 188 1854 200ZM1002 265Q1031 265 1052.0 243.5Q1073 222 1073 193Q1073 175 1063 157L991 32Q981 15 965.0 5.5Q949 -4 929 -4Q900 -4 878.5 17.5Q857 39 857 68Q857 86 867 104L939 228Q949 245 965.5 255.0Q982 265 1002 265Z" style="fill:#ffffff;stroke:none" transform="scale(1,-1) translate(0,-256)" /></svg>