<?xml version="1.0" encoding="utf-8" ?>
<svg baseProfile="full" height="256" version="1.1" width="256" xmlns="http://www.w3.org/2000/svg" xmlns:ev="http://www.w3.org/2001/xml-events" xmlns:xlink="http://www.w3.org/1999/xlink"><defs /><path d="M946 564Q946 593 957.0 618.5Q968 644 987.5 663.5Q1007 683 1032.5 694.0Q1058 705 1087 705Q1116 705 1141.5 694.0Q1167 683 1186.5 664.0Q1206 645 1217.5 619.0Q1229 593 1229 564Q1229 546 1224 526H951Q946 546 946 564ZM1849 564Q1849 593 1838.0 618.5Q1827 644 1807.5 663.5Q1788 683 1762.5 694.0Q1737 705 1708 705Q1679 705 1653.5 694.0Q1628 683 1608.5 663.5Q1589 644 1578.0 618.5Q1567 593 1567 564Q1567 554 1568.0 544.5Q1569 535 1572 526H1844Q1849 546 1849 564Z" style="fill:#7d4533;stroke:none" transform="scale(1,-1) translate(0,-256)" /></svg>