<?xml version="1.0" encoding="utf-8" ?>
<svg baseProfile="full" height="256" version="1.1" width="256" xmlns="http://www.w3.org/2000/svg" xmlns:ev="http://www.w3.org/2001/xml-events" xmlns:xlink="http://www.w3.org/1999/xlink"><defs /><path d="M671 872Q670 884 673.5 892.5Q677 901 682 912Q699 951 735.0 974.5Q771 998 813 998H901Q952 998 998.5 1015.0Q1045 1032 1083.0 1062.0Q1121 1092 1148.0 1133.5Q1175 1175 1186 1225Q1219 1172 1264.0 1130.0Q1309 1088 1362.0 1058.5Q1415 1029 1474.5 1013.5Q1534 998 1596 998H1965Q2014 998 2054.5 970.5Q2095 943 2113 897Q2118 886 2121.0 878.5Q2124 871 2123 860Q2119 748 2115.5 636.0Q2112 524 2108 412Q2103 263 2047.5 135.5Q1992 8 1897.5 -85.5Q1803 -179 1675.0 -232.5Q1547 -286 1397 -286Q1297 -286 1206.5 -262.0Q1116 -238 1038.5 -193.0Q961 -148 897.5 -85.5Q834 -23 788.0 55.0Q742 133 715.5 223.0Q689 313 686 412Q682 527 678.5 642.0Q675 757 671 872Z" style="fill:#ffc83d;stroke:none" transform="scale(1,-1) translate(0,-256)" /></svg>