<?xml version="1.0" encoding="utf-8" ?>
<svg baseProfile="full" height="256" version="1.1" width="256" xmlns="http://www.w3.org/2000/svg" xmlns:ev="http://www.w3.org/2001/xml-events" xmlns:xlink="http://www.w3.org/1999/xlink"><defs /><path d="M2083 1412Q2196 1347 2260.0 1244.5Q2324 1142 2324 1009V875Q2324 837 2297.0 810.0Q2270 783 2232 783H2194L2260 569H2183V160Q2183 97 2159.0 42.0Q2135 -13 2093.5 -54.5Q2052 -96 1997.0 -120.0Q1942 -144 1879 -144H1805V569H990V-144H916Q853 -144 798.0 -120.0Q743 -96 701.5 -54.5Q660 -13 636.0 42.0Q612 97 612 160V463Q612 488 617.0 516.0Q622 544 625 569H534L600 777H559Q535 777 518.5 786.5Q502 796 491.0 811.5Q480 827 475.0 847.0Q470 867 470 888V1095Q470 1191 506.5 1276.0Q543 1361 606.0 1424.0Q669 1487 754.0 1523.5Q839 1560 935 1560Q943 1560 953.5 1561.5Q964 1563 971 1561Q975 1593 989.5 1620.5Q1004 1648 1026.5 1668.5Q1049 1689 1078.0 1700.5Q1107 1712 1139 1712H1911Q1958 1712 2001.0 1697.5Q2044 1683 2079.5 1656.5Q2115 1630 2141.5 1593.5Q2168 1557 2183 1513Q2186 1502 2186 1492Q2186 1464 2173.5 1450.5Q2161 1437 2142.0 1431.5Q2123 1426 2100.5 1426.0Q2078 1426 2059 1426Z" style="fill:#ed9200;stroke:none" transform="scale(1,-1) translate(0,-256)" /></svg>