<?xml version="1.0" encoding="utf-8" ?>
<svg baseProfile="full" height="256" version="1.1" width="256" xmlns="http://www.w3.org/2000/svg" xmlns:ev="http://www.w3.org/2001/xml-events" xmlns:xlink="http://www.w3.org/1999/xlink"><defs /><path d="M600 777Q602 743 602.5 709.0Q603 675 605 641Q607 612 628.0 591.5Q649 571 678 571L670 815Q682 817 694.5 818.5Q707 820 719 820Q767 820 809.0 801.5Q851 783 882.5 751.5Q914 720 932.5 678.0Q951 636 951 588Q951 540 932.5 498.0Q914 456 882.5 424.5Q851 393 809.0 375.0Q767 357 719 357Q671 357 629.0 375.0Q587 393 555.5 424.5Q524 456 506.0 498.0Q488 540 488 588Q488 645 513.5 695.0Q539 745 585 777ZM2116 571Q2147 571 2166.5 591.0Q2186 611 2188 641Q2192 711 2194 783H2200Q2250 751 2278.0 699.5Q2306 648 2306 588Q2306 540 2287.5 498.0Q2269 456 2237.5 424.5Q2206 393 2164.0 375.0Q2122 357 2074 357Q2026 357 1983.5 375.0Q1941 393 1909.5 424.5Q1878 456 1860.0 498.0Q1842 540 1842 588Q1842 636 1860.0 678.0Q1878 720 1909.5 751.5Q1941 783 1983.5 801.5Q2026 820 2074 820Q2087 820 2099.5 818.5Q2112 817 2124 815Z" style="fill:#fdbb11;stroke:none" transform="scale(1,-1) translate(0,-256)" /></svg>