<?xml version="1.0" encoding="utf-8" ?>
<svg baseProfile="full" height="256" version="1.1" width="256" xmlns="http://www.w3.org/2000/svg" xmlns:ev="http://www.w3.org/2001/xml-events" xmlns:xlink="http://www.w3.org/1999/xlink"><defs /><path d="M1262 1006Q1262 961 1245.0 922.0Q1228 883 1199.0 854.0Q1170 825 1131.0 808.0Q1092 791 1047 791Q1002 791 963.0 808.0Q924 825 894.5 854.0Q865 883 848.0 922.0Q831 961 831 1006Q831 1051 848.0 1090.5Q865 1130 894.0 1159.0Q923 1188 962.5 1205.0Q1002 1222 1047 1222Q1092 1222 1131.0 1205.0Q1170 1188 1199.0 1158.5Q1228 1129 1245.0 1090.0Q1262 1051 1262 1006ZM1981 1006Q1981 961 1964.0 922.0Q1947 883 1917.5 854.0Q1888 825 1849.0 808.0Q1810 791 1765 791Q1720 791 1681.0 808.0Q1642 825 1613.0 854.0Q1584 883 1567.0 922.0Q1550 961 1550 1006Q1550 1051 1567.0 1090.0Q1584 1129 1613.0 1158.5Q1642 1188 1681.0 1205.0Q1720 1222 1765 1222Q1810 1222 1849.0 1205.0Q1888 1188 1917.5 1158.5Q1947 1129 1964.0 1090.0Q1981 1051 1981 1006ZM1406 431Q1459 431 1512.0 421.5Q1565 412 1613.5 391.0Q1662 370 1703.0 336.5Q1744 303 1773 256Q1784 237 1799.5 226.5Q1815 216 1838 216Q1867 216 1888.0 237.0Q1909 258 1909 287Q1909 296 1907.0 304.0Q1905 312 1901 320Q1891 342 1875.0 363.0Q1859 384 1843 401Q1801 447 1750.5 480.0Q1700 513 1644.0 534.0Q1588 555 1527.5 565.0Q1467 575 1406 575Q1344 575 1284.0 565.0Q1224 555 1168.0 534.0Q1112 513 1061.0 480.0Q1010 447 968 401Q953 384 936.5 362.5Q920 341 910 320Q903 306 903 288Q903 259 924.0 237.5Q945 216 974 216Q997 216 1012.5 226.5Q1028 237 1039 256Q1067 303 1108.5 336.5Q1150 370 1198.5 391.0Q1247 412 1300.0 421.5Q1353 431 1406 431Z" style="fill:#402a32;stroke:none" transform="scale(1,-1) translate(0,-256)" /></svg>