<?xml version="1.0" encoding="utf-8" ?>
<svg baseProfile="full" height="256" version="1.1" width="256" xmlns="http://www.w3.org/2000/svg" xmlns:ev="http://www.w3.org/2001/xml-events" xmlns:xlink="http://www.w3.org/1999/xlink"><defs /><path d="M1407 718Q1437 718 1463.0 706.5Q1489 695 1508.5 675.5Q1528 656 1539.5 630.0Q1551 604 1551 574V342Q1551 318 1566.0 302.0Q1581 286 1606 286Q1672 286 1727.5 263.0Q1783 240 1823.5 199.5Q1864 159 1887.0 103.5Q1910 48 1910 -18V-123Q1910 -186 1886.0 -241.5Q1862 -297 1821.0 -338.0Q1780 -379 1724.5 -403.0Q1669 -427 1606 -427H1568Q1505 -427 1449.5 -403.0Q1394 -379 1353.0 -338.0Q1312 -297 1288.0 -241.5Q1264 -186 1264 -123V574Q1264 604 1275.0 630.0Q1286 656 1305.5 675.5Q1325 695 1351.0 706.5Q1377 718 1407 718Z" style="fill:#ff822d;stroke:none" transform="scale(1,-1) translate(0,-256)" /></svg>