<?xml version="1.0" encoding="utf-8" ?>
<svg baseProfile="full" height="256" version="1.1" width="256" xmlns="http://www.w3.org/2000/svg" xmlns:ev="http://www.w3.org/2001/xml-events" xmlns:xlink="http://www.w3.org/1999/xlink"><defs /><path d="M1019 1414Q1030 1434 1040.5 1454.0Q1051 1474 1061 1494H784V1575H1440V1494H1151Q1132 1451 1112 1414H1373V931H1291V979H928V931H846V1414ZM1015 218H1521V-134H1435V-71H1102V-134H1015ZM998 375Q969 358 939.5 343.0Q910 328 880 314V-31Q880 -71 857.0 -98.5Q834 -126 792 -126H756Q742 -126 729.0 -126.0Q716 -126 702 -124L677 -36Q698 -38 718.5 -39.0Q739 -40 760 -40H771Q776 -40 781.5 -39.5Q787 -39 792 -37Q793 -36 793 -32V273Q763 260 732.5 248.0Q702 236 671 225L642 304Q681 317 718.5 333.0Q756 349 793 366V550H653V636H793V832H880V636H992V550H880V408Q906 420 930.5 433.0Q955 446 980 460ZM1322 546Q1350 506 1381.5 474.0Q1413 442 1448.0 415.0Q1483 388 1521.0 364.0Q1559 340 1599 315Q1604 313 1607.5 310.0Q1611 307 1616 304L1565 229Q1535 248 1504.5 266.0Q1474 284 1445 305V280H1084V302Q1058 283 1030.5 267.0Q1003 251 977 233L916 301Q971 329 1017.5 360.5Q1064 392 1104.5 429.0Q1145 466 1181.5 509.0Q1218 552 1254 602L1342 577ZM1454 827V729H1606V644H1454V536H1368V644H1273V729H1368V827ZM1084 537V646H935V729H1084V827H1170V729H1259V646H1170V537ZM1102 131V16H1435V131ZM928 1163V1062H1291V1163ZM1291 1245V1333H928V1245ZM1369 366Q1341 391 1315.0 418.0Q1289 445 1266 474Q1219 417 1162 366Z" style="fill:#007356;stroke:none" transform="scale(1,-1) translate(0,-256)" /></svg>