<?xml version="1.0" encoding="utf-8" ?>
<svg baseProfile="full" height="256" version="1.1" width="256" xmlns="http://www.w3.org/2000/svg" xmlns:ev="http://www.w3.org/2001/xml-events" xmlns:xlink="http://www.w3.org/1999/xlink"><defs /><path d="M2312 -287H1437Q1416 -287 1397.5 -279.0Q1379 -271 1365.0 -257.0Q1351 -243 1343.0 -224.5Q1335 -206 1335 -185V760Q1335 781 1343.0 800.0Q1351 819 1364.5 833.0Q1378 847 1397.0 855.0Q1416 863 1437 863H2312Q2333 863 2351.5 855.0Q2370 847 2384.0 832.5Q2398 818 2406.0 799.5Q2414 781 2414 760V-186Q2414 -207 2406.0 -225.5Q2398 -244 2384.0 -257.5Q2370 -271 2351.5 -279.0Q2333 -287 2312 -287Z" style="fill:#f9c23c;stroke:none" transform="scale(1,-1) translate(0,-256)" /></svg>