<?xml version="1.0" encoding="utf-8" ?>
<svg baseProfile="full" height="256" version="1.1" width="256" xmlns="http://www.w3.org/2000/svg" xmlns:ev="http://www.w3.org/2001/xml-events" xmlns:xlink="http://www.w3.org/1999/xlink"><defs /><path d="M1518 717Q1533 717 1543.5 706.5Q1554 696 1554 681V488Q1554 425 1583.0 374.0Q1612 323 1658.0 288.0Q1704 253 1761.5 234.0Q1819 215 1877 215Q1935 215 1992.5 234.0Q2050 253 2096.0 288.0Q2142 323 2170.5 374.0Q2199 425 2199 488V681Q2199 696 2209.5 706.5Q2220 717 2235 717Q2250 717 2260.5 706.5Q2271 696 2271 681V488Q2271 409 2237.0 345.5Q2203 282 2147.5 237.0Q2092 192 2021.0 167.5Q1950 143 1877 143Q1804 143 1733.0 167.5Q1662 192 1606.5 237.0Q1551 282 1516.5 345.5Q1482 409 1482 488V681Q1482 696 1492.5 706.5Q1503 717 1518 717Z" style="fill:#ff6723;stroke:none" transform="scale(1,-1) translate(0,-256)" /></svg>