<?xml version="1.0" encoding="utf-8" ?>
<svg baseProfile="full" height="256" version="1.1" width="256" xmlns="http://www.w3.org/2000/svg" xmlns:ev="http://www.w3.org/2001/xml-events" xmlns:xlink="http://www.w3.org/1999/xlink"><defs /><path d="M1559 -141H524Q498 -141 475.5 -131.0Q453 -121 436.5 -104.5Q420 -88 410.0 -65.5Q400 -43 400 -17V1170Q400 1195 410.0 1218.0Q420 1241 436.5 1257.5Q453 1274 475.5 1284.0Q498 1294 524 1294H1559Q1584 1294 1607.0 1284.0Q1630 1274 1646.5 1257.5Q1663 1241 1673.0 1218.0Q1683 1195 1683 1170V-18Q1683 -44 1673.0 -66.5Q1663 -89 1646.5 -105.5Q1630 -122 1607.0 -131.5Q1584 -141 1559 -141Z" style="fill:#00a6ed;stroke:none" transform="scale(1,-1) translate(0,-256)" /></svg>