<?xml version="1.0" encoding="utf-8" ?>
<svg baseProfile="full" height="256" version="1.1" width="256" xmlns="http://www.w3.org/2000/svg" xmlns:ev="http://www.w3.org/2001/xml-events" xmlns:xlink="http://www.w3.org/1999/xlink"><defs /><path d="M1048 1725Q1130 1725 1208.0 1696.5Q1286 1668 1346.5 1617.0Q1407 1566 1443.5 1494.0Q1480 1422 1480 1335V1114Q1480 1099 1469.5 1088.5Q1459 1078 1444 1078Q1429 1078 1418.5 1088.5Q1408 1099 1408 1114V1335Q1408 1407 1377.0 1465.5Q1346 1524 1295.0 1566.0Q1244 1608 1179.5 1630.5Q1115 1653 1048 1653Q981 1653 916.0 1630.5Q851 1608 800.0 1566.0Q749 1524 718.0 1465.5Q687 1407 687 1335V1114Q687 1099 676.5 1088.5Q666 1078 651 1078Q636 1078 625.5 1088.5Q615 1099 615 1114V1335Q615 1422 652.0 1494.0Q689 1566 749.5 1617.0Q810 1668 888.0 1696.5Q966 1725 1048 1725ZM400 813H1683V646H400ZM400 490H1683V323H400ZM1683 0H400V168H1683Z" style="fill:#0074ba;stroke:none" transform="scale(1,-1) translate(0,-256)" /></svg>