<?xml version="1.0" encoding="utf-8" ?>
<svg baseProfile="full" height="256" version="1.1" width="256" xmlns="http://www.w3.org/2000/svg" xmlns:ev="http://www.w3.org/2001/xml-events" xmlns:xlink="http://www.w3.org/1999/xlink"><defs /><path d="M1334 1151Q1334 1166 1344.5 1176.5Q1355 1187 1370 1187Q1384 1187 1395.0 1176.0Q1406 1165 1406 1151V1006Q1406 992 1395.0 981.5Q1384 971 1370 971Q1355 971 1344.5 981.0Q1334 991 1334 1006ZM1478 1151Q1478 1166 1488.5 1176.5Q1499 1187 1514 1187Q1529 1187 1539.5 1176.5Q1550 1166 1550 1151V1006Q1550 992 1539.0 981.5Q1528 971 1514 971Q1499 971 1488.5 981.0Q1478 991 1478 1006Z" style="fill:#636363;stroke:none" transform="scale(1,-1) translate(0,-256)" /></svg>