<?xml version="1.0" encoding="utf-8" ?>
<svg baseProfile="full" height="256" version="1.1" width="256" xmlns="http://www.w3.org/2000/svg" xmlns:ev="http://www.w3.org/2001/xml-events" xmlns:xlink="http://www.w3.org/1999/xlink"><defs /><path d="M2053 1725Q2083 1725 2104.0 1704.0Q2125 1683 2125 1653V1390Q2194 1331 2247.0 1259.0Q2300 1187 2337.0 1106.5Q2374 1026 2393.0 938.5Q2412 851 2412 761Q2412 647 2382.5 540.5Q2353 434 2299.0 341.5Q2245 249 2169.0 173.0Q2093 97 2001.0 42.5Q1909 -12 1802.5 -42.0Q1696 -72 1582 -72Q1552 -72 1535 -97Q1510 -134 1487.0 -168.5Q1464 -203 1436.0 -229.0Q1408 -255 1372.5 -271.0Q1337 -287 1287 -287H1170Q1159 -287 1151.0 -279.0Q1143 -271 1143 -260Q1143 -246 1160.0 -222.0Q1177 -198 1197.0 -171.0Q1217 -144 1234.0 -118.0Q1251 -92 1251 -73Q1251 -54 1241 -41L865 460Q859 467 859 476Q859 487 867.0 495.0Q875 503 886 503H976Q1079 503 1171.5 458.5Q1264 414 1328 334L1454 176Q1471 154 1500 154Q1513 154 1526.5 158.0Q1540 162 1553 165L1582 110L2127 371V794H2125V756Q2081 756 2038.5 760.5Q1996 765 1953 773Q1939 776 1925.0 779.5Q1911 783 1897 786Q1890 788 1883.5 791.0Q1877 794 1869 794H1693V482Q1693 461 1678.5 446.0Q1664 431 1643 431Q1634 431 1627.5 433.5Q1621 436 1614 440Q1557 473 1528.5 510.5Q1500 548 1488.5 591.0Q1477 634 1477.5 684.0Q1478 734 1478 794H547Q527 811 501.5 836.5Q476 862 453.5 891.0Q431 920 415.5 950.5Q400 981 400 1009Q400 1053 426 1087Q516 1207 633.5 1301.0Q751 1395 886.0 1460.0Q1021 1525 1168.0 1559.0Q1315 1593 1464 1593Q1509 1593 1553.5 1593.0Q1598 1593 1643 1591Q1682 1615 1733.5 1639.0Q1785 1663 1841.0 1682.0Q1897 1701 1952.5 1713.0Q2008 1725 2053 1725Z" style="fill:#9b9b9b;stroke:none" transform="scale(1,-1) translate(0,-256)" /></svg>