<?xml version="1.0" encoding="utf-8" ?>
<svg baseProfile="full" height="256" version="1.1" width="256" xmlns="http://www.w3.org/2000/svg" xmlns:ev="http://www.w3.org/2001/xml-events" xmlns:xlink="http://www.w3.org/1999/xlink"><defs /><path d="M1932 1064Q1933 1064 1934.0 1063.5Q1935 1063 1937 1063Q2011 1044 2072.5 1001.5Q2134 959 2178.0 900.0Q2222 841 2246.5 770.0Q2271 699 2271 624Q2271 566 2256.0 511.0Q2241 456 2213.5 406.5Q2186 357 2146.5 315.0Q2107 273 2059 242L1991 198Q1891 133 1780.5 91.0Q1670 49 1552 31V164Q1588 175 1634.0 191.5Q1680 208 1728.0 230.5Q1776 253 1821.5 281.5Q1867 310 1902.5 344.0Q1938 378 1959.5 417.5Q1981 457 1981 503Q1981 536 1967.0 563.0Q1953 590 1930.0 608.5Q1907 627 1877.5 637.0Q1848 647 1817 647H914Q867 647 817.0 659.0Q767 671 718.5 691.0Q670 711 626.0 737.5Q582 764 546 794L647 881Q759 978 895.0 1028.0Q1031 1078 1179 1078H1674Q1693 1078 1693 1059Q1693 992 1724.5 934.5Q1756 877 1811 839Q1822 831 1833.0 824.5Q1844 818 1858 818Q1885 818 1896.5 836.0Q1908 854 1910.5 881.5Q1913 909 1910.0 941.0Q1907 973 1906.0 1000.5Q1905 1028 1909.5 1046.0Q1914 1064 1932 1064Z" style="fill:#d3d3d3;stroke:none" transform="scale(1,-1) translate(0,-256)" /></svg>