<?xml version="1.0" encoding="utf-8" ?>
<svg baseProfile="full" height="256" version="1.1" width="256" xmlns="http://www.w3.org/2000/svg" xmlns:ev="http://www.w3.org/2001/xml-events" xmlns:xlink="http://www.w3.org/1999/xlink"><defs /><path d="M1877 694Q1903 694 1924.5 679.0Q1946 664 1963 647L2340 270Q2354 256 2363.0 242.5Q2372 229 2372 209Q2372 190 2363.0 174.0Q2354 158 2340 144L1945 -251Q1932 -264 1915.0 -276.5Q1898 -289 1878 -289Q1866 -289 1855.5 -283.0Q1845 -277 1837 -269L1568 0V378Q1568 389 1573.5 401.5Q1579 414 1587.5 426.0Q1596 438 1605.0 448.5Q1614 459 1622 467Q1633 478 1650.0 496.5Q1667 515 1687.5 537.5Q1708 560 1730.0 583.5Q1752 607 1772.5 627.0Q1793 647 1810.0 662.0Q1827 677 1837 683Q1856 694 1877 694ZM2142 207Q2142 229 2133.5 248.5Q2125 268 2110.5 282.5Q2096 297 2076.5 305.5Q2057 314 2035 314Q2014 314 1994.0 306.0Q1974 298 1959 283L1806 131Q1791 116 1782.5 96.0Q1774 76 1774 54Q1774 32 1782.5 12.5Q1791 -7 1806.0 -22.0Q1821 -37 1840.5 -45.5Q1860 -54 1882 -54Q1904 -54 1924.0 -45.5Q1944 -37 1959 -22L2111 131Q2126 146 2134.0 166.0Q2142 186 2142 207Z" style="fill:#7d4533;stroke:none" transform="scale(1,-1) translate(0,-256)" /></svg>