<?xml version="1.0" encoding="utf-8" ?>
<svg baseProfile="full" height="256" version="1.1" width="256" xmlns="http://www.w3.org/2000/svg" xmlns:ev="http://www.w3.org/2001/xml-events" xmlns:xlink="http://www.w3.org/1999/xlink"><defs /><path d="M1370 18Q1358 18 1345.0 21.0Q1332 24 1321.5 30.5Q1311 37 1304.5 47.5Q1298 58 1298 72V234Q1298 247 1279.5 261.0Q1261 275 1236.5 287.0Q1212 299 1188.0 308.5Q1164 318 1154 324Q1137 333 1129.0 356.5Q1121 380 1118.5 407.0Q1116 434 1117.0 460.5Q1118 487 1118 503Q1118 514 1105.0 524.0Q1092 534 1083 539L975 593Q963 599 956.0 621.5Q949 644 945.0 670.0Q941 696 940.0 720.5Q939 745 939 755Q939 772 928.5 787.0Q918 802 903 809Q892 814 871.0 825.5Q850 837 829.0 852.0Q808 867 792.5 884.0Q777 901 777 917V1006Q777 1029 765.0 1044.5Q753 1060 735.5 1071.0Q718 1082 697.5 1090.0Q677 1098 659.0 1106.0Q641 1114 628.5 1124.0Q616 1134 616 1150Q615 1180 615.5 1207.5Q616 1235 610.5 1258.5Q605 1282 590.0 1300.5Q575 1319 543 1330Q537 1332 528.0 1335.5Q519 1339 510.0 1344.0Q501 1349 495.0 1355.5Q489 1362 489 1370Q489 1379 495.5 1387.5Q502 1396 508 1402L795 1689Q808 1702 825.0 1714.5Q842 1727 862 1727Q874 1727 884.5 1721.0Q895 1715 903 1707L1967 644L1568 18H1370Z" style="fill:#b4acbc;stroke:none" transform="scale(1,-1) translate(0,-256)" /></svg>