<?xml version="1.0" encoding="utf-8" ?>
<svg baseProfile="full" height="256" version="1.1" width="256" xmlns="http://www.w3.org/2000/svg" xmlns:ev="http://www.w3.org/2001/xml-events" xmlns:xlink="http://www.w3.org/1999/xlink"><defs /><path d="M903 245Q903 275 924.0 296.0Q945 317 975 317H1117Q1119 319 1120 319Q1169 314 1220.0 326.0Q1271 338 1312.5 365.5Q1354 393 1380.0 435.0Q1406 477 1406 533V946Q1406 960 1390.0 963.5Q1374 967 1350.0 966.0Q1326 965 1298.5 962.5Q1271 960 1247.0 963.5Q1223 967 1207.0 979.0Q1191 991 1191 1018Q1191 1040 1207 1056L1512 1358Q1527 1373 1550 1373Q1573 1373 1588 1358L1892 1056Q1908 1040 1908 1018Q1908 991 1892.0 979.0Q1876 967 1852.0 963.5Q1828 960 1800.5 962.5Q1773 965 1749.0 966.0Q1725 967 1709.0 963.5Q1693 960 1693 946V533Q1693 423 1648.5 331.0Q1604 239 1529.5 171.5Q1455 104 1357.5 66.5Q1260 29 1154 29Q1145 29 1136.5 29.5Q1128 30 1119 31Q1118 31 1118 29H975Q946 29 924.5 50.5Q903 72 903 101Z" style="fill:#ffffff;stroke:none" transform="scale(1,-1) translate(0,-256)" /></svg>