<?xml version="1.0" encoding="utf-8" ?>
<svg baseProfile="full" height="256" version="1.1" width="256" xmlns="http://www.w3.org/2000/svg" xmlns:ev="http://www.w3.org/2001/xml-events" xmlns:xlink="http://www.w3.org/1999/xlink"><defs /><path d="M1945 1442Q1959 1442 1970.0 1431.0Q1981 1420 1981 1406V1258Q1981 1243 1970.5 1232.5Q1960 1222 1945 1222H1370Q1355 1222 1344.5 1232.5Q1334 1243 1334 1258Q1334 1273 1344.5 1283.5Q1355 1294 1370 1294H1478Q1474 1301 1465.5 1317.0Q1457 1333 1448.5 1350.0Q1440 1367 1433.5 1382.5Q1427 1398 1427 1406Q1427 1420 1438.0 1431.0Q1449 1442 1463 1442ZM1945 1150Q1960 1150 1970.5 1139.5Q1981 1129 1981 1114V1078Q1981 1028 1959.0 988.0Q1937 948 1901.0 920.5Q1865 893 1820.0 878.0Q1775 863 1729 863Q1684 863 1639.0 878.0Q1594 893 1558.0 921.0Q1522 949 1500.0 988.5Q1478 1028 1478 1078V1114Q1478 1129 1488.5 1139.5Q1499 1150 1514 1150ZM1083 1294Q1097 1294 1107.5 1283.0Q1118 1272 1118 1258V899Q1118 885 1107.5 874.0Q1097 863 1083 863H975Q975 852 976.5 835.0Q978 818 976.0 802.5Q974 787 966.0 775.5Q958 764 939 764Q930 764 910.5 774.0Q891 784 869.5 797.0Q848 810 828.0 822.5Q808 835 799 840Q785 848 772.0 855.5Q759 863 759 883V1258Q759 1273 769.5 1283.5Q780 1294 795 1294ZM984 935H1038Q1047 935 1047 944V1213Q1047 1222 1038 1222H925Q916 1222 916 1213L918 1207Q923 1202 932.5 1194.0Q942 1186 951.5 1176.5Q961 1167 968.0 1156.0Q975 1145 975 1135V944Q975 935 984 935ZM1963 791Q1978 791 1988.5 780.5Q1999 770 1999 755Q1999 741 1987 729L1443 220Q1437 214 1428 214Q1419 214 1412.5 220.5Q1406 227 1406 236V497L1227 319Q1195 287 1151 287H865Q842 287 822.5 295.5Q803 304 789.0 319.0Q775 334 766.5 353.5Q758 373 758 395Q758 417 766.5 436.5Q775 456 789.0 471.0Q803 486 822.5 494.5Q842 503 865 503H1107L1364 759Q1396 791 1440 791ZM1406 49Q1406 64 1417 75L1992 625Q2004 635 2017 635Q2032 635 2042.5 624.5Q2053 614 2053 599V36Q2053 21 2042.5 10.5Q2032 0 2017 0H1442Q1419 0 1412.5 15.5Q1406 31 1406 49Z" style="fill:#ffffff;stroke:none" transform="scale(1,-1) translate(0,-256)" /></svg>