<?xml version="1.0" encoding="utf-8" ?>
<svg baseProfile="full" height="256" version="1.1" width="256" xmlns="http://www.w3.org/2000/svg" xmlns:ev="http://www.w3.org/2001/xml-events" xmlns:xlink="http://www.w3.org/1999/xlink"><defs /><path d="M1726 1149Q1700 1149 1676.5 1139.0Q1653 1129 1636.0 1111.5Q1619 1094 1609.0 1071.0Q1599 1048 1599 1022Q1599 996 1609.0 973.0Q1619 950 1636.5 932.5Q1654 915 1677.0 905.0Q1700 895 1726 895Q1752 895 1775.0 905.5Q1798 916 1815.0 933.0Q1832 950 1842.0 973.0Q1852 996 1852 1022Q1852 1048 1842.0 1071.0Q1832 1094 1815.0 1111.5Q1798 1129 1775.0 1139.0Q1752 1149 1726 1149ZM1726 1217Q1766 1217 1801.5 1201.5Q1837 1186 1863.0 1159.5Q1889 1133 1904.5 1097.5Q1920 1062 1920 1022Q1920 982 1904.5 947.0Q1889 912 1863.0 885.5Q1837 859 1801.5 844.0Q1766 829 1726 829Q1685 829 1650.0 844.0Q1615 859 1588.5 885.5Q1562 912 1547.0 947.0Q1532 982 1532 1023Q1532 1063 1547.5 1098.5Q1563 1134 1589.0 1160.0Q1615 1186 1650.5 1201.5Q1686 1217 1726 1217Z" style="fill:#f8312f;stroke:none" transform="scale(1,-1) translate(0,-256)" /></svg>