<?xml version="1.0" encoding="utf-8" ?>
<svg baseProfile="full" height="256" version="1.1" width="256" xmlns="http://www.w3.org/2000/svg" xmlns:ev="http://www.w3.org/2001/xml-events" xmlns:xlink="http://www.w3.org/1999/xlink"><defs /><path d="M1775 1087Q1790 1087 1800.5 1076.5Q1811 1066 1811 1051Q1811 995 1832.0 946.5Q1853 898 1889.5 862.0Q1926 826 1974.5 805.5Q2023 785 2079 785Q2090 785 2100.5 786.0Q2111 787 2122 787Q2137 787 2147.5 776.0Q2158 765 2158 751Q2158 735 2149.5 727.0Q2141 719 2128.5 715.5Q2116 712 2102.0 711.5Q2088 711 2077 711Q2007 711 1945.0 737.5Q1883 764 1837.0 810.0Q1791 856 1764.5 918.0Q1738 980 1738 1051Q1738 1067 1749.0 1077.0Q1760 1087 1775 1087Z" style="fill:#d3d3d3;stroke:none" transform="scale(1,-1) translate(0,-256)" /></svg>