<?xml version="1.0" encoding="utf-8" ?>
<svg baseProfile="full" height="256" version="1.1" width="256" xmlns="http://www.w3.org/2000/svg" xmlns:ev="http://www.w3.org/2001/xml-events" xmlns:xlink="http://www.w3.org/1999/xlink"><defs /><path d="M2077 1317Q2022 1317 1973.5 1296.0Q1925 1275 1889.0 1239.0Q1853 1203 1832.0 1154.5Q1811 1106 1811 1051Q1811 996 1832.0 947.5Q1853 899 1889.0 863.0Q1925 827 1973.5 806.0Q2022 785 2077 785Q2132 785 2180.5 806.0Q2229 827 2265.0 863.0Q2301 899 2322.0 947.5Q2343 996 2343 1051Q2343 1106 2322.0 1154.5Q2301 1203 2265.0 1239.0Q2229 1275 2180.5 1296.0Q2132 1317 2077 1317ZM1738 1051Q1738 1121 1764.5 1183.0Q1791 1245 1837.0 1291.0Q1883 1337 1945.0 1363.5Q2007 1390 2077 1390Q2147 1390 2209.0 1363.5Q2271 1337 2317.0 1291.0Q2363 1245 2389.5 1183.0Q2416 1121 2416 1051Q2416 980 2389.5 918.5Q2363 857 2317.0 810.5Q2271 764 2209.0 737.5Q2147 711 2077 711Q2006 711 1944.5 738.0Q1883 765 1837.0 811.0Q1791 857 1764.5 919.0Q1738 981 1738 1051Z" style="fill:#d3d3d3;stroke:none" transform="scale(1,-1) translate(0,-256)" /></svg>