<?xml version="1.0" encoding="utf-8" ?>
<svg baseProfile="full" height="256" version="1.1" width="256" xmlns="http://www.w3.org/2000/svg" xmlns:ev="http://www.w3.org/2001/xml-events" xmlns:xlink="http://www.w3.org/1999/xlink"><defs /><path d="M2140 997Q2140 976 2133 959L1995 599Q1978 556 1947 525L1149 -273Q1119 -303 1077 -303Q1035 -303 1005 -273L430 302Q400 332 400 374Q400 417 430 447L1228 1245Q1260 1277 1301 1292L1662 1431Q1679 1438 1699 1438Q1741 1438 1771 1408L2110 1069Q2140 1039 2140 997ZM1599 1023Q1599 997 1609.0 974.0Q1619 951 1636.0 934.0Q1653 917 1676.5 907.0Q1700 897 1726 897Q1753 897 1776.0 906.5Q1799 916 1816.0 933.0Q1833 950 1843.0 973.0Q1853 996 1853 1023Q1853 1049 1843.0 1072.0Q1833 1095 1815.5 1112.0Q1798 1129 1775.0 1139.0Q1752 1149 1726 1149Q1700 1149 1677.0 1139.0Q1654 1129 1636.5 1112.0Q1619 1095 1609.0 1072.0Q1599 1049 1599 1023Z" style="fill:#fcd53f;stroke:none" transform="scale(1,-1) translate(0,-256)" /></svg>