<?xml version="1.0" encoding="utf-8" ?>
<svg baseProfile="full" height="256" version="1.1" width="256" xmlns="http://www.w3.org/2000/svg" xmlns:ev="http://www.w3.org/2001/xml-events" xmlns:xlink="http://www.w3.org/1999/xlink"><defs /><path d="M544 1131Q544 1146 547.0 1167.0Q550 1188 555.5 1209.5Q561 1231 568.0 1250.5Q575 1270 584 1282Q594 1296 602.0 1309.5Q610 1323 618 1338Q631 1364 641.5 1391.0Q652 1418 663.5 1444.0Q675 1470 689.5 1494.5Q704 1519 725 1540Q750 1565 777.0 1579.5Q804 1594 832.5 1605.5Q861 1617 889.0 1628.0Q917 1639 944 1656Q981 1680 1011.5 1705.5Q1042 1731 1073.5 1751.0Q1105 1771 1141.5 1784.0Q1178 1797 1226 1797Q1271 1797 1314.0 1788.0Q1357 1779 1402 1779Q1447 1779 1489.5 1788.0Q1532 1797 1577 1797Q1614 1797 1649 1788Q1683 1779 1709.5 1763.5Q1736 1748 1759.5 1729.5Q1783 1711 1806.5 1691.5Q1830 1672 1859 1656Q1888 1639 1916.5 1628.0Q1945 1617 1972.5 1606.0Q2000 1595 2026.5 1580.0Q2053 1565 2079 1540Q2107 1513 2124.5 1479.0Q2142 1445 2157.0 1410.0Q2172 1375 2188.0 1340.0Q2204 1305 2228 1275H2227Q2249 1243 2258.5 1205.0Q2268 1167 2268 1129Q2268 1096 2262.5 1063.5Q2257 1031 2253 998L2252 987Q2243 897 2206.0 821.0Q2169 745 2109.5 690.5Q2050 636 1971.5 605.5Q1893 575 1802 575H1009Q918 575 840.0 605.5Q762 636 702.5 690.5Q643 745 606.0 820.5Q569 896 560 986L559 998Q556 1031 550.0 1064.0Q544 1097 544 1131Z" style="fill:#bebebe;stroke:none" transform="scale(1,-1) translate(0,-256)" /></svg>