<?xml version="1.0" encoding="utf-8" ?>
<svg baseProfile="full" height="256" version="1.1" width="256" xmlns="http://www.w3.org/2000/svg" xmlns:ev="http://www.w3.org/2001/xml-events" xmlns:xlink="http://www.w3.org/1999/xlink"><defs /><path d="M973 1314Q887 1314 812.0 1281.0Q737 1248 680.5 1192.0Q624 1136 591.5 1060.0Q559 984 559 899Q559 813 591.5 737.5Q624 662 680.0 606.0Q736 550 811.5 517.0Q887 484 973 484H1831Q1917 484 1992.5 516.5Q2068 549 2124.5 605.5Q2181 662 2213.5 737.5Q2246 813 2246 899Q2246 984 2213.0 1060.0Q2180 1136 2124.0 1192.0Q2068 1248 1992.0 1281.0Q1916 1314 1831 1314ZM1831 1472Q1950 1472 2054.5 1427.0Q2159 1382 2236.5 1304.5Q2314 1227 2359.0 1122.5Q2404 1018 2404 899Q2404 780 2359.0 675.5Q2314 571 2236.5 493.0Q2159 415 2054.5 370.0Q1950 325 1831 325H973Q854 325 749.5 370.0Q645 415 567.5 493.0Q490 571 445.0 675.5Q400 780 400 899Q400 1018 445.0 1122.5Q490 1227 567.5 1304.5Q645 1382 749.5 1427.0Q854 1472 973 1472Z" style="fill:#ca0b4a;stroke:none" transform="scale(1,-1) translate(0,-256)" /></svg>