<?xml version="1.0" encoding="utf-8" ?>
<svg baseProfile="full" height="256" version="1.1" width="256" xmlns="http://www.w3.org/2000/svg" xmlns:ev="http://www.w3.org/2001/xml-events" xmlns:xlink="http://www.w3.org/1999/xlink"><defs /><path d="M1413 1402Q1413 1379 1397.5 1363.0Q1382 1347 1359 1347Q1327 1347 1311 1375L1243 1492Q1236 1505 1236 1520Q1236 1543 1252.0 1558.5Q1268 1574 1291 1574Q1322 1574 1338 1547L1406 1429Q1413 1418 1413 1402ZM1730 1478Q1752 1478 1768.0 1462.0Q1784 1446 1784 1424Q1784 1389 1775.0 1351.0Q1766 1313 1758 1279Q1753 1260 1739.0 1247.0Q1725 1234 1705 1234Q1682 1234 1665.5 1250.5Q1649 1267 1649 1290Q1649 1325 1658.0 1362.0Q1667 1399 1675 1433Q1680 1453 1695.0 1465.5Q1710 1478 1730 1478ZM1124 1107Q1124 1130 1140.0 1146.0Q1156 1162 1179 1162Q1196 1162 1208.0 1153.0Q1220 1144 1228 1130Q1233 1119 1243.5 1098.5Q1254 1078 1264.0 1055.5Q1274 1033 1281.5 1013.0Q1289 993 1289 983Q1289 961 1272.5 944.5Q1256 928 1234 928Q1217 928 1205.0 937.0Q1193 946 1185 961Q1179 972 1169.0 992.0Q1159 1012 1149.0 1034.0Q1139 1056 1131.5 1076.0Q1124 1096 1124 1107ZM997 826Q1020 826 1036.5 810.5Q1053 795 1053 772Q1053 737 1044.0 699.0Q1035 661 1027 627Q1022 607 1007.5 594.5Q993 582 973 582Q950 582 934.0 598.5Q918 615 918 638Q918 673 927.5 710.0Q937 747 945 781Q950 801 963.0 813.5Q976 826 997 826ZM668 934Q668 912 684.0 895.5Q700 879 722 879Q732 879 752.5 887.5Q773 896 795.0 908.0Q817 920 837.0 931.5Q857 943 868 949Q882 957 890.0 969.0Q898 981 898 997Q898 1019 882.0 1035.0Q866 1051 844 1051Q833 1051 813.0 1042.5Q793 1034 770.5 1022.5Q748 1011 728.0 999.5Q708 988 697 982Q668 966 668 934ZM814 1270Q814 1247 829.5 1231.0Q845 1215 868 1215Q896 1215 912 1237L993 1347Q1004 1361 1004 1379Q1004 1402 988.5 1418.0Q973 1434 950 1434Q924 1434 906 1411L824 1302Q814 1289 814 1270ZM1454 809Q1477 809 1493.0 793.5Q1509 778 1509 755Q1509 737 1498 723L1417 613Q1401 591 1373 591Q1351 591 1334.5 607.5Q1318 624 1318 646Q1318 664 1329 678L1410 787Q1426 809 1454 809ZM2076 955Q2099 955 2115.0 970.5Q2131 986 2131 1009Q2131 1029 2118 1045L2030 1148Q2014 1167 1988 1167Q1965 1167 1949.5 1151.5Q1934 1136 1934 1113Q1934 1093 1946 1078L2035 974Q2051 955 2076 955ZM1867 825Q1844 825 1829.0 808.5Q1814 792 1814 770Q1814 754 1821 743L1889 625Q1905 598 1936 598Q1959 598 1975.0 613.5Q1991 629 1991 652Q1991 667 1984 680L1916 797Q1908 810 1895.0 817.5Q1882 825 1867 825ZM1742 1007Q1742 984 1726.0 968.0Q1710 952 1687 952Q1677 952 1657.0 959.0Q1637 966 1614.5 975.5Q1592 985 1571.5 995.0Q1551 1005 1541 1010Q1526 1018 1517.0 1031.0Q1508 1044 1508 1061Q1508 1083 1524.5 1099.0Q1541 1115 1563 1115Q1572 1115 1592.5 1108.0Q1613 1101 1635.5 1091.0Q1658 1081 1678.5 1071.5Q1699 1062 1709 1057Q1724 1049 1733.0 1036.5Q1742 1024 1742 1007Z" style="fill:#bebebe;stroke:none" transform="scale(1,-1) translate(0,-256)" /></svg>