<?xml version="1.0" encoding="utf-8" ?>
<svg baseProfile="full" height="256" version="1.1" width="256" xmlns="http://www.w3.org/2000/svg" xmlns:ev="http://www.w3.org/2001/xml-events" xmlns:xlink="http://www.w3.org/1999/xlink"><defs /><path d="M2247 899H2246Q2246 813 2213.5 737.5Q2181 662 2124.5 605.5Q2068 549 1992.5 516.5Q1917 484 1831 484H973Q887 484 811.5 517.0Q736 550 680.0 606.0Q624 662 591.5 737.5Q559 813 559 899H557Q553 934 547.0 969.5Q541 1005 541 1040Q541 1054 542.0 1066.0Q543 1078 547 1091Q554 1119 569.0 1143.5Q584 1168 602.0 1191.0Q620 1214 638.5 1236.5Q657 1259 672 1284Q683 1304 691.5 1324.5Q700 1345 708 1366Q720 1398 735.5 1431.0Q751 1464 776 1489Q797 1510 822.0 1523.5Q847 1537 874.0 1548.0Q901 1559 928.5 1569.5Q956 1580 980 1594Q999 1605 1016.0 1618.0Q1033 1631 1050 1645Q1078 1668 1107.5 1689.0Q1137 1710 1172 1719Q1196 1725 1222 1725Q1268 1725 1312.0 1716.0Q1356 1707 1402 1707Q1447 1707 1491.5 1716.0Q1536 1725 1581 1725Q1607 1725 1631 1719Q1666 1710 1695.5 1689.0Q1725 1668 1753 1645Q1770 1631 1787.5 1618.0Q1805 1605 1824 1594Q1849 1579 1876.0 1569.0Q1903 1559 1930.0 1548.0Q1957 1537 1982.0 1524.0Q2007 1511 2028 1490Q2049 1469 2062.5 1443.5Q2076 1418 2087.0 1391.0Q2098 1364 2108.0 1337.0Q2118 1310 2133 1285Q2144 1266 2157.0 1248.5Q2170 1231 2184 1214Q2207 1186 2228.0 1156.5Q2249 1127 2258 1092Q2264 1068 2264 1042Q2264 1006 2257.5 970.5Q2251 935 2247 899Z" style="fill:#f4f4f4;stroke:none" transform="scale(1,-1) translate(0,-256)" /></svg>