<?xml version="1.0" encoding="utf-8" ?>
<svg baseProfile="full" height="256" version="1.1" width="256" xmlns="http://www.w3.org/2000/svg" xmlns:ev="http://www.w3.org/2001/xml-events" xmlns:xlink="http://www.w3.org/1999/xlink"><defs /><path d="M1981 1394V1689Q1981 1703 1991.5 1714.0Q2002 1725 2016 1725Q2031 1725 2041.5 1714.5Q2052 1704 2052 1689V1407Q2060 1409 2064 1409Q2082 1409 2091.0 1396.0Q2100 1383 2098 1366H2376Q2390 1366 2401.0 1355.0Q2412 1344 2412 1330Q2412 1316 2401.0 1305.0Q2390 1294 2376 1294H2080Q2060 1294 2050 1311Q2037 1296 2021 1296Q2006 1296 1996.0 1306.5Q1986 1317 1986 1332Q1986 1342 1990.5 1348.5Q1995 1355 2001 1361Q1991 1366 1986.0 1374.5Q1981 1383 1981 1394Z" style="fill:#d3883e;stroke:none" transform="scale(1,-1) translate(0,-256)" /></svg>