<?xml version="1.0" encoding="utf-8" ?>
<svg baseProfile="full" height="256" version="1.1" width="256" xmlns="http://www.w3.org/2000/svg" xmlns:ev="http://www.w3.org/2001/xml-events" xmlns:xlink="http://www.w3.org/1999/xlink"><defs /><path d="M1648 905Q1648 888 1641.5 872.0Q1635 856 1627.5 840.0Q1620 824 1613.5 808.0Q1607 792 1607 775Q1607 758 1620.5 741.5Q1634 725 1650.0 708.5Q1666 692 1679.5 676.0Q1693 660 1693 644Q1693 632 1683.5 622.5Q1674 613 1662 613H1541Q1522 613 1509.5 592.0Q1497 571 1486.0 546.0Q1475 521 1462.0 500.0Q1449 479 1430 479Q1409 479 1398.5 502.5Q1388 526 1379.5 556.0Q1371 586 1362.0 612.5Q1353 639 1337 645L1209 691Q1189 698 1189 720Q1189 739 1210.0 751.5Q1231 764 1256.0 775.5Q1281 787 1302.0 799.0Q1323 811 1323 831Q1323 861 1323.5 891.5Q1324 922 1324 952Q1324 965 1332.5 973.5Q1341 982 1354 982Q1370 982 1386.5 968.5Q1403 955 1419.5 939.0Q1436 923 1452.5 909.5Q1469 896 1484 896Q1501 896 1517.5 902.0Q1534 908 1550.0 915.5Q1566 923 1582.5 929.5Q1599 936 1617 936Q1629 936 1638.5 926.5Q1648 917 1648 905Z" style="fill:#f7a7b8;stroke:none" transform="scale(1,-1) translate(0,-256)" /></svg>