<?xml version="1.0" encoding="utf-8" ?>
<svg baseProfile="full" height="256" version="1.1" width="256" xmlns="http://www.w3.org/2000/svg" xmlns:ev="http://www.w3.org/2001/xml-events" xmlns:xlink="http://www.w3.org/1999/xlink"><defs /><path d="M1416 952Q1501 952 1586.5 936.0Q1672 920 1750 887Q1793 869 1828.5 841.0Q1864 813 1889.0 777.0Q1914 741 1927.5 698.0Q1941 655 1941 608Q1941 512 1890.5 437.5Q1840 363 1752 326Q1674 294 1589.0 278.0Q1504 262 1419 262Q1334 262 1249.0 278.0Q1164 294 1085 327Q997 364 944.5 437.5Q892 511 892 608Q892 705 944.0 777.0Q996 849 1083 887Q1159 920 1246.0 936.0Q1333 952 1416 952Z" style="fill:#f8312f;stroke:none" transform="scale(1,-1) translate(0,-256)" /></svg>