<?xml version="1.0" encoding="utf-8" ?>
<svg baseProfile="full" height="256" version="1.1" width="256" xmlns="http://www.w3.org/2000/svg" xmlns:ev="http://www.w3.org/2001/xml-events" xmlns:xlink="http://www.w3.org/1999/xlink"><defs /><path d="M976 802Q890 802 814.0 769.0Q738 736 681.5 679.5Q625 623 592.0 547.0Q559 471 559 385Q559 299 592.0 223.0Q625 147 681.5 90.5Q738 34 814.0 1.0Q890 -32 976 -32H1838Q1924 -32 2000.0 1.0Q2076 34 2132.5 90.5Q2189 147 2222.0 223.0Q2255 299 2255 385Q2255 471 2222.0 547.0Q2189 623 2132.5 679.5Q2076 736 2000.0 769.0Q1924 802 1838 802ZM1838 961Q1957 961 2062.0 915.5Q2167 870 2245.0 792.0Q2323 714 2368.5 609.0Q2414 504 2414 385Q2414 266 2368.5 161.0Q2323 56 2245.0 -22.5Q2167 -101 2062.0 -146.5Q1957 -192 1838 -192H976Q857 -192 752.0 -146.5Q647 -101 569.0 -22.5Q491 56 445.5 161.0Q400 266 400 385Q400 504 445.5 609.0Q491 714 569.0 792.0Q647 870 752.0 915.5Q857 961 976 961Z" style="fill:#d3d3d3;stroke:none" transform="scale(1,-1) translate(0,-256)" /></svg>