<?xml version="1.0" encoding="utf-8" ?>
<svg baseProfile="full" height="256" version="1.1" width="256" xmlns="http://www.w3.org/2000/svg" xmlns:ev="http://www.w3.org/2001/xml-events" xmlns:xlink="http://www.w3.org/1999/xlink"><defs /><path d="M1439 1283 854 908Q845 903 835.5 899.5Q826 896 815 896Q786 896 764.5 917.5Q743 939 743 969Q743 986 752.0 1002.5Q761 1019 776 1029L1391 1422Q1414 1436 1440 1436Q1467 1436 1489 1422L2094 1029Q2109 1019 2118.0 1003.0Q2127 987 2127 969Q2127 939 2105.5 917.5Q2084 896 2055 896Q2034 896 2016 908ZM1550 935Q1550 905 1538.5 879.0Q1527 853 1507.5 833.5Q1488 814 1462.0 802.5Q1436 791 1406 791Q1376 791 1350.0 802.5Q1324 814 1304.5 833.5Q1285 853 1273.5 879.0Q1262 905 1262 935Q1262 965 1273.5 991.0Q1285 1017 1304.5 1036.5Q1324 1056 1350.0 1067.0Q1376 1078 1406 1078Q1436 1078 1462.0 1067.0Q1488 1056 1507.5 1036.5Q1527 1017 1538.5 991.0Q1550 965 1550 935ZM1123 748Q1089 748 1065.5 724.0Q1042 700 1042 666Q1042 641 1057 620L1155 483Q1169 463 1190.5 452.5Q1212 442 1235 442Q1251 442 1267.0 447.5Q1283 453 1297.5 461.0Q1312 469 1326.0 479.0Q1340 489 1353 497L1447 311L1255 186Q1234 172 1222.0 151.0Q1210 130 1210 105Q1210 63 1238.5 34.0Q1267 5 1309 5H1691Q1725 5 1748.5 28.5Q1772 52 1772 86Q1772 119 1748.0 142.5Q1724 166 1691 166H1521L1645 247Q1666 261 1678.0 283.0Q1690 305 1690 331Q1690 355 1680 375L1530 671Q1517 696 1493.0 710.5Q1469 725 1441 725Q1427 725 1413.5 721.5Q1400 718 1389 710L1252 625L1189 714Q1178 730 1160.5 739.0Q1143 748 1123 748Z" style="fill:#ffffff;stroke:none" transform="scale(1,-1) translate(0,-256)" /></svg>