<?xml version="1.0" encoding="utf-8" ?>
<svg baseProfile="full" height="256" version="1.1" width="256" xmlns="http://www.w3.org/2000/svg" xmlns:ev="http://www.w3.org/2001/xml-events" xmlns:xlink="http://www.w3.org/1999/xlink"><defs /><path d="M1478 1402Q1478 1387 1467.5 1376.5Q1457 1366 1442 1366Q1427 1366 1416.5 1376.5Q1406 1387 1406 1402Q1406 1417 1416.5 1427.5Q1427 1438 1442 1438Q1457 1438 1467.5 1427.5Q1478 1417 1478 1402ZM1909 1150Q1939 1150 1960.0 1171.0Q1981 1192 1981 1222Q1981 1252 1960.0 1273.0Q1939 1294 1909 1294Q1879 1294 1858.0 1273.0Q1837 1252 1837 1222Q1837 1192 1858.0 1171.0Q1879 1150 1909 1150ZM1981 971Q1981 948 1972.5 928.5Q1964 909 1949.5 894.5Q1935 880 1915.0 871.5Q1895 863 1873 863Q1851 863 1831.5 871.5Q1812 880 1797.0 895.0Q1782 910 1773.5 929.5Q1765 949 1765 971Q1765 993 1773.5 1012.5Q1782 1032 1797.0 1046.5Q1812 1061 1831.5 1069.5Q1851 1078 1873 1078Q1895 1078 1914.5 1069.5Q1934 1061 1949.0 1047.0Q1964 1033 1972.5 1013.0Q1981 993 1981 971ZM1478 611Q1478 589 1469.5 569.5Q1461 550 1446.0 535.0Q1431 520 1411.5 511.5Q1392 503 1370 503Q1348 503 1328.5 511.5Q1309 520 1294.0 535.0Q1279 550 1270.5 569.5Q1262 589 1262 611Q1262 633 1270.5 653.0Q1279 673 1293.5 687.5Q1308 702 1327.5 710.5Q1347 719 1370 719Q1392 719 1412.0 710.5Q1432 702 1446.5 687.5Q1461 673 1469.5 653.0Q1478 633 1478 611ZM939 575Q961 575 980.5 583.5Q1000 592 1015.0 607.0Q1030 622 1038.5 641.5Q1047 661 1047 683Q1047 705 1038.5 724.5Q1030 744 1015.0 759.0Q1000 774 980.5 782.5Q961 791 939 791Q916 791 896.5 782.5Q877 774 862.5 759.5Q848 745 839.5 725.0Q831 705 831 683Q831 660 839.5 640.5Q848 621 862.5 606.5Q877 592 896.5 583.5Q916 575 939 575ZM1765 719Q1765 689 1744.0 668.0Q1723 647 1693 647Q1664 647 1643.0 668.5Q1622 690 1622 719Q1622 748 1643.0 769.5Q1664 791 1693 791Q1723 791 1744.0 770.0Q1765 749 1765 719ZM1478 935Q1478 905 1457.0 884.0Q1436 863 1406 863Q1376 863 1355.0 884.0Q1334 905 1334 935Q1334 964 1355.5 985.0Q1377 1006 1406 1006Q1435 1006 1456.5 985.0Q1478 964 1478 935ZM1047 863Q1076 863 1097.0 884.5Q1118 906 1118 935Q1118 964 1097.0 985.0Q1076 1006 1047 1006Q1018 1006 996.5 985.0Q975 964 975 935Q975 905 996.0 884.0Q1017 863 1047 863ZM903 396Q903 381 892.5 370.5Q882 360 867 360Q852 360 841.5 370.5Q831 381 831 396Q831 410 842.0 420.5Q853 431 867 431Q881 431 892.0 420.5Q903 410 903 396ZM1262 216Q1292 216 1313.0 237.0Q1334 258 1334 288Q1334 317 1312.5 338.5Q1291 360 1262 360Q1233 360 1211.5 338.5Q1190 317 1190 288Q1190 259 1211.5 237.5Q1233 216 1262 216ZM1586 1150Q1600 1150 1611.0 1161.0Q1622 1172 1622 1186Q1622 1200 1611.0 1211.0Q1600 1222 1586 1222Q1571 1222 1560.5 1211.5Q1550 1201 1550 1186Q1550 1171 1560.5 1160.5Q1571 1150 1586 1150Z" style="fill:#e19747;stroke:none" transform="scale(1,-1) translate(0,-256)" /></svg>