<?xml version="1.0" encoding="utf-8" ?>
<svg baseProfile="full" height="256" version="1.1" width="256" xmlns="http://www.w3.org/2000/svg" xmlns:ev="http://www.w3.org/2001/xml-events" xmlns:xlink="http://www.w3.org/1999/xlink"><defs /><path d="M544 691Q546 621 572.0 561.0Q598 501 646 450Q700 392 752.0 333.5Q804 275 855 214Q884 179 915.0 144.5Q946 110 976 75Q1025 17 1079.5 -9.5Q1134 -36 1211 -36Q1253 -36 1294.5 -27.5Q1336 -19 1373 1Q1404 17 1435.5 47.5Q1467 78 1498.0 117.0Q1529 156 1558.0 200.0Q1587 244 1613.0 287.5Q1639 331 1660.5 371.0Q1682 411 1697 441Q1722 490 1761.5 536.5Q1801 583 1849.0 622.0Q1897 661 1950.5 690.5Q2004 720 2057 735Q2106 749 2144.0 782.0Q2182 815 2208.5 858.0Q2235 901 2250.0 950.5Q2265 1000 2268 1048Q2268 1044 2268.5 1040.5Q2269 1037 2269 1033Q2269 955 2268.5 877.0Q2268 799 2268 721Q2268 687 2250.5 654.5Q2233 622 2205.5 591.0Q2178 560 2142.5 531.5Q2107 503 2071.5 478.5Q2036 454 2002.5 433.5Q1969 413 1945 398Q1904 372 1865.5 332.0Q1827 292 1791.0 246.0Q1755 200 1723.5 153.0Q1692 106 1665 66Q1644 34 1617.5 -4.5Q1591 -43 1562.0 -81.5Q1533 -120 1502.5 -154.5Q1472 -189 1442 -212Q1419 -229 1389.5 -243.0Q1360 -257 1327.5 -267.0Q1295 -277 1263.0 -282.0Q1231 -287 1203 -287Q1145 -287 1099.0 -269.0Q1053 -251 1011 -212Q1000 -201 989.5 -188.5Q979 -176 969 -165L867 -53Q804 16 741.0 83.0Q678 150 615 219Q575 262 559.0 318.0Q543 374 543 432V647L544 649Q542 670 544 691Z" style="fill:#ff8687;stroke:none" transform="scale(1,-1) translate(0,-256)" /></svg>