<?xml version="1.0" encoding="utf-8" ?>
<svg baseProfile="full" height="256" version="1.1" width="256" xmlns="http://www.w3.org/2000/svg" xmlns:ev="http://www.w3.org/2001/xml-events" xmlns:xlink="http://www.w3.org/1999/xlink"><defs /><path d="M1011 575Q944 575 885.0 600.5Q826 626 782.0 670.0Q738 714 712.5 773.0Q687 832 687 899Q687 966 712.5 1024.5Q738 1083 782.0 1127.0Q826 1171 885.0 1196.5Q944 1222 1011 1222Q1078 1222 1136.5 1196.5Q1195 1171 1239.0 1127.0Q1283 1083 1308.5 1024.5Q1334 966 1334 899Q1334 832 1308.5 773.0Q1283 714 1239.0 670.0Q1195 626 1136.5 600.5Q1078 575 1011 575ZM1801 575Q1734 575 1675.5 600.5Q1617 626 1573.0 670.0Q1529 714 1503.5 773.0Q1478 832 1478 899Q1478 966 1503.5 1024.5Q1529 1083 1573.0 1127.0Q1617 1171 1675.5 1196.5Q1734 1222 1801 1222Q1868 1222 1927.0 1196.5Q1986 1171 2030.0 1127.0Q2074 1083 2099.5 1024.5Q2125 966 2125 899Q2125 832 2099.5 773.0Q2074 714 2030.0 670.0Q1986 626 1927.0 600.5Q1868 575 1801 575Z" style="fill:#ffffff;stroke:none" transform="scale(1,-1) translate(0,-256)" /></svg>