<?xml version="1.0" encoding="utf-8" ?>
<svg baseProfile="full" height="256" version="1.1" width="256" xmlns="http://www.w3.org/2000/svg" xmlns:ev="http://www.w3.org/2001/xml-events" xmlns:xlink="http://www.w3.org/1999/xlink"><defs /><path d="M1893 112Q1893 87 1882.0 66.5Q1871 46 1853.0 31.0Q1835 16 1812.0 8.0Q1789 0 1765 0H1047Q1023 0 1000.0 8.0Q977 16 959.0 31.0Q941 46 930.0 66.5Q919 87 919 112Q919 129 923 142Q946 222 993.0 288.5Q1040 355 1104.0 402.5Q1168 450 1245.0 476.5Q1322 503 1406 503Q1490 503 1567.0 476.5Q1644 450 1708.0 402.5Q1772 355 1819.0 288.5Q1866 222 1889 142Q1893 129 1893 112Z" style="fill:#bb1d80;stroke:none" transform="scale(1,-1) translate(0,-256)" /></svg>