<?xml version="1.0" encoding="utf-8" ?>
<svg baseProfile="full" height="256" version="1.1" width="256" xmlns="http://www.w3.org/2000/svg" xmlns:ev="http://www.w3.org/2001/xml-events" xmlns:xlink="http://www.w3.org/1999/xlink"><defs /><path d="M1074 899Q1118 943 1175.0 993.5Q1232 1044 1297.0 1094.5Q1362 1145 1433.0 1192.0Q1504 1239 1576.0 1274.5Q1648 1310 1718.5 1331.5Q1789 1353 1854 1353Q1943 1353 1990.5 1305.0Q2038 1257 2038 1168Q2038 1104 2016.5 1033.0Q1995 962 1959.5 890.0Q1924 818 1878.0 747.0Q1832 676 1781.5 611.0Q1731 546 1680.5 489.0Q1630 432 1586 388Z" style="fill:#f8312f;stroke:none" transform="scale(1,-1) translate(0,-256)" /></svg>