<?xml version="1.0" encoding="utf-8" ?>
<svg baseProfile="full" height="256" version="1.1" width="256" xmlns="http://www.w3.org/2000/svg" xmlns:ev="http://www.w3.org/2001/xml-events" xmlns:xlink="http://www.w3.org/1999/xlink"><defs /><path d="M1998 32Q1973 32 1951.5 41.0Q1930 50 1911.0 64.5Q1892 79 1875.5 96.5Q1859 114 1843 131L1622 935L818 1156Q801 1172 783.5 1188.5Q766 1205 752.0 1224.0Q738 1243 729.0 1264.5Q720 1286 720 1311Q720 1338 731.5 1358.0Q743 1378 761.0 1394.5Q779 1411 801.0 1424.0Q823 1437 843 1449Q952 1514 1073.5 1547.5Q1195 1581 1322 1581Q1452 1581 1573.0 1547.0Q1694 1513 1799.5 1451.5Q1905 1390 1991.5 1303.5Q2078 1217 2139.5 1112.0Q2201 1007 2235.0 886.0Q2269 765 2269 635Q2269 507 2236.0 386.5Q2203 266 2137 156Q2125 135 2112.0 113.0Q2099 91 2083.0 73.0Q2067 55 2046.0 43.5Q2025 32 1998 32Z" style="fill:#f8312f;stroke:none" transform="scale(1,-1) translate(0,-256)" /></svg>