<?xml version="1.0" encoding="utf-8" ?>
<svg baseProfile="full" height="256" version="1.1" width="256" xmlns="http://www.w3.org/2000/svg" xmlns:ev="http://www.w3.org/2001/xml-events" xmlns:xlink="http://www.w3.org/1999/xlink"><defs /><path d="M1360 1195Q1358 1212 1348.0 1223.5Q1338 1235 1323.0 1242.0Q1308 1249 1291.5 1252.0Q1275 1255 1262 1255Q1247 1255 1232.0 1253.5Q1217 1252 1203 1252Q1155 1252 1127.5 1272.0Q1100 1292 1100 1343Q1100 1365 1108.5 1379.0Q1117 1393 1131.0 1401.0Q1145 1409 1162.0 1412.0Q1179 1415 1197 1415Q1213 1415 1228.5 1412.0Q1244 1409 1260 1409Q1274 1409 1290.0 1413.5Q1306 1418 1323.0 1423.5Q1340 1429 1359.5 1433.5Q1379 1438 1401 1438Q1448 1438 1477.5 1422.0Q1507 1406 1523.5 1379.0Q1540 1352 1546.0 1316.0Q1552 1280 1552 1240Q1552 1228 1550.0 1204.0Q1548 1180 1542.0 1155.5Q1536 1131 1524.5 1112.0Q1513 1093 1495 1091H1500Q1517 1091 1529.0 1081.0Q1541 1071 1541 1053Q1541 1039 1534.0 1031.0Q1527 1023 1516.5 1018.5Q1506 1014 1493.5 1013.0Q1481 1012 1470 1012Q1450 1012 1439.5 1022.0Q1429 1032 1424.5 1047.0Q1420 1062 1419.0 1079.0Q1418 1096 1416 1110Q1423 1123 1423 1138Q1423 1149 1417.5 1160.0Q1412 1171 1403.0 1180.0Q1394 1189 1383.0 1193.5Q1372 1198 1360 1195Z" style="fill:#f1a11e;stroke:none" transform="scale(1,-1) translate(0,-256)" /></svg>