<?xml version="1.0" encoding="utf-8" ?>
<svg baseProfile="full" height="256" version="1.1" width="256" xmlns="http://www.w3.org/2000/svg" xmlns:ev="http://www.w3.org/2001/xml-events" xmlns:xlink="http://www.w3.org/1999/xlink"><defs /><path d="M1555 397Q1557 390 1557.0 383.0Q1557 376 1557 369Q1557 338 1547.5 318.0Q1538 298 1517 276L1331 81Q1318 67 1297.0 56.5Q1276 46 1258 40Q1254 33 1249.5 22.5Q1245 12 1239.0 2.0Q1233 -8 1224.5 -15.5Q1216 -23 1206 -23Q1195 -23 1187 -15Q1179 -30 1162 -30Q1151 -30 1142.0 -21.5Q1133 -13 1133 -2Q1133 4 1135.0 9.0Q1137 14 1139 19Q1127 26 1127 42Q1127 50 1130 56L1169 129Q1182 153 1203.0 171.5Q1224 190 1242 210L1374 359Q1379 364 1379 369Q1379 370 1378 371L1354 580Q1350 611 1346.0 632.5Q1342 654 1342 685Q1342 693 1344.0 701.5Q1346 710 1348 718Q1353 738 1360.0 752.0Q1367 766 1390 768Q1398 769 1405.5 771.0Q1413 773 1420 778Q1426 783 1433.0 787.0Q1440 791 1448 791Q1454 791 1459.5 786.5Q1465 782 1470.0 776.0Q1475 770 1479.0 763.5Q1483 757 1486 753Z" style="fill:#ffc83d;stroke:none" transform="scale(1,-1) translate(0,-256)" /></svg>