<?xml version="1.0" encoding="utf-8" ?>
<svg baseProfile="full" height="256" version="1.1" width="256" xmlns="http://www.w3.org/2000/svg" xmlns:ev="http://www.w3.org/2001/xml-events" xmlns:xlink="http://www.w3.org/1999/xlink"><defs /><path d="M1483 1227Q1483 1225 1480.0 1209.5Q1477 1194 1473.0 1176.0Q1469 1158 1466.0 1141.5Q1463 1125 1462 1120Q1457 1094 1453.5 1068.5Q1450 1043 1445 1017Q1440 988 1417.5 965.0Q1395 942 1365.5 926.0Q1336 910 1303.0 901.5Q1270 893 1244 893Q1210 893 1189.0 905.0Q1168 917 1156.0 937.5Q1144 958 1138.0 984.0Q1132 1010 1129 1038Q1125 1036 1116 1036Q1105 1036 1093.0 1045.0Q1081 1054 1081 1065Q1081 1069 1086.0 1079.5Q1091 1090 1097.5 1101.5Q1104 1113 1110.0 1124.5Q1116 1136 1119 1142Q1117 1158 1115.5 1173.5Q1114 1189 1114 1205Q1114 1232 1124.0 1256.0Q1134 1280 1151.0 1299.0Q1168 1318 1191.0 1330.0Q1214 1342 1240 1344Q1266 1346 1291.5 1349.5Q1317 1353 1343 1353Q1367 1353 1392.0 1343.0Q1417 1333 1437.0 1316.0Q1457 1299 1470.0 1276.0Q1483 1253 1483 1227Z" style="fill:#ffc83d;stroke:none" transform="scale(1,-1) translate(0,-256)" /></svg>