<?xml version="1.0" encoding="utf-8" ?>
<svg baseProfile="full" height="256" version="1.1" width="256" xmlns="http://www.w3.org/2000/svg" xmlns:ev="http://www.w3.org/2001/xml-events" xmlns:xlink="http://www.w3.org/1999/xlink"><defs /><path d="M1219 1192Q1207 1196 1200.0 1197.5Q1193 1199 1187.0 1200.0Q1181 1201 1174.0 1201.0Q1167 1201 1155 1201Q1154 1201 1153.5 1201.5Q1153 1202 1152 1202Q1148 1206 1147 1208V1212Q1147 1213 1147.5 1214.0Q1148 1215 1148 1216L1151 1219Q1158 1221 1164.0 1222.0Q1170 1223 1177 1223Q1201 1223 1224 1210L1228 1205V1199L1225 1194Z" style="fill:#d37034;stroke:none" transform="scale(1,-1) translate(0,-256)" /></svg>