<?xml version="1.0" encoding="utf-8" ?>
<svg baseProfile="full" height="256" version="1.1" width="256" xmlns="http://www.w3.org/2000/svg" xmlns:ev="http://www.w3.org/2001/xml-events" xmlns:xlink="http://www.w3.org/1999/xlink"><defs /><path d="M1551 519Q1552 513 1547.5 509.0Q1543 505 1538 503Q1524 500 1509.0 499.5Q1494 499 1480 497Q1447 493 1413.5 489.5Q1380 486 1346 482L1318 701Q1317 706 1317 715Q1317 737 1325.5 755.5Q1334 774 1348.0 788.0Q1362 802 1381.5 810.0Q1401 818 1422 818Q1441 818 1458.5 811.0Q1476 804 1489.5 792.0Q1503 780 1512.0 763.5Q1521 747 1524 728L1551 519Z" style="fill:#ff8101;stroke:none" transform="scale(1,-1) translate(0,-256)" /></svg>