<?xml version="1.0" encoding="utf-8" ?>
<svg baseProfile="full" height="256" version="1.1" width="256" xmlns="http://www.w3.org/2000/svg" xmlns:ev="http://www.w3.org/2001/xml-events" xmlns:xlink="http://www.w3.org/1999/xlink"><defs /><path d="M1930 1278Q1978 1188 2011.5 1104.0Q2045 1020 2066.5 934.0Q2088 848 2098.0 758.0Q2108 668 2108 566Q2108 506 2104.5 446.5Q2101 387 2091.0 329.0Q2081 271 2064.0 214.5Q2047 158 2019 104Q1974 16 1900.0 -56.0Q1826 -128 1736.0 -179.5Q1646 -231 1546.0 -259.0Q1446 -287 1349 -287Q1203 -287 1079.5 -238.5Q956 -190 864.5 -102.0Q773 -14 719.5 107.0Q666 228 660 374Q656 467 652.5 558.0Q649 649 647 742Q645 816 645.5 889.5Q646 963 646 1037Q646 1077 662.5 1111.0Q679 1145 707.0 1170.0Q735 1195 771.0 1208.5Q807 1222 846 1222Q886 1222 923.0 1208.0Q960 1194 989 1166Q1000 1195 1019.0 1220.0Q1038 1245 1062.5 1263.0Q1087 1281 1116.0 1291.0Q1145 1301 1177 1301Q1209 1301 1238.0 1291.0Q1267 1281 1291.5 1263.0Q1316 1245 1335.0 1220.0Q1354 1195 1365 1166Q1382 1200 1400.5 1233.0Q1419 1266 1438 1298Q1417 1322 1397.0 1349.5Q1377 1377 1361.0 1407.0Q1345 1437 1335.0 1469.0Q1325 1501 1325 1534Q1325 1571 1341.5 1605.5Q1358 1640 1385.0 1667.0Q1412 1694 1447.0 1710.0Q1482 1726 1519 1726Q1571 1726 1615.5 1699.0Q1660 1672 1695 1637Q1713 1654 1733.5 1670.5Q1754 1687 1776.5 1699.5Q1799 1712 1823.0 1720.0Q1847 1728 1873 1728Q1905 1728 1933.5 1716.0Q1962 1704 1988 1687V1686Q2007 1679 2022.5 1658.0Q2038 1637 2049.5 1611.5Q2061 1586 2067.0 1559.5Q2073 1533 2073 1515Q2073 1476 2058.5 1444.5Q2044 1413 2022.5 1386.0Q2001 1359 1976.0 1333.0Q1951 1307 1930 1278Z" style="fill:#ffc83d;stroke:none" transform="scale(1,-1) translate(0,-256)" /></svg>