<?xml version="1.0" encoding="utf-8" ?>
<svg baseProfile="full" height="256" version="1.1" width="256" xmlns="http://www.w3.org/2000/svg" xmlns:ev="http://www.w3.org/2001/xml-events" xmlns:xlink="http://www.w3.org/1999/xlink"><defs /><path d="M1771 1543Q1738 1594 1695 1637Q1712 1654 1732.5 1670.5Q1753 1687 1775.5 1699.5Q1798 1712 1822.5 1720.0Q1847 1728 1873 1728Q1911 1728 1949 1709Q1925 1705 1900.0 1685.5Q1875 1666 1851.0 1640.5Q1827 1615 1806.0 1588.5Q1785 1562 1771 1543ZM1379 976Q1379 999 1380.0 1023.5Q1381 1048 1380.5 1072.0Q1380 1096 1376.5 1119.5Q1373 1143 1365 1166Q1382 1200 1400.5 1233.0Q1419 1266 1438 1298Q1417 1322 1397.0 1349.5Q1377 1377 1361.0 1407.0Q1345 1437 1335.0 1469.0Q1325 1501 1325 1534Q1325 1571 1339.0 1603.0Q1353 1635 1379 1661Q1376 1653 1375.0 1644.0Q1374 1635 1374 1627Q1374 1585 1394.0 1533.0Q1414 1481 1443.5 1430.0Q1473 1379 1507.0 1333.5Q1541 1288 1570 1258Q1662 1163 1737.0 1048.5Q1812 934 1866 813Q1828 849 1779.5 871.0Q1731 893 1680 901L1679 902V903L1681 876Q1674 896 1660.0 929.5Q1646 963 1626.5 994.5Q1607 1026 1584.0 1049.0Q1561 1072 1536 1072Q1513 1072 1491.0 1063.5Q1469 1055 1448.5 1041.0Q1428 1027 1410.5 1010.0Q1393 993 1379 976ZM1177 675Q1211 675 1242.5 687.0Q1274 699 1300 720Q1305 761 1322.0 792.0Q1339 823 1365.5 844.5Q1392 866 1426.0 879.5Q1460 893 1498 899Q1465 876 1438.5 842.5Q1412 809 1412 766Q1412 721 1439.0 686.5Q1466 652 1505.5 628.0Q1545 604 1590.5 590.0Q1636 576 1673 571Q1716 565 1757.0 552.0Q1798 539 1830.0 515.0Q1862 491 1881.0 455.5Q1900 420 1900 371Q1900 351 1890.0 332.5Q1880 314 1864.0 300.0Q1848 286 1828.0 277.5Q1808 269 1789 269Q1773 269 1758 275Q1730 328 1710 378Q1705 390 1701.0 403.5Q1697 417 1692 428Q1690 432 1687.0 436.0Q1684 440 1681 444Q1672 445 1663.0 445.0Q1654 445 1644 445Q1593 445 1542.0 437.0Q1491 429 1441 414Q1406 403 1377.5 392.0Q1349 381 1323.5 366.5Q1298 352 1273.0 334.5Q1248 317 1221 293Q1215 288 1209.0 285.0Q1203 282 1195 282Q1181 282 1170.0 293.0Q1159 304 1159 319Q1159 332 1169 344Q1189 367 1221.5 389.5Q1254 412 1291.5 431.5Q1329 451 1366.5 465.5Q1404 480 1434 487Q1397 501 1369.0 529.0Q1341 557 1324 592Q1298 549 1261.0 526.0Q1224 503 1173 503Q1122 503 1074.5 522.5Q1027 542 1002 590Q970 541 932.5 522.0Q895 503 836 503Q793 503 762.5 521.0Q732 539 710.5 568.5Q689 598 676.5 635.5Q664 673 657.0 713.0Q650 753 648.0 792.0Q646 831 646 863Q647 823 663.5 789.5Q680 756 708.0 732.0Q736 708 771.5 694.5Q807 681 846 681Q855 681 866.0 683.5Q877 686 889.0 689.5Q901 693 912.5 697.0Q924 701 932 704L954 712Q955 712 957.0 711.5Q959 711 959 713Q936 751 919.0 799.5Q902 848 902 893Q902 944 904.0 995.5Q906 1047 906 1098Q906 1125 911.0 1153.0Q916 1181 929 1206Q946 1198 961.0 1188.5Q976 1179 990 1166Q984 1150 980.5 1113.0Q977 1076 975.5 1034.0Q974 992 974.0 953.0Q974 914 974 893Q974 851 989.5 811.5Q1005 772 1032.0 741.5Q1059 711 1096.0 693.0Q1133 675 1177 675Z" style="fill:#d67d00;stroke:none" transform="scale(1,-1) translate(0,-256)" /></svg>