<?xml version="1.0" encoding="utf-8" ?>
<svg baseProfile="full" height="256" version="1.1" width="256" xmlns="http://www.w3.org/2000/svg" xmlns:ev="http://www.w3.org/2001/xml-events" xmlns:xlink="http://www.w3.org/1999/xlink"><defs /><path d="M2112 1511Q2119 1476 2132.5 1453.5Q2146 1431 2184 1423Q2179 1375 2159.0 1335.0Q2139 1295 2107.0 1266.0Q2075 1237 2033.0 1220.5Q1991 1204 1943 1204H1942H1938H1942Q1927 1206 1918.0 1217.0Q1909 1228 1909 1243Q1909 1258 1919.0 1265.0Q1929 1272 1943.0 1275.0Q1957 1278 1972.0 1279.0Q1987 1280 1996 1283Q2028 1292 2050.5 1310.5Q2073 1329 2087.5 1354.0Q2102 1379 2108.5 1408.5Q2115 1438 2115 1469Q2115 1491 2112 1511ZM647 15Q653 56 673.0 93.5Q693 131 724.0 159.5Q755 188 793.5 204.5Q832 221 875 221H880H875Q891 220 900.5 210.0Q910 200 910 184Q910 170 899.0 159.5Q888 149 874 149Q853 149 832.5 142.0Q812 135 794.0 123.0Q776 111 761.0 95.5Q746 80 736 62Q724 42 720.0 16.0Q716 -10 716 -33Q716 -61 720.5 -92.0Q725 -123 735 -149L734 -144Q773 -174 819.0 -194.0Q865 -214 916 -214Q954 -214 990.5 -202.0Q1027 -190 1056.0 -167.0Q1085 -144 1103.0 -111.5Q1121 -79 1121 -38Q1121 -6 1113.0 22.0Q1105 50 1096.0 75.5Q1087 101 1079.0 124.0Q1071 147 1071 169Q1071 199 1091 220Q1126 257 1162.0 292.5Q1198 328 1234 364Q1309 439 1382.5 513.0Q1456 587 1531 662Q1616 747 1701.5 830.5Q1787 914 1869 1002Q1891 1025 1921.0 1035.0Q1951 1045 1983 1045Q2005 1045 2026.5 1038.5Q2048 1032 2070.5 1024.5Q2093 1017 2116.5 1011.0Q2140 1005 2165 1005Q2208 1005 2244.0 1024.5Q2280 1044 2305.5 1075.0Q2331 1106 2345.0 1145.5Q2359 1185 2359 1226Q2359 1261 2349.0 1296.5Q2339 1332 2317 1361H2321Q2363 1322 2386.5 1268.5Q2410 1215 2410 1158Q2410 1107 2388.0 1062.5Q2366 1018 2329.0 985.0Q2292 952 2245.0 933.0Q2198 914 2149 914Q2125 914 2104.0 918.5Q2083 923 2063.5 929.0Q2044 935 2025.0 939.5Q2006 944 1987 944Q1962 944 1942.0 935.0Q1922 926 1904 909Q1798 808 1694.0 706.0Q1590 604 1485 501Q1415 432 1344.5 364.5Q1274 297 1208 225Q1202 219 1193.5 209.5Q1185 200 1176.5 189.5Q1168 179 1162.0 168.0Q1156 157 1156 148Q1156 141 1158.5 135.5Q1161 130 1164 124Q1202 55 1202 -26Q1202 -84 1184.0 -131.5Q1166 -179 1133.0 -213.5Q1100 -248 1052.5 -267.0Q1005 -286 946 -286Q902 -286 860.5 -269.0Q819 -252 786.5 -222.5Q754 -193 734.0 -153.0Q714 -113 714 -67Q714 -28 701.5 -6.0Q689 16 647 15Z" style="fill:#d3d3d3;stroke:none" transform="scale(1,-1) translate(0,-256)" /></svg>