<?xml version="1.0" encoding="utf-8" ?>
<svg baseProfile="full" height="256" version="1.1" width="256" xmlns="http://www.w3.org/2000/svg" xmlns:ev="http://www.w3.org/2001/xml-events" xmlns:xlink="http://www.w3.org/1999/xlink"><defs /><path d="M1642 1293Q1642 1304 1639.5 1315.5Q1637 1327 1634 1338Q1624 1372 1616.5 1404.5Q1609 1437 1609 1472Q1609 1527 1630.5 1573.5Q1652 1620 1689.0 1654.0Q1726 1688 1774.0 1707.5Q1822 1727 1876 1727Q1913 1727 1950.5 1713.5Q1988 1700 2019.5 1676.5Q2051 1653 2074.0 1620.5Q2097 1588 2105 1551Q2111 1524 2114.5 1502.5Q2118 1481 2126.0 1464.5Q2134 1448 2151.0 1436.5Q2168 1425 2200 1420Q2246 1412 2284.5 1387.5Q2323 1363 2351.0 1327.0Q2379 1291 2394.5 1247.5Q2410 1204 2410 1158Q2410 1107 2388.0 1062.5Q2366 1018 2329.0 985.0Q2292 952 2245.0 933.0Q2198 914 2149 914Q2125 914 2104.0 918.5Q2083 923 2063.5 929.0Q2044 935 2025.0 939.5Q2006 944 1987 944Q1961 944 1941.5 935.0Q1922 926 1904 909Q1804 815 1707.0 719.5Q1610 624 1512 528Q1435 453 1357.5 378.5Q1280 304 1208 225Q1202 219 1193.5 209.5Q1185 200 1176.5 189.5Q1168 179 1162.0 168.0Q1156 157 1156 148Q1156 141 1158.5 135.5Q1161 130 1164 124Q1202 55 1202 -26Q1202 -84 1184.0 -131.5Q1166 -179 1133.0 -213.5Q1100 -248 1052.5 -267.0Q1005 -286 947 -286Q903 -286 861.0 -269.0Q819 -252 786.5 -222.5Q754 -193 734.0 -153.0Q714 -113 714 -67Q714 -25 701.5 -6.0Q689 13 647 15Q595 17 550.0 36.5Q505 56 472.0 88.5Q439 121 420.5 165.5Q402 210 402 263Q402 320 423.0 368.5Q444 417 480.5 451.5Q517 486 566.0 505.5Q615 525 671 525Q692 525 713.0 523.0Q734 521 755 517Q778 513 801.5 506.0Q825 499 848 499Q873 499 892.0 513.0Q911 527 928 543Q1037 648 1143.0 754.5Q1249 861 1357 967L1536 1145Q1555 1163 1574.5 1181.0Q1594 1199 1611 1219Q1626 1236 1634.0 1253.0Q1642 1270 1642 1293Z" style="fill:#ffffff;stroke:none" transform="scale(1,-1) translate(0,-256)" /></svg>