<?xml version="1.0" encoding="utf-8" ?>
<svg baseProfile="full" height="256" version="1.1" width="256" xmlns="http://www.w3.org/2000/svg" xmlns:ev="http://www.w3.org/2001/xml-events" xmlns:xlink="http://www.w3.org/1999/xlink"><defs /><path d="M795 1725Q817 1725 837.0 1716.5Q857 1708 871.5 1693.5Q886 1679 894.5 1659.0Q903 1639 903 1617V1572Q974 1556 1033.5 1518.0Q1093 1480 1135.5 1426.5Q1178 1373 1202.0 1306.5Q1226 1240 1226 1168Q1226 1152 1216.5 1136.5Q1207 1121 1189 1121Q1174 1121 1162.0 1137.0Q1150 1153 1135.0 1171.5Q1120 1190 1099.5 1206.0Q1079 1222 1047 1222Q1020 1222 1001.5 1211.5Q983 1201 967.5 1185.0Q952 1169 939.0 1150.0Q926 1131 910.5 1115.0Q895 1099 876.0 1088.5Q857 1078 831 1078Q804 1078 785.5 1088.5Q767 1099 751.5 1115.0Q736 1131 723.0 1150.0Q710 1169 694.5 1185.0Q679 1201 660.0 1211.5Q641 1222 615 1222Q579 1222 555.5 1202.0Q532 1182 513.5 1157.5Q495 1133 479.0 1113.0Q463 1093 444 1093Q423 1093 411.5 1112.5Q400 1132 400 1150Q400 1221 419.0 1286.0Q438 1351 474.5 1405.0Q511 1459 564.5 1499.5Q618 1540 687 1562V1617Q687 1639 695.5 1659.0Q704 1679 718.5 1693.5Q733 1708 752.5 1716.5Q772 1725 795 1725Z" style="fill:#00d26a;stroke:none" transform="scale(1,-1) translate(0,-256)" /></svg>