<?xml version="1.0" encoding="utf-8" ?>
<svg baseProfile="full" height="256" version="1.1" width="256" xmlns="http://www.w3.org/2000/svg" xmlns:ev="http://www.w3.org/2001/xml-events" xmlns:xlink="http://www.w3.org/1999/xlink"><defs /><path d="M1658 -287Q1415 -287 1230.5 -234.5Q1046 -182 910.0 -85.5Q774 11 683.0 147.5Q592 284 537.0 451.5Q482 619 459.0 814.0Q436 1009 436 1222H1154Q1176 1154 1199.5 1092.5Q1223 1031 1252.5 978.0Q1282 925 1319.5 881.5Q1357 838 1406.0 807.0Q1455 776 1518.0 759.5Q1581 743 1661 743Q1725 743 1788.0 754.0Q1851 765 1915 765Q1993 765 2063.5 744.5Q2134 724 2193.0 685.0Q2252 646 2298.5 589.5Q2345 533 2375 461Q2392 419 2402.0 376.0Q2412 333 2412 288Q2412 177 2382.5 91.0Q2353 5 2301.0 -58.5Q2249 -122 2177.5 -166.0Q2106 -210 2022.5 -236.5Q1939 -263 1846.0 -275.0Q1753 -287 1658 -287Z" style="fill:#8c42b2;stroke:none" transform="scale(1,-1) translate(0,-256)" /></svg>