<?xml version="1.0" encoding="utf-8" ?>
<svg baseProfile="full" height="256" version="1.1" width="256" xmlns="http://www.w3.org/2000/svg" xmlns:ev="http://www.w3.org/2001/xml-events" xmlns:xlink="http://www.w3.org/1999/xlink"><defs /><path d="M2197 503Q2197 473 2185.5 447.0Q2174 421 2154.5 401.5Q2135 382 2109.0 371.0Q2083 360 2053 360Q2023 360 1997.0 371.0Q1971 382 1951.5 401.5Q1932 421 1920.5 447.0Q1909 473 1909 503Q1909 533 1920.0 559.0Q1931 585 1950.5 604.5Q1970 624 1996.5 635.5Q2023 647 2053 647Q2083 647 2109.0 635.5Q2135 624 2154.5 604.5Q2174 585 2185.5 559.0Q2197 533 2197 503Z" style="fill:#bca4eb;stroke:none" transform="scale(1,-1) translate(0,-256)" /></svg>