<?xml version="1.0" encoding="utf-8" ?>
<svg baseProfile="full" height="256" version="1.1" width="256" xmlns="http://www.w3.org/2000/svg" xmlns:ev="http://www.w3.org/2001/xml-events" xmlns:xlink="http://www.w3.org/1999/xlink"><defs /><path d="M1154 1581Q1183 1581 1204.5 1560.0Q1226 1539 1226 1510Q1226 1505 1225.0 1493.5Q1224 1482 1224.5 1469.5Q1225 1457 1227.0 1447.5Q1229 1438 1235 1438H1550Q1579 1438 1600.5 1416.5Q1622 1395 1622 1366V1222Q1622 1193 1600.5 1171.5Q1579 1150 1550 1150Q1520 1150 1499.0 1171.0Q1478 1192 1478 1222Q1478 1226 1479.0 1238.0Q1480 1250 1479.5 1262.5Q1479 1275 1477.0 1284.5Q1475 1294 1469 1294H840Q834 1294 832.0 1284.5Q830 1275 829.5 1262.5Q829 1250 830.0 1238.0Q831 1226 831 1222Q831 1192 810.0 1171.0Q789 1150 759 1150Q729 1150 708.0 1171.0Q687 1192 687 1222V1366Q687 1396 708.0 1417.0Q729 1438 759 1438H1074Q1080 1438 1082.0 1447.5Q1084 1457 1084.5 1469.5Q1085 1482 1084.0 1493.5Q1083 1505 1083 1510Q1083 1539 1104.0 1560.0Q1125 1581 1154 1581ZM1154 1222Q1184 1222 1202.0 1204.5Q1220 1187 1226 1159Q1228 1150 1235 1150H1406Q1436 1150 1457.0 1129.0Q1478 1108 1478 1078Q1478 1049 1456.5 1027.5Q1435 1006 1406 1006H1235Q1226 1006 1226 997V872Q1226 863 1235 863H1478Q1508 863 1529.0 842.0Q1550 821 1550 791Q1550 761 1529.0 740.0Q1508 719 1478 719H1235Q1226 719 1226 710V584Q1226 575 1235 575H1550Q1579 575 1600.5 553.5Q1622 532 1622 503Q1622 474 1600.5 452.5Q1579 431 1550 431H759Q730 431 708.5 452.5Q687 474 687 503Q687 533 708.0 554.0Q729 575 759 575H1074Q1083 575 1083 584V710Q1083 719 1074 719H831Q801 719 780.0 740.0Q759 761 759 791Q759 821 780.0 842.0Q801 863 831 863H1074Q1083 863 1083 872V997Q1083 1006 1074 1006H903Q874 1006 852.5 1027.5Q831 1049 831 1078Q831 1108 852.0 1129.0Q873 1150 903 1150H1074Q1078 1150 1080.0 1153.0Q1082 1156 1083 1159Q1091 1186 1106.5 1204.0Q1122 1222 1154 1222ZM1586 360Q1600 360 1611.0 349.0Q1622 338 1622 324V0Q1622 -29 1600.5 -50.5Q1579 -72 1550 -72Q1521 -72 1502.5 -54.0Q1484 -36 1478 -9Q1476 0 1469 0H840Q834 0 830.5 -11.5Q827 -23 819.5 -36.5Q812 -50 798.5 -61.0Q785 -72 759 -72Q729 -72 708.0 -51.0Q687 -30 687 0V324Q687 338 698.0 349.0Q709 360 723 360ZM840 216Q831 216 831 207V153Q831 144 840 144H1469Q1478 144 1478 153V207Q1478 216 1469 216ZM2125 1438Q2154 1438 2175.5 1416.5Q2197 1395 2197 1366V55Q2197 54 2195 54Q2192 27 2179.5 4.0Q2167 -19 2148.0 -36.0Q2129 -53 2104.5 -62.5Q2080 -72 2053 -72H1909Q1879 -72 1858.0 -51.0Q1837 -30 1837 0Q1837 30 1858.0 51.0Q1879 72 1909 72H2017Q2032 72 2042.5 82.5Q2053 93 2053 108V1366Q2053 1396 2074.0 1417.0Q2095 1438 2125 1438ZM1765 1222Q1765 1252 1786.0 1273.0Q1807 1294 1837 1294Q1867 1294 1888.0 1273.0Q1909 1252 1909 1222V288Q1909 258 1888.0 237.0Q1867 216 1837 216Q1807 216 1786.0 237.0Q1765 258 1765 288Z" style="fill:#ffffff;stroke:none" transform="scale(1,-1) translate(0,-256)" /></svg>