<?xml version="1.0" encoding="utf-8" ?>
<svg baseProfile="full" height="256" version="1.1" width="256" xmlns="http://www.w3.org/2000/svg" xmlns:ev="http://www.w3.org/2001/xml-events" xmlns:xlink="http://www.w3.org/1999/xlink"><defs /><path d="M1394 -287Q1163 -287 977.0 -216.0Q791 -145 660.0 -14.0Q529 117 458.5 303.0Q388 489 388 719Q388 949 458.5 1135.0Q529 1321 660.0 1452.0Q791 1583 977.0 1654.0Q1163 1725 1394 1725Q1625 1725 1811.0 1654.0Q1997 1583 2128.5 1452.0Q2260 1321 2330.5 1135.0Q2401 949 2401 719Q2401 489 2330.5 303.0Q2260 117 2128.5 -14.0Q1997 -145 1811.0 -216.0Q1625 -287 1394 -287Z" style="fill:#ffb02e;stroke:none" transform="scale(1,-1) translate(0,-256)" /></svg>