<?xml version="1.0" encoding="utf-8" ?>
<svg baseProfile="full" height="256" version="1.1" width="256" xmlns="http://www.w3.org/2000/svg" xmlns:ev="http://www.w3.org/2001/xml-events" xmlns:xlink="http://www.w3.org/1999/xlink"><defs /><path d="M1323 1042Q1323 975 1297.5 916.5Q1272 858 1228.0 814.0Q1184 770 1125.0 744.5Q1066 719 999 719Q932 719 873.5 744.5Q815 770 771.0 814.0Q727 858 701.5 916.5Q676 975 676 1042Q676 1109 701.5 1168.0Q727 1227 770.5 1271.0Q814 1315 873.0 1340.5Q932 1366 999 1366Q1066 1366 1125.0 1340.5Q1184 1315 1228.0 1271.0Q1272 1227 1297.5 1168.0Q1323 1109 1323 1042ZM1466 1042Q1466 975 1491.5 916.5Q1517 858 1561.0 814.0Q1605 770 1664.0 744.5Q1723 719 1790 719Q1857 719 1915.5 744.5Q1974 770 2018.0 814.0Q2062 858 2087.5 916.5Q2113 975 2113 1042Q2113 1109 2087.5 1168.0Q2062 1227 2018.0 1271.0Q1974 1315 1915.5 1340.5Q1857 1366 1790 1366Q1723 1366 1664.0 1340.5Q1605 1315 1561.0 1271.0Q1517 1227 1491.5 1168.0Q1466 1109 1466 1042Z" style="fill:#ffffff;stroke:none" transform="scale(1,-1) translate(0,-256)" /></svg>