<?xml version="1.0" encoding="utf-8" ?>
<svg baseProfile="full" height="256" version="1.1" width="256" xmlns="http://www.w3.org/2000/svg" xmlns:ev="http://www.w3.org/2001/xml-events" xmlns:xlink="http://www.w3.org/1999/xlink"><defs /><path d="M1044 813Q996 813 954.0 831.0Q912 849 880.5 880.5Q849 912 831.0 954.0Q813 996 813 1044Q813 1092 831.0 1134.0Q849 1176 880.5 1207.5Q912 1239 954.0 1257.0Q996 1275 1044 1275Q1092 1275 1133.5 1257.0Q1175 1239 1206.5 1207.5Q1238 1176 1256.0 1134.0Q1274 1092 1274 1044Q1274 996 1256.0 954.0Q1238 912 1206.5 880.5Q1175 849 1133.5 831.0Q1092 813 1044 813ZM1745 813Q1697 813 1655.0 831.0Q1613 849 1581.5 880.5Q1550 912 1532.0 954.0Q1514 996 1514 1044Q1514 1092 1532.0 1134.0Q1550 1176 1581.5 1207.5Q1613 1239 1655.0 1257.0Q1697 1275 1745 1275Q1793 1275 1835.0 1257.0Q1877 1239 1908.5 1207.5Q1940 1176 1958.0 1134.0Q1976 1092 1976 1044Q1976 996 1958.0 954.0Q1940 912 1908.5 880.5Q1877 849 1835.0 831.0Q1793 813 1745 813ZM1015 359Q1015 377 1025.5 391.5Q1036 406 1053 411Q1065 415 1099.5 425.0Q1134 435 1181.5 449.5Q1229 464 1286.0 481.5Q1343 499 1401.0 516.0Q1459 533 1514.5 549.5Q1570 566 1614.0 578.5Q1658 591 1686.5 598.5Q1715 606 1720 606Q1742 606 1758.0 590.5Q1774 575 1774 553Q1774 534 1763.0 520.0Q1752 506 1735 501Q1723 497 1688.5 487.0Q1654 477 1606.5 462.5Q1559 448 1502.0 430.5Q1445 413 1387.0 396.0Q1329 379 1274.0 362.5Q1219 346 1175.0 333.5Q1131 321 1102.5 313.5Q1074 306 1069 306Q1046 306 1030.5 321.5Q1015 337 1015 359Z" style="fill:#402a32;stroke:none" transform="scale(1,-1) translate(0,-256)" /></svg>