<?xml version="1.0" encoding="utf-8" ?>
<svg baseProfile="full" height="256" version="1.1" width="256" xmlns="http://www.w3.org/2000/svg" xmlns:ev="http://www.w3.org/2001/xml-events" xmlns:xlink="http://www.w3.org/1999/xlink"><defs /><path d="M1047 1258Q1047 1273 1057.5 1283.5Q1068 1294 1083 1294H1729Q1744 1294 1754.5 1283.5Q1765 1273 1765 1258Q1765 1243 1754.5 1232.5Q1744 1222 1729 1222H1083Q1068 1222 1057.5 1232.5Q1047 1243 1047 1258ZM1190 1042Q1190 1057 1200.5 1067.5Q1211 1078 1226 1078H1586Q1600 1078 1611.0 1067.0Q1622 1056 1622 1042Q1622 1028 1611.0 1017.0Q1600 1006 1586 1006H1226Q1212 1006 1201.0 1017.0Q1190 1028 1190 1042ZM1154 863Q1140 863 1129.0 852.0Q1118 841 1118 827Q1118 813 1129.0 802.0Q1140 791 1154 791H1658Q1672 791 1682.5 802.0Q1693 813 1693 827Q1693 841 1682.5 852.0Q1672 863 1658 863Z" style="fill:#998ea4;stroke:none" transform="scale(1,-1) translate(0,-256)" /></svg>