<?xml version="1.0" encoding="utf-8" ?>
<svg baseProfile="full" height="256" version="1.1" width="256" xmlns="http://www.w3.org/2000/svg" xmlns:ev="http://www.w3.org/2001/xml-events" xmlns:xlink="http://www.w3.org/1999/xlink"><defs /><path d="M1190 1510Q1190 1555 1207.0 1594.0Q1224 1633 1253.5 1662.0Q1283 1691 1322.0 1708.0Q1361 1725 1406 1725Q1451 1725 1490.0 1708.0Q1529 1691 1558.5 1662.0Q1588 1633 1605.0 1594.0Q1622 1555 1622 1510V-72Q1622 -117 1605.0 -156.0Q1588 -195 1558.5 -224.0Q1529 -253 1490.0 -270.0Q1451 -287 1406 -287Q1361 -287 1322.0 -270.0Q1283 -253 1253.5 -224.0Q1224 -195 1207.0 -156.0Q1190 -117 1190 -72Z" style="fill:#f3ad61;stroke:none" transform="scale(1,-1) translate(0,-256)" /></svg>