<?xml version="1.0" encoding="utf-8" ?>
<svg baseProfile="full" height="256" version="1.1" width="256" xmlns="http://www.w3.org/2000/svg" xmlns:ev="http://www.w3.org/2001/xml-events" xmlns:xlink="http://www.w3.org/1999/xlink"><defs /><path d="M1334 1438Q1334 1402 1327.5 1373.5Q1321 1345 1308.5 1319.5Q1296 1294 1278.0 1270.5Q1260 1247 1237 1222Q1226 1211 1215.5 1193.0Q1205 1175 1196.0 1154.5Q1187 1134 1181.5 1114.0Q1176 1094 1176 1078Q1175 875 1173.5 675.0Q1172 475 1172 272Q1172 202 1197.5 148.0Q1223 94 1266.5 57.0Q1310 20 1368.5 1.0Q1427 -18 1493 -18Q1574 -18 1640.0 18.0Q1706 54 1742 128Q1759 163 1771.0 205.0Q1783 247 1783 287Q1783 324 1770.5 354.0Q1758 384 1742.5 412.5Q1727 441 1714.5 469.5Q1702 498 1702 532Q1702 549 1704.0 566.5Q1706 584 1706 601Q1706 626 1695.5 642.5Q1685 659 1673.0 671.5Q1661 684 1650.5 694.5Q1640 705 1640 718Q1640 728 1645.5 735.0Q1651 742 1659.0 746.0Q1667 750 1676.5 752.0Q1686 754 1694 754Q1724 754 1761.0 734.5Q1798 715 1833.0 687.0Q1868 659 1897.0 627.5Q1926 596 1942 572Q1962 541 1979.0 505.0Q1996 469 2008.5 431.0Q2021 393 2028.0 354.0Q2035 315 2035 278Q2035 258 2032.5 238.5Q2030 219 2027 199Q2010 96 1964.5 10.0Q1919 -76 1850.0 -138.5Q1781 -201 1690.5 -235.5Q1600 -270 1493 -270Q1374 -270 1270.0 -231.5Q1166 -193 1088.5 -122.0Q1011 -51 966.0 49.0Q921 149 921 272Q921 477 922.5 680.0Q924 883 925 1088Q925 1101 918.0 1119.5Q911 1138 901.5 1157.0Q892 1176 880.5 1193.0Q869 1210 860 1219Q812 1267 785.5 1317.0Q759 1367 759 1437Q759 1496 781.5 1548.5Q804 1601 842.5 1640.0Q881 1679 933.0 1702.0Q985 1725 1044 1725Q1104 1725 1157.0 1702.5Q1210 1680 1249.0 1641.0Q1288 1602 1311.0 1549.5Q1334 1497 1334 1437ZM1046 1294Q1076 1294 1102.0 1305.0Q1128 1316 1147.5 1335.5Q1167 1355 1178.5 1381.0Q1190 1407 1190 1437Q1190 1466 1179.0 1492.5Q1168 1519 1148.5 1538.5Q1129 1558 1103.0 1569.5Q1077 1581 1048 1581Q1018 1581 991.5 1570.0Q965 1559 945.5 1540.0Q926 1521 914.5 1494.5Q903 1468 903 1438Q903 1408 914.0 1382.0Q925 1356 944.5 1336.5Q964 1317 990.0 1305.5Q1016 1294 1046 1294Z" style="fill:#f9c23c;stroke:none" transform="scale(1,-1) translate(0,-256)" /></svg>