<?xml version="1.0" encoding="utf-8" ?>
<svg baseProfile="full" height="256" version="1.1" width="256" xmlns="http://www.w3.org/2000/svg" xmlns:ev="http://www.w3.org/2001/xml-events" xmlns:xlink="http://www.w3.org/1999/xlink"><defs /><path d="M913 1152 1065 1383 1025 1680 954 1689 829 1449 844 1174ZM1258 1044Q1351 1016 1414.5 996.0Q1478 976 1521.0 954.5Q1564 933 1592.0 905.0Q1620 877 1641.5 834.0Q1663 791 1683.0 727.5Q1703 664 1731 571L2062 546L2323 696Q2315 760 2307.5 823.0Q2300 886 2292 950Q2275 1080 2219.5 1192.5Q2164 1305 2078.0 1391.5Q1992 1478 1879.5 1533.5Q1767 1589 1637 1606Q1574 1614 1510.5 1621.5Q1447 1629 1384 1637L1308 1445Q1302 1431 1296.5 1420.0Q1291 1409 1286.0 1398.0Q1281 1387 1277.0 1375.5Q1273 1364 1270 1349Q1264 1320 1265.5 1298.5Q1267 1277 1266 1247ZM2367 338 2087 348 1839 226 1861 157H2130L2375 267ZM2401 52 2150 60 1926 -49 1948 -121Q1960 -159 1982.5 -189.5Q2005 -220 2035.0 -242.0Q2065 -264 2101.0 -276.0Q2137 -288 2176 -288Q2224 -288 2267.0 -269.5Q2310 -251 2342.5 -218.5Q2375 -186 2393.5 -143.0Q2412 -100 2412 -52Q2412 -26 2408.0 0.0Q2404 26 2401 52ZM638 1239 567 1261Q529 1273 498.5 1295.0Q468 1317 446.0 1347.0Q424 1377 412.0 1413.0Q400 1449 400 1488Q400 1537 418.5 1580.0Q437 1623 469.0 1655.0Q501 1687 544.0 1706.0Q587 1725 636 1725Q662 1725 687.5 1721.5Q713 1718 739 1715L729 1548Q728 1536 728.0 1525.5Q728 1515 728.0 1505.5Q728 1496 727.5 1486.0Q727 1476 724 1464Q722 1457 716.5 1440.0Q711 1423 702.5 1401.0Q694 1379 684.0 1354.5Q674 1330 665.0 1307.0Q656 1284 648.5 1266.0Q641 1248 638 1239Z" style="fill:#d3883e;stroke:none" transform="scale(1,-1) translate(0,-256)" /></svg>