<?xml version="1.0" encoding="utf-8" ?>
<svg baseProfile="full" height="256" version="1.1" width="256" xmlns="http://www.w3.org/2000/svg" xmlns:ev="http://www.w3.org/2001/xml-events" xmlns:xlink="http://www.w3.org/1999/xlink"><defs /><path d="M2290 719Q2316 719 2338.0 704.5Q2360 690 2370 666Q2374 657 2381.0 641.5Q2388 626 2395.0 609.0Q2402 592 2407.5 577.0Q2413 562 2413 553Q2413 532 2397.5 517.5Q2382 503 2362 503H1240Q1220 503 1205.0 516.5Q1190 530 1190 551Q1190 556 1191.0 560.0Q1192 564 1194 569L1233 665Q1243 689 1265.5 703.5Q1288 718 1314 718Z" style="fill:#f8312f;stroke:none" transform="scale(1,-1) translate(0,-256)" /></svg>