<?xml version="1.0" encoding="utf-8" ?>
<svg baseProfile="full" height="256" version="1.1" width="256" xmlns="http://www.w3.org/2000/svg" xmlns:ev="http://www.w3.org/2001/xml-events" xmlns:xlink="http://www.w3.org/1999/xlink"><defs /><path d="M975 1581Q985 1581 997.5 1581.5Q1010 1582 1021.0 1579.0Q1032 1576 1039.5 1568.5Q1047 1561 1047 1546Q1047 1530 1039.5 1522.5Q1032 1515 1021.5 1512.0Q1011 1509 998.0 1509.5Q985 1510 975 1510V1236Q975 1221 964.5 1211.0Q954 1201 939 1201Q924 1201 913.5 1211.0Q903 1221 903 1236V1510Q892 1510 879.5 1509.5Q867 1509 856.5 1512.0Q846 1515 838.5 1522.5Q831 1530 831 1546Q831 1561 838.5 1568.5Q846 1576 857.0 1579.0Q868 1582 880.5 1581.5Q893 1581 903 1581Q903 1591 902.5 1604.0Q902 1617 905.0 1627.5Q908 1638 915.5 1645.5Q923 1653 939 1653Q955 1653 962.5 1645.5Q970 1638 973.0 1627.5Q976 1617 975.5 1604.0Q975 1591 975 1581Z" style="fill:#8c5543;stroke:none" transform="scale(1,-1) translate(0,-256)" /></svg>