<?xml version="1.0" encoding="utf-8" ?>
<svg baseProfile="full" height="256" version="1.1" width="256" xmlns="http://www.w3.org/2000/svg" xmlns:ev="http://www.w3.org/2001/xml-events" xmlns:xlink="http://www.w3.org/1999/xlink"><defs /><path d="M463 913Q437 913 418.5 931.5Q400 950 400 976Q400 991 407.0 1005.0Q414 1019 426 1027L871 1344Q902 1366 939 1366Q976 1366 1007 1344L1451 1027Q1463 1018 1470.5 1004.5Q1478 991 1478 976Q1478 950 1459.5 931.5Q1441 913 1415 913Q1396 913 1379 925L983 1208Q963 1222 939 1222Q916 1222 896 1208L499 925Q482 913 463 913ZM2125 1165Q2125 1192 2115.0 1215.5Q2105 1239 2087.5 1256.5Q2070 1274 2046.5 1284.0Q2023 1294 1996 1294Q1967 1294 1945.0 1283.0Q1923 1272 1908.0 1259.0Q1893 1246 1884.5 1235.0Q1876 1224 1874 1224Q1870 1224 1862.0 1235.0Q1854 1246 1839.5 1259.0Q1825 1272 1803.5 1283.0Q1782 1294 1752 1294Q1725 1294 1701.0 1283.5Q1677 1273 1659.5 1255.0Q1642 1237 1632.0 1213.0Q1622 1189 1622 1162Q1622 1134 1630.5 1105.0Q1639 1076 1655 1053Q1667 1036 1695.0 1004.0Q1723 972 1756.0 940.5Q1789 909 1821.5 886.0Q1854 863 1874 863Q1894 863 1926.5 886.0Q1959 909 1992.0 940.5Q2025 972 2052.5 1004.0Q2080 1036 2092 1053Q2109 1078 2117.0 1106.5Q2125 1135 2125 1165Z" style="fill:#f8312f;stroke:none" transform="scale(1,-1) translate(0,-256)" /></svg>