<?xml version="1.0" encoding="utf-8" ?>
<svg baseProfile="full" height="256" version="1.1" width="256" xmlns="http://www.w3.org/2000/svg" xmlns:ev="http://www.w3.org/2001/xml-events" xmlns:xlink="http://www.w3.org/1999/xlink"><defs /><path d="M759 755Q759 792 773.0 825.0Q787 858 811.5 882.5Q836 907 869.0 921.0Q902 935 939 935Q976 935 1008.5 921.0Q1041 907 1065.5 882.5Q1090 858 1104.0 825.0Q1118 792 1118 755Q1118 718 1104.0 685.0Q1090 652 1065.5 627.5Q1041 603 1008.5 589.0Q976 575 939 575Q902 575 869.0 589.0Q836 603 811.5 627.5Q787 652 773.0 685.0Q759 718 759 755ZM1550 -72V252Q1550 274 1558.5 293.5Q1567 313 1582.0 328.0Q1597 343 1616.5 351.5Q1636 360 1658 360Q1680 360 1699.5 351.5Q1719 343 1734.0 328.0Q1749 313 1757.5 293.5Q1766 274 1766 252V-72ZM1910 -72V252Q1910 274 1918.5 293.5Q1927 313 1942.0 328.0Q1957 343 1976.5 351.5Q1996 360 2018 360Q2040 360 2059.5 351.5Q2079 343 2093.5 328.0Q2108 313 2116.5 293.5Q2125 274 2125 252V-72Z" style="fill:#50e2ff;stroke:none" transform="scale(1,-1) translate(0,-256)" /></svg>