<?xml version="1.0" encoding="utf-8" ?>
<svg baseProfile="full" height="256" version="1.1" width="256" xmlns="http://www.w3.org/2000/svg" xmlns:ev="http://www.w3.org/2001/xml-events" xmlns:xlink="http://www.w3.org/1999/xlink"><defs /><path d="M721 746H722Q722 765 720.5 784.0Q719 803 719 822Q719 891 750.0 940.5Q781 990 841 1018Q897 1044 935.5 1085.0Q974 1126 999 1182Q1002 1190 1005.5 1198.5Q1009 1207 1013.5 1214.0Q1018 1221 1025.0 1225.5Q1032 1230 1043 1230Q1059 1230 1071 1215Q1084 1199 1095.5 1183.5Q1107 1168 1121 1153Q1194 1076 1291.5 1034.0Q1389 992 1495 992H1923Q1959 992 1987.0 977.0Q2015 962 2034.5 937.0Q2054 912 2064.0 880.0Q2074 848 2074 815Q2074 796 2073.5 780.5Q2073 765 2072.0 750.5Q2071 736 2070.5 720.5Q2070 705 2069 686L2058 427Q2052 290 1999.0 175.5Q1946 61 1857.5 -21.5Q1769 -104 1650.5 -150.0Q1532 -196 1396 -196Q1261 -196 1142.5 -150.0Q1024 -104 935.0 -21.5Q846 61 792.5 175.5Q739 290 733 427Q730 507 727.0 586.5Q724 666 721 746Z" style="fill:#ffc83d;stroke:none" transform="scale(1,-1) translate(0,-256)" /></svg>