<?xml version="1.0" encoding="utf-8" ?>
<svg baseProfile="full" height="256" version="1.1" width="256" xmlns="http://www.w3.org/2000/svg" xmlns:ev="http://www.w3.org/2001/xml-events" xmlns:xlink="http://www.w3.org/1999/xlink"><defs /><path d="M1087 648Q1087 640 1081.0 633.0Q1075 626 1066 626Q1057 626 1050.5 632.5Q1044 639 1044 648Q1044 657 1051.0 663.0Q1058 669 1066 669Q1074 669 1080.5 662.5Q1087 656 1087 648ZM1671 648Q1671 639 1665.0 632.5Q1659 626 1650 626Q1641 626 1635.0 632.5Q1629 639 1629 648Q1629 656 1635.5 662.5Q1642 669 1650 669Q1658 669 1664.5 662.5Q1671 656 1671 648Z" style="fill:#ffffff;stroke:none" transform="scale(1,-1) translate(0,-256)" /></svg>