<?xml version="1.0" encoding="utf-8" ?>
<svg baseProfile="full" height="256" version="1.1" width="256" xmlns="http://www.w3.org/2000/svg" xmlns:ev="http://www.w3.org/2001/xml-events" xmlns:xlink="http://www.w3.org/1999/xlink"><defs /><path d="M1614 535Q1627 535 1636.0 526.0Q1645 517 1659.5 506.0Q1674 495 1697.5 486.0Q1721 477 1763 477Q1777 477 1787.5 466.0Q1798 455 1798 441Q1798 427 1787.5 416.0Q1777 405 1763 405Q1710 405 1666.5 419.5Q1623 434 1588 476Q1579 486 1579 499Q1579 514 1589.5 524.5Q1600 535 1614 535ZM1189 535Q1203 535 1213.5 524.5Q1224 514 1224 499Q1224 485 1214 475Q1214 474 1208.5 469.0Q1203 464 1201 463Q1183 448 1167 439Q1108 405 1040 405Q1026 405 1015.5 416.0Q1005 427 1005 441Q1005 455 1015.5 466.0Q1026 477 1040 477Q1071 477 1095.0 486.0Q1119 495 1136.5 506.0Q1154 517 1167.0 526.0Q1180 535 1189 535Z" style="fill:#ed9200;stroke:none" transform="scale(1,-1) translate(0,-256)" /></svg>