<?xml version="1.0" encoding="utf-8" ?>
<svg baseProfile="full" height="256" version="1.1" width="256" xmlns="http://www.w3.org/2000/svg" xmlns:ev="http://www.w3.org/2001/xml-events" xmlns:xlink="http://www.w3.org/1999/xlink"><defs /><path d="M945 826V825Q937 820 927 820Q913 820 902.0 830.5Q891 841 891 856Q891 865 895.5 873.0Q900 881 908 886V887Q955 910 1003.0 924.5Q1051 939 1104 939Q1115 939 1129.5 938.5Q1144 938 1157.5 934.5Q1171 931 1180.5 923.0Q1190 915 1190 899Q1190 885 1180.0 874.0Q1170 863 1155 863Q1142 863 1129.5 865.5Q1117 868 1104 868Q1079 868 1054.5 863.5Q1030 859 1006 851Q992 846 975.0 837.5Q958 829 945 826ZM1886 886Q1887 887 1884.0 888.5Q1881 890 1880 890Q1872 895 1864 898Q1822 917 1778.5 928.0Q1735 939 1690 939Q1679 939 1664.0 938.5Q1649 938 1635.5 934.0Q1622 930 1613.0 922.0Q1604 914 1604 898Q1604 884 1614.0 873.5Q1624 863 1638 863Q1651 863 1663.5 865.5Q1676 868 1689 868Q1715 868 1739.5 863.5Q1764 859 1788 851Q1802 846 1818.5 837.5Q1835 829 1849 826V825Q1857 820 1867 820Q1881 820 1892.0 830.5Q1903 841 1903 856Q1903 865 1898.5 873.0Q1894 881 1886 886Z" style="fill:#9b9b9b;stroke:none" transform="scale(1,-1) translate(0,-256)" /></svg>