<?xml version="1.0" encoding="utf-8" ?>
<svg baseProfile="full" height="256" version="1.1" width="256" xmlns="http://www.w3.org/2000/svg" xmlns:ev="http://www.w3.org/2001/xml-events" xmlns:xlink="http://www.w3.org/1999/xlink"><defs /><path d="M1397 1498Q1553 1498 1682.0 1469.0Q1811 1440 1908.5 1373.5Q2006 1307 2069.5 1197.5Q2133 1088 2159 926Q2161 910 2162.5 894.5Q2164 879 2164 863Q2164 767 2122.5 687.5Q2081 608 2013.5 550.0Q1946 492 1859.0 460.0Q1772 428 1682 428H1076Q988 428 902.5 459.0Q817 490 750.0 546.0Q683 602 642.0 680.0Q601 758 601 852Q601 891 608 925Q638 1086 707.0 1196.0Q776 1306 877.0 1373.0Q978 1440 1109.5 1469.0Q1241 1498 1397 1498Z" style="fill:#9b9b9b;stroke:none" transform="scale(1,-1) translate(0,-256)" /></svg>