<?xml version="1.0" encoding="utf-8" ?>
<svg baseProfile="full" height="256" version="1.1" width="256" xmlns="http://www.w3.org/2000/svg" xmlns:ev="http://www.w3.org/2001/xml-events" xmlns:xlink="http://www.w3.org/1999/xlink"><defs /><path d="M1753 1355Q1753 1281 1725.0 1216.0Q1697 1151 1649.0 1102.5Q1601 1054 1536.0 1026.0Q1471 998 1397 998Q1323 998 1258.0 1026.0Q1193 1054 1144.5 1102.5Q1096 1151 1068.0 1216.0Q1040 1281 1040 1355Q1040 1429 1068.0 1494.0Q1096 1559 1144.5 1607.5Q1193 1656 1258.0 1684.0Q1323 1712 1397 1712Q1471 1712 1536.0 1684.0Q1601 1656 1649.0 1607.5Q1697 1559 1725.0 1494.0Q1753 1429 1753 1355Z" style="fill:#636363;stroke:none" transform="scale(1,-1) translate(0,-256)" /></svg>