<?xml version="1.0" encoding="utf-8" ?>
<svg baseProfile="full" height="256" version="1.1" width="256" xmlns="http://www.w3.org/2000/svg" xmlns:ev="http://www.w3.org/2001/xml-events" xmlns:xlink="http://www.w3.org/1999/xlink"><defs /><path d="M1406 1445Q1420 1445 1433.0 1440.5Q1446 1436 1456 1426L1838 1058Q1860 1038 1860 1007Q1860 977 1839.0 956.0Q1818 935 1788 935H1568Q1560 935 1555.0 930.0Q1550 925 1550 917V521Q1550 513 1555.0 508.0Q1560 503 1568 503H1788Q1818 503 1839.0 482.0Q1860 461 1860 431Q1860 400 1838 380L1456 12Q1436 -8 1406 -8Q1376 -8 1356 12L974 380Q952 400 952 431Q952 461 973.0 482.0Q994 503 1024 503H1244Q1252 503 1257.0 508.0Q1262 513 1262 521V917Q1262 925 1257.0 930.0Q1252 935 1244 935H1024Q994 935 973.0 956.0Q952 977 952 1007Q952 1038 974 1058L1356 1426Q1366 1436 1379.0 1440.5Q1392 1445 1406 1445Z" style="fill:#ffffff;stroke:none" transform="scale(1,-1) translate(0,-256)" /></svg>