<?xml version="1.0" encoding="utf-8" ?>
<svg baseProfile="full" height="256" version="1.1" width="256" xmlns="http://www.w3.org/2000/svg" xmlns:ev="http://www.w3.org/2001/xml-events" xmlns:xlink="http://www.w3.org/1999/xlink"><defs /><path d="M1653 1150Q1616 1150 1583.0 1164.0Q1550 1178 1525.5 1202.5Q1501 1227 1487.0 1260.0Q1473 1293 1473 1330Q1473 1367 1487.0 1400.0Q1501 1433 1525.5 1457.5Q1550 1482 1583.0 1496.0Q1616 1510 1653 1510Q1690 1510 1722.5 1496.0Q1755 1482 1779.5 1457.5Q1804 1433 1818.0 1400.0Q1832 1367 1832 1330Q1832 1293 1818.0 1260.0Q1804 1227 1779.5 1202.5Q1755 1178 1722.5 1164.0Q1690 1150 1653 1150ZM1892 1061Q1925 1061 1954.0 1048.5Q1983 1036 2005.0 1014.0Q2027 992 2039.5 963.0Q2052 934 2052 901V530Q2052 516 2046.5 503.0Q2041 490 2032.0 479.5Q2023 469 2010.5 462.5Q1998 456 1984 456Q1952 456 1930.0 476.0Q1908 496 1908 528L1910 877Q1910 892 1899.5 902.5Q1889 913 1874 913Q1860 913 1849.0 902.0Q1838 891 1838 877L1837 -22Q1837 -54 1815.0 -74.0Q1793 -94 1761 -94Q1747 -94 1734.5 -87.5Q1722 -81 1713.0 -70.5Q1704 -60 1698.5 -47.0Q1693 -34 1693 -20V480Q1693 495 1681.5 505.5Q1670 516 1655 516Q1641 516 1631.0 504.5Q1621 493 1621 479V-22Q1621 -54 1599.5 -74.0Q1578 -94 1546 -94Q1531 -94 1518.5 -87.5Q1506 -81 1497.0 -70.5Q1488 -60 1482.5 -47.0Q1477 -34 1477 -20V898Q1477 904 1472.5 908.5Q1468 913 1462 913Q1458 913 1454.0 909.5Q1450 906 1448 902L1377 709Q1363 671 1329.5 648.0Q1296 625 1256 625H1116Q1084 625 1064.5 647.0Q1045 669 1045 700Q1045 715 1051.0 727.5Q1057 740 1067.5 749.0Q1078 758 1091.0 763.5Q1104 769 1118 769H1246L1316 958Q1333 1004 1373.5 1032.5Q1414 1061 1463 1061ZM906 493Q906 501 912 507L981 576Q987 582 995 582Q1003 582 1009 576L1111 474Q1117 468 1117 460Q1117 452 1111 446L1042 377Q1036 371 1028 371Q1020 371 1014 377L912 479Q906 485 906 493ZM1191 467Q1191 482 1201.5 492.5Q1212 503 1227 503Q1242 503 1252.5 492.5Q1263 482 1263 467V-18Q1263 -41 1247.5 -56.5Q1232 -72 1209 -72H814Q791 -72 775.5 -56.5Q760 -41 760 -18V467Q760 482 770.5 492.5Q781 503 796 503Q811 503 821.5 492.5Q832 482 832 467V0H1191Z" style="fill:#ffffff;stroke:none" transform="scale(1,-1) translate(0,-256)" /></svg>