<?xml version="1.0" encoding="utf-8" ?>
<svg baseProfile="full" height="256" version="1.1" width="256" xmlns="http://www.w3.org/2000/svg" xmlns:ev="http://www.w3.org/2001/xml-events" xmlns:xlink="http://www.w3.org/1999/xlink"><defs /><path d="M1990 -291Q1873 -291 1767.5 -245.0Q1662 -199 1582 -114L977 534Q969 542 965.5 552.0Q962 562 962 573Q962 586 968.5 597.5Q975 609 985.0 619.5Q995 630 1006.0 639.5Q1017 649 1026 657L1612 29Q1692 -56 1798.0 -102.0Q1904 -148 2021 -148Q2119 -148 2210.5 -115.5Q2302 -83 2377 -20Q2389 -32 2400.5 -46.5Q2412 -61 2412 -79Q2412 -100 2398.5 -114.0Q2385 -128 2371 -141Q2294 -213 2195.0 -252.0Q2096 -291 1990 -291Z" style="fill:#e6e6e6;stroke:none" transform="scale(1,-1) translate(0,-256)" /></svg>