<?xml version="1.0" encoding="utf-8" ?>
<svg baseProfile="full" height="256" version="1.1" width="256" xmlns="http://www.w3.org/2000/svg" xmlns:ev="http://www.w3.org/2001/xml-events" xmlns:xlink="http://www.w3.org/1999/xlink"><defs /><path d="M833 1445Q833 1418 814.0 1398.5Q795 1379 768 1379Q741 1379 722.0 1398.5Q703 1418 703 1445Q703 1472 722.0 1491.0Q741 1510 768 1510Q795 1510 814.0 1491.0Q833 1472 833 1445ZM1095 1165Q1095 1138 1076.0 1119.0Q1057 1100 1030 1100Q1003 1100 983.5 1119.0Q964 1138 964 1165Q964 1192 983.5 1211.0Q1003 1230 1030 1230Q1057 1230 1076.0 1211.0Q1095 1192 1095 1165Z" style="fill:#f9c23c;stroke:none" transform="scale(1,-1) translate(0,-256)" /></svg>