<?xml version="1.0" encoding="utf-8" ?>
<svg baseProfile="full" height="256" version="1.1" width="256" xmlns="http://www.w3.org/2000/svg" xmlns:ev="http://www.w3.org/2001/xml-events" xmlns:xlink="http://www.w3.org/1999/xlink"><defs /><path d="M1310 1122 1233 950 1051 880 813 1134Q768 1182 716.5 1208.5Q665 1235 602 1247Q558 1256 521.0 1277.0Q484 1298 457.0 1329.0Q430 1360 415.0 1400.0Q400 1440 400 1485Q400 1535 418.5 1578.5Q437 1622 469.5 1654.5Q502 1687 545.5 1706.0Q589 1725 639 1725Q690 1725 738.0 1704.5Q786 1684 821 1646Z" style="fill:#7167a4;stroke:none" transform="scale(1,-1) translate(0,-256)" /></svg>