<?xml version="1.0" encoding="utf-8" ?>
<svg baseProfile="full" height="256" version="1.1" width="256" xmlns="http://www.w3.org/2000/svg" xmlns:ev="http://www.w3.org/2001/xml-events" xmlns:xlink="http://www.w3.org/1999/xlink"><defs /><path d="M2412 1545Q2412 1510 2399.0 1476.5Q2386 1443 2360 1418L2108 1167L1854 1421L2105 1673Q2130 1699 2163.5 1712.0Q2197 1725 2232 1725Q2269 1725 2302.0 1711.0Q2335 1697 2359.5 1672.5Q2384 1648 2398.0 1615.0Q2412 1582 2412 1545ZM885 1294Q837 1294 794.0 1275.5Q751 1257 719.5 1225.5Q688 1194 669.5 1151.0Q651 1108 651 1060Q651 1013 669.0 970.5Q687 928 720 895L1618 -3Q1651 -36 1693.5 -53.5Q1736 -71 1783 -71Q1831 -71 1873.5 -52.5Q1916 -34 1948.0 -2.5Q1980 29 1998.5 71.5Q2017 114 2017 162Q2017 209 1999.0 251.5Q1981 294 1948 327L1050 1226Q1018 1259 974.5 1276.5Q931 1294 885 1294Z" style="fill:#bebebe;stroke:none" transform="scale(1,-1) translate(0,-256)" /></svg>