<?xml version="1.0" encoding="utf-8" ?>
<svg baseProfile="full" height="256" version="1.1" width="256" xmlns="http://www.w3.org/2000/svg" xmlns:ev="http://www.w3.org/2001/xml-events" xmlns:xlink="http://www.w3.org/1999/xlink"><defs /><path d="M1790 925Q1846 925 1899.5 911.5Q1953 898 2001.0 872.5Q2049 847 2090.0 809.5Q2131 772 2162 725Q2173 708 2184.0 688.5Q2195 669 2202 649Q2202 648 2202.5 646.0Q2203 644 2203 642Q2203 634 2198.0 629.0Q2193 624 2185 624Q2178 624 2171 631Q2144 660 2119.0 686.5Q2094 713 2059 733Q2019 756 1974.5 768.0Q1930 780 1883 780Q1810 780 1746.0 752.5Q1682 725 1634.0 677.5Q1586 630 1558.0 566.0Q1530 502 1530 429Q1530 332 1577.5 250.5Q1625 169 1709 121Q1763 90 1822 80Q1829 78 1836.5 78.0Q1844 78 1851 76Q1859 74 1863.0 70.0Q1867 66 1867 58Q1867 50 1860.5 45.5Q1854 41 1845.0 39.0Q1836 37 1826.5 36.5Q1817 36 1811 36Q1748 36 1689.0 49.5Q1630 63 1577.5 90.5Q1525 118 1481.5 160.0Q1438 202 1406 258Q1374 202 1330.5 160.5Q1287 119 1234.5 91.0Q1182 63 1123.0 49.5Q1064 36 1001 36Q996 36 986.5 36.5Q977 37 968.0 39.0Q959 41 952.5 45.5Q946 50 946 58Q946 66 950.0 70.0Q954 74 962 76Q969 78 976.0 78.0Q983 78 991 80Q1021 86 1050.5 96.5Q1080 107 1106 122Q1147 145 1179.5 178.5Q1212 212 1235.0 251.5Q1258 291 1270.5 336.0Q1283 381 1283 428Q1283 501 1255.0 565.0Q1227 629 1179.0 677.0Q1131 725 1066.5 752.5Q1002 780 929 780Q885 780 842.0 769.0Q799 758 761 737Q723 716 697.0 689.5Q671 663 642 631Q636 623 627 623Q619 623 614.0 628.0Q609 633 609 641Q609 643 609.0 645.0Q609 647 610 649Q634 712 676.5 763.0Q719 814 773.0 850.0Q827 886 890.5 905.5Q954 925 1021 925Q992 976 977.0 1032.5Q962 1089 962 1147Q962 1181 968.0 1218.0Q974 1255 986.0 1291.5Q998 1328 1015.0 1361.0Q1032 1394 1055 1420Q1060 1427 1068 1427Q1076 1427 1082.0 1421.5Q1088 1416 1088 1408Q1088 1404 1086 1400Q1072 1363 1063.0 1328.0Q1054 1293 1054 1252Q1054 1179 1081.5 1115.0Q1109 1051 1157.0 1003.0Q1205 955 1269.0 927.5Q1333 900 1406 900Q1478 900 1542.0 927.5Q1606 955 1654.5 1003.0Q1703 1051 1731.0 1115.0Q1759 1179 1759 1251Q1759 1292 1750.5 1327.5Q1742 1363 1727 1401Q1725 1405 1725 1409Q1725 1417 1730.0 1422.0Q1735 1427 1743 1427Q1750 1427 1757 1420Q1779 1395 1796.5 1361.5Q1814 1328 1826.0 1291.5Q1838 1255 1844.0 1217.5Q1850 1180 1850 1147Q1850 1088 1835.0 1032.0Q1820 976 1790 925ZM1298 719Q1298 696 1306.5 676.5Q1315 657 1329.5 642.5Q1344 628 1363.5 619.5Q1383 611 1406 611Q1428 611 1448.0 619.5Q1468 628 1482.5 642.5Q1497 657 1505.5 676.5Q1514 696 1514 719Q1514 741 1505.5 761.0Q1497 781 1482.5 795.5Q1468 810 1448.0 818.5Q1428 827 1406 827Q1383 827 1363.5 818.5Q1344 810 1329.5 795.5Q1315 781 1306.5 761.0Q1298 741 1298 719ZM1212 1068Q1197 1068 1186.5 1079.5Q1176 1091 1176 1105Q1176 1119 1190.0 1131.0Q1204 1143 1226.0 1152.0Q1248 1161 1274.5 1167.5Q1301 1174 1326.5 1178.0Q1352 1182 1373.5 1184.0Q1395 1186 1406 1186Q1423 1186 1461.0 1181.5Q1499 1177 1538.0 1167.5Q1577 1158 1606.5 1142.5Q1636 1127 1636 1105Q1636 1090 1625.5 1079.0Q1615 1068 1600 1068Q1593 1068 1583 1072Q1537 1091 1496.5 1102.5Q1456 1114 1406 1114Q1356 1114 1314.5 1103.0Q1273 1092 1228 1072Q1224 1070 1220.5 1069.0Q1217 1068 1212 1068ZM1205 358Q1205 369 1201.0 375.5Q1197 382 1189 388Q1151 418 1119.0 448.5Q1087 479 1063 521Q1038 564 1028.5 606.0Q1019 648 1011 696Q1009 711 999.5 720.5Q990 730 974 730Q957 730 948.0 719.0Q939 708 939 692Q939 642 956.0 588.5Q973 535 1001.5 485.5Q1030 436 1068.0 394.5Q1106 353 1149 328Q1158 322 1169 322Q1183 322 1194.0 333.0Q1205 344 1205 358ZM1833 705Q1850 705 1860.0 693.0Q1870 681 1870 664Q1870 650 1866.5 637.5Q1863 625 1860 612Q1850 571 1832.0 531.0Q1814 491 1789.5 454.0Q1765 417 1734.0 386.0Q1703 355 1667 333Q1658 327 1647 327Q1632 327 1621.5 337.0Q1611 347 1611 362Q1611 379 1627 392Q1670 427 1697.5 455.0Q1725 483 1743.5 513.5Q1762 544 1774.0 581.5Q1786 619 1798 673Q1801 687 1809.5 696.0Q1818 705 1833 705Z" style="fill:#000000;stroke:none" transform="scale(1,-1) translate(0,-256)" /></svg>