<?xml version="1.0" encoding="utf-8" ?>
<svg baseProfile="full" height="256" version="1.1" width="256" xmlns="http://www.w3.org/2000/svg" xmlns:ev="http://www.w3.org/2001/xml-events" xmlns:xlink="http://www.w3.org/1999/xlink"><defs /><path d="M1934 -287H884Q828 -287 779.0 -266.0Q730 -245 693.5 -208.5Q657 -172 636.0 -123.0Q615 -74 615 -18V711Q615 820 643.5 921.5Q672 1023 724.0 1111.5Q776 1200 848.5 1272.5Q921 1345 1009.5 1396.5Q1098 1448 1199.0 1476.5Q1300 1505 1410 1505Q1519 1505 1620.5 1476.5Q1722 1448 1810.5 1396.5Q1899 1345 1971.5 1272.5Q2044 1200 2095.5 1111.5Q2147 1023 2175.5 921.5Q2204 820 2204 711V-18Q2204 -74 2182.5 -123.0Q2161 -172 2124.5 -208.5Q2088 -245 2038.5 -266.0Q1989 -287 1934 -287Z" style="fill:#f8312f;stroke:none" transform="scale(1,-1) translate(0,-256)" /></svg>