<?xml version="1.0" encoding="utf-8" ?>
<svg baseProfile="full" height="256" version="1.1" width="256" xmlns="http://www.w3.org/2000/svg" xmlns:ev="http://www.w3.org/2001/xml-events" xmlns:xlink="http://www.w3.org/1999/xlink"><defs /><path d="M831 94Q831 215 873.5 327.0Q916 439 992.5 525.5Q1069 612 1174.5 663.5Q1280 715 1406 715Q1532 715 1637.5 663.5Q1743 612 1819.5 525.5Q1896 439 1938.5 327.0Q1981 215 1981 94V31Q1981 112 1962.0 189.5Q1943 267 1907.0 336.0Q1871 405 1820.0 463.0Q1769 521 1705.0 563.5Q1641 606 1565.5 629.5Q1490 653 1406 653Q1322 653 1246.5 629.5Q1171 606 1107.0 563.5Q1043 521 992.0 463.0Q941 405 905.0 336.0Q869 267 850.0 189.5Q831 112 831 31Z" style="fill:#ca0b4a;stroke:none" transform="scale(1,-1) translate(0,-256)" /></svg>