<?xml version="1.0" encoding="utf-8" ?>
<svg baseProfile="full" height="256" version="1.1" width="256" xmlns="http://www.w3.org/2000/svg" xmlns:ev="http://www.w3.org/2001/xml-events" xmlns:xlink="http://www.w3.org/1999/xlink"><defs /><path d="M825 1015Q810 1015 799.0 1025.0Q788 1035 788 1051Q788 1057 791 1065L792 1066Q792 1069 796.5 1077.0Q801 1085 806.5 1095.0Q812 1105 816.5 1113.0Q821 1121 823 1124Q869 1201 934.0 1259.5Q999 1318 1076.0 1357.5Q1153 1397 1238.5 1417.0Q1324 1437 1412 1437Q1500 1437 1584.5 1417.0Q1669 1397 1744.0 1357.5Q1819 1318 1881.5 1259.5Q1944 1201 1989 1124Q1997 1110 2004.0 1094.5Q2011 1079 2019 1065V1063Q2021 1059 2021 1050Q2021 1036 2010.5 1025.5Q2000 1015 1985 1015Q1971 1015 1963.5 1022.0Q1956 1029 1951 1040V1041Q1934 1083 1902.0 1126.0Q1870 1169 1839 1200Q1752 1286 1642.5 1325.5Q1533 1365 1412 1365Q1289 1365 1177.5 1325.5Q1066 1286 977 1200Q939 1163 911.0 1123.0Q883 1083 857 1037Q851 1026 844.5 1020.5Q838 1015 825 1015ZM1539 1000H1280Q1244 1000 1218.5 1025.5Q1193 1051 1193 1087V1130Q1193 1166 1218.5 1191.5Q1244 1217 1280 1217H1538Q1574 1217 1599.5 1191.5Q1625 1166 1625 1130V1087Q1625 1051 1600.0 1025.5Q1575 1000 1539 1000ZM834 173Q855 173 870.5 159.5Q886 146 889 125Q891 110 894.5 91.5Q898 73 901.0 54.0Q904 35 906.5 16.5Q909 -2 909 -16Q909 -39 892.5 -55.5Q876 -72 853 -72H815Q792 -72 775.5 -55.5Q759 -39 759 -16Q759 -1 761.0 17.0Q763 35 766.0 54.0Q769 73 772.5 91.5Q776 110 778 125Q781 145 797.5 159.0Q814 173 834 173ZM803 118Q803 105 812.0 96.0Q821 87 834 87Q847 87 856.0 96.0Q865 105 865 118Q865 131 856.0 140.0Q847 149 834 149Q821 149 812.0 140.0Q803 131 803 118Z" style="fill:#fcd53f;stroke:none" transform="scale(1,-1) translate(0,-256)" /></svg>