<?xml version="1.0" encoding="utf-8" ?>
<svg baseProfile="full" height="256" version="1.1" width="256" xmlns="http://www.w3.org/2000/svg" xmlns:ev="http://www.w3.org/2001/xml-events" xmlns:xlink="http://www.w3.org/1999/xlink"><defs /><path d="M1806 1114 1900 1020 1998 1114Q2013 1129 2035 1129Q2057 1129 2073.0 1114.0Q2089 1099 2089 1076Q2089 1053 2073 1037L1977 943L2064 856Q2080 840 2080 818Q2080 795 2064.5 779.5Q2049 764 2026 764Q2004 764 1988 780L1904 863Q1870 824 1830.5 798.5Q1791 773 1737 773Q1699 773 1665.5 787.5Q1632 802 1606.5 827.0Q1581 852 1566.0 885.5Q1551 919 1551 957Q1551 983 1559.0 1005.5Q1567 1028 1580.0 1048.5Q1593 1069 1610.0 1087.0Q1627 1105 1645 1121V1122Q1609 1149 1584.0 1188.0Q1559 1227 1559 1274Q1559 1309 1572.5 1340.0Q1586 1371 1609.0 1394.0Q1632 1417 1663.0 1430.5Q1694 1444 1729 1444Q1764 1444 1795.0 1430.5Q1826 1417 1849.0 1394.0Q1872 1371 1885.5 1340.0Q1899 1309 1899 1274Q1899 1248 1891.0 1226.0Q1883 1204 1870.0 1185.0Q1857 1166 1840.0 1148.5Q1823 1131 1806 1114ZM1729 1337Q1703 1337 1684.5 1318.5Q1666 1300 1666 1274Q1666 1260 1672.5 1249.0Q1679 1238 1689.0 1228.0Q1699 1218 1709.5 1209.0Q1720 1200 1729 1191Q1737 1197 1747.5 1207.0Q1758 1217 1768.0 1228.0Q1778 1239 1784.5 1251.0Q1791 1263 1791 1274Q1791 1300 1773.0 1318.5Q1755 1337 1729 1337ZM1827 940 1723 1045Q1714 1042 1703.0 1031.5Q1692 1021 1682.0 1007.5Q1672 994 1665.5 980.5Q1659 967 1659 957Q1659 925 1682.5 903.0Q1706 881 1737 881Q1767 881 1788.0 899.5Q1809 918 1827 940ZM776 1437Q762 1437 751.5 1426.0Q741 1415 741 1401Q741 1387 751.5 1376.0Q762 1365 776 1365H1317Q1332 1365 1342.5 1375.5Q1353 1386 1353 1401Q1353 1416 1342.5 1426.5Q1332 1437 1317 1437ZM742 1222Q742 1252 763.0 1273.0Q784 1294 814 1294H1279Q1309 1294 1330.0 1273.0Q1351 1252 1351 1222Q1351 1192 1330.0 1171.0Q1309 1150 1279 1150H1119V856Q1119 827 1097.5 805.5Q1076 784 1047 784Q1017 784 996.0 805.0Q975 826 975 856V1150H814Q784 1150 763.0 1171.0Q742 1192 742 1222ZM1018 576Q966 576 920.5 556.5Q875 537 841.0 503.0Q807 469 787.5 424.0Q768 379 768 327Q768 276 788.0 230.5Q808 185 842.0 151.0Q876 117 921.5 97.5Q967 78 1018 78Q1040 78 1056.0 62.0Q1072 46 1072 24Q1072 2 1056.0 -14.0Q1040 -30 1018 -30Q944 -30 879.0 -2.0Q814 26 765.5 74.5Q717 123 689.0 188.0Q661 253 661 327Q661 401 689.0 466.0Q717 531 765.5 579.5Q814 628 879.0 656.0Q944 684 1018 684Q1092 684 1157.0 656.0Q1222 628 1270.5 579.5Q1319 531 1347.0 466.0Q1375 401 1375 327Q1375 309 1371.5 278.0Q1368 247 1358.5 217.0Q1349 187 1332.5 165.0Q1316 143 1291 143H1130Q1105 143 1088 163Q1048 144 1008 144Q972 144 940.0 158.0Q908 172 884.0 196.0Q860 220 846.0 252.0Q832 284 832 320Q832 356 846.0 388.0Q860 420 884.0 444.0Q908 468 940.0 482.0Q972 496 1008 496Q1029 496 1050.0 491.5Q1071 487 1090 476H1091Q1105 493 1130 493Q1153 493 1168.5 477.5Q1184 462 1184 439V336V251H1255Q1267 287 1267 327Q1267 378 1247.5 423.5Q1228 469 1194.0 503.0Q1160 537 1114.5 556.5Q1069 576 1018 576ZM1008 388Q980 388 960.0 368.0Q940 348 940 320Q940 292 959.5 271.5Q979 251 1008 251Q1019 251 1031.0 255.5Q1043 260 1053.0 268.5Q1063 277 1069.5 287.5Q1076 298 1076 310V330Q1076 342 1069.5 353.0Q1063 364 1053.0 371.5Q1043 379 1031.0 383.5Q1019 388 1008 388ZM2010 577Q2010 558 2000 540L1707 33Q1697 16 1680.5 6.5Q1664 -3 1645 -3Q1615 -3 1594.0 18.5Q1573 40 1573 70Q1573 90 1582 105L1876 612Q1886 629 1903.0 638.5Q1920 648 1939 648Q1968 648 1989.0 627.0Q2010 606 2010 577ZM1548 538Q1548 560 1556.5 580.0Q1565 600 1579.5 614.5Q1594 629 1613.5 637.5Q1633 646 1656 646Q1678 646 1697.5 637.5Q1717 629 1732.0 614.0Q1747 599 1755.5 579.5Q1764 560 1764 538Q1764 516 1755.5 496.5Q1747 477 1732.0 462.0Q1717 447 1697.5 438.5Q1678 430 1656 430Q1633 430 1613.5 438.5Q1594 447 1579.5 461.5Q1565 476 1556.5 495.5Q1548 515 1548 538ZM1656 574Q1641 574 1630.5 563.5Q1620 553 1620 538Q1620 523 1630.5 512.5Q1641 502 1656 502Q1671 502 1681.5 512.5Q1692 523 1692 538Q1692 553 1681.5 563.5Q1671 574 1656 574ZM1946 215Q1924 215 1904.5 206.5Q1885 198 1870.0 183.0Q1855 168 1846.5 148.5Q1838 129 1838 107Q1838 85 1846.5 65.5Q1855 46 1870.0 31.0Q1885 16 1904.5 7.5Q1924 -1 1946 -1Q1968 -1 1987.5 7.5Q2007 16 2022.0 31.0Q2037 46 2045.5 65.5Q2054 85 2054 107Q2054 129 2045.5 149.0Q2037 169 2022.5 183.5Q2008 198 1988.0 206.5Q1968 215 1946 215ZM1910 107Q1910 122 1920.5 132.5Q1931 143 1946 143Q1961 143 1971.5 132.5Q1982 122 1982 107Q1982 92 1971.5 81.5Q1961 71 1946 71Q1931 71 1920.5 81.5Q1910 92 1910 107Z" style="fill:#ffffff;stroke:none" transform="scale(1,-1) translate(0,-256)" /></svg>