<?xml version="1.0" encoding="utf-8" ?>
<svg baseProfile="full" height="256" version="1.1" width="256" xmlns="http://www.w3.org/2000/svg" xmlns:ev="http://www.w3.org/2001/xml-events" xmlns:xlink="http://www.w3.org/1999/xlink"><defs /><path d="M615 941Q615 956 625.5 966.5Q636 977 651 977Q666 977 676.5 966.5Q687 956 687 941V898Q687 883 676.5 872.5Q666 862 651 862Q636 862 625.5 872.5Q615 883 615 898ZM615 755Q615 740 604.5 729.5Q594 719 579 719Q565 719 554.0 730.0Q543 741 543 755Q543 769 554.0 780.0Q565 791 579 791Q594 791 604.5 780.5Q615 770 615 755Z" style="fill:#1c1c1c;stroke:none" transform="scale(1,-1) translate(0,-256)" /></svg>