<?xml version="1.0" encoding="utf-8" ?>
<svg baseProfile="full" height="256" version="1.1" width="256" xmlns="http://www.w3.org/2000/svg" xmlns:ev="http://www.w3.org/2001/xml-events" xmlns:xlink="http://www.w3.org/1999/xlink"><defs /><path d="M772 1581Q814 1581 850.5 1562.0Q887 1543 914.5 1512.5Q942 1482 957.5 1443.0Q973 1404 973 1364Q973 1320 956.0 1281.5Q939 1243 909.5 1213.5Q880 1184 841.0 1167.0Q802 1150 759 1150H687Q658 1150 636.5 1171.5Q615 1193 615 1222Q615 1252 636.5 1273.0Q658 1294 688 1294Q718 1294 744.5 1304.5Q771 1315 791.0 1334.0Q811 1353 822.5 1379.0Q834 1405 834 1436Q834 1468 822.5 1491.5Q811 1515 797.0 1531.5Q783 1548 771.5 1557.0Q760 1566 760 1570Q760 1581 772 1581Z" style="fill:#f9c23c;stroke:none" transform="scale(1,-1) translate(0,-256)" /></svg>