<?xml version="1.0" encoding="utf-8" ?>
<svg baseProfile="full" height="256" version="1.1" width="256" xmlns="http://www.w3.org/2000/svg" xmlns:ev="http://www.w3.org/2001/xml-events" xmlns:xlink="http://www.w3.org/1999/xlink"><defs /><path d="M1837 1294 1382 1066Q1327 1039 1294.5 987.0Q1262 935 1262 873V287Q1262 242 1245.0 202.5Q1228 163 1198.0 133.5Q1168 104 1128.5 87.0Q1089 70 1044 70Q999 70 960.0 87.0Q921 104 892.5 133.5Q864 163 847.5 202.5Q831 242 831 287V428Q827 432 817.5 442.5Q808 453 797.5 463.5Q787 474 777.0 482.0Q767 490 762 490Q752 490 746.0 480.0Q740 470 733.0 457.5Q726 445 715.5 435.0Q705 425 686 425Q660 425 646 447L491 689Q482 704 477.0 719.0Q472 734 472 751Q472 772 479.5 791.5Q487 811 502 826H587Q629 826 658.0 797.0Q687 768 687 726V647H832Q832 701 832.5 755.0Q833 809 833 863Q833 906 832.5 948.5Q832 991 831 1034Q831 1053 818.5 1065.5Q806 1078 787 1078H664Q653 1078 652.0 1066.5Q651 1055 651.0 1041.5Q651 1028 647.0 1017.0Q643 1006 625 1006H518Q494 1006 472.5 1015.5Q451 1025 435.0 1041.0Q419 1057 409.5 1078.5Q400 1100 400 1124V1222Q400 1252 411.0 1278.0Q422 1304 441.5 1323.5Q461 1343 487.0 1354.5Q513 1366 543 1366H607Q628 1366 642.0 1377.0Q656 1388 671.0 1401.5Q686 1415 706.0 1426.0Q726 1437 759 1437Q795 1437 827.0 1418.0Q859 1399 876 1366H880Q908 1416 947.5 1456.0Q987 1496 1035.0 1523.5Q1083 1551 1137.0 1566.0Q1191 1581 1248 1581Q1293 1581 1334.5 1571.5Q1376 1562 1417 1545L1771 1394Q1801 1381 1819.0 1353.5Q1837 1326 1837 1294Z" style="fill:#6d4534;stroke:none" transform="scale(1,-1) translate(0,-256)" /></svg>