<?xml version="1.0" encoding="utf-8" ?>
<svg baseProfile="full" height="256" version="1.1" width="256" xmlns="http://www.w3.org/2000/svg" xmlns:ev="http://www.w3.org/2001/xml-events" xmlns:xlink="http://www.w3.org/1999/xlink"><defs /><path d="M2374 431 2412 408V120Q2382 120 2356.0 131.5Q2330 143 2310.5 162.5Q2291 182 2279.5 208.0Q2268 234 2268 264Q2268 302 2287.5 335.0Q2307 368 2340 388ZM901 290V359L1118 431L1336 359V290Q1336 245 1319.0 205.5Q1302 166 1272.0 136.0Q1242 106 1202.5 89.0Q1163 72 1118 72Q1073 72 1033.5 89.0Q994 106 964.5 136.0Q935 166 918.0 205.5Q901 245 901 290Z" style="fill:#1c1c1c;stroke:none" transform="scale(1,-1) translate(0,-256)" /></svg>