<?xml version="1.0" encoding="utf-8" ?>
<svg baseProfile="full" height="256" version="1.1" width="256" xmlns="http://www.w3.org/2000/svg" xmlns:ev="http://www.w3.org/2001/xml-events" xmlns:xlink="http://www.w3.org/1999/xlink"><defs /><path d="M1766 -129Q1761 -146 1744 -146H1650Q1641 -146 1634.0 -139.5Q1627 -133 1627 -123Q1627 -121 1633.0 -97.5Q1639 -74 1649.0 -37.5Q1659 -1 1672.0 45.5Q1685 92 1698.5 141.0Q1712 190 1725.5 238.5Q1739 287 1750.5 326.5Q1762 366 1770.0 394.0Q1778 422 1780 431H1921ZM1192 -121Q1192 -130 1185.5 -137.0Q1179 -144 1170 -144H1071Q1062 -144 1055.5 -137.0Q1049 -130 1049 -121V142H1192Z" style="fill:#7d4533;stroke:none" transform="scale(1,-1) translate(0,-256)" /></svg>