<?xml version="1.0" encoding="utf-8" ?>
<svg baseProfile="full" height="256" version="1.1" width="256" xmlns="http://www.w3.org/2000/svg" xmlns:ev="http://www.w3.org/2001/xml-events" xmlns:xlink="http://www.w3.org/1999/xlink"><defs /><path d="M2412 840V216V408Q2374 408 2340 388V630Q2325 610 2306.5 594.0Q2288 578 2268 564V-122Q2268 -131 2261.5 -137.5Q2255 -144 2246 -144H2147Q2138 -144 2131.5 -137.5Q2125 -131 2125 -122V143H2105Q2047 143 1998.0 164.5Q1949 186 1913.0 223.5Q1877 261 1856.5 311.5Q1836 362 1836 419Q1805 390 1765.5 374.5Q1726 359 1684 359H1049Q1002 359 963.0 376.0Q924 393 896.0 423.0Q868 453 852.0 493.0Q836 533 836 579V613L759 575L642 647H579Q556 647 536.5 655.5Q517 664 503.0 679.0Q489 694 480.5 713.5Q472 733 472 755Q472 783 483.0 801.0Q494 819 507.5 836.0Q521 853 532.0 873.5Q543 894 543 926V1078L721 1149L836 1104V1294H1794Q1910 1294 2015 1249L2194 1172Q2243 1151 2283.5 1116.5Q2324 1082 2352.5 1038.5Q2381 995 2396.5 944.5Q2412 894 2412 840ZM997 -144H1096Q1105 -144 1111.5 -137.0Q1118 -130 1118 -121V142H975V-121Q975 -130 981.5 -137.0Q988 -144 997 -144Z" style="fill:#a56953;stroke:none" transform="scale(1,-1) translate(0,-256)" /></svg>