<?xml version="1.0" encoding="utf-8" ?>
<svg baseProfile="full" height="256" version="1.1" width="256" xmlns="http://www.w3.org/2000/svg" xmlns:ev="http://www.w3.org/2001/xml-events" xmlns:xlink="http://www.w3.org/1999/xlink"><defs /><path d="M2192 1366Q2237 1366 2277.0 1349.5Q2317 1333 2347.0 1303.5Q2377 1274 2394.5 1234.5Q2412 1195 2412 1150Q2412 1105 2394.5 1065.5Q2377 1026 2347.0 997.0Q2317 968 2277.0 951.5Q2237 935 2192 935H620Q575 935 535.0 951.5Q495 968 465.0 997.5Q435 1027 417.5 1066.0Q400 1105 400 1150Q400 1195 417.5 1234.5Q435 1274 465.0 1303.0Q495 1332 535.0 1349.0Q575 1366 620 1366ZM2192 503Q2237 503 2277.0 486.5Q2317 470 2347.0 441.0Q2377 412 2394.5 372.5Q2412 333 2412 288Q2412 243 2394.5 203.5Q2377 164 2347.0 135.0Q2317 106 2277.0 89.0Q2237 72 2192 72H620Q575 72 535.0 89.0Q495 106 465.0 135.0Q435 164 417.5 203.5Q400 243 400 288Q400 333 417.5 372.5Q435 412 465.0 441.0Q495 470 535.0 486.5Q575 503 620 503Z" style="fill:#635994;stroke:none" transform="scale(1,-1) translate(0,-256)" /></svg>