<?xml version="1.0" encoding="utf-8" ?>
<svg baseProfile="full" height="256" version="1.1" width="256" xmlns="http://www.w3.org/2000/svg" xmlns:ev="http://www.w3.org/2001/xml-events" xmlns:xlink="http://www.w3.org/1999/xlink"><defs /><path d="M2197 719Q2197 554 2165.5 407.0Q2134 260 2064.0 138.0Q1994 16 1881.0 -78.0Q1768 -172 1606 -231Q1595 -235 1566.5 -244.5Q1538 -254 1506.5 -263.5Q1475 -273 1446.5 -280.0Q1418 -287 1406 -287Q1267 -287 1138.5 -251.0Q1010 -215 898.0 -149.5Q786 -84 694.5 7.5Q603 99 537.5 211.0Q472 323 436.0 451.5Q400 580 400 719Q400 858 436.0 986.5Q472 1115 537.5 1227.0Q603 1339 694.5 1430.5Q786 1522 898.0 1587.5Q1010 1653 1138.5 1689.0Q1267 1725 1406 1725Q1586 1656 1732.0 1567.0Q1878 1478 1981.5 1357.5Q2085 1237 2141.0 1080.0Q2197 923 2197 719Z" style="fill:#fcd53f;stroke:none" transform="scale(1,-1) translate(0,-256)" /></svg>