<?xml version="1.0" encoding="utf-8" ?>
<svg baseProfile="full" height="256" version="1.1" width="256" xmlns="http://www.w3.org/2000/svg" xmlns:ev="http://www.w3.org/2001/xml-events" xmlns:xlink="http://www.w3.org/1999/xlink"><defs /><path d="M1478 1474Q1478 1451 1469.5 1431.5Q1461 1412 1446.5 1397.5Q1432 1383 1412.0 1374.5Q1392 1366 1370 1366Q1347 1366 1327.5 1374.5Q1308 1383 1293.5 1397.5Q1279 1412 1270.5 1431.5Q1262 1451 1262 1474Q1262 1496 1270.5 1516.0Q1279 1536 1294.0 1550.0Q1309 1564 1328.5 1572.5Q1348 1581 1370 1581Q1392 1581 1411.5 1572.5Q1431 1564 1446.0 1550.0Q1461 1536 1469.5 1516.0Q1478 1496 1478 1474ZM2053 1042Q2053 1005 2039.0 972.5Q2025 940 2000.5 915.5Q1976 891 1943.0 877.0Q1910 863 1873 863Q1836 863 1803.0 877.0Q1770 891 1745.5 915.5Q1721 940 1707.0 972.5Q1693 1005 1693 1042Q1693 1079 1707.0 1112.0Q1721 1145 1745.5 1169.5Q1770 1194 1803.0 1208.0Q1836 1222 1873 1222Q1910 1222 1943.0 1208.0Q1976 1194 2000.5 1169.5Q2025 1145 2039.0 1112.0Q2053 1079 2053 1042ZM1442 144Q1479 144 1512.0 158.0Q1545 172 1569.5 196.5Q1594 221 1608.0 254.0Q1622 287 1622 324Q1622 361 1608.0 393.5Q1594 426 1569.5 450.5Q1545 475 1512.0 489.0Q1479 503 1442 503Q1405 503 1372.0 489.0Q1339 475 1314.5 450.5Q1290 426 1276.0 393.5Q1262 361 1262 324Q1262 287 1276.0 254.0Q1290 221 1314.5 196.5Q1339 172 1372.0 158.0Q1405 144 1442 144ZM2337 337Q2289 222 2215.0 121.0Q2141 20 2044 -59Q2013 -24 1997.0 19.0Q1981 62 1981 108Q1981 160 2001.0 206.0Q2021 252 2055.0 286.0Q2089 320 2135.0 340.0Q2181 360 2233 360Q2260 360 2286.0 354.0Q2312 348 2337 337ZM903 735V721Q912 720 921.0 719.5Q930 719 939 719Q991 719 1037.0 739.0Q1083 759 1117.0 793.0Q1151 827 1170.5 873.0Q1190 919 1190 971Q1190 1014 1176.0 1053.0Q1162 1092 1137.0 1124.5Q1112 1157 1077.5 1180.0Q1043 1203 1001 1214L993 1195Q1021 1153 1034.0 1104.5Q1047 1056 1047 1006Q1047 967 1038.5 926.5Q1030 886 1012.0 849.5Q994 813 967.0 783.0Q940 753 903 735Z" style="fill:#6b438b;stroke:none" transform="scale(1,-1) translate(0,-256)" /></svg>