<?xml version="1.0" encoding="utf-8" ?>
<svg baseProfile="full" height="256" version="1.1" width="256" xmlns="http://www.w3.org/2000/svg" xmlns:ev="http://www.w3.org/2001/xml-events" xmlns:xlink="http://www.w3.org/1999/xlink"><defs /><path d="M1383 -287Q1269 -195 1179.5 -81.0Q1090 33 1028.5 162.0Q967 291 935.0 431.5Q903 572 903 719Q903 866 935.0 1006.5Q967 1147 1028.5 1276.0Q1090 1405 1179.5 1519.0Q1269 1633 1383 1725H1406Q1545 1725 1673.5 1689.0Q1802 1653 1914.0 1587.5Q2026 1522 2117.5 1430.5Q2209 1339 2274.5 1227.0Q2340 1115 2376.0 986.5Q2412 858 2412 719Q2412 580 2376.0 451.5Q2340 323 2274.5 211.0Q2209 99 2117.5 7.5Q2026 -84 1914.0 -149.5Q1802 -215 1673.5 -251.0Q1545 -287 1406 -287H1383Z" style="fill:#8d65c5;stroke:none" transform="scale(1,-1) translate(0,-256)" /></svg>