<?xml version="1.0" encoding="utf-8" ?>
<svg baseProfile="full" height="256" version="1.1" width="256" xmlns="http://www.w3.org/2000/svg" xmlns:ev="http://www.w3.org/2001/xml-events" xmlns:xlink="http://www.w3.org/1999/xlink"><defs /><path d="M1801 845Q1883 845 1955.0 814.0Q2027 783 2081.0 729.0Q2135 675 2166.0 603.0Q2197 531 2197 449Q2197 367 2165.5 295.0Q2134 223 2080.0 169.5Q2026 116 1954.0 85.0Q1882 54 1801 54Q1720 54 1645.0 86.0Q1570 118 1514 178Q1490 125 1452.5 82.0Q1415 39 1368.0 9.0Q1321 -21 1266.5 -37.5Q1212 -54 1154 -54Q1125 -54 1104.0 -32.5Q1083 -11 1083 18Q1083 47 1104.0 68.5Q1125 90 1154 90Q1206 90 1252.0 110.0Q1298 130 1332.0 164.0Q1366 198 1386.0 244.0Q1406 290 1406 342V1132Q1406 1177 1389.0 1216.0Q1372 1255 1342.5 1284.5Q1313 1314 1274.0 1331.0Q1235 1348 1190 1348Q1146 1348 1106.5 1331.0Q1067 1314 1038.0 1284.5Q1009 1255 992.0 1215.5Q975 1176 975 1132V1060V342Q975 313 953.5 291.5Q932 270 903 270Q873 270 852.0 291.0Q831 312 831 342V1060V1204Q831 1234 819.5 1260.0Q808 1286 788.5 1305.5Q769 1325 743.0 1336.5Q717 1348 687 1348Q658 1348 636.5 1369.5Q615 1391 615 1420Q615 1449 636.5 1470.5Q658 1492 687 1492Q757 1492 818.5 1459.0Q880 1426 922 1370Q973 1428 1043.0 1460.0Q1113 1492 1190 1492Q1265 1492 1330.5 1463.5Q1396 1435 1444.5 1386.5Q1493 1338 1521.5 1272.5Q1550 1207 1550 1132V754Q1603 799 1667.5 822.0Q1732 845 1801 845ZM1801 198Q1853 198 1898.5 218.0Q1944 238 1978.5 272.0Q2013 306 2033.0 351.5Q2053 397 2053 449Q2053 501 2033.0 547.0Q2013 593 1979.0 627.0Q1945 661 1899.0 681.0Q1853 701 1801 701Q1749 701 1703.5 681.0Q1658 661 1624.0 626.5Q1590 592 1570.0 546.5Q1550 501 1550 449Q1550 397 1570.0 351.5Q1590 306 1624.0 272.0Q1658 238 1703.5 218.0Q1749 198 1801 198Z" style="fill:#ffffff;stroke:none" transform="scale(1,-1) translate(0,-256)" /></svg>