<?xml version="1.0" encoding="utf-8" ?>
<svg baseProfile="full" height="256" version="1.1" width="256" xmlns="http://www.w3.org/2000/svg" xmlns:ev="http://www.w3.org/2001/xml-events" xmlns:xlink="http://www.w3.org/1999/xlink"><defs /><path d="M2082 -93V-198Q2082 -237 2059.0 -260.0Q2036 -283 1997 -283H1826Q1796 -283 1777.5 -274.0Q1759 -265 1748.5 -248.5Q1738 -232 1734.5 -210.5Q1731 -189 1731 -163Q1731 -146 1732.0 -128.5Q1733 -111 1733 -94Q1733 -86 1735.5 -80.5Q1738 -75 1747 -75Q1756 -75 1764.0 -69.0Q1772 -63 1778.0 -54.5Q1784 -46 1788.0 -36.0Q1792 -26 1792 -18H2039Q2045 -26 2052.0 -35.0Q2059 -44 2066.0 -53.5Q2073 -63 2077.5 -73.0Q2082 -83 2082 -93ZM797 -21Q792 -38 784.0 -54.5Q776 -71 776 -90V-190Q776 -207 781.5 -223.0Q787 -239 796.5 -252.5Q806 -266 820.5 -274.0Q835 -282 853 -282H1043Q1079 -282 1098.5 -257.5Q1118 -233 1118 -199V-81Q1118 -58 1109.0 -46.0Q1100 -34 1081 -21Z" style="fill:#8d65c5;stroke:none" transform="scale(1,-1) translate(0,-256)" /></svg>