<?xml version="1.0" encoding="utf-8" ?>
<svg baseProfile="full" height="256" version="1.1" width="256" xmlns="http://www.w3.org/2000/svg" xmlns:ev="http://www.w3.org/2001/xml-events" xmlns:xlink="http://www.w3.org/1999/xlink"><defs /><path d="M949 1458H1210Q1228 1441 1247.0 1423.5Q1266 1406 1283 1387Q1293 1376 1295.5 1369.0Q1298 1362 1298 1348Q1298 1319 1297.0 1290.5Q1296 1262 1296 1233Q1296 1222 1296.0 1204.0Q1296 1186 1297.5 1166.0Q1299 1146 1301.0 1128.5Q1303 1111 1308 1102V1101Q1310 1098 1312.0 1094.5Q1314 1091 1314 1087Q1314 1083 1310.5 1082.0Q1307 1081 1304 1081Q1293 1081 1284.0 1087.0Q1275 1093 1267.0 1100.5Q1259 1108 1252.5 1114.5Q1246 1121 1241 1121Q1234 1121 1229.5 1115.0Q1225 1109 1218.0 1101.5Q1211 1094 1200.0 1088.0Q1189 1082 1170 1082Q1150 1082 1138.5 1088.0Q1127 1094 1119.5 1101.5Q1112 1109 1107.0 1115.0Q1102 1121 1095 1121Q1091 1121 1084.5 1115.5Q1078 1110 1069.0 1103.0Q1060 1096 1048.5 1090.5Q1037 1085 1023 1085Q1008 1085 996.5 1091.0Q985 1097 976.0 1104.0Q967 1111 961.0 1117.0Q955 1123 952 1123Q947 1123 941.0 1116.5Q935 1110 926.5 1102.5Q918 1095 906.5 1088.5Q895 1082 879 1082Q863 1082 851.0 1089.0Q839 1096 830.5 1104.0Q822 1112 816.5 1119.0Q811 1126 808 1126Q805 1126 799.5 1119.0Q794 1112 784.5 1104.0Q775 1096 762.0 1089.0Q749 1082 733 1082Q715 1082 703.5 1088.5Q692 1095 684.5 1103.0Q677 1111 672.5 1117.5Q668 1124 662 1124Q660 1124 652.0 1116.5Q644 1109 632.0 1100.0Q620 1091 606.0 1083.5Q592 1076 578 1076Q570 1076 565.5 1081.5Q561 1087 558 1094Q548 1115 540.0 1132.0Q532 1149 526.5 1165.5Q521 1182 518.0 1200.5Q515 1219 515 1243Q515 1268 521.0 1291.5Q527 1315 540.0 1333.0Q553 1351 573.5 1361.5Q594 1372 622 1372H768Q797 1372 820.0 1378.0Q843 1384 868 1400Q876 1405 886.5 1415.0Q897 1425 907.5 1434.5Q918 1444 929.0 1451.0Q940 1458 949 1458Z" style="fill:#f9c23c;stroke:none" transform="scale(1,-1) translate(0,-256)" /></svg>