<?xml version="1.0" encoding="utf-8" ?>
<svg baseProfile="full" height="256" version="1.1" width="256" xmlns="http://www.w3.org/2000/svg" xmlns:ev="http://www.w3.org/2001/xml-events" xmlns:xlink="http://www.w3.org/1999/xlink"><defs /><path d="M2117 681Q2154 681 2187.0 667.0Q2220 653 2245.0 629.0Q2270 605 2284.5 572.5Q2299 540 2299 503Q2299 450 2289.0 409.5Q2279 369 2257 321Q2242 288 2233.0 260.5Q2224 233 2224 195Q2224 187 2224.5 179.5Q2225 172 2225 164Q2225 157 2224.5 148.0Q2224 139 2221.0 131.5Q2218 124 2212.5 118.5Q2207 113 2197 113Q2189 113 2182.0 116.0Q2175 119 2168 123Q2123 148 2102.5 183.0Q2082 218 2067 265Q2039 351 2012.5 436.0Q1986 521 1958 607Q1971 624 1989.5 638.0Q2008 652 2029.0 661.5Q2050 671 2073.0 676.0Q2096 681 2117 681ZM802 329Q796 298 791.0 273.5Q786 249 782.5 225.5Q779 202 777.0 176.5Q775 151 775 119Q775 89 767.0 59.5Q759 30 759 0Q759 -5 760.0 -14.5Q761 -24 763.5 -33.0Q766 -42 770.0 -49.0Q774 -56 781 -56Q785 -56 788.0 -52.5Q791 -49 793.5 -45.0Q796 -41 798.5 -37.5Q801 -34 806 -34Q810 -34 815.0 -40.5Q820 -47 828.0 -55.0Q836 -63 848.0 -69.5Q860 -76 878 -76Q896 -76 908.0 -70.0Q920 -64 928.0 -56.5Q936 -49 941.5 -42.5Q947 -36 952 -36Q956 -36 961.5 -42.5Q967 -49 974.5 -56.5Q982 -64 993.5 -70.0Q1005 -76 1022 -76Q1038 -76 1050.5 -70.0Q1063 -64 1072.0 -56.5Q1081 -49 1087.5 -43.0Q1094 -37 1099 -37Q1104 -37 1107.0 -41.5Q1110 -46 1114 -46Q1118 -46 1118.0 -39.5Q1118 -33 1118 -30V75Q1118 113 1133.5 134.0Q1149 155 1190 155H1648Q1693 155 1712.5 138.5Q1732 122 1732 76V-52Q1732 -62 1736.0 -68.5Q1740 -75 1751 -75Q1768 -75 1779.5 -68.5Q1791 -62 1798.5 -54.5Q1806 -47 1811.0 -40.5Q1816 -34 1821 -34Q1825 -34 1830.0 -40.5Q1835 -47 1843.5 -54.5Q1852 -62 1864.0 -68.5Q1876 -75 1895 -75Q1912 -75 1924.0 -69.0Q1936 -63 1944.0 -55.5Q1952 -48 1957.0 -42.0Q1962 -36 1966 -36Q1972 -36 1976.5 -42.5Q1981 -49 1988.5 -57.0Q1996 -65 2008.5 -71.5Q2021 -78 2042 -78Q2047 -78 2057.5 -76.5Q2068 -75 2078.0 -71.5Q2088 -68 2095.5 -63.0Q2103 -58 2103 -51Q2103 -41 2099.0 -29.5Q2095 -18 2090.5 -6.0Q2086 6 2082.5 19.0Q2079 32 2079 45Q2079 76 2079.5 106.0Q2080 136 2080 167Q2080 198 2073.0 221.5Q2066 245 2055.0 264.5Q2044 284 2029.0 303.5Q2014 323 1998 347H903Q877 347 852.5 340.5Q828 334 802 329Z" style="fill:#00a6ed;stroke:none" transform="scale(1,-1) translate(0,-256)" /></svg>