<?xml version="1.0" encoding="utf-8" ?>
<svg baseProfile="full" height="256" version="1.1" width="256" xmlns="http://www.w3.org/2000/svg" xmlns:ev="http://www.w3.org/2001/xml-events" xmlns:xlink="http://www.w3.org/1999/xlink"><defs /><path d="M845 639H1985Q2007 611 2025.0 589.0Q2043 567 2056.0 544.5Q2069 522 2075.5 495.5Q2082 469 2082 430Q2082 398 2080.5 365.0Q2079 332 2079 300Q2079 288 2082.5 277.0Q2086 266 2090.0 256.5Q2094 247 2097.5 240.5Q2101 234 2101 231Q2101 225 2093.0 222.0Q2085 219 2074.5 217.0Q2064 215 2053.5 214.5Q2043 214 2039 214Q2023 214 2011.5 220.5Q2000 227 1991.5 234.5Q1983 242 1976.5 248.5Q1970 255 1966 255Q1961 255 1955.0 248.5Q1949 242 1940.5 234.5Q1932 227 1919.5 220.5Q1907 214 1891 214Q1876 214 1864.5 220.5Q1853 227 1844.5 235.5Q1836 244 1830.0 250.5Q1824 257 1821 257Q1817 257 1811.5 250.5Q1806 244 1798.0 235.5Q1790 227 1779.0 220.5Q1768 214 1754 214Q1736 214 1723.0 220.5Q1710 227 1700.5 234.5Q1691 242 1685.0 248.5Q1679 255 1676 255Q1672 255 1668.5 252.0Q1665 249 1663 246V245Q1651 232 1636.5 223.0Q1622 214 1603 214Q1586 214 1574.5 220.5Q1563 227 1555.0 234.5Q1547 242 1541.0 248.5Q1535 255 1530 255Q1525 255 1520.5 248.5Q1516 242 1508.0 234.5Q1500 227 1488.0 220.5Q1476 214 1457 214Q1438 214 1426.5 220.5Q1415 227 1407.5 234.5Q1400 242 1395.5 248.5Q1391 255 1385 255Q1380 255 1375.5 249.0Q1371 243 1363.5 235.5Q1356 228 1343.5 222.0Q1331 216 1310 216Q1293 216 1281.5 222.0Q1270 228 1262.5 235.5Q1255 243 1249.5 249.0Q1244 255 1240 255Q1236 255 1230.5 249.0Q1225 243 1216.5 235.5Q1208 228 1196.0 222.0Q1184 216 1167 216Q1150 216 1139.0 222.0Q1128 228 1120.0 235.5Q1112 243 1106.5 249.0Q1101 255 1096 255Q1092 255 1086.0 249.0Q1080 243 1071.5 235.5Q1063 228 1051.0 222.0Q1039 216 1024 216Q1009 216 997.5 222.0Q986 228 977.5 235.0Q969 242 963.0 248.0Q957 254 953 254Q948 254 941.5 247.5Q935 241 926.0 233.5Q917 226 905.0 220.0Q893 214 878 214Q862 214 851.0 220.5Q840 227 832.0 234.5Q824 242 818.0 248.5Q812 255 806 255Q797 255 793.5 243.5Q790 232 782 228L775 232Q766 243 762.5 249.5Q759 256 759 271Q759 296 767.0 320.0Q775 344 775 369Q775 389 774.0 407.5Q773 426 773 446Q773 465 773.5 484.5Q774 504 782 522Q794 553 809.5 583.0Q825 613 845 639Z" style="fill:#ff6dc6;stroke:none" transform="scale(1,-1) translate(0,-256)" /></svg>