<?xml version="1.0" encoding="utf-8" ?>
<svg baseProfile="full" height="256" version="1.1" width="256" xmlns="http://www.w3.org/2000/svg" xmlns:ev="http://www.w3.org/2001/xml-events" xmlns:xlink="http://www.w3.org/1999/xlink"><defs /><path d="M759 565Q759 597 767.0 627.5Q775 658 775 690Q775 708 774.5 737.5Q774 767 778.5 795.0Q783 823 796.5 843.0Q810 863 838 863H1289Q1289 843 1299.5 825.5Q1310 808 1333 808Q1343 808 1351.0 813.0Q1359 818 1367 818Q1370 818 1385.0 809.0Q1400 800 1422.5 789.5Q1445 779 1472.5 770.5Q1500 762 1526 762H1739Q1796 762 1851.5 749.0Q1907 736 1954 702Q1980 745 2024.0 766.5Q2068 788 2117 788Q2152 788 2185.5 774.5Q2219 761 2245.5 738.0Q2272 715 2288.5 683.5Q2305 652 2305 615Q2305 594 2304.0 573.0Q2303 552 2297 532Q2292 564 2275.5 591.5Q2259 619 2234.0 639.0Q2209 659 2179.0 670.0Q2149 681 2117 681Q2088 681 2060.5 673.0Q2033 665 2007 651Q2029 625 2045.0 595.5Q2061 566 2084 540Q2086 537 2090.5 532.5Q2095 528 2095 524Q2095 516 2090.0 511.5Q2085 507 2078.0 505.0Q2071 503 2063.5 502.0Q2056 501 2050 501Q2026 501 2012.5 507.5Q1999 514 1990.5 522.5Q1982 531 1977.0 537.5Q1972 544 1966 544Q1960 544 1953.5 537.5Q1947 531 1938.0 523.5Q1929 516 1918.0 509.5Q1907 503 1893 503Q1878 503 1866.5 509.5Q1855 516 1846.5 524.0Q1838 532 1832.0 538.5Q1826 545 1822 545Q1816 545 1810.0 538.5Q1804 532 1795.5 524.0Q1787 516 1776.5 509.5Q1766 503 1751 503Q1733 503 1720.5 510.0Q1708 517 1699.0 525.0Q1690 533 1684.5 540.0Q1679 547 1675 547Q1672 547 1666.5 540.0Q1661 533 1652.0 525.0Q1643 517 1631.0 510.0Q1619 503 1603 503Q1587 503 1575.5 509.5Q1564 516 1556.0 523.5Q1548 531 1542.0 537.5Q1536 544 1531 544Q1526 544 1520.5 537.5Q1515 531 1506.5 523.5Q1498 516 1486.5 509.5Q1475 503 1459 503Q1444 503 1432.0 509.5Q1420 516 1411.0 523.5Q1402 531 1396.0 537.5Q1390 544 1387 544Q1383 544 1376.5 537.5Q1370 531 1361.0 523.5Q1352 516 1339.5 509.5Q1327 503 1311 503Q1298 503 1287.0 509.0Q1276 515 1267.5 522.5Q1259 530 1252.0 536.5Q1245 543 1241 543Q1236 543 1230.0 536.5Q1224 530 1215.5 522.5Q1207 515 1195.0 509.0Q1183 503 1168 503Q1152 503 1140.5 509.5Q1129 516 1121.0 523.5Q1113 531 1107.0 537.5Q1101 544 1096 544Q1091 544 1085.5 537.5Q1080 531 1071.5 523.5Q1063 516 1051.5 509.5Q1040 503 1024 503Q1008 503 996.5 509.5Q985 516 976.5 523.5Q968 531 962.0 537.5Q956 544 952 544Q947 544 940.5 537.5Q934 531 925.0 523.5Q916 516 904.5 509.5Q893 503 879 503Q862 503 850.0 509.0Q838 515 830.0 522.5Q822 530 816.0 536.5Q810 543 805 543Q800 543 796.5 539.0Q793 535 790.0 530.5Q787 526 784.0 522.0Q781 518 776 518Q771 518 768.0 524.0Q765 530 763.0 538.0Q761 546 760.0 554.0Q759 562 759 565Z" style="fill:#f8312f;stroke:none" transform="scale(1,-1) translate(0,-256)" /></svg>