<?xml version="1.0" encoding="utf-8" ?>
<svg baseProfile="full" height="256" version="1.1" width="256" xmlns="http://www.w3.org/2000/svg" xmlns:ev="http://www.w3.org/2001/xml-events" xmlns:xlink="http://www.w3.org/1999/xlink"><defs /><path d="M2053 865Q2082 865 2111.0 857.5Q2140 850 2165.5 836.0Q2191 822 2212.0 801.5Q2233 781 2248 756Q2255 744 2260.0 731.0Q2265 718 2265 704Q2265 683 2253.0 668.5Q2241 654 2221.5 644.5Q2202 635 2178.0 629.5Q2154 624 2130.0 621.5Q2106 619 2084.5 618.5Q2063 618 2049 618Q2023 618 1996.0 621.0Q1969 624 1943.5 632.5Q1918 641 1895.5 654.5Q1873 668 1856 689Q1848 699 1842.5 709.5Q1837 720 1837 733Q1837 743 1841 750Q1855 776 1879.0 797.5Q1903 819 1932.0 834.0Q1961 849 1992.5 857.0Q2024 865 2053 865Z" style="fill:#ff6723;stroke:none" transform="scale(1,-1) translate(0,-256)" /></svg>