<?xml version="1.0" encoding="utf-8" ?>
<svg baseProfile="full" height="256" version="1.1" width="256" xmlns="http://www.w3.org/2000/svg" xmlns:ev="http://www.w3.org/2001/xml-events" xmlns:xlink="http://www.w3.org/1999/xlink"><defs /><path d="M825 1394Q831 1401 838.0 1409.5Q845 1418 850 1426Q875 1476 894.5 1501.0Q914 1526 938.0 1535.5Q962 1545 995.0 1545.0Q1028 1545 1079 1545Q1102 1545 1112.0 1555.0Q1122 1565 1124.5 1579.5Q1127 1594 1125.5 1611.5Q1124 1629 1124 1644Q1124 1671 1132.0 1686.0Q1140 1701 1154.0 1708.5Q1168 1716 1187.0 1717.5Q1206 1719 1228 1719Q1263 1719 1280.0 1698.5Q1297 1678 1297 1644V1472Q1297 1455 1298.5 1435.5Q1300 1416 1308 1401Q1311 1395 1315.5 1389.5Q1320 1384 1320 1376Q1320 1371 1315.5 1370.0Q1311 1369 1308 1369Q1297 1369 1287.0 1375.5Q1277 1382 1269.0 1389.5Q1261 1397 1254.0 1403.5Q1247 1410 1243 1410Q1239 1410 1232.5 1404.0Q1226 1398 1217.0 1391.5Q1208 1385 1196.0 1379.0Q1184 1373 1169 1373Q1153 1373 1141.5 1379.0Q1130 1385 1122.0 1392.5Q1114 1400 1108.0 1406.5Q1102 1413 1097 1413Q1092 1413 1085.5 1406.5Q1079 1400 1070.0 1392.5Q1061 1385 1049.0 1379.0Q1037 1373 1021 1373Q1010 1373 999.0 1379.0Q988 1385 978.5 1392.5Q969 1400 962.0 1406.5Q955 1413 951 1413Q947 1413 941.0 1406.5Q935 1400 925.5 1392.5Q916 1385 904.0 1378.5Q892 1372 876 1372Q871 1372 862.5 1373.5Q854 1375 846.0 1377.5Q838 1380 831.5 1384.0Q825 1388 825 1394Z" style="fill:#96c34a;stroke:none" transform="scale(1,-1) translate(0,-256)" /></svg>