<?xml version="1.0" encoding="utf-8" ?>
<svg baseProfile="full" height="256" version="1.1" width="256" xmlns="http://www.w3.org/2000/svg" xmlns:ev="http://www.w3.org/2001/xml-events" xmlns:xlink="http://www.w3.org/1999/xlink"><defs /><path d="M2406 695Q2402 691 2399 689V688L2395 686H2394Q2338 657 2291.0 625.0Q2244 593 2202 544Q2148 481 2122.0 404.5Q2096 328 2096 245Q2096 189 2106.0 142.0Q2116 95 2128 42V33V22Q2127 20 2126.0 18.0Q2125 16 2123 14V13Q2119 9 2118 7Q2115 6 2112.5 4.0Q2110 2 2107 0V-1Q2102 -3 2097.0 -3.0Q2092 -3 2087 -3H2081Q2062 7 2037.0 14.0Q2012 21 1985.0 25.5Q1958 30 1932.0 32.5Q1906 35 1885 35Q1807 35 1740.5 12.0Q1674 -11 1618.5 -51.5Q1563 -92 1518.0 -147.5Q1473 -203 1437 -269L1432 -277H1431L1428 -280V-281Q1417 -288 1406 -288Q1394 -288 1386.5 -282.0Q1379 -276 1374 -266Q1348 -211 1314.5 -164.5Q1281 -118 1234 -78Q1171 -23 1094.5 3.0Q1018 29 934 29Q882 29 832.5 20.0Q783 11 732 -3Q729 -4 723 -4Q718 -4 708 -2Q706 0 700.0 4.0Q694 8 695 10Q691 14 690 17H689Q687 22 686.5 24.0Q686 26 686 31Q686 34 687.0 37.0Q688 40 687 43L689 47V48Q706 88 714.0 139.0Q722 190 722 233Q722 317 700.0 384.0Q678 451 638.5 505.5Q599 560 543.0 604.5Q487 649 418 690Q412 693 408.5 698.0Q405 703 402 709V710L400 713V719V728Q402 733 404.0 737.0Q406 741 410 745V746Q412 747 414.0 748.0Q416 749 418 751H419Q449 767 474.5 781.0Q500 795 522.5 811.0Q545 827 566.5 847.0Q588 867 612 894Q666 957 692.0 1033.0Q718 1109 718 1192Q718 1231 713.0 1269.0Q708 1307 699 1345Q697 1358 693.0 1370.0Q689 1382 686 1395Q685 1397 685.5 1400.0Q686 1403 686 1405V1415L688 1420H689L690 1423Q692 1424 694 1428V1429Q695 1430 695.5 1431.0Q696 1432 697 1433H698L702 1436L706 1437L707 1438Q714 1441 720 1441Q723 1441 725.5 1440.0Q728 1439 731 1440L735 1438H736Q776 1420 827.0 1411.5Q878 1403 921 1403Q1001 1403 1068.5 1425.0Q1136 1447 1192.0 1487.5Q1248 1528 1293.5 1583.5Q1339 1639 1376 1707Q1381 1715 1389 1720H1390Q1395 1722 1395 1723Q1403 1725 1407 1725Q1409 1725 1411.5 1724.5Q1414 1724 1416 1724L1420 1722Q1427 1722 1432.5 1714.5Q1438 1707 1440 1702Q1461 1649 1500.0 1600.0Q1539 1551 1581 1515Q1645 1460 1720.0 1434.0Q1795 1408 1880 1408Q1933 1408 1982.0 1417.0Q2031 1426 2082 1440Q2085 1441 2092 1441Q2095 1441 2098.0 1440.0Q2101 1439 2104 1440L2108 1438H2109Q2117 1432 2120 1429V1428Q2123 1424 2125 1420H2126Q2128 1416 2128 1406V1395L2126 1391V1390Q2108 1348 2099.5 1296.0Q2091 1244 2091 1199Q2091 1117 2113.5 1051.5Q2136 986 2176.5 932.0Q2217 878 2272.5 833.5Q2328 789 2395 750Q2401 746 2404.5 741.5Q2408 737 2411 731V730L2413 727Q2413 726 2413.5 723.5Q2414 721 2414 719Q2414 713 2411 707Q2411 701 2407 698ZM2254 755Q2145 837 2082.0 948.0Q2019 1059 2019 1198Q2019 1220 2020.0 1241.5Q2021 1263 2025 1285L1819 1080Q1811 1058 1807.0 1035.0Q1803 1012 1803 989Q1803 909 1846.0 851.0Q1889 793 1956 755ZM981 683Q1082 587 1084 446L1321 683ZM1443 806 1683 1046Q1644 1046 1612.0 1051.5Q1580 1057 1552.0 1068.0Q1524 1079 1497.5 1097.0Q1471 1115 1443 1141ZM1371 1145Q1274 1041 1134 1043L1371 806ZM1080 995Q1082 929 1059.0 864.5Q1036 800 985 755H1320ZM1131 391Q1199 391 1261.5 369.5Q1324 348 1371 296V632ZM1443 293Q1540 397 1681 395L1443 632ZM1735 443Q1733 515 1756.5 573.5Q1780 632 1830 683H1494ZM1834 755Q1783 803 1756.5 863.0Q1730 923 1732 992L1494 755ZM1879 1336Q1745 1336 1634.0 1392.0Q1523 1448 1443 1556V1265Q1474 1197 1535.5 1157.5Q1597 1118 1672 1118Q1720 1118 1770 1132L1981 1344Q1955 1340 1930.0 1338.0Q1905 1336 1879 1336ZM1371 1566Q1289 1455 1177.5 1392.5Q1066 1330 926 1330Q883 1330 841 1336L1047 1131Q1092 1114 1139 1114Q1218 1114 1275.5 1157.0Q1333 1200 1371 1267ZM790 1194Q790 1060 734.5 947.5Q679 835 570 755H861Q929 786 968.5 847.5Q1008 909 1008 984Q1008 1031 994 1081L783 1293Q787 1268 788.5 1243.5Q790 1219 790 1194ZM561 683Q673 598 734.5 487.0Q796 376 796 234Q796 193 790 153L996 358Q1012 404 1012 450Q1012 530 969.0 587.5Q926 645 859 683ZM932 102Q1066 102 1178.5 46.0Q1291 -10 1371 -118V173Q1340 242 1279.0 281.0Q1218 320 1143 320Q1095 320 1045 306L834 94Q858 98 882.5 100.0Q907 102 932 102ZM1443 -128Q1527 -17 1637.5 45.0Q1748 107 1889 107Q1910 107 1931.5 106.0Q1953 105 1974 102L1768 307Q1723 324 1676 324Q1596 324 1538.5 281.0Q1481 238 1443 171ZM2025 244Q2025 378 2080.5 490.5Q2136 603 2245 683H1954Q1886 652 1846.0 591.0Q1806 530 1806 455Q1806 430 1810.0 405.5Q1814 381 1821 357L2032 145Q2028 170 2026.5 194.5Q2025 219 2025 244Z" style="fill:#998ea4;stroke:none" transform="scale(1,-1) translate(0,-256)" /></svg>