<?xml version="1.0" encoding="utf-8" ?>
<svg baseProfile="full" height="256" version="1.1" width="256" xmlns="http://www.w3.org/2000/svg" xmlns:ev="http://www.w3.org/2001/xml-events" xmlns:xlink="http://www.w3.org/1999/xlink"><defs /><path d="M1658 1635Q1752 1635 1839.0 1602.0Q1926 1569 1992.5 1509.5Q2059 1450 2099.0 1368.0Q2139 1286 2139 1188Q2139 1110 2109.5 1042.0Q2080 974 2023 920Q1984 883 1936.0 858.0Q1888 833 1835.5 818.0Q1783 803 1728.5 797.0Q1674 791 1622 791H615V899H1622Q1691 899 1763.5 913.0Q1836 927 1896.0 960.5Q1956 994 1994.0 1050.0Q2032 1106 2032 1190Q2032 1265 2000.0 1327.0Q1968 1389 1915.5 1434.0Q1863 1479 1796.0 1503.5Q1729 1528 1658 1528Q1636 1528 1620.0 1543.0Q1604 1558 1604 1581Q1604 1604 1619.5 1619.5Q1635 1635 1658 1635ZM615 719H1622V611H615ZM1622 252H615V360H1622Z" style="fill:#3f5fff;stroke:none" transform="scale(1,-1) translate(0,-256)" /></svg>