<?xml version="1.0" encoding="utf-8" ?>
<svg baseProfile="full" height="256" version="1.1" width="256" xmlns="http://www.w3.org/2000/svg" xmlns:ev="http://www.w3.org/2001/xml-events" xmlns:xlink="http://www.w3.org/1999/xlink"><defs /><path d="M2412 1384Q2412 1350 2399.5 1320.5Q2387 1291 2365.0 1269.0Q2343 1247 2313.5 1234.5Q2284 1222 2250 1222Q2233 1222 2215.5 1226.0Q2198 1230 2182 1237L2179 1235L883 229Q871 220 857 220Q840 220 829.0 230.5Q818 241 818 258Q818 266 821.0 274.5Q824 283 831 288L2089 1330Q2092 1333 2096 1335Q2089 1357 2089 1384Q2089 1417 2101.5 1446.5Q2114 1476 2136.0 1498.0Q2158 1520 2187.5 1533.0Q2217 1546 2250 1546Q2283 1546 2312.5 1533.0Q2342 1520 2364.0 1498.0Q2386 1476 2399.0 1446.5Q2412 1417 2412 1384ZM2304 1384Q2304 1407 2288.5 1422.5Q2273 1438 2250 1438Q2227 1438 2212.0 1422.0Q2197 1406 2197 1384Q2197 1362 2212.0 1346.0Q2227 1330 2250 1330Q2273 1330 2288.5 1345.5Q2304 1361 2304 1384Z" style="fill:#9b9b9b;stroke:none" transform="scale(1,-1) translate(0,-256)" /></svg>