<?xml version="1.0" encoding="utf-8" ?>
<svg baseProfile="full" height="256" version="1.1" width="256" xmlns="http://www.w3.org/2000/svg" xmlns:ev="http://www.w3.org/2001/xml-events" xmlns:xlink="http://www.w3.org/1999/xlink"><defs /><path d="M1658 1438Q1695 1438 1727.5 1424.0Q1760 1410 1784.5 1385.5Q1809 1361 1823.0 1328.0Q1837 1295 1837 1258Q1837 1221 1823.0 1188.0Q1809 1155 1784.5 1130.5Q1760 1106 1727.5 1092.0Q1695 1078 1658 1078H579Q542 1078 509.5 1092.0Q477 1106 452.5 1130.5Q428 1155 414.0 1188.0Q400 1221 400 1258Q400 1295 414.0 1328.0Q428 1361 452.5 1385.5Q477 1410 509.5 1424.0Q542 1438 579 1438ZM1658 72Q1695 72 1727.5 58.0Q1760 44 1784.5 19.5Q1809 -5 1823.0 -38.0Q1837 -71 1837 -108Q1837 -145 1823.0 -177.5Q1809 -210 1784.5 -234.5Q1760 -259 1727.5 -273.0Q1695 -287 1658 -287H579Q542 -287 509.5 -273.0Q477 -259 452.5 -234.5Q428 -210 414.0 -177.5Q400 -145 400 -108Q400 -71 414.0 -38.0Q428 -5 452.5 19.5Q477 44 509.5 58.0Q542 72 579 72Z" style="fill:#f3ad61;stroke:none" transform="scale(1,-1) translate(0,-256)" /></svg>