<?xml version="1.0" encoding="utf-8" ?>
<svg baseProfile="full" height="256" version="1.1" width="256" xmlns="http://www.w3.org/2000/svg" xmlns:ev="http://www.w3.org/2001/xml-events" xmlns:xlink="http://www.w3.org/1999/xlink"><defs /><path d="M795 1653Q855 1653 907.0 1630.5Q959 1608 998.0 1569.0Q1037 1530 1059.5 1478.0Q1082 1426 1082 1366Q1082 1307 1059.5 1254.5Q1037 1202 998.0 1163.0Q959 1124 906.5 1101.0Q854 1078 795 1078Q736 1078 683.5 1100.5Q631 1123 592.0 1162.0Q553 1201 530.5 1253.5Q508 1306 508 1365Q508 1425 530.5 1477.5Q553 1530 592.0 1569.0Q631 1608 683.0 1630.5Q735 1653 795 1653ZM795 1321Q814 1321 827.0 1334.0Q840 1347 840 1366Q840 1385 827.0 1398.0Q814 1411 795 1411Q776 1411 763.0 1398.0Q750 1385 750 1366Q750 1347 763.0 1334.0Q776 1321 795 1321Z" style="fill:#007356;stroke:none" transform="scale(1,-1) translate(0,-256)" /></svg>