<?xml version="1.0" encoding="utf-8" ?>
<svg baseProfile="full" height="256" version="1.1" width="256" xmlns="http://www.w3.org/2000/svg" xmlns:ev="http://www.w3.org/2001/xml-events" xmlns:xlink="http://www.w3.org/1999/xlink"><defs /><path d="M1118 1006Q1178 1006 1230.5 983.5Q1283 961 1322.0 922.0Q1361 883 1383.5 831.0Q1406 779 1406 719Q1406 660 1383.5 607.5Q1361 555 1322.0 516.0Q1283 477 1230.5 454.5Q1178 432 1119 432Q1059 432 1006.5 454.5Q954 477 915.0 516.0Q876 555 853.5 607.0Q831 659 831 719Q831 778 853.5 830.5Q876 883 915.0 922.0Q954 961 1006.5 983.5Q1059 1006 1118 1006ZM1118 674Q1137 674 1150.0 687.0Q1163 700 1163 719Q1163 738 1150.0 751.0Q1137 764 1118 764Q1099 764 1086.5 750.5Q1074 737 1074 719Q1074 701 1086.5 687.5Q1099 674 1118 674Z" style="fill:#5a93cb;stroke:none" transform="scale(1,-1) translate(0,-256)" /></svg>