<?xml version="1.0" encoding="utf-8" ?>
<svg baseProfile="full" height="256" version="1.1" width="256" xmlns="http://www.w3.org/2000/svg" xmlns:ev="http://www.w3.org/2001/xml-events" xmlns:xlink="http://www.w3.org/1999/xlink"><defs /><path d="M1945 1598Q1986 1658 2042.0 1691.5Q2098 1725 2171 1725Q2223 1725 2267.5 1707.0Q2312 1689 2344.0 1657.0Q2376 1625 2394.0 1580.5Q2412 1536 2412 1484Q2412 1431 2389.5 1376.5Q2367 1322 2329.0 1269.5Q2291 1217 2242.5 1167.5Q2194 1118 2142.0 1074.5Q2090 1031 2039.0 995.5Q1988 960 1945 935Q1902 960 1851.0 995.5Q1800 1031 1748.0 1074.5Q1696 1118 1647.5 1167.5Q1599 1217 1561.0 1269.5Q1523 1322 1500.5 1376.5Q1478 1431 1478 1484Q1478 1536 1496.0 1580.5Q1514 1625 1546.0 1657.0Q1578 1689 1622.0 1707.0Q1666 1725 1719 1725Q1793 1725 1848.5 1691.5Q1904 1658 1945 1598ZM1119 798Q1140 831 1168.5 863.5Q1197 896 1230.0 923.0Q1263 950 1300.5 970.0Q1338 990 1377 998Q1399 1003 1422.0 1004.5Q1445 1006 1467 1006Q1552 1006 1620.5 975.0Q1689 944 1737.0 891.0Q1785 838 1811.0 766.5Q1837 695 1837 613Q1837 527 1803.0 439.0Q1769 351 1712.0 265.0Q1655 179 1581.0 98.0Q1507 17 1427.0 -54.5Q1347 -126 1267.0 -185.5Q1187 -245 1118 -287Q1050 -245 970.0 -185.5Q890 -126 810.0 -54.5Q730 17 656.0 97.5Q582 178 525.0 264.0Q468 350 433.5 438.0Q399 526 399 611Q399 693 425.0 765.0Q451 837 499.5 890.5Q548 944 617.0 975.0Q686 1006 771 1006Q793 1006 816.0 1004.5Q839 1003 861 998Q900 990 937.5 970.0Q975 950 1008.0 923.0Q1041 896 1069.5 863.5Q1098 831 1119 798Z" style="fill:#f92f60;stroke:none" transform="scale(1,-1) translate(0,-256)" /></svg>