<?xml version="1.0" encoding="utf-8" ?>
<svg baseProfile="full" height="256" version="1.1" width="256" xmlns="http://www.w3.org/2000/svg" xmlns:ev="http://www.w3.org/2001/xml-events" xmlns:xlink="http://www.w3.org/1999/xlink"><defs /><path d="M2268 1292Q2041 1283 1829.0 1217.0Q1617 1151 1431.0 1035.5Q1245 920 1091.0 759.0Q937 598 828 400Q768 435 708.5 468.5Q649 502 590 537Q542 566 513.0 612.5Q484 659 484 716Q484 748 493.5 776.0Q503 804 522 830Q565 891 615.0 948.0Q665 1005 717 1059Q850 1194 1004.5 1305.0Q1159 1416 1329.0 1501.5Q1499 1587 1681.0 1645.5Q1863 1704 2049 1736Q2064 1739 2081 1739Q2122 1739 2156.5 1722.5Q2191 1706 2215.5 1678.5Q2240 1651 2254.0 1615.0Q2268 1579 2268 1539Z" style="fill:#f3ad61;stroke:none" transform="scale(1,-1) translate(0,-256)" /></svg>