<?xml version="1.0" encoding="utf-8" ?>
<svg baseProfile="full" height="256" version="1.1" width="256" xmlns="http://www.w3.org/2000/svg" xmlns:ev="http://www.w3.org/2001/xml-events" xmlns:xlink="http://www.w3.org/1999/xlink"><defs /><path d="M2412 1550V-247H2340V1550ZM2125 1413H2197V-247H2125V1413ZM1981 1201V-247H1909V1201ZM1693 978H1765V-247H1693V978ZM1550 762V-247H1478V762ZM1262 544H1334V-247H1262V544ZM1118 411V-247H1047V411ZM472 391V-247H400V391H472ZM687 328V-247H615V328ZM831 328H903V-247H831V328Z" style="fill:#9b9b9b;stroke:none" transform="scale(1,-1) translate(0,-256)" /></svg>