<?xml version="1.0" encoding="utf-8" ?>
<svg baseProfile="full" height="256" version="1.1" width="256" xmlns="http://www.w3.org/2000/svg" xmlns:ev="http://www.w3.org/2001/xml-events" xmlns:xlink="http://www.w3.org/1999/xlink"><defs /><path d="M708 355Q851 355 981.5 409.0Q1112 463 1213 564L2029 1380Q2108 1459 2204.5 1509.0Q2301 1559 2412 1579V1433Q2331 1416 2259.5 1376.5Q2188 1337 2130 1279L1314 462Q1254 402 1183.5 355.5Q1113 309 1035.0 277.0Q957 245 874.0 228.0Q791 211 707 211Q628 211 551.0 226.0Q474 241 400 270V425Q472 390 550.0 372.5Q628 355 708 355Z" style="fill:#f8312f;stroke:none" transform="scale(1,-1) translate(0,-256)" /></svg>