<?xml version="1.0" encoding="utf-8" ?>
<svg baseProfile="full" height="256" version="1.1" width="256" xmlns="http://www.w3.org/2000/svg" xmlns:ev="http://www.w3.org/2001/xml-events" xmlns:xlink="http://www.w3.org/1999/xlink"><defs /><path d="M2060 1517Q2060 1477 2032 1449L1852 1270Q1838 1256 1821.0 1248.5Q1804 1241 1785 1241Q1765 1241 1748.0 1248.5Q1731 1256 1718.0 1269.5Q1705 1283 1697.5 1300.0Q1690 1317 1690 1337Q1690 1376 1718 1404L1898 1584Q1926 1612 1965 1612Q1984 1612 2001.5 1604.5Q2019 1597 2032.0 1584.0Q2045 1571 2052.5 1553.5Q2060 1536 2060 1517ZM1469 926Q1452 926 1436.0 932.0Q1420 938 1407 949Q1430 923 1430 887Q1430 849 1402 821L1222 641Q1194 613 1155 613Q1135 613 1118.0 620.5Q1101 628 1088.0 641.0Q1075 654 1067.5 671.0Q1060 688 1060 708Q1060 747 1088 775L1268 955Q1296 983 1334 983Q1371 983 1397 960Q1374 986 1374 1022Q1374 1061 1402 1089L1581 1269Q1594 1283 1611.5 1290.0Q1629 1297 1648 1297Q1667 1297 1684.5 1289.5Q1702 1282 1715.5 1269.0Q1729 1256 1736.5 1238.5Q1744 1221 1744 1202Q1744 1162 1716 1134L1536 955Q1522 941 1505.0 933.5Q1488 926 1469 926Z" style="fill:#ff6723;stroke:none" transform="scale(1,-1) translate(0,-256)" /></svg>