<?xml version="1.0" encoding="utf-8" ?>
<svg baseProfile="full" height="256" version="1.1" width="256" xmlns="http://www.w3.org/2000/svg" xmlns:ev="http://www.w3.org/2001/xml-events" xmlns:xlink="http://www.w3.org/1999/xlink"><defs /><path d="M2010 1380Q1990 1380 1976.0 1393.5Q1962 1407 1962 1427Q1962 1447 1976.0 1461.0Q1990 1475 2010 1475Q2030 1475 2043.5 1461.0Q2057 1447 2057 1427Q2057 1407 2043.5 1393.5Q2030 1380 2010 1380ZM1741 1112Q1741 1092 1727.0 1078.5Q1713 1065 1693 1065Q1673 1065 1659.5 1078.5Q1646 1092 1646 1112Q1646 1132 1659.5 1145.5Q1673 1159 1693 1159Q1713 1159 1727.0 1145.5Q1741 1132 1741 1112ZM1427 798Q1427 778 1413.5 764.5Q1400 751 1380 751Q1360 751 1346.0 764.5Q1332 778 1332 798Q1332 818 1346.0 832.0Q1360 846 1380 846Q1400 846 1413.5 832.0Q1427 818 1427 798ZM1293 664Q1293 644 1279.0 630.0Q1265 616 1245 616Q1225 616 1211.5 630.0Q1198 644 1198 664Q1198 684 1211.5 697.5Q1225 711 1245 711Q1265 711 1279.0 697.5Q1293 684 1293 664ZM1559 930Q1539 930 1525.5 944.0Q1512 958 1512 978Q1512 998 1525.5 1011.5Q1539 1025 1559 1025Q1579 1025 1593.0 1011.5Q1607 998 1607 978Q1607 958 1593.0 944.0Q1579 930 1559 930ZM1923 1293Q1923 1273 1909.0 1259.0Q1895 1245 1875 1245Q1855 1245 1841.5 1259.0Q1828 1273 1828 1293Q1828 1313 1841.5 1326.5Q1855 1340 1875 1340Q1895 1340 1909.0 1326.5Q1923 1313 1923 1293Z" style="fill:#321b41;stroke:none" transform="scale(1,-1) translate(0,-256)" /></svg>