<?xml version="1.0" encoding="utf-8" ?>
<svg baseProfile="full" height="256" version="1.1" width="256" xmlns="http://www.w3.org/2000/svg" xmlns:ev="http://www.w3.org/2001/xml-events" xmlns:xlink="http://www.w3.org/1999/xlink"><defs /><path d="M2059 1310Q2059 1291 2053.5 1269.0Q2048 1247 2038.5 1225.0Q2029 1203 2016.5 1183.5Q2004 1164 1991 1151L1087 247L920 257L934 400L1838 1304Q1851 1317 1870.5 1329.5Q1890 1342 1912.0 1351.5Q1934 1361 1956.0 1366.5Q1978 1372 1997 1372Q2059 1372 2059 1310ZM557 23 534 0Q505 -2 480.5 -14.0Q456 -26 438.0 -45.5Q420 -65 410.0 -90.5Q400 -116 400 -144Q400 -174 411.0 -200.0Q422 -226 441.5 -245.5Q461 -265 487.0 -276.0Q513 -287 543 -287Q571 -287 596.5 -277.0Q622 -267 641.5 -249.0Q661 -231 673.0 -206.5Q685 -182 687 -153L710 -130V0Z" style="fill:#d3d3d3;stroke:none" transform="scale(1,-1) translate(0,-256)" /></svg>