<?xml version="1.0" encoding="utf-8" ?>
<svg baseProfile="full" height="256" version="1.1" width="256" xmlns="http://www.w3.org/2000/svg" xmlns:ev="http://www.w3.org/2001/xml-events" xmlns:xlink="http://www.w3.org/1999/xlink"><defs /><path d="M2225 1538Q2219 1504 2217.0 1470.0Q2215 1436 2215 1402Q2215 1395 2215.5 1374.5Q2216 1354 2218.5 1328.0Q2221 1302 2224.5 1274.0Q2228 1246 2234.0 1222.5Q2240 1199 2248.0 1183.5Q2256 1168 2268 1168Q2280 1168 2288.5 1183.5Q2297 1199 2303.0 1222.5Q2309 1246 2312.5 1274.0Q2316 1302 2318.5 1328.0Q2321 1354 2321.5 1374.5Q2322 1395 2322 1402Q2322 1424 2321.0 1451.0Q2320 1478 2317.0 1506.0Q2314 1534 2308.5 1560.5Q2303 1587 2294 1607L2352 1665Q2369 1638 2380.5 1605.0Q2392 1572 2399.0 1537.5Q2406 1503 2409.0 1468.0Q2412 1433 2412 1402Q2412 1382 2409.5 1350.5Q2407 1319 2400.5 1283.0Q2394 1247 2383.0 1210.5Q2372 1174 2356.0 1144.5Q2340 1115 2318.5 1096.5Q2297 1078 2268 1078Q2239 1078 2217.5 1096.5Q2196 1115 2180.0 1144.5Q2164 1174 2153.5 1210.5Q2143 1247 2136.5 1283.0Q2130 1319 2127.5 1350.5Q2125 1382 2125 1402Q2125 1411 2125.0 1420.5Q2125 1430 2126 1439Z" style="fill:#321b41;stroke:none" transform="scale(1,-1) translate(0,-256)" /></svg>