<?xml version="1.0" encoding="utf-8" ?>
<svg baseProfile="full" height="256" version="1.1" width="256" xmlns="http://www.w3.org/2000/svg" xmlns:ev="http://www.w3.org/2001/xml-events" xmlns:xlink="http://www.w3.org/1999/xlink"><defs /><path d="M472 1006 759 1294H1156L1298 1222Q1301 1223 1318.5 1229.0Q1336 1235 1359.5 1243.0Q1383 1251 1409.5 1260.0Q1436 1269 1458.5 1276.5Q1481 1284 1496.0 1289.0Q1511 1294 1511 1294H1875L1981 1222L2231 1294H2268Q2298 1294 2319.0 1273.0Q2340 1252 2340 1222V1041Q2340 1037 2337.5 1021.5Q2335 1006 2331.5 984.5Q2328 963 2324.0 938.5Q2320 914 2316.0 891.5Q2312 869 2308.5 851.5Q2305 834 2304 827Q2305 823 2311.0 800.5Q2317 778 2323.5 752.0Q2330 726 2335.0 705.0Q2340 684 2340 684V431Q2340 402 2318.5 381.0Q2297 360 2268 360H2015Q2012 360 1986.5 365.0Q1961 370 1930.0 376.5Q1899 383 1871.0 389.0Q1843 395 1837 396Q1831 395 1803.0 389.0Q1775 383 1744.0 376.5Q1713 370 1687.5 365.0Q1662 360 1659 360H1297L1154 431Q1150 430 1133.0 424.0Q1116 418 1092.0 410.0Q1068 402 1041.5 393.5Q1015 385 992.5 377.5Q970 370 955.0 365.0Q940 360 940 360H579L543 539L472 609Z" style="fill:#fcd53f;stroke:none" transform="scale(1,-1) translate(0,-256)" /></svg>