<?xml version="1.0" encoding="utf-8" ?>
<svg baseProfile="full" height="256" version="1.1" width="256" xmlns="http://www.w3.org/2000/svg" xmlns:ev="http://www.w3.org/2001/xml-events" xmlns:xlink="http://www.w3.org/1999/xlink"><defs /><path d="M795 1438Q817 1438 836.5 1429.5Q856 1421 871.0 1406.0Q886 1391 894.5 1371.5Q903 1352 903 1330V1294H687V1330Q687 1352 695.5 1371.5Q704 1391 719.0 1406.0Q734 1421 753.5 1429.5Q773 1438 795 1438ZM2017 1438Q2039 1438 2058.5 1429.5Q2078 1421 2093.0 1406.0Q2108 1391 2116.5 1371.5Q2125 1352 2125 1330V1294H1909V1330Q1909 1352 1917.5 1371.5Q1926 1391 1941.0 1406.0Q1956 1421 1975.5 1429.5Q1995 1438 2017 1438Z" style="fill:#f8312f;stroke:none" transform="scale(1,-1) translate(0,-256)" /></svg>