<?xml version="1.0" encoding="utf-8" ?>
<svg baseProfile="full" height="256" version="1.1" width="256" xmlns="http://www.w3.org/2000/svg" xmlns:ev="http://www.w3.org/2001/xml-events" xmlns:xlink="http://www.w3.org/1999/xlink"><defs /><path d="M1514 144Q1514 122 1505.5 102.5Q1497 83 1482.0 68.0Q1467 53 1447.5 44.5Q1428 36 1406 36Q1383 36 1363.5 44.5Q1344 53 1329.5 67.5Q1315 82 1306.5 101.5Q1298 121 1298 144V395Q1264 421 1245.0 458.5Q1226 496 1226 539Q1226 576 1240.0 609.0Q1254 642 1278.5 666.5Q1303 691 1336.0 705.0Q1369 719 1406 719Q1443 719 1476.0 705.0Q1509 691 1533.5 666.5Q1558 642 1572.0 609.0Q1586 576 1586 539Q1586 497 1566.5 459.0Q1547 421 1514 395Z" style="fill:#433b6b;stroke:none" transform="scale(1,-1) translate(0,-256)" /></svg>