<?xml version="1.0" encoding="utf-8" ?>
<svg baseProfile="full" height="256" version="1.1" width="256" xmlns="http://www.w3.org/2000/svg" xmlns:ev="http://www.w3.org/2001/xml-events" xmlns:xlink="http://www.w3.org/1999/xlink"><defs /><path d="M615 863Q615 908 632.0 947.0Q649 986 678.5 1015.0Q708 1044 747.0 1061.0Q786 1078 831 1078H1981Q2026 1078 2065.0 1061.0Q2104 1044 2133.5 1015.0Q2163 986 2180.0 947.0Q2197 908 2197 863V-72Q2197 -117 2180.0 -156.0Q2163 -195 2133.5 -224.0Q2104 -253 2065.0 -270.0Q2026 -287 1981 -287H831Q786 -287 747.0 -270.0Q708 -253 678.5 -224.0Q649 -195 632.0 -156.0Q615 -117 615 -72Z" style="fill:#f9c23c;stroke:none" transform="scale(1,-1) translate(0,-256)" /></svg>