<?xml version="1.0" encoding="utf-8" ?>
<svg baseProfile="full" height="256" version="1.1" width="256" xmlns="http://www.w3.org/2000/svg" xmlns:ev="http://www.w3.org/2001/xml-events" xmlns:xlink="http://www.w3.org/1999/xlink"><defs /><path d="M1406 1724Q1450 1724 1480.0 1711.5Q1510 1699 1533.0 1680.0Q1556 1661 1575.5 1638.5Q1595 1616 1618.0 1597.0Q1641 1578 1671.0 1565.5Q1701 1553 1745 1553Q1778 1553 1809.0 1563.0Q1840 1573 1873 1573Q1919 1573 1956.5 1556.5Q1994 1540 2021.0 1511.5Q2048 1483 2064.5 1445.0Q2081 1407 2084 1363Q2090 1288 2124.0 1241.0Q2158 1194 2228 1165Q2294 1138 2333.5 1087.5Q2373 1037 2373 964Q2373 930 2360.5 900.5Q2348 871 2333.5 842.0Q2319 813 2306.5 783.0Q2294 753 2294 719Q2294 684 2306.5 654.5Q2319 625 2333.5 596.0Q2348 567 2360.5 537.5Q2373 508 2373 474Q2373 401 2333.5 350.5Q2294 300 2228 273Q2158 244 2124.0 197.0Q2090 150 2084 75Q2081 31 2064.5 -7.0Q2048 -45 2021.0 -73.5Q1994 -102 1956.5 -118.5Q1919 -135 1873 -135Q1840 -135 1809.0 -125.0Q1778 -115 1745 -115Q1701 -115 1671.0 -127.5Q1641 -140 1618.0 -159.5Q1595 -179 1575.5 -201.0Q1556 -223 1533.0 -242.5Q1510 -262 1480.0 -274.5Q1450 -287 1406 -287Q1362 -287 1332.0 -274.5Q1302 -262 1279.0 -242.5Q1256 -223 1236.5 -201.0Q1217 -179 1194.0 -159.5Q1171 -140 1141.0 -127.5Q1111 -115 1067 -115Q1034 -115 1003.0 -125.0Q972 -135 939 -135Q893 -135 855.5 -118.5Q818 -102 791.0 -73.5Q764 -45 747.5 -7.0Q731 31 728 75Q722 150 688.0 197.0Q654 244 584 273Q518 300 478.5 350.5Q439 401 439 474Q439 508 451.5 537.5Q464 567 478.5 596.0Q493 625 505.5 654.5Q518 684 518 719Q518 753 505.5 783.0Q493 813 478.5 842.0Q464 871 451.5 900.5Q439 930 439 964Q439 1037 478.5 1087.5Q518 1138 584 1165Q654 1194 688.0 1241.0Q722 1288 728 1363Q731 1407 747.5 1445.0Q764 1483 791.0 1511.5Q818 1540 855.5 1556.5Q893 1573 939 1573Q972 1573 1003.0 1563.0Q1034 1553 1067 1553Q1111 1553 1141.0 1565.5Q1171 1578 1194.0 1597.0Q1217 1616 1236.5 1638.5Q1256 1661 1279.0 1680.0Q1302 1699 1332.0 1711.5Q1362 1724 1406 1724Z" style="fill:#ff822d;stroke:none" transform="scale(1,-1) translate(0,-256)" /></svg>