<?xml version="1.0" encoding="utf-8" ?>
<svg baseProfile="full" height="256" version="1.1" width="256" xmlns="http://www.w3.org/2000/svg" xmlns:ev="http://www.w3.org/2001/xml-events" xmlns:xlink="http://www.w3.org/1999/xlink"><defs /><path d="M1406 -33Q1302 -33 1206.0 -6.0Q1110 21 1026.5 70.0Q943 119 874.5 187.5Q806 256 757.0 339.5Q708 423 681.0 519.0Q654 615 654 719Q654 823 681.0 919.0Q708 1015 757.0 1098.5Q806 1182 874.5 1250.5Q943 1319 1026.5 1368.0Q1110 1417 1206.0 1444.0Q1302 1471 1406 1471Q1510 1471 1606.0 1444.0Q1702 1417 1785.5 1368.0Q1869 1319 1937.5 1250.5Q2006 1182 2055.0 1098.5Q2104 1015 2131.0 919.0Q2158 823 2158 719Q2158 615 2131.0 519.0Q2104 423 2055.0 339.5Q2006 256 1937.5 187.5Q1869 119 1785.5 70.0Q1702 21 1606.0 -6.0Q1510 -33 1406 -33Z" style="fill:#fcd53f;stroke:none" transform="scale(1,-1) translate(0,-256)" /></svg>