<?xml version="1.0" encoding="utf-8" ?>
<svg baseProfile="full" height="256" version="1.1" width="256" xmlns="http://www.w3.org/2000/svg" xmlns:ev="http://www.w3.org/2001/xml-events" xmlns:xlink="http://www.w3.org/1999/xlink"><defs /><path d="M2061 696Q2061 666 2041 646L1673 265Q1653 243 1622 243Q1592 243 1571.0 263.5Q1550 284 1550 314V535Q1550 543 1545.0 548.0Q1540 553 1532 553H831Q802 553 780.5 574.0Q759 595 759 624V768Q759 798 780.0 819.0Q801 840 831 840H1532Q1540 840 1545.0 845.0Q1550 850 1550 858V1078Q1550 1108 1571.0 1129.0Q1592 1150 1622 1150Q1653 1150 1673 1128L2041 746Q2061 726 2061 696Z" style="fill:#ffffff;stroke:none" transform="scale(1,-1) translate(0,-256)" /></svg>