<?xml version="1.0" encoding="utf-8" ?>
<svg baseProfile="full" height="256" version="1.1" width="256" xmlns="http://www.w3.org/2000/svg" xmlns:ev="http://www.w3.org/2001/xml-events" xmlns:xlink="http://www.w3.org/1999/xlink"><defs /><path d="M1322 955Q1322 942 1312.0 934.5Q1302 927 1290 927H1076Q1064 927 1054.0 934.5Q1044 942 1044 955Q1044 957 1044.5 958.5Q1045 960 1045 962Q1049 986 1062.5 1005.5Q1076 1025 1095.0 1039.5Q1114 1054 1137.0 1062.0Q1160 1070 1183 1070Q1232 1070 1270.5 1040.0Q1309 1010 1321 962Q1322 960 1322 955ZM1750 955Q1750 943 1740.0 935.0Q1730 927 1718 927H1504Q1492 927 1482.0 934.5Q1472 942 1472 955Q1472 957 1472.5 958.5Q1473 960 1473 962Q1477 986 1490.5 1005.5Q1504 1025 1523.0 1039.5Q1542 1054 1565.0 1062.0Q1588 1070 1611 1070Q1660 1070 1698.0 1040.0Q1736 1010 1749 962Q1750 960 1750 955Z" style="fill:#ffffff;stroke:none" transform="scale(1,-1) translate(0,-256)" /></svg>