<?xml version="1.0" encoding="utf-8" ?>
<svg baseProfile="full" height="256" version="1.1" width="256" xmlns="http://www.w3.org/2000/svg" xmlns:ev="http://www.w3.org/2001/xml-events" xmlns:xlink="http://www.w3.org/1999/xlink"><defs /><path d="M1397 107Q1358 107 1325.5 123.0Q1293 139 1269.0 165.0Q1245 191 1232.0 225.5Q1219 260 1219 298V523Q1219 560 1232.0 594.5Q1245 629 1269.0 655.5Q1293 682 1325.5 697.5Q1358 713 1397 713Q1436 713 1468.5 697.0Q1501 681 1524.5 655.0Q1548 629 1561.5 594.5Q1575 560 1575 523V298Q1575 260 1562.0 225.5Q1549 191 1525.0 165.0Q1501 139 1468.5 123.0Q1436 107 1397 107Z" style="fill:#fcb100;stroke:none" transform="scale(1,-1) translate(0,-256)" /></svg>