<?xml version="1.0" encoding="utf-8" ?>
<svg baseProfile="full" height="256" version="1.1" width="256" xmlns="http://www.w3.org/2000/svg" xmlns:ev="http://www.w3.org/2001/xml-events" xmlns:xlink="http://www.w3.org/1999/xlink"><defs /><path d="M1290 945Q1290 940 1289.5 936.0Q1289 932 1288 927H1113Q1112 932 1112.0 936.0Q1112 940 1112 945Q1112 982 1138.0 1008.0Q1164 1034 1201 1034Q1238 1034 1264.0 1008.0Q1290 982 1290 945ZM1682 945Q1682 940 1681.5 936.0Q1681 932 1680 927H1506Q1504 932 1504.0 936.0Q1504 940 1504 945Q1504 982 1530.0 1008.0Q1556 1034 1593 1034Q1630 1034 1656.0 1008.0Q1682 982 1682 945Z" style="fill:#7d4533;stroke:none" transform="scale(1,-1) translate(0,-256)" /></svg>