<?xml version="1.0" encoding="utf-8" ?>
<svg baseProfile="full" height="256" version="1.1" width="256" xmlns="http://www.w3.org/2000/svg" xmlns:ev="http://www.w3.org/2001/xml-events" xmlns:xlink="http://www.w3.org/1999/xlink"><defs /><path d="M1254 1195Q1254 1193 1252 1187Q1229 1142 1191.5 1121.0Q1154 1100 1106 1100Q1099 1100 1088.0 1100.5Q1077 1101 1066.5 1103.0Q1056 1105 1048.5 1110.0Q1041 1115 1041 1124Q1041 1132 1046.5 1136.5Q1052 1141 1059 1141Q1070 1141 1082.0 1138.5Q1094 1136 1106 1136Q1143 1136 1165.0 1148.0Q1187 1160 1200.0 1174.0Q1213 1188 1220.0 1200.0Q1227 1212 1236 1212Q1243 1212 1248.5 1207.0Q1254 1202 1254 1195ZM1539 1195Q1539 1202 1544.5 1207.0Q1550 1212 1557 1212Q1565 1212 1573.0 1200.0Q1581 1188 1594.0 1174.0Q1607 1160 1629.0 1148.0Q1651 1136 1688 1136Q1700 1136 1712.0 1138.5Q1724 1141 1735 1141Q1742 1141 1747.5 1136.5Q1753 1132 1753 1124Q1753 1115 1745.5 1110.0Q1738 1105 1727.5 1103.0Q1717 1101 1706.0 1100.5Q1695 1100 1688 1100Q1642 1100 1601.5 1121.5Q1561 1143 1541 1187Q1539 1191 1539 1195Z" style="fill:#d37034;stroke:none" transform="scale(1,-1) translate(0,-256)" /></svg>