<?xml version="1.0" encoding="utf-8" ?>
<svg baseProfile="full" height="256" version="1.1" width="256" xmlns="http://www.w3.org/2000/svg" xmlns:ev="http://www.w3.org/2001/xml-events" xmlns:xlink="http://www.w3.org/1999/xlink"><defs /><path d="M1309 763Q1309 773 1315.5 797.0Q1322 821 1330.5 848.0Q1339 875 1347.5 900.0Q1356 925 1360 937Q1364 949 1373.5 956.0Q1383 963 1395 963Q1422 963 1430 937Q1434 925 1442.5 900.0Q1451 875 1459.5 848.0Q1468 821 1474.5 797.0Q1481 773 1481 763Q1481 743 1466.5 728.0Q1452 713 1431 713H1359Q1339 713 1324.0 728.0Q1309 743 1309 763Z" style="fill:#ed9200;stroke:none" transform="scale(1,-1) translate(0,-256)" /></svg>