<?xml version="1.0" encoding="utf-8" ?>
<svg baseProfile="full" height="256" version="1.1" width="256" xmlns="http://www.w3.org/2000/svg" xmlns:ev="http://www.w3.org/2001/xml-events" xmlns:xlink="http://www.w3.org/1999/xlink"><defs /><path d="M906 1124Q906 1194 932.5 1255.5Q959 1317 1005.0 1363.0Q1051 1409 1113.0 1435.5Q1175 1462 1245 1462H1361Q1380 1462 1391.0 1452.5Q1402 1443 1410 1428Q1412 1426 1412.5 1423.0Q1413 1420 1414 1418Q1441 1357 1493.0 1320.5Q1545 1284 1613 1284H1775Q1797 1284 1816.0 1276.0Q1835 1268 1849.5 1254.0Q1864 1240 1872.5 1221.0Q1881 1202 1882 1180Q1884 1153 1885.0 1125.0Q1886 1097 1886 1070Q1886 1049 1885.0 1031.5Q1884 1014 1882.5 997.5Q1881 981 1879.5 964.0Q1878 947 1877 926L1858 637Q1856 614 1849.0 590.0Q1842 566 1833 545Q1811 494 1775.0 452.5Q1739 411 1694.0 381.5Q1649 352 1596.0 336.5Q1543 321 1488 321H1307Q1251 321 1198.5 336.5Q1146 352 1100.5 381.5Q1055 411 1019.5 452.5Q984 494 962 545Q953 566 945.5 590.0Q938 614 936 637Q928 746 921.5 853.5Q915 961 907 1070Q906 1084 906.0 1097.0Q906 1110 906 1124Z" style="fill:#ffc83d;stroke:none" transform="scale(1,-1) translate(0,-256)" /></svg>