<?xml version="1.0" encoding="utf-8" ?>
<svg baseProfile="full" height="256" version="1.1" width="256" xmlns="http://www.w3.org/2000/svg" xmlns:ev="http://www.w3.org/2001/xml-events" xmlns:xlink="http://www.w3.org/1999/xlink"><defs /><path d="M1397 580Q1380 580 1362.5 576.0Q1345 572 1330.0 566.5Q1315 561 1304.0 557.0Q1293 553 1290 553Q1282 553 1277.0 558.0Q1272 563 1272 571Q1272 582 1288.0 590.5Q1304 599 1325.0 604.5Q1346 610 1367.0 612.5Q1388 615 1397 615Q1406 615 1426.5 612.5Q1447 610 1468.5 604.5Q1490 599 1506.0 590.5Q1522 582 1522 571Q1522 563 1516.5 558.0Q1511 553 1504 553Q1501 553 1490.0 557.0Q1479 561 1464.0 566.5Q1449 572 1431.0 576.0Q1413 580 1397 580Z" style="fill:#990839;stroke:none" transform="scale(1,-1) translate(0,-256)" /></svg>