<?xml version="1.0" encoding="utf-8" ?>
<svg baseProfile="full" height="256" version="1.1" width="256" xmlns="http://www.w3.org/2000/svg" xmlns:ev="http://www.w3.org/2001/xml-events" xmlns:xlink="http://www.w3.org/1999/xlink"><defs /><path d="M1112 909Q1112 876 1099.0 846.5Q1086 817 1064.5 795.5Q1043 774 1013.5 761.5Q984 749 951 749Q918 749 889.0 761.5Q860 774 838.0 796.0Q816 818 803.5 847.0Q791 876 791 909Q791 942 803.5 971.5Q816 1001 837.5 1022.5Q859 1044 888.5 1057.0Q918 1070 951 1070Q984 1070 1013.5 1057.5Q1043 1045 1065.0 1023.0Q1087 1001 1099.5 971.5Q1112 942 1112 909ZM2003 909Q2003 876 1990.0 846.5Q1977 817 1955.5 795.5Q1934 774 1904.5 761.5Q1875 749 1842 749Q1809 749 1780.0 761.5Q1751 774 1729.0 796.0Q1707 818 1694.5 847.0Q1682 876 1682 909Q1682 942 1694.5 971.5Q1707 1001 1728.5 1022.5Q1750 1044 1779.5 1057.0Q1809 1070 1842 1070Q1875 1070 1904.5 1057.5Q1934 1045 1956.0 1023.0Q1978 1001 1990.5 971.5Q2003 942 2003 909Z" style="fill:#fdbb11;stroke:none" transform="scale(1,-1) translate(0,-256)" /></svg>