<?xml version="1.0" encoding="utf-8" ?>
<svg baseProfile="full" height="256" version="1.1" width="256" xmlns="http://www.w3.org/2000/svg" xmlns:ev="http://www.w3.org/2001/xml-events" xmlns:xlink="http://www.w3.org/1999/xlink"><defs /><path d="M1554 1563Q1668 1563 1769.0 1519.5Q1870 1476 1945.0 1401.0Q2020 1326 2063.5 1225.5Q2107 1125 2107 1011Q2107 992 2105.5 974.0Q2104 956 2102 937Q2090 744 2078.5 553.0Q2067 362 2054 169Q2052 134 2040.5 97.0Q2029 60 2015 28Q1983 -44 1933.0 -102.0Q1883 -160 1820.0 -201.5Q1757 -243 1684.0 -265.0Q1611 -287 1533 -287H1280Q1202 -287 1128.5 -265.0Q1055 -243 992.0 -201.5Q929 -160 879.0 -102.0Q829 -44 798 28Q784 60 772.5 97.0Q761 134 759 169Q745 362 733.5 553.0Q722 744 709 937Q707 955 706.0 972.5Q705 990 705 1007Q705 1124 747.0 1225.5Q789 1327 863.0 1402.0Q937 1477 1038.0 1520.0Q1139 1563 1256 1563H1554Z" style="fill:#ffc83d;stroke:none" transform="scale(1,-1) translate(0,-256)" /></svg>