<?xml version="1.0" encoding="utf-8" ?>
<svg baseProfile="full" height="256" version="1.1" width="256" xmlns="http://www.w3.org/2000/svg" xmlns:ev="http://www.w3.org/2001/xml-events" xmlns:xlink="http://www.w3.org/1999/xlink"><defs /><path d="M823 425Q843 425 862 436L1199 638Q1212 646 1226 646Q1246 646 1262 632Q1255 598 1231.0 553.0Q1207 508 1173.0 458.0Q1139 408 1098.5 355.5Q1058 303 1017.5 255.0Q977 207 941.0 166.0Q905 125 879 98Q825 119 759.5 152.5Q694 186 633.0 229.0Q572 272 523.0 322.5Q474 373 453 429Q465 446 483.5 459.5Q502 473 524.0 483.0Q546 493 569.0 498.0Q592 503 612 503Q657 503 686.0 491.0Q715 479 737.0 464.0Q759 449 778.5 437.0Q798 425 823 425ZM1989 425Q2014 425 2033.5 437.0Q2053 449 2075.0 464.0Q2097 479 2126.0 491.0Q2155 503 2200 503Q2247 503 2290.0 482.5Q2333 462 2362 426Q2320 388 2269.0 346.5Q2218 305 2163.0 266.5Q2108 228 2051.0 195.0Q1994 162 1940 141Q1893 183 1833.5 243.0Q1774 303 1717.0 370.5Q1660 438 1614.5 506.5Q1569 575 1550 632Q1566 646 1586 646Q1600 646 1613 638L1950 436Q1969 425 1989 425Z" style="fill:#ffffff;stroke:none" transform="scale(1,-1) translate(0,-256)" /></svg>