<?xml version="1.0" encoding="utf-8" ?>
<svg baseProfile="full" height="256" version="1.1" width="256" xmlns="http://www.w3.org/2000/svg" xmlns:ev="http://www.w3.org/2001/xml-events" xmlns:xlink="http://www.w3.org/1999/xlink"><defs /><path d="M1406 -359Q1175 -359 989.0 -288.0Q803 -217 672.0 -86.0Q541 45 470.5 231.0Q400 417 400 647Q400 877 470.5 1063.0Q541 1249 672.0 1380.0Q803 1511 989.0 1582.0Q1175 1653 1406 1653Q1637 1653 1823.0 1582.0Q2009 1511 2140.0 1380.0Q2271 1249 2341.5 1063.0Q2412 877 2412 647Q2412 417 2341.5 231.0Q2271 45 2140.0 -86.0Q2009 -217 1823.0 -288.0Q1637 -359 1406 -359Z" style="fill:#ffb02e;stroke:none" transform="scale(1,-1) translate(0,-256)" /></svg>