<?xml version="1.0" encoding="utf-8" ?>
<svg baseProfile="full" height="256" version="1.1" width="256" xmlns="http://www.w3.org/2000/svg" xmlns:ev="http://www.w3.org/2001/xml-events" xmlns:xlink="http://www.w3.org/1999/xlink"><defs /><path d="M723 -288Q656 -288 597.0 -262.5Q538 -237 494.0 -193.0Q450 -149 424.5 -90.0Q399 -31 399 36Q399 63 405.5 96.0Q412 129 424.5 160.5Q437 192 454.5 220.0Q472 248 494 265Q513 280 539.5 293.0Q566 306 595.0 316.0Q624 326 653.0 332.0Q682 338 706 338Q762 338 818.5 309.5Q875 281 920.5 236.0Q966 191 994.5 134.5Q1023 78 1023 22Q1023 -1 1017.0 -30.5Q1011 -60 1001.0 -90.0Q991 -120 978.0 -147.5Q965 -175 952 -193Q950 -196 940.0 -204.5Q930 -213 927 -215Q884 -250 831.5 -269.0Q779 -288 723 -288ZM2088 -288Q2061 -288 2028.5 -281.5Q1996 -275 1964.5 -263.0Q1933 -251 1905.5 -233.5Q1878 -216 1860 -193Q1845 -174 1832.0 -146.5Q1819 -119 1809.5 -88.5Q1800 -58 1794.0 -27.5Q1788 3 1788 27Q1788 87 1815.0 143.0Q1842 199 1886.0 241.5Q1930 284 1986.5 310.0Q2043 336 2103 336Q2127 336 2156.5 330.5Q2186 325 2215.0 315.5Q2244 306 2271.0 293.0Q2298 280 2317 265Q2339 247 2357.0 219.5Q2375 192 2387.0 160.5Q2399 129 2405.5 96.5Q2412 64 2412 36Q2412 -31 2386.5 -90.0Q2361 -149 2317.0 -193.0Q2273 -237 2214.0 -262.5Q2155 -288 2088 -288Z" style="fill:#c9c9c9;stroke:none" transform="scale(1,-1) translate(0,-256)" /></svg>