<?xml version="1.0" encoding="utf-8" ?>
<svg baseProfile="full" height="256" version="1.1" width="256" xmlns="http://www.w3.org/2000/svg" xmlns:ev="http://www.w3.org/2001/xml-events" xmlns:xlink="http://www.w3.org/1999/xlink"><defs /><path d="M1038 1365Q1023 1365 1008.0 1361.5Q993 1358 979.5 1353.5Q966 1349 955.5 1345.5Q945 1342 938 1342Q924 1342 913.5 1353.0Q903 1364 903 1378Q903 1396 919.0 1407.5Q935 1419 957.0 1425.5Q979 1432 1002.0 1435.0Q1025 1438 1038 1438Q1078 1438 1113.5 1426.0Q1149 1414 1178.5 1391.5Q1208 1369 1229.0 1337.5Q1250 1306 1261 1268Q1262 1265 1262 1258Q1262 1244 1251.5 1233.0Q1241 1222 1227 1222Q1200 1222 1192 1248Q1175 1302 1135.0 1333.5Q1095 1365 1038 1365ZM1262 1007Q1262 985 1250 967Q1227 932 1195.0 905.5Q1163 879 1125.0 861.0Q1087 843 1045.5 834.0Q1004 825 964 825Q940 825 905.0 830.5Q870 836 837.5 849.0Q805 862 782.0 883.0Q759 904 759 934Q759 964 780.5 985.0Q802 1006 831 1006Q844 1006 857.0 1000.0Q870 994 885.0 987.5Q900 981 919.0 975.0Q938 969 963 969Q1011 969 1057.0 988.0Q1103 1007 1131 1046Q1153 1078 1190 1078Q1220 1078 1241.0 1057.0Q1262 1036 1262 1007ZM1407 363Q1316 363 1241.5 330.0Q1167 297 1101 236Q1090 225 1078.0 219.5Q1066 214 1050 214Q1020 214 999.0 235.0Q978 256 978 286Q978 314 999 337Q1037 378 1085.0 409.5Q1133 441 1186.0 462.5Q1239 484 1295.0 495.0Q1351 506 1407 506Q1462 506 1518.0 495.0Q1574 484 1626.0 463.0Q1678 442 1725.5 410.5Q1773 379 1812 339Q1834 317 1834 288Q1834 258 1812.0 237.0Q1790 216 1761 216Q1746 216 1734.0 221.5Q1722 227 1711 237Q1644 297 1571.0 330.0Q1498 363 1407 363ZM1550 1007Q1550 1036 1571.0 1057.0Q1592 1078 1622 1078Q1659 1078 1681 1046Q1710 1007 1755.5 988.0Q1801 969 1849 969Q1874 969 1893.0 975.0Q1912 981 1927.0 987.5Q1942 994 1954.5 1000.0Q1967 1006 1981 1006Q2010 1006 2031.5 985.0Q2053 964 2053 934Q2053 904 2030.0 883.0Q2007 862 1974.5 849.0Q1942 836 1907.0 830.5Q1872 825 1848 825Q1807 825 1766.0 834.0Q1725 843 1687.0 861.0Q1649 879 1616.5 905.5Q1584 932 1562 967Q1550 985 1550 1007ZM1774 1365Q1717 1365 1677.0 1333.5Q1637 1302 1620 1248Q1612 1222 1585 1222Q1571 1222 1560.5 1233.0Q1550 1244 1550 1258Q1550 1265 1551 1268Q1561 1306 1582.5 1337.5Q1604 1369 1633.0 1391.5Q1662 1414 1698.0 1426.0Q1734 1438 1774 1438Q1787 1438 1810.0 1435.0Q1833 1432 1855.0 1425.5Q1877 1419 1893.0 1407.5Q1909 1396 1909 1378Q1909 1363 1898.5 1352.5Q1888 1342 1874 1342Q1867 1342 1856.5 1345.5Q1846 1349 1832.5 1353.5Q1819 1358 1804.0 1361.5Q1789 1365 1774 1365Z" style="fill:#402a32;stroke:none" transform="scale(1,-1) translate(0,-256)" /></svg>