<?xml version="1.0" encoding="utf-8" ?>
<svg baseProfile="full" height="256" version="1.1" width="256" xmlns="http://www.w3.org/2000/svg" xmlns:ev="http://www.w3.org/2001/xml-events" xmlns:xlink="http://www.w3.org/1999/xlink"><defs /><path d="M795 108 1262 632Q1280 616 1280 593Q1280 587 1269.0 556.0Q1258 525 1241.5 481.0Q1225 437 1205.0 386.0Q1185 335 1167.0 289.0Q1149 243 1135.0 208.0Q1121 173 1116 161Q1111 148 1111 134Q1111 111 1123.5 91.5Q1136 72 1150.5 50.5Q1165 29 1177.5 0.5Q1190 -28 1190 -69Q1190 -114 1173.5 -153.5Q1157 -193 1128.0 -223.0Q1099 -253 1059.5 -270.0Q1020 -287 975 -287Q930 -287 891.0 -270.0Q852 -253 822.5 -224.0Q793 -195 776.0 -156.0Q759 -117 759 -72Q759 -29 775.5 11.0Q792 51 822 81ZM1696 -235Q1622 -170 1622 -69Q1622 -28 1634.5 0.0Q1647 28 1661.5 50.0Q1676 72 1688.5 91.5Q1701 111 1701 135Q1701 148 1696 161Q1691 173 1677.0 208.0Q1663 243 1644.5 289.0Q1626 335 1606.0 385.5Q1586 436 1569.5 480.0Q1553 524 1542.0 555.0Q1531 586 1531 592Q1531 616 1550 632L2017 108Q1934 23 1854.5 -62.0Q1775 -147 1696 -235Z" style="fill:#e6e6e6;stroke:none" transform="scale(1,-1) translate(0,-256)" /></svg>