<?xml version="1.0" encoding="utf-8" ?>
<svg baseProfile="full" height="256" version="1.1" width="256" xmlns="http://www.w3.org/2000/svg" xmlns:ev="http://www.w3.org/2001/xml-events" xmlns:xlink="http://www.w3.org/1999/xlink"><defs /><path d="M768 135Q738 105 698.0 88.5Q658 72 615 72Q570 72 531.0 89.0Q492 106 463.0 135.0Q434 164 417.0 203.5Q400 243 400 287Q400 330 416.5 370.0Q433 410 463 440L461 436Q461 434 462.5 432.0Q464 430 466 430Q469 430 479.0 433.5Q489 437 503.0 441.5Q517 446 533.0 449.5Q549 453 564 453Q609 453 648.5 436.0Q688 419 717.5 389.5Q747 360 764.0 320.5Q781 281 781 237Q781 222 777.5 205.5Q774 189 769.5 175.0Q765 161 761.5 151.0Q758 141 758 139Q758 137 760.0 135.5Q762 134 764 134Q767 134 768 135ZM2044 135Q2045 134 2048 134Q2050 134 2052.0 135.5Q2054 137 2054 139Q2054 141 2050.5 151.0Q2047 161 2042.5 175.0Q2038 189 2034.5 205.5Q2031 222 2031 237Q2031 281 2048.0 320.5Q2065 360 2094.5 389.5Q2124 419 2163.5 436.0Q2203 453 2248 453Q2263 453 2279.0 449.5Q2295 446 2309.0 441.5Q2323 437 2333.0 433.5Q2343 430 2346 430Q2348 430 2349.5 432.0Q2351 434 2351 436L2349 440Q2379 410 2395.5 370.0Q2412 330 2412 287Q2412 243 2395.0 203.5Q2378 164 2349.0 135.0Q2320 106 2281.0 89.0Q2242 72 2197 72Q2154 72 2114.0 88.5Q2074 105 2044 135ZM1127 -224Q1097 -254 1057.0 -270.5Q1017 -287 974 -287Q929 -287 890.0 -270.0Q851 -253 822.0 -224.0Q793 -195 776.0 -156.0Q759 -117 759 -72Q759 -29 775.5 11.0Q792 51 822 81Q820 79 820 77Q820 75 821.5 73.0Q823 71 825 71Q827 71 833.5 73.5Q840 76 848.0 79.0Q856 82 863.5 84.5Q871 87 876 88Q892 91 910.0 91.5Q928 92 944 92Q984 92 1019.5 73.0Q1055 54 1082.0 23.5Q1109 -7 1124.5 -45.5Q1140 -84 1140 -123Q1140 -138 1136.5 -154.0Q1133 -170 1128.5 -184.0Q1124 -198 1120.5 -208.0Q1117 -218 1117 -221Q1117 -223 1119.0 -224.5Q1121 -226 1123 -226ZM1881 93Q1909 93 1937 88Q1941 87 1949.0 84.5Q1957 82 1964.5 79.0Q1972 76 1978.0 73.5Q1984 71 1986 71Q1988 71 1989.5 73.0Q1991 75 1991 77L1990 81Q2020 51 2036.5 11.0Q2053 -29 2053 -72Q2053 -117 2036.0 -156.0Q2019 -195 1990.0 -224.0Q1961 -253 1921.5 -270.0Q1882 -287 1837 -287Q1795 -287 1755.0 -270.5Q1715 -254 1685 -224Q1687 -226 1689 -226Q1691 -226 1693.0 -224.5Q1695 -223 1695 -221Q1695 -218 1691.5 -208.0Q1688 -198 1683.5 -184.0Q1679 -170 1675.5 -154.0Q1672 -138 1672 -123Q1672 -81 1688.5 -42.0Q1705 -3 1733.5 27.0Q1762 57 1800.0 75.0Q1838 93 1881 93Z" style="fill:#d3d3d3;stroke:none" transform="scale(1,-1) translate(0,-256)" /></svg>