<?xml version="1.0" encoding="utf-8" ?>
<svg baseProfile="full" height="256" version="1.1" width="256" xmlns="http://www.w3.org/2000/svg" xmlns:ev="http://www.w3.org/2001/xml-events" xmlns:xlink="http://www.w3.org/1999/xlink"><defs /><path d="M975 360Q946 360 924.5 381.0Q903 402 903 431Q903 461 924.0 482.0Q945 503 975 503H1118Q1148 503 1169.0 482.0Q1190 461 1190 431Q1190 401 1169.0 380.5Q1148 360 1118 360ZM1693 360Q1664 360 1643.0 381.0Q1622 402 1622 431Q1622 460 1643.0 481.5Q1664 503 1693 503H1837Q1867 503 1888.0 482.0Q1909 461 1909 431Q1909 401 1888.0 380.5Q1867 360 1837 360Z" style="fill:#ffb02e;stroke:none" transform="scale(1,-1) translate(0,-256)" /></svg>