<?xml version="1.0" encoding="utf-8" ?>
<svg baseProfile="full" height="256" version="1.1" width="256" xmlns="http://www.w3.org/2000/svg" xmlns:ev="http://www.w3.org/2001/xml-events" xmlns:xlink="http://www.w3.org/1999/xlink"><defs /><path d="M1909 1280V804Q1909 769 1884.0 744.0Q1859 719 1824 719H988Q953 719 928.0 744.0Q903 769 903 804V1280Q903 1298 909.5 1313.5Q916 1329 927.5 1340.5Q939 1352 954.5 1359.0Q970 1366 988 1366H1824Q1842 1366 1857.5 1359.0Q1873 1352 1884.5 1340.5Q1896 1329 1902.5 1313.5Q1909 1298 1909 1280Z" style="fill:#00a6ed;stroke:none" transform="scale(1,-1) translate(0,-256)" /></svg>