<?xml version="1.0" encoding="utf-8" ?>
<svg baseProfile="full" height="256" version="1.1" width="256" xmlns="http://www.w3.org/2000/svg" xmlns:ev="http://www.w3.org/2001/xml-events" xmlns:xlink="http://www.w3.org/1999/xlink"><defs /><path d="M1905 1510Q1933 1510 1959.5 1499.0Q1986 1488 2007.0 1469.0Q2028 1450 2040.5 1424.0Q2053 1398 2053 1369V792Q2053 747 2036.0 707.5Q2019 668 1989.5 638.5Q1960 609 1920.5 592.0Q1881 575 1836 575H975Q930 575 891.0 592.0Q852 609 822.5 638.5Q793 668 776.0 707.5Q759 747 759 792V1083Q759 1132 759.5 1180.0Q760 1228 760 1277Q760 1301 759.0 1325.5Q758 1350 760 1374Q761 1403 773.5 1428.0Q786 1453 805.5 1471.0Q825 1489 850.5 1499.5Q876 1510 905 1510ZM1298 431H1514Q1529 431 1539.5 441.5Q1550 452 1550 467Q1550 482 1539.5 492.5Q1529 503 1514 503H1298Q1283 503 1272.5 492.5Q1262 482 1262 467Q1262 452 1272.5 441.5Q1283 431 1298 431Z" style="fill:#d3d3d3;stroke:none" transform="scale(1,-1) translate(0,-256)" /></svg>