<?xml version="1.0" encoding="utf-8" ?>
<svg baseProfile="full" height="256" version="1.1" width="256" xmlns="http://www.w3.org/2000/svg" xmlns:ev="http://www.w3.org/2001/xml-events" xmlns:xlink="http://www.w3.org/1999/xlink"><defs /><path d="M1669 415V403Q1669 365 1665.5 328.0Q1662 291 1657 253Q1656 244 1654.0 230.0Q1652 216 1649.5 201.0Q1647 186 1643.5 172.5Q1640 159 1637 152Q1625 128 1607.0 114.0Q1589 100 1568.0 93.0Q1547 86 1523.5 84.0Q1500 82 1476 82H1379Q1348 82 1318.0 85.0Q1288 88 1264.0 100.0Q1240 112 1225.5 135.0Q1211 158 1211 199V1168H1302V784H1654V694H1302V195Q1302 186 1315.0 180.5Q1328 175 1345.5 173.0Q1363 171 1379.0 170.5Q1395 170 1401 170Q1410 170 1429.5 170.0Q1449 170 1469.5 170.5Q1490 171 1507.5 172.5Q1525 174 1531 176Q1539 179 1542.5 182.5Q1546 186 1551 193Q1559 205 1564.0 238.5Q1569 272 1572.0 311.5Q1575 351 1576.5 388.5Q1578 426 1580 444ZM1010 279Q1047 291 1083.0 305.0Q1119 319 1156 331V233L1148 231Q1011 189 879.5 145.0Q748 101 608 65L597 62L570 150Q658 170 744.5 195.0Q831 220 918 247V696H592V787H918V1168H1010Z" style="fill:#007356;stroke:none" transform="scale(1,-1) translate(0,-256)" /></svg>