<?xml version="1.0" encoding="utf-8" ?>
<svg baseProfile="full" height="256" version="1.1" width="256" xmlns="http://www.w3.org/2000/svg" xmlns:ev="http://www.w3.org/2001/xml-events" xmlns:xlink="http://www.w3.org/1999/xlink"><defs /><path d="M400 527V717Q400 700 412.5 687.5Q425 675 442.0 666.5Q459 658 477.5 653.5Q496 649 510 649H1034Q1072 649 1112.0 663.5Q1152 678 1185.0 704.0Q1218 730 1239.0 765.5Q1260 801 1260 842H1262V582Q1213 546 1154.5 525.5Q1096 505 1034 505H510Q451 505 400 527ZM544 -286Q538 -286 525.5 -282.5Q513 -279 507 -277Q458 -258 429.0 -215.5Q400 -173 400 -121V-49H401Q401 -71 413.0 -88.5Q425 -106 443.5 -118.0Q462 -130 484.0 -136.5Q506 -143 525 -143Q545 -143 557.0 -138.0Q569 -133 585 -125Q702 -63 818.0 -2.0Q934 59 1051 122Q1069 132 1086.5 143.5Q1104 155 1121 166Q1149 185 1174.5 204.5Q1200 224 1219.0 248.0Q1238 272 1249.0 300.5Q1260 329 1260 366H1262V90Q1230 64 1194.0 40.5Q1158 17 1121 -3L659 -249Q633 -263 604.0 -274.5Q575 -286 544 -286Z" style="fill:#ff8687;stroke:none" transform="scale(1,-1) translate(0,-256)" /></svg>