<?xml version="1.0" encoding="utf-8" ?>
<svg baseProfile="full" height="256" version="1.1" width="256" xmlns="http://www.w3.org/2000/svg" xmlns:ev="http://www.w3.org/2001/xml-events" xmlns:xlink="http://www.w3.org/1999/xlink"><defs /><path d="M1334 1584Q1319 1584 1308.5 1594.5Q1298 1605 1298 1620Q1298 1635 1308.5 1645.0Q1319 1655 1334 1655H1478Q1493 1655 1503.5 1645.0Q1514 1635 1514 1620Q1514 1605 1503.5 1594.5Q1493 1584 1478 1584ZM1334 1439Q1319 1439 1308.5 1449.5Q1298 1460 1298 1475Q1298 1490 1308.5 1500.5Q1319 1511 1334 1511H1478Q1493 1511 1503.5 1500.5Q1514 1490 1514 1475Q1514 1461 1503.0 1450.0Q1492 1439 1478 1439ZM1478 1295H1334Q1319 1295 1308.5 1305.5Q1298 1316 1298 1331Q1298 1346 1308.5 1356.5Q1319 1367 1334 1367H1478Q1493 1367 1503.5 1356.5Q1514 1346 1514 1331Q1514 1317 1503.0 1306.0Q1492 1295 1478 1295ZM1334 1152Q1319 1152 1308.5 1162.5Q1298 1173 1298 1188Q1298 1203 1308.5 1213.5Q1319 1224 1334 1224H1478Q1493 1224 1503.5 1213.5Q1514 1203 1514 1188Q1514 1173 1503.5 1162.5Q1493 1152 1478 1152Z" style="fill:#f3ad61;stroke:none" transform="scale(1,-1) translate(0,-256)" /></svg>