<?xml version="1.0" encoding="utf-8" ?>
<svg baseProfile="full" height="256" version="1.1" width="256" xmlns="http://www.w3.org/2000/svg" xmlns:ev="http://www.w3.org/2001/xml-events" xmlns:xlink="http://www.w3.org/1999/xlink"><defs /><path d="M974 1512Q1034 1512 1086.0 1489.5Q1138 1467 1177.0 1428.0Q1216 1389 1238.5 1336.5Q1261 1284 1261 1224V900H1262V-26Q1262 -80 1241.5 -127.5Q1221 -175 1185.5 -210.5Q1150 -246 1102.5 -266.5Q1055 -287 1001 -287Q892 -287 783.5 -287.5Q675 -288 566 -288Q531 -288 501.0 -275.0Q471 -262 448.5 -239.0Q426 -216 413.0 -186.0Q400 -156 400 -121V691Q400 847 453.5 987.0Q507 1127 610 1245Q647 1288 683.5 1330.5Q720 1373 758 1415Q799 1461 856.0 1486.5Q913 1512 974 1512ZM1550 1224Q1550 1284 1572.5 1336.5Q1595 1389 1634.0 1428.0Q1673 1467 1725.5 1489.5Q1778 1512 1838 1512Q1899 1512 1956.0 1486.5Q2013 1461 2054 1415Q2092 1373 2128.5 1330.5Q2165 1288 2203 1246Q2253 1189 2292.0 1123.5Q2331 1058 2357.5 987.0Q2384 916 2398.0 841.5Q2412 767 2412 691V-121Q2412 -155 2399.0 -185.5Q2386 -216 2364.0 -238.5Q2342 -261 2311.5 -274.0Q2281 -287 2247 -287Q2243 -287 2239.0 -287.0Q2235 -287 2230 -286V-287H1811Q1757 -287 1709.5 -266.5Q1662 -246 1626.5 -210.5Q1591 -175 1570.5 -127.5Q1550 -80 1550 -26Z" style="fill:#f99ea3;stroke:none" transform="scale(1,-1) translate(0,-256)" /></svg>