<?xml version="1.0" encoding="utf-8" ?>
<svg baseProfile="full" height="256" version="1.1" width="256" xmlns="http://www.w3.org/2000/svg" xmlns:ev="http://www.w3.org/2001/xml-events" xmlns:xlink="http://www.w3.org/1999/xlink"><defs /><path d="M1047 1462 687 1464V1522Q687 1549 697.5 1573.0Q708 1597 725.5 1614.5Q743 1632 767.0 1642.5Q791 1653 818 1653Q831 1653 845 1650L1047 1610ZM922 1150V889H998V503H900Q856 503 817.5 520.0Q779 537 750.0 566.0Q721 595 704.0 633.5Q687 672 687 716V765Q687 780 675.5 794.0Q664 808 650.5 826.5Q637 845 626.0 869.5Q615 894 615 930V1086Q615 1113 634.5 1131.5Q654 1150 680 1150Z" style="fill:#a56953;stroke:none" transform="scale(1,-1) translate(0,-256)" /></svg>