<?xml version="1.0" encoding="utf-8" ?>
<svg baseProfile="full" height="256" version="1.1" width="256" xmlns="http://www.w3.org/2000/svg" xmlns:ev="http://www.w3.org/2001/xml-events" xmlns:xlink="http://www.w3.org/1999/xlink"><defs /><path d="M1215 575H1430L1616 -260V-265Q1616 -274 1609.5 -280.5Q1603 -287 1594 -287H1435Q1422 -287 1412.0 -279.5Q1402 -272 1399 -259ZM2053 484H1883Q1864 484 1861 466L1699 -260V-265Q1699 -274 1705.5 -280.5Q1712 -287 1721 -287H1880Q1893 -287 1903.0 -279.5Q1913 -272 1916 -259Q1919 -247 1927.0 -210.5Q1935 -174 1946.5 -122.5Q1958 -71 1972.0 -9.0Q1986 53 2000.5 116.5Q2015 180 2028.5 240.0Q2042 300 2052.0 348.0Q2062 396 2068.5 426.5Q2075 457 2075 461Q2075 470 2068.5 477.0Q2062 484 2053 484Z" style="fill:#d3883e;stroke:none" transform="scale(1,-1) translate(0,-256)" /></svg>