<?xml version="1.0" encoding="utf-8" ?>
<svg baseProfile="full" height="256" version="1.1" width="256" xmlns="http://www.w3.org/2000/svg" xmlns:ev="http://www.w3.org/2001/xml-events" xmlns:xlink="http://www.w3.org/1999/xlink"><defs /><path d="M1980 1294Q2018 1294 2051.5 1277.0Q2085 1260 2108 1229Q2128 1201 2148.0 1173.0Q2168 1145 2188 1117Q2242 1044 2296.0 972.0Q2350 900 2404 827Q2412 816 2412 802Q2412 784 2399.0 772.0Q2386 760 2368 760Q2351 760 2340 770V-251Q2340 -266 2329.5 -276.5Q2319 -287 2304 -287H2166Q2149 -287 2137.0 -275.0Q2125 -263 2125 -246V52Q2125 63 2122.5 71.5Q2120 80 2115 90Q2095 130 2076.5 166.5Q2058 203 2042.0 239.0Q2026 275 2013.5 313.0Q2001 351 1993 395Q1918 360 1837 360H1262V-251Q1262 -266 1251.5 -276.5Q1241 -287 1226 -287H1083Q1068 -287 1057.5 -276.5Q1047 -266 1047 -251V419Q1047 447 1021 463Q899 538 829.0 652.0Q759 766 759 912V1083Q759 1112 740.0 1131.0Q721 1150 692 1150H480Q447 1150 423.5 1174.0Q400 1198 400 1231V1293Q400 1345 420.0 1391.0Q440 1437 474.0 1471.5Q508 1506 554.0 1526.0Q600 1546 652 1546H955Q963 1546 969.0 1551.5Q975 1557 975 1565Q975 1589 984.0 1617.0Q993 1645 1009.5 1669.0Q1026 1693 1048.5 1709.0Q1071 1725 1098 1725Q1106 1725 1112.0 1719.5Q1118 1714 1118 1706V1021Q1118 1006 1129.5 995.5Q1141 985 1156 985Q1175 985 1186 1001L1349 1229Q1371 1260 1405.0 1277.0Q1439 1294 1477 1294Q1516 1294 1544.5 1278.5Q1573 1263 1595.0 1240.0Q1617 1217 1633.5 1190.5Q1650 1164 1665.0 1141.0Q1680 1118 1695.0 1102.5Q1710 1087 1728 1087Q1746 1087 1761.0 1102.5Q1776 1118 1791.0 1141.0Q1806 1164 1823.0 1190.5Q1840 1217 1862.0 1240.0Q1884 1263 1912.5 1278.5Q1941 1294 1980 1294Z" style="fill:#f3ad61;stroke:none" transform="scale(1,-1) translate(0,-256)" /></svg>