<?xml version="1.0" encoding="utf-8" ?>
<svg baseProfile="full" height="256" version="1.1" width="256" xmlns="http://www.w3.org/2000/svg" xmlns:ev="http://www.w3.org/2001/xml-events" xmlns:xlink="http://www.w3.org/1999/xlink"><defs /><path d="M1047 1330Q1047 1316 1036.0 1305.0Q1025 1294 1011 1294Q960 1294 916.5 1276.0Q873 1258 836 1223Q808 1197 789.5 1167.5Q771 1138 757 1103Q747 1078 723 1078Q708 1078 697.5 1089.0Q687 1100 687 1115Q687 1118 687.5 1120.5Q688 1123 689 1126Q705 1177 737.0 1221.0Q769 1265 812.0 1297.5Q855 1330 906.0 1348.0Q957 1366 1011 1366Q1025 1366 1036.0 1355.0Q1047 1344 1047 1330ZM1406 216Q1363 216 1318.0 205.0Q1273 194 1241 165Q1230 155 1218.0 149.5Q1206 144 1190 144Q1161 144 1139.5 165.0Q1118 186 1118 216Q1118 244 1139 267Q1163 292 1195.0 309.5Q1227 327 1263.0 338.5Q1299 350 1336.0 355.0Q1373 360 1406 360Q1439 360 1476.0 354.5Q1513 349 1548.5 338.0Q1584 327 1616.0 309.5Q1648 292 1672 267Q1693 244 1693 216Q1693 187 1672.0 165.5Q1651 144 1621 144Q1606 144 1594.0 149.5Q1582 155 1571 165Q1539 194 1493.5 205.0Q1448 216 1406 216ZM2089 1078Q2065 1078 2055 1103Q2041 1138 2022.5 1167.5Q2004 1197 1976 1223Q1939 1258 1895.5 1276.0Q1852 1294 1801 1294Q1786 1294 1775.5 1304.5Q1765 1315 1765 1330Q1765 1345 1775.5 1355.5Q1786 1366 1801 1366Q1854 1366 1905.0 1347.5Q1956 1329 1999.5 1297.0Q2043 1265 2075.0 1221.0Q2107 1177 2123 1126Q2124 1123 2124.5 1120.5Q2125 1118 2125 1115Q2125 1100 2114.5 1089.0Q2104 1078 2089 1078ZM1262 791Q1262 746 1245.0 707.0Q1228 668 1199.0 638.5Q1170 609 1131.0 592.0Q1092 575 1047 575Q1002 575 963.0 592.0Q924 609 894.5 638.5Q865 668 848.0 707.0Q831 746 831 791Q831 836 848.0 875.0Q865 914 894.5 943.0Q924 972 963.0 989.0Q1002 1006 1047 1006Q1092 1006 1131.0 989.0Q1170 972 1199.0 943.0Q1228 914 1245.0 875.0Q1262 836 1262 791ZM1981 791Q1981 746 1964.0 707.0Q1947 668 1917.5 638.5Q1888 609 1849.0 592.0Q1810 575 1765 575Q1720 575 1681.0 592.0Q1642 609 1613.0 638.5Q1584 668 1567.0 707.0Q1550 746 1550 791Q1550 836 1567.0 875.0Q1584 914 1613.0 943.0Q1642 972 1681.0 989.0Q1720 1006 1765 1006Q1810 1006 1849.0 989.0Q1888 972 1917.5 943.0Q1947 914 1964.0 875.0Q1981 836 1981 791Z" style="fill:#402a32;stroke:none" transform="scale(1,-1) translate(0,-256)" /></svg>