<?xml version="1.0" encoding="utf-8" ?>
<svg baseProfile="full" height="256" version="1.1" width="256" xmlns="http://www.w3.org/2000/svg" xmlns:ev="http://www.w3.org/2001/xml-events" xmlns:xlink="http://www.w3.org/1999/xlink"><defs /><path d="M2309 -287Q2268 -287 2237 -256L428 1549Q415 1562 407.5 1581.0Q400 1600 400 1618Q400 1666 429.5 1695.5Q459 1725 507 1725Q525 1725 544.0 1717.5Q563 1710 576 1697L2383 -107Q2397 -121 2404.5 -139.5Q2412 -158 2412 -178Q2412 -198 2403.5 -217.5Q2395 -237 2381.0 -252.5Q2367 -268 2348.5 -277.5Q2330 -287 2309 -287Z" style="fill:#f8312f;stroke:none" transform="scale(1,-1) translate(0,-256)" /></svg>