<?xml version="1.0" encoding="utf-8" ?>
<svg baseProfile="full" height="256" version="1.1" width="256" xmlns="http://www.w3.org/2000/svg" xmlns:ev="http://www.w3.org/2001/xml-events" xmlns:xlink="http://www.w3.org/1999/xlink"><defs /><path d="M1336 1184Q1336 1132 1324.0 1081.5Q1312 1031 1289 983L1405 867L1187 644L1067 763Q973 716 867 716Q770 716 685.0 753.0Q600 790 536.5 853.5Q473 917 436.5 1002.5Q400 1088 400 1185Q400 1282 436.5 1367.0Q473 1452 536.5 1515.5Q600 1579 685.0 1616.0Q770 1653 867 1653Q964 1653 1049.5 1616.0Q1135 1579 1198.5 1515.5Q1262 1452 1299.0 1366.5Q1336 1281 1336 1184ZM650 1185Q650 1140 667.0 1100.5Q684 1061 714.0 1031.0Q744 1001 783.5 984.0Q823 967 868 967Q913 967 952.5 984.0Q992 1001 1021.5 1031.0Q1051 1061 1068.0 1100.5Q1085 1140 1085 1185Q1085 1230 1068.0 1269.5Q1051 1309 1021.5 1338.5Q992 1368 952.5 1385.0Q913 1402 868 1402Q823 1402 783.5 1385.0Q744 1368 714.0 1338.5Q684 1309 667.0 1269.5Q650 1230 650 1185ZM1744 763 1626 646 1406 866 1523 984Q1500 1032 1488.0 1082.0Q1476 1132 1476 1185Q1476 1282 1513.0 1367.5Q1550 1453 1613.5 1516.5Q1677 1580 1762.5 1616.5Q1848 1653 1945 1653Q2042 1653 2127.0 1616.0Q2212 1579 2275.5 1515.5Q2339 1452 2375.5 1367.0Q2412 1282 2412 1185Q2412 1088 2375.5 1002.5Q2339 917 2275.5 853.5Q2212 790 2127.0 753.0Q2042 716 1945 716Q1893 716 1842.0 728.0Q1791 740 1744 763ZM1727 1185Q1727 1140 1744.0 1100.5Q1761 1061 1790.5 1031.0Q1820 1001 1859.5 984.0Q1899 967 1944 967Q1989 967 2028.5 984.0Q2068 1001 2098.0 1031.0Q2128 1061 2145.0 1100.5Q2162 1140 2162 1185Q2162 1230 2145.0 1269.5Q2128 1309 2098.0 1338.5Q2068 1368 2028.5 1385.0Q1989 1402 1944 1402Q1899 1402 1859.5 1385.0Q1820 1368 1790.5 1338.5Q1761 1309 1744.0 1269.5Q1727 1230 1727 1185Z" style="fill:#f8312f;stroke:none" transform="scale(1,-1) translate(0,-256)" /></svg>