<?xml version="1.0" encoding="utf-8" ?>
<svg baseProfile="full" height="256" version="1.1" width="256" xmlns="http://www.w3.org/2000/svg" xmlns:ev="http://www.w3.org/2001/xml-events" xmlns:xlink="http://www.w3.org/1999/xlink"><defs /><path d="M1262 868H1405L2139 133Q2174 98 2192.5 52.0Q2211 6 2211 -44Q2211 -82 2202.5 -111.5Q2194 -141 2179.0 -166.5Q2164 -192 2142.5 -215.0Q2121 -238 2095 -263L1187 645L1190 791ZM1481 645Q1481 677 1459.0 699.5Q1437 722 1405 722Q1373 722 1350.5 699.5Q1328 677 1328 645Q1328 613 1350.5 590.5Q1373 568 1405 568Q1437 568 1459.0 590.5Q1481 613 1481 645Z" style="fill:#d3d3d3;stroke:none" transform="scale(1,-1) translate(0,-256)" /></svg>