<?xml version="1.0" encoding="utf-8" ?>
<svg baseProfile="full" height="256" version="1.1" width="256" xmlns="http://www.w3.org/2000/svg" xmlns:ev="http://www.w3.org/2001/xml-events" xmlns:xlink="http://www.w3.org/1999/xlink"><defs /><path d="M1441 1653Q1501 1653 1553.5 1630.5Q1606 1608 1645.0 1569.0Q1684 1530 1706.5 1478.0Q1729 1426 1729 1366Q1729 1306 1706.5 1254.0Q1684 1202 1645.0 1163.0Q1606 1124 1554.0 1101.5Q1502 1079 1442 1079Q1383 1079 1330.5 1101.5Q1278 1124 1239.0 1163.0Q1200 1202 1177.0 1254.5Q1154 1307 1154 1366Q1154 1425 1176.5 1477.5Q1199 1530 1238.0 1569.0Q1277 1608 1329.5 1630.5Q1382 1653 1441 1653ZM1442 1321Q1461 1321 1474.0 1334.0Q1487 1347 1487 1366Q1487 1385 1474.0 1398.0Q1461 1411 1442 1411Q1423 1411 1410.0 1398.0Q1397 1385 1397 1366Q1397 1347 1410.0 1334.0Q1423 1321 1442 1321ZM795 359Q855 359 907.0 336.5Q959 314 998.0 275.0Q1037 236 1059.5 184.0Q1082 132 1082 72Q1082 12 1059.5 -40.0Q1037 -92 998.0 -131.0Q959 -170 907.0 -192.5Q855 -215 795 -215Q735 -215 683.0 -192.5Q631 -170 592.0 -131.0Q553 -92 530.5 -40.0Q508 12 508 72Q508 132 530.5 184.0Q553 236 592.0 275.0Q631 314 683.0 336.5Q735 359 795 359ZM795 27Q814 27 827.0 40.0Q840 53 840 72Q840 91 827.0 104.0Q814 117 795 117Q776 117 763.0 104.0Q750 91 750 72Q750 53 763.0 40.0Q776 27 795 27Z" style="fill:#b4acbc;stroke:none" transform="scale(1,-1) translate(0,-256)" /></svg>