<?xml version="1.0" encoding="utf-8" ?>
<svg baseProfile="full" height="256" version="1.1" width="256" xmlns="http://www.w3.org/2000/svg" xmlns:ev="http://www.w3.org/2001/xml-events" xmlns:xlink="http://www.w3.org/1999/xlink"><defs /><path d="M795 1617Q847 1617 893.0 1597.5Q939 1578 973.0 1544.0Q1007 1510 1026.5 1464.0Q1046 1418 1046 1366Q1046 1314 1026.5 1268.0Q1007 1222 973.0 1188.0Q939 1154 893.5 1134.5Q848 1115 796 1115Q744 1115 698.5 1134.5Q653 1154 618.5 1188.0Q584 1222 564.0 1267.5Q544 1313 544 1365Q544 1417 563.5 1463.0Q583 1509 617.0 1543.0Q651 1577 697.0 1597.0Q743 1617 795 1617ZM796 1150Q841 1150 880.0 1167.0Q919 1184 948.5 1213.5Q978 1243 994.5 1282.5Q1011 1322 1011 1367Q1011 1412 994.0 1451.0Q977 1490 947.5 1519.5Q918 1549 878.5 1565.5Q839 1582 794 1582Q749 1582 710.0 1565.0Q671 1548 641.5 1518.5Q612 1489 595.5 1449.5Q579 1410 579 1365Q579 1320 596.0 1281.0Q613 1242 642.5 1212.5Q672 1183 711.5 1166.5Q751 1150 796 1150ZM897 1425Q902 1425 906.0 1425.5Q910 1426 915 1426Q940 1426 957.5 1408.5Q975 1391 975 1366Q975 1337 955.5 1321.5Q936 1306 910 1306Q907 1306 903.5 1306.0Q900 1306 897 1307L899 1304Q907 1293 911.0 1284.5Q915 1276 915 1262Q915 1238 898.0 1220.0Q881 1202 856 1202Q833 1202 818.0 1215.0Q803 1228 795 1248Q787 1228 772.0 1215.0Q757 1202 734 1202Q708 1202 691.5 1220.0Q675 1238 675 1263Q675 1276 679.0 1284.5Q683 1293 690 1303L693 1307Q690 1307 687.0 1306.5Q684 1306 681 1306Q655 1306 635.0 1321.5Q615 1337 615 1366Q615 1391 632.5 1408.5Q650 1426 675 1426Q680 1426 684.0 1425.5Q688 1425 693 1425Q675 1445 675 1469Q675 1494 692.5 1511.5Q710 1529 735 1529Q757 1529 772.5 1516.0Q788 1503 795 1483Q802 1503 817.5 1516.0Q833 1529 855 1529Q880 1529 897.5 1512.0Q915 1495 915 1470Q915 1456 910.0 1446.0Q905 1436 897 1425ZM874 1348Q879 1348 883.5 1347.5Q888 1347 893 1347Q903 1347 914.0 1350.0Q925 1353 925 1366Q925 1378 915.0 1381.5Q905 1385 894 1385Q888 1385 883.0 1384.5Q878 1384 874 1384Q868 1409 850 1425Q855 1433 862.0 1443.5Q869 1454 869 1463Q869 1471 864.5 1476.0Q860 1481 852 1481Q840 1481 832.5 1468.5Q825 1456 820 1446Q820 1445 819.5 1444.5Q819 1444 819 1443Q808 1447 795 1447Q782 1447 771 1443Q766 1452 760.0 1464.5Q754 1477 741 1477Q724 1477 724 1459Q724 1450 729.5 1441.0Q735 1432 740 1425Q722 1409 716 1384Q711 1384 706.5 1384.5Q702 1385 697 1385Q687 1385 676.0 1382.0Q665 1379 665 1366Q665 1354 675.0 1350.5Q685 1347 696 1347Q702 1347 707.0 1347.5Q712 1348 716 1348Q722 1323 740 1307Q735 1299 728.0 1288.5Q721 1278 721 1269Q721 1251 739 1251Q751 1251 759.0 1265.5Q767 1280 771 1289Q782 1285 795 1285Q808 1285 819 1289Q823 1280 831.0 1265.5Q839 1251 851 1251Q869 1251 869 1269Q869 1278 862.0 1288.5Q855 1299 850 1307Q868 1323 874 1348ZM1441 323Q1493 323 1539.0 303.5Q1585 284 1619.0 250.0Q1653 216 1673.0 170.0Q1693 124 1693 72Q1693 19 1673.5 -26.5Q1654 -72 1620.0 -106.0Q1586 -140 1540.0 -159.5Q1494 -179 1442 -179Q1389 -179 1343.5 -159.5Q1298 -140 1264.0 -106.0Q1230 -72 1210.5 -26.5Q1191 19 1191 72Q1191 124 1210.5 169.5Q1230 215 1264.0 249.0Q1298 283 1343.5 303.0Q1389 323 1441 323ZM1443 -144Q1488 -144 1527.0 -127.0Q1566 -110 1595.5 -80.5Q1625 -51 1641.5 -11.5Q1658 28 1658 73Q1658 118 1641.0 157.0Q1624 196 1594.5 225.5Q1565 255 1525.5 271.5Q1486 288 1441 288Q1396 288 1357.0 271.0Q1318 254 1288.5 224.5Q1259 195 1242.5 155.5Q1226 116 1226 71Q1226 26 1243.0 -13.0Q1260 -52 1289.5 -81.5Q1319 -111 1358.5 -127.5Q1398 -144 1443 -144ZM1544 131Q1549 131 1553.0 131.5Q1557 132 1562 132Q1587 132 1604.5 114.5Q1622 97 1622 72Q1622 47 1604.5 29.5Q1587 12 1562 12Q1557 12 1553.0 12.5Q1549 13 1544 13Q1552 3 1557.0 -7.5Q1562 -18 1562 -31Q1562 -57 1545.0 -74.5Q1528 -92 1502 -92Q1480 -92 1464.5 -78.5Q1449 -65 1442 -45Q1435 -66 1419.5 -79.0Q1404 -92 1381 -92Q1356 -92 1339.0 -74.5Q1322 -57 1322 -32Q1322 -18 1326.0 -9.5Q1330 -1 1338 10L1340 13Q1337 13 1334.0 12.5Q1331 12 1328 12Q1302 12 1282.0 27.5Q1262 43 1262 72Q1262 97 1279.5 114.5Q1297 132 1322 132Q1327 132 1331.0 131.5Q1335 131 1340 131Q1332 142 1327.0 152.0Q1322 162 1322 176Q1322 201 1339.0 218.5Q1356 236 1381 236Q1404 236 1419.5 223.0Q1435 210 1442 189Q1449 209 1464.5 222.5Q1480 236 1502 236Q1528 236 1545.0 218.5Q1562 201 1562 175Q1562 151 1544 131ZM1521 54Q1526 54 1530.5 53.5Q1535 53 1540 53Q1550 53 1561.0 56.0Q1572 59 1572 72Q1572 84 1562.0 87.5Q1552 91 1541 91Q1535 91 1530.0 90.5Q1525 90 1521 90Q1515 115 1497 131Q1502 139 1509.0 149.5Q1516 160 1516 169Q1516 187 1498 187Q1484 187 1478.0 173.0Q1472 159 1466 149Q1455 153 1442 153Q1429 153 1418 149Q1413 158 1407.0 170.5Q1401 183 1388 183Q1370 183 1370 165Q1370 156 1376.0 147.0Q1382 138 1387 131Q1369 115 1363 90Q1358 90 1353.5 90.5Q1349 91 1344 91Q1334 91 1323.0 88.0Q1312 85 1312 72Q1312 60 1322.0 56.5Q1332 53 1343 53Q1349 53 1354.0 53.5Q1359 54 1363 54Q1369 29 1387 13Q1382 5 1375.0 -5.5Q1368 -16 1368 -25Q1368 -43 1386 -43Q1398 -43 1406.0 -28.5Q1414 -14 1418 -5Q1429 -9 1442 -9Q1455 -9 1466 -5Q1472 -15 1478.0 -29.0Q1484 -43 1498 -43Q1516 -43 1516 -25Q1516 -16 1509.0 -5.5Q1502 5 1497 13Q1515 29 1521 54ZM1441 1617Q1493 1617 1539.0 1597.5Q1585 1578 1619.0 1544.0Q1653 1510 1673.0 1464.0Q1693 1418 1693 1366Q1693 1313 1673.5 1267.5Q1654 1222 1620.0 1188.0Q1586 1154 1540.0 1134.5Q1494 1115 1442 1115Q1389 1115 1343.5 1134.5Q1298 1154 1264.0 1188.0Q1230 1222 1210.5 1267.5Q1191 1313 1191 1366Q1191 1418 1210.5 1463.5Q1230 1509 1264.0 1543.0Q1298 1577 1343.5 1597.0Q1389 1617 1441 1617ZM1443 1150Q1488 1150 1527.0 1167.0Q1566 1184 1595.5 1213.5Q1625 1243 1641.5 1282.5Q1658 1322 1658 1367Q1658 1412 1641.0 1451.0Q1624 1490 1594.5 1519.5Q1565 1549 1525.5 1565.5Q1486 1582 1441 1582Q1396 1582 1357.0 1565.0Q1318 1548 1288.5 1518.5Q1259 1489 1242.5 1449.5Q1226 1410 1226 1365Q1226 1320 1243.0 1281.0Q1260 1242 1289.5 1212.5Q1319 1183 1358.5 1166.5Q1398 1150 1443 1150ZM1544 1425Q1549 1425 1553.0 1425.5Q1557 1426 1562 1426Q1587 1426 1604.5 1408.5Q1622 1391 1622 1366Q1622 1337 1602.5 1321.5Q1583 1306 1557 1306Q1554 1306 1550.5 1306.0Q1547 1306 1544 1307Q1552 1296 1557.0 1287.0Q1562 1278 1562 1263Q1562 1237 1545.0 1219.5Q1528 1202 1502 1202Q1480 1202 1464.5 1215.5Q1449 1229 1442 1249Q1435 1228 1419.5 1215.0Q1404 1202 1381 1202Q1356 1202 1339.0 1219.5Q1322 1237 1322 1262Q1322 1286 1340 1307Q1337 1307 1334.0 1306.5Q1331 1306 1328 1306Q1302 1306 1282.0 1321.5Q1262 1337 1262 1366Q1262 1391 1279.5 1408.5Q1297 1426 1322 1426Q1327 1426 1331.0 1425.5Q1335 1425 1340 1425Q1332 1436 1327.0 1446.0Q1322 1456 1322 1470Q1322 1495 1339.0 1512.5Q1356 1530 1381 1530Q1404 1530 1419.5 1517.0Q1435 1504 1442 1483Q1449 1503 1464.5 1516.5Q1480 1530 1502 1530Q1528 1530 1545.0 1512.5Q1562 1495 1562 1469Q1562 1445 1544 1425ZM1521 1348Q1526 1348 1530.5 1347.5Q1535 1347 1540 1347Q1550 1347 1561.0 1350.0Q1572 1353 1572 1366Q1572 1378 1562.0 1381.5Q1552 1385 1541 1385Q1535 1385 1530.0 1384.5Q1525 1384 1521 1384Q1515 1407 1497 1425Q1502 1433 1509.0 1443.5Q1516 1454 1516 1463Q1516 1481 1498 1481Q1484 1481 1478.0 1467.0Q1472 1453 1466 1443Q1455 1447 1442 1447Q1429 1447 1418 1443Q1413 1451 1406.0 1464.0Q1399 1477 1387 1477Q1379 1477 1374.5 1472.0Q1370 1467 1370 1459Q1370 1450 1376.0 1441.0Q1382 1432 1387 1425Q1369 1409 1363 1384Q1358 1384 1353.5 1384.5Q1349 1385 1344 1385Q1334 1385 1323.0 1382.0Q1312 1379 1312 1366Q1312 1354 1322.0 1350.5Q1332 1347 1343 1347Q1349 1347 1354.0 1347.5Q1359 1348 1363 1348Q1369 1323 1387 1307Q1382 1299 1375.0 1288.5Q1368 1278 1368 1269Q1368 1251 1386 1251Q1398 1251 1406.0 1265.5Q1414 1280 1418 1289Q1429 1285 1442 1285Q1455 1285 1466 1289Q1472 1279 1478.0 1265.0Q1484 1251 1498 1251Q1516 1251 1516 1269Q1516 1278 1509.0 1288.5Q1502 1299 1497 1307Q1515 1325 1521 1348ZM1118 970Q1170 970 1216.0 950.5Q1262 931 1296.0 897.0Q1330 863 1350.0 817.0Q1370 771 1370 719Q1370 667 1350.5 621.0Q1331 575 1297.0 541.0Q1263 507 1217.0 487.5Q1171 468 1119 468Q1067 468 1021.0 487.5Q975 507 941.0 541.0Q907 575 887.0 621.0Q867 667 867 719Q867 771 887.0 816.5Q907 862 941.0 896.0Q975 930 1020.5 950.0Q1066 970 1118 970ZM1119 503Q1164 503 1203.0 520.0Q1242 537 1271.5 566.5Q1301 596 1317.5 635.5Q1334 675 1334 720Q1334 765 1317.0 804.0Q1300 843 1270.5 872.0Q1241 901 1202.0 918.0Q1163 935 1118 935Q1073 935 1034.0 918.0Q995 901 965.5 871.5Q936 842 919.5 802.5Q903 763 903 718Q903 673 920.0 634.0Q937 595 966.5 566.0Q996 537 1035.0 520.0Q1074 503 1119 503ZM1220 778Q1225 778 1229.0 778.5Q1233 779 1238 779Q1263 779 1280.5 761.5Q1298 744 1298 719Q1298 690 1278.5 674.5Q1259 659 1233 659Q1230 659 1226.5 659.0Q1223 659 1220 660Q1238 639 1238 615Q1238 591 1221.0 573.0Q1204 555 1179 555Q1153 555 1141.0 568.0Q1129 581 1118 601Q1110 581 1095.5 568.0Q1081 555 1058 555Q1033 555 1016.0 573.0Q999 591 999 615Q999 639 1017 660Q1014 660 1011.0 659.5Q1008 659 1005 659Q979 659 959.0 674.5Q939 690 939 719Q939 744 956.5 761.5Q974 779 999 779Q1004 779 1008.0 778.5Q1012 778 1017 778Q1009 786 1004.0 798.5Q999 811 999 823Q999 847 1016.0 865.0Q1033 883 1058 883Q1082 883 1095.5 869.5Q1109 856 1119 836Q1126 856 1141.5 869.5Q1157 883 1179 883Q1204 883 1221.0 865.0Q1238 847 1238 823Q1238 811 1233.0 798.5Q1228 786 1220 778ZM1197 701Q1203 701 1209.0 700.5Q1215 700 1221 700Q1232 700 1240.5 703.5Q1249 707 1249 719Q1249 731 1241.0 734.5Q1233 738 1222 738Q1215 738 1208.5 737.5Q1202 737 1197 737Q1193 760 1173 778Q1178 786 1185.0 796.5Q1192 807 1192 816Q1192 834 1175 834Q1169 834 1164.0 829.5Q1159 825 1155.0 819.0Q1151 813 1148.0 806.5Q1145 800 1142 796Q1131 800 1118 800Q1104 800 1095 796Q1090 804 1083.0 817.0Q1076 830 1064 830Q1056 830 1051.5 825.0Q1047 820 1047 812Q1047 803 1053.0 794.0Q1059 785 1064 778Q1044 760 1040 737Q1034 737 1028.0 737.5Q1022 738 1016 738Q1005 738 996.5 734.5Q988 731 988 719Q988 707 996.0 703.5Q1004 700 1015 700Q1022 700 1028.5 700.5Q1035 701 1040 701Q1044 678 1064 660Q1059 652 1052.0 641.5Q1045 631 1045 622Q1045 604 1062 604Q1075 604 1082.5 618.5Q1090 633 1095 642Q1104 638 1118 638Q1131 638 1142 642Q1148 632 1154.5 618.0Q1161 604 1175 604Q1192 604 1192 622Q1192 631 1185.0 641.5Q1178 652 1173 660Q1193 678 1197 701ZM795 323Q847 323 893.0 303.5Q939 284 973.0 250.0Q1007 216 1026.5 170.0Q1046 124 1046 72Q1046 19 1026.5 -26.5Q1007 -72 973.0 -106.0Q939 -140 893.0 -159.5Q847 -179 795 -179Q742 -179 696.5 -159.5Q651 -140 617.0 -106.0Q583 -72 563.5 -26.5Q544 19 544 72Q544 124 563.5 170.0Q583 216 617.0 250.0Q651 284 696.5 303.5Q742 323 795 323ZM796 -144Q841 -144 880.0 -127.0Q919 -110 948.5 -80.5Q978 -51 994.5 -11.5Q1011 28 1011 73Q1011 118 994.0 157.0Q977 196 947.5 225.5Q918 255 878.5 271.5Q839 288 794 288Q749 288 710.0 271.0Q671 254 641.5 224.5Q612 195 595.5 155.5Q579 116 579 71Q579 26 596.0 -13.0Q613 -52 642.5 -81.5Q672 -111 711.5 -127.5Q751 -144 796 -144ZM897 131Q900 131 903.0 131.5Q906 132 909 132Q935 132 955.0 116.5Q975 101 975 72Q975 47 957.5 29.5Q940 12 915 12Q910 12 906.0 12.5Q902 13 897 13Q915 -7 915 -31Q915 -56 898.0 -74.0Q881 -92 856 -92Q833 -92 817.5 -79.0Q802 -66 795 -45Q788 -66 772.5 -79.0Q757 -92 734 -92Q709 -92 692.0 -74.5Q675 -57 675 -32Q675 -18 680.0 -8.0Q685 2 693 13Q688 13 684.0 12.5Q680 12 675 12Q650 12 632.5 29.5Q615 47 615 72Q615 97 632.5 114.5Q650 132 675 132Q680 132 684.0 131.5Q688 131 693 131L691 134Q683 145 679.0 153.5Q675 162 675 176Q675 201 692.0 218.5Q709 236 734 236Q757 236 772.5 223.0Q788 210 795 189Q802 210 817.5 223.0Q833 236 856 236Q881 236 898.0 218.0Q915 200 915 175Q915 160 910.0 151.0Q905 142 897 131ZM874 54Q879 54 883.5 53.5Q888 53 893 53Q903 53 914.0 56.0Q925 59 925 72Q925 84 915.0 87.5Q905 91 894 91Q888 91 883.0 90.5Q878 90 874 90Q868 115 850 131Q855 139 862.0 149.5Q869 160 869 169Q869 187 851 187Q839 187 831.0 172.5Q823 158 819 149Q808 153 795 153Q782 153 771 149Q766 158 760.0 170.5Q754 183 741 183Q723 183 723 165Q723 156 729.0 147.0Q735 138 740 131Q722 115 716 90Q711 90 706.5 90.5Q702 91 697 91Q687 91 676.0 88.0Q665 85 665 72Q665 60 675.0 56.5Q685 53 696 53Q702 53 707.0 53.5Q712 54 716 54Q722 29 740 13Q735 5 728.0 -5.5Q721 -16 721 -25Q721 -43 739 -43Q751 -43 759.0 -28.5Q767 -14 771 -5Q782 -9 795 -9Q808 -9 819 -5Q823 -14 831.0 -28.5Q839 -43 851 -43Q869 -43 869 -25Q869 -16 862.0 -5.5Q855 5 850 13Q868 29 874 54Z" style="fill:#1c1c1c;stroke:none" transform="scale(1,-1) translate(0,-256)" /></svg>