<?xml version="1.0" encoding="utf-8" ?>
<svg baseProfile="full" height="256" version="1.1" width="256" xmlns="http://www.w3.org/2000/svg" xmlns:ev="http://www.w3.org/2001/xml-events" xmlns:xlink="http://www.w3.org/1999/xlink"><defs /><path d="M795 1653Q855 1653 907.0 1630.5Q959 1608 998.0 1569.0Q1037 1530 1059.5 1478.0Q1082 1426 1082 1366Q1082 1307 1059.5 1254.5Q1037 1202 998.0 1163.0Q959 1124 906.5 1101.0Q854 1078 795 1078Q736 1078 683.5 1100.5Q631 1123 592.0 1162.0Q553 1201 530.5 1253.5Q508 1306 508 1365Q508 1425 530.5 1477.5Q553 1530 592.0 1569.0Q631 1608 683.0 1630.5Q735 1653 795 1653ZM795 1321Q814 1321 827.0 1334.0Q840 1347 840 1366Q840 1385 827.0 1398.0Q814 1411 795 1411Q776 1411 763.0 1398.0Q750 1385 750 1366Q750 1347 763.0 1334.0Q776 1321 795 1321ZM1441 359Q1501 359 1553.5 336.5Q1606 314 1645.0 275.0Q1684 236 1706.5 184.0Q1729 132 1729 72Q1729 12 1706.5 -40.0Q1684 -92 1645.0 -131.0Q1606 -170 1554.0 -192.5Q1502 -215 1442 -215Q1382 -215 1330.0 -192.5Q1278 -170 1239.0 -131.0Q1200 -92 1177.5 -40.0Q1155 12 1155 72Q1155 131 1177.5 183.5Q1200 236 1239.0 275.0Q1278 314 1330.0 336.5Q1382 359 1441 359ZM1442 27Q1461 27 1474.0 40.0Q1487 53 1487 72Q1487 91 1474.0 104.0Q1461 117 1442 117Q1423 117 1410.0 104.0Q1397 91 1397 72Q1397 53 1410.0 40.0Q1423 27 1442 27Z" style="fill:#007356;stroke:none" transform="scale(1,-1) translate(0,-256)" /></svg>