<?xml version="1.0" encoding="utf-8" ?>
<svg baseProfile="full" height="256" version="1.1" width="256" xmlns="http://www.w3.org/2000/svg" xmlns:ev="http://www.w3.org/2001/xml-events" xmlns:xlink="http://www.w3.org/1999/xlink"><defs /><path d="M1419 556Q1415 594 1396.0 625.5Q1377 657 1347 680Q1321 699 1306.5 720.0Q1292 741 1277.0 760.5Q1262 780 1241.0 795.5Q1220 811 1180 820Q1154 826 1135.0 836.5Q1116 847 1098.0 857.5Q1080 868 1059.0 876.0Q1038 884 1008 884Q998 884 988.5 882.0Q979 880 970 880H967Q946 910 940 946Q960 946 979.0 950.5Q998 955 1018 955Q1083 955 1136 916Q1155 902 1172.5 894.5Q1190 887 1213 882Q1258 872 1282.5 854.0Q1307 836 1324.0 813.5Q1341 791 1357.0 767.5Q1373 744 1402 723Q1437 697 1458.0 661.0Q1479 625 1484 581Q1485 575 1485.5 568.5Q1486 562 1488 556Q1471 553 1453 553Q1435 553 1419 556Z" style="fill:#402a32;stroke:none" transform="scale(1,-1) translate(0,-256)" /></svg>