<?xml version="1.0" encoding="utf-8" ?>
<svg baseProfile="full" height="256" version="1.1" width="256" xmlns="http://www.w3.org/2000/svg" xmlns:ev="http://www.w3.org/2001/xml-events" xmlns:xlink="http://www.w3.org/1999/xlink"><defs /><path d="M875 769Q914 769 945 746Q956 738 966.0 733.5Q976 729 990 726Q1016 720 1030.5 709.5Q1045 699 1054.5 686.0Q1064 673 1073.5 658.5Q1083 644 1100 632Q1122 615 1131.0 600.0Q1140 585 1144.0 570.0Q1148 555 1150.5 538.5Q1153 522 1164 502Q1180 472 1180 442Q1180 424 1174 406Q1169 389 1169.5 375.5Q1170 362 1170 345Q1170 321 1164.0 305.5Q1158 290 1149.0 278.0Q1140 266 1130.5 253.5Q1121 241 1115 222Q1107 196 1090.5 179.0Q1074 162 1050 151Q1030 142 1018.0 130.0Q1006 118 994.0 107.5Q982 97 965.5 90.0Q949 83 922 83Q896 83 873.5 72.5Q851 62 826 62Q802 62 778 73Q757 83 730 83Q704 83 681.5 93.5Q659 104 642 122Q625 140 602 151Q577 163 565.0 175.5Q553 188 546.0 202.5Q539 217 533.0 232.5Q527 248 513 265Q499 282 490.5 300.5Q482 319 482 343Q482 349 483.0 355.5Q484 362 484 369Q484 388 478.0 405.5Q472 423 472 442Q472 457 476.5 470.5Q481 484 486.0 496.5Q491 509 496.0 521.5Q501 534 503 549Q505 574 518.0 595.5Q531 617 551 632Q568 644 577.5 658.5Q587 673 597.5 686.0Q608 699 622.0 709.5Q636 720 662 726Q676 729 686.0 733.5Q696 738 707 746Q722 757 739.5 763.0Q757 769 776 769Q789 769 801.0 766.0Q813 763 826 763Q839 763 850.5 766.0Q862 769 875 769Z" style="fill:#c3ef3c;stroke:none" transform="scale(1,-1) translate(0,-256)" /></svg>