<?xml version="1.0" encoding="utf-8" ?>
<svg baseProfile="full" height="256" version="1.1" width="256" xmlns="http://www.w3.org/2000/svg" xmlns:ev="http://www.w3.org/2001/xml-events" xmlns:xlink="http://www.w3.org/1999/xlink"><defs /><path d="M2018 879Q2001 847 1979.0 820.5Q1957 794 1944 759Q1928 714 1907.5 691.5Q1887 669 1864.0 655.0Q1841 641 1816.0 628.0Q1791 615 1767 588Q1738 556 1699.0 539.0Q1660 522 1618 522Q1587 522 1554 511Q1583 461 1583 403Q1583 368 1572.0 335.5Q1561 303 1561 269Q1561 257 1562.0 245.5Q1563 234 1563 222Q1563 180 1553.0 154.0Q1543 128 1529.0 107.5Q1515 87 1498.5 67.5Q1482 48 1470 18Q1461 29 1454.5 42.0Q1448 55 1443 69Q1433 97 1419.0 116.0Q1405 135 1392.0 153.5Q1379 172 1369.5 195.0Q1360 218 1360 254Q1360 263 1361.0 272.5Q1362 282 1362 291Q1362 320 1353.5 345.5Q1345 371 1345 400Q1345 447 1369 489Q1387 520 1392 560Q1397 602 1410.5 625.0Q1424 648 1441.5 664.5Q1459 681 1478.0 697.0Q1497 713 1514 742Q1534 776 1563.5 797.0Q1593 818 1631 826Q1651 831 1667.0 838.5Q1683 846 1699 857Q1747 891 1804 891Q1823 891 1841.0 887.0Q1859 883 1878 883Q1898 883 1915.5 887.0Q1933 891 1953 891Q1986 891 2018 879Z" style="fill:#212121;stroke:none" transform="scale(1,-1) translate(0,-256)" /></svg>