<?xml version="1.0" encoding="utf-8" ?>
<svg baseProfile="full" height="256" version="1.1" width="256" xmlns="http://www.w3.org/2000/svg" xmlns:ev="http://www.w3.org/2001/xml-events" xmlns:xlink="http://www.w3.org/1999/xlink"><defs /><path d="M560 1439Q560 1467 580.0 1487.0Q600 1507 628 1507Q652 1507 670 1492L1351 935V741L631 1156Q598 1175 579.0 1208.5Q560 1242 560 1280ZM2268 1439V1280Q2268 1242 2249.0 1208.5Q2230 1175 2197 1156L1478 741V935L2158 1492Q2176 1507 2200 1507Q2228 1507 2248.0 1487.0Q2268 1467 2268 1439ZM1187 467Q1205 467 1220.5 460.5Q1236 454 1247.5 442.5Q1259 431 1266.0 415.5Q1273 400 1273 382Q1273 365 1267 350L1202 195Q1197 183 1186.0 175.5Q1175 168 1161 168Q1143 168 1130 181L918 393Q905 406 905 424Q905 442 918.0 454.5Q931 467 949 467ZM508 144Q508 189 521.0 233.0Q534 277 557.5 315.0Q581 353 614.5 384.0Q648 415 689 434Q699 439 708.0 441.5Q717 444 728 444Q764 444 791 417L1104 105Q1130 79 1130 42Q1130 20 1122 4Q1123 3 1121.5 2.5Q1120 2 1121 1Q1079 -83 1002.5 -131.0Q926 -179 832 -179Q764 -179 705.0 -154.0Q646 -129 602.0 -85.5Q558 -42 533.0 17.0Q508 76 508 144ZM733 -72Q757 -72 778.5 -63.0Q800 -54 816.0 -38.0Q832 -22 841.5 -0.5Q851 21 851 45Q851 69 841.5 90.5Q832 112 816.0 128.0Q800 144 778.5 153.5Q757 163 733 163Q709 163 687.5 153.5Q666 144 650.0 128.0Q634 112 624.5 90.5Q615 69 615 45Q615 21 624.5 -0.5Q634 -22 650.0 -38.0Q666 -54 687.5 -63.0Q709 -72 733 -72ZM1627 467H1866Q1884 467 1897.0 454.0Q1910 441 1910 423Q1910 406 1897 393L1685 181Q1672 168 1654 168Q1640 168 1629.0 175.5Q1618 183 1613 195L1548 350Q1542 365 1542 382Q1542 417 1567.0 442.0Q1592 467 1627 467ZM2307 144Q2307 76 2282.0 17.0Q2257 -42 2213.0 -85.5Q2169 -129 2109.5 -154.0Q2050 -179 1982 -179Q1883 -179 1812.0 -131.0Q1741 -83 1694 1Q1694 2 1693.5 2.0Q1693 2 1693 3Q1685 19 1685 41Q1685 78 1711 104L2023 417Q2050 444 2087 444Q2098 444 2107.0 441.5Q2116 439 2126 434Q2167 415 2200.5 384.0Q2234 353 2257.5 315.0Q2281 277 2294.0 233.0Q2307 189 2307 144ZM2082 -63Q2106 -63 2127.5 -53.5Q2149 -44 2165.0 -28.0Q2181 -12 2190.0 9.5Q2199 31 2199 55Q2199 79 2190.0 100.5Q2181 122 2165.0 138.0Q2149 154 2127.5 163.5Q2106 173 2082 173Q2058 173 2036.5 163.5Q2015 154 1999.0 138.0Q1983 122 1973.5 100.5Q1964 79 1964 55Q1964 31 1973.5 9.5Q1983 -12 1999.0 -28.0Q2015 -44 2036.5 -53.5Q2058 -63 2082 -63Z" style="fill:#ff6723;stroke:none" transform="scale(1,-1) translate(0,-256)" /></svg>