<?xml version="1.0" encoding="utf-8" ?>
<svg baseProfile="full" height="256" version="1.1" width="256" xmlns="http://www.w3.org/2000/svg" xmlns:ev="http://www.w3.org/2001/xml-events" xmlns:xlink="http://www.w3.org/1999/xlink"><defs /><path d="M1472 1094Q1492 1079 1503.0 1057.5Q1514 1036 1514 1011V248Q1514 227 1506.0 208.0Q1498 189 1483.5 174.5Q1469 160 1450.0 152.0Q1431 144 1410 144Q1387 144 1366.5 151.0Q1346 158 1330.5 171.5Q1315 185 1306.0 204.5Q1297 224 1297 248V1011Q1297 1036 1308.5 1058.5Q1320 1081 1340 1095Q1305 1113 1283.5 1147.5Q1262 1182 1262 1222Q1262 1252 1273.5 1278.0Q1285 1304 1304.5 1323.5Q1324 1343 1350.0 1354.5Q1376 1366 1406 1366Q1436 1366 1462.0 1354.5Q1488 1343 1507.5 1323.5Q1527 1304 1538.5 1278.0Q1550 1252 1550 1222Q1550 1181 1529.0 1147.0Q1508 1113 1472 1094Z" style="fill:#321b41;stroke:none" transform="scale(1,-1) translate(0,-256)" /></svg>