<?xml version="1.0" encoding="utf-8" ?>
<svg baseProfile="full" height="256" version="1.1" width="256" xmlns="http://www.w3.org/2000/svg" xmlns:ev="http://www.w3.org/2001/xml-events" xmlns:xlink="http://www.w3.org/1999/xlink"><defs /><path d="M1183 1725Q1200 1725 1212 1711Q1256 1660 1290.5 1595.5Q1325 1531 1350.0 1460.5Q1375 1390 1389.0 1318.0Q1403 1246 1406 1179Q1409 1246 1423.0 1318.0Q1437 1390 1461.5 1460.0Q1486 1530 1521.0 1594.5Q1556 1659 1600 1711Q1612 1725 1628 1725Q1643 1725 1653.5 1714.5Q1664 1704 1664 1689Q1664 1678 1656 1667Q1569 1546 1523.0 1419.0Q1477 1292 1477 1142Q1477 1127 1466.5 1116.5Q1456 1106 1441 1106Q1428 1106 1418.0 1114.5Q1408 1123 1406 1135Q1404 1123 1394.0 1114.5Q1384 1106 1371 1106Q1356 1106 1345.5 1116.5Q1335 1127 1335 1142Q1335 1257 1305.0 1368.0Q1275 1479 1215 1579Q1201 1602 1186.0 1623.5Q1171 1645 1155 1667Q1148 1675 1148 1689Q1148 1703 1158.5 1714.0Q1169 1725 1183 1725Z" style="fill:#212121;stroke:none" transform="scale(1,-1) translate(0,-256)" /></svg>