<?xml version="1.0" encoding="utf-8" ?>
<svg baseProfile="full" height="256" version="1.1" width="256" xmlns="http://www.w3.org/2000/svg" xmlns:ev="http://www.w3.org/2001/xml-events" xmlns:xlink="http://www.w3.org/1999/xlink"><defs /><path d="M619 1071Q634 1071 648 1063L990 866Q1012 853 1012 827Q1012 808 999 795L901 697Q877 673 846.0 660.0Q815 647 781 647Q735 647 695.0 664.5Q655 682 625.0 712.0Q595 742 577.5 782.0Q560 822 560 868V1012Q560 1036 577.5 1053.5Q595 1071 619 1071ZM2210 1071Q2234 1071 2251.0 1053.5Q2268 1036 2268 1012V868Q2268 822 2250.5 782.0Q2233 742 2203.0 712.0Q2173 682 2133.0 664.5Q2093 647 2047 647Q1978 647 1928 697L1829 795Q1816 808 1816 826Q1816 838 1822.0 849.0Q1828 860 1839 866L2181 1063Q2195 1071 2210 1071ZM1478 658 1677 773Q1692 782 1711 782Q1726 782 1738.0 776.5Q1750 771 1761 761Q1767 755 1778.5 745.0Q1790 735 1801.0 724.0Q1812 713 1820.0 702.0Q1828 691 1828 681Q1828 667 1818.5 657.0Q1809 647 1795 647H1478ZM1351 658V647H1034Q1020 647 1010.0 657.0Q1000 667 1000 681Q1000 690 1008.0 701.5Q1016 713 1027.5 724.5Q1039 736 1050.0 745.5Q1061 755 1067 761Q1088 782 1117 782Q1137 782 1152 773Z" style="fill:#ff822d;stroke:none" transform="scale(1,-1) translate(0,-256)" /></svg>