<?xml version="1.0" encoding="utf-8" ?>
<svg baseProfile="full" height="256" version="1.1" width="256" xmlns="http://www.w3.org/2000/svg" xmlns:ev="http://www.w3.org/2001/xml-events" xmlns:xlink="http://www.w3.org/1999/xlink"><defs /><path d="M2233 1725Q2270 1725 2302.5 1711.0Q2335 1697 2359.5 1672.5Q2384 1648 2398.0 1615.5Q2412 1583 2412 1546V845Q2412 789 2391.0 740.0Q2370 691 2333.0 654.5Q2296 618 2247.0 596.5Q2198 575 2143 575H1981Q2070 575 2148.5 541.0Q2227 507 2285.5 448.5Q2344 390 2378.0 311.5Q2412 233 2412 144Q2412 55 2378.0 -23.5Q2344 -102 2285.5 -160.5Q2227 -219 2148.5 -253.0Q2070 -287 1981 -287Q1919 -287 1861.0 -270.5Q1803 -254 1753.0 -222.5Q1703 -191 1662.5 -147.0Q1622 -103 1594 -47Q1588 -35 1583.0 -22.5Q1578 -10 1573 3L1406 403L1238 3Q1233 -10 1228.5 -22.0Q1224 -34 1218 -47Q1190 -103 1149.5 -147.0Q1109 -191 1059.0 -222.5Q1009 -254 951.0 -270.5Q893 -287 831 -287Q742 -287 663.5 -253.0Q585 -219 526.5 -160.5Q468 -102 434.0 -23.5Q400 55 400 144Q400 233 434.0 311.5Q468 390 526.5 448.5Q585 507 663.5 541.0Q742 575 831 575H669Q613 575 564.0 596.0Q515 617 478.5 654.0Q442 691 421.0 740.0Q400 789 400 845V1546Q400 1583 414.0 1615.5Q428 1648 452.5 1672.5Q477 1697 509.5 1711.0Q542 1725 579 1725Q646 1725 697 1682L1406 1078L2115 1682Q2166 1725 2233 1725Z" style="fill:#533566;stroke:none" transform="scale(1,-1) translate(0,-256)" /></svg>