<?xml version="1.0" encoding="utf-8" ?>
<svg baseProfile="full" height="256" version="1.1" width="256" xmlns="http://www.w3.org/2000/svg" xmlns:ev="http://www.w3.org/2001/xml-events" xmlns:xlink="http://www.w3.org/1999/xlink"><defs /><path d="M1075 759Q1075 782 1086.0 801.5Q1097 821 1117 833L1337 964Q1369 983 1403 983Q1438 983 1470 964L1690 833Q1710 821 1721.0 801.5Q1732 782 1732 759Q1732 736 1721.0 716.5Q1710 697 1690 686L1470 556Q1440 538 1403 538Q1367 538 1337 556L1117 686Q1097 697 1086.0 716.5Q1075 736 1075 759Z" style="fill:#fcd53f;stroke:none" transform="scale(1,-1) translate(0,-256)" /></svg>