<?xml version="1.0" encoding="utf-8" ?>
<svg baseProfile="full" height="256" version="1.1" width="256" xmlns="http://www.w3.org/2000/svg" xmlns:ev="http://www.w3.org/2001/xml-events" xmlns:xlink="http://www.w3.org/1999/xlink"><defs /><path d="M505 646Q505 687 525.5 722.0Q546 757 581 778L1267 1185Q1330 1222 1403 1222Q1477 1222 1540 1185L2226 778Q2261 757 2281.5 722.5Q2302 688 2302 646Q2302 605 2281.5 570.0Q2261 535 2226 514L1540 107Q1477 70 1403 70Q1330 70 1267 107L581 514Q546 535 525.5 569.5Q505 604 505 646Z" style="fill:#f3c07b;stroke:none" transform="scale(1,-1) translate(0,-256)" /></svg>