<?xml version="1.0" encoding="utf-8" ?>
<svg baseProfile="full" height="256" version="1.1" width="256" xmlns="http://www.w3.org/2000/svg" xmlns:ev="http://www.w3.org/2001/xml-events" xmlns:xlink="http://www.w3.org/1999/xlink"><defs /><path d="M776 826Q941 822 1104.5 820.0Q1268 818 1433 818Q1583 818 1732.0 820.0Q1881 822 2031 826H2040Q2111 826 2177.5 798.5Q2244 771 2295.0 723.5Q2346 676 2377.0 612.0Q2408 548 2408 475Q2408 439 2398.5 402.5Q2389 366 2372.0 333.5Q2355 301 2329.5 274.0Q2304 247 2273 228L1651 -147Q1595 -181 1532.0 -198.0Q1469 -215 1403 -215Q1338 -215 1275.0 -198.0Q1212 -181 1156 -147L534 228Q502 247 477.5 274.0Q453 301 435.5 333.5Q418 366 409.0 402.0Q400 438 400 474Q400 547 431.0 611.5Q462 676 513.0 723.5Q564 771 630.5 798.5Q697 826 769 826Z" style="fill:#d3883e;stroke:none" transform="scale(1,-1) translate(0,-256)" /></svg>