<?xml version="1.0" encoding="utf-8" ?>
<svg baseProfile="full" height="256" version="1.1" width="256" xmlns="http://www.w3.org/2000/svg" xmlns:ev="http://www.w3.org/2001/xml-events" xmlns:xlink="http://www.w3.org/1999/xlink"><defs /><path d="M2233 1725Q2247 1725 2257.5 1714.0Q2268 1703 2268 1689V1438H2053V1689Q2053 1704 2063.5 1714.5Q2074 1725 2089 1725ZM1048 431H1405Q1434 431 1456.0 410.5Q1478 390 1478 360Q1478 330 1456.5 309.0Q1435 288 1405 288H1048Q1018 288 996.5 309.0Q975 330 975 360Q975 390 997.0 410.5Q1019 431 1048 431Z" style="fill:#533566;stroke:none" transform="scale(1,-1) translate(0,-256)" /></svg>