<?xml version="1.0" encoding="utf-8" ?>
<svg baseProfile="full" height="256" version="1.1" width="256" xmlns="http://www.w3.org/2000/svg" xmlns:ev="http://www.w3.org/2001/xml-events" xmlns:xlink="http://www.w3.org/1999/xlink"><defs /><path d="M885 755Q814 755 752.0 781.5Q690 808 643.5 854.5Q597 901 570.0 963.0Q543 1025 543 1096Q543 1167 570.0 1229.5Q597 1292 643.5 1338.5Q690 1385 753.0 1411.5Q816 1438 887 1438H1567Q1638 1438 1700.0 1411.0Q1762 1384 1808.5 1337.5Q1855 1291 1882.0 1229.0Q1909 1167 1909 1096Q1909 1025 1882.0 963.0Q1855 901 1808.5 854.5Q1762 808 1699.5 781.5Q1637 755 1567 755Q1504 755 1456.0 788.0Q1408 821 1383 878Q1367 912 1352 949V950Q1335 988 1301.5 1010.5Q1268 1033 1226 1033Q1188 1033 1163.5 1019.5Q1139 1006 1122.5 984.0Q1106 962 1094.0 934.0Q1082 906 1070 878Q1045 821 996.5 788.0Q948 755 885 755Z" style="fill:#83cbff;stroke:none" transform="scale(1,-1) translate(0,-256)" /></svg>