<?xml version="1.0" encoding="utf-8" ?>
<svg baseProfile="full" height="256" version="1.1" width="256" xmlns="http://www.w3.org/2000/svg" xmlns:ev="http://www.w3.org/2001/xml-events" xmlns:xlink="http://www.w3.org/1999/xlink"><defs /><path d="M1863 1096Q1863 1157 1839.5 1211.5Q1816 1266 1776.0 1306.5Q1736 1347 1681.5 1370.5Q1627 1394 1566 1394H885Q823 1394 769.0 1370.5Q715 1347 675.0 1306.5Q635 1266 611.5 1211.5Q588 1157 588 1096Q588 1034 611.5 980.0Q635 926 675.0 886.0Q715 846 769.0 822.5Q823 799 885 799Q927 799 954.0 813.0Q981 827 999.5 850.5Q1018 874 1031.5 903.5Q1045 933 1059 965Q1082 1017 1125.5 1046.5Q1169 1076 1226 1076Q1282 1076 1326.0 1046.0Q1370 1016 1393 965Q1407 933 1420.0 903.0Q1433 873 1451.5 850.0Q1470 827 1497.0 813.0Q1524 799 1566 799Q1627 799 1681.5 822.5Q1736 846 1776.0 886.0Q1816 926 1839.5 980.0Q1863 1034 1863 1096ZM885 1510H1566Q1651 1510 1727.0 1477.5Q1803 1445 1859.0 1389.0Q1915 1333 1948.0 1257.5Q1981 1182 1981 1096Q1981 1010 1948.5 935.0Q1916 860 1859.5 804.0Q1803 748 1727.5 715.5Q1652 683 1567 683Q1482 683 1416.5 728.5Q1351 774 1317 850Q1309 867 1301.5 885.5Q1294 904 1286 921Q1277 939 1262.0 950.0Q1247 961 1226 961Q1205 961 1190.0 950.0Q1175 939 1166 921Q1158 904 1151.0 885.5Q1144 867 1136 850Q1103 773 1036.5 728.0Q970 683 885 683Q799 683 724.0 715.5Q649 748 593.0 804.0Q537 860 504.5 935.0Q472 1010 472 1096Q472 1182 504.5 1257.5Q537 1333 593.0 1389.0Q649 1445 724.0 1477.5Q799 1510 885 1510ZM2268 1438 2233 1474H2089L2053 1438V288Q2053 266 2049.5 241.5Q2046 217 2039.5 192.5Q2033 168 2024.5 144.5Q2016 121 2006 102Q1958 7 1877.0 -32.5Q1796 -72 1693 -72Q1590 -72 1509.5 -32.5Q1429 7 1381 102Q1372 121 1363.5 144.5Q1355 168 1348.5 192.5Q1342 217 1338.0 242.0Q1334 267 1334 288Q1334 310 1325.5 329.5Q1317 349 1302.0 364.0Q1287 379 1267.5 387.5Q1248 396 1226 396Q1203 396 1183.5 387.5Q1164 379 1149.5 364.0Q1135 349 1126.5 329.0Q1118 309 1118 287Q1118 252 1123.0 215.5Q1128 179 1137.5 142.5Q1147 106 1160.0 71.5Q1173 37 1188 6Q1225 -69 1278.0 -124.0Q1331 -179 1396.0 -215.5Q1461 -252 1536.0 -269.5Q1611 -287 1693 -287Q1775 -287 1850.5 -269.5Q1926 -252 1991.0 -215.5Q2056 -179 2109.0 -124.0Q2162 -69 2199 6Q2214 35 2226.5 69.0Q2239 103 2248.0 139.0Q2257 175 2262.5 210.5Q2268 246 2268 279Z" style="fill:#f8312f;stroke:none" transform="scale(1,-1) translate(0,-256)" /></svg>