<?xml version="1.0" encoding="utf-8" ?>
<svg baseProfile="full" height="256" version="1.1" width="256" xmlns="http://www.w3.org/2000/svg" xmlns:ev="http://www.w3.org/2001/xml-events" xmlns:xlink="http://www.w3.org/1999/xlink"><defs /><path d="M1057 757Q1082 777 1098.0 800.5Q1114 824 1127 853Q1135 871 1142.5 891.5Q1150 912 1161.0 929.0Q1172 946 1188.0 957.5Q1204 969 1228 969Q1250 969 1265.5 957.0Q1281 945 1292.0 927.0Q1303 909 1310.5 889.0Q1318 869 1326 853Q1340 824 1356.0 799.0Q1372 774 1397 753L1406 736Q1403 702 1387.5 672.5Q1372 643 1348.0 621.5Q1324 600 1293.0 587.5Q1262 575 1228 575Q1193 575 1162.0 587.5Q1131 600 1107.0 622.0Q1083 644 1067.5 673.5Q1052 703 1049 738Z" style="fill:#533566;stroke:none" transform="scale(1,-1) translate(0,-256)" /></svg>