<?xml version="1.0" encoding="utf-8" ?>
<svg baseProfile="full" height="256" version="1.1" width="256" xmlns="http://www.w3.org/2000/svg" xmlns:ev="http://www.w3.org/2001/xml-events" xmlns:xlink="http://www.w3.org/1999/xlink"><defs /><path d="M1172 1197Q1172 1156 1146.5 1131.0Q1121 1106 1080 1106Q1050 1106 1020.5 1120.0Q991 1134 968.5 1156.5Q946 1179 932.0 1208.5Q918 1238 918 1268Q918 1309 943.5 1334.0Q969 1359 1009 1359Q1040 1359 1069.0 1345.0Q1098 1331 1121.0 1308.5Q1144 1286 1158.0 1257.0Q1172 1228 1172 1197ZM2322 1197Q2322 1156 2296.5 1131.0Q2271 1106 2230 1106Q2200 1106 2170.5 1120.0Q2141 1134 2118.5 1156.5Q2096 1179 2082.0 1208.5Q2068 1238 2068 1268Q2068 1309 2093.5 1334.0Q2119 1359 2159 1359Q2190 1359 2219.0 1345.0Q2248 1331 2271.0 1308.5Q2294 1286 2308.0 1257.0Q2322 1228 2322 1197Z" style="fill:#ffffff;stroke:none" transform="scale(1,-1) translate(0,-256)" /></svg>