<?xml version="1.0" encoding="utf-8" ?>
<svg baseProfile="full" height="256" version="1.1" width="256" xmlns="http://www.w3.org/2000/svg" xmlns:ev="http://www.w3.org/2001/xml-events" xmlns:xlink="http://www.w3.org/1999/xlink"><defs /><path d="M1047 1510Q1113 1510 1158.0 1487.5Q1203 1465 1234.5 1438.0Q1266 1411 1289.0 1388.5Q1312 1366 1334 1366H1459Q1483 1366 1505.0 1388.5Q1527 1411 1556.0 1438.0Q1585 1465 1626.0 1487.5Q1667 1510 1729 1510H2233Q2285 1510 2330.5 1490.0Q2376 1470 2410.0 1435.5Q2444 1401 2464.0 1355.5Q2484 1310 2484 1258V1174Q2484 1102 2464.5 1035.0Q2445 968 2409.0 909.5Q2373 851 2321.5 804.0Q2270 757 2206 724Q2173 707 2144.0 693.0Q2115 679 2085.5 668.5Q2056 658 2024.0 652.5Q1992 647 1954 647Q1853 647 1766.5 689.0Q1680 731 1615.5 801.0Q1551 871 1514.5 962.0Q1478 1053 1478 1150Q1478 1180 1457.0 1201.0Q1436 1222 1406 1222Q1376 1222 1355.0 1201.0Q1334 1180 1334 1150Q1334 1085 1317.5 1022.5Q1301 960 1270.5 904.5Q1240 849 1196.5 801.5Q1153 754 1100.5 720.0Q1048 686 986.5 666.5Q925 647 858 647Q820 647 788.0 652.5Q756 658 726.5 668.5Q697 679 668.0 693.0Q639 707 606 724Q542 757 490.5 804.0Q439 851 403.0 909.0Q367 967 347.5 1034.5Q328 1102 328 1174V1222Q328 1281 350.5 1333.5Q373 1386 412.0 1425.0Q451 1464 503.5 1487.0Q556 1510 615 1510ZM615 1438Q570 1438 531.0 1421.0Q492 1404 463.0 1374.5Q434 1345 417.0 1306.0Q400 1267 400 1222V1174Q400 1112 416.5 1054.5Q433 997 464.0 947.0Q495 897 539.0 856.5Q583 816 638 788Q667 773 692.0 760.5Q717 748 742.5 739.0Q768 730 796.0 724.5Q824 719 857 719Q941 719 1015.0 755.0Q1089 791 1144.0 850.5Q1199 910 1230.5 987.0Q1262 1064 1262 1145V1222Q1262 1267 1245.0 1306.0Q1228 1345 1199.0 1374.5Q1170 1404 1131.0 1421.0Q1092 1438 1047 1438ZM1550 1145Q1550 1064 1581.5 987.0Q1613 910 1668.0 850.5Q1723 791 1796.5 755.0Q1870 719 1954 719Q1988 719 2015.5 724.5Q2043 730 2068.5 739.0Q2094 748 2119.5 760.5Q2145 773 2174 788Q2229 816 2273.0 856.5Q2317 897 2348.0 947.0Q2379 997 2395.5 1054.5Q2412 1112 2412 1174V1258Q2412 1295 2398.0 1328.0Q2384 1361 2359.5 1385.5Q2335 1410 2302.5 1424.0Q2270 1438 2233 1438H1729Q1692 1438 1659.5 1424.0Q1627 1410 1602.5 1385.5Q1578 1361 1564.0 1328.0Q1550 1295 1550 1258Z" style="fill:#8d65c5;stroke:none" transform="scale(1,-1) translate(0,-256)" /></svg>