<?xml version="1.0" encoding="utf-8" ?>
<svg baseProfile="full" height="256" version="1.1" width="256" xmlns="http://www.w3.org/2000/svg" xmlns:ev="http://www.w3.org/2001/xml-events" xmlns:xlink="http://www.w3.org/1999/xlink"><defs /><path d="M1047 1510Q1106 1510 1158.5 1487.0Q1211 1464 1250.0 1425.0Q1289 1386 1311.5 1333.5Q1334 1281 1334 1222V1145Q1334 1049 1296.5 959.0Q1259 869 1194.5 799.5Q1130 730 1043.5 688.5Q957 647 858 647Q820 647 788.0 652.5Q756 658 726.5 668.5Q697 679 668.0 693.0Q639 707 606 724Q542 757 490.5 804.0Q439 851 403.0 909.0Q367 967 347.5 1034.0Q328 1101 328 1174V1222Q328 1281 350.5 1333.5Q373 1386 412.0 1425.0Q451 1464 503.5 1487.0Q556 1510 615 1510ZM1729 1510H2233Q2285 1510 2330.5 1490.0Q2376 1470 2410.0 1435.5Q2444 1401 2464.0 1355.5Q2484 1310 2484 1258V1174Q2484 1102 2464.5 1035.0Q2445 968 2409.0 910.0Q2373 852 2321.5 804.5Q2270 757 2206 724Q2173 707 2144.0 693.0Q2115 679 2085.5 668.5Q2056 658 2024.0 652.5Q1992 647 1954 647Q1855 647 1768.0 688.5Q1681 730 1616.5 799.5Q1552 869 1515.0 959.0Q1478 1049 1478 1145V1258Q1478 1310 1497.5 1356.0Q1517 1402 1551.0 1436.0Q1585 1470 1631.0 1490.0Q1677 1510 1729 1510Z" style="fill:#321b41;stroke:none" transform="scale(1,-1) translate(0,-256)" /></svg>