<?xml version="1.0" encoding="utf-8" ?>
<svg baseProfile="full" height="256" version="1.1" width="256" xmlns="http://www.w3.org/2000/svg" xmlns:ev="http://www.w3.org/2001/xml-events" xmlns:xlink="http://www.w3.org/1999/xlink"><defs /><path d="M1047 575Q1067 575 1081.0 566.5Q1095 558 1107 542Q1130 511 1166.0 489.5Q1202 468 1243.5 455.0Q1285 442 1327.5 436.5Q1370 431 1406 431Q1442 431 1484.5 436.5Q1527 442 1568.0 455.0Q1609 468 1645.5 489.5Q1682 511 1705 542Q1716 558 1730.5 566.5Q1745 575 1765 575Q1794 575 1815.5 553.5Q1837 532 1837 503Q1837 482 1826 465Q1826 464 1822.5 459.5Q1819 455 1818 454Q1801 429 1776.0 408.0Q1751 387 1725 371Q1653 325 1572.0 306.5Q1491 288 1406 288Q1322 288 1240.0 306.5Q1158 325 1086 371Q1061 387 1036.0 408.0Q1011 429 994 454Q993 455 989.0 459.5Q985 464 986 465Q975 484 975 504Q975 533 996.0 554.0Q1017 575 1047 575Z" style="fill:#402a32;stroke:none" transform="scale(1,-1) translate(0,-256)" /></svg>