<?xml version="1.0" encoding="utf-8" ?>
<svg baseProfile="full" height="256" version="1.1" width="256" xmlns="http://www.w3.org/2000/svg" xmlns:ev="http://www.w3.org/2001/xml-events" xmlns:xlink="http://www.w3.org/1999/xlink"><defs /><path d="M1244 -287Q1238 -287 1229.0 -287.5Q1220 -288 1211.0 -287.0Q1202 -286 1196.0 -282.0Q1190 -278 1190 -269V2H1047Q987 2 934.5 24.5Q882 47 843.0 86.0Q804 125 781.5 177.0Q759 229 759 289V832Q759 847 769.0 854.0Q779 861 793 861Q809 861 827.0 855.5Q845 850 859 845Q901 830 936.0 802.5Q971 775 995.5 740.0Q1020 705 1033.5 663.0Q1047 621 1047 576V72H1190V1078H1262V-269Q1262 -277 1257.0 -282.0Q1252 -287 1244 -287ZM1406 719H1478V-215H1624V82Q1624 138 1643.0 186.5Q1662 235 1696.0 272.5Q1730 310 1776.5 334.5Q1823 359 1877 367H1882Q1894 367 1902.5 358.5Q1911 350 1911 338V0Q1911 -60 1888.5 -112.0Q1866 -164 1827.0 -203.0Q1788 -242 1736.0 -264.5Q1684 -287 1624 -287H1430Q1420 -287 1413.0 -280.5Q1406 -274 1406 -264Z" style="fill:#44911b;stroke:none" transform="scale(1,-1) translate(0,-256)" /></svg>