<?xml version="1.0" encoding="utf-8" ?>
<svg baseProfile="full" height="256" version="1.1" width="256" xmlns="http://www.w3.org/2000/svg" xmlns:ev="http://www.w3.org/2001/xml-events" xmlns:xlink="http://www.w3.org/1999/xlink"><defs /><path d="M1327 685Q1298 685 1272.5 696.0Q1247 707 1228.0 726.0Q1209 745 1198.0 770.5Q1187 796 1187 825Q1187 854 1198.0 879.5Q1209 905 1228.0 924.0Q1247 943 1272.5 954.0Q1298 965 1327 965Q1356 965 1381.5 954.0Q1407 943 1426.0 924.0Q1445 905 1456.0 879.5Q1467 854 1467 825Q1467 796 1456.0 770.5Q1445 745 1426.0 726.0Q1407 707 1381.5 696.0Q1356 685 1327 685Z" style="fill:#fff478;stroke:none" transform="scale(1,-1) translate(0,-256)" /></svg>