<?xml version="1.0" encoding="utf-8" ?>
<svg baseProfile="full" height="256" version="1.1" width="256" xmlns="http://www.w3.org/2000/svg" xmlns:ev="http://www.w3.org/2001/xml-events" xmlns:xlink="http://www.w3.org/1999/xlink"><defs /><path d="M1645 1126Q1693 1126 1735.0 1107.5Q1777 1089 1808.5 1057.5Q1840 1026 1858.5 983.5Q1877 941 1877 893Q1877 855 1865.0 819.5Q1853 784 1831.0 754.5Q1809 725 1778.5 703.0Q1748 681 1711 670Q1754 610 1754 537Q1754 506 1750.0 477.5Q1746 449 1735.5 424.0Q1725 399 1707.0 378.0Q1689 357 1660 341Q1628 324 1593.0 314.0Q1558 304 1522 304Q1471 304 1425.0 325.0Q1379 346 1346 384Q1313 339 1263.5 314.5Q1214 290 1158 290Q1110 290 1067.5 308.5Q1025 327 994.0 359.0Q963 391 945.0 433.5Q927 476 927 524Q927 591 960 645Q921 653 887.5 674.5Q854 696 829.5 726.0Q805 756 791.0 793.0Q777 830 777 871Q777 919 795.0 962.0Q813 1005 844.5 1036.5Q876 1068 918.0 1086.5Q960 1105 1009 1105Q1050 1105 1086 1092Q1084 1100 1084.0 1109.0Q1084 1118 1084 1126Q1084 1174 1102.0 1217.0Q1120 1260 1151.5 1291.5Q1183 1323 1225.5 1341.5Q1268 1360 1316 1360Q1364 1360 1406.0 1341.5Q1448 1323 1479.5 1291.5Q1511 1260 1529.5 1217.5Q1548 1175 1548 1127Q1548 1122 1548.0 1116.0Q1548 1110 1547 1105Q1593 1126 1645 1126Z" style="fill:#f70a8d;stroke:none" transform="scale(1,-1) translate(0,-256)" /></svg>