<?xml version="1.0" encoding="utf-8" ?>
<svg baseProfile="full" height="256" version="1.1" width="256" xmlns="http://www.w3.org/2000/svg" xmlns:ev="http://www.w3.org/2001/xml-events" xmlns:xlink="http://www.w3.org/1999/xlink"><defs /><path d="M1863 1333Q1944 1333 2015.0 1301.5Q2086 1270 2139.5 1216.5Q2193 1163 2223.5 1091.5Q2254 1020 2254 940Q2254 875 2234.0 815.5Q2214 756 2177.0 707.0Q2140 658 2089.0 621.0Q2038 584 1977 565Q2012 516 2030.0 459.0Q2048 402 2048 342Q2048 261 2017.0 189.0Q1986 117 1933.0 63.5Q1880 10 1808.0 -21.0Q1736 -52 1655 -52Q1569 -52 1492.5 -17.0Q1416 18 1359 83Q1303 8 1220.5 -33.5Q1138 -75 1044 -75Q963 -75 891.5 -44.0Q820 -13 766.5 40.0Q713 93 682.5 165.0Q652 237 652 318Q652 372 666.5 424.0Q681 476 709 522Q641 536 584.5 572.0Q528 608 487.0 659.0Q446 710 423.0 773.0Q400 836 400 905Q400 986 430.5 1057.5Q461 1129 514.0 1182.5Q567 1236 638.5 1267.0Q710 1298 791 1298Q859 1298 921 1276Q919 1290 918.0 1305.0Q917 1320 917 1335Q917 1416 947.5 1487.5Q978 1559 1031.5 1611.5Q1085 1664 1156.0 1694.5Q1227 1725 1308 1725Q1390 1725 1461.5 1694.5Q1533 1664 1586.0 1611.0Q1639 1558 1669.5 1486.5Q1700 1415 1700 1334Q1700 1324 1699.5 1315.0Q1699 1306 1698 1296Q1778 1333 1863 1333Z" style="fill:#ff6dc6;stroke:none" transform="scale(1,-1) translate(0,-256)" /></svg>