<?xml version="1.0" encoding="utf-8" ?>
<svg baseProfile="full" height="256" version="1.1" width="256" xmlns="http://www.w3.org/2000/svg" xmlns:ev="http://www.w3.org/2001/xml-events" xmlns:xlink="http://www.w3.org/1999/xlink"><defs /><path d="M1831 811Q1894 811 1954.5 797.0Q2015 783 2071 755L2401 588Q2409 584 2413.5 575.5Q2418 567 2418 559Q2418 549 2414 542Q2384 489 2343.0 442.5Q2302 396 2253.5 357.5Q2205 319 2150.0 290.5Q2095 262 2037 244Q2079 204 2115.5 152.5Q2152 101 2179.5 43.5Q2207 -14 2222.5 -74.5Q2238 -135 2238 -194Q2238 -208 2229.5 -218.5Q2221 -229 2206 -229Q2113 -229 2021.0 -228.5Q1929 -228 1836 -228Q1722 -228 1622.5 -182.5Q1523 -137 1449.0 -59.5Q1375 18 1332.0 119.5Q1289 221 1289 333Q1289 342 1288.0 354.5Q1287 367 1288.0 379.5Q1289 392 1292.5 402.5Q1296 413 1305 418Q1299 427 1299 438Q1299 444 1302.5 453.0Q1306 462 1310.5 471.0Q1315 480 1320.0 488.5Q1325 497 1328 503Q1364 574 1417.5 631.0Q1471 688 1536.0 728.0Q1601 768 1676.0 789.5Q1751 811 1831 811Z" style="fill:#86d72f;stroke:none" transform="scale(1,-1) translate(0,-256)" /></svg>