<?xml version="1.0" encoding="utf-8" ?>
<svg baseProfile="full" height="256" version="1.1" width="256" xmlns="http://www.w3.org/2000/svg" xmlns:ev="http://www.w3.org/2001/xml-events" xmlns:xlink="http://www.w3.org/1999/xlink"><defs /><path d="M1396 -260Q1396 -269 1389.5 -275.0Q1383 -281 1374 -281Q1367 -281 1363 -278L603 183Q575 200 559.0 229.0Q543 258 543 290V1177Q543 1187 550.5 1194.0Q558 1201 567 1201Q570 1201 604.5 1181.0Q639 1161 694.0 1128.5Q749 1096 819.0 1053.5Q889 1011 962.5 966.0Q1036 921 1108.0 877.0Q1180 833 1240.0 796.5Q1300 760 1341.5 734.5Q1383 709 1396 701V-260Z" style="fill:#e19747;stroke:none" transform="scale(1,-1) translate(0,-256)" /></svg>