<?xml version="1.0" encoding="utf-8" ?>
<svg baseProfile="full" height="256" version="1.1" width="256" xmlns="http://www.w3.org/2000/svg" xmlns:ev="http://www.w3.org/2001/xml-events" xmlns:xlink="http://www.w3.org/1999/xlink"><defs /><path d="M593 951Q616 978 638.0 1007.0Q660 1036 685 1061Q729 1106 784.5 1135.5Q840 1165 904 1165Q938 1165 964.5 1170.5Q991 1176 1014.5 1188.0Q1038 1200 1060.0 1218.0Q1082 1236 1106 1260Q1129 1246 1153.0 1235.0Q1177 1224 1202 1213Q1185 1191 1156.5 1172.5Q1128 1154 1094.5 1135.5Q1061 1117 1027.0 1097.5Q993 1078 965.0 1054.0Q937 1030 919.5 1001.0Q902 972 902 934Q902 890 914.5 848.5Q927 807 951.5 775.0Q976 743 1013.0 723.5Q1050 704 1098 704Q1186 704 1260.0 664.5Q1334 625 1394 565L1907 50L1406 -130L400 252V720Z" style="fill:#7d4533;stroke:none" transform="scale(1,-1) translate(0,-256)" /></svg>