<?xml version="1.0" encoding="utf-8" ?>
<svg baseProfile="full" height="256" version="1.1" width="256" xmlns="http://www.w3.org/2000/svg" xmlns:ev="http://www.w3.org/2001/xml-events" xmlns:xlink="http://www.w3.org/1999/xlink"><defs /><path d="M2197 863Q2197 843 2194.0 814.0Q2191 785 2184.5 753.0Q2178 721 2167.0 689.0Q2156 657 2140.0 632.0Q2124 607 2102.5 591.0Q2081 575 2053 575Q2025 575 2003.5 591.0Q1982 607 1966.0 632.0Q1950 657 1939.0 689.0Q1928 721 1921.5 753.0Q1915 785 1912.0 814.0Q1909 843 1909 863Q1909 893 1915.5 941.5Q1922 990 1938.5 1036.5Q1955 1083 1983.0 1116.5Q2011 1150 2053 1150Q2081 1150 2102.5 1134.0Q2124 1118 2140.0 1093.0Q2156 1068 2167.0 1036.0Q2178 1004 2184.5 972.5Q2191 941 2194.0 912.0Q2197 883 2197 863Z" style="fill:#7d4533;stroke:none" transform="scale(1,-1) translate(0,-256)" /></svg>