<?xml version="1.0" encoding="utf-8" ?>
<svg baseProfile="full" height="256" version="1.1" width="256" xmlns="http://www.w3.org/2000/svg" xmlns:ev="http://www.w3.org/2001/xml-events" xmlns:xlink="http://www.w3.org/1999/xlink"><defs /><path d="M2053 144Q2004 144 1962.5 166.0Q1921 188 1887.0 224.0Q1853 260 1826.0 306.0Q1799 352 1778.5 401.0Q1758 450 1743.5 497.0Q1729 544 1721 583Q1707 652 1700.0 722.0Q1693 792 1693 863V1581H2053Q2100 1581 2140.5 1560.0Q2181 1539 2214.5 1505.0Q2248 1471 2275.0 1427.0Q2302 1383 2322.5 1336.0Q2343 1289 2357.0 1243.0Q2371 1197 2380 1160Q2397 1087 2404.5 1012.5Q2412 938 2412 863Q2412 792 2405.0 722.0Q2398 652 2384 583Q2376 545 2361.5 497.5Q2347 450 2326.5 401.0Q2306 352 2279.0 306.0Q2252 260 2218.0 224.0Q2184 188 2143.0 166.0Q2102 144 2053 144Z" style="fill:#f4f4f4;stroke:none" transform="scale(1,-1) translate(0,-256)" /></svg>