<?xml version="1.0" encoding="utf-8" ?>
<svg baseProfile="full" height="256" version="1.1" width="256" xmlns="http://www.w3.org/2000/svg" xmlns:ev="http://www.w3.org/2001/xml-events" xmlns:xlink="http://www.w3.org/1999/xlink"><defs /><path d="M1832 1677Q1832 1675 1831 1674Q1829 1669 1823.0 1665.5Q1817 1662 1809.5 1658.5Q1802 1655 1794.5 1652.5Q1787 1650 1783 1649Q1769 1645 1748.5 1635.0Q1728 1625 1707.0 1615.0Q1686 1605 1666.5 1597.0Q1647 1589 1637 1589Q1631 1589 1621.0 1595.0Q1611 1601 1601.5 1609.0Q1592 1617 1585.0 1624.0Q1578 1631 1578 1634Q1578 1644 1602.0 1658.5Q1626 1673 1657.5 1686.5Q1689 1700 1719.0 1709.0Q1749 1718 1762 1718Q1768 1718 1780.0 1714.5Q1792 1711 1803.5 1705.0Q1815 1699 1823.5 1691.5Q1832 1684 1832 1677ZM2023 1488Q2009 1488 1998 1477Q1989 1469 1972.0 1453.0Q1955 1437 1938.0 1419.0Q1921 1401 1908.0 1383.5Q1895 1366 1895 1354Q1895 1344 1904 1333Q1930 1304 1958.5 1275.5Q1987 1247 2015 1220Q2021 1214 2029.0 1210.0Q2037 1206 2046 1206Q2060 1206 2073 1217Q2080 1223 2097.5 1239.5Q2115 1256 2133.0 1275.0Q2151 1294 2164.5 1312.0Q2178 1330 2178 1339Q2178 1347 2174.5 1353.5Q2171 1360 2166 1365Q2155 1377 2142.0 1391.5Q2129 1406 2115.5 1420.5Q2102 1435 2088.0 1448.5Q2074 1462 2062 1472Q2054 1479 2043.5 1483.5Q2033 1488 2023 1488ZM2372 1118Q2386 1118 2394.5 1101.5Q2403 1085 2403 1073Q2403 1061 2394.0 1029.0Q2385 997 2372.5 964.0Q2360 931 2346.5 905.5Q2333 880 2325 880Q2320 880 2314.0 885.5Q2308 891 2302.5 899.0Q2297 907 2293.0 914.5Q2289 922 2289 927Q2289 937 2294 945Q2317 984 2331.5 1026.0Q2346 1068 2363 1110Q2365 1113 2366.0 1115.5Q2367 1118 2372 1118ZM1946 1000Q1931 1000 1918 990Q1904 979 1890.5 968.0Q1877 957 1863 946Q1849 935 1834.5 926.5Q1820 918 1806 907Q1799 902 1793.5 893.0Q1788 884 1788 876Q1788 870 1801.0 854.5Q1814 839 1831.0 822.0Q1848 805 1864.5 790.5Q1881 776 1887 771Q1896 764 1906.0 759.5Q1916 755 1928 755Q1946 755 1964 768Q1973 775 1993.0 788.0Q2013 801 2033.0 817.0Q2053 833 2068.0 848.5Q2083 864 2083 876Q2083 887 2073 897Q2051 918 2029.5 940.0Q2008 962 1985 982Q1977 990 1967.0 995.0Q1957 1000 1946 1000ZM1547 1389Q1558 1389 1567.5 1381.0Q1577 1373 1584 1365Q1604 1343 1625.0 1323.0Q1646 1303 1666 1281Q1676 1271 1676 1258Q1676 1244 1667.5 1231.0Q1659 1218 1650 1208Q1629 1185 1612.0 1158.5Q1595 1132 1578 1106Q1574 1101 1569.5 1096.0Q1565 1091 1557 1091Q1548 1091 1531.5 1104.5Q1515 1118 1497.5 1136.0Q1480 1154 1464.5 1171.5Q1449 1189 1442 1196Q1430 1209 1430 1227Q1430 1242 1444.5 1269.0Q1459 1296 1478.5 1323.0Q1498 1350 1517.5 1369.5Q1537 1389 1547 1389ZM930 485Q944 485 957 495Q971 506 985.0 517.0Q999 528 1013 539Q1027 550 1041.0 558.5Q1055 567 1069 578Q1076 584 1081.5 592.0Q1087 600 1087 609Q1087 615 1074.0 631.0Q1061 647 1044.5 664.0Q1028 681 1011.5 695.5Q995 710 989 715Q980 721 969.5 725.5Q959 730 948 730Q937 730 911.5 715.5Q886 701 859.5 681.5Q833 662 812.5 641.5Q792 621 792 609Q792 602 795.0 597.5Q798 593 803 588Q812 580 828.5 562.5Q845 545 864.0 528.0Q883 511 901.0 498.0Q919 485 930 485ZM449 353Q434 353 425.5 369.0Q417 385 417 398Q417 411 426.0 442.5Q435 474 448.0 507.0Q461 540 474.0 565.5Q487 591 495 591Q499 591 505.5 585.5Q512 580 517.5 572.5Q523 565 527.0 557.0Q531 549 531 545Q531 536 526 526Q516 509 508.5 490.0Q501 471 491 454Q479 432 473.0 408.0Q467 384 458 361Q454 353 449 353ZM819 -26Q833 -26 843 -16Q852 -8 869.0 8.0Q886 24 903.5 42.0Q921 60 934.0 78.0Q947 96 947 108Q947 120 938 129L826 241Q820 247 812.0 251.0Q804 255 795 255Q781 255 769 245Q761 238 744.0 222.0Q727 206 709.0 187.0Q691 168 677.5 150.0Q664 132 664 122Q664 115 667.0 108.5Q670 102 675 97Q685 85 698.0 70.5Q711 56 725.5 41.5Q740 27 754.0 13.5Q768 0 780 -10Q788 -17 798.5 -21.5Q809 -26 819 -26ZM1021 -232Q1021 -229 1022 -228Q1024 -224 1030.0 -220.0Q1036 -216 1043.5 -212.5Q1051 -209 1058.0 -207.0Q1065 -205 1069 -203Q1082 -199 1103.0 -189.0Q1124 -179 1145.5 -169.0Q1167 -159 1186.5 -151.0Q1206 -143 1215 -143Q1220 -143 1230.0 -148.5Q1240 -154 1249.5 -161.5Q1259 -169 1266.5 -176.5Q1274 -184 1274 -188Q1274 -199 1250.0 -214.0Q1226 -229 1194.5 -242.0Q1163 -255 1133.0 -264.0Q1103 -273 1091 -273Q1084 -273 1072.5 -269.5Q1061 -266 1049.5 -260.0Q1038 -254 1029.5 -246.5Q1021 -239 1021 -232ZM1301 100Q1290 100 1281.0 108.5Q1272 117 1265 125Q1245 147 1224.0 167.0Q1203 187 1183 208Q1174 217 1174 231Q1174 245 1182.0 257.5Q1190 270 1200 281Q1220 304 1237.0 331.0Q1254 358 1271 383Q1275 389 1280.0 394.0Q1285 399 1293 399Q1302 399 1318.0 385.5Q1334 372 1351.5 354.0Q1369 336 1384.0 318.5Q1399 301 1407 294Q1420 281 1420 263Q1420 248 1405.0 220.5Q1390 193 1370.5 166.5Q1351 140 1331.0 120.0Q1311 100 1301 100ZM1426 585Q1442 585 1453 596L1550 693Q1558 701 1564.0 711.5Q1570 722 1570 733Q1570 748 1559 759Q1549 770 1531.5 790.0Q1514 810 1493.5 830.0Q1473 850 1453.0 864.5Q1433 879 1418 879Q1403 879 1393 869Q1384 861 1364.5 842.5Q1345 824 1324.5 803.0Q1304 782 1289.0 762.0Q1274 742 1274 730Q1274 722 1277.5 715.5Q1281 709 1286 703Q1309 677 1334.0 652.5Q1359 628 1384 604Q1392 596 1403.5 590.5Q1415 585 1426 585Z" style="fill:#d3883e;stroke:none" transform="scale(1,-1) translate(0,-256)" /></svg>