<?xml version="1.0" encoding="utf-8" ?>
<svg baseProfile="full" height="256" version="1.1" width="256" xmlns="http://www.w3.org/2000/svg" xmlns:ev="http://www.w3.org/2001/xml-events" xmlns:xlink="http://www.w3.org/1999/xlink"><defs /><path d="M1356 1224Q1376 1244 1406 1244Q1436 1244 1457.0 1223.0Q1478 1202 1478 1172V788L1931 1224Q1951 1244 1981 1244Q2011 1244 2032.0 1223.0Q2053 1202 2053 1172V265Q2053 235 2032.0 214.5Q2011 194 1981 194Q1951 194 1931 214L1478 650V265Q1478 235 1457.0 214.5Q1436 194 1406 194Q1376 194 1356 214L903 650V252Q903 237 892.5 226.5Q882 216 867 216H795Q780 216 769.5 226.5Q759 237 759 252V1186Q759 1201 769.5 1211.5Q780 1222 795 1222H867Q882 1222 892.5 1211.5Q903 1201 903 1186V788Z" style="fill:#ffffff;stroke:none" transform="scale(1,-1) translate(0,-256)" /></svg>