<?xml version="1.0" encoding="utf-8" ?>
<svg baseProfile="full" height="256" version="1.1" width="256" xmlns="http://www.w3.org/2000/svg" xmlns:ev="http://www.w3.org/2001/xml-events" xmlns:xlink="http://www.w3.org/1999/xlink"><defs /><path d="M2406 1000Q2406 884 2389.5 762.0Q2373 640 2336.5 523.0Q2300 406 2242.0 299.5Q2184 193 2100 109L2017 26Q1933 -58 1826.5 -116.0Q1720 -174 1603.5 -210.5Q1487 -247 1365.5 -263.5Q1244 -280 1129 -280Q1005 -280 883.5 -262.5Q762 -245 644 -206Q633 -202 622.5 -199.5Q612 -197 602 -192Q584 -184 572.5 -174.5Q561 -165 556 -144L434 404Q423 455 411.0 503.5Q399 552 399 604Q399 718 438.5 820.0Q478 922 548.0 1001.5Q618 1081 714.0 1134.0Q810 1187 922 1203Q938 1315 991.0 1411.0Q1044 1507 1123.5 1577.0Q1203 1647 1305.0 1686.5Q1407 1726 1521 1726Q1572 1726 1619.0 1715.0Q1666 1704 1715 1693L2269 1570Q2290 1565 2299.0 1554.0Q2308 1543 2317 1526Q2322 1516 2325.5 1504.5Q2329 1493 2333 1482Q2372 1367 2389.0 1244.0Q2406 1121 2406 1000ZM716 -76Q758 -53 799.5 -31.0Q841 -9 883 14Q1280 230 1589.0 537.5Q1898 845 2113 1243Q2136 1285 2157.5 1326.5Q2179 1368 2202 1410Q2104 1362 2007.0 1314.5Q1910 1267 1813 1218Q1514 1069 1285.0 841.0Q1056 613 907 313Q859 216 811.5 119.0Q764 22 716 -76Z" style="fill:#f92f60;stroke:none" transform="scale(1,-1) translate(0,-256)" /></svg>