<?xml version="1.0" encoding="utf-8" ?>
<svg baseProfile="full" height="256" version="1.1" width="256" xmlns="http://www.w3.org/2000/svg" xmlns:ev="http://www.w3.org/2001/xml-events" xmlns:xlink="http://www.w3.org/1999/xlink"><defs /><path d="M1827 14Q1827 -6 1818.5 -21.5Q1810 -37 1796.0 -48.5Q1782 -60 1764.5 -66.0Q1747 -72 1729 -72H1083Q1065 -72 1047.5 -66.0Q1030 -60 1016.0 -48.5Q1002 -37 993.5 -21.5Q985 -6 985 14Q985 24 988 35Q1006 107 1046.0 166.5Q1086 226 1141.0 269.0Q1196 312 1264.0 336.0Q1332 360 1406 360Q1480 360 1547.5 336.0Q1615 312 1670.5 269.0Q1726 226 1765.5 166.5Q1805 107 1824 35Q1827 24 1827 14Z" style="fill:#bb1d80;stroke:none" transform="scale(1,-1) translate(0,-256)" /></svg>