<?xml version="1.0" encoding="utf-8" ?>
<svg baseProfile="full" height="256" version="1.1" width="256" xmlns="http://www.w3.org/2000/svg" xmlns:ev="http://www.w3.org/2001/xml-events" xmlns:xlink="http://www.w3.org/1999/xlink"><defs /><path d="M1047 1402Q1047 1388 1036.0 1377.0Q1025 1366 1011 1366Q910 1366 836 1295Q809 1269 790.0 1239.5Q771 1210 757 1175Q747 1150 723 1150Q708 1150 697.5 1161.0Q687 1172 687 1187Q687 1190 687.5 1192.5Q688 1195 689 1198Q705 1249 737.5 1293.0Q770 1337 812.5 1369.5Q855 1402 906.0 1420.0Q957 1438 1011 1438Q1025 1438 1036.0 1427.0Q1047 1416 1047 1402ZM1765 1402Q1765 1417 1775.5 1427.5Q1786 1438 1801 1438Q1854 1438 1905.0 1419.5Q1956 1401 1999.5 1369.0Q2043 1337 2075.0 1293.0Q2107 1249 2123 1198Q2124 1195 2124.5 1192.5Q2125 1190 2125 1187Q2125 1172 2114.5 1161.0Q2104 1150 2089 1150Q2065 1150 2055 1175Q2041 1210 2022.0 1239.5Q2003 1269 1976 1295Q1940 1330 1896.0 1348.0Q1852 1366 1801 1366Q1786 1366 1775.5 1376.5Q1765 1387 1765 1402Z" style="fill:#402a32;stroke:none" transform="scale(1,-1) translate(0,-256)" /></svg>