<?xml version="1.0" encoding="utf-8" ?>
<svg baseProfile="full" height="256" version="1.1" width="256" xmlns="http://www.w3.org/2000/svg" xmlns:ev="http://www.w3.org/2001/xml-events" xmlns:xlink="http://www.w3.org/1999/xlink"><defs /><path d="M1003 1725Q1034 1725 1056.5 1703.0Q1079 1681 1079 1650Q1079 1619 1057 1597L825 1366L752 1401L719 1472L950 1703Q972 1725 1003 1725ZM1208 1520Q1240 1520 1261.5 1498.0Q1283 1476 1283 1444Q1283 1413 1261 1391L1030 1160L951 1198L924 1267L1155 1498Q1177 1520 1208 1520ZM1413 1315Q1444 1315 1466.5 1292.5Q1489 1270 1489 1239Q1489 1208 1467 1186L1236 955L1149 988L1129 1061L1360 1293Q1382 1315 1413 1315Z" style="fill:#aeddff;stroke:none" transform="scale(1,-1) translate(0,-256)" /></svg>