<?xml version="1.0" encoding="utf-8" ?>
<svg baseProfile="full" height="256" version="1.1" width="256" xmlns="http://www.w3.org/2000/svg" xmlns:ev="http://www.w3.org/2001/xml-events" xmlns:xlink="http://www.w3.org/1999/xlink"><defs /><path d="M915 988Q913 988 892.0 999.5Q871 1011 837.0 1030.5Q803 1050 760.5 1075.0Q718 1100 672.5 1126.5Q627 1153 583.0 1179.5Q539 1206 502.5 1227.5Q466 1249 440.5 1264.0Q415 1279 407 1284Q400 1288 400 1295Q400 1301 404.0 1305.5Q408 1310 414 1310Q417 1310 452.5 1290.0Q488 1270 541.0 1239.0Q594 1208 656.5 1171.5Q719 1135 774.5 1102.0Q830 1069 870.5 1044.5Q911 1020 922 1014Q928 1009 928 1002Q928 1000 927.5 998.5Q927 997 927 995Q922 988 915 988Z" style="fill:#636363;stroke:none" transform="scale(1,-1) translate(0,-256)" /></svg>