<?xml version="1.0" encoding="utf-8" ?>
<svg baseProfile="full" height="256" version="1.1" width="256" xmlns="http://www.w3.org/2000/svg" xmlns:ev="http://www.w3.org/2001/xml-events" xmlns:xlink="http://www.w3.org/1999/xlink"><defs /><path d="M1269 -228Q1269 -236 1263.0 -241.5Q1257 -247 1249 -247H947Q936 -247 928.0 -239.0Q920 -231 920 -219Q920 -205 932 -197L1094 -84L1269 -123ZM2059 -228V-123L2234 -84L2396 -197Q2408 -205 2408 -219Q2408 -231 2400.0 -239.0Q2392 -247 2381 -247H2079Q2071 -247 2065.0 -241.5Q2059 -236 2059 -228Z" style="fill:#433b6b;stroke:none" transform="scale(1,-1) translate(0,-256)" /></svg>