<?xml version="1.0" encoding="utf-8" ?>
<svg baseProfile="full" height="256" version="1.1" width="256" xmlns="http://www.w3.org/2000/svg" xmlns:ev="http://www.w3.org/2001/xml-events" xmlns:xlink="http://www.w3.org/1999/xlink"><defs /><path d="M1842 711 1841 712 1706 580Q1675 549 1630 549Q1586 549 1555 580L1420 711V981Q1420 1024 1436.5 1063.0Q1453 1102 1482.0 1130.5Q1511 1159 1549.0 1176.0Q1587 1193 1631 1193Q1674 1193 1712.5 1176.0Q1751 1159 1780.0 1130.5Q1809 1102 1825.5 1063.0Q1842 1024 1842 981ZM1927 81 2059 -123H2255L2106 177ZM1050 112 1105 -131H1269L1228 112Z" style="fill:#d3d3d3;stroke:none" transform="scale(1,-1) translate(0,-256)" /></svg>