<?xml version="1.0" encoding="utf-8" ?>
<svg baseProfile="full" height="256" version="1.1" width="256" xmlns="http://www.w3.org/2000/svg" xmlns:ev="http://www.w3.org/2001/xml-events" xmlns:xlink="http://www.w3.org/1999/xlink"><defs /><path d="M1613 1422V1278Q1613 1245 1597.5 1215.5Q1582 1186 1555 1167Q1517 1168 1486.0 1182.5Q1455 1197 1433.0 1221.0Q1411 1245 1399.0 1277.0Q1387 1309 1387 1346V1474Q1387 1511 1399.0 1543.0Q1411 1575 1433.5 1598.5Q1456 1622 1486.5 1636.5Q1517 1651 1555 1653Q1581 1635 1593.0 1613.0Q1605 1591 1609.5 1566.5Q1614 1542 1613.5 1515.0Q1613 1488 1613 1460H1750V1422Z" style="fill:#e6e6e6;stroke:none" transform="scale(1,-1) translate(0,-256)" /></svg>