<?xml version="1.0" encoding="utf-8" ?>
<svg baseProfile="full" height="256" version="1.1" width="256" xmlns="http://www.w3.org/2000/svg" xmlns:ev="http://www.w3.org/2001/xml-events" xmlns:xlink="http://www.w3.org/1999/xlink"><defs /><path d="M973 1092Q1006 1092 1031.0 1078.0Q1056 1064 1083 1048Q1096 1040 1096 1027Q1096 1024 1089.0 1010.5Q1082 997 1071.5 978.0Q1061 959 1048.5 937.5Q1036 916 1024.0 896.5Q1012 877 1003.0 862.0Q994 847 991 842Q983 829 970 829Q965 829 957.0 833.0Q949 837 940.0 842.0Q931 847 923.0 852.0Q915 857 911 860Q882 877 865.5 905.0Q849 933 849 968Q849 993 858.5 1016.0Q868 1039 885.0 1055.5Q902 1072 924.5 1082.0Q947 1092 973 1092Z" style="fill:#e6e6e6;stroke:none" transform="scale(1,-1) translate(0,-256)" /></svg>