<?xml version="1.0" encoding="utf-8" ?>
<svg baseProfile="full" height="256" version="1.1" width="256" xmlns="http://www.w3.org/2000/svg" xmlns:ev="http://www.w3.org/2001/xml-events" xmlns:xlink="http://www.w3.org/1999/xlink"><defs /><path d="M2072 1602Q2078 1610 2090 1610Q2099 1610 2112.0 1599.0Q2125 1588 2132 1582Q2147 1569 2156.0 1552.0Q2165 1535 2165 1515Q2166 1476 2166.5 1437.5Q2167 1399 2167 1360Q2167 1289 2140.5 1227.5Q2114 1166 2067.5 1119.5Q2021 1073 1959.0 1046.5Q1897 1020 1827 1020H1714V1170H1827Q1866 1170 1900.5 1185.0Q1935 1200 1960.5 1225.5Q1986 1251 2001.0 1285.5Q2016 1320 2016 1359V1398Q2009 1401 1999.5 1408.0Q1990 1415 1981.0 1423.0Q1972 1431 1966.0 1440.0Q1960 1449 1960 1457Q1960 1471 1969.0 1479.5Q1978 1488 1991 1488Q2006 1488 2015.0 1477.0Q2024 1466 2029 1466Q2034 1466 2034.0 1473.5Q2034 1481 2033 1484H2034Q2029 1488 2020.0 1494.5Q2011 1501 2002.0 1508.5Q1993 1516 1986.0 1524.0Q1979 1532 1979 1540Q1979 1547 1983.0 1553.0Q1987 1559 1992 1563Q1986 1569 1986 1578Q1986 1589 1993.5 1596.0Q2001 1603 2011 1603Q2018 1603 2021 1601Q2026 1618 2043 1618Q2052 1618 2059.0 1612.5Q2066 1607 2072 1602ZM1604 1071Q1604 1102 1582.5 1124.0Q1561 1146 1530 1146Q1503 1146 1485.0 1129.0Q1467 1112 1451.5 1087.0Q1436 1062 1420.0 1032.5Q1404 1003 1381.0 978.0Q1358 953 1325.5 936.0Q1293 919 1245 919Q1206 919 1173.5 934.0Q1141 949 1112.5 966.5Q1084 984 1058.5 999.0Q1033 1014 1010 1014Q979 1014 957.0 992.0Q935 970 935 939Q935 919 945.0 901.5Q955 884 972 874L1073 815Q1112 792 1155.5 780.0Q1199 768 1244 768Q1289 768 1332.0 779.5Q1375 791 1413.5 813.0Q1452 835 1483.5 866.0Q1515 897 1538 936Q1545 948 1556.0 965.5Q1567 983 1577.5 1001.5Q1588 1020 1596.0 1038.5Q1604 1057 1604 1071ZM1623 550 1842 713 2234 -83 2059 -123ZM1623 550 1420 712 1026 426Q1012 415 1003.5 400.0Q995 385 995 367Q995 362 997 352L1105 -131H1269L1198 300Z" style="fill:#9b9b9b;stroke:none" transform="scale(1,-1) translate(0,-256)" /></svg>