<?xml version="1.0" encoding="utf-8" ?>
<svg baseProfile="full" height="256" version="1.1" width="256" xmlns="http://www.w3.org/2000/svg" xmlns:ev="http://www.w3.org/2001/xml-events" xmlns:xlink="http://www.w3.org/1999/xlink"><defs /><path d="M831 1662Q831 1677 841.5 1687.5Q852 1698 867 1698Q881 1698 892.0 1687.0Q903 1676 903 1662V1581H1016Q1027 1581 1034.5 1574.0Q1042 1567 1042 1556Q1042 1551 1041 1548Q1032 1523 1018.5 1508.0Q1005 1493 987.0 1485.5Q969 1478 948.0 1476.0Q927 1474 904 1474L1024 933Q1031 902 1056.0 882.5Q1081 863 1112 863H1783Q1842 863 1894.5 839.0Q1947 815 1986 771V772L2224 515Q2281 454 2311.0 383.0Q2341 312 2341 228V144H2268V228Q2268 291 2249.5 339.5Q2231 388 2200.5 430.5Q2170 473 2131.5 512.0Q2093 551 2053 595V404Q2053 380 2043.5 358.5Q2034 337 2018.5 321.5Q2003 306 1981.5 297.0Q1960 288 1936 288Q1925 288 1917.0 279.5Q1909 271 1909 260V60Q1909 31 1899.5 3.0Q1890 -25 1873 -48L1704 -273Q1693 -287 1675 -287H1578Q1570 -287 1565.5 -281.5Q1561 -276 1561 -269Q1561 -267 1569.5 -249.0Q1578 -231 1590.5 -205.0Q1603 -179 1618.0 -149.0Q1633 -119 1646.5 -91.5Q1660 -64 1670.5 -44.0Q1681 -24 1684 -18Q1693 0 1693 22V265Q1693 274 1686.5 281.0Q1680 288 1671 288H1213Q1203 288 1196.5 281.5Q1190 275 1190 265V107Q1190 70 1177 40L1049 -276Q1044 -287 1032 -287H914Q906 -287 901.5 -281.5Q897 -276 897 -269Q897 -267 907.0 -241.5Q917 -216 932.0 -179.0Q947 -142 965.0 -98.5Q983 -55 999.0 -16.0Q1015 23 1027.0 52.0Q1039 81 1042 89Q1047 102 1047 114V275Q1047 283 1042.0 289.0Q1037 295 1029 297Q948 323 894.0 375.5Q840 428 821 514L647 1294H543L491 1366L543 1438Q560 1438 571.5 1446.0Q583 1454 588 1471Q603 1521 640.0 1551.0Q677 1581 730 1581H831Z" style="fill:#ffb02e;stroke:none" transform="scale(1,-1) translate(0,-256)" /></svg>