<?xml version="1.0" encoding="utf-8" ?>
<svg baseProfile="full" height="256" version="1.1" width="256" xmlns="http://www.w3.org/2000/svg" xmlns:ev="http://www.w3.org/2001/xml-events" xmlns:xlink="http://www.w3.org/1999/xlink"><defs /><path d="M687 1660Q687 1674 698.0 1685.0Q709 1696 723 1696Q738 1696 748.5 1685.5Q759 1675 759 1660V1554H687ZM2197 98V-269Q2197 -277 2192.0 -282.0Q2187 -287 2179 -287H2071Q2063 -287 2058.0 -282.0Q2053 -277 2053 -269V-25Q2053 -2 2035 11L1765 216V465H2053V316Q2053 286 2075.5 262.5Q2098 239 2125.0 215.0Q2152 191 2174.5 163.5Q2197 136 2197 98ZM1460 -287H1352Q1344 -287 1339.0 -282.0Q1334 -277 1334 -269V30Q1334 46 1324 59L1135 289L1246 380L1453 129Q1464 115 1471.0 95.5Q1478 76 1478 58V-269Q1478 -277 1473.0 -282.0Q1468 -287 1460 -287Z" style="fill:#ff822d;stroke:none" transform="scale(1,-1) translate(0,-256)" /></svg>