<?xml version="1.0" encoding="utf-8" ?>
<svg baseProfile="full" height="256" version="1.1" width="256" xmlns="http://www.w3.org/2000/svg" xmlns:ev="http://www.w3.org/2001/xml-events" xmlns:xlink="http://www.w3.org/1999/xlink"><defs /><path d="M543 1294Q514 1294 493.0 1315.5Q472 1337 472 1366Q472 1395 493.0 1416.5Q514 1438 543 1438ZM819 1270Q807 1270 798.5 1278.5Q790 1287 790 1299Q790 1311 798.5 1319.5Q807 1328 819 1328Q831 1328 840.0 1319.5Q849 1311 849 1299Q849 1287 840.0 1278.5Q831 1270 819 1270ZM722 1204Q722 1211 727.0 1216.5Q732 1222 740 1222H779Q786 1222 791.0 1217.5Q796 1213 796 1205V1087Q796 1084 794.0 1081.0Q792 1078 788 1078H757Q750 1078 748 1086Q747 1091 742.5 1109.0Q738 1127 733.5 1147.0Q729 1167 725.5 1184.0Q722 1201 722 1204ZM958 951Q958 943 953.5 938.0Q949 933 941 933H849Q841 933 836.0 938.0Q831 943 831 951V1204Q831 1212 836.0 1217.0Q841 1222 849 1222H885Q898 1222 902 1208Q903 1201 908.0 1180.5Q913 1160 919.0 1132.5Q925 1105 932.0 1074.5Q939 1044 945.0 1017.5Q951 991 954.5 972.5Q958 954 958 951ZM1478 773Q1478 781 1483.0 786.0Q1488 791 1496 791H1543Q1550 791 1555 786L1688 653Q1693 648 1693 640V593Q1693 585 1688.0 580.0Q1683 575 1675 575H1496Q1488 575 1483.0 580.0Q1478 585 1478 593ZM1665 791H1819Q1827 791 1832.0 786.0Q1837 781 1837 773V618Q1837 610 1831.5 605.5Q1826 601 1818 601Q1810 601 1806 605L1652 760Q1647 765 1647 772Q1647 780 1652.0 785.5Q1657 791 1665 791ZM1496 527H1819Q1827 527 1832.5 521.5Q1838 516 1838 508V440Q1838 432 1833.0 427.0Q1828 422 1820 422H1696Q1681 422 1653.5 412.0Q1626 402 1596.0 389.5Q1566 377 1539.0 367.0Q1512 357 1497 357Q1489 357 1483.5 362.0Q1478 367 1478 375V509Q1478 517 1483.0 522.0Q1488 527 1496 527ZM974 476Q958 476 946.5 485.5Q935 495 930 510Q928 517 923.0 538.5Q918 560 911.5 588.5Q905 617 897.5 648.5Q890 680 884.5 707.5Q879 735 875.0 754.5Q871 774 871 778Q871 791 884 791H960Q972 791 978.0 779.5Q984 768 988.5 754.5Q993 741 998.0 730.0Q1003 719 1013 719H1176Q1186 719 1196.5 711.5Q1207 704 1217.5 694.0Q1228 684 1237.0 673.5Q1246 663 1252 657Q1263 646 1263 632V490Q1263 476 1249 476ZM1341 647Q1334 647 1328 653Q1323 657 1312.5 667.0Q1302 677 1290.5 688.0Q1279 699 1270.5 709.5Q1262 720 1262 726V773Q1262 780 1266.5 785.5Q1271 791 1279 791H1419Q1427 791 1432.0 786.0Q1437 781 1437 773V665Q1437 657 1432.0 652.0Q1427 647 1419 647ZM1190 863V784Q1190 776 1185.0 771.0Q1180 766 1172 766H1065Q1057 766 1052.0 771.0Q1047 776 1047 784V891Q1060 876 1077.5 869.5Q1095 863 1114.5 861.5Q1134 860 1153.5 861.5Q1173 863 1190 863ZM1420 360H1352Q1344 360 1339.0 365.0Q1334 370 1334 378V557Q1334 565 1339.0 570.0Q1344 575 1352 575H1420Q1428 575 1433.0 570.0Q1438 565 1438 557V378Q1438 370 1433.0 365.0Q1428 360 1420 360ZM961 827H845Q831 827 831 841V882Q831 887 835.5 891.5Q840 896 845 896H961Q966 896 970.5 891.5Q975 887 975 882V841Q975 827 961 827ZM1249 431Q1254 431 1258.5 427.5Q1263 424 1263 418V373Q1263 367 1258.5 363.5Q1254 360 1249 360H1057Q1046 360 1039 367Q1036 370 1028.5 376.5Q1021 383 1013.5 390.5Q1006 398 1000.0 405.0Q994 412 994 417Q994 423 998.5 427.0Q1003 431 1008 431ZM1888 533Q1888 541 1893.0 546.0Q1898 551 1906 551Q1911 551 1920.5 545.0Q1930 539 1940.5 530.5Q1951 522 1960.5 514.0Q1970 506 1974 503Q1981 498 1981 488V442Q1981 434 1976.0 429.0Q1971 424 1963 424H1906Q1898 424 1893.0 429.0Q1888 434 1888 442ZM1808 259Q1786 259 1770.5 274.5Q1755 290 1755 312Q1755 334 1770.5 349.5Q1786 365 1808 365Q1831 365 1846.5 350.0Q1862 335 1862 312Q1862 289 1846.0 274.0Q1830 259 1808 259ZM1949 633Q1949 622 1940.5 613.5Q1932 605 1921 605Q1910 605 1901.5 613.5Q1893 622 1893 633Q1893 644 1901.5 652.5Q1910 661 1921 661Q1933 661 1941.0 653.0Q1949 645 1949 633ZM2263 -1Q2251 -1 2243.0 8.0Q2235 17 2235 28V112Q2235 139 2254.5 158.5Q2274 178 2301 178Q2328 178 2347.5 158.5Q2367 139 2367 112V88Q2367 70 2360.0 54.0Q2353 38 2341.0 25.5Q2329 13 2313.0 6.0Q2297 -1 2279 -1Z" style="fill:#d3883e;stroke:none" transform="scale(1,-1) translate(0,-256)" /></svg>