<?xml version="1.0" encoding="utf-8" ?>
<svg baseProfile="full" height="256" version="1.1" width="256" xmlns="http://www.w3.org/2000/svg" xmlns:ev="http://www.w3.org/2001/xml-events" xmlns:xlink="http://www.w3.org/1999/xlink"><defs /><path d="M400 1222Q400 1258 424.0 1276.0Q448 1294 482 1294Q508 1294 525.5 1276.0Q543 1258 543 1232Q543 1227 544.0 1222.5Q545 1218 547 1213Q551 1199 562.0 1169.5Q573 1140 584.0 1107.5Q595 1075 603.5 1046.5Q612 1018 612 1006Q612 986 601.0 954.0Q590 922 577.5 888.5Q565 855 554.0 825.5Q543 796 543 781Q543 749 522.0 734.0Q501 719 472 719Q442 719 421.0 740.0Q400 761 400 791ZM2340 863H2268L2197 575L2268 288H2340Q2370 288 2391.0 309.0Q2412 330 2412 360V791Q2412 821 2391.0 842.0Q2370 863 2340 863ZM1442 72Q1384 72 1327.5 63.0Q1271 54 1214 48L759 0V-144Q759 -174 770.5 -200.0Q782 -226 801.5 -245.5Q821 -265 847.0 -276.0Q873 -287 903 -287H1981Q2011 -287 2037.0 -276.0Q2063 -265 2082.5 -245.5Q2102 -226 2113.5 -200.0Q2125 -174 2125 -144V0L1670 48Q1613 54 1556.5 63.0Q1500 72 1442 72ZM1550 1150H687L759 863H1837Q1837 922 1814.5 974.5Q1792 1027 1753.0 1066.0Q1714 1105 1661.5 1127.5Q1609 1150 1550 1150Z" style="fill:#635994;stroke:none" transform="scale(1,-1) translate(0,-256)" /></svg>