<?xml version="1.0" encoding="utf-8" ?>
<svg baseProfile="full" height="256" version="1.1" width="256" xmlns="http://www.w3.org/2000/svg" xmlns:ev="http://www.w3.org/2001/xml-events" xmlns:xlink="http://www.w3.org/1999/xlink"><defs /><path d="M543 1222H651Q673 1222 693.0 1213.5Q713 1205 727.5 1190.5Q742 1176 750.5 1156.0Q759 1136 759 1114V899Q759 876 750.5 856.5Q742 837 727.5 822.5Q713 808 693.0 799.5Q673 791 651 791H543ZM759 863H2125V0H759ZM1226 -72Q1211 -72 1200.5 -82.5Q1190 -93 1190 -108Q1190 -122 1201.0 -133.0Q1212 -144 1226 -144H1298Q1312 -144 1323.0 -133.0Q1334 -122 1334 -108Q1334 -93 1323.5 -82.5Q1313 -72 1298 -72Z" style="fill:#bebebe;stroke:none" transform="scale(1,-1) translate(0,-256)" /></svg>