<?xml version="1.0" encoding="utf-8" ?>
<svg baseProfile="full" height="256" version="1.1" width="256" xmlns="http://www.w3.org/2000/svg" xmlns:ev="http://www.w3.org/2001/xml-events" xmlns:xlink="http://www.w3.org/1999/xlink"><defs /><path d="M2125 863H2268V288H2125ZM903 719Q903 749 924.0 770.0Q945 791 975 791H1693Q1723 791 1744.0 770.0Q1765 749 1765 719V575H1803Q1822 575 1841.0 573.0Q1860 571 1875.0 563.5Q1890 556 1899.5 541.5Q1909 527 1909 503V431Q1909 401 1894.5 386.0Q1880 371 1858.0 365.0Q1836 359 1811.0 359.5Q1786 360 1765 360V216Q1765 186 1744.0 165.0Q1723 144 1693 144H975Q945 144 924.0 165.0Q903 186 903 216Z" style="fill:#e6e6e6;stroke:none" transform="scale(1,-1) translate(0,-256)" /></svg>