<?xml version="1.0" encoding="utf-8" ?>
<svg baseProfile="full" height="256" version="1.1" width="256" xmlns="http://www.w3.org/2000/svg" xmlns:ev="http://www.w3.org/2001/xml-events" xmlns:xlink="http://www.w3.org/1999/xlink"><defs /><path d="M2053 935Q2053 1010 2024.5 1075.0Q1996 1140 1947.0 1189.0Q1898 1238 1832.5 1266.0Q1767 1294 1693 1294Q1619 1294 1553.5 1265.5Q1488 1237 1439.0 1188.5Q1390 1140 1362.0 1074.5Q1334 1009 1334 935Q1334 861 1362.0 795.5Q1390 730 1439.0 681.0Q1488 632 1553.0 603.5Q1618 575 1693 575Q1768 575 1833.5 603.5Q1899 632 1947.5 680.5Q1996 729 2024.5 794.5Q2053 860 2053 935ZM2125 935Q2125 845 2091.0 766.5Q2057 688 1998.5 629.5Q1940 571 1861.5 537.0Q1783 503 1693 503Q1603 503 1524.5 537.0Q1446 571 1387.5 629.5Q1329 688 1295.5 767.0Q1262 846 1262 935Q1262 1024 1296.0 1102.5Q1330 1181 1388.5 1239.5Q1447 1298 1525.5 1332.0Q1604 1366 1693 1366Q1782 1366 1861.0 1332.5Q1940 1299 1998.5 1240.5Q2057 1182 2091.0 1103.5Q2125 1025 2125 935ZM1118 827Q1118 894 1092.5 952.5Q1067 1011 1023.0 1055.0Q979 1099 920.5 1124.5Q862 1150 795 1150Q728 1150 669.5 1124.5Q611 1099 567.0 1055.0Q523 1011 497.5 952.5Q472 894 472 827Q472 760 497.5 701.0Q523 642 566.5 598.0Q610 554 669.0 528.5Q728 503 795 503Q862 503 921.0 528.5Q980 554 1023.5 598.0Q1067 642 1092.5 701.0Q1118 760 1118 827ZM1190 827Q1190 745 1159.0 673.0Q1128 601 1074.5 547.0Q1021 493 949.0 462.0Q877 431 795 431Q713 431 641.0 462.0Q569 493 515.5 547.0Q462 601 431.0 673.0Q400 745 400 827Q400 909 431.0 981.0Q462 1053 515.5 1106.5Q569 1160 641.0 1191.0Q713 1222 795 1222Q877 1222 949.0 1191.0Q1021 1160 1074.5 1106.5Q1128 1053 1159.0 981.0Q1190 909 1190 827Z" style="fill:#bebebe;stroke:none" transform="scale(1,-1) translate(0,-256)" /></svg>