<?xml version="1.0" encoding="utf-8" ?>
<svg baseProfile="full" height="256" version="1.1" width="256" xmlns="http://www.w3.org/2000/svg" xmlns:ev="http://www.w3.org/2001/xml-events" xmlns:xlink="http://www.w3.org/1999/xlink"><defs /><path d="M2053 423Q2053 444 2063.5 460.5Q2074 477 2093 487Q2103 492 2123.0 502.5Q2143 513 2167.5 526.0Q2192 539 2219.0 552.5Q2246 566 2270.0 577.5Q2294 589 2312.5 596.0Q2331 603 2340 603Q2369 603 2390.5 581.5Q2412 560 2412 531V-181Q2412 -210 2391.0 -231.5Q2370 -253 2341 -253Q2329 -253 2295.5 -241.5Q2262 -230 2223.0 -214.5Q2184 -199 2148.5 -184.0Q2113 -169 2098 -162Q2078 -153 2065.5 -135.5Q2053 -118 2053 -95Z" style="fill:#636363;stroke:none" transform="scale(1,-1) translate(0,-256)" /></svg>