<?xml version="1.0" encoding="utf-8" ?>
<svg baseProfile="full" height="256" version="1.1" width="256" xmlns="http://www.w3.org/2000/svg" xmlns:ev="http://www.w3.org/2001/xml-events" xmlns:xlink="http://www.w3.org/1999/xlink"><defs /><path d="M1226 288Q1241 288 1251.5 277.5Q1262 267 1262 252Q1262 237 1251.5 226.5Q1241 216 1226 216H867Q852 216 841.5 226.5Q831 237 831 252Q831 267 841.5 277.5Q852 288 867 288ZM831 108Q831 123 841.5 133.5Q852 144 867 144H1226Q1241 144 1251.5 133.5Q1262 123 1262 108Q1262 93 1251.5 82.5Q1241 72 1226 72H867Q852 72 841.5 82.5Q831 93 831 108ZM831 -36Q831 -21 841.5 -10.5Q852 0 867 0H1226Q1241 0 1251.5 -10.5Q1262 -21 1262 -36Q1262 -51 1251.5 -61.5Q1241 -72 1226 -72H867Q852 -72 841.5 -61.5Q831 -51 831 -36Z" style="fill:#321b41;stroke:none" transform="scale(1,-1) translate(0,-256)" /></svg>