<?xml version="1.0" encoding="utf-8" ?>
<svg baseProfile="full" height="256" version="1.1" width="256" xmlns="http://www.w3.org/2000/svg" xmlns:ev="http://www.w3.org/2001/xml-events" xmlns:xlink="http://www.w3.org/1999/xlink"><defs /><path d="M1694 503Q1605 503 1526.5 537.0Q1448 571 1389.0 629.5Q1330 688 1296.0 766.5Q1262 845 1262 934Q1262 1023 1296.0 1101.5Q1330 1180 1388.5 1239.0Q1447 1298 1525.5 1332.0Q1604 1366 1693 1366Q1782 1366 1860.5 1332.0Q1939 1298 1998.0 1239.5Q2057 1181 2091.0 1102.5Q2125 1024 2125 935Q2125 846 2091.0 767.5Q2057 689 1998.5 630.0Q1940 571 1861.5 537.0Q1783 503 1694 503ZM1744 1085Q1759 1085 1769 1095L1878 1205Q1889 1216 1889 1230Q1889 1244 1881.5 1252.5Q1874 1261 1862 1265Q1851 1268 1828.0 1275.0Q1805 1282 1780.5 1289.0Q1756 1296 1734.0 1301.0Q1712 1306 1703 1306Q1689 1306 1678.0 1295.5Q1667 1285 1667 1271Q1667 1262 1672.5 1240.0Q1678 1218 1685.0 1193.5Q1692 1169 1699.0 1146.0Q1706 1123 1709 1112Q1713 1100 1721.5 1092.5Q1730 1085 1744 1085ZM1643 784Q1628 784 1618 774L1509 664Q1498 653 1498 639Q1498 625 1505.5 616.5Q1513 608 1525 604Q1536 601 1558.5 594.0Q1581 587 1606.0 580.0Q1631 573 1652.5 568.0Q1674 563 1683 563Q1698 563 1708.5 573.5Q1719 584 1719 599Q1719 608 1714.0 630.0Q1709 652 1702.0 677.0Q1695 702 1688.0 724.5Q1681 747 1678 758Q1670 784 1643 784ZM1398 739Q1412 739 1423 750L1533 859Q1543 869 1543 884Q1543 898 1535.5 906.5Q1528 915 1516 919Q1505 922 1482.0 929.0Q1459 936 1434.5 943.0Q1410 950 1388.0 955.5Q1366 961 1357 961Q1343 961 1332.5 950.0Q1322 939 1322 925Q1322 916 1327.0 894.0Q1332 872 1339.0 847.5Q1346 823 1353.0 800.0Q1360 777 1363 766Q1367 754 1375.5 746.5Q1384 739 1398 739ZM1844 985Q1844 958 1870 950Q1880 947 1903.0 940.0Q1926 933 1951.0 926.0Q1976 919 1998.0 914.0Q2020 909 2029 909Q2044 909 2054.5 919.5Q2065 930 2065 945Q2065 954 2060.0 975.5Q2055 997 2048.0 1021.5Q2041 1046 2034.0 1069.0Q2027 1092 2024 1103Q2020 1115 2011.5 1122.5Q2003 1130 1989 1130Q1975 1130 1964 1119L1854 1010Q1844 1000 1844 985ZM2015 758Q2015 785 1989 793Q1978 796 1955.5 803.0Q1933 810 1908.0 817.0Q1883 824 1861.0 829.0Q1839 834 1830 834Q1815 834 1804.5 823.5Q1794 813 1794 798Q1794 789 1799.0 767.0Q1804 745 1811.0 720.0Q1818 695 1825.0 672.0Q1832 649 1835 639Q1843 613 1870 613Q1885 613 1895 623L2005 733Q2015 743 2015 758ZM1593 1071Q1593 1080 1588.0 1102.0Q1583 1124 1576.0 1149.0Q1569 1174 1562.0 1196.5Q1555 1219 1552 1230Q1544 1256 1517 1256Q1502 1256 1492 1246L1382 1136Q1372 1126 1372 1111Q1372 1084 1398 1076Q1408 1073 1431.0 1066.0Q1454 1059 1479.0 1052.0Q1504 1045 1526.0 1040.0Q1548 1035 1557 1035Q1572 1035 1582.5 1045.5Q1593 1056 1593 1071ZM1694 856Q1726 856 1749.0 879.5Q1772 903 1772 935Q1772 967 1748.5 990.0Q1725 1013 1693 1013Q1661 1013 1638.0 989.5Q1615 966 1615 934Q1615 902 1638.5 879.0Q1662 856 1694 856ZM1191 826Q1191 745 1160.0 673.0Q1129 601 1075.0 547.0Q1021 493 949.0 462.0Q877 431 796 431Q714 431 642.0 462.0Q570 493 516.0 547.0Q462 601 430.5 673.0Q399 745 399 827Q399 909 430.0 981.0Q461 1053 515.0 1106.5Q569 1160 641.0 1191.0Q713 1222 795 1222Q877 1222 949.0 1191.0Q1021 1160 1075.0 1106.0Q1129 1052 1160.0 980.0Q1191 908 1191 826ZM741 1107Q741 1122 730.5 1132.5Q720 1143 705 1143Q697 1143 679.0 1134.5Q661 1126 641.5 1114.5Q622 1103 604.5 1092.0Q587 1081 579 1076Q561 1065 561 1045Q561 1025 579 1014Q587 1009 604.5 997.5Q622 986 642.0 974.5Q662 963 679.5 954.5Q697 946 705 946Q719 946 730.0 957.0Q741 968 741 982ZM849 547Q849 532 859.5 521.5Q870 511 885 511Q893 511 910.5 519.5Q928 528 947.5 539.0Q967 550 984.5 561.5Q1002 573 1011 578Q1029 589 1029 609Q1029 629 1011 640Q1002 645 984.5 656.0Q967 667 947.5 678.5Q928 690 910.5 698.5Q893 707 885 707Q870 707 859.5 696.5Q849 686 849 671ZM741 671Q741 686 730.5 696.5Q720 707 705 707Q697 707 679.5 698.5Q662 690 642.5 678.5Q623 667 605.5 656.0Q588 645 579 640Q561 629 561 609Q561 589 579 578Q588 573 605.5 561.5Q623 550 642.5 539.0Q662 528 679.5 519.5Q697 511 705 511Q720 511 730.5 521.5Q741 532 741 547ZM885 946Q893 946 910.5 954.5Q928 963 948.0 974.5Q968 986 985.5 997.5Q1003 1009 1011 1014Q1029 1025 1029 1045Q1029 1065 1011 1076Q1003 1081 985.0 1092.0Q967 1103 947.5 1114.5Q928 1126 910.5 1134.5Q893 1143 885 1143Q870 1143 859.5 1132.5Q849 1122 849 1107V982Q849 968 860.0 957.0Q871 946 885 946ZM1083 925Q1075 925 1057.0 916.5Q1039 908 1019.5 896.5Q1000 885 982.5 874.0Q965 863 957 858Q939 847 939 827Q939 807 957 796Q965 791 982.5 779.5Q1000 768 1019.5 757.0Q1039 746 1056.5 737.5Q1074 729 1082 729Q1097 729 1107.5 739.5Q1118 750 1118 765V889Q1118 903 1107.5 914.0Q1097 925 1083 925ZM651 827Q651 847 633 858Q625 863 607.0 874.0Q589 885 569.5 896.5Q550 908 532.5 916.5Q515 925 507 925Q493 925 482.5 914.0Q472 903 472 889V765Q472 750 482.5 739.5Q493 729 508 729Q516 729 533.5 737.5Q551 746 570.5 757.0Q590 768 607.5 779.5Q625 791 633 796Q651 807 651 827ZM867 827Q867 856 845.5 877.5Q824 899 795 899Q766 899 744.5 877.5Q723 856 723 827Q723 798 744.5 776.5Q766 755 795 755Q824 755 845.5 776.5Q867 798 867 827Z" style="fill:#636363;stroke:none" transform="scale(1,-1) translate(0,-256)" /></svg>