<?xml version="1.0" encoding="utf-8" ?>
<svg baseProfile="full" height="256" version="1.1" width="256" xmlns="http://www.w3.org/2000/svg" xmlns:ev="http://www.w3.org/2001/xml-events" xmlns:xlink="http://www.w3.org/1999/xlink"><defs /><path d="M1765 647Q1795 647 1821.0 635.5Q1847 624 1866.5 604.5Q1886 585 1897.5 559.0Q1909 533 1909 503V360H2125V0H1909V-144Q1909 -174 1897.5 -200.0Q1886 -226 1866.5 -245.5Q1847 -265 1821.0 -276.0Q1795 -287 1765 -287H831Q801 -287 775.0 -276.0Q749 -265 729.5 -245.5Q710 -226 698.5 -200.0Q687 -174 687 -144V503Q687 533 698.5 559.0Q710 585 729.5 604.5Q749 624 775.0 635.5Q801 647 831 647Z" style="fill:#9b9b9b;stroke:none" transform="scale(1,-1) translate(0,-256)" /></svg>