<?xml version="1.0" encoding="utf-8" ?>
<svg baseProfile="full" height="256" version="1.1" width="256" xmlns="http://www.w3.org/2000/svg" xmlns:ev="http://www.w3.org/2001/xml-events" xmlns:xlink="http://www.w3.org/1999/xlink"><defs /><path d="M948 521Q948 550 959.0 575.5Q970 601 989.5 620.5Q1009 640 1034.5 651.0Q1060 662 1089 662Q1118 662 1143.5 651.0Q1169 640 1188.0 620.5Q1207 601 1218.0 575.5Q1229 550 1229 521Q1229 511 1228.0 502.0Q1227 493 1224 484H953Q948 504 948 521ZM1850 521Q1850 550 1838.5 576.0Q1827 602 1807.5 621.0Q1788 640 1762.5 651.0Q1737 662 1708 662Q1679 662 1653.5 651.0Q1628 640 1609.0 621.0Q1590 602 1579.0 576.0Q1568 550 1568 521Q1568 511 1569.0 502.0Q1570 493 1573 484H1845Q1847 493 1848.5 502.5Q1850 512 1850 521Z" style="fill:#7d4533;stroke:none" transform="scale(1,-1) translate(0,-256)" /></svg>