<?xml version="1.0" encoding="utf-8" ?>
<svg baseProfile="full" height="256" version="1.1" width="256" xmlns="http://www.w3.org/2000/svg" xmlns:ev="http://www.w3.org/2001/xml-events" xmlns:xlink="http://www.w3.org/1999/xlink"><defs /><path d="M1021 1308Q1058 1221 1117.5 1151.0Q1177 1081 1253.0 1031.0Q1329 981 1417.0 954.0Q1505 927 1599 927Q1661 927 1718.0 928.0Q1775 929 1827.5 920.5Q1880 912 1929.0 888.5Q1978 865 2024 815Q2036 817 2048.5 818.5Q2061 820 2074 820Q2086 820 2098.0 819.0Q2110 818 2121 815Q2117 714 2114.0 614.0Q2111 514 2107 413Q2101 264 2046.0 136.5Q1991 9 1896.5 -84.5Q1802 -178 1674.5 -231.5Q1547 -285 1397 -285Q1247 -285 1119.0 -231.5Q991 -178 896.5 -84.5Q802 9 746.5 136.5Q691 264 686 413Q682 514 679.0 614.0Q676 714 673 815L688 818Q699 851 718.0 874.5Q737 898 763 921Q811 962 851.0 1004.5Q891 1047 923.0 1094.0Q955 1141 979.5 1193.5Q1004 1246 1021 1308Z" style="fill:#ffc83d;stroke:none" transform="scale(1,-1) translate(0,-256)" /></svg>