<?xml version="1.0" encoding="utf-8" ?>
<svg baseProfile="full" height="256" version="1.1" width="256" xmlns="http://www.w3.org/2000/svg" xmlns:ev="http://www.w3.org/2001/xml-events" xmlns:xlink="http://www.w3.org/1999/xlink"><defs /><path d="M544 740Q544 749 543.5 757.5Q543 766 543 775V1065Q543 1158 575.5 1242.5Q608 1327 665.0 1393.5Q722 1460 800.5 1504.5Q879 1549 971 1563Q972 1594 985.0 1621.0Q998 1648 1019.0 1668.5Q1040 1689 1067.5 1700.5Q1095 1712 1126 1712H1540Q1638 1712 1729.5 1686.5Q1821 1661 1900.0 1614.5Q1979 1568 2044.0 1503.0Q2109 1438 2155.5 1358.5Q2202 1279 2227.5 1187.5Q2253 1096 2253 998V775Q2253 766 2253.0 756.5Q2253 747 2252 738Q1823 738 1398.0 739.0Q973 740 544 740ZM858 341 430 54Q415 44 407.0 28.0Q399 12 399 -6Q399 -38 424 -60L652 -261Q679 -285 715 -285Q746 -285 771.0 -267.5Q796 -250 807 -221L972 242ZM1941 341 2369 54Q2383 44 2391.5 28.0Q2400 12 2400 -5Q2400 -37 2374 -60L2147 -261Q2120 -285 2084 -285Q2053 -285 2027.5 -267.5Q2002 -250 1991 -221L1826 242Z" style="fill:#ed9200;stroke:none" transform="scale(1,-1) translate(0,-256)" /></svg>