<?xml version="1.0" encoding="utf-8" ?>
<svg baseProfile="full" height="256" version="1.1" width="256" xmlns="http://www.w3.org/2000/svg" xmlns:ev="http://www.w3.org/2001/xml-events" xmlns:xlink="http://www.w3.org/1999/xlink"><defs /><path d="M1065 576Q1065 566 1057.5 558.5Q1050 551 1040 551Q1030 551 1022.5 558.5Q1015 566 1015 576Q1015 587 1022.0 594.0Q1029 601 1040 601Q1051 601 1058.0 594.0Q1065 587 1065 576ZM1689 576Q1689 566 1681.5 558.5Q1674 551 1664 551Q1654 551 1646.5 558.5Q1639 566 1639 576Q1639 587 1646.0 594.0Q1653 601 1664 601Q1675 601 1682.0 594.0Q1689 587 1689 576Z" style="fill:#ffffff;stroke:none" transform="scale(1,-1) translate(0,-256)" /></svg>