<?xml version="1.0" encoding="utf-8" ?>
<svg baseProfile="full" height="256" version="1.1" width="256" xmlns="http://www.w3.org/2000/svg" xmlns:ev="http://www.w3.org/2001/xml-events" xmlns:xlink="http://www.w3.org/1999/xlink"><defs /><path d="M1056 704Q1096 704 1132.0 691.0Q1168 678 1196.5 654.0Q1225 630 1245.0 597.5Q1265 565 1273 526Q1274 524 1274 519Q1274 504 1262.5 494.0Q1251 484 1237 484H885Q867 484 854.0 496.0Q841 508 841 526Q841 534 842 537Q851 574 871.5 604.5Q892 635 920.5 657.0Q949 679 983.5 691.5Q1018 704 1056 704ZM1740 704Q1700 704 1664.0 690.5Q1628 677 1599.5 653.5Q1571 630 1551.0 597.5Q1531 565 1523 526Q1523 524 1522.5 523.0Q1522 522 1522 520Q1522 504 1533.0 494.0Q1544 484 1559 484H1912Q1929 484 1942.0 496.5Q1955 509 1955 526Q1955 534 1954 537Q1945 574 1924.5 605.0Q1904 636 1876.0 658.0Q1848 680 1813.0 692.0Q1778 704 1740 704Z" style="fill:#ffffff;stroke:none" transform="scale(1,-1) translate(0,-256)" /></svg>