<?xml version="1.0" encoding="utf-8" ?>
<svg baseProfile="full" height="256" version="1.1" width="256" xmlns="http://www.w3.org/2000/svg" xmlns:ev="http://www.w3.org/2001/xml-events" xmlns:xlink="http://www.w3.org/1999/xlink"><defs /><path d="M1078 791Q1047 791 1019.0 786.0Q991 781 962 772Q954 770 951 770Q935 770 925.0 780.5Q915 791 915 806Q915 825 935.5 836.5Q956 848 983.5 854.0Q1011 860 1038.5 861.5Q1066 863 1079 863Q1090 863 1104.5 863.0Q1119 863 1131.5 860.0Q1144 857 1153.0 849.0Q1162 841 1162 825Q1162 811 1151.5 800.0Q1141 789 1127 789Q1115 789 1102.5 790.0Q1090 791 1078 791ZM1717 863Q1751 863 1788.5 858.0Q1826 853 1858 840Q1869 835 1875.5 825.5Q1882 816 1882 805Q1882 790 1871.0 780.0Q1860 770 1846 770Q1842 770 1834 772Q1805 781 1777.5 786.0Q1750 791 1718 791Q1706 791 1693.5 790.0Q1681 789 1669 789Q1655 789 1644.5 800.0Q1634 811 1634 825Q1634 841 1643.0 849.0Q1652 857 1664.5 860.0Q1677 863 1691.5 863.0Q1706 863 1717 863Z" style="fill:#d37034;stroke:none" transform="scale(1,-1) translate(0,-256)" /></svg>