<?xml version="1.0" encoding="utf-8" ?>
<svg baseProfile="full" height="256" version="1.1" width="256" xmlns="http://www.w3.org/2000/svg" xmlns:ev="http://www.w3.org/2001/xml-events" xmlns:xlink="http://www.w3.org/1999/xlink"><defs /><path d="M1788 1610Q1828 1610 1877.0 1606.0Q1926 1602 1976.5 1594.5Q2027 1587 2075.0 1575.5Q2123 1564 2161 1548Q2178 1541 2187.5 1528.5Q2197 1516 2197 1497V610Q2197 587 2180.5 571.0Q2164 555 2141 555Q2133 555 2124 558Q2040 582 1957.5 596.5Q1875 611 1787 611Q1701 611 1618.5 596.5Q1536 582 1455 550Q1385 522 1313.5 506.5Q1242 491 1166 491Q1103 491 1042.0 501.5Q981 512 921 527Q885 536 848.0 544.0Q811 552 773 552Q759 552 743.5 552.5Q728 553 715.5 557.5Q703 562 695.0 573.0Q687 584 687 605V1495Q687 1514 695.0 1525.0Q703 1536 716.0 1541.5Q729 1547 744.0 1548.5Q759 1550 774 1550Q817 1550 857.5 1541.5Q898 1533 940 1523Q997 1510 1052.5 1499.5Q1108 1489 1167 1489Q1236 1489 1300.5 1503.5Q1365 1518 1429 1543Q1600 1610 1788 1610Z" style="fill:#635994;stroke:none" transform="scale(1,-1) translate(0,-256)" /></svg>