<?xml version="1.0" encoding="utf-8" ?>
<svg baseProfile="full" height="256" version="1.1" width="256" xmlns="http://www.w3.org/2000/svg" xmlns:ev="http://www.w3.org/2001/xml-events" xmlns:xlink="http://www.w3.org/1999/xlink"><defs /><path d="M1318 1725H1500Q1528 1725 1547.0 1706.0Q1566 1687 1566 1659V1599H1251V1659Q1251 1687 1270.5 1706.0Q1290 1725 1318 1725ZM1318 324H1500Q1528 324 1547.0 305.0Q1566 286 1566 258V198H1251V258Q1251 286 1270.5 305.0Q1290 324 1318 324ZM906 567H723Q695 567 676.0 548.0Q657 529 657 501V442H972V501Q972 528 952.5 547.5Q933 567 906 567ZM1911 567H2094Q2121 567 2140.5 547.5Q2160 528 2160 501V442H1845V501Q1845 528 1864.5 547.5Q1884 567 1911 567ZM906 1535H723Q695 1535 676.0 1516.0Q657 1497 657 1469V1410H972V1469Q972 1496 952.5 1515.5Q933 1535 906 1535ZM1911 1535H2094Q2121 1535 2140.5 1515.5Q2160 1496 2160 1469V1410H1845V1469Q1845 1496 1864.5 1515.5Q1884 1535 1911 1535ZM720 1052H538Q511 1052 491.5 1032.5Q472 1013 472 986V926H786V986Q786 1013 766.5 1032.5Q747 1052 720 1052ZM2097 1052H2279Q2306 1052 2325.5 1032.5Q2345 1013 2345 986V926H2031V986Q2031 1013 2050.5 1032.5Q2070 1052 2097 1052Z" style="fill:#d3d3d3;stroke:none" transform="scale(1,-1) translate(0,-256)" /></svg>