<?xml version="1.0" encoding="utf-8" ?>
<svg baseProfile="full" height="256" version="1.1" width="256" xmlns="http://www.w3.org/2000/svg" xmlns:ev="http://www.w3.org/2001/xml-events" xmlns:xlink="http://www.w3.org/1999/xlink"><defs /><path d="M1409 1610Q1449 1610 1488.0 1606.0Q1527 1602 1566 1599V1489Q1566 1460 1545.0 1439.5Q1524 1419 1495 1419H1322Q1293 1419 1272.0 1439.5Q1251 1460 1251 1489V1599Q1291 1602 1330.0 1606.0Q1369 1610 1409 1610ZM1409 216Q1448 216 1487.5 209.5Q1527 203 1566 198V88Q1566 59 1545.0 38.0Q1524 17 1495 17H1322Q1293 17 1272.0 38.0Q1251 59 1251 88V198Q1290 203 1329.5 209.5Q1369 216 1409 216ZM972 442Q932 445 893.0 449.0Q854 453 814 453Q774 453 735.0 449.0Q696 445 657 442V332Q657 303 677.5 282.0Q698 261 727 261H901Q930 261 950.5 282.0Q971 303 971 332V442ZM1845 442H2159V332Q2159 303 2138.5 282.0Q2118 261 2089 261H1916Q1887 261 1866.0 282.0Q1845 303 1845 332ZM972 1410Q932 1413 893.0 1418.0Q854 1423 814 1423Q774 1423 735.0 1418.0Q696 1413 657 1410V1300Q657 1271 677.5 1250.0Q698 1229 727 1229H901Q930 1229 950.5 1250.0Q971 1271 971 1300V1410ZM2003 1423Q2043 1423 2082.0 1418.0Q2121 1413 2160 1410H2159V1300Q2159 1271 2138.5 1250.0Q2118 1229 2089 1229H1916Q1887 1229 1866.0 1250.0Q1845 1271 1845 1300V1410Q1885 1413 1924.0 1418.0Q1963 1423 2003 1423ZM786 925 629 953 472 925V815Q472 786 492.5 765.5Q513 745 542 745H715Q744 745 765.0 765.5Q786 786 786 815ZM2188 935Q2227 935 2266.5 931.0Q2306 927 2345 925V815Q2345 786 2324.0 765.5Q2303 745 2274 745H2101Q2072 745 2051.5 765.5Q2031 786 2031 815V925Q2070 927 2109.5 931.0Q2149 935 2188 935Z" style="fill:#8d65c5;stroke:none" transform="scale(1,-1) translate(0,-256)" /></svg>