<?xml version="1.0" encoding="utf-8" ?>
<svg baseProfile="full" height="256" version="1.1" width="256" xmlns="http://www.w3.org/2000/svg" xmlns:ev="http://www.w3.org/2001/xml-events" xmlns:xlink="http://www.w3.org/1999/xlink"><defs /><path d="M1409 1579Q1423 1579 1434.0 1568.0Q1445 1557 1445 1543V972L1848 1375Q1858 1385 1873 1385Q1888 1385 1898.5 1375.0Q1909 1365 1909 1350Q1909 1335 1899 1325L1495 921H2066Q2081 921 2091.5 910.5Q2102 900 2102 885Q2102 870 2091.5 859.5Q2081 849 2066 849H1495L1899 445Q1909 435 1909 420Q1909 406 1898.5 395.0Q1888 384 1874 384Q1859 384 1848 395L1445 798V228Q1445 213 1434.5 202.5Q1424 192 1409 192Q1394 192 1383.5 202.5Q1373 213 1373 228V799L969 395Q958 384 943 384Q929 384 918.0 395.0Q907 406 907 420Q907 434 918 445L1322 849H751Q736 849 725.5 859.5Q715 870 715 885Q715 900 725.5 910.5Q736 921 751 921H1322L918 1325Q907 1336 907 1350Q907 1364 918.0 1374.5Q929 1385 943 1385Q959 1385 969 1375L1373 971V1543Q1373 1557 1384.0 1568.0Q1395 1579 1409 1579Z" style="fill:#635994;stroke:none" transform="scale(1,-1) translate(0,-256)" /></svg>