<?xml version="1.0" encoding="utf-8" ?>
<svg baseProfile="full" height="256" version="1.1" width="256" xmlns="http://www.w3.org/2000/svg" xmlns:ev="http://www.w3.org/2001/xml-events" xmlns:xlink="http://www.w3.org/1999/xlink"><defs /><path d="M1409 934Q1441 934 1454 904L1939 -188H2179Q2199 -188 2213.5 -203.0Q2228 -218 2228 -238Q2228 -258 2213.5 -272.5Q2199 -287 2179 -287H700Q680 -287 665.5 -272.5Q651 -258 651 -238Q651 -218 665.5 -203.0Q680 -188 700 -188H878L1364 904Q1377 934 1409 934ZM986 -188H1831L1409 764Z" style="fill:#e1d8ec;stroke:none" transform="scale(1,-1) translate(0,-256)" /></svg>