<?xml version="1.0" encoding="utf-8" ?>
<svg baseProfile="full" height="256" version="1.1" width="256" xmlns="http://www.w3.org/2000/svg" xmlns:ev="http://www.w3.org/2001/xml-events" xmlns:xlink="http://www.w3.org/1999/xlink"><defs /><path d="M1430 1725Q1500 1725 1565.0 1708.5Q1630 1692 1688.5 1661.0Q1747 1630 1797.5 1585.5Q1848 1541 1888 1484Q1956 1388 2008.0 1280.5Q2060 1173 2095.5 1058.5Q2131 944 2149.0 825.5Q2167 707 2167 589Q2167 535 2163.0 483.0Q2159 431 2154 377Q2139 236 2077.5 115.0Q2016 -6 1919.0 -95.5Q1822 -185 1696.0 -235.5Q1570 -286 1427 -286Q1331 -286 1243.0 -263.0Q1155 -240 1078.0 -198.0Q1001 -156 936.0 -97.0Q871 -38 822.5 35.5Q774 109 742.5 194.5Q711 280 700 374Q694 426 690.5 477.5Q687 529 687 581Q687 699 705.0 818.0Q723 937 758.5 1052.0Q794 1167 846.5 1275.5Q899 1384 968 1481Q1050 1596 1168.5 1660.5Q1287 1725 1430 1725Z" style="fill:#f3ad61;stroke:none" transform="scale(1,-1) translate(0,-256)" /></svg>