<?xml version="1.0" encoding="utf-8" ?>
<svg baseProfile="full" height="256" version="1.1" width="256" xmlns="http://www.w3.org/2000/svg" xmlns:ev="http://www.w3.org/2001/xml-events" xmlns:xlink="http://www.w3.org/1999/xlink"><defs /><path d="M2288 719Q2288 597 2256.5 484.5Q2225 372 2167.5 274.0Q2110 176 2029.5 95.5Q1949 15 1851.0 -42.5Q1753 -100 1640.5 -131.5Q1528 -163 1406 -163Q1284 -163 1171.5 -131.5Q1059 -100 961.0 -42.5Q863 15 782.5 95.5Q702 176 644.5 274.0Q587 372 555.5 484.5Q524 597 524 719Q524 841 555.5 953.5Q587 1066 644.5 1164.0Q702 1262 782.5 1342.5Q863 1423 961.0 1480.5Q1059 1538 1171.5 1569.5Q1284 1601 1406 1601Q1528 1601 1640.5 1569.5Q1753 1538 1851.0 1480.5Q1949 1423 2029.5 1342.5Q2110 1262 2167.5 1164.0Q2225 1066 2256.5 953.5Q2288 841 2288 719Z" style="fill:#e6e6e6;stroke:none" transform="scale(1,-1) translate(0,-256)" /></svg>