<?xml version="1.0" encoding="utf-8" ?>
<svg baseProfile="full" height="256" version="1.1" width="256" xmlns="http://www.w3.org/2000/svg" xmlns:ev="http://www.w3.org/2001/xml-events" xmlns:xlink="http://www.w3.org/1999/xlink"><defs /><path d="M2412 575Q2412 542 2400.5 516.5Q2389 491 2369.0 471.5Q2349 452 2323.0 439.0Q2297 426 2269 417Q2234 406 2200.0 397.5Q2166 389 2133 375Q2065 346 2004.0 303.5Q1943 261 1892.0 207.5Q1841 154 1801.5 91.0Q1762 28 1737 -41Q1728 -67 1722.0 -92.5Q1716 -118 1708 -144Q1700 -173 1686.0 -198.5Q1672 -224 1652.5 -244.0Q1633 -264 1607.5 -275.5Q1582 -287 1550 -287H1478Q1478 -158 1511.5 -39.0Q1545 80 1606.0 184.0Q1667 288 1752.0 373.0Q1837 458 1941.0 519.0Q2045 580 2164.0 613.5Q2283 647 2412 647Z" style="fill:#8d65c5;stroke:none" transform="scale(1,-1) translate(0,-256)" /></svg>