<?xml version="1.0" encoding="utf-8" ?>
<svg baseProfile="full" height="256" version="1.1" width="256" xmlns="http://www.w3.org/2000/svg" xmlns:ev="http://www.w3.org/2001/xml-events" xmlns:xlink="http://www.w3.org/1999/xlink"><defs /><path d="M2412 1294V1078Q2277 1064 2155.5 1024.5Q2034 985 1923.5 923.5Q1813 862 1712.0 781.5Q1611 701 1518 607Q1422 509 1346.0 407.5Q1270 306 1212.5 196.5Q1155 87 1114.0 -33.0Q1073 -153 1047 -287H831Q831 -69 887.5 133.0Q944 335 1047.0 511.0Q1150 687 1294.0 831.0Q1438 975 1614.0 1078.0Q1790 1181 1992.0 1237.5Q2194 1294 2412 1294Z" style="fill:#fff478;stroke:none" transform="scale(1,-1) translate(0,-256)" /></svg>