<?xml version="1.0" encoding="utf-8" ?>
<svg baseProfile="full" height="256" version="1.1" width="256" xmlns="http://www.w3.org/2000/svg" xmlns:ev="http://www.w3.org/2001/xml-events" xmlns:xlink="http://www.w3.org/1999/xlink"><defs /><path d="M2412 1294Q2256 1259 2116.0 1214.5Q1976 1170 1847.0 1107.5Q1718 1045 1599.0 960.0Q1480 875 1366 759Q1265 656 1182.0 531.5Q1099 407 1032.5 271.0Q966 135 915.5 -7.0Q865 -149 831 -287H615Q615 -101 651.5 75.0Q688 251 756.5 412.0Q825 573 922.5 717.0Q1020 861 1142.0 983.0Q1264 1105 1408.0 1202.5Q1552 1300 1713.0 1368.5Q1874 1437 2050.0 1473.5Q2226 1510 2412 1510V1294Z" style="fill:#ffb02e;stroke:none" transform="scale(1,-1) translate(0,-256)" /></svg>