<?xml version="1.0" encoding="utf-8" ?>
<svg baseProfile="full" height="256" version="1.1" width="256" xmlns="http://www.w3.org/2000/svg" xmlns:ev="http://www.w3.org/2001/xml-events" xmlns:xlink="http://www.w3.org/1999/xlink"><defs /><path d="M2412 1510Q2236 1483 2063.5 1433.5Q1891 1384 1728.5 1310.5Q1566 1237 1417.0 1138.0Q1268 1039 1141 912Q1048 820 982.0 731.5Q916 643 867.5 549.5Q819 456 783.0 351.5Q747 247 714 122Q687 19 663.0 -82.5Q639 -184 615 -287Q602 -289 589.5 -288.5Q577 -288 563 -288Q533 -288 504.5 -280.0Q476 -272 454.0 -255.5Q432 -239 418.5 -214.0Q405 -189 405 -154V-144Q416 -23 438.0 93.0Q460 209 497 325Q567 547 683.5 743.5Q800 940 956.0 1103.0Q1112 1266 1302.5 1392.0Q1493 1518 1712 1598Q1824 1640 1939.0 1667.5Q2054 1695 2172 1710Q2201 1714 2220.5 1717.0Q2240 1720 2269 1720Q2299 1720 2325.5 1710.0Q2352 1700 2371.0 1681.5Q2390 1663 2401.0 1637.5Q2412 1612 2412 1581Z" style="fill:#f8312f;stroke:none" transform="scale(1,-1) translate(0,-256)" /></svg>