<?xml version="1.0" encoding="utf-8" ?>
<svg baseProfile="full" height="256" version="1.1" width="256" xmlns="http://www.w3.org/2000/svg" xmlns:ev="http://www.w3.org/2001/xml-events" xmlns:xlink="http://www.w3.org/1999/xlink"><defs /><path d="M1826 1081Q1881 1081 1920.5 1056.0Q1960 1031 1978 979Q1982 969 1985.5 954.5Q1989 940 1989 930L2000 256Q2000 248 2000.5 239.5Q2001 231 2001 223Q2001 158 1983.5 94.0Q1966 30 1934.0 -28.0Q1902 -86 1857.0 -134.5Q1812 -183 1757 -217Q1699 -252 1633.0 -270.0Q1567 -288 1500 -288Q1397 -288 1299.0 -249.0Q1201 -210 1128 -137Q1114 -123 1100.5 -108.0Q1087 -93 1077 -77Q1015 24 953.5 124.5Q892 225 831 327Q785 402 740.5 477.5Q696 553 651 629Q642 644 638.5 662.0Q635 680 635 697Q635 730 645.0 759.0Q655 788 674.5 810.5Q694 833 721.0 846.0Q748 859 783 859Q790 859 798.0 858.0Q806 857 812 854Q794 886 778.0 917.0Q762 948 762 987Q762 1020 775.0 1055.0Q788 1090 818 1109Q838 1121 861.0 1130.0Q884 1139 908 1139Q913 1139 921.0 1138.5Q929 1138 934 1134Q917 1152 909.0 1175.0Q901 1198 901 1222Q901 1253 913.0 1280.5Q925 1308 945.5 1328.0Q966 1348 993.5 1359.5Q1021 1371 1052 1371Q1085 1371 1106.0 1363.0Q1127 1355 1143.0 1341.0Q1159 1327 1173.0 1307.5Q1187 1288 1205 1264Q1209 1289 1221.5 1311.0Q1234 1333 1252.0 1349.5Q1270 1366 1293.0 1375.5Q1316 1385 1342 1385Q1379 1385 1414.0 1364.5Q1449 1344 1467 1312L1681 930Q1682 960 1693.0 987.0Q1704 1014 1723.5 1035.0Q1743 1056 1769.0 1068.5Q1795 1081 1826 1081Z" style="fill:#f59f00;stroke:none" transform="scale(1,-1) translate(0,-256)" /></svg>