<?xml version="1.0" encoding="utf-8" ?>
<svg baseProfile="full" height="256" version="1.1" width="256" xmlns="http://www.w3.org/2000/svg" xmlns:ev="http://www.w3.org/2001/xml-events" xmlns:xlink="http://www.w3.org/1999/xlink"><defs /><path d="M1606 1281Q1611 1302 1620.5 1321.0Q1630 1340 1644 1357Q1672 1309 1701.0 1263.5Q1730 1218 1759 1171Q1801 1104 1843.5 1038.5Q1886 973 1926 905Q1932 896 1932 886Q1932 871 1921.0 860.5Q1910 850 1895 850Q1878 850 1865 866Q1850 885 1837.5 908.0Q1825 931 1812 951Q1783 996 1755.0 1041.5Q1727 1087 1698 1133Q1691 1144 1677.5 1165.0Q1664 1186 1649.0 1209.0Q1634 1232 1622.0 1252.0Q1610 1272 1606 1281ZM1326 1151Q1321 1152 1315.5 1152.5Q1310 1153 1304 1153H1298H1308Q1313 1153 1317.0 1153.0Q1321 1153 1326 1151ZM1330 1150Q1302 1182 1299 1225H1303Q1349 1225 1390.5 1206.0Q1432 1187 1466 1157Q1482 1143 1494.5 1125.0Q1507 1107 1518 1090Q1548 1044 1575.5 998.0Q1603 952 1631 904Q1647 877 1664.5 850.5Q1682 824 1697 796Q1702 786 1702 776Q1702 762 1691.5 751.0Q1681 740 1666 740Q1648 740 1636 757Q1617 783 1601.0 812.5Q1585 842 1568 870Q1542 916 1514.5 960.5Q1487 1005 1458 1050Q1450 1063 1440.0 1078.0Q1430 1093 1419 1104Q1400 1121 1377.5 1133.0Q1355 1145 1330 1150ZM1208 867Q1197 886 1185.5 907.0Q1174 928 1166 948H1170Q1190 948 1208.5 943.0Q1227 938 1244 930Q1287 912 1316.5 887.5Q1346 863 1368.0 833.0Q1390 803 1408.5 768.5Q1427 734 1449 695Q1453 688 1463.5 670.5Q1474 653 1485.5 633.5Q1497 614 1505.5 597.0Q1514 580 1514 574Q1514 560 1503.0 549.0Q1492 538 1478 538Q1460 538 1448 555Q1439 569 1425.5 592.0Q1412 615 1396.5 642.5Q1381 670 1364.5 699.0Q1348 728 1332.5 753.5Q1317 779 1304.0 798.5Q1291 818 1281 826Q1267 838 1246.5 850.0Q1226 862 1208 867ZM2087 943Q2087 966 2096.0 991.0Q2105 1016 2118 1034Q2121 1028 2130.0 1013.0Q2139 998 2150.5 978.0Q2162 958 2174.5 936.0Q2187 914 2197.5 894.5Q2208 875 2214.5 860.5Q2221 846 2221 842Q2221 828 2210.5 817.0Q2200 806 2185 806Q2165 806 2154 824Q2135 852 2119.5 883.0Q2104 914 2087 943Z" style="fill:#d67d00;stroke:none" transform="scale(1,-1) translate(0,-256)" /></svg>