<?xml version="1.0" encoding="utf-8" ?>
<svg baseProfile="full" height="256" version="1.1" width="256" xmlns="http://www.w3.org/2000/svg" xmlns:ev="http://www.w3.org/2001/xml-events" xmlns:xlink="http://www.w3.org/1999/xlink"><defs /><path d="M740 1661Q740 1673 746.5 1681.0Q753 1689 764 1693Q771 1695 786.5 1700.5Q802 1706 818.5 1711.5Q835 1717 849.5 1721.0Q864 1725 870 1725Q884 1725 893.5 1715.5Q903 1706 903 1692Q903 1655 899.0 1617.0Q895 1579 893 1541Q892 1528 882.5 1519.0Q873 1510 860 1510Q845 1510 835 1523L747 1641Q740 1651 740 1661ZM512 1491Q512 1505 521 1514L590 1588Q599 1598 613 1598Q633 1598 643 1580Q647 1571 658.5 1550.5Q670 1530 681.0 1507.0Q692 1484 701.0 1464.0Q710 1444 710 1437Q710 1423 700.5 1413.5Q691 1404 677 1404Q670 1404 649.5 1411.5Q629 1419 606.0 1429.0Q583 1439 561.5 1448.5Q540 1458 531 1462Q522 1466 517.0 1474.0Q512 1482 512 1491ZM615 1249Q615 1268 601 1277L477 1360Q468 1366 458 1366Q446 1366 437.0 1358.5Q428 1351 425 1340Q423 1330 418.5 1314.5Q414 1299 410.0 1283.0Q406 1267 403.0 1252.0Q400 1237 400 1228Q400 1215 409.5 1205.5Q419 1196 433 1196Q446 1196 466.0 1198.5Q486 1201 508.0 1204.0Q530 1207 550.5 1210.5Q571 1214 586 1216Q599 1218 607.0 1227.0Q615 1236 615 1249Z" style="fill:#46a4fb;stroke:none" transform="scale(1,-1) translate(0,-256)" /></svg>