<?xml version="1.0" encoding="utf-8" ?>
<svg baseProfile="full" height="256" version="1.1" width="256" xmlns="http://www.w3.org/2000/svg" xmlns:ev="http://www.w3.org/2001/xml-events" xmlns:xlink="http://www.w3.org/1999/xlink"><defs /><path d="M724 673Q724 692 737 705L1420 1389Q1433 1402 1452 1402Q1462 1402 1472.5 1397.0Q1483 1392 1491.0 1383.5Q1499 1375 1504.5 1364.5Q1510 1354 1510 1344Q1510 1326 1497 1313L813 629Q807 623 798.5 619.0Q790 615 781 615Q771 615 761.0 620.5Q751 626 742.5 634.5Q734 643 729.0 653.0Q724 663 724 673ZM822 189Q822 211 838 227L1898 1287Q1914 1303 1936 1303Q1959 1303 1974.5 1287.5Q1990 1272 1990 1249Q1990 1227 1974 1211L914 151Q898 135 876 135Q853 135 837.5 150.5Q822 166 822 189ZM1360 36Q1379 36 1392 49L2076 733Q2089 746 2089 764Q2089 774 2083.5 784.5Q2078 795 2070.0 803.0Q2062 811 2051.5 816.5Q2041 822 2031 822Q2013 822 2000 809L1316 125Q1303 112 1303 93Q1303 83 1308.0 73.0Q1313 63 1321.5 54.5Q1330 46 1340.0 41.0Q1350 36 1360 36Z" style="fill:#d3883e;stroke:none" transform="scale(1,-1) translate(0,-256)" /></svg>