<?xml version="1.0" encoding="utf-8" ?>
<svg baseProfile="full" height="256" version="1.1" width="256" xmlns="http://www.w3.org/2000/svg" xmlns:ev="http://www.w3.org/2001/xml-events" xmlns:xlink="http://www.w3.org/1999/xlink"><defs /><path d="M1406 1366Q1406 1336 1385.0 1315.0Q1364 1294 1334 1294Q1304 1294 1283.0 1315.0Q1262 1336 1262 1366Q1262 1396 1283.0 1417.0Q1304 1438 1334 1438Q1364 1438 1385.0 1417.0Q1406 1396 1406 1366ZM1764 1366Q1764 1337 1743.0 1315.5Q1722 1294 1693 1294Q1663 1294 1642.0 1315.0Q1621 1336 1621 1366Q1621 1396 1642.0 1417.0Q1663 1438 1693 1438Q1722 1438 1743.0 1416.5Q1764 1395 1764 1366Z" style="fill:#fdbb11;stroke:none" transform="scale(1,-1) translate(0,-256)" /></svg>