<?xml version="1.0" encoding="utf-8" ?>
<svg baseProfile="full" height="256" version="1.1" width="256" xmlns="http://www.w3.org/2000/svg" xmlns:ev="http://www.w3.org/2001/xml-events" xmlns:xlink="http://www.w3.org/1999/xlink"><defs /><path d="M1409 1423Q1417 1423 1427.0 1419.5Q1437 1416 1445.5 1409.5Q1454 1403 1460.0 1394.5Q1466 1386 1466 1377Q1466 1373 1464.0 1369.0Q1462 1365 1457 1365H1364Q1359 1365 1355.5 1368.0Q1352 1371 1352 1376Q1352 1386 1357.5 1394.5Q1363 1403 1371.5 1409.5Q1380 1416 1390.0 1419.5Q1400 1423 1409 1423ZM1608 1423Q1600 1423 1590.0 1419.5Q1580 1416 1571.0 1409.5Q1562 1403 1556.0 1394.5Q1550 1386 1550 1377Q1550 1373 1552.0 1369.0Q1554 1365 1559 1365H1652Q1657 1365 1660.5 1368.0Q1664 1371 1664 1376Q1664 1396 1645.0 1409.5Q1626 1423 1608 1423Z" style="fill:#ffffff;stroke:none" transform="scale(1,-1) translate(0,-256)" /></svg>