<?xml version="1.0" encoding="utf-8" ?>
<svg baseProfile="full" height="256" version="1.1" width="256" xmlns="http://www.w3.org/2000/svg" xmlns:ev="http://www.w3.org/2001/xml-events" xmlns:xlink="http://www.w3.org/1999/xlink"><defs /><path d="M1514 1243Q1523 1243 1533.5 1245.5Q1544 1248 1553.5 1250.5Q1563 1253 1570.0 1255.5Q1577 1258 1580 1258Q1586 1258 1586 1252Q1586 1244 1577.5 1236.5Q1569 1229 1557.0 1223.5Q1545 1218 1533.0 1214.5Q1521 1211 1514 1211Q1507 1211 1495.0 1214.0Q1483 1217 1471.0 1222.5Q1459 1228 1450.5 1235.5Q1442 1243 1442 1252Q1442 1258 1448 1258Q1451 1258 1458.0 1255.5Q1465 1253 1474.0 1250.5Q1483 1248 1493.5 1245.5Q1504 1243 1514 1243Z" style="fill:#990839;stroke:none" transform="scale(1,-1) translate(0,-256)" /></svg>