<?xml version="1.0" encoding="utf-8" ?>
<svg baseProfile="full" height="256" version="1.1" width="256" xmlns="http://www.w3.org/2000/svg" xmlns:ev="http://www.w3.org/2001/xml-events" xmlns:xlink="http://www.w3.org/1999/xlink"><defs /><path d="M1478 1298Q1478 1303 1480.5 1313.0Q1483 1323 1486.5 1334.0Q1490 1345 1493.5 1355.5Q1497 1366 1499 1372Q1502 1384 1514 1384Q1525 1384 1528 1372Q1529 1367 1533.0 1356.5Q1537 1346 1540.5 1334.0Q1544 1322 1547.0 1311.5Q1550 1301 1550 1298Q1550 1289 1544.0 1282.5Q1538 1276 1529 1276H1499Q1490 1276 1484.0 1282.5Q1478 1289 1478 1298Z" style="fill:#ed9200;stroke:none" transform="scale(1,-1) translate(0,-256)" /></svg>