<?xml version="1.0" encoding="utf-8" ?>
<svg baseProfile="full" height="256" version="1.1" width="256" xmlns="http://www.w3.org/2000/svg" xmlns:ev="http://www.w3.org/2001/xml-events" xmlns:xlink="http://www.w3.org/1999/xlink"><defs /><path d="M1756 870Q1756 840 1752.0 810.0Q1748 780 1748 750Q1748 715 1756.5 683.5Q1765 652 1765 625Q1765 582 1739.0 557.0Q1713 532 1676.0 519.5Q1639 507 1597.0 503.5Q1555 500 1524 500Q1492 500 1450.0 503.0Q1408 506 1370.0 519.0Q1332 532 1306.0 556.5Q1280 581 1280 625Q1280 650 1288.5 680.0Q1297 710 1297 745Q1297 773 1293.5 801.0Q1290 829 1290 857V1091Q1328 1111 1374 1121V1066Q1374 1035 1385.5 1008.0Q1397 981 1417.5 960.5Q1438 940 1465.0 928.5Q1492 917 1523 917Q1554 917 1581.5 928.5Q1609 940 1629.0 960.5Q1649 981 1661.0 1008.0Q1673 1035 1673 1066V1124Q1695 1120 1715.5 1113.5Q1736 1107 1756 1098V870Z" style="fill:#ff6723;stroke:none" transform="scale(1,-1) translate(0,-256)" /></svg>