<?xml version="1.0" encoding="utf-8" ?>
<svg baseProfile="full" height="256" version="1.1" width="256" xmlns="http://www.w3.org/2000/svg" xmlns:ev="http://www.w3.org/2001/xml-events" xmlns:xlink="http://www.w3.org/1999/xlink"><defs /><path d="M1298 1492Q1302 1517 1314.5 1538.5Q1327 1560 1345.0 1575.5Q1363 1591 1386.0 1600.0Q1409 1609 1435 1609H1493Q1500 1609 1508.0 1597.0Q1516 1585 1528.0 1571.0Q1540 1557 1558.5 1545.0Q1577 1533 1606 1533Q1627 1533 1646.5 1533.0Q1666 1533 1682.0 1528.0Q1698 1523 1708.0 1510.0Q1718 1497 1721 1471Q1722 1463 1724.0 1453.5Q1726 1444 1725 1436Q1722 1388 1719.0 1339.5Q1716 1291 1713 1243Q1711 1213 1696.5 1187.0Q1682 1161 1660.0 1142.0Q1638 1123 1610.0 1112.0Q1582 1101 1553 1101H1475Q1446 1101 1418.0 1112.0Q1390 1123 1367.5 1142.5Q1345 1162 1330.5 1187.5Q1316 1213 1314 1243Q1310 1303 1306.5 1362.0Q1303 1421 1299 1481Q1299 1488 1298 1492Z" style="fill:#ffc83d;stroke:none" transform="scale(1,-1) translate(0,-256)" /></svg>