<?xml version="1.0" encoding="utf-8" ?>
<svg baseProfile="full" height="256" version="1.1" width="256" xmlns="http://www.w3.org/2000/svg" xmlns:ev="http://www.w3.org/2001/xml-events" xmlns:xlink="http://www.w3.org/1999/xlink"><defs /><path d="M2003 1203V1247Q2003 1267 2008.0 1281.5Q2013 1296 2022.0 1308.0Q2031 1320 2042.5 1331.0Q2054 1342 2068 1355Q2078 1365 2094 1365Q2109 1365 2119.5 1354.5Q2130 1344 2130 1329Q2130 1310 2114.5 1296.0Q2099 1282 2087 1270Q2081 1264 2078.5 1251.0Q2076 1238 2076.0 1224.0Q2076 1210 2077.0 1196.5Q2078 1183 2078 1176Q2060 1184 2041.5 1192.5Q2023 1201 2003 1203ZM798 647Q812 647 821.0 655.5Q830 664 830 678Q830 686 826.5 692.5Q823 699 823 707Q823 719 829.5 730.0Q836 741 846 747L793 786Q776 773 767.5 753.0Q759 733 759 713Q759 704 761.0 692.5Q763 681 767.5 671.0Q772 661 779.5 654.0Q787 647 798 647Z" style="fill:#fdbb11;stroke:none" transform="scale(1,-1) translate(0,-256)" /></svg>