<?xml version="1.0" encoding="utf-8" ?>
<svg baseProfile="full" height="256" version="1.1" width="256" xmlns="http://www.w3.org/2000/svg" xmlns:ev="http://www.w3.org/2001/xml-events" xmlns:xlink="http://www.w3.org/1999/xlink"><defs /><path d="M1368 1480Q1373 1483 1378.0 1486.5Q1383 1490 1389 1492Q1398 1496 1409.5 1498.0Q1421 1500 1431 1500Q1438 1500 1446.5 1498.5Q1455 1497 1455 1487Q1455 1476 1444 1476Q1415 1476 1396.0 1468.0Q1377 1460 1374 1460Q1363 1460 1363 1471Q1363 1477 1367 1480ZM1671 1471Q1671 1459 1659 1459Q1657 1459 1653 1461Q1654 1462 1653.5 1462.5Q1653 1463 1652 1462Q1641 1470 1628.0 1473.5Q1615 1477 1602 1477Q1595 1477 1587.0 1476.5Q1579 1476 1579 1487Q1579 1497 1587.5 1498.5Q1596 1500 1603 1500Q1624 1500 1645 1492Q1649 1490 1653.5 1488.0Q1658 1486 1661 1484Q1662 1483 1664.0 1481.5Q1666 1480 1667 1480Q1671 1477 1671 1471Z" style="fill:#d37034;stroke:none" transform="scale(1,-1) translate(0,-256)" /></svg>