<?xml version="1.0" encoding="utf-8" ?>
<svg baseProfile="full" height="256" version="1.1" width="256" xmlns="http://www.w3.org/2000/svg" xmlns:ev="http://www.w3.org/2001/xml-events" xmlns:xlink="http://www.w3.org/1999/xlink"><defs /><path d="M1680 705Q1703 693 1724.5 676.0Q1746 659 1765 641Q1854 555 1894.0 443.0Q1934 331 1934 209Q1934 106 1897.5 15.5Q1861 -75 1796.5 -142.0Q1732 -209 1642.5 -248.0Q1553 -287 1448 -287H1223Q1185 -287 1150.0 -276.5Q1115 -266 1085.0 -246.5Q1055 -227 1030.5 -199.5Q1006 -172 991 -138Q983 -121 979.0 -104.5Q975 -88 971 -70Q968 -58 958 -54L897 -29Q850 -9 822.5 30.5Q795 70 795 121Q795 127 794.0 138.0Q793 149 794.5 159.5Q796 170 800.0 177.5Q804 185 815 185Q817 185 823 183L945 135Q973 124 990.0 105.5Q1007 87 1023 63Q1030 53 1039 53Q1049 53 1056 63Q1073 89 1088.5 106.0Q1104 123 1134 135L1256 183Q1260 185 1264 185Q1272 185 1278.0 179.0Q1284 173 1284 165V121Q1284 70 1256.0 30.5Q1228 -9 1182 -29Q1177 -31 1166.0 -34.5Q1155 -38 1144.0 -43.0Q1133 -48 1125.0 -53.5Q1117 -59 1117 -66Q1117 -70 1118 -71Q1130 -98 1151.0 -114.0Q1172 -130 1198.0 -138.0Q1224 -146 1252.0 -148.0Q1280 -150 1306 -150Q1356 -150 1400.0 -138.0Q1444 -126 1477.0 -101.0Q1510 -76 1529.5 -37.0Q1549 2 1549 56Q1549 61 1549.0 65.0Q1549 69 1548 74Q1542 125 1514.5 160.5Q1487 196 1449.0 224.0Q1411 252 1369.0 275.5Q1327 299 1291.5 327.5Q1256 356 1232.5 392.5Q1209 429 1209 482Q1209 513 1218.0 544.5Q1227 576 1243.0 603.5Q1259 631 1282.0 654.0Q1305 677 1333 691Q1339 694 1353.0 699.5Q1367 705 1374 705Q1394 705 1422.5 703.0Q1451 701 1481.5 698.0Q1512 695 1541.0 692.0Q1570 689 1592 687Q1610 685 1626.0 684.0Q1642 683 1659 677L1680 705Z" style="fill:#00d26a;stroke:none" transform="scale(1,-1) translate(0,-256)" /></svg>