<?xml version="1.0" encoding="utf-8" ?>
<svg baseProfile="full" height="256" version="1.1" width="256" xmlns="http://www.w3.org/2000/svg" xmlns:ev="http://www.w3.org/2001/xml-events" xmlns:xlink="http://www.w3.org/1999/xlink"><defs /><path d="M1577 1725Q1603 1725 1625.0 1712.5Q1647 1700 1661 1678Q1675 1656 1696.0 1645.5Q1717 1635 1736.5 1623.5Q1756 1612 1770.0 1595.0Q1784 1578 1784 1542Q1784 1525 1779.5 1513.0Q1775 1501 1769.0 1491.5Q1763 1482 1758.5 1472.0Q1754 1462 1754 1450V1280Q1754 1251 1737.5 1228.0Q1721 1205 1694 1196L1616 1169V1473Q1603 1486 1597.0 1500.0Q1591 1514 1588 1531Q1570 1526 1548.5 1534.0Q1527 1542 1513 1553Q1487 1530 1450 1530Q1443 1530 1439 1531Q1436 1512 1429.5 1499.5Q1423 1487 1411 1473V1168L1333 1195Q1306 1204 1289.5 1227.0Q1273 1250 1273 1279V1450Q1273 1462 1268.5 1471.5Q1264 1481 1258.5 1491.0Q1253 1501 1248.5 1513.0Q1244 1525 1244 1542Q1244 1576 1258.0 1593.5Q1272 1611 1291.5 1623.0Q1311 1635 1332.0 1646.0Q1353 1657 1368 1680Q1382 1701 1403.5 1713.0Q1425 1725 1450 1725Q1467 1725 1482.0 1718.5Q1497 1712 1514 1712Q1531 1712 1545.5 1718.5Q1560 1725 1577 1725Z" style="fill:#f1a11e;stroke:none" transform="scale(1,-1) translate(0,-256)" /></svg>