<?xml version="1.0" encoding="utf-8" ?>
<svg baseProfile="full" height="256" version="1.1" width="256" xmlns="http://www.w3.org/2000/svg" xmlns:ev="http://www.w3.org/2001/xml-events" xmlns:xlink="http://www.w3.org/1999/xlink"><defs /><path d="M1417 1397Q1426 1397 1432.5 1390.5Q1439 1384 1439 1375Q1439 1369 1435 1365H1398Q1396 1368 1396 1375Q1396 1383 1402.0 1390.0Q1408 1397 1417 1397ZM1600 1397Q1591 1397 1584.5 1390.5Q1578 1384 1578 1375Q1578 1369 1582 1365H1619Q1621 1368 1621 1375Q1621 1383 1615.0 1390.0Q1609 1397 1600 1397Z" style="fill:#000000;stroke:none" transform="scale(1,-1) translate(0,-256)" /></svg>