<?xml version="1.0" encoding="utf-8" ?>
<svg baseProfile="full" height="256" version="1.1" width="256" xmlns="http://www.w3.org/2000/svg" xmlns:ev="http://www.w3.org/2001/xml-events" xmlns:xlink="http://www.w3.org/1999/xlink"><defs /><path d="M1380 1375Q1380 1391 1390.5 1402.0Q1401 1413 1417 1413Q1433 1413 1444.0 1402.0Q1455 1391 1455 1375Q1455 1373 1453.5 1370.0Q1452 1367 1453 1365H1381Q1381 1367 1380.5 1370.0Q1380 1373 1380 1375ZM1636 1375Q1636 1391 1625.5 1402.0Q1615 1413 1599 1413Q1584 1413 1573.0 1401.5Q1562 1390 1562 1375Q1562 1368 1563 1365H1635Q1635 1367 1635.5 1370.0Q1636 1373 1636 1375Z" style="fill:#7d4533;stroke:none" transform="scale(1,-1) translate(0,-256)" /></svg>