<?xml version="1.0" encoding="utf-8" ?>
<svg baseProfile="full" height="256" version="1.1" width="256" xmlns="http://www.w3.org/2000/svg" xmlns:ev="http://www.w3.org/2001/xml-events" xmlns:xlink="http://www.w3.org/1999/xlink"><defs /><path d="M2123 1306Q2138 1306 2149.5 1295.5Q2161 1285 2161 1270V885Q2161 859 2152.0 836.5Q2143 814 2126.5 797.5Q2110 781 2088.0 771.0Q2066 761 2040 761Q2022 761 2008.5 765.5Q1995 770 1979 777Q1907 807 1835.5 836.5Q1764 866 1693 899L1296 858Q1244 807 1212.0 772.5Q1180 738 1156.0 716.5Q1132 695 1111.0 684.0Q1090 673 1060.5 668.5Q1031 664 988.0 663.5Q945 663 877 663Q868 663 862.0 659.0Q856 655 850.5 650.0Q845 645 839.0 641.0Q833 637 824 637Q808 637 798.5 646.5Q789 656 789 671Q789 683 795.0 691.5Q801 700 808.5 706.5Q816 713 822.0 719.0Q828 725 828 732Q828 737 824.0 742.0Q820 747 813 747Q794 747 783.0 736.0Q772 725 763.5 712.5Q755 700 746.0 689.0Q737 678 722 678Q708 678 698.0 687.5Q688 697 688 711Q688 722 697.0 735.0Q706 748 711 756Q729 785 754.5 798.5Q780 812 812 816L1007 838Q1020 839 1030 849L1203 1022Q1231 1050 1253.0 1067.5Q1275 1085 1298.0 1094.5Q1321 1104 1349.0 1108.0Q1377 1112 1417 1114Q1465 1116 1512.5 1119.5Q1560 1123 1608 1123Q1649 1123 1689.5 1116.5Q1730 1110 1768 1093L1975 996Q1976 1005 1981.0 1028.0Q1986 1051 1990.5 1077.0Q1995 1103 1999.0 1125.0Q2003 1147 2003 1153Q2003 1157 1999.5 1163.0Q1996 1169 1991.0 1175.0Q1986 1181 1981.0 1186.0Q1976 1191 1974 1194Q1963 1207 1958.5 1222.5Q1954 1238 1952.5 1254.5Q1951 1271 1952.0 1287.5Q1953 1304 1953 1321Q1953 1338 1964.0 1348.5Q1975 1359 1992 1359Q2007 1359 2017.0 1346.5Q2027 1334 2027 1320Q2027 1308 2025.5 1291.5Q2024 1275 2026.0 1260.5Q2028 1246 2035.5 1235.5Q2043 1225 2062 1225Q2079 1225 2082.0 1237.5Q2085 1250 2086.5 1265.5Q2088 1281 2094.0 1293.5Q2100 1306 2123 1306Z" style="fill:#ffc83d;stroke:none" transform="scale(1,-1) translate(0,-256)" /></svg>