<?xml version="1.0" encoding="utf-8" ?>
<svg baseProfile="full" height="256" version="1.1" width="256" xmlns="http://www.w3.org/2000/svg" xmlns:ev="http://www.w3.org/2001/xml-events" xmlns:xlink="http://www.w3.org/1999/xlink"><defs /><path d="M1478 650 1025 214Q1005 194 975 194Q945 194 924.0 214.5Q903 235 903 265V1172Q903 1202 924.0 1223.0Q945 1244 975 1244Q1005 1244 1025 1224L1478 788V1172Q1478 1202 1499.0 1223.0Q1520 1244 1550 1244Q1578 1244 1600 1224L2071 771Q2082 761 2087.5 747.0Q2093 733 2093 719Q2093 689 2071 667L1600 214Q1578 194 1550 194Q1520 194 1499.0 214.5Q1478 235 1478 265Z" style="fill:#ffffff;stroke:none" transform="scale(1,-1) translate(0,-256)" /></svg>