<?xml version="1.0" encoding="utf-8" ?>
<svg baseProfile="full" height="256" version="1.1" width="256" xmlns="http://www.w3.org/2000/svg" xmlns:ev="http://www.w3.org/2001/xml-events" xmlns:xlink="http://www.w3.org/1999/xlink"><defs /><path d="M1383 1342Q1383 1382 1399.0 1417.5Q1415 1453 1442.0 1480.0Q1469 1507 1504.5 1523.0Q1540 1539 1580 1539Q1616 1539 1648.0 1526.0Q1680 1513 1703.0 1489.5Q1726 1466 1739.5 1434.5Q1753 1403 1753 1367Q1753 1327 1737.0 1291.0Q1721 1255 1694.0 1228.0Q1667 1201 1631.5 1185.0Q1596 1169 1556 1169Q1520 1169 1488.0 1182.5Q1456 1196 1433.0 1219.0Q1410 1242 1396.5 1274.0Q1383 1306 1383 1342Z" style="fill:#ffffff;stroke:none" transform="scale(1,-1) translate(0,-256)" /></svg>