<?xml version="1.0" encoding="utf-8" ?>
<svg baseProfile="full" height="256" version="1.1" width="256" xmlns="http://www.w3.org/2000/svg" xmlns:ev="http://www.w3.org/2001/xml-events" xmlns:xlink="http://www.w3.org/1999/xlink"><defs /><path d="M1401 585Q1322 585 1249.5 605.5Q1177 626 1113.5 663.0Q1050 700 998.0 752.0Q946 804 909.0 867.5Q872 931 851.5 1003.5Q831 1076 831 1155Q831 1234 851.5 1306.5Q872 1379 909.0 1442.5Q946 1506 998.0 1558.0Q1050 1610 1113.5 1647.0Q1177 1684 1249.5 1704.5Q1322 1725 1401 1725Q1480 1725 1552.5 1704.5Q1625 1684 1688.5 1647.0Q1752 1610 1804.0 1558.0Q1856 1506 1893.0 1442.5Q1930 1379 1950.5 1306.5Q1971 1234 1971 1155Q1971 1076 1950.5 1003.5Q1930 931 1893.0 867.5Q1856 804 1804.0 752.0Q1752 700 1688.5 663.0Q1625 626 1552.5 605.5Q1480 585 1401 585Z" style="fill:#f70a8d;stroke:none" transform="scale(1,-1) translate(0,-256)" /></svg>