<?xml version="1.0" encoding="utf-8" ?>
<svg baseProfile="full" height="256" version="1.1" width="256" xmlns="http://www.w3.org/2000/svg" xmlns:ev="http://www.w3.org/2001/xml-events" xmlns:xlink="http://www.w3.org/1999/xlink"><defs /><path d="M831 608Q831 621 839 632L1538 1631Q1546 1642 1556.5 1648.5Q1567 1655 1580 1655Q1596 1655 1609.0 1644.5Q1622 1634 1622 1617V791Q1622 777 1628.0 764.5Q1634 752 1644.0 741.5Q1654 731 1666.5 725.0Q1679 719 1693 719H1945Q1961 719 1971.0 708.0Q1981 697 1981 681Q1981 666 1973 655L1282 -267Q1267 -288 1242 -288Q1219 -288 1204.5 -272.0Q1190 -256 1190 -234V539Q1190 559 1182.0 567.0Q1174 575 1154 575H867Q853 575 842.0 584.0Q831 593 831 608Z" style="fill:#ff822d;stroke:none" transform="scale(1,-1) translate(0,-256)" /></svg>