<?xml version="1.0" encoding="utf-8" ?>
<svg baseProfile="full" height="256" version="1.1" width="256" xmlns="http://www.w3.org/2000/svg" xmlns:ev="http://www.w3.org/2001/xml-events" xmlns:xlink="http://www.w3.org/1999/xlink"><defs /><path d="M875 1607Q730 1607 623.0 1551.5Q516 1496 431 1381Q419 1364 400 1364Q384 1364 373.0 1375.0Q362 1386 362 1402Q362 1414 368 1423Q409 1488 465.0 1536.5Q521 1585 587.0 1617.5Q653 1650 726.5 1666.0Q800 1682 875 1682Q927 1682 984.5 1676.0Q1042 1670 1092 1654Q1120 1646 1120 1617Q1120 1601 1109.0 1590.5Q1098 1580 1083 1580Q1076 1580 1073 1581Q1023 1592 974.5 1599.5Q926 1607 875 1607ZM1406 1052Q1380 1091 1346.0 1128.5Q1312 1166 1272.0 1198.0Q1232 1230 1187.5 1252.5Q1143 1275 1097 1284Q1071 1289 1043.0 1291.5Q1015 1294 988 1294Q888 1294 806.0 1258.5Q724 1223 665.5 1161.0Q607 1099 575.0 1014.5Q543 930 543 833Q543 801 547.0 770.0Q551 739 559 709Q588 599 651.5 491.5Q715 384 797.0 285.5Q879 187 971.0 99.5Q1063 12 1149 -59Q1190 -92 1231.0 -126.0Q1272 -160 1316 -188Q1339 -202 1359.0 -210.0Q1379 -218 1406 -218Q1433 -218 1453.0 -210.0Q1473 -202 1496 -188Q1540 -160 1581.0 -126.0Q1622 -92 1663 -59Q1749 12 1841.0 99.5Q1933 187 2015.0 285.5Q2097 384 2160.5 491.0Q2224 598 2253 709Q2261 739 2265.0 770.0Q2269 801 2269 833Q2269 930 2237.0 1014.5Q2205 1099 2146.5 1161.0Q2088 1223 2006.0 1258.5Q1924 1294 1824 1294Q1797 1294 1769.0 1291.5Q1741 1289 1715 1284Q1669 1275 1624.5 1252.0Q1580 1229 1540.0 1197.5Q1500 1166 1465.5 1128.0Q1431 1090 1406 1052ZM855 1445Q876 1445 897.0 1441.5Q918 1438 938 1438Q953 1438 964.0 1448.5Q975 1459 975 1474Q975 1491 961.0 1500.0Q947 1509 928.0 1512.5Q909 1516 888.5 1516.5Q868 1517 856 1517Q762 1517 681.0 1474.0Q600 1431 549 1350Q543 1341 543 1330Q543 1316 554.0 1305.0Q565 1294 580 1294Q598 1294 609 1310Q657 1376 714.5 1410.5Q772 1445 855 1445ZM1937 1607Q2082 1607 2189.0 1551.5Q2296 1496 2381 1381Q2393 1364 2412 1364Q2428 1364 2439.0 1375.0Q2450 1386 2450 1402Q2450 1414 2444 1423Q2403 1488 2347.0 1536.5Q2291 1585 2225.0 1617.5Q2159 1650 2085.5 1666.0Q2012 1682 1937 1682Q1885 1682 1827.5 1676.0Q1770 1670 1720 1654Q1692 1646 1692 1617Q1692 1601 1703.0 1590.5Q1714 1580 1729 1580Q1736 1580 1739 1581Q1789 1592 1837.5 1599.5Q1886 1607 1937 1607ZM1957 1445Q1936 1445 1915.0 1441.5Q1894 1438 1874 1438Q1858 1438 1847.5 1448.5Q1837 1459 1837 1474Q1837 1491 1851.0 1500.0Q1865 1509 1884.0 1512.5Q1903 1516 1923.5 1516.5Q1944 1517 1956 1517Q2050 1517 2131.0 1474.0Q2212 1431 2262 1350Q2268 1341 2268 1330Q2268 1315 2257.5 1304.5Q2247 1294 2232 1294Q2214 1294 2203 1310Q2155 1376 2097.5 1410.5Q2040 1445 1957 1445Z" style="fill:#f92f60;stroke:none" transform="scale(1,-1) translate(0,-256)" /></svg>