<?xml version="1.0" encoding="utf-8" ?>
<svg baseProfile="full" height="256" version="1.1" width="256" xmlns="http://www.w3.org/2000/svg" xmlns:ev="http://www.w3.org/2001/xml-events" xmlns:xlink="http://www.w3.org/1999/xlink"><defs /><path d="M1343 950Q1343 960 1347.5 978.5Q1352 997 1358.5 1018.0Q1365 1039 1371.0 1058.0Q1377 1077 1380 1088Q1382 1097 1389.0 1103.0Q1396 1109 1406 1109Q1416 1109 1423.0 1103.0Q1430 1097 1432 1088Q1435 1077 1441.0 1058.0Q1447 1039 1453.5 1018.5Q1460 998 1464.5 979.5Q1469 961 1469 951Q1469 935 1459.0 923.0Q1449 911 1432 911H1380Q1364 911 1353.5 923.0Q1343 935 1343 950Z" style="fill:#ed9200;stroke:none" transform="scale(1,-1) translate(0,-256)" /></svg>