<?xml version="1.0" encoding="utf-8" ?>
<svg baseProfile="full" height="256" version="1.1" width="256" xmlns="http://www.w3.org/2000/svg" xmlns:ev="http://www.w3.org/2001/xml-events" xmlns:xlink="http://www.w3.org/1999/xlink"><defs /><path d="M1780 481Q1876 429 1953.0 355.0Q2030 281 2084.5 191.0Q2139 101 2168.0 -2.5Q2197 -106 2197 -215V-287H615Q615 -236 616.5 -187.5Q618 -139 626 -88L916 119L971 444Q990 457 1010.5 469.0Q1031 481 1053 489L1007 544Q986 607 986 675Q986 762 1019.0 838.5Q1052 915 1109.5 972.5Q1167 1030 1243.5 1063.0Q1320 1096 1407 1096Q1494 1096 1570.5 1063.0Q1647 1030 1704.0 972.5Q1761 915 1794.0 838.5Q1827 762 1827 675Q1827 572 1780 481Z" style="fill:#635994;stroke:none" transform="scale(1,-1) translate(0,-256)" /></svg>