<?xml version="1.0" encoding="utf-8" ?>
<svg baseProfile="full" height="256" version="1.1" width="256" xmlns="http://www.w3.org/2000/svg" xmlns:ev="http://www.w3.org/2001/xml-events" xmlns:xlink="http://www.w3.org/1999/xlink"><defs /><path d="M1671 1204Q1669 1204 1665.0 1205.0Q1661 1206 1660 1208Q1639 1218 1617.0 1223.5Q1595 1229 1572 1229Q1564 1229 1557.0 1228.0Q1550 1227 1543 1227Q1535 1227 1528.5 1232.5Q1522 1238 1522 1247Q1522 1256 1527.5 1260.5Q1533 1265 1541.0 1267.5Q1549 1270 1557.5 1270.0Q1566 1270 1573 1270Q1580 1270 1599.5 1267.5Q1619 1265 1639.5 1259.5Q1660 1254 1675.5 1246.0Q1691 1238 1691 1226Q1691 1218 1685.5 1211.0Q1680 1204 1671 1204ZM1139 1204Q1130 1204 1124.0 1210.0Q1118 1216 1118 1225Q1118 1235 1129 1242V1243Q1157 1254 1182.0 1262.0Q1207 1270 1238 1270Q1245 1270 1253.5 1270.0Q1262 1270 1269.5 1267.5Q1277 1265 1282.5 1260.0Q1288 1255 1288 1246Q1288 1237 1281.5 1232.0Q1275 1227 1267 1227Q1259 1227 1252.0 1228.0Q1245 1229 1237 1229Q1221 1229 1205.5 1225.0Q1190 1221 1176.5 1216.5Q1163 1212 1153.0 1208.0Q1143 1204 1139 1204Z" style="fill:#d37034;stroke:none" transform="scale(1,-1) translate(0,-256)" /></svg>