<?xml version="1.0" encoding="utf-8" ?>
<svg baseProfile="full" height="256" version="1.1" width="256" xmlns="http://www.w3.org/2000/svg" xmlns:ev="http://www.w3.org/2001/xml-events" xmlns:xlink="http://www.w3.org/1999/xlink"><defs /><path d="M1238 1109Q1254 1109 1265.5 1098.5Q1277 1088 1277 1071Q1277 1066 1275.5 1062.0Q1274 1058 1273 1053H1205Q1200 1063 1200 1071Q1200 1087 1211.0 1098.0Q1222 1109 1238 1109ZM1574 1109Q1558 1109 1547.0 1098.0Q1536 1087 1536 1071Q1536 1061 1540 1053H1608Q1612 1061 1612 1071Q1612 1087 1601.0 1098.0Q1590 1109 1574 1109Z" style="fill:#000000;stroke:none" transform="scale(1,-1) translate(0,-256)" /></svg>