<?xml version="1.0" encoding="utf-8" ?>
<svg baseProfile="full" height="256" version="1.1" width="256" xmlns="http://www.w3.org/2000/svg" xmlns:ev="http://www.w3.org/2001/xml-events" xmlns:xlink="http://www.w3.org/1999/xlink"><defs /><path d="M1712 1305Q1734 1305 1751.0 1295.5Q1768 1286 1779.0 1270.5Q1790 1255 1795.5 1235.5Q1801 1216 1801 1196Q1801 1140 1796.5 1083.5Q1792 1027 1789 971Q1785 894 1755.0 823.5Q1725 753 1674.5 699.0Q1624 645 1555.5 612.5Q1487 580 1407 580Q1326 580 1258.0 612.5Q1190 645 1140.0 699.0Q1090 753 1059.5 823.5Q1029 894 1025 971Q1021 1028 1016.0 1087.5Q1011 1147 1011 1204Q1011 1239 1027.5 1269.5Q1044 1300 1076 1316Q1082 1318 1084 1320Q1148 1348 1176 1412Q1180 1421 1184.5 1430.0Q1189 1439 1201 1439Q1210 1439 1215.0 1434.5Q1220 1430 1224.5 1424.5Q1229 1419 1235.0 1414.5Q1241 1410 1252 1410Q1273 1410 1297.0 1428.5Q1321 1447 1348.0 1469.5Q1375 1492 1404.0 1511.0Q1433 1530 1464 1530L1712 1305Z" style="fill:#ffc83d;stroke:none" transform="scale(1,-1) translate(0,-256)" /></svg>