<?xml version="1.0" encoding="utf-8" ?>
<svg baseProfile="full" height="256" version="1.1" width="256" xmlns="http://www.w3.org/2000/svg" xmlns:ev="http://www.w3.org/2001/xml-events" xmlns:xlink="http://www.w3.org/1999/xlink"><defs /><path d="M1223 1159Q1240 1159 1258.0 1152.0Q1276 1145 1291.0 1132.5Q1306 1120 1316.0 1103.5Q1326 1087 1326 1069Q1326 1062 1320.5 1057.5Q1315 1053 1308 1053H1141Q1133 1053 1126.5 1059.0Q1120 1065 1120 1073Q1120 1091 1130.0 1106.5Q1140 1122 1155.5 1134.0Q1171 1146 1189.0 1152.5Q1207 1159 1223 1159ZM1590 1159Q1574 1159 1556.0 1152.0Q1538 1145 1522.5 1133.5Q1507 1122 1497.0 1106.5Q1487 1091 1487 1073Q1487 1065 1491.0 1059.0Q1495 1053 1504 1053H1672Q1680 1053 1686.5 1059.0Q1693 1065 1693 1073Q1693 1091 1683.0 1106.5Q1673 1122 1657.5 1134.0Q1642 1146 1624.0 1152.5Q1606 1159 1590 1159Z" style="fill:#ffffff;stroke:none" transform="scale(1,-1) translate(0,-256)" /></svg>