<?xml version="1.0" encoding="utf-8" ?>
<svg baseProfile="full" height="256" version="1.1" width="256" xmlns="http://www.w3.org/2000/svg" xmlns:ev="http://www.w3.org/2001/xml-events" xmlns:xlink="http://www.w3.org/1999/xlink"><defs /><path d="M1407 1725Q1464 1725 1526.0 1714.0Q1588 1703 1648.0 1681.0Q1708 1659 1762.0 1626.0Q1816 1593 1856.5 1548.5Q1897 1504 1921.0 1448.0Q1945 1392 1945 1325Q1945 1319 1944.5 1312.5Q1944 1306 1944 1300L1926 964Q1921 860 1881.5 770.5Q1842 681 1764 610Q1690 542 1598.5 508.0Q1507 474 1407 474Q1307 474 1215.0 508.0Q1123 542 1049 610Q972 681 932.5 770.5Q893 860 887 963L868 1296Q868 1303 867.5 1309.0Q867 1315 867 1322Q867 1390 891.0 1446.5Q915 1503 955.5 1547.5Q996 1592 1050.0 1625.5Q1104 1659 1164.0 1681.0Q1224 1703 1286.5 1714.0Q1349 1725 1407 1725ZM1407 618Q1485 618 1551.5 644.0Q1618 670 1667.5 716.5Q1717 763 1746.5 828.0Q1776 893 1780 971Q1783 1023 1787.0 1075.5Q1791 1128 1791 1180Q1791 1209 1767 1227L1492 1431Q1453 1459 1405 1459Q1382 1459 1360.0 1452.0Q1338 1445 1319 1431L1045 1227Q1033 1218 1026.5 1204.0Q1020 1190 1021 1175L1034 971Q1039 893 1068.5 828.0Q1098 763 1147.0 716.5Q1196 670 1262.0 644.0Q1328 618 1407 618ZM1809 554Q1789 488 1750.0 433.0Q1711 378 1657.5 338.5Q1604 299 1540.0 277.0Q1476 255 1407 255Q1339 255 1275.5 276.0Q1212 297 1159.0 335.5Q1106 374 1066.5 427.5Q1027 481 1006 546Q1088 471 1191.0 433.5Q1294 396 1404 396Q1519 396 1623.0 433.5Q1727 471 1809 553ZM1001 -180Q903 -180 808.0 -157.5Q713 -135 625 -90Q638 -8 668.0 69.0Q698 146 742.5 214.0Q787 282 845.0 340.5Q903 399 972 445Q1004 382 1050.0 334.0Q1096 286 1152.0 253.5Q1208 221 1272.5 204.5Q1337 188 1407 188Q1458 188 1507.5 195.5Q1557 203 1603.0 220.0Q1649 237 1689.5 264.5Q1730 292 1765 331Q1717 215 1639.0 120.5Q1561 26 1461.0 -41.0Q1361 -108 1243.5 -144.0Q1126 -180 1001 -180Z" style="fill:#8d65c5;stroke:none" transform="scale(1,-1) translate(0,-256)" /></svg>