<?xml version="1.0" encoding="utf-8" ?>
<svg baseProfile="full" height="256" version="1.1" width="256" xmlns="http://www.w3.org/2000/svg" xmlns:ev="http://www.w3.org/2001/xml-events" xmlns:xlink="http://www.w3.org/1999/xlink"><defs /><path d="M1170 1071Q1170 1100 1189.5 1119.5Q1209 1139 1238 1139Q1266 1139 1285.5 1119.0Q1305 1099 1305 1071Q1305 1062 1302 1053H1172Q1171 1058 1170.5 1062.0Q1170 1066 1170 1071ZM1642 1071Q1642 1100 1622.5 1119.5Q1603 1139 1574 1139Q1545 1139 1526.5 1119.5Q1508 1100 1508 1071Q1508 1066 1508.5 1062.0Q1509 1058 1510 1053H1640Q1641 1058 1641.5 1062.0Q1642 1066 1642 1071Z" style="fill:#7d4533;stroke:none" transform="scale(1,-1) translate(0,-256)" /></svg>