<?xml version="1.0" encoding="utf-8" ?>
<svg baseProfile="full" height="256" version="1.1" width="256" xmlns="http://www.w3.org/2000/svg" xmlns:ev="http://www.w3.org/2001/xml-events" xmlns:xlink="http://www.w3.org/1999/xlink"><defs /><path d="M761 1004Q761 1044 776.5 1079.5Q792 1115 818.0 1141.0Q844 1167 879.5 1182.5Q915 1198 955 1198Q995 1198 1030.5 1183.0Q1066 1168 1092.5 1141.5Q1119 1115 1134.0 1079.5Q1149 1044 1149 1004V876Q1149 836 1133.5 800.5Q1118 765 1092.0 739.0Q1066 713 1030.5 697.5Q995 682 955 682Q915 682 879.5 697.5Q844 713 818.0 739.0Q792 765 776.5 800.5Q761 836 761 876ZM1855 682Q1815 682 1779.5 697.5Q1744 713 1718.0 739.0Q1692 765 1676.5 800.5Q1661 836 1661 876H1660V1003H2049V876Q2049 836 2033.5 800.5Q2018 765 1992.0 739.0Q1966 713 1930.5 697.5Q1895 682 1855 682Z" style="fill:#fff3d7;stroke:none" transform="scale(1,-1) translate(0,-256)" /></svg>