<?xml version="1.0" encoding="utf-8" ?>
<svg baseProfile="full" height="256" version="1.1" width="256" xmlns="http://www.w3.org/2000/svg" xmlns:ev="http://www.w3.org/2001/xml-events" xmlns:xlink="http://www.w3.org/1999/xlink"><defs /><path d="M839 903Q839 918 849.5 928.5Q860 939 875 939Q890 939 900.5 928.5Q911 918 911 903V873Q911 859 900.0 848.5Q889 838 875 838Q860 838 849.5 848.5Q839 859 839 874ZM1001 903Q1001 918 1011.5 928.5Q1022 939 1037 939Q1052 939 1062.0 928.5Q1072 918 1072 903V873Q1072 859 1061.5 848.5Q1051 838 1037 838Q1022 838 1011.5 848.5Q1001 859 1001 874ZM1775 838Q1760 838 1749.5 848.5Q1739 859 1739 874V903Q1739 918 1749.5 928.5Q1760 939 1775 939Q1790 939 1800.5 928.5Q1811 918 1811 903V873Q1811 858 1800.5 848.0Q1790 838 1775 838ZM1901 903Q1901 918 1911.5 928.5Q1922 939 1937 939Q1952 939 1962.5 928.5Q1973 918 1973 903V873Q1973 859 1962.0 848.5Q1951 838 1937 838Q1922 838 1911.5 848.5Q1901 859 1901 874Z" style="fill:#000000;stroke:none" transform="scale(1,-1) translate(0,-256)" /></svg>