<?xml version="1.0" encoding="utf-8" ?>
<svg baseProfile="full" height="256" version="1.1" width="256" xmlns="http://www.w3.org/2000/svg" xmlns:ev="http://www.w3.org/2001/xml-events" xmlns:xlink="http://www.w3.org/1999/xlink"><defs /><path d="M1837 1311Q1828 1326 1815.5 1346.0Q1803 1366 1803 1385Q1803 1407 1818.5 1422.5Q1834 1438 1856 1438Q1878 1438 1893.5 1422.5Q1909 1407 1909 1384Q1909 1364 1896.5 1345.5Q1884 1327 1874 1311Q1895 1306 1908 1293Q1913 1306 1918.0 1320.5Q1923 1335 1930.5 1347.0Q1938 1359 1949.0 1366.5Q1960 1374 1978 1374Q2000 1374 2015.5 1358.5Q2031 1343 2031 1321Q2031 1300 2021.0 1288.5Q2011 1277 1996.0 1271.5Q1981 1266 1963.5 1264.5Q1946 1263 1931 1262Q1937 1247 1937 1231Q1937 1206 1923 1186Q1906 1191 1889.5 1194.5Q1873 1198 1856 1198Q1839 1198 1822.5 1194.5Q1806 1191 1789 1186Q1775 1206 1775 1231Q1775 1247 1781 1262Q1766 1263 1748.5 1264.5Q1731 1266 1715.5 1271.5Q1700 1277 1690.0 1288.5Q1680 1300 1680 1321Q1680 1343 1695.5 1358.5Q1711 1374 1733 1374Q1751 1374 1762.0 1366.5Q1773 1359 1780.5 1347.0Q1788 1335 1793.0 1320.5Q1798 1306 1803 1293Q1811 1299 1819.0 1304.0Q1827 1309 1837 1311ZM2118 467Q2118 409 2077 368L1890 178Q1876 163 1854 163Q1832 163 1817 178L1631 368Q1611 388 1600.5 413.5Q1590 439 1590 468Q1590 498 1601.0 524.5Q1612 551 1631.5 570.5Q1651 590 1677.5 601.5Q1704 613 1734 613H1973Q2003 613 2029.5 601.5Q2056 590 2075.5 570.5Q2095 551 2106.5 524.0Q2118 497 2118 467ZM919 610H991Q1002 610 1011.5 601.5Q1021 593 1021 581V578L985 181Q984 170 975.0 162.0Q966 154 955 154Q944 154 935.5 162.0Q927 170 926 181L890 578V581Q890 593 898.5 601.5Q907 610 919 610Z" style="fill:#fcd53f;stroke:none" transform="scale(1,-1) translate(0,-256)" /></svg>