<?xml version="1.0" encoding="utf-8" ?>
<svg baseProfile="full" height="256" version="1.1" width="256" xmlns="http://www.w3.org/2000/svg" xmlns:ev="http://www.w3.org/2001/xml-events" xmlns:xlink="http://www.w3.org/1999/xlink"><defs /><path d="M761 1003Q760 1033 770.0 1063.0Q780 1093 798.5 1118.0Q817 1143 842.0 1162.0Q867 1181 896 1189Q899 1190 902.5 1190.5Q906 1191 909 1193V1364Q909 1384 922.5 1399.0Q936 1414 956 1414Q976 1414 988.5 1398.5Q1001 1383 1001 1364V1193L1015 1188Q1043 1178 1068.0 1160.5Q1093 1143 1111.0 1119.5Q1129 1096 1139.5 1067.5Q1150 1039 1150 1008V1003Z" style="fill:#433b6b;stroke:none" transform="scale(1,-1) translate(0,-256)" /></svg>