<?xml version="1.0" encoding="utf-8" ?>
<svg baseProfile="full" height="256" version="1.1" width="256" xmlns="http://www.w3.org/2000/svg" xmlns:ev="http://www.w3.org/2001/xml-events" xmlns:xlink="http://www.w3.org/1999/xlink"><defs /><path d="M868 1511Q853 1511 842.0 1522.0Q831 1533 831 1548Q831 1563 842 1574L911 1643Q921 1653 937 1653Q952 1653 963.0 1642.5Q974 1632 974 1617Q974 1602 963 1591L894 1522Q883 1511 868 1511ZM1118 1330Q1118 1316 1129.0 1305.0Q1140 1294 1154 1294Q1170 1294 1180.0 1304.5Q1190 1315 1190 1330Q1190 1345 1179.5 1355.5Q1169 1366 1154 1366Q1140 1366 1129.0 1355.0Q1118 1344 1118 1330ZM1149 1078H1232Q1243 1078 1252.5 1086.0Q1262 1094 1262 1106V1192Q1262 1204 1253.0 1213.0Q1244 1222 1232 1222H1149Q1137 1222 1127.5 1213.5Q1118 1205 1118 1192V1109Q1118 1096 1127.0 1087.0Q1136 1078 1149 1078ZM2302 1222Q2317 1222 2327.5 1232.5Q2338 1243 2338 1258Q2338 1273 2327.5 1283.5Q2317 1294 2302 1294Q2287 1294 2276.5 1283.5Q2266 1273 2266 1258Q2266 1243 2276.5 1232.5Q2287 1222 2302 1222Z" style="fill:#ffb02e;stroke:none" transform="scale(1,-1) translate(0,-256)" /></svg>