<?xml version="1.0" encoding="utf-8" ?>
<svg baseProfile="full" height="256" version="1.1" width="256" xmlns="http://www.w3.org/2000/svg" xmlns:ev="http://www.w3.org/2001/xml-events" xmlns:xlink="http://www.w3.org/1999/xlink"><defs /><path d="M1116 1006Q1087 1006 1067.0 1026.0Q1047 1046 1047 1075V1369Q1047 1398 1067.0 1418.0Q1087 1438 1116 1438H1696Q1725 1438 1745.0 1418.0Q1765 1398 1765 1369V1075Q1765 1046 1745.0 1026.0Q1725 1006 1696 1006ZM1190 216Q1190 261 1207.0 300.0Q1224 339 1253.5 368.0Q1283 397 1322.0 414.0Q1361 431 1406 431Q1451 431 1490.0 414.0Q1529 397 1558.5 368.0Q1588 339 1605.0 300.0Q1622 261 1622 216V-215H1190ZM543 73Q543 118 560.0 157.0Q577 196 606.5 225.0Q636 254 675.0 271.0Q714 288 759 288Q803 288 842.5 271.0Q882 254 911.5 224.5Q941 195 958.0 156.0Q975 117 975 73V-215H543ZM2053 288Q2097 288 2136.0 271.0Q2175 254 2204.5 224.5Q2234 195 2251.0 155.5Q2268 116 2268 72V-215H1837V72Q1837 117 1854.0 156.0Q1871 195 1900.5 224.5Q1930 254 1969.0 271.0Q2008 288 2053 288Z" style="fill:#212121;stroke:none" transform="scale(1,-1) translate(0,-256)" /></svg>