<?xml version="1.0" encoding="utf-8" ?>
<svg baseProfile="full" height="256" version="1.1" width="256" xmlns="http://www.w3.org/2000/svg" xmlns:ev="http://www.w3.org/2001/xml-events" xmlns:xlink="http://www.w3.org/1999/xlink"><defs /><path d="M543 852Q567 859 594.5 862.0Q622 865 651.0 865.0Q680 865 707.5 864.0Q735 863 759 863V1078H831V863H1118V1006H1190V863H1622V1006H1693V863H1837V1078H1909V863H2125V1078H2197V863Q2269 863 2321.5 826.0Q2374 789 2400 723L2401 721V719Q2406 702 2409.0 686.0Q2412 670 2412 652V-215H400V652Q400 699 418.5 739.5Q437 780 472 810V1078H543Z" style="fill:#9b9b9b;stroke:none" transform="scale(1,-1) translate(0,-256)" /></svg>