<?xml version="1.0" encoding="utf-8" ?>
<svg baseProfile="full" height="256" version="1.1" width="256" xmlns="http://www.w3.org/2000/svg" xmlns:ev="http://www.w3.org/2001/xml-events" xmlns:xlink="http://www.w3.org/1999/xlink"><defs /><path d="M1080 1508Q1066 1508 1055.0 1519.0Q1044 1530 1044 1544Q1044 1558 1055.0 1569.0Q1066 1580 1080 1580Q1095 1580 1105.5 1569.5Q1116 1559 1116 1544Q1116 1529 1105.5 1518.5Q1095 1508 1080 1508ZM648 1223Q633 1223 622 1234L553 1303Q542 1314 542 1329Q542 1344 553.0 1354.5Q564 1365 579 1365Q595 1365 605 1355L674 1286Q684 1276 684 1260Q684 1245 673.5 1234.0Q663 1223 648 1223ZM1868 1436Q1853 1436 1842 1447L1773 1516Q1762 1527 1762 1542Q1762 1557 1773.0 1567.5Q1784 1578 1799 1578Q1815 1578 1825 1568L1894 1499Q1904 1489 1904 1473Q1904 1458 1893.5 1447.0Q1883 1436 1868 1436Z" style="fill:#8d65c5;stroke:none" transform="scale(1,-1) translate(0,-256)" /></svg>