<?xml version="1.0" encoding="utf-8" ?>
<svg baseProfile="full" height="256" version="1.1" width="256" xmlns="http://www.w3.org/2000/svg" xmlns:ev="http://www.w3.org/2001/xml-events" xmlns:xlink="http://www.w3.org/1999/xlink"><defs /><path d="M2085 1295Q2069 1295 2059.0 1305.5Q2049 1316 2049 1332Q2049 1348 2059 1358L2128 1427Q2138 1437 2154 1437Q2169 1437 2179.5 1426.5Q2190 1416 2190 1401Q2190 1385 2180 1375L2111 1306Q2100 1295 2085 1295ZM1334 1330Q1334 1315 1344.5 1304.5Q1355 1294 1370 1294Q1386 1294 1396.0 1304.0Q1406 1314 1406 1330Q1406 1345 1395.5 1355.5Q1385 1366 1370 1366Q1355 1366 1344.5 1355.5Q1334 1345 1334 1330ZM1365 1078H1447Q1458 1078 1468.0 1085.5Q1478 1093 1478 1105V1190Q1478 1203 1468.5 1211.5Q1459 1220 1447 1220H1365Q1353 1220 1343.5 1211.5Q1334 1203 1334 1190V1108Q1334 1095 1343.5 1086.5Q1353 1078 1365 1078ZM794 1293Q808 1293 819.0 1303.5Q830 1314 830 1328Q830 1343 819.5 1353.5Q809 1364 794 1364Q779 1364 768.5 1353.5Q758 1343 758 1328Q758 1314 769.0 1303.5Q780 1293 794 1293Z" style="fill:#00d26a;stroke:none" transform="scale(1,-1) translate(0,-256)" /></svg>