<?xml version="1.0" encoding="utf-8" ?>
<svg baseProfile="full" height="256" version="1.1" width="256" xmlns="http://www.w3.org/2000/svg" xmlns:ev="http://www.w3.org/2001/xml-events" xmlns:xlink="http://www.w3.org/1999/xlink"><defs /><path d="M685 1616Q685 1601 674.5 1590.5Q664 1580 649 1580Q634 1580 623.5 1590.5Q613 1601 613 1616Q613 1631 623.5 1641.5Q634 1652 649 1652Q664 1652 674.5 1641.5Q685 1631 685 1616ZM1658 1294H1585Q1571 1294 1560.5 1305.0Q1550 1316 1550 1330Q1550 1344 1560.5 1355.0Q1571 1366 1585 1366H1658Q1672 1366 1682.5 1355.0Q1693 1344 1693 1330Q1693 1316 1682.5 1305.0Q1672 1294 1658 1294ZM472 1121V1038Q472 1023 484.5 1014.5Q497 1006 511 1006Q521 1006 542.5 1012.0Q564 1018 587.5 1026.0Q611 1034 633.0 1042.0Q655 1050 667 1054Q675 1056 681.0 1062.5Q687 1069 687 1078Q687 1087 681.0 1093.5Q675 1100 667 1102Q656 1106 633.5 1114.0Q611 1122 587.0 1130.0Q563 1138 542.0 1144.0Q521 1150 511 1150Q498 1150 485.0 1143.0Q472 1136 472 1121ZM759 1121V1038Q759 1023 771.5 1014.5Q784 1006 798 1006Q808 1006 829.5 1012.0Q851 1018 875.0 1026.0Q899 1034 921.0 1042.0Q943 1050 954 1054Q962 1057 968.5 1062.5Q975 1068 975 1078Q975 1087 968.5 1093.0Q962 1099 954 1102Q943 1106 920.5 1114.0Q898 1122 874.0 1130.0Q850 1138 828.5 1144.0Q807 1150 798 1150Q786 1150 772.5 1142.5Q759 1135 759 1121ZM1837 1039V1121Q1837 1135 1849.0 1142.5Q1861 1150 1874 1150Q1883 1150 1905.0 1143.5Q1927 1137 1951.5 1129.0Q1976 1121 1998.5 1113.0Q2021 1105 2032 1101Q2040 1098 2046.5 1092.5Q2053 1087 2053 1077Q2053 1068 2046.5 1061.5Q2040 1055 2032 1053Q2021 1050 1999.0 1042.0Q1977 1034 1953.0 1026.0Q1929 1018 1908.0 1012.0Q1887 1006 1877 1006Q1863 1006 1850.0 1015.0Q1837 1024 1837 1039ZM2125 1121V1038Q2125 1023 2137.5 1014.5Q2150 1006 2164 1006Q2174 1006 2195.0 1012.0Q2216 1018 2240.0 1026.0Q2264 1034 2286.5 1042.0Q2309 1050 2320 1053Q2328 1055 2334.0 1061.5Q2340 1068 2340 1077Q2340 1086 2334.0 1092.5Q2328 1099 2320 1101Q2309 1105 2286.5 1113.0Q2264 1121 2239.0 1129.0Q2214 1137 2192.5 1143.5Q2171 1150 2161 1150Q2149 1150 2137.0 1142.5Q2125 1135 2125 1121ZM1622 1114Q1622 1099 1632.5 1088.5Q1643 1078 1658 1078Q1672 1078 1682.5 1089.0Q1693 1100 1693 1114Q1693 1128 1682.5 1139.0Q1672 1150 1658 1150Q1643 1150 1632.5 1139.5Q1622 1129 1622 1114ZM1944 1221Q1959 1221 1969.5 1231.5Q1980 1242 1980 1257Q1980 1271 1969.0 1282.0Q1958 1293 1944 1293Q1930 1293 1919.0 1282.0Q1908 1271 1908 1257Q1908 1242 1918.5 1231.5Q1929 1221 1944 1221ZM2264 1615Q2264 1600 2253.5 1589.5Q2243 1579 2228 1579Q2213 1579 2202.5 1589.5Q2192 1600 2192 1615Q2192 1630 2202.5 1640.5Q2213 1651 2228 1651Q2243 1651 2253.5 1640.5Q2264 1630 2264 1615Z" style="fill:#f8312f;stroke:none" transform="scale(1,-1) translate(0,-256)" /></svg>