<?xml version="1.0" encoding="utf-8" ?>
<svg baseProfile="full" height="256" version="1.1" width="256" xmlns="http://www.w3.org/2000/svg" xmlns:ev="http://www.w3.org/2001/xml-events" xmlns:xlink="http://www.w3.org/1999/xlink"><defs /><path d="M1658 1660Q1733 1692 1812.0 1708.5Q1891 1725 1972 1725Q2062 1725 2151 1705Q2177 1699 2192.0 1679.0Q2207 1659 2207 1633Q2207 1619 2202.0 1607.0Q2197 1595 2188 1584Q2143 1527 2106.0 1472.0Q2069 1417 2040 1351Q2112 1248 2152.5 1129.0Q2193 1010 2193 883Q2193 761 2163.0 652.5Q2133 544 2078.5 452.0Q2024 360 1947.0 286.0Q1870 212 1775.5 160.0Q1681 108 1571.5 80.5Q1462 53 1343 53Q1287 53 1232.0 55.5Q1177 58 1123 73V-36Q1123 -79 1109.0 -116.5Q1095 -154 1070.5 -184.0Q1046 -214 1012.0 -236.0Q978 -258 939 -271Q923 -276 904.5 -280.5Q886 -285 870 -285Q854 -285 844.0 -276.5Q834 -268 834 -251Q835 -189 835.0 -127.5Q835 -66 837 -4Q838 38 860.5 75.0Q883 112 909.5 142.0Q936 172 958.0 193.0Q980 214 980 224Q980 236 967.0 248.5Q954 261 946 269Q925 289 904.5 312.5Q884 336 868.5 363.0Q853 390 843.5 419.0Q834 448 834 479V727Q834 764 870 764Q876 764 881.0 763.0Q886 762 892 760Q943 748 985.5 721.0Q1028 694 1058.5 656.0Q1089 618 1106.0 570.5Q1123 523 1123 470V327H1132Q1177 327 1212.5 336.5Q1248 346 1278.5 362.5Q1309 379 1338.0 402.5Q1367 426 1399 453Q1442 490 1482.0 529.5Q1522 569 1553.0 614.0Q1584 659 1602.0 710.0Q1620 761 1620 823Q1620 864 1610.0 905.0Q1600 946 1580.0 982.0Q1560 1018 1529.5 1046.5Q1499 1075 1459 1090Q1448 1052 1443.5 1013.5Q1439 975 1439 936Q1439 888 1446.5 844.0Q1454 800 1468 755Q1470 747 1472.0 740.0Q1474 733 1474 725Q1474 709 1465.0 701.0Q1456 693 1441 693Q1420 693 1401 707Q1353 743 1325.0 790.5Q1297 838 1282.5 891.5Q1268 945 1265.0 1002.0Q1262 1059 1264 1114H687L619 1151Q613 1173 613 1196Q613 1262 651.5 1297.5Q690 1333 753 1339Q766 1340 776.5 1341.0Q787 1342 794.5 1346.0Q802 1350 806.0 1358.0Q810 1366 811 1382Q813 1403 815.0 1423.0Q817 1443 824 1463Q840 1517 874.5 1564.5Q909 1612 955.0 1647.5Q1001 1683 1055.5 1703.5Q1110 1724 1167 1724Q1239 1724 1300.5 1724.5Q1362 1725 1419.5 1719.5Q1477 1714 1534.5 1700.5Q1592 1687 1658 1660Z" style="fill:#00a6ed;stroke:none" transform="scale(1,-1) translate(0,-256)" /></svg>