<?xml version="1.0" encoding="utf-8" ?>
<svg baseProfile="full" height="256" version="1.1" width="256" xmlns="http://www.w3.org/2000/svg" xmlns:ev="http://www.w3.org/2001/xml-events" xmlns:xlink="http://www.w3.org/1999/xlink"><defs /><path d="M1441 988Q1447 1060 1471 1129Q1517 1115 1554.0 1090.5Q1591 1066 1617.5 1032.0Q1644 998 1658.5 956.0Q1673 914 1673 865Q1673 804 1649.5 747.5Q1626 691 1588.5 640.0Q1551 589 1505.0 545.0Q1459 501 1414 466Q1442 496 1466.5 530.5Q1491 565 1509.5 603.5Q1528 642 1538.5 682.5Q1549 723 1549 765Q1549 835 1521.0 887.0Q1493 939 1443 986ZM1267 1153Q1265 1124 1264.0 1095.5Q1263 1067 1263 1038Q1185 1047 1106.5 1048.5Q1028 1050 950 1050H851Q814 1050 778.0 1050.0Q742 1050 710.5 1058.5Q679 1067 655.0 1088.5Q631 1110 619 1154H1233Q1241 1154 1250.0 1154.0Q1259 1154 1267 1153Z" style="fill:#aeddff;stroke:none" transform="scale(1,-1) translate(0,-256)" /></svg>