<?xml version="1.0" encoding="utf-8" ?>
<svg baseProfile="full" height="256" version="1.1" width="256" xmlns="http://www.w3.org/2000/svg" xmlns:ev="http://www.w3.org/2001/xml-events" xmlns:xlink="http://www.w3.org/1999/xlink"><defs /><path d="M2125 828Q2112 828 2099.5 832.5Q2087 837 2077 846L1891 1015Q1890 1015 1888.0 1016.0Q1886 1017 1885 1017Q1883 1017 1869.5 1005.5Q1856 994 1836.5 977.0Q1817 960 1794.5 939.0Q1772 918 1751.5 899.0Q1731 880 1715.0 865.5Q1699 851 1693 846Q1672 828 1646 828Q1618 828 1599 846L1412 1015Q1411 1015 1409.0 1016.0Q1407 1017 1406 1017Q1403 1017 1389.5 1005.5Q1376 994 1357.0 977.0Q1338 960 1315.5 939.0Q1293 918 1272.5 899.0Q1252 880 1236.0 865.5Q1220 851 1214 846Q1193 828 1167 828Q1141 828 1120 846Q1114 851 1098.0 865.5Q1082 880 1061.5 899.0Q1041 918 1018.0 939.0Q995 960 975.5 977.0Q956 994 942.5 1005.5Q929 1017 927 1017Q925 1017 911.5 1005.5Q898 994 878.5 977.0Q859 960 836.5 939.0Q814 918 793.0 899.0Q772 880 756.5 865.5Q741 851 735 846Q714 828 687 828Q658 828 638.0 848.5Q618 869 618 898Q618 929 640 950L880 1167Q901 1186 927 1186Q952 1186 974 1167Q980 1162 996.0 1147.5Q1012 1133 1032.5 1114.0Q1053 1095 1075.5 1074.5Q1098 1054 1117.5 1036.5Q1137 1019 1150.5 1008.0Q1164 997 1166 997Q1168 997 1181.5 1008.5Q1195 1020 1214.5 1037.0Q1234 1054 1257.0 1075.0Q1280 1096 1300.5 1114.5Q1321 1133 1337.0 1147.5Q1353 1162 1359 1167Q1370 1176 1381.0 1181.0Q1392 1186 1406 1186Q1432 1186 1453 1167L1639 999Q1640 999 1642.0 998.0Q1644 997 1645 997Q1647 997 1661.0 1008.0Q1675 1019 1694.0 1036.5Q1713 1054 1735.5 1074.5Q1758 1095 1778.5 1114.0Q1799 1133 1815.0 1147.5Q1831 1162 1837 1167Q1859 1186 1884 1186Q1910 1186 1931 1167L2171 950Q2194 930 2194 898Q2194 869 2174.0 848.5Q2154 828 2125 828ZM2125 252Q2112 252 2099.5 256.5Q2087 261 2077 270L1891 439Q1890 439 1888.0 440.0Q1886 441 1885 441Q1883 441 1869.5 429.5Q1856 418 1836.5 401.0Q1817 384 1794.5 363.0Q1772 342 1751.5 323.0Q1731 304 1715.0 289.5Q1699 275 1693 270Q1672 252 1646 252Q1618 252 1599 270L1412 439Q1411 439 1409.0 440.0Q1407 441 1406 441Q1403 441 1389.5 429.5Q1376 418 1356.5 401.0Q1337 384 1314.5 363.0Q1292 342 1271.5 323.0Q1251 304 1235.5 289.5Q1220 275 1214 270Q1193 252 1167 252Q1141 252 1120 270Q1114 275 1098.5 289.5Q1083 304 1062.0 323.0Q1041 342 1018.5 363.0Q996 384 976.5 401.0Q957 418 943.5 429.5Q930 441 928 441Q926 441 912.5 429.5Q899 418 879.5 401.0Q860 384 837.5 363.0Q815 342 794.0 323.0Q773 304 757.0 289.5Q741 275 735 270Q715 253 688 253Q659 253 638.5 273.5Q618 294 618 323Q618 355 641 375L881 592Q900 610 928 610Q955 610 975 592L1161 423Q1162 423 1164.0 422.0Q1166 421 1167 421Q1169 421 1183.0 432.5Q1197 444 1216.5 461.0Q1236 478 1258.5 499.0Q1281 520 1301.5 539.0Q1322 558 1337.5 572.5Q1353 587 1359 592Q1380 610 1406 610Q1433 610 1453 592L1640 423Q1641 423 1643.0 422.0Q1645 421 1646 421Q1648 421 1662.0 432.5Q1676 444 1695.5 461.0Q1715 478 1737.5 499.0Q1760 520 1780.5 539.0Q1801 558 1816.5 572.5Q1832 587 1838 592Q1859 610 1885 610Q1912 610 1932 592L2171 375Q2194 354 2194 323Q2194 294 2174.0 273.0Q2154 252 2125 252Z" style="fill:#ffffff;stroke:none" transform="scale(1,-1) translate(0,-256)" /></svg>