<?xml version="1.0" encoding="utf-8" ?>
<svg baseProfile="full" height="256" version="1.1" width="256" xmlns="http://www.w3.org/2000/svg" xmlns:ev="http://www.w3.org/2001/xml-events" xmlns:xlink="http://www.w3.org/1999/xlink"><defs /><path d="M1478 1725Q1578 1725 1671.0 1691.0Q1764 1657 1839.0 1596.5Q1914 1536 1967.0 1452.5Q2020 1369 2040 1270Q2041 1266 2041.0 1261.5Q2041 1257 2041 1252Q2041 1200 2025.0 1151.0Q2009 1102 1987.5 1054.5Q1966 1007 1944.0 959.5Q1922 912 1909 863Q1926 846 1950.0 832.0Q1974 818 1996.0 802.5Q2018 787 2033.5 767.0Q2049 747 2049 719Q2049 684 2037.5 643.0Q2026 602 2014 569Q1979 473 1917.5 395.0Q1856 317 1776.5 261.0Q1697 205 1602.5 174.5Q1508 144 1406 144Q1281 144 1170.5 187.5Q1060 231 974.5 308.5Q889 386 833.5 491.0Q778 596 763 719Q762 726 762.0 732.5Q762 739 762 746Q762 776 768.5 805.0Q775 834 785.5 861.5Q796 889 808.0 916.5Q820 944 831 971Q820 999 808.0 1027.5Q796 1056 786.0 1085.0Q776 1114 770.0 1143.5Q764 1173 764 1204Q764 1220 766.0 1236.0Q768 1252 771 1268Q792 1368 844.0 1451.5Q896 1535 971.0 1596.0Q1046 1657 1139.0 1691.0Q1232 1725 1334 1725H1478Z" style="fill:#9b9b9b;stroke:none" transform="scale(1,-1) translate(0,-256)" /></svg>