<?xml version="1.0" encoding="utf-8" ?>
<svg baseProfile="full" height="256" version="1.1" width="256" xmlns="http://www.w3.org/2000/svg" xmlns:ev="http://www.w3.org/2001/xml-events" xmlns:xlink="http://www.w3.org/1999/xlink"><defs /><path d="M2097 -104Q2125 -144 2125 -192Q2125 -232 2097.0 -259.5Q2069 -287 2029 -287H782Q762 -287 745.0 -279.5Q728 -272 715.0 -259.0Q702 -246 694.5 -229.0Q687 -212 687 -192Q687 -144 715 -104L932 207Q963 207 992.0 203.5Q1021 200 1047 180Q1074 159 1091.5 133.0Q1109 107 1109 72Q1093 72 1076.0 72.0Q1059 72 1043.0 69.5Q1027 67 1012.5 59.5Q998 52 988 37Q982 28 976.5 18.5Q971 9 964 0H1846Q1841 9 1835.5 17.0Q1830 25 1824 33Q1810 52 1798.0 60.5Q1786 69 1772.5 71.5Q1759 74 1742.0 73.0Q1725 72 1703 72Q1714 102 1726.0 131.0Q1738 160 1765 180Q1777 189 1791.0 193.5Q1805 198 1820.0 200.0Q1835 202 1850.5 203.5Q1866 205 1880 207ZM1981 -144Q1972 -131 1963.5 -118.5Q1955 -106 1945.0 -95.5Q1935 -85 1922.5 -78.5Q1910 -72 1892 -72H920Q902 -72 889.5 -78.5Q877 -85 867.0 -95.5Q857 -106 848.5 -118.5Q840 -131 831 -144Z" style="fill:#212121;stroke:none" transform="scale(1,-1) translate(0,-256)" /></svg>