<?xml version="1.0" encoding="utf-8" ?>
<svg baseProfile="full" height="256" version="1.1" width="256" xmlns="http://www.w3.org/2000/svg" xmlns:ev="http://www.w3.org/2001/xml-events" xmlns:xlink="http://www.w3.org/1999/xlink"><defs /><path d="M759 1150Q759 1210 771 1269L975 863V827Q975 805 966.5 785.5Q958 766 943.0 751.0Q928 736 908.5 727.5Q889 719 867 719H759ZM2053 719H1945Q1922 719 1902.5 727.5Q1883 736 1868.5 750.5Q1854 765 1845.5 784.5Q1837 804 1837 827V863L2040 1269Q2047 1240 2050.0 1210.0Q2053 1180 2053 1150Z" style="fill:#5092ff;stroke:none" transform="scale(1,-1) translate(0,-256)" /></svg>