<?xml version="1.0" encoding="utf-8" ?>
<svg baseProfile="full" height="256" version="1.1" width="256" xmlns="http://www.w3.org/2000/svg" xmlns:ev="http://www.w3.org/2001/xml-events" xmlns:xlink="http://www.w3.org/1999/xlink"><defs /><path d="M1083 431Q1061 431 1041.5 439.5Q1022 448 1007.0 463.0Q992 478 983.5 497.5Q975 517 975 539Q975 561 983.5 581.0Q992 601 1006.5 615.5Q1021 630 1040.5 638.5Q1060 647 1083 647Q1105 647 1125.0 638.5Q1145 630 1159.0 615.0Q1173 600 1181.5 580.5Q1190 561 1190 539Q1190 517 1181.5 497.5Q1173 478 1158.5 463.0Q1144 448 1124.5 439.5Q1105 431 1083 431ZM1729 431Q1707 431 1687.5 439.5Q1668 448 1653.5 463.0Q1639 478 1630.5 497.5Q1622 517 1622 539Q1622 561 1630.5 580.5Q1639 600 1653.0 615.0Q1667 630 1686.5 638.5Q1706 647 1729 647Q1751 647 1771.0 638.5Q1791 630 1805.5 615.5Q1820 601 1828.5 581.0Q1837 561 1837 539Q1837 517 1828.5 497.5Q1820 478 1805.0 463.0Q1790 448 1770.5 439.5Q1751 431 1729 431Z" style="fill:#ffb02e;stroke:none" transform="scale(1,-1) translate(0,-256)" /></svg>