<?xml version="1.0" encoding="utf-8" ?>
<svg baseProfile="full" height="256" version="1.1" width="256" xmlns="http://www.w3.org/2000/svg" xmlns:ev="http://www.w3.org/2001/xml-events" xmlns:xlink="http://www.w3.org/1999/xlink"><defs /><path d="M983 1294Q983 1354 1006.0 1406.0Q1029 1458 1068.0 1497.0Q1107 1536 1159.5 1558.5Q1212 1581 1271 1581H1541Q1600 1581 1652.5 1558.5Q1705 1536 1744.0 1497.0Q1783 1458 1806.0 1406.0Q1829 1354 1829 1294Q1829 1258 1820 1224L1763 998Q1747 936 1713.5 885.0Q1680 834 1632.5 797.0Q1585 760 1527.5 739.5Q1470 719 1406 719Q1342 719 1284.5 739.5Q1227 760 1179.5 797.0Q1132 834 1098.5 885.0Q1065 936 1049 998L992 1224Q983 1258 983 1294Z" style="fill:#26c9fc;stroke:none" transform="scale(1,-1) translate(0,-256)" /></svg>