<?xml version="1.0" encoding="utf-8" ?>
<svg baseProfile="full" height="256" version="1.1" width="256" xmlns="http://www.w3.org/2000/svg" xmlns:ev="http://www.w3.org/2001/xml-events" xmlns:xlink="http://www.w3.org/1999/xlink"><defs /><path d="M1405 291Q1434 291 1455.0 269.5Q1476 248 1476 219V-36Q1476 -88 1456.5 -133.5Q1437 -179 1403.0 -212.5Q1369 -246 1324.0 -265.5Q1279 -285 1227 -285Q1176 -285 1130.5 -265.5Q1085 -246 1051.0 -212.0Q1017 -178 997.5 -132.5Q978 -87 978 -36Q978 -7 999.0 14.5Q1020 36 1049 36Q1079 36 1100.0 15.0Q1121 -6 1121 -36Q1121 -58 1129.5 -77.0Q1138 -96 1152.5 -110.5Q1167 -125 1186.0 -133.0Q1205 -141 1227 -141Q1272 -141 1302.5 -111.0Q1333 -81 1333 -36V219Q1333 248 1354.5 269.5Q1376 291 1405 291Z" style="fill:#8c5543;stroke:none" transform="scale(1,-1) translate(0,-256)" /></svg>