<?xml version="1.0" encoding="utf-8" ?>
<svg baseProfile="full" height="256" version="1.1" width="256" xmlns="http://www.w3.org/2000/svg" xmlns:ev="http://www.w3.org/2001/xml-events" xmlns:xlink="http://www.w3.org/1999/xlink"><defs /><path d="M457 1499Q457 1541 487 1571L611 1695Q641 1725 684 1725Q705 1725 724.0 1717.0Q743 1709 756.5 1695.0Q770 1681 778.0 1662.0Q786 1643 786 1622Q786 1580 756 1550L633 1426Q603 1396 560 1396Q539 1396 520.0 1404.0Q501 1412 487.0 1426.0Q473 1440 465.0 1459.0Q457 1478 457 1499ZM2069 1211Q2069 1254 2099 1284L2222 1408Q2252 1438 2295 1438Q2317 1438 2335.5 1430.0Q2354 1422 2368.0 1408.0Q2382 1394 2390.0 1375.0Q2398 1356 2398 1335Q2398 1292 2368 1262L2244 1139Q2229 1125 2210.5 1116.5Q2192 1108 2171 1108Q2150 1108 2131.5 1116.0Q2113 1124 2099.0 1138.5Q2085 1153 2077.0 1171.5Q2069 1190 2069 1211ZM1565 1499Q1565 1540 1596 1571L1719 1695Q1749 1725 1792 1725Q1813 1725 1832.0 1717.0Q1851 1709 1865.0 1695.0Q1879 1681 1887.0 1662.0Q1895 1643 1895 1622Q1895 1580 1865 1550L1741 1426Q1711 1396 1668 1396Q1647 1396 1628.5 1404.0Q1610 1412 1595.5 1426.5Q1581 1441 1573.0 1459.5Q1565 1478 1565 1499ZM919 1211Q919 1254 949 1284L1072 1408Q1102 1438 1145 1438Q1167 1438 1185.5 1430.0Q1204 1422 1218.0 1408.0Q1232 1394 1240.0 1375.0Q1248 1356 1248 1335Q1248 1292 1218 1262L1095 1139Q1081 1125 1061.5 1116.5Q1042 1108 1022 1108Q1001 1108 982.0 1116.0Q963 1124 949.0 1138.5Q935 1153 927.0 1171.5Q919 1190 919 1211Z" style="fill:#00a6ed;stroke:none" transform="scale(1,-1) translate(0,-256)" /></svg>