<?xml version="1.0" encoding="utf-8" ?>
<svg baseProfile="full" height="256" version="1.1" width="256" xmlns="http://www.w3.org/2000/svg" xmlns:ev="http://www.w3.org/2001/xml-events" xmlns:xlink="http://www.w3.org/1999/xlink"><defs /><path d="M2041 1438Q2118 1438 2185.0 1409.0Q2252 1380 2302.0 1329.5Q2352 1279 2381.0 1211.5Q2410 1144 2410 1068V1042Q2410 1019 2401.0 999.0Q2392 979 2377.0 964.0Q2362 949 2342.0 940.5Q2322 932 2299 932H799Q776 932 756.0 940.5Q736 949 721.0 964.0Q706 979 697.0 999.0Q688 1019 688 1042V1068Q688 1144 717.0 1211.5Q746 1279 796.0 1329.5Q846 1380 913.0 1409.0Q980 1438 1057 1438H2041Z" style="fill:#ff6723;stroke:none" transform="scale(1,-1) translate(0,-256)" /></svg>