<?xml version="1.0" encoding="utf-8" ?>
<svg baseProfile="full" height="256" version="1.1" width="256" xmlns="http://www.w3.org/2000/svg" xmlns:ev="http://www.w3.org/2001/xml-events" xmlns:xlink="http://www.w3.org/1999/xlink"><defs /><path d="M998 490Q957 490 921.0 506.0Q885 522 858.0 549.0Q831 576 815.5 612.0Q800 648 800 689V933L1548 1190L2298 933V689Q2298 648 2282.5 611.5Q2267 575 2240.0 548.0Q2213 521 2177.0 505.5Q2141 490 2100 490ZM710 -285Q669 -285 633.0 -269.5Q597 -254 570.0 -227.0Q543 -200 527.5 -164.0Q512 -128 512 -87V152L1263 359L2010 152V-87Q2010 -128 1994.0 -164.0Q1978 -200 1951.0 -227.0Q1924 -254 1888.0 -269.5Q1852 -285 1811 -285Z" style="fill:#f4f4f4;stroke:none" transform="scale(1,-1) translate(0,-256)" /></svg>