<?xml version="1.0" encoding="utf-8" ?>
<svg baseProfile="full" height="256" version="1.1" width="256" xmlns="http://www.w3.org/2000/svg" xmlns:ev="http://www.w3.org/2001/xml-events" xmlns:xlink="http://www.w3.org/1999/xlink"><defs /><path d="M858 388Q836 388 821.0 403.0Q806 418 806 440V647H909V440Q909 419 894.5 403.5Q880 388 858 388ZM1261 388Q1239 388 1224.0 403.0Q1209 418 1209 440V647H1313V440Q1313 418 1298.0 403.0Q1283 388 1261 388ZM1613 440Q1613 418 1628.0 403.0Q1643 388 1665 388Q1687 388 1701.5 403.5Q1716 419 1716 440V647H1613Z" style="fill:#ff8687;stroke:none" transform="scale(1,-1) translate(0,-256)" /></svg>