<?xml version="1.0" encoding="utf-8" ?>
<svg baseProfile="full" height="256" version="1.1" width="256" xmlns="http://www.w3.org/2000/svg" xmlns:ev="http://www.w3.org/2001/xml-events" xmlns:xlink="http://www.w3.org/1999/xlink"><defs /><path d="M1146 1179Q1124 1179 1109.0 1194.0Q1094 1209 1094 1231V1438H1198V1231Q1198 1209 1183.0 1194.0Q1168 1179 1146 1179ZM1549 1179Q1527 1179 1512.0 1194.0Q1497 1209 1497 1231V1438H1601V1231Q1601 1209 1586.0 1194.0Q1571 1179 1549 1179ZM1901 1231Q1901 1209 1916.0 1194.0Q1931 1179 1953 1179Q1974 1179 1989.5 1194.5Q2005 1210 2005 1231V1438H1901Z" style="fill:#ff822d;stroke:none" transform="scale(1,-1) translate(0,-256)" /></svg>