<?xml version="1.0" encoding="utf-8" ?>
<svg baseProfile="full" height="256" version="1.1" width="256" xmlns="http://www.w3.org/2000/svg" xmlns:ev="http://www.w3.org/2001/xml-events" xmlns:xlink="http://www.w3.org/1999/xlink"><defs /><path d="M2300 -72Q2323 -72 2343.5 -64.0Q2364 -56 2379.0 -41.5Q2394 -27 2403.0 -7.0Q2412 13 2412 36V-175Q2412 -198 2403.0 -218.5Q2394 -239 2379.0 -254.0Q2364 -269 2343.5 -278.0Q2323 -287 2300 -287H512Q489 -287 468.5 -278.0Q448 -269 433.0 -254.0Q418 -239 409.0 -218.5Q400 -198 400 -175V36Q400 13 409.0 -7.0Q418 -27 433.0 -41.5Q448 -56 468.5 -64.0Q489 -72 512 -72H2300Z" style="fill:#990838;stroke:none" transform="scale(1,-1) translate(0,-256)" /></svg>