<?xml version="1.0" encoding="utf-8" ?>
<svg baseProfile="full" height="256" version="1.1" width="256" xmlns="http://www.w3.org/2000/svg" xmlns:ev="http://www.w3.org/2001/xml-events" xmlns:xlink="http://www.w3.org/1999/xlink"><defs /><path d="M1882 1366Q1973 1366 2055.5 1336.0Q2138 1306 2205.0 1252.0Q2272 1198 2319.0 1123.5Q2366 1049 2386 961Q2393 932 2402.5 896.0Q2412 860 2412 831Q2412 808 2403.0 787.5Q2394 767 2378.5 752.0Q2363 737 2342.5 728.0Q2322 719 2299 719H1895Q1854 719 1825.5 747.5Q1797 776 1797 817Q1797 836 1796.5 857.0Q1796 878 1790.0 895.0Q1784 912 1770.0 923.5Q1756 935 1729 935H1082Q1055 935 1041.0 923.5Q1027 912 1021.0 895.0Q1015 878 1014.5 857.0Q1014 836 1014 817Q1014 776 985.5 747.5Q957 719 916 719H512Q489 719 468.5 728.0Q448 737 432.5 752.5Q417 768 408.0 788.5Q399 809 399 832Q399 861 409.0 896.5Q419 932 426 961Q447 1050 494.0 1124.5Q541 1199 607.5 1252.5Q674 1306 756.0 1336.0Q838 1366 930 1366H1882Z" style="fill:#ca0b4a;stroke:none" transform="scale(1,-1) translate(0,-256)" /></svg>