<?xml version="1.0" encoding="utf-8" ?>
<svg baseProfile="full" height="256" version="1.1" width="256" xmlns="http://www.w3.org/2000/svg" xmlns:ev="http://www.w3.org/2001/xml-events" xmlns:xlink="http://www.w3.org/1999/xlink"><defs /><path d="M903 863Q933 863 954.0 842.0Q975 821 975 791Q975 761 954.0 740.0Q933 719 903 719H472Q442 719 421.0 740.0Q400 761 400 791Q400 821 421.0 842.0Q442 863 472 863ZM2340 863Q2370 863 2391.0 842.0Q2412 821 2412 791Q2412 761 2391.0 740.0Q2370 719 2340 719H1909Q1879 719 1858.0 740.0Q1837 761 1837 791Q1837 821 1858.0 842.0Q1879 863 1909 863Z" style="fill:#990838;stroke:none" transform="scale(1,-1) translate(0,-256)" /></svg>