<?xml version="1.0" encoding="utf-8" ?>
<svg baseProfile="full" height="256" version="1.1" width="256" xmlns="http://www.w3.org/2000/svg" xmlns:ev="http://www.w3.org/2001/xml-events" xmlns:xlink="http://www.w3.org/1999/xlink"><defs /><path d="M1815 1078Q1824 1078 1830.5 1071.5Q1837 1065 1837 1056V885Q1837 876 1843.5 869.5Q1850 863 1859 863Q1882 863 1903.0 863.5Q1924 864 1943.5 860.5Q1963 857 1981.0 847.5Q1999 838 2014 818L2277 467Q2343 378 2377.5 276.0Q2412 174 2412 63V-175Q2412 -198 2403.0 -218.5Q2394 -239 2379.0 -254.0Q2364 -269 2343.5 -278.0Q2323 -287 2300 -287H512Q489 -287 468.5 -278.0Q448 -269 433.0 -254.0Q418 -239 409.0 -218.5Q400 -198 400 -175V63Q400 174 434.5 276.0Q469 378 535 467L797 817Q821 849 852.0 856.5Q883 864 910.5 863.5Q938 863 956.5 864.0Q975 865 975 885V1056Q975 1065 981.5 1071.5Q988 1078 997 1078H1096Q1105 1078 1111.5 1071.5Q1118 1065 1118 1056V885Q1118 876 1125.0 869.5Q1132 863 1141 863H1671Q1680 863 1686.5 869.5Q1693 876 1693 885V1056Q1693 1065 1700.0 1071.5Q1707 1078 1716 1078Z" style="fill:#f92f60;stroke:none" transform="scale(1,-1) translate(0,-256)" /></svg>