<?xml version="1.0" encoding="utf-8" ?>
<svg baseProfile="full" height="256" version="1.1" width="256" xmlns="http://www.w3.org/2000/svg" xmlns:ev="http://www.w3.org/2001/xml-events" xmlns:xlink="http://www.w3.org/1999/xlink"><defs /><path d="M719 719Q719 733 724.5 747.0Q730 761 741 771L1212 1224Q1234 1244 1262 1244Q1292 1244 1313.0 1223.0Q1334 1202 1334 1172V788L1787 1224Q1807 1244 1837 1244Q1867 1244 1888.0 1223.0Q1909 1202 1909 1172V265Q1909 235 1888.0 214.5Q1867 194 1837 194Q1807 194 1787 214L1334 650V265Q1334 235 1313.0 214.5Q1292 194 1262 194Q1234 194 1212 214L741 667Q719 689 719 719Z" style="fill:#ffffff;stroke:none" transform="scale(1,-1) translate(0,-256)" /></svg>