<?xml version="1.0" encoding="utf-8" ?>
<svg baseProfile="full" height="256" version="1.1" width="256" xmlns="http://www.w3.org/2000/svg" xmlns:ev="http://www.w3.org/2001/xml-events" xmlns:xlink="http://www.w3.org/1999/xlink"><defs /><path d="M1840 647H1547Q1518 647 1498.0 667.0Q1478 687 1478 716V1081Q1478 1110 1498.0 1130.0Q1518 1150 1547 1150H1840Q1869 1150 1889.0 1130.0Q1909 1110 1909 1081V716Q1909 687 1889.0 667.0Q1869 647 1840 647ZM1334 716V1081Q1334 1110 1313.5 1130.0Q1293 1150 1264 1150H1011L759 647H1264Q1293 647 1313.5 667.0Q1334 687 1334 716ZM2122 1150H2268V647H2122Q2093 647 2073.0 667.0Q2053 687 2053 716V1081Q2053 1110 2073.0 1130.0Q2093 1150 2122 1150Z" style="fill:#26c9fc;stroke:none" transform="scale(1,-1) translate(0,-256)" /></svg>