<?xml version="1.0" encoding="utf-8" ?>
<svg baseProfile="full" height="256" version="1.1" width="256" xmlns="http://www.w3.org/2000/svg" xmlns:ev="http://www.w3.org/2001/xml-events" xmlns:xlink="http://www.w3.org/1999/xlink"><defs /><path d="M1056 575Q1022 575 998.5 598.5Q975 622 975 656V710Q975 743 999.0 767.0Q1023 791 1056 791H1084Q1099 791 1108.5 780.5Q1118 770 1118 756V610Q1118 596 1108.0 585.5Q1098 575 1084 575ZM1370 503H1298Q1283 503 1272.5 513.5Q1262 524 1262 539Q1262 554 1272.5 564.5Q1283 575 1298 575H1370Q1385 575 1395.5 564.5Q1406 554 1406 539Q1406 524 1395.5 513.5Q1385 503 1370 503ZM1658 503Q1643 503 1632.5 513.5Q1622 524 1622 539Q1622 554 1632.5 564.5Q1643 575 1658 575H1729Q1744 575 1754.5 564.5Q1765 554 1765 539Q1765 524 1754.5 513.5Q1744 503 1729 503Z" style="fill:#d3d3d3;stroke:none" transform="scale(1,-1) translate(0,-256)" /></svg>