<?xml version="1.0" encoding="utf-8" ?>
<svg baseProfile="full" height="256" version="1.1" width="256" xmlns="http://www.w3.org/2000/svg" xmlns:ev="http://www.w3.org/2001/xml-events" xmlns:xlink="http://www.w3.org/1999/xlink"><defs /><path d="M1118 -36Q1118 -88 1098.0 -134.0Q1078 -180 1044.0 -214.0Q1010 -248 964.0 -267.5Q918 -287 866 -287Q814 -287 768.0 -267.5Q722 -248 688.0 -214.0Q654 -180 634.5 -134.0Q615 -88 615 -36Q615 16 634.5 62.0Q654 108 688.0 142.0Q722 176 768.0 196.0Q814 216 866 216Q918 216 964.0 196.0Q1010 176 1044.0 142.0Q1078 108 1098.0 62.0Q1118 16 1118 -36ZM2124 -36Q2124 -88 2104.0 -134.0Q2084 -180 2050.0 -214.0Q2016 -248 1970.0 -267.5Q1924 -287 1872 -287Q1820 -287 1774.0 -267.5Q1728 -248 1694.0 -214.0Q1660 -180 1640.5 -134.0Q1621 -88 1621 -36Q1621 16 1640.5 62.0Q1660 108 1694.0 142.0Q1728 176 1774.0 196.0Q1820 216 1872 216Q1924 216 1970.0 196.0Q2016 176 2050.0 142.0Q2084 108 2104.0 62.0Q2124 16 2124 -36Z" style="fill:#321b41;stroke:none" transform="scale(1,-1) translate(0,-256)" /></svg>