<?xml version="1.0" encoding="utf-8" ?>
<svg baseProfile="full" height="256" version="1.1" width="256" xmlns="http://www.w3.org/2000/svg" xmlns:ev="http://www.w3.org/2001/xml-events" xmlns:xlink="http://www.w3.org/1999/xlink"><defs /><path d="M975 -36Q975 -58 966.5 -77.5Q958 -97 943.0 -112.0Q928 -127 908.5 -135.5Q889 -144 867 -144Q845 -144 825.5 -135.5Q806 -127 791.0 -112.0Q776 -97 767.5 -77.5Q759 -58 759 -36Q759 -14 767.5 6.0Q776 26 790.5 40.5Q805 55 824.5 63.5Q844 72 867 72Q889 72 908.5 63.5Q928 55 943.0 40.0Q958 25 966.5 5.5Q975 -14 975 -36ZM1981 -36Q1981 -58 1972.5 -77.5Q1964 -97 1949.0 -112.0Q1934 -127 1914.5 -135.5Q1895 -144 1873 -144Q1851 -144 1831.5 -135.5Q1812 -127 1797.0 -112.0Q1782 -97 1773.5 -77.5Q1765 -58 1765 -36Q1765 -14 1773.5 5.5Q1782 25 1797.0 40.0Q1812 55 1831.5 63.5Q1851 72 1873 72Q1895 72 1915.0 63.5Q1935 55 1949.5 40.5Q1964 26 1972.5 6.0Q1981 -14 1981 -36Z" style="fill:#f4f4f4;stroke:none" transform="scale(1,-1) translate(0,-256)" /></svg>