<?xml version="1.0" encoding="utf-8" ?>
<svg baseProfile="full" height="256" version="1.1" width="256" xmlns="http://www.w3.org/2000/svg" xmlns:ev="http://www.w3.org/2001/xml-events" xmlns:xlink="http://www.w3.org/1999/xlink"><defs /><path d="M1981 1546Q1981 1583 1995.0 1615.5Q2009 1648 2033.5 1672.5Q2058 1697 2091.0 1711.0Q2124 1725 2161 1725Q2198 1725 2230.5 1711.0Q2263 1697 2287.5 1672.5Q2312 1648 2326.0 1615.5Q2340 1583 2340 1546V1186Q2340 1149 2326.0 1116.0Q2312 1083 2287.5 1058.5Q2263 1034 2230.5 1020.0Q2198 1006 2161 1006Q2124 1006 2091.0 1020.0Q2058 1034 2033.5 1058.5Q2009 1083 1995.0 1116.0Q1981 1149 1981 1186Z" style="fill:#3f5fff;stroke:none" transform="scale(1,-1) translate(0,-256)" /></svg>