<?xml version="1.0" encoding="utf-8" ?>
<svg baseProfile="full" height="256" version="1.1" width="256" xmlns="http://www.w3.org/2000/svg" xmlns:ev="http://www.w3.org/2001/xml-events" xmlns:xlink="http://www.w3.org/1999/xlink"><defs /><path d="M1083 1006Q1047 1006 1026.5 995.5Q1006 985 995.0 969.0Q984 953 978.0 934.5Q972 916 964.0 900.0Q956 884 942.5 873.5Q929 863 903 863Q873 863 852.0 884.0Q831 905 831 935Q831 938 831.0 941.5Q831 945 832 948Q841 996 863.5 1033.5Q886 1071 918.5 1097.0Q951 1123 993.0 1136.5Q1035 1150 1083 1150Q1131 1150 1172.5 1136.0Q1214 1122 1247.0 1095.5Q1280 1069 1302.0 1031.5Q1324 994 1333 947Q1334 944 1334.0 940.5Q1334 937 1334 934Q1334 904 1312.0 883.5Q1290 863 1261 863Q1235 863 1221.5 873.5Q1208 884 1200.5 900.0Q1193 916 1187.0 934.5Q1181 953 1169.5 969.0Q1158 985 1138.5 995.5Q1119 1006 1083 1006ZM1729 1006Q1693 1006 1673.0 995.5Q1653 985 1642.0 969.0Q1631 953 1625.0 934.5Q1619 916 1611.0 900.0Q1603 884 1589.5 873.5Q1576 863 1550 863Q1520 863 1499.0 884.0Q1478 905 1478 935Q1478 938 1478.0 941.5Q1478 945 1479 948Q1498 1044 1565.0 1097.0Q1632 1150 1729 1150Q1777 1150 1819.0 1136.5Q1861 1123 1894.0 1096.5Q1927 1070 1949.0 1032.5Q1971 995 1980 947Q1981 943 1981 935Q1981 905 1959.5 884.0Q1938 863 1908 863Q1882 863 1868.5 873.5Q1855 884 1847.5 900.0Q1840 916 1834.0 934.5Q1828 953 1817.0 969.0Q1806 985 1785.5 995.5Q1765 1006 1729 1006Z" style="fill:#402a32;stroke:none" transform="scale(1,-1) translate(0,-256)" /></svg>