<?xml version="1.0" encoding="utf-8" ?>
<svg baseProfile="full" height="256" version="1.1" width="256" xmlns="http://www.w3.org/2000/svg" xmlns:ev="http://www.w3.org/2001/xml-events" xmlns:xlink="http://www.w3.org/1999/xlink"><defs /><path d="M1454 581Q1491 581 1524.0 567.0Q1557 553 1582.0 528.0Q1607 503 1621.0 470.0Q1635 437 1635 400Q1635 371 1626.0 342.5Q1617 314 1599 291Q1617 267 1626.0 238.5Q1635 210 1635 181Q1635 143 1621.0 110.5Q1607 78 1582.0 53.0Q1557 28 1524.0 14.0Q1491 0 1454 0Q1424 0 1403.0 21.0Q1382 42 1382 72Q1382 102 1403.0 123.0Q1424 144 1454 144Q1469 144 1480.0 155.0Q1491 166 1491 181Q1491 197 1480.5 208.0Q1470 219 1454 219Q1424 219 1403.0 240.0Q1382 261 1382 291Q1382 320 1403.5 341.0Q1425 362 1454 362Q1470 362 1480.5 373.0Q1491 384 1491 400Q1491 416 1480.5 426.5Q1470 437 1454 437Q1424 437 1403.0 458.0Q1382 479 1382 509Q1382 539 1403.0 560.0Q1424 581 1454 581Z" style="fill:#402a32;stroke:none" transform="scale(1,-1) translate(0,-256)" /></svg>