<?xml version="1.0" encoding="utf-8" ?>
<svg baseProfile="full" height="256" version="1.1" width="256" xmlns="http://www.w3.org/2000/svg" xmlns:ev="http://www.w3.org/2001/xml-events" xmlns:xlink="http://www.w3.org/1999/xlink"><defs /><path d="M1962 -41Q1929 -41 1904.0 -25.0Q1879 -9 1863 19Q1843 54 1825.5 96.5Q1808 139 1795.0 184.0Q1782 229 1774.5 274.0Q1767 319 1767 359Q1767 401 1776.5 440.0Q1786 479 1807.0 509.5Q1828 540 1861.5 558.0Q1895 576 1942 576Q1979 576 2011.5 563.5Q2044 551 2070.0 529.5Q2096 508 2115.0 478.0Q2134 448 2143 413Q2158 415 2172.5 416.5Q2187 418 2202 418Q2243 418 2281.0 407.0Q2319 396 2348.5 373.5Q2378 351 2396.0 318.0Q2414 285 2414 240Q2414 190 2392.0 149.5Q2370 109 2333.0 78.0Q2296 47 2248.5 24.5Q2201 2 2151.0 -12.5Q2101 -27 2051.5 -34.0Q2002 -41 1962 -41Z" style="fill:#f70a8d;stroke:none" transform="scale(1,-1) translate(0,-256)" /></svg>