<?xml version="1.0" encoding="utf-8" ?>
<svg baseProfile="full" height="256" version="1.1" width="256" xmlns="http://www.w3.org/2000/svg" xmlns:ev="http://www.w3.org/2001/xml-events" xmlns:xlink="http://www.w3.org/1999/xlink"><defs /><path d="M1259 620Q1199 650 1136.0 672.5Q1073 695 1011 719Q977 703 942.5 688.5Q908 674 873 663Q844 654 816.5 644.0Q789 634 762 620Q726 664 706.5 717.0Q687 770 687 827Q687 894 712.5 952.5Q738 1011 782.0 1055.0Q826 1099 885.0 1124.5Q944 1150 1011 1150Q1078 1150 1136.5 1124.5Q1195 1099 1239.0 1055.0Q1283 1011 1308.5 952.5Q1334 894 1334 827Q1334 770 1314.5 717.0Q1295 664 1259 620Z" style="fill:#ffffff;stroke:none" transform="scale(1,-1) translate(0,-256)" /></svg>