<?xml version="1.0" encoding="utf-8" ?>
<svg baseProfile="full" height="256" version="1.1" width="256" xmlns="http://www.w3.org/2000/svg" xmlns:ev="http://www.w3.org/2001/xml-events" xmlns:xlink="http://www.w3.org/1999/xlink"><defs /><path d="M1442 773Q1466 773 1489.0 764.0Q1512 755 1529 738L2373 -71Q2412 -108 2412 -161Q2412 -187 2402.0 -210.0Q2392 -233 2375.0 -250.0Q2358 -267 2335.5 -277.0Q2313 -287 2287 -287Q2263 -287 2239.5 -278.0Q2216 -269 2199 -252L1355 556Q1336 574 1326.0 597.5Q1316 621 1316 647Q1316 673 1326.0 696.0Q1336 719 1353.0 736.0Q1370 753 1393.0 763.0Q1416 773 1442 773Z" style="fill:#f3c07b;stroke:none" transform="scale(1,-1) translate(0,-256)" /></svg>