<?xml version="1.0" encoding="utf-8" ?>
<svg baseProfile="full" height="256" version="1.1" width="256" xmlns="http://www.w3.org/2000/svg" xmlns:ev="http://www.w3.org/2001/xml-events" xmlns:xlink="http://www.w3.org/1999/xlink"><defs /><path d="M1727 1293Q1784 1293 1836.0 1274.0Q1888 1255 1930.0 1220.5Q1972 1186 2001.0 1139.0Q2030 1092 2041 1036L2134 568Q2134 566 2134.5 564.5Q2135 563 2135 561Q2135 542 2123.5 531.5Q2112 521 2095.5 516.0Q2079 511 2061.0 509.0Q2043 507 2030 504Q1998 498 1967 498Q1889 498 1819.0 534.5Q1749 571 1705 635Q1694 588 1671.5 548.0Q1649 508 1616.5 477.0Q1584 446 1543.0 424.5Q1502 403 1456 393Q1438 389 1416.5 383.0Q1395 377 1376 377Q1362 377 1350.5 387.0Q1339 397 1336 411L1243 880Q1237 911 1237 943Q1237 1000 1256.5 1052.0Q1276 1104 1310.0 1145.5Q1344 1187 1391.0 1216.0Q1438 1245 1494 1256Q1513 1260 1538.5 1267.0Q1564 1274 1584 1270Q1617 1280 1654.5 1286.5Q1692 1293 1727 1293ZM2196 -287H2160Q2121 -287 2087.0 -272.5Q2053 -258 2028.0 -233.0Q2003 -208 1988.5 -174.0Q1974 -140 1974 -101V171Q1974 184 1982.5 192.5Q1991 201 2004 201H2040Q2079 201 2112.5 186.5Q2146 172 2171.5 146.5Q2197 121 2211.5 87.5Q2226 54 2226 15V-257Q2226 -269 2217.0 -278.0Q2208 -287 2196 -287Z" style="fill:#f8312f;stroke:none" transform="scale(1,-1) translate(0,-256)" /></svg>