<?xml version="1.0" encoding="utf-8" ?>
<svg baseProfile="full" height="256" version="1.1" width="256" xmlns="http://www.w3.org/2000/svg" xmlns:ev="http://www.w3.org/2001/xml-events" xmlns:xlink="http://www.w3.org/1999/xlink"><defs /><path d="M1149 1653Q1279 1653 1392.0 1603.5Q1505 1554 1583 1448Q1606 1417 1623.5 1382.5Q1641 1348 1650 1311Q1652 1301 1652 1295Q1652 1266 1630.5 1244.0Q1609 1222 1580 1222Q1552 1222 1536.0 1237.5Q1520 1253 1510 1277Q1505 1291 1500.0 1303.5Q1495 1316 1488 1330Q1462 1378 1425.5 1412.0Q1389 1446 1345.0 1467.5Q1301 1489 1251.5 1499.5Q1202 1510 1149 1510Q1070 1510 1003.5 1475.5Q937 1441 889.0 1385.0Q841 1329 814.5 1257.0Q788 1185 788 1110Q788 1050 803.5 993.5Q819 937 845.5 885.0Q872 833 907.5 786.0Q943 739 984 697Q1080 599 1138.5 484.0Q1197 369 1197 229Q1197 112 1155.0 2.0Q1113 -108 1042 -200Q1029 -217 1014.5 -234.5Q1000 -252 984 -266Q972 -277 961.0 -282.0Q950 -287 933 -287Q904 -287 882.5 -266.0Q861 -245 861 -216Q861 -199 866.5 -188.5Q872 -178 882 -165Q893 -151 905.0 -138.0Q917 -125 928 -111Q983 -37 1017.5 49.5Q1052 136 1052 229Q1052 339 1004.5 429.0Q957 519 882 596Q865 613 849.0 631.0Q833 649 818 668V415Q818 366 799.5 323.0Q781 280 749.0 247.5Q717 215 674.0 196.5Q631 178 582 178Q568 178 555.5 182.0Q543 186 543 204V531Q543 575 558.5 615.0Q574 655 602.0 686.0Q630 717 667.5 737.5Q705 758 749 764Q701 843 672.5 931.5Q644 1020 644 1114Q644 1219 682.0 1316.5Q720 1414 787.5 1488.5Q855 1563 947.5 1608.0Q1040 1653 1149 1653Z" style="fill:#86d72f;stroke:none" transform="scale(1,-1) translate(0,-256)" /></svg>