<?xml version="1.0" encoding="utf-8" ?>
<svg baseProfile="full" height="256" version="1.1" width="256" xmlns="http://www.w3.org/2000/svg" xmlns:ev="http://www.w3.org/2001/xml-events" xmlns:xlink="http://www.w3.org/1999/xlink"><defs /><path d="M1663 887Q1669 890 1682.5 893.5Q1696 897 1711.5 899.5Q1727 902 1741.5 903.5Q1756 905 1764 905Q1805 905 1841.5 891.5Q1878 878 1907.5 853.5Q1937 829 1957.0 795.5Q1977 762 1985 722Q1987 711 1992.5 683.5Q1998 656 2005.5 620.5Q2013 585 2021.5 545.5Q2030 506 2036.5 472.0Q2043 438 2047.5 413.0Q2052 388 2052 382Q2052 369 2044.0 362.0Q2036 355 2024.0 351.5Q2012 348 1999.5 346.5Q1987 345 1978 343Q1959 339 1934 339Q1878 339 1828.5 365.0Q1779 391 1747 436Q1732 371 1684.5 324.0Q1637 277 1571 264Q1557 261 1542.0 257.0Q1527 253 1513 253Q1503 253 1495.5 260.0Q1488 267 1486 277L1420 610Q1415 635 1415 655Q1415 696 1429.0 733.0Q1443 770 1467.5 799.5Q1492 829 1525.5 849.5Q1559 870 1599 878Q1612 880 1627.0 884.5Q1642 889 1655 889Q1657 889 1663 887Z" style="fill:#ca0b4a;stroke:none" transform="scale(1,-1) translate(0,-256)" /></svg>