<?xml version="1.0" encoding="utf-8" ?>
<svg baseProfile="full" height="256" version="1.1" width="256" xmlns="http://www.w3.org/2000/svg" xmlns:ev="http://www.w3.org/2001/xml-events" xmlns:xlink="http://www.w3.org/1999/xlink"><defs /><path d="M1010 718Q1025 718 1036 708Q1121 637 1226.5 606.0Q1332 575 1442 575Q1552 575 1657.5 606.0Q1763 637 1848 708Q1859 718 1873 718Q1888 718 1898.5 708.0Q1909 698 1909 683Q1909 664 1883.5 643.0Q1858 622 1824.5 602.5Q1791 583 1758.5 568.5Q1726 554 1711 549L1863 232Q1920 256 1968.0 285.5Q2016 315 2065 351Q2070 355 2075.5 357.5Q2081 360 2088 360Q2103 360 2114.0 349.0Q2125 338 2125 324Q2125 315 2121.5 308.5Q2118 302 2112 296Q2091 276 2064.0 258.5Q2037 241 2012 227Q1884 152 1737.5 112.0Q1591 72 1442 72Q1293 72 1146.5 112.0Q1000 152 872 227Q847 241 820.0 258.5Q793 276 772 296Q766 302 762.5 308.5Q759 315 759 324Q759 338 770.0 349.0Q781 360 795 360Q802 360 807.5 357.5Q813 355 818 351Q866 316 915.0 286.5Q964 257 1020 233L1172 549Q1158 554 1125.0 569.0Q1092 584 1058.5 603.0Q1025 622 999.5 643.5Q974 665 974 683Q974 698 985.0 708.0Q996 718 1010 718ZM1642 528Q1593 515 1543.0 509.0Q1493 503 1442 503Q1391 503 1341.0 509.0Q1291 515 1242 528L1087 206Q1173 176 1262.0 160.0Q1351 144 1442 144Q1533 144 1621.5 160.0Q1710 176 1796 206Z" style="fill:#00d26a;stroke:none" transform="scale(1,-1) translate(0,-256)" /></svg>