<?xml version="1.0" encoding="utf-8" ?>
<svg baseProfile="full" height="256" version="1.1" width="256" xmlns="http://www.w3.org/2000/svg" xmlns:ev="http://www.w3.org/2001/xml-events" xmlns:xlink="http://www.w3.org/1999/xlink"><defs /><path d="M1345 1226Q1331 1193 1309.0 1165.5Q1287 1138 1258.5 1118.5Q1230 1099 1196.5 1088.5Q1163 1078 1127 1078Q1078 1078 1035.5 1096.5Q993 1115 961.5 1147.0Q930 1179 912.0 1222.0Q894 1265 894 1313Q894 1361 912.5 1404.0Q931 1447 962.5 1478.5Q994 1510 1036.5 1528.5Q1079 1547 1127 1547Q1196 1547 1253.0 1511.0Q1310 1475 1339 1412H1804Q1847 1412 1878.0 1389.0Q1909 1366 1909 1319Q1909 1278 1884.0 1255.0Q1859 1232 1821 1227Q1802 1225 1782.5 1225.5Q1763 1226 1744 1226Q1728 1226 1718.5 1232.0Q1709 1238 1701.5 1245.5Q1694 1253 1686.0 1259.0Q1678 1265 1665 1265Q1655 1265 1649.0 1261.5Q1643 1258 1638.0 1254.0Q1633 1250 1626.5 1246.5Q1620 1243 1610 1243Q1600 1243 1593.5 1246.5Q1587 1250 1582.0 1254.0Q1577 1258 1570.5 1261.5Q1564 1265 1554 1265Q1541 1265 1533.0 1259.0Q1525 1253 1517.5 1245.5Q1510 1238 1501.0 1232.0Q1492 1226 1476 1226ZM1010 1259Q1033 1259 1048.5 1274.5Q1064 1290 1064 1313Q1064 1335 1048.0 1351.0Q1032 1367 1010 1367Q988 1367 972.0 1351.0Q956 1335 956 1313Q956 1290 971.5 1274.5Q987 1259 1010 1259ZM1262 719H1136Q1128 719 1123.0 714.0Q1118 709 1118 701V18Q1118 10 1123.0 5.0Q1128 0 1136 0H1675Q1683 0 1688.0 5.0Q1693 10 1693 18V701Q1693 709 1688.0 714.0Q1683 719 1675 719H1550Q1550 749 1538.5 775.0Q1527 801 1507.5 820.5Q1488 840 1462.0 851.5Q1436 863 1406 863Q1376 863 1350.0 851.5Q1324 840 1304.5 820.5Q1285 801 1273.5 775.0Q1262 749 1262 719ZM1478 719H1334Q1334 749 1355.0 770.0Q1376 791 1406 791Q1436 791 1457.0 770.0Q1478 749 1478 719ZM831 647Q831 677 852.0 698.0Q873 719 903 719H1029Q1037 719 1042.0 714.0Q1047 709 1047 701V18Q1047 10 1042.0 5.0Q1037 0 1029 0H903Q873 0 852.0 21.0Q831 42 831 72ZM1783 0Q1775 0 1770.0 5.0Q1765 10 1765 18V701Q1765 709 1770.0 714.0Q1775 719 1783 719H1909Q1939 719 1960.0 698.0Q1981 677 1981 647V72Q1981 42 1960.0 21.0Q1939 0 1909 0ZM723 1006Q701 1006 681.5 997.5Q662 989 647.0 974.5Q632 960 623.5 940.5Q615 921 615 899V-36Q615 -58 623.5 -77.5Q632 -97 647.0 -112.0Q662 -127 681.5 -135.5Q701 -144 723 -144H2089Q2111 -144 2130.5 -135.5Q2150 -127 2165.0 -112.0Q2180 -97 2188.5 -77.5Q2197 -58 2197 -36V899Q2197 921 2188.5 940.5Q2180 960 2165.0 974.5Q2150 989 2130.5 997.5Q2111 1006 2089 1006ZM723 935H2089Q2103 935 2114.0 924.0Q2125 913 2125 899V-36Q2125 -51 2114.5 -61.5Q2104 -72 2089 -72H723Q708 -72 697.5 -61.5Q687 -51 687 -36V899Q687 913 698.0 924.0Q709 935 723 935Z" style="fill:#ffffff;stroke:none" transform="scale(1,-1) translate(0,-256)" /></svg>