<?xml version="1.0" encoding="utf-8" ?>
<svg baseProfile="full" height="256" version="1.1" width="256" xmlns="http://www.w3.org/2000/svg" xmlns:ev="http://www.w3.org/2001/xml-events" xmlns:xlink="http://www.w3.org/1999/xlink"><defs /><path d="M1872 1537Q1942 1537 2010.0 1519.5Q2078 1502 2141 1470Q2289 1396 2367.0 1271.0Q2445 1146 2445 981Q2445 890 2422.0 801.5Q2399 713 2359.5 630.5Q2320 548 2266.0 473.0Q2212 398 2150 334L2149 333Q2049 233 1949.5 135.5Q1850 38 1745 -57Q1688 -109 1629.0 -161.5Q1570 -214 1507 -259Q1484 -276 1461.0 -284.0Q1438 -292 1409 -292Q1379 -292 1354.5 -282.5Q1330 -273 1306 -256Q1275 -233 1242.5 -205.5Q1210 -178 1177.5 -149.0Q1145 -120 1113.0 -91.0Q1081 -62 1052 -36Q952 55 854.5 146.5Q757 238 662 334Q600 397 546.0 472.0Q492 547 452.0 630.0Q412 713 389.5 801.5Q367 890 367 981Q367 1146 445.0 1271.0Q523 1396 671 1470Q734 1502 802.0 1519.5Q870 1537 940 1537Q1007 1537 1072.0 1521.0Q1137 1505 1196.5 1475.5Q1256 1446 1309.0 1405.0Q1362 1364 1406 1315Q1450 1364 1503.0 1405.0Q1556 1446 1615.5 1475.5Q1675 1505 1740.0 1521.0Q1805 1537 1872 1537Z" style="fill:#636363;stroke:none" transform="scale(1,-1) translate(0,-256)" /></svg>