<?xml version="1.0" encoding="utf-8" ?>
<svg baseProfile="full" height="256" version="1.1" width="256" xmlns="http://www.w3.org/2000/svg" xmlns:ev="http://www.w3.org/2001/xml-events" xmlns:xlink="http://www.w3.org/1999/xlink"><defs /><path d="M1871 1465Q1933 1465 1993.0 1449.5Q2053 1434 2109 1406Q2239 1342 2306.0 1233.0Q2373 1124 2373 980Q2373 897 2351.5 815.5Q2330 734 2293.0 657.5Q2256 581 2206.0 512.0Q2156 443 2099 385Q2000 285 1900.5 188.0Q1801 91 1698 -3Q1642 -54 1584.0 -106.5Q1526 -159 1464 -202Q1451 -211 1438.0 -216.0Q1425 -221 1409 -221Q1392 -221 1378.5 -215.5Q1365 -210 1351 -200Q1321 -178 1288.5 -151.0Q1256 -124 1223.5 -95.0Q1191 -66 1159.5 -37.0Q1128 -8 1100 17Q1001 108 904.0 199.0Q807 290 713 385Q656 443 606.0 512.0Q556 581 519.0 658.0Q482 735 460.5 817.0Q439 899 439 982Q439 1126 507.0 1234.0Q575 1342 703 1406Q759 1434 819.0 1449.5Q879 1465 941 1465Q1005 1465 1067.0 1448.0Q1129 1431 1185.0 1400.5Q1241 1370 1290.0 1328.0Q1339 1286 1377 1236L1406 1198L1435 1236Q1473 1286 1522.0 1328.0Q1571 1370 1627.0 1400.5Q1683 1431 1745.0 1448.0Q1807 1465 1871 1465Z" style="fill:#1c1c1c;stroke:none" transform="scale(1,-1) translate(0,-256)" /></svg>