<?xml version="1.0" encoding="utf-8" ?>
<svg baseProfile="full" height="256" version="1.1" width="256" xmlns="http://www.w3.org/2000/svg" xmlns:ev="http://www.w3.org/2001/xml-events" xmlns:xlink="http://www.w3.org/1999/xlink"><defs /><path d="M1406 593Q1380 593 1357.0 603.0Q1334 613 1317.0 630.0Q1300 647 1290.0 670.0Q1280 693 1280 719Q1280 745 1290.0 768.0Q1300 791 1317.0 808.0Q1334 825 1357.0 835.0Q1380 845 1406 845Q1432 845 1455.0 835.0Q1478 825 1495.0 808.0Q1512 791 1522.0 768.0Q1532 745 1532 719Q1532 693 1522.0 670.0Q1512 647 1495.0 630.0Q1478 613 1455.0 603.0Q1432 593 1406 593ZM1406 -144Q1366 -144 1331.5 -127.5Q1297 -111 1267.0 -83.0Q1237 -55 1212.0 -19.5Q1187 16 1167.0 54.5Q1147 93 1131.5 130.5Q1116 168 1106 199Q1061 189 1015.0 183.5Q969 178 922 178Q873 178 822.0 187.0Q771 196 730.0 219.0Q689 242 662.5 281.0Q636 320 636 380Q636 425 651.5 471.5Q667 518 692.0 562.0Q717 606 747.0 646.0Q777 686 806 719Q777 751 747.0 791.0Q717 831 692.0 875.0Q667 919 651.5 965.5Q636 1012 636 1057Q636 1117 662.5 1156.0Q689 1195 730.0 1218.0Q771 1241 822.0 1250.0Q873 1259 922 1259Q969 1259 1015.0 1253.5Q1061 1248 1106 1238Q1116 1269 1131.5 1307.0Q1147 1345 1167.0 1383.0Q1187 1421 1212.0 1456.5Q1237 1492 1267.0 1520.0Q1297 1548 1331.5 1564.5Q1366 1581 1406 1581Q1446 1581 1480.5 1564.5Q1515 1548 1545.0 1520.0Q1575 1492 1600.0 1456.5Q1625 1421 1645.0 1382.5Q1665 1344 1680.0 1306.5Q1695 1269 1706 1238Q1751 1248 1797.0 1253.5Q1843 1259 1890 1259Q1939 1259 1990.0 1250.0Q2041 1241 2082.0 1218.0Q2123 1195 2149.5 1156.0Q2176 1117 2176 1057Q2176 1012 2160.5 965.5Q2145 919 2120.0 875.0Q2095 831 2065.0 791.0Q2035 751 2006 719Q2035 686 2065.0 646.0Q2095 606 2120.0 562.0Q2145 518 2160.5 471.5Q2176 425 2176 380Q2176 320 2149.5 281.0Q2123 242 2082.0 219.0Q2041 196 1990.0 187.0Q1939 178 1890 178Q1843 178 1797.0 183.5Q1751 189 1706 199Q1695 167 1680.0 129.5Q1665 92 1645.0 54.0Q1625 16 1600.0 -19.5Q1575 -55 1545.0 -83.0Q1515 -111 1480.5 -127.5Q1446 -144 1406 -144ZM1406 -36Q1429 -36 1450.5 -21.5Q1472 -7 1491.5 16.0Q1511 39 1528.5 68.0Q1546 97 1560.0 126.0Q1574 155 1584.5 181.5Q1595 208 1601 226Q1502 256 1406 298Q1310 256 1211 226Q1217 208 1227.5 181.5Q1238 155 1252.0 126.0Q1266 97 1283.5 68.0Q1301 39 1320.5 16.0Q1340 -7 1361.5 -21.5Q1383 -36 1406 -36ZM1631 330Q1636 354 1641.0 378.0Q1646 402 1650 427Q1621 410 1593.0 394.0Q1565 378 1536 361Q1559 352 1583.0 344.5Q1607 337 1631 330ZM2069 379Q2069 413 2055.0 449.0Q2041 485 2020.5 519.5Q2000 554 1975.5 585.5Q1951 617 1930 641Q1892 605 1852.0 572.0Q1812 539 1770 508Q1764 456 1755.5 405.0Q1747 354 1735 303Q1774 295 1813.0 290.5Q1852 286 1892 286Q1915 286 1945.5 288.5Q1976 291 2003.5 301.0Q2031 311 2050.0 329.0Q2069 347 2069 379ZM1930 796Q1951 820 1975.5 851.5Q2000 883 2020.5 918.0Q2041 953 2055.0 989.0Q2069 1025 2069 1058Q2069 1089 2050.0 1107.5Q2031 1126 2003.5 1136.0Q1976 1146 1945.5 1148.5Q1915 1151 1892 1151Q1852 1151 1813.0 1146.5Q1774 1142 1735 1134Q1747 1083 1755.5 1032.0Q1764 981 1770 929Q1812 898 1852.0 864.5Q1892 831 1930 796ZM1855 719Q1819 753 1780 785Q1783 719 1780 653Q1819 684 1855 719ZM1630 1108Q1607 1100 1583.0 1092.5Q1559 1085 1536 1076Q1565 1060 1593.0 1043.5Q1621 1027 1650 1010Q1646 1035 1641.0 1059.5Q1636 1084 1630 1108ZM1211 1211Q1262 1197 1310.0 1178.5Q1358 1160 1406 1139Q1454 1160 1502.0 1178.5Q1550 1197 1601 1211Q1592 1238 1573.0 1282.0Q1554 1326 1528.5 1368.5Q1503 1411 1471.5 1442.0Q1440 1473 1406 1473Q1383 1473 1361.5 1458.5Q1340 1444 1320.0 1421.0Q1300 1398 1283.0 1369.0Q1266 1340 1252.0 1311.0Q1238 1282 1227.5 1255.5Q1217 1229 1211 1211ZM1077 1134Q1038 1142 999.0 1146.5Q960 1151 920 1151Q897 1151 866.5 1148.5Q836 1146 808.5 1136.0Q781 1126 762.0 1107.5Q743 1089 743 1058Q743 1026 757.0 989.5Q771 953 791.5 918.0Q812 883 836.5 851.0Q861 819 882 796Q920 832 960.0 865.0Q1000 898 1042 929Q1048 981 1056.0 1032.0Q1064 1083 1077 1134ZM882 641Q861 618 836.5 586.5Q812 555 791.5 519.5Q771 484 757.0 448.0Q743 412 743 379Q743 347 762.0 329.0Q781 311 808.5 301.0Q836 291 866.5 288.5Q897 286 920 286Q960 286 999.0 290.5Q1038 295 1077 303Q1065 354 1056.5 405.0Q1048 456 1042 508Q1000 539 960.0 572.0Q920 605 882 641ZM957 719Q993 684 1032 653Q1029 719 1032 785Q993 753 957 719ZM1138 719Q1138 643 1144 568Q1269 483 1406 417Q1543 483 1668 568Q1674 643 1674 719Q1674 757 1672.0 794.5Q1670 832 1667 870Q1604 912 1539.5 950.5Q1475 989 1406 1021Q1337 988 1272.0 950.0Q1207 912 1144 870Q1138 795 1138 719ZM1181 330Q1205 337 1229.0 344.5Q1253 352 1276 361Q1247 378 1219.0 394.0Q1191 410 1162 427Q1166 402 1171.0 378.0Q1176 354 1181 330ZM1276 1076Q1253 1085 1229.0 1093.0Q1205 1101 1181 1108Q1176 1083 1171.0 1059.0Q1166 1035 1162 1010Q1191 1027 1219.0 1043.5Q1247 1060 1276 1076Z" style="fill:#ffffff;stroke:none" transform="scale(1,-1) translate(0,-256)" /></svg>