<?xml version="1.0" encoding="utf-8" ?>
<svg baseProfile="full" height="256" version="1.1" width="256" xmlns="http://www.w3.org/2000/svg" xmlns:ev="http://www.w3.org/2001/xml-events" xmlns:xlink="http://www.w3.org/1999/xlink"><defs /><path d="M472 1393Q472 1412 485.5 1425.0Q499 1438 517 1438H2295Q2313 1438 2326.5 1425.0Q2340 1412 2340 1393Q2340 1381 2337.0 1357.5Q2334 1334 2329.5 1308.0Q2325 1282 2320.5 1257.5Q2316 1233 2314 1218Q2309 1189 2287.5 1169.5Q2266 1150 2237 1150H575Q546 1150 524.0 1169.5Q502 1189 497 1218Q495 1233 490.5 1257.5Q486 1282 482.0 1307.5Q478 1333 475.0 1356.5Q472 1380 472 1393Z" style="fill:#00a6ed;stroke:none" transform="scale(1,-1) translate(0,-256)" /></svg>