<?xml version="1.0" encoding="utf-8" ?>
<svg baseProfile="full" height="256" version="1.1" width="256" xmlns="http://www.w3.org/2000/svg" xmlns:ev="http://www.w3.org/2001/xml-events" xmlns:xlink="http://www.w3.org/1999/xlink"><defs /><path d="M2301 719Q2301 595 2269.0 480.5Q2237 366 2179.0 266.5Q2121 167 2039.0 85.5Q1957 4 1858.0 -54.5Q1759 -113 1644.5 -145.0Q1530 -177 1406 -177Q1282 -177 1167.5 -145.0Q1053 -113 953.5 -54.5Q854 4 772.5 85.5Q691 167 632.5 266.5Q574 366 542.0 480.5Q510 595 510 719Q510 843 542.0 957.5Q574 1072 632.5 1171.0Q691 1270 772.5 1352.0Q854 1434 953.5 1492.0Q1053 1550 1167.5 1582.0Q1282 1614 1406 1614Q1530 1614 1644.5 1582.0Q1759 1550 1858.0 1492.0Q1957 1434 2039.0 1352.0Q2121 1270 2179.0 1171.0Q2237 1072 2269.0 957.5Q2301 843 2301 719Z" style="fill:#e6e6e6;stroke:none" transform="scale(1,-1) translate(0,-256)" /></svg>