<?xml version="1.0" encoding="utf-8" ?>
<svg baseProfile="full" height="256" version="1.1" width="256" xmlns="http://www.w3.org/2000/svg" xmlns:ev="http://www.w3.org/2001/xml-events" xmlns:xlink="http://www.w3.org/1999/xlink"><defs /><path d="M1103 -215Q1006 -215 916.0 -190.0Q826 -165 748.0 -119.5Q670 -74 606.0 -9.5Q542 55 496.0 133.0Q450 211 425.0 300.5Q400 390 400 487V821Q400 917 436.0 1002.5Q472 1088 534.5 1153.0Q597 1218 681.5 1256.0Q766 1294 863 1294Q938 1294 1007.0 1272.5Q1076 1251 1134.0 1211.0Q1192 1171 1236.0 1114.0Q1280 1057 1306 987Q1317 956 1322.5 925.5Q1328 895 1333 863Q1350 733 1449 650Q1455 645 1464.0 639.5Q1473 634 1482.5 628.0Q1492 622 1500.0 617.5Q1508 613 1511 610Q1540 584 1567.0 556.5Q1594 529 1622 503Q1653 524 1683.5 545.5Q1714 567 1746 587Q1749 589 1758.0 592.5Q1767 596 1777.5 600.0Q1788 604 1798.0 608.0Q1808 612 1815 616Q1853 638 1884.0 669.0Q1915 700 1936.5 737.0Q1958 774 1969.5 816.5Q1981 859 1981 903V1069Q1981 1097 2000.5 1116.0Q2020 1135 2047 1135Q2064 1135 2077 1128Q2132 1100 2164.5 1048.5Q2197 997 2197 935Q2197 998 2229.0 1048.5Q2261 1099 2317 1128Q2330 1135 2346 1135Q2374 1135 2393.0 1115.5Q2412 1096 2412 1069V799Q2412 718 2403.0 637.0Q2394 556 2375.0 477.0Q2356 398 2326.0 322.5Q2296 247 2254 177L2024 11Q2007 -1 1993.5 -11.5Q1980 -22 1967.5 -32.0Q1955 -42 1941.0 -52.0Q1927 -62 1909 -72Q1893 -81 1879.5 -87.0Q1866 -93 1853.0 -98.0Q1840 -103 1826.0 -108.0Q1812 -113 1795 -120L1568 -215H1343Q1341 -215 1327.5 -212.5Q1314 -210 1294.5 -206.5Q1275 -203 1252.5 -198.5Q1230 -194 1210.0 -190.0Q1190 -186 1174.5 -183.0Q1159 -180 1154 -179Z" style="fill:#9b9b9b;stroke:none" transform="scale(1,-1) translate(0,-256)" /></svg>