<?xml version="1.0" encoding="utf-8" ?>
<svg baseProfile="full" height="256" version="1.1" width="256" xmlns="http://www.w3.org/2000/svg" xmlns:ev="http://www.w3.org/2001/xml-events" xmlns:xlink="http://www.w3.org/1999/xlink"><defs /><path d="M745 919Q745 897 729.5 881.5Q714 866 692 866Q670 866 654.0 881.0Q638 896 638 919Q638 942 653.5 957.5Q669 973 692 973Q715 973 730.0 957.0Q745 941 745 919ZM1052 866Q1074 866 1090.0 881.5Q1106 897 1106 919Q1106 941 1090.0 957.0Q1074 973 1052 973Q1029 973 1013.5 957.5Q998 942 998 919Q998 896 1014.0 881.0Q1030 866 1052 866ZM773 822Q773 839 784.5 851.0Q796 863 813 863H930Q947 863 958.5 851.0Q970 839 970 822Q970 804 956 792Q949 786 939.0 776.0Q929 766 917.5 757.0Q906 748 894.5 741.0Q883 734 872 734Q861 734 849.0 741.0Q837 748 825.5 757.5Q814 767 804.0 776.5Q794 786 787 792Q773 803 773 822Z" style="fill:#1c1c1c;stroke:none" transform="scale(1,-1) translate(0,-256)" /></svg>