<?xml version="1.0" encoding="utf-8" ?>
<svg baseProfile="full" height="256" version="1.1" width="256" xmlns="http://www.w3.org/2000/svg" xmlns:ev="http://www.w3.org/2001/xml-events" xmlns:xlink="http://www.w3.org/1999/xlink"><defs /><path d="M1757 540Q1757 512 1746.5 487.5Q1736 463 1718.0 445.0Q1700 427 1676.0 416.5Q1652 406 1624 406Q1597 406 1572.5 416.5Q1548 427 1529.5 445.0Q1511 463 1500.0 487.5Q1489 512 1489 540Q1489 578 1509 610Q1547 591 1585.5 583.0Q1624 575 1666 575Q1686 575 1707.0 578.5Q1728 582 1748 588Q1757 565 1757 540ZM2032 468Q2032 434 2008.0 410.0Q1984 386 1950 386Q1916 386 1892.0 410.0Q1868 434 1868 468Q1868 502 1892.0 526.0Q1916 550 1950 550Q1984 550 2008.0 526.0Q2032 502 2032 468Z" style="fill:#636363;stroke:none" transform="scale(1,-1) translate(0,-256)" /></svg>