<?xml version="1.0" encoding="utf-8" ?>
<svg baseProfile="full" height="256" version="1.1" width="256" xmlns="http://www.w3.org/2000/svg" xmlns:ev="http://www.w3.org/2001/xml-events" xmlns:xlink="http://www.w3.org/1999/xlink"><defs /><path d="M1460 791Q1465 811 1469.0 830.0Q1473 849 1473 869Q1473 879 1471.0 886.5Q1469 894 1460 899Q1437 913 1417.5 926.5Q1398 940 1383.5 956.5Q1369 973 1360.5 994.5Q1352 1016 1352 1046V1222Q1361 1229 1377.5 1241.5Q1394 1254 1412.5 1265.5Q1431 1277 1448.5 1285.5Q1466 1294 1478 1294H1909V1078Q1922 1078 1938.0 1077.5Q1954 1077 1969.5 1073.5Q1985 1070 1998.0 1062.5Q2011 1055 2017 1042L2024 1027Q2027 1022 2029.0 1017.5Q2031 1013 2032 1007L2033 1006Q2034 1001 2034.5 997.0Q2035 993 2035 988Q2035 959 2013.5 938.0Q1992 917 1963 917H1909Q1892 917 1881.5 902.0Q1871 887 1865.0 866.5Q1859 846 1857.0 824.5Q1855 803 1855 791H1460Z" style="fill:#ffc83d;stroke:none" transform="scale(1,-1) translate(0,-256)" /></svg>