<?xml version="1.0" encoding="utf-8" ?>
<svg baseProfile="full" height="256" version="1.1" width="256" xmlns="http://www.w3.org/2000/svg" xmlns:ev="http://www.w3.org/2001/xml-events" xmlns:xlink="http://www.w3.org/1999/xlink"><defs /><path d="M1819 1456Q1819 1485 1840.5 1506.5Q1862 1528 1891 1528H1999Q2028 1528 2049.5 1506.5Q2071 1485 2071 1456Q2071 1426 2050.0 1405.0Q2029 1384 1999 1384Q2029 1384 2050.0 1363.0Q2071 1342 2071 1312Q2071 1282 2050.0 1261.0Q2029 1240 1999 1240Q2029 1240 2050.0 1219.0Q2071 1198 2071 1168Q2071 1148 2063.5 1134.0Q2056 1120 2044.0 1111.5Q2032 1103 2015.5 1099.5Q1999 1096 1981 1096Q2011 1096 2032.0 1075.0Q2053 1054 2053 1024Q2053 995 2031.5 974.0Q2010 953 1981 953H1891Q1862 953 1840.5 974.0Q1819 995 1819 1024Q1819 1054 1840.0 1075.0Q1861 1096 1891 1096Q1861 1096 1840.0 1117.0Q1819 1138 1819 1168Q1819 1198 1840.0 1219.0Q1861 1240 1891 1240Q1861 1240 1840.0 1261.0Q1819 1282 1819 1312Q1819 1342 1840.0 1363.0Q1861 1384 1891 1384Q1861 1384 1840.0 1405.0Q1819 1426 1819 1456ZM1474 1348Q1449 1348 1426.5 1338.5Q1404 1329 1387.5 1312.5Q1371 1296 1361.5 1273.5Q1352 1251 1352 1226Q1352 1194 1374.0 1172.0Q1396 1150 1428 1150H1557Q1577 1150 1595.0 1158.0Q1613 1166 1626.5 1179.5Q1640 1193 1648.0 1211.0Q1656 1229 1656 1249Q1656 1269 1648.0 1287.0Q1640 1305 1626.5 1318.5Q1613 1332 1595.0 1340.0Q1577 1348 1557 1348Z" style="fill:#ffc83d;stroke:none" transform="scale(1,-1) translate(0,-256)" /></svg>