<?xml version="1.0" encoding="utf-8" ?>
<svg baseProfile="full" height="256" version="1.1" width="256" xmlns="http://www.w3.org/2000/svg" xmlns:ev="http://www.w3.org/2001/xml-events" xmlns:xlink="http://www.w3.org/1999/xlink"><defs /><path d="M838 72Q806 72 769.0 81.0Q732 90 702 101Q623 129 566.0 175.0Q509 221 472.0 281.5Q435 342 417.5 415.0Q400 488 400 570Q400 654 428.0 717.0Q456 780 502.5 830.0Q549 880 609.5 920.0Q670 960 735 996Q750 1004 760.5 1010.5Q771 1017 779.5 1024.0Q788 1031 794.5 1041.0Q801 1051 808 1067Q851 1170 919.5 1252.0Q988 1334 1075.5 1391.5Q1163 1449 1266.0 1479.5Q1369 1510 1481 1510Q1593 1510 1699 1472Q1707 1502 1725.5 1529.0Q1744 1556 1767.5 1580.0Q1791 1604 1817.5 1624.0Q1844 1644 1870 1660Q1908 1684 1958.5 1697.0Q2009 1710 2063.0 1716.0Q2117 1722 2170.5 1723.5Q2224 1725 2268 1725V484Q2268 447 2264.5 402.0Q2261 357 2252.0 311.5Q2243 266 2227.0 222.5Q2211 179 2185.5 145.5Q2160 112 2124.0 92.0Q2088 72 2039 72Z" style="fill:#6d4534;stroke:none" transform="scale(1,-1) translate(0,-256)" /></svg>