<?xml version="1.0" encoding="utf-8" ?>
<svg baseProfile="full" height="256" version="1.1" width="256" xmlns="http://www.w3.org/2000/svg" xmlns:ev="http://www.w3.org/2001/xml-events" xmlns:xlink="http://www.w3.org/1999/xlink"><defs /><path d="M1827 678Q1837 629 1837 575Q1837 495 1812.5 420.5Q1788 346 1743.5 283.0Q1699 220 1636.5 172.5Q1574 125 1498 99Q1468 89 1433.5 81.0Q1399 73 1367 73Q1324 73 1279.5 79.0Q1235 85 1193 95Q1099 117 1031.0 160.0Q963 203 918.5 264.5Q874 326 852.5 405.0Q831 484 831 579Q831 618 842.5 661.5Q854 705 870 740Q925 866 1026.5 936.0Q1128 1006 1268 1006Q1353 1006 1429.0 975.0Q1505 944 1574.0 896.0Q1643 848 1706.0 790.0Q1769 732 1827 678Z" style="fill:#a56953;stroke:none" transform="scale(1,-1) translate(0,-256)" /></svg>