<?xml version="1.0" encoding="utf-8" ?>
<svg baseProfile="full" height="256" version="1.1" width="256" xmlns="http://www.w3.org/2000/svg" xmlns:ev="http://www.w3.org/2001/xml-events" xmlns:xlink="http://www.w3.org/1999/xlink"><defs /><path d="M2247 1725H2290Q2315 1725 2337.5 1715.5Q2360 1706 2376.5 1689.5Q2393 1673 2402.5 1650.5Q2412 1628 2412 1603Q2412 1564 2389.5 1532.0Q2367 1500 2330 1487Q2367 1474 2389.5 1442.0Q2412 1410 2412 1371Q2412 1346 2402.5 1323.5Q2393 1301 2376.5 1284.5Q2360 1268 2337.5 1258.5Q2315 1249 2290 1249Q2315 1249 2337.5 1239.5Q2360 1230 2376.5 1213.5Q2393 1197 2402.5 1174.5Q2412 1152 2412 1127Q2412 1090 2392.0 1059.0Q2372 1028 2337 1014Q2371 1000 2391.5 969.0Q2412 938 2412 901Q2412 858 2386.0 825.0Q2360 792 2318 782Q2360 772 2386.0 739.0Q2412 706 2412 663Q2412 623 2389.0 591.0Q2366 559 2328 547Q2366 534 2389.0 502.0Q2412 470 2412 430Q2412 405 2402.5 382.5Q2393 360 2376.5 343.5Q2360 327 2337.5 317.5Q2315 308 2290 308Q2315 308 2337.5 299.5Q2360 291 2376.5 275.0Q2393 259 2402.5 237.5Q2412 216 2412 190Q2412 166 2402.5 144.5Q2393 123 2377.0 107.0Q2361 91 2339.5 81.5Q2318 72 2294 72H1997V308H2217V1494H2247Z" style="fill:#f3ad61;stroke:none" transform="scale(1,-1) translate(0,-256)" /></svg>