<?xml version="1.0" encoding="utf-8" ?>
<svg baseProfile="full" height="256" version="1.1" width="256" xmlns="http://www.w3.org/2000/svg" xmlns:ev="http://www.w3.org/2001/xml-events" xmlns:xlink="http://www.w3.org/1999/xlink"><defs /><path d="M1103 -215 1147 95H1264L1218 -215H1390L1433 95H1551L1504 -215H1615Q1641 -215 1663.0 -229.0Q1685 -243 1692 -269Q1692 -270 1692.5 -271.0Q1693 -272 1693 -273Q1693 -280 1688.0 -283.5Q1683 -287 1677 -287H850Q844 -287 839.0 -283.0Q834 -279 834 -273Q834 -258 840.5 -247.5Q847 -237 857.5 -229.5Q868 -222 880.5 -218.5Q893 -215 906 -215Z" style="fill:#9b9b9b;stroke:none" transform="scale(1,-1) translate(0,-256)" /></svg>