<?xml version="1.0" encoding="utf-8" ?>
<svg baseProfile="full" height="256" version="1.1" width="256" xmlns="http://www.w3.org/2000/svg" xmlns:ev="http://www.w3.org/2001/xml-events" xmlns:xlink="http://www.w3.org/1999/xlink"><defs /><path d="M2297 719Q2297 596 2265.0 482.0Q2233 368 2175.0 269.0Q2117 170 2036.0 89.0Q1955 8 1856.0 -50.0Q1757 -108 1643.0 -140.0Q1529 -172 1406 -172Q1283 -172 1169.0 -140.0Q1055 -108 956.0 -50.0Q857 8 776.0 89.0Q695 170 637.0 269.0Q579 368 547.0 482.0Q515 596 515 719Q515 842 547.0 956.0Q579 1070 637.0 1169.0Q695 1268 776.0 1349.0Q857 1430 956.0 1488.0Q1055 1546 1169.0 1578.0Q1283 1610 1406 1610Q1529 1610 1643.0 1578.0Q1757 1546 1856.0 1488.0Q1955 1430 2036.0 1349.0Q2117 1268 2175.0 1169.0Q2233 1070 2265.0 956.0Q2297 842 2297 719Z" style="fill:#e6e6e6;stroke:none" transform="scale(1,-1) translate(0,-256)" /></svg>