<?xml version="1.0" encoding="utf-8" ?>
<svg baseProfile="full" height="256" version="1.1" width="256" xmlns="http://www.w3.org/2000/svg" xmlns:ev="http://www.w3.org/2001/xml-events" xmlns:xlink="http://www.w3.org/1999/xlink"><defs /><path d="M963 1473Q948 1469 933.0 1465.0Q918 1461 904 1456Q899 1460 892.5 1465.0Q886 1470 886 1477Q886 1482 890.5 1486.0Q895 1490 901.0 1492.5Q907 1495 913.5 1496.5Q920 1498 924 1498Q937 1498 947.0 1491.0Q957 1484 963 1473ZM1060 1473Q1066 1483 1076.0 1490.5Q1086 1498 1098 1498Q1102 1498 1108.5 1497.0Q1115 1496 1121.5 1493.5Q1128 1491 1132.5 1487.0Q1137 1483 1137 1477Q1137 1469 1130.0 1465.0Q1123 1461 1118 1456Q1104 1461 1089.0 1464.5Q1074 1468 1060 1473ZM1753 1473Q1738 1469 1723.0 1465.0Q1708 1461 1694 1456Q1689 1460 1682.5 1465.0Q1676 1470 1676 1477Q1676 1482 1680.5 1486.0Q1685 1490 1691.0 1492.5Q1697 1495 1703.5 1496.5Q1710 1498 1714 1498Q1726 1498 1736.0 1490.5Q1746 1483 1753 1473ZM1849 1473Q1856 1483 1865.5 1490.5Q1875 1498 1888 1498Q1892 1498 1898.5 1496.5Q1905 1495 1911.5 1492.5Q1918 1490 1922.5 1486.0Q1927 1482 1927 1477Q1927 1470 1920.0 1465.0Q1913 1460 1908 1456Q1894 1461 1879.0 1465.0Q1864 1469 1849 1473Z" style="fill:#000000;stroke:none" transform="scale(1,-1) translate(0,-256)" /></svg>