<?xml version="1.0" encoding="utf-8" ?>
<svg baseProfile="full" height="256" version="1.1" width="256" xmlns="http://www.w3.org/2000/svg" xmlns:ev="http://www.w3.org/2001/xml-events" xmlns:xlink="http://www.w3.org/1999/xlink"><defs /><path d="M1008 1270Q975 1270 947.5 1281.5Q920 1293 900.0 1313.5Q880 1334 868.0 1362.0Q856 1390 855 1422Q854 1445 852.5 1469.5Q851 1494 851 1517Q851 1531 857.5 1545.0Q864 1559 878 1565H879Q889 1569 896.5 1578.0Q904 1587 909.5 1595.5Q915 1604 919.0 1610.5Q923 1617 926 1617Q928 1617 936.0 1608.0Q944 1599 957.0 1588.0Q970 1577 988.5 1568.0Q1007 1559 1031 1559H1130Q1149 1559 1157.0 1544.5Q1165 1530 1165 1513Q1165 1490 1164.0 1467.5Q1163 1445 1162 1422Q1160 1390 1148.0 1362.0Q1136 1334 1116.0 1313.5Q1096 1293 1068.5 1281.5Q1041 1270 1008 1270ZM1960 1499H1961L1958 1422Q1956 1390 1944.0 1362.0Q1932 1334 1912.0 1313.5Q1892 1293 1864.5 1281.5Q1837 1270 1804 1270Q1771 1270 1743.5 1281.5Q1716 1293 1696.0 1313.5Q1676 1334 1663.5 1362.0Q1651 1390 1650 1422Q1649 1445 1648.0 1467.5Q1647 1490 1647 1513Q1647 1530 1655.0 1544.5Q1663 1559 1682 1559H1781Q1805 1559 1823.5 1568.0Q1842 1577 1855.0 1588.0Q1868 1599 1876.0 1608.0Q1884 1617 1886 1617Q1889 1617 1893.0 1610.5Q1897 1604 1902.5 1595.5Q1908 1587 1915.5 1578.5Q1923 1570 1933 1565H1934Q1955 1556 1957.0 1537.0Q1959 1518 1960 1499Z" style="fill:#ffc83d;stroke:none" transform="scale(1,-1) translate(0,-256)" /></svg>