<?xml version="1.0" encoding="utf-8" ?>
<svg baseProfile="full" height="256" version="1.1" width="256" xmlns="http://www.w3.org/2000/svg" xmlns:ev="http://www.w3.org/2001/xml-events" xmlns:xlink="http://www.w3.org/1999/xlink"><defs /><path d="M923 1450Q921 1456 921 1458Q921 1465 926.0 1470.5Q931 1476 939 1476Q947 1476 952.0 1471.0Q957 1466 957 1458Q957 1453 956 1450ZM1065 1450Q1063 1456 1063 1458Q1063 1466 1068.0 1471.0Q1073 1476 1081 1476Q1089 1476 1094.0 1471.0Q1099 1466 1099 1458Q1099 1456 1097 1450ZM1715 1450Q1713 1456 1713 1458Q1713 1466 1718.0 1471.0Q1723 1476 1731 1476Q1739 1476 1744.0 1471.0Q1749 1466 1749 1458Q1749 1456 1747 1450ZM1856 1450Q1855 1453 1855 1458Q1855 1466 1860.0 1471.0Q1865 1476 1873 1476Q1881 1476 1886.0 1471.0Q1891 1466 1891 1458Q1891 1456 1889 1450Z" style="fill:#000000;stroke:none" transform="scale(1,-1) translate(0,-256)" /></svg>