<?xml version="1.0" encoding="utf-8" ?>
<svg baseProfile="full" height="256" version="1.1" width="256" xmlns="http://www.w3.org/2000/svg" xmlns:ev="http://www.w3.org/2001/xml-events" xmlns:xlink="http://www.w3.org/1999/xlink"><defs /><path d="M831 -179 795 719 1011 863 1226 719 1190 -179H1047L1026 555Q1026 563 1021.5 569.0Q1017 575 1009 575Q1001 575 997.0 569.0Q993 563 993 555L975 -179ZM1981 -179 2017 719 1802 863 1586 719 1622 -179H1766L1786 555Q1786 563 1790.5 569.0Q1795 575 1803 575Q1811 575 1815.0 569.0Q1819 563 1819 555L1837 -179Z" style="fill:#636363;stroke:none" transform="scale(1,-1) translate(0,-256)" /></svg>