<?xml version="1.0" encoding="utf-8" ?>
<svg baseProfile="full" height="256" version="1.1" width="256" xmlns="http://www.w3.org/2000/svg" xmlns:ev="http://www.w3.org/2001/xml-events" xmlns:xlink="http://www.w3.org/1999/xlink"><defs /><path d="M928 1464Q923 1464 923 1469Q925 1474 928 1474Q930 1474 933 1469Q933 1464 928 1464ZM1075 1464Q1070 1464 1070 1469Q1072 1474 1075 1474L1080 1469Q1080 1466 1075 1464ZM1738 1464Q1732 1464 1732 1469Q1734 1474 1738 1474L1743 1469Q1743 1466 1738 1464ZM1884 1464Q1879 1464 1879 1469Q1881 1474 1884 1474Q1886 1474 1889 1469Q1889 1464 1884 1464Z" style="fill:#ffffff;stroke:none" transform="scale(1,-1) translate(0,-256)" /></svg>