<?xml version="1.0" encoding="utf-8" ?>
<svg baseProfile="full" height="256" version="1.1" width="256" xmlns="http://www.w3.org/2000/svg" xmlns:ev="http://www.w3.org/2001/xml-events" xmlns:xlink="http://www.w3.org/1999/xlink"><defs /><path d="M1244 1460Q1244 1445 1238.0 1432.0Q1232 1419 1232 1409Q1232 1398 1238.0 1385.0Q1244 1372 1244 1358Q1244 1316 1215.0 1287.0Q1186 1258 1144 1258H877Q835 1258 806.0 1287.0Q777 1316 777 1358Q777 1372 782.5 1385.0Q788 1398 788 1409Q788 1420 782.5 1433.0Q777 1446 777 1460Q777 1491 794 1517Q810 1542 810 1573Q810 1615 839.0 1644.0Q868 1673 910 1675Q921 1675 927 1682Q945 1702 963.5 1713.5Q982 1725 1011 1725Q1040 1725 1058.0 1713.5Q1076 1702 1094 1682Q1101 1675 1108 1675Q1129 1675 1147.5 1667.0Q1166 1659 1180.5 1645.0Q1195 1631 1203.0 1612.5Q1211 1594 1211 1573Q1211 1559 1215.0 1544.0Q1219 1529 1227 1517Q1244 1493 1244 1460ZM1568 1460Q1568 1493 1585 1517Q1593 1529 1597.0 1543.5Q1601 1558 1601 1573Q1601 1594 1609.0 1612.5Q1617 1631 1631.5 1645.0Q1646 1659 1664.5 1667.0Q1683 1675 1704 1675Q1711 1675 1718 1682Q1736 1702 1754.5 1713.5Q1773 1725 1802 1725Q1830 1725 1848.5 1713.5Q1867 1702 1885 1682Q1891 1675 1902 1675Q1944 1673 1973.0 1644.0Q2002 1615 2002 1573Q2002 1542 2018 1517Q2035 1491 2035 1460Q2035 1446 2029.0 1433.0Q2023 1420 2023 1409Q2023 1398 2029.0 1385.0Q2035 1372 2035 1358Q2035 1316 2006.0 1287.0Q1977 1258 1935 1258H1668Q1626 1258 1597.0 1287.0Q1568 1316 1568 1358Q1568 1372 1573.5 1385.0Q1579 1398 1579 1409Q1579 1419 1573.5 1432.0Q1568 1445 1568 1460Z" style="fill:#f1a11e;stroke:none" transform="scale(1,-1) translate(0,-256)" /></svg>