<?xml version="1.0" encoding="utf-8" ?>
<svg baseProfile="full" height="256" version="1.1" width="256" xmlns="http://www.w3.org/2000/svg" xmlns:ev="http://www.w3.org/2001/xml-events" xmlns:xlink="http://www.w3.org/1999/xlink"><defs /><path d="M910 1511 905 1513Q903 1515 903 1518Q903 1524 910.0 1528.5Q917 1533 926.0 1535.5Q935 1538 944.0 1539.5Q953 1541 958 1541Q966 1541 966 1534Q966 1526 958 1526Q942 1526 927.0 1518.5Q912 1511 910 1511ZM1131 1511 1137 1513Q1139 1515 1139 1518Q1139 1524 1132.0 1528.5Q1125 1533 1116.0 1535.5Q1107 1538 1097.5 1539.5Q1088 1541 1084 1541Q1076 1541 1076 1534Q1076 1530 1080.0 1528.0Q1084 1526 1089.5 1525.0Q1095 1524 1101.0 1523.0Q1107 1522 1110 1521Q1115 1519 1121.5 1515.0Q1128 1511 1131 1511ZM1681 1511Q1679 1512 1676.0 1513.5Q1673 1515 1673 1518Q1673 1524 1680.0 1528.0Q1687 1532 1696.5 1535.0Q1706 1538 1715.0 1539.5Q1724 1541 1728 1541Q1736 1541 1736 1534Q1736 1526 1728 1526Q1713 1526 1698.0 1518.5Q1683 1511 1681 1511ZM1901 1511 1907 1513Q1909 1515 1909 1518Q1909 1524 1902.0 1528.5Q1895 1533 1886.0 1535.5Q1877 1538 1867.5 1539.5Q1858 1541 1854 1541Q1846 1541 1846 1534Q1846 1526 1854 1526Q1871 1526 1885.0 1518.5Q1899 1511 1901 1511Z" style="fill:#d37034;stroke:none" transform="scale(1,-1) translate(0,-256)" /></svg>