<?xml version="1.0" encoding="utf-8" ?>
<svg baseProfile="full" height="256" version="1.1" width="256" xmlns="http://www.w3.org/2000/svg" xmlns:ev="http://www.w3.org/2001/xml-events" xmlns:xlink="http://www.w3.org/1999/xlink"><defs /><path d="M2147 1130Q2147 1114 2131.5 1106.0Q2116 1098 2095.5 1090.5Q2075 1083 2055.0 1071.5Q2035 1060 2025 1037L1970 909Q1967 902 1960.0 898.0Q1953 894 1945 894Q1938 894 1931.0 898.0Q1924 902 1921 909L1866 1037Q1856 1060 1836.0 1071.5Q1816 1083 1795.5 1090.5Q1775 1098 1759.5 1106.0Q1744 1114 1744 1130Q1744 1146 1759.5 1154.5Q1775 1163 1795.0 1170.5Q1815 1178 1835.5 1189.5Q1856 1201 1866 1224L1921 1351Q1924 1359 1931.0 1363.0Q1938 1367 1946 1367Q1965 1367 1971 1351L2026 1223Q2036 1200 2056.0 1189.0Q2076 1178 2096.0 1170.5Q2116 1163 2131.5 1154.5Q2147 1146 2147 1130ZM1239 339Q1239 319 1225.5 305.5Q1212 292 1190.5 282.0Q1169 272 1143.0 262.5Q1117 253 1092.0 240.5Q1067 228 1046.0 210.5Q1025 193 1014 166L913 -72Q908 -85 894.5 -93.0Q881 -101 867 -101Q853 -101 840.5 -93.5Q828 -86 822 -72L720 166Q708 193 687.0 211.0Q666 229 641.0 241.5Q616 254 590.0 263.5Q564 273 543.0 283.0Q522 293 508.5 306.0Q495 319 495 339Q495 359 508.5 372.0Q522 385 543.0 395.5Q564 406 590.0 415.0Q616 424 641.0 436.5Q666 449 687.0 467.0Q708 485 720 512L822 750Q828 764 840.5 771.0Q853 778 867 778Q881 778 894.5 770.5Q908 763 913 750L1014 512Q1025 485 1046.0 467.5Q1067 450 1092.0 437.5Q1117 425 1143.0 415.5Q1169 406 1190.5 395.5Q1212 385 1225.5 372.0Q1239 359 1239 339Z" style="fill:#fcd53f;stroke:none" transform="scale(1,-1) translate(0,-256)" /></svg>