<?xml version="1.0" encoding="utf-8" ?>
<svg baseProfile="full" height="256" version="1.1" width="256" xmlns="http://www.w3.org/2000/svg" xmlns:ev="http://www.w3.org/2001/xml-events" xmlns:xlink="http://www.w3.org/1999/xlink"><defs /><path d="M1406 1294Q1436 1340 1476.0 1384.5Q1516 1429 1562.5 1466.5Q1609 1504 1661.0 1531.5Q1713 1559 1767 1570Q1797 1576 1829.5 1578.5Q1862 1581 1893 1581Q2011 1581 2106.5 1538.5Q2202 1496 2270.0 1422.5Q2338 1349 2375.0 1249.5Q2412 1150 2412 1036Q2412 947 2384.5 855.5Q2357 764 2308.5 673.5Q2260 583 2194.0 494.5Q2128 406 2051.5 322.5Q1975 239 1891.5 162.0Q1808 85 1724.0 17.0Q1640 -51 1558.5 -108.0Q1477 -165 1406 -209Q1311 -151 1199.5 -69.0Q1088 13 976.5 111.5Q865 210 760.5 322.0Q656 434 576.0 553.0Q496 672 448.0 794.0Q400 916 400 1035Q400 1149 437.0 1248.5Q474 1348 542.0 1422.0Q610 1496 705.5 1538.5Q801 1581 919 1581Q950 1581 982.5 1578.5Q1015 1576 1045 1570Q1099 1559 1151.0 1531.5Q1203 1504 1249.5 1466.5Q1296 1429 1336.0 1384.5Q1376 1340 1406 1294Z" style="fill:#f92f60;stroke:none" transform="scale(1,-1) translate(0,-256)" /></svg>