<?xml version="1.0" encoding="utf-8" ?>
<svg baseProfile="full" height="256" version="1.1" width="256" xmlns="http://www.w3.org/2000/svg" xmlns:ev="http://www.w3.org/2001/xml-events" xmlns:xlink="http://www.w3.org/1999/xlink"><defs /><path d="M1334 647 1478 1221H1629Q1664 1221 1698.0 1216.0Q1732 1211 1765 1202L1945 647L1765 91Q1732 81 1698.0 76.5Q1664 72 1629 72H1478ZM1298 647 1118 81Q1016 100 927.0 153.0Q838 206 773 287Q774 291 777.5 308.0Q781 325 785.0 344.0Q789 363 792.0 378.5Q795 394 795 396V899Q795 900 791.5 915.5Q788 931 784.0 949.5Q780 968 776.5 984.5Q773 1001 772 1004Q837 1085 926.0 1139.0Q1015 1193 1118 1212ZM2017 647 2125 890 2268 692V601L2125 403Z" style="fill:#ffb02e;stroke:none" transform="scale(1,-1) translate(0,-256)" /></svg>