<?xml version="1.0" encoding="utf-8" ?>
<svg baseProfile="full" height="256" version="1.1" width="256" xmlns="http://www.w3.org/2000/svg" xmlns:ev="http://www.w3.org/2001/xml-events" xmlns:xlink="http://www.w3.org/1999/xlink"><defs /><path d="M1585 1653Q1651 1653 1709.5 1627.5Q1768 1602 1812.5 1558.0Q1857 1514 1882.5 1455.5Q1908 1397 1908 1331Q1908 1264 1882.5 1205.5Q1857 1147 1813.0 1103.0Q1769 1059 1710.5 1033.5Q1652 1008 1585 1008H1039Q1019 1008 1005.5 1022.0Q992 1036 992 1056Q992 1073 1001 1085L1324 1520Q1372 1583 1438.5 1618.0Q1505 1653 1585 1653Z" style="fill:#aeddff;stroke:none" transform="scale(1,-1) translate(0,-256)" /></svg>