<?xml version="1.0" encoding="utf-8" ?>
<svg baseProfile="full" height="256" version="1.1" width="256" xmlns="http://www.w3.org/2000/svg" xmlns:ev="http://www.w3.org/2001/xml-events" xmlns:xlink="http://www.w3.org/1999/xlink"><defs /><path d="M646 909Q628 909 620.0 920.0Q612 931 609.5 946.5Q607 962 608.5 978.5Q610 995 610 1006Q610 1038 599.5 1060.0Q589 1082 573.0 1097.5Q557 1113 538.5 1124.0Q520 1135 504.0 1144.0Q488 1153 477.5 1162.5Q467 1172 467 1185Q467 1200 477.0 1211.0Q487 1222 502 1222Q516 1222 536.0 1210.0Q556 1198 568 1191Q622 1162 652.0 1115.0Q682 1068 682 1006V945Q682 930 671.5 919.5Q661 909 646 909ZM2003 -72H1897Q1870 -72 1846.0 -61.5Q1822 -51 1804.0 -33.0Q1786 -15 1775.5 9.0Q1765 33 1765 60V302Q1765 324 1781.0 340.0Q1797 356 1819 356Q1841 356 1856.5 340.0Q1872 324 1872 302V61Q1872 45 1885.5 40.5Q1899 36 1919.5 36.0Q1940 36 1964.0 37.5Q1988 39 2008.5 35.5Q2029 32 2042.5 20.5Q2056 9 2056 -17Q2056 -39 2041.0 -55.5Q2026 -72 2003 -72ZM960 -214Q938 -214 922.0 -198.0Q906 -182 906 -160Q906 -138 922.0 -121.5Q938 -105 957.5 -86.0Q977 -67 993.0 -42.0Q1009 -17 1009 22V158Q1009 180 1025.0 196.0Q1041 212 1063 212Q1086 212 1101.5 196.5Q1117 181 1117 158V22Q1117 -16 1108.0 -46.0Q1099 -76 1083.5 -101.5Q1068 -127 1046.0 -150.0Q1024 -173 998 -198Q982 -214 960 -214ZM1634 -214Q1656 -214 1672.0 -198.0Q1688 -182 1688 -160Q1688 -138 1672.0 -121.5Q1656 -105 1636.5 -86.0Q1617 -67 1601.0 -42.0Q1585 -17 1585 22V158Q1585 180 1569.0 196.0Q1553 212 1531 212Q1509 212 1493.0 196.0Q1477 180 1477 158V22Q1477 -17 1485.5 -46.5Q1494 -76 1510.0 -101.5Q1526 -127 1548.0 -150.0Q1570 -173 1596 -198Q1612 -214 1634 -214ZM2268 693 2396 666Q2412 662 2412 646Q2412 631 2396 627L2268 600L2197 647Z" style="fill:#212121;stroke:none" transform="scale(1,-1) translate(0,-256)" /></svg>