<?xml version="1.0" encoding="utf-8" ?>
<svg baseProfile="full" height="256" version="1.1" width="256" xmlns="http://www.w3.org/2000/svg" xmlns:ev="http://www.w3.org/2001/xml-events" xmlns:xlink="http://www.w3.org/1999/xlink"><defs /><path d="M1120 1617H1408V-179Q1353 -179 1316.5 -168.5Q1280 -158 1250.0 -139.0Q1220 -120 1190.5 -94.0Q1161 -68 1120 -36Q1072 1 1031.0 45.5Q990 90 955 139Q881 241 830.0 355.5Q779 470 747.5 591.5Q716 713 701.5 838.5Q687 964 687 1088Q687 1113 687.5 1137.0Q688 1161 689 1186Q691 1226 707.0 1252.5Q723 1279 761 1294Q777 1300 784.0 1302.5Q791 1305 793.0 1304.5Q795 1304 794.5 1303.0Q794 1302 796.0 1302.5Q798 1303 804.5 1306.0Q811 1309 827 1317Q863 1335 890.5 1360.0Q918 1385 940.0 1414.5Q962 1444 979.5 1477.5Q997 1511 1013 1546Q1029 1581 1054.0 1599.0Q1079 1617 1120 1617Z" style="fill:#00a6ed;stroke:none" transform="scale(1,-1) translate(0,-256)" /></svg>