<?xml version="1.0" encoding="utf-8" ?>
<svg baseProfile="full" height="256" version="1.1" width="256" xmlns="http://www.w3.org/2000/svg" xmlns:ev="http://www.w3.org/2001/xml-events" xmlns:xlink="http://www.w3.org/1999/xlink"><defs /><path d="M597 1071Q597 1102 597.5 1138.0Q598 1174 602.5 1209.5Q607 1245 618.0 1278.0Q629 1311 649 1336Q672 1364 693.0 1376.5Q714 1389 735.0 1395.5Q756 1402 778.0 1409.0Q800 1416 825 1433Q861 1458 880.5 1489.5Q900 1521 915.0 1554.0Q930 1587 945.5 1618.5Q961 1650 989 1675Q1018 1701 1052.5 1713.0Q1087 1725 1125 1725H1708Q1743 1725 1776.5 1712.0Q1810 1699 1836 1676Q1864 1651 1879.5 1619.5Q1895 1588 1910.0 1554.5Q1925 1521 1944.5 1489.5Q1964 1458 2000 1433Q2024 1416 2046.5 1409.0Q2069 1402 2090.5 1395.0Q2112 1388 2133.5 1376.0Q2155 1364 2176 1338Q2196 1314 2206.5 1281.0Q2217 1248 2221.5 1212.0Q2226 1176 2226.5 1139.5Q2227 1103 2227 1073Q2227 983 2216.0 885.5Q2205 788 2182.5 689.0Q2160 590 2127.5 492.0Q2095 394 2051.5 303.0Q2008 212 1954.0 131.0Q1900 50 1836 -16Q1818 -34 1782.0 -65.5Q1746 -97 1705.0 -129.5Q1664 -162 1625.5 -189.0Q1587 -216 1565 -226Q1551 -232 1531.5 -237.0Q1512 -242 1490.5 -245.5Q1469 -249 1448.5 -250.5Q1428 -252 1412 -252Q1396 -252 1375.5 -250.5Q1355 -249 1333.5 -245.5Q1312 -242 1292.5 -237.0Q1273 -232 1259 -226Q1238 -216 1199.5 -189.0Q1161 -162 1120.0 -129.5Q1079 -97 1043.0 -65.5Q1007 -34 989 -16Q892 83 819.0 214.5Q746 346 696.5 490.5Q647 635 622.0 784.5Q597 934 597 1071Z" style="fill:#e6e6e6;stroke:none" transform="scale(1,-1) translate(0,-256)" /></svg>