<?xml version="1.0" encoding="utf-8" ?>
<svg baseProfile="full" height="256" version="1.1" width="256" xmlns="http://www.w3.org/2000/svg" xmlns:ev="http://www.w3.org/2001/xml-events" xmlns:xlink="http://www.w3.org/1999/xlink"><defs /><path d="M1694 1617Q1735 1617 1760.0 1599.0Q1785 1581 1801 1546Q1817 1511 1834.5 1477.5Q1852 1444 1874.0 1414.5Q1896 1385 1923.5 1360.0Q1951 1335 1987 1317Q2003 1309 2009.5 1306.0Q2016 1303 2018.0 1302.5Q2020 1302 2019.5 1303.0Q2019 1304 2021.0 1304.5Q2023 1305 2030.0 1302.5Q2037 1300 2053 1294Q2091 1279 2107.0 1252.5Q2123 1226 2125 1186Q2126 1162 2126.5 1137.5Q2127 1113 2127 1089Q2127 964 2112.5 838.5Q2098 713 2066.0 591.5Q2034 470 1983.0 355.5Q1932 241 1858 139Q1823 90 1782.0 45.5Q1741 1 1693 -36Q1652 -68 1623.0 -94.0Q1594 -120 1564.0 -139.0Q1534 -158 1497.5 -168.5Q1461 -179 1406 -179L1175 725L1406 1617H1694Z" style="fill:#aeddff;stroke:none" transform="scale(1,-1) translate(0,-256)" /></svg>