<?xml version="1.0" encoding="utf-8" ?>
<svg baseProfile="full" height="256" version="1.1" width="256" xmlns="http://www.w3.org/2000/svg" xmlns:ev="http://www.w3.org/2001/xml-events" xmlns:xlink="http://www.w3.org/1999/xlink"><defs /><path d="M903 575Q873 575 852.0 596.0Q831 617 831 647Q831 677 852.0 698.0Q873 719 903 719Q933 719 954.0 698.0Q975 677 975 647Q975 617 954.0 596.0Q933 575 903 575ZM1190 503Q1161 503 1139.5 524.5Q1118 546 1118 575Q1118 604 1139.5 625.5Q1161 647 1190 647Q1220 647 1241.0 626.0Q1262 605 1262 575Q1262 545 1241.0 524.0Q1220 503 1190 503ZM1118 216Q1118 187 1097.0 165.5Q1076 144 1047 144Q1017 144 996.0 165.0Q975 186 975 216Q975 246 996.0 267.0Q1017 288 1047 288Q1076 288 1097.0 266.5Q1118 245 1118 216Z" style="fill:#d3f093;stroke:none" transform="scale(1,-1) translate(0,-256)" /></svg>