<?xml version="1.0" encoding="utf-8" ?>
<svg baseProfile="full" height="256" version="1.1" width="256" xmlns="http://www.w3.org/2000/svg" xmlns:ev="http://www.w3.org/2001/xml-events" xmlns:xlink="http://www.w3.org/1999/xlink"><defs /><path d="M1621 1078Q1649 1078 1672 1057Q1703 1027 1724.0 986.0Q1745 945 1757.5 899.5Q1770 854 1775.0 807.5Q1780 761 1780 719Q1780 686 1777.0 648.5Q1774 611 1767.0 573.5Q1760 536 1749.0 500.5Q1738 465 1722 435Q1712 417 1695.0 406.0Q1678 395 1657 395Q1628 395 1606.5 416.5Q1585 438 1585 468Q1585 484 1593 500Q1616 552 1626.0 607.0Q1636 662 1636 719Q1636 747 1633.0 779.5Q1630 812 1623.0 844.0Q1616 876 1603.0 905.5Q1590 935 1571 956Q1561 967 1555.5 979.0Q1550 991 1550 1006Q1550 1036 1571.0 1057.0Q1592 1078 1621 1078Z" style="fill:#ffffff;stroke:none" transform="scale(1,-1) translate(0,-256)" /></svg>