<?xml version="1.0" encoding="utf-8" ?>
<svg baseProfile="full" height="256" version="1.1" width="256" xmlns="http://www.w3.org/2000/svg" xmlns:ev="http://www.w3.org/2001/xml-events" xmlns:xlink="http://www.w3.org/1999/xlink"><defs /><path d="M2412 1006 2340 863 1910 1033Q1935 998 1949.5 965.5Q1964 933 1971.0 900.0Q1978 867 1979.5 831.5Q1981 796 1981 755Q1981 657 1956.0 565.5Q1931 474 1885.5 393.0Q1840 312 1776.0 244.0Q1712 176 1634.0 125.0Q1556 74 1466.5 42.5Q1377 11 1280 3L1230 -51L1173 2Q1073 8 982.5 38.5Q892 69 814.0 119.5Q736 170 673.0 238.5Q610 307 565.5 389.0Q521 471 496.5 563.5Q472 656 472 755Q472 858 498.5 954.0Q525 1050 573.0 1134.0Q621 1218 688.5 1287.5Q756 1357 839.0 1406.5Q922 1456 1017.5 1483.0Q1113 1510 1217 1510Q1252 1510 1290.5 1506.0Q1329 1502 1367.0 1494.5Q1405 1487 1441.5 1475.5Q1478 1464 1510 1449Z" style="fill:#aeddff;stroke:none" transform="scale(1,-1) translate(0,-256)" /></svg>