<?xml version="1.0" encoding="utf-8" ?>
<svg baseProfile="full" height="256" version="1.1" width="256" xmlns="http://www.w3.org/2000/svg" xmlns:ev="http://www.w3.org/2001/xml-events" xmlns:xlink="http://www.w3.org/1999/xlink"><defs /><path d="M1021 1357Q1021 1350 1016.0 1343.5Q1011 1337 1004.0 1332.5Q997 1328 989.0 1325.0Q981 1322 975 1322Q970 1322 961.5 1323.5Q953 1325 953 1333Q953 1343 960.5 1341.5Q968 1340 973 1340Q984 1340 990.0 1344.0Q996 1348 999.5 1353.5Q1003 1359 1005.5 1363.0Q1008 1367 1011 1367Q1021 1367 1021 1357Z" style="fill:#990839;stroke:none" transform="scale(1,-1) translate(0,-256)" /></svg>