<?xml version="1.0" encoding="utf-8" ?>
<svg baseProfile="full" height="256" version="1.1" width="256" xmlns="http://www.w3.org/2000/svg" xmlns:ev="http://www.w3.org/2001/xml-events" xmlns:xlink="http://www.w3.org/1999/xlink"><defs /><path d="M2053 302 2059 436Q2066 439 2079.5 444.0Q2093 449 2107.0 454.0Q2121 459 2134.0 463.0Q2147 467 2154 467Q2176 467 2186 444Q2189 437 2197.0 415.5Q2205 394 2215.0 365.5Q2225 337 2236.0 305.5Q2247 274 2256.0 247.0Q2265 220 2271.0 201.5Q2277 183 2277 180Q2277 174 2272.0 168.5Q2267 163 2260.0 158.0Q2253 153 2245.0 150.0Q2237 147 2232 147Q2229 147 2215.5 157.0Q2202 167 2184.0 183.0Q2166 199 2145.0 218.0Q2124 237 2105.5 254.0Q2087 271 2072.5 284.0Q2058 297 2053 302ZM543 -82H773L853 -191L814 -263Q805 -281 783 -281Q779 -281 759.5 -272.0Q740 -263 713.0 -249.0Q686 -235 655.5 -218.0Q625 -201 597.5 -186.0Q570 -171 550.0 -159.5Q530 -148 525 -144Q521 -141 520.5 -136.5Q520 -132 520 -128Q520 -124 521.5 -116.0Q523 -108 525.5 -100.5Q528 -93 532.5 -87.5Q537 -82 543 -82Z" style="fill:#533566;stroke:none" transform="scale(1,-1) translate(0,-256)" /></svg>