<?xml version="1.0" encoding="utf-8" ?>
<svg baseProfile="full" height="256" version="1.1" width="256" xmlns="http://www.w3.org/2000/svg" xmlns:ev="http://www.w3.org/2001/xml-events" xmlns:xlink="http://www.w3.org/1999/xlink"><defs /><path d="M1172 610Q1118 688 1091.0 778.5Q1064 869 1064 963Q1064 1002 1068.5 1041.0Q1073 1080 1083 1118H1084Q1091 1147 1107.5 1172.0Q1124 1197 1147.5 1215.0Q1171 1233 1199.0 1243.5Q1227 1254 1257 1254Q1272 1254 1286.5 1251.5Q1301 1249 1315 1244Q1331 1239 1345.0 1223.0Q1359 1207 1370.0 1187.0Q1381 1167 1388.5 1146.5Q1396 1126 1399 1111Q1403 1095 1403.5 1079.5Q1404 1064 1406 1047Q1407 1035 1416.0 1012.0Q1425 989 1438.0 960.5Q1451 932 1466.5 900.5Q1482 869 1497.0 840.0Q1512 811 1524.5 787.0Q1537 763 1544 750L1172 610Z" style="fill:#ff6723;stroke:none" transform="scale(1,-1) translate(0,-256)" /></svg>