<?xml version="1.0" encoding="utf-8" ?>
<svg baseProfile="full" height="256" version="1.1" width="256" xmlns="http://www.w3.org/2000/svg" xmlns:ev="http://www.w3.org/2001/xml-events" xmlns:xlink="http://www.w3.org/1999/xlink"><defs /><path d="M1165 1500Q1165 1520 1153.0 1533.0Q1141 1546 1124.0 1554.0Q1107 1562 1087.5 1565.0Q1068 1568 1053 1568Q1027 1568 1005.0 1571.0Q983 1574 967.0 1583.5Q951 1593 942.0 1611.0Q933 1629 933 1658Q933 1685 952.0 1705.0Q971 1725 998 1725Q1028 1725 1053.5 1718.0Q1079 1711 1101 1711Q1128 1711 1154.5 1719.0Q1181 1727 1209 1727Q1278 1727 1316.5 1690.5Q1355 1654 1355 1584Q1355 1569 1353.0 1537.5Q1351 1506 1343.5 1473.5Q1336 1441 1322.5 1416.0Q1309 1391 1285 1389Q1298 1389 1310.5 1380.0Q1323 1371 1323 1357Q1323 1342 1318.0 1334.0Q1313 1326 1304.5 1321.5Q1296 1317 1285.5 1316.0Q1275 1315 1263 1315Q1242 1315 1231.0 1323.5Q1220 1332 1215.5 1345.5Q1211 1359 1211.0 1376.0Q1211 1393 1211 1409Q1225 1423 1225 1446Q1225 1472 1207.5 1486.0Q1190 1500 1165 1500Z" style="fill:#f1a11e;stroke:none" transform="scale(1,-1) translate(0,-256)" /></svg>