<?xml version="1.0" encoding="utf-8" ?>
<svg baseProfile="full" height="256" version="1.1" width="256" xmlns="http://www.w3.org/2000/svg" xmlns:ev="http://www.w3.org/2001/xml-events" xmlns:xlink="http://www.w3.org/1999/xlink"><defs /><path d="M603 1141Q603 1138 596.5 1131.0Q590 1124 582.0 1116.0Q574 1108 567.5 1099.0Q561 1090 561 1083Q561 1076 566.0 1072.0Q571 1068 578 1068Q581 1070 585.5 1075.5Q590 1081 595.0 1086.5Q600 1092 604.5 1096.0Q609 1100 611 1100Q620 1100 620 1091Q620 1087 617.0 1084.0Q614 1081 612 1077Q607 1067 607.5 1056.5Q608 1046 608 1035Q608 1026 599 1026Q590 1026 589.5 1037.0Q589 1048 590 1054Q585 1049 578 1049Q564 1049 554.0 1059.0Q544 1069 544 1084Q544 1091 547 1099V1100Q549 1104 555.0 1112.0Q561 1120 568.5 1128.5Q576 1137 583.0 1143.5Q590 1150 594 1150Q597 1150 600.0 1147.0Q603 1144 603 1141Z" style="fill:#ed9200;stroke:none" transform="scale(1,-1) translate(0,-256)" /></svg>