<?xml version="1.0" encoding="utf-8" ?>
<svg baseProfile="full" height="256" version="1.1" width="256" xmlns="http://www.w3.org/2000/svg" xmlns:ev="http://www.w3.org/2001/xml-events" xmlns:xlink="http://www.w3.org/1999/xlink"><defs /><path d="M1283 1527Q1283 1526 1278.5 1512.0Q1274 1498 1269.0 1481.0Q1264 1464 1259.5 1449.0Q1255 1434 1254 1431Q1247 1408 1241.5 1385.0Q1236 1362 1229 1339Q1227 1330 1217.5 1319.0Q1208 1308 1196.5 1297.0Q1185 1286 1173.0 1277.0Q1161 1268 1153 1264Q1130 1252 1104.5 1246.0Q1079 1240 1053 1240Q1014 1240 990.5 1249.5Q967 1259 954.5 1277.5Q942 1296 937.5 1322.5Q933 1349 932 1383Q921 1383 908.5 1391.0Q896 1399 896 1412Q896 1416 900.5 1424.5Q905 1433 911.0 1442.5Q917 1452 923.0 1460.5Q929 1469 932 1474V1525Q932 1553 942.5 1576.5Q953 1600 971.0 1617.0Q989 1634 1013.5 1643.5Q1038 1653 1065 1653H1151Q1177 1653 1201.0 1643.5Q1225 1634 1243.0 1617.0Q1261 1600 1272.0 1577.0Q1283 1554 1283 1527Z" style="fill:#ffc83d;stroke:none" transform="scale(1,-1) translate(0,-256)" /></svg>