<?xml version="1.0" encoding="utf-8" ?>
<svg baseProfile="full" height="256" version="1.1" width="256" xmlns="http://www.w3.org/2000/svg" xmlns:ev="http://www.w3.org/2001/xml-events" xmlns:xlink="http://www.w3.org/1999/xlink"><defs /><path d="M1404 1330Q1467 1330 1523.0 1306.0Q1579 1282 1620.0 1241.0Q1661 1200 1685.0 1144.0Q1709 1088 1709 1025Q1709 960 1685.0 905.0Q1661 850 1620.0 809.0Q1579 768 1523.5 744.5Q1468 721 1404 719Q1340 717 1284.0 694.0Q1228 671 1186.0 631.0Q1144 591 1120.0 536.5Q1096 482 1096 416Q1096 351 1120.0 294.5Q1144 238 1186.0 196.5Q1228 155 1284.5 131.5Q1341 108 1406 108Q1532 108 1643.5 156.0Q1755 204 1838.0 287.0Q1921 370 1969.0 481.5Q2017 593 2017 719Q2017 804 1995.0 882.0Q1973 960 1933.0 1028.0Q1893 1096 1837.0 1151.5Q1781 1207 1713.0 1247.0Q1645 1287 1567.0 1308.5Q1489 1330 1404 1330ZM1406 1438Q1555 1438 1686.0 1381.5Q1817 1325 1914.5 1227.0Q2012 1129 2068.5 998.0Q2125 867 2125 718Q2125 619 2099.0 527.5Q2073 436 2026.5 356.5Q1980 277 1914.0 211.0Q1848 145 1768.5 98.5Q1689 52 1597.5 26.0Q1506 0 1407 0Q1258 0 1127.0 56.5Q996 113 898.0 210.5Q800 308 743.5 439.0Q687 570 687 719Q687 818 713.0 910.0Q739 1002 785.5 1081.5Q832 1161 898.0 1227.0Q964 1293 1043.5 1339.5Q1123 1386 1215.0 1412.0Q1307 1438 1406 1438ZM1404 1177Q1372 1177 1344.5 1165.0Q1317 1153 1296.0 1132.5Q1275 1112 1263.0 1084.5Q1251 1057 1251 1025Q1251 993 1263.0 965.5Q1275 938 1295.5 917.0Q1316 896 1343.5 884.0Q1371 872 1403 872Q1434 872 1462.0 884.0Q1490 896 1511.0 916.0Q1532 936 1544.0 963.5Q1556 991 1556 1023Q1556 1055 1544.5 1083.0Q1533 1111 1512.5 1132.0Q1492 1153 1464.5 1165.0Q1437 1177 1404 1177ZM1406 575Q1436 575 1462.0 564.0Q1488 553 1507.5 533.5Q1527 514 1538.5 488.0Q1550 462 1550 432Q1550 402 1538.5 375.5Q1527 349 1507.5 329.5Q1488 310 1461.5 299.0Q1435 288 1405 288Q1375 288 1349.0 299.5Q1323 311 1303.5 330.5Q1284 350 1273.0 376.0Q1262 402 1262 432Q1262 462 1273.5 488.0Q1285 514 1304.5 533.5Q1324 553 1350.0 564.0Q1376 575 1406 575Z" style="fill:#ffffff;stroke:none" transform="scale(1,-1) translate(0,-256)" /></svg>