<?xml version="1.0" encoding="utf-8" ?>
<svg baseProfile="full" height="256" version="1.1" width="256" xmlns="http://www.w3.org/2000/svg" xmlns:ev="http://www.w3.org/2001/xml-events" xmlns:xlink="http://www.w3.org/1999/xlink"><defs /><path d="M1334 842Q1334 819 1316.5 805.0Q1299 791 1277 791Q1217 791 1163.5 809.5Q1110 828 1067.0 861.0Q1024 894 992.0 940.5Q960 987 942 1043Q939 1052 939 1061Q939 1084 955.0 1099.0Q971 1114 994 1114Q1012 1114 1025.0 1104.0Q1038 1094 1044 1077Q1059 1037 1079.5 1003.0Q1100 969 1136 943Q1171 919 1206.5 911.0Q1242 903 1283 899Q1307 897 1320.5 881.5Q1334 866 1334 842ZM1478 842Q1478 818 1495.5 804.5Q1513 791 1535 791Q1595 791 1648.5 809.5Q1702 828 1745.0 861.0Q1788 894 1820.0 940.5Q1852 987 1870 1043Q1873 1052 1873 1061Q1873 1084 1857.0 1099.0Q1841 1114 1818 1114Q1800 1114 1787.0 1104.0Q1774 1094 1768 1077Q1752 1035 1732.5 1002.0Q1713 969 1675 943Q1640 919 1605.0 911.0Q1570 903 1529 899Q1505 897 1491.5 881.5Q1478 866 1478 842ZM1118 431Q1148 431 1174.0 442.5Q1200 454 1219.5 473.5Q1239 493 1250.5 519.0Q1262 545 1262 575Q1262 605 1250.5 631.0Q1239 657 1219.5 676.5Q1200 696 1174.0 707.5Q1148 719 1118 719Q1088 719 1062.0 707.5Q1036 696 1016.5 676.5Q997 657 986.0 631.0Q975 605 975 575Q975 545 986.0 519.0Q997 493 1016.5 473.5Q1036 454 1062.0 442.5Q1088 431 1118 431ZM1693 431Q1723 431 1749.0 442.5Q1775 454 1794.5 473.5Q1814 493 1825.5 519.0Q1837 545 1837 575Q1837 605 1825.5 631.0Q1814 657 1794.5 676.5Q1775 696 1749.0 707.5Q1723 719 1693 719Q1663 719 1637.0 707.5Q1611 696 1591.5 676.5Q1572 657 1561.0 631.0Q1550 605 1550 575Q1550 545 1561.0 519.0Q1572 493 1591.5 473.5Q1611 454 1637.0 442.5Q1663 431 1693 431ZM1406 144Q1436 144 1468.5 138.0Q1501 132 1531.5 119.5Q1562 107 1587.5 87.5Q1613 68 1629 40Q1651 0 1693 0Q1723 0 1744.0 21.5Q1765 43 1765 73Q1765 90 1758 104Q1750 120 1738.0 136.0Q1726 152 1714 165Q1654 228 1573.0 258.0Q1492 288 1406 288Q1359 288 1306.0 276.5Q1253 265 1204.0 242.0Q1155 219 1115.0 184.5Q1075 150 1054 104Q1046 88 1046 72Q1046 43 1067.5 21.5Q1089 0 1119 0Q1161 0 1183 40Q1199 68 1224.5 87.5Q1250 107 1280.5 119.5Q1311 132 1343.5 138.0Q1376 144 1406 144Z" style="fill:#402a32;stroke:none" transform="scale(1,-1) translate(0,-256)" /></svg>