<?xml version="1.0" encoding="utf-8" ?>
<svg baseProfile="full" height="256" version="1.1" width="256" xmlns="http://www.w3.org/2000/svg" xmlns:ev="http://www.w3.org/2001/xml-events" xmlns:xlink="http://www.w3.org/1999/xlink"><defs /><path d="M1011 288Q944 288 885.0 313.5Q826 339 782.0 383.0Q738 427 712.5 485.5Q687 544 687 611Q687 678 712.5 737.0Q738 796 782.0 840.0Q826 884 885.0 909.5Q944 935 1011 935Q1078 935 1136.5 909.5Q1195 884 1239.0 840.0Q1283 796 1308.5 737.0Q1334 678 1334 611Q1334 544 1308.5 485.5Q1283 427 1239.0 383.0Q1195 339 1136.5 313.5Q1078 288 1011 288ZM1801 288Q1734 288 1675.5 313.5Q1617 339 1573.0 383.0Q1529 427 1503.5 485.5Q1478 544 1478 611Q1478 678 1503.5 737.0Q1529 796 1573.0 840.0Q1617 884 1675.5 909.5Q1734 935 1801 935Q1868 935 1927.0 909.5Q1986 884 2030.0 840.0Q2074 796 2099.5 737.0Q2125 678 2125 611Q2125 544 2099.5 485.5Q2074 427 2030.0 383.0Q1986 339 1927.0 313.5Q1868 288 1801 288Z" style="fill:#ffffff;stroke:none" transform="scale(1,-1) translate(0,-256)" /></svg>