<?xml version="1.0" encoding="utf-8" ?>
<svg baseProfile="full" height="256" version="1.1" width="256" xmlns="http://www.w3.org/2000/svg" xmlns:ev="http://www.w3.org/2001/xml-events" xmlns:xlink="http://www.w3.org/1999/xlink"><defs /><path d="M1406 -287Q1175 -287 989.0 -216.0Q803 -145 672.0 -14.0Q541 117 470.5 303.0Q400 489 400 719Q400 841 422.5 961.5Q445 1082 496 1194Q472 1276 472 1363Q472 1390 476.0 1427.0Q480 1464 487.5 1503.0Q495 1542 506.5 1577.5Q518 1613 533 1637Q537 1642 543.0 1647.5Q549 1653 556 1653Q564 1653 568.0 1647.5Q572 1642 576 1637Q605 1591 637.0 1557.0Q669 1523 716 1494Q788 1557 869.5 1600.5Q951 1644 1039.0 1672.0Q1127 1700 1219.5 1712.5Q1312 1725 1406 1725Q1500 1725 1592.5 1712.5Q1685 1700 1773.0 1672.0Q1861 1644 1942.5 1600.5Q2024 1557 2096 1494Q2143 1523 2175.0 1557.0Q2207 1591 2236 1637Q2240 1642 2244.0 1647.5Q2248 1653 2256 1653Q2263 1653 2269.0 1647.5Q2275 1642 2279 1637Q2294 1613 2305.5 1577.5Q2317 1542 2324.5 1503.0Q2332 1464 2336.0 1426.5Q2340 1389 2340 1362Q2340 1275 2316 1193Q2367 1081 2389.5 961.0Q2412 841 2412 719Q2412 489 2341.5 303.0Q2271 117 2140.0 -14.0Q2009 -145 1823.0 -216.0Q1637 -287 1406 -287Z" style="fill:#8c42b2;stroke:none" transform="scale(1,-1) translate(0,-256)" /></svg>