<?xml version="1.0" encoding="utf-8" ?>
<svg baseProfile="full" height="256" version="1.1" width="256" xmlns="http://www.w3.org/2000/svg" xmlns:ev="http://www.w3.org/2001/xml-events" xmlns:xlink="http://www.w3.org/1999/xlink"><defs /><path d="M1196 1722Q1175 1701 1162.5 1664.5Q1150 1628 1142.5 1587.0Q1135 1546 1132.5 1506.0Q1130 1466 1130 1439V762Q1130 746 1122.0 731.5Q1114 717 1096 717Q1078 717 1069.0 731.5Q1060 746 1060 762Q1060 789 1059.5 815.5Q1059 842 1059 869V1507Q1059 1542 1066.5 1576.5Q1074 1611 1090.5 1640.0Q1107 1669 1133.0 1691.0Q1159 1713 1196 1722ZM1417 1222Q1427 1243 1447.5 1262.0Q1468 1281 1488 1292V969Q1488 955 1477.5 944.0Q1467 933 1453 933Q1439 933 1428.0 944.0Q1417 955 1417 969ZM1756 1200Q1760 1209 1768.5 1217.0Q1777 1225 1787.0 1231.5Q1797 1238 1808.0 1243.0Q1819 1248 1828 1251V1040Q1828 1025 1817.5 1014.5Q1807 1004 1792 1004Q1777 1004 1766.5 1014.5Q1756 1025 1756 1040ZM2065 1142Q2077 1155 2098.0 1164.0Q2119 1173 2136 1177V899Q2136 885 2125.5 874.0Q2115 863 2101 863Q2086 863 2075.5 873.5Q2065 884 2065 899V1144Z" style="fill:#d67d00;stroke:none" transform="scale(1,-1) translate(0,-256)" /></svg>