<?xml version="1.0" encoding="utf-8" ?>
<svg baseProfile="full" height="256" version="1.1" width="256" xmlns="http://www.w3.org/2000/svg" xmlns:ev="http://www.w3.org/2001/xml-events" xmlns:xlink="http://www.w3.org/1999/xlink"><defs /><path d="M555 737Q555 774 569.0 809.0Q583 844 608.0 871.0Q633 898 666.5 914.5Q700 931 738 931Q775 931 818.5 913.5Q862 896 905.0 871.0Q948 846 988.0 818.5Q1028 791 1059 771V1507Q1059 1547 1069.5 1586.0Q1080 1625 1101.0 1656.0Q1122 1687 1155.0 1706.5Q1188 1726 1233 1726Q1275 1726 1309.0 1706.0Q1343 1686 1367.0 1654.5Q1391 1623 1404.0 1584.0Q1417 1545 1417 1507V1222Q1428 1246 1447.0 1263.5Q1466 1281 1490.0 1292.5Q1514 1304 1540.0 1310.0Q1566 1316 1590 1316Q1617 1316 1643.0 1308.0Q1669 1300 1691.5 1285.0Q1714 1270 1731.0 1248.5Q1748 1227 1756 1200Q1764 1218 1782.0 1229.5Q1800 1241 1821.5 1248.0Q1843 1255 1865.5 1258.0Q1888 1261 1904 1261Q1931 1261 1955.5 1251.5Q1980 1242 2001.0 1225.5Q2022 1209 2038.5 1187.5Q2055 1166 2065 1142Q2076 1154 2094.0 1162.5Q2112 1171 2132.0 1176.5Q2152 1182 2172.0 1184.0Q2192 1186 2207 1186Q2244 1186 2282.0 1164.0Q2320 1142 2351.0 1108.0Q2382 1074 2401.5 1034.0Q2421 994 2421 958Q2421 863 2417.5 759.0Q2414 655 2402.5 549.5Q2391 444 2369.5 341.0Q2348 238 2311.5 145.0Q2275 52 2222.0 -27.0Q2169 -106 2094.0 -164.0Q2019 -222 1921.0 -254.5Q1823 -287 1696 -287Q1623 -287 1548.5 -268.5Q1474 -250 1405.0 -216.5Q1336 -183 1275.0 -136.5Q1214 -90 1169 -33Q1140 2 1118.0 40.5Q1096 79 1078 121Q1051 182 1018.5 233.5Q986 285 947.0 330.0Q908 375 862.5 415.5Q817 456 763 494Q748 505 725.5 519.0Q703 533 680.0 548.0Q657 563 637.0 578.0Q617 593 605 606Q555 662 555 737Z" style="fill:#ffc83d;stroke:none" transform="scale(1,-1) translate(0,-256)" /></svg>