<?xml version="1.0" encoding="utf-8" ?>
<svg baseProfile="full" height="256" version="1.1" width="256" xmlns="http://www.w3.org/2000/svg" xmlns:ev="http://www.w3.org/2001/xml-events" xmlns:xlink="http://www.w3.org/1999/xlink"><defs /><path d="M1851 1448Q1851 1413 1827.5 1389.5Q1804 1366 1769 1366Q1735 1366 1711.5 1390.0Q1688 1414 1688 1448Q1688 1482 1711.5 1505.5Q1735 1529 1769 1529Q1803 1529 1827.0 1505.5Q1851 1482 1851 1448ZM2263 1130Q2297 1130 2321.0 1154.0Q2345 1178 2345 1212Q2345 1246 2321.0 1270.0Q2297 1294 2263 1294Q2229 1294 2205.0 1270.0Q2181 1246 2181 1212Q2181 1178 2205.0 1154.0Q2229 1130 2263 1130ZM2263 711Q2297 711 2321.0 735.0Q2345 759 2345 793Q2345 827 2321.0 850.5Q2297 874 2263 874Q2229 874 2205.0 850.5Q2181 827 2181 793Q2181 759 2205.0 735.0Q2229 711 2263 711ZM1635 853Q1635 819 1611.0 795.0Q1587 771 1553 771Q1519 771 1495.0 795.0Q1471 819 1471 853Q1471 887 1495.0 911.0Q1519 935 1553 935Q1587 935 1611.0 911.0Q1635 887 1635 853ZM2054 921Q2088 921 2112.0 944.5Q2136 968 2136 1002Q2136 1025 2124.0 1045.0Q2112 1065 2091 1075Q2125 1124 2125 1183Q2125 1222 2110.0 1257.0Q2095 1292 2069.0 1318.0Q2043 1344 2008.0 1359.0Q1973 1374 1934 1374Q1886 1374 1844.0 1352.0Q1802 1330 1775 1291Q1749 1330 1706.5 1352.0Q1664 1374 1617 1374Q1575 1374 1537.5 1357.0Q1500 1340 1473 1308Q1445 1339 1407.5 1356.5Q1370 1374 1328 1374Q1288 1374 1253.5 1359.0Q1219 1344 1193.0 1318.0Q1167 1292 1152.0 1257.5Q1137 1223 1137 1183Q1137 1144 1152.0 1109.0Q1167 1074 1193.0 1048.0Q1219 1022 1254.0 1007.0Q1289 992 1328 992Q1370 992 1407.5 1009.5Q1445 1027 1473 1058Q1500 1027 1537.5 1009.5Q1575 992 1617 992Q1665 992 1707.0 1014.5Q1749 1037 1775 1076Q1802 1037 1844.0 1014.5Q1886 992 1934 992Q1956 992 1973 996Q1975 964 1998.5 942.5Q2022 921 2054 921Z" style="fill:#b4f6fc;stroke:none" transform="scale(1,-1) translate(0,-256)" /></svg>