<?xml version="1.0" encoding="utf-8" ?>
<svg baseProfile="full" height="256" version="1.1" width="256" xmlns="http://www.w3.org/2000/svg" xmlns:ev="http://www.w3.org/2001/xml-events" xmlns:xlink="http://www.w3.org/1999/xlink"><defs /><path d="M1602 1250Q1495 1250 1400.5 1209.5Q1306 1169 1235.5 1099.5Q1165 1030 1124.5 936.0Q1084 842 1084 734Q1084 627 1124.5 533.5Q1165 440 1235.0 370.0Q1305 300 1398.5 259.5Q1492 219 1599 219Q1671 219 1742.5 228.0Q1814 237 1881.5 259.0Q1949 281 2010.5 316.0Q2072 351 2125 404V-69H761V1433H1602V1250Z" style="fill:#26c9fc;stroke:none" transform="scale(1,-1) translate(0,-256)" /></svg>