<?xml version="1.0" encoding="utf-8" ?>
<svg baseProfile="full" height="256" version="1.1" width="256" xmlns="http://www.w3.org/2000/svg" xmlns:ev="http://www.w3.org/2001/xml-events" xmlns:xlink="http://www.w3.org/1999/xlink"><defs /><path d="M400 780Q400 902 434.5 1020.5Q469 1139 531.5 1243.5Q594 1348 681.5 1435.0Q769 1522 876 1581Q955 1625 1042.5 1650.5Q1130 1676 1221 1676Q1311 1676 1402.0 1658.0Q1493 1640 1576.5 1603.5Q1660 1567 1732.0 1510.5Q1804 1454 1856 1377Q1860 1371 1869.5 1355.0Q1879 1339 1889.0 1322.0Q1899 1305 1906.5 1289.5Q1914 1274 1914 1268V1199H1613L1526 1318Q1498 1335 1462.5 1339.5Q1427 1344 1395 1344Q1341 1344 1288.5 1330.5Q1236 1317 1186 1295Q1099 1256 1030.0 1198.5Q961 1141 914.0 1068.0Q867 995 842.0 909.0Q817 823 817 727Q817 643 843.0 563.0Q869 483 915.0 412.5Q961 342 1024.0 283.0Q1087 224 1160.0 181.5Q1233 139 1314.0 115.5Q1395 92 1478 92Q1599 92 1689.5 119.0Q1780 146 1852.5 189.0Q1925 232 1986.5 286.5Q2048 341 2111.5 396.0Q2175 451 2247.0 501.0Q2319 551 2412 586V-215Q2412 -245 2391.0 -266.0Q2370 -287 2340 -287H472Q442 -287 421.0 -266.0Q400 -245 400 -215V780Z" style="fill:#00a6ed;stroke:none" transform="scale(1,-1) translate(0,-256)" /></svg>