<?xml version="1.0" encoding="utf-8" ?>
<svg baseProfile="full" height="256" version="1.1" width="256" xmlns="http://www.w3.org/2000/svg" xmlns:ev="http://www.w3.org/2001/xml-events" xmlns:xlink="http://www.w3.org/1999/xlink"><defs /><path d="M1406 1078 1478 1116 1550 1078H1968Q1994 1078 2014.0 1066.0Q2034 1054 2047 1033Q2047 1032 2049.5 1028.0Q2052 1024 2055.0 1019.5Q2058 1015 2060.0 1011.0Q2062 1007 2062 1007L2099 827L2268 647Q2298 647 2324.0 635.5Q2350 624 2369.5 604.0Q2389 584 2400.5 557.5Q2412 531 2412 501V75Q2412 45 2401.0 18.5Q2390 -8 2371.0 -28.5Q2352 -49 2325.5 -60.5Q2299 -72 2269 -72H543Q513 -72 487.0 -60.0Q461 -48 441.5 -28.0Q422 -8 411.0 18.5Q400 45 400 75V322Q400 366 413.5 406.5Q427 447 452.0 481.0Q477 515 512.0 540.0Q547 565 589 577Q593 578 612.5 584.0Q632 590 659.0 597.5Q686 605 716.0 614.0Q746 623 771.5 630.0Q797 637 814.0 642.0Q831 647 831 647L955 809L992 1006Q998 1037 1025.5 1057.5Q1053 1078 1083 1078Z" style="fill:#f9c23c;stroke:none" transform="scale(1,-1) translate(0,-256)" /></svg>