<?xml version="1.0" encoding="utf-8" ?>
<svg baseProfile="full" height="256" version="1.1" width="256" xmlns="http://www.w3.org/2000/svg" xmlns:ev="http://www.w3.org/2001/xml-events" xmlns:xlink="http://www.w3.org/1999/xlink"><defs /><path d="M831 935Q860 935 881.5 913.5Q903 892 903 863V647Q903 617 882.0 596.0Q861 575 831 575H454Q456 580 475.0 606.5Q494 633 521.5 669.5Q549 706 581.0 748.5Q613 791 642.0 829.0Q671 867 693.0 896.0Q715 925 723 935ZM2415 575H1622Q1592 575 1571.0 596.0Q1550 617 1550 647V863Q1550 892 1571.5 913.5Q1593 935 1622 935H2413ZM1334 935Q1363 935 1384.5 913.5Q1406 892 1406 863V647Q1406 617 1385.0 596.0Q1364 575 1334 575H1118Q1089 575 1068.0 596.5Q1047 618 1047 647V863Q1047 892 1068.0 913.5Q1089 935 1118 935Z" style="fill:#00a6ed;stroke:none" transform="scale(1,-1) translate(0,-256)" /></svg>