<?xml version="1.0" encoding="utf-8" ?>
<svg baseProfile="full" height="256" version="1.1" width="256" xmlns="http://www.w3.org/2000/svg" xmlns:ev="http://www.w3.org/2001/xml-events" xmlns:xlink="http://www.w3.org/1999/xlink"><defs /><path d="M903 1078H2268Q2298 1078 2324.0 1067.0Q2350 1056 2369.5 1036.5Q2389 1017 2400.5 991.0Q2412 965 2412 935V72Q2412 42 2400.5 16.0Q2389 -10 2369.5 -29.5Q2350 -49 2324.0 -60.5Q2298 -72 2268 -72H543Q513 -72 487.0 -60.5Q461 -49 441.5 -29.5Q422 -10 411.0 16.0Q400 42 400 72V407Q400 454 414.5 498.5Q429 543 457 580L788 1021Q808 1048 838.5 1063.0Q869 1078 903 1078Z" style="fill:#d3d3d3;stroke:none" transform="scale(1,-1) translate(0,-256)" /></svg>