<?xml version="1.0" encoding="utf-8" ?>
<svg baseProfile="full" height="256" version="1.1" width="256" xmlns="http://www.w3.org/2000/svg" xmlns:ev="http://www.w3.org/2001/xml-events" xmlns:xlink="http://www.w3.org/1999/xlink"><defs /><path d="M1208 216Q1165 216 1132 247L719 652Q687 684 687 727Q687 749 695.5 768.5Q704 788 719.0 802.0Q734 816 753.5 824.5Q773 833 795 833Q816 833 836.0 825.0Q856 817 871 802L1208 471L1941 1191Q1956 1206 1976.0 1214.0Q1996 1222 2017 1222Q2039 1222 2058.5 1213.5Q2078 1205 2092.5 1191.0Q2107 1177 2115.5 1157.5Q2124 1138 2124 1116Q2124 1073 2093 1042L1284 247Q1269 232 1249.0 224.0Q1229 216 1208 216Z" style="fill:#f4f4f4;stroke:none" transform="scale(1,-1) translate(0,-256)" /></svg>