<?xml version="1.0" encoding="utf-8" ?>
<svg baseProfile="full" height="256" version="1.1" width="256" xmlns="http://www.w3.org/2000/svg" xmlns:ev="http://www.w3.org/2001/xml-events" xmlns:xlink="http://www.w3.org/1999/xlink"><defs /><path d="M2188 -215H624Q592 -215 564.5 -203.0Q537 -191 516.5 -170.5Q496 -150 484.0 -122.5Q472 -95 472 -63V1501Q472 1532 484.0 1560.0Q496 1588 516.5 1608.5Q537 1629 564.5 1641.0Q592 1653 624 1653H2188Q2219 1653 2247.0 1641.0Q2275 1629 2295.5 1608.5Q2316 1588 2328.0 1560.0Q2340 1532 2340 1501V-63Q2340 -95 2328.0 -122.5Q2316 -150 2295.5 -170.5Q2275 -191 2247.0 -203.0Q2219 -215 2188 -215Z" style="fill:#000000;stroke:none" transform="scale(1,-1) translate(0,-256)" /></svg>