<?xml version="1.0" encoding="utf-8" ?>
<svg baseProfile="full" height="256" version="1.1" width="256" xmlns="http://www.w3.org/2000/svg" xmlns:ev="http://www.w3.org/2001/xml-events" xmlns:xlink="http://www.w3.org/1999/xlink"><defs /><path d="M1874 -72Q1859 -72 1848.5 -61.5Q1838 -51 1838 -36V904Q1838 970 1811.5 1028.0Q1785 1086 1740.5 1129.0Q1696 1172 1637.0 1197.0Q1578 1222 1513 1222Q1498 1222 1488.0 1232.5Q1478 1243 1478 1258Q1478 1273 1488.0 1283.5Q1498 1294 1513 1294Q1593 1294 1665.0 1263.5Q1737 1233 1791.0 1180.0Q1845 1127 1877.0 1056.0Q1909 985 1909 904V-36Q1909 -50 1898.5 -61.0Q1888 -72 1874 -72ZM1330 719Q1302 719 1282.0 739.0Q1262 759 1262 787V938Q1262 966 1282.0 986.0Q1302 1006 1330 1006H1626Q1654 1006 1673.5 986.0Q1693 966 1693 938V787Q1693 759 1674.5 739.0Q1656 719 1627 719Z" style="fill:#f4f4f4;stroke:none" transform="scale(1,-1) translate(0,-256)" /></svg>