<?xml version="1.0" encoding="utf-8" ?>
<svg baseProfile="full" height="256" version="1.1" width="256" xmlns="http://www.w3.org/2000/svg" xmlns:ev="http://www.w3.org/2001/xml-events" xmlns:xlink="http://www.w3.org/1999/xlink"><defs /><path d="M1334 1330Q1304 1330 1278.0 1341.5Q1252 1353 1232.5 1372.5Q1213 1392 1201.5 1418.0Q1190 1444 1190 1474Q1190 1504 1201.5 1530.0Q1213 1556 1232.5 1575.5Q1252 1595 1278.0 1606.0Q1304 1617 1334 1617Q1364 1617 1390.0 1606.0Q1416 1595 1435.5 1575.5Q1455 1556 1466.5 1530.0Q1478 1504 1478 1474Q1478 1444 1466.5 1418.0Q1455 1392 1435.5 1372.5Q1416 1353 1390.0 1341.5Q1364 1330 1334 1330ZM1406 1481Q1406 1496 1400.0 1510.0Q1394 1524 1383 1535L1334 1480V1553Q1304 1553 1283.0 1532.0Q1262 1511 1262 1481Q1262 1451 1283.0 1430.0Q1304 1409 1334 1409Q1363 1409 1384.5 1430.5Q1406 1452 1406 1481ZM831 503H975V360L903 324L831 360Z" style="fill:#e6e6e6;stroke:none" transform="scale(1,-1) translate(0,-256)" /></svg>