<?xml version="1.0" encoding="utf-8" ?>
<svg baseProfile="full" height="256" version="1.1" width="256" xmlns="http://www.w3.org/2000/svg" xmlns:ev="http://www.w3.org/2001/xml-events" xmlns:xlink="http://www.w3.org/1999/xlink"><defs /><path d="M1478 1725V1581Q1375 1581 1283.5 1541.0Q1192 1501 1123.5 1432.5Q1055 1364 1015.0 1272.5Q975 1181 975 1078V288Q975 287 979.0 272.0Q983 257 988.0 239.0Q993 221 997.5 205.5Q1002 190 1003 187Q1032 83 1062.0 -20.0Q1092 -123 1118 -228Q1119 -233 1119.5 -236.5Q1120 -240 1120 -245Q1120 -262 1110.5 -274.5Q1101 -287 1083 -287H723Q704 -287 694.5 -274.0Q685 -261 685 -244Q685 -238 687 -228L783 116Q790 141 797.5 161.5Q805 182 811.5 201.5Q818 221 823.0 241.5Q828 262 831 288Q835 326 835.5 357.5Q836 389 835.0 419.5Q834 450 832.5 481.5Q831 513 831 551V1078Q831 1167 854.0 1249.5Q877 1332 919.5 1404.0Q962 1476 1021.0 1535.0Q1080 1594 1152.0 1636.5Q1224 1679 1306.5 1702.0Q1389 1725 1478 1725Z" style="fill:#321b41;stroke:none" transform="scale(1,-1) translate(0,-256)" /></svg>