<?xml version="1.0" encoding="utf-8" ?>
<svg baseProfile="full" height="256" version="1.1" width="256" xmlns="http://www.w3.org/2000/svg" xmlns:ev="http://www.w3.org/2001/xml-events" xmlns:xlink="http://www.w3.org/1999/xlink"><defs /><path d="M1839 -287H1117Q1088 -287 1062.0 -276.0Q1036 -265 1016.5 -245.5Q997 -226 986.0 -200.0Q975 -174 975 -145V951Q975 1037 1007.5 1112.5Q1040 1188 1096.0 1244.5Q1152 1301 1227.5 1333.5Q1303 1366 1389 1366H1566Q1652 1366 1727.5 1333.5Q1803 1301 1859.5 1244.5Q1916 1188 1948.5 1112.5Q1981 1037 1981 951V-145Q1981 -174 1970.0 -200.0Q1959 -226 1939.5 -245.5Q1920 -265 1894.0 -276.0Q1868 -287 1839 -287Z" style="fill:#f8312f;stroke:none" transform="scale(1,-1) translate(0,-256)" /></svg>