<?xml version="1.0" encoding="utf-8" ?>
<svg baseProfile="full" height="256" version="1.1" width="256" xmlns="http://www.w3.org/2000/svg" xmlns:ev="http://www.w3.org/2001/xml-events" xmlns:xlink="http://www.w3.org/1999/xlink"><defs /><path d="M1406 1725Q1496 1725 1574.5 1691.0Q1653 1657 1711.5 1598.5Q1770 1540 1803.5 1461.0Q1837 1382 1837 1293V144Q1837 55 1803.0 -23.5Q1769 -102 1710.5 -160.5Q1652 -219 1573.5 -253.0Q1495 -287 1406 -287Q1317 -287 1238.5 -253.0Q1160 -219 1101.5 -160.5Q1043 -102 1009.0 -23.5Q975 55 975 144V1293Q975 1382 1008.5 1461.0Q1042 1540 1100.5 1598.5Q1159 1657 1237.5 1691.0Q1316 1725 1406 1725Z" style="fill:#636363;stroke:none" transform="scale(1,-1) translate(0,-256)" /></svg>