<?xml version="1.0" encoding="utf-8" ?>
<svg baseProfile="full" height="256" version="1.1" width="256" xmlns="http://www.w3.org/2000/svg" xmlns:ev="http://www.w3.org/2001/xml-events" xmlns:xlink="http://www.w3.org/1999/xlink"><defs /><path d="M1406 1078Q1361 1078 1322.0 1095.0Q1283 1112 1253.5 1141.5Q1224 1171 1207.0 1210.0Q1190 1249 1190 1294Q1190 1339 1207.0 1378.0Q1224 1417 1253.5 1446.5Q1283 1476 1322.0 1493.0Q1361 1510 1406 1510Q1451 1510 1490.0 1493.0Q1529 1476 1558.5 1446.5Q1588 1417 1605.0 1378.0Q1622 1339 1622 1294Q1622 1249 1605.0 1210.0Q1588 1171 1558.5 1141.5Q1529 1112 1490.0 1095.0Q1451 1078 1406 1078Z" style="fill:#f8312f;stroke:none" transform="scale(1,-1) translate(0,-256)" /></svg>