<?xml version="1.0" encoding="utf-8" ?>
<svg baseProfile="full" height="256" version="1.1" width="256" xmlns="http://www.w3.org/2000/svg" xmlns:ev="http://www.w3.org/2001/xml-events" xmlns:xlink="http://www.w3.org/1999/xlink"><defs /><path d="M1406 503Q1361 503 1322.0 520.0Q1283 537 1253.5 566.5Q1224 596 1207.0 635.0Q1190 674 1190 719Q1190 764 1207.0 803.0Q1224 842 1253.5 871.5Q1283 901 1322.0 918.0Q1361 935 1406 935Q1451 935 1490.0 918.0Q1529 901 1558.5 871.5Q1588 842 1605.0 803.0Q1622 764 1622 719Q1622 674 1605.0 635.0Q1588 596 1558.5 566.5Q1529 537 1490.0 520.0Q1451 503 1406 503Z" style="fill:#ffb02e;stroke:none" transform="scale(1,-1) translate(0,-256)" /></svg>