<?xml version="1.0" encoding="utf-8" ?>
<svg baseProfile="full" height="256" version="1.1" width="256" xmlns="http://www.w3.org/2000/svg" xmlns:ev="http://www.w3.org/2001/xml-events" xmlns:xlink="http://www.w3.org/1999/xlink"><defs /><path d="M1176 1366Q1162 1366 1151.5 1375.0Q1141 1384 1141 1398Q1141 1406 1144 1412Q1161 1451 1188.5 1482.5Q1216 1514 1250.0 1535.5Q1284 1557 1324.0 1569.0Q1364 1581 1406 1581Q1448 1581 1488.0 1569.0Q1528 1557 1562.5 1535.0Q1597 1513 1624.0 1482.0Q1651 1451 1668 1412Q1671 1406 1671 1399Q1671 1385 1660.5 1375.5Q1650 1366 1636 1366Q1623 1366 1614.0 1372.5Q1605 1379 1599 1390Q1567 1446 1519.5 1478.0Q1472 1510 1406 1510Q1340 1510 1292.5 1478.0Q1245 1446 1213 1390Q1207 1379 1198.0 1372.5Q1189 1366 1176 1366ZM1141 823Q1141 809 1151.5 800.0Q1162 791 1176 791Q1189 791 1198.0 797.5Q1207 804 1213 815Q1245 871 1292.5 903.0Q1340 935 1406 935Q1472 935 1519.5 903.0Q1567 871 1599 815Q1605 804 1614.0 797.5Q1623 791 1636 791Q1650 791 1660.5 800.5Q1671 810 1671 824Q1671 831 1668 837Q1651 876 1624.0 907.0Q1597 938 1562.5 960.0Q1528 982 1488.0 994.0Q1448 1006 1406 1006Q1364 1006 1324.0 994.0Q1284 982 1250.0 960.5Q1216 939 1188.5 907.5Q1161 876 1144 837Q1141 831 1141 823ZM1140 249Q1140 235 1151.0 225.5Q1162 216 1176 216Q1189 216 1198.0 222.5Q1207 229 1213 240Q1245 296 1292.5 328.0Q1340 360 1406 360Q1472 360 1519.5 327.5Q1567 295 1599 240Q1605 229 1614.0 222.5Q1623 216 1636 216Q1650 216 1660.5 225.5Q1671 235 1671 249Q1671 256 1668 262Q1651 301 1624.0 332.0Q1597 363 1562.5 385.0Q1528 407 1488.0 419.0Q1448 431 1406 431Q1364 431 1324.0 419.0Q1284 407 1249.5 385.0Q1215 363 1187.5 332.0Q1160 301 1143 262Q1140 256 1140 249Z" style="fill:#636363;stroke:none" transform="scale(1,-1) translate(0,-256)" /></svg>