<?xml version="1.0" encoding="utf-8" ?>
<svg baseProfile="full" height="256" version="1.1" width="256" xmlns="http://www.w3.org/2000/svg" xmlns:ev="http://www.w3.org/2001/xml-events" xmlns:xlink="http://www.w3.org/1999/xlink"><defs /><path d="M827 1438Q812 1453 804.5 1476.5Q797 1500 797 1521Q797 1529 802.5 1548.5Q808 1568 816.5 1588.5Q825 1609 835.0 1625.0Q845 1641 854 1641Q862 1641 865.0 1631.5Q868 1622 876 1622Q885 1622 892.5 1638.0Q900 1654 907.5 1673.5Q915 1693 923.5 1709.0Q932 1725 943 1725Q953 1725 966.0 1713.5Q979 1702 992.0 1686.0Q1005 1670 1016.0 1654.5Q1027 1639 1032 1631Q1048 1606 1061.5 1573.0Q1075 1540 1075 1510Q1075 1491 1065.0 1471.5Q1055 1452 1043 1438Z" style="fill:#ff822d;stroke:none" transform="scale(1,-1) translate(0,-256)" /></svg>