<?xml version="1.0" encoding="utf-8" ?>
<svg baseProfile="full" height="256" version="1.1" width="256" xmlns="http://www.w3.org/2000/svg" xmlns:ev="http://www.w3.org/2001/xml-events" xmlns:xlink="http://www.w3.org/1999/xlink"><defs /><path d="M1580 935Q1632 935 1679.0 915.5Q1726 896 1761.0 862.0Q1796 828 1816.5 782.0Q1837 736 1837 683V542Q1837 595 1816.5 641.0Q1796 687 1761.0 721.0Q1726 755 1679.0 774.5Q1632 794 1580 794Q1562 794 1544.0 794.0Q1526 794 1508 793Q1456 791 1411.0 771.5Q1366 752 1333.0 718.0Q1300 684 1281.0 638.5Q1262 593 1262 541V682Q1262 733 1281.0 779.0Q1300 825 1333.0 859.5Q1366 894 1411.0 914.5Q1456 935 1508 935ZM1334 663Q1368 698 1413.5 717.5Q1459 737 1507 737H1548Q1542 699 1512.0 673.0Q1482 647 1443 647H1334ZM1553 737Q1560 737 1566.0 737.5Q1572 738 1579 738Q1632 738 1680.0 718.0Q1728 698 1765 660V647H1666Q1625 647 1593.5 672.5Q1562 698 1553 737ZM1370 16V326Q1393 288 1431.0 264.0Q1469 240 1510 226Q1515 224 1529.0 220.0Q1543 216 1549 216Q1563 216 1583.5 223.0Q1604 230 1625.0 240.5Q1646 251 1664.5 262.5Q1683 274 1693 283V16Z" style="fill:#49b59d;stroke:none" transform="scale(1,-1) translate(0,-256)" /></svg>