<?xml version="1.0" encoding="utf-8" ?>
<svg baseProfile="full" height="256" version="1.1" width="256" xmlns="http://www.w3.org/2000/svg" xmlns:ev="http://www.w3.org/2001/xml-events" xmlns:xlink="http://www.w3.org/1999/xlink"><defs /><path d="M857 1294H1002L1000 1235Q990 1232 985.0 1223.0Q980 1214 980 1204Q980 1194 982.5 1182.0Q985 1170 987.5 1158.5Q990 1147 992.5 1138.5Q995 1130 995 1127L984 825Q983 811 973.0 801.0Q963 791 949 791H910Q896 791 886.0 801.0Q876 811 875 825L866 1066Q878 1066 887.0 1075.0Q896 1084 896 1096Q896 1119 871 1127Q873 1126 878 1126Q890 1126 899.0 1135.0Q908 1144 908 1156Q908 1170 901.0 1175.0Q894 1180 884 1186H888Q900 1186 910.0 1194.5Q920 1203 920 1216Q920 1228 913.5 1235.0Q907 1242 898.0 1246.0Q889 1250 878.5 1252.5Q868 1255 859 1257ZM1579 879Q1620 879 1658.0 867.0Q1696 855 1727.5 833.5Q1759 812 1783.5 781.0Q1808 750 1822 711Q1837 699 1837 677V474Q1837 460 1829.5 448.0Q1822 436 1808 432L1885 35Q1912 17 1952.0 -12.0Q1992 -41 2029.5 -76.0Q2067 -111 2094.0 -148.0Q2121 -185 2121 -218V-289Q1971 -289 1822.5 -289.5Q1674 -290 1524 -290Q1331 -290 1140.0 -289.5Q949 -289 756 -289Q756 -233 755.5 -179.5Q755 -126 751.5 -74.0Q748 -22 740.0 30.5Q732 83 718 138Q704 189 695.5 241.0Q687 293 687 347Q687 399 696 450Q698 459 705.5 479.5Q713 500 723.5 521.0Q734 542 746.0 558.0Q758 574 770 575Q767 546 761.5 514.5Q756 483 756 454Q756 435 764.5 418.0Q773 401 786.5 388.0Q800 375 818.0 367.5Q836 360 854 360Q905 360 937.0 377.5Q969 395 986.5 424.0Q1004 453 1010.0 492.0Q1016 531 1015 575Q1028 575 1045.5 562.0Q1063 549 1082.0 529.0Q1101 509 1121.0 485.0Q1141 461 1158.0 437.5Q1175 414 1188.5 394.5Q1202 375 1209 365Q1213 377 1221.0 398.0Q1229 419 1237.5 441.0Q1246 463 1253.0 483.0Q1260 503 1262 514Q1265 529 1263.5 557.0Q1262 585 1261.0 615.5Q1260 646 1262.5 672.5Q1265 699 1276 710Q1289 747 1311.5 778.0Q1334 809 1364.5 831.0Q1395 853 1431.0 865.0Q1467 877 1507 878Q1525 878 1543.0 878.5Q1561 879 1579 879ZM1334 663V645Q1334 613 1334.0 576.5Q1334 540 1336.0 503.0Q1338 466 1342.0 430.5Q1346 395 1354 364Q1360 340 1373.5 320.5Q1387 301 1406 284V147Q1433 126 1456.5 111.0Q1480 96 1504.0 87.0Q1528 78 1555.5 74.0Q1583 70 1618 70H1691V281Q1710 297 1723.5 317.0Q1737 337 1744 361Q1753 391 1757.0 429.0Q1761 467 1763.0 506.5Q1765 546 1765.0 584.5Q1765 623 1765 655V660Q1728 698 1680.0 718.0Q1632 738 1579 738Q1542 738 1509.5 736.5Q1477 735 1447.0 728.0Q1417 721 1389.0 706.0Q1361 691 1334 663Z" style="fill:#14a085;stroke:none" transform="scale(1,-1) translate(0,-256)" /></svg>