<?xml version="1.0" encoding="utf-8" ?>
<svg baseProfile="full" height="256" version="1.1" width="256" xmlns="http://www.w3.org/2000/svg" xmlns:ev="http://www.w3.org/2001/xml-events" xmlns:xlink="http://www.w3.org/1999/xlink"><defs /><path d="M828 1438H1044Q1073 1438 1094.5 1416.5Q1116 1395 1116 1366Q1116 1337 1094.5 1315.5Q1073 1294 1044 1294H891L981 1188Q981 1192 980.5 1195.5Q980 1199 980 1204Q980 1216 987.0 1226.5Q994 1237 1008 1237Q1019 1237 1028.0 1230.5Q1037 1224 1039 1213Q1041 1197 1042.0 1182.0Q1043 1167 1050 1152Q1052 1147 1055.0 1141.5Q1058 1136 1058 1130Q1058 1120 1057.5 1102.5Q1057 1085 1053.5 1068.0Q1050 1051 1042.0 1038.0Q1034 1025 1019 1024L1017 860Q1023 863 1029 863Q1047 863 1087.5 853.0Q1128 843 1173.0 831.0Q1218 819 1257.5 809.0Q1297 799 1314 799H1782Q1793 799 1815.0 803.5Q1837 808 1864.5 815.5Q1892 823 1923.0 831.0Q1954 839 1982.0 846.5Q2010 854 2032.5 858.5Q2055 863 2067 863Q2077 863 2084.0 855.5Q2091 848 2091 837Q2091 824 2079 817L1836 672Q1832 670 1829 670Q1823 670 1816.5 681.0Q1810 692 1804.0 706.5Q1798 721 1793.5 734.5Q1789 748 1787 754Q1787 707 1787.5 643.5Q1788 580 1786.5 513.0Q1785 446 1780.5 382.0Q1776 318 1765 270Q1758 238 1741.5 213.0Q1725 188 1702.5 167.5Q1680 147 1653.0 132.0Q1626 117 1598 106Q1595 105 1587.5 102.5Q1580 100 1572.0 97.5Q1564 95 1556.5 93.0Q1549 91 1546 91Q1543 91 1535.0 93.0Q1527 95 1519.0 97.5Q1511 100 1503.0 102.5Q1495 105 1492 107Q1463 118 1435.0 133.5Q1407 149 1383.5 169.5Q1360 190 1342.5 216.0Q1325 242 1318 274Q1308 317 1304.0 377.0Q1300 437 1298.5 500.5Q1297 564 1297.5 624.0Q1298 684 1298 727Q1296 722 1293.0 713.0Q1290 704 1286.5 694.0Q1283 684 1278.0 677.0Q1273 670 1267 670Q1265 670 1247.5 680.0Q1230 690 1204.0 705.0Q1178 720 1147.5 738.5Q1117 757 1090.0 773.0Q1063 789 1042.5 801.5Q1022 814 1017 817L1015 603L1272 644H1276Q1281 644 1284.0 640.0Q1287 636 1287 632V519Q1287 514 1282.0 509.5Q1277 505 1272 506L1014 547L1011 197L722 339L847 977Q848 981 848.0 985.5Q848 990 848 994Q848 1019 840.0 1036.5Q832 1054 818 1074L817 1076L814 1078V1079Q803 1085 796.5 1090.5Q790 1096 790 1110Q790 1124 801.0 1132.5Q812 1141 826 1139Q810 1144 795.5 1150.0Q781 1156 781 1176Q781 1190 792.0 1198.5Q803 1207 816 1206Q802 1209 792.5 1215.5Q783 1222 783 1238Q783 1251 791.5 1260.0Q800 1269 813 1269Q821 1269 827 1266V1294Q798 1294 777.0 1315.5Q756 1337 756 1366Q756 1395 777.5 1416.5Q799 1438 828 1438ZM1490 907H1603Q1616 907 1616 920V922L1571 1201Q1569 1210 1563.0 1216.0Q1557 1222 1547 1222Q1538 1222 1531.0 1216.0Q1524 1210 1522 1201L1478 922V918Q1478 913 1481.5 910.0Q1485 907 1490 907ZM1671 905Q1671 910 1675 914L1874 1115Q1881 1122 1891 1122Q1902 1122 1909.5 1115.0Q1917 1108 1917 1098Q1917 1093 1908.5 1074.0Q1900 1055 1887.0 1028.0Q1874 1001 1858.5 970.0Q1843 939 1828.5 911.0Q1814 883 1803.0 862.0Q1792 841 1788 833Q1784 826 1776 826Q1772 826 1758.0 835.5Q1744 845 1727.5 857.0Q1711 869 1696.0 880.0Q1681 891 1676 894Q1671 897 1671 905ZM1422 905Q1422 910 1418 914L1219 1116Q1212 1123 1202 1123Q1191 1123 1183.5 1116.0Q1176 1109 1176 1099Q1176 1094 1184.5 1074.5Q1193 1055 1206.0 1028.5Q1219 1002 1234.5 970.5Q1250 939 1264.5 911.5Q1279 884 1290.0 862.5Q1301 841 1305 833Q1308 826 1317 826Q1320 826 1334.5 835.5Q1349 845 1365.5 857.0Q1382 869 1396.5 880.0Q1411 891 1416 894Q1422 898 1422 905ZM1806 519V632Q1806 637 1809.0 640.5Q1812 644 1817 644H1821L2100 600Q2109 598 2115.0 591.0Q2121 584 2121 575Q2121 565 2115.0 559.0Q2109 553 2100 551L1821 506H1819Q1806 506 1806 519Z" style="fill:#72ccb4;stroke:none" transform="scale(1,-1) translate(0,-256)" /></svg>