<?xml version="1.0" encoding="utf-8" ?>
<svg baseProfile="full" height="256" version="1.1" width="256" xmlns="http://www.w3.org/2000/svg" xmlns:ev="http://www.w3.org/2001/xml-events" xmlns:xlink="http://www.w3.org/1999/xlink"><defs /><path d="M1052 876Q1052 850 1042.0 827.5Q1032 805 1015.0 788.0Q998 771 975.5 761.0Q953 751 927 751Q901 751 878.0 760.5Q855 770 838.0 787.0Q821 804 811.0 827.0Q801 850 801 876Q801 902 811.0 925.0Q821 948 838.0 965.0Q855 982 878.0 991.5Q901 1001 927 1001Q953 1001 975.5 991.0Q998 981 1015.0 964.0Q1032 947 1042.0 924.5Q1052 902 1052 876ZM1783 876Q1783 850 1773.0 827.5Q1763 805 1746.0 788.0Q1729 771 1706.5 761.0Q1684 751 1658 751Q1632 751 1609.5 761.0Q1587 771 1570.0 788.0Q1553 805 1543.0 827.5Q1533 850 1533 876Q1533 902 1543.0 924.5Q1553 947 1570.0 964.0Q1587 981 1609.5 991.0Q1632 1001 1658 1001Q1684 1001 1706.5 991.0Q1729 981 1746.0 964.0Q1763 947 1773.0 924.5Q1783 902 1783 876Z" style="fill:#fdbb11;stroke:none" transform="scale(1,-1) translate(0,-256)" /></svg>