<?xml version="1.0" encoding="utf-8" ?>
<svg baseProfile="full" height="256" version="1.1" width="256" xmlns="http://www.w3.org/2000/svg" xmlns:ev="http://www.w3.org/2001/xml-events" xmlns:xlink="http://www.w3.org/1999/xlink"><defs /><path d="M1293 644Q1325 644 1350.0 652.0Q1375 660 1404 671Q1405 671 1407.0 672.0Q1409 673 1410 673Q1415 673 1418.5 669.0Q1422 665 1422 660Q1422 658 1420 654Q1400 622 1365.5 603.5Q1331 585 1293 585Q1256 585 1221.0 603.5Q1186 622 1167 654Q1165 658 1165 660Q1165 673 1177 673Q1178 673 1182 671Q1208 658 1236.0 651.0Q1264 644 1293 644Z" style="fill:#990839;stroke:none" transform="scale(1,-1) translate(0,-256)" /></svg>