<?xml version="1.0" encoding="utf-8" ?>
<svg baseProfile="full" height="256" version="1.1" width="256" xmlns="http://www.w3.org/2000/svg" xmlns:ev="http://www.w3.org/2001/xml-events" xmlns:xlink="http://www.w3.org/1999/xlink"><defs /><path d="M1126 930Q1143 930 1154.0 919.0Q1165 908 1165 891Q1165 881 1161 873H1092Q1088 881 1088 891Q1088 907 1098.5 918.5Q1109 930 1126 930ZM1460 930Q1443 930 1432.0 919.0Q1421 908 1421 891Q1421 881 1425 873H1494Q1499 883 1499 891Q1499 907 1487.5 918.5Q1476 930 1460 930Z" style="fill:#000000;stroke:none" transform="scale(1,-1) translate(0,-256)" /></svg>