<?xml version="1.0" encoding="utf-8" ?>
<svg baseProfile="full" height="256" version="1.1" width="256" xmlns="http://www.w3.org/2000/svg" xmlns:ev="http://www.w3.org/2001/xml-events" xmlns:xlink="http://www.w3.org/1999/xlink"><defs /><path d="M1223 757Q1223 766 1228.0 785.0Q1233 804 1240.0 825.5Q1247 847 1254.0 866.5Q1261 886 1264 897Q1267 907 1275.0 912.5Q1283 918 1293 918Q1315 918 1321 897Q1324 887 1331.0 867.0Q1338 847 1345.0 825.5Q1352 804 1357.5 785.0Q1363 766 1363 757Q1363 740 1351.0 728.5Q1339 717 1322 717H1264Q1247 717 1235.0 728.5Q1223 740 1223 757Z" style="fill:#ed9200;stroke:none" transform="scale(1,-1) translate(0,-256)" /></svg>