<?xml version="1.0" encoding="utf-8" ?>
<svg baseProfile="full" height="256" version="1.1" width="256" xmlns="http://www.w3.org/2000/svg" xmlns:ev="http://www.w3.org/2001/xml-events" xmlns:xlink="http://www.w3.org/1999/xlink"><defs /><path d="M2101 1353Q2119 1379 2147.0 1393.5Q2175 1408 2207 1408Q2234 1408 2258.5 1397.5Q2283 1387 2301.0 1369.0Q2319 1351 2329.5 1327.0Q2340 1303 2340 1275Q2340 1248 2329.5 1224.0Q2319 1200 2301.0 1182.0Q2283 1164 2258.5 1153.5Q2234 1143 2207 1143Q2182 1143 2158.5 1152.5Q2135 1162 2117.0 1179.0Q2099 1196 2088.0 1218.5Q2077 1241 2077 1267L2032 1281L2056 1365ZM2208 1337Q2183 1337 2165.0 1318.5Q2147 1300 2147 1275Q2147 1249 2165.0 1231.5Q2183 1214 2209 1214Q2235 1214 2252.5 1231.5Q2270 1249 2270 1275Q2270 1301 2252.0 1319.0Q2234 1337 2208 1337ZM1934 1259 1947 1305 2031 1281 2018 1234Q2044 1217 2058.5 1187.5Q2073 1158 2073 1127Q2073 1100 2063.0 1076.0Q2053 1052 2035.0 1034.0Q2017 1016 1993.0 1005.5Q1969 995 1942 995Q1915 995 1890.5 1005.5Q1866 1016 1848.0 1034.5Q1830 1053 1819.5 1077.5Q1809 1102 1809 1129Q1809 1154 1818.5 1177.5Q1828 1201 1845.0 1219.0Q1862 1237 1885.0 1248.0Q1908 1259 1934 1259ZM1942 1190Q1916 1190 1898.0 1172.0Q1880 1154 1880 1129Q1880 1103 1898.0 1085.0Q1916 1067 1942 1067Q1968 1067 1986.0 1085.0Q2004 1103 2004 1128Q2004 1154 1985.5 1172.0Q1967 1190 1942 1190Z" style="fill:#f8312f;stroke:none" transform="scale(1,-1) translate(0,-256)" /></svg>