<?xml version="1.0" encoding="utf-8" ?>
<svg baseProfile="full" height="256" version="1.1" width="256" xmlns="http://www.w3.org/2000/svg" xmlns:ev="http://www.w3.org/2001/xml-events" xmlns:xlink="http://www.w3.org/1999/xlink"><defs /><path d="M1708 1466 2056 1365 2116 1316 2110 1283Q2090 1282 2071.0 1281.5Q2052 1281 2032 1281Q2032 1281 2012.5 1286.5Q1993 1292 1963.0 1300.5Q1933 1309 1898.0 1319.5Q1863 1330 1832.0 1339.0Q1801 1348 1778.5 1354.5Q1756 1361 1751 1362Q1729 1368 1714.5 1387.0Q1700 1406 1700 1429Q1700 1439 1703.0 1448.0Q1706 1457 1708 1466Z" style="fill:#d3d3d3;stroke:none" transform="scale(1,-1) translate(0,-256)" /></svg>