<?xml version="1.0" encoding="utf-8" ?>
<svg baseProfile="full" height="256" version="1.1" width="256" xmlns="http://www.w3.org/2000/svg" xmlns:ev="http://www.w3.org/2001/xml-events" xmlns:xlink="http://www.w3.org/1999/xlink"><defs /><path d="M1555 1031Q1551 1031 1541.0 1036.0Q1531 1041 1517.5 1046.5Q1504 1052 1487.0 1057.0Q1470 1062 1451 1062Q1440 1062 1433.0 1061.0Q1426 1060 1415 1065Q1408 1072 1408 1079Q1408 1084 1408.0 1086.5Q1408 1089 1412 1093Q1413 1097 1418.0 1099.0Q1423 1101 1429.5 1102.0Q1436 1103 1442.5 1103.0Q1449 1103 1452 1103Q1462 1103 1482.5 1099.5Q1503 1096 1523.5 1089.5Q1544 1083 1559.5 1073.0Q1575 1063 1575 1050Q1575 1042 1569.0 1036.5Q1563 1031 1555 1031ZM1032 1031Q1024 1031 1017.5 1036.5Q1011 1042 1011 1050Q1011 1063 1026.5 1073.0Q1042 1083 1063.0 1089.5Q1084 1096 1105.0 1099.5Q1126 1103 1136 1103Q1143 1103 1150.5 1103.0Q1158 1103 1164.0 1100.5Q1170 1098 1174.0 1093.0Q1178 1088 1178 1079Q1178 1071 1170.5 1066.0Q1163 1061 1156 1061Q1123 1061 1098.0 1058.0Q1073 1055 1044 1035Q1041 1033 1038.5 1032.0Q1036 1031 1032 1031Z" style="fill:#d37034;stroke:none" transform="scale(1,-1) translate(0,-256)" /></svg>