<?xml version="1.0" encoding="utf-8" ?>
<svg baseProfile="full" height="256" version="1.1" width="256" xmlns="http://www.w3.org/2000/svg" xmlns:ev="http://www.w3.org/2001/xml-events" xmlns:xlink="http://www.w3.org/1999/xlink"><defs /><path d="M906 1061Q906 1113 926.0 1159.5Q946 1206 981.0 1241.0Q1016 1276 1062.0 1296.0Q1108 1316 1161 1316H1258Q1276 1316 1286.5 1307.0Q1297 1298 1305 1284Q1333 1236 1361.0 1213.5Q1389 1191 1421.0 1183.0Q1453 1175 1491.5 1175.5Q1530 1176 1580 1175Q1601 1175 1620.0 1166.0Q1639 1157 1654.0 1142.0Q1669 1127 1677.5 1107.5Q1686 1088 1686 1067Q1686 1050 1684.5 1032.5Q1683 1015 1681 998H1682Q1676 908 1670.5 819.5Q1665 731 1659 641Q1657 624 1652.0 606.0Q1647 588 1641 571Q1624 529 1596.0 494.5Q1568 460 1532.0 436.0Q1496 412 1453.5 398.5Q1411 385 1366 385H1223Q1178 385 1135.5 398.5Q1093 412 1056.5 436.0Q1020 460 992.0 494.5Q964 529 947 571Q941 587 936.0 605.5Q931 624 929 641Q921 746 913.5 850.5Q906 955 906 1061Z" style="fill:#ffc83d;stroke:none" transform="scale(1,-1) translate(0,-256)" /></svg>