<?xml version="1.0" encoding="utf-8" ?>
<svg baseProfile="full" height="256" version="1.1" width="256" xmlns="http://www.w3.org/2000/svg" xmlns:ev="http://www.w3.org/2001/xml-events" xmlns:xlink="http://www.w3.org/1999/xlink"><defs /><path d="M1977 1505Q1988 1505 1996.0 1497.0Q2004 1489 2004 1478Q2004 1441 1980.0 1402.5Q1956 1364 1921.0 1329.5Q1886 1295 1846.5 1268.0Q1807 1241 1777 1226V1209Q1777 1195 1776.0 1178.0Q1775 1161 1772.5 1143.5Q1770 1126 1765.0 1110.0Q1760 1094 1752 1082Q1741 1066 1736.0 1051.0Q1731 1036 1731 1016V976H1729Q1725 976 1705.0 962.0Q1685 948 1660.5 930.0Q1636 912 1614.5 895.5Q1593 879 1586 874Q1592 858 1602.0 838.5Q1612 819 1626.0 801.5Q1640 784 1656.5 772.0Q1673 760 1692 760Q1703 760 1713.0 764.5Q1723 769 1732 775V705Q1732 657 1705.5 616.5Q1679 576 1635 556Q1636 557 1636 560Q1636 572 1615.0 581.5Q1594 591 1561.5 597.5Q1529 604 1490.0 608.5Q1451 613 1416.0 615.5Q1381 618 1354.0 619.0Q1327 620 1318 620Q1275 620 1227.5 617.0Q1180 614 1132.5 606.5Q1085 599 1039.5 586.5Q994 574 956 554Q909 572 881.5 613.5Q854 655 854 705V774Q859 770 868 770Q881 770 894.5 782.0Q908 794 920.0 811.0Q932 828 941.5 845.5Q951 863 956 874Q949 887 938.0 904.0Q927 921 913.0 936.5Q899 952 884.0 964.0Q869 976 854 978V1016Q854 1040 845.5 1057.5Q837 1075 827.5 1093.0Q818 1111 809.5 1132.0Q801 1153 801 1183Q801 1243 834.5 1286.5Q868 1330 922 1351Q987 1376 1026 1435Q1052 1474 1091.0 1495.5Q1130 1517 1177 1517Q1192 1517 1206.5 1513.5Q1221 1510 1235.0 1505.5Q1249 1501 1263.0 1497.5Q1277 1494 1292 1494Q1307 1494 1321.0 1497.5Q1335 1501 1349.0 1505.5Q1363 1510 1377.5 1513.5Q1392 1517 1407 1517Q1442 1517 1466.5 1508.5Q1491 1500 1509.0 1486.5Q1527 1473 1540.0 1456.5Q1553 1440 1565.0 1424.0Q1577 1408 1590.0 1393.5Q1603 1379 1622 1371Q1634 1366 1652.0 1363.5Q1670 1361 1683 1361Q1720 1361 1758.0 1372.0Q1796 1383 1831.5 1401.5Q1867 1420 1899.0 1444.0Q1931 1468 1956 1494Q1965 1505 1977 1505Z" style="fill:#f1a11e;stroke:none" transform="scale(1,-1) translate(0,-256)" /></svg>