<?xml version="1.0" encoding="utf-8" ?>
<svg baseProfile="full" height="256" version="1.1" width="256" xmlns="http://www.w3.org/2000/svg" xmlns:ev="http://www.w3.org/2001/xml-events" xmlns:xlink="http://www.w3.org/1999/xlink"><defs /><path d="M1058 891Q1058 919 1077.5 939.5Q1097 960 1126 960Q1155 960 1174.5 940.0Q1194 920 1194 891Q1194 886 1193.5 882.0Q1193 878 1192 873H1060Q1059 878 1058.5 882.0Q1058 886 1058 891ZM1528 891Q1528 919 1508.5 939.5Q1489 960 1460 960Q1431 960 1411.5 940.0Q1392 920 1392 891Q1392 886 1392.5 882.0Q1393 878 1394 873H1526Q1527 878 1527.5 882.0Q1528 886 1528 891Z" style="fill:#7d4533;stroke:none" transform="scale(1,-1) translate(0,-256)" /></svg>