<?xml version="1.0" encoding="utf-8" ?>
<svg baseProfile="full" height="256" version="1.1" width="256" xmlns="http://www.w3.org/2000/svg" xmlns:ev="http://www.w3.org/2001/xml-events" xmlns:xlink="http://www.w3.org/1999/xlink"><defs /><path d="M2181 1510Q2196 1543 2225.0 1562.5Q2254 1582 2290 1582Q2316 1582 2338.0 1573.0Q2360 1564 2376.5 1547.5Q2393 1531 2402.5 1509.0Q2412 1487 2412 1461Q2412 1434 2401 1411L2286 1155L2066 1252ZM1955 33H2348Q2374 33 2392.5 14.5Q2411 -4 2411 -30V-162Q2411 -188 2392.5 -207.0Q2374 -226 2348 -226H1955Q1929 -226 1910.5 -207.0Q1892 -188 1892 -162V-30Q1892 -4 1910.5 14.5Q1929 33 1955 33Z" style="fill:#533566;stroke:none" transform="scale(1,-1) translate(0,-256)" /></svg>