<?xml version="1.0" encoding="utf-8" ?>
<svg baseProfile="full" height="256" version="1.1" width="256" xmlns="http://www.w3.org/2000/svg" xmlns:ev="http://www.w3.org/2001/xml-events" xmlns:xlink="http://www.w3.org/1999/xlink"><defs /><path d="M1986 485Q1941 386 1897.5 289.0Q1854 192 1809 93Q1779 27 1734.0 -28.5Q1689 -84 1632.0 -125.0Q1575 -166 1508.5 -191.0Q1442 -216 1369 -223L1370 -26Q1370 3 1368.0 23.0Q1366 43 1370 72Q1375 103 1382.5 124.0Q1390 145 1398 175L1454 380Q1552 406 1633.5 465.0Q1715 524 1770 609ZM831 72 716 -226H694Q633 -226 579.5 -203.0Q526 -180 486.0 -140.0Q446 -100 423.0 -46.5Q400 7 400 68Q400 129 423.0 182.5Q446 236 486.0 276.0Q526 316 579.5 339.0Q633 362 694 362H798Z" style="fill:#f3ad61;stroke:none" transform="scale(1,-1) translate(0,-256)" /></svg>