<?xml version="1.0" encoding="utf-8" ?>
<svg baseProfile="full" height="256" version="1.1" width="256" xmlns="http://www.w3.org/2000/svg" xmlns:ev="http://www.w3.org/2001/xml-events" xmlns:xlink="http://www.w3.org/1999/xlink"><defs /><path d="M2053 565Q2053 593 2071.0 610.5Q2089 628 2115 631Q2172 637 2230.0 642.0Q2288 647 2345 647Q2373 647 2392.5 627.5Q2412 608 2412 580Q2412 569 2405.5 545.0Q2399 521 2390.0 494.5Q2381 468 2372.0 443.5Q2363 419 2358 406Q2350 384 2332.5 372.0Q2315 360 2292 360Q2266 360 2248 375L2076 516Q2053 534 2053 565ZM1765 1451Q1765 1460 1768.0 1477.0Q1771 1494 1776.0 1515.5Q1781 1537 1787.5 1560.0Q1794 1583 1800.0 1605.0Q1806 1627 1811.0 1645.5Q1816 1664 1819 1675Q1825 1697 1842.5 1711.0Q1860 1725 1883 1725Q1904 1725 1922 1712L2050 1619Q2077 1600 2077 1566Q2077 1549 2068.5 1534.0Q2060 1519 2046 1510L1864 1397Q1847 1387 1830 1387Q1804 1387 1784.5 1406.0Q1765 1425 1765 1451ZM934 1386Q917 1386 900 1396L718 1510Q704 1519 695.5 1534.0Q687 1549 687 1566Q687 1582 694.5 1596.5Q702 1611 715 1620L842 1713Q858 1725 881 1725Q905 1725 922.0 1711.5Q939 1698 945 1675Q949 1658 958.0 1626.0Q967 1594 976.0 1560.0Q985 1526 992.0 1495.5Q999 1465 999 1451Q999 1425 979.5 1405.5Q960 1386 934 1386ZM744 567Q744 536 721 518L557 380Q539 365 515 365Q493 365 476.5 377.5Q460 390 452 410Q447 422 438.5 446.5Q430 471 421.5 497.0Q413 523 406.5 546.5Q400 570 400 581Q400 609 420.0 628.0Q440 647 467 647Q521 647 576.0 642.0Q631 637 685 632Q711 630 727.5 611.5Q744 593 744 567ZM1395 95Q1416 95 1431.0 84.5Q1446 74 1454 55Q1460 41 1474.0 8.5Q1488 -24 1503.0 -59.5Q1518 -95 1529.0 -126.0Q1540 -157 1540 -168Q1540 -195 1520.5 -214.5Q1501 -234 1474 -234H1316Q1289 -234 1269.5 -215.0Q1250 -196 1250 -169Q1250 -158 1261.0 -126.5Q1272 -95 1286.5 -59.5Q1301 -24 1315.0 8.5Q1329 41 1335 55Q1343 73 1359.0 84.0Q1375 95 1395 95ZM2197 1061Q2197 1029 2184.5 1000.0Q2172 971 2150 948L1928 719Q1905 696 1893.5 666.0Q1882 636 1882 604Q1882 597 1882.5 590.5Q1883 584 1884 578L1935 263Q1936 256 1936.5 249.0Q1937 242 1937 235Q1937 201 1924.0 171.5Q1911 142 1888.5 120.0Q1866 98 1836.0 85.0Q1806 72 1773 72Q1753 72 1732.5 77.5Q1712 83 1694 93L1450 229Q1412 250 1370 250Q1350 250 1329.5 244.5Q1309 239 1291 229L1046 93Q1028 83 1007.5 77.5Q987 72 967 72Q934 72 904.0 85.0Q874 98 851.5 120.0Q829 142 816.0 171.5Q803 201 803 235Q803 242 803.5 249.0Q804 256 805 263L856 578Q857 584 857.5 590.5Q858 597 858 604Q858 636 846.5 666.0Q835 696 812 719L590 948Q567 971 555.0 1000.5Q543 1030 543 1062Q543 1093 553.5 1120.5Q564 1148 582.5 1169.5Q601 1191 627.0 1205.5Q653 1220 683 1225L974 1270Q1014 1276 1047.5 1301.0Q1081 1326 1098 1363L1222 1630Q1242 1674 1282.0 1699.5Q1322 1725 1370 1725Q1419 1725 1458.0 1700.0Q1497 1675 1518 1630L1643 1363Q1661 1325 1692.5 1301.0Q1724 1277 1766 1270L2057 1225Q2087 1220 2113.0 1205.5Q2139 1191 2157.5 1169.0Q2176 1147 2186.5 1119.5Q2197 1092 2197 1061Z" style="fill:#fcd53f;stroke:none" transform="scale(1,-1) translate(0,-256)" /></svg>