<?xml version="1.0" encoding="utf-8" ?>
<svg baseProfile="full" height="256" version="1.1" width="256" xmlns="http://www.w3.org/2000/svg" xmlns:ev="http://www.w3.org/2001/xml-events" xmlns:xlink="http://www.w3.org/1999/xlink"><defs /><path d="M1765 360Q1765 389 1786.5 410.0Q1808 431 1837 431Q1912 431 1977.5 403.0Q2043 375 2091.5 326.0Q2140 277 2168.5 212.0Q2197 147 2197 72Q2197 43 2175.5 21.5Q2154 0 2125 0Q2095 0 2074.0 21.0Q2053 42 2053 72Q2053 117 2036.0 156.0Q2019 195 1989.5 224.5Q1960 254 1921.0 271.0Q1882 288 1837 288Q1807 288 1786.0 309.0Q1765 330 1765 360Z" style="fill:#83cbff;stroke:none" transform="scale(1,-1) translate(0,-256)" /></svg>