<?xml version="1.0" encoding="utf-8" ?>
<svg baseProfile="full" height="256" version="1.1" width="256" xmlns="http://www.w3.org/2000/svg" xmlns:ev="http://www.w3.org/2001/xml-events" xmlns:xlink="http://www.w3.org/1999/xlink"><defs /><path d="M1909 1653Q1998 1653 2076.5 1619.0Q2155 1585 2213.5 1526.5Q2272 1468 2306.0 1389.5Q2340 1311 2340 1222Q2340 1192 2319.0 1171.0Q2298 1150 2268 1150Q2239 1150 2218.0 1171.5Q2197 1193 2197 1222Q2197 1282 2174.5 1334.5Q2152 1387 2113.0 1426.0Q2074 1465 2021.5 1487.5Q1969 1510 1909 1510Q1880 1510 1858.5 1531.0Q1837 1552 1837 1581Q1837 1611 1858.0 1632.0Q1879 1653 1909 1653ZM1047 288Q1047 228 1024.5 175.5Q1002 123 963.0 84.0Q924 45 871.5 22.5Q819 0 759 0Q729 0 708.0 21.0Q687 42 687 72Q687 102 708.0 123.0Q729 144 759 144Q789 144 815.0 155.5Q841 167 860.5 186.5Q880 206 891.5 232.0Q903 258 903 288Q903 317 924.5 338.5Q946 360 975 360Q1004 360 1025.5 338.5Q1047 317 1047 288Z" style="fill:#aeddff;stroke:none" transform="scale(1,-1) translate(0,-256)" /></svg>