<?xml version="1.0" encoding="utf-8" ?>
<svg baseProfile="full" height="256" version="1.1" width="256" xmlns="http://www.w3.org/2000/svg" xmlns:ev="http://www.w3.org/2001/xml-events" xmlns:xlink="http://www.w3.org/1999/xlink"><defs /><path d="M1416 647Q1428 647 1439 644L1981 494Q2046 476 2099.0 438.5Q2152 401 2189.5 350.0Q2227 299 2247.5 237.5Q2268 176 2268 109Q2268 26 2236.5 -46.0Q2205 -118 2151.0 -172.0Q2097 -226 2024.0 -257.0Q1951 -288 1869 -288Q1800 -288 1738.5 -266.5Q1677 -245 1626.5 -206.0Q1576 -167 1539.5 -112.5Q1503 -58 1485 8L1337 542Q1334 552 1334 565Q1334 599 1358.0 623.0Q1382 647 1416 647Z" style="fill:#00a6ed;stroke:none" transform="scale(1,-1) translate(0,-256)" /></svg>