<?xml version="1.0" encoding="utf-8" ?>
<svg baseProfile="full" height="256" version="1.1" width="256" xmlns="http://www.w3.org/2000/svg" xmlns:ev="http://www.w3.org/2001/xml-events" xmlns:xlink="http://www.w3.org/1999/xlink"><defs /><path d="M1925 1726Q2022 1726 2110.0 1690.0Q2198 1654 2265.0 1591.5Q2332 1529 2372.0 1443.5Q2412 1358 2412 1259Q2412 1159 2372.5 1073.5Q2333 988 2266.5 925.0Q2200 862 2111.5 826.5Q2023 791 1925 791Q1862 791 1801.5 807.5Q1741 824 1685 854L1097 1174Q1074 1187 1060.5 1209.5Q1047 1232 1047 1258Q1047 1284 1060.5 1306.5Q1074 1329 1097 1342L1693 1666Q1747 1695 1805.5 1710.5Q1864 1726 1925 1726ZM1119 287Q1119 332 1107.0 375.5Q1095 419 1073 458L823 897Q813 914 796.0 924.0Q779 934 759 934Q739 934 721.5 924.0Q704 914 694 897L448 465Q425 424 412.5 379.0Q400 334 400 287Q400 213 428.0 147.5Q456 82 505.0 33.0Q554 -16 619.5 -44.0Q685 -72 759 -72Q833 -72 898.5 -43.5Q964 -15 1013.0 33.5Q1062 82 1090.5 147.5Q1119 213 1119 287Z" style="fill:#26c9fc;stroke:none" transform="scale(1,-1) translate(0,-256)" /></svg>