<?xml version="1.0" encoding="utf-8" ?>
<svg baseProfile="full" height="256" version="1.1" width="256" xmlns="http://www.w3.org/2000/svg" xmlns:ev="http://www.w3.org/2001/xml-events" xmlns:xlink="http://www.w3.org/1999/xlink"><defs /><path d="M508 1044Q508 1066 515.5 1091.5Q523 1117 534.0 1142.5Q545 1168 557.5 1192.5Q570 1217 579 1237Q603 1291 640.5 1334.0Q678 1377 724.5 1407.5Q771 1438 825.5 1454.5Q880 1471 939 1471H1010Q1069 1471 1123.0 1454.5Q1177 1438 1223.5 1407.5Q1270 1377 1307.5 1334.0Q1345 1291 1369 1238Q1378 1218 1390.5 1193.5Q1403 1169 1414.5 1143.0Q1426 1117 1434.0 1091.5Q1442 1066 1442 1044Q1442 1012 1431.0 987.0Q1420 962 1407 934Q1427 936 1443 933Q1651 902 1796.0 786.0Q1941 670 2013 473Q2027 435 2039.5 386.5Q2052 338 2053 297Q2054 257 2053.5 218.0Q2053 179 2053 139Q2090 142 2120.5 160.0Q2151 178 2172.0 205.0Q2193 232 2204.5 266.0Q2216 300 2216 336Q2216 401 2197.5 453.0Q2179 505 2148.0 548.5Q2117 592 2078.0 629.5Q2039 667 1998.5 703.5Q1958 740 1919.0 777.0Q1880 814 1849.0 857.0Q1818 900 1799.5 951.0Q1781 1002 1781 1065Q1781 1128 1803.0 1181.0Q1825 1234 1864.0 1273.0Q1903 1312 1956.0 1334.0Q2009 1356 2072 1356Q2111 1356 2149.5 1346.5Q2188 1337 2223.0 1318.0Q2258 1299 2287.0 1272.0Q2316 1245 2335 1210Q2349 1185 2349 1159Q2349 1139 2341.5 1121.0Q2334 1103 2320.5 1089.5Q2307 1076 2289.0 1068.0Q2271 1060 2251 1060Q2216 1060 2198.0 1075.5Q2180 1091 2165.0 1109.5Q2150 1128 2130.5 1143.5Q2111 1159 2074 1159Q2030 1159 2004.5 1134.5Q1979 1110 1979 1065Q1979 1016 2011.0 973.0Q2043 930 2091.5 885.5Q2140 841 2196.0 790.0Q2252 739 2300.5 674.0Q2349 609 2381.0 526.0Q2413 443 2413 333Q2413 256 2386.0 186.5Q2359 117 2311.0 63.5Q2263 10 2197.0 -23.0Q2131 -56 2053 -59Q2053 -108 2036.0 -149.5Q2019 -191 1988.5 -221.5Q1958 -252 1916.5 -269.5Q1875 -287 1826 -287H1011Q995 -287 985.5 -276.5Q976 -266 976 -251Q976 -228 981.5 -202.5Q987 -177 994 -154Q1011 -93 1043.0 -38.0Q1075 17 1118.5 62.5Q1162 108 1216.0 141.0Q1270 174 1332 190L1107 427Q1020 385 948.5 312.5Q877 240 826.5 150.5Q776 61 748.5 -38.0Q721 -137 721 -231Q721 -245 721.5 -259.0Q722 -273 723 -287H472Q460 -287 449.0 -276.0Q438 -265 429.5 -250.0Q421 -235 416.0 -219.0Q411 -203 411 -193Q411 -71 442.0 45.5Q473 162 530.0 267.5Q587 373 666.5 464.5Q746 556 843 628Q766 647 702.0 695.0Q638 743 599 812Q589 829 582.5 846.5Q576 864 568 881Q559 900 548.5 920.0Q538 940 529.0 960.0Q520 980 514.0 1001.0Q508 1022 508 1044Z" style="fill:#6d4534;stroke:none" transform="scale(1,-1) translate(0,-256)" /></svg>