<?xml version="1.0" encoding="utf-8" ?>
<svg baseProfile="full" height="256" version="1.1" width="256" xmlns="http://www.w3.org/2000/svg" xmlns:ev="http://www.w3.org/2001/xml-events" xmlns:xlink="http://www.w3.org/1999/xlink"><defs /><path d="M654 1188Q654 1221 666.5 1250.0Q679 1279 700.5 1301.0Q722 1323 751.0 1335.5Q780 1348 813 1348H1135Q1170 1348 1199.5 1335.0Q1229 1322 1250.0 1299.5Q1271 1277 1283.0 1247.0Q1295 1217 1295 1183Q1295 1141 1275.5 1105.5Q1256 1070 1221 1048Q1224 1028 1224 1008Q1224 956 1204.5 910.5Q1185 865 1151.0 831.0Q1117 797 1071.5 777.5Q1026 758 974 758Q923 758 877.5 778.0Q832 798 798.0 832.0Q764 866 744.5 911.5Q725 957 725 1008Q725 1028 728 1048Q690 1071 672.0 1107.5Q654 1144 654 1188ZM547 1079Q547 1164 582 1242Q551 1233 525.0 1215.5Q499 1198 480.5 1173.5Q462 1149 452.0 1119.5Q442 1090 442 1058Q442 1028 451.0 1000.0Q460 972 476.5 948.5Q493 925 516.5 906.5Q540 888 568 878Q547 941 547 1008ZM1402 1008Q1402 940 1380 878Q1409 888 1432.5 906.0Q1456 924 1473.0 947.5Q1490 971 1499.5 999.5Q1509 1028 1509 1058Q1509 1091 1498.5 1120.5Q1488 1150 1469.5 1174.5Q1451 1199 1424.5 1216.5Q1398 1234 1367 1242Q1385 1204 1393.5 1162.5Q1402 1121 1402 1079ZM651 -108Q614 -108 581.5 -122.0Q549 -136 524.5 -160.5Q500 -185 486.0 -217.5Q472 -250 472 -287H831Q831 -250 817.0 -217.5Q803 -185 778.5 -160.5Q754 -136 721.0 -122.0Q688 -108 651 -108ZM1658 -108Q1621 -108 1588.0 -122.0Q1555 -136 1530.5 -160.5Q1506 -185 1492.0 -217.5Q1478 -250 1478 -287H1837Q1837 -250 1823.0 -217.5Q1809 -185 1784.5 -160.5Q1760 -136 1727.5 -122.0Q1695 -108 1658 -108Z" style="fill:#e39d89;stroke:none" transform="scale(1,-1) translate(0,-256)" /></svg>