<?xml version="1.0" encoding="utf-8" ?>
<svg baseProfile="full" height="256" version="1.1" width="256" xmlns="http://www.w3.org/2000/svg" xmlns:ev="http://www.w3.org/2001/xml-events" xmlns:xlink="http://www.w3.org/1999/xlink"><defs /><path d="M832 1188Q832 1202 843.0 1212.5Q854 1223 868 1223Q882 1223 892.5 1212.5Q903 1202 903 1188V1114Q903 1100 892.5 1089.0Q882 1078 868 1078Q853 1078 842.5 1088.5Q832 1099 832 1114ZM935 1013Q943 1013 948.0 1018.0Q953 1023 953 1031Q953 1039 948.0 1044.0Q943 1049 935 1049Q927 1049 922.5 1043.5Q918 1038 918 1031Q918 1024 922.5 1018.5Q927 1013 935 1013ZM1013 1013Q1021 1013 1026.0 1018.0Q1031 1023 1031 1031Q1031 1039 1026.0 1044.0Q1021 1049 1013 1049Q1005 1049 1000.0 1044.0Q995 1039 995 1031Q995 1023 1000.0 1018.0Q1005 1013 1013 1013ZM1083 1223Q1069 1223 1058.5 1212.5Q1048 1202 1048 1188V1114Q1048 1100 1058.5 1089.0Q1069 1078 1083 1078Q1098 1078 1108.0 1088.5Q1118 1099 1118 1114V1188Q1118 1202 1107.5 1212.5Q1097 1223 1083 1223Z" style="fill:#1c1c1c;stroke:none" transform="scale(1,-1) translate(0,-256)" /></svg>