<?xml version="1.0" encoding="utf-8" ?>
<svg baseProfile="full" height="256" version="1.1" width="256" xmlns="http://www.w3.org/2000/svg" xmlns:ev="http://www.w3.org/2001/xml-events" xmlns:xlink="http://www.w3.org/1999/xlink"><defs /><path d="M1586 1141Q1612 1141 1630 1123L1774 979Q1792 961 1792 934Q1792 908 1773.5 890.0Q1755 872 1729 872Q1703 872 1685 890L1541 1034Q1523 1052 1523 1078Q1523 1105 1541.0 1123.0Q1559 1141 1586 1141ZM1406 962Q1431 962 1450 943L1594 799Q1613 780 1613 755Q1613 729 1594.5 710.5Q1576 692 1550 692Q1538 692 1526.0 696.5Q1514 701 1505 710L1361 854Q1352 863 1347.5 875.0Q1343 887 1343 899Q1343 925 1361.5 943.5Q1380 962 1406 962ZM1226 782Q1252 782 1271 763L1414 620Q1433 601 1433 575Q1433 549 1414.5 530.5Q1396 512 1370 512Q1345 512 1326 531L1182 674Q1163 693 1163 719Q1163 745 1181.5 763.5Q1200 782 1226 782ZM1046 602Q1073 602 1091 584L1235 440Q1253 422 1253 395Q1253 369 1234.5 350.5Q1216 332 1190 332Q1165 332 1146 351L1002 495Q984 513 984 539Q984 565 1002.0 583.5Q1020 602 1046 602Z" style="fill:#ffffff;stroke:none" transform="scale(1,-1) translate(0,-256)" /></svg>