<?xml version="1.0" encoding="utf-8" ?>
<svg baseProfile="full" height="256" version="1.1" width="256" xmlns="http://www.w3.org/2000/svg" xmlns:ev="http://www.w3.org/2001/xml-events" xmlns:xlink="http://www.w3.org/1999/xlink"><defs /><path d="M2412 1195Q2412 992 2359.0 803.0Q2306 614 2209.5 449.5Q2113 285 1977.5 149.0Q1842 13 1677.5 -83.5Q1513 -180 1324.5 -233.5Q1136 -287 933 -287Q872 -287 810.5 -282.5Q749 -278 689 -267Q580 -247 509.5 -177.0Q439 -107 419 2Q408 61 404.0 122.0Q400 183 400 243Q400 446 453.0 635.0Q506 824 602.5 988.5Q699 1153 834.5 1289.0Q970 1425 1134.5 1521.5Q1299 1618 1487.5 1671.5Q1676 1725 1879 1725Q1940 1725 2001.5 1720.5Q2063 1716 2123 1705Q2231 1685 2302.0 1614.5Q2373 1544 2393 1436Q2404 1377 2408.0 1316.0Q2412 1255 2412 1195Z" style="fill:#6d4534;stroke:none" transform="scale(1,-1) translate(0,-256)" /></svg>