<?xml version="1.0" encoding="utf-8" ?>
<svg baseProfile="full" height="256" version="1.1" width="256" xmlns="http://www.w3.org/2000/svg" xmlns:ev="http://www.w3.org/2001/xml-events" xmlns:xlink="http://www.w3.org/1999/xlink"><defs /><path d="M1857 1311Q1865 1315 1878.0 1323.5Q1891 1332 1905.0 1340.0Q1919 1348 1932.0 1354.0Q1945 1360 1953 1360Q1969 1360 1980.5 1348.5Q1992 1337 1992 1321Q1992 1295 1983.5 1263.0Q1975 1231 1970 1206Q1959 1150 1946.5 1095.5Q1934 1041 1922 986Q1915 954 1909.0 919.5Q1903 885 1893 853Q1888 839 1878.5 830.5Q1869 822 1854 822Q1850 822 1817.5 831.5Q1785 841 1737.0 855.5Q1689 870 1633.0 887.5Q1577 905 1527.0 921.0Q1477 937 1440.5 949.0Q1404 961 1394 965Q1381 970 1373.5 980.0Q1366 990 1366 1004Q1366 1026 1386 1038L1476 1091L1201 1563Q1193 1577 1179.0 1585.5Q1165 1594 1148 1594Q1132 1594 1117.0 1586.5Q1102 1579 1094 1565Q1120 1607 1163.0 1630.0Q1206 1653 1254 1653H1549Q1600 1653 1644.0 1628.0Q1688 1603 1714 1558ZM938 901Q934 901 902.0 890.0Q870 879 822.5 862.5Q775 846 720.0 826.0Q665 806 615.5 788.0Q566 770 529.5 756.0Q493 742 483 738Q471 733 463.5 724.0Q456 715 456 701Q456 690 462.0 680.0Q468 670 478 665L554 625L422 372Q400 330 400 283Q400 228 429 182L588 -68Q615 -110 657.0 -133.0Q699 -156 749 -156Q723 -156 704.0 -137.5Q685 -119 685 -93Q685 -77 692 -64L947 421Q955 417 970.5 408.0Q986 399 1003.0 390.0Q1020 381 1035.0 374.5Q1050 368 1058 368Q1074 368 1085.5 380.0Q1097 392 1097 408Q1097 413 1089.0 446.5Q1081 480 1068.5 528.0Q1056 576 1041.5 632.0Q1027 688 1013.5 738.0Q1000 788 989.5 825.0Q979 862 976 872Q966 901 938 901ZM2390 383Q2397 370 2397 354Q2397 328 2378.0 309.5Q2359 291 2333 291L1786 293L1787 398Q1787 414 1775.0 426.0Q1763 438 1747 438Q1733 438 1720 427L1372 112Q1358 100 1358 83Q1358 75 1362.0 67.0Q1366 59 1372 53L1718 -264Q1728 -274 1745 -274Q1762 -274 1773.5 -262.5Q1785 -251 1785 -234V-148L2071 -149Q2122 -149 2166.0 -124.0Q2210 -99 2236 -55L2386 200Q2412 244 2412 295Q2412 341 2390 383Z" style="fill:#00d26a;stroke:none" transform="scale(1,-1) translate(0,-256)" /></svg>