<?xml version="1.0" encoding="utf-8" ?>
<svg baseProfile="full" height="256" version="1.1" width="256" xmlns="http://www.w3.org/2000/svg" xmlns:ev="http://www.w3.org/2001/xml-events" xmlns:xlink="http://www.w3.org/1999/xlink"><defs /><path d="M1179 1613 1432 1274 1201 908Q1190 891 1172.0 881.0Q1154 871 1134 871Q1110 871 1091 883L853 1033Q836 1044 825.5 1062.0Q815 1080 815 1100Q815 1122 828 1143L1100 1575Q1100 1575 1105.5 1579.5Q1111 1584 1118.0 1589.5Q1125 1595 1130.5 1600.0Q1136 1605 1138 1606ZM1968 237 2389 285 2403 324Q2403 327 2402.0 334.5Q2401 342 2399.5 350.5Q2398 359 2397.0 366.0Q2396 373 2396 373L2161 826Q2151 846 2131.5 857.5Q2112 869 2090 869Q2069 869 2053 860L1802 730Q1782 720 1770.5 700.5Q1759 681 1759 659Q1759 638 1768 622ZM813 286 661 -109 688 -140Q690 -141 697.5 -143.5Q705 -146 713.0 -149.0Q721 -152 727.5 -154.0Q734 -156 734 -156H1244Q1277 -156 1300.5 -132.5Q1324 -109 1324 -76V206Q1324 239 1300.5 262.5Q1277 286 1244 286Z" style="fill:#008463;stroke:none" transform="scale(1,-1) translate(0,-256)" /></svg>