<?xml version="1.0" encoding="utf-8" ?>
<svg baseProfile="full" height="256" version="1.1" width="256" xmlns="http://www.w3.org/2000/svg" xmlns:ev="http://www.w3.org/2001/xml-events" xmlns:xlink="http://www.w3.org/1999/xlink"><defs /><path d="M2341 1110Q2341 1096 2331.0 1087.0Q2321 1078 2307 1078Q2297 1078 2290 1082L1423 1574Q1416 1578 1406 1578Q1397 1578 1390 1574L522 1082Q515 1078 505 1078Q491 1078 481.5 1087.0Q472 1096 472 1110Q472 1128 488 1138L1388 1649Q1395 1653 1406 1653Q1417 1653 1424 1649L2324 1138Q2341 1128 2341 1110ZM975 935H616V922Q616 898 633.0 880.5Q650 863 674 863H917Q941 863 958.0 880.5Q975 898 975 922ZM1381 935H1022V922Q1022 897 1039.0 880.0Q1056 863 1081 863H1323Q1347 863 1364.0 880.5Q1381 898 1381 922ZM1430 935H1789V922Q1789 897 1772.0 880.0Q1755 863 1730 863H1488Q1464 863 1447.0 880.5Q1430 898 1430 922ZM2195 935H1837V922Q1837 898 1854.0 880.5Q1871 863 1895 863H2137Q2161 863 2178.0 880.5Q2195 898 2195 922ZM2195 -70H1836V-57Q1836 -33 1853.0 -15.5Q1870 2 1894 2H2136Q2161 2 2178.0 -15.0Q2195 -32 2195 -57ZM1430 -70H1789V-57Q1789 -32 1772.0 -15.0Q1755 2 1730 2H1488Q1464 2 1447.0 -15.5Q1430 -33 1430 -57ZM1381 -70H1022V-57Q1022 -32 1039.0 -15.0Q1056 2 1081 2H1323Q1347 2 1364.0 -15.5Q1381 -33 1381 -57ZM616 -70H974V-57Q974 -33 957.0 -15.5Q940 2 916 2H674Q649 2 632.5 -15.0Q616 -32 616 -57Z" style="fill:#d3d3d3;stroke:none" transform="scale(1,-1) translate(0,-256)" /></svg>