<?xml version="1.0" encoding="utf-8" ?>
<svg baseProfile="full" height="256" version="1.1" width="256" xmlns="http://www.w3.org/2000/svg" xmlns:ev="http://www.w3.org/2001/xml-events" xmlns:xlink="http://www.w3.org/1999/xlink"><defs /><path d="M1909 1358Q1909 1388 1930.0 1409.0Q1951 1430 1981 1430Q1999 1430 2017 1420Q2108 1369 2181.0 1294.5Q2254 1220 2305.5 1130.5Q2357 1041 2384.5 940.0Q2412 839 2412 736Q2412 632 2384.5 531.0Q2357 430 2306.0 340.5Q2255 251 2181.5 176.5Q2108 102 2017 51Q1999 41 1981 41Q1952 41 1930.5 62.0Q1909 83 1909 113Q1909 134 1918.5 149.0Q1928 164 1945 175Q1981 200 2014.0 223.5Q2047 247 2079 278Q2171 369 2219.5 487.5Q2268 606 2268 735Q2268 860 2223.5 973.5Q2179 1087 2093 1178Q2058 1214 2022.0 1241.0Q1986 1268 1945 1296Q1928 1307 1918.5 1322.0Q1909 1337 1909 1358ZM2119 736Q2119 636 2081.0 544.0Q2043 452 1972 380Q1958 366 1944.5 356.5Q1931 347 1910 347Q1879 347 1858.0 368.0Q1837 389 1837 419Q1837 449 1860 472Q1916 529 1945.5 592.0Q1975 655 1975 736Q1975 816 1945.5 879.5Q1916 943 1860 999Q1837 1022 1837 1052Q1837 1082 1858.0 1103.0Q1879 1124 1909 1124Q1935 1124 1953.5 1107.5Q1972 1091 1989 1073Q2052 1004 2085.5 916.5Q2119 829 2119 736Z" style="fill:#83cbff;stroke:none" transform="scale(1,-1) translate(0,-256)" /></svg>