<?xml version="1.0" encoding="utf-8" ?>
<svg baseProfile="full" height="256" version="1.1" width="256" xmlns="http://www.w3.org/2000/svg" xmlns:ev="http://www.w3.org/2001/xml-events" xmlns:xlink="http://www.w3.org/1999/xlink"><defs /><path d="M1105 1657Q999 1657 924 1582L543 1201Q507 1165 487.5 1118.0Q468 1071 468 1020Q468 967 488.0 920.5Q508 874 543.0 839.0Q578 804 624.5 784.0Q671 764 724 764Q775 764 822.0 783.5Q869 803 905 839L1286 1220Q1322 1256 1341.5 1303.0Q1361 1350 1361 1401Q1361 1454 1341.0 1500.5Q1321 1547 1286.0 1582.0Q1251 1617 1204.5 1637.0Q1158 1657 1105 1657ZM1105 1725Q1172 1725 1231.0 1699.5Q1290 1674 1334.0 1630.0Q1378 1586 1403.5 1527.0Q1429 1468 1429 1401Q1429 1336 1404.5 1277.0Q1380 1218 1334 1172L953 791Q907 745 848.0 720.5Q789 696 724 696Q657 696 598.0 721.5Q539 747 495.0 791.0Q451 835 425.5 894.0Q400 953 400 1020Q400 1086 424.0 1144.0Q448 1202 495 1249L876 1630Q922 1676 981.0 1700.5Q1040 1725 1105 1725Z" style="fill:#ffdea7;stroke:none" transform="scale(1,-1) translate(0,-256)" /></svg>