<?xml version="1.0" encoding="utf-8" ?>
<svg baseProfile="full" height="256" version="1.1" width="256" xmlns="http://www.w3.org/2000/svg" xmlns:ev="http://www.w3.org/2001/xml-events" xmlns:xlink="http://www.w3.org/1999/xlink"><defs /><path d="M2410 305Q2410 201 2376.0 107.0Q2342 13 2280.5 -63.5Q2219 -140 2134.0 -193.5Q2049 -247 1948 -269Q1959 -122 1968.5 25.5Q1978 173 1989.0 320.0Q2000 467 2014.5 614.0Q2029 761 2051 907Q2098 860 2143.0 817.5Q2188 775 2228.0 731.5Q2268 688 2301.0 643.0Q2334 598 2358.5 546.5Q2383 495 2396.5 435.5Q2410 376 2410 305Z" style="fill:#9b9b9b;stroke:none" transform="scale(1,-1) translate(0,-256)" /></svg>