<?xml version="1.0" encoding="utf-8" ?>
<svg baseProfile="full" height="256" version="1.1" width="256" xmlns="http://www.w3.org/2000/svg" xmlns:ev="http://www.w3.org/2001/xml-events" xmlns:xlink="http://www.w3.org/1999/xlink"><defs /><path d="M1640 1318Q1743 1215 1846.0 1113.5Q1949 1012 2051 907Q2052 906 2056.5 898.0Q2061 890 2066.0 880.5Q2071 871 2075.0 862.5Q2079 854 2079 853Q2132 746 2158.5 630.0Q2185 514 2185 394Q2185 211 2124.0 41.5Q2063 -128 1948 -269Q1917 -276 1886.0 -279.0Q1855 -282 1823 -282Q1705 -282 1598.0 -238.0Q1491 -194 1407 -110L809 488Q892 405 999.0 360.0Q1106 315 1224 315Q1305 315 1380.0 336.0Q1455 357 1520.5 395.5Q1586 434 1639.5 487.5Q1693 541 1731.5 606.5Q1770 672 1791.0 747.0Q1812 822 1812 903Q1812 1021 1767.5 1128.0Q1723 1235 1640 1318Z" style="fill:#d3d3d3;stroke:none" transform="scale(1,-1) translate(0,-256)" /></svg>