<?xml version="1.0" encoding="utf-8" ?>
<svg baseProfile="full" height="256" version="1.1" width="256" xmlns="http://www.w3.org/2000/svg" xmlns:ev="http://www.w3.org/2001/xml-events" xmlns:xlink="http://www.w3.org/1999/xlink"><defs /><path d="M483 915Q469 939 462.0 966.0Q455 993 455 1021Q455 1069 472.0 1100.5Q489 1132 509.0 1160.5Q529 1189 546.0 1221.5Q563 1254 563 1305Q563 1318 561.5 1330.5Q560 1343 560 1357Q560 1400 576.0 1437.5Q592 1475 620.0 1503.0Q648 1531 685.5 1547.0Q723 1563 766 1563Q779 1563 791.0 1562.0Q803 1561 816 1561Q851 1561 876.5 1569.0Q902 1577 923.0 1589.0Q944 1601 962.5 1615.0Q981 1629 1001.5 1641.0Q1022 1653 1046.0 1661.0Q1070 1669 1102 1669Q1159 1669 1208 1640Z" style="fill:#44911b;stroke:none" transform="scale(1,-1) translate(0,-256)" /></svg>