<?xml version="1.0" encoding="utf-8" ?>
<svg baseProfile="full" height="256" version="1.1" width="256" xmlns="http://www.w3.org/2000/svg" xmlns:ev="http://www.w3.org/2001/xml-events" xmlns:xlink="http://www.w3.org/1999/xlink"><defs /><path d="M516 860Q479 897 479 949Q479 1001 512.0 1034.5Q545 1068 595 1075Q617 1078 622 1103Q630 1152 658.0 1181.0Q686 1210 736 1217Q761 1220 764 1245Q771 1295 800.0 1323.0Q829 1351 878 1359Q903 1364 906 1387Q913 1435 943.0 1465.0Q973 1495 1021 1502Q1044 1505 1049 1530Q1057 1580 1089.5 1612.0Q1122 1644 1175 1644Q1200 1644 1223.5 1634.5Q1247 1625 1264 1607Z" style="fill:#fff478;stroke:none" transform="scale(1,-1) translate(0,-256)" /></svg>