<?xml version="1.0" encoding="utf-8" ?>
<svg baseProfile="full" height="256" version="1.1" width="256" xmlns="http://www.w3.org/2000/svg" xmlns:ev="http://www.w3.org/2001/xml-events" xmlns:xlink="http://www.w3.org/1999/xlink"><defs /><path d="M1402 1385Q1402 1351 1385 1320Q1379 1310 1372.5 1295.5Q1366 1281 1359.0 1266.5Q1352 1252 1344.5 1239.0Q1337 1226 1330 1219L950 835Q935 819 910.0 801.5Q885 784 856.5 769.0Q828 754 799.5 744.5Q771 735 749 735Q729 735 710.5 742.0Q692 749 678 764Q684 815 714.5 841.0Q745 867 793 876Q816 881 819 904Q823 927 831.5 946.0Q840 965 856 982Q872 998 889.5 1005.0Q907 1012 922.5 1016.0Q938 1020 948.5 1026.0Q959 1032 962 1047Q966 1070 973.5 1088.5Q981 1107 998 1124Q1014 1140 1032.0 1146.5Q1050 1153 1065.0 1157.5Q1080 1162 1091.0 1168.0Q1102 1174 1104 1189Q1110 1236 1141 1267Q1156 1282 1173.5 1288.5Q1191 1295 1206.5 1299.5Q1222 1304 1233.0 1310.5Q1244 1317 1246 1331Q1252 1378 1283 1409Q1297 1423 1318.0 1434.5Q1339 1446 1359 1446Q1371 1446 1379.0 1440.5Q1387 1435 1392.5 1426.0Q1398 1417 1400.0 1406.0Q1402 1395 1402 1385Z" style="fill:#6d4534;stroke:none" transform="scale(1,-1) translate(0,-256)" /></svg>