<?xml version="1.0" encoding="utf-8" ?>
<svg baseProfile="full" height="256" version="1.1" width="256" xmlns="http://www.w3.org/2000/svg" xmlns:ev="http://www.w3.org/2001/xml-events" xmlns:xlink="http://www.w3.org/1999/xlink"><defs /><path d="M686 1280Q686 1295 696.0 1307.0Q706 1319 722 1319Q738 1319 748.0 1307.0Q758 1295 758 1280V1222Q758 1207 748.0 1195.0Q738 1183 722 1183Q706 1183 696.0 1195.0Q686 1207 686 1222ZM472 1078H413Q400 1109 400 1137Q400 1140 400.0 1143.5Q400 1147 401 1150H472Q486 1150 497.0 1139.0Q508 1128 508 1114Q508 1100 497.0 1089.0Q486 1078 472 1078Z" style="fill:#1c1c1c;stroke:none" transform="scale(1,-1) translate(0,-256)" /></svg>