<?xml version="1.0" encoding="utf-8" ?>
<svg baseProfile="full" height="256" version="1.1" width="256" xmlns="http://www.w3.org/2000/svg" xmlns:ev="http://www.w3.org/2001/xml-events" xmlns:xlink="http://www.w3.org/1999/xlink"><defs /><path d="M1242 1510Q1288 1510 1331.0 1492.0Q1374 1474 1406.5 1443.5Q1439 1413 1458.5 1371.5Q1478 1330 1478 1282Q1478 1233 1460.0 1190.0Q1442 1147 1411.0 1115.0Q1380 1083 1337.5 1064.5Q1295 1046 1246 1046Q1214 1046 1182.5 1052.5Q1151 1059 1123.0 1073.0Q1095 1087 1071.0 1108.0Q1047 1129 1031 1158Q1028 1164 1028 1172Q1028 1194 1050.0 1199.5Q1072 1205 1104.5 1204.0Q1137 1203 1175.5 1199.5Q1214 1196 1246.5 1201.0Q1279 1206 1301.0 1223.0Q1323 1240 1323 1280Q1323 1296 1316.5 1309.5Q1310 1323 1298.5 1333.0Q1287 1343 1273.0 1349.0Q1259 1355 1244 1355H936Q904 1355 881.5 1377.0Q859 1399 859 1431Q859 1464 882.0 1487.0Q905 1510 938 1510H1242Z" style="fill:#e19747;stroke:none" transform="scale(1,-1) translate(0,-256)" /></svg>