<?xml version="1.0" encoding="utf-8" ?>
<svg baseProfile="full" height="256" version="1.1" width="256" xmlns="http://www.w3.org/2000/svg" xmlns:ev="http://www.w3.org/2001/xml-events" xmlns:xlink="http://www.w3.org/1999/xlink"><defs /><path d="M1112 1438Q1134 1416 1150 1386L1289 1109Q1306 1074 1338.0 1054.5Q1370 1035 1410 1035Q1420 1035 1429.5 1036.0Q1439 1037 1448 1040L1882 1165Q1914 1174 1948.0 1178.5Q1982 1183 2015 1183Q2097 1183 2169.5 1152.0Q2242 1121 2296.0 1067.5Q2350 1014 2381.0 941.5Q2412 869 2412 787Q2412 768 2412.0 744.0Q2412 720 2407.0 698.5Q2402 677 2387.5 662.0Q2373 647 2345 647Q2313 647 2290.5 666.0Q2268 685 2268 719V361Q2268 333 2290.5 307.5Q2313 282 2340.0 254.5Q2367 227 2389.5 196.0Q2412 165 2412 126V99H1941Q1908 99 1892.5 115.0Q1877 131 1871.5 155.0Q1866 179 1867.0 206.0Q1868 233 1868 254H1336Q1336 232 1337.0 205.0Q1338 178 1332.0 154.5Q1326 131 1310.5 115.0Q1295 99 1262 99H1048Q1015 99 999.5 115.0Q984 131 978.5 155.0Q973 179 974.0 206.0Q975 233 975 254H903Q858 254 819.0 271.0Q780 288 750.5 317.5Q721 347 704.0 386.0Q687 425 687 470V791H661Q637 791 615.5 800.0Q594 809 578.0 825.0Q562 841 552.5 862.5Q543 884 543 908Q543 912 543.0 931.0Q543 950 543.0 971.5Q543 993 543.0 1010.5Q543 1028 543 1029Q547 1049 551.5 1065.5Q556 1082 560.5 1097.5Q565 1113 570.0 1129.0Q575 1145 581 1165L658 1438Q635 1438 614.5 1445.0Q594 1452 578.0 1465.5Q562 1479 553.0 1498.0Q544 1517 544 1542Q544 1546 544.0 1550.0Q544 1554 545 1558Q552 1601 578.0 1621.0Q604 1641 638.0 1648.0Q672 1655 709.5 1653.0Q747 1651 779 1651Q799 1651 813.5 1662.5Q828 1674 846.0 1688.0Q864 1702 889.5 1713.5Q915 1725 958 1725Q991 1725 1020.0 1712.0Q1049 1699 1071.0 1677.5Q1093 1656 1105.5 1626.5Q1118 1597 1118 1564V1438Z" style="fill:#cdc4d6;stroke:none" transform="scale(1,-1) translate(0,-256)" /></svg>