<?xml version="1.0" encoding="utf-8" ?>
<svg baseProfile="full" height="256" version="1.1" width="256" xmlns="http://www.w3.org/2000/svg" xmlns:ev="http://www.w3.org/2001/xml-events" xmlns:xlink="http://www.w3.org/1999/xlink"><defs /><path d="M911 -163Q803 -163 710.0 -123.0Q617 -83 548.0 -13.5Q479 56 439.5 150.0Q400 244 400 351Q400 467 448.5 566.5Q497 666 586 740Q662 803 738.0 865.5Q814 928 890 991Q996 1079 1054.0 1201.0Q1112 1323 1112 1461V1569Q1112 1604 1136.5 1628.5Q1161 1653 1196 1653H1614Q1649 1653 1673.5 1628.5Q1698 1604 1698 1569V1461Q1698 1323 1756.0 1201.0Q1814 1079 1920 991Q1996 928 2072.0 865.5Q2148 803 2224 740Q2313 666 2361.5 566.5Q2410 467 2410 351Q2410 244 2370.5 150.0Q2331 56 2262.0 -13.5Q2193 -83 2100.0 -123.0Q2007 -163 1899 -163H1462Z" style="fill:#ffce7c;stroke:none" transform="scale(1,-1) translate(0,-256)" /></svg>