<?xml version="1.0" encoding="utf-8" ?>
<svg baseProfile="full" height="256" version="1.1" width="256" xmlns="http://www.w3.org/2000/svg" xmlns:ev="http://www.w3.org/2001/xml-events" xmlns:xlink="http://www.w3.org/1999/xlink"><defs /><path d="M1504 1410Q1504 1320 1526.5 1250.5Q1549 1181 1585.5 1124.5Q1622 1068 1669.0 1020.5Q1716 973 1765.0 927.5Q1814 882 1861.0 833.5Q1908 785 1944.5 727.0Q1981 669 2003.5 597.0Q2026 525 2026 432Q2026 350 2005.0 273.5Q1984 197 1946.0 131.0Q1908 65 1854.0 10.5Q1800 -44 1734.0 -83.0Q1668 -122 1592.0 -143.0Q1516 -164 1433 -164H1376Q1251 -164 1143.0 -117.5Q1035 -71 955.5 10.0Q876 91 830.0 199.5Q784 308 784 432Q784 525 806.5 597.0Q829 669 865.5 727.0Q902 785 948.5 833.0Q995 881 1043.5 927.0Q1092 973 1138.5 1020.0Q1185 1067 1221.5 1123.5Q1258 1180 1280.5 1249.0Q1303 1318 1303 1408V1653H1504Z" style="fill:#feefc2;stroke:none" transform="scale(1,-1) translate(0,-256)" /></svg>