<?xml version="1.0" encoding="utf-8" ?>
<svg baseProfile="full" height="256" version="1.1" width="256" xmlns="http://www.w3.org/2000/svg" xmlns:ev="http://www.w3.org/2001/xml-events" xmlns:xlink="http://www.w3.org/1999/xlink"><defs /><path d="M1050 1553Q1050 1587 1060.5 1618.5Q1071 1650 1091.0 1673.0Q1111 1696 1139.5 1710.0Q1168 1724 1205 1724Q1240 1724 1274.5 1713.5Q1309 1703 1333 1675V1552Q1303 1569 1269.0 1575.0Q1235 1581 1201 1581Q1159 1581 1120.5 1568.5Q1082 1556 1050 1528ZM1405 1674Q1429 1703 1463.5 1713.5Q1498 1724 1534 1724Q1571 1724 1599.5 1710.0Q1628 1696 1648.0 1673.0Q1668 1650 1678.5 1618.5Q1689 1587 1689 1553V1510H1688V1527Q1657 1556 1618.0 1568.5Q1579 1581 1537 1581Q1503 1581 1469.0 1575.0Q1435 1569 1405 1552Z" style="fill:#fdbb11;stroke:none" transform="scale(1,-1) translate(0,-256)" /></svg>