<?xml version="1.0" encoding="utf-8" ?>
<svg baseProfile="full" height="256" version="1.1" width="256" xmlns="http://www.w3.org/2000/svg" xmlns:ev="http://www.w3.org/2001/xml-events" xmlns:xlink="http://www.w3.org/1999/xlink"><defs /><path d="M759 685Q759 717 783 738Q789 743 798.5 751.0Q808 759 819.5 767.0Q831 775 841.5 781.0Q852 787 859 787Q867 787 871.5 783.5Q876 780 881 775Q901 755 919.5 731.0Q938 707 956 685L1101 513Q1161 442 1220.5 372.0Q1280 302 1337 230Q1344 222 1349.5 213.0Q1355 204 1355 193Q1355 182 1350.0 175.5Q1345 169 1337 162Q1317 143 1295.0 125.5Q1273 108 1251 90L1074 -59L905 -202Q885 -219 864.5 -237.0Q844 -255 823 -271Q815 -277 806.5 -282.0Q798 -287 787 -287Q773 -287 766.0 -277.5Q759 -268 759 -255ZM1981 685V-255Q1981 -268 1974.0 -277.5Q1967 -287 1953 -287Q1942 -287 1933.5 -282.0Q1925 -277 1917 -271Q1896 -255 1875.5 -237.0Q1855 -219 1835 -202L1666 -59L1489 90Q1467 108 1445.0 125.5Q1423 143 1403 162Q1395 169 1390.0 175.5Q1385 182 1385 193Q1385 204 1390.5 213.0Q1396 222 1403 230Q1460 302 1520.0 372.0Q1580 442 1640 513L1792 694Q1809 714 1825.0 735.5Q1841 757 1859 775Q1864 780 1868.5 783.5Q1873 787 1881 787Q1888 787 1898.5 781.0Q1909 775 1920.5 767.0Q1932 759 1941.5 751.0Q1951 743 1957 738Q1981 717 1981 685Z" style="fill:#803bff;stroke:none" transform="scale(1,-1) translate(0,-256)" /></svg>