<?xml version="1.0" encoding="utf-8" ?>
<svg baseProfile="full" height="256" version="1.1" width="256" xmlns="http://www.w3.org/2000/svg" xmlns:ev="http://www.w3.org/2001/xml-events" xmlns:xlink="http://www.w3.org/1999/xlink"><defs /><path d="M1405 208Q1427 186 1457 175L1882 759Q1843 793 1802.0 827.0Q1761 861 1725 898Q1708 915 1698.5 943.0Q1689 971 1689 995V1336Q1689 1370 1678.5 1401.0Q1668 1432 1648.0 1455.5Q1628 1479 1599.0 1492.5Q1570 1506 1534 1506Q1498 1506 1463.5 1495.5Q1429 1485 1405 1456ZM1333 1460V207Q1312 186 1282 175L857 759Q896 793 937.0 827.0Q978 861 1014 898Q1031 915 1040.5 943.0Q1050 971 1050 995V1338Q1050 1372 1060.5 1403.0Q1071 1434 1091.0 1457.5Q1111 1481 1140.0 1494.5Q1169 1508 1205 1508Q1240 1508 1274.5 1498.0Q1309 1488 1333 1460Z" style="fill:#ffc83d;stroke:none" transform="scale(1,-1) translate(0,-256)" /></svg>