<?xml version="1.0" encoding="utf-8" ?>
<svg baseProfile="full" height="256" version="1.1" width="256" xmlns="http://www.w3.org/2000/svg" xmlns:ev="http://www.w3.org/2001/xml-events" xmlns:xlink="http://www.w3.org/1999/xlink"><defs /><path d="M1374 1727Q1450 1727 1498.5 1697.0Q1547 1667 1575.0 1619.0Q1603 1571 1613.0 1510.0Q1623 1449 1623 1386Q1623 1308 1617.5 1231.5Q1612 1155 1607 1077V1074Q1616 1076 1625.5 1077.0Q1635 1078 1644 1078H1921Q1963 1078 2000.0 1062.0Q2037 1046 2065.0 1018.5Q2093 991 2109.0 954.0Q2125 917 2125 875Q2125 834 2112.0 795.5Q2099 757 2070 728Q2124 703 2160.5 655.0Q2197 607 2197 545Q2197 490 2172.0 444.0Q2147 398 2099 371Q2143 343 2170.0 299.5Q2197 256 2197 203Q2197 143 2167.5 94.5Q2138 46 2082 21Q2107 -5 2116.0 -39.0Q2125 -73 2125 -108Q2125 -153 2108.5 -186.5Q2092 -220 2064.5 -242.5Q2037 -265 2000.0 -276.5Q1963 -288 1921 -288H1644Q1578 -288 1512.0 -287.5Q1446 -287 1380 -287Q1208 -287 1067.0 -249.0Q926 -211 825.5 -130.0Q725 -49 670.0 78.0Q615 205 615 384Q615 451 622.5 515.5Q630 580 649.5 639.5Q669 699 702.0 753.5Q735 808 785 856Q817 887 853.5 912.5Q890 938 927 963Q978 997 1024.0 1032.0Q1070 1067 1104 1120Q1122 1149 1130.5 1195.0Q1139 1241 1141.0 1291.5Q1143 1342 1142.0 1390.0Q1141 1438 1141 1471Q1141 1525 1156.5 1571.5Q1172 1618 1201.5 1652.5Q1231 1687 1274.5 1707.0Q1318 1727 1374 1727Z" style="fill:#ffc83d;stroke:none" transform="scale(1,-1) translate(0,-256)" /></svg>