<?xml version="1.0" encoding="utf-8" ?>
<svg baseProfile="full" height="256" version="1.1" width="256" xmlns="http://www.w3.org/2000/svg" xmlns:ev="http://www.w3.org/2001/xml-events" xmlns:xlink="http://www.w3.org/1999/xlink"><defs /><path d="M552 1510H2260Q2291 1510 2319.0 1498.0Q2347 1486 2367.5 1465.0Q2388 1444 2400.0 1416.0Q2412 1388 2412 1357V691Q2412 659 2400.0 631.5Q2388 604 2367.5 583.0Q2347 562 2319.5 550.0Q2292 538 2260 538H552Q520 538 492.5 550.0Q465 562 444.5 583.0Q424 604 412.0 631.5Q400 659 400 691V1357Q400 1388 412.0 1416.0Q424 1444 444.5 1465.0Q465 1486 492.5 1498.0Q520 1510 552 1510ZM1226 360H1586Q1608 360 1627.5 351.5Q1647 343 1661.5 328.0Q1676 313 1684.5 293.5Q1693 274 1693 252V36Q1693 14 1684.5 -5.5Q1676 -25 1661.5 -40.0Q1647 -55 1627.5 -63.5Q1608 -72 1586 -72H1226Q1204 -72 1184.5 -63.5Q1165 -55 1150.0 -40.0Q1135 -25 1126.5 -5.5Q1118 14 1118 36V252Q1118 274 1126.5 293.5Q1135 313 1150.0 328.0Q1165 343 1184.5 351.5Q1204 360 1226 360Z" style="fill:#8d65c5;stroke:none" transform="scale(1,-1) translate(0,-256)" /></svg>