<?xml version="1.0" encoding="utf-8" ?>
<svg baseProfile="full" height="256" version="1.1" width="256" xmlns="http://www.w3.org/2000/svg" xmlns:ev="http://www.w3.org/2001/xml-events" xmlns:xlink="http://www.w3.org/1999/xlink"><defs /><path d="M2260 1400Q2278 1400 2291.5 1387.0Q2305 1374 2305 1356V692Q2305 674 2296.0 664.5Q2287 655 2274.0 651.0Q2261 647 2246.0 646.5Q2231 646 2218 646Q2213 646 2207.5 646.0Q2202 646 2197 647L1670 719Q1603 728 1538.5 741.5Q1474 755 1406 755Q1338 755 1273.5 741.5Q1209 728 1142 719L615 647Q610 646 604.5 646.0Q599 646 594 646Q581 646 566.0 646.5Q551 647 538.0 651.0Q525 655 516.0 664.5Q507 674 507 692V1356Q507 1374 520.5 1387.0Q534 1400 552 1400Z" style="fill:#321b41;stroke:none" transform="scale(1,-1) translate(0,-256)" /></svg>