<?xml version="1.0" encoding="utf-8" ?>
<svg baseProfile="full" height="256" version="1.1" width="256" xmlns="http://www.w3.org/2000/svg" xmlns:ev="http://www.w3.org/2001/xml-events" xmlns:xlink="http://www.w3.org/1999/xlink"><defs /><path d="M2141 1653Q2141 1549 2112.0 1456.0Q2083 1363 2029.0 1284.5Q1975 1206 1899.0 1144.0Q1823 1082 1730 1040Q1787 1002 1833.5 953.5Q1880 905 1915 846Q1978 865 2034.0 897.5Q2090 930 2138.0 972.5Q2186 1015 2224.5 1067.0Q2263 1119 2290 1179Q2304 1210 2311.0 1239.5Q2318 1269 2329 1300Q2334 1313 2342.5 1321.0Q2351 1329 2365 1329Q2379 1329 2389.5 1318.0Q2400 1307 2400 1292Q2400 1287 2399 1285Q2379 1196 2338.5 1117.0Q2298 1038 2240.0 972.5Q2182 907 2108.5 858.0Q2035 809 1948 781Q1968 736 1978.5 688.0Q1989 640 1992 591Q2069 559 2136.0 509.5Q2203 460 2256.0 397.0Q2309 334 2346.0 259.5Q2383 185 2399 103Q2399 101 2399.5 99.5Q2400 98 2400 96Q2400 81 2389.5 70.5Q2379 60 2364 60Q2350 60 2342.0 67.5Q2334 75 2329 88Q2320 114 2313.5 141.0Q2307 168 2296 194Q2253 300 2174.0 382.5Q2095 465 1992 513Q1986 439 1962.0 369.0Q1938 299 1896 237Q1954 190 1999.5 132.0Q2045 74 2076.5 8.0Q2108 -58 2124.5 -130.0Q2141 -202 2141 -277Q2141 -292 2130.5 -302.5Q2120 -313 2105 -313Q2090 -313 2079.5 -302.5Q2069 -292 2069 -277Q2069 -143 2012.5 -24.0Q1956 95 1853 180Q1770 85 1657.0 33.5Q1544 -18 1418 -18Q1292 -18 1179.0 33.5Q1066 85 983 180Q880 95 823.0 -24.0Q766 -143 766 -277Q766 -292 755.5 -302.5Q745 -313 730 -313Q715 -313 704.5 -302.5Q694 -292 694 -277Q694 -202 710.5 -130.0Q727 -58 758.5 8.0Q790 74 836.0 132.0Q882 190 940 237Q898 299 874.0 369.0Q850 439 845 513Q742 465 663.0 383.0Q584 301 540 195Q529 168 522.5 141.5Q516 115 507 88Q502 75 494.0 67.5Q486 60 472 60Q457 60 446.0 70.5Q435 81 435 96Q435 101 436 103Q455 186 491.0 260.5Q527 335 579.0 397.5Q631 460 697.5 509.5Q764 559 844 591Q850 690 888 781Q803 809 728.5 858.0Q654 907 595.0 973.0Q536 1039 495.0 1118.0Q454 1197 436 1285Q436 1287 435.5 1288.5Q435 1290 435 1292Q435 1307 446.0 1318.0Q457 1329 471 1329Q485 1329 493.5 1321.0Q502 1313 507 1300Q518 1269 525.0 1239.5Q532 1210 546 1179Q573 1119 611.0 1066.5Q649 1014 697.0 971.5Q745 929 801.5 897.0Q858 865 921 846Q956 905 1002.5 953.5Q1049 1002 1106 1040Q1013 1080 937.0 1142.5Q861 1205 807.0 1284.0Q753 1363 723.5 1456.5Q694 1550 694 1653Q694 1668 704.5 1678.5Q715 1689 730 1689Q745 1689 755.5 1678.5Q766 1668 766 1653Q766 1566 790.0 1485.5Q814 1405 859.0 1335.5Q904 1266 967.0 1210.5Q1030 1155 1108 1118L1185 1082L1192 1086Q1168 1120 1156.0 1159.5Q1144 1199 1144 1241Q1144 1315 1180.0 1378.0Q1216 1441 1280 1479V1555Q1280 1575 1288.0 1593.0Q1296 1611 1309.5 1624.5Q1323 1638 1341.0 1645.5Q1359 1653 1379 1653V1513Q1398 1516 1418 1516Q1437 1516 1457 1513V1653Q1498 1653 1526.5 1624.5Q1555 1596 1555 1555V1479Q1620 1442 1656.5 1378.5Q1693 1315 1693 1241Q1693 1199 1680.5 1159.5Q1668 1120 1644 1086L1651 1082L1728 1118Q1806 1155 1869.5 1210.5Q1933 1266 1977.0 1335.5Q2021 1405 2045.0 1485.5Q2069 1566 2069 1653Q2069 1668 2079.5 1678.5Q2090 1689 2105 1689Q2120 1689 2130.5 1678.5Q2141 1668 2141 1653Z" style="fill:#635994;stroke:none" transform="scale(1,-1) translate(0,-256)" /></svg>