<?xml version="1.0" encoding="utf-8" ?>
<svg baseProfile="full" height="256" version="1.1" width="256" xmlns="http://www.w3.org/2000/svg" xmlns:ev="http://www.w3.org/2001/xml-events" xmlns:xlink="http://www.w3.org/1999/xlink"><defs /><path d="M1551 1009Q1565 1009 1580.5 1012.5Q1596 1016 1609.5 1020.0Q1623 1024 1632.0 1027.5Q1641 1031 1643 1031Q1653 1031 1653 1021Q1653 1018 1652 1016Q1637 990 1608.5 975.5Q1580 961 1551 961Q1539 961 1523.5 965.0Q1508 969 1493.0 976.0Q1478 983 1466.0 993.5Q1454 1004 1449 1016Q1449 1017 1448.5 1018.5Q1448 1020 1448 1021Q1448 1032 1458 1032Q1459 1032 1468.5 1028.5Q1478 1025 1491.0 1020.5Q1504 1016 1520.0 1012.5Q1536 1009 1551 1009Z" style="fill:#990839;stroke:none" transform="scale(1,-1) translate(0,-256)" /></svg>