<?xml version="1.0" encoding="utf-8" ?>
<svg baseProfile="full" height="256" version="1.1" width="256" xmlns="http://www.w3.org/2000/svg" xmlns:ev="http://www.w3.org/2001/xml-events" xmlns:xlink="http://www.w3.org/1999/xlink"><defs /><path d="M1761 1310Q1744 1318 1726.5 1323.0Q1709 1328 1690 1328Q1683 1328 1677.0 1327.0Q1671 1326 1665 1326Q1657 1326 1652.5 1331.0Q1648 1336 1648 1344Q1648 1351 1653.0 1355.0Q1658 1359 1664.5 1360.5Q1671 1362 1678.5 1362.0Q1686 1362 1691 1362Q1697 1362 1713.0 1360.0Q1729 1358 1745.5 1353.5Q1762 1349 1775.0 1342.0Q1788 1335 1788 1325Q1788 1308 1771 1308Q1765 1308 1763 1310ZM1330 1308Q1323 1308 1318.0 1312.0Q1313 1316 1313 1324Q1313 1334 1326.0 1341.0Q1339 1348 1356.0 1352.5Q1373 1357 1389.5 1359.0Q1406 1361 1412 1361Q1417 1361 1424.0 1361.0Q1431 1361 1437.5 1359.5Q1444 1358 1448.5 1354.0Q1453 1350 1453 1343Q1453 1326 1436 1326Q1430 1326 1423.5 1327.0Q1417 1328 1410 1328Q1397 1328 1384.5 1325.0Q1372 1322 1361.5 1318.0Q1351 1314 1342.5 1311.0Q1334 1308 1330 1308Z" style="fill:#d37034;stroke:none" transform="scale(1,-1) translate(0,-256)" /></svg>