<?xml version="1.0" encoding="utf-8" ?>
<svg baseProfile="full" height="256" version="1.1" width="256" xmlns="http://www.w3.org/2000/svg" xmlns:ev="http://www.w3.org/2001/xml-events" xmlns:xlink="http://www.w3.org/1999/xlink"><defs /><path d="M1400 1270Q1414 1270 1429.0 1264.0Q1444 1258 1456.5 1247.5Q1469 1237 1477.0 1223.0Q1485 1209 1485 1194Q1485 1189 1480.0 1186.0Q1475 1183 1471 1183H1331Q1324 1183 1319.0 1187.5Q1314 1192 1314 1199Q1314 1213 1322.5 1226.0Q1331 1239 1344.0 1248.5Q1357 1258 1372.0 1264.0Q1387 1270 1400 1270ZM1704 1270Q1691 1270 1676.0 1264.5Q1661 1259 1648.0 1249.0Q1635 1239 1626.5 1226.5Q1618 1214 1618 1199Q1618 1183 1632 1183H1771Q1778 1183 1783.5 1187.5Q1789 1192 1789 1199Q1789 1213 1780.5 1226.0Q1772 1239 1759.5 1248.5Q1747 1258 1732.0 1264.0Q1717 1270 1704 1270Z" style="fill:#ffffff;stroke:none" transform="scale(1,-1) translate(0,-256)" /></svg>