<?xml version="1.0" encoding="utf-8" ?>
<svg baseProfile="full" height="256" version="1.1" width="256" xmlns="http://www.w3.org/2000/svg" xmlns:ev="http://www.w3.org/2001/xml-events" xmlns:xlink="http://www.w3.org/1999/xlink"><defs /><path d="M1714 1276Q1723 1276 1737.0 1273.5Q1751 1271 1764.0 1266.0Q1777 1261 1786.5 1253.0Q1796 1245 1796 1233Q1796 1219 1781.5 1206.5Q1767 1194 1758 1186Q1726 1196 1695.0 1205.0Q1664 1214 1632 1224Q1646 1245 1667.0 1260.5Q1688 1276 1714 1276ZM1388 1275Q1414 1275 1435.0 1259.5Q1456 1244 1470 1224Q1439 1213 1407.5 1205.0Q1376 1197 1345 1186Q1335 1194 1321.0 1206.0Q1307 1218 1307 1233Q1307 1245 1316.5 1253.0Q1326 1261 1338.5 1266.0Q1351 1271 1365.0 1273.0Q1379 1275 1388 1275Z" style="fill:#000000;stroke:none" transform="scale(1,-1) translate(0,-256)" /></svg>