<?xml version="1.0" encoding="utf-8" ?>
<svg baseProfile="full" height="256" version="1.1" width="256" xmlns="http://www.w3.org/2000/svg" xmlns:ev="http://www.w3.org/2001/xml-events" xmlns:xlink="http://www.w3.org/1999/xlink"><defs /><path d="M1819 431Q1789 297 1723.0 176.0Q1657 55 1552 -36Q1497 -84 1421.5 -129.0Q1346 -174 1262.0 -209.0Q1178 -244 1092.5 -265.5Q1007 -287 931 -287Q916 -287 895.0 -288.5Q874 -290 854.5 -287.0Q835 -284 821.5 -274.0Q808 -264 808 -240Q808 -230 810 -225Q795 -221 786.5 -208.5Q778 -196 778 -181Q778 -158 794 -145Q777 -140 768.0 -126.5Q759 -113 759 -96Q759 -78 774.5 -65.5Q790 -53 807 -53H898Q886 -42 874.0 -29.0Q862 -16 862 2Q862 22 875.5 35.0Q889 48 909 48Q927 48 939.0 37.0Q951 26 963.0 13.5Q975 1 988.5 -10.0Q1002 -21 1022 -21Q1026 -21 1029.0 -20.5Q1032 -20 1036 -19Q1131 4 1214.0 41.5Q1297 79 1364.0 133.5Q1431 188 1481.0 261.5Q1531 335 1561 431Z" style="fill:#ffc83d;stroke:none" transform="scale(1,-1) translate(0,-256)" /></svg>