<?xml version="1.0" encoding="utf-8" ?>
<svg baseProfile="full" height="256" version="1.1" width="256" xmlns="http://www.w3.org/2000/svg" xmlns:ev="http://www.w3.org/2001/xml-events" xmlns:xlink="http://www.w3.org/1999/xlink"><defs /><path d="M1370 1186Q1370 1164 1361.5 1144.5Q1353 1125 1338.0 1110.0Q1323 1095 1303.5 1086.5Q1284 1078 1262 1078Q1240 1078 1220.5 1086.5Q1201 1095 1186.0 1110.0Q1171 1125 1162.5 1144.5Q1154 1164 1154 1186Q1154 1208 1162.5 1227.5Q1171 1247 1186.0 1262.0Q1201 1277 1220.5 1285.5Q1240 1294 1262 1294Q1284 1294 1304.0 1285.5Q1324 1277 1338.5 1262.5Q1353 1248 1361.5 1228.0Q1370 1208 1370 1186ZM1945 1186Q1945 1164 1936.5 1144.5Q1928 1125 1913.0 1110.0Q1898 1095 1878.5 1086.5Q1859 1078 1837 1078Q1815 1078 1795.5 1086.5Q1776 1095 1761.0 1110.0Q1746 1125 1737.5 1144.5Q1729 1164 1729 1186Q1729 1208 1737.5 1227.5Q1746 1247 1761.0 1262.0Q1776 1277 1795.5 1285.5Q1815 1294 1837 1294Q1859 1294 1879.0 1285.5Q1899 1277 1913.5 1262.5Q1928 1248 1936.5 1228.0Q1945 1208 1945 1186Z" style="fill:#fdbb11;stroke:none" transform="scale(1,-1) translate(0,-256)" /></svg>