<?xml version="1.0" encoding="utf-8" ?>
<svg baseProfile="full" height="256" version="1.1" width="256" xmlns="http://www.w3.org/2000/svg" xmlns:ev="http://www.w3.org/2001/xml-events" xmlns:xlink="http://www.w3.org/1999/xlink"><defs /><path d="M1837 -162Q1837 -188 1827.0 -211.0Q1817 -234 1800.0 -251.0Q1783 -268 1760.0 -277.5Q1737 -287 1711 -287H1012Q960 -287 914.0 -267.0Q868 -247 833.5 -213.0Q799 -179 779.0 -133.0Q759 -87 759 -35V6Q759 73 777.5 135.5Q796 198 830.5 252.0Q865 306 914.0 349.5Q963 393 1023 422Q1053 436 1082.0 444.0Q1111 452 1143 460Q1153 462 1153 472Q1153 475 1147.0 483.0Q1141 491 1134.0 504.0Q1127 517 1121.0 534.5Q1115 552 1115 574Q1115 630 1153 671L1400 935H1591Q1636 935 1680.5 919.0Q1725 903 1759.5 874.5Q1794 846 1815.5 806.0Q1837 766 1837 718Z" style="fill:#8b62bf;stroke:none" transform="scale(1,-1) translate(0,-256)" /></svg>