<?xml version="1.0" encoding="utf-8" ?>
<svg baseProfile="full" height="256" version="1.1" width="256" xmlns="http://www.w3.org/2000/svg" xmlns:ev="http://www.w3.org/2001/xml-events" xmlns:xlink="http://www.w3.org/1999/xlink"><defs /><path d="M1387 1509Q1395 1509 1400 1503Q1438 1454 1484.5 1426.5Q1531 1399 1596 1399H1795Q1813 1399 1826.0 1391.0Q1839 1383 1848.0 1370.0Q1857 1357 1861.0 1341.0Q1865 1325 1865 1309Q1865 1262 1862.0 1215.0Q1859 1168 1857 1121Q1854 1057 1830.0 1003.0Q1806 949 1765.5 910.0Q1725 871 1670.0 849.0Q1615 827 1551 827Q1487 827 1432.0 849.0Q1377 871 1336.0 910.0Q1295 949 1271.0 1003.0Q1247 1057 1244 1121L1236 1319Q1235 1351 1250.5 1371.0Q1266 1391 1287.5 1408.0Q1309 1425 1331.0 1443.0Q1353 1461 1366 1488Q1370 1496 1373.5 1502.5Q1377 1509 1387 1509Z" style="fill:#ffc83d;stroke:none" transform="scale(1,-1) translate(0,-256)" /></svg>