<?xml version="1.0" encoding="utf-8" ?>
<svg baseProfile="full" height="256" version="1.1" width="256" xmlns="http://www.w3.org/2000/svg" xmlns:ev="http://www.w3.org/2001/xml-events" xmlns:xlink="http://www.w3.org/1999/xlink"><defs /><path d="M2003 1196Q2003 1179 1999.0 1163.5Q1995 1148 1990.5 1134.5Q1986 1121 1982.5 1110.0Q1979 1099 1979 1092Q1979 1086 1982.5 1075.5Q1986 1065 1990.5 1052.0Q1995 1039 1998.5 1023.5Q2002 1008 2002 991Q2002 950 1986.0 913.5Q1970 877 1943.0 850.0Q1916 823 1879.5 807.0Q1843 791 1802 791H1268Q1227 791 1190.5 807.0Q1154 823 1127.0 850.0Q1100 877 1084.0 913.5Q1068 950 1068 991Q1068 1008 1071.5 1023.5Q1075 1039 1079.5 1052.0Q1084 1065 1087.5 1075.5Q1091 1086 1091 1092Q1091 1099 1087.5 1109.5Q1084 1120 1079.5 1133.5Q1075 1147 1071.5 1163.0Q1068 1179 1068 1196Q1068 1228 1077.0 1255.5Q1086 1283 1103 1309Q1135 1359 1135 1420Q1135 1462 1151.0 1499.5Q1167 1537 1195.0 1565.0Q1223 1593 1260.5 1609.0Q1298 1625 1340 1625Q1356 1625 1368 1639Q1403 1680 1441.0 1702.5Q1479 1725 1535 1725Q1592 1725 1629.5 1703.0Q1667 1681 1702 1639Q1713 1625 1730 1625Q1772 1625 1809.5 1609.0Q1847 1593 1875.0 1565.0Q1903 1537 1919.0 1499.5Q1935 1462 1935 1420Q1935 1391 1943.5 1362.5Q1952 1334 1968 1309Q1985 1283 1994.0 1255.5Q2003 1228 2003 1196Z" style="fill:#f1a11e;stroke:none" transform="scale(1,-1) translate(0,-256)" /></svg>