<?xml version="1.0" encoding="utf-8" ?>
<svg baseProfile="full" height="256" version="1.1" width="256" xmlns="http://www.w3.org/2000/svg" xmlns:ev="http://www.w3.org/2001/xml-events" xmlns:xlink="http://www.w3.org/1999/xlink"><defs /><path d="M1413 1229Q1426 1229 1435.0 1220.0Q1444 1211 1444 1198Q1444 1190 1441 1183H1384Q1381 1190 1381 1198Q1381 1211 1390.5 1220.0Q1400 1229 1413 1229ZM1691 1229Q1678 1229 1668.5 1220.0Q1659 1211 1659 1198Q1659 1190 1663 1183H1719Q1722 1190 1722 1198Q1722 1211 1713.0 1220.0Q1704 1229 1691 1229Z" style="fill:#000000;stroke:none" transform="scale(1,-1) translate(0,-256)" /></svg>