<?xml version="1.0" encoding="utf-8" ?>
<svg baseProfile="full" height="256" version="1.1" width="256" xmlns="http://www.w3.org/2000/svg" xmlns:ev="http://www.w3.org/2001/xml-events" xmlns:xlink="http://www.w3.org/1999/xlink"><defs /><path d="M683 -215Q655 -215 635.0 -195.5Q615 -176 615 -148V148Q615 176 635.0 196.0Q655 216 683 216H835Q863 216 883.0 196.0Q903 176 903 148V-148Q903 -176 883.0 -195.5Q863 -215 835 -215ZM1977 -215Q1949 -215 1929.0 -195.5Q1909 -176 1909 -148V148Q1909 176 1929.0 195.5Q1949 215 1977 215H2128Q2156 215 2176.0 195.5Q2196 176 2196 148V-148Q2196 -176 2177.0 -195.5Q2158 -215 2129 -215Z" style="fill:#321b41;stroke:none" transform="scale(1,-1) translate(0,-256)" /></svg>