<?xml version="1.0" encoding="utf-8" ?>
<svg baseProfile="full" height="256" version="1.1" width="256" xmlns="http://www.w3.org/2000/svg" xmlns:ev="http://www.w3.org/2001/xml-events" xmlns:xlink="http://www.w3.org/1999/xlink"><defs /><path d="M1011 360Q996 360 985.5 370.5Q975 381 975 396Q975 410 986.0 420.5Q997 431 1011 431H1801Q1816 431 1826.5 421.0Q1837 411 1837 396Q1837 381 1826.5 370.5Q1816 360 1801 360ZM1154 216Q1139 216 1128.5 226.5Q1118 237 1118 252Q1118 267 1128.5 277.5Q1139 288 1154 288H1658Q1673 288 1683.0 277.5Q1693 267 1693 252Q1693 237 1683.0 226.5Q1673 216 1658 216Z" style="fill:#e6e6e6;stroke:none" transform="scale(1,-1) translate(0,-256)" /></svg>