<?xml version="1.0" encoding="utf-8" ?>
<svg baseProfile="full" height="256" version="1.1" width="256" xmlns="http://www.w3.org/2000/svg" xmlns:ev="http://www.w3.org/2001/xml-events" xmlns:xlink="http://www.w3.org/1999/xlink"><defs /><path d="M456 719Q433 719 416.5 735.5Q400 752 400 775V1022Q400 1045 416.5 1061.5Q433 1078 456 1078H487Q515 1078 527.0 1062.0Q539 1046 542.5 1023.5Q546 1001 544.5 976.5Q543 952 543 935H687V791H543Q543 763 531.5 741.0Q520 719 487 719ZM2325 719Q2292 719 2280.0 741.0Q2268 763 2268 791H2125V935H2268Q2268 952 2266.5 976.5Q2265 1001 2268.5 1023.5Q2272 1046 2284.5 1062.0Q2297 1078 2325 1078H2356Q2379 1078 2395.5 1061.5Q2412 1045 2412 1022V775Q2412 752 2395.5 735.5Q2379 719 2356 719Z" style="fill:#321b41;stroke:none" transform="scale(1,-1) translate(0,-256)" /></svg>