<?xml version="1.0" encoding="utf-8" ?>
<svg baseProfile="full" height="256" version="1.1" width="256" xmlns="http://www.w3.org/2000/svg" xmlns:ev="http://www.w3.org/2001/xml-events" xmlns:xlink="http://www.w3.org/1999/xlink"><defs /><path d="M1982 575H830Q801 575 780.0 596.0Q759 617 759 646V1222L1190 1270Q1221 1273 1247.0 1277.5Q1273 1282 1297.5 1285.5Q1322 1289 1348.0 1291.5Q1374 1294 1406 1294Q1438 1294 1464.0 1291.5Q1490 1289 1514.5 1285.5Q1539 1282 1564.5 1277.5Q1590 1273 1622 1270L2053 1222V646Q2053 617 2032.0 596.0Q2011 575 1982 575Z" style="fill:#00a6ed;stroke:none" transform="scale(1,-1) translate(0,-256)" /></svg>