<?xml version="1.0" encoding="utf-8" ?>
<svg baseProfile="full" height="256" version="1.1" width="256" xmlns="http://www.w3.org/2000/svg" xmlns:ev="http://www.w3.org/2001/xml-events" xmlns:xlink="http://www.w3.org/1999/xlink"><defs /><path d="M2095 0H717Q696 0 677.5 8.0Q659 16 645.0 30.0Q631 44 623.0 62.5Q615 81 615 102V503Q667 516 726.5 526.0Q786 536 847.5 544.0Q909 552 969.0 559.0Q1029 566 1083 572Q1136 579 1188.5 585.0Q1241 591 1294 596Q1322 598 1350.0 601.5Q1378 605 1406 605Q1505 605 1604.5 595.5Q1704 586 1803.5 571.5Q1903 557 2001.5 539.0Q2100 521 2197 503V102Q2197 81 2189.0 62.5Q2181 44 2167.0 30.0Q2153 16 2134.5 8.0Q2116 0 2095 0Z" style="fill:#f9c23c;stroke:none" transform="scale(1,-1) translate(0,-256)" /></svg>