<?xml version="1.0" encoding="utf-8" ?>
<svg baseProfile="full" height="256" version="1.1" width="256" xmlns="http://www.w3.org/2000/svg" xmlns:ev="http://www.w3.org/2001/xml-events" xmlns:xlink="http://www.w3.org/1999/xlink"><defs /><path d="M400 1256Q400 1303 431.5 1334.5Q463 1366 510 1366Q523 1366 536.5 1366.5Q550 1367 561.5 1370.5Q573 1374 582.0 1383.0Q591 1392 595 1409Q600 1429 606.0 1447.0Q612 1465 622.0 1479.0Q632 1493 648.0 1501.5Q664 1510 689 1510H819Q824 1510 827.5 1513.0Q831 1516 831 1521Q831 1551 842.5 1575.5Q854 1600 873.5 1617.0Q893 1634 919.0 1643.5Q945 1653 974 1653H1096Q1105 1653 1111.5 1646.5Q1118 1640 1118 1631V1581L903 1438V1086Q903 1069 915.5 1055.5Q928 1042 946 1042Q961 1042 970.0 1052.5Q979 1063 985 1075Q1027 1159 1081.5 1231.5Q1136 1304 1205.0 1358.0Q1274 1412 1357.5 1443.0Q1441 1474 1540 1474Q1662 1474 1768.5 1427.0Q1875 1380 1954.5 1299.0Q2034 1218 2079.5 1110.5Q2125 1003 2125 882V510Q2125 480 2146.0 459.0Q2167 438 2197 438Q2226 438 2247.0 459.5Q2268 481 2268 510V822Q2268 845 2277.0 865.5Q2286 886 2301.5 901.5Q2317 917 2337.5 926.0Q2358 935 2381 935Q2394 935 2403.0 925.5Q2412 916 2412 903V393Q2412 340 2392.0 294.0Q2372 248 2337.0 214.0Q2302 180 2255.5 161.0Q2209 142 2157 142Q2105 142 2060.0 162.5Q2015 183 1981.5 218.5Q1948 254 1928.5 300.0Q1909 346 1909 397V654Q1892 620 1866.5 593.5Q1841 567 1809 548L1658 461L1742 314Q1750 299 1755.0 282.5Q1760 266 1760 248Q1760 213 1742.0 182.5Q1724 152 1693 135L1399 -31Q1371 -47 1357.0 -77.5Q1343 -108 1331.0 -138.5Q1319 -169 1303.0 -192.0Q1287 -215 1255 -215Q1229 -215 1211.0 -195.5Q1193 -176 1193 -151V-41Q1193 26 1226.5 82.5Q1260 139 1318 171L1514 281L1456 380Q1404 378 1357.5 398.0Q1311 418 1275.5 452.5Q1240 487 1219.5 533.5Q1199 580 1199 632V647H1052Q1039 647 1030 633Q1018 612 1007.5 597.5Q997 583 986.5 571.0Q976 559 962.5 546.0Q949 533 931 515Q923 507 923 495Q923 482 930.5 476.0Q938 470 948.5 468.0Q959 466 971.0 466.5Q983 467 991 467Q1013 467 1030.0 452.0Q1047 437 1047 414Q1047 391 1031.5 375.5Q1016 360 993 360H952Q925 360 900.5 370.5Q876 381 856.5 399.5Q837 418 825.5 442.5Q814 467 814 494Q814 519 821.0 538.0Q828 557 840.0 573.5Q852 590 867.5 605.0Q883 620 900 636L902 641Q902 645 894.0 646.5Q886 648 876.0 648.0Q866 648 856.5 647.5Q847 647 844 647Q796 647 754.0 665.0Q712 683 680.5 714.5Q649 746 630.5 788.0Q612 830 612 878V1150H508Q487 1150 467.5 1158.5Q448 1167 433.0 1181.5Q418 1196 409.0 1215.0Q400 1234 400 1256Z" style="fill:#f3ad61;stroke:none" transform="scale(1,-1) translate(0,-256)" /></svg>