<?xml version="1.0" encoding="utf-8" ?>
<svg baseProfile="full" height="256" version="1.1" width="256" xmlns="http://www.w3.org/2000/svg" xmlns:ev="http://www.w3.org/2001/xml-events" xmlns:xlink="http://www.w3.org/1999/xlink"><defs /><path d="M1196 804Q1168 804 1143.0 814.5Q1118 825 1099.5 843.5Q1081 862 1070.5 887.0Q1060 912 1060 940Q1060 968 1070.5 993.0Q1081 1018 1099.5 1036.5Q1118 1055 1143.0 1065.5Q1168 1076 1196 1076Q1224 1076 1249.0 1065.5Q1274 1055 1292.5 1036.5Q1311 1018 1321.5 993.0Q1332 968 1332 940Q1332 912 1321.5 887.0Q1311 862 1292.5 843.5Q1274 825 1249.0 814.5Q1224 804 1196 804Z" style="fill:#ffb02e;stroke:none" transform="scale(1,-1) translate(0,-256)" /></svg>