<?xml version="1.0" encoding="utf-8" ?>
<svg baseProfile="full" height="256" version="1.1" width="256" xmlns="http://www.w3.org/2000/svg" xmlns:ev="http://www.w3.org/2001/xml-events" xmlns:xlink="http://www.w3.org/1999/xlink"><defs /><path d="M1746 1425Q1746 1465 1759.5 1497.0Q1773 1529 1795.0 1556.0Q1817 1583 1843.5 1607.5Q1870 1632 1897 1659Q1900 1662 1905 1662Q1910 1662 1914 1658Q1929 1643 1940.0 1624.5Q1951 1606 1958.5 1585.0Q1966 1564 1970.0 1542.0Q1974 1520 1974 1500Q1974 1455 1958.0 1413.0Q1942 1371 1911 1339Q1938 1348 1967 1348H2101Q2106 1348 2109.0 1344.5Q2112 1341 2112 1336Q2112 1290 2092.0 1249.0Q2072 1208 2039.5 1177.5Q2007 1147 1965.0 1129.5Q1923 1112 1878 1112H1868L2060 197Q2061 188 2070 187L2373 128Q2391 124 2401.5 110.5Q2412 97 2412 79Q2412 52 2392 32L2096 -264Q2087 -273 2074.5 -278.5Q2062 -284 2048 -284Q2030 -284 2016.5 -273.5Q2003 -263 1999 -245L1941 52Q1939 60 1931 62L997 231Q997 186 980.0 143.0Q963 100 933.0 66.5Q903 33 862.0 13.0Q821 -7 774 -7Q762 -7 762 4Q762 23 761.0 48.0Q760 73 760.0 99.0Q760 125 762.5 149.5Q765 174 771 194Q739 163 697.0 147.0Q655 131 610 131Q590 131 568.0 135.0Q546 139 525.0 146.5Q504 154 485.5 165.0Q467 176 452 191Q448 195 448 200Q448 205 451 208Q478 234 502.5 261.0Q527 288 554.5 309.5Q582 331 613.5 345.0Q645 359 686 359Q732 359 769.0 341.0Q806 323 838 291L856 304Q843 330 843 362Q843 395 856.0 424.5Q869 454 892 477L1616 1217Q1639 1241 1669.5 1255.5Q1700 1270 1734 1270Q1770 1270 1800 1252Q1806 1262 1814 1272Q1782 1304 1764.0 1341.0Q1746 1378 1746 1425Z" style="fill:#44911b;stroke:none" transform="scale(1,-1) translate(0,-256)" /></svg>