<?xml version="1.0" encoding="utf-8" ?>
<svg baseProfile="full" height="256" version="1.1" width="256" xmlns="http://www.w3.org/2000/svg" xmlns:ev="http://www.w3.org/2001/xml-events" xmlns:xlink="http://www.w3.org/1999/xlink"><defs /><path d="M833 796Q833 832 845.5 856.5Q858 881 878.5 899.0Q899 917 925.5 930.0Q952 943 980 957Q959 974 940.0 989.5Q921 1005 906.0 1023.0Q891 1041 882.0 1062.5Q873 1084 873 1114Q873 1144 884.0 1170.5Q895 1197 914.5 1216.5Q934 1236 960.0 1247.5Q986 1259 1016 1259Q1045 1259 1066.5 1250.5Q1088 1242 1105.5 1227.5Q1123 1213 1138.5 1194.5Q1154 1176 1171 1156Q1184 1186 1197.0 1213.5Q1210 1241 1228.0 1262.0Q1246 1283 1271.0 1295.5Q1296 1308 1334 1308Q1364 1308 1390.0 1296.5Q1416 1285 1435.0 1265.5Q1454 1246 1465.0 1220.0Q1476 1194 1476 1164Q1476 1143 1470.5 1125.5Q1465 1108 1456.5 1092.0Q1448 1076 1437.0 1060.5Q1426 1045 1415 1029L1498 1022Q1526 1020 1550.0 1008.0Q1574 996 1592.0 976.5Q1610 957 1620.0 932.0Q1630 907 1630 879Q1630 849 1618.5 823.0Q1607 797 1587.0 777.5Q1567 758 1541.0 746.5Q1515 735 1485 735Q1462 735 1438.0 741.0Q1414 747 1391 752Q1399 729 1407.0 705.0Q1415 681 1415 656Q1415 626 1403.5 600.0Q1392 574 1372.5 554.5Q1353 535 1327.0 524.0Q1301 513 1271 513Q1244 513 1219.5 522.5Q1195 532 1176.5 549.0Q1158 566 1145.5 589.0Q1133 612 1129 639L1118 721Q1101 709 1085.0 696.5Q1069 684 1052.0 674.0Q1035 664 1016.5 657.5Q998 651 976 651Q946 651 920.0 662.5Q894 674 874.5 694.0Q855 714 844.0 740.0Q833 766 833 796Z" style="fill:#fff478;stroke:none" transform="scale(1,-1) translate(0,-256)" /></svg>