<?xml version="1.0" encoding="utf-8" ?>
<svg baseProfile="full" height="256" version="1.1" width="256" xmlns="http://www.w3.org/2000/svg" xmlns:ev="http://www.w3.org/2001/xml-events" xmlns:xlink="http://www.w3.org/1999/xlink"><defs /><path d="M1411 1204Q1373 1297 1373 1397Q1373 1418 1375.5 1444.0Q1378 1470 1382.5 1496.0Q1387 1522 1394.0 1546.5Q1401 1571 1411 1590Q1425 1617 1452 1617Q1461 1617 1469 1614Q1552 1582 1606.5 1533.0Q1661 1484 1699.5 1422.5Q1738 1361 1767.0 1290.0Q1796 1219 1828 1143L1494 1004ZM1121 648 982 315Q904 347 833.0 375.5Q762 404 701.5 442.0Q641 480 592.5 534.5Q544 589 511 673Q509 678 508.0 681.5Q507 685 507 690Q507 704 515.0 714.5Q523 725 535 732Q553 742 578.0 749.0Q603 756 629.0 760.5Q655 765 681.0 767.5Q707 770 728 770Q827 770 920 732Z" style="fill:#f70a8d;stroke:none" transform="scale(1,-1) translate(0,-256)" /></svg>