<?xml version="1.0" encoding="utf-8" ?>
<svg baseProfile="full" height="256" version="1.1" width="256" xmlns="http://www.w3.org/2000/svg" xmlns:ev="http://www.w3.org/2001/xml-events" xmlns:xlink="http://www.w3.org/1999/xlink"><defs /><path d="M1712 1725Q1723 1725 1732.0 1717.0Q1741 1709 1745 1699Q1763 1657 1786.5 1604.0Q1810 1551 1831.0 1495.0Q1852 1439 1867.0 1382.0Q1882 1325 1882 1275Q1882 1209 1857.5 1153.0Q1833 1097 1790.5 1056.5Q1748 1016 1690.5 993.0Q1633 970 1568 970Q1503 970 1453.0 993.5Q1403 1017 1364.5 1056.0Q1326 1095 1296.5 1145.0Q1267 1195 1243 1248H1244Q1239 1260 1224.5 1293.5Q1210 1327 1194.0 1364.0Q1178 1401 1166.0 1433.0Q1154 1465 1154 1473Q1154 1486 1161.0 1494.0Q1168 1502 1178.5 1506.0Q1189 1510 1200.5 1511.5Q1212 1513 1222 1513Q1260 1513 1299.0 1496.5Q1338 1480 1374.5 1455.5Q1411 1431 1442.5 1401.5Q1474 1372 1498 1345Q1511 1331 1522.0 1317.0Q1533 1303 1545 1289Q1550 1284 1555.0 1280.0Q1560 1276 1568 1276Q1579 1276 1584.5 1284.0Q1590 1292 1590 1302V1307Q1587 1336 1584.5 1365.0Q1582 1394 1582 1423Q1582 1459 1586.5 1504.5Q1591 1550 1604.0 1593.0Q1617 1636 1640.5 1671.5Q1664 1707 1702 1723Q1708 1725 1712 1725ZM400 431Q400 420 408.0 410.5Q416 401 426 397Q468 379 521.0 355.5Q574 332 630.0 311.0Q686 290 743.0 275.0Q800 260 850 260Q916 260 972.0 284.5Q1028 309 1068.5 351.5Q1109 394 1132.0 451.5Q1155 509 1155 574Q1155 640 1131.5 689.5Q1108 739 1069.0 777.5Q1030 816 980.0 845.0Q930 874 877 899V898Q865 903 831.5 917.5Q798 932 761.0 948.0Q724 964 692.0 976.0Q660 988 652 988Q639 988 631.0 981.0Q623 974 619.0 964.0Q615 954 613.5 942.0Q612 930 612 920Q612 882 628.5 843.0Q645 804 669.5 767.5Q694 731 723.5 699.5Q753 668 780 644Q794 631 808.0 620.0Q822 609 836 597Q841 592 845.0 587.0Q849 582 849 574Q849 563 841.5 557.5Q834 552 824 552Q797 552 766.0 556.5Q735 561 704 561Q668 561 622.5 556.5Q577 552 533.5 539.0Q490 526 454.0 502.5Q418 479 402 440Q400 434 400 431Z" style="fill:#ff6dc6;stroke:none" transform="scale(1,-1) translate(0,-256)" /></svg>