<?xml version="1.0" encoding="utf-8" ?>
<svg baseProfile="full" height="256" version="1.1" width="256" xmlns="http://www.w3.org/2000/svg" xmlns:ev="http://www.w3.org/2001/xml-events" xmlns:xlink="http://www.w3.org/1999/xlink"><defs /><path d="M1798 1006 1406 1078 1014 1006Q996 1003 979.0 1010.0Q962 1017 948.5 1030.5Q935 1044 926.5 1061.5Q918 1079 918 1096Q918 1115 926.0 1131.5Q934 1148 947.5 1160.0Q961 1172 978.0 1178.5Q995 1185 1014 1185H1798Q1817 1185 1834.0 1178.5Q1851 1172 1864.5 1160.0Q1878 1148 1886.0 1131.5Q1894 1115 1894 1096Q1894 1079 1885.5 1061.5Q1877 1044 1863.5 1030.5Q1850 1017 1833.0 1010.0Q1816 1003 1798 1006Z" style="fill:#321b41;stroke:none" transform="scale(1,-1) translate(0,-256)" /></svg>