<?xml version="1.0" encoding="utf-8" ?>
<svg baseProfile="full" height="256" version="1.1" width="256" xmlns="http://www.w3.org/2000/svg" xmlns:ev="http://www.w3.org/2001/xml-events" xmlns:xlink="http://www.w3.org/1999/xlink"><defs /><path d="M2248 -287H564Q532 -287 502.5 -276.0Q473 -265 450.0 -244.5Q427 -224 413.5 -196.0Q400 -168 400 -135V791Q400 824 413.5 852.5Q427 881 449.5 901.0Q472 921 502.0 932.5Q532 944 564 944H2248Q2280 944 2310.0 932.5Q2340 921 2362.5 901.0Q2385 881 2398.5 852.5Q2412 824 2412 791V-135Q2412 -168 2398.5 -196.0Q2385 -224 2362.0 -244.5Q2339 -265 2309.5 -276.0Q2280 -287 2248 -287Z" style="fill:#636363;stroke:none" transform="scale(1,-1) translate(0,-256)" /></svg>