<?xml version="1.0" encoding="utf-8" ?>
<svg baseProfile="full" height="256" version="1.1" width="256" xmlns="http://www.w3.org/2000/svg" xmlns:ev="http://www.w3.org/2001/xml-events" xmlns:xlink="http://www.w3.org/1999/xlink"><defs /><path d="M1301 1131Q1289 1131 1277.0 1135.5Q1265 1140 1257 1149L1130 1285Q1116 1301 1116 1321Q1116 1344 1133.5 1359.0Q1151 1374 1174 1374Q1200 1374 1217 1356L1302 1266L1595 1567Q1603 1576 1614.5 1580.5Q1626 1585 1638 1585Q1661 1585 1678.5 1569.5Q1696 1554 1696 1531Q1696 1512 1681 1495L1344 1149Q1327 1131 1301 1131Z" style="fill:#44911b;stroke:none" transform="scale(1,-1) translate(0,-256)" /></svg>