<?xml version="1.0" encoding="utf-8" ?>
<svg baseProfile="full" height="256" version="1.1" width="256" xmlns="http://www.w3.org/2000/svg" xmlns:ev="http://www.w3.org/2001/xml-events" xmlns:xlink="http://www.w3.org/1999/xlink"><defs /><path d="M1215 28Q1195 28 1178.0 35.5Q1161 43 1148.5 55.5Q1136 68 1128.5 85.0Q1121 102 1121 122Q1121 141 1128.5 158.5Q1136 176 1148.5 188.5Q1161 201 1178.0 208.5Q1195 216 1215 216Q1234 216 1251.5 208.5Q1269 201 1282.0 188.5Q1295 176 1302.5 158.5Q1310 141 1310 122Q1310 102 1302.5 85.0Q1295 68 1282.0 55.5Q1269 43 1251.5 35.5Q1234 28 1215 28ZM1596 28Q1576 28 1559.0 35.5Q1542 43 1529.5 55.5Q1517 68 1509.5 85.0Q1502 102 1502 122Q1502 141 1509.5 158.5Q1517 176 1529.5 188.5Q1542 201 1559.0 208.5Q1576 216 1596 216Q1615 216 1632.5 208.5Q1650 201 1663.0 188.5Q1676 176 1683.5 158.5Q1691 141 1691 122Q1691 102 1683.5 85.0Q1676 68 1663.0 55.5Q1650 43 1632.5 35.5Q1615 28 1596 28ZM1875 -116Q1875 -136 1867.5 -153.0Q1860 -170 1847.0 -182.5Q1834 -195 1816.5 -202.5Q1799 -210 1780 -210Q1760 -210 1743.0 -202.5Q1726 -195 1713.5 -182.5Q1701 -170 1693.5 -153.0Q1686 -136 1686 -116Q1686 -97 1693.5 -79.5Q1701 -62 1713.5 -49.0Q1726 -36 1743.0 -28.5Q1760 -21 1780 -21Q1799 -21 1816.5 -28.5Q1834 -36 1847.0 -49.0Q1860 -62 1867.5 -79.5Q1875 -97 1875 -116ZM1425 -210Q1405 -210 1388.0 -202.5Q1371 -195 1358.0 -182.5Q1345 -170 1337.5 -153.0Q1330 -136 1330 -116Q1330 -97 1337.5 -79.5Q1345 -62 1358.0 -49.0Q1371 -36 1388.0 -28.5Q1405 -21 1425 -21Q1444 -21 1461.5 -28.5Q1479 -36 1491.5 -49.0Q1504 -62 1511.5 -79.5Q1519 -97 1519 -116Q1519 -136 1511.5 -153.0Q1504 -170 1491.5 -182.5Q1479 -195 1461.5 -202.5Q1444 -210 1425 -210ZM1163 -116Q1163 -136 1155.5 -153.0Q1148 -170 1135.5 -182.5Q1123 -195 1105.5 -202.5Q1088 -210 1069 -210Q1049 -210 1032.0 -202.5Q1015 -195 1002.5 -182.5Q990 -170 982.5 -153.0Q975 -136 975 -116Q975 -97 982.5 -79.5Q990 -62 1002.5 -49.0Q1015 -36 1032.0 -28.5Q1049 -21 1069 -21Q1088 -21 1105.5 -28.5Q1123 -36 1135.5 -49.0Q1148 -62 1155.5 -79.5Q1163 -97 1163 -116Z" style="fill:#8c5543;stroke:none" transform="scale(1,-1) translate(0,-256)" /></svg>