<?xml version="1.0" encoding="utf-8" ?>
<svg baseProfile="full" height="256" version="1.1" width="256" xmlns="http://www.w3.org/2000/svg" xmlns:ev="http://www.w3.org/2001/xml-events" xmlns:xlink="http://www.w3.org/1999/xlink"><defs /><path d="M1549 1581Q1578 1581 1600.0 1560.5Q1622 1540 1622 1510Q1622 1480 1600.5 1459.0Q1579 1438 1549 1438H1262Q1233 1438 1211.5 1459.5Q1190 1481 1190 1510Q1190 1539 1211.5 1560.0Q1233 1581 1262 1581ZM2412 288Q2412 258 2391.0 237.0Q2370 216 2340 216H472Q442 216 421.0 237.0Q400 258 400 288Q400 315 410.5 329.0Q421 343 437.0 349.5Q453 356 472.0 360.0Q491 364 507.0 370.5Q523 377 533.5 391.0Q544 405 544 432V504Q544 623 575.0 733.0Q606 843 662.0 939.0Q718 1035 797.0 1113.5Q876 1192 971.5 1248.0Q1067 1304 1177.0 1335.0Q1287 1366 1406 1366Q1527 1366 1638.0 1333.0Q1749 1300 1844.5 1240.5Q1940 1181 2018.0 1099.0Q2096 1017 2151.0 918.0Q2206 819 2236.0 706.5Q2266 594 2266 475V427Q2266 393 2286.0 379.0Q2306 365 2335 360Q2367 355 2389.5 340.5Q2412 326 2412 288Z" style="fill:#ffb02e;stroke:none" transform="scale(1,-1) translate(0,-256)" /></svg>