<?xml version="1.0" encoding="utf-8" ?>
<svg baseProfile="full" height="256" version="1.1" width="256" xmlns="http://www.w3.org/2000/svg" xmlns:ev="http://www.w3.org/2001/xml-events" xmlns:xlink="http://www.w3.org/1999/xlink"><defs /><path d="M543 -72Q543 -42 554.5 -16.0Q566 10 585.5 29.5Q605 49 631.0 60.5Q657 72 687 72H2125Q2155 72 2181.0 60.5Q2207 49 2226.5 29.5Q2246 10 2257.0 -16.0Q2268 -42 2268 -72Q2298 -72 2324.0 -83.0Q2350 -94 2369.5 -113.5Q2389 -133 2400.5 -159.0Q2412 -185 2412 -215H400Q400 -185 411.5 -159.0Q423 -133 442.5 -113.5Q462 -94 488.0 -83.0Q514 -72 544 -72H543Z" style="fill:#5c2614;stroke:none" transform="scale(1,-1) translate(0,-256)" /></svg>