<?xml version="1.0" encoding="utf-8" ?>
<svg baseProfile="full" height="256" version="1.1" width="256" xmlns="http://www.w3.org/2000/svg" xmlns:ev="http://www.w3.org/2001/xml-events" xmlns:xlink="http://www.w3.org/1999/xlink"><defs /><path d="M1692 935Q1662 935 1636.0 946.0Q1610 957 1590.5 976.5Q1571 996 1559.5 1022.0Q1548 1048 1548 1078Q1548 1108 1559.5 1134.0Q1571 1160 1590.5 1179.5Q1610 1199 1636.0 1210.5Q1662 1222 1692 1222Q1722 1222 1748.0 1210.5Q1774 1199 1793.5 1179.5Q1813 1160 1824.5 1134.0Q1836 1108 1836 1078Q1836 1048 1824.5 1022.0Q1813 996 1793.5 976.5Q1774 957 1748.0 946.0Q1722 935 1692 935Z" style="fill:#ffffff;stroke:none" transform="scale(1,-1) translate(0,-256)" /></svg>