<?xml version="1.0" encoding="utf-8" ?>
<svg baseProfile="full" height="256" version="1.1" width="256" xmlns="http://www.w3.org/2000/svg" xmlns:ev="http://www.w3.org/2001/xml-events" xmlns:xlink="http://www.w3.org/1999/xlink"><defs /><path d="M2161 -287H1644L1569 -238L1494 -287H1321L1249 -238L1177 -287H651Q643 -261 624.5 -242.0Q606 -223 577 -223Q560 -223 544.5 -230.0Q529 -237 516 -247Q463 -212 431.5 -156.0Q400 -100 400 -36V1474Q400 1525 420.0 1570.5Q440 1616 474.5 1650.5Q509 1685 554.5 1705.0Q600 1725 651 1725H2161Q2212 1725 2257.5 1705.0Q2303 1685 2337.5 1650.5Q2372 1616 2392.0 1570.5Q2412 1525 2412 1474V-36Q2412 -99 2382.0 -153.5Q2352 -208 2301 -243Q2287 -232 2269.5 -225.0Q2252 -218 2234 -218Q2202 -218 2186.0 -239.0Q2170 -260 2161 -287Z" style="fill:#321b41;stroke:none" transform="scale(1,-1) translate(0,-256)" /></svg>