<?xml version="1.0" encoding="utf-8" ?>
<svg baseProfile="full" height="256" version="1.1" width="256" xmlns="http://www.w3.org/2000/svg" xmlns:ev="http://www.w3.org/2001/xml-events" xmlns:xlink="http://www.w3.org/1999/xlink"><defs /><path d="M1298 902Q1298 855 1278.5 826.0Q1259 797 1228.5 781.0Q1198 765 1159.5 760.0Q1121 755 1083 755Q1045 755 1006.5 760.0Q968 765 937.0 781.0Q906 797 886.5 825.5Q867 854 867 902Q867 946 884.5 985.0Q902 1024 931.5 1052.5Q961 1081 1000.0 1097.5Q1039 1114 1083 1114Q1127 1114 1166.0 1097.5Q1205 1081 1234.5 1052.5Q1264 1024 1281.0 985.0Q1298 946 1298 902ZM1945 902Q1945 854 1925.5 825.5Q1906 797 1875.0 781.0Q1844 765 1805.5 760.0Q1767 755 1729 755Q1690 755 1652.0 760.0Q1614 765 1583.0 781.0Q1552 797 1533.0 825.5Q1514 854 1514 902Q1514 946 1531.0 985.0Q1548 1024 1577.5 1052.5Q1607 1081 1646.0 1097.5Q1685 1114 1729 1114Q1773 1114 1812.0 1097.5Q1851 1081 1880.5 1052.5Q1910 1024 1927.5 985.0Q1945 946 1945 902ZM1356 654H1449Q1460 654 1470.5 659.0Q1481 664 1481 677Q1481 683 1478.0 688.0Q1475 693 1471 697Q1466 713 1462.0 730.0Q1458 747 1451.0 760.5Q1444 774 1432.0 782.5Q1420 791 1399 791Q1379 791 1362.5 779.0Q1346 767 1341 748Q1337 734 1331.0 717.0Q1325 700 1325 686Q1325 673 1333.5 663.5Q1342 654 1356 654Z" style="fill:#00a6ed;stroke:none" transform="scale(1,-1) translate(0,-256)" /></svg>