<?xml version="1.0" encoding="utf-8" ?>
<svg baseProfile="full" height="256" version="1.1" width="256" xmlns="http://www.w3.org/2000/svg" xmlns:ev="http://www.w3.org/2001/xml-events" xmlns:xlink="http://www.w3.org/1999/xlink"><defs /><path d="M2166 -287Q2111 -246 2043.5 -230.5Q1976 -215 1909 -215Q1837 -215 1774.0 -232.0Q1711 -249 1650 -287H1486Q1485 -284 1485.0 -280.5Q1485 -277 1485 -274Q1485 -253 1498.0 -234.0Q1511 -215 1530.0 -198.0Q1549 -181 1570.0 -168.0Q1591 -155 1606 -146Q1675 -107 1752.5 -89.5Q1830 -72 1909 -72Q1953 -72 2003.0 -78.0Q2053 -84 2101.5 -97.5Q2150 -111 2194.0 -133.0Q2238 -155 2271 -187Q2284 -199 2293.5 -210.0Q2303 -221 2309 -238Q2278 -261 2241.0 -273.5Q2204 -286 2166 -287ZM1333 -287Q1334 -284 1334.0 -280.5Q1334 -277 1334 -274Q1334 -253 1321.0 -234.0Q1308 -215 1289.0 -198.0Q1270 -181 1249.0 -168.0Q1228 -155 1213 -146Q1143 -107 1066.5 -89.5Q990 -72 910 -72Q866 -72 816.0 -78.0Q766 -84 717.5 -97.5Q669 -111 625.0 -133.0Q581 -155 548 -187Q534 -201 524.5 -212.0Q515 -223 509 -242Q541 -265 577.5 -276.0Q614 -287 653 -287Q708 -246 775.5 -230.5Q843 -215 910 -215Q982 -215 1045.0 -232.0Q1108 -249 1169 -287ZM2053 935Q2053 783 1983.0 701.5Q1913 620 1765 594V396Q1765 374 1756.5 354.5Q1748 335 1733.5 320.0Q1719 305 1699.5 296.5Q1680 288 1658 288Q1635 288 1615.5 296.5Q1596 305 1581.5 319.5Q1567 334 1558.5 353.5Q1550 373 1550 396V503H1478V360Q1478 330 1457.0 309.0Q1436 288 1406 288Q1376 288 1355.0 309.0Q1334 330 1334 360V503H1262V396Q1262 373 1253.5 353.5Q1245 334 1230.5 319.5Q1216 305 1196.0 296.5Q1176 288 1154 288Q1132 288 1112.5 296.5Q1093 305 1078.5 320.0Q1064 335 1055.5 354.5Q1047 374 1047 396V594Q898 620 828.5 701.5Q759 783 759 935Q759 1069 809.5 1187.0Q860 1305 948.0 1392.5Q1036 1480 1154.0 1530.5Q1272 1581 1406 1581Q1495 1581 1578.0 1558.0Q1661 1535 1733.0 1493.0Q1805 1451 1864.0 1392.0Q1923 1333 1965.0 1261.5Q2007 1190 2030.0 1107.0Q2053 1024 2053 935ZM1334 216Q1304 216 1283.0 195.0Q1262 174 1262 144Q1262 114 1283.0 93.0Q1304 72 1334 72H1478Q1508 72 1529.0 93.0Q1550 114 1550 144Q1550 174 1529.0 195.0Q1508 216 1478 216ZM1262 -72Q1262 -42 1283.0 -21.0Q1304 0 1334 0H1478Q1508 0 1529.0 -21.0Q1550 -42 1550 -72Q1550 -101 1528.5 -122.5Q1507 -144 1478 -144H1334Q1305 -144 1283.5 -122.5Q1262 -101 1262 -72Z" style="fill:#b4f6fc;stroke:none" transform="scale(1,-1) translate(0,-256)" /></svg>