<?xml version="1.0" encoding="utf-8" ?>
<svg baseProfile="full" height="256" version="1.1" width="256" xmlns="http://www.w3.org/2000/svg" xmlns:ev="http://www.w3.org/2001/xml-events" xmlns:xlink="http://www.w3.org/1999/xlink"><defs /><path d="M1801 1581Q1766 1581 1730.5 1570.0Q1695 1559 1665.0 1545.5Q1635 1532 1613.5 1521.0Q1592 1510 1586 1510Q1571 1510 1560.5 1520.5Q1550 1531 1550 1546Q1550 1559 1563.5 1571.5Q1577 1584 1595.5 1594.0Q1614 1604 1632.5 1612.0Q1651 1620 1662 1624Q1695 1637 1730.0 1645.0Q1765 1653 1801 1653Q1837 1653 1872.5 1645.0Q1908 1637 1941 1624Q1952 1620 1971.0 1612.0Q1990 1604 2008.0 1593.5Q2026 1583 2039.5 1570.5Q2053 1558 2053 1545Q2053 1531 2042.0 1520.5Q2031 1510 2017 1510Q2010 1510 1989.0 1521.0Q1968 1532 1938.0 1545.5Q1908 1559 1872.5 1570.0Q1837 1581 1801 1581ZM1011 1474Q956 1474 907.0 1450.0Q858 1426 825 1382Q819 1374 812.5 1370.0Q806 1366 795 1366Q780 1366 769.5 1376.5Q759 1387 759 1402Q759 1413 765 1422Q782 1450 810.5 1473.0Q839 1496 873.0 1512.5Q907 1529 943.0 1537.5Q979 1546 1011 1546Q1043 1546 1079.0 1537.5Q1115 1529 1148.5 1512.5Q1182 1496 1210.5 1473.0Q1239 1450 1256 1422Q1262 1413 1262 1402Q1262 1387 1251.0 1376.5Q1240 1366 1226 1366Q1209 1366 1196 1382Q1163 1426 1114.5 1450.0Q1066 1474 1011 1474ZM1334 449Q1301 449 1282.0 440.5Q1263 432 1248.5 422.0Q1234 412 1221.5 403.5Q1209 395 1190 395Q1161 395 1139.5 416.5Q1118 438 1118 467Q1118 483 1123.5 495.0Q1129 507 1140 518Q1176 556 1229.0 574.5Q1282 593 1334 593Q1384 593 1437.0 579.0Q1490 565 1537.5 539.0Q1585 513 1624.0 476.0Q1663 439 1686 392Q1694 376 1694 360Q1694 330 1673.0 309.0Q1652 288 1622 288Q1601 288 1584.5 298.5Q1568 309 1557 327Q1541 356 1516.5 378.5Q1492 401 1462.0 417.0Q1432 433 1399.5 441.0Q1367 449 1334 449ZM1550 1078Q1550 1123 1567.0 1162.0Q1584 1201 1613.0 1230.5Q1642 1260 1681.0 1277.0Q1720 1294 1765 1294Q1810 1294 1849.0 1277.0Q1888 1260 1917.5 1230.5Q1947 1201 1964.0 1162.0Q1981 1123 1981 1078Q1981 1033 1964.0 994.0Q1947 955 1917.5 926.0Q1888 897 1849.0 880.0Q1810 863 1765 863Q1720 863 1681.0 880.0Q1642 897 1613.0 926.0Q1584 955 1567.0 994.0Q1550 1033 1550 1078ZM759 1042Q759 1087 776.0 1126.0Q793 1165 822.5 1194.5Q852 1224 891.0 1241.0Q930 1258 975 1258Q1020 1258 1059.0 1241.0Q1098 1224 1127.0 1194.5Q1156 1165 1173.0 1126.0Q1190 1087 1190 1042Q1190 997 1173.0 958.0Q1156 919 1127.0 890.0Q1098 861 1059.0 844.0Q1020 827 975 827Q930 827 891.0 844.0Q852 861 822.5 890.0Q793 919 776.0 958.0Q759 997 759 1042Z" style="fill:#402a32;stroke:none" transform="scale(1,-1) translate(0,-256)" /></svg>