<?xml version="1.0" encoding="utf-8" ?>
<svg baseProfile="full" height="256" version="1.1" width="256" xmlns="http://www.w3.org/2000/svg" xmlns:ev="http://www.w3.org/2001/xml-events" xmlns:xlink="http://www.w3.org/1999/xlink"><defs /><path d="M2268 36Q2268 22 2257.5 11.0Q2247 0 2233 0Q2218 0 2207.5 10.5Q2197 21 2197 36V768Q2167 723 2127.0 687.0Q2087 651 2041.0 626.5Q1995 602 1943.0 588.5Q1891 575 1837 575Q1748 575 1669.5 609.0Q1591 643 1532.5 701.5Q1474 760 1440.0 838.5Q1406 917 1406 1006Q1406 1095 1439.5 1174.0Q1473 1253 1531.5 1311.5Q1590 1370 1668.5 1404.0Q1747 1438 1837 1438Q1927 1438 2005.5 1404.0Q2084 1370 2142.5 1311.5Q2201 1253 2234.5 1174.0Q2268 1095 2268 1006ZM2197 1006Q2197 1081 2168.5 1146.5Q2140 1212 2091.5 1260.5Q2043 1309 1977.5 1337.5Q1912 1366 1837 1366Q1762 1366 1697.0 1337.5Q1632 1309 1583.0 1260.0Q1534 1211 1506.0 1145.5Q1478 1080 1478 1006Q1478 932 1506.0 866.5Q1534 801 1583.0 752.0Q1632 703 1697.5 675.0Q1763 647 1837 647Q1911 647 1976.5 675.0Q2042 703 2091.0 752.0Q2140 801 2168.5 866.5Q2197 932 2197 1006Z" style="fill:#9b9b9b;stroke:none" transform="scale(1,-1) translate(0,-256)" /></svg>