<?xml version="1.0" encoding="utf-8" ?>
<svg baseProfile="full" height="256" version="1.1" width="256" xmlns="http://www.w3.org/2000/svg" xmlns:ev="http://www.w3.org/2001/xml-events" xmlns:xlink="http://www.w3.org/1999/xlink"><defs /><path d="M1837 611Q1755 611 1683.0 642.0Q1611 673 1557.5 726.5Q1504 780 1473.0 852.0Q1442 924 1442 1006Q1442 1088 1473.0 1160.0Q1504 1232 1557.5 1286.0Q1611 1340 1683.0 1371.0Q1755 1402 1837 1402Q1919 1402 1991.0 1371.0Q2063 1340 2117.0 1286.0Q2171 1232 2202.0 1160.0Q2233 1088 2233 1006Q2233 924 2202.0 852.0Q2171 780 2117.0 726.5Q2063 673 1991.0 642.0Q1919 611 1837 611ZM1011 647Q944 647 885.0 672.5Q826 698 782.0 742.0Q738 786 712.5 845.0Q687 904 687 971Q687 1038 712.5 1096.5Q738 1155 782.0 1199.0Q826 1243 885.0 1268.5Q944 1294 1011 1294Q1078 1294 1136.5 1268.5Q1195 1243 1239.0 1199.0Q1283 1155 1308.5 1096.5Q1334 1038 1334 971Q1334 904 1308.5 845.0Q1283 786 1239.0 742.0Q1195 698 1136.5 672.5Q1078 647 1011 647Z" style="fill:#ffffff;stroke:none" transform="scale(1,-1) translate(0,-256)" /></svg>