<?xml version="1.0" encoding="utf-8" ?>
<svg baseProfile="full" height="256" version="1.1" width="256" xmlns="http://www.w3.org/2000/svg" xmlns:ev="http://www.w3.org/2001/xml-events" xmlns:xlink="http://www.w3.org/1999/xlink"><defs /><path d="M923 1457Q921 1463 921 1465Q921 1472 926.0 1477.5Q931 1483 939 1483Q947 1483 952.0 1478.0Q957 1473 957 1465Q957 1460 956 1457ZM1065 1457Q1063 1463 1063 1465Q1063 1473 1068.0 1478.0Q1073 1483 1081 1483Q1089 1483 1094.0 1478.0Q1099 1473 1099 1465Q1099 1463 1097 1457ZM1715 1457Q1713 1463 1713 1465Q1713 1473 1718.0 1478.0Q1723 1483 1731 1483Q1739 1483 1744.0 1478.0Q1749 1473 1749 1465Q1749 1463 1747 1457ZM1856 1457Q1855 1460 1855 1465Q1855 1473 1860.0 1478.0Q1865 1483 1873 1483Q1881 1483 1886.0 1478.0Q1891 1473 1891 1465Q1891 1463 1889 1457Z" style="fill:#000000;stroke:none" transform="scale(1,-1) translate(0,-256)" /></svg>