<?xml version="1.0" encoding="utf-8" ?>
<svg baseProfile="full" height="256" version="1.1" width="256" xmlns="http://www.w3.org/2000/svg" xmlns:ev="http://www.w3.org/2001/xml-events" xmlns:xlink="http://www.w3.org/1999/xlink"><defs /><path d="M893 1463Q893 1480 907.0 1491.0Q921 1502 937 1502Q953 1502 967.0 1491.0Q981 1480 981 1463Q981 1460 978.0 1458.5Q975 1457 973 1457H901Q899 1457 896.0 1458.5Q893 1460 893 1463ZM1128 1463Q1128 1460 1125.0 1458.5Q1122 1457 1120 1457H1047Q1040 1457 1040 1463Q1040 1480 1054.0 1491.0Q1068 1502 1084 1502Q1100 1502 1114.0 1491.0Q1128 1480 1128 1463ZM1684 1463Q1684 1480 1698.5 1491.0Q1713 1502 1728 1502Q1742 1502 1757.5 1491.5Q1773 1481 1773 1466Q1773 1457 1765 1457H1692Q1690 1457 1687.0 1458.5Q1684 1460 1684 1463ZM1919 1463Q1919 1460 1916.0 1458.5Q1913 1457 1911 1457H1839Q1837 1457 1834.0 1458.5Q1831 1460 1831 1463Q1831 1480 1845.0 1491.0Q1859 1502 1875 1502Q1891 1502 1905.0 1491.0Q1919 1480 1919 1463Z" style="fill:#ffffff;stroke:none" transform="scale(1,-1) translate(0,-256)" /></svg>