<?xml version="1.0" encoding="utf-8" ?>
<svg baseProfile="full" height="256" version="1.1" width="256" xmlns="http://www.w3.org/2000/svg" xmlns:ev="http://www.w3.org/2001/xml-events" xmlns:xlink="http://www.w3.org/1999/xlink"><defs /><path d="M795 719V963H697Q688 963 688 973Q688 1000 697.5 1028.5Q707 1057 722.5 1084.0Q738 1111 757.0 1135.0Q776 1159 795 1177Q841 1221 894.0 1244.0Q947 1267 1011 1267Q1076 1267 1127.5 1244.0Q1179 1221 1226 1177Q1245 1159 1264.0 1135.0Q1283 1111 1298.5 1084.0Q1314 1057 1323.5 1028.5Q1333 1000 1333 973Q1333 963 1325 963H1226V719ZM1586 719V963H1488Q1479 963 1479 973Q1479 1000 1488.5 1028.5Q1498 1057 1513.5 1084.0Q1529 1111 1548.0 1135.0Q1567 1159 1586 1177Q1632 1221 1684.5 1244.0Q1737 1267 1801 1267Q1865 1267 1918.0 1244.0Q1971 1221 2017 1177Q2036 1159 2055.0 1135.0Q2074 1111 2089.5 1084.0Q2105 1057 2114.5 1028.5Q2124 1000 2124 973Q2124 963 2115 963H2017V719Z" style="fill:#00a6ed;stroke:none" transform="scale(1,-1) translate(0,-256)" /></svg>