<?xml version="1.0" encoding="utf-8" ?>
<svg baseProfile="full" height="256" version="1.1" width="256" xmlns="http://www.w3.org/2000/svg" xmlns:ev="http://www.w3.org/2001/xml-events" xmlns:xlink="http://www.w3.org/1999/xlink"><defs /><path d="M928 1471Q923 1471 923 1476Q923 1481 928 1481Q933 1481 933 1476Q933 1471 928 1471ZM1075 1471Q1070 1471 1070 1476Q1070 1481 1075 1481Q1080 1478 1080 1476Q1080 1473 1075 1471ZM1738 1471Q1732 1471 1732 1476Q1732 1481 1738 1481Q1743 1478 1743 1476Q1743 1473 1738 1471ZM1884 1471Q1879 1471 1879 1476Q1879 1481 1884 1481Q1889 1481 1889 1476Q1889 1471 1884 1471Z" style="fill:#ffffff;stroke:none" transform="scale(1,-1) translate(0,-256)" /></svg>