<?xml version="1.0" encoding="utf-8" ?>
<svg baseProfile="full" height="256" version="1.1" width="256" xmlns="http://www.w3.org/2000/svg" xmlns:ev="http://www.w3.org/2001/xml-events" xmlns:xlink="http://www.w3.org/1999/xlink"><defs /><path d="M1124 1537Q1131 1532 1131 1524Q1131 1517 1126.0 1512.5Q1121 1508 1114 1508Q1106 1508 1094.0 1514.0Q1082 1520 1062 1520Q1055 1520 1050.5 1525.0Q1046 1530 1046 1536Q1046 1547 1055.0 1550.0Q1064 1553 1072 1553Q1085 1553 1098.0 1549.5Q1111 1546 1122 1538H1124ZM885 1524Q885 1531 892.0 1536.5Q899 1542 908.5 1546.0Q918 1550 928.0 1551.5Q938 1553 944 1553Q952 1553 961.0 1550.0Q970 1547 970 1536Q970 1524 962.0 1522.0Q954 1520 945 1520Q929 1520 919.0 1514.0Q909 1508 901 1508Q885 1508 885 1524ZM1681 1524Q1681 1517 1686.0 1512.5Q1691 1508 1698 1508Q1703 1508 1708 1511Q1711 1509 1713.5 1512.0Q1716 1515 1719 1516Q1728 1519 1734.5 1519.5Q1741 1520 1750 1520Q1758 1520 1762.0 1525.0Q1766 1530 1766 1537Q1766 1548 1757.0 1550.5Q1748 1553 1740 1553Q1712 1553 1690 1538Q1687 1540 1684.0 1533.5Q1681 1527 1681 1524ZM1927 1524Q1927 1531 1920.0 1536.5Q1913 1542 1903.5 1546.0Q1894 1550 1884.5 1551.5Q1875 1553 1869 1553Q1861 1553 1851.5 1550.0Q1842 1547 1842 1536Q1842 1524 1850.0 1522.0Q1858 1520 1867 1520Q1882 1520 1892.5 1514.0Q1903 1508 1911 1508Q1927 1508 1927 1524Z" style="fill:#d37034;stroke:none" transform="scale(1,-1) translate(0,-256)" /></svg>