<?xml version="1.0" encoding="utf-8" ?>
<svg baseProfile="full" height="256" version="1.1" width="256" xmlns="http://www.w3.org/2000/svg" xmlns:ev="http://www.w3.org/2001/xml-events" xmlns:xlink="http://www.w3.org/1999/xlink"><defs /><path d="M914 1457Q913 1460 913 1465Q913 1476 920.5 1484.0Q928 1492 939 1492Q950 1492 958.0 1484.0Q966 1476 966 1465Q966 1460 965 1457ZM1056 1457Q1055 1460 1055 1465Q1055 1476 1062.5 1484.0Q1070 1492 1081 1492Q1092 1492 1100.0 1484.0Q1108 1476 1108 1465Q1108 1463 1107.5 1461.0Q1107 1459 1107 1457ZM1706 1457Q1704 1463 1704 1465Q1704 1476 1712.0 1484.0Q1720 1492 1731 1492Q1742 1492 1750.0 1484.0Q1758 1476 1758 1465Q1758 1463 1757.5 1461.0Q1757 1459 1757 1457ZM1847 1457Q1846 1460 1846 1465Q1846 1476 1854.0 1484.0Q1862 1492 1873 1492Q1884 1492 1891.5 1484.0Q1899 1476 1899 1465Q1899 1460 1898 1457Z" style="fill:#7d4533;stroke:none" transform="scale(1,-1) translate(0,-256)" /></svg>