<?xml version="1.0" encoding="utf-8" ?>
<svg baseProfile="full" height="256" version="1.1" width="256" xmlns="http://www.w3.org/2000/svg" xmlns:ev="http://www.w3.org/2001/xml-events" xmlns:xlink="http://www.w3.org/1999/xlink"><defs /><path d="M1208 1601Q1208 1576 1201.5 1548.5Q1195 1521 1190 1496Q1187 1481 1171 1479Q1172 1490 1173.0 1501.0Q1174 1512 1174 1523Q1174 1534 1169.5 1539.5Q1165 1545 1158 1552Q1146 1564 1146.0 1576.5Q1146 1589 1146 1605Q1146 1615 1127.5 1620.5Q1109 1626 1085.5 1629.0Q1062 1632 1040.0 1632.5Q1018 1633 1011 1633Q947 1633 889 1620Q875 1617 875.5 1603.5Q876 1590 876 1579Q876 1568 871.5 1562.5Q867 1557 862.0 1551.5Q857 1546 852.5 1540.0Q848 1534 848 1523Q848 1512 849.0 1501.0Q850 1490 851 1479Q835 1479 832 1496Q827 1521 820.0 1548.5Q813 1576 813 1601Q813 1619 820.5 1629.5Q828 1640 838.5 1647.5Q849 1655 861.5 1661.5Q874 1668 885 1678Q902 1694 917.5 1709.5Q933 1725 958 1725Q972 1725 984.0 1720.0Q996 1715 1010 1715Q1024 1715 1035.5 1719.0Q1047 1723 1059 1723Q1086 1723 1102.0 1709.0Q1118 1695 1136 1678Q1146 1668 1159.0 1661.5Q1172 1655 1182.5 1647.5Q1193 1640 1200.5 1629.5Q1208 1619 1208 1601ZM1604 1601Q1604 1575 1610.5 1548.0Q1617 1521 1622 1496Q1625 1481 1641 1479Q1640 1490 1639.0 1501.0Q1638 1512 1638 1523Q1638 1533 1642.5 1539.0Q1647 1545 1652.5 1550.5Q1658 1556 1662.5 1562.0Q1667 1568 1667 1579V1605Q1667 1615 1685.5 1620.5Q1704 1626 1727.5 1629.0Q1751 1632 1772.5 1632.5Q1794 1633 1801 1633Q1865 1633 1923 1620Q1937 1617 1936.5 1603.5Q1936 1590 1936 1579Q1936 1568 1940.5 1562.0Q1945 1556 1950.0 1551.0Q1955 1546 1959.5 1540.0Q1964 1534 1964 1525Q1964 1514 1963.0 1502.0Q1962 1490 1961 1479Q1978 1479 1981 1496Q1986 1521 1992.5 1548.5Q1999 1576 1999 1601Q1999 1620 1991.5 1630.5Q1984 1641 1973.5 1648.0Q1963 1655 1950.0 1661.5Q1937 1668 1927 1678Q1910 1694 1894.5 1709.5Q1879 1725 1854 1725Q1840 1725 1827.5 1720.0Q1815 1715 1801 1715Q1788 1715 1777.0 1719.0Q1766 1723 1753 1723Q1726 1723 1710.0 1709.0Q1694 1695 1676 1678Q1665 1668 1652.5 1661.5Q1640 1655 1629.5 1647.5Q1619 1640 1611.5 1629.5Q1604 1619 1604 1601Z" style="fill:#f1a11e;stroke:none" transform="scale(1,-1) translate(0,-256)" /></svg>