<?xml version="1.0" encoding="utf-8" ?>
<svg baseProfile="full" height="256" version="1.1" width="256" xmlns="http://www.w3.org/2000/svg" xmlns:ev="http://www.w3.org/2001/xml-events" xmlns:xlink="http://www.w3.org/1999/xlink"><defs /><path d="M984 1407 1000 1464Q1002 1474 1011 1474Q1020 1474 1022 1464L1037 1407V1404Q1037 1395 1035 1391Q1028 1384 1022 1384H999Q998 1384 995.5 1385.0Q993 1386 992 1386Q987 1391 984.5 1395.5Q982 1400 984 1407ZM1801 1474Q1792 1474 1790 1464L1775 1407Q1773 1399 1777.5 1391.5Q1782 1384 1790 1384H1813Q1814 1384 1816.5 1385.0Q1819 1386 1820 1386Q1825 1391 1826.5 1394.0Q1828 1397 1828 1404V1407L1812 1464Q1810 1474 1801 1474Z" style="fill:#ed9200;stroke:none" transform="scale(1,-1) translate(0,-256)" /></svg>