<?xml version="1.0" encoding="utf-8" ?>
<svg baseProfile="full" height="256" version="1.1" width="256" xmlns="http://www.w3.org/2000/svg" xmlns:ev="http://www.w3.org/2001/xml-events" xmlns:xlink="http://www.w3.org/1999/xlink"><defs /><path d="M759 1643Q759 1662 767.0 1677.5Q775 1693 788.5 1703.5Q802 1714 819.0 1719.5Q836 1725 854 1725Q896 1725 933.0 1702.0Q970 1679 999 1650Q1090 1556 1182.0 1464.0Q1274 1372 1368 1280Q1375 1273 1381.5 1267.0Q1388 1261 1394 1254Q1399 1249 1402.0 1244.0Q1405 1239 1406 1231Q1407 1239 1410.0 1244.0Q1413 1249 1418 1254Q1421 1258 1424.5 1261.0Q1428 1264 1432 1268Q1484 1319 1534.0 1369.5Q1584 1420 1635 1471Q1680 1516 1724.0 1560.0Q1768 1604 1812 1650Q1841 1680 1878.0 1702.5Q1915 1725 1958 1725Q1976 1725 1993.0 1719.5Q2010 1714 2023.5 1703.5Q2037 1693 2045.0 1677.5Q2053 1662 2053 1643Q2053 1628 2047 1613Q2032 1571 2012.5 1532.0Q1993 1493 1974 1454Q1933 1369 1894.0 1284.5Q1855 1200 1812 1116Q1796 1086 1773.0 1065.5Q1750 1045 1714 1045Q1687 1045 1663.5 1054.5Q1640 1064 1617 1078L1540 1124Q1512 1141 1482.0 1156.0Q1452 1171 1427 1191Q1419 1198 1413.0 1205.5Q1407 1213 1406 1224Q1405 1213 1399.0 1205.5Q1393 1198 1385 1191Q1371 1179 1346.5 1164.0Q1322 1149 1294.0 1133.5Q1266 1118 1239.5 1103.5Q1213 1089 1194 1078Q1172 1064 1147.5 1054.5Q1123 1045 1097 1045Q1061 1045 1038.0 1065.5Q1015 1086 999 1116Q988 1137 978.5 1158.0Q969 1179 959 1200Q925 1272 891.0 1341.5Q857 1411 824 1483Q809 1515 793.0 1547.0Q777 1579 765 1613Q759 1628 759 1643Z" style="fill:#f4f4f4;stroke:none" transform="scale(1,-1) translate(0,-256)" /></svg>