<?xml version="1.0" encoding="utf-8" ?>
<svg baseProfile="full" height="256" version="1.1" width="256" xmlns="http://www.w3.org/2000/svg" xmlns:ev="http://www.w3.org/2001/xml-events" xmlns:xlink="http://www.w3.org/1999/xlink"><defs /><path d="M400 1294Q400 1354 422.5 1406.0Q445 1458 484.0 1497.0Q523 1536 575.0 1558.5Q627 1581 687 1581H2125Q2184 1581 2236.5 1558.5Q2289 1536 2328.0 1497.0Q2367 1458 2389.5 1405.5Q2412 1353 2412 1294V0Q2412 -59 2389.5 -111.5Q2367 -164 2328.0 -203.0Q2289 -242 2236.5 -264.5Q2184 -287 2125 -287H1765L1406 -108L1047 -287H687Q627 -287 575.0 -264.5Q523 -242 484.0 -203.0Q445 -164 422.5 -112.0Q400 -60 400 0Z" style="fill:#5092ff;stroke:none" transform="scale(1,-1) translate(0,-256)" /></svg>