<?xml version="1.0" encoding="utf-8" ?>
<svg baseProfile="full" height="256" version="1.1" width="256" xmlns="http://www.w3.org/2000/svg" xmlns:ev="http://www.w3.org/2001/xml-events" xmlns:xlink="http://www.w3.org/1999/xlink"><defs /><path d="M400 1599Q400 1612 408 1620L505 1717Q513 1725 526 1725Q535 1725 540 1721L809 1559Q834 1544 838.5 1523.0Q843 1502 842.5 1479.0Q842 1456 843.0 1433.0Q844 1410 863 1391L1426 827L1297 698L733 1262Q721 1274 706.5 1278.0Q692 1282 677.0 1282.5Q662 1283 646.0 1282.0Q630 1281 615.5 1283.0Q601 1285 588.0 1292.0Q575 1299 565 1316L404 1585Q400 1590 400 1599Z" style="fill:#b4acbc;stroke:none" transform="scale(1,-1) translate(0,-256)" /></svg>