<?xml version="1.0" encoding="utf-8" ?>
<svg baseProfile="full" height="256" version="1.1" width="256" xmlns="http://www.w3.org/2000/svg" xmlns:ev="http://www.w3.org/2001/xml-events" xmlns:xlink="http://www.w3.org/1999/xlink"><defs /><path d="M1614 851Q1632 865 1653.5 873.5Q1675 882 1698 882Q1724 882 1748.0 871.5Q1772 861 1790 843L2374 259Q2392 241 2402.0 217.0Q2412 193 2412 167Q2412 113 2374 75L2050 -249Q2032 -267 2008.0 -277.0Q1984 -287 1958 -287Q1932 -287 1908.0 -277.0Q1884 -267 1866 -249L1282 335Q1243 374 1243 427Q1243 474 1274 511Q1256 492 1236.5 481.5Q1217 471 1190 471Q1168 471 1148.5 479.5Q1129 488 1114.0 503.0Q1099 518 1090.5 537.5Q1082 557 1082 579Q1082 601 1090.5 621.0Q1099 641 1114 656L1470 1012Q1485 1027 1505.0 1035.0Q1525 1043 1546 1043Q1568 1043 1588.0 1034.5Q1608 1026 1622.0 1011.5Q1636 997 1644.5 977.0Q1653 957 1653 935Q1653 911 1643.0 888.5Q1633 866 1614 851Z" style="fill:#f70a8d;stroke:none" transform="scale(1,-1) translate(0,-256)" /></svg>