<?xml version="1.0" encoding="utf-8" ?>
<svg baseProfile="full" height="256" version="1.1" width="256" xmlns="http://www.w3.org/2000/svg" xmlns:ev="http://www.w3.org/2001/xml-events" xmlns:xlink="http://www.w3.org/1999/xlink"><defs /><path d="M2194 68Q2162 68 2138 92L1623 606Q1599 630 1599 663Q1599 696 1623.0 719.5Q1647 743 1680 743Q1714 743 1737 720L2251 205Q2275 181 2275 148Q2275 132 2268.5 117.5Q2262 103 2251.0 92.0Q2240 81 2225.0 74.5Q2210 68 2194 68ZM1976 -150Q1944 -150 1920 -126L1405 388Q1382 411 1382 445Q1382 478 1405.5 502.0Q1429 526 1462 526Q1495 526 1519 502L2033 -13Q2056 -36 2056 -70Q2056 -86 2049.5 -100.5Q2043 -115 2032.5 -126.0Q2022 -137 2007.0 -143.5Q1992 -150 1976 -150Z" style="fill:#ca0b4a;stroke:none" transform="scale(1,-1) translate(0,-256)" /></svg>