<?xml version="1.0" encoding="utf-8" ?>
<svg baseProfile="full" height="256" version="1.1" width="256" xmlns="http://www.w3.org/2000/svg" xmlns:ev="http://www.w3.org/2001/xml-events" xmlns:xlink="http://www.w3.org/1999/xlink"><defs /><path d="M1011 1534Q1011 1488 1010.0 1439.0Q1009 1390 1002 1345Q1001 1334 987 1327Q986 1326 983 1326Q892 1298 810.5 1247.5Q729 1197 663 1128Q596 1057 549.5 971.0Q503 885 476 791Q475 799 475.0 806.0Q475 813 475 821Q475 923 514.0 1015.5Q553 1108 619.0 1181.5Q685 1255 773.0 1304.5Q861 1354 960 1370Q971 1412 983.5 1452.5Q996 1493 1011 1534ZM1671 1498Q1617 1524 1560.0 1540.5Q1503 1557 1442 1557Q1381 1557 1324.0 1540.5Q1267 1524 1213 1498Q1228 1529 1253.0 1553.5Q1278 1578 1308.5 1595.0Q1339 1612 1373.5 1620.5Q1408 1629 1442 1629Q1476 1629 1510.0 1620.0Q1544 1611 1575.0 1594.5Q1606 1578 1631.0 1553.5Q1656 1529 1671 1498ZM987 757Q1029 777 1067.5 788.5Q1106 800 1153 800Q1190 800 1226 791Q883 703 795 360Q786 396 786 433Q786 524 830.5 601.5Q875 679 947 732Q928 762 908.0 786.0Q888 810 865.5 829.5Q843 849 816.5 865.5Q790 882 759 899Q785 912 817 912Q846 912 876.5 899.5Q907 887 931.5 865.5Q956 844 971.5 816.0Q987 788 987 757ZM1879 462Q1912 462 1941.5 473.0Q1971 484 1993.5 504.0Q2016 524 2031.5 551.5Q2047 579 2053 611Q2056 596 2056 582Q2056 552 2046.0 525.0Q2036 498 2019.0 475.5Q2002 453 1978.0 436.5Q1954 420 1927 411Q1899 402 1871.5 401.0Q1844 400 1815 398Q1832 378 1842.0 354.5Q1852 331 1852 305Q1852 276 1837 252Q1811 294 1780.0 330.5Q1749 367 1710 396Q1585 396 1461.0 402.5Q1337 409 1213 431Q1261 440 1309.5 445.5Q1358 451 1407 456Q1431 472 1450.5 489.0Q1470 506 1487.0 525.0Q1504 544 1519.5 565.0Q1535 586 1550 611Q1565 587 1565 557Q1565 531 1554.5 506.5Q1544 482 1527 463Q1566 465 1605.5 466.0Q1645 467 1684 467Q1733 467 1781.5 464.5Q1830 462 1879 462ZM1981 942Q2061 944 2134.0 912.0Q2207 880 2263.0 824.5Q2319 769 2352.0 696.0Q2385 623 2385 544Q2385 504 2376 467Q2335 640 2232.0 754.5Q2129 869 1957 920Q1902 872 1837.0 845.0Q1772 818 1699 818Q1659 818 1622 827Q1999 917 2089 1294Q2098 1258 2098 1220Q2098 1140 2066.5 1069.5Q2035 999 1981 942Z" style="fill:#f70a8d;stroke:none" transform="scale(1,-1) translate(0,-256)" /></svg>