<?xml version="1.0" encoding="utf-8" ?>
<svg baseProfile="full" height="256" version="1.1" width="256" xmlns="http://www.w3.org/2000/svg" xmlns:ev="http://www.w3.org/2001/xml-events" xmlns:xlink="http://www.w3.org/1999/xlink"><defs /><path d="M1427 1725Q1572 1725 1707.0 1687.0Q1842 1649 1959.5 1580.5Q2077 1512 2173.5 1415.5Q2270 1319 2339.0 1201.5Q2408 1084 2446.0 949.0Q2484 814 2484 668Q2484 629 2485.0 590.0Q2486 551 2485.0 512.5Q2484 474 2479.0 435.5Q2474 397 2463 360Q2439 280 2392.0 214.0Q2345 148 2281.5 100.5Q2218 53 2141.5 26.5Q2065 0 1981 0H1226Q1149 0 1080.5 27.5Q1012 55 959.5 103.5Q907 152 873.5 218.0Q840 284 833 360H683Q609 360 544.5 388.0Q480 416 432.0 464.0Q384 512 356.0 576.5Q328 641 328 715Q328 854 364.0 983.5Q400 1113 466.0 1225.0Q532 1337 624.0 1429.0Q716 1521 828.0 1587.0Q940 1653 1069.0 1689.0Q1198 1725 1338 1725Z" style="fill:#ff6dc6;stroke:none" transform="scale(1,-1) translate(0,-256)" /></svg>