<?xml version="1.0" encoding="utf-8" ?>
<svg baseProfile="full" height="256" version="1.1" width="256" xmlns="http://www.w3.org/2000/svg" xmlns:ev="http://www.w3.org/2001/xml-events" xmlns:xlink="http://www.w3.org/1999/xlink"><defs /><path d="M1973 342Q1973 359 1981 375L2099 610Q2106 624 2106 641Q2106 665 2093.5 685.0Q2081 705 2066.0 724.0Q2051 743 2038.5 763.0Q2026 783 2026 806Q2026 824 2033 838L2159 1089Q2173 1119 2181 1150H2017Q2002 1150 1991.5 1160.5Q1981 1171 1981 1186V1273Q1981 1294 1999 1304L2189 1414V1653Q2189 1682 2169.5 1702.5Q2150 1723 2121 1725H2268Q2298 1725 2319.0 1704.0Q2340 1683 2340 1653V1218Q2340 1149 2310 1089L2184 838Q2177 824 2177 807Q2177 783 2189.5 763.0Q2202 743 2217.0 724.0Q2232 705 2244.5 685.0Q2257 665 2257 642Q2257 624 2250 610L2132 375Q2125 361 2125 342V90H1973ZM1839 307Q1831 323 1824.0 337.5Q1817 352 1812.0 366.5Q1807 381 1804.5 396.5Q1802 412 1802 431Q1802 475 1815.5 506.0Q1829 537 1848 575H1939Q1954 575 1964.5 564.0Q1975 553 1975 539Q1975 533 1966.0 516.0Q1957 499 1943.5 475.5Q1930 452 1914.0 426.0Q1898 400 1883.0 376.0Q1868 352 1856.0 333.5Q1844 315 1839 307Z" style="fill:#5c2614;stroke:none" transform="scale(1,-1) translate(0,-256)" /></svg>