<?xml version="1.0" encoding="utf-8" ?>
<svg baseProfile="full" height="256" version="1.1" width="256" xmlns="http://www.w3.org/2000/svg" xmlns:ev="http://www.w3.org/2001/xml-events" xmlns:xlink="http://www.w3.org/1999/xlink"><defs /><path d="M1891 90H2140Q2166 90 2181.5 70.5Q2197 51 2197 27V-225Q2197 -249 2181.5 -268.5Q2166 -288 2140 -288H1891Q1868 -288 1854.0 -271.0Q1840 -254 1840 -231Q1840 -219 1846.0 -208.0Q1852 -197 1862 -189Q1851 -181 1845.0 -169.5Q1839 -158 1839 -144Q1839 -116 1862 -100Q1851 -92 1845.0 -80.5Q1839 -69 1839 -55Q1839 -27 1862 -11Q1853 -3 1846.5 8.5Q1840 20 1840 32Q1840 54 1854.0 72.0Q1868 90 1891 90Z" style="fill:#96c34a;stroke:none" transform="scale(1,-1) translate(0,-256)" /></svg>