<?xml version="1.0" encoding="utf-8" ?>
<svg baseProfile="full" height="256" version="1.1" width="256" xmlns="http://www.w3.org/2000/svg" xmlns:ev="http://www.w3.org/2001/xml-events" xmlns:xlink="http://www.w3.org/1999/xlink"><defs /><path d="M1093 639V-288H618Q610 -288 605.0 -282.5Q600 -277 600 -270Q600 -263 608.5 -246.0Q617 -229 627.5 -209.5Q638 -190 647.0 -173.0Q656 -156 656 -149Q656 -143 647.0 -143.5Q638 -144 627.5 -144.0Q617 -144 608.5 -141.0Q600 -138 600 -126Q600 -118 608.5 -101.0Q617 -84 627.5 -65.5Q638 -47 647.0 -30.0Q656 -13 656 -6Q656 0 647.0 0.0Q638 0 627.5 0.0Q617 0 608.5 3.0Q600 6 600 18Q600 26 608.5 43.0Q617 60 627.5 78.5Q638 97 647.0 113.5Q656 130 656 138Q656 144 646.5 144.0Q637 144 626.0 144.0Q615 144 605.5 147.0Q596 150 596 162Q596 163 596.5 164.5Q597 166 597 167Q630 267 673.0 343.5Q716 420 775.0 476.5Q834 533 912.5 572.5Q991 612 1093 639ZM1524 639V-288H1998Q2006 -288 2011.0 -282.5Q2016 -277 2016 -270Q2016 -263 2007.0 -246.0Q1998 -229 1987.5 -209.5Q1977 -190 1968.5 -173.0Q1960 -156 1960 -149Q1960 -143 1968.5 -143.5Q1977 -144 1987.5 -144.0Q1998 -144 2007.0 -141.0Q2016 -138 2016 -126Q2016 -118 2007.0 -101.0Q1998 -84 1987.5 -65.5Q1977 -47 1968.5 -30.0Q1960 -13 1960 -6Q1960 0 1968.5 0.0Q1977 0 1987.5 0.0Q1998 0 2007.0 3.0Q2016 6 2016 18Q2016 26 2007.0 43.0Q1998 60 1987.5 78.5Q1977 97 1968.5 113.5Q1960 130 1960 138Q1960 144 1969.5 144.0Q1979 144 1990.0 144.0Q2001 144 2010.5 147.0Q2020 150 2020 162Q2020 163 2019.5 164.5Q2019 166 2019 167Q1987 267 1944.0 343.5Q1901 420 1841.5 476.5Q1782 533 1704.0 572.5Q1626 612 1524 639Z" style="fill:#b97028;stroke:none" transform="scale(1,-1) translate(0,-256)" /></svg>