<?xml version="1.0" encoding="utf-8" ?>
<svg baseProfile="full" height="256" version="1.1" width="256" xmlns="http://www.w3.org/2000/svg" xmlns:ev="http://www.w3.org/2001/xml-events" xmlns:xlink="http://www.w3.org/1999/xlink"><defs /><path d="M1228 979Q1214 971 1198.5 966.0Q1183 961 1166 961Q1142 961 1121.5 970.0Q1101 979 1085.5 994.0Q1070 1009 1061.0 1029.5Q1052 1050 1052 1074Q1052 1098 1061.0 1118.5Q1070 1139 1085.5 1154.0Q1101 1169 1121.5 1178.0Q1142 1187 1166 1187Q1188 1187 1208.0 1179.0Q1228 1171 1243.0 1156.5Q1258 1142 1267.5 1123.0Q1277 1104 1279 1082ZM1463 961Q1487 961 1507.5 970.0Q1528 979 1543.0 994.0Q1558 1009 1567.0 1029.5Q1576 1050 1576 1074Q1576 1098 1567.0 1118.5Q1558 1139 1543.0 1154.0Q1528 1169 1507.5 1178.0Q1487 1187 1463 1187Q1439 1187 1418.5 1178.0Q1398 1169 1382.5 1154.0Q1367 1139 1358.0 1118.5Q1349 1098 1349 1074Q1349 1070 1349.5 1062.5Q1350 1055 1352 1052Q1358 1039 1364.0 1026.0Q1370 1013 1377 1000Q1382 991 1392.5 984.0Q1403 977 1415.5 971.5Q1428 966 1441.0 963.5Q1454 961 1463 961Z" style="fill:#ffce7c;stroke:none" transform="scale(1,-1) translate(0,-256)" /></svg>