<?xml version="1.0" encoding="utf-8" ?>
<svg baseProfile="full" height="256" version="1.1" width="256" xmlns="http://www.w3.org/2000/svg" xmlns:ev="http://www.w3.org/2001/xml-events" xmlns:xlink="http://www.w3.org/1999/xlink"><defs /><path d="M1269 914Q1261 914 1255.5 920.0Q1250 926 1250 934Q1250 942 1255.5 948.0Q1261 954 1269 954Q1277 954 1283.0 948.0Q1289 942 1289 934Q1289 926 1283.0 920.0Q1277 914 1269 914ZM1349 914Q1341 914 1335.5 920.0Q1330 926 1330 934Q1330 942 1335.5 948.0Q1341 954 1349 954Q1357 954 1363.0 948.0Q1369 942 1369 934Q1369 926 1363.0 920.0Q1357 914 1349 914Z" style="fill:#000000;stroke:none" transform="scale(1,-1) translate(0,-256)" /></svg>