<?xml version="1.0" encoding="utf-8" ?>
<svg baseProfile="full" height="256" version="1.1" width="256" xmlns="http://www.w3.org/2000/svg" xmlns:ev="http://www.w3.org/2001/xml-events" xmlns:xlink="http://www.w3.org/1999/xlink"><defs /><path d="M1166 1032Q1149 1032 1136.0 1044.0Q1123 1056 1123 1074Q1123 1092 1136.0 1104.0Q1149 1116 1166 1116Q1183 1116 1195.5 1103.5Q1208 1091 1208 1074Q1208 1057 1195.5 1044.5Q1183 1032 1166 1032ZM1463 1032Q1446 1032 1433.5 1044.5Q1421 1057 1421 1074Q1421 1091 1433.5 1103.5Q1446 1116 1463 1116Q1480 1116 1492.5 1103.5Q1505 1091 1505 1074Q1505 1057 1492.5 1044.5Q1480 1032 1463 1032Z" style="fill:#990838;stroke:none" transform="scale(1,-1) translate(0,-256)" /></svg>