<?xml version="1.0" encoding="utf-8" ?>
<svg baseProfile="full" height="256" version="1.1" width="256" xmlns="http://www.w3.org/2000/svg" xmlns:ev="http://www.w3.org/2001/xml-events" xmlns:xlink="http://www.w3.org/1999/xlink"><defs /><path d="M1392 1581Q1459 1581 1515.5 1557.0Q1572 1533 1613.0 1490.5Q1654 1448 1677.5 1391.0Q1701 1334 1701 1268Q1701 1248 1700.0 1228.5Q1699 1209 1697 1189Q1712 1198 1733.5 1211.0Q1755 1224 1779.0 1236.0Q1803 1248 1826.0 1256.0Q1849 1264 1866 1264Q1895 1264 1895 1235Q1895 1220 1887.0 1197.5Q1879 1175 1866.0 1148.0Q1853 1121 1836.5 1092.5Q1820 1064 1803.5 1039.0Q1787 1014 1771.5 994.0Q1756 974 1745 965Q1731 952 1717.5 944.5Q1704 937 1684 935Q1682 886 1678.5 843.5Q1675 801 1663.5 763.5Q1652 726 1629.0 692.0Q1606 658 1564 627Q1693 585 1799.5 507.0Q1906 429 1982.0 324.5Q2058 220 2100.0 94.5Q2142 -31 2142 -167V-288H474V-167Q474 -31 516.0 94.5Q558 220 634.0 324.5Q710 429 817.0 507.5Q924 586 1053 627Q1011 658 988.0 692.0Q965 726 953.5 764.0Q942 802 938.5 844.5Q935 887 932 935Q913 939 900.5 946.0Q888 953 874 966Q857 981 831.5 1017.0Q806 1053 782.0 1094.0Q758 1135 741.0 1174.0Q724 1213 724 1235Q724 1264 754 1264Q770 1264 792.5 1256.5Q815 1249 837.5 1237.5Q860 1226 880.5 1214.0Q901 1202 915 1193Q914 1204 913.0 1215.5Q912 1227 912 1238Q912 1308 933.0 1370.5Q954 1433 993.5 1479.5Q1033 1526 1091.0 1553.5Q1149 1581 1223 1581H1392Z" style="fill:#96c34a;stroke:none" transform="scale(1,-1) translate(0,-256)" /></svg>