<?xml version="1.0" encoding="utf-8" ?>
<svg baseProfile="full" height="256" version="1.1" width="256" xmlns="http://www.w3.org/2000/svg" xmlns:ev="http://www.w3.org/2001/xml-events" xmlns:xlink="http://www.w3.org/1999/xlink"><defs /><path d="M1145 1437Q1145 1414 1129.0 1399.0Q1113 1384 1091 1384Q1069 1384 1053.5 1399.5Q1038 1415 1038 1437Q1038 1459 1053.0 1475.0Q1068 1491 1091 1491Q1114 1491 1129.5 1475.5Q1145 1460 1145 1437ZM1275 1390Q1275 1375 1264.5 1364.5Q1254 1354 1239 1354Q1225 1354 1214.0 1365.0Q1203 1376 1203 1390Q1203 1404 1214.0 1415.0Q1225 1426 1239 1426Q1254 1426 1264.5 1415.5Q1275 1405 1275 1390ZM1215 953Q1186 936 1151 936Q1125 936 1101.5 946.0Q1078 956 1060.5 973.5Q1043 991 1033.0 1014.5Q1023 1038 1023 1064Q1023 1090 1033.0 1113.5Q1043 1137 1060.5 1154.5Q1078 1172 1101.5 1182.0Q1125 1192 1151 1192Q1175 1192 1196.5 1183.5Q1218 1175 1235.5 1160.0Q1253 1145 1264.0 1124.5Q1275 1104 1278 1080Q1282 1091 1289.0 1098.0Q1296 1105 1308 1105Q1317 1105 1324.0 1100.0Q1331 1095 1335.5 1087.5Q1340 1080 1343.5 1071.5Q1347 1063 1350 1056Q1350 1058 1349.5 1060.0Q1349 1062 1349 1064Q1349 1090 1359.0 1113.5Q1369 1137 1386.5 1154.5Q1404 1172 1427.5 1182.0Q1451 1192 1477 1192Q1503 1192 1526.5 1182.0Q1550 1172 1567.5 1154.5Q1585 1137 1595.0 1113.5Q1605 1090 1605 1064Q1605 1037 1595.0 1014.0Q1585 991 1567.5 973.5Q1550 956 1527.0 946.0Q1504 936 1477 936Q1428 936 1392 969Q1396 961 1402.5 947.5Q1409 934 1409 925Q1409 914 1401.0 905.5Q1393 897 1381 897H1234Q1222 897 1213.5 906.0Q1205 915 1205 927Q1205 934 1208.5 940.5Q1212 947 1215 953ZM2125 216Q2153 216 2175.0 197.5Q2197 179 2197 150V0H2053V150Q2053 179 2075.5 197.5Q2098 216 2125 216Z" style="fill:#44911b;stroke:none" transform="scale(1,-1) translate(0,-256)" /></svg>