<?xml version="1.0" encoding="utf-8" ?>
<svg baseProfile="full" height="256" version="1.1" width="256" xmlns="http://www.w3.org/2000/svg" xmlns:ev="http://www.w3.org/2001/xml-events" xmlns:xlink="http://www.w3.org/1999/xlink"><defs /><path d="M2410 -213H400V469Q440 469 469.0 457.5Q498 446 525.5 432.0Q553 418 582.0 406.5Q611 395 651 395Q691 395 720.5 406.5Q750 418 777.0 432.0Q804 446 833.5 457.5Q863 469 903 469Q943 469 972.0 457.5Q1001 446 1028.5 432.0Q1056 418 1085.0 406.5Q1114 395 1154 395Q1194 395 1223.5 406.5Q1253 418 1280.0 432.0Q1307 446 1336.5 457.5Q1366 469 1406 469Q1446 469 1475.5 457.5Q1505 446 1532.0 432.0Q1559 418 1588.5 406.5Q1618 395 1658 395Q1698 395 1727.0 406.5Q1756 418 1783.5 432.0Q1811 446 1840.0 457.5Q1869 469 1909 469Q1949 469 1978.5 457.5Q2008 446 2035.0 432.0Q2062 418 2091.5 406.5Q2121 395 2161 395Q2201 395 2230.0 406.5Q2259 418 2286.5 432.0Q2314 446 2343.0 457.5Q2372 469 2412 469Z" style="fill:#0084ce;stroke:none" transform="scale(1,-1) translate(0,-256)" /></svg>