<?xml version="1.0" encoding="utf-8" ?>
<svg baseProfile="full" height="256" version="1.1" width="256" xmlns="http://www.w3.org/2000/svg" xmlns:ev="http://www.w3.org/2001/xml-events" xmlns:xlink="http://www.w3.org/1999/xlink"><defs /><path d="M1230 1311Q1252 1311 1275.0 1304.0Q1298 1297 1316.5 1283.5Q1335 1270 1346.5 1250.5Q1358 1231 1358 1206Q1358 1169 1342.0 1138.5Q1326 1108 1303 1081Q1292 1067 1280.5 1040.0Q1269 1013 1259.0 982.0Q1249 951 1242.0 922.0Q1235 893 1232 876H1069L946 960Q953 985 968.0 1021.0Q983 1057 1003.5 1096.0Q1024 1135 1049.5 1173.5Q1075 1212 1104.0 1242.5Q1133 1273 1165.0 1292.0Q1197 1311 1230 1311Z" style="fill:#ff6723;stroke:none" transform="scale(1,-1) translate(0,-256)" /></svg>