<?xml version="1.0" encoding="utf-8" ?>
<svg baseProfile="full" height="256" version="1.1" width="256" xmlns="http://www.w3.org/2000/svg" xmlns:ev="http://www.w3.org/2001/xml-events" xmlns:xlink="http://www.w3.org/1999/xlink"><defs /><path d="M2410 -214H400V210Q440 210 469.0 198.5Q498 187 525.0 172.5Q552 158 581.5 146.5Q611 135 651 135Q691 135 720.5 146.5Q750 158 777.0 172.5Q804 187 833.5 198.5Q863 210 903 210Q943 210 972.5 198.5Q1002 187 1029.0 172.5Q1056 158 1085.0 146.5Q1114 135 1154 135Q1194 135 1223.5 146.5Q1253 158 1280.0 172.5Q1307 187 1336.5 198.5Q1366 210 1406 210Q1446 210 1475.5 198.5Q1505 187 1532.0 172.5Q1559 158 1588.5 146.5Q1618 135 1658 135Q1698 135 1727.0 146.5Q1756 158 1783.0 172.5Q1810 187 1839.5 198.5Q1869 210 1909 210Q1949 210 1978.5 198.5Q2008 187 2035.0 172.5Q2062 158 2091.5 146.5Q2121 135 2161 135Q2201 135 2230.0 146.5Q2259 158 2286.0 172.5Q2313 187 2342.5 198.5Q2372 210 2412 210Z" style="fill:#26c9fc;stroke:none" transform="scale(1,-1) translate(0,-256)" /></svg>