<?xml version="1.0" encoding="utf-8" ?>
<svg baseProfile="full" height="256" version="1.1" width="256" xmlns="http://www.w3.org/2000/svg" xmlns:ev="http://www.w3.org/2001/xml-events" xmlns:xlink="http://www.w3.org/1999/xlink"><defs /><path d="M1317 1360Q1317 1398 1317.0 1436.5Q1317 1475 1318 1513Q1318 1515 1321.0 1522.0Q1324 1529 1325 1531Q1338 1556 1362.5 1570.5Q1387 1585 1415 1585Q1438 1585 1461.0 1577.0Q1484 1569 1506 1563Q1538 1554 1558.0 1526.5Q1578 1499 1578 1466Q1578 1449 1573.0 1432.5Q1568 1416 1563 1400Q1565 1391 1570.5 1374.5Q1576 1358 1576 1351Q1576 1336 1564.0 1334.5Q1552 1333 1542 1331Q1537 1316 1531.0 1300.5Q1525 1285 1516.0 1272.0Q1507 1259 1494.0 1251.0Q1481 1243 1463 1243Q1442 1243 1417.0 1253.0Q1392 1263 1369.5 1279.0Q1347 1295 1332.0 1316.0Q1317 1337 1317 1360Z" style="fill:#ffc83d;stroke:none" transform="scale(1,-1) translate(0,-256)" /></svg>