<?xml version="1.0" encoding="utf-8" ?>
<svg baseProfile="full" height="256" version="1.1" width="256" xmlns="http://www.w3.org/2000/svg" xmlns:ev="http://www.w3.org/2001/xml-events" xmlns:xlink="http://www.w3.org/1999/xlink"><defs /><path d="M1185 1200Q1185 1216 1192.0 1231.0Q1199 1246 1210.0 1257.5Q1221 1269 1236.0 1275.5Q1251 1282 1268 1282Q1289 1282 1307.0 1271.5Q1325 1261 1336 1243L1415 1103Q1406 1097 1390.5 1086.5Q1375 1076 1358.0 1065.5Q1341 1055 1324.5 1047.0Q1308 1039 1297 1039Q1271 1039 1256 1062L1196 1159Q1190 1168 1187.5 1178.5Q1185 1189 1185 1200Z" style="fill:#ff8101;stroke:none" transform="scale(1,-1) translate(0,-256)" /></svg>