<?xml version="1.0" encoding="utf-8" ?>
<svg baseProfile="full" height="256" version="1.1" width="256" xmlns="http://www.w3.org/2000/svg" xmlns:ev="http://www.w3.org/2001/xml-events" xmlns:xlink="http://www.w3.org/1999/xlink"><defs /><path d="M1820 1081Q1837 1081 1850.0 1068.0Q1863 1055 1863 1038Q1863 1020 1850 1007L1291 448Q1304 421 1304 388Q1304 362 1294.0 337.0Q1284 312 1265 293L1090 117Q1071 98 1046.0 88.0Q1021 78 994 78Q966 78 941.5 88.5Q917 99 899.0 117.0Q881 135 870.5 159.5Q860 184 860 212Q860 239 870.0 264.0Q880 289 899 308L1075 483Q1116 522 1170 522Q1185 522 1200.0 519.0Q1215 516 1229 509L1789 1068Q1802 1081 1820 1081Z" style="fill:#f3c07b;stroke:none" transform="scale(1,-1) translate(0,-256)" /></svg>