<?xml version="1.0" encoding="utf-8" ?>
<svg baseProfile="full" height="256" version="1.1" width="256" xmlns="http://www.w3.org/2000/svg" xmlns:ev="http://www.w3.org/2001/xml-events" xmlns:xlink="http://www.w3.org/1999/xlink"><defs /><path d="M1718 1346Q1740 1384 1771.0 1414.5Q1802 1445 1839.0 1466.0Q1876 1487 1917.5 1498.5Q1959 1510 2003 1510Q2071 1510 2131.0 1484.0Q2191 1458 2236.0 1413.0Q2281 1368 2307.0 1308.0Q2333 1248 2333 1180Q2333 1146 2326.0 1113.0Q2319 1080 2306 1048Q2274 972 2255.5 896.0Q2237 820 2237 737Q2237 666 2290 615Q2337 570 2373.5 522.0Q2410 474 2435.0 422.0Q2460 370 2473.0 311.5Q2486 253 2486 187Q2486 72 2443.0 -30.0Q2400 -132 2319 -213L2211 -321Q2175 -357 2123 -357H1885Q1833 -357 1797 -321L1719 -243L1641 -321Q1605 -357 1553 -357H1315Q1263 -357 1227 -321L1119 -214Q1038 -134 995.0 -30.5Q952 73 952 187Q952 303 996.5 408.0Q1041 513 1125 593H1126Q1158 624 1178.5 656.5Q1199 689 1199 737Q1199 780 1195.0 818.5Q1191 857 1182.5 894.0Q1174 931 1161.5 968.0Q1149 1005 1132 1044Q1103 1110 1103 1178Q1103 1247 1128.5 1307.5Q1154 1368 1199.0 1413.0Q1244 1458 1304.0 1484.0Q1364 1510 1433 1510Q1477 1510 1518.5 1498.5Q1560 1487 1597.0 1466.0Q1634 1445 1665.0 1414.5Q1696 1384 1718 1346ZM1769 737Q1769 808 1756.5 873.5Q1744 939 1718 1005Q1694 940 1680.5 873.0Q1667 806 1667 737Q1667 702 1680.5 671.0Q1694 640 1719 616Q1742 640 1755.5 671.5Q1769 703 1769 737Z" style="fill:#9b9b9b;stroke:none" transform="scale(1,-1) translate(0,-256)" /></svg>