<?xml version="1.0" encoding="utf-8" ?>
<svg baseProfile="full" height="256" version="1.1" width="256" xmlns="http://www.w3.org/2000/svg" xmlns:ev="http://www.w3.org/2001/xml-events" xmlns:xlink="http://www.w3.org/1999/xlink"><defs /><path d="M2165 737Q2165 672 2191.5 628.0Q2218 584 2263 542Q2336 474 2375.0 381.0Q2414 288 2414 188Q2414 88 2376.5 -1.5Q2339 -91 2268 -162L2160 -270Q2145 -285 2123 -285H1885Q1863 -285 1848 -270L1739 -163Q1669 -94 1631.0 -3.0Q1593 88 1593 187Q1593 291 1632.5 379.5Q1672 468 1745 541Q1789 584 1815.0 628.5Q1841 673 1841 737Q1841 784 1836.0 826.5Q1831 869 1822.0 909.5Q1813 950 1799.0 990.0Q1785 1030 1767 1073Q1756 1099 1750.0 1125.5Q1744 1152 1744 1179Q1744 1233 1764.5 1280.0Q1785 1327 1820.5 1362.0Q1856 1397 1903.5 1417.5Q1951 1438 2004 1438Q2057 1438 2104.0 1417.5Q2151 1397 2186.0 1362.0Q2221 1327 2241.0 1280.0Q2261 1233 2261 1180Q2261 1154 2255.5 1128.0Q2250 1102 2240 1077Q2206 994 2185.5 911.0Q2165 828 2165 737Z" style="fill:#e6e6e6;stroke:none" transform="scale(1,-1) translate(0,-256)" /></svg>