<?xml version="1.0" encoding="utf-8" ?>
<svg baseProfile="full" height="256" version="1.1" width="256" xmlns="http://www.w3.org/2000/svg" xmlns:ev="http://www.w3.org/2001/xml-events" xmlns:xlink="http://www.w3.org/1999/xlink"><defs /><path d="M1595 752Q1595 726 1598.0 703.0Q1601 680 1609 656H1257Q1265 680 1268.0 703.0Q1271 726 1271 752ZM1266 832Q1263 856 1258.5 880.0Q1254 904 1249 928H1619Q1607 880 1601 832ZM2165 752Q2165 727 2168.0 703.5Q2171 680 2179 656H1827Q1835 680 1838.0 703.0Q1841 726 1841 752ZM1836 832Q1830 880 1818 928H2189Q2177 880 2171 832Z" style="fill:#ca0b4a;stroke:none" transform="scale(1,-1) translate(0,-256)" /></svg>