<?xml version="1.0" encoding="utf-8" ?>
<svg baseProfile="full" height="256" version="1.1" width="256" xmlns="http://www.w3.org/2000/svg" xmlns:ev="http://www.w3.org/2001/xml-events" xmlns:xlink="http://www.w3.org/1999/xlink"><defs /><path d="M1429 1363Q1429 1334 1407.5 1312.5Q1386 1291 1356 1291Q1333 1291 1313.5 1306.0Q1294 1321 1287 1344L1217 1580Q1238 1580 1255.5 1582.5Q1273 1585 1289.5 1590.0Q1306 1595 1322.0 1602.5Q1338 1610 1356 1620L1426 1384Q1429 1373 1429 1363ZM976 1077Q946 1077 925 1098L750 1272Q785 1292 809.0 1315.5Q833 1339 853 1374L1027 1200Q1048 1179 1048 1149Q1048 1119 1027.0 1098.0Q1006 1077 976 1077ZM759 693Q748 693 738 696L502 766Q524 801 533.0 831.5Q542 862 543 904L779 834Q802 827 816.5 808.0Q831 789 831 766Q831 736 809.5 714.5Q788 693 759 693ZM846 301Q846 275 828.5 253.5Q811 232 784 228L541 191Q544 231 539.5 265.0Q535 299 518 335L763 373Q765 373 767.5 373.5Q770 374 772 374Q801 374 823.5 352.5Q846 331 846 301ZM1822 1276Q1792 1276 1770.5 1297.0Q1749 1318 1749 1348Q1749 1355 1750 1359L1787 1603Q1816 1591 1843.0 1584.5Q1870 1578 1901 1578Q1908 1578 1915.5 1579.0Q1923 1580 1930 1581L1893 1337Q1889 1311 1868.5 1293.5Q1848 1276 1822 1276Z" style="fill:#f3ad61;stroke:none" transform="scale(1,-1) translate(0,-256)" /></svg>