<?xml version="1.0" encoding="utf-8" ?>
<svg baseProfile="full" height="256" version="1.1" width="256" xmlns="http://www.w3.org/2000/svg" xmlns:ev="http://www.w3.org/2001/xml-events" xmlns:xlink="http://www.w3.org/1999/xlink"><defs /><path d="M2043 1591Q2078 1591 2112.5 1582.0Q2147 1573 2173 1547L2303 1418Q2357 1364 2386.5 1293.0Q2416 1222 2416 1145Q2416 1068 2386.5 997.5Q2357 927 2303 873L1253 -177Q1199 -231 1128.0 -260.5Q1057 -290 980 -290Q912 -290 860.5 -272.0Q809 -254 765.5 -223.5Q722 -193 682.0 -152.5Q642 -112 597 -67Q579 -49 567.0 -33.5Q555 -18 547.5 -0.5Q540 17 537.0 36.5Q534 56 534 82Q534 120 538.0 156.5Q542 193 542 230Q542 284 520.0 326.5Q498 369 471.0 407.0Q444 445 422.0 482.0Q400 519 400 564Q400 609 422.0 647.0Q444 685 471.0 723.0Q498 761 520.0 803.5Q542 846 542 899Q542 936 538.0 972.5Q534 1009 534 1047Q534 1095 547.5 1126.5Q561 1158 583.0 1179.0Q605 1200 633.5 1214.5Q662 1229 692.5 1242.5Q723 1256 753.5 1272.5Q784 1289 810 1315Q836 1341 852.5 1371.5Q869 1402 882.5 1432.5Q896 1463 910.5 1491.5Q925 1520 946.0 1542.0Q967 1564 998.5 1577.5Q1030 1591 1078 1591Q1116 1591 1152.5 1587.0Q1189 1583 1226 1583Q1280 1583 1322.5 1605.0Q1365 1627 1403.0 1654.0Q1441 1681 1478.0 1703.0Q1515 1725 1560 1725Q1605 1725 1642.5 1703.0Q1680 1681 1718.5 1654.0Q1757 1627 1799.0 1605.0Q1841 1583 1895 1583Q1932 1583 1968.5 1587.0Q2005 1591 2043 1591Z" style="fill:#ffce7c;stroke:none" transform="scale(1,-1) translate(0,-256)" /></svg>