<?xml version="1.0" encoding="utf-8" ?>
<svg baseProfile="full" height="256" version="1.1" width="256" xmlns="http://www.w3.org/2000/svg" xmlns:ev="http://www.w3.org/2001/xml-events" xmlns:xlink="http://www.w3.org/1999/xlink"><defs /><path d="M950 570Q950 658 973.0 739.5Q996 821 1037.5 892.0Q1079 963 1137.5 1021.5Q1196 1080 1267.0 1121.5Q1338 1163 1420.0 1186.0Q1502 1209 1590 1209Q1718 1209 1834.5 1161.0Q1951 1113 2042 1022Q2094 971 2145.0 919.5Q2196 868 2247 817L1343 -87L1138 118Q1047 209 998.5 325.0Q950 441 950 570Z" style="fill:#ffdea7;stroke:none" transform="scale(1,-1) translate(0,-256)" /></svg>