<?xml version="1.0" encoding="utf-8" ?>
<svg baseProfile="full" height="256" version="1.1" width="256" xmlns="http://www.w3.org/2000/svg" xmlns:ev="http://www.w3.org/2001/xml-events" xmlns:xlink="http://www.w3.org/1999/xlink"><defs /><path d="M687 324Q669 324 669 341Q669 350 677 356Q707 378 741.5 387.0Q776 396 813 396Q820 396 825.5 391.0Q831 386 831 378Q831 370 826.0 365.0Q821 360 813 360Q778 360 752.0 353.0Q726 346 697 327Q692 324 687 324ZM1047 378Q1047 386 1052.5 391.0Q1058 396 1065 396Q1103 396 1135.5 387.0Q1168 378 1200 356Q1208 350 1208 342Q1208 334 1203.5 329.0Q1199 324 1191 324Q1184 324 1180 327Q1151 346 1125.5 353.0Q1100 360 1065 360Q1057 360 1052.0 365.0Q1047 370 1047 378ZM1603 324Q1595 324 1590.5 329.0Q1586 334 1586 342Q1586 352 1593 356Q1624 378 1658.0 387.0Q1692 396 1729 396Q1736 396 1741.5 391.0Q1747 386 1747 378Q1747 370 1742.0 365.0Q1737 360 1729 360Q1694 360 1668.5 353.0Q1643 346 1614 327Q1609 324 1603 324ZM1963 378Q1963 386 1968.5 391.0Q1974 396 1981 396Q2018 396 2052.5 387.0Q2087 378 2117 356Q2125 350 2125 341Q2125 324 2107 324Q2101 324 2097 327Q2068 346 2042.0 353.0Q2016 360 1981 360Q1973 360 1968.0 365.0Q1963 370 1963 378Z" style="fill:#d37034;stroke:none" transform="scale(1,-1) translate(0,-256)" /></svg>