<?xml version="1.0" encoding="utf-8" ?>
<svg baseProfile="full" height="256" version="1.1" width="256" xmlns="http://www.w3.org/2000/svg" xmlns:ev="http://www.w3.org/2001/xml-events" xmlns:xlink="http://www.w3.org/1999/xlink"><defs /><path d="M597 36Q571 36 548.0 46.0Q525 56 508.0 73.0Q491 90 481.5 113.0Q472 136 472 162Q472 188 482.0 211.0Q492 234 509.0 251.0Q526 268 548.5 278.0Q571 288 597 288Q623 288 646.0 278.0Q669 268 686.0 251.0Q703 234 713.0 211.0Q723 188 723 162Q723 136 713.0 113.0Q703 90 686.0 73.0Q669 56 646.0 46.0Q623 36 597 36ZM1406 97Q1389 69 1360.0 52.5Q1331 36 1298 36Q1272 36 1249.0 46.0Q1226 56 1209.0 73.0Q1192 90 1182.0 113.0Q1172 136 1172 162Q1172 188 1182.0 211.0Q1192 234 1209.0 251.0Q1226 268 1249.0 278.0Q1272 288 1298 288Q1331 288 1360.0 271.5Q1389 255 1406 227Q1423 255 1452.0 271.5Q1481 288 1514 288Q1540 288 1563.0 278.0Q1586 268 1603.0 251.0Q1620 234 1630.0 211.0Q1640 188 1640 162Q1640 136 1630.0 113.0Q1620 90 1603.0 73.0Q1586 56 1563.0 46.0Q1540 36 1514 36Q1481 36 1452.0 52.5Q1423 69 1406 97ZM2215 36Q2189 36 2166.0 46.0Q2143 56 2126.0 73.0Q2109 90 2099.0 113.0Q2089 136 2089 162Q2089 188 2099.0 211.0Q2109 234 2126.0 251.0Q2143 268 2166.0 278.0Q2189 288 2215 288Q2241 288 2263.5 278.0Q2286 268 2303.0 251.0Q2320 234 2330.0 211.0Q2340 188 2340 162Q2340 136 2330.5 113.0Q2321 90 2304.0 73.0Q2287 56 2264.0 46.0Q2241 36 2215 36Z" style="fill:#fdbb11;stroke:none" transform="scale(1,-1) translate(0,-256)" /></svg>