<?xml version="1.0" encoding="utf-8" ?>
<svg baseProfile="full" height="256" version="1.1" width="256" xmlns="http://www.w3.org/2000/svg" xmlns:ev="http://www.w3.org/2001/xml-events" xmlns:xlink="http://www.w3.org/1999/xlink"><defs /><path d="M1721 1725Q1789 1725 1844.0 1696.0Q1899 1667 1938.0 1619.5Q1977 1572 1998.0 1511.0Q2019 1450 2019 1387Q2019 1351 2013.0 1315.0Q2007 1279 1995 1245Q1977 1194 1944.0 1138.0Q1911 1082 1867.5 1026.5Q1824 971 1773.0 917.0Q1722 863 1669.0 815.5Q1616 768 1563.5 728.5Q1511 689 1464 662Q1451 654 1438.5 650.5Q1426 647 1411 647Q1383 647 1358 662Q1311 689 1258.0 728.5Q1205 768 1152.5 815.5Q1100 863 1049.0 916.5Q998 970 955.0 1025.5Q912 1081 878.5 1137.0Q845 1193 827 1245Q801 1317 801 1392Q801 1455 822.0 1514.5Q843 1574 881.5 1621.0Q920 1668 974.0 1696.5Q1028 1725 1095 1725Q1178 1725 1252.0 1688.5Q1326 1652 1383 1595Q1388 1590 1394 1587Q1400 1584 1408 1584Q1416 1584 1422 1587Q1428 1590 1433 1595Q1491 1653 1564.0 1689.0Q1637 1725 1721 1725Z" style="fill:#f70a8d;stroke:none" transform="scale(1,-1) translate(0,-256)" /></svg>