<?xml version="1.0" encoding="utf-8" ?>
<svg baseProfile="full" height="256" version="1.1" width="256" xmlns="http://www.w3.org/2000/svg" xmlns:ev="http://www.w3.org/2001/xml-events" xmlns:xlink="http://www.w3.org/1999/xlink"><defs /><path d="M948 216Q956 216 964.5 211.5Q973 207 975 199Q978 190 985.0 172.0Q992 154 999.0 135.0Q1006 116 1011.5 99.0Q1017 82 1017 74Q1017 57 1004.5 46.5Q992 36 975 36H922Q905 36 893.5 46.5Q882 57 882 74Q882 82 887.0 99.0Q892 116 899.0 135.5Q906 155 912.5 172.5Q919 190 922 199Q924 207 932.0 211.5Q940 216 948 216ZM1865 216Q1873 216 1881.0 211.5Q1889 207 1891 199Q1894 190 1901.0 172.5Q1908 155 1915.0 135.5Q1922 116 1927.5 98.5Q1933 81 1933 73Q1933 55 1920.5 45.5Q1908 36 1891 36H1838Q1824 36 1811.5 46.0Q1799 56 1799 72Q1799 80 1804.0 97.5Q1809 115 1815.5 134.5Q1822 154 1828.5 172.0Q1835 190 1838 199Q1840 207 1848.5 211.5Q1857 216 1865 216Z" style="fill:#ed9200;stroke:none" transform="scale(1,-1) translate(0,-256)" /></svg>