<?xml version="1.0" encoding="utf-8" ?>
<svg baseProfile="full" height="256" version="1.1" width="256" xmlns="http://www.w3.org/2000/svg" xmlns:ev="http://www.w3.org/2001/xml-events" xmlns:xlink="http://www.w3.org/1999/xlink"><defs /><path d="M860 216Q867 216 872.0 209.5Q877 203 877 197Q877 185 867.0 175.5Q857 166 843.5 159.0Q830 152 815.5 148.0Q801 144 791 144Q782 144 767.5 148.0Q753 152 739.0 158.5Q725 165 715.0 174.0Q705 183 705 194Q705 201 709.5 208.5Q714 216 722 216Q726 216 730 214Q744 200 756.5 191.0Q769 182 791 182Q806 182 817.0 187.5Q828 193 836.0 199.0Q844 205 849.5 210.5Q855 216 860 216ZM1177 216Q1184 216 1189.0 209.5Q1194 203 1194 197Q1194 186 1184.0 176.0Q1174 166 1160.5 159.0Q1147 152 1132.0 148.0Q1117 144 1108 144Q1100 144 1085.0 148.0Q1070 152 1056.0 159.0Q1042 166 1031.5 175.0Q1021 184 1021 194Q1021 202 1025.0 209.0Q1029 216 1039 216Q1043 216 1047 214Q1061 200 1073.5 191.0Q1086 182 1108 182Q1123 182 1134.0 187.5Q1145 193 1152.5 199.0Q1160 205 1165.5 210.5Q1171 216 1177 216ZM1776 216Q1784 216 1789.0 209.0Q1794 202 1794 194Q1794 183 1783.5 174.0Q1773 165 1759.0 158.5Q1745 152 1730.5 148.0Q1716 144 1707 144Q1698 144 1683.5 148.0Q1669 152 1655.0 158.5Q1641 165 1631.0 174.0Q1621 183 1621 194Q1621 202 1625.5 209.0Q1630 216 1639 216Q1643 216 1648.5 210.5Q1654 205 1662.5 199.0Q1671 193 1682.0 187.5Q1693 182 1707 182Q1722 182 1733.0 187.5Q1744 193 1752.0 199.0Q1760 205 1765.5 210.5Q1771 216 1776 216ZM2093 216Q2101 216 2106.0 209.0Q2111 202 2111 194Q2111 184 2100.5 175.0Q2090 166 2075.5 159.0Q2061 152 2046.5 148.0Q2032 144 2024 144Q2014 144 1999.5 148.0Q1985 152 1971.0 159.5Q1957 167 1947.0 177.0Q1937 187 1937 199Q1937 206 1943.0 211.0Q1949 216 1956 216Q1960 216 1965.5 210.5Q1971 205 1979.5 199.0Q1988 193 1999.0 187.5Q2010 182 2024 182Q2041 182 2054.5 189.0Q2068 196 2079 208Q2080 210 2081.5 211.0Q2083 212 2085 214Q2091 216 2093 216Z" style="fill:#7d4533;stroke:none" transform="scale(1,-1) translate(0,-256)" /></svg>