<?xml version="1.0" encoding="utf-8" ?>
<svg baseProfile="full" height="256" version="1.1" width="256" xmlns="http://www.w3.org/2000/svg" xmlns:ev="http://www.w3.org/2001/xml-events" xmlns:xlink="http://www.w3.org/1999/xlink"><defs /><path d="M1402 535Q1419 569 1443.0 592.5Q1467 616 1503 629Q1532 639 1551.5 655.0Q1571 671 1587.0 689.0Q1603 707 1617.0 725.5Q1631 744 1649.0 758.5Q1667 773 1691.0 782.0Q1715 791 1750 791Q1766 791 1780.5 787.0Q1795 783 1808.5 778.5Q1822 774 1835.5 770.0Q1849 766 1863 766Q1877 766 1890.0 769.5Q1903 773 1916.0 777.5Q1929 782 1943.0 785.5Q1957 789 1974 789Q2019 789 2056.0 767.0Q2093 745 2117 707Q2138 675 2163.0 659.0Q2188 643 2214.5 630.5Q2241 618 2265.5 602.0Q2290 586 2309 553Q2334 511 2334 465Q2334 436 2326.0 416.5Q2318 397 2309.0 380.0Q2300 363 2292.0 346.0Q2284 329 2284 306V7Q2284 -42 2255.0 -83.5Q2226 -125 2179 -141L2041 -188V346Q1999 388 1991 448Q1952 448 1921.5 455.5Q1891 463 1860 489Q1830 463 1799.0 455.5Q1768 448 1729 448Q1725 421 1712.5 393.0Q1700 365 1680 346V-188L1544 -141Q1496 -124 1467.0 -84.0Q1438 -44 1438 7V306Q1438 322 1434.5 333.5Q1431 345 1425.5 355.0Q1420 365 1414.0 374.5Q1408 384 1403 397Q1398 384 1391.5 374.5Q1385 365 1380.0 355.0Q1375 345 1371.5 333.5Q1368 322 1368 306V7Q1368 -44 1339.0 -84.0Q1310 -124 1262 -141L1124 -188V346Q1104 369 1091.5 393.0Q1079 417 1075 448Q1036 448 1005.5 455.5Q975 463 944 489Q914 463 883.0 455.5Q852 448 813 448Q809 420 796.5 392.5Q784 365 763 346V-188L628 -141Q580 -124 551.0 -84.0Q522 -44 522 7V306Q522 328 514.0 345.5Q506 363 497.0 380.5Q488 398 480.0 418.0Q472 438 472 467Q472 522 504.0 566.5Q536 611 587 629Q651 652 687 709Q711 747 749.0 769.0Q787 791 833 791Q849 791 863.5 787.0Q878 783 892.0 778.5Q906 774 919.5 770.0Q933 766 947 766Q961 766 974.0 769.5Q987 773 1000.0 777.5Q1013 782 1027.0 785.5Q1041 789 1057 789Q1091 789 1114.5 780.0Q1138 771 1155.5 756.5Q1173 742 1187.0 724.0Q1201 706 1216.5 688.0Q1232 670 1251.5 654.5Q1271 639 1300 629Q1333 618 1361.5 593.0Q1390 568 1402 535Z" style="fill:#f1a11e;stroke:none" transform="scale(1,-1) translate(0,-256)" /></svg>