<?xml version="1.0" encoding="utf-8" ?>
<svg baseProfile="full" height="256" version="1.1" width="256" xmlns="http://www.w3.org/2000/svg" xmlns:ev="http://www.w3.org/2001/xml-events" xmlns:xlink="http://www.w3.org/1999/xlink"><defs /><path d="M1693 749Q1693 794 1699.0 837.5Q1705 881 1710 926Q1717 982 1724.0 1039.5Q1731 1097 1744.0 1152.5Q1757 1208 1778.0 1260.5Q1799 1313 1833 1361Q1884 1433 1960.0 1471.0Q2036 1509 2124 1509Q2194 1509 2248.0 1485.5Q2302 1462 2338.5 1420.5Q2375 1379 2393.5 1322.5Q2412 1266 2412 1199Q2412 1164 2407.5 1130.0Q2403 1096 2399 1062Q2394 1022 2389.0 982.5Q2384 943 2380 903Q2371 817 2344.5 732.5Q2318 648 2270.0 581.5Q2222 515 2150.0 473.5Q2078 432 1979 432Q1907 432 1853.5 456.0Q1800 480 1764.0 522.5Q1728 565 1710.5 623.0Q1693 681 1693 749ZM1963 766Q1963 740 1973.5 721.0Q1984 702 2013 702Q2036 702 2051.5 711.0Q2067 720 2077.5 734.5Q2088 749 2093.5 767.5Q2099 786 2101 806Q2106 850 2110.5 893.0Q2115 936 2120 980Q2126 1028 2133.5 1078.0Q2141 1128 2141 1176Q2141 1202 2130.5 1221.0Q2120 1240 2091 1240Q2068 1240 2052.0 1231.0Q2036 1222 2026.5 1207.5Q2017 1193 2011.5 1174.5Q2006 1156 2004 1136Q1999 1088 1993.5 1042.0Q1988 996 1982 948Q1977 903 1970.0 857.0Q1963 811 1963 766ZM938 605Q938 537 955.5 479.0Q973 421 1009.0 378.5Q1045 336 1099.0 312.0Q1153 288 1225 288Q1325 288 1396.5 329.5Q1468 371 1515.5 437.5Q1563 504 1589.5 588.5Q1616 673 1625 759Q1630 799 1634.5 838.5Q1639 878 1644 918Q1649 952 1653.0 986.5Q1657 1021 1657 1055Q1657 1122 1638.5 1179.0Q1620 1236 1583.5 1277.5Q1547 1319 1493.0 1342.5Q1439 1366 1369 1366Q1344 1366 1320 1363Q1231 1351 1168.5 1306.0Q1106 1261 1064.5 1196.0Q1023 1131 1000.5 1052.5Q978 974 969 895L956 782Q951 737 944.5 693.5Q938 650 938 605ZM1337 1096Q1366 1096 1376.5 1076.0Q1387 1056 1387 1030Q1387 983 1379.0 933.0Q1371 883 1366 836Q1361 792 1356.0 749.5Q1351 707 1346 663Q1344 643 1338.5 624.0Q1333 605 1323.0 590.5Q1313 576 1297.0 567.0Q1281 558 1258 558Q1228 558 1218.0 578.5Q1208 599 1208 625Q1208 669 1215.0 714.5Q1222 760 1227 804Q1232 852 1238.0 898.0Q1244 944 1249 992Q1251 1012 1256.5 1030.5Q1262 1049 1272.0 1063.5Q1282 1078 1297.5 1087.0Q1313 1096 1337 1096ZM871 1089Q871 1116 865.0 1140.5Q859 1165 845.5 1183.0Q832 1201 811.0 1211.5Q790 1222 759 1222Q734 1222 701.5 1202.5Q669 1183 634.0 1152.5Q599 1122 563.5 1084.0Q528 1046 496.5 1009.0Q465 972 439.5 939.5Q414 907 400 888Q378 858 378 822Q378 799 387.0 779.0Q396 759 411.0 744.0Q426 729 446.0 720.5Q466 712 489 712Q518 712 539.0 723.5Q560 735 579 755L492 142Q491 137 491.0 133.0Q491 129 491 124Q491 98 501.0 75.5Q511 53 527.5 36.0Q544 19 566.5 9.5Q589 0 615 0Q638 0 659.0 8.0Q680 16 696.5 30.5Q713 45 724.0 64.5Q735 84 738 107L867 1042Q869 1054 870.0 1065.5Q871 1077 871 1089ZM2269 324Q2269 299 2253.0 278.5Q2237 258 2212 253L1062 2Q1052 0 1046 0Q1017 0 995.5 21.5Q974 43 974 72Q974 98 990.0 117.5Q1006 137 1031 142L2181 394Q2191 396 2196 396Q2225 396 2247.0 375.0Q2269 354 2269 324ZM2089 36Q2089 11 2073.0 -9.0Q2057 -29 2033 -34L919 -286Q909 -288 904 -288Q873 -288 852.0 -266.5Q831 -245 831 -215Q831 -190 847.0 -170.0Q863 -150 887 -145L2001 106Q2011 108 2017 108Q2047 108 2068.0 86.5Q2089 65 2089 36Z" style="fill:#f8312f;stroke:none" transform="scale(1,-1) translate(0,-256)" /></svg>