<?xml version="1.0" encoding="utf-8" ?>
<svg baseProfile="full" height="256" version="1.1" width="256" xmlns="http://www.w3.org/2000/svg" xmlns:ev="http://www.w3.org/2001/xml-events" xmlns:xlink="http://www.w3.org/1999/xlink"><defs /><path d="M1585 1006Q1571 1006 1560.0 1017.0Q1549 1028 1549 1042Q1549 1057 1559.5 1067.5Q1570 1078 1585 1078Q1600 1078 1610.5 1067.5Q1621 1057 1621 1042Q1621 1028 1610.0 1017.0Q1599 1006 1585 1006ZM1010 863Q995 863 984.5 873.5Q974 884 974 899Q974 913 985.0 924.0Q996 935 1010 935Q1024 935 1035.0 924.0Q1046 913 1046 899Q1046 884 1035.5 873.5Q1025 863 1010 863ZM1621 180Q1621 165 1610.5 154.5Q1600 144 1585 144Q1570 144 1559.5 154.5Q1549 165 1549 180Q1549 195 1559.5 205.5Q1570 216 1585 216Q1600 216 1610.5 205.5Q1621 195 1621 180Z" style="fill:#26eafc;stroke:none" transform="scale(1,-1) translate(0,-256)" /></svg>