<?xml version="1.0" encoding="utf-8" ?>
<svg baseProfile="full" height="256" version="1.1" width="256" xmlns="http://www.w3.org/2000/svg" xmlns:ev="http://www.w3.org/2001/xml-events" xmlns:xlink="http://www.w3.org/1999/xlink"><defs /><path d="M2148 -287H1577L1444 -231Q1441 -232 1428.5 -236.5Q1416 -241 1398.0 -247.5Q1380 -254 1360.0 -260.5Q1340 -267 1323.5 -273.0Q1307 -279 1295.5 -283.0Q1284 -287 1284 -287H663Q609 -287 560.0 -266.0Q511 -245 474 -207L491 -61Q493 -40 496.0 -25.0Q499 -10 499 12Q499 39 495.5 60.5Q492 82 487.0 102.5Q482 123 476.5 144.5Q471 166 466 192L400 551V1461Q400 1515 420.5 1563.0Q441 1611 477.0 1647.0Q513 1683 561.0 1704.0Q609 1725 663 1725H1443Q1450 1725 1486.0 1714.5Q1522 1704 1572.0 1688.0Q1622 1672 1680.5 1652.5Q1739 1633 1792.5 1616.0Q1846 1599 1887.5 1586.5Q1929 1574 1946 1571Q1968 1567 1985.5 1566.0Q2003 1565 2020.5 1565.5Q2038 1566 2056.0 1566.5Q2074 1567 2096 1566L2395 1556Q2408 1522 2410.0 1491.0Q2412 1460 2412 1425L2304 1179L2412 1074V-24Q2412 -78 2391.0 -126.0Q2370 -174 2334.0 -210.0Q2298 -246 2250.0 -266.5Q2202 -287 2148 -287Z" style="fill:#321b41;stroke:none" transform="scale(1,-1) translate(0,-256)" /></svg>