<?xml version="1.0" encoding="utf-8" ?>
<svg baseProfile="full" height="256" version="1.1" width="256" xmlns="http://www.w3.org/2000/svg" xmlns:ev="http://www.w3.org/2001/xml-events" xmlns:xlink="http://www.w3.org/1999/xlink"><defs /><path d="M1333 1295Q1343 1295 1348 1285L1361 1258Q1364 1252 1371.5 1248.5Q1379 1245 1386.5 1242.0Q1394 1239 1400.0 1234.5Q1406 1230 1406 1222Q1406 1216 1401.5 1211.5Q1397 1207 1391.0 1204.0Q1385 1201 1379.0 1199.0Q1373 1197 1369 1195Q1362 1192 1356.0 1178.5Q1350 1165 1348 1160Q1343 1151 1333 1151Q1322 1151 1318 1160Q1315 1167 1310.0 1179.5Q1305 1192 1297 1196Q1288 1200 1275.0 1205.0Q1262 1210 1262 1223Q1262 1234 1271 1239Q1274 1240 1279.0 1242.0Q1284 1244 1290.0 1247.0Q1296 1250 1300.5 1253.5Q1305 1257 1307 1260Q1309 1264 1311.0 1270.0Q1313 1276 1315.5 1281.5Q1318 1287 1322.5 1291.0Q1327 1295 1333 1295ZM938 575Q951 575 957.0 566.5Q963 558 967.5 547.0Q972 536 977.0 525.5Q982 515 991 510Q997 507 1006.0 503.5Q1015 500 1024.0 495.0Q1033 490 1039.5 483.5Q1046 477 1046 468Q1046 456 1037.5 449.5Q1029 443 1017.5 438.5Q1006 434 995.0 429.0Q984 424 980 415Q977 409 973.5 400.0Q970 391 965.0 382.0Q960 373 953.0 367.0Q946 361 937 361Q921 361 915 375Q913 379 909.5 387.0Q906 395 902.0 403.5Q898 412 893.0 419.0Q888 426 883 428Q877 431 868.0 434.0Q859 437 850.5 441.5Q842 446 836.5 452.5Q831 459 831 468Q831 480 840.0 487.0Q849 494 861.0 499.5Q873 505 884.0 510.0Q895 515 899 523Q902 529 905.0 538.0Q908 547 912.0 555.5Q916 564 922.5 569.5Q929 575 938 575ZM1837 576Q1837 568 1831.0 563.5Q1825 559 1817.5 556.0Q1810 553 1803.0 549.5Q1796 546 1793 540L1780 513Q1775 504 1765 504Q1754 504 1750 513Q1746 521 1741.5 532.5Q1737 544 1728 549Q1724 551 1718.0 553.0Q1712 555 1706.5 558.0Q1701 561 1697.0 565.5Q1693 570 1693 576Q1693 587 1702 592L1730 605Q1736 608 1739.5 615.0Q1743 622 1745.5 629.5Q1748 637 1752.0 642.5Q1756 648 1764 648Q1775 648 1780 638Q1784 630 1788.5 619.0Q1793 608 1801 603Q1805 601 1811.0 598.5Q1817 596 1823.0 593.0Q1829 590 1833.0 586.0Q1837 582 1837 576Z" style="fill:#fcd53f;stroke:none" transform="scale(1,-1) translate(0,-256)" /></svg>