<?xml version="1.0" encoding="utf-8" ?>
<svg baseProfile="full" height="256" version="1.1" width="256" xmlns="http://www.w3.org/2000/svg" xmlns:ev="http://www.w3.org/2001/xml-events" xmlns:xlink="http://www.w3.org/1999/xlink"><defs /><path d="M1836 1617Q1836 1603 1825.5 1592.0Q1815 1581 1801 1581Q1787 1581 1776.0 1592.0Q1765 1603 1765 1617Q1765 1632 1775.5 1642.5Q1786 1653 1801 1653Q1815 1653 1825.5 1642.0Q1836 1631 1836 1617ZM2160 1006Q2174 1006 2185.0 1017.0Q2196 1028 2196 1042Q2196 1057 2185.5 1067.5Q2175 1078 2160 1078Q2145 1078 2134.5 1067.5Q2124 1057 2124 1042Q2124 1028 2135.0 1017.0Q2146 1006 2160 1006ZM651 144Q636 144 625.5 154.5Q615 165 615 180Q615 195 625.5 205.5Q636 216 651 216Q665 216 675.5 205.0Q686 194 686 180Q686 166 675.5 155.0Q665 144 651 144Z" style="fill:#f4f4f4;stroke:none" transform="scale(1,-1) translate(0,-256)" /></svg>