<?xml version="1.0" encoding="utf-8" ?>
<svg baseProfile="full" height="256" version="1.1" width="256" xmlns="http://www.w3.org/2000/svg" xmlns:ev="http://www.w3.org/2001/xml-events" xmlns:xlink="http://www.w3.org/1999/xlink"><defs /><path d="M2148 1725Q2189 1725 2227.0 1713.0Q2265 1701 2297.0 1679.0Q2329 1657 2354.0 1625.5Q2379 1594 2394 1556Q2246 1466 2130.0 1375.0Q2014 1284 1915.0 1182.5Q1816 1081 1725.5 965.0Q1635 849 1538 711Q1461 602 1387.5 505.5Q1314 409 1238.5 324.5Q1163 240 1082.5 165.5Q1002 91 909.5 25.0Q817 -41 709.5 -98.5Q602 -156 474 -208Q439 -170 419.5 -122.5Q400 -75 400 -24V552Q494 607 569.0 671.0Q644 735 708.5 807.0Q773 879 831.0 959.0Q889 1039 951 1126Q1064 1286 1182.5 1437.0Q1301 1588 1442 1725ZM1283 -287Q1343 -14 1438.5 230.0Q1534 474 1672.0 688.5Q1810 903 1993.0 1087.5Q2176 1272 2412 1426V1074Q2242 944 2109.0 792.5Q1976 641 1874.0 470.0Q1772 299 1699.5 109.0Q1627 -81 1578 -287ZM830 1474Q830 1459 819.5 1448.5Q809 1438 794 1438Q779 1438 768.5 1448.5Q758 1459 758 1474Q758 1488 769.0 1499.0Q780 1510 794 1510Q808 1510 819.0 1499.0Q830 1488 830 1474ZM2124 467Q2124 453 2113.0 442.0Q2102 431 2088 431Q2074 431 2063.0 442.0Q2052 453 2052 467Q2052 482 2062.5 492.5Q2073 503 2088 503Q2103 503 2113.5 492.5Q2124 482 2124 467ZM1872 0Q1858 0 1847.0 11.0Q1836 22 1836 36Q1836 50 1847.0 61.0Q1858 72 1872 72Q1887 72 1897.5 61.5Q1908 51 1908 36Q1908 21 1897.5 10.5Q1887 0 1872 0ZM2268 108Q2268 93 2257.5 82.5Q2247 72 2232 72Q2217 72 2206.5 82.5Q2196 93 2196 108Q2196 123 2206.5 133.5Q2217 144 2232 144Q2247 144 2257.5 133.5Q2268 123 2268 108ZM579 1078Q564 1078 553.5 1088.5Q543 1099 543 1114Q543 1129 553.5 1139.5Q564 1150 579 1150Q594 1150 604.5 1139.5Q615 1129 615 1114Q615 1099 604.5 1088.5Q594 1078 579 1078Z" style="fill:#0074ba;stroke:none" transform="scale(1,-1) translate(0,-256)" /></svg>