<?xml version="1.0" encoding="utf-8" ?>
<svg baseProfile="full" height="256" version="1.1" width="256" xmlns="http://www.w3.org/2000/svg" xmlns:ev="http://www.w3.org/2001/xml-events" xmlns:xlink="http://www.w3.org/1999/xlink"><defs /><path d="M1909 1366Q1909 1360 1905.0 1355.5Q1901 1351 1895.0 1348.0Q1889 1345 1882.5 1343.0Q1876 1341 1872 1339Q1867 1337 1864.0 1329.5Q1861 1322 1857.5 1314.5Q1854 1307 1849.5 1301.0Q1845 1295 1836 1295Q1832 1295 1827.5 1297.0Q1823 1299 1821 1304Q1818 1311 1813.0 1323.5Q1808 1336 1800 1340Q1791 1344 1778.0 1349.0Q1765 1354 1765 1367Q1765 1377 1774 1382L1802 1396Q1808 1399 1811.0 1406.0Q1814 1413 1817.0 1420.0Q1820 1427 1824.0 1432.5Q1828 1438 1836 1438Q1845 1438 1849.5 1432.0Q1854 1426 1857.0 1418.5Q1860 1411 1863.0 1404.0Q1866 1397 1872 1394Q1876 1392 1882.5 1390.0Q1889 1388 1895.0 1384.5Q1901 1381 1905.0 1376.5Q1909 1372 1909 1366ZM1334 647Q1334 641 1329.5 636.5Q1325 632 1319.0 629.0Q1313 626 1307.0 624.0Q1301 622 1297 620Q1291 617 1285.0 603.5Q1279 590 1277 585Q1272 576 1261 576Q1257 576 1252.5 578.0Q1248 580 1246 585Q1243 592 1238.0 604.5Q1233 617 1225 621Q1216 625 1203.0 630.0Q1190 635 1190 648Q1190 659 1199 664L1227 677Q1233 680 1236.0 687.0Q1239 694 1242.0 701.5Q1245 709 1249.0 714.5Q1253 720 1261 720Q1275 720 1280.0 706.0Q1285 692 1290 683Q1293 676 1300.0 672.5Q1307 669 1314.5 666.0Q1322 663 1328.0 659.0Q1334 655 1334 647Z" style="fill:#26eafc;stroke:none" transform="scale(1,-1) translate(0,-256)" /></svg>