<?xml version="1.0" encoding="utf-8" ?>
<svg baseProfile="full" height="256" version="1.1" width="256" xmlns="http://www.w3.org/2000/svg" xmlns:ev="http://www.w3.org/2001/xml-events" xmlns:xlink="http://www.w3.org/1999/xlink"><defs /><path d="M1995 429Q1957 386 1913.5 349.5Q1870 313 1821.0 287.0Q1772 261 1717.5 246.0Q1663 231 1605 231Q1510 231 1423.5 267.0Q1337 303 1262 360Q1212 397 1169.5 441.5Q1127 486 1096.5 536.5Q1066 587 1048.5 644.5Q1031 702 1031 766Q1031 851 1059.5 930.0Q1088 1009 1134 1078ZM1086 396 1238 350 1352 130 1745 -192Q1756 -200 1760 -211H831V170Q831 207 845.0 241.5Q859 276 883.5 302.5Q908 329 941.5 344.5Q975 360 1013 360Z" style="fill:#d3d3d3;stroke:none" transform="scale(1,-1) translate(0,-256)" /></svg>