<?xml version="1.0" encoding="utf-8" ?>
<svg baseProfile="full" height="256" version="1.1" width="256" xmlns="http://www.w3.org/2000/svg" xmlns:ev="http://www.w3.org/2001/xml-events" xmlns:xlink="http://www.w3.org/1999/xlink"><defs /><path d="M1909 1262Q1925 1262 1935.0 1252.5Q1945 1243 1946 1227L1969 487L1897 485L1878 1124L1590 747L1533 791L1821 1168L1199 1017L1182 1087Q1194 1090 1231.0 1099.0Q1268 1108 1320.0 1121.0Q1372 1134 1435.0 1149.0Q1498 1164 1562.0 1180.0Q1626 1196 1687.0 1210.5Q1748 1225 1796.0 1236.5Q1844 1248 1874.5 1255.0Q1905 1262 1909 1262Z" style="fill:#636363;stroke:none" transform="scale(1,-1) translate(0,-256)" /></svg>