<?xml version="1.0" encoding="utf-8" ?>
<svg baseProfile="full" height="256" version="1.1" width="256" xmlns="http://www.w3.org/2000/svg" xmlns:ev="http://www.w3.org/2001/xml-events" xmlns:xlink="http://www.w3.org/1999/xlink"><defs /><path d="M2034 1241Q2034 1211 2022.5 1185.0Q2011 1159 1991.0 1139.5Q1971 1120 1945.0 1108.5Q1919 1097 1889 1097Q1859 1097 1833.0 1108.5Q1807 1120 1787.5 1139.5Q1768 1159 1757.0 1185.0Q1746 1211 1746 1241Q1746 1271 1757.0 1297.0Q1768 1323 1787.5 1342.5Q1807 1362 1833.5 1373.5Q1860 1385 1890 1385Q1920 1385 1946.0 1373.5Q1972 1362 1991.5 1342.5Q2011 1323 2022.5 1297.0Q2034 1271 2034 1241ZM1148 1193Q1171 1193 1190 1179L2052 530Q2066 520 2073.0 504.5Q2080 489 2080 472Q2080 442 2059.0 421.5Q2038 401 2008 401Q1984 401 1965 415L1104 1064Q1090 1075 1082.5 1089.5Q1075 1104 1075 1121Q1075 1151 1096.5 1172.0Q1118 1193 1148 1193ZM1352 130 1119 321Q1096 341 1067.5 350.5Q1039 360 1009 360L1118 503L1446 257ZM1759 -144H767Q737 -144 712.0 -163.5Q687 -183 687 -215Q687 -247 712.0 -267.0Q737 -287 767 -287H1758Q1789 -287 1813.0 -267.0Q1837 -247 1837 -215Q1837 -183 1813.0 -163.5Q1789 -144 1759 -144ZM1047 72Q1076 72 1097.0 93.5Q1118 115 1118 144Q1118 173 1097.0 194.5Q1076 216 1047 216Q1017 216 996.0 195.0Q975 174 975 144Q975 114 996.0 93.0Q1017 72 1047 72Z" style="fill:#9b9b9b;stroke:none" transform="scale(1,-1) translate(0,-256)" /></svg>