<?xml version="1.0" encoding="utf-8" ?>
<svg baseProfile="full" height="256" version="1.1" width="256" xmlns="http://www.w3.org/2000/svg" xmlns:ev="http://www.w3.org/2001/xml-events" xmlns:xlink="http://www.w3.org/1999/xlink"><defs /><path d="M1926 1681Q1967 1681 2009.0 1669.5Q2051 1658 2090.0 1637.5Q2129 1617 2163.0 1590.0Q2197 1563 2224 1533Q2311 1434 2311 1300Q2311 1261 2305.0 1219.5Q2299 1178 2288 1141Q2284 1129 2275.5 1121.5Q2267 1114 2254 1114Q2239 1114 2228.5 1124.5Q2218 1135 2218 1150Q2218 1156 2219 1159Q2227 1194 2233.5 1228.5Q2240 1263 2240 1299Q2240 1406 2170 1486Q2148 1511 2119.5 1533.0Q2091 1555 2059.0 1572.0Q2027 1589 1992.5 1599.0Q1958 1609 1925 1609Q1896 1609 1873.0 1599.0Q1850 1589 1837 1589Q1822 1589 1811.5 1600.0Q1801 1611 1801 1626Q1801 1642 1816.0 1653.0Q1831 1664 1851.0 1670.0Q1871 1676 1892.5 1678.5Q1914 1681 1926 1681ZM1915 1546Q1967 1546 2012.0 1525.0Q2057 1504 2090.0 1469.0Q2123 1434 2142.0 1387.5Q2161 1341 2161 1290Q2161 1278 2159.5 1260.5Q2158 1243 2153.5 1226.5Q2149 1210 2140.0 1198.0Q2131 1186 2115 1186Q2099 1186 2089.0 1197.0Q2079 1208 2079 1223Q2079 1239 2084.0 1256.0Q2089 1273 2089 1290Q2089 1326 2076.0 1359.0Q2063 1392 2039.5 1417.5Q2016 1443 1984.5 1458.5Q1953 1474 1916 1474Q1893 1474 1872.5 1465.5Q1852 1457 1838 1457Q1823 1457 1812.0 1467.5Q1801 1478 1801 1493Q1801 1509 1814.5 1519.5Q1828 1530 1846.0 1536.0Q1864 1542 1883.5 1544.0Q1903 1546 1915 1546Z" style="fill:#1c5cd7;stroke:none" transform="scale(1,-1) translate(0,-256)" /></svg>