<?xml version="1.0" encoding="utf-8" ?>
<svg baseProfile="full" height="256" version="1.1" width="256" xmlns="http://www.w3.org/2000/svg" xmlns:ev="http://www.w3.org/2001/xml-events" xmlns:xlink="http://www.w3.org/1999/xlink"><defs /><path d="M1405 1761Q1549 1761 1682.0 1724.0Q1815 1687 1931.0 1619.0Q2047 1551 2142.0 1456.0Q2237 1361 2305.0 1245.0Q2373 1129 2410.0 996.0Q2447 863 2447 719Q2447 575 2410.0 442.0Q2373 309 2305.0 193.0Q2237 77 2142.0 -18.0Q2047 -113 1931.0 -181.0Q1815 -249 1682.0 -286.0Q1549 -323 1405 -323Q1261 -323 1128.0 -286.0Q995 -249 879.0 -181.0Q763 -113 668.0 -18.0Q573 77 505.0 193.0Q437 309 400.0 442.0Q363 575 363 719Q363 863 400.0 996.0Q437 1129 505.0 1245.0Q573 1361 668.0 1456.0Q763 1551 879.0 1619.0Q995 1687 1128.0 1724.0Q1261 1761 1405 1761Z" style="fill:#9b9b9b;stroke:none" transform="scale(1,-1) translate(0,-256)" /></svg>