<?xml version="1.0" encoding="utf-8" ?>
<svg baseProfile="full" height="256" version="1.1" width="256" xmlns="http://www.w3.org/2000/svg" xmlns:ev="http://www.w3.org/2001/xml-events" xmlns:xlink="http://www.w3.org/1999/xlink"><defs /><path d="M411 216Q408 238 404.0 261.0Q400 284 400 306Q400 329 415.0 344.5Q430 360 453 360H1302Q1324 360 1340.0 345.0Q1356 330 1356 307Q1356 285 1352.0 261.5Q1348 238 1345 216L1035 181Q1012 179 994.0 176.0Q976 173 958.0 170.5Q940 168 921.5 166.0Q903 164 880 164Q857 164 838.5 166.0Q820 168 802.0 170.5Q784 173 765.5 176.0Q747 179 724 181ZM428 72Q434 26 439.5 -19.0Q445 -64 451 -110Q456 -148 473.5 -180.5Q491 -213 518.0 -236.5Q545 -260 579.0 -273.5Q613 -287 652 -287H1104Q1143 -287 1177.0 -273.5Q1211 -260 1237.5 -236.5Q1264 -213 1281.5 -180.5Q1299 -148 1304 -110Q1310 -64 1315.5 -19.0Q1321 26 1327 72L1029 111Q1007 114 989.5 117.5Q972 121 955.0 124.0Q938 127 920.0 129.0Q902 131 880 131Q858 131 840.0 129.0Q822 127 804.5 124.0Q787 121 769.0 117.5Q751 114 729 111Z" style="fill:#b4acbc;stroke:none" transform="scale(1,-1) translate(0,-256)" /></svg>