<?xml version="1.0" encoding="utf-8" ?>
<svg baseProfile="full" height="256" version="1.1" width="256" xmlns="http://www.w3.org/2000/svg" xmlns:ev="http://www.w3.org/2001/xml-events" xmlns:xlink="http://www.w3.org/1999/xlink"><defs /><path d="M2412 708V-220Q2412 -248 2392.0 -267.5Q2372 -287 2344 -287H1329Q1301 -287 1281.0 -267.5Q1261 -248 1261 -220V708Q1261 801 1282.0 872.0Q1303 943 1339.5 1004.0Q1376 1065 1425.5 1123.0Q1475 1181 1533 1247Q1546 1261 1552.5 1279.5Q1559 1298 1559 1318Q1559 1342 1551.5 1358.0Q1544 1374 1532.5 1387.0Q1521 1400 1506.5 1411.5Q1492 1423 1478 1438L1834 1505L2195 1438Q2181 1423 2166.5 1411.5Q2152 1400 2140.5 1387.0Q2129 1374 2121.5 1358.0Q2114 1342 2114 1318Q2114 1298 2120.5 1279.5Q2127 1261 2140 1247Q2198 1181 2247.5 1123.0Q2297 1065 2333.5 1004.0Q2370 943 2391.0 872.0Q2412 801 2412 708ZM1988 1542Q1965 1539 1947.0 1535.5Q1929 1532 1911.5 1529.0Q1894 1526 1875.5 1524.0Q1857 1522 1834 1522Q1811 1522 1793.0 1524.0Q1775 1526 1757.5 1529.0Q1740 1532 1722.0 1535.5Q1704 1539 1682 1542L1377 1581Q1373 1589 1367.0 1604.0Q1361 1619 1355.0 1635.0Q1349 1651 1345.0 1666.0Q1341 1681 1341 1689Q1341 1704 1351.5 1714.5Q1362 1725 1377 1725H2297Q2311 1725 2321.5 1715.0Q2332 1705 2332 1690Q2332 1682 2328.0 1667.0Q2324 1652 2318.0 1635.5Q2312 1619 2306.0 1604.0Q2300 1589 2297 1581Z" style="fill:#cdc4d6;stroke:none" transform="scale(1,-1) translate(0,-256)" /></svg>