<?xml version="1.0" encoding="utf-8" ?>
<svg baseProfile="full" height="256" version="1.1" width="256" xmlns="http://www.w3.org/2000/svg" xmlns:ev="http://www.w3.org/2001/xml-events" xmlns:xlink="http://www.w3.org/1999/xlink"><defs /><path d="M1406 496Q1441 461 1489.5 446.0Q1538 431 1586 431Q1634 431 1681.5 445.5Q1729 460 1764 494Q1752 424 1722.0 366.5Q1692 309 1646.0 267.5Q1600 226 1539.5 203.0Q1479 180 1406 180Q1333 180 1272.5 203.0Q1212 226 1166.0 267.5Q1120 309 1090.0 366.5Q1060 424 1048 494Q1083 460 1130.5 445.5Q1178 431 1226 431Q1274 431 1322.5 446.0Q1371 461 1406 496Z" style="fill:#bb1d80;stroke:none" transform="scale(1,-1) translate(0,-256)" /></svg>