<?xml version="1.0" encoding="utf-8" ?>
<svg baseProfile="full" height="256" version="1.1" width="256" xmlns="http://www.w3.org/2000/svg" xmlns:ev="http://www.w3.org/2001/xml-events" xmlns:xlink="http://www.w3.org/1999/xlink"><defs /><path d="M580 360Q588 360 610.5 350.0Q633 340 658.5 327.0Q684 314 707.0 301.5Q730 289 739 284Q759 274 759 252Q759 238 748.5 227.0Q738 216 723 216Q715 216 692.5 226.0Q670 236 644.5 248.5Q619 261 596.0 273.5Q573 286 563 291Q554 296 548.5 305.0Q543 314 543 324Q543 339 554.0 349.5Q565 360 580 360ZM435 -72Q420 -72 410.0 -61.0Q400 -50 400 -35Q400 -14 420 -4L707 140Q714 144 723 144Q738 144 748.5 133.0Q759 122 759 108Q759 86 739 76L452 -68Q445 -72 435 -72ZM2232 360Q2247 360 2258.0 349.5Q2269 339 2269 324Q2269 314 2263.5 305.0Q2258 296 2249 291Q2239 286 2216.0 273.5Q2193 261 2167.5 248.5Q2142 236 2119.5 226.0Q2097 216 2088 216Q2074 216 2063.5 226.5Q2053 237 2053 252Q2053 274 2073 284Q2083 289 2105.5 301.5Q2128 314 2153.5 327.0Q2179 340 2201.0 350.0Q2223 360 2232 360ZM2377 -72Q2367 -72 2360 -68L2073 76Q2053 86 2053 108Q2053 122 2063.5 133.0Q2074 144 2088 144Q2098 144 2105 140L2392 -4Q2412 -14 2412 -35Q2412 -50 2402.0 -61.0Q2392 -72 2377 -72Z" style="fill:#ff6723;stroke:none" transform="scale(1,-1) translate(0,-256)" /></svg>