<?xml version="1.0" encoding="utf-8" ?>
<svg baseProfile="full" height="256" version="1.1" width="256" xmlns="http://www.w3.org/2000/svg" xmlns:ev="http://www.w3.org/2001/xml-events" xmlns:xlink="http://www.w3.org/1999/xlink"><defs /><path d="M663 881Q639 881 620.0 898.0Q601 915 601 940V1314Q601 1337 621.0 1351.5Q641 1366 662 1366Q684 1366 702 1350L903 1163Q911 1156 915.0 1145.0Q919 1134 919 1123Q919 1112 915.0 1102.0Q911 1092 903 1084L702 897Q684 881 663 881ZM2153 881Q2177 881 2196.0 898.0Q2215 915 2215 940V1314Q2215 1337 2195.0 1351.5Q2175 1366 2154 1366Q2132 1366 2114 1350L1913 1163Q1896 1148 1896 1123Q1896 1112 1900.5 1102.0Q1905 1092 1913 1084L2114 897Q2132 881 2153 881Z" style="fill:#ff822d;stroke:none" transform="scale(1,-1) translate(0,-256)" /></svg>