<?xml version="1.0" encoding="utf-8" ?>
<svg baseProfile="full" height="256" version="1.1" width="256" xmlns="http://www.w3.org/2000/svg" xmlns:ev="http://www.w3.org/2001/xml-events" xmlns:xlink="http://www.w3.org/1999/xlink"><defs /><path d="M937 611Q937 576 923.5 543.0Q910 510 885 485L705 306Q679 281 647.0 267.0Q615 253 579 253Q543 253 510.5 267.0Q478 281 453.5 305.5Q429 330 415.0 362.5Q401 395 401 431Q401 467 415.0 499.0Q429 531 454 557L633 737Q658 762 691.0 775.5Q724 789 759 789Q796 789 828.5 775.0Q861 761 885.0 737.0Q909 713 923.0 680.5Q937 648 937 611ZM1875 611Q1875 648 1889.0 680.5Q1903 713 1927.0 737.0Q1951 761 1983.5 775.0Q2016 789 2053 789Q2088 789 2121.0 775.5Q2154 762 2179 737L2358 557Q2383 531 2396.5 499.0Q2410 467 2410 431Q2410 395 2396.0 362.5Q2382 330 2358.0 305.5Q2334 281 2301.5 267.0Q2269 253 2232 253Q2197 253 2165.0 267.0Q2133 281 2107 306L1927 485Q1902 510 1888.5 543.0Q1875 576 1875 611Z" style="fill:#3f5fff;stroke:none" transform="scale(1,-1) translate(0,-256)" /></svg>