<?xml version="1.0" encoding="utf-8" ?>
<svg baseProfile="full" height="256" version="1.1" width="256" xmlns="http://www.w3.org/2000/svg" xmlns:ev="http://www.w3.org/2001/xml-events" xmlns:xlink="http://www.w3.org/1999/xlink"><defs /><path d="M1135 1427Q1144 1367 1190 1330Q1244 1288 1304.5 1252.0Q1365 1216 1424 1181L1622 1066Q1630 1061 1635.0 1052.5Q1640 1044 1640 1035Q1640 1029 1634.0 1017.5Q1628 1006 1620.0 993.0Q1612 980 1604.5 968.5Q1597 957 1593 951Q1572 916 1561.0 871.0Q1550 826 1550 786Q1550 744 1559.5 709.0Q1569 674 1586.0 643.5Q1603 613 1627.5 585.5Q1652 558 1681 531Q1694 520 1694 504Q1694 489 1683.5 478.0Q1673 467 1658 467Q1651 467 1645.5 469.5Q1640 472 1635 476Q1563 532 1520.5 613.0Q1478 694 1478 786Q1478 841 1492.5 894.5Q1507 948 1536 996L1301 1153H1300L1288 1162Q1259 1183 1230.5 1205.5Q1202 1228 1179.5 1254.0Q1157 1280 1143.0 1311.5Q1129 1343 1129 1382Q1129 1404 1135 1427ZM817 -38Q861 -36 904.0 -34.0Q947 -32 991 -30Q1154 -22 1314.5 -14.5Q1475 -7 1637 5Q1703 10 1769.0 14.5Q1835 19 1901 27Q2003 39 2084.0 91.5Q2165 144 2227.5 219.5Q2290 295 2335.5 385.5Q2381 476 2411 564Q2408 448 2364.0 340.0Q2320 232 2244.0 147.0Q2168 62 2066.0 8.0Q1964 -46 1845 -53Q1626 -66 1409.5 -78.5Q1193 -91 974 -104H965Q924 -104 884.0 -86.0Q844 -68 817 -38ZM429 588Q463 541 505.5 527.5Q548 514 604 513L1082 503Q1097 503 1107.5 514.0Q1118 525 1118 539Q1118 554 1108.0 564.5Q1098 575 1083 575ZM568 935H1154Q1168 935 1179.0 924.0Q1190 913 1190 899Q1190 884 1179.5 873.5Q1169 863 1154 863H628Q619 867 610.5 876.0Q602 885 593.5 895.0Q585 905 578.5 915.5Q572 926 568 935ZM587 863H620ZM568 301Q576 281 589.5 262.5Q603 244 620.5 230.5Q638 217 658.5 209.0Q679 201 702 201H754L1227 209Q1243 209 1252.5 220.0Q1262 231 1262 246Q1262 261 1251.5 271.0Q1241 281 1226 281Q1142 281 1060.0 277.5Q978 274 894 274Q853 274 812.0 274.0Q771 274 730.0 276.0Q689 278 648.0 284.0Q607 290 568 301Z" style="fill:#d67d00;stroke:none" transform="scale(1,-1) translate(0,-256)" /></svg>