<?xml version="1.0" encoding="utf-8" ?>
<svg baseProfile="full" height="256" version="1.1" width="256" xmlns="http://www.w3.org/2000/svg" xmlns:ev="http://www.w3.org/2001/xml-events" xmlns:xlink="http://www.w3.org/1999/xlink"><defs /><path d="M1010 1510Q1024 1510 1035.5 1499.5Q1047 1489 1047 1474Q1047 1470 1045 1464Q1013 1344 930.5 1283.0Q848 1222 723 1222Q708 1222 697.5 1232.5Q687 1243 687 1258Q687 1273 697.5 1283.5Q708 1294 723 1294Q770 1294 816.5 1306.5Q863 1319 899 1351Q931 1379 947.0 1412.0Q963 1445 976 1483Q980 1494 988.5 1502.0Q997 1510 1010 1510ZM903 1150Q873 1150 852.0 1129.0Q831 1108 831 1078Q831 1058 842.0 1040.5Q853 1023 871 1014L1030 935L871 855Q853 846 842.0 828.5Q831 811 831 791Q831 762 852.0 740.5Q873 719 902 719Q919 719 935 727L1222 870Q1241 879 1251.5 896.5Q1262 914 1262 935Q1262 956 1251.5 973.0Q1241 990 1222 999L935 1143Q921 1150 903 1150ZM1908 1150Q1938 1150 1959.5 1129.0Q1981 1108 1981 1078Q1981 1058 1970.0 1040.5Q1959 1023 1941 1014L1782 935L1941 855Q1959 846 1970.0 828.5Q1981 811 1981 791Q1981 762 1960.0 740.5Q1939 719 1909 719Q1893 719 1877 727L1589 870Q1571 879 1560.5 897.0Q1550 915 1550 935Q1550 955 1560.5 972.5Q1571 990 1589 999L1877 1143Q1891 1150 1908 1150ZM2125 1258Q2125 1243 2114.5 1232.5Q2104 1222 2089 1222Q1964 1222 1881.5 1283.0Q1799 1344 1767 1464Q1765 1470 1765 1474Q1765 1489 1776.5 1499.5Q1788 1510 1802 1510Q1815 1510 1823.5 1502.0Q1832 1494 1836 1483Q1849 1445 1865.0 1412.0Q1881 1379 1913 1351Q1949 1319 1995.0 1306.5Q2041 1294 2089 1294Q2104 1294 2114.5 1283.5Q2125 1273 2125 1258Z" style="fill:#402a32;stroke:none" transform="scale(1,-1) translate(0,-256)" /></svg>