<?xml version="1.0" encoding="utf-8" ?>
<svg baseProfile="full" height="256" version="1.1" width="256" xmlns="http://www.w3.org/2000/svg" xmlns:ev="http://www.w3.org/2001/xml-events" xmlns:xlink="http://www.w3.org/1999/xlink"><defs /><path d="M543 1438Q513 1438 487.0 1449.0Q461 1460 441.5 1479.5Q422 1499 411.0 1525.0Q400 1551 400 1581Q400 1611 411.0 1637.0Q422 1663 441.5 1682.5Q461 1702 487.0 1713.5Q513 1725 543 1725H2268Q2298 1725 2324.0 1713.5Q2350 1702 2369.5 1682.5Q2389 1663 2400.5 1637.0Q2412 1611 2412 1581Q2412 1551 2400.5 1525.0Q2389 1499 2369.5 1479.5Q2350 1460 2324.0 1449.0Q2298 1438 2268 1438ZM759 -287Q729 -287 703.0 -276.0Q677 -265 657.5 -245.5Q638 -226 626.5 -200.0Q615 -174 615 -144Q615 -114 626.5 -88.0Q638 -62 657.5 -42.5Q677 -23 703.0 -11.5Q729 0 759 0H2053Q2083 0 2109.0 -11.5Q2135 -23 2154.5 -42.5Q2174 -62 2185.5 -88.0Q2197 -114 2197 -144Q2197 -174 2185.5 -200.0Q2174 -226 2154.5 -245.5Q2135 -265 2109.0 -276.0Q2083 -287 2053 -287Z" style="fill:#9b9b9b;stroke:none" transform="scale(1,-1) translate(0,-256)" /></svg>