<?xml version="1.0" encoding="utf-8" ?>
<svg baseProfile="full" height="256" version="1.1" width="256" xmlns="http://www.w3.org/2000/svg" xmlns:ev="http://www.w3.org/2001/xml-events" xmlns:xlink="http://www.w3.org/1999/xlink"><defs /><path d="M1228 1704 1407 1364 1537 1611 1529 1627 1657 1694 1838 1351 1954 1573 2082 1505 1919 1195 2053 941 2077 987 2152 1609 2353 1586 2130 -265 1929 -241 1958 2 1841 225 1704 -35 1752 -126 1624 -194 1622 -191 1590 -252 1461 -185 1540 -35 1406 219 1273 -35 1314 -113 1201 -172 1152 -266 1023 -198 1109 -35 972 225 850 -6 878 -241 677 -265 454 1586 656 1609 729 999 760 941 893 1195 692 1577 821 1645 975 1351 1112 1611 1099 1636ZM2028 582 1923 382 1989 256ZM820 248 890 381 778 594ZM1971 785 1837 1039 1707 792 1841 538ZM1759 382 1625 636 1488 375 1622 121ZM1324 375 1188 635 1054 381 1191 121ZM1543 791 1407 1052 1270 791 1407 531ZM1756 1195 1619 1455 1489 1208 1625 947ZM842 785 972 538 1105 791 975 1039ZM1057 1195 1188 948 1324 1208 1194 1455Z" style="fill:#bebebe;stroke:none" transform="scale(1,-1) translate(0,-256)" /></svg>