<?xml version="1.0" encoding="utf-8" ?>
<svg baseProfile="full" height="256" version="1.1" width="256" xmlns="http://www.w3.org/2000/svg" xmlns:ev="http://www.w3.org/2001/xml-events" xmlns:xlink="http://www.w3.org/1999/xlink"><defs /><path d="M1945 1586Q1983 1649 2039.0 1687.0Q2095 1725 2170 1725Q2226 1725 2271.0 1704.0Q2316 1683 2347.5 1647.0Q2379 1611 2395.5 1563.0Q2412 1515 2412 1461Q2412 1444 2410.5 1426.0Q2409 1408 2404 1391Q2387 1324 2346.0 1256.0Q2305 1188 2251.0 1125.0Q2197 1062 2136.0 1008.0Q2075 954 2019 915Q2002 903 1984.0 896.5Q1966 890 1945 890Q1924 890 1906.0 896.5Q1888 903 1871 915Q1815 954 1754.0 1008.0Q1693 1062 1639.0 1125.0Q1585 1188 1543.5 1256.0Q1502 1324 1486 1391Q1481 1408 1479.5 1426.0Q1478 1444 1478 1461Q1478 1515 1494.5 1563.0Q1511 1611 1542.5 1647.0Q1574 1683 1619.0 1704.0Q1664 1725 1720 1725Q1795 1725 1850.5 1686.5Q1906 1648 1945 1586ZM1268 1442Q1169 1442 1064.5 1424.0Q960 1406 862.0 1368.5Q764 1331 678.0 1272.0Q592 1213 530 1131Q510 1105 497.0 1080.0Q484 1055 469 1028Q458 1006 435 1006Q420 1006 410.0 1016.5Q400 1027 400 1042Q400 1049 403 1057Q438 1137 493.0 1201.5Q548 1266 617.5 1317.0Q687 1368 766.5 1405.0Q846 1442 930.5 1466.0Q1015 1490 1101.0 1501.5Q1187 1513 1268 1513Q1293 1513 1321.0 1513.5Q1349 1514 1373 1509Q1406 1503 1406 1471Q1406 1455 1393.5 1446.5Q1381 1438 1367 1438Q1342 1438 1317.5 1440.0Q1293 1442 1268 1442ZM2303 1077Q2319 1077 2332 1064Q2351 1043 2366.5 1015.5Q2382 988 2393.0 957.5Q2404 927 2409.5 895.5Q2415 864 2415 836Q2415 779 2395.5 723.5Q2376 668 2342.0 617.0Q2308 566 2262.5 522.5Q2217 479 2165.5 445.0Q2114 411 2058.5 389.0Q2003 367 1950 360H1945Q1931 360 1920.0 370.0Q1909 380 1909 394Q1909 424 1940 431Q1957 435 1974.5 438.5Q1992 442 2009 448Q2087 474 2157.0 526.0Q2227 578 2275 645Q2305 687 2324.0 737.0Q2343 787 2343 839Q2343 879 2331.5 912.5Q2320 946 2305.5 971.5Q2291 997 2279.5 1015.0Q2268 1033 2268 1041Q2268 1056 2278.0 1066.5Q2288 1077 2303 1077ZM1119 798Q1140 831 1168.5 863.0Q1197 895 1230.5 922.5Q1264 950 1301.0 970.0Q1338 990 1377 998Q1399 1003 1422.0 1004.5Q1445 1006 1467 1006Q1552 1006 1620.5 975.0Q1689 944 1737.0 891.0Q1785 838 1811.0 766.5Q1837 695 1837 613Q1837 557 1824 506Q1800 414 1749.5 324.0Q1699 234 1633.5 151.0Q1568 68 1494.0 -6.0Q1420 -80 1350 -141Q1316 -170 1281.5 -200.0Q1247 -230 1210 -256Q1188 -271 1166.5 -279.5Q1145 -288 1118 -288Q1092 -288 1070.0 -279.5Q1048 -271 1026 -256Q989 -230 954.5 -200.0Q920 -170 886 -141Q817 -80 743.0 -5.5Q669 69 603.0 152.0Q537 235 486.0 324.5Q435 414 412 506Q399 555 399 610Q399 692 425.0 764.0Q451 836 499.5 890.0Q548 944 617.0 975.0Q686 1006 771 1006Q794 1006 816.5 1004.5Q839 1003 861 998Q900 990 937.0 970.0Q974 950 1007.5 922.5Q1041 895 1069.5 863.0Q1098 831 1119 798Z" style="fill:#f92f60;stroke:none" transform="scale(1,-1) translate(0,-256)" /></svg>