<?xml version="1.0" encoding="utf-8" ?>
<svg baseProfile="full" height="256" version="1.1" width="256" xmlns="http://www.w3.org/2000/svg" xmlns:ev="http://www.w3.org/2001/xml-events" xmlns:xlink="http://www.w3.org/1999/xlink"><defs /><path d="M421 1725H1026Q1044 1725 1060.5 1719.0Q1077 1713 1089.5 1701.5Q1102 1690 1110.0 1674.5Q1118 1659 1118 1641Q1118 1623 1110.0 1607.5Q1102 1592 1089.5 1580.5Q1077 1569 1060.5 1563.0Q1044 1557 1026 1557H819V1091Q819 1073 811.0 1057.0Q803 1041 790.5 1030.0Q778 1019 761.5 1012.5Q745 1006 727 1006Q709 1006 692.0 1012.0Q675 1018 662.5 1029.5Q650 1041 642.0 1056.5Q634 1072 634 1091V1557H421Q403 1557 386.5 1563.0Q370 1569 357.0 1580.0Q344 1591 336.0 1606.5Q328 1622 328 1641Q328 1660 336.0 1675.5Q344 1691 357.0 1702.0Q370 1713 386.5 1719.0Q403 1725 421 1725ZM1959 1725Q1977 1725 1993.5 1719.0Q2010 1713 2023.5 1702.0Q2037 1691 2045.0 1675.5Q2053 1660 2053 1641V1091Q2053 1072 2045.5 1056.5Q2038 1041 2025.0 1029.5Q2012 1018 1995.5 1012.0Q1979 1006 1961 1006Q1943 1006 1926.0 1012.0Q1909 1018 1896.5 1029.5Q1884 1041 1876.0 1056.5Q1868 1072 1868 1091V1456L1684 1290Q1668 1276 1651.0 1271.0Q1634 1266 1613 1266Q1591 1266 1575.0 1270.5Q1559 1275 1542 1290L1377 1438V1091Q1377 1072 1369.0 1056.5Q1361 1041 1348.0 1030.0Q1335 1019 1318.5 1013.0Q1302 1007 1284 1007Q1266 1007 1249.5 1013.0Q1233 1019 1219.5 1030.0Q1206 1041 1198.0 1056.5Q1190 1072 1190 1091V1640Q1190 1659 1198.0 1674.5Q1206 1690 1218.5 1701.5Q1231 1713 1248.0 1719.0Q1265 1725 1283 1725Q1322 1725 1349 1701L1611 1464L1874 1701Q1892 1718 1914.0 1721.5Q1936 1725 1959 1725Z" style="fill:#635994;stroke:none" transform="scale(1,-1) translate(0,-256)" /></svg>