<?xml version="1.0" encoding="utf-8" ?>
<svg baseProfile="full" height="256" version="1.1" width="256" xmlns="http://www.w3.org/2000/svg" xmlns:ev="http://www.w3.org/2001/xml-events" xmlns:xlink="http://www.w3.org/1999/xlink"><defs /><path d="M1190 863Q1161 863 1139.5 884.5Q1118 906 1118 935Q1118 964 1139.5 985.0Q1161 1006 1190 1006Q1219 1006 1240.5 985.0Q1262 964 1262 935Q1262 905 1241.0 884.0Q1220 863 1190 863ZM1622 863Q1592 863 1571.0 884.0Q1550 905 1550 935Q1550 964 1571.5 985.0Q1593 1006 1622 1006Q1651 1006 1672.0 985.0Q1693 964 1693 935Q1693 906 1672.0 884.5Q1651 863 1622 863Z" style="fill:#533566;stroke:none" transform="scale(1,-1) translate(0,-256)" /></svg>