<?xml version="1.0" encoding="utf-8" ?>
<svg baseProfile="full" height="256" version="1.1" width="256" xmlns="http://www.w3.org/2000/svg" xmlns:ev="http://www.w3.org/2001/xml-events" xmlns:xlink="http://www.w3.org/1999/xlink"><defs /><path d="M854 1042H687Q687 1139 723.5 1224.0Q760 1309 823.5 1372.5Q887 1436 972.0 1473.0Q1057 1510 1154 1510V1342Q1154 1280 1130.5 1225.5Q1107 1171 1066.0 1130.0Q1025 1089 970.5 1065.5Q916 1042 854 1042ZM1958 1042H2125Q2125 1139 2088.5 1224.0Q2052 1309 1988.5 1372.5Q1925 1436 1840.0 1473.0Q1755 1510 1658 1510V1342Q1658 1280 1681.5 1225.5Q1705 1171 1746.0 1130.0Q1787 1089 1841.5 1065.5Q1896 1042 1958 1042ZM1406 -72Q1493 -72 1575.0 -50.0Q1657 -28 1728.5 12.0Q1800 52 1860.0 108.5Q1920 165 1962.5 235.0Q2005 305 2029.0 386.0Q2053 467 2053 555Q2053 649 2025.0 713.5Q1997 778 1948.5 820.5Q1900 863 1836.0 886.0Q1772 909 1700.0 920.0Q1628 931 1552.5 933.0Q1477 935 1406 935Q1335 935 1259.5 933.0Q1184 931 1112.0 920.0Q1040 909 976.0 886.0Q912 863 863.5 820.5Q815 778 787.0 713.5Q759 649 759 555Q759 422 811.0 307.5Q863 193 952.0 108.5Q1041 24 1158.0 -24.0Q1275 -72 1406 -72Z" style="fill:#f8312f;stroke:none" transform="scale(1,-1) translate(0,-256)" /></svg>