<?xml version="1.0" encoding="utf-8" ?>
<svg baseProfile="full" height="256" version="1.1" width="256" xmlns="http://www.w3.org/2000/svg" xmlns:ev="http://www.w3.org/2001/xml-events" xmlns:xlink="http://www.w3.org/1999/xlink"><defs /><path d="M1156 1403H1126V1510H1262Q1262 1488 1253.5 1468.5Q1245 1449 1231.0 1434.5Q1217 1420 1197.5 1411.5Q1178 1403 1156 1403ZM1156 1379H1126V1273H1262Q1262 1318 1231.5 1348.5Q1201 1379 1156 1379ZM1656 1403H1693V1510H1550Q1550 1488 1558.5 1468.5Q1567 1449 1581.0 1434.5Q1595 1420 1614.5 1411.5Q1634 1403 1656 1403ZM1656 1379H1693V1273H1550Q1550 1318 1580.5 1348.5Q1611 1379 1656 1379ZM803 953Q820 962 830.0 978.5Q840 995 840 1015Q840 1044 819.5 1065.0Q799 1086 770 1086Q741 1086 720.0 1065.0Q699 1044 699 1015Q699 996 708.5 979.5Q718 963 735 954Q722 946 714.0 932.0Q706 918 706 902Q706 848 726.5 800.0Q747 752 783.0 716.0Q819 680 867.0 659.5Q915 639 969 639Q995 639 1013.0 657.5Q1031 676 1031 702Q1031 728 1013.0 746.0Q995 764 969 764Q940 764 915.0 775.0Q890 786 871.5 804.5Q853 823 842.0 848.0Q831 873 831 902Q831 917 823.5 931.0Q816 945 803 953ZM2014 456Q1992 456 1976.5 469.5Q1961 483 1961 506Q1961 526 1976 541L2287 852Q2301 866 2321 866Q2344 866 2358.0 851.0Q2372 836 2372 814Q2372 745 2342.0 680.5Q2312 616 2262.0 566.0Q2212 516 2147.5 486.0Q2083 456 2014 456ZM1923 408Q1902 408 1887.5 393.5Q1873 379 1873 358Q1873 347 1877.5 338.0Q1882 329 1890 321Q1914 297 1944.0 279.0Q1974 261 2007.0 248.5Q2040 236 2075.0 229.5Q2110 223 2143 223Q2211 223 2279.0 248.0Q2347 273 2396 321Q2413 338 2413 358Q2413 378 2398.5 393.0Q2384 408 2363 408ZM1723 198Q1721 206 1721 212Q1721 232 1735.5 247.5Q1750 263 1771 263Q1844 263 1909.0 236.0Q1974 209 2023.5 162.5Q2073 116 2104.5 53.0Q2136 -10 2142 -82V-87Q2142 -107 2127.5 -122.0Q2113 -137 2092 -137Q2083 -137 2074.5 -133.0Q2066 -129 2059 -123L1737 176Q1789 88 1789 -17Q1789 -81 1766.5 -145.5Q1744 -210 1700 -258Q1684 -276 1662 -276Q1642 -276 1628.0 -262.0Q1614 -248 1613 -228L1596 212Q1595 233 1610.0 248.0Q1625 263 1646 263Q1658 263 1669.5 256.5Q1681 250 1690.5 240.0Q1700 230 1708.5 218.5Q1717 207 1723 198ZM934 354Q934 374 920.0 388.5Q906 403 885 403H449Q428 403 414.0 388.5Q400 374 400 354Q400 333 416 317Q464 270 532.5 244.5Q601 219 667 219Q733 219 801.5 244.5Q870 270 918 317Q934 333 934 354ZM795 451Q817 451 832.0 464.5Q847 478 847 500Q847 520 832 535L524 844Q510 858 489 858Q466 858 453.0 843.0Q440 828 440 806Q440 737 469.5 673.0Q499 609 548.5 559.5Q598 510 662.0 480.5Q726 451 795 451ZM1034 260Q1055 260 1070.0 245.0Q1085 230 1085 209Q1085 188 1069 174L749 -123Q742 -129 733.5 -133.0Q725 -137 716 -137Q695 -137 681.0 -122.0Q667 -107 667 -87V-82Q672 -11 703.5 51.5Q735 114 784.5 160.5Q834 207 898.0 233.5Q962 260 1034 260ZM1165 255Q1186 255 1201.0 240.0Q1216 225 1215 203L1199 -236Q1198 -256 1183.5 -270.0Q1169 -284 1149 -284Q1127 -284 1111 -266Q1067 -217 1044.5 -154.0Q1022 -91 1022 -26Q1022 47 1049.0 118.0Q1076 189 1130 240Q1138 247 1146.0 251.0Q1154 255 1165 255ZM2094 902Q2094 918 2086.5 931.5Q2079 945 2066 954Q2083 963 2092.5 979.5Q2102 996 2102 1015Q2102 1044 2081.5 1065.0Q2061 1086 2032 1086Q2003 1086 1982.0 1065.0Q1961 1044 1961 1015Q1961 996 1970.5 979.5Q1980 963 1997 954Q1984 945 1976.5 931.5Q1969 918 1969 902Q1969 873 1958.5 848.0Q1948 823 1929.0 804.5Q1910 786 1885.0 775.0Q1860 764 1832 764Q1806 764 1787.5 746.0Q1769 728 1769 702Q1769 676 1787.5 657.5Q1806 639 1832 639Q1886 639 1934.0 659.5Q1982 680 2017.5 716.0Q2053 752 2073.5 800.0Q2094 848 2094 902Z" style="fill:#ca0b4a;stroke:none" transform="scale(1,-1) translate(0,-256)" /></svg>