<?xml version="1.0" encoding="utf-8" ?>
<svg baseProfile="full" height="256" version="1.1" width="256" xmlns="http://www.w3.org/2000/svg" xmlns:ev="http://www.w3.org/2001/xml-events" xmlns:xlink="http://www.w3.org/1999/xlink"><defs /><path d="M1637 1287Q1637 1265 1638.0 1248.5Q1639 1232 1644.5 1218.0Q1650 1204 1661.5 1192.0Q1673 1180 1694 1167Q1702 1162 1708.5 1159.5Q1715 1157 1724 1153Q1753 1137 1781.0 1119.5Q1809 1102 1836 1082Q1907 1028 1963.0 960.0Q2019 892 2058.0 814.0Q2097 736 2117.5 650.5Q2138 565 2138 475Q2138 370 2111.0 272.5Q2084 175 2034.0 90.5Q1984 6 1915.0 -63.5Q1846 -133 1761.0 -182.5Q1676 -232 1579.0 -259.5Q1482 -287 1377 -287Q1272 -287 1175.0 -259.5Q1078 -232 993.5 -182.5Q909 -133 839.0 -63.0Q769 7 719.5 91.5Q670 176 642.5 273.0Q615 370 615 475Q615 565 635.5 650.5Q656 736 695.0 814.0Q734 892 790.0 960.0Q846 1028 918 1082Q944 1102 972.5 1119.5Q1001 1137 1030 1152Q1039 1157 1045.5 1159.5Q1052 1162 1060 1167Q1081 1180 1092.5 1192.0Q1104 1204 1109.5 1218.0Q1115 1232 1116.0 1248.5Q1117 1265 1117 1287ZM1377 -67Q1489 -67 1587.5 -24.0Q1686 19 1759.5 92.5Q1833 166 1875.5 264.5Q1918 363 1918 475Q1918 587 1875.5 685.5Q1833 784 1759.5 857.5Q1686 931 1587.5 973.5Q1489 1016 1377 1016Q1265 1016 1166.5 973.5Q1068 931 994.5 857.5Q921 784 878.0 685.5Q835 587 835 475Q835 363 877.5 264.0Q920 165 993.5 91.5Q1067 18 1166.0 -24.5Q1265 -67 1377 -67Z" style="fill:#b4acbc;stroke:none" transform="scale(1,-1) translate(0,-256)" /></svg>