<?xml version="1.0" encoding="utf-8" ?>
<svg baseProfile="full" height="256" version="1.1" width="256" xmlns="http://www.w3.org/2000/svg" xmlns:ev="http://www.w3.org/2001/xml-events" xmlns:xlink="http://www.w3.org/1999/xlink"><defs /><path d="M1272 856Q1300 856 1333.0 865.0Q1366 874 1399.0 884.5Q1432 895 1464.5 904.0Q1497 913 1526 913Q1548 913 1568.5 904.0Q1589 895 1604.0 879.5Q1619 864 1628.0 843.5Q1637 823 1637 801Q1637 771 1622.0 734.0Q1607 697 1589.5 658.5Q1572 620 1557.0 583.0Q1542 546 1542 517Q1542 486 1560 457L1676 273Q1694 244 1694 213Q1694 190 1685.0 169.5Q1676 149 1661.0 134.0Q1646 119 1626.0 110.0Q1606 101 1583 101Q1529 101 1474.5 112.0Q1420 123 1366 123Q1341 123 1317.5 111.5Q1294 100 1279 80L1162 -71Q1146 -91 1123.0 -102.5Q1100 -114 1074 -114Q1034 -114 1004.5 -90.5Q975 -67 965 -29L913 182Q907 208 889.0 228.0Q871 248 847 259L647 343Q615 357 596.5 384.5Q578 412 578 447Q578 476 592.0 501.0Q606 526 631 542L803 649Q854 680 856 740L863 940Q864 963 872.5 982.5Q881 1002 896.0 1016.5Q911 1031 931.0 1039.5Q951 1048 974 1048Q1002 1048 1027.5 1034.0Q1053 1020 1076.5 998.5Q1100 977 1123.5 952.0Q1147 927 1170.5 905.5Q1194 884 1219.0 870.0Q1244 856 1272 856Z" style="fill:#fcd53f;stroke:none" transform="scale(1,-1) translate(0,-256)" /></svg>