<?xml version="1.0" encoding="utf-8" ?>
<svg baseProfile="full" height="256" version="1.1" width="256" xmlns="http://www.w3.org/2000/svg" xmlns:ev="http://www.w3.org/2001/xml-events" xmlns:xlink="http://www.w3.org/1999/xlink"><defs /><path d="M2148 -287H663Q609 -287 561.0 -266.5Q513 -246 477.0 -210.0Q441 -174 420.5 -126.0Q400 -78 400 -24V1461Q400 1515 420.5 1563.0Q441 1611 477.0 1647.0Q513 1683 561.0 1704.0Q609 1725 663 1725H1644Q1665 1725 1681.5 1720.0Q1698 1715 1713.0 1707.5Q1728 1700 1743.5 1691.5Q1759 1683 1779 1676L2050 1579Q2073 1568 2087.5 1555.0Q2102 1542 2123 1527L2269 1423Q2271 1416 2278.0 1389.5Q2285 1363 2295.5 1324.5Q2306 1286 2318.5 1238.5Q2331 1191 2344.0 1143.0Q2357 1095 2369.5 1049.5Q2382 1004 2391.5 968.5Q2401 933 2406.5 911.5Q2412 890 2412 889V-24Q2412 -78 2391.0 -126.0Q2370 -174 2334.0 -210.0Q2298 -246 2250.0 -266.5Q2202 -287 2148 -287Z" style="fill:#533566;stroke:none" transform="scale(1,-1) translate(0,-256)" /></svg>