<?xml version="1.0" encoding="utf-8" ?>
<svg baseProfile="full" height="256" version="1.1" width="256" xmlns="http://www.w3.org/2000/svg" xmlns:ev="http://www.w3.org/2001/xml-events" xmlns:xlink="http://www.w3.org/1999/xlink"><defs /><path d="M902 1474Q902 1459 891.5 1448.5Q881 1438 866 1438Q851 1438 840.5 1448.5Q830 1459 830 1474Q830 1488 841.0 1499.0Q852 1510 866 1510Q880 1510 891.0 1499.0Q902 1488 902 1474ZM651 1078Q665 1078 675.5 1089.0Q686 1100 686 1114Q686 1128 675.5 1139.0Q665 1150 651 1150Q636 1150 625.5 1139.5Q615 1129 615 1114Q615 1099 625.5 1088.5Q636 1078 651 1078ZM2052 252Q2052 237 2041.5 226.5Q2031 216 2016 216Q2001 216 1990.5 226.5Q1980 237 1980 252Q1980 267 1990.5 277.5Q2001 288 2016 288Q2031 288 2041.5 277.5Q2052 267 2052 252ZM1980 -36Q1980 -51 1969.5 -61.5Q1959 -72 1944 -72Q1929 -72 1918.5 -61.5Q1908 -51 1908 -36Q1908 -21 1918.5 -10.5Q1929 0 1944 0Q1959 0 1969.5 -10.5Q1980 -21 1980 -36ZM579 72Q594 72 604.5 82.5Q615 93 615 108Q615 123 604.5 133.5Q594 144 579 144Q564 144 553.5 133.5Q543 123 543 108Q543 93 553.5 82.5Q564 72 579 72ZM2268 -36Q2268 -51 2257.5 -61.5Q2247 -72 2232 -72Q2217 -72 2206.5 -61.5Q2196 -51 2196 -36Q2196 -21 2206.5 -10.5Q2217 0 2232 0Q2247 0 2257.5 -10.5Q2268 -21 2268 -36Z" style="fill:#e1d8ec;stroke:none" transform="scale(1,-1) translate(0,-256)" /></svg>