<?xml version="1.0" encoding="utf-8" ?>
<svg baseProfile="full" height="256" version="1.1" width="256" xmlns="http://www.w3.org/2000/svg" xmlns:ev="http://www.w3.org/2001/xml-events" xmlns:xlink="http://www.w3.org/1999/xlink"><defs /><path d="M1335 1563Q1335 1537 1345.0 1514.5Q1355 1492 1372.0 1475.0Q1389 1458 1411.5 1448.0Q1434 1438 1460 1438Q1486 1438 1508.5 1448.0Q1531 1458 1548.0 1475.0Q1565 1492 1575.0 1514.5Q1585 1537 1585 1563Q1585 1589 1575.5 1612.0Q1566 1635 1549.0 1652.0Q1532 1669 1509.0 1679.0Q1486 1689 1460 1689Q1434 1689 1411.0 1679.0Q1388 1669 1371.0 1652.0Q1354 1635 1344.5 1612.0Q1335 1589 1335 1563ZM1460 1761Q1496 1761 1528.5 1748.5Q1561 1736 1587.0 1714.5Q1613 1693 1630.5 1663.0Q1648 1633 1654 1598Q1728 1598 1793.5 1569.5Q1859 1541 1907.5 1492.5Q1956 1444 1984.5 1378.5Q2013 1313 2013 1239Q2013 1164 1984.5 1098.5Q1956 1033 1907.5 984.5Q1859 936 1793.5 907.5Q1728 879 1653 879V951Q1713 951 1765.0 973.5Q1817 996 1856.0 1035.0Q1895 1074 1917.5 1126.5Q1940 1179 1940 1239Q1940 1298 1917.5 1350.0Q1895 1402 1856.0 1441.0Q1817 1480 1765.0 1503.0Q1713 1526 1654 1526Q1647 1491 1629.0 1462.0Q1611 1433 1585.5 1411.5Q1560 1390 1527.5 1378.0Q1495 1366 1460 1366Q1419 1366 1383.0 1381.5Q1347 1397 1320.0 1423.5Q1293 1450 1277.5 1486.0Q1262 1522 1262 1563Q1262 1604 1277.5 1640.0Q1293 1676 1320.0 1703.0Q1347 1730 1383.0 1745.5Q1419 1761 1460 1761Z" style="fill:#ffb02e;stroke:none" transform="scale(1,-1) translate(0,-256)" /></svg>