<?xml version="1.0" encoding="utf-8" ?>
<svg baseProfile="full" height="256" version="1.1" width="256" xmlns="http://www.w3.org/2000/svg" xmlns:ev="http://www.w3.org/2001/xml-events" xmlns:xlink="http://www.w3.org/1999/xlink"><defs /><path d="M1478 -287Q1385 -287 1301.0 -261.5Q1217 -236 1145.0 -190.0Q1073 -144 1015.0 -80.5Q957 -17 916.0 58.5Q875 134 853.0 220.0Q831 306 831 396Q831 486 853.0 571.5Q875 657 916.0 733.0Q957 809 1015.0 872.5Q1073 936 1145.0 981.5Q1217 1027 1301.0 1052.5Q1385 1078 1478 1078Q1571 1078 1655.0 1052.5Q1739 1027 1811.0 981.5Q1883 936 1941.0 872.5Q1999 809 2040.0 733.0Q2081 657 2103.0 571.5Q2125 486 2125 396Q2125 306 2103.0 220.0Q2081 134 2040.0 58.5Q1999 -17 1941.0 -80.5Q1883 -144 1811.0 -190.0Q1739 -236 1655.0 -261.5Q1571 -287 1478 -287Z" style="fill:#433b6b;stroke:none" transform="scale(1,-1) translate(0,-256)" /></svg>