<?xml version="1.0" encoding="utf-8" ?>
<svg baseProfile="full" height="256" version="1.1" width="256" xmlns="http://www.w3.org/2000/svg" xmlns:ev="http://www.w3.org/2001/xml-events" xmlns:xlink="http://www.w3.org/1999/xlink"><defs /><path d="M1909 396Q1909 302 1884.5 214.5Q1860 127 1815.5 51.0Q1771 -25 1709.0 -87.0Q1647 -149 1571.0 -193.5Q1495 -238 1407.5 -262.5Q1320 -287 1226 -287Q1132 -287 1044.5 -262.5Q957 -238 881.0 -193.5Q805 -149 743.0 -87.0Q681 -25 636.5 51.0Q592 127 567.5 214.5Q543 302 543 396Q543 490 567.5 577.5Q592 665 636.5 740.5Q681 816 743.0 878.5Q805 941 881.0 985.0Q957 1029 1044.5 1053.5Q1132 1078 1226 1078Q1320 1078 1407.5 1053.5Q1495 1029 1571.0 985.0Q1647 941 1709.0 878.5Q1771 816 1815.5 740.5Q1860 665 1884.5 577.5Q1909 490 1909 396ZM1226 776Q1304 776 1373.5 746.0Q1443 716 1495.0 664.5Q1547 613 1577.0 544.0Q1607 475 1607 396Q1607 317 1577.0 247.5Q1547 178 1495.0 126.5Q1443 75 1374.0 45.0Q1305 15 1226 15Q1147 15 1077.5 45.0Q1008 75 956.5 126.5Q905 178 875.0 247.5Q845 317 845 396Q845 475 875.0 544.0Q905 613 957.0 664.5Q1009 716 1078.5 746.0Q1148 776 1226 776ZM1226 863Q1130 863 1045.0 826.0Q960 789 896.5 725.5Q833 662 796.0 577.0Q759 492 759 396Q759 299 795.5 214.0Q832 129 895.5 65.5Q959 2 1044.0 -35.0Q1129 -72 1226 -72Q1323 -72 1408.0 -35.0Q1493 2 1556.5 65.5Q1620 129 1656.5 214.0Q1693 299 1693 396Q1693 492 1656.0 577.0Q1619 662 1555.5 725.5Q1492 789 1407.0 826.0Q1322 863 1226 863ZM1226 611Q1207 611 1196.5 592.5Q1186 574 1177.0 551.0Q1168 528 1158.5 508.5Q1149 489 1131 486L1039 473Q1026 471 1018.5 461.0Q1011 451 1011 438Q1011 420 1024.0 407.0Q1037 394 1052.5 381.0Q1068 368 1081.0 355.0Q1094 342 1094 324Q1094 310 1088.5 296.5Q1083 283 1077.0 270.0Q1071 257 1065.5 243.5Q1060 230 1060 216Q1060 202 1070.0 191.0Q1080 180 1094 180Q1110 180 1127.0 188.5Q1144 197 1160.5 207.0Q1177 217 1193.5 225.5Q1210 234 1226 234Q1242 234 1259.0 225.5Q1276 217 1292.5 207.0Q1309 197 1325.5 188.5Q1342 180 1358 180Q1372 180 1382.0 190.5Q1392 201 1392 215Q1392 230 1387.0 243.5Q1382 257 1375.5 270.0Q1369 283 1364.0 296.5Q1359 310 1359 325Q1359 341 1372.0 354.5Q1385 368 1400.5 380.5Q1416 393 1429.0 407.0Q1442 421 1442 438Q1442 451 1434.0 461.0Q1426 471 1413 473L1322 486Q1304 489 1294.0 508.5Q1284 528 1275.5 551.0Q1267 574 1256.0 592.5Q1245 611 1226 611Z" style="fill:#8d65c5;stroke:none" transform="scale(1,-1) translate(0,-256)" /></svg>