<?xml version="1.0" encoding="utf-8" ?>
<svg baseProfile="full" height="256" version="1.1" width="256" xmlns="http://www.w3.org/2000/svg" xmlns:ev="http://www.w3.org/2001/xml-events" xmlns:xlink="http://www.w3.org/1999/xlink"><defs /><path d="M2197 396Q2197 289 2165.0 187.5Q2133 86 2074.0 0.5Q2015 -85 1931.5 -150.5Q1848 -216 1746 -251Q1703 -266 1651.5 -276.5Q1600 -287 1555 -287H1288V-273Q1170 -248 1072.5 -185.0Q975 -122 905.5 -32.5Q836 57 797.5 167.0Q759 277 759 396Q759 475 776.5 551.0Q794 627 826.5 695.5Q859 764 906.0 824.0Q953 884 1011.5 932.0Q1070 980 1139.5 1013.5Q1209 1047 1288 1064V1078H1555Q1603 1078 1652.0 1068.0Q1701 1058 1746 1042Q1848 1006 1931.5 941.0Q2015 876 2074.0 791.0Q2133 706 2165.0 605.0Q2197 504 2197 396Z" style="fill:#8d65c5;stroke:none" transform="scale(1,-1) translate(0,-256)" /></svg>