<?xml version="1.0" encoding="utf-8" ?>
<svg baseProfile="full" height="256" version="1.1" width="256" xmlns="http://www.w3.org/2000/svg" xmlns:ev="http://www.w3.org/2001/xml-events" xmlns:xlink="http://www.w3.org/1999/xlink"><defs /><path d="M1180 753Q1120 753 1065.5 773.5Q1011 794 967.5 830.5Q924 867 893.5 916.5Q863 966 850 1024Q861 1066 884.0 1101.5Q907 1137 939.5 1163.5Q972 1190 1011.5 1204.5Q1051 1219 1095 1219L1444 1051L1717 1219Q1761 1219 1800.5 1204.5Q1840 1190 1872.5 1163.5Q1905 1137 1928.0 1101.5Q1951 1066 1962 1024Q1949 966 1918.5 916.5Q1888 867 1844.5 830.5Q1801 794 1746.5 773.5Q1692 753 1632 753H1180Z" style="fill:#7d4533;stroke:none" transform="scale(1,-1) translate(0,-256)" /></svg>