<?xml version="1.0" encoding="utf-8" ?>
<svg baseProfile="full" height="256" version="1.1" width="256" xmlns="http://www.w3.org/2000/svg" xmlns:ev="http://www.w3.org/2001/xml-events" xmlns:xlink="http://www.w3.org/1999/xlink"><defs /><path d="M1401 1365Q1444 1365 1479.5 1347.0Q1515 1329 1542.0 1298.5Q1569 1268 1588.5 1228.5Q1608 1189 1621.0 1147.0Q1634 1105 1640.0 1063.0Q1646 1021 1646 986Q1646 969 1645.0 951.5Q1644 934 1642 917Q1637 870 1616.5 829.5Q1596 789 1563.5 759.5Q1531 730 1489.5 713.0Q1448 696 1400 696Q1352 696 1310.5 713.0Q1269 730 1237.0 759.5Q1205 789 1184.5 829.0Q1164 869 1159 916Q1157 933 1155.5 951.0Q1154 969 1154 986Q1154 1021 1160.0 1062.5Q1166 1104 1179.0 1146.5Q1192 1189 1212.0 1228.0Q1232 1267 1259.5 1297.5Q1287 1328 1322.0 1346.5Q1357 1365 1401 1365Z" style="fill:#00a6ed;stroke:none" transform="scale(1,-1) translate(0,-256)" /></svg>