<?xml version="1.0" encoding="utf-8" ?>
<svg baseProfile="full" height="256" version="1.1" width="256" xmlns="http://www.w3.org/2000/svg" xmlns:ev="http://www.w3.org/2001/xml-events" xmlns:xlink="http://www.w3.org/1999/xlink"><defs /><path d="M1071 1259Q1110 1259 1145.5 1240.5Q1181 1222 1211.5 1191.0Q1242 1160 1267.5 1120.0Q1293 1080 1310.5 1037.5Q1328 995 1338.0 953.5Q1348 912 1348 878Q1348 832 1330.5 792.0Q1313 752 1283.0 722.0Q1253 692 1213.0 675.0Q1173 658 1127 658Q1061 658 1014.5 688.0Q968 718 939.0 765.0Q910 812 897.0 870.0Q884 928 884 984Q884 1028 892.5 1076.5Q901 1125 922.0 1165.5Q943 1206 979.0 1232.5Q1015 1259 1071 1259ZM1745 1258Q1800 1258 1836.0 1232.5Q1872 1207 1893.5 1167.0Q1915 1127 1923.5 1079.5Q1932 1032 1932 987Q1932 931 1919.0 872.5Q1906 814 1876.5 766.0Q1847 718 1800.5 687.5Q1754 657 1688 657Q1642 657 1602.0 674.5Q1562 692 1532.0 722.0Q1502 752 1484.5 792.0Q1467 832 1467 878Q1467 912 1477.0 953.5Q1487 995 1504.5 1037.0Q1522 1079 1547.5 1119.0Q1573 1159 1603.5 1190.0Q1634 1221 1670.0 1239.5Q1706 1258 1745 1258Z" style="fill:#26c9fc;stroke:none" transform="scale(1,-1) translate(0,-256)" /></svg>