<?xml version="1.0" encoding="utf-8" ?>
<svg baseProfile="full" height="256" version="1.1" width="256" xmlns="http://www.w3.org/2000/svg" xmlns:ev="http://www.w3.org/2001/xml-events" xmlns:xlink="http://www.w3.org/1999/xlink"><defs /><path d="M1813 1645Q1813 1659 1823.5 1669.5Q1834 1680 1848 1680Q1859 1680 1870 1673Q1905 1650 1937.5 1614.0Q1970 1578 1998.5 1536.5Q2027 1495 2050.5 1452.0Q2074 1409 2091 1372Q2142 1261 2169.5 1141.0Q2197 1021 2197 899Q2197 773 2149.0 661.5Q2101 550 2018.0 467.0Q1935 384 1823.5 336.0Q1712 288 1586 288H1226Q1095 288 983.0 337.5Q871 387 789.0 472.0Q707 557 660.5 671.0Q614 785 614 914Q614 1009 635.0 1103.0Q656 1197 697.0 1283.5Q738 1370 799.0 1444.0Q860 1518 940 1573Q950 1580 961 1580Q976 1580 986.5 1569.0Q997 1558 997 1544Q997 1534 993.0 1527.5Q989 1521 982 1515Q939 1479 900.5 1444.0Q862 1409 829 1363Q912 1435 1014.5 1472.0Q1117 1509 1226 1509H1586Q1649 1509 1711 1497Q1611 1542 1503.5 1562.0Q1396 1582 1287 1582Q1272 1582 1261.5 1592.5Q1251 1603 1251 1618Q1251 1633 1261.5 1643.5Q1272 1654 1287 1654Q1390 1654 1491.0 1637.5Q1592 1621 1686.0 1585.0Q1780 1549 1864.5 1493.0Q1949 1437 2018 1359Q1982 1436 1937.0 1498.0Q1892 1560 1828 1615Q1820 1621 1816.5 1627.5Q1813 1634 1813 1645ZM1190 1451Q1118 1451 1054.0 1423.5Q990 1396 943.0 1349.0Q896 1302 868.5 1238.0Q841 1174 841 1102Q841 1030 868.5 966.5Q896 903 943.5 855.5Q991 808 1054.5 780.5Q1118 753 1190 753H1304Q1328 753 1355.0 758.0Q1382 763 1406 768Q1460 779 1506.0 795.5Q1552 812 1593.5 835.5Q1635 859 1673.5 889.0Q1712 919 1751 958Q1757 963 1763.0 966.5Q1769 970 1777 970Q1791 970 1802.0 959.0Q1813 948 1813 933Q1813 920 1800.0 903.5Q1787 887 1766.0 869.0Q1745 851 1719.5 832.5Q1694 814 1669.5 798.5Q1645 783 1624.0 770.5Q1603 758 1592 753H1622Q1694 753 1757.5 780.5Q1821 808 1868.5 855.5Q1916 903 1943.5 966.5Q1971 1030 1971 1102Q1971 1174 1943.5 1237.5Q1916 1301 1868.5 1348.5Q1821 1396 1757.5 1423.5Q1694 1451 1622 1451Z" style="fill:#f3ad61;stroke:none" transform="scale(1,-1) translate(0,-256)" /></svg>