<?xml version="1.0" encoding="utf-8" ?>
<svg baseProfile="full" height="256" version="1.1" width="256" xmlns="http://www.w3.org/2000/svg" xmlns:ev="http://www.w3.org/2001/xml-events" xmlns:xlink="http://www.w3.org/1999/xlink"><defs /><path d="M798 1098Q798 1176 827.5 1245.0Q857 1314 908.0 1365.0Q959 1416 1027.5 1446.0Q1096 1476 1174 1476H1638Q1716 1476 1784.5 1446.0Q1853 1416 1904.0 1365.0Q1955 1314 1984.5 1245.0Q2014 1176 2014 1098Q2014 1020 1984.5 951.0Q1955 882 1904.0 830.5Q1853 779 1784.5 749.0Q1716 719 1638 719H1174Q1096 719 1027.5 749.0Q959 779 908.0 830.5Q857 882 827.5 951.0Q798 1020 798 1098Z" style="fill:#b97028;stroke:none" transform="scale(1,-1) translate(0,-256)" /></svg>