<?xml version="1.0" encoding="utf-8" ?>
<svg baseProfile="full" height="256" version="1.1" width="256" xmlns="http://www.w3.org/2000/svg" xmlns:ev="http://www.w3.org/2001/xml-events" xmlns:xlink="http://www.w3.org/1999/xlink"><defs /><path d="M1374 1532Q1374 1546 1383.0 1555.0Q1392 1564 1406 1564Q1420 1564 1429.0 1555.0Q1438 1546 1438 1532V1475Q1438 1461 1429.0 1451.5Q1420 1442 1406 1442Q1392 1442 1383.0 1451.5Q1374 1461 1374 1475ZM1370 1366Q1370 1380 1381.0 1389.5Q1392 1399 1406 1399Q1420 1399 1431.0 1389.5Q1442 1380 1442 1366V1144Q1442 1130 1431.0 1121.0Q1420 1112 1406 1112Q1392 1112 1381.0 1121.0Q1370 1130 1370 1144ZM846 1210Q833 1210 823 1220Q818 1225 809.5 1232.0Q801 1239 793.0 1247.5Q785 1256 779.0 1265.0Q773 1274 773 1283Q773 1297 782.5 1306.5Q792 1316 806 1316Q819 1316 829 1306Q835 1300 843.0 1293.0Q851 1286 859.0 1278.0Q867 1270 872.5 1261.0Q878 1252 878 1243Q878 1229 869.0 1219.5Q860 1210 846 1210ZM1080 976Q1067 976 1057 986L900 1143Q890 1153 890 1166Q890 1180 899.5 1189.5Q909 1199 923 1199Q936 1199 946 1189L1103 1032Q1112 1023 1112 1009Q1112 995 1103.0 985.5Q1094 976 1080 976ZM1965 156Q1974 156 1983.0 150.0Q1992 144 2000.5 136.0Q2009 128 2016.0 119.5Q2023 111 2028 106Q2038 96 2038 83Q2038 69 2028.5 59.5Q2019 50 2005 50Q1992 50 1982 60Q1976 66 1968.0 72.5Q1960 79 1952.0 87.0Q1944 95 1938.5 104.0Q1933 113 1933 123Q1933 137 1942.0 146.5Q1951 156 1965 156ZM1732 389Q1745 389 1755 379L1912 223Q1922 213 1922 200Q1922 186 1912.5 176.5Q1903 167 1889 167Q1876 167 1866 177L1709 333Q1699 343 1699 356Q1699 370 1709.0 379.5Q1719 389 1732 389ZM646 683Q646 669 637.0 658.0Q628 647 614 647H557Q543 647 534.0 658.0Q525 669 525 683Q525 697 534.0 708.0Q543 719 557 719H614Q629 719 637.5 708.0Q646 697 646 683ZM720 647Q706 647 696.5 658.0Q687 669 687 683Q687 697 696.5 708.0Q706 719 720 719H942Q957 719 966.0 708.5Q975 698 975 683Q975 669 965.5 658.0Q956 647 942 647ZM2165 683Q2165 697 2174.0 708.0Q2183 719 2197 719H2254Q2268 719 2277.0 708.0Q2286 697 2286 683Q2286 669 2277.0 658.0Q2268 647 2254 647H2197Q2183 647 2174.0 658.0Q2165 669 2165 683ZM2092 719Q2106 719 2115.5 708.0Q2125 697 2125 683Q2125 669 2115.5 658.0Q2106 647 2092 647H1870Q1856 647 1846.5 658.0Q1837 669 1837 683Q1837 697 1846.5 708.0Q1856 719 1870 719ZM879 123Q879 114 873.0 105.0Q867 96 859.0 87.5Q851 79 842.5 72.0Q834 65 829 60Q819 50 806 50Q792 50 782.5 59.5Q773 69 773 83Q773 92 779.0 101.0Q785 110 793.0 118.0Q801 126 809.5 133.5Q818 141 823 146Q833 156 846 156Q859 156 869.0 146.5Q879 137 879 123ZM1113 356Q1113 343 1103 333L946 177Q936 167 923 167Q909 167 899.5 176.5Q890 186 890 200Q890 213 900 223L1057 379Q1067 389 1080 389Q1093 389 1103.0 379.5Q1113 370 1113 356ZM1932 1243Q1932 1256 1942 1266Q1947 1271 1954.0 1279.5Q1961 1288 1969.5 1296.0Q1978 1304 1987.0 1310.0Q1996 1316 2005 1316Q2019 1316 2028.5 1306.5Q2038 1297 2038 1283Q2038 1274 2032.0 1265.0Q2026 1256 2018.0 1247.5Q2010 1239 2001.5 1232.0Q1993 1225 1988 1220Q1978 1210 1965 1210Q1952 1210 1942.0 1219.5Q1932 1229 1932 1243ZM1699 1009Q1699 1022 1709 1032L1866 1189Q1876 1199 1889 1199Q1903 1199 1912.5 1189.5Q1922 1180 1922 1166Q1922 1153 1912 1143L1755 986Q1746 977 1732 977Q1718 977 1708.5 986.0Q1699 995 1699 1009Z" style="fill:#f8312f;stroke:none" transform="scale(1,-1) translate(0,-256)" /></svg>