<?xml version="1.0" encoding="utf-8" ?>
<svg baseProfile="full" height="256" version="1.1" width="256" xmlns="http://www.w3.org/2000/svg" xmlns:ev="http://www.w3.org/2001/xml-events" xmlns:xlink="http://www.w3.org/1999/xlink"><defs /><path d="M1118 1330Q1118 1316 1107.5 1305.0Q1097 1294 1083 1294Q1068 1294 1057.5 1304.5Q1047 1315 1047 1330Q1047 1345 1057.5 1355.5Q1068 1366 1083 1366Q1097 1366 1107.5 1355.0Q1118 1344 1118 1330ZM1765 36Q1765 21 1754.5 10.5Q1744 0 1729 0Q1715 0 1704.0 11.0Q1693 22 1693 36Q1693 50 1704.0 61.0Q1715 72 1729 72Q1744 72 1754.5 61.5Q1765 51 1765 36ZM723 935Q738 935 748.5 945.5Q759 956 759 971Q759 985 748.0 995.5Q737 1006 723 1006Q709 1006 698.0 995.5Q687 985 687 971Q687 956 697.5 945.5Q708 935 723 935ZM2125 396Q2125 381 2114.5 370.5Q2104 360 2089 360Q2074 360 2063.5 370.5Q2053 381 2053 396Q2053 410 2064.0 420.5Q2075 431 2089 431Q2103 431 2114.0 420.5Q2125 410 2125 396ZM723 360Q738 360 748.5 370.5Q759 381 759 396Q759 410 748.0 420.5Q737 431 723 431Q709 431 698.0 420.5Q687 410 687 396Q687 381 697.5 370.5Q708 360 723 360ZM2125 971Q2125 956 2114.5 945.5Q2104 935 2089 935Q2074 935 2063.5 945.5Q2053 956 2053 971Q2053 985 2064.0 995.5Q2075 1006 2089 1006Q2103 1006 2114.0 995.5Q2125 985 2125 971ZM1083 0Q1097 0 1107.5 11.0Q1118 22 1118 36Q1118 50 1107.5 61.0Q1097 72 1083 72Q1068 72 1057.5 61.5Q1047 51 1047 36Q1047 21 1057.5 10.5Q1068 0 1083 0ZM1765 1330Q1765 1315 1754.5 1304.5Q1744 1294 1729 1294Q1715 1294 1704.0 1305.0Q1693 1316 1693 1330Q1693 1344 1704.0 1355.0Q1715 1366 1729 1366Q1744 1366 1754.5 1355.5Q1765 1345 1765 1330Z" style="fill:#fff478;stroke:none" transform="scale(1,-1) translate(0,-256)" /></svg>