<?xml version="1.0" encoding="utf-8" ?>
<svg baseProfile="full" height="256" version="1.1" width="256" xmlns="http://www.w3.org/2000/svg" xmlns:ev="http://www.w3.org/2001/xml-events" xmlns:xlink="http://www.w3.org/1999/xlink"><defs /><path d="M1727 676Q1727 660 1738 651L1896 509Q1907 500 1907 484Q1907 470 1896.5 459.0Q1886 448 1871 449Q1817 452 1763.5 456.0Q1710 460 1656 460Q1643 460 1633.0 450.0Q1623 440 1623 427Q1623 372 1628.5 317.5Q1634 263 1634 209Q1634 195 1623.5 185.5Q1613 176 1599 176Q1583 176 1567.5 191.5Q1552 207 1538.0 226.0Q1524 245 1511.0 260.5Q1498 276 1487 276Q1473 276 1471 261L1432 -79Q1430 -89 1423.0 -95.5Q1416 -102 1406 -102Q1396 -102 1388.5 -95.5Q1381 -89 1380 -79L1341 261Q1339 276 1325 276Q1314 276 1301.0 260.5Q1288 245 1274.0 226.0Q1260 207 1244.5 191.5Q1229 176 1213 176Q1199 176 1188.0 186.5Q1177 197 1178 212Q1181 266 1185.0 319.5Q1189 373 1189 427Q1189 440 1179.0 450.0Q1169 460 1156 460Q1101 460 1046.5 454.5Q992 449 938 449Q924 449 914.5 459.5Q905 470 905 484Q905 500 916 509L1073 651Q1084 660 1084 676Q1084 693 1073 702L916 844Q905 853 905 869Q905 883 914.5 893.5Q924 904 938 904Q992 904 1046.5 898.5Q1101 893 1156 893Q1169 893 1179.0 903.0Q1189 913 1189 926Q1189 981 1183.5 1035.5Q1178 1090 1178 1144Q1178 1158 1188.0 1168.0Q1198 1178 1212 1178Q1226 1178 1238 1166L1380 1009Q1389 998 1405 998Q1422 998 1431 1009L1573 1166Q1585 1178 1599 1178Q1613 1178 1623.0 1168.0Q1633 1158 1633 1144Q1633 1090 1627.5 1035.5Q1622 981 1622 926Q1622 912 1633.0 902.0Q1644 892 1658 893Q1712 896 1765.5 900.0Q1819 904 1873 904Q1887 904 1897.0 894.0Q1907 884 1907 870Q1907 856 1895 844L1738 702Q1727 693 1727 676Z" style="fill:#fcd53f;stroke:none" transform="scale(1,-1) translate(0,-256)" /></svg>