<?xml version="1.0" encoding="utf-8" ?>
<svg baseProfile="full" height="256" version="1.1" width="256" xmlns="http://www.w3.org/2000/svg" xmlns:ev="http://www.w3.org/2001/xml-events" xmlns:xlink="http://www.w3.org/1999/xlink"><defs /><path d="M650 1437Q628 1437 608.5 1429.0Q589 1421 574.5 1407.0Q560 1393 551.5 1374.0Q543 1355 543 1333Q543 1308 551.5 1292.5Q560 1277 569.5 1264.0Q579 1251 587.5 1238.0Q596 1225 596 1206Q596 1177 575.0 1155.5Q554 1134 524 1134Q494 1134 471.0 1156.0Q448 1178 432.5 1209.0Q417 1240 408.5 1274.5Q400 1309 400 1333Q400 1385 419.5 1430.0Q439 1475 473.0 1508.5Q507 1542 552.5 1561.5Q598 1581 649 1581Q698 1581 744.0 1562.5Q790 1544 825 1509L1005 1329Q1026 1308 1026 1278Q1026 1249 1005.0 1227.5Q984 1206 954 1206Q925 1206 904 1227L724 1407Q710 1421 690.0 1429.0Q670 1437 650 1437Z" style="fill:#8c5543;stroke:none" transform="scale(1,-1) translate(0,-256)" /></svg>