<?xml version="1.0" encoding="utf-8" ?>
<svg baseProfile="full" height="256" version="1.1" width="256" xmlns="http://www.w3.org/2000/svg" xmlns:ev="http://www.w3.org/2001/xml-events" xmlns:xlink="http://www.w3.org/1999/xlink"><defs /><path d="M1601 1456Q1627 1456 1644 1439Q1686 1399 1738.0 1328.0Q1790 1257 1847.0 1165.0Q1904 1073 1962.5 966.0Q2021 859 2076.0 747.0Q2131 635 2179.5 524.0Q2228 413 2263.5 312.5Q2299 212 2320.0 127.5Q2341 43 2341 -14Q2341 -66 2319.5 -84.5Q2298 -103 2247 -103Q2188 -103 2103.5 -82.5Q2019 -62 1918.5 -26.5Q1818 9 1707.0 56.5Q1596 104 1484.5 158.5Q1373 213 1266.0 271.0Q1159 329 1067.0 386.0Q975 443 903.5 495.0Q832 547 791 590Q776 605 776 629Q776 659 794.5 691.0Q813 723 841.5 749.5Q870 776 903.0 793.0Q936 810 966 810Q966 856 984.0 897.0Q1002 938 1032.5 968.5Q1063 999 1104.0 1016.5Q1145 1034 1192 1034Q1192 1080 1210.0 1121.0Q1228 1162 1258.5 1193.0Q1289 1224 1330.0 1241.5Q1371 1259 1418 1259V1257L1420 1259H1418Q1419 1289 1436.0 1324.0Q1453 1359 1479.0 1388.0Q1505 1417 1537.0 1436.5Q1569 1456 1601 1456Z" style="fill:#8d65c5;stroke:none" transform="scale(1,-1) translate(0,-256)" /></svg>