<?xml version="1.0" encoding="utf-8" ?>
<svg baseProfile="full" height="256" version="1.1" width="256" xmlns="http://www.w3.org/2000/svg" xmlns:ev="http://www.w3.org/2001/xml-events" xmlns:xlink="http://www.w3.org/1999/xlink"><defs /><path d="M1175 1369H1544Q1561 1369 1569.5 1360.5Q1578 1352 1581.0 1339.5Q1584 1327 1583.5 1313.0Q1583 1299 1583 1287Q1583 1252 1570.0 1222.0Q1557 1192 1534.5 1169.5Q1512 1147 1481.5 1133.5Q1451 1120 1417 1120H1534Q1554 1120 1569.0 1105.0Q1584 1090 1584 1070V948Q1584 895 1567.5 853.0Q1551 811 1521.0 781.0Q1491 751 1448.5 735.0Q1406 719 1354 719H1175ZM2000 791H1805Q1753 791 1706.0 766.5Q1659 742 1629 699L1441 431H1980L1979 -72H2318Q2337 -72 2354.0 -64.5Q2371 -57 2384.0 -44.0Q2397 -31 2404.5 -14.0Q2412 3 2412 22V401Q2412 452 2392.5 496.5Q2373 541 2339.0 574.5Q2305 608 2260.5 627.5Q2216 647 2165 647H2075Q2061 647 2056.5 657.5Q2052 668 2051.5 684.0Q2051 700 2051.5 719.0Q2052 738 2048.5 754.0Q2045 770 2034.0 780.5Q2023 791 2000 791Z" style="fill:#f70a8d;stroke:none" transform="scale(1,-1) translate(0,-256)" /></svg>