<?xml version="1.0" encoding="utf-8" ?>
<svg baseProfile="full" height="256" version="1.1" width="256" xmlns="http://www.w3.org/2000/svg" xmlns:ev="http://www.w3.org/2001/xml-events" xmlns:xlink="http://www.w3.org/1999/xlink"><defs /><path d="M887 259Q887 224 900.5 192.5Q914 161 937.0 138.0Q960 115 990.5 101.5Q1021 88 1056 88Q1063 88 1071.0 88.0Q1079 88 1085 90Q1137 103 1179.0 137.5Q1221 172 1257.5 219.0Q1294 266 1328.0 320.0Q1362 374 1400.0 426.5Q1438 479 1482.5 525.5Q1527 572 1584 602Q1638 631 1699.5 650.0Q1761 669 1822 669Q1913 669 1990.0 628.0Q2067 587 2131 526Q2169 490 2195.5 446.5Q2222 403 2238.0 355.0Q2254 307 2261.0 256.0Q2268 205 2268 154Q2268 67 2242.5 -13.0Q2217 -93 2167.5 -153.5Q2118 -214 2045.5 -250.5Q1973 -287 1879 -287H1668Q1647 -287 1632.5 -274.5Q1618 -262 1618 -240Q1618 -198 1633.5 -172.0Q1649 -146 1673.5 -131.5Q1698 -117 1727.5 -111.0Q1757 -105 1785.5 -101.0Q1814 -97 1837.5 -93.5Q1861 -90 1872 -80Q1898 -58 1904.0 -23.5Q1910 11 1910 43Q1910 96 1909.5 147.5Q1909 199 1909 252L1873 324H1765L1563 81Q1548 63 1537.0 47.5Q1526 32 1515.0 17.5Q1504 3 1491.5 -11.5Q1479 -26 1462 -41Q1448 -54 1435.5 -62.5Q1423 -71 1410.0 -78.0Q1397 -85 1383.0 -92.0Q1369 -99 1353 -109L1135 -244Q1128 -243 1106.0 -237.5Q1084 -232 1054.5 -224.5Q1025 -217 992.5 -209.0Q960 -201 932.0 -194.0Q904 -187 884.5 -182.5Q865 -178 862 -178Q853 -178 841.0 -184.5Q829 -191 817.0 -198.0Q805 -205 794.0 -210.0Q783 -215 776 -211Q770 -221 762.5 -234.0Q755 -247 746.0 -259.0Q737 -271 726.0 -279.0Q715 -287 701 -287H510Q494 -287 482.5 -276.5Q471 -266 471 -249Q471 -243 478.5 -229.0Q486 -215 497.5 -196.5Q509 -178 523.0 -157.0Q537 -136 550.0 -117.5Q563 -99 573.5 -84.0Q584 -69 589 -62L558 147Q553 178 548.0 199.5Q543 221 543 252Q543 277 547.0 294.0Q551 311 555 336L579 503L975 791L1038 935H727Q707 935 685.5 945.5Q664 956 646.0 972.5Q628 989 616.0 1009.5Q604 1030 604 1050Q604 1059 611.0 1070.5Q618 1082 629 1082H935Q948 1082 948 1095Q948 1100 944 1104Q926 1123 910.5 1134.5Q895 1146 867 1146H609Q577 1146 557.0 1166.0Q537 1186 537 1218V1367Q537 1384 544.0 1395.5Q551 1407 562.5 1414.5Q574 1422 588.0 1425.5Q602 1429 617 1429Q645 1429 664.5 1419.5Q684 1410 700.0 1398.0Q716 1386 731.5 1376.5Q747 1367 767 1367H845Q860 1367 869.0 1375.0Q878 1383 884.5 1394.5Q891 1406 898.5 1419.0Q906 1432 918 1442Q933 1453 950.0 1459.0Q967 1465 986.0 1467.5Q1005 1470 1023.5 1470.0Q1042 1470 1060 1470H1466Q1476 1470 1487.0 1468.5Q1498 1467 1498 1453Q1498 1434 1490.0 1413.0Q1482 1392 1468.0 1375.0Q1454 1358 1435.5 1346.5Q1417 1335 1396 1335Q1388 1335 1380.0 1335.5Q1372 1336 1364 1336Q1355 1336 1344.0 1333.5Q1333 1331 1331 1320Q1345 1309 1351.5 1288.5Q1358 1268 1358 1251Q1358 1204 1358.5 1158.0Q1359 1112 1359 1065Q1359 1005 1359.0 942.5Q1359 880 1348 821Q1342 786 1325.0 748.0Q1308 710 1285.5 674.0Q1263 638 1236.5 605.5Q1210 573 1184 549Q1148 516 1097.5 488.5Q1047 461 1000.0 429.5Q953 398 920.0 358.0Q887 318 887 259Z" style="fill:#00d26a;stroke:none" transform="scale(1,-1) translate(0,-256)" /></svg>