<?xml version="1.0" encoding="utf-8" ?>
<svg baseProfile="full" height="256" version="1.1" width="256" xmlns="http://www.w3.org/2000/svg" xmlns:ev="http://www.w3.org/2001/xml-events" xmlns:xlink="http://www.w3.org/1999/xlink"><defs /><path d="M543 1416Q543 1476 561.5 1504.0Q580 1532 611.5 1542.0Q643 1552 685.0 1550.5Q727 1549 773 1549Q785 1549 795.5 1563.5Q806 1578 814.5 1596.5Q823 1615 829.0 1632.5Q835 1650 838 1657Q852 1689 884.5 1703.0Q917 1717 950 1717H1092Q1110 1717 1122.0 1710.0Q1134 1703 1134 1683Q1134 1663 1122.5 1655.0Q1111 1647 1092 1647H950Q937 1647 921.5 1643.0Q906 1639 900 1625Q882 1584 870.0 1557.0Q858 1530 846.0 1513.5Q834 1497 819.5 1489.0Q805 1481 783.5 1478.5Q762 1476 730.0 1476.5Q698 1477 651 1477Q630 1477 622.5 1462.5Q615 1448 614.0 1427.0Q613 1406 615.5 1380.5Q618 1355 617.0 1334.0Q616 1313 608.0 1298.5Q600 1284 579 1284Q564 1284 553.5 1294.5Q543 1305 543 1320ZM1288 1652H1465Q1469 1652 1475.0 1648.0Q1481 1644 1477 1639L1405 1538Q1403 1536 1387.0 1535.0Q1371 1534 1351.0 1534.0Q1331 1534 1313.0 1534.5Q1295 1535 1290 1535Q1271 1535 1259.5 1525.0Q1248 1515 1241.5 1500.0Q1235 1485 1232.5 1467.5Q1230 1450 1229 1436Q1228 1425 1221.5 1417.5Q1215 1410 1206.0 1405.5Q1197 1401 1186.5 1399.0Q1176 1397 1167 1397Q1149 1397 1130.5 1405.5Q1112 1414 1112 1436Q1112 1476 1122.5 1515.0Q1133 1554 1154.5 1584.5Q1176 1615 1209.5 1633.5Q1243 1652 1288 1652Z" style="fill:#fcd53f;stroke:none" transform="scale(1,-1) translate(0,-256)" /></svg>