<?xml version="1.0" encoding="utf-8" ?>
<svg baseProfile="full" height="256" version="1.1" width="256" xmlns="http://www.w3.org/2000/svg" xmlns:ev="http://www.w3.org/2001/xml-events" xmlns:xlink="http://www.w3.org/1999/xlink"><defs /><path d="M595 360H492Q484 360 478.0 366.0Q472 372 472 380V555Q472 563 478.0 569.0Q484 575 492 575H595Q603 575 609.0 569.0Q615 563 615 555V380Q615 360 595 360ZM831 380V555Q831 563 825.0 569.0Q819 575 811 575H707Q699 575 693.0 569.0Q687 563 687 555V380Q687 372 693.0 366.0Q699 360 707 360H811Q819 360 825.0 366.0Q831 372 831 380ZM615 92V268Q615 276 609.0 282.0Q603 288 595 288H492Q484 288 478.0 282.0Q472 276 472 268V92Q472 84 478.0 78.0Q484 72 492 72H595Q603 72 609.0 78.0Q615 84 615 92ZM831 92V268Q831 276 825.0 282.0Q819 288 811 288H707Q699 288 693.0 282.0Q687 276 687 268V92Q687 84 693.0 78.0Q699 72 707 72H811Q819 72 825.0 78.0Q831 84 831 92ZM2105 360H2001Q1993 360 1987.0 366.0Q1981 372 1981 380V555Q1981 563 1987.0 569.0Q1993 575 2001 575H2105Q2113 575 2119.0 569.0Q2125 563 2125 555V380Q2125 372 2119.0 366.0Q2113 360 2105 360ZM2217 360H2320Q2340 360 2340 380V555Q2340 563 2334.0 569.0Q2328 575 2320 575H2217Q2209 575 2203.0 569.0Q2197 563 2197 555V380Q2197 372 2203.0 366.0Q2209 360 2217 360ZM2105 72H2001Q1993 72 1987.0 78.0Q1981 84 1981 92V268Q1981 276 1987.0 282.0Q1993 288 2001 288H2105Q2113 288 2119.0 282.0Q2125 276 2125 268V92Q2125 84 2119.0 78.0Q2113 72 2105 72ZM2217 72H2320Q2328 72 2334.0 78.0Q2340 84 2340 92V268Q2340 276 2334.0 282.0Q2328 288 2320 288H2217Q2209 288 2203.0 282.0Q2197 276 2197 268V92Q2197 84 2203.0 78.0Q2209 72 2217 72Z" style="fill:#83cbff;stroke:none" transform="scale(1,-1) translate(0,-256)" /></svg>