<?xml version="1.0" encoding="utf-8" ?>
<svg baseProfile="full" height="256" version="1.1" width="256" xmlns="http://www.w3.org/2000/svg" xmlns:ev="http://www.w3.org/2001/xml-events" xmlns:xlink="http://www.w3.org/1999/xlink"><defs /><path d="M831 216Q831 261 848.0 300.0Q865 339 894.5 368.0Q924 397 963.0 414.0Q1002 431 1047 431H1765Q1810 431 1849.0 414.0Q1888 397 1917.5 368.0Q1947 339 1964.0 300.0Q1981 261 1981 216V72Q1981 27 1964.0 -12.0Q1947 -51 1917.5 -80.5Q1888 -110 1849.0 -127.0Q1810 -144 1765 -144H1047Q1002 -144 963.0 -127.0Q924 -110 894.5 -80.5Q865 -51 848.0 -12.0Q831 27 831 72Z" style="fill:#bb1d80;stroke:none" transform="scale(1,-1) translate(0,-256)" /></svg>