<?xml version="1.0" encoding="utf-8" ?>
<svg baseProfile="full" height="256" version="1.1" width="256" xmlns="http://www.w3.org/2000/svg" xmlns:ev="http://www.w3.org/2001/xml-events" xmlns:xlink="http://www.w3.org/1999/xlink"><defs /><path d="M903 1007Q919 1007 935 999L1222 855Q1241 846 1251.5 829.0Q1262 812 1262 791Q1262 770 1251.5 753.0Q1241 736 1222 727L935 583Q919 575 902 575Q873 575 852.0 596.5Q831 618 831 647Q831 668 841.5 685.0Q852 702 871 711L1030 791L871 870Q853 879 842.0 896.5Q831 914 831 934Q831 964 852.0 985.5Q873 1007 903 1007ZM1909 1007Q1939 1007 1960.0 985.5Q1981 964 1981 934Q1981 914 1970.0 896.5Q1959 879 1941 870L1782 791L1941 711Q1960 702 1970.5 685.0Q1981 668 1981 647Q1981 618 1960.0 596.5Q1939 575 1909 575Q1893 575 1877 583L1589 727Q1571 736 1560.5 753.5Q1550 771 1550 791Q1550 811 1560.5 828.5Q1571 846 1589 855L1877 999Q1893 1007 1909 1007Z" style="fill:#402a32;stroke:none" transform="scale(1,-1) translate(0,-256)" /></svg>