<?xml version="1.0" encoding="utf-8" ?>
<svg baseProfile="full" height="256" version="1.1" width="256" xmlns="http://www.w3.org/2000/svg" xmlns:ev="http://www.w3.org/2001/xml-events" xmlns:xlink="http://www.w3.org/1999/xlink"><defs /><path d="M2340 -287H472Q472 -257 483.0 -231.0Q494 -205 513.5 -186.5Q533 -168 558.5 -157.0Q584 -146 614 -146Q691 -146 768.5 -120.0Q846 -94 908.0 -46.0Q970 2 1008.5 70.0Q1047 138 1047 222V431H1765Q1765 374 1765.0 317.5Q1765 261 1766 204Q1767 174 1775.5 143.0Q1784 112 1797 86Q1824 30 1867.5 -13.5Q1911 -57 1964.0 -86.5Q2017 -116 2077.5 -131.0Q2138 -146 2198 -146Q2226 -146 2252.0 -157.5Q2278 -169 2297.5 -188.0Q2317 -207 2328.5 -233.0Q2340 -259 2340 -287ZM759 36Q759 14 750.5 -5.5Q742 -25 727.0 -40.0Q712 -55 692.5 -63.5Q673 -72 651 -72Q629 -72 609.5 -63.5Q590 -55 575.0 -40.0Q560 -25 551.5 -5.5Q543 14 543 36Q543 58 551.5 77.5Q560 97 575.0 112.0Q590 127 609.5 135.5Q629 144 651 144Q673 144 693.0 135.5Q713 127 727.5 112.5Q742 98 750.5 78.0Q759 58 759 36ZM2322 -36Q2345 -36 2360.5 -20.5Q2376 -5 2376 18Q2376 41 2360.5 56.5Q2345 72 2322 72Q2300 72 2284.0 56.0Q2268 40 2268 18Q2268 -4 2284.0 -20.0Q2300 -36 2322 -36ZM2268 252Q2268 230 2259.5 210.5Q2251 191 2237.0 176.0Q2223 161 2203.0 152.5Q2183 144 2161 144Q2138 144 2118.5 152.5Q2099 161 2084.5 175.5Q2070 190 2061.5 209.5Q2053 229 2053 252Q2053 274 2061.5 293.5Q2070 313 2085.0 328.0Q2100 343 2119.5 351.5Q2139 360 2161 360Q2183 360 2202.5 351.5Q2222 343 2236.5 328.0Q2251 313 2259.5 293.5Q2268 274 2268 252Z" style="fill:#00d26a;stroke:none" transform="scale(1,-1) translate(0,-256)" /></svg>