<?xml version="1.0" encoding="utf-8" ?>
<svg baseProfile="full" height="256" version="1.1" width="256" xmlns="http://www.w3.org/2000/svg" xmlns:ev="http://www.w3.org/2001/xml-events" xmlns:xlink="http://www.w3.org/1999/xlink"><defs /><path d="M1343 991Q1343 1001 1347.5 1019.5Q1352 1038 1358.5 1059.0Q1365 1080 1371.0 1099.5Q1377 1119 1380 1130Q1382 1139 1389.5 1144.5Q1397 1150 1406 1150Q1426 1150 1431 1130Q1434 1119 1440.5 1099.5Q1447 1080 1453.0 1059.0Q1459 1038 1464.0 1019.5Q1469 1001 1469 991Q1469 976 1458.5 964.5Q1448 953 1432 953H1380Q1364 953 1353.5 964.5Q1343 976 1343 991Z" style="fill:#ed9200;stroke:none" transform="scale(1,-1) translate(0,-256)" /></svg>