<?xml version="1.0" encoding="utf-8" ?>
<svg baseProfile="full" height="256" version="1.1" width="256" xmlns="http://www.w3.org/2000/svg" xmlns:ev="http://www.w3.org/2001/xml-events" xmlns:xlink="http://www.w3.org/1999/xlink"><defs /><path d="M1032 1006Q1094 1006 1148.5 982.5Q1203 959 1244.0 918.0Q1285 877 1308.5 822.5Q1332 768 1332 706Q1332 640 1304.5 580.5Q1277 521 1227 478Q1279 415 1306.5 338.5Q1334 262 1334 180Q1334 83 1297.5 -2.0Q1261 -87 1197.5 -150.5Q1134 -214 1049.0 -250.5Q964 -287 867 -287Q770 -287 685.0 -250.5Q600 -214 536.5 -150.5Q473 -87 436.5 -2.0Q400 83 400 180Q400 259 425.0 331.0Q450 403 495.0 462.5Q540 522 603.0 565.5Q666 609 742 630Q732 666 732 706Q732 768 755.5 823.0Q779 878 819.5 918.5Q860 959 915.0 982.5Q970 1006 1032 1006ZM2080 706Q2080 666 2070 630Q2145 609 2208.0 565.5Q2271 522 2316.0 462.0Q2361 402 2386.5 330.0Q2412 258 2412 180Q2412 83 2375.5 -2.0Q2339 -87 2275.5 -150.5Q2212 -214 2127.0 -250.5Q2042 -287 1945 -287Q1848 -287 1763.0 -250.5Q1678 -214 1614.5 -150.5Q1551 -87 1514.5 -2.0Q1478 83 1478 180Q1478 262 1505.5 338.5Q1533 415 1585 478Q1535 521 1507.5 580.5Q1480 640 1480 706Q1480 768 1503.5 822.5Q1527 877 1568.0 918.0Q1609 959 1663.5 982.5Q1718 1006 1780 1006Q1842 1006 1897.0 982.5Q1952 959 1992.5 918.5Q2033 878 2056.5 823.0Q2080 768 2080 706Z" style="fill:#e6e6e6;stroke:none" transform="scale(1,-1) translate(0,-256)" /></svg>