<?xml version="1.0" encoding="utf-8" ?>
<svg baseProfile="full" height="256" version="1.1" width="256" xmlns="http://www.w3.org/2000/svg" xmlns:ev="http://www.w3.org/2001/xml-events" xmlns:xlink="http://www.w3.org/1999/xlink"><defs /><path d="M1038 1218V1286Q1038 1336 1057.0 1380.5Q1076 1425 1109.0 1458.5Q1142 1492 1186.0 1511.5Q1230 1531 1281 1531H1373Q1390 1531 1400.0 1523.0Q1410 1515 1418 1501Q1445 1455 1471.0 1433.5Q1497 1412 1527.5 1403.5Q1558 1395 1595.0 1396.0Q1632 1397 1680 1396Q1701 1396 1719.0 1387.0Q1737 1378 1750.5 1364.0Q1764 1350 1772.0 1331.0Q1780 1312 1780 1292Q1780 1273 1779.0 1254.5Q1778 1236 1777 1217L1792 1214Q1787 1134 1781.5 1054.5Q1776 975 1771 895Q1769 877 1763.5 858.5Q1758 840 1751 823Q1734 782 1705.5 749.5Q1677 717 1641.0 694.5Q1605 672 1563.5 659.5Q1522 647 1478 647H1335Q1291 647 1249.5 659.0Q1208 671 1172.0 694.0Q1136 717 1107.5 749.5Q1079 782 1061 823Q1054 839 1048.5 858.0Q1043 877 1041 895L1020 1213Z" style="fill:#ffc83d;stroke:none" transform="scale(1,-1) translate(0,-256)" /></svg>