<?xml version="1.0" encoding="utf-8" ?>
<svg baseProfile="full" height="256" version="1.1" width="256" xmlns="http://www.w3.org/2000/svg" xmlns:ev="http://www.w3.org/2001/xml-events" xmlns:xlink="http://www.w3.org/1999/xlink"><defs /><path d="M1147 1295H1149Q1157 1304 1171.5 1310.5Q1186 1317 1201.5 1321.5Q1217 1326 1233.0 1328.0Q1249 1330 1260 1330Q1266 1330 1273.5 1329.5Q1281 1329 1287.5 1327.0Q1294 1325 1299.0 1321.0Q1304 1317 1304 1309Q1304 1298 1300.0 1293.5Q1296 1289 1289.5 1287.5Q1283 1286 1275.5 1286.5Q1268 1287 1261 1287Q1243 1287 1226.5 1282.0Q1210 1277 1196.5 1271.5Q1183 1266 1173.5 1261.0Q1164 1256 1160 1256Q1152 1256 1145.5 1262.5Q1139 1269 1139 1278Q1139 1289 1147 1295ZM1676 1295H1675Q1667 1304 1653.0 1310.5Q1639 1317 1622.5 1321.5Q1606 1326 1590.0 1328.0Q1574 1330 1563 1330Q1557 1330 1550.0 1330.0Q1543 1330 1536.0 1328.0Q1529 1326 1524.5 1321.5Q1520 1317 1520 1308Q1520 1297 1524.0 1292.5Q1528 1288 1534.0 1287.0Q1540 1286 1547.5 1286.5Q1555 1287 1562 1287Q1581 1287 1597.5 1282.0Q1614 1277 1627.5 1271.5Q1641 1266 1650.5 1261.0Q1660 1256 1663 1256Q1672 1256 1678.5 1262.5Q1685 1269 1685 1278Q1685 1288 1676 1295Z" style="fill:#d37034;stroke:none" transform="scale(1,-1) translate(0,-256)" /></svg>