<?xml version="1.0" encoding="utf-8" ?>
<svg baseProfile="full" height="256" version="1.1" width="256" xmlns="http://www.w3.org/2000/svg" xmlns:ev="http://www.w3.org/2001/xml-events" xmlns:xlink="http://www.w3.org/1999/xlink"><defs /><path d="M1233 1209Q1251 1209 1268.5 1202.0Q1286 1195 1300.5 1182.5Q1315 1170 1324.0 1153.5Q1333 1137 1333 1118Q1333 1111 1328.0 1106.5Q1323 1102 1316 1102H1153Q1145 1102 1138.5 1108.5Q1132 1115 1132 1123Q1132 1141 1141.5 1156.5Q1151 1172 1166.0 1183.5Q1181 1195 1199.0 1202.0Q1217 1209 1233 1209ZM1583 1209Q1565 1209 1547.0 1201.5Q1529 1194 1515.0 1181.0Q1501 1168 1492.0 1151.5Q1483 1135 1483 1116Q1483 1110 1489.0 1106.0Q1495 1102 1500 1102H1663Q1671 1102 1677.0 1108.5Q1683 1115 1683 1123Q1683 1141 1673.5 1156.5Q1664 1172 1649.5 1183.5Q1635 1195 1617.0 1202.0Q1599 1209 1583 1209Z" style="fill:#ffffff;stroke:none" transform="scale(1,-1) translate(0,-256)" /></svg>