<?xml version="1.0" encoding="utf-8" ?>
<svg baseProfile="full" height="256" version="1.1" width="256" xmlns="http://www.w3.org/2000/svg" xmlns:ev="http://www.w3.org/2001/xml-events" xmlns:xlink="http://www.w3.org/1999/xlink"><defs /><path d="M1516 1725Q1561 1725 1599.0 1703.0Q1637 1681 1660 1643Q1677 1614 1702.0 1595.0Q1727 1576 1758 1565Q1811 1546 1842.0 1502.5Q1873 1459 1873 1403Q1873 1374 1865.0 1353.5Q1857 1333 1848.0 1316.0Q1839 1299 1831.0 1281.5Q1823 1264 1823 1242V1198Q1817 1201 1803.5 1194.0Q1790 1187 1775.0 1177.5Q1760 1168 1746.0 1160.0Q1732 1152 1724 1153Q1725 1172 1726.0 1190.5Q1727 1209 1727 1228Q1727 1248 1719.0 1266.5Q1711 1285 1697.5 1299.5Q1684 1314 1666.0 1323.0Q1648 1332 1627 1332H1526Q1511 1332 1499.5 1320.5Q1488 1309 1479.0 1291.5Q1470 1274 1463.0 1253.5Q1456 1233 1450.0 1215.5Q1444 1198 1438.5 1186.5Q1433 1175 1428 1175Q1424 1175 1421.0 1181.5Q1418 1188 1412.5 1196.0Q1407 1204 1398.0 1210.5Q1389 1217 1373 1217H1281Q1247 1217 1215.0 1229.5Q1183 1242 1156.0 1256.5Q1129 1271 1107.0 1283.5Q1085 1296 1071 1296Q1057 1296 1051.5 1279.5Q1046 1263 1044.5 1241.5Q1043 1220 1044.5 1200.0Q1046 1180 1046 1174Q1038 1173 1031.5 1177.0Q1025 1181 1019.0 1186.0Q1013 1191 1006.5 1195.5Q1000 1200 994 1200Q992 1200 988 1198Q988 1230 987.0 1254.5Q986 1279 969 1306Q955 1329 947.0 1352.5Q939 1376 939 1404Q939 1460 970.5 1502.5Q1002 1545 1053 1565Q1116 1589 1153 1645Q1177 1682 1214.0 1703.5Q1251 1725 1296 1725Q1311 1725 1325.0 1721.5Q1339 1718 1352.5 1714.0Q1366 1710 1379.0 1706.5Q1392 1703 1406 1703Q1434 1703 1460.5 1714.0Q1487 1725 1516 1725ZM993 1078H1090V801Q1045 819 1019.0 859.0Q993 899 993 947ZM1819 947Q1819 899 1793.0 859.0Q1767 819 1722 801V1078H1819Z" style="fill:#f1a11e;stroke:none" transform="scale(1,-1) translate(0,-256)" /></svg>