<?xml version="1.0" encoding="utf-8" ?>
<svg baseProfile="full" height="256" version="1.1" width="256" xmlns="http://www.w3.org/2000/svg" xmlns:ev="http://www.w3.org/2001/xml-events" xmlns:xlink="http://www.w3.org/1999/xlink"><defs /><path d="M1172 1105Q1172 1081 1163.0 1059.5Q1154 1038 1138.0 1022.5Q1122 1007 1101.0 997.5Q1080 988 1056 988Q1032 988 1010.5 997.5Q989 1007 973.5 1022.5Q958 1038 948.5 1059.5Q939 1081 939 1105Q939 1129 948.0 1150.5Q957 1172 973.0 1188.0Q989 1204 1010.5 1213.0Q1032 1222 1056 1222Q1080 1222 1101.5 1212.5Q1123 1203 1138.5 1187.5Q1154 1172 1163.0 1150.5Q1172 1129 1172 1105ZM1873 1105Q1873 1081 1863.5 1059.5Q1854 1038 1838.5 1022.5Q1823 1007 1801.5 997.5Q1780 988 1756 988Q1732 988 1711.0 997.5Q1690 1007 1674.0 1022.5Q1658 1038 1649.0 1059.5Q1640 1081 1640 1105Q1640 1129 1649.0 1150.5Q1658 1172 1673.5 1187.5Q1689 1203 1710.5 1212.5Q1732 1222 1756 1222Q1780 1222 1801.5 1213.0Q1823 1204 1839.0 1188.0Q1855 1172 1864.0 1150.5Q1873 1129 1873 1105Z" style="fill:#fdbb11;stroke:none" transform="scale(1,-1) translate(0,-256)" /></svg>