<?xml version="1.0" encoding="utf-8" ?>
<svg baseProfile="full" height="256" version="1.1" width="256" xmlns="http://www.w3.org/2000/svg" xmlns:ev="http://www.w3.org/2001/xml-events" xmlns:xlink="http://www.w3.org/1999/xlink"><defs /><path d="M1248 1159Q1264 1159 1274.5 1147.5Q1285 1136 1285 1120Q1285 1109 1281 1102H1215Q1210 1110 1210 1120Q1210 1136 1220.5 1147.5Q1231 1159 1248 1159ZM1568 1159Q1551 1159 1541.0 1147.5Q1531 1136 1531 1120Q1531 1109 1535 1102H1601Q1606 1110 1606 1120Q1606 1136 1595.5 1147.5Q1585 1159 1568 1159Z" style="fill:#000000;stroke:none" transform="scale(1,-1) translate(0,-256)" /></svg>