<?xml version="1.0" encoding="utf-8" ?>
<svg baseProfile="full" height="256" version="1.1" width="256" xmlns="http://www.w3.org/2000/svg" xmlns:ev="http://www.w3.org/2001/xml-events" xmlns:xlink="http://www.w3.org/1999/xlink"><defs /><path d="M1164 755Q1176 740 1187.5 729.0Q1199 718 1211.5 709.5Q1224 701 1238.5 694.5Q1253 688 1272 683V611Q1272 593 1266.0 582.5Q1260 572 1251.0 566.0Q1242 560 1231.0 555.5Q1220 551 1211.0 544.5Q1202 538 1196.0 527.0Q1190 516 1190 497Q1190 474 1200 449L1411 -91L1622 449Q1632 474 1632 497Q1632 522 1620.5 535.5Q1609 549 1586 557Q1567 563 1559.0 578.0Q1551 593 1549.0 611.5Q1547 630 1548.5 649.0Q1550 668 1550 683Q1569 688 1583.5 694.5Q1598 701 1610.5 709.5Q1623 718 1634.0 729.0Q1645 740 1658 755Q1700 748 1734.5 721.0Q1769 694 1794.0 656.5Q1819 619 1833.0 575.5Q1847 532 1847 493Q1847 478 1845.0 461.5Q1843 445 1837 431L1551 -287H1271L984 431Q979 445 977.0 461.0Q975 477 975 492Q975 532 989.0 575.5Q1003 619 1027.5 656.5Q1052 694 1087.0 721.0Q1122 748 1164 755Z" style="fill:#ff8101;stroke:none" transform="scale(1,-1) translate(0,-256)" /></svg>