<?xml version="1.0" encoding="utf-8" ?>
<svg baseProfile="full" height="256" version="1.1" width="256" xmlns="http://www.w3.org/2000/svg" xmlns:ev="http://www.w3.org/2001/xml-events" xmlns:xlink="http://www.w3.org/1999/xlink"><defs /><path d="M965 1223Q1038 1223 1102.0 1195.5Q1166 1168 1214.0 1120.5Q1262 1073 1289.5 1009.0Q1317 945 1317 872V568Q1317 495 1289.5 431.0Q1262 367 1214.0 319.0Q1166 271 1102.0 243.5Q1038 216 965 216Q892 216 828.0 243.5Q764 271 716.5 319.0Q669 367 641.5 431.0Q614 495 614 568V872Q614 945 641.5 1009.0Q669 1073 716.5 1120.5Q764 1168 828.0 1195.5Q892 1223 965 1223ZM811 568Q811 536 823.0 508.0Q835 480 856.0 459.0Q877 438 905.0 426.0Q933 414 965 414Q997 414 1025.0 426.0Q1053 438 1074.0 459.0Q1095 480 1107.0 508.0Q1119 536 1119 568V872Q1119 904 1107.0 932.0Q1095 960 1074.0 981.0Q1053 1002 1025.0 1014.0Q997 1026 965 1026Q933 1026 905.0 1014.0Q877 1002 856.0 981.0Q835 960 823.0 932.0Q811 904 811 872ZM1577 1223Q1597 1223 1615.0 1215.0Q1633 1207 1646.5 1193.5Q1660 1180 1667.5 1162.0Q1675 1144 1675 1124V903Q1675 894 1684 894Q1687 894 1707.0 913.5Q1727 933 1756.0 963.5Q1785 994 1819.0 1030.0Q1853 1066 1884.0 1098.5Q1915 1131 1939.0 1156.5Q1963 1182 1972 1190Q1987 1204 2005.0 1212.5Q2023 1221 2044 1221Q2064 1221 2082.0 1213.0Q2100 1205 2113.5 1191.5Q2127 1178 2135.0 1160.0Q2143 1142 2143 1122Q2143 1102 2136.0 1085.5Q2129 1069 2115 1054Q2108 1047 2087.0 1024.5Q2066 1002 2038.0 973.5Q2010 945 1979.5 913.0Q1949 881 1923.5 854.0Q1898 827 1881.5 808.5Q1865 790 1865 788Q1865 785 1883.0 756.5Q1901 728 1928.5 685.5Q1956 643 1989.0 592.5Q2022 542 2052.0 496.5Q2082 451 2105.0 415.5Q2128 380 2135 367Q2150 341 2150 314Q2150 272 2122.0 243.5Q2094 215 2052 215Q2027 215 2005.0 227.0Q1983 239 1969 260L1728 634Q1726 638 1721 638Q1717 638 1714 635Q1711 632 1705.0 626.0Q1699 620 1692.0 613.5Q1685 607 1680.0 600.5Q1675 594 1675 591V315Q1675 295 1667.5 277.0Q1660 259 1646.5 245.5Q1633 232 1615.0 224.0Q1597 216 1577 216Q1557 216 1539.0 224.0Q1521 232 1507.5 245.5Q1494 259 1486.0 277.0Q1478 295 1478 315V1124Q1478 1166 1506.5 1194.5Q1535 1223 1577 1223Z" style="fill:#ffffff;stroke:none" transform="scale(1,-1) translate(0,-256)" /></svg>