<?xml version="1.0" encoding="utf-8" ?>
<svg baseProfile="full" height="256" version="1.1" width="256" xmlns="http://www.w3.org/2000/svg" xmlns:ev="http://www.w3.org/2001/xml-events" xmlns:xlink="http://www.w3.org/1999/xlink"><defs /><path d="M1057 1348Q1096 1348 1131.0 1333.0Q1166 1318 1192.5 1291.5Q1219 1265 1234.0 1230.0Q1249 1195 1249 1156V1020Q1249 981 1234.0 946.0Q1219 911 1192.5 884.5Q1166 858 1131.0 843.0Q1096 828 1057 828Q1017 828 982.0 843.0Q947 858 921.0 884.0Q895 910 880.0 945.0Q865 980 865 1020V1156Q865 1196 880.0 1231.0Q895 1266 921.0 1292.0Q947 1318 982.0 1333.0Q1017 1348 1057 1348Z" style="fill:#ffdea7;stroke:none" transform="scale(1,-1) translate(0,-256)" /></svg>