<?xml version="1.0" encoding="utf-8" ?>
<svg baseProfile="full" height="256" version="1.1" width="256" xmlns="http://www.w3.org/2000/svg" xmlns:ev="http://www.w3.org/2001/xml-events" xmlns:xlink="http://www.w3.org/1999/xlink"><defs /><path d="M1440 1725Q1480 1725 1515.0 1710.0Q1550 1695 1576.0 1669.0Q1602 1643 1617.0 1608.0Q1632 1573 1632 1533V1397Q1632 1358 1617.0 1323.0Q1602 1288 1575.5 1262.0Q1549 1236 1514.0 1221.0Q1479 1206 1440 1206Q1401 1206 1366.0 1221.0Q1331 1236 1305.0 1262.0Q1279 1288 1264.0 1323.0Q1249 1358 1249 1397V1533Q1249 1572 1264.0 1607.0Q1279 1642 1305.0 1668.5Q1331 1695 1366.0 1710.0Q1401 1725 1440 1725Z" style="fill:#ffdea7;stroke:none" transform="scale(1,-1) translate(0,-256)" /></svg>