<?xml version="1.0" encoding="utf-8" ?>
<svg baseProfile="full" height="256" version="1.1" width="256" xmlns="http://www.w3.org/2000/svg" xmlns:ev="http://www.w3.org/2001/xml-events" xmlns:xlink="http://www.w3.org/1999/xlink"><defs /><path d="M2176 589Q2188 589 2197.5 582.5Q2207 576 2211 565L2245 473L2303 556Q2313 571 2332 571Q2347 571 2357.5 560.0Q2368 549 2368 534Q2368 525 2360.0 510.5Q2352 496 2341.0 481.0Q2330 466 2319.0 452.5Q2308 439 2303 432L2402 431Q2416 431 2426.5 420.5Q2437 410 2437 396Q2437 381 2427.0 370.0Q2417 359 2401 359L2253 360L2203 289L2298 288Q2313 288 2323.5 277.5Q2334 267 2334 252Q2334 238 2324.0 227.5Q2314 217 2300 217Q2263 217 2226.0 217.5Q2189 218 2152 218L1978 -29Q1967 -44 1948 -44Q1933 -44 1923.0 -33.5Q1913 -23 1913 -8Q1913 3 1919 12L2092 257Q2088 267 2079.5 289.5Q2071 312 2062.0 336.0Q2053 360 2046.0 381.5Q2039 403 2039 411Q2039 426 2049.5 436.0Q2060 446 2075 446Q2100 446 2108 423L2142 328L2194 402Q2191 411 2182.0 433.0Q2173 455 2164.0 479.0Q2155 503 2148.0 524.0Q2141 545 2141 552Q2141 567 2151.5 578.0Q2162 589 2176 589ZM788 539Q788 530 783 520L705 393L704 392L737 331L774 391Q785 409 805 409Q820 409 830.5 398.0Q841 387 841 373Q841 365 832.0 347.5Q823 330 812.0 311.5Q801 293 790.0 278.5Q779 264 776 262L810 201Q826 196 838.0 189.0Q850 182 850 162Q850 157 848.5 150.5Q847 144 844 141Q848 134 854.5 124.5Q861 115 867.0 104.5Q873 94 877.0 83.5Q881 73 881 64Q881 50 870.5 39.0Q860 28 845 28Q824 28 814 47L760 143L711 161L639 95Q627 85 614 85Q599 85 589.0 95.0Q579 105 579 121Q579 131 585.5 141.0Q592 151 601.0 159.5Q610 168 619.5 175.5Q629 183 635 189L588 207Q580 201 564.5 188.5Q549 176 531.0 163.5Q513 151 496.5 141.0Q480 131 472 131Q459 131 450.0 139.5Q441 148 441 161Q441 176 454 186L519 233Q510 236 496.0 240.0Q482 244 469.5 249.5Q457 255 448.0 264.0Q439 273 439 287Q439 302 449.5 312.5Q460 323 474 323Q490 323 507.5 315.0Q525 307 539 302Q534 319 526.5 341.5Q519 364 519 381Q519 393 528.0 402.0Q537 411 549 411Q559 411 567.5 404.5Q576 398 579 388L609 276L706 240L569 486Q564 494 564 504Q564 518 574.5 528.5Q585 539 600 539Q622 539 632 521L664 463L721 557Q726 565 734.5 570.0Q743 575 752 575Q767 575 777.5 564.0Q788 553 788 539ZM761 -287Q744 -287 732.0 -275.0Q720 -263 720 -246V-131H2160V-246Q2160 -263 2148.0 -275.0Q2136 -287 2119 -287Z" style="fill:#86d72f;stroke:none" transform="scale(1,-1) translate(0,-256)" /></svg>