<?xml version="1.0" encoding="utf-8" ?>
<svg baseProfile="full" height="256" version="1.1" width="256" xmlns="http://www.w3.org/2000/svg" xmlns:ev="http://www.w3.org/2001/xml-events" xmlns:xlink="http://www.w3.org/1999/xlink"><defs /><path d="M1303 1514Q1303 1542 1314.0 1567.0Q1325 1592 1343.5 1610.5Q1362 1629 1387.0 1640.0Q1412 1651 1440 1651Q1468 1651 1493.0 1640.0Q1518 1629 1537.0 1610.5Q1556 1592 1567.0 1567.0Q1578 1542 1578 1514V1417Q1578 1388 1567.0 1363.5Q1556 1339 1537.5 1320.0Q1519 1301 1493.5 1290.5Q1468 1280 1440 1280Q1411 1280 1386.5 1290.5Q1362 1301 1343.0 1320.0Q1324 1339 1313.5 1363.5Q1303 1388 1303 1417ZM1057 1274Q1028 1274 1003.0 1263.5Q978 1253 959.5 1234.0Q941 1215 930.0 1190.0Q919 1165 919 1137V1040Q919 1011 930.0 986.0Q941 961 959.5 942.5Q978 924 1003.0 913.0Q1028 902 1057 902Q1085 902 1110.0 913.0Q1135 924 1154.0 942.5Q1173 961 1183.5 986.0Q1194 1011 1194 1040V1137Q1194 1165 1183.0 1189.5Q1172 1214 1153.0 1233.0Q1134 1252 1109.5 1263.0Q1085 1274 1057 1274ZM1824 1058Q1796 1058 1771.0 1047.0Q1746 1036 1727.5 1017.5Q1709 999 1698.0 974.0Q1687 949 1687 921V824Q1687 795 1697.5 770.5Q1708 746 1727.0 727.0Q1746 708 1770.5 697.5Q1795 687 1824 687Q1852 687 1877.5 697.5Q1903 708 1921.5 727.0Q1940 746 1951.0 770.5Q1962 795 1962 824V921Q1962 949 1951.0 974.0Q1940 999 1921.0 1017.5Q1902 1036 1877.0 1047.0Q1852 1058 1824 1058Z" style="fill:#533566;stroke:none" transform="scale(1,-1) translate(0,-256)" /></svg>