<?xml version="1.0" encoding="utf-8" ?>
<svg baseProfile="full" height="256" version="1.1" width="256" xmlns="http://www.w3.org/2000/svg" xmlns:ev="http://www.w3.org/2001/xml-events" xmlns:xlink="http://www.w3.org/1999/xlink"><defs /><path d="M1824 1132Q1864 1132 1899.0 1117.0Q1934 1102 1960.0 1076.0Q1986 1050 2001.0 1015.0Q2016 980 2016 940V804Q2016 765 2001.0 730.0Q1986 695 1959.5 669.0Q1933 643 1898.0 628.0Q1863 613 1824 613Q1785 613 1750.0 628.0Q1715 643 1688.5 669.0Q1662 695 1647.0 730.0Q1632 765 1632 804V940Q1632 979 1647.0 1014.0Q1662 1049 1688.5 1075.5Q1715 1102 1750.0 1117.0Q1785 1132 1824 1132Z" style="fill:#ffdea7;stroke:none" transform="scale(1,-1) translate(0,-256)" /></svg>