<?xml version="1.0" encoding="utf-8" ?>
<svg baseProfile="full" height="256" version="1.1" width="256" xmlns="http://www.w3.org/2000/svg" xmlns:ev="http://www.w3.org/2001/xml-events" xmlns:xlink="http://www.w3.org/1999/xlink"><defs /><path d="M1398 1089Q1459 1089 1513.0 1066.5Q1567 1044 1607.5 1004.0Q1648 964 1671.0 910.5Q1694 857 1694 795Q1694 724 1661.5 662.0Q1629 600 1571 558Q1586 513 1586 465Q1586 405 1563.0 351.5Q1540 298 1500.0 258.0Q1460 218 1406.5 195.0Q1353 172 1293 172Q1245 172 1200.5 186.5Q1156 201 1118 229Q1080 201 1035.5 186.5Q991 172 944 172Q883 172 829.5 195.0Q776 218 736.5 257.5Q697 297 674.0 350.5Q651 404 651 465Q651 513 666 558Q608 600 575.5 662.0Q543 724 543 795Q543 857 566.0 910.5Q589 964 629.5 1004.0Q670 1044 723.5 1066.5Q777 1089 839 1089Q853 1135 880.5 1172.5Q908 1210 945.0 1237.0Q982 1264 1026.0 1279.0Q1070 1294 1118 1294Q1166 1294 1210.5 1279.5Q1255 1265 1292.0 1238.0Q1329 1211 1356.5 1173.0Q1384 1135 1398 1089ZM1476 588Q1508 600 1535.0 621.0Q1562 642 1581.5 669.5Q1601 697 1611.5 729.0Q1622 761 1622 796Q1622 841 1604.5 881.5Q1587 922 1556.5 952.0Q1526 982 1485.5 999.5Q1445 1017 1400 1017Q1371 1017 1339 1009Q1337 1054 1319.0 1093.0Q1301 1132 1271.5 1160.5Q1242 1189 1202.5 1205.5Q1163 1222 1118 1222Q1073 1222 1034.0 1205.5Q995 1189 965.0 1160.0Q935 1131 917.0 1092.0Q899 1053 897 1009Q865 1017 837 1017Q792 1017 751.5 999.5Q711 982 680.5 952.0Q650 922 632.5 881.5Q615 841 615 796Q615 761 625.5 729.0Q636 697 655.5 669.5Q675 642 702.0 621.0Q729 600 761 588Q742 561 732.5 529.0Q723 497 723 464Q723 418 740.5 378.0Q758 338 788.0 308.0Q818 278 858.0 261.0Q898 244 944 244Q995 244 1041.0 265.5Q1087 287 1118 329Q1150 288 1196.0 266.0Q1242 244 1293 244Q1339 244 1379.0 261.5Q1419 279 1449.0 309.0Q1479 339 1496.5 379.0Q1514 419 1514 465Q1514 498 1504.0 529.5Q1494 561 1476 588ZM1275 808Q1293 814 1316.0 823.5Q1339 833 1358 833Q1373 833 1383.5 822.5Q1394 812 1394 797Q1394 786 1387.0 776.0Q1380 766 1369 762L1297 739Q1298 734 1298.0 729.0Q1298 724 1298 719Q1298 714 1298.0 709.0Q1298 704 1297 699Q1307 696 1319.0 693.0Q1331 690 1341.5 685.0Q1352 680 1359.5 671.5Q1367 663 1367 650Q1367 635 1356.0 624.5Q1345 614 1330 614Q1316 614 1302.5 620.0Q1289 626 1275 630Q1263 612 1251 598Q1256 590 1264.5 579.5Q1273 569 1281.5 558.0Q1290 547 1296.0 535.5Q1302 524 1302 515Q1302 501 1291.0 490.0Q1280 479 1266 479Q1254 479 1243.5 488.0Q1233 497 1224.0 509.0Q1215 521 1207.0 534.0Q1199 547 1193 555Q1173 547 1154 543V467Q1154 453 1143.0 442.0Q1132 431 1118 431Q1104 431 1093.5 442.0Q1083 453 1083 467V543Q1063 547 1044 555L1000 494Q989 479 970 479Q954 479 944.0 490.0Q934 501 934 516Q934 525 940.0 536.0Q946 547 954.5 558.5Q963 570 972.0 580.0Q981 590 986 598Q974 612 962 630Q948 626 934.5 620.0Q921 614 906 614Q891 614 880.5 624.5Q870 635 870 650Q870 663 877.5 671.5Q885 680 895.5 685.0Q906 690 918.0 693.0Q930 696 940 699Q939 704 939.0 709.0Q939 714 939 719Q939 724 939.0 729.0Q939 734 940 739L868 762Q857 766 850.0 776.0Q843 786 843 797Q843 812 853.5 822.5Q864 833 879 833Q898 833 921.0 823.5Q944 814 962 808Q974 826 986 840Q976 853 963.5 867.5Q951 882 951 899Q951 914 962.0 924.5Q973 935 988 935Q998 935 1006.0 929.0Q1014 923 1021.0 915.0Q1028 907 1033.5 898.0Q1039 889 1044 882Q1052 886 1062.0 890.0Q1072 894 1081 895Q1081 895 1081.5 904.5Q1082 914 1082.5 927.0Q1083 940 1083.0 952.5Q1083 965 1083 971Q1083 985 1093.5 995.5Q1104 1006 1118 1006Q1132 1006 1143.0 995.5Q1154 985 1154 971V895Q1156 895 1157.0 894.5Q1158 894 1159 894Q1167 892 1176.0 889.5Q1185 887 1193 882Q1198 889 1203.5 898.5Q1209 908 1215.5 916.0Q1222 924 1230.0 929.5Q1238 935 1249 935Q1264 935 1275.0 924.5Q1286 914 1286 899Q1286 882 1273.5 867.5Q1261 853 1251 840Q1263 826 1275 808ZM1118 611Q1140 611 1160.0 619.5Q1180 628 1194.5 642.5Q1209 657 1217.5 676.5Q1226 696 1226 719Q1226 741 1217.5 760.5Q1209 780 1194.0 795.0Q1179 810 1159.5 818.5Q1140 827 1118 827Q1096 827 1076.5 818.5Q1057 810 1042.5 795.0Q1028 780 1019.5 760.5Q1011 741 1011 719Q1011 697 1019.5 677.5Q1028 658 1042.0 643.0Q1056 628 1075.5 619.5Q1095 611 1118 611Z" style="fill:#007356;stroke:none" transform="scale(1,-1) translate(0,-256)" /></svg>