<?xml version="1.0" encoding="utf-8" ?>
<svg baseProfile="full" height="256" version="1.1" width="256" xmlns="http://www.w3.org/2000/svg" xmlns:ev="http://www.w3.org/2001/xml-events" xmlns:xlink="http://www.w3.org/1999/xlink"><defs /><path d="M1211 382Q1146 382 1089.0 406.5Q1032 431 989.5 473.5Q947 516 922.5 573.0Q898 630 898 695Q898 760 922.5 817.0Q947 874 989.5 917.0Q1032 960 1089.0 984.5Q1146 1009 1211 1009Q1276 1009 1333.0 984.5Q1390 960 1433.0 917.0Q1476 874 1500.5 817.0Q1525 760 1525 695Q1525 630 1500.5 573.0Q1476 516 1433.0 473.5Q1390 431 1333.0 406.5Q1276 382 1211 382Z" style="fill:#6d4534;stroke:none" transform="scale(1,-1) translate(0,-256)" /></svg>