<?xml version="1.0" encoding="utf-8" ?>
<svg baseProfile="full" height="256" version="1.1" width="256" xmlns="http://www.w3.org/2000/svg" xmlns:ev="http://www.w3.org/2001/xml-events" xmlns:xlink="http://www.w3.org/1999/xlink"><defs /><path d="M1741 1725Q1844 1725 1934.5 1686.0Q2025 1647 2092.5 1580.0Q2160 1513 2199.0 1422.5Q2238 1332 2238 1229Q2238 1172 2227.5 1123.0Q2217 1074 2197.0 1030.0Q2177 986 2147.5 945.5Q2118 905 2079 865Q2024 807 1996.5 747.0Q1969 687 1960 608Q1943 465 1888.5 342.0Q1834 219 1731 116Q1620 6 1478.0 -53.5Q1336 -113 1180 -113Q1072 -113 972.5 -85.0Q873 -57 786.5 -6.5Q700 44 628.5 115.5Q557 187 506.5 273.5Q456 360 428.0 459.5Q400 559 400 667Q400 823 458.5 965.0Q517 1107 628 1218Q732 1322 854.5 1376.0Q977 1430 1121 1447Q1197 1456 1259.5 1484.0Q1322 1512 1377 1566Q1455 1642 1542.5 1683.5Q1630 1725 1741 1725Z" style="fill:#008463;stroke:none" transform="scale(1,-1) translate(0,-256)" /></svg>