<?xml version="1.0" encoding="utf-8" ?>
<svg baseProfile="full" height="256" version="1.1" width="256" xmlns="http://www.w3.org/2000/svg" xmlns:ev="http://www.w3.org/2001/xml-events" xmlns:xlink="http://www.w3.org/1999/xlink"><defs /><path d="M2132 1229Q2132 1140 2099.0 1071.0Q2066 1002 2004 940Q1938 873 1901.5 792.5Q1865 712 1854 618Q1840 493 1792.5 387.0Q1745 281 1655 191Q1560 96 1437.0 45.0Q1314 -6 1179 -6Q1086 -6 1000.0 18.0Q914 42 839.0 86.0Q764 130 703.0 191.5Q642 253 598.0 327.5Q554 402 530.0 488.0Q506 574 506 667Q506 803 554.0 920.0Q602 1037 686.0 1126.0Q770 1215 884.0 1271.5Q998 1328 1130 1342Q1229 1352 1304.5 1388.0Q1380 1424 1452 1492Q1516 1552 1584.0 1586.0Q1652 1620 1742 1620Q1823 1620 1894.0 1589.5Q1965 1559 2018.0 1505.5Q2071 1452 2101.5 1381.0Q2132 1310 2132 1229Z" style="fill:#c3ef3c;stroke:none" transform="scale(1,-1) translate(0,-256)" /></svg>