<?xml version="1.0" encoding="utf-8" ?>
<svg baseProfile="full" height="256" version="1.1" width="256" xmlns="http://www.w3.org/2000/svg" xmlns:ev="http://www.w3.org/2001/xml-events" xmlns:xlink="http://www.w3.org/1999/xlink"><defs /><path d="M1262 935Q1262 905 1250.5 878.5Q1239 852 1219.5 832.5Q1200 813 1174.0 802.0Q1148 791 1118 791Q1088 791 1062.0 802.5Q1036 814 1016.5 833.5Q997 853 986.0 879.0Q975 905 975 935Q975 965 986.0 991.0Q997 1017 1016.5 1036.5Q1036 1056 1062.0 1067.0Q1088 1078 1118 1078Q1148 1078 1174.0 1067.0Q1200 1056 1219.5 1036.5Q1239 1017 1250.5 991.0Q1262 965 1262 935ZM1837 935Q1837 905 1825.5 878.5Q1814 852 1794.5 832.5Q1775 813 1749.0 802.0Q1723 791 1693 791Q1663 791 1637.0 802.5Q1611 814 1591.5 833.5Q1572 853 1561.0 879.0Q1550 905 1550 935Q1550 965 1561.0 991.0Q1572 1017 1591.5 1036.5Q1611 1056 1637.0 1067.0Q1663 1078 1693 1078Q1723 1078 1749.0 1067.0Q1775 1056 1794.5 1036.5Q1814 1017 1825.5 991.0Q1837 965 1837 935ZM1406 216Q1436 216 1468.5 210.0Q1501 204 1531.5 191.5Q1562 179 1587.5 159.5Q1613 140 1629 112Q1651 72 1693 72Q1723 72 1744.0 93.0Q1765 114 1765 144Q1765 162 1758 176Q1751 192 1738.5 208.0Q1726 224 1714 237Q1654 300 1573.0 330.0Q1492 360 1406 360Q1359 360 1306.0 348.5Q1253 337 1204.0 314.0Q1155 291 1115.0 256.5Q1075 222 1054 176Q1046 160 1046 144Q1046 114 1067.5 93.0Q1089 72 1119 72Q1161 72 1183 112Q1199 140 1224.5 159.5Q1250 179 1280.5 191.5Q1311 204 1343.5 210.0Q1376 216 1406 216Z" style="fill:#402a32;stroke:none" transform="scale(1,-1) translate(0,-256)" /></svg>