<?xml version="1.0" encoding="utf-8" ?>
<svg baseProfile="full" height="256" version="1.1" width="256" xmlns="http://www.w3.org/2000/svg" xmlns:ev="http://www.w3.org/2001/xml-events" xmlns:xlink="http://www.w3.org/1999/xlink"><defs /><path d="M1011 719Q944 719 885.0 744.5Q826 770 782.0 814.0Q738 858 712.5 916.5Q687 975 687 1042Q687 1109 712.5 1168.0Q738 1227 782.0 1271.0Q826 1315 885.0 1340.5Q944 1366 1011 1366Q1078 1366 1136.5 1340.5Q1195 1315 1239.0 1271.0Q1283 1227 1308.5 1168.0Q1334 1109 1334 1042Q1334 975 1308.5 916.5Q1283 858 1239.0 814.0Q1195 770 1136.5 744.5Q1078 719 1011 719ZM1801 719Q1734 719 1675.5 744.5Q1617 770 1573.0 814.0Q1529 858 1503.5 916.5Q1478 975 1478 1042Q1478 1109 1503.5 1168.0Q1529 1227 1573.0 1271.0Q1617 1315 1675.5 1340.5Q1734 1366 1801 1366Q1868 1366 1927.0 1340.5Q1986 1315 2030.0 1271.0Q2074 1227 2099.5 1168.0Q2125 1109 2125 1042Q2125 975 2099.5 916.5Q2074 858 2030.0 814.0Q1986 770 1927.0 744.5Q1868 719 1801 719Z" style="fill:#ffffff;stroke:none" transform="scale(1,-1) translate(0,-256)" /></svg>