<?xml version="1.0" encoding="utf-8" ?>
<svg baseProfile="full" height="256" version="1.1" width="256" xmlns="http://www.w3.org/2000/svg" xmlns:ev="http://www.w3.org/2001/xml-events" xmlns:xlink="http://www.w3.org/1999/xlink"><defs /><path d="M1190 611Q1190 648 1204.0 681.0Q1218 714 1242.5 738.5Q1267 763 1300.0 777.0Q1333 791 1370 791H2376Q2413 791 2446.0 777.0Q2479 763 2503.5 738.5Q2528 714 2542.0 681.0Q2556 648 2556 611Q2556 574 2542.0 541.0Q2528 508 2503.5 483.5Q2479 459 2446.0 445.0Q2413 431 2376 431H1370Q1333 431 1300.0 445.0Q1267 459 1242.5 483.5Q1218 508 1204.0 541.0Q1190 574 1190 611Z" style="fill:#ff822d;stroke:none" transform="scale(1,-1) translate(0,-256)" /></svg>