<?xml version="1.0" encoding="utf-8" ?>
<svg baseProfile="full" height="256" version="1.1" width="256" xmlns="http://www.w3.org/2000/svg" xmlns:ev="http://www.w3.org/2001/xml-events" xmlns:xlink="http://www.w3.org/1999/xlink"><defs /><path d="M1262 1186Q1262 1171 1251.5 1160.5Q1241 1150 1226 1150H1083Q1060 1150 1040.5 1141.5Q1021 1133 1006.5 1118.5Q992 1104 983.5 1084.0Q975 1064 975 1042Q975 1019 983.5 999.5Q992 980 1007.0 966.0Q1022 952 1041.5 943.5Q1061 935 1083 935H1226Q1240 935 1251.0 924.0Q1262 913 1262 899Q1262 882 1253.0 874.5Q1244 867 1231.5 864.5Q1219 862 1204.5 862.5Q1190 863 1179 863L1116 738Q1106 717 1083 717Q1067 717 1056.0 728.0Q1045 739 1045 755Q1045 762 1051.0 777.0Q1057 792 1065.5 808.5Q1074 825 1082.0 840.0Q1090 855 1094 863Q1055 863 1020.0 875.5Q985 888 959.0 911.5Q933 935 918.0 968.0Q903 1001 903 1042Q903 1079 917.0 1112.0Q931 1145 955.5 1169.5Q980 1194 1012.5 1208.0Q1045 1222 1083 1222H1226Q1241 1222 1251.5 1211.5Q1262 1201 1262 1186ZM1732 862Q1732 851 1727.0 826.0Q1722 801 1716.0 772.0Q1710 743 1704.0 716.0Q1698 689 1695 676Q1692 662 1682.0 653.5Q1672 645 1658 645Q1642 645 1630.5 656.0Q1619 667 1619 683Q1619 693 1624.0 719.0Q1629 745 1635.0 774.0Q1641 803 1647.0 830.0Q1653 857 1656 870Q1659 884 1669.0 892.5Q1679 901 1693 901Q1710 901 1721.0 889.5Q1732 878 1732 862Z" style="fill:#d3d3d3;stroke:none" transform="scale(1,-1) translate(0,-256)" /></svg>