<?xml version="1.0" encoding="utf-8" ?>
<svg baseProfile="full" height="256" version="1.1" width="256" xmlns="http://www.w3.org/2000/svg" xmlns:ev="http://www.w3.org/2001/xml-events" xmlns:xlink="http://www.w3.org/1999/xlink"><defs /><path d="M1546 287Q1551 287 1556.0 287.0Q1561 287 1566 286L2060 187Q2088 182 2106.5 161.5Q2125 141 2125 112Q2125 85 2106.5 61.5Q2088 38 2060 36L1566 1Q1561 1 1557.0 0.5Q1553 0 1548 0Q1518 0 1492.5 11.5Q1467 23 1447.5 42.5Q1428 62 1417.0 88.5Q1406 115 1406 144Q1406 173 1417.0 199.0Q1428 225 1447.0 244.5Q1466 264 1491.5 275.5Q1517 287 1546 287Z" style="fill:#f9c23c;stroke:none" transform="scale(1,-1) translate(0,-256)" /></svg>