<?xml version="1.0" encoding="utf-8" ?>
<svg baseProfile="full" height="256" version="1.1" width="256" xmlns="http://www.w3.org/2000/svg" xmlns:ev="http://www.w3.org/2001/xml-events" xmlns:xlink="http://www.w3.org/1999/xlink"><defs /><path d="M1124 755Q1124 746 1115.0 723.0Q1106 700 1094.5 674.5Q1083 649 1071.5 625.5Q1060 602 1056 592L1521 220L1616 762Q1618 777 1630.5 787.0Q1643 797 1657 797Q1668 797 1678.5 791.5Q1689 786 1694 776L2058 137Q2064 128 2064 116Q2064 99 2052.0 87.0Q2040 75 2023 75Q2012 75 2001.5 80.5Q1991 86 1986 96L1679 634L1591 137Q1588 122 1576.0 112.0Q1564 102 1549 102Q1534 102 1524 111L1021 514L833 91Q828 80 817.5 73.5Q807 67 795 67Q778 67 766.0 79.0Q754 91 754 108Q754 117 757 125L1044 772Q1049 783 1059.5 789.5Q1070 796 1082 796Q1099 796 1111.5 784.0Q1124 772 1124 755Z" style="fill:#f92f60;stroke:none" transform="scale(1,-1) translate(0,-256)" /></svg>