<?xml version="1.0" encoding="utf-8" ?>
<svg baseProfile="full" height="256" version="1.1" width="256" xmlns="http://www.w3.org/2000/svg" xmlns:ev="http://www.w3.org/2001/xml-events" xmlns:xlink="http://www.w3.org/1999/xlink"><defs /><path d="M1154 108Q1154 34 1125.5 -31.5Q1097 -97 1048.5 -146.0Q1000 -195 934.5 -223.0Q869 -251 795 -251Q721 -251 655.5 -223.0Q590 -195 541.0 -146.0Q492 -97 464.0 -31.5Q436 34 436 108Q436 182 464.0 247.5Q492 313 541.0 361.5Q590 410 655.5 438.5Q721 467 795 467Q869 467 934.5 438.5Q1000 410 1048.5 361.5Q1097 313 1125.5 247.5Q1154 182 1154 108ZM1047 108Q1047 160 1027.0 206.0Q1007 252 973.0 286.0Q939 320 893.0 340.0Q847 360 795 360Q743 360 697.0 340.0Q651 320 617.0 286.0Q583 252 563.0 206.0Q543 160 543 108Q543 56 563.0 10.0Q583 -36 617.0 -70.0Q651 -104 697.0 -124.0Q743 -144 795 -144Q847 -144 893.0 -124.0Q939 -104 973.0 -70.0Q1007 -36 1027.0 10.0Q1047 56 1047 108ZM2376 108Q2376 34 2347.5 -31.5Q2319 -97 2270.5 -146.0Q2222 -195 2156.5 -223.0Q2091 -251 2017 -251Q1943 -251 1877.5 -223.0Q1812 -195 1763.0 -146.0Q1714 -97 1686.0 -31.5Q1658 34 1658 108Q1658 182 1686.0 247.5Q1714 313 1763.0 361.5Q1812 410 1877.5 438.5Q1943 467 2017 467Q2091 467 2156.5 438.5Q2222 410 2270.5 361.5Q2319 313 2347.5 247.5Q2376 182 2376 108ZM2268 108Q2268 160 2248.5 206.0Q2229 252 2195.0 286.0Q2161 320 2115.0 340.0Q2069 360 2017 360Q1965 360 1919.0 340.0Q1873 320 1839.0 286.0Q1805 252 1785.0 206.0Q1765 160 1765 108Q1765 56 1785.0 10.0Q1805 -36 1839.0 -70.0Q1873 -104 1919.0 -124.0Q1965 -144 2017 -144Q2069 -144 2115.0 -124.0Q2161 -104 2195.0 -70.0Q2229 -36 2248.5 10.0Q2268 56 2268 108Z" style="fill:#f3eef8;stroke:none" transform="scale(1,-1) translate(0,-256)" /></svg>