<?xml version="1.0" encoding="utf-8" ?>
<svg baseProfile="full" height="256" version="1.1" width="256" xmlns="http://www.w3.org/2000/svg" xmlns:ev="http://www.w3.org/2001/xml-events" xmlns:xlink="http://www.w3.org/1999/xlink"><defs /><path d="M1075 1161Q1075 1129 1052.0 1106.0Q1029 1083 997 1083Q965 1083 941.5 1106.0Q918 1129 918 1161Q918 1194 941.0 1217.0Q964 1240 997 1240Q1029 1240 1052.0 1216.5Q1075 1193 1075 1161ZM1498 399Q1498 367 1474.5 344.0Q1451 321 1419 321Q1387 321 1364.0 344.0Q1341 367 1341 399Q1341 431 1364.0 454.5Q1387 478 1419 478Q1452 478 1475.0 455.0Q1498 432 1498 399ZM1515 576Q1547 576 1570.0 599.0Q1593 622 1593 654Q1593 686 1570.0 709.0Q1547 732 1515 732Q1483 732 1460.0 709.0Q1437 686 1437 654Q1437 622 1460.0 599.0Q1483 576 1515 576ZM1860 478Q1860 454 1850.5 432.5Q1841 411 1825.0 395.0Q1809 379 1787.5 369.5Q1766 360 1742 360Q1718 360 1696.5 369.5Q1675 379 1659.0 395.0Q1643 411 1633.5 432.5Q1624 454 1624 478Q1624 502 1633.5 523.5Q1643 545 1659.0 561.0Q1675 577 1696.5 586.5Q1718 596 1742 596Q1766 596 1787.5 586.5Q1809 577 1825.0 561.0Q1841 545 1850.5 523.5Q1860 502 1860 478Z" style="fill:#00a6ed;stroke:none" transform="scale(1,-1) translate(0,-256)" /></svg>