<?xml version="1.0" encoding="utf-8" ?>
<svg baseProfile="full" height="256" version="1.1" width="256" xmlns="http://www.w3.org/2000/svg" xmlns:ev="http://www.w3.org/2001/xml-events" xmlns:xlink="http://www.w3.org/1999/xlink"><defs /><path d="M907 1337Q879 1337 858.0 1355.0Q837 1373 831 1399L781 1630Q779 1640 779 1646Q779 1679 802.5 1702.0Q826 1725 859 1725Q885 1725 907.5 1707.0Q930 1689 935 1663L984 1432Q985 1427 985.5 1423.5Q986 1420 986 1415Q986 1382 962.5 1359.5Q939 1337 907 1337ZM1101 1315Q1101 1335 1111.5 1353.5Q1122 1372 1140 1383L1345 1501Q1362 1511 1383 1511Q1416 1511 1439.0 1488.5Q1462 1466 1462 1433Q1462 1412 1451.5 1394.0Q1441 1376 1423 1365L1219 1247Q1200 1236 1179 1236Q1147 1236 1124.0 1259.5Q1101 1283 1101 1315ZM1251 904Q1251 870 1274.0 847.5Q1297 825 1330 825Q1359 825 1381 844L1559 999Q1586 1023 1586 1058Q1586 1091 1563.5 1113.5Q1541 1136 1509 1136Q1478 1136 1456 1117L1278 963Q1251 939 1251 904ZM1773 812Q1773 817 1773.5 821.0Q1774 825 1775 830L1832 1059Q1839 1085 1860.5 1101.5Q1882 1118 1909 1118Q1941 1118 1963.5 1094.5Q1986 1071 1986 1039Q1986 1034 1985.5 1030.0Q1985 1026 1984 1021L1927 793Q1920 767 1900.0 749.5Q1880 732 1852 732Q1820 732 1796.5 755.5Q1773 779 1773 812ZM2028 622Q2028 590 2051.0 566.5Q2074 543 2107 543Q2118 543 2129 546L2356 612Q2381 620 2396.5 641.0Q2412 662 2412 688Q2412 721 2389.0 743.5Q2366 766 2334 766Q2321 766 2311 763L2085 697Q2060 689 2044.0 668.5Q2028 648 2028 622ZM2037 312Q2070 312 2093 289L2259 123Q2282 100 2282 67Q2282 35 2259.0 11.5Q2236 -12 2204 -12Q2171 -12 2148 11L1981 178Q1958 201 1958 234Q1958 266 1981.5 289.0Q2005 312 2037 312ZM1727 93Q1727 125 1704.0 148.5Q1681 172 1649 172Q1617 172 1593.5 148.5Q1570 125 1570 93V-143Q1570 -175 1593.5 -198.0Q1617 -221 1649 -221Q1681 -221 1704.0 -198.0Q1727 -175 1727 -143ZM1291 172Q1291 150 1281 133L1163 -71Q1152 -89 1133.5 -99.5Q1115 -110 1095 -110Q1063 -110 1039.5 -87.0Q1016 -64 1016 -32Q1016 -11 1027 8L1145 212Q1156 230 1174.0 240.5Q1192 251 1213 251Q1246 251 1268.5 228.0Q1291 205 1291 172ZM981 438Q981 470 958.0 493.0Q935 516 903 516Q873 516 851 497L674 343Q647 319 647 284Q647 251 670.0 228.0Q693 205 725 205Q755 205 777 224L954 379Q981 403 981 438ZM814 768Q814 742 798.5 721.5Q783 701 758 693L532 627Q526 625 520.5 624.0Q515 623 509 623Q477 623 454.0 646.5Q431 670 431 702Q431 728 446.5 748.5Q462 769 487 777L713 844Q723 847 735 847Q768 847 791.0 824.0Q814 801 814 768ZM712 1103Q746 1103 768.5 1126.5Q791 1150 791 1183Q791 1212 770.0 1234.0Q749 1256 720 1259L486 1281L477 1282Q461 1282 447.0 1275.5Q433 1269 422.5 1258.5Q412 1248 406.0 1234.0Q400 1220 400 1204Q400 1174 420.5 1151.0Q441 1128 471 1125L705 1103Z" style="fill:#00d26a;stroke:none" transform="scale(1,-1) translate(0,-256)" /></svg>