<?xml version="1.0" encoding="utf-8" ?>
<svg baseProfile="full" height="256" version="1.1" width="256" xmlns="http://www.w3.org/2000/svg" xmlns:ev="http://www.w3.org/2001/xml-events" xmlns:xlink="http://www.w3.org/1999/xlink"><defs /><path d="M616 503Q593 507 579.0 522.5Q565 538 556.5 559.0Q548 580 545.5 603.0Q543 626 543 645Q522 645 504.0 656.5Q486 668 486 692Q486 712 500.5 726.0Q515 740 534 745Q526 756 520.5 772.0Q515 788 520 801Q513 806 503.5 820.5Q494 835 495 844H490Q483 844 474.5 845.0Q466 846 458.5 849.5Q451 853 446.0 859.0Q441 865 441 874Q441 887 449.5 894.0Q458 901 469 904Q454 904 446.5 918.5Q439 933 441 946Q428 946 418.5 953.5Q409 961 409 975Q409 986 416.0 993.5Q423 1001 433 1004Q424 1008 414.5 1015.0Q405 1022 405 1033Q405 1047 416.5 1055.5Q428 1064 439 1066H432Q418 1066 403.0 1073.5Q388 1081 388 1097Q388 1107 394.0 1114.5Q400 1122 408 1127Q404 1132 401.5 1138.5Q399 1145 399 1152Q399 1166 409.5 1174.0Q420 1182 433 1182L432 1190Q432 1203 439.0 1212.5Q446 1222 460 1223Q449 1223 441.5 1230.0Q434 1237 434 1248Q434 1264 445.0 1273.0Q456 1282 471 1280Q449 1288 449 1310Q449 1324 458.5 1334.5Q468 1345 482 1345Q490 1345 496 1342V1347Q496 1360 503.5 1372.5Q511 1385 525 1385Q537 1385 546 1374V1380Q546 1392 553.5 1400.0Q561 1408 573 1408Q588 1408 598 1396Q585 1411 585 1428Q585 1436 589.0 1445.0Q593 1454 602 1457Q591 1465 591 1482Q591 1494 597 1505Q587 1510 580.5 1519.0Q574 1528 574 1539Q574 1551 582.0 1563.0Q590 1575 603 1575Q610 1575 615.5 1571.5Q621 1568 625 1563Q624 1566 624 1573Q624 1586 632.0 1597.0Q640 1608 654 1608Q660 1608 664.5 1606.0Q669 1604 674 1601Q679 1611 688.0 1616.0Q697 1621 708 1619Q706 1625 706 1627Q706 1640 717.0 1648.5Q728 1657 740 1657Q753 1657 763 1647Q774 1661 792 1661Q806 1661 815 1652Q820 1659 827.5 1663.5Q835 1668 844 1668Q855 1668 863.5 1662.0Q872 1656 877 1647Q881 1655 889.0 1659.5Q897 1664 906 1664Q916 1664 924.5 1659.0Q933 1654 935 1643Q945 1659 963 1659Q976 1659 984.0 1650.5Q992 1642 993 1629Q998 1633 1004.0 1635.5Q1010 1638 1017 1638Q1034 1638 1041.0 1625.5Q1048 1613 1045 1599Q1052 1603 1059.0 1606.0Q1066 1609 1074 1609Q1088 1609 1095.5 1600.0Q1103 1591 1103 1578Q1103 1564 1094 1550L2102 1546Q2111 1550 2123 1550Q2134 1550 2144.0 1546.0Q2154 1542 2161 1534Q2171 1540 2184 1540Q2200 1540 2213.5 1530.5Q2227 1521 2232 1507H2237Q2258 1507 2273.5 1492.5Q2289 1478 2287 1457Q2297 1455 2303.5 1448.0Q2310 1441 2310 1430Q2310 1419 2302.0 1412.0Q2294 1405 2283 1405Q2290 1400 2292 1390Q2313 1390 2330.5 1377.0Q2348 1364 2347 1341Q2356 1339 2362.5 1332.5Q2369 1326 2369 1316Q2369 1302 2357.5 1295.5Q2346 1289 2334 1294Q2330 1289 2324.0 1284.0Q2318 1279 2313 1276Q2331 1276 2344.0 1264.0Q2357 1252 2354 1233Q2362 1229 2365.5 1220.5Q2369 1212 2369 1204Q2369 1190 2364 1177Q2370 1172 2375.5 1164.5Q2381 1157 2381 1149Q2381 1135 2369.5 1128.0Q2358 1121 2347 1121Q2335 1121 2326 1127Q2335 1120 2340.0 1112.0Q2345 1104 2345 1092Q2345 1087 2344.5 1082.0Q2344 1077 2343 1072Q2352 1070 2357.5 1062.0Q2363 1054 2363 1045Q2363 1037 2359 1033Q2368 1031 2373.0 1022.5Q2378 1014 2378 1005Q2378 997 2373 989Q2385 978 2385 962Q2385 950 2378.5 939.5Q2372 929 2361 924Q2372 916 2379.5 904.0Q2387 892 2387 878Q2387 860 2375.0 848.0Q2363 836 2346 833Q2351 823 2351 815Q2351 796 2337.5 783.0Q2324 770 2305 772Q2303 763 2297.0 757.0Q2291 751 2281 752Q2289 744 2295.0 734.5Q2301 725 2301 714Q2301 695 2288.5 684.5Q2276 674 2258 676Q2265 668 2269.5 657.5Q2274 647 2274 636Q2274 627 2260.5 601.0Q2247 575 2231.5 544.0Q2216 513 2202.5 483.0Q2189 453 2189 436Q2189 435 2189.5 434.0Q2190 433 2190 431Q2197 423 2201.5 412.5Q2206 402 2206 391Q2206 367 2183 357Q2191 352 2197.0 344.5Q2203 337 2203 326Q2203 312 2191.5 304.0Q2180 296 2167 294Q2175 283 2175 271Q2175 257 2165.5 246.5Q2156 236 2142 236Q2131 236 2124 242Q2129 235 2132.0 227.5Q2135 220 2135 212Q2135 194 2120.5 190.0Q2106 186 2092 189Q2098 180 2098 170Q2098 159 2090.0 148.5Q2082 138 2070 138Q2062 138 2056.5 143.0Q2051 148 2048 155L774 129Q771 129 767.5 128.0Q764 127 761 127Q741 127 731.5 142.5Q722 158 727 175Q725 175 723.0 174.5Q721 174 719 174Q700 174 689.5 190.0Q679 206 685 223Q681 222 674 222Q641 222 641 253Q641 263 644 272Q631 276 621.0 284.5Q611 293 611 308Q611 316 614.0 324.0Q617 332 622 339Q616 346 611.5 354.0Q607 362 607 371Q607 382 613.0 391.0Q619 400 627 406Z" style="fill:#ed9200;stroke:none" transform="scale(1,-1) translate(0,-256)" /></svg>