<?xml version="1.0" encoding="utf-8" ?>
<svg baseProfile="full" height="256" version="1.1" width="256" xmlns="http://www.w3.org/2000/svg" xmlns:ev="http://www.w3.org/2001/xml-events" xmlns:xlink="http://www.w3.org/1999/xlink"><defs /><path d="M781 983Q795 983 804.0 980.0Q813 977 819 963Q826 966 833.0 968.5Q840 971 848 971Q862 971 871.0 961.5Q880 952 880 938Q880 926 873.0 916.0Q866 906 853 906Q848 906 843.0 908.0Q838 910 833 912Q829 904 819.5 900.5Q810 897 802 897Q786 897 778.5 906.0Q771 915 772 930Q764 922 755.5 917.0Q747 912 736 912Q722 912 709 922Q709 902 697.0 887.5Q685 873 663 876Q664 874 664 870Q664 860 658.0 847.5Q652 835 643 830Q651 816 651 800Q651 780 636.5 769.0Q622 758 603 758Q592 758 581.5 764.0Q571 770 571 784Q571 790 575 800Q563 800 555.5 807.5Q548 815 548 827Q548 836 552.0 843.5Q556 851 564 855Q557 860 554.0 869.5Q551 879 551 887Q551 905 564 914Q554 927 554 942Q554 956 563.5 963.5Q573 971 587 971Q575 973 565.0 980.0Q555 987 555 1001Q555 1012 563.0 1022.5Q571 1033 583 1033Q589 1033 596 1028Q581 1043 581 1063Q581 1077 590.5 1090.5Q600 1104 616 1104Q624 1104 631.0 1099.5Q638 1095 643 1089Q638 1099 634.5 1110.0Q631 1121 631 1132Q631 1146 638.5 1156.0Q646 1166 661 1166Q669 1166 677 1163Q669 1172 669 1188Q669 1199 675.0 1210.5Q681 1222 695 1222Q700 1222 710 1218Q707 1225 704.5 1232.0Q702 1239 702 1247Q702 1262 713.0 1271.0Q724 1280 739 1280Q749 1280 759 1275Q752 1291 752 1305Q752 1324 766.0 1328.5Q780 1333 795 1332Q784 1341 784 1356Q784 1373 797.5 1380.0Q811 1387 826 1385Q808 1400 808 1423Q808 1436 815.5 1445.0Q823 1454 837 1454Q845 1454 853 1451Q849 1462 849 1476Q849 1491 855.5 1506.5Q862 1522 881 1522Q890 1522 902 1517Q894 1528 894 1542Q894 1552 899.0 1560.5Q904 1569 915 1569Q924 1569 932.0 1563.5Q940 1558 946 1552Q948 1565 956.0 1575.0Q964 1585 978 1585Q993 1585 1000.0 1574.0Q1007 1563 1006 1549Q1010 1559 1017.5 1567.5Q1025 1576 1036 1576Q1053 1576 1058.5 1561.5Q1064 1547 1060 1533Q1064 1545 1074.0 1558.0Q1084 1571 1094 1579Q1084 1589 1084 1606Q1084 1619 1090.5 1629.0Q1097 1639 1109 1644Q1102 1654 1102 1665Q1102 1680 1112.5 1689.5Q1123 1699 1138 1698Q1138 1714 1147.0 1726.0Q1156 1738 1173 1738Q1184 1738 1193.5 1731.0Q1203 1724 1205 1713Q1208 1724 1216.0 1732.5Q1224 1741 1236 1741Q1247 1741 1255.0 1734.0Q1263 1727 1266 1716L1265 1722Q1265 1736 1275.5 1746.0Q1286 1756 1300 1756Q1313 1756 1320.5 1747.0Q1328 1738 1332 1727Q1337 1735 1343.5 1740.5Q1350 1746 1360 1746Q1373 1746 1381.5 1735.5Q1390 1725 1391 1713Q1395 1724 1404.0 1731.5Q1413 1739 1425 1739Q1438 1739 1446.0 1730.5Q1454 1722 1456 1710Q1460 1721 1469.5 1727.5Q1479 1734 1491 1734Q1505 1734 1514.5 1724.5Q1524 1715 1524 1700Q1529 1711 1540.0 1717.0Q1551 1723 1563 1723Q1574 1723 1584.0 1717.0Q1594 1711 1599 1700Q1604 1712 1617.0 1718.0Q1630 1724 1642 1724Q1668 1724 1679 1701V1702Q1679 1713 1692.5 1721.0Q1706 1729 1715 1729Q1728 1729 1737.0 1720.5Q1746 1712 1751 1701Q1756 1711 1764.5 1717.5Q1773 1724 1784 1724Q1801 1724 1810.5 1711.5Q1820 1699 1820 1683Q1833 1693 1847 1693Q1863 1693 1871.5 1681.5Q1880 1670 1880 1656Q1880 1647 1877 1638Q1881 1636 1886.0 1633.0Q1891 1630 1893 1626Q1900 1634 1910.0 1639.5Q1920 1645 1931 1645Q1942 1645 1951.5 1639.0Q1961 1633 1966 1623Q1969 1624 1974 1624Q1988 1624 1998.0 1615.5Q2008 1607 2008 1593Q2013 1595 2018.0 1596.0Q2023 1597 2028 1597Q2043 1597 2052.5 1587.5Q2062 1578 2064 1563H2067Q2087 1563 2101.0 1549.0Q2115 1535 2117 1515Q2134 1512 2146.0 1496.5Q2158 1481 2156 1464Q2164 1460 2172.0 1453.5Q2180 1447 2180 1437Q2180 1426 2173.0 1418.0Q2166 1410 2155 1410Q2143 1410 2133 1417Q2133 1404 2125.0 1396.0Q2117 1388 2105 1386Q2107 1380 2107 1377Q2107 1364 2094.5 1358.0Q2082 1352 2071 1352Q2059 1352 2050.0 1358.0Q2041 1364 2038 1375Q2033 1363 2026.5 1361.0Q2020 1359 2008 1357Q2016 1354 2019 1344Q2031 1349 2042 1349Q2063 1349 2075.5 1335.0Q2088 1321 2087 1301Q2091 1302 2098 1302Q2115 1302 2127.0 1293.0Q2139 1284 2139 1266Q2139 1261 2137 1251Q2156 1249 2168.5 1238.5Q2181 1228 2181 1208Q2181 1182 2162.0 1166.0Q2143 1150 2117 1154Q2116 1144 2105 1133Q2119 1132 2132.5 1123.5Q2146 1115 2146 1098Q2146 1090 2142.0 1083.0Q2138 1076 2133 1071Q2146 1070 2156.0 1063.0Q2166 1056 2166 1042Q2166 1032 2160.0 1024.0Q2154 1016 2145 1011Q2156 1009 2164.0 1003.0Q2172 997 2172 985Q2172 969 2161.0 963.5Q2150 958 2136 958Q2126 958 2115.5 960.5Q2105 963 2096.0 968.5Q2087 974 2081.5 982.5Q2076 991 2076 1002Q2076 1011 2081 1023Q2070 1028 2063.0 1037.0Q2056 1046 2056 1059Q2056 1072 2061 1081Q2050 1086 2042.0 1094.0Q2034 1102 2034 1114Q2034 1121 2036.5 1127.5Q2039 1134 2043 1139Q2037 1137 2033 1137Q2020 1137 2012.5 1147.0Q2005 1157 2005 1169Q2005 1181 2013 1191Q2006 1184 1998.0 1178.0Q1990 1172 1979 1172Q1975 1172 1972.0 1173.0Q1969 1174 1965 1175Q1974 1166 1981.0 1154.5Q1988 1143 1988 1129Q1988 1112 1975.0 1098.5Q1962 1085 1945 1085Q1930 1085 1923.5 1095.0Q1917 1105 1917 1119Q1911 1113 1903.0 1108.0Q1895 1103 1886 1103Q1872 1103 1866.0 1113.5Q1860 1124 1860 1135Q1860 1141 1861.0 1146.5Q1862 1152 1864 1157Q1858 1150 1850.5 1145.0Q1843 1140 1834 1140Q1821 1140 1814.0 1150.0Q1807 1160 1807 1172Q1807 1181 1810 1189Q1802 1184 1793.0 1180.5Q1784 1177 1774 1177Q1759 1177 1750.5 1186.0Q1742 1195 1742 1209Q1742 1220 1744 1225Q1739 1221 1733.0 1220.5Q1727 1220 1721 1221Q1721 1195 1702.5 1186.0Q1684 1177 1661 1182Q1669 1171 1669 1159Q1669 1150 1664.5 1142.0Q1660 1134 1653 1128Q1661 1133 1669.5 1137.0Q1678 1141 1687 1141Q1704 1141 1709.0 1129.5Q1714 1118 1711 1104Q1717 1113 1726.0 1120.0Q1735 1127 1746 1127Q1759 1127 1767.0 1117.5Q1775 1108 1777 1097Q1782 1099 1786.5 1101.0Q1791 1103 1796 1103Q1809 1103 1814.0 1094.0Q1819 1085 1819 1074Q1819 1057 1808.0 1043.0Q1797 1029 1780 1029Q1768 1029 1757.5 1037.0Q1747 1045 1742 1055Q1727 1034 1703 1034Q1686 1034 1674.5 1044.5Q1663 1055 1659 1071Q1654 1069 1648.5 1068.0Q1643 1067 1637 1067Q1613 1067 1600.0 1085.0Q1587 1103 1589 1126Q1572 1128 1562.0 1138.0Q1552 1148 1552 1165Q1552 1176 1556 1184Q1550 1185 1542.0 1189.0Q1534 1193 1529 1197Q1526 1190 1519.5 1186.0Q1513 1182 1507 1179Q1519 1175 1530.0 1163.5Q1541 1152 1541 1139Q1541 1119 1524.0 1108.0Q1507 1097 1489 1097Q1478 1097 1467.5 1102.0Q1457 1107 1457 1120Q1457 1125 1459.0 1129.5Q1461 1134 1463 1139Q1443 1151 1443 1173Q1443 1184 1447.5 1193.5Q1452 1203 1460 1211H1456Q1440 1211 1432.0 1219.0Q1424 1227 1426 1243Q1415 1245 1407.0 1253.5Q1399 1262 1401 1274Q1386 1261 1367 1261Q1353 1261 1345.0 1270.0Q1337 1279 1335 1293Q1336 1277 1322.5 1264.5Q1309 1252 1293 1252Q1283 1252 1273 1260Q1260 1252 1248 1252Q1228 1252 1219.0 1267.5Q1210 1283 1211 1300Q1195 1304 1184.0 1320.0Q1173 1336 1174 1352Q1166 1341 1154.0 1335.5Q1142 1330 1129 1330Q1125 1330 1120.5 1331.0Q1116 1332 1113 1335Q1112 1324 1107.5 1312.5Q1103 1301 1096.0 1291.0Q1089 1281 1079.0 1275.0Q1069 1269 1057 1269Q1047 1269 1038.0 1272.5Q1029 1276 1021 1281Q1018 1280 1011 1280Q1006 1280 1000.5 1281.0Q995 1282 991 1286Q989 1281 981.0 1278.0Q973 1275 968 1275Q963 1261 953 1254Q956 1246 956 1237Q956 1218 942 1206Q952 1198 957.0 1191.5Q962 1185 962 1172Q962 1160 955.5 1153.0Q949 1146 941 1138Q945 1133 945 1124Q945 1108 934.0 1102.5Q923 1097 909 1097Q892 1097 880.5 1107.0Q869 1117 869 1135Q869 1145 874.5 1154.0Q880 1163 888 1168H884Q871 1168 859.5 1175.0Q848 1182 842 1193Q842 1188 839.5 1182.0Q837 1176 833.0 1170.0Q829 1164 824.0 1160.5Q819 1157 813 1159Q814 1156 814 1149Q814 1137 804 1129Q815 1121 815 1107Q815 1100 811 1095Q820 1088 826.0 1077.0Q832 1066 830 1055Q841 1053 849.5 1045.5Q858 1038 858 1025Q858 1014 850.5 1005.0Q843 996 832 996Q824 996 818.5 999.5Q813 1003 808 1008Q803 998 797.5 992.5Q792 987 781 983Z" style="fill:#ed9200;stroke:none" transform="scale(1,-1) translate(0,-256)" /></svg>