<?xml version="1.0" encoding="utf-8" ?>
<svg baseProfile="full" height="256" version="1.1" width="256" xmlns="http://www.w3.org/2000/svg" xmlns:ev="http://www.w3.org/2001/xml-events" xmlns:xlink="http://www.w3.org/1999/xlink"><defs /><path d="M2412 594Q2412 590 2412.0 586.0Q2412 582 2410 579Q2378 503 2333.0 434.0Q2288 365 2232.5 304.5Q2177 244 2113.0 192.0Q2049 140 1979 98Q1944 78 1908.5 59.0Q1873 40 1835 26Q1818 20 1802.5 16.5Q1787 13 1772.0 12.0Q1757 11 1742.0 11.0Q1727 11 1709 11Q1650 11 1595 35Q1510 70 1426.5 107.5Q1343 145 1258 182Q1150 229 1041.5 275.5Q933 322 825.0 370.5Q717 419 610.5 470.0Q504 521 401 578L400 580V621V623L655 1012Q673 1039 689.5 1068.0Q706 1097 728 1122Q799 1204 896.5 1249.0Q994 1294 1103 1294Q1185 1294 1262.0 1268.0Q1339 1242 1405 1192Q1471 1242 1548.0 1268.0Q1625 1294 1707 1294Q1760 1294 1812.5 1282.5Q1865 1271 1913.5 1249.0Q1962 1227 2005.0 1195.0Q2048 1163 2083 1122Q2103 1098 2119.5 1070.0Q2136 1042 2153 1016L2404 621Q2412 608 2412 594ZM622 579H1279L1763 401Q1798 388 1837 388Q1901 388 1954 423L2188 578V579Q2188 588 2181.5 594.0Q2175 600 2167 603Q2163 604 2139.0 612.5Q2115 621 2088.0 630.0Q2061 639 2038.5 646.5Q2016 654 2016 654H795Q795 654 772.5 646.5Q750 639 723.0 630.0Q696 621 672.5 612.5Q649 604 645 603Q626 597 622 579Z" style="fill:#f92f60;stroke:none" transform="scale(1,-1) translate(0,-256)" /></svg>