<?xml version="1.0" encoding="utf-8" ?>
<svg baseProfile="full" height="256" version="1.1" width="256" xmlns="http://www.w3.org/2000/svg" xmlns:ev="http://www.w3.org/2001/xml-events" xmlns:xlink="http://www.w3.org/1999/xlink"><defs /><path d="M789 652Q867 679 942.0 701.0Q1017 723 1092.0 738.5Q1167 754 1244.5 762.0Q1322 770 1405 770Q1489 770 1566.5 762.0Q1644 754 1719.0 738.5Q1794 723 1869.0 701.0Q1944 679 2023 652Q2008 616 1989.5 593.0Q1971 570 1929 563Q1883 556 1834.5 556.0Q1786 556 1739 554Q1656 552 1573.5 550.5Q1491 549 1407 549H1354Q1266 549 1180.0 549.5Q1094 550 1007 555Q976 557 944.5 557.5Q913 558 883 563Q841 569 822.5 593.0Q804 617 789 652Z" style="fill:#f3eef8;stroke:none" transform="scale(1,-1) translate(0,-256)" /></svg>