<?xml version="1.0" encoding="utf-8" ?>
<svg baseProfile="full" height="256" version="1.1" width="256" xmlns="http://www.w3.org/2000/svg" xmlns:ev="http://www.w3.org/2001/xml-events" xmlns:xlink="http://www.w3.org/1999/xlink"><defs /><path d="M2358 953Q2380 953 2396.0 937.0Q2412 921 2412 899V755Q2412 732 2396.5 716.5Q2381 701 2358 701H2268V953ZM400 827Q400 856 421.5 877.5Q443 899 472 899H687V755H472Q442 755 421.0 776.0Q400 797 400 827ZM873 589H2151Q2141 585 2137.5 573.0Q2134 561 2127.0 544.5Q2120 528 2104.5 510.0Q2089 492 2056 477Q2050 474 2046.5 470.0Q2043 466 2043 458V454L2158 37Q2166 7 2166 -21Q2166 -64 2149.5 -101.5Q2133 -139 2104.5 -167.5Q2076 -196 2038.0 -212.5Q2000 -229 1957 -229Q1921 -229 1888.5 -217.5Q1856 -206 1829.5 -186.0Q1803 -166 1783.5 -137.5Q1764 -109 1755 -75L1609 449Q1607 458 1599.0 464.0Q1591 470 1581 470H993Q968 470 946.5 479.5Q925 489 908.5 505.0Q892 521 882.5 542.5Q873 564 873 589ZM1466 436Q1483 436 1492.0 429.0Q1501 422 1505.0 411.0Q1509 400 1509.5 386.5Q1510 373 1510 361L1536 330L1510 301Q1510 289 1509.5 275.5Q1509 262 1505.0 251.5Q1501 241 1492.0 234.0Q1483 227 1466 227Q1448 227 1435.0 239.5Q1422 252 1422 270V391Q1422 409 1434.5 422.5Q1447 436 1466 436Z" style="fill:#f8312f;stroke:none" transform="scale(1,-1) translate(0,-256)" /></svg>