<?xml version="1.0" encoding="utf-8" ?>
<svg baseProfile="full" height="256" version="1.1" width="256" xmlns="http://www.w3.org/2000/svg" xmlns:ev="http://www.w3.org/2001/xml-events" xmlns:xlink="http://www.w3.org/1999/xlink"><defs /><path d="M2161 1078Q2191 1078 2217.0 1067.0Q2243 1056 2262.5 1036.5Q2282 1017 2293.0 991.0Q2304 965 2304 935V719Q2304 689 2293.0 663.0Q2282 637 2262.5 617.5Q2243 598 2217.0 586.5Q2191 575 2161 575H795Q743 575 697.0 595.0Q651 615 617.0 649.0Q583 683 563.0 729.0Q543 775 543 827Q543 879 563.0 925.0Q583 971 617.0 1005.0Q651 1039 697.0 1058.5Q743 1078 795 1078ZM1510 301V362H1633L1650 301Z" style="fill:#c3ef3c;stroke:none" transform="scale(1,-1) translate(0,-256)" /></svg>