<?xml version="1.0" encoding="utf-8" ?>
<svg baseProfile="full" height="256" version="1.1" width="256" xmlns="http://www.w3.org/2000/svg" xmlns:ev="http://www.w3.org/2001/xml-events" xmlns:xlink="http://www.w3.org/1999/xlink"><defs /><path d="M1758 360Q1729 360 1707.5 380.5Q1686 401 1686 430Q1686 447 1691.5 458.0Q1697 469 1708 482Q1717 493 1726.5 502.5Q1736 512 1745 523Q1790 579 1813.5 649.5Q1837 720 1837 791Q1837 880 1803.0 958.5Q1769 1037 1710.5 1095.5Q1652 1154 1573.5 1188.0Q1495 1222 1406 1222Q1317 1222 1238.5 1188.0Q1160 1154 1101.5 1095.5Q1043 1037 1009.0 958.5Q975 880 975 791Q975 720 998.5 649.5Q1022 579 1067 523Q1076 512 1085.5 502.5Q1095 493 1104 482Q1115 469 1120.5 458.0Q1126 447 1126 430Q1126 401 1104.5 380.5Q1083 360 1054 360H759Q730 360 708.5 381.0Q687 402 687 431Q687 460 708.5 481.5Q730 503 759 503H908Q870 569 850.5 642.0Q831 715 831 791Q831 910 876.5 1014.5Q922 1119 1000.0 1197.0Q1078 1275 1182.5 1320.5Q1287 1366 1406 1366Q1525 1366 1629.5 1320.5Q1734 1275 1812.0 1197.0Q1890 1119 1935.5 1014.5Q1981 910 1981 791Q1981 715 1961.5 642.0Q1942 569 1904 503H2053Q2082 503 2103.5 481.5Q2125 460 2125 431Q2125 402 2103.5 381.0Q2082 360 2053 360ZM687 144Q687 173 708.5 194.5Q730 216 759 216H2053Q2082 216 2103.5 194.5Q2125 173 2125 144Q2125 115 2103.5 93.5Q2082 72 2053 72H759Q730 72 708.5 93.5Q687 115 687 144Z" style="fill:#ffffff;stroke:none" transform="scale(1,-1) translate(0,-256)" /></svg>