<?xml version="1.0" encoding="utf-8" ?>
<svg baseProfile="full" height="256" version="1.1" width="256" xmlns="http://www.w3.org/2000/svg" xmlns:ev="http://www.w3.org/2001/xml-events" xmlns:xlink="http://www.w3.org/1999/xlink"><defs /><path d="M2053 719Q2053 630 2030.0 547.0Q2007 464 1964.5 392.5Q1922 321 1863.0 262.0Q1804 203 1732.5 160.5Q1661 118 1578.0 95.0Q1495 72 1406 72Q1317 72 1234.0 95.0Q1151 118 1079.5 160.5Q1008 203 949.0 262.0Q890 321 847.5 392.5Q805 464 782.0 547.0Q759 630 759 719Q759 808 782.0 891.0Q805 974 847.5 1045.5Q890 1117 949.0 1176.0Q1008 1235 1079.5 1277.5Q1151 1320 1234.0 1343.0Q1317 1366 1406 1366Q1495 1366 1578.0 1343.0Q1661 1320 1732.5 1277.5Q1804 1235 1863.0 1176.0Q1922 1117 1964.5 1045.5Q2007 974 2030.0 891.0Q2053 808 2053 719Z" style="fill:#5235a6;stroke:none" transform="scale(1,-1) translate(0,-256)" /></svg>