<?xml version="1.0" encoding="utf-8" ?>
<svg baseProfile="full" height="256" version="1.1" width="256" xmlns="http://www.w3.org/2000/svg" xmlns:ev="http://www.w3.org/2001/xml-events" xmlns:xlink="http://www.w3.org/1999/xlink"><defs /><path d="M2268 719Q2268 600 2237.0 490.0Q2206 380 2150.0 284.0Q2094 188 2015.5 109.0Q1937 30 1841.0 -26.0Q1745 -82 1635.0 -113.0Q1525 -144 1406 -144Q1287 -144 1177.0 -113.0Q1067 -82 971.0 -26.0Q875 30 796.0 109.0Q717 188 661.0 284.0Q605 380 574.0 490.0Q543 600 543 719Q543 838 574.0 948.0Q605 1058 661.0 1154.0Q717 1250 796.0 1328.5Q875 1407 971.0 1463.0Q1067 1519 1177.0 1550.0Q1287 1581 1406 1581Q1525 1581 1635.0 1550.0Q1745 1519 1841.0 1463.0Q1937 1407 2015.5 1328.5Q2094 1250 2150.0 1154.0Q2206 1058 2237.0 948.0Q2268 838 2268 719Z" style="fill:#a4aeeb;stroke:none" transform="scale(1,-1) translate(0,-256)" /></svg>