<?xml version="1.0" encoding="utf-8" ?>
<svg baseProfile="full" height="256" version="1.1" width="256" xmlns="http://www.w3.org/2000/svg" xmlns:ev="http://www.w3.org/2001/xml-events" xmlns:xlink="http://www.w3.org/1999/xlink"><defs /><path d="M903 1653Q903 1683 924.0 1704.0Q945 1725 975 1725H1837Q1867 1725 1888.0 1704.0Q1909 1683 1909 1653V1348Q1798 1427 1670.5 1468.5Q1543 1510 1406 1510Q1270 1510 1141.5 1469.0Q1013 1428 903 1348ZM1406 -72Q1543 -72 1670.5 -30.5Q1798 11 1909 90V-215Q1909 -245 1888.0 -266.0Q1867 -287 1837 -287H975Q945 -287 924.0 -266.0Q903 -245 903 -215V90Q1013 10 1141.5 -31.0Q1270 -72 1406 -72ZM2197 863Q2167 863 2146.0 842.0Q2125 821 2125 791V647Q2125 617 2146.0 596.0Q2167 575 2197 575H2304Q2334 575 2355.0 596.0Q2376 617 2376 647V791Q2376 821 2355.0 842.0Q2334 863 2304 863Z" style="fill:#3f5fff;stroke:none" transform="scale(1,-1) translate(0,-256)" /></svg>