<?xml version="1.0" encoding="utf-8" ?>
<svg baseProfile="full" height="256" version="1.1" width="256" xmlns="http://www.w3.org/2000/svg" xmlns:ev="http://www.w3.org/2001/xml-events" xmlns:xlink="http://www.w3.org/1999/xlink"><defs /><path d="M2401 1714Q2412 1705 2412 1689V1466Q2412 1438 2392 1418L1684 718L1657 607L1545 580L1729 467L1842 283L1678 173L1406 442L1106 146L970 283L1405 813Q1436 852 1460.5 884.5Q1485 917 1509.0 948.5Q1533 980 1559.5 1011.0Q1586 1042 1622 1078Q1656 1112 1687.0 1138.0Q1718 1164 1748.5 1187.5Q1779 1211 1811.5 1235.0Q1844 1259 1882 1290ZM410 1714 739 1458Q763 1439 783.5 1425.0Q804 1411 823.5 1397.0Q843 1383 862.5 1367.0Q882 1351 903 1330Q924 1309 938.5 1290.5Q953 1272 966.5 1253.5Q980 1235 993.0 1215.5Q1006 1196 1024 1173L1267 858L1226 755L1128 717L420 1418Q400 1438 400 1466V1689Q400 1704 410 1714Z" style="fill:#9b9b9b;stroke:none" transform="scale(1,-1) translate(0,-256)" /></svg>