<?xml version="1.0" encoding="utf-8" ?>
<svg baseProfile="full" height="256" version="1.1" width="256" xmlns="http://www.w3.org/2000/svg" xmlns:ev="http://www.w3.org/2001/xml-events" xmlns:xlink="http://www.w3.org/1999/xlink"><defs /><path d="M633 -288Q594 -288 565 -259L428 -123Q414 -109 406.5 -91.5Q399 -74 399 -55Q399 -35 407.0 -17.0Q415 1 428.5 14.0Q442 27 459.5 34.5Q477 42 497 42Q537 42 565 14L702 -123Q730 -151 730 -191Q730 -211 722.5 -229.0Q715 -247 701.5 -260.0Q688 -273 670.5 -280.5Q653 -288 633 -288ZM2179 -288Q2159 -288 2141.5 -280.5Q2124 -273 2110.5 -259.5Q2097 -246 2089.0 -228.5Q2081 -211 2081 -191Q2081 -172 2088.5 -154.5Q2096 -137 2110 -123L2247 14Q2275 42 2315 42Q2334 42 2352.0 34.5Q2370 27 2383.0 13.5Q2396 0 2404.0 -17.5Q2412 -35 2412 -55Q2412 -94 2383 -123L2247 -259Q2233 -273 2216.0 -280.5Q2199 -288 2179 -288Z" style="fill:#635994;stroke:none" transform="scale(1,-1) translate(0,-256)" /></svg>