<?xml version="1.0" encoding="utf-8" ?>
<svg baseProfile="full" height="256" version="1.1" width="256" xmlns="http://www.w3.org/2000/svg" xmlns:ev="http://www.w3.org/2001/xml-events" xmlns:xlink="http://www.w3.org/1999/xlink"><defs /><path d="M998 183Q982 183 965.0 193.5Q948 204 932.0 219.0Q916 234 901.5 250.0Q887 266 876 277Q859 294 859 317Q859 328 863.5 341.5Q868 355 876 363Q912 401 948.0 438.5Q984 476 1020 514Q1042 537 1068.5 566.5Q1095 596 1117.5 629.0Q1140 662 1155.5 697.0Q1171 732 1171 766Q1171 810 1183.5 849.5Q1196 889 1217.0 924.5Q1238 960 1265.0 992.0Q1292 1024 1321 1053L1839 1571L1925 1484L1401 960Q1381 940 1361.5 917.0Q1342 894 1327.0 868.5Q1312 843 1302.5 815.0Q1293 787 1293 758Q1293 726 1283.5 693.0Q1274 660 1258.5 628.5Q1243 597 1223.5 568.0Q1204 539 1185 514Q1211 534 1241.0 553.5Q1271 573 1303.0 588.0Q1335 603 1368.5 612.5Q1402 622 1436 622Q1464 622 1492.0 631.5Q1520 641 1546.0 656.5Q1572 672 1595.5 691.5Q1619 711 1638 730L2162 1254L2249 1168L1717 651Q1688 622 1655.0 596.0Q1622 570 1586.0 550.5Q1550 531 1510.5 519.0Q1471 507 1429 507Q1403 507 1374.0 495.5Q1345 484 1317.0 467.5Q1289 451 1263.0 432.0Q1237 413 1218 397Q1209 389 1197.5 380.5Q1186 372 1178 363Q1143 324 1109.5 284.5Q1076 245 1041 205Q1033 197 1021.0 190.0Q1009 183 998 183Z" style="fill:#bebebe;stroke:none" transform="scale(1,-1) translate(0,-256)" /></svg>