<?xml version="1.0" encoding="utf-8" ?>
<svg baseProfile="full" height="256" version="1.1" width="256" xmlns="http://www.w3.org/2000/svg" xmlns:ev="http://www.w3.org/2001/xml-events" xmlns:xlink="http://www.w3.org/1999/xlink"><defs /><path d="M1792 1610Q1792 1661 1824.5 1693.0Q1857 1725 1907 1725Q1930 1725 1951.5 1717.5Q1973 1710 1990 1693L2364 1319Q2381 1302 2388.5 1280.5Q2396 1259 2396 1236Q2396 1185 2364.0 1153.5Q2332 1122 2281 1122Q2258 1122 2236.5 1129.5Q2215 1137 2198 1154L1825 1528Q1808 1545 1800.0 1566.0Q1792 1587 1792 1610Z" style="fill:#7167a4;stroke:none" transform="scale(1,-1) translate(0,-256)" /></svg>