<?xml version="1.0" encoding="utf-8" ?>
<svg baseProfile="full" height="256" version="1.1" width="256" xmlns="http://www.w3.org/2000/svg" xmlns:ev="http://www.w3.org/2001/xml-events" xmlns:xlink="http://www.w3.org/1999/xlink"><defs /><path d="M1981 719V288Q1981 169 1936.0 64.0Q1891 -41 1813.0 -119.0Q1735 -197 1630.0 -242.0Q1525 -287 1406 -287Q1287 -287 1182.0 -242.0Q1077 -197 999.0 -119.0Q921 -41 876.0 64.0Q831 169 831 288V719H833Q832 728 831.5 737.0Q831 746 831 755Q831 807 851.0 853.0Q871 899 905.0 933.0Q939 967 985.0 986.5Q1031 1006 1083 1006H1226L1406 935L1586 1006H1729Q1781 1006 1827.0 986.5Q1873 967 1907.0 933.0Q1941 899 1961.0 853.0Q1981 807 1981 755Q1981 737 1978 719Z" style="fill:#f92f60;stroke:none" transform="scale(1,-1) translate(0,-256)" /></svg>