<?xml version="1.0" encoding="utf-8" ?>
<svg baseProfile="full" height="256" version="1.1" width="256" xmlns="http://www.w3.org/2000/svg" xmlns:ev="http://www.w3.org/2001/xml-events" xmlns:xlink="http://www.w3.org/1999/xlink"><defs /><path d="M2282 870Q2215 751 2120.5 656.5Q2026 562 1913.0 496.0Q1800 430 1671.0 395.0Q1542 360 1406 360Q1270 360 1141.0 395.0Q1012 430 899.0 496.0Q786 562 691.5 656.5Q597 751 530 870Q574 924 638.5 966.0Q703 1008 778.0 1039.5Q853 1071 936.0 1092.0Q1019 1113 1101.5 1126.0Q1184 1139 1262.0 1144.5Q1340 1150 1406 1150Q1471 1150 1549.5 1144.5Q1628 1139 1710.0 1126.0Q1792 1113 1875.0 1092.0Q1958 1071 2033.5 1039.5Q2109 1008 2173.0 966.5Q2237 925 2282 870Z" style="fill:#660075;stroke:none" transform="scale(1,-1) translate(0,-256)" /></svg>