<?xml version="1.0" encoding="utf-8" ?>
<svg baseProfile="full" height="256" version="1.1" width="256" xmlns="http://www.w3.org/2000/svg" xmlns:ev="http://www.w3.org/2001/xml-events" xmlns:xlink="http://www.w3.org/1999/xlink"><defs /><path d="M802 635Q802 721 819.5 806.0Q837 891 868 971Q974 1246 1179.5 1412.0Q1385 1578 1672 1635Q1695 1640 1718.0 1641.0Q1741 1642 1764 1642Q1890 1642 1992.5 1584.5Q2095 1527 2158 1417Q2195 1352 2232.5 1288.5Q2270 1225 2308 1161Q2314 1152 2328.5 1129.0Q2343 1106 2358.5 1080.5Q2374 1055 2386.0 1033.0Q2398 1011 2398 1004Q2398 993 2384.5 984.0Q2371 975 2350.5 968.0Q2330 961 2304.5 956.5Q2279 952 2255.5 949.0Q2232 946 2212.5 944.5Q2193 943 2184 943Q2130 943 2078.0 955.5Q2026 968 1977 988Q1922 1010 1876.0 1050.0Q1830 1090 1791.0 1139.5Q1752 1189 1720.0 1243.0Q1688 1297 1663 1348Q1651 1372 1640.5 1397.0Q1630 1422 1617 1445Q1610 1458 1602.5 1464.5Q1595 1471 1579 1471Q1568 1471 1545.5 1464.5Q1523 1458 1496.0 1447.0Q1469 1436 1441.0 1422.0Q1413 1408 1389.5 1393.0Q1366 1378 1351.0 1363.5Q1336 1349 1336 1337Q1336 1323 1342.5 1310.5Q1349 1298 1356 1287L1791 617L1772 518L1671 553L1246 1207Q1239 1218 1230.0 1227.5Q1221 1237 1207 1237Q1199 1237 1190.5 1232.0Q1182 1227 1174.5 1219.5Q1167 1212 1160.0 1204.0Q1153 1196 1149 1190Q952 948 936 639L867 553L802 635Z" style="fill:#86d72f;stroke:none" transform="scale(1,-1) translate(0,-256)" /></svg>