<?xml version="1.0" encoding="utf-8" ?>
<svg baseProfile="full" height="256" version="1.1" width="256" xmlns="http://www.w3.org/2000/svg" xmlns:ev="http://www.w3.org/2001/xml-events" xmlns:xlink="http://www.w3.org/1999/xlink"><defs /><path d="M1334 180Q1334 83 1297.5 -2.0Q1261 -87 1197.5 -150.5Q1134 -214 1049.0 -250.5Q964 -287 867 -287Q770 -287 685.0 -250.5Q600 -214 536.5 -150.5Q473 -87 436.5 -2.0Q400 83 400 180Q400 277 436.5 362.0Q473 447 536.5 510.5Q600 574 685.0 610.5Q770 647 867 647Q964 647 1049.0 610.5Q1134 574 1197.5 510.5Q1261 447 1297.5 362.0Q1334 277 1334 180ZM2414 180Q2414 83 2377.5 -2.0Q2341 -87 2277.5 -150.5Q2214 -214 2129.0 -250.5Q2044 -287 1947 -287Q1850 -287 1765.0 -250.5Q1680 -214 1616.5 -150.5Q1553 -87 1516.5 -2.0Q1480 83 1480 180Q1480 277 1516.5 362.0Q1553 447 1616.5 510.5Q1680 574 1765.0 610.5Q1850 647 1947 647Q2044 647 2129.0 610.5Q2214 574 2277.5 510.5Q2341 447 2377.5 362.0Q2414 277 2414 180Z" style="fill:#f8312f;stroke:none" transform="scale(1,-1) translate(0,-256)" /></svg>