<?xml version="1.0" encoding="utf-8" ?>
<svg baseProfile="full" height="256" version="1.1" width="256" xmlns="http://www.w3.org/2000/svg" xmlns:ev="http://www.w3.org/2001/xml-events" xmlns:xlink="http://www.w3.org/1999/xlink"><defs /><path d="M1892 1474Q1955 1474 2010.5 1450.0Q2066 1426 2107.5 1384.5Q2149 1343 2173.0 1287.5Q2197 1232 2197 1169Q2197 1140 2175.5 1118.5Q2154 1097 2125 1097Q2095 1097 2074.0 1118.0Q2053 1139 2053 1169Q2053 1202 2040.5 1231.5Q2028 1261 2006.0 1283.0Q1984 1305 1954.5 1317.5Q1925 1330 1892 1330Q1862 1330 1835.0 1320.0Q1808 1310 1787.0 1292.0Q1766 1274 1751.5 1249.0Q1737 1224 1733 1194L1560 96Q1555 67 1541.5 43.0Q1528 19 1507.5 1.5Q1487 -16 1461.0 -26.0Q1435 -36 1406 -36Q1377 -36 1351.0 -26.0Q1325 -16 1304.5 1.5Q1284 19 1270.0 43.0Q1256 67 1252 96L1079 1194Q1074 1224 1060.0 1249.0Q1046 1274 1025.0 1292.0Q1004 1310 977.0 1320.0Q950 1330 920 1330Q887 1330 857.5 1317.5Q828 1305 806.0 1283.0Q784 1261 771.5 1231.5Q759 1202 759 1169Q759 1139 738.0 1118.0Q717 1097 687 1097Q658 1097 636.5 1118.5Q615 1140 615 1169Q615 1232 639.0 1287.5Q663 1343 704.5 1384.5Q746 1426 801.5 1450.0Q857 1474 920 1474Q976 1474 1026.5 1454.5Q1077 1435 1117.5 1400.5Q1158 1366 1185.0 1319.0Q1212 1272 1221 1217L1394 118Q1396 108 1406 108Q1416 108 1418 118L1591 1216Q1600 1271 1627.0 1318.5Q1654 1366 1694.0 1400.5Q1734 1435 1785.0 1454.5Q1836 1474 1892 1474Z" style="fill:#ffffff;stroke:none" transform="scale(1,-1) translate(0,-256)" /></svg>