<?xml version="1.0" encoding="utf-8" ?>
<svg baseProfile="full" height="256" version="1.1" width="256" xmlns="http://www.w3.org/2000/svg" xmlns:ev="http://www.w3.org/2001/xml-events" xmlns:xlink="http://www.w3.org/1999/xlink"><defs /><path d="M1213 -288Q1181 -288 1158.5 -274.5Q1136 -261 1109 -245L865 -104Q844 -92 825.0 -80.5Q806 -69 791.0 -54.5Q776 -40 767.5 -21.0Q759 -2 759 26Q759 56 775 85L1319 1027Q1338 1059 1367.5 1081.5Q1397 1104 1432 1113L1592 1155L1729 1114L1835 1014L1878 855Q1881 843 1883.0 830.5Q1885 818 1885 806Q1885 758 1860 714L1316 -228Q1300 -256 1272.5 -272.0Q1245 -288 1213 -288Z" style="fill:#f3ad61;stroke:none" transform="scale(1,-1) translate(0,-256)" /></svg>