<?xml version="1.0" encoding="utf-8" ?>
<svg baseProfile="full" height="256" version="1.1" width="256" xmlns="http://www.w3.org/2000/svg" xmlns:ev="http://www.w3.org/2001/xml-events" xmlns:xlink="http://www.w3.org/1999/xlink"><defs /><path d="M2053 108Q2053 71 2039.0 38.0Q2025 5 2000.5 -19.5Q1976 -44 1943.0 -58.0Q1910 -72 1873 -72Q1836 -72 1803.0 -58.0Q1770 -44 1745.5 -19.5Q1721 5 1707.0 38.0Q1693 71 1693 108Q1693 145 1707.0 178.0Q1721 211 1745.5 235.5Q1770 260 1803.0 274.0Q1836 288 1873 288Q1910 288 1943.0 274.0Q1976 260 2000.5 235.5Q2025 211 2039.0 178.0Q2053 145 2053 108Z" style="fill:#f8312f;stroke:none" transform="scale(1,-1) translate(0,-256)" /></svg>