<?xml version="1.0" encoding="utf-8" ?>
<svg baseProfile="full" height="256" version="1.1" width="256" xmlns="http://www.w3.org/2000/svg" xmlns:ev="http://www.w3.org/2001/xml-events" xmlns:xlink="http://www.w3.org/1999/xlink"><defs /><path d="M399 206Q399 302 435.0 389.0Q471 476 539 544L707 712L1268 830L1413 1418L1581 1586Q1649 1654 1735.5 1689.5Q1822 1725 1918 1725Q1984 1725 2046.5 1707.0Q2109 1689 2164.0 1656.5Q2219 1624 2264.5 1578.5Q2310 1533 2343.0 1478.0Q2376 1423 2394.0 1360.5Q2412 1298 2412 1232Q2412 1135 2376.5 1049.0Q2341 963 2273 894L2106 726L1542 580L1400 21L1231 -148Q1163 -216 1076.5 -252.0Q990 -288 893 -288Q827 -288 764.5 -270.0Q702 -252 647.0 -219.0Q592 -186 546.5 -140.5Q501 -95 468.0 -40.0Q435 15 417.0 77.5Q399 140 399 206Z" style="fill:#00a6ed;stroke:none" transform="scale(1,-1) translate(0,-256)" /></svg>