<?xml version="1.0" encoding="utf-8" ?>
<svg baseProfile="full" height="256" version="1.1" width="256" xmlns="http://www.w3.org/2000/svg" xmlns:ev="http://www.w3.org/2001/xml-events" xmlns:xlink="http://www.w3.org/1999/xlink"><defs /><path d="M1873 1438Q1858 1438 1847.5 1448.5Q1837 1459 1837 1474Q1837 1488 1848.0 1499.0Q1859 1510 1873 1510Q1887 1510 1898.0 1499.0Q1909 1488 1909 1474Q1909 1459 1898.5 1448.5Q1888 1438 1873 1438ZM1729 1294Q1715 1294 1704.0 1305.0Q1693 1316 1693 1330Q1693 1344 1704.0 1355.0Q1715 1366 1729 1366Q1744 1366 1754.5 1355.5Q1765 1345 1765 1330Q1765 1315 1754.5 1304.5Q1744 1294 1729 1294ZM1873 1150Q1858 1150 1847.5 1160.5Q1837 1171 1837 1186Q1837 1201 1847.5 1211.5Q1858 1222 1873 1222Q1888 1222 1898.5 1211.5Q1909 1201 1909 1186Q1909 1171 1898.5 1160.5Q1888 1150 1873 1150ZM2053 1042Q2053 1028 2042.0 1017.0Q2031 1006 2017 1006Q2003 1006 1992.0 1017.0Q1981 1028 1981 1042Q1981 1057 1991.5 1067.5Q2002 1078 2017 1078Q2032 1078 2042.5 1067.5Q2053 1057 2053 1042ZM2053 1330Q2053 1315 2042.5 1304.5Q2032 1294 2017 1294Q2002 1294 1991.5 1304.5Q1981 1315 1981 1330Q1981 1345 1991.5 1355.5Q2002 1366 2017 1366Q2032 1366 2042.5 1355.5Q2053 1345 2053 1330ZM2161 1150Q2146 1150 2135.5 1160.5Q2125 1171 2125 1186Q2125 1201 2135.5 1211.5Q2146 1222 2161 1222Q2175 1222 2186.0 1211.0Q2197 1200 2197 1186Q2197 1172 2186.0 1161.0Q2175 1150 2161 1150ZM687 252Q687 237 676.5 226.5Q666 216 651 216Q636 216 625.5 226.5Q615 237 615 252Q615 267 625.5 277.5Q636 288 651 288Q666 288 676.5 277.5Q687 267 687 252ZM795 72Q780 72 769.5 82.5Q759 93 759 108Q759 123 769.5 133.5Q780 144 795 144Q810 144 820.5 133.5Q831 123 831 108Q831 93 820.5 82.5Q810 72 795 72ZM975 -36Q975 -51 964.5 -61.5Q954 -72 939 -72Q924 -72 913.5 -61.5Q903 -51 903 -36Q903 -21 913.5 -10.5Q924 0 939 0Q954 0 964.5 -10.5Q975 -21 975 -36ZM795 360Q780 360 769.5 370.5Q759 381 759 396Q759 410 770.0 420.5Q781 431 795 431Q809 431 820.0 420.5Q831 410 831 396Q831 381 820.5 370.5Q810 360 795 360ZM975 252Q975 237 964.5 226.5Q954 216 939 216Q924 216 913.5 226.5Q903 237 903 252Q903 267 913.5 277.5Q924 288 939 288Q954 288 964.5 277.5Q975 267 975 252ZM1083 72Q1068 72 1057.5 82.5Q1047 93 1047 108Q1047 123 1057.5 133.5Q1068 144 1083 144Q1097 144 1107.5 133.0Q1118 122 1118 108Q1118 94 1107.5 83.0Q1097 72 1083 72ZM1397 19 706 710 1416 1421 2107 729Z" style="fill:#26c9fc;stroke:none" transform="scale(1,-1) translate(0,-256)" /></svg>