<?xml version="1.0" encoding="utf-8" ?>
<svg baseProfile="full" height="256" version="1.1" width="256" xmlns="http://www.w3.org/2000/svg" xmlns:ev="http://www.w3.org/2001/xml-events" xmlns:xlink="http://www.w3.org/1999/xlink"><defs /><path d="M1497 1231Q1546 1316 1616.0 1385.0Q1686 1454 1779 1489Q1781 1490 1787.5 1492.0Q1794 1494 1802.0 1496.5Q1810 1499 1816.5 1501.0Q1823 1503 1825 1503H1846Q1780 1475 1725.5 1420.0Q1671 1365 1629.0 1297.5Q1587 1230 1558.0 1155.5Q1529 1081 1515 1014Q1515 1068 1515.0 1123.5Q1515 1179 1497 1231ZM411 804Q418 769 437.0 740.0Q456 711 482.5 690.5Q509 670 542.0 658.5Q575 647 610 647Q680 647 735 688Q712 724 699.5 768.0Q687 812 687 855V1164Q687 1191 692.0 1218.0Q697 1245 708 1269Q725 1260 740.0 1248.0Q755 1236 767 1222V1221Q767 1210 763.0 1194.5Q759 1179 759 1164V855Q759 826 766.0 798.5Q773 771 786 745V744Q796 727 812.0 710.0Q828 693 847.5 679.5Q867 666 888.5 657.5Q910 649 931 649Q953 649 972.0 650.0Q991 651 1008.0 655.0Q1025 659 1042.0 667.0Q1059 675 1077 690Q1058 725 1049.0 763.5Q1040 802 1040 841Q1040 931 1042.0 1019.0Q1044 1107 1044 1197Q1044 1229 1050.5 1262.0Q1057 1295 1077 1321Q1108 1296 1126 1262Q1119 1247 1117.5 1230.5Q1116 1214 1116 1197Q1116 1107 1114.0 1019.0Q1112 931 1112 841Q1112 821 1116.0 795.5Q1120 770 1128 752Q1139 729 1158.5 710.0Q1178 691 1202.0 677.5Q1226 664 1252.5 657.0Q1279 650 1304 650Q1339 650 1371.5 661.5Q1404 673 1430.5 694.0Q1457 715 1475.5 743.5Q1494 772 1502 807H1505Q1505 757 1500.0 703.0Q1495 649 1474 603Q1484 600 1501.0 594.0Q1518 588 1534.0 580.0Q1550 572 1561.5 561.5Q1573 551 1573 538Q1573 524 1565.0 515.5Q1557 507 1544 502Q1530 497 1513.5 494.0Q1497 491 1482 486Q1442 474 1403.0 459.0Q1364 444 1326 427Q1233 384 1149.5 325.5Q1066 267 998 191Q983 174 969.5 156.0Q956 138 942 121Q929 106 913 106Q898 106 887.0 116.5Q876 127 876 142Q876 152 883 163Q921 219 970.5 268.5Q1020 318 1076.5 361.0Q1133 404 1194.0 439.5Q1255 475 1316 502Q1311 501 1307.5 501.0Q1304 501 1299 501Q1276 501 1250.5 505.0Q1225 509 1201.5 518.5Q1178 528 1158.0 543.0Q1138 558 1126 580H1114Q1103 562 1085.5 547.0Q1068 532 1047.0 522.0Q1026 512 1003.0 506.5Q980 501 960 501Q937 501 912.0 507.0Q887 513 863.5 525.0Q840 537 821.5 554.0Q803 571 793 593Q762 549 720.0 525.0Q678 501 624 501Q569 501 529.5 531.0Q490 561 464.5 606.5Q439 652 426.0 705.0Q413 758 411 804Z" style="fill:#d67d00;stroke:none" transform="scale(1,-1) translate(0,-256)" /></svg>