<?xml version="1.0" encoding="utf-8" ?>
<svg baseProfile="full" height="256" version="1.1" width="256" xmlns="http://www.w3.org/2000/svg" xmlns:ev="http://www.w3.org/2001/xml-events" xmlns:xlink="http://www.w3.org/1999/xlink"><defs /><path d="M1988 1220Q1969 1205 1959.0 1184.0Q1949 1163 1945.0 1139.0Q1941 1115 1941.0 1090.5Q1941 1066 1941 1044V679Q1941 665 1930.0 654.0Q1919 643 1905 643Q1890 643 1879.5 653.5Q1869 664 1869 679V1066Q1869 1093 1876.0 1120.0Q1883 1147 1898.0 1169.0Q1913 1191 1935.5 1205.0Q1958 1219 1988 1220ZM687 1025Q687 1052 688.5 1079.5Q690 1107 697 1133L700 1129Q726 1098 744.0 1070.5Q762 1043 770 1002Q777 967 779.0 929.0Q781 891 784 856Q788 805 793.0 754.5Q798 704 798 653Q798 639 789.5 627.0Q781 615 765 615Q731 615 727 648Q724 668 722.5 700.0Q721 732 718.5 769.5Q716 807 713.5 846.0Q711 885 707.5 920.5Q704 956 699.0 983.5Q694 1011 687 1025ZM466 656H474Q474 674 473.0 692.0Q472 710 470 728Q522 723 556.0 702.0Q590 681 612.5 648.0Q635 615 649.0 573.5Q663 532 674 488Q681 463 686.0 438.5Q691 414 696 388Q698 387 697.5 384.5Q697 382 697 381Q697 367 687.0 355.5Q677 344 662 344Q649 344 638.5 352.0Q628 360 626 373Q622 398 615.0 430.5Q608 463 598.5 496.5Q589 530 577.0 560.5Q565 591 552 611Q539 630 513.5 642.0Q488 654 466 656ZM1059 1105Q1038 1091 1027.5 1061.5Q1017 1032 1013.5 998.5Q1010 965 1010.5 931.5Q1011 898 1011 876Q1011 830 1012.0 783.5Q1013 737 1012 691Q1012 676 1002.5 665.5Q993 655 977 655Q962 655 952.0 665.0Q942 675 940 690Q936 732 937.5 782.5Q939 833 939 876Q939 918 938.5 963.5Q938 1009 949 1049Q953 1063 966.0 1073.5Q979 1084 995.5 1091.0Q1012 1098 1029.0 1101.5Q1046 1105 1058 1105ZM1183 911V910Q1202 933 1231.5 942.0Q1261 951 1289 951Q1260 920 1247.0 878.5Q1234 837 1230.0 792.0Q1226 747 1227.5 702.5Q1229 658 1229 622Q1229 607 1218.5 596.5Q1208 586 1193 586Q1178 586 1167.5 596.5Q1157 607 1157 622V781Q1157 815 1164.0 847.5Q1171 880 1183 911ZM1870 -291Q1765 -286 1689.5 -251.5Q1614 -217 1562.0 -159.0Q1510 -101 1479.0 -21.5Q1448 58 1431 154Q1410 268 1410 387V798Q1410 828 1417.0 855.5Q1424 883 1439.0 904.0Q1454 925 1478.0 938.0Q1502 951 1535 951Q1548 951 1562 948Q1541 943 1525.5 926.0Q1510 909 1500.5 887.0Q1491 865 1486.5 841.0Q1482 817 1482 798V387Q1482 320 1489.5 248.0Q1497 176 1514.5 105.5Q1532 35 1560.5 -30.0Q1589 -95 1632.5 -147.5Q1676 -200 1734.5 -238.0Q1793 -276 1870 -291ZM1759 1105Q1733 1076 1719.0 1036.0Q1705 996 1705 958V622Q1705 608 1694.0 597.0Q1683 586 1669 586Q1655 586 1644.0 597.0Q1633 608 1633 622V910Q1633 944 1636.0 979.0Q1639 1014 1652.0 1042.0Q1665 1070 1690.0 1087.5Q1715 1105 1759 1105ZM2129 1025Q2144 1060 2175.0 1075.0Q2206 1090 2241 1090H2253L2255 1089Q2236 1079 2223.5 1066.0Q2211 1053 2202 1034Q2186 1002 2178.5 951.0Q2171 900 2167.5 843.5Q2164 787 2161.5 732.5Q2159 678 2153 639Q2151 627 2142.0 617.0Q2133 607 2120 607Q2101 607 2091.0 617.5Q2081 628 2081 646Q2081 672 2084.5 705.5Q2088 739 2090 765Q2093 799 2095.0 835.5Q2097 872 2100.0 908.0Q2103 944 2109.5 979.0Q2116 1014 2129 1047ZM2356 656Q2490 656 2490 522V510L2486 515Q2476 529 2465.5 542.0Q2455 555 2442.5 565.5Q2430 576 2415.0 582.5Q2400 589 2381 589Q2355 589 2330.5 574.5Q2306 560 2298 534Q2284 489 2275.5 443.5Q2267 398 2259 352Q2257 338 2247.5 330.0Q2238 322 2224 322Q2209 322 2198.5 332.0Q2188 342 2188 357Q2188 374 2192.0 391.5Q2196 409 2199 425Q2206 457 2212.5 489.5Q2219 522 2229 554Q2235 572 2246.5 589.0Q2258 606 2273.0 620.0Q2288 634 2306.0 643.5Q2324 653 2343 656Q2346 657 2349.5 656.5Q2353 656 2356 656Z" style="fill:#d67d00;stroke:none" transform="scale(1,-1) translate(0,-256)" /></svg>