<?xml version="1.0" encoding="utf-8" ?>
<svg baseProfile="full" height="256" version="1.1" width="256" xmlns="http://www.w3.org/2000/svg" xmlns:ev="http://www.w3.org/2001/xml-events" xmlns:xlink="http://www.w3.org/1999/xlink"><defs /><path d="M451 921Q451 953 456.5 983.5Q462 1014 476.0 1037.5Q490 1061 514.0 1075.5Q538 1090 576 1090Q610 1090 641.5 1074.5Q673 1059 687 1025Q687 1064 690.5 1099.5Q694 1135 708.0 1161.5Q722 1188 749.5 1204.0Q777 1220 825 1220Q860 1220 883.5 1204.0Q907 1188 921.5 1163.0Q936 1138 942.0 1107.0Q948 1076 948 1047Q954 1062 966.5 1073.0Q979 1084 994.5 1091.0Q1010 1098 1026.5 1101.5Q1043 1105 1058 1105Q1102 1105 1127.0 1087.5Q1152 1070 1164.5 1042.0Q1177 1014 1180.0 979.0Q1183 944 1183 910Q1200 930 1228.5 940.5Q1257 951 1282 951Q1308 951 1330.0 941.5Q1352 932 1368.0 915.5Q1384 899 1393.5 876.5Q1403 854 1405 829Q1404 829 1404.0 830.5Q1404 832 1405 832Q1405 831 1405 831V824L1406 810L1407 719H1409L1410 810L1411 824V831Q1410 832 1411 832Q1412 832 1412.0 830.5Q1412 829 1411 829Q1416 880 1449.0 915.5Q1482 951 1535 951Q1560 951 1588.5 940.5Q1617 930 1633 910Q1633 944 1636.0 979.0Q1639 1014 1652.0 1042.0Q1665 1070 1690.0 1087.5Q1715 1105 1759 1105Q1774 1105 1790.5 1101.5Q1807 1098 1822.0 1091.0Q1837 1084 1849.5 1073.0Q1862 1062 1868 1047Q1868 1077 1874.0 1107.5Q1880 1138 1894.5 1163.0Q1909 1188 1932.5 1204.0Q1956 1220 1992 1220Q2040 1220 2067.0 1204.0Q2094 1188 2108.0 1161.5Q2122 1135 2125.5 1099.5Q2129 1064 2129 1025Q2143 1059 2174.5 1074.5Q2206 1090 2241 1090Q2279 1090 2303.0 1075.5Q2327 1061 2341.0 1037.0Q2355 1013 2360.5 982.5Q2366 952 2366 920Q2366 887 2362.5 854.0Q2359 821 2354.5 788.0Q2350 755 2346.5 722.0Q2343 689 2343 656H2357Q2490 656 2490 522Q2490 478 2480.5 436.5Q2471 395 2460 353Q2441 278 2419.0 201.0Q2397 124 2366.5 52.5Q2336 -19 2295.0 -82.0Q2254 -145 2198.5 -191.5Q2143 -238 2071.0 -265.0Q1999 -292 1905 -292Q1797 -292 1719.0 -263.0Q1641 -234 1586.0 -182.5Q1531 -131 1496.5 -61.5Q1462 8 1443.0 88.0Q1424 168 1416.5 256.0Q1409 344 1408 431Q1407 344 1399.5 256.5Q1392 169 1373.0 88.5Q1354 8 1320.0 -61.5Q1286 -131 1231.0 -182.0Q1176 -233 1097.5 -262.5Q1019 -292 912 -292Q818 -292 745.5 -265.0Q673 -238 617.5 -191.5Q562 -145 521.5 -82.0Q481 -19 450.5 52.5Q420 124 397.5 201.0Q375 278 356 353Q345 395 335.5 437.0Q326 479 326 523Q326 598 364.0 628.5Q402 659 474 656Q474 689 470.5 722.0Q467 755 462.5 788.0Q458 821 454.5 854.5Q451 888 451 921Z" style="fill:#ffc83d;stroke:none" transform="scale(1,-1) translate(0,-256)" /></svg>