<?xml version="1.0" encoding="utf-8" ?>
<svg baseProfile="full" height="256" version="1.1" width="256" xmlns="http://www.w3.org/2000/svg" xmlns:ev="http://www.w3.org/2001/xml-events" xmlns:xlink="http://www.w3.org/1999/xlink"><defs /><path d="M961 120Q1052 188 1120.0 274.5Q1188 361 1231.0 458.5Q1274 556 1292.5 661.0Q1311 766 1303 872Q1295 975 1338.0 1067.0Q1381 1159 1463 1221Q1527 1269 1598.5 1288.0Q1670 1307 1740.0 1301.0Q1810 1295 1874.0 1265.0Q1938 1235 1988.0 1186.0Q2038 1137 2070.0 1070.5Q2102 1004 2107 924Q2116 785 2091.0 647.0Q2066 509 2009.0 381.5Q1952 254 1863.0 141.5Q1774 29 1654 -61Q1538 -148 1409.0 -201.5Q1280 -255 1146.0 -275.5Q1012 -296 877.0 -285.0Q742 -274 614 -232Q576 -220 559.0 -190.5Q542 -161 543.5 -128.5Q545 -96 565.5 -69.0Q586 -42 625 -34Q715 -14 799.0 23.5Q883 61 961 120Z" style="fill:#f8312f;stroke:none" transform="scale(1,-1) translate(0,-256)" /></svg>