<?xml version="1.0" encoding="utf-8" ?>
<svg baseProfile="full" height="256" version="1.1" width="256" xmlns="http://www.w3.org/2000/svg" xmlns:ev="http://www.w3.org/2001/xml-events" xmlns:xlink="http://www.w3.org/1999/xlink"><defs /><path d="M1944 981Q1944 947 1920.0 923.0Q1896 899 1862 899Q1828 899 1804.0 923.0Q1780 947 1780 981Q1780 1015 1804.0 1039.0Q1828 1063 1862 1063Q1897 1063 1920.5 1039.5Q1944 1016 1944 981ZM1597 392Q1631 392 1655.0 416.0Q1679 440 1679 474Q1679 508 1655.0 532.0Q1631 556 1597 556Q1563 556 1539.0 532.0Q1515 508 1515 474Q1515 440 1539.0 416.0Q1563 392 1597 392ZM1108 104Q1142 104 1166.0 128.0Q1190 152 1190 186Q1190 220 1166.0 244.0Q1142 268 1108 268Q1073 268 1049.5 244.5Q1026 221 1026 186Q1026 152 1050.0 128.0Q1074 104 1108 104Z" style="fill:#86d72f;stroke:none" transform="scale(1,-1) translate(0,-256)" /></svg>