<?xml version="1.0" encoding="utf-8" ?>
<svg baseProfile="full" height="256" version="1.1" width="256" xmlns="http://www.w3.org/2000/svg" xmlns:ev="http://www.w3.org/2001/xml-events" xmlns:xlink="http://www.w3.org/1999/xlink"><defs /><path d="M2383 891Q2383 871 2375.5 853.5Q2368 836 2355.5 822.5Q2343 809 2325.5 800.5Q2308 792 2288 791Q2235 640 2153.0 504.5Q2071 369 1963 251Q1969 234 1969 216Q1969 195 1961.0 176.5Q1953 158 1939.5 144.0Q1926 130 1907.5 122.0Q1889 114 1868 114Q1848 114 1829 122Q1703 14 1557.5 -64.5Q1412 -143 1253 -189Q1252 -209 1244.0 -227.0Q1236 -245 1222.0 -258.5Q1208 -272 1190.0 -279.5Q1172 -287 1152 -287Q1124 -287 1100.5 -272.0Q1077 -257 1063 -233Q944 -251 824 -251Q736 -251 658.5 -218.0Q581 -185 523.5 -127.5Q466 -70 433.0 7.5Q400 85 400 173Q400 261 433.5 338.0Q467 415 524.5 472.5Q582 530 659.0 563.5Q736 597 824 597Q863 597 901.5 601.5Q940 606 978 614Q977 617 977 623Q977 644 985.0 662.5Q993 681 1006.5 695.0Q1020 709 1038.5 717.0Q1057 725 1078 725Q1102 725 1124.0 714.0Q1146 703 1160 683Q1248 731 1318.5 800.5Q1389 870 1438 958Q1410 986 1410 1027Q1410 1047 1417.5 1065.0Q1425 1083 1437.5 1096.5Q1450 1110 1467.5 1118.5Q1485 1127 1505 1128Q1516 1170 1521.5 1213.5Q1527 1257 1527 1301Q1527 1389 1560.5 1466.0Q1594 1543 1651.5 1600.5Q1709 1658 1786.0 1691.5Q1863 1725 1951 1725Q2039 1725 2116.0 1691.5Q2193 1658 2250.5 1600.5Q2308 1543 2341.5 1466.0Q2375 1389 2375 1301Q2375 1137 2340 974Q2360 960 2371.5 938.0Q2383 916 2383 891Z" style="fill:#44911b;stroke:none" transform="scale(1,-1) translate(0,-256)" /></svg>