<?xml version="1.0" encoding="utf-8" ?>
<svg baseProfile="full" height="256" version="1.1" width="256" xmlns="http://www.w3.org/2000/svg" xmlns:ev="http://www.w3.org/2001/xml-events" xmlns:xlink="http://www.w3.org/1999/xlink"><defs /><path d="M1406 1494Q1429 1530 1460.0 1566.0Q1491 1602 1527.5 1632.5Q1564 1663 1605.0 1685.0Q1646 1707 1689 1716Q1713 1721 1738.5 1723.0Q1764 1725 1788 1725Q1882 1725 1957.5 1690.5Q2033 1656 2086.5 1596.0Q2140 1536 2168.5 1456.5Q2197 1377 2197 1287Q2197 1192 2159.5 1094.5Q2122 997 2059.5 901.5Q1997 806 1915.5 716.0Q1834 626 1746.0 546.5Q1658 467 1570.0 401.0Q1482 335 1406 288Q1330 335 1242.5 401.0Q1155 467 1067.0 546.0Q979 625 897.5 715.0Q816 805 753.0 900.0Q690 995 652.5 1093.0Q615 1191 615 1285Q615 1375 643.5 1455.0Q672 1535 725.0 1595.0Q778 1655 853.5 1690.0Q929 1725 1024 1725Q1048 1725 1073.5 1723.0Q1099 1721 1123 1716Q1166 1707 1207.0 1685.0Q1248 1663 1284.5 1632.5Q1321 1602 1352.0 1566.0Q1383 1530 1406 1494ZM1622 -72Q1622 -117 1605.0 -156.0Q1588 -195 1558.5 -224.0Q1529 -253 1490.0 -270.0Q1451 -287 1406 -287Q1361 -287 1322.0 -270.0Q1283 -253 1253.5 -224.0Q1224 -195 1207.0 -156.0Q1190 -117 1190 -72Q1190 -27 1207.0 12.0Q1224 51 1253.5 80.5Q1283 110 1322.0 127.0Q1361 144 1406 144Q1451 144 1490.0 127.0Q1529 110 1558.5 80.5Q1588 51 1605.0 12.0Q1622 -27 1622 -72Z" style="fill:#f92f60;stroke:none" transform="scale(1,-1) translate(0,-256)" /></svg>