<?xml version="1.0" encoding="utf-8" ?>
<svg baseProfile="full" height="256" version="1.1" width="256" xmlns="http://www.w3.org/2000/svg" xmlns:ev="http://www.w3.org/2001/xml-events" xmlns:xlink="http://www.w3.org/1999/xlink"><defs /><path d="M1000 894Q1031 894 1059.5 883.5Q1088 873 1110.5 854.5Q1133 836 1148.5 810.5Q1164 785 1170 755V750Q1170 738 1162.0 729.5Q1154 721 1142 721H865Q851 721 841.0 731.5Q831 742 831 756Q831 761 832 764Q839 792 855.0 816.0Q871 840 893.5 857.5Q916 875 943.5 884.5Q971 894 1000 894ZM1638 894Q1607 894 1579.0 883.5Q1551 873 1528.5 854.5Q1506 836 1490.0 810.5Q1474 785 1468 755V750Q1468 738 1476.5 729.5Q1485 721 1497 721H1773Q1787 721 1797.0 731.5Q1807 742 1807 756Q1807 761 1806 764Q1799 792 1783.0 816.0Q1767 840 1744.5 857.5Q1722 875 1694.5 884.5Q1667 894 1638 894Z" style="fill:#ffffff;stroke:none" transform="scale(1,-1) translate(0,-256)" /></svg>