<?xml version="1.0" encoding="utf-8" ?>
<svg baseProfile="full" height="256" version="1.1" width="256" xmlns="http://www.w3.org/2000/svg" xmlns:ev="http://www.w3.org/2001/xml-events" xmlns:xlink="http://www.w3.org/1999/xlink"><defs /><path d="M1764 386Q1793 386 1815.0 366.5Q1837 347 1837 317Q1837 292 1820.5 273.0Q1804 254 1780.5 241.5Q1757 229 1730.5 222.5Q1704 216 1683 216Q1635 216 1603.0 233.5Q1571 251 1546.5 272.0Q1522 293 1499.5 310.5Q1477 328 1449 328H1218Q1190 328 1168.0 310.5Q1146 293 1121.5 272.0Q1097 251 1065.0 233.5Q1033 216 985 216Q964 216 937.5 222.5Q911 229 887.5 241.5Q864 254 847.5 273.0Q831 292 831 317Q831 347 853.0 366.5Q875 386 904 386Q920 386 930.5 381.0Q941 376 949.5 370.5Q958 365 965.5 360.0Q973 355 984 355Q1000 355 1020.0 372.5Q1040 390 1067.0 411.0Q1094 432 1131.0 449.5Q1168 467 1219 467H1449Q1500 467 1537.5 449.5Q1575 432 1602.0 411.0Q1629 390 1648.5 372.5Q1668 355 1684 355Q1695 355 1702.5 360.0Q1710 365 1718.5 370.5Q1727 376 1737.0 381.0Q1747 386 1764 386Z" style="fill:#e6e6e6;stroke:none" transform="scale(1,-1) translate(0,-256)" /></svg>