<?xml version="1.0" encoding="utf-8" ?>
<svg baseProfile="full" height="256" version="1.1" width="256" xmlns="http://www.w3.org/2000/svg" xmlns:ev="http://www.w3.org/2001/xml-events" xmlns:xlink="http://www.w3.org/1999/xlink"><defs /><path d="M1226 533Q1226 541 1230.0 558.0Q1234 575 1240.0 596.5Q1246 618 1253.5 642.0Q1261 666 1268.0 688.5Q1275 711 1281.0 729.0Q1287 747 1290 757Q1295 772 1306.5 781.5Q1318 791 1334 791Q1350 791 1361.5 781.5Q1373 772 1378 757Q1381 747 1387.0 729.0Q1393 711 1400.0 688.5Q1407 666 1414.5 642.0Q1422 618 1428.0 596.5Q1434 575 1438.0 558.0Q1442 541 1442 533Q1442 507 1424.0 487.0Q1406 467 1379 467H1289Q1262 467 1244.0 487.0Q1226 507 1226 533Z" style="fill:#ed9200;stroke:none" transform="scale(1,-1) translate(0,-256)" /></svg>