<?xml version="1.0" encoding="utf-8" ?>
<svg baseProfile="full" height="256" version="1.1" width="256" xmlns="http://www.w3.org/2000/svg" xmlns:ev="http://www.w3.org/2001/xml-events" xmlns:xlink="http://www.w3.org/1999/xlink"><defs /><path d="M1780 1725Q1884 1725 1975.5 1685.5Q2067 1646 2135.5 1577.5Q2204 1509 2243.5 1417.5Q2283 1326 2283 1222V216H2139L2031 543Q2084 569 2115.0 617.5Q2146 666 2146 725Q2146 767 2130.0 804.0Q2114 841 2086.5 868.5Q2059 896 2022.0 912.0Q1985 928 1943 928Q1924 928 1906 925V1222H687Q687 1326 726.5 1417.5Q766 1509 834.0 1577.5Q902 1646 994.0 1685.5Q1086 1725 1190 1725H1780Z" style="fill:#f8312f;stroke:none" transform="scale(1,-1) translate(0,-256)" /></svg>