<?xml version="1.0" encoding="utf-8" ?>
<svg baseProfile="full" height="256" version="1.1" width="256" xmlns="http://www.w3.org/2000/svg" xmlns:ev="http://www.w3.org/2001/xml-events" xmlns:xlink="http://www.w3.org/1999/xlink"><defs /><path d="M1844 1478Q1876 1478 1905.0 1465.5Q1934 1453 1956.5 1431.5Q1979 1410 1992.0 1381.5Q2005 1353 2005 1320Q2005 1287 1992.5 1258.0Q1980 1229 1959.0 1207.5Q1938 1186 1909.0 1173.0Q1880 1160 1847 1160Q1825 1160 1807.5 1165.5Q1790 1171 1776.5 1177.5Q1763 1184 1752.0 1189.5Q1741 1195 1731 1195Q1721 1195 1710.0 1189.5Q1699 1184 1685.5 1177.5Q1672 1171 1655.0 1165.5Q1638 1160 1616 1160Q1594 1160 1577.0 1165.5Q1560 1171 1546.0 1177.5Q1532 1184 1521.0 1189.5Q1510 1195 1500 1195Q1491 1195 1480.0 1189.5Q1469 1184 1455.0 1177.5Q1441 1171 1423.5 1165.5Q1406 1160 1385 1160Q1363 1160 1346.0 1165.5Q1329 1171 1315.5 1177.5Q1302 1184 1291.0 1189.5Q1280 1195 1270 1195Q1260 1195 1249.0 1189.5Q1238 1184 1224.0 1177.5Q1210 1171 1193.0 1165.5Q1176 1160 1154 1160Q1132 1160 1115.0 1165.5Q1098 1171 1085.0 1177.5Q1072 1184 1061.0 1189.5Q1050 1195 1040 1195Q1030 1195 1019.0 1189.5Q1008 1184 994.0 1177.5Q980 1171 963.0 1165.5Q946 1160 924 1160Q902 1160 885.0 1165.5Q868 1171 855.0 1177.5Q842 1184 831.0 1189.5Q820 1195 810 1195Q800 1195 789.0 1189.5Q778 1184 764.0 1177.5Q750 1171 733.0 1165.5Q716 1160 694 1160Q661 1160 632.0 1172.5Q603 1185 582.0 1206.5Q561 1228 548.5 1257.0Q536 1286 536 1319Q536 1352 548.5 1381.0Q561 1410 582.5 1431.5Q604 1453 633.0 1465.5Q662 1478 695 1478Q716 1478 733.0 1472.5Q750 1467 763.5 1461.0Q777 1455 787.5 1449.5Q798 1444 808 1444Q818 1444 829.5 1449.5Q841 1455 854.5 1461.5Q868 1468 885.0 1473.5Q902 1479 924 1479Q946 1479 963.0 1473.5Q980 1468 993.5 1461.5Q1007 1455 1018.0 1449.5Q1029 1444 1039 1444Q1049 1444 1060.0 1449.5Q1071 1455 1084.5 1461.5Q1098 1468 1115.0 1473.5Q1132 1479 1154 1479Q1176 1479 1193.0 1473.5Q1210 1468 1223.0 1461.0Q1236 1454 1246.5 1448.5Q1257 1443 1268 1443Q1278 1443 1289.5 1448.5Q1301 1454 1314.5 1460.5Q1328 1467 1345.0 1472.5Q1362 1478 1383 1478Q1405 1478 1422.0 1472.5Q1439 1467 1452.5 1460.5Q1466 1454 1476.5 1448.5Q1487 1443 1498 1443Q1508 1443 1519.5 1448.5Q1531 1454 1545.0 1460.5Q1559 1467 1576.0 1472.5Q1593 1478 1614 1478Q1636 1478 1653.0 1472.5Q1670 1467 1683.5 1461.0Q1697 1455 1707.5 1449.5Q1718 1444 1729 1444Q1739 1444 1750.0 1449.5Q1761 1455 1774.5 1461.0Q1788 1467 1805.0 1472.5Q1822 1478 1844 1478ZM2342 106Q2342 76 2330.5 49.5Q2319 23 2299.5 3.0Q2280 -17 2253.5 -28.5Q2227 -40 2197 -40Q2167 -40 2140.0 -28.5Q2113 -17 2093.5 2.5Q2074 22 2062.5 49.0Q2051 76 2051 106Q2051 136 2062.5 162.5Q2074 189 2094.0 209.0Q2114 229 2140.5 240.5Q2167 252 2197 252Q2227 252 2253.5 240.5Q2280 229 2299.5 209.0Q2319 189 2330.5 162.5Q2342 136 2342 106Z" style="fill:#e6e6e6;stroke:none" transform="scale(1,-1) translate(0,-256)" /></svg>