<?xml version="1.0" encoding="utf-8" ?>
<svg baseProfile="full" height="256" version="1.1" width="256" xmlns="http://www.w3.org/2000/svg" xmlns:ev="http://www.w3.org/2001/xml-events" xmlns:xlink="http://www.w3.org/1999/xlink"><defs /><path d="M1026 814Q1052 814 1070.5 795.5Q1089 777 1089 751Q1089 735 1081 721H970Q963 737 963 751Q963 777 981.5 795.5Q1000 814 1026 814ZM1612 814Q1586 814 1567.5 795.5Q1549 777 1549 751Q1549 737 1556 721H1668Q1675 734 1675 751Q1675 777 1656.5 795.5Q1638 814 1612 814Z" style="fill:#000000;stroke:none" transform="scale(1,-1) translate(0,-256)" /></svg>