<?xml version="1.0" encoding="utf-8" ?>
<svg baseProfile="full" height="256" version="1.1" width="256" xmlns="http://www.w3.org/2000/svg" xmlns:ev="http://www.w3.org/2001/xml-events" xmlns:xlink="http://www.w3.org/1999/xlink"><defs /><path d="M1007 794Q1007 786 1001.5 780.0Q996 774 988 774Q980 774 974.0 780.0Q968 786 968 794Q968 802 974.0 807.5Q980 813 988 813Q996 813 1001.5 807.5Q1007 802 1007 794ZM1597 794Q1597 786 1591.5 780.0Q1586 774 1578 774Q1570 774 1564.0 780.0Q1558 786 1558 794Q1558 802 1564.0 807.5Q1570 813 1578 813Q1586 813 1591.5 807.5Q1597 802 1597 794Z" style="fill:#ffffff;stroke:none" transform="scale(1,-1) translate(0,-256)" /></svg>