<?xml version="1.0" encoding="utf-8" ?>
<svg baseProfile="full" height="256" version="1.1" width="256" xmlns="http://www.w3.org/2000/svg" xmlns:ev="http://www.w3.org/2001/xml-events" xmlns:xlink="http://www.w3.org/1999/xlink"><defs /><path d="M903 719Q903 674 886.0 635.0Q869 596 839.5 566.5Q810 537 771.0 520.0Q732 503 687 503Q642 503 603.0 520.0Q564 537 535.0 566.5Q506 596 489.0 635.0Q472 674 472 719Q472 764 489.0 803.0Q506 842 535.0 871.5Q564 901 603.0 918.0Q642 935 687 935Q732 935 771.0 918.0Q810 901 839.5 871.5Q869 842 886.0 803.0Q903 764 903 719ZM2197 719Q2197 674 2180.0 635.0Q2163 596 2133.5 566.5Q2104 537 2065.0 520.0Q2026 503 1981 503Q1936 503 1897.0 520.0Q1858 537 1828.5 566.5Q1799 596 1782.0 635.0Q1765 674 1765 719Q1765 764 1782.0 803.0Q1799 842 1828.5 871.5Q1858 901 1897.0 918.0Q1936 935 1981 935Q2026 935 2065.0 918.0Q2104 901 2133.5 871.5Q2163 842 2180.0 803.0Q2197 764 2197 719Z" style="fill:#fdbb11;stroke:none" transform="scale(1,-1) translate(0,-256)" /></svg>