<?xml version="1.0" encoding="utf-8" ?>
<svg baseProfile="full" height="256" version="1.1" width="256" xmlns="http://www.w3.org/2000/svg" xmlns:ev="http://www.w3.org/2001/xml-events" xmlns:xlink="http://www.w3.org/1999/xlink"><defs /><path d="M687 979Q687 1073 714.0 1161.5Q741 1250 795 1327L1859 1344Q1919 1265 1950.0 1172.0Q1981 1079 1981 980Q1981 969 1980.5 957.5Q1980 946 1979 935Q1967 758 1955.0 584.5Q1943 411 1931 234Q1925 155 1892.0 86.0Q1859 17 1805.0 -34.0Q1751 -85 1680.5 -114.5Q1610 -144 1531 -144H1132Q1053 -144 982.5 -114.5Q912 -85 858.0 -33.5Q804 18 770.5 87.0Q737 156 732 234Q721 411 710.5 584.5Q700 758 689 935Q688 946 687.5 957.0Q687 968 687 979Z" style="fill:#ffc83d;stroke:none" transform="scale(1,-1) translate(0,-256)" /></svg>