<?xml version="1.0" encoding="utf-8" ?>
<svg baseProfile="full" height="256" version="1.1" width="256" xmlns="http://www.w3.org/2000/svg" xmlns:ev="http://www.w3.org/2001/xml-events" xmlns:xlink="http://www.w3.org/1999/xlink"><defs /><path d="M1154 672Q1165 672 1173.0 664.5Q1181 657 1181 646Q1181 634 1174 627Q1173 628 1172.5 627.5Q1172 627 1173 626Q1164 621 1153.5 611.5Q1143 602 1132 596Q1106 582 1077.5 573.5Q1049 565 1019 565Q1008 565 1000.0 573.0Q992 581 992 592Q992 603 1000.0 611.0Q1008 619 1019 619Q1048 619 1070.0 627.5Q1092 636 1108.5 645.5Q1125 655 1136.0 663.5Q1147 672 1154 672ZM1501 646Q1501 657 1509.0 664.5Q1517 672 1528 672Q1535 672 1546.5 663.5Q1558 655 1574.5 645.5Q1591 636 1613.0 627.5Q1635 619 1663 619Q1674 619 1682.0 611.0Q1690 603 1690 592Q1690 581 1682.0 573.0Q1674 565 1663 565Q1605 565 1551 596Q1545 599 1536.0 604.5Q1527 610 1519.5 616.5Q1512 623 1506.5 630.5Q1501 638 1501 646Z" style="fill:#d67d00;stroke:none" transform="scale(1,-1) translate(0,-256)" /></svg>