<?xml version="1.0" encoding="utf-8" ?>
<svg baseProfile="full" height="256" version="1.1" width="256" xmlns="http://www.w3.org/2000/svg" xmlns:ev="http://www.w3.org/2001/xml-events" xmlns:xlink="http://www.w3.org/1999/xlink"><defs /><path d="M899 942Q870 942 850.5 961.5Q831 981 831 1010Q831 1043 859.5 1065.5Q888 1088 927.0 1102.0Q966 1116 1005.5 1122.5Q1045 1129 1068 1129Q1086 1129 1104.5 1127.0Q1123 1125 1138.5 1117.5Q1154 1110 1163.5 1096.0Q1173 1082 1173 1058Q1173 1030 1152.5 1010.5Q1132 991 1104 991Q1094 991 1085.0 992.0Q1076 993 1065 993Q1032 993 1000.0 984.0Q968 975 940 956V955Q923 942 899 942ZM1750 941Q1736 941 1721.0 949.0Q1706 957 1686.0 967.0Q1666 977 1640.5 985.0Q1615 993 1581 993Q1571 993 1562.0 991.5Q1553 990 1543 990Q1514 990 1495.0 1010.5Q1476 1031 1476 1059Q1476 1082 1485.5 1095.5Q1495 1109 1510.5 1116.5Q1526 1124 1544.5 1126.5Q1563 1129 1581 1129Q1603 1129 1643.0 1122.5Q1683 1116 1722.0 1101.5Q1761 1087 1789.5 1064.5Q1818 1042 1818 1009Q1818 980 1798.5 960.5Q1779 941 1750 941Z" style="fill:#e6e6e6;stroke:none" transform="scale(1,-1) translate(0,-256)" /></svg>