<?xml version="1.0" encoding="utf-8" ?>
<svg baseProfile="full" height="256" version="1.1" width="256" xmlns="http://www.w3.org/2000/svg" xmlns:ev="http://www.w3.org/2001/xml-events" xmlns:xlink="http://www.w3.org/1999/xlink"><defs /><path d="M1988 406Q1988 369 1992.5 330.5Q1997 292 2002.5 254.0Q2008 216 2012.5 178.0Q2017 140 2017 105Q2017 36 1995.5 -27.0Q1974 -90 1935.5 -142.0Q1897 -194 1843.5 -233.0Q1790 -272 1725 -294Q1632 -325 1532.0 -342.0Q1432 -359 1334 -359Q1236 -359 1136.0 -342.0Q1036 -325 943 -294Q878 -272 824.0 -233.0Q770 -194 732.0 -141.5Q694 -89 673.0 -26.0Q652 37 652 106Q652 121 653.0 136.0Q654 151 656 166Q665 239 673.5 314.0Q682 389 682 463V1222H790L798 444Q798 413 810.5 386.0Q823 359 843.5 338.5Q864 318 891.5 306.5Q919 295 950 295Q993 295 1017.0 310.5Q1041 326 1061.0 344.5Q1081 363 1104.0 378.5Q1127 394 1166 394H1495Q1534 394 1557.0 378.5Q1580 363 1600.5 344.5Q1621 326 1646.5 310.5Q1672 295 1718 295Q1749 295 1777.0 306.0Q1805 317 1826.0 337.0Q1847 357 1859.5 384.5Q1872 412 1872 444L1880 1222L1988 1294Z" style="fill:#d3d3d3;stroke:none" transform="scale(1,-1) translate(0,-256)" /></svg>