<?xml version="1.0" encoding="utf-8" ?>
<svg baseProfile="full" height="256" version="1.1" width="256" xmlns="http://www.w3.org/2000/svg" xmlns:ev="http://www.w3.org/2001/xml-events" xmlns:xlink="http://www.w3.org/1999/xlink"><defs /><path d="M1005 343Q942 343 887.0 367.0Q832 391 791.0 432.0Q750 473 726.5 528.0Q703 583 703 646Q703 709 726.5 764.0Q750 819 791.0 860.0Q832 901 887.0 924.5Q942 948 1005 948Q1068 948 1123.0 924.5Q1178 901 1219.0 860.0Q1260 819 1283.5 764.0Q1307 709 1307 646Q1307 583 1283.5 528.0Q1260 473 1219.0 432.0Q1178 391 1123.0 367.0Q1068 343 1005 343ZM1806 338Q1743 338 1687.5 362.0Q1632 386 1590.5 427.5Q1549 469 1525.0 524.5Q1501 580 1501 643Q1501 706 1525.0 761.5Q1549 817 1590.5 858.5Q1632 900 1687.5 924.0Q1743 948 1806 948Q1869 948 1924.5 924.0Q1980 900 2021.5 858.5Q2063 817 2087.0 761.5Q2111 706 2111 643Q2111 580 2087.0 524.5Q2063 469 2021.5 427.5Q1980 386 1924.5 362.0Q1869 338 1806 338Z" style="fill:#ffffff;stroke:none" transform="scale(1,-1) translate(0,-256)" /></svg>