<?xml version="1.0" encoding="utf-8" ?>
<svg baseProfile="full" height="256" version="1.1" width="256" xmlns="http://www.w3.org/2000/svg" xmlns:ev="http://www.w3.org/2001/xml-events" xmlns:xlink="http://www.w3.org/1999/xlink"><defs /><path d="M407 862Q430 1069 512.0 1229.5Q594 1390 724.5 1500.5Q855 1611 1028.0 1668.0Q1201 1725 1406 1725Q1514 1725 1619.5 1708.5Q1725 1692 1823.0 1655.0Q1921 1618 2009.0 1560.0Q2097 1502 2171 1419Q1994 1293 1790.0 1190.0Q1586 1087 1368.0 1014.0Q1150 941 925.5 901.0Q701 861 485 861Q465 861 446.0 861.0Q427 861 407 862Z" style="fill:#f4f4f4;stroke:none" transform="scale(1,-1) translate(0,-256)" /></svg>