<?xml version="1.0" encoding="utf-8" ?>
<svg baseProfile="full" height="256" version="1.1" width="256" xmlns="http://www.w3.org/2000/svg" xmlns:ev="http://www.w3.org/2001/xml-events" xmlns:xlink="http://www.w3.org/1999/xlink"><defs /><path d="M469 1114Q468 1121 470.5 1130.5Q473 1140 476.5 1150.0Q480 1160 484.5 1169.0Q489 1178 492 1185Q543 1182 594 1182Q697 1182 802.5 1194.5Q908 1207 1011.5 1230.0Q1115 1253 1216.0 1286.5Q1317 1320 1411 1362Q1346 1395 1268.5 1417.0Q1191 1439 1109.5 1452.5Q1028 1466 947.0 1471.5Q866 1477 794 1477Q743 1477 694 1474Q736 1513 786 1549Q868 1549 961.5 1542.5Q1055 1536 1148.5 1519.0Q1242 1502 1330.0 1473.0Q1418 1444 1490 1400Q1588 1449 1678.0 1509.5Q1768 1570 1849 1645L1919 1613Q1794 1492 1635.5 1398.5Q1477 1305 1302.5 1240.5Q1128 1176 946.0 1142.5Q764 1109 592 1109Q561 1109 530.5 1110.5Q500 1112 469 1114Z" style="fill:#d3d3d3;stroke:none" transform="scale(1,-1) translate(0,-256)" /></svg>