<?xml version="1.0" encoding="utf-8" ?>
<svg baseProfile="full" height="256" version="1.1" width="256" xmlns="http://www.w3.org/2000/svg" xmlns:ev="http://www.w3.org/2001/xml-events" xmlns:xlink="http://www.w3.org/1999/xlink"><defs /><path d="M1801 1150Q1815 1150 1824.0 1142.0Q1833 1134 1837 1120Q1862 1027 1927.0 981.0Q1992 935 2089 935Q2103 935 2114.0 924.0Q2125 913 2125 899Q2125 884 2114.5 873.5Q2104 863 2089 863Q2032 863 1978.5 879.5Q1925 896 1881.0 927.0Q1837 958 1806.5 1003.5Q1776 1049 1766 1108V1114Q1766 1128 1776.0 1139.0Q1786 1150 1801 1150ZM1333 101Q1302 101 1274.0 94.5Q1246 88 1217 77Q1202 72 1190 72Q1160 72 1139.5 93.0Q1119 114 1119 144Q1119 167 1131.5 184.5Q1144 202 1164 211Q1202 228 1246.5 236.5Q1291 245 1333 245Q1388 245 1440.0 230.5Q1492 216 1537.0 188.5Q1582 161 1619.5 122.0Q1657 83 1684 35Q1693 18 1693 0Q1693 -29 1671.5 -50.5Q1650 -72 1621 -72Q1601 -72 1585.5 -62.0Q1570 -52 1559 -35Q1521 28 1464.5 64.5Q1408 101 1333 101ZM1262 647Q1262 602 1245.0 563.0Q1228 524 1199.0 494.5Q1170 465 1131.0 448.0Q1092 431 1047 431Q1002 431 963.0 448.0Q924 465 894.5 494.5Q865 524 848.0 563.0Q831 602 831 647Q831 692 848.0 731.0Q865 770 894.5 799.5Q924 829 963.0 846.0Q1002 863 1047 863Q1092 863 1131.0 846.0Q1170 829 1199.0 799.5Q1228 770 1245.0 731.0Q1262 692 1262 647ZM1981 647Q1981 602 1964.0 563.0Q1947 524 1917.5 494.5Q1888 465 1849.0 448.0Q1810 431 1765 431Q1720 431 1681.0 448.0Q1642 465 1613.0 494.5Q1584 524 1567.0 563.0Q1550 602 1550 647Q1550 692 1567.0 731.0Q1584 770 1613.0 799.5Q1642 829 1681.0 846.0Q1720 863 1765 863Q1810 863 1849.0 846.0Q1888 829 1917.5 799.5Q1947 770 1964.0 731.0Q1981 692 1981 647Z" style="fill:#402a32;stroke:none" transform="scale(1,-1) translate(0,-256)" /></svg>