<?xml version="1.0" encoding="utf-8" ?>
<svg baseProfile="full" height="256" version="1.1" width="256" xmlns="http://www.w3.org/2000/svg" xmlns:ev="http://www.w3.org/2001/xml-events" xmlns:xlink="http://www.w3.org/1999/xlink"><defs /><path d="M1342 1438H895Q866 1438 848.5 1460.5Q831 1483 831 1510Q831 1537 848.5 1559.0Q866 1581 895 1581H1342Q1371 1581 1388.5 1559.0Q1406 1537 1406 1510Q1406 1483 1388.5 1460.5Q1371 1438 1342 1438ZM2340 1294H1693Q1664 1294 1643.0 1272.5Q1622 1251 1622 1222Q1622 1193 1643.0 1171.5Q1664 1150 1693 1150H2340Q2369 1150 2390.5 1171.5Q2412 1193 2412 1222Q2412 1252 2391.0 1273.0Q2370 1294 2340 1294ZM1468 575Q1454 575 1442.5 568.5Q1431 562 1423.0 552.0Q1415 542 1410.5 529.0Q1406 516 1406 503Q1406 490 1410.5 477.0Q1415 464 1423.0 454.0Q1431 444 1442.5 437.5Q1454 431 1468 431H1776Q1790 431 1801.0 437.5Q1812 444 1820.0 454.5Q1828 465 1832.5 477.5Q1837 490 1837 503Q1837 516 1833.0 528.5Q1829 541 1821.0 551.5Q1813 562 1801.5 568.5Q1790 575 1776 575ZM610 935H1411Q1440 935 1459.0 913.0Q1478 891 1478 863Q1478 835 1459.0 813.0Q1440 791 1411 791H610Q581 791 562.0 813.0Q543 835 543 863Q543 891 562.0 913.0Q581 935 610 935ZM1262 72Q1262 84 1266.0 97.0Q1270 110 1277.5 120.5Q1285 131 1295.5 137.5Q1306 144 1320 144H1492Q1506 144 1516.5 137.5Q1527 131 1534.5 120.5Q1542 110 1546.0 97.0Q1550 84 1550 72Q1550 60 1546.0 47.0Q1542 34 1534.5 23.5Q1527 13 1516.5 6.5Q1506 0 1492 0H1320Q1306 0 1295.5 6.5Q1285 13 1277.5 23.5Q1270 34 1266.0 47.0Q1262 60 1262 72ZM1622 -144Q1660 -144 1694.0 -164.0Q1728 -184 1747 -218Q1756 -215 1765 -215Q1794 -215 1815.5 -236.5Q1837 -258 1837 -287H1478Q1478 -257 1489.5 -231.0Q1501 -205 1520.5 -185.5Q1540 -166 1566.0 -155.0Q1592 -144 1622 -144ZM1190 -144Q1217 -144 1242.5 -153.5Q1268 -163 1288 -182Q1262 -236 1231 -287H975Q975 -258 996.5 -236.5Q1018 -215 1047 -215Q1056 -215 1065 -218Q1084 -183 1117.5 -163.5Q1151 -144 1190 -144Z" style="fill:#9b9b9b;stroke:none" transform="scale(1,-1) translate(0,-256)" /></svg>