<?xml version="1.0" encoding="utf-8" ?>
<svg baseProfile="full" height="256" version="1.1" width="256" xmlns="http://www.w3.org/2000/svg" xmlns:ev="http://www.w3.org/2001/xml-events" xmlns:xlink="http://www.w3.org/1999/xlink"><defs /><path d="M2241 1725Q2262 1725 2280.0 1716.5Q2298 1708 2311.5 1694.0Q2325 1680 2332.5 1661.5Q2340 1643 2340 1622V1510Q2340 1406 2322.5 1323.5Q2305 1241 2268.5 1171.0Q2232 1101 2175.5 1037.5Q2119 974 2042 908Q1991 864 1941.0 819.5Q1891 775 1855 718Q1817 658 1801.0 601.0Q1785 544 1778.0 486.0Q1771 428 1767.5 368.0Q1764 308 1751 244Q1737 173 1712.0 103.5Q1687 34 1655.0 -32.5Q1623 -99 1585.5 -163.0Q1548 -227 1509 -287H1231Q1274 -218 1304.5 -141.0Q1335 -64 1335 20Q1335 87 1314.5 147.5Q1294 208 1260.5 262.0Q1227 316 1183.0 364.5Q1139 413 1093 456Q1027 516 956.5 570.0Q886 624 819 683Q722 768 644.5 858.0Q567 948 512.5 1048.5Q458 1149 429.0 1263.0Q400 1377 400 1510V1622Q400 1643 407.5 1661.5Q415 1680 428.5 1694.0Q442 1708 460.5 1716.5Q479 1725 500 1725Z" style="fill:#d3d3d3;stroke:none" transform="scale(1,-1) translate(0,-256)" /></svg>