<?xml version="1.0" encoding="utf-8" ?>
<svg baseProfile="full" height="256" version="1.1" width="256" xmlns="http://www.w3.org/2000/svg" xmlns:ev="http://www.w3.org/2001/xml-events" xmlns:xlink="http://www.w3.org/1999/xlink"><defs /><path d="M2052 714Q2127 714 2192.5 685.5Q2258 657 2306.5 608.5Q2355 560 2383.5 494.5Q2412 429 2412 354V216Q2412 144 2385.0 81.5Q2358 19 2311.0 -28.0Q2264 -75 2201.5 -102.0Q2139 -129 2067 -129H1797Q1756 -129 1718.5 -118.0Q1681 -107 1648.0 -87.0Q1615 -67 1588.0 -38.0Q1561 -9 1543 27Q1535 44 1527.0 60.0Q1519 76 1510 93Q1494 123 1467.5 140.0Q1441 157 1406 157Q1336 157 1302 93Q1293 76 1285.0 60.0Q1277 44 1269 27Q1251 -9 1224.0 -38.0Q1197 -67 1164.0 -87.0Q1131 -107 1093.0 -118.0Q1055 -129 1015 -129H745Q673 -129 610.5 -102.0Q548 -75 501.0 -28.0Q454 19 427.0 81.5Q400 144 400 216V354Q400 429 428.5 494.5Q457 560 505.5 608.5Q554 657 619.5 685.5Q685 714 760 714H2052Z" style="fill:#83cbff;stroke:none" transform="scale(1,-1) translate(0,-256)" /></svg>