<?xml version="1.0" encoding="utf-8" ?>
<svg baseProfile="full" height="256" version="1.1" width="256" xmlns="http://www.w3.org/2000/svg" xmlns:ev="http://www.w3.org/2001/xml-events" xmlns:xlink="http://www.w3.org/1999/xlink"><defs /><path d="M1190 504Q1190 474 1169 453L703 -13Q682 -34 652 -34Q623 -34 601.5 -13.0Q580 8 580 37Q580 67 601 88L1068 555Q1089 576 1118 576Q1148 576 1169.0 554.5Q1190 533 1190 504ZM2268 504Q2268 474 2247 453L1781 -13Q1760 -34 1730 -34Q1701 -34 1679.5 -13.0Q1658 8 1658 37Q1658 67 1679 88L2146 555Q2167 576 2196 576Q2226 576 2247.0 554.5Q2268 533 2268 504Z" style="fill:#aeddff;stroke:none" transform="scale(1,-1) translate(0,-256)" /></svg>