<?xml version="1.0" encoding="utf-8" ?>
<svg baseProfile="full" height="256" version="1.1" width="256" xmlns="http://www.w3.org/2000/svg" xmlns:ev="http://www.w3.org/2001/xml-events" xmlns:xlink="http://www.w3.org/1999/xlink"><defs /><path d="M2052 870Q2127 870 2192.5 841.5Q2258 813 2306.5 764.5Q2355 716 2383.5 650.5Q2412 585 2412 510V146Q2412 56 2378.0 -22.5Q2344 -101 2285.5 -159.5Q2227 -218 2148.5 -252.0Q2070 -286 1980 -286H1797Q1715 -286 1648.0 -244.0Q1581 -202 1543 -129Q1531 -106 1520.0 -82.5Q1509 -59 1494.0 -40.5Q1479 -22 1458.0 -10.5Q1437 1 1406 1Q1374 1 1353.0 -10.5Q1332 -22 1317.5 -40.5Q1303 -59 1292.0 -82.0Q1281 -105 1269 -129Q1233 -198 1185.5 -231.0Q1138 -264 1081.5 -276.5Q1025 -289 961.5 -287.5Q898 -286 832 -286Q742 -286 663.5 -252.0Q585 -218 526.5 -159.5Q468 -101 434.0 -22.5Q400 56 400 146V510Q400 585 428.5 650.5Q457 716 505.5 764.5Q554 813 619.5 841.5Q685 870 760 870Z" style="fill:#00a6ed;stroke:none" transform="scale(1,-1) translate(0,-256)" /></svg>