<?xml version="1.0" encoding="utf-8" ?>
<svg baseProfile="full" height="256" version="1.1" width="256" xmlns="http://www.w3.org/2000/svg" xmlns:ev="http://www.w3.org/2001/xml-events" xmlns:xlink="http://www.w3.org/1999/xlink"><defs /><path d="M1654 112Q1591 112 1530.0 114.5Q1469 117 1406 117Q1206 117 1054.5 162.0Q903 207 789.0 297.5Q675 388 593.0 525.5Q511 663 450 849Q432 904 419.5 961.5Q407 1019 407 1078Q407 1126 418.5 1171.0Q430 1216 457 1257Q489 1304 535.5 1333.5Q582 1363 638.0 1380.5Q694 1398 756.5 1406.0Q819 1414 883.5 1418.0Q948 1422 1012.0 1425.5Q1076 1429 1133.0 1437.5Q1190 1446 1238.5 1462.5Q1287 1479 1322 1509Q1377 1557 1434.5 1597.0Q1492 1637 1553.5 1665.5Q1615 1694 1682.5 1710.0Q1750 1726 1825 1726Q1953 1726 2059.0 1678.0Q2165 1630 2241.5 1547.5Q2318 1465 2360.5 1354.5Q2403 1244 2403 1120Q2403 1058 2391.5 987.5Q2380 917 2359.0 843.5Q2338 770 2310.0 695.5Q2282 621 2249.5 551.5Q2217 482 2180.5 419.5Q2144 357 2108 307Q2064 246 2014.0 208.0Q1964 170 1908.0 148.5Q1852 127 1788.5 119.5Q1725 112 1654 112ZM1826 1582Q1768 1582 1713.0 1568.5Q1658 1555 1607.0 1531.5Q1556 1508 1509.5 1475.5Q1463 1443 1421 1405Q1376 1364 1319.0 1340.0Q1262 1316 1200.0 1303.5Q1138 1291 1074.5 1286.0Q1011 1281 953 1278Q929 1276 896.0 1274.5Q863 1273 825.5 1269.0Q788 1265 750.0 1259.0Q712 1253 678.0 1242.0Q644 1231 617.5 1215.0Q591 1199 576 1177Q561 1154 555.5 1128.5Q550 1103 550 1076Q550 1030 561.0 984.0Q572 938 586 894Q639 733 708.5 614.0Q778 495 874.5 416.5Q971 338 1101.0 299.5Q1231 261 1405 261Q1465 261 1525.5 258.5Q1586 256 1646 256Q1699 256 1747.0 259.5Q1795 263 1838.0 277.0Q1881 291 1919.5 317.5Q1958 344 1991 391Q2039 458 2086.5 548.5Q2134 639 2172.5 738.0Q2211 837 2234.5 935.5Q2258 1034 2258 1116Q2258 1211 2228.0 1296.0Q2198 1381 2142.0 1444.5Q2086 1508 2006.0 1545.0Q1926 1582 1826 1582Z" style="fill:#5235a6;stroke:none" transform="scale(1,-1) translate(0,-256)" /></svg>