<?xml version="1.0" encoding="utf-8" ?>
<svg baseProfile="full" height="256" version="1.1" width="256" xmlns="http://www.w3.org/2000/svg" xmlns:ev="http://www.w3.org/2001/xml-events" xmlns:xlink="http://www.w3.org/1999/xlink"><defs /><path d="M615 324Q615 384 624.0 437.5Q633 491 651.0 541.0Q669 591 695.0 639.0Q721 687 754 736L1370 1640Q1396 1679 1438.5 1701.5Q1481 1724 1529 1724Q1569 1724 1604.0 1708.5Q1639 1693 1665.5 1667.0Q1692 1641 1707.0 1606.0Q1722 1571 1722 1531Q1722 1469 1687 1420L1538 1210Q1569 1221 1601 1221Q1641 1221 1676.0 1205.5Q1711 1190 1737.0 1164.0Q1763 1138 1778.5 1103.0Q1794 1068 1794 1028Q1794 1000 1787 976Q1833 1005 1889 1005Q1929 1005 1964.0 990.0Q1999 975 2025.5 948.5Q2052 922 2067.0 887.0Q2082 852 2082 812Q2082 760 2056 716Q2093 711 2124.0 694.5Q2155 678 2177.5 652.5Q2200 627 2213.0 594.0Q2226 561 2226 524Q2226 462 2191 413Q2116 306 2041.5 200.0Q1967 94 1892 -14Q1872 -43 1853.5 -71.0Q1835 -99 1812 -126Q1714 -238 1580.5 -298.5Q1447 -359 1298 -359Q1204 -359 1116.5 -334.5Q1029 -310 953.0 -265.5Q877 -221 815.0 -159.0Q753 -97 708.5 -21.0Q664 55 639.5 142.5Q615 230 615 324Z" style="fill:#ffc83d;stroke:none" transform="scale(1,-1) translate(0,-256)" /></svg>