<?xml version="1.0" encoding="utf-8" ?>
<svg baseProfile="full" height="256" version="1.1" width="256" xmlns="http://www.w3.org/2000/svg" xmlns:ev="http://www.w3.org/2001/xml-events" xmlns:xlink="http://www.w3.org/1999/xlink"><defs /><path d="M1541 1211Q1569 1220 1600 1220Q1618 1220 1636 1217L1435 949Q1424 935 1406 935Q1391 935 1380.5 945.5Q1370 956 1370 971Q1370 984 1377 992ZM1789 977Q1836 1005 1888 1005L1903 1004L1686 732Q1675 719 1658 719Q1643 719 1632.5 730.0Q1622 741 1622 755Q1622 769 1629 777ZM2059 715Q2097 710 2130 691L1974 482Q1963 468 1945 468Q1930 468 1919.5 478.5Q1909 489 1909 504Q1909 517 1916 525Z" style="fill:#d67d00;stroke:none" transform="scale(1,-1) translate(0,-256)" /></svg>