<?xml version="1.0" encoding="utf-8" ?>
<svg baseProfile="full" height="256" version="1.1" width="256" xmlns="http://www.w3.org/2000/svg" xmlns:ev="http://www.w3.org/2001/xml-events" xmlns:xlink="http://www.w3.org/1999/xlink"><defs /><path d="M1658 1725Q1712 1725 1760.0 1704.5Q1808 1684 1843.5 1648.5Q1879 1613 1899.5 1565.0Q1920 1517 1920 1463Q1920 1449 1919.0 1436.0Q1918 1423 1915 1410Q1907 1378 1884.5 1356.0Q1862 1334 1830 1327Q1823 1325 1816.5 1325.5Q1810 1326 1803 1324L1406 1212L1010 1324Q1003 1326 996.0 1325.5Q989 1325 982 1327Q950 1334 928.0 1356.0Q906 1378 898 1410Q892 1437 892 1465Q892 1519 912.5 1566.5Q933 1614 969.0 1649.0Q1005 1684 1052.5 1704.5Q1100 1725 1154 1725H1658Z" style="fill:#d3d3d3;stroke:none" transform="scale(1,-1) translate(0,-256)" /></svg>