<?xml version="1.0" encoding="utf-8" ?>
<svg baseProfile="full" height="256" version="1.1" width="256" xmlns="http://www.w3.org/2000/svg" xmlns:ev="http://www.w3.org/2001/xml-events" xmlns:xlink="http://www.w3.org/1999/xlink"><defs /><path d="M1672 585Q1692 585 1708.5 572.0Q1725 559 1728 539L1806 68Q1808 61 1808.0 54.0Q1808 47 1808 40Q1808 5 1794.5 -26.5Q1781 -58 1757.5 -81.0Q1734 -104 1703.0 -117.5Q1672 -131 1637 -131H1175Q1140 -131 1108.5 -117.5Q1077 -104 1054.0 -81.0Q1031 -58 1017.5 -26.5Q1004 5 1004 40Q1004 47 1004.0 54.0Q1004 61 1006 68L1085 539Q1088 559 1104.0 572.0Q1120 585 1140 585H1672Z" style="fill:#f4f4f4;stroke:none" transform="scale(1,-1) translate(0,-256)" /></svg>