<?xml version="1.0" encoding="utf-8" ?>
<svg baseProfile="full" height="256" version="1.1" width="256" xmlns="http://www.w3.org/2000/svg" xmlns:ev="http://www.w3.org/2001/xml-events" xmlns:xlink="http://www.w3.org/1999/xlink"><defs /><path d="M1189 1568Q1172 1568 1161.5 1579.5Q1151 1591 1151 1607Q1151 1623 1162.0 1634.0Q1173 1645 1189 1645Q1205 1645 1216.5 1634.5Q1228 1624 1228 1607Q1228 1590 1217.0 1579.0Q1206 1568 1189 1568ZM1626 1568Q1609 1568 1598.5 1579.5Q1588 1591 1588 1607Q1588 1623 1599.0 1634.0Q1610 1645 1626 1645Q1642 1645 1653.5 1634.5Q1665 1624 1665 1607Q1665 1590 1654.0 1579.0Q1643 1568 1626 1568ZM1343 1481Q1343 1465 1331.5 1453.5Q1320 1442 1304 1442Q1287 1442 1276.0 1453.0Q1265 1464 1265 1481Q1265 1497 1276.5 1508.5Q1288 1520 1304 1520Q1320 1520 1331.5 1508.5Q1343 1497 1343 1481ZM1550 1481Q1550 1464 1539.0 1453.0Q1528 1442 1511 1442Q1494 1442 1483.5 1453.5Q1473 1465 1473 1481Q1473 1497 1484.0 1508.5Q1495 1520 1511 1520Q1527 1520 1538.5 1508.5Q1550 1497 1550 1481ZM1447 1607Q1447 1591 1435.5 1579.5Q1424 1568 1408 1568Q1392 1568 1380.5 1579.5Q1369 1591 1369 1607Q1369 1623 1380.5 1634.0Q1392 1645 1408 1645Q1424 1645 1435.5 1634.0Q1447 1623 1447 1607ZM1010 1324H1803V1053H1010Z" style="fill:#9b9b9b;stroke:none" transform="scale(1,-1) translate(0,-256)" /></svg>