<?xml version="1.0" encoding="utf-8" ?>
<svg baseProfile="full" height="256" version="1.1" width="256" xmlns="http://www.w3.org/2000/svg" xmlns:ev="http://www.w3.org/2001/xml-events" xmlns:xlink="http://www.w3.org/1999/xlink"><defs /><path d="M1037 1524Q1037 1492 1028.0 1467.0Q1019 1442 1008.0 1423.0Q997 1404 988.0 1390.5Q979 1377 979 1369Q979 1352 991.0 1340.0Q1003 1328 1014 1317Q1009 1312 992.0 1295.5Q975 1279 952.5 1256.5Q930 1234 905.0 1209.0Q880 1184 859.0 1162.5Q838 1141 823.5 1126.5Q809 1112 808 1110Q797 1121 785.0 1133.5Q773 1146 756 1146Q748 1146 734.5 1137.0Q721 1128 701.5 1117.0Q682 1106 657.0 1097.0Q632 1088 600 1088Q558 1088 521.5 1103.5Q485 1119 458.0 1146.5Q431 1174 415.5 1210.5Q400 1247 400 1289Q400 1332 415.0 1367.5Q430 1403 456.5 1429.0Q483 1455 519.0 1470.5Q555 1486 597 1489Q633 1492 636 1528Q640 1570 655.0 1606.0Q670 1642 695.5 1668.5Q721 1695 756.5 1710.0Q792 1725 836 1725Q878 1725 914.5 1709.0Q951 1693 978.0 1666.0Q1005 1639 1021.0 1602.5Q1037 1566 1037 1524ZM2213 350Q2254 350 2290.5 334.0Q2327 318 2354.0 290.5Q2381 263 2396.5 226.5Q2412 190 2412 149Q2412 105 2396.5 69.5Q2381 34 2354.5 8.5Q2328 -17 2292.0 -32.0Q2256 -47 2214 -50Q2197 -52 2187.0 -62.0Q2177 -72 2176 -89Q2173 -131 2157.5 -167.0Q2142 -203 2115.5 -229.5Q2089 -256 2053.0 -271.5Q2017 -287 1974 -287Q1933 -287 1896.5 -271.5Q1860 -256 1833.0 -229.0Q1806 -202 1790.5 -165.5Q1775 -129 1775 -88Q1775 -57 1784.5 -31.0Q1794 -5 1805.0 15.5Q1816 36 1825.5 49.5Q1835 63 1835 70Q1835 83 1825 93L1596 322Q1585 333 1579.0 347.0Q1573 361 1573 376Q1573 391 1579.0 404.5Q1585 418 1596 429L1695 529Q1717 551 1749 551Q1781 551 1803 529L2032 300Q2042 290 2055 290Q2061 290 2074.5 299.5Q2088 309 2108.5 320.0Q2129 331 2155.0 340.5Q2181 350 2213 350Z" style="fill:#d3d3d3;stroke:none" transform="scale(1,-1) translate(0,-256)" /></svg>