<?xml version="1.0" encoding="utf-8" ?>
<svg baseProfile="full" height="256" version="1.1" width="256" xmlns="http://www.w3.org/2000/svg" xmlns:ev="http://www.w3.org/2001/xml-events" xmlns:xlink="http://www.w3.org/1999/xlink"><defs /><path d="M1486 675Q1512 701 1549 701Q1587 701 1613.0 675.0Q1639 649 1639 611Q1639 574 1613 548L1536 470Q1558 485 1586 485Q1623 485 1649.0 459.0Q1675 433 1675 396Q1675 363 1658.5 344.0Q1642 325 1619 306Q1638 306 1654.5 299.0Q1671 292 1683.5 279.5Q1696 267 1703.5 250.5Q1711 234 1711 215Q1711 178 1685 152L1495 -38Q1451 -82 1401.5 -125.0Q1352 -168 1296.5 -202.0Q1241 -236 1180.5 -257.5Q1120 -279 1055 -279Q987 -279 931.0 -253.5Q875 -228 834.0 -184.5Q793 -141 770.5 -82.5Q748 -24 748 42Q748 88 759.0 132.5Q770 177 795 216Q814 247 826.5 290.5Q839 334 846.5 381.0Q854 428 857.5 474.5Q861 521 864 557Q867 595 893.0 621.0Q919 647 957 647Q994 647 1020.5 620.5Q1047 594 1047 557V487L1271 711Q1297 737 1334 737Q1353 737 1369.5 730.0Q1386 723 1398.0 711.0Q1410 699 1417.0 682.5Q1424 666 1424 647Q1424 619 1409 598Z" style="fill:#ff822d;stroke:none" transform="scale(1,-1) translate(0,-256)" /></svg>