<?xml version="1.0" encoding="utf-8" ?>
<svg baseProfile="full" height="256" version="1.1" width="256" xmlns="http://www.w3.org/2000/svg" xmlns:ev="http://www.w3.org/2001/xml-events" xmlns:xlink="http://www.w3.org/1999/xlink"><defs /><path d="M975 791Q975 753 953.0 725.5Q931 698 898.0 680.5Q865 663 827.5 655.0Q790 647 759 647Q728 647 690.5 655.0Q653 663 620.0 680.5Q587 698 565.0 725.5Q543 753 543 791Q543 829 565.0 856.0Q587 883 620.0 900.5Q653 918 690.5 926.5Q728 935 759 935Q790 935 827.5 926.5Q865 918 898.0 900.5Q931 883 953.0 856.0Q975 829 975 791ZM2268 791Q2268 753 2246.0 725.5Q2224 698 2191.5 680.5Q2159 663 2121.5 655.0Q2084 647 2053 647Q2022 647 1984.5 655.0Q1947 663 1914.0 680.5Q1881 698 1859.0 725.5Q1837 753 1837 791Q1837 829 1859.0 856.0Q1881 883 1914.0 900.5Q1947 918 1984.5 926.5Q2022 935 2053 935Q2084 935 2121.5 926.5Q2159 918 2191.5 900.5Q2224 883 2246.0 856.0Q2268 829 2268 791Z" style="fill:#ff6723;stroke:none" transform="scale(1,-1) translate(0,-256)" /></svg>