<?xml version="1.0" encoding="utf-8" ?>
<svg baseProfile="full" height="256" version="1.1" width="256" xmlns="http://www.w3.org/2000/svg" xmlns:ev="http://www.w3.org/2001/xml-events" xmlns:xlink="http://www.w3.org/1999/xlink"><defs /><path d="M1011 1150Q974 1150 954.0 1139.5Q934 1129 922.5 1113.0Q911 1097 905.0 1078.5Q899 1060 891.5 1044.0Q884 1028 870.5 1017.5Q857 1007 831 1007Q801 1007 780.0 1027.5Q759 1048 759 1079Q759 1082 759.0 1085.5Q759 1089 760 1092Q769 1140 791.0 1177.5Q813 1215 846.0 1241.0Q879 1267 921.0 1280.5Q963 1294 1011 1294Q1058 1294 1100.0 1280.0Q1142 1266 1175.0 1239.5Q1208 1213 1230.5 1175.5Q1253 1138 1261 1091Q1262 1087 1262 1078Q1262 1048 1241.0 1027.5Q1220 1007 1190 1007Q1164 1007 1150.5 1017.5Q1137 1028 1129.0 1044.0Q1121 1060 1115.0 1078.5Q1109 1097 1097.5 1113.0Q1086 1129 1066.0 1139.5Q1046 1150 1011 1150ZM1801 1150Q1765 1150 1745.0 1139.5Q1725 1129 1713.5 1113.0Q1702 1097 1696.5 1078.5Q1691 1060 1683.0 1044.0Q1675 1028 1661.5 1017.5Q1648 1007 1622 1007Q1593 1007 1571.5 1027.5Q1550 1048 1550 1078Q1550 1087 1551 1092Q1560 1140 1582.0 1177.5Q1604 1215 1637.0 1241.0Q1670 1267 1711.5 1280.5Q1753 1294 1801 1294Q1848 1294 1890.0 1280.0Q1932 1266 1965.0 1239.5Q1998 1213 2021.0 1175.5Q2044 1138 2052 1091Q2053 1087 2053 1079Q2053 1048 2031.5 1027.5Q2010 1007 1980 1007Q1954 1007 1941.0 1017.5Q1928 1028 1920.0 1044.0Q1912 1060 1906.0 1078.5Q1900 1097 1888.5 1113.0Q1877 1129 1857.0 1139.5Q1837 1150 1801 1150Z" style="fill:#402a32;stroke:none" transform="scale(1,-1) translate(0,-256)" /></svg>