<?xml version="1.0" encoding="utf-8" ?>
<svg baseProfile="full" height="256" version="1.1" width="256" xmlns="http://www.w3.org/2000/svg" xmlns:ev="http://www.w3.org/2001/xml-events" xmlns:xlink="http://www.w3.org/1999/xlink"><defs /><path d="M1478 -266V-270Q1478 -277 1472.5 -282.0Q1467 -287 1460 -287H1284Q1276 -287 1270.0 -282.0Q1264 -277 1262 -269L1157 360H1373ZM1690 360H1905L1764 -270Q1762 -278 1756.0 -282.5Q1750 -287 1742 -287H1567Q1560 -287 1554.5 -282.5Q1549 -278 1549 -271Q1549 -266 1558.5 -221.0Q1568 -176 1582.5 -110.5Q1597 -45 1614.5 31.0Q1632 107 1647.5 175.5Q1663 244 1675.0 295.0Q1687 346 1690 360Z" style="fill:#d3883e;stroke:none" transform="scale(1,-1) translate(0,-256)" /></svg>