<?xml version="1.0" encoding="utf-8" ?>
<svg baseProfile="full" height="256" version="1.1" width="256" xmlns="http://www.w3.org/2000/svg" xmlns:ev="http://www.w3.org/2001/xml-events" xmlns:xlink="http://www.w3.org/1999/xlink"><defs /><path d="M759 1096Q759 1111 769.5 1121.5Q780 1132 795 1132Q810 1132 820.5 1121.5Q831 1111 831 1096V1055Q831 1040 820.5 1029.5Q810 1019 795 1019Q780 1019 769.5 1029.5Q759 1040 759 1055ZM454 972Q431 972 415.5 987.5Q400 1003 400 1026Q400 1048 416.0 1064.0Q432 1080 454 1080H490Q512 1080 527.5 1064.0Q543 1048 543 1026Q543 1004 528.0 988.0Q513 972 490 972Z" style="fill:#212121;stroke:none" transform="scale(1,-1) translate(0,-256)" /></svg>