<?xml version="1.0" encoding="utf-8" ?>
<svg baseProfile="full" height="256" version="1.1" width="256" xmlns="http://www.w3.org/2000/svg" xmlns:ev="http://www.w3.org/2001/xml-events" xmlns:xlink="http://www.w3.org/1999/xlink"><defs /><path d="M1484 1403Q1511 1438 1554 1438H1831Q1854 1438 1869.5 1422.0Q1885 1406 1885 1384Q1885 1366 1873 1351L1326 654Q1315 641 1298 641Q1283 641 1273.0 651.5Q1263 662 1263 677Q1263 691 1270 699L1794 1367H1554Q1546 1367 1540 1359L1261 1005Q1250 1022 1243.0 1040.5Q1236 1059 1228 1078Z" style="fill:#9b9b9b;stroke:none" transform="scale(1,-1) translate(0,-256)" /></svg>