<?xml version="1.0" encoding="utf-8" ?>
<svg baseProfile="full" height="256" version="1.1" width="256" xmlns="http://www.w3.org/2000/svg" xmlns:ev="http://www.w3.org/2001/xml-events" xmlns:xlink="http://www.w3.org/1999/xlink"><defs /><path d="M1298 1006Q1312 1006 1323.0 995.5Q1334 985 1334 971V785Q1366 774 1386.0 746.0Q1406 718 1406 683Q1406 648 1386.0 620.0Q1366 592 1334 581V288Q1334 273 1323.5 262.5Q1313 252 1298 252Q1283 252 1272.5 262.5Q1262 273 1262 288V581Q1239 589 1221.5 606.5Q1204 624 1196 647H759Q744 647 733.5 657.5Q723 668 723 683Q723 698 733.5 708.5Q744 719 759 719H1196Q1204 742 1221.5 759.5Q1239 777 1262 785V971Q1262 985 1273.0 995.5Q1284 1006 1298 1006Z" style="fill:#6d4534;stroke:none" transform="scale(1,-1) translate(0,-256)" /></svg>