<?xml version="1.0" encoding="utf-8" ?>
<svg baseProfile="full" height="256" version="1.1" width="256" xmlns="http://www.w3.org/2000/svg" xmlns:ev="http://www.w3.org/2001/xml-events" xmlns:xlink="http://www.w3.org/1999/xlink"><defs /><path d="M1751 1720Q1772 1720 1792.0 1712.0Q1812 1704 1827 1689L2386 1130Q2401 1115 2409.0 1095.0Q2417 1075 2417 1054Q2417 1031 2408.5 1011.5Q2400 992 2386.0 977.0Q2372 962 2352.0 953.5Q2332 945 2310 945Q2274 945 2253.0 962.0Q2232 979 2208 1003L2107 901L1141 952L1270 1081L1370 1078L1343 1154L1700 1511Q1676 1535 1659.5 1556.0Q1643 1577 1643 1613Q1643 1635 1651.5 1654.5Q1660 1674 1675.0 1688.5Q1690 1703 1709.5 1711.5Q1729 1720 1751 1720Z" style="fill:#aeddff;stroke:none" transform="scale(1,-1) translate(0,-256)" /></svg>