<?xml version="1.0" encoding="utf-8" ?>
<svg baseProfile="full" height="256" version="1.1" width="256" xmlns="http://www.w3.org/2000/svg" xmlns:ev="http://www.w3.org/2001/xml-events" xmlns:xlink="http://www.w3.org/1999/xlink"><defs /><path d="M1141 952 1729 1078 2107 901 1090 -115Q1039 -166 973.5 -193.5Q908 -221 836 -221Q762 -221 696.5 -192.5Q631 -164 582.0 -115.0Q533 -66 505.0 -0.5Q477 65 477 139Q477 197 491.0 242.0Q505 287 529.0 324.5Q553 362 586.0 396.5Q619 431 658 469L734 463V545L964 775L1039 777V850Z" style="fill:#c3ef3c;stroke:none" transform="scale(1,-1) translate(0,-256)" /></svg>