<?xml version="1.0" encoding="utf-8" ?>
<svg baseProfile="full" height="256" version="1.1" width="256" xmlns="http://www.w3.org/2000/svg" xmlns:ev="http://www.w3.org/2001/xml-events" xmlns:xlink="http://www.w3.org/1999/xlink"><defs /><path d="M2340 719Q2340 560 2301.0 430.5Q2262 301 2188.0 194.0Q2114 87 2007.5 0.0Q1901 -87 1766 -160Q1742 -173 1708.0 -191.0Q1674 -209 1638.0 -226.5Q1602 -244 1567.5 -259.0Q1533 -274 1508 -282Q1503 -284 1489.0 -284.5Q1475 -285 1458.5 -286.0Q1442 -287 1427.0 -287.0Q1412 -287 1406 -287Q1267 -287 1138.5 -251.0Q1010 -215 898.0 -149.5Q786 -84 694.5 7.5Q603 99 537.5 211.0Q472 323 436.0 451.5Q400 580 400 719Q400 858 436.0 986.5Q472 1115 537.5 1227.0Q603 1339 694.5 1430.5Q786 1522 898.0 1587.5Q1010 1653 1138.5 1689.0Q1267 1725 1406 1725Q1412 1725 1426.5 1725.0Q1441 1725 1456.5 1724.0Q1472 1723 1486.0 1722.0Q1500 1721 1505 1720Q1532 1712 1564.5 1699.5Q1597 1687 1630.0 1672.0Q1663 1657 1695.0 1641.0Q1727 1625 1752 1612Q1886 1541 1994.5 1451.5Q2103 1362 2180.0 1251.5Q2257 1141 2298.5 1008.5Q2340 876 2340 719Z" style="fill:#533566;stroke:none" transform="scale(1,-1) translate(0,-256)" /></svg>