<?xml version="1.0" encoding="utf-8" ?>
<svg baseProfile="full" height="256" version="1.1" width="256" xmlns="http://www.w3.org/2000/svg" xmlns:ev="http://www.w3.org/2001/xml-events" xmlns:xlink="http://www.w3.org/1999/xlink"><defs /><path d="M2053 1042Q2053 992 2027.5 950.0Q2002 908 1959 884Q1903 911 1870.0 963.5Q1837 1016 1837 1078Q1837 1117 1851.0 1154.5Q1865 1192 1891 1221Q1925 1218 1955.0 1202.5Q1985 1187 2006.5 1163.0Q2028 1139 2040.5 1107.5Q2053 1076 2053 1042ZM2044 -59Q2013 -24 1997.0 19.0Q1981 62 1981 108Q1981 160 2001.0 206.0Q2021 252 2055.0 286.0Q2089 320 2135.0 340.0Q2181 360 2233 360Q2260 360 2286.0 354.0Q2312 348 2337 337Q2289 222 2215.0 121.0Q2141 20 2044 -59Z" style="fill:#f9c23c;stroke:none" transform="scale(1,-1) translate(0,-256)" /></svg>