<?xml version="1.0" encoding="utf-8" ?>
<svg baseProfile="full" height="256" version="1.1" width="256" xmlns="http://www.w3.org/2000/svg" xmlns:ev="http://www.w3.org/2001/xml-events" xmlns:xlink="http://www.w3.org/1999/xlink"><defs /><path d="M2394 92Q2410 18 2398.5 -49.5Q2387 -117 2350.0 -168.5Q2313 -220 2252.0 -251.0Q2191 -282 2110 -282H609Q555 -282 516.5 -264.5Q478 -247 452.5 -219.0Q427 -191 415.0 -156.5Q403 -122 403 -87Q403 -53 414.5 -14.0Q426 25 450.5 58.0Q475 91 512.5 112.5Q550 134 602 134Q617 134 629.0 131.0Q641 128 652.0 123.5Q663 119 674.0 115.5Q685 112 697 112Q718 112 746.0 119.5Q774 127 803.0 138.0Q832 149 860.0 161.0Q888 173 909 182Q952 200 1003.5 221.0Q1055 242 1108.0 269.5Q1161 297 1212.5 333.0Q1264 369 1307.0 417.5Q1350 466 1380.5 528.5Q1411 591 1423 672Q1426 765 1446.0 836.5Q1466 908 1498.0 960.5Q1530 1013 1571.5 1048.5Q1613 1084 1658.5 1105.5Q1704 1127 1751.0 1136.5Q1798 1146 1842 1146Q1938 1146 2006.5 1120.0Q2075 1094 2121.5 1049.5Q2168 1005 2196.5 946.0Q2225 887 2241.0 820.5Q2257 754 2263.5 684.0Q2270 614 2274 549Q2278 484 2285.0 438.5Q2292 393 2302.0 358.5Q2312 324 2323.5 296.5Q2335 269 2347.0 240.0Q2359 211 2371.0 176.0Q2383 141 2394 92Z" style="fill:#ffc83d;stroke:none" transform="scale(1,-1) translate(0,-256)" /></svg>