<?xml version="1.0" encoding="utf-8" ?>
<svg baseProfile="full" height="256" version="1.1" width="256" xmlns="http://www.w3.org/2000/svg" xmlns:ev="http://www.w3.org/2001/xml-events" xmlns:xlink="http://www.w3.org/1999/xlink"><defs /><path d="M1082 1366Q1091 1366 1113.5 1356.0Q1136 1346 1161.5 1333.0Q1187 1320 1209.5 1307.5Q1232 1295 1242 1290Q1262 1281 1262 1258Q1262 1235 1242 1226Q1232 1221 1209.5 1208.5Q1187 1196 1161.5 1183.0Q1136 1170 1113.5 1160.0Q1091 1150 1082 1150Q1068 1150 1057.5 1160.5Q1047 1171 1047 1185Q1047 1208 1066 1218L1146 1258L1066 1298Q1057 1303 1052.0 1311.5Q1047 1320 1047 1331Q1047 1345 1057.5 1355.5Q1068 1366 1082 1366ZM1765 1258Q1765 1236 1756.5 1216.5Q1748 1197 1734.0 1182.0Q1720 1167 1700.0 1158.5Q1680 1150 1658 1150Q1635 1150 1615.5 1158.5Q1596 1167 1581.5 1181.5Q1567 1196 1558.5 1215.5Q1550 1235 1550 1258Q1550 1280 1558.5 1300.0Q1567 1320 1581.5 1334.5Q1596 1349 1615.5 1357.5Q1635 1366 1658 1366Q1680 1366 1700.0 1357.5Q1720 1349 1734.0 1334.0Q1748 1319 1756.5 1299.5Q1765 1280 1765 1258Z" style="fill:#321b41;stroke:none" transform="scale(1,-1) translate(0,-256)" /></svg>