<?xml version="1.0" encoding="utf-8" ?>
<svg baseProfile="full" height="256" version="1.1" width="256" xmlns="http://www.w3.org/2000/svg" xmlns:ev="http://www.w3.org/2001/xml-events" xmlns:xlink="http://www.w3.org/1999/xlink"><defs /><path d="M696 899Q702 953 707.5 1005.0Q713 1057 720 1111Q725 1158 740.0 1204.0Q755 1250 775 1293Q818 1384 884.0 1457.5Q950 1531 1032.5 1582.5Q1115 1634 1210.0 1661.5Q1305 1689 1406 1689Q1530 1689 1647.0 1646.0Q1764 1603 1857.5 1526.5Q1951 1450 2013.5 1343.5Q2076 1237 2092 1111Q2099 1057 2105.0 1005.0Q2111 953 2117 899H2358Q2365 899 2369.5 894.0Q2374 889 2374 882Q2374 878 2358.5 861.0Q2343 844 2320.0 820.0Q2297 796 2268.5 768.0Q2240 740 2215.0 715.5Q2190 691 2170.5 672.0Q2151 653 2145 647L2231 -113Q2232 -118 2232.0 -122.0Q2232 -126 2232 -131Q2232 -157 2222.0 -178.5Q2212 -200 2195.5 -216.5Q2179 -233 2156.5 -242.0Q2134 -251 2109 -251Q2070 -251 2041.5 -240.5Q2013 -230 1989.0 -214.5Q1965 -199 1943.0 -180.5Q1921 -162 1895.0 -146.5Q1869 -131 1835.5 -120.5Q1802 -110 1756 -110Q1710 -110 1677.0 -120.5Q1644 -131 1618.0 -146.5Q1592 -162 1570.0 -180.5Q1548 -199 1524.5 -214.5Q1501 -230 1472.5 -240.5Q1444 -251 1406 -251Q1367 -251 1339.0 -240.5Q1311 -230 1287.5 -214.5Q1264 -199 1242.0 -180.5Q1220 -162 1194.0 -146.5Q1168 -131 1134.5 -120.5Q1101 -110 1055 -110Q1009 -110 975.5 -120.5Q942 -131 916.0 -147.0Q890 -163 868.5 -181.0Q847 -199 823.5 -215.0Q800 -231 772.0 -241.5Q744 -252 705 -252Q679 -252 656.0 -243.5Q633 -235 616.0 -219.5Q599 -204 589.5 -182.0Q580 -160 580 -133Q580 -128 580.0 -124.0Q580 -120 581 -115L667 645Q661 651 641.5 670.0Q622 689 596.5 714.0Q571 739 542.5 767.5Q514 796 490.5 820.0Q467 844 451.5 861.5Q436 879 436 882Q436 889 440.0 894.0Q444 899 451 899Z" style="fill:#ffffff;stroke:none" transform="scale(1,-1) translate(0,-256)" /></svg>