<?xml version="1.0" encoding="utf-8" ?>
<svg baseProfile="full" height="256" version="1.1" width="256" xmlns="http://www.w3.org/2000/svg" xmlns:ev="http://www.w3.org/2001/xml-events" xmlns:xlink="http://www.w3.org/1999/xlink"><defs /><path d="M1406 1761Q1549 1761 1676.5 1714.0Q1804 1667 1904.5 1582.0Q2005 1497 2072.5 1379.5Q2140 1262 2164 1121Q2170 1084 2173.0 1046.0Q2176 1008 2181 971H2358Q2395 971 2420.5 945.0Q2446 919 2446 882Q2446 847 2420 821L2220 621L2302 -104Q2303 -111 2303.5 -117.5Q2304 -124 2304 -131Q2304 -172 2288.5 -207.0Q2273 -242 2246.0 -267.5Q2219 -293 2183.5 -308.0Q2148 -323 2108 -323Q2061 -323 2028.0 -312.5Q1995 -302 1968.5 -286.5Q1942 -271 1920.0 -252.5Q1898 -234 1874.5 -218.5Q1851 -203 1823.0 -192.5Q1795 -182 1756 -182Q1718 -182 1689.5 -192.5Q1661 -203 1637.5 -218.5Q1614 -234 1592.5 -252.5Q1571 -271 1545.0 -286.5Q1519 -302 1485.5 -312.5Q1452 -323 1406 -323Q1360 -323 1326.5 -312.5Q1293 -302 1267.0 -286.5Q1241 -271 1219.0 -252.5Q1197 -234 1173.5 -218.5Q1150 -203 1122.0 -192.5Q1094 -182 1055 -182Q1017 -182 988.5 -192.5Q960 -203 936.5 -218.5Q913 -234 891.0 -252.5Q869 -271 843.0 -286.5Q817 -302 784.0 -312.5Q751 -323 705 -323Q664 -323 628.0 -309.0Q592 -295 565.5 -270.0Q539 -245 523.5 -210.0Q508 -175 508 -133Q508 -126 508.5 -119.0Q509 -112 510 -105L592 618L389 821Q363 847 363 882Q363 919 388.5 945.0Q414 971 451 971H632Q637 1009 640.5 1046.0Q644 1083 649 1121Q656 1173 671.5 1224.0Q687 1275 709 1323Q756 1424 829.0 1505.0Q902 1586 993.5 1643.0Q1085 1700 1190.0 1730.5Q1295 1761 1406 1761Z" style="fill:#9b9b9b;stroke:none" transform="scale(1,-1) translate(0,-256)" /></svg>