<?xml version="1.0" encoding="utf-8" ?>
<svg baseProfile="full" height="256" version="1.1" width="256" xmlns="http://www.w3.org/2000/svg" xmlns:ev="http://www.w3.org/2001/xml-events" xmlns:xlink="http://www.w3.org/1999/xlink"><defs /><path d="M1679 795Q1679 775 1673.5 755.0Q1668 735 1664 715Q1654 669 1630.5 630.0Q1607 591 1572.5 563.0Q1538 535 1495.5 519.0Q1453 503 1406 503Q1359 503 1316.5 519.0Q1274 535 1239.5 563.0Q1205 591 1181.5 630.0Q1158 669 1148 715Q1144 735 1138.5 755.0Q1133 775 1133 795Q1133 827 1152.0 851.5Q1171 876 1202 884Q1251 898 1303.0 903.5Q1355 909 1406 909Q1457 909 1509.0 903.5Q1561 898 1610 884Q1641 876 1660.0 851.5Q1679 827 1679 795Z" style="fill:#f70a8d;stroke:none" transform="scale(1,-1) translate(0,-256)" /></svg>