<?xml version="1.0" encoding="utf-8" ?>
<svg baseProfile="full" height="256" version="1.1" width="256" xmlns="http://www.w3.org/2000/svg" xmlns:ev="http://www.w3.org/2001/xml-events" xmlns:xlink="http://www.w3.org/1999/xlink"><defs /><path d="M1212 1213Q1221 1237 1235.0 1268.5Q1249 1300 1266.5 1331.0Q1284 1362 1303.5 1389.0Q1323 1416 1343 1431Q1360 1422 1376.0 1411.5Q1392 1401 1408 1390Q1355 1352 1311.0 1304.5Q1267 1257 1234 1200ZM1476 324Q1444 342 1411 365Q1465 403 1511.0 449.0Q1557 495 1591 551L1621 534Q1610 510 1593.5 480.0Q1577 450 1558.0 420.5Q1539 391 1518.0 365.5Q1497 340 1476 324ZM771 421Q722 421 675.0 425.0Q628 429 580 437Q566 439 552.5 441.0Q539 443 525 443Q516 443 507.0 442.0Q498 441 490 438Q483 455 476.5 472.0Q470 489 465 506Q476 506 493.0 511.0Q510 516 527 516Q546 516 569 511Q612 503 656.0 499.0Q700 495 744 494Q762 456 785 421ZM1120 145Q1036 124 951.5 108.0Q867 92 780 92Q769 92 758.0 92.5Q747 93 736 94Q716 112 697.5 130.5Q679 149 662 169Q688 167 713.0 166.0Q738 165 764 165Q829 165 893.5 172.0Q958 179 1021 195Q1045 181 1069.5 168.5Q1094 156 1120 145ZM2146 169Q2129 149 2110.5 130.0Q2092 111 2072 93H2049Q1967 93 1889.0 103.0Q1811 113 1733 136Q1723 139 1713.0 142.0Q1703 145 1693 147Q1718 158 1741.5 170.0Q1765 182 1788 196Q1852 179 1917.0 172.0Q1982 165 2048 165Q2073 165 2097.0 166.0Q2121 167 2146 169ZM2318 438Q2310 440 2302.5 441.0Q2295 442 2287 442Q2273 442 2259.5 439.5Q2246 437 2232 435Q2188 427 2145.0 423.0Q2102 419 2057 419L2021 420Q2043 454 2063 492Q2143 493 2224 507Q2241 509 2256.5 511.5Q2272 514 2289 514Q2315 514 2344 506Q2338 489 2331.5 472.0Q2325 455 2318 438ZM1614 1135Q1575 1124 1542.0 1097.0Q1509 1070 1483.5 1035.0Q1458 1000 1439.5 960.0Q1421 920 1412 883Q1412 900 1411.0 916.0Q1410 932 1406 948Q1421 1026 1466.5 1092.0Q1512 1158 1580 1200Q1590 1184 1598.0 1168.0Q1606 1152 1614 1135ZM1407 767Q1399 730 1381.5 698.0Q1364 666 1340.0 639.0Q1316 612 1286.5 589.0Q1257 566 1226 548Q1216 563 1207.5 578.5Q1199 594 1192 611Q1222 624 1256.0 644.5Q1290 665 1320.0 692.0Q1350 719 1372.0 751.0Q1394 783 1401 818Q1401 792 1407 767Z" style="fill:#d3883e;stroke:none" transform="scale(1,-1) translate(0,-256)" /></svg>