<?xml version="1.0" encoding="utf-8" ?>
<svg baseProfile="full" height="256" version="1.1" width="256" xmlns="http://www.w3.org/2000/svg" xmlns:ev="http://www.w3.org/2001/xml-events" xmlns:xlink="http://www.w3.org/1999/xlink"><defs /><path d="M2318 438Q2360 427 2386.0 392.5Q2412 358 2412 315Q2412 262 2384.5 234.0Q2357 206 2316.5 192.5Q2276 179 2230.0 175.5Q2184 172 2147 169H2145Q2077 89 1992.0 27.0Q1907 -35 1811.0 -77.5Q1715 -120 1611.5 -142.0Q1508 -164 1404 -164Q1299 -164 1196.0 -141.5Q1093 -119 997.5 -76.5Q902 -34 817.0 28.0Q732 90 662 169H666H661H662Q623 172 580.5 176.5Q538 181 500 192Q455 204 427.5 235.5Q400 267 400 315Q400 358 424.5 392.0Q449 426 490 438Q452 535 431.0 629.5Q410 724 410 829Q410 970 453.5 1094.0Q497 1218 579.0 1310.5Q661 1403 778.0 1456.5Q895 1510 1041 1510Q1141 1510 1234.0 1479.0Q1327 1448 1408 1390Q1488 1448 1581.0 1478.0Q1674 1508 1773 1508Q1838 1508 1901.5 1493.5Q1965 1479 2025 1453Q2118 1411 2188.0 1348.0Q2258 1285 2305.5 1206.5Q2353 1128 2377.0 1035.5Q2401 943 2401 843Q2401 738 2378.5 636.5Q2356 535 2318 438ZM1772 1253Q1721 1253 1672.5 1239.0Q1624 1225 1581 1199Q1627 1119 1646.5 1040.0Q1666 961 1666 869Q1666 823 1663.5 783.0Q1661 743 1653.5 705.0Q1646 667 1631.5 629.0Q1617 591 1592 551Q1616 535 1655.5 516.0Q1695 497 1739.0 480.0Q1783 463 1825.0 449.5Q1867 436 1896 432Q1927 427 1958.0 424.0Q1989 421 2021 420Q2049 463 2072.5 515.5Q2096 568 2113.0 624.0Q2130 680 2139.0 736.5Q2148 793 2148 845Q2148 907 2133.5 964.5Q2119 1022 2090.5 1070.5Q2062 1119 2018.0 1158.0Q1974 1197 1916 1222Q1846 1253 1772 1253ZM1041 1254Q1003 1254 966.5 1245.5Q930 1237 896 1222Q837 1196 792.5 1157.5Q748 1119 718.0 1069.5Q688 1020 673.0 962.5Q658 905 658 842Q658 793 667.5 736.0Q677 679 694.0 623.0Q711 567 734.5 514.5Q758 462 785 422L786 421Q841 422 899.0 431.5Q957 441 1014.0 457.5Q1071 474 1125.0 496.5Q1179 519 1226 548Q1200 591 1184.0 628.5Q1168 666 1159.5 704.5Q1151 743 1148.5 783.5Q1146 824 1146 873Q1146 961 1167.5 1042.0Q1189 1123 1234 1200Q1229 1204 1223.0 1206.5Q1217 1209 1212 1212V1213Q1130 1254 1041 1254ZM1404 88Q1504 88 1604.0 115.0Q1704 142 1789 196Q1741 208 1691.0 225.0Q1641 242 1592.5 263.5Q1544 285 1498.0 310.5Q1452 336 1411 364Q1370 335 1322.0 309.0Q1274 283 1223.5 261.5Q1173 240 1121.5 223.0Q1070 206 1021 195Q1109 143 1205.5 115.5Q1302 88 1404 88Z" style="fill:#ffb02e;stroke:none" transform="scale(1,-1) translate(0,-256)" /></svg>