<?xml version="1.0" encoding="utf-8" ?>
<svg baseProfile="full" height="256" version="1.1" width="256" xmlns="http://www.w3.org/2000/svg" xmlns:ev="http://www.w3.org/2001/xml-events" xmlns:xlink="http://www.w3.org/1999/xlink"><defs /><path d="M933 1379Q933 1367 924.0 1358.0Q915 1349 903 1349Q890 1349 881.5 1357.5Q873 1366 873 1379Q873 1392 881.5 1400.5Q890 1409 903 1409Q915 1409 924.0 1400.0Q933 1391 933 1379ZM2053 1359Q2053 1345 2042.5 1335.0Q2032 1325 2018 1325Q2004 1325 1994.0 1335.0Q1984 1345 1984 1359Q1984 1373 1994.0 1383.5Q2004 1394 2018 1394Q2032 1394 2042.5 1383.5Q2053 1373 2053 1359ZM2380 871Q2380 845 2361.0 826.0Q2342 807 2316 807Q2290 807 2271.0 826.0Q2252 845 2252 871Q2252 897 2271.0 916.0Q2290 935 2316 935Q2342 935 2361.0 916.0Q2380 897 2380 871ZM1271 879Q1298 879 1316.5 897.5Q1335 916 1335 943Q1335 969 1316.0 988.0Q1297 1007 1271 1007Q1245 1007 1226.5 988.0Q1208 969 1208 943Q1208 917 1226.5 898.0Q1245 879 1271 879ZM1044 43Q1044 17 1025.0 -2.0Q1006 -21 980 -21Q954 -21 935.0 -2.0Q916 17 916 43Q916 69 935.0 88.0Q954 107 980 107Q1006 107 1025.0 88.0Q1044 69 1044 43ZM1678 -79Q1697 -79 1710.5 -66.0Q1724 -53 1724 -34Q1724 -15 1710.5 -1.5Q1697 12 1678 12Q1658 12 1645.5 -1.5Q1633 -15 1633 -34Q1633 -53 1646.0 -66.0Q1659 -79 1678 -79ZM1503 953Q1516 953 1524.5 962.0Q1533 971 1533 984Q1533 996 1524.0 1005.0Q1515 1014 1503 1014Q1491 1014 1482.0 1005.0Q1473 996 1473 984Q1473 971 1481.5 962.0Q1490 953 1503 953ZM2304 593Q2304 580 2295.5 571.0Q2287 562 2274 562Q2261 562 2252.5 571.0Q2244 580 2244 593Q2244 605 2253.0 614.0Q2262 623 2274 623Q2286 623 2295.0 614.0Q2304 605 2304 593ZM556 1043Q578 1043 594.0 1059.0Q610 1075 610 1097Q610 1119 594.0 1135.0Q578 1151 556 1151Q533 1151 517.5 1135.5Q502 1120 502 1097Q502 1074 517.5 1058.5Q533 1043 556 1043ZM1208 -133Q1208 -126 1202 -123L1123 -93Q1122 -92 1119 -92Q1111 -92 1110.0 -97.5Q1109 -103 1109 -108Q1109 -131 1125.0 -146.5Q1141 -162 1163 -162Q1168 -162 1176.0 -159.5Q1184 -157 1191.0 -153.5Q1198 -150 1203.0 -144.5Q1208 -139 1208 -133ZM2210 1309Q2210 1318 2220.5 1320.5Q2231 1323 2238 1323Q2261 1323 2277.0 1307.5Q2293 1292 2293 1269Q2293 1265 2292.0 1258.5Q2291 1252 2288.5 1246.0Q2286 1240 2282.0 1235.5Q2278 1231 2273 1231Q2270 1231 2259.5 1242.0Q2249 1253 2238.0 1267.0Q2227 1281 2218.5 1293.5Q2210 1306 2210 1309ZM675 717Q671 717 667.5 714.0Q664 711 664 707Q664 704 666.5 692.0Q669 680 672.0 666.0Q675 652 677.5 639.0Q680 626 681 622Q683 613 692 613Q699 613 705.5 618.5Q712 624 716.5 632.0Q721 640 723.5 649.0Q726 658 726 664Q726 684 711.0 700.5Q696 717 675 717Z" style="fill:#ffdea7;stroke:none" transform="scale(1,-1) translate(0,-256)" /></svg>