<?xml version="1.0" encoding="utf-8" ?>
<svg baseProfile="full" height="256" version="1.1" width="256" xmlns="http://www.w3.org/2000/svg" xmlns:ev="http://www.w3.org/2001/xml-events" xmlns:xlink="http://www.w3.org/1999/xlink"><defs /><path d="M615 1581Q615 1611 626.5 1637.0Q638 1663 657.5 1682.5Q677 1702 703.0 1713.5Q729 1725 759 1725H2053Q2083 1725 2109.0 1713.5Q2135 1702 2154.5 1682.5Q2174 1663 2185.5 1637.0Q2197 1611 2197 1581V-144Q2197 -174 2185.5 -200.0Q2174 -226 2154.5 -245.5Q2135 -265 2109.0 -276.0Q2083 -287 2053 -287H759Q729 -287 703.0 -276.0Q677 -265 657.5 -245.5Q638 -226 626.5 -200.0Q615 -174 615 -144Z" style="fill:#f70a8d;stroke:none" transform="scale(1,-1) translate(0,-256)" /></svg>