<?xml version="1.0" encoding="utf-8" ?>
<svg baseProfile="full" height="256" version="1.1" width="256" xmlns="http://www.w3.org/2000/svg" xmlns:ev="http://www.w3.org/2001/xml-events" xmlns:xlink="http://www.w3.org/1999/xlink"><defs /><path d="M400 1575Q400 1606 412.0 1633.5Q424 1661 444.0 1681.0Q464 1701 491.5 1713.0Q519 1725 550 1725H1400Q1431 1725 1458.0 1713.0Q1485 1701 1505.5 1680.5Q1526 1660 1538.0 1633.0Q1550 1606 1550 1575V788Q1550 688 1593.0 604.5Q1636 521 1720 466Q1778 428 1838.0 407.0Q1898 386 1957.5 371.0Q2017 356 2074.5 341.0Q2132 326 2184.0 301.0Q2236 276 2280.5 235.0Q2325 194 2359 126Q2385 73 2399.0 16.0Q2413 -41 2413 -100H1222L1037 295H400Z" style="fill:#ca0b4a;stroke:none" transform="scale(1,-1) translate(0,-256)" /></svg>