<?xml version="1.0" encoding="utf-8" ?>
<svg baseProfile="full" height="256" version="1.1" width="256" xmlns="http://www.w3.org/2000/svg" xmlns:ev="http://www.w3.org/2001/xml-events" xmlns:xlink="http://www.w3.org/1999/xlink"><defs /><path d="M831 1150Q801 1150 780.0 1129.0Q759 1108 759 1078V431Q759 402 780.5 381.0Q802 360 831 360H1765Q1794 360 1815.5 381.0Q1837 402 1837 431V1078Q1837 1108 1816.0 1129.0Q1795 1150 1765 1150ZM1765 1222Q1795 1222 1821.0 1210.5Q1847 1199 1866.5 1179.5Q1886 1160 1897.5 1134.0Q1909 1108 1909 1078V431Q1909 401 1897.5 375.0Q1886 349 1866.5 329.5Q1847 310 1821.0 299.0Q1795 288 1765 288H831Q801 288 775.0 299.0Q749 310 729.5 329.5Q710 349 698.5 375.0Q687 401 687 431V1078Q687 1108 698.5 1134.0Q710 1160 729.5 1179.5Q749 1199 775.0 1210.5Q801 1222 831 1222Z" style="fill:#321b41;stroke:none" transform="scale(1,-1) translate(0,-256)" /></svg>