<?xml version="1.0" encoding="utf-8" ?>
<svg baseProfile="full" height="256" version="1.1" width="256" xmlns="http://www.w3.org/2000/svg" xmlns:ev="http://www.w3.org/2001/xml-events" xmlns:xlink="http://www.w3.org/1999/xlink"><defs /><path d="M472 1222Q472 1267 489.0 1306.0Q506 1345 535.0 1374.5Q564 1404 603.0 1421.0Q642 1438 687 1438H2125Q2170 1438 2209.0 1421.0Q2248 1404 2277.0 1374.5Q2306 1345 2323.0 1306.0Q2340 1267 2340 1222V288Q2340 243 2323.0 204.0Q2306 165 2277.0 135.5Q2248 106 2209.0 89.0Q2170 72 2125 72H687Q642 72 603.0 89.0Q564 106 535.0 135.5Q506 165 489.0 204.0Q472 243 472 288Z" style="fill:#9b9b9b;stroke:none" transform="scale(1,-1) translate(0,-256)" /></svg>