<?xml version="1.0" encoding="utf-8" ?>
<svg baseProfile="full" height="256" version="1.1" width="256" xmlns="http://www.w3.org/2000/svg" xmlns:ev="http://www.w3.org/2001/xml-events" xmlns:xlink="http://www.w3.org/1999/xlink"><defs /><path d="M1810 1725Q1827 1725 1839.5 1716.0Q1852 1707 1859 1692L2096 1142Q2136 1048 2136 947Q2136 876 2117.0 810.0Q2098 744 2062.5 686.5Q2027 629 1976.0 582.0Q1925 535 1862 504L1506 326Q1487 317 1476.5 299.5Q1466 282 1466 261V-195H1721Q1744 -195 1758.5 -210.5Q1773 -226 1773 -248Q1773 -270 1756.5 -285.0Q1740 -300 1719 -300H1102Q1079 -300 1064.0 -285.0Q1049 -270 1049 -247Q1049 -225 1066.0 -210.0Q1083 -195 1104 -195H1355V262Q1355 282 1344.0 300.0Q1333 318 1315 327L961 503Q898 534 847.5 581.5Q797 629 761.0 686.5Q725 744 706.0 810.5Q687 877 687 947Q687 1048 727 1142L964 1692Q971 1707 983.5 1716.0Q996 1725 1013 1725H1810Z" style="fill:#aeddff;stroke:none" transform="scale(1,-1) translate(0,-256)" /></svg>