<?xml version="1.0" encoding="utf-8" ?>
<svg baseProfile="full" height="256" version="1.1" width="256" xmlns="http://www.w3.org/2000/svg" xmlns:ev="http://www.w3.org/2001/xml-events" xmlns:xlink="http://www.w3.org/1999/xlink"><defs /><path d="M1924 1150Q1956 1150 1976.5 1128.0Q1997 1106 2008.5 1074.5Q2020 1043 2024.0 1009.0Q2028 975 2028 950Q2028 895 2013.0 843.5Q1998 792 1970.0 747.0Q1942 702 1902.0 665.0Q1862 628 1813 604L1492 444Q1452 425 1411 425Q1370 425 1330 444L1010 604Q961 629 921.5 665.5Q882 702 854.0 747.5Q826 793 811.0 844.5Q796 896 796 951Q796 975 800.0 1009.5Q804 1044 815.0 1075.0Q826 1106 846.5 1128.0Q867 1150 899 1150H1726L1832 1084L1879 1150Z" style="fill:#bb1d80;stroke:none" transform="scale(1,-1) translate(0,-256)" /></svg>