<?xml version="1.0" encoding="utf-8" ?>
<svg baseProfile="full" height="256" version="1.1" width="256" xmlns="http://www.w3.org/2000/svg" xmlns:ev="http://www.w3.org/2001/xml-events" xmlns:xlink="http://www.w3.org/1999/xlink"><defs /><path d="M1478 280Q1502 255 1527.5 224.0Q1553 193 1574.0 158.5Q1595 124 1608.5 87.0Q1622 50 1622 13Q1622 -24 1607.0 -61.5Q1592 -99 1568.5 -133.5Q1545 -168 1516.0 -198.0Q1487 -228 1460 -251Q1449 -260 1439.0 -265.5Q1429 -271 1415 -271Q1401 -271 1391.0 -265.5Q1381 -260 1370 -251Q1343 -229 1311.5 -199.0Q1280 -169 1253.0 -134.5Q1226 -100 1208.0 -62.5Q1190 -25 1190 13Q1190 50 1203.5 87.0Q1217 124 1238.0 158.5Q1259 193 1284.5 224.0Q1310 255 1334 280V562Q1334 606 1307.5 642.5Q1281 679 1241.0 714.5Q1201 750 1154.5 789.0Q1108 828 1068.0 878.5Q1028 929 1001.5 995.0Q975 1061 975 1150Q975 1195 979.0 1228.5Q983 1262 993.0 1291.5Q1003 1321 1021.0 1350.0Q1039 1379 1067 1414Q1107 1465 1154 1510Q1191 1545 1228.0 1579.5Q1265 1614 1302 1649Q1319 1665 1336.0 1681.5Q1353 1698 1370 1712Q1386 1725 1408 1725Q1431 1725 1447 1712Q1464 1698 1480.0 1681.5Q1496 1665 1513 1649Q1549 1614 1585.5 1579.5Q1622 1545 1658 1510Q1704 1465 1745 1414Q1773 1379 1790.5 1350.5Q1808 1322 1818.5 1292.0Q1829 1262 1833.0 1228.0Q1837 1194 1837 1150Q1837 1061 1810.5 995.0Q1784 929 1744.0 878.5Q1704 828 1657.5 789.0Q1611 750 1571.0 714.5Q1531 679 1504.5 642.5Q1478 606 1478 562Z" style="fill:#f9c23c;stroke:none" transform="scale(1,-1) translate(0,-256)" /></svg>