<?xml version="1.0" encoding="utf-8" ?>
<svg baseProfile="full" height="256" version="1.1" width="256" xmlns="http://www.w3.org/2000/svg" xmlns:ev="http://www.w3.org/2001/xml-events" xmlns:xlink="http://www.w3.org/1999/xlink"><defs /><path d="M1098 -66Q1049 -66 1006.0 -50.5Q963 -35 927.5 -7.0Q892 21 866.5 59.5Q841 98 826 144Q815 179 815 212Q815 219 816.5 228.5Q818 238 822.0 245.5Q826 253 832.5 258.5Q839 264 849 264Q862 264 874.5 247.0Q887 230 904.0 210.0Q921 190 945.0 173.0Q969 156 1005 156Q1042 156 1075.0 175.0Q1108 194 1132.5 223.5Q1157 253 1171.0 289.0Q1185 325 1185 360Q1185 418 1155.0 470.0Q1125 522 1078.0 561.5Q1031 601 973.5 624.0Q916 647 862 647Q814 647 777.5 630.5Q741 614 715.5 584.5Q690 555 677.0 515.5Q664 476 664 431Q664 421 665.0 412.0Q666 403 666 393Q666 383 663.0 371.5Q660 360 646 360Q601 360 568.0 380.5Q535 401 513.5 433.5Q492 466 482.0 506.5Q472 547 472 586Q472 672 501.5 740.0Q531 808 583.0 855.0Q635 902 706.5 926.5Q778 951 861 951Q931 951 1000.0 932.5Q1069 914 1130.5 879.5Q1192 845 1243.5 795.5Q1295 746 1330 685Q1349 653 1362.0 618.0Q1375 583 1386 548Q1410 638 1460.0 712.5Q1510 787 1578.5 840.0Q1647 893 1731.5 922.0Q1816 951 1910 951Q1993 951 2064.5 926.5Q2136 902 2188.0 855.0Q2240 808 2269.5 740.0Q2299 672 2299 586Q2299 547 2289.0 506.5Q2279 466 2257.5 433.5Q2236 401 2203.0 380.5Q2170 360 2125 360Q2114 360 2110.0 368.5Q2106 377 2105.0 389.0Q2104 401 2105.5 413.0Q2107 425 2107 431Q2107 476 2094.0 515.5Q2081 555 2055.5 584.5Q2030 614 1993.5 630.5Q1957 647 1909 647Q1855 647 1797.5 624.0Q1740 601 1693.0 561.5Q1646 522 1616.0 470.0Q1586 418 1586 360Q1586 325 1600.0 289.0Q1614 253 1638.5 223.5Q1663 194 1696.0 175.0Q1729 156 1766 156Q1802 156 1826.0 173.0Q1850 190 1867.0 210.0Q1884 230 1896.5 247.0Q1909 264 1922 264Q1932 264 1938.5 258.5Q1945 253 1949.0 245.5Q1953 238 1954.5 228.5Q1956 219 1956 212Q1956 179 1945 144Q1930 98 1904.5 59.5Q1879 21 1843.5 -7.0Q1808 -35 1765.0 -50.5Q1722 -66 1673 -66Q1618 -66 1572.0 -46.0Q1526 -26 1490.0 7.5Q1454 41 1427.5 85.5Q1401 130 1386 180Q1370 131 1344.0 86.5Q1318 42 1281.5 8.0Q1245 -26 1199.0 -46.0Q1153 -66 1098 -66Z" style="fill:#ff9f2e;stroke:none" transform="scale(1,-1) translate(0,-256)" /></svg>