<?xml version="1.0" encoding="utf-8" ?>
<svg baseProfile="full" height="256" version="1.1" width="256" xmlns="http://www.w3.org/2000/svg" xmlns:ev="http://www.w3.org/2001/xml-events" xmlns:xlink="http://www.w3.org/1999/xlink"><defs /><path d="M408 -70Q402 -44 400.5 -18.5Q399 7 399 33Q399 56 399.5 77.5Q400 99 400 122L907 624Q929 646 958.0 658.0Q987 670 1018 670Q1049 670 1077.0 658.5Q1105 647 1127 626L1282 479Q1292 469 1306 469Q1321 469 1332 480L2392 1543Q2405 1511 2408.5 1477.0Q2412 1443 2412 1408V1352L1415 367Q1393 345 1364.0 333.0Q1335 321 1304 321Q1274 321 1246.0 332.5Q1218 344 1196 364L1042 509Q1032 519 1017 519Q1003 519 992 508Z" style="fill:#f92f60;stroke:none" transform="scale(1,-1) translate(0,-256)" /></svg>