<?xml version="1.0" encoding="utf-8" ?>
<svg baseProfile="full" height="256" version="1.1" width="256" xmlns="http://www.w3.org/2000/svg" xmlns:ev="http://www.w3.org/2001/xml-events" xmlns:xlink="http://www.w3.org/1999/xlink"><defs /><path d="M400 1438Q400 1497 422.5 1549.5Q445 1602 484.0 1641.0Q523 1680 575.5 1702.5Q628 1725 687 1725H2125Q2169 1725 2210.5 1712.0Q2252 1699 2287.0 1675.0Q2322 1651 2349.5 1617.0Q2377 1583 2393 1542L2351 1414L2412 1353V0Q2412 -59 2389.5 -111.5Q2367 -164 2328.0 -203.0Q2289 -242 2236.5 -264.5Q2184 -287 2125 -287H687Q637 -287 592.0 -271.0Q547 -255 510.0 -226.0Q473 -197 446.5 -156.5Q420 -116 408 -68L456 68L400 119Z" style="fill:#e1d8ec;stroke:none" transform="scale(1,-1) translate(0,-256)" /></svg>