<?xml version="1.0" encoding="utf-8" ?>
<svg baseProfile="full" height="256" version="1.1" width="256" xmlns="http://www.w3.org/2000/svg" xmlns:ev="http://www.w3.org/2001/xml-events" xmlns:xlink="http://www.w3.org/1999/xlink"><defs /><path d="M1957 664Q1921 664 1896.0 689.5Q1871 715 1871 751Q1871 769 1878.0 784.5Q1885 800 1896.5 811.5Q1908 823 1923.5 830.0Q1939 837 1957 837Q1975 837 1990.5 830.0Q2006 823 2017.5 811.5Q2029 800 2036.0 784.5Q2043 769 2043 751Q2043 715 2018.0 689.5Q1993 664 1957 664ZM2161 258Q2132 258 2106.5 269.0Q2081 280 2062.0 299.0Q2043 318 2032.0 343.5Q2021 369 2021 398Q2021 427 2032.0 452.5Q2043 478 2062.0 497.5Q2081 517 2106.5 528.0Q2132 539 2161 539Q2190 539 2215.5 528.0Q2241 517 2260.0 498.0Q2279 479 2290.0 453.0Q2301 427 2301 398Q2301 369 2290.0 343.5Q2279 318 2260.0 299.0Q2241 280 2215.5 269.0Q2190 258 2161 258ZM1947 502Q1947 476 1929.0 458.0Q1911 440 1885 440Q1859 440 1841.0 458.0Q1823 476 1823 502Q1823 528 1841.0 546.0Q1859 564 1885 564Q1911 564 1929.0 546.0Q1947 528 1947 502Z" style="fill:#a56953;stroke:none" transform="scale(1,-1) translate(0,-256)" /></svg>