<?xml version="1.0" encoding="utf-8" ?>
<svg baseProfile="full" height="256" version="1.1" width="256" xmlns="http://www.w3.org/2000/svg" xmlns:ev="http://www.w3.org/2001/xml-events" xmlns:xlink="http://www.w3.org/1999/xlink"><defs /><path d="M2323 646Q2323 597 2333.0 549.5Q2343 502 2343 453Q2343 422 2336 397Q2328 366 2311.5 339.5Q2295 313 2275.5 288.5Q2256 264 2235.5 239.5Q2215 215 2200 188Q2185 162 2173.5 132.0Q2162 102 2150.0 72.5Q2138 43 2123.5 15.5Q2109 -12 2087 -34Q2066 -55 2038.5 -70.5Q2011 -86 1981.5 -99.0Q1952 -112 1922.0 -123.0Q1892 -134 1865 -147Q1853 -153 1842.5 -156.5Q1832 -160 1818 -160Q1801 -160 1785.0 -156.0Q1769 -152 1753.5 -147.5Q1738 -143 1721.5 -139.0Q1705 -135 1689 -135Q1666 -135 1645.0 -140.5Q1624 -146 1601 -146Q1552 -146 1504.0 -135.5Q1456 -125 1407 -125Q1358 -125 1310.0 -135.5Q1262 -146 1213 -146Q1191 -146 1169.5 -140.5Q1148 -135 1126 -135Q1109 -135 1093.0 -139.0Q1077 -143 1061.5 -147.5Q1046 -152 1029.5 -156.0Q1013 -160 997 -160Q982 -160 972.0 -157.0Q962 -154 949 -147Q922 -134 892.0 -122.5Q862 -111 832.5 -98.5Q803 -86 776.0 -71.0Q749 -56 727 -34Q705 -12 690.0 15.5Q675 43 663.0 72.5Q651 102 640.0 131.5Q629 161 614 188Q594 222 569.5 251.0Q545 280 523.0 310.0Q501 340 486.0 374.0Q471 408 471 452Q471 501 481.5 549.0Q492 597 492 646Q492 695 481.5 743.0Q471 791 471 840Q471 870 478 895Q486 926 502.5 952.5Q519 979 538.5 1003.5Q558 1028 578.0 1052.5Q598 1077 614 1104Q630 1131 641.0 1160.5Q652 1190 663.5 1219.0Q675 1248 689.5 1275.5Q704 1303 727 1326Q750 1349 777.5 1363.5Q805 1378 834.5 1390.0Q864 1402 893.5 1413.0Q923 1424 950 1439Q977 1454 1001.5 1474.5Q1026 1495 1050.5 1514.5Q1075 1534 1101.5 1550.5Q1128 1567 1159 1575Q1184 1582 1214 1582Q1263 1582 1311.0 1571.5Q1359 1561 1408 1561Q1457 1561 1504.5 1571.5Q1552 1582 1601 1582Q1631 1582 1656 1575Q1687 1567 1713.5 1550.5Q1740 1534 1764.5 1514.5Q1789 1495 1813.5 1475.0Q1838 1455 1865 1439Q1892 1424 1922.0 1412.5Q1952 1401 1981.0 1389.5Q2010 1378 2037.5 1363.0Q2065 1348 2088 1326Q2110 1304 2124.5 1276.5Q2139 1249 2150.5 1219.5Q2162 1190 2173.5 1160.0Q2185 1130 2200 1104Q2215 1077 2235.5 1052.5Q2256 1028 2275.5 1003.5Q2295 979 2311.5 952.5Q2328 926 2336 895Q2343 870 2343 839Q2343 790 2333.0 742.5Q2323 695 2323 646Z" style="fill:#f3ad61;stroke:none" transform="scale(1,-1) translate(0,-256)" /></svg>