<?xml version="1.0" encoding="utf-8" ?>
<svg baseProfile="full" height="256" version="1.1" width="256" xmlns="http://www.w3.org/2000/svg" xmlns:ev="http://www.w3.org/2001/xml-events" xmlns:xlink="http://www.w3.org/1999/xlink"><defs /><path d="M1380 1376Q1405 1376 1422.5 1358.5Q1440 1341 1440 1316Q1440 1289 1419 1271L1306 1176Q1288 1161 1267 1161Q1243 1161 1225.5 1179.0Q1208 1197 1208 1221Q1208 1248 1229 1266L1342 1362Q1358 1376 1380 1376ZM1713 1062V1210Q1713 1234 1730.5 1251.5Q1748 1269 1772 1269Q1796 1269 1813.5 1251.5Q1831 1234 1831 1210V1062Q1831 1038 1813.5 1020.5Q1796 1003 1772 1003Q1748 1003 1730.5 1020.5Q1713 1038 1713 1062ZM1224 709Q1249 709 1266.0 726.5Q1283 744 1283 769Q1283 779 1275.0 801.0Q1267 823 1256.0 847.5Q1245 872 1234.5 894.0Q1224 916 1218 928Q1210 944 1196.5 953.5Q1183 963 1165 963Q1140 963 1122.0 945.5Q1104 928 1104 903Q1104 893 1112.0 871.0Q1120 849 1131.0 825.0Q1142 801 1153.0 778.5Q1164 756 1170 745Q1178 728 1191.5 718.5Q1205 709 1224 709ZM637 705Q637 680 655.0 663.0Q673 646 697 646Q708 646 730.5 656.0Q753 666 777.5 678.5Q802 691 823.5 703.5Q845 716 856 722Q870 730 879.0 744.0Q888 758 888 775Q888 799 870.0 816.0Q852 833 828 833Q813 833 801 827L669 758Q655 750 646.0 735.5Q637 721 637 705ZM769 1020Q769 995 785.5 978.0Q802 961 827 961Q857 961 875 985L963 1104Q975 1121 975 1139Q975 1163 957.5 1180.5Q940 1198 916 1198Q886 1198 868 1174L780 1055Q769 1039 769 1020ZM2158 633Q2182 633 2200.0 650.5Q2218 668 2218 692Q2218 713 2203 731L2108 844Q2090 865 2063 865Q2038 865 2021.0 847.0Q2004 829 2004 805Q2004 784 2018 767L2113 654Q2131 633 2158 633ZM2035 229Q2011 229 1993.5 246.0Q1976 263 1976 287Q1976 314 1995 331L2103 431Q2121 447 2143 447Q2167 447 2185.0 430.0Q2203 413 2203 388Q2203 362 2184 345L2075 244Q2058 229 2035 229ZM717 446Q693 446 675.5 428.5Q658 411 658 387Q658 371 666 357L740 229Q748 215 761.5 207.5Q775 200 791 200Q815 200 833.0 217.0Q851 234 851 259Q851 275 843 289L769 417Q751 446 717 446ZM1773 756Q1773 731 1755.0 714.0Q1737 697 1713 697Q1702 697 1680.5 705.0Q1659 713 1634.5 723.5Q1610 734 1588.0 744.5Q1566 755 1554 760Q1537 768 1527.5 782.0Q1518 796 1518 815Q1518 840 1536.0 857.0Q1554 874 1578 874Q1588 874 1610.0 866.0Q1632 858 1656.5 847.5Q1681 837 1703.0 826.5Q1725 816 1737 811Q1754 803 1763.5 789.0Q1773 775 1773 756Z" style="fill:#ffdea7;stroke:none" transform="scale(1,-1) translate(0,-256)" /></svg>