<?xml version="1.0" encoding="utf-8" ?>
<svg baseProfile="full" height="256" version="1.1" width="256" xmlns="http://www.w3.org/2000/svg" xmlns:ev="http://www.w3.org/2001/xml-events" xmlns:xlink="http://www.w3.org/1999/xlink"><defs /><path d="M615 1617Q615 1639 623.5 1658.5Q632 1678 647.0 1693.0Q662 1708 681.5 1716.5Q701 1725 723 1725H831V0H2197V-72H759Q729 -72 708.0 -93.0Q687 -114 687 -144Q687 -173 708.5 -194.0Q730 -215 759 -215H2190Q2179 -247 2151.0 -267.0Q2123 -287 2089 -287H723Q701 -287 681.5 -278.5Q662 -270 647.0 -255.0Q632 -240 623.5 -220.5Q615 -201 615 -179Z" style="fill:#990838;stroke:none" transform="scale(1,-1) translate(0,-256)" /></svg>