<?xml version="1.0" encoding="utf-8" ?>
<svg baseProfile="full" height="256" version="1.1" width="256" xmlns="http://www.w3.org/2000/svg" xmlns:ev="http://www.w3.org/2001/xml-events" xmlns:xlink="http://www.w3.org/1999/xlink"><defs /><path d="M1262 1222Q1292 1222 1313.0 1201.0Q1334 1180 1334 1150V288Q1334 258 1313.0 237.0Q1292 216 1262 216H1118Q1089 216 1068.0 237.5Q1047 259 1047 288V1150Q1047 1179 1068.0 1200.5Q1089 1222 1118 1222ZM1693 1222Q1723 1222 1744.0 1201.0Q1765 1180 1765 1150V288Q1765 258 1744.0 237.0Q1723 216 1693 216H1550Q1520 216 1499.0 237.0Q1478 258 1478 288V1150Q1478 1180 1499.0 1201.0Q1520 1222 1550 1222Z" style="fill:#ffffff;stroke:none" transform="scale(1,-1) translate(0,-256)" /></svg>