<?xml version="1.0" encoding="utf-8" ?>
<svg baseProfile="full" height="256" version="1.1" width="256" xmlns="http://www.w3.org/2000/svg" xmlns:ev="http://www.w3.org/2001/xml-events" xmlns:xlink="http://www.w3.org/1999/xlink"><defs /><path d="M1402 1725Q1455 1725 1499.5 1698.5Q1544 1672 1569 1625L2029 761Q2074 676 2099.0 592.5Q2124 509 2124 412Q2124 315 2098.5 225.5Q2073 136 2027.0 58.0Q1981 -20 1916.5 -83.5Q1852 -147 1773.5 -192.0Q1695 -237 1605.5 -262.0Q1516 -287 1419 -287Q1269 -287 1136.0 -233.5Q1003 -180 903.0 -85.5Q803 9 745.0 139.0Q687 269 687 422Q687 521 713.0 606.0Q739 691 785 777L1235 1625Q1260 1672 1304.5 1698.5Q1349 1725 1402 1725Z" style="fill:#26c9fc;stroke:none" transform="scale(1,-1) translate(0,-256)" /></svg>