<?xml version="1.0" encoding="utf-8" ?>
<svg baseProfile="full" height="256" version="1.1" width="256" xmlns="http://www.w3.org/2000/svg" xmlns:ev="http://www.w3.org/2001/xml-events" xmlns:xlink="http://www.w3.org/1999/xlink"><defs /><path d="M610 720H2202Q2234 720 2251.0 699.5Q2268 679 2268 649Q2268 564 2243.0 488.5Q2218 413 2173.5 349.0Q2129 285 2068.5 233.5Q2008 182 1937.0 146.5Q1866 111 1787.5 92.0Q1709 73 1629 73H1621V-144H1686Q1717 -144 1733.0 -158.5Q1749 -173 1756.0 -194.5Q1763 -216 1763.5 -241.0Q1764 -266 1763 -288H1047V-222Q1047 -190 1061.0 -173.5Q1075 -157 1096.5 -150.5Q1118 -144 1143.0 -144.0Q1168 -144 1190 -144V73Q1108 73 1028.0 92.0Q948 111 876.0 146.5Q804 182 743.0 233.0Q682 284 637.5 348.5Q593 413 568.0 490.0Q543 567 543 654Q543 683 562.0 701.5Q581 720 610 720Z" style="fill:#b4acbc;stroke:none" transform="scale(1,-1) translate(0,-256)" /></svg>