<?xml version="1.0" encoding="utf-8" ?>
<svg baseProfile="full" height="256" version="1.1" width="256" xmlns="http://www.w3.org/2000/svg" xmlns:ev="http://www.w3.org/2001/xml-events" xmlns:xlink="http://www.w3.org/1999/xlink"><defs /><path d="M1622 1510Q1681 1510 1733.5 1487.5Q1786 1465 1825.0 1426.0Q1864 1387 1886.5 1334.5Q1909 1282 1909 1223V1076H1908Q1907 1047 1895.5 1021.5Q1884 996 1864.5 977.5Q1845 959 1819.5 948.0Q1794 937 1765 937Q1736 937 1710.5 948.0Q1685 959 1665.5 977.5Q1646 996 1634.0 1021.5Q1622 1047 1622 1076Q1622 1097 1622.5 1122.5Q1623 1148 1617.0 1170.0Q1611 1192 1596.0 1206.5Q1581 1221 1549 1221Q1540 1221 1529.0 1217.5Q1518 1214 1507.5 1207.5Q1497 1201 1489.5 1192.0Q1482 1183 1481 1173L1462 863Q1461 851 1457.5 838.0Q1454 825 1447.5 814.5Q1441 804 1430.5 797.5Q1420 791 1405 791Q1391 791 1380.5 797.5Q1370 804 1363.0 814.5Q1356 825 1352.5 838.0Q1349 851 1348 863L1330 1174Q1329 1184 1321.5 1193.0Q1314 1202 1303.5 1208.5Q1293 1215 1282.0 1218.5Q1271 1222 1262 1222Q1230 1222 1215.0 1207.0Q1200 1192 1194.5 1170.0Q1189 1148 1189.5 1123.0Q1190 1098 1190 1077Q1190 1048 1178.0 1022.5Q1166 997 1146.5 978.5Q1127 960 1101.0 949.0Q1075 938 1047 938Q1018 938 992.0 948.5Q966 959 947.0 978.0Q928 997 916.5 1022.5Q905 1048 904 1077H903V1223Q903 1282 925.5 1334.5Q948 1387 987.0 1426.0Q1026 1465 1078.5 1487.5Q1131 1510 1190 1510Q1253 1510 1308.5 1484.0Q1364 1458 1406 1411Q1447 1459 1503.0 1484.5Q1559 1510 1622 1510ZM2125 1366Q2095 1366 2074.0 1387.0Q2053 1408 2053 1438Q2053 1468 2074.0 1489.0Q2095 1510 2125 1510Q2154 1510 2175.5 1488.5Q2197 1467 2197 1438Q2197 1409 2175.5 1387.5Q2154 1366 2125 1366ZM759 863Q759 833 738.0 812.0Q717 791 687 791Q658 791 636.5 812.5Q615 834 615 863Q615 892 636.5 913.5Q658 935 687 935Q717 935 738.0 914.0Q759 893 759 863Z" style="fill:#83cbff;stroke:none" transform="scale(1,-1) translate(0,-256)" /></svg>