<?xml version="1.0" encoding="utf-8" ?>
<svg baseProfile="full" height="256" version="1.1" width="256" xmlns="http://www.w3.org/2000/svg" xmlns:ev="http://www.w3.org/2001/xml-events" xmlns:xlink="http://www.w3.org/1999/xlink"><defs /><path d="M1334 180Q1334 158 1317.0 141.0Q1300 124 1272.5 112.0Q1245 100 1212.0 92.5Q1179 85 1147.0 80.5Q1115 76 1088.0 74.0Q1061 72 1047 72Q1032 72 1005.5 74.0Q979 76 947.0 80.5Q915 85 881.5 92.5Q848 100 821.0 112.0Q794 124 776.5 141.0Q759 158 759 180Q759 202 776.5 219.0Q794 236 821.0 248.0Q848 260 881.5 267.5Q915 275 947.0 279.5Q979 284 1005.5 286.0Q1032 288 1047 288Q1061 288 1088.0 286.0Q1115 284 1147.0 279.5Q1179 275 1212.0 267.0Q1245 259 1272.5 247.0Q1300 235 1317.0 218.5Q1334 202 1334 180Z" style="fill:#212121;stroke:none" transform="scale(1,-1) translate(0,-256)" /></svg>