<?xml version="1.0" encoding="utf-8" ?>
<svg baseProfile="full" height="256" version="1.1" width="256" xmlns="http://www.w3.org/2000/svg" xmlns:ev="http://www.w3.org/2001/xml-events" xmlns:xlink="http://www.w3.org/1999/xlink"><defs /><path d="M2412 144Q2412 83 2379.0 32.0Q2346 -19 2293.5 -60.5Q2241 -102 2174.0 -134.0Q2107 -166 2038.5 -190.0Q1970 -214 1907.0 -229.5Q1844 -245 1798 -253Q1701 -270 1603.0 -278.5Q1505 -287 1406 -287Q1307 -287 1209.0 -278.5Q1111 -270 1014 -253Q968 -245 905.0 -229.5Q842 -214 773.5 -190.0Q705 -166 638.0 -134.0Q571 -102 518.5 -60.5Q466 -19 433.0 32.0Q400 83 400 144Q400 205 433.0 256.0Q466 307 518.5 348.5Q571 390 638.0 422.0Q705 454 773.5 478.0Q842 502 905.0 517.5Q968 533 1014 541Q1111 558 1209.0 566.5Q1307 575 1406 575Q1505 575 1603.0 566.5Q1701 558 1798 541Q1844 533 1907.0 517.5Q1970 502 2038.5 478.0Q2107 454 2174.0 422.0Q2241 390 2293.5 348.5Q2346 307 2379.0 256.0Q2412 205 2412 144Z" style="fill:#44911b;stroke:none" transform="scale(1,-1) translate(0,-256)" /></svg>