<?xml version="1.0" encoding="utf-8" ?>
<svg baseProfile="full" height="256" version="1.1" width="256" xmlns="http://www.w3.org/2000/svg" xmlns:ev="http://www.w3.org/2001/xml-events" xmlns:xlink="http://www.w3.org/1999/xlink"><defs /><path d="M1118 863Q1088 863 1062.0 874.0Q1036 885 1016.5 904.5Q997 924 986.0 950.0Q975 976 975 1006Q975 1036 986.0 1062.0Q997 1088 1016.5 1107.5Q1036 1127 1062.0 1138.5Q1088 1150 1118 1150Q1148 1150 1174.0 1138.5Q1200 1127 1219.5 1107.5Q1239 1088 1250.5 1062.0Q1262 1036 1262 1006Q1262 976 1250.5 950.0Q1239 924 1219.5 904.5Q1200 885 1174.0 874.0Q1148 863 1118 863ZM1693 863Q1663 863 1637.0 874.0Q1611 885 1591.5 904.5Q1572 924 1561.0 950.0Q1550 976 1550 1006Q1550 1036 1561.0 1062.0Q1572 1088 1591.5 1107.5Q1611 1127 1637.0 1138.5Q1663 1150 1693 1150Q1723 1150 1749.0 1138.5Q1775 1127 1794.5 1107.5Q1814 1088 1825.5 1062.0Q1837 1036 1837 1006Q1837 976 1825.5 950.0Q1814 924 1794.5 904.5Q1775 885 1749.0 874.0Q1723 863 1693 863Z" style="fill:#402a32;stroke:none" transform="scale(1,-1) translate(0,-256)" /></svg>