<?xml version="1.0" encoding="utf-8" ?>
<svg baseProfile="full" height="256" version="1.1" width="256" xmlns="http://www.w3.org/2000/svg" xmlns:ev="http://www.w3.org/2001/xml-events" xmlns:xlink="http://www.w3.org/1999/xlink"><defs /><path d="M1909 396Q1909 366 1888.0 345.0Q1867 324 1837 324H975Q945 324 924.0 345.0Q903 366 903 396V448Q932 475 969.5 489.0Q1007 503 1047 503H1765Q1805 503 1842.5 489.0Q1880 475 1909 448ZM1047 72Q1007 72 969.5 86.5Q932 101 903 127V180Q903 210 924.0 231.0Q945 252 975 252H1837Q1867 252 1888.0 231.0Q1909 210 1909 180V127Q1880 101 1842.5 86.5Q1805 72 1765 72Z" style="fill:#ffffff;stroke:none" transform="scale(1,-1) translate(0,-256)" /></svg>