<?xml version="1.0" encoding="utf-8" ?>
<svg baseProfile="full" height="256" version="1.1" width="256" xmlns="http://www.w3.org/2000/svg" xmlns:ev="http://www.w3.org/2001/xml-events" xmlns:xlink="http://www.w3.org/1999/xlink"><defs /><path d="M957 647Q934 647 918.5 662.5Q903 678 903 701Q903 724 918.5 739.5Q934 755 957 755Q980 755 995.5 739.5Q1011 724 1011 701Q1011 678 995.5 662.5Q980 647 957 647ZM1855 647Q1832 647 1816.5 662.5Q1801 678 1801 701Q1801 724 1816.5 739.5Q1832 755 1855 755Q1878 755 1893.5 739.5Q1909 724 1909 701Q1909 678 1893.5 662.5Q1878 647 1855 647Z" style="fill:#533566;stroke:none" transform="scale(1,-1) translate(0,-256)" /></svg>