<?xml version="1.0" encoding="utf-8" ?>
<svg baseProfile="full" height="256" version="1.1" width="256" xmlns="http://www.w3.org/2000/svg" xmlns:ev="http://www.w3.org/2001/xml-events" xmlns:xlink="http://www.w3.org/1999/xlink"><defs /><path d="M1562 1592Q1588 1592 1610.5 1602.5Q1633 1613 1659 1613Q1700 1613 1721.5 1594.5Q1743 1576 1760.0 1554.0Q1777 1532 1798.5 1513.5Q1820 1495 1861 1495Q1868 1495 1874.5 1496.0Q1881 1497 1888 1497Q1930 1497 1961.0 1471.0Q1992 1445 2001 1404Q2018 1331 2091 1314Q2132 1305 2158.0 1274.0Q2184 1243 2184 1201Q2184 1194 2183.0 1187.5Q2182 1181 2182 1174Q2182 1133 2200.5 1111.5Q2219 1090 2241.0 1073.0Q2263 1056 2281.5 1034.5Q2300 1013 2300 972Q2300 946 2289.5 923.5Q2279 901 2279 875Q2279 849 2288.5 831.0Q2298 813 2310.0 797.0Q2322 781 2331.5 763.0Q2341 745 2341 719Q2341 693 2331.5 675.0Q2322 657 2310.0 641.0Q2298 625 2288.5 607.0Q2279 589 2279 562Q2279 549 2282.5 537.5Q2286 526 2289.5 514.5Q2293 503 2296.5 491.0Q2300 479 2300 466Q2300 425 2281.5 403.5Q2263 382 2241.0 365.0Q2219 348 2200.5 326.5Q2182 305 2182 264Q2182 257 2183.0 250.5Q2184 244 2184 237Q2184 195 2158.0 164.0Q2132 133 2091 124Q2018 107 2001 34Q1992 -7 1961.0 -33.0Q1930 -59 1888 -59Q1881 -59 1874.5 -58.0Q1868 -57 1861 -57Q1820 -57 1798.5 -75.5Q1777 -94 1760.0 -116.0Q1743 -138 1721.5 -156.5Q1700 -175 1659 -175Q1633 -175 1610.5 -165.0Q1588 -155 1562 -155Q1535 -155 1517.0 -164.5Q1499 -174 1483.5 -185.5Q1468 -197 1450.5 -206.5Q1433 -216 1406 -216Q1379 -216 1361.5 -206.5Q1344 -197 1328.0 -185.5Q1312 -174 1294.5 -164.5Q1277 -155 1249 -155Q1223 -155 1201.0 -165.0Q1179 -175 1153 -175Q1112 -175 1090.5 -156.5Q1069 -138 1052.0 -116.0Q1035 -94 1013.5 -75.5Q992 -57 951 -57Q944 -57 937.5 -58.0Q931 -59 924 -59Q882 -59 851.0 -33.0Q820 -7 811 34Q794 107 721 124Q680 133 654.0 164.0Q628 195 628 237Q628 244 629.0 250.5Q630 257 630 264Q630 305 611.5 326.5Q593 348 571.0 365.0Q549 382 530.5 403.5Q512 425 512 466Q512 492 522.0 514.0Q532 536 532 562Q532 590 522.5 607.5Q513 625 501.5 641.0Q490 657 480.5 674.5Q471 692 471 719Q471 746 480.5 763.5Q490 781 501.5 796.5Q513 812 522.5 830.0Q532 848 532 875Q532 901 522.0 923.5Q512 946 512 972Q512 1013 530.5 1034.5Q549 1056 571.0 1073.0Q593 1090 611.5 1111.5Q630 1133 630 1174Q630 1181 629.0 1187.5Q628 1194 628 1201Q628 1243 654.0 1274.0Q680 1305 721 1314Q794 1331 811 1404Q820 1445 851.0 1471.0Q882 1497 924 1497Q931 1497 937.5 1496.0Q944 1495 951 1495Q992 1495 1013.5 1513.5Q1035 1532 1052.0 1554.0Q1069 1576 1090.5 1594.5Q1112 1613 1153 1613Q1166 1613 1178.0 1609.5Q1190 1606 1201.5 1602.5Q1213 1599 1224.5 1595.5Q1236 1592 1249 1592Q1276 1592 1294.0 1601.5Q1312 1611 1328.0 1623.0Q1344 1635 1362.0 1644.5Q1380 1654 1406 1654Q1432 1654 1450.0 1644.5Q1468 1635 1484.0 1623.0Q1500 1611 1518.0 1601.5Q1536 1592 1562 1592Z" style="fill:#533566;stroke:none" transform="scale(1,-1) translate(0,-256)" /></svg>