<?xml version="1.0" encoding="utf-8" ?>
<svg baseProfile="full" height="256" version="1.1" width="256" xmlns="http://www.w3.org/2000/svg" xmlns:ev="http://www.w3.org/2001/xml-events" xmlns:xlink="http://www.w3.org/1999/xlink"><defs /><path d="M1190 299V431H1622V299Q1622 293 1617.5 289.0Q1613 285 1607 285Q1599 285 1595 291L1550 360H1262L1217 291Q1212 285 1205 285Q1199 285 1194.5 289.0Q1190 293 1190 299ZM1262 158V194Q1262 203 1268.5 209.5Q1275 216 1284 216Q1298 216 1304 204Q1310 193 1319.0 178.5Q1328 164 1328 150Q1328 138 1319.0 129.0Q1310 120 1298 120Q1284 120 1273.0 132.0Q1262 144 1262 158ZM1550 194V158Q1550 144 1539.0 132.0Q1528 120 1514 120Q1501 120 1492.5 129.0Q1484 138 1484 150Q1484 164 1493.0 178.5Q1502 193 1508 204Q1515 216 1527 216Q1536 216 1543.0 209.5Q1550 203 1550 194Z" style="fill:#ffffff;stroke:none" transform="scale(1,-1) translate(0,-256)" /></svg>