<?xml version="1.0" encoding="utf-8" ?>
<svg baseProfile="full" height="256" version="1.1" width="256" xmlns="http://www.w3.org/2000/svg" xmlns:ev="http://www.w3.org/2001/xml-events" xmlns:xlink="http://www.w3.org/1999/xlink"><defs /><path d="M1047 503Q1002 503 963.0 520.0Q924 537 894.5 566.5Q865 596 848.0 635.0Q831 674 831 719Q831 764 848.0 803.0Q865 842 894.5 871.5Q924 901 963.0 918.0Q1002 935 1047 935Q1092 935 1131.0 918.0Q1170 901 1199.0 871.5Q1228 842 1245.0 803.0Q1262 764 1262 719Q1262 674 1245.0 635.0Q1228 596 1199.0 566.5Q1170 537 1131.0 520.0Q1092 503 1047 503ZM1765 503Q1720 503 1681.0 520.0Q1642 537 1613.0 566.5Q1584 596 1567.0 635.0Q1550 674 1550 719Q1550 764 1567.0 803.0Q1584 842 1613.0 871.5Q1642 901 1681.0 918.0Q1720 935 1765 935Q1810 935 1849.0 918.0Q1888 901 1917.5 871.5Q1947 842 1964.0 803.0Q1981 764 1981 719Q1981 674 1964.0 635.0Q1947 596 1917.5 566.5Q1888 537 1849.0 520.0Q1810 503 1765 503Z" style="fill:#ffffff;stroke:none" transform="scale(1,-1) translate(0,-256)" /></svg>