<?xml version="1.0" encoding="utf-8" ?>
<svg baseProfile="full" height="256" version="1.1" width="256" xmlns="http://www.w3.org/2000/svg" xmlns:ev="http://www.w3.org/2001/xml-events" xmlns:xlink="http://www.w3.org/1999/xlink"><defs /><path d="M795 1114Q789 1126 774.0 1159.5Q759 1193 739.0 1236.5Q719 1280 697.0 1328.5Q675 1377 657.0 1418.5Q639 1460 627.0 1490.0Q615 1520 615 1527Q615 1549 631.0 1565.5Q647 1582 670 1582Q684 1582 697 1574L1047 1366Q1047 1313 1027.5 1267.0Q1008 1221 974.0 1187.0Q940 1153 894.0 1133.5Q848 1114 795 1114ZM2024 1114Q1971 1114 1925.0 1133.5Q1879 1153 1845.0 1187.0Q1811 1221 1792.0 1267.0Q1773 1313 1773 1366L2122 1574Q2135 1582 2149 1582Q2172 1582 2188.0 1565.5Q2204 1549 2204 1527Q2204 1520 2192.0 1490.0Q2180 1460 2162.0 1418.5Q2144 1377 2122.0 1328.5Q2100 1280 2080.0 1236.5Q2060 1193 2044.5 1159.5Q2029 1126 2024 1114Z" style="fill:#fcd53f;stroke:none" transform="scale(1,-1) translate(0,-256)" /></svg>