<?xml version="1.0" encoding="utf-8" ?>
<svg baseProfile="full" height="256" version="1.1" width="256" xmlns="http://www.w3.org/2000/svg" xmlns:ev="http://www.w3.org/2001/xml-events" xmlns:xlink="http://www.w3.org/1999/xlink"><defs /><path d="M1262 647Q1262 664 1266.5 689.5Q1271 715 1279.5 743.0Q1288 771 1300.5 799.0Q1313 827 1329.0 849.0Q1345 871 1364.0 885.0Q1383 899 1406 899Q1428 899 1447.5 885.0Q1467 871 1483.0 849.0Q1499 827 1511.5 799.0Q1524 771 1532.5 743.0Q1541 715 1545.5 689.5Q1550 664 1550 647Q1550 609 1543.5 576.5Q1537 544 1520.5 519.5Q1504 495 1476.5 481.0Q1449 467 1406 467Q1363 467 1335.5 481.0Q1308 495 1291.5 519.5Q1275 544 1268.5 576.5Q1262 609 1262 647Z" style="fill:#990838;stroke:none" transform="scale(1,-1) translate(0,-256)" /></svg>