<?xml version="1.0" encoding="utf-8" ?>
<svg baseProfile="full" height="256" version="1.1" width="256" xmlns="http://www.w3.org/2000/svg" xmlns:ev="http://www.w3.org/2001/xml-events" xmlns:xlink="http://www.w3.org/1999/xlink"><defs /><path d="M1865 -287H947Q908 -287 873.5 -272.5Q839 -258 813.5 -232.5Q788 -207 773.5 -172.5Q759 -138 759 -99V1537Q759 1576 773.5 1610.0Q788 1644 813.5 1669.5Q839 1695 873.5 1710.0Q908 1725 947 1725H1865Q1904 1725 1938.0 1710.0Q1972 1695 1997.5 1669.5Q2023 1644 2038.0 1610.0Q2053 1576 2053 1537V-99Q2053 -138 2038.0 -172.5Q2023 -207 1997.5 -232.5Q1972 -258 1938.0 -272.5Q1904 -287 1865 -287Z" style="fill:#000000;stroke:none" transform="scale(1,-1) translate(0,-256)" /></svg>