<?xml version="1.0" encoding="utf-8" ?>
<svg baseProfile="full" height="256" version="1.1" width="256" xmlns="http://www.w3.org/2000/svg" xmlns:ev="http://www.w3.org/2001/xml-events" xmlns:xlink="http://www.w3.org/1999/xlink"><defs /><path d="M1581 1541Q1616 1541 1640.0 1516.5Q1664 1492 1664 1457V1344Q1664 1309 1640.0 1284.5Q1616 1260 1581 1260H1228Q1193 1260 1169.0 1284.5Q1145 1309 1145 1344V1457Q1145 1492 1169.0 1516.5Q1193 1541 1228 1541ZM1198 1344Q1198 1332 1207.0 1323.0Q1216 1314 1228 1314H1581Q1593 1314 1602.0 1323.0Q1611 1332 1611 1344V1457Q1611 1469 1602.0 1478.0Q1593 1487 1581 1487H1228Q1216 1487 1207.0 1478.0Q1198 1469 1198 1457ZM1609 1137Q1632 1137 1647.5 1121.5Q1663 1106 1663 1083Q1663 1061 1647.0 1045.0Q1631 1029 1609 1029H1198Q1176 1029 1160.0 1045.0Q1144 1061 1144 1083Q1144 1106 1159.5 1121.5Q1175 1137 1198 1137ZM1145 493Q1145 527 1169.5 551.5Q1194 576 1228 576H1581Q1615 576 1639.5 551.5Q1664 527 1664 493V379Q1664 344 1640.0 319.5Q1616 295 1581 295H1228Q1193 295 1169.0 319.5Q1145 344 1145 379ZM1228 523Q1216 523 1207.0 514.0Q1198 505 1198 493V379Q1198 367 1207.0 358.0Q1216 349 1228 349H1581Q1593 349 1602.0 358.0Q1611 367 1611 379V493Q1611 505 1602.0 514.0Q1593 523 1581 523ZM1609 173Q1632 173 1647.5 157.5Q1663 142 1663 119Q1663 96 1647.5 80.5Q1632 65 1609 65H1198Q1175 65 1159.5 80.5Q1144 96 1144 119Q1144 142 1159.5 157.5Q1175 173 1198 173Z" style="fill:#8d65c5;stroke:none" transform="scale(1,-1) translate(0,-256)" /></svg>