<?xml version="1.0" encoding="utf-8" ?>
<svg baseProfile="full" height="256" version="1.1" width="256" xmlns="http://www.w3.org/2000/svg" xmlns:ev="http://www.w3.org/2001/xml-events" xmlns:xlink="http://www.w3.org/1999/xlink"><defs /><path d="M1228 1287Q1205 1287 1188.5 1304.0Q1172 1321 1172 1344V1457Q1172 1480 1188.5 1497.0Q1205 1514 1228 1514H1581Q1604 1514 1620.5 1497.0Q1637 1480 1637 1457V1344Q1637 1321 1620.5 1304.0Q1604 1287 1581 1287ZM1228 322Q1205 322 1188.5 339.0Q1172 356 1172 379V493Q1172 516 1188.5 532.5Q1205 549 1228 549H1581Q1604 549 1620.5 532.5Q1637 516 1637 493V379Q1637 356 1620.5 339.0Q1604 322 1581 322Z" style="fill:#f4f4f4;stroke:none" transform="scale(1,-1) translate(0,-256)" /></svg>