<?xml version="1.0" encoding="utf-8" ?>
<svg baseProfile="full" height="256" version="1.1" width="256" xmlns="http://www.w3.org/2000/svg" xmlns:ev="http://www.w3.org/2001/xml-events" xmlns:xlink="http://www.w3.org/1999/xlink"><defs /><path d="M400 280H615Q616 280 648.0 271.5Q680 263 733.0 248.5Q786 234 853.5 216.0Q921 198 992.5 178.5Q1064 159 1133.5 140.0Q1203 121 1260.5 105.0Q1318 89 1357.0 78.5Q1396 68 1406 65V-294Q1329 -294 1253.0 -294.5Q1177 -295 1100 -295Q1049 -295 1007.0 -287.0Q965 -279 926.0 -265.0Q887 -251 848.0 -232.0Q809 -213 764 -190Q689 -153 627 -91L560 -24Q524 12 500.5 46.0Q477 80 459.5 116.5Q442 153 428.5 193.0Q415 233 400 280Z" style="fill:#636363;stroke:none" transform="scale(1,-1) translate(0,-256)" /></svg>