<?xml version="1.0" encoding="utf-8" ?>
<svg baseProfile="full" height="256" version="1.1" width="256" xmlns="http://www.w3.org/2000/svg" xmlns:ev="http://www.w3.org/2001/xml-events" xmlns:xlink="http://www.w3.org/1999/xlink"><defs /><path d="M1480 484Q1490 474 1505 474Q1518 474 1530 484L1685 630Q1732 674 1794 674Q1825 674 1853.5 661.5Q1882 649 1905 628L2412 144Q2412 129 2412.0 98.0Q2412 67 2411.5 34.0Q2411 1 2409.5 -27.5Q2408 -56 2404 -66L1820 513Q1810 523 1795 523Q1782 523 1770 513L1616 368Q1594 348 1566.0 336.5Q1538 325 1508 325Q1476 325 1447.5 337.0Q1419 349 1396 371L400 1357V1412Q400 1447 403.5 1480.5Q407 1514 421 1547Z" style="fill:#0084ce;stroke:none" transform="scale(1,-1) translate(0,-256)" /></svg>