<?xml version="1.0" encoding="utf-8" ?>
<svg baseProfile="full" height="256" version="1.1" width="256" xmlns="http://www.w3.org/2000/svg" xmlns:ev="http://www.w3.org/2001/xml-events" xmlns:xlink="http://www.w3.org/1999/xlink"><defs /><path d="M465 1393 421 1546Q437 1586 464.5 1619.5Q492 1653 527.0 1676.0Q562 1699 602.5 1712.0Q643 1725 687 1725H2125Q2184 1725 2236.5 1702.5Q2289 1680 2328.0 1641.0Q2367 1602 2389.5 1549.5Q2412 1497 2412 1438V144L2340 72L2405 -65Q2393 -113 2366.5 -154.0Q2340 -195 2303.0 -224.5Q2266 -254 2220.5 -270.5Q2175 -287 2125 -287H687Q627 -287 575.0 -264.5Q523 -242 484.0 -203.0Q445 -164 422.5 -112.0Q400 -60 400 0V1357Z" style="fill:#e1d8ec;stroke:none" transform="scale(1,-1) translate(0,-256)" /></svg>