<?xml version="1.0" encoding="utf-8" ?>
<svg baseProfile="full" height="256" version="1.1" width="256" xmlns="http://www.w3.org/2000/svg" xmlns:ev="http://www.w3.org/2001/xml-events" xmlns:xlink="http://www.w3.org/1999/xlink"><defs /><path d="M1333 1000Q1351 1002 1369.5 1003.0Q1388 1004 1406 1004Q1443 1004 1479 1001Q1485 1093 1523.5 1173.0Q1562 1253 1625.0 1312.0Q1688 1371 1770.5 1404.5Q1853 1438 1945 1438Q2042 1438 2127.0 1401.5Q2212 1365 2275.5 1301.5Q2339 1238 2375.5 1153.0Q2412 1068 2412 971Q2412 888 2384.5 812.5Q2357 737 2307.5 676.5Q2258 616 2190.0 573.0Q2122 530 2041 513Q2046 493 2048.5 472.5Q2051 452 2051 431Q2051 335 2020.0 247.5Q1989 160 1935.5 85.0Q1882 10 1811.0 -52.5Q1740 -115 1661 -161Q1621 -184 1578.0 -205.0Q1535 -226 1490 -239Q1449 -251 1407 -251Q1364 -251 1322 -239Q1207 -208 1106.0 -145.5Q1005 -83 929.5 4.0Q854 91 810.0 199.5Q766 308 766 431Q766 451 767.5 472.0Q769 493 773 513Q692 529 623.5 572.0Q555 615 505.5 676.0Q456 737 428.0 812.5Q400 888 400 971Q400 1068 436.5 1153.0Q473 1238 536.5 1301.5Q600 1365 685.0 1401.5Q770 1438 867 1438Q960 1438 1042.0 1404.0Q1124 1370 1187.0 1311.0Q1250 1252 1288.5 1172.0Q1327 1092 1333 1000Z" style="fill:#cdc4d6;stroke:none" transform="scale(1,-1) translate(0,-256)" /></svg>