<?xml version="1.0" encoding="utf-8" ?>
<svg baseProfile="full" height="256" version="1.1" width="256" xmlns="http://www.w3.org/2000/svg" xmlns:ev="http://www.w3.org/2001/xml-events" xmlns:xlink="http://www.w3.org/1999/xlink"><defs /><path d="M1118 -36Q1118 -50 1107.5 -61.0Q1097 -72 1083 -72H723Q708 -72 697.5 -61.5Q687 -51 687 -36Q687 -21 697.5 -10.5Q708 0 723 0H1083Q1097 0 1107.5 -11.0Q1118 -22 1118 -36ZM2089 0Q2104 0 2114.5 -10.5Q2125 -21 2125 -36Q2125 -51 2114.5 -61.5Q2104 -72 2089 -72H1729Q1715 -72 1704.0 -61.0Q1693 -50 1693 -36Q1693 -22 1704.0 -11.0Q1715 0 1729 0ZM1658 -72Q1663 -72 1690.0 -81.5Q1717 -91 1755.0 -106.0Q1793 -121 1836.5 -138.5Q1880 -156 1919.5 -172.5Q1959 -189 1989.0 -201.5Q2019 -214 2030 -218Q2053 -228 2053 -251Q2053 -266 2042.5 -276.5Q2032 -287 2017 -287Q2012 -287 1985.0 -277.5Q1958 -268 1920.0 -253.0Q1882 -238 1838.0 -220.5Q1794 -203 1754.0 -186.5Q1714 -170 1684.0 -157.5Q1654 -145 1644 -141Q1633 -137 1627.5 -127.5Q1622 -118 1622 -107Q1622 -92 1632.5 -82.0Q1643 -72 1658 -72ZM1154 -72Q1168 -72 1179.0 -82.0Q1190 -92 1190 -107Q1190 -118 1184.5 -127.5Q1179 -137 1168 -141Q1158 -145 1128.0 -157.5Q1098 -170 1058.0 -186.5Q1018 -203 974.0 -220.5Q930 -238 892.0 -253.0Q854 -268 827.5 -277.5Q801 -287 795 -287Q780 -287 769.5 -276.5Q759 -266 759 -251Q759 -228 782 -218Q792 -214 822.0 -201.5Q852 -189 891.5 -172.5Q931 -156 975.0 -138.5Q1019 -121 1057.0 -106.0Q1095 -91 1121.5 -81.5Q1148 -72 1154 -72Z" style="fill:#b4acbc;stroke:none" transform="scale(1,-1) translate(0,-256)" /></svg>