<?xml version="1.0" encoding="utf-8" ?>
<svg baseProfile="full" height="256" version="1.1" width="256" xmlns="http://www.w3.org/2000/svg" xmlns:ev="http://www.w3.org/2001/xml-events" xmlns:xlink="http://www.w3.org/1999/xlink"><defs /><path d="M1189 970Q1120 947 1057.0 909.0Q994 871 942.0 821.0Q890 771 850.5 709.5Q811 648 789 578Q721 586 663.0 617.0Q605 648 562.5 696.0Q520 744 496.0 805.5Q472 867 472 935Q472 1009 500.0 1074.5Q528 1140 577.0 1188.5Q626 1237 691.5 1265.5Q757 1294 831 1294Q900 1294 962.5 1269.0Q1025 1244 1073.0 1200.5Q1121 1157 1151.5 1098.0Q1182 1039 1189 970ZM2340 935Q2340 867 2316.0 805.5Q2292 744 2249.5 696.0Q2207 648 2149.0 617.0Q2091 586 2023 578Q1999 648 1960.0 710.0Q1921 772 1870.0 822.5Q1819 873 1756.5 911.0Q1694 949 1623 972Q1630 1041 1661.0 1099.5Q1692 1158 1740.0 1201.5Q1788 1245 1850.0 1269.5Q1912 1294 1981 1294Q2055 1294 2120.5 1265.5Q2186 1237 2234.5 1188.5Q2283 1140 2311.5 1074.5Q2340 1009 2340 935ZM1408 -141Q1432 -141 1457.0 -125.0Q1482 -109 1502.0 -86.0Q1522 -63 1534.5 -37.0Q1547 -11 1547 10Q1547 32 1531.0 44.5Q1515 57 1492.5 63.0Q1470 69 1446.5 70.5Q1423 72 1408 72Q1391 72 1366.5 71.5Q1342 71 1319.0 65.5Q1296 60 1279.5 47.0Q1263 34 1263 10Q1263 2 1268.0 -9.5Q1273 -21 1276 -28Q1285 -47 1298.0 -67.0Q1311 -87 1328.0 -103.5Q1345 -120 1365.0 -130.5Q1385 -141 1408 -141Z" style="fill:#ff8687;stroke:none" transform="scale(1,-1) translate(0,-256)" /></svg>