<?xml version="1.0" encoding="utf-8" ?>
<svg baseProfile="full" height="256" version="1.1" width="256" xmlns="http://www.w3.org/2000/svg" xmlns:ev="http://www.w3.org/2001/xml-events" xmlns:xlink="http://www.w3.org/1999/xlink"><defs /><path d="M1886 1366H1981Q1998 1366 2017.5 1360.5Q2037 1355 2052 1349Q2094 1331 2126.0 1302.0Q2158 1273 2181.5 1237.0Q2205 1201 2221.0 1160.0Q2237 1119 2247 1077L2198 1007L2266 934Q2268 916 2268.0 898.5Q2268 881 2268 863Q2268 845 2268.0 826.5Q2268 808 2267 790L2198 720L2253 646Q2238 542 2207.0 432.0Q2176 322 2132.0 214.0Q2088 106 2033.0 4.5Q1978 -97 1916 -182Q1878 -235 1824.0 -261.0Q1770 -287 1705 -287H1107Q1042 -287 987.5 -261.0Q933 -235 895 -182Q873 -152 853.5 -120.0Q834 -88 815 -56Q719 107 652.0 283.5Q585 460 559 648L614 718L545 790Q544 808 543.5 826.5Q543 845 543 863Q543 899 546 935L616 1006L565 1078Q575 1120 591.0 1161.0Q607 1202 630.5 1238.0Q654 1274 686.0 1302.5Q718 1331 760 1349Q775 1355 794.5 1360.5Q814 1366 831 1366H924L975 1396L951 1438Q982 1504 1030.0 1557.0Q1078 1610 1137.0 1647.5Q1196 1685 1264.5 1705.0Q1333 1725 1406 1725Q1479 1725 1547.5 1705.0Q1616 1685 1675.0 1647.5Q1734 1610 1781.5 1557.0Q1829 1504 1861 1438L1838 1393Z" style="fill:#e19747;stroke:none" transform="scale(1,-1) translate(0,-256)" /></svg>