<?xml version="1.0" encoding="utf-8" ?>
<svg baseProfile="full" height="256" version="1.1" width="256" xmlns="http://www.w3.org/2000/svg" xmlns:ev="http://www.w3.org/2001/xml-events" xmlns:xlink="http://www.w3.org/1999/xlink"><defs /><path d="M1936 663Q1936 612 1916.0 580.5Q1896 549 1863.5 531.5Q1831 514 1790.0 508.5Q1749 503 1707 503Q1665 503 1624.0 508.5Q1583 514 1550.5 531.5Q1518 549 1498.0 580.5Q1478 612 1478 663Q1478 711 1495.5 753.5Q1513 796 1544.0 828.5Q1575 861 1617.0 880.0Q1659 899 1707 899Q1756 899 1797.5 880.0Q1839 861 1870.0 829.0Q1901 797 1918.5 754.0Q1936 711 1936 663ZM1334 663Q1334 611 1313.5 579.5Q1293 548 1259.5 531.0Q1226 514 1184.5 508.5Q1143 503 1101 503Q1059 503 1017.0 508.5Q975 514 942.0 531.0Q909 548 888.0 579.5Q867 611 867 663Q867 711 885.5 754.0Q904 797 935.5 829.5Q967 862 1009.5 880.5Q1052 899 1101 899Q1150 899 1192.5 880.5Q1235 862 1266.5 829.5Q1298 797 1316.0 754.0Q1334 711 1334 663ZM1365 431H1447Q1461 431 1469.5 442.5Q1478 454 1478 467Q1478 481 1471.5 498.5Q1465 516 1460 530Q1455 548 1440.5 561.5Q1426 575 1406 575Q1386 575 1371.0 562.0Q1356 549 1351 530Q1346 516 1340.0 499.0Q1334 482 1334 466Q1334 453 1342.5 442.0Q1351 431 1365 431Z" style="fill:#212121;stroke:none" transform="scale(1,-1) translate(0,-256)" /></svg>