<?xml version="1.0" encoding="utf-8" ?>
<svg baseProfile="full" height="256" version="1.1" width="256" xmlns="http://www.w3.org/2000/svg" xmlns:ev="http://www.w3.org/2001/xml-events" xmlns:xlink="http://www.w3.org/1999/xlink"><defs /><path d="M687 719Q687 818 712.5 910.0Q738 1002 785.0 1082.0Q832 1162 897.5 1227.5Q963 1293 1043.0 1340.0Q1123 1387 1215.0 1412.5Q1307 1438 1406 1438Q1505 1438 1597.0 1412.5Q1689 1387 1769.0 1340.0Q1849 1293 1914.5 1227.5Q1980 1162 2027.0 1082.0Q2074 1002 2099.5 910.0Q2125 818 2125 719Q2125 618 2099.0 555.5Q2073 493 2024.5 456.0Q1976 419 1905.5 403.0Q1835 387 1747 379V72Q1747 43 1725.5 21.5Q1704 0 1675 0Q1646 0 1625.0 21.5Q1604 43 1604 72V207Q1604 233 1585.5 251.5Q1567 270 1541 270Q1515 270 1496.5 251.5Q1478 233 1478 207V72Q1478 43 1456.5 21.5Q1435 0 1406 0Q1377 0 1355.5 21.5Q1334 43 1334 72V207Q1334 233 1315.5 251.5Q1297 270 1271 270Q1245 270 1226.5 251.5Q1208 233 1208 207V72Q1208 43 1186.5 21.5Q1165 0 1136 0Q1107 0 1086.0 21.5Q1065 43 1065 72V379Q976 387 906.0 403.5Q836 420 787.5 456.0Q739 492 713.0 555.0Q687 618 687 719Z" style="fill:#ffffff;stroke:none" transform="scale(1,-1) translate(0,-256)" /></svg>