<?xml version="1.0" encoding="utf-8" ?>
<svg baseProfile="full" height="256" version="1.1" width="256" xmlns="http://www.w3.org/2000/svg" xmlns:ev="http://www.w3.org/2001/xml-events" xmlns:xlink="http://www.w3.org/1999/xlink"><defs /><path d="M1647 1438Q1752 1438 1849.5 1411.0Q1947 1384 2032.0 1334.5Q2117 1285 2187.0 1216.0Q2257 1147 2306.5 1062.5Q2356 978 2383.5 880.5Q2411 783 2411 678V-128Q2411 -164 2385.0 -189.5Q2359 -215 2323 -215H2142Q2106 -215 2079.5 -190.0Q2053 -165 2053 -128V107Q2053 140 2040.5 172.5Q2028 205 2005.5 230.5Q1983 256 1953.0 272.0Q1923 288 1888 288H1514Q1486 288 1463.0 276.0Q1440 264 1420.5 245.0Q1401 226 1385.0 203.5Q1369 181 1357 159Q1344 137 1324.5 100.5Q1305 64 1280.0 22.5Q1255 -19 1227.0 -61.5Q1199 -104 1169.0 -138.0Q1139 -172 1108.5 -193.5Q1078 -215 1050 -215H844Q829 -215 816.5 -208.0Q804 -201 795.0 -189.5Q786 -178 781.0 -164.5Q776 -151 776 -137Q776 -116 790.0 -92.0Q804 -68 825.0 -41.5Q846 -15 870.0 15.0Q894 45 915.0 78.5Q936 112 950.0 148.5Q964 185 964 226Q964 276 945 318Q924 368 888.5 402.5Q853 437 808.5 459.5Q764 482 714.5 494.5Q665 507 615 514V252Q615 246 616.5 236.5Q618 227 622 222Q627 217 635.5 216.5Q644 216 651 216Q673 216 693.0 207.5Q713 199 727.5 184.5Q742 170 750.5 150.0Q759 130 759 108Q759 85 750.5 65.5Q742 46 727.5 31.5Q713 17 693.0 8.5Q673 0 651 0Q594 0 548.0 18.5Q502 37 469.0 70.0Q436 103 418.0 149.5Q400 196 400 252V1079Q400 1154 428.5 1219.0Q457 1284 506.0 1333.0Q555 1382 620.5 1410.0Q686 1438 761 1438Z" style="fill:#9b9b9b;stroke:none" transform="scale(1,-1) translate(0,-256)" /></svg>