<?xml version="1.0" encoding="utf-8" ?>
<svg baseProfile="full" height="256" version="1.1" width="256" xmlns="http://www.w3.org/2000/svg" xmlns:ev="http://www.w3.org/2001/xml-events" xmlns:xlink="http://www.w3.org/1999/xlink"><defs /><path d="M2412 -34H2268V-72L2084 -105L1992 -121L645 -151Q645 -151 627.5 -145.5Q610 -140 584.5 -131.5Q559 -123 528.5 -113.0Q498 -103 470.5 -94.5Q443 -86 423.5 -79.5Q404 -73 400 -72Q515 -14 615.5 38.0Q716 90 816.5 129.5Q917 169 1025.0 192.5Q1133 216 1262 216H1406L1478 144H1693V360Q1721 360 1752.0 356.5Q1783 353 1813.5 346.0Q1844 339 1873.5 328.5Q1903 318 1927 304Q1947 293 1961.0 275.0Q1975 257 1992 243Q2009 229 2028.5 215.0Q2048 201 2066 187Q2080 176 2095.0 165.5Q2110 155 2125 144V433H2412Z" style="fill:#f8312f;stroke:none" transform="scale(1,-1) translate(0,-256)" /></svg>