<?xml version="1.0" encoding="utf-8" ?>
<svg baseProfile="full" height="256" version="1.1" width="256" xmlns="http://www.w3.org/2000/svg" xmlns:ev="http://www.w3.org/2001/xml-events" xmlns:xlink="http://www.w3.org/1999/xlink"><defs /><path d="M1118 -36Q1118 -88 1098.5 -134.0Q1079 -180 1045.0 -214.0Q1011 -248 965.0 -267.5Q919 -287 867 -287Q815 -287 769.0 -267.5Q723 -248 689.0 -214.0Q655 -180 635.0 -134.0Q615 -88 615 -36Q615 16 635.0 62.0Q655 108 689.0 142.0Q723 176 769.0 196.0Q815 216 867 216Q919 216 965.0 196.0Q1011 176 1045.0 142.0Q1079 108 1098.5 62.0Q1118 16 1118 -36ZM2412 -36Q2412 -88 2392.5 -134.0Q2373 -180 2339.0 -214.0Q2305 -248 2259.0 -267.5Q2213 -287 2161 -287Q2109 -287 2063.0 -267.5Q2017 -248 1983.0 -214.0Q1949 -180 1929.0 -134.0Q1909 -88 1909 -36Q1909 16 1929.0 62.0Q1949 108 1983.0 142.0Q2017 176 2063.0 196.0Q2109 216 2161 216Q2213 216 2259.0 196.0Q2305 176 2339.0 142.0Q2373 108 2392.5 62.0Q2412 16 2412 -36Z" style="fill:#321b41;stroke:none" transform="scale(1,-1) translate(0,-256)" /></svg>