<?xml version="1.0" encoding="utf-8" ?>
<svg baseProfile="full" height="256" version="1.1" width="256" xmlns="http://www.w3.org/2000/svg" xmlns:ev="http://www.w3.org/2001/xml-events" xmlns:xlink="http://www.w3.org/1999/xlink"><defs /><path d="M472 1617Q472 1639 480.5 1658.5Q489 1678 503.0 1693.0Q517 1708 536.5 1716.5Q556 1725 579 1725H1397Q1418 1725 1438.0 1717.0Q1458 1709 1473 1694L1877 1290Q1892 1275 1900.5 1255.0Q1909 1235 1909 1213V-36Q1909 -58 1900.5 -77.5Q1892 -97 1877.0 -112.0Q1862 -127 1842.5 -135.5Q1823 -144 1801 -144H579Q557 -144 537.5 -135.5Q518 -127 503.5 -112.0Q489 -97 480.5 -77.5Q472 -58 472 -36Z" style="fill:#f3eef8;stroke:none" transform="scale(1,-1) translate(0,-256)" /></svg>