<?xml version="1.0" encoding="utf-8" ?>
<svg baseProfile="full" height="256" version="1.1" width="256" xmlns="http://www.w3.org/2000/svg" xmlns:ev="http://www.w3.org/2001/xml-events" xmlns:xlink="http://www.w3.org/1999/xlink"><defs /><path d="M1397 1797Q1433 1797 1465.5 1783.5Q1498 1770 1524 1744L1759 1510H2089Q2111 1510 2130.5 1501.5Q2150 1493 2165.0 1478.0Q2180 1463 2188.5 1443.5Q2197 1424 2197 1402V-251Q2197 -273 2188.5 -292.5Q2180 -312 2165.0 -327.0Q2150 -342 2130.5 -350.5Q2111 -359 2089 -359H867Q844 -359 824.5 -350.5Q805 -342 790.5 -327.5Q776 -313 767.5 -293.5Q759 -274 759 -251V-215H579Q542 -215 509.5 -201.0Q477 -187 452.5 -162.5Q428 -138 414.0 -105.5Q400 -73 400 -36V1617Q400 1654 414.0 1687.0Q428 1720 452.5 1744.5Q477 1769 509.5 1783.0Q542 1797 579 1797Z" style="fill:#b4acbc;stroke:none" transform="scale(1,-1) translate(0,-256)" /></svg>