<?xml version="1.0" encoding="utf-8" ?>
<svg baseProfile="full" height="256" version="1.1" width="256" xmlns="http://www.w3.org/2000/svg" xmlns:ev="http://www.w3.org/2001/xml-events" xmlns:xlink="http://www.w3.org/1999/xlink"><defs /><path d="M1658 1078Q1672 1078 1682.5 1067.0Q1693 1056 1693 1042Q1693 1028 1682.5 1017.0Q1672 1006 1658 1006H723Q709 1006 698.0 1017.0Q687 1028 687 1042Q687 1057 697.5 1067.5Q708 1078 723 1078ZM1658 863Q1672 863 1682.5 852.0Q1693 841 1693 827Q1693 813 1682.5 802.0Q1672 791 1658 791H723Q708 791 697.5 801.5Q687 812 687 827Q687 842 697.5 852.5Q708 863 723 863ZM687 611Q687 626 697.5 636.5Q708 647 723 647H1658Q1672 647 1682.5 636.0Q1693 625 1693 611Q1693 597 1682.5 586.0Q1672 575 1658 575H723Q708 575 697.5 585.5Q687 596 687 611ZM1298 431Q1312 431 1323.0 420.5Q1334 410 1334 396Q1334 381 1323.5 370.5Q1313 360 1298 360H723Q708 360 697.5 370.5Q687 381 687 396Q687 410 698.0 420.5Q709 431 723 431Z" style="fill:#998ea4;stroke:none" transform="scale(1,-1) translate(0,-256)" /></svg>