<?xml version="1.0" encoding="utf-8" ?>
<svg baseProfile="full" height="256" version="1.1" width="256" xmlns="http://www.w3.org/2000/svg" xmlns:ev="http://www.w3.org/2001/xml-events" xmlns:xlink="http://www.w3.org/1999/xlink"><defs /><path d="M1483 660Q1715 612 1926.0 501.5Q2137 391 2306 225Q2323 209 2339.5 191.5Q2356 174 2356 149Q2356 133 2349 120L2152 -254Q2144 -269 2129.0 -278.0Q2114 -287 2097 -287Q2080 -287 2069.5 -280.5Q2059 -274 2048 -263Q2022 -236 1992.5 -210.5Q1963 -185 1933 -162Q1778 -37 1599.0 47.5Q1420 132 1225 172L1136 190L1394 678Z" style="fill:#d3d3d3;stroke:none" transform="scale(1,-1) translate(0,-256)" /></svg>