<?xml version="1.0" encoding="utf-8" ?>
<svg baseProfile="full" height="256" version="1.1" width="256" xmlns="http://www.w3.org/2000/svg" xmlns:ev="http://www.w3.org/2001/xml-events" xmlns:xlink="http://www.w3.org/1999/xlink"><defs /><path d="M420 18Q420 61 436.5 100.5Q453 140 483 170L1716 1404Q1783 1334 1835.5 1253.5Q1888 1173 1923.5 1085.0Q1959 997 1977.5 902.5Q1996 808 1996 711Q1996 574 1960.5 446.5Q1925 319 1860.0 208.0Q1795 97 1704.0 6.0Q1613 -85 1502.0 -150.5Q1391 -216 1263.5 -251.5Q1136 -287 999 -287Q942 -287 881.0 -280.0Q820 -273 760.0 -258.5Q700 -244 642.5 -223.0Q585 -202 535 -173Q481 -143 450.5 -94.0Q420 -45 420 18Z" style="fill:#ffb02e;stroke:none" transform="scale(1,-1) translate(0,-256)" /></svg>