<?xml version="1.0" encoding="utf-8" ?>
<svg baseProfile="full" height="256" version="1.1" width="256" xmlns="http://www.w3.org/2000/svg" xmlns:ev="http://www.w3.org/2001/xml-events" xmlns:xlink="http://www.w3.org/1999/xlink"><defs /><path d="M939 1006Q955 1006 962.5 998.0Q970 990 973.0 979.0Q976 968 975.5 954.5Q975 941 975 931Q1017 923 1053.0 898.0Q1089 873 1106 833Q1108 829 1108 821Q1108 807 1097.5 799.0Q1087 791 1074 791Q1057 791 1046.5 802.0Q1036 813 1023.5 826.5Q1011 840 991.5 851.5Q972 863 939 863Q920 863 900.5 857.0Q881 851 865.5 839.0Q850 827 840.5 810.5Q831 794 831 773Q831 752 840.5 735.5Q850 719 865.5 707.0Q881 695 900.5 689.0Q920 683 939 683Q973 683 1005.5 671.5Q1038 660 1063.0 638.5Q1088 617 1103.0 587.0Q1118 557 1118 521Q1118 490 1106.5 463.5Q1095 437 1075.5 416.5Q1056 396 1030.0 382.0Q1004 368 975 363Q975 352 975.5 339.0Q976 326 973.0 315.0Q970 304 962.5 296.0Q955 288 939 288Q923 288 915.5 296.0Q908 304 905.0 315.0Q902 326 902.5 339.0Q903 352 903 363Q861 371 825.0 396.5Q789 422 772 462Q769 468 769 474Q769 488 780.5 495.5Q792 503 804 503Q820 503 830.5 491.5Q841 480 854.0 466.5Q867 453 886.0 442.0Q905 431 939 431Q958 431 977.0 437.0Q996 443 1011.5 455.0Q1027 467 1037.0 483.5Q1047 500 1047 521Q1047 542 1037.5 558.5Q1028 575 1012.5 587.0Q997 599 977.5 605.0Q958 611 939 611Q905 611 872.5 623.0Q840 635 815.0 656.0Q790 677 774.5 707.0Q759 737 759 773Q759 804 770.5 830.5Q782 857 802.0 877.5Q822 898 848.0 912.0Q874 926 903 931Q903 941 902.5 954.5Q902 968 905.0 979.0Q908 990 915.5 998.0Q923 1006 939 1006Z" style="fill:#ffffff;stroke:none" transform="scale(1,-1) translate(0,-256)" /></svg>