<?xml version="1.0" encoding="utf-8" ?>
<svg baseProfile="full" height="256" version="1.1" width="256" xmlns="http://www.w3.org/2000/svg" xmlns:ev="http://www.w3.org/2001/xml-events" xmlns:xlink="http://www.w3.org/1999/xlink"><defs /><path d="M2197 1449Q2197 1397 2165.5 1355.5Q2134 1314 2084 1300Q2069 1296 2066.5 1296.0Q2064 1296 2063.5 1296.5Q2063 1297 2060.5 1297.5Q2058 1298 2043 1294L1406 1138L769 1294Q754 1298 751.5 1297.5Q749 1297 748.5 1296.5Q748 1296 745.5 1296.0Q743 1296 728 1300Q703 1307 682.0 1321.5Q661 1336 646.0 1355.5Q631 1375 623.0 1399.0Q615 1423 615 1449Q615 1507 636.5 1557.0Q658 1607 695.5 1644.5Q733 1682 783.5 1703.5Q834 1725 891 1725Q945 1725 993.5 1704.5Q1042 1684 1080 1647L1406 1331L1732 1647Q1770 1684 1818.5 1704.5Q1867 1725 1921 1725Q1978 1725 2028.5 1703.5Q2079 1682 2116.5 1644.5Q2154 1607 2175.5 1557.0Q2197 1507 2197 1449Z" style="fill:#f8312f;stroke:none" transform="scale(1,-1) translate(0,-256)" /></svg>