<?xml version="1.0" encoding="utf-8" ?>
<svg baseProfile="full" height="256" version="1.1" width="256" xmlns="http://www.w3.org/2000/svg" xmlns:ev="http://www.w3.org/2001/xml-events" xmlns:xlink="http://www.w3.org/1999/xlink"><defs /><path d="M2244 1294Q2264 1294 2281.5 1286.5Q2299 1279 2312.0 1265.5Q2325 1252 2332.5 1234.5Q2340 1217 2340 1197V887Q2340 847 2312.0 819.0Q2284 791 2244 791H568Q528 791 500.0 819.0Q472 847 472 887V1197Q472 1217 479.5 1234.5Q487 1252 500.0 1265.5Q513 1279 530.5 1286.5Q548 1294 568 1294H2244Z" style="fill:#ffb02e;stroke:none" transform="scale(1,-1) translate(0,-256)" /></svg>