<?xml version="1.0" encoding="utf-8" ?>
<svg baseProfile="full" height="256" version="1.1" width="256" xmlns="http://www.w3.org/2000/svg" xmlns:ev="http://www.w3.org/2001/xml-events" xmlns:xlink="http://www.w3.org/1999/xlink"><defs /><path d="M1190 45Q1190 65 1198.0 83.0Q1206 101 1219.5 114.5Q1233 128 1251.0 135.5Q1269 143 1289 143H1523Q1565 143 1593.5 114.5Q1622 86 1622 44V-288H1190ZM723 92H939Q935 73 929.5 47.5Q924 22 919.0 -4.0Q914 -30 909.5 -55.0Q905 -80 903 -98Q901 -116 901.0 -141.0Q901 -166 901.5 -192.0Q902 -218 902.5 -243.5Q903 -269 903 -288H759Q759 -269 759.5 -243.5Q760 -218 760.5 -192.0Q761 -166 761.0 -141.0Q761 -116 759 -98Q757 -80 752.5 -55.0Q748 -30 743.0 -4.0Q738 22 732.5 47.5Q727 73 723 92Z" style="fill:#1c1c1c;stroke:none" transform="scale(1,-1) translate(0,-256)" /></svg>