<?xml version="1.0" encoding="utf-8" ?>
<svg baseProfile="full" height="256" version="1.1" width="256" xmlns="http://www.w3.org/2000/svg" xmlns:ev="http://www.w3.org/2001/xml-events" xmlns:xlink="http://www.w3.org/1999/xlink"><defs /><path d="M1981 -288H1623Q1622 -288 1607.0 -284.5Q1592 -281 1569.0 -275.5Q1546 -270 1519.5 -263.5Q1493 -257 1469.0 -251.0Q1445 -245 1427.5 -241.0Q1410 -237 1406 -236Q1402 -237 1384.5 -241.0Q1367 -245 1343.5 -251.0Q1320 -257 1293.0 -263.5Q1266 -270 1243.5 -275.5Q1221 -281 1206.0 -284.5Q1191 -288 1190 -288H894L852 -1Q849 20 845.5 37.0Q842 54 838.5 70.5Q835 87 833.0 104.5Q831 122 831 143V1566Q831 1601 845.5 1621.5Q860 1642 882.5 1652.0Q905 1662 933.0 1664.5Q961 1667 989 1667H1823Q1851 1667 1879.0 1664.5Q1907 1662 1929.5 1652.0Q1952 1642 1966.5 1621.5Q1981 1601 1981 1566Z" style="fill:#d3d3d3;stroke:none" transform="scale(1,-1) translate(0,-256)" /></svg>