<?xml version="1.0" encoding="utf-8" ?>
<svg baseProfile="full" height="256" version="1.1" width="256" xmlns="http://www.w3.org/2000/svg" xmlns:ev="http://www.w3.org/2001/xml-events" xmlns:xlink="http://www.w3.org/1999/xlink"><defs /><path d="M1083 574Q1068 574 1057.5 584.5Q1047 595 1047 610V755Q1047 770 1057.5 780.5Q1068 791 1083 791H1299Q1313 791 1324.0 780.0Q1335 769 1335 755V610Q1335 596 1324.0 585.0Q1313 574 1299 574ZM1765 755V610Q1765 595 1754.5 584.5Q1744 574 1729 574H1513Q1499 574 1488.0 585.0Q1477 596 1477 610V755Q1477 769 1488.0 780.0Q1499 791 1513 791H1729Q1744 791 1754.5 780.5Q1765 770 1765 755ZM1334 467V323Q1334 308 1323.5 297.5Q1313 287 1298 287H1082Q1068 287 1057.0 298.0Q1046 309 1046 323V467Q1046 482 1056.5 492.5Q1067 503 1082 503H1298Q1313 503 1323.5 492.5Q1334 482 1334 467ZM1765 467V323Q1765 308 1754.5 297.5Q1744 287 1729 287H1513Q1499 287 1488.0 298.0Q1477 309 1477 323V467Q1477 482 1487.5 492.5Q1498 503 1513 503H1729Q1744 503 1754.5 492.5Q1765 482 1765 467ZM715 359H587Q569 359 556.0 372.0Q543 385 543 403V746Q543 764 556.0 777.0Q569 790 587 790H715Q734 790 746.5 777.5Q759 765 759 746V403Q759 384 746.5 371.5Q734 359 715 359ZM2225 359H2097Q2078 359 2065.5 371.5Q2053 384 2053 403V746Q2053 765 2065.5 777.5Q2078 790 2097 790H2225Q2243 790 2255.5 777.0Q2268 764 2268 746V403Q2268 385 2255.5 372.0Q2243 359 2225 359Z" style="fill:#83cbff;stroke:none" transform="scale(1,-1) translate(0,-256)" /></svg>