<?xml version="1.0" encoding="utf-8" ?>
<svg baseProfile="full" height="256" version="1.1" width="256" xmlns="http://www.w3.org/2000/svg" xmlns:ev="http://www.w3.org/2001/xml-events" xmlns:xlink="http://www.w3.org/1999/xlink"><defs /><path d="M1981 1725Q2010 1725 2031.5 1703.5Q2053 1682 2053 1653Q2053 1624 2031.5 1602.5Q2010 1581 1981 1581H831Q801 1581 780.0 1602.0Q759 1623 759 1653Q759 1683 780.0 1704.0Q801 1725 831 1725ZM1660 1293H1152Q1138 1293 1128.0 1302.5Q1118 1312 1118 1326V1405Q1118 1419 1128.0 1428.5Q1138 1438 1152 1438H1661Q1675 1438 1684.5 1428.5Q1694 1419 1694 1405V1327Q1694 1313 1684.0 1303.0Q1674 1293 1660 1293ZM1693 1111Q1693 1097 1683.5 1087.5Q1674 1078 1660 1078H1511Q1493 1078 1486.0 1067.5Q1479 1057 1477.5 1041.0Q1476 1025 1478.0 1006.0Q1480 987 1478.5 971.0Q1477 955 1470.0 944.5Q1463 934 1445 934H1367Q1349 934 1342.0 944.5Q1335 955 1333.5 971.0Q1332 987 1333.5 1006.0Q1335 1025 1334.0 1041.0Q1333 1057 1326.0 1067.5Q1319 1078 1301 1078H1152Q1138 1078 1128.0 1087.5Q1118 1097 1118 1111V1188Q1118 1202 1128.0 1211.5Q1138 1221 1152 1221H1660Q1674 1221 1683.5 1211.5Q1693 1202 1693 1188Z" style="fill:#f8312f;stroke:none" transform="scale(1,-1) translate(0,-256)" /></svg>