<?xml version="1.0" encoding="utf-8" ?>
<svg baseProfile="full" height="256" version="1.1" width="256" xmlns="http://www.w3.org/2000/svg" xmlns:ev="http://www.w3.org/2001/xml-events" xmlns:xlink="http://www.w3.org/1999/xlink"><defs /><path d="M2340 167Q2340 132 2318.5 105.5Q2297 79 2263 71L662 -282Q657 -284 651.5 -284.0Q646 -284 640 -284Q620 -284 602.0 -276.0Q584 -268 571.0 -254.5Q558 -241 550.5 -223.5Q543 -206 543 -186V-42Q575 -42 603.0 -30.0Q631 -18 651.5 2.5Q672 23 684.0 51.0Q696 79 696 111Q696 143 684.0 170.5Q672 198 651.0 218.5Q630 239 602.0 251.0Q574 263 543 263V911Q543 937 556.0 959.0Q569 981 592 995Q599 999 606.0 1000.5Q613 1002 620 1006L1435 1411L2222 1359Q2227 1359 2233.0 1360.0Q2239 1361 2244 1361Q2264 1361 2281.5 1353.0Q2299 1345 2312.0 1331.5Q2325 1318 2332.5 1300.5Q2340 1283 2340 1263V1118Q2305 1118 2274.0 1105.0Q2243 1092 2219.5 1069.5Q2196 1047 2182.5 1016.5Q2169 986 2169 951Q2169 916 2183.0 886.0Q2197 856 2220.5 833.5Q2244 811 2275.0 798.0Q2306 785 2340 785Z" style="fill:#fcd53f;stroke:none" transform="scale(1,-1) translate(0,-256)" /></svg>