<?xml version="1.0" encoding="utf-8" ?>
<svg baseProfile="full" height="256" version="1.1" width="256" xmlns="http://www.w3.org/2000/svg" xmlns:ev="http://www.w3.org/2001/xml-events" xmlns:xlink="http://www.w3.org/1999/xlink"><defs /><path d="M1387 1685Q1410 1705 1438.5 1715.0Q1467 1725 1497 1725Q1535 1725 1571 1708L2273 1356L595 997ZM2015 688Q2015 634 1994.5 586.0Q1974 538 1938.0 502.0Q1902 466 1854.0 445.0Q1806 424 1752 424Q1697 424 1649.0 444.5Q1601 465 1565.0 501.0Q1529 537 1508.5 585.0Q1488 633 1488 688Q1488 742 1509.0 790.0Q1530 838 1566.0 874.0Q1602 910 1650.0 930.5Q1698 951 1752 951Q1806 951 1854.0 930.5Q1902 910 1938.0 874.0Q1974 838 1994.5 790.0Q2015 742 2015 688ZM1162 289Q1130 289 1102.5 301.0Q1075 313 1054.5 333.5Q1034 354 1022.0 381.5Q1010 409 1010 441Q1010 472 1022.0 500.0Q1034 528 1054.5 549.0Q1075 570 1102.5 582.0Q1130 594 1162 594Q1193 594 1221.0 582.0Q1249 570 1270.0 549.0Q1291 528 1303.0 500.0Q1315 472 1315 441Q1315 409 1303.0 381.5Q1291 354 1270.0 333.5Q1249 313 1221.0 301.0Q1193 289 1162 289ZM1619 207Q1619 173 1595.0 149.0Q1571 125 1537 125Q1503 125 1479.0 149.0Q1455 173 1455 207Q1455 241 1479.0 265.0Q1503 289 1537 289Q1571 289 1595.0 265.0Q1619 241 1619 207Z" style="fill:#ffb02e;stroke:none" transform="scale(1,-1) translate(0,-256)" /></svg>