<?xml version="1.0" encoding="utf-8" ?>
<svg baseProfile="full" height="256" version="1.1" width="256" xmlns="http://www.w3.org/2000/svg" xmlns:ev="http://www.w3.org/2001/xml-events" xmlns:xlink="http://www.w3.org/1999/xlink"><defs /><path d="M1023 1299Q1086 1299 1142.0 1274.5Q1198 1250 1239.0 1208.5Q1280 1167 1304.0 1111.0Q1328 1055 1328 992Q1328 963 1325.0 935.0Q1322 907 1320 878Q1347 873 1369.5 857.0Q1392 841 1405 817Q1419 842 1442.0 857.5Q1465 873 1493 878Q1491 907 1488.0 936.0Q1485 965 1485 994Q1485 1058 1509.0 1113.5Q1533 1169 1575.0 1210.0Q1617 1251 1673.0 1275.0Q1729 1299 1792 1299H1957Q2020 1299 2076.0 1275.0Q2132 1251 2173.0 1209.0Q2214 1167 2238.0 1111.0Q2262 1055 2262 992Q2262 963 2259.0 935.0Q2256 907 2254 878Q2298 870 2326.5 836.0Q2355 802 2355 757Q2355 732 2346.0 710.5Q2337 689 2321.5 672.5Q2306 656 2284.5 645.5Q2263 635 2239 634L2233 526Q2231 502 2222.5 477.0Q2214 452 2200.5 428.0Q2187 404 2170.5 383.0Q2154 362 2136 346Q2107 321 2074.0 304.0Q2041 287 2003 279V213Q2003 186 1992.5 162.5Q1982 139 1964.0 121.0Q1946 103 1922.5 93.0Q1899 83 1872 83Q1845 83 1821.5 93.0Q1798 103 1780.0 121.0Q1762 139 1752.0 162.5Q1742 186 1742 213V280Q1700 290 1660.5 312.5Q1621 335 1590.0 367.5Q1559 400 1539.0 440.5Q1519 481 1516 526L1509 634Q1476 635 1448.5 651.5Q1421 668 1405 697Q1390 670 1363.5 653.0Q1337 636 1305 634L1298 526Q1295 481 1274.5 440.0Q1254 399 1222.5 366.0Q1191 333 1151.0 310.5Q1111 288 1068 279V213Q1068 186 1058.0 162.5Q1048 139 1030.0 121.0Q1012 103 988.5 93.0Q965 83 938 83Q911 83 887.5 93.0Q864 103 846.0 121.0Q828 139 818.0 162.5Q808 186 808 213V280Q765 290 725.5 312.5Q686 335 655.5 367.5Q625 400 605.0 440.5Q585 481 582 526L574 634Q549 635 527.5 645.0Q506 655 490.0 671.5Q474 688 464.5 710.0Q455 732 455 757Q455 779 463.0 799.5Q471 820 484.5 836.5Q498 853 517.0 864.0Q536 875 558 878Q556 907 553.5 936.5Q551 966 551 995Q551 1059 575.0 1114.5Q599 1170 641.0 1211.0Q683 1252 739.0 1275.5Q795 1299 858 1299Z" style="fill:#6b438b;stroke:none" transform="scale(1,-1) translate(0,-256)" /></svg>