<?xml version="1.0" encoding="utf-8" ?>
<svg baseProfile="full" height="256" version="1.1" width="256" xmlns="http://www.w3.org/2000/svg" xmlns:ev="http://www.w3.org/2001/xml-events" xmlns:xlink="http://www.w3.org/1999/xlink"><defs /><path d="M2363 795Q2363 769 2370.5 746.5Q2378 724 2386.5 702.5Q2395 681 2402.5 657.5Q2410 634 2410 606Q2410 548 2383.5 501.5Q2357 455 2309 423Q2260 391 2237 335Q2235 330 2233.5 324.0Q2232 318 2229 313V310Q2224 301 2224.5 290.0Q2225 279 2224 269Q2221 226 2204.0 188.5Q2187 151 2159.5 123.0Q2132 95 2094.5 78.0Q2057 61 2014 58Q1963 55 1925.5 34.5Q1888 14 1860 -30Q1830 -78 1779.5 -104.5Q1729 -131 1673 -131Q1619 -131 1573 -107H1571Q1544 -92 1512 -92Q1493 -92 1475.0 -96.5Q1457 -101 1440 -107L1112 -225Q1050 -248 989.0 -267.5Q928 -287 861 -287Q766 -287 682.5 -250.5Q599 -214 536.0 -151.5Q473 -89 436.5 -5.5Q400 78 400 173Q400 231 419.5 290.5Q439 350 458 404L578 756Q584 774 588.5 792.0Q593 810 593 829Q593 849 587.0 867.0Q581 885 574.0 903.0Q567 921 561.0 941.5Q555 962 555 988Q555 1046 582.5 1096.0Q610 1146 658 1177Q697 1202 719.5 1241.5Q742 1281 744 1327Q746 1360 756.5 1388.0Q767 1416 784 1444Q788 1450 793.0 1455.5Q798 1461 802 1467L805 1469Q814 1483 833.5 1495.0Q853 1507 875.0 1516.0Q897 1525 918.5 1530.0Q940 1535 954 1536Q1002 1538 1041.0 1560.5Q1080 1583 1106 1624Q1136 1672 1186.0 1698.5Q1236 1725 1293 1725Q1321 1725 1344.0 1717.5Q1367 1710 1389.0 1701.5Q1411 1693 1433.0 1685.5Q1455 1678 1481 1678Q1507 1678 1529.5 1685.5Q1552 1693 1574.0 1701.5Q1596 1710 1619.0 1717.5Q1642 1725 1670 1725Q1727 1725 1777.0 1698.5Q1827 1672 1857 1624Q1910 1542 2011 1536Q2054 1533 2091.0 1516.0Q2128 1499 2156.0 1471.0Q2184 1443 2201.0 1405.5Q2218 1368 2221 1325Q2223 1298 2229.0 1276.5Q2235 1255 2245.5 1237.0Q2256 1219 2271.5 1203.0Q2287 1187 2309 1171Q2357 1136 2383.5 1091.0Q2410 1046 2410 984Q2410 956 2402.5 933.0Q2395 910 2386.5 888.0Q2378 866 2370.5 843.5Q2363 821 2363 795ZM2314 607Q2314 623 2310.0 637.0Q2306 651 2299 665Q2267 727 2267 795Q2267 831 2275.5 863.0Q2284 895 2300 927Q2314 955 2314 985Q2314 1017 2299.0 1045.5Q2284 1074 2257 1091H2256Q2193 1131 2161.5 1189.5Q2130 1248 2124 1321Q2120 1371 2088.0 1403.0Q2056 1435 2006 1439Q1929 1445 1875.0 1476.5Q1821 1508 1777 1571Q1758 1598 1731.5 1613.5Q1705 1629 1671 1629Q1643 1629 1614 1616L1613 1615Q1584 1599 1549.0 1590.5Q1514 1582 1481 1582Q1411 1582 1350 1615Q1322 1629 1292 1629Q1259 1629 1232.0 1613.5Q1205 1598 1186 1571Q1151 1520 1108.5 1490.0Q1066 1460 1006 1446Q978 1439 957.5 1415.5Q937 1392 939 1362L1017 409L2073 331Q2083 330 2096.0 335.0Q2109 340 2120.5 348.0Q2132 356 2140.5 366.0Q2149 376 2152 386L2154 388Q2175 423 2197.5 450.5Q2220 478 2255 500Q2283 517 2298.5 546.0Q2314 575 2314 607Z" style="fill:#6d4534;stroke:none" transform="scale(1,-1) translate(0,-256)" /></svg>