<?xml version="1.0" encoding="utf-8" ?>
<svg baseProfile="full" height="256" version="1.1" width="256" xmlns="http://www.w3.org/2000/svg" xmlns:ev="http://www.w3.org/2001/xml-events" xmlns:xlink="http://www.w3.org/1999/xlink"><defs /><path d="M1154 431Q1087 431 1028.5 456.5Q970 482 926.0 526.0Q882 570 856.5 629.0Q831 688 831 755Q831 822 856.5 880.5Q882 939 926.0 983.0Q970 1027 1028.5 1052.5Q1087 1078 1154 1078Q1221 1078 1280.0 1052.5Q1339 1027 1383.0 983.5Q1427 940 1452.5 881.0Q1478 822 1478 755Q1478 688 1452.5 629.0Q1427 570 1383.0 526.0Q1339 482 1280.0 456.5Q1221 431 1154 431Z" style="fill:#f4f4f4;stroke:none" transform="scale(1,-1) translate(0,-256)" /></svg>