<?xml version="1.0" encoding="utf-8" ?>
<svg baseProfile="full" height="256" version="1.1" width="256" xmlns="http://www.w3.org/2000/svg" xmlns:ev="http://www.w3.org/2001/xml-events" xmlns:xlink="http://www.w3.org/1999/xlink"><defs /><path d="M1888 719Q1888 611 1842.0 513.0Q1796 415 1713 346Q1695 331 1676.0 319.0Q1657 307 1637 294L1045 -75Q1001 -102 959.0 -118.5Q917 -135 863 -135Q799 -135 742.5 -110.5Q686 -86 644.0 -43.5Q602 -1 577.5 55.5Q553 112 553 176Q553 204 557.0 228.0Q561 252 569.0 273.5Q577 295 588.5 316.5Q600 338 614 361L1003 991Q1034 1041 1078.5 1080.5Q1123 1120 1176.5 1147.5Q1230 1175 1288.0 1189.5Q1346 1204 1404 1204Q1504 1204 1592.0 1166.0Q1680 1128 1746.0 1062.0Q1812 996 1850.0 907.5Q1888 819 1888 719Z" style="fill:#ffce7c;stroke:none" transform="scale(1,-1) translate(0,-256)" /></svg>