<?xml version="1.0" encoding="utf-8" ?>
<svg baseProfile="full" height="256" version="1.1" width="256" xmlns="http://www.w3.org/2000/svg" xmlns:ev="http://www.w3.org/2001/xml-events" xmlns:xlink="http://www.w3.org/1999/xlink"><defs /><path d="M494 177Q494 213 499.5 242.0Q505 271 515.0 297.5Q525 324 539.0 350.5Q553 377 570 407L569 408L661 706Q663 711 665.5 715.5Q668 720 670 725Q689 769 689 818Q689 846 682.5 868.0Q676 890 668.5 909.5Q661 929 655.0 947.0Q649 965 649 985Q649 1018 662.0 1040.0Q675 1062 694.0 1080.0Q713 1098 736.5 1116.0Q760 1134 781.0 1160.5Q802 1187 818.0 1225.0Q834 1263 838 1321Q840 1344 849.0 1370.0Q858 1396 873.5 1419.0Q889 1442 909.5 1458.0Q930 1474 956 1477Q1030 1485 1087.5 1514.5Q1145 1544 1186 1609V1610Q1203 1636 1231.5 1651.5Q1260 1667 1292 1667Q1324 1667 1348 1653H1350Q1380 1636 1413.5 1628.0Q1447 1620 1481 1620Q1516 1620 1549.5 1628.5Q1583 1637 1613 1653H1614Q1640 1667 1670 1667Q1703 1667 1725.0 1654.5Q1747 1642 1765.0 1622.5Q1783 1603 1801.0 1579.5Q1819 1556 1845.5 1535.0Q1872 1514 1910.0 1498.0Q1948 1482 2006 1477Q2056 1472 2088.0 1440.5Q2120 1409 2124 1359Q2127 1320 2142.0 1281.0Q2157 1242 2180.0 1207.0Q2203 1172 2232.5 1142.0Q2262 1112 2294 1091Q2321 1073 2336.0 1045.5Q2351 1018 2351 986Q2351 955 2336 928Q2320 899 2312.0 864.5Q2304 830 2304 796Q2304 763 2312.0 728.5Q2320 694 2336 665Q2351 638 2351 608Q2351 574 2338.0 552.5Q2325 531 2305.5 513.0Q2286 495 2263.0 477.0Q2240 459 2219.0 433.0Q2198 407 2182.0 368.5Q2166 330 2161 271Q2157 222 2124.5 189.5Q2092 157 2043 153Q2007 150 1968.5 141.0Q1930 132 1894.0 116.0Q1858 100 1827.5 76.5Q1797 53 1777 21Q1760 -7 1731.5 -22.0Q1703 -37 1670 -37Q1639 -37 1614 -24V-23Q1563 4 1504 4Q1456 4 1410 -16Q1405 -18 1400.5 -20.5Q1396 -23 1391 -25L1058 -137L1056 -138Q1010 -164 963.5 -179.0Q917 -194 863 -194Q786 -194 719.0 -164.5Q652 -135 602.0 -85.0Q552 -35 523.0 32.5Q494 100 494 177Z" style="fill:#d3d3d3;stroke:none" transform="scale(1,-1) translate(0,-256)" /></svg>