<?xml version="1.0" encoding="utf-8" ?>
<svg baseProfile="full" height="256" version="1.1" width="256" xmlns="http://www.w3.org/2000/svg" xmlns:ev="http://www.w3.org/2001/xml-events" xmlns:xlink="http://www.w3.org/1999/xlink"><defs /><path d="M1406 1294Q1388 1294 1354.0 1296.0Q1320 1298 1280.5 1304.0Q1241 1310 1199.5 1319.5Q1158 1329 1124.0 1344.0Q1090 1359 1068.5 1380.0Q1047 1401 1047 1429Q1047 1457 1068.5 1477.5Q1090 1498 1124.0 1513.0Q1158 1528 1199.5 1537.5Q1241 1547 1281.0 1553.0Q1321 1559 1354.5 1561.0Q1388 1563 1406 1563Q1424 1563 1457.5 1561.0Q1491 1559 1531.0 1553.0Q1571 1547 1612.5 1537.5Q1654 1528 1688.0 1513.0Q1722 1498 1743.5 1477.5Q1765 1457 1765 1429Q1765 1401 1743.5 1380.0Q1722 1359 1688.0 1344.0Q1654 1329 1612.5 1319.5Q1571 1310 1531.5 1304.0Q1492 1298 1458.0 1296.0Q1424 1294 1406 1294ZM1406 1366Q1415 1366 1435.0 1367.0Q1455 1368 1479.0 1371.0Q1503 1374 1528.5 1379.5Q1554 1385 1574.5 1393.0Q1595 1401 1608.5 1412.0Q1622 1423 1622 1438Q1622 1453 1608.5 1464.0Q1595 1475 1574.5 1483.0Q1554 1491 1528.5 1496.5Q1503 1502 1479.0 1505.0Q1455 1508 1435.0 1509.0Q1415 1510 1406 1510Q1396 1510 1376.5 1509.0Q1357 1508 1333.0 1505.0Q1309 1502 1283.5 1496.5Q1258 1491 1237.5 1483.0Q1217 1475 1203.5 1464.0Q1190 1453 1190 1438Q1190 1423 1203.5 1412.0Q1217 1401 1237.5 1393.0Q1258 1385 1283.5 1379.5Q1309 1374 1333.0 1371.0Q1357 1368 1376.5 1367.0Q1396 1366 1406 1366Z" style="fill:#6d4534;stroke:none" transform="scale(1,-1) translate(0,-256)" /></svg>