<?xml version="1.0" encoding="utf-8" ?>
<svg baseProfile="full" height="256" version="1.1" width="256" xmlns="http://www.w3.org/2000/svg" xmlns:ev="http://www.w3.org/2001/xml-events" xmlns:xlink="http://www.w3.org/1999/xlink"><defs /><path d="M1406 1150Q1353 1150 1297.0 1154.0Q1241 1158 1185.5 1168.0Q1130 1178 1076.5 1194.5Q1023 1211 975 1235H976H975V827Q975 812 964.5 801.5Q954 791 939 791Q924 791 913.5 801.5Q903 812 903 827V1280H902H903Q873 1303 852.0 1332.5Q831 1362 831 1402Q831 1437 849.0 1466.5Q867 1496 896.5 1519.5Q926 1543 963.0 1562.0Q1000 1581 1038.0 1594.5Q1076 1608 1111.5 1617.5Q1147 1627 1174 1632Q1232 1643 1289.5 1648.0Q1347 1653 1406 1653Q1465 1653 1522.5 1648.0Q1580 1643 1638 1632Q1664 1627 1700.0 1617.5Q1736 1608 1774.0 1594.5Q1812 1581 1849.0 1562.0Q1886 1543 1915.5 1519.5Q1945 1496 1963.0 1466.5Q1981 1437 1981 1402Q1981 1367 1963.0 1337.5Q1945 1308 1915.5 1284.5Q1886 1261 1849.0 1242.0Q1812 1223 1774.0 1209.0Q1736 1195 1700.0 1185.5Q1664 1176 1638 1171Q1522 1150 1406 1150ZM1981 854V36Q1981 6 1967.5 -19.0Q1954 -44 1933.0 -65.0Q1912 -86 1886.5 -102.0Q1861 -118 1837 -130V180Q1837 195 1826.5 205.5Q1816 216 1801 216Q1786 216 1776.0 205.0Q1766 194 1765 180V869Q1765 904 1778.5 937.5Q1792 971 1818 996L2070 1247Q2081 1257 2093.5 1263.0Q2106 1269 2120 1269Q2149 1269 2171 1247Q2182 1236 2194.5 1225.5Q2207 1215 2218.0 1203.0Q2229 1191 2236.0 1177.0Q2243 1163 2243 1146Q2243 1116 2222 1095ZM554 484Q533 505 533 535Q533 563 554 586Q564 596 575.5 609.0Q587 622 599.0 632.5Q611 643 625.0 650.5Q639 658 655 658Q685 658 706 637L994 349Q1047 296 1047 222V-160Q1017 -150 979.5 -132.0Q942 -114 909.0 -89.5Q876 -65 853.5 -33.5Q831 -2 831 36V207ZM1118 755Q1118 769 1129.0 780.0Q1140 791 1154 791Q1169 791 1179.5 780.5Q1190 770 1190 755V467Q1190 453 1179.0 442.0Q1168 431 1154 431Q1140 431 1129.0 442.0Q1118 453 1118 467Z" style="fill:#a56953;stroke:none" transform="scale(1,-1) translate(0,-256)" /></svg>