<?xml version="1.0" encoding="utf-8" ?>
<svg baseProfile="full" height="256" version="1.1" width="256" xmlns="http://www.w3.org/2000/svg" xmlns:ev="http://www.w3.org/2001/xml-events" xmlns:xlink="http://www.w3.org/1999/xlink"><defs /><path d="M1909 1420Q1909 1391 1892.0 1367.5Q1875 1344 1848.0 1325.0Q1821 1306 1787.0 1291.5Q1753 1277 1718.5 1266.0Q1684 1255 1653.5 1248.0Q1623 1241 1602 1238Q1507 1222 1406 1222Q1305 1222 1210 1238Q1189 1241 1158.5 1248.0Q1128 1255 1093.5 1266.0Q1059 1277 1025.0 1291.5Q991 1306 964.0 1325.0Q937 1344 920.0 1367.5Q903 1391 903 1420Q903 1448 919.0 1471.0Q935 1494 961.5 1512.5Q988 1531 1020.5 1545.5Q1053 1560 1085.5 1571.0Q1118 1582 1148.0 1588.5Q1178 1595 1198 1599Q1250 1609 1301.5 1613.0Q1353 1617 1406 1617Q1459 1617 1510.5 1613.0Q1562 1609 1614 1599Q1634 1595 1664.0 1588.5Q1694 1582 1726.5 1571.0Q1759 1560 1791.5 1545.5Q1824 1531 1850.5 1512.5Q1877 1494 1893.0 1471.0Q1909 1448 1909 1420Z" style="fill:#f3ad61;stroke:none" transform="scale(1,-1) translate(0,-256)" /></svg>