<?xml version="1.0" encoding="utf-8" ?>
<svg baseProfile="full" height="256" version="1.1" width="256" xmlns="http://www.w3.org/2000/svg" xmlns:ev="http://www.w3.org/2001/xml-events" xmlns:xlink="http://www.w3.org/1999/xlink"><defs /><path d="M1649 407Q1655 397 1659.0 386.5Q1663 376 1663 364Q1663 344 1647.5 329.0Q1632 314 1612 314Q1604 314 1578.0 328.0Q1552 342 1521.5 360.0Q1491 378 1464.0 394.5Q1437 411 1427 417Q1419 422 1414.5 430.0Q1410 438 1410 447Q1410 472 1425.5 488.0Q1441 504 1466 504Q1475 504 1500.5 491.0Q1526 478 1555.5 461.5Q1585 445 1611.5 429.0Q1638 413 1649 407Z" style="fill:#9b9b9b;stroke:none" transform="scale(1,-1) translate(0,-256)" /></svg>