<?xml version="1.0" encoding="utf-8" ?>
<svg baseProfile="full" height="256" version="1.1" width="256" xmlns="http://www.w3.org/2000/svg" xmlns:ev="http://www.w3.org/2001/xml-events" xmlns:xlink="http://www.w3.org/1999/xlink"><defs /><path d="M1397 427Q1416 427 1434 424Q1478 398 1522.0 373.0Q1566 348 1609 321Q1617 316 1624.5 302.5Q1632 289 1637.0 272.5Q1642 256 1645.5 240.5Q1649 225 1649 215V199Q1649 133 1632.0 68.5Q1615 4 1595 -57Q1566 -147 1498.5 -200.5Q1431 -254 1334 -255L759 -259Q737 -259 716.0 -244.0Q695 -229 695 -205Q695 -186 706.0 -171.0Q717 -156 729 -143Q783 -88 843.0 -34.5Q903 19 963.0 73.5Q1023 128 1079.5 184.5Q1136 241 1184 302Q1216 344 1249.5 372.0Q1283 400 1334 419Q1348 424 1365.5 425.5Q1383 427 1397 427Z" style="fill:#ffb02e;stroke:none" transform="scale(1,-1) translate(0,-256)" /></svg>