<?xml version="1.0" encoding="utf-8" ?>
<svg baseProfile="full" height="256" version="1.1" width="256" xmlns="http://www.w3.org/2000/svg" xmlns:ev="http://www.w3.org/2001/xml-events" xmlns:xlink="http://www.w3.org/1999/xlink"><defs /><path d="M1199 350Q1204 350 1236.0 334.0Q1268 318 1314.5 293.0Q1361 268 1415.0 239.0Q1469 210 1517.5 183.0Q1566 156 1602.5 136.0Q1639 116 1650 110Q1664 102 1664 86Q1664 75 1656.5 67.0Q1649 59 1638 59Q1633 59 1601.0 75.0Q1569 91 1522.5 116.0Q1476 141 1421.5 170.0Q1367 199 1318.5 226.0Q1270 253 1233.5 273.0Q1197 293 1186 299Q1172 307 1172 323Q1172 334 1180.0 342.0Q1188 350 1199 350ZM1127 259Q1132 259 1167.0 241.5Q1202 224 1252.5 197.5Q1303 171 1362.5 139.0Q1422 107 1475.0 78.0Q1528 49 1567.5 27.5Q1607 6 1619 0Q1633 -8 1633 -24Q1633 -35 1625.0 -43.0Q1617 -51 1606 -51Q1601 -51 1566.0 -33.5Q1531 -16 1480.5 10.5Q1430 37 1370.5 69.0Q1311 101 1258.0 130.0Q1205 159 1165.5 180.5Q1126 202 1114 209Q1100 217 1100 233Q1100 244 1108.0 251.5Q1116 259 1127 259Z" style="fill:#f8312f;stroke:none" transform="scale(1,-1) translate(0,-256)" /></svg>