<?xml version="1.0" encoding="utf-8" ?>
<svg baseProfile="full" height="256" version="1.1" width="256" xmlns="http://www.w3.org/2000/svg" xmlns:ev="http://www.w3.org/2001/xml-events" xmlns:xlink="http://www.w3.org/1999/xlink"><defs /><path d="M1577 1720Q1665 1720 1743.0 1687.0Q1821 1654 1882 1593L2289 1187Q2350 1127 2382.5 1047.0Q2415 967 2415 882Q2415 796 2382.5 717.0Q2350 638 2289 577L1577 -135Q1516 -196 1437.0 -228.5Q1358 -261 1272 -261Q1187 -261 1107.0 -228.5Q1027 -196 967 -135L561 272Q500 333 467.0 411.0Q434 489 434 577Q434 646 455.5 711.0Q477 776 518 832Q528 846 539.5 857.5Q551 869 561 882L669 1027Q685 1048 694.5 1064.0Q704 1080 723 1099Q741 1117 756.5 1126.0Q772 1135 792 1150L930 1251Q948 1267 961.5 1280.5Q975 1294 988.0 1307.5Q1001 1321 1014.0 1334.5Q1027 1348 1044 1365L1272 1593Q1333 1654 1412.0 1687.0Q1491 1720 1577 1720Z" style="fill:#ff6dc6;stroke:none" transform="scale(1,-1) translate(0,-256)" /></svg>