<?xml version="1.0" encoding="utf-8" ?>
<svg baseProfile="full" height="256" version="1.1" width="256" xmlns="http://www.w3.org/2000/svg" xmlns:ev="http://www.w3.org/2001/xml-events" xmlns:xlink="http://www.w3.org/1999/xlink"><defs /><path d="M2140 870Q2140 900 2119 921L1611 1429Q1590 1450 1560 1450Q1530 1450 1509 1429L696 616Q675 595 675 565Q675 535 696 514L1204 6Q1225 -15 1255 -15Q1285 -15 1306 6L2119 819Q2140 840 2140 870ZM1560 1522Q1588 1522 1615.0 1511.0Q1642 1500 1662 1480L2170 972Q2190 952 2201.0 925.0Q2212 898 2212 870Q2212 841 2201.0 814.5Q2190 788 2170 768L1357 -45Q1337 -65 1310.0 -76.0Q1283 -87 1255 -87Q1226 -87 1199.5 -76.0Q1173 -65 1153 -45L645 463Q625 483 614.0 509.5Q603 536 603 565Q603 593 614.0 620.0Q625 647 645 667L1458 1480Q1478 1500 1504.5 1511.0Q1531 1522 1560 1522Z" style="fill:#ffb2ff;stroke:none" transform="scale(1,-1) translate(0,-256)" /></svg>