<?xml version="1.0" encoding="utf-8" ?>
<svg baseProfile="full" height="256" version="1.1" width="256" xmlns="http://www.w3.org/2000/svg" xmlns:ev="http://www.w3.org/2001/xml-events" xmlns:xlink="http://www.w3.org/1999/xlink"><defs /><path d="M579 1366Q556 1366 536.5 1374.5Q517 1383 503.0 1398.0Q489 1413 480.5 1432.5Q472 1452 472 1474Q472 1496 480.5 1515.5Q489 1535 503.5 1549.5Q518 1564 537.5 1572.5Q557 1581 579 1581Q601 1581 620.5 1572.5Q640 1564 655.0 1550.0Q670 1536 678.5 1516.0Q687 1496 687 1474Q687 1451 678.5 1431.5Q670 1412 655.5 1397.5Q641 1383 621.0 1374.5Q601 1366 579 1366ZM728 1049Q708 1069 697.5 1095.5Q687 1122 687 1150Q687 1180 698.5 1206.0Q710 1232 729.5 1251.5Q749 1271 775.0 1282.5Q801 1294 831 1294Q859 1294 885.5 1283.5Q912 1273 932 1253ZM1981 -36Q1981 -73 1967.0 -105.5Q1953 -138 1928.5 -162.5Q1904 -187 1871.0 -201.0Q1838 -215 1801 -215Q1764 -215 1731.5 -201.0Q1699 -187 1674.5 -162.5Q1650 -138 1636.0 -105.5Q1622 -73 1622 -36Q1622 1 1636.0 34.0Q1650 67 1674.5 91.5Q1699 116 1731.5 130.0Q1764 144 1801 144Q1838 144 1871.0 130.0Q1904 116 1928.5 91.5Q1953 67 1967.0 34.0Q1981 1 1981 -36Z" style="fill:#f3eef8;stroke:none" transform="scale(1,-1) translate(0,-256)" /></svg>