<?xml version="1.0" encoding="utf-8" ?>
<svg baseProfile="full" height="256" version="1.1" width="256" xmlns="http://www.w3.org/2000/svg" xmlns:ev="http://www.w3.org/2001/xml-events" xmlns:xlink="http://www.w3.org/1999/xlink"><defs /><path d="M1583 528 1003 322Q972 413 957.5 507.5Q943 602 943 699Q943 785 954.5 869.5Q966 954 991 1036Q1005 1085 1027.0 1137.0Q1049 1189 1078.5 1238.5Q1108 1288 1144.5 1331.5Q1181 1375 1225.0 1408.0Q1269 1441 1320.0 1460.5Q1371 1480 1429 1480Q1501 1480 1562.5 1450.5Q1624 1421 1674.0 1374.0Q1724 1327 1762.5 1267.0Q1801 1207 1827 1147Z" style="fill:#26eafc;stroke:none" transform="scale(1,-1) translate(0,-256)" /></svg>