<?xml version="1.0" encoding="utf-8" ?>
<svg baseProfile="full" height="256" version="1.1" width="256" xmlns="http://www.w3.org/2000/svg" xmlns:ev="http://www.w3.org/2001/xml-events" xmlns:xlink="http://www.w3.org/1999/xlink"><defs /><path d="M1429 -82Q1347 -82 1279.0 -44.5Q1211 -7 1157.5 51.5Q1104 110 1065.5 182.0Q1027 254 1003 323L1827 1147Q1873 1041 1894.0 927.5Q1915 814 1915 699Q1915 619 1905.0 540.0Q1895 461 1873 383Q1859 332 1837.5 278.0Q1816 224 1787.0 172.5Q1758 121 1721.0 75.0Q1684 29 1639.0 -6.0Q1594 -41 1541.5 -61.5Q1489 -82 1429 -82Z" style="fill:#b4f6fc;stroke:none" transform="scale(1,-1) translate(0,-256)" /></svg>