<?xml version="1.0" encoding="utf-8" ?>
<svg baseProfile="full" height="256" version="1.1" width="256" xmlns="http://www.w3.org/2000/svg" xmlns:ev="http://www.w3.org/2001/xml-events" xmlns:xlink="http://www.w3.org/1999/xlink"><defs /><path d="M1241 1157Q1256 1157 1267.0 1146.0Q1278 1135 1278 1120Q1278 1110 1274 1103H1209Q1205 1110 1205 1120Q1205 1135 1215.5 1146.0Q1226 1157 1241 1157ZM1557 1157Q1542 1157 1531.0 1146.0Q1520 1135 1520 1120Q1520 1115 1521.0 1111.5Q1522 1108 1524 1103H1589Q1594 1111 1594 1120Q1594 1135 1583.0 1146.0Q1572 1157 1557 1157Z" style="fill:#000000;stroke:none" transform="scale(1,-1) translate(0,-256)" /></svg>