<?xml version="1.0" encoding="utf-8" ?>
<svg baseProfile="full" height="256" version="1.1" width="256" xmlns="http://www.w3.org/2000/svg" xmlns:ev="http://www.w3.org/2001/xml-events" xmlns:xlink="http://www.w3.org/1999/xlink"><defs /><path d="M1400 1263Q1485 1263 1571.5 1257.0Q1658 1251 1742.0 1233.5Q1826 1216 1905.5 1185.0Q1985 1154 2057 1105Q2083 1088 2109.0 1067.0Q2135 1046 2156 1023Q2167 1010 2173.5 996.0Q2180 982 2180 965Q2180 962 2180.0 958.5Q2180 955 2179 951Q2153 808 2083.0 688.0Q2013 568 1909.5 480.0Q1806 392 1676.0 343.0Q1546 294 1400 294Q1254 294 1124.0 343.0Q994 392 891.0 480.0Q788 568 717.5 688.0Q647 808 621 951Q620 956 620 966Q620 983 626.5 996.5Q633 1010 644 1023Q665 1046 691.0 1067.0Q717 1088 743 1105Q815 1154 894.5 1185.0Q974 1216 1058.0 1233.0Q1142 1250 1228.5 1256.5Q1315 1263 1400 1263Z" style="fill:#321b41;stroke:none" transform="scale(1,-1) translate(0,-256)" /></svg>