<?xml version="1.0" encoding="utf-8" ?>
<svg baseProfile="full" height="256" version="1.1" width="256" xmlns="http://www.w3.org/2000/svg" xmlns:ev="http://www.w3.org/2001/xml-events" xmlns:xlink="http://www.w3.org/1999/xlink"><defs /><path d="M1486 1653Q1547 1653 1601.5 1629.5Q1656 1606 1696.0 1565.5Q1736 1525 1759.5 1470.5Q1783 1416 1783 1355Q1783 1344 1782.0 1334.0Q1781 1324 1780 1313Q1774 1208 1768.0 1104.0Q1762 1000 1755 895Q1753 876 1747.5 855.5Q1742 835 1734 818Q1717 779 1690.5 747.5Q1664 716 1630.0 693.5Q1596 671 1556.5 659.0Q1517 647 1475 647H1338Q1287 647 1238.5 666.0Q1190 685 1151.0 718.5Q1112 752 1087.0 797.0Q1062 842 1058 895Q1050 1000 1044.0 1104.0Q1038 1208 1031 1313Q1030 1323 1029.5 1332.0Q1029 1341 1029 1351Q1029 1414 1051.5 1469.5Q1074 1525 1113.5 1565.5Q1153 1606 1207.5 1629.5Q1262 1653 1326 1653H1486Z" style="fill:#ffc83d;stroke:none" transform="scale(1,-1) translate(0,-256)" /></svg>