<?xml version="1.0" encoding="utf-8" ?>
<svg baseProfile="full" height="256" version="1.1" width="256" xmlns="http://www.w3.org/2000/svg" xmlns:ev="http://www.w3.org/2001/xml-events" xmlns:xlink="http://www.w3.org/1999/xlink"><defs /><path d="M1380 504Q1380 500 1375.0 474.0Q1370 448 1362.5 411.0Q1355 374 1346.0 330.5Q1337 287 1329.0 248.0Q1321 209 1315.0 180.0Q1309 151 1307 142Q1305 135 1298 135Q1289 135 1289 144Q1289 148 1294.0 174.0Q1299 200 1306.5 237.0Q1314 274 1323.0 317.0Q1332 360 1340.0 399.0Q1348 438 1354.0 467.0Q1360 496 1362 505Q1364 512 1371 512Q1374 512 1377.0 509.5Q1380 507 1380 504ZM1442 512Q1449 512 1451 505Q1453 496 1459.0 466.5Q1465 437 1473.0 398.5Q1481 360 1489.5 317.0Q1498 274 1505.5 237.0Q1513 200 1518.0 174.0Q1523 148 1523 144Q1523 135 1514 135Q1507 135 1505 142Q1503 151 1497.0 180.0Q1491 209 1483.0 248.0Q1475 287 1466.5 330.0Q1458 373 1450.5 410.5Q1443 448 1438.0 474.0Q1433 500 1433 504Q1433 512 1442 512Z" style="fill:#9b9b9b;stroke:none" transform="scale(1,-1) translate(0,-256)" /></svg>