<?xml version="1.0" encoding="utf-8" ?>
<svg baseProfile="full" height="256" version="1.1" width="256" xmlns="http://www.w3.org/2000/svg" xmlns:ev="http://www.w3.org/2001/xml-events" xmlns:xlink="http://www.w3.org/1999/xlink"><defs /><path d="M1595 118Q1597 108 1600.0 97.5Q1603 87 1603 77Q1603 67 1596.5 60.5Q1590 54 1580 54Q1571 54 1562.5 56.5Q1554 59 1545 59Q1520 59 1504.5 50.0Q1489 41 1475.5 30.5Q1462 20 1446.5 11.5Q1431 3 1406 3Q1382 3 1367.0 11.5Q1352 20 1338.0 30.5Q1324 41 1308.5 50.0Q1293 59 1269 59Q1258 59 1248.0 55.5Q1238 52 1229 52Q1221 52 1215.0 58.5Q1209 65 1209 73Q1209 77 1209.5 81.5Q1210 86 1211 91H1210L1326 806Q1329 826 1338.5 849.5Q1348 873 1355 893H1418L1477 806Z" style="fill:#d3d3d3;stroke:none" transform="scale(1,-1) translate(0,-256)" /></svg>