<?xml version="1.0" encoding="utf-8" ?>
<svg baseProfile="full" height="256" version="1.1" width="256" xmlns="http://www.w3.org/2000/svg" xmlns:ev="http://www.w3.org/2001/xml-events" xmlns:xlink="http://www.w3.org/1999/xlink"><defs /><path d="M1647 1259Q1644 1259 1635.0 1264.0Q1626 1269 1612.5 1274.5Q1599 1280 1582.0 1285.0Q1565 1290 1546 1290Q1540 1290 1533.5 1289.5Q1527 1289 1521.0 1290.5Q1515 1292 1511.0 1296.0Q1507 1300 1507 1309Q1507 1317 1511.5 1321.5Q1516 1326 1522.0 1328.0Q1528 1330 1535.5 1330.0Q1543 1330 1549 1330Q1558 1330 1574.0 1327.5Q1590 1325 1606.5 1320.5Q1623 1316 1637.5 1309.5Q1652 1303 1658 1295Q1666 1290 1666 1280Q1666 1272 1660.5 1265.5Q1655 1259 1647 1259ZM1152 1259Q1144 1259 1138.0 1265.0Q1132 1271 1132 1279Q1132 1288 1139 1295H1140Q1191 1329 1251 1329Q1257 1329 1264.0 1329.0Q1271 1329 1277.0 1327.0Q1283 1325 1287.0 1320.5Q1291 1316 1291 1308Q1291 1300 1285.5 1294.0Q1280 1288 1272 1288Q1267 1288 1261.5 1288.5Q1256 1289 1251 1289Q1231 1289 1215.0 1284.5Q1199 1280 1186.0 1274.0Q1173 1268 1164.5 1263.5Q1156 1259 1152 1259Z" style="fill:#212121;stroke:none" transform="scale(1,-1) translate(0,-256)" /></svg>