<?xml version="1.0" encoding="utf-8" ?>
<svg baseProfile="full" height="256" version="1.1" width="256" xmlns="http://www.w3.org/2000/svg" xmlns:ev="http://www.w3.org/2001/xml-events" xmlns:xlink="http://www.w3.org/1999/xlink"><defs /><path d="M1496 889Q1500 891 1509.0 895.0Q1518 899 1520 899Q1525 899 1529.0 895.5Q1533 892 1532 887L1533 886L1509 791Q1507 784 1500 784Q1492 784 1490 791L1469 880ZM1277 887Q1277 892 1280.5 895.0Q1284 898 1288 898Q1291 898 1299.0 895.5Q1307 893 1316.0 890.0Q1325 887 1332.5 884.0Q1340 881 1342 881L1320 791Q1318 784 1311 784Q1304 784 1302 791Q1300 798 1296.0 812.0Q1292 826 1287.5 840.5Q1283 855 1280.0 868.0Q1277 881 1277 887Z" style="fill:#ffffff;stroke:none" transform="scale(1,-1) translate(0,-256)" /></svg>