<?xml version="1.0" encoding="utf-8" ?>
<svg baseProfile="full" height="256" version="1.1" width="256" xmlns="http://www.w3.org/2000/svg" xmlns:ev="http://www.w3.org/2001/xml-events" xmlns:xlink="http://www.w3.org/1999/xlink"><defs /><path d="M1343 998Q1343 1007 1347.5 1025.0Q1352 1043 1358.5 1062.5Q1365 1082 1371.0 1100.5Q1377 1119 1380 1130Q1382 1139 1389.5 1144.5Q1397 1150 1406 1150Q1427 1150 1432 1130Q1435 1119 1441.0 1100.5Q1447 1082 1453.5 1062.5Q1460 1043 1464.5 1025.0Q1469 1007 1469 998Q1469 982 1458.5 971.0Q1448 960 1432 960H1380Q1364 960 1353.5 971.0Q1343 982 1343 998Z" style="fill:#ed9200;stroke:none" transform="scale(1,-1) translate(0,-256)" /></svg>