<?xml version="1.0" encoding="utf-8" ?>
<svg baseProfile="full" height="256" version="1.1" width="256" xmlns="http://www.w3.org/2000/svg" xmlns:ev="http://www.w3.org/2001/xml-events" xmlns:xlink="http://www.w3.org/1999/xlink"><defs /><path d="M1406 574Q1394 574 1377.5 563.0Q1361 552 1342.5 535.5Q1324 519 1304.0 499.5Q1284 480 1266.0 463.5Q1248 447 1232.0 436.0Q1216 425 1205 425Q1191 425 1181.5 434.0Q1172 443 1172 457V736Q1229 758 1287.5 768.5Q1346 779 1406 779Q1466 779 1524.5 768.5Q1583 758 1640 736V457Q1640 443 1630.5 434.0Q1621 425 1607 425Q1596 425 1580.0 436.0Q1564 447 1546.0 463.5Q1528 480 1508.0 499.5Q1488 519 1469.5 535.5Q1451 552 1434.5 563.0Q1418 574 1406 574Z" style="fill:#e6e6e6;stroke:none" transform="scale(1,-1) translate(0,-256)" /></svg>