<?xml version="1.0" encoding="utf-8" ?>
<svg baseProfile="full" height="256" version="1.1" width="256" xmlns="http://www.w3.org/2000/svg" xmlns:ev="http://www.w3.org/2001/xml-events" xmlns:xlink="http://www.w3.org/1999/xlink"><defs /><path d="M1177 1120Q1177 1147 1195.5 1166.0Q1214 1185 1241 1185Q1268 1185 1287.0 1166.0Q1306 1147 1306 1120Q1306 1110 1303 1103H1179Q1177 1108 1177.0 1111.5Q1177 1115 1177 1120ZM1622 1120Q1622 1147 1603.0 1166.0Q1584 1185 1557 1185Q1530 1185 1511.5 1165.5Q1493 1146 1493 1120Q1493 1115 1493.5 1111.5Q1494 1108 1495 1103H1619Q1622 1110 1622 1120Z" style="fill:#f92f60;stroke:none" transform="scale(1,-1) translate(0,-256)" /></svg>