<?xml version="1.0" encoding="utf-8" ?>
<svg baseProfile="full" height="256" version="1.1" width="256" xmlns="http://www.w3.org/2000/svg" xmlns:ev="http://www.w3.org/2001/xml-events" xmlns:xlink="http://www.w3.org/1999/xlink"><defs /><path d="M1401 1335Q1501 1335 1598.0 1316.5Q1695 1298 1786.0 1263.0Q1877 1228 1961.5 1176.5Q2046 1125 2120 1058Q2116 962 2088.5 873.0Q2061 784 2013.5 707.0Q1966 630 1900.5 567.0Q1835 504 1756.5 459.0Q1678 414 1588.0 389.5Q1498 365 1401 365Q1304 365 1214.0 389.5Q1124 414 1045.5 458.5Q967 503 901.5 566.0Q836 629 788.5 706.0Q741 783 713.0 872.0Q685 961 682 1058Q831 1192 1015.5 1263.5Q1200 1335 1401 1335Z" style="fill:#f92f60;stroke:none" transform="scale(1,-1) translate(0,-256)" /></svg>