<?xml version="1.0" encoding="utf-8" ?>
<svg baseProfile="full" height="256" version="1.1" width="256" xmlns="http://www.w3.org/2000/svg" xmlns:ev="http://www.w3.org/2001/xml-events" xmlns:xlink="http://www.w3.org/1999/xlink"><defs /><path d="M1402 767Q1547 767 1675.0 715.0Q1803 663 1909 564L1957 281Q1960 260 1964.5 243.0Q1969 226 1972.5 210.0Q1976 194 1978.5 177.0Q1981 160 1981 139Q1981 118 1978.5 101.0Q1976 84 1972.5 67.5Q1969 51 1964.5 34.5Q1960 18 1957 -3L1909 -287H1640Q1640 -287 1623.5 -282.0Q1607 -277 1582.5 -269.5Q1558 -262 1529.0 -253.0Q1500 -244 1474.0 -236.0Q1448 -228 1429.5 -222.0Q1411 -216 1407 -215Q1403 -216 1384.0 -222.0Q1365 -228 1339.0 -236.0Q1313 -244 1284.0 -253.0Q1255 -262 1230.0 -269.5Q1205 -277 1188.5 -282.0Q1172 -287 1172 -287H903L855 -4Q852 17 847.5 33.5Q843 50 839.5 66.0Q836 82 833.5 99.0Q831 116 831 137Q831 158 833.5 175.0Q836 192 839.5 208.0Q843 224 847.5 241.0Q852 258 855 279L903 562Q1010 661 1132.5 714.0Q1255 767 1402 767Z" style="fill:#321b41;stroke:none" transform="scale(1,-1) translate(0,-256)" /></svg>