<?xml version="1.0" encoding="utf-8" ?>
<svg baseProfile="full" height="256" version="1.1" width="256" xmlns="http://www.w3.org/2000/svg" xmlns:ev="http://www.w3.org/2001/xml-events" xmlns:xlink="http://www.w3.org/1999/xlink"><defs /><path d="M2197 -141Q2197 -178 2196.5 -214.0Q2196 -250 2195 -287H1909V564Q1984 495 2046.5 413.0Q2109 331 2141 232Q2170 141 2183.5 47.0Q2197 -47 2197 -141ZM903 562V-287H615V-139Q615 -42 631.0 47.0Q647 136 673 229Q686 277 710.5 322.5Q735 368 765.5 410.0Q796 452 831.5 490.5Q867 529 903 562Z" style="fill:#533566;stroke:none" transform="scale(1,-1) translate(0,-256)" /></svg>