<?xml version="1.0" encoding="utf-8" ?>
<svg baseProfile="full" height="256" version="1.1" width="256" xmlns="http://www.w3.org/2000/svg" xmlns:ev="http://www.w3.org/2001/xml-events" xmlns:xlink="http://www.w3.org/1999/xlink"><defs /><path d="M978 1434H1259V1154H978ZM1834 1434H1553V1154H1834ZM475 1434Q446 1434 424.5 1412.5Q403 1391 403 1362V1154H684V1434ZM684 859H403V579H684ZM403 284H684V4H475Q446 4 424.5 25.5Q403 47 403 76ZM971 572H691V291H971ZM691 1147H971V866H691ZM1553 859H1834V579H1553ZM1834 284H1553V4H1834ZM1841 571H2121V291H1841ZM2121 1147H1841V866H2121ZM1259 859H978V579H1259ZM978 284H1259V4H978ZM1546 572H1266V291H1546ZM1266 1147H1546V866H1266ZM2337 1434H2128V1154H2409V1362Q2409 1391 2387.5 1412.5Q2366 1434 2337 1434ZM2128 859H2409V579H2128ZM2409 284H2128V4H2337Q2366 4 2387.5 25.5Q2409 47 2409 76Z" style="fill:#000000;stroke:none" transform="scale(1,-1) translate(0,-256)" /></svg>