<?xml version="1.0" encoding="utf-8" ?>
<svg baseProfile="full" height="256" version="1.1" width="256" xmlns="http://www.w3.org/2000/svg" xmlns:ev="http://www.w3.org/2001/xml-events" xmlns:xlink="http://www.w3.org/1999/xlink"><defs /><path d="M472 1366Q475 1367 492.0 1372.5Q509 1378 532.5 1385.5Q556 1393 582.5 1401.5Q609 1410 631.5 1417.5Q654 1425 669.0 1429.5Q684 1434 684 1434H978L1118 1366L1259 1434H1553L1693 1366L1834 1434H2128Q2128 1434 2143.0 1429.5Q2158 1425 2180.5 1417.5Q2203 1410 2229.5 1401.5Q2256 1393 2279.5 1385.5Q2303 1378 2319.5 1372.5Q2336 1367 2340 1366Q2341 1362 2346.5 1345.5Q2352 1329 2360.0 1305.5Q2368 1282 2376.5 1255.5Q2385 1229 2392.0 1206.5Q2399 1184 2404.0 1169.0Q2409 1154 2409 1154V859L2340 719L2409 579V284Q2409 284 2404.0 269.0Q2399 254 2392.0 231.5Q2385 209 2376.5 182.5Q2368 156 2360.0 132.5Q2352 109 2346.5 92.0Q2341 75 2340 72Q2336 71 2319.5 65.5Q2303 60 2279.5 52.5Q2256 45 2229.5 36.5Q2203 28 2180.5 20.5Q2158 13 2143.0 8.5Q2128 4 2128 4H1834L1693 72L1553 4H1259L1118 72L978 4H684Q684 4 669.0 8.5Q654 13 631.5 20.5Q609 28 582.5 36.5Q556 45 532.5 52.5Q509 60 492.0 65.5Q475 71 472 72Q471 75 465.5 92.0Q460 109 452.0 132.5Q444 156 435.5 182.5Q427 209 420.0 231.5Q413 254 408.0 269.0Q403 284 403 284V579L472 719L403 859V1154Q403 1154 408.0 1169.0Q413 1184 420.0 1206.5Q427 1229 435.5 1255.5Q444 1282 452.0 1305.5Q460 1329 465.5 1345.5Q471 1362 472 1366Z" style="fill:#f4f4f4;stroke:none" transform="scale(1,-1) translate(0,-256)" /></svg>