<?xml version="1.0" encoding="utf-8" ?>
<svg baseProfile="full" height="256" version="1.1" width="256" xmlns="http://www.w3.org/2000/svg" xmlns:ev="http://www.w3.org/2001/xml-events" xmlns:xlink="http://www.w3.org/1999/xlink"><defs /><path d="M1047 288Q1047 265 1033.5 246.5Q1020 228 998 220Q947 229 903.0 254.5Q859 280 827.0 318.0Q795 356 777.0 403.5Q759 451 759 503Q759 555 777.0 603.0Q795 651 827.0 688.5Q859 726 902.5 752.0Q946 778 998 787Q1019 779 1033.0 760.5Q1047 742 1047 719ZM1765 719Q1765 742 1778.5 760.5Q1792 779 1813 787Q1865 778 1909.0 752.5Q1953 727 1985.0 689.0Q2017 651 2035.0 603.0Q2053 555 2053 503Q2053 450 2035.0 402.5Q2017 355 1985.0 317.5Q1953 280 1909.0 254.5Q1865 229 1813 220Q1791 228 1778.0 246.5Q1765 265 1765 288Z" style="fill:#533566;stroke:none" transform="scale(1,-1) translate(0,-256)" /></svg>