<?xml version="1.0" encoding="utf-8" ?>
<svg baseProfile="full" height="256" version="1.1" width="256" xmlns="http://www.w3.org/2000/svg" xmlns:ev="http://www.w3.org/2001/xml-events" xmlns:xlink="http://www.w3.org/1999/xlink"><defs /><path d="M400 1006Q400 1051 417.0 1090.0Q434 1129 463.0 1158.5Q492 1188 531.0 1205.0Q570 1222 615 1222H2197Q2242 1222 2281.0 1205.0Q2320 1188 2349.0 1158.5Q2378 1129 2395.0 1090.0Q2412 1051 2412 1006V0Q2412 -45 2395.0 -84.0Q2378 -123 2349.0 -152.0Q2320 -181 2281.0 -198.0Q2242 -215 2197 -215H615Q570 -215 531.0 -198.0Q492 -181 463.0 -152.0Q434 -123 417.0 -84.0Q400 -45 400 0Z" style="fill:#635994;stroke:none" transform="scale(1,-1) translate(0,-256)" /></svg>