<?xml version="1.0" encoding="utf-8" ?>
<svg baseProfile="full" height="256" version="1.1" width="256" xmlns="http://www.w3.org/2000/svg" xmlns:ev="http://www.w3.org/2001/xml-events" xmlns:xlink="http://www.w3.org/1999/xlink"><defs /><path d="M1397 1042Q1410 1042 1418 1033Q1423 1027 1435.5 1006.5Q1448 986 1461.5 962.5Q1475 939 1485.5 919.0Q1496 899 1496 893Q1496 881 1488.0 872.0Q1480 863 1467 863H1327Q1314 863 1306.0 872.0Q1298 881 1298 893Q1298 899 1308.5 919.0Q1319 939 1332.5 962.5Q1346 986 1358.5 1006.5Q1371 1027 1376 1033Q1384 1042 1397 1042ZM400 -72V144Q400 99 417.0 60.0Q434 21 463.0 -8.5Q492 -38 531.0 -55.0Q570 -72 615 -72H2197Q2242 -72 2281.0 -55.0Q2320 -38 2349.0 -8.5Q2378 21 2395.0 60.0Q2412 99 2412 144V-72Q2412 -117 2395.0 -156.0Q2378 -195 2349.0 -224.0Q2320 -253 2281.0 -270.0Q2242 -287 2197 -287H615Q570 -287 531.0 -270.0Q492 -253 463.0 -224.0Q434 -195 417.0 -156.0Q400 -117 400 -72Z" style="fill:#433b6b;stroke:none" transform="scale(1,-1) translate(0,-256)" /></svg>