<?xml version="1.0" encoding="utf-8" ?>
<svg baseProfile="full" height="256" version="1.1" width="256" xmlns="http://www.w3.org/2000/svg" xmlns:ev="http://www.w3.org/2001/xml-events" xmlns:xlink="http://www.w3.org/1999/xlink"><defs /><path d="M1047 360Q1017 360 991.0 371.0Q965 382 945.5 401.5Q926 421 914.5 447.0Q903 473 903 503Q903 533 914.0 559.0Q925 585 944.5 604.5Q964 624 990.5 635.5Q1017 647 1047 647ZM1765 360Q1795 360 1821.0 371.0Q1847 382 1866.5 401.5Q1886 421 1897.5 447.0Q1909 473 1909 503Q1909 533 1897.5 559.0Q1886 585 1866.5 604.5Q1847 624 1821.0 635.5Q1795 647 1765 647ZM1190 539Q1190 554 1200.5 564.5Q1211 575 1226 575H1586Q1600 575 1611.0 564.0Q1622 553 1622 539Q1622 525 1611.0 514.0Q1600 503 1586 503H1226Q1211 503 1200.5 513.5Q1190 524 1190 539ZM1190 396Q1190 410 1201.0 420.5Q1212 431 1226 431H1586Q1600 431 1611.0 420.5Q1622 410 1622 396Q1622 382 1611.0 371.0Q1600 360 1586 360H1226Q1211 360 1200.5 370.5Q1190 381 1190 396Z" style="fill:#d3d3d3;stroke:none" transform="scale(1,-1) translate(0,-256)" /></svg>