<?xml version="1.0" encoding="utf-8" ?>
<svg baseProfile="full" height="256" version="1.1" width="256" xmlns="http://www.w3.org/2000/svg" xmlns:ev="http://www.w3.org/2001/xml-events" xmlns:xlink="http://www.w3.org/1999/xlink"><defs /><path d="M1226 1725Q1261 1725 1280.5 1711.5Q1300 1698 1311.5 1681.5Q1323 1665 1330.0 1651.5Q1337 1638 1347 1638Q1356 1638 1373.0 1645.5Q1390 1653 1410 1653Q1431 1653 1450.0 1644.0Q1469 1635 1483.0 1620.5Q1497 1606 1505.5 1586.5Q1514 1567 1514 1546Q1514 1524 1505.5 1504.5Q1497 1485 1482.0 1470.0Q1467 1455 1447.5 1446.5Q1428 1438 1406 1438Q1369 1438 1342.5 1458.5Q1316 1479 1303 1512Q1298 1525 1285 1525Q1275 1525 1259.5 1517.5Q1244 1510 1226 1510Q1209 1510 1194.5 1516.5Q1180 1523 1169 1523Q1155 1523 1148 1509Q1133 1480 1117.0 1465.0Q1101 1450 1069 1441Q1060 1438 1053.5 1431.0Q1047 1424 1047 1414Q1047 1391 1042.5 1374.0Q1038 1357 1024 1338L962 1255Q952 1243 938 1243Q924 1243 914 1255L855 1335Q843 1351 837.0 1366.5Q831 1382 831 1402Q831 1445 856.5 1472.0Q882 1499 922 1508Q930 1510 934.5 1515.5Q939 1521 939 1529Q939 1537 938.5 1544.0Q938 1551 939 1559Q942 1579 951.0 1596.0Q960 1613 974.5 1626.0Q989 1639 1007.0 1646.0Q1025 1653 1045 1653Q1062 1653 1077.5 1646.5Q1093 1640 1105 1640Q1119 1640 1125 1654Q1139 1686 1164.5 1705.5Q1190 1725 1226 1725ZM2086 926Q2072 926 2061 937L1942 1055Q1919 1078 1886 1078Q1860 1078 1832.5 1061.0Q1805 1044 1778.0 1023.0Q1751 1002 1727.0 985.0Q1703 968 1685 968Q1670 968 1660.0 978.5Q1650 989 1650 1004Q1650 1023 1665 1034L1802 1125Q1841 1150 1886 1150Q1949 1150 1993 1106L2112 988Q2122 978 2122 962Q2122 948 2111.0 937.0Q2100 926 2086 926ZM2086 712Q2072 712 2061 723L1942 842Q1919 865 1885 865Q1859 865 1831.5 848.0Q1804 831 1777.5 810.0Q1751 789 1727.0 772.0Q1703 755 1685 755Q1670 755 1660.0 765.5Q1650 776 1650 790Q1650 809 1665 820L1802 912Q1839 937 1886 937Q1916 937 1943.5 926.0Q1971 915 1993 893L2112 774Q2122 764 2122 749Q2122 734 2111.5 723.0Q2101 712 2086 712ZM2086 503Q2072 503 2061 514L1942 633Q1919 656 1885 656Q1859 656 1832.0 639.0Q1805 622 1778.5 601.0Q1752 580 1728.0 563.0Q1704 546 1685 546Q1670 546 1660.0 556.0Q1650 566 1650 581Q1650 590 1653.5 598.0Q1657 606 1665 611L1802 702Q1840 728 1887 728Q1917 728 1944.5 716.5Q1972 705 1993 684L2112 565Q2122 555 2122 539Q2122 525 2111.5 514.0Q2101 503 2086 503ZM723 926Q708 926 697.0 936.0Q686 946 686 961Q686 976 697 987L816 1106Q837 1127 865.5 1138.5Q894 1150 924 1150Q968 1150 1007 1125L1144 1034Q1159 1023 1159 1004Q1159 989 1149.0 978.5Q1139 968 1124 968Q1106 968 1082.0 985.0Q1058 1002 1031.5 1023.0Q1005 1044 977.0 1061.0Q949 1078 923 1078Q890 1078 867 1055L748 937Q737 926 723 926ZM723 712Q708 712 697.0 723.0Q686 734 686 748Q686 763 697 774L816 892Q860 936 923 936Q968 936 1007 911L1144 820Q1159 809 1159 790Q1159 775 1149.5 764.5Q1140 754 1124 754Q1106 754 1082.0 771.0Q1058 788 1031.5 809.0Q1005 830 977.0 847.0Q949 864 923 864Q890 864 867 841L748 723Q737 712 723 712ZM723 503Q708 503 697.0 514.0Q686 525 686 539Q686 554 697 565L816 684Q860 728 922 728Q969 728 1007 702L1144 611Q1152 606 1155.5 598.0Q1159 590 1159 581Q1159 566 1149.0 556.0Q1139 546 1124 546Q1105 546 1081.5 563.0Q1058 580 1031.5 601.0Q1005 622 977.5 639.0Q950 656 924 656Q890 656 867 633L748 514Q737 503 723 503ZM2232 288H1538V431H2164ZM1640 -144H1944L1980 -287H1763Q1718 -287 1681.5 -261.5Q1645 -236 1630 -194Q1628 -189 1625.0 -179.5Q1622 -170 1622 -165Q1622 -157 1626.0 -150.5Q1630 -144 1640 -144ZM648 431H1273V288H579ZM1172 -144Q1181 -144 1185.5 -150.5Q1190 -157 1190 -165Q1190 -170 1187.0 -180.0Q1184 -190 1182 -194Q1165 -236 1128.5 -261.5Q1092 -287 1047 -287H831L868 -144Z" style="fill:#402a32;stroke:none" transform="scale(1,-1) translate(0,-256)" /></svg>