<?xml version="1.0" encoding="utf-8" ?>
<svg baseProfile="full" height="256" version="1.1" width="256" xmlns="http://www.w3.org/2000/svg" xmlns:ev="http://www.w3.org/2001/xml-events" xmlns:xlink="http://www.w3.org/1999/xlink"><defs /><path d="M1111 1207Q1120 1261 1145.5 1312.0Q1171 1363 1209.0 1402.5Q1247 1442 1297.0 1465.5Q1347 1489 1406 1489Q1465 1489 1515.0 1465.5Q1565 1442 1603.0 1403.0Q1641 1364 1666.5 1313.0Q1692 1262 1701 1207L1831 459H980ZM1364 278V43Q1364 24 1350.0 11.0Q1336 -2 1318 -2Q1297 -2 1279.5 12.0Q1262 26 1248.5 46.0Q1235 66 1227.5 89.0Q1220 112 1220 130V289ZM1579 289V130Q1579 112 1571.5 89.0Q1564 66 1550.5 46.0Q1537 26 1519.5 12.0Q1502 -2 1481 -2Q1463 -2 1449.0 11.0Q1435 24 1435 43V278ZM2159 431Q2196 431 2229.0 417.0Q2262 403 2286.5 379.0Q2311 355 2325.0 322.5Q2339 290 2339 252V-42Q2339 -92 2319.5 -136.5Q2300 -181 2266.5 -214.5Q2233 -248 2188.5 -267.5Q2144 -287 2094 -287H1923V-98Q1923 -87 1915.0 -79.5Q1907 -72 1896 -72H1640Q1631 -72 1626.5 -65.5Q1622 -59 1622 -51Q1622 -33 1631.0 -15.0Q1640 3 1654.5 18.0Q1669 33 1686.0 44.5Q1703 56 1719 61L1949 134Q1963 139 1971.5 151.0Q1980 163 1980 177V248Q1980 285 1994.0 318.0Q2008 351 2032.0 376.0Q2056 401 2088.5 416.0Q2121 431 2159 431ZM653 431Q690 431 722.5 416.0Q755 401 779.0 376.0Q803 351 817.0 318.0Q831 285 831 248V177Q831 163 840.0 151.0Q849 139 863 134L1093 61Q1109 56 1126.0 44.5Q1143 33 1157.0 18.0Q1171 3 1180.0 -15.0Q1189 -33 1189 -51Q1189 -59 1184.5 -65.5Q1180 -72 1171 -72H915Q904 -72 896.0 -79.5Q888 -87 888 -98V-287H717Q666 -287 621.5 -268.0Q577 -249 543.5 -215.5Q510 -182 491.0 -137.5Q472 -93 472 -42V252Q472 290 486.0 322.5Q500 355 525.0 379.0Q550 403 582.5 417.0Q615 431 653 431Z" style="fill:#6d4534;stroke:none" transform="scale(1,-1) translate(0,-256)" /></svg>