<?xml version="1.0" encoding="utf-8" ?>
<svg baseProfile="full" height="256" version="1.1" width="256" xmlns="http://www.w3.org/2000/svg" xmlns:ev="http://www.w3.org/2001/xml-events" xmlns:xlink="http://www.w3.org/1999/xlink"><defs /><path d="M1299 411Q1299 381 1278.0 360.0Q1257 339 1227 339Q1197 339 1176.0 360.0Q1155 381 1155 411Q1155 440 1176.5 461.0Q1198 482 1227 482Q1256 482 1277.5 461.0Q1299 440 1299 411ZM1657 411Q1657 381 1636.0 360.0Q1615 339 1585 339Q1555 339 1534.0 360.0Q1513 381 1513 411Q1513 440 1534.5 461.0Q1556 482 1585 482Q1614 482 1635.5 461.0Q1657 440 1657 411Z" style="fill:#212121;stroke:none" transform="scale(1,-1) translate(0,-256)" /></svg>