<?xml version="1.0" encoding="utf-8" ?>
<svg baseProfile="full" height="256" version="1.1" width="256" xmlns="http://www.w3.org/2000/svg" xmlns:ev="http://www.w3.org/2001/xml-events" xmlns:xlink="http://www.w3.org/1999/xlink"><defs /><path d="M1548 123H1264Q1204 123 1151.5 145.5Q1099 168 1060.0 207.0Q1021 246 998.5 298.5Q976 351 976 411Q976 470 999.0 522.5Q1022 575 1061.0 614.0Q1100 653 1152.5 675.5Q1205 698 1264 698H1548Q1607 698 1659.5 675.5Q1712 653 1751.0 614.0Q1790 575 1813.0 522.5Q1836 470 1836 411Q1836 351 1813.5 298.5Q1791 246 1752.0 207.0Q1713 168 1660.5 145.5Q1608 123 1548 123Z" style="fill:#a56953;stroke:none" transform="scale(1,-1) translate(0,-256)" /></svg>