<?xml version="1.0" encoding="utf-8" ?>
<svg baseProfile="full" height="256" version="1.1" width="256" xmlns="http://www.w3.org/2000/svg" xmlns:ev="http://www.w3.org/2001/xml-events" xmlns:xlink="http://www.w3.org/1999/xlink"><defs /><path d="M807 1550Q807 1567 818.5 1580.5Q830 1594 847 1596L1288 1653H1293Q1310 1653 1320.0 1642.0Q1330 1631 1330 1615V1404Q1330 1390 1320.5 1379.0Q1311 1368 1297 1366L1049 1334Q1034 1332 1024.0 1320.5Q1014 1309 1014 1294V731V711Q1014 648 990.0 592.0Q966 536 924.0 494.0Q882 452 826.0 428.0Q770 404 707 404Q644 404 588.0 428.0Q532 452 490.0 493.5Q448 535 423.5 590.5Q399 646 399 710Q399 774 423.0 830.0Q447 886 488.5 928.0Q530 970 586.0 994.5Q642 1019 706 1019Q758 1019 807 1002ZM1888 1380Q1888 1397 1899.5 1410.0Q1911 1423 1928 1425L2369 1483H2374Q2390 1483 2401.0 1472.0Q2412 1461 2412 1445V1234Q2412 1220 2402.0 1209.0Q2392 1198 2378 1196L2130 1164Q2115 1162 2105.0 1150.0Q2095 1138 2095 1123V389V370Q2095 307 2071.0 251.0Q2047 195 2005.0 153.0Q1963 111 1907.0 86.5Q1851 62 1788 62Q1725 62 1669.0 86.0Q1613 110 1571.0 151.5Q1529 193 1504.5 248.5Q1480 304 1480 368Q1480 432 1504.0 488.5Q1528 545 1569.5 587.0Q1611 629 1667.0 653.5Q1723 678 1787 678Q1840 678 1888 660ZM1643 1161Q1659 1161 1670.0 1150.0Q1681 1139 1681 1123V913Q1681 898 1672.0 887.5Q1663 877 1648 875L1399 842Q1384 840 1374.0 828.5Q1364 817 1364 802Q1364 613 1364.5 425.0Q1365 237 1365 48Q1365 -16 1341.0 -72.0Q1317 -128 1275.0 -170.0Q1233 -212 1177.0 -236.0Q1121 -260 1057 -260Q993 -260 937.0 -236.0Q881 -212 839.0 -170.0Q797 -128 773.0 -72.0Q749 -16 749 48Q749 111 773.0 167.0Q797 223 839.0 264.5Q881 306 937.0 330.5Q993 355 1056 355Q1108 355 1157 338V1057Q1157 1074 1168.5 1087.5Q1180 1101 1197 1103L1638 1161Z" style="fill:#635994;stroke:none" transform="scale(1,-1) translate(0,-256)" /></svg>