<?xml version="1.0" encoding="utf-8" ?>
<svg baseProfile="full" height="256" version="1.1" width="256" xmlns="http://www.w3.org/2000/svg" xmlns:ev="http://www.w3.org/2001/xml-events" xmlns:xlink="http://www.w3.org/1999/xlink"><defs /><path d="M971 1228Q1002 1228 1026.5 1211.5Q1051 1195 1063 1166L1396 349Q1403 332 1403 312Q1403 292 1395.5 274.0Q1388 256 1374.5 242.5Q1361 229 1343.0 221.0Q1325 213 1305 213Q1275 213 1249.5 229.5Q1224 246 1213 274L1163 397V398H789V397L740 275Q729 247 704.0 230.0Q679 213 649 213Q629 213 611.0 220.5Q593 228 579.5 241.5Q566 255 558.0 273.0Q550 291 550 311Q550 331 557 348L879 1165Q890 1193 915.5 1210.5Q941 1228 971 1228ZM867 595H1082L973 863ZM1575 1216Q1555 1216 1537.0 1208.5Q1519 1201 1505.5 1187.5Q1492 1174 1484.0 1156.0Q1476 1138 1476 1118L1474 322Q1474 302 1482.0 284.0Q1490 266 1503.5 252.5Q1517 239 1535.0 231.0Q1553 223 1573 223H1945Q2006 223 2060.0 247.0Q2114 271 2154.5 311.5Q2195 352 2218.5 406.0Q2242 460 2242 521Q2242 594 2208.0 658.0Q2174 722 2114 764Q2136 799 2146.5 838.5Q2157 878 2157 919Q2157 981 2133.0 1035.5Q2109 1090 2068.0 1130.0Q2027 1170 1972.5 1193.0Q1918 1216 1856 1216ZM1941 621Q1962 621 1980.5 613.0Q1999 605 2013.0 591.5Q2027 578 2035.5 560.0Q2044 542 2044 521Q2044 500 2035.5 481.5Q2027 463 2013.0 449.5Q1999 436 1980.5 428.0Q1962 420 1941 420H1672L1673 621ZM1858 818H1673V819L1674 1019H1856Q1877 1019 1895.5 1011.0Q1914 1003 1928.5 989.5Q1943 976 1951.5 958.0Q1960 940 1960 919Q1960 898 1952.0 880.0Q1944 862 1930.0 848.0Q1916 834 1897.5 826.0Q1879 818 1858 818Z" style="fill:#ffffff;stroke:none" transform="scale(1,-1) translate(0,-256)" /></svg>