<?xml version="1.0" encoding="utf-8" ?>
<svg baseProfile="full" height="256" version="1.1" width="256" xmlns="http://www.w3.org/2000/svg" xmlns:ev="http://www.w3.org/2001/xml-events" xmlns:xlink="http://www.w3.org/1999/xlink"><defs /><path d="M1565 672Q1567 672 1573.0 671.5Q1579 671 1585.0 669.5Q1591 668 1596.0 665.5Q1601 663 1601 660Q1601 656 1596.5 654.0Q1592 652 1586.0 650.5Q1580 649 1574.0 648.5Q1568 648 1565 648H1249Q1246 648 1240.0 648.5Q1234 649 1228.0 650.5Q1222 652 1217.5 654.0Q1213 656 1213 660Q1213 664 1217.5 666.0Q1222 668 1228.0 669.5Q1234 671 1240.0 671.5Q1246 672 1249 672ZM1780 456Q1780 469 1767.5 474.5Q1755 480 1744 480H1067Q1057 480 1044.0 474.0Q1031 468 1031 456Q1031 443 1043.5 437.0Q1056 431 1067 431H1744Q1755 431 1767.5 437.0Q1780 443 1780 456ZM2089 108Q2089 122 2078.0 133.0Q2067 144 2053 144H759Q745 144 734.0 133.0Q723 122 723 108Q723 94 734.0 83.0Q745 72 759 72H2053Q2067 72 2078.0 83.0Q2089 94 2089 108Z" style="fill:#6d4534;stroke:none" transform="scale(1,-1) translate(0,-256)" /></svg>