<?xml version="1.0" encoding="utf-8" ?>
<svg baseProfile="full" height="256" version="1.1" width="256" xmlns="http://www.w3.org/2000/svg" xmlns:ev="http://www.w3.org/2001/xml-events" xmlns:xlink="http://www.w3.org/1999/xlink"><defs /><path d="M400 1006Q479 1006 543.0 996.5Q607 987 665.5 968.0Q724 949 781.0 919.5Q838 890 903 850Q969 809 1026.0 779.5Q1083 750 1141.5 731.0Q1200 712 1264.0 702.5Q1328 693 1408 693Q1487 693 1551.0 702.5Q1615 712 1673.0 731.0Q1731 750 1788.0 779.5Q1845 809 1910 850Q1975 890 2032.0 919.5Q2089 949 2147.0 968.5Q2205 988 2269.0 997.0Q2333 1006 2412 1006V-36Q2412 -78 2397.5 -120.5Q2383 -163 2356 -194Q2336 -216 2315.5 -223.5Q2295 -231 2266 -231Q2240 -231 2213.5 -228.0Q2187 -225 2161 -225H651Q625 -225 598.5 -228.0Q572 -231 546 -231Q517 -231 497.0 -224.0Q477 -217 457 -195Q429 -163 414.5 -120.5Q400 -78 400 -36V1006Z" style="fill:#00d26a;stroke:none" transform="scale(1,-1) translate(0,-256)" /></svg>