<?xml version="1.0" encoding="utf-8" ?>
<svg baseProfile="full" height="256" version="1.1" width="256" xmlns="http://www.w3.org/2000/svg" xmlns:ev="http://www.w3.org/2001/xml-events" xmlns:xlink="http://www.w3.org/1999/xlink"><defs /><path d="M651 -287Q594 -287 542.5 -263.0Q491 -239 455 -194L545 -98Q556 -87 573.0 -79.5Q590 -72 606 -72H2217Q2232 -72 2249.0 -80.0Q2266 -88 2276 -99L2358 -192Q2323 -237 2270.5 -262.0Q2218 -287 2161 -287ZM1249 648Q1246 648 1240.0 648.5Q1234 649 1228.0 650.5Q1222 652 1217.5 654.0Q1213 656 1213 660Q1213 671 1221.5 681.5Q1230 692 1242.5 700.5Q1255 709 1268.5 714.0Q1282 719 1292 719H1526Q1536 719 1549.5 714.0Q1563 709 1574.0 701.0Q1585 693 1593.0 682.5Q1601 672 1601 660Q1601 656 1596.0 654.0Q1591 652 1585.0 650.5Q1579 649 1573.0 648.5Q1567 648 1565 648ZM1780 455Q1780 442 1767.5 436.5Q1755 431 1744 431H1067Q1057 431 1044.0 437.0Q1031 443 1031 455Q1031 468 1039.5 482.0Q1048 496 1056 505Q1066 517 1076.5 529.0Q1087 541 1099.0 551.5Q1111 562 1124.5 568.5Q1138 575 1156 575H1664Q1681 575 1694.0 568.5Q1707 562 1718.0 552.5Q1729 543 1738.5 531.0Q1748 519 1757 507Q1765 498 1772.5 482.5Q1780 467 1780 455ZM2082 108Q2082 94 2071.0 83.0Q2060 72 2046 72H763Q749 72 738.0 83.0Q727 94 727 108Q727 123 734.0 141.0Q741 159 752 170L837 261Q848 272 865.0 280.0Q882 288 898 288H1923Q1940 288 1955.5 280.5Q1971 273 1982 260L2059 172Q2069 161 2075.5 141.5Q2082 122 2082 108Z" style="fill:#8c5543;stroke:none" transform="scale(1,-1) translate(0,-256)" /></svg>