<?xml version="1.0" encoding="utf-8" ?>
<svg baseProfile="full" height="256" version="1.1" width="256" xmlns="http://www.w3.org/2000/svg" xmlns:ev="http://www.w3.org/2001/xml-events" xmlns:xlink="http://www.w3.org/1999/xlink"><defs /><path d="M2412 793Q2412 710 2390.5 635.5Q2369 561 2329.5 496.5Q2290 432 2233.0 378.5Q2176 325 2105 285Q2073 267 2073 231Q2073 224 2081.0 189.0Q2089 154 2101.0 105.0Q2113 56 2127.5 -1.5Q2142 -59 2155.5 -111.0Q2169 -163 2179.0 -202.5Q2189 -242 2193 -255Q2196 -266 2183.5 -274.5Q2171 -283 2162 -283H1931Q1903 -283 1896 -255L1805 109Q1801 123 1793.5 133.5Q1786 144 1769 144H1108Q1091 144 1083.0 133.5Q1075 123 1071 109L981 -259Q974 -287 946 -287H715Q706 -287 699.5 -281.0Q693 -275 693 -266Q693 -264 693.5 -263.0Q694 -262 694 -260L773 90Q775 100 775 105Q775 125 764.5 141.0Q754 157 737 166Q680 196 651.5 245.0Q623 294 624 359L631 1415Q631 1426 619.5 1431.0Q608 1436 593.0 1437.5Q578 1439 563.5 1438.5Q549 1438 543 1438Q513 1438 487.0 1449.0Q461 1460 441.5 1479.5Q422 1499 411.0 1525.0Q400 1551 400 1581Q400 1611 411.5 1635.5Q423 1660 442.5 1677.0Q462 1694 488.0 1703.0Q514 1712 543 1712H768Q795 1712 819.0 1703.5Q843 1695 861.0 1679.5Q879 1664 889.0 1641.0Q899 1618 899 1590V885Q899 875 907.5 869.0Q916 863 925 863H1722Q1775 863 1812.0 851.0Q1849 839 1875.5 821.5Q1902 804 1922.0 783.0Q1942 762 1961.0 744.5Q1980 727 2001.5 715.0Q2023 703 2053 703Q2087 703 2117.0 728.5Q2147 754 2169.5 790.0Q2192 826 2204.5 866.0Q2217 906 2217 936Q2217 986 2204.5 1028.5Q2192 1071 2171.0 1108.5Q2150 1146 2121.0 1180.0Q2092 1214 2059 1248Q2052 1255 2047.5 1262.5Q2043 1270 2043 1280Q2043 1294 2053.5 1302.5Q2064 1311 2077 1311Q2084 1311 2092 1308Q2169 1276 2229.0 1222.0Q2289 1168 2329.5 1100.0Q2370 1032 2391.0 953.0Q2412 874 2412 793Z" style="fill:#00d26a;stroke:none" transform="scale(1,-1) translate(0,-256)" /></svg>