<?xml version="1.0" encoding="utf-8" ?>
<svg baseProfile="full" height="256" version="1.1" width="256" xmlns="http://www.w3.org/2000/svg" xmlns:ev="http://www.w3.org/2001/xml-events" xmlns:xlink="http://www.w3.org/1999/xlink"><defs /><path d="M2383 953Q2373 953 2363.0 958.5Q2353 964 2342.5 970.0Q2332 976 2321.0 981.5Q2310 987 2300 987Q2286 987 2277.0 977.0Q2268 967 2268 954Q2268 940 2278.5 931.0Q2289 922 2305.0 914.0Q2321 906 2340.0 898.0Q2359 890 2375.0 878.0Q2391 866 2401.5 847.5Q2412 829 2412 802V339Q2412 264 2388.0 195.0Q2364 126 2321.5 69.0Q2279 12 2219.0 -30.0Q2159 -72 2087 -93L1448 -276Q1427 -282 1406 -282Q1385 -282 1364 -276L725 -93Q653 -72 593.0 -30.0Q533 12 490.5 69.0Q448 126 424.0 195.0Q400 264 400 339V802Q400 829 410.5 847.5Q421 866 437.0 878.5Q453 891 472.0 899.5Q491 908 507.0 916.0Q523 924 533.5 932.5Q544 941 544 955Q544 968 534.5 977.5Q525 987 512 987Q501 987 490.5 981.5Q480 976 469.5 970.0Q459 964 449.0 958.5Q439 953 429 953Q417 953 408.5 961.5Q400 970 400 982V1264Q400 1315 419.5 1359.5Q439 1404 472.0 1437.5Q505 1471 549.5 1490.5Q594 1510 645 1510H687Q682 1523 674.5 1543.0Q667 1563 659.5 1585.0Q652 1607 646.5 1626.5Q641 1646 641 1658Q641 1686 661.0 1705.5Q681 1725 709 1725H1190Q1233 1725 1271.0 1709.0Q1309 1693 1338.5 1665.0Q1368 1637 1385.5 1600.0Q1403 1563 1405 1520H1406Q1409 1563 1426.5 1600.5Q1444 1638 1473.0 1666.0Q1502 1694 1540.0 1709.5Q1578 1725 1622 1725H2103Q2131 1725 2150.5 1705.5Q2170 1686 2170 1658Q2170 1646 2164.5 1626.5Q2159 1607 2152.0 1585.5Q2145 1564 2137.0 1543.5Q2129 1523 2125 1510H2167Q2218 1510 2262.5 1490.5Q2307 1471 2340.0 1437.5Q2373 1404 2392.5 1359.5Q2412 1315 2412 1264V982Q2412 970 2403.5 961.5Q2395 953 2383 953Z" style="fill:#6d4534;stroke:none" transform="scale(1,-1) translate(0,-256)" /></svg>