<?xml version="1.0" encoding="utf-8" ?>
<svg baseProfile="full" height="256" version="1.1" width="256" xmlns="http://www.w3.org/2000/svg" xmlns:ev="http://www.w3.org/2001/xml-events" xmlns:xlink="http://www.w3.org/1999/xlink"><defs /><path d="M1118 719Q1089 719 1068.0 740.5Q1047 762 1047 791V863Q1047 892 1068.0 913.5Q1089 935 1118 935Q1147 935 1168.5 913.5Q1190 892 1190 863V791Q1190 761 1169.0 740.0Q1148 719 1118 719ZM1693 719Q1664 719 1643.0 740.5Q1622 762 1622 791V863Q1622 892 1643.0 913.5Q1664 935 1693 935Q1722 935 1743.5 913.5Q1765 892 1765 863V791Q1765 761 1744.0 740.0Q1723 719 1693 719ZM1214 619Q1214 636 1226.0 646.5Q1238 657 1254 657H1560Q1576 657 1587.5 646.0Q1599 635 1599 619Q1599 603 1588 592L1448 452Q1431 435 1407 435Q1383 435 1366 452L1226 592Q1214 604 1214 619Z" style="fill:#212121;stroke:none" transform="scale(1,-1) translate(0,-256)" /></svg>