<?xml version="1.0" encoding="utf-8" ?>
<svg baseProfile="full" height="256" version="1.1" width="256" xmlns="http://www.w3.org/2000/svg" xmlns:ev="http://www.w3.org/2001/xml-events" xmlns:xlink="http://www.w3.org/1999/xlink"><defs /><path d="M1005 1581Q1049 1581 1090.5 1563.5Q1132 1546 1162 1514Q1170 1506 1175.5 1497.0Q1181 1488 1188 1480Q1206 1459 1232.0 1442.5Q1258 1426 1288.0 1414.5Q1318 1403 1348.5 1397.0Q1379 1391 1406 1391Q1433 1391 1463.5 1397.0Q1494 1403 1524.0 1414.5Q1554 1426 1580.0 1442.5Q1606 1459 1624 1480Q1631 1488 1636.5 1497.0Q1642 1506 1650 1514Q1680 1546 1721.5 1563.5Q1763 1581 1807 1581Q1852 1581 1891.0 1564.0Q1930 1547 1959.0 1518.0Q1988 1489 2005.0 1450.0Q2022 1411 2022 1366Q2022 1320 2003.0 1277.5Q1984 1235 1949 1204L2114 977Q2155 921 2176.0 856.0Q2197 791 2197 722Q2197 632 2163.0 552.5Q2129 473 2069.5 414.5Q2010 356 1931.0 322.0Q1852 288 1762 288H1049Q959 288 880.0 322.0Q801 356 742.0 415.0Q683 474 649.0 553.0Q615 632 615 722Q615 791 636.0 856.0Q657 921 698 977L863 1204Q829 1235 809.5 1277.0Q790 1319 790 1366Q790 1411 807.0 1450.0Q824 1489 853.0 1518.0Q882 1547 921.0 1564.0Q960 1581 1005 1581Z" style="fill:#ffb02e;stroke:none" transform="scale(1,-1) translate(0,-256)" /></svg>