<?xml version="1.0" encoding="utf-8" ?>
<svg baseProfile="full" height="256" version="1.1" width="256" xmlns="http://www.w3.org/2000/svg" xmlns:ev="http://www.w3.org/2001/xml-events" xmlns:xlink="http://www.w3.org/1999/xlink"><defs /><path d="M1079 1477Q1105 1556 1160.0 1620.0Q1215 1684 1295 1722Q1333 1642 1337.5 1558.0Q1342 1474 1317.5 1397.0Q1293 1320 1241.5 1255.5Q1190 1191 1115 1151Q1111 1150 1107 1147Q1105 1146 1099 1144Q1021 1111 938.5 1111.5Q856 1112 780.5 1142.0Q705 1172 643.0 1229.0Q581 1286 543 1366Q618 1401 696.0 1405.0Q774 1409 847 1386Q810 1464 802.5 1551.0Q795 1638 824 1725Q913 1690 978.5 1625.0Q1044 1560 1079 1477Z" style="fill:#86d72f;stroke:none" transform="scale(1,-1) translate(0,-256)" /></svg>