<?xml version="1.0" encoding="utf-8" ?>
<svg baseProfile="full" height="256" version="1.1" width="256" xmlns="http://www.w3.org/2000/svg" xmlns:ev="http://www.w3.org/2001/xml-events" xmlns:xlink="http://www.w3.org/1999/xlink"><defs /><path d="M1383 1225V1231Q1451 1227 1516.5 1205.0Q1582 1183 1639.0 1145.5Q1696 1108 1742.5 1055.0Q1789 1002 1821 936L1902 763L1893 747L2033 465H2042Q2065 403 2072.5 340.5Q2080 278 2072 216L2067 212L2007 29V22Q1969 -45 1911.5 -99.5Q1854 -154 1779 -189L1702 -225Q1626 -261 1547.0 -271.5Q1468 -282 1391 -268L1388 -263L1202 -191Q1201 -192 1200 -192Q1199 -193 1199 -193Q1148 -161 1104.5 -116.5Q1061 -72 1029 -16L1031 -13L890 284L886 282L805 454Q773 520 761.5 590.0Q750 660 757.0 728.0Q764 796 788.5 860.5Q813 925 854 981L856 977L991 1105V1111Q1018 1130 1052 1145L1129 1182Q1145 1190 1161.0 1196.0Q1177 1202 1194 1207L1197 1202Z" style="fill:#f3ad61;stroke:none" transform="scale(1,-1) translate(0,-256)" /></svg>