<?xml version="1.0" encoding="utf-8" ?>
<svg baseProfile="full" height="256" version="1.1" width="256" xmlns="http://www.w3.org/2000/svg" xmlns:ev="http://www.w3.org/2001/xml-events" xmlns:xlink="http://www.w3.org/1999/xlink"><defs /><path d="M1192 1111Q1182 1117 1184 1129L1194 1207Q1287 1237 1383 1231L1388 1228Q1398 1222 1396 1210L1374 1028Q1372 1018 1363.0 1014.0Q1354 1010 1346 1015ZM854 981Q881 1019 915.0 1052.0Q949 1085 991 1111L1057 1068Q1067 1062 1065 1051L1042 871Q1040 861 1031.5 857.0Q1023 853 1014 858L861 954Q852 960 852 972ZM1029 -16Q1024 -7 1019.0 2.5Q1014 12 1009 22L886 282Q890 290 897.5 293.0Q905 296 912 291L1066 195Q1075 189 1074 177L1051 -2Q1050 -10 1043.5 -14.0Q1037 -18 1029 -16ZM1391 -268Q1340 -259 1291.5 -240.5Q1243 -222 1199 -193Q1199 -192 1198.5 -191.5Q1198 -191 1198 -190L1221 -9Q1223 1 1231.5 5.0Q1240 9 1249 4L1402 -92Q1413 -97 1411 -110ZM2072 216Q2058 111 2007 22L1869 108Q1858 113 1860 125L1883 305Q1885 315 1893.5 319.0Q1902 323 1911 318L2066 221Q2068 220 2072 216ZM1902 763 2026 503Q2031 494 2034.5 484.5Q2038 475 2042 465Q2039 458 2031.0 454.0Q2023 450 2016 455L1863 551Q1852 558 1854 569L1877 748Q1878 757 1886.0 761.5Q1894 766 1902 763ZM1062 624Q1073 619 1071 607L1048 427Q1046 417 1037.5 413.0Q1029 409 1020 414L867 510Q857 516 859 528L881 707Q883 718 892.0 721.5Q901 725 909 720ZM1198 667Q1188 673 1190 685L1213 864Q1215 875 1223.5 878.5Q1232 882 1241 877L1394 782Q1404 776 1402 764L1379 584Q1378 574 1369.0 570.0Q1360 566 1352 571ZM1529 824Q1520 830 1520 842L1543 1021Q1545 1031 1553.5 1035.0Q1562 1039 1571 1034L1724 938Q1733 932 1733 921L1710 741Q1708 731 1699.5 727.0Q1691 723 1682 728ZM1397 352Q1407 346 1405 335L1383 155Q1381 145 1372.0 141.0Q1363 137 1355 142L1202 238Q1191 245 1193 256L1216 435Q1218 445 1226.5 449.0Q1235 453 1244 448ZM1727 509Q1738 502 1736 491L1713 312Q1711 301 1702.5 297.5Q1694 294 1685 299L1532 395Q1522 400 1524 412L1546 592Q1548 602 1557.0 606.0Q1566 610 1574 605ZM1733 65Q1743 58 1742 47L1719 -132Q1717 -142 1708.5 -146.0Q1700 -150 1691 -145L1538 -49Q1528 -43 1530 -31L1552 148Q1554 158 1563.0 162.0Q1572 166 1580 161Z" style="fill:#e19747;stroke:none" transform="scale(1,-1) translate(0,-256)" /></svg>