<?xml version="1.0" encoding="utf-8" ?>
<svg baseProfile="full" height="256" version="1.1" width="256" xmlns="http://www.w3.org/2000/svg" xmlns:ev="http://www.w3.org/2001/xml-events" xmlns:xlink="http://www.w3.org/1999/xlink"><defs /><path d="M2119 736Q2119 636 2081.0 544.0Q2043 452 1972 380Q1958 366 1944.5 356.5Q1931 347 1910 347Q1879 347 1858.0 368.0Q1837 389 1837 419Q1837 449 1860 472Q1916 529 1945.5 592.0Q1975 655 1975 736Q1975 816 1945.5 879.5Q1916 943 1860 999Q1837 1022 1837 1052Q1837 1082 1858.0 1103.0Q1879 1124 1909 1124Q1935 1124 1953.5 1107.5Q1972 1091 1989 1073Q2052 1004 2085.5 916.5Q2119 829 2119 736Z" style="fill:#83cbff;stroke:none" transform="scale(1,-1) translate(0,-256)" /></svg>