<?xml version="1.0" encoding="utf-8" ?>
<svg baseProfile="full" height="256" version="1.1" width="256" xmlns="http://www.w3.org/2000/svg" xmlns:ev="http://www.w3.org/2001/xml-events" xmlns:xlink="http://www.w3.org/1999/xlink"><defs /><path d="M1804 792Q1875 740 1931.0 674.0Q1987 608 2026.0 532.0Q2065 456 2085.5 371.5Q2106 287 2106 199Q2106 91 2076.0 12.5Q2046 -66 1993.5 -120.5Q1941 -175 1870.0 -208.0Q1799 -241 1717.5 -259.5Q1636 -278 1548.0 -284.0Q1460 -290 1373 -290Q1286 -290 1198.0 -284.0Q1110 -278 1028.5 -259.5Q947 -241 876.0 -208.0Q805 -175 752.5 -120.5Q700 -66 670.0 12.0Q640 90 640 199Q640 287 660.5 371.0Q681 455 719.5 531.0Q758 607 813.5 673.0Q869 739 940 791Q894 829 878.5 883.5Q863 938 863 995Q863 1100 903.0 1193.0Q943 1286 1012.0 1355.0Q1081 1424 1174.0 1464.0Q1267 1504 1372 1504Q1477 1504 1570.0 1464.0Q1663 1424 1732.5 1355.0Q1802 1286 1842.0 1193.0Q1882 1100 1882 995Q1882 938 1866.0 884.0Q1850 830 1804 792Z" style="fill:#ffffff;stroke:none" transform="scale(1,-1) translate(0,-256)" /></svg>