<?xml version="1.0" encoding="utf-8" ?>
<svg baseProfile="full" height="256" version="1.1" width="256" xmlns="http://www.w3.org/2000/svg" xmlns:ev="http://www.w3.org/2001/xml-events" xmlns:xlink="http://www.w3.org/1999/xlink"><defs /><path d="M687 929Q702 929 712.5 918.5Q723 908 723 893V715L944 522Q956 511 956 495Q956 480 945.5 469.5Q935 459 920 459Q906 459 896 468L776 573H612Q597 573 586.5 583.5Q576 594 576 609Q576 623 587.0 634.0Q598 645 612 645H694L526 792Q513 803 513 820Q513 834 523.5 844.5Q534 855 549 855Q562 855 573 846L651 778V893Q651 908 661.5 918.5Q672 929 687 929ZM2054 929Q2069 929 2079.5 918.5Q2090 908 2090 893V778L2169 846Q2179 855 2193 855Q2207 855 2217.5 844.0Q2228 833 2228 819Q2228 802 2216 792L2046 644H2126Q2141 644 2151.5 633.5Q2162 623 2162 608Q2162 593 2151.5 582.5Q2141 572 2126 572H1964L1845 468Q1834 459 1821 459Q1806 459 1795.5 469.5Q1785 480 1785 494Q1785 511 1798 522L2019 715Q2019 716 2018.5 717.0Q2018 718 2018 719V893Q2018 908 2028.5 918.5Q2039 929 2054 929Z" style="fill:#433b6b;stroke:none" transform="scale(1,-1) translate(0,-256)" /></svg>