<?xml version="1.0" encoding="utf-8" ?>
<svg baseProfile="full" height="256" version="1.1" width="256" xmlns="http://www.w3.org/2000/svg" xmlns:ev="http://www.w3.org/2001/xml-events" xmlns:xlink="http://www.w3.org/1999/xlink"><defs /><path d="M890 857Q908 817 941.0 791.5Q974 766 1015.0 750.5Q1056 735 1103.0 728.5Q1150 722 1197.0 719.5Q1244 717 1288.5 718.0Q1333 719 1369 719Q1406 719 1451.0 718.5Q1496 718 1543.5 720.0Q1591 722 1638.5 729.0Q1686 736 1728.0 751.5Q1770 767 1803.0 792.5Q1836 818 1855 858Q1875 836 1880.0 802.5Q1885 769 1885 741Q1885 665 1863.5 612.0Q1842 559 1804.5 524.0Q1767 489 1717.0 469.0Q1667 449 1610.0 439.5Q1553 430 1492.5 427.5Q1432 425 1373 425Q1314 425 1253.5 427.0Q1193 429 1136.0 439.0Q1079 449 1029.0 468.5Q979 488 941.5 523.5Q904 559 882.5 612.0Q861 665 861 741Q861 769 865.5 802.0Q870 835 890 857Z" style="fill:#0084ce;stroke:none" transform="scale(1,-1) translate(0,-256)" /></svg>