<?xml version="1.0" encoding="utf-8" ?>
<svg baseProfile="full" height="256" version="1.1" width="256" xmlns="http://www.w3.org/2000/svg" xmlns:ev="http://www.w3.org/2001/xml-events" xmlns:xlink="http://www.w3.org/1999/xlink"><defs /><path d="M1118 1222Q1158 1222 1192.0 1214.0Q1226 1206 1256.5 1192.0Q1287 1178 1315.5 1157.5Q1344 1137 1374 1113Q1389 1101 1406 1101Q1423 1101 1438 1113Q1467 1137 1495.5 1157.5Q1524 1178 1554.5 1192.0Q1585 1206 1619.0 1214.0Q1653 1222 1693 1222Q1770 1222 1824.5 1191.5Q1879 1161 1914.0 1110.5Q1949 1060 1965.0 995.5Q1981 931 1981 863Q1981 808 1960.5 751.5Q1940 695 1906.0 639.5Q1872 584 1827.5 531.5Q1783 479 1735.0 432.5Q1687 386 1638.0 347.0Q1589 308 1547 280Q1535 272 1517.0 261.0Q1499 250 1479.0 240.0Q1459 230 1440.0 223.0Q1421 216 1406 216Q1391 216 1372.0 223.0Q1353 230 1333.0 240.0Q1313 250 1295.0 261.0Q1277 272 1265 280Q1222 308 1173.5 347.0Q1125 386 1077.0 432.5Q1029 479 984.5 531.5Q940 584 906.0 639.5Q872 695 851.5 752.0Q831 809 831 863Q831 931 847.0 995.5Q863 1060 898.0 1110.5Q933 1161 987.0 1191.5Q1041 1222 1118 1222Z" style="fill:#f92f60;stroke:none" transform="scale(1,-1) translate(0,-256)" /></svg>