<?xml version="1.0" encoding="utf-8" ?>
<svg baseProfile="full" height="256" version="1.1" width="256" xmlns="http://www.w3.org/2000/svg" xmlns:ev="http://www.w3.org/2001/xml-events" xmlns:xlink="http://www.w3.org/1999/xlink"><defs /><path d="M400 1294Q400 1324 411.0 1350.0Q422 1376 441.5 1395.5Q461 1415 487.0 1426.5Q513 1438 543 1438H2268Q2298 1438 2324.0 1426.5Q2350 1415 2369.5 1395.5Q2389 1376 2400.5 1350.0Q2412 1324 2412 1294V144Q2412 114 2400.5 88.0Q2389 62 2369.5 42.5Q2350 23 2324.0 11.5Q2298 0 2268 0H543Q513 0 487.0 11.5Q461 23 441.5 42.5Q422 62 411.0 88.0Q400 114 400 144Z" style="fill:#b4acbc;stroke:none" transform="scale(1,-1) translate(0,-256)" /></svg>