<?xml version="1.0" encoding="utf-8" ?>
<svg baseProfile="full" height="256" version="1.1" width="256" xmlns="http://www.w3.org/2000/svg" xmlns:ev="http://www.w3.org/2001/xml-events" xmlns:xlink="http://www.w3.org/1999/xlink"><defs /><path d="M476 1303Q484 1331 508.0 1348.5Q532 1366 561 1366H2250Q2279 1366 2303.5 1349.0Q2328 1332 2336 1303L1781 929L1821 869L2340 1219V221L1677 641L1638 581L2337 138Q2329 109 2304.5 90.5Q2280 72 2250 72H561Q531 72 507.0 90.0Q483 108 475 137L1174 581L1135 641L472 220V1219L991 869L1031 929L476 1303Z" style="fill:#e1d8ec;stroke:none" transform="scale(1,-1) translate(0,-256)" /></svg>