<?xml version="1.0" encoding="utf-8" ?>
<svg baseProfile="full" height="256" version="1.1" width="256" xmlns="http://www.w3.org/2000/svg" xmlns:ev="http://www.w3.org/2001/xml-events" xmlns:xlink="http://www.w3.org/1999/xlink"><defs /><path d="M684 1078Q715 1078 737.0 1056.0Q759 1034 759 1003V579Q759 548 737.0 525.5Q715 503 684 503Q625 503 573.0 526.0Q521 549 482.5 588.0Q444 627 422.0 679.5Q400 732 400 791Q400 850 422.0 902.0Q444 954 482.5 993.0Q521 1032 573.0 1055.0Q625 1078 684 1078ZM912 1078H1711L1391 719H1181Q1190 753 1190 791Q1190 849 1168.5 900.5Q1147 952 1109.5 991.0Q1072 1030 1021.0 1053.0Q970 1076 912 1078ZM1873 719H1680L1873 1043ZM1981 1078V719H2001Q2060 719 2119.0 734.5Q2178 750 2230.5 779.5Q2283 809 2326.5 850.5Q2370 892 2399 945Q2412 968 2412 990Q2412 1027 2386.0 1052.5Q2360 1078 2324 1078Z" style="fill:#c3ef3c;stroke:none" transform="scale(1,-1) translate(0,-256)" /></svg>