<?xml version="1.0" encoding="utf-8" ?>
<svg baseProfile="full" height="256" version="1.1" width="256" xmlns="http://www.w3.org/2000/svg" xmlns:ev="http://www.w3.org/2001/xml-events" xmlns:xlink="http://www.w3.org/1999/xlink"><defs /><path d="M759 1040Q826 1078 903 1078Q952 1078 1004.0 1068.5Q1056 1059 1102.5 1037.0Q1149 1015 1186.0 980.5Q1223 946 1243 896H1374L1370 935L1711 1078L1887 1276Q1903 1294 1927 1294Q1953 1294 1967.0 1276.5Q1981 1259 1981 1235V1078L2053 899L2035 854Q2104 819 2157.0 758.5Q2210 698 2233 623Q2237 611 2237 595Q2237 557 2210.0 530.0Q2183 503 2145 503H1981V198Q1981 175 1965.5 159.5Q1950 144 1927 144Q1905 144 1889.0 160.0Q1873 176 1873 198V503H1551L1467 362Q1447 328 1412.5 308.5Q1378 289 1339 289Q1309 289 1282.0 300.5Q1255 312 1234.5 332.5Q1214 353 1202.5 380.0Q1191 407 1191 438Q1191 473 1206 503H1054V198Q1054 175 1039.0 159.5Q1024 144 1001 144Q978 144 962.5 159.5Q947 175 947 198V503Q927 503 907.0 503.0Q887 503 867 506V398Q867 364 853.5 333.0Q840 302 817 278L697 158Q682 143 659 143Q637 143 621.0 159.0Q605 175 605 197Q605 222 629.0 246.5Q653 271 682.0 295.5Q711 320 735.0 345.5Q759 371 759 398V542Q726 561 699.0 588.0Q672 615 653.5 647.0Q635 679 625.0 715.5Q615 752 615 791Q615 844 633.5 893.0Q652 942 687 981V1161Q687 1203 703.0 1240.5Q719 1278 747.0 1306.0Q775 1334 812.5 1350.0Q850 1366 892 1366H1658Q1673 1366 1683.0 1355.5Q1693 1345 1693 1330Q1693 1315 1683.0 1304.5Q1673 1294 1658 1294H892Q865 1294 840.5 1283.5Q816 1273 798.0 1255.0Q780 1237 769.5 1212.5Q759 1188 759 1161Z" style="fill:#86d72f;stroke:none" transform="scale(1,-1) translate(0,-256)" /></svg>