<?xml version="1.0" encoding="utf-8" ?>
<svg baseProfile="full" height="256" version="1.1" width="256" xmlns="http://www.w3.org/2000/svg" xmlns:ev="http://www.w3.org/2001/xml-events" xmlns:xlink="http://www.w3.org/1999/xlink"><defs /><path d="M1216 1103Q1264 1122 1313.0 1132.5Q1362 1143 1413 1143Q1507 1143 1594 1110Q1592 1125 1591.0 1140.0Q1590 1155 1590 1170Q1590 1255 1622.5 1330.0Q1655 1405 1710.5 1460.5Q1766 1516 1841.0 1548.5Q1916 1581 2001 1581Q2086 1581 2161.0 1548.5Q2236 1516 2291.5 1460.5Q2347 1405 2379.5 1330.0Q2412 1255 2412 1170Q2412 1091 2383.5 1020.0Q2355 949 2305.0 894.0Q2255 839 2187.5 803.5Q2120 768 2041 761Q2078 713 2118.0 650.5Q2158 588 2190.5 520.5Q2223 453 2244.0 383.5Q2265 314 2265 251Q2265 162 2239.5 85.5Q2214 9 2166.5 -53.5Q2119 -116 2053.0 -163.5Q1987 -211 1906 -242Q1858 -261 1806.0 -272.0Q1754 -283 1702 -283Q1641 -283 1592.0 -273.0Q1543 -263 1488 -238Q1468 -229 1452.0 -222.0Q1436 -215 1413 -215Q1393 -215 1375.0 -221.0Q1357 -227 1339 -234Q1266 -261 1198.5 -272.0Q1131 -283 1053 -283Q1004 -283 957.0 -270.5Q910 -258 865 -237Q794 -203 735.5 -152.5Q677 -102 635.0 -39.0Q593 24 569.5 97.5Q546 171 546 251Q546 314 568.0 384.0Q590 454 624.5 521.5Q659 589 701.0 650.5Q743 712 782 760Q701 766 631.5 800.0Q562 834 510.5 889.5Q459 945 429.5 1017.0Q400 1089 400 1170Q400 1255 432.5 1330.0Q465 1405 520.5 1460.5Q576 1516 651.0 1548.5Q726 1581 811 1581Q896 1581 971.0 1548.5Q1046 1516 1101.5 1460.5Q1157 1405 1189.5 1330.0Q1222 1255 1222 1170Q1222 1136 1216 1103Z" style="fill:#f3ad61;stroke:none" transform="scale(1,-1) translate(0,-256)" /></svg>