<?xml version="1.0" encoding="utf-8" ?>
<svg baseProfile="full" height="256" version="1.1" width="256" xmlns="http://www.w3.org/2000/svg" xmlns:ev="http://www.w3.org/2001/xml-events" xmlns:xlink="http://www.w3.org/1999/xlink"><defs /><path d="M1406 -28Q1388 -53 1362.0 -69.0Q1336 -85 1304 -85Q1280 -85 1259.5 -76.0Q1239 -67 1223.5 -51.0Q1208 -35 1199.5 -14.0Q1191 7 1191 31Q1191 50 1200.0 61.5Q1209 73 1229 73Q1248 73 1255.0 60.0Q1262 47 1262 31Q1262 13 1273.0 0.0Q1284 -13 1303 -13Q1329 -13 1340.5 3.0Q1352 19 1359.5 38.5Q1367 58 1376.0 74.5Q1385 91 1406 91Q1420 91 1428.5 83.5Q1437 76 1442.5 64.0Q1448 52 1452.5 39.0Q1457 26 1464.0 14.0Q1471 2 1481.0 -5.5Q1491 -13 1509 -13Q1532 -13 1541.0 4.0Q1550 21 1550 41Q1550 57 1561.5 65.5Q1573 74 1588 74Q1606 74 1613.5 61.0Q1621 48 1621 32Q1621 8 1612.5 -13.0Q1604 -34 1589.0 -50.0Q1574 -66 1553.0 -75.0Q1532 -84 1508 -84Q1476 -84 1450.0 -69.0Q1424 -54 1406 -28Z" style="fill:#1c1c1c;stroke:none" transform="scale(1,-1) translate(0,-256)" /></svg>