<?xml version="1.0" encoding="utf-8" ?>
<svg baseProfile="full" height="256" version="1.1" width="256" xmlns="http://www.w3.org/2000/svg" xmlns:ev="http://www.w3.org/2001/xml-events" xmlns:xlink="http://www.w3.org/1999/xlink"><defs /><path d="M749 872Q686 872 630.0 896.0Q574 920 532.0 961.5Q490 1003 466.0 1059.0Q442 1115 442 1178Q442 1241 466.0 1297.0Q490 1353 532.0 1395.0Q574 1437 630.0 1461.0Q686 1485 749 1485Q812 1485 868.0 1461.0Q924 1437 966.0 1395.0Q1008 1353 1032.0 1297.0Q1056 1241 1056 1178Q1056 1115 1032.0 1059.0Q1008 1003 966.0 961.5Q924 920 868.0 896.0Q812 872 749 872ZM2061 872Q1998 872 1942.0 896.0Q1886 920 1844.0 961.5Q1802 1003 1778.0 1059.0Q1754 1115 1754 1178Q1754 1242 1778.0 1298.0Q1802 1354 1843.5 1395.5Q1885 1437 1941.0 1461.0Q1997 1485 2061 1485Q2124 1485 2180.0 1461.0Q2236 1437 2277.5 1395.0Q2319 1353 2343.0 1297.0Q2367 1241 2367 1178Q2367 1115 2343.0 1059.0Q2319 1003 2277.5 961.5Q2236 920 2180.0 896.0Q2124 872 2061 872Z" style="fill:#ff8687;stroke:none" transform="scale(1,-1) translate(0,-256)" /></svg>