<?xml version="1.0" encoding="utf-8" ?>
<svg baseProfile="full" height="256" version="1.1" width="256" xmlns="http://www.w3.org/2000/svg" xmlns:ev="http://www.w3.org/2001/xml-events" xmlns:xlink="http://www.w3.org/1999/xlink"><defs /><path d="M1520 242Q1520 227 1508.0 206.0Q1496 185 1479.0 165.5Q1462 146 1442.5 132.5Q1423 119 1407 119Q1389 119 1369.0 131.5Q1349 144 1332.0 163.0Q1315 182 1303.5 203.5Q1292 225 1292 242Q1292 261 1305.0 270.5Q1318 280 1336.5 284.0Q1355 288 1374.5 288.0Q1394 288 1407 288Q1420 288 1439.0 288.0Q1458 288 1476.0 284.0Q1494 280 1507.0 270.5Q1520 261 1520 242Z" style="fill:#f70a8d;stroke:none" transform="scale(1,-1) translate(0,-256)" /></svg>