<?xml version="1.0" encoding="utf-8" ?>
<svg baseProfile="full" height="256" version="1.1" width="256" xmlns="http://www.w3.org/2000/svg" xmlns:ev="http://www.w3.org/2001/xml-events" xmlns:xlink="http://www.w3.org/1999/xlink"><defs /><path d="M1078 1521H1665Q1701 1521 1733.0 1507.5Q1765 1494 1789.0 1470.0Q1813 1446 1826.5 1414.0Q1840 1382 1840 1346Q1840 1310 1826.5 1278.0Q1813 1246 1789.0 1222.0Q1765 1198 1733.0 1184.0Q1701 1170 1665 1170H1078Q1042 1170 1010.0 1184.0Q978 1198 954.0 1222.0Q930 1246 916.5 1278.0Q903 1310 903 1346Q903 1382 916.5 1414.0Q930 1446 954.0 1470.0Q978 1494 1010.0 1507.5Q1042 1521 1078 1521ZM1078 62H1665Q1701 62 1733.0 48.5Q1765 35 1789.0 11.0Q1813 -13 1826.5 -45.0Q1840 -77 1840 -113Q1840 -149 1826.5 -181.0Q1813 -213 1789.0 -237.0Q1765 -261 1733.0 -275.0Q1701 -289 1665 -289H1078Q1042 -289 1010.0 -275.0Q978 -261 954.0 -237.0Q930 -213 916.5 -181.0Q903 -149 903 -113Q903 -77 916.5 -45.0Q930 -13 954.0 11.0Q978 35 1010.0 48.5Q1042 62 1078 62Z" style="fill:#9b9b9b;stroke:none" transform="scale(1,-1) translate(0,-256)" /></svg>