<?xml version="1.0" encoding="utf-8" ?>
<svg baseProfile="full" height="256" version="1.1" width="256" xmlns="http://www.w3.org/2000/svg" xmlns:ev="http://www.w3.org/2001/xml-events" xmlns:xlink="http://www.w3.org/1999/xlink"><defs /><path d="M1402 -292Q1393 -292 1383.0 -284.5Q1373 -277 1363.0 -267.0Q1353 -257 1344.5 -246.5Q1336 -236 1330 -230Q1141 -29 953.0 168.5Q765 366 576 567Q534 611 491.5 653.0Q449 695 411 742Q406 747 403.0 752.5Q400 758 400 766Q400 773 408.0 786.5Q416 800 427.0 815.0Q438 830 449.0 843.0Q460 856 465 863H1407V-285Q1407 -287 1406.5 -288.5Q1406 -290 1406 -292Z" style="fill:#1c5cd7;stroke:none" transform="scale(1,-1) translate(0,-256)" /></svg>