<?xml version="1.0" encoding="utf-8" ?>
<svg baseProfile="full" height="256" version="1.1" width="256" xmlns="http://www.w3.org/2000/svg" xmlns:ev="http://www.w3.org/2001/xml-events" xmlns:xlink="http://www.w3.org/1999/xlink"><defs /><path d="M546 56Q524 56 504.5 64.0Q485 72 470.0 86.5Q455 101 446.5 120.5Q438 140 438 163Q438 185 446.0 204.5Q454 224 468.5 239.0Q483 254 502.5 262.5Q522 271 545 271Q567 271 586.5 263.0Q606 255 621.0 240.5Q636 226 644.5 206.5Q653 187 653 164Q653 142 645.0 122.5Q637 103 622.5 88.0Q608 73 588.5 64.5Q569 56 546 56ZM1191 18Q1169 18 1149.5 26.5Q1130 35 1115.5 49.5Q1101 64 1092.5 83.5Q1084 103 1084 125Q1084 147 1092.5 167.0Q1101 187 1115.0 201.5Q1129 216 1148.5 224.5Q1168 233 1191 233Q1213 233 1233.0 224.5Q1253 216 1267.5 201.5Q1282 187 1290.5 167.0Q1299 147 1299 125Q1299 103 1290.5 83.5Q1282 64 1267.0 49.5Q1252 35 1232.5 26.5Q1213 18 1191 18ZM2277 56Q2255 56 2235.5 64.5Q2216 73 2201.5 87.5Q2187 102 2178.5 121.5Q2170 141 2170 163Q2170 186 2178.5 205.5Q2187 225 2201.5 239.5Q2216 254 2236.0 262.5Q2256 271 2279 271Q2301 271 2320.5 262.5Q2340 254 2354.5 239.0Q2369 224 2377.0 204.5Q2385 185 2385 163Q2385 140 2376.5 120.5Q2368 101 2353.5 86.5Q2339 72 2319.0 64.0Q2299 56 2277 56ZM1632 18Q1610 18 1590.5 26.5Q1571 35 1556.0 49.5Q1541 64 1532.5 83.5Q1524 103 1524 125Q1524 148 1532.5 167.5Q1541 187 1555.5 201.5Q1570 216 1590.0 224.5Q1610 233 1633 233Q1655 233 1674.5 224.5Q1694 216 1708.5 201.5Q1723 187 1731.5 167.5Q1740 148 1740 126Q1740 104 1731.5 84.5Q1723 65 1708.5 50.0Q1694 35 1674.0 26.5Q1654 18 1632 18Z" style="fill:#fdbb11;stroke:none" transform="scale(1,-1) translate(0,-256)" /></svg>