<?xml version="1.0" encoding="utf-8" ?>
<svg baseProfile="full" height="256" version="1.1" width="256" xmlns="http://www.w3.org/2000/svg" xmlns:ev="http://www.w3.org/2001/xml-events" xmlns:xlink="http://www.w3.org/1999/xlink"><defs /><path d="M2062 133Q2058 143 2058 151Q2058 167 2070.5 178.0Q2083 189 2099 189Q2114 189 2126.5 179.0Q2139 169 2139 152Q2139 142 2137 138ZM1772 115Q1768 125 1768 132Q1768 150 1780.5 161.0Q1793 172 1810 172Q1828 172 1838.5 159.5Q1849 147 1849 130Q1849 123 1847 120ZM686 138Q685 142 684.5 145.0Q684 148 684 152Q684 168 697.0 178.5Q710 189 724 189Q740 189 752.5 178.0Q765 167 765 151Q765 141 761 133ZM976 120Q975 124 974.5 127.0Q974 130 974 134Q974 150 986.5 161.0Q999 172 1014 172Q1031 172 1043.0 161.0Q1055 150 1055 133Q1055 128 1054.0 124.0Q1053 120 1051 115Z" style="fill:#000000;stroke:none" transform="scale(1,-1) translate(0,-256)" /></svg>