<?xml version="1.0" encoding="utf-8" ?>
<svg baseProfile="full" height="256" version="1.1" width="256" xmlns="http://www.w3.org/2000/svg" xmlns:ev="http://www.w3.org/2001/xml-events" xmlns:xlink="http://www.w3.org/1999/xlink"><defs /><path d="M651 288Q644 288 638.5 293.0Q633 298 633 306Q633 318 647.5 326.5Q662 335 681.5 341.0Q701 347 720.0 350.0Q739 353 748 353Q757 353 767.5 351.0Q778 349 778 336Q778 322 770.0 319.5Q762 317 751 317Q733 317 715.5 312.5Q698 308 684.5 302.5Q671 297 661.5 292.5Q652 288 651 288ZM1108 261Q1116 261 1121.0 266.0Q1126 271 1126 279Q1126 292 1110.5 303.0Q1095 314 1074.0 321.5Q1053 329 1032.5 333.5Q1012 338 1002 338Q994 338 989.5 332.0Q985 326 985 319Q985 311 990.5 307.5Q996 304 1002 303Q1025 301 1051.5 292.5Q1078 284 1095 267Q1101 261 1108 261ZM2172 288Q2180 288 2185.0 293.0Q2190 298 2190 306Q2190 318 2175.5 326.5Q2161 335 2142.0 341.0Q2123 347 2104.0 350.0Q2085 353 2076 353Q2065 353 2055.0 350.5Q2045 348 2045 334Q2045 321 2054.5 319.0Q2064 317 2072 317Q2090 317 2107.5 312.5Q2125 308 2138.5 302.5Q2152 297 2161.0 292.5Q2170 288 2172 288ZM1715 261Q1708 261 1702.5 266.0Q1697 271 1697 279Q1697 292 1712.5 302.5Q1728 313 1749.0 321.0Q1770 329 1791.0 333.5Q1812 338 1822 338Q1830 338 1834.0 332.0Q1838 326 1838 319Q1838 305 1822 303Q1799 301 1771.5 292.5Q1744 284 1728 267Q1723 261 1715 261Z" style="fill:#d37034;stroke:none" transform="scale(1,-1) translate(0,-256)" /></svg>