<?xml version="1.0" encoding="utf-8" ?>
<svg baseProfile="full" height="256" version="1.1" width="256" xmlns="http://www.w3.org/2000/svg" xmlns:ev="http://www.w3.org/2001/xml-events" xmlns:xlink="http://www.w3.org/1999/xlink"><defs /><path d="M870 -69Q882 -69 894.5 -66.0Q907 -63 918.5 -60.0Q930 -57 939.0 -54.0Q948 -51 952 -51Q957 -51 960.0 -55.0Q963 -59 963 -64L961 -70Q939 -93 916.0 -108.0Q893 -123 860 -123Q822 -123 797.5 -104.0Q773 -85 752 -56Q750 -54 749.0 -52.0Q748 -50 748 -47Q748 -43 750.5 -39.5Q753 -36 758 -36Q758 -36 768.5 -41.0Q779 -46 795.0 -52.5Q811 -59 831.0 -64.0Q851 -69 870 -69ZM1954 -69Q1942 -69 1929.0 -66.0Q1916 -63 1904.0 -60.0Q1892 -57 1883.5 -54.0Q1875 -51 1872 -51Q1867 -51 1864.0 -55.0Q1861 -59 1861 -64L1863 -70Q1885 -93 1907.5 -108.0Q1930 -123 1964 -123Q2002 -123 2026.0 -104.0Q2050 -85 2071 -56Q2075 -50 2075 -47Q2075 -43 2072.5 -39.5Q2070 -36 2066 -36Q2065 -36 2054.5 -41.0Q2044 -46 2028.0 -52.5Q2012 -59 1992.5 -64.0Q1973 -69 1954 -69Z" style="fill:#990839;stroke:none" transform="scale(1,-1) translate(0,-256)" /></svg>