<?xml version="1.0" encoding="utf-8" ?>
<svg baseProfile="full" height="256" version="1.1" width="256" xmlns="http://www.w3.org/2000/svg" xmlns:ev="http://www.w3.org/2001/xml-events" xmlns:xlink="http://www.w3.org/1999/xlink"><defs /><path d="M2098 183Q2098 191 2103.0 195.5Q2108 200 2116 200Q2121 200 2126.0 195.5Q2131 191 2131 185Q2131 168 2114 168Q2109 168 2103.5 172.5Q2098 177 2098 183ZM1805 164Q1805 157 1800.0 153.0Q1795 149 1788 149Q1781 149 1777.0 154.0Q1773 159 1773 166Q1773 173 1778.0 177.0Q1783 181 1790 181Q1797 181 1801.0 176.0Q1805 171 1805 164ZM725 183Q725 177 720.0 172.5Q715 168 710 168Q703 168 698.0 172.0Q693 176 693 183Q693 190 697.0 195.0Q701 200 708 200Q725 200 725 183ZM1018 166Q1018 172 1023.0 176.5Q1028 181 1033 181Q1040 181 1045.0 177.0Q1050 173 1050 166Q1050 159 1046.0 154.0Q1042 149 1035 149Q1018 149 1018 166Z" style="fill:#ffffff;stroke:none" transform="scale(1,-1) translate(0,-256)" /></svg>