<?xml version="1.0" encoding="utf-8" ?>
<svg baseProfile="full" height="256" version="1.1" width="256" xmlns="http://www.w3.org/2000/svg" xmlns:ev="http://www.w3.org/2001/xml-events" xmlns:xlink="http://www.w3.org/1999/xlink"><defs /><path d="M1953 180Q1962 180 1968.5 175.0Q1975 170 1978 162Q1981 152 1988.5 133.5Q1996 115 2003.0 95.5Q2010 76 2015.5 58.0Q2021 40 2021 31Q2021 14 2012.0 5.5Q2003 -3 1989.5 -6.5Q1976 -10 1961.5 -10.0Q1947 -10 1935 -10Q1920 -10 1910.0 2.0Q1900 14 1900 28Q1900 38 1903.5 55.5Q1907 73 1911.5 92.5Q1916 112 1920.5 130.0Q1925 148 1928 159Q1930 168 1937.0 174.0Q1944 180 1953 180ZM870 180Q879 180 886.0 174.0Q893 168 895 159Q898 148 902.5 130.0Q907 112 912.0 93.0Q917 74 920.5 56.5Q924 39 924 29Q924 15 914.0 2.5Q904 -10 888 -10Q877 -10 862.0 -10.0Q847 -10 833.5 -7.0Q820 -4 811.0 4.5Q802 13 802 30Q802 39 807.5 57.0Q813 75 820.0 95.0Q827 115 834.5 133.5Q842 152 845 162Q848 170 855.0 175.0Q862 180 870 180Z" style="fill:#ed9200;stroke:none" transform="scale(1,-1) translate(0,-256)" /></svg>