<?xml version="1.0" encoding="utf-8" ?>
<svg baseProfile="full" height="256" version="1.1" width="256" xmlns="http://www.w3.org/2000/svg" xmlns:ev="http://www.w3.org/2001/xml-events" xmlns:xlink="http://www.w3.org/1999/xlink"><defs /><path d="M660 138Q659 143 658.5 146.5Q658 150 658 155Q658 181 679.0 198.0Q700 215 724 215Q750 215 769.0 196.0Q788 177 788 150Q788 147 787.5 141.5Q787 136 785 133Q783 132 778 132Q749 132 719.0 134.0Q689 136 660 138ZM1078 114Q1079 119 1080.0 123.5Q1081 128 1081 133Q1081 160 1062.0 179.0Q1043 198 1017 198Q989 198 970.5 179.0Q952 160 952 132V123Q964 120 980.5 118.5Q997 117 1014.0 116.0Q1031 115 1048.0 115.0Q1065 115 1078 114ZM2164 138Q2165 143 2165.0 146.5Q2165 150 2165 155Q2165 180 2144.5 197.5Q2124 215 2100 215Q2074 215 2055.0 196.0Q2036 177 2036 150Q2036 146 2036.5 142.0Q2037 138 2038 133Q2040 133 2041.5 132.5Q2043 132 2045 132Q2074 132 2104.5 134.0Q2135 136 2164 138ZM1746 114Q1744 119 1743.5 124.5Q1743 130 1743 135Q1743 161 1761.5 179.5Q1780 198 1806 198Q1831 198 1851.5 180.5Q1872 163 1872 137Q1872 128 1871 123Q1862 120 1845.5 118.5Q1829 117 1810.5 116.0Q1792 115 1774.5 115.0Q1757 115 1746 114Z" style="fill:#7d4533;stroke:none" transform="scale(1,-1) translate(0,-256)" /></svg>