<?xml version="1.0" encoding="utf-8" ?>
<svg baseProfile="full" height="256" version="1.1" width="256" xmlns="http://www.w3.org/2000/svg" xmlns:ev="http://www.w3.org/2001/xml-events" xmlns:xlink="http://www.w3.org/1999/xlink"><defs /><path d="M1828 712Q1852 712 1873.0 704.5Q1894 697 1917 697Q1932 697 1945.0 701.0Q1958 705 1971.5 710.5Q1985 716 1999.5 720.0Q2014 724 2031 724Q2069 724 2102.5 706.5Q2136 689 2159 658Q2197 606 2256 589Q2307 573 2338.5 532.0Q2370 491 2370 437Q2370 415 2364.0 398.0Q2358 381 2351.0 365.0Q2344 349 2338.0 333.5Q2332 318 2332 300Q2332 289 2333.0 277.5Q2334 266 2335 255H2333Q2328 255 2320.0 244.0Q2312 233 2304.5 218.5Q2297 204 2290.5 190.0Q2284 176 2282 171L1605 153Q1603 156 1598.5 166.5Q1594 177 1588.0 187.5Q1582 198 1575.5 205.5Q1569 213 1565 210L1563 250Q1562 272 1553.0 288.0Q1544 304 1534.0 320.0Q1524 336 1516.0 355.5Q1508 375 1508 405Q1508 442 1525 476Q1541 510 1562.5 525.0Q1584 540 1606.5 552.0Q1629 564 1651.0 579.5Q1673 595 1691 629Q1711 667 1748.0 689.5Q1785 712 1828 712ZM2286 62Q2320 65 2345 86Q2346 69 2347.5 51.0Q2349 33 2349 16Q2349 -26 2327.0 -62.0Q2305 -98 2267 -117Q2276 -95 2280.0 -73.5Q2284 -52 2285.5 -30.0Q2287 -8 2286.5 14.5Q2286 37 2286 62ZM1574 41Q1602 22 1636 24Q1639 1 1641.0 -21.5Q1643 -44 1647.0 -66.0Q1651 -88 1657.5 -109.5Q1664 -131 1675 -151Q1640 -139 1620.5 -119.5Q1601 -100 1591.5 -74.5Q1582 -49 1579.0 -20.0Q1576 9 1574 41ZM995 712Q972 712 951.0 704.5Q930 697 907 697Q892 697 878.5 701.0Q865 705 851.5 710.5Q838 716 823.5 720.0Q809 724 792 724Q752 724 720.0 707.0Q688 690 665 658Q628 608 568 589Q517 573 485.5 532.0Q454 491 454 437Q454 416 460.0 399.0Q466 382 472.5 366.0Q479 350 485.0 334.5Q491 319 491 300Q491 289 490.5 277.5Q490 266 489 255Q503 262 532.5 268.0Q562 274 599.0 278.0Q636 282 677.0 285.0Q718 288 755.5 290.0Q793 292 823.0 292.5Q853 293 868 293Q911 293 956.5 291.5Q1002 290 1047.0 283.5Q1092 277 1135.0 264.5Q1178 252 1216 230Q1226 224 1237.0 220.5Q1248 217 1258 210L1260 250Q1261 272 1270.0 287.5Q1279 303 1289.0 319.5Q1299 336 1307.0 356.0Q1315 376 1315 406Q1315 455 1289.0 494.0Q1263 533 1218 552Q1179 569 1157.5 596.0Q1136 623 1116.5 649.0Q1097 675 1070.5 693.5Q1044 712 995 712ZM499 81Q494 81 488.5 81.5Q483 82 478 86Q477 69 475.5 51.0Q474 33 474 16Q474 -26 496.0 -62.0Q518 -98 556 -117Q554 -111 550.5 -100.0Q547 -89 544.0 -76.5Q541 -64 539.0 -53.0Q537 -42 538 -36L556 86H551Q538 86 525.5 83.5Q513 81 499 81ZM1176 86V-74Q1176 -80 1172.5 -90.5Q1169 -101 1164.5 -112.5Q1160 -124 1155.5 -134.5Q1151 -145 1148 -151Q1183 -139 1202.5 -119.5Q1222 -100 1232.0 -74.5Q1242 -49 1244.5 -20.0Q1247 9 1249 41Q1245 39 1244 39Q1237 39 1228.5 46.5Q1220 54 1211.0 62.5Q1202 71 1193.0 78.5Q1184 86 1176 86Z" style="fill:#f1a11e;stroke:none" transform="scale(1,-1) translate(0,-256)" /></svg>