<?xml version="1.0" encoding="utf-8" ?>
<svg baseProfile="full" height="256" version="1.1" width="256" xmlns="http://www.w3.org/2000/svg" xmlns:ev="http://www.w3.org/2001/xml-events" xmlns:xlink="http://www.w3.org/1999/xlink"><defs /><path d="M1745 1653Q1818 1653 1878.0 1622.5Q1938 1592 1981.0 1541.5Q2024 1491 2047.5 1426.0Q2071 1361 2071 1292Q2071 1214 2045 1141Q2018 1064 1965.0 986.5Q1912 909 1846.0 837.0Q1780 765 1708.5 702.5Q1637 640 1572 592Q1546 573 1519.5 554.0Q1493 535 1465 519Q1436 503 1407 503Q1378 503 1349 519Q1315 538 1282.5 561.5Q1250 585 1219 608Q1156 656 1088.5 717.0Q1021 778 959.0 847.0Q897 916 846.5 991.0Q796 1066 769 1141Q755 1179 748.0 1218.0Q741 1257 741 1297Q741 1366 764.5 1430.0Q788 1494 830.0 1543.5Q872 1593 931.5 1623.0Q991 1653 1063 1653Q1152 1653 1232.5 1614.5Q1313 1576 1376 1515Q1382 1509 1389 1506Q1396 1503 1404 1503Q1411 1503 1419 1506Q1424 1508 1426.0 1510.0Q1428 1512 1431 1515Q1492 1577 1574.5 1615.0Q1657 1653 1745 1653Z" style="fill:#f70a8d;stroke:none" transform="scale(1,-1) translate(0,-256)" /></svg>