<?xml version="1.0" encoding="utf-8" ?>
<svg baseProfile="full" height="256" version="1.1" width="256" xmlns="http://www.w3.org/2000/svg" xmlns:ev="http://www.w3.org/2001/xml-events" xmlns:xlink="http://www.w3.org/1999/xlink"><defs /><path d="M804 156Q804 145 796.0 138.5Q788 132 778 132Q743 132 708.0 135.0Q673 138 638 140Q628 141 619.5 147.5Q611 154 611 165Q611 179 621.0 191.0Q631 203 645.5 212.0Q660 221 676.5 226.5Q693 232 705 232Q720 232 737.0 226.0Q754 220 769.0 210.0Q784 200 794.0 186.0Q804 172 804 156ZM936 146Q936 135 944.5 128.5Q953 122 963 121Q998 119 1033.5 116.0Q1069 113 1104 113Q1113 113 1121.0 119.5Q1129 126 1129 137Q1129 153 1119.0 167.0Q1109 181 1094.0 191.0Q1079 201 1061.5 207.0Q1044 213 1030 213Q1018 213 1001.5 207.5Q985 202 970.5 193.0Q956 184 946.0 172.0Q936 160 936 146ZM2019 156Q2019 145 2027.0 138.5Q2035 132 2045 132Q2080 132 2115.5 135.0Q2151 138 2186 140Q2196 141 2204.5 147.5Q2213 154 2213 165Q2213 179 2203.0 191.0Q2193 203 2178.0 212.0Q2163 221 2147.0 226.5Q2131 232 2119 232Q2104 232 2086.5 225.5Q2069 219 2054.0 208.5Q2039 198 2029.0 184.5Q2019 171 2019 156ZM1887 145Q1887 134 1878.5 128.0Q1870 122 1860 121Q1825 119 1790.0 116.0Q1755 113 1720 113Q1710 113 1702.0 119.5Q1694 126 1694 137Q1694 153 1704.0 167.0Q1714 181 1729.0 191.0Q1744 201 1761.0 207.0Q1778 213 1793 213Q1805 213 1821.5 207.5Q1838 202 1852.5 193.0Q1867 184 1877.0 171.5Q1887 159 1887 145Z" style="fill:#ffffff;stroke:none" transform="scale(1,-1) translate(0,-256)" /></svg>