<?xml version="1.0" encoding="utf-8" ?>
<svg baseProfile="full" height="256" version="1.1" width="256" xmlns="http://www.w3.org/2000/svg" xmlns:ev="http://www.w3.org/2001/xml-events" xmlns:xlink="http://www.w3.org/1999/xlink"><defs /><path d="M1622 1222Q1652 1222 1678.0 1210.5Q1704 1199 1723.5 1179.5Q1743 1160 1754.0 1134.0Q1765 1108 1765 1078Q1765 1048 1754.0 1022.0Q1743 996 1723.5 976.5Q1704 957 1678.0 946.0Q1652 935 1622 935H1586V647Q1586 621 1605.0 595.5Q1624 570 1652.0 543.0Q1680 516 1713.5 486.0Q1747 456 1775.0 421.0Q1803 386 1822.0 344.5Q1841 303 1841 253Q1841 202 1821.5 154.5Q1802 107 1766 72Q1811 72 1850.0 55.0Q1889 38 1918.0 8.5Q1947 -21 1964.0 -60.0Q1981 -99 1981 -144V-287H831V-144Q831 -99 848.0 -60.0Q865 -21 894.0 8.5Q923 38 962.0 55.0Q1001 72 1046 72Q1010 107 990.0 154.5Q970 202 970 253Q970 303 989.0 344.5Q1008 386 1036.5 420.5Q1065 455 1098.0 485.0Q1131 515 1159.5 542.0Q1188 569 1207.0 594.5Q1226 620 1226 647V935H1190Q1160 935 1134.0 946.0Q1108 957 1088.5 976.5Q1069 996 1058.0 1022.0Q1047 1048 1047 1078Q1047 1108 1058.0 1134.0Q1069 1160 1088.5 1179.5Q1108 1199 1134.0 1210.5Q1160 1222 1190 1222H1216Q1169 1264 1143.5 1319.5Q1118 1375 1118 1438Q1118 1497 1141.0 1549.5Q1164 1602 1203.0 1641.0Q1242 1680 1294.5 1702.5Q1347 1725 1406 1725Q1465 1725 1517.5 1702.5Q1570 1680 1609.0 1641.0Q1648 1602 1670.5 1549.5Q1693 1497 1693 1438Q1693 1375 1668.0 1319.5Q1643 1264 1596 1222Z" style="fill:#635994;stroke:none" transform="scale(1,-1) translate(0,-256)" /></svg>