<?xml version="1.0" encoding="utf-8" ?>
<svg baseProfile="full" height="256" version="1.1" width="256" xmlns="http://www.w3.org/2000/svg" xmlns:ev="http://www.w3.org/2001/xml-events" xmlns:xlink="http://www.w3.org/1999/xlink"><defs /><path d="M1100 1120Q1100 1078 1100.5 1037.0Q1101 996 1101 954Q1190 871 1278.5 789.0Q1367 707 1457 625Q1504 581 1552.0 538.5Q1600 496 1645 450Q1650 445 1653.0 440.5Q1656 436 1656 429Q1656 414 1640 414Q1634 414 1596.5 436.5Q1559 459 1504.0 494.0Q1449 529 1385.0 570.5Q1321 612 1263.0 650.0Q1205 688 1160.5 717.5Q1116 747 1101 757V48Q1101 35 1115 28Q1120 27 1124.5 27.0Q1129 27 1134 27Q1183 27 1217.5 48.0Q1252 69 1277.0 100.0Q1302 131 1320.5 167.5Q1339 204 1356.0 235.0Q1373 266 1391.5 287.0Q1410 308 1436 308Q1487 308 1505.5 277.0Q1524 246 1524 201Q1524 187 1522.5 172.0Q1521 157 1519 143Q1511 93 1484.5 52.5Q1458 12 1419.5 -17.0Q1381 -46 1333.5 -61.5Q1286 -77 1238 -77Q1210 -77 1174.0 -71.0Q1138 -65 1105.5 -51.0Q1073 -37 1051.0 -12.5Q1029 12 1029 48V1114Q1029 1117 1029.5 1119.0Q1030 1121 1030 1124Q1039 1203 1077.5 1263.5Q1116 1324 1173.5 1365.0Q1231 1406 1302.5 1427.0Q1374 1448 1449 1448Q1521 1448 1582.0 1420.5Q1643 1393 1691.5 1348.0Q1740 1303 1776.0 1244.0Q1812 1185 1835 1122Q1849 1086 1859.0 1044.0Q1869 1002 1869 964Q1869 933 1849.5 914.0Q1830 895 1800 895Q1769 895 1749.5 914.0Q1730 933 1730 964Q1730 1022 1706.0 1083.5Q1682 1145 1640.5 1195.5Q1599 1246 1543.5 1278.0Q1488 1310 1426 1310Q1388 1310 1343.5 1301.0Q1299 1292 1257.0 1274.0Q1215 1256 1179.0 1230.5Q1143 1205 1121 1172Q1115 1163 1107.5 1147.0Q1100 1131 1100 1120Z" style="fill:#d67d00;stroke:none" transform="scale(1,-1) translate(0,-256)" /></svg>