<?xml version="1.0" encoding="utf-8" ?>
<svg baseProfile="full" height="256" version="1.1" width="256" xmlns="http://www.w3.org/2000/svg" xmlns:ev="http://www.w3.org/2001/xml-events" xmlns:xlink="http://www.w3.org/1999/xlink"><defs /><path d="M1461 1655 1478 1689Q1580 1681 1678.5 1646.0Q1777 1611 1859.5 1551.0Q1942 1491 2002.5 1408.0Q2063 1325 2089 1222Q2113 1127 2113 1029Q2113 958 2099.0 881.5Q2085 805 2059.0 731.0Q2033 657 1995.0 589.0Q1957 521 1909 467L1844 435L1676 134Q1633 57 1587.5 -18.5Q1542 -94 1484.0 -153.5Q1426 -213 1351.0 -250.0Q1276 -287 1175 -287Q1111 -287 1055.5 -268.0Q1000 -249 954.0 -215.5Q908 -182 871.5 -137.0Q835 -92 810.0 -39.0Q785 14 772.0 72.5Q759 131 759 190V1027Q759 1173 815.5 1292.5Q872 1412 968.5 1495.0Q1065 1578 1192.5 1620.5Q1320 1663 1461 1655Z" style="fill:#ffc83d;stroke:none" transform="scale(1,-1) translate(0,-256)" /></svg>