<?xml version="1.0" encoding="utf-8" ?>
<svg baseProfile="full" height="256" version="1.1" width="256" xmlns="http://www.w3.org/2000/svg" xmlns:ev="http://www.w3.org/2001/xml-events" xmlns:xlink="http://www.w3.org/1999/xlink"><defs /><path d="M760 991Q760 900 782.0 847.5Q804 795 838.0 765.5Q872 736 913.0 721.0Q954 706 992.0 689.5Q1030 673 1060.5 646.5Q1091 620 1104 567Q1135 560 1163.5 545.5Q1192 531 1214.0 509.0Q1236 487 1249.0 459.0Q1262 431 1262 397Q1262 360 1252.0 327.0Q1242 294 1221.5 269.0Q1201 244 1171.0 229.5Q1141 215 1102 214V443Q1086 441 1070.0 435.5Q1054 430 1038 430Q1028 430 1021.5 436.0Q1015 442 1011.5 450.5Q1008 459 1006.5 468.5Q1005 478 1005 486Q1005 509 1011.0 531.5Q1017 554 1025 575Q1011 603 985.5 614.5Q960 626 933 636Q930 635 916.5 640.5Q903 646 886.5 653.5Q870 661 855.5 668.5Q841 676 837 678Q793 703 764.0 737.5Q735 772 718.0 813.0Q701 854 694.5 899.5Q688 945 688 993Q688 1110 723.5 1224.5Q759 1339 828 1434Q883 1511 952.0 1565.5Q1021 1620 1100.0 1655.0Q1179 1690 1266.5 1706.5Q1354 1723 1447 1723V1651Q1363 1651 1284.0 1636.5Q1205 1622 1133.0 1591.0Q1061 1560 998.5 1511.0Q936 1462 886 1392Q824 1306 792.0 1201.5Q760 1097 760 991Z" style="fill:#e1d8ec;stroke:none" transform="scale(1,-1) translate(0,-256)" /></svg>