<?xml version="1.0" encoding="utf-8" ?>
<svg baseProfile="full" height="256" version="1.1" width="256" xmlns="http://www.w3.org/2000/svg" xmlns:ev="http://www.w3.org/2001/xml-events" xmlns:xlink="http://www.w3.org/1999/xlink"><defs /><path d="M2153 1721Q2173 1721 2186.0 1714.0Q2199 1707 2207.0 1695.0Q2215 1683 2218.0 1667.5Q2221 1652 2221 1635Q2232 1655 2250.5 1668.0Q2269 1681 2293 1681Q2325 1681 2347.0 1659.5Q2369 1638 2369 1606Q2369 1583 2356.5 1564.0Q2344 1545 2324 1534Q2358 1534 2383.0 1520.0Q2408 1506 2408 1468Q2408 1445 2396.5 1427.5Q2385 1410 2362 1402Q2336 1438 2309.0 1479.0Q2282 1520 2251 1552Q2216 1587 2173.0 1614.5Q2130 1642 2092 1672Q2095 1692 2114.0 1706.5Q2133 1721 2153 1721Z" style="fill:#6b438b;stroke:none" transform="scale(1,-1) translate(0,-256)" /></svg>