<?xml version="1.0" encoding="utf-8" ?>
<svg baseProfile="full" height="256" version="1.1" width="256" xmlns="http://www.w3.org/2000/svg" xmlns:ev="http://www.w3.org/2001/xml-events" xmlns:xlink="http://www.w3.org/1999/xlink"><defs /><path d="M799 1093Q765 1093 735.5 1105.5Q706 1118 684.0 1140.0Q662 1162 649.5 1191.5Q637 1221 637 1255Q637 1289 650.0 1318.0Q663 1347 685.0 1369.0Q707 1391 736.5 1403.5Q766 1416 799 1416Q832 1416 861.5 1403.5Q891 1391 913.0 1369.0Q935 1347 947.5 1317.5Q960 1288 960 1255Q960 1222 947.5 1192.5Q935 1163 913.0 1141.0Q891 1119 862.0 1106.0Q833 1093 799 1093ZM1766 296Q1715 296 1670.5 315.0Q1626 334 1593.0 367.0Q1560 400 1541.0 444.5Q1522 489 1522 540Q1522 591 1541.0 635.5Q1560 680 1593.0 713.0Q1626 746 1670.5 765.0Q1715 784 1766 784Q1817 784 1861.5 765.0Q1906 746 1939.0 713.0Q1972 680 1991.0 635.5Q2010 591 2010 540Q2010 489 1991.0 444.5Q1972 400 1939.0 367.0Q1906 334 1861.5 315.0Q1817 296 1766 296Z" style="fill:#533566;stroke:none" transform="scale(1,-1) translate(0,-256)" /></svg>