<?xml version="1.0" encoding="utf-8" ?>
<svg baseProfile="full" height="256" version="1.1" width="256" xmlns="http://www.w3.org/2000/svg" xmlns:ev="http://www.w3.org/2001/xml-events" xmlns:xlink="http://www.w3.org/1999/xlink"><defs /><path d="M1873 1725Q1985 1725 2083.0 1682.5Q2181 1640 2254.0 1567.0Q2327 1494 2369.5 1396.0Q2412 1298 2412 1186Q2412 1074 2369.5 976.0Q2327 878 2254.0 805.0Q2181 732 2083.0 689.5Q1985 647 1873 647Q1761 647 1663.0 689.5Q1565 732 1492.0 805.0Q1419 878 1376.5 976.0Q1334 1074 1334 1186Q1334 1298 1376.5 1396.0Q1419 1494 1492.0 1567.0Q1565 1640 1663.0 1682.5Q1761 1725 1873 1725Z" style="fill:#8d65c5;stroke:none" transform="scale(1,-1) translate(0,-256)" /></svg>