<?xml version="1.0" encoding="utf-8" ?>
<svg baseProfile="full" height="256" version="1.1" width="256" xmlns="http://www.w3.org/2000/svg" xmlns:ev="http://www.w3.org/2001/xml-events" xmlns:xlink="http://www.w3.org/1999/xlink"><defs /><path d="M1767 935Q1821 935 1856.5 913.5Q1892 892 1925 852Q1934 841 1946.5 825.5Q1959 810 1970 802Q1979 795 1989.5 792.0Q2000 789 2011 786Q2035 780 2053.0 772.0Q2071 764 2085.5 752.5Q2100 741 2112.5 725.5Q2125 710 2137 689Q2148 671 2154.0 650.5Q2160 630 2160 609Q2160 578 2152.0 556.5Q2144 535 2132.0 516.5Q2120 498 2107.0 479.5Q2094 461 2085 436Q2080 422 2077.5 407.0Q2075 392 2073 377Q2067 342 2056.5 308.5Q2046 275 2027.0 248.5Q2008 222 1979.0 205.5Q1950 189 1909 189Q1873 189 1838.0 199.0Q1803 209 1767 209Q1732 209 1699.0 200.0Q1666 191 1631 191Q1600 191 1572.5 200.0Q1545 209 1522 230Q1491 258 1480.0 281.5Q1469 305 1465.5 328.5Q1462 352 1460.5 378.0Q1459 404 1447 436Q1438 460 1427.0 479.0Q1416 498 1405.5 516.5Q1395 535 1388.0 556.0Q1381 577 1381 605Q1381 643 1391.5 671.5Q1402 700 1421.0 721.5Q1440 743 1467.0 759.0Q1494 775 1526 789Q1540 795 1554.0 800.5Q1568 806 1579 816Q1590 826 1599.0 838.0Q1608 850 1617 861Q1648 899 1683.0 917.0Q1718 935 1767 935Z" style="fill:#bca4eb;stroke:none" transform="scale(1,-1) translate(0,-256)" /></svg>