<?xml version="1.0" encoding="utf-8" ?>
<svg baseProfile="full" height="256" version="1.1" width="256" xmlns="http://www.w3.org/2000/svg" xmlns:ev="http://www.w3.org/2001/xml-events" xmlns:xlink="http://www.w3.org/1999/xlink"><defs /><path d="M975 1653Q1094 1653 1198.5 1607.5Q1303 1562 1381.0 1484.0Q1459 1406 1504.5 1301.5Q1550 1197 1550 1078Q1550 959 1504.5 854.5Q1459 750 1381.0 672.0Q1303 594 1198.5 548.5Q1094 503 975 503Q856 503 751.5 548.5Q647 594 569.0 672.0Q491 750 445.5 854.5Q400 959 400 1078Q400 1197 445.0 1302.0Q490 1407 568.0 1485.0Q646 1563 751.0 1608.0Q856 1653 975 1653Z" style="fill:#6b438b;stroke:none" transform="scale(1,-1) translate(0,-256)" /></svg>