<?xml version="1.0" encoding="utf-8" ?>
<svg baseProfile="full" height="256" version="1.1" width="256" xmlns="http://www.w3.org/2000/svg" xmlns:ev="http://www.w3.org/2001/xml-events" xmlns:xlink="http://www.w3.org/1999/xlink"><defs /><path d="M976 863Q945 863 918.5 875.5Q892 888 872.5 909.0Q853 930 842.0 958.0Q831 986 831 1016V1429Q831 1459 842.0 1486.5Q853 1514 872.5 1535.0Q892 1556 918.5 1568.5Q945 1581 976 1581H1836Q1867 1581 1893.5 1568.5Q1920 1556 1939.5 1535.0Q1959 1514 1970.0 1486.5Q1981 1459 1981 1429V1016Q1981 986 1970.0 958.0Q1959 930 1939.5 909.0Q1920 888 1893.5 875.5Q1867 863 1836 863H976Z" style="fill:#433b6b;stroke:none" transform="scale(1,-1) translate(0,-256)" /></svg>