<?xml version="1.0" encoding="utf-8" ?>
<svg baseProfile="full" height="256" version="1.1" width="256" xmlns="http://www.w3.org/2000/svg" xmlns:ev="http://www.w3.org/2001/xml-events" xmlns:xlink="http://www.w3.org/1999/xlink"><defs /><path d="M2268 647Q2239 647 2218.0 668.5Q2197 690 2197 719Q2197 748 2218.0 769.5Q2239 791 2268 791Q2298 791 2319.0 770.0Q2340 749 2340 719Q2340 689 2319.0 668.0Q2298 647 2268 647ZM1693 360Q1707 360 1718.0 349.0Q1729 338 1729 324Q1729 309 1718.5 298.5Q1708 288 1693 288H1118Q1104 288 1093.5 299.0Q1083 310 1083 324Q1083 338 1093.5 349.0Q1104 360 1118 360ZM1083 180Q1083 194 1093.5 205.0Q1104 216 1118 216H1693Q1708 216 1718.5 205.5Q1729 195 1729 180Q1729 165 1718.5 154.5Q1708 144 1693 144H1118Q1104 144 1093.5 155.0Q1083 166 1083 180ZM1083 36Q1083 50 1093.5 61.0Q1104 72 1118 72H1693Q1708 72 1718.5 61.5Q1729 51 1729 36Q1729 21 1718.5 10.5Q1708 0 1693 0H1118Q1104 0 1093.5 11.0Q1083 22 1083 36ZM2340 503Q2340 474 2318.5 452.5Q2297 431 2268 431Q2239 431 2218.0 452.5Q2197 474 2197 503Q2197 532 2218.0 553.5Q2239 575 2268 575Q2298 575 2319.0 554.0Q2340 533 2340 503Z" style="fill:#9b9b9b;stroke:none" transform="scale(1,-1) translate(0,-256)" /></svg>