<?xml version="1.0" encoding="utf-8" ?>
<svg baseProfile="full" height="256" version="1.1" width="256" xmlns="http://www.w3.org/2000/svg" xmlns:ev="http://www.w3.org/2001/xml-events" xmlns:xlink="http://www.w3.org/1999/xlink"><defs /><path d="M1730 1725Q1750 1725 1769.0 1718.5Q1788 1712 1803.0 1699.5Q1818 1687 1827.5 1669.5Q1837 1652 1837 1631V1222H975V1631Q975 1652 984.5 1669.5Q994 1687 1009.0 1699.5Q1024 1712 1043.0 1718.5Q1062 1725 1082 1725ZM570 1222H687V72H570Q537 72 506.0 84.0Q475 96 451.5 117.5Q428 139 414.0 168.0Q400 197 400 232V1063Q400 1097 414.0 1126.5Q428 1156 451.5 1177.0Q475 1198 506.0 1210.0Q537 1222 570 1222ZM2242 1222Q2276 1222 2306.5 1210.0Q2337 1198 2360.5 1177.0Q2384 1156 2398.0 1127.0Q2412 1098 2412 1063V232Q2412 197 2398.0 168.0Q2384 139 2360.5 117.5Q2337 96 2306.0 84.0Q2275 72 2242 72H2125V1222ZM1082 -144Q1061 -144 1041.5 -136.0Q1022 -128 1007.0 -114.5Q992 -101 983.5 -82.5Q975 -64 975 -42V431H1837V-43Q1837 -65 1828.0 -83.5Q1819 -102 1804.5 -115.5Q1790 -129 1770.5 -136.5Q1751 -144 1730 -144Z" style="fill:#d3d3d3;stroke:none" transform="scale(1,-1) translate(0,-256)" /></svg>