<?xml version="1.0" encoding="utf-8" ?>
<svg baseProfile="full" height="256" version="1.1" width="256" xmlns="http://www.w3.org/2000/svg" xmlns:ev="http://www.w3.org/2001/xml-events" xmlns:xlink="http://www.w3.org/1999/xlink"><defs /><path d="M1406 1379Q1420 1379 1423 1366L1510 1008Q1512 1002 1517.0 998.5Q1522 995 1528 995Q1536 995 1562.0 1009.5Q1588 1024 1622.0 1046.0Q1656 1068 1694.0 1093.0Q1732 1118 1766.0 1140.0Q1800 1162 1825.5 1176.5Q1851 1191 1860 1191Q1868 1191 1873.0 1186.0Q1878 1181 1878 1173Q1878 1164 1863.5 1138.5Q1849 1113 1827.0 1079.0Q1805 1045 1780.0 1007.0Q1755 969 1733.0 935.0Q1711 901 1696.5 875.0Q1682 849 1682 841Q1682 835 1685.5 830.0Q1689 825 1695 823L2053 736Q2066 733 2066 719Q2066 713 2062.5 708.0Q2059 703 2053 701L1695 615Q1689 613 1685.5 608.0Q1682 603 1682 597Q1682 588 1696.5 562.5Q1711 537 1733.0 503.0Q1755 469 1780.0 431.0Q1805 393 1827.0 359.0Q1849 325 1863.5 299.5Q1878 274 1878 265Q1878 257 1873.0 251.5Q1868 246 1860 246Q1852 246 1826.5 260.5Q1801 275 1767.0 297.0Q1733 319 1694.5 344.5Q1656 370 1621.5 392.0Q1587 414 1561.5 428.5Q1536 443 1528 443Q1522 443 1517.0 439.0Q1512 435 1510 429L1423 72Q1419 58 1406 58Q1400 58 1395.0 62.0Q1390 66 1388 72L1302 429Q1298 443 1284 443Q1276 443 1250.5 428.5Q1225 414 1190.5 392.0Q1156 370 1118.0 344.5Q1080 319 1045.5 297.0Q1011 275 985.5 260.5Q960 246 952 246Q944 246 938.5 251.5Q933 257 933 265Q933 273 947.5 298.5Q962 324 984.0 358.5Q1006 393 1031.5 431.0Q1057 469 1079.0 503.5Q1101 538 1115.5 563.5Q1130 589 1130 597Q1130 611 1116 615L759 701Q753 703 749.0 708.0Q745 713 745 719Q745 732 759 736L1116 823Q1122 825 1126.0 830.0Q1130 835 1130 841Q1130 849 1115.5 874.5Q1101 900 1079.0 934.5Q1057 969 1031.5 1007.5Q1006 1046 984.0 1080.0Q962 1114 947.5 1139.5Q933 1165 933 1173Q933 1181 938.5 1186.0Q944 1191 952 1191Q960 1191 986.0 1176.5Q1012 1162 1046.0 1140.0Q1080 1118 1118.0 1093.0Q1156 1068 1190.0 1046.0Q1224 1024 1249.5 1009.5Q1275 995 1284 995Q1290 995 1295.0 998.5Q1300 1002 1302 1008L1388 1366Q1390 1372 1395.0 1375.5Q1400 1379 1406 1379Z" style="fill:#ffffff;stroke:none" transform="scale(1,-1) translate(0,-256)" /></svg>