<?xml version="1.0" encoding="utf-8" ?>
<svg baseProfile="full" height="256" version="1.1" width="256" xmlns="http://www.w3.org/2000/svg" xmlns:ev="http://www.w3.org/2001/xml-events" xmlns:xlink="http://www.w3.org/1999/xlink"><defs /><path d="M1378 719Q1378 705 1373.5 692.0Q1369 679 1359 669L937 227Q916 204 885 204Q855 204 834.0 225.0Q813 246 813 276V1162Q813 1192 834.0 1213.0Q855 1234 885 1234Q916 1234 937 1211L1359 769Q1369 759 1373.5 746.0Q1378 733 1378 719ZM1478 1186Q1478 1201 1488.5 1211.5Q1499 1222 1514 1222H1658Q1672 1222 1682.5 1211.0Q1693 1200 1693 1186V252Q1693 238 1682.5 227.0Q1672 216 1658 216H1514Q1499 216 1488.5 226.5Q1478 237 1478 252ZM1801 1222Q1786 1222 1775.5 1211.5Q1765 1201 1765 1186V252Q1765 237 1775.5 226.5Q1786 216 1801 216H1945Q1960 216 1970.5 226.5Q1981 237 1981 252V1186Q1981 1201 1970.5 1211.5Q1960 1222 1945 1222Z" style="fill:#ffffff;stroke:none" transform="scale(1,-1) translate(0,-256)" /></svg>