<?xml version="1.0" encoding="utf-8" ?>
<svg baseProfile="full" height="256" version="1.1" width="256" xmlns="http://www.w3.org/2000/svg" xmlns:ev="http://www.w3.org/2001/xml-events" xmlns:xlink="http://www.w3.org/1999/xlink"><defs /><path d="M1215 575H1430L1617 -265V-269Q1617 -277 1612.0 -282.0Q1607 -287 1599 -287H1420Q1406 -287 1403 -273ZM2080 484H1865Q1861 467 1847.5 406.5Q1834 346 1815.0 264.0Q1796 182 1775.5 91.0Q1755 0 1738.0 -78.5Q1721 -157 1709.5 -210.0Q1698 -263 1698 -269Q1698 -277 1703.0 -282.0Q1708 -287 1716 -287H1895Q1908 -287 1912 -273Z" style="fill:#d3883e;stroke:none" transform="scale(1,-1) translate(0,-256)" /></svg>