<?xml version="1.0" encoding="utf-8" ?>
<svg baseProfile="full" height="256" version="1.1" width="256" xmlns="http://www.w3.org/2000/svg" xmlns:ev="http://www.w3.org/2001/xml-events" xmlns:xlink="http://www.w3.org/1999/xlink"><defs /><path d="M1693 1150Q1723 1150 1749.0 1138.5Q1775 1127 1794.5 1107.5Q1814 1088 1825.5 1062.0Q1837 1036 1837 1006H1406Q1406 1036 1427.0 1057.0Q1448 1078 1478 1078Q1508 1078 1529.0 1057.0Q1550 1036 1550 1006Q1550 1036 1561.0 1062.0Q1572 1088 1591.5 1107.5Q1611 1127 1637.0 1138.5Q1663 1150 1693 1150ZM1262 360Q1262 390 1273.5 416.0Q1285 442 1304.5 461.5Q1324 481 1350.0 492.0Q1376 503 1406 503Q1436 503 1462.0 492.0Q1488 481 1507.5 461.5Q1527 442 1538.5 416.0Q1550 390 1550 360Z" style="fill:#00d26a;stroke:none" transform="scale(1,-1) translate(0,-256)" /></svg>