<?xml version="1.0" encoding="utf-8" ?>
<svg baseProfile="full" height="256" version="1.1" width="256" xmlns="http://www.w3.org/2000/svg" xmlns:ev="http://www.w3.org/2001/xml-events" xmlns:xlink="http://www.w3.org/1999/xlink"><defs /><path d="M1981 863Q1981 744 1936.0 639.0Q1891 534 1813.0 456.0Q1735 378 1630.0 333.0Q1525 288 1406 288Q1287 288 1182.0 333.0Q1077 378 999.0 456.0Q921 534 876.0 639.0Q831 744 831 863Q831 982 876.5 1086.5Q922 1191 1000.0 1269.0Q1078 1347 1182.5 1392.5Q1287 1438 1406 1438Q1525 1438 1629.5 1392.5Q1734 1347 1812.0 1269.0Q1890 1191 1935.5 1086.5Q1981 982 1981 863Z" style="fill:#ff6723;stroke:none" transform="scale(1,-1) translate(0,-256)" /></svg>