<?xml version="1.0" encoding="utf-8" ?>
<svg baseProfile="full" height="256" version="1.1" width="256" xmlns="http://www.w3.org/2000/svg" xmlns:ev="http://www.w3.org/2001/xml-events" xmlns:xlink="http://www.w3.org/1999/xlink"><defs /><path d="M1159 1080Q1185 1080 1208.0 1070.0Q1231 1060 1248.0 1043.0Q1265 1026 1275.0 1003.0Q1285 980 1285 954Q1285 925 1306.0 904.0Q1327 883 1356 883Q1382 883 1405.0 873.0Q1428 863 1445.0 846.0Q1462 829 1472.0 806.0Q1482 783 1482 757Q1482 731 1472.0 708.0Q1462 685 1445.0 668.0Q1428 651 1405.0 641.0Q1382 631 1356 631Q1289 631 1230.5 656.5Q1172 682 1128.0 726.0Q1084 770 1058.5 828.5Q1033 887 1033 954Q1033 980 1043.0 1003.0Q1053 1026 1070.0 1043.0Q1087 1060 1110.0 1070.0Q1133 1080 1159 1080Z" style="fill:#7d4533;stroke:none" transform="scale(1,-1) translate(0,-256)" /></svg>