<?xml version="1.0" encoding="utf-8" ?>
<svg baseProfile="full" height="256" version="1.1" width="256" xmlns="http://www.w3.org/2000/svg" xmlns:ev="http://www.w3.org/2001/xml-events" xmlns:xlink="http://www.w3.org/1999/xlink"><defs /><path d="M2125 935Q2184 935 2236.5 912.0Q2289 889 2328.0 850.0Q2367 811 2389.5 758.5Q2412 706 2412 647Q2412 588 2389.5 535.5Q2367 483 2328.0 444.0Q2289 405 2236.5 382.5Q2184 360 2125 360H687Q627 360 575.0 382.5Q523 405 484.0 444.0Q445 483 422.5 535.0Q400 587 400 647Q400 707 422.5 759.5Q445 812 484.0 851.0Q523 890 575.0 912.5Q627 935 687 935ZM543 647Q543 617 554.5 591.0Q566 565 585.5 545.5Q605 526 631.0 514.5Q657 503 687 503H975V791H687Q657 791 631.0 779.5Q605 768 585.5 748.5Q566 729 554.5 703.0Q543 677 543 647ZM2125 503Q2155 503 2181.0 514.5Q2207 526 2226.5 545.5Q2246 565 2257.0 591.0Q2268 617 2268 647Q2268 677 2257.0 703.0Q2246 729 2226.5 748.5Q2207 768 2181.0 779.5Q2155 791 2125 791H1837V503Z" style="fill:#b4acbc;stroke:none" transform="scale(1,-1) translate(0,-256)" /></svg>