<?xml version="1.0" encoding="utf-8" ?>
<svg baseProfile="full" height="256" version="1.1" width="256" xmlns="http://www.w3.org/2000/svg" xmlns:ev="http://www.w3.org/2001/xml-events" xmlns:xlink="http://www.w3.org/1999/xlink"><defs /><path d="M1765 1006Q1869 1006 1960.5 966.5Q2052 927 2120.5 858.5Q2189 790 2228.5 698.5Q2268 607 2268 503V-287H1262V455L1046 599L876 615L769 784Q731 809 692.5 832.5Q654 856 623.5 885.0Q593 914 573.5 951.0Q554 988 554 1040Q554 1085 570.5 1125.0Q587 1165 616.0 1194.5Q645 1224 684.5 1241.0Q724 1258 770 1258H1334Q1371 1258 1404.0 1244.0Q1437 1230 1461.5 1205.5Q1486 1181 1500.0 1148.0Q1514 1115 1514 1078Q1514 1059 1510.0 1041.0Q1506 1023 1499 1006Z" style="fill:#635994;stroke:none" transform="scale(1,-1) translate(0,-256)" /></svg>