<?xml version="1.0" encoding="utf-8" ?>
<svg baseProfile="full" height="256" version="1.1" width="256" xmlns="http://www.w3.org/2000/svg" xmlns:ev="http://www.w3.org/2001/xml-events" xmlns:xlink="http://www.w3.org/1999/xlink"><defs /><path d="M1832 1734Q1898 1734 1955.5 1709.0Q2013 1684 2055.5 1640.5Q2098 1597 2122.5 1539.0Q2147 1481 2147 1415Q2147 1390 2143.5 1367.0Q2140 1344 2133 1320L2079 1122Q2065 1070 2035.0 1025.0Q2005 980 1963.5 946.5Q1922 913 1871.5 894.0Q1821 875 1766 875Q1699 875 1642.0 901.5Q1585 928 1543.5 973.0Q1502 1018 1478.5 1077.0Q1455 1136 1455 1201Q1455 1222 1457.5 1243.5Q1460 1265 1466 1286L1520 1484Q1529 1516 1540.0 1544.5Q1551 1573 1571 1601Q1617 1665 1685.5 1699.5Q1754 1734 1832 1734Z" style="fill:#7167a4;stroke:none" transform="scale(1,-1) translate(0,-256)" /></svg>