<?xml version="1.0" encoding="utf-8" ?>
<svg baseProfile="full" height="256" version="1.1" width="256" xmlns="http://www.w3.org/2000/svg" xmlns:ev="http://www.w3.org/2001/xml-events" xmlns:xlink="http://www.w3.org/1999/xlink"><defs /><path d="M1238 1745Q1277 1745 1315.0 1735.0Q1353 1725 1387.0 1707.0Q1421 1689 1450.0 1663.0Q1479 1637 1501 1604Q1521 1575 1531.0 1546.0Q1541 1517 1550 1484L1604 1286Q1616 1244 1616 1199Q1616 1134 1592.5 1075.5Q1569 1017 1527.0 972.5Q1485 928 1428.0 901.5Q1371 875 1304 875Q1250 875 1199.5 894.0Q1149 913 1107.0 946.5Q1065 980 1035.0 1025.0Q1005 1070 991 1122L938 1320Q930 1348 924.5 1373.0Q919 1398 919 1427Q919 1493 944.0 1550.5Q969 1608 1012.5 1651.5Q1056 1695 1114.0 1720.0Q1172 1745 1238 1745ZM1722 551Q1689 551 1660.0 563.5Q1631 576 1610.0 598.0Q1589 620 1576.5 649.0Q1564 678 1564 711Q1564 759 1592.0 800.0Q1620 841 1665 858L2087 1020Q2098 1025 2112.5 1026.5Q2127 1028 2139 1028Q2172 1028 2201.0 1015.5Q2230 1003 2251.5 981.0Q2273 959 2285.0 930.0Q2297 901 2297 868Q2297 823 2271.0 782.0Q2245 741 2202 724L1780 562Q1766 557 1752.0 554.0Q1738 551 1722 551ZM1688 95Q1688 63 1675.5 34.5Q1663 6 1641.0 -15.0Q1619 -36 1590.5 -48.5Q1562 -61 1530 -61H955Q891 -61 834.5 -36.5Q778 -12 735.5 30.0Q693 72 668.0 128.5Q643 185 643 249Q643 292 653 329L769 785L1046 600Q1044 593 1037.5 566.0Q1031 539 1021.5 502.5Q1012 466 1002.0 424.5Q992 383 983.5 348.5Q975 314 969.5 290.0Q964 266 964 265L966 261L970 258Q971 257 994.0 257.0Q1017 257 1053.5 256.5Q1090 256 1137.5 256.0Q1185 256 1234.5 256.0Q1284 256 1333.0 256.5Q1382 257 1422.0 257.0Q1462 257 1490.0 257.0Q1518 257 1526 257Q1560 257 1589.5 244.5Q1619 232 1641.0 210.0Q1663 188 1675.5 158.5Q1688 129 1688 95Z" style="fill:#6b438b;stroke:none" transform="scale(1,-1) translate(0,-256)" /></svg>