<?xml version="1.0" encoding="utf-8" ?>
<svg baseProfile="full" height="256" version="1.1" width="256" xmlns="http://www.w3.org/2000/svg" xmlns:ev="http://www.w3.org/2001/xml-events" xmlns:xlink="http://www.w3.org/1999/xlink"><defs /><path d="M1665 1352Q1710 1352 1737.5 1321.0Q1765 1290 1765 1247Q1765 1227 1756.0 1209.0Q1747 1191 1732.0 1178.0Q1717 1165 1698.5 1157.5Q1680 1150 1661 1150H1155Q1141 1150 1131.5 1159.5Q1122 1169 1122 1183Q1122 1189 1123 1191Q1129 1218 1144.0 1241.0Q1159 1264 1179.5 1281.5Q1200 1299 1225.0 1310.0Q1250 1321 1278 1323L1657 1352ZM400 785Q412 791 427 791Q456 791 477.5 769.5Q499 748 499 719Q499 692 481.0 671.5Q463 651 436 648Q418 679 409.0 714.0Q400 749 400 785Z" style="fill:#ff8687;stroke:none" transform="scale(1,-1) translate(0,-256)" /></svg>