<?xml version="1.0" encoding="utf-8" ?>
<svg baseProfile="full" height="256" version="1.1" width="256" xmlns="http://www.w3.org/2000/svg" xmlns:ev="http://www.w3.org/2001/xml-events" xmlns:xlink="http://www.w3.org/1999/xlink"><defs /><path d="M1649 480Q1689 480 1716.5 452.0Q1744 424 1744 384Q1744 357 1727.5 335.0Q1711 313 1684.0 296.0Q1657 279 1623.5 267.0Q1590 255 1556.0 247.0Q1522 239 1491.5 235.5Q1461 232 1440 232H1420Q1318 232 1228.0 271.0Q1138 310 1071.0 377.0Q1004 444 965.0 534.0Q926 624 926 726Q926 832 967.5 922.5Q1009 1013 1079.5 1079.5Q1150 1146 1243.5 1183.5Q1337 1221 1441 1221Q1498 1221 1559.0 1207.5Q1620 1194 1669 1165Q1693 1151 1706.5 1131.0Q1720 1111 1720 1082Q1720 1041 1693.0 1013.5Q1666 986 1625 986Q1612 986 1601.5 989.5Q1591 993 1580 998Q1557 1008 1538.5 1014.5Q1520 1021 1502.0 1025.0Q1484 1029 1464.5 1030.5Q1445 1032 1421 1032Q1358 1032 1302.5 1008.0Q1247 984 1205.5 942.5Q1164 901 1140.0 845.5Q1116 790 1116 727Q1116 659 1142.5 603.0Q1169 547 1214.0 506.5Q1259 466 1318.0 443.5Q1377 421 1442 421Q1488 421 1522.5 432.5Q1557 444 1597 465Q1610 472 1622.5 476.0Q1635 480 1649 480ZM400 719Q400 858 436.0 986.5Q472 1115 537.5 1226.5Q603 1338 695.0 1430.0Q787 1522 898.5 1587.5Q1010 1653 1138.5 1689.0Q1267 1725 1406 1725Q1545 1725 1673.5 1689.0Q1802 1653 1913.5 1587.5Q2025 1522 2117.0 1430.0Q2209 1338 2274.5 1226.5Q2340 1115 2376.0 986.5Q2412 858 2412 719Q2412 580 2376.0 451.5Q2340 323 2274.5 211.5Q2209 100 2117.0 8.0Q2025 -84 1913.5 -149.5Q1802 -215 1673.5 -251.0Q1545 -287 1406 -287Q1267 -287 1138.5 -251.0Q1010 -215 898.5 -149.5Q787 -84 695.0 8.0Q603 100 537.5 211.5Q472 323 436.0 451.5Q400 580 400 719ZM615 719Q615 610 643.5 509.0Q672 408 723.5 320.0Q775 232 847.0 160.0Q919 88 1007.0 36.5Q1095 -15 1196.0 -43.5Q1297 -72 1406 -72Q1515 -72 1616.0 -43.5Q1717 -15 1805.0 36.5Q1893 88 1965.0 160.0Q2037 232 2088.5 320.0Q2140 408 2168.5 509.0Q2197 610 2197 719Q2197 828 2168.5 929.0Q2140 1030 2088.5 1118.0Q2037 1206 1965.0 1278.0Q1893 1350 1805.0 1401.5Q1717 1453 1616.0 1481.5Q1515 1510 1406 1510Q1297 1510 1196.0 1481.5Q1095 1453 1007.0 1401.5Q919 1350 847.0 1278.0Q775 1206 723.5 1118.0Q672 1030 643.5 929.0Q615 828 615 719Z" style="fill:#635994;stroke:none" transform="scale(1,-1) translate(0,-256)" /></svg>