<?xml version="1.0" encoding="utf-8" ?>
<svg baseProfile="full" height="256" version="1.1" width="256" xmlns="http://www.w3.org/2000/svg" xmlns:ev="http://www.w3.org/2001/xml-events" xmlns:xlink="http://www.w3.org/1999/xlink"><defs /><path d="M400 1438Q400 1497 422.5 1549.5Q445 1602 484.0 1641.0Q523 1680 575.5 1702.5Q628 1725 687 1725H2125Q2184 1725 2236.5 1702.5Q2289 1680 2328.0 1641.0Q2367 1602 2389.5 1549.5Q2412 1497 2412 1438V0Q2412 -59 2389.5 -111.5Q2367 -164 2328.0 -203.0Q2289 -242 2236.5 -264.5Q2184 -287 2125 -287H687Q627 -287 575.0 -264.5Q523 -242 484.0 -203.0Q445 -164 422.5 -112.0Q400 -60 400 0Z" style="fill:#ff822d;stroke:none" transform="scale(1,-1) translate(0,-256)" /></svg>