<?xml version="1.0" encoding="utf-8" ?>
<svg baseProfile="full" height="256" version="1.1" width="256" xmlns="http://www.w3.org/2000/svg" xmlns:ev="http://www.w3.org/2001/xml-events" xmlns:xlink="http://www.w3.org/1999/xlink"><defs /><path d="M1811 1150Q1853 1150 1892.5 1138.0Q1932 1126 1969 1106Q1985 1098 2006.0 1085.0Q2027 1072 2046.0 1056.5Q2065 1041 2078.5 1022.0Q2092 1003 2092 983Q2092 954 2070.5 932.5Q2049 911 2020 911Q2001 911 1979.0 926.0Q1957 941 1931.5 958.5Q1906 976 1876.5 991.0Q1847 1006 1811 1006Q1792 1006 1770.5 999.0Q1749 992 1731.0 979.0Q1713 966 1701.0 948.5Q1689 931 1689 909Q1689 874 1710.0 853.0Q1731 832 1765.0 816.5Q1799 801 1840.5 787.5Q1882 774 1924.0 755.0Q1966 736 2003.0 708.0Q2040 680 2064 636Q2090 589 2090 533Q2090 481 2069.5 435.0Q2049 389 2014.0 355.0Q1979 321 1933.0 301.5Q1887 282 1835 282Q1802 282 1764.5 291.0Q1727 300 1690.0 315.0Q1653 330 1620.0 350.0Q1587 370 1562 393Q1549 405 1542.0 418.5Q1535 432 1535 450Q1535 480 1556.0 501.0Q1577 522 1607 522Q1626 522 1649.5 507.0Q1673 492 1701.0 474.0Q1729 456 1762.5 441.0Q1796 426 1834 426Q1856 426 1876.5 434.0Q1897 442 1912.5 456.0Q1928 470 1937.0 489.5Q1946 509 1946 532Q1946 556 1934.5 573.5Q1923 591 1905.0 604.0Q1887 617 1866.0 626.0Q1845 635 1826 641Q1776 656 1726.0 677.0Q1676 698 1635.5 728.5Q1595 759 1570.0 802.5Q1545 846 1545 908Q1545 960 1568.0 1004.0Q1591 1048 1628.5 1080.5Q1666 1113 1714.0 1131.5Q1762 1150 1811 1150ZM791 1149Q813 1149 831.5 1136.0Q850 1123 858 1103L1070 554L1293 1104Q1301 1124 1319.5 1136.5Q1338 1149 1360 1149Q1389 1149 1410.5 1127.5Q1432 1106 1432 1077Q1432 1063 1427 1050L1136 333Q1128 314 1111.0 301.0Q1094 288 1073 288Q1049 288 1030.0 299.5Q1011 311 1002 334L724 1051Q719 1064 719 1077Q719 1106 740.5 1127.5Q762 1149 791 1149Z" style="fill:#ffffff;stroke:none" transform="scale(1,-1) translate(0,-256)" /></svg>