<?xml version="1.0" encoding="utf-8" ?>
<svg baseProfile="full" height="256" version="1.1" width="256" xmlns="http://www.w3.org/2000/svg" xmlns:ev="http://www.w3.org/2001/xml-events" xmlns:xlink="http://www.w3.org/1999/xlink"><defs /><path d="M1548 1438Q1578 1438 1599 1417L2352 676Q2373 655 2373 626Q2373 597 2352.0 576.5Q2331 556 2301 556Q2287 556 2273.5 561.0Q2260 566 2250 576L1548 1268L845 574Q825 554 794 554Q765 554 743.5 574.0Q722 594 722 624Q722 653 743 674L1497 1416Q1519 1438 1548 1438Z" style="fill:#f8312f;stroke:none" transform="scale(1,-1) translate(0,-256)" /></svg>