<?xml version="1.0" encoding="utf-8" ?>
<svg baseProfile="full" height="256" version="1.1" width="256" xmlns="http://www.w3.org/2000/svg" xmlns:ev="http://www.w3.org/2001/xml-events" xmlns:xlink="http://www.w3.org/1999/xlink"><defs /><path d="M1338 527Q1404 498 1441.0 439.5Q1478 381 1478 309Q1478 261 1459.5 217.5Q1441 174 1409.5 142.0Q1378 110 1335.5 91.0Q1293 72 1244 72H633Q584 72 541.5 91.0Q499 110 467.5 142.0Q436 174 418.0 217.5Q400 261 400 309Q400 372 431.0 428.0Q462 484 517 516Q499 543 489.5 575.0Q480 607 480 639V684Q480 731 497.5 771.5Q515 812 545.0 842.0Q575 872 616.0 889.0Q657 906 704 906Q704 956 722.5 1000.5Q741 1045 773.5 1078.0Q806 1111 850.0 1130.5Q894 1150 944 1150Q994 1150 1038.0 1130.5Q1082 1111 1114.5 1078.0Q1147 1045 1165.5 1000.5Q1184 956 1184 906Q1229 905 1268.0 887.0Q1307 869 1336.0 839.0Q1365 809 1381.5 769.0Q1398 729 1398 684Q1398 661 1398.5 637.5Q1399 614 1394.0 592.5Q1389 571 1376.5 553.5Q1364 536 1338 527Z" style="fill:#00d26a;stroke:none" transform="scale(1,-1) translate(0,-256)" /></svg>