<?xml version="1.0" encoding="utf-8" ?>
<svg baseProfile="full" height="256" version="1.1" width="256" xmlns="http://www.w3.org/2000/svg" xmlns:ev="http://www.w3.org/2001/xml-events" xmlns:xlink="http://www.w3.org/1999/xlink"><defs /><path d="M1564 -215H1104Q1090 -215 1079.5 -208.5Q1069 -202 1062.0 -191.5Q1055 -181 1051.0 -168.5Q1047 -156 1047 -144Q1047 -132 1050.5 -119.5Q1054 -107 1061.5 -96.5Q1069 -86 1079.5 -79.0Q1090 -72 1104 -72H1564Q1578 -72 1588.5 -78.5Q1599 -85 1606.5 -95.5Q1614 -106 1618.0 -119.0Q1622 -132 1622 -144Q1622 -169 1607.0 -192.0Q1592 -215 1564 -215Z" style="fill:#d3d3d3;stroke:none" transform="scale(1,-1) translate(0,-256)" /></svg>