<?xml version="1.0" encoding="utf-8" ?>
<svg baseProfile="full" height="256" version="1.1" width="256" xmlns="http://www.w3.org/2000/svg" xmlns:ev="http://www.w3.org/2001/xml-events" xmlns:xlink="http://www.w3.org/1999/xlink"><defs /><path d="M1762 -287Q1730 -267 1711.5 -233.5Q1693 -200 1693 -162Q1693 -152 1695 -147V-143Q1698 -114 1708.0 -94.0Q1718 -74 1731.5 -60.5Q1745 -47 1760.5 -38.0Q1776 -29 1790.5 -21.5Q1805 -14 1817.0 -6.0Q1829 2 1835 14Q1867 74 1919.5 109.0Q1972 144 2041 144Q2088 144 2129.5 126.0Q2171 108 2201.5 76.5Q2232 45 2250.0 3.5Q2268 -38 2268 -85Q2268 -116 2259.5 -146.0Q2251 -176 2235.5 -202.5Q2220 -229 2197.5 -250.5Q2175 -272 2148 -287Z" style="fill:#00d26a;stroke:none" transform="scale(1,-1) translate(0,-256)" /></svg>