<?xml version="1.0" encoding="utf-8" ?>
<svg baseProfile="full" height="256" version="1.1" width="256" xmlns="http://www.w3.org/2000/svg" xmlns:ev="http://www.w3.org/2001/xml-events" xmlns:xlink="http://www.w3.org/1999/xlink"><defs /><path d="M849 575Q887 575 913.0 549.0Q939 523 939 485V431H1118V485Q1118 522 1144.5 548.5Q1171 575 1208 575Q1246 575 1272.0 549.0Q1298 523 1298 485V431H1478V485Q1478 523 1504.0 549.0Q1530 575 1568 575Q1605 575 1631.5 548.5Q1658 522 1658 485V431H1837V485Q1837 523 1863.0 549.0Q1889 575 1927 575Q1965 575 1991.0 549.0Q2017 523 2017 485V353Q2028 356 2039.0 358.0Q2050 360 2061 360Q2088 360 2113.5 350.0Q2139 340 2159 323L2360 149Q2385 127 2398.5 97.0Q2412 67 2412 35Q2412 2 2396.5 -30.0Q2381 -62 2356.0 -87.5Q2331 -113 2299.0 -128.5Q2267 -144 2234 -144Q2201 -144 2171.5 -130.5Q2142 -117 2120 -91L1946 109Q1928 129 1918.5 155.0Q1909 181 1909 208Q1909 251 1932 288H1837V234Q1837 196 1811.0 170.0Q1785 144 1747 144Q1710 144 1684.0 170.5Q1658 197 1658 234V288H1478V234Q1478 196 1452.0 170.0Q1426 144 1388 144Q1350 144 1324.0 170.0Q1298 196 1298 234V288H1118V234Q1118 197 1092.0 170.5Q1066 144 1029 144Q991 144 965.0 170.0Q939 196 939 234V288H759V485Q759 523 785.0 549.0Q811 575 849 575ZM1972 229Q1972 201 1991.0 181.5Q2010 162 2038 162Q2066 162 2086.0 181.5Q2106 201 2106 229Q2106 257 2086.0 276.0Q2066 295 2038 295Q2010 295 1991.0 276.0Q1972 257 1972 229Z" style="fill:#7167a4;stroke:none" transform="scale(1,-1) translate(0,-256)" /></svg>