<?xml version="1.0" encoding="utf-8" ?>
<svg baseProfile="full" height="256" version="1.1" width="256" xmlns="http://www.w3.org/2000/svg" xmlns:ev="http://www.w3.org/2001/xml-events" xmlns:xlink="http://www.w3.org/1999/xlink"><defs /><path d="M1426 1137Q1381 1110 1358.0 1067.0Q1335 1024 1335 973Q1335 917 1358.5 867.5Q1382 818 1432 789L1429 787H1966Q2011 762 2034 716H1358Q1346 695 1340.5 671.0Q1335 647 1335 623Q1335 564 1356.5 513.0Q1378 462 1433 433H1962Q2009 408 2033 361H1359Q1335 317 1335 266Q1335 156 1396.0 104.0Q1457 52 1564 52H1805Q1833 52 1862.0 55.5Q1891 59 1918.0 68.0Q1945 77 1969.0 92.5Q1993 108 2011 131H2149Q2178 131 2206.0 117.5Q2234 104 2258.0 83.0Q2282 62 2300.5 35.5Q2319 9 2329 -16Q2305 9 2272.0 26.0Q2239 43 2202.5 53.0Q2166 63 2128.5 67.0Q2091 71 2058 71Q2029 36 1988.0 17.5Q1947 -1 1902 -1H1492Q1433 -1 1378.5 11.0Q1324 23 1282.0 51.0Q1240 79 1215.0 125.0Q1190 171 1190 238Q1190 256 1193.5 287.0Q1197 318 1205.5 348.5Q1214 379 1228.5 404.0Q1243 429 1264 437Q1240 445 1225.5 467.0Q1211 489 1204 512Q1186 462 1161.5 413.0Q1137 364 1106.5 317.5Q1076 271 1039.5 229.5Q1003 188 962 155Q957 151 951.5 148.5Q946 146 939 146Q925 146 914.0 157.0Q903 168 903 183Q903 198 915 209Q933 226 950.5 242.5Q968 259 985 278Q1058 360 1104.0 458.5Q1150 557 1172 664Q1192 764 1192 864Q1192 881 1191.0 898.0Q1190 915 1190 932Q1190 980 1212.0 1015.0Q1234 1050 1268.0 1074.5Q1302 1099 1344.0 1114.0Q1386 1129 1426 1137Z" style="fill:#d67d00;stroke:none" transform="scale(1,-1) translate(0,-256)" /></svg>