<?xml version="1.0" encoding="utf-8" ?>
<svg baseProfile="full" height="256" version="1.1" width="256" xmlns="http://www.w3.org/2000/svg" xmlns:ev="http://www.w3.org/2001/xml-events" xmlns:xlink="http://www.w3.org/1999/xlink"><defs /><path d="M2011 131H2149Q2183 131 2217.0 112.0Q2251 93 2278.0 64.0Q2305 35 2322.0 -0.5Q2339 -36 2339 -69Q2339 -114 2321.5 -154.0Q2304 -194 2274.0 -224.0Q2244 -254 2204.5 -272.0Q2165 -290 2120 -290H1280Q1164 -290 1054.0 -275.0Q944 -260 846.0 -226.5Q748 -193 666.0 -139.0Q584 -85 525.0 -7.5Q466 70 433.0 173.5Q400 277 400 409Q400 510 423.0 611.5Q446 713 491.0 805.5Q536 898 603.5 975.0Q671 1052 761 1105Q842 1152 914.0 1193.0Q986 1234 1050.0 1281.0Q1114 1328 1170.0 1387.5Q1226 1447 1276 1532Q1295 1565 1319.5 1599.5Q1344 1634 1374.0 1661.5Q1404 1689 1439.5 1706.5Q1475 1724 1518 1724Q1563 1724 1601.5 1707.5Q1640 1691 1668.0 1662.0Q1696 1633 1711.5 1594.0Q1727 1555 1727 1510Q1727 1461 1710.5 1418.5Q1694 1376 1665 1337Q1653 1321 1637.5 1301.5Q1622 1282 1606.5 1261.0Q1591 1240 1578.5 1218.5Q1566 1197 1562 1177V1173H1805Q1856 1173 1901.0 1163.0Q1946 1153 1980.0 1130.0Q2014 1107 2033.5 1068.5Q2053 1030 2053 973Q2053 916 2031.0 868.5Q2009 821 1958 792Q2009 766 2031.0 722.0Q2053 678 2053 623Q2053 564 2030.0 515.0Q2007 466 1953 437Q2007 412 2030.0 367.5Q2053 323 2053 266Q2053 230 2043.5 195.0Q2034 160 2011 131Z" style="fill:#ffc83d;stroke:none" transform="scale(1,-1) translate(0,-256)" /></svg>