<?xml version="1.0" encoding="utf-8" ?>
<svg baseProfile="full" height="256" version="1.1" width="256" xmlns="http://www.w3.org/2000/svg" xmlns:ev="http://www.w3.org/2001/xml-events" xmlns:xlink="http://www.w3.org/1999/xlink"><defs /><path d="M401 529Q401 647 429.0 741.5Q457 836 507.5 916.5Q558 997 628.0 1069.0Q698 1141 783 1216Q840 1267 914.0 1293.5Q988 1320 1064 1320H1305Q1325 1320 1338.0 1322.5Q1351 1325 1366 1339Q1395 1365 1421.5 1378.5Q1448 1392 1488 1392Q1524 1392 1555.5 1377.5Q1587 1363 1610.5 1338.5Q1634 1314 1648.0 1281.5Q1662 1249 1662 1214Q1662 1178 1648.5 1147.0Q1635 1116 1610 1090Q1581 1061 1554.5 1037.0Q1528 1013 1498.5 996.0Q1469 979 1435.0 969.5Q1401 960 1358 960H1318Q1271 960 1234.5 942.5Q1198 925 1172.5 895.5Q1147 866 1133.5 826.5Q1120 787 1120 744Q1120 699 1137.0 660.0Q1154 621 1183.5 592.0Q1213 563 1252.0 546.0Q1291 529 1336 529H1709Q1737 529 1763.0 539.0Q1789 549 1809 569L2115 868Q2139 891 2170.5 904.0Q2202 917 2236 917Q2272 917 2304.0 903.5Q2336 890 2359.5 866.5Q2383 843 2397.0 811.0Q2411 779 2411 743Q2411 705 2395.5 671.0Q2380 637 2351 612L1889 207Q1830 156 1756.5 128.0Q1683 100 1605 100H918Q822 100 729.0 127.0Q636 154 563.0 207.5Q490 261 445.5 341.5Q401 422 401 529Z" style="fill:#ffc83d;stroke:none" transform="scale(1,-1) translate(0,-256)" /></svg>