<?xml version="1.0" encoding="utf-8" ?>
<svg baseProfile="full" height="256" version="1.1" width="256" xmlns="http://www.w3.org/2000/svg" xmlns:ev="http://www.w3.org/2001/xml-events" xmlns:xlink="http://www.w3.org/1999/xlink"><defs /><path d="M1808 917Q1821 965 1858.5 994.5Q1896 1024 1946 1024Q1976 1024 2002.0 1013.0Q2028 1002 2047.5 982.5Q2067 963 2078.5 937.0Q2090 911 2090 881Q2090 863 2085 843L1966 397Q1953 350 1914.5 320.0Q1876 290 1827 290Q1800 290 1774.0 300.0Q1748 310 1728 329Q1708 306 1680.0 294.0Q1652 282 1622 282Q1604 282 1586.0 286.5Q1568 291 1552 300Q1532 278 1503.5 265.5Q1475 253 1445 253Q1397 253 1358.0 283.0Q1319 313 1306 360L1231 639Q1226 659 1226 676Q1226 706 1237.5 732.0Q1249 758 1268.5 777.5Q1288 797 1314.5 808.5Q1341 820 1371 820Q1401 820 1429.5 807.5Q1458 795 1478 772V817Q1478 847 1489.5 873.0Q1501 899 1520.5 918.5Q1540 938 1566.0 949.0Q1592 960 1622 960Q1652 960 1678.0 949.0Q1704 938 1723.5 918.5Q1743 899 1754.0 873.0Q1765 847 1765 817V760Z" style="fill:#d67d00;stroke:none" transform="scale(1,-1) translate(0,-256)" /></svg>