<?xml version="1.0" encoding="utf-8" ?>
<svg baseProfile="full" height="256" version="1.1" width="256" xmlns="http://www.w3.org/2000/svg" xmlns:ev="http://www.w3.org/2001/xml-events" xmlns:xlink="http://www.w3.org/1999/xlink"><defs /><path d="M1406 1725Q1420 1725 1433.5 1720.0Q1447 1715 1457 1704L2001 1119Q2019 1099 2019 1074Q2019 1045 1998.5 1026.0Q1978 1007 1950 1007H1689Q1670 1007 1656.5 994.0Q1643 981 1643 962V589Q1643 553 1617.5 529.0Q1592 505 1557 505H1254Q1219 505 1194.0 529.0Q1169 553 1169 588V961Q1169 980 1155.5 993.0Q1142 1006 1123 1006H861Q832 1006 812.0 1025.5Q792 1045 792 1074Q792 1099 810 1119L1355 1703Q1375 1725 1406 1725ZM1150 373H687Q658 373 636.5 351.5Q615 330 615 301Q615 272 636.5 250.5Q658 229 687 229H847V-215Q847 -244 868.5 -265.0Q890 -286 919 -286Q948 -286 969.5 -265.0Q991 -244 991 -215V229H1150Q1180 229 1201.0 250.0Q1222 271 1222 301Q1222 331 1201.0 352.0Q1180 373 1150 373ZM1825 372H2024Q2065 372 2101.0 356.5Q2137 341 2163.5 314.5Q2190 288 2205.5 252.0Q2221 216 2221 175Q2221 134 2205.5 98.0Q2190 62 2163.5 35.5Q2137 9 2101.0 -6.5Q2065 -22 2024 -22H1897V-215Q1897 -245 1876.0 -266.0Q1855 -287 1825 -287Q1795 -287 1774.0 -266.0Q1753 -245 1753 -215V300Q1753 330 1774.0 351.0Q1795 372 1825 372ZM1897 122H2024Q2046 122 2061.5 137.5Q2077 153 2077 175Q2077 197 2061.5 212.5Q2046 228 2024 228H1897ZM1222 -61Q1222 -108 1239.5 -149.0Q1257 -190 1288.0 -221.0Q1319 -252 1360.0 -269.5Q1401 -287 1448 -287Q1495 -287 1536.5 -269.5Q1578 -252 1608.5 -221.0Q1639 -190 1657.0 -149.0Q1675 -108 1675 -61V146Q1675 193 1657.0 234.0Q1639 275 1608.0 305.5Q1577 336 1535.5 353.5Q1494 371 1448 371Q1401 371 1360.0 353.5Q1319 336 1288.5 305.0Q1258 274 1240.0 233.0Q1222 192 1222 146ZM1366 146Q1366 180 1390.0 204.0Q1414 228 1448 228Q1483 228 1507.0 204.5Q1531 181 1531 146V-61Q1531 -96 1507.0 -120.0Q1483 -144 1448 -144Q1414 -144 1390.0 -119.5Q1366 -95 1366 -61Z" style="fill:#635994;stroke:none" transform="scale(1,-1) translate(0,-256)" /></svg>