<?xml version="1.0" encoding="utf-8" ?>
<svg baseProfile="full" height="256" version="1.1" width="256" xmlns="http://www.w3.org/2000/svg" xmlns:ev="http://www.w3.org/2001/xml-events" xmlns:xlink="http://www.w3.org/1999/xlink"><defs /><path d="M831 1797Q861 1797 882.0 1776.0Q903 1755 903 1725Q903 1659 928.0 1601.0Q953 1543 996.5 1499.5Q1040 1456 1098.0 1431.0Q1156 1406 1222 1406Q1252 1406 1273.0 1385.0Q1294 1364 1294 1334Q1294 1305 1272.5 1283.5Q1251 1262 1222 1262Q1126 1262 1042.0 1298.5Q958 1335 895.0 1398.0Q832 1461 795.5 1545.0Q759 1629 759 1725Q759 1755 780.0 1776.0Q801 1797 831 1797ZM1981 1797Q2011 1797 2032.0 1776.0Q2053 1755 2053 1725Q2053 1629 2016.5 1545.0Q1980 1461 1917.0 1398.0Q1854 1335 1770.0 1298.5Q1686 1262 1590 1262Q1561 1262 1539.5 1283.5Q1518 1305 1518 1334Q1518 1364 1539.0 1385.0Q1560 1406 1590 1406Q1656 1406 1714.0 1431.0Q1772 1456 1815.5 1499.5Q1859 1543 1884.0 1601.0Q1909 1659 1909 1725Q1909 1755 1930.0 1776.0Q1951 1797 1981 1797ZM1262 1006Q1262 976 1250.5 950.0Q1239 924 1219.5 904.5Q1200 885 1174.0 874.0Q1148 863 1118 863Q1088 863 1062.0 874.0Q1036 885 1016.5 904.5Q997 924 986.0 950.0Q975 976 975 1006Q975 1036 986.0 1062.0Q997 1088 1016.5 1107.5Q1036 1127 1062.0 1138.5Q1088 1150 1118 1150Q1148 1150 1174.0 1138.5Q1200 1127 1219.5 1107.5Q1239 1088 1250.5 1062.0Q1262 1036 1262 1006ZM1837 1006Q1837 976 1825.5 950.0Q1814 924 1794.5 904.5Q1775 885 1749.0 874.0Q1723 863 1693 863Q1663 863 1637.0 874.0Q1611 885 1591.5 904.5Q1572 924 1561.0 950.0Q1550 976 1550 1006Q1550 1036 1561.0 1062.0Q1572 1088 1591.5 1107.5Q1611 1127 1637.0 1138.5Q1663 1150 1693 1150Q1723 1150 1749.0 1138.5Q1775 1127 1794.5 1107.5Q1814 1088 1825.5 1062.0Q1837 1036 1837 1006ZM1614 216H2001Q2023 216 2038.0 231.0Q2053 246 2053 267Q2053 281 2045.5 292.0Q2038 303 2026 310L1406 647V638Q1406 647 1397 647Q1396 647 1371.0 633.5Q1346 620 1305.5 598.0Q1265 576 1213.0 547.5Q1161 519 1106.0 489.0Q1051 459 997.0 429.0Q943 399 899.0 374.5Q855 350 824.0 333.5Q793 317 785 312Q759 297 759 268Q759 246 773.5 231.0Q788 216 810 216H1190Q1235 216 1274.0 233.0Q1313 250 1342.5 279.5Q1372 309 1389.0 348.5Q1406 388 1406 433Q1406 388 1421.0 348.0Q1436 308 1463.5 279.0Q1491 250 1529.0 233.0Q1567 216 1614 216Z" style="fill:#533566;stroke:none" transform="scale(1,-1) translate(0,-256)" /></svg>