<?xml version="1.0" encoding="utf-8" ?>
<svg baseProfile="full" height="256" version="1.1" width="256" xmlns="http://www.w3.org/2000/svg" xmlns:ev="http://www.w3.org/2001/xml-events" xmlns:xlink="http://www.w3.org/1999/xlink"><defs /><path d="M1415 72Q1352 72 1300.0 48.5Q1248 25 1203 -19Q1192 -30 1179.5 -36.0Q1167 -42 1151 -42Q1121 -42 1100.0 -20.0Q1079 2 1079 31Q1079 59 1098 80Q1127 113 1163.5 138.0Q1200 163 1241.0 180.5Q1282 198 1326.0 207.0Q1370 216 1414 216Q1494 216 1573.0 186.0Q1652 156 1710 99Q1733 76 1733 46Q1733 17 1711.5 -4.5Q1690 -26 1661 -26Q1635 -26 1612 -6Q1568 32 1521.0 52.0Q1474 72 1415 72Z" style="fill:#fff478;stroke:none" transform="scale(1,-1) translate(0,-256)" /></svg>