<?xml version="1.0" encoding="utf-8" ?>
<svg baseProfile="full" height="256" version="1.1" width="256" xmlns="http://www.w3.org/2000/svg" xmlns:ev="http://www.w3.org/2001/xml-events" xmlns:xlink="http://www.w3.org/1999/xlink"><defs /><path d="M1406 -287Q1287 -287 1177.0 -256.0Q1067 -225 971.0 -169.0Q875 -113 796.0 -34.5Q717 44 661.0 140.0Q605 236 574.0 346.0Q543 456 543 575V1576Q543 1607 555.0 1634.0Q567 1661 587.5 1681.5Q608 1702 635.0 1713.5Q662 1725 693 1725H2119Q2150 1725 2177.0 1713.0Q2204 1701 2224.0 1681.0Q2244 1661 2256.0 1634.0Q2268 1607 2268 1576V575Q2268 456 2237.0 346.0Q2206 236 2150.0 140.0Q2094 44 2015.5 -34.5Q1937 -113 1841.0 -169.0Q1745 -225 1635.0 -256.0Q1525 -287 1406 -287Z" style="fill:#f8312f;stroke:none" transform="scale(1,-1) translate(0,-256)" /></svg>