<?xml version="1.0" encoding="utf-8" ?>
<svg baseProfile="full" height="256" version="1.1" width="256" xmlns="http://www.w3.org/2000/svg" xmlns:ev="http://www.w3.org/2001/xml-events" xmlns:xlink="http://www.w3.org/1999/xlink"><defs /><path d="M2303 431H1511Q1474 431 1441.0 445.0Q1408 459 1383.5 483.5Q1359 508 1345.0 541.0Q1331 574 1331 611Q1331 648 1345.0 681.0Q1359 714 1383.5 738.5Q1408 763 1441.0 777.0Q1474 791 1511 791H2303Q2340 791 2373.0 777.0Q2406 763 2430.5 738.5Q2455 714 2469.0 681.0Q2483 648 2483 611Q2483 574 2469.0 541.0Q2455 508 2430.5 483.5Q2406 459 2373.0 445.0Q2340 431 2303 431Z" style="fill:#ca0b4a;stroke:none" transform="scale(1,-1) translate(0,-256)" /></svg>