<?xml version="1.0" encoding="utf-8" ?>
<svg baseProfile="full" height="256" version="1.1" width="256" xmlns="http://www.w3.org/2000/svg" xmlns:ev="http://www.w3.org/2001/xml-events" xmlns:xlink="http://www.w3.org/1999/xlink"><defs /><path d="M464 1150Q437 1150 418.0 1169.5Q399 1189 399 1216V1372Q399 1399 418.0 1418.5Q437 1438 464 1438H837Q864 1438 883.0 1418.5Q902 1399 902 1372V1216Q902 1189 883.0 1169.5Q864 1150 837 1150ZM464 216Q437 216 418.0 235.0Q399 254 399 281V438Q399 465 418.0 484.0Q437 503 464 503H837Q864 503 883.0 484.0Q902 465 902 438V281Q902 255 882.5 235.5Q863 216 837 216Z" style="fill:#d3d3d3;stroke:none" transform="scale(1,-1) translate(0,-256)" /></svg>