<?xml version="1.0" encoding="utf-8" ?>
<svg baseProfile="full" height="256" version="1.1" width="256" xmlns="http://www.w3.org/2000/svg" xmlns:ev="http://www.w3.org/2001/xml-events" xmlns:xlink="http://www.w3.org/1999/xlink"><defs /><path d="M1909 647V547Q1909 532 1897.0 518.0Q1885 504 1869 504Q1856 504 1846.5 515.5Q1837 527 1837 539V611Q1837 625 1847.5 636.0Q1858 647 1872 647ZM1190 547Q1190 532 1201.5 518.0Q1213 504 1229 504Q1243 504 1252.5 514.5Q1262 525 1262 539V611Q1262 626 1251.5 636.5Q1241 647 1226 647H1190Z" style="fill:#fff478;stroke:none" transform="scale(1,-1) translate(0,-256)" /></svg>