<?xml version="1.0" encoding="utf-8" ?>
<svg baseProfile="full" height="256" version="1.1" width="256" xmlns="http://www.w3.org/2000/svg" xmlns:ev="http://www.w3.org/2001/xml-events" xmlns:xlink="http://www.w3.org/1999/xlink"><defs /><path d="M1162 791H1146Q1133 791 1125.5 802.0Q1118 813 1118 825V972Q1118 984 1125.0 995.0Q1132 1006 1146 1006H1162Q1176 1006 1183.0 995.0Q1190 984 1190 972V825Q1190 813 1183.0 802.0Q1176 791 1162 791ZM1952 791H1937Q1923 791 1916.0 802.0Q1909 813 1909 825V972Q1909 985 1916.0 995.5Q1923 1006 1937 1006H1952Q1966 1006 1973.0 995.0Q1980 984 1980 972V825Q1980 813 1972.5 802.0Q1965 791 1952 791Z" style="fill:#321b41;stroke:none" transform="scale(1,-1) translate(0,-256)" /></svg>