<?xml version="1.0" encoding="utf-8" ?>
<svg baseProfile="full" height="256" version="1.1" width="256" xmlns="http://www.w3.org/2000/svg" xmlns:ev="http://www.w3.org/2001/xml-events" xmlns:xlink="http://www.w3.org/1999/xlink"><defs /><path d="M1224 359Q1210 359 1200.0 369.0Q1190 379 1190 393V541Q1190 555 1200.0 565.0Q1210 575 1224 575H1300Q1314 575 1324.0 565.0Q1334 555 1334 541V393Q1334 379 1324.0 369.0Q1314 359 1300 359ZM1799 359H1875Q1889 359 1899.0 369.0Q1909 379 1909 393V541Q1909 555 1899.0 565.0Q1889 575 1875 575H1799Q1785 575 1775.0 565.0Q1765 555 1765 541V393Q1765 379 1775.0 369.0Q1785 359 1799 359Z" style="fill:#321b41;stroke:none" transform="scale(1,-1) translate(0,-256)" /></svg>