<?xml version="1.0" encoding="utf-8" ?>
<svg baseProfile="full" height="256" version="1.1" width="256" xmlns="http://www.w3.org/2000/svg" xmlns:ev="http://www.w3.org/2001/xml-events" xmlns:xlink="http://www.w3.org/1999/xlink"><defs /><path d="M903 865Q903 894 924.5 914.5Q946 935 975 935Q1004 935 1025.5 914.5Q1047 894 1047 865V142Q1047 113 1025.5 92.5Q1004 72 975 72Q946 72 924.5 92.0Q903 112 903 142ZM1334 865Q1334 894 1355.5 914.5Q1377 935 1406 935Q1435 935 1456.5 914.5Q1478 894 1478 865V142Q1478 113 1456.5 92.5Q1435 72 1406 72Q1377 72 1355.5 92.0Q1334 112 1334 142Z" style="fill:#fcd53f;stroke:none" transform="scale(1,-1) translate(0,-256)" /></svg>