<?xml version="1.0" encoding="utf-8" ?>
<svg baseProfile="full" height="256" version="1.1" width="256" xmlns="http://www.w3.org/2000/svg" xmlns:ev="http://www.w3.org/2001/xml-events" xmlns:xlink="http://www.w3.org/1999/xlink"><defs /><path d="M1334 827Q1334 879 1354.0 925.0Q1374 971 1408.0 1005.0Q1442 1039 1488.0 1058.5Q1534 1078 1586 1078H2089Q2141 1078 2187.0 1058.5Q2233 1039 2267.0 1005.0Q2301 971 2320.5 925.0Q2340 879 2340 827V324Q2340 272 2320.5 226.0Q2301 180 2267.0 146.0Q2233 112 2187.0 92.0Q2141 72 2089 72H1586Q1534 72 1488.0 92.0Q1442 112 1408.0 146.0Q1374 180 1354.0 226.0Q1334 272 1334 324ZM1586 863Q1571 863 1560.5 852.5Q1550 842 1550 827V324Q1550 309 1560.5 298.5Q1571 288 1586 288H2089Q2104 288 2114.5 298.5Q2125 309 2125 324V827Q2125 842 2114.5 852.5Q2104 863 2089 863Z" style="fill:#83cbff;stroke:none" transform="scale(1,-1) translate(0,-256)" /></svg>