<?xml version="1.0" encoding="utf-8" ?>
<svg baseProfile="full" height="256" version="1.1" width="256" xmlns="http://www.w3.org/2000/svg" xmlns:ev="http://www.w3.org/2001/xml-events" xmlns:xlink="http://www.w3.org/1999/xlink"><defs /><path d="M472 1258Q472 1325 497.5 1384.0Q523 1443 566.5 1486.5Q610 1530 669.0 1555.5Q728 1581 795 1581Q862 1581 921.0 1555.5Q980 1530 1023.5 1486.5Q1067 1443 1092.5 1384.0Q1118 1325 1118 1258V1222H472ZM1262 1258Q1262 1325 1287.5 1384.0Q1313 1443 1357.0 1486.5Q1401 1530 1460.0 1555.5Q1519 1581 1586 1581Q1653 1581 1711.5 1555.5Q1770 1530 1814.0 1486.0Q1858 1442 1883.5 1383.5Q1909 1325 1909 1258V1222H1262Z" style="fill:#e6e6e6;stroke:none" transform="scale(1,-1) translate(0,-256)" /></svg>