<?xml version="1.0" encoding="utf-8" ?>
<svg baseProfile="full" height="256" version="1.1" width="256" xmlns="http://www.w3.org/2000/svg" xmlns:ev="http://www.w3.org/2001/xml-events" xmlns:xlink="http://www.w3.org/1999/xlink"><defs /><path d="M1582 976Q1557 976 1539.5 993.5Q1522 1011 1522 1036Q1522 1061 1539.5 1078.5Q1557 1096 1582 1096Q1607 1096 1624.5 1078.5Q1642 1061 1642 1036Q1642 1011 1624.5 993.5Q1607 976 1582 976ZM1582 347Q1565 347 1552.5 359.5Q1540 372 1540 389Q1540 406 1552.5 418.5Q1565 431 1582 431Q1599 431 1611.5 418.5Q1624 406 1624 389Q1624 372 1611.5 359.5Q1599 347 1582 347ZM1217 759Q1217 742 1204.5 729.5Q1192 717 1175 717Q1158 717 1146.0 729.5Q1134 742 1134 759Q1134 776 1146.0 788.5Q1158 801 1175 801Q1192 801 1204.5 788.5Q1217 776 1217 759Z" style="fill:#ff9f2e;stroke:none" transform="scale(1,-1) translate(0,-256)" /></svg>