<?xml version="1.0" encoding="utf-8" ?>
<svg baseProfile="full" height="256" version="1.1" width="256" xmlns="http://www.w3.org/2000/svg" xmlns:ev="http://www.w3.org/2001/xml-events" xmlns:xlink="http://www.w3.org/1999/xlink"><defs /><path d="M1286 1548Q1272 1548 1262.5 1557.5Q1253 1567 1253 1581Q1253 1595 1262.5 1604.5Q1272 1614 1286 1614Q1300 1614 1309.5 1604.5Q1319 1595 1319 1581Q1319 1567 1309.5 1557.5Q1300 1548 1286 1548ZM1388 1416Q1374 1416 1364.5 1425.5Q1355 1435 1355 1449Q1355 1463 1364.5 1472.5Q1374 1482 1388 1482Q1402 1482 1411.5 1472.5Q1421 1463 1421 1449Q1421 1435 1411.5 1425.5Q1402 1416 1388 1416ZM1265 1437Q1265 1423 1255.5 1413.5Q1246 1404 1232 1404Q1218 1404 1208.5 1413.5Q1199 1423 1199 1437Q1199 1451 1208.5 1460.5Q1218 1470 1232 1470Q1246 1470 1255.5 1460.5Q1265 1451 1265 1437Z" style="fill:#bebebe;stroke:none" transform="scale(1,-1) translate(0,-256)" /></svg>