<?xml version="1.0" encoding="utf-8" ?>
<svg baseProfile="full" height="256" version="1.1" width="256" xmlns="http://www.w3.org/2000/svg" xmlns:ev="http://www.w3.org/2001/xml-events" xmlns:xlink="http://www.w3.org/1999/xlink"><defs /><path d="M1414 1372Q1354 1359 1294.5 1342.5Q1235 1326 1177 1305Q1148 1330 1112.0 1350.0Q1076 1370 1037.0 1385.0Q998 1400 958.5 1410.5Q919 1421 882 1429Q902 1431 922.5 1432.5Q943 1434 964 1434Q992 1434 1020.0 1432.5Q1048 1431 1076 1426ZM1528 82Q1528 55 1518.5 28.0Q1509 1 1494.0 -24.0Q1479 -49 1460.5 -72.0Q1442 -95 1424 -114Q1436 -93 1444.5 -70.0Q1453 -47 1453 -22Q1453 6 1439.0 32.0Q1425 58 1403.0 77.5Q1381 97 1353.0 108.5Q1325 120 1298 120L1299 122L1047 -109Q1031 -113 1011 -113Q977 -113 950 -100L1303 223Q1296 245 1281.5 265.5Q1267 286 1247.5 301.5Q1228 317 1205.0 326.5Q1182 336 1158 336Q1140 336 1125 332H1126L852 60Q834 54 814 54Q799 54 784.5 57.5Q770 61 756 66L1136 444Q1128 465 1113.0 485.0Q1098 505 1077.5 520.5Q1057 536 1034.0 545.5Q1011 555 988 555Q966 555 946.0 548.5Q926 542 907 531L909 533L660 286Q645 282 625 282Q594 282 566 294L905 630Q887 671 847.5 694.0Q808 717 764 717Q718 717 679 692Q697 710 720.5 730.5Q744 751 770.5 768.0Q797 785 825.0 796.5Q853 808 881 808Q902 808 923.5 798.5Q945 789 963.0 773.0Q981 757 992.0 736.5Q1003 716 1003 694Q1003 687 1001.5 679.5Q1000 672 996 666Q1008 673 1024.5 676.0Q1041 679 1055 679Q1082 679 1111.5 666.0Q1141 653 1165.5 632.0Q1190 611 1205.5 584.0Q1221 557 1221 529Q1221 514 1216.0 497.0Q1211 480 1200 469Q1205 470 1211.0 470.0Q1217 470 1222 470Q1258 470 1290.5 458.0Q1323 446 1347.5 424.0Q1372 402 1387.0 371.0Q1402 340 1402 303Q1402 286 1398.5 266.5Q1395 247 1387 232Q1412 230 1437.5 216.0Q1463 202 1483.0 181.0Q1503 160 1515.5 134.0Q1528 108 1528 82ZM2176 245Q2158 237 2134.0 233.0Q2110 229 2090 232L2091 228L1964 357Q1954 369 1954 382Q1954 396 1964.5 407.0Q1975 418 1990 418Q2005 418 2016 407ZM1979 -11Q1958 -17 1936 -17Q1922 -17 1907.5 -14.5Q1893 -12 1879 -7L1760 126Q1751 135 1751 149Q1751 163 1761.5 174.5Q1772 186 1786 186Q1801 186 1813 174ZM1735 -169Q1719 -173 1699 -173Q1671 -173 1652.0 -166.0Q1633 -159 1617.5 -147.0Q1602 -135 1587.0 -118.0Q1572 -101 1553 -81Q1543 -69 1543 -56Q1543 -41 1553.5 -30.5Q1564 -20 1579 -20Q1594 -20 1605 -31ZM1373 -182Q1402 -205 1438.0 -216.5Q1474 -228 1511 -228Q1546 -228 1579 -219Q1553 -256 1520.5 -271.0Q1488 -286 1443 -286Q1370 -286 1321 -238Q1336 -226 1348.0 -211.0Q1360 -196 1373 -182ZM714 1379Q678 1334 648.5 1280.0Q619 1226 597.0 1167.5Q575 1109 563.0 1048.5Q551 988 551 930Q551 856 571.5 787.0Q592 718 634 656Q605 631 574.0 606.5Q543 582 516 555Q462 629 432.5 717.5Q403 806 403 897Q403 972 425.5 1045.5Q448 1119 488.5 1183.5Q529 1248 586.0 1300.0Q643 1352 711 1384ZM2291 596Q2274 573 2255.0 551.5Q2236 530 2215 510Q2104 607 1994.5 703.0Q1885 799 1774 896Q1725 938 1677.5 981.5Q1630 1025 1580 1067Q1565 1080 1550.0 1087.0Q1535 1094 1514 1094Q1509 1094 1505.0 1094.0Q1501 1094 1496 1092Q1481 1088 1456.0 1079.5Q1431 1071 1401.5 1060.5Q1372 1050 1341.0 1039.0Q1310 1028 1282.0 1019.0Q1254 1010 1233.0 1004.0Q1212 998 1202 998Q1170 998 1142.0 1012.0Q1114 1026 1092.5 1049.0Q1071 1072 1058.5 1101.5Q1046 1131 1046 1162Q1046 1200 1067.0 1232.0Q1088 1264 1123 1281Q1125 1282 1132.5 1285.5Q1140 1289 1148.0 1292.5Q1156 1296 1163.0 1299.0Q1170 1302 1172 1302Q1147 1284 1128.0 1258.0Q1109 1232 1109 1200Q1109 1173 1122.5 1151.5Q1136 1130 1156.5 1114.5Q1177 1099 1202.5 1090.5Q1228 1082 1252 1082Q1297 1082 1349.0 1095.0Q1401 1108 1444 1119Q1462 1124 1482.5 1133.5Q1503 1143 1523.0 1152.5Q1543 1162 1563.5 1169.0Q1584 1176 1602 1176Q1619 1176 1633 1166Q1650 1154 1667.0 1140.0Q1684 1126 1701 1112Q1741 1079 1780.0 1046.0Q1819 1013 1859 979Q1969 885 2077.0 790.0Q2185 695 2291 596Z" style="fill:#d67d00;stroke:none" transform="scale(1,-1) translate(0,-256)" /></svg>