<?xml version="1.0" encoding="utf-8" ?>
<svg baseProfile="full" height="256" version="1.1" width="256" xmlns="http://www.w3.org/2000/svg" xmlns:ev="http://www.w3.org/2001/xml-events" xmlns:xlink="http://www.w3.org/1999/xlink"><defs /><path d="M1546 1031Q1513 1031 1484.0 1043.5Q1455 1056 1433.0 1078.0Q1411 1100 1398.5 1129.0Q1386 1158 1386 1191Q1386 1224 1398.5 1253.0Q1411 1282 1433.0 1304.0Q1455 1326 1484.0 1338.5Q1513 1351 1546 1351Q1579 1351 1608.5 1338.5Q1638 1326 1659.5 1304.5Q1681 1283 1693.5 1253.5Q1706 1224 1706 1191Q1706 1158 1693.5 1129.0Q1681 1100 1659.0 1078.0Q1637 1056 1608.0 1043.5Q1579 1031 1546 1031Z" style="fill:#44911b;stroke:none" transform="scale(1,-1) translate(0,-256)" /></svg>