<?xml version="1.0" encoding="utf-8" ?>
<svg baseProfile="full" height="256" version="1.1" width="256" xmlns="http://www.w3.org/2000/svg" xmlns:ev="http://www.w3.org/2001/xml-events" xmlns:xlink="http://www.w3.org/1999/xlink"><defs /><path d="M2271 1411Q2271 1390 2256 1372L1479 465V-61H1711Q1737 -61 1760.5 -71.0Q1784 -81 1801.5 -98.0Q1819 -115 1829.0 -138.0Q1839 -161 1839 -188V-254H976V-188Q976 -162 986.0 -139.0Q996 -116 1013.0 -98.5Q1030 -81 1053.5 -71.0Q1077 -61 1103 -61H1335V465L558 1372Q544 1389 544 1411Q544 1436 561.5 1453.5Q579 1471 604 1471H2210Q2235 1471 2253.0 1453.5Q2271 1436 2271 1411Z" style="fill:#aeddff;stroke:none" transform="scale(1,-1) translate(0,-256)" /></svg>