<?xml version="1.0" encoding="utf-8" ?>
<svg baseProfile="full" height="256" version="1.1" width="256" xmlns="http://www.w3.org/2000/svg" xmlns:ev="http://www.w3.org/2001/xml-events" xmlns:xlink="http://www.w3.org/1999/xlink"><defs /><path d="M1529 988Q1551 988 1567.0 973.0Q1583 958 1583 935Q1583 912 1567.5 896.5Q1552 881 1529 881H1387V538Q1387 516 1371.0 500.0Q1355 484 1333 484Q1310 484 1294.5 499.5Q1279 515 1279 538V881H1136Q1113 881 1097.5 896.5Q1082 912 1082 935Q1082 958 1098.0 973.0Q1114 988 1136 988ZM2207 935V538Q2207 516 2191.0 500.0Q2175 484 2153 484Q2130 484 2114.5 499.5Q2099 515 2099 538V804L1979 684Q1971 676 1961.0 672.5Q1951 669 1940 669Q1917 669 1902 684L1783 804V538Q1783 516 1767.0 500.0Q1751 484 1729 484Q1706 484 1690.5 499.5Q1675 515 1675 538V935Q1675 958 1690.5 973.0Q1706 988 1729 988Q1752 988 1767 973L1940 798L2115 973Q2130 988 2153 988Q2175 988 2191.0 972.5Q2207 957 2207 935ZM836 984Q858 984 877.0 973.5Q896 963 905 943L1080 560Q1085 548 1085 537Q1085 515 1069.0 499.5Q1053 484 1031 484Q1013 484 1000.5 494.0Q988 504 979.5 518.5Q971 533 965.0 549.5Q959 566 953 579H719Q713 566 707.0 549.5Q701 533 693.0 518.5Q685 504 672.5 494.0Q660 484 642 484Q619 484 603.0 499.5Q587 515 587 538Q587 548 592 560L768 943Q777 963 795.5 973.5Q814 984 836 984ZM836 834 769 687H904Z" style="fill:#ffffff;stroke:none" transform="scale(1,-1) translate(0,-256)" /></svg>