<?xml version="1.0" encoding="utf-8" ?>
<svg baseProfile="full" height="256" version="1.1" width="256" xmlns="http://www.w3.org/2000/svg" xmlns:ev="http://www.w3.org/2001/xml-events" xmlns:xlink="http://www.w3.org/1999/xlink"><defs /><path d="M399 1112Q399 1142 422 1163L1019 1707Q1040 1725 1065 1725Q1094 1725 1114.0 1705.0Q1134 1685 1134 1656V1395Q1134 1376 1147.5 1362.5Q1161 1349 1180 1349H2320Q2338 1349 2353.5 1342.5Q2369 1336 2380.5 1324.5Q2392 1313 2399.0 1297.5Q2406 1282 2406 1264V961Q2406 943 2399.0 927.5Q2392 912 2380.5 900.5Q2369 889 2353.5 882.5Q2338 876 2320 876H1180Q1161 876 1147.5 862.5Q1134 849 1134 830V569Q1134 540 1114.0 520.0Q1094 500 1065 500Q1038 500 1019 518L422 1062Q399 1083 399 1112ZM1549 380Q1579 380 1600.0 359.0Q1621 338 1621 308V-209Q1621 -239 1599.5 -259.5Q1578 -280 1549 -280Q1531 -280 1515.0 -271.5Q1499 -263 1489 -248L1281 69V-208Q1281 -237 1260.0 -258.5Q1239 -280 1210 -280Q1180 -280 1159.0 -259.0Q1138 -238 1138 -208V309Q1138 339 1159.5 359.5Q1181 380 1210 380Q1248 380 1269 348L1477 31V308Q1477 338 1498.0 359.0Q1519 380 1549 380ZM1789 373H1971Q2010 373 2044.0 358.5Q2078 344 2103.5 318.5Q2129 293 2143.5 259.0Q2158 225 2158 186V-100Q2158 -139 2143.5 -173.0Q2129 -207 2103.5 -232.5Q2078 -258 2044.0 -272.5Q2010 -287 1971 -287H1789Q1759 -287 1738.0 -266.0Q1717 -245 1717 -215V301Q1717 331 1738.0 352.0Q1759 373 1789 373ZM1971 -144Q1989 -144 2002.0 -131.0Q2015 -118 2015 -100V186Q2015 204 2002.0 217.0Q1989 230 1971 230H1861V-144ZM1031 302Q1031 331 1009.5 352.5Q988 374 959 374H720Q691 374 669.5 352.5Q648 331 648 302V-215Q648 -244 669.5 -265.5Q691 -287 720 -287H959Q989 -287 1010.0 -266.0Q1031 -245 1031 -215Q1031 -186 1009.5 -165.0Q988 -144 959 -144H791V-29H959Q988 -29 1009.5 -7.5Q1031 14 1031 43Q1031 72 1009.5 93.5Q988 115 959 115H791V230H959Q988 230 1009.5 251.5Q1031 273 1031 302Z" style="fill:#635994;stroke:none" transform="scale(1,-1) translate(0,-256)" /></svg>