<?xml version="1.0" encoding="utf-8" ?>
<svg baseProfile="full" height="256" version="1.1" width="256" xmlns="http://www.w3.org/2000/svg" xmlns:ev="http://www.w3.org/2001/xml-events" xmlns:xlink="http://www.w3.org/1999/xlink"><defs /><path d="M407 997Q407 1005 412 1010Q430 1028 445.5 1044.0Q461 1060 477.5 1072.0Q494 1084 514.0 1091.5Q534 1099 560 1099Q589 1099 615.5 1088.0Q642 1077 662 1057L941 777Q961 757 972.5 730.5Q984 704 984 675Q984 649 976.5 629.5Q969 610 956.5 593.0Q944 576 928.0 560.5Q912 545 895 528Q890 523 882 523Q875 523 870 528L412 985Q407 990 407 997Z" style="fill:#cdc4d6;stroke:none" transform="scale(1,-1) translate(0,-256)" /></svg>