<?xml version="1.0" encoding="utf-8" ?>
<svg baseProfile="full" height="256" version="1.1" width="256" xmlns="http://www.w3.org/2000/svg" xmlns:ev="http://www.w3.org/2001/xml-events" xmlns:xlink="http://www.w3.org/1999/xlink"><defs /><path d="M1174 1647H1178L1408 1623Q1422 1621 1431.0 1611.0Q1440 1601 1440 1587Q1440 1572 1430 1562L1234 1366Q1229 1361 1225.0 1349.5Q1221 1338 1221 1330Q1221 1319 1225.5 1310.5Q1230 1302 1238 1294L1378 1154Q1388 1144 1388 1128Q1388 1113 1378 1103L1022 747Q1011 736 996 736Q981 736 970.5 747.0Q960 758 950 768L723 827L653 1065Q645 1074 637.5 1082.0Q630 1090 630 1103Q630 1117 641 1128L1149 1637Q1154 1642 1161.0 1644.5Q1168 1647 1174 1647Z" style="fill:#b4acbc;stroke:none" transform="scale(1,-1) translate(0,-256)" /></svg>