<?xml version="1.0" encoding="utf-8" ?>
<svg baseProfile="full" height="256" version="1.1" width="256" xmlns="http://www.w3.org/2000/svg" xmlns:ev="http://www.w3.org/2001/xml-events" xmlns:xlink="http://www.w3.org/1999/xlink"><defs /><path d="M903 1168Q903 1191 918.5 1206.5Q934 1222 957 1222L1481 1219Q1504 1219 1519.5 1203.5Q1535 1188 1535 1165Q1535 1143 1519 1127L1381 990Q1376 985 1376 976Q1376 963 1385 956Q1385 956 1407.0 933.5Q1429 911 1465.0 875.0Q1501 839 1547.5 792.5Q1594 746 1643.5 696.5Q1693 647 1741.0 598.5Q1789 550 1829.0 510.5Q1869 471 1896.5 443.5Q1924 416 1931 409Q1952 388 1952 358Q1952 329 1931 308L1817 194Q1795 172 1766 172Q1752 172 1739.5 178.0Q1727 184 1716 194L1170 739Q1160 749 1148 749Q1143 749 1131.5 740.0Q1120 731 1105.0 716.5Q1090 702 1073.0 685.0Q1056 668 1041.0 652.0Q1026 636 1014.5 623.5Q1003 611 998 606Q982 590 960 590Q937 590 921.5 605.5Q906 621 906 644Z" style="fill:#ffffff;stroke:none" transform="scale(1,-1) translate(0,-256)" /></svg>