<?xml version="1.0" encoding="utf-8" ?>
<svg baseProfile="full" height="256" version="1.1" width="256" xmlns="http://www.w3.org/2000/svg" xmlns:ev="http://www.w3.org/2001/xml-events" xmlns:xlink="http://www.w3.org/1999/xlink"><defs /><path d="M400 833V1006L1314 1121Q1337 1124 1360.0 1125.0Q1383 1126 1406 1126L1470 989L1406 842ZM1040 487Q1029 487 1020 498L965 569Q959 576 959 589Q959 594 960.5 599.5Q962 605 965 608L1020 666Q1026 672 1034 672Q1046 672 1054 663L1113 591Q1120 583 1120 570Q1120 558 1113 551Q1108 546 1098.5 535.5Q1089 525 1078.5 514.5Q1068 504 1057.5 495.5Q1047 487 1040 487ZM1406 431 1264 454Q1240 458 1224.5 478.0Q1209 498 1209 521V603Q1209 623 1223.0 639.5Q1237 656 1258 656Q1294 656 1332.0 651.0Q1370 646 1406 643L1483 528ZM524 567Q517 567 511 575Q508 581 501.0 589.5Q494 598 487.5 608.0Q481 618 476.0 628.5Q471 639 471 647Q471 654 476 661Q478 664 483.5 673.0Q489 682 496.0 691.5Q503 701 509.5 708.0Q516 715 521 715Q527 715 533 707Q536 702 543.0 693.0Q550 684 557.0 673.5Q564 663 569.5 652.5Q575 642 575 635Q575 627 570 620Q567 617 561.5 608.0Q556 599 549.0 590.0Q542 581 535.0 574.0Q528 567 524 567ZM630 596V661Q630 674 637.5 688.5Q645 703 660 703Q705 703 752.5 698.0Q800 693 845 689Q864 687 875.0 669.5Q886 652 886 635V562Q886 547 877.0 532.0Q868 517 851 517Q839 517 813.5 520.5Q788 524 759.5 528.5Q731 533 705.0 538.0Q679 543 664 545Q647 547 638.5 564.0Q630 581 630 596Z" style="fill:#ffb02e;stroke:none" transform="scale(1,-1) translate(0,-256)" /></svg>