<?xml version="1.0" encoding="utf-8" ?>
<svg baseProfile="full" height="256" version="1.1" width="256" xmlns="http://www.w3.org/2000/svg" xmlns:ev="http://www.w3.org/2001/xml-events" xmlns:xlink="http://www.w3.org/1999/xlink"><defs /><path d="M1421 842H1406V1126Q1429 1126 1452.0 1125.0Q1475 1124 1498 1121L2412 1006V863ZM1772 487Q1765 487 1754.5 495.5Q1744 504 1733.0 514.5Q1722 525 1712.5 535.5Q1703 546 1699 551Q1691 559 1691 571Q1691 582 1699 592L1758 664Q1765 673 1777 673Q1785 673 1792 666L1847 608Q1853 600 1853 590Q1853 577 1847 570L1792 499Q1783 487 1772 487ZM1603 603V521Q1603 498 1587.0 478.0Q1571 458 1548 454L1406 431V643Q1442 646 1480.0 651.0Q1518 656 1554 656Q1575 656 1589.0 639.5Q1603 623 1603 603ZM2288 567Q2283 567 2276.5 574.0Q2270 581 2263.0 590.0Q2256 599 2250.5 607.5Q2245 616 2242 619Q2237 626 2237 634Q2237 642 2242.5 652.5Q2248 663 2255.0 673.5Q2262 684 2269.0 693.0Q2276 702 2279 707Q2284 714 2291 714Q2296 714 2302.5 707.0Q2309 700 2315.5 691.0Q2322 682 2327.5 673.0Q2333 664 2336 661Q2340 656 2340 647Q2340 639 2335.5 628.5Q2331 618 2324.5 608.0Q2318 598 2311.5 589.5Q2305 581 2301 575Q2295 567 2288 567ZM2182 660V595Q2182 581 2173.5 563.5Q2165 546 2148 544Q2133 542 2107.0 537.5Q2081 533 2053.0 528.5Q2025 524 2000.0 520.5Q1975 517 1963 517Q1945 517 1936.0 532.0Q1927 547 1927 562V634Q1927 651 1938.0 668.5Q1949 686 1968 688Q2013 692 2059.5 697.0Q2106 702 2151 702Q2167 702 2174.5 688.0Q2182 674 2182 660Z" style="fill:#fcd53f;stroke:none" transform="scale(1,-1) translate(0,-256)" /></svg>