<?xml version="1.0" encoding="utf-8" ?>
<svg baseProfile="full" height="256" version="1.1" width="256" xmlns="http://www.w3.org/2000/svg" xmlns:ev="http://www.w3.org/2001/xml-events" xmlns:xlink="http://www.w3.org/1999/xlink"><defs /><path d="M1776 1508H2257Q2286 1508 2313.5 1495.0Q2341 1482 2362.0 1460.5Q2383 1439 2396.0 1411.0Q2409 1383 2409 1354Q2409 1328 2390.5 1310.5Q2372 1293 2346 1293H1762Q1763 1296 1762.0 1306.0Q1761 1316 1760.0 1327.5Q1759 1339 1757.5 1349.0Q1756 1359 1755 1364Q1743 1426 1710.5 1479.0Q1678 1532 1631.5 1570.5Q1585 1609 1527.0 1631.0Q1469 1653 1405 1653Q1331 1653 1266.5 1624.5Q1202 1596 1153.5 1547.0Q1105 1498 1077.0 1433.0Q1049 1368 1049 1295L1048 1293H464Q438 1293 419.5 1310.5Q401 1328 401 1355Q401 1384 413.5 1411.5Q426 1439 447.0 1460.5Q468 1482 495.5 1495.0Q523 1508 552 1508H1033Q1061 1558 1101.0 1598.5Q1141 1639 1189.5 1667.0Q1238 1695 1292.5 1710.0Q1347 1725 1405 1725Q1462 1725 1517.0 1710.0Q1572 1695 1620.0 1667.0Q1668 1639 1708.0 1598.5Q1748 1558 1776 1508ZM1513 1438Q1499 1438 1488.5 1427.0Q1478 1416 1478 1402V1294H1334V1402Q1334 1418 1323.5 1428.0Q1313 1438 1297 1438Q1283 1438 1272.5 1427.0Q1262 1416 1262 1402V1114Q1262 1098 1272.5 1088.0Q1283 1078 1299 1078Q1313 1078 1323.5 1089.0Q1334 1100 1334 1114V1221H1478V1114Q1478 1098 1488.5 1088.0Q1499 1078 1515 1078Q1529 1078 1539.5 1089.0Q1550 1100 1550 1114V1402Q1550 1418 1539.5 1428.0Q1529 1438 1513 1438ZM975 -287V-260Q975 -244 981.5 -234.5Q988 -225 998.5 -221.0Q1009 -217 1022.0 -216.0Q1035 -215 1047 -215Q1047 -204 1047.0 -191.5Q1047 -179 1050.5 -168.5Q1054 -158 1062.5 -151.0Q1071 -144 1087 -144H1725Q1741 -144 1749.5 -151.0Q1758 -158 1761.5 -168.5Q1765 -179 1765.0 -191.5Q1765 -204 1765 -215Q1777 -215 1789.5 -216.0Q1802 -217 1812.5 -221.0Q1823 -225 1830.0 -234.5Q1837 -244 1837 -260V-287ZM1726 406V408Q1675 493 1590.5 541.5Q1506 590 1407 590Q1303 590 1223.0 542.0Q1143 494 1088 408Q1083 400 1083 392Q1083 378 1092.0 369.0Q1101 360 1115 360H1697Q1711 360 1720.0 369.0Q1729 378 1729 392Q1729 402 1726 406Z" style="fill:#f8312f;stroke:none" transform="scale(1,-1) translate(0,-256)" /></svg>