<?xml version="1.0" encoding="utf-8" ?>
<svg baseProfile="full" height="256" version="1.1" width="256" xmlns="http://www.w3.org/2000/svg" xmlns:ev="http://www.w3.org/2001/xml-events" xmlns:xlink="http://www.w3.org/1999/xlink"><defs /><path d="M2268 1255Q2268 1210 2258.0 1171.0Q2248 1132 2231 1090Q2225 1076 2225 1062Q2225 1038 2240 1019Q2254 999 2269.0 979.5Q2284 960 2298 939Q2355 848 2383.5 746.5Q2412 645 2412 539Q2412 502 2408.5 465.0Q2405 428 2398 392Q2395 393 2391 393Q2383 393 2379.5 391.5Q2376 390 2369 392Q2366 390 2345.0 375.5Q2324 361 2300.5 344.5Q2277 328 2257.5 315.0Q2238 302 2238 302L1393 15L572 302Q570 302 549.5 315.0Q529 328 504.0 343.5Q479 359 456.5 373.0Q434 387 430 390L414 395Q406 430 403.0 466.5Q400 503 400 539Q400 645 429.0 746.5Q458 848 514 939Q527 960 542.0 979.5Q557 999 571 1019Q579 1030 583.0 1039.5Q587 1049 587 1063Q587 1076 581 1090Q563 1133 553.0 1174.5Q543 1216 543 1263Q543 1344 575.0 1415.0Q607 1486 661.5 1539.0Q716 1592 788.0 1622.5Q860 1653 940 1653Q998 1653 1053.0 1636.5Q1108 1620 1155.0 1589.5Q1202 1559 1239.0 1515.5Q1276 1472 1300 1419Q1312 1392 1317.5 1366.5Q1323 1341 1330 1313Q1335 1294 1352 1294H1459Q1476 1294 1481 1313Q1488 1341 1494.0 1367.0Q1500 1393 1512 1419Q1536 1472 1573.0 1515.5Q1610 1559 1657.0 1589.5Q1704 1620 1758.5 1636.5Q1813 1653 1872 1653Q1954 1653 2026.5 1621.5Q2099 1590 2152.5 1536.0Q2206 1482 2237.0 1409.5Q2268 1337 2268 1255Z" style="fill:#00d26a;stroke:none" transform="scale(1,-1) translate(0,-256)" /></svg>