<?xml version="1.0" encoding="utf-8" ?>
<svg baseProfile="full" height="256" version="1.1" width="256" xmlns="http://www.w3.org/2000/svg" xmlns:ev="http://www.w3.org/2001/xml-events" xmlns:xlink="http://www.w3.org/1999/xlink"><defs /><path d="M1118 1258Q1118 1221 1104.0 1188.0Q1090 1155 1065.5 1130.5Q1041 1106 1008.5 1092.0Q976 1078 939 1078Q902 1078 869.0 1092.0Q836 1106 811.5 1130.5Q787 1155 773.0 1188.0Q759 1221 759 1258Q759 1295 773.0 1328.0Q787 1361 811.5 1385.5Q836 1410 869.0 1424.0Q902 1438 939 1438Q976 1438 1008.5 1424.0Q1041 1410 1065.5 1385.5Q1090 1361 1104.0 1328.0Q1118 1295 1118 1258ZM2053 1258Q2053 1221 2039.0 1188.0Q2025 1155 2000.5 1130.5Q1976 1106 1943.0 1092.0Q1910 1078 1873 1078Q1836 1078 1803.0 1092.0Q1770 1106 1745.5 1130.5Q1721 1155 1707.0 1188.0Q1693 1221 1693 1258Q1693 1295 1707.0 1328.0Q1721 1361 1745.5 1385.5Q1770 1410 1803.0 1424.0Q1836 1438 1873 1438Q1910 1438 1943.0 1424.0Q1976 1410 2000.5 1385.5Q2025 1361 2039.0 1328.0Q2053 1295 2053 1258ZM1514 863Q1529 863 1539.5 873.5Q1550 884 1550 899Q1550 913 1539.0 923.5Q1528 934 1514 934Q1500 934 1489.0 923.5Q1478 913 1478 899Q1478 884 1488.5 873.5Q1499 863 1514 863ZM1334 899Q1334 884 1323.5 873.5Q1313 863 1298 863Q1283 863 1272.5 873.5Q1262 884 1262 899Q1262 913 1273.0 923.5Q1284 934 1298 934Q1312 934 1323.0 923.5Q1334 913 1334 899Z" style="fill:#1c1c1c;stroke:none" transform="scale(1,-1) translate(0,-256)" /></svg>