<?xml version="1.0" encoding="utf-8" ?>
<svg baseProfile="full" height="256" version="1.1" width="256" xmlns="http://www.w3.org/2000/svg" xmlns:ev="http://www.w3.org/2001/xml-events" xmlns:xlink="http://www.w3.org/1999/xlink"><defs /><path d="M1190 1258Q1190 1206 1170.5 1160.0Q1151 1114 1117.0 1080.0Q1083 1046 1037.0 1026.0Q991 1006 939 1006Q887 1006 841.0 1026.0Q795 1046 761.0 1080.0Q727 1114 707.0 1160.0Q687 1206 687 1258Q687 1310 707.0 1356.0Q727 1402 761.0 1436.0Q795 1470 841.0 1490.0Q887 1510 939 1510Q991 1510 1037.0 1490.0Q1083 1470 1117.0 1436.0Q1151 1402 1170.5 1356.0Q1190 1310 1190 1258ZM2125 1258Q2125 1206 2105.0 1160.0Q2085 1114 2051.0 1080.0Q2017 1046 1971.0 1026.0Q1925 1006 1873 1006Q1821 1006 1775.0 1026.0Q1729 1046 1695.0 1080.0Q1661 1114 1641.5 1160.0Q1622 1206 1622 1258Q1622 1310 1641.5 1356.0Q1661 1402 1695.0 1436.0Q1729 1470 1775.0 1490.0Q1821 1510 1873 1510Q1925 1510 1971.0 1490.0Q2017 1470 2051.0 1436.0Q2085 1402 2105.0 1356.0Q2125 1310 2125 1258Z" style="fill:#fff478;stroke:none" transform="scale(1,-1) translate(0,-256)" /></svg>