<?xml version="1.0" encoding="utf-8" ?>
<svg baseProfile="full" height="256" version="1.1" width="256" xmlns="http://www.w3.org/2000/svg" xmlns:ev="http://www.w3.org/2001/xml-events" xmlns:xlink="http://www.w3.org/1999/xlink"><defs /><path d="M1406 1107Q1361 1107 1322.0 1124.0Q1283 1141 1253.5 1170.5Q1224 1200 1207.0 1239.0Q1190 1278 1190 1323Q1190 1368 1207.0 1407.0Q1224 1446 1253.5 1475.0Q1283 1504 1322.0 1521.0Q1361 1538 1406 1538Q1451 1538 1490.0 1521.0Q1529 1504 1558.5 1475.0Q1588 1446 1605.0 1407.0Q1622 1368 1622 1323Q1622 1278 1605.0 1239.0Q1588 1200 1558.5 1170.5Q1529 1141 1490.0 1124.0Q1451 1107 1406 1107Z" style="fill:#f4f4f4;stroke:none" transform="scale(1,-1) translate(0,-256)" /></svg>