<?xml version="1.0" encoding="utf-8" ?>
<svg baseProfile="full" height="256" version="1.1" width="256" xmlns="http://www.w3.org/2000/svg" xmlns:ev="http://www.w3.org/2001/xml-events" xmlns:xlink="http://www.w3.org/1999/xlink"><defs /><path d="M1490 1438Q1460 1438 1434.0 1449.0Q1408 1460 1388.5 1479.5Q1369 1499 1357.5 1525.0Q1346 1551 1346 1581Q1346 1611 1357.5 1637.0Q1369 1663 1388.5 1682.5Q1408 1702 1434.0 1713.5Q1460 1725 1490 1725Q1520 1725 1546.0 1713.5Q1572 1702 1591.5 1682.5Q1611 1663 1622.5 1637.0Q1634 1611 1634 1581Q1634 1551 1622.5 1525.0Q1611 1499 1591.5 1479.5Q1572 1460 1546.0 1449.0Q1520 1438 1490 1438Z" style="fill:#9b9b9b;stroke:none" transform="scale(1,-1) translate(0,-256)" /></svg>