<?xml version="1.0" encoding="utf-8" ?>
<svg baseProfile="full" height="256" version="1.1" width="256" xmlns="http://www.w3.org/2000/svg" xmlns:ev="http://www.w3.org/2001/xml-events" xmlns:xlink="http://www.w3.org/1999/xlink"><defs /><path d="M1634 1294Q1604 1294 1577.5 1305.0Q1551 1316 1531.5 1335.5Q1512 1355 1501.0 1381.5Q1490 1408 1490 1438Q1490 1468 1501.5 1494.0Q1513 1520 1532.5 1539.5Q1552 1559 1578.0 1570.0Q1604 1581 1634 1581Q1664 1581 1690.0 1570.0Q1716 1559 1735.5 1539.5Q1755 1520 1766.5 1494.0Q1778 1468 1778 1438Q1778 1408 1766.5 1382.0Q1755 1356 1735.5 1336.5Q1716 1317 1690.0 1305.5Q1664 1294 1634 1294Z" style="fill:#d3d3d3;stroke:none" transform="scale(1,-1) translate(0,-256)" /></svg>