<?xml version="1.0" encoding="utf-8" ?>
<svg baseProfile="full" height="256" version="1.1" width="256" xmlns="http://www.w3.org/2000/svg" xmlns:ev="http://www.w3.org/2001/xml-events" xmlns:xlink="http://www.w3.org/1999/xlink"><defs /><path d="M2249 863Q2249 818 2258.5 773.5Q2268 729 2268 683Q2268 658 2262 634Q2255 607 2240.0 582.5Q2225 558 2206.5 534.5Q2188 511 2169.5 488.0Q2151 465 2137 441Q2123 417 2112.5 389.5Q2102 362 2091.0 334.0Q2080 306 2066.5 280.5Q2053 255 2033 236Q2013 216 1987.5 202.5Q1962 189 1935.0 178.0Q1908 167 1880.0 156.5Q1852 146 1828 132Q1803 118 1780.5 99.5Q1758 81 1735.0 63.0Q1712 45 1687.5 29.5Q1663 14 1635 7Q1622 4 1609.5 2.0Q1597 0 1583 0Q1538 0 1494.5 9.5Q1451 19 1406 19Q1361 19 1317.5 9.5Q1274 0 1229 0Q1215 0 1202.0 2.0Q1189 4 1176 7Q1147 14 1123.0 29.5Q1099 45 1076.5 63.0Q1054 81 1031.5 99.5Q1009 118 984 132Q960 146 932.0 156.5Q904 167 877.0 178.0Q850 189 824.5 202.5Q799 216 779 236Q759 256 745.5 281.5Q732 307 721.0 334.5Q710 362 699.5 389.5Q689 417 675 441Q660 466 641.5 488.5Q623 511 605.0 534.0Q587 557 572.0 581.0Q557 605 550 634Q547 647 545.0 659.5Q543 672 543 686Q543 731 552.5 774.5Q562 818 562 863Q562 908 552.5 951.5Q543 995 543 1040Q543 1069 550 1093Q557 1121 572.5 1145.5Q588 1170 606.0 1193.0Q624 1216 642.5 1238.5Q661 1261 675 1285Q689 1309 699.5 1336.5Q710 1364 721.0 1391.5Q732 1419 745.5 1444.5Q759 1470 779 1490Q798 1510 823.5 1523.5Q849 1537 877.0 1548.0Q905 1559 932.5 1569.5Q960 1580 984 1594Q1008 1608 1030.5 1626.5Q1053 1645 1076.5 1663.0Q1100 1681 1124.5 1696.5Q1149 1712 1176 1719Q1201 1725 1228 1725Q1273 1725 1317.0 1716.0Q1361 1707 1406 1707Q1451 1707 1494.5 1716.0Q1538 1725 1583 1725Q1608 1725 1634 1719Q1661 1712 1686.0 1696.5Q1711 1681 1734.0 1663.0Q1757 1645 1780.0 1626.5Q1803 1608 1827 1594Q1851 1580 1878.5 1569.5Q1906 1559 1934.0 1548.0Q1962 1537 1987.0 1523.5Q2012 1510 2032 1490Q2052 1470 2065.5 1444.5Q2079 1419 2090.0 1392.0Q2101 1365 2111.5 1337.0Q2122 1309 2136 1285Q2150 1261 2169.0 1238.0Q2188 1215 2206.0 1192.0Q2224 1169 2239.0 1144.5Q2254 1120 2261 1092Q2267 1066 2267 1041Q2267 996 2258.0 952.0Q2249 908 2249 863Z" style="fill:#f3ad61;stroke:none" transform="scale(1,-1) translate(0,-256)" /></svg>