<?xml version="1.0" encoding="utf-8" ?>
<svg baseProfile="full" height="256" version="1.1" width="256" xmlns="http://www.w3.org/2000/svg" xmlns:ev="http://www.w3.org/2001/xml-events" xmlns:xlink="http://www.w3.org/1999/xlink"><defs /><path d="M2240 563Q2240 518 2249.5 474.0Q2259 430 2259 385Q2259 360 2253 336Q2246 309 2231.0 285.0Q2216 261 2198.0 238.0Q2180 215 2161.0 192.5Q2142 170 2129 146Q2115 122 2104.5 94.5Q2094 67 2083.5 40.0Q2073 13 2059.5 -12.0Q2046 -37 2026 -57Q2005 -78 1980.0 -91.0Q1955 -104 1928.5 -114.5Q1902 -125 1875.0 -135.5Q1848 -146 1823 -160Q1799 -174 1776.5 -192.5Q1754 -211 1731.5 -229.0Q1709 -247 1685.0 -262.0Q1661 -277 1633 -284Q1620 -287 1607.5 -289.0Q1595 -291 1581 -291Q1536 -291 1493.5 -281.5Q1451 -272 1406 -272Q1361 -272 1318.0 -281.0Q1275 -290 1230 -290Q1204 -290 1179 -284Q1151 -277 1127.0 -261.5Q1103 -246 1080.0 -228.0Q1057 -210 1034.5 -192.0Q1012 -174 988 -160Q964 -146 936.5 -136.0Q909 -126 882.0 -115.0Q855 -104 830.0 -90.5Q805 -77 785 -57Q765 -37 751.5 -11.5Q738 14 727.5 41.0Q717 68 707.0 95.0Q697 122 683 146Q669 170 650.5 192.5Q632 215 614.0 237.5Q596 260 580.5 284.5Q565 309 558 336Q552 360 552 386Q552 431 561.5 474.5Q571 518 571 563Q571 608 561.5 652.0Q552 696 552 741Q552 766 558 790Q565 818 580.5 842.0Q596 866 614.0 889.0Q632 912 650.5 934.5Q669 957 683 981Q697 1005 707.0 1032.0Q717 1059 728.0 1086.0Q739 1113 752.0 1138.0Q765 1163 785 1183Q806 1204 831.0 1217.0Q856 1230 883.0 1240.5Q910 1251 937.0 1261.5Q964 1272 988 1286Q1012 1300 1034.5 1318.5Q1057 1337 1079.5 1355.0Q1102 1373 1126.5 1388.0Q1151 1403 1179 1411Q1203 1417 1229 1417Q1274 1417 1317.5 1407.5Q1361 1398 1406 1398Q1451 1398 1494.5 1407.5Q1538 1417 1583 1417Q1608 1417 1632 1411Q1659 1404 1683.5 1388.5Q1708 1373 1731.0 1355.0Q1754 1337 1776.5 1318.5Q1799 1300 1823 1286Q1847 1272 1874.0 1261.5Q1901 1251 1927.5 1240.5Q1954 1230 1979.0 1217.0Q2004 1204 2025 1183Q2046 1162 2059.0 1137.0Q2072 1112 2082.5 1085.5Q2093 1059 2103.5 1032.0Q2114 1005 2128 981Q2142 956 2160.5 934.0Q2179 912 2197.0 889.5Q2215 867 2229.5 842.5Q2244 818 2252 790Q2255 777 2257.0 764.5Q2259 752 2259 738Q2259 693 2249.5 650.5Q2240 608 2240 563Z" style="fill:#6d4534;stroke:none" transform="scale(1,-1) translate(0,-256)" /></svg>