<?xml version="1.0" encoding="utf-8" ?>
<svg baseProfile="full" height="256" version="1.1" width="256" xmlns="http://www.w3.org/2000/svg" xmlns:ev="http://www.w3.org/2001/xml-events" xmlns:xlink="http://www.w3.org/1999/xlink"><defs /><path d="M2017 1442Q2031 1442 2042.0 1431.0Q2053 1420 2053 1406V1258Q2053 1243 2042.5 1232.5Q2032 1222 2017 1222H1442Q1427 1222 1416.5 1232.5Q1406 1243 1406 1258Q1406 1273 1416.5 1283.5Q1427 1294 1442 1294H1550Q1546 1301 1537.5 1317.0Q1529 1333 1520.5 1350.0Q1512 1367 1505.5 1382.5Q1499 1398 1499 1406Q1499 1420 1510.0 1431.0Q1521 1442 1535 1442ZM2017 1150Q2032 1150 2042.5 1139.5Q2053 1129 2053 1114V1078Q2053 1028 2030.5 988.0Q2008 948 1972.0 920.5Q1936 893 1891.0 878.0Q1846 863 1801 863Q1755 863 1710.0 878.0Q1665 893 1629.5 920.5Q1594 948 1572.0 988.0Q1550 1028 1550 1078V1114Q1550 1129 1560.5 1139.5Q1571 1150 1586 1150ZM2069 755Q2069 741 2057 729L1515 220Q1509 214 1500 214Q1491 214 1484.5 220.5Q1478 227 1478 236V527L1124 265Q1097 244 1060 244Q1038 244 1018.5 252.5Q999 261 984.0 275.5Q969 290 960.5 309.5Q952 329 952 351Q952 377 963.5 400.0Q975 423 996 438L1443 770Q1457 781 1475.0 786.0Q1493 791 1510 791H2032Q2047 791 2058.0 780.5Q2069 770 2069 755ZM1478 49Q1478 64 1489 75L2064 625Q2076 635 2089 635Q2104 635 2114.5 624.5Q2125 614 2125 599V36Q2125 21 2114.5 10.5Q2104 0 2089 0H1514Q1491 0 1484.5 15.5Q1478 31 1478 49ZM687 575Q687 605 708.0 626.0Q729 647 759 647H822Q831 647 831 638V144H759Q729 144 708.0 165.0Q687 186 687 216ZM903 0Q873 0 852.0 21.0Q831 42 831 72V135Q831 144 840 144H1325Q1334 144 1334 135V72Q1334 42 1313.0 21.0Q1292 0 1262 0Z" style="fill:#ffffff;stroke:none" transform="scale(1,-1) translate(0,-256)" /></svg>