<?xml version="1.0" encoding="utf-8" ?>
<svg baseProfile="full" height="256" version="1.1" width="256" xmlns="http://www.w3.org/2000/svg" xmlns:ev="http://www.w3.org/2001/xml-events" xmlns:xlink="http://www.w3.org/1999/xlink"><defs /><path d="M1548 288H1264Q1234 288 1208.0 299.0Q1182 310 1162.0 329.5Q1142 349 1130.5 375.0Q1119 401 1119 431Q1119 448 1122.0 461.0Q1125 474 1131 489Q1131 490 1136.5 496.5Q1142 503 1143 504Q1161 527 1177.0 551.0Q1193 575 1208 600Q1254 678 1286.0 761.5Q1318 845 1331 935H1483Q1497 846 1528.5 763.0Q1560 680 1605 602Q1607 597 1619.5 578.5Q1632 560 1646 540Q1662 516 1681 488Q1687 473 1690.0 460.5Q1693 448 1693 431Q1693 401 1681.5 375.0Q1670 349 1650.0 329.5Q1630 310 1604.0 299.0Q1578 288 1548 288Z" style="fill:#ff822d;stroke:none" transform="scale(1,-1) translate(0,-256)" /></svg>