<?xml version="1.0" encoding="utf-8" ?>
<svg baseProfile="full" height="256" version="1.1" width="256" xmlns="http://www.w3.org/2000/svg" xmlns:ev="http://www.w3.org/2001/xml-events" xmlns:xlink="http://www.w3.org/1999/xlink"><defs /><path d="M831 899Q831 936 845.0 968.5Q859 1001 883.5 1025.5Q908 1050 941.0 1064.0Q974 1078 1011 1078Q1048 1078 1080.5 1064.0Q1113 1050 1137.5 1025.5Q1162 1001 1176.0 968.5Q1190 936 1190 899Q1190 862 1176.0 829.0Q1162 796 1137.5 771.5Q1113 747 1080.5 733.0Q1048 719 1011 719Q973 719 940.5 733.0Q908 747 883.5 771.5Q859 796 845.0 828.5Q831 861 831 899ZM1622 899Q1622 936 1636.0 968.5Q1650 1001 1674.5 1025.5Q1699 1050 1731.5 1064.0Q1764 1078 1801 1078Q1838 1078 1871.0 1064.0Q1904 1050 1928.5 1025.5Q1953 1001 1967.0 968.5Q1981 936 1981 899Q1981 861 1967.0 828.5Q1953 796 1928.5 771.5Q1904 747 1871.0 733.0Q1838 719 1801 719Q1764 719 1731.5 733.0Q1699 747 1674.5 771.5Q1650 796 1636.0 829.0Q1622 862 1622 899ZM939 1294Q1005 1294 1066.0 1273.0Q1127 1252 1177.5 1214.0Q1228 1176 1264.5 1123.0Q1301 1070 1319 1006H1493Q1511 1070 1547.5 1123.0Q1584 1176 1634.5 1214.0Q1685 1252 1746.0 1273.0Q1807 1294 1873 1294Q1939 1294 2000.5 1273.0Q2062 1252 2112.0 1214.0Q2162 1176 2199.0 1123.0Q2236 1070 2254 1006H2406Q2436 1006 2460.0 986.5Q2484 967 2484 935Q2484 903 2460.0 883.0Q2436 863 2406 863H2267Q2260 786 2226.5 720.5Q2193 655 2140.0 606.5Q2087 558 2018.0 530.5Q1949 503 1873 503Q1796 503 1727.5 530.5Q1659 558 1606.0 606.5Q1553 655 1519.5 721.0Q1486 787 1479 863H1332Q1325 787 1291.5 721.0Q1258 655 1205.0 606.5Q1152 558 1083.5 530.5Q1015 503 939 503Q862 503 793.5 530.5Q725 558 672.0 606.5Q619 655 585.5 720.5Q552 786 545 863H400Q370 863 349.0 884.0Q328 905 328 935Q328 965 349.5 985.5Q371 1006 400 1006H558Q576 1070 613.0 1123.0Q650 1176 700.0 1214.0Q750 1252 811.5 1273.0Q873 1294 939 1294ZM615 899Q615 832 640.5 773.0Q666 714 710.0 670.0Q754 626 813.0 600.5Q872 575 939 575Q1006 575 1064.5 600.5Q1123 626 1167.0 670.0Q1211 714 1236.5 773.0Q1262 832 1262 899Q1262 966 1236.5 1024.5Q1211 1083 1167.0 1127.0Q1123 1171 1064.5 1196.5Q1006 1222 939 1222Q872 1222 813.0 1196.5Q754 1171 710.0 1127.0Q666 1083 640.5 1024.5Q615 966 615 899ZM1550 899Q1550 832 1575.5 773.5Q1601 715 1645.0 671.0Q1689 627 1747.5 601.5Q1806 576 1873 576Q1940 576 1998.5 601.5Q2057 627 2101.0 671.0Q2145 715 2170.5 773.5Q2196 832 2196 899Q2196 966 2170.5 1024.5Q2145 1083 2101.0 1127.0Q2057 1171 1998.5 1196.5Q1940 1222 1873 1222Q1806 1222 1747.5 1196.5Q1689 1171 1645.0 1127.0Q1601 1083 1575.5 1024.5Q1550 966 1550 899Z" style="fill:#402a32;stroke:none" transform="scale(1,-1) translate(0,-256)" /></svg>