<?xml version="1.0" encoding="utf-8" ?>
<svg baseProfile="full" height="256" version="1.1" width="256" xmlns="http://www.w3.org/2000/svg" xmlns:ev="http://www.w3.org/2001/xml-events" xmlns:xlink="http://www.w3.org/1999/xlink"><defs /><path d="M867 1258Q843 1258 824.5 1250.0Q806 1242 789.5 1230.0Q773 1218 756.5 1204.0Q740 1190 720.0 1178.0Q700 1166 674.5 1158.0Q649 1150 615 1150Q570 1150 531.0 1167.0Q492 1184 463.0 1213.5Q434 1243 417.0 1282.0Q400 1321 400 1366Q400 1410 416.5 1448.5Q433 1487 463 1518Q543 1599 648.0 1644.0Q753 1689 867 1689Q981 1689 1086.0 1644.0Q1191 1599 1271 1518Q1301 1487 1317.5 1448.5Q1334 1410 1334 1366Q1334 1321 1317.0 1282.0Q1300 1243 1271.0 1213.5Q1242 1184 1202.5 1167.0Q1163 1150 1118 1150Q1084 1150 1058.5 1158.0Q1033 1166 1013.5 1178.0Q994 1190 977.5 1204.0Q961 1218 944.5 1230.0Q928 1242 909.5 1250.0Q891 1258 867 1258ZM1945 1258Q1969 1258 1987.5 1250.0Q2006 1242 2022.5 1230.0Q2039 1218 2055.5 1204.0Q2072 1190 2091.5 1178.0Q2111 1166 2136.5 1158.0Q2162 1150 2196 1150Q2241 1150 2280.5 1167.0Q2320 1184 2349.0 1213.5Q2378 1243 2395.0 1282.0Q2412 1321 2412 1366Q2412 1410 2395.5 1448.5Q2379 1487 2349 1518Q2269 1599 2164.0 1644.0Q2059 1689 1945 1689Q1831 1689 1726.0 1644.0Q1621 1599 1541 1518Q1511 1487 1494.5 1448.5Q1478 1410 1478 1366Q1478 1321 1495.0 1282.0Q1512 1243 1541.0 1213.5Q1570 1184 1609.0 1167.0Q1648 1150 1693 1150Q1727 1150 1752.5 1158.0Q1778 1166 1798.0 1178.0Q1818 1190 1834.5 1204.0Q1851 1218 1867.5 1230.0Q1884 1242 1902.5 1250.0Q1921 1258 1945 1258ZM1677 -144Q1723 -144 1765.5 -126.5Q1808 -109 1839.5 -78.5Q1871 -48 1890.0 -7.0Q1909 34 1909 81Q1909 140 1880.0 192.5Q1851 245 1803 278L1538 461Q1476 503 1403 503Q1327 503 1266 460L1000 270Q955 238 929.0 189.5Q903 141 903 84Q903 37 921.5 -4.5Q940 -46 971.5 -76.5Q1003 -107 1044.5 -124.5Q1086 -142 1133 -142Q1182 -142 1215.5 -127.5Q1249 -113 1277.5 -95.5Q1306 -78 1335.5 -63.5Q1365 -49 1406 -49Q1449 -49 1478.5 -64.0Q1508 -79 1535.5 -96.5Q1563 -114 1595.5 -129.0Q1628 -144 1677 -144Z" style="fill:#212121;stroke:none" transform="scale(1,-1) translate(0,-256)" /></svg>