<?xml version="1.0" encoding="utf-8" ?>
<svg baseProfile="full" height="256" version="1.1" width="256" xmlns="http://www.w3.org/2000/svg" xmlns:ev="http://www.w3.org/2001/xml-events" xmlns:xlink="http://www.w3.org/1999/xlink"><defs /><path d="M1406 1510Q1435 1510 1456.5 1488.5Q1478 1467 1478 1438Q1478 1433 1477.0 1421.5Q1476 1410 1476.5 1397.5Q1477 1385 1479.0 1375.5Q1481 1366 1487 1366H2125Q2154 1366 2175.5 1344.5Q2197 1323 2197 1294V1078Q2197 1049 2175.5 1027.5Q2154 1006 2125 1006Q2096 1006 2074.5 1027.5Q2053 1049 2053 1078V1213Q2053 1222 2044 1222H1631Q1622 1222 1622 1213V872Q1622 863 1631 863H1947Q1955 863 1964.5 874.0Q1974 885 1986.5 898.5Q1999 912 2015.0 923.5Q2031 935 2053 935Q2083 935 2104.0 913.5Q2125 892 2125 863Q2125 833 2104 812Q2086 794 2070.0 777.0Q2054 760 2036.5 747.5Q2019 735 1998.5 727.0Q1978 719 1951 719H1622Q1592 719 1565.5 730.0Q1539 741 1519.5 760.5Q1500 780 1489.0 806.5Q1478 833 1478 863V1213Q1478 1222 1469 1222H1343Q1334 1222 1334 1213Q1332 1190 1329.5 1168.5Q1327 1147 1322 1124Q1298 1023 1246.0 941.5Q1194 860 1122.0 797.0Q1050 734 962.5 688.5Q875 643 780 614Q769 611 759 611Q729 611 708.0 632.0Q687 653 687 683Q687 708 702.5 726.5Q718 745 741 753Q809 774 872.5 804.0Q936 834 991.0 874.5Q1046 915 1089.5 968.5Q1133 1022 1161 1091Q1172 1117 1181.0 1150.5Q1190 1184 1190 1213Q1190 1222 1181 1222H840Q831 1222 831 1213V1078Q831 1049 809.5 1027.5Q788 1006 759 1006Q730 1006 708.5 1027.5Q687 1049 687 1078V1294Q687 1324 708.0 1345.0Q729 1366 759 1366H1325Q1331 1366 1333.0 1375.5Q1335 1385 1335.5 1397.5Q1336 1410 1335.0 1421.5Q1334 1433 1334 1438Q1334 1467 1355.5 1488.5Q1377 1510 1406 1510ZM903 575Q873 575 852.0 554.0Q831 533 831 503Q831 474 852.5 452.5Q874 431 903 431H1325Q1334 431 1334 422V225Q1334 216 1325 216H759Q729 216 708.0 195.0Q687 174 687 144Q687 114 708.0 93.0Q729 72 759 72H2053Q2083 72 2104.0 93.0Q2125 114 2125 144Q2125 174 2104.0 195.0Q2083 216 2053 216H1487Q1478 216 1478 225V422Q1478 431 1487 431H1909Q1938 431 1959.5 452.5Q1981 474 1981 503Q1981 533 1960.0 554.0Q1939 575 1909 575Z" style="fill:#ffffff;stroke:none" transform="scale(1,-1) translate(0,-256)" /></svg>