<?xml version="1.0" encoding="utf-8" ?>
<svg baseProfile="full" height="256" version="1.1" width="256" xmlns="http://www.w3.org/2000/svg" xmlns:ev="http://www.w3.org/2001/xml-events" xmlns:xlink="http://www.w3.org/1999/xlink"><defs /><path d="M1231 1256Q1196 1256 1175.0 1266.0Q1154 1276 1142.5 1294.5Q1131 1313 1127.5 1338.0Q1124 1363 1123 1393Q1112 1393 1101.0 1401.0Q1090 1409 1090 1422Q1090 1426 1094.5 1434.5Q1099 1443 1104.5 1452.0Q1110 1461 1115.5 1469.0Q1121 1477 1123 1482V1531Q1123 1556 1132.5 1579.0Q1142 1602 1159.0 1618.5Q1176 1635 1198.0 1645.0Q1220 1655 1246 1655H1327Q1352 1655 1375.0 1645.0Q1398 1635 1414.5 1618.5Q1431 1602 1441.0 1579.0Q1451 1556 1451 1531Q1451 1530 1447.0 1516.5Q1443 1503 1438.0 1486.5Q1433 1470 1429.0 1455.5Q1425 1441 1424 1438Q1418 1416 1412.0 1394.0Q1406 1372 1400 1350Q1394 1327 1374.5 1309.5Q1355 1292 1330.5 1280.0Q1306 1268 1279.0 1262.0Q1252 1256 1231 1256Z" style="fill:#ffc83d;stroke:none" transform="scale(1,-1) translate(0,-256)" /></svg>