<?xml version="1.0" encoding="utf-8" ?>
<svg baseProfile="full" height="256" version="1.1" width="256" xmlns="http://www.w3.org/2000/svg" xmlns:ev="http://www.w3.org/2001/xml-events" xmlns:xlink="http://www.w3.org/1999/xlink"><defs /><path d="M1357 1116Q1357 1107 1352.5 1086.0Q1348 1065 1340.0 1039.5Q1332 1014 1323.0 986.0Q1314 958 1304.0 935.5Q1294 913 1285.5 898.0Q1277 883 1271 883Q1269 883 1249.5 892.0Q1230 901 1207.5 913.0Q1185 925 1166.5 937.0Q1148 949 1148 954Q1148 957 1149 958Q1162 982 1173.0 1006.5Q1184 1031 1192 1057Q1199 1078 1207.5 1098.5Q1216 1119 1221 1141Q1226 1166 1240.5 1179.5Q1255 1193 1281 1193Q1312 1193 1334.5 1170.0Q1357 1147 1357 1116Z" style="fill:#f95725;stroke:none" transform="scale(1,-1) translate(0,-256)" /></svg>