<?xml version="1.0" encoding="utf-8" ?>
<svg baseProfile="full" height="256" version="1.1" width="256" xmlns="http://www.w3.org/2000/svg" xmlns:ev="http://www.w3.org/2001/xml-events" xmlns:xlink="http://www.w3.org/1999/xlink"><defs /><path d="M1340 1516Q1338 1534 1327.5 1546.0Q1317 1558 1301.5 1565.0Q1286 1572 1268.5 1574.5Q1251 1577 1236 1577Q1213 1577 1192.5 1580.0Q1172 1583 1156.5 1591.5Q1141 1600 1132.0 1616.0Q1123 1632 1123 1659Q1123 1688 1141.0 1706.0Q1159 1724 1188 1724Q1213 1724 1234.5 1717.5Q1256 1711 1277 1711Q1302 1711 1326.5 1718.5Q1351 1726 1377 1726Q1440 1726 1478.0 1692.5Q1516 1659 1516 1593Q1516 1581 1514.0 1551.0Q1512 1521 1505.0 1489.5Q1498 1458 1485.0 1434.0Q1472 1410 1451 1410Q1466 1410 1477.0 1401.5Q1488 1393 1488 1376Q1488 1363 1482.5 1356.0Q1477 1349 1468.5 1346.0Q1460 1343 1449.5 1342.5Q1439 1342 1430 1342Q1409 1342 1399.0 1351.5Q1389 1361 1385.5 1375.0Q1382 1389 1382.5 1406.0Q1383 1423 1382 1438Q1390 1451 1390 1466Q1390 1487 1375.0 1501.0Q1360 1515 1340 1516Z" style="fill:#f1a11e;stroke:none" transform="scale(1,-1) translate(0,-256)" /></svg>