<?xml version="1.0" encoding="utf-8" ?>
<svg baseProfile="full" height="256" version="1.1" width="256" xmlns="http://www.w3.org/2000/svg" xmlns:ev="http://www.w3.org/2001/xml-events" xmlns:xlink="http://www.w3.org/1999/xlink"><defs /><path d="M1430 1229Q1450 1229 1469 1218Q1477 1213 1493.5 1202.0Q1510 1191 1530.0 1176.0Q1550 1161 1571.0 1144.5Q1592 1128 1609.5 1112.0Q1627 1096 1638.5 1083.5Q1650 1071 1650 1064Q1650 1060 1634.5 1044.5Q1619 1029 1600.0 1011.5Q1581 994 1564.0 980.0Q1547 966 1544 966Q1540 966 1535 971Q1501 1006 1467.0 1035.5Q1433 1065 1391 1090Q1374 1101 1363.5 1117.5Q1353 1134 1353 1155Q1353 1186 1376.5 1207.5Q1400 1229 1430 1229Z" style="fill:#ff8101;stroke:none" transform="scale(1,-1) translate(0,-256)" /></svg>