<?xml version="1.0" encoding="utf-8" ?>
<svg baseProfile="full" height="256" version="1.1" width="256" xmlns="http://www.w3.org/2000/svg" xmlns:ev="http://www.w3.org/2001/xml-events" xmlns:xlink="http://www.w3.org/1999/xlink"><defs /><path d="M1711 672Q1708 681 1705.5 690.0Q1703 699 1700 708Q1680 762 1651.0 818.5Q1622 875 1584.0 926.5Q1546 978 1500.5 1022.0Q1455 1066 1403 1096Q1386 1106 1375.5 1121.5Q1365 1137 1365 1157Q1365 1186 1384.5 1205.0Q1404 1224 1432 1224Q1449 1224 1463 1217Q1485 1206 1505.5 1191.0Q1526 1176 1545 1161Q1647 1080 1714.5 977.0Q1782 874 1827 753Q1835 730 1843.5 708.0Q1852 686 1861 663V662Q1865 648 1870.5 634.5Q1876 621 1876 606Q1876 591 1864.0 579.5Q1852 568 1835.0 560.0Q1818 552 1800.0 548.0Q1782 544 1770 544Q1753 544 1739.5 550.0Q1726 556 1729 577Q1723 582 1716.5 586.0Q1710 590 1704.0 595.0Q1698 600 1694.0 606.0Q1690 612 1690 621Q1690 635 1696.5 648.0Q1703 661 1711 672ZM1337 1090Q1337 1117 1317.5 1136.5Q1298 1156 1271 1156Q1245 1156 1226.5 1139.0Q1208 1122 1205 1097L1204 1096Q1205 1090 1202.5 1081.5Q1200 1073 1198 1067Q1185 1016 1162.0 969.0Q1139 922 1108.0 879.0Q1077 836 1040.0 798.5Q1003 761 962 729Q944 734 929 734Q913 734 905.0 730.0Q897 726 892.5 718.5Q888 711 886.0 700.5Q884 690 880 678Q858 672 858 649Q858 636 867.0 619.0Q876 602 890.0 587.0Q904 572 919.5 561.5Q935 551 949 551Q958 551 972.5 561.0Q987 571 1002.0 584.0Q1017 597 1029.5 609.5Q1042 622 1047 627Q1061 640 1076.0 651.5Q1091 663 1105 676Q1162 729 1208.0 790.5Q1254 852 1287 922Q1294 938 1303.0 959.5Q1312 981 1319.5 1004.5Q1327 1028 1332.0 1050.0Q1337 1072 1337 1090Z" style="fill:#ffc83d;stroke:none" transform="scale(1,-1) translate(0,-256)" /></svg>