<?xml version="1.0" encoding="utf-8" ?>
<svg baseProfile="full" height="256" version="1.1" width="256" xmlns="http://www.w3.org/2000/svg" xmlns:ev="http://www.w3.org/2001/xml-events" xmlns:xlink="http://www.w3.org/1999/xlink"><defs /><path d="M1929 5Q1934 0 1946.5 -10.5Q1959 -21 1971.5 -33.0Q1984 -45 1994.0 -56.0Q2004 -67 2004 -74Q2004 -82 2000 -86L1811 -288Q1803 -296 1793 -296Q1782 -296 1774.5 -288.5Q1767 -281 1767 -270Q1767 -267 1770.0 -251.5Q1773 -236 1778.0 -213.0Q1783 -190 1789.0 -164.0Q1795 -138 1800.5 -114.0Q1806 -90 1810.0 -72.0Q1814 -54 1815 -48ZM1132 -285Q1129 -297 1116 -297Q1114 -297 1095.0 -291.0Q1076 -285 1048.5 -275.5Q1021 -266 988.0 -255.0Q955 -244 926.0 -234.0Q897 -224 875.5 -216.5Q854 -209 848 -207Q831 -200 831 -183Q831 -175 836.5 -168.0Q842 -161 850 -159L1069 -112L1163 -195Z" style="fill:#321b41;stroke:none" transform="scale(1,-1) translate(0,-256)" /></svg>