<?xml version="1.0" encoding="utf-8" ?>
<svg baseProfile="full" height="256" version="1.1" width="256" xmlns="http://www.w3.org/2000/svg" xmlns:ev="http://www.w3.org/2001/xml-events" xmlns:xlink="http://www.w3.org/1999/xlink"><defs /><path d="M1991 1077Q2005 1077 2015.5 1069.0Q2026 1061 2030 1047Q2038 1017 2043.0 979.0Q2048 941 2053 909Q2066 832 2078.5 756.0Q2091 680 2103 603Q2116 524 2128.5 445.5Q2141 367 2152 288Q2157 250 2163.5 209.5Q2170 169 2170 130Q2170 42 2144.5 -34.0Q2119 -110 2070.0 -165.5Q2021 -221 1949.5 -252.5Q1878 -284 1786 -284Q1677 -284 1596.0 -243.5Q1515 -203 1461.0 -135.0Q1407 -67 1380.5 23.5Q1354 114 1354 214Q1354 257 1341 293H1251Q1245 293 1243.0 282.0Q1241 271 1241.0 257.0Q1241 243 1242.0 230.0Q1243 217 1243 212Q1243 194 1235.5 174.5Q1228 155 1215.5 139.0Q1203 123 1185.5 112.0Q1168 101 1149 100Q1134 99 1121.5 96.5Q1109 94 1097 83Q1088 75 1080.5 66.0Q1073 57 1064.5 50.0Q1056 43 1045.5 38.5Q1035 34 1022 34Q1005 34 994.5 44.5Q984 55 984 72Q984 82 988.5 89.5Q993 97 998.0 102.0Q1003 107 1007.5 111.0Q1012 115 1012 119L1009 123Q1000 122 990.5 121.5Q981 121 972 121Q957 121 948.5 131.0Q940 141 940 155Q940 171 949.5 178.5Q959 186 970.5 189.0Q982 192 991.5 193.0Q1001 194 1001 199Q1001 202 997.0 206.0Q993 210 988.0 215.0Q983 220 979.0 227.0Q975 234 975 244Q975 261 985.5 271.0Q996 281 1013 281Q1028 281 1041.0 271.5Q1054 262 1065.5 250.0Q1077 238 1087.5 228.5Q1098 219 1107 219Q1114 219 1116.5 231.5Q1119 244 1119.0 260.5Q1119 277 1118.0 292.0Q1117 307 1117 313Q1117 335 1126.0 354.5Q1135 374 1150.5 388.5Q1166 403 1186.0 411.0Q1206 419 1228 419H1260Q1245 434 1229.5 447.5Q1214 461 1197 475Q1125 534 1066.5 603.5Q1008 673 971 759H808Q787 759 767.0 766.5Q747 774 732.0 787.0Q717 800 708.0 818.5Q699 837 699 860V911Q699 921 689.5 930.5Q680 940 668.5 951.0Q657 962 647.5 974.5Q638 987 638 1002Q638 1019 648.5 1028.5Q659 1038 675 1038Q689 1038 698.0 1030.0Q707 1022 713 1023L717 1026Q717 1044 723.0 1061.5Q729 1079 752 1079Q768 1079 780.5 1069.0Q793 1059 793 1042Q793 1039 792.5 1029.0Q792 1019 797 1019Q801 1020 804.5 1023.5Q808 1027 812.0 1030.5Q816 1034 821.5 1036.5Q827 1039 835 1039Q852 1039 862.5 1029.0Q873 1019 873 1002Q873 987 864.0 976.0Q855 965 844.0 955.0Q833 945 824.0 934.5Q815 924 815 911Q815 908 814.5 902.5Q814 897 814.5 891.5Q815 886 816.5 882.0Q818 878 823 878H936Q929 922 929.0 963.5Q929 1005 929 1050Q929 1058 928.0 1066.0Q927 1074 919 1080Q862 1126 827.5 1186.0Q793 1246 793 1321Q793 1366 807.0 1408.0Q821 1450 843.5 1488.5Q866 1527 893.0 1562.5Q920 1598 947 1632Q961 1650 974.0 1668.5Q987 1687 1002.0 1701.5Q1017 1716 1036.0 1725.5Q1055 1735 1081 1735Q1104 1735 1121.5 1728.5Q1139 1722 1153.5 1710.5Q1168 1699 1181.0 1684.5Q1194 1670 1208 1655Q1243 1617 1274.0 1579.5Q1305 1542 1328.5 1501.5Q1352 1461 1365.5 1415.0Q1379 1369 1379 1315Q1379 1240 1345.5 1181.0Q1312 1122 1254 1077Q1244 1069 1240.0 1056.5Q1236 1044 1235.0 1030.0Q1234 1016 1235.0 1001.5Q1236 987 1236 977Q1236 954 1240.0 927.5Q1244 901 1252 879H1374Q1379 879 1379 883V919Q1379 928 1369.5 936.5Q1360 945 1348.5 955.0Q1337 965 1327.5 976.0Q1318 987 1318 1001Q1318 1017 1330.5 1028.0Q1343 1039 1358 1039Q1373 1039 1382 1029L1393 1024L1396 1023L1401 1027Q1401 1036 1401.5 1045.5Q1402 1055 1405.5 1063.5Q1409 1072 1416.0 1077.0Q1423 1082 1435 1082Q1469 1082 1474 1049Q1475 1045 1476.0 1034.0Q1477 1023 1482 1023Q1484 1023 1488.0 1025.5Q1492 1028 1494 1029Q1503 1039 1517 1039Q1534 1039 1545.5 1027.0Q1557 1015 1557 998Q1557 987 1548.0 975.5Q1539 964 1528.0 953.0Q1517 942 1508.0 932.0Q1499 922 1499 915V863Q1499 839 1489.5 819.0Q1480 799 1464.5 785.5Q1449 772 1428.0 764.5Q1407 757 1384 757H1350Q1399 716 1445.5 670.0Q1492 624 1532 574Q1532 606 1552.5 621.5Q1573 637 1602.5 642.5Q1632 648 1663.0 647.0Q1694 646 1715 646Q1724 646 1724.0 656.5Q1724 667 1724 672Q1724 689 1715.5 701.5Q1707 714 1696.5 724.5Q1686 735 1677.5 745.5Q1669 756 1669 769Q1669 783 1679.5 794.5Q1690 806 1704 806Q1718 806 1729.0 798.5Q1740 791 1745 791Q1751 791 1750.5 801.0Q1750 811 1750 815Q1750 831 1761.5 840.5Q1773 850 1788 850Q1803 850 1814.0 840.0Q1825 830 1825 815Q1825 811 1824.5 801.5Q1824 792 1830 792Q1835 792 1844.5 799.5Q1854 807 1868 807Q1882 807 1893.0 797.0Q1904 787 1904 772Q1904 760 1898.0 751.0Q1892 742 1884.5 733.5Q1877 725 1869.5 716.5Q1862 708 1859 698V635Q1859 581 1824.0 546.5Q1789 512 1735 512Q1729 512 1717.0 513.0Q1705 514 1692.5 514.0Q1680 514 1670.5 511.0Q1661 508 1661 500L1662 251Q1662 211 1666.0 167.0Q1670 123 1685.0 86.0Q1700 49 1730.0 24.5Q1760 0 1813 0Q1853 0 1878.0 16.0Q1903 32 1917.0 58.0Q1931 84 1936.0 116.5Q1941 149 1941 182L1951 1036Q1951 1053 1962.0 1065.0Q1973 1077 1991 1077Z" style="fill:#00d26a;stroke:none" transform="scale(1,-1) translate(0,-256)" /></svg>