<?xml version="1.0" encoding="utf-8" ?>
<svg baseProfile="full" height="256" version="1.1" width="256" xmlns="http://www.w3.org/2000/svg" xmlns:ev="http://www.w3.org/2001/xml-events" xmlns:xlink="http://www.w3.org/1999/xlink"><defs /><path d="M975 1402Q975 1387 964.5 1376.5Q954 1366 939 1366Q924 1366 913.5 1376.5Q903 1387 903 1402Q903 1417 913.5 1427.5Q924 1438 939 1438Q954 1438 964.5 1427.5Q975 1417 975 1402ZM1262 1402Q1262 1387 1251.5 1376.5Q1241 1366 1226 1366Q1211 1366 1200.5 1376.5Q1190 1387 1190 1402Q1190 1417 1200.5 1427.5Q1211 1438 1226 1438Q1241 1438 1251.5 1427.5Q1262 1417 1262 1402Z" style="fill:#1c1c1c;stroke:none" transform="scale(1,-1) translate(0,-256)" /></svg>