<?xml version="1.0" encoding="utf-8" ?>
<svg baseProfile="full" height="256" version="1.1" width="256" xmlns="http://www.w3.org/2000/svg" xmlns:ev="http://www.w3.org/2001/xml-events" xmlns:xlink="http://www.w3.org/1999/xlink"><defs /><path d="M982 1285H1324Q1347 1285 1362.5 1269.5Q1378 1254 1378 1231Q1378 1208 1362.0 1193.0Q1346 1178 1324 1178H982ZM1489 1285H1831V1178H1489Q1467 1178 1451.0 1193.0Q1435 1208 1435 1231Q1435 1254 1450.5 1269.5Q1466 1285 1489 1285ZM982 1056H1324Q1347 1056 1362.5 1040.5Q1378 1025 1378 1002Q1378 980 1362.0 964.0Q1346 948 1324 948H982ZM982 827H1324Q1346 827 1362.0 812.0Q1378 797 1378 774Q1378 751 1362.5 735.5Q1347 720 1324 720H982ZM1831 1056H1489Q1466 1056 1450.5 1040.5Q1435 1025 1435 1002Q1435 980 1451.0 964.0Q1467 948 1489 948H1831ZM1489 827H1831V720H1489Q1466 720 1450.5 735.5Q1435 751 1435 774Q1435 797 1451.0 812.0Q1467 827 1489 827Z" style="fill:#212121;stroke:none" transform="scale(1,-1) translate(0,-256)" /></svg>