<?xml version="1.0" encoding="utf-8" ?>
<svg baseProfile="full" height="256" version="1.1" width="256" xmlns="http://www.w3.org/2000/svg" xmlns:ev="http://www.w3.org/2001/xml-events" xmlns:xlink="http://www.w3.org/1999/xlink"><defs /><path d="M1499 1725Q1568 1725 1628.5 1698.5Q1689 1672 1734.0 1627.0Q1779 1582 1805.0 1521.5Q1831 1461 1831 1392V620Q1831 551 1805.0 490.5Q1779 430 1734.0 385.0Q1689 340 1628.5 314.0Q1568 288 1499 288H1315Q1246 288 1185.5 314.0Q1125 340 1079.5 385.0Q1034 430 1008.0 490.5Q982 551 982 620V1392Q982 1461 1008.0 1521.5Q1034 1582 1079.5 1627.5Q1125 1673 1185.5 1699.0Q1246 1725 1315 1725ZM1975 943Q2005 943 2026.0 922.0Q2047 901 2047 871V563Q2047 461 2008.5 372.0Q1970 283 1903.0 216.0Q1836 149 1747.0 110.5Q1658 72 1556 72Q1479 72 1403.0 71.5Q1327 71 1250 71Q1148 71 1059.0 109.5Q970 148 903.5 215.0Q837 282 798.5 371.0Q760 460 760 562V871Q760 901 781.5 921.5Q803 942 832 942Q861 942 882.0 921.0Q903 900 903 871V562Q903 490 930.5 427.0Q958 364 1005.0 317.0Q1052 270 1115.0 242.5Q1178 215 1250 215Q1327 215 1403.0 215.5Q1479 216 1556 216Q1628 216 1691.0 243.0Q1754 270 1801.5 317.5Q1849 365 1876.0 428.0Q1903 491 1903 563V871Q1903 901 1924.0 922.0Q1945 943 1975 943ZM1067 0H1746Q1797 0 1839.0 -25.0Q1881 -50 1905 -95Q1910 -105 1922.5 -126.5Q1935 -148 1948.0 -171.5Q1961 -195 1971.0 -216.0Q1981 -237 1981 -245Q1981 -263 1968.5 -275.0Q1956 -287 1939 -287H873Q856 -287 844.0 -274.5Q832 -262 832 -245Q832 -237 842.0 -216.0Q852 -195 865.0 -171.5Q878 -148 890.5 -126.5Q903 -105 908 -95Q932 -50 974.0 -25.0Q1016 0 1067 0Z" style="fill:#b4acbc;stroke:none" transform="scale(1,-1) translate(0,-256)" /></svg>