<?xml version="1.0" encoding="utf-8" ?>
<svg baseProfile="full" height="256" version="1.1" width="256" xmlns="http://www.w3.org/2000/svg" xmlns:ev="http://www.w3.org/2001/xml-events" xmlns:xlink="http://www.w3.org/1999/xlink"><defs /><path d="M1406 1147Q1429 1182 1460.5 1216.0Q1492 1250 1529.0 1279.0Q1566 1308 1606.5 1328.5Q1647 1349 1689 1357Q1737 1366 1788 1366Q1878 1366 1953.0 1334.5Q2028 1303 2082.0 1247.0Q2136 1191 2166.0 1114.5Q2196 1038 2196 949Q2196 920 2193.0 892.5Q2190 865 2182 837Q2156 737 2098.0 638.5Q2040 540 1965.5 447.5Q1891 355 1808.5 273.0Q1726 191 1650 124Q1613 92 1575.0 58.0Q1537 24 1496 -4Q1473 -19 1453.5 -27.5Q1434 -36 1406 -36Q1378 -36 1358.5 -27.5Q1339 -19 1316 -4Q1276 24 1237.5 57.5Q1199 91 1162 123Q1086 190 1003.0 272.5Q920 355 846.0 447.0Q772 539 714.0 638.0Q656 737 630 837Q615 892 615 950Q615 1039 645.0 1115.5Q675 1192 729.0 1247.5Q783 1303 858.5 1334.5Q934 1366 1024 1366Q1075 1366 1123 1357Q1165 1349 1205.5 1328.5Q1246 1308 1283.0 1279.0Q1320 1250 1351.5 1216.0Q1383 1182 1406 1147Z" style="fill:#ff6dc6;stroke:none" transform="scale(1,-1) translate(0,-256)" /></svg>