<?xml version="1.0" encoding="utf-8" ?>
<svg baseProfile="full" height="256" version="1.1" width="256" xmlns="http://www.w3.org/2000/svg" xmlns:ev="http://www.w3.org/2001/xml-events" xmlns:xlink="http://www.w3.org/1999/xlink"><defs /><path d="M1406 928Q1448 997 1507.5 1037.5Q1567 1078 1649 1078Q1710 1078 1758.0 1055.0Q1806 1032 1839.5 992.5Q1873 953 1891.0 901.0Q1909 849 1909 792Q1909 754 1900 717Q1883 645 1839.5 572.0Q1796 499 1739.0 431.5Q1682 364 1617.5 306.0Q1553 248 1494 206Q1474 192 1453.0 184.0Q1432 176 1406 176Q1381 176 1360.0 184.0Q1339 192 1319 206Q1260 248 1195.5 306.0Q1131 364 1074.0 431.5Q1017 499 973.5 572.0Q930 645 912 717Q903 754 903 793Q903 850 920.5 902.0Q938 954 971.5 993.0Q1005 1032 1053.0 1055.0Q1101 1078 1162 1078Q1244 1078 1304.0 1036.5Q1364 995 1406 928Z" style="fill:#f92f60;stroke:none" transform="scale(1,-1) translate(0,-256)" /></svg>