<?xml version="1.0" encoding="utf-8" ?>
<svg baseProfile="full" height="256" version="1.1" width="256" xmlns="http://www.w3.org/2000/svg" xmlns:ev="http://www.w3.org/2001/xml-events" xmlns:xlink="http://www.w3.org/1999/xlink"><defs /><path d="M1406 1293Q1435 1338 1475.0 1383.0Q1515 1428 1561.5 1466.0Q1608 1504 1660.0 1531.5Q1712 1559 1766 1570Q1797 1576 1829.0 1579.0Q1861 1582 1892 1582Q2010 1582 2106.0 1539.0Q2202 1496 2270.0 1422.0Q2338 1348 2375.0 1247.5Q2412 1147 2412 1033Q2412 958 2394 886Q2371 797 2329.0 709.0Q2287 621 2232.0 535.5Q2177 450 2111.0 368.5Q2045 287 1975.0 212.0Q1905 137 1833.0 68.5Q1761 0 1693 -59Q1647 -99 1598.5 -141.0Q1550 -183 1500 -217Q1477 -233 1456.0 -241.0Q1435 -249 1406 -249Q1377 -249 1356.0 -241.0Q1335 -233 1312 -217Q1262 -183 1213.5 -141.0Q1165 -99 1119 -59Q1051 0 979.0 68.0Q907 136 836.5 211.5Q766 287 700.5 368.5Q635 450 580.0 535.5Q525 621 483.0 709.0Q441 797 418 886Q400 958 400 1033Q400 1147 437.0 1247.5Q474 1348 542.0 1422.0Q610 1496 706.0 1539.0Q802 1582 920 1582Q984 1582 1046 1570Q1100 1559 1152.0 1531.5Q1204 1504 1250.5 1466.0Q1297 1428 1337.0 1383.0Q1377 1338 1406 1293Z" style="fill:#ffb2ff;stroke:none" transform="scale(1,-1) translate(0,-256)" /></svg>