<?xml version="1.0" encoding="utf-8" ?>
<svg baseProfile="full" height="256" version="1.1" width="256" xmlns="http://www.w3.org/2000/svg" xmlns:ev="http://www.w3.org/2001/xml-events" xmlns:xlink="http://www.w3.org/1999/xlink"><defs /><path d="M1402 230Q1306 230 1216.5 255.0Q1127 280 1049.5 325.5Q972 371 908.5 434.5Q845 498 799.5 575.5Q754 653 729.0 742.0Q704 831 704 927Q704 1023 729.0 1112.0Q754 1201 799.5 1278.5Q845 1356 908.5 1419.5Q972 1483 1049.5 1528.5Q1127 1574 1216.5 1599.0Q1306 1624 1402 1624Q1498 1624 1587.0 1599.0Q1676 1574 1753.5 1528.5Q1831 1483 1894.5 1419.5Q1958 1356 2003.5 1278.5Q2049 1201 2074.0 1112.0Q2099 1023 2099 927Q2099 831 2074.0 742.0Q2049 653 2003.5 575.5Q1958 498 1894.5 434.5Q1831 371 1753.5 325.5Q1676 280 1587.0 255.0Q1498 230 1402 230Z" style="fill:#ffe5d9;stroke:none" transform="scale(1,-1) translate(0,-256)" /></svg>