<?xml version="1.0" encoding="utf-8" ?>
<svg baseProfile="full" height="256" version="1.1" width="256" xmlns="http://www.w3.org/2000/svg" xmlns:ev="http://www.w3.org/2001/xml-events" xmlns:xlink="http://www.w3.org/1999/xlink"><defs /><path d="M1228 804Q1190 804 1163 831L1086 908Q1059 935 1059 973Q1059 992 1066.0 1009.0Q1073 1026 1085.5 1038.5Q1098 1051 1115.0 1058.5Q1132 1066 1151 1066Q1169 1066 1186.5 1059.0Q1204 1052 1217 1039L1294 962Q1307 949 1314.0 931.5Q1321 914 1321 896Q1321 877 1313.5 860.0Q1306 843 1293.5 830.5Q1281 818 1264.0 811.0Q1247 804 1228 804ZM1583 804Q1564 804 1547.0 811.0Q1530 818 1517.5 830.5Q1505 843 1498.0 860.0Q1491 877 1491 896Q1491 914 1498.0 931.5Q1505 949 1518 962L1595 1039Q1622 1066 1660 1066Q1699 1066 1726.0 1039.0Q1753 1012 1753 973Q1753 935 1726 908L1649 831Q1636 818 1618.5 811.0Q1601 804 1583 804Z" style="fill:#f3ad61;stroke:none" transform="scale(1,-1) translate(0,-256)" /></svg>