<?xml version="1.0" encoding="utf-8" ?>
<svg baseProfile="full" height="256" version="1.1" width="256" xmlns="http://www.w3.org/2000/svg" xmlns:ev="http://www.w3.org/2001/xml-events" xmlns:xlink="http://www.w3.org/1999/xlink"><defs /><path d="M856 564Q911 495 982 441V7Q982 -19 963.5 -37.5Q945 -56 919 -56Q893 -56 874.5 -37.5Q856 -19 856 7ZM1339 304Q1370 301 1402 301Q1432 301 1464 304Q1464 303 1464.5 302.5Q1465 302 1465 301V-202Q1465 -228 1446.5 -246.5Q1428 -265 1402 -265Q1376 -265 1357.5 -246.5Q1339 -228 1339 -202ZM1821 441Q1891 495 1947 564V7Q1947 -19 1928.5 -37.5Q1910 -56 1884 -56Q1858 -56 1839.5 -37.5Q1821 -19 1821 7Z" style="fill:#d3d3d3;stroke:none" transform="scale(1,-1) translate(0,-256)" /></svg>