<?xml version="1.0" encoding="utf-8" ?>
<svg baseProfile="full" height="256" version="1.1" width="256" xmlns="http://www.w3.org/2000/svg" xmlns:ev="http://www.w3.org/2001/xml-events" xmlns:xlink="http://www.w3.org/1999/xlink"><defs /><path d="M1972 927Q1972 1005 1951.5 1078.0Q1931 1151 1894.0 1214.5Q1857 1278 1805.0 1330.0Q1753 1382 1689.5 1419.5Q1626 1457 1553.0 1477.5Q1480 1498 1402 1498Q1323 1498 1250.0 1477.5Q1177 1457 1113.5 1420.0Q1050 1383 998.0 1331.0Q946 1279 909.0 1215.5Q872 1152 851.5 1079.0Q831 1006 831 927Q831 848 851.5 775.5Q872 703 909.5 639.5Q947 576 999.0 524.0Q1051 472 1114.5 435.0Q1178 398 1250.5 377.5Q1323 357 1402 357Q1520 357 1623.5 402.0Q1727 447 1804.5 524.5Q1882 602 1927.0 705.5Q1972 809 1972 927ZM704 927Q704 1023 729.0 1112.0Q754 1201 799.5 1278.5Q845 1356 908.5 1419.5Q972 1483 1049.5 1528.5Q1127 1574 1216.5 1599.0Q1306 1624 1402 1624Q1498 1624 1587.0 1599.0Q1676 1574 1753.5 1528.5Q1831 1483 1894.5 1419.5Q1958 1356 2003.5 1278.5Q2049 1201 2074.0 1112.0Q2099 1023 2099 927Q2099 831 2074.0 742.0Q2049 653 2003.5 575.5Q1958 498 1894.5 434.5Q1831 371 1753.5 325.5Q1676 280 1587.0 255.0Q1498 230 1402 230Q1305 230 1216.0 255.0Q1127 280 1049.5 325.0Q972 370 908.5 433.5Q845 497 799.5 574.5Q754 652 729.0 741.5Q704 831 704 927ZM707 481Q721 348 781.5 234.0Q842 120 935.0 36.0Q1028 -48 1148.0 -95.5Q1268 -143 1402 -143Q1536 -143 1656.0 -95.5Q1776 -48 1869.0 36.0Q1962 120 2022.0 234.0Q2082 348 2097 481Q2099 462 2100.0 443.5Q2101 425 2101 406Q2101 309 2076.0 220.0Q2051 131 2005.5 53.0Q1960 -25 1896.0 -89.0Q1832 -153 1754.5 -198.5Q1677 -244 1588.0 -269.0Q1499 -294 1402 -294Q1305 -294 1216.0 -269.0Q1127 -244 1049.0 -198.5Q971 -153 907.0 -89.0Q843 -25 797.5 53.0Q752 131 727.0 220.5Q702 310 702 406Q702 425 703.5 443.5Q705 462 707 481Z" style="fill:#d3d3d3;stroke:none" transform="scale(1,-1) translate(0,-256)" /></svg>