<?xml version="1.0" encoding="utf-8" ?>
<svg baseProfile="full" height="256" version="1.1" width="256" xmlns="http://www.w3.org/2000/svg" xmlns:ev="http://www.w3.org/2001/xml-events" xmlns:xlink="http://www.w3.org/1999/xlink"><defs /><path d="M2100 556Q2100 462 2075.5 368.5Q2051 275 2006.5 189.0Q1962 103 1899.0 29.5Q1836 -44 1758.5 -98.5Q1681 -153 1590.5 -184.0Q1500 -215 1401 -215Q1302 -215 1211.5 -184.0Q1121 -153 1043.5 -98.5Q966 -44 902.5 29.5Q839 103 794.5 189.0Q750 275 725.5 368.5Q701 462 701 556Q701 650 701.5 741.5Q702 833 702 927H810Q859 1002 924.0 1061.0Q989 1120 1065.0 1160.5Q1141 1201 1226.5 1222.5Q1312 1244 1401 1244Q1490 1244 1575.5 1222.5Q1661 1201 1737.0 1160.5Q1813 1120 1878.0 1061.0Q1943 1002 1992 927H2100Z" style="fill:#ca0b4a;stroke:none" transform="scale(1,-1) translate(0,-256)" /></svg>