<?xml version="1.0" encoding="utf-8" ?>
<svg baseProfile="full" height="256" version="1.1" width="256" xmlns="http://www.w3.org/2000/svg" xmlns:ev="http://www.w3.org/2001/xml-events" xmlns:xlink="http://www.w3.org/1999/xlink"><defs /><path d="M1082 1422Q1082 1397 1067.5 1383.0Q1053 1369 1030 1366Q1010 1364 992.5 1361.5Q975 1359 955 1352Q921 1340 891.5 1318.0Q862 1296 840.5 1267.0Q819 1238 807.0 1203.5Q795 1169 795 1132Q795 1109 779.5 1093.5Q764 1078 741 1078Q718 1078 702.5 1093.5Q687 1109 687 1132Q687 1200 714.5 1262.0Q742 1324 788.5 1371.0Q835 1418 897.0 1446.0Q959 1474 1027 1474Q1049 1474 1065.5 1459.5Q1082 1445 1082 1422ZM1765 1422Q1765 1445 1782.0 1459.5Q1799 1474 1821 1474Q1889 1474 1950.5 1446.0Q2012 1418 2059.0 1371.0Q2106 1324 2133.5 1262.0Q2161 1200 2161 1132Q2161 1110 2145.0 1094.0Q2129 1078 2107 1078Q2084 1078 2068.5 1093.5Q2053 1109 2053 1132Q2053 1169 2040.5 1203.5Q2028 1238 2006.5 1267.0Q1985 1296 1955.5 1318.0Q1926 1340 1892 1352Q1872 1359 1854.5 1361.5Q1837 1364 1817 1366Q1794 1369 1779.5 1383.5Q1765 1398 1765 1422Z" style="fill:#402a32;stroke:none" transform="scale(1,-1) translate(0,-256)" /></svg>