<?xml version="1.0" encoding="utf-8" ?>
<svg baseProfile="full" height="256" version="1.1" width="256" xmlns="http://www.w3.org/2000/svg" xmlns:ev="http://www.w3.org/2001/xml-events" xmlns:xlink="http://www.w3.org/1999/xlink"><defs /><path d="M1801 503Q1764 503 1731.5 517.0Q1699 531 1674.5 555.5Q1650 580 1636.0 613.0Q1622 646 1622 683Q1622 720 1636.0 753.0Q1650 786 1674.5 810.5Q1699 835 1731.5 849.0Q1764 863 1801 863Q1838 863 1871.0 849.0Q1904 835 1928.5 810.5Q1953 786 1967.0 753.0Q1981 720 1981 683Q1981 646 1967.0 613.0Q1953 580 1928.5 555.5Q1904 531 1871.0 517.0Q1838 503 1801 503Z" style="fill:#402a32;stroke:none" transform="scale(1,-1) translate(0,-256)" /></svg>