<?xml version="1.0" encoding="utf-8" ?>
<svg baseProfile="full" height="256" version="1.1" width="256" xmlns="http://www.w3.org/2000/svg" xmlns:ev="http://www.w3.org/2001/xml-events" xmlns:xlink="http://www.w3.org/1999/xlink"><defs /><path d="M1837 431Q1762 431 1697.0 459.5Q1632 488 1583.0 537.0Q1534 586 1506.0 651.5Q1478 717 1478 791Q1478 865 1506.0 930.5Q1534 996 1583.0 1044.5Q1632 1093 1697.5 1121.5Q1763 1150 1837 1150Q1911 1150 1976.5 1122.0Q2042 1094 2091.0 1045.0Q2140 996 2168.5 931.0Q2197 866 2197 791Q2197 716 2168.5 650.5Q2140 585 2091.5 536.5Q2043 488 1977.5 459.5Q1912 431 1837 431Z" style="fill:#ffffff;stroke:none" transform="scale(1,-1) translate(0,-256)" /></svg>