<?xml version="1.0" encoding="utf-8" ?>
<svg baseProfile="full" height="256" version="1.1" width="256" xmlns="http://www.w3.org/2000/svg" xmlns:ev="http://www.w3.org/2001/xml-events" xmlns:xlink="http://www.w3.org/1999/xlink"><defs /><path d="M2143 1149Q2114 1149 2089.0 1138.0Q2064 1127 2045.5 1108.5Q2027 1090 2016.0 1064.5Q2005 1039 2005 1011V431Q2005 402 2016.0 377.0Q2027 352 2045.5 333.5Q2064 315 2089.0 304.0Q2114 293 2143 293H2412V-8Q2412 -33 2395.0 -50.0Q2378 -67 2353 -67H459Q434 -67 417.0 -50.0Q400 -33 400 -8V293H669Q697 293 722.5 304.0Q748 315 766.5 333.5Q785 352 796.0 377.0Q807 402 807 431V1011Q807 1039 796.0 1064.5Q785 1090 766.5 1108.5Q748 1127 722.5 1138.0Q697 1149 669 1149H400V1451Q400 1475 417.5 1492.5Q435 1510 459 1510H2353Q2377 1510 2394.5 1492.5Q2412 1475 2412 1451V1149ZM1701 293Q1729 293 1754.5 304.0Q1780 315 1798.5 333.5Q1817 352 1828.0 377.0Q1839 402 1839 431V1011Q1839 1039 1828.0 1064.5Q1817 1090 1798.5 1108.5Q1780 1127 1754.5 1138.0Q1729 1149 1701 1149H1111Q1082 1149 1057.0 1138.0Q1032 1127 1013.5 1108.5Q995 1090 984.0 1064.5Q973 1039 973 1011V431Q973 402 984.0 377.0Q995 352 1013.5 333.5Q1032 315 1057.0 304.0Q1082 293 1111 293ZM571 188Q562 188 555.0 181.0Q548 174 548 165V66Q548 57 555.0 50.0Q562 43 571 43H671Q681 43 687.5 49.5Q694 56 694 66V165Q694 175 687.5 181.5Q681 188 671 188ZM964 188Q954 188 947.5 181.5Q941 175 941 165V66Q941 56 947.5 49.5Q954 43 964 43H1063Q1073 43 1079.5 49.5Q1086 56 1086 66V165Q1086 175 1079.5 181.5Q1073 188 1063 188ZM1356 188Q1346 188 1339.5 181.5Q1333 175 1333 165V66Q1333 56 1339.5 49.5Q1346 43 1356 43H1456Q1465 43 1472.0 50.0Q1479 57 1479 66V165Q1479 174 1472.0 181.0Q1465 188 1456 188ZM1749 188Q1739 188 1732.5 181.5Q1726 175 1726 165V66Q1726 56 1732.5 49.5Q1739 43 1749 43H1848Q1858 43 1864.5 49.5Q1871 56 1871 66V165Q1871 174 1864.0 181.0Q1857 188 1848 188ZM2141 188Q2131 188 2124.5 181.5Q2118 175 2118 165V66Q2118 56 2124.5 49.5Q2131 43 2141 43H2240Q2250 43 2256.5 49.5Q2263 56 2263 66V165Q2263 175 2256.5 181.5Q2250 188 2240 188ZM571 1403Q562 1403 555.0 1396.0Q548 1389 548 1380V1281Q548 1272 555.0 1265.0Q562 1258 571 1258H671Q681 1258 687.5 1264.5Q694 1271 694 1281V1380Q694 1389 687.0 1396.0Q680 1403 671 1403ZM964 1403Q954 1403 947.5 1396.5Q941 1390 941 1380V1281Q941 1271 947.5 1264.5Q954 1258 964 1258H1063Q1073 1258 1079.5 1264.5Q1086 1271 1086 1281V1380Q1086 1389 1079.0 1396.0Q1072 1403 1063 1403ZM1356 1403Q1346 1403 1339.5 1396.5Q1333 1390 1333 1380V1281Q1333 1271 1339.5 1264.5Q1346 1258 1356 1258H1456Q1465 1258 1472.0 1265.0Q1479 1272 1479 1281V1380Q1479 1389 1472.0 1396.0Q1465 1403 1456 1403ZM1749 1403Q1739 1403 1732.5 1396.5Q1726 1390 1726 1380V1281Q1726 1271 1732.5 1264.5Q1739 1258 1749 1258H1848Q1858 1258 1864.5 1264.5Q1871 1271 1871 1281V1380Q1871 1389 1864.0 1396.0Q1857 1403 1848 1403ZM2141 1403Q2131 1403 2124.5 1396.5Q2118 1390 2118 1380V1281Q2118 1271 2124.5 1264.5Q2131 1258 2141 1258H2240Q2250 1258 2256.5 1264.5Q2263 1271 2263 1281V1380Q2263 1389 2256.0 1396.0Q2249 1403 2240 1403Z" style="fill:#433b6b;stroke:none" transform="scale(1,-1) translate(0,-256)" /></svg>