<?xml version="1.0" encoding="utf-8" ?>
<svg baseProfile="full" height="256" version="1.1" width="256" xmlns="http://www.w3.org/2000/svg" xmlns:ev="http://www.w3.org/2001/xml-events" xmlns:xlink="http://www.w3.org/1999/xlink"><defs /><path d="M2123 1129Q2167 1078 2207.0 1032.0Q2247 986 2281.5 939.0Q2316 892 2343.0 839.5Q2370 787 2388 721L2340 539L2396 424L2304 252L2386 135Q2366 88 2334.0 50.0Q2302 12 2261.5 -15.0Q2221 -42 2173.5 -57.0Q2126 -72 2075 -72H737Q686 -72 638.5 -57.0Q591 -42 550.5 -15.0Q510 12 477.5 50.0Q445 88 426 135L574 216L413 426L551 540L425 722Q443 788 470.0 840.5Q497 893 531.0 940.0Q565 987 605.0 1032.5Q645 1078 689 1129Q621 1167 582.0 1233.0Q543 1299 543 1377Q543 1434 565.5 1484.0Q588 1534 626.5 1571.5Q665 1609 715.5 1631.0Q766 1653 823 1653Q863 1653 900.0 1642.0Q937 1631 969.5 1611.0Q1002 1591 1028.0 1562.5Q1054 1534 1072 1499Q1120 1524 1169.5 1541.5Q1219 1559 1272 1569L1406 1507L1540 1569Q1593 1559 1642.5 1541.5Q1692 1524 1740 1499Q1776 1570 1842.5 1611.5Q1909 1653 1989 1653Q2047 1653 2098.0 1631.0Q2149 1609 2186.5 1571.5Q2224 1534 2246.0 1483.0Q2268 1432 2268 1374Q2268 1297 2229.0 1232.0Q2190 1167 2123 1129Z" style="fill:#ff822d;stroke:none" transform="scale(1,-1) translate(0,-256)" /></svg>