<?xml version="1.0" encoding="utf-8" ?>
<svg baseProfile="full" height="256" version="1.1" width="256" xmlns="http://www.w3.org/2000/svg" xmlns:ev="http://www.w3.org/2001/xml-events" xmlns:xlink="http://www.w3.org/1999/xlink"><defs /><path d="M1103 432Q1103 417 1092.5 406.0Q1082 395 1067 395Q1057 395 1049 400L801 544Q793 549 788.0 557.5Q783 566 783 575Q783 589 793.5 600.0Q804 611 819 611Q829 611 837 606L1085 462Q1103 452 1103 432ZM782 143Q782 129 793.0 118.5Q804 108 818 108Q828 108 836 113L1085 257Q1103 267 1103 288Q1103 302 1092.5 313.0Q1082 324 1068 324Q1063 324 1058.5 322.0Q1054 320 1049 318L800 175Q782 165 782 143ZM1993 611Q2007 611 2018.0 600.5Q2029 590 2029 575Q2029 566 2024.0 557.5Q2019 549 2011 544L1762 400Q1754 395 1744 395Q1730 395 1719.5 406.0Q1709 417 1709 432Q1709 452 1727 462L1975 606Q1983 611 1993 611ZM2030 143Q2030 129 2019.0 118.5Q2008 108 1994 108Q1984 108 1976 113L1727 257Q1709 267 1709 288Q1709 302 1719.5 313.0Q1730 324 1744 324Q1749 324 1753.5 322.0Q1758 320 1763 318L2012 175Q2030 165 2030 143Z" style="fill:#cdc4d6;stroke:none" transform="scale(1,-1) translate(0,-256)" /></svg>