<?xml version="1.0" encoding="utf-8" ?>
<svg baseProfile="full" height="256" version="1.1" width="256" xmlns="http://www.w3.org/2000/svg" xmlns:ev="http://www.w3.org/2001/xml-events" xmlns:xlink="http://www.w3.org/1999/xlink"><defs /><path d="M1693 575Q1738 575 1777.5 558.0Q1817 541 1846.0 512.0Q1875 483 1892.0 443.5Q1909 404 1909 359Q1909 314 1892.0 275.0Q1875 236 1845.5 207.0Q1816 178 1777.0 161.0Q1738 144 1693 144H1586Q1532 144 1484.0 169.5Q1436 195 1406 240Q1376 195 1328.0 169.5Q1280 144 1226 144H1118Q1073 144 1034.0 161.0Q995 178 966.0 207.0Q937 236 920.0 275.0Q903 314 903 359Q903 404 920.0 443.0Q937 482 966.0 511.5Q995 541 1034.0 558.0Q1073 575 1118 575H1693Z" style="fill:#f3eef8;stroke:none" transform="scale(1,-1) translate(0,-256)" /></svg>