<?xml version="1.0" encoding="utf-8" ?>
<svg baseProfile="full" height="256" version="1.1" width="256" xmlns="http://www.w3.org/2000/svg" xmlns:ev="http://www.w3.org/2001/xml-events" xmlns:xlink="http://www.w3.org/1999/xlink"><defs /><path d="M761 1214Q711 1234 681.0 1277.0Q651 1320 651 1374Q651 1409 664.5 1440.0Q678 1471 701.0 1494.5Q724 1518 755.5 1531.5Q787 1545 822 1545Q874 1545 916.5 1516.5Q959 1488 979 1440Q946 1417 917.5 1390.0Q889 1363 863.0 1334.0Q837 1305 812.0 1274.5Q787 1244 761 1214ZM2050 1215Q1998 1276 1947.0 1335.0Q1896 1394 1831 1441Q1851 1489 1894.5 1517.0Q1938 1545 1989 1545Q2024 1545 2055.0 1531.5Q2086 1518 2109.5 1494.5Q2133 1471 2146.5 1440.0Q2160 1409 2160 1374Q2160 1321 2130.0 1277.0Q2100 1233 2050 1215Z" style="fill:#ff6723;stroke:none" transform="scale(1,-1) translate(0,-256)" /></svg>