<?xml version="1.0" encoding="utf-8" ?>
<svg baseProfile="full" height="256" version="1.1" width="256" xmlns="http://www.w3.org/2000/svg" xmlns:ev="http://www.w3.org/2001/xml-events" xmlns:xlink="http://www.w3.org/1999/xlink"><defs /><path d="M1456 1479Q1445 1468 1433.0 1462.0Q1421 1456 1405 1456Q1375 1456 1354 1479L1270 1568Q1335 1581 1406 1581Q1477 1581 1542 1568ZM1611 1330Q1623 1330 1631.5 1321.5Q1640 1313 1640 1301Q1640 1287 1629 1279L1435 1123Q1422 1113 1406 1113Q1390 1113 1377 1123L1183 1279Q1172 1287 1172 1301Q1172 1313 1180.5 1321.5Q1189 1330 1201 1330ZM738 224Q759 209 759 184Q759 164 745.0 149.0Q731 134 710 134H426Q400 197 400 265V542Q400 588 406.0 633.0Q412 678 425 722L738 511Q759 496 759 471Q759 451 745.0 436.0Q731 421 710 421H441ZM2102 134Q2081 134 2066.5 149.0Q2052 164 2052 184Q2052 197 2058.0 207.0Q2064 217 2074 224L2371 422H2102Q2081 422 2066.5 436.5Q2052 451 2052 472Q2052 484 2058.0 494.5Q2064 505 2074 512L2388 722Q2412 633 2412 542V265Q2412 197 2386 134ZM1118 863Q1148 863 1169.0 842.0Q1190 821 1190 791V719Q1190 689 1169.0 668.0Q1148 647 1118 647Q1089 647 1068.0 668.5Q1047 690 1047 719V791Q1047 820 1068.0 841.5Q1089 863 1118 863ZM1693 863Q1723 863 1744.0 842.0Q1765 821 1765 791V719Q1765 689 1744.0 668.0Q1723 647 1693 647Q1664 647 1643.0 668.5Q1622 690 1622 719V791Q1622 820 1643.0 841.5Q1664 863 1693 863ZM1406 323Q1376 323 1353 346L1254 445Q1243 456 1237.0 469.5Q1231 483 1231 499Q1231 531 1253.5 553.0Q1276 575 1308 575H1506Q1538 575 1560.0 552.5Q1582 530 1582 498Q1582 467 1560 445L1461 346Q1450 335 1435.5 329.0Q1421 323 1406 323Z" style="fill:#212121;stroke:none" transform="scale(1,-1) translate(0,-256)" /></svg>