<?xml version="1.0" encoding="utf-8" ?>
<svg baseProfile="full" height="256" version="1.1" width="256" xmlns="http://www.w3.org/2000/svg" xmlns:ev="http://www.w3.org/2001/xml-events" xmlns:xlink="http://www.w3.org/1999/xlink"><defs /><path d="M436 426Q436 560 470.5 684.5Q505 809 568.0 917.5Q631 1026 719.5 1115.0Q808 1204 915.5 1268.0Q1023 1332 1147.5 1367.0Q1272 1402 1406 1402Q1541 1402 1665.0 1367.0Q1789 1332 1897.0 1268.5Q2005 1205 2093.0 1115.5Q2181 1026 2244.0 917.5Q2307 809 2341.5 684.5Q2376 560 2376 426Q2376 282 2336.5 176.5Q2297 71 2228.0 -4.5Q2159 -80 2066.0 -128.0Q1973 -176 1865.0 -203.0Q1757 -230 1640.0 -240.5Q1523 -251 1406 -251Q1289 -251 1172.0 -240.5Q1055 -230 947.0 -203.0Q839 -176 746.0 -128.0Q653 -80 584.0 -4.5Q515 71 475.5 177.0Q436 283 436 426Z" style="fill:#f4f4f4;stroke:none" transform="scale(1,-1) translate(0,-256)" /></svg>