<?xml version="1.0" encoding="utf-8" ?>
<svg baseProfile="full" height="256" version="1.1" width="256" xmlns="http://www.w3.org/2000/svg" xmlns:ev="http://www.w3.org/2001/xml-events" xmlns:xlink="http://www.w3.org/1999/xlink"><defs /><path d="M1001 431Q960 431 917.0 446.0Q874 461 839.0 487.5Q804 514 781.5 551.5Q759 589 759 634Q759 682 788.0 735.0Q817 788 861.5 832.0Q906 876 959.0 905.0Q1012 934 1060 934Q1105 934 1142.0 911.5Q1179 889 1206.0 854.0Q1233 819 1247.5 776.0Q1262 733 1262 692Q1262 638 1241.5 590.5Q1221 543 1185.5 507.5Q1150 472 1102.5 451.5Q1055 431 1001 431ZM2053 634Q2053 589 2030.5 551.5Q2008 514 1973.0 487.0Q1938 460 1895.0 445.5Q1852 431 1811 431Q1757 431 1709.5 451.5Q1662 472 1626.0 507.5Q1590 543 1569.5 590.5Q1549 638 1549 692Q1549 733 1564.0 776.0Q1579 819 1605.5 854.0Q1632 889 1669.5 911.5Q1707 934 1752 934Q1800 934 1853.0 905.0Q1906 876 1950.5 832.0Q1995 788 2024.0 735.0Q2053 682 2053 634Z" style="fill:#635994;stroke:none" transform="scale(1,-1) translate(0,-256)" /></svg>