<?xml version="1.0" encoding="utf-8" ?>
<svg baseProfile="full" height="256" version="1.1" width="256" xmlns="http://www.w3.org/2000/svg" xmlns:ev="http://www.w3.org/2001/xml-events" xmlns:xlink="http://www.w3.org/1999/xlink"><defs /><path d="M1047 719Q1047 748 1068.0 769.5Q1089 791 1118 791Q1148 791 1169.0 770.0Q1190 749 1190 719V647Q1190 617 1169.0 596.0Q1148 575 1118 575Q1089 575 1068.0 596.5Q1047 618 1047 647ZM1622 719Q1622 748 1643.0 769.5Q1664 791 1693 791Q1723 791 1744.0 770.0Q1765 749 1765 719V647Q1765 617 1744.0 596.0Q1723 575 1693 575Q1664 575 1643.0 596.5Q1622 618 1622 647ZM1280 472Q1280 494 1295.5 508.5Q1311 523 1332 523H1481Q1502 523 1517.0 508.0Q1532 493 1532 472Q1532 448 1513 432L1440 373Q1424 360 1406 360Q1388 360 1372 373L1299 432Q1280 448 1280 472ZM1406 288Q1421 288 1429.5 277.5Q1438 267 1443.5 251.0Q1449 235 1455.5 216.0Q1462 197 1472.5 181.0Q1483 165 1501.5 154.5Q1520 144 1550 144Q1574 144 1587.5 152.0Q1601 160 1608.0 172.0Q1615 184 1618.0 198.0Q1621 212 1625.0 224.0Q1629 236 1636.0 244.0Q1643 252 1658 252Q1672 252 1682.5 241.0Q1693 230 1693 216Q1693 186 1682.0 159.5Q1671 133 1651.5 113.5Q1632 94 1606.0 83.0Q1580 72 1550 72Q1529 72 1507.5 77.0Q1486 82 1466.5 92.5Q1447 103 1431.5 117.5Q1416 132 1406 152Q1384 112 1345.5 92.0Q1307 72 1262 72Q1232 72 1205.5 83.0Q1179 94 1159.5 113.5Q1140 133 1129.0 159.5Q1118 186 1118 216Q1118 230 1129.0 241.0Q1140 252 1154 252Q1169 252 1176.0 244.0Q1183 236 1187.0 224.0Q1191 212 1194.0 198.0Q1197 184 1204.0 172.0Q1211 160 1224.5 152.0Q1238 144 1262 144Q1292 144 1310.0 154.5Q1328 165 1339.0 181.0Q1350 197 1356.0 216.0Q1362 235 1368.0 251.0Q1374 267 1382.5 277.5Q1391 288 1406 288Z" style="fill:#1c1c1c;stroke:none" transform="scale(1,-1) translate(0,-256)" /></svg>