<?xml version="1.0" encoding="utf-8" ?>
<svg baseProfile="full" height="256" version="1.1" width="256" xmlns="http://www.w3.org/2000/svg" xmlns:ev="http://www.w3.org/2001/xml-events" xmlns:xlink="http://www.w3.org/1999/xlink"><defs /><path d="M328 467Q328 504 342.0 537.0Q356 570 380.5 594.5Q405 619 437.5 633.0Q470 647 508 647Q545 647 577.5 633.0Q610 619 634.5 594.5Q659 570 673.0 537.0Q687 504 687 467V180Q687 143 673.0 110.0Q659 77 634.5 52.5Q610 28 577.5 14.0Q545 0 508 0Q471 0 438.0 14.0Q405 28 380.5 52.5Q356 77 342.0 110.0Q328 143 328 180Z" style="fill:#3f5fff;stroke:none" transform="scale(1,-1) translate(0,-256)" /></svg>