<?xml version="1.0" encoding="utf-8" ?>
<svg baseProfile="full" height="256" version="1.1" width="256" xmlns="http://www.w3.org/2000/svg" xmlns:ev="http://www.w3.org/2001/xml-events" xmlns:xlink="http://www.w3.org/1999/xlink"><defs /><path d="M687 1186Q687 1201 697.5 1211.5Q708 1222 723 1222Q771 1222 816.5 1235.0Q862 1248 899 1280Q931 1308 947.0 1340.0Q963 1372 976 1411Q980 1422 988.5 1430.0Q997 1438 1010 1438Q1024 1438 1035.5 1427.5Q1047 1417 1047 1402Q1047 1398 1045 1392Q1013 1273 929.5 1211.5Q846 1150 723 1150Q708 1150 697.5 1160.5Q687 1171 687 1186ZM2125 1186Q2125 1171 2114.5 1160.5Q2104 1150 2089 1150Q1966 1150 1882.5 1211.5Q1799 1273 1767 1392Q1765 1398 1765 1402Q1765 1417 1776.5 1427.5Q1788 1438 1802 1438Q1815 1438 1823.5 1430.0Q1832 1422 1836 1411Q1849 1372 1865.0 1340.0Q1881 1308 1913 1280Q1950 1248 1995.5 1235.0Q2041 1222 2089 1222Q2104 1222 2114.5 1211.5Q2125 1201 2125 1186ZM1406 216Q1363 216 1318.0 205.0Q1273 194 1241 165Q1230 155 1218.0 149.5Q1206 144 1190 144Q1161 144 1139.5 165.5Q1118 187 1118 216Q1118 245 1140 267Q1164 292 1196.0 309.5Q1228 327 1263.5 338.5Q1299 350 1335.5 355.0Q1372 360 1406 360Q1439 360 1476.0 354.5Q1513 349 1548.5 338.0Q1584 327 1616.0 309.5Q1648 292 1672 267Q1693 244 1693 216Q1693 187 1672.0 165.5Q1651 144 1621 144Q1606 144 1594.0 149.5Q1582 155 1571 165Q1539 194 1493.5 205.0Q1448 216 1406 216ZM1262 791Q1262 746 1245.0 707.0Q1228 668 1199.0 638.5Q1170 609 1131.0 592.0Q1092 575 1047 575Q1002 575 963.0 592.0Q924 609 894.5 638.5Q865 668 848.0 707.0Q831 746 831 791Q831 836 848.0 875.0Q865 914 894.5 943.0Q924 972 963.0 989.0Q1002 1006 1047 1006Q1092 1006 1131.0 989.0Q1170 972 1199.0 943.0Q1228 914 1245.0 875.0Q1262 836 1262 791ZM1981 791Q1981 746 1964.0 707.0Q1947 668 1917.5 638.5Q1888 609 1849.0 592.0Q1810 575 1765 575Q1720 575 1681.0 592.0Q1642 609 1613.0 638.5Q1584 668 1567.0 707.0Q1550 746 1550 791Q1550 836 1567.0 875.0Q1584 914 1613.0 943.0Q1642 972 1681.0 989.0Q1720 1006 1765 1006Q1810 1006 1849.0 989.0Q1888 972 1917.5 943.0Q1947 914 1964.0 875.0Q1981 836 1981 791Z" style="fill:#402a32;stroke:none" transform="scale(1,-1) translate(0,-256)" /></svg>