<?xml version="1.0" encoding="utf-8" ?>
<svg baseProfile="full" height="256" version="1.1" width="256" xmlns="http://www.w3.org/2000/svg" xmlns:ev="http://www.w3.org/2001/xml-events" xmlns:xlink="http://www.w3.org/1999/xlink"><defs /><path d="M687 611Q687 626 697.5 636.5Q708 647 723 647H795V806Q795 840 806.0 868.5Q817 897 841 922Q867 948 898.5 959.5Q930 971 967 971Q997 971 1024.5 960.0Q1052 949 1072.5 930.0Q1093 911 1105.5 884.5Q1118 858 1118 827Q1118 812 1108.5 801.5Q1099 791 1083 791Q1066 791 1059.0 799.0Q1052 807 1048.5 819.0Q1045 831 1042.5 845.0Q1040 859 1031.5 871.0Q1023 883 1006.0 891.0Q989 899 957 899Q937 899 920.5 891.5Q904 884 892.0 871.0Q880 858 873.5 841.5Q867 825 867 806V647H975Q990 647 1000.5 636.5Q1011 626 1011 611Q1011 596 1000.5 585.5Q990 575 975 575H867V403Q867 392 865.0 380.5Q863 369 858 360H1154Q1168 360 1179.0 349.0Q1190 338 1190 324Q1190 309 1179.5 298.5Q1169 288 1154 288H723Q708 288 697.5 298.5Q687 309 687 324Q687 342 695.0 349.0Q703 356 715.0 358.0Q727 360 741.0 360.0Q755 360 767.0 363.5Q779 367 787.0 377.5Q795 388 795 411V575H723Q708 575 697.5 585.5Q687 596 687 611Z" style="fill:#ffffff;stroke:none" transform="scale(1,-1) translate(0,-256)" /></svg>