<?xml version="1.0" encoding="utf-8" ?>
<svg baseProfile="full" height="256" version="1.1" width="256" xmlns="http://www.w3.org/2000/svg" xmlns:ev="http://www.w3.org/2001/xml-events" xmlns:xlink="http://www.w3.org/1999/xlink"><defs /><path d="M1381 1510Q1359 1518 1346.5 1537.0Q1334 1556 1334 1579Q1334 1592 1339.5 1616.5Q1345 1641 1354.5 1665.0Q1364 1689 1377.0 1707.0Q1390 1725 1406 1725Q1422 1725 1435.0 1706.5Q1448 1688 1457.5 1663.0Q1467 1638 1472.5 1613.5Q1478 1589 1478 1576Q1478 1553 1465.0 1535.5Q1452 1518 1431 1510Q1449 1510 1464.0 1503.0Q1479 1496 1479 1474Q1479 1460 1468.0 1449.0Q1457 1438 1443 1438H1370Q1356 1438 1345.0 1449.0Q1334 1460 1334 1474Q1334 1495 1348.5 1502.5Q1363 1510 1381 1510ZM1016 144H1793Q1810 144 1823.0 155.5Q1836 167 1836 184Q1836 194 1831 202L1797 266Q1792 277 1781.5 282.5Q1771 288 1759 288H1051Q1026 288 1013 266Q1009 259 1002.5 248.5Q996 238 989.5 226.5Q983 215 978.5 204.0Q974 193 974 185Q974 168 986.5 156.0Q999 144 1016 144ZM1722 360H1090Q1073 360 1060.0 371.5Q1047 383 1047 400Q1047 410 1052 418L1086 482Q1091 493 1101.5 498.5Q1112 504 1124 504H1688Q1700 504 1710.5 498.5Q1721 493 1726 482L1760 418Q1765 408 1765 399Q1765 382 1752.0 371.0Q1739 360 1722 360ZM1162 575H1651Q1668 575 1681.0 586.5Q1694 598 1694 615Q1694 625 1689 633L1655 697Q1650 707 1639.0 712.5Q1628 718 1617 718H1196Q1170 718 1158 697L1123 633Q1119 626 1119 616Q1119 599 1132.0 587.0Q1145 575 1162 575ZM1442 827Q1442 812 1431.5 801.5Q1421 791 1406 791Q1391 791 1380.5 801.5Q1370 812 1370 827Q1370 842 1380.5 852.5Q1391 863 1406 863Q1421 863 1431.5 852.5Q1442 842 1442 827Z" style="fill:#ffb02e;stroke:none" transform="scale(1,-1) translate(0,-256)" /></svg>