<?xml version="1.0" encoding="utf-8" ?>
<svg baseProfile="full" height="256" version="1.1" width="256" xmlns="http://www.w3.org/2000/svg" xmlns:ev="http://www.w3.org/2001/xml-events" xmlns:xlink="http://www.w3.org/1999/xlink"><defs /><path d="M1622 1151H1190V1294Q1209 1297 1239.0 1303.0Q1269 1309 1300.5 1315.0Q1332 1321 1360.5 1325.5Q1389 1330 1406 1330Q1422 1330 1451.0 1325.5Q1480 1321 1511.5 1315.0Q1543 1309 1573.0 1303.0Q1603 1297 1622 1294ZM1981 791V575H2125V360H2197V144H2268V-72H2340V-287H1550L1406 -215L1262 -287H472V-72H543V144H615V360H687V575H831V791Z" style="fill:#a56953;stroke:none" transform="scale(1,-1) translate(0,-256)" /></svg>