<?xml version="1.0" encoding="utf-8" ?>
<svg baseProfile="full" height="256" version="1.1" width="256" xmlns="http://www.w3.org/2000/svg" xmlns:ev="http://www.w3.org/2001/xml-events" xmlns:xlink="http://www.w3.org/1999/xlink"><defs /><path d="M1164 1294Q1150 1294 1139.5 1304.5Q1129 1315 1129 1329Q1129 1345 1134.5 1352.5Q1140 1360 1148.5 1362.5Q1157 1365 1168.0 1364.5Q1179 1364 1190 1366Q1212 1369 1241.0 1375.0Q1270 1381 1300.0 1387.0Q1330 1393 1358.0 1397.5Q1386 1402 1406 1402Q1425 1402 1453.0 1397.5Q1481 1393 1511.0 1387.0Q1541 1381 1570.5 1375.0Q1600 1369 1622 1366Q1632 1364 1644.0 1364.5Q1656 1365 1666.0 1362.5Q1676 1360 1682.5 1353.5Q1689 1347 1689 1331Q1689 1316 1679.0 1305.0Q1669 1294 1654 1294ZM2016 719H796Q781 719 770.0 729.5Q759 740 759 755Q759 770 770.0 780.5Q781 791 796 791H2016Q2031 791 2042.0 780.5Q2053 770 2053 755Q2053 739 2042.0 729.0Q2031 719 2016 719ZM2162 503H650Q634 503 624.5 514.5Q615 526 615 541Q615 555 625.5 565.0Q636 575 650 575H2159Q2175 575 2186.0 564.5Q2197 554 2197 538Q2197 524 2186.5 513.5Q2176 503 2162 503ZM543 324Q543 338 554.0 349.0Q565 360 579 360H2233Q2247 360 2257.5 349.0Q2268 338 2268 324Q2268 309 2258.0 298.5Q2248 288 2233 288H579Q564 288 553.5 298.5Q543 309 543 324ZM2340 107Q2340 93 2329.0 82.5Q2318 72 2304 72H508Q492 72 482.0 82.5Q472 93 472 109Q472 124 482.5 134.0Q493 144 508 144H2304Q2320 144 2330.0 133.5Q2340 123 2340 107ZM436 -144Q422 -144 411.0 -133.0Q400 -122 400 -108Q400 -93 410.5 -82.5Q421 -72 436 -72H2376Q2391 -72 2401.5 -82.5Q2412 -93 2412 -108Q2412 -122 2401.0 -133.0Q2390 -144 2376 -144Z" style="fill:#212121;stroke:none" transform="scale(1,-1) translate(0,-256)" /></svg>