<?xml version="1.0" encoding="utf-8" ?>
<svg baseProfile="full" height="256" version="1.1" width="256" xmlns="http://www.w3.org/2000/svg" xmlns:ev="http://www.w3.org/2001/xml-events" xmlns:xlink="http://www.w3.org/1999/xlink"><defs /><path d="M1299 1133Q1299 1116 1286 1105H1240Q1227 1116 1227 1133Q1227 1147 1238.0 1157.5Q1249 1168 1263 1168Q1277 1168 1288.0 1157.5Q1299 1147 1299 1133ZM1602 1133Q1602 1116 1589 1105H1543Q1530 1116 1530 1133Q1530 1147 1541.0 1157.5Q1552 1168 1566 1168Q1580 1168 1591.0 1157.5Q1602 1147 1602 1133Z" style="fill:#000000;stroke:none" transform="scale(1,-1) translate(0,-256)" /></svg>