<?xml version="1.0" encoding="utf-8" ?>
<svg baseProfile="full" height="256" version="1.1" width="256" xmlns="http://www.w3.org/2000/svg" xmlns:ev="http://www.w3.org/2001/xml-events" xmlns:xlink="http://www.w3.org/1999/xlink"><defs /><path d="M1524 1712Q1567 1712 1605.0 1690.0Q1643 1668 1666 1632Q1688 1597 1712.5 1582.0Q1737 1567 1761.5 1556.5Q1786 1546 1809.0 1531.0Q1832 1516 1852 1482Q1863 1463 1869.0 1442.0Q1875 1421 1875 1399Q1875 1371 1867.5 1351.0Q1860 1331 1850.5 1314.5Q1841 1298 1833.5 1281.0Q1826 1264 1826 1242V952Q1826 902 1798.0 863.5Q1770 825 1723 808L1591 762V1281Q1571 1305 1559.0 1327.0Q1547 1349 1544 1381Q1509 1376 1475.5 1386.0Q1442 1396 1416 1419Q1370 1379 1308 1379Q1303 1379 1298.0 1379.5Q1293 1380 1288 1381Q1286 1353 1273.5 1327.0Q1261 1301 1241 1281V762L1109 808Q1062 825 1034.0 863.5Q1006 902 1006 952V1243Q1006 1264 998.5 1280.5Q991 1297 982.0 1314.0Q973 1331 965.5 1351.0Q958 1371 958 1399Q958 1453 988.5 1495.5Q1019 1538 1070 1556Q1132 1578 1168 1634Q1191 1671 1227.5 1691.5Q1264 1712 1308 1712Q1323 1712 1336.5 1708.5Q1350 1705 1363.0 1701.0Q1376 1697 1389.0 1693.5Q1402 1690 1416 1690Q1430 1690 1443.5 1693.5Q1457 1697 1470.0 1701.0Q1483 1705 1496.0 1708.5Q1509 1712 1524 1712Z" style="fill:#f1a11e;stroke:none" transform="scale(1,-1) translate(0,-256)" /></svg>