<?xml version="1.0" encoding="utf-8" ?>
<svg baseProfile="full" height="256" version="1.1" width="256" xmlns="http://www.w3.org/2000/svg" xmlns:ev="http://www.w3.org/2001/xml-events" xmlns:xlink="http://www.w3.org/1999/xlink"><defs /><path d="M1384 1523Q1401 1523 1410.5 1515.0Q1420 1507 1428 1493Q1453 1450 1479.0 1429.0Q1505 1408 1535.0 1399.5Q1565 1391 1600.5 1391.5Q1636 1392 1681 1392Q1703 1392 1722.0 1383.5Q1741 1375 1754.5 1360.5Q1768 1346 1775.5 1327.0Q1783 1308 1783 1286Q1783 1278 1783.5 1271.0Q1784 1264 1783 1256Q1778 1170 1772.5 1085.5Q1767 1001 1761 915Q1760 899 1754.5 882.0Q1749 865 1744 850Q1727 811 1700.0 779.0Q1673 747 1638.5 724.5Q1604 702 1564.0 690.0Q1524 678 1482 678H1348Q1306 678 1266.0 690.0Q1226 702 1191.5 724.5Q1157 747 1129.5 778.5Q1102 810 1086 850Q1080 865 1075.5 882.0Q1071 899 1069 915Q1064 990 1059.0 1064.5Q1054 1139 1049 1214Q1048 1230 1050.5 1249.0Q1053 1268 1055 1285Q1057 1303 1058.5 1319.5Q1060 1336 1065 1354Q1076 1391 1098.5 1422.5Q1121 1454 1151.0 1476.0Q1181 1498 1217.5 1510.5Q1254 1523 1293 1523Z" style="fill:#ffc83d;stroke:none" transform="scale(1,-1) translate(0,-256)" /></svg>