<?xml version="1.0" encoding="utf-8" ?>
<svg baseProfile="full" height="256" version="1.1" width="256" xmlns="http://www.w3.org/2000/svg" xmlns:ev="http://www.w3.org/2001/xml-events" xmlns:xlink="http://www.w3.org/1999/xlink"><defs /><path d="M1351 998Q1351 1005 1356.0 1022.5Q1361 1040 1367.5 1059.0Q1374 1078 1380.5 1095.5Q1387 1113 1390 1122Q1397 1141 1416 1141Q1436 1141 1443 1122Q1446 1114 1452.5 1096.0Q1459 1078 1466.0 1058.5Q1473 1039 1478.0 1022.0Q1483 1005 1483 998Q1483 983 1471.0 973.0Q1459 963 1445 963H1390Q1375 963 1363.0 972.5Q1351 982 1351 998Z" style="fill:#ed9200;stroke:none" transform="scale(1,-1) translate(0,-256)" /></svg>