<?xml version="1.0" encoding="utf-8" ?>
<svg baseProfile="full" height="256" version="1.1" width="256" xmlns="http://www.w3.org/2000/svg" xmlns:ev="http://www.w3.org/2001/xml-events" xmlns:xlink="http://www.w3.org/1999/xlink"><defs /><path d="M1308 1284Q1316 1284 1321.0 1279.0Q1326 1274 1326 1266Q1326 1258 1321.0 1253.0Q1316 1248 1308 1248H1165Q1157 1248 1152.0 1253.0Q1147 1258 1147 1266Q1147 1274 1152.0 1279.0Q1157 1284 1165 1284ZM1664 1284Q1672 1284 1677.0 1279.0Q1682 1274 1682 1266Q1682 1258 1677.0 1253.0Q1672 1248 1664 1248H1522Q1514 1248 1509.0 1253.0Q1504 1258 1504 1266Q1504 1274 1509.0 1279.0Q1514 1284 1522 1284Z" style="fill:#d37034;stroke:none" transform="scale(1,-1) translate(0,-256)" /></svg>