<?xml version="1.0" encoding="utf-8" ?>
<svg baseProfile="full" height="256" version="1.1" width="256" xmlns="http://www.w3.org/2000/svg" xmlns:ev="http://www.w3.org/2001/xml-events" xmlns:xlink="http://www.w3.org/1999/xlink"><defs /><path d="M1360 1123Q1360 1115 1355.5 1110.0Q1351 1105 1343 1105H1165Q1156 1105 1152.5 1110.0Q1149 1115 1149 1123Q1149 1142 1159.0 1158.0Q1169 1174 1184.5 1186.0Q1200 1198 1218.5 1205.0Q1237 1212 1254 1212Q1270 1212 1289.0 1205.0Q1308 1198 1323.5 1186.0Q1339 1174 1349.5 1157.5Q1360 1141 1360 1123ZM1679 1123Q1679 1115 1675.5 1110.0Q1672 1105 1663 1105H1485Q1477 1105 1472.5 1110.0Q1468 1115 1468 1123Q1468 1141 1478.5 1157.5Q1489 1174 1504.5 1186.0Q1520 1198 1538.5 1205.0Q1557 1212 1574 1212Q1591 1212 1609.5 1205.0Q1628 1198 1643.5 1186.0Q1659 1174 1669.0 1158.0Q1679 1142 1679 1123Z" style="fill:#ffffff;stroke:none" transform="scale(1,-1) translate(0,-256)" /></svg>