<?xml version="1.0" encoding="utf-8" ?>
<svg baseProfile="full" height="256" version="1.1" width="256" xmlns="http://www.w3.org/2000/svg" xmlns:ev="http://www.w3.org/2001/xml-events" xmlns:xlink="http://www.w3.org/1999/xlink"><defs /><path d="M2074 86V-88Q2074 -131 2057.0 -167.0Q2040 -203 2011.0 -229.5Q1982 -256 1944.0 -270.5Q1906 -285 1865 -285Q1839 -285 1819.0 -278.0Q1799 -271 1776 -262L927 72Q935 103 954.0 127.5Q973 152 998.5 169.0Q1024 186 1054.5 194.5Q1085 203 1115 203Q1132 203 1148.5 201.0Q1165 199 1182 196L1603 123Q1634 117 1659.0 112.0Q1684 107 1708.0 102.5Q1732 98 1757.5 94.0Q1783 90 1814 86Q1840 83 1857.5 84.5Q1875 86 1901 86Z" style="fill:#fdbb11;stroke:none" transform="scale(1,-1) translate(0,-256)" /></svg>