<?xml version="1.0" encoding="utf-8" ?>
<svg baseProfile="full" height="256" version="1.1" width="256" xmlns="http://www.w3.org/2000/svg" xmlns:ev="http://www.w3.org/2001/xml-events" xmlns:xlink="http://www.w3.org/1999/xlink"><defs /><path d="M928 71Q954 71 971.5 69.5Q989 68 1015 71Q1046 75 1071.5 79.5Q1097 84 1121.0 89.0Q1145 94 1170.0 99.0Q1195 104 1226 110L1647 189Q1664 192 1682.0 194.0Q1700 196 1718 196Q1746 196 1775.0 189.0Q1804 182 1829.0 167.5Q1854 153 1872.5 131.0Q1891 109 1898 79L1053 -261Q1030 -270 1010.0 -277.0Q990 -284 965 -284Q924 -284 886.0 -269.5Q848 -255 819.0 -228.5Q790 -202 772.5 -166.0Q755 -130 755 -87V71Z" style="fill:#ffc83d;stroke:none" transform="scale(1,-1) translate(0,-256)" /></svg>