<?xml version="1.0" encoding="utf-8" ?>
<svg baseProfile="full" height="256" version="1.1" width="256" xmlns="http://www.w3.org/2000/svg" xmlns:ev="http://www.w3.org/2001/xml-events" xmlns:xlink="http://www.w3.org/1999/xlink"><defs /><path d="M1486 874Q1478 874 1457.5 883.0Q1437 892 1415 892Q1404 892 1392.5 889.0Q1381 886 1371.0 883.0Q1361 880 1354.0 877.0Q1347 874 1344 874Q1337 874 1331.5 878.5Q1326 883 1326 891Q1326 901 1337.0 908.0Q1348 915 1362.5 919.0Q1377 923 1392.0 925.0Q1407 927 1415 927Q1422 927 1437.0 925.0Q1452 923 1467.0 919.0Q1482 915 1493.0 908.0Q1504 901 1504 892Q1504 884 1499.0 879.0Q1494 874 1486 874Z" style="fill:#990839;stroke:none" transform="scale(1,-1) translate(0,-256)" /></svg>