<?xml version="1.0" encoding="utf-8" ?>
<svg baseProfile="full" height="256" version="1.1" width="256" xmlns="http://www.w3.org/2000/svg" xmlns:ev="http://www.w3.org/2001/xml-events" xmlns:xlink="http://www.w3.org/1999/xlink"><defs /><path d="M1326 1132Q1326 1125 1324.0 1118.5Q1322 1112 1320 1105H1207Q1201 1117 1201 1132Q1201 1158 1219.0 1176.5Q1237 1195 1263 1195Q1289 1195 1307.5 1176.5Q1326 1158 1326 1132ZM1629 1132Q1629 1125 1627.0 1118.5Q1625 1112 1623 1105H1510Q1504 1117 1504 1132Q1504 1158 1522.0 1176.5Q1540 1195 1566 1195Q1592 1195 1610.5 1176.5Q1629 1158 1629 1132Z" style="fill:#7d4533;stroke:none" transform="scale(1,-1) translate(0,-256)" /></svg>