<?xml version="1.0" encoding="utf-8" ?>
<svg baseProfile="full" height="256" version="1.1" width="256" xmlns="http://www.w3.org/2000/svg" xmlns:ev="http://www.w3.org/2001/xml-events" xmlns:xlink="http://www.w3.org/1999/xlink"><defs /><path d="M1415 499Q1382 499 1353.0 511.0Q1324 523 1302.0 544.5Q1280 566 1267.0 594.5Q1254 623 1254 656V841Q1254 874 1267.0 902.5Q1280 931 1302.0 952.5Q1324 974 1353.0 986.0Q1382 998 1415 998Q1448 998 1477.0 986.0Q1506 974 1527.5 952.5Q1549 931 1562.0 902.5Q1575 874 1575 841V656Q1575 623 1562.0 594.5Q1549 566 1527.0 545.0Q1505 524 1476.0 511.5Q1447 499 1415 499Z" style="fill:#fcb100;stroke:none" transform="scale(1,-1) translate(0,-256)" /></svg>