<?xml version="1.0" encoding="utf-8" ?>
<svg baseProfile="full" height="256" version="1.1" width="256" xmlns="http://www.w3.org/2000/svg" xmlns:ev="http://www.w3.org/2001/xml-events" xmlns:xlink="http://www.w3.org/1999/xlink"><defs /><path d="M1240 1148Q1235 1148 1230.5 1152.5Q1226 1157 1226 1162Q1226 1168 1230.0 1172.5Q1234 1177 1240 1177Q1246 1177 1250.0 1172.5Q1254 1168 1254 1162Q1254 1157 1249.5 1152.5Q1245 1148 1240 1148ZM1543 1148Q1538 1148 1533.5 1152.5Q1529 1157 1529 1162Q1529 1168 1533.0 1172.5Q1537 1177 1543 1177Q1549 1177 1553.0 1172.5Q1557 1168 1557 1162Q1557 1157 1552.5 1152.5Q1548 1148 1543 1148Z" style="fill:#ffffff;stroke:none" transform="scale(1,-1) translate(0,-256)" /></svg>