<?xml version="1.0" encoding="utf-8" ?>
<svg baseProfile="full" height="256" version="1.1" width="256" xmlns="http://www.w3.org/2000/svg" xmlns:ev="http://www.w3.org/2001/xml-events" xmlns:xlink="http://www.w3.org/1999/xlink"><defs /><path d="M1850 1069Q1850 992 1809.0 946.0Q1768 900 1690 900Q1623 900 1550.0 931.0Q1477 962 1407.0 1013.5Q1337 1065 1274.0 1133.0Q1211 1201 1163.0 1275.0Q1115 1349 1087.0 1424.0Q1059 1499 1059 1565Q1059 1641 1100.0 1687.0Q1141 1733 1219 1733Q1286 1733 1359.0 1702.0Q1432 1671 1502.5 1619.5Q1573 1568 1636.0 1500.5Q1699 1433 1746.5 1359.0Q1794 1285 1822.0 1210.0Q1850 1135 1850 1069Z" style="fill:#ff6dc6;stroke:none" transform="scale(1,-1) translate(0,-256)" /></svg>