<?xml version="1.0" encoding="utf-8" ?>
<svg baseProfile="full" height="256" version="1.1" width="256" xmlns="http://www.w3.org/2000/svg" xmlns:ev="http://www.w3.org/2001/xml-events" xmlns:xlink="http://www.w3.org/1999/xlink"><defs /><path d="M1902 1522Q1962 1462 2021.0 1402.5Q2080 1343 2140 1283Q2271 1151 2340.0 985.0Q2409 819 2409 633Q2409 506 2376.5 389.0Q2344 272 2284.0 169.5Q2224 67 2140.5 -17.0Q2057 -101 1955.0 -160.5Q1853 -220 1735.5 -253.0Q1618 -286 1491 -286Q1306 -286 1139.5 -217.0Q973 -148 842 -17L602 223L1902 1522Z" style="fill:#6d4534;stroke:none" transform="scale(1,-1) translate(0,-256)" /></svg>