<?xml version="1.0" encoding="utf-8" ?>
<svg baseProfile="full" height="256" version="1.1" width="256" xmlns="http://www.w3.org/2000/svg" xmlns:ev="http://www.w3.org/2001/xml-events" xmlns:xlink="http://www.w3.org/1999/xlink"><defs /><path d="M2104 1011Q2104 897 2076.0 791.5Q2048 686 1997 584Q1979 549 1971.5 519.0Q1964 489 1959.5 461.5Q1955 434 1951.5 408.0Q1948 382 1939.0 356.0Q1930 330 1912.5 302.0Q1895 274 1863 242Q1846 225 1824.5 208.5Q1803 192 1779.5 179.0Q1756 166 1731.0 158.5Q1706 151 1681 151Q1630 151 1585.5 139.0Q1541 127 1496 105Q1455 85 1423.0 61.5Q1391 38 1358 7Q1331 -19 1296.0 -32.5Q1261 -46 1223 -46Q1183 -46 1151 -27Q1116 -7 1086.5 6.5Q1057 20 1016 26Q895 44 792.5 89.5Q690 135 602 223Q551 274 513.0 333.5Q475 393 450.0 458.5Q425 524 412.5 593.5Q400 663 400 735Q400 845 428.0 955.0Q456 1065 507 1162Q564 1270 680 1309Q723 1323 760.0 1346.0Q797 1369 831 1398Q866 1427 894.5 1460.5Q923 1494 944 1534Q973 1588 1015.0 1625.5Q1057 1663 1116 1682Q1182 1704 1251.5 1714.5Q1321 1725 1390 1725Q1544 1725 1675.0 1671.5Q1806 1618 1901.0 1522.5Q1996 1427 2050.0 1296.0Q2104 1165 2104 1011Z" style="fill:#a56953;stroke:none" transform="scale(1,-1) translate(0,-256)" /></svg>