<?xml version="1.0" encoding="utf-8" ?>
<svg baseProfile="full" height="256" version="1.1" width="256" xmlns="http://www.w3.org/2000/svg" xmlns:ev="http://www.w3.org/2001/xml-events" xmlns:xlink="http://www.w3.org/1999/xlink"><defs /><path d="M1800 646Q1800 632 1804.0 618.5Q1808 605 1808 590Q1808 545 1782.5 496.5Q1757 448 1717.5 408.0Q1678 368 1630.0 342.5Q1582 317 1536 317Q1521 317 1507.0 321.0Q1493 325 1478 325Q1460 325 1442 317H1441Q1427 311 1416.5 301.0Q1406 291 1398 279Q1371 242 1330.0 222.0Q1289 202 1244 202Q1214 202 1197.5 208.5Q1181 215 1169.5 223.5Q1158 232 1147.0 240.0Q1136 248 1116 250Q1066 256 1020.0 266.0Q974 276 932.0 293.0Q890 310 851.0 335.5Q812 361 775 398Q700 473 663.5 570.0Q627 667 627 773Q627 845 643.0 918.0Q659 991 691 1056Q719 1115 787 1123Q840 1129 888.0 1157.0Q936 1185 975 1219Q994 1236 1014.0 1255.5Q1034 1275 1051.0 1297.0Q1068 1319 1081.5 1342.5Q1095 1366 1102 1392Q1110 1423 1130.0 1444.5Q1150 1466 1181 1475Q1223 1487 1266.5 1492.5Q1310 1498 1353 1498Q1466 1498 1562.0 1458.5Q1658 1419 1727.5 1349.5Q1797 1280 1836.5 1184.0Q1876 1088 1876 975Q1876 895 1857.0 825.0Q1838 755 1808 683Q1800 664 1800 646Z" style="fill:#9b9b9b;stroke:none" transform="scale(1,-1) translate(0,-256)" /></svg>