<?xml version="1.0" encoding="utf-8" ?>
<svg baseProfile="full" height="256" version="1.1" width="256" xmlns="http://www.w3.org/2000/svg" xmlns:ev="http://www.w3.org/2001/xml-events" xmlns:xlink="http://www.w3.org/1999/xlink"><defs /><path d="M1998 993Q1998 895 1974.0 805.0Q1950 715 1908 627Q1894 598 1888.5 572.5Q1883 547 1881 515Q1879 464 1852.0 416.0Q1825 368 1790 333Q1754 296 1707.5 270.5Q1661 245 1608 243Q1570 242 1541.0 233.0Q1512 224 1479 207Q1443 189 1419.5 165.0Q1396 141 1372.5 119.5Q1349 98 1320.0 83.0Q1291 68 1243 68Q1216 68 1196.5 76.0Q1177 84 1159.0 94.5Q1141 105 1120.5 115.0Q1100 125 1072 128Q946 141 842.0 192.5Q738 244 663.5 325.5Q589 407 547.5 515.5Q506 624 506 752Q506 803 513.5 856.0Q521 909 535.0 961.0Q549 1013 570.0 1062.5Q591 1112 617 1156Q652 1212 717 1221Q771 1228 817.5 1255.5Q864 1283 904 1317Q945 1352 979.0 1394.0Q1013 1436 1030 1487Q1041 1518 1060.0 1539.5Q1079 1561 1110 1573Q1170 1596 1239.0 1607.5Q1308 1619 1373 1619Q1508 1619 1623.0 1572.0Q1738 1525 1821.0 1441.5Q1904 1358 1951.0 1243.0Q1998 1128 1998 993Z" style="fill:#d3d3d3;stroke:none" transform="scale(1,-1) translate(0,-256)" /></svg>