<?xml version="1.0" encoding="utf-8" ?>
<svg baseProfile="full" height="256" version="1.1" width="256" xmlns="http://www.w3.org/2000/svg" xmlns:ev="http://www.w3.org/2001/xml-events" xmlns:xlink="http://www.w3.org/1999/xlink"><defs /><path d="M2293 719Q2293 596 2261.5 483.0Q2230 370 2172.0 271.5Q2114 173 2033.0 92.0Q1952 11 1853.5 -47.0Q1755 -105 1641.5 -136.5Q1528 -168 1406 -168Q1283 -168 1170.0 -136.5Q1057 -105 958.5 -47.0Q860 11 779.0 92.0Q698 173 640.0 271.5Q582 370 550.5 483.5Q519 597 519 719Q519 841 550.5 954.5Q582 1068 640.0 1166.5Q698 1265 779.0 1346.0Q860 1427 958.5 1485.0Q1057 1543 1170.5 1574.5Q1284 1606 1406 1606Q1528 1606 1641.5 1574.5Q1755 1543 1853.5 1485.0Q1952 1427 2033.0 1346.0Q2114 1265 2172.0 1166.5Q2230 1068 2261.5 954.5Q2293 841 2293 719Z" style="fill:#e6e6e6;stroke:none" transform="scale(1,-1) translate(0,-256)" /></svg>