<?xml version="1.0" encoding="utf-8" ?>
<svg baseProfile="full" height="256" version="1.1" width="256" xmlns="http://www.w3.org/2000/svg" xmlns:ev="http://www.w3.org/2001/xml-events" xmlns:xlink="http://www.w3.org/1999/xlink"><defs /><path d="M853 486Q853 493 849.5 502.5Q846 512 842 518L861 533L1141 303L842 36Q835 35 828.0 34.5Q821 34 814 34Q781 34 742.5 44.5Q704 55 664.5 73.5Q625 92 586.0 117.0Q547 142 514.5 170.5Q482 199 457.5 230.5Q433 262 421 293Q418 301 414.5 311.0Q411 321 411 330Q411 347 426.5 354.5Q442 362 455 365L786 440Q794 442 805.5 445.5Q817 449 827.5 454.0Q838 459 845.5 467.0Q853 475 853 486ZM1970 486Q1970 475 1977.5 467.0Q1985 459 1995.5 454.0Q2006 449 2017.5 445.5Q2029 442 2037 440L2368 365Q2381 362 2396.5 354.5Q2412 347 2412 330Q2412 321 2408.5 311.0Q2405 301 2402 293Q2385 246 2339.5 200.0Q2294 154 2237.0 117.0Q2180 80 2119.0 57.0Q2058 34 2009 34Q2002 34 1995.0 34.5Q1988 35 1981 36L1682 303L1962 533L1981 518Q1977 512 1973.5 502.5Q1970 493 1970 486Z" style="fill:#ff5e59;stroke:none" transform="scale(1,-1) translate(0,-256)" /></svg>