<?xml version="1.0" encoding="utf-8" ?>
<svg baseProfile="full" height="256" version="1.1" width="256" xmlns="http://www.w3.org/2000/svg" xmlns:ev="http://www.w3.org/2001/xml-events" xmlns:xlink="http://www.w3.org/1999/xlink"><defs /><path d="M787 574Q787 584 783.5 593.5Q780 603 778 612L800 621L915 445L657 381Q649 393 637.5 415.0Q626 437 615.0 461.5Q604 486 596.0 508.5Q588 531 588 545Q588 553 591.5 564.5Q595 576 606 576Q645 576 682.5 566.0Q720 556 759 556Q768 556 777.5 559.0Q787 562 787 574ZM2027 574Q2027 562 2036.5 559.0Q2046 556 2055 556Q2093 556 2131.0 566.0Q2169 576 2207 576Q2218 576 2222.0 564.5Q2226 553 2226 545Q2226 532 2218.0 509.0Q2210 486 2199.0 461.5Q2188 437 2176.0 415.0Q2164 393 2157 381L1898 445L2014 621L2035 612Q2033 603 2030.0 593.5Q2027 584 2027 574Z" style="fill:#f8312f;stroke:none" transform="scale(1,-1) translate(0,-256)" /></svg>