<?xml version="1.0" encoding="utf-8" ?>
<svg baseProfile="full" height="256" version="1.1" width="256" xmlns="http://www.w3.org/2000/svg" xmlns:ev="http://www.w3.org/2001/xml-events" xmlns:xlink="http://www.w3.org/1999/xlink"><defs /><path d="M714 1006Q714 1095 737.0 1178.0Q760 1261 802.5 1332.5Q845 1404 904.0 1463.0Q963 1522 1034.5 1564.5Q1106 1607 1189.0 1630.0Q1272 1653 1361 1653H1478Q1567 1653 1650.0 1630.0Q1733 1607 1804.5 1564.5Q1876 1522 1935.0 1463.0Q1994 1404 2036.5 1332.5Q2079 1261 2102.0 1178.0Q2125 1095 2125 1006V890Q2125 801 2102.0 718.0Q2079 635 2036.5 563.5Q1994 492 1935.0 433.0Q1876 374 1804.5 331.5Q1733 289 1650.0 266.0Q1567 243 1478 243H1361Q1272 243 1189.0 266.0Q1106 289 1034.5 331.5Q963 374 904.0 433.0Q845 492 802.5 563.5Q760 635 737.0 718.0Q714 801 714 890Z" style="fill:#ff8257;stroke:none" transform="scale(1,-1) translate(0,-256)" /></svg>