<?xml version="1.0" encoding="utf-8" ?>
<svg baseProfile="full" height="256" version="1.1" width="256" xmlns="http://www.w3.org/2000/svg" xmlns:ev="http://www.w3.org/2001/xml-events" xmlns:xlink="http://www.w3.org/1999/xlink"><defs /><path d="M1122 361 1408 269 1694 361 1774 334Q1762 320 1762 301Q1762 283 1771.5 270.0Q1781 257 1793 246Q1838 203 1886.0 162.5Q1934 122 1982.0 81.5Q2030 41 2077.0 0.0Q2124 -41 2169 -84Q2174 -89 2177.5 -93.5Q2181 -98 2181 -105Q2181 -115 2174.0 -124.5Q2167 -134 2162 -142Q2136 -176 2098.5 -201.5Q2061 -227 2017.5 -244.5Q1974 -262 1928.5 -270.5Q1883 -279 1842 -279Q1773 -279 1716.5 -261.5Q1660 -244 1614.5 -217.5Q1569 -191 1534.5 -160.0Q1500 -129 1475.0 -102.0Q1450 -75 1434.0 -56.5Q1418 -38 1411 -37V-38L1408 -37L1406 -38V-37Q1397 -38 1381.0 -57.0Q1365 -76 1340.0 -102.5Q1315 -129 1280.5 -160.0Q1246 -191 1201.0 -217.5Q1156 -244 1099.5 -261.5Q1043 -279 975 -279Q934 -279 888.5 -270.5Q843 -262 799.5 -244.5Q756 -227 718.5 -201.5Q681 -176 655 -142Q650 -134 643.0 -124.5Q636 -115 636 -105Q636 -98 639.5 -93.5Q643 -89 648 -84Q693 -41 740.0 0.0Q787 41 835.0 81.5Q883 122 931.0 162.5Q979 203 1024 246Q1036 257 1045.5 270.0Q1055 283 1055 301Q1055 320 1043 334Z" style="fill:#ff5e59;stroke:none" transform="scale(1,-1) translate(0,-256)" /></svg>