<?xml version="1.0" encoding="utf-8" ?>
<svg baseProfile="full" height="256" version="1.1" width="256" xmlns="http://www.w3.org/2000/svg" xmlns:ev="http://www.w3.org/2001/xml-events" xmlns:xlink="http://www.w3.org/1999/xlink"><defs /><path d="M714 773Q688 773 666.0 782.5Q644 792 627.0 809.0Q610 826 600.5 848.0Q591 870 591 896Q591 921 600.5 944.0Q610 967 626.5 983.5Q643 1000 665.5 1010.0Q688 1020 714 1020Q739 1020 762.0 1010.0Q785 1000 801.5 983.5Q818 967 828.0 944.0Q838 921 838 896Q838 870 828.0 848.0Q818 826 801.5 809.0Q785 792 762.0 782.5Q739 773 714 773ZM2093 773Q2067 773 2045.0 782.5Q2023 792 2006.0 809.0Q1989 826 1979.5 848.0Q1970 870 1970 896Q1970 921 1979.5 944.0Q1989 967 2005.5 983.5Q2022 1000 2044.5 1010.0Q2067 1020 2093 1020Q2118 1020 2141.0 1010.0Q2164 1000 2180.5 983.5Q2197 967 2207.0 944.0Q2217 921 2217 896Q2217 870 2207.0 848.0Q2197 826 2180.5 809.0Q2164 792 2141.0 782.5Q2118 773 2093 773Z" style="fill:#1c1c1c;stroke:none" transform="scale(1,-1) translate(0,-256)" /></svg>