<?xml version="1.0" encoding="utf-8" ?>
<svg baseProfile="full" height="256" version="1.1" width="256" xmlns="http://www.w3.org/2000/svg" xmlns:ev="http://www.w3.org/2001/xml-events" xmlns:xlink="http://www.w3.org/1999/xlink"><defs /><path d="M1763 379 2196 279Q2208 276 2213.0 270.0Q2218 264 2218 251Q2218 245 2217.0 239.0Q2216 233 2214 227Q2199 174 2167.0 141.5Q2135 109 2092.5 91.5Q2050 74 2001.5 68.0Q1953 62 1906 62Q1850 62 1808.0 81.5Q1766 101 1737.5 135.0Q1709 169 1695.0 214.5Q1681 260 1681 313Q1681 321 1681.5 329.0Q1682 337 1683 345ZM1065 339 624 281Q610 279 605.0 273.0Q600 267 600 253Q600 248 600.5 243.5Q601 239 602 234Q613 180 646.5 145.0Q680 110 724.5 89.5Q769 69 820.5 61.0Q872 53 919 53Q973 53 1014.5 73.0Q1056 93 1084.0 126.5Q1112 160 1126.5 205.0Q1141 250 1141 301Z" style="fill:#ff8687;stroke:none" transform="scale(1,-1) translate(0,-256)" /></svg>