<?xml version="1.0" encoding="utf-8" ?>
<svg baseProfile="full" height="256" version="1.1" width="256" xmlns="http://www.w3.org/2000/svg" xmlns:ev="http://www.w3.org/2001/xml-events" xmlns:xlink="http://www.w3.org/1999/xlink"><defs /><path d="M400 1311Q400 1343 418.5 1371.0Q437 1399 467 1411Q456 1406 449.5 1395.0Q443 1384 443 1372Q443 1348 462 1335L1037 1241L1307 1025Q1313 1020 1323.0 1016.5Q1333 1013 1340 1008Q1371 987 1388.5 953.5Q1406 920 1406 883V-199Q1406 -227 1386.5 -247.0Q1367 -267 1339 -267Q1325 -267 1316 -263L484 42Q446 56 423.0 88.5Q400 121 400 162ZM541 806Q541 771 554.5 737.0Q568 703 591.5 676.0Q615 649 647.0 632.5Q679 616 716 616Q747 616 772.0 628.0Q797 640 814.0 660.0Q831 680 840.5 706.5Q850 733 850 763Q850 798 838.5 827.0Q827 856 807 885L709 1026Q707 1029 703.5 1032.5Q700 1036 696 1036Q686 1036 682 1031L578 909Q541 866 541 806ZM812 195Q812 178 818.5 162.5Q825 147 836.0 134.0Q847 121 862.0 113.5Q877 106 894 106Q923 106 940.0 127.0Q957 148 957 175Q957 191 951.0 207.5Q945 224 934.0 236.5Q923 249 908.0 257.0Q893 265 876 265Q847 265 829.5 244.0Q812 223 812 195ZM1180 607Q1151 607 1134.0 586.5Q1117 566 1117 538Q1117 521 1123.0 505.5Q1129 490 1140.0 477.0Q1151 464 1166.0 456.5Q1181 449 1199 449Q1228 449 1245.0 469.5Q1262 490 1262 518Q1262 535 1256.0 551.0Q1250 567 1239.0 579.5Q1228 592 1213.0 599.5Q1198 607 1180 607Z" style="fill:#0074ba;stroke:none" transform="scale(1,-1) translate(0,-256)" /></svg>