<?xml version="1.0" encoding="utf-8" ?>
<svg baseProfile="full" height="256" version="1.1" width="256" xmlns="http://www.w3.org/2000/svg" xmlns:ev="http://www.w3.org/2001/xml-events" xmlns:xlink="http://www.w3.org/1999/xlink"><defs /><path d="M2368 1371Q2368 1340 2339 1329L1498 1023Q1452 1006 1405 1006Q1359 1006 1313 1023L473 1329Q459 1334 451.0 1345.5Q443 1357 443 1371Q443 1385 451.0 1397.0Q459 1409 473 1414L1313 1719Q1357 1735 1405 1735Q1454 1735 1498 1719L2339 1413Q2368 1402 2368 1371ZM1739 905Q1747 905 1762.0 889.0Q1777 873 1793.5 853.0Q1810 833 1825.0 813.0Q1840 793 1849 786V785Q1865 766 1872.5 742.5Q1880 719 1880 694Q1880 662 1867.5 630.5Q1855 599 1833.5 574.5Q1812 550 1783.0 535.0Q1754 520 1720 520Q1692 520 1669.0 531.0Q1646 542 1630.0 560.0Q1614 578 1605.0 602.0Q1596 626 1596 653Q1596 687 1606.5 713.0Q1617 739 1635 766L1724 896Q1726 898 1731.0 901.5Q1736 905 1739 905ZM2188 450Q2217 450 2233.5 429.0Q2250 408 2250 381Q2250 365 2244.0 349.0Q2238 333 2227.0 320.0Q2216 307 2201.0 299.0Q2186 291 2169 291Q2140 291 2122.5 312.0Q2105 333 2105 361Q2105 377 2111.5 393.0Q2118 409 2129.0 422.0Q2140 435 2155.5 442.5Q2171 450 2188 450Z" style="fill:#83cbff;stroke:none" transform="scale(1,-1) translate(0,-256)" /></svg>