<?xml version="1.0" encoding="utf-8" ?>
<svg baseProfile="full" height="256" version="1.1" width="256" xmlns="http://www.w3.org/2000/svg" xmlns:ev="http://www.w3.org/2001/xml-events" xmlns:xlink="http://www.w3.org/1999/xlink"><defs /><path d="M1837 -288Q1826 -288 1812 -281Q1706 -226 1621.0 -145.0Q1536 -64 1476.0 35.0Q1416 134 1384.0 246.5Q1352 359 1352 479V677Q1352 699 1368.0 715.0Q1384 731 1406 731Q1428 731 1444.0 715.0Q1460 699 1460 677V479Q1460 395 1478.0 315.0Q1496 235 1530.5 161.0Q1565 87 1615.0 22.0Q1665 -43 1730 -97Q1762 -123 1795.0 -143.5Q1828 -164 1863 -186Q1877 -195 1884.5 -206.0Q1892 -217 1892 -234Q1892 -256 1876.0 -272.0Q1860 -288 1837 -288Z" style="fill:#44911b;stroke:none" transform="scale(1,-1) translate(0,-256)" /></svg>