<?xml version="1.0" encoding="utf-8" ?>
<svg baseProfile="full" height="256" version="1.1" width="256" xmlns="http://www.w3.org/2000/svg" xmlns:ev="http://www.w3.org/2001/xml-events" xmlns:xlink="http://www.w3.org/1999/xlink"><defs /><path d="M1096 1199Q1096 1184 1086 1174L958 1046Q947 1035 933 1035Q918 1035 907.5 1046.0Q897 1057 897 1071Q897 1086 908 1097L1036 1225Q1046 1235 1061 1235Q1076 1235 1086.0 1224.5Q1096 1214 1096 1199ZM1887 1108Q1902 1108 1912.5 1097.5Q1923 1087 1923 1072Q1923 1057 1912.5 1046.5Q1902 1036 1887 1036H1706Q1691 1036 1680.5 1046.5Q1670 1057 1670 1072Q1670 1087 1680.5 1097.5Q1691 1108 1706 1108ZM933 253H1113Q1128 253 1138.5 242.5Q1149 232 1149 217Q1149 202 1138.5 191.5Q1128 181 1113 181H933Q918 181 907.5 191.5Q897 202 897 217Q897 232 907.5 242.5Q918 253 933 253ZM1758 381Q1774 381 1784 371L1912 243Q1922 233 1922 217Q1922 203 1911.5 192.0Q1901 181 1886 181Q1872 181 1861 192L1733 320Q1722 331 1722 345Q1722 360 1733.0 370.5Q1744 381 1758 381Z" style="fill:#f4f4f4;stroke:none" transform="scale(1,-1) translate(0,-256)" /></svg>