<?xml version="1.0" encoding="utf-8" ?>
<svg baseProfile="full" height="256" version="1.1" width="256" xmlns="http://www.w3.org/2000/svg" xmlns:ev="http://www.w3.org/2001/xml-events" xmlns:xlink="http://www.w3.org/1999/xlink"><defs /><path d="M2144 1725Q2199 1725 2248.5 1704.0Q2298 1683 2334.5 1646.0Q2371 1609 2392.5 1560.0Q2414 1511 2414 1456V-16Q2414 -72 2393.0 -121.0Q2372 -170 2335.0 -207.0Q2298 -244 2249.0 -265.0Q2200 -286 2144 -286H669Q613 -286 564.0 -265.0Q515 -244 478.5 -207.0Q442 -170 421.0 -121.0Q400 -72 400 -16V1456Q400 1511 421.0 1560.0Q442 1609 479.0 1646.0Q516 1683 564.5 1704.0Q613 1725 669 1725H2144Z" style="fill:#bebebe;stroke:none" transform="scale(1,-1) translate(0,-256)" /></svg>