<?xml version="1.0" encoding="utf-8" ?>
<svg baseProfile="full" height="256" version="1.1" width="256" xmlns="http://www.w3.org/2000/svg" xmlns:ev="http://www.w3.org/2001/xml-events" xmlns:xlink="http://www.w3.org/1999/xlink"><defs /><path d="M1562 1072Q1562 1139 1587.5 1198.0Q1613 1257 1657.5 1301.5Q1702 1346 1761.0 1371.5Q1820 1397 1887 1397Q1954 1397 2013.0 1371.5Q2072 1346 2116.5 1301.5Q2161 1257 2186.5 1198.0Q2212 1139 2212 1072Q2212 1005 2186.5 946.0Q2161 887 2116.5 842.5Q2072 798 2013.0 772.5Q1954 747 1887 747Q1820 747 1761.0 772.5Q1702 798 1657.5 842.5Q1613 887 1587.5 946.0Q1562 1005 1562 1072ZM933 748Q865 748 806.0 773.5Q747 799 703.0 842.5Q659 886 633.5 945.0Q608 1004 608 1072Q608 1139 633.5 1198.5Q659 1258 703.0 1301.5Q747 1345 806.0 1370.5Q865 1396 933 1396Q1000 1396 1059.0 1370.5Q1118 1345 1162.0 1301.0Q1206 1257 1231.5 1198.0Q1257 1139 1257 1072Q1257 1005 1231.5 946.0Q1206 887 1162.0 843.0Q1118 799 1059.0 773.5Q1000 748 933 748ZM933 -108Q866 -108 807.0 -82.5Q748 -57 703.5 -12.5Q659 32 633.5 91.0Q608 150 608 217Q608 284 633.5 343.0Q659 402 703.5 446.5Q748 491 807.0 516.5Q866 542 933 542Q1000 542 1059.0 516.5Q1118 491 1162.5 446.5Q1207 402 1232.5 343.0Q1258 284 1258 217Q1258 150 1232.5 91.0Q1207 32 1162.5 -12.5Q1118 -57 1059.0 -82.5Q1000 -108 933 -108ZM1887 -108Q1819 -108 1760.0 -82.5Q1701 -57 1657.0 -13.0Q1613 31 1587.5 90.0Q1562 149 1562 217Q1562 284 1587.5 343.5Q1613 403 1657.0 446.5Q1701 490 1760.0 515.5Q1819 541 1886 541Q1953 541 2012.5 515.5Q2072 490 2116.0 446.5Q2160 403 2185.5 343.5Q2211 284 2211 217Q2211 150 2185.5 91.0Q2160 32 2116.0 -12.5Q2072 -57 2013.0 -82.5Q1954 -108 1887 -108Z" style="fill:#d3d3d3;stroke:none" transform="scale(1,-1) translate(0,-256)" /></svg>