<?xml version="1.0" encoding="utf-8" ?>
<svg baseProfile="full" height="256" version="1.1" width="256" xmlns="http://www.w3.org/2000/svg" xmlns:ev="http://www.w3.org/2001/xml-events" xmlns:xlink="http://www.w3.org/1999/xlink"><defs /><path d="M651 288Q666 288 676.5 277.5Q687 267 687 252Q687 237 676.5 226.5Q666 216 651 216H436Q421 216 410.5 226.5Q400 237 400 252Q400 267 410.5 277.5Q421 288 436 288ZM651 0Q666 0 676.5 -10.5Q687 -21 687 -36Q687 -51 676.5 -61.5Q666 -72 651 -72H436Q421 -72 410.5 -61.5Q400 -51 400 -36Q400 -21 410.5 -10.5Q421 0 436 0ZM400 108Q400 123 410.5 133.5Q421 144 436 144H651Q666 144 676.5 133.5Q687 123 687 108Q687 93 676.5 82.5Q666 72 651 72H436Q421 72 410.5 82.5Q400 93 400 108ZM651 -144Q665 -144 676.0 -154.5Q687 -165 687 -179Q687 -194 676.5 -204.5Q666 -215 651 -215H436Q421 -215 410.5 -204.5Q400 -194 400 -179Q400 -165 411.0 -154.5Q422 -144 436 -144Z" style="fill:#990838;stroke:none" transform="scale(1,-1) translate(0,-256)" /></svg>