<?xml version="1.0" encoding="utf-8" ?>
<svg baseProfile="full" height="256" version="1.1" width="256" xmlns="http://www.w3.org/2000/svg" xmlns:ev="http://www.w3.org/2001/xml-events" xmlns:xlink="http://www.w3.org/1999/xlink"><defs /><path d="M546 213Q546 284 578.5 322.5Q611 361 686 361Q773 361 881.0 379.5Q989 398 1101.0 435.0Q1213 472 1319.0 526.5Q1425 581 1508.0 653.0Q1591 725 1641.5 814.0Q1692 903 1692 1009Q1692 1074 1674.5 1138.0Q1657 1202 1621.5 1252.5Q1586 1303 1531.5 1334.0Q1477 1365 1404 1365Q1350 1365 1299.0 1354.0Q1248 1343 1204.5 1319.5Q1161 1296 1126.0 1259.5Q1091 1223 1068 1171Q1059 1149 1052.5 1124.5Q1046 1100 1046 1076H903Q904 1136 916.5 1196.0Q929 1256 952 1311Q1021 1482 1157.5 1567.5Q1294 1653 1477 1653Q1570 1653 1658.5 1625.0Q1747 1597 1825.5 1547.0Q1904 1497 1969.5 1429.0Q2035 1361 2082.5 1280.5Q2130 1200 2156.5 1111.0Q2183 1022 2183 930Q2183 871 2173.0 814.0Q2163 757 2144 702Q2129 660 2108.0 616.5Q2087 573 2061.5 531.0Q2036 489 2008.5 449.5Q1981 410 1954 375Q1833 219 1683.0 95.0Q1533 -29 1362.0 -114.5Q1191 -200 1002.0 -245.5Q813 -291 615 -291Q578 -291 562.0 -270.5Q546 -250 546 -215V213Z" style="fill:#ca0b4a;stroke:none" transform="scale(1,-1) translate(0,-256)" /></svg>