<?xml version="1.0" encoding="utf-8" ?>
<svg baseProfile="full" height="256" version="1.1" width="256" xmlns="http://www.w3.org/2000/svg" xmlns:ev="http://www.w3.org/2001/xml-events" xmlns:xlink="http://www.w3.org/1999/xlink"><defs /><path d="M400 1369Q400 1456 428.0 1522.5Q456 1589 506.0 1634.0Q556 1679 625.5 1702.0Q695 1725 778 1725Q894 1725 1013.0 1690.0Q1132 1655 1246.0 1599.5Q1360 1544 1465.0 1474.5Q1570 1405 1657 1335Q1780 1237 1887.0 1127.0Q1994 1017 2091 892Q2188 767 2266 627Q2297 571 2324.0 512.5Q2351 454 2371.0 393.0Q2391 332 2403.0 269.0Q2415 206 2415 142Q2415 43 2383.0 -39.5Q2351 -122 2293.0 -181.5Q2235 -241 2153.0 -274.0Q2071 -307 1972 -307Q1873 -307 1773.5 -279.5Q1674 -252 1577.5 -204.0Q1481 -156 1390.5 -91.5Q1300 -27 1220.0 46.5Q1140 120 1072.0 200.0Q1004 280 954 358Q952 362 952 365Q952 371 956.5 376.0Q961 381 966 381Q970 381 975 378Q1100 301 1225.5 226.5Q1351 152 1486 92Q1533 71 1586.5 50.5Q1640 30 1695.5 14.5Q1751 -1 1807.0 -11.0Q1863 -21 1915 -21Q1967 -21 2005.0 -10.5Q2043 0 2068.0 23.0Q2093 46 2104.5 83.0Q2116 120 2116 173Q2116 264 2090.0 358.5Q2064 453 2020.5 546.5Q1977 640 1918.5 730.5Q1860 821 1795.5 904.0Q1731 987 1663.5 1060.0Q1596 1133 1534 1191Q1428 1290 1313.0 1372.5Q1198 1455 1068 1518Q1031 1536 989.5 1553.5Q948 1571 905.0 1584.0Q862 1597 818.5 1605.0Q775 1613 733 1613Q664 1613 613.0 1591.5Q562 1570 528.5 1531.5Q495 1493 479.0 1439.0Q463 1385 463 1319Q463 1247 478.0 1177.5Q493 1108 515 1040Q516 1038 516 1035Q516 1029 511.5 1025.0Q507 1021 502 1021Q493 1021 488 1030Q470 1063 454.0 1106.0Q438 1149 426.0 1195.0Q414 1241 407.0 1286.0Q400 1331 400 1369Z" style="fill:#f9c23c;stroke:none" transform="scale(1,-1) translate(0,-256)" /></svg>