<?xml version="1.0" encoding="utf-8" ?>
<svg baseProfile="full" height="256" version="1.1" width="256" xmlns="http://www.w3.org/2000/svg" xmlns:ev="http://www.w3.org/2001/xml-events" xmlns:xlink="http://www.w3.org/1999/xlink"><defs /><path d="M1337 647 901 1100Q881 1120 881 1150Q881 1180 901.5 1201.0Q922 1222 952 1222H1859Q1889 1222 1910.0 1201.0Q1931 1180 1931 1150Q1931 1120 1911 1100L1475 647H1859Q1889 647 1910.0 626.0Q1931 605 1931 575Q1931 547 1911 525L1458 54Q1448 43 1434.0 37.5Q1420 32 1406 32Q1376 32 1354 54L901 525Q881 547 881 575Q881 605 901.5 626.0Q922 647 952 647Z" style="fill:#ffffff;stroke:none" transform="scale(1,-1) translate(0,-256)" /></svg>