<?xml version="1.0" encoding="utf-8" ?>
<svg baseProfile="full" height="256" version="1.1" width="256" xmlns="http://www.w3.org/2000/svg" xmlns:ev="http://www.w3.org/2001/xml-events" xmlns:xlink="http://www.w3.org/1999/xlink"><defs /><path d="M2308 719Q2308 594 2276.0 479.0Q2244 364 2185.0 264.0Q2126 164 2043.5 81.5Q1961 -1 1861.0 -60.0Q1761 -119 1645.5 -151.0Q1530 -183 1406 -183Q1281 -183 1166.0 -151.0Q1051 -119 951.0 -60.0Q851 -1 768.5 81.5Q686 164 627.0 264.0Q568 364 536.0 479.5Q504 595 504 719Q504 843 536.0 958.5Q568 1074 627.0 1174.0Q686 1274 768.5 1356.5Q851 1439 951.0 1498.0Q1051 1557 1166.5 1589.0Q1282 1621 1406 1621Q1530 1621 1645.5 1589.0Q1761 1557 1861.0 1498.0Q1961 1439 2043.5 1356.5Q2126 1274 2185.0 1174.0Q2244 1074 2276.0 958.5Q2308 843 2308 719Z" style="fill:#e6e6e6;stroke:none" transform="scale(1,-1) translate(0,-256)" /></svg>