<?xml version="1.0" encoding="utf-8" ?>
<svg baseProfile="full" height="256" version="1.1" width="256" xmlns="http://www.w3.org/2000/svg" xmlns:ev="http://www.w3.org/2001/xml-events" xmlns:xlink="http://www.w3.org/1999/xlink"><defs /><path d="M605 -72Q578 -72 554.5 -61.5Q531 -51 513.0 -33.0Q495 -15 485.0 8.5Q475 32 475 59Q475 101 500 135L672 370Q690 395 718.0 409.0Q746 423 777 423Q804 423 827.5 413.0Q851 403 869.0 385.5Q887 368 897.0 344.5Q907 321 907 294Q907 251 882 217L710 -18Q691 -44 664.0 -58.0Q637 -72 605 -72ZM1079 -72Q1052 -72 1028.5 -61.5Q1005 -51 987.5 -33.5Q970 -16 960.0 7.5Q950 31 950 58Q950 101 975 135L1147 370Q1165 395 1192.5 409.0Q1220 423 1251 423Q1278 423 1302.0 413.0Q1326 403 1343.5 385.5Q1361 368 1371.5 344.5Q1382 321 1382 294Q1382 251 1357 217L1185 -18Q1167 -43 1138.5 -57.5Q1110 -72 1079 -72ZM1857 293Q1857 320 1846.5 343.5Q1836 367 1818.5 384.5Q1801 402 1777.0 412.5Q1753 423 1726 423Q1695 423 1667.5 409.0Q1640 395 1622 370L1450 135Q1425 101 1425 58Q1425 31 1435.0 7.5Q1445 -16 1462.5 -33.5Q1480 -51 1503.5 -61.5Q1527 -72 1554 -72Q1585 -72 1613.5 -57.5Q1642 -43 1660 -18L1832 217Q1857 251 1857 293Z" style="fill:#3f5fff;stroke:none" transform="scale(1,-1) translate(0,-256)" /></svg>