<?xml version="1.0" encoding="utf-8" ?>
<svg baseProfile="full" height="256" version="1.1" width="256" xmlns="http://www.w3.org/2000/svg" xmlns:ev="http://www.w3.org/2001/xml-events" xmlns:xlink="http://www.w3.org/1999/xlink"><defs /><path d="M1766 1725Q1900 1725 2017.5 1674.0Q2135 1623 2223.0 1535.5Q2311 1448 2361.5 1330.0Q2412 1212 2412 1078Q2412 992 2390.0 910.5Q2368 829 2327.5 757.0Q2287 685 2230.5 625.5Q2174 566 2104.5 522.5Q2035 479 1955.0 455.0Q1875 431 1787 431H874Q776 431 690.0 469.0Q604 507 539.5 571.5Q475 636 437.5 722.5Q400 809 400 906Q400 1005 437.5 1090.5Q475 1176 539.5 1238.0Q604 1300 690.0 1335.5Q776 1371 874 1371Q892 1410 919.5 1441.0Q947 1472 981.5 1494.5Q1016 1517 1056.0 1529.0Q1096 1541 1139 1541Q1213 1541 1279 1504Q1325 1556 1380.5 1597.5Q1436 1639 1498.5 1667.0Q1561 1695 1628.5 1710.0Q1696 1725 1766 1725Z" style="fill:#f3eef8;stroke:none" transform="scale(1,-1) translate(0,-256)" /></svg>