<?xml version="1.0" encoding="utf-8" ?>
<svg baseProfile="full" height="256" version="1.1" width="256" xmlns="http://www.w3.org/2000/svg" xmlns:ev="http://www.w3.org/2001/xml-events" xmlns:xlink="http://www.w3.org/1999/xlink"><defs /><path d="M1417 305Q1417 245 1400.0 199.0Q1383 153 1354.5 114.5Q1326 76 1289.0 41.0Q1252 6 1212 -34Q1236 -57 1249.0 -83.5Q1262 -110 1262 -144Q1262 -174 1250.5 -200.0Q1239 -226 1219.5 -245.5Q1200 -265 1174.0 -276.0Q1148 -287 1118 -287Q1090 -287 1063.5 -276.0Q1037 -265 1017 -245L442 330Q422 350 411.0 376.5Q400 403 400 431Q400 461 411.0 487.0Q422 513 441.5 532.5Q461 552 487.0 563.5Q513 575 543 575Q577 575 603.5 562.0Q630 549 653 525Q693 565 728.0 602.0Q763 639 801.5 667.5Q840 696 886.0 713.0Q932 730 992 730Q1037 730 1081.5 717.0Q1126 704 1164 680L1304 821L1508 617L1367 477Q1391 439 1404.0 394.5Q1417 350 1417 305Z" style="fill:#f8312f;stroke:none" transform="scale(1,-1) translate(0,-256)" /></svg>