<?xml version="1.0" encoding="utf-8" ?>
<svg baseProfile="full" height="256" version="1.1" width="256" xmlns="http://www.w3.org/2000/svg" xmlns:ev="http://www.w3.org/2001/xml-events" xmlns:xlink="http://www.w3.org/1999/xlink"><defs /><path d="M615 1554Q615 1591 630.0 1622.0Q645 1653 669.5 1676.0Q694 1699 726.5 1712.0Q759 1725 795 1725Q831 1725 863.5 1712.0Q896 1699 920.5 1676.0Q945 1653 960.0 1622.0Q975 1591 975 1554V388Q975 351 960.5 319.5Q946 288 921.0 265.0Q896 242 863.5 229.0Q831 216 795 216Q759 216 726.5 229.0Q694 242 669.5 265.0Q645 288 630.0 319.0Q615 350 615 387ZM1514 570Q1514 621 1530.5 662.5Q1547 704 1576.0 735.5Q1605 767 1645.0 788.5Q1685 810 1732 823Q1772 834 1806.0 852.5Q1840 871 1864.5 897.5Q1889 924 1903.0 959.0Q1917 994 1917 1038V1127Q1917 1174 1898.5 1215.0Q1880 1256 1849.0 1287.0Q1818 1318 1776.0 1335.5Q1734 1353 1688 1353Q1642 1353 1601.5 1336.0Q1561 1319 1530.5 1289.5Q1500 1260 1482.0 1220.0Q1464 1180 1464 1134Q1464 1098 1449.5 1067.0Q1435 1036 1411.0 1013.5Q1387 991 1355.0 978.0Q1323 965 1288 965Q1253 965 1221.0 978.0Q1189 991 1164.5 1014.0Q1140 1037 1125.5 1068.0Q1111 1099 1111 1135Q1111 1253 1157.5 1355.0Q1204 1457 1283.0 1532.0Q1362 1607 1466.5 1650.0Q1571 1693 1687 1693Q1765 1693 1838.5 1673.0Q1912 1653 1976.5 1617.0Q2041 1581 2094.5 1530.0Q2148 1479 2186.5 1416.0Q2225 1353 2246.5 1280.0Q2268 1207 2268 1128V1038Q2268 966 2249.5 898.0Q2231 830 2196.5 769.5Q2162 709 2113.0 658.0Q2064 607 2003 569Q1973 550 1941.5 537.5Q1910 525 1878 510Q1866 505 1866 493V370Q1866 334 1851.5 303.0Q1837 272 1813.0 249.0Q1789 226 1757.0 213.0Q1725 200 1690 200Q1655 200 1623.0 213.0Q1591 226 1567.0 248.5Q1543 271 1528.5 302.0Q1514 333 1514 369ZM1690 -287Q1653 -287 1620.0 -273.0Q1587 -259 1562.5 -234.5Q1538 -210 1524.0 -177.5Q1510 -145 1510 -108Q1510 -71 1524.0 -38.0Q1538 -5 1562.5 19.5Q1587 44 1620.0 58.0Q1653 72 1690 72Q1727 72 1759.5 58.0Q1792 44 1816.5 19.5Q1841 -5 1855.0 -38.0Q1869 -71 1869 -108Q1869 -145 1855.0 -177.5Q1841 -210 1816.5 -234.5Q1792 -259 1759.5 -273.0Q1727 -287 1690 -287ZM975 -108Q975 -145 961.0 -177.5Q947 -210 922.5 -234.5Q898 -259 865.0 -273.0Q832 -287 795 -287Q758 -287 725.0 -273.0Q692 -259 667.5 -234.5Q643 -210 629.0 -177.5Q615 -145 615 -108Q615 -71 629.0 -38.0Q643 -5 667.5 19.5Q692 44 725.0 58.0Q758 72 795 72Q832 72 865.0 58.0Q898 44 922.5 19.5Q947 -5 961.0 -38.0Q975 -71 975 -108Z" style="fill:#f8312f;stroke:none" transform="scale(1,-1) translate(0,-256)" /></svg>