<?xml version="1.0" encoding="utf-8" ?>
<svg baseProfile="full" height="256" version="1.1" width="256" xmlns="http://www.w3.org/2000/svg" xmlns:ev="http://www.w3.org/2001/xml-events" xmlns:xlink="http://www.w3.org/1999/xlink"><defs /><path d="M401 963Q401 1070 445.5 1150.5Q490 1231 563.0 1284.5Q636 1338 729.0 1365.0Q822 1392 918 1392H1605Q1683 1392 1756.5 1364.0Q1830 1336 1889 1285L2351 879Q2380 854 2395.5 820.0Q2411 786 2411 748Q2411 712 2397.0 680.5Q2383 649 2359.5 625.0Q2336 601 2304.0 587.5Q2272 574 2236 574Q2202 574 2171.0 587.0Q2140 600 2115 624L1809 922Q1789 942 1763.0 952.5Q1737 963 1709 963H1336Q1291 963 1252.0 946.0Q1213 929 1183.5 899.5Q1154 870 1137.0 831.0Q1120 792 1120 747Q1120 703 1133.5 664.0Q1147 625 1172.5 595.5Q1198 566 1234.5 548.5Q1271 531 1318 531H1358Q1401 531 1435.0 521.5Q1469 512 1498.5 495.0Q1528 478 1554.5 454.0Q1581 430 1610 401Q1635 375 1648.5 344.0Q1662 313 1662 278Q1662 242 1648.5 210.0Q1635 178 1611.0 153.5Q1587 129 1555.5 114.5Q1524 100 1488 100Q1448 100 1421.5 114.0Q1395 128 1366 153Q1349 167 1334.5 169.5Q1320 172 1300 172H1064Q988 172 914.0 198.5Q840 225 783 276Q698 351 627.5 423.0Q557 495 507.0 575.5Q457 656 429.0 750.0Q401 844 401 963Z" style="fill:#ffc83d;stroke:none" transform="scale(1,-1) translate(0,-256)" /></svg>