<?xml version="1.0" encoding="utf-8" ?>
<svg baseProfile="full" height="256" version="1.1" width="256" xmlns="http://www.w3.org/2000/svg" xmlns:ev="http://www.w3.org/2001/xml-events" xmlns:xlink="http://www.w3.org/1999/xlink"><defs /><path d="M1445 1238Q1475 1238 1503.5 1226.0Q1532 1214 1552 1191Q1568 1200 1586.0 1204.5Q1604 1209 1622 1209Q1652 1209 1680.0 1197.0Q1708 1185 1728 1162Q1748 1181 1774.0 1191.0Q1800 1201 1827 1201Q1851 1201 1873.5 1193.0Q1896 1185 1914.5 1171.0Q1933 1157 1946.5 1137.5Q1960 1118 1966 1095L2085 648Q2090 628 2090 611Q2090 581 2079.0 555.0Q2068 529 2048.5 509.5Q2029 490 2003.0 478.5Q1977 467 1947 467Q1897 467 1859.0 496.5Q1821 526 1808 574L1765 732V675Q1765 645 1754.0 619.0Q1743 593 1723.5 573.5Q1704 554 1678.0 542.5Q1652 531 1622 531Q1592 531 1565.5 542.0Q1539 553 1519.5 572.5Q1500 592 1489.0 618.5Q1478 645 1478 675V719Q1458 696 1429.5 683.5Q1401 671 1371 671Q1341 671 1314.5 682.0Q1288 693 1268.5 712.5Q1249 732 1237.5 758.5Q1226 785 1226 815Q1226 832 1231 852L1306 1131Q1319 1178 1357.5 1208.0Q1396 1238 1445 1238Z" style="fill:#d67d00;stroke:none" transform="scale(1,-1) translate(0,-256)" /></svg>