<?xml version="1.0" encoding="utf-8" ?>
<svg baseProfile="full" height="256" version="1.1" width="256" xmlns="http://www.w3.org/2000/svg" xmlns:ev="http://www.w3.org/2001/xml-events" xmlns:xlink="http://www.w3.org/1999/xlink"><defs /><path d="M976 914Q890 914 814.0 881.5Q738 849 681.5 792.5Q625 736 592.0 660.0Q559 584 559 498Q559 412 592.0 336.0Q625 260 681.5 203.5Q738 147 814.0 114.0Q890 81 976 81H1839Q1925 81 2001.0 114.0Q2077 147 2133.5 203.5Q2190 260 2223.0 336.0Q2256 412 2256 498Q2256 584 2223.0 660.0Q2190 736 2133.5 792.5Q2077 849 2001.0 881.5Q1925 914 1839 914ZM1839 1074Q1958 1074 2063.0 1028.5Q2168 983 2246.0 905.0Q2324 827 2369.5 722.0Q2415 617 2415 498Q2415 379 2369.5 274.0Q2324 169 2246.0 90.5Q2168 12 2063.0 -33.5Q1958 -79 1839 -79H976Q857 -79 752.0 -33.5Q647 12 569.0 90.5Q491 169 445.5 274.0Q400 379 400 498Q400 617 445.5 722.0Q491 827 569.0 905.0Q647 983 752.0 1028.5Q857 1074 976 1074Z" style="fill:#d3d3d3;stroke:none" transform="scale(1,-1) translate(0,-256)" /></svg>