<?xml version="1.0" encoding="utf-8" ?>
<svg baseProfile="full" height="256" version="1.1" width="256" xmlns="http://www.w3.org/2000/svg" xmlns:ev="http://www.w3.org/2001/xml-events" xmlns:xlink="http://www.w3.org/1999/xlink"><defs /><path d="M1839 914Q1925 914 2001.0 881.5Q2077 849 2133.5 792.5Q2190 736 2223.0 660.0Q2256 584 2256 498Q2256 412 2223.0 336.0Q2190 260 2133.5 203.5Q2077 147 2001.0 114.0Q1925 81 1839 81H976Q890 81 814.0 114.0Q738 147 681.5 203.5Q625 260 592.0 336.0Q559 412 559 498Q559 584 592.0 660.0Q625 736 681.5 792.5Q738 849 814.0 881.5Q890 914 976 914Z" style="fill:#ff6723;stroke:none" transform="scale(1,-1) translate(0,-256)" /></svg>