<?xml version="1.0" encoding="utf-8" ?>
<svg baseProfile="full" height="256" version="1.1" width="256" xmlns="http://www.w3.org/2000/svg" xmlns:ev="http://www.w3.org/2001/xml-events" xmlns:xlink="http://www.w3.org/1999/xlink"><defs /><path d="M1213 1150Q1306 1150 1391.5 1121.0Q1477 1092 1548.0 1039.5Q1619 987 1672.0 913.5Q1725 840 1752 752Q1758 734 1758 714Q1758 687 1747.5 663.5Q1737 640 1719.0 622.5Q1701 605 1677.5 595.0Q1654 585 1627 585H797Q770 585 746.5 595.0Q723 605 705.0 623.0Q687 641 676.5 664.5Q666 688 666 715Q666 734 672 752Q699 841 752.0 914.0Q805 987 877.0 1039.5Q949 1092 1035.0 1121.0Q1121 1150 1213 1150Z" style="fill:#f4f4f4;stroke:none" transform="scale(1,-1) translate(0,-256)" /></svg>