<?xml version="1.0" encoding="utf-8" ?>
<svg baseProfile="full" height="256" version="1.1" width="256" xmlns="http://www.w3.org/2000/svg" xmlns:ev="http://www.w3.org/2001/xml-events" xmlns:xlink="http://www.w3.org/1999/xlink"><defs /><path d="M1972 670Q1999 670 2026.5 659.0Q2054 648 2076.0 629.0Q2098 610 2112.0 585.0Q2126 560 2126 533Q2126 525 2122.0 520.0Q2118 515 2110 515H1834Q1826 515 1822.5 520.5Q1819 526 1819 533Q1819 561 1833.0 586.0Q1847 611 1869.0 630.0Q1891 649 1918.0 659.5Q1945 670 1972 670ZM1586 516Q1613 516 1640.5 505.5Q1668 495 1690.0 476.0Q1712 457 1726.0 432.0Q1740 407 1740 378Q1740 370 1736.0 365.0Q1732 360 1724 360H1448Q1440 360 1436.5 365.5Q1433 371 1433 378Q1433 407 1447.0 432.0Q1461 457 1483.0 476.0Q1505 495 1532.0 505.5Q1559 516 1586 516ZM1777 224Q1777 253 1791.0 278.0Q1805 303 1827.5 321.5Q1850 340 1877.0 350.5Q1904 361 1931 361Q1958 361 1985.0 350.5Q2012 340 2034.0 321.0Q2056 302 2070.0 277.0Q2084 252 2084 224Q2084 217 2080.5 211.5Q2077 206 2069 206H1793Q1785 206 1781.0 211.0Q1777 216 1777 224Z" style="fill:#fcd53f;stroke:none" transform="scale(1,-1) translate(0,-256)" /></svg>