<?xml version="1.0" encoding="utf-8" ?>
<svg baseProfile="full" height="256" version="1.1" width="256" xmlns="http://www.w3.org/2000/svg" xmlns:ev="http://www.w3.org/2001/xml-events" xmlns:xlink="http://www.w3.org/1999/xlink"><defs /><path d="M822 -288H768V5Q719 5 670.0 5.0Q621 5 574.0 12.5Q527 20 483.0 37.5Q439 55 400 91V173Q432 126 474.5 102.0Q517 78 565.5 68.5Q614 59 665.5 59.0Q717 59 767 59L768 58V770Q768 781 776.0 789.0Q784 797 795 797Q806 797 814.0 789.0Q822 781 822 770ZM1039 -288H985V770Q985 781 993.0 789.0Q1001 797 1012 797Q1023 797 1031.0 789.0Q1039 781 1039 770ZM1418 730Q1431 730 1436.5 723.0Q1442 716 1444.0 706.0Q1446 696 1445.5 685.0Q1445 674 1445 666Q1445 652 1445.5 637.5Q1446 623 1446 609Q1446 583 1443.0 557.5Q1440 532 1432.5 508.0Q1425 484 1410.5 463.0Q1396 442 1374 427Q1342 405 1315.0 393.5Q1288 382 1261.0 376.0Q1234 370 1204.0 369.0Q1174 368 1137 367V421Q1177 422 1220.0 425.5Q1263 429 1299.0 443.5Q1335 458 1360.0 487.0Q1385 516 1390 567Q1393 595 1393 625Q1393 635 1391.0 652.5Q1389 670 1390.0 687.5Q1391 705 1397.0 717.5Q1403 730 1418 730Z" style="fill:#00d26a;stroke:none" transform="scale(1,-1) translate(0,-256)" /></svg>