<?xml version="1.0" encoding="utf-8" ?>
<svg baseProfile="full" height="256" version="1.1" width="256" xmlns="http://www.w3.org/2000/svg" xmlns:ev="http://www.w3.org/2001/xml-events" xmlns:xlink="http://www.w3.org/1999/xlink"><defs /><path d="M640 -288V-89Q572 -88 515.5 -76.5Q459 -65 401 -28V723Q422 721 438.0 708.5Q454 696 465.0 679.0Q476 662 481.5 641.5Q487 621 487 603V297Q487 268 492.0 243.5Q497 219 509.0 201.5Q521 184 542.0 174.0Q563 164 595 164H640V843Q640 895 660.0 941.0Q680 987 714.0 1021.0Q748 1055 794.0 1074.5Q840 1094 892 1094Q944 1094 989.5 1074.0Q1035 1054 1069.0 1020.0Q1103 986 1123.0 940.5Q1143 895 1143 843V520Q1169 520 1196.0 522.0Q1223 524 1245.0 533.0Q1267 542 1281.0 561.5Q1295 581 1295 617V773Q1295 831 1330.5 858.5Q1366 886 1421 886Q1446 886 1469.5 878.5Q1493 871 1511.0 856.5Q1529 842 1539.5 821.0Q1550 800 1550 773V610Q1550 517 1518.5 451.0Q1487 385 1432.5 343.0Q1378 301 1303.5 281.5Q1229 262 1143 262V-288Z" style="fill:#00f397;stroke:none" transform="scale(1,-1) translate(0,-256)" /></svg>