<?xml version="1.0" encoding="utf-8" ?>
<svg baseProfile="full" height="256" version="1.1" width="256" xmlns="http://www.w3.org/2000/svg" xmlns:ev="http://www.w3.org/2001/xml-events" xmlns:xlink="http://www.w3.org/1999/xlink"><defs /><path d="M2184 1725Q2231 1725 2272.5 1707.0Q2314 1689 2345.0 1658.5Q2376 1628 2394.0 1586.5Q2412 1545 2412 1498V-61Q2412 -108 2394.0 -149.5Q2376 -191 2345.5 -221.5Q2315 -252 2273.5 -270.0Q2232 -288 2185 -288H628Q581 -288 539.5 -270.0Q498 -252 467.5 -221.5Q437 -191 419.0 -149.5Q401 -108 401 -61V1498Q401 1545 418.5 1586.5Q436 1628 467.0 1658.5Q498 1689 539.5 1707.0Q581 1725 628 1725H2184Z" style="fill:#f37366;stroke:none" transform="scale(1,-1) translate(0,-256)" /></svg>