<?xml version="1.0" encoding="utf-8" ?>
<svg baseProfile="full" height="256" version="1.1" width="256" xmlns="http://www.w3.org/2000/svg" xmlns:ev="http://www.w3.org/2001/xml-events" xmlns:xlink="http://www.w3.org/1999/xlink"><defs /><path d="M691 944Q687 944 678.5 950.5Q670 957 661.0 966.0Q652 975 645.5 985.0Q639 995 639 1002Q639 1013 646.5 1020.5Q654 1028 665 1028Q672 1028 681.0 1022.5Q690 1017 698.0 1009.5Q706 1002 711.5 993.0Q717 984 717 977Q717 968 708.5 956.0Q700 944 691 944ZM1145 1001Q1145 985 1130.0 972.5Q1115 960 1105 950Q1097 942 1086 942Q1075 942 1067.0 949.5Q1059 957 1059 968Q1059 979 1067 987Q1076 996 1089.5 1011.5Q1103 1027 1119 1027Q1130 1027 1137.5 1020.0Q1145 1013 1145 1001ZM1320 878Q1326 878 1336.0 871.5Q1346 865 1355.5 856.0Q1365 847 1372.0 837.0Q1379 827 1379 820Q1379 809 1371.5 801.0Q1364 793 1353 793Q1346 793 1338.5 797.5Q1331 802 1324.0 808.5Q1317 815 1311.0 821.5Q1305 828 1301 832Q1293 840 1293 851Q1293 862 1301.0 870.0Q1309 878 1320 878ZM586 700Q586 711 594.0 718.5Q602 726 613 726H652Q663 726 670.5 718.5Q678 711 678 700Q678 689 670.5 681.0Q663 673 652 673H613Q602 673 594.0 681.0Q586 689 586 700ZM587 -153Q587 -142 595.0 -134.0Q603 -126 614 -126H653Q664 -126 671.5 -134.0Q679 -142 679 -153Q679 -164 671.5 -171.5Q664 -179 653 -179H614Q603 -179 595.0 -171.5Q587 -164 587 -153ZM1168 -26Q1179 -26 1186.5 -34.0Q1194 -42 1194 -53Q1194 -64 1186.5 -71.5Q1179 -79 1168 -79H1129Q1118 -79 1110.0 -71.5Q1102 -64 1102 -53Q1102 -42 1110.0 -34.0Q1118 -26 1129 -26ZM1441 407Q1457 407 1470.5 392.0Q1484 377 1493 368Q1501 360 1501 349Q1501 338 1493.5 330.0Q1486 322 1475 322Q1465 322 1457 330Q1452 334 1445.0 339.5Q1438 345 1431.0 351.5Q1424 358 1419.5 365.5Q1415 373 1415 381Q1415 392 1422.5 399.5Q1430 407 1441 407ZM536 445Q536 439 529.5 429.0Q523 419 514.0 409.5Q505 400 495.0 393.5Q485 387 479 387Q471 387 467.0 392.5Q463 398 463 406Q463 418 464.0 425.5Q465 433 468.0 439.0Q471 445 476.5 450.5Q482 456 491 464Q496 468 499.5 470.0Q503 472 509 472Q520 472 528.0 464.0Q536 456 536 445ZM720 364Q713 373 713 381Q713 392 720.5 400.0Q728 408 739 408Q751 408 759 400L822 331V253ZM985 145 1071 225Q1080 232 1089 232Q1100 232 1108.0 224.5Q1116 217 1116 206Q1116 195 1107 186Q1101 180 1083.0 162.5Q1065 145 1045.0 126.0Q1025 107 1007.5 91.5Q990 76 985 75ZM1051 628Q1062 628 1069.5 620.0Q1077 612 1077 601Q1077 590 1069.5 582.5Q1062 575 1051 575H985V628Z" style="fill:#86d72f;stroke:none" transform="scale(1,-1) translate(0,-256)" /></svg>