<?xml version="1.0" encoding="utf-8" ?>
<svg baseProfile="full" height="256" version="1.1" width="256" xmlns="http://www.w3.org/2000/svg" xmlns:ev="http://www.w3.org/2001/xml-events" xmlns:xlink="http://www.w3.org/1999/xlink"><defs /><path d="M2412 -61Q2412 -108 2394.0 -149.5Q2376 -191 2345.5 -221.5Q2315 -252 2273.5 -270.0Q2232 -288 2185 -288H627Q580 -288 539.0 -270.0Q498 -252 467.0 -221.5Q436 -191 418.5 -149.5Q401 -108 401 -61V359H1371Q1392 359 1398.5 370.0Q1405 381 1408.0 394.5Q1411 408 1416.5 419.5Q1422 431 1443 431H1729Q1748 431 1756.5 443.5Q1765 456 1767.0 473.0Q1769 490 1767.5 508.0Q1766 526 1766 538Q1766 558 1776.5 565.5Q1787 573 1803.0 574.5Q1819 576 1837.5 574.5Q1856 573 1872.0 574.5Q1888 576 1898.5 584.0Q1909 592 1909 612V698Q1909 717 1916.5 734.0Q1924 751 1936.5 763.5Q1949 776 1966.0 783.5Q1983 791 2002 791H2159Q2179 791 2187.5 778.5Q2196 766 2198.0 749.0Q2200 732 2198.5 714.0Q2197 696 2197 684Q2197 662 2208.5 656.0Q2220 650 2233.5 647.0Q2247 644 2258.5 637.5Q2270 631 2270 610V469Q2270 454 2279.5 442.5Q2289 431 2305 431Q2325 431 2330.5 442.0Q2336 453 2339.0 466.5Q2342 480 2348.0 491.5Q2354 503 2375 503Q2386 503 2399.0 494.5Q2412 486 2412 474Z" style="fill:#9d5044;stroke:none" transform="scale(1,-1) translate(0,-256)" /></svg>