<?xml version="1.0" encoding="utf-8" ?>
<svg baseProfile="full" height="256" version="1.1" width="256" xmlns="http://www.w3.org/2000/svg" xmlns:ev="http://www.w3.org/2001/xml-events" xmlns:xlink="http://www.w3.org/1999/xlink"><defs /><path d="M2412 -61Q2412 -108 2394.0 -149.5Q2376 -191 2345.5 -221.5Q2315 -252 2273.5 -270.0Q2232 -288 2185 -288H1081V-166Q1081 -157 1087.5 -150.5Q1094 -144 1103 -144H1908Q1938 -144 1964.0 -132.5Q1990 -121 2009.5 -101.5Q2029 -82 2040.5 -56.0Q2052 -30 2052 0Q2052 30 2040.5 56.0Q2029 82 2009.5 101.5Q1990 121 1964.0 132.5Q1938 144 1908 144H1440Q1419 144 1401.0 152.5Q1383 161 1369.5 175.0Q1356 189 1348.5 208.0Q1341 227 1341 247Q1341 270 1350.0 290.5Q1359 311 1374.0 326.0Q1389 341 1409.5 350.0Q1430 359 1453 359H2123Q2152 359 2174.5 380.0Q2197 401 2197 431Q2197 461 2174.5 482.5Q2152 504 2123 504Q2093 504 2073.0 526.0Q2053 548 2053 577V791H2159Q2174 791 2185.5 780.0Q2197 769 2197 754V684Q2197 669 2202.5 662.0Q2208 655 2216.0 651.5Q2224 648 2233.0 646.5Q2242 645 2250.0 641.5Q2258 638 2263.5 631.0Q2269 624 2269 610V469Q2269 454 2279.0 442.5Q2289 431 2305 431Q2325 431 2331.0 442.0Q2337 453 2340.0 466.5Q2343 480 2349.0 491.5Q2355 503 2375 503Q2386 503 2399.0 494.5Q2412 486 2412 474Z" style="fill:#b35f47;stroke:none" transform="scale(1,-1) translate(0,-256)" /></svg>