<?xml version="1.0" encoding="utf-8" ?>
<svg baseProfile="full" height="256" version="1.1" width="256" xmlns="http://www.w3.org/2000/svg" xmlns:ev="http://www.w3.org/2001/xml-events" xmlns:xlink="http://www.w3.org/1999/xlink"><defs /><path d="M1873 1008Q1821 1008 1774.5 1027.5Q1728 1047 1693.5 1081.0Q1659 1115 1639.0 1160.5Q1619 1206 1619 1259Q1619 1311 1639.5 1357.0Q1660 1403 1694.5 1437.0Q1729 1471 1775.0 1490.5Q1821 1510 1873 1510Q1925 1510 1971.5 1490.5Q2018 1471 2052.5 1437.0Q2087 1403 2107.5 1357.0Q2128 1311 2128 1259Q2128 1206 2107.5 1160.5Q2087 1115 2052.5 1081.0Q2018 1047 1971.5 1027.5Q1925 1008 1873 1008Z" style="fill:#f9c23c;stroke:none" transform="scale(1,-1) translate(0,-256)" /></svg>