<?xml version="1.0" encoding="utf-8" ?>
<svg baseProfile="full" height="256" version="1.1" width="256" xmlns="http://www.w3.org/2000/svg" xmlns:ev="http://www.w3.org/2001/xml-events" xmlns:xlink="http://www.w3.org/1999/xlink"><defs /><path d="M1512 511Q1416 511 1331.5 547.5Q1247 584 1184.5 646.5Q1122 709 1085.5 793.5Q1049 878 1049 974Q1049 1070 1085.5 1154.5Q1122 1239 1184.5 1302.0Q1247 1365 1331.5 1401.5Q1416 1438 1512 1438Q1608 1438 1692.5 1401.5Q1777 1365 1840.0 1302.0Q1903 1239 1939.5 1154.5Q1976 1070 1976 974Q1976 878 1939.5 793.5Q1903 709 1840.0 646.5Q1777 584 1692.5 547.5Q1608 511 1512 511Z" style="fill:#26c9fc;stroke:none" transform="scale(1,-1) translate(0,-256)" /></svg>