<?xml version="1.0" encoding="utf-8" ?>
<svg baseProfile="full" height="256" version="1.1" width="256" xmlns="http://www.w3.org/2000/svg" xmlns:ev="http://www.w3.org/2001/xml-events" xmlns:xlink="http://www.w3.org/1999/xlink"><defs /><path d="M947 963Q947 934 925.5 912.5Q904 891 875 891Q846 891 824.5 912.5Q803 934 803 963Q803 993 824.0 1014.0Q845 1035 875 1035Q904 1035 925.5 1013.5Q947 992 947 963ZM1168 813Q1198 813 1219.0 834.0Q1240 855 1240 885Q1240 915 1219.0 936.0Q1198 957 1168 957Q1138 957 1117.0 936.0Q1096 915 1096 885Q1096 855 1117.0 834.0Q1138 813 1168 813ZM1462 734Q1492 734 1513.0 755.0Q1534 776 1534 806Q1534 836 1513.0 857.0Q1492 878 1462 878Q1432 878 1411.0 857.0Q1390 836 1390 806Q1390 776 1411.0 755.0Q1432 734 1462 734ZM1755 656Q1785 656 1806.0 677.0Q1827 698 1827 728Q1827 757 1805.5 778.0Q1784 799 1755 799Q1726 799 1704.5 778.0Q1683 757 1683 728Q1683 699 1704.5 677.5Q1726 656 1755 656ZM2120 649Q2120 620 2099.0 598.5Q2078 577 2049 577Q2020 577 1998.5 598.5Q1977 620 1977 649Q1977 679 1998.0 700.0Q2019 721 2049 721Q2078 721 2099.0 699.5Q2120 678 2120 649Z" style="fill:#321b41;stroke:none" transform="scale(1,-1) translate(0,-256)" /></svg>