<?xml version="1.0" encoding="utf-8" ?>
<svg baseProfile="full" height="256" version="1.1" width="256" xmlns="http://www.w3.org/2000/svg" xmlns:ev="http://www.w3.org/2001/xml-events" xmlns:xlink="http://www.w3.org/1999/xlink"><defs /><path d="M1119 817Q1210 803 1300.0 794.0Q1390 785 1479 761Q1522 749 1562.5 734.0Q1603 719 1643.0 702.0Q1683 685 1723.0 667.5Q1763 650 1804 634L2454 380Q2399 328 2335.5 287.0Q2272 246 2202.5 218.0Q2133 190 2059.0 175.5Q1985 161 1909 161Q1856 161 1805.5 168.0Q1755 175 1704 188Q1610 212 1516.5 237.5Q1423 263 1328 288Q1234 314 1140.5 338.5Q1047 363 953 389Q852 417 764.0 467.5Q676 518 605.0 587.0Q534 656 482.0 742.5Q430 829 400 930Z" style="fill:#9b9b9b;stroke:none" transform="scale(1,-1) translate(0,-256)" /></svg>