<?xml version="1.0" encoding="utf-8" ?>
<svg baseProfile="full" height="256" version="1.1" width="256" xmlns="http://www.w3.org/2000/svg" xmlns:ev="http://www.w3.org/2001/xml-events" xmlns:xlink="http://www.w3.org/1999/xlink"><defs /><path d="M400 930Q454 982 517.5 1023.0Q581 1064 650.5 1092.0Q720 1120 794.0 1135.0Q868 1150 944 1150Q997 1150 1047.5 1142.5Q1098 1135 1149 1122Q1243 1098 1336.5 1072.5Q1430 1047 1524 1021Q1619 996 1712.5 971.5Q1806 947 1900 921Q2001 892 2089.0 842.0Q2177 792 2248.0 723.0Q2319 654 2371.5 567.5Q2424 481 2454 380Z" style="fill:#d3d3d3;stroke:none" transform="scale(1,-1) translate(0,-256)" /></svg>