<?xml version="1.0" encoding="utf-8" ?>
<svg baseProfile="full" height="256" version="1.1" width="256" xmlns="http://www.w3.org/2000/svg" xmlns:ev="http://www.w3.org/2001/xml-events" xmlns:xlink="http://www.w3.org/1999/xlink"><defs /><path d="M1945 863Q1960 863 1970.5 852.5Q1981 842 1981 827V683Q1981 668 1970.5 657.5Q1960 647 1945 647H2125Q2102 630 2076.5 605.0Q2051 580 2030.0 551.5Q2009 523 1995.0 492.0Q1981 461 1981 431V-144Q1981 -171 1968.5 -196.5Q1956 -222 1935.5 -242.5Q1915 -263 1889.5 -275.0Q1864 -287 1837 -287H831Q813 -287 796.5 -283.5Q780 -280 767.5 -272.0Q755 -264 748.0 -250.0Q741 -236 741 -216Q741 -198 746.0 -179.0Q751 -160 759 -144L903 144L508 647Q496 647 478.0 645.5Q460 644 442.5 646.0Q425 648 412.5 656.0Q400 664 400 683V755Q400 777 408.5 796.5Q417 816 432.0 831.0Q447 846 466.5 854.5Q486 863 508 863Z" style="fill:#b4acbc;stroke:none" transform="scale(1,-1) translate(0,-256)" /></svg>