<?xml version="1.0" encoding="utf-8" ?>
<svg baseProfile="full" height="256" version="1.1" width="256" xmlns="http://www.w3.org/2000/svg" xmlns:ev="http://www.w3.org/2001/xml-events" xmlns:xlink="http://www.w3.org/1999/xlink"><defs /><path d="M2197 1725Q2227 1725 2247.5 1703.5Q2268 1682 2268 1653V791Q2268 746 2251.0 707.0Q2234 668 2205.0 638.5Q2176 609 2137.0 592.0Q2098 575 2053 575Q2034 575 2011.0 574.0Q1988 573 1964.0 573.0Q1940 573 1917.5 574.0Q1895 575 1877 578Q1842 465 1774.5 372.0Q1707 279 1616.5 212.0Q1526 145 1417.0 108.5Q1308 72 1190 72Q1062 72 945.5 115.0Q829 158 735.5 234.5Q642 311 576.5 416.5Q511 522 486 647H1748Q1722 676 1707.5 713.5Q1693 751 1693 791V1653Q1693 1682 1714.5 1703.5Q1736 1725 1765 1725Z" style="fill:#cdc4d6;stroke:none" transform="scale(1,-1) translate(0,-256)" /></svg>