<?xml version="1.0" encoding="utf-8" ?>
<svg baseProfile="full" height="256" version="1.1" width="256" xmlns="http://www.w3.org/2000/svg" xmlns:ev="http://www.w3.org/2001/xml-events" xmlns:xlink="http://www.w3.org/1999/xlink"><defs /><path d="M1801 1532Q1801 1572 1815.5 1607.0Q1830 1642 1855.0 1668.0Q1880 1694 1914.5 1709.5Q1949 1725 1989 1725H2005V1724Q1996 1724 1984.5 1718.5Q1973 1713 1962.0 1706.0Q1951 1699 1941.0 1690.5Q1931 1682 1924 1676Q1903 1656 1888.0 1629.0Q1873 1602 1873 1572V862Q1873 846 1859.5 836.0Q1846 826 1832 826Q1832 846 1831.5 877.5Q1831 909 1828.0 941.0Q1825 973 1819.0 1002.0Q1813 1031 1801 1047ZM1526 728Q1567 755 1614 755H1628Q1570 734 1539.5 683.5Q1509 633 1509 573Q1509 527 1536.5 493.5Q1564 460 1604.0 438.5Q1644 417 1690.0 406.5Q1736 396 1774 396Q1785 396 1795.0 397.5Q1805 399 1816 399Q1831 399 1845.5 398.0Q1860 397 1874 393Q1891 388 1907.5 384.0Q1924 380 1941 373Q1959 365 1981.0 351.0Q2003 337 2024.0 319.5Q2045 302 2061.5 282.0Q2078 262 2084 243Q2090 226 2090 208Q2090 185 2079.0 164.5Q2068 144 2041 144Q2020 144 2004.0 155.0Q1988 166 1979 185Q1956 231 1928.0 265.0Q1900 299 1855 324Q1787 323 1716.5 310.0Q1646 297 1578.5 272.0Q1511 247 1450.0 210.0Q1389 173 1340 124Q1322 105 1306.5 85.5Q1291 66 1276 44Q1265 27 1246 27Q1232 27 1221.0 38.0Q1210 49 1210 63Q1210 72 1215 82Q1237 119 1268.0 153.5Q1299 188 1336.0 217.0Q1373 246 1412.5 270.5Q1452 295 1491 313Q1472 323 1451.0 341.0Q1430 359 1422 380Q1411 365 1394.0 355.0Q1377 345 1357.5 339.0Q1338 333 1317.5 330.5Q1297 328 1280 328Q1260 328 1239.0 331.0Q1218 334 1197.5 341.5Q1177 349 1160.0 360.5Q1143 372 1132 390Q1116 377 1095.0 367.5Q1074 358 1051.5 351.5Q1029 345 1006.0 342.0Q983 339 963 339Q874 339 815.0 386.0Q756 433 737 521Q744 513 751.0 507.0Q758 501 765 493Q771 487 776.0 479.5Q781 472 787 466Q815 438 852.0 423.5Q889 409 928 409Q970 409 1009.5 426.0Q1049 443 1077 475Q1085 483 1090.0 492.5Q1095 502 1102 511L1108 517Q1088 555 1088 599V894Q1088 931 1102.0 964.0Q1116 997 1140.0 1021.5Q1164 1046 1196.5 1061.0Q1229 1076 1266 1078Q1222 1056 1191.0 1016.0Q1160 976 1160 925V454Q1185 434 1214.5 424.5Q1244 415 1276 415Q1333 415 1380.5 444.5Q1428 474 1451 528Q1446 551 1446 570Q1446 584 1450.0 599.5Q1454 615 1454 626V950Q1454 988 1470.0 1020.5Q1486 1053 1513.0 1077.0Q1540 1101 1574.5 1114.5Q1609 1128 1646 1128H1653V1126Q1627 1120 1604.0 1101.0Q1581 1082 1563.5 1057.5Q1546 1033 1536.0 1004.5Q1526 976 1526 950Z" style="fill:#d67d00;stroke:none" transform="scale(1,-1) translate(0,-256)" /></svg>