<?xml version="1.0" encoding="utf-8" ?>
<svg baseProfile="full" height="256" version="1.1" width="256" xmlns="http://www.w3.org/2000/svg" xmlns:ev="http://www.w3.org/2001/xml-events" xmlns:xlink="http://www.w3.org/1999/xlink"><defs /><path d="M2017 1725Q2060 1725 2093.5 1710.5Q2127 1696 2150.0 1670.0Q2173 1644 2185.0 1608.5Q2197 1573 2197 1532Q2196 1251 2195.5 973.5Q2195 696 2195 415Q2195 313 2168.5 221.5Q2142 130 2094.5 52.0Q2047 -26 1980.0 -88.5Q1913 -151 1832.0 -195.5Q1751 -240 1658.5 -263.5Q1566 -287 1466 -287Q1370 -287 1279.0 -265.0Q1188 -243 1106.5 -202.0Q1025 -161 957.0 -102.0Q889 -43 839.5 31.5Q790 106 762.5 194.5Q735 283 735 383V808Q735 847 751.0 880.0Q767 913 793.5 937.0Q820 961 855.0 974.5Q890 988 928 988Q976 988 1018.5 967.5Q1061 947 1089 908Q1092 945 1108.0 976.0Q1124 1007 1149.5 1029.5Q1175 1052 1208.0 1065.0Q1241 1078 1277 1078Q1336 1078 1384.5 1046.0Q1433 1014 1454 959Q1457 996 1473.5 1027.0Q1490 1058 1516.5 1080.5Q1543 1103 1576.5 1115.5Q1610 1128 1646 1128Q1692 1128 1733.0 1106.0Q1774 1084 1801 1047V1532Q1801 1573 1820.0 1608.5Q1839 1644 1870.0 1670.0Q1901 1696 1939.5 1710.5Q1978 1725 2017 1725Z" style="fill:#ffc83d;stroke:none" transform="scale(1,-1) translate(0,-256)" /></svg>