<?xml version="1.0" encoding="utf-8" ?>
<svg baseProfile="full" height="256" version="1.1" width="256" xmlns="http://www.w3.org/2000/svg" xmlns:ev="http://www.w3.org/2001/xml-events" xmlns:xlink="http://www.w3.org/1999/xlink"><defs /><path d="M795 1356Q844 1327 872.0 1278.0Q900 1229 900 1172Q900 1128 883.0 1089.0Q866 1050 837.0 1021.0Q808 992 769.0 975.0Q730 958 686 958Q641 958 602.0 974.5Q563 991 534.0 1020.0Q505 1049 488.5 1088.0Q472 1127 472 1172Q472 1229 500.0 1278.0Q528 1327 577 1356Q557 1387 557 1425Q557 1452 567.0 1475.0Q577 1498 594.5 1515.5Q612 1533 635.5 1543.0Q659 1553 686 1553Q713 1553 736.0 1543.0Q759 1533 776.5 1515.5Q794 1498 804.0 1475.0Q814 1452 814 1425Q814 1389 795 1356ZM1962 -287Q1962 -256 1974.0 -228.0Q1986 -200 2007.0 -180.0Q2028 -160 2055.5 -148.0Q2083 -136 2114 -136H2397V-215Q2397 -245 2376.5 -266.0Q2356 -287 2326 -287ZM1242 -287H1042V-136H1090Q1121 -136 1149.0 -147.5Q1177 -159 1197.5 -179.5Q1218 -200 1230.0 -227.5Q1242 -255 1242 -287Z" style="fill:#9b9b9b;stroke:none" transform="scale(1,-1) translate(0,-256)" /></svg>