<?xml version="1.0" encoding="utf-8" ?>
<svg baseProfile="full" height="256" version="1.1" width="256" xmlns="http://www.w3.org/2000/svg" xmlns:ev="http://www.w3.org/2001/xml-events" xmlns:xlink="http://www.w3.org/1999/xlink"><defs /><path d="M2029 1122Q2084 1122 2133.0 1103.5Q2182 1085 2223.0 1053.0Q2264 1021 2296.5 978.5Q2329 936 2351.5 887.5Q2374 839 2386.0 786.5Q2398 734 2398 684V-211Q2398 -239 2378.0 -260.0Q2358 -281 2329 -281Q2321 -281 2317 -280Q2239 -265 2174.0 -226.0Q2109 -187 2062.0 -130.5Q2015 -74 1988.5 -3.0Q1962 68 1962 148V320L1142 359V-287H1061Q985 -287 918.5 -258.0Q852 -229 802.5 -179.5Q753 -130 724.0 -63.5Q695 3 695 79V980H696Q696 1052 717.0 1110.0Q738 1168 774.5 1216.0Q811 1264 860.5 1304.0Q910 1344 968 1381Q1010 1408 1051.5 1418.0Q1093 1428 1142 1428Q1246 1428 1338.0 1382.5Q1430 1337 1494 1256H1495Q1496 1252 1503.5 1243.0Q1511 1234 1514 1230Q1539 1196 1572.5 1170.0Q1606 1144 1644.5 1126.5Q1683 1109 1725.0 1100.0Q1767 1091 1808 1091Q1840 1091 1867.0 1096.0Q1894 1101 1920.0 1106.5Q1946 1112 1972.5 1117.0Q1999 1122 2029 1122ZM596 1222Q611 1222 621.5 1211.5Q632 1201 632 1186Q632 1171 621.5 1160.5Q611 1150 596 1150H472Q457 1150 446.5 1160.5Q436 1171 436 1186Q436 1201 446.5 1211.5Q457 1222 472 1222Z" style="fill:#636363;stroke:none" transform="scale(1,-1) translate(0,-256)" /></svg>