<?xml version="1.0" encoding="utf-8" ?>
<svg baseProfile="full" height="256" version="1.1" width="256" xmlns="http://www.w3.org/2000/svg" xmlns:ev="http://www.w3.org/2001/xml-events" xmlns:xlink="http://www.w3.org/1999/xlink"><defs /><path d="M881 1725Q951 1725 1002.5 1689.5Q1054 1654 1084 1592Q1099 1562 1120.0 1514.0Q1141 1466 1160.5 1414.0Q1180 1362 1194.0 1313.5Q1208 1265 1208 1234Q1208 1166 1182.5 1106.5Q1157 1047 1112.5 1002.5Q1068 958 1008.5 932.5Q949 907 881 907Q813 907 753.5 933.0Q694 959 650.0 1003.0Q606 1047 580.5 1106.5Q555 1166 555 1234Q555 1265 569.0 1313.5Q583 1362 602.5 1414.0Q622 1466 643.0 1514.5Q664 1563 679 1593Q708 1654 760.0 1689.5Q812 1725 881 1725Z" style="fill:#636363;stroke:none" transform="scale(1,-1) translate(0,-256)" /></svg>