<?xml version="1.0" encoding="utf-8" ?>
<svg baseProfile="full" height="256" version="1.1" width="256" xmlns="http://www.w3.org/2000/svg" xmlns:ev="http://www.w3.org/2001/xml-events" xmlns:xlink="http://www.w3.org/1999/xlink"><defs /><path d="M313 1438Q313 1456 320.0 1471.5Q327 1487 338.5 1498.5Q350 1510 365.5 1517.0Q381 1524 399 1524Q434 1524 459 1499L1884 74Q1909 49 1909 14Q1909 -4 1902.5 -19.5Q1896 -35 1884.5 -46.5Q1873 -58 1857.5 -65.0Q1842 -72 1824 -72Q1807 -72 1791.0 -65.5Q1775 -59 1763 -47L339 1378Q313 1404 313 1438Z" style="fill:#f8312f;stroke:none" transform="scale(1,-1) translate(0,-256)" /></svg>