<?xml version="1.0" encoding="utf-8" ?>
<svg baseProfile="full" height="256" version="1.1" width="256" xmlns="http://www.w3.org/2000/svg" xmlns:ev="http://www.w3.org/2001/xml-events" xmlns:xlink="http://www.w3.org/1999/xlink"><defs /><path d="M831 216V1221L1409 1493Q1426 1501 1443.5 1504.0Q1461 1507 1478 1507Q1501 1507 1527.0 1501.0Q1553 1495 1574.5 1482.0Q1596 1469 1610.0 1449.0Q1624 1429 1624 1402V50Q1624 25 1614.5 2.5Q1605 -20 1588.5 -36.5Q1572 -53 1549.5 -62.5Q1527 -72 1502 -72Q1488 -72 1475.0 -68.5Q1462 -65 1450 -60Z" style="fill:#cdc4d6;stroke:none" transform="scale(1,-1) translate(0,-256)" /></svg>