<?xml version="1.0" encoding="utf-8" ?>
<svg baseProfile="full" height="256" version="1.1" width="256" xmlns="http://www.w3.org/2000/svg" xmlns:ev="http://www.w3.org/2001/xml-events" xmlns:xlink="http://www.w3.org/1999/xlink"><defs /><path d="M1581 1330Q1581 1293 1567.0 1260.0Q1553 1227 1528.5 1202.5Q1504 1178 1471.5 1164.0Q1439 1150 1402 1150Q1365 1150 1332.0 1164.0Q1299 1178 1274.5 1202.5Q1250 1227 1236.0 1260.0Q1222 1293 1222 1330Q1222 1367 1236.0 1400.0Q1250 1433 1274.5 1457.5Q1299 1482 1332.0 1496.0Q1365 1510 1402 1510Q1439 1510 1471.5 1496.0Q1504 1482 1528.5 1457.5Q1553 1433 1567.0 1400.0Q1581 1367 1581 1330ZM1641 1083Q1674 1083 1703.0 1070.5Q1732 1058 1754.0 1036.0Q1776 1014 1788.5 985.0Q1801 956 1801 923V552Q1801 538 1796.0 525.0Q1791 512 1782.0 501.5Q1773 491 1760.5 484.5Q1748 478 1733 478Q1701 478 1679.5 498.0Q1658 518 1658 550V865Q1658 879 1647.0 889.5Q1636 900 1622 900Q1608 900 1597.0 889.5Q1586 879 1586 865V0Q1586 -32 1564.0 -52.0Q1542 -72 1510 -72Q1496 -72 1483.5 -65.5Q1471 -59 1462.0 -48.5Q1453 -38 1447.5 -25.0Q1442 -12 1442 2V421Q1442 436 1431.5 446.5Q1421 457 1406 457Q1391 457 1380.5 446.5Q1370 436 1370 421V0Q1370 -32 1348.5 -52.0Q1327 -72 1295 -72Q1280 -72 1267.5 -65.5Q1255 -59 1246.0 -48.5Q1237 -38 1231.5 -25.0Q1226 -12 1226 2V864Q1226 879 1215.5 889.5Q1205 900 1190 900Q1176 900 1165.0 889.0Q1154 878 1154 864V550Q1154 518 1132.5 498.0Q1111 478 1079 478Q1064 478 1051.5 484.5Q1039 491 1030.0 501.5Q1021 512 1016.0 525.0Q1011 538 1011 552V923Q1011 956 1023.5 985.0Q1036 1014 1058.0 1036.0Q1080 1058 1109.0 1070.5Q1138 1083 1171 1083Z" style="fill:#ffffff;stroke:none" transform="scale(1,-1) translate(0,-256)" /></svg>