<?xml version="1.0" encoding="utf-8" ?>
<svg baseProfile="full" height="256" version="1.1" width="256" xmlns="http://www.w3.org/2000/svg" xmlns:ev="http://www.w3.org/2001/xml-events" xmlns:xlink="http://www.w3.org/1999/xlink"><defs /><path d="M1334 1078 1159 -144Q1157 -159 1147.5 -172.5Q1138 -186 1125.0 -196.0Q1112 -206 1097.0 -211.5Q1082 -217 1067 -217Q1062 -217 1058.0 -216.5Q1054 -216 1049 -215L808 -179Q772 -174 749.5 -146.5Q727 -119 727 -83Q727 -80 727.5 -77.5Q728 -75 728 -72L912 1666Q914 1689 932.5 1707.0Q951 1725 975 1725H1831Q1856 1725 1875.0 1708.0Q1894 1691 1897 1666L2083 -72Q2084 -77 2084 -87Q2084 -123 2061.0 -149.5Q2038 -176 2003 -182L1765 -223Q1760 -224 1756.5 -224.0Q1753 -224 1748 -224Q1731 -224 1714.5 -218.0Q1698 -212 1685.0 -201.5Q1672 -191 1663.5 -176.5Q1655 -162 1652 -144L1478 1078Z" style="fill:#00a6ed;stroke:none" transform="scale(1,-1) translate(0,-256)" /></svg>