<?xml version="1.0" encoding="utf-8" ?>
<svg baseProfile="full" height="256" version="1.1" width="256" xmlns="http://www.w3.org/2000/svg" xmlns:ev="http://www.w3.org/2001/xml-events" xmlns:xlink="http://www.w3.org/1999/xlink"><defs /><path d="M1407 1609Q1392 1609 1381.0 1619.0Q1370 1629 1370 1645Q1370 1661 1380.5 1671.5Q1391 1682 1407 1682Q1423 1682 1433.0 1671.0Q1443 1660 1443 1645Q1443 1630 1432.5 1619.5Q1422 1609 1407 1609ZM1334 1078Q1334 1081 1333.5 1083.5Q1333 1086 1333 1089Q1333 1117 1343.5 1130.0Q1354 1143 1370.5 1147.0Q1387 1151 1405.5 1150.0Q1424 1149 1440.5 1149.0Q1457 1149 1467.5 1152.0Q1478 1155 1478 1169V1509H1118Q1116 1383 1049.5 1300.5Q983 1218 862 1189Q865 1208 866.5 1227.0Q868 1246 870 1265Q878 1267 882 1269Q910 1280 938.5 1296.0Q967 1312 987 1335Q1001 1351 1012.0 1372.0Q1023 1393 1030.5 1416.5Q1038 1440 1042.5 1464.0Q1047 1488 1047 1509H896L903 1581H1906L1914 1509H1765Q1765 1488 1768.5 1464.0Q1772 1440 1779.5 1416.0Q1787 1392 1798.0 1370.5Q1809 1349 1823 1333Q1843 1310 1872.0 1294.0Q1901 1278 1929 1267Q1932 1266 1934.5 1265.0Q1937 1264 1940 1263L1948 1186Q1827 1213 1760.0 1295.5Q1693 1378 1693 1504V1509H1551L1550 1139Q1550 1113 1532.0 1095.5Q1514 1078 1488 1078ZM1631 -161Q1631 -144 1641.5 -132.0Q1652 -120 1669 -117L2067 -49L2074 -48Q2091 -48 2103.0 -58.5Q2115 -69 2118 -85Q2122 -107 2128.0 -131.5Q2134 -156 2134 -177Q2134 -194 2123.0 -206.5Q2112 -219 2096 -222L1698 -290L1691 -291Q1674 -291 1662.0 -280.0Q1650 -269 1647 -253Q1643 -231 1637.0 -206.5Q1631 -182 1631 -161ZM1122 -291Q1120 -291 1118.0 -290.5Q1116 -290 1114 -290L715 -222Q699 -219 688.5 -207.0Q678 -195 678 -178Q678 -156 683.5 -132.0Q689 -108 693 -86Q695 -71 708.0 -60.0Q721 -49 737 -49Q739 -49 741.0 -49.5Q743 -50 745 -50L1143 -118Q1158 -120 1169.0 -132.0Q1180 -144 1180 -161Q1180 -183 1174.5 -207.5Q1169 -232 1165 -254Q1163 -269 1150.5 -280.0Q1138 -291 1122 -291Z" style="fill:#0074ba;stroke:none" transform="scale(1,-1) translate(0,-256)" /></svg>