<?xml version="1.0" encoding="utf-8" ?>
<svg baseProfile="full" height="256" version="1.1" width="256" xmlns="http://www.w3.org/2000/svg" xmlns:ev="http://www.w3.org/2001/xml-events" xmlns:xlink="http://www.w3.org/1999/xlink"><defs /><path d="M1047 1438Q1078 1438 1093.0 1423.0Q1108 1408 1113.5 1386.5Q1119 1365 1118.5 1340.0Q1118 1315 1118 1294H1262Q1292 1294 1313.0 1273.0Q1334 1252 1334 1222Q1334 1190 1319.0 1175.0Q1304 1160 1282.0 1154.5Q1260 1149 1234.5 1149.5Q1209 1150 1188 1150L1324 1007Q1344 987 1344 957Q1344 928 1322.5 907.0Q1301 886 1272 886Q1258 886 1244.0 891.5Q1230 897 1220 908L1118 1015V791Q1118 762 1097.0 740.5Q1076 719 1047 719Q1017 719 996.0 740.0Q975 761 975 791V971Q960 957 931.5 933.0Q903 909 871.5 885.5Q840 862 810.0 844.5Q780 827 761 827Q730 827 708.5 847.5Q687 868 687 900Q687 919 697.0 935.0Q707 951 723 961L724 959L723 961Q790 999 843.0 1047.5Q896 1096 950 1150H831Q801 1150 780.0 1171.0Q759 1192 759 1222Q759 1252 780.0 1273.0Q801 1294 831 1294H975Q975 1315 974.5 1340.0Q974 1365 980.0 1387.0Q986 1409 1001.0 1423.5Q1016 1438 1047 1438ZM831 575Q831 605 852.0 626.0Q873 647 903 647H1909Q1939 647 1960.0 626.0Q1981 605 1981 575Q1981 545 1960.0 524.0Q1939 503 1909 503H903Q873 503 852.0 524.0Q831 545 831 575ZM687 360Q687 389 708.5 410.0Q730 431 759 431H2053Q2082 431 2103.5 410.0Q2125 389 2125 360Q2125 330 2104.0 309.0Q2083 288 2053 288H1478V50H1476Q1472 24 1459.0 1.5Q1446 -21 1427.5 -37.5Q1409 -54 1385.0 -63.0Q1361 -72 1334 -72H1262Q1233 -72 1211.5 -50.5Q1190 -29 1190 0Q1190 29 1211.5 50.5Q1233 72 1262 72Q1272 72 1285.0 71.5Q1298 71 1308.5 74.0Q1319 77 1326.5 84.5Q1334 92 1334 108V288H759Q729 288 708.0 309.0Q687 330 687 360ZM861 72Q861 100 882 123L983 225Q1004 246 1034 246Q1064 246 1085.0 224.5Q1106 203 1106 174Q1106 144 1085 123L983 21Q962 0 932 0Q903 0 882.0 21.5Q861 43 861 72ZM1765 240Q1795 240 1816 219L1918 117Q1939 96 1939 66Q1939 37 1917.5 16.0Q1896 -5 1867 -5Q1839 -5 1816 16L1714 117Q1693 138 1693 168Q1693 198 1714.5 219.0Q1736 240 1765 240ZM1765 1438Q1796 1438 1811.0 1423.5Q1826 1409 1832.0 1387.0Q1838 1365 1837.5 1340.0Q1837 1315 1837 1294H1981Q2011 1294 2032.0 1273.0Q2053 1252 2053 1222Q2053 1192 2032.0 1171.0Q2011 1150 1981 1150H1844Q1898 1096 1951.0 1047.5Q2004 999 2071 961L2070 959L2071 961Q2087 951 2097.0 935.0Q2107 919 2107 900Q2107 869 2086.0 848.0Q2065 827 2033 827Q2013 827 1986.0 842.5Q1959 858 1931.5 879.0Q1904 900 1878.5 921.5Q1853 943 1837 955V791Q1837 761 1816.0 740.0Q1795 719 1765 719Q1736 719 1714.5 740.5Q1693 762 1693 791V971Q1679 957 1651.0 933.0Q1623 909 1590.5 885.5Q1558 862 1528.0 844.5Q1498 827 1480 827Q1448 827 1427.0 848.0Q1406 869 1406 900Q1406 919 1416.0 935.0Q1426 951 1442 961L1443 959L1442 961Q1467 975 1499.0 997.5Q1531 1020 1562.5 1046.5Q1594 1073 1622.0 1100.0Q1650 1127 1668 1150H1550Q1520 1150 1499.0 1171.0Q1478 1192 1478 1222Q1478 1252 1499.0 1273.0Q1520 1294 1550 1294H1693Q1693 1315 1692.5 1340.0Q1692 1365 1698.0 1387.0Q1704 1409 1719.0 1423.5Q1734 1438 1765 1438Z" style="fill:#ffffff;stroke:none" transform="scale(1,-1) translate(0,-256)" /></svg>