<?xml version="1.0" encoding="utf-8" ?>
<svg baseProfile="full" height="256" version="1.1" width="256" xmlns="http://www.w3.org/2000/svg" xmlns:ev="http://www.w3.org/2001/xml-events" xmlns:xlink="http://www.w3.org/1999/xlink"><defs /><path d="M1981 1452Q1885 1446 1798.0 1413.0Q1711 1380 1637.5 1325.0Q1564 1270 1505.0 1197.0Q1446 1124 1406 1039V1198L1435 1236Q1473 1286 1522.0 1328.0Q1571 1370 1627.0 1400.5Q1683 1431 1745.0 1448.0Q1807 1465 1871 1465Q1899 1465 1926.5 1461.5Q1954 1458 1981 1452ZM1027 1457Q934 1435 852.5 1392.5Q771 1350 710.0 1288.0Q649 1226 614.0 1144.0Q579 1062 579 962Q579 874 604.5 789.0Q630 704 673.0 625.5Q716 547 773.0 477.0Q830 407 893 350Q1043 215 1197.5 86.5Q1352 -42 1513 -164Q1490 -182 1465.0 -201.5Q1440 -221 1409 -221Q1392 -221 1378.5 -215.5Q1365 -210 1351 -200Q1321 -178 1288.5 -151.0Q1256 -124 1223.5 -95.0Q1191 -66 1159.5 -37.0Q1128 -8 1100 17Q1001 108 904.0 199.0Q807 290 713 385Q656 443 606.0 512.5Q556 582 519.0 658.5Q482 735 460.5 817.0Q439 899 439 982Q439 1126 507.0 1234.0Q575 1342 703 1406Q758 1434 818.0 1449.5Q878 1465 940 1465Q981 1465 1027 1457Z" style="fill:#cfcfcf;stroke:none" transform="scale(1,-1) translate(0,-256)" /></svg>