<?xml version="1.0" encoding="utf-8" ?>
<svg baseProfile="full" height="256" version="1.1" width="256" xmlns="http://www.w3.org/2000/svg" xmlns:ev="http://www.w3.org/2001/xml-events" xmlns:xlink="http://www.w3.org/1999/xlink"><defs /><path d="M508 431H400V503H508Q523 503 533.0 492.5Q543 482 543 467Q543 452 533.0 441.5Q523 431 508 431ZM508 288H400V360H508Q523 360 533.0 349.5Q543 339 543 324Q543 309 533.0 298.5Q523 288 508 288ZM400 144H508Q523 144 533.0 154.5Q543 165 543 180Q543 195 533.0 205.5Q523 216 508 216H400Z" style="fill:#321b41;stroke:none" transform="scale(1,-1) translate(0,-256)" /></svg>