<?xml version="1.0" encoding="utf-8" ?>
<svg baseProfile="full" height="256" version="1.1" width="256" xmlns="http://www.w3.org/2000/svg" xmlns:ev="http://www.w3.org/2001/xml-events" xmlns:xlink="http://www.w3.org/1999/xlink"><defs /><path d="M1550 719H1478V1222H1550ZM2125 719H2053V1222H2125ZM1514 108Q1499 108 1488.5 118.5Q1478 129 1478 144Q1478 248 1517.5 339.5Q1557 431 1625.0 499.5Q1693 568 1784.5 607.5Q1876 647 1980 647H2377Q2392 647 2402.5 636.5Q2413 626 2413 611Q2413 596 2402.5 585.5Q2392 575 2377 575H1980Q1891 575 1812.5 541.0Q1734 507 1675.5 448.5Q1617 390 1583.5 311.5Q1550 233 1550 144Q1550 129 1539.5 118.5Q1529 108 1514 108ZM653 323Q653 338 663.5 348.5Q674 359 689 359H868Q935 359 993.5 333.5Q1052 308 1096.0 264.0Q1140 220 1165.5 161.0Q1191 102 1191 35Q1191 21 1180.0 10.0Q1169 -1 1155 -1Q1141 -1 1130.0 10.0Q1119 21 1119 35Q1119 87 1099.5 133.0Q1080 179 1046.0 213.0Q1012 247 966.0 267.0Q920 287 868 287H689Q674 287 663.5 297.5Q653 308 653 323Z" style="fill:#008463;stroke:none" transform="scale(1,-1) translate(0,-256)" /></svg>