<?xml version="1.0" encoding="utf-8" ?>
<svg baseProfile="full" height="256" version="1.1" width="256" xmlns="http://www.w3.org/2000/svg" xmlns:ev="http://www.w3.org/2001/xml-events" xmlns:xlink="http://www.w3.org/1999/xlink"><defs /><path d="M2053 1366Q2083 1366 2104.0 1345.0Q2125 1324 2125 1294V1222L1754 1151L1383 1222Q1373 1224 1359.0 1223.0Q1345 1222 1334 1222Q1304 1222 1283.0 1243.0Q1262 1264 1262 1294Q1262 1324 1283.0 1345.0Q1304 1366 1334 1366ZM2125 716Q2156 710 2182.5 694.5Q2209 679 2228.0 656.0Q2247 633 2257.5 604.5Q2268 576 2268 544V126Q2268 85 2252.5 49.0Q2237 13 2210.5 -14.0Q2184 -41 2148.0 -56.5Q2112 -72 2071 -72H543Q513 -72 487.0 -60.5Q461 -49 441.5 -29.5Q422 -10 411.0 16.0Q400 42 400 72V501Q400 541 418.5 580.5Q437 620 467.0 650.5Q497 681 535.5 700.0Q574 719 615 719H903Q924 719 941.0 718.0Q958 717 974.5 716.5Q991 716 1008.5 716.5Q1026 717 1047 719Q1075 722 1098.5 726.0Q1122 730 1143.5 734.5Q1165 739 1188.0 744.5Q1211 750 1239 755L1622 827L2125 719Z" style="fill:#00f397;stroke:none" transform="scale(1,-1) translate(0,-256)" /></svg>