<?xml version="1.0" encoding="utf-8" ?>
<svg baseProfile="full" height="256" version="1.1" width="256" xmlns="http://www.w3.org/2000/svg" xmlns:ev="http://www.w3.org/2001/xml-events" xmlns:xlink="http://www.w3.org/1999/xlink"><defs /><path d="M544 360Q555 360 564 357L923 249Q946 242 960.5 223.0Q975 204 975 181Q975 145 946 122L643 -105L845 -145Q870 -150 886.0 -170.0Q902 -190 902 -215Q902 -245 881.5 -266.0Q861 -287 831 -287Q822 -287 817 -286L457 -214Q433 -209 416.0 -189.0Q399 -169 399 -144Q399 -127 406.5 -111.5Q414 -96 428 -86L746 152L523 219Q500 226 486.0 244.5Q472 263 472 287Q472 317 493.0 338.5Q514 360 544 360Z" style="fill:#aeddff;stroke:none" transform="scale(1,-1) translate(0,-256)" /></svg>