<?xml version="1.0" encoding="utf-8" ?>
<svg baseProfile="full" height="256" version="1.1" width="256" xmlns="http://www.w3.org/2000/svg" xmlns:ev="http://www.w3.org/2001/xml-events" xmlns:xlink="http://www.w3.org/1999/xlink"><defs /><path d="M903 503Q903 533 924.0 554.0Q945 575 975 575H1478Q1508 575 1529.0 554.0Q1550 533 1550 503Q1550 477 1532 456L1133 0H1478Q1508 0 1529.0 -21.0Q1550 -42 1550 -72Q1550 -101 1528.5 -122.5Q1507 -144 1478 -144H975Q946 -144 924.5 -123.0Q903 -102 903 -72Q903 -44 921 -24L1319 431H975Q946 431 924.5 452.5Q903 474 903 503Z" style="fill:#83cbff;stroke:none" transform="scale(1,-1) translate(0,-256)" /></svg>