<?xml version="1.0" encoding="utf-8" ?>
<svg baseProfile="full" height="256" version="1.1" width="256" xmlns="http://www.w3.org/2000/svg" xmlns:ev="http://www.w3.org/2001/xml-events" xmlns:xlink="http://www.w3.org/1999/xlink"><defs /><path d="M2268 1186Q2268 1157 2256 1135L1864 408L2281 501Q2293 504 2304 504Q2326 504 2346.0 495.5Q2366 487 2381.0 472.0Q2396 457 2404.5 437.5Q2413 418 2413 396Q2413 358 2389.0 328.0Q2365 298 2328 290L1681 147Q1669 144 1657 144Q1635 144 1615.5 152.5Q1596 161 1581.5 175.5Q1567 190 1558.5 209.5Q1550 229 1550 251Q1550 277 1563 303L1942 1008L1473 867Q1460 863 1442 863Q1420 863 1400.5 871.5Q1381 880 1366.0 895.0Q1351 910 1342.5 929.5Q1334 949 1334 971Q1334 1006 1355.5 1034.5Q1377 1063 1411 1074L2130 1289Q2147 1294 2161 1294Q2183 1294 2202.5 1285.5Q2222 1277 2236.5 1262.0Q2251 1247 2259.5 1227.5Q2268 1208 2268 1186Z" style="fill:#00a6ed;stroke:none" transform="scale(1,-1) translate(0,-256)" /></svg>