<?xml version="1.0" encoding="utf-8" ?>
<svg baseProfile="full" height="256" version="1.1" width="256" xmlns="http://www.w3.org/2000/svg" xmlns:ev="http://www.w3.org/2001/xml-events" xmlns:xlink="http://www.w3.org/1999/xlink"><defs /><path d="M1406 476Q1356 476 1311.5 495.0Q1267 514 1234.0 547.0Q1201 580 1182.0 624.5Q1163 669 1163 719Q1163 769 1182.0 813.0Q1201 857 1234.0 890.0Q1267 923 1311.5 942.0Q1356 961 1406 961Q1456 961 1500.5 942.0Q1545 923 1578.0 890.0Q1611 857 1630.0 813.0Q1649 769 1649 719Q1649 669 1630.0 624.5Q1611 580 1578.0 547.0Q1545 514 1500.5 495.0Q1456 476 1406 476Z" style="fill:#a56953;stroke:none" transform="scale(1,-1) translate(0,-256)" /></svg>