<?xml version="1.0" encoding="utf-8" ?>
<svg baseProfile="full" height="256" version="1.1" width="256" xmlns="http://www.w3.org/2000/svg" xmlns:ev="http://www.w3.org/2001/xml-events" xmlns:xlink="http://www.w3.org/1999/xlink"><defs /><path d="M1406 1725Q1545 1725 1673.5 1689.0Q1802 1653 1914.0 1587.5Q2026 1522 2117.5 1430.5Q2209 1339 2274.5 1227.0Q2340 1115 2376.0 986.5Q2412 858 2412 719Q2412 580 2376.0 451.5Q2340 323 2274.5 211.0Q2209 99 2117.5 7.0Q2026 -85 1914.0 -150.5Q1802 -216 1673.5 -252.0Q1545 -288 1406 -288Q1267 -288 1138.5 -252.0Q1010 -216 898.0 -150.5Q786 -85 694.5 7.0Q603 99 537.5 211.0Q472 323 436.0 451.5Q400 580 400 719Q400 858 436.0 986.5Q472 1115 537.5 1227.0Q603 1339 694.5 1430.5Q786 1522 898.0 1587.5Q1010 1653 1138.5 1689.0Q1267 1725 1406 1725ZM1406 -54Q1574 -54 1715.5 4.0Q1857 62 1960.5 165.0Q2064 268 2122.0 409.5Q2180 551 2180 719Q2180 887 2122.0 1029.0Q2064 1171 1960.5 1274.5Q1857 1378 1715.5 1436.0Q1574 1494 1406 1494Q1238 1494 1096.5 1436.0Q955 1378 851.5 1274.5Q748 1171 690.0 1029.0Q632 887 632 719Q632 551 690.0 409.5Q748 268 851.5 165.0Q955 62 1096.5 4.0Q1238 -54 1406 -54Z" style="fill:#a56953;stroke:none" transform="scale(1,-1) translate(0,-256)" /></svg>