<?xml version="1.0" encoding="utf-8" ?>
<svg baseProfile="full" height="256" version="1.1" width="256" xmlns="http://www.w3.org/2000/svg" xmlns:ev="http://www.w3.org/2001/xml-events" xmlns:xlink="http://www.w3.org/1999/xlink"><defs /><path d="M1406 606Q1383 606 1362.5 615.0Q1342 624 1326.5 639.5Q1311 655 1302.0 675.5Q1293 696 1293 719Q1293 742 1302.0 762.5Q1311 783 1326.5 798.5Q1342 814 1362.5 823.0Q1383 832 1406 832Q1429 832 1449.5 823.0Q1470 814 1485.5 798.5Q1501 783 1510.0 762.5Q1519 742 1519 719Q1519 695 1510.0 674.5Q1501 654 1486.0 639.0Q1471 624 1450.5 615.0Q1430 606 1406 606Z" style="fill:#f3c07b;stroke:none" transform="scale(1,-1) translate(0,-256)" /></svg>