<?xml version="1.0" encoding="utf-8" ?>
<svg baseProfile="full" height="256" version="1.1" width="256" xmlns="http://www.w3.org/2000/svg" xmlns:ev="http://www.w3.org/2001/xml-events" xmlns:xlink="http://www.w3.org/1999/xlink"><defs /><path d="M1293 807 875 1405Q867 1416 867 1430Q867 1447 879.5 1460.0Q892 1473 910 1473Q933 1473 946 1455L1365 857V1587Q1365 1605 1377.5 1617.5Q1390 1630 1408 1630Q1426 1630 1439.0 1617.5Q1452 1605 1452 1587V838L1933 1412Q1945 1427 1966 1427Q1984 1427 1996.5 1414.5Q2009 1402 2009 1383Q2009 1367 1999 1356L1530 797Q1542 800 1578.5 810.0Q1615 820 1666.5 834.0Q1718 848 1779.5 865.0Q1841 882 1904.0 899.0Q1967 916 2026.5 932.0Q2086 948 2133.5 960.0Q2181 972 2211.0 979.5Q2241 987 2246 987Q2264 987 2276.5 974.5Q2289 962 2289 943Q2289 928 2280.0 917.0Q2271 906 2257 902L1552 713L2238 463Q2251 458 2259.0 447.0Q2267 436 2267 422Q2267 404 2254.0 391.5Q2241 379 2224 379Q2219 379 2189.0 389.0Q2159 399 2112.5 415.0Q2066 431 2008.0 452.0Q1950 473 1889.0 495.5Q1828 518 1768.0 540.0Q1708 562 1657.5 581.0Q1607 600 1571.5 613.0Q1536 626 1523 631L1941 33Q1949 22 1949 8Q1949 -11 1937.0 -23.0Q1925 -35 1906 -35Q1895 -35 1885.5 -30.5Q1876 -26 1870 -17L1452 581V-149Q1452 -167 1439.0 -179.5Q1426 -192 1408 -192Q1390 -192 1377.5 -179.5Q1365 -167 1365 -149V599L884 26Q872 11 850 11Q832 11 819.5 23.5Q807 36 807 54Q807 71 817 82L1286 641Q1273 638 1236.5 628.0Q1200 618 1149.0 604.0Q1098 590 1036.5 573.0Q975 556 912.5 539.0Q850 522 790.5 506.0Q731 490 683.5 478.0Q636 466 605.5 458.5Q575 451 570 451Q552 451 539.5 463.5Q527 476 527 494Q527 509 536.0 520.5Q545 532 559 536L1264 725L578 975Q565 980 557.0 990.5Q549 1001 549 1015Q549 1034 562.0 1046.5Q575 1059 593 1059Q597 1059 627.0 1049.0Q657 1039 703.5 1023.0Q750 1007 808.0 985.5Q866 964 927.5 941.5Q989 919 1049.0 897.0Q1109 875 1159.5 856.5Q1210 838 1245.5 824.5Q1281 811 1293 807Z" style="fill:#f3ad61;stroke:none" transform="scale(1,-1) translate(0,-256)" /></svg>