<?xml version="1.0" encoding="utf-8" ?>
<svg baseProfile="full" height="256" version="1.1" width="256" xmlns="http://www.w3.org/2000/svg" xmlns:ev="http://www.w3.org/2001/xml-events" xmlns:xlink="http://www.w3.org/1999/xlink"><defs /><path d="M2268 -36Q2268 -58 2259.5 -77.5Q2251 -97 2236.5 -112.0Q2222 -127 2202.5 -135.5Q2183 -144 2161 -144Q2139 -144 2119.5 -135.5Q2100 -127 2085.0 -112.0Q2070 -97 2061.5 -77.5Q2053 -58 2053 -36Q2053 -14 2061.5 6.0Q2070 26 2084.5 40.5Q2099 55 2118.5 63.5Q2138 72 2161 72Q2183 72 2203.0 63.5Q2223 55 2237.0 40.0Q2251 25 2259.5 5.5Q2268 -14 2268 -36ZM825 0H621Q615 -18 615 -36Q615 -58 623.5 -77.5Q632 -97 647.0 -112.0Q662 -127 681.5 -135.5Q701 -144 723 -144Q745 -144 764.5 -135.5Q784 -127 799.0 -112.0Q814 -97 822.5 -77.5Q831 -58 831 -36Q831 -18 825 0Z" style="fill:#e6e6e6;stroke:none" transform="scale(1,-1) translate(0,-256)" /></svg>