<?xml version="1.0" encoding="utf-8" ?>
<svg baseProfile="full" height="256" version="1.1" width="256" xmlns="http://www.w3.org/2000/svg" xmlns:ev="http://www.w3.org/2001/xml-events" xmlns:xlink="http://www.w3.org/1999/xlink"><defs /><path d="M2411 -36Q2411 -88 2391.5 -134.0Q2372 -180 2338.0 -214.0Q2304 -248 2258.0 -267.5Q2212 -287 2160 -287Q2108 -287 2062.0 -267.5Q2016 -248 1982.0 -214.0Q1948 -180 1928.0 -134.0Q1908 -88 1908 -36Q1908 16 1928.0 62.0Q1948 108 1982.0 142.0Q2016 176 2062.0 196.0Q2108 216 2160 216Q2212 216 2258.0 196.0Q2304 176 2338.0 142.0Q2372 108 2391.5 62.0Q2411 16 2411 -36ZM972 0H474Q472 -9 472.0 -18.0Q472 -27 472 -36Q472 -88 491.5 -134.0Q511 -180 545.0 -214.0Q579 -248 625.0 -267.5Q671 -287 723 -287Q775 -287 821.0 -267.5Q867 -248 901.0 -214.0Q935 -180 955.0 -134.0Q975 -88 975 -36Q975 -18 972 0Z" style="fill:#321b41;stroke:none" transform="scale(1,-1) translate(0,-256)" /></svg>