<?xml version="1.0" encoding="utf-8" ?>
<svg baseProfile="full" height="256" version="1.1" width="256" xmlns="http://www.w3.org/2000/svg" xmlns:ev="http://www.w3.org/2001/xml-events" xmlns:xlink="http://www.w3.org/1999/xlink"><defs /><path d="M969 1438H1985Q2059 1438 2123.5 1410.0Q2188 1382 2236.0 1334.0Q2284 1286 2311.5 1221.0Q2339 1156 2339 1083V719H1980V1294H1189V719H758Q759 721 762.5 732.5Q766 744 770.5 757.0Q775 770 778.5 780.5Q782 791 782 791Q796 813 807.5 827.5Q819 842 834 863L939 1006L950 1294H795Q789 1294 787.5 1297.5Q786 1301 786 1306Q786 1307 788.0 1312.0Q790 1317 792.5 1322.5Q795 1328 797.0 1332.5Q799 1337 800 1338Q826 1385 871.0 1411.5Q916 1438 969 1438ZM758 431V214Q729 214 707.5 235.5Q686 257 686 286V359Q686 388 707.5 409.5Q729 431 758 431Z" style="fill:#f9c23c;stroke:none" transform="scale(1,-1) translate(0,-256)" /></svg>