<?xml version="1.0" encoding="utf-8" ?>
<svg baseProfile="full" height="256" version="1.1" width="256" xmlns="http://www.w3.org/2000/svg" xmlns:ev="http://www.w3.org/2001/xml-events" xmlns:xlink="http://www.w3.org/1999/xlink"><defs /><path d="M1549 144V719H1621V144H1808Q1837 200 1881.0 244.0Q1925 288 1981 317V719H2340V-72H974L938 0H412Q407 0 403.5 3.5Q400 7 400 12Q400 77 426.5 134.0Q453 191 498.0 233.0Q543 275 601.5 299.5Q660 324 723 324Q737 324 751.0 322.5Q765 321 779 319Q765 347 753.5 372.0Q742 397 734.0 422.0Q726 447 721.5 474.0Q717 501 717 533Q717 559 720.5 582.0Q724 605 729.5 627.5Q735 650 742.5 672.0Q750 694 758 719Q760 720 768.5 723.0Q777 726 778 726H1190V144Z" style="fill:#008463;stroke:none" transform="scale(1,-1) translate(0,-256)" /></svg>