<?xml version="1.0" encoding="utf-8" ?>
<svg baseProfile="full" height="256" version="1.1" width="256" xmlns="http://www.w3.org/2000/svg" xmlns:ev="http://www.w3.org/2001/xml-events" xmlns:xlink="http://www.w3.org/1999/xlink"><defs /><path d="M930 824Q938 824 946.0 819.0Q954 814 961.0 807.0Q968 800 974.5 792.0Q981 784 986 779Q1004 792 1024.5 799.5Q1045 807 1068 807Q1088 807 1107.0 801.0Q1126 795 1142 784Q1147 781 1150.0 777.5Q1153 774 1158 772H1159Q1167 764 1167 752Q1167 741 1159.0 733.0Q1151 725 1140 725Q1136 725 1128.5 727.0Q1121 729 1120 734Q1109 742 1095.0 747.5Q1081 753 1067 753Q1051 753 1034.0 744.5Q1017 736 1003.5 722.5Q990 709 981.5 692.0Q973 675 973 659Q973 630 993.0 609.0Q1013 588 1042 588Q1064 588 1080.5 600.0Q1097 612 1114.0 627.0Q1131 642 1152.5 654.0Q1174 666 1206 666Q1233 666 1256.0 657.0Q1279 648 1296.0 632.0Q1313 616 1322.5 593.0Q1332 570 1332 543Q1332 521 1324.5 500.5Q1317 480 1304 462Q1309 457 1317.5 449.5Q1326 442 1334.0 433.5Q1342 425 1348.0 416.0Q1354 407 1354 400Q1354 389 1346.0 381.0Q1338 373 1327 373Q1319 373 1310.5 379.0Q1302 385 1293.5 393.0Q1285 401 1277.5 409.5Q1270 418 1265 423Q1247 410 1226.5 402.5Q1206 395 1183 395Q1174 395 1158.5 398.0Q1143 401 1128.0 407.0Q1113 413 1102.5 422.0Q1092 431 1092 443Q1092 454 1100.0 462.5Q1108 471 1119 471Q1128 471 1136 465L1137 463Q1148 457 1159.5 452.5Q1171 448 1184 448Q1200 448 1217.0 456.5Q1234 465 1248.0 479.0Q1262 493 1270.5 509.5Q1279 526 1279 543Q1279 574 1258.0 593.0Q1237 612 1207 612Q1184 612 1167.5 600.0Q1151 588 1133.5 573.0Q1116 558 1094.5 546.0Q1073 534 1041 534Q1015 534 993.0 544.0Q971 554 954.5 571.5Q938 589 928.5 611.5Q919 634 919 659Q919 681 926.5 702.0Q934 723 948 740Q943 745 935.5 751.5Q928 758 920.5 765.5Q913 773 908.0 781.0Q903 789 903 797Q903 808 911.0 816.0Q919 824 930 824Z" style="fill:#ffffff;stroke:none" transform="scale(1,-1) translate(0,-256)" /></svg>