<?xml version="1.0" encoding="utf-8" ?>
<svg baseProfile="full" height="256" version="1.1" width="256" xmlns="http://www.w3.org/2000/svg" xmlns:ev="http://www.w3.org/2001/xml-events" xmlns:xlink="http://www.w3.org/1999/xlink"><defs /><path d="M1699 163V355Q1699 395 1714.0 430.0Q1729 465 1755.0 491.0Q1781 517 1816.0 532.5Q1851 548 1891 548Q1931 548 1966.0 532.5Q2001 517 2027.0 491.0Q2053 465 2068.5 430.0Q2084 395 2084 355V-292Q2039 -292 2003.0 -265.5Q1967 -239 1955 -195Q1909 -194 1873.5 -165.5Q1838 -137 1828 -92Q1801 -91 1778.0 -80.0Q1755 -69 1738.0 -51.0Q1721 -33 1711.0 -9.5Q1701 14 1701 41V163Z" style="fill:#e6e6e6;stroke:none" transform="scale(1,-1) translate(0,-256)" /></svg>