<?xml version="1.0" encoding="utf-8" ?>
<svg baseProfile="full" height="256" version="1.1" width="256" xmlns="http://www.w3.org/2000/svg" xmlns:ev="http://www.w3.org/2001/xml-events" xmlns:xlink="http://www.w3.org/1999/xlink"><defs /><path d="M1350 -121Q1325 -121 1301.5 -111.5Q1278 -102 1261 -85L1118 58Q1101 75 1091.5 98.5Q1082 122 1082 147Q1082 172 1091.5 195.5Q1101 219 1118 236L2038 1154Q2055 1171 2078.0 1181.0Q2101 1191 2126 1191Q2151 1191 2174.5 1181.0Q2198 1171 2215 1154L2358 1011Q2394 975 2394 923Q2394 898 2384.5 874.5Q2375 851 2358 834L1439 -85Q1422 -102 1398.5 -111.5Q1375 -121 1350 -121Z" style="fill:#008463;stroke:none" transform="scale(1,-1) translate(0,-256)" /></svg>