<?xml version="1.0" encoding="utf-8" ?>
<svg baseProfile="full" height="256" version="1.1" width="256" xmlns="http://www.w3.org/2000/svg" xmlns:ev="http://www.w3.org/2001/xml-events" xmlns:xlink="http://www.w3.org/1999/xlink"><defs /><path d="M1827 -88Q1824 -76 1824 -62V204H1849V-62Q1849 -109 1878.5 -145.5Q1908 -182 1954 -192Q1952 -184 1951.0 -175.0Q1950 -166 1950 -158V174H2084V173H1975V-136Q1975 -161 1982.0 -186.0Q1989 -211 2003.0 -232.0Q2017 -253 2037.5 -268.0Q2058 -283 2084 -289V-292Q2039 -292 2003.0 -265.0Q1967 -238 1955 -195Q1909 -194 1873.5 -165.5Q1838 -137 1828 -92Q1801 -91 1778.0 -80.0Q1755 -69 1738.0 -51.0Q1721 -33 1711.0 -9.5Q1701 14 1701 41V306H1726V41Q1726 18 1733.5 -3.0Q1741 -24 1754.5 -41.0Q1768 -58 1786.5 -70.5Q1805 -83 1827 -88Z" style="fill:#d3d3d3;stroke:none" transform="scale(1,-1) translate(0,-256)" /></svg>