<?xml version="1.0" encoding="utf-8" ?>
<svg baseProfile="full" height="256" version="1.1" width="256" xmlns="http://www.w3.org/2000/svg" xmlns:ev="http://www.w3.org/2001/xml-events" xmlns:xlink="http://www.w3.org/1999/xlink"><defs /><path d="M938 1226H606Q587 1226 572 1230Q576 1207 588.5 1188.0Q601 1169 618.5 1155.0Q636 1141 657.5 1133.0Q679 1125 702 1125H968V1100H702Q688 1100 675 1103Q686 1058 722.0 1030.0Q758 1002 805 1002H1070V977H805Q778 977 754.5 986.5Q731 996 713.0 1013.0Q695 1030 684.0 1053.0Q673 1076 672 1103Q627 1114 598.5 1149.5Q570 1185 569 1231Q526 1243 499.0 1278.5Q472 1314 472 1359H475Q481 1333 496.0 1312.5Q511 1292 532.0 1278.0Q553 1264 578.0 1257.0Q603 1250 628 1250H937V1359H938Z" style="fill:#d3d3d3;stroke:none" transform="scale(1,-1) translate(0,-256)" /></svg>