<?xml version="1.0" encoding="utf-8" ?>
<svg baseProfile="full" height="256" version="1.1" width="256" xmlns="http://www.w3.org/2000/svg" xmlns:ev="http://www.w3.org/2001/xml-events" xmlns:xlink="http://www.w3.org/1999/xlink"><defs /><path d="M1597 1585Q1580 1585 1564.0 1579.0Q1548 1573 1536 1561L715 740H714Q702 728 696.0 712.5Q690 697 690 680Q690 663 696.0 647.5Q702 632 714 620L1141 193Q1153 181 1169.0 174.5Q1185 168 1202 168Q1237 168 1262 193L2082 1014Q2108 1040 2108 1074Q2108 1109 2083 1134L1656 1561Q1632 1585 1597 1585ZM1596 1638Q1623 1638 1648.0 1628.0Q1673 1618 1693 1598L2120 1171Q2140 1151 2150.0 1125.5Q2160 1100 2160 1073Q2160 1046 2150.0 1021.0Q2140 996 2120 976L1299 156Q1279 136 1254.0 125.5Q1229 115 1201 115Q1174 115 1149.0 125.5Q1124 136 1104 155V156L677 582Q658 601 647.5 626.5Q637 652 637 679Q637 706 647.0 731.5Q657 757 677 777L1499 1598Q1518 1617 1543.5 1627.5Q1569 1638 1596 1638ZM1847 1072Q1847 1021 1827.5 976.5Q1808 932 1775.0 898.5Q1742 865 1697.0 846.0Q1652 827 1601 827Q1550 827 1505.5 846.5Q1461 866 1428.0 899.0Q1395 932 1375.5 976.5Q1356 1021 1356 1072Q1356 1123 1375.5 1167.5Q1395 1212 1428.0 1245.0Q1461 1278 1505.5 1297.5Q1550 1317 1601 1317Q1652 1317 1696.5 1297.5Q1741 1278 1774.5 1245.0Q1808 1212 1827.5 1167.5Q1847 1123 1847 1072Z" style="fill:#008463;stroke:none" transform="scale(1,-1) translate(0,-256)" /></svg>