<?xml version="1.0" encoding="utf-8" ?>
<svg baseProfile="full" height="256" version="1.1" width="256" xmlns="http://www.w3.org/2000/svg" xmlns:ev="http://www.w3.org/2001/xml-events" xmlns:xlink="http://www.w3.org/1999/xlink"><defs /><path d="M1211 18Q1186 18 1162.5 28.0Q1139 38 1122 55L584 593Q567 610 557.0 633.5Q547 657 547 682Q547 707 557.0 730.5Q567 754 584 771L1503 1689Q1520 1706 1543.5 1715.5Q1567 1725 1592 1725Q1617 1725 1640.5 1715.5Q1664 1706 1681 1689L2218 1150Q2235 1133 2245.0 1109.5Q2255 1086 2255 1061Q2255 1036 2245.0 1013.0Q2235 990 2218 973L1300 55Q1283 38 1259.5 28.0Q1236 18 1211 18Z" style="fill:#00f397;stroke:none" transform="scale(1,-1) translate(0,-256)" /></svg>