<?xml version="1.0" encoding="utf-8" ?>
<svg baseProfile="full" height="256" version="1.1" width="256" xmlns="http://www.w3.org/2000/svg" xmlns:ev="http://www.w3.org/2001/xml-events" xmlns:xlink="http://www.w3.org/1999/xlink"><defs /><path d="M940 -286Q907 -286 884 -263L715 -94Q693 -72 693 -39Q693 -19 701.5 -0.5Q710 18 724 32L946 255Q976 285 1017 285Q1051 285 1073 263L1242 94Q1264 72 1264 38Q1264 22 1257.0 5.0Q1250 -12 1238.5 -26.5Q1227 -41 1212.0 -50.0Q1197 -59 1180 -59Q1157 -59 1136.0 -52.5Q1115 -46 1092 -46Q1062 -46 1041.5 -66.0Q1021 -86 1021 -116Q1021 -139 1027.5 -161.5Q1034 -184 1034 -207Q1034 -223 1025.0 -237.5Q1016 -252 1002.5 -262.5Q989 -273 972.0 -279.5Q955 -286 940 -286Z" style="fill:#ff9f2e;stroke:none" transform="scale(1,-1) translate(0,-256)" /></svg>