<?xml version="1.0" encoding="utf-8" ?>
<svg baseProfile="full" height="256" version="1.1" width="256" xmlns="http://www.w3.org/2000/svg" xmlns:ev="http://www.w3.org/2001/xml-events" xmlns:xlink="http://www.w3.org/1999/xlink"><defs /><path d="M1794 1725Q1909 1725 2009.0 1680.5Q2109 1636 2183.0 1559.5Q2257 1483 2300.0 1381.5Q2343 1280 2343 1166Q2343 1050 2299.0 948.0Q2255 846 2179.0 770.0Q2103 694 2001.0 650.0Q1899 606 1783 606Q1717 606 1652.5 621.5Q1588 637 1528 667L711 -150Q681 -180 640.5 -198.5Q600 -217 557 -217Q523 -217 494.5 -204.5Q466 -192 445.0 -170.0Q424 -148 412.0 -118.5Q400 -89 400 -56Q400 -12 417.0 23.5Q434 59 463 91Q492 122 523.0 151.5Q554 181 583 211Q754 385 928 556Q1018 644 1106.0 732.5Q1194 821 1283 910Q1251 971 1232.0 1037.0Q1213 1103 1213 1172Q1213 1250 1235.0 1321.0Q1257 1392 1296.5 1453.5Q1336 1515 1390.0 1565.0Q1444 1615 1508.5 1650.5Q1573 1686 1645.5 1705.5Q1718 1725 1794 1725ZM1498 1170Q1498 1112 1521.0 1060.5Q1544 1009 1583.5 970.5Q1623 932 1675.0 909.5Q1727 887 1784 887Q1842 887 1893.0 909.0Q1944 931 1981.5 969.0Q2019 1007 2041.0 1058.0Q2063 1109 2063 1167Q2063 1224 2041.5 1274.5Q2020 1325 1982.5 1363.5Q1945 1402 1894.5 1424.0Q1844 1446 1787 1446Q1730 1446 1678.0 1425.0Q1626 1404 1586.0 1366.5Q1546 1329 1522.0 1278.5Q1498 1228 1498 1170Z" style="fill:#f9c23c;stroke:none" transform="scale(1,-1) translate(0,-256)" /></svg>