<?xml version="1.0" encoding="utf-8" ?>
<svg baseProfile="full" height="256" version="1.1" width="256" xmlns="http://www.w3.org/2000/svg" xmlns:ev="http://www.w3.org/2001/xml-events" xmlns:xlink="http://www.w3.org/1999/xlink"><defs /><path d="M926 809Q911 809 901.0 819.5Q891 830 891 845Q891 866 918.5 881.5Q946 897 982.0 907.0Q1018 917 1053.0 922.0Q1088 927 1103 927Q1114 927 1129.0 926.5Q1144 926 1157.5 922.5Q1171 919 1180.5 911.0Q1190 903 1190 888Q1190 873 1179.5 862.5Q1169 852 1154 852Q1141 852 1129.0 854.0Q1117 856 1104 856Q1079 856 1054.0 852.0Q1029 848 1006 840Q1000 838 988.0 833.0Q976 828 964.0 822.5Q952 817 941.0 813.0Q930 809 926 809ZM1886 875Q1885 875 1883.0 876.5Q1881 878 1880 878Q1835 901 1788.0 914.0Q1741 927 1690 927Q1679 927 1664.0 926.5Q1649 926 1635.5 922.5Q1622 919 1613.0 910.5Q1604 902 1604 886Q1604 872 1615.0 862.0Q1626 852 1640 852Q1652 852 1664.5 854.0Q1677 856 1689 856Q1715 856 1739.5 852.0Q1764 848 1788 840Q1795 838 1806.0 832.5Q1817 827 1829.0 822.0Q1841 817 1852.0 813.0Q1863 809 1868 809Q1883 809 1893.0 819.5Q1903 830 1903 845Q1903 854 1898.5 862.0Q1894 870 1886 875Z" style="fill:#d37034;stroke:none" transform="scale(1,-1) translate(0,-256)" /></svg>