<?xml version="1.0" encoding="utf-8" ?>
<svg baseProfile="full" height="256" version="1.1" width="256" xmlns="http://www.w3.org/2000/svg" xmlns:ev="http://www.w3.org/2001/xml-events" xmlns:xlink="http://www.w3.org/1999/xlink"><defs /><path d="M1397 186Q1448 186 1492.0 197.0Q1536 208 1581 230Q1587 232 1590 232Q1598 232 1604.5 226.5Q1611 221 1611 213Q1611 208 1607 202Q1573 148 1516.5 118.5Q1460 89 1397 89Q1334 89 1277.0 118.5Q1220 148 1186 202Q1183 206 1183 212Q1183 220 1189.5 226.0Q1196 232 1204 232Q1207 232 1213 230Q1259 209 1302.5 197.5Q1346 186 1397 186Z" style="fill:#990839;stroke:none" transform="scale(1,-1) translate(0,-256)" /></svg>