<?xml version="1.0" encoding="utf-8" ?>
<svg baseProfile="full" height="256" version="1.1" width="256" xmlns="http://www.w3.org/2000/svg" xmlns:ev="http://www.w3.org/2001/xml-events" xmlns:xlink="http://www.w3.org/1999/xlink"><defs /><path d="M2252 578Q2252 534 2235.5 495.0Q2219 456 2190.0 427.0Q2161 398 2122.0 381.0Q2083 364 2039 364Q1995 364 1956.0 381.0Q1917 398 1888.0 427.0Q1859 456 1842.0 495.0Q1825 534 1825 578Q1825 622 1842.0 661.0Q1859 700 1888.0 729.0Q1917 758 1956.0 775.0Q1995 792 2039 792Q2083 792 2122.0 775.0Q2161 758 2190.0 729.0Q2219 700 2235.5 661.0Q2252 622 2252 578ZM990 571Q990 526 973.5 487.0Q957 448 928.0 419.0Q899 390 860.0 373.5Q821 357 776 357Q732 357 693.0 374.0Q654 391 625.0 420.0Q596 449 579.5 488.0Q563 527 563 571Q563 615 579.5 654.0Q596 693 625.0 722.0Q654 751 693.0 768.0Q732 785 776 785Q820 785 859.0 768.0Q898 751 927.0 722.0Q956 693 973.0 654.0Q990 615 990 571Z" style="fill:#fdbb11;stroke:none" transform="scale(1,-1) translate(0,-256)" /></svg>