<?xml version="1.0" encoding="utf-8" ?>
<svg baseProfile="full" height="256" version="1.1" width="256" xmlns="http://www.w3.org/2000/svg" xmlns:ev="http://www.w3.org/2001/xml-events" xmlns:xlink="http://www.w3.org/1999/xlink"><defs /><path d="M1040 756Q1067 756 1093.0 746.5Q1119 737 1143.0 721.0Q1167 705 1186.5 684.5Q1206 664 1220 642Q1156 622 1091.5 606.5Q1027 591 964 571Q954 578 938.0 587.5Q922 597 906.5 608.5Q891 620 880.0 633.5Q869 647 869 661Q869 677 878.5 687.0Q888 697 899 706Q932 732 965.0 744.0Q998 756 1040 756ZM1768 756Q1741 756 1715.0 746.5Q1689 737 1665.0 721.0Q1641 705 1621.0 684.5Q1601 664 1588 642Q1652 622 1716.5 606.5Q1781 591 1844 571Q1854 578 1870.0 587.5Q1886 597 1901.5 608.5Q1917 620 1928.0 633.5Q1939 647 1939 661Q1939 677 1929.0 687.0Q1919 697 1908 706Q1875 732 1843.0 744.0Q1811 756 1768 756Z" style="fill:#000000;stroke:none" transform="scale(1,-1) translate(0,-256)" /></svg>