<?xml version="1.0" encoding="utf-8" ?>
<svg baseProfile="full" height="256" version="1.1" width="256" xmlns="http://www.w3.org/2000/svg" xmlns:ev="http://www.w3.org/2001/xml-events" xmlns:xlink="http://www.w3.org/1999/xlink"><defs /><path d="M519 -44Q519 -21 528.0 1.5Q537 24 554 41L641 128Q658 145 680.5 154.0Q703 163 726 163Q751 163 773.0 153.5Q795 144 811.0 127.5Q827 111 836.5 89.5Q846 68 846 43Q846 -7 811 -42L724 -129Q689 -164 639 -164Q614 -164 592.5 -154.5Q571 -145 554.5 -129.0Q538 -113 528.5 -91.0Q519 -69 519 -44Z" style="fill:#83cbff;stroke:none" transform="scale(1,-1) translate(0,-256)" /></svg>