<?xml version="1.0" encoding="utf-8" ?>
<svg baseProfile="full" height="256" version="1.1" width="256" xmlns="http://www.w3.org/2000/svg" xmlns:ev="http://www.w3.org/2001/xml-events" xmlns:xlink="http://www.w3.org/1999/xlink"><defs /><path d="M543 719Q543 748 553.0 774.5Q563 801 581 823L1289 1670Q1311 1696 1341.5 1710.5Q1372 1725 1406 1725Q1440 1725 1470.0 1710.5Q1500 1696 1522 1670L2231 823Q2249 801 2258.5 774.0Q2268 747 2268 718Q2268 660 2231 615L1522 -232Q1500 -258 1470.0 -273.0Q1440 -288 1406 -288Q1372 -288 1341.5 -273.0Q1311 -258 1289 -232L581 615Q563 637 553.0 663.5Q543 690 543 719Z" style="fill:#f8312f;stroke:none" transform="scale(1,-1) translate(0,-256)" /></svg>