<?xml version="1.0" encoding="utf-8" ?>
<svg baseProfile="full" height="256" version="1.1" width="256" xmlns="http://www.w3.org/2000/svg" xmlns:ev="http://www.w3.org/2001/xml-events" xmlns:xlink="http://www.w3.org/1999/xlink"><defs /><path d="M1664 121Q1664 58 1630.0 23.0Q1596 -12 1532 -12Q1475 -12 1407.5 12.5Q1340 37 1269.0 79.0Q1198 121 1126.0 178.5Q1054 236 988.0 302.0Q922 368 864.5 439.5Q807 511 765.0 582.0Q723 653 698.5 720.5Q674 788 674 845Q674 909 708.5 944.0Q743 979 807 979Q864 979 931.5 954.5Q999 930 1070.0 888.0Q1141 846 1212.5 788.5Q1284 731 1350.0 665.0Q1416 599 1473.5 527.0Q1531 455 1573.0 384.0Q1615 313 1639.5 245.5Q1664 178 1664 121Z" style="fill:#6d4534;stroke:none" transform="scale(1,-1) translate(0,-256)" /></svg>