<?xml version="1.0" encoding="utf-8" ?>
<svg baseProfile="full" height="256" version="1.1" width="256" xmlns="http://www.w3.org/2000/svg" xmlns:ev="http://www.w3.org/2001/xml-events" xmlns:xlink="http://www.w3.org/1999/xlink"><defs /><path d="M1763 1597Q1795 1597 1815.0 1576.0Q1835 1555 1835 1523Q1835 1490 1825.5 1448.5Q1816 1407 1802.0 1363.5Q1788 1320 1772.0 1279.0Q1756 1238 1744 1206Q1728 1164 1705.0 1125.5Q1682 1087 1654 1052Q1656 1007 1651.0 961.5Q1646 916 1633 873Q1626 850 1607.5 836.0Q1589 822 1565 822Q1536 822 1515.5 842.5Q1495 863 1495 892Q1495 904 1498.5 916.0Q1502 928 1504 940Q1492 937 1479.5 935.0Q1467 933 1454 933Q1413 933 1377.0 946.5Q1341 960 1314.0 985.0Q1287 1010 1271.5 1044.5Q1256 1079 1256 1121Q1256 1160 1270.5 1193.5Q1285 1227 1310.5 1252.5Q1336 1278 1370.0 1292.5Q1404 1307 1443 1307Q1490 1307 1530.5 1286.0Q1571 1265 1601 1231Q1604 1238 1607.0 1245.0Q1610 1252 1613 1259Q1613 1261 1614 1261Q1642 1324 1664.5 1393.0Q1687 1462 1694 1531Q1696 1557 1715.5 1577.0Q1735 1597 1763 1597ZM1509 1101Q1504 1126 1488.5 1146.5Q1473 1167 1444 1167Q1424 1167 1411.0 1154.0Q1398 1141 1398 1121Q1398 1107 1405.0 1097.0Q1412 1087 1423 1080Q1431 1079 1438.5 1076.5Q1446 1074 1454 1074Q1470 1074 1484.0 1082.0Q1498 1090 1509 1101ZM1826 599Q1881 599 1943.0 591.0Q2005 583 2067.0 567.5Q2129 552 2187.0 529.0Q2245 506 2292 476Q2312 463 2324.0 444.5Q2336 426 2336 401Q2336 367 2311.0 342.5Q2286 318 2251 318Q2240 318 2230.5 321.0Q2221 324 2210 329Q2163 353 2117.0 371.5Q2071 390 2024.0 403.0Q1977 416 1928.0 423.0Q1879 430 1826 430Q1734 430 1646.0 409.5Q1558 389 1478.5 349.5Q1399 310 1329.0 252.5Q1259 195 1204 122Q1136 169 1070 225Q1138 313 1222.5 382.5Q1307 452 1404.0 500.0Q1501 548 1607.5 573.5Q1714 599 1826 599ZM1451 648Q1451 613 1427.0 589.0Q1403 565 1368 565Q1333 565 1309.0 589.0Q1285 613 1285 648Q1285 683 1309.0 707.0Q1333 731 1368 731Q1403 731 1427.0 707.0Q1451 683 1451 648Z" style="fill:#00a6ed;stroke:none" transform="scale(1,-1) translate(0,-256)" /></svg>