<?xml version="1.0" encoding="utf-8" ?>
<svg baseProfile="full" height="256" version="1.1" width="256" xmlns="http://www.w3.org/2000/svg" xmlns:ev="http://www.w3.org/2001/xml-events" xmlns:xlink="http://www.w3.org/1999/xlink"><defs /><path d="M725 -252Q689 -262 650.0 -274.0Q611 -286 573 -286Q538 -286 506.5 -272.0Q475 -258 451.5 -234.5Q428 -211 414.0 -179.5Q400 -148 400 -113Q400 -78 411.0 -42.5Q422 -7 431 26L493 60Q491 100 487.0 141.0Q483 182 483 222Q483 222 487.0 237.0Q491 252 497.0 274.0Q503 296 510.0 322.5Q517 349 523.5 372.5Q530 396 534.5 413.0Q539 430 540 434L604 473Q602 515 599.0 557.5Q596 600 596 642Q596 642 600.0 656.5Q604 671 609.5 693.0Q615 715 622.0 740.5Q629 766 635.0 789.0Q641 812 645.5 828.5Q650 845 651 849Q667 907 713.5 942.5Q760 978 820 978Q855 978 886.5 965.0Q918 952 943 927L1613 257Q1637 233 1650.5 201.0Q1664 169 1664 134Q1664 104 1654.5 77.0Q1645 50 1628.0 27.5Q1611 5 1587.5 -11.0Q1564 -27 1535 -35Q1532 -36 1517.0 -40.0Q1502 -44 1481.0 -49.5Q1460 -55 1437.0 -61.0Q1414 -67 1394.0 -72.5Q1374 -78 1361.0 -81.5Q1348 -85 1348 -85Q1303 -85 1259.0 -82.5Q1215 -80 1170 -78L1127 -144Q1124 -145 1108.5 -149.0Q1093 -153 1072.0 -159.0Q1051 -165 1027.0 -171.0Q1003 -177 983.0 -182.5Q963 -188 949.5 -191.5Q936 -195 936 -195Q890 -195 844.5 -193.5Q799 -192 753 -190L725 -252Z" style="fill:#f9c23c;stroke:none" transform="scale(1,-1) translate(0,-256)" /></svg>