<?xml version="1.0" encoding="utf-8" ?>
<svg baseProfile="full" height="256" version="1.1" width="256" xmlns="http://www.w3.org/2000/svg" xmlns:ev="http://www.w3.org/2001/xml-events" xmlns:xlink="http://www.w3.org/1999/xlink"><defs /><path d="M1174 1016Q1174 929 1153.0 846.0Q1132 763 1092.5 687.5Q1053 612 996.5 547.5Q940 483 868 434Q842 467 818.0 502.0Q794 537 771 573Q826 610 869.5 659.5Q913 709 943.0 766.5Q973 824 989.0 887.5Q1005 951 1005 1017Q1005 1086 988.0 1146.0Q971 1206 942 1267Q937 1278 934.0 1286.5Q931 1295 931 1307Q931 1342 956.0 1366.5Q981 1391 1016 1391Q1041 1391 1059.5 1379.0Q1078 1367 1090 1346Q1131 1274 1152.5 1186.5Q1174 1099 1174 1016ZM2143 771Q2188 771 2229.0 762.5Q2270 754 2312 740Q2323 736 2338 736Q2369 736 2391.0 757.5Q2413 779 2413 811Q2413 835 2400.0 854.0Q2387 873 2364 882Q2313 902 2255.5 911.5Q2198 921 2144 921Q2039 921 1937.5 886.5Q1836 852 1755 786Q1726 762 1726 726Q1726 695 1748.0 673.0Q1770 651 1801 651Q1814 651 1825.5 655.5Q1837 660 1848 668Q1916 718 1987.0 744.5Q2058 771 2143 771ZM688 1172Q723 1172 747.0 1196.5Q771 1221 771 1256Q771 1291 747.0 1315.0Q723 1339 688 1339Q653 1339 629.0 1315.0Q605 1291 605 1256Q605 1221 629.0 1196.5Q653 1172 688 1172ZM2134 1256Q2134 1221 2110.0 1196.5Q2086 1172 2051 1172Q2016 1172 1991.5 1196.5Q1967 1221 1967 1256Q1967 1291 1991.5 1315.0Q2016 1339 2051 1339Q2086 1339 2110.0 1315.0Q2134 1291 2134 1256Z" style="fill:#f70a8d;stroke:none" transform="scale(1,-1) translate(0,-256)" /></svg>