<?xml version="1.0" encoding="utf-8" ?>
<svg baseProfile="full" height="256" version="1.1" width="256" xmlns="http://www.w3.org/2000/svg" xmlns:ev="http://www.w3.org/2001/xml-events" xmlns:xlink="http://www.w3.org/1999/xlink"><defs /><path d="M1154 1584Q1154 1555 1134.0 1535.0Q1114 1515 1085 1515Q1056 1515 1036.0 1535.0Q1016 1555 1016 1584Q1016 1613 1036.0 1633.0Q1056 1653 1085 1653Q1114 1653 1134.0 1633.0Q1154 1613 1154 1584ZM2087 114Q2087 85 2067.0 65.0Q2047 45 2018 45Q1989 45 1968.5 65.0Q1948 85 1948 114Q1948 143 1968.5 163.5Q1989 184 2018 184Q2047 184 2067.0 163.5Q2087 143 2087 114Z" style="fill:#f9c23c;stroke:none" transform="scale(1,-1) translate(0,-256)" /></svg>