<?xml version="1.0" encoding="utf-8" ?>
<svg baseProfile="full" height="256" version="1.1" width="256" xmlns="http://www.w3.org/2000/svg" xmlns:ev="http://www.w3.org/2001/xml-events" xmlns:xlink="http://www.w3.org/1999/xlink"><defs /><path d="M983 863H679Q651 863 633.0 884.0Q615 905 615 932Q615 959 633.0 980.0Q651 1001 679 1001H983Q1011 1001 1029.0 980.0Q1047 959 1047 932Q1047 905 1029.0 884.0Q1011 863 983 863ZM657 503H1365Q1381 503 1393.5 512.5Q1406 522 1406 539Q1406 556 1392.5 565.5Q1379 575 1364 575H657Q642 575 628.5 565.5Q615 556 615 539Q615 522 628.5 512.5Q642 503 657 503ZM657 360H1365Q1381 360 1393.5 369.5Q1406 379 1406 396Q1406 413 1392.5 422.0Q1379 431 1364 431H657Q642 431 628.5 422.0Q615 413 615 396Q615 379 628.5 369.5Q642 360 657 360ZM2034 647H2215Q2237 647 2252.5 631.5Q2268 616 2268 594V413Q2268 390 2253.0 375.0Q2238 360 2215 360H2034Q2012 360 1996.5 375.5Q1981 391 1981 413V594Q1981 616 1996.5 631.5Q2012 647 2034 647Z" style="fill:#d3883e;stroke:none" transform="scale(1,-1) translate(0,-256)" /></svg>