<?xml version="1.0" encoding="utf-8" ?>
<svg baseProfile="full" height="256" version="1.1" width="256" xmlns="http://www.w3.org/2000/svg" xmlns:ev="http://www.w3.org/2001/xml-events" xmlns:xlink="http://www.w3.org/1999/xlink"><defs /><path d="M2255 1222Q2288 1222 2316.5 1209.0Q2345 1196 2366.5 1174.0Q2388 1152 2400.0 1123.0Q2412 1094 2412 1061V305Q2412 272 2400.0 243.0Q2388 214 2366.5 192.0Q2345 170 2316.5 157.0Q2288 144 2255 144H1888Q1873 144 1863.5 152.0Q1854 160 1849 174Q1835 211 1809.0 234.0Q1783 257 1741 257Q1699 257 1672.5 234.0Q1646 211 1632 174Q1627 160 1618.0 152.0Q1609 144 1594 144H557Q524 144 495.5 157.0Q467 170 445.5 192.0Q424 214 412.0 243.0Q400 272 400 305V1061Q400 1094 412.0 1123.0Q424 1152 445.5 1174.0Q467 1196 495.5 1209.0Q524 1222 557 1222H1594Q1609 1222 1618.0 1214.0Q1627 1206 1632 1192Q1646 1155 1672.5 1132.0Q1699 1109 1741 1109Q1783 1109 1809.0 1132.0Q1835 1155 1849 1192Q1854 1206 1863.5 1214.0Q1873 1222 1888 1222ZM1741 385Q1765 385 1785.5 394.5Q1806 404 1822.0 420.5Q1838 437 1847.0 458.5Q1856 480 1856 503Q1856 527 1847.0 547.5Q1838 568 1822.0 584.0Q1806 600 1785.5 609.0Q1765 618 1741 618Q1717 618 1695.5 609.0Q1674 600 1657.5 584.5Q1641 569 1631.5 548.0Q1622 527 1622 503Q1622 479 1631.5 457.5Q1641 436 1657.5 420.0Q1674 404 1695.5 394.5Q1717 385 1741 385ZM1741 747Q1765 747 1786.0 756.5Q1807 766 1822.5 782.0Q1838 798 1847.5 819.0Q1857 840 1857 864Q1857 888 1847.5 909.0Q1838 930 1822.5 945.5Q1807 961 1786.0 970.5Q1765 980 1741 980Q1717 980 1695.5 971.0Q1674 962 1657.5 946.0Q1641 930 1631.5 909.0Q1622 888 1622 864Q1622 840 1631.5 818.5Q1641 797 1657.5 781.5Q1674 766 1695.5 756.5Q1717 747 1741 747Z" style="fill:#f9c23c;stroke:none" transform="scale(1,-1) translate(0,-256)" /></svg>