<?xml version="1.0" encoding="utf-8" ?>
<svg baseProfile="full" height="256" version="1.1" width="256" xmlns="http://www.w3.org/2000/svg" xmlns:ev="http://www.w3.org/2001/xml-events" xmlns:xlink="http://www.w3.org/1999/xlink"><defs /><path d="M2197 719Q2197 545 2167.5 404.5Q2138 264 2070.0 151.0Q2002 38 1891.0 -51.0Q1780 -140 1617 -210Q1609 -213 1592.0 -220.0Q1575 -227 1553.5 -235.5Q1532 -244 1508.0 -253.0Q1484 -262 1463.0 -269.5Q1442 -277 1426.5 -282.0Q1411 -287 1406 -287Q1267 -287 1138.5 -251.0Q1010 -215 898.0 -149.5Q786 -84 694.5 7.5Q603 99 537.5 211.0Q472 323 436.0 451.5Q400 580 400 719Q400 858 436.0 986.5Q472 1115 537.5 1227.0Q603 1339 694.5 1430.5Q786 1522 898.0 1587.5Q1010 1653 1138.5 1689.0Q1267 1725 1406 1725Q1412 1725 1438.5 1714.5Q1465 1704 1497.0 1691.0Q1529 1678 1557.5 1665.0Q1586 1652 1596 1648Q1750 1576 1863.0 1486.0Q1976 1396 2050.0 1282.5Q2124 1169 2160.5 1029.5Q2197 890 2197 719Z" style="fill:#fcd53f;stroke:none" transform="scale(1,-1) translate(0,-256)" /></svg>