<?xml version="1.0" encoding="utf-8" ?>
<svg baseProfile="full" height="256" version="1.1" width="256" xmlns="http://www.w3.org/2000/svg" xmlns:ev="http://www.w3.org/2001/xml-events" xmlns:xlink="http://www.w3.org/1999/xlink"><defs /><path d="M1478 1474Q1478 1439 1458.0 1411.0Q1438 1383 1406 1372V1575Q1438 1564 1458.0 1536.0Q1478 1508 1478 1474ZM1873 863Q1910 863 1943.0 877.0Q1976 891 2000.5 915.5Q2025 940 2039.0 972.5Q2053 1005 2053 1042Q2053 1079 2039.0 1112.0Q2025 1145 2000.5 1169.5Q1976 1194 1943.0 1208.0Q1910 1222 1873 1222Q1836 1222 1803.0 1208.0Q1770 1194 1745.5 1169.5Q1721 1145 1707.0 1112.0Q1693 1079 1693 1042Q1693 1005 1707.0 972.5Q1721 940 1745.5 915.5Q1770 891 1803.0 877.0Q1836 863 1873 863ZM2044 -59Q2141 20 2215.0 121.0Q2289 222 2337 337Q2312 348 2286.0 354.0Q2260 360 2233 360Q2181 360 2135.0 340.0Q2089 320 2055.0 286.0Q2021 252 2001.0 206.0Q1981 160 1981 108Q1981 62 1997.0 19.0Q2013 -24 2044 -59ZM1406 148V500Q1424 503 1442 503Q1479 503 1512.0 489.0Q1545 475 1569.5 450.5Q1594 426 1608.0 393.5Q1622 361 1622 324Q1622 286 1608.0 253.5Q1594 221 1569.0 196.5Q1544 172 1511.0 158.0Q1478 144 1441 144Q1421 144 1406 148Z" style="fill:#6b438b;stroke:none" transform="scale(1,-1) translate(0,-256)" /></svg>