<?xml version="1.0" encoding="utf-8" ?>
<svg baseProfile="full" height="256" version="1.1" width="256" xmlns="http://www.w3.org/2000/svg" xmlns:ev="http://www.w3.org/2001/xml-events" xmlns:xlink="http://www.w3.org/1999/xlink"><defs /><path d="M1406 1671Q1377 1671 1348.5 1669.0Q1320 1667 1291 1667Q1268 1667 1252.5 1683.0Q1237 1699 1237 1722Q1237 1743 1252.0 1757.5Q1267 1772 1287 1774Q1316 1777 1346.5 1778.0Q1377 1779 1406 1779Q1435 1779 1465.5 1778.0Q1496 1777 1525 1774Q1546 1772 1560.0 1757.5Q1574 1743 1574 1721Q1574 1699 1559.0 1683.0Q1544 1667 1521 1667Q1492 1667 1463.5 1669.0Q1435 1671 1406 1671ZM1819 1711Q1835 1711 1868.5 1697.0Q1902 1683 1938.0 1664.0Q1974 1645 2006.0 1625.5Q2038 1606 2053 1595Q2076 1579 2076 1551Q2076 1529 2060.0 1513.0Q2044 1497 2022 1497Q2006 1497 1991 1507Q1944 1538 1898.0 1562.0Q1852 1586 1800 1606Q1784 1612 1774.5 1625.0Q1765 1638 1765 1655Q1765 1678 1780.5 1694.5Q1796 1711 1819 1711ZM1047 1656Q1047 1639 1037.0 1625.5Q1027 1612 1011 1606Q959 1586 912.5 1562.0Q866 1538 820 1507Q805 1497 789 1497Q767 1497 751.0 1512.5Q735 1528 735 1551Q735 1577 759 1595Q769 1602 787.0 1613.5Q805 1625 827.5 1638.0Q850 1651 874.5 1664.0Q899 1677 921.5 1687.5Q944 1698 963.0 1704.5Q982 1711 993 1711Q1016 1711 1031.5 1694.5Q1047 1678 1047 1656ZM629 1335Q629 1318 620 1305Q589 1258 565.5 1211.5Q542 1165 521 1113Q515 1097 501.0 1087.5Q487 1078 470 1078Q447 1078 431.5 1093.5Q416 1109 416 1131Q416 1147 430.0 1180.5Q444 1214 463.0 1250.0Q482 1286 501.0 1318.5Q520 1351 531 1366Q547 1389 576 1389Q599 1389 614.0 1373.5Q629 1358 629 1335ZM2236 1389Q2265 1389 2281 1366Q2291 1351 2310.5 1318.5Q2330 1286 2349.0 1250.0Q2368 1214 2382.0 1181.0Q2396 1148 2396 1132Q2396 1110 2380.5 1094.0Q2365 1078 2342 1078Q2325 1078 2311.0 1087.5Q2297 1097 2291 1113Q2270 1165 2246.5 1211.5Q2223 1258 2192 1305Q2183 1318 2183 1335Q2183 1358 2198.0 1373.5Q2213 1389 2236 1389ZM458 834Q458 805 456.0 776.5Q454 748 454 719Q454 690 456.0 661.5Q458 633 458 604Q458 581 442.5 566.0Q427 551 404 551Q382 551 367.5 565.0Q353 579 351 600Q348 629 347.0 659.0Q346 689 346 719Q346 749 347.0 779.0Q348 809 351 838Q353 859 367.5 873.0Q382 887 404 887Q427 887 442.5 872.0Q458 857 458 834ZM2408 887Q2429 887 2444.0 872.5Q2459 858 2461 838Q2464 809 2465.0 778.5Q2466 748 2466 719Q2466 690 2465.0 659.5Q2464 629 2461 600Q2459 580 2444.0 565.5Q2429 551 2408 551Q2385 551 2369.5 566.0Q2354 581 2354 604Q2354 633 2356.0 661.5Q2358 690 2358 719Q2358 748 2356.0 776.5Q2354 805 2354 834Q2354 857 2369.5 872.0Q2385 887 2408 887ZM2396 306Q2396 290 2382.0 257.0Q2368 224 2349.0 187.5Q2330 151 2310.5 119.0Q2291 87 2281 72Q2265 49 2236 49Q2213 49 2198.0 65.0Q2183 81 2183 103Q2183 119 2192 133Q2223 180 2246.5 226.5Q2270 273 2291 325Q2297 341 2311.0 350.5Q2325 360 2342 360Q2365 360 2380.5 344.0Q2396 328 2396 306ZM470 360Q487 360 501.0 350.5Q515 341 521 325Q542 273 565.5 226.5Q589 180 620 133Q629 119 629 103Q629 81 614.0 65.0Q599 49 576 49Q547 49 531 72Q520 87 501.0 119.0Q482 151 463.0 187.5Q444 224 430.0 257.0Q416 290 416 307Q416 329 431.5 344.5Q447 360 470 360ZM790 -59Q805 -59 820 -69Q867 -100 913.0 -123.5Q959 -147 1011 -168Q1026 -174 1036.5 -188.0Q1047 -202 1047 -219Q1047 -241 1031.0 -257.0Q1015 -273 993 -273Q977 -273 944.0 -259.0Q911 -245 875.0 -226.0Q839 -207 806.5 -188.0Q774 -169 759 -158Q735 -142 735 -113Q735 -91 751.0 -75.0Q767 -59 790 -59ZM2076 -114Q2076 -142 2053 -158Q2043 -165 2025.0 -176.0Q2007 -187 1984.5 -200.0Q1962 -213 1937.0 -226.0Q1912 -239 1889.5 -249.5Q1867 -260 1848.0 -266.5Q1829 -273 1819 -273Q1796 -273 1780.5 -256.5Q1765 -240 1765 -218Q1765 -201 1775.0 -187.5Q1785 -174 1800 -168Q1852 -147 1898.0 -123.5Q1944 -100 1991 -69Q2006 -59 2022 -59Q2044 -59 2060.0 -75.0Q2076 -91 2076 -114ZM1290 -229Q1319 -229 1348.0 -231.0Q1377 -233 1406 -233Q1435 -233 1464.0 -231.0Q1493 -229 1522 -229Q1545 -229 1559.5 -245.5Q1574 -262 1574 -283Q1574 -306 1560.0 -320.0Q1546 -334 1525 -336Q1496 -339 1466.0 -340.0Q1436 -341 1406 -341Q1376 -341 1346.0 -340.0Q1316 -339 1287 -336Q1267 -334 1252.0 -319.5Q1237 -305 1237 -284Q1237 -262 1252.0 -245.5Q1267 -229 1290 -229Z" style="fill:#ff944c;stroke:none" transform="scale(1,-1) translate(0,-256)" /></svg>