<?xml version="1.0" encoding="utf-8" ?>
<svg baseProfile="full" height="256" version="1.1" width="256" xmlns="http://www.w3.org/2000/svg" xmlns:ev="http://www.w3.org/2001/xml-events" xmlns:xlink="http://www.w3.org/1999/xlink"><defs /><path d="M1406 -287Q1175 -287 989.0 -216.0Q803 -145 672.0 -14.0Q541 117 470.5 303.0Q400 489 400 719Q400 949 470.5 1135.0Q541 1321 672.0 1452.0Q803 1583 989.0 1654.0Q1175 1725 1406 1725Q1637 1725 1823.0 1654.0Q2009 1583 2140.0 1452.0Q2271 1321 2341.5 1135.0Q2412 949 2412 719Q2412 489 2341.5 303.0Q2271 117 2140.0 -14.0Q2009 -145 1823.0 -216.0Q1637 -287 1406 -287Z" style="fill:#ffb02f;stroke:none" transform="scale(1,-1) translate(0,-256)" /></svg>