<?xml version="1.0" encoding="utf-8" ?>
<svg baseProfile="full" height="256" version="1.1" width="256" xmlns="http://www.w3.org/2000/svg" xmlns:ev="http://www.w3.org/2001/xml-events" xmlns:xlink="http://www.w3.org/1999/xlink"><defs /><path d="M1055 813Q1007 813 965.0 831.0Q923 849 891.5 880.5Q860 912 842.0 954.0Q824 996 824 1044Q824 1092 842.0 1133.5Q860 1175 891.5 1206.5Q923 1238 965.0 1256.0Q1007 1274 1055 1274Q1103 1274 1145.0 1256.0Q1187 1238 1218.5 1206.5Q1250 1175 1268.0 1133.5Q1286 1092 1286 1044Q1286 996 1268.0 954.0Q1250 912 1218.5 880.5Q1187 849 1145.0 831.0Q1103 813 1055 813ZM1756 813Q1708 813 1666.5 831.0Q1625 849 1593.5 880.5Q1562 912 1544.0 954.0Q1526 996 1526 1044Q1526 1092 1544.0 1133.5Q1562 1175 1593.5 1206.5Q1625 1238 1666.5 1256.0Q1708 1274 1756 1274Q1804 1274 1846.0 1256.0Q1888 1238 1919.5 1206.5Q1951 1175 1969.0 1133.5Q1987 1092 1987 1044Q1987 996 1969.0 954.0Q1951 912 1919.5 880.5Q1888 849 1846.0 831.0Q1804 813 1756 813ZM1730 521Q1753 521 1768.5 505.5Q1784 490 1784 467Q1784 444 1768.5 428.5Q1753 413 1730 413H1082Q1059 413 1043.5 428.5Q1028 444 1028 467Q1028 490 1043.5 505.5Q1059 521 1082 521Z" style="fill:#402a32;stroke:none" transform="scale(1,-1) translate(0,-256)" /></svg>