<?xml version="1.0" encoding="utf-8" ?>
<svg baseProfile="full" height="256" version="1.1" width="256" xmlns="http://www.w3.org/2000/svg" xmlns:ev="http://www.w3.org/2001/xml-events" xmlns:xlink="http://www.w3.org/1999/xlink"><defs /><path d="M1190 288Q1216 288 1238 269Q1273 240 1317.0 227.5Q1361 215 1406 215Q1451 215 1494.5 227.5Q1538 240 1573 269Q1595 288 1621 288Q1651 288 1672.5 267.0Q1694 246 1694 216Q1694 184 1670 162Q1645 138 1613.0 121.0Q1581 104 1546.5 93.0Q1512 82 1476.0 76.5Q1440 71 1406 71Q1372 71 1336.0 76.5Q1300 82 1265.5 93.0Q1231 104 1199.0 121.0Q1167 138 1142 162Q1118 184 1118 216Q1118 245 1139.5 266.5Q1161 288 1190 288Z" style="fill:#402a32;stroke:none" transform="scale(1,-1) translate(0,-256)" /></svg>