<?xml version="1.0" encoding="utf-8" ?>
<svg baseProfile="full" height="256" version="1.1" width="256" xmlns="http://www.w3.org/2000/svg" xmlns:ev="http://www.w3.org/2001/xml-events" xmlns:xlink="http://www.w3.org/1999/xlink"><defs /><path d="M1047 575Q1002 575 963.0 592.0Q924 609 894.5 638.5Q865 668 848.0 707.0Q831 746 831 791Q831 836 848.0 875.0Q865 914 894.5 943.0Q924 972 963.0 989.0Q1002 1006 1047 1006Q1092 1006 1131.0 989.0Q1170 972 1199.0 943.0Q1228 914 1245.0 875.0Q1262 836 1262 791Q1262 746 1245.0 707.0Q1228 668 1199.0 638.5Q1170 609 1131.0 592.0Q1092 575 1047 575ZM1765 575Q1720 575 1681.0 592.0Q1642 609 1613.0 638.5Q1584 668 1567.0 707.0Q1550 746 1550 791Q1550 836 1567.0 875.0Q1584 914 1613.0 943.0Q1642 972 1681.0 989.0Q1720 1006 1765 1006Q1810 1006 1849.0 989.0Q1888 972 1917.5 943.0Q1947 914 1964.0 875.0Q1981 836 1981 791Q1981 746 1964.0 707.0Q1947 668 1917.5 638.5Q1888 609 1849.0 592.0Q1810 575 1765 575Z" style="fill:#402a32;stroke:none" transform="scale(1,-1) translate(0,-256)" /></svg>