<?xml version="1.0" encoding="utf-8" ?>
<svg baseProfile="full" height="256" version="1.1" width="256" xmlns="http://www.w3.org/2000/svg" xmlns:ev="http://www.w3.org/2001/xml-events" xmlns:xlink="http://www.w3.org/1999/xlink"><defs /><path d="M1837 360Q1837 390 1848.5 416.0Q1860 442 1879.5 461.5Q1899 481 1925.0 492.0Q1951 503 1981 503Q2011 503 2037.0 492.0Q2063 481 2082.5 461.5Q2102 442 2113.5 416.0Q2125 390 2125 360V144Q2125 114 2113.5 88.0Q2102 62 2082.5 42.5Q2063 23 2037.0 11.5Q2011 0 1981 0Q1951 0 1925.0 11.5Q1899 23 1879.5 42.5Q1860 62 1848.5 88.0Q1837 114 1837 144Z" style="fill:#3f5fff;stroke:none" transform="scale(1,-1) translate(0,-256)" /></svg>