<?xml version="1.0" encoding="utf-8" ?>
<svg baseProfile="full" height="256" version="1.1" width="256" xmlns="http://www.w3.org/2000/svg" xmlns:ev="http://www.w3.org/2001/xml-events" xmlns:xlink="http://www.w3.org/1999/xlink"><defs /><path d="M1406 72Q1274 72 1148 105Q1138 100 1109.5 85.0Q1081 70 1043.5 50.5Q1006 31 964.5 9.0Q923 -13 886.5 -31.0Q850 -49 825.0 -60.5Q800 -72 795 -72Q780 -72 769.5 -61.5Q759 -51 759 -36V300Q713 336 667.5 378.5Q622 421 580.0 467.5Q538 514 501.0 563.5Q464 613 435 664Q417 695 407.0 724.5Q397 754 397 791Q397 827 407.0 857.0Q417 887 435 918Q464 967 499.5 1014.0Q535 1061 573 1104Q654 1197 747.0 1272.0Q840 1347 944.5 1400.0Q1049 1453 1164.5 1481.5Q1280 1510 1406 1510Q1532 1510 1647.5 1481.5Q1763 1453 1867.5 1400.0Q1972 1347 2065.0 1272.0Q2158 1197 2239 1104Q2277 1061 2312.5 1014.0Q2348 967 2377 918Q2395 887 2404.5 857.0Q2414 827 2414 791Q2414 755 2404.5 725.0Q2395 695 2377 664Q2348 615 2312.5 568.0Q2277 521 2239 478Q2158 385 2065.0 310.0Q1972 235 1867.5 182.0Q1763 129 1647.5 100.5Q1532 72 1406 72Z" style="fill:#ffffff;stroke:none" transform="scale(1,-1) translate(0,-256)" /></svg>