<?xml version="1.0" encoding="utf-8" ?>
<svg baseProfile="full" height="256" version="1.1" width="256" xmlns="http://www.w3.org/2000/svg" xmlns:ev="http://www.w3.org/2001/xml-events" xmlns:xlink="http://www.w3.org/1999/xlink"><defs /><path d="M1406 1581Q1540 1581 1663.0 1551.0Q1786 1521 1897.5 1464.5Q2009 1408 2108.5 1328.5Q2208 1249 2294 1150Q2333 1105 2370.5 1056.0Q2408 1007 2438 956Q2461 917 2473.5 877.0Q2486 837 2486 791Q2486 744 2473.5 704.5Q2461 665 2438 626Q2408 575 2370.5 526.0Q2333 477 2294 432Q2208 333 2108.5 253.0Q2009 173 1897.5 116.5Q1786 60 1663.0 30.0Q1540 0 1406 0Q1278 0 1157 28L844 -132Q821 -144 795 -144Q773 -144 753.5 -135.5Q734 -127 719.0 -112.0Q704 -97 695.5 -77.5Q687 -58 687 -36V266Q596 341 515.0 432.5Q434 524 374 626Q351 665 338.0 704.5Q325 744 325 791Q325 837 338.0 877.0Q351 917 374 956Q405 1007 442.0 1056.0Q479 1105 518 1150Q604 1249 703.5 1328.5Q803 1408 914.5 1464.5Q1026 1521 1149.0 1551.0Q1272 1581 1406 1581Z" style="fill:#9b9b9b;stroke:none" transform="scale(1,-1) translate(0,-256)" /></svg>