<?xml version="1.0" encoding="utf-8" ?>
<svg baseProfile="full" height="256" version="1.1" width="256" xmlns="http://www.w3.org/2000/svg" xmlns:ev="http://www.w3.org/2001/xml-events" xmlns:xlink="http://www.w3.org/1999/xlink"><defs /><path d="M1921 1444 1846 1431Q1796 1422 1754.5 1398.0Q1713 1374 1682.0 1339.0Q1651 1304 1634.0 1259.0Q1617 1214 1617 1163L1616 119Q1616 34 1584.0 -41.0Q1552 -116 1497.0 -171.5Q1442 -227 1367.5 -259.0Q1293 -291 1208 -291Q1127 -291 1063.0 -265.0Q999 -239 948.0 -194.0Q897 -149 857.5 -89.0Q818 -29 786 39L528 583L1203 823Q1217 723 1230.5 623.5Q1244 524 1256 423Q1258 409 1268.5 400.0Q1279 391 1293 391Q1310 391 1320.5 402.5Q1331 414 1331 431Q1331 609 1328.5 785.0Q1326 961 1326 1139Q1326 1243 1360.5 1335.0Q1395 1427 1457.0 1499.5Q1519 1572 1604.0 1621.0Q1689 1670 1791 1688L1878 1703Z" style="fill:#f9c23c;stroke:none" transform="scale(1,-1) translate(0,-256)" /></svg>