<?xml version="1.0" encoding="utf-8" ?>
<svg baseProfile="full" height="256" version="1.1" width="256" xmlns="http://www.w3.org/2000/svg" xmlns:ev="http://www.w3.org/2001/xml-events" xmlns:xlink="http://www.w3.org/1999/xlink"><defs /><path d="M1454 1420Q1421 1420 1397.5 1444.0Q1374 1468 1374 1501Q1374 1534 1397.5 1557.5Q1421 1581 1454 1581Q1487 1581 1511.0 1557.5Q1535 1534 1535 1501Q1535 1467 1511.5 1443.5Q1488 1420 1454 1420ZM1356 1209Q1323 1209 1299.0 1232.5Q1275 1256 1275 1289Q1275 1323 1298.5 1346.5Q1322 1370 1356 1370Q1389 1370 1412.5 1346.0Q1436 1322 1436 1289Q1436 1256 1412.5 1232.5Q1389 1209 1356 1209ZM1415 1052Q1415 1019 1391.5 995.0Q1368 971 1335 971Q1301 971 1277.5 994.5Q1254 1018 1254 1052Q1254 1085 1278.0 1108.5Q1302 1132 1335 1132Q1368 1132 1391.5 1108.5Q1415 1085 1415 1052Z" style="fill:#d3d3d3;stroke:none" transform="scale(1,-1) translate(0,-256)" /></svg>