<?xml version="1.0" encoding="utf-8" ?>
<svg baseProfile="full" height="256" version="1.1" width="256" xmlns="http://www.w3.org/2000/svg" xmlns:ev="http://www.w3.org/2001/xml-events" xmlns:xlink="http://www.w3.org/1999/xlink"><defs /><path d="M1250 878Q1358 878 1458.0 850.0Q1558 822 1645.5 771.0Q1733 720 1804.5 648.5Q1876 577 1927.5 490.0Q1979 403 2007.0 302.5Q2035 202 2035 94V-106Q2035 -144 2020.5 -176.5Q2006 -209 1981.5 -234.0Q1957 -259 1923.5 -273.0Q1890 -287 1853 -287H648Q610 -287 577.5 -273.0Q545 -259 520.0 -234.0Q495 -209 481.0 -176.5Q467 -144 467 -106V94Q467 202 495.0 302.0Q523 402 574.0 489.0Q625 576 696.5 648.0Q768 720 855.0 771.0Q942 822 1042.0 850.0Q1142 878 1250 878Z" style="fill:#ffb02e;stroke:none" transform="scale(1,-1) translate(0,-256)" /></svg>