<?xml version="1.0" encoding="utf-8" ?>
<svg baseProfile="full" height="256" version="1.1" width="256" xmlns="http://www.w3.org/2000/svg" xmlns:ev="http://www.w3.org/2001/xml-events" xmlns:xlink="http://www.w3.org/1999/xlink"><defs /><path d="M1406 1139Q1501 1139 1580.0 1099.0Q1659 1059 1720 987Q1785 910 1858.5 870.5Q1932 831 2033 822Q2113 814 2182.5 781.0Q2252 748 2303.0 695.0Q2354 642 2383.5 571.5Q2413 501 2413 419Q2413 336 2381.5 262.5Q2350 189 2296.0 134.0Q2242 79 2169.0 47.0Q2096 15 2012 15Q1933 15 1863.0 44.0Q1793 73 1739.0 123.0Q1685 173 1651.0 241.5Q1617 310 1611 388Q1565 360 1512.5 346.0Q1460 332 1406 332Q1352 332 1300.0 346.0Q1248 360 1201 388Q1195 310 1161.5 241.5Q1128 173 1074.0 123.0Q1020 73 950.0 44.0Q880 15 801 15Q718 15 645.0 47.0Q572 79 517.5 134.0Q463 189 431.5 262.5Q400 336 400 419Q400 427 400.0 434.0Q400 441 401 449Q408 527 438.0 591.5Q468 656 517.0 704.0Q566 752 630.5 782.0Q695 812 772 821Q826 827 869.5 838.0Q913 849 951.0 868.0Q989 887 1023.5 916.0Q1058 945 1093 987Q1153 1059 1231.5 1099.0Q1310 1139 1406 1139Z" style="fill:#44911b;stroke:none" transform="scale(1,-1) translate(0,-256)" /></svg>