<?xml version="1.0" encoding="utf-8" ?>
<svg baseProfile="full" height="256" version="1.1" width="256" xmlns="http://www.w3.org/2000/svg" xmlns:ev="http://www.w3.org/2001/xml-events" xmlns:xlink="http://www.w3.org/1999/xlink"><defs /><path d="M2159 722Q2159 663 2136.5 611.0Q2114 559 2075.5 520.5Q2037 482 1985.0 459.5Q1933 437 1874 437Q1815 437 1763.5 459.5Q1712 482 1673.5 520.5Q1635 559 1612.5 611.0Q1590 663 1590 722Q1590 781 1612.5 832.5Q1635 884 1673.5 922.5Q1712 961 1763.5 983.5Q1815 1006 1874 1006Q1933 1006 1985.0 983.5Q2037 961 2075.5 922.5Q2114 884 2136.5 832.5Q2159 781 2159 722ZM1192 417Q1192 358 1169.5 306.0Q1147 254 1108.5 215.5Q1070 177 1018.5 154.5Q967 132 908 132Q849 132 797.0 154.5Q745 177 706.5 215.5Q668 254 645.5 306.0Q623 358 623 417Q623 476 645.5 528.0Q668 580 706.5 618.5Q745 657 797.0 679.5Q849 702 908 702Q967 702 1018.5 679.5Q1070 657 1108.5 618.5Q1147 580 1169.5 528.0Q1192 476 1192 417Z" style="fill:#f8312f;stroke:none" transform="scale(1,-1) translate(0,-256)" /></svg>