<?xml version="1.0" encoding="utf-8" ?>
<svg baseProfile="full" height="256" version="1.1" width="256" xmlns="http://www.w3.org/2000/svg" xmlns:ev="http://www.w3.org/2001/xml-events" xmlns:xlink="http://www.w3.org/1999/xlink"><defs /><path d="M1556 878Q1664 878 1764.0 850.0Q1864 822 1951.0 771.0Q2038 720 2110.0 648.0Q2182 576 2233.0 489.0Q2284 402 2312.0 302.0Q2340 202 2340 94V-106Q2340 -144 2326.0 -176.5Q2312 -209 2287.0 -234.0Q2262 -259 2229.0 -273.0Q2196 -287 2159 -287H954Q916 -287 883.0 -273.0Q850 -259 825.5 -234.0Q801 -209 786.5 -176.5Q772 -144 772 -106V94Q772 202 800.0 302.5Q828 403 879.0 490.0Q930 577 1001.5 648.5Q1073 720 1160.0 771.0Q1247 822 1347.5 850.0Q1448 878 1556 878Z" style="fill:#f9c23c;stroke:none" transform="scale(1,-1) translate(0,-256)" /></svg>