<?xml version="1.0" encoding="utf-8" ?>
<svg baseProfile="full" height="256" version="1.1" width="256" xmlns="http://www.w3.org/2000/svg" xmlns:ev="http://www.w3.org/2001/xml-events" xmlns:xlink="http://www.w3.org/1999/xlink"><defs /><path d="M1153 655Q1266 655 1366.0 611.5Q1466 568 1541.0 493.0Q1616 418 1659.5 318.0Q1703 218 1703 105V-36Q1703 -62 1693.0 -85.5Q1683 -109 1665.5 -126.0Q1648 -143 1625.0 -153.0Q1602 -163 1576 -163H730Q704 -163 680.5 -153.0Q657 -143 640.0 -126.0Q623 -109 613.0 -85.5Q603 -62 603 -36V105Q603 219 646.5 319.0Q690 419 764.5 493.5Q839 568 939.0 611.5Q1039 655 1153 655Z" style="fill:#6d4534;stroke:none" transform="scale(1,-1) translate(0,-256)" /></svg>