<?xml version="1.0" encoding="utf-8" ?>
<svg baseProfile="full" height="256" version="1.1" width="256" xmlns="http://www.w3.org/2000/svg" xmlns:ev="http://www.w3.org/2001/xml-events" xmlns:xlink="http://www.w3.org/1999/xlink"><defs /><path d="M1271 1332H1518Q1534 1332 1548.5 1325.5Q1563 1319 1574.0 1308.5Q1585 1298 1591.5 1283.5Q1598 1269 1598 1253Q1598 1220 1574.5 1196.5Q1551 1173 1518 1173H1271Q1238 1173 1214.5 1196.5Q1191 1220 1191 1253Q1191 1269 1197.5 1283.5Q1204 1298 1215.0 1308.5Q1226 1319 1240.5 1325.5Q1255 1332 1271 1332ZM1594 280Q1594 246 1583.0 215.0Q1572 184 1552.5 158.5Q1533 133 1506.0 115.0Q1479 97 1446 88Q1446 72 1447.5 49.5Q1449 27 1445.5 6.0Q1442 -15 1430.5 -29.5Q1419 -44 1394 -44Q1369 -44 1358.0 -29.5Q1347 -15 1343.5 6.0Q1340 27 1341.5 49.5Q1343 72 1343 88Q1310 97 1283.0 115.0Q1256 133 1236.5 158.5Q1217 184 1206.0 215.0Q1195 246 1195 280Q1195 302 1210.0 317.0Q1225 332 1247 332Q1269 332 1284.0 317.0Q1299 302 1299 280Q1299 240 1326.5 212.5Q1354 185 1394 185Q1413 185 1430.5 192.5Q1448 200 1461.0 213.0Q1474 226 1481.5 243.0Q1489 260 1489 280Q1489 325 1460.0 349.5Q1431 374 1389 376Q1349 377 1313.5 393.0Q1278 409 1252.0 435.5Q1226 462 1210.5 497.5Q1195 533 1195 574Q1195 608 1206.0 639.0Q1217 670 1236.5 695.5Q1256 721 1283.0 739.0Q1310 757 1343 766Q1343 782 1341.5 804.5Q1340 827 1343.5 848.0Q1347 869 1358.0 883.5Q1369 898 1394 898Q1420 898 1431.5 883.5Q1443 869 1446.0 848.0Q1449 827 1447.5 804.5Q1446 782 1446 766Q1479 757 1506.0 739.0Q1533 721 1552.5 695.5Q1572 670 1583.0 639.0Q1594 608 1594 574Q1594 552 1579.0 537.0Q1564 522 1542 522Q1520 522 1505.0 537.0Q1490 552 1490 574Q1490 614 1462.0 642.0Q1434 670 1394 670Q1374 670 1357.0 662.5Q1340 655 1327.0 641.5Q1314 628 1306.5 610.5Q1299 593 1299 574Q1299 530 1328.0 505.5Q1357 481 1399 479Q1439 477 1475.0 461.5Q1511 446 1537.0 419.0Q1563 392 1578.5 356.5Q1594 321 1594 280Z" style="fill:#8c5543;stroke:none" transform="scale(1,-1) translate(0,-256)" /></svg>