<?xml version="1.0" encoding="utf-8" ?>
<svg baseProfile="full" height="256" version="1.1" width="256" xmlns="http://www.w3.org/2000/svg" xmlns:ev="http://www.w3.org/2001/xml-events" xmlns:xlink="http://www.w3.org/1999/xlink"><defs /><path d="M1562 1601Q1574 1601 1584.0 1605.0Q1594 1609 1603.0 1614.0Q1612 1619 1621.5 1623.0Q1631 1627 1643 1627Q1670 1627 1691.0 1607.0Q1712 1587 1712 1559Q1712 1554 1710.5 1543.5Q1709 1533 1706 1530L1532 1331H1254L1078 1532Q1075 1535 1073.0 1545.5Q1071 1556 1071 1561Q1071 1589 1092.0 1609.5Q1113 1630 1141 1630Q1153 1630 1163.0 1625.5Q1173 1621 1183.0 1615.5Q1193 1610 1203.0 1605.5Q1213 1601 1225 1601Q1255 1601 1274.0 1620.5Q1293 1640 1309.5 1663.0Q1326 1686 1345.0 1705.5Q1364 1725 1394 1725Q1423 1725 1442.0 1705.5Q1461 1686 1478.0 1663.0Q1495 1640 1514.0 1620.5Q1533 1601 1562 1601ZM543 343Q543 460 573.5 569.0Q604 678 659.5 772.5Q715 867 792.5 944.5Q870 1022 964.5 1077.5Q1059 1133 1168.0 1163.5Q1277 1194 1394 1194Q1511 1194 1620.0 1163.5Q1729 1133 1823.5 1077.5Q1918 1022 1995.5 944.5Q2073 867 2128.5 772.5Q2184 678 2214.5 569.0Q2245 460 2245 343Q2245 213 2195.5 98.5Q2146 -16 2060.5 -101.5Q1975 -187 1860.5 -236.5Q1746 -286 1616 -286H1172Q1042 -286 927.5 -236.5Q813 -187 727.5 -101.5Q642 -16 592.5 98.5Q543 213 543 343Z" style="fill:#f3c07b;stroke:none" transform="scale(1,-1) translate(0,-256)" /></svg>