<?xml version="1.0" encoding="utf-8" ?>
<svg baseProfile="full" height="256" version="1.1" width="256" xmlns="http://www.w3.org/2000/svg" xmlns:ev="http://www.w3.org/2001/xml-events" xmlns:xlink="http://www.w3.org/1999/xlink"><defs /><path d="M1131 1262Q1183 1273 1235.0 1282.5Q1287 1292 1340 1301Q1400 1437 1501.0 1545.5Q1602 1654 1733 1725H2148Q2203 1725 2251.0 1704.5Q2299 1684 2335.0 1648.0Q2371 1612 2391.5 1564.0Q2412 1516 2412 1461V0Q2412 -59 2389.5 -111.5Q2367 -164 2328.0 -203.0Q2289 -242 2236.5 -264.5Q2184 -287 2125 -287H687Q627 -287 575.0 -264.5Q523 -242 484.0 -203.0Q445 -164 422.5 -112.0Q400 -60 400 0V1461Q400 1515 420.5 1563.0Q441 1611 477.0 1647.0Q513 1683 561.0 1704.0Q609 1725 663 1725H753Q883 1644 980.0 1524.5Q1077 1405 1131 1262Z" style="fill:#9b9b9b;stroke:none" transform="scale(1,-1) translate(0,-256)" /></svg>