<?xml version="1.0" encoding="utf-8" ?>
<svg baseProfile="full" height="256" version="1.1" width="256" xmlns="http://www.w3.org/2000/svg" xmlns:ev="http://www.w3.org/2001/xml-events" xmlns:xlink="http://www.w3.org/1999/xlink"><defs /><path d="M619 -210Q629 -109 663.0 -17.0Q697 75 750.5 154.5Q804 234 875.0 298.0Q946 362 1030.0 407.5Q1114 453 1209.0 478.0Q1304 503 1406 503Q1507 503 1602.0 478.5Q1697 454 1781.5 408.5Q1866 363 1937.0 298.5Q2008 234 2061.5 155.0Q2115 76 2149.0 -16.5Q2183 -109 2193 -210Q2182 -213 2170.5 -214.0Q2159 -215 2148 -215H663Q652 -215 641.0 -214.0Q630 -213 619 -210Z" style="fill:#e6e6e6;stroke:none" transform="scale(1,-1) translate(0,-256)" /></svg>