<?xml version="1.0" encoding="utf-8" ?>
<svg baseProfile="full" height="256" version="1.1" width="256" xmlns="http://www.w3.org/2000/svg" xmlns:ev="http://www.w3.org/2001/xml-events" xmlns:xlink="http://www.w3.org/1999/xlink"><defs /><path d="M1733 1725Q1738 1692 1741.0 1658.5Q1744 1625 1744 1592Q1744 1532 1732.0 1490.0Q1720 1448 1694.0 1418.5Q1668 1389 1628.0 1369.5Q1588 1350 1533 1336Q1479 1323 1425.0 1314.5Q1371 1306 1317 1297Q1230 1282 1145.0 1264.0Q1060 1246 975 1222Q896 1255 843.5 1308.5Q791 1362 756.0 1429.0Q721 1496 700.0 1572.0Q679 1648 663 1725H1733Z" style="fill:#636363;stroke:none" transform="scale(1,-1) translate(0,-256)" /></svg>