<?xml version="1.0" encoding="utf-8" ?>
<svg baseProfile="full" height="256" version="1.1" width="256" xmlns="http://www.w3.org/2000/svg" xmlns:ev="http://www.w3.org/2001/xml-events" xmlns:xlink="http://www.w3.org/1999/xlink"><defs /><path d="M1837 72Q1837 180 1875.0 277.5Q1913 375 1980.5 451.5Q2048 528 2140.0 578.5Q2232 629 2340 643V-24Q2340 -64 2325.0 -99.0Q2310 -134 2284.0 -159.5Q2258 -185 2223.0 -200.0Q2188 -215 2148 -215ZM663 -215Q623 -215 588.5 -200.0Q554 -185 528.0 -159.0Q502 -133 487.0 -98.5Q472 -64 472 -24V1128Q517 1139 561.5 1144.5Q606 1150 651 1150Q755 1150 851.5 1123.0Q948 1096 1032.0 1047.0Q1116 998 1184.5 929.0Q1253 860 1302.5 776.5Q1352 693 1379.0 596.5Q1406 500 1406 396Q1406 267 1362 144Z" style="fill:#d3d3d3;stroke:none" transform="scale(1,-1) translate(0,-256)" /></svg>