<?xml version="1.0" encoding="utf-8" ?>
<svg baseProfile="full" height="256" version="1.1" width="256" xmlns="http://www.w3.org/2000/svg" xmlns:ev="http://www.w3.org/2001/xml-events" xmlns:xlink="http://www.w3.org/1999/xlink"><defs /><path d="M2412 4V0Q2412 -59 2389.5 -111.5Q2367 -164 2328.0 -203.0Q2289 -242 2236.5 -264.5Q2184 -287 2125 -287H687Q626 -287 573.5 -264.0Q521 -241 482.5 -201.5Q444 -162 422.0 -109.0Q400 -56 400 4H404Q437 4 467.0 -7.0Q497 -18 525.5 -31.5Q554 -45 583.5 -56.0Q613 -67 646 -67Q682 -67 713.5 -56.0Q745 -45 775.5 -31.5Q806 -18 837.0 -7.0Q868 4 903 4Q942 4 972.0 -7.0Q1002 -18 1029.0 -31.5Q1056 -45 1084.0 -56.0Q1112 -67 1149 -67Q1185 -67 1216.5 -56.0Q1248 -45 1278.5 -31.5Q1309 -18 1340.5 -7.0Q1372 4 1408 4Q1444 4 1475.0 -7.0Q1506 -18 1535.5 -31.5Q1565 -45 1595.5 -56.0Q1626 -67 1661 -67Q1695 -67 1725.5 -56.0Q1756 -45 1785.0 -31.5Q1814 -18 1844.0 -7.0Q1874 4 1908 4Q1945 4 1975.5 -7.0Q2006 -18 2035.5 -31.5Q2065 -45 2096.5 -56.0Q2128 -67 2166 -67Q2201 -67 2232.0 -56.0Q2263 -45 2292.5 -31.5Q2322 -18 2351.0 -7.0Q2380 4 2412 4Z" style="fill:#d3d3d3;stroke:none" transform="scale(1,-1) translate(0,-256)" /></svg>