<?xml version="1.0" encoding="utf-8" ?>
<svg baseProfile="full" height="256" version="1.1" width="256" xmlns="http://www.w3.org/2000/svg" xmlns:ev="http://www.w3.org/2001/xml-events" xmlns:xlink="http://www.w3.org/1999/xlink"><defs /><path d="M669 863Q706 863 732.5 836.5Q759 810 759 773V-144H687Q628 -144 587.5 -142.0Q547 -140 516.0 -126.5Q485 -113 458.0 -83.5Q431 -54 400 0V863ZM903 988Q903 1026 929.0 1052.0Q955 1078 993 1078H1532Q1569 1078 1595.5 1051.5Q1622 1025 1622 988V216H1675Q1713 216 1739.0 190.0Q1765 164 1765 126V-144H903ZM1909 413Q1909 451 1935.0 477.0Q1961 503 1999 503H2412V0Q2368 -28 2340.0 -54.0Q2312 -80 2284.0 -100.0Q2256 -120 2220.0 -132.0Q2184 -144 2125 -144H1909Z" style="fill:#5a93cb;stroke:none" transform="scale(1,-1) translate(0,-256)" /></svg>