<?xml version="1.0" encoding="utf-8" ?>
<svg baseProfile="full" height="256" version="1.1" width="256" xmlns="http://www.w3.org/2000/svg" xmlns:ev="http://www.w3.org/2001/xml-events" xmlns:xlink="http://www.w3.org/1999/xlink"><defs /><path d="M424 1554Q447 1565 470.0 1570.5Q493 1576 519 1576Q552 1576 582.0 1565.0Q612 1554 640.5 1541.0Q669 1528 698.5 1517.0Q728 1506 761 1506Q802 1506 833.5 1517.0Q865 1528 893.5 1541.0Q922 1554 951.5 1565.0Q981 1576 1018 1576Q1057 1576 1087.0 1565.0Q1117 1554 1144.0 1541.0Q1171 1528 1199.5 1517.0Q1228 1506 1264 1506Q1300 1506 1331.0 1517.0Q1362 1528 1393.0 1541.0Q1424 1554 1455.5 1565.0Q1487 1576 1523 1576Q1559 1576 1590.0 1565.0Q1621 1554 1650.5 1541.0Q1680 1528 1710.5 1517.0Q1741 1506 1776 1506Q1810 1506 1840.5 1517.0Q1871 1528 1900.0 1541.0Q1929 1554 1959.0 1565.0Q1989 1576 2023 1576Q2059 1576 2090.0 1565.0Q2121 1554 2151.5 1541.0Q2182 1528 2213.5 1517.0Q2245 1506 2281 1506Q2311 1506 2339.0 1514.5Q2367 1523 2395 1535Q2412 1487 2412 1438V787H400V1438Q400 1500 424 1554Z" style="fill:#e6e6e6;stroke:none" transform="scale(1,-1) translate(0,-256)" /></svg>