<?xml version="1.0" encoding="utf-8" ?>
<svg baseProfile="full" height="256" version="1.1" width="256" xmlns="http://www.w3.org/2000/svg" xmlns:ev="http://www.w3.org/2001/xml-events" xmlns:xlink="http://www.w3.org/1999/xlink"><defs /><path d="M543 -177V1204Q543 1241 569.5 1267.5Q596 1294 633 1294H903V1348Q903 1385 929.5 1411.5Q956 1438 993 1438H1100Q1137 1438 1163.5 1411.5Q1190 1385 1190 1348V-215Q1185 -216 1161.5 -222.0Q1138 -228 1106.5 -236.0Q1075 -244 1039.5 -253.0Q1004 -262 973.5 -269.5Q943 -277 923.0 -282.0Q903 -287 902 -287H757ZM1550 629Q1550 667 1576.0 693.0Q1602 719 1640 719H2179Q2216 719 2242.0 692.5Q2268 666 2268 629V-177Q2262 -179 2233.0 -187.5Q2204 -196 2164.5 -208.5Q2125 -221 2080.0 -234.5Q2035 -248 1997.0 -260.0Q1959 -272 1934.0 -279.5Q1909 -287 1909 -287H1765Q1765 -287 1750.0 -282.0Q1735 -277 1712.5 -269.5Q1690 -262 1663.0 -253.0Q1636 -244 1612.0 -236.0Q1588 -228 1571.0 -222.0Q1554 -216 1550 -215Z" style="fill:#9b9b9b;stroke:none" transform="scale(1,-1) translate(0,-256)" /></svg>