<?xml version="1.0" encoding="utf-8" ?>
<svg baseProfile="full" height="256" version="1.1" width="256" xmlns="http://www.w3.org/2000/svg" xmlns:ev="http://www.w3.org/2001/xml-events" xmlns:xlink="http://www.w3.org/1999/xlink"><defs /><path d="M1334 899Q1334 913 1345.0 924.0Q1356 935 1370 935H1442Q1456 935 1467.0 924.0Q1478 913 1478 899V827Q1478 812 1467.5 801.5Q1457 791 1442 791H1370Q1355 791 1344.5 801.5Q1334 812 1334 827ZM472 683Q472 698 482.5 708.5Q493 719 508 719H579Q594 719 604.5 708.5Q615 698 615 683V611Q615 596 604.5 585.5Q594 575 579 575H508Q493 575 482.5 585.5Q472 596 472 611ZM472 108Q472 123 482.5 133.5Q493 144 508 144H579Q594 144 604.5 133.5Q615 123 615 108V36Q615 21 604.5 10.5Q594 0 579 0H508Q493 0 482.5 10.5Q472 21 472 36ZM1083 360Q1069 360 1058.0 349.0Q1047 338 1047 324V252Q1047 237 1057.5 226.5Q1068 216 1083 216H1154Q1169 216 1179.5 226.5Q1190 237 1190 252V324Q1190 338 1179.0 349.0Q1168 360 1154 360ZM1370 72Q1355 72 1344.5 61.5Q1334 51 1334 36V-36Q1334 -51 1344.5 -61.5Q1355 -72 1370 -72H1442Q1457 -72 1467.5 -61.5Q1478 -51 1478 -36V36Q1478 51 1467.5 61.5Q1457 72 1442 72Z" style="fill:#212121;stroke:none" transform="scale(1,-1) translate(0,-256)" /></svg>