<?xml version="1.0" encoding="utf-8" ?>
<svg baseProfile="full" height="256" version="1.1" width="256" xmlns="http://www.w3.org/2000/svg" xmlns:ev="http://www.w3.org/2001/xml-events" xmlns:xlink="http://www.w3.org/1999/xlink"><defs /><path d="M2412 947V354H673V1006H725Q758 1006 787.5 995.0Q817 984 846.0 971.0Q875 958 904.5 947.0Q934 936 967 936Q1003 936 1034.5 947.0Q1066 958 1096.5 971.0Q1127 984 1158.0 995.0Q1189 1006 1224 1006Q1263 1006 1293.0 995.0Q1323 984 1350.0 971.0Q1377 958 1405.5 947.0Q1434 936 1470 936Q1506 936 1537.0 947.0Q1568 958 1599.0 971.0Q1630 984 1661.5 995.0Q1693 1006 1729 1006Q1765 1006 1796.0 995.0Q1827 984 1856.5 971.0Q1886 958 1916.5 947.0Q1947 936 1982 936Q2016 936 2046.5 947.0Q2077 958 2106.0 971.0Q2135 984 2165.0 995.0Q2195 1006 2229 1006Q2259 1006 2282.0 1000.0Q2305 994 2325.0 985.0Q2345 976 2365.5 966.0Q2386 956 2412 947Z" style="fill:#f4f4f4;stroke:none" transform="scale(1,-1) translate(0,-256)" /></svg>