<?xml version="1.0" encoding="utf-8" ?>
<svg baseProfile="full" height="256" version="1.1" width="256" xmlns="http://www.w3.org/2000/svg" xmlns:ev="http://www.w3.org/2001/xml-events" xmlns:xlink="http://www.w3.org/1999/xlink"><defs /><path d="M2301 719Q2301 595 2269.0 481.0Q2237 367 2178.5 267.5Q2120 168 2038.5 86.5Q1957 5 1857.5 -53.5Q1758 -112 1643.5 -144.0Q1529 -176 1406 -176Q1282 -176 1168.0 -144.0Q1054 -112 954.5 -53.5Q855 5 773.5 86.5Q692 168 633.5 267.5Q575 367 543.0 481.5Q511 596 511 719Q511 842 543.0 956.5Q575 1071 633.5 1170.5Q692 1270 773.5 1351.5Q855 1433 954.5 1491.5Q1054 1550 1168.5 1582.0Q1283 1614 1406 1614Q1529 1614 1643.5 1582.0Q1758 1550 1857.5 1491.5Q1957 1433 2038.5 1351.5Q2120 1270 2178.5 1170.5Q2237 1071 2269.0 956.5Q2301 842 2301 719Z" style="fill:#e6e6e6;stroke:none" transform="scale(1,-1) translate(0,-256)" /></svg>