<?xml version="1.0" encoding="utf-8" ?>
<svg baseProfile="full" height="256" version="1.1" width="256" xmlns="http://www.w3.org/2000/svg" xmlns:ev="http://www.w3.org/2001/xml-events" xmlns:xlink="http://www.w3.org/1999/xlink"><defs /><path d="M1909 131Q1909 117 1896 109Q1852 82 1800.5 61.5Q1749 41 1694.5 27.5Q1640 14 1585.0 7.0Q1530 0 1478 0Q1377 0 1279.0 23.5Q1181 47 1093.0 91.5Q1005 136 931.0 199.5Q857 263 802.5 343.0Q748 423 717.5 517.5Q687 612 687 719Q687 825 717.5 920.0Q748 1015 802.5 1095.0Q857 1175 931.0 1238.5Q1005 1302 1093.0 1346.5Q1181 1391 1279.0 1414.5Q1377 1438 1478 1438Q1530 1438 1585.0 1431.0Q1640 1424 1694.5 1410.5Q1749 1397 1800.5 1376.5Q1852 1356 1896 1329Q1909 1321 1909 1307Q1909 1296 1901.0 1288.0Q1893 1280 1882 1280Q1878 1280 1872 1282Q1811 1305 1749.5 1317.5Q1688 1330 1622 1330Q1494 1330 1377.0 1284.0Q1260 1238 1170.5 1156.5Q1081 1075 1028.0 963.0Q975 851 975 719Q975 587 1028.0 475.0Q1081 363 1170.5 281.5Q1260 200 1377.0 154.0Q1494 108 1622 108Q1688 108 1749.0 120.0Q1810 132 1872 155Q1878 157 1882 157Q1893 157 1901.0 149.5Q1909 142 1909 131ZM1801 923Q1806 923 1809 918L1873 789Q1877 781 1902.0 778.0Q1927 775 1955.5 773.0Q1984 771 2007.0 767.5Q2030 764 2030 754Q2030 747 2013.0 731.5Q1996 716 1976.0 698.0Q1956 680 1939.0 664.0Q1922 648 1922 641Q1922 623 1925.5 605.0Q1929 587 1933.5 568.5Q1938 550 1942.0 531.5Q1946 513 1946 496Q1946 487 1938 487Q1928 487 1909.0 497.5Q1890 508 1869.5 521.0Q1849 534 1830.0 544.5Q1811 555 1800 555Q1795 555 1775.0 544.5Q1755 534 1732.5 521.0Q1710 508 1690.0 497.5Q1670 487 1665 487Q1662 487 1659.0 489.5Q1656 492 1656 496Q1656 506 1659.0 525.0Q1662 544 1666.5 566.0Q1671 588 1675.0 608.0Q1679 628 1681 639Q1682 643 1667.0 659.0Q1652 675 1633.5 693.0Q1615 711 1597.5 727.0Q1580 743 1575 748L1573 754Q1573 761 1580 763L1723 784Q1731 785 1741.0 807.0Q1751 829 1761.5 854.5Q1772 880 1782.0 901.5Q1792 923 1801 923Z" style="fill:#ffffff;stroke:none" transform="scale(1,-1) translate(0,-256)" /></svg>