<?xml version="1.0" encoding="utf-8" ?>
<svg baseProfile="full" height="256" version="1.1" width="256" xmlns="http://www.w3.org/2000/svg" xmlns:ev="http://www.w3.org/2001/xml-events" xmlns:xlink="http://www.w3.org/1999/xlink"><defs /><path d="M1244 -36Q1211 -36 1181.5 -23.0Q1152 -10 1130.0 12.0Q1108 34 1095.5 63.5Q1083 93 1083 126Q1083 159 1095.5 188.5Q1108 218 1130.0 240.0Q1152 262 1181.5 275.0Q1211 288 1244 288Q1277 288 1306.5 275.0Q1336 262 1358.0 240.0Q1380 218 1393.0 188.5Q1406 159 1406 126Q1406 93 1393.0 63.5Q1380 34 1358.0 12.0Q1336 -10 1306.5 -23.0Q1277 -36 1244 -36Z" style="fill:#3f5fff;stroke:none" transform="scale(1,-1) translate(0,-256)" /></svg>