<?xml version="1.0" encoding="utf-8" ?>
<svg baseProfile="full" height="256" version="1.1" width="256" xmlns="http://www.w3.org/2000/svg" xmlns:ev="http://www.w3.org/2001/xml-events" xmlns:xlink="http://www.w3.org/1999/xlink"><defs /><path d="M1280 1078Q1247 1078 1217.5 1091.0Q1188 1104 1166.0 1126.0Q1144 1148 1131.0 1177.5Q1118 1207 1118 1240Q1118 1273 1131.0 1302.5Q1144 1332 1166.0 1354.0Q1188 1376 1217.5 1389.0Q1247 1402 1280 1402Q1313 1402 1342.5 1389.0Q1372 1376 1394.0 1354.0Q1416 1332 1429.0 1302.5Q1442 1273 1442 1240Q1442 1207 1429.0 1177.5Q1416 1148 1394.0 1126.0Q1372 1104 1342.5 1091.0Q1313 1078 1280 1078Z" style="fill:#8d65c5;stroke:none" transform="scale(1,-1) translate(0,-256)" /></svg>