<?xml version="1.0" encoding="utf-8" ?>
<svg baseProfile="full" height="256" version="1.1" width="256" xmlns="http://www.w3.org/2000/svg" xmlns:ev="http://www.w3.org/2001/xml-events" xmlns:xlink="http://www.w3.org/1999/xlink"><defs /><path d="M849 791Q816 791 786.5 804.0Q757 817 735.0 839.0Q713 861 700.0 890.5Q687 920 687 953Q687 986 700.0 1015.5Q713 1045 735.0 1067.0Q757 1089 786.5 1101.5Q816 1114 849 1114Q882 1114 911.5 1101.5Q941 1089 963.0 1067.0Q985 1045 998.0 1015.5Q1011 986 1011 953Q1011 920 998.0 890.5Q985 861 963.0 839.0Q941 817 911.5 804.0Q882 791 849 791Z" style="fill:#f70a8d;stroke:none" transform="scale(1,-1) translate(0,-256)" /></svg>