<?xml version="1.0" encoding="utf-8" ?>
<svg baseProfile="full" height="256" version="1.1" width="256" xmlns="http://www.w3.org/2000/svg" xmlns:ev="http://www.w3.org/2001/xml-events" xmlns:xlink="http://www.w3.org/1999/xlink"><defs /><path d="M849 288Q816 288 786.5 300.5Q757 313 735.0 335.0Q713 357 700.0 386.5Q687 416 687 449Q687 482 700.0 511.5Q713 541 735.0 563.0Q757 585 786.5 598.0Q816 611 849 611Q882 611 911.5 598.0Q941 585 963.0 563.0Q985 541 998.0 511.5Q1011 482 1011 449Q1011 416 998.0 386.5Q985 357 963.0 335.0Q941 313 911.5 300.5Q882 288 849 288Z" style="fill:#00d26a;stroke:none" transform="scale(1,-1) translate(0,-256)" /></svg>