<?xml version="1.0" encoding="utf-8" ?>
<svg baseProfile="full" height="256" version="1.1" width="256" xmlns="http://www.w3.org/2000/svg" xmlns:ev="http://www.w3.org/2001/xml-events" xmlns:xlink="http://www.w3.org/1999/xlink"><defs /><path d="M2197 719Q2197 610 2169.0 509.0Q2141 408 2089.5 320.0Q2038 232 1965.5 159.5Q1893 87 1805.0 35.5Q1717 -16 1616.0 -44.0Q1515 -72 1406 -72Q1297 -72 1196.0 -44.0Q1095 -16 1007.0 35.5Q919 87 846.5 159.5Q774 232 722.5 320.0Q671 408 643.0 509.0Q615 610 615 719Q615 828 643.0 929.0Q671 1030 722.5 1118.0Q774 1206 846.5 1278.5Q919 1351 1007.0 1402.5Q1095 1454 1196.0 1482.0Q1297 1510 1406 1510Q1515 1510 1616.0 1482.0Q1717 1454 1805.0 1402.5Q1893 1351 1965.5 1278.5Q2038 1206 2089.5 1118.0Q2141 1030 2169.0 929.0Q2197 828 2197 719ZM1824 466H1826V1024Q1838 1032 1844.5 1044.0Q1851 1056 1851 1070Q1851 1100 1825 1116L1438 1350Q1424 1358 1410 1358Q1395 1358 1382 1350L993 1116Q967 1100 967 1071Q967 1057 974.0 1044.5Q981 1032 992 1024V465Q976 465 964.0 459.5Q952 454 947 437Q944 428 940.0 414.5Q936 401 931.5 386.5Q927 372 924.0 358.5Q921 345 921 337Q921 321 932.0 309.5Q943 298 959 298H1854Q1870 298 1881.0 310.5Q1892 323 1892 338Q1892 346 1888.0 359.5Q1884 373 1879.0 388.0Q1874 403 1868.5 416.5Q1863 430 1860 439Q1856 450 1846.5 458.0Q1837 466 1824 466ZM1111 1015V466H1231V1015ZM1349 1015V466H1471V1015ZM1590 1015V466H1706V1015Z" style="fill:#d3883e;stroke:none" transform="scale(1,-1) translate(0,-256)" /></svg>