<?xml version="1.0" encoding="utf-8" ?>
<svg baseProfile="full" height="256" version="1.1" width="256" xmlns="http://www.w3.org/2000/svg" xmlns:ev="http://www.w3.org/2001/xml-events" xmlns:xlink="http://www.w3.org/1999/xlink"><defs /><path d="M1614 1704Q1730 1682 1834.0 1633.0Q1938 1584 2026.5 1514.0Q2115 1444 2186.5 1355.5Q2258 1267 2308.0 1165.0Q2358 1063 2385.0 951.0Q2412 839 2412 722Q2412 583 2376.5 454.5Q2341 326 2276.0 213.5Q2211 101 2119.5 8.5Q2028 -84 1916.5 -150.0Q1805 -216 1676.5 -252.5Q1548 -289 1409 -289Q1292 -289 1179.5 -262.0Q1067 -235 964.5 -185.0Q862 -135 772.5 -63.5Q683 8 612.5 97.0Q542 186 492.5 290.5Q443 395 421 511L1614 1704Z" style="fill:#f3c07b;stroke:none" transform="scale(1,-1) translate(0,-256)" /></svg>