<?xml version="1.0" encoding="utf-8" ?>
<svg baseProfile="full" height="256" version="1.1" width="256" xmlns="http://www.w3.org/2000/svg" xmlns:ev="http://www.w3.org/2001/xml-events" xmlns:xlink="http://www.w3.org/1999/xlink"><defs /><path d="M1481 1608Q1564 1608 1635.5 1577.0Q1707 1546 1759.5 1492.5Q1812 1439 1841.5 1367.0Q1871 1295 1871 1212Q1871 1134 1842.0 1062.0Q1813 990 1758 935L1190 367Q1134 311 1062.0 279.5Q990 248 910 248Q828 248 755.5 280.5Q683 313 628.5 368.0Q574 423 542.5 496.0Q511 569 511 650Q511 731 542.0 800.5Q573 870 630 927L1198 1495Q1253 1550 1328.5 1579.0Q1404 1608 1481 1608Z" style="fill:#f3ad61;stroke:none" transform="scale(1,-1) translate(0,-256)" /></svg>