<?xml version="1.0" encoding="utf-8" ?>
<svg baseProfile="full" height="256" version="1.1" width="256" xmlns="http://www.w3.org/2000/svg" xmlns:ev="http://www.w3.org/2001/xml-events" xmlns:xlink="http://www.w3.org/1999/xlink"><defs /><path d="M1485 1636Q1558 1636 1614.5 1608.5Q1671 1581 1722 1531Q1745 1508 1758.0 1482.0Q1771 1456 1771 1422Q1771 1390 1758.0 1360.5Q1745 1331 1722 1308L831 417Q805 391 775.5 377.0Q746 363 708 363Q656 363 614.5 389.5Q573 416 544.5 457.5Q516 499 501.0 548.5Q486 598 486 644Q486 695 499.0 734.5Q512 774 531.0 806.0Q550 838 572.5 865.5Q595 893 614.0 920.5Q633 948 646.0 977.5Q659 1007 659 1044Q659 1070 654.5 1096.0Q650 1122 650 1148Q650 1212 674.5 1271.0Q699 1330 741.5 1376.0Q784 1422 841.0 1449.5Q898 1477 963 1477Q986 1477 1007.5 1473.5Q1029 1470 1052 1470Q1104 1470 1142.0 1482.5Q1180 1495 1211.0 1513.0Q1242 1531 1269.0 1553.0Q1296 1575 1327.0 1593.0Q1358 1611 1395.5 1623.5Q1433 1636 1485 1636Z" style="fill:#44911b;stroke:none" transform="scale(1,-1) translate(0,-256)" /></svg>