<?xml version="1.0" encoding="utf-8" ?>
<svg baseProfile="full" height="256" version="1.1" width="256" xmlns="http://www.w3.org/2000/svg" xmlns:ev="http://www.w3.org/2001/xml-events" xmlns:xlink="http://www.w3.org/1999/xlink"><defs /><path d="M911 249Q885 249 860 252Q858 264 857.0 276.5Q856 289 856 302Q856 351 867.5 387.0Q879 423 897.0 452.0Q915 481 935.0 507.5Q955 534 973.0 564.0Q991 594 1002.5 631.5Q1014 669 1014 720Q1014 740 1012.0 759.5Q1010 779 1010 799Q1010 861 1032.0 917.5Q1054 974 1093.5 1016.5Q1133 1059 1187.0 1084.5Q1241 1110 1305 1110Q1319 1110 1333.0 1108.5Q1347 1107 1361 1107Q1402 1107 1442.0 1118.5Q1482 1130 1521.0 1146.5Q1560 1163 1599.0 1183.0Q1638 1203 1677.0 1219.5Q1716 1236 1756.0 1247.5Q1796 1259 1838 1259Q1855 1259 1872 1256Q1875 1235 1875 1214Q1875 1137 1843.5 1063.0Q1812 989 1758 935L1190 367Q1133 310 1062.5 279.5Q992 249 911 249Z" style="fill:#86d72f;stroke:none" transform="scale(1,-1) translate(0,-256)" /></svg>