<?xml version="1.0" encoding="utf-8" ?>
<svg baseProfile="full" height="256" version="1.1" width="256" xmlns="http://www.w3.org/2000/svg" xmlns:ev="http://www.w3.org/2001/xml-events" xmlns:xlink="http://www.w3.org/1999/xlink"><defs /><path d="M1995 371 1997 369Q1992 411 1973.5 447.5Q1955 484 1925.5 510.5Q1896 537 1858.5 552.0Q1821 567 1778 567Q1732 567 1692.0 549.5Q1652 532 1622.5 502.0Q1593 472 1576.0 432.0Q1559 392 1559 347Q1559 301 1576.0 261.0Q1593 221 1623.0 191.0Q1653 161 1693.0 144.0Q1733 127 1779 127L1772 135L1799 163Q1813 149 1829.5 134.5Q1846 120 1860.0 103.5Q1874 87 1883.5 68.5Q1893 50 1893 28Q1893 8 1885.5 -10.0Q1878 -28 1864 -42L1641 -266Q1631 -277 1617.0 -282.0Q1603 -287 1589 -287Q1559 -287 1538 -266L1121 152Q1112 161 1098 161Q1084 161 1075 152Q1073 144 1068.5 140.0Q1064 136 1064 125Q1064 115 1065.5 105.5Q1067 96 1067 86Q1067 41 1049.5 1.0Q1032 -39 1002.0 -69.0Q972 -99 932.0 -116.0Q892 -133 847 -133Q801 -133 761.0 -115.5Q721 -98 691.5 -68.0Q662 -38 645.0 2.0Q628 42 628 87Q628 133 645.0 173.0Q662 213 691.5 242.5Q721 272 761.0 289.0Q801 306 847 306Q858 306 868.5 304.0Q879 302 890 302Q904 302 913.5 311.5Q923 321 923 335Q923 348 913 358L493 778Q471 800 471 829Q471 859 493 881L719 1107Q742 1130 769 1134L755 1148L786 1179Q799 1165 816.5 1149.5Q834 1134 850.0 1116.5Q866 1099 876.5 1079.0Q887 1059 887 1037V1016Q887 971 904.5 931.5Q922 892 951.5 862.0Q981 832 1021.0 815.0Q1061 798 1106 798Q1152 798 1192.0 815.5Q1232 833 1262.0 863.0Q1292 893 1309.0 933.0Q1326 973 1326 1018Q1326 1063 1308.5 1103.0Q1291 1143 1261.0 1173.0Q1231 1203 1191.0 1220.5Q1151 1238 1106 1238Q1079 1238 1059.0 1243.5Q1039 1249 1019 1269L937 1351L990 1404L1005 1389Q1008 1394 1011.5 1399.0Q1015 1404 1019 1408L1243 1632Q1253 1642 1266.5 1647.5Q1280 1653 1294 1653Q1325 1653 1346 1632L1765 1213Q1775 1203 1788 1203Q1793 1203 1802.0 1206.5Q1811 1210 1812 1215Q1822 1224 1822 1239Q1822 1249 1820.5 1259.0Q1819 1269 1819 1279Q1819 1324 1836.5 1364.0Q1854 1404 1883.5 1433.5Q1913 1463 1953.0 1480.0Q1993 1497 2038 1497Q2071 1497 2101 1488L2129 1497Q2155 1471 2178.5 1448.0Q2202 1425 2219.5 1400.0Q2237 1375 2247.0 1345.5Q2257 1316 2257 1277Q2257 1231 2240.0 1191.0Q2223 1151 2193.5 1121.5Q2164 1092 2124.0 1075.0Q2084 1058 2039 1058Q2027 1058 2016.0 1060.0Q2005 1062 1994 1062Q1981 1062 1971.5 1052.0Q1962 1042 1962 1029Q1962 1016 1972 1006L2391 587Q2412 566 2412 535Q2412 507 2391 484L2165 257Q2151 243 2133.0 235.5Q2115 228 2095 228Q2054 228 2025 257L1954 329Z" style="fill:#9b9b9b;stroke:none" transform="scale(1,-1) translate(0,-256)" /></svg>