<?xml version="1.0" encoding="utf-8" ?>
<svg baseProfile="full" height="256" version="1.1" width="256" xmlns="http://www.w3.org/2000/svg" xmlns:ev="http://www.w3.org/2001/xml-events" xmlns:xlink="http://www.w3.org/1999/xlink"><defs /><path d="M1988 626Q1927 626 1873.0 649.0Q1819 672 1779.0 712.0Q1739 752 1716.0 806.0Q1693 860 1693 921Q1693 982 1716.0 1036.0Q1739 1090 1779.0 1130.0Q1819 1170 1873.0 1193.0Q1927 1216 1988 1216Q2049 1216 2103.0 1193.0Q2157 1170 2197.0 1130.0Q2237 1090 2260.0 1036.0Q2283 982 2283 921Q2283 860 2260.0 806.0Q2237 752 2197.0 712.0Q2157 672 2103.0 649.0Q2049 626 1988 626ZM1545 -42Q1484 -42 1430.0 -19.0Q1376 4 1336.0 44.0Q1296 84 1273.0 137.5Q1250 191 1250 252Q1250 313 1273.0 367.0Q1296 421 1336.0 461.0Q1376 501 1430.0 524.0Q1484 547 1545 547Q1606 547 1660.0 524.0Q1714 501 1754.0 461.0Q1794 421 1817.0 367.0Q1840 313 1840 252Q1840 191 1817.0 137.5Q1794 84 1754.0 44.0Q1714 4 1660.0 -19.0Q1606 -42 1545 -42Z" style="fill:#433b6b;stroke:none" transform="scale(1,-1) translate(0,-256)" /></svg>