<?xml version="1.0" encoding="utf-8" ?>
<svg baseProfile="full" height="256" version="1.1" width="256" xmlns="http://www.w3.org/2000/svg" xmlns:ev="http://www.w3.org/2001/xml-events" xmlns:xlink="http://www.w3.org/1999/xlink"><defs /><path d="M2283 467Q2283 406 2260.0 352.5Q2237 299 2197.0 259.0Q2157 219 2103.0 196.0Q2049 173 1988 173Q1927 173 1873.0 196.0Q1819 219 1779.0 259.0Q1739 299 1716.0 352.5Q1693 406 1693 467Q1693 528 1716.0 582.0Q1739 636 1779.0 676.0Q1819 716 1873.0 739.0Q1927 762 1988 762Q2049 762 2103.0 739.0Q2157 716 2197.0 676.0Q2237 636 2260.0 582.0Q2283 528 2283 467Z" style="fill:#533566;stroke:none" transform="scale(1,-1) translate(0,-256)" /></svg>