<?xml version="1.0" encoding="utf-8" ?>
<svg baseProfile="full" height="256" version="1.1" width="256" xmlns="http://www.w3.org/2000/svg" xmlns:ev="http://www.w3.org/2001/xml-events" xmlns:xlink="http://www.w3.org/1999/xlink"><defs /><path d="M1513 1712Q1541 1701 1552.5 1673.5Q1564 1646 1552 1618Q1540 1589 1528.0 1544.0Q1516 1499 1509.0 1442.5Q1502 1386 1501.5 1320.5Q1501 1255 1511.5 1184.0Q1522 1113 1546.0 1039.5Q1570 966 1612 893Q1627 867 1619.5 838.0Q1612 809 1586 795Q1560 780 1531.0 787.5Q1502 795 1488 821Q1439 906 1410.5 992.5Q1382 1079 1369.5 1161.5Q1357 1244 1358.0 1320.5Q1359 1397 1367.5 1463.5Q1376 1530 1390.5 1583.5Q1405 1637 1420 1673Q1431 1701 1458.5 1712.0Q1486 1723 1513 1712Z" style="fill:#96c34a;stroke:none" transform="scale(1,-1) translate(0,-256)" /></svg>