<?xml version="1.0" encoding="utf-8" ?>
<svg baseProfile="full" height="256" version="1.1" width="256" xmlns="http://www.w3.org/2000/svg" xmlns:ev="http://www.w3.org/2001/xml-events" xmlns:xlink="http://www.w3.org/1999/xlink"><defs /><path d="M2201 13Q2201 -48 2178.0 -102.0Q2155 -156 2115.0 -196.0Q2075 -236 2021.0 -259.0Q1967 -282 1906 -282Q1845 -282 1791.0 -259.0Q1737 -236 1697.0 -196.0Q1657 -156 1634.0 -102.0Q1611 -48 1611 13Q1611 74 1634.0 127.5Q1657 181 1697.0 221.0Q1737 261 1791.0 284.0Q1845 307 1906 307Q1967 307 2021.0 284.0Q2075 261 2115.0 221.0Q2155 181 2178.0 127.5Q2201 74 2201 13Z" style="fill:#6b438b;stroke:none" transform="scale(1,-1) translate(0,-256)" /></svg>