<?xml version="1.0" encoding="utf-8" ?>
<svg baseProfile="full" height="256" version="1.1" width="256" xmlns="http://www.w3.org/2000/svg" xmlns:ev="http://www.w3.org/2001/xml-events" xmlns:xlink="http://www.w3.org/1999/xlink"><defs /><path d="M1467 548Q1467 487 1444.0 433.5Q1421 380 1381.0 340.0Q1341 300 1287.0 277.0Q1233 254 1172 254Q1111 254 1057.5 277.0Q1004 300 964.0 340.0Q924 380 901.0 433.5Q878 487 878 548Q878 609 901.0 663.0Q924 717 964.0 757.0Q1004 797 1057.5 820.0Q1111 843 1172 843Q1233 843 1287.0 820.0Q1341 797 1381.0 757.0Q1421 717 1444.0 663.0Q1467 609 1467 548Z" style="fill:#533566;stroke:none" transform="scale(1,-1) translate(0,-256)" /></svg>