<?xml version="1.0" encoding="utf-8" ?>
<svg baseProfile="full" height="256" version="1.1" width="256" xmlns="http://www.w3.org/2000/svg" xmlns:ev="http://www.w3.org/2001/xml-events" xmlns:xlink="http://www.w3.org/1999/xlink"><defs /><path d="M1869 762Q1869 701 1846.0 647.0Q1823 593 1783.0 553.0Q1743 513 1689.0 490.0Q1635 467 1574 467Q1513 467 1459.5 490.0Q1406 513 1366.0 553.0Q1326 593 1303.0 647.0Q1280 701 1280 762Q1280 823 1303.0 876.5Q1326 930 1366.0 970.0Q1406 1010 1459.5 1033.0Q1513 1056 1574 1056Q1635 1056 1689.0 1033.0Q1743 1010 1783.0 970.0Q1823 930 1846.0 876.5Q1869 823 1869 762Z" style="fill:#6b438b;stroke:none" transform="scale(1,-1) translate(0,-256)" /></svg>