<?xml version="1.0" encoding="utf-8" ?>
<svg baseProfile="full" height="256" version="1.1" width="256" xmlns="http://www.w3.org/2000/svg" xmlns:ev="http://www.w3.org/2001/xml-events" xmlns:xlink="http://www.w3.org/1999/xlink"><defs /><path d="M1474 1725Q1503 1725 1525.0 1711.5Q1547 1698 1562 1674Q1577 1650 1599.5 1638.5Q1622 1627 1642.5 1614.5Q1663 1602 1678.0 1583.0Q1693 1564 1693 1525Q1693 1504 1688.5 1493.0Q1684 1482 1678.0 1471.0Q1672 1460 1667.5 1445.0Q1663 1430 1663 1403Q1659 1406 1649.0 1411.0Q1639 1416 1634 1415Q1635 1425 1636.0 1435.5Q1637 1446 1637 1456Q1637 1481 1619.0 1501.0Q1601 1521 1575 1521Q1549 1521 1525.0 1521.0Q1501 1521 1481.0 1526.0Q1461 1531 1444.0 1545.0Q1427 1559 1414 1586Q1406 1604 1386 1604H1329Q1298 1604 1271.0 1592.0Q1244 1580 1223.5 1559.0Q1203 1538 1191.5 1510.5Q1180 1483 1180 1452V1415Q1164 1414 1149 1402V1425Q1149 1439 1144.5 1450.0Q1140 1461 1134.0 1472.0Q1128 1483 1123.5 1496.0Q1119 1509 1119 1526Q1119 1563 1133.5 1582.0Q1148 1601 1168.5 1613.5Q1189 1626 1211.5 1639.0Q1234 1652 1250 1676Q1264 1699 1287.5 1712.0Q1311 1725 1338 1725Q1357 1725 1373.0 1718.0Q1389 1711 1406 1711Q1424 1711 1439.5 1718.0Q1455 1725 1474 1725Z" style="fill:#f1a11e;stroke:none" transform="scale(1,-1) translate(0,-256)" /></svg>