<?xml version="1.0" encoding="utf-8" ?>
<svg baseProfile="full" height="256" version="1.1" width="256" xmlns="http://www.w3.org/2000/svg" xmlns:ev="http://www.w3.org/2001/xml-events" xmlns:xlink="http://www.w3.org/1999/xlink"><defs /><path d="M1406 1078Q1495 1078 1573.5 1044.0Q1652 1010 1710.5 951.5Q1769 893 1803.0 814.5Q1837 736 1837 647Q1837 624 1837.5 612.0Q1838 600 1839.5 590.0Q1841 580 1844.5 569.0Q1848 558 1855 539Q1867 504 1896.5 469.5Q1926 435 1962.0 402.5Q1998 370 2035.5 340.0Q2073 310 2101 285Q2118 287 2136.5 291.0Q2155 295 2172 295Q2186 295 2194.5 286.0Q2203 277 2203 263Q2203 245 2191.5 238.5Q2180 232 2165 230Q2169 224 2172.5 218.5Q2176 213 2178 206Q2193 198 2206.0 196.0Q2219 194 2236 194Q2249 194 2258.5 187.0Q2268 180 2268 166Q2268 147 2251 139Q2264 131 2264 113Q2264 102 2257.0 95.0Q2250 88 2239 86V78Q2239 61 2224.0 56.5Q2209 52 2197 52Q2178 52 2165 56Q2161 45 2153.0 40.5Q2145 36 2134 36Q2114 36 2091.0 46.5Q2068 57 2052 69Q2003 107 1955.0 144.0Q1907 181 1858 219Q1829 242 1798.5 265.0Q1768 288 1742 314Q1728 327 1713.5 345.5Q1699 364 1686.5 385.0Q1674 406 1666.0 427.5Q1658 449 1658 469H1586V575H1226V469H1154Q1154 449 1146.0 427.5Q1138 406 1125.5 385.0Q1113 364 1098.0 345.5Q1083 327 1070 314Q1043 288 1013.0 265.0Q983 242 954 219L759 69Q743 57 720.5 46.5Q698 36 678 36Q667 36 659.0 40.5Q651 45 647 56Q634 52 615 52Q596 52 584.5 58.0Q573 64 573 86Q564 87 555.5 94.0Q547 101 547 111Q547 131 561 139Q544 147 544 166Q544 186 558.0 189.5Q572 193 586 193Q610 193 634 206Q636 213 639.5 218.5Q643 224 647 230Q632 232 620.5 238.5Q609 245 609 263Q609 277 617.5 286.0Q626 295 640 295Q657 295 675.5 291.0Q694 287 711 285Q739 310 776.5 340.0Q814 370 850.0 402.5Q886 435 915.5 469.5Q945 504 957 539Q964 558 967.5 569.0Q971 580 972.5 590.0Q974 600 974.5 612.0Q975 624 975 647Q975 736 1009.0 814.5Q1043 893 1101.5 951.5Q1160 1010 1238.5 1044.0Q1317 1078 1406 1078Z" style="fill:#ffc83d;stroke:none" transform="scale(1,-1) translate(0,-256)" /></svg>