<?xml version="1.0" encoding="utf-8" ?>
<svg baseProfile="full" height="256" version="1.1" width="256" xmlns="http://www.w3.org/2000/svg" xmlns:ev="http://www.w3.org/2001/xml-events" xmlns:xlink="http://www.w3.org/1999/xlink"><defs /><path d="M1262 1345Q1262 1315 1241.0 1294.0Q1220 1273 1190 1273Q1161 1273 1139.5 1294.5Q1118 1316 1118 1345Q1118 1374 1139.5 1395.5Q1161 1417 1190 1417Q1220 1417 1241.0 1396.0Q1262 1375 1262 1345ZM1693 1345Q1693 1316 1672.0 1294.5Q1651 1273 1622 1273Q1592 1273 1571.0 1294.0Q1550 1315 1550 1345Q1550 1375 1571.0 1396.0Q1592 1417 1622 1417Q1651 1417 1672.0 1395.5Q1693 1374 1693 1345Z" style="fill:#fdbb11;stroke:none" transform="scale(1,-1) translate(0,-256)" /></svg>