<?xml version="1.0" encoding="utf-8" ?>
<svg baseProfile="full" height="256" version="1.1" width="256" xmlns="http://www.w3.org/2000/svg" xmlns:ev="http://www.w3.org/2001/xml-events" xmlns:xlink="http://www.w3.org/1999/xlink"><defs /><path d="M720 220 724 219V216Q724 215 723.5 214.0Q723 213 723 212Q699 193 683.0 179.0Q667 165 652.5 156.0Q638 147 620.5 142.5Q603 138 576 138Q565 138 559.0 130.5Q553 123 553 113Q553 105 558.0 99.5Q563 94 571 92Q576 109 588.5 111.5Q601 114 615 114Q640 114 664.0 128.0Q688 142 708.0 158.5Q728 175 742.5 189.0Q757 203 765 203Q770 203 770 198Q770 197 769.5 197.0Q769 197 769 196L768 195V194L679 126Q658 110 642.0 107.5Q626 105 601 105Q591 105 584.5 97.5Q578 90 578 80Q578 72 582.0 67.0Q586 62 592.0 60.0Q598 58 605.5 57.5Q613 57 619 57Q625 57 630.5 57.0Q636 57 642 59L643 54H644L643 59H642V62V61V62V65Q642 79 650.5 87.0Q659 95 672 97Q687 99 698.0 104.0Q709 109 721 117Q744 131 766.5 150.0Q789 169 810 186H813Q814 186 815.0 185.5Q816 185 817 185L816 179L727 110Q717 102 704.0 98.0Q691 94 679.0 90.0Q667 86 659.0 80.5Q651 75 651 64Q651 54 659.0 47.5Q667 41 676 41Q681 41 685.0 42.0Q689 43 694 43Q697 43 700 40Q700 33 690.5 32.5Q681 32 676 32Q667 32 658.5 37.0Q650 42 646 50Q639 48 632.5 48.0Q626 48 620 48Q611 48 601.5 49.0Q592 50 584.5 54.0Q577 58 572.5 64.5Q568 71 569 83Q558 85 551.0 94.5Q544 104 544 115Q544 129 554 138Q540 148 540 165Q540 187 554.5 192.0Q569 197 586 197Q606 197 617.5 202.0Q629 207 645 216Q646 216 646.0 216.5Q646 217 647 217Q649 217 651 215V213Q651 212 650.5 211.0Q650 210 650 209Q630 194 613.0 191.0Q596 188 572 188Q564 188 556.5 182.0Q549 176 549 166Q549 152 562 144Q570 149 576.0 147.5Q582 146 590 146Q622 146 648 166H649Q652 168 663.0 177.0Q674 186 686.0 195.5Q698 205 708.5 212.5Q719 220 720 220ZM2092 220 2089 219V216Q2089 215 2089.5 214.0Q2090 213 2090 212Q2114 193 2130.0 179.0Q2146 165 2160.5 156.0Q2175 147 2192.5 142.5Q2210 138 2237 138Q2248 138 2254.0 130.5Q2260 123 2260 113Q2260 105 2255.0 99.5Q2250 94 2242 92Q2237 109 2224.5 111.5Q2212 114 2198 114Q2172 114 2148.5 128.0Q2125 142 2105.0 158.5Q2085 175 2070.0 189.0Q2055 203 2048 203Q2043 203 2043 198Q2043 197 2044 196Q2044 195 2045 195V194L2134 126Q2155 110 2171.0 107.5Q2187 105 2212 105Q2222 105 2228.5 97.5Q2235 90 2235 80Q2235 72 2231.0 67.0Q2227 62 2221.0 60.0Q2215 58 2207.5 57.5Q2200 57 2194 57Q2188 57 2182.5 57.0Q2177 57 2171 59V65Q2171 79 2162.5 87.0Q2154 95 2141 97Q2126 99 2115.0 104.0Q2104 109 2092 117Q2069 131 2046.5 150.0Q2024 169 2003 186H2000Q1999 186 1998.0 185.5Q1997 185 1996 185L1997 179L2086 110Q2096 102 2109.0 98.0Q2122 94 2134.0 90.0Q2146 86 2154.0 80.5Q2162 75 2162 64Q2162 54 2154.0 47.5Q2146 41 2137 41Q2132 41 2128.0 42.0Q2124 43 2119 43Q2116 43 2113 40Q2113 33 2122.5 32.5Q2132 32 2137 32Q2146 32 2154.5 37.0Q2163 42 2167 50Q2174 48 2180.5 48.0Q2187 48 2193 48Q2202 48 2211.5 49.0Q2221 50 2228.5 54.0Q2236 58 2240.5 64.5Q2245 71 2244 83Q2255 85 2262.0 94.5Q2269 104 2269 115Q2269 129 2259 138Q2273 148 2273 165Q2273 176 2269.0 182.5Q2265 189 2258.5 192.0Q2252 195 2243.5 196.0Q2235 197 2227 197Q2207 197 2195.5 202.0Q2184 207 2168 216Q2167 216 2167.0 216.5Q2167 217 2166 217Q2164 217 2162 215V213Q2162 212 2162.5 211.0Q2163 210 2163 209Q2183 194 2200.0 191.0Q2217 188 2241 188Q2249 188 2256.5 182.0Q2264 176 2264 166Q2264 152 2251 144Q2243 149 2237.0 147.5Q2231 146 2223 146Q2191 146 2165 166H2164Q2161 168 2150.0 177.0Q2139 186 2126.5 195.5Q2114 205 2103.5 212.5Q2093 220 2092 220ZM2171 62V61ZM2171 59Q2171 56 2170 54H2169Q2170 56 2170 59Z" style="fill:#d67d00;stroke:none" transform="scale(1,-1) translate(0,-256)" /></svg>