<?xml version="1.0" encoding="utf-8" ?>
<svg baseProfile="full" height="256" version="1.1" width="256" xmlns="http://www.w3.org/2000/svg" xmlns:ev="http://www.w3.org/2001/xml-events" xmlns:xlink="http://www.w3.org/1999/xlink"><defs /><path d="M1406 108H1706Q1723 108 1739.5 99.0Q1756 90 1761 72Q1764 61 1771.0 37.5Q1778 14 1786.0 -15.0Q1794 -44 1803.5 -76.0Q1813 -108 1820.0 -136.5Q1827 -165 1832.0 -186.0Q1837 -207 1837 -215Q1837 -246 1814.5 -266.5Q1792 -287 1762 -287Q1741 -287 1723.5 -276.5Q1706 -266 1690.5 -250.0Q1675 -234 1660.5 -215.5Q1646 -197 1631.0 -181.0Q1616 -165 1599.5 -154.5Q1583 -144 1564 -144H903V-143Q857 -140 817.5 -120.0Q778 -100 749.0 -68.5Q720 -37 703.5 3.5Q687 44 687 90Q687 138 705.5 181.0Q724 224 755.5 255.5Q787 287 830.0 305.5Q873 324 921 324H1406Z" style="fill:#fdbb11;stroke:none" transform="scale(1,-1) translate(0,-256)" /></svg>