<?xml version="1.0" encoding="utf-8" ?>
<svg baseProfile="full" height="256" version="1.1" width="256" xmlns="http://www.w3.org/2000/svg" xmlns:ev="http://www.w3.org/2001/xml-events" xmlns:xlink="http://www.w3.org/1999/xlink"><defs /><path d="M1262 1377Q1265 1377 1269.0 1373.5Q1273 1370 1278.0 1366.0Q1283 1362 1290.0 1358.5Q1297 1355 1307 1355Q1317 1355 1324.5 1358.5Q1332 1362 1337.0 1366.0Q1342 1370 1345.5 1373.5Q1349 1377 1353 1377Q1358 1377 1360.5 1373.5Q1363 1370 1363 1365Q1363 1358 1356.5 1352.0Q1350 1346 1341.0 1342.0Q1332 1338 1322.5 1335.5Q1313 1333 1307 1333Q1301 1333 1292.0 1335.5Q1283 1338 1274.0 1342.5Q1265 1347 1258.5 1353.0Q1252 1359 1252 1366Q1252 1372 1256 1375Q1257 1375 1259.0 1376.0Q1261 1377 1262 1377ZM1459 1377Q1463 1377 1467.0 1373.5Q1471 1370 1476.0 1366.0Q1481 1362 1487.5 1358.5Q1494 1355 1505 1355Q1515 1355 1522.0 1358.5Q1529 1362 1534.0 1366.0Q1539 1370 1543.0 1373.5Q1547 1377 1550 1377Q1560 1377 1560 1366Q1560 1359 1553.5 1353.0Q1547 1347 1538.5 1342.5Q1530 1338 1520.5 1335.5Q1511 1333 1505 1333Q1471 1333 1451 1359Q1451 1361 1450.0 1362.5Q1449 1364 1449 1366Q1449 1371 1453 1375Q1455 1375 1456.5 1376.0Q1458 1377 1459 1377Z" style="fill:#d37034;stroke:none" transform="scale(1,-1) translate(0,-256)" /></svg>