<?xml version="1.0" encoding="utf-8" ?>
<svg baseProfile="full" height="256" version="1.1" width="256" xmlns="http://www.w3.org/2000/svg" xmlns:ev="http://www.w3.org/2001/xml-events" xmlns:xlink="http://www.w3.org/1999/xlink"><defs /><path d="M1460 1653Q1498 1653 1534.0 1640.0Q1570 1627 1597.5 1603.0Q1625 1579 1641.5 1545.5Q1658 1512 1658 1472Q1658 1465 1657.5 1459.0Q1657 1453 1656 1447Q1651 1383 1647.5 1320.0Q1644 1257 1639 1193Q1636 1159 1618.0 1131.5Q1600 1104 1573.5 1084.0Q1547 1064 1514.5 1053.0Q1482 1042 1451 1042H1361Q1330 1042 1297.5 1053.0Q1265 1064 1238.5 1084.0Q1212 1104 1194.0 1131.5Q1176 1159 1173 1193Q1168 1257 1164.5 1320.0Q1161 1383 1156 1447Q1155 1453 1155.0 1458.5Q1155 1464 1155 1470Q1155 1511 1171.0 1544.5Q1187 1578 1214.5 1602.0Q1242 1626 1277.5 1639.5Q1313 1653 1352 1653H1460Z" style="fill:#ffc83d;stroke:none" transform="scale(1,-1) translate(0,-256)" /></svg>