<?xml version="1.0" encoding="utf-8" ?>
<svg baseProfile="full" height="256" version="1.1" width="256" xmlns="http://www.w3.org/2000/svg" xmlns:ev="http://www.w3.org/2001/xml-events" xmlns:xlink="http://www.w3.org/1999/xlink"><defs /><path d="M400 277Q400 285 401 289Q432 414 483.0 538.5Q534 663 600.5 781.0Q667 899 748.0 1006.5Q829 1114 920 1205Q1011 1296 1118.5 1376.5Q1226 1457 1344.0 1524.0Q1462 1591 1586.5 1641.5Q1711 1692 1836 1724Q1840 1725 1848 1725Q1868 1725 1882.5 1710.5Q1897 1696 1897 1676Q1897 1657 1883 1643L1360 1120Q1352 1112 1352 1100Q1352 1087 1364.0 1075.0Q1376 1063 1390.5 1050.5Q1405 1038 1417.0 1024.5Q1429 1011 1429 995Q1429 979 1419 969L1157 707Q1146 696 1130 696Q1115 696 1102.0 708.0Q1089 720 1076.5 734.5Q1064 749 1051.0 761.0Q1038 773 1025 773Q1013 773 1006 766L483 243Q469 229 449 229Q429 229 414.5 243.0Q400 257 400 277Z" style="fill:#b4acbc;stroke:none" transform="scale(1,-1) translate(0,-256)" /></svg>