<?xml version="1.0" encoding="utf-8" ?>
<svg baseProfile="full" height="256" version="1.1" width="256" xmlns="http://www.w3.org/2000/svg" xmlns:ev="http://www.w3.org/2001/xml-events" xmlns:xlink="http://www.w3.org/1999/xlink"><defs /><path d="M1191 389 1152 1Q1151 -10 1148.0 -23.0Q1145 -36 1139.0 -48.0Q1133 -60 1124.0 -68.0Q1115 -76 1101 -76Q1088 -76 1079.0 -68.0Q1070 -60 1065.0 -48.0Q1060 -36 1057.5 -22.5Q1055 -9 1055 1L1047 389ZM1765 389 1757 1Q1757 -9 1754.5 -22.5Q1752 -36 1746.5 -48.0Q1741 -60 1732.5 -68.0Q1724 -76 1711 -76Q1697 -76 1687.5 -68.0Q1678 -60 1672.0 -48.0Q1666 -36 1663.0 -23.0Q1660 -10 1659 1L1621 389Z" style="fill:#402a32;stroke:none" transform="scale(1,-1) translate(0,-256)" /></svg>