<?xml version="1.0" encoding="utf-8" ?>
<svg baseProfile="full" height="256" version="1.1" width="256" xmlns="http://www.w3.org/2000/svg" xmlns:ev="http://www.w3.org/2001/xml-events" xmlns:xlink="http://www.w3.org/1999/xlink"><defs /><path d="M1190 791H1047V1294H1190ZM1765 791H1622V1294H1765ZM857 389H1060L874 -171Q870 -183 863.0 -201.5Q856 -220 845.5 -237.5Q835 -255 821.5 -267.0Q808 -279 791 -279Q777 -279 767.5 -271.0Q758 -263 752.0 -251.0Q746 -239 743.5 -225.0Q741 -211 741 -200Q741 -186 744 -171ZM1954 389 2068 -171Q2071 -186 2071 -200Q2071 -211 2068.5 -224.5Q2066 -238 2060.0 -250.0Q2054 -262 2044.5 -270.5Q2035 -279 2021 -279Q2004 -279 1990.5 -267.0Q1977 -255 1966.5 -237.5Q1956 -220 1949.0 -201.5Q1942 -183 1938 -171L1752 389Z" style="fill:#7d4533;stroke:none" transform="scale(1,-1) translate(0,-256)" /></svg>