<?xml version="1.0" encoding="utf-8" ?>
<svg baseProfile="full" height="256" version="1.1" width="256" xmlns="http://www.w3.org/2000/svg" xmlns:ev="http://www.w3.org/2001/xml-events" xmlns:xlink="http://www.w3.org/1999/xlink"><defs /><path d="M1765 1653Q1795 1653 1821.0 1642.0Q1847 1631 1866.5 1611.5Q1886 1592 1897.5 1566.0Q1909 1540 1909 1510V1438Q1909 1393 1892.0 1354.0Q1875 1315 1845.5 1285.5Q1816 1256 1777.0 1239.0Q1738 1222 1693 1222H1118Q1073 1222 1034.0 1239.0Q995 1256 966.0 1285.5Q937 1315 920.0 1354.0Q903 1393 903 1438V1510Q903 1540 914.5 1566.0Q926 1592 945.5 1611.5Q965 1631 991.0 1642.0Q1017 1653 1047 1653ZM1765 863Q1801 863 1836.0 844.0Q1871 825 1903.0 793.5Q1935 762 1962.5 722.0Q1990 682 2010.0 640.0Q2030 598 2041.5 557.5Q2053 517 2053 485Q2053 459 2043.0 436.0Q2033 413 2016.0 396.0Q1999 379 1976.0 369.5Q1953 360 1927 360H885Q859 360 836.0 369.5Q813 379 796.0 396.0Q779 413 769.0 436.0Q759 459 759 485Q759 517 770.5 557.5Q782 598 802.0 640.0Q822 682 849.5 722.0Q877 762 909.0 793.5Q941 825 976.0 844.0Q1011 863 1047 863Z" style="fill:#a56953;stroke:none" transform="scale(1,-1) translate(0,-256)" /></svg>