<?xml version="1.0" encoding="utf-8" ?>
<svg baseProfile="full" height="256" version="1.1" width="256" xmlns="http://www.w3.org/2000/svg" xmlns:ev="http://www.w3.org/2001/xml-events" xmlns:xlink="http://www.w3.org/1999/xlink"><defs /><path d="M1823 586Q1817 585 1811.0 585.0Q1805 585 1799 585Q1755 585 1715.0 598.5Q1675 612 1642.0 636.5Q1609 661 1583.5 695.0Q1558 729 1545 770Q1541 783 1528.0 821.5Q1515 860 1497.0 915.5Q1479 971 1457.0 1037.5Q1435 1104 1412.5 1172.0Q1390 1240 1369.0 1304.5Q1348 1369 1332.0 1420.0Q1316 1471 1306.0 1503.5Q1296 1536 1296 1540Q1296 1555 1305.0 1568.0Q1314 1581 1329 1586Q1340 1590 1375.5 1601.5Q1411 1613 1457.5 1628.5Q1504 1644 1556.0 1661.0Q1608 1678 1652.5 1692.0Q1697 1706 1727.5 1715.5Q1758 1725 1763 1725Q1778 1725 1791.0 1716.0Q1804 1707 1809 1693L2055 937Q2069 895 2069 853Q2069 783 2034.0 721.5Q1999 660 1939 624L2116 83Q2129 87 2158.0 97.5Q2187 108 2219.0 118.5Q2251 129 2278.5 137.0Q2306 145 2317 145Q2343 145 2359.5 127.5Q2376 110 2376 84Q2376 64 2365.0 49.0Q2354 34 2335 28Q2321 23 2281.0 9.5Q2241 -4 2187.5 -21.5Q2134 -39 2074.5 -58.5Q2015 -78 1964.0 -94.5Q1913 -111 1877.0 -121.5Q1841 -132 1835 -132Q1810 -132 1793.0 -114.0Q1776 -96 1776 -71Q1776 -51 1787.5 -36.0Q1799 -21 1817 -15L1999 45Z" style="fill:#aeddff;stroke:none" transform="scale(1,-1) translate(0,-256)" /></svg>