<?xml version="1.0" encoding="utf-8" ?>
<svg baseProfile="full" height="256" version="1.1" width="256" xmlns="http://www.w3.org/2000/svg" xmlns:ev="http://www.w3.org/2001/xml-events" xmlns:xlink="http://www.w3.org/1999/xlink"><defs /><path d="M1055 508Q1010 508 971.0 525.0Q932 542 903.0 571.5Q874 601 857.5 640.5Q841 680 841 724Q841 760 851 790L938 1054Q946 1080 974 1080L1347 1087Q1363 1087 1375.0 1075.5Q1387 1064 1387 1048Q1387 1044 1378.5 1016.0Q1370 988 1357.0 948.0Q1344 908 1328.5 861.0Q1313 814 1299.0 771.5Q1285 729 1274.5 697.5Q1264 666 1261 656Q1250 623 1229.5 595.5Q1209 568 1182.0 548.5Q1155 529 1122.5 518.5Q1090 508 1055 508Z" style="fill:#ffce7c;stroke:none" transform="scale(1,-1) translate(0,-256)" /></svg>