<?xml version="1.0" encoding="utf-8" ?>
<svg baseProfile="full" height="256" version="1.1" width="256" xmlns="http://www.w3.org/2000/svg" xmlns:ev="http://www.w3.org/2001/xml-events" xmlns:xlink="http://www.w3.org/1999/xlink"><defs /><path d="M1595 1512Q1595 1487 1578.0 1470.0Q1561 1453 1536 1453Q1511 1453 1493.5 1470.0Q1476 1487 1476 1512Q1476 1537 1493.5 1554.5Q1511 1572 1536 1572Q1561 1572 1578.0 1554.5Q1595 1537 1595 1512ZM1707 1358Q1707 1341 1695.5 1329.5Q1684 1318 1667 1318Q1650 1318 1638.5 1329.5Q1627 1341 1627 1358Q1627 1375 1638.5 1386.5Q1650 1398 1667 1398Q1684 1398 1695.5 1386.5Q1707 1375 1707 1358ZM1684 1489Q1694 1489 1700.5 1495.5Q1707 1502 1707 1512Q1707 1522 1700.5 1529.0Q1694 1536 1684 1536Q1674 1536 1667.0 1529.0Q1660 1522 1660 1512Q1660 1502 1667.0 1495.5Q1674 1489 1684 1489ZM1792 664Q1836 664 1875.0 681.0Q1914 698 1943.5 727.0Q1973 756 1990.0 795.5Q2007 835 2007 879Q2007 912 1996 945L1922 1174Q1915 1195 1904.0 1206.0Q1893 1217 1879.0 1222.5Q1865 1228 1848.5 1229.0Q1832 1230 1814 1230Q1761 1230 1719.5 1240.0Q1678 1250 1642.0 1269.0Q1606 1288 1572.0 1314.5Q1538 1341 1499 1373Q1484 1385 1468 1385Q1448 1385 1433.5 1370.5Q1419 1356 1419 1336Q1419 1331 1430.5 1293.5Q1442 1256 1459.0 1202.0Q1476 1148 1496.5 1085.5Q1517 1023 1536.0 966.5Q1555 910 1569.0 867.5Q1583 825 1587 812Q1598 779 1618.0 751.5Q1638 724 1665.0 704.5Q1692 685 1724.5 674.5Q1757 664 1792 664Z" style="fill:#ffdea7;stroke:none" transform="scale(1,-1) translate(0,-256)" /></svg>