<?xml version="1.0" encoding="utf-8" ?>
<svg baseProfile="full" height="256" version="1.1" width="256" xmlns="http://www.w3.org/2000/svg" xmlns:ev="http://www.w3.org/2001/xml-events" xmlns:xlink="http://www.w3.org/1999/xlink"><defs /><path d="M849 -111 1031 -171Q1049 -177 1060.5 -192.0Q1072 -207 1072 -227Q1072 -252 1055.0 -270.0Q1038 -288 1012 -288Q1006 -288 970.0 -277.5Q934 -267 883.0 -250.5Q832 -234 773.0 -214.5Q714 -195 660.5 -177.0Q607 -159 566.5 -145.5Q526 -132 513 -128Q494 -122 483.0 -107.0Q472 -92 472 -72Q472 -47 489.0 -29.0Q506 -11 531 -11Q540 -11 568.0 -19.0Q596 -27 628.5 -37.5Q661 -48 690.5 -58.5Q720 -69 732 -73L909 468Q849 504 814.0 566.0Q779 628 779 698Q779 742 792 781L1039 1537Q1044 1551 1057.0 1560.0Q1070 1569 1085 1569Q1090 1569 1120.5 1559.5Q1151 1550 1195.5 1536.0Q1240 1522 1292.0 1505.0Q1344 1488 1390.5 1472.5Q1437 1457 1472.5 1445.5Q1508 1434 1519 1430Q1533 1425 1542.0 1412.5Q1551 1400 1551 1385Q1551 1381 1541.0 1348.5Q1531 1316 1515.0 1265.0Q1499 1214 1478.0 1149.5Q1457 1085 1435.0 1017.0Q1413 949 1391.0 882.5Q1369 816 1351.0 760.5Q1333 705 1320.0 666.0Q1307 627 1303 614Q1289 573 1264.0 539.0Q1239 505 1205.5 480.5Q1172 456 1132.0 442.5Q1092 429 1049 429Q1043 429 1037.0 429.0Q1031 429 1025 430Z" style="fill:#83cbff;stroke:none" transform="scale(1,-1) translate(0,-256)" /></svg>