<?xml version="1.0" encoding="utf-8" ?>
<svg baseProfile="full" height="256" version="1.1" width="256" xmlns="http://www.w3.org/2000/svg" xmlns:ev="http://www.w3.org/2001/xml-events" xmlns:xlink="http://www.w3.org/1999/xlink"><defs /><path d="M1509 1231Q1509 1218 1503.5 1204.0Q1498 1190 1488.5 1178.0Q1479 1166 1466.5 1158.0Q1454 1150 1440 1150Q1440 1140 1440.5 1127.5Q1441 1115 1439.0 1103.5Q1437 1092 1429.5 1084.0Q1422 1076 1407 1076Q1390 1076 1382.0 1082.5Q1374 1089 1371.5 1099.0Q1369 1109 1369.5 1122.0Q1370 1135 1370 1147Q1358 1148 1343.5 1153.5Q1329 1159 1315.5 1168.0Q1302 1177 1293.0 1188.5Q1284 1200 1284 1213Q1284 1227 1294.0 1237.0Q1304 1247 1318 1247Q1334 1247 1345.0 1234.5Q1356 1222 1370 1216Q1371 1214 1376.5 1212.0Q1382 1210 1388.5 1209.0Q1395 1208 1400.5 1207.5Q1406 1207 1409 1207Q1420 1207 1430.0 1211.5Q1440 1216 1440 1229Q1440 1239 1429.0 1244.5Q1418 1250 1402.0 1254.5Q1386 1259 1367.0 1264.5Q1348 1270 1332.0 1280.0Q1316 1290 1305.0 1306.5Q1294 1323 1294 1349Q1294 1380 1317.0 1403.5Q1340 1427 1370 1432Q1370 1441 1369.0 1454.0Q1368 1467 1370.5 1479.0Q1373 1491 1380.0 1499.5Q1387 1508 1402 1508Q1420 1508 1428.0 1500.5Q1436 1493 1439.0 1481.5Q1442 1470 1441.0 1456.0Q1440 1442 1440 1429Q1449 1429 1459.5 1423.5Q1470 1418 1480.0 1410.0Q1490 1402 1496.5 1391.5Q1503 1381 1503 1372Q1503 1358 1493.5 1349.0Q1484 1340 1470 1340Q1459 1340 1452.5 1344.5Q1446 1349 1439.5 1355.0Q1433 1361 1423.5 1365.5Q1414 1370 1397 1370Q1387 1370 1377.0 1367.5Q1367 1365 1367 1352Q1367 1346 1370 1342L1371 1339Q1391 1327 1415.0 1321.0Q1439 1315 1460.0 1306.0Q1481 1297 1495.0 1280.5Q1509 1264 1509 1231ZM1190 528Q1190 548 1203.5 560.5Q1217 573 1236 573H1576Q1595 573 1608.5 559.5Q1622 546 1622 527V70H1190Z" style="fill:#321b41;stroke:none" transform="scale(1,-1) translate(0,-256)" /></svg>