<?xml version="1.0" encoding="utf-8" ?>
<svg baseProfile="full" height="256" version="1.1" width="256" xmlns="http://www.w3.org/2000/svg" xmlns:ev="http://www.w3.org/2001/xml-events" xmlns:xlink="http://www.w3.org/1999/xlink"><defs /><path d="M1692 1076Q1641 1008 1565.5 970.5Q1490 933 1405 933Q1320 933 1244.0 970.0Q1168 1007 1117 1076H472Q443 1076 421.5 1097.5Q400 1119 400 1148Q400 1178 421.0 1199.0Q442 1220 472 1220H1052Q1044 1258 1044 1293Q1044 1368 1072.5 1433.5Q1101 1499 1150.0 1547.5Q1199 1596 1264.5 1624.5Q1330 1653 1405 1653Q1479 1653 1544.5 1624.5Q1610 1596 1659.0 1547.0Q1708 1498 1736.5 1432.5Q1765 1367 1765 1293Q1765 1258 1757 1220H2340Q2370 1220 2391.0 1199.0Q2412 1178 2412 1148Q2412 1119 2390.5 1097.5Q2369 1076 2340 1076ZM400 861Q400 890 421.5 911.5Q443 933 472 933H2340Q2369 933 2390.5 911.5Q2412 890 2412 861Q2412 831 2391.0 810.0Q2370 789 2340 789H472Q442 789 421.0 810.0Q400 831 400 861ZM400 -217H2411V-151Q2411 -119 2389.0 -96.5Q2367 -74 2335 -74H2340V-7Q2340 25 2317.5 47.5Q2295 70 2263 70H546Q514 70 491.5 47.5Q469 25 469 -7V-74H477Q445 -74 422.5 -96.5Q400 -119 400 -151Z" style="fill:#9b9b9b;stroke:none" transform="scale(1,-1) translate(0,-256)" /></svg>