<?xml version="1.0" encoding="utf-8" ?>
<svg baseProfile="full" height="256" version="1.1" width="256" xmlns="http://www.w3.org/2000/svg" xmlns:ev="http://www.w3.org/2001/xml-events" xmlns:xlink="http://www.w3.org/1999/xlink"><defs /><path d="M1291 1372H903Q888 1372 877.5 1382.5Q867 1393 867 1408Q867 1423 877.5 1433.5Q888 1444 903 1444H1302Q1316 1467 1325.5 1494.0Q1335 1521 1335 1548Q1335 1579 1326.5 1608.5Q1318 1638 1301.0 1661.5Q1284 1685 1259.0 1701.5Q1234 1718 1202 1724Q1245 1722 1293.5 1712.0Q1342 1702 1383.5 1679.5Q1425 1657 1452.5 1621.0Q1480 1585 1480 1532Q1480 1490 1461.0 1448.0Q1442 1406 1404 1383Q1442 1356 1461.0 1317.5Q1480 1279 1480 1233Q1480 1190 1457.5 1145.0Q1435 1100 1404 1070Q1436 1041 1458.0 997.5Q1480 954 1480 911Q1480 891 1476.0 865.5Q1472 840 1463.0 816.0Q1454 792 1439.5 772.0Q1425 752 1404 743Q1446 714 1462.0 669.0Q1478 624 1478 575Q1478 521 1450.5 481.0Q1423 441 1380.5 415.0Q1338 389 1287.0 376.0Q1236 363 1190 362V363Q1226 368 1253.0 388.0Q1280 408 1298.0 436.5Q1316 465 1325.5 498.5Q1335 532 1335 565Q1335 607 1319.0 649.0Q1303 691 1275 721H903Q888 721 877.5 731.5Q867 742 867 757Q867 772 877.5 782.5Q888 793 903 793H1307Q1319 816 1327.0 842.5Q1335 869 1335 895Q1335 936 1321.5 975.0Q1308 1014 1280 1044H903Q889 1044 878.0 1055.0Q867 1066 867 1080Q867 1095 877.5 1105.5Q888 1116 903 1116H1296Q1313 1142 1324.0 1174.0Q1335 1206 1335 1237Q1335 1272 1323.5 1308.0Q1312 1344 1291 1372Z" style="fill:#d67d00;stroke:none" transform="scale(1,-1) translate(0,-256)" /></svg>