<?xml version="1.0" encoding="utf-8" ?>
<svg baseProfile="full" height="256" version="1.1" width="256" xmlns="http://www.w3.org/2000/svg" xmlns:ev="http://www.w3.org/2001/xml-events" xmlns:xlink="http://www.w3.org/1999/xlink"><defs /><path d="M1819 1114Q1778 1114 1742.0 1129.5Q1706 1145 1679.5 1172.0Q1653 1199 1637.5 1235.0Q1622 1271 1622 1312Q1622 1353 1637.5 1389.0Q1653 1425 1679.5 1452.0Q1706 1479 1742.0 1494.5Q1778 1510 1819 1510Q1860 1510 1896.0 1494.5Q1932 1479 1959.0 1452.0Q1986 1425 2001.5 1389.0Q2017 1353 2017 1312Q2017 1271 2001.5 1235.0Q1986 1199 1959.0 1172.0Q1932 1145 1896.0 1129.5Q1860 1114 1819 1114Z" style="fill:#fdbb11;stroke:none" transform="scale(1,-1) translate(0,-256)" /></svg>