<?xml version="1.0" encoding="utf-8" ?>
<svg baseProfile="full" height="256" version="1.1" width="256" xmlns="http://www.w3.org/2000/svg" xmlns:ev="http://www.w3.org/2001/xml-events" xmlns:xlink="http://www.w3.org/1999/xlink"><defs /><path d="M1154 168Q1160 168 1191.5 155.0Q1223 142 1268.5 122.5Q1314 103 1366.0 79.5Q1418 56 1465.5 35.0Q1513 14 1548.5 -2.5Q1584 -19 1596 -24Q1618 -34 1618 -57Q1618 -65 1612.0 -81.0Q1606 -97 1598.0 -114.5Q1590 -132 1582.0 -148.0Q1574 -164 1570 -172Q1560 -193 1538 -193Q1532 -193 1500.5 -180.0Q1469 -167 1423.5 -147.5Q1378 -128 1326.0 -104.5Q1274 -81 1226.5 -59.5Q1179 -38 1143.5 -21.5Q1108 -5 1096 0Q1074 10 1074 33Q1074 41 1080.0 57.0Q1086 73 1094.0 90.0Q1102 107 1110.0 123.0Q1118 139 1122 147Q1132 168 1154 168Z" style="fill:#f95725;stroke:none" transform="scale(1,-1) translate(0,-256)" /></svg>