<?xml version="1.0" encoding="utf-8" ?>
<svg baseProfile="full" height="256" version="1.1" width="256" xmlns="http://www.w3.org/2000/svg" xmlns:ev="http://www.w3.org/2001/xml-events" xmlns:xlink="http://www.w3.org/1999/xlink"><defs /><path d="M2125 1463Q2154 1463 2181.5 1453.0Q2209 1443 2232 1425Q2240 1418 2250.5 1406.0Q2261 1394 2270.0 1380.0Q2279 1366 2285.0 1352.0Q2291 1338 2291 1327Q2291 1314 2284.0 1304.0Q2277 1294 2263 1294H1994Q1981 1294 1970.5 1303.0Q1960 1312 1960 1326Q1960 1329 1962 1335Q1979 1392 2021.5 1427.5Q2064 1463 2125 1463Z" style="fill:#ffffff;stroke:none" transform="scale(1,-1) translate(0,-256)" /></svg>