<?xml version="1.0" encoding="utf-8" ?>
<svg baseProfile="full" height="256" version="1.1" width="256" xmlns="http://www.w3.org/2000/svg" xmlns:ev="http://www.w3.org/2001/xml-events" xmlns:xlink="http://www.w3.org/1999/xlink"><defs /><path d="M2412 828Q2407 827 2403.0 827.0Q2399 827 2394 827Q2366 827 2337.0 835.0Q2308 843 2281.5 858.0Q2255 873 2233.5 893.5Q2212 914 2199 940Q2197 944 2197 948Q2197 957 2201.5 963.5Q2206 970 2216 970Q2218 970 2220.5 970.0Q2223 970 2224 969Q2232 966 2239.5 961.5Q2247 957 2255 954Q2322 925 2394 925H2412Z" style="fill:#990839;stroke:none" transform="scale(1,-1) translate(0,-256)" /></svg>