<?xml version="1.0" encoding="utf-8" ?>
<svg baseProfile="full" height="256" version="1.1" width="256" xmlns="http://www.w3.org/2000/svg" xmlns:ev="http://www.w3.org/2001/xml-events" xmlns:xlink="http://www.w3.org/1999/xlink"><defs /><path d="M2144 1619Q2113 1619 2086.5 1611.0Q2060 1603 2038.5 1594.0Q2017 1585 2002.5 1577.0Q1988 1569 1981 1569Q1967 1569 1956.0 1579.0Q1945 1589 1945 1604Q1945 1625 1970.0 1641.0Q1995 1657 2029.0 1668.0Q2063 1679 2096.0 1684.5Q2129 1690 2146 1690Q2156 1690 2168.5 1689.5Q2181 1689 2191.5 1685.5Q2202 1682 2209.0 1674.0Q2216 1666 2216 1652Q2216 1638 2206.5 1627.5Q2197 1617 2182 1617Q2173 1617 2163.5 1618.0Q2154 1619 2144 1619Z" style="fill:#d37034;stroke:none" transform="scale(1,-1) translate(0,-256)" /></svg>