<?xml version="1.0" encoding="utf-8" ?>
<svg baseProfile="full" height="256" version="1.1" width="256" xmlns="http://www.w3.org/2000/svg" xmlns:ev="http://www.w3.org/2001/xml-events" xmlns:xlink="http://www.w3.org/1999/xlink"><defs /><path d="M1315 1213Q1337 1213 1352.0 1199.0Q1367 1185 1370 1164Q1375 1129 1382.5 1100.5Q1390 1072 1402.0 1046.0Q1414 1020 1431.0 995.5Q1448 971 1471 944Q1486 926 1486 905Q1486 882 1469.5 865.5Q1453 849 1430 849Q1406 849 1388 867Q1364 892 1340.5 927.5Q1317 963 1298.5 1002.5Q1280 1042 1269.0 1082.5Q1258 1123 1258 1158Q1258 1182 1275.0 1197.5Q1292 1213 1315 1213ZM1100 1212Q1123 1212 1137.5 1197.0Q1152 1182 1155 1160Q1162 1100 1174.5 1051.5Q1187 1003 1206.5 959.5Q1226 916 1254.5 875.0Q1283 834 1322 789Q1337 772 1337 751Q1337 727 1321.0 710.0Q1305 693 1281 693Q1269 693 1259.0 698.0Q1249 703 1240 711Q1201 749 1165.0 802.5Q1129 856 1102.0 916.5Q1075 977 1059.0 1039.5Q1043 1102 1043 1157Q1043 1181 1060.0 1196.5Q1077 1212 1100 1212Z" style="fill:#9b9b9b;stroke:none" transform="scale(1,-1) translate(0,-256)" /></svg>