<?xml version="1.0" encoding="utf-8" ?>
<svg baseProfile="full" height="256" version="1.1" width="256" xmlns="http://www.w3.org/2000/svg" xmlns:ev="http://www.w3.org/2001/xml-events" xmlns:xlink="http://www.w3.org/1999/xlink"><defs /><path d="M2412 1362Q2412 1362 2405.5 1338.5Q2399 1315 2391.0 1286.5Q2383 1258 2376.0 1233.0Q2369 1208 2368 1204Q2369 1201 2372.5 1188.5Q2376 1176 2381.0 1158.5Q2386 1141 2391.5 1121.0Q2397 1101 2401.5 1084.5Q2406 1068 2409.0 1056.5Q2412 1045 2412 1045V923L2368 877L2412 830V528H2309Q2267 528 2218.5 535.5Q2170 543 2123.0 558.0Q2076 573 2032.5 595.0Q1989 617 1957 645Q1928 670 1901.0 704.0Q1874 738 1852.5 776.0Q1831 814 1817.0 855.0Q1803 896 1801 935L1765 1581Q1764 1588 1763.5 1594.5Q1763 1601 1763 1608Q1763 1637 1770.0 1669.5Q1777 1702 1797 1725H2412Z" style="fill:#ffc83d;stroke:none" transform="scale(1,-1) translate(0,-256)" /></svg>