<?xml version="1.0" encoding="utf-8" ?>
<svg baseProfile="full" height="256" version="1.1" width="256" xmlns="http://www.w3.org/2000/svg" xmlns:ev="http://www.w3.org/2001/xml-events" xmlns:xlink="http://www.w3.org/1999/xlink"><defs /><path d="M1190 463V-33Q1190 -49 1178.5 -60.5Q1167 -72 1151 -72H1015Q999 -72 987.0 -60.5Q975 -49 975 -33V463Q975 480 986.5 491.5Q998 503 1015 503H1151Q1167 503 1178.5 491.0Q1190 479 1190 463ZM903 463V-33Q903 -49 891.0 -60.5Q879 -72 863 -72H727Q711 -72 699.5 -60.5Q688 -49 688 -33V463Q688 479 699.5 491.0Q711 503 727 503H863Q880 503 891.5 491.5Q903 480 903 463ZM1513 143H2090Q2104 143 2114.5 153.5Q2125 164 2125 178V396Q2125 411 2115.0 421.0Q2105 431 2090 431H1513Q1499 431 1488.5 420.5Q1478 410 1478 396V178Q1478 164 1488.5 153.5Q1499 143 1513 143Z" style="fill:#83cbff;stroke:none" transform="scale(1,-1) translate(0,-256)" /></svg>