<?xml version="1.0" encoding="utf-8" ?>
<svg baseProfile="full" height="256" version="1.1" width="256" xmlns="http://www.w3.org/2000/svg" xmlns:ev="http://www.w3.org/2001/xml-events" xmlns:xlink="http://www.w3.org/1999/xlink"><defs /><path d="M1909 1546V1257Q1909 1241 1898.5 1231.0Q1888 1221 1872 1221Q1858 1221 1847.5 1232.0Q1837 1243 1837 1257V1364H1693V1257Q1693 1241 1682.5 1231.0Q1672 1221 1657 1221Q1642 1221 1632.0 1231.5Q1622 1242 1622 1257V1546Q1622 1561 1632.5 1571.0Q1643 1581 1658 1581Q1672 1581 1682.5 1570.5Q1693 1560 1693 1546V1437H1837V1546Q1837 1562 1848.0 1571.5Q1859 1581 1874 1581Q1888 1581 1898.5 1570.5Q1909 1560 1909 1546ZM1129 1221Q1167 1221 1167 1259Q1167 1279 1156.5 1286.5Q1146 1294 1128 1294H1028Q1047 1313 1068.0 1333.0Q1089 1353 1107.0 1375.5Q1125 1398 1137.0 1423.0Q1149 1448 1149 1478Q1149 1507 1139.0 1526.5Q1129 1546 1112.0 1558.0Q1095 1570 1072.5 1575.5Q1050 1581 1024 1581Q1013 1581 993.0 1578.5Q973 1576 953.0 1570.0Q933 1564 918.0 1553.5Q903 1543 903 1528Q903 1514 913.0 1502.5Q923 1491 938 1491Q952 1491 968.5 1500.5Q985 1510 1009 1510Q1029 1510 1044.0 1500.5Q1059 1491 1059 1468Q1059 1444 1036.0 1417.0Q1013 1390 985.0 1363.0Q957 1336 934.0 1310.5Q911 1285 911 1263Q911 1223 953 1223H1129ZM1405 1294Q1405 1284 1405.0 1271.5Q1405 1259 1402.0 1247.5Q1399 1236 1391.5 1228.5Q1384 1221 1369 1221Q1353 1221 1345.5 1228.5Q1338 1236 1335.0 1247.0Q1332 1258 1332.5 1270.5Q1333 1283 1333 1294H1225Q1220 1294 1213.0 1296.0Q1206 1298 1203 1302Q1197 1304 1193.5 1314.5Q1190 1325 1190 1330Q1190 1333 1191.5 1338.5Q1193 1344 1195 1346Q1195 1348 1196 1349L1341 1565Q1348 1575 1354.5 1576.5Q1361 1578 1371 1581Q1384 1575 1394.5 1570.0Q1405 1565 1405 1544V1364H1446Q1460 1364 1469.5 1354.0Q1479 1344 1479 1330Q1479 1314 1471.0 1306.5Q1463 1299 1452.0 1296.0Q1441 1293 1428.0 1293.5Q1415 1294 1405 1294ZM1334 1366V1427L1293 1366Z" style="fill:#533566;stroke:none" transform="scale(1,-1) translate(0,-256)" /></svg>