<?xml version="1.0" encoding="utf-8" ?>
<svg baseProfile="full" height="256" version="1.1" width="256" xmlns="http://www.w3.org/2000/svg" xmlns:ev="http://www.w3.org/2001/xml-events" xmlns:xlink="http://www.w3.org/1999/xlink"><defs /><path d="M2064 1239Q2064 1264 2047.0 1279.5Q2030 1295 2010.0 1308.5Q1990 1322 1973.0 1337.0Q1956 1352 1956 1375Q1956 1397 1971.0 1416.5Q1986 1436 2009 1436Q2025 1436 2038.5 1428.0Q2052 1420 2065.5 1409.0Q2079 1398 2093.0 1387.5Q2107 1377 2124 1372Q2143 1367 2162.5 1357.5Q2182 1348 2197.5 1334.0Q2213 1320 2223.0 1302.0Q2233 1284 2233 1262Q2233 1243 2220.5 1215.5Q2208 1188 2189.0 1162.0Q2170 1136 2147.5 1117.5Q2125 1099 2105 1099Q2103 1099 2099.5 1099.0Q2096 1099 2094 1101Q2101 1097 2105.5 1090.5Q2110 1084 2110 1076Q2110 1065 2102.5 1057.0Q2095 1049 2084 1049Q2077 1049 2068.0 1053.0Q2059 1057 2051.0 1063.0Q2043 1069 2037.5 1076.5Q2032 1084 2032 1092Q2032 1102 2038.0 1114.0Q2044 1126 2051.5 1139.5Q2059 1153 2065.0 1167.5Q2071 1182 2071 1197Q2071 1202 2068.5 1209.5Q2066 1217 2060 1219Q2064 1227 2064 1239Z" style="fill:#f1a11e;stroke:none" transform="scale(1,-1) translate(0,-256)" /></svg>