<?xml version="1.0" encoding="utf-8" ?>
<svg baseProfile="full" height="256" version="1.1" width="256" xmlns="http://www.w3.org/2000/svg" xmlns:ev="http://www.w3.org/2001/xml-events" xmlns:xlink="http://www.w3.org/1999/xlink"><defs /><path d="M1620 741 1562 577 1482 621 1100 426 1084 478 1100 527 1413 743Q1436 759 1462.0 766.5Q1488 774 1516 774Q1530 774 1543.0 772.0Q1556 770 1570 766H1571ZM1805 302 1668 392Q1658 377 1647.5 363.0Q1637 349 1628.0 334.0Q1619 319 1613.0 302.5Q1607 286 1607 268Q1607 234 1625 207L1818 -80L1893 -15L1760 252Z" style="fill:#ffc83d;stroke:none" transform="scale(1,-1) translate(0,-256)" /></svg>