<?xml version="1.0" encoding="utf-8" ?>
<svg baseProfile="full" height="256" version="1.1" width="256" xmlns="http://www.w3.org/2000/svg" xmlns:ev="http://www.w3.org/2001/xml-events" xmlns:xlink="http://www.w3.org/1999/xlink"><defs /><path d="M2085 1255Q2085 1250 2081 1244L1937 1062Q1932 1055 1923 1055Q1916 1055 1911.0 1060.0Q1906 1065 1906 1073Q1906 1077 1910 1083L2054 1266Q2059 1273 2068 1273Q2075 1273 2080.0 1267.5Q2085 1262 2085 1255ZM1101 426Q1083 416 1068 409Q1055 403 1044.0 398.0Q1033 393 1031 393Q1022 393 1014.5 403.0Q1007 413 1003 421L918 600V602Q918 606 922.0 611.5Q926 617 932.0 621.5Q938 626 944.0 629.0Q950 632 954 632Q957 632 977.0 617.5Q997 603 1022.0 585.0Q1047 567 1069.5 550.0Q1092 533 1100 528ZM1890 -8 1933 -36H1934Q1941 -41 1949.5 -46.0Q1958 -51 1958 -61Q1958 -66 1956.5 -71.0Q1955 -76 1952 -80L1833 -252Q1830 -257 1824 -257Q1821 -257 1818.0 -256.0Q1815 -255 1813 -254V-253Q1806 -251 1797.0 -246.0Q1788 -241 1788 -233Q1788 -217 1790.0 -195.0Q1792 -173 1794.5 -149.5Q1797 -126 1800.0 -103.0Q1803 -80 1805 -62Z" style="fill:#635994;stroke:none" transform="scale(1,-1) translate(0,-256)" /></svg>