<?xml version="1.0" encoding="utf-8" ?>
<svg baseProfile="full" height="256" version="1.1" width="256" xmlns="http://www.w3.org/2000/svg" xmlns:ev="http://www.w3.org/2001/xml-events" xmlns:xlink="http://www.w3.org/1999/xlink"><defs /><path d="M1627 1393Q1627 1387 1621.0 1384.5Q1615 1382 1615 1374Q1615 1368 1621 1362Q1627 1363 1633.0 1364.0Q1639 1365 1645 1366Q1649 1369 1655 1369Q1658 1369 1661.0 1367.5Q1664 1366 1664 1362Q1664 1360 1662.0 1356.5Q1660 1353 1658 1354Q1654 1352 1651 1352Q1644 1344 1637.5 1338.5Q1631 1333 1625 1324L1618 1321Q1615 1321 1614 1322L1611 1329Q1611 1332 1615.5 1338.0Q1620 1344 1622 1347Q1612 1345 1605.5 1355.5Q1599 1366 1599 1374Q1599 1382 1604.0 1388.5Q1609 1395 1615 1400Q1616 1400 1617.0 1400.5Q1618 1401 1619 1401Q1627 1401 1627 1393Z" style="fill:#d67d00;stroke:none" transform="scale(1,-1) translate(0,-256)" /></svg>