<?xml version="1.0" encoding="utf-8" ?>
<svg baseProfile="full" height="256" version="1.1" width="256" xmlns="http://www.w3.org/2000/svg" xmlns:ev="http://www.w3.org/2001/xml-events" xmlns:xlink="http://www.w3.org/1999/xlink"><defs /><path d="M898 636Q898 628 900.0 623.0Q902 618 904 611L945 430Q946 427 958.0 419.5Q970 412 985.0 403.0Q1000 394 1012.5 386.0Q1025 378 1027 374Q1032 362 1033.5 347.0Q1035 332 1035 318Q1035 265 1012.5 229.5Q990 194 963.0 167.5Q936 141 913.5 120.5Q891 100 891 78Q891 57 907 43L1260 -287H1008Q984 -287 965.0 -284.0Q946 -281 927.5 -276.5Q909 -272 890.0 -267.0Q871 -262 848 -258L528 -200L400 213V248V317Q405 342 410.5 359.0Q416 376 422 400L467 566Q466 570 460.5 589.0Q455 608 447.5 633.5Q440 659 431.5 688.5Q423 718 416.0 742.5Q409 767 404.5 783.5Q400 800 400 800V1725H976Q976 1725 993.0 1720.5Q1010 1716 1030.5 1710.0Q1051 1704 1069.0 1699.0Q1087 1694 1090 1693Q1093 1694 1111.0 1699.0Q1129 1704 1149.5 1710.0Q1170 1716 1187.0 1720.5Q1204 1725 1204 1725H1445Q1445 1725 1453.0 1722.5Q1461 1720 1470.0 1716.5Q1479 1713 1487.0 1710.0Q1495 1707 1497 1707L1550 1725L1431 977Q1425 940 1400.5 909.0Q1376 878 1341 864L955 709Q933 700 915.5 680.5Q898 661 898 636Z" style="fill:#d3d3d3;stroke:none" transform="scale(1,-1) translate(0,-256)" /></svg>