<?xml version="1.0" encoding="utf-8" ?>
<svg baseProfile="full" height="256" version="1.1" width="256" xmlns="http://www.w3.org/2000/svg" xmlns:ev="http://www.w3.org/2001/xml-events" xmlns:xlink="http://www.w3.org/1999/xlink"><defs /><path d="M2005 910Q2005 884 1988.5 863.5Q1972 843 1947 836Q1936 833 1919.0 828.0Q1902 823 1884.0 817.5Q1866 812 1849.0 808.5Q1832 805 1822 805Q1806 805 1793.0 815.0Q1780 825 1776 841L1749 946Q1763 950 1787.5 958.5Q1812 967 1838.0 975.5Q1864 984 1888.0 990.5Q1912 997 1925 997Q1961 997 1983.0 971.0Q2005 945 2005 910Z" style="fill:#ff8101;stroke:none" transform="scale(1,-1) translate(0,-256)" /></svg>