<?xml version="1.0" encoding="utf-8" ?>
<svg baseProfile="full" height="256" version="1.1" width="256" xmlns="http://www.w3.org/2000/svg" xmlns:ev="http://www.w3.org/2001/xml-events" xmlns:xlink="http://www.w3.org/1999/xlink"><defs /><path d="M1898 858 1713 808Q1690 802 1667 802Q1634 802 1603.5 814.0Q1573 826 1550 849L1407 988Q1400 994 1383.0 1005.5Q1366 1017 1348.5 1029.5Q1331 1042 1317.5 1053.5Q1304 1065 1304 1071Q1304 1078 1309.5 1083.0Q1315 1088 1322 1088Q1327 1088 1336.5 1081.0Q1346 1074 1351 1071L1352 1073Q1348 1076 1341.0 1081.0Q1334 1086 1327.0 1091.5Q1320 1097 1315.0 1103.0Q1310 1109 1310 1115Q1310 1122 1315.0 1127.0Q1320 1132 1327 1132Q1338 1132 1349.5 1120.0Q1361 1108 1369 1101H1370Q1367 1104 1361.0 1111.5Q1355 1119 1348.0 1127.0Q1341 1135 1336.0 1143.0Q1331 1151 1331 1155Q1331 1162 1336.0 1167.0Q1341 1172 1348 1172Q1352 1172 1359.5 1164.5Q1367 1157 1375.5 1148.0Q1384 1139 1391.0 1130.0Q1398 1121 1401 1118H1402V1120Q1400 1123 1394.5 1130.0Q1389 1137 1383.5 1144.5Q1378 1152 1373.5 1159.5Q1369 1167 1369 1171Q1369 1179 1374.0 1183.5Q1379 1188 1387 1188Q1396 1188 1401 1180Q1412 1163 1424.0 1147.5Q1436 1132 1450 1118L1453 1119Q1453 1124 1452.5 1131.5Q1452 1139 1453.5 1146.0Q1455 1153 1459.0 1158.0Q1463 1163 1471 1163Q1479 1163 1485.0 1157.5Q1491 1152 1491 1144Q1491 1126 1491.5 1108.0Q1492 1090 1499 1073L1637 937Q1642 932 1651.0 928.5Q1660 925 1668 925Q1672 925 1674.5 926.0Q1677 927 1681 928L1866 978Z" style="fill:#ffc83d;stroke:none" transform="scale(1,-1) translate(0,-256)" /></svg>