<?xml version="1.0" encoding="utf-8" ?>
<svg baseProfile="full" height="256" version="1.1" width="256" xmlns="http://www.w3.org/2000/svg" xmlns:ev="http://www.w3.org/2001/xml-events" xmlns:xlink="http://www.w3.org/1999/xlink"><defs /><path d="M1975 1070Q1957 1070 1933.0 1075.5Q1909 1081 1887.5 1092.5Q1866 1104 1851.5 1120.5Q1837 1137 1837 1160Q1837 1180 1845.5 1199.0Q1854 1218 1864 1235Q1851 1243 1851 1260Q1851 1267 1856.5 1272.0Q1862 1277 1870.0 1281.5Q1878 1286 1886.5 1289.5Q1895 1293 1900 1296Q1910 1314 1920.0 1329.5Q1930 1345 1942.0 1356.5Q1954 1368 1970.0 1375.0Q1986 1382 2009 1382Q2036 1382 2059 1368Q2078 1356 2097.0 1345.5Q2116 1335 2131.0 1322.0Q2146 1309 2155.5 1291.0Q2165 1273 2165 1248Q2165 1228 2159.0 1214.5Q2153 1201 2143.5 1189.5Q2134 1178 2121.0 1167.5Q2108 1157 2094 1144Q2078 1128 2066.0 1114.5Q2054 1101 2041.5 1091.0Q2029 1081 2013.5 1075.5Q1998 1070 1975 1070Z" style="fill:#ffc83d;stroke:none" transform="scale(1,-1) translate(0,-256)" /></svg>