<?xml version="1.0" encoding="utf-8" ?>
<svg baseProfile="full" height="256" version="1.1" width="256" xmlns="http://www.w3.org/2000/svg" xmlns:ev="http://www.w3.org/2001/xml-events" xmlns:xlink="http://www.w3.org/1999/xlink"><defs /><path d="M2059 1348Q2066 1348 2078.0 1340.0Q2090 1332 2103.5 1321.5Q2117 1311 2128.5 1301.0Q2140 1291 2146 1287Q2154 1281 2154 1271Q2154 1262 2147.5 1255.0Q2141 1248 2132 1248Q2125 1248 2113.0 1256.0Q2101 1264 2087.5 1274.5Q2074 1285 2062.5 1295.5Q2051 1306 2046 1310Q2037 1317 2037 1327Q2037 1336 2043.5 1342.0Q2050 1348 2059 1348Z" style="fill:#0074ba;stroke:none" transform="scale(1,-1) translate(0,-256)" /></svg>