<?xml version="1.0" encoding="utf-8" ?>
<svg baseProfile="full" height="256" version="1.1" width="256" xmlns="http://www.w3.org/2000/svg" xmlns:ev="http://www.w3.org/2001/xml-events" xmlns:xlink="http://www.w3.org/1999/xlink"><defs /><path d="M2067 1474Q2110 1474 2145 1447Q2167 1430 2190.0 1414.0Q2213 1398 2232.5 1379.0Q2252 1360 2264.5 1337.0Q2277 1314 2277 1283Q2277 1263 2271.5 1246.5Q2266 1230 2256.5 1215.0Q2247 1200 2235.5 1186.0Q2224 1172 2212 1157Q2205 1147 2192 1147Q2187 1147 2167.5 1159.5Q2148 1172 2122.5 1191.5Q2097 1211 2067.0 1234.5Q2037 1258 2010.5 1279.5Q1984 1301 1963.5 1317.5Q1943 1334 1935 1340Q1925 1348 1925 1360Q1925 1369 1931 1377Q1946 1396 1959.0 1413.5Q1972 1431 1987.5 1444.5Q2003 1458 2022.0 1466.0Q2041 1474 2067 1474Z" style="fill:#00a6ed;stroke:none" transform="scale(1,-1) translate(0,-256)" /></svg>