<?xml version="1.0" encoding="utf-8" ?>
<svg baseProfile="full" height="256" version="1.1" width="256" xmlns="http://www.w3.org/2000/svg" xmlns:ev="http://www.w3.org/2001/xml-events" xmlns:xlink="http://www.w3.org/1999/xlink"><defs /><path d="M1954 1029Q1980 1029 2004.0 1018.5Q2028 1008 2048 992Q2075 970 2084.5 938.0Q2094 906 2094 873Q2094 831 2087.0 786.5Q2080 742 2067.0 698.5Q2054 655 2036.5 613.5Q2019 572 1998 536L1739 686Q1750 700 1766.5 725.0Q1783 750 1798.5 778.0Q1814 806 1826.0 833.5Q1838 861 1840 879Q1843 903 1850.5 929.0Q1858 955 1871.5 977.5Q1885 1000 1905.0 1014.5Q1925 1029 1954 1029Z" style="fill:#ff6723;stroke:none" transform="scale(1,-1) translate(0,-256)" /></svg>