<?xml version="1.0" encoding="utf-8" ?>
<svg baseProfile="full" height="256" version="1.1" width="256" xmlns="http://www.w3.org/2000/svg" xmlns:ev="http://www.w3.org/2001/xml-events" xmlns:xlink="http://www.w3.org/1999/xlink"><defs /><path d="M1612 746 1740 686 1760 712 2016 568Q2000 539 1986.0 514.5Q1972 490 1955.0 471.0Q1938 452 1913.5 441.5Q1889 431 1852 431Q1841 431 1829.0 431.5Q1817 432 1806 434L1596 477Q1572 482 1557.0 500.5Q1542 519 1542 543Q1542 555 1551.0 583.0Q1560 611 1572.0 642.5Q1584 674 1595.5 703.0Q1607 732 1612 746Z" style="fill:#9b9b9b;stroke:none" transform="scale(1,-1) translate(0,-256)" /></svg>