<?xml version="1.0" encoding="utf-8" ?>
<svg baseProfile="full" height="256" version="1.1" width="256" xmlns="http://www.w3.org/2000/svg" xmlns:ev="http://www.w3.org/2001/xml-events" xmlns:xlink="http://www.w3.org/1999/xlink"><defs /><path d="M2025 562Q2021 562 2017 564L1758 710Q1755 712 1746.0 730.5Q1737 749 1724.5 776.0Q1712 803 1699.0 835.0Q1686 867 1673.5 896.0Q1661 925 1652.0 947.0Q1643 969 1640 976Q1619 1025 1619 1080V1725H1653V1080Q1653 1035 1672 989L1779 738L2034 594Q2043 589 2043 579Q2043 571 2038.0 566.5Q2033 562 2025 562Z" style="fill:#44911b;stroke:none" transform="scale(1,-1) translate(0,-256)" /></svg>