<?xml version="1.0" encoding="utf-8" ?>
<svg baseProfile="full" height="256" version="1.1" width="256" xmlns="http://www.w3.org/2000/svg" xmlns:ev="http://www.w3.org/2001/xml-events" xmlns:xlink="http://www.w3.org/1999/xlink"><defs /><path d="M1693 1258Q1708 1258 1718.5 1247.5Q1729 1237 1729 1222Q1729 1194 1733.5 1169.0Q1738 1144 1745 1118V1117L1746 1115Q1767 1052 1789.5 992.5Q1812 933 1841 873Q1868 817 1881.5 761.0Q1895 705 1895 643Q1895 628 1884.5 617.5Q1874 607 1859 607Q1844 607 1833.5 617.5Q1823 628 1823 643Q1823 748 1777 841Q1757 881 1736.0 929.0Q1715 977 1698.0 1027.0Q1681 1077 1669.5 1127.0Q1658 1177 1658 1222Q1658 1236 1668.5 1247.0Q1679 1258 1693 1258Z" style="fill:#ffffff;stroke:none" transform="scale(1,-1) translate(0,-256)" /></svg>