<?xml version="1.0" encoding="utf-8" ?>
<svg baseProfile="full" height="256" version="1.1" width="256" xmlns="http://www.w3.org/2000/svg" xmlns:ev="http://www.w3.org/2001/xml-events" xmlns:xlink="http://www.w3.org/1999/xlink"><defs /><path d="M1336 920Q1313 920 1296.0 936.5Q1279 953 1279 976Q1279 999 1296.0 1015.5Q1313 1032 1336 1032Q1359 1032 1375.5 1015.5Q1392 999 1392 976Q1392 953 1375.5 936.5Q1359 920 1336 920ZM1570 725Q1547 725 1530.5 741.5Q1514 758 1514 781Q1514 804 1530.5 820.5Q1547 837 1570 837Q1593 837 1609.5 820.5Q1626 804 1626 781Q1626 758 1609.5 741.5Q1593 725 1570 725ZM1392 564Q1392 541 1375.5 524.5Q1359 508 1336 508Q1313 508 1296.0 524.5Q1279 541 1279 564Q1279 587 1296.0 603.5Q1313 620 1336 620Q1359 620 1375.5 603.5Q1392 587 1392 564Z" style="fill:#ffb02e;stroke:none" transform="scale(1,-1) translate(0,-256)" /></svg>