<?xml version="1.0" encoding="utf-8" ?>
<svg baseProfile="full" height="256" version="1.1" width="256" xmlns="http://www.w3.org/2000/svg" xmlns:ev="http://www.w3.org/2001/xml-events" xmlns:xlink="http://www.w3.org/1999/xlink"><defs /><path d="M1963 1653Q1963 1644 1960.5 1631.5Q1958 1619 1952.5 1607.5Q1947 1596 1938.5 1588.5Q1930 1581 1918 1581Q1906 1581 1897.5 1588.5Q1889 1596 1883.5 1607.5Q1878 1619 1875.5 1631.5Q1873 1644 1873 1653Q1873 1663 1875.5 1675.5Q1878 1688 1883.0 1699.0Q1888 1710 1897.0 1717.5Q1906 1725 1918 1725Q1930 1725 1939.0 1717.5Q1948 1710 1953.0 1699.0Q1958 1688 1960.5 1675.5Q1963 1663 1963 1653Z" style="fill:#990838;stroke:none" transform="scale(1,-1) translate(0,-256)" /></svg>