<?xml version="1.0" encoding="utf-8" ?>
<svg baseProfile="full" height="256" version="1.1" width="256" xmlns="http://www.w3.org/2000/svg" xmlns:ev="http://www.w3.org/2001/xml-events" xmlns:xlink="http://www.w3.org/1999/xlink"><defs /><path d="M1081 1081Q1014 1081 955.5 1106.5Q897 1132 853.5 1175.5Q810 1219 784.5 1277.5Q759 1336 759 1403Q759 1470 784.5 1528.5Q810 1587 853.5 1630.5Q897 1674 955.5 1699.5Q1014 1725 1081 1725Q1148 1725 1206.5 1699.5Q1265 1674 1308.5 1630.5Q1352 1587 1377.5 1528.5Q1403 1470 1403 1403Q1403 1336 1377.5 1277.5Q1352 1219 1308.5 1175.5Q1265 1132 1206.5 1106.5Q1148 1081 1081 1081Z" style="fill:#00d26a;stroke:none" transform="scale(1,-1) translate(0,-256)" /></svg>