<?xml version="1.0" encoding="utf-8" ?>
<svg baseProfile="full" height="256" version="1.1" width="256" xmlns="http://www.w3.org/2000/svg" xmlns:ev="http://www.w3.org/2001/xml-events" xmlns:xlink="http://www.w3.org/1999/xlink"><defs /><path d="M1688 1149Q1711 1149 1725.0 1137.0Q1739 1125 1747 1105Q1755 1084 1761.0 1063.0Q1767 1042 1775 1021Q1807 937 1845 857Q1870 805 1882.5 752.5Q1895 700 1895 643Q1895 542 1856.5 453.5Q1818 365 1752.0 299.0Q1686 233 1597.5 194.5Q1509 156 1409 156Q1309 156 1220.5 194.5Q1132 233 1065.5 299.5Q999 366 960.5 454.5Q922 543 922 643Q922 703 935.0 756.0Q948 809 974 863Q994 905 1012.5 946.5Q1031 988 1046 1032Q1053 1050 1058.0 1068.5Q1063 1087 1070 1105Q1078 1125 1092.0 1137.0Q1106 1149 1129 1149H1688Z" style="fill:#ff6723;stroke:none" transform="scale(1,-1) translate(0,-256)" /></svg>