<?xml version="1.0" encoding="utf-8" ?>
<svg baseProfile="full" height="256" version="1.1" width="256" xmlns="http://www.w3.org/2000/svg" xmlns:ev="http://www.w3.org/2001/xml-events" xmlns:xlink="http://www.w3.org/1999/xlink"><defs /><path d="M1407 288Q1318 288 1235.0 311.0Q1152 334 1080.0 376.0Q1008 418 949.0 477.0Q890 536 848.0 608.0Q806 680 783.0 762.5Q760 845 760 935Q760 1069 811.0 1186.5Q862 1304 949.5 1392.0Q1037 1480 1155.0 1530.5Q1273 1581 1407 1581Q1541 1581 1659.0 1530.5Q1777 1480 1864.5 1392.0Q1952 1304 2003.0 1186.5Q2054 1069 2054 935Q2054 846 2031.0 763.0Q2008 680 1965.5 608.5Q1923 537 1864.0 478.0Q1805 419 1733.5 376.5Q1662 334 1579.0 311.0Q1496 288 1407 288Z" style="fill:#ffffff;stroke:none" transform="scale(1,-1) translate(0,-256)" /></svg>