<?xml version="1.0" encoding="utf-8" ?>
<svg baseProfile="full" height="256" version="1.1" width="256" xmlns="http://www.w3.org/2000/svg" xmlns:ev="http://www.w3.org/2001/xml-events" xmlns:xlink="http://www.w3.org/1999/xlink"><defs /><path d="M1443 1402Q1443 1387 1432.5 1376.5Q1422 1366 1407 1366Q1392 1366 1381.5 1376.5Q1371 1387 1371 1402V1474Q1371 1488 1382.0 1499.0Q1393 1510 1407 1510Q1421 1510 1432.0 1499.0Q1443 1488 1443 1474ZM400 -180Q400 -158 408.5 -138.5Q417 -119 432.0 -104.0Q447 -89 466.5 -80.5Q486 -72 508 -72H2305Q2327 -72 2347.0 -80.5Q2367 -89 2381.5 -103.5Q2396 -118 2404.5 -138.0Q2413 -158 2413 -180Q2413 -203 2404.5 -222.5Q2396 -242 2381.0 -256.0Q2366 -270 2346.5 -278.5Q2327 -287 2305 -287H508Q486 -287 466.5 -278.5Q447 -270 432.0 -255.5Q417 -241 408.5 -221.5Q400 -202 400 -180ZM1407 501Q1422 501 1432.5 490.5Q1443 480 1443 465V393Q1443 378 1432.5 367.5Q1422 357 1407 357Q1392 357 1381.5 367.5Q1371 378 1371 393V465Q1371 480 1381.5 490.5Q1392 501 1407 501ZM1946 969Q1961 969 1971.5 958.5Q1982 948 1982 933Q1982 918 1971.5 907.5Q1961 897 1946 897H1875Q1860 897 1849.5 907.5Q1839 918 1839 933Q1839 948 1849.5 958.5Q1860 969 1875 969ZM830 933Q830 948 840.5 958.5Q851 969 866 969H938Q953 969 963.5 958.5Q974 948 974 933Q974 918 963.5 907.5Q953 897 938 897H866Q851 897 840.5 907.5Q830 918 830 933ZM1824 1315Q1824 1300 1814 1290Q1808 1284 1799.0 1273.5Q1790 1263 1780.0 1253.0Q1770 1243 1759.0 1235.5Q1748 1228 1738 1228Q1723 1228 1712.5 1239.5Q1702 1251 1702 1265Q1702 1280 1712 1290L1763 1341Q1773 1351 1788 1351Q1803 1351 1813.5 1341.0Q1824 1331 1824 1315ZM1111 602Q1111 587 1101 577L1050 526Q1039 515 1024 515Q1010 515 999.0 526.0Q988 537 988 551Q988 566 999 577L1050 628Q1060 638 1075 638Q1090 638 1100.5 627.5Q1111 617 1111 602ZM1738 638Q1748 638 1759.0 631.0Q1770 624 1780.0 614.0Q1790 604 1799.0 593.5Q1808 583 1814 577Q1824 567 1824 551Q1824 536 1813.5 525.5Q1803 515 1788 515Q1774 515 1763 526L1712 577Q1702 587 1702 602Q1702 616 1712.5 627.0Q1723 638 1738 638ZM1024 1351Q1040 1351 1050 1341L1101 1290Q1111 1280 1111 1264Q1111 1250 1100.5 1239.0Q1090 1228 1075 1228Q1061 1228 1050 1239L999 1290Q988 1301 988 1315Q988 1330 999.0 1340.5Q1010 1351 1024 1351ZM1407 845Q1369 845 1343.0 871.0Q1317 897 1317 935Q1317 972 1343.5 998.0Q1370 1024 1407 1024Q1444 1024 1470.5 998.0Q1497 972 1497 935Q1497 898 1470.5 871.5Q1444 845 1407 845Z" style="fill:#f9c23c;stroke:none" transform="scale(1,-1) translate(0,-256)" /></svg>