<?xml version="1.0" encoding="utf-8" ?>
<svg baseProfile="full" height="256" version="1.1" width="256" xmlns="http://www.w3.org/2000/svg" xmlns:ev="http://www.w3.org/2001/xml-events" xmlns:xlink="http://www.w3.org/1999/xlink"><defs /><path d="M1405 1725Q1514 1725 1615.5 1697.0Q1717 1669 1805.0 1617.5Q1893 1566 1965.0 1494.0Q2037 1422 2088.5 1334.0Q2140 1246 2168.5 1145.0Q2197 1044 2197 935V300Q2197 268 2209.5 239.5Q2222 211 2243.0 190.0Q2264 169 2292.5 156.5Q2321 144 2353 144Q2379 144 2395.5 126.5Q2412 109 2412 84Q2412 66 2413.5 39.0Q2415 12 2411.5 -12.5Q2408 -37 2395.0 -54.5Q2382 -72 2353 -72Q2341 -72 2328.5 -71.5Q2316 -71 2304 -72L1705 -120Q1661 -123 1625.5 -127.5Q1590 -132 1556.0 -135.5Q1522 -139 1486.0 -141.5Q1450 -144 1406 -144Q1362 -144 1326.0 -141.5Q1290 -139 1256.0 -135.5Q1222 -132 1186.0 -127.5Q1150 -123 1107 -120L508 -72Q491 -71 472.5 -71.0Q454 -71 437.5 -66.5Q421 -62 410.5 -50.0Q400 -38 400 -12V84Q400 109 417.0 126.5Q434 144 459 144Q491 144 519.5 156.5Q548 169 569.0 190.0Q590 211 602.5 239.5Q615 268 615 300V935H616Q616 1044 644.0 1144.5Q672 1245 723.5 1333.0Q775 1421 847.0 1493.0Q919 1565 1007.0 1616.5Q1095 1668 1195.5 1696.5Q1296 1725 1405 1725Z" style="fill:#6d4534;stroke:none" transform="scale(1,-1) translate(0,-256)" /></svg>