<?xml version="1.0" encoding="utf-8" ?>
<svg baseProfile="full" height="256" version="1.1" width="256" xmlns="http://www.w3.org/2000/svg" xmlns:ev="http://www.w3.org/2001/xml-events" xmlns:xlink="http://www.w3.org/1999/xlink"><defs /><path d="M1190 1510Q1190 1555 1207.0 1594.0Q1224 1633 1253.5 1662.0Q1283 1691 1322.0 1708.0Q1361 1725 1406 1725Q1451 1725 1490.0 1708.0Q1529 1691 1558.5 1662.0Q1588 1633 1605.0 1594.0Q1622 1555 1622 1510Q1622 1464 1603.5 1421.5Q1585 1379 1550 1349V1150H1801Q1823 1150 1843.0 1141.5Q1863 1133 1877.5 1118.5Q1892 1104 1900.5 1084.0Q1909 1064 1909 1042Q1909 1020 1900.5 1000.5Q1892 981 1877.0 966.5Q1862 952 1842.5 943.5Q1823 935 1801 935H1550V-56Q1621 -40 1685.5 -8.5Q1750 23 1806.0 67.0Q1862 111 1907.5 167.0Q1953 223 1985 288Q1953 288 1931.0 308.5Q1909 329 1909 361Q1909 387 1927 408L2171 693Q2194 719 2226 719Q2254 719 2274.5 701.0Q2295 683 2299 656L2340 371Q2340 369 2340.5 366.0Q2341 363 2341 361Q2341 335 2331.0 320.0Q2321 305 2304.5 298.0Q2288 291 2267.5 289.5Q2247 288 2227 288H2219Q2173 159 2092.0 53.0Q2011 -53 1904.0 -128.5Q1797 -204 1670.0 -245.5Q1543 -287 1406 -287Q1269 -287 1142.0 -245.5Q1015 -204 908.0 -128.5Q801 -53 720.0 53.0Q639 159 593 288Q572 288 550.5 289.0Q529 290 511.5 296.5Q494 303 482.5 318.0Q471 333 471 361Q471 363 471.5 366.0Q472 369 472 371L513 656Q517 683 537.5 701.0Q558 719 586 719Q618 719 641 693L885 408Q903 387 903 361Q903 329 881.0 308.5Q859 288 827 288Q859 223 904.5 167.0Q950 111 1006.0 67.0Q1062 23 1126.5 -8.5Q1191 -40 1262 -56V935H1011Q989 935 969.5 943.5Q950 952 935.0 966.5Q920 981 911.5 1000.5Q903 1020 903 1042Q903 1064 911.5 1084.0Q920 1104 934.5 1118.5Q949 1133 968.5 1141.5Q988 1150 1011 1150H1262V1349Q1227 1379 1208.5 1421.5Q1190 1464 1190 1510ZM1334 1510Q1334 1480 1355.0 1459.0Q1376 1438 1406 1438Q1436 1438 1457.0 1459.0Q1478 1480 1478 1510Q1478 1539 1456.5 1560.0Q1435 1581 1406 1581Q1377 1581 1355.5 1560.0Q1334 1539 1334 1510Z" style="fill:#00a6ed;stroke:none" transform="scale(1,-1) translate(0,-256)" /></svg>