<?xml version="1.0" encoding="utf-8" ?>
<svg baseProfile="full" height="256" version="1.1" width="256" xmlns="http://www.w3.org/2000/svg" xmlns:ev="http://www.w3.org/2001/xml-events" xmlns:xlink="http://www.w3.org/1999/xlink"><defs /><path d="M1928 1294H2172Q2221 1294 2264.5 1275.0Q2308 1256 2341.0 1223.0Q2374 1190 2393.0 1146.5Q2412 1103 2412 1054Q2412 1034 2398.5 1020.0Q2385 1006 2365 1006H1874Q1869 1006 1865 1009Q1842 1013 1825.5 1031.0Q1809 1049 1809 1073V1189Q1809 1272 1777.5 1345.5Q1746 1419 1691.0 1474.0Q1636 1529 1563.0 1561.0Q1490 1593 1406 1593Q1322 1593 1249.0 1561.0Q1176 1529 1121.0 1474.0Q1066 1419 1034.5 1345.5Q1003 1272 1003 1189V1073Q1003 1049 986.5 1031.0Q970 1013 947 1009Q944 1006 938 1006H447Q427 1006 413.5 1020.0Q400 1034 400 1054Q400 1103 419.0 1147.0Q438 1191 470.5 1224.0Q503 1257 546.5 1276.0Q590 1295 640 1295H884V1296L885 1298Q893 1333 903.5 1366.0Q914 1399 931 1432Q965 1499 1015.0 1553.0Q1065 1607 1127.0 1645.5Q1189 1684 1260.0 1704.5Q1331 1725 1406 1725Q1501 1725 1587.5 1693.0Q1674 1661 1743.0 1604.5Q1812 1548 1860.0 1469.5Q1908 1391 1927 1298V1296ZM1515 1006Q1530 1006 1540.0 996.0Q1550 986 1550 971V682Q1550 666 1539.0 656.5Q1528 647 1513 647Q1499 647 1488.5 657.5Q1478 668 1478 682V790H1334V682Q1334 666 1323.0 656.5Q1312 647 1297 647Q1283 647 1272.5 657.5Q1262 668 1262 682V971Q1262 987 1273.0 996.5Q1284 1006 1299 1006Q1313 1006 1323.5 995.5Q1334 985 1334 971V863H1478V971Q1478 987 1489.0 996.5Q1500 1006 1515 1006ZM1797 346V348L1796 350Q1765 402 1723.0 443.5Q1681 485 1631.0 514.0Q1581 543 1524.0 558.5Q1467 574 1406 574Q1347 574 1289.5 558.5Q1232 543 1181.0 514.0Q1130 485 1087.5 443.5Q1045 402 1016 350Q1014 345 1012.0 339.5Q1010 334 1010 329Q1010 313 1021.5 301.0Q1033 289 1049 289Q1071 289 1082 307H1096Q1107 289 1129 289Q1150 289 1161 307H1175Q1186 289 1208 289Q1229 289 1240 307H1254Q1265 289 1287 289Q1308 289 1319 307H1333Q1346 289 1366 289Q1387 289 1398 307H1412Q1425 289 1445 289Q1466 289 1477 307H1491Q1504 289 1524 289Q1545 289 1556 307H1571Q1582 289 1603 289Q1624 289 1635 307H1650Q1661 289 1682 289Q1703 289 1714 307H1729Q1740 289 1761 289Q1778 289 1789.5 300.5Q1801 312 1801 329Q1801 336 1797 346ZM1622 1330Q1622 1353 1613.0 1372.5Q1604 1392 1588.5 1406.5Q1573 1421 1552.5 1429.5Q1532 1438 1510 1438Q1485 1438 1466.5 1429.0Q1448 1420 1435.0 1408.5Q1422 1397 1415.0 1388.0Q1408 1379 1406 1379Q1404 1379 1396.5 1388.0Q1389 1397 1376.0 1408.5Q1363 1420 1344.0 1429.0Q1325 1438 1301 1438Q1278 1438 1258.0 1429.5Q1238 1421 1223.0 1406.0Q1208 1391 1199.0 1371.0Q1190 1351 1190 1328Q1190 1277 1219 1237Q1229 1223 1253.5 1196.0Q1278 1169 1306.0 1143.0Q1334 1117 1361.5 1097.5Q1389 1078 1406 1078Q1424 1078 1451.5 1097.5Q1479 1117 1507.0 1143.0Q1535 1169 1558.5 1195.5Q1582 1222 1593 1237Q1622 1278 1622 1330Z" style="fill:#f8312f;stroke:none" transform="scale(1,-1) translate(0,-256)" /></svg>