<?xml version="1.0" encoding="utf-8" ?>
<svg baseProfile="full" height="256" version="1.1" width="256" xmlns="http://www.w3.org/2000/svg" xmlns:ev="http://www.w3.org/2001/xml-events" xmlns:xlink="http://www.w3.org/1999/xlink"><defs /><path d="M1048 1294Q1078 1259 1108.0 1225.5Q1138 1192 1158 1150H975Q946 1150 924.5 1171.5Q903 1193 903 1222Q903 1252 924.0 1273.0Q945 1294 975 1294ZM1691 1065Q1743 1078 1801 1078Q1809 1078 1818.0 1078.0Q1827 1078 1835 1077V835Q1835 806 1813.5 785.0Q1792 764 1763 764Q1734 764 1712.5 785.0Q1691 806 1691 835ZM1476 973Q1511 990 1547.0 1009.0Q1583 1028 1620 1042V776Q1620 746 1599.0 725.0Q1578 704 1548 704Q1519 704 1497.5 725.5Q1476 747 1476 776ZM1334 644Q1305 644 1283.5 665.5Q1262 687 1262 716V869L1406 939V716Q1406 687 1384.5 665.5Q1363 644 1334 644ZM1182 1078Q1186 1058 1188.0 1039.0Q1190 1020 1190 1000V935H1083Q1054 935 1032.5 956.0Q1011 977 1011 1006Q1011 1036 1032.0 1057.0Q1053 1078 1083 1078Z" style="fill:#d3883e;stroke:none" transform="scale(1,-1) translate(0,-256)" /></svg>