<?xml version="1.0" encoding="utf-8" ?>
<svg baseProfile="full" height="256" version="1.1" width="256" xmlns="http://www.w3.org/2000/svg" xmlns:ev="http://www.w3.org/2001/xml-events" xmlns:xlink="http://www.w3.org/1999/xlink"><defs /><path d="M689 1036Q689 1051 698.0 1064.0Q707 1077 724 1077Q741 1077 750.0 1064.0Q759 1051 759 1036V975Q759 960 749.5 947.5Q740 935 724 935Q708 935 698.5 947.5Q689 960 689 975ZM503 1006Q511 1006 517.5 1000.0Q524 994 524 985Q524 980 509.5 958.5Q495 937 476.5 912.5Q458 888 440.5 865.5Q423 843 418 836Q407 865 403.5 893.0Q400 921 400 952Q400 975 415.5 990.5Q431 1006 454 1006Z" style="fill:#212121;stroke:none" transform="scale(1,-1) translate(0,-256)" /></svg>