<?xml version="1.0" encoding="utf-8" ?>
<svg baseProfile="full" height="256" version="1.1" width="256" xmlns="http://www.w3.org/2000/svg" xmlns:ev="http://www.w3.org/2001/xml-events" xmlns:xlink="http://www.w3.org/1999/xlink"><defs /><path d="M1327 -287Q1315 -287 1305.0 -279.5Q1295 -272 1292 -260L1154 316H1370Q1372 306 1379.0 277.0Q1386 248 1396.5 206.5Q1407 165 1419.0 115.5Q1431 66 1443.0 15.0Q1455 -36 1466.5 -84.0Q1478 -132 1487.0 -170.5Q1496 -209 1501.5 -233.5Q1507 -258 1507 -261Q1507 -272 1499.0 -279.5Q1491 -287 1480 -287ZM1750 -287H1596Q1585 -287 1577.5 -280.0Q1570 -273 1570 -262Q1570 -258 1575.5 -233.5Q1581 -209 1589.5 -171.0Q1598 -133 1609.5 -85.0Q1621 -37 1633.0 14.0Q1645 65 1657.0 115.0Q1669 165 1679.0 206.0Q1689 247 1696.5 276.5Q1704 306 1706 316H1922L1785 -260Q1782 -271 1771.5 -279.0Q1761 -287 1750 -287Z" style="fill:#d3883e;stroke:none" transform="scale(1,-1) translate(0,-256)" /></svg>