<?xml version="1.0" encoding="utf-8" ?>
<svg baseProfile="full" height="256" version="1.1" width="256" xmlns="http://www.w3.org/2000/svg" xmlns:ev="http://www.w3.org/2001/xml-events" xmlns:xlink="http://www.w3.org/1999/xlink"><defs /><path d="M780 647Q817 647 841.5 629.5Q866 612 883 582L975 425V217Q914 223 862.0 250.0Q810 277 771.5 319.5Q733 362 711.0 417.0Q689 472 689 533V647ZM1452 421Q1510 421 1553.0 401.0Q1596 381 1631.5 349.5Q1667 318 1698.0 278.0Q1729 238 1763 198Q1745 216 1719 216H1190V421Z" style="fill:#ffdea7;stroke:none" transform="scale(1,-1) translate(0,-256)" /></svg>