<?xml version="1.0" encoding="utf-8" ?>
<svg baseProfile="full" height="256" version="1.1" width="256" xmlns="http://www.w3.org/2000/svg" xmlns:ev="http://www.w3.org/2001/xml-events" xmlns:xlink="http://www.w3.org/1999/xlink"><defs /><path d="M1047 935Q1002 935 963.0 952.0Q924 969 894.5 998.0Q865 1027 848.0 1066.0Q831 1105 831 1150Q831 1195 848.0 1234.0Q865 1273 894.5 1302.5Q924 1332 963.0 1349.0Q1002 1366 1047 1366Q1092 1366 1131.0 1349.0Q1170 1332 1199.0 1302.5Q1228 1273 1245.0 1234.0Q1262 1195 1262 1150Q1262 1105 1245.0 1066.0Q1228 1027 1199.0 998.0Q1170 969 1131.0 952.0Q1092 935 1047 935ZM1765 935Q1720 935 1681.0 952.0Q1642 969 1613.0 998.0Q1584 1027 1567.0 1066.0Q1550 1105 1550 1150Q1550 1195 1567.0 1234.0Q1584 1273 1613.0 1302.5Q1642 1332 1681.0 1349.0Q1720 1366 1765 1366Q1810 1366 1849.0 1349.0Q1888 1332 1917.5 1302.5Q1947 1273 1964.0 1234.0Q1981 1195 1981 1150Q1981 1105 1964.0 1066.0Q1947 1027 1917.5 998.0Q1888 969 1849.0 952.0Q1810 935 1765 935Z" style="fill:#402a32;stroke:none" transform="scale(1,-1) translate(0,-256)" /></svg>