<?xml version="1.0" encoding="utf-8" ?>
<svg baseProfile="full" height="256" version="1.1" width="256" xmlns="http://www.w3.org/2000/svg" xmlns:ev="http://www.w3.org/2001/xml-events" xmlns:xlink="http://www.w3.org/1999/xlink"><defs /><path d="M1406 1438Q1437 1438 1452.0 1423.5Q1467 1409 1473.0 1387.0Q1479 1365 1478.5 1340.0Q1478 1315 1478 1294H1622Q1651 1294 1672.0 1272.5Q1693 1251 1693 1222Q1693 1193 1672.0 1171.5Q1651 1150 1622 1150H1478V1006H1837Q1866 1006 1887.5 985.0Q1909 964 1909 935Q1909 905 1888.0 884.0Q1867 863 1837 863H1478V409L1688 288Q1705 278 1714.5 261.5Q1724 245 1724 225Q1724 196 1703.0 174.5Q1682 153 1652 153Q1634 153 1616 163L1478 243V72Q1478 42 1457.0 21.0Q1436 0 1406 0Q1376 0 1355.0 21.0Q1334 42 1334 72V326L1181 415Q1164 425 1154.5 441.5Q1145 458 1145 478Q1145 507 1166.0 528.0Q1187 549 1217 549Q1230 549 1246.0 542.5Q1262 536 1277.5 527.0Q1293 518 1308.0 508.0Q1323 498 1334 492V863H975Q945 863 924.0 884.0Q903 905 903 935Q903 964 924.5 985.0Q946 1006 975 1006H1334V1150H1190Q1161 1150 1139.5 1171.5Q1118 1193 1118 1222Q1118 1251 1139.5 1272.5Q1161 1294 1190 1294H1334Q1334 1315 1333.5 1340.0Q1333 1365 1339.0 1387.0Q1345 1409 1360.0 1423.5Q1375 1438 1406 1438Z" style="fill:#ffffff;stroke:none" transform="scale(1,-1) translate(0,-256)" /></svg>