<?xml version="1.0" encoding="utf-8" ?>
<svg baseProfile="full" height="256" version="1.1" width="256" xmlns="http://www.w3.org/2000/svg" xmlns:ev="http://www.w3.org/2001/xml-events" xmlns:xlink="http://www.w3.org/1999/xlink"><defs /><path d="M2411 -287H400V216Q445 216 472.5 201.5Q500 187 525.0 169.0Q550 151 578.0 136.5Q606 122 651 122Q696 122 723.5 136.5Q751 151 776.0 169.0Q801 187 829.0 201.5Q857 216 902 216Q947 216 975.0 201.5Q1003 187 1028.0 169.0Q1053 151 1080.5 136.5Q1108 122 1153 122Q1198 122 1226.0 136.5Q1254 151 1279.0 169.0Q1304 187 1332.0 201.5Q1360 216 1405 216Q1450 216 1478.0 201.5Q1506 187 1531.0 169.0Q1556 151 1583.5 136.5Q1611 122 1656 122Q1701 122 1729.0 136.5Q1757 151 1782.0 169.0Q1807 187 1835.0 201.5Q1863 216 1908 216Q1953 216 1981.0 201.5Q2009 187 2034.0 169.0Q2059 151 2087.0 136.5Q2115 122 2160 122Q2205 122 2233.0 136.5Q2261 151 2286.0 169.0Q2311 187 2339.0 201.5Q2367 216 2412 216Z" style="fill:#00a6ed;stroke:none" transform="scale(1,-1) translate(0,-256)" /></svg>