<?xml version="1.0" encoding="utf-8" ?>
<svg baseProfile="full" height="256" version="1.1" width="256" xmlns="http://www.w3.org/2000/svg" xmlns:ev="http://www.w3.org/2001/xml-events" xmlns:xlink="http://www.w3.org/1999/xlink"><defs /><path d="M2215 863Q2238 863 2263.5 861.0Q2289 859 2312 854Q2327 851 2336.5 841.5Q2346 832 2346 816Q2346 810 2337.5 782.5Q2329 755 2316.5 716.0Q2304 677 2288.5 632.0Q2273 587 2258.5 545.5Q2244 504 2232.5 472.0Q2221 440 2217 427L1962 477L2181 845Q2186 854 2195.5 858.5Q2205 863 2215 863Z" style="fill:#ff822d;stroke:none" transform="scale(1,-1) translate(0,-256)" /></svg>