<?xml version="1.0" encoding="utf-8" ?>
<svg baseProfile="full" height="256" version="1.1" width="256" xmlns="http://www.w3.org/2000/svg" xmlns:ev="http://www.w3.org/2001/xml-events" xmlns:xlink="http://www.w3.org/1999/xlink"><defs /><path d="M1329 1667Q1340 1667 1349.5 1662.0Q1359 1657 1364 1648Q1370 1636 1391.5 1600.0Q1413 1564 1441.0 1516.0Q1469 1468 1500.0 1415.0Q1531 1362 1556.5 1316.0Q1582 1270 1599.0 1237.5Q1616 1205 1616 1200Q1616 1189 1609.5 1178.5Q1603 1168 1593 1162L1217 946Q1159 913 1118 859Q1068 844 1017 844Q949 844 891.5 872.0Q834 900 793.0 946.5Q752 993 729.0 1053.5Q706 1114 706 1179Q706 1244 731.5 1302.0Q757 1360 808 1402Q873 1411 929 1443L1304 1660Q1318 1667 1329 1667Z" style="fill:#f8312f;stroke:none" transform="scale(1,-1) translate(0,-256)" /></svg>