<?xml version="1.0" encoding="utf-8" ?>
<svg baseProfile="full" height="256" version="1.1" width="256" xmlns="http://www.w3.org/2000/svg" xmlns:ev="http://www.w3.org/2001/xml-events" xmlns:xlink="http://www.w3.org/1999/xlink"><defs /><path d="M812 1402Q769 1357 746.0 1299.0Q723 1241 723 1178Q723 1111 748.5 1052.5Q774 994 818.0 950.5Q862 907 921.0 881.5Q980 856 1047 856Q1085 856 1123 865Q1104 841 1090.5 814.5Q1077 788 1063 761Q1056 748 1042 748Q954 748 876.0 782.5Q798 817 740.0 876.0Q682 935 648.5 1013.5Q615 1092 615 1179Q615 1201 618.5 1230.0Q622 1259 629.0 1288.5Q636 1318 646.5 1345.0Q657 1372 670 1391Q674 1396 679.5 1399.5Q685 1403 691 1402Q708 1401 725.0 1399.5Q742 1398 759 1398Q773 1398 786.0 1399.0Q799 1400 812 1402ZM2119 -93Q2119 -122 2098.0 -143.0Q2077 -164 2048 -164Q2019 -164 1997.5 -143.0Q1976 -122 1976 -93Q1976 -63 1997.0 -42.0Q2018 -21 2048 -21Q2077 -21 2098.0 -42.5Q2119 -64 2119 -93Z" style="fill:#d3d3d3;stroke:none" transform="scale(1,-1) translate(0,-256)" /></svg>