<?xml version="1.0" encoding="utf-8" ?>
<svg baseProfile="full" height="256" version="1.1" width="256" xmlns="http://www.w3.org/2000/svg" xmlns:ev="http://www.w3.org/2001/xml-events" xmlns:xlink="http://www.w3.org/1999/xlink"><defs /><path d="M1765 1222H1981V1078H1693ZM2125 1001V647L1694 599Q1662 596 1636.5 591.5Q1611 587 1586.5 583.5Q1562 580 1536.0 577.5Q1510 575 1478 575Q1443 575 1414.0 577.5Q1385 580 1358.0 583.5Q1331 587 1302.0 591.5Q1273 596 1238 599L759 647L1118 1006L1453 1018Q1478 1019 1498.0 1020.0Q1518 1021 1537.5 1022.0Q1557 1023 1577.0 1023.5Q1597 1024 1621 1024Q1645 1024 1665.0 1023.5Q1685 1023 1704.5 1022.0Q1724 1021 1744.0 1020.0Q1764 1019 1788 1018L2123 1006L2124 1005Q2124 1004 2124.5 1003.0Q2125 1002 2125 1001ZM2268 503V0Q2268 -31 2245.5 -51.5Q2223 -72 2193 -72H1070Q969 -72 873.0 -44.0Q777 -16 694.5 36.5Q612 89 546.5 164.0Q481 239 442 334Q436 349 428.5 370.5Q421 392 415.0 415.0Q409 438 404.5 460.0Q400 482 400 498V503Z" style="fill:#cdc4d6;stroke:none" transform="scale(1,-1) translate(0,-256)" /></svg>