<?xml version="1.0" encoding="utf-8" ?>
<svg baseProfile="full" height="256" version="1.1" width="256" xmlns="http://www.w3.org/2000/svg" xmlns:ev="http://www.w3.org/2001/xml-events" xmlns:xlink="http://www.w3.org/1999/xlink"><defs /><path d="M2411 -287H400V216Q446 216 473.5 201.5Q501 187 525.0 169.0Q549 151 577.0 136.5Q605 122 651 122Q697 122 724.5 136.5Q752 151 776.0 169.0Q800 187 828.0 201.5Q856 216 902 216Q948 216 976.0 201.5Q1004 187 1028.0 169.0Q1052 151 1079.5 136.5Q1107 122 1153 122Q1199 122 1227.0 136.5Q1255 151 1279.0 169.0Q1303 187 1331.0 201.5Q1359 216 1405 216Q1451 216 1479.0 201.5Q1507 187 1531.0 169.0Q1555 151 1582.5 136.5Q1610 122 1656 122Q1702 122 1730.0 136.5Q1758 151 1782.0 169.0Q1806 187 1834.0 201.5Q1862 216 1908 216Q1954 216 1982.0 201.5Q2010 187 2034.0 169.0Q2058 151 2086.0 136.5Q2114 122 2160 122Q2206 122 2234.0 136.5Q2262 151 2286.0 169.0Q2310 187 2338.0 201.5Q2366 216 2412 216Z" style="fill:#00a6ed;stroke:none" transform="scale(1,-1) translate(0,-256)" /></svg>