<?xml version="1.0" encoding="utf-8" ?>
<svg baseProfile="full" height="256" version="1.1" width="256" xmlns="http://www.w3.org/2000/svg" xmlns:ev="http://www.w3.org/2001/xml-events" xmlns:xlink="http://www.w3.org/1999/xlink"><defs /><path d="M1805 1405Q1805 1393 1797.0 1389.5Q1789 1386 1779.0 1383.5Q1769 1381 1761.0 1375.5Q1753 1370 1753 1353Q1753 1345 1747.0 1339.0Q1741 1333 1733 1333Q1725 1333 1719.0 1339.0Q1713 1345 1713 1353Q1713 1370 1705.0 1376.0Q1697 1382 1687.0 1384.0Q1677 1386 1669.0 1389.5Q1661 1393 1661 1405Q1661 1413 1667.5 1418.5Q1674 1424 1682 1424Q1698 1424 1703.5 1432.0Q1709 1440 1711.5 1450.0Q1714 1460 1717.5 1468.0Q1721 1476 1733 1476Q1741 1476 1747.0 1469.5Q1753 1463 1753 1455Q1753 1439 1761.0 1433.5Q1769 1428 1779.0 1425.0Q1789 1422 1797.0 1419.0Q1805 1416 1805 1405ZM1806 1117Q1806 1109 1799.5 1103.0Q1793 1097 1785 1097Q1768 1097 1762.5 1089.0Q1757 1081 1755.0 1071.0Q1753 1061 1749.5 1053.0Q1746 1045 1734 1045Q1722 1045 1718.5 1053.0Q1715 1061 1712.5 1071.0Q1710 1081 1704.5 1089.0Q1699 1097 1682 1097Q1674 1097 1668.0 1103.0Q1662 1109 1662 1117Q1662 1125 1668.5 1131.0Q1675 1137 1683 1137Q1700 1137 1705.5 1145.0Q1711 1153 1713.0 1162.5Q1715 1172 1718.5 1180.0Q1722 1188 1734 1188Q1743 1188 1748.5 1181.5Q1754 1175 1754 1167Q1754 1151 1762.0 1145.5Q1770 1140 1780.0 1137.5Q1790 1135 1798.0 1132.0Q1806 1129 1806 1117ZM1908 1331Q1899 1331 1893.5 1325.0Q1888 1319 1888 1310Q1888 1294 1880.0 1289.0Q1872 1284 1862.0 1281.5Q1852 1279 1844.0 1275.5Q1836 1272 1836 1260Q1836 1252 1842.0 1246.0Q1848 1240 1856 1240Q1873 1240 1878.5 1232.0Q1884 1224 1886.5 1214.0Q1889 1204 1892.5 1196.0Q1896 1188 1908 1188Q1916 1188 1922.0 1194.5Q1928 1201 1928 1209Q1928 1225 1936.0 1231.0Q1944 1237 1954.0 1239.0Q1964 1241 1972.0 1244.5Q1980 1248 1980 1260Q1980 1268 1973.5 1274.0Q1967 1280 1959 1280Q1942 1280 1936.5 1288.0Q1931 1296 1929.0 1305.5Q1927 1315 1923.5 1323.0Q1920 1331 1908 1331ZM1496 177Q1496 157 1482.0 143.0Q1468 129 1448 129Q1428 129 1413.5 143.0Q1399 157 1399 177Q1399 197 1413.5 211.0Q1428 225 1448 225Q1468 225 1482.0 211.0Q1496 197 1496 177ZM1489 -36Q1509 -36 1523.0 -22.0Q1537 -8 1537 12Q1537 32 1523.0 46.0Q1509 60 1489 60Q1469 60 1454.5 46.0Q1440 32 1440 12Q1440 -8 1454.5 -22.0Q1469 -36 1489 -36ZM1592 -152Q1592 -172 1578.0 -186.0Q1564 -200 1544 -200Q1524 -200 1510.0 -186.0Q1496 -172 1496 -152Q1496 -132 1510.0 -118.0Q1524 -104 1544 -104Q1564 -104 1578.0 -118.0Q1592 -132 1592 -152Z" style="fill:#f37366;stroke:none" transform="scale(1,-1) translate(0,-256)" /></svg>