<?xml version="1.0" encoding="utf-8" ?>
<svg baseProfile="full" height="256" version="1.1" width="256" xmlns="http://www.w3.org/2000/svg" xmlns:ev="http://www.w3.org/2001/xml-events" xmlns:xlink="http://www.w3.org/1999/xlink"><defs /><path d="M1441 542Q1419 542 1399.5 550.5Q1380 559 1366.0 573.5Q1352 588 1343.5 607.5Q1335 627 1335 649Q1335 671 1343.5 690.0Q1352 709 1366.5 723.5Q1381 738 1400.0 746.5Q1419 755 1441 755Q1463 755 1482.5 746.5Q1502 738 1516.5 723.5Q1531 709 1539.5 690.0Q1548 671 1548 649Q1548 627 1539.5 607.5Q1531 588 1516.5 573.5Q1502 559 1482.5 550.5Q1463 542 1441 542Z" style="fill:#fcd53f;stroke:none" transform="scale(1,-1) translate(0,-256)" /></svg>