<?xml version="1.0" encoding="utf-8" ?>
<svg baseProfile="full" height="256" version="1.1" width="256" xmlns="http://www.w3.org/2000/svg" xmlns:ev="http://www.w3.org/2001/xml-events" xmlns:xlink="http://www.w3.org/1999/xlink"><defs /><path d="M1661 1615Q1742 1615 1813.0 1584.5Q1884 1554 1937.5 1500.5Q1991 1447 2021.5 1376.0Q2052 1305 2052 1224Q2052 1143 2021.5 1072.0Q1991 1001 1937.5 947.5Q1884 894 1813.0 863.5Q1742 833 1661 833H1222Q1141 833 1070.0 863.5Q999 894 945.5 947.5Q892 1001 861.5 1072.0Q831 1143 831 1224Q831 1305 862.0 1376.0Q893 1447 946.0 1500.0Q999 1553 1070.0 1584.0Q1141 1615 1222 1615H1661Z" style="fill:#83cbff;stroke:none" transform="scale(1,-1) translate(0,-256)" /></svg>