<?xml version="1.0" encoding="utf-8" ?>
<svg baseProfile="full" height="256" version="1.1" width="256" xmlns="http://www.w3.org/2000/svg" xmlns:ev="http://www.w3.org/2001/xml-events" xmlns:xlink="http://www.w3.org/1999/xlink"><defs /><path d="M1205 318Q1205 335 1217.5 347.5Q1230 360 1247 360H1647Q1668 360 1677.0 348.5Q1686 337 1688.5 320.5Q1691 304 1690.0 285.5Q1689 267 1689 254Q1689 144 1711.5 41.0Q1734 -62 1778 -162Q1781 -169 1786.5 -180.5Q1792 -192 1797.5 -204.0Q1803 -216 1807.0 -227.5Q1811 -239 1811 -246Q1811 -263 1798.5 -275.0Q1786 -287 1769 -287H1376Q1348 -287 1338 -263L1293 -163Q1249 -65 1227.0 40.0Q1205 145 1205 253V318Z" style="fill:#cdc4d6;stroke:none" transform="scale(1,-1) translate(0,-256)" /></svg>