<?xml version="1.0" encoding="utf-8" ?>
<svg baseProfile="full" height="256" version="1.1" width="256" xmlns="http://www.w3.org/2000/svg" xmlns:ev="http://www.w3.org/2001/xml-events" xmlns:xlink="http://www.w3.org/1999/xlink"><defs /><path d="M1509 1653 1545 1611 1538 1599 1497 1585V1533L1534 1541V1515L1497 1507V1477L1545 1457L1543 1423L1497 1453L1485 1297L1471 1294V1457Q1448 1432 1422.0 1411.0Q1396 1390 1369 1370V1397Q1398 1415 1424.5 1445.0Q1451 1475 1471 1502L1378 1486L1366 1515L1471 1528V1576L1429 1557L1422 1579ZM1647 1633Q1634 1609 1630.5 1580.0Q1627 1551 1627 1524Q1627 1507 1628.5 1491.5Q1630 1476 1632 1459Q1659 1420 1688.5 1392.0Q1718 1364 1765 1352V1340Q1751 1334 1733.5 1330.0Q1716 1326 1701 1326Q1693 1326 1680.5 1340.5Q1668 1355 1655.5 1374.5Q1643 1394 1632.5 1412.0Q1622 1430 1618 1438Q1606 1415 1596.0 1400.5Q1586 1386 1574.5 1374.0Q1563 1362 1548.5 1351.5Q1534 1341 1512 1328L1504 1350Q1517 1360 1533.5 1373.5Q1550 1387 1564.5 1402.5Q1579 1418 1589.0 1435.5Q1599 1453 1599 1470V1653ZM1683 1571H1698L1723 1533L1656 1502L1641 1508ZM1543 1494 1547 1517 1585 1500V1477Z" style="fill:#0074ba;stroke:none" transform="scale(1,-1) translate(0,-256)" /></svg>