<?xml version="1.0" encoding="utf-8" ?>
<svg baseProfile="full" height="256" version="1.1" width="256" xmlns="http://www.w3.org/2000/svg" xmlns:ev="http://www.w3.org/2001/xml-events" xmlns:xlink="http://www.w3.org/1999/xlink"><defs /><path d="M1083 467Q1105 467 1124.5 458.5Q1144 450 1158.5 435.5Q1173 421 1181.5 401.5Q1190 382 1190 360Q1190 338 1181.5 318.5Q1173 299 1159.0 284.0Q1145 269 1125.0 260.5Q1105 252 1083 252Q1060 252 1040.5 260.5Q1021 269 1006.5 283.5Q992 298 983.5 317.5Q975 337 975 360Q975 382 983.5 402.0Q992 422 1007.0 436.0Q1022 450 1041.5 458.5Q1061 467 1083 467ZM1083 324Q1097 324 1107.5 335.0Q1118 346 1118 360Q1118 374 1107.5 385.0Q1097 396 1083 396Q1069 396 1058.0 385.0Q1047 374 1047 360Q1047 345 1057.5 334.5Q1068 324 1083 324ZM939 1222Q961 1222 980.5 1213.5Q1000 1205 1015.0 1190.0Q1030 1175 1038.5 1155.5Q1047 1136 1047 1114Q1047 1092 1038.5 1072.5Q1030 1053 1015.0 1038.0Q1000 1023 980.5 1014.5Q961 1006 939 1006Q917 1006 897.5 1014.5Q878 1023 863.0 1038.0Q848 1053 839.5 1072.5Q831 1092 831 1114Q831 1136 839.5 1156.0Q848 1176 862.5 1190.5Q877 1205 896.5 1213.5Q916 1222 939 1222ZM939 1078Q954 1078 964.5 1088.5Q975 1099 975 1114Q975 1129 964.5 1139.5Q954 1150 939 1150Q924 1150 913.5 1139.5Q903 1129 903 1114Q903 1099 913.5 1088.5Q924 1078 939 1078Z" style="fill:#1c1c1c;stroke:none" transform="scale(1,-1) translate(0,-256)" /></svg>