<?xml version="1.0" encoding="utf-8" ?>
<svg baseProfile="full" height="256" version="1.1" width="256" xmlns="http://www.w3.org/2000/svg" xmlns:ev="http://www.w3.org/2001/xml-events" xmlns:xlink="http://www.w3.org/1999/xlink"><defs /><path d="M2053 1330Q2053 1204 2005.0 1093.0Q1957 982 1874.5 899.5Q1792 817 1681.0 769.0Q1570 721 1444 721Q1418 721 1400.5 738.5Q1383 756 1383 782Q1383 908 1431.0 1019.0Q1479 1130 1561.5 1212.5Q1644 1295 1755.0 1343.0Q1866 1391 1992 1391Q2018 1391 2035.5 1373.5Q2053 1356 2053 1330ZM1421 690Q1421 564 1373.0 452.5Q1325 341 1242.5 258.5Q1160 176 1048.5 128.0Q937 80 811 80Q785 80 767.5 97.5Q750 115 750 141Q750 267 798.0 378.5Q846 490 928.5 572.5Q1011 655 1122.5 703.0Q1234 751 1360 751Q1385 751 1403.0 733.0Q1421 715 1421 690Z" style="fill:#f837a2;stroke:none" transform="scale(1,-1) translate(0,-256)" /></svg>