<?xml version="1.0" encoding="utf-8" ?>
<svg baseProfile="full" height="256" version="1.1" width="256" xmlns="http://www.w3.org/2000/svg" xmlns:ev="http://www.w3.org/2001/xml-events" xmlns:xlink="http://www.w3.org/1999/xlink"><defs /><path d="M1404 483Q1352 483 1306.5 503.0Q1261 523 1227.0 557.0Q1193 591 1173.0 636.5Q1153 682 1153 734Q1153 786 1173.0 831.5Q1193 877 1227.0 911.0Q1261 945 1306.5 965.0Q1352 985 1404 985Q1456 985 1502.0 965.5Q1548 946 1582.0 912.0Q1616 878 1635.5 832.0Q1655 786 1655 734Q1655 682 1635.0 636.5Q1615 591 1581.0 557.0Q1547 523 1501.5 503.0Q1456 483 1404 483Z" style="fill:#f9c23c;stroke:none" transform="scale(1,-1) translate(0,-256)" /></svg>