<?xml version="1.0" encoding="utf-8" ?>
<svg baseProfile="full" height="256" version="1.1" width="256" xmlns="http://www.w3.org/2000/svg" xmlns:ev="http://www.w3.org/2001/xml-events" xmlns:xlink="http://www.w3.org/1999/xlink"><defs /><path d="M1182 1185Q1182 1241 1194.0 1301.0Q1206 1361 1229.0 1418.5Q1252 1476 1285.5 1527.0Q1319 1578 1361 1616Q1371 1624 1381.0 1629.0Q1391 1634 1404 1634Q1418 1634 1427.5 1629.5Q1437 1625 1447 1616Q1490 1577 1523.0 1526.0Q1556 1475 1578.5 1418.5Q1601 1362 1613.0 1302.0Q1625 1242 1625 1185Q1625 1128 1613.0 1068.0Q1601 1008 1578.5 951.5Q1556 895 1523.0 844.0Q1490 793 1447 754Q1437 745 1427.5 740.5Q1418 736 1404 736Q1391 736 1381.0 741.0Q1371 746 1361 754Q1319 792 1285.5 843.0Q1252 894 1229.0 951.5Q1206 1009 1194.0 1069.0Q1182 1129 1182 1185ZM1182 283Q1182 339 1194.0 399.0Q1206 459 1229.0 516.5Q1252 574 1285.5 625.0Q1319 676 1361 714Q1371 722 1381.0 727.0Q1391 732 1404 732Q1418 732 1427.5 727.5Q1437 723 1447 714Q1490 675 1523.0 624.0Q1556 573 1578.5 516.5Q1601 460 1613.0 400.0Q1625 340 1625 283Q1625 226 1613.0 166.0Q1601 106 1578.5 49.5Q1556 -7 1523.0 -58.0Q1490 -109 1447 -148Q1437 -157 1427.5 -161.5Q1418 -166 1404 -166Q1391 -166 1381.0 -161.0Q1371 -156 1361 -148Q1319 -110 1285.5 -59.0Q1252 -8 1229.0 49.5Q1206 107 1194.0 167.0Q1182 227 1182 283Z" style="fill:#ff6dc6;stroke:none" transform="scale(1,-1) translate(0,-256)" /></svg>