<?xml version="1.0" encoding="utf-8" ?>
<svg baseProfile="full" height="256" version="1.1" width="256" xmlns="http://www.w3.org/2000/svg" xmlns:ev="http://www.w3.org/2001/xml-events" xmlns:xlink="http://www.w3.org/1999/xlink"><defs /><path d="M1360 718Q1234 718 1123.0 766.0Q1012 814 929.0 896.5Q846 979 798.0 1090.0Q750 1201 750 1327Q750 1353 767.5 1370.5Q785 1388 811 1388Q937 1388 1048.0 1340.0Q1159 1292 1242.0 1209.5Q1325 1127 1373.0 1016.0Q1421 905 1421 779Q1421 754 1403.0 736.0Q1385 718 1360 718ZM1997 80Q1871 80 1760.0 128.0Q1649 176 1566.5 259.0Q1484 342 1436.0 453.0Q1388 564 1388 690Q1388 715 1406.0 733.0Q1424 751 1449 751Q1575 751 1686.0 703.0Q1797 655 1879.5 572.0Q1962 489 2010.0 378.0Q2058 267 2058 141Q2058 115 2040.5 97.5Q2023 80 1997 80Z" style="fill:#f837a2;stroke:none" transform="scale(1,-1) translate(0,-256)" /></svg>