<?xml version="1.0" encoding="utf-8" ?>
<svg baseProfile="full" height="256" version="1.1" width="256" xmlns="http://www.w3.org/2000/svg" xmlns:ev="http://www.w3.org/2001/xml-events" xmlns:xlink="http://www.w3.org/1999/xlink"><defs /><path d="M1527 1369Q1527 1428 1550.0 1480.0Q1573 1532 1612.0 1570.5Q1651 1609 1703.0 1631.0Q1755 1653 1814 1653Q1862 1653 1898.0 1640.5Q1934 1628 1973 1604Q2009 1582 2043.5 1553.0Q2078 1524 2108 1495Q2254 1353 2333.0 1169.0Q2412 985 2412 781Q2412 642 2375.5 514.5Q2339 387 2273.5 276.0Q2208 165 2115.5 74.5Q2023 -16 1911.5 -80.5Q1800 -145 1671.5 -180.0Q1543 -215 1405 -215Q1268 -215 1140.5 -179.5Q1013 -144 901.5 -80.0Q790 -16 697.5 74.5Q605 165 539.0 275.5Q473 386 436.5 513.0Q400 640 400 778Q400 880 420.0 977.5Q440 1075 478.0 1165.5Q516 1256 572.5 1338.5Q629 1421 702 1492Q732 1522 766.0 1550.5Q800 1579 836 1602Q874 1627 913.0 1640.0Q952 1653 998 1653Q1057 1653 1109.5 1631.0Q1162 1609 1201.0 1570.5Q1240 1532 1262.5 1480.5Q1285 1429 1285 1369H1527Z" style="fill:#008463;stroke:none" transform="scale(1,-1) translate(0,-256)" /></svg>