<?xml version="1.0" encoding="utf-8" ?>
<svg baseProfile="full" height="256" version="1.1" width="256" xmlns="http://www.w3.org/2000/svg" xmlns:ev="http://www.w3.org/2001/xml-events" xmlns:xlink="http://www.w3.org/1999/xlink"><defs /><path d="M953 512Q897 512 837.0 524.0Q777 536 719.5 559.0Q662 582 611.0 615.5Q560 649 522 691Q514 701 509.0 711.0Q504 721 504 734Q504 748 508.5 757.5Q513 767 522 777Q561 820 612.0 853.0Q663 886 719.5 908.5Q776 931 836.0 943.0Q896 955 953 955Q1010 955 1070.0 943.0Q1130 931 1186.5 908.5Q1243 886 1294.0 853.0Q1345 820 1384 777Q1393 767 1397.5 757.5Q1402 748 1402 734Q1402 721 1397.0 711.0Q1392 701 1384 691Q1346 649 1295.0 615.5Q1244 582 1186.5 559.0Q1129 536 1069.0 524.0Q1009 512 953 512ZM1855 512Q1799 512 1739.0 524.0Q1679 536 1621.5 559.0Q1564 582 1513.0 615.5Q1462 649 1424 691Q1416 701 1411.0 711.0Q1406 721 1406 734Q1406 748 1410.5 757.5Q1415 767 1424 777Q1463 820 1514.0 853.0Q1565 886 1621.5 908.5Q1678 931 1738.0 943.0Q1798 955 1855 955Q1912 955 1972.0 943.0Q2032 931 2088.5 908.5Q2145 886 2196.0 853.0Q2247 820 2286 777Q2295 767 2299.5 757.5Q2304 748 2304 734Q2304 721 2299.0 711.0Q2294 701 2286 691Q2248 649 2197.0 615.5Q2146 582 2088.5 559.0Q2031 536 1971.0 524.0Q1911 512 1855 512Z" style="fill:#ff6dc6;stroke:none" transform="scale(1,-1) translate(0,-256)" /></svg>