<?xml version="1.0" encoding="utf-8" ?>
<svg baseProfile="full" height="256" version="1.1" width="256" xmlns="http://www.w3.org/2000/svg" xmlns:ev="http://www.w3.org/2001/xml-events" xmlns:xlink="http://www.w3.org/1999/xlink"><defs /><path d="M1762 1223Q1762 1187 1757.5 1151.5Q1753 1116 1743 1081Q1815 1103 1893 1103Q1941 1103 1994.5 1093.5Q2048 1084 2091 1064Q2106 1057 2115.0 1044.5Q2124 1032 2124 1015Q2124 1010 2123.0 1005.0Q2122 1000 2120 995Q2088 914 2028.5 847.0Q1969 780 1894 737Q1969 695 2030.0 628.5Q2091 562 2123 481Q2127 473 2127 461Q2127 444 2118.0 431.5Q2109 419 2095 412Q2074 401 2048.5 393.5Q2023 386 1996.0 381.0Q1969 376 1942.5 373.5Q1916 371 1892 371Q1857 371 1822.0 376.0Q1787 381 1753 390Q1773 318 1773 247Q1773 199 1763.5 145.5Q1754 92 1734 48Q1727 33 1715.0 24.0Q1703 15 1686 15Q1674 15 1665 19Q1584 51 1517.0 110.5Q1450 170 1407 245Q1365 168 1298.5 108.5Q1232 49 1151 16Q1142 12 1131 12Q1114 12 1101.5 21.0Q1089 30 1082 44Q1061 87 1051.0 142.5Q1041 198 1041 246Q1041 281 1046.0 316.5Q1051 352 1060 386Q988 366 916 366Q868 366 814.0 375.5Q760 385 717 405Q685 419 685 454Q685 464 688 473Q719 554 779.0 621.5Q839 689 914 732Q838 774 778.0 840.0Q718 906 686 987Q682 996 682 1008Q682 1042 714 1056Q759 1077 813.0 1087.5Q867 1098 917 1098Q952 1098 987.0 1093.0Q1022 1088 1056 1079Q1036 1151 1036 1222Q1036 1270 1045.5 1323.5Q1055 1377 1075 1421Q1082 1436 1094.0 1445.0Q1106 1454 1123 1454Q1128 1454 1133.0 1453.0Q1138 1452 1143 1450Q1224 1419 1289.5 1361.0Q1355 1303 1399 1229Q1441 1303 1507.0 1362.5Q1573 1422 1652 1454Q1660 1458 1672 1458Q1689 1458 1701.0 1449.0Q1713 1440 1721 1425Q1742 1381 1752.0 1326.0Q1762 1271 1762 1223ZM1403 735 1406 734V733L1404 732L1402 734Z" style="fill:#f70a8d;stroke:none" transform="scale(1,-1) translate(0,-256)" /></svg>