<?xml version="1.0" encoding="utf-8" ?>
<svg baseProfile="full" height="256" version="1.1" width="256" xmlns="http://www.w3.org/2000/svg" xmlns:ev="http://www.w3.org/2001/xml-events" xmlns:xlink="http://www.w3.org/1999/xlink"><defs /><path d="M1485 -145Q1499 -96 1527.5 -54.0Q1556 -12 1595.0 18.5Q1634 49 1681.5 66.5Q1729 84 1780 84L1987 85Q1995 85 2000.0 79.5Q2005 74 2005 66Q2005 44 2000.5 20.5Q1996 -3 1989 -23Q1971 -80 1937.5 -127.5Q1904 -175 1858.0 -208.5Q1812 -242 1757.5 -261.0Q1703 -280 1643 -280Q1634 -280 1610.5 -280.5Q1587 -281 1560.5 -281.0Q1534 -281 1512.0 -280.5Q1490 -280 1485 -278V-279Q1451 -279 1417.5 -279.5Q1384 -280 1350 -280L1143 -279Q1079 -279 1023.5 -253.5Q968 -228 926.5 -185.0Q885 -142 861.0 -85.0Q837 -28 837 35Q837 41 836.5 49.5Q836 58 837.5 66.0Q839 74 843.0 79.5Q847 85 857 85H1006Q1061 85 1113.0 69.0Q1165 53 1209.0 23.0Q1253 -7 1287.0 -49.0Q1321 -91 1342 -142V449H1485Z" style="fill:#44911b;stroke:none" transform="scale(1,-1) translate(0,-256)" /></svg>