<?xml version="1.0" encoding="utf-8" ?>
<svg baseProfile="full" height="256" version="1.1" width="256" xmlns="http://www.w3.org/2000/svg" xmlns:ev="http://www.w3.org/2001/xml-events" xmlns:xlink="http://www.w3.org/1999/xlink"><defs /><path d="M1774 1130 1716 1072 1797 992 1818 1013Q1827 969 1827 925Q1827 910 1826.0 894.5Q1825 879 1823 864L1797 891L1716 810L1785 742Q1756 683 1711.0 635.0Q1666 587 1609 555L1535 629L1455 549L1492 512Q1450 503 1406 503Q1383 503 1361.0 505.5Q1339 508 1317 513L1354 549L1273 629L1201 557Q1159 580 1124.5 611.0Q1090 642 1063 680L1143 600L1222 680L1143 760L1063 680Q1052 695 1042.5 711.0Q1033 727 1025 744L1092 811L1012 891L989 868Q987 882 986.0 896.5Q985 911 985 925Q985 969 994 1011L1012 993L1091 1071L1036 1126Q1045 1142 1055.0 1157.5Q1065 1173 1076 1187L1141 1122L1222 1203L1159 1266Q1191 1289 1222 1304L1273 1253L1353 1334L1346 1342Q1361 1344 1376.0 1345.0Q1391 1346 1406 1346Q1420 1346 1434.5 1345.0Q1449 1344 1463 1342L1455 1334L1535 1254L1586 1305Q1603 1297 1619.0 1288.0Q1635 1279 1650 1268L1586 1203L1665 1123L1733 1190Q1745 1176 1755.0 1161.0Q1765 1146 1774 1130ZM1746 680 1666 760 1586 680 1666 600ZM1063 942 1143 862 1222 941 1142 1021ZM1192 1071 1272 992 1353 1072 1273 1152ZM1324 1203 1404 1123 1484 1203 1404 1283ZM1454 1072 1534 992 1615 1072 1535 1152ZM1323 941 1403 861 1484 941 1404 1021ZM1193 811 1273 731 1353 810 1272 890ZM1746 941 1665 1022 1585 941 1666 861ZM1615 810 1534 891 1454 810 1535 730ZM1484 679 1403 760 1324 680 1404 600Z" style="fill:#6d4534;stroke:none" transform="scale(1,-1) translate(0,-256)" /></svg>