<?xml version="1.0" encoding="utf-8" ?>
<svg baseProfile="full" height="256" version="1.1" width="256" xmlns="http://www.w3.org/2000/svg" xmlns:ev="http://www.w3.org/2001/xml-events" xmlns:xlink="http://www.w3.org/1999/xlink"><defs /><path d="M1615 687Q1615 653 1627 622Q1649 562 1649 495Q1649 489 1648.5 483.0Q1648 477 1648 471H997Q1018 528 1052.0 580.5Q1086 633 1131.0 676.0Q1176 719 1230.5 748.5Q1285 778 1346 788Q1387 795 1419.0 815.0Q1451 835 1472 871L1988 1749Q2001 1771 2022.5 1783.5Q2044 1796 2070 1796Q2111 1796 2139.0 1768.0Q2167 1740 2167 1700Q2167 1673 2153 1650L1638 773Q1615 733 1615 687Z" style="fill:#d3d3d3;stroke:none" transform="scale(1,-1) translate(0,-256)" /></svg>