<?xml version="1.0" encoding="utf-8" ?>
<svg baseProfile="full" height="256" version="1.1" width="256" xmlns="http://www.w3.org/2000/svg" xmlns:ev="http://www.w3.org/2001/xml-events" xmlns:xlink="http://www.w3.org/1999/xlink"><defs /><path d="M1586 -218H1225Q1121 -218 1025.0 -191.0Q929 -164 845.0 -115.0Q761 -66 692.5 2.5Q624 71 575.0 155.0Q526 239 499.0 335.0Q472 431 472 535V887H2339V535Q2339 431 2312.0 335.0Q2285 239 2236.0 155.0Q2187 71 2118.5 2.5Q2050 -66 1966.0 -115.0Q1882 -164 1786.0 -191.0Q1690 -218 1586 -218Z" style="fill:#00a6ed;stroke:none" transform="scale(1,-1) translate(0,-256)" /></svg>