<?xml version="1.0" encoding="utf-8" ?>
<svg baseProfile="full" height="256" version="1.1" width="256" xmlns="http://www.w3.org/2000/svg" xmlns:ev="http://www.w3.org/2001/xml-events" xmlns:xlink="http://www.w3.org/1999/xlink"><defs /><path d="M1827 1303Q1912 1303 1986.0 1269.5Q2060 1236 2115.0 1179.0Q2170 1122 2201.0 1046.5Q2232 971 2232 887Q2232 803 2201.0 727.5Q2170 652 2115.0 595.0Q2060 538 1986.0 504.5Q1912 471 1827 471H1647L1323 604L999 471H991Q905 471 831.5 504.5Q758 538 703.0 595.0Q648 652 617.0 727.5Q586 803 586 887Q586 971 617.0 1046.5Q648 1122 703.0 1179.0Q758 1236 831.5 1269.5Q905 1303 991 1303Z" style="fill:#0074ba;stroke:none" transform="scale(1,-1) translate(0,-256)" /></svg>