<?xml version="1.0" encoding="utf-8" ?>
<svg baseProfile="full" height="256" version="1.1" width="256" xmlns="http://www.w3.org/2000/svg" xmlns:ev="http://www.w3.org/2001/xml-events" xmlns:xlink="http://www.w3.org/1999/xlink"><defs /><path d="M1805 1421Q1916 1421 2013.0 1379.0Q2110 1337 2182.5 1264.5Q2255 1192 2297.0 1095.0Q2339 998 2339 887Q2339 776 2297.0 679.0Q2255 582 2182.5 509.5Q2110 437 2013.0 395.0Q1916 353 1805 353H1006Q895 353 798.0 395.0Q701 437 628.5 509.5Q556 582 514.0 679.0Q472 776 472 887Q472 998 514.0 1095.0Q556 1192 628.5 1264.5Q701 1337 798.0 1379.0Q895 1421 1006 1421H1805Z" style="fill:#26eafc;stroke:none" transform="scale(1,-1) translate(0,-256)" /></svg>