<?xml version="1.0" encoding="utf-8" ?>
<svg baseProfile="full" height="256" version="1.1" width="256" xmlns="http://www.w3.org/2000/svg" xmlns:ev="http://www.w3.org/2001/xml-events" xmlns:xlink="http://www.w3.org/1999/xlink"><defs /><path d="M1909 1294Q1909 1264 1897.5 1238.0Q1886 1212 1866.5 1192.5Q1847 1173 1821.0 1161.5Q1795 1150 1765 1150Q1735 1150 1709.0 1161.5Q1683 1173 1663.5 1192.5Q1644 1212 1633.0 1238.0Q1622 1264 1622 1294Q1622 1324 1633.0 1350.0Q1644 1376 1663.5 1395.5Q1683 1415 1709.0 1426.5Q1735 1438 1765 1438Q1795 1438 1821.0 1426.5Q1847 1415 1866.5 1395.5Q1886 1376 1897.5 1350.0Q1909 1324 1909 1294ZM1190 216Q1131 216 1078.5 238.5Q1026 261 987.0 300.0Q948 339 925.5 391.5Q903 444 903 503Q903 550 917.5 594.0Q932 638 959.0 674.0Q986 710 1023.5 737.0Q1061 764 1106 778Q1125 784 1142.5 786.5Q1160 789 1180 791Q1191 793 1195 800L1253 907Q1255 913 1255 915Q1255 925 1247.0 929.0Q1239 933 1228.5 934.5Q1218 936 1207.0 935.5Q1196 935 1190 935Q1101 935 1022.5 901.0Q944 867 885.5 808.5Q827 750 793.0 671.0Q759 592 759 503Q759 414 793.0 335.5Q827 257 885.5 198.5Q944 140 1022.5 106.0Q1101 72 1190 72Q1275 72 1353.0 104.5Q1431 137 1490.5 193.5Q1550 250 1585.5 326.0Q1621 402 1621 489Q1621 503 1607 506L1500 528Q1487 530 1482.5 521.5Q1478 513 1478 503Q1478 444 1455.0 391.5Q1432 339 1393.0 300.0Q1354 261 1301.5 238.5Q1249 216 1190 216ZM1397 1097Q1416 1097 1429.5 1092.5Q1443 1088 1454.0 1080.5Q1465 1073 1475.5 1062.5Q1486 1052 1498 1040L1341 804Q1323 777 1323 745Q1323 706 1348.0 675.5Q1373 645 1411 638L1752 576Q1762 574 1768.5 566.5Q1775 559 1780 551Q1797 525 1808.0 486.5Q1819 448 1825.0 406.0Q1831 364 1833.5 323.0Q1836 282 1837 251Q1838 228 1846.5 208.5Q1855 189 1869.5 175.0Q1884 161 1903.5 152.5Q1923 144 1946 144H2017Q2047 144 2068.0 165.0Q2089 186 2089 216Q2089 246 2068.0 267.0Q2047 288 2017 288H1980Q1979 322 1975.0 365.0Q1971 408 1963.0 453.5Q1955 499 1940.5 543.0Q1926 587 1904.0 623.5Q1882 660 1851.0 685.0Q1820 710 1778 718L1490 770L1632 983Q1650 1010 1650 1043Q1650 1066 1635.5 1092.5Q1621 1119 1599.5 1143.5Q1578 1168 1553.0 1187.5Q1528 1207 1508 1216Q1453 1241 1397 1241Q1353 1241 1310.5 1230.0Q1268 1219 1229.0 1198.5Q1190 1178 1156.5 1149.5Q1123 1121 1097 1086V1085Q1083 1066 1083 1042Q1083 1013 1104.0 992.0Q1125 971 1154 971Q1177 971 1194.0 984.5Q1211 998 1228.5 1016.0Q1246 1034 1267.0 1052.5Q1288 1071 1319 1081Q1338 1087 1357.5 1092.0Q1377 1097 1397 1097Z" style="fill:#ffffff;stroke:none" transform="scale(1,-1) translate(0,-256)" /></svg>