<?xml version="1.0" encoding="utf-8" ?>
<svg baseProfile="full" height="256" version="1.1" width="256" xmlns="http://www.w3.org/2000/svg" xmlns:ev="http://www.w3.org/2001/xml-events" xmlns:xlink="http://www.w3.org/1999/xlink"><defs /><path d="M2011 825Q2023 853 2026.5 892.5Q2030 932 2033.0 975.0Q2036 1018 2041.5 1060.5Q2047 1103 2063.0 1136.5Q2079 1170 2109.5 1191.0Q2140 1212 2193 1212Q2224 1212 2253.0 1198.0Q2282 1184 2304.5 1160.5Q2327 1137 2340.0 1107.0Q2353 1077 2353 1046V1041Q2348 973 2340.5 905.5Q2333 838 2333 770Q2333 685 2349.0 605.0Q2365 525 2382 444Q2393 396 2402.5 346.5Q2412 297 2412 248Q2412 164 2389.5 89.5Q2367 15 2324.0 -48.0Q2281 -111 2220.0 -160.0Q2159 -209 2083 -242Q2035 -263 1983.0 -275.0Q1931 -287 1878 -287Q1828 -287 1770.0 -273.5Q1712 -260 1655.5 -236.5Q1599 -213 1547.5 -182.5Q1496 -152 1459 -118L1129 183Q1111 199 1087.5 221.0Q1064 243 1039.0 268.0Q1014 293 990.0 321.0Q966 349 946.5 377.0Q927 405 915.5 433.0Q904 461 904 486Q904 517 918.0 543.0Q932 569 954.5 588.0Q977 607 1005.5 618.0Q1034 629 1063 629Q1082 629 1095 625Q1091 629 1080.0 645.5Q1069 662 1056.5 681.5Q1044 701 1033.5 718.5Q1023 736 1020 742Q1009 764 1002.0 788.5Q995 813 995 838Q995 870 1006.0 896.5Q1017 923 1037.0 942.0Q1057 961 1083.5 971.5Q1110 982 1142 982Q1174 982 1206.5 967.0Q1239 952 1259 926Q1248 945 1232.0 980.0Q1216 1015 1201.0 1053.5Q1186 1092 1175.0 1127.0Q1164 1162 1164 1180Q1164 1211 1176.0 1238.0Q1188 1265 1208.0 1284.5Q1228 1304 1255.5 1315.5Q1283 1327 1313 1327Q1332 1327 1351.5 1322.0Q1371 1317 1388.5 1308.0Q1406 1299 1420.0 1285.5Q1434 1272 1443 1254Q1467 1204 1489.0 1154.0Q1511 1104 1534 1053Q1526 1074 1514.0 1103.0Q1502 1132 1491.0 1163.0Q1480 1194 1472.5 1224.0Q1465 1254 1465 1275Q1465 1308 1475.5 1335.5Q1486 1363 1505.0 1383.5Q1524 1404 1551.0 1415.0Q1578 1426 1611 1426Q1696 1426 1735 1350L1736 1348Q1752 1313 1772.0 1268.5Q1792 1224 1814.5 1175.0Q1837 1126 1861.5 1076.0Q1886 1026 1911.0 979.5Q1936 933 1961.5 893.0Q1987 853 2011 825Z" style="fill:#ffc83d;stroke:none" transform="scale(1,-1) translate(0,-256)" /></svg>