<?xml version="1.0" encoding="utf-8" ?>
<svg baseProfile="full" height="256" version="1.1" width="256" xmlns="http://www.w3.org/2000/svg" xmlns:ev="http://www.w3.org/2001/xml-events" xmlns:xlink="http://www.w3.org/1999/xlink"><defs /><path d="M1600 1186Q1600 1153 1587.5 1124.5Q1575 1096 1553.5 1074.5Q1532 1053 1503.5 1040.5Q1475 1028 1442 1028Q1409 1028 1380.5 1040.5Q1352 1053 1330.0 1074.0Q1308 1095 1295.5 1124.0Q1283 1153 1283 1186Q1283 1219 1295.5 1248.0Q1308 1277 1329.5 1298.5Q1351 1320 1380.0 1332.5Q1409 1345 1442 1345Q1475 1345 1504.0 1332.5Q1533 1320 1554.0 1298.0Q1575 1276 1587.5 1247.5Q1600 1219 1600 1186Z" style="fill:#f9c23c;stroke:none" transform="scale(1,-1) translate(0,-256)" /></svg>