<?xml version="1.0" encoding="utf-8" ?>
<svg baseProfile="full" height="256" version="1.1" width="256" xmlns="http://www.w3.org/2000/svg" xmlns:ev="http://www.w3.org/2001/xml-events" xmlns:xlink="http://www.w3.org/1999/xlink"><defs /><path d="M1626 1137Q1636 1124 1636 1105Q1636 1082 1620.5 1067.0Q1605 1052 1582 1052H1576Q1578 1028 1563.5 1010.0Q1549 992 1523 992Q1504 992 1491 1002Q1485 988 1471.5 979.5Q1458 971 1442 971Q1426 971 1412.5 979.5Q1399 988 1393 1002Q1380 992 1361 992Q1338 992 1322.5 1008.0Q1307 1024 1307 1047V1052Q1283 1050 1265.5 1065.0Q1248 1080 1248 1105Q1248 1124 1258 1137Q1244 1143 1235.0 1156.5Q1226 1170 1226 1186Q1226 1202 1235.0 1215.5Q1244 1229 1258 1235Q1248 1248 1248 1267Q1248 1290 1263.5 1305.5Q1279 1321 1302 1321H1307Q1305 1345 1321.0 1362.5Q1337 1380 1361 1380Q1380 1380 1393 1370Q1399 1384 1412.5 1393.0Q1426 1402 1442 1402Q1458 1402 1471.5 1393.0Q1485 1384 1491 1370Q1504 1380 1523 1380Q1546 1380 1561.0 1364.5Q1576 1349 1576 1326V1321Q1600 1323 1618.0 1307.5Q1636 1292 1636 1267Q1636 1248 1626 1235Q1640 1229 1649.0 1215.5Q1658 1202 1658 1186Q1658 1170 1649.0 1156.5Q1640 1143 1626 1137Z" style="fill:#ff822d;stroke:none" transform="scale(1,-1) translate(0,-256)" /></svg>