<?xml version="1.0" encoding="utf-8" ?>
<svg baseProfile="full" height="256" version="1.1" width="256" xmlns="http://www.w3.org/2000/svg" xmlns:ev="http://www.w3.org/2001/xml-events" xmlns:xlink="http://www.w3.org/1999/xlink"><defs /><path d="M2029 1142Q2059 1180 2103.5 1201.0Q2148 1222 2197 1222V791Q2157 791 2119.5 805.5Q2082 820 2052 846Q2049 804 2031.0 767.5Q2013 731 1983.5 704.5Q1954 678 1916.5 662.5Q1879 647 1837 647Q1792 647 1753.0 664.0Q1714 681 1685.0 710.5Q1656 740 1639.0 779.0Q1622 818 1622 863Q1622 908 1639.0 947.0Q1656 986 1685.0 1015.0Q1714 1044 1753.0 1061.0Q1792 1078 1837 1078H1856Q1876 1112 1909.0 1131.0Q1942 1150 1981 1150Q2005 1150 2029 1142ZM615 719V1150Q666 1150 711.5 1127.5Q757 1105 788 1064Q807 1078 831 1078Q861 1078 882.0 1057.0Q903 1036 903 1006Q933 1006 959.0 995.0Q985 984 1004.5 964.5Q1024 945 1035.5 919.0Q1047 893 1047 863Q1047 833 1035.5 807.0Q1024 781 1004.5 761.5Q985 742 959.0 730.5Q933 719 903 719Z" style="fill:#ffffff;stroke:none" transform="scale(1,-1) translate(0,-256)" /></svg>