<?xml version="1.0" encoding="utf-8" ?>
<svg baseProfile="full" height="256" version="1.1" width="256" xmlns="http://www.w3.org/2000/svg" xmlns:ev="http://www.w3.org/2001/xml-events" xmlns:xlink="http://www.w3.org/1999/xlink"><defs /><path d="M811 53Q811 150 858.0 227.0Q905 304 988 352Q1125 431 1235.5 512.0Q1346 593 1439.0 686.0Q1532 779 1613.0 889.5Q1694 1000 1773 1137Q1821 1220 1898.0 1267.0Q1975 1314 2072 1314Q2143 1314 2205.5 1286.5Q2268 1259 2315.0 1211.5Q2362 1164 2389.0 1101.0Q2416 1038 2416 967Q2416 923 2405.0 883.0Q2394 843 2374 804Q2290 643 2175.0 490.0Q2060 337 1923.5 201.0Q1787 65 1634.0 -50.0Q1481 -165 1320 -249Q1281 -269 1241.0 -280.0Q1201 -291 1157 -291Q1086 -291 1023.5 -263.5Q961 -236 913.5 -189.5Q866 -143 838.5 -80.5Q811 -18 811 53Z" style="fill:#f3ad61;stroke:none" transform="scale(1,-1) translate(0,-256)" /></svg>