<?xml version="1.0" encoding="utf-8" ?>
<svg baseProfile="full" height="256" version="1.1" width="256" xmlns="http://www.w3.org/2000/svg" xmlns:ev="http://www.w3.org/2001/xml-events" xmlns:xlink="http://www.w3.org/1999/xlink"><defs /><path d="M1756 1354Q1756 1334 1750.0 1325.0Q1744 1316 1737.0 1307.0Q1730 1298 1724.0 1283.0Q1718 1268 1718 1237Q1718 1127 1660.0 1069.0Q1602 1011 1492 1011Q1464 1011 1447.0 1006.5Q1430 1002 1420.5 991.0Q1411 980 1408.0 962.0Q1405 944 1405 918Q1405 809 1345.0 753.5Q1285 698 1179 698Q1159 698 1142.5 696.5Q1126 695 1111 680Q1095 663 1094.0 646.5Q1093 630 1093 609Q1093 500 1033.5 443.0Q974 386 866 386Q834 386 819.0 380.0Q804 374 795.5 367.0Q787 360 778.0 354.0Q769 348 749 348Q720 348 700.0 368.0Q680 388 680 417Q680 446 700 466Q737 503 777.0 514.0Q817 525 867 525Q887 525 904.0 526.5Q921 528 935 543Q950 558 951.5 574.5Q953 591 953 611Q953 662 964.0 701.0Q975 740 1012 778Q1044 810 1081.0 823.5Q1118 837 1162 837H1180Q1207 837 1224.0 842.0Q1241 847 1250.5 858.0Q1260 869 1263.0 886.5Q1266 904 1266 930Q1266 1039 1326.0 1094.5Q1386 1150 1492 1150Q1523 1150 1540.5 1156.0Q1558 1162 1566.5 1174.5Q1575 1187 1577.0 1207.0Q1579 1227 1579 1254Q1579 1276 1585.5 1305.5Q1592 1335 1605.5 1361.5Q1619 1388 1639.0 1406.0Q1659 1424 1687 1424Q1716 1424 1736.0 1403.5Q1756 1383 1756 1354Z" style="fill:#fcd53f;stroke:none" transform="scale(1,-1) translate(0,-256)" /></svg>