<?xml version="1.0" encoding="utf-8" ?>
<svg baseProfile="full" height="256" version="1.1" width="256" xmlns="http://www.w3.org/2000/svg" xmlns:ev="http://www.w3.org/2001/xml-events" xmlns:xlink="http://www.w3.org/1999/xlink"><defs /><path d="M399 508Q399 602 444.5 675.5Q490 749 571 796Q701 871 808.0 950.0Q915 1029 1005.5 1120.0Q1096 1211 1175.0 1317.5Q1254 1424 1329 1554Q1375 1634 1449.0 1679.5Q1523 1725 1617 1725Q1685 1725 1745.5 1698.5Q1806 1672 1851.0 1626.0Q1896 1580 1922.5 1519.5Q1949 1459 1949 1391Q1949 1348 1939.0 1309.0Q1929 1270 1909 1232Q1828 1077 1717.0 929.5Q1606 782 1474.0 650.0Q1342 518 1194.0 407.0Q1046 296 892 215Q817 175 735 175Q667 175 606.0 201.5Q545 228 499.0 273.0Q453 318 426.0 378.5Q399 439 399 508Z" style="fill:#d3883e;stroke:none" transform="scale(1,-1) translate(0,-256)" /></svg>