<?xml version="1.0" encoding="utf-8" ?>
<svg baseProfile="full" height="256" version="1.1" width="256" xmlns="http://www.w3.org/2000/svg" xmlns:ev="http://www.w3.org/2001/xml-events" xmlns:xlink="http://www.w3.org/1999/xlink"><defs /><path d="M455 227Q455 345 510.0 440.5Q565 536 664 599Q803 688 917.0 776.5Q1031 865 1129.5 963.5Q1228 1062 1316.5 1175.5Q1405 1289 1494 1428Q1557 1527 1652.0 1582.5Q1747 1638 1865 1638Q1955 1638 2034.0 1603.5Q2113 1569 2172.0 1509.5Q2231 1450 2265.0 1371.0Q2299 1292 2299 1203Q2299 1142 2283.0 1087.0Q2267 1032 2236 979Q2141 816 2014.5 656.0Q1888 496 1742.0 349.5Q1596 203 1436.0 77.0Q1276 -49 1113 -144Q1061 -174 1005.0 -190.0Q949 -206 889 -206Q799 -206 720.0 -172.0Q641 -138 582.0 -79.0Q523 -20 489.0 58.5Q455 137 455 227Z" style="fill:#ff6723;stroke:none" transform="scale(1,-1) translate(0,-256)" /></svg>