<?xml version="1.0" encoding="utf-8" ?>
<svg baseProfile="full" height="256" version="1.1" width="256" xmlns="http://www.w3.org/2000/svg" xmlns:ev="http://www.w3.org/2001/xml-events" xmlns:xlink="http://www.w3.org/1999/xlink"><defs /><path d="M1908 687Q1908 657 1886.5 636.0Q1865 615 1835 615Q1806 615 1785 636Q1779 642 1761.5 660.5Q1744 679 1724.5 698.5Q1705 718 1688.0 733.5Q1671 749 1664 749Q1653 749 1643 739L1097 194Q1076 173 1046 173Q1017 173 996 194L882 308Q861 329 861 358Q861 388 882 409L1427 955Q1437 965 1437 976Q1437 983 1422.0 1000.0Q1407 1017 1387.5 1036.5Q1368 1056 1349.5 1073.5Q1331 1091 1325 1097Q1303 1119 1303 1148Q1303 1177 1324.0 1198.5Q1345 1220 1375 1220L1838 1222Q1868 1222 1889.0 1201.0Q1910 1180 1910 1150Z" style="fill:#ffffff;stroke:none" transform="scale(1,-1) translate(0,-256)" /></svg>