<?xml version="1.0" encoding="utf-8" ?>
<svg baseProfile="full" height="256" version="1.1" width="256" xmlns="http://www.w3.org/2000/svg" xmlns:ev="http://www.w3.org/2001/xml-events" xmlns:xlink="http://www.w3.org/1999/xlink"><defs /><path d="M976 903Q963 889 949.5 876.0Q936 863 922 849Q930 892 941.5 929.0Q953 966 969.5 999.5Q986 1033 1008.5 1064.0Q1031 1095 1062 1127Q1045 1095 1029.0 1063.5Q1013 1032 1001 999Q993 976 988.5 951.5Q984 927 976 903ZM435 971Q432 978 426.0 984.5Q420 991 412 991Q404 991 399.5 983.5Q395 976 393 969Q394 980 397.0 992.5Q400 1005 405.5 1016.0Q411 1027 419.5 1035.0Q428 1043 441 1046Q433 1008 435 971ZM479 778Q462 796 445.5 814.0Q429 832 412 850Q412 845 411.5 839.0Q411 833 411 828Q411 803 419.5 786.5Q428 770 439.0 756.0Q450 742 459.5 728.0Q469 714 472 693Q472 714 474.0 735.5Q476 757 479 778ZM402 288V373Q420 386 437.5 400.5Q455 415 472 429V349Q472 355 470.0 362.0Q468 369 460 369Q450 369 439.5 359.5Q429 350 421.0 337.5Q413 325 407.5 311.0Q402 297 402 288ZM722 555Q708 566 695.0 578.0Q682 590 668 601Q687 619 705.5 637.0Q724 655 743 674L767 653Q760 647 751.0 637.0Q742 627 734.0 615.5Q726 604 720.5 592.5Q715 581 715 571Q715 561 722 555ZM1002 469Q1006 466 1006.5 462.0Q1007 458 1007 453Q1007 445 1003.5 431.5Q1000 418 993.5 405.0Q987 392 978.0 383.0Q969 374 959 374Q954 374 948 378L1012 333Q1025 357 1031.5 384.0Q1038 411 1042 438Q1034 447 1023.0 454.0Q1012 461 1002 469ZM2062 1127Q2031 1095 2008.5 1064.0Q1986 1033 1969.5 999.5Q1953 966 1941.5 929.0Q1930 892 1922 849Q1936 863 1949.5 876.0Q1963 889 1976 903Q1984 927 1988.5 951.5Q1993 976 2001 999Q2013 1032 2029.0 1063.5Q2045 1095 2062 1127ZM1435 971Q1432 978 1426.5 984.5Q1421 991 1413 991Q1404 991 1399.5 984.0Q1395 977 1393 969Q1394 980 1397.0 992.5Q1400 1005 1405.5 1016.0Q1411 1027 1419.5 1035.0Q1428 1043 1441 1046Q1433 1008 1435 971ZM1949 378Q1955 374 1960 374Q1970 374 1979.0 383.5Q1988 393 1994.5 406.0Q2001 419 2004.5 432.5Q2008 446 2008 454Q2008 464 2003 469Q2013 461 2023.5 454.0Q2034 447 2042 438Q2038 411 2031.5 384.0Q2025 357 2012 333ZM1412 850Q1429 832 1445.5 814.0Q1462 796 1479 778Q1476 757 1474.0 735.5Q1472 714 1472 693Q1469 714 1459.5 728.5Q1450 743 1439.5 757.0Q1429 771 1420.5 788.5Q1412 806 1412 832ZM1403 373V288Q1403 297 1408.0 310.5Q1413 324 1421.5 337.0Q1430 350 1440.0 359.5Q1450 369 1460 369Q1468 369 1470.0 362.0Q1472 355 1472 349V429Q1455 415 1437.5 401.0Q1420 387 1403 373ZM1668 601Q1682 590 1695.0 578.0Q1708 566 1722 555Q1715 561 1715 571Q1715 581 1720.5 592.5Q1726 604 1734.0 615.5Q1742 627 1751.0 637.0Q1760 647 1767 653L1743 674Q1724 655 1706.0 636.5Q1688 618 1668 601Z" style="fill:#d73b9a;stroke:none" transform="scale(1,-1) translate(0,-256)" /></svg>