<?xml version="1.0" encoding="utf-8" ?>
<svg baseProfile="full" height="256" version="1.1" width="256" xmlns="http://www.w3.org/2000/svg" xmlns:ev="http://www.w3.org/2001/xml-events" xmlns:xlink="http://www.w3.org/1999/xlink"><defs /><path d="M984 1644Q1069 1644 1146.5 1609.5Q1224 1575 1283.0 1516.5Q1342 1458 1377.0 1380.5Q1412 1303 1412 1218Q1412 1142 1389.5 1071.5Q1367 1001 1340.0 931.0Q1313 861 1290.5 790.0Q1268 719 1268 643Q1268 565 1279.5 489.0Q1291 413 1307 337Q1315 296 1323.5 255.0Q1332 214 1332 172Q1332 129 1324.0 87.0Q1316 45 1302 4Q1278 -64 1240.5 -118.0Q1203 -172 1153.0 -210.5Q1103 -249 1041.0 -269.5Q979 -290 906 -290H614Q509 -290 455.0 -232.5Q401 -175 401 -72V373Q397 369 390 369Q385 369 382.5 374.5Q380 380 379.0 387.0Q378 394 378.0 401.0Q378 408 378 410Q378 422 378.0 432.5Q378 443 380.0 452.5Q382 462 386.5 471.0Q391 480 401 488V540Q401 618 402.5 695.0Q404 772 412 850Q400 868 394.5 888.5Q389 909 389 930Q389 943 391.0 961.0Q393 979 398.5 996.5Q404 1014 414.0 1027.5Q424 1041 440 1044Q455 1116 477.0 1188.5Q499 1261 531.5 1328.0Q564 1395 606.5 1452.5Q649 1510 704.5 1552.5Q760 1595 829.5 1619.5Q899 1644 984 1644ZM434 1010Q432 1002 432 998Q432 1002 434 1010ZM1984 1644Q2069 1644 2146.5 1609.5Q2224 1575 2283.0 1516.5Q2342 1458 2377.0 1380.5Q2412 1303 2412 1218Q2412 1142 2389.5 1071.5Q2367 1001 2340.0 931.0Q2313 861 2290.5 790.0Q2268 719 2268 643Q2268 565 2279.5 489.0Q2291 413 2307 337Q2315 296 2323.5 255.0Q2332 214 2332 172Q2332 129 2324.0 87.0Q2316 45 2302 4Q2278 -64 2240.5 -118.0Q2203 -172 2153.0 -210.5Q2103 -249 2041.0 -269.5Q1979 -290 1906 -290H1614Q1509 -290 1455.0 -232.5Q1401 -175 1401 -72V373Q1397 369 1390 369Q1385 369 1382.5 374.5Q1380 380 1379.0 387.0Q1378 394 1378.0 401.0Q1378 408 1378 410Q1378 422 1378.0 432.5Q1378 443 1380.0 452.5Q1382 462 1386.5 471.0Q1391 480 1401 488V540Q1401 618 1402.5 695.0Q1404 772 1412 850Q1400 868 1394.5 888.5Q1389 909 1389 930Q1389 943 1391.0 961.5Q1393 980 1399.0 997.0Q1405 1014 1415.0 1027.5Q1425 1041 1441 1044Q1455 1116 1477.5 1188.5Q1500 1261 1532.0 1328.0Q1564 1395 1606.5 1452.5Q1649 1510 1704.5 1552.5Q1760 1595 1829.5 1619.5Q1899 1644 1984 1644ZM1434 1010Q1433 1007 1433.0 1004.0Q1433 1001 1432 998Q1432 1001 1433.0 1004.0Q1434 1007 1434 1010Z" style="fill:#ff6dc6;stroke:none" transform="scale(1,-1) translate(0,-256)" /></svg>