<?xml version="1.0" encoding="utf-8" ?>
<svg baseProfile="full" height="256" version="1.1" width="256" xmlns="http://www.w3.org/2000/svg" xmlns:ev="http://www.w3.org/2001/xml-events" xmlns:xlink="http://www.w3.org/1999/xlink"><defs /><path d="M1012 334Q993 298 964.5 275.5Q936 253 902.0 240.0Q868 227 830.5 222.5Q793 218 756 218H616Q552 218 512.0 256.0Q472 294 472 359V429Q523 471 571.5 513.5Q620 556 668 601Q750 529 835.5 461.5Q921 394 1012 334ZM1043 438Q966 495 891.5 553.5Q817 612 743 673Q800 732 858.5 788.0Q917 844 975 902Q974 893 973.5 883.5Q973 874 973 865Q973 818 984.5 773.5Q996 729 1009.5 684.5Q1023 640 1034.5 595.5Q1046 551 1046 503Q1046 471 1043 438ZM665 739Q619 779 575.0 819.5Q531 860 488 903Q495 955 507.0 1020.5Q519 1086 538.5 1153.5Q558 1221 586.0 1285.0Q614 1349 654.0 1399.0Q694 1449 747.0 1479.5Q800 1510 868 1510Q914 1510 959.0 1495.0Q1004 1480 1038.5 1452.5Q1073 1425 1094.5 1385.0Q1116 1345 1116 1295Q1116 1277 1111.5 1253.5Q1107 1230 1099.0 1207.0Q1091 1184 1081.0 1162.5Q1071 1141 1061 1126Q1056 1119 1049.5 1113.0Q1043 1107 1037 1101Q945 1009 852.5 918.5Q760 828 665 739ZM476 781Q474 748 473.0 714.5Q472 681 472 648V556L592 670Q563 697 534.0 725.0Q505 753 476 781ZM2013 334Q1994 298 1965.5 275.5Q1937 253 1903.0 240.0Q1869 227 1831.0 222.5Q1793 218 1756 218H1616Q1552 218 1512.0 256.0Q1472 294 1472 359V429Q1523 471 1571.5 513.5Q1620 556 1668 601Q1750 529 1835.5 461.5Q1921 394 2013 334ZM2043 438Q1966 495 1891.5 553.5Q1817 612 1743 673Q1801 731 1859.0 787.5Q1917 844 1975 902Q1974 893 1973.5 883.5Q1973 874 1973 865Q1973 817 1984.5 772.5Q1996 728 2009.5 684.0Q2023 640 2034.5 595.5Q2046 551 2046 503Q2046 471 2043 438ZM1665 739Q1619 778 1574.5 818.0Q1530 858 1489 903Q1495 955 1507.0 1020.5Q1519 1086 1538.5 1153.5Q1558 1221 1586.0 1285.0Q1614 1349 1654.0 1399.0Q1694 1449 1747.0 1479.5Q1800 1510 1868 1510Q1914 1510 1959.0 1495.0Q2004 1480 2038.5 1452.5Q2073 1425 2094.5 1385.0Q2116 1345 2116 1295Q2116 1277 2111.5 1253.5Q2107 1230 2099.0 1207.0Q2091 1184 2081.0 1162.5Q2071 1141 2061 1126Q2056 1119 2049.5 1113.0Q2043 1107 2037 1101Q1945 1009 1852.5 918.5Q1760 828 1665 739ZM1477 781Q1474 748 1473.0 714.5Q1472 681 1472 648V556L1592 670Q1563 697 1534.5 724.5Q1506 752 1477 781Z" style="fill:#bb1d80;stroke:none" transform="scale(1,-1) translate(0,-256)" /></svg>