<?xml version="1.0" encoding="utf-8" ?>
<svg baseProfile="full" height="256" version="1.1" width="256" xmlns="http://www.w3.org/2000/svg" xmlns:ev="http://www.w3.org/2001/xml-events" xmlns:xlink="http://www.w3.org/1999/xlink"><defs /><path d="M831 863H867V791H508V863H543V1510H508V1581H867V1510H831ZM1693 863H1729V791H1370V863H1406V1510H1370V1581H1729V1510H1693ZM1262 863H1298V791H939V863H975V1510H939V1581H1298V1510H1262ZM1478 1222H1622V1510H1478ZM615 1222H759V1510H615ZM759 1150H615V863H759ZM1622 1150H1478V863H1622ZM1047 1222H1190V1510H1047ZM1190 1150H1047V863H1190Z" style="fill:#b4acbc;stroke:none" transform="scale(1,-1) translate(0,-256)" /></svg>