<?xml version="1.0" encoding="utf-8" ?>
<svg baseProfile="full" height="256" version="1.1" width="256" xmlns="http://www.w3.org/2000/svg" xmlns:ev="http://www.w3.org/2001/xml-events" xmlns:xlink="http://www.w3.org/1999/xlink"><defs /><path d="M831 -72H867V-144H508V-72H543V575H508V647H867V575H831ZM1693 -72H1729V-144H1370V-72H1406V575H1370V647H1729V575H1693ZM1262 -72H1298V-144H939V-72H975V575H939V647H1298V575H1262ZM1622 216H1478V-72H1622ZM759 216H615V-72H759ZM1478 288H1622V575H1478ZM615 288H759V575H615ZM1190 216H1047V-72H1190ZM1047 288H1190V575H1047Z" style="fill:#007356;stroke:none" transform="scale(1,-1) translate(0,-256)" /></svg>