<?xml version="1.0" encoding="utf-8" ?>
<svg baseProfile="full" height="256" version="1.1" width="256" xmlns="http://www.w3.org/2000/svg" xmlns:ev="http://www.w3.org/2001/xml-events" xmlns:xlink="http://www.w3.org/1999/xlink"><defs /><path d="M1550 1546Q1550 1568 1558.5 1587.5Q1567 1607 1582.0 1621.5Q1597 1636 1616.5 1644.5Q1636 1653 1658 1653H1945Q1967 1653 1986.5 1644.5Q2006 1636 2021.0 1621.5Q2036 1607 2044.5 1587.5Q2053 1568 2053 1546V1510L1885 1486Q1864 1483 1843.5 1478.5Q1823 1474 1801 1474Q1779 1474 1758.5 1478.5Q1738 1483 1717 1486L1550 1510Z" style="fill:#00d26a;stroke:none" transform="scale(1,-1) translate(0,-256)" /></svg>