<?xml version="1.0" encoding="utf-8" ?>
<svg baseProfile="full" height="256" version="1.1" width="256" xmlns="http://www.w3.org/2000/svg" xmlns:ev="http://www.w3.org/2001/xml-events" xmlns:xlink="http://www.w3.org/1999/xlink"><defs /><path d="M400 719Q400 764 417.0 803.0Q434 842 463.0 871.5Q492 901 531.0 918.0Q570 935 615 935H2197Q2242 935 2281.0 918.0Q2320 901 2349.0 871.5Q2378 842 2395.0 803.0Q2412 764 2412 719V-72Q2412 -117 2395.0 -156.0Q2378 -195 2349.0 -224.0Q2320 -253 2281.0 -270.0Q2242 -287 2197 -287H615Q570 -287 531.0 -270.0Q492 -253 463.0 -224.0Q434 -195 417.0 -156.0Q400 -117 400 -72Z" style="fill:#fcd53f;stroke:none" transform="scale(1,-1) translate(0,-256)" /></svg>