<?xml version="1.0" encoding="utf-8" ?>
<svg baseProfile="full" height="256" version="1.1" width="256" xmlns="http://www.w3.org/2000/svg" xmlns:ev="http://www.w3.org/2001/xml-events" xmlns:xlink="http://www.w3.org/1999/xlink"><defs /><path d="M1406 1510Q1376 1510 1350.0 1498.5Q1324 1487 1304.5 1467.5Q1285 1448 1273.5 1422.0Q1262 1396 1262 1366Q1262 1337 1244.0 1315.5Q1226 1294 1195 1294H1011Q996 1294 985.5 1283.5Q975 1273 975 1258V72H903V1258Q903 1280 911.5 1300.0Q920 1320 934.5 1334.5Q949 1349 968.5 1357.5Q988 1366 1011 1366H1190Q1190 1411 1207.0 1450.0Q1224 1489 1253.5 1518.0Q1283 1547 1322.0 1564.0Q1361 1581 1406 1581Q1451 1581 1490.0 1564.0Q1529 1547 1558.5 1518.0Q1588 1489 1605.0 1450.0Q1622 1411 1622 1366H1801Q1823 1366 1843.0 1357.5Q1863 1349 1877.5 1334.5Q1892 1320 1900.5 1300.0Q1909 1280 1909 1258V72H1837V1258Q1837 1273 1826.5 1283.5Q1816 1294 1801 1294H1616Q1585 1294 1567.5 1315.5Q1550 1337 1550 1366Q1550 1396 1538.5 1422.0Q1527 1448 1507.5 1467.5Q1488 1487 1462.0 1498.5Q1436 1510 1406 1510ZM1190 971Q1190 985 1201.0 995.5Q1212 1006 1226 1006H1586Q1600 1006 1611.0 995.5Q1622 985 1622 971Q1622 957 1611.0 946.0Q1600 935 1586 935H1226Q1211 935 1200.5 945.5Q1190 956 1190 971ZM1226 755Q1226 770 1236.5 780.5Q1247 791 1262 791H1550Q1565 791 1575.5 780.5Q1586 770 1586 755Q1586 740 1575.5 729.5Q1565 719 1550 719H1262Q1247 719 1236.5 729.5Q1226 740 1226 755ZM1154 647Q1140 647 1129.0 636.0Q1118 625 1118 611Q1118 597 1129.0 586.0Q1140 575 1154 575H1298Q1313 575 1323.5 585.5Q1334 596 1334 611Q1334 626 1323.5 636.5Q1313 647 1298 647ZM1406 611Q1406 626 1416.5 636.5Q1427 647 1442 647H1658Q1672 647 1682.5 636.0Q1693 625 1693 611Q1693 597 1682.5 586.0Q1672 575 1658 575H1442Q1427 575 1416.5 585.5Q1406 596 1406 611Z" style="fill:#636363;stroke:none" transform="scale(1,-1) translate(0,-256)" /></svg>