<?xml version="1.0" encoding="utf-8" ?>
<svg baseProfile="full" height="256" version="1.1" width="256" xmlns="http://www.w3.org/2000/svg" xmlns:ev="http://www.w3.org/2001/xml-events" xmlns:xlink="http://www.w3.org/1999/xlink"><defs /><path d="M1406 575Q1380 575 1357.0 585.0Q1334 595 1317.0 612.0Q1300 629 1290.0 652.0Q1280 675 1280 701Q1280 727 1290.0 750.0Q1300 773 1317.0 790.0Q1334 807 1357.0 817.0Q1380 827 1406 827Q1432 827 1455.0 817.0Q1478 807 1495.0 790.0Q1512 773 1522.0 750.0Q1532 727 1532 701Q1532 675 1522.0 652.0Q1512 629 1495.0 612.0Q1478 595 1455.0 585.0Q1432 575 1406 575Z" style="fill:#f8312f;stroke:none" transform="scale(1,-1) translate(0,-256)" /></svg>