<?xml version="1.0" encoding="utf-8" ?>
<svg baseProfile="full" height="256" version="1.1" width="256" xmlns="http://www.w3.org/2000/svg" xmlns:ev="http://www.w3.org/2001/xml-events" xmlns:xlink="http://www.w3.org/1999/xlink"><defs /><path d="M2053 503Q2053 366 2000.0 259.0Q1947 152 1857.5 78.5Q1768 5 1651.0 -33.5Q1534 -72 1406 -72Q1320 -72 1239.0 -55.0Q1158 -38 1086.0 -4.5Q1014 29 954.0 78.0Q894 127 850.5 191.0Q807 255 783.0 333.5Q759 412 759 503Q759 540 785.5 566.5Q812 593 849 593Q877 593 901 577V576Q908 574 915.5 568.5Q923 563 929 560Q952 547 976.0 536.5Q1000 526 1025 516Q1116 481 1212.5 465.5Q1309 450 1406 450Q1506 450 1606.0 464.5Q1706 479 1800 516Q1828 527 1854.0 540.0Q1880 553 1904 571Q1918 582 1931.5 587.5Q1945 593 1963 593Q2001 593 2027.0 567.0Q2053 541 2053 503ZM1838 338Q1734 300 1625.0 285.5Q1516 271 1406 271Q1294 271 1185.0 288.5Q1076 306 971 344Q999 281 1046.5 236.5Q1094 192 1152.5 163.5Q1211 135 1276.0 121.5Q1341 108 1406 108Q1470 108 1534.5 121.0Q1599 134 1657.0 162.0Q1715 190 1762.0 233.5Q1809 277 1838 338Z" style="fill:#f70a8d;stroke:none" transform="scale(1,-1) translate(0,-256)" /></svg>