<?xml version="1.0" encoding="utf-8" ?>
<svg baseProfile="full" height="256" version="1.1" width="256" xmlns="http://www.w3.org/2000/svg" xmlns:ev="http://www.w3.org/2001/xml-events" xmlns:xlink="http://www.w3.org/1999/xlink"><defs /><path d="M1406 1797Q1651 1797 1850.0 1720.5Q2049 1644 2190.0 1503.0Q2331 1362 2407.5 1163.0Q2484 964 2484 719Q2484 474 2407.5 275.0Q2331 76 2190.0 -65.0Q2049 -206 1850.0 -282.5Q1651 -359 1406 -359Q1160 -359 961.0 -282.5Q762 -206 621.5 -65.0Q481 76 404.5 275.0Q328 474 328 719Q328 964 404.5 1163.0Q481 1362 621.5 1503.0Q762 1644 961.0 1720.5Q1160 1797 1406 1797Z" style="fill:#f7a7b8;stroke:none" transform="scale(1,-1) translate(0,-256)" /></svg>