<?xml version="1.0" encoding="utf-8" ?>
<svg baseProfile="full" height="256" version="1.1" width="256" xmlns="http://www.w3.org/2000/svg" xmlns:ev="http://www.w3.org/2001/xml-events" xmlns:xlink="http://www.w3.org/1999/xlink"><defs /><path d="M831 1617Q868 1617 901.0 1603.0Q934 1589 958.5 1564.5Q983 1540 997.0 1507.5Q1011 1475 1011 1438Q1011 1400 997.0 1367.5Q983 1335 958.5 1310.5Q934 1286 901.0 1272.0Q868 1258 831 1258Q793 1258 760.5 1272.0Q728 1286 703.5 1310.5Q679 1335 665.0 1367.5Q651 1400 651 1438Q651 1475 665.0 1507.5Q679 1540 703.5 1564.5Q728 1589 761.0 1603.0Q794 1617 831 1617ZM1406 1617Q1443 1617 1476.0 1603.0Q1509 1589 1533.5 1564.5Q1558 1540 1572.0 1507.5Q1586 1475 1586 1438Q1586 1400 1572.0 1367.5Q1558 1335 1533.5 1310.5Q1509 1286 1476.0 1272.0Q1443 1258 1406 1258Q1368 1258 1335.5 1272.0Q1303 1286 1278.5 1310.5Q1254 1335 1240.0 1367.5Q1226 1400 1226 1438Q1226 1475 1240.0 1507.5Q1254 1540 1278.5 1564.5Q1303 1589 1336.0 1603.0Q1369 1617 1406 1617ZM831 1138Q868 1138 901.0 1124.0Q934 1110 958.5 1085.5Q983 1061 997.0 1028.5Q1011 996 1011 959Q1011 921 997.0 888.5Q983 856 958.5 831.5Q934 807 901.0 793.0Q868 779 831 779Q793 779 760.5 793.0Q728 807 703.5 831.5Q679 856 665.0 888.5Q651 921 651 959Q651 996 665.0 1028.5Q679 1061 703.5 1085.5Q728 1110 761.0 1124.0Q794 1138 831 1138ZM831 659Q868 659 901.0 645.0Q934 631 958.5 606.5Q983 582 997.0 549.0Q1011 516 1011 479Q1011 442 997.0 409.5Q983 377 958.5 352.5Q934 328 901.0 314.0Q868 300 831 300Q794 300 761.0 314.0Q728 328 703.5 352.5Q679 377 665.0 409.5Q651 442 651 479Q651 516 665.0 549.0Q679 582 703.5 606.5Q728 631 760.5 645.0Q793 659 831 659ZM1406 659Q1443 659 1476.0 645.0Q1509 631 1533.5 606.5Q1558 582 1572.0 549.0Q1586 516 1586 479Q1586 442 1572.0 409.5Q1558 377 1533.5 352.5Q1509 328 1476.0 314.0Q1443 300 1406 300Q1369 300 1336.0 314.0Q1303 328 1278.5 352.5Q1254 377 1240.0 409.5Q1226 442 1226 479Q1226 516 1240.0 549.0Q1254 582 1278.5 606.5Q1303 631 1335.5 645.0Q1368 659 1406 659ZM1406 1138Q1443 1138 1476.0 1124.0Q1509 1110 1533.5 1085.5Q1558 1061 1572.0 1028.5Q1586 996 1586 959Q1586 921 1572.0 888.5Q1558 856 1533.5 831.5Q1509 807 1476.0 793.0Q1443 779 1406 779Q1368 779 1335.5 793.0Q1303 807 1278.5 831.5Q1254 856 1240.0 888.5Q1226 921 1226 959Q1226 996 1240.0 1028.5Q1254 1061 1278.5 1085.5Q1303 1110 1336.0 1124.0Q1369 1138 1406 1138ZM831 180Q868 180 901.0 166.0Q934 152 958.5 127.5Q983 103 997.0 70.0Q1011 37 1011 0Q1011 -37 997.0 -69.5Q983 -102 958.5 -126.5Q934 -151 901.0 -165.0Q868 -179 831 -179Q794 -179 761.0 -165.0Q728 -151 703.5 -126.5Q679 -102 665.0 -69.5Q651 -37 651 0Q651 37 665.0 70.0Q679 103 703.5 127.5Q728 152 760.5 166.0Q793 180 831 180ZM1406 180Q1443 180 1476.0 166.0Q1509 152 1533.5 127.5Q1558 103 1572.0 70.0Q1586 37 1586 0Q1586 -37 1572.0 -69.5Q1558 -102 1533.5 -126.5Q1509 -151 1476.0 -165.0Q1443 -179 1406 -179Q1369 -179 1336.0 -165.0Q1303 -151 1278.5 -126.5Q1254 -102 1240.0 -69.5Q1226 -37 1226 0Q1226 37 1240.0 70.0Q1254 103 1278.5 127.5Q1303 152 1335.5 166.0Q1368 180 1406 180ZM831 -144Q861 -144 887.0 -132.5Q913 -121 932.5 -101.5Q952 -82 963.5 -56.0Q975 -30 975 0Q975 30 963.5 56.0Q952 82 932.5 101.5Q913 121 887.0 132.5Q861 144 831 144Q801 144 775.0 132.5Q749 121 729.5 101.5Q710 82 698.5 56.0Q687 30 687 0Q687 -30 698.5 -56.0Q710 -82 729.5 -101.5Q749 -121 775.0 -132.5Q801 -144 831 -144ZM1406 -144Q1436 -144 1462.0 -132.5Q1488 -121 1507.5 -101.5Q1527 -82 1538.5 -56.0Q1550 -30 1550 0Q1550 30 1538.5 56.0Q1527 82 1507.5 101.5Q1488 121 1462.0 132.5Q1436 144 1406 144Q1376 144 1350.0 132.5Q1324 121 1304.5 101.5Q1285 82 1273.5 56.0Q1262 30 1262 0Q1262 -30 1273.5 -56.0Q1285 -82 1304.5 -101.5Q1324 -121 1350.0 -132.5Q1376 -144 1406 -144ZM831 336Q861 336 887.0 347.0Q913 358 932.5 377.5Q952 397 963.5 423.0Q975 449 975 479Q975 509 963.5 535.0Q952 561 932.5 580.5Q913 600 887.0 611.5Q861 623 831 623Q801 623 775.0 611.5Q749 600 729.5 580.5Q710 561 698.5 535.0Q687 509 687 479Q687 449 698.5 423.0Q710 397 729.5 377.5Q749 358 775.0 347.0Q801 336 831 336ZM831 1294Q861 1294 887.0 1305.5Q913 1317 932.5 1336.5Q952 1356 963.5 1382.0Q975 1408 975 1438Q975 1468 963.5 1494.0Q952 1520 932.5 1539.5Q913 1559 887.0 1570.0Q861 1581 831 1581Q801 1581 775.0 1570.0Q749 1559 729.5 1539.5Q710 1520 698.5 1494.0Q687 1468 687 1438Q687 1408 698.5 1382.0Q710 1356 729.5 1336.5Q749 1317 775.0 1305.5Q801 1294 831 1294ZM831 815Q861 815 887.0 826.5Q913 838 932.5 857.5Q952 877 963.5 903.0Q975 929 975 959Q975 989 963.5 1015.0Q952 1041 932.5 1060.5Q913 1080 887.0 1091.0Q861 1102 831 1102Q801 1102 775.0 1091.0Q749 1080 729.5 1060.5Q710 1041 698.5 1015.0Q687 989 687 959Q687 929 698.5 903.0Q710 877 729.5 857.5Q749 838 775.0 826.5Q801 815 831 815ZM1406 336Q1436 336 1462.0 347.0Q1488 358 1507.5 377.5Q1527 397 1538.5 423.0Q1550 449 1550 479Q1550 509 1538.5 535.0Q1527 561 1507.5 580.5Q1488 600 1462.0 611.5Q1436 623 1406 623Q1376 623 1350.0 611.5Q1324 600 1304.5 580.5Q1285 561 1273.5 535.0Q1262 509 1262 479Q1262 449 1273.5 423.0Q1285 397 1304.5 377.5Q1324 358 1350.0 347.0Q1376 336 1406 336ZM1406 1294Q1436 1294 1462.0 1305.5Q1488 1317 1507.5 1336.5Q1527 1356 1538.5 1382.0Q1550 1408 1550 1438Q1550 1468 1538.5 1494.0Q1527 1520 1507.5 1539.5Q1488 1559 1462.0 1570.0Q1436 1581 1406 1581Q1376 1581 1350.0 1570.0Q1324 1559 1304.5 1539.5Q1285 1520 1273.5 1494.0Q1262 1468 1262 1438Q1262 1408 1273.5 1382.0Q1285 1356 1304.5 1336.5Q1324 1317 1350.0 1305.5Q1376 1294 1406 1294ZM1406 815Q1436 815 1462.0 826.5Q1488 838 1507.5 857.5Q1527 877 1538.5 903.0Q1550 929 1550 959Q1550 989 1538.5 1015.0Q1527 1041 1507.5 1060.5Q1488 1080 1462.0 1091.0Q1436 1102 1406 1102Q1376 1102 1350.0 1091.0Q1324 1080 1304.5 1060.5Q1285 1041 1273.5 1015.0Q1262 989 1262 959Q1262 929 1273.5 903.0Q1285 877 1304.5 857.5Q1324 838 1350.0 826.5Q1376 815 1406 815ZM1467 1473Q1486 1473 1500.0 1467.0Q1514 1461 1514 1438Q1514 1417 1499.5 1409.5Q1485 1402 1467 1402Q1478 1391 1478 1375Q1478 1361 1467.0 1350.0Q1456 1339 1442 1339Q1429 1339 1419.5 1347.0Q1410 1355 1406 1367Q1402 1355 1392.5 1347.0Q1383 1339 1370 1339Q1356 1339 1345.0 1350.0Q1334 1361 1334 1375Q1334 1391 1345 1402Q1327 1402 1312.5 1409.5Q1298 1417 1298 1438Q1298 1459 1310.5 1466.0Q1323 1473 1340 1473H1345Q1340 1479 1337.0 1485.5Q1334 1492 1334 1500Q1334 1514 1345.0 1525.0Q1356 1536 1370 1536Q1383 1536 1392.5 1528.0Q1402 1520 1406 1508Q1410 1520 1419.5 1528.0Q1429 1536 1442 1536Q1456 1536 1467.0 1525.0Q1478 1514 1478 1500Q1478 1492 1475.0 1485.5Q1472 1479 1467 1473ZM892 1473Q911 1473 925.0 1467.0Q939 1461 939 1438Q939 1417 924.5 1409.5Q910 1402 892 1402Q903 1391 903 1375Q903 1361 892.0 1350.0Q881 1339 867 1339Q854 1339 844.5 1347.0Q835 1355 831 1367Q827 1355 817.5 1347.0Q808 1339 795 1339Q781 1339 770.0 1350.0Q759 1361 759 1375Q759 1391 770 1402Q752 1402 737.5 1409.5Q723 1417 723 1438Q723 1459 735.5 1466.0Q748 1473 765 1473H770Q765 1479 762.0 1485.5Q759 1492 759 1500Q759 1514 770.0 1525.0Q781 1536 795 1536Q808 1536 817.5 1528.0Q827 1520 831 1508Q835 1520 844.5 1528.0Q854 1536 867 1536Q881 1536 892.0 1525.0Q903 1514 903 1500Q903 1492 900.0 1485.5Q897 1479 892 1473ZM892 515Q910 515 924.5 507.5Q939 500 939 479Q939 459 926.0 451.5Q913 444 896 444H892Q897 438 900.0 431.5Q903 425 903 417Q903 403 892.0 392.0Q881 381 867 381Q854 381 844.5 389.0Q835 397 831 409Q827 397 817.5 389.0Q808 381 795 381Q781 381 770.0 392.0Q759 403 759 417Q759 425 762.0 431.5Q765 438 770 444Q751 444 737.0 450.0Q723 456 723 479Q723 500 737.5 507.5Q752 515 770 515Q759 526 759 542Q759 556 770.0 567.0Q781 578 795 578Q808 578 817.5 570.0Q827 562 831 550Q835 562 844.5 570.0Q854 578 867 578Q881 578 892.0 567.0Q903 556 903 542Q903 526 892 515ZM1467 515Q1485 515 1499.5 507.5Q1514 500 1514 479Q1514 459 1501.0 451.5Q1488 444 1471 444H1467Q1472 438 1475.0 431.5Q1478 425 1478 417Q1478 403 1467.0 392.0Q1456 381 1442 381Q1429 381 1419.5 389.0Q1410 397 1406 409Q1402 397 1392.5 389.0Q1383 381 1370 381Q1356 381 1345.0 392.0Q1334 403 1334 417Q1334 425 1337.0 431.5Q1340 438 1345 444Q1326 444 1312.0 450.0Q1298 456 1298 479Q1298 500 1312.5 507.5Q1327 515 1345 515Q1334 526 1334 542Q1334 556 1345.0 567.0Q1356 578 1370 578Q1383 578 1392.5 570.0Q1402 562 1406 550Q1410 562 1419.5 570.0Q1429 578 1442 578Q1456 578 1467.0 567.0Q1478 556 1478 542Q1478 526 1467 515ZM1467 994Q1484 994 1499.0 987.0Q1514 980 1514 959Q1514 938 1499.5 930.5Q1485 923 1467 923Q1472 917 1475.0 910.5Q1478 904 1478 896Q1478 882 1467.0 871.0Q1456 860 1442 860Q1429 860 1419.5 868.0Q1410 876 1406 888Q1402 876 1392.5 868.0Q1383 860 1370 860Q1356 860 1345.0 871.0Q1334 882 1334 896Q1334 904 1337.0 910.5Q1340 917 1345 923Q1327 923 1312.5 930.5Q1298 938 1298 959Q1298 980 1313.0 987.0Q1328 994 1345 994Q1340 1000 1337.0 1006.5Q1334 1013 1334 1021Q1334 1035 1345.0 1046.0Q1356 1057 1370 1057Q1383 1057 1392.5 1049.0Q1402 1041 1406 1029Q1410 1041 1419.5 1049.0Q1429 1057 1442 1057Q1456 1057 1467.0 1046.0Q1478 1035 1478 1021Q1478 1013 1475.0 1006.5Q1472 1000 1467 994ZM892 994Q909 994 924.0 987.0Q939 980 939 959Q939 938 924.5 930.5Q910 923 892 923Q897 917 900.0 910.5Q903 904 903 896Q903 882 892.0 871.0Q881 860 867 860Q854 860 844.5 868.0Q835 876 831 888Q827 876 817.5 868.0Q808 860 795 860Q781 860 770.0 871.0Q759 882 759 896Q759 904 762.0 910.5Q765 917 770 923Q752 923 737.5 930.5Q723 938 723 959Q723 980 738.0 987.0Q753 994 770 994Q765 1000 762.0 1006.5Q759 1013 759 1021Q759 1035 770.0 1046.0Q781 1057 795 1057Q808 1057 817.5 1049.0Q827 1041 831 1029Q835 1041 844.5 1049.0Q854 1057 867 1057Q881 1057 892.0 1046.0Q903 1035 903 1021Q903 1013 900.0 1006.5Q897 1000 892 994ZM1467 35Q1473 37 1478 37Q1493 37 1503.5 26.0Q1514 15 1514 0Q1514 -23 1499.5 -29.0Q1485 -35 1467 -35Q1472 -41 1475.0 -47.5Q1478 -54 1478 -62Q1478 -76 1467.0 -87.0Q1456 -98 1442 -98Q1430 -98 1419.5 -90.0Q1409 -82 1406 -70Q1403 -82 1392.5 -90.0Q1382 -98 1370 -98Q1356 -98 1345.0 -87.0Q1334 -76 1334 -62Q1334 -54 1337.0 -47.5Q1340 -41 1345 -35Q1326 -35 1312.0 -29.0Q1298 -23 1298 0Q1298 15 1309.0 25.5Q1320 36 1335 36Q1342 36 1345 35Q1334 49 1334 63Q1334 77 1345.0 87.5Q1356 98 1370 98Q1382 98 1392.0 90.0Q1402 82 1406 71Q1410 82 1420.0 90.0Q1430 98 1442 98Q1456 98 1467.0 87.5Q1478 77 1478 63Q1478 49 1467 35ZM892 35Q898 37 903 37Q918 37 928.5 26.0Q939 15 939 0Q939 -23 924.5 -29.0Q910 -35 892 -35Q897 -41 900.0 -47.5Q903 -54 903 -62Q903 -76 892.0 -87.0Q881 -98 867 -98Q855 -98 844.5 -90.0Q834 -82 831 -70Q828 -82 817.5 -90.0Q807 -98 795 -98Q781 -98 770.0 -87.0Q759 -76 759 -62Q759 -54 762.0 -47.5Q765 -41 770 -35Q751 -35 737.0 -29.0Q723 -23 723 0Q723 15 734.0 25.5Q745 36 760 36Q767 36 770 35Q759 49 759 63Q759 77 770.0 87.5Q781 98 795 98Q807 98 817.0 90.0Q827 82 831 71Q835 82 845.0 90.0Q855 98 867 98Q881 98 892.0 87.5Q903 77 903 63Q903 49 892 35ZM1447 461H1454Q1464 461 1473.0 464.0Q1482 467 1482 479Q1482 493 1471.0 495.0Q1460 497 1449 497Q1447 497 1445.0 501.0Q1443 505 1442 506Q1445 512 1449.0 517.5Q1453 523 1453 530Q1453 538 1448.0 543.0Q1443 548 1435 548Q1424 548 1420.0 539.5Q1416 531 1411 524H1401Q1396 530 1392.0 538.0Q1388 546 1378 546Q1370 546 1365.0 541.0Q1360 536 1360 528Q1360 522 1363.5 516.5Q1367 511 1370 506Q1366 500 1365 497H1358Q1348 497 1339.0 494.0Q1330 491 1330 479Q1330 465 1340.0 463.0Q1350 461 1361 461H1365Q1367 455 1370 453Q1367 447 1363.0 441.5Q1359 436 1359 429Q1359 411 1377 411Q1388 411 1392.0 419.0Q1396 427 1401 435L1406 434L1411 435Q1416 427 1420.0 419.0Q1424 411 1435 411Q1453 411 1453 429Q1453 436 1449.0 441.5Q1445 447 1442 453Q1445 456 1447 461ZM872 461H879Q889 461 898.0 464.0Q907 467 907 479Q907 493 896.0 495.0Q885 497 874 497Q872 497 870.0 501.0Q868 505 867 506Q870 512 874.0 517.5Q878 523 878 530Q878 538 873.0 543.0Q868 548 860 548Q849 548 845.0 539.5Q841 531 836 524H826Q821 530 817.0 538.0Q813 546 803 546Q795 546 790.0 541.0Q785 536 785 528Q785 522 788.5 516.5Q792 511 795 506Q791 500 790 497H783Q773 497 764.0 494.0Q755 491 755 479Q755 465 765.0 463.0Q775 461 786 461H790Q792 455 795 453Q792 447 788.0 441.5Q784 436 784 429Q784 411 802 411Q813 411 817.0 419.0Q821 427 826 435L831 434L836 435Q841 427 845.0 419.0Q849 411 860 411Q878 411 878 429Q878 436 874.0 441.5Q870 447 867 453Q870 456 872 461ZM872 1420H879Q889 1420 898.0 1423.0Q907 1426 907 1438Q907 1452 896.0 1454.0Q885 1456 874 1456Q870 1456 869.0 1459.0Q868 1462 867 1464Q870 1470 874.0 1475.5Q878 1481 878 1488Q878 1496 873.5 1501.0Q869 1506 861 1506Q850 1506 845.5 1498.0Q841 1490 836 1482L831 1483L826 1482Q821 1489 817.0 1496.5Q813 1504 803 1504Q785 1504 785 1486Q785 1480 788.5 1474.5Q792 1469 795 1464Q791 1460 790 1456H783Q773 1456 764.0 1453.0Q755 1450 755 1438Q755 1424 765.0 1422.0Q775 1420 786 1420H790Q791 1417 795 1411Q792 1406 788.0 1400.5Q784 1395 784 1388Q784 1380 789.0 1374.5Q794 1369 802 1369Q813 1369 817.0 1377.0Q821 1385 826 1393H836Q841 1385 845.0 1377.0Q849 1369 860 1369Q868 1369 873.0 1374.5Q878 1380 878 1388Q878 1395 874.0 1400.5Q870 1406 867 1411Q871 1417 872 1420ZM1447 1420H1454Q1464 1420 1473.0 1423.0Q1482 1426 1482 1438Q1482 1452 1471.0 1454.0Q1460 1456 1449 1456Q1445 1456 1444.0 1459.0Q1443 1462 1442 1464Q1445 1470 1449.0 1475.5Q1453 1481 1453 1488Q1453 1496 1448.5 1501.0Q1444 1506 1436 1506Q1425 1506 1420.5 1498.0Q1416 1490 1411 1482L1406 1483L1401 1482Q1396 1489 1392.0 1496.5Q1388 1504 1378 1504Q1360 1504 1360 1486Q1360 1480 1363.5 1474.5Q1367 1469 1370 1464Q1366 1460 1365 1456H1358Q1348 1456 1339.0 1453.0Q1330 1450 1330 1438Q1330 1424 1340.0 1422.0Q1350 1420 1361 1420H1365Q1366 1417 1370 1411Q1367 1406 1363.0 1400.5Q1359 1395 1359 1388Q1359 1380 1364.0 1374.5Q1369 1369 1377 1369Q1388 1369 1392.0 1377.0Q1396 1385 1401 1393H1411Q1416 1385 1420.0 1377.0Q1424 1369 1435 1369Q1443 1369 1448.0 1374.5Q1453 1380 1453 1388Q1453 1395 1449.0 1400.5Q1445 1406 1442 1411Q1446 1417 1447 1420ZM872 941H879Q889 941 898.0 944.0Q907 947 907 959Q907 973 896.0 975.0Q885 977 874 977Q870 977 869.5 980.0Q869 983 867 985Q870 991 874.0 996.5Q878 1002 878 1009Q878 1017 873.5 1022.0Q869 1027 861 1027Q850 1027 845.5 1019.0Q841 1011 836 1003H826Q821 1010 817.0 1017.5Q813 1025 803 1025Q785 1025 785 1007Q785 1001 788.5 995.5Q792 990 795 985Q791 981 790 977H783Q773 977 764.0 974.0Q755 971 755 959Q755 945 765.0 943.0Q775 941 786 941H790Q791 938 795 932Q792 926 788.0 920.5Q784 915 784 908Q784 890 802 890Q813 890 817.0 898.0Q821 906 826 914H836Q841 906 845.0 898.0Q849 890 860 890Q878 890 878 908Q878 915 874.0 920.5Q870 926 867 932Q871 938 872 941ZM1447 941H1454Q1464 941 1473.0 944.0Q1482 947 1482 959Q1482 973 1471.0 975.0Q1460 977 1449 977Q1445 977 1444.5 980.0Q1444 983 1442 985Q1445 991 1449.0 996.5Q1453 1002 1453 1009Q1453 1017 1448.5 1022.0Q1444 1027 1436 1027Q1425 1027 1420.5 1019.0Q1416 1011 1411 1003H1401Q1396 1010 1392.0 1017.5Q1388 1025 1378 1025Q1360 1025 1360 1007Q1360 1001 1363.5 995.5Q1367 990 1370 985Q1366 981 1365 977H1358Q1348 977 1339.0 974.0Q1330 971 1330 959Q1330 945 1340.0 943.0Q1350 941 1361 941H1365Q1366 938 1370 932Q1367 926 1363.0 920.5Q1359 915 1359 908Q1359 890 1377 890Q1388 890 1392.0 898.0Q1396 906 1401 914H1411Q1416 906 1420.0 898.0Q1424 890 1435 890Q1453 890 1453 908Q1453 915 1449.0 920.5Q1445 926 1442 932Q1446 938 1447 941ZM1447 -18H1454Q1464 -18 1473.0 -15.0Q1482 -12 1482 0Q1482 14 1471.0 16.0Q1460 18 1449 18Q1447 18 1445.0 22.0Q1443 26 1442 27Q1445 32 1449.0 37.5Q1453 43 1453 50Q1453 68 1435 68Q1425 68 1420.5 60.0Q1416 52 1411 45H1401Q1396 52 1392.0 59.0Q1388 66 1378 66Q1360 66 1360 48Q1360 42 1363.5 37.0Q1367 32 1370 27Q1366 21 1365 18H1358Q1348 18 1339.0 15.0Q1330 12 1330 0Q1330 -14 1340.0 -16.0Q1350 -18 1361 -18H1365Q1367 -24 1370 -26Q1367 -32 1363.0 -37.5Q1359 -43 1359 -50Q1359 -68 1377 -68Q1388 -68 1392.0 -60.0Q1396 -52 1401 -44L1406 -45L1411 -44Q1416 -52 1420.0 -60.0Q1424 -68 1435 -68Q1453 -68 1453 -50Q1453 -43 1449.0 -37.5Q1445 -32 1442 -26Q1445 -23 1447 -18ZM872 -18H879Q889 -18 898.0 -15.0Q907 -12 907 0Q907 14 896.0 16.0Q885 18 874 18Q872 18 870.0 22.0Q868 26 867 27Q870 32 874.0 37.5Q878 43 878 50Q878 68 860 68Q850 68 845.5 60.0Q841 52 836 45H826Q821 52 817.0 59.0Q813 66 803 66Q785 66 785 48Q785 42 788.5 37.0Q792 32 795 27Q791 21 790 18H783Q773 18 764.0 15.0Q755 12 755 0Q755 -14 765.0 -16.0Q775 -18 786 -18H790Q792 -24 795 -26Q792 -32 788.0 -37.5Q784 -43 784 -50Q784 -68 802 -68Q813 -68 817.0 -60.0Q821 -52 826 -44L831 -45L836 -44Q841 -52 845.0 -60.0Q849 -68 860 -68Q878 -68 878 -50Q878 -43 874.0 -37.5Q870 -32 867 -26Q870 -23 872 -18Z" style="fill:#1c1c1c;stroke:none" transform="scale(1,-1) translate(0,-256)" /></svg>