<?xml version="1.0" encoding="utf-8" ?>
<svg baseProfile="full" height="256" version="1.1" width="256" xmlns="http://www.w3.org/2000/svg" xmlns:ev="http://www.w3.org/2001/xml-events" xmlns:xlink="http://www.w3.org/1999/xlink"><defs /><path d="M1059 987Q1037 972 1025.5 955.0Q1014 938 1010 912Q1004 870 1002.0 826.5Q1000 783 999.0 740.0Q998 697 997.0 653.5Q996 610 992 568Q990 552 980.0 543.0Q970 534 954 534Q938 534 929.0 545.5Q920 557 920 571Q920 621 923.0 670.5Q926 720 929 770Q931 807 932.0 845.5Q933 884 939 921L942 937Q960 958 984.5 973.0Q1009 988 1038 988Q1043 988 1048.5 988.0Q1054 988 1059 987ZM709 889V935Q709 956 717 978Q736 969 751.5 951.5Q767 934 778.5 913.0Q790 892 797.0 869.0Q804 846 806 826Q812 766 813.0 706.0Q814 646 814 586Q814 575 813.5 565.0Q813 555 809.5 547.0Q806 539 798.5 534.0Q791 529 777 529Q764 529 757.0 534.5Q750 540 746.5 548.0Q743 556 742.5 566.5Q742 577 742 586Q742 644 741.0 703.0Q740 762 734 820Q732 834 727.0 850.5Q722 867 714 880Q713 882 711.0 884.5Q709 887 709 889ZM505 722 508 719V805Q527 798 545.0 782.5Q563 767 577.0 747.5Q591 728 601.0 706.0Q611 684 615 665Q626 614 635.5 561.0Q645 508 648 457V450Q648 435 635.5 426.5Q623 418 609 418Q596 418 587.0 428.0Q578 438 576 450Q572 479 568.0 517.0Q564 555 557.0 593.5Q550 632 538.0 666.5Q526 701 505 722ZM1263 647Q1284 647 1304 636V634Q1273 630 1252.0 615.0Q1231 600 1217.0 579.0Q1203 558 1194.5 532.0Q1186 506 1180 480Q1177 467 1167.0 459.0Q1157 451 1144 451Q1130 451 1119.0 461.5Q1108 472 1108 486Q1108 490 1110.0 499.0Q1112 508 1114.5 518.5Q1117 529 1119.5 538.0Q1122 547 1124 552Q1144 603 1177.0 625.0Q1210 647 1263 647ZM1869 939Q1871 931 1874.0 904.5Q1877 878 1879.5 840.5Q1882 803 1884.5 761.0Q1887 719 1888.5 680.5Q1890 642 1891.0 612.0Q1892 582 1892 571Q1892 556 1882.0 545.0Q1872 534 1857 534Q1823 534 1820 568Q1812 653 1812.5 740.0Q1813 827 1801 912Q1797 938 1786.0 955.0Q1775 972 1753 987Q1758 987 1763.5 987.5Q1769 988 1775 988Q1803 988 1827.5 974.0Q1852 960 1869 939ZM1507 635Q1526 647 1550 647Q1595 647 1627.0 630.5Q1659 614 1680 572Q1683 567 1686.5 555.0Q1690 543 1694.0 529.5Q1698 516 1700.5 504.0Q1703 492 1703 487Q1703 473 1692.5 462.0Q1682 451 1668 451Q1654 451 1644.5 459.0Q1635 467 1632 480Q1626 507 1617.5 532.5Q1609 558 1594.5 579.5Q1580 601 1559.0 615.5Q1538 630 1507 634ZM2304 805V720Q2292 703 2281.5 686.5Q2271 670 2267 650Q2256 599 2250.0 549.5Q2244 500 2235 449Q2233 436 2223.5 427.0Q2214 418 2200 418Q2185 418 2174.5 427.5Q2164 437 2164 453Q2164 473 2168.0 495.5Q2172 518 2175 538Q2179 565 2182.5 593.0Q2186 621 2192.5 648.5Q2199 676 2209.0 702.0Q2219 728 2236 750Q2249 767 2266.5 782.5Q2284 798 2304 805ZM2096 979Q2104 956 2104.0 935.0Q2104 914 2104 891Q2093 874 2086.5 857.0Q2080 840 2078 820Q2073 757 2071.0 692.5Q2069 628 2069 564Q2069 548 2058.5 538.5Q2048 529 2033 529Q2012 529 2004.5 543.0Q1997 557 1997 574Q1997 598 1998.0 622.5Q1999 647 2000 672Q2001 708 2001.5 753.0Q2002 798 2010.0 842.0Q2018 886 2037.5 923.0Q2057 960 2096 979Z" style="fill:#d67d00;stroke:none" transform="scale(1,-1) translate(0,-256)" /></svg>