<?xml version="1.0" encoding="utf-8" ?>
<svg baseProfile="full" height="256" version="1.1" width="256" xmlns="http://www.w3.org/2000/svg" xmlns:ev="http://www.w3.org/2001/xml-events" xmlns:xlink="http://www.w3.org/1999/xlink"><defs /><path d="M940 935Q957 957 982.5 973.0Q1008 989 1037 989Q1060 989 1081.5 979.5Q1103 970 1119.5 954.5Q1136 939 1146.0 918.0Q1156 897 1156 874Q1156 871 1155.5 868.5Q1155 866 1155 863L1119 539Q1138 596 1171.5 621.5Q1205 647 1263 647Q1287 647 1306.5 635.5Q1326 624 1340.0 606.0Q1354 588 1362.0 566.0Q1370 544 1370 523Q1370 498 1362.0 477.0Q1354 456 1341 435Q1305 378 1272.5 322.0Q1240 266 1212.0 208.5Q1184 151 1160.5 90.5Q1137 30 1119 -36Q1105 -89 1073.0 -134.5Q1041 -180 998.0 -214.0Q955 -248 903.0 -267.5Q851 -287 796 -287Q734 -287 679.0 -267.5Q624 -248 577.5 -213.5Q531 -179 494.5 -132.5Q458 -86 434 -31Q423 -8 414.0 19.0Q405 46 401 72Q383 208 365.0 341.5Q347 475 329 611Q328 616 328 626Q328 651 337.5 673.0Q347 695 363.0 711.5Q379 728 401.0 737.0Q423 746 449 746Q467 746 481.0 738.0Q495 730 508 719Q508 747 507.5 775.0Q507 803 508 832Q509 854 518.5 872.0Q528 890 543.0 902.0Q558 914 577.5 921.0Q597 928 618 930H624Q649 930 671.5 919.5Q694 909 709 889V935Q709 959 718.0 982.0Q727 1005 743.0 1022.0Q759 1039 780.0 1049.5Q801 1060 827 1060Q854 1060 875.0 1050.0Q896 1040 910.5 1023.0Q925 1006 932.5 983.0Q940 960 940 935ZM1873 935Q1873 960 1880.5 983.0Q1888 1006 1902.5 1023.0Q1917 1040 1938.0 1050.0Q1959 1060 1986 1060Q2011 1060 2032.5 1049.5Q2054 1039 2069.5 1022.0Q2085 1005 2094.5 982.0Q2104 959 2104 935V889Q2119 909 2141.5 919.5Q2164 930 2189 930H2195Q2244 927 2267.0 907.0Q2290 887 2298.5 857.0Q2307 827 2305.5 791.0Q2304 755 2304 719Q2317 730 2331.0 738.0Q2345 746 2363 746Q2388 746 2410.5 737.0Q2433 728 2449.5 712.0Q2466 696 2475.5 674.0Q2485 652 2485 626Q2485 616 2484 611Q2466 475 2448.0 341.5Q2430 208 2412 72Q2408 46 2399.0 19.0Q2390 -8 2379 -31Q2355 -86 2318.5 -132.5Q2282 -179 2235.5 -213.5Q2189 -248 2134.0 -267.5Q2079 -287 2017 -287Q1962 -287 1910.0 -267.5Q1858 -248 1814.5 -214.0Q1771 -180 1739.0 -134.5Q1707 -89 1693 -36Q1675 30 1652.0 90.5Q1629 151 1601.0 208.5Q1573 266 1540.5 322.0Q1508 378 1472 435Q1459 456 1451.0 477.0Q1443 498 1443 523Q1443 544 1451.0 566.0Q1459 588 1473.0 606.0Q1487 624 1506.5 635.5Q1526 647 1550 647Q1608 647 1641.5 621.5Q1675 596 1693 539L1658 863L1657 874Q1657 897 1667.0 918.0Q1677 939 1693.5 954.5Q1710 970 1731.5 979.5Q1753 989 1776 989Q1805 989 1830.0 973.0Q1855 957 1873 935Z" style="fill:#ffc83d;stroke:none" transform="scale(1,-1) translate(0,-256)" /></svg>