<?xml version="1.0" encoding="utf-8" ?>
<svg baseProfile="full" height="256" version="1.1" width="256" xmlns="http://www.w3.org/2000/svg" xmlns:ev="http://www.w3.org/2001/xml-events" xmlns:xlink="http://www.w3.org/1999/xlink"><defs /><path d="M1117 672Q1146 672 1166.0 652.0Q1186 632 1186 603Q1186 587 1178 571H1056Q1048 587 1048 603Q1048 632 1068.0 652.0Q1088 672 1117 672ZM1708 672Q1679 672 1659.0 652.0Q1639 632 1639 603Q1639 587 1647 571H1769Q1777 587 1777 603Q1777 632 1757.0 652.0Q1737 672 1708 672Z" style="fill:#000000;stroke:none" transform="scale(1,-1) translate(0,-256)" /></svg>