<?xml version="1.0" encoding="utf-8" ?>
<svg baseProfile="full" height="256" version="1.1" width="256" xmlns="http://www.w3.org/2000/svg" xmlns:ev="http://www.w3.org/2001/xml-events" xmlns:xlink="http://www.w3.org/1999/xlink"><defs /><path d="M1704 1725Q1733 1725 1754.0 1704.0Q1775 1683 1775 1654Q1775 1646 1769.0 1622.0Q1763 1598 1754.0 1565.0Q1745 1532 1734.0 1494.5Q1723 1457 1713.0 1423.0Q1703 1389 1694.5 1362.0Q1686 1335 1683 1323Q1668 1270 1637.5 1226.5Q1607 1183 1565.0 1152.0Q1523 1121 1472.5 1103.5Q1422 1086 1368 1086H923Q890 1086 858.5 1075.0Q827 1064 801.0 1044.0Q775 1024 756.0 997.0Q737 970 729 937Q725 923 723.5 906.0Q722 889 722 874Q722 858 721.5 842.0Q721 826 723 810Q681 818 651.5 849.0Q622 880 615 922L560 1277Q558 1292 556.5 1307.0Q555 1322 555 1338Q555 1418 586.0 1488.5Q617 1559 670.0 1611.5Q723 1664 793.5 1694.5Q864 1725 944 1725Z" style="fill:#f4f4f4;stroke:none" transform="scale(1,-1) translate(0,-256)" /></svg>