<?xml version="1.0" encoding="utf-8" ?>
<svg baseProfile="full" height="256" version="1.1" width="256" xmlns="http://www.w3.org/2000/svg" xmlns:ev="http://www.w3.org/2001/xml-events" xmlns:xlink="http://www.w3.org/1999/xlink"><defs /><path d="M996 603Q996 628 1005.5 650.0Q1015 672 1031.5 688.5Q1048 705 1070.0 714.5Q1092 724 1117 724Q1142 724 1164.0 714.5Q1186 705 1202.5 688.5Q1219 672 1228.5 650.0Q1238 628 1238 603Q1238 588 1233 571H1001Q996 588 996 603ZM1829 603Q1829 628 1819.5 650.0Q1810 672 1793.5 688.5Q1777 705 1755.0 714.5Q1733 724 1708 724Q1683 724 1661.0 714.5Q1639 705 1622.5 688.5Q1606 672 1596.5 650.0Q1587 628 1587 603Q1587 595 1588.0 587.0Q1589 579 1591 571H1824Q1829 588 1829 603Z" style="fill:#7d4533;stroke:none" transform="scale(1,-1) translate(0,-256)" /></svg>