<?xml version="1.0" encoding="utf-8" ?>
<svg baseProfile="full" height="256" version="1.1" width="256" xmlns="http://www.w3.org/2000/svg" xmlns:ev="http://www.w3.org/2001/xml-events" xmlns:xlink="http://www.w3.org/1999/xlink"><defs /><path d="M1704 1725H1882Q1962 1725 2033.0 1694.5Q2104 1664 2157.0 1611.0Q2210 1558 2240.5 1487.5Q2271 1417 2271 1337Q2271 1322 2269.5 1307.0Q2268 1292 2266 1277L2211 922Q2204 880 2174.5 849.0Q2145 818 2103 810Q2105 826 2104.5 842.0Q2104 858 2104 874Q2104 918 2089.5 956.5Q2075 995 2049.0 1024.0Q2023 1053 1985.5 1069.5Q1948 1086 1903 1086H1368Z" style="fill:#e6e6e6;stroke:none" transform="scale(1,-1) translate(0,-256)" /></svg>