<?xml version="1.0" encoding="utf-8" ?>
<svg baseProfile="full" height="256" version="1.1" width="256" xmlns="http://www.w3.org/2000/svg" xmlns:ev="http://www.w3.org/2001/xml-events" xmlns:xlink="http://www.w3.org/1999/xlink"><defs /><path d="M1097 651Q1097 642 1090.5 635.5Q1084 629 1075 629Q1066 629 1060.0 635.5Q1054 642 1054 651Q1054 660 1060.0 666.0Q1066 672 1075 672Q1084 672 1090.5 666.0Q1097 660 1097 651ZM1692 651Q1692 642 1685.5 635.5Q1679 629 1670 629Q1661 629 1655.0 636.0Q1649 643 1649 651Q1649 659 1655.5 665.5Q1662 672 1670 672Q1679 672 1685.5 666.0Q1692 660 1692 651Z" style="fill:#ffffff;stroke:none" transform="scale(1,-1) translate(0,-256)" /></svg>