<?xml version="1.0" encoding="utf-8" ?>
<svg baseProfile="full" height="256" version="1.1" width="256" xmlns="http://www.w3.org/2000/svg" xmlns:ev="http://www.w3.org/2001/xml-events" xmlns:xlink="http://www.w3.org/1999/xlink"><defs /><path d="M1089 761Q1123 761 1154.0 749.5Q1185 738 1209.0 718.0Q1233 698 1250.0 669.5Q1267 641 1274 608Q1274 606 1274.5 605.0Q1275 604 1275 602Q1275 589 1265.5 580.5Q1256 572 1244 572H942Q927 572 916.0 582.5Q905 593 905 609Q905 615 906 618Q914 649 931.5 675.5Q949 702 973.0 721.0Q997 740 1026.5 750.5Q1056 761 1089 761ZM1736 761Q1702 761 1671.5 749.5Q1641 738 1616.0 717.5Q1591 697 1574.0 669.0Q1557 641 1550 608V603Q1550 590 1559.0 581.0Q1568 572 1581 572H1882Q1898 572 1909.0 582.5Q1920 593 1920 609Q1920 615 1919 618Q1911 649 1893.5 675.5Q1876 702 1852.0 721.0Q1828 740 1798.5 750.5Q1769 761 1736 761Z" style="fill:#ffffff;stroke:none" transform="scale(1,-1) translate(0,-256)" /></svg>