<?xml version="1.0" encoding="utf-8" ?>
<svg baseProfile="full" height="256" version="1.1" width="256" xmlns="http://www.w3.org/2000/svg" xmlns:ev="http://www.w3.org/2001/xml-events" xmlns:xlink="http://www.w3.org/1999/xlink"><defs /><path d="M2224 1164Q2263 1164 2297.0 1149.0Q2331 1134 2357.0 1108.5Q2383 1083 2398.0 1049.0Q2413 1015 2413 976V94Q2413 55 2398.0 20.5Q2383 -14 2357.5 -39.5Q2332 -65 2297.5 -80.0Q2263 -95 2224 -95H589Q550 -95 515.5 -80.0Q481 -65 455.5 -39.5Q430 -14 415.0 20.5Q400 55 400 94V975Q400 1014 415.0 1048.5Q430 1083 455.5 1108.5Q481 1134 515.5 1149.0Q550 1164 589 1164H2224Z" style="fill:#9b9b9b;stroke:none" transform="scale(1,-1) translate(0,-256)" /></svg>