<?xml version="1.0" encoding="utf-8" ?>
<svg baseProfile="full" height="256" version="1.1" width="256" xmlns="http://www.w3.org/2000/svg" xmlns:ev="http://www.w3.org/2001/xml-events" xmlns:xlink="http://www.w3.org/1999/xlink"><defs /><path d="M1768 222Q1768 184 1742.0 158.0Q1716 132 1678 132Q1641 132 1615.0 158.5Q1589 185 1589 222Q1589 259 1615.0 285.0Q1641 311 1678 311Q1715 311 1741.5 285.0Q1768 259 1768 222ZM2169 222Q2169 184 2143.0 158.0Q2117 132 2079 132Q2042 132 2016.0 158.5Q1990 185 1990 222Q1990 259 2016.0 285.0Q2042 311 2079 311Q2116 311 2142.5 285.0Q2169 259 2169 222Z" style="fill:#f4f4f4;stroke:none" transform="scale(1,-1) translate(0,-256)" /></svg>