<?xml version="1.0" encoding="utf-8" ?>
<svg baseProfile="full" height="256" version="1.1" width="256" xmlns="http://www.w3.org/2000/svg" xmlns:ev="http://www.w3.org/2001/xml-events" xmlns:xlink="http://www.w3.org/1999/xlink"><defs /><path d="M628 854Q608 854 593.5 868.5Q579 883 579 903Q579 923 593.5 937.5Q608 952 628 952H1322Q1342 952 1356.5 937.5Q1371 923 1371 903Q1371 883 1356.5 868.5Q1342 854 1322 854ZM1371 722Q1371 702 1356.5 687.5Q1342 673 1322 673H628Q608 673 593.5 687.5Q579 702 579 722Q579 742 593.5 756.5Q608 771 628 771H1322Q1342 771 1356.5 756.5Q1371 742 1371 722ZM628 493Q608 493 593.5 507.0Q579 521 579 541Q579 561 593.5 575.5Q608 590 628 590H1322Q1342 590 1356.5 575.5Q1371 561 1371 541Q1371 521 1356.5 507.0Q1342 493 1322 493ZM1371 360Q1371 340 1356.5 325.5Q1342 311 1322 311H628Q608 311 593.5 325.5Q579 340 579 360Q579 380 593.5 394.5Q608 409 628 409H1322Q1343 409 1357.0 395.0Q1371 381 1371 360ZM1371 180Q1371 160 1356.5 145.5Q1342 131 1322 131H628Q608 131 593.5 145.5Q579 160 579 180Q579 200 593.5 214.5Q608 229 628 229H1322Q1342 229 1356.5 214.5Q1371 200 1371 180Z" style="fill:#212121;stroke:none" transform="scale(1,-1) translate(0,-256)" /></svg>