<?xml version="1.0" encoding="utf-8" ?>
<svg baseProfile="full" height="256" version="1.1" width="256" xmlns="http://www.w3.org/2000/svg" xmlns:ev="http://www.w3.org/2001/xml-events" xmlns:xlink="http://www.w3.org/1999/xlink"><defs /><path d="M748 1017Q718 1017 691.0 1028.5Q664 1040 644.0 1060.0Q624 1080 612.5 1107.0Q601 1134 601 1164Q601 1194 612.5 1221.0Q624 1248 644.0 1267.5Q664 1287 691.0 1298.5Q718 1310 748 1310Q778 1310 805.0 1298.5Q832 1287 851.5 1267.5Q871 1248 882.5 1221.0Q894 1194 894 1164Q894 1134 882.5 1107.0Q871 1080 851.5 1060.0Q832 1040 805.0 1028.5Q778 1017 748 1017Z" style="fill:#d3d3d3;stroke:none" transform="scale(1,-1) translate(0,-256)" /></svg>