<?xml version="1.0" encoding="utf-8" ?>
<svg baseProfile="full" height="256" version="1.1" width="256" xmlns="http://www.w3.org/2000/svg" xmlns:ev="http://www.w3.org/2001/xml-events" xmlns:xlink="http://www.w3.org/1999/xlink"><defs /><path d="M615 -44H812V-143Q812 -184 783.5 -212.5Q755 -241 714 -241Q694 -241 676.0 -233.5Q658 -226 644.5 -212.5Q631 -199 623.0 -181.0Q615 -163 615 -143ZM1992 -44H2189V-143Q2189 -163 2181.0 -181.0Q2173 -199 2159.5 -212.5Q2146 -226 2128.0 -233.5Q2110 -241 2090 -241Q2049 -241 2020.5 -212.5Q1992 -184 1992 -143Z" style="fill:#212121;stroke:none" transform="scale(1,-1) translate(0,-256)" /></svg>