<?xml version="1.0" encoding="utf-8" ?>
<svg baseProfile="full" height="256" version="1.1" width="256" xmlns="http://www.w3.org/2000/svg" xmlns:ev="http://www.w3.org/2001/xml-events" xmlns:xlink="http://www.w3.org/1999/xlink"><defs /><path d="M2148 952Q2166 952 2181.5 945.0Q2197 938 2208.5 926.5Q2220 915 2227.0 899.5Q2234 884 2234 866V518Q2234 500 2227.0 484.5Q2220 469 2208.5 457.5Q2197 446 2181.5 439.0Q2166 432 2148 432H1582Q1564 432 1548.5 439.0Q1533 446 1521.5 457.5Q1510 469 1503.0 484.5Q1496 500 1496 518V866Q1496 884 1503.0 899.5Q1510 915 1521.5 926.5Q1533 938 1548.5 945.0Q1564 952 1582 952H2148Z" style="fill:#83cbff;stroke:none" transform="scale(1,-1) translate(0,-256)" /></svg>