<?xml version="1.0" encoding="utf-8" ?>
<svg baseProfile="full" height="256" version="1.1" width="256" xmlns="http://www.w3.org/2000/svg" xmlns:ev="http://www.w3.org/2001/xml-events" xmlns:xlink="http://www.w3.org/1999/xlink"><defs /><path d="M1842 1376Q1807 1371 1773.5 1367.0Q1740 1363 1705 1358Q1679 1354 1660.5 1333.0Q1642 1312 1642 1286Q1642 1258 1648.5 1231.5Q1655 1205 1655 1177Q1655 1150 1644.5 1126.0Q1634 1102 1616.0 1084.0Q1598 1066 1574.0 1056.0Q1550 1046 1523 1046Q1473 1046 1436.5 1078.5Q1400 1111 1393 1160L1363 1378Q1362 1386 1361.5 1394.5Q1361 1403 1361 1411Q1361 1461 1380.0 1505.0Q1399 1549 1432.0 1581.5Q1465 1614 1509.0 1633.0Q1553 1652 1603 1652Q1653 1652 1697.0 1632.5Q1741 1613 1773.5 1580.0Q1806 1547 1825.0 1503.0Q1844 1459 1844 1409Q1844 1401 1843.5 1392.5Q1843 1384 1842 1376ZM963 715Q962 723 961.5 731.5Q961 740 961 748Q961 798 980.0 842.0Q999 886 1031.5 919.0Q1064 952 1108.0 971.5Q1152 991 1202 991Q1252 991 1296.0 972.0Q1340 953 1373.0 920.5Q1406 888 1425.0 844.0Q1444 800 1444 750Q1444 742 1443.5 733.5Q1443 725 1442 717L1412 499Q1405 450 1368.5 417.5Q1332 385 1282 385Q1255 385 1231.0 395.0Q1207 405 1189.0 423.0Q1171 441 1160.5 465.0Q1150 489 1150 516Q1150 544 1156.5 570.5Q1163 597 1163 625Q1163 651 1144.5 672.0Q1126 693 1100 697Q1065 702 1031.5 706.0Q998 710 963 715Z" style="fill:#f4f4f4;stroke:none" transform="scale(1,-1) translate(0,-256)" /></svg>