<?xml version="1.0" encoding="utf-8" ?>
<svg baseProfile="full" height="256" version="1.1" width="256" xmlns="http://www.w3.org/2000/svg" xmlns:ev="http://www.w3.org/2001/xml-events" xmlns:xlink="http://www.w3.org/1999/xlink"><defs /><path d="M1752 1140Q1752 1168 1762.0 1194.5Q1772 1221 1790.0 1241.5Q1808 1262 1832.0 1275.5Q1856 1289 1885 1293L2190 1335Q2195 1336 2200.0 1336.0Q2205 1336 2210 1336Q2239 1336 2265.0 1326.0Q2291 1316 2311.5 1298.0Q2332 1280 2345.5 1255.5Q2359 1231 2363 1203L2404 898Q2405 893 2405.5 887.0Q2406 881 2406 876Q2406 847 2396.0 821.5Q2386 796 2368.0 775.5Q2350 755 2325.5 742.0Q2301 729 2273 725L1968 683Q1963 682 1958.0 682.0Q1953 682 1948 682Q1919 682 1893.0 692.0Q1867 702 1846.0 720.0Q1825 738 1811.5 762.0Q1798 786 1794 815L1753 1120Q1752 1125 1752.0 1130.0Q1752 1135 1752 1140ZM1884 1138 1925 833Q1926 825 1932.0 819.5Q1938 814 1946 814H1950L2255 855Q2263 857 2268.5 863.5Q2274 870 2274 878V880L2232 1185Q2229 1204 2210 1204H2208L1903 1163Q1895 1162 1889.5 1156.0Q1884 1150 1884 1142ZM1053 479Q1053 474 1053.0 469.0Q1053 464 1052 459L1011 154Q1007 125 993.5 101.0Q980 77 959.0 59.0Q938 41 912.0 31.0Q886 21 857 21Q852 21 847.0 21.0Q842 21 837 22L532 64Q503 68 479.0 81.0Q455 94 437.0 114.5Q419 135 409.0 160.5Q399 186 399 215Q399 220 399.5 226.0Q400 232 401 237L442 542Q446 570 459.5 594.5Q473 619 493.5 637.0Q514 655 540.0 665.0Q566 675 595 675Q600 675 605.0 675.0Q610 675 615 674L920 632Q948 628 972.5 614.5Q997 601 1015.0 580.5Q1033 560 1043.0 533.5Q1053 507 1053 479ZM921 481Q921 489 915.5 495.0Q910 501 902 502L597 543H595Q576 543 573 524L531 219V217Q531 209 536.5 202.5Q542 196 550 194L855 153H859Q867 153 873.0 158.5Q879 164 880 172L921 477Z" style="fill:#83cbff;stroke:none" transform="scale(1,-1) translate(0,-256)" /></svg>