<?xml version="1.0" encoding="utf-8" ?>
<svg baseProfile="full" height="256" version="1.1" width="256" xmlns="http://www.w3.org/2000/svg" xmlns:ev="http://www.w3.org/2001/xml-events" xmlns:xlink="http://www.w3.org/1999/xlink"><defs /><path d="M1853 668Q1838 668 1824.5 678.5Q1811 689 1809 705L1750 1143V1148Q1750 1167 1763.5 1179.5Q1777 1192 1795 1192Q1811 1192 1823.0 1181.5Q1835 1171 1837 1155L1897 717V712Q1897 694 1884.0 681.0Q1871 668 1853 668ZM1591 633Q1575 633 1562.5 643.0Q1550 653 1548 669L1488 1108V1113Q1488 1131 1501.0 1143.5Q1514 1156 1532 1156Q1547 1156 1560.5 1146.0Q1574 1136 1576 1120L1635 681V676Q1635 658 1622.0 645.5Q1609 633 1591 633ZM952 7Q967 7 980.5 17.5Q994 28 996 44L1055 482V487Q1055 506 1041.5 518.5Q1028 531 1010 531Q994 531 982.0 520.5Q970 510 968 494L908 56V51Q908 33 921.0 20.0Q934 7 952 7ZM1214 -28Q1230 -28 1242.5 -18.0Q1255 -8 1257 8L1316 447Q1316 449 1316.5 450.5Q1317 452 1317 454Q1317 471 1303.5 483.0Q1290 495 1273 495Q1257 495 1244.0 485.0Q1231 475 1229 459L1170 20V15Q1170 -3 1183.0 -15.5Q1196 -28 1214 -28Z" style="fill:#fcd53f;stroke:none" transform="scale(1,-1) translate(0,-256)" /></svg>