<?xml version="1.0" encoding="utf-8" ?>
<svg baseProfile="full" height="256" version="1.1" width="256" xmlns="http://www.w3.org/2000/svg" xmlns:ev="http://www.w3.org/2001/xml-events" xmlns:xlink="http://www.w3.org/1999/xlink"><defs /><path d="M1607 628 1365 711 1285 1300 1513 1361Q1542 1369 1570.0 1378.0Q1598 1387 1627 1391Q1657 1395 1686.0 1393.0Q1715 1391 1745 1392L1982 1395L2089 604V599Q2089 585 2080.0 574.5Q2071 564 2057 562L1590 499ZM1520 639 1413 -152Q1411 -167 1398.5 -176.0Q1386 -185 1371 -183L748 -99Q733 -97 723.5 -84.5Q714 -72 716 -57L823 734Q901 733 978.0 733.0Q1055 733 1133 733Q1176 733 1213.5 722.0Q1251 711 1292 700Z" style="fill:#f9c23c;stroke:none" transform="scale(1,-1) translate(0,-256)" /></svg>