<?xml version="1.0" encoding="utf-8" ?>
<svg baseProfile="full" height="256" version="1.1" width="256" xmlns="http://www.w3.org/2000/svg" xmlns:ev="http://www.w3.org/2001/xml-events" xmlns:xlink="http://www.w3.org/1999/xlink"><defs /><path d="M1672 1403Q1672 1444 1687.5 1480.0Q1703 1516 1730.0 1542.5Q1757 1569 1793.0 1584.5Q1829 1600 1870 1600Q1913 1600 1948.0 1585.0Q1983 1570 2008.0 1544.0Q2033 1518 2048.5 1483.0Q2064 1448 2069 1407L1677 1354Q1675 1366 1673.5 1378.5Q1672 1391 1672 1403ZM1193 1338Q1193 1379 1208.5 1415.0Q1224 1451 1251.0 1477.5Q1278 1504 1314.0 1519.5Q1350 1535 1391 1535Q1434 1535 1469.0 1520.0Q1504 1505 1529.0 1479.0Q1554 1453 1569.5 1418.0Q1585 1383 1590 1342L1198 1289Q1196 1301 1194.5 1313.5Q1193 1326 1193 1338ZM1612 677Q1612 665 1610.5 652.5Q1609 640 1607 628L1215 681Q1220 722 1235.5 757.0Q1251 792 1276.0 818.0Q1301 844 1335.5 859.0Q1370 874 1414 874Q1455 874 1491.0 858.5Q1527 843 1554.0 816.5Q1581 790 1596.5 754.0Q1612 718 1612 677ZM1133 742Q1133 783 1117.5 819.0Q1102 855 1075.0 881.5Q1048 908 1012.0 923.5Q976 939 935 939Q891 939 856.5 924.0Q822 909 797.0 883.0Q772 857 756.5 822.0Q741 787 736 746L1128 693Q1130 705 1131.5 717.5Q1133 730 1133 742Z" style="fill:#e6e6e6;stroke:none" transform="scale(1,-1) translate(0,-256)" /></svg>