<?xml version="1.0" encoding="utf-8" ?>
<svg baseProfile="full" height="256" version="1.1" width="256" xmlns="http://www.w3.org/2000/svg" xmlns:ev="http://www.w3.org/2001/xml-events" xmlns:xlink="http://www.w3.org/1999/xlink"><defs /><path d="M1430 1648Q1504 1648 1569.5 1620.0Q1635 1592 1683.5 1543.5Q1732 1495 1760.5 1429.5Q1789 1364 1789 1290Q1789 1256 1786.0 1222.0Q1783 1188 1781 1154Q1806 1149 1827.5 1136.0Q1849 1123 1864.5 1104.5Q1880 1086 1889.0 1062.0Q1898 1038 1898 1013Q1898 985 1887.5 959.5Q1877 934 1858.5 914.5Q1840 895 1815.5 883.0Q1791 871 1763 869Q1761 837 1759.0 806.0Q1757 775 1755 743Q1753 714 1743.0 684.5Q1733 655 1718.0 627.0Q1703 599 1683.0 574.0Q1663 549 1642 531Q1573 471 1484 453V375Q1484 343 1472.0 315.5Q1460 288 1439.0 267.5Q1418 247 1390.0 235.0Q1362 223 1331 223Q1299 223 1271.5 235.0Q1244 247 1223.5 267.5Q1203 288 1191.0 315.5Q1179 343 1179 375V454Q1129 466 1083.0 492.5Q1037 519 1001.0 557.0Q965 595 941.5 642.5Q918 690 914 743L905 869Q876 870 850.5 881.5Q825 893 806.0 912.5Q787 932 776.5 958.0Q766 984 766 1013Q766 1040 775.0 1064.0Q784 1088 800.0 1106.5Q816 1125 838.5 1138.0Q861 1151 887 1155Q885 1188 881.5 1221.5Q878 1255 878 1288Q878 1363 906.0 1428.5Q934 1494 982.5 1542.5Q1031 1591 1096.5 1619.5Q1162 1648 1237 1648ZM701 222V-210L443 -207Q445 -199 446.0 -191.5Q447 -184 449 -176Q452 -161 458.5 -145.5Q465 -130 471 -116Q509 -19 567.0 66.0Q625 151 701 222ZM1967 222Q2043 151 2101.0 66.0Q2159 -19 2197 -116Q2203 -130 2209.5 -145.5Q2216 -161 2219 -176V-184Q2219 -191 2221.5 -196.0Q2224 -201 2225 -207L1967 -210Z" style="fill:#6b438b;stroke:none" transform="scale(1,-1) translate(0,-256)" /></svg>