<?xml version="1.0" encoding="utf-8" ?>
<svg baseProfile="full" height="256" version="1.1" width="256" xmlns="http://www.w3.org/2000/svg" xmlns:ev="http://www.w3.org/2001/xml-events" xmlns:xlink="http://www.w3.org/1999/xlink"><defs /><path d="M1039 1510Q1110 1510 1170.5 1475.0Q1231 1440 1266 1379Q1271 1370 1278.0 1356.0Q1285 1342 1293.5 1328.0Q1302 1314 1312.5 1304.0Q1323 1294 1334 1294H1478Q1525 1294 1558.5 1283.5Q1592 1273 1618.0 1257.0Q1644 1241 1665.0 1222.0Q1686 1203 1706.5 1187.0Q1727 1171 1750.5 1160.5Q1774 1150 1805 1150H2075Q2145 1150 2206.0 1123.5Q2267 1097 2313.0 1051.0Q2359 1005 2385.5 944.0Q2412 883 2412 813V144H2340V475Q2324 456 2306.0 440.0Q2288 424 2268 411V0V-269Q2268 -277 2263.0 -282.0Q2258 -287 2250 -287H2143Q2135 -287 2130.0 -282.0Q2125 -277 2125 -269V0L2015 28Q1976 38 1943.5 59.5Q1911 81 1887.0 111.0Q1863 141 1850.0 177.5Q1837 214 1837 255Q1786 216 1721 216L1295 214Q1295 176 1297.0 139.0Q1299 102 1293.0 68.5Q1287 35 1269.5 6.5Q1252 -22 1213 -42L1151 -74V-271Q1151 -279 1146.0 -284.0Q1141 -289 1133 -289H1025Q1017 -289 1012.0 -284.0Q1007 -279 1007 -271V217Q950 227 910.0 267.5Q870 308 860 365Q848 435 836.5 505.0Q825 575 812 645Q799 718 786.0 790.0Q773 862 759 935H584Q545 935 511.5 950.0Q478 965 453.5 990.5Q429 1016 414.5 1050.0Q400 1084 400 1122Q400 1151 413.5 1176.0Q427 1201 451 1217L817 1461Q889 1510 975 1510Z" style="fill:#636363;stroke:none" transform="scale(1,-1) translate(0,-256)" /></svg>