<?xml version="1.0" encoding="utf-8" ?>
<svg baseProfile="full" height="256" version="1.1" width="256" xmlns="http://www.w3.org/2000/svg" xmlns:ev="http://www.w3.org/2001/xml-events" xmlns:xlink="http://www.w3.org/1999/xlink"><defs /><path d="M1246 1725Q1282 1725 1308.0 1699.5Q1334 1674 1334 1638Q1334 1585 1308.5 1535.5Q1283 1486 1242.0 1448.5Q1201 1411 1150.0 1388.5Q1099 1366 1047 1366H975Q945 1366 924.0 1387.0Q903 1408 903 1438Q903 1467 924.5 1488.5Q946 1510 975 1510Q1008 1510 1040.0 1518.0Q1072 1526 1100.0 1542.5Q1128 1559 1150.0 1583.5Q1172 1608 1185 1640Q1185 1641 1185.5 1642.0Q1186 1643 1186 1644Q1186 1652 1175.5 1653.5Q1165 1655 1150.0 1654.0Q1135 1653 1116.5 1651.5Q1098 1650 1083.0 1652.5Q1068 1655 1057.5 1663.5Q1047 1672 1047 1691Q1047 1705 1058.5 1715.0Q1070 1725 1084 1725H1246Z" style="fill:#9b9b9b;stroke:none" transform="scale(1,-1) translate(0,-256)" /></svg>