<?xml version="1.0" encoding="utf-8" ?>
<svg baseProfile="full" height="256" version="1.1" width="256" xmlns="http://www.w3.org/2000/svg" xmlns:ev="http://www.w3.org/2001/xml-events" xmlns:xlink="http://www.w3.org/1999/xlink"><defs /><path d="M1262 1108Q1215 1078 1162 1078Q1123 1078 1089.0 1092.5Q1055 1107 1029.5 1132.5Q1004 1158 989.5 1192.0Q975 1226 975 1265Q975 1320 1004 1366ZM579 1078Q565 1078 554.0 1088.5Q543 1099 543 1113V1151Q543 1166 553.5 1176.0Q564 1186 579 1186Q594 1186 604.5 1176.0Q615 1166 615 1151V1113Q615 1098 604.5 1088.0Q594 1078 579 1078ZM759 1234Q759 1249 769.5 1259.5Q780 1270 795 1270Q810 1270 820.5 1259.5Q831 1249 831 1234V1188Q831 1173 820.5 1162.5Q810 1152 795 1152Q780 1152 769.5 1162.5Q759 1173 759 1188Z" style="fill:#1c1c1c;stroke:none" transform="scale(1,-1) translate(0,-256)" /></svg>