<?xml version="1.0" encoding="utf-8" ?>
<svg baseProfile="full" height="256" version="1.1" width="256" xmlns="http://www.w3.org/2000/svg" xmlns:ev="http://www.w3.org/2001/xml-events" xmlns:xlink="http://www.w3.org/1999/xlink"><defs /><path d="M2057 719Q2057 585 2006.0 466.5Q1955 348 1867.0 260.0Q1779 172 1660.5 121.0Q1542 70 1408 70Q1379 70 1350.5 72.5Q1322 75 1293 80Q1211 159 1116.5 209.5Q1022 260 915 297Q840 385 799.5 494.0Q759 603 759 719Q759 732 759.5 744.0Q760 756 761 769Q801 844 857.5 922.0Q914 1000 979.5 1073.0Q1045 1146 1117.0 1209.5Q1189 1273 1261 1318Q1270 1324 1281.0 1331.0Q1292 1338 1304.0 1344.5Q1316 1351 1327.5 1356.5Q1339 1362 1349 1365Q1362 1368 1378.0 1367.5Q1394 1367 1408 1367Q1515 1367 1617.0 1332.5Q1719 1298 1804 1232Q1822 1187 1849.5 1132.0Q1877 1077 1909.0 1022.5Q1941 968 1976.0 919.0Q2011 870 2046 836Q2057 775 2057 719Z" style="fill:#ff944c;stroke:none" transform="scale(1,-1) translate(0,-256)" /></svg>