<?xml version="1.0" encoding="utf-8" ?>
<svg baseProfile="full" height="256" version="1.1" width="256" xmlns="http://www.w3.org/2000/svg" xmlns:ev="http://www.w3.org/2001/xml-events" xmlns:xlink="http://www.w3.org/1999/xlink"><defs /><path d="M761 770Q770 888 819.0 991.5Q868 1095 946.5 1174.5Q1025 1254 1128.0 1304.0Q1231 1354 1348 1365Q1334 1318 1308.5 1270.5Q1283 1223 1251.0 1177.5Q1219 1132 1183.5 1090.5Q1148 1049 1115 1013Q1042 935 952.0 870.5Q862 806 761 770ZM2045 840Q2023 957 1960.5 1058.5Q1898 1160 1804 1233Q1769 1150 1711.0 1061.0Q1653 972 1580.0 883.0Q1507 794 1422.5 708.5Q1338 623 1251.0 547.0Q1164 471 1077.5 407.0Q991 343 914 298Q987 213 1085.0 156.0Q1183 99 1295 80Q1416 147 1529.0 227.0Q1642 307 1736 410Q1825 509 1902.5 616.5Q1980 724 2045 840Z" style="fill:#fbb8ab;stroke:none" transform="scale(1,-1) translate(0,-256)" /></svg>