<?xml version="1.0" encoding="utf-8" ?>
<svg baseProfile="full" height="256" version="1.1" width="256" xmlns="http://www.w3.org/2000/svg" xmlns:ev="http://www.w3.org/2001/xml-events" xmlns:xlink="http://www.w3.org/1999/xlink"><defs /><path d="M2094 1570Q2130 1570 2160.0 1556.5Q2190 1543 2211.0 1520.0Q2232 1497 2243.5 1466.0Q2255 1435 2255 1400Q2255 1339 2222.0 1263.0Q2189 1187 2135.5 1105.0Q2082 1023 2014.5 939.5Q1947 856 1879.5 780.0Q1812 704 1750.0 639.5Q1688 575 1645 532Q1612 499 1564.5 453.5Q1517 408 1459.5 355.5Q1402 303 1337.0 247.0Q1272 191 1204.0 137.5Q1136 84 1067.5 36.0Q999 -12 935.5 -48.0Q872 -84 815.5 -105.0Q759 -126 714 -126Q679 -126 649.5 -113.0Q620 -100 599.0 -78.0Q578 -56 566.5 -26.0Q555 4 555 39Q555 74 567.5 113.0Q580 152 600.5 193.0Q621 234 647.0 275.0Q673 316 700.5 354.5Q728 393 754.0 427.5Q780 462 800 490Q819 442 844.5 397.0Q870 352 902 312Q860 255 817.0 195.0Q774 135 749 69Q779 79 812.5 97.0Q846 115 880.0 136.0Q914 157 945.5 179.0Q977 201 1003 220Q1127 310 1254.5 420.0Q1382 530 1503.5 650.5Q1625 771 1736.0 897.5Q1847 1024 1937 1148Q1952 1168 1972.0 1197.5Q1992 1227 2011.0 1259.0Q2030 1291 2044.5 1322.0Q2059 1353 2064 1377L2060 1375Q1993 1345 1932.5 1307.0Q1872 1269 1813 1225Q1733 1290 1637 1326Q1677 1358 1734.0 1400.0Q1791 1442 1854.0 1480.0Q1917 1518 1979.5 1544.0Q2042 1570 2094 1570ZM742 40V39Z" style="fill:#fcd53f;stroke:none" transform="scale(1,-1) translate(0,-256)" /></svg>