<?xml version="1.0" encoding="utf-8" ?>
<svg baseProfile="full" height="256" version="1.1" width="256" xmlns="http://www.w3.org/2000/svg" xmlns:ev="http://www.w3.org/2001/xml-events" xmlns:xlink="http://www.w3.org/1999/xlink"><defs /><path d="M775 1508Q817 1508 855.0 1495.0Q893 1482 924.0 1458.0Q955 1434 978.0 1401.0Q1001 1368 1012 1328Q1015 1319 1015 1311Q1015 1285 996.5 1267.0Q978 1249 952 1249Q931 1249 915.0 1261.5Q899 1274 892 1294Q879 1334 849.0 1358.5Q819 1383 776 1383Q735 1383 706.5 1359.5Q678 1336 678 1293Q678 1267 690.5 1246.0Q703 1225 725 1213L1082 1015Q1097 1007 1105.5 991.5Q1114 976 1114 959Q1114 933 1096.0 915.5Q1078 898 1052 898Q1036 898 1022 906L665 1104Q612 1133 582.5 1183.5Q553 1234 553 1294Q553 1341 570.5 1380.0Q588 1419 618.0 1447.5Q648 1476 688.5 1492.0Q729 1508 775 1508ZM1987 1383Q1945 1383 1914.0 1358.0Q1883 1333 1870 1294Q1863 1274 1847.5 1261.5Q1832 1249 1810 1249Q1784 1249 1766.0 1267.0Q1748 1285 1748 1310Q1748 1319 1751 1328Q1762 1368 1785.0 1401.0Q1808 1434 1839.0 1458.0Q1870 1482 1908.0 1495.0Q1946 1508 1988 1508Q2034 1508 2074.5 1492.0Q2115 1476 2145.0 1447.5Q2175 1419 2192.5 1380.0Q2210 1341 2210 1294Q2210 1233 2180.5 1183.0Q2151 1133 2098 1104L1741 906Q1727 898 1711 898Q1685 898 1666.5 916.0Q1648 934 1648 960Q1648 997 1680 1015L2038 1213Q2060 1225 2072.5 1246.0Q2085 1267 2085 1293Q2085 1336 2056.5 1359.5Q2028 1383 1987 1383Z" style="fill:#d3883e;stroke:none" transform="scale(1,-1) translate(0,-256)" /></svg>