<?xml version="1.0" encoding="utf-8" ?>
<svg baseProfile="full" height="256" version="1.1" width="256" xmlns="http://www.w3.org/2000/svg" xmlns:ev="http://www.w3.org/2001/xml-events" xmlns:xlink="http://www.w3.org/1999/xlink"><defs /><path d="M1176 1654Q1183 1685 1208.0 1704.5Q1233 1724 1265 1724Q1302 1724 1328.5 1697.5Q1355 1671 1355 1634Q1355 1622 1352 1610L1269 1282L1100 1312ZM1848 1499Q1860 1522 1880.5 1534.5Q1901 1547 1927 1547Q1946 1547 1962.5 1540.0Q1979 1533 1991.5 1520.5Q2004 1508 2011.0 1491.5Q2018 1475 2018 1456Q2018 1432 2006 1411L1829 1093L1671 1162Z" style="fill:#321b41;stroke:none" transform="scale(1,-1) translate(0,-256)" /></svg>