<?xml version="1.0" encoding="utf-8" ?>
<svg baseProfile="full" height="256" version="1.1" width="256" xmlns="http://www.w3.org/2000/svg" xmlns:ev="http://www.w3.org/2001/xml-events" xmlns:xlink="http://www.w3.org/1999/xlink"><defs /><path d="M1265 1287 1269 1282 882 -241Q877 -262 859.5 -274.5Q842 -287 821 -287Q795 -287 777.0 -269.0Q759 -251 759 -226Q759 -221 761 -211L1100 1312L1105 1315ZM1826 1101 1829 1093 1073 -256Q1065 -270 1050.5 -279.0Q1036 -288 1019 -288Q993 -288 974.5 -269.5Q956 -251 956 -225Q956 -208 963 -195L1671 1162L1678 1165Z" style="fill:#ca0b4a;stroke:none" transform="scale(1,-1) translate(0,-256)" /></svg>