<?xml version="1.0" encoding="utf-8" ?>
<svg baseProfile="full" height="256" version="1.1" width="256" xmlns="http://www.w3.org/2000/svg" xmlns:ev="http://www.w3.org/2001/xml-events" xmlns:xlink="http://www.w3.org/1999/xlink"><defs /><path d="M2123 1043Q2123 1028 2113 1018L1896 801Q1885 790 1871 790Q1856 790 1845.5 800.5Q1835 811 1835 826V935H1721Q1659 935 1606.0 909.0Q1553 883 1522 827Q1498 783 1472.5 733.0Q1447 683 1419.0 631.5Q1391 580 1359.0 530.5Q1327 481 1290.0 438.5Q1253 396 1210.0 363.0Q1167 330 1116 312Q1068 295 1011.5 291.0Q955 287 904 287Q859 287 813.5 287.5Q768 288 723 288Q708 288 697.5 298.5Q687 309 687 324V467Q687 482 697.5 492.5Q708 503 723 503Q751 503 796.5 502.0Q842 501 890.0 501.5Q938 502 981.5 505.5Q1025 509 1049 517Q1067 523 1086.0 539.5Q1105 556 1122.5 576.0Q1140 596 1155.0 617.0Q1170 638 1181 654Q1224 720 1258.5 788.5Q1293 857 1331 926Q1367 991 1412.0 1034.0Q1457 1077 1511.0 1103.0Q1565 1129 1627.5 1139.5Q1690 1150 1761 1150H1835V1260Q1835 1275 1845.5 1285.5Q1856 1296 1871 1296Q1885 1296 1896 1285L2113 1068Q2123 1058 2123 1043ZM1835 287Q1793 287 1751.5 286.5Q1710 286 1668 291Q1635 294 1599.5 303.0Q1564 312 1529.5 326.0Q1495 340 1464.5 359.5Q1434 379 1411 404Q1406 409 1406 416Q1406 418 1413.0 430.0Q1420 442 1430.0 459.0Q1440 476 1452.5 496.0Q1465 516 1476.5 534.0Q1488 552 1496.5 565.0Q1505 578 1508 581Q1514 589 1524 589Q1531 589 1544.0 575.5Q1557 562 1579.0 546.0Q1601 530 1633.5 516.5Q1666 503 1711 503H1835V613Q1835 628 1845.5 638.5Q1856 649 1871 649Q1885 649 1896 638L2113 421Q2123 411 2123 395Q2123 380 2113 370L1896 153Q1885 142 1871 142Q1856 142 1845.5 152.5Q1835 163 1835 178ZM948 1150Q987 1150 1030.5 1143.5Q1074 1137 1115.5 1123.0Q1157 1109 1193.5 1086.5Q1230 1064 1257 1033Q1266 1022 1266 1010Q1266 1004 1254.0 978.5Q1242 953 1226.5 923.5Q1211 894 1196.0 868.0Q1181 842 1176 836Q1171 831 1167.0 827.5Q1163 824 1156 824Q1148 824 1143.5 828.0Q1139 832 1134 838Q1112 869 1094.5 887.0Q1077 905 1057.0 914.5Q1037 924 1011.5 927.5Q986 931 949 935H948H723Q708 935 697.5 945.5Q687 956 687 971V1114Q687 1129 697.5 1139.5Q708 1150 723 1150Z" style="fill:#ffffff;stroke:none" transform="scale(1,-1) translate(0,-256)" /></svg>