<?xml version="1.0" encoding="utf-8" ?>
<svg baseProfile="full" height="256" version="1.1" width="256" xmlns="http://www.w3.org/2000/svg" xmlns:ev="http://www.w3.org/2001/xml-events" xmlns:xlink="http://www.w3.org/1999/xlink"><defs /><path d="M813 1186Q813 1177 810 1168H708Q705 1177 705 1186Q705 1209 720.5 1224.5Q736 1240 759 1240Q782 1240 797.5 1224.5Q813 1209 813 1186ZM992 1186Q992 1177 995 1168H1097Q1100 1177 1100 1186Q1100 1209 1084.5 1224.5Q1069 1240 1046 1240Q1023 1240 1007.5 1224.5Q992 1209 992 1186ZM1819 1186Q1819 1177 1816 1168H1714Q1711 1177 1711 1186Q1711 1208 1727.0 1224.0Q1743 1240 1765 1240Q1788 1240 1803.5 1224.5Q1819 1209 1819 1186ZM1999 1186Q1999 1177 2002 1168H2103Q2106 1177 2106 1186Q2106 1209 2090.5 1224.5Q2075 1240 2052 1240Q2029 1240 2014.0 1224.0Q1999 1208 1999 1186ZM1331 216Q1334 225 1334 234Q1334 257 1318.5 272.5Q1303 288 1280 288Q1257 288 1241.5 272.5Q1226 257 1226 234Q1226 225 1229 216ZM1481 216Q1479 221 1478.0 225.0Q1477 229 1477 234Q1477 256 1493.0 272.0Q1509 288 1531 288Q1554 288 1569.5 272.5Q1585 257 1585 234Q1585 225 1582 216Z" style="fill:#7d4533;stroke:none" transform="scale(1,-1) translate(0,-256)" /></svg>