<?xml version="1.0" encoding="utf-8" ?>
<svg baseProfile="full" height="256" version="1.1" width="256" xmlns="http://www.w3.org/2000/svg" xmlns:ev="http://www.w3.org/2001/xml-events" xmlns:xlink="http://www.w3.org/1999/xlink"><defs /><path d="M998 1712Q1037 1712 1072.0 1692.5Q1107 1673 1127 1640Q1157 1589 1215 1568Q1262 1551 1289.0 1513.0Q1316 1475 1316 1424Q1316 1401 1309.0 1383.5Q1302 1366 1293.5 1350.0Q1285 1334 1278.0 1318.5Q1271 1303 1271 1284V1180Q1269 1181 1263.5 1184.0Q1258 1187 1251.5 1190.0Q1245 1193 1239.0 1195.0Q1233 1197 1232 1197L574 1198Q572 1198 565.5 1195.5Q559 1193 552.0 1190.0Q545 1187 538.5 1184.0Q532 1181 530 1180V1284Q530 1303 523.0 1318.5Q516 1334 508.0 1349.5Q500 1365 493.0 1383.0Q486 1401 486 1427Q486 1476 514.0 1513.5Q542 1551 587 1568Q616 1579 637.5 1596.0Q659 1613 676 1640Q696 1672 731.0 1692.0Q766 1712 804 1712Q817 1712 829.0 1708.5Q841 1705 853.0 1701.5Q865 1698 876.5 1694.5Q888 1691 901 1691Q926 1691 949.0 1701.5Q972 1712 998 1712ZM666 965Q667 956 659.0 947.5Q651 939 641.0 930.5Q631 922 622.5 914.0Q614 906 614 898Q614 895 615 893Q576 909 553.0 943.5Q530 978 530 1020V1079Q537 1074 554.5 1070.5Q572 1067 592.5 1065.0Q613 1063 632.0 1061.5Q651 1060 660 1060ZM1140 963Q1140 986 1142.0 1010.5Q1144 1035 1146 1058Q1155 1059 1173.5 1060.5Q1192 1062 1212.0 1064.5Q1232 1067 1249.0 1070.5Q1266 1074 1272 1078V1021Q1272 980 1250.0 946.0Q1228 912 1190 895Q1194 904 1186.5 912.5Q1179 921 1168.5 929.5Q1158 938 1149.0 946.5Q1140 955 1140 963ZM2005 1712Q2043 1712 2078.0 1692.0Q2113 1672 2133 1640Q2165 1589 2221 1568Q2269 1551 2295.5 1513.0Q2322 1475 2322 1424Q2322 1400 2315.0 1382.5Q2308 1365 2299.5 1349.5Q2291 1334 2284.0 1318.5Q2277 1303 2277 1284V1180Q2275 1181 2269.5 1184.0Q2264 1187 2257.5 1190.0Q2251 1193 2245.5 1195.0Q2240 1197 2238 1197L1581 1198Q1578 1198 1571.5 1195.5Q1565 1193 1558.0 1190.0Q1551 1187 1544.5 1184.0Q1538 1181 1536 1180V1284Q1536 1303 1529.0 1318.5Q1522 1334 1514.0 1349.5Q1506 1365 1499.0 1382.0Q1492 1399 1492 1422Q1492 1474 1519.0 1512.0Q1546 1550 1594 1568Q1652 1589 1683 1640Q1703 1672 1737.0 1692.0Q1771 1712 1810 1712Q1823 1712 1835.0 1708.5Q1847 1705 1859.0 1701.5Q1871 1698 1882.5 1694.5Q1894 1691 1907 1691Q1920 1691 1931.5 1694.5Q1943 1698 1955.0 1701.5Q1967 1705 1979.0 1708.5Q1991 1712 2005 1712ZM1536 1079Q1543 1074 1560.5 1070.5Q1578 1067 1598.5 1065.0Q1619 1063 1638.0 1061.5Q1657 1060 1666 1060L1672 965Q1673 955 1663.5 946.0Q1654 937 1643.5 928.5Q1633 920 1625.5 911.0Q1618 902 1622 893Q1582 908 1559.0 943.0Q1536 978 1536 1020ZM2146 967 2152 1058Q2161 1059 2180.0 1060.5Q2199 1062 2218.5 1064.5Q2238 1067 2255.5 1070.5Q2273 1074 2279 1078V1021Q2279 980 2256.0 946.0Q2233 912 2197 895Q2198 897 2198 900Q2198 908 2189.5 916.0Q2181 924 2171.0 932.5Q2161 941 2153.0 949.5Q2145 958 2146 967ZM1671 566Q1722 541 1751.0 497.0Q1780 453 1780 396V344Q1780 320 1764.5 313.0Q1749 306 1729 306V216H1065V301Q1047 301 1034.0 313.0Q1021 325 1021 344V431Q1021 474 1037.0 509.5Q1053 545 1081.0 569.5Q1109 594 1145.5 607.5Q1182 621 1224 621L1226 622Q1231 646 1250.0 664.5Q1269 683 1295 683H1611Q1649 683 1679.5 660.5Q1710 638 1722 602Q1724 596 1724 593Q1724 581 1718.5 575.5Q1713 570 1705.0 568.0Q1697 566 1688.0 566.0Q1679 566 1671 566ZM1080 180H1235V-46H1205Q1179 -46 1156.5 -36.0Q1134 -26 1117.0 -9.0Q1100 8 1090.0 30.5Q1080 53 1080 79ZM1571 180H1722V79Q1722 54 1712.5 31.5Q1703 9 1686.5 -8.5Q1670 -26 1648.0 -36.0Q1626 -46 1601 -46H1571Z" style="fill:#f1a11e;stroke:none" transform="scale(1,-1) translate(0,-256)" /></svg>