<?xml version="1.0" encoding="utf-8" ?>
<svg baseProfile="full" height="256" version="1.1" width="256" xmlns="http://www.w3.org/2000/svg" xmlns:ev="http://www.w3.org/2001/xml-events" xmlns:xlink="http://www.w3.org/1999/xlink"><defs /><path d="M705 1150Q705 1128 696.5 1108.5Q688 1089 673.0 1074.0Q658 1059 638.5 1050.5Q619 1042 597 1042Q575 1042 555.5 1050.5Q536 1059 521.5 1074.0Q507 1089 498.5 1108.5Q490 1128 490 1150Q490 1172 498.5 1191.5Q507 1211 521.0 1226.0Q535 1241 554.5 1249.5Q574 1258 597 1258Q619 1258 639.0 1249.5Q659 1241 673.5 1226.5Q688 1212 696.5 1192.0Q705 1172 705 1150ZM1316 1150Q1316 1128 1307.5 1108.5Q1299 1089 1284.0 1074.0Q1269 1059 1249.5 1050.5Q1230 1042 1208 1042Q1186 1042 1166.5 1050.5Q1147 1059 1132.0 1074.0Q1117 1089 1108.5 1108.5Q1100 1128 1100 1150Q1100 1172 1108.5 1191.5Q1117 1211 1132.0 1226.0Q1147 1241 1166.5 1249.5Q1186 1258 1208 1258Q1230 1258 1250.0 1249.5Q1270 1241 1284.5 1226.5Q1299 1212 1307.5 1192.0Q1316 1172 1316 1150ZM1604 1042Q1626 1042 1645.5 1050.5Q1665 1059 1679.5 1074.0Q1694 1089 1702.5 1108.5Q1711 1128 1711 1150Q1711 1172 1702.5 1191.5Q1694 1211 1680.0 1226.0Q1666 1241 1646.0 1249.5Q1626 1258 1604 1258Q1581 1258 1561.5 1249.5Q1542 1241 1527.5 1226.5Q1513 1212 1504.5 1192.0Q1496 1172 1496 1150Q1496 1128 1504.5 1108.5Q1513 1089 1528.0 1074.0Q1543 1059 1562.5 1050.5Q1582 1042 1604 1042ZM2322 1150Q2322 1128 2313.5 1108.5Q2305 1089 2290.5 1074.0Q2276 1059 2256.5 1050.5Q2237 1042 2215 1042Q2193 1042 2173.5 1050.5Q2154 1059 2139.0 1074.0Q2124 1089 2115.5 1108.5Q2107 1128 2107 1150Q2107 1172 2115.5 1192.0Q2124 1212 2138.5 1226.5Q2153 1241 2172.5 1249.5Q2192 1258 2215 1258Q2237 1258 2257.0 1249.5Q2277 1241 2291.0 1226.0Q2305 1211 2313.5 1191.5Q2322 1172 2322 1150ZM1693 230 1691 331Q1686 332 1677 332Q1658 332 1641.0 324.5Q1624 317 1611.0 304.5Q1598 292 1590.5 275.0Q1583 258 1583 239Q1583 219 1590.5 202.0Q1598 185 1610.5 172.5Q1623 160 1640.0 152.5Q1657 145 1677 145Q1716 145 1743.0 172.5Q1770 200 1770 239Q1770 264 1757.5 285.5Q1745 307 1723 320Q1723 311 1724.5 295.5Q1726 280 1724.5 265.5Q1723 251 1716.0 240.5Q1709 230 1693 230ZM1076 317Q1056 304 1045.0 283.0Q1034 262 1034 239Q1034 200 1061.0 172.5Q1088 145 1127 145Q1146 145 1163.5 152.5Q1181 160 1193.5 172.5Q1206 185 1213.5 202.0Q1221 219 1221 239Q1221 258 1213.5 275.0Q1206 292 1193.0 304.5Q1180 317 1163.0 324.5Q1146 332 1127 332Q1122 332 1117.5 332.0Q1113 332 1108 330V231Q1093 231 1086.0 241.0Q1079 251 1077.0 264.5Q1075 278 1075.5 292.5Q1076 307 1076 317Z" style="fill:#fdbb11;stroke:none" transform="scale(1,-1) translate(0,-256)" /></svg>