<?xml version="1.0" encoding="utf-8" ?>
<svg baseProfile="full" height="256" version="1.1" width="256" xmlns="http://www.w3.org/2000/svg" xmlns:ev="http://www.w3.org/2001/xml-events" xmlns:xlink="http://www.w3.org/1999/xlink"><defs /><path d="M904 965Q953 965 996 988Q1002 988 1005.5 986.5Q1009 985 1011 979Q1008 965 995.5 953.5Q983 942 966.5 934.0Q950 926 933.0 921.5Q916 917 903 917Q871 917 843.0 932.0Q815 947 796 973L795 979Q797 988 806 988H810Q834 978 856.0 971.5Q878 965 904 965ZM1910 965Q1925 965 1941.0 968.5Q1957 972 1971.0 976.5Q1985 981 1994.5 984.5Q2004 988 2006 988Q2015 988 2017 979L2016 973Q1997 947 1969.0 932.0Q1941 917 1909 917Q1878 917 1849.0 932.0Q1820 947 1803 973Q1801 977 1801 979Q1803 982 1804.5 985.0Q1806 988 1810 988H1816Q1860 965 1910 965ZM1405 50Q1439 50 1461.0 60.5Q1483 71 1495 72Q1502 69 1503 63L1502 57Q1485 31 1460.5 15.5Q1436 0 1404 0Q1372 0 1347.5 15.5Q1323 31 1306 57L1305 63L1308 69L1313 72Q1325 71 1347.5 60.5Q1370 50 1405 50Z" style="fill:#990839;stroke:none" transform="scale(1,-1) translate(0,-256)" /></svg>