<?xml version="1.0" encoding="utf-8" ?>
<svg baseProfile="full" height="256" version="1.1" width="256" xmlns="http://www.w3.org/2000/svg" xmlns:ev="http://www.w3.org/2001/xml-events" xmlns:xlink="http://www.w3.org/1999/xlink"><defs /><path d="M1136 1284Q1134 1284 1131.5 1285.0Q1129 1286 1127 1287Q1098 1301 1076.5 1303.0Q1055 1305 1024 1305Q1019 1305 1012.5 1309.0Q1006 1313 1006 1319Q1006 1338 1019.5 1340.0Q1033 1342 1047 1342Q1054 1342 1071.5 1339.5Q1089 1337 1107.0 1332.5Q1125 1328 1139.0 1321.0Q1153 1314 1153 1304Q1153 1296 1148.5 1290.0Q1144 1284 1136 1284ZM674 1283Q672 1283 667.5 1284.0Q663 1285 661 1287Q653 1290 653 1300Q653 1310 666.5 1317.5Q680 1325 697.5 1329.5Q715 1334 732.5 1336.0Q750 1338 758 1338Q763 1338 770.0 1338.0Q777 1338 783.0 1336.5Q789 1335 793.5 1331.0Q798 1327 798 1320Q798 1310 793.5 1306.0Q789 1302 783.0 1301.5Q777 1301 769.5 1302.0Q762 1303 756 1303Q744 1303 730.5 1300.0Q717 1297 705.5 1293.0Q694 1289 685.5 1286.0Q677 1283 674 1283ZM2142 1284Q2140 1284 2137.5 1285.0Q2135 1286 2133 1287Q2104 1300 2082.5 1302.5Q2061 1305 2030 1305Q2013 1305 2013 1323Q2013 1331 2017.5 1335.0Q2022 1339 2028.0 1340.5Q2034 1342 2041.0 1342.0Q2048 1342 2054 1342Q2061 1342 2078.5 1340.0Q2096 1338 2114.0 1333.5Q2132 1329 2145.5 1321.5Q2159 1314 2159 1304Q2159 1296 2154.5 1290.0Q2150 1284 2142 1284ZM1680 1283Q1672 1283 1665.5 1287.5Q1659 1292 1659 1300Q1659 1310 1672.5 1317.5Q1686 1325 1703.5 1329.5Q1721 1334 1738.5 1336.0Q1756 1338 1764 1338Q1777 1338 1791.0 1336.0Q1805 1334 1805 1316Q1805 1308 1800.0 1305.5Q1795 1303 1788.0 1302.0Q1781 1301 1773.5 1302.0Q1766 1303 1762 1303Q1750 1303 1736.5 1300.0Q1723 1297 1711.5 1293.0Q1700 1289 1691.5 1286.0Q1683 1283 1680 1283ZM1274 337Q1260 337 1245.5 332.5Q1231 328 1220 328Q1215 328 1210.0 332.5Q1205 337 1205 343Q1205 351 1213.5 355.5Q1222 360 1234.0 362.5Q1246 365 1257.5 365.5Q1269 366 1275 366Q1283 366 1294.5 364.5Q1306 363 1306 351Q1306 337 1294.5 337.0Q1283 337 1274 337ZM1529 366Q1535 366 1546.5 365.5Q1558 365 1570.0 362.5Q1582 360 1590.5 355.5Q1599 351 1599 343Q1599 337 1594.0 332.5Q1589 328 1584 328Q1573 328 1558.5 332.5Q1544 337 1530 337Q1525 337 1521.0 336.5Q1517 336 1512 336Q1506 336 1502.0 340.5Q1498 345 1498 351Q1498 363 1509.5 364.5Q1521 366 1529 366Z" style="fill:#d37034;stroke:none" transform="scale(1,-1) translate(0,-256)" /></svg>