<?xml version="1.0" encoding="utf-8" ?>
<svg baseProfile="full" height="256" version="1.1" width="256" xmlns="http://www.w3.org/2000/svg" xmlns:ev="http://www.w3.org/2001/xml-events" xmlns:xlink="http://www.w3.org/1999/xlink"><defs /><path d="M745 1211Q745 1201 734 1201Q723 1201 723 1211Q723 1222 734 1222Q745 1222 745 1211ZM1032 1211Q1032 1201 1021 1201Q1011 1201 1011 1211Q1011 1222 1021 1222Q1032 1222 1032 1211ZM1751 1211Q1751 1201 1740 1201Q1729 1201 1729 1211Q1729 1222 1740 1222Q1751 1222 1751 1211ZM2038 1211Q2038 1201 2028 1201Q2017 1201 2017 1211Q2017 1222 2028 1222Q2038 1222 2038 1211ZM1255 248Q1265 248 1265 259Q1265 270 1255 270Q1244 270 1244 259Q1244 248 1255 248ZM1507 248Q1517 248 1517 259Q1517 270 1507 270Q1496 270 1496 259Q1496 248 1507 248Z" style="fill:#ffffff;stroke:none" transform="scale(1,-1) translate(0,-256)" /></svg>