<?xml version="1.0" encoding="utf-8" ?>
<svg baseProfile="full" height="256" version="1.1" width="256" xmlns="http://www.w3.org/2000/svg" xmlns:ev="http://www.w3.org/2001/xml-events" xmlns:xlink="http://www.w3.org/1999/xlink"><defs /><path d="M574 1322Q574 1366 591.0 1405.5Q608 1445 637.5 1474.5Q667 1504 706.5 1521.0Q746 1538 790 1538H872Q887 1538 897.0 1528.0Q907 1518 917.0 1503.0Q927 1488 939.0 1472.0Q951 1456 970 1444Q1002 1423 1035.0 1421.0Q1068 1419 1099.5 1419.5Q1131 1420 1159.5 1416.5Q1188 1413 1209 1391Q1217 1382 1226.0 1366.0Q1235 1350 1235 1338Q1235 1336 1234.5 1335.5Q1234 1335 1234 1333L1212 967Q1211 946 1203.5 924.5Q1196 903 1184.5 882.5Q1173 862 1158.0 844.0Q1143 826 1128 813Q1093 783 1051.0 767.0Q1009 751 963 751H842Q796 751 754.5 767.5Q713 784 678 813Q663 826 648.5 844.0Q634 862 622.5 882.5Q611 903 603.0 924.5Q595 946 594 967Q588 1056 581.0 1144.5Q574 1233 574 1322ZM1581 1322Q1581 1366 1598.0 1405.5Q1615 1445 1644.0 1474.5Q1673 1504 1712.0 1521.0Q1751 1538 1796 1538H1878Q1891 1538 1902 1530Q1909 1525 1915.0 1515.5Q1921 1506 1929.0 1494.0Q1937 1482 1948.5 1468.5Q1960 1455 1977 1444Q2009 1423 2042.5 1420.5Q2076 1418 2107.5 1419.0Q2139 1420 2167.0 1416.5Q2195 1413 2216 1391Q2224 1383 2232.5 1366.0Q2241 1349 2241 1338Q2241 1336 2240.5 1335.5Q2240 1335 2240 1333L2218 967Q2215 922 2192.5 882.5Q2170 843 2135.0 814.0Q2100 785 2056.5 768.0Q2013 751 1969 751H1849Q1805 751 1762.0 767.5Q1719 784 1684.0 813.0Q1649 842 1626.5 881.5Q1604 921 1601 967Q1595 1056 1588.0 1144.5Q1581 1233 1581 1322ZM1399 -118Q1339 -118 1287.5 -95.5Q1236 -73 1197.5 -34.5Q1159 4 1136.5 55.5Q1114 107 1112 166Q1110 208 1109.0 249.5Q1108 291 1108 333Q1108 356 1125.5 373.0Q1143 390 1165 390H1203Q1222 390 1241.0 396.5Q1260 403 1276.0 414.5Q1292 426 1303.0 442.0Q1314 458 1318 478Q1345 439 1378.5 420.5Q1412 402 1447.5 395.0Q1483 388 1518.0 389.5Q1553 391 1584.5 392.5Q1616 394 1640.5 390.5Q1665 387 1680 372Q1688 364 1693.0 352.5Q1698 341 1698 330Q1698 288 1696.5 247.5Q1695 207 1693 166Q1691 104 1668.0 52.0Q1645 0 1606.0 -38.0Q1567 -76 1514.0 -97.0Q1461 -118 1399 -118Z" style="fill:#ffc83d;stroke:none" transform="scale(1,-1) translate(0,-256)" /></svg>