<?xml version="1.0" encoding="utf-8" ?>
<svg baseProfile="full" height="256" version="1.1" width="256" xmlns="http://www.w3.org/2000/svg" xmlns:ev="http://www.w3.org/2001/xml-events" xmlns:xlink="http://www.w3.org/1999/xlink"><defs /><path d="M795 1186Q795 1176 790 1168H728Q723 1176 723 1186Q723 1201 733.5 1211.5Q744 1222 759 1222Q774 1222 784.5 1211.5Q795 1201 795 1186ZM1010 1186Q1010 1176 1015 1168H1077Q1082 1176 1082 1186Q1082 1201 1071.5 1211.5Q1061 1222 1046 1222Q1031 1222 1020.5 1211.5Q1010 1201 1010 1186ZM1801 1186Q1801 1181 1800.0 1176.5Q1799 1172 1796 1168H1734Q1729 1176 1729 1186Q1729 1201 1739.5 1211.5Q1750 1222 1765 1222Q1780 1222 1790.5 1211.5Q1801 1201 1801 1186ZM2017 1186Q2017 1175 2021 1168H2084Q2088 1175 2088 1186Q2088 1201 2077.5 1211.5Q2067 1222 2052 1222Q2038 1222 2027.5 1211.0Q2017 1200 2017 1186ZM1311 216Q1316 224 1316 234Q1316 249 1305.5 259.5Q1295 270 1280 270Q1265 270 1254.5 259.5Q1244 249 1244 234Q1244 224 1249 216ZM1500 216Q1495 224 1495 234Q1495 248 1506.0 259.0Q1517 270 1531 270Q1546 270 1556.5 259.5Q1567 249 1567 234Q1567 229 1566.0 224.5Q1565 220 1562 216Z" style="fill:#000000;stroke:none" transform="scale(1,-1) translate(0,-256)" /></svg>