<?xml version="1.0" encoding="utf-8" ?>
<svg baseProfile="full" height="256" version="1.1" width="256" xmlns="http://www.w3.org/2000/svg" xmlns:ev="http://www.w3.org/2001/xml-events" xmlns:xlink="http://www.w3.org/1999/xlink"><defs /><path d="M1404 -287Q1373 -287 1353.0 -267.0Q1333 -247 1329 -217Q1325 -182 1325.5 -145.0Q1326 -108 1324 -72H1177Q1154 -72 1148.5 -55.5Q1143 -39 1143 -21Q1143 16 1156.5 46.5Q1170 77 1193.5 99.5Q1217 122 1248.5 134.5Q1280 147 1316 147L1312 251H1242Q1186 251 1137.5 272.5Q1089 294 1053.0 331.0Q1017 368 996.5 417.5Q976 467 976 522Q976 579 995.5 628.0Q1015 677 1050.5 714.0Q1086 751 1134.5 772.0Q1183 793 1240 793H1292L1288 896H1097Q1041 896 992.5 917.5Q944 939 908.0 976.0Q872 1013 851.5 1062.0Q831 1111 831 1167Q831 1224 850.5 1273.5Q870 1323 905.0 1359.5Q940 1396 988.5 1417.0Q1037 1438 1095 1438H1268Q1266 1475 1264.0 1512.0Q1262 1549 1262 1586Q1262 1616 1273.5 1641.0Q1285 1666 1305.0 1685.0Q1325 1704 1351.0 1714.5Q1377 1725 1406 1725Q1436 1725 1462.5 1714.0Q1489 1703 1508.5 1683.5Q1528 1664 1539.0 1637.5Q1550 1611 1550 1581Q1550 1545 1548.0 1509.5Q1546 1474 1544 1438H1947Q1961 1438 1971.0 1427.5Q1981 1417 1981 1403Q1981 1365 1967.0 1331.5Q1953 1298 1928.5 1273.0Q1904 1248 1870.5 1233.5Q1837 1219 1799 1219H1536L1532 1115H1643Q1699 1115 1747.5 1093.5Q1796 1072 1832.0 1035.0Q1868 998 1888.5 948.5Q1909 899 1909 844Q1909 787 1889.5 738.0Q1870 689 1835.0 652.0Q1800 615 1751.5 594.0Q1703 573 1646 573H1512L1508 470H1567Q1622 470 1670.5 448.0Q1719 426 1755.0 389.0Q1791 352 1811.5 303.0Q1832 254 1832 199Q1832 142 1812.5 93.0Q1793 44 1758.0 7.0Q1723 -30 1674.5 -51.0Q1626 -72 1569 -72H1488Q1486 -108 1486.5 -145.0Q1487 -182 1483 -217Q1480 -249 1458.0 -268.0Q1436 -287 1404 -287ZM1304 470 1300 573H1242Q1221 573 1206.0 558.0Q1191 543 1191 522Q1191 501 1206.0 485.5Q1221 470 1242 470ZM1280 1115 1276 1219H1097Q1076 1219 1061.0 1203.0Q1046 1187 1046 1167Q1046 1147 1061.0 1131.0Q1076 1115 1097 1115ZM1524 896 1520 793H1643Q1664 793 1679.0 808.0Q1694 823 1694 844Q1694 865 1679.5 880.5Q1665 896 1643 896ZM1500 251 1496 147H1567Q1588 147 1603.0 163.0Q1618 179 1618 199Q1618 220 1603.0 235.5Q1588 251 1567 251Z" style="fill:#00a6ed;stroke:none" transform="scale(1,-1) translate(0,-256)" /></svg>