<?xml version="1.0" encoding="utf-8" ?>
<svg baseProfile="full" height="256" version="1.1" width="256" xmlns="http://www.w3.org/2000/svg" xmlns:ev="http://www.w3.org/2001/xml-events" xmlns:xlink="http://www.w3.org/1999/xlink"><defs /><path d="M1013 1153Q1013 1162 1013.5 1187.5Q1014 1213 1017.5 1239.5Q1021 1266 1028.5 1286.5Q1036 1307 1050 1307Q1063 1307 1084.5 1285.0Q1106 1263 1126.5 1234.0Q1147 1205 1162.0 1176.5Q1177 1148 1177 1134Q1177 1116 1169.0 1101.5Q1161 1087 1148.5 1076.5Q1136 1066 1119.5 1060.5Q1103 1055 1087 1055Q1076 1055 1064.0 1059.0Q1052 1063 1041.5 1070.5Q1031 1078 1023.5 1088.0Q1016 1098 1014 1109Q1012 1120 1012.5 1131.0Q1013 1142 1013 1153ZM1410 997Q1397 997 1370.0 988.5Q1343 980 1310.0 966.0Q1277 952 1241.5 935.0Q1206 918 1175.5 900.5Q1145 883 1123.5 867.0Q1102 851 1096 840Q1091 831 1088.5 812.0Q1086 793 1084.5 772.0Q1083 751 1082.5 731.0Q1082 711 1082 700Q1082 688 1082.5 668.5Q1083 649 1084.5 628.0Q1086 607 1088.5 588.5Q1091 570 1096 559Q1107 533 1142.5 508.0Q1178 483 1221.0 462.5Q1264 442 1307.0 428.0Q1350 414 1376 411Q1401 408 1427 408Q1454 408 1476.5 413.0Q1499 418 1515.5 430.0Q1532 442 1541.0 462.0Q1550 482 1550 512V899Q1550 927 1537.0 946.0Q1524 965 1503.5 976.0Q1483 987 1458.0 992.0Q1433 997 1410 997ZM1604 1280Q1591 1280 1568.0 1266.5Q1545 1253 1521.0 1235.0Q1497 1217 1476.0 1198.0Q1455 1179 1447 1168Q1441 1160 1438.5 1149.0Q1436 1138 1436 1128Q1436 1110 1443.5 1095.0Q1451 1080 1464.0 1069.0Q1477 1058 1493.0 1052.0Q1509 1046 1526 1046Q1544 1046 1561.0 1055.0Q1578 1064 1587 1079Q1593 1089 1599.5 1111.5Q1606 1134 1612.0 1159.0Q1618 1184 1621.5 1207.0Q1625 1230 1625 1242Q1625 1253 1621.5 1266.5Q1618 1280 1604 1280Z" style="fill:#d3883e;stroke:none" transform="scale(1,-1) translate(0,-256)" /></svg>