<?xml version="1.0" encoding="utf-8" ?>
<svg baseProfile="full" height="256" version="1.1" width="256" xmlns="http://www.w3.org/2000/svg" xmlns:ev="http://www.w3.org/2001/xml-events" xmlns:xlink="http://www.w3.org/1999/xlink"><defs /><path d="M742 1198Q738 1214 729.5 1248.0Q721 1282 712.0 1318.5Q703 1355 696.0 1387.5Q689 1420 689 1432Q689 1462 710.5 1483.0Q732 1504 761 1504Q770 1504 789.5 1496.5Q809 1489 833.5 1477.5Q858 1466 885.5 1451.5Q913 1437 938.5 1423.5Q964 1410 984.0 1399.0Q1004 1388 1015 1383Q1059 1401 1103 1413L1232 1684Q1241 1703 1258.5 1714.0Q1276 1725 1297 1725Q1318 1725 1335.5 1714.0Q1353 1703 1362 1683L1484 1415Q1535 1402 1583.0 1382.5Q1631 1363 1677 1337Q1692 1343 1725.5 1358.5Q1759 1374 1796.0 1389.5Q1833 1405 1865.5 1417.0Q1898 1429 1910 1429Q1939 1429 1960.5 1408.0Q1982 1387 1982 1358Q1982 1346 1973.0 1314.0Q1964 1282 1952.5 1245.0Q1941 1208 1929.5 1174.5Q1918 1141 1914 1126Q2007 1001 2042 849Q2004 737 1953.5 632.5Q1903 528 1830.5 447.0Q1758 366 1660.5 317.0Q1563 268 1432 268Q1381 268 1328.5 273.0Q1276 278 1226 288Q1148 358 1073.0 430.5Q998 503 924 578Q909 593 883.5 619.5Q858 646 826.5 677.5Q795 709 759.5 741.0Q724 773 690.5 799.5Q657 826 626.5 842.5Q596 859 575 859H570Q594 852 608.5 832.0Q623 812 623 787Q623 762 609.0 742.5Q595 723 572 715Q595 707 609.0 687.5Q623 668 623 643Q623 611 601.0 589.0Q579 567 547 567Q516 567 494.0 589.5Q472 612 472 643Q472 668 486.0 687.5Q500 707 523 715Q500 723 486.0 742.5Q472 762 472 787Q472 818 494.0 840.5Q516 863 547 863Q550 863 552.5 862.5Q555 862 558 862Q581 956 628.5 1041.5Q676 1127 742 1198ZM2054 658Q2054 708 2071.5 757.5Q2089 807 2121.0 846.5Q2153 886 2197.0 910.5Q2241 935 2295 935Q2316 935 2325.5 917.5Q2335 900 2338.0 876.0Q2341 852 2340.0 828.0Q2339 804 2339 791V434Q2339 416 2337.0 402.5Q2335 389 2329.0 379.5Q2323 370 2310.5 365.0Q2298 360 2277 360Q2254 360 2232.0 367.5Q2210 375 2190 386Q2154 407 2128.0 437.0Q2102 467 2085.5 503.0Q2069 539 2061.5 578.5Q2054 618 2054 658Z" style="fill:#f3ad61;stroke:none" transform="scale(1,-1) translate(0,-256)" /></svg>