<?xml version="1.0" encoding="utf-8" ?>
<svg baseProfile="full" height="256" version="1.1" width="256" xmlns="http://www.w3.org/2000/svg" xmlns:ev="http://www.w3.org/2001/xml-events" xmlns:xlink="http://www.w3.org/1999/xlink"><defs /><path d="M1443 -76 1362 -254Q1353 -274 1335.5 -285.0Q1318 -296 1297 -296Q1276 -296 1258.5 -285.0Q1241 -274 1232 -255L1146 -75Q1064 -58 988.0 -24.5Q912 9 845 59Q833 53 811.5 41.0Q790 29 766.0 17.5Q742 6 720.0 -3.0Q698 -12 686 -12Q657 -12 636.0 9.0Q615 30 615 59Q615 71 620.5 98.0Q626 125 633.5 155.0Q641 185 648.5 213.0Q656 241 659 256Q598 350 566.0 456.0Q534 562 534 674Q534 720 539.5 765.5Q545 811 556 856Q590 869 625.5 876.0Q661 883 697 883Q770 883 829.5 857.0Q889 831 937.0 787.5Q985 744 1023.0 688.0Q1061 632 1091 571Q1113 526 1160.5 493.5Q1208 461 1265.5 439.5Q1323 418 1382.5 408.0Q1442 398 1487 398Q1594 398 1682.0 432.0Q1770 466 1839.0 526.5Q1908 587 1958.5 669.5Q2009 752 2042 849Q2062 761 2062 674Q2062 559 2028.5 450.0Q1995 341 1931 246Q1935 232 1943.5 207.0Q1952 182 1960.5 155.0Q1969 128 1975.5 104.0Q1982 80 1982 68Q1982 39 1961.0 17.5Q1940 -4 1911 -4Q1899 -4 1877.0 3.5Q1855 11 1831.0 21.5Q1807 32 1784.5 42.5Q1762 53 1750 58Q1681 7 1604.0 -26.0Q1527 -59 1443 -76Z" style="fill:#fbb8ab;stroke:none" transform="scale(1,-1) translate(0,-256)" /></svg>