<?xml version="1.0" encoding="utf-8" ?>
<svg baseProfile="full" height="256" version="1.1" width="256" xmlns="http://www.w3.org/2000/svg" xmlns:ev="http://www.w3.org/2001/xml-events" xmlns:xlink="http://www.w3.org/1999/xlink"><defs /><path d="M1927 1725Q1983 1725 2032.0 1704.0Q2081 1683 2118.0 1646.5Q2155 1610 2176.0 1561.0Q2197 1512 2197 1456V719H2053V1456Q2053 1482 2043.0 1505.0Q2033 1528 2016.0 1545.0Q1999 1562 1976.0 1571.5Q1953 1581 1927 1581Q1901 1581 1878.0 1571.0Q1855 1561 1838.0 1544.0Q1821 1527 1811.0 1504.5Q1801 1482 1801 1456V1422Q1852 1404 1889.5 1362.5Q1927 1321 1938 1267Q1938 1265 1938.5 1263.5Q1939 1262 1939 1260Q1939 1248 1932.5 1241.0Q1926 1234 1916.0 1229.5Q1906 1225 1895.5 1223.5Q1885 1222 1876 1222H1558Q1543 1222 1531.5 1233.0Q1520 1244 1520 1259Q1520 1264 1521 1267Q1534 1321 1569.0 1362.0Q1604 1403 1658 1422V1456Q1658 1512 1679.0 1561.0Q1700 1610 1736.5 1646.5Q1773 1683 1822.0 1704.0Q1871 1725 1927 1725Z" style="fill:#9b9b9b;stroke:none" transform="scale(1,-1) translate(0,-256)" /></svg>