<?xml version="1.0" encoding="utf-8" ?>
<svg baseProfile="full" height="256" version="1.1" width="256" xmlns="http://www.w3.org/2000/svg" xmlns:ev="http://www.w3.org/2001/xml-events" xmlns:xlink="http://www.w3.org/1999/xlink"><defs /><path d="M544 648Q544 670 552.5 689.5Q561 709 575.5 723.5Q590 738 609.5 746.5Q629 755 651 755H2233Q2255 755 2274.5 746.5Q2294 738 2308.5 723.0Q2323 708 2331.5 688.5Q2340 669 2340 647Q2340 630 2336 617L2245 306Q2218 214 2164.5 137.5Q2111 61 2038.0 6.5Q1965 -48 1877.0 -78.0Q1789 -108 1693 -108H1190Q1094 -108 1006.0 -77.5Q918 -47 845.0 7.5Q772 62 718.5 138.0Q665 214 638 306L548 617Q544 630 544 648Z" style="fill:#e1d8ec;stroke:none" transform="scale(1,-1) translate(0,-256)" /></svg>