<?xml version="1.0" encoding="utf-8" ?>
<svg baseProfile="full" height="256" version="1.1" width="256" xmlns="http://www.w3.org/2000/svg" xmlns:ev="http://www.w3.org/2001/xml-events" xmlns:xlink="http://www.w3.org/1999/xlink"><defs /><path d="M656 1021Q656 1007 662.0 991.0Q668 975 679 966Q675 963 673.5 957.5Q672 952 672 947Q672 922 691.0 900.5Q710 879 732.5 859.5Q755 840 774.0 821.5Q793 803 793 784Q793 775 786.5 762.0Q780 749 770.0 737.0Q760 725 748.5 716.5Q737 708 728 708Q711 708 698.0 719.5Q685 731 685 748Q685 764 697 779Q690 771 676.5 768.0Q663 765 654 765Q631 765 605.5 774.0Q580 783 555.0 796.0Q530 809 507.5 824.5Q485 840 468 854Q439 877 419.0 908.0Q399 939 399 977Q399 1003 407.5 1027.0Q416 1051 430.5 1073.0Q445 1095 463.0 1113.5Q481 1132 501 1147Q521 1162 532.0 1177.0Q543 1192 551.0 1207.5Q559 1223 567.0 1239.5Q575 1256 590 1275Q601 1289 618.0 1299.0Q635 1309 654 1309Q670 1309 686.0 1301.0Q702 1293 715.0 1280.5Q728 1268 736.0 1252.0Q744 1236 744 1220Q744 1191 730.0 1167.5Q716 1144 699.5 1121.0Q683 1098 669.5 1074.0Q656 1050 656 1021Z" style="fill:#f1a11e;stroke:none" transform="scale(1,-1) translate(0,-256)" /></svg>