<?xml version="1.0" encoding="utf-8" ?>
<svg baseProfile="full" height="256" version="1.1" width="256" xmlns="http://www.w3.org/2000/svg" xmlns:ev="http://www.w3.org/2001/xml-events" xmlns:xlink="http://www.w3.org/1999/xlink"><defs /><path d="M834 778Q816 778 797.5 783.0Q779 788 760.0 795.5Q741 803 723.0 811.5Q705 820 689 827Q661 838 633.5 849.0Q606 860 578 872Q576 873 571.0 878.0Q566 883 564 885Q543 907 531.0 935.5Q519 964 519 994Q519 1047 551 1088Q570 1113 588.0 1137.5Q606 1162 626.5 1181.5Q647 1201 673.0 1213.0Q699 1225 734 1225Q757 1225 775.5 1219.5Q794 1214 810.5 1204.0Q827 1194 843.0 1181.5Q859 1169 877 1155Q889 1153 905.5 1152.5Q922 1152 937.0 1149.0Q952 1146 962.5 1138.5Q973 1131 973 1115Q973 1100 964 1088V1087Q978 1076 993.0 1062.5Q1008 1049 1021.0 1033.0Q1034 1017 1042.0 999.5Q1050 982 1050 962Q1050 928 1028.0 895.0Q1006 862 973.5 836.0Q941 810 903.5 794.0Q866 778 834 778ZM1317 537 1575 984Q1595 1019 1629.0 1038.5Q1663 1058 1703 1058Q1744 1058 1778.0 1038.5Q1812 1019 1832 984L2090 537Z" style="fill:#ffc83d;stroke:none" transform="scale(1,-1) translate(0,-256)" /></svg>