<?xml version="1.0" encoding="utf-8" ?>
<svg baseProfile="full" height="256" version="1.1" width="256" xmlns="http://www.w3.org/2000/svg" xmlns:ev="http://www.w3.org/2001/xml-events" xmlns:xlink="http://www.w3.org/1999/xlink"><defs /><path d="M1249 531Q1201 531 1159.5 549.0Q1118 567 1086.5 598.5Q1055 630 1037.0 671.5Q1019 713 1019 761Q1019 809 1037.0 850.5Q1055 892 1086.5 923.5Q1118 955 1159.5 973.0Q1201 991 1249 991Q1316 991 1372.0 955.5Q1428 920 1457 860Q1480 881 1508.5 892.0Q1537 903 1568 903Q1609 903 1645.5 883.5Q1682 864 1705 831Q1736 856 1773.5 869.5Q1811 883 1851 883Q1899 883 1940.5 865.0Q1982 847 2013.5 815.5Q2045 784 2063.0 742.5Q2081 701 2081 653Q2081 605 2063.0 563.5Q2045 522 2013.5 490.5Q1982 459 1940.5 441.0Q1899 423 1851 423Q1813 423 1778.0 435.0Q1743 447 1714.0 468.0Q1685 489 1663.5 519.0Q1642 549 1631 585Q1616 579 1600.5 575.5Q1585 572 1568 572Q1531 572 1497.5 588.0Q1464 604 1441 633Q1409 585 1358.0 558.0Q1307 531 1249 531Z" style="fill:#26c9fc;stroke:none" transform="scale(1,-1) translate(0,-256)" /></svg>