<?xml version="1.0" encoding="utf-8" ?>
<svg baseProfile="full" height="256" version="1.1" width="256" xmlns="http://www.w3.org/2000/svg" xmlns:ev="http://www.w3.org/2001/xml-events" xmlns:xlink="http://www.w3.org/1999/xlink"><defs /><path d="M725 1725H2040Q2062 1725 2082.0 1716.5Q2102 1708 2117.0 1693.0Q2132 1678 2140.5 1658.0Q2149 1638 2149 1616Q2149 1593 2140.5 1573.5Q2132 1554 2117.0 1539.0Q2102 1524 2082.0 1515.5Q2062 1507 2040 1507H725Q702 1507 682.0 1515.5Q662 1524 647.0 1539.0Q632 1554 623.5 1573.5Q615 1593 615 1616Q615 1638 623.5 1658.0Q632 1678 647.0 1693.0Q662 1708 682.0 1716.5Q702 1725 725 1725ZM725 -75H2040Q2062 -75 2082.0 -84.0Q2102 -93 2117.0 -108.0Q2132 -123 2140.5 -143.0Q2149 -163 2149 -185Q2149 -208 2140.5 -227.5Q2132 -247 2117.0 -262.0Q2102 -277 2082.0 -285.5Q2062 -294 2040 -294H725Q702 -294 682.0 -285.5Q662 -277 647.0 -262.0Q632 -247 623.5 -227.5Q615 -208 615 -185Q615 -162 623.5 -142.0Q632 -122 647.0 -107.0Q662 -92 682.0 -83.5Q702 -75 725 -75Z" style="fill:#d3d3d3;stroke:none" transform="scale(1,-1) translate(0,-256)" /></svg>