<?xml version="1.0" encoding="utf-8" ?>
<svg baseProfile="full" height="256" version="1.1" width="256" xmlns="http://www.w3.org/2000/svg" xmlns:ev="http://www.w3.org/2001/xml-events" xmlns:xlink="http://www.w3.org/1999/xlink"><defs /><path d="M1500 955Q1559 955 1610.5 932.5Q1662 910 1700.5 871.5Q1739 833 1761.5 781.5Q1784 730 1784 671Q1784 612 1761.5 560.5Q1739 509 1700.5 470.5Q1662 432 1610.5 409.5Q1559 387 1500 387H1274Q1215 387 1163.5 409.5Q1112 432 1074.0 470.5Q1036 509 1013.5 560.5Q991 612 991 671Q991 729 1013.5 781.0Q1036 833 1074.0 871.5Q1112 910 1163.5 932.5Q1215 955 1274 955H1500Z" style="fill:#f8312f;stroke:none" transform="scale(1,-1) translate(0,-256)" /></svg>