<?xml version="1.0" encoding="utf-8" ?>
<svg baseProfile="full" height="256" version="1.1" width="256" xmlns="http://www.w3.org/2000/svg" xmlns:ev="http://www.w3.org/2001/xml-events" xmlns:xlink="http://www.w3.org/1999/xlink"><defs /><path d="M2259 966Q2259 943 2250.0 922.5Q2241 902 2225.5 886.5Q2210 871 2189.5 862.0Q2169 853 2146 853Q2123 853 2102.5 862.0Q2082 871 2066.5 886.5Q2051 902 2042.0 922.5Q2033 943 2033 966Q2033 989 2042.0 1009.5Q2051 1030 2066.5 1045.5Q2082 1061 2102.5 1070.0Q2123 1079 2146 1079Q2169 1079 2189.5 1070.0Q2210 1061 2225.5 1045.5Q2241 1030 2250.0 1009.5Q2259 989 2259 966ZM1331 40Q1331 17 1322.0 -3.5Q1313 -24 1297.5 -39.5Q1282 -55 1261.5 -64.0Q1241 -73 1218 -73Q1195 -73 1174.5 -64.0Q1154 -55 1138.5 -39.5Q1123 -24 1114.0 -3.5Q1105 17 1105 40Q1105 64 1114.0 84.5Q1123 105 1138.0 120.0Q1153 135 1173.5 144.0Q1194 153 1218 153Q1241 153 1261.5 144.0Q1282 135 1297.5 119.5Q1313 104 1322.0 83.5Q1331 63 1331 40ZM2182 505Q2211 505 2232.0 526.0Q2253 547 2253 576Q2253 606 2232.5 627.0Q2212 648 2182 648Q2153 648 2132.0 626.5Q2111 605 2111 576Q2111 547 2132.0 526.0Q2153 505 2182 505ZM2038 289Q2038 244 2021.0 205.0Q2004 166 1975.0 136.5Q1946 107 1907.0 90.0Q1868 73 1823 73Q1778 73 1739.0 90.0Q1700 107 1670.5 136.5Q1641 166 1624.0 205.0Q1607 244 1607 289Q1607 334 1624.0 373.0Q1641 412 1670.5 441.5Q1700 471 1739.0 488.0Q1778 505 1823 505Q1868 505 1907.0 488.0Q1946 471 1975.0 441.5Q2004 412 2021.0 373.0Q2038 334 2038 289Z" style="fill:#f9c23c;stroke:none" transform="scale(1,-1) translate(0,-256)" /></svg>