<?xml version="1.0" encoding="utf-8" ?>
<svg baseProfile="full" height="256" version="1.1" width="256" xmlns="http://www.w3.org/2000/svg" xmlns:ev="http://www.w3.org/2001/xml-events" xmlns:xlink="http://www.w3.org/1999/xlink"><defs /><path d="M1968 1228Q1968 1288 1960.0 1346.5Q1952 1405 1939 1464Q1938 1468 1938 1475Q1938 1494 1952.0 1507.5Q1966 1521 1985 1521Q2000 1521 2012 1512Q2103 1446 2175.0 1355.5Q2247 1265 2296.5 1160.5Q2346 1056 2372.0 943.0Q2398 830 2398 718Q2398 580 2362.0 451.5Q2326 323 2260.5 211.5Q2195 100 2103.0 8.0Q2011 -84 1899.5 -149.5Q1788 -215 1659.5 -251.0Q1531 -287 1393 -287Q1254 -287 1123.5 -250.5Q993 -214 878.5 -146.0Q764 -78 669.5 19.5Q575 117 509 239Q503 249 503 262Q503 280 516.0 294.5Q529 309 548 309Q553 309 557.0 308.0Q561 307 566 305Q664 268 761.5 245.0Q859 222 965 222Q1103 222 1231.5 258.0Q1360 294 1471.5 360.0Q1583 426 1674.5 518.0Q1766 610 1831.0 721.5Q1896 833 1932.0 961.5Q1968 1090 1968 1228Z" style="fill:#fcd53f;stroke:none" transform="scale(1,-1) translate(0,-256)" /></svg>