<?xml version="1.0" encoding="utf-8" ?>
<svg baseProfile="full" height="256" version="1.1" width="256" xmlns="http://www.w3.org/2000/svg" xmlns:ev="http://www.w3.org/2001/xml-events" xmlns:xlink="http://www.w3.org/1999/xlink"><defs /><path d="M1164 551Q1164 613 1184.0 676.0Q1204 739 1240.5 794.0Q1277 849 1328.0 890.0Q1379 931 1440 949Q1451 952 1462.5 954.0Q1474 956 1485 956Q1517 956 1546.0 945.5Q1575 935 1604 922Q1626 912 1647.5 907.0Q1669 902 1692 897Q1758 882 1798.0 834.5Q1838 787 1838 718V-162Q1838 -188 1829.0 -210.5Q1820 -233 1804.0 -250.0Q1788 -267 1765.5 -277.0Q1743 -287 1717 -287H1164V-286H987Q942 -286 903.0 -269.0Q864 -252 834.5 -223.0Q805 -194 788.0 -155.0Q771 -116 771 -71V16Q771 101 800.5 177.0Q830 253 882.5 313.0Q935 373 1007.0 412.0Q1079 451 1163 462L1164 463Z" style="fill:#00a6ed;stroke:none" transform="scale(1,-1) translate(0,-256)" /></svg>