<?xml version="1.0" encoding="utf-8" ?>
<svg baseProfile="full" height="256" version="1.1" width="256" xmlns="http://www.w3.org/2000/svg" xmlns:ev="http://www.w3.org/2001/xml-events" xmlns:xlink="http://www.w3.org/1999/xlink"><defs /><path d="M1491 1115Q1491 1123 1495.0 1137.5Q1499 1152 1504.5 1168.5Q1510 1185 1515.5 1200.0Q1521 1215 1524 1224Q1529 1240 1546 1240Q1564 1240 1569 1224Q1572 1215 1577.0 1200.0Q1582 1185 1587.5 1169.0Q1593 1153 1597.0 1138.5Q1601 1124 1601 1116Q1601 1102 1592.0 1092.5Q1583 1083 1569 1083H1524Q1511 1083 1501.0 1092.0Q1491 1101 1491 1115Z" style="fill:#ed9200;stroke:none" transform="scale(1,-1) translate(0,-256)" /></svg>