<?xml version="1.0" encoding="utf-8" ?>
<svg baseProfile="full" height="256" version="1.1" width="256" xmlns="http://www.w3.org/2000/svg" xmlns:ev="http://www.w3.org/2001/xml-events" xmlns:xlink="http://www.w3.org/1999/xlink"><defs /><path d="M1572 1644Q1631 1644 1683.0 1621.5Q1735 1599 1774.0 1560.5Q1813 1522 1835.5 1470.0Q1858 1418 1858 1359Q1858 1354 1857.5 1348.5Q1857 1343 1857 1338Q1851 1254 1845.5 1172.0Q1840 1090 1834 1006Q1831 968 1815.0 935.5Q1799 903 1773.0 879.0Q1747 855 1713.5 841.0Q1680 827 1642 827H1450Q1412 827 1378.5 841.0Q1345 855 1319.0 879.0Q1293 903 1277.0 935.5Q1261 968 1258 1006Q1252 1090 1246.5 1172.0Q1241 1254 1235 1338Q1235 1343 1234.5 1348.5Q1234 1354 1234 1359Q1234 1418 1256.5 1470.0Q1279 1522 1318.0 1560.5Q1357 1599 1409.0 1621.5Q1461 1644 1520 1644Z" style="fill:#ffc83d;stroke:none" transform="scale(1,-1) translate(0,-256)" /></svg>