<?xml version="1.0" encoding="utf-8" ?>
<svg baseProfile="full" height="256" version="1.1" width="256" xmlns="http://www.w3.org/2000/svg" xmlns:ev="http://www.w3.org/2001/xml-events" xmlns:xlink="http://www.w3.org/1999/xlink"><defs /><path d="M1416 1250Q1428 1250 1437.0 1241.0Q1446 1232 1446 1220Q1446 1212 1443 1205H1389Q1385 1210 1385 1220Q1385 1233 1394.5 1241.5Q1404 1250 1416 1250ZM1677 1250Q1665 1250 1655.5 1241.5Q1646 1233 1646 1220Q1646 1212 1650 1205H1704Q1707 1212 1707 1220Q1707 1232 1698.0 1241.0Q1689 1250 1677 1250Z" style="fill:#000000;stroke:none" transform="scale(1,-1) translate(0,-256)" /></svg>