<?xml version="1.0" encoding="utf-8" ?>
<svg baseProfile="full" height="256" version="1.1" width="256" xmlns="http://www.w3.org/2000/svg" xmlns:ev="http://www.w3.org/2001/xml-events" xmlns:xlink="http://www.w3.org/1999/xlink"><defs /><path d="M1546 1024Q1560 1024 1575.5 1027.5Q1591 1031 1604.0 1035.0Q1617 1039 1626.5 1042.5Q1636 1046 1638 1046Q1648 1046 1648 1036Q1648 1032 1647 1031Q1632 1005 1603.5 991.0Q1575 977 1546 977Q1534 977 1518.5 981.0Q1503 985 1489.0 992.0Q1475 999 1463.0 1009.0Q1451 1019 1446 1031Q1446 1032 1445.5 1033.5Q1445 1035 1445 1036Q1445 1046 1454 1046Q1455 1046 1464.5 1042.5Q1474 1039 1487.5 1035.0Q1501 1031 1516.5 1027.5Q1532 1024 1546 1024Z" style="fill:#990839;stroke:none" transform="scale(1,-1) translate(0,-256)" /></svg>