<?xml version="1.0" encoding="utf-8" ?>
<svg baseProfile="full" height="256" version="1.1" width="256" xmlns="http://www.w3.org/2000/svg" xmlns:ev="http://www.w3.org/2001/xml-events" xmlns:xlink="http://www.w3.org/1999/xlink"><defs /><path d="M1342 1312Q1328 1312 1318.5 1321.0Q1309 1330 1309 1344Q1309 1360 1323.0 1371.0Q1337 1382 1356.5 1389.0Q1376 1396 1395.0 1399.0Q1414 1402 1425 1402Q1442 1402 1458.0 1396.0Q1474 1390 1474 1368Q1474 1354 1463.5 1345.0Q1453 1336 1441 1336Q1436 1336 1432.5 1336.5Q1429 1337 1425 1337Q1409 1337 1396.5 1333.0Q1384 1329 1374.0 1324.5Q1364 1320 1356.0 1316.0Q1348 1312 1342 1312ZM1730 1318Q1704 1336 1670 1336Q1662 1336 1653.0 1336.0Q1644 1336 1636.5 1339.0Q1629 1342 1624.0 1348.5Q1619 1355 1619 1367Q1619 1390 1635.0 1395.5Q1651 1401 1669 1401Q1680 1401 1699.5 1398.0Q1719 1395 1737.5 1388.0Q1756 1381 1770.0 1370.5Q1784 1360 1784 1344Q1784 1330 1774.0 1320.5Q1764 1311 1750 1311Q1741 1311 1731 1318Z" style="fill:#d37034;stroke:none" transform="scale(1,-1) translate(0,-256)" /></svg>