<?xml version="1.0" encoding="utf-8" ?>
<svg baseProfile="full" height="256" version="1.1" width="256" xmlns="http://www.w3.org/2000/svg" xmlns:ev="http://www.w3.org/2001/xml-events" xmlns:xlink="http://www.w3.org/1999/xlink"><defs /><path d="M1645 1725Q1668 1725 1687.0 1716.0Q1706 1707 1723.0 1693.5Q1740 1680 1755.0 1663.5Q1770 1647 1785 1632Q1805 1612 1829.0 1600.0Q1853 1588 1874.0 1574.0Q1895 1560 1909.0 1539.5Q1923 1519 1923 1482Q1923 1476 1922.5 1470.5Q1922 1465 1921 1460L1888 1275Q1886 1261 1875.5 1252.5Q1865 1244 1851 1243Q1853 1266 1855.0 1288.5Q1857 1311 1857 1333Q1857 1351 1848.5 1361.0Q1840 1371 1830.0 1380.5Q1820 1390 1811.5 1402.0Q1803 1414 1803 1437Q1803 1447 1804.0 1459.5Q1805 1472 1803.5 1484.0Q1802 1496 1797.0 1506.0Q1792 1516 1779 1520Q1754 1528 1724.5 1533.0Q1695 1538 1664.0 1540.5Q1633 1543 1602.5 1544.0Q1572 1545 1546 1545Q1489 1545 1428.5 1540.5Q1368 1536 1313 1520Q1302 1517 1295.5 1508.5Q1289 1500 1289 1489V1437Q1289 1416 1280.5 1404.0Q1272 1392 1262.5 1382.0Q1253 1372 1244.5 1361.5Q1236 1351 1236 1334Q1236 1311 1238.0 1288.5Q1240 1266 1242 1243Q1228 1244 1217.0 1252.5Q1206 1261 1204 1275L1170 1460Q1169 1465 1168.5 1470.0Q1168 1475 1168 1480Q1168 1517 1182.0 1538.0Q1196 1559 1217.0 1573.0Q1238 1587 1262.0 1599.5Q1286 1612 1306 1632Q1321 1647 1336.0 1663.5Q1351 1680 1367.5 1693.5Q1384 1707 1403.0 1716.0Q1422 1725 1445 1725Q1472 1725 1495.0 1715.0Q1518 1705 1545 1705Q1572 1705 1595.5 1715.0Q1619 1725 1645 1725Z" style="fill:#f1a11e;stroke:none" transform="scale(1,-1) translate(0,-256)" /></svg>