<?xml version="1.0" encoding="utf-8" ?>
<svg baseProfile="full" height="256" version="1.1" width="256" xmlns="http://www.w3.org/2000/svg" xmlns:ev="http://www.w3.org/2001/xml-events" xmlns:xlink="http://www.w3.org/1999/xlink"><defs /><path d="M406 -148Q406 -100 415.0 -45.0Q424 10 444.5 61.0Q465 112 498.0 153.5Q531 195 579 216Q605 227 641.0 232.5Q677 238 704 238Q755 238 799.5 220.0Q844 202 878.0 170.5Q912 139 931.5 95.0Q951 51 951 0Q951 -38 939 -72Q925 -109 896.5 -143.5Q868 -178 830.5 -205.0Q793 -232 751.0 -248.5Q709 -265 669 -265Q660 -265 651.0 -262.0Q642 -259 642 -248Q642 -240 645.5 -232.5Q649 -225 649 -217Q649 -204 636 -204Q628 -204 608.5 -213.5Q589 -223 563.5 -235.0Q538 -247 509.5 -256.5Q481 -266 455 -266Q436 -266 426.0 -252.5Q416 -239 411.5 -220.0Q407 -201 406.5 -181.0Q406 -161 406 -148Z" style="fill:#ff8257;stroke:none" transform="scale(1,-1) translate(0,-256)" /></svg>