<?xml version="1.0" encoding="utf-8" ?>
<svg baseProfile="full" height="256" version="1.1" width="256" xmlns="http://www.w3.org/2000/svg" xmlns:ev="http://www.w3.org/2001/xml-events" xmlns:xlink="http://www.w3.org/1999/xlink"><defs /><path d="M2197 1714Q2243 1714 2282.5 1699.5Q2322 1685 2351.5 1658.0Q2381 1631 2398.0 1593.0Q2415 1555 2415 1508Q2415 1473 2405.5 1443.5Q2396 1414 2383 1382Q2362 1331 2344.5 1278.5Q2327 1226 2306 1175L2305 1176Q2241 1018 2171.5 883.0Q2102 748 2015.0 631.5Q1928 515 1816.5 414.5Q1705 314 1556 227L1398 -204Q1390 -225 1371.5 -238.0Q1353 -251 1330 -251Q1301 -251 1280 -230L479 571Q458 592 458 621Q458 644 471.0 662.5Q484 681 505 689L886 829Q946 931 1025.0 1019.0Q1104 1107 1190 1186Q1338 1323 1513.5 1427.5Q1689 1532 1874 1610L1873 1611Q1924 1632 1975.5 1649.5Q2027 1667 2078 1687Q2108 1699 2135.5 1706.5Q2163 1714 2197 1714Z" style="fill:#ca0b4a;stroke:none" transform="scale(1,-1) translate(0,-256)" /></svg>