<?xml version="1.0" encoding="utf-8" ?>
<svg baseProfile="full" height="256" version="1.1" width="256" xmlns="http://www.w3.org/2000/svg" xmlns:ev="http://www.w3.org/2001/xml-events" xmlns:xlink="http://www.w3.org/1999/xlink"><defs /><path d="M1378 560Q1378 551 1376.0 541.5Q1374 532 1371 523L1182 12Q1174 -9 1155.5 -22.0Q1137 -35 1114 -35Q1085 -35 1064 -14L695 355Q674 376 674 405Q674 428 687.0 446.5Q700 465 721 473L1232 662Q1241 665 1250.5 667.0Q1260 669 1269 669Q1291 669 1311.0 660.5Q1331 652 1346.0 637.0Q1361 622 1369.5 602.0Q1378 582 1378 560Z" style="fill:#f92f60;stroke:none" transform="scale(1,-1) translate(0,-256)" /></svg>