<?xml version="1.0" encoding="utf-8" ?>
<svg baseProfile="full" height="256" version="1.1" width="256" xmlns="http://www.w3.org/2000/svg" xmlns:ev="http://www.w3.org/2001/xml-events" xmlns:xlink="http://www.w3.org/1999/xlink"><defs /><path d="M2250 1231Q2217 1149 2175.0 1056.5Q2133 964 2083.5 873.0Q2034 782 1977.0 699.5Q1920 617 1858 554Q1773 468 1688.5 403.5Q1604 339 1515.0 286.5Q1426 234 1329.5 190.0Q1233 146 1124 101L796 428L836 537L837 538Q862 608 890.0 675.0Q918 742 956 806Q1012 899 1086.0 979.5Q1160 1060 1239 1133Q1312 1200 1394.5 1260.5Q1477 1321 1565.0 1374.0Q1653 1427 1745.0 1472.0Q1837 1517 1929 1555Z" style="fill:#f4f4f4;stroke:none" transform="scale(1,-1) translate(0,-256)" /></svg>