<?xml version="1.0" encoding="utf-8" ?>
<svg baseProfile="full" height="256" version="1.1" width="256" xmlns="http://www.w3.org/2000/svg" xmlns:ev="http://www.w3.org/2001/xml-events" xmlns:xlink="http://www.w3.org/1999/xlink"><defs /><path d="M768 386Q789 386 809.0 378.0Q829 370 844 355L1098 101Q1113 86 1121.0 66.0Q1129 46 1129 25Q1129 3 1120.5 -16.5Q1112 -36 1097.5 -51.0Q1083 -66 1063.5 -74.5Q1044 -83 1022 -83Q978 -83 946 -51L692 203Q677 218 668.5 237.5Q660 257 660 279Q660 301 668.5 320.5Q677 340 692.0 354.5Q707 369 726.5 377.5Q746 386 768 386Z" style="fill:#533566;stroke:none" transform="scale(1,-1) translate(0,-256)" /></svg>