<?xml version="1.0" encoding="utf-8" ?>
<svg baseProfile="full" height="256" version="1.1" width="256" xmlns="http://www.w3.org/2000/svg" xmlns:ev="http://www.w3.org/2001/xml-events" xmlns:xlink="http://www.w3.org/1999/xlink"><defs /><path d="M1319 1316Q1340 1336 1358.5 1352.5Q1377 1369 1397.0 1381.0Q1417 1393 1441.0 1400.0Q1465 1407 1495 1407Q1565 1407 1616.0 1368.5Q1667 1330 1691 1266L1814 942Q1809 944 1790.5 952.5Q1772 961 1747.0 972.5Q1722 984 1694.5 997.0Q1667 1010 1643.5 1021.0Q1620 1032 1603.5 1040.0Q1587 1048 1586 1049Q1557 1071 1540.0 1091.5Q1523 1112 1497 1138Z" style="fill:#635994;stroke:none" transform="scale(1,-1) translate(0,-256)" /></svg>