<?xml version="1.0" encoding="utf-8" ?>
<svg baseProfile="full" height="256" version="1.1" width="256" xmlns="http://www.w3.org/2000/svg" xmlns:ev="http://www.w3.org/2001/xml-events" xmlns:xlink="http://www.w3.org/1999/xlink"><defs /><path d="M1648 1169Q1663 1169 1675.5 1163.5Q1688 1158 1698.5 1149.0Q1709 1140 1719.0 1129.5Q1729 1119 1739 1109Q1751 1096 1757.5 1087.0Q1764 1078 1768.0 1069.5Q1772 1061 1775.5 1050.5Q1779 1040 1785 1025L2148 178Q2158 154 2182.5 133.0Q2207 112 2237.0 92.5Q2267 73 2299.0 54.0Q2331 35 2358.0 14.5Q2385 -6 2402.0 -29.5Q2419 -53 2419 -80Q2419 -106 2405.5 -128.5Q2392 -151 2372.0 -170.0Q2352 -189 2329.5 -205.0Q2307 -221 2289 -233Q2281 -239 2269.5 -241.5Q2258 -244 2245.5 -245.5Q2233 -247 2220.5 -247.0Q2208 -247 2198 -247Q2185 -247 2162.0 -246.0Q2139 -245 2111.5 -243.0Q2084 -241 2054.0 -237.5Q2024 -234 1997.5 -229.0Q1971 -224 1950.5 -218.0Q1930 -212 1921 -204L425 1035Q414 1044 407.5 1062.0Q401 1080 401 1094Q401 1128 425 1152L953 1681Q974 1702 1002.0 1713.5Q1030 1725 1060 1725Q1080 1725 1103.0 1718.5Q1126 1712 1145.5 1699.0Q1165 1686 1178.0 1668.0Q1191 1650 1191 1626Q1191 1607 1184.0 1595.0Q1177 1583 1168.5 1572.5Q1160 1562 1153.0 1550.0Q1146 1538 1146 1519Q1146 1504 1152.0 1490.5Q1158 1477 1169 1466L1487 1147Q1498 1136 1512.0 1130.0Q1526 1124 1541 1124Q1560 1124 1571.5 1131.0Q1583 1138 1593.5 1146.5Q1604 1155 1616.0 1162.0Q1628 1169 1648 1169Z" style="fill:#9b9b9b;stroke:none" transform="scale(1,-1) translate(0,-256)" /></svg>