<?xml version="1.0" encoding="utf-8" ?>
<svg baseProfile="full" height="256" version="1.1" width="256" xmlns="http://www.w3.org/2000/svg" xmlns:ev="http://www.w3.org/2001/xml-events" xmlns:xlink="http://www.w3.org/1999/xlink"><defs /><path d="M400 1095Q400 1130 425 1155L634 1364Q690 1311 760.5 1240.5Q831 1170 906.5 1090.0Q982 1010 1056.5 923.0Q1131 836 1196.0 750.5Q1261 665 1311.0 584.0Q1361 503 1386 434Q1410 368 1440.5 309.5Q1471 251 1516 195Q1575 123 1649.5 66.5Q1724 10 1807.0 -33.5Q1890 -77 1979.5 -108.0Q2069 -139 2158 -159Q2207 -170 2257.0 -179.0Q2307 -188 2358 -191Q2340 -210 2324.0 -226.0Q2308 -242 2290.5 -254.0Q2273 -266 2251.5 -272.5Q2230 -279 2202 -279Q2148 -279 2086.5 -266.5Q2025 -254 1961.0 -233.0Q1897 -212 1832.5 -184.5Q1768 -157 1707.5 -126.5Q1647 -96 1593.5 -64.5Q1540 -33 1497 -5Q1413 51 1337.0 119.0Q1261 187 1187 256Q1060 375 939.0 497.5Q818 620 697 746Q647 797 598.5 848.5Q550 900 502 952Q483 972 462.5 992.5Q442 1013 425 1035Q413 1050 406.5 1062.5Q400 1075 400 1095Z" style="fill:#bebebe;stroke:none" transform="scale(1,-1) translate(0,-256)" /></svg>