<?xml version="1.0" encoding="utf-8" ?>
<svg baseProfile="full" height="256" version="1.1" width="256" xmlns="http://www.w3.org/2000/svg" xmlns:ev="http://www.w3.org/2001/xml-events" xmlns:xlink="http://www.w3.org/1999/xlink"><defs /><path d="M1986 1653Q2031 1653 2071.5 1635.5Q2112 1618 2142.0 1588.0Q2172 1558 2189.5 1518.0Q2207 1478 2207 1433V20Q2207 -25 2189.5 -65.0Q2172 -105 2142.0 -135.0Q2112 -165 2071.5 -182.5Q2031 -200 1986 -200Q1941 -200 1900.5 -182.5Q1860 -165 1830.0 -135.0Q1800 -105 1782.5 -65.0Q1765 -25 1765 20V1433Q1765 1478 1782.5 1518.0Q1800 1558 1830.0 1588.0Q1860 1618 1900.5 1635.5Q1941 1653 1986 1653Z" style="fill:#f8312f;stroke:none" transform="scale(1,-1) translate(0,-256)" /></svg>