<?xml version="1.0" encoding="utf-8" ?>
<svg baseProfile="full" height="256" version="1.1" width="256" xmlns="http://www.w3.org/2000/svg" xmlns:ev="http://www.w3.org/2001/xml-events" xmlns:xlink="http://www.w3.org/1999/xlink"><defs /><path d="M2138 459Q2082 459 2033.5 480.0Q1985 501 1948.5 537.5Q1912 574 1891.0 622.5Q1870 671 1870 727Q1870 782 1891.0 831.0Q1912 880 1948.5 916.0Q1985 952 2033.5 973.0Q2082 994 2138 994Q2193 994 2241.5 973.0Q2290 952 2326.5 915.5Q2363 879 2384.0 830.5Q2405 782 2405 727Q2405 672 2384.0 623.0Q2363 574 2326.5 537.5Q2290 501 2241.5 480.0Q2193 459 2138 459Z" style="fill:#212121;stroke:none" transform="scale(1,-1) translate(0,-256)" /></svg>