<?xml version="1.0" encoding="utf-8" ?>
<svg baseProfile="full" height="256" version="1.1" width="256" xmlns="http://www.w3.org/2000/svg" xmlns:ev="http://www.w3.org/2001/xml-events" xmlns:xlink="http://www.w3.org/1999/xlink"><defs /><path d="M2143 1720Q2153 1725 2161 1725Q2175 1725 2186.0 1714.0Q2197 1703 2197 1689V194Q2197 175 2187.5 158.0Q2178 141 2161 132L1451 -275Q1431 -287 1407 -287Q1383 -287 1362 -275L652 132Q635 141 625.5 158.0Q616 175 616 194L615 1689Q615 1703 626.0 1714.0Q637 1725 651 1725Q659 1725 669 1720L1406 1295Z" style="fill:#f9c23c;stroke:none" transform="scale(1,-1) translate(0,-256)" /></svg>