<?xml version="1.0" encoding="utf-8" ?>
<svg baseProfile="full" height="256" version="1.1" width="256" xmlns="http://www.w3.org/2000/svg" xmlns:ev="http://www.w3.org/2001/xml-events" xmlns:xlink="http://www.w3.org/1999/xlink"><defs /><path d="M566 895Q566 902 569 908Q586 947 613.0 978.5Q640 1010 674.5 1032.0Q709 1054 748.5 1066.0Q788 1078 831 1078Q873 1078 913.0 1066.0Q953 1054 987.0 1032.0Q1021 1010 1048.5 978.5Q1076 947 1093 908Q1096 902 1096 895Q1096 881 1085.5 872.0Q1075 863 1061 863Q1048 863 1039.0 869.5Q1030 876 1024 887Q992 943 944.5 975.0Q897 1007 831 1007Q765 1007 717.5 975.0Q670 943 638 887Q632 876 623.0 869.5Q614 863 601 863Q588 863 577.0 872.0Q566 881 566 895ZM1141 895Q1141 902 1144 908Q1161 947 1188.0 978.5Q1215 1010 1249.5 1032.0Q1284 1054 1323.5 1066.0Q1363 1078 1406 1078Q1448 1078 1488.0 1066.0Q1528 1054 1562.0 1032.0Q1596 1010 1623.5 978.5Q1651 947 1668 908Q1671 902 1671 895Q1671 881 1660.5 872.0Q1650 863 1636 863Q1623 863 1614.0 869.5Q1605 876 1599 887Q1567 943 1519.5 975.0Q1472 1007 1406 1007Q1340 1007 1292.5 975.0Q1245 943 1213 887Q1207 876 1198.0 869.5Q1189 863 1176 863Q1163 863 1152.0 872.0Q1141 881 1141 895ZM1751 863Q1738 863 1727.0 872.0Q1716 881 1716 895Q1716 902 1719 908Q1736 947 1763.0 978.5Q1790 1010 1824.5 1032.0Q1859 1054 1898.5 1066.0Q1938 1078 1981 1078Q2023 1078 2063.0 1066.0Q2103 1054 2137.0 1032.0Q2171 1010 2198.5 978.5Q2226 947 2243 908Q2246 902 2246 895Q2246 881 2235.5 872.0Q2225 863 2211 863Q2198 863 2189.0 869.5Q2180 876 2174 887Q2142 943 2094.5 975.0Q2047 1007 1981 1007Q1915 1007 1867.5 975.0Q1820 943 1788 887Q1782 876 1773.0 869.5Q1764 863 1751 863Z" style="fill:#636363;stroke:none" transform="scale(1,-1) translate(0,-256)" /></svg>