<?xml version="1.0" encoding="utf-8" ?>
<svg baseProfile="full" height="256" version="1.1" width="256" xmlns="http://www.w3.org/2000/svg" xmlns:ev="http://www.w3.org/2001/xml-events" xmlns:xlink="http://www.w3.org/1999/xlink"><defs /><path d="M1981 575Q1936 575 1897.0 592.0Q1858 609 1828.5 638.5Q1799 668 1782.0 707.0Q1765 746 1765 791Q1765 836 1782.0 875.0Q1799 914 1828.5 943.5Q1858 973 1897.0 990.0Q1936 1007 1981 1007Q2026 1007 2065.0 990.0Q2104 973 2133.5 943.5Q2163 914 2180.0 875.0Q2197 836 2197 791Q2197 746 2180.0 707.0Q2163 668 2133.5 638.5Q2104 609 2065.0 592.0Q2026 575 1981 575Z" style="fill:#f8312f;stroke:none" transform="scale(1,-1) translate(0,-256)" /></svg>