<?xml version="1.0" encoding="utf-8" ?>
<svg baseProfile="full" height="256" version="1.1" width="256" xmlns="http://www.w3.org/2000/svg" xmlns:ev="http://www.w3.org/2001/xml-events" xmlns:xlink="http://www.w3.org/1999/xlink"><defs /><path d="M831 575Q786 575 747.0 592.0Q708 609 678.5 638.5Q649 668 632.0 707.0Q615 746 615 791Q615 836 632.0 875.0Q649 914 678.5 943.5Q708 973 747.0 990.0Q786 1007 831 1007Q876 1007 915.0 990.0Q954 973 983.5 943.5Q1013 914 1030.0 875.0Q1047 836 1047 791Q1047 746 1030.0 707.0Q1013 668 983.5 638.5Q954 609 915.0 592.0Q876 575 831 575Z" style="fill:#00d26a;stroke:none" transform="scale(1,-1) translate(0,-256)" /></svg>