<?xml version="1.0" encoding="utf-8" ?>
<svg baseProfile="full" height="256" version="1.1" width="256" xmlns="http://www.w3.org/2000/svg" xmlns:ev="http://www.w3.org/2001/xml-events" xmlns:xlink="http://www.w3.org/1999/xlink"><defs /><path d="M400 791Q400 880 434.0 958.5Q468 1037 526.5 1095.5Q585 1154 663.5 1188.0Q742 1222 831 1222H1980Q2069 1222 2148.0 1188.5Q2227 1155 2285.5 1096.5Q2344 1038 2378.0 959.5Q2412 881 2412 791Q2412 701 2378.0 622.5Q2344 544 2285.5 485.5Q2227 427 2148.0 393.5Q2069 360 1980 360H831Q742 360 663.5 394.0Q585 428 526.5 486.5Q468 545 434.0 623.5Q400 702 400 791Z" style="fill:#636363;stroke:none" transform="scale(1,-1) translate(0,-256)" /></svg>