<?xml version="1.0" encoding="utf-8" ?>
<svg baseProfile="full" height="256" version="1.1" width="256" xmlns="http://www.w3.org/2000/svg" xmlns:ev="http://www.w3.org/2001/xml-events" xmlns:xlink="http://www.w3.org/1999/xlink"><defs /><path d="M1985 1546Q1985 1560 1996.0 1570.5Q2007 1581 2021 1581H2057Q2071 1581 2082.0 1570.5Q2093 1560 2093 1546V1402Q2093 1387 2082.5 1376.5Q2072 1366 2057 1366H2021Q2006 1366 1995.5 1376.5Q1985 1387 1985 1402ZM1154 575Q1140 575 1129.0 564.0Q1118 553 1118 539V503Q1118 489 1129.0 478.0Q1140 467 1154 467H1298Q1313 467 1323.5 477.5Q1334 488 1334 503V539Q1334 554 1323.5 564.5Q1313 575 1298 575ZM1442 216Q1427 216 1416.5 205.5Q1406 195 1406 180V144Q1406 129 1416.5 118.5Q1427 108 1442 108H1586Q1600 108 1611.0 119.0Q1622 130 1622 144V180Q1622 194 1611.0 205.0Q1600 216 1586 216ZM1139 1437Q1139 1428 1145.5 1417.5Q1152 1407 1161.0 1398.0Q1170 1389 1180.5 1382.5Q1191 1376 1200 1376Q1215 1376 1226 1387L1328 1489Q1338 1499 1338 1514Q1338 1523 1331.5 1533.5Q1325 1544 1316.0 1553.0Q1307 1562 1296.5 1568.5Q1286 1575 1277 1575Q1262 1575 1252 1565L1150 1463Q1139 1452 1139 1437ZM1420 1150Q1420 1165 1431 1176L1533 1277Q1543 1287 1558 1287Q1567 1287 1577.5 1281.0Q1588 1275 1597.5 1265.5Q1607 1256 1613.0 1245.5Q1619 1235 1619 1226Q1619 1211 1609 1201L1508 1099Q1497 1088 1482 1088Q1473 1088 1462.0 1094.5Q1451 1101 1442.0 1110.0Q1433 1119 1426.5 1130.0Q1420 1141 1420 1150ZM1765 919Q1756 919 1745.0 913.0Q1734 907 1725.0 897.5Q1716 888 1709.5 877.5Q1703 867 1703 858Q1703 844 1714 833L1816 731Q1827 720 1841 720Q1850 720 1860.5 726.5Q1871 733 1880.5 742.0Q1890 751 1896.0 762.0Q1902 773 1902 782Q1902 798 1892 808L1791 909Q1781 919 1765 919ZM2122 494Q2122 485 2116.0 474.5Q2110 464 2100.5 454.5Q2091 445 2080.5 439.0Q2070 433 2061 433Q2047 433 2036 444L1934 545Q1923 556 1923 570Q1923 579 1929.0 590.0Q1935 601 1944.5 610.5Q1954 620 1965.0 626.0Q1976 632 1985 632Q2001 632 2011 622L2112 520Q2122 510 2122 494ZM913 919Q904 919 893.5 913.0Q883 907 873.5 897.5Q864 888 858.0 877.5Q852 867 852 858Q852 844 863 833L964 731Q975 720 989 720Q998 720 1008.5 726.5Q1019 733 1028.5 742.0Q1038 751 1044.0 762.0Q1050 773 1050 782Q1050 798 1040 808L939 909Q929 919 913 919Z" style="fill:#ff6dc6;stroke:none" transform="scale(1,-1) translate(0,-256)" /></svg>