<?xml version="1.0" encoding="utf-8" ?>
<svg baseProfile="full" height="256" version="1.1" width="256" xmlns="http://www.w3.org/2000/svg" xmlns:ev="http://www.w3.org/2001/xml-events" xmlns:xlink="http://www.w3.org/1999/xlink"><defs /><path d="M1568 1510Q1590 1510 1606.0 1494.0Q1622 1478 1622 1456Q1622 1434 1606.0 1418.0Q1590 1402 1568 1402H1460Q1437 1402 1421.5 1417.5Q1406 1433 1406 1456Q1406 1478 1422.0 1494.0Q1438 1510 1460 1510ZM951 1294Q974 1294 989.5 1278.5Q1005 1263 1005 1240V1132Q1005 1109 989.5 1093.5Q974 1078 951 1078Q928 1078 913.0 1094.0Q898 1110 898 1132V1240Q898 1262 913.0 1278.0Q928 1294 951 1294ZM2039 935Q2061 935 2077.0 919.0Q2093 903 2093 881V773Q2093 750 2077.5 734.5Q2062 719 2039 719Q2016 719 2000.5 734.5Q1985 750 1985 773V881Q1985 903 2001.0 919.0Q2017 935 2039 935ZM1693 1168Q1693 1190 1709.0 1206.0Q1725 1222 1747 1222H1855Q1878 1222 1893.5 1206.5Q1909 1191 1909 1168Q1909 1145 1893.5 1129.5Q1878 1114 1855 1114H1747Q1725 1114 1709.0 1130.0Q1693 1146 1693 1168ZM1141 791Q1141 813 1157 829L1233 905Q1249 921 1271 921Q1294 921 1309.5 905.5Q1325 890 1325 867Q1325 845 1309 829L1233 753Q1217 737 1195 737Q1172 737 1156.5 752.5Q1141 768 1141 791ZM1428 503Q1428 525 1444 541L1520 618Q1536 634 1558 634Q1581 634 1597.0 618.0Q1613 602 1613 579Q1613 557 1597 541L1520 465Q1504 449 1482 449Q1459 449 1443.5 464.5Q1428 480 1428 503ZM1765 266Q1787 266 1803 250L1880 173Q1896 157 1896 135Q1896 112 1880.0 96.5Q1864 81 1841 81Q1819 81 1803 97L1727 173Q1711 189 1711 211Q1711 234 1726.5 250.0Q1742 266 1765 266ZM913 266Q935 266 951 250L1028 173Q1044 157 1044 135Q1044 113 1028.0 97.0Q1012 81 990 81Q967 81 951 97L875 173Q859 189 859 211Q859 234 874.5 250.0Q890 266 913 266Z" style="fill:#5092ff;stroke:none" transform="scale(1,-1) translate(0,-256)" /></svg>