<?xml version="1.0" encoding="utf-8" ?>
<svg baseProfile="full" height="256" version="1.1" width="256" xmlns="http://www.w3.org/2000/svg" xmlns:ev="http://www.w3.org/2001/xml-events" xmlns:xlink="http://www.w3.org/1999/xlink"><defs /><path d="M913 1566Q929 1566 939 1556L1040 1454Q1050 1444 1050 1429Q1050 1420 1044.0 1409.0Q1038 1398 1028.5 1389.0Q1019 1380 1008.5 1373.5Q998 1367 989 1367Q975 1367 964 1378L863 1480Q852 1491 852 1505Q852 1514 858.0 1524.5Q864 1535 873.5 1544.5Q883 1554 893.5 1560.0Q904 1566 913 1566ZM1118 1186Q1118 1200 1129.0 1211.0Q1140 1222 1154 1222H1298Q1313 1222 1323.5 1211.5Q1334 1201 1334 1186V1150Q1334 1135 1323.5 1124.5Q1313 1114 1298 1114H1154Q1140 1114 1129.0 1125.0Q1118 1136 1118 1150ZM1406 827Q1406 842 1416.5 852.5Q1427 863 1442 863H1586Q1600 863 1611.0 852.0Q1622 841 1622 827V791Q1622 777 1611.0 766.0Q1600 755 1586 755H1442Q1427 755 1416.5 765.5Q1406 776 1406 791ZM1765 1566Q1781 1566 1791 1556L1892 1454Q1902 1444 1902 1429Q1902 1420 1896.0 1409.0Q1890 1398 1880.5 1389.0Q1871 1380 1860.5 1373.5Q1850 1367 1841 1367Q1827 1367 1816 1378L1714 1480Q1703 1491 1703 1505Q1703 1514 1709.5 1524.5Q1716 1535 1725.0 1544.5Q1734 1554 1745.0 1560.0Q1756 1566 1765 1566ZM1989 1279Q2005 1279 2015 1269L2117 1167Q2127 1157 2127 1141Q2127 1132 2120.5 1121.5Q2114 1111 2105.0 1102.0Q2096 1093 2085.5 1086.5Q2075 1080 2066 1080Q2051 1080 2040 1091L1939 1192Q1928 1203 1928 1217Q1928 1226 1934.0 1237.0Q1940 1248 1949.5 1257.0Q1959 1266 1969.5 1272.5Q1980 1279 1989 1279ZM1133 144Q1133 158 1144 169L1246 271Q1256 281 1271 281Q1280 281 1290.5 275.0Q1301 269 1310.5 259.5Q1320 250 1326.0 239.5Q1332 229 1332 220Q1332 205 1322 195L1220 93Q1209 82 1194 82Q1185 82 1174.5 88.5Q1164 95 1155.0 104.5Q1146 114 1139.5 124.5Q1133 135 1133 144ZM969 647Q984 647 994.5 636.5Q1005 626 1005 611V467Q1005 453 994.0 442.0Q983 431 969 431H934Q920 431 909.0 442.0Q898 453 898 467V611Q898 626 908.5 636.5Q919 647 934 647ZM1985 252Q1985 267 1995.5 277.5Q2006 288 2021 288H2057Q2072 288 2082.5 277.5Q2093 267 2093 252V108Q2093 93 2082.5 82.5Q2072 72 2057 72H2021Q2006 72 1995.5 82.5Q1985 93 1985 108ZM1873 575Q1888 575 1898.5 564.5Q1909 554 1909 539V503Q1909 488 1898.5 477.5Q1888 467 1873 467H1729Q1715 467 1704.0 478.0Q1693 489 1693 503V539Q1693 553 1704.0 564.0Q1715 575 1729 575Z" style="fill:#9b9b9b;stroke:none" transform="scale(1,-1) translate(0,-256)" /></svg>