<?xml version="1.0" encoding="utf-8" ?>
<svg baseProfile="full" height="256" version="1.1" width="256" xmlns="http://www.w3.org/2000/svg" xmlns:ev="http://www.w3.org/2001/xml-events" xmlns:xlink="http://www.w3.org/1999/xlink"><defs /><path d="M1406 -72Q1287 -72 1177.0 -41.0Q1067 -10 971.0 46.0Q875 102 796.0 181.0Q717 260 661.0 356.0Q605 452 574.0 562.0Q543 672 543 791Q543 910 574.0 1020.0Q605 1130 661.0 1226.0Q717 1322 796.0 1400.5Q875 1479 971.0 1535.0Q1067 1591 1177.0 1622.0Q1287 1653 1406 1653Q1525 1653 1635.0 1622.0Q1745 1591 1841.0 1535.0Q1937 1479 2015.5 1400.5Q2094 1322 2150.0 1226.0Q2206 1130 2237.0 1020.0Q2268 910 2268 791Q2268 672 2237.0 562.0Q2206 452 2150.0 356.0Q2094 260 2015.5 181.0Q1937 102 1841.0 46.0Q1745 -10 1635.0 -41.0Q1525 -72 1406 -72Z" style="fill:#533566;stroke:none" transform="scale(1,-1) translate(0,-256)" /></svg>