<?xml version="1.0" encoding="utf-8" ?>
<svg baseProfile="full" height="256" version="1.1" width="256" xmlns="http://www.w3.org/2000/svg" xmlns:ev="http://www.w3.org/2001/xml-events" xmlns:xlink="http://www.w3.org/1999/xlink"><defs /><path d="M1693 827Q1693 841 1704.0 852.0Q1715 863 1729 863H1801Q1816 863 1826.5 852.5Q1837 842 1837 827V755Q1837 740 1826.5 729.5Q1816 719 1801 719H1729Q1715 719 1704.0 730.0Q1693 741 1693 755ZM1693 611Q1693 625 1704.0 636.0Q1715 647 1729 647H1801Q1816 647 1826.5 636.5Q1837 626 1837 611V539Q1837 524 1826.5 513.5Q1816 503 1801 503H1729Q1715 503 1704.0 514.0Q1693 525 1693 539ZM1693 396Q1693 410 1704.0 420.5Q1715 431 1729 431H1801Q1815 431 1826.0 420.5Q1837 410 1837 396V324Q1837 309 1826.5 298.5Q1816 288 1801 288H1729Q1715 288 1704.0 299.0Q1693 310 1693 324ZM1909 827Q1909 842 1919.5 852.5Q1930 863 1945 863H2017Q2032 863 2042.5 852.5Q2053 842 2053 827V755Q2053 740 2042.5 729.5Q2032 719 2017 719H1945Q1930 719 1919.5 729.5Q1909 740 1909 755ZM1909 611Q1909 626 1919.5 636.5Q1930 647 1945 647H2017Q2032 647 2042.5 636.5Q2053 626 2053 611V539Q2053 524 2042.5 513.5Q2032 503 2017 503H1945Q1930 503 1919.5 513.5Q1909 524 1909 539ZM1909 396Q1909 410 1920.0 420.5Q1931 431 1945 431H2017Q2031 431 2042.0 420.5Q2053 410 2053 396V324Q2053 309 2042.5 298.5Q2032 288 2017 288H1945Q1930 288 1919.5 298.5Q1909 309 1909 324ZM2125 827Q2125 842 2135.5 852.5Q2146 863 2161 863H2233Q2247 863 2257.5 852.0Q2268 841 2268 827V755Q2268 741 2257.5 730.0Q2247 719 2233 719H2161Q2146 719 2135.5 729.5Q2125 740 2125 755ZM2125 611Q2125 626 2135.5 636.5Q2146 647 2161 647H2233Q2247 647 2257.5 636.0Q2268 625 2268 611V539Q2268 525 2257.5 514.0Q2247 503 2233 503H2161Q2146 503 2135.5 513.5Q2125 524 2125 539ZM2125 396Q2125 410 2136.0 420.5Q2147 431 2161 431H2233Q2247 431 2257.5 420.5Q2268 410 2268 396V324Q2268 310 2257.5 299.0Q2247 288 2233 288H2161Q2146 288 2135.5 298.5Q2125 309 2125 324Z" style="fill:#83cbff;stroke:none" transform="scale(1,-1) translate(0,-256)" /></svg>