<?xml version="1.0" encoding="utf-8" ?>
<svg baseProfile="full" height="256" version="1.1" width="256" xmlns="http://www.w3.org/2000/svg" xmlns:ev="http://www.w3.org/2001/xml-events" xmlns:xlink="http://www.w3.org/1999/xlink"><defs /><path d="M1765 -26Q1765 -15 1773.5 -7.5Q1782 0 1793 0H2169Q2180 0 2188.5 -7.5Q2197 -15 2197 -26V-287H1765ZM903 -287H543V-99Q543 -88 551.5 -80.0Q560 -72 571 -72H875Q886 -72 894.5 -79.5Q903 -87 903 -99ZM1406 -287H1047V-99Q1047 -88 1055.0 -80.0Q1063 -72 1074 -72H1379Q1390 -72 1398.0 -80.0Q1406 -88 1406 -99Z" style="fill:#1c1c1c;stroke:none" transform="scale(1,-1) translate(0,-256)" /></svg>