<?xml version="1.0" encoding="utf-8" ?>
<svg baseProfile="full" height="256" version="1.1" width="256" xmlns="http://www.w3.org/2000/svg" xmlns:ev="http://www.w3.org/2001/xml-events" xmlns:xlink="http://www.w3.org/1999/xlink"><defs /><path d="M831 1510H615V1689Q615 1704 626.0 1714.5Q637 1725 652 1725H794Q809 1725 820.0 1714.5Q831 1704 831 1689ZM831 647H615V863H831ZM615 1294H831V1078H615ZM1334 1510H1118V1689Q1118 1704 1129.0 1714.5Q1140 1725 1155 1725H1297Q1312 1725 1323.0 1715.0Q1334 1705 1334 1689ZM1334 1078H1118V1294H1334ZM1118 863H1334V647H1118Z" style="fill:#f8312f;stroke:none" transform="scale(1,-1) translate(0,-256)" /></svg>