<?xml version="1.0" encoding="utf-8" ?>
<svg baseProfile="full" height="256" version="1.1" width="256" xmlns="http://www.w3.org/2000/svg" xmlns:ev="http://www.w3.org/2001/xml-events" xmlns:xlink="http://www.w3.org/1999/xlink"><defs /><path d="M1406 717Q1331 717 1265.5 745.5Q1200 774 1150.5 822.5Q1101 871 1072.5 937.0Q1044 1003 1044 1078Q1044 1153 1072.5 1219.0Q1101 1285 1150.0 1334.0Q1199 1383 1265.0 1411.5Q1331 1440 1406 1440Q1481 1440 1547.0 1411.5Q1613 1383 1661.5 1334.0Q1710 1285 1738.5 1219.0Q1767 1153 1767 1078Q1767 1003 1738.5 937.5Q1710 872 1661.0 823.0Q1612 774 1546.5 745.5Q1481 717 1406 717Z" style="fill:#ca0b4a;stroke:none" transform="scale(1,-1) translate(0,-256)" /></svg>