<?xml version="1.0" encoding="utf-8" ?>
<svg baseProfile="full" height="256" version="1.1" width="256" xmlns="http://www.w3.org/2000/svg" xmlns:ev="http://www.w3.org/2001/xml-events" xmlns:xlink="http://www.w3.org/1999/xlink"><defs /><path d="M1716 1725Q1786 1725 1847.0 1698.5Q1908 1672 1954.0 1626.0Q2000 1580 2026.5 1519.0Q2053 1458 2053 1388V50Q2053 -20 2026.5 -81.5Q2000 -143 1954.0 -188.5Q1908 -234 1847.0 -260.5Q1786 -287 1716 -287H1096Q1026 -287 964.5 -260.5Q903 -234 857.5 -188.5Q812 -143 785.5 -81.5Q759 -20 759 50V1388Q759 1458 785.5 1519.0Q812 1580 857.5 1626.0Q903 1672 964.5 1698.5Q1026 1725 1096 1725H1716Z" style="fill:#635994;stroke:none" transform="scale(1,-1) translate(0,-256)" /></svg>