<?xml version="1.0" encoding="utf-8" ?>
<svg baseProfile="full" height="256" version="1.1" width="256" xmlns="http://www.w3.org/2000/svg" xmlns:ev="http://www.w3.org/2001/xml-events" xmlns:xlink="http://www.w3.org/1999/xlink"><defs /><path d="M2297 44 2348 -8 2222 -133Q2211 -144 2196 -144Q2182 -144 2171.0 -133.0Q2160 -122 2160 -108Q2160 -93 2171 -82ZM1901 439 1953 388 1827 262Q1816 251 1801 251Q1786 251 1775.0 262.0Q1764 273 1764 288Q1764 303 1775 314ZM1506 835 1558 783 1432 657Q1421 646 1406 646Q1391 646 1380.0 657.0Q1369 668 1369 683Q1369 698 1380 709ZM1111 1230 1162 1178 1036 1052Q1025 1041 1010 1041Q995 1041 984.5 1052.0Q974 1063 974 1078Q974 1093 985 1104ZM767 1574 641 1448Q630 1437 615 1437Q600 1437 589.0 1447.5Q578 1458 578 1473Q578 1488 589 1499L715 1625ZM939 1366Q939 1381 928.5 1391.5Q918 1402 903 1402Q887 1402 877 1392L805 1320Q794 1309 794 1294Q794 1279 805.0 1268.0Q816 1257 831 1257Q846 1257 857 1268L929 1340Q939 1350 939 1366ZM1334 970Q1334 985 1323.5 996.0Q1313 1007 1298 1007Q1283 1007 1272 996L1200 924Q1189 913 1189 898Q1189 883 1200.0 872.5Q1211 862 1226 862Q1241 862 1252 873L1324 945Q1334 955 1334 970ZM1730 575Q1730 590 1719.0 600.5Q1708 611 1693 611Q1678 611 1668 601L1596 529Q1585 518 1585 503Q1585 489 1595.5 477.5Q1606 466 1621 466Q1636 466 1647 477L1719 549Q1730 560 1730 575ZM2125 180Q2125 195 2114.5 205.5Q2104 216 2089 216Q2073 216 2063 206L1991 134Q1980 123 1980 108Q1980 93 1991.0 82.0Q2002 71 2017 71Q2032 71 2043 82L2115 154Q2125 164 2125 180Z" style="fill:#8d65c5;stroke:none" transform="scale(1,-1) translate(0,-256)" /></svg>