<?xml version="1.0" encoding="utf-8" ?>
<svg baseProfile="full" height="256" version="1.1" width="256" xmlns="http://www.w3.org/2000/svg" xmlns:ev="http://www.w3.org/2001/xml-events" xmlns:xlink="http://www.w3.org/1999/xlink"><defs /><path d="M593 486Q623 486 644 465L1152 -43Q1173 -64 1173 -94Q1173 -111 1165.5 -125.0Q1158 -139 1147.5 -151.5Q1137 -164 1124.0 -175.0Q1111 -186 1101 -196Q1080 -217 1050 -217Q1020 -217 999 -196L491 312Q470 333 470 363Q470 393 491 414Q501 424 512.0 437.0Q523 450 535.5 460.5Q548 471 562.0 478.5Q576 486 593 486ZM470 69Q492 69 508 53L737 -175Q753 -191 753 -213Q753 -236 737.5 -251.5Q722 -267 699 -267Q677 -267 661 -251L432 -23Q416 -7 416 15Q416 37 432.0 53.0Q448 69 470 69Z" style="fill:#5092ff;stroke:none" transform="scale(1,-1) translate(0,-256)" /></svg>