<?xml version="1.0" encoding="utf-8" ?>
<svg baseProfile="full" height="256" version="1.1" width="256" xmlns="http://www.w3.org/2000/svg" xmlns:ev="http://www.w3.org/2001/xml-events" xmlns:xlink="http://www.w3.org/1999/xlink"><defs /><path d="M1561 1336Q1575 1336 1588.5 1330.5Q1602 1325 1612 1315L1711 1215L1775 1279Q1796 1300 1825 1300Q1855 1300 1876 1279L1978 1177Q1999 1156 1999 1126Q1999 1097 1978 1076L1914 1012L2002 925Q2012 915 2017.5 901.5Q2023 888 2023 874Q2023 844 2002 823L1158 -21Q1137 -42 1107 -42Q1078 -42 1057 -21L666 370Q645 391 645 420Q645 450 666 471L1051 856L1116 866L1126 931L1191 997L1258 1007L1268 1073L1338 1144L1404 1153L1413 1218L1510 1315Q1531 1336 1561 1336Z" style="fill:#aeddff;stroke:none" transform="scale(1,-1) translate(0,-256)" /></svg>