<?xml version="1.0" encoding="utf-8" ?>
<svg baseProfile="full" height="256" version="1.1" width="256" xmlns="http://www.w3.org/2000/svg" xmlns:ev="http://www.w3.org/2001/xml-events" xmlns:xlink="http://www.w3.org/1999/xlink"><defs /><path d="M1406 -198Q1316 -198 1234.5 -174.5Q1153 -151 1082.5 -108.0Q1012 -65 954.5 -5.5Q897 54 856.0 126.5Q815 199 793.0 281.5Q771 364 771 452Q771 540 793.0 622.5Q815 705 856.0 777.5Q897 850 954.5 909.5Q1012 969 1082.5 1012.0Q1153 1055 1234.5 1078.5Q1316 1102 1406 1102Q1495 1102 1577.0 1078.5Q1659 1055 1729.5 1012.0Q1800 969 1857.5 909.5Q1915 850 1955.5 777.5Q1996 705 2018.0 622.5Q2040 540 2040 452Q2040 364 2018.0 281.5Q1996 199 1955.5 126.5Q1915 54 1857.5 -5.5Q1800 -65 1729.5 -108.0Q1659 -151 1577.0 -174.5Q1495 -198 1406 -198ZM1405 1014Q1289 1014 1189.0 969.0Q1089 924 1015.5 847.5Q942 771 900.0 668.5Q858 566 858 452Q858 338 900.0 236.0Q942 134 1015.5 57.0Q1089 -20 1189.0 -65.0Q1289 -110 1405 -110Q1521 -110 1621.5 -65.0Q1722 -20 1795.5 57.0Q1869 134 1911.0 236.0Q1953 338 1953 452Q1953 528 1934.0 599.5Q1915 671 1880.0 733.5Q1845 796 1795.5 847.5Q1746 899 1685.0 936.0Q1624 973 1553.0 993.5Q1482 1014 1405 1014Z" style="fill:#f3ad61;stroke:none" transform="scale(1,-1) translate(0,-256)" /></svg>