<?xml version="1.0" encoding="utf-8" ?>
<svg baseProfile="full" height="256" version="1.1" width="256" xmlns="http://www.w3.org/2000/svg" xmlns:ev="http://www.w3.org/2001/xml-events" xmlns:xlink="http://www.w3.org/1999/xlink"><defs /><path d="M1507 555Q1559 526 1589.5 474.5Q1620 423 1620 363Q1620 318 1602.5 278.0Q1585 238 1555.5 208.5Q1526 179 1486.0 161.5Q1446 144 1401 144Q1367 144 1334.5 154.5Q1302 165 1275.0 184.0Q1248 203 1227.0 229.5Q1206 256 1195 289Q1190 302 1190 314Q1190 343 1210.5 363.0Q1231 383 1260 383Q1290 383 1303.5 367.5Q1317 352 1327.5 333.5Q1338 315 1353.0 299.5Q1368 284 1401 284Q1434 284 1457.0 307.0Q1480 330 1480 363Q1480 396 1457.0 419.5Q1434 443 1401 443Q1372 443 1351.5 463.5Q1331 484 1331 513Q1331 525 1339.5 544.0Q1348 563 1359.5 583.0Q1371 603 1382.5 621.0Q1394 639 1400 650Q1378 650 1348.5 648.0Q1319 646 1292.5 651.0Q1266 656 1247.5 671.0Q1229 686 1229 721Q1229 750 1249.5 770.5Q1270 791 1299 791H1521Q1551 791 1571.0 770.5Q1591 750 1591 721Q1591 701 1582 686L1507 555Z" style="fill:#402a32;stroke:none" transform="scale(1,-1) translate(0,-256)" /></svg>