<?xml version="1.0" encoding="utf-8" ?>
<svg baseProfile="full" height="256" version="1.1" width="256" xmlns="http://www.w3.org/2000/svg" xmlns:ev="http://www.w3.org/2001/xml-events" xmlns:xlink="http://www.w3.org/1999/xlink"><defs /><path d="M1608 635Q1560 678 1533.5 737.0Q1507 796 1507 860Q1507 923 1531.0 978.5Q1555 1034 1596.5 1075.5Q1638 1117 1693.5 1141.0Q1749 1165 1812 1165Q1875 1165 1931.0 1141.0Q1987 1117 2028.5 1076.0Q2070 1035 2094.0 979.0Q2118 923 2118 860Q2118 795 2092.0 737.0Q2066 679 2018 635Q1919 673 1813 673Q1707 673 1608 635Z" style="fill:#ffffff;stroke:none" transform="scale(1,-1) translate(0,-256)" /></svg>