<?xml version="1.0" encoding="utf-8" ?>
<svg baseProfile="full" height="256" version="1.1" width="256" xmlns="http://www.w3.org/2000/svg" xmlns:ev="http://www.w3.org/2001/xml-events" xmlns:xlink="http://www.w3.org/1999/xlink"><defs /><path d="M2089 1150Q2065 1150 2055 1175Q2041 1210 2022.0 1239.5Q2003 1269 1976 1295Q1940 1330 1896.0 1348.0Q1852 1366 1801 1366Q1786 1366 1775.5 1376.5Q1765 1387 1765 1402Q1765 1417 1775.5 1427.5Q1786 1438 1801 1438Q1854 1438 1905.0 1419.5Q1956 1401 1999.5 1369.0Q2043 1337 2075.0 1293.0Q2107 1249 2123 1198Q2124 1195 2124.5 1192.5Q2125 1190 2125 1187Q2125 1172 2114.5 1161.0Q2104 1150 2089 1150ZM1011 1294Q1025 1294 1036.0 1283.0Q1047 1272 1047 1258Q1047 1244 1036.0 1233.0Q1025 1222 1011 1222Q973 1222 934.5 1208.5Q896 1195 864 1174Q822 1147 797.0 1114.5Q772 1082 758 1034Q754 1022 745.5 1014.5Q737 1007 724 1007Q709 1007 698.0 1017.0Q687 1027 687 1042Q687 1048 688 1051Q701 1102 733.5 1146.5Q766 1191 810.0 1224.0Q854 1257 906.0 1275.5Q958 1294 1011 1294ZM1053 851Q1019 851 999.5 842.5Q980 834 968.0 820.5Q956 807 948.5 792.0Q941 777 932.5 763.5Q924 750 911.5 741.5Q899 733 877 733Q846 733 825.0 753.5Q804 774 804 805Q804 810 804.5 813.5Q805 817 806 822Q816 863 841.0 895.5Q866 928 899.5 950.0Q933 972 973.0 983.5Q1013 995 1053 995Q1093 995 1133.0 983.5Q1173 972 1207.0 950.0Q1241 928 1266.0 895.5Q1291 863 1301 822Q1302 817 1302.5 813.5Q1303 810 1303 805Q1303 774 1282.0 753.5Q1261 733 1230 733Q1207 733 1194.5 741.5Q1182 750 1173.5 763.5Q1165 777 1158.0 792.0Q1151 807 1138.5 820.5Q1126 834 1106.5 842.5Q1087 851 1053 851ZM1924 863Q1924 833 1912.5 806.5Q1901 780 1881.5 760.5Q1862 741 1836.0 730.0Q1810 719 1780 719Q1750 719 1724.0 730.5Q1698 742 1678.5 761.5Q1659 781 1648.0 807.0Q1637 833 1637 863Q1637 893 1648.0 919.0Q1659 945 1678.5 964.5Q1698 984 1724.0 995.0Q1750 1006 1780 1006Q1810 1006 1836.0 995.0Q1862 984 1881.5 964.5Q1901 945 1912.5 919.0Q1924 893 1924 863Z" style="fill:#402a32;stroke:none" transform="scale(1,-1) translate(0,-256)" /></svg>