<?xml version="1.0" encoding="utf-8" ?>
<svg baseProfile="full" height="256" version="1.1" width="256" xmlns="http://www.w3.org/2000/svg" xmlns:ev="http://www.w3.org/2001/xml-events" xmlns:xlink="http://www.w3.org/1999/xlink"><defs /><path d="M1118 36V29Q1098 51 1061.5 61.0Q1025 71 990 73Q949 76 903 72Q881 72 857.5 79.0Q834 86 811 98Q831 135 870.0 157.5Q909 180 957 180Q990 180 1019.5 168.5Q1049 157 1071.0 137.5Q1093 118 1105.5 92.0Q1118 66 1118 36ZM1855 180Q1903 180 1942.0 157.5Q1981 135 2001 98Q1978 86 1954.5 79.0Q1931 72 1909 72Q1863 76 1822 73Q1787 71 1750.5 61.0Q1714 51 1694 29Q1694 31 1693.5 32.5Q1693 34 1693 36Q1693 66 1706.0 92.0Q1719 118 1741.0 137.5Q1763 157 1792.5 168.5Q1822 180 1855 180Z" style="fill:#d67d00;stroke:none" transform="scale(1,-1) translate(0,-256)" /></svg>