<?xml version="1.0" encoding="utf-8" ?>
<svg baseProfile="full" height="256" version="1.1" width="256" xmlns="http://www.w3.org/2000/svg" xmlns:ev="http://www.w3.org/2001/xml-events" xmlns:xlink="http://www.w3.org/1999/xlink"><defs /><path d="M1729 791Q1743 737 1761.0 708.0Q1779 679 1796 665Q1815 649 1837 647Q1904 633 1963.5 609.0Q2023 585 2066.5 549.5Q2110 514 2135.5 466.5Q2161 419 2161 360Q2161 300 2137.0 247.5Q2113 195 2075.5 156.0Q2038 117 1993.5 94.5Q1949 72 1909 72Q1862 76 1821 73Q1786 71 1749.5 61.0Q1713 51 1693 29Q1673 6 1644.5 -15.5Q1616 -37 1579.5 -53.5Q1543 -70 1499.0 -80.0Q1455 -90 1406 -90Q1356 -90 1312.5 -80.0Q1269 -70 1232.5 -53.0Q1196 -36 1167.0 -15.0Q1138 6 1118 29Q1098 52 1062.0 61.5Q1026 71 991 73Q950 76 903 72Q862 72 818.0 94.5Q774 117 736.5 156.0Q699 195 675.0 247.5Q651 300 651 360Q651 419 676.5 466.5Q702 514 745.5 549.5Q789 585 848.0 609.0Q907 633 975 647Q995 649 1015 665Q1032 679 1050.5 708.0Q1069 737 1083 791L1181 1294Q1191 1359 1219 1411Q1231 1433 1247.5 1454.0Q1264 1475 1287.0 1491.5Q1310 1508 1339.5 1518.0Q1369 1528 1406 1528Q1443 1528 1472.5 1518.0Q1502 1508 1524.5 1491.5Q1547 1475 1564.0 1454.0Q1581 1433 1593 1411Q1620 1359 1631 1294Z" style="fill:#ffc83d;stroke:none" transform="scale(1,-1) translate(0,-256)" /></svg>