<?xml version="1.0" encoding="utf-8" ?>
<svg baseProfile="full" height="256" version="1.1" width="256" xmlns="http://www.w3.org/2000/svg" xmlns:ev="http://www.w3.org/2001/xml-events" xmlns:xlink="http://www.w3.org/1999/xlink"><defs /><path d="M1370 1366Q1347 1366 1327.5 1374.5Q1308 1383 1293.5 1397.5Q1279 1412 1270.5 1431.5Q1262 1451 1262 1474Q1262 1496 1270.5 1516.0Q1279 1536 1294.0 1550.0Q1309 1564 1328.5 1572.5Q1348 1581 1370 1581Q1388 1581 1406 1575V1372Q1388 1366 1370 1366ZM939 719Q887 719 841.0 739.0Q795 759 761.0 793.0Q727 827 707.0 873.0Q687 919 687 971Q687 1023 707.0 1068.5Q727 1114 761.5 1148.0Q796 1182 841.5 1202.0Q887 1222 939 1222Q991 1222 1036.5 1202.0Q1082 1182 1116.0 1148.0Q1150 1114 1170.0 1068.5Q1190 1023 1190 971Q1190 919 1170.5 873.0Q1151 827 1117.0 793.0Q1083 759 1037.0 739.0Q991 719 939 719ZM597 120Q633 165 685.0 190.5Q737 216 795 216Q847 216 893.0 196.0Q939 176 973.0 142.0Q1007 108 1027.0 62.0Q1047 16 1047 -36Q1047 -81 1032.0 -122.0Q1017 -163 988 -197Q872 -143 772.5 -63.0Q673 17 597 120ZM1406 148Q1374 154 1348.0 170.5Q1322 187 1302.5 210.5Q1283 234 1272.5 263.0Q1262 292 1262 324Q1262 356 1273.0 385.0Q1284 414 1303.0 437.5Q1322 461 1348.5 477.5Q1375 494 1406 500Z" style="fill:#321b41;stroke:none" transform="scale(1,-1) translate(0,-256)" /></svg>