<?xml version="1.0" encoding="utf-8" ?>
<svg baseProfile="full" height="256" version="1.1" width="256" xmlns="http://www.w3.org/2000/svg" xmlns:ev="http://www.w3.org/2001/xml-events" xmlns:xlink="http://www.w3.org/1999/xlink"><defs /><path d="M400 719Q400 858 436.0 986.5Q472 1115 537.5 1226.5Q603 1338 695.0 1430.0Q787 1522 898.5 1587.5Q1010 1653 1138.5 1689.0Q1267 1725 1406 1725Q1545 1725 1673.5 1689.0Q1802 1653 1913.5 1587.5Q2025 1522 2117.0 1430.0Q2209 1338 2274.5 1226.5Q2340 1115 2376.0 986.5Q2412 858 2412 719Q2412 580 2376.0 451.5Q2340 323 2274.5 211.5Q2209 100 2117.0 8.0Q2025 -84 1913.5 -149.5Q1802 -215 1673.5 -251.0Q1545 -287 1406 -287Q1267 -287 1138.5 -251.0Q1010 -215 898.5 -149.5Q787 -84 695.0 8.0Q603 100 537.5 211.5Q472 323 436.0 451.5Q400 580 400 719ZM546 791H833Q839 884 859.0 974.0Q879 1064 914 1150H659Q611 1067 582.5 976.5Q554 886 546 791ZM977 791H1334V1150H1071Q991 979 977 791ZM1334 647H977Q991 459 1071 288H1334ZM1334 144H1155Q1232 33 1334 -52ZM1622 -116Q1746 -84 1854.5 -17.5Q1963 49 2048 144H1827Q1785 72 1733.5 6.5Q1682 -59 1622 -116ZM1898 288H2153Q2201 370 2229.0 461.0Q2257 552 2265 647H1979Q1973 554 1953.0 464.0Q1933 374 1898 288ZM1835 647H1478V288H1740Q1781 373 1804.5 463.0Q1828 553 1835 647ZM1979 791H2265Q2257 886 2229.0 977.0Q2201 1068 2153 1150H1898Q1933 1064 1953.0 974.0Q1973 884 1979 791ZM1740 1150H1478V791H1835Q1828 885 1804.5 975.0Q1781 1065 1740 1150ZM1828 1294H2048Q1963 1389 1854.5 1455.5Q1746 1522 1622 1554Q1683 1497 1734.5 1431.5Q1786 1366 1828 1294ZM1478 1490V1294H1657Q1580 1405 1478 1490ZM1334 1490Q1232 1405 1155 1294H1334ZM1478 144V-52Q1580 33 1657 144ZM659 288H915Q880 374 859.5 464.0Q839 554 833 647H546Q554 552 582.5 461.5Q611 371 659 288ZM1190 -116Q1130 -59 1078.5 6.5Q1027 72 985 144H763Q848 49 957.0 -17.5Q1066 -84 1190 -116ZM984 1294Q1026 1366 1077.5 1431.5Q1129 1497 1189 1554Q1065 1522 956.5 1455.5Q848 1389 763 1294Z" style="fill:#83cbff;stroke:none" transform="scale(1,-1) translate(0,-256)" /></svg>