<?xml version="1.0" encoding="utf-8" ?>
<svg baseProfile="full" height="256" version="1.1" width="256" xmlns="http://www.w3.org/2000/svg" xmlns:ev="http://www.w3.org/2001/xml-events" xmlns:xlink="http://www.w3.org/1999/xlink"><defs /><path d="M1571 1205Q1558 1213 1538.5 1217.5Q1519 1222 1504 1222Q1496 1222 1487.5 1220.5Q1479 1219 1471 1219Q1463 1219 1458.5 1224.0Q1454 1229 1454 1237Q1454 1245 1459.5 1249.0Q1465 1253 1473.0 1255.0Q1481 1257 1489.5 1257.5Q1498 1258 1504 1258Q1511 1258 1526.5 1256.0Q1542 1254 1558.5 1249.5Q1575 1245 1587.5 1237.5Q1600 1230 1600 1220Q1600 1212 1595.0 1207.0Q1590 1202 1582 1202Q1575 1202 1572 1205ZM1136 1163Q1119 1163 1119 1180Q1119 1192 1134.0 1202.0Q1149 1212 1168.5 1219.0Q1188 1226 1207.0 1229.5Q1226 1233 1234 1233Q1242 1233 1250.5 1230.5Q1259 1228 1259 1217Q1259 1209 1254.5 1203.0Q1250 1197 1241 1197Q1216 1197 1198.5 1191.5Q1181 1186 1169.0 1180.0Q1157 1174 1149.0 1168.5Q1141 1163 1136 1163Z" style="fill:#d37034;stroke:none" transform="scale(1,-1) translate(0,-256)" /></svg>