<?xml version="1.0" encoding="utf-8" ?>
<svg baseProfile="full" height="256" version="1.1" width="256" xmlns="http://www.w3.org/2000/svg" xmlns:ev="http://www.w3.org/2001/xml-events" xmlns:xlink="http://www.w3.org/1999/xlink"><defs /><path d="M1575 1043Q1575 1033 1574 1028L1462 1018Q1461 1023 1459.5 1027.5Q1458 1032 1458 1037Q1458 1062 1474.5 1079.0Q1491 1096 1517 1096Q1538 1096 1556.5 1081.0Q1575 1066 1575 1043ZM1174 1013Q1174 1038 1191.5 1054.5Q1209 1071 1233 1071Q1256 1071 1273.0 1054.5Q1290 1038 1290 1014Q1290 1007 1289 1003L1177 993Q1175 997 1174.5 1003.0Q1174 1009 1174 1013Z" style="fill:#7d4533;stroke:none" transform="scale(1,-1) translate(0,-256)" /></svg>