<?xml version="1.0" encoding="utf-8" ?>
<svg baseProfile="full" height="256" version="1.1" width="256" xmlns="http://www.w3.org/2000/svg" xmlns:ev="http://www.w3.org/2001/xml-events" xmlns:xlink="http://www.w3.org/1999/xlink"><defs /><path d="M1483 1040Q1483 1054 1493.5 1062.5Q1504 1071 1518 1071Q1529 1071 1539.5 1062.0Q1550 1053 1550 1041Q1550 1036 1548 1026L1489 1021Q1483 1028 1483 1040ZM1233 1046Q1247 1046 1256.0 1036.5Q1265 1027 1265 1014Q1265 1007 1262 1000L1204 995Q1201 999 1200.0 1004.0Q1199 1009 1199 1014Q1199 1029 1209.0 1037.5Q1219 1046 1233 1046Z" style="fill:#000000;stroke:none" transform="scale(1,-1) translate(0,-256)" /></svg>