<?xml version="1.0" encoding="utf-8" ?>
<svg baseProfile="full" height="256" version="1.1" width="256" xmlns="http://www.w3.org/2000/svg" xmlns:ev="http://www.w3.org/2001/xml-events" xmlns:xlink="http://www.w3.org/1999/xlink"><defs /><path d="M427 912Q417 923 408.0 933.5Q399 944 399 960Q399 974 406.5 984.0Q414 994 426 999Q424 1004 423.0 1008.0Q422 1012 422 1017Q422 1034 434.5 1046.5Q447 1059 464 1059Q479 1059 492 1049Q497 1060 507.5 1066.5Q518 1073 529 1073Q548 1073 561 1058L627 981H688Q696 981 696 989Q696 993 690.0 999.0Q684 1005 677.0 1013.0Q670 1021 664.0 1031.5Q658 1042 658 1056Q658 1079 673.5 1094.0Q689 1109 711 1109Q724 1109 734.5 1103.0Q745 1097 754.0 1088.5Q763 1080 770.5 1070.0Q778 1060 786 1051Q817 1016 833.0 973.5Q849 931 849 884V755H579Q545 755 514.5 769.5Q484 784 462 809Q457 815 448.5 824.0Q440 833 432.5 842.5Q425 852 419.5 862.0Q414 872 414 881Q414 899 427 912ZM2367 911Q2379 899 2379 881Q2379 871 2373.5 861.0Q2368 851 2360.5 841.5Q2353 832 2345.0 823.5Q2337 815 2331 808Q2308 782 2278.0 768.5Q2248 755 2214 755H1945V884Q1945 929 1961.0 972.5Q1977 1016 2007 1050Q2014 1059 2022.0 1069.0Q2030 1079 2039.0 1088.0Q2048 1097 2058.5 1103.0Q2069 1109 2082 1109Q2105 1109 2120.0 1093.5Q2135 1078 2135 1055Q2135 1042 2129.0 1032.0Q2123 1022 2116.0 1013.5Q2109 1005 2103.0 999.0Q2097 993 2097 989Q2097 981 2105 981H2166L2232 1058Q2244 1072 2263 1072Q2289 1072 2302 1049Q2314 1059 2328 1059Q2345 1059 2358.0 1046.5Q2371 1034 2371 1017Q2371 1012 2370.0 1008.0Q2369 1004 2367 999Q2379 997 2387.0 983.5Q2395 970 2395 959Q2395 944 2386.0 933.0Q2377 922 2367 911Z" style="fill:#ffc83d;stroke:none" transform="scale(1,-1) translate(0,-256)" /></svg>