<?xml version="1.0" encoding="utf-8" ?>
<svg baseProfile="full" height="256" version="1.1" width="256" xmlns="http://www.w3.org/2000/svg" xmlns:ev="http://www.w3.org/2001/xml-events" xmlns:xlink="http://www.w3.org/1999/xlink"><defs /><path d="M1598 1290Q1615 1290 1632.0 1284.0Q1649 1278 1663.5 1267.0Q1678 1256 1687.0 1241.0Q1696 1226 1696 1207Q1698 1115 1701.5 1023.5Q1705 932 1705 840Q1705 793 1686.0 751.0Q1667 709 1634.5 676.5Q1602 644 1560.5 623.5Q1519 603 1474 599Q1439 596 1402.5 592.0Q1366 588 1331 588Q1289 588 1248.0 603.0Q1207 618 1172.5 644.5Q1138 671 1114.0 707.0Q1090 743 1083 786Q1071 864 1059.5 940.0Q1048 1016 1036 1094Q1034 1111 1032.5 1128.0Q1031 1145 1031 1162Q1031 1204 1046.5 1242.0Q1062 1280 1088.5 1309.0Q1115 1338 1151.5 1356.0Q1188 1374 1230 1378L1319 1386Q1334 1387 1346.0 1371.0Q1358 1355 1375.5 1335.0Q1393 1315 1420.0 1298.0Q1447 1281 1492 1281Q1518 1281 1545.0 1285.5Q1572 1290 1598 1290Z" style="fill:#ffc83d;stroke:none" transform="scale(1,-1) translate(0,-256)" /></svg>