<?xml version="1.0" encoding="utf-8" ?>
<svg baseProfile="full" height="256" version="1.1" width="256" xmlns="http://www.w3.org/2000/svg" xmlns:ev="http://www.w3.org/2001/xml-events" xmlns:xlink="http://www.w3.org/1999/xlink"><defs /><path d="M1530 1115Q1542 1115 1557.5 1110.0Q1573 1105 1586.5 1096.0Q1600 1087 1609.0 1074.5Q1618 1062 1618 1048Q1618 1032 1602 1030L1457 1017Q1449 1016 1445.0 1021.0Q1441 1026 1441 1033Q1441 1050 1449.0 1065.0Q1457 1080 1469.5 1091.0Q1482 1102 1498.0 1108.5Q1514 1115 1530 1115ZM1220 1088Q1233 1088 1248.5 1082.5Q1264 1077 1277.0 1067.5Q1290 1058 1298.5 1045.5Q1307 1033 1307 1018Q1307 1006 1294 1004L1149 991Q1142 990 1136.0 995.0Q1130 1000 1130 1007Q1130 1024 1138.0 1038.5Q1146 1053 1159.0 1064.0Q1172 1075 1188.0 1081.5Q1204 1088 1220 1088Z" style="fill:#ffffff;stroke:none" transform="scale(1,-1) translate(0,-256)" /></svg>