<?xml version="1.0" encoding="utf-8" ?>
<svg baseProfile="full" height="256" version="1.1" width="256" xmlns="http://www.w3.org/2000/svg" xmlns:ev="http://www.w3.org/2001/xml-events" xmlns:xlink="http://www.w3.org/1999/xlink"><defs /><path d="M1438 1569Q1475 1569 1506.0 1552.5Q1537 1536 1560 1507Q1579 1482 1602.0 1468.0Q1625 1454 1655 1446Q1706 1432 1738.5 1391.5Q1771 1351 1771 1298Q1771 1280 1765.5 1264.0Q1760 1248 1754.0 1233.0Q1748 1218 1742.5 1203.0Q1737 1188 1737 1171Q1737 1136 1740.5 1101.0Q1744 1066 1748.5 1030.5Q1753 995 1757.0 959.5Q1761 924 1761 889Q1761 852 1742.0 819.0Q1723 786 1691 767Q1697 784 1701.5 803.5Q1706 823 1705 840L1696 1207Q1696 1224 1687.5 1239.0Q1679 1254 1665.5 1265.5Q1652 1277 1636.0 1283.5Q1620 1290 1604 1290Q1576 1290 1548.0 1285.5Q1520 1281 1492 1281Q1447 1281 1420.0 1298.0Q1393 1315 1375.5 1335.0Q1358 1355 1346.0 1371.0Q1334 1387 1319 1386L1230 1378Q1188 1374 1151.5 1356.0Q1115 1338 1088.5 1309.0Q1062 1280 1046.5 1242.0Q1031 1204 1031 1162Q1031 1145 1032.5 1128.0Q1034 1111 1036 1094L1083 786Q1085 769 1094.0 749.0Q1103 729 1112 714Q1071 726 1044.5 759.5Q1018 793 1014 835L991 1100Q989 1121 980.0 1136.0Q971 1151 960.5 1166.5Q950 1182 941.5 1202.0Q933 1222 933 1253Q933 1298 957.5 1334.5Q982 1371 1023 1390Q1047 1401 1063.5 1417.5Q1080 1434 1093.5 1452.0Q1107 1470 1119.0 1488.0Q1131 1506 1147.0 1520.0Q1163 1534 1185.5 1543.0Q1208 1552 1241 1552Q1261 1552 1280.0 1545.5Q1299 1539 1319 1539Q1334 1539 1348.0 1543.5Q1362 1548 1376.5 1554.0Q1391 1560 1406.0 1564.5Q1421 1569 1438 1569Z" style="fill:#f1a11e;stroke:none" transform="scale(1,-1) translate(0,-256)" /></svg>