<?xml version="1.0" encoding="utf-8" ?>
<svg baseProfile="full" height="256" version="1.1" width="256" xmlns="http://www.w3.org/2000/svg" xmlns:ev="http://www.w3.org/2001/xml-events" xmlns:xlink="http://www.w3.org/1999/xlink"><defs /><path d="M2164 684Q2186 684 2201.0 668.5Q2216 653 2216 631V270Q2216 226 2199.5 187.0Q2183 148 2154.0 119.5Q2125 91 2086.5 74.5Q2048 58 2004 58Q1963 58 1934.5 69.5Q1906 81 1871 100V-214H925V102Q889 82 859.5 70.0Q830 58 788 58Q744 58 705.5 74.5Q667 91 638.0 119.5Q609 148 592.5 187.0Q576 226 576 270V631Q576 653 591.5 668.5Q607 684 629 684H834Q856 684 871.5 668.5Q887 653 887 631V457Q887 452 890.0 448.5Q893 445 898 445Q899 445 913.5 452.0Q928 459 949.5 470.0Q971 481 995.5 494.0Q1020 507 1042.5 519.0Q1065 531 1081.0 539.5Q1097 548 1102 551Q1172 588 1252 588H1543Q1579 588 1619.0 579.0Q1659 570 1691 553Q1697 549 1714.5 539.5Q1732 530 1753.5 518.0Q1775 506 1799.0 493.0Q1823 480 1843.5 469.5Q1864 459 1878.0 452.0Q1892 445 1894 445Q1899 445 1902.0 448.5Q1905 452 1905 457V631Q1905 653 1920.5 668.5Q1936 684 1958 684H2164Z" style="fill:#ff6723;stroke:none" transform="scale(1,-1) translate(0,-256)" /></svg>