<?xml version="1.0" encoding="utf-8" ?>
<svg baseProfile="full" height="256" version="1.1" width="256" xmlns="http://www.w3.org/2000/svg" xmlns:ev="http://www.w3.org/2001/xml-events" xmlns:xlink="http://www.w3.org/1999/xlink"><defs /><path d="M1919 911Q1919 895 1908.5 884.5Q1898 874 1882 874Q1871 874 1859.0 883.0Q1847 892 1830.0 903.0Q1813 914 1787.5 923.0Q1762 932 1723 932Q1706 932 1689.5 930.0Q1673 928 1656 928Q1641 928 1630.0 938.5Q1619 949 1619 964Q1619 982 1630.5 991.0Q1642 1000 1658.0 1003.0Q1674 1006 1692.0 1006.0Q1710 1006 1722 1006Q1777 1006 1821.0 991.5Q1865 977 1906 939Q1919 928 1919 911ZM915 910Q915 895 925.5 884.5Q936 874 952 874Q958 874 967.5 878.5Q977 883 988.0 889.0Q999 895 1009.5 900.5Q1020 906 1027 909Q1054 919 1081.5 924.5Q1109 930 1138 930Q1148 930 1158.0 929.0Q1168 928 1178 928Q1194 928 1204.0 939.0Q1214 950 1214 965Q1214 980 1206.0 988.5Q1198 997 1186.5 1000.5Q1175 1004 1161.5 1004.5Q1148 1005 1137 1005Q1066 1005 1000 979Q989 975 974.5 968.5Q960 962 947.0 953.0Q934 944 924.5 933.5Q915 923 915 910Z" style="fill:#d37034;stroke:none" transform="scale(1,-1) translate(0,-256)" /></svg>