<?xml version="1.0" encoding="utf-8" ?>
<svg baseProfile="full" height="256" version="1.1" width="256" xmlns="http://www.w3.org/2000/svg" xmlns:ev="http://www.w3.org/2001/xml-events" xmlns:xlink="http://www.w3.org/1999/xlink"><defs /><path d="M993 607Q993 632 1002.5 653.5Q1012 675 1028.5 691.5Q1045 708 1066.5 717.5Q1088 727 1113 727Q1138 727 1160.0 717.5Q1182 708 1198.0 691.5Q1214 675 1223.0 653.5Q1232 632 1232 607Q1232 588 1228 575H998Q993 592 993 607ZM1819 607Q1819 632 1809.5 653.5Q1800 675 1783.5 691.5Q1767 708 1745.5 717.5Q1724 727 1699 727Q1674 727 1652.5 717.5Q1631 708 1614.5 691.5Q1598 675 1588.5 653.5Q1579 632 1579 607Q1579 592 1584 575H1814Q1819 592 1819 607Z" style="fill:#7d4533;stroke:none" transform="scale(1,-1) translate(0,-256)" /></svg>