<?xml version="1.0" encoding="utf-8" ?>
<svg baseProfile="full" height="256" version="1.1" width="256" xmlns="http://www.w3.org/2000/svg" xmlns:ev="http://www.w3.org/2001/xml-events" xmlns:xlink="http://www.w3.org/1999/xlink"><defs /><path d="M1280 360Q1280 368 1284.5 386.5Q1289 405 1296.5 429.0Q1304 453 1312.5 480.5Q1321 508 1329.5 533.0Q1338 558 1345.0 578.5Q1352 599 1355 609Q1360 626 1374.0 636.5Q1388 647 1406 647Q1425 647 1438.5 636.5Q1452 626 1457 609L1528 381Q1530 376 1531.0 370.5Q1532 365 1532 359Q1532 330 1510.0 309.0Q1488 288 1459 288H1353Q1323 288 1301.5 309.0Q1280 330 1280 360Z" style="fill:#ed9200;stroke:none" transform="scale(1,-1) translate(0,-256)" /></svg>