<?xml version="1.0" encoding="utf-8" ?>
<svg baseProfile="full" height="256" version="1.1" width="256" xmlns="http://www.w3.org/2000/svg" xmlns:ev="http://www.w3.org/2001/xml-events" xmlns:xlink="http://www.w3.org/1999/xlink"><defs /><path d="M723 789V914Q723 1007 758.5 1089.5Q794 1172 855.5 1233.5Q917 1295 999.5 1331.0Q1082 1367 1175 1367H1346Q1378 1367 1395.5 1351.5Q1413 1336 1428 1310Q1436 1296 1438.5 1290.5Q1441 1285 1442.5 1281.5Q1444 1278 1447.5 1273.0Q1451 1268 1460 1255Q1505 1190 1575.5 1153.5Q1646 1117 1725 1117Q1772 1117 1818.5 1117.5Q1865 1118 1912 1117Q1950 1116 1984.0 1100.0Q2018 1084 2043.0 1058.0Q2068 1032 2082.5 997.5Q2097 963 2097 925Q2097 891 2094.0 856.5Q2091 822 2089 788L2092 787Q2082 650 2073.5 514.0Q2065 378 2054 241Q2052 210 2042.5 177.5Q2033 145 2022 116Q1992 41 1942.0 -20.0Q1892 -81 1828.0 -124.5Q1764 -168 1689.0 -191.5Q1614 -215 1533 -215H1280Q1199 -215 1124.0 -191.5Q1049 -168 985.0 -124.5Q921 -81 871.0 -20.0Q821 41 791 116Q780 145 770.5 177.5Q761 210 759 241Q748 378 738.5 514.5Q729 651 719 788Z" style="fill:#ffc83d;stroke:none" transform="scale(1,-1) translate(0,-256)" /></svg>