<?xml version="1.0" encoding="utf-8" ?>
<svg baseProfile="full" height="256" version="1.1" width="256" xmlns="http://www.w3.org/2000/svg" xmlns:ev="http://www.w3.org/2001/xml-events" xmlns:xlink="http://www.w3.org/1999/xlink"><defs /><path d="M2053 1438Q2083 1438 2104.0 1417.0Q2125 1396 2125 1366V1057Q2125 1027 2104.0 1006.0Q2083 985 2053 985Q2023 985 2002.0 1006.0Q1981 1027 1981 1057V1184L1732 932Q1791 857 1821.5 766.5Q1852 676 1852 581Q1852 462 1806.5 357.5Q1761 253 1683.0 175.0Q1605 97 1500.5 51.5Q1396 6 1277 6Q1158 6 1053.0 51.0Q948 96 870.0 174.0Q792 252 747.0 357.0Q702 462 702 581Q702 700 747.5 804.5Q793 909 871.0 987.0Q949 1065 1053.5 1110.5Q1158 1156 1277 1156Q1373 1156 1464.0 1125.0Q1555 1094 1630 1034L1887 1294H1750Q1720 1294 1699.0 1315.0Q1678 1336 1678 1366Q1678 1396 1699.0 1417.0Q1720 1438 1750 1438ZM1277 1012Q1188 1012 1109.5 978.0Q1031 944 972.5 885.5Q914 827 880.0 748.5Q846 670 846 581Q846 492 880.0 413.5Q914 335 972.5 276.5Q1031 218 1109.5 184.0Q1188 150 1277 150Q1366 150 1444.5 184.0Q1523 218 1581.5 276.5Q1640 335 1674.0 413.5Q1708 492 1708 581Q1708 670 1674.0 748.5Q1640 827 1581.5 885.5Q1523 944 1444.5 978.0Q1366 1012 1277 1012Z" style="fill:#ffffff;stroke:none" transform="scale(1,-1) translate(0,-256)" /></svg>