<?xml version="1.0" encoding="utf-8" ?>
<svg baseProfile="full" height="256" version="1.1" width="256" xmlns="http://www.w3.org/2000/svg" xmlns:ev="http://www.w3.org/2001/xml-events" xmlns:xlink="http://www.w3.org/1999/xlink"><defs /><path d="M1894 391Q1894 388 1894.0 384.5Q1894 381 1893 378Q1882 302 1852.5 237.0Q1823 172 1776.5 121.0Q1730 70 1667.5 35.0Q1605 0 1529 -16V-165Q1529 -192 1518.5 -215.5Q1508 -239 1490.5 -257.0Q1473 -275 1449.0 -285.0Q1425 -295 1398 -295Q1371 -295 1347.5 -285.0Q1324 -275 1306.0 -257.0Q1288 -239 1278.0 -215.5Q1268 -192 1268 -165V-16Q1208 -3 1154.0 24.0Q1100 51 1055.0 90.0Q1010 129 976.0 178.5Q942 228 923 287Q916 308 909.5 333.0Q903 358 903 380Q903 409 911.5 435.0Q920 461 936.5 480.0Q953 499 977.5 510.0Q1002 521 1033 521Q1090 521 1121.0 488.0Q1152 455 1163 403Q1183 308 1244.0 269.0Q1305 230 1399 230Q1433 230 1467.0 236.0Q1501 242 1530.0 256.0Q1559 270 1582.5 293.0Q1606 316 1621 350Q1624 356 1629.0 372.0Q1634 388 1634 394Q1634 408 1629.5 427.0Q1625 446 1620 460Q1606 497 1584.0 522.5Q1562 548 1533.0 564.0Q1504 580 1470.0 587.5Q1436 595 1399 595Q1325 595 1256.0 611.0Q1187 627 1127.5 660.0Q1068 693 1020.0 743.5Q972 794 941 863Q924 901 913.5 943.5Q903 986 903 1028Q903 1109 930.5 1181.5Q958 1254 1007.0 1312.0Q1056 1370 1122.5 1410.0Q1189 1450 1267 1467Q1267 1499 1266.5 1532.0Q1266 1565 1268 1597Q1269 1624 1279.5 1647.5Q1290 1671 1307.0 1688.0Q1324 1705 1347.5 1715.0Q1371 1725 1399 1725Q1426 1725 1449.5 1714.5Q1473 1704 1491.0 1686.5Q1509 1669 1519.0 1645.0Q1529 1621 1529 1594Q1529 1562 1528.5 1530.0Q1528 1498 1527 1466Q1587 1453 1640.5 1426.5Q1694 1400 1737.5 1362.0Q1781 1324 1814.5 1274.5Q1848 1225 1868 1167Q1879 1135 1886.0 1101.0Q1893 1067 1893 1033Q1893 1004 1882.5 979.5Q1872 955 1854.0 937.5Q1836 920 1811.0 910.0Q1786 900 1757 900Q1729 900 1707.5 910.5Q1686 921 1671.0 938.0Q1656 955 1647.0 978.0Q1638 1001 1634 1026Q1619 1130 1559.0 1175.5Q1499 1221 1396 1221Q1350 1221 1308.0 1209.5Q1266 1198 1234.0 1174.5Q1202 1151 1183.0 1114.5Q1164 1078 1164 1027Q1164 1013 1168.0 997.0Q1172 981 1178 967Q1192 935 1216.0 913.5Q1240 892 1270.0 879.0Q1300 866 1333.5 861.0Q1367 856 1399 856Q1475 856 1545.0 838.0Q1615 820 1674.0 784.0Q1733 748 1779.5 694.0Q1826 640 1856 568Q1873 527 1883.5 481.5Q1894 436 1894 391Z" style="fill:#00d26a;stroke:none" transform="scale(1,-1) translate(0,-256)" /></svg>