<?xml version="1.0" encoding="utf-8" ?>
<svg baseProfile="full" height="256" version="1.1" width="256" xmlns="http://www.w3.org/2000/svg" xmlns:ev="http://www.w3.org/2001/xml-events" xmlns:xlink="http://www.w3.org/1999/xlink"><defs /><path d="M1788 1537Q1873 1537 1958.5 1524.0Q2044 1511 2125 1484V633Q1960 683 1787 683Q1694 683 1605.0 667.0Q1516 651 1429 617Q1364 591 1299.0 577.0Q1234 563 1165 563Q1108 563 1053.0 572.5Q998 582 942 596Q897 607 852.0 616.5Q807 626 759 624V1478H774Q812 1478 849.0 1469.5Q886 1461 923 1453Q984 1439 1044.0 1428.0Q1104 1417 1167 1417Q1243 1417 1314.0 1432.5Q1385 1448 1455 1476Q1536 1508 1618.5 1522.5Q1701 1537 1788 1537Z" style="fill:#ffffff;stroke:none" transform="scale(1,-1) translate(0,-256)" /></svg>