<?xml version="1.0" encoding="utf-8" ?>
<svg baseProfile="full" height="256" version="1.1" width="256" xmlns="http://www.w3.org/2000/svg" xmlns:ev="http://www.w3.org/2001/xml-events" xmlns:xlink="http://www.w3.org/1999/xlink"><defs /><path d="M1018 1366Q1042 1366 1059.5 1348.5Q1077 1331 1077 1307Q1077 1284 1061 1268L1031 1085L855 1062Q839 1046 816 1046Q793 1046 775.5 1063.5Q758 1081 758 1105Q758 1127 774 1143L980 1350Q996 1366 1018 1366ZM1072 737Q1080 560 1149.5 400.5Q1219 241 1344 116L1727 -268Q1746 -287 1774 -287Q1803 -287 1822 -268L2393 305Q2412 324 2412 352Q2412 380 2393 399L2009 783Q1884 908 1724.5 978.0Q1565 1048 1389 1056L1383 1051L1143 969L1076 742Z" style="fill:#44911b;stroke:none" transform="scale(1,-1) translate(0,-256)" /></svg>