<?xml version="1.0" encoding="utf-8" ?>
<svg baseProfile="full" height="256" version="1.1" width="256" xmlns="http://www.w3.org/2000/svg" xmlns:ev="http://www.w3.org/2001/xml-events" xmlns:xlink="http://www.w3.org/1999/xlink"><defs /><path d="M494 1364Q483 1364 474 1373L408 1439Q400 1447 400 1459Q400 1472 408 1480L644 1716Q653 1725 665 1725Q677 1725 685 1717L752 1650Q760 1642 760 1630Q760 1619 751 1610L515 1373Q506 1364 494 1364ZM848 1056Q851 1058 868.0 1074.5Q885 1091 909.0 1115.0Q933 1139 960.5 1166.5Q988 1194 1011.5 1218.0Q1035 1242 1051.0 1259.0Q1067 1276 1069 1279L1071 1278L1257 1093Q1272 1078 1287.0 1070.0Q1302 1062 1317.5 1059.0Q1333 1056 1350.5 1056.0Q1368 1056 1389 1056L1383 1051L1353 829Q1350 807 1335.0 791.5Q1320 776 1298 773L1076 742L1072 737Q1070 758 1070.5 775.0Q1071 792 1068.0 807.5Q1065 823 1057.5 838.0Q1050 853 1034 870L849 1056ZM2184 373Q2184 382 2177 389L1939 628Q1932 635 1923 635Q1915 635 1908 628L1495 215Q1489 209 1489 199Q1489 189 1495 183L1733 -56Q1739 -62 1749 -62Q1759 -62 1765 -56L2177 358Q2184 365 2184 373Z" style="fill:#f3c07b;stroke:none" transform="scale(1,-1) translate(0,-256)" /></svg>