<?xml version="1.0" encoding="utf-8" ?>
<svg baseProfile="full" height="256" version="1.1" width="256" xmlns="http://www.w3.org/2000/svg" xmlns:ev="http://www.w3.org/2001/xml-events" xmlns:xlink="http://www.w3.org/1999/xlink"><defs /><path d="M885 1478Q893 1478 898.0 1483.0Q903 1488 903 1496V1687Q903 1703 913.5 1714.0Q924 1725 940 1725Q954 1725 964.5 1714.0Q975 1703 975 1689V1340L903 1222L786 1150H436Q422 1150 411.0 1160.5Q400 1171 400 1185Q400 1201 411.0 1211.5Q422 1222 437 1222H644Q652 1222 657.0 1227.0Q662 1232 662 1239Q662 1249 650.5 1260.0Q639 1271 625.0 1283.0Q611 1295 599.5 1307.5Q588 1320 588 1333Q588 1352 600.5 1358.5Q613 1365 632.0 1365.5Q651 1366 673.5 1364.5Q696 1363 715.0 1365.5Q734 1368 746.5 1378.0Q759 1388 759 1413V1549Q759 1563 768.5 1572.0Q778 1581 792 1581Q808 1581 820.0 1565.0Q832 1549 842.0 1529.5Q852 1510 862.0 1494.0Q872 1478 885 1478Z" style="fill:#feefc2;stroke:none" transform="scale(1,-1) translate(0,-256)" /></svg>