<?xml version="1.0" encoding="utf-8" ?>
<svg baseProfile="full" height="256" version="1.1" width="256" xmlns="http://www.w3.org/2000/svg" xmlns:ev="http://www.w3.org/2001/xml-events" xmlns:xlink="http://www.w3.org/1999/xlink"><defs /><path d="M2161 1725Q2213 1725 2259.0 1705.5Q2305 1686 2339.0 1652.0Q2373 1618 2392.5 1572.0Q2412 1526 2412 1474Q2412 1422 2392.5 1376.0Q2373 1330 2339.0 1296.0Q2305 1262 2259.0 1242.0Q2213 1222 2161 1222Q2133 1222 2106.0 1228.5Q2079 1235 2053 1246L491 -272Q476 -287 453 -287Q430 -287 415.0 -272.0Q400 -257 400 -234Q400 -212 415 -197L1930 1373Q1920 1397 1914.5 1422.5Q1909 1448 1909 1474Q1909 1526 1929.0 1572.0Q1949 1618 1983.0 1652.0Q2017 1686 2063.0 1705.5Q2109 1725 2161 1725ZM2053 1474Q2053 1451 2061.5 1431.5Q2070 1412 2084.5 1397.5Q2099 1383 2118.5 1374.5Q2138 1366 2161 1366Q2183 1366 2203.0 1374.5Q2223 1383 2237.0 1398.0Q2251 1413 2259.5 1432.5Q2268 1452 2268 1474Q2268 1496 2259.5 1515.5Q2251 1535 2236.5 1549.5Q2222 1564 2202.5 1572.5Q2183 1581 2161 1581Q2139 1581 2119.5 1572.5Q2100 1564 2085.0 1550.0Q2070 1536 2061.5 1516.0Q2053 1496 2053 1474Z" style="fill:#9b9b9b;stroke:none" transform="scale(1,-1) translate(0,-256)" /></svg>