<?xml version="1.0" encoding="utf-8" ?>
<svg baseProfile="full" height="256" version="1.1" width="256" xmlns="http://www.w3.org/2000/svg" xmlns:ev="http://www.w3.org/2001/xml-events" xmlns:xlink="http://www.w3.org/1999/xlink"><defs /><path d="M1809 1545Q1758 1545 1706.5 1534.5Q1655 1524 1608.0 1503.0Q1561 1482 1520.5 1450.5Q1480 1419 1449 1376Q1435 1356 1424.5 1334.5Q1414 1313 1402 1292Q1393 1276 1382.5 1267.0Q1372 1258 1352 1258Q1330 1258 1314.0 1274.0Q1298 1290 1298 1312Q1298 1323 1302 1332Q1335 1410 1387.0 1470.0Q1439 1530 1505.5 1570.5Q1572 1611 1650.0 1632.0Q1728 1653 1811 1653Q1874 1653 1937.5 1641.0Q2001 1629 2060.5 1605.0Q2120 1581 2172.5 1544.5Q2225 1508 2267 1459Q2263 1430 2244.5 1406.5Q2226 1383 2198 1373Q2164 1417 2119.5 1449.5Q2075 1482 2024.0 1503.0Q1973 1524 1918.0 1534.5Q1863 1545 1809 1545ZM2352 1311Q2361 1273 2368.5 1237.0Q2376 1201 2376 1162Q2376 1086 2355.5 1015.5Q2335 945 2298.5 884.0Q2262 823 2211.0 772.5Q2160 722 2098.0 686.0Q2036 650 1965.0 630.5Q1894 611 1819 611H885Q837 611 795.5 595.0Q754 579 720.0 551.5Q686 524 660.0 487.0Q634 450 616.0 408.0Q598 366 588.5 321.5Q579 277 579 234Q579 211 563.5 195.5Q548 180 525 180Q502 180 487.0 196.0Q472 212 472 234Q472 321 501.0 408.0Q530 495 583.5 564.0Q637 633 713.5 676.0Q790 719 885 719H1819Q1909 719 1990.5 753.5Q2072 788 2133.5 848.0Q2195 908 2231.5 988.5Q2268 1069 2268 1160Q2268 1181 2266.5 1201.5Q2265 1222 2260 1242Q2286 1254 2309.5 1271.0Q2333 1288 2352 1311Z" style="fill:#5092ff;stroke:none" transform="scale(1,-1) translate(0,-256)" /></svg>