<?xml version="1.0" encoding="utf-8" ?>
<svg baseProfile="full" height="256" version="1.1" width="256" xmlns="http://www.w3.org/2000/svg" xmlns:ev="http://www.w3.org/2001/xml-events" xmlns:xlink="http://www.w3.org/1999/xlink"><defs /><path d="M1336 1006Q1365 1006 1385.0 986.0Q1405 966 1405 937V644Q1405 615 1385.0 595.0Q1365 575 1336 575H830L1118 1006ZM1910 575H1619Q1590 575 1570.0 595.0Q1550 615 1550 644V937Q1550 966 1570.0 986.0Q1590 1006 1619 1006H1910Q1939 1006 1959.0 986.0Q1979 966 1979 937V644Q1979 615 1959.0 595.0Q1939 575 1910 575ZM2401 575H2192Q2163 575 2143.0 595.0Q2123 615 2123 644V932Q2123 963 2145.0 984.5Q2167 1006 2198 1006H2250Q2252 1002 2253.0 998.5Q2254 995 2256 991L2374 677Q2383 652 2390.0 626.5Q2397 601 2401 575Z" style="fill:#26c9fc;stroke:none" transform="scale(1,-1) translate(0,-256)" /></svg>