<?xml version="1.0" encoding="utf-8" ?>
<svg baseProfile="full" height="256" version="1.1" width="256" xmlns="http://www.w3.org/2000/svg" xmlns:ev="http://www.w3.org/2001/xml-events" xmlns:xlink="http://www.w3.org/1999/xlink"><defs /><path d="M1120 36Q1120 -16 1100.0 -62.0Q1080 -108 1046.0 -142.0Q1012 -176 966.0 -195.5Q920 -215 868 -215Q816 -215 770.0 -195.5Q724 -176 690.0 -142.0Q656 -108 636.5 -62.0Q617 -16 617 36Q617 88 636.5 134.0Q656 180 690.0 214.0Q724 248 770.0 268.0Q816 288 868 288Q920 288 966.0 268.0Q1012 248 1046.0 214.0Q1080 180 1100.0 134.0Q1120 88 1120 36ZM2197 36Q2197 -16 2177.0 -62.0Q2157 -108 2123.0 -142.0Q2089 -176 2043.0 -195.5Q1997 -215 1945 -215Q1893 -215 1847.0 -195.5Q1801 -176 1767.0 -142.0Q1733 -108 1713.0 -62.0Q1693 -16 1693 36Q1693 88 1713.0 134.0Q1733 180 1767.0 214.0Q1801 248 1847.0 268.0Q1893 288 1945 288Q1997 288 2043.0 268.0Q2089 248 2123.0 214.0Q2157 180 2177.0 134.0Q2197 88 2197 36Z" style="fill:#321b41;stroke:none" transform="scale(1,-1) translate(0,-256)" /></svg>