<?xml version="1.0" encoding="utf-8" ?>
<svg baseProfile="full" height="256" version="1.1" width="256" xmlns="http://www.w3.org/2000/svg" xmlns:ev="http://www.w3.org/2001/xml-events" xmlns:xlink="http://www.w3.org/1999/xlink"><defs /><path d="M975 36Q975 14 966.5 -5.5Q958 -25 943.0 -40.0Q928 -55 908.5 -63.5Q889 -72 867 -72Q845 -72 825.5 -63.5Q806 -55 791.0 -40.0Q776 -25 767.5 -5.5Q759 14 759 36Q759 58 767.5 78.0Q776 98 790.5 112.5Q805 127 824.5 135.5Q844 144 867 144Q889 144 908.5 135.5Q928 127 943.0 112.0Q958 97 966.5 77.5Q975 58 975 36ZM2053 36Q2053 14 2044.5 -5.5Q2036 -25 2021.0 -40.0Q2006 -55 1986.5 -63.5Q1967 -72 1945 -72Q1923 -72 1903.5 -63.5Q1884 -55 1869.0 -40.0Q1854 -25 1845.5 -5.5Q1837 14 1837 36Q1837 58 1845.5 78.0Q1854 98 1868.5 112.5Q1883 127 1902.5 135.5Q1922 144 1945 144Q1967 144 1987.0 135.5Q2007 127 2021.5 112.5Q2036 98 2044.5 78.0Q2053 58 2053 36Z" style="fill:#e6e6e6;stroke:none" transform="scale(1,-1) translate(0,-256)" /></svg>