<?xml version="1.0" encoding="utf-8" ?>
<svg baseProfile="full" height="256" version="1.1" width="256" xmlns="http://www.w3.org/2000/svg" xmlns:ev="http://www.w3.org/2001/xml-events" xmlns:xlink="http://www.w3.org/1999/xlink"><defs /><path d="M2027 1150Q2063 1150 2097.0 1139.5Q2131 1129 2160.5 1110.0Q2190 1091 2213.0 1064.0Q2236 1037 2251 1004Q2256 992 2259.0 977.0Q2262 962 2265 949L2299 811Q2301 803 2303.0 793.0Q2305 783 2308 776L2402 575Q2404 570 2406.0 555.0Q2408 540 2409.5 523.0Q2411 506 2411.5 490.0Q2412 474 2412 467V144L1741 96Q1692 93 1652.0 88.5Q1612 84 1574.0 80.5Q1536 77 1495.5 74.5Q1455 72 1406 72Q1357 72 1316.5 74.5Q1276 77 1238.0 80.5Q1200 84 1160.0 88.5Q1120 93 1071 96L400 144Q397 163 398.5 187.0Q400 211 404.5 235.5Q409 260 415.5 283.5Q422 307 428 324L409 431Q419 463 439.0 489.5Q459 516 485.0 535.0Q511 554 542.0 564.5Q573 575 607 575H830L953 720Q971 741 985.0 755.0Q999 769 1015 792Q1019 798 1027.0 814.0Q1035 830 1045.5 850.5Q1056 871 1066.5 894.5Q1077 918 1087.5 940.0Q1098 962 1106.0 979.5Q1114 997 1118 1006Q1123 1015 1130.5 1025.0Q1138 1035 1144 1043Q1176 1089 1226.0 1119.5Q1276 1150 1333 1150H2027Z" style="fill:#f8312f;stroke:none" transform="scale(1,-1) translate(0,-256)" /></svg>