<?xml version="1.0" encoding="utf-8" ?>
<svg baseProfile="full" height="256" version="1.1" width="256" xmlns="http://www.w3.org/2000/svg" xmlns:ev="http://www.w3.org/2001/xml-events" xmlns:xlink="http://www.w3.org/1999/xlink"><defs /><path d="M975 1006Q975 1036 986.0 1062.0Q997 1088 1016.5 1107.5Q1036 1127 1062.0 1138.5Q1088 1150 1118 1150H1693Q1723 1150 1749.0 1138.5Q1775 1127 1794.5 1107.5Q1814 1088 1825.5 1062.0Q1837 1036 1837 1006V431Q1837 401 1825.5 375.0Q1814 349 1794.5 329.5Q1775 310 1749.0 299.0Q1723 288 1693 288H1118Q1088 288 1062.0 299.0Q1036 310 1016.5 329.5Q997 349 986.0 375.0Q975 401 975 431Z" style="fill:#000000;stroke:none" transform="scale(1,-1) translate(0,-256)" /></svg>