<?xml version="1.0" encoding="utf-8" ?>
<svg baseProfile="full" height="256" version="1.1" width="256" xmlns="http://www.w3.org/2000/svg" xmlns:ev="http://www.w3.org/2001/xml-events" xmlns:xlink="http://www.w3.org/1999/xlink"><defs /><path d="M1693 1222Q1738 1222 1777.5 1205.0Q1817 1188 1846.0 1159.0Q1875 1130 1892.0 1090.5Q1909 1051 1909 1006V431Q1909 386 1892.0 347.0Q1875 308 1845.5 279.0Q1816 250 1777.0 233.0Q1738 216 1693 216H1118Q1073 216 1034.0 233.0Q995 250 966.0 279.0Q937 308 920.0 347.0Q903 386 903 431V1006Q903 1051 920.0 1090.0Q937 1129 966.0 1158.5Q995 1188 1034.0 1205.0Q1073 1222 1118 1222Z" style="fill:#636363;stroke:none" transform="scale(1,-1) translate(0,-256)" /></svg>