<?xml version="1.0" encoding="utf-8" ?>
<svg baseProfile="full" height="256" version="1.1" width="256" xmlns="http://www.w3.org/2000/svg" xmlns:ev="http://www.w3.org/2001/xml-events" xmlns:xlink="http://www.w3.org/1999/xlink"><defs /><path d="M487 1629Q496 1629 515.0 1620.5Q534 1612 555.0 1601.0Q576 1590 595.5 1579.0Q615 1568 624 1563Q658 1545 686.0 1518.5Q714 1492 733.0 1460.0Q752 1428 762.5 1391.5Q773 1355 773 1316V1221Q773 1201 759.5 1187.5Q746 1174 726 1174Q699 1174 690.0 1190.0Q681 1206 679.5 1232.0Q678 1258 679.0 1291.0Q680 1324 673.0 1358.0Q666 1392 645.0 1423.5Q624 1455 580 1479L465 1540Q440 1553 440 1581Q440 1601 453.5 1615.0Q467 1629 487 1629ZM1181 1581Q1181 1553 1156 1540L1041 1479Q996 1455 975.5 1423.5Q955 1392 948.0 1358.0Q941 1324 942.0 1291.0Q943 1258 941.5 1232.0Q940 1206 931.0 1190.0Q922 1174 895 1174Q875 1174 861.5 1187.5Q848 1201 848 1221V1316Q848 1355 858.5 1391.5Q869 1428 888.0 1460.0Q907 1492 934.5 1518.5Q962 1545 997 1563Q1006 1568 1025.5 1579.0Q1045 1590 1066.0 1601.0Q1087 1612 1106.0 1620.5Q1125 1629 1134 1629Q1154 1629 1167.5 1615.0Q1181 1601 1181 1581ZM1135 367Q1154 367 1171.5 374.5Q1189 382 1202.5 395.0Q1216 408 1223.5 425.0Q1231 442 1231 462Q1231 502 1203.0 530.0Q1175 558 1135 558Q1095 558 1067.0 530.0Q1039 502 1039 462Q1039 442 1046.5 425.0Q1054 408 1067.5 395.0Q1081 382 1098.0 374.5Q1115 367 1135 367ZM1326 176Q1326 156 1318.5 139.0Q1311 122 1298.0 108.5Q1285 95 1267.5 87.5Q1250 80 1231 80Q1191 80 1163.0 108.0Q1135 136 1135 176Q1135 195 1142.5 212.5Q1150 230 1163.5 243.0Q1177 256 1194.0 263.5Q1211 271 1231 271Q1250 271 1267.5 263.5Q1285 256 1298.0 243.0Q1311 230 1318.5 212.5Q1326 195 1326 176ZM1422 -155Q1462 -155 1489.5 -127.0Q1517 -99 1517 -59Q1517 -40 1509.5 -22.5Q1502 -5 1489.0 8.0Q1476 21 1458.5 28.5Q1441 36 1422 36Q1402 36 1385.0 28.5Q1368 21 1354.5 8.0Q1341 -5 1333.5 -22.5Q1326 -40 1326 -59Q1326 -99 1354.0 -127.0Q1382 -155 1422 -155ZM1836 -145Q1836 -185 1808.0 -213.0Q1780 -241 1740 -241Q1700 -241 1672.5 -213.0Q1645 -185 1645 -145Q1645 -105 1672.5 -77.0Q1700 -49 1740 -49Q1780 -49 1808.0 -77.0Q1836 -105 1836 -145ZM2166 -145Q2166 -185 2138.5 -213.0Q2111 -241 2071 -241Q2031 -241 2003.0 -213.0Q1975 -185 1975 -145Q1975 -105 2003.0 -77.0Q2031 -49 2071 -49Q2111 -49 2138.5 -77.0Q2166 -105 2166 -145Z" style="fill:#008463;stroke:none" transform="scale(1,-1) translate(0,-256)" /></svg>