<?xml version="1.0" encoding="utf-8" ?>
<svg baseProfile="full" height="256" version="1.1" width="256" xmlns="http://www.w3.org/2000/svg" xmlns:ev="http://www.w3.org/2001/xml-events" xmlns:xlink="http://www.w3.org/1999/xlink"><defs /><path d="M1719 -145Q1629 -145 1547.0 -116.5Q1465 -88 1397.5 -36.5Q1330 15 1281.0 87.0Q1232 159 1208 245L1093 661Q1079 712 1039.0 743.0Q999 774 946 774H716Q649 774 590.5 806.0Q532 838 496 895Q486 911 484.5 914.0Q483 917 483.5 917.5Q484 918 483.0 921.0Q482 924 473 941Q461 964 448.5 985.5Q436 1007 423 1029Q436 1054 448.5 1078.0Q461 1102 473 1127Q478 1138 480.0 1142.5Q482 1147 483.5 1150.5Q485 1154 487.5 1158.5Q490 1163 497 1174Q534 1231 593.5 1263.0Q653 1295 721 1295H1055Q1145 1295 1227.0 1266.5Q1309 1238 1376.5 1186.5Q1444 1135 1493.5 1063.5Q1543 992 1567 905L1681 490Q1688 465 1702.0 444.0Q1716 423 1735.5 408.0Q1755 393 1779.0 385.0Q1803 377 1829 377H2148Q2200 377 2247.5 357.0Q2295 337 2331.0 302.0Q2367 267 2388.0 220.5Q2409 174 2409 121Q2409 66 2388.0 17.5Q2367 -31 2331.0 -67.0Q2295 -103 2246.5 -124.0Q2198 -145 2143 -145H1719Z" style="fill:#00d26a;stroke:none" transform="scale(1,-1) translate(0,-256)" /></svg>