<?xml version="1.0" encoding="utf-8" ?>
<svg baseProfile="full" height="256" version="1.1" width="256" xmlns="http://www.w3.org/2000/svg" xmlns:ev="http://www.w3.org/2001/xml-events" xmlns:xlink="http://www.w3.org/1999/xlink"><defs /><path d="M1192 964Q1192 988 1209 1003L1316 1100Q1332 1114 1353 1114Q1375 1114 1389.5 1098.5Q1404 1083 1404 1061Q1404 1037 1387 1022L1280 925Q1266 912 1245 912Q1223 912 1207.5 927.5Q1192 943 1192 964ZM1130 912Q1152 912 1167.0 897.0Q1182 882 1182 860Q1182 836 1165 821L1058 724Q1042 710 1023 710Q1000 710 985.0 725.5Q970 741 970 763Q970 787 987 802L1094 899Q1108 912 1130 912ZM907 711Q929 711 944.5 696.0Q960 681 960 659Q960 634 943 619L835 522Q821 509 800 509Q778 509 762.5 524.5Q747 540 747 562Q747 573 751.5 583.0Q756 593 764 601L871 698Q885 711 907 711ZM400 60Q400 96 425.5 122.0Q451 148 487 148Q525 148 552 119L680 -22Q702 -47 702 -80Q702 -116 676.5 -142.0Q651 -168 615 -168Q576 -168 550 -139L422 3Q400 28 400 60Z" style="fill:#d3d3d3;stroke:none" transform="scale(1,-1) translate(0,-256)" /></svg>