<?xml version="1.0" encoding="utf-8" ?>
<svg baseProfile="full" height="256" version="1.1" width="256" xmlns="http://www.w3.org/2000/svg" xmlns:ev="http://www.w3.org/2001/xml-events" xmlns:xlink="http://www.w3.org/1999/xlink"><defs /><path d="M1710 1109Q1705 1109 1694.5 1116.0Q1684 1123 1668.5 1132.0Q1653 1141 1632.0 1148.0Q1611 1155 1586 1155Q1577 1155 1567.5 1154.0Q1558 1153 1550.5 1155.0Q1543 1157 1538.0 1163.5Q1533 1170 1533 1184Q1533 1196 1537.5 1202.5Q1542 1209 1549.5 1212.0Q1557 1215 1566.0 1215.5Q1575 1216 1584 1216Q1597 1216 1622.5 1211.0Q1648 1206 1673.0 1196.0Q1698 1186 1716.5 1172.0Q1735 1158 1735 1139Q1735 1128 1728.0 1118.5Q1721 1109 1710 1109ZM1083 1109Q1071 1109 1064.5 1119.0Q1058 1129 1058 1140Q1058 1158 1076.5 1172.0Q1095 1186 1119.5 1195.5Q1144 1205 1169.0 1210.0Q1194 1215 1207 1215Q1216 1215 1225.5 1214.5Q1235 1214 1242.5 1211.5Q1250 1209 1255.0 1202.5Q1260 1196 1260 1184Q1260 1173 1253.5 1163.0Q1247 1153 1235 1153Q1228 1153 1221.5 1154.0Q1215 1155 1208 1155Q1182 1155 1161.5 1148.0Q1141 1141 1125.0 1132.0Q1109 1123 1098.5 1116.0Q1088 1109 1083 1109Z" style="fill:#d37034;stroke:none" transform="scale(1,-1) translate(0,-256)" /></svg>