<?xml version="1.0" encoding="utf-8" ?>
<svg baseProfile="full" height="256" version="1.1" width="256" xmlns="http://www.w3.org/2000/svg" xmlns:ev="http://www.w3.org/2001/xml-events" xmlns:xlink="http://www.w3.org/1999/xlink"><defs /><path d="M1233 1467H1359Q1376 1467 1387.5 1454.5Q1399 1442 1406 1429Q1436 1374 1469.5 1347.0Q1503 1320 1542.0 1309.5Q1581 1299 1627.5 1299.0Q1674 1299 1730 1299Q1757 1299 1781.0 1289.0Q1805 1279 1822.5 1261.0Q1840 1243 1850.5 1219.5Q1861 1196 1861 1169Q1861 1149 1860.5 1128.0Q1860 1107 1859 1087H1861Q1854 981 1848.0 875.5Q1842 770 1835 664Q1833 644 1827.0 621.5Q1821 599 1813 580Q1793 530 1759.5 488.5Q1726 447 1683.0 418.0Q1640 389 1589.0 373.0Q1538 357 1484 357H1313Q1259 357 1208.0 373.0Q1157 389 1114.0 418.0Q1071 447 1037.5 488.0Q1004 529 984 580Q976 600 970.0 622.0Q964 644 962 664L940 1003Q938 1028 936.5 1048.0Q935 1068 933.0 1087.5Q931 1107 930.0 1127.0Q929 1147 929 1172Q929 1233 954.0 1287.0Q979 1341 1021.0 1381.0Q1063 1421 1118.0 1444.0Q1173 1467 1233 1467Z" style="fill:#ffc83d;stroke:none" transform="scale(1,-1) translate(0,-256)" /></svg>