<?xml version="1.0" encoding="utf-8" ?>
<svg baseProfile="full" height="256" version="1.1" width="256" xmlns="http://www.w3.org/2000/svg" xmlns:ev="http://www.w3.org/2001/xml-events" xmlns:xlink="http://www.w3.org/1999/xlink"><defs /><path d="M1336 970Q1336 963 1331 955Q1309 925 1275.0 908.0Q1241 891 1204 891Q1168 891 1133.0 908.5Q1098 926 1077 955Q1072 962 1072 970Q1072 981 1079.0 988.0Q1086 995 1097 995Q1105 995 1114.0 986.5Q1123 978 1135.0 968.0Q1147 958 1163.5 949.5Q1180 941 1204 941Q1228 941 1245.0 949.5Q1262 958 1274.0 968.0Q1286 978 1294.5 986.5Q1303 995 1311 995Q1322 995 1329.0 988.0Q1336 981 1336 970Z" style="fill:#7d4533;stroke:none" transform="scale(1,-1) translate(0,-256)" /></svg>