<?xml version="1.0" encoding="utf-8" ?>
<svg baseProfile="full" height="256" version="1.1" width="256" xmlns="http://www.w3.org/2000/svg" xmlns:ev="http://www.w3.org/2001/xml-events" xmlns:xlink="http://www.w3.org/1999/xlink"><defs /><path d="M1361 107Q1322 107 1289.5 123.0Q1257 139 1233.0 165.0Q1209 191 1196.0 225.5Q1183 260 1183 298V523Q1183 560 1196.5 594.5Q1210 629 1233.5 655.0Q1257 681 1289.5 697.0Q1322 713 1361 713Q1400 713 1432.5 697.5Q1465 682 1489.0 655.5Q1513 629 1526.0 594.5Q1539 560 1539 523V298Q1539 260 1526.0 225.5Q1513 191 1489.0 165.0Q1465 139 1432.5 123.0Q1400 107 1361 107Z" style="fill:#fcb100;stroke:none" transform="scale(1,-1) translate(0,-256)" /></svg>