<?xml version="1.0" encoding="utf-8" ?>
<svg baseProfile="full" height="256" version="1.1" width="256" xmlns="http://www.w3.org/2000/svg" xmlns:ev="http://www.w3.org/2001/xml-events" xmlns:xlink="http://www.w3.org/1999/xlink"><defs /><path d="M1106 944Q1106 913 1094.0 886.0Q1082 859 1062.0 838.5Q1042 818 1015.0 806.5Q988 795 957 795Q926 795 899.0 806.5Q872 818 851.5 838.5Q831 859 819.5 886.0Q808 913 808 944Q808 975 819.5 1002.0Q831 1029 851.5 1049.0Q872 1069 899.0 1081.0Q926 1093 957 1093Q988 1093 1015.0 1081.0Q1042 1069 1062.0 1049.0Q1082 1029 1094.0 1002.0Q1106 975 1106 944ZM1982 944Q1982 913 1970.0 886.0Q1958 859 1937.5 838.5Q1917 818 1890.0 806.5Q1863 795 1832 795Q1801 795 1774.0 806.5Q1747 818 1726.5 838.5Q1706 859 1694.5 886.0Q1683 913 1683 944Q1683 975 1694.5 1002.0Q1706 1029 1726.5 1049.0Q1747 1069 1774.0 1081.0Q1801 1093 1832 1093Q1863 1093 1890.5 1081.5Q1918 1070 1938.0 1049.5Q1958 1029 1970.0 1002.0Q1982 975 1982 944Z" style="fill:#fdbb11;stroke:none" transform="scale(1,-1) translate(0,-256)" /></svg>