<?xml version="1.0" encoding="utf-8" ?>
<svg baseProfile="full" height="256" version="1.1" width="256" xmlns="http://www.w3.org/2000/svg" xmlns:ev="http://www.w3.org/2001/xml-events" xmlns:xlink="http://www.w3.org/1999/xlink"><defs /><path d="M1534 1712Q1591 1712 1638.5 1685.0Q1686 1658 1716 1610Q1739 1574 1769.5 1550.5Q1800 1527 1840 1513Q1905 1490 1945.0 1436.0Q1985 1382 1985 1312Q1985 1276 1975.0 1251.0Q1965 1226 1953.0 1204.5Q1941 1183 1931.0 1162.0Q1921 1141 1921 1113V741Q1921 684 1889.5 636.0Q1858 588 1806 564L991 562Q937 585 904.0 633.5Q871 682 871 741V1113Q871 1140 861.0 1161.0Q851 1182 839.5 1204.0Q828 1226 818.0 1251.5Q808 1277 808 1313Q808 1383 848.0 1436.5Q888 1490 952 1513Q994 1528 1024.5 1552.0Q1055 1576 1079 1613Q1110 1660 1156.0 1686.0Q1202 1712 1259 1712Q1278 1712 1295.5 1707.5Q1313 1703 1329.0 1697.5Q1345 1692 1361.5 1687.5Q1378 1683 1396 1683Q1414 1683 1430.5 1687.5Q1447 1692 1463.5 1697.5Q1480 1703 1497.0 1707.5Q1514 1712 1534 1712Z" style="fill:#f1a11e;stroke:none" transform="scale(1,-1) translate(0,-256)" /></svg>