<?xml version="1.0" encoding="utf-8" ?>
<svg baseProfile="full" height="256" version="1.1" width="256" xmlns="http://www.w3.org/2000/svg" xmlns:ev="http://www.w3.org/2001/xml-events" xmlns:xlink="http://www.w3.org/1999/xlink"><defs /><path d="M2014 901Q2014 892 2005.0 869.0Q1996 846 1984.0 820.0Q1972 794 1960.5 770.5Q1949 747 1945 737Q1930 699 1921.5 659.0Q1913 619 1909 578Q1906 541 1891 507Q1862 441 1804.0 402.5Q1746 364 1674 364Q1605 364 1552.0 397.5Q1499 431 1465 489Q1442 528 1422.0 569.5Q1402 611 1380 651Q1351 708 1320.5 764.5Q1290 821 1261 878Q1254 891 1254 907Q1254 934 1272.0 952.5Q1290 971 1317 971Q1343 971 1360.0 953.0Q1377 935 1387.5 914.0Q1398 893 1405.0 875.0Q1412 857 1419 857Q1421 857 1422.0 859.0Q1423 861 1422 863Q1416 876 1404.0 902.0Q1392 928 1379.5 956.5Q1367 985 1357.5 1010.5Q1348 1036 1348 1048Q1348 1074 1365.5 1093.0Q1383 1112 1410 1112Q1428 1112 1445.5 1101.0Q1463 1090 1470 1073L1528 927L1532 929Q1528 944 1520.0 975.0Q1512 1006 1503.5 1039.5Q1495 1073 1489.0 1103.5Q1483 1134 1483 1148Q1483 1174 1501.5 1193.5Q1520 1213 1546 1213Q1571 1213 1588.0 1197.5Q1605 1182 1610 1159Q1621 1102 1632.5 1047.0Q1644 992 1661 936L1666 932Q1670 932 1670 935Q1670 943 1668.5 951.0Q1667 959 1665 967Q1657 1006 1649.0 1049.0Q1641 1092 1641 1132Q1641 1158 1659.5 1177.0Q1678 1196 1704 1196Q1730 1196 1747.5 1179.5Q1765 1163 1768 1138Q1776 1066 1787.5 991.5Q1799 917 1825 849Q1827 843 1833 843Q1841 843 1848.5 863.0Q1856 883 1867.5 907.0Q1879 931 1897.0 951.0Q1915 971 1944 971Q1973 971 1993.5 950.5Q2014 930 2014 901Z" style="fill:#f59f00;stroke:none" transform="scale(1,-1) translate(0,-256)" /></svg>