<?xml version="1.0" encoding="utf-8" ?>
<svg baseProfile="full" height="256" version="1.1" width="256" xmlns="http://www.w3.org/2000/svg" xmlns:ev="http://www.w3.org/2001/xml-events" xmlns:xlink="http://www.w3.org/1999/xlink"><defs /><path d="M1920 342 1572 249Q1569 258 1565.0 270.5Q1561 283 1557.5 295.5Q1554 308 1551.0 320.0Q1548 332 1548 341Q1548 352 1555.0 361.0Q1562 370 1573 373Q1582 375 1605.5 382.0Q1629 389 1660.0 397.5Q1691 406 1725.0 415.0Q1759 424 1788.0 431.5Q1817 439 1838.5 444.0Q1860 449 1865 449Q1876 449 1885.5 442.0Q1895 435 1898 424Z" style="fill:#f95725;stroke:none" transform="scale(1,-1) translate(0,-256)" /></svg>