<?xml version="1.0" encoding="utf-8" ?>
<svg baseProfile="full" height="256" version="1.1" width="256" xmlns="http://www.w3.org/2000/svg" xmlns:ev="http://www.w3.org/2001/xml-events" xmlns:xlink="http://www.w3.org/1999/xlink"><defs /><path d="M1228 476Q1278 422 1331.0 380.5Q1384 339 1441.0 306.0Q1498 273 1559.5 245.5Q1621 218 1688 191L1636 108Q1501 161 1376.0 237.0Q1251 313 1154 423V69H1063V425Q960 320 839.5 237.5Q719 155 581 104L571 101L522 183Q583 202 646.0 233.5Q709 265 769.0 303.5Q829 342 884.0 386.5Q939 431 984 476H651V935H1063V1015H550V1106H1063V1220H1154V1106H1669V1015H1154V935H1562V476ZM745 847V750H1063V847ZM1469 750V847H1154V750ZM745 661V565H1063V661ZM1154 661V565H1469V661Z" style="fill:#007356;stroke:none" transform="scale(1,-1) translate(0,-256)" /></svg>