<?xml version="1.0" encoding="utf-8" ?>
<svg baseProfile="full" height="256" version="1.1" width="256" xmlns="http://www.w3.org/2000/svg" xmlns:ev="http://www.w3.org/2001/xml-events" xmlns:xlink="http://www.w3.org/1999/xlink"><defs /><path d="M1711 1030Q1736 1030 1757.0 1020.0Q1778 1010 1792.0 993.5Q1806 977 1814.0 955.0Q1822 933 1822 909Q1822 868 1797.5 852.5Q1773 837 1736 837Q1711 837 1694.5 846.5Q1678 856 1668.5 872.0Q1659 888 1655.0 908.0Q1651 928 1651 949Q1651 961 1654.5 975.5Q1658 990 1665.5 1002.0Q1673 1014 1684.5 1022.0Q1696 1030 1711 1030Z" style="fill:#f9c23c;stroke:none" transform="scale(1,-1) translate(0,-256)" /></svg>