<?xml version="1.0" encoding="utf-8" ?>
<svg baseProfile="full" height="256" version="1.1" width="256" xmlns="http://www.w3.org/2000/svg" xmlns:ev="http://www.w3.org/2001/xml-events" xmlns:xlink="http://www.w3.org/1999/xlink"><defs /><path d="M1801 1581Q1801 1551 1790.0 1525.0Q1779 1499 1759.5 1479.5Q1740 1460 1714.0 1449.0Q1688 1438 1658 1438Q1628 1438 1602.0 1449.0Q1576 1460 1556.5 1479.5Q1537 1499 1525.5 1525.0Q1514 1551 1514 1581Q1514 1611 1525.0 1637.0Q1536 1663 1555.5 1682.5Q1575 1702 1601.5 1713.5Q1628 1725 1658 1725Q1688 1725 1714.0 1713.5Q1740 1702 1759.5 1682.5Q1779 1663 1790.0 1637.0Q1801 1611 1801 1581Z" style="fill:#8c5543;stroke:none" transform="scale(1,-1) translate(0,-256)" /></svg>