<?xml version="1.0" encoding="utf-8" ?>
<svg baseProfile="full" height="256" version="1.1" width="256" xmlns="http://www.w3.org/2000/svg" xmlns:ev="http://www.w3.org/2001/xml-events" xmlns:xlink="http://www.w3.org/1999/xlink"><defs /><path d="M1908 1366Q1900 1332 1885.0 1291.5Q1870 1251 1847.5 1215.5Q1825 1180 1793.5 1156.5Q1762 1133 1720 1133Q1691 1133 1671.5 1145.0Q1652 1157 1634.5 1172.0Q1617 1187 1597.5 1199.0Q1578 1211 1550 1211Q1516 1211 1499.5 1192.0Q1483 1173 1471.0 1144.5Q1459 1116 1446.0 1082.5Q1433 1049 1407.5 1020.5Q1382 992 1337.0 973.0Q1292 954 1217 954Q1168 954 1127.5 974.0Q1087 994 1054.5 1026.5Q1022 1059 997.5 1102.0Q973 1145 954.5 1190.5Q936 1236 924.0 1281.5Q912 1327 906 1366Z" style="fill:#f9c23c;stroke:none" transform="scale(1,-1) translate(0,-256)" /></svg>