<?xml version="1.0" encoding="utf-8" ?>
<svg baseProfile="full" height="256" version="1.1" width="256" xmlns="http://www.w3.org/2000/svg" xmlns:ev="http://www.w3.org/2001/xml-events" xmlns:xlink="http://www.w3.org/1999/xlink"><defs /><path d="M1712 1581Q1712 1574 1707.5 1552.5Q1703 1531 1695.5 1501.5Q1688 1472 1679.0 1438.5Q1670 1405 1662.0 1374.0Q1654 1343 1647.5 1319.0Q1641 1295 1638 1284Q1633 1267 1619.0 1255.0Q1605 1243 1587 1243Q1564 1243 1548.0 1258.0Q1532 1273 1532 1296Q1532 1300 1532.5 1303.0Q1533 1306 1534 1310L1605 1595Q1610 1613 1625.5 1624.5Q1641 1636 1658 1636Q1681 1636 1696.5 1619.5Q1712 1603 1712 1581Z" style="fill:#6d4534;stroke:none" transform="scale(1,-1) translate(0,-256)" /></svg>