<?xml version="1.0" encoding="utf-8" ?>
<svg baseProfile="full" height="256" version="1.1" width="256" xmlns="http://www.w3.org/2000/svg" xmlns:ev="http://www.w3.org/2001/xml-events" xmlns:xlink="http://www.w3.org/1999/xlink"><defs /><path d="M687 1294Q687 1324 708.0 1345.0Q729 1366 759 1366H906L910 1362H1904L1908 1366H2053Q2083 1366 2104.0 1345.0Q2125 1324 2125 1294Q2125 1271 2111.0 1251.5Q2097 1232 2074 1225Q2069 1223 2063.5 1223.5Q2058 1224 2053 1222L1406 1078L759 1222Q754 1224 748.5 1223.5Q743 1223 738 1225Q715 1232 701.0 1251.5Q687 1271 687 1294Z" style="fill:#d3883e;stroke:none" transform="scale(1,-1) translate(0,-256)" /></svg>