<?xml version="1.0" encoding="utf-8" ?>
<svg baseProfile="full" height="256" version="1.1" width="256" xmlns="http://www.w3.org/2000/svg" xmlns:ev="http://www.w3.org/2001/xml-events" xmlns:xlink="http://www.w3.org/1999/xlink"><defs /><path d="M529 842Q529 893 540.0 943.0Q551 993 573.5 1037.5Q596 1082 629.5 1119.5Q663 1157 708 1184Q736 1201 767.5 1211.5Q799 1222 831 1222L835 1225H1974L1981 1222Q2010 1222 2038.5 1213.5Q2067 1205 2093 1191Q2140 1165 2175.5 1127.5Q2211 1090 2234.5 1044.5Q2258 999 2270.0 947.5Q2282 896 2282 844Q2282 792 2272.0 744.0Q2262 696 2248 647Q2246 646 2212.0 633.5Q2178 621 2122.0 601.5Q2066 582 1995.0 557.5Q1924 533 1848.0 507.0Q1772 481 1698.0 456.0Q1624 431 1563.0 410.0Q1502 389 1460.0 374.5Q1418 360 1406 356Q1394 360 1352.0 374.5Q1310 389 1249.0 410.0Q1188 431 1113.5 456.0Q1039 481 963.5 507.0Q888 533 816.5 557.5Q745 582 689.5 601.5Q634 621 599.5 633.5Q565 646 564 647Q549 695 539.0 743.0Q529 791 529 842ZM720 108 813 -215Q822 -247 845.5 -267.0Q869 -287 903 -287H1909Q1943 -287 1966.5 -267.0Q1990 -247 1999 -215L2092 108Q2090 109 2085.5 112.5Q2081 116 2080 116L1405 332L729 116Z" style="fill:#b97028;stroke:none" transform="scale(1,-1) translate(0,-256)" /></svg>