<?xml version="1.0" encoding="utf-8" ?>
<svg baseProfile="full" height="256" version="1.1" width="256" xmlns="http://www.w3.org/2000/svg" xmlns:ev="http://www.w3.org/2001/xml-events" xmlns:xlink="http://www.w3.org/1999/xlink"><defs /><path d="M1460 1046V898L1352 899V1047Q1341 1010 1330.0 973.0Q1319 936 1308 899L1195 900Q1215 963 1233.5 1025.0Q1252 1087 1269 1150H1545Q1561 1086 1578.0 1023.0Q1595 960 1613 897L1500 898Q1489 935 1479.0 971.5Q1469 1008 1460 1046ZM1680 683Q1756 451 1846.0 225.0Q1936 -1 2053 -215Q2063 -215 2075.5 -215.0Q2088 -215 2099.0 -218.0Q2110 -221 2117.5 -228.5Q2125 -236 2125 -251Q2125 -266 2114.0 -276.5Q2103 -287 2088 -287H1658Q1643 -287 1632.5 -276.5Q1622 -266 1622 -251Q1622 -236 1628.5 -228.5Q1635 -221 1645.0 -218.0Q1655 -215 1667.0 -215.0Q1679 -215 1689 -215Q1678 -165 1652.0 -123.0Q1626 -81 1588.0 -50.5Q1550 -20 1503.5 -3.0Q1457 14 1406 14Q1355 14 1308.5 -3.0Q1262 -20 1224.5 -50.5Q1187 -81 1160.5 -123.0Q1134 -165 1124 -215Q1134 -215 1145.5 -215.0Q1157 -215 1167.0 -218.0Q1177 -221 1183.5 -228.5Q1190 -236 1190 -251Q1190 -266 1179.5 -276.5Q1169 -287 1154 -287H724Q709 -287 698.0 -276.5Q687 -266 687 -251Q687 -236 694.5 -228.5Q702 -221 713.0 -218.0Q724 -215 736.5 -215.0Q749 -215 759 -215Q876 0 965.0 224.5Q1054 449 1125 683ZM1352 303 1150 180H1352ZM1296 404 1172 480Q1142 382 1106 288ZM1706 287Q1688 335 1670.5 381.5Q1653 428 1636 476L1516 403ZM1576 575H1460V504ZM1352 575H1236L1352 504ZM1460 180H1662L1460 304ZM1595 72Q1651 42 1694.5 -4.5Q1738 -51 1765 -108H1876Q1854 -63 1834.0 -18.0Q1814 27 1794 72ZM1019 72Q978 -20 935 -108H1046Q1073 -51 1116.0 -4.5Q1159 42 1215 72ZM1487 1438Q1492 1402 1498.5 1366.0Q1505 1330 1513 1294H1303Q1311 1330 1317.0 1366.0Q1323 1402 1327 1438ZM1334 1654Q1334 1683 1355.5 1704.0Q1377 1725 1406 1725Q1435 1725 1456.5 1704.0Q1478 1683 1478 1654V1581H1334Z" style="fill:#ff6723;stroke:none" transform="scale(1,-1) translate(0,-256)" /></svg>