<?xml version="1.0" encoding="utf-8" ?>
<svg baseProfile="full" height="256" version="1.1" width="256" xmlns="http://www.w3.org/2000/svg" xmlns:ev="http://www.w3.org/2001/xml-events" xmlns:xlink="http://www.w3.org/1999/xlink"><defs /><path d="M1794 1129Q1807 1162 1807 1202Q1807 1244 1791.0 1281.5Q1775 1319 1747.0 1347.0Q1719 1375 1681.5 1391.5Q1644 1408 1602 1408Q1584 1408 1568 1405Q1567 1410 1566.5 1416.0Q1566 1422 1566 1427Q1566 1450 1572 1473Q1580 1474 1587.0 1474.5Q1594 1475 1602 1475Q1655 1475 1704.0 1456.0Q1753 1437 1790.5 1403.5Q1828 1370 1850.5 1323.5Q1873 1277 1873 1222Q1873 1179 1866.0 1134.0Q1859 1089 1843 1049Q1832 1070 1820.0 1089.5Q1808 1109 1794 1129Z" style="fill:#d67d00;stroke:none" transform="scale(1,-1) translate(0,-256)" /></svg>