<?xml version="1.0" encoding="utf-8" ?>
<svg baseProfile="full" height="256" version="1.1" width="256" xmlns="http://www.w3.org/2000/svg" xmlns:ev="http://www.w3.org/2001/xml-events" xmlns:xlink="http://www.w3.org/1999/xlink"><defs /><path d="M1757 1619Q1784 1619 1809.5 1611.0Q1835 1603 1858 1590Q1893 1571 1925.5 1540.5Q1958 1510 1986 1482Q2053 1415 2106.0 1339.5Q2159 1264 2196.5 1181.0Q2234 1098 2254.0 1008.0Q2274 918 2274 822Q2274 707 2246.5 601.5Q2219 496 2169.0 401.0Q2119 306 2050.0 220.5Q1981 135 1899 60Q1867 30 1833.5 2.0Q1800 -26 1764 -52Q1599 -169 1408.5 -228.0Q1218 -287 1016 -287H472Q442 -287 421.0 -266.0Q400 -245 400 -215V431Q400 461 421.0 482.0Q442 503 472 503H792Q830 503 866.0 513.0Q902 523 933.5 541.0Q965 559 991.5 585.5Q1018 612 1037 645L1420 1303Q1469 1389 1566 1406Q1566 1414 1565.5 1422.0Q1565 1430 1566 1438Q1570 1476 1585.5 1509.0Q1601 1542 1626.0 1566.5Q1651 1591 1684.5 1605.0Q1718 1619 1757 1619ZM1552 661Q1552 640 1560.0 622.0Q1568 604 1581.5 590.0Q1595 576 1613.0 568.0Q1631 560 1652 560Q1709 560 1754.0 580.5Q1799 601 1831.0 637.0Q1863 673 1880.0 720.5Q1897 768 1897 822Q1897 907 1869.5 983.5Q1842 1060 1793 1129Q1788 1115 1781 1102L1565 710Q1552 687 1552 661Z" style="fill:#ffc83d;stroke:none" transform="scale(1,-1) translate(0,-256)" /></svg>