<?xml version="1.0" encoding="utf-8" ?>
<svg baseProfile="full" height="256" version="1.1" width="256" xmlns="http://www.w3.org/2000/svg" xmlns:ev="http://www.w3.org/2001/xml-events" xmlns:xlink="http://www.w3.org/1999/xlink"><defs /><path d="M1824 1725Q1853 1725 1877.0 1717.5Q1901 1710 1926 1696Q1961 1677 1993.5 1646.5Q2026 1616 2054 1589Q2120 1523 2173.5 1447.5Q2227 1372 2265.0 1288.5Q2303 1205 2323.5 1115.0Q2344 1025 2344 930Q2344 753 2278.0 593.0Q2212 433 2099 299Q2056 248 2002.0 197.0Q1948 146 1888.0 101.5Q1828 57 1763.0 21.5Q1698 -14 1634 -34Q1604 -44 1573 -44Q1534 -44 1499.5 -29.5Q1465 -15 1439.5 10.5Q1414 36 1399.0 70.5Q1384 105 1384 144Q1384 207 1419.5 253.5Q1455 300 1513 323Q1601 357 1682.5 419.5Q1764 482 1827.0 563.0Q1890 644 1928.0 738.0Q1966 832 1966 929Q1966 1020 1934.5 1101.5Q1903 1183 1848 1254Q1828 1280 1801.5 1310.0Q1775 1340 1747 1359Q1733 1368 1730.5 1369.0Q1728 1370 1727.5 1369.5Q1727 1369 1724.5 1370.5Q1722 1372 1709 1382Q1674 1409 1653.5 1449.0Q1633 1489 1633 1534Q1633 1573 1648.0 1608.0Q1663 1643 1689.0 1669.0Q1715 1695 1750.0 1710.0Q1785 1725 1824 1725Z" style="fill:#d67d00;stroke:none" transform="scale(1,-1) translate(0,-256)" /></svg>