<?xml version="1.0" encoding="utf-8" ?>
<svg baseProfile="full" height="256" version="1.1" width="256" xmlns="http://www.w3.org/2000/svg" xmlns:ev="http://www.w3.org/2001/xml-events" xmlns:xlink="http://www.w3.org/1999/xlink"><defs /><path d="M831 935Q831 964 852.5 985.0Q874 1006 903 1006H1190Q1219 1006 1240.5 985.0Q1262 964 1262 935Q1262 905 1241.0 884.0Q1220 863 1190 863H903Q873 863 852.0 884.0Q831 905 831 935ZM1550 935Q1550 964 1571.5 985.0Q1593 1006 1622 1006H1909Q1938 1006 1959.5 985.0Q1981 964 1981 935Q1981 905 1960.0 884.0Q1939 863 1909 863H1622Q1592 863 1571.0 884.0Q1550 905 1550 935ZM1047 503Q1017 503 996.0 482.0Q975 461 975 431Q975 402 996.5 381.0Q1018 360 1047 360H1765Q1794 360 1815.5 381.0Q1837 402 1837 431Q1837 461 1816.0 482.0Q1795 503 1765 503Z" style="fill:#402a32;stroke:none" transform="scale(1,-1) translate(0,-256)" /></svg>