<?xml version="1.0" encoding="utf-8" ?>
<svg baseProfile="full" height="256" version="1.1" width="256" xmlns="http://www.w3.org/2000/svg" xmlns:ev="http://www.w3.org/2001/xml-events" xmlns:xlink="http://www.w3.org/1999/xlink"><defs /><path d="M1190 817Q1190 774 1163.0 746.5Q1136 719 1093 719Q1063 719 1034.0 733.0Q1005 747 982.5 769.5Q960 792 946.5 821.0Q933 850 933 880Q933 922 960.5 949.0Q988 976 1030 976Q1061 976 1089.5 962.5Q1118 949 1140.5 927.0Q1163 905 1176.5 876.0Q1190 847 1190 817ZM2145 816Q2145 773 2118.0 746.0Q2091 719 2048 719Q2018 719 1989.0 732.5Q1960 746 1937.5 768.5Q1915 791 1901.5 820.0Q1888 849 1888 879Q1888 922 1915.0 949.0Q1942 976 1985 976Q2016 976 2044.5 962.5Q2073 949 2095.5 926.5Q2118 904 2131.5 875.5Q2145 847 2145 816Z" style="fill:#ffffff;stroke:none" transform="scale(1,-1) translate(0,-256)" /></svg>