<?xml version="1.0" encoding="utf-8" ?>
<svg baseProfile="full" height="256" version="1.1" width="256" xmlns="http://www.w3.org/2000/svg" xmlns:ev="http://www.w3.org/2001/xml-events" xmlns:xlink="http://www.w3.org/1999/xlink"><defs /><path d="M1034 288Q989 288 946.0 304.5Q903 321 862.5 347.0Q822 373 786.5 404.0Q751 435 721 465Q691 495 659.5 530.5Q628 566 602.0 606.0Q576 646 559.5 689.5Q543 733 543 777Q543 845 579.0 900.5Q615 956 670.5 995.5Q726 1035 792.5 1056.5Q859 1078 919 1078Q1005 1078 1080.5 1045.5Q1156 1013 1212.5 956.5Q1269 900 1301.5 824.5Q1334 749 1334 664Q1334 604 1312.5 537.5Q1291 471 1251.5 415.5Q1212 360 1156.5 324.0Q1101 288 1034 288ZM1778 288Q1710 288 1655.0 324.0Q1600 360 1560.5 415.5Q1521 471 1499.5 537.5Q1478 604 1478 664Q1478 750 1510.5 825.5Q1543 901 1599.0 957.0Q1655 1013 1730.5 1045.5Q1806 1078 1892 1078Q1932 1078 1975.5 1068.5Q2019 1059 2061.0 1040.5Q2103 1022 2141.0 995.5Q2179 969 2207.5 935.5Q2236 902 2252.5 862.0Q2269 822 2269 777Q2269 733 2252.5 689.5Q2236 646 2210.0 606.0Q2184 566 2152.5 530.5Q2121 495 2091 465Q2061 435 2025.0 404.0Q1989 373 1949.0 347.0Q1909 321 1865.5 304.5Q1822 288 1778 288Z" style="fill:#533566;stroke:none" transform="scale(1,-1) translate(0,-256)" /></svg>