<?xml version="1.0" encoding="utf-8" ?>
<svg baseProfile="full" height="256" version="1.1" width="256" xmlns="http://www.w3.org/2000/svg" xmlns:ev="http://www.w3.org/2001/xml-events" xmlns:xlink="http://www.w3.org/1999/xlink"><defs /><path d="M2401 725Q2401 624 2368.5 527.5Q2336 431 2280.0 341.0Q2224 251 2149.0 170.0Q2074 89 1990.5 19.0Q1907 -51 1819.0 -108.5Q1731 -166 1648 -207Q1624 -219 1592.5 -233.0Q1561 -247 1527.5 -259.0Q1494 -271 1460.5 -279.0Q1427 -287 1400 -287Q1373 -287 1340.0 -279.0Q1307 -271 1273.5 -259.0Q1240 -247 1208.5 -233.0Q1177 -219 1153 -207Q1070 -166 982.0 -108.5Q894 -51 810.5 19.0Q727 89 652.0 170.0Q577 251 521.0 341.0Q465 431 432.5 527.5Q400 624 400 725Q400 863 435.5 990.5Q471 1118 536.5 1229.5Q602 1341 693.0 1432.0Q784 1523 895.5 1588.5Q1007 1654 1134.5 1689.5Q1262 1725 1400 1725Q1538 1725 1666.0 1689.5Q1794 1654 1905.0 1589.0Q2016 1524 2107.5 1432.5Q2199 1341 2264.0 1230.0Q2329 1119 2365.0 991.0Q2401 863 2401 725Z" style="fill:#b4acbc;stroke:none" transform="scale(1,-1) translate(0,-256)" /></svg>