<?xml version="1.0" encoding="utf-8" ?>
<svg baseProfile="full" height="256" version="1.1" width="256" xmlns="http://www.w3.org/2000/svg" xmlns:ev="http://www.w3.org/2001/xml-events" xmlns:xlink="http://www.w3.org/1999/xlink"><defs /><path d="M1262 144Q1285 144 1299.5 132.5Q1314 121 1328.0 107.5Q1342 94 1359.5 82.5Q1377 71 1406 71Q1435 71 1452.5 82.5Q1470 94 1484.0 107.5Q1498 121 1512.5 132.5Q1527 144 1550 144Q1579 144 1600.0 123.0Q1621 102 1621 72Q1621 48 1605 27Q1569 -18 1517.0 -45.5Q1465 -73 1406 -73Q1347 -73 1294.5 -45.5Q1242 -18 1206 27Q1190 48 1190 72Q1190 101 1211.0 122.5Q1232 144 1262 144Z" style="fill:#212121;stroke:none" transform="scale(1,-1) translate(0,-256)" /></svg>