<?xml version="1.0" encoding="utf-8" ?>
<svg baseProfile="full" height="256" version="1.1" width="256" xmlns="http://www.w3.org/2000/svg" xmlns:ev="http://www.w3.org/2001/xml-events" xmlns:xlink="http://www.w3.org/1999/xlink"><defs /><path d="M1441 544Q1465 446 1508.0 355.5Q1551 265 1610.5 185.5Q1670 106 1745.0 39.5Q1820 -27 1909 -77Q1933 -91 1958.5 -102.0Q1984 -113 2008 -127Q2021 -135 2028.0 -143.5Q2035 -152 2035 -168Q2035 -184 2028.0 -192.0Q2021 -200 2008 -208Q1975 -227 1924.0 -241.5Q1873 -256 1817.5 -266.0Q1762 -276 1708.0 -281.5Q1654 -287 1616 -287Q1476 -287 1348.0 -251.0Q1220 -215 1108.5 -149.5Q997 -84 906.0 7.5Q815 99 750.0 211.0Q685 323 649.5 451.5Q614 580 614 719Q614 858 649.5 986.5Q685 1115 750.0 1226.5Q815 1338 906.5 1430.0Q998 1522 1109.5 1587.0Q1221 1652 1349.5 1688.0Q1478 1724 1617 1724Q1636 1724 1665.0 1723.0Q1694 1722 1724.0 1719.5Q1754 1717 1782.0 1712.5Q1810 1708 1827 1702Q1843 1696 1852.0 1686.5Q1861 1677 1861 1659Q1861 1645 1852.0 1633.5Q1843 1622 1830.5 1612.0Q1818 1602 1804.0 1593.0Q1790 1584 1781 1577Q1704 1518 1637.5 1435.5Q1571 1353 1521.5 1258.0Q1472 1163 1443.5 1061.5Q1415 960 1415 862Q1415 824 1434.0 799.5Q1453 775 1476.0 755.0Q1499 735 1518.0 715.5Q1537 696 1537 668Q1537 651 1526.0 633.5Q1515 616 1500.0 599.5Q1485 583 1468.5 568.5Q1452 554 1441 544Z" style="fill:#fcd53f;stroke:none" transform="scale(1,-1) translate(0,-256)" /></svg>