<?xml version="1.0" encoding="utf-8" ?>
<svg baseProfile="full" height="256" version="1.1" width="256" xmlns="http://www.w3.org/2000/svg" xmlns:ev="http://www.w3.org/2001/xml-events" xmlns:xlink="http://www.w3.org/1999/xlink"><defs /><path d="M1468 1502Q1393 1502 1331.0 1542.0Q1269 1582 1238 1650Q1329 1687 1424.5 1705.5Q1520 1724 1617 1724Q1642 1724 1667.0 1722.5Q1692 1721 1717 1719Q1711 1672 1688.5 1632.5Q1666 1593 1633.0 1564.0Q1600 1535 1557.5 1518.5Q1515 1502 1468 1502ZM903 625Q903 576 885.5 532.5Q868 489 837.0 455.0Q806 421 764.0 399.5Q722 378 673 374Q614 542 614 721Q614 760 616.5 798.5Q619 837 625 875Q632 876 638.0 876.0Q644 876 651 876Q703 876 749.0 856.5Q795 837 829.0 803.0Q863 769 883.0 723.0Q903 677 903 625ZM1436 -222Q1398 -222 1365.0 -207.5Q1332 -193 1307.0 -168.5Q1282 -144 1268.0 -110.5Q1254 -77 1254 -39Q1254 -2 1268.5 31.5Q1283 65 1307.5 89.5Q1332 114 1365.0 128.5Q1398 143 1436 143Q1473 143 1506.5 129.0Q1540 115 1565.0 90.0Q1590 65 1604.5 32.0Q1619 -1 1619 -39Q1619 -77 1604.5 -110.5Q1590 -144 1565.5 -168.5Q1541 -193 1507.5 -207.5Q1474 -222 1436 -222ZM1258 1395Q1258 1372 1249.0 1351.5Q1240 1331 1224.5 1315.5Q1209 1300 1188.5 1291.0Q1168 1282 1145 1282Q1122 1282 1101.5 1291.0Q1081 1300 1065.5 1315.5Q1050 1331 1041.0 1351.5Q1032 1372 1032 1395Q1032 1418 1041.0 1438.5Q1050 1459 1065.5 1474.5Q1081 1490 1101.5 1499.0Q1122 1508 1145 1508Q1168 1508 1188.5 1499.0Q1209 1490 1224.5 1474.5Q1240 1459 1249.0 1438.5Q1258 1418 1258 1395Z" style="fill:#f9c23c;stroke:none" transform="scale(1,-1) translate(0,-256)" /></svg>