<?xml version="1.0" encoding="utf-8" ?>
<svg baseProfile="full" height="256" version="1.1" width="256" xmlns="http://www.w3.org/2000/svg" xmlns:ev="http://www.w3.org/2001/xml-events" xmlns:xlink="http://www.w3.org/1999/xlink"><defs /><path d="M1622 791Q1622 747 1609.0 705.5Q1596 664 1572.0 629.0Q1548 594 1514.0 566.5Q1480 539 1439 523Q1471 488 1492.5 453.0Q1514 418 1526.5 381.0Q1539 344 1544.5 303.5Q1550 263 1550 216Q1505 216 1465.0 221.0Q1425 226 1388.0 238.0Q1351 250 1316.5 270.0Q1282 290 1248 321Q1239 297 1224.0 276.0Q1209 255 1191.5 236.0Q1174 217 1155.0 200.0Q1136 183 1118 165Q1100 183 1081.0 200.0Q1062 217 1044.0 236.0Q1026 255 1011.5 276.0Q997 297 988 321Q954 289 919.5 269.0Q885 249 848.5 237.0Q812 225 772.0 220.5Q732 216 687 216Q687 262 692.0 303.0Q697 344 710.0 381.5Q723 419 744.5 453.5Q766 488 798 523Q757 539 723.0 566.5Q689 594 665.0 629.0Q641 664 628.0 705.5Q615 747 615 791V1006H831Q871 1006 907 996Q914 1052 932.5 1099.5Q951 1147 978.5 1189.0Q1006 1231 1041.5 1268.0Q1077 1305 1118 1341Q1202 1273 1259.0 1189.0Q1316 1105 1330 996Q1366 1006 1406 1006H1622ZM687 791Q687 746 704.0 707.0Q721 668 750.5 638.5Q780 609 819.0 592.0Q858 575 903 575H979Q975 591 975 611Q975 649 994.5 682.0Q1014 715 1046 735Q1043 777 1025.0 813.5Q1007 850 977.5 877.0Q948 904 910.5 919.5Q873 935 831 935H687ZM1334 575Q1379 575 1418.0 592.0Q1457 609 1486.5 638.5Q1516 668 1533.0 707.0Q1550 746 1550 791V935H1406Q1364 935 1326.5 919.5Q1289 904 1259.5 877.0Q1230 850 1212.0 813.5Q1194 777 1191 735Q1223 715 1242.5 682.0Q1262 649 1262 611Q1262 591 1258 575ZM1118 1246Q1058 1190 1020.5 1119.5Q983 1049 976 967Q1033 933 1070.5 877.0Q1108 821 1116 755H1121Q1129 821 1166.5 877.0Q1204 933 1261 967Q1254 1048 1216.0 1119.5Q1178 1191 1118 1246ZM761 290Q824 298 878.5 329.5Q933 361 975 409Q975 435 977.5 457.5Q980 480 994 503Q965 503 937.5 503.0Q910 503 881 504Q833 462 801.5 407.5Q770 353 761 290ZM1475 290Q1467 353 1435.5 407.5Q1404 462 1356 504Q1327 503 1299.5 503.0Q1272 503 1243 503Q1257 480 1259.5 457.5Q1262 435 1262 409Q1304 361 1358.0 329.5Q1412 298 1475 290ZM1190 431Q1190 461 1169.0 482.0Q1148 503 1118 503Q1089 503 1068.0 481.5Q1047 460 1047 431V396Q1047 352 1067.0 323.5Q1087 295 1118 267Q1148 295 1169.0 323.5Q1190 352 1190 396ZM1118 575Q1145 575 1173 564Q1190 584 1190 611Q1190 641 1169.0 662.0Q1148 683 1118 683Q1089 683 1068.0 661.5Q1047 640 1047 611Q1047 584 1064 564Q1091 575 1118 575Z" style="fill:#007356;stroke:none" transform="scale(1,-1) translate(0,-256)" /></svg>