<?xml version="1.0" encoding="utf-8" ?>
<svg baseProfile="full" height="256" version="1.1" width="256" xmlns="http://www.w3.org/2000/svg" xmlns:ev="http://www.w3.org/2001/xml-events" xmlns:xlink="http://www.w3.org/1999/xlink"><defs /><path d="M1945 -215H867Q770 -215 685.0 -178.5Q600 -142 536.5 -78.5Q473 -15 436.5 70.0Q400 155 400 252Q400 349 436.5 434.0Q473 519 536.5 582.5Q600 646 685.0 682.5Q770 719 867 719H1945Q2042 719 2127.0 682.5Q2212 646 2275.5 582.5Q2339 519 2375.5 434.0Q2412 349 2412 252Q2412 155 2375.5 70.0Q2339 -15 2275.5 -78.5Q2212 -142 2127.0 -178.5Q2042 -215 1945 -215Z" style="fill:#f3ad61;stroke:none" transform="scale(1,-1) translate(0,-256)" /></svg>