<?xml version="1.0" encoding="utf-8" ?>
<svg baseProfile="full" height="256" version="1.1" width="256" xmlns="http://www.w3.org/2000/svg" xmlns:ev="http://www.w3.org/2001/xml-events" xmlns:xlink="http://www.w3.org/1999/xlink"><defs /><path d="M977 343H1788Q1823 343 1853.0 356.5Q1883 370 1905.5 392.5Q1928 415 1941.0 445.5Q1954 476 1954 511Q1954 518 1953.5 524.5Q1953 531 1955 538Q1954 480 1954.5 422.5Q1955 365 1953 307Q1952 272 1937.5 241.5Q1923 211 1899.0 188.5Q1875 166 1844.0 153.0Q1813 140 1778 140H985Q950 140 918.5 153.0Q887 166 863.5 189.0Q840 212 825.5 243.0Q811 274 810 309Q808 367 808.5 424.0Q809 481 809 539Q811 534 810.5 525.0Q810 516 810 510Q811 475 824.0 445.0Q837 415 859.0 392.0Q881 369 911.5 356.0Q942 343 977 343ZM1955 540H1956Q1956 539 1955 538Z" style="fill:#ca0b4a;stroke:none" transform="scale(1,-1) translate(0,-256)" /></svg>