<?xml version="1.0" encoding="utf-8" ?>
<svg baseProfile="full" height="256" version="1.1" width="256" xmlns="http://www.w3.org/2000/svg" xmlns:ev="http://www.w3.org/2001/xml-events" xmlns:xlink="http://www.w3.org/1999/xlink"><defs /><path d="M1954 332Q1954 292 1938.5 256.5Q1923 221 1897.0 194.5Q1871 168 1835.5 152.5Q1800 137 1760 137H1004Q963 137 927.5 152.5Q892 168 866.0 194.0Q840 220 824.5 255.5Q809 291 809 332V720Q809 799 840.0 869.0Q871 939 923.5 991.0Q976 1043 1046.0 1073.0Q1116 1103 1195 1103H1570Q1648 1103 1717.5 1073.0Q1787 1043 1839.5 991.5Q1892 940 1923.0 871.0Q1954 802 1954 724Z" style="fill:#f3c07b;stroke:none" transform="scale(1,-1) translate(0,-256)" /></svg>