<?xml version="1.0" encoding="utf-8" ?>
<svg baseProfile="full" height="256" version="1.1" width="256" xmlns="http://www.w3.org/2000/svg" xmlns:ev="http://www.w3.org/2001/xml-events" xmlns:xlink="http://www.w3.org/1999/xlink"><defs /><path d="M1501 352Q1501 376 1510.5 397.5Q1520 419 1536.0 435.0Q1552 451 1573.5 460.5Q1595 470 1619 470Q1644 470 1665.5 461.0Q1687 452 1703.0 436.0Q1719 420 1728.5 398.5Q1738 377 1738 352V196Q1738 157 1715 126L1897 219Q1922 232 1952 232Q1973 232 1994.5 223.5Q2016 215 2033.5 201.0Q2051 187 2062.0 167.0Q2073 147 2073 125Q2073 102 2062.0 82.5Q2051 63 2034.0 48.5Q2017 34 1995.0 25.5Q1973 17 1952 17Q1922 17 1897 30L1714 124Q1697 101 1672.0 89.0Q1647 77 1619 77Q1592 77 1567.5 89.0Q1543 101 1526 123L1343 30Q1318 17 1287 17Q1266 17 1244.5 25.5Q1223 34 1206.0 48.5Q1189 63 1178.0 82.5Q1167 102 1167 124Q1167 146 1178.0 166.0Q1189 186 1206.5 200.0Q1224 214 1245.5 222.5Q1267 231 1288 231Q1318 231 1343 218L1524 126Q1512 141 1506.5 159.0Q1501 177 1501 196Z" style="fill:#990838;stroke:none" transform="scale(1,-1) translate(0,-256)" /></svg>