<?xml version="1.0" encoding="utf-8" ?>
<svg baseProfile="full" height="256" version="1.1" width="256" xmlns="http://www.w3.org/2000/svg" xmlns:ev="http://www.w3.org/2001/xml-events" xmlns:xlink="http://www.w3.org/1999/xlink"><defs /><path d="M2017 1761Q2068 1761 2110.5 1751.5Q2153 1742 2185.5 1720.0Q2218 1698 2238.5 1661.0Q2259 1624 2265 1570Q2267 1547 2267.5 1523.0Q2268 1499 2268 1475V-179H2197V1474Q2197 1529 2192.0 1569.5Q2187 1610 2169.0 1636.5Q2151 1663 2115.0 1676.0Q2079 1689 2017 1689Q1939 1689 1901.0 1667.0Q1863 1645 1849.0 1606.5Q1835 1568 1836.0 1515.5Q1837 1463 1837 1402H1765V1475Q1765 1545 1775.5 1598.5Q1786 1652 1814.0 1688.0Q1842 1724 1891.0 1742.5Q1940 1761 2017 1761Z" style="fill:#9b9b9b;stroke:none" transform="scale(1,-1) translate(0,-256)" /></svg>