<?xml version="1.0" encoding="utf-8" ?>
<svg baseProfile="full" height="256" version="1.1" width="256" xmlns="http://www.w3.org/2000/svg" xmlns:ev="http://www.w3.org/2001/xml-events" xmlns:xlink="http://www.w3.org/1999/xlink"><defs /><path d="M525 431Q551 431 574.0 421.5Q597 412 614.0 395.0Q631 378 641.0 355.0Q651 332 651 306V-144Q651 -173 629.5 -194.0Q608 -215 579 -215H472Q443 -215 421.5 -194.0Q400 -173 400 -144V306Q400 332 410.0 354.5Q420 377 437.0 394.0Q454 411 476.5 421.0Q499 431 525 431ZM1927 431Q1953 431 1976.0 421.5Q1999 412 2016.0 395.0Q2033 378 2043.0 355.0Q2053 332 2053 306V-144Q2053 -173 2031.5 -194.0Q2010 -215 1981 -215H1873Q1844 -215 1822.5 -194.0Q1801 -173 1801 -144V306Q1801 332 1811.0 354.5Q1821 377 1838.0 394.0Q1855 411 1878.0 421.0Q1901 431 1927 431Z" style="fill:#5092ff;stroke:none" transform="scale(1,-1) translate(0,-256)" /></svg>