<?xml version="1.0" encoding="utf-8" ?>
<svg baseProfile="full" height="256" version="1.1" width="256" xmlns="http://www.w3.org/2000/svg" xmlns:ev="http://www.w3.org/2001/xml-events" xmlns:xlink="http://www.w3.org/1999/xlink"><defs /><path d="M1154 647Q1184 647 1205.0 626.0Q1226 605 1226 575Q1226 605 1247.0 626.0Q1268 647 1298 647H1837Q1867 647 1888.0 626.0Q1909 605 1909 575V180Q1909 150 1888.0 129.0Q1867 108 1837 108H615Q586 108 564.5 129.5Q543 151 543 180V575Q543 604 564.5 625.5Q586 647 615 647ZM472 -215 543 -144 615 -215V-269Q615 -277 610.0 -282.0Q605 -287 597 -287H490Q482 -287 477.0 -282.0Q472 -277 472 -269ZM1981 -215V-269Q1981 -277 1976.0 -282.0Q1971 -287 1963 -287H1855Q1847 -287 1842.0 -282.0Q1837 -277 1837 -269V-215L1909 -144Z" style="fill:#1345b7;stroke:none" transform="scale(1,-1) translate(0,-256)" /></svg>