<?xml version="1.0" encoding="utf-8" ?>
<svg baseProfile="full" height="256" version="1.1" width="256" xmlns="http://www.w3.org/2000/svg" xmlns:ev="http://www.w3.org/2001/xml-events" xmlns:xlink="http://www.w3.org/1999/xlink"><defs /><path d="M1801 1438Q1853 1438 1899.0 1418.0Q1945 1398 1979.0 1364.0Q2013 1330 2033.0 1284.0Q2053 1238 2053 1186V971Q2053 956 2042.5 945.5Q2032 935 2017 935H1586Q1571 935 1560.5 945.5Q1550 956 1550 971V1186Q1550 1238 1569.5 1284.0Q1589 1330 1623.0 1364.0Q1657 1398 1703.0 1418.0Q1749 1438 1801 1438ZM2089 -287H2376Q2398 -287 2398 -262Q2398 -248 2394 -237Q2376 -180 2335.5 -144.0Q2295 -108 2233 -108Q2170 -108 2129.5 -144.0Q2089 -180 2071 -237Q2066 -250 2066 -262Q2066 -287 2089 -287Z" style="fill:#ffb02e;stroke:none" transform="scale(1,-1) translate(0,-256)" /></svg>