<?xml version="1.0" encoding="utf-8" ?>
<svg baseProfile="full" height="256" version="1.1" width="256" xmlns="http://www.w3.org/2000/svg" xmlns:ev="http://www.w3.org/2001/xml-events" xmlns:xlink="http://www.w3.org/1999/xlink"><defs /><path d="M625 1102Q613 1102 601.0 1105.5Q589 1109 579 1117L425 1230Q393 1254 393 1294Q393 1310 398.5 1322.5Q404 1335 413.0 1346.0Q422 1357 432.5 1366.5Q443 1376 453 1387Q477 1411 509 1411Q527 1411 543.5 1402.5Q560 1394 571 1380L688 1230Q696 1220 700.0 1207.5Q704 1195 704 1182Q704 1149 680.5 1125.5Q657 1102 625 1102ZM626 1225Q608 1225 595.5 1212.0Q583 1199 583 1181Q583 1163 595.5 1149.5Q608 1136 627 1136Q644 1136 657.0 1149.5Q670 1163 670 1180Q670 1198 657.0 1211.5Q644 1225 626 1225Z" style="fill:#f9c23c;stroke:none" transform="scale(1,-1) translate(0,-256)" /></svg>