<?xml version="1.0" encoding="utf-8" ?>
<svg baseProfile="full" height="256" version="1.1" width="256" xmlns="http://www.w3.org/2000/svg" xmlns:ev="http://www.w3.org/2001/xml-events" xmlns:xlink="http://www.w3.org/1999/xlink"><defs /><path d="M544 242Q544 265 556.0 286.0Q568 307 588 318L769 417L981 -261L776 -284Q774 -284 771.0 -284.5Q768 -285 766 -285Q738 -285 716.5 -268.5Q695 -252 687 -226L547 218Q544 230 544 242ZM2309 243Q2309 267 2296.5 287.0Q2284 307 2264 318L2083 417L1871 -261L2076 -284Q2078 -284 2081.0 -284.5Q2084 -285 2086 -285Q2113 -285 2135.5 -268.5Q2158 -252 2166 -226L2305 218Q2309 229 2309 243Z" style="fill:#998ea4;stroke:none" transform="scale(1,-1) translate(0,-256)" /></svg>