<?xml version="1.0" encoding="utf-8" ?>
<svg baseProfile="full" height="256" version="1.1" width="256" xmlns="http://www.w3.org/2000/svg" xmlns:ev="http://www.w3.org/2001/xml-events" xmlns:xlink="http://www.w3.org/1999/xlink"><defs /><path d="M1530 -87H1129Q993 -87 873.5 -35.0Q754 17 664.5 106.0Q575 195 523.5 315.0Q472 435 472 571V690Q472 710 486.5 724.5Q501 739 521 739H2138Q2158 739 2173.0 725.0Q2188 711 2188 690V571Q2188 435 2136.0 315.5Q2084 196 1994.5 106.5Q1905 17 1785.5 -35.0Q1666 -87 1530 -87Z" style="fill:#f8312f;stroke:none" transform="scale(1,-1) translate(0,-256)" /></svg>