<?xml version="1.0" encoding="utf-8" ?>
<svg baseProfile="full" height="256" version="1.1" width="256" xmlns="http://www.w3.org/2000/svg" xmlns:ev="http://www.w3.org/2001/xml-events" xmlns:xlink="http://www.w3.org/1999/xlink"><defs /><path d="M1332 532Q1332 518 1321.0 507.5Q1310 497 1296 497Q1282 497 1271.0 507.5Q1260 518 1260 532V1357Q1260 1372 1270.5 1382.5Q1281 1393 1296 1393Q1311 1393 1321.5 1382.5Q1332 1372 1332 1357ZM1478 900Q1478 886 1467.0 875.5Q1456 865 1442 865Q1428 865 1417.0 875.5Q1406 886 1406 900V1357Q1406 1372 1416.5 1382.5Q1427 1393 1442 1393Q1457 1393 1467.5 1382.5Q1478 1372 1478 1357Z" style="fill:#fcd53f;stroke:none" transform="scale(1,-1) translate(0,-256)" /></svg>