<?xml version="1.0" encoding="utf-8" ?>
<svg baseProfile="full" height="256" version="1.1" width="256" xmlns="http://www.w3.org/2000/svg" xmlns:ev="http://www.w3.org/2001/xml-events" xmlns:xlink="http://www.w3.org/1999/xlink"><defs /><path d="M1929 1221Q1929 1201 1920.5 1178.5Q1912 1156 1897 1142L1506 790Q1489 774 1470.0 765.5Q1451 757 1426 757Q1402 757 1383.0 765.5Q1364 774 1347 790L956 1142Q940 1156 931.5 1178.5Q923 1201 923 1221Q923 1246 931.5 1265.0Q940 1284 956 1301L1283 1664Q1309 1693 1348.0 1708.0Q1387 1723 1425 1723Q1463 1723 1502.5 1708.0Q1542 1693 1568 1664L1896 1301Q1912 1284 1920.5 1265.0Q1929 1246 1929 1221ZM472 1177Q472 1204 478.5 1224.5Q485 1245 498 1268L564 1390Q576 1412 597.0 1424.5Q618 1437 643 1437Q669 1437 689.5 1425.0Q710 1413 722 1390L787 1271Q800 1248 807.5 1226.5Q815 1205 815 1178Q815 1133 801.0 1107.5Q787 1082 769.5 1062.5Q752 1043 738.0 1023.0Q724 1003 724 970V704Q724 672 733.5 642.0Q743 612 761.0 587.0Q779 562 804.0 542.5Q829 523 859 513L1162 407Q1186 399 1201.0 378.0Q1216 357 1216 331Q1216 298 1192.5 274.0Q1169 250 1135 250Q1127 250 1102.5 257.0Q1078 264 1045.5 275.0Q1013 286 976.0 299.0Q939 312 905.0 324.5Q871 337 844.5 347.0Q818 357 806 361Q752 380 707.0 414.5Q662 449 630.0 494.0Q598 539 580.5 592.5Q563 646 563 704V970Q563 1002 549.0 1022.0Q535 1042 517.5 1062.0Q500 1082 486.0 1108.0Q472 1134 472 1177ZM2380 1177Q2380 1203 2372.5 1224.0Q2365 1245 2353 1268L2287 1390Q2275 1412 2254.0 1424.5Q2233 1437 2208 1437Q2183 1437 2162.0 1424.5Q2141 1412 2129 1390L2064 1271Q2051 1248 2043.5 1226.5Q2036 1205 2036 1178Q2036 1149 2043.0 1128.0Q2050 1107 2060.0 1091.0Q2070 1075 2082.0 1062.5Q2094 1050 2104.0 1036.5Q2114 1023 2121.0 1007.0Q2128 991 2128 970V704Q2128 672 2118.0 642.0Q2108 612 2090.0 587.0Q2072 562 2047.0 542.5Q2022 523 1992 513L1690 407Q1665 399 1650.5 377.5Q1636 356 1636 330Q1636 297 1659.5 273.5Q1683 250 1716 250Q1724 250 1748.5 257.0Q1773 264 1805.5 275.0Q1838 286 1875.5 299.0Q1913 312 1946.5 324.5Q1980 337 2007.0 347.0Q2034 357 2046 361Q2100 380 2145.0 414.5Q2190 449 2222.0 494.0Q2254 539 2271.5 593.0Q2289 647 2289 704V970Q2289 1001 2303.0 1022.0Q2317 1043 2334.5 1063.0Q2352 1083 2366.0 1109.0Q2380 1135 2380 1177ZM1012 -76Q1057 -76 1091.5 -66.0Q1126 -56 1155.0 -37.5Q1184 -19 1211.0 6.0Q1238 31 1268 61L1233 -69Q1226 -95 1205.5 -110.5Q1185 -126 1159 -126H645Q612 -126 588.0 -149.5Q564 -173 564 -206Q564 -240 587.5 -263.5Q611 -287 645 -287H1160Q1200 -287 1237.5 -274.0Q1275 -261 1305.0 -237.5Q1335 -214 1357.0 -181.5Q1379 -149 1390 -110L1426 25L1463 -110Q1474 -149 1496.0 -182.0Q1518 -215 1548.0 -238.0Q1578 -261 1615.0 -274.0Q1652 -287 1693 -287H2208Q2242 -287 2265.5 -263.5Q2289 -240 2289 -206Q2289 -173 2265.5 -149.5Q2242 -126 2209 -126H1693Q1667 -126 1646.5 -110.0Q1626 -94 1619 -69L1585 60Q1615 30 1642.0 5.0Q1669 -20 1698.0 -38.0Q1727 -56 1761.5 -66.0Q1796 -76 1841 -76Q1886 -76 1922.0 -64.5Q1958 -53 1986.5 -36.0Q2015 -19 2036.5 1.5Q2058 22 2074.5 39.0Q2091 56 2103.5 67.5Q2116 79 2126 79Q2135 79 2142.5 73.5Q2150 68 2159.0 62.0Q2168 56 2179.5 50.5Q2191 45 2208 45Q2243 45 2266.0 68.0Q2289 91 2289 125Q2289 152 2273.0 173.5Q2257 195 2233.0 209.5Q2209 224 2181.0 232.0Q2153 240 2130 240Q2087 240 2058.0 228.5Q2029 217 2007.5 200.0Q1986 183 1969.0 163.0Q1952 143 1933.5 126.0Q1915 109 1892.0 97.5Q1869 86 1836 86Q1810 86 1790.0 96.0Q1770 106 1753.0 120.5Q1736 135 1721.0 152.5Q1706 170 1691.0 184.5Q1676 199 1658.5 209.0Q1641 219 1620 219Q1600 219 1581.5 209.5Q1563 200 1552 182L1510 337Q1514 350 1520.5 371.0Q1527 392 1533.0 414.0Q1539 436 1543.5 456.0Q1548 476 1548 489Q1548 522 1524.5 545.5Q1501 569 1467 569Q1456 569 1445.5 566.5Q1435 564 1426 558Q1407 569 1385 569Q1351 569 1327.5 545.0Q1304 521 1304 487Q1304 475 1308.5 455.0Q1313 435 1319.0 413.0Q1325 391 1331.5 370.5Q1338 350 1342 337L1301 182Q1290 200 1271.5 210.0Q1253 220 1232 220Q1200 220 1177.5 199.0Q1155 178 1132.5 153.0Q1110 128 1082.0 107.0Q1054 86 1011 86Q982 86 961.0 97.5Q940 109 922.0 126.0Q904 143 886.0 163.5Q868 184 845.5 201.0Q823 218 794.0 229.5Q765 241 724 241Q701 241 673.0 233.0Q645 225 621.0 210.5Q597 196 580.5 174.5Q564 153 564 126Q564 93 588.0 69.5Q612 46 645 46Q662 46 673.5 51.0Q685 56 693.5 62.5Q702 69 709.5 74.0Q717 79 727 79Q737 79 750.0 67.5Q763 56 779.5 39.0Q796 22 817.5 1.5Q839 -19 867.0 -36.0Q895 -53 931.0 -64.5Q967 -76 1012 -76Z" style="fill:#bb1d80;stroke:none" transform="scale(1,-1) translate(0,-256)" /></svg>