<?xml version="1.0" encoding="utf-8" ?>
<svg baseProfile="full" height="256" version="1.1" width="256" xmlns="http://www.w3.org/2000/svg" xmlns:ev="http://www.w3.org/2001/xml-events" xmlns:xlink="http://www.w3.org/1999/xlink"><defs /><path d="M2245 1365Q2245 1349 2234.5 1338.5Q2224 1328 2208 1328Q2192 1328 2181.5 1338.5Q2171 1349 2171 1365Q2171 1381 2181.5 1391.5Q2192 1402 2208 1402Q2224 1402 2234.5 1391.5Q2245 1381 2245 1365ZM2190 1273Q2190 1258 2179.0 1247.0Q2168 1236 2153 1236Q2137 1236 2126.0 1246.5Q2115 1257 2115 1273Q2115 1289 2126.0 1299.5Q2137 1310 2153 1310Q2168 1310 2179.0 1299.0Q2190 1288 2190 1273ZM2292 1143Q2292 1108 2267.5 1083.5Q2243 1059 2208 1059Q2173 1059 2148.5 1083.5Q2124 1108 2124 1143Q2124 1178 2148.5 1202.5Q2173 1227 2208 1227Q2243 1227 2267.5 1202.5Q2292 1178 2292 1143ZM2263 1236Q2279 1236 2290.0 1246.5Q2301 1257 2301 1273Q2301 1289 2290.0 1299.5Q2279 1310 2263 1310Q2248 1310 2237.0 1299.0Q2226 1288 2226 1273Q2226 1258 2237.0 1247.0Q2248 1236 2263 1236ZM643 1059Q678 1059 702.5 1083.5Q727 1108 727 1143Q727 1178 702.5 1202.5Q678 1227 643 1227Q608 1227 583.5 1202.5Q559 1178 559 1143Q559 1108 583.5 1083.5Q608 1059 643 1059ZM736 1273Q736 1258 725.0 1247.0Q714 1236 699 1236Q683 1236 672.0 1246.5Q661 1257 661 1273Q661 1289 672.0 1299.5Q683 1310 699 1310Q714 1310 725.0 1299.0Q736 1288 736 1273ZM588 1236Q604 1236 614.5 1246.5Q625 1257 625 1273Q625 1289 614.5 1299.5Q604 1310 588 1310Q572 1310 561.5 1299.5Q551 1289 551 1273Q551 1257 561.5 1246.5Q572 1236 588 1236ZM681 1365Q681 1349 670.0 1338.5Q659 1328 643 1328Q628 1328 617.0 1339.0Q606 1350 606 1365Q606 1380 617.0 1391.0Q628 1402 643 1402Q659 1402 670.0 1391.5Q681 1381 681 1365Z" style="fill:#ff6dc6;stroke:none" transform="scale(1,-1) translate(0,-256)" /></svg>