<?xml version="1.0" encoding="utf-8" ?>
<svg baseProfile="full" height="256" version="1.1" width="256" xmlns="http://www.w3.org/2000/svg" xmlns:ev="http://www.w3.org/2001/xml-events" xmlns:xlink="http://www.w3.org/1999/xlink"><defs /><path d="M1765 249Q1802 240 1844.5 228.5Q1887 217 1929.5 202.5Q1972 188 2012.0 170.5Q2052 153 2084 134Q2103 123 2114.0 107.5Q2125 92 2125 69Q2125 40 2103.5 18.5Q2082 -3 2053 -3Q2043 -3 2036.5 -1.0Q2030 1 2021 5Q1946 39 1871.5 65.5Q1797 92 1721.5 110.0Q1646 128 1567.5 137.5Q1489 147 1406 147Q1321 147 1243.5 137.5Q1166 128 1091.0 110.0Q1016 92 942.0 65.5Q868 39 791 5Q783 1 775.5 -1.0Q768 -3 759 -3Q730 -3 708.5 18.5Q687 40 687 69Q687 92 697.5 107.5Q708 123 727 134Q759 154 799.0 171.0Q839 188 882.0 202.5Q925 217 967.5 228.5Q1010 240 1047 249V1189Q1012 1198 969.0 1210.0Q926 1222 882.0 1236.5Q838 1251 797.5 1268.0Q757 1285 727 1304Q709 1315 698.0 1330.5Q687 1346 687 1369Q687 1398 708.5 1419.5Q730 1441 759 1441Q768 1441 775.5 1439.0Q783 1437 791 1433Q868 1399 942.0 1372.5Q1016 1346 1091.0 1328.0Q1166 1310 1243.5 1300.5Q1321 1291 1406 1291Q1491 1291 1568.5 1300.5Q1646 1310 1721.0 1328.0Q1796 1346 1870.0 1372.5Q1944 1399 2021 1433Q2029 1437 2036.5 1439.0Q2044 1441 2053 1441Q2082 1441 2103.5 1419.5Q2125 1398 2125 1369Q2125 1346 2114.0 1330.5Q2103 1315 2084 1304Q2049 1283 2009.5 1266.0Q1970 1249 1929.0 1235.0Q1888 1221 1846.0 1209.5Q1804 1198 1765 1189ZM1190 275Q1244 283 1298.0 287.0Q1352 291 1406 291Q1514 291 1622 276V1162Q1514 1147 1406 1147Q1298 1147 1190 1162Z" style="fill:#ffffff;stroke:none" transform="scale(1,-1) translate(0,-256)" /></svg>