<?xml version="1.0" encoding="utf-8" ?>
<svg baseProfile="full" height="256" version="1.1" width="256" xmlns="http://www.w3.org/2000/svg" xmlns:ev="http://www.w3.org/2001/xml-events" xmlns:xlink="http://www.w3.org/1999/xlink"><defs /><path d="M1906 903Q1906 888 1895.0 877.5Q1884 867 1869 867Q1858 867 1847.0 876.0Q1836 885 1818.5 896.0Q1801 907 1775.0 916.0Q1749 925 1709 925Q1692 925 1676.0 923.0Q1660 921 1644 921Q1629 921 1618.5 931.5Q1608 942 1608 957Q1608 975 1619.5 983.5Q1631 992 1647.0 995.0Q1663 998 1681.0 998.0Q1699 998 1711 998Q1765 998 1808.5 983.5Q1852 969 1893 931Q1906 920 1906 903ZM909 904Q909 888 920.0 877.5Q931 867 947 867Q961 867 969 874V875Q977 878 993.0 887.5Q1009 897 1021 902Q1073 923 1131 923Q1141 923 1151.0 922.0Q1161 921 1171 921Q1185 921 1196.0 931.5Q1207 942 1207 956Q1207 972 1199.0 980.5Q1191 989 1179.5 992.5Q1168 996 1154.5 996.5Q1141 997 1130 997Q1060 997 994 971Q984 967 969.5 960.5Q955 954 941.5 945.5Q928 937 918.5 926.5Q909 916 909 904Z" style="fill:#d37034;stroke:none" transform="scale(1,-1) translate(0,-256)" /></svg>