<?xml version="1.0" encoding="utf-8" ?>
<svg baseProfile="full" height="256" version="1.1" width="256" xmlns="http://www.w3.org/2000/svg" xmlns:ev="http://www.w3.org/2001/xml-events" xmlns:xlink="http://www.w3.org/1999/xlink"><defs /><path d="M1598 1712Q1683 1712 1750.0 1671.5Q1817 1631 1862 1561Q1896 1507 1939.0 1473.5Q1982 1440 2042 1418Q2090 1400 2129.0 1371.0Q2168 1342 2195.5 1303.5Q2223 1265 2238.0 1219.0Q2253 1173 2253 1122Q2253 1066 2238.5 1029.0Q2224 992 2207.0 961.0Q2190 930 2175.5 899.5Q2161 869 2161 827Q2161 691 2162.0 556.5Q2163 422 2163 286Q2163 242 2150.5 201.0Q2138 160 2115.0 124.5Q2092 89 2059.0 61.5Q2026 34 1985 18H809Q768 34 735.0 61.5Q702 89 678.5 124.5Q655 160 642.5 201.0Q630 242 630 286Q630 422 631.0 556.5Q632 691 632 827Q632 868 618.0 899.0Q604 930 586.5 961.5Q569 993 555.0 1030.5Q541 1068 541 1123Q541 1174 556.0 1219.5Q571 1265 598.5 1303.5Q626 1342 664.5 1371.0Q703 1400 750 1418Q811 1441 855.0 1476.0Q899 1511 934 1565Q979 1634 1046.0 1673.0Q1113 1712 1196 1712Q1226 1712 1252.0 1705.5Q1278 1699 1302.0 1691.0Q1326 1683 1349.0 1676.5Q1372 1670 1397 1670Q1422 1670 1445.5 1676.5Q1469 1683 1492.5 1691.0Q1516 1699 1542.0 1705.5Q1568 1712 1598 1712Z" style="fill:#fff9ba;stroke:none" transform="scale(1,-1) translate(0,-256)" /></svg>