<?xml version="1.0" encoding="utf-8" ?>
<svg baseProfile="full" height="256" version="1.1" width="256" xmlns="http://www.w3.org/2000/svg" xmlns:ev="http://www.w3.org/2001/xml-events" xmlns:xlink="http://www.w3.org/1999/xlink"><defs /><path d="M815 1476Q878 1476 913.0 1443.5Q948 1411 948 1345Q948 1316 939.0 1287.5Q930 1259 913.0 1235.5Q896 1212 871.5 1197.5Q847 1183 815 1183Q784 1183 761.0 1198.5Q738 1214 723.0 1237.5Q708 1261 700.5 1289.5Q693 1318 693 1345Q693 1405 723.5 1440.5Q754 1476 815 1476ZM555 1330Q618 1330 652.5 1296.5Q687 1263 687 1198Q687 1170 678.0 1141.5Q669 1113 652.5 1089.5Q636 1066 611.0 1051.5Q586 1037 555 1037Q524 1037 501.0 1052.0Q478 1067 462.5 1090.5Q447 1114 439.5 1142.5Q432 1171 432 1198Q432 1258 463.0 1294.0Q494 1330 555 1330ZM1262 1345Q1262 1411 1227.5 1443.5Q1193 1476 1130 1476Q1069 1476 1038.0 1440.5Q1007 1405 1007 1345Q1007 1318 1014.5 1289.5Q1022 1261 1037.5 1237.5Q1053 1214 1076.0 1198.5Q1099 1183 1130 1183Q1161 1183 1186.0 1198.0Q1211 1213 1227.5 1236.0Q1244 1259 1253.0 1288.0Q1262 1317 1262 1345ZM1385 1330Q1448 1330 1482.5 1296.5Q1517 1263 1517 1198Q1517 1170 1508.0 1141.5Q1499 1113 1482.5 1089.5Q1466 1066 1441.0 1051.5Q1416 1037 1385 1037Q1354 1037 1331.0 1052.0Q1308 1067 1292.5 1090.5Q1277 1114 1269.5 1142.5Q1262 1171 1262 1198Q1262 1258 1293.0 1294.0Q1324 1330 1385 1330ZM1333 757Q1333 836 1308.0 907.0Q1283 978 1236.5 1032.0Q1190 1086 1124.0 1117.5Q1058 1149 975 1149Q891 1149 824.5 1117.5Q758 1086 712.5 1032.5Q667 979 643.0 908.0Q619 837 619 757Q619 711 636.5 680.5Q654 650 682.5 630.0Q711 610 748.5 599.5Q786 589 825.5 584.5Q865 580 904.0 579.5Q943 579 975 579Q1007 579 1046.0 579.5Q1085 580 1125.0 584.5Q1165 589 1202.5 599.5Q1240 610 1269.0 630.0Q1298 650 1315.5 680.5Q1333 711 1333 757ZM1417 464Q1480 464 1515.0 431.5Q1550 399 1550 333Q1550 305 1541.0 276.0Q1532 247 1515.0 224.0Q1498 201 1473.0 186.0Q1448 171 1417 171Q1386 171 1363.0 186.5Q1340 202 1325.0 225.5Q1310 249 1302.5 277.5Q1295 306 1295 333Q1295 393 1325.5 428.5Q1356 464 1417 464ZM1810 479Q1810 544 1775.5 577.5Q1741 611 1678 611Q1617 611 1586.0 575.0Q1555 539 1555 479Q1555 452 1562.5 423.5Q1570 395 1585.5 371.5Q1601 348 1624.0 332.5Q1647 317 1678 317Q1709 317 1734.0 332.0Q1759 347 1775.5 370.0Q1792 393 1801.0 422.0Q1810 451 1810 479ZM1992 611Q2056 611 2090.5 578.0Q2125 545 2125 479Q2125 451 2116.0 422.0Q2107 393 2090.0 370.0Q2073 347 2048.0 332.0Q2023 317 1992 317Q1961 317 1938.0 332.5Q1915 348 1900.0 371.5Q1885 395 1877.5 423.5Q1870 452 1870 479Q1870 539 1900.5 575.0Q1931 611 1992 611ZM2380 333Q2380 399 2345.0 431.5Q2310 464 2247 464Q2186 464 2155.5 428.5Q2125 393 2125 333Q2125 306 2132.5 277.5Q2140 249 2155.0 225.5Q2170 202 2193.0 186.5Q2216 171 2247 171Q2278 171 2303.0 186.0Q2328 201 2345.0 224.0Q2362 247 2371.0 276.0Q2380 305 2380 333ZM1837 283Q1920 283 1986.5 251.5Q2053 220 2099.5 166.0Q2146 112 2170.5 41.0Q2195 -30 2195 -109Q2195 -155 2177.5 -186.0Q2160 -217 2131.0 -236.5Q2102 -256 2064.5 -266.5Q2027 -277 1987.0 -281.5Q1947 -286 1908.0 -286.5Q1869 -287 1837 -287Q1805 -287 1766.0 -286.5Q1727 -286 1687.5 -281.5Q1648 -277 1610.5 -266.5Q1573 -256 1544.5 -236.0Q1516 -216 1498.5 -185.0Q1481 -154 1481 -109Q1481 -30 1505.0 41.5Q1529 113 1575.0 166.5Q1621 220 1687.0 251.5Q1753 283 1837 283Z" style="fill:#635994;stroke:none" transform="scale(1,-1) translate(0,-256)" /></svg>