<?xml version="1.0" encoding="utf-8" ?>
<svg baseProfile="full" height="256" version="1.1" width="256" xmlns="http://www.w3.org/2000/svg" xmlns:ev="http://www.w3.org/2001/xml-events" xmlns:xlink="http://www.w3.org/1999/xlink"><defs /><path d="M2125 1725Q2184 1725 2236.5 1702.5Q2289 1680 2328.0 1641.0Q2367 1602 2389.5 1549.5Q2412 1497 2412 1438V881L2375 855L2412 813V546L2371 500L2412 450V144H400V443L448 500L400 565V811L421 845L400 875V1438Q400 1497 422.5 1549.5Q445 1602 484.0 1641.0Q523 1680 575.5 1702.5Q628 1725 687 1725Z" style="fill:#533566;stroke:none" transform="scale(1,-1) translate(0,-256)" /></svg>