<?xml version="1.0" encoding="utf-8" ?>
<svg baseProfile="full" height="256" version="1.1" width="256" xmlns="http://www.w3.org/2000/svg" xmlns:ev="http://www.w3.org/2001/xml-events" xmlns:xlink="http://www.w3.org/1999/xlink"><defs /><path d="M687 -287Q609 -287 542.0 -248.0Q475 -209 436 -141Q466 -136 490.5 -124.5Q515 -113 539.0 -101.5Q563 -90 589.5 -81.0Q616 -72 651 -72Q686 -72 716.5 -83.5Q747 -95 777.0 -108.5Q807 -122 837.5 -133.0Q868 -144 903 -144Q938 -144 968.5 -133.0Q999 -122 1028.5 -108.5Q1058 -95 1088.5 -83.5Q1119 -72 1154 -72Q1189 -72 1219.5 -83.5Q1250 -95 1280.0 -108.5Q1310 -122 1340.5 -133.0Q1371 -144 1406 -144Q1443 -144 1468.0 -133.0Q1493 -122 1518.5 -108.5Q1544 -95 1576.0 -83.5Q1608 -72 1658 -72Q1708 -72 1739.5 -83.5Q1771 -95 1796.5 -108.5Q1822 -122 1847.0 -133.0Q1872 -144 1909 -144Q1946 -144 1971.0 -133.0Q1996 -122 2021.5 -108.5Q2047 -95 2079.0 -83.5Q2111 -72 2161 -72Q2209 -72 2237.0 -80.5Q2265 -89 2285.5 -100.5Q2306 -112 2325.5 -123.5Q2345 -135 2376 -140Q2338 -208 2270.5 -247.5Q2203 -287 2125 -287H687Z" style="fill:#00a6ed;stroke:none" transform="scale(1,-1) translate(0,-256)" /></svg>