<?xml version="1.0" encoding="utf-8" ?>
<svg baseProfile="full" height="256" version="1.1" width="256" xmlns="http://www.w3.org/2000/svg" xmlns:ev="http://www.w3.org/2001/xml-events" xmlns:xlink="http://www.w3.org/1999/xlink"><defs /><path d="M400 809V883Q469 905 524.5 946.5Q580 988 622.0 1042.0Q664 1096 693.5 1160.0Q723 1224 742 1291Q747 1310 752.0 1329.5Q757 1349 759 1369Q762 1398 781.5 1418.0Q801 1438 831 1438Q861 1438 880.5 1418.0Q900 1398 903 1369Q905 1349 910.0 1329.5Q915 1310 920 1291Q945 1202 986.5 1124.0Q1028 1046 1087.5 988.0Q1147 930 1226.0 896.5Q1305 863 1406 863Q1506 863 1585.0 896.5Q1664 930 1724.0 988.0Q1784 1046 1825.5 1124.0Q1867 1202 1892 1291Q1897 1310 1902.0 1329.5Q1907 1349 1909 1369Q1912 1398 1931.5 1418.0Q1951 1438 1981 1438Q2011 1438 2030.5 1418.0Q2050 1398 2053 1369Q2055 1349 2060.0 1329.5Q2065 1310 2070 1291Q2089 1224 2118.5 1160.0Q2148 1096 2190.0 1041.5Q2232 987 2287.0 946.0Q2342 905 2412 883V809Q2374 819 2337.5 835.0Q2301 851 2268 872V575H2412V431H2053V0H1909V431H903V0H759V431H400V575H543V872Q477 829 400 809ZM1765 928V575H1909V1131Q1883 1074 1847.0 1022.5Q1811 971 1765 928ZM1693 872Q1627 829 1550 809V575H1693ZM1478 795Q1460 793 1442.0 792.0Q1424 791 1406 791Q1388 791 1370.0 792.0Q1352 793 1334 795V575H1478ZM1262 809Q1224 819 1187.5 835.0Q1151 851 1118 872V575H1262ZM1047 928Q1001 971 965.0 1022.5Q929 1074 903 1131V575H1047ZM2053 575H2197V928Q2151 971 2115.0 1022.5Q2079 1074 2053 1131ZM759 575V1131Q733 1074 697.0 1022.5Q661 971 615 928V575Z" style="fill:#f92f60;stroke:none" transform="scale(1,-1) translate(0,-256)" /></svg>