<?xml version="1.0" encoding="utf-8" ?>
<svg baseProfile="full" height="256" version="1.1" width="256" xmlns="http://www.w3.org/2000/svg" xmlns:ev="http://www.w3.org/2001/xml-events" xmlns:xlink="http://www.w3.org/1999/xlink"><defs /><path d="M1765 1366Q1795 1366 1816.0 1345.0Q1837 1324 1837 1294V1078H2053Q2083 1078 2104.0 1057.0Q2125 1036 2125 1006Q2125 977 2103.5 956.0Q2082 935 2053 935H1837Q1835 909 1837.5 883.0Q1840 857 1840 831Q1840 691 1814.5 560.5Q1789 430 1732.5 315.5Q1676 201 1587.0 105.0Q1498 9 1372 -61Q1362 -66 1353.5 -69.0Q1345 -72 1334 -72Q1304 -72 1283.0 -51.0Q1262 -30 1262 0Q1262 20 1271.5 35.5Q1281 51 1298 62Q1340 89 1377.5 116.0Q1415 143 1448.5 173.0Q1482 203 1512.5 238.0Q1543 273 1570 317Q1606 374 1630.5 437.0Q1655 500 1669.5 566.0Q1684 632 1690.5 699.5Q1697 767 1697 834Q1697 882 1694 930L1693 932V935H1119L1118 934V575Q1118 546 1097.0 524.5Q1076 503 1047 503Q1017 503 996.0 524.0Q975 545 975 575V935H759Q730 935 708.5 956.0Q687 977 687 1006Q687 1036 708.0 1057.0Q729 1078 759 1078H975V1294Q975 1324 996.0 1345.0Q1017 1366 1047 1366Q1076 1366 1097.0 1344.5Q1118 1323 1118 1294V1078H1693V1294Q1693 1323 1714.5 1344.5Q1736 1366 1765 1366Z" style="fill:#ffffff;stroke:none" transform="scale(1,-1) translate(0,-256)" /></svg>