<?xml version="1.0" encoding="utf-8" ?>
<svg baseProfile="full" height="256" version="1.1" width="256" xmlns="http://www.w3.org/2000/svg" xmlns:ev="http://www.w3.org/2001/xml-events" xmlns:xlink="http://www.w3.org/1999/xlink"><defs /><path d="M615 1006V1366Q615 1420 626.0 1466.0Q637 1512 662.5 1545.5Q688 1579 729.5 1598.0Q771 1617 831 1617Q859 1617 892.0 1607.0Q925 1597 956.5 1581.0Q988 1565 1016.0 1545.0Q1044 1525 1062 1504Q1063 1502 1066.5 1498.0Q1070 1494 1073.5 1489.5Q1077 1485 1080.0 1480.5Q1083 1476 1083 1474Q1084 1465 1088.0 1437.5Q1092 1410 1096.5 1379.5Q1101 1349 1105.0 1323.5Q1109 1298 1111 1294Q1122 1265 1134.0 1245.5Q1146 1226 1160 1198L1259 1006Z" style="fill:#ffb02e;stroke:none" transform="scale(1,-1) translate(0,-256)" /></svg>