<?xml version="1.0" encoding="utf-8" ?>
<svg baseProfile="full" height="256" version="1.1" width="256" xmlns="http://www.w3.org/2000/svg" xmlns:ev="http://www.w3.org/2001/xml-events" xmlns:xlink="http://www.w3.org/1999/xlink"><defs /><path d="M1978 719Q2003 719 2021.5 701.5Q2040 684 2040 658Q2040 653 2038 643Q2011 533 1952.0 441.5Q1893 350 1810.5 284.0Q1728 218 1625.5 181.0Q1523 144 1409 144Q1295 144 1192.5 181.0Q1090 218 1007.0 284.0Q924 350 864.5 441.5Q805 533 778 643Q777 646 777.0 649.5Q777 653 777 656Q777 682 795.0 700.5Q813 719 839 719Z" style="fill:#a56953;stroke:none" transform="scale(1,-1) translate(0,-256)" /></svg>