<?xml version="1.0" encoding="utf-8" ?>
<svg baseProfile="full" height="256" version="1.1" width="256" xmlns="http://www.w3.org/2000/svg" xmlns:ev="http://www.w3.org/2001/xml-events" xmlns:xlink="http://www.w3.org/1999/xlink"><defs /><path d="M617 1132 487 1188Q471 1195 471 1211Q471 1224 481 1232L651 1374L687 1222ZM1545 -179H1611Q1629 -179 1644.5 -186.0Q1660 -193 1671.5 -204.5Q1683 -216 1689.5 -231.5Q1696 -247 1696 -265Q1696 -274 1689.5 -280.5Q1683 -287 1674 -287H1287Q1278 -287 1271.5 -280.5Q1265 -274 1265 -265Q1265 -247 1272.0 -231.5Q1279 -216 1290.5 -204.5Q1302 -193 1317.5 -186.0Q1333 -179 1351 -179H1437L1517 126H1624Z" style="fill:#ff822d;stroke:none" transform="scale(1,-1) translate(0,-256)" /></svg>