<?xml version="1.0" encoding="utf-8" ?>
<svg baseProfile="full" height="256" version="1.1" width="256" xmlns="http://www.w3.org/2000/svg" xmlns:ev="http://www.w3.org/2001/xml-events" xmlns:xlink="http://www.w3.org/1999/xlink"><defs /><path d="M615 791V1006L929 1167L1259 1006Q1292 941 1342.5 902.0Q1393 863 1470 863Q1503 863 1526.5 886.0Q1550 909 1550 942L2229 647Q2206 647 2193.0 635.0Q2180 623 2173 603Q2167 587 2163.0 570.5Q2159 554 2154 537Q2143 505 2129.5 474.0Q2116 443 2100 413Q2048 318 1974.0 241.5Q1900 165 1810.0 111.5Q1720 58 1617.5 29.0Q1515 0 1406 0Q1297 0 1196.0 28.0Q1095 56 1007.0 107.5Q919 159 846.5 231.5Q774 304 722.5 392.0Q671 480 643.0 581.0Q615 682 615 791Z" style="fill:#6d4534;stroke:none" transform="scale(1,-1) translate(0,-256)" /></svg>