<?xml version="1.0" encoding="utf-8" ?>
<svg baseProfile="full" height="256" version="1.1" width="256" xmlns="http://www.w3.org/2000/svg" xmlns:ev="http://www.w3.org/2001/xml-events" xmlns:xlink="http://www.w3.org/1999/xlink"><defs /><path d="M1550 1097Q1550 1128 1557.0 1161.5Q1564 1195 1575 1224Q1598 1288 1638.5 1341.0Q1679 1394 1732.5 1431.5Q1786 1469 1849.0 1489.5Q1912 1510 1980 1510Q2053 1510 2121.5 1486.0Q2190 1462 2246.0 1418.5Q2302 1375 2342.5 1315.0Q2383 1255 2400 1183Q2400 1181 2400.5 1179.5Q2401 1178 2401 1176Q2401 1165 2393.0 1157.5Q2385 1150 2374 1150Q2362 1150 2339.5 1163.5Q2317 1177 2293.0 1192.5Q2269 1208 2246.0 1221.5Q2223 1235 2210 1235Q2196 1235 2185.0 1224.5Q2174 1214 2174 1200Q2174 1190 2179.5 1181.0Q2185 1172 2193 1167L2388 1055Q2412 1041 2412 1013Q2412 994 2400.0 979.5Q2388 965 2368 965Q2351 965 2329.5 977.0Q2308 989 2286.0 1003.5Q2264 1018 2244.0 1030.0Q2224 1042 2210 1042Q2195 1042 2184.5 1031.5Q2174 1021 2174 1007Q2174 986 2192 975L2388 862Q2412 848 2412 820Q2412 800 2399.0 786.0Q2386 772 2366 772Q2349 772 2328.0 784.0Q2307 796 2285.0 811.0Q2263 826 2243.0 838.0Q2223 850 2209 850Q2195 850 2184.0 839.0Q2173 828 2173 814Q2173 799 2185.5 787.0Q2198 775 2216.0 765.0Q2234 755 2256.0 745.0Q2278 735 2296.0 725.0Q2314 715 2326.5 704.0Q2339 693 2339 679Q2339 665 2330.0 656.0Q2321 647 2307 647H1837Q1777 647 1725.0 669.5Q1673 692 1634.0 731.0Q1595 770 1572.5 822.5Q1550 875 1550 935V1097Z" style="fill:#44911b;stroke:none" transform="scale(1,-1) translate(0,-256)" /></svg>