<?xml version="1.0" encoding="utf-8" ?>
<svg baseProfile="full" height="256" version="1.1" width="256" xmlns="http://www.w3.org/2000/svg" xmlns:ev="http://www.w3.org/2001/xml-events" xmlns:xlink="http://www.w3.org/1999/xlink"><defs /><path d="M1722 1294Q1754 1294 1777.0 1271.0Q1800 1248 1800 1216V820Q1800 788 1777.0 765.0Q1754 742 1722 742Q1693 742 1671.5 760.0Q1650 778 1645 807H1478V302Q1478 270 1459.0 247.0Q1440 224 1407 224Q1374 224 1354.0 247.0Q1334 270 1334 302V807H1169Q1164 780 1142.5 761.0Q1121 742 1093 742Q1060 742 1037.5 764.5Q1015 787 1015 820V982Q1015 1041 1014.5 1099.0Q1014 1157 1014 1216Q1014 1248 1037.0 1271.0Q1060 1294 1092 1294H1334V1432Q1334 1464 1354.0 1487.0Q1374 1510 1407 1510Q1440 1510 1459.0 1487.0Q1478 1464 1478 1432V1294ZM1174 988Q1174 977 1181.5 972.0Q1189 967 1199 967H1308Q1318 967 1326.0 974.0Q1334 981 1334 992V1108Q1334 1119 1326.5 1126.0Q1319 1133 1308 1133H1199Q1189 1133 1181.5 1125.5Q1174 1118 1174 1108ZM1503 1133Q1492 1133 1485.0 1126.0Q1478 1119 1478 1108V992Q1478 982 1485.5 974.5Q1493 967 1503 967H1612Q1622 967 1629.5 974.5Q1637 982 1637 992V1108Q1637 1119 1630.0 1126.0Q1623 1133 1612 1133Z" style="fill:#f70a8d;stroke:none" transform="scale(1,-1) translate(0,-256)" /></svg>