<?xml version="1.0" encoding="utf-8" ?>
<svg baseProfile="full" height="256" version="1.1" width="256" xmlns="http://www.w3.org/2000/svg" xmlns:ev="http://www.w3.org/2001/xml-events" xmlns:xlink="http://www.w3.org/1999/xlink"><defs /><path d="M2050 1725Q2080 1725 2106.5 1713.5Q2133 1702 2153.5 1682.5Q2174 1663 2185.5 1636.5Q2197 1610 2197 1580V217Q2197 187 2185.5 160.5Q2174 134 2153.5 114.5Q2133 95 2106.5 83.5Q2080 72 2050 72H762Q732 72 705.5 83.5Q679 95 658.5 114.5Q638 134 626.5 160.5Q615 187 615 217V1580Q615 1610 626.5 1636.5Q638 1663 658.5 1682.5Q679 1702 705.5 1713.5Q732 1725 762 1725H2050Z" style="fill:#bebebe;stroke:none" transform="scale(1,-1) translate(0,-256)" /></svg>