<?xml version="1.0" encoding="utf-8" ?>
<svg baseProfile="full" height="256" version="1.1" width="256" xmlns="http://www.w3.org/2000/svg" xmlns:ev="http://www.w3.org/2001/xml-events" xmlns:xlink="http://www.w3.org/1999/xlink"><defs /><path d="M2050 352Q2080 352 2106.5 341.0Q2133 330 2153.5 310.5Q2174 291 2185.5 264.5Q2197 238 2197 208V1Q2197 -29 2185.5 -55.5Q2174 -82 2153.5 -101.5Q2133 -121 2106.5 -132.5Q2080 -144 2050 -144H762Q732 -144 705.5 -132.5Q679 -121 658.5 -101.5Q638 -82 626.5 -55.5Q615 -29 615 1V208Q615 238 626.5 264.5Q638 291 658.5 310.5Q679 330 705.5 341.0Q732 352 762 352H2050Z" style="fill:#8d65c5;stroke:none" transform="scale(1,-1) translate(0,-256)" /></svg>