<?xml version="1.0" encoding="utf-8" ?>
<svg baseProfile="full" height="256" version="1.1" width="256" xmlns="http://www.w3.org/2000/svg" xmlns:ev="http://www.w3.org/2001/xml-events" xmlns:xlink="http://www.w3.org/1999/xlink"><defs /><path d="M2053 360Q2084 360 2110.5 348.5Q2137 337 2157.0 316.5Q2177 296 2188.5 269.0Q2200 242 2200 212V-140Q2200 -170 2188.5 -197.0Q2177 -224 2157.0 -244.0Q2137 -264 2110.0 -275.5Q2083 -287 2053 -287H763Q733 -287 706.0 -275.5Q679 -264 658.5 -244.0Q638 -224 626.5 -197.5Q615 -171 615 -140V212Q615 243 626.5 270.0Q638 297 658.0 317.0Q678 337 705.0 348.5Q732 360 763 360H2053Z" style="fill:#a56953;stroke:none" transform="scale(1,-1) translate(0,-256)" /></svg>