<?xml version="1.0" encoding="utf-8" ?>
<svg baseProfile="full" height="256" version="1.1" width="256" xmlns="http://www.w3.org/2000/svg" xmlns:ev="http://www.w3.org/2001/xml-events" xmlns:xlink="http://www.w3.org/1999/xlink"><defs /><path d="M1573 1653 1595 1620 1568 1596 1604 1594 1608 1607 1633 1604V1592H1650V1565Q1637 1548 1623.0 1534.0Q1609 1520 1593 1506Q1630 1480 1661.5 1465.0Q1693 1450 1735 1450Q1741 1450 1747.0 1450.5Q1753 1451 1760 1452L1765 1428Q1750 1424 1737.0 1417.0Q1724 1410 1707 1410Q1696 1410 1678.5 1419.5Q1661 1429 1641.5 1441.5Q1622 1454 1605.0 1467.0Q1588 1480 1579 1487Q1540 1455 1493.0 1434.5Q1446 1414 1398 1399V1422Q1440 1436 1478.5 1455.0Q1517 1474 1549 1506L1509 1531L1478 1502L1455 1523Q1475 1542 1489.0 1554.0Q1503 1566 1513.0 1579.0Q1523 1592 1531.0 1608.5Q1539 1625 1547 1653ZM1533 1374 1619 1336 1593 1294 1509 1363ZM1549 1445 1619 1410 1589 1382 1533 1435ZM1524 1546 1568 1525 1598 1565H1545Z" style="fill:#0074ba;stroke:none" transform="scale(1,-1) translate(0,-256)" /></svg>