<?xml version="1.0" encoding="utf-8" ?>
<svg baseProfile="full" height="256" version="1.1" width="256" xmlns="http://www.w3.org/2000/svg" xmlns:ev="http://www.w3.org/2001/xml-events" xmlns:xlink="http://www.w3.org/1999/xlink"><defs /><path d="M1442 971Q1442 956 1433.0 946.5Q1424 937 1410 935Q1453 934 1492.0 916.5Q1531 899 1559.5 869.5Q1588 840 1605.0 801.5Q1622 763 1622 719Q1577 719 1537.5 736.0Q1498 753 1469.0 782.0Q1440 811 1423.0 850.5Q1406 890 1406 935L1390 938L1206 571Q1215 567 1220.5 558.5Q1226 550 1226 540Q1226 526 1216.5 515.0Q1207 504 1193 503Q1222 502 1248.0 490.5Q1274 479 1293.0 460.0Q1312 441 1323.0 415.5Q1334 390 1334 360Q1304 360 1278.0 371.0Q1252 382 1232.5 401.5Q1213 421 1201.5 447.0Q1190 473 1190 503L1174 507L1080 318L1146 53Q1149 54 1156 54Q1170 54 1180.0 43.0Q1190 32 1190 18Q1190 6 1182.5 -4.0Q1175 -14 1163 -17L1190 -126L1118 -144L1091 -35H1086Q1069 -35 1058.0 -26.5Q1047 -18 1047 0Q1047 12 1054.5 22.0Q1062 32 1074 35L1029 216L991 140Q1011 129 1011 108Q1011 93 1000.5 82.5Q990 72 975 72Q966 72 959 76L903 -36L831 0L887 112Q867 123 867 144Q867 158 878.0 169.0Q889 180 903 180Q912 180 919 176L999 336L947 540Q944 539 937 539Q923 539 914.0 548.0Q905 557 903 571Q902 527 884.5 488.5Q867 450 837.5 421.5Q808 393 769.5 376.5Q731 360 687 360Q687 405 704.0 444.0Q721 483 750.5 512.0Q780 541 819.0 558.0Q858 575 903 575Q904 587 910.0 596.5Q916 606 930 610L840 972Q837 971 830 971Q816 971 805.5 982.0Q795 993 795 1007Q795 1019 803.0 1028.5Q811 1038 822 1041L759 1294L831 1312L894 1059Q900 1061 904 1061Q918 1061 928.5 1050.0Q939 1039 939 1025Q939 1013 931.5 1002.5Q924 992 912 990L1002 628Q1008 630 1012 630Q1026 630 1036.5 619.0Q1047 608 1047 594Q1047 581 1039.0 571.0Q1031 561 1019 558L1050 437L1102 543Q1082 554 1082 576Q1082 590 1093.0 600.5Q1104 611 1118 611Q1128 611 1135 607L1318 974Q1298 985 1298 1006Q1298 1022 1309.0 1032.0Q1320 1042 1335 1042Q1342 1042 1350 1039L1406 1150L1478 1114L1422 1003Q1442 992 1442 971ZM543 1222Q588 1222 627.5 1205.0Q667 1188 696.0 1159.0Q725 1130 742.0 1090.5Q759 1051 759 1006Q714 1006 675.0 1023.0Q636 1040 606.5 1069.5Q577 1099 560.0 1138.0Q543 1177 543 1222ZM1190 72Q1190 117 1207.0 156.0Q1224 195 1253.5 224.5Q1283 254 1322.0 271.0Q1361 288 1406 288Q1406 243 1389.0 204.0Q1372 165 1342.5 135.5Q1313 106 1274.0 89.0Q1235 72 1190 72ZM687 0Q687 30 698.0 56.0Q709 82 728.5 101.5Q748 121 774.5 132.5Q801 144 831 144Q831 114 819.5 87.5Q808 61 788.5 41.5Q769 22 743.0 11.0Q717 0 687 0ZM1622 1150Q1622 1120 1610.5 1094.0Q1599 1068 1579.5 1048.5Q1560 1029 1534.0 1017.5Q1508 1006 1478 1006Q1478 1036 1489.0 1062.0Q1500 1088 1519.5 1107.5Q1539 1127 1565.5 1138.5Q1592 1150 1622 1150ZM687 791Q687 821 698.5 847.0Q710 873 729.5 892.5Q749 912 775.0 923.5Q801 935 831 935Q831 905 819.5 878.5Q808 852 788.5 832.5Q769 813 743.0 802.0Q717 791 687 791ZM1262 1006Q1232 1006 1206.0 1017.5Q1180 1029 1160.5 1048.5Q1141 1068 1129.5 1094.0Q1118 1120 1118 1150Q1148 1150 1174.0 1138.5Q1200 1127 1219.5 1107.5Q1239 1088 1250.5 1062.0Q1262 1036 1262 1006Z" style="fill:#b4acbc;stroke:none" transform="scale(1,-1) translate(0,-256)" /></svg>