<?xml version="1.0" encoding="utf-8" ?>
<svg baseProfile="full" height="256" version="1.1" width="256" xmlns="http://www.w3.org/2000/svg" xmlns:ev="http://www.w3.org/2001/xml-events" xmlns:xlink="http://www.w3.org/1999/xlink"><defs /><path d="M1407 1491Q1434 1491 1442 1465L1493 1293Q1519 1205 1565.5 1128.0Q1612 1051 1674.5 988.5Q1737 926 1814.0 879.5Q1891 833 1979 807L2151 756Q2177 748 2177 721Q2177 709 2169.5 699.5Q2162 690 2151 687L1979 637Q1891 611 1814.0 564.5Q1737 518 1674.5 455.0Q1612 392 1565.5 315.0Q1519 238 1493 150L1442 -22Q1439 -33 1429.0 -40.5Q1419 -48 1407 -48Q1395 -48 1385.5 -40.5Q1376 -33 1373 -22L1323 150Q1297 237 1250.5 314.5Q1204 392 1141.0 455.0Q1078 518 1000.5 564.5Q923 611 836 637L664 687Q653 690 645.5 699.5Q638 709 638 721Q638 733 645.5 743.0Q653 753 664 756L836 807Q924 833 1001.0 879.5Q1078 926 1141.0 988.5Q1204 1051 1250.5 1128.0Q1297 1205 1323 1293L1373 1465Q1376 1476 1385.5 1483.5Q1395 1491 1407 1491Z" style="fill:#ffffff;stroke:none" transform="scale(1,-1) translate(0,-256)" /></svg>