<?xml version="1.0" encoding="utf-8" ?>
<svg baseProfile="full" height="256" version="1.1" width="256" xmlns="http://www.w3.org/2000/svg" xmlns:ev="http://www.w3.org/2001/xml-events" xmlns:xlink="http://www.w3.org/1999/xlink"><defs /><path d="M1406 -287Q1175 -287 989.0 -216.5Q803 -146 672.0 -15.0Q541 116 470.5 302.0Q400 488 400 719Q400 950 470.5 1136.0Q541 1322 672.0 1453.0Q803 1584 989.0 1654.5Q1175 1725 1406 1725Q1637 1725 1823.0 1654.5Q2009 1584 2140.0 1453.0Q2271 1322 2341.5 1136.0Q2412 950 2412 719Q2412 488 2341.5 302.0Q2271 116 2140.0 -15.0Q2009 -146 1823.0 -216.5Q1637 -287 1406 -287Z" style="fill:#ffb02e;stroke:none" transform="scale(1,-1) translate(0,-256)" /></svg>