<?xml version="1.0" encoding="utf-8" ?>
<svg baseProfile="full" height="256" version="1.1" width="256" xmlns="http://www.w3.org/2000/svg" xmlns:ev="http://www.w3.org/2001/xml-events" xmlns:xlink="http://www.w3.org/1999/xlink"><defs /><path d="M761 1581Q761 1611 782.0 1632.0Q803 1653 833 1653H1408Q1437 1653 1458.5 1631.5Q1480 1610 1480 1581V1438L1118 1366L761 1438ZM817 144Q791 144 767.5 154.0Q744 164 726.5 181.5Q709 199 699.0 222.5Q689 246 689 272V665Q689 706 704.5 742.0Q720 778 747.0 805.0Q774 832 810.0 847.5Q846 863 887 863H1947V144Z" style="fill:#636363;stroke:none" transform="scale(1,-1) translate(0,-256)" /></svg>