<?xml version="1.0" encoding="utf-8" ?>
<svg baseProfile="full" height="256" version="1.1" width="256" xmlns="http://www.w3.org/2000/svg" xmlns:ev="http://www.w3.org/2001/xml-events" xmlns:xlink="http://www.w3.org/1999/xlink"><defs /><path d="M1765 -144Q1735 -144 1709.0 -132.5Q1683 -121 1663.5 -101.5Q1644 -82 1633.0 -56.0Q1622 -30 1622 0Q1622 30 1633.0 56.0Q1644 82 1663.5 101.5Q1683 121 1709.0 132.5Q1735 144 1765 144Q1795 144 1821.0 132.5Q1847 121 1866.5 101.5Q1886 82 1897.5 56.0Q1909 30 1909 0Q1909 -30 1897.5 -56.0Q1886 -82 1866.5 -101.5Q1847 -121 1821.0 -132.5Q1795 -144 1765 -144ZM1334 0Q1364 0 1385.0 -21.0Q1406 -42 1406 -72Q1406 -101 1384.5 -122.5Q1363 -144 1334 -144H1047Q1018 -144 996.5 -122.5Q975 -101 975 -72Q975 -42 996.0 -21.0Q1017 0 1047 0ZM2340 0Q2340 -30 2329.0 -56.0Q2318 -82 2298.5 -101.5Q2279 -121 2253.0 -132.5Q2227 -144 2197 -144Q2167 -144 2141.0 -132.5Q2115 -121 2095.5 -101.5Q2076 -82 2064.5 -56.0Q2053 -30 2053 0Q2053 30 2064.0 56.0Q2075 82 2094.5 101.5Q2114 121 2140.5 132.5Q2167 144 2197 144Q2227 144 2253.0 132.5Q2279 121 2298.5 101.5Q2318 82 2329.0 56.0Q2340 30 2340 0Z" style="fill:#d3d3d3;stroke:none" transform="scale(1,-1) translate(0,-256)" /></svg>