<?xml version="1.0" encoding="utf-8" ?>
<svg baseProfile="full" height="256" version="1.1" width="256" xmlns="http://www.w3.org/2000/svg" xmlns:ev="http://www.w3.org/2001/xml-events" xmlns:xlink="http://www.w3.org/1999/xlink"><defs /><path d="M2342 144H1623V1311Q1623 1337 1633.0 1360.0Q1643 1383 1660.0 1400.0Q1677 1417 1700.0 1427.0Q1723 1437 1749 1437H2216Q2242 1437 2265.0 1427.0Q2288 1417 2305.0 1400.0Q2322 1383 2332.0 1360.0Q2342 1337 2342 1311ZM2134 863Q2160 863 2179.0 882.0Q2198 901 2198 927V1229Q2198 1256 2179.5 1275.0Q2161 1294 2134 1294H1832Q1805 1294 1786.0 1275.0Q1767 1256 1767 1229V927Q1767 900 1786.0 881.5Q1805 863 1832 863ZM452 -215Q430 -215 414.5 -200.0Q399 -185 399 -163Q399 -142 415 -126L761 216L833 144V-215Z" style="fill:#f92f60;stroke:none" transform="scale(1,-1) translate(0,-256)" /></svg>