<?xml version="1.0" encoding="utf-8" ?>
<svg baseProfile="full" height="256" version="1.1" width="256" xmlns="http://www.w3.org/2000/svg" xmlns:ev="http://www.w3.org/2001/xml-events" xmlns:xlink="http://www.w3.org/1999/xlink"><defs /><path d="M1765 -215Q1720 -215 1681.0 -198.0Q1642 -181 1613.0 -152.0Q1584 -123 1567.0 -84.0Q1550 -45 1550 0Q1550 45 1567.0 84.0Q1584 123 1613.0 152.5Q1642 182 1681.0 199.0Q1720 216 1765 216Q1810 216 1849.0 199.0Q1888 182 1917.5 152.5Q1947 123 1964.0 84.0Q1981 45 1981 0Q1981 45 1998.0 84.0Q2015 123 2044.5 152.5Q2074 182 2113.0 199.0Q2152 216 2197 216Q2242 216 2281.0 199.0Q2320 182 2349.0 152.5Q2378 123 2395.0 84.0Q2412 45 2412 0Q2412 -45 2395.0 -84.0Q2378 -123 2349.0 -152.0Q2320 -181 2281.0 -198.0Q2242 -215 2197 -215Q2152 -215 2113.0 -198.0Q2074 -181 2044.5 -152.0Q2015 -123 1998.0 -84.0Q1981 -45 1981 0Q1981 -45 1964.0 -84.0Q1947 -123 1917.5 -152.0Q1888 -181 1849.0 -198.0Q1810 -215 1765 -215ZM1190 -72Q1190 -102 1179.0 -128.0Q1168 -154 1148.5 -173.5Q1129 -193 1103.0 -204.0Q1077 -215 1047 -215Q1017 -215 991.0 -204.0Q965 -193 945.5 -173.5Q926 -154 914.5 -128.0Q903 -102 903 -72Q903 -42 914.0 -16.0Q925 10 944.5 29.5Q964 49 990.5 60.5Q1017 72 1047 72Q1077 72 1103.0 60.5Q1129 49 1148.5 29.5Q1168 10 1179.0 -16.0Q1190 -42 1190 -72ZM1334 -215Q1304 -215 1278.0 -204.0Q1252 -193 1232.5 -173.5Q1213 -154 1201.5 -128.0Q1190 -102 1190 -72Q1190 -42 1201.5 -16.0Q1213 10 1232.5 29.5Q1252 49 1278.0 60.5Q1304 72 1334 72Q1364 72 1390.0 60.5Q1416 49 1435.5 29.5Q1455 10 1466.5 -16.0Q1478 -42 1478 -72Q1478 -102 1466.5 -128.0Q1455 -154 1435.5 -173.5Q1416 -193 1390.0 -204.0Q1364 -215 1334 -215Z" style="fill:#636363;stroke:none" transform="scale(1,-1) translate(0,-256)" /></svg>