<?xml version="1.0" encoding="utf-8" ?>
<svg baseProfile="full" height="256" version="1.1" width="256" xmlns="http://www.w3.org/2000/svg" xmlns:ev="http://www.w3.org/2001/xml-events" xmlns:xlink="http://www.w3.org/1999/xlink"><defs /><path d="M725 431Q703 431 683.5 439.5Q664 448 649.0 463.0Q634 478 625.5 497.5Q617 517 617 539Q617 561 625.5 580.5Q634 600 649.0 615.0Q664 630 683.5 638.5Q703 647 725 647Q747 647 767.0 638.5Q787 630 801.5 615.5Q816 601 824.5 581.0Q833 561 833 539Q833 517 824.5 497.5Q816 478 801.0 463.0Q786 448 766.5 439.5Q747 431 725 431Z" style="fill:#ffb02e;stroke:none" transform="scale(1,-1) translate(0,-256)" /></svg>