<?xml version="1.0" encoding="utf-8" ?>
<svg baseProfile="full" height="256" version="1.1" width="256" xmlns="http://www.w3.org/2000/svg" xmlns:ev="http://www.w3.org/2001/xml-events" xmlns:xlink="http://www.w3.org/1999/xlink"><defs /><path d="M1971 816Q1971 807 1968 800L1578 -192Q1562 -232 1524.0 -259.5Q1486 -287 1442 -287H1438L1129 -232Q1121 -234 1103.0 -239.0Q1085 -244 1061.5 -250.0Q1038 -256 1012.5 -262.5Q987 -269 965.0 -274.5Q943 -280 927.5 -283.5Q912 -287 909 -287H550L989 831Q994 845 1005.0 853.0Q1016 861 1031 861H1925Q1944 861 1957.5 848.0Q1971 835 1971 816Z" style="fill:#86d72f;stroke:none" transform="scale(1,-1) translate(0,-256)" /></svg>