<?xml version="1.0" encoding="utf-8" ?>
<svg baseProfile="full" height="256" version="1.1" width="256" xmlns="http://www.w3.org/2000/svg" xmlns:ev="http://www.w3.org/2001/xml-events" xmlns:xlink="http://www.w3.org/1999/xlink"><defs /><path d="M2326 943Q2326 932 2322.0 923.0Q2318 914 2312 905Q2287 866 2253.5 834.5Q2220 803 2180.0 780.5Q2140 758 2095.5 746.0Q2051 734 2005 734Q1924 734 1852.0 762.5Q1780 791 1725.5 841.5Q1671 892 1639.5 961.5Q1608 1031 1608 1114Q1608 1168 1627.5 1218.5Q1647 1269 1680.0 1313.0Q1713 1357 1756.0 1392.5Q1799 1428 1846 1451Q1864 1461 1881 1461Q1908 1461 1919.5 1440.5Q1931 1420 1931 1397Q1931 1375 1925.0 1354.5Q1919 1334 1919 1312Q1919 1245 1944.0 1186.5Q1969 1128 2012.5 1084.0Q2056 1040 2114.5 1014.5Q2173 989 2240 989Q2252 989 2266.5 988.0Q2281 987 2294.5 982.5Q2308 978 2317.0 968.5Q2326 959 2326 943Z" style="fill:#ffb02e;stroke:none" transform="scale(1,-1) translate(0,-256)" /></svg>