<?xml version="1.0" encoding="utf-8" ?>
<svg baseProfile="full" height="256" version="1.1" width="256" xmlns="http://www.w3.org/2000/svg" xmlns:ev="http://www.w3.org/2001/xml-events" xmlns:xlink="http://www.w3.org/1999/xlink"><defs /><path d="M823 851Q828 854 836.5 858.5Q845 863 852 863H1961Q1975 863 1987.0 855.0Q1999 847 2004 833Q2011 816 2032.0 762.5Q2053 709 2083.5 633.5Q2114 558 2150.0 467.0Q2186 376 2222.5 283.0Q2259 190 2293.5 102.0Q2328 14 2354.5 -55.5Q2381 -125 2397.0 -169.5Q2413 -214 2413 -219Q2413 -247 2392.5 -266.5Q2372 -286 2344 -286H1374Q1326 -286 1288.5 -261.5Q1251 -237 1234 -192L823 851Z" style="fill:#86d72f;stroke:none" transform="scale(1,-1) translate(0,-256)" /></svg>