<?xml version="1.0" encoding="utf-8" ?>
<svg baseProfile="full" height="256" version="1.1" width="256" xmlns="http://www.w3.org/2000/svg" xmlns:ev="http://www.w3.org/2001/xml-events" xmlns:xlink="http://www.w3.org/1999/xlink"><defs /><path d="M1764 243H1550Q1528 243 1512.0 254.5Q1496 266 1487 285Q1483 294 1474.5 314.0Q1466 334 1455.5 358.5Q1445 383 1434.0 410.5Q1423 438 1414.0 462.0Q1405 486 1399.0 504.5Q1393 523 1393 530Q1393 558 1413.0 577.0Q1433 596 1461 596H1675Q1696 596 1712.5 584.5Q1729 573 1738 554Q1742 545 1750.5 525.0Q1759 505 1769.5 480.5Q1780 456 1791.0 428.5Q1802 401 1811.0 377.0Q1820 353 1826.0 334.5Q1832 316 1832 309Q1832 281 1812.0 262.0Q1792 243 1764 243Z" style="fill:#44911b;stroke:none" transform="scale(1,-1) translate(0,-256)" /></svg>