<?xml version="1.0" encoding="utf-8" ?>
<svg baseProfile="full" height="256" version="1.1" width="256" xmlns="http://www.w3.org/2000/svg" xmlns:ev="http://www.w3.org/2001/xml-events" xmlns:xlink="http://www.w3.org/1999/xlink"><defs /><path d="M468 -287Q442 -287 421.0 -268.5Q400 -250 400 -223Q400 -218 416.0 -173.5Q432 -129 458.5 -59.5Q485 10 519.5 98.0Q554 186 590.5 279.0Q627 372 663.0 463.5Q699 555 729.5 630.5Q760 706 781.0 759.5Q802 813 809 830Q814 844 825.0 852.0Q836 860 851 860H1925Q1944 860 1957.5 847.0Q1971 834 1971 815Q1971 806 1968 799L1578 -193Q1562 -233 1523.5 -260.0Q1485 -287 1441 -287Q1439 -287 1420.0 -281.5Q1401 -276 1373.0 -267.5Q1345 -259 1313.0 -249.0Q1281 -239 1252.0 -230.0Q1223 -221 1201.0 -214.0Q1179 -207 1173 -205Q1166 -207 1144.0 -214.0Q1122 -221 1093.0 -230.0Q1064 -239 1032.0 -249.0Q1000 -259 973.0 -267.5Q946 -276 927.5 -281.5Q909 -287 908 -287H468Z" style="fill:#44911b;stroke:none" transform="scale(1,-1) translate(0,-256)" /></svg>