<?xml version="1.0" encoding="utf-8" ?>
<svg baseProfile="full" height="256" version="1.1" width="256" xmlns="http://www.w3.org/2000/svg" xmlns:ev="http://www.w3.org/2001/xml-events" xmlns:xlink="http://www.w3.org/1999/xlink"><defs /><path d="M2197 467V324Q2197 310 2186.5 298.5Q2176 287 2161 287H2015Q2001 287 1990.5 298.0Q1980 309 1980 323V467Q1980 482 1990.0 492.5Q2000 503 2015 503H2161Q2176 503 2186.5 492.5Q2197 482 2197 467ZM2197 108V-36Q2197 -51 2186.5 -61.5Q2176 -72 2161 -72H2015Q2000 -72 1990.0 -61.5Q1980 -51 1980 -36V108Q1980 122 1990.5 133.0Q2001 144 2015 144H2161Q2175 144 2186.0 133.0Q2197 122 2197 108ZM1837 -36V108Q1837 122 1826.0 133.0Q1815 144 1801 144H1656Q1642 144 1631.0 133.0Q1620 122 1620 108V-36Q1620 -51 1630.5 -61.5Q1641 -72 1656 -72H1801Q1816 -72 1826.5 -61.5Q1837 -51 1837 -36ZM1837 467V324Q1837 310 1826.5 298.5Q1816 287 1801 287H1656Q1642 287 1631.0 298.0Q1620 309 1620 323V467Q1620 482 1630.5 492.5Q1641 503 1656 503H1801Q1816 503 1826.5 492.5Q1837 482 1837 467Z" style="fill:#50e2ff;stroke:none" transform="scale(1,-1) translate(0,-256)" /></svg>