<?xml version="1.0" encoding="utf-8" ?>
<svg baseProfile="full" height="256" version="1.1" width="256" xmlns="http://www.w3.org/2000/svg" xmlns:ev="http://www.w3.org/2001/xml-events" xmlns:xlink="http://www.w3.org/1999/xlink"><defs /><path d="M687 -287V47Q687 58 694.0 65.0Q701 72 712 72H876Q887 72 894.0 65.0Q901 58 901 47V-287ZM976 -287V47Q976 57 983.5 64.5Q991 72 1001 72H1165Q1176 72 1183.0 65.0Q1190 58 1190 47V-287ZM1479 47V-287H1264V47Q1264 58 1271.5 65.0Q1279 72 1290 72H1453Q1464 72 1471.5 65.0Q1479 58 1479 47Z" style="fill:#321b41;stroke:none" transform="scale(1,-1) translate(0,-256)" /></svg>