<?xml version="1.0" encoding="utf-8" ?>
<svg baseProfile="full" height="256" version="1.1" width="256" xmlns="http://www.w3.org/2000/svg" xmlns:ev="http://www.w3.org/2001/xml-events" xmlns:xlink="http://www.w3.org/1999/xlink"><defs /><path d="M1191 1546V1402Q1191 1387 1180.5 1376.5Q1170 1366 1155 1366H1010Q995 1366 984.5 1376.5Q974 1387 974 1402V1546Q974 1560 985.0 1570.5Q996 1581 1010 1581H1155Q1169 1581 1180.0 1570.5Q1191 1560 1191 1546ZM1191 1042V1186Q1191 1201 1180.5 1211.5Q1170 1222 1155 1222H1010Q996 1222 985.0 1211.0Q974 1200 974 1186V1042Q974 1028 985.0 1017.0Q996 1006 1010 1006H1155Q1170 1006 1180.5 1016.5Q1191 1027 1191 1042ZM1191 827V683Q1191 669 1180.5 657.5Q1170 646 1155 646H1010Q996 646 985.0 657.0Q974 668 974 682V827Q974 841 985.0 852.0Q996 863 1010 863H1155Q1169 863 1180.0 852.0Q1191 841 1191 827ZM1191 467V324Q1191 310 1180.5 298.5Q1170 287 1155 287H1010Q996 287 985.0 298.0Q974 309 974 323V467Q974 482 984.5 492.5Q995 503 1010 503H1155Q1170 503 1180.5 492.5Q1191 482 1191 467ZM1551 324V467Q1551 482 1540.5 492.5Q1530 503 1515 503H1370Q1355 503 1344.5 492.5Q1334 482 1334 467V323Q1334 309 1345.0 298.0Q1356 287 1370 287H1515Q1530 287 1540.5 298.5Q1551 310 1551 324ZM1551 827V683Q1551 669 1540.5 657.5Q1530 646 1515 646H1370Q1356 646 1345.0 657.0Q1334 668 1334 682V827Q1334 841 1345.0 852.0Q1356 863 1370 863H1515Q1529 863 1540.0 852.0Q1551 841 1551 827ZM1551 1042V1186Q1551 1201 1540.5 1211.5Q1530 1222 1515 1222H1370Q1355 1222 1344.5 1211.5Q1334 1201 1334 1186V1042Q1334 1028 1345.0 1017.0Q1356 1006 1370 1006H1515Q1530 1006 1540.5 1016.5Q1551 1027 1551 1042ZM1551 1546V1402Q1551 1387 1540.5 1376.5Q1530 1366 1515 1366H1370Q1355 1366 1344.5 1376.5Q1334 1387 1334 1402V1546Q1334 1561 1344.5 1571.0Q1355 1581 1370 1581H1515Q1529 1581 1540.0 1570.5Q1551 1560 1551 1546ZM832 324V467Q832 482 821.5 492.5Q811 503 796 503H651Q636 503 625.5 492.5Q615 482 615 467V323Q615 308 625.5 297.5Q636 287 651 287H796Q811 287 821.5 298.5Q832 310 832 324ZM832 827V683Q832 669 821.5 657.5Q811 646 796 646H651Q636 646 625.5 656.5Q615 667 615 682V827Q615 842 625.5 852.5Q636 863 651 863H796Q810 863 821.0 852.0Q832 841 832 827ZM832 1042V1186Q832 1201 821.5 1211.5Q811 1222 796 1222H651Q636 1222 625.5 1211.5Q615 1201 615 1186V1042Q615 1027 625.5 1016.5Q636 1006 651 1006H796Q811 1006 821.5 1016.5Q832 1027 832 1042ZM832 1546V1402Q832 1387 821.5 1376.5Q811 1366 796 1366H651Q636 1366 625.5 1376.5Q615 1387 615 1402V1546Q615 1561 625.5 1571.0Q636 1581 651 1581H796Q810 1581 821.0 1570.5Q832 1560 832 1546Z" style="fill:#50e2ff;stroke:none" transform="scale(1,-1) translate(0,-256)" /></svg>