<?xml version="1.0" encoding="utf-8" ?>
<svg baseProfile="full" height="256" version="1.1" width="256" xmlns="http://www.w3.org/2000/svg" xmlns:ev="http://www.w3.org/2001/xml-events" xmlns:xlink="http://www.w3.org/1999/xlink"><defs /><path d="M2053 719Q2053 690 2031.5 668.5Q2010 647 1981 647Q1951 647 1930.0 668.0Q1909 689 1909 719V1193L1292 575L1457 410Q1478 389 1478 359Q1478 330 1456.5 309.0Q1435 288 1406 288Q1376 288 1355 309L1190 474L810 93Q789 72 759 72Q744 72 731.5 78.0Q719 84 709.0 94.0Q699 104 693.5 117.0Q688 130 688 144Q688 174 709 195L1089 575L924 740Q903 761 903 790Q903 819 924.5 840.5Q946 862 975 862Q1005 862 1026 841L1190 677L1808 1292H1334Q1305 1292 1283.5 1313.5Q1262 1335 1262 1364Q1262 1393 1283.5 1414.5Q1305 1436 1334 1436H1988Q1992 1436 1994.5 1434.5Q1997 1433 2002 1433Q2005 1431 2008.5 1430.0Q2012 1429 2015 1427Q2029 1420 2041.0 1404.5Q2053 1389 2053 1373Z" style="fill:#ffffff;stroke:none" transform="scale(1,-1) translate(0,-256)" /></svg>