<?xml version="1.0" encoding="utf-8" ?>
<svg baseProfile="full" height="256" version="1.1" width="256" xmlns="http://www.w3.org/2000/svg" xmlns:ev="http://www.w3.org/2001/xml-events" xmlns:xlink="http://www.w3.org/1999/xlink"><defs /><path d="M2116 144H1343Q1323 144 1307.5 154.5Q1292 165 1282.0 181.0Q1272 197 1267.0 216.0Q1262 235 1262 252Q1262 269 1267.0 288.0Q1272 307 1282.5 323.0Q1293 339 1308.0 349.5Q1323 360 1343 360H2116Q2136 360 2151.0 349.5Q2166 339 2176.5 323.0Q2187 307 2192.0 288.0Q2197 269 2197 252Q2197 235 2192.0 216.0Q2187 197 2177.0 181.0Q2167 165 2151.5 154.5Q2136 144 2116 144Z" style="fill:#7d4533;stroke:none" transform="scale(1,-1) translate(0,-256)" /></svg>