<?xml version="1.0" encoding="utf-8" ?>
<svg baseProfile="full" height="256" version="1.1" width="256" xmlns="http://www.w3.org/2000/svg" xmlns:ev="http://www.w3.org/2001/xml-events" xmlns:xlink="http://www.w3.org/1999/xlink"><defs /><path d="M2148 1725Q2203 1725 2251.0 1704.5Q2299 1684 2335.0 1648.0Q2371 1612 2391.5 1564.0Q2412 1516 2412 1461V-23Q2412 -78 2391.5 -126.0Q2371 -174 2335.0 -210.0Q2299 -246 2251.0 -266.5Q2203 -287 2148 -287H2129L1724 -144L1334 -287H976L941 -237L906 -287H830L794 -237L759 -287H664Q609 -287 561.0 -266.5Q513 -246 477.0 -210.0Q441 -174 420.5 -126.0Q400 -78 400 -23V1461Q400 1516 420.5 1564.0Q441 1612 477.0 1648.0Q513 1684 561.0 1704.5Q609 1725 664 1725H2148Z" style="fill:#321b41;stroke:none" transform="scale(1,-1) translate(0,-256)" /></svg>