<?xml version="1.0" encoding="utf-8" ?>
<svg baseProfile="full" height="256" version="1.1" width="256" xmlns="http://www.w3.org/2000/svg" xmlns:ev="http://www.w3.org/2001/xml-events" xmlns:xlink="http://www.w3.org/1999/xlink"><defs /><path d="M1027 1581H1313Q1335 1581 1347.5 1566.0Q1360 1551 1360 1530Q1360 1512 1344.0 1500.0Q1328 1488 1311 1488H985Q962 1488 947.5 1471.5Q933 1455 933 1432Q933 1407 948.5 1390.5Q964 1374 990 1374H1175Q1195 1374 1208.5 1361.0Q1222 1348 1222 1328Q1222 1308 1207.5 1294.0Q1193 1280 1173 1280H898Q875 1280 857.5 1263.5Q840 1247 840 1223Q840 1192 857.0 1180.0Q874 1168 899.5 1165.5Q925 1163 955.0 1165.0Q985 1167 1010.5 1166.0Q1036 1165 1053.0 1155.0Q1070 1145 1070 1119Q1070 1092 1053.0 1082.0Q1036 1072 1010.5 1070.5Q985 1069 955.0 1071.0Q925 1073 899.5 1070.5Q874 1068 857.0 1056.5Q840 1045 840 1015V835Q840 816 827.0 802.5Q814 789 794 789Q774 789 760.0 803.5Q746 818 746 838V1301Q746 1359 768.0 1410.0Q790 1461 828.5 1499.0Q867 1537 918.0 1559.0Q969 1581 1027 1581ZM1175 861H1320Q1342 861 1354.5 846.0Q1367 831 1367 810Q1367 792 1351.0 780.0Q1335 768 1318 768H1134Q1111 768 1096.5 751.5Q1082 735 1082 712Q1082 683 1096.0 670.5Q1110 658 1131.5 655.0Q1153 652 1177.5 653.5Q1202 655 1223.5 653.5Q1245 652 1259.0 642.5Q1273 633 1273 608Q1273 579 1252.0 568.5Q1231 558 1199.5 557.5Q1168 557 1131.0 560.0Q1094 563 1062.5 561.5Q1031 560 1010.0 547.5Q989 535 989 503Q989 473 1005.0 460.5Q1021 448 1045.5 445.5Q1070 443 1098.5 445.0Q1127 447 1151.5 445.5Q1176 444 1192.0 434.0Q1208 424 1208 398Q1208 372 1192.0 362.5Q1176 353 1151.5 351.0Q1127 349 1098.5 351.0Q1070 353 1045.5 350.5Q1021 348 1005.0 336.0Q989 324 989 295V115Q989 97 976.0 82.5Q963 68 944 68Q924 68 909.5 82.0Q895 96 895 117V581Q895 639 917.0 690.0Q939 741 977.0 779.0Q1015 817 1066.0 839.0Q1117 861 1175 861Z" style="fill:#fcd53f;stroke:none" transform="scale(1,-1) translate(0,-256)" /></svg>