<?xml version="1.0" encoding="utf-8" ?>
<svg baseProfile="full" height="256" version="1.1" width="256" xmlns="http://www.w3.org/2000/svg" xmlns:ev="http://www.w3.org/2001/xml-events" xmlns:xlink="http://www.w3.org/1999/xlink"><defs /><path d="M1730 791Q1648 791 1576.0 822.0Q1504 853 1450.0 907.0Q1396 961 1365.0 1033.0Q1334 1105 1334 1187Q1334 1269 1365.0 1341.0Q1396 1413 1450.0 1467.0Q1504 1521 1576.0 1552.5Q1648 1584 1730 1584Q1812 1584 1884.5 1553.0Q1957 1522 2011.0 1468.0Q2065 1414 2096.0 1341.5Q2127 1269 2127 1187Q2127 1105 2096.0 1033.0Q2065 961 2011.0 907.0Q1957 853 1884.5 822.0Q1812 791 1730 791Z" style="fill:#ffdea7;stroke:none" transform="scale(1,-1) translate(0,-256)" /></svg>