<?xml version="1.0" encoding="utf-8" ?>
<svg baseProfile="full" height="256" version="1.1" width="256" xmlns="http://www.w3.org/2000/svg" xmlns:ev="http://www.w3.org/2001/xml-events" xmlns:xlink="http://www.w3.org/1999/xlink"><defs /><path d="M844 798 1163 479Q1196 446 1196 400Q1196 377 1187.0 356.5Q1178 336 1162.5 321.0Q1147 306 1126.5 297.0Q1106 288 1083 288Q1037 288 1004 321L685 640ZM1165 1119 1484 800Q1500 784 1508.0 763.5Q1516 743 1516 720Q1516 697 1507.5 676.5Q1499 656 1484.0 641.0Q1469 626 1448.5 617.0Q1428 608 1404 608Q1358 608 1325 641L1006 960ZM1485 1440 1804 1121Q1837 1088 1837 1041Q1837 1018 1828.0 997.5Q1819 977 1804.0 962.0Q1789 947 1768.5 938.0Q1748 929 1725 929Q1679 929 1646 962L1327 1281Z" style="fill:#fff3d7;stroke:none" transform="scale(1,-1) translate(0,-256)" /></svg>