<?xml version="1.0" encoding="utf-8" ?>
<svg baseProfile="full" height="256" version="1.1" width="256" xmlns="http://www.w3.org/2000/svg" xmlns:ev="http://www.w3.org/2001/xml-events" xmlns:xlink="http://www.w3.org/1999/xlink"><defs /><path d="M1483 1438Q1550 1507 1634.0 1544.5Q1718 1582 1815 1582Q1909 1582 1992.0 1546.0Q2075 1510 2136.5 1448.5Q2198 1387 2233.5 1304.5Q2269 1222 2269 1128Q2269 1037 2234.5 954.0Q2200 871 2136 807L1317 -11Q1253 -75 1170.5 -109.5Q1088 -144 997 -144Q903 -144 820.0 -108.5Q737 -73 675.5 -11.5Q614 50 578.5 133.0Q543 216 543 310Q543 407 580.5 490.5Q618 574 687 641L831 647L836 791L1011 965L1154 971L1160 1114L1334 1288H1483V1438Z" style="fill:#f3ad61;stroke:none" transform="scale(1,-1) translate(0,-256)" /></svg>