<?xml version="1.0" encoding="utf-8" ?>
<svg baseProfile="full" height="256" version="1.1" width="256" xmlns="http://www.w3.org/2000/svg" xmlns:ev="http://www.w3.org/2001/xml-events" xmlns:xlink="http://www.w3.org/1999/xlink"><defs /><path d="M533 -256Q512 -277 482 -277Q452 -277 431.0 -256.0Q410 -235 410 -205Q410 -175 431 -154L957 372Q936 415 936 465Q936 510 953.0 549.0Q970 588 999.5 617.5Q1029 647 1068.0 664.0Q1107 681 1152 681Q1196 681 1235.5 664.0Q1275 647 1304.5 617.5Q1334 588 1351.0 548.5Q1368 509 1368 465Q1368 420 1351.0 381.0Q1334 342 1304.5 312.5Q1275 283 1236.0 266.0Q1197 249 1152 249Q1102 249 1059 270Z" style="fill:#635994;stroke:none" transform="scale(1,-1) translate(0,-256)" /></svg>