<?xml version="1.0" encoding="utf-8" ?>
<svg baseProfile="full" height="256" version="1.1" width="256" xmlns="http://www.w3.org/2000/svg" xmlns:ev="http://www.w3.org/2001/xml-events" xmlns:xlink="http://www.w3.org/1999/xlink"><defs /><path d="M1016 1475Q1045 1475 1066.5 1453.5Q1088 1432 1088 1403V1211Q1088 1202 1097 1202H1221Q1250 1202 1271.0 1180.5Q1292 1159 1292 1130Q1292 1072 1281.5 1022.0Q1271 972 1250.5 926.5Q1230 881 1200.5 839.5Q1171 798 1132 756Q1131 754 1130.0 752.5Q1129 751 1129 749Q1129 746 1148.0 730.0Q1167 714 1191.0 696.0Q1215 678 1236.5 662.0Q1258 646 1264 642Q1293 619 1293 584Q1293 555 1271.5 533.5Q1250 512 1220 512Q1195 512 1177 527L1102 585Q1101 585 1099.5 586.0Q1098 587 1097 587Q1088 587 1088 578V107Q1088 78 1066.5 56.5Q1045 35 1016 35Q986 35 965.0 56.0Q944 77 944 107V574Q944 583 935 583Q926 583 912.0 569.0Q898 555 880.5 538.0Q863 521 842.0 507.0Q821 493 799 493Q769 493 748.5 514.0Q728 535 728 565Q728 598 753 620Q820 677 886.0 733.0Q952 789 1018 847Q1058 882 1086.5 924.5Q1115 967 1131 1018Q1132 1022 1135.5 1034.0Q1139 1046 1139 1048Q1139 1058 1131 1058H811Q781 1058 760.0 1079.0Q739 1100 739 1130Q739 1160 760.0 1181.0Q781 1202 811 1202H935Q944 1202 944 1211V1403Q944 1433 965.0 1454.0Q986 1475 1016 1475ZM1909 1294Q1939 1294 1960.0 1273.0Q1981 1252 1981 1222V890Q1981 860 1960.0 839.0Q1939 818 1909 818Q1904 818 1892.5 819.0Q1881 820 1868.5 819.5Q1856 819 1846.5 817.0Q1837 815 1837 809V299Q1837 290 1846 290H1972Q1978 290 1980.0 298.5Q1982 307 1982.5 318.5Q1983 330 1982.0 340.5Q1981 351 1981 355Q1981 384 2002.5 405.5Q2024 427 2053 427Q2082 427 2103.5 405.5Q2125 384 2125 355V282Q2125 253 2113.5 228.0Q2102 203 2083.0 185.0Q2064 167 2038.5 156.5Q2013 146 1985 146H1833Q1805 146 1779.5 156.5Q1754 167 1735.0 185.0Q1716 203 1704.5 228.0Q1693 253 1693 282V809Q1693 818 1684 818Q1679 818 1670.0 819.0Q1661 820 1652.0 819.5Q1643 819 1635.5 817.0Q1628 815 1628 809Q1626 789 1626.0 768.5Q1626 748 1624 728Q1617 650 1601.5 574.0Q1586 498 1558 425Q1520 324 1459.0 230.5Q1398 137 1326 57Q1304 32 1271 32Q1241 32 1220.0 53.0Q1199 74 1199 103Q1199 129 1217 150Q1279 226 1334.0 305.0Q1389 384 1424 477Q1453 555 1468.5 640.5Q1484 726 1484 809Q1484 815 1478.0 817.0Q1472 819 1464.5 819.0Q1457 819 1449.5 818.5Q1442 818 1439 818Q1409 818 1388.0 839.0Q1367 860 1367 890V1222Q1367 1252 1388.0 1273.0Q1409 1294 1439 1294ZM1828 962Q1837 962 1837 971V1141Q1837 1150 1828 1150H1520Q1511 1150 1511 1141V971Q1511 962 1520 962Z" style="fill:#ffffff;stroke:none" transform="scale(1,-1) translate(0,-256)" /></svg>