<?xml version="1.0" encoding="utf-8" ?>
<svg baseProfile="full" height="256" version="1.1" width="256" xmlns="http://www.w3.org/2000/svg" xmlns:ev="http://www.w3.org/2001/xml-events" xmlns:xlink="http://www.w3.org/1999/xlink"><defs /><path d="M1586 144H1226Q1204 144 1184.5 152.5Q1165 161 1150.0 176.0Q1135 191 1126.5 210.5Q1118 230 1118 252Q1118 274 1126.5 293.5Q1135 313 1150.0 328.0Q1165 343 1184.5 351.5Q1204 360 1226 360H1586Q1608 360 1627.5 351.5Q1647 343 1661.5 328.0Q1676 313 1684.5 293.5Q1693 274 1693 252Q1693 230 1684.5 210.5Q1676 191 1662.0 176.0Q1648 161 1628.0 152.5Q1608 144 1586 144Z" style="fill:#636363;stroke:none" transform="scale(1,-1) translate(0,-256)" /></svg>