<?xml version="1.0" encoding="utf-8" ?>
<svg baseProfile="full" height="256" version="1.1" width="256" xmlns="http://www.w3.org/2000/svg" xmlns:ev="http://www.w3.org/2001/xml-events" xmlns:xlink="http://www.w3.org/1999/xlink"><defs /><path d="M2052 648Q2097 648 2136.5 632.5Q2176 617 2205.5 589.0Q2235 561 2252.0 522.0Q2269 483 2269 437V360L2200 252L2269 144V98Q2269 78 2261.0 60.5Q2253 43 2239.5 29.5Q2226 16 2208.5 8.0Q2191 0 2171 0H641Q600 0 571.5 28.5Q543 57 543 98V145L587 252L543 360V437Q543 482 560.0 521.0Q577 560 606.5 588.0Q636 616 675.0 632.0Q714 648 759 648L876 768Q877 771 877 778Q877 813 869.0 847.0Q861 881 861 916Q861 921 861.5 926.0Q862 931 864 935Q883 968 911.5 994.5Q940 1021 974.5 1039.5Q1009 1058 1046.5 1068.0Q1084 1078 1122 1078H1689Q1724 1078 1762.5 1068.0Q1801 1058 1836.5 1039.0Q1872 1020 1901.5 994.0Q1931 968 1948 935Q1951 929 1951.5 920.5Q1952 912 1952 905Q1952 875 1949.0 845.5Q1946 816 1946 787Q1946 782 1946.0 776.5Q1946 771 1948 766Z" style="fill:#fcd53f;stroke:none" transform="scale(1,-1) translate(0,-256)" /></svg>