<?xml version="1.0" encoding="utf-8" ?>
<svg baseProfile="full" height="256" version="1.1" width="256" xmlns="http://www.w3.org/2000/svg" xmlns:ev="http://www.w3.org/2001/xml-events" xmlns:xlink="http://www.w3.org/1999/xlink"><defs /><path d="M1729 144Q1729 162 1718.5 170.0Q1708 178 1692.0 180.0Q1676 182 1657.5 180.5Q1639 179 1623.0 178.5Q1607 178 1596.5 182.0Q1586 186 1586 198V1006Q1586 1023 1575.5 1031.5Q1565 1040 1550 1042L1334 1078H1550Q1579 1078 1600.5 1056.5Q1622 1035 1622 1006V216Q1643 216 1668.0 216.5Q1693 217 1714.5 211.0Q1736 205 1750.5 190.0Q1765 175 1765 144V-287H1729Z" style="fill:#83cbff;stroke:none" transform="scale(1,-1) translate(0,-256)" /></svg>