<?xml version="1.0" encoding="utf-8" ?>
<svg baseProfile="full" height="256" version="1.1" width="256" xmlns="http://www.w3.org/2000/svg" xmlns:ev="http://www.w3.org/2001/xml-events" xmlns:xlink="http://www.w3.org/1999/xlink"><defs /><path d="M1352 1366Q1314 1366 1288.0 1392.0Q1262 1418 1262 1456Q1262 1493 1288.5 1519.5Q1315 1546 1352 1546Q1389 1546 1416 1519Q1430 1548 1456.0 1564.5Q1482 1581 1514 1581Q1536 1581 1555.5 1572.5Q1575 1564 1590.0 1549.5Q1605 1535 1613.5 1515.5Q1622 1496 1622 1474Q1622 1453 1614.0 1433.5Q1606 1414 1592.5 1399.0Q1579 1384 1560.0 1375.0Q1541 1366 1520 1366ZM1624 935Q1621 938 1620 938Q1557 956 1517.5 1000.5Q1478 1045 1478 1114Q1478 1151 1492.0 1184.0Q1506 1217 1530.5 1241.5Q1555 1266 1587.5 1280.0Q1620 1294 1658 1294Q1684 1294 1705.0 1285.5Q1726 1277 1746 1277Q1776 1277 1795 1304Q1803 1315 1809.5 1326.5Q1816 1338 1825 1349Q1861 1391 1911.0 1414.5Q1961 1438 2017 1438Q2069 1438 2115.0 1418.0Q2161 1398 2195.0 1364.0Q2229 1330 2248.5 1284.0Q2268 1238 2268 1186Q2268 1135 2248.5 1089.5Q2229 1044 2195.5 1009.5Q2162 975 2117.0 955.0Q2072 935 2021 935Z" style="fill:#f3eef8;stroke:none" transform="scale(1,-1) translate(0,-256)" /></svg>