<?xml version="1.0" encoding="utf-8" ?>
<svg baseProfile="full" height="256" version="1.1" width="256" xmlns="http://www.w3.org/2000/svg" xmlns:ev="http://www.w3.org/2001/xml-events" xmlns:xlink="http://www.w3.org/1999/xlink"><defs /><path d="M2302 719Q2302 595 2270.0 480.5Q2238 366 2179.5 266.5Q2121 167 2039.5 85.5Q1958 4 1858.5 -54.5Q1759 -113 1644.5 -145.0Q1530 -177 1406 -177Q1282 -177 1167.5 -145.0Q1053 -113 953.5 -54.5Q854 4 772.5 85.5Q691 167 632.5 266.5Q574 366 542.0 480.5Q510 595 510 719Q510 843 542.0 957.5Q574 1072 632.5 1171.5Q691 1271 772.5 1352.5Q854 1434 953.5 1492.5Q1053 1551 1167.5 1583.0Q1282 1615 1406 1615Q1530 1615 1644.5 1583.0Q1759 1551 1858.5 1492.5Q1958 1434 2039.5 1352.5Q2121 1271 2179.5 1171.5Q2238 1072 2270.0 957.5Q2302 843 2302 719Z" style="fill:#e6e6e6;stroke:none" transform="scale(1,-1) translate(0,-256)" /></svg>