<?xml version="1.0" encoding="utf-8" ?>
<svg baseProfile="full" height="256" version="1.1" width="256" xmlns="http://www.w3.org/2000/svg" xmlns:ev="http://www.w3.org/2001/xml-events" xmlns:xlink="http://www.w3.org/1999/xlink"><defs /><path d="M834 949Q834 984 859.0 1009.0Q884 1034 919 1034Q937 1034 952.5 1027.5Q968 1021 979.5 1009.5Q991 998 998.0 982.5Q1005 967 1005 949Q1005 944 1004.5 939.5Q1004 935 1003 930Q995 927 988 927H836Q834 932 834.0 938.0Q834 944 834 949ZM1393 949Q1393 937 1390 927H1238Q1230 927 1224 930Q1223 935 1222.5 939.5Q1222 944 1222 949Q1222 967 1229.0 982.5Q1236 998 1247.5 1009.5Q1259 1021 1274.5 1027.5Q1290 1034 1308 1034Q1343 1034 1368.0 1009.0Q1393 984 1393 949Z" style="fill:#7d4533;stroke:none" transform="scale(1,-1) translate(0,-256)" /></svg>