<?xml version="1.0" encoding="utf-8" ?>
<svg baseProfile="full" height="256" version="1.1" width="256" xmlns="http://www.w3.org/2000/svg" xmlns:ev="http://www.w3.org/2001/xml-events" xmlns:xlink="http://www.w3.org/1999/xlink"><defs /><path d="M1111 643Q1131 643 1146.0 645.0Q1161 647 1174.5 651.0Q1188 655 1202.0 660.5Q1216 666 1234 672Q1235 672 1236.5 672.5Q1238 673 1239 673Q1245 673 1249.5 668.0Q1254 663 1254 657Q1254 652 1251 649Q1224 614 1190.5 592.5Q1157 571 1111 571Q1087 571 1067.5 577.5Q1048 584 1031.5 595.5Q1015 607 1000.5 622.0Q986 637 972 655Q969 658 969 663Q969 668 973.0 672.5Q977 677 982 677Q984 677 996.5 671.5Q1009 666 1027.5 660.0Q1046 654 1068.0 648.5Q1090 643 1111 643Z" style="fill:#990839;stroke:none" transform="scale(1,-1) translate(0,-256)" /></svg>