<?xml version="1.0" encoding="utf-8" ?>
<svg baseProfile="full" height="256" version="1.1" width="256" xmlns="http://www.w3.org/2000/svg" xmlns:ev="http://www.w3.org/2001/xml-events" xmlns:xlink="http://www.w3.org/1999/xlink"><defs /><path d="M1033 799Q1033 809 1039.0 833.0Q1045 857 1053.0 883.5Q1061 910 1069.0 935.0Q1077 960 1080 972Q1083 983 1092.0 990.5Q1101 998 1113 998Q1125 998 1134.0 990.5Q1143 983 1146 972Q1149 960 1157.0 935.0Q1165 910 1173.0 883.0Q1181 856 1187.0 832.5Q1193 809 1193 799Q1193 779 1180.0 764.0Q1167 749 1147 749H1080Q1060 749 1046.5 764.0Q1033 779 1033 799Z" style="fill:#ed9200;stroke:none" transform="scale(1,-1) translate(0,-256)" /></svg>