<?xml version="1.0" encoding="utf-8" ?>
<svg baseProfile="full" height="256" version="1.1" width="256" xmlns="http://www.w3.org/2000/svg" xmlns:ev="http://www.w3.org/2001/xml-events" xmlns:xlink="http://www.w3.org/1999/xlink"><defs /><path d="M2003 824 1998 827Q1998 829 1999.0 831.0Q2000 833 2002 833L2341 887Q2342 884 2342 878ZM2378 790Q2376 788 2374.5 786.0Q2373 784 2371 782Q2366 803 2356.0 818.5Q2346 834 2321 834L2313 833L2039 792L2034 796Q2034 801 2038 801L2312 842Q2314 842 2316.5 842.5Q2319 843 2321 843Q2331 843 2341.5 838.5Q2352 834 2360.0 827.0Q2368 820 2373.5 810.0Q2379 800 2378 790ZM2320 735 2314 734V727L2309 738Q2310 747 2305.5 754.5Q2301 762 2293.5 768.0Q2286 774 2277.0 777.5Q2268 781 2261 781Q2247 781 2224.5 778.0Q2202 775 2177.5 771.0Q2153 767 2129.5 762.5Q2106 758 2091 756Q2090 756 2088.0 757.5Q2086 759 2086 760Q2086 765 2089 765Q2105 767 2128.5 771.5Q2152 776 2177.0 780.0Q2202 784 2224.5 787.0Q2247 790 2261 790Q2289 790 2300.5 773.5Q2312 757 2320 735Z" style="fill:#d67d00;stroke:none" transform="scale(1,-1) translate(0,-256)" /></svg>