<?xml version="1.0" encoding="utf-8" ?>
<svg baseProfile="full" height="256" version="1.1" width="256" xmlns="http://www.w3.org/2000/svg" xmlns:ev="http://www.w3.org/2001/xml-events" xmlns:xlink="http://www.w3.org/1999/xlink"><defs /><path d="M1914 969Q1937 969 1952.0 953.5Q1967 938 1967 915Q1967 894 1955.5 881.5Q1944 869 1930 856Q2021 869 2110.0 882.0Q2199 895 2290 909Q2295 910 2304 910Q2319 910 2330.5 902.5Q2342 895 2342 878Q2362 876 2377.0 861.0Q2392 846 2392 825Q2392 812 2386.0 801.0Q2380 790 2370 782Q2368 756 2352.0 747.0Q2336 738 2314 734Q2315 712 2302.0 697.5Q2289 683 2268 679Q2246 675 2214.5 672.0Q2183 669 2150.0 665.5Q2117 662 2087.0 656.5Q2057 651 2039 642H1753V749Q1753 775 1762.0 805.5Q1771 836 1789 856L1876 953Q1883 961 1893.5 965.0Q1904 969 1914 969Z" style="fill:#ffc83d;stroke:none" transform="scale(1,-1) translate(0,-256)" /></svg>