<?xml version="1.0" encoding="utf-8" ?>
<svg baseProfile="full" height="256" version="1.1" width="256" xmlns="http://www.w3.org/2000/svg" xmlns:ev="http://www.w3.org/2001/xml-events" xmlns:xlink="http://www.w3.org/1999/xlink"><defs /><path d="M868 947Q868 969 883.5 984.5Q899 1000 921 1000Q943 1000 959.0 985.0Q975 970 975 947Q975 942 974.0 938.0Q973 934 971 929H871Q868 938 868 947ZM1359 946Q1359 935 1355 927H1256Q1252 935 1252 946Q1252 968 1267.0 984.0Q1282 1000 1305 1000Q1328 1000 1343.5 984.5Q1359 969 1359 946Z" style="fill:#000000;stroke:none" transform="scale(1,-1) translate(0,-256)" /></svg>