<?xml version="1.0" encoding="utf-8" ?>
<svg baseProfile="full" height="256" version="1.1" width="256" xmlns="http://www.w3.org/2000/svg" xmlns:ev="http://www.w3.org/2001/xml-events" xmlns:xlink="http://www.w3.org/1999/xlink"><defs /><path d="M1682 1318Q1682 1285 1672.5 1256.0Q1663 1227 1645 1199Q1634 1182 1629.0 1167.0Q1624 1152 1622.0 1136.5Q1620 1121 1620.5 1104.0Q1621 1087 1621 1068Q1595 1087 1564 1091Q1566 1114 1567.5 1136.5Q1569 1159 1569 1182Q1569 1206 1559.0 1229.0Q1549 1252 1532.0 1270.0Q1515 1288 1493.0 1298.5Q1471 1309 1446 1309H1322Q1256 1309 1205.0 1344.0Q1154 1379 1126 1437Q1118 1454 1105.0 1464.0Q1092 1474 1072 1474H959Q897 1474 843.0 1450.5Q789 1427 749.0 1386.0Q709 1345 686.0 1290.5Q663 1236 663 1175V1092Q646 1090 631.0 1083.5Q616 1077 602 1068Q602 1088 602.5 1104.5Q603 1121 601.0 1136.0Q599 1151 594.0 1166.5Q589 1182 578 1199Q560 1228 550.5 1256.0Q541 1284 541 1318Q541 1387 579.0 1439.5Q617 1492 680 1516Q721 1531 750.0 1554.5Q779 1578 803 1614Q833 1660 877.5 1686.0Q922 1712 978 1712Q996 1712 1012.5 1707.5Q1029 1703 1045.5 1698.0Q1062 1693 1078.5 1688.5Q1095 1684 1112 1684Q1129 1684 1145.5 1688.5Q1162 1693 1178.5 1698.0Q1195 1703 1211.5 1707.5Q1228 1712 1246 1712Q1302 1712 1347.5 1685.0Q1393 1658 1422 1611Q1445 1575 1474.0 1552.5Q1503 1530 1542 1516Q1605 1493 1643.5 1439.5Q1682 1386 1682 1318Z" style="fill:#d37034;stroke:none" transform="scale(1,-1) translate(0,-256)" /></svg>