<?xml version="1.0" encoding="utf-8" ?>
<svg baseProfile="full" height="256" version="1.1" width="256" xmlns="http://www.w3.org/2000/svg" xmlns:ev="http://www.w3.org/2001/xml-events" xmlns:xlink="http://www.w3.org/1999/xlink"><defs /><path d="M601 844Q635 819 681 817Q683 786 684.0 756.0Q685 726 688.5 697.0Q692 668 699.0 639.5Q706 611 719 583Q665 605 633.0 654.0Q601 703 601 761ZM1623 844Q1587 819 1542 817Q1540 786 1539.0 756.0Q1538 726 1534.5 697.0Q1531 668 1524.0 639.5Q1517 611 1504 583Q1558 605 1590.5 654.0Q1623 703 1623 761Z" style="fill:#d37034;stroke:none" transform="scale(1,-1) translate(0,-256)" /></svg>