<?xml version="1.0" encoding="utf-8" ?>
<svg baseProfile="full" height="256" version="1.1" width="256" xmlns="http://www.w3.org/2000/svg" xmlns:ev="http://www.w3.org/2001/xml-events" xmlns:xlink="http://www.w3.org/1999/xlink"><defs /><path d="M807 927Q793 927 781.0 936.0Q769 945 769 959Q769 965 772 971Q787 1009 821.5 1032.5Q856 1056 898 1056Q939 1056 974.0 1032.5Q1009 1009 1024 971Q1025 968 1025.5 965.5Q1026 963 1026 960Q1026 945 1014.0 936.0Q1002 927 988 927ZM1238 927Q1224 927 1212.5 936.0Q1201 945 1201 960Q1201 963 1201.5 965.5Q1202 968 1203 971Q1210 990 1223.0 1005.5Q1236 1021 1253.0 1032.5Q1270 1044 1289.5 1050.0Q1309 1056 1329 1056Q1349 1056 1368.5 1050.0Q1388 1044 1405.0 1032.5Q1422 1021 1435.0 1005.5Q1448 990 1455 971Q1456 968 1456.5 965.5Q1457 963 1457 960Q1457 945 1445.5 936.0Q1434 927 1420 927Z" style="fill:#ffffff;stroke:none" transform="scale(1,-1) translate(0,-256)" /></svg>