<?xml version="1.0" encoding="utf-8" ?>
<svg baseProfile="full" height="256" version="1.1" width="256" xmlns="http://www.w3.org/2000/svg" xmlns:ev="http://www.w3.org/2001/xml-events" xmlns:xlink="http://www.w3.org/1999/xlink"><defs /><path d="M980 1153Q980 1143 973.5 1136.5Q967 1130 957 1130Q937 1130 917.5 1127.0Q898 1124 879 1117Q873 1115 863.5 1109.5Q854 1104 844.0 1098.0Q834 1092 825.5 1087.5Q817 1083 814 1083Q805 1083 798.0 1089.5Q791 1096 791 1106Q791 1124 812.0 1137.0Q833 1150 860.5 1159.0Q888 1168 915.5 1172.5Q943 1177 957 1177Q967 1177 973.5 1170.0Q980 1163 980 1153ZM1254 1153Q1254 1163 1261.0 1170.0Q1268 1177 1278 1177Q1291 1177 1318.5 1172.5Q1346 1168 1374.0 1159.0Q1402 1150 1423.0 1136.5Q1444 1123 1444 1106Q1444 1097 1437.0 1090.0Q1430 1083 1420 1083Q1417 1083 1409.0 1087.5Q1401 1092 1391.0 1098.0Q1381 1104 1371.5 1109.5Q1362 1115 1356 1117Q1337 1124 1317.5 1127.0Q1298 1130 1278 1130Q1268 1130 1261.0 1136.5Q1254 1143 1254 1153Z" style="fill:#d37034;stroke:none" transform="scale(1,-1) translate(0,-256)" /></svg>