<?xml version="1.0" encoding="utf-8" ?>
<svg baseProfile="full" height="256" version="1.1" width="256" xmlns="http://www.w3.org/2000/svg" xmlns:ev="http://www.w3.org/2001/xml-events" xmlns:xlink="http://www.w3.org/1999/xlink"><defs /><path d="M826 952Q826 922 815.0 896.0Q804 870 784.5 850.5Q765 831 739.5 820.0Q714 809 684 809Q654 809 628.0 820.0Q602 831 582.5 850.5Q563 870 552.0 896.0Q541 922 541 952Q541 982 552.5 1007.5Q564 1033 583.5 1052.5Q603 1072 629.0 1083.0Q655 1094 684 1094Q713 1094 739.0 1083.0Q765 1072 784.5 1052.5Q804 1033 815.0 1007.0Q826 981 826 952ZM1682 952Q1682 922 1671.0 896.0Q1660 870 1640.5 850.5Q1621 831 1595.0 820.0Q1569 809 1539 809Q1509 809 1483.5 820.5Q1458 832 1438.5 851.5Q1419 871 1408.0 897.0Q1397 923 1397 952Q1397 981 1408.0 1007.0Q1419 1033 1438.5 1052.5Q1458 1072 1484.0 1083.0Q1510 1094 1539 1094Q1568 1094 1594.0 1083.0Q1620 1072 1639.5 1052.5Q1659 1033 1670.5 1007.5Q1682 982 1682 952Z" style="fill:#fdbb11;stroke:none" transform="scale(1,-1) translate(0,-256)" /></svg>