<?xml version="1.0" encoding="utf-8" ?>
<svg baseProfile="full" height="256" version="1.1" width="256" xmlns="http://www.w3.org/2000/svg" xmlns:ev="http://www.w3.org/2001/xml-events" xmlns:xlink="http://www.w3.org/1999/xlink"><defs /><path d="M1210 1605Q1285 1605 1351.5 1576.0Q1418 1547 1467.5 1497.5Q1517 1448 1546.0 1381.5Q1575 1315 1575 1240Q1575 1227 1574.0 1215.0Q1573 1203 1572 1191Q1564 1063 1556.0 936.5Q1548 810 1540 682Q1538 659 1530.5 634.0Q1523 609 1514 589Q1493 541 1460.5 502.5Q1428 464 1386.5 437.0Q1345 410 1296.5 395.0Q1248 380 1196 380H1028Q976 380 927.5 395.0Q879 410 837.5 437.0Q796 464 763.5 502.5Q731 541 710 589Q701 610 693.5 634.5Q686 659 684 682Q675 810 667.0 936.5Q659 1063 651 1191Q650 1203 649.0 1214.5Q648 1226 648 1238Q648 1315 676.0 1382.0Q704 1449 753.0 1498.5Q802 1548 868.5 1576.5Q935 1605 1013 1605H1210Z" style="fill:#ffc83d;stroke:none" transform="scale(1,-1) translate(0,-256)" /></svg>