<?xml version="1.0" encoding="utf-8" ?>
<svg baseProfile="full" height="256" version="1.1" width="256" xmlns="http://www.w3.org/2000/svg" xmlns:ev="http://www.w3.org/2001/xml-events" xmlns:xlink="http://www.w3.org/1999/xlink"><defs /><path d="M1896 657Q1928 657 1967.0 651.5Q2006 646 2039 642Q2056 640 2056 624V571Q2042 569 2020.0 565.5Q1998 562 1974.5 558.0Q1951 554 1929.5 551.5Q1908 549 1896 549Q1884 549 1862.5 551.5Q1841 554 1817.5 558.0Q1794 562 1772.0 565.5Q1750 569 1736 571V624Q1736 640 1753 642Q1786 646 1825.0 651.5Q1864 657 1896 657Z" style="fill:#ff6723;stroke:none" transform="scale(1,-1) translate(0,-256)" /></svg>