<?xml version="1.0" encoding="utf-8" ?>
<svg baseProfile="full" height="256" version="1.1" width="256" xmlns="http://www.w3.org/2000/svg" xmlns:ev="http://www.w3.org/2001/xml-events" xmlns:xlink="http://www.w3.org/1999/xlink"><defs /><path d="M1467 946Q1467 952 1472.0 963.0Q1477 974 1483.5 986.5Q1490 999 1496.5 1010.0Q1503 1021 1506 1027Q1510 1036 1521 1036Q1537 1036 1539 1021Q1541 1001 1545.0 980.0Q1549 959 1549 940Q1549 930 1542.0 923.5Q1535 917 1526 917Q1518 917 1508.0 917.5Q1498 918 1489.0 921.0Q1480 924 1473.5 929.5Q1467 935 1467 946Z" style="fill:#ed9200;stroke:none" transform="scale(1,-1) translate(0,-256)" /></svg>