<?xml version="1.0" encoding="utf-8" ?>
<svg baseProfile="full" height="256" version="1.1" width="256" xmlns="http://www.w3.org/2000/svg" xmlns:ev="http://www.w3.org/2001/xml-events" xmlns:xlink="http://www.w3.org/1999/xlink"><defs /><path d="M735 1471Q766 1520 814.0 1549.0Q862 1578 922 1578Q953 1578 985 1569Q990 1559 993.5 1549.0Q997 1539 1001 1528Q970 1543 934 1546Q954 1504 964.5 1458.5Q975 1413 975 1366Q975 1342 972 1318Q952 1284 923 1258Q944 1309 944 1366Q944 1413 931.5 1458.0Q919 1503 899 1545Q882 1543 865.5 1537.5Q849 1532 835 1524Q855 1489 866.5 1449.5Q878 1410 878 1368Q878 1323 863.5 1278.0Q849 1233 821 1198Q807 1194 793.5 1192.0Q780 1190 766 1188Q804 1220 825.0 1268.5Q846 1317 846 1367Q846 1403 835.5 1438.0Q825 1473 808 1505Q794 1494 782.0 1480.5Q770 1467 761 1452Q773 1411 773 1369Q773 1257 685 1193Q674 1195 664.0 1198.0Q654 1201 644 1205Q661 1213 674.5 1224.0Q688 1235 701 1249Q650 1257 599.5 1274.0Q549 1291 507 1323Q498 1340 491.0 1357.0Q484 1374 479 1392Q484 1392 489 1385Q507 1360 535.0 1341.5Q563 1323 594.5 1310.5Q626 1298 659.0 1290.0Q692 1282 721 1279Q737 1313 740 1346Q655 1348 585.0 1386.0Q515 1424 475 1501Q478 1515 481.5 1527.5Q485 1540 490 1553Q497 1518 521.0 1485.0Q545 1452 572 1431Q609 1403 653.0 1391.0Q697 1379 742 1377Q740 1393 738.0 1408.5Q736 1424 732 1439Q693 1441 659.5 1456.5Q626 1472 600.0 1496.5Q574 1521 556.0 1553.5Q538 1586 529 1622Q535 1630 541.0 1637.0Q547 1644 555 1650Q561 1615 574 1587Q604 1632 645.5 1666.5Q687 1701 736 1725Q756 1725 774.5 1723.0Q793 1721 812 1715Q741 1701 685.0 1658.5Q629 1616 591 1556Q610 1526 636 1507Q656 1542 684.5 1571.0Q713 1600 747.5 1622.0Q782 1644 820.5 1657.0Q859 1670 900 1673Q910 1666 918.5 1658.0Q927 1650 936 1642Q895 1645 855.0 1634.5Q815 1624 779.0 1603.5Q743 1583 713.0 1553.5Q683 1524 663 1490Q680 1482 698.5 1476.5Q717 1471 735 1471Z" style="fill:#fff478;stroke:none" transform="scale(1,-1) translate(0,-256)" /></svg>