<?xml version="1.0" encoding="utf-8" ?>
<svg baseProfile="full" height="256" version="1.1" width="256" xmlns="http://www.w3.org/2000/svg" xmlns:ev="http://www.w3.org/2001/xml-events" xmlns:xlink="http://www.w3.org/1999/xlink"><defs /><path d="M400 572Q440 571 470.5 559.0Q501 547 526.0 529.5Q551 512 573.0 492.0Q595 472 618.0 454.5Q641 437 667.5 425.5Q694 414 728 414Q762 414 788.5 426.0Q815 438 838.5 455.5Q862 473 884.0 493.5Q906 514 932.0 531.5Q958 549 990.0 561.0Q1022 573 1064 573Q1119 573 1157.0 553.5Q1195 534 1228.0 510.0Q1261 486 1294.0 466.5Q1327 447 1372 447Q1417 447 1450.5 466.5Q1484 486 1517.0 510.0Q1550 534 1588.0 553.5Q1626 573 1681 573Q1723 573 1754.5 561.0Q1786 549 1812.0 531.5Q1838 514 1860.5 493.5Q1883 473 1906.0 455.5Q1929 438 1955.5 426.0Q1982 414 2017 414Q2051 414 2077.5 425.5Q2104 437 2127.5 455.0Q2151 473 2173.5 493.0Q2196 513 2222.0 531.0Q2248 549 2279.5 560.5Q2311 572 2353 572Q2382 572 2414 564V-138H400Z" style="fill:#26c9fc;stroke:none" transform="scale(1,-1) translate(0,-256)" /></svg>