<?xml version="1.0" encoding="utf-8" ?>
<svg baseProfile="full" height="256" version="1.1" width="256" xmlns="http://www.w3.org/2000/svg" xmlns:ev="http://www.w3.org/2001/xml-events" xmlns:xlink="http://www.w3.org/1999/xlink"><defs /><path d="M1802 717Q1782 637 1762.0 558.5Q1742 480 1721 400Q1697 308 1672.5 217.5Q1648 127 1624 35Q1620 20 1608.0 11.0Q1596 2 1581 2H1016Q1002 2 991.5 12.0Q981 22 981 37Q981 39 988.0 68.0Q995 97 1007.0 143.0Q1019 189 1035.0 249.0Q1051 309 1068.0 373.0Q1085 437 1102.0 501.5Q1119 566 1134.0 622.0Q1149 678 1160.0 721.0Q1171 764 1177 785L1298 770Q1296 758 1294.5 746.5Q1293 735 1293 723Q1293 685 1308.0 651.0Q1323 617 1348.5 591.5Q1374 566 1408.0 551.5Q1442 537 1481 537Q1515 537 1545.5 548.5Q1576 560 1600.5 581.0Q1625 602 1641.5 630.5Q1658 659 1664 692L1671 731Q1703 728 1736.5 726.0Q1770 724 1802 717Z" style="fill:#ff6723;stroke:none" transform="scale(1,-1) translate(0,-256)" /></svg>