<?xml version="1.0" encoding="utf-8" ?>
<svg baseProfile="full" height="256" version="1.1" width="256" xmlns="http://www.w3.org/2000/svg" xmlns:ev="http://www.w3.org/2001/xml-events" xmlns:xlink="http://www.w3.org/1999/xlink"><defs /><path d="M1763 1108Q1763 1086 1758.5 1062.0Q1754 1038 1749 1017Q1739 974 1729.0 931.5Q1719 889 1708 846Q1702 819 1685.0 797.0Q1668 775 1645.5 759.0Q1623 743 1596.5 734.0Q1570 725 1544 725Q1527 725 1512 728L1430 742Q1399 747 1372.5 763.0Q1346 779 1327.0 802.0Q1308 825 1297.5 853.5Q1287 882 1287 914Q1287 932 1289.5 955.5Q1292 979 1295.0 1003.5Q1298 1028 1301.5 1052.0Q1305 1076 1307 1095V1094Q1312 1120 1316.5 1147.5Q1321 1175 1331.5 1197.5Q1342 1220 1361.5 1234.5Q1381 1249 1416 1249Q1421 1249 1425.0 1249.0Q1429 1249 1433 1248L1683 1203Q1718 1197 1740.5 1170.5Q1763 1144 1763 1108Z" style="fill:#ffc83d;stroke:none" transform="scale(1,-1) translate(0,-256)" /></svg>