<?xml version="1.0" encoding="utf-8" ?>
<svg baseProfile="full" height="256" version="1.1" width="256" xmlns="http://www.w3.org/2000/svg" xmlns:ev="http://www.w3.org/2001/xml-events" xmlns:xlink="http://www.w3.org/1999/xlink"><defs /><path d="M1412 1092Q1437 1092 1455.5 1074.0Q1474 1056 1474 1030Q1474 1027 1471.5 1023.5Q1469 1020 1465 1020Q1442 1020 1414.5 1026.5Q1387 1033 1364 1037Q1353 1039 1353 1050Q1353 1059 1359.5 1066.5Q1366 1074 1375.0 1079.5Q1384 1085 1394.0 1088.5Q1404 1092 1412 1092ZM1686 996Q1686 1020 1666.0 1037.0Q1646 1054 1623 1054Q1615 1054 1605.0 1050.5Q1595 1047 1586.0 1041.5Q1577 1036 1570.5 1028.0Q1564 1020 1564 1011Q1564 1003 1573 1001Q1594 997 1623.5 990.0Q1653 983 1674 983Q1679 983 1682.5 987.0Q1686 991 1686 996Z" style="fill:#ffffff;stroke:none" transform="scale(1,-1) translate(0,-256)" /></svg>