<?xml version="1.0" encoding="utf-8" ?>
<svg baseProfile="full" height="256" version="1.1" width="256" xmlns="http://www.w3.org/2000/svg" xmlns:ev="http://www.w3.org/2001/xml-events" xmlns:xlink="http://www.w3.org/1999/xlink"><defs /><path d="M1616 1130Q1622 1130 1636.0 1126.5Q1650 1123 1664.0 1117.0Q1678 1111 1688.5 1103.0Q1699 1095 1699 1087Q1699 1082 1695.0 1077.5Q1691 1073 1686 1073Q1685 1073 1678.5 1077.0Q1672 1081 1662.5 1086.5Q1653 1092 1640.5 1096.5Q1628 1101 1615 1103Q1610 1104 1606.5 1107.5Q1603 1111 1603 1116Q1603 1121 1606.5 1125.5Q1610 1130 1616 1130ZM1371 1139Q1371 1146 1378.0 1150.5Q1385 1155 1395.0 1157.5Q1405 1160 1415.0 1161.0Q1425 1162 1430 1162Q1434 1162 1441.5 1161.5Q1449 1161 1456.0 1159.0Q1463 1157 1468.5 1153.5Q1474 1150 1474 1144Q1474 1139 1470.0 1134.5Q1466 1130 1461 1130Q1453 1130 1444.5 1133.0Q1436 1136 1427 1136Q1419 1136 1409.0 1134.5Q1399 1133 1391 1128Q1389 1129 1387.5 1127.5Q1386 1126 1384 1126Q1371 1126 1371 1139Z" style="fill:#d37034;stroke:none" transform="scale(1,-1) translate(0,-256)" /></svg>