<?xml version="1.0" encoding="utf-8" ?>
<svg baseProfile="full" height="256" version="1.1" width="256" xmlns="http://www.w3.org/2000/svg" xmlns:ev="http://www.w3.org/2001/xml-events" xmlns:xlink="http://www.w3.org/1999/xlink"><defs /><path d="M1446 1039Q1446 1030 1440 1024L1401 1031Q1400 1034 1400 1039Q1400 1048 1406.5 1054.5Q1413 1061 1422 1061Q1431 1061 1438.5 1055.0Q1446 1049 1446 1039ZM1616 1027Q1607 1027 1600.0 1020.5Q1593 1014 1593 1005Q1593 999 1594 997L1634 990Q1638 998 1638 1003Q1638 1012 1632.0 1019.5Q1626 1027 1616 1027Z" style="fill:#000000;stroke:none" transform="scale(1,-1) translate(0,-256)" /></svg>