<?xml version="1.0" encoding="utf-8" ?>
<svg baseProfile="full" height="256" version="1.1" width="256" xmlns="http://www.w3.org/2000/svg" xmlns:ev="http://www.w3.org/2001/xml-events" xmlns:xlink="http://www.w3.org/1999/xlink"><defs /><path d="M1428 906Q1431 906 1433 904Q1471 876 1518 876Q1529 876 1540.5 879.0Q1552 882 1563 882Q1570 882 1570 875Q1570 869 1561.5 863.0Q1553 857 1542.0 852.5Q1531 848 1520.0 845.0Q1509 842 1504 842Q1479 842 1454.5 856.5Q1430 871 1422 896Q1422 897 1421.5 897.5Q1421 898 1421 899Q1421 906 1428 906Z" style="fill:#990839;stroke:none" transform="scale(1,-1) translate(0,-256)" /></svg>