<?xml version="1.0" encoding="utf-8" ?>
<svg baseProfile="full" height="256" version="1.1" width="256" xmlns="http://www.w3.org/2000/svg" xmlns:ev="http://www.w3.org/2001/xml-events" xmlns:xlink="http://www.w3.org/1999/xlink"><defs /><path d="M741 1186Q685 1186 636.0 1207.0Q587 1228 550.5 1265.0Q514 1302 493.0 1351.0Q472 1400 472 1456Q472 1512 493.0 1561.0Q514 1610 550.5 1646.5Q587 1683 636.0 1704.0Q685 1725 741 1725Q797 1725 846.0 1704.0Q895 1683 932.0 1646.5Q969 1610 990.0 1561.0Q1011 1512 1011 1456Q1011 1400 990.0 1351.0Q969 1302 932.0 1265.0Q895 1228 846.0 1207.0Q797 1186 741 1186Z" style="fill:#f9c23c;stroke:none" transform="scale(1,-1) translate(0,-256)" /></svg>