<?xml version="1.0" encoding="utf-8" ?>
<svg baseProfile="full" height="256" version="1.1" width="256" xmlns="http://www.w3.org/2000/svg" xmlns:ev="http://www.w3.org/2001/xml-events" xmlns:xlink="http://www.w3.org/1999/xlink"><defs /><path d="M1374 1011Q1374 979 1361.5 950.5Q1349 922 1328.0 901.0Q1307 880 1278.5 868.0Q1250 856 1218 856Q1186 856 1158.0 868.5Q1130 881 1109.0 902.0Q1088 923 1075.5 951.0Q1063 979 1063 1011Q1063 1043 1075.0 1071.5Q1087 1100 1108.0 1121.0Q1129 1142 1157.5 1154.5Q1186 1167 1218 1167Q1250 1167 1278.5 1154.5Q1307 1142 1328.0 1121.0Q1349 1100 1361.5 1071.5Q1374 1043 1374 1011ZM1795 884Q1795 852 1782.5 824.0Q1770 796 1749.0 775.0Q1728 754 1700.0 741.5Q1672 729 1640 729Q1608 729 1579.5 741.0Q1551 753 1530.0 774.0Q1509 795 1496.5 823.5Q1484 852 1484 884Q1484 916 1496.5 944.5Q1509 973 1530.0 994.0Q1551 1015 1579.5 1027.5Q1608 1040 1640 1040Q1672 1040 1700.5 1027.5Q1729 1015 1750.0 994.0Q1771 973 1783.0 944.5Q1795 916 1795 884Z" style="fill:#d3883e;stroke:none" transform="scale(1,-1) translate(0,-256)" /></svg>