<?xml version="1.0" encoding="utf-8" ?>
<svg baseProfile="full" height="256" version="1.1" width="256" xmlns="http://www.w3.org/2000/svg" xmlns:ev="http://www.w3.org/2001/xml-events" xmlns:xlink="http://www.w3.org/1999/xlink"><defs /><path d="M1292 791Q1294 791 1298 789Q1307 785 1321.0 782.5Q1335 780 1350.5 779.0Q1366 778 1381.0 777.5Q1396 777 1406 777Q1417 777 1431.5 777.5Q1446 778 1461.0 779.0Q1476 780 1490.0 782.5Q1504 785 1514 789Q1518 791 1520 791Q1532 791 1532 779Q1532 777 1530 773Q1511 743 1476.0 726.0Q1441 709 1406 709Q1371 709 1335.5 726.0Q1300 743 1282 773Q1280 777 1280 779Q1280 784 1283.5 787.5Q1287 791 1292 791Z" style="fill:#990838;stroke:none" transform="scale(1,-1) translate(0,-256)" /></svg>