<?xml version="1.0" encoding="utf-8" ?>
<svg baseProfile="full" height="256" version="1.1" width="256" xmlns="http://www.w3.org/2000/svg" xmlns:ev="http://www.w3.org/2001/xml-events" xmlns:xlink="http://www.w3.org/1999/xlink"><defs /><path d="M1485 1528Q1548 1528 1602.0 1504.0Q1656 1480 1696.5 1438.5Q1737 1397 1760.0 1342.0Q1783 1287 1783 1225Q1783 1215 1782.5 1206.0Q1782 1197 1781 1187Q1774 1082 1768.0 978.5Q1762 875 1755 770Q1753 751 1747.5 730.5Q1742 710 1734 693Q1717 654 1690.5 622.5Q1664 591 1630.0 568.5Q1596 546 1556.5 533.5Q1517 521 1475 521H1338Q1287 521 1238.5 540.5Q1190 560 1151.0 593.5Q1112 627 1087.0 672.5Q1062 718 1058 770Q1050 875 1044.0 978.5Q1038 1082 1031 1187Q1030 1197 1029.5 1206.5Q1029 1216 1029 1226Q1029 1289 1051.5 1344.0Q1074 1399 1113.5 1440.0Q1153 1481 1207.0 1504.5Q1261 1528 1325 1528H1485Z" style="fill:#26c9fc;stroke:none" transform="scale(1,-1) translate(0,-256)" /></svg>