<?xml version="1.0" encoding="utf-8" ?>
<svg baseProfile="full" height="256" version="1.1" width="256" xmlns="http://www.w3.org/2000/svg" xmlns:ev="http://www.w3.org/2001/xml-events" xmlns:xlink="http://www.w3.org/1999/xlink"><defs /><path d="M1047 935Q1050 925 1056.0 903.0Q1062 881 1068.0 857.0Q1074 833 1078.5 812.5Q1083 792 1083 784Q1083 765 1080.5 747.0Q1078 729 1078 710Q1078 703 1079.0 696.0Q1080 689 1083 683Q1060 692 1043.5 707.5Q1027 723 1015.5 743.5Q1004 764 998.5 787.0Q993 810 993 833V935Q1000 929 1010 929Q1019 929 1028.0 932.0Q1037 935 1047 935ZM1693 683Q1706 702 1714.5 732.5Q1723 763 1728.5 796.0Q1734 829 1736.5 860.0Q1739 891 1741 911Q1761 913 1781.5 918.5Q1802 924 1819 935V865Q1819 835 1813.0 802.5Q1807 770 1793.0 743.5Q1779 717 1754.5 700.0Q1730 683 1693 683Z" style="fill:#321b41;stroke:none" transform="scale(1,-1) translate(0,-256)" /></svg>