<?xml version="1.0" encoding="utf-8" ?>
<svg baseProfile="full" height="256" version="1.1" width="256" xmlns="http://www.w3.org/2000/svg" xmlns:ev="http://www.w3.org/2001/xml-events" xmlns:xlink="http://www.w3.org/1999/xlink"><defs /><path d="M1406 1330Q1383 1330 1363.5 1338.5Q1344 1347 1329.5 1361.5Q1315 1376 1306.5 1395.5Q1298 1415 1298 1438Q1298 1460 1306.5 1479.5Q1315 1499 1330.0 1514.0Q1345 1529 1364.5 1537.5Q1384 1546 1406 1546Q1428 1546 1447.5 1537.5Q1467 1529 1482.0 1514.0Q1497 1499 1505.5 1479.5Q1514 1460 1514 1438Q1514 1416 1505.5 1396.5Q1497 1377 1482.0 1362.0Q1467 1347 1447.5 1338.5Q1428 1330 1406 1330Z" style="fill:#fcd53f;stroke:none" transform="scale(1,-1) translate(0,-256)" /></svg>