<?xml version="1.0" encoding="utf-8" ?>
<svg baseProfile="full" height="256" version="1.1" width="256" xmlns="http://www.w3.org/2000/svg" xmlns:ev="http://www.w3.org/2001/xml-events" xmlns:xlink="http://www.w3.org/1999/xlink"><defs /><path d="M1250 1039Q1265 1039 1275.5 1028.0Q1286 1017 1286 1002Q1286 992 1282 985H1217Q1213 995 1213 1002Q1213 1017 1224.0 1028.0Q1235 1039 1250 1039ZM1565 1039Q1550 1039 1539.0 1028.0Q1528 1017 1528 1002Q1528 992 1532 985H1597Q1601 992 1601 1002Q1601 1017 1590.5 1028.0Q1580 1039 1565 1039Z" style="fill:#000000;stroke:none" transform="scale(1,-1) translate(0,-256)" /></svg>