<?xml version="1.0" encoding="utf-8" ?>
<svg baseProfile="full" height="256" version="1.1" width="256" xmlns="http://www.w3.org/2000/svg" xmlns:ev="http://www.w3.org/2001/xml-events" xmlns:xlink="http://www.w3.org/1999/xlink"><defs /><path d="M957 1412Q957 1454 973.0 1491.5Q989 1529 1016.5 1556.5Q1044 1584 1081.0 1600.5Q1118 1617 1160 1617H1651Q1693 1617 1730.0 1600.5Q1767 1584 1794.5 1556.5Q1822 1529 1838.0 1491.5Q1854 1454 1854 1412Q1854 1404 1854.0 1396.0Q1854 1388 1852 1380L1823 1192Q1819 1169 1804.5 1153.0Q1790 1137 1767 1132Q1768 1140 1768.0 1149.0Q1768 1158 1768 1166Q1768 1189 1760.5 1209.5Q1753 1230 1739.5 1245.5Q1726 1261 1706.5 1270.0Q1687 1279 1663 1279H1148Q1113 1279 1084.0 1256.5Q1055 1234 1047 1200Q1043 1183 1043.5 1166.0Q1044 1149 1044 1132Q1022 1139 1007.0 1153.5Q992 1168 988 1192L959 1380Q957 1388 957.0 1396.0Q957 1404 957 1412Z" style="fill:#f92f60;stroke:none" transform="scale(1,-1) translate(0,-256)" /></svg>