<?xml version="1.0" encoding="utf-8" ?>
<svg baseProfile="full" height="256" version="1.1" width="256" xmlns="http://www.w3.org/2000/svg" xmlns:ev="http://www.w3.org/2001/xml-events" xmlns:xlink="http://www.w3.org/1999/xlink"><defs /><path d="M1235 1086Q1250 1086 1267.5 1079.5Q1285 1073 1299.5 1061.5Q1314 1050 1324.0 1035.0Q1334 1020 1334 1004Q1334 985 1317 985H1157Q1149 985 1142.5 991.0Q1136 997 1136 1005Q1136 1021 1146.0 1036.0Q1156 1051 1170.5 1062.0Q1185 1073 1202.5 1079.5Q1220 1086 1235 1086ZM1579 1086Q1549 1086 1524.0 1069.0Q1499 1052 1487 1024Q1485 1022 1482.5 1014.5Q1480 1007 1480 1004Q1480 985 1497 985H1657Q1665 985 1671.5 991.0Q1678 997 1678 1005Q1678 1021 1668.0 1036.0Q1658 1051 1643.5 1062.0Q1629 1073 1611.5 1079.5Q1594 1086 1579 1086Z" style="fill:#ffffff;stroke:none" transform="scale(1,-1) translate(0,-256)" /></svg>