<?xml version="1.0" encoding="utf-8" ?>
<svg baseProfile="full" height="256" version="1.1" width="256" xmlns="http://www.w3.org/2000/svg" xmlns:ev="http://www.w3.org/2001/xml-events" xmlns:xlink="http://www.w3.org/1999/xlink"><defs /><path d="M1172 997Q1172 973 1163.0 952.0Q1154 931 1138.0 915.0Q1122 899 1101.0 890.0Q1080 881 1056 881Q1032 881 1010.5 890.0Q989 899 973.5 914.5Q958 930 948.5 951.5Q939 973 939 997Q939 1021 948.0 1042.5Q957 1064 973.0 1080.0Q989 1096 1010.5 1105.0Q1032 1114 1056 1114Q1080 1114 1101.5 1104.5Q1123 1095 1138.5 1079.5Q1154 1064 1163.0 1042.5Q1172 1021 1172 997ZM1873 997Q1873 973 1863.5 951.5Q1854 930 1838.5 914.5Q1823 899 1801.5 890.0Q1780 881 1756 881Q1732 881 1711.0 890.0Q1690 899 1674.0 915.0Q1658 931 1649.0 952.0Q1640 973 1640 997Q1640 1021 1649.0 1042.5Q1658 1064 1673.5 1079.5Q1689 1095 1710.5 1104.5Q1732 1114 1756 1114Q1780 1114 1801.5 1105.0Q1823 1096 1839.0 1080.0Q1855 1064 1864.0 1042.5Q1873 1021 1873 997Z" style="fill:#26c9fc;stroke:none" transform="scale(1,-1) translate(0,-256)" /></svg>