<?xml version="1.0" encoding="utf-8" ?>
<svg baseProfile="full" height="256" version="1.1" width="256" xmlns="http://www.w3.org/2000/svg" xmlns:ev="http://www.w3.org/2001/xml-events" xmlns:xlink="http://www.w3.org/1999/xlink"><defs /><path d="M1406 647Q1472 647 1536.5 635.0Q1601 623 1664 604Q1673 602 1683.5 599.5Q1694 597 1702 592Q1717 584 1730.0 565.0Q1743 546 1755.0 526.5Q1767 507 1780.0 492.0Q1793 477 1809 477Q1827 477 1843.0 488.0Q1859 499 1876 499Q1881 499 1885.0 497.0Q1889 495 1893 493Q1962 446 2018.0 385.0Q2074 324 2113.5 252.5Q2153 181 2175.0 101.0Q2197 21 2197 -63V-287H1902L1765 -215L1629 -287H1183L1048 -215L910 -287H615V-63Q615 20 636.0 99.0Q657 178 696.0 249.0Q735 320 790.0 381.0Q845 442 913 489Q920 494 927 494Q935 494 942.5 490.0Q950 486 957.5 481.5Q965 477 973.0 473.0Q981 469 990 469Q1003 469 1018.0 485.5Q1033 502 1048.0 523.0Q1063 544 1079.0 564.5Q1095 585 1112 593Q1134 604 1174.0 613.5Q1214 623 1257.5 630.5Q1301 638 1341.5 642.5Q1382 647 1406 647Z" style="fill:#46a4fb;stroke:none" transform="scale(1,-1) translate(0,-256)" /></svg>