<?xml version="1.0" encoding="utf-8" ?>
<svg baseProfile="full" height="256" version="1.1" width="256" xmlns="http://www.w3.org/2000/svg" xmlns:ev="http://www.w3.org/2001/xml-events" xmlns:xlink="http://www.w3.org/1999/xlink"><defs /><path d="M1334 869Q1334 877 1339.5 896.0Q1345 915 1352.0 936.0Q1359 957 1366.0 976.5Q1373 996 1376 1006Q1379 1016 1387.0 1021.5Q1395 1027 1405 1027Q1416 1027 1424.0 1021.5Q1432 1016 1435 1006Q1438 997 1445.0 977.0Q1452 957 1459.5 935.5Q1467 914 1472.5 895.5Q1478 877 1478 870Q1478 853 1465.5 841.0Q1453 829 1436 829H1376Q1359 829 1346.5 840.5Q1334 852 1334 869Z" style="fill:#00a6ed;stroke:none" transform="scale(1,-1) translate(0,-256)" /></svg>