<?xml version="1.0" encoding="utf-8" ?>
<svg baseProfile="full" height="256" version="1.1" width="256" xmlns="http://www.w3.org/2000/svg" xmlns:ev="http://www.w3.org/2001/xml-events" xmlns:xlink="http://www.w3.org/1999/xlink"><defs /><path d="M1186 1002Q1186 1028 1205.0 1047.0Q1224 1066 1250 1066Q1276 1066 1295.0 1047.0Q1314 1028 1314 1002Q1314 997 1313.5 993.5Q1313 990 1312 985H1188Q1186 990 1186.0 993.5Q1186 997 1186 1002ZM1629 1002Q1629 1028 1610.0 1047.0Q1591 1066 1565 1066Q1538 1066 1519.5 1047.5Q1501 1029 1501 1002Q1501 997 1501.0 993.5Q1501 990 1503 985H1626Q1629 992 1629 1002Z" style="fill:#7d4533;stroke:none" transform="scale(1,-1) translate(0,-256)" /></svg>