<?xml version="1.0" encoding="utf-8" ?>
<svg baseProfile="full" height="256" version="1.1" width="256" xmlns="http://www.w3.org/2000/svg" xmlns:ev="http://www.w3.org/2001/xml-events" xmlns:xlink="http://www.w3.org/1999/xlink"><defs /><path d="M1510 1587Q1520 1587 1524.5 1579.5Q1529 1572 1529 1563Q1529 1561 1526.5 1550.5Q1524 1540 1523 1537Q1512 1497 1492.0 1465.0Q1472 1433 1437 1409Q1386 1374 1324.0 1364.5Q1262 1355 1202 1355Q1172 1355 1139.0 1350.0Q1106 1345 1075.5 1333.5Q1045 1322 1019.5 1302.5Q994 1283 979 1253L971 1306Q1007 1347 1052.5 1364.5Q1098 1382 1146.5 1388.5Q1195 1395 1243.5 1396.0Q1292 1397 1335.5 1406.0Q1379 1415 1415.0 1438.0Q1451 1461 1473 1510Q1444 1494 1412.0 1487.0Q1380 1480 1348 1480Q1315 1480 1281.5 1485.0Q1248 1490 1215.0 1495.5Q1182 1501 1148.5 1506.0Q1115 1511 1082 1511Q1053 1511 1023.5 1505.0Q994 1499 969 1483Q980 1515 999 1538Q1019 1544 1040.0 1546.5Q1061 1549 1082 1549Q1115 1549 1148.0 1544.0Q1181 1539 1214.0 1533.5Q1247 1528 1280.0 1523.0Q1313 1518 1346 1518Q1389 1518 1418.0 1529.0Q1447 1540 1465.5 1552.5Q1484 1565 1494.0 1576.0Q1504 1587 1510 1587ZM1830 1232Q1792 1290 1731.5 1324.0Q1671 1358 1602 1358Q1594 1358 1589.0 1363.5Q1584 1369 1584 1377Q1584 1385 1589.0 1390.0Q1594 1395 1602 1395Q1671 1395 1732.5 1366.0Q1794 1337 1838 1285ZM1613 1517Q1613 1525 1618.5 1530.0Q1624 1535 1632 1535Q1692 1535 1747.5 1515.5Q1803 1496 1850 1459Q1855 1434 1855 1413V1403Q1811 1448 1752.5 1473.0Q1694 1498 1631 1498Q1623 1498 1618.0 1503.5Q1613 1509 1613 1517Z" style="fill:#ca0b4a;stroke:none" transform="scale(1,-1) translate(0,-256)" /></svg>