<?xml version="1.0" encoding="utf-8" ?>
<svg baseProfile="full" height="256" version="1.1" width="256" xmlns="http://www.w3.org/2000/svg" xmlns:ev="http://www.w3.org/2001/xml-events" xmlns:xlink="http://www.w3.org/1999/xlink"><defs /><path d="M1533 1569Q1625 1569 1709.0 1543.5Q1793 1518 1865.0 1472.5Q1937 1427 1995.5 1364.0Q2054 1301 2095.0 1225.5Q2136 1150 2158.5 1064.5Q2181 979 2181 889Q2181 855 2178 822L2114 243Q2105 160 2075.5 85.0Q2046 10 1998.0 -52.5Q1950 -115 1884.5 -161.5Q1819 -208 1738 -233Q1655 -259 1569.5 -272.0Q1484 -285 1397 -285Q1310 -285 1224.0 -272.0Q1138 -259 1055 -233Q974 -208 908.5 -161.5Q843 -115 795.5 -52.5Q748 10 718.5 85.0Q689 160 680 243L616 822Q614 839 613.5 856.5Q613 874 613 892Q613 982 635.5 1067.0Q658 1152 699.5 1227.0Q741 1302 799.0 1365.0Q857 1428 929.0 1473.5Q1001 1519 1085.0 1544.0Q1169 1569 1261 1569H1533Z" style="fill:#ffc83d;stroke:none" transform="scale(1,-1) translate(0,-256)" /></svg>