<?xml version="1.0" encoding="utf-8" ?>
<svg baseProfile="full" height="256" version="1.1" width="256" xmlns="http://www.w3.org/2000/svg" xmlns:ev="http://www.w3.org/2001/xml-events" xmlns:xlink="http://www.w3.org/1999/xlink"><defs /><path d="M1007 495Q1007 484 998.5 475.5Q990 467 979 467Q968 467 959.5 475.5Q951 484 951 495Q951 506 959.5 514.5Q968 523 979 523Q990 523 998.5 514.5Q1007 506 1007 495ZM1675 495Q1675 484 1666.5 475.5Q1658 467 1647 467Q1636 467 1627.5 475.5Q1619 484 1619 495Q1619 506 1627.5 514.5Q1636 523 1647 523Q1658 523 1666.5 514.5Q1675 506 1675 495Z" style="fill:#ffffff;stroke:none" transform="scale(1,-1) translate(0,-256)" /></svg>