<?xml version="1.0" encoding="utf-8" ?>
<svg baseProfile="full" height="256" version="1.1" width="256" xmlns="http://www.w3.org/2000/svg" xmlns:ev="http://www.w3.org/2001/xml-events" xmlns:xlink="http://www.w3.org/1999/xlink"><defs /><path d="M1056 524Q1094 524 1120.0 498.0Q1146 472 1146 434Q1146 412 1135 392H976Q966 414 966 434Q966 472 992.0 498.0Q1018 524 1056 524ZM1696 524Q1658 524 1632.0 498.0Q1606 472 1606 434Q1606 412 1617 392H1776Q1786 411 1786 434Q1786 472 1760.0 498.0Q1734 524 1696 524Z" style="fill:#000000;stroke:none" transform="scale(1,-1) translate(0,-256)" /></svg>