<?xml version="1.0" encoding="utf-8" ?>
<svg baseProfile="full" height="256" version="1.1" width="256" xmlns="http://www.w3.org/2000/svg" xmlns:ev="http://www.w3.org/2001/xml-events" xmlns:xlink="http://www.w3.org/1999/xlink"><defs /><path d="M899 434Q899 466 911.5 494.5Q924 523 945.5 544.5Q967 566 995.5 578.5Q1024 591 1056 591Q1088 591 1117.0 578.5Q1146 566 1167.5 544.5Q1189 523 1201.5 494.5Q1214 466 1214 434Q1214 423 1212.0 413.0Q1210 403 1208 392H905Q899 413 899 434ZM1853 434Q1853 466 1840.5 494.5Q1828 523 1806.5 544.5Q1785 566 1756.5 578.5Q1728 591 1696 591Q1664 591 1635.5 578.5Q1607 566 1585.5 544.5Q1564 523 1551.5 494.5Q1539 466 1539 434Q1539 415 1544 392H1847Q1853 413 1853 434Z" style="fill:#7d4533;stroke:none" transform="scale(1,-1) translate(0,-256)" /></svg>