<?xml version="1.0" encoding="utf-8" ?>
<svg baseProfile="full" height="256" version="1.1" width="256" xmlns="http://www.w3.org/2000/svg" xmlns:ev="http://www.w3.org/2001/xml-events" xmlns:xlink="http://www.w3.org/1999/xlink"><defs /><path d="M1020 642Q1065 642 1104.5 627.0Q1144 612 1176.0 585.0Q1208 558 1230.0 521.0Q1252 484 1261 441Q1262 438 1262 433Q1262 416 1250.0 404.0Q1238 392 1221 392H829Q809 392 794.5 407.0Q780 422 780 442Q780 449 781 453Q791 494 813.5 529.0Q836 564 867.5 589.0Q899 614 938.0 628.0Q977 642 1020 642ZM1733 642Q1688 642 1648.0 627.0Q1608 612 1576.5 585.0Q1545 558 1523.0 521.0Q1501 484 1492 441Q1491 438 1491 433Q1491 416 1503.0 404.0Q1515 392 1532 392H1924Q1944 392 1958.5 406.5Q1973 421 1973 441Q1973 445 1971 453Q1960 494 1938.0 529.0Q1916 564 1884.5 589.0Q1853 614 1814.5 628.0Q1776 642 1733 642Z" style="fill:#ffffff;stroke:none" transform="scale(1,-1) translate(0,-256)" /></svg>