<?xml version="1.0" encoding="utf-8" ?>
<svg baseProfile="full" height="256" version="1.1" width="256" xmlns="http://www.w3.org/2000/svg" xmlns:ev="http://www.w3.org/2001/xml-events" xmlns:xlink="http://www.w3.org/1999/xlink"><defs /><path d="M1379 1711Q1442 1711 1497.5 1687.5Q1553 1664 1594.0 1622.5Q1635 1581 1659.0 1526.0Q1683 1471 1683 1408Q1683 1359 1668.0 1313.5Q1653 1268 1626.0 1230.5Q1599 1193 1561.0 1164.5Q1523 1136 1477 1120Q1469 1118 1464 1118Q1448 1118 1437.5 1129.5Q1427 1141 1427 1157Q1427 1166 1437.5 1181.5Q1448 1197 1461.0 1219.0Q1474 1241 1484.5 1270.0Q1495 1299 1495 1334Q1495 1382 1476.0 1425.0Q1457 1468 1425.0 1500.0Q1393 1532 1349.5 1550.5Q1306 1569 1258 1569Q1183 1569 1113 1553Q1154 1626 1224.0 1668.5Q1294 1711 1379 1711Z" style="fill:#ed9200;stroke:none" transform="scale(1,-1) translate(0,-256)" /></svg>