<?xml version="1.0" encoding="utf-8" ?>
<svg baseProfile="full" height="256" version="1.1" width="256" xmlns="http://www.w3.org/2000/svg" xmlns:ev="http://www.w3.org/2001/xml-events" xmlns:xlink="http://www.w3.org/1999/xlink"><defs /><path d="M951 446Q951 398 932.5 355.5Q914 313 882.5 281.5Q851 250 809.0 232.0Q767 214 719 214Q671 214 629.0 232.0Q587 250 555.5 281.5Q524 313 506.0 355.5Q488 398 488 446Q488 494 506.0 536.0Q524 578 555.5 609.5Q587 641 629.0 659.5Q671 678 719 678Q767 678 809.0 659.5Q851 641 882.5 609.5Q914 578 932.5 536.0Q951 494 951 446ZM2306 446Q2306 398 2287.5 355.5Q2269 313 2237.5 281.5Q2206 250 2164.0 232.0Q2122 214 2074 214Q2026 214 1983.5 232.0Q1941 250 1909.5 281.5Q1878 313 1860.0 355.5Q1842 398 1842 446Q1842 494 1860.0 536.0Q1878 578 1909.5 609.5Q1941 641 1983.5 659.5Q2026 678 2074 678Q2122 678 2164.0 659.5Q2206 641 2237.5 609.5Q2269 578 2287.5 536.0Q2306 494 2306 446Z" style="fill:#fdbb11;stroke:none" transform="scale(1,-1) translate(0,-256)" /></svg>