<?xml version="1.0" encoding="utf-8" ?>
<svg baseProfile="full" height="256" version="1.1" width="256" xmlns="http://www.w3.org/2000/svg" xmlns:ev="http://www.w3.org/2001/xml-events" xmlns:xlink="http://www.w3.org/1999/xlink"><defs /><path d="M615 1546Q615 1568 623.5 1587.5Q632 1607 647.0 1621.5Q662 1636 681.5 1644.5Q701 1653 723 1653H2089Q2111 1653 2130.5 1644.5Q2150 1636 2165.0 1621.5Q2180 1607 2188.5 1587.5Q2197 1568 2197 1546V-179Q2197 -201 2188.5 -220.5Q2180 -240 2165.0 -255.0Q2150 -270 2130.5 -278.5Q2111 -287 2089 -287H723Q701 -287 681.5 -278.5Q662 -270 647.0 -255.0Q632 -240 623.5 -220.5Q615 -201 615 -179Z" style="fill:#e19747;stroke:none" transform="scale(1,-1) translate(0,-256)" /></svg>