<?xml version="1.0" encoding="utf-8" ?>
<svg baseProfile="full" height="256" version="1.1" width="256" xmlns="http://www.w3.org/2000/svg" xmlns:ev="http://www.w3.org/2001/xml-events" xmlns:xlink="http://www.w3.org/1999/xlink"><defs /><path d="M2053 317Q2053 304 2046 287Q2045 286 2039.5 283.0Q2034 280 2028.0 277.0Q2022 274 2016.5 271.5Q2011 269 2011 269L1691 213L1645 -81Q1645 -81 1641.5 -89.5Q1638 -98 1634.0 -107.5Q1630 -117 1626.5 -126.0Q1623 -135 1622 -137Q1606 -144 1592 -144H831Q802 -144 780.5 -122.5Q759 -101 759 -72V1438Q759 1467 780.5 1488.5Q802 1510 831 1510H1981Q2010 1510 2031.5 1488.5Q2053 1467 2053 1438Z" style="fill:#f3eef8;stroke:none" transform="scale(1,-1) translate(0,-256)" /></svg>