<?xml version="1.0" encoding="utf-8" ?>
<svg baseProfile="full" height="256" version="1.1" width="256" xmlns="http://www.w3.org/2000/svg" xmlns:ev="http://www.w3.org/2001/xml-events" xmlns:xlink="http://www.w3.org/1999/xlink"><defs /><path d="M817 670Q817 695 815.5 728.0Q814 761 819.5 791.0Q825 821 843.0 842.0Q861 863 900 863Q935 863 959.0 838.5Q983 814 983 779V756H1149Q1149 741 1149.5 725.0Q1150 709 1155.0 695.5Q1160 682 1170.5 673.5Q1181 665 1202 665Q1225 665 1247.5 684.5Q1270 704 1299.5 728.0Q1329 752 1369.5 771.5Q1410 791 1469 791H1845Q1850 791 1856.0 791.0Q1862 791 1867 790Q1923 786 1975.5 777.0Q2028 768 2079 745Q2135 721 2183.0 681.0Q2231 641 2266.0 590.5Q2301 540 2320.5 481.0Q2340 422 2340 360V-99L2268 -86V-243Q2268 -261 2255.0 -274.0Q2242 -287 2224 -287H2051Q2040 -287 2029.5 -282.0Q2019 -277 2013 -267L1870 -43Q1857 -23 1837.0 -12.0Q1817 -1 1794 -1H1208Q1188 -1 1170.0 -9.5Q1152 -18 1139 -33L943 -264Q923 -287 891 -287H732Q723 -287 716.0 -281.0Q709 -275 709 -265Q709 -262 716.5 -246.0Q724 -230 735.0 -207.0Q746 -184 760.0 -157.0Q774 -130 786.0 -106.0Q798 -82 807.5 -63.5Q817 -45 820 -39Q831 -17 831 4Q831 30 817 53L650 329V401Q635 401 621.0 405.0Q607 409 607 429Q607 439 614 449Q640 484 669.0 516.5Q698 549 726 583Q747 608 769.0 620.5Q791 633 815.5 637.5Q840 642 866.5 641.5Q893 641 923 641V670H817Z" style="fill:#636363;stroke:none" transform="scale(1,-1) translate(0,-256)" /></svg>