<?xml version="1.0" encoding="utf-8" ?>
<svg baseProfile="full" height="256" version="1.1" width="256" xmlns="http://www.w3.org/2000/svg" xmlns:ev="http://www.w3.org/2001/xml-events" xmlns:xlink="http://www.w3.org/1999/xlink"><defs /><path d="M903 539Q903 524 892.5 513.5Q882 503 867 503Q852 503 841.5 513.5Q831 524 831 539Q831 554 841.5 564.5Q852 575 867 575Q882 575 892.5 564.5Q903 554 903 539ZM486 444Q486 426 473.5 413.5Q461 401 443 401Q425 401 412.5 413.5Q400 426 400 444Q400 461 413.0 474.0Q426 487 443 487Q460 487 473.0 474.0Q486 461 486 444Z" style="fill:#1c1c1c;stroke:none" transform="scale(1,-1) translate(0,-256)" /></svg>