<?xml version="1.0" encoding="utf-8" ?>
<svg baseProfile="full" height="256" version="1.1" width="256" xmlns="http://www.w3.org/2000/svg" xmlns:ev="http://www.w3.org/2001/xml-events" xmlns:xlink="http://www.w3.org/1999/xlink"><defs /><path d="M1997 1498Q1934 1489 1865.0 1468.5Q1796 1448 1731.0 1416.0Q1666 1384 1609.5 1341.0Q1553 1298 1515 1245Q1488 1207 1464.5 1159.0Q1441 1111 1441 1063Q1441 1048 1430.5 1037.5Q1420 1027 1405 1027Q1391 1027 1380.0 1038.0Q1369 1049 1369 1063Q1369 1115 1390.0 1166.5Q1411 1218 1439 1261Q1432 1261 1426.0 1260.5Q1420 1260 1413 1260Q1359 1260 1317.5 1274.0Q1276 1288 1239.5 1309.5Q1203 1331 1167.5 1357.5Q1132 1384 1089 1408Q1058 1426 1017.5 1440.0Q977 1454 933.5 1465.0Q890 1476 847.0 1484.0Q804 1492 768 1498Q830 1515 895.5 1526.5Q961 1538 1025 1538Q1048 1538 1072.0 1535.5Q1096 1533 1116 1523Q1147 1508 1183.0 1483.5Q1219 1459 1256.5 1435.5Q1294 1412 1331.0 1394.5Q1368 1377 1401 1377Q1434 1377 1466.5 1395.0Q1499 1413 1530.5 1437.0Q1562 1461 1593.0 1485.5Q1624 1510 1655 1523Q1674 1531 1695.0 1532.5Q1716 1534 1736 1534Q1802 1534 1868.0 1523.5Q1934 1513 1997 1498Z" style="fill:#d3d3d3;stroke:none" transform="scale(1,-1) translate(0,-256)" /></svg>