<?xml version="1.0" encoding="utf-8" ?>
<svg baseProfile="full" height="256" version="1.1" width="256" xmlns="http://www.w3.org/2000/svg" xmlns:ev="http://www.w3.org/2001/xml-events" xmlns:xlink="http://www.w3.org/1999/xlink"><defs /><path d="M1877 1654Q1988 1654 2085.5 1611.5Q2183 1569 2256.0 1496.0Q2329 1423 2371.0 1325.0Q2413 1227 2413 1116Q2413 963 2339.5 845.0Q2266 727 2138 649Q2095 623 2069.5 583.5Q2044 544 2040 493Q2038 464 2036.5 435.5Q2035 407 2033 378Q2029 310 2011.0 241.0Q1993 172 1962.5 107.0Q1932 42 1890.0 -15.5Q1848 -73 1796 -118Q1779 -132 1759.5 -140.5Q1740 -149 1718 -149Q1671 -149 1637.5 -118.5Q1604 -88 1599 -42L1566 303Q1563 331 1550.0 366.0Q1537 401 1515.5 431.5Q1494 462 1465.5 482.5Q1437 503 1405 503Q1372 503 1344.0 482.5Q1316 462 1295.0 431.5Q1274 401 1261.5 366.0Q1249 331 1246 303L1213 -42Q1211 -65 1200.5 -84.5Q1190 -104 1174.5 -118.0Q1159 -132 1138.5 -140.5Q1118 -149 1096 -149Q1052 -149 1016 -118Q963 -73 921.0 -15.5Q879 42 849.0 106.5Q819 171 801.0 240.5Q783 310 779 378Q777 407 775.5 435.5Q774 464 772 493Q768 544 743.5 583.5Q719 623 675 649Q546 727 473.0 846.0Q400 965 400 1118Q400 1229 442.5 1326.5Q485 1424 557.5 1496.5Q630 1569 728.0 1611.0Q826 1653 937 1653Q1022 1653 1097.5 1628.5Q1173 1604 1244 1556Q1282 1531 1321.5 1517.5Q1361 1504 1406 1504Q1451 1504 1490.5 1517.5Q1530 1531 1568 1556Q1639 1604 1715.0 1629.0Q1791 1654 1877 1654Z" style="fill:#f4f4f4;stroke:none" transform="scale(1,-1) translate(0,-256)" /></svg>