<?xml version="1.0" encoding="utf-8" ?>
<svg baseProfile="full" height="256" version="1.1" width="256" xmlns="http://www.w3.org/2000/svg" xmlns:ev="http://www.w3.org/2001/xml-events" xmlns:xlink="http://www.w3.org/1999/xlink"><defs /><path d="M903 1078Q921 1078 935 1071L1222 927Q1241 918 1251.5 901.0Q1262 884 1262 863Q1262 843 1251.5 825.0Q1241 807 1222 798L935 655Q919 647 902 647Q873 647 852.0 668.5Q831 690 831 719Q831 739 842.0 756.5Q853 774 871 783L1030 863L871 942Q853 951 842.0 968.5Q831 986 831 1006Q831 1036 852.0 1057.0Q873 1078 903 1078ZM1909 1078Q1939 1078 1960.0 1057.0Q1981 1036 1981 1006Q1981 986 1970.0 968.5Q1959 951 1941 942L1782 863L1941 783Q1959 774 1970.0 756.5Q1981 739 1981 719Q1981 690 1960.0 668.5Q1939 647 1909 647Q1893 647 1877 655L1589 798Q1571 807 1560.5 825.0Q1550 843 1550 863Q1550 883 1560.5 900.5Q1571 918 1589 927L1877 1071Q1891 1078 1909 1078Z" style="fill:#402a32;stroke:none" transform="scale(1,-1) translate(0,-256)" /></svg>