<?xml version="1.0" encoding="utf-8" ?>
<svg baseProfile="full" height="256" version="1.1" width="256" xmlns="http://www.w3.org/2000/svg" xmlns:ev="http://www.w3.org/2001/xml-events" xmlns:xlink="http://www.w3.org/1999/xlink"><defs /><path d="M1407 -215Q1322 -215 1259.0 -184.5Q1196 -154 1152.0 -102.5Q1108 -51 1082.5 17.5Q1057 86 1048 162Q1047 167 1047.0 171.0Q1047 175 1047 180Q1047 215 1063.5 236.5Q1080 258 1108 275Q1130 288 1170.0 296.0Q1210 304 1254.5 308.0Q1299 312 1340.5 313.5Q1382 315 1407 315Q1431 315 1473.0 313.5Q1515 312 1559.5 308.0Q1604 304 1644.5 296.0Q1685 288 1706 275Q1734 258 1750.5 236.0Q1767 214 1767 180Q1767 175 1767.0 171.0Q1767 167 1766 162Q1757 86 1731.5 17.5Q1706 -51 1662.0 -102.5Q1618 -154 1555.0 -184.5Q1492 -215 1407 -215Z" style="fill:#f70a8d;stroke:none" transform="scale(1,-1) translate(0,-256)" /></svg>