<?xml version="1.0" encoding="utf-8" ?>
<svg baseProfile="full" height="256" version="1.1" width="256" xmlns="http://www.w3.org/2000/svg" xmlns:ev="http://www.w3.org/2001/xml-events" xmlns:xlink="http://www.w3.org/1999/xlink"><defs /><path d="M867 1582Q876 1582 885.0 1577.0Q894 1572 898 1563L966 1408Q978 1380 1003.5 1366.5Q1029 1353 1054.5 1343.5Q1080 1334 1099.0 1324.0Q1118 1314 1118 1294Q1118 1274 1098.5 1264.0Q1079 1254 1053.5 1244.0Q1028 1234 1003.0 1220.5Q978 1207 966 1181L898 1025Q894 1016 885.5 1011.0Q877 1006 867 1006Q858 1006 849.0 1011.0Q840 1016 836 1025L768 1181Q756 1208 730.5 1221.5Q705 1235 679.5 1244.5Q654 1254 634.5 1264.0Q615 1274 615 1294Q615 1313 634.5 1323.5Q654 1334 680.0 1344.0Q706 1354 731.0 1368.0Q756 1382 768 1408L836 1563Q840 1572 848.5 1577.0Q857 1582 867 1582ZM1657 1581Q1686 1581 1712.5 1565.5Q1739 1550 1750 1523L1956 1037Q1976 989 2011.0 952.5Q2046 916 2094 895L2354 777Q2381 765 2396.5 738.5Q2412 712 2412 683Q2412 654 2396.5 627.5Q2381 601 2354 589L2094 471Q2047 450 2011.5 413.0Q1976 376 1956 329L1750 -157Q1739 -184 1712.5 -200.0Q1686 -216 1657 -216Q1629 -216 1602.5 -200.0Q1576 -184 1565 -157L1359 329Q1339 377 1304.0 413.5Q1269 450 1221 471L961 589Q934 601 918.5 627.5Q903 654 903 683Q903 712 918.5 738.5Q934 765 961 777L1221 895Q1268 916 1303.5 953.0Q1339 990 1359 1037L1565 1523Q1576 1550 1602.5 1565.5Q1629 1581 1657 1581ZM1047 252Q1047 234 1035.0 222.0Q1023 210 1004.5 200.5Q986 191 963.5 182.5Q941 174 919.0 162.5Q897 151 879.0 135.5Q861 120 851 96L763 -118Q758 -130 747.0 -137.0Q736 -144 723 -144Q711 -144 699.5 -136.5Q688 -129 683 -118L595 96Q585 120 566.5 136.0Q548 152 526.5 163.5Q505 175 482.0 183.5Q459 192 440.5 201.5Q422 211 410.5 222.5Q399 234 399 252Q399 270 410.5 282.0Q422 294 440.5 303.0Q459 312 482.0 320.5Q505 329 526.5 340.0Q548 351 566.5 367.5Q585 384 595 408L683 622Q688 633 699.5 640.0Q711 647 723 647Q736 647 747.0 640.5Q758 634 763 622L851 408Q861 384 879.0 368.0Q897 352 919.0 341.0Q941 330 963.5 321.0Q986 312 1004.5 303.0Q1023 294 1035.0 282.0Q1047 270 1047 252Z" style="fill:#f9c23c;stroke:none" transform="scale(1,-1) translate(0,-256)" /></svg>