<?xml version="1.0" encoding="utf-8" ?>
<svg baseProfile="full" height="256" version="1.1" width="256" xmlns="http://www.w3.org/2000/svg" xmlns:ev="http://www.w3.org/2001/xml-events" xmlns:xlink="http://www.w3.org/1999/xlink"><defs /><path d="M835 1072Q873 1014 922.0 965.5Q971 917 1029 879Q1069 964 1129.0 1044.0Q1189 1124 1256 1189Q1334 1264 1421.5 1322.5Q1509 1381 1604.5 1422.0Q1700 1463 1802.5 1488.0Q1905 1513 2012 1522Q2075 1474 2128 1420Q1980 1418 1839.5 1385.5Q1699 1353 1574.0 1288.0Q1449 1223 1344.0 1126.0Q1239 1029 1163 900Q1152 883 1143.5 865.0Q1135 847 1125 829Q1245 779 1373 773Q1422 863 1490.5 936.0Q1559 1009 1642.5 1061.0Q1726 1113 1821.0 1141.0Q1916 1169 2020 1169Q2100 1169 2178.5 1153.5Q2257 1138 2332 1112Q2346 1080 2357.5 1046.5Q2369 1013 2378 979Q2313 1007 2246.0 1027.5Q2179 1048 2109 1056Q2110 1054 2111.0 1052.0Q2112 1050 2113 1048Q2142 986 2164.5 921.5Q2187 857 2204 791Q2229 695 2241.0 597.0Q2253 499 2253 400Q2253 271 2232 144Q2165 50 2082 -26Q2113 79 2129.0 186.0Q2145 293 2145 402Q2145 481 2135.0 568.0Q2125 655 2105.0 741.0Q2085 827 2055.5 909.0Q2026 991 1986 1060Q1850 1054 1732 989Q1767 919 1794.5 850.5Q1822 782 1840.5 712.0Q1859 642 1869.0 568.5Q1879 495 1879 416Q1879 237 1827.5 70.0Q1776 -97 1682 -249Q1609 -270 1533 -279Q1588 -202 1632.0 -119.0Q1676 -36 1707.0 51.0Q1738 138 1754.5 230.0Q1771 322 1771 417Q1771 481 1763.0 548.0Q1755 615 1738.5 681.0Q1722 747 1698.0 809.5Q1674 872 1642 928Q1603 897 1569.5 860.5Q1536 824 1507 783Q1505 780 1498.5 770.5Q1492 761 1485.0 750.0Q1478 739 1472.0 729.5Q1466 720 1466 717Q1468 700 1478.0 677.0Q1488 654 1493 637Q1509 581 1516.5 523.0Q1524 465 1524 408Q1524 305 1498.5 211.5Q1473 118 1427.0 34.0Q1381 -50 1316.5 -124.0Q1252 -198 1174 -261Q1142 -253 1110.0 -243.0Q1078 -233 1047 -221Q1100 -183 1148.5 -140.5Q1197 -98 1239 -49Q1147 -40 1054.0 -15.5Q961 9 871.0 45.0Q781 81 695.0 125.5Q609 170 532 220Q481 308 449 408Q452 405 460.5 398.5Q469 392 478.5 385.0Q488 378 497.5 372.0Q507 366 511 363Q596 304 693.0 249.5Q790 195 893.0 152.5Q996 110 1102.5 83.5Q1209 57 1315 54Q1350 113 1373.5 176.5Q1397 240 1408 308Q1385 305 1363.0 304.0Q1341 303 1318 303Q1174 303 1044.0 349.5Q914 396 799.5 474.0Q685 552 587.0 654.0Q489 756 410 867Q422 940 443 1011Q515 899 607.5 791.0Q700 683 810.5 598.5Q921 514 1048.5 462.5Q1176 411 1319 411Q1344 411 1367.5 413.5Q1391 416 1416 418Q1415 477 1404.0 543.5Q1393 610 1370 665Q1218 673 1093.0 724.5Q968 776 872.0 864.0Q776 952 710.5 1072.5Q645 1193 614 1340Q635 1367 658.0 1392.0Q681 1417 705 1441Q715 1374 732.0 1309.0Q749 1244 776 1182Q891 1352 1043.5 1488.5Q1196 1625 1374 1725H1406Q1498 1725 1584 1709Q1471 1659 1364.0 1593.5Q1257 1528 1161.0 1447.5Q1065 1367 982.0 1272.5Q899 1178 835 1072Z" style="fill:#bebebe;stroke:none" transform="scale(1,-1) translate(0,-256)" /></svg>