<?xml version="1.0" encoding="utf-8" ?>
<svg baseProfile="full" height="256" version="1.1" width="256" xmlns="http://www.w3.org/2000/svg" xmlns:ev="http://www.w3.org/2001/xml-events" xmlns:xlink="http://www.w3.org/1999/xlink"><defs /><path d="M2410 656 2403 584Q2255 601 2118.5 651.0Q1982 701 1862.0 777.0Q1742 853 1641.0 954.0Q1540 1055 1464.0 1175.0Q1388 1295 1338.0 1431.5Q1288 1568 1271 1716L1343 1723Q1359 1583 1406.0 1454.5Q1453 1326 1525.0 1213.0Q1597 1100 1692.0 1005.0Q1787 910 1900.0 838.0Q2013 766 2141.5 719.5Q2270 673 2410 656ZM1469 -285Q1452 -146 1405.5 -17.0Q1359 112 1287.0 225.0Q1215 338 1120.0 433.0Q1025 528 912.0 600.0Q799 672 670.0 718.5Q541 765 402 782Q403 800 404.5 818.0Q406 836 409 854Q557 836 693.5 786.5Q830 737 950.0 661.0Q1070 585 1171.0 484.0Q1272 383 1348.0 263.0Q1424 143 1474.0 6.5Q1524 -130 1541 -278Q1523 -281 1505.0 -282.5Q1487 -284 1469 -285Z" style="fill:#636363;stroke:none" transform="scale(1,-1) translate(0,-256)" /></svg>