<?xml version="1.0" encoding="utf-8" ?>
<svg baseProfile="full" height="256" version="1.1" width="256" xmlns="http://www.w3.org/2000/svg" xmlns:ev="http://www.w3.org/2001/xml-events" xmlns:xlink="http://www.w3.org/1999/xlink"><defs /><path d="M1330 1647Q1338 1647 1356.5 1641.5Q1375 1636 1395.5 1629.5Q1416 1623 1435.0 1616.0Q1454 1609 1464 1606Q1475 1602 1482.5 1592.5Q1490 1583 1490 1572Q1490 1557 1479.0 1546.5Q1468 1536 1453 1536Q1444 1536 1429.0 1540.0Q1414 1544 1398.0 1550.0Q1382 1556 1367.0 1561.5Q1352 1567 1342 1570L1273 1489Q1262 1476 1246 1476Q1232 1476 1221.0 1487.0Q1210 1498 1210 1512Q1210 1525 1219 1536L1302 1634Q1313 1647 1330 1647ZM1437 1330Q1469 1330 1502.5 1326.5Q1536 1323 1568 1321Q1582 1320 1592.0 1310.0Q1602 1300 1602 1286Q1602 1270 1591.0 1260.0Q1580 1250 1566 1250Q1539 1250 1511.5 1252.5Q1484 1255 1458 1257L1411 1162Q1401 1142 1379 1142Q1365 1142 1354.0 1152.5Q1343 1163 1343 1177Q1343 1186 1351.0 1204.5Q1359 1223 1369.0 1243.5Q1379 1264 1389.0 1282.5Q1399 1301 1404 1310Q1414 1330 1437 1330ZM1753 1090Q1768 1090 1778.5 1079.0Q1789 1068 1789 1054Q1789 1041 1780.5 1031.0Q1772 1021 1760 1019L1656 998L1636 895Q1634 882 1623.5 874.0Q1613 866 1599 866Q1585 866 1574.5 877.0Q1564 888 1564 902Q1564 912 1567.5 930.0Q1571 948 1575.5 967.5Q1580 987 1584.5 1005.5Q1589 1024 1591 1036Q1596 1059 1619 1064Q1631 1066 1649.5 1070.5Q1668 1075 1687.5 1079.5Q1707 1084 1724.5 1087.0Q1742 1090 1753 1090ZM1872 794Q1872 817 1892 827Q1901 831 1919.5 841.0Q1938 851 1958.5 861.5Q1979 872 1997.5 880.0Q2016 888 2024 888Q2039 888 2049.5 877.0Q2060 866 2060 851Q2060 830 2040 820L1945 773Q1947 746 1949.5 718.5Q1952 691 1952 665Q1952 650 1941.0 639.5Q1930 629 1916 629Q1902 629 1891.5 639.0Q1881 649 1880 663Q1878 695 1875.0 728.5Q1872 762 1872 794ZM2193 652Q2193 667 2204 678L2297 768Q2309 778 2322 778Q2337 778 2347.5 767.5Q2358 757 2358 742Q2358 727 2347 716L2271 643Q2274 634 2281.0 618.5Q2288 603 2294.5 586.5Q2301 570 2306.0 554.5Q2311 539 2311 531Q2311 517 2300.5 506.0Q2290 495 2275 495Q2264 495 2255.0 501.5Q2246 508 2242 518Q2238 527 2230.0 546.0Q2222 565 2213.5 585.5Q2205 606 2199.0 624.5Q2193 643 2193 652Z" style="fill:#f8312f;stroke:none" transform="scale(1,-1) translate(0,-256)" /></svg>