<?xml version="1.0" encoding="utf-8" ?>
<svg baseProfile="full" height="256" version="1.1" width="256" xmlns="http://www.w3.org/2000/svg" xmlns:ev="http://www.w3.org/2001/xml-events" xmlns:xlink="http://www.w3.org/1999/xlink"><defs /><path d="M2412 303Q2412 181 2368.5 73.5Q2325 -34 2248.5 -114.0Q2172 -194 2066.5 -240.5Q1961 -287 1837 -287H975Q856 -287 751.0 -242.0Q646 -197 568.0 -119.0Q490 -41 445.0 64.0Q400 169 400 288Q400 429 436.5 553.5Q473 678 539.5 781.5Q606 885 699.0 967.0Q792 1049 903.5 1105.5Q1015 1162 1142.5 1192.0Q1270 1222 1406 1222Q1560 1222 1707.5 1182.5Q1855 1143 1981.5 1065.5Q2108 988 2205.5 873.5Q2303 759 2357 609Q2383 536 2397.5 458.5Q2412 381 2412 303Z" style="fill:#ff8687;stroke:none" transform="scale(1,-1) translate(0,-256)" /></svg>