<?xml version="1.0" encoding="utf-8" ?>
<svg baseProfile="full" height="256" version="1.1" width="256" xmlns="http://www.w3.org/2000/svg" xmlns:ev="http://www.w3.org/2001/xml-events" xmlns:xlink="http://www.w3.org/1999/xlink"><defs /><path d="M759 1438Q730 1438 708.5 1459.5Q687 1481 687 1510Q687 1539 708.5 1560.0Q730 1581 759 1581H2053Q2082 1581 2103.5 1560.0Q2125 1539 2125 1510Q2125 1481 2103.5 1459.5Q2082 1438 2053 1438ZM759 -287Q730 -287 708.5 -265.5Q687 -244 687 -215Q687 -186 708.5 -165.0Q730 -144 759 -144H2053Q2082 -144 2103.5 -165.0Q2125 -186 2125 -215Q2125 -244 2103.5 -265.5Q2082 -287 2053 -287ZM2053 863H759Q730 863 708.5 884.5Q687 906 687 935Q687 964 708.5 985.0Q730 1006 759 1006H2053Q2082 1006 2103.5 985.0Q2125 964 2125 935Q2125 906 2103.5 884.5Q2082 863 2053 863ZM759 288Q730 288 708.5 309.5Q687 331 687 360Q687 389 708.5 410.0Q730 431 759 431H2053Q2082 431 2103.5 410.0Q2125 389 2125 360Q2125 331 2103.5 309.5Q2082 288 2053 288Z" style="fill:#0074ba;stroke:none" transform="scale(1,-1) translate(0,-256)" /></svg>