<?xml version="1.0" encoding="utf-8" ?>
<svg baseProfile="full" height="256" version="1.1" width="256" xmlns="http://www.w3.org/2000/svg" xmlns:ev="http://www.w3.org/2001/xml-events" xmlns:xlink="http://www.w3.org/1999/xlink"><defs /><path d="M2154 1666Q2191 1666 2217 1640L2318 1540Q2344 1514 2344 1476Q2344 1453 2333.5 1433.0Q2323 1413 2304 1400L2184 1318Q2175 1312 2161 1312Q2153 1312 2144.5 1315.0Q2136 1318 2131 1323L2002 1451Q1990 1463 1990 1481Q1990 1494 1997 1504L2078 1625Q2091 1644 2111.0 1655.0Q2131 1666 2154 1666Z" style="fill:#8c5543;stroke:none" transform="scale(1,-1) translate(0,-256)" /></svg>