<?xml version="1.0" encoding="utf-8" ?>
<svg baseProfile="full" height="256" version="1.1" width="256" xmlns="http://www.w3.org/2000/svg" xmlns:ev="http://www.w3.org/2001/xml-events" xmlns:xlink="http://www.w3.org/1999/xlink"><defs /><path d="M1346 281Q1346 241 1361.5 215.0Q1377 189 1396.0 170.0Q1415 151 1430.5 135.5Q1446 120 1446 100Q1446 79 1431 64L1277 -90Q1239 -128 1203.5 -163.5Q1168 -199 1129.0 -226.5Q1090 -254 1045.0 -270.5Q1000 -287 942 -287Q877 -287 817.0 -262.5Q757 -238 711 -192L499 19Q452 66 426.0 127.0Q400 188 400 255Q400 310 416.5 355.0Q433 400 460.0 439.0Q487 478 521.5 513.5Q556 549 592 585L749 742Q764 757 785 757Q804 757 820.0 742.0Q836 727 855.5 709.5Q875 692 901.0 677.0Q927 662 965 662Q993 662 1018.5 672.5Q1044 683 1063.5 701.0Q1083 719 1094.5 743.5Q1106 768 1106 797Q1106 821 1098.5 839.5Q1091 858 1082.5 872.0Q1074 886 1066.5 896.0Q1059 906 1059 912Q1059 924 1067 932L1289 1154Q1316 1181 1355.5 1196.0Q1395 1211 1433 1211Q1476 1211 1515.5 1194.0Q1555 1177 1586 1147L1827 908Q1859 876 1875.0 834.5Q1891 793 1891 748Q1891 695 1870.5 655.0Q1850 615 1813 578Q1804 569 1796.5 559.0Q1789 549 1780 540L1620 380Q1612 372 1600 372Q1592 372 1582.5 379.5Q1573 387 1559.5 396.5Q1546 406 1527.0 413.5Q1508 421 1482 421Q1453 421 1428.0 410.0Q1403 399 1385.0 379.5Q1367 360 1356.5 334.5Q1346 309 1346 281Z" style="fill:#8c5543;stroke:none" transform="scale(1,-1) translate(0,-256)" /></svg>