<?xml version="1.0" encoding="utf-8" ?>
<svg baseProfile="full" height="256" version="1.1" width="256" xmlns="http://www.w3.org/2000/svg" xmlns:ev="http://www.w3.org/2001/xml-events" xmlns:xlink="http://www.w3.org/1999/xlink"><defs /><path d="M1093 1437 940 1285Q919 1264 889 1264Q860 1264 839.0 1285.0Q818 1306 818 1335Q818 1365 839 1386L991 1538ZM1296 1233 1397 1132 1245 979Q1224 958 1194 958Q1165 958 1144.0 979.0Q1123 1000 1123 1029Q1123 1059 1144 1080ZM1601 928 1702 827 1550 674Q1529 653 1499 653Q1469 653 1448.0 674.0Q1427 695 1427 725Q1427 755 1448 776Z" style="fill:#000000;stroke:none" transform="scale(1,-1) translate(0,-256)" /></svg>