<?xml version="1.0" encoding="utf-8" ?>
<svg baseProfile="full" height="256" version="1.1" width="256" xmlns="http://www.w3.org/2000/svg" xmlns:ev="http://www.w3.org/2001/xml-events" xmlns:xlink="http://www.w3.org/1999/xlink"><defs /><path d="M2051 146Q2021 146 1994.5 157.0Q1968 168 1948.5 187.5Q1929 207 1918.0 233.5Q1907 260 1907 290Q1907 320 1918.5 346.0Q1930 372 1949.5 391.5Q1969 411 1995.0 422.5Q2021 434 2051 434Q2081 434 2107.0 422.5Q2133 411 2152.5 391.5Q2172 372 2183.0 346.0Q2194 320 2194 290Q2194 260 2183.0 234.0Q2172 208 2152.5 188.5Q2133 169 2107.0 157.5Q2081 146 2051 146Z" style="fill:#ff8687;stroke:none" transform="scale(1,-1) translate(0,-256)" /></svg>