<?xml version="1.0" encoding="utf-8" ?>
<svg baseProfile="full" height="256" version="1.1" width="256" xmlns="http://www.w3.org/2000/svg" xmlns:ev="http://www.w3.org/2001/xml-events" xmlns:xlink="http://www.w3.org/1999/xlink"><defs /><path d="M544 1437Q544 1467 555.0 1493.0Q566 1519 585.5 1538.5Q605 1558 631.0 1569.5Q657 1581 687 1581Q716 1581 742.5 1570.0Q769 1559 789 1539L1776 553Q1808 566 1840.5 571.5Q1873 577 1907 577Q1981 577 2046.5 548.5Q2112 520 2160.5 471.5Q2209 423 2237.5 357.5Q2266 292 2266 218Q2266 144 2237.5 78.5Q2209 13 2160.5 -36.0Q2112 -85 2046.5 -113.0Q1981 -141 1907 -141Q1833 -141 1767.5 -113.0Q1702 -85 1653.0 -36.0Q1604 13 1576.0 78.5Q1548 144 1548 218Q1548 252 1553.5 284.5Q1559 317 1572 349L586 1336Q566 1356 555.0 1382.0Q544 1408 544 1437Z" style="fill:#f8312f;stroke:none" transform="scale(1,-1) translate(0,-256)" /></svg>