<?xml version="1.0" encoding="utf-8" ?>
<svg baseProfile="full" height="256" version="1.1" width="256" xmlns="http://www.w3.org/2000/svg" xmlns:ev="http://www.w3.org/2001/xml-events" xmlns:xlink="http://www.w3.org/1999/xlink"><defs /><path d="M2435 708Q2435 567 2398.5 437.0Q2362 307 2296.0 194.0Q2230 81 2137.0 -12.0Q2044 -105 1931.0 -171.0Q1818 -237 1688.0 -273.5Q1558 -310 1417 -310Q1276 -310 1146.5 -273.5Q1017 -237 904.0 -171.0Q791 -105 698.0 -12.0Q605 81 539.0 194.0Q473 307 436.5 437.5Q400 568 400 708Q400 848 436.5 978.0Q473 1108 539.0 1221.0Q605 1334 698.0 1427.0Q791 1520 904.0 1586.0Q1017 1652 1146.5 1688.5Q1276 1725 1417 1725Q1557 1725 1687.5 1688.5Q1818 1652 1931.0 1586.0Q2044 1520 2137.0 1427.0Q2230 1334 2296.0 1221.0Q2362 1108 2398.5 978.0Q2435 848 2435 708Z" style="fill:#ffffff;stroke:none" transform="scale(1,-1) translate(0,-256)" /></svg>