<?xml version="1.0" encoding="utf-8" ?>
<svg baseProfile="full" height="256" version="1.1" width="256" xmlns="http://www.w3.org/2000/svg" xmlns:ev="http://www.w3.org/2001/xml-events" xmlns:xlink="http://www.w3.org/1999/xlink"><defs /><path d="M1334 935Q1334 905 1322.5 878.5Q1311 852 1291.5 832.5Q1272 813 1246.0 802.0Q1220 791 1190 791Q1160 791 1134.0 802.5Q1108 814 1088.5 833.5Q1069 853 1058.0 879.0Q1047 905 1047 935Q1047 965 1058.0 991.0Q1069 1017 1088.5 1036.5Q1108 1056 1134.0 1067.0Q1160 1078 1190 1078Q1220 1078 1246.0 1067.0Q1272 1056 1291.5 1036.5Q1311 1017 1322.5 991.0Q1334 965 1334 935Z" style="fill:#ffffff;stroke:none" transform="scale(1,-1) translate(0,-256)" /></svg>