<?xml version="1.0" encoding="utf-8" ?>
<svg baseProfile="full" height="256" version="1.1" width="256" xmlns="http://www.w3.org/2000/svg" xmlns:ev="http://www.w3.org/2001/xml-events" xmlns:xlink="http://www.w3.org/1999/xlink"><defs /><path d="M2119 1416Q2189 1416 2241.0 1391.0Q2293 1366 2327.5 1323.0Q2362 1280 2379.5 1222.5Q2397 1165 2398 1100L2411 246Q2412 190 2395.0 134.5Q2378 79 2345.0 34.5Q2312 -10 2263.5 -38.0Q2215 -66 2154 -66Q2084 -66 2022.0 -40.0Q1960 -14 1912 38Q1884 -12 1859.5 -46.0Q1835 -80 1805.0 -100.5Q1775 -121 1734.0 -130.0Q1693 -139 1632 -139Q1590 -139 1553.0 -125.0Q1516 -111 1485.0 -86.5Q1454 -62 1429.5 -30.0Q1405 2 1389 38Q1359 4 1330.5 -17.5Q1302 -39 1271.5 -51.0Q1241 -63 1205.0 -67.5Q1169 -72 1123 -72Q1089 -72 1052.5 -55.5Q1016 -39 984.5 -12.5Q953 14 930.5 47.5Q908 81 903 115Q892 110 882.0 98.5Q872 87 864 79Q827 38 787.0 18.0Q747 -2 690 -2Q682 -2 674.0 -1.5Q666 -1 658 0Q573 10 522.0 41.5Q471 73 444.0 122.0Q417 171 408.5 235.5Q400 300 400 375V856Q400 896 410.0 937.0Q420 978 439.5 1014.5Q459 1051 486.5 1081.5Q514 1112 550 1132Q584 1151 621.0 1163.5Q658 1176 694.0 1189.5Q730 1203 763.5 1221.0Q797 1239 826 1271Q886 1337 966.5 1367.0Q1047 1397 1135 1397Q1146 1397 1158.0 1396.5Q1170 1396 1181 1396Q1251 1396 1303.0 1414.0Q1355 1432 1400.5 1453.5Q1446 1475 1490.5 1493.0Q1535 1511 1591 1511Q1647 1511 1698.0 1493.5Q1749 1476 1799 1453Q1808 1449 1818.5 1443.5Q1829 1438 1840.0 1432.5Q1851 1427 1862.5 1422.5Q1874 1418 1883 1416Q1903 1412 1922.0 1411.0Q1941 1410 1961 1410Q2001 1410 2040.0 1413.0Q2079 1416 2119 1416Z" style="fill:#ffc83d;stroke:none" transform="scale(1,-1) translate(0,-256)" /></svg>