<?xml version="1.0" encoding="utf-8" ?>
<svg baseProfile="full" height="256" version="1.1" width="256" xmlns="http://www.w3.org/2000/svg" xmlns:ev="http://www.w3.org/2001/xml-events" xmlns:xlink="http://www.w3.org/1999/xlink"><defs /><path d="M1526 -278Q1471 -278 1428.0 -262.0Q1385 -246 1352.0 -217.0Q1319 -188 1296.0 -146.5Q1273 -105 1259 -55Q1251 -26 1245.5 1.0Q1240 28 1240 59Q1240 108 1253.5 153.5Q1267 199 1292.5 237.0Q1318 275 1355.0 304.5Q1392 334 1439 350L1987 540Q2038 557 2089 557Q2155 557 2214.0 532.5Q2273 508 2316.5 465.0Q2360 422 2385.5 364.0Q2411 306 2411 239Q2411 188 2396.0 140.5Q2381 93 2353.0 53.0Q2325 13 2285.5 -17.0Q2246 -47 2197 -64L1649 -255Q1619 -266 1588.5 -272.0Q1558 -278 1526 -278Z" style="fill:#d67d00;stroke:none" transform="scale(1,-1) translate(0,-256)" /></svg>