<?xml version="1.0" encoding="utf-8" ?>
<svg baseProfile="full" height="256" version="1.1" width="256" xmlns="http://www.w3.org/2000/svg" xmlns:ev="http://www.w3.org/2001/xml-events" xmlns:xlink="http://www.w3.org/1999/xlink"><defs /><path d="M587 13Q530 29 494.5 60.0Q459 91 438.5 132.5Q418 174 410.0 223.5Q402 273 401 326Q399 380 399.5 434.0Q400 488 400 542V769Q401 798 400.0 826.0Q399 854 401 882Q403 930 423.5 980.0Q444 1030 474 1068Q471 816 471 564Q471 501 471.5 439.5Q472 378 472 315Q473 285 472.5 254.0Q472 223 475 193Q477 166 487.5 141.0Q498 116 513.0 92.5Q528 69 547.5 49.0Q567 29 587 13ZM1104 -70Q1072 -66 1038.5 -48.5Q1005 -31 976.5 -5.5Q948 20 928.0 51.5Q908 83 903 115L901 114Q890 152 890 189Q890 297 889.5 404.0Q889 511 889 619V764Q889 781 888.5 798.0Q888 815 890 832Q892 847 901.5 857.0Q911 867 927 867Q944 867 952.5 856.5Q961 846 962 831Q964 814 962.5 797.5Q961 781 961 764V619Q961 547 961.5 474.5Q962 402 962 330V189Q962 155 974.0 118.0Q986 81 1006.0 46.0Q1026 11 1051.5 -19.5Q1077 -50 1104 -70ZM1580 -133Q1556 -112 1532.5 -82.5Q1509 -53 1490.5 -19.5Q1472 14 1460.5 49.5Q1449 85 1449 118V966Q1449 980 1438.0 991.0Q1427 1002 1413 1002Q1396 1002 1387.5 992.0Q1379 982 1377 967Q1374 943 1375.0 916.5Q1376 890 1376 866V639Q1376 508 1376.5 378.5Q1377 249 1377 118Q1377 100 1380.0 77.5Q1383 55 1389 38Q1400 9 1419.5 -19.0Q1439 -47 1464.5 -70.0Q1490 -93 1520.0 -109.5Q1550 -126 1580 -133ZM2072 -57Q2054 -53 2031.0 -43.5Q2008 -34 1985.5 -21.5Q1963 -9 1943.5 5.5Q1924 20 1914 36Q1905 49 1898.0 68.5Q1891 88 1885.5 110.0Q1880 132 1877.0 153.0Q1874 174 1874 189Q1874 321 1873.5 452.0Q1873 583 1873 715V895Q1873 912 1872.5 930.0Q1872 948 1874 964Q1876 979 1885.0 989.5Q1894 1000 1911 1000Q1928 1000 1936.0 989.0Q1944 978 1946 963Q1948 943 1946.5 922.5Q1945 902 1945 882V715Q1945 621 1945.5 528.5Q1946 436 1946 342V189Q1946 156 1957.0 122.0Q1968 88 1986.0 55.5Q2004 23 2026.5 -6.0Q2049 -35 2072 -57Z" style="fill:#d67d00;stroke:none" transform="scale(1,-1) translate(0,-256)" /></svg>