<?xml version="1.0" encoding="utf-8" ?>
<svg baseProfile="full" height="256" version="1.1" width="256" xmlns="http://www.w3.org/2000/svg" xmlns:ev="http://www.w3.org/2001/xml-events" xmlns:xlink="http://www.w3.org/1999/xlink"><defs /><path d="M1202 1213Q1257 1269 1311.5 1324.5Q1366 1380 1422 1435Q1457 1470 1499.5 1490.5Q1542 1511 1592 1511Q1634 1511 1666.5 1498.5Q1699 1486 1726.5 1465.5Q1754 1445 1779.5 1418.5Q1805 1392 1832 1365L1924 1273Q1903 1278 1881.0 1279.0Q1859 1280 1837 1280Q1791 1280 1742.0 1266.0Q1693 1252 1652 1231Q1594 1201 1535.0 1183.5Q1476 1166 1410 1166Q1354 1166 1303.5 1178.5Q1253 1191 1202 1213Z" style="fill:#8c5543;stroke:none" transform="scale(1,-1) translate(0,-256)" /></svg>