<?xml version="1.0" encoding="utf-8" ?>
<svg baseProfile="full" height="256" version="1.1" width="256" xmlns="http://www.w3.org/2000/svg" xmlns:ev="http://www.w3.org/2001/xml-events" xmlns:xlink="http://www.w3.org/1999/xlink"><defs /><path d="M802 1097Q802 1117 811.5 1129.5Q821 1142 835.5 1149.5Q850 1157 867.5 1160.0Q885 1163 901 1163Q936 1163 963.5 1169.5Q991 1176 1014.5 1188.0Q1038 1200 1059.5 1218.0Q1081 1236 1105 1260Q1115 1270 1126.0 1277.5Q1137 1285 1148 1292L1370 1222L1899 1292Q1905 1289 1928.0 1268.0Q1951 1247 1985.0 1214.5Q2019 1182 2061.0 1140.5Q2103 1099 2147.0 1055.0Q2191 1011 2234.0 967.5Q2277 924 2313.0 887.5Q2349 851 2375.5 824.5Q2402 798 2412 788V252L2034 -87L803 49Q803 312 802.5 573.0Q802 834 802 1097Z" style="fill:#8c5543;stroke:none" transform="scale(1,-1) translate(0,-256)" /></svg>