<?xml version="1.0" encoding="utf-8" ?>
<svg baseProfile="full" height="256" version="1.1" width="256" xmlns="http://www.w3.org/2000/svg" xmlns:ev="http://www.w3.org/2001/xml-events" xmlns:xlink="http://www.w3.org/1999/xlink"><defs /><path d="M1370 545Q1358 556 1341.5 570.5Q1325 585 1310.0 601.5Q1295 618 1284.5 635.5Q1274 653 1274 670Q1274 698 1293.0 717.5Q1312 737 1335.0 757.0Q1358 777 1377.0 801.5Q1396 826 1396 864Q1396 960 1367.5 1061.0Q1339 1162 1289.5 1257.0Q1240 1352 1174.0 1434.5Q1108 1517 1033 1576Q1024 1583 1009.5 1592.0Q995 1601 981.5 1611.5Q968 1622 958.5 1634.0Q949 1646 949 1660Q949 1678 958.0 1687.5Q967 1697 983 1703Q1000 1709 1028.0 1713.5Q1056 1718 1086.5 1720.5Q1117 1723 1145.5 1724.0Q1174 1725 1194 1725Q1333 1725 1461.5 1689.0Q1590 1653 1701.5 1588.0Q1813 1523 1904.0 1431.0Q1995 1339 2060.0 1227.5Q2125 1116 2160.5 987.5Q2196 859 2196 720Q2196 581 2160.5 452.5Q2125 324 2060.0 212.0Q1995 100 1904.0 8.5Q1813 -83 1701.5 -148.5Q1590 -214 1461.5 -250.0Q1333 -286 1194 -286Q1155 -286 1101.5 -281.0Q1048 -276 992.5 -266.0Q937 -256 886.5 -241.0Q836 -226 802 -207Q789 -199 782.0 -191.0Q775 -183 775 -167Q775 -151 782.0 -142.5Q789 -134 802 -126Q823 -114 845.5 -104.0Q868 -94 889 -83Q980 -34 1057.0 33.0Q1134 100 1195.0 180.5Q1256 261 1300.0 353.0Q1344 445 1370 545Z" style="fill:#fcd53f;stroke:none" transform="scale(1,-1) translate(0,-256)" /></svg>