<?xml version="1.0" encoding="utf-8" ?>
<svg baseProfile="full" height="256" version="1.1" width="256" xmlns="http://www.w3.org/2000/svg" xmlns:ev="http://www.w3.org/2001/xml-events" xmlns:xlink="http://www.w3.org/1999/xlink"><defs /><path d="M1343 1503Q1296 1503 1253.5 1519.5Q1211 1536 1178.0 1565.0Q1145 1594 1122.5 1633.5Q1100 1673 1094 1720Q1119 1722 1143.5 1723.5Q1168 1725 1193 1725Q1291 1725 1386.0 1706.5Q1481 1688 1572 1651Q1557 1617 1533.0 1590.0Q1509 1563 1479.0 1543.5Q1449 1524 1414.5 1513.5Q1380 1503 1343 1503ZM2137 375Q2089 379 2047.0 400.5Q2005 422 1974.0 456.0Q1943 490 1925.5 533.5Q1908 577 1908 626Q1908 678 1928.0 724.0Q1948 770 1982.0 804.0Q2016 838 2062.0 857.5Q2108 877 2160 877Q2166 877 2172.5 877.0Q2179 877 2185 876Q2191 838 2193.5 799.0Q2196 760 2196 722Q2196 633 2181.5 546.0Q2167 459 2137 375ZM1374 -221Q1336 -221 1303.0 -206.5Q1270 -192 1245.0 -167.5Q1220 -143 1206.0 -109.5Q1192 -76 1192 -38Q1192 -1 1206.5 32.5Q1221 66 1245.5 90.5Q1270 115 1303.0 129.5Q1336 144 1374 144Q1411 144 1444.5 130.0Q1478 116 1503.0 91.0Q1528 66 1542.5 33.0Q1557 0 1557 -38Q1557 -76 1542.5 -109.5Q1528 -143 1503.5 -167.5Q1479 -192 1445.5 -206.5Q1412 -221 1374 -221ZM1778 1396Q1778 1373 1769.0 1352.5Q1760 1332 1744.5 1316.5Q1729 1301 1708.5 1292.0Q1688 1283 1665 1283Q1642 1283 1621.5 1292.0Q1601 1301 1585.5 1316.5Q1570 1332 1561.0 1352.5Q1552 1373 1552 1396Q1552 1419 1561.0 1439.5Q1570 1460 1585.5 1475.5Q1601 1491 1621.5 1500.0Q1642 1509 1665 1509Q1688 1509 1708.5 1500.0Q1729 1491 1744.5 1475.5Q1760 1460 1769.0 1439.5Q1778 1419 1778 1396Z" style="fill:#f9c23c;stroke:none" transform="scale(1,-1) translate(0,-256)" /></svg>