<?xml version="1.0" encoding="utf-8" ?>
<svg baseProfile="full" height="256" version="1.1" width="256" xmlns="http://www.w3.org/2000/svg" xmlns:ev="http://www.w3.org/2001/xml-events" xmlns:xlink="http://www.w3.org/1999/xlink"><defs /><path d="M673 1003Q687 1003 698.5 996.0Q710 989 718 978Q732 959 743.5 938.0Q755 917 767 897Q794 852 821.0 808.5Q848 765 877 722Q878 721 880.5 717.0Q883 713 886.5 708.5Q890 704 893.0 700.5Q896 697 897 697Q906 697 906 706V949Q906 972 921.5 987.5Q937 1003 960 1003Q983 1003 998.5 987.5Q1014 972 1014 949V485Q1014 462 998.0 447.0Q982 432 959 432Q931 432 914 457Q903 474 892.5 492.0Q882 510 871 527Q842 574 814.0 620.5Q786 667 755 712Q754 713 751.5 717.0Q749 721 746.0 725.5Q743 730 740.0 733.5Q737 737 736 737Q727 737 727 728V485Q727 463 711.0 447.0Q695 431 673 431Q651 431 635.0 447.0Q619 463 619 485V949Q619 971 635.0 987.0Q651 1003 673 1003ZM1435 1000Q1458 1000 1473.5 984.5Q1489 969 1489 946Q1489 924 1473.0 908.0Q1457 892 1435 892H1237Q1228 892 1228 883V770Q1228 761 1237 761H1431Q1454 761 1469.5 745.5Q1485 730 1485 707Q1485 684 1469.5 668.5Q1454 653 1431 653H1237Q1228 653 1228 644V549Q1228 540 1237 540H1435Q1458 540 1473.5 524.5Q1489 509 1489 486Q1489 463 1473.5 447.5Q1458 432 1435 432H1174Q1151 432 1135.5 447.5Q1120 463 1120 486V946Q1120 969 1135.5 984.5Q1151 1000 1174 1000ZM1618 999Q1636 999 1650.5 987.5Q1665 976 1670 959L1737 720Q1738 714 1745 714Q1752 714 1754 720L1824 960Q1829 977 1843.5 988.0Q1858 999 1875 999Q1893 999 1907.5 988.0Q1922 977 1927 960L2000 721Q2001 715 2008 715Q2015 715 2017 721L2079 958Q2084 976 2099.0 987.5Q2114 999 2132 999Q2155 999 2170.5 983.0Q2186 967 2186 944Q2186 934 2178.5 900.5Q2171 867 2159.0 821.0Q2147 775 2132.5 722.0Q2118 669 2104.5 620.5Q2091 572 2080.5 533.5Q2070 495 2065 479Q2060 462 2045.0 450.5Q2030 439 2013 439Q1995 439 1980.5 450.0Q1966 461 1961 478L1885 727Q1883 733 1877 733Q1870 733 1868 726L1796 478Q1791 461 1776.5 450.0Q1762 439 1744 439Q1726 439 1711.5 450.5Q1697 462 1692 479Q1688 492 1677.5 529.5Q1667 567 1652.5 617.0Q1638 667 1622.5 722.0Q1607 777 1594.0 824.5Q1581 872 1572.5 905.5Q1564 939 1564 945Q1564 967 1580.0 983.0Q1596 999 1618 999Z" style="fill:#ffffff;stroke:none" transform="scale(1,-1) translate(0,-256)" /></svg>