<?xml version="1.0" encoding="utf-8" ?>
<svg baseProfile="full" height="256" version="1.1" width="256" xmlns="http://www.w3.org/2000/svg" xmlns:ev="http://www.w3.org/2001/xml-events" xmlns:xlink="http://www.w3.org/1999/xlink"><defs /><path d="M1262 791H1550V677Q1550 645 1540.0 616.5Q1530 588 1511.0 567.0Q1492 546 1465.5 533.5Q1439 521 1406 521Q1373 521 1346.0 533.5Q1319 546 1300.5 567.0Q1282 588 1272.0 616.5Q1262 645 1262 677ZM615 -136Q615 -36 631.0 62.5Q647 161 682.0 252.5Q717 344 771.5 425.5Q826 507 903 575V-287H615ZM2197 -139Q2197 -176 2196.5 -213.0Q2196 -250 2196 -287H1909V575Q1988 507 2043.0 425.0Q2098 343 2132.0 251.5Q2166 160 2181.5 61.0Q2197 -38 2197 -139Z" style="fill:#8d65c5;stroke:none" transform="scale(1,-1) translate(0,-256)" /></svg>