<?xml version="1.0" encoding="utf-8" ?>
<svg baseProfile="full" height="256" version="1.1" width="256" xmlns="http://www.w3.org/2000/svg" xmlns:ev="http://www.w3.org/2001/xml-events" xmlns:xlink="http://www.w3.org/1999/xlink"><defs /><path d="M1397 892Q1420 892 1438.5 895.0Q1457 898 1472.5 905.0Q1488 912 1503.0 923.0Q1518 934 1535 949Q1539 953 1542 953Q1550 953 1550 944Q1550 927 1540.0 912.0Q1530 897 1514.5 886.0Q1499 875 1481.0 869.0Q1463 863 1448 863Q1444 863 1434.0 864.5Q1424 866 1414.0 868.5Q1404 871 1396.0 875.0Q1388 879 1388 884Q1388 888 1391.0 890.0Q1394 892 1397 892Z" style="fill:#990839;stroke:none" transform="scale(1,-1) translate(0,-256)" /></svg>