<?xml version="1.0" encoding="utf-8" ?>
<svg baseProfile="full" height="256" version="1.1" width="256" xmlns="http://www.w3.org/2000/svg" xmlns:ev="http://www.w3.org/2001/xml-events" xmlns:xlink="http://www.w3.org/1999/xlink"><defs /><path d="M1485 1639Q1546 1639 1600.5 1616.0Q1655 1593 1695.5 1552.5Q1736 1512 1759.5 1458.0Q1783 1404 1783 1342Q1783 1333 1782.5 1324.0Q1782 1315 1781 1305Q1774 1202 1768.0 1100.5Q1762 999 1755 896Q1753 877 1747.5 857.5Q1742 838 1734 821Q1717 783 1690.0 752.0Q1663 721 1629.0 699.0Q1595 677 1555.5 665.0Q1516 653 1474 653H1338Q1288 653 1239.5 671.5Q1191 690 1152.0 722.5Q1113 755 1087.5 799.5Q1062 844 1058 896Q1050 999 1044.0 1100.5Q1038 1202 1031 1305Q1030 1315 1029.5 1324.0Q1029 1333 1029 1343Q1029 1406 1052.0 1460.0Q1075 1514 1114.5 1553.5Q1154 1593 1208.0 1616.0Q1262 1639 1325 1639H1485Z" style="fill:#ffc83d;stroke:none" transform="scale(1,-1) translate(0,-256)" /></svg>