<?xml version="1.0" encoding="utf-8" ?>
<svg baseProfile="full" height="256" version="1.1" width="256" xmlns="http://www.w3.org/2000/svg" xmlns:ev="http://www.w3.org/2001/xml-events" xmlns:xlink="http://www.w3.org/1999/xlink"><defs /><path d="M1406 1222Q1421 1222 1434.0 1230.5Q1447 1239 1455 1251Q1471 1275 1487.5 1284.5Q1504 1294 1530 1302Q1539 1305 1570.5 1314.5Q1602 1324 1644.5 1336.5Q1687 1349 1734.0 1363.0Q1781 1377 1821.5 1389.0Q1862 1401 1890.0 1408.5Q1918 1416 1921 1416Q1932 1416 1939.0 1408.5Q1946 1401 1946 1390Q1946 1383 1941 1375L1695 1006Q1688 995 1680.5 982.5Q1673 970 1664.0 959.0Q1655 948 1643.5 940.5Q1632 933 1617 933Q1593 933 1576 952Q1566 963 1545.5 985.5Q1525 1008 1503.5 1033.0Q1482 1058 1464.5 1080.5Q1447 1103 1442 1114Q1437 1125 1428.0 1137.5Q1419 1150 1406 1150Q1394 1150 1384.5 1137.0Q1375 1124 1370 1114Q1365 1103 1347.5 1080.5Q1330 1058 1309.0 1033.0Q1288 1008 1268.0 985.5Q1248 963 1238 952Q1221 933 1196 933Q1181 933 1169.5 940.5Q1158 948 1149.0 959.0Q1140 970 1132.5 982.5Q1125 995 1118 1006L872 1375Q867 1382 867 1390Q867 1401 874.5 1408.5Q882 1416 893 1416Q896 1416 923.5 1408.5Q951 1401 991.5 1389.0Q1032 1377 1079.5 1363.0Q1127 1349 1169.5 1336.0Q1212 1323 1243.5 1313.5Q1275 1304 1284 1302Q1314 1293 1330.0 1279.5Q1346 1266 1357.5 1253.5Q1369 1241 1379.0 1231.5Q1389 1222 1406 1222Z" style="fill:#533566;stroke:none" transform="scale(1,-1) translate(0,-256)" /></svg>