<?xml version="1.0" encoding="utf-8" ?>
<svg baseProfile="full" height="256" version="1.1" width="256" xmlns="http://www.w3.org/2000/svg" xmlns:ev="http://www.w3.org/2001/xml-events" xmlns:xlink="http://www.w3.org/1999/xlink"><defs /><path d="M687 719H1262V667Q1262 613 1246.5 562.5Q1231 512 1202.5 468.5Q1174 425 1133.0 391.0Q1092 357 1042 337Q1010 324 972 324Q919 324 874.0 350.0Q829 376 802 421L655 666Q651 673 651 684Q651 701 661.0 710.0Q671 719 687 719ZM2123 719H1550V667Q1550 613 1565.5 562.5Q1581 512 1609.5 468.5Q1638 425 1679.0 391.0Q1720 357 1770 337Q1802 324 1840 324Q1894 324 1938.0 350.0Q1982 376 2009 421L2157 666Q2161 673 2161 682Q2161 699 2150.5 709.0Q2140 719 2123 719Z" style="fill:#f92f60;stroke:none" transform="scale(1,-1) translate(0,-256)" /></svg>