<?xml version="1.0" encoding="utf-8" ?>
<svg baseProfile="full" height="256" version="1.1" width="256" xmlns="http://www.w3.org/2000/svg" xmlns:ev="http://www.w3.org/2001/xml-events" xmlns:xlink="http://www.w3.org/1999/xlink"><defs /><path d="M1343 1005Q1343 1014 1347.5 1032.0Q1352 1050 1358.5 1069.5Q1365 1089 1371.0 1107.5Q1377 1126 1380 1137Q1382 1146 1389.5 1151.5Q1397 1157 1406 1157Q1427 1157 1432 1137Q1435 1126 1441.0 1107.5Q1447 1089 1453.5 1069.5Q1460 1050 1464.5 1032.0Q1469 1014 1469 1005Q1469 989 1458.5 978.0Q1448 967 1432 967H1380Q1364 967 1353.5 978.0Q1343 989 1343 1005Z" style="fill:#ed9200;stroke:none" transform="scale(1,-1) translate(0,-256)" /></svg>