<?xml version="1.0" encoding="utf-8" ?>
<svg baseProfile="full" height="256" version="1.1" width="256" xmlns="http://www.w3.org/2000/svg" xmlns:ev="http://www.w3.org/2001/xml-events" xmlns:xlink="http://www.w3.org/1999/xlink"><defs /><path d="M2125 653Q2151 620 2173.5 582.5Q2196 545 2216 507Q2313 324 2362.5 122.5Q2412 -79 2412 -287H2197Q2196 -287 2164.0 -278.5Q2132 -270 2079.0 -255.5Q2026 -241 1958.5 -223.0Q1891 -205 1819.5 -185.5Q1748 -166 1678.5 -147.0Q1609 -128 1551.5 -112.0Q1494 -96 1455.0 -85.5Q1416 -75 1406 -72Q1396 -75 1357.0 -85.5Q1318 -96 1260.5 -112.0Q1203 -128 1133.5 -147.0Q1064 -166 992.5 -185.5Q921 -205 853.5 -223.0Q786 -241 733.0 -255.5Q680 -270 648.0 -278.5Q616 -287 615 -287H400Q400 -79 449.5 122.5Q499 324 596 507Q616 545 638.5 582.5Q661 620 687 653Z" style="fill:#533566;stroke:none" transform="scale(1,-1) translate(0,-256)" /></svg>