<?xml version="1.0" encoding="utf-8" ?>
<svg baseProfile="full" height="256" version="1.1" width="256" xmlns="http://www.w3.org/2000/svg" xmlns:ev="http://www.w3.org/2001/xml-events" xmlns:xlink="http://www.w3.org/1999/xlink"><defs /><path d="M1238 1138Q1206 1138 1183.0 1161.0Q1160 1184 1160 1216Q1160 1224 1162.5 1229.0Q1165 1234 1174 1234H1177L1296 1198Q1301 1196 1304.0 1192.0Q1307 1188 1307 1183Q1307 1173 1299.0 1165.0Q1291 1157 1280.0 1151.0Q1269 1145 1257.5 1141.5Q1246 1138 1238 1138ZM1567 1138Q1599 1138 1622.0 1160.5Q1645 1183 1645 1215Q1645 1223 1643.5 1228.5Q1642 1234 1632 1234H1629L1509 1198Q1499 1195 1499 1183Q1499 1173 1506.5 1165.0Q1514 1157 1524.5 1151.0Q1535 1145 1547.0 1141.5Q1559 1138 1567 1138Z" style="fill:#c3ef3c;stroke:none" transform="scale(1,-1) translate(0,-256)" /></svg>