<?xml version="1.0" encoding="utf-8" ?>
<svg baseProfile="full" height="256" version="1.1" width="256" xmlns="http://www.w3.org/2000/svg" xmlns:ev="http://www.w3.org/2001/xml-events" xmlns:xlink="http://www.w3.org/1999/xlink"><defs /><path d="M1514 1725Q1560 1725 1597.0 1703.5Q1634 1682 1658 1644Q1676 1615 1699.5 1597.0Q1723 1579 1755 1568Q1806 1550 1837.5 1506.5Q1869 1463 1869 1409Q1869 1382 1861.5 1359.0Q1854 1336 1839 1313Q1830 1299 1826.0 1287.5Q1822 1276 1820.5 1264.5Q1819 1253 1819.0 1240.5Q1819 1228 1819 1213Q1816 1215 1810.0 1218.5Q1804 1222 1797.5 1225.5Q1791 1229 1784.5 1231.5Q1778 1234 1775 1233L1773 1234Q1774 1250 1775.5 1266.5Q1777 1283 1777 1299Q1777 1319 1769.0 1337.5Q1761 1356 1747.0 1370.0Q1733 1384 1715.0 1392.5Q1697 1401 1677 1401Q1635 1401 1597.0 1401.0Q1559 1401 1526.0 1409.5Q1493 1418 1465.5 1439.0Q1438 1460 1417 1504Q1403 1534 1372 1534H1280Q1230 1534 1186.0 1515.0Q1142 1496 1109.5 1463.5Q1077 1431 1058.0 1387.0Q1039 1343 1039 1293V1234Q1012 1229 990 1214Q990 1229 990.0 1241.5Q990 1254 988.5 1265.5Q987 1277 983.0 1288.0Q979 1299 970 1313Q956 1336 948.0 1359.0Q940 1382 940 1409Q940 1449 960 1487Q979 1523 1002.5 1539.5Q1026 1556 1052.0 1568.0Q1078 1580 1104.0 1596.0Q1130 1612 1153 1647Q1177 1684 1213.5 1704.5Q1250 1725 1295 1725Q1310 1725 1323.5 1721.5Q1337 1718 1350.5 1714.0Q1364 1710 1377.0 1706.5Q1390 1703 1404 1703Q1432 1703 1458.5 1714.0Q1485 1725 1514 1725Z" style="fill:#f1a11e;stroke:none" transform="scale(1,-1) translate(0,-256)" /></svg>