<?xml version="1.0" encoding="utf-8" ?>
<svg baseProfile="full" height="256" version="1.1" width="256" xmlns="http://www.w3.org/2000/svg" xmlns:ev="http://www.w3.org/2001/xml-events" xmlns:xlink="http://www.w3.org/1999/xlink"><defs /><path d="M759 719Q759 734 769.5 744.5Q780 755 795 755Q810 755 820.5 744.5Q831 734 831 719ZM939 755Q954 755 964.5 744.5Q975 734 975 719H903Q903 734 913.5 744.5Q924 755 939 755ZM975 647Q975 662 985.5 672.5Q996 683 1011 683Q1026 683 1036.5 672.5Q1047 662 1047 647ZM831 647Q831 662 841.5 672.5Q852 683 867 683Q882 683 892.5 672.5Q903 662 903 647ZM1909 719H1837Q1837 734 1847.5 744.5Q1858 755 1873 755Q1888 755 1898.5 744.5Q1909 734 1909 719ZM2017 755Q2032 755 2042.5 744.5Q2053 734 2053 719H1981Q1981 734 1991.5 744.5Q2002 755 2017 755ZM1909 647Q1909 662 1919.5 672.5Q1930 683 1945 683Q1960 683 1970.5 672.5Q1981 662 1981 647ZM1765 647Q1765 662 1775.5 672.5Q1786 683 1801 683Q1816 683 1826.5 672.5Q1837 662 1837 647Z" style="fill:#8d65c5;stroke:none" transform="scale(1,-1) translate(0,-256)" /></svg>