<?xml version="1.0" encoding="utf-8" ?>
<svg baseProfile="full" height="256" version="1.1" width="256" xmlns="http://www.w3.org/2000/svg" xmlns:ev="http://www.w3.org/2001/xml-events" xmlns:xlink="http://www.w3.org/1999/xlink"><defs /><path d="M1263 1725Q1274 1725 1285 1722L1501 1650Q1523 1642 1536.5 1623.5Q1550 1605 1550 1582Q1550 1552 1528.5 1531.0Q1507 1510 1477 1510Q1465 1510 1445.5 1515.5Q1426 1521 1405.5 1528.0Q1385 1535 1365.5 1542.5Q1346 1550 1334 1554V1402Q1318 1394 1298.5 1389.0Q1279 1384 1262 1384Q1245 1384 1225.5 1389.0Q1206 1394 1190 1402V1653Q1190 1684 1211.0 1704.5Q1232 1725 1263 1725ZM1208 789Q1219 789 1226.5 789.5Q1234 790 1241.0 789.5Q1248 789 1256.0 787.5Q1264 786 1276 782Q1324 765 1358.0 726.0Q1392 687 1414.5 637.5Q1437 588 1447.5 534.0Q1458 480 1458 434Q1458 413 1455.0 382.5Q1452 352 1445.0 319.0Q1438 286 1427.0 252.5Q1416 219 1399.0 193.0Q1382 167 1359.5 150.5Q1337 134 1308 134Q1287 134 1268.5 142.0Q1250 150 1232.5 161.0Q1215 172 1197.5 183.0Q1180 194 1162 201Q1136 211 1107.5 211.0Q1079 211 1052 221Q1020 233 994.5 259.0Q969 285 949.5 320.0Q930 355 916.5 396.0Q903 437 894.5 478.0Q886 519 882.0 557.0Q878 595 878 625Q878 659 884.5 700.5Q891 742 907.5 778.5Q924 815 952.0 840.0Q980 865 1024 865Q1052 865 1071.0 857.0Q1090 849 1105.0 837.5Q1120 826 1135.0 814.5Q1150 803 1171 796L1172 795Q1180 792 1190.0 790.5Q1200 789 1208 789Z" style="fill:#f8312f;stroke:none" transform="scale(1,-1) translate(0,-256)" /></svg>