<?xml version="1.0" encoding="utf-8" ?>
<svg baseProfile="full" height="256" version="1.1" width="256" xmlns="http://www.w3.org/2000/svg" xmlns:ev="http://www.w3.org/2001/xml-events" xmlns:xlink="http://www.w3.org/1999/xlink"><defs /><path d="M2311 -287Q2270 -287 2237 -256L1922 55Q1907 69 1899.0 88.5Q1891 108 1891 129Q1891 150 1899.5 169.5Q1908 189 1922.0 203.0Q1936 217 1955.5 225.5Q1975 234 1996 234Q2017 234 2036.0 225.5Q2055 217 2070 203L2385 -108Q2400 -122 2408.0 -141.5Q2416 -161 2416 -182Q2416 -203 2407.5 -222.5Q2399 -242 2385.0 -256.0Q2371 -270 2351.5 -278.5Q2332 -287 2311 -287Z" style="fill:#d3883e;stroke:none" transform="scale(1,-1) translate(0,-256)" /></svg>