<?xml version="1.0" encoding="utf-8" ?>
<svg baseProfile="full" height="256" version="1.1" width="256" xmlns="http://www.w3.org/2000/svg" xmlns:ev="http://www.w3.org/2001/xml-events" xmlns:xlink="http://www.w3.org/1999/xlink"><defs /><path d="M1816 -103Q1726 -103 1647.0 -69.0Q1568 -35 1508.5 24.5Q1449 84 1415.0 163.0Q1381 242 1381 332Q1381 422 1415.0 501.5Q1449 581 1508.0 640.0Q1567 699 1646.5 733.5Q1726 768 1816 768Q1906 768 1985.5 734.0Q2065 700 2124.5 640.5Q2184 581 2218.0 501.5Q2252 422 2252 332Q2252 242 2217.5 162.5Q2183 83 2124.0 24.0Q2065 -35 1985.5 -69.0Q1906 -103 1816 -103Z" style="fill:#00f397;stroke:none" transform="scale(1,-1) translate(0,-256)" /></svg>