<?xml version="1.0" encoding="utf-8" ?>
<svg baseProfile="full" height="256" version="1.1" width="256" xmlns="http://www.w3.org/2000/svg" xmlns:ev="http://www.w3.org/2001/xml-events" xmlns:xlink="http://www.w3.org/1999/xlink"><defs /><path d="M743 1277Q700 1277 669 1308L430 1546Q399 1577 399 1620Q399 1642 407.5 1661.0Q416 1680 430.0 1694.0Q444 1708 463.5 1716.5Q483 1725 504 1725Q547 1725 578 1694L816 1456Q847 1425 847 1382Q847 1361 839.0 1341.5Q831 1322 816.5 1308.0Q802 1294 783.0 1285.5Q764 1277 743 1277Z" style="fill:#d3883e;stroke:none" transform="scale(1,-1) translate(0,-256)" /></svg>