<?xml version="1.0" encoding="utf-8" ?>
<svg baseProfile="full" height="256" version="1.1" width="256" xmlns="http://www.w3.org/2000/svg" xmlns:ev="http://www.w3.org/2001/xml-events" xmlns:xlink="http://www.w3.org/1999/xlink"><defs /><path d="M1366 348Q1276 348 1196.5 382.0Q1117 416 1058.0 475.0Q999 534 964.5 613.5Q930 693 930 783Q930 873 964.0 952.5Q998 1032 1057.5 1091.5Q1117 1151 1196.5 1185.0Q1276 1219 1366 1219Q1456 1219 1535.5 1184.5Q1615 1150 1674.0 1091.0Q1733 1032 1767.0 952.5Q1801 873 1801 783Q1801 693 1767.0 614.0Q1733 535 1673.5 475.5Q1614 416 1535.0 382.0Q1456 348 1366 348Z" style="fill:#ffdea7;stroke:none" transform="scale(1,-1) translate(0,-256)" /></svg>