<?xml version="1.0" encoding="utf-8" ?>
<svg baseProfile="full" height="256" version="1.1" width="256" xmlns="http://www.w3.org/2000/svg" xmlns:ev="http://www.w3.org/2001/xml-events" xmlns:xlink="http://www.w3.org/1999/xlink"><defs /><path d="M543 -431Q484 -431 431.5 -408.5Q379 -386 340.0 -347.0Q301 -308 278.5 -255.5Q256 -203 256 -144V1581Q256 1639 279.0 1691.5Q302 1744 341.0 1783.5Q380 1823 432.0 1846.0Q484 1869 543 1869H1693Q1753 1869 1805.5 1846.5Q1858 1824 1897.0 1785.0Q1936 1746 1958.5 1693.5Q1981 1641 1981 1581V-144Q1981 -203 1958.0 -255.0Q1935 -307 1895.5 -346.0Q1856 -385 1803.5 -408.0Q1751 -431 1693 -431Z" style="fill:#000000;stroke:none" transform="scale(1,-1) translate(0,-256)" /></svg>