<?xml version="1.0" encoding="utf-8" ?>
<svg baseProfile="full" height="256" version="1.1" width="256" xmlns="http://www.w3.org/2000/svg" xmlns:ev="http://www.w3.org/2001/xml-events" xmlns:xlink="http://www.w3.org/1999/xlink"><defs /><path d="M795 970Q847 970 893.0 950.5Q939 931 973.0 897.0Q1007 863 1026.5 817.0Q1046 771 1046 719Q1046 667 1026.5 621.5Q1007 576 973.0 542.0Q939 508 893.5 488.0Q848 468 796 468Q744 468 698.5 487.5Q653 507 618.5 541.0Q584 575 564.0 620.5Q544 666 544 718Q544 770 563.5 816.0Q583 862 617.0 896.0Q651 930 697.0 950.0Q743 970 795 970ZM796 503Q841 503 880.0 520.0Q919 537 948.5 566.5Q978 596 994.5 635.5Q1011 675 1011 720Q1011 765 994.0 804.0Q977 843 947.5 872.5Q918 902 878.5 918.5Q839 935 794 935Q749 935 710.0 918.0Q671 901 641.5 871.5Q612 842 595.5 802.5Q579 763 579 718Q579 673 596.0 634.0Q613 595 642.5 565.5Q672 536 711.5 519.5Q751 503 796 503ZM897 778Q902 778 906.0 778.5Q910 779 915 779Q940 779 957.5 761.5Q975 744 975 719Q975 690 955.5 674.5Q936 659 910 659Q907 659 903.5 659.0Q900 659 897 660L899 657Q907 646 911.0 637.5Q915 629 915 615Q915 591 898.0 573.0Q881 555 856 555Q833 555 818.0 568.0Q803 581 795 601Q787 581 772.0 568.0Q757 555 734 555Q708 555 691.5 573.0Q675 591 675 616Q675 629 679.0 637.5Q683 646 690 656L693 660Q690 660 687.0 659.5Q684 659 681 659Q655 659 635.0 674.5Q615 690 615 719Q615 744 632.5 761.5Q650 779 675 779Q680 779 684.0 778.5Q688 778 693 778Q675 798 675 822Q675 847 692.0 865.0Q709 883 734 883Q757 883 772.5 870.0Q788 857 795 836Q802 857 817.5 870.0Q833 883 856 883Q881 883 898.0 865.5Q915 848 915 823Q915 809 910.0 799.0Q905 789 897 778ZM874 701Q879 701 883.5 700.5Q888 700 893 700Q903 700 914.0 703.0Q925 706 925 719Q925 731 915.0 734.5Q905 738 894 738Q888 738 883.0 737.5Q878 737 874 737Q868 762 850 778Q855 786 862.0 796.5Q869 807 869 816Q869 824 864.5 829.0Q860 834 852 834Q840 834 832.5 821.5Q825 809 820 799Q820 798 819.5 797.5Q819 797 819 796Q808 800 795 800Q782 800 771 796Q766 805 760.0 817.5Q754 830 741 830Q724 830 724 812Q724 803 729.5 794.0Q735 785 740 778Q722 762 716 737Q711 737 706.5 737.5Q702 738 697 738Q687 738 676.0 735.0Q665 732 665 719Q665 707 675.0 703.5Q685 700 696 700Q702 700 707.0 700.5Q712 701 716 701Q722 676 740 660Q735 652 728.0 641.5Q721 631 721 622Q721 604 739 604Q751 604 759.0 618.5Q767 633 771 642Q782 638 795 638Q808 638 819 642Q823 633 831.0 618.5Q839 604 851 604Q869 604 869 622Q869 631 862.0 641.5Q855 652 850 660Q868 676 874 701ZM1441 970Q1493 970 1539.0 950.5Q1585 931 1619.0 897.0Q1653 863 1673.0 817.0Q1693 771 1693 719Q1693 666 1673.5 620.5Q1654 575 1620.0 541.0Q1586 507 1540.0 487.5Q1494 468 1442 468Q1390 468 1344.0 487.5Q1298 507 1264.0 541.0Q1230 575 1210.5 620.5Q1191 666 1191 718Q1191 770 1210.5 815.5Q1230 861 1264.0 895.5Q1298 930 1343.5 950.0Q1389 970 1441 970ZM1443 503Q1488 503 1527.0 520.0Q1566 537 1595.5 566.5Q1625 596 1641.5 635.5Q1658 675 1658 720Q1658 765 1641.0 804.0Q1624 843 1594.5 872.5Q1565 902 1525.5 918.5Q1486 935 1441 935Q1396 935 1357.0 918.0Q1318 901 1288.5 871.5Q1259 842 1242.5 802.5Q1226 763 1226 718Q1226 673 1243.0 634.0Q1260 595 1289.5 565.5Q1319 536 1358.5 519.5Q1398 503 1443 503ZM1544 778Q1549 778 1553.0 778.5Q1557 779 1562 779Q1587 779 1604.5 761.5Q1622 744 1622 719Q1622 690 1602.5 674.5Q1583 659 1557 659Q1554 659 1550.5 659.0Q1547 659 1544 660L1547 656Q1554 646 1558.0 637.5Q1562 629 1562 616Q1562 590 1545.0 572.5Q1528 555 1502 555Q1479 555 1464.5 568.0Q1450 581 1442 601Q1434 581 1419.0 568.0Q1404 555 1381 555Q1356 555 1339.0 573.0Q1322 591 1322 615Q1322 639 1340 660Q1337 660 1334.0 659.5Q1331 659 1328 659Q1302 659 1282.0 674.5Q1262 690 1262 719Q1262 744 1279.5 761.5Q1297 779 1322 779Q1327 779 1331.0 778.5Q1335 778 1340 778Q1332 789 1327.0 799.0Q1322 809 1322 823Q1322 848 1339.0 865.5Q1356 883 1381 883Q1404 883 1419.5 870.0Q1435 857 1442 836Q1449 856 1464.5 869.5Q1480 883 1502 883Q1528 883 1545.0 865.5Q1562 848 1562 822Q1562 798 1544 778ZM1521 701Q1526 701 1530.5 700.5Q1535 700 1540 700Q1550 700 1561.0 703.0Q1572 706 1572 719Q1572 731 1562.0 734.5Q1552 738 1541 738Q1535 738 1530.0 737.5Q1525 737 1521 737Q1515 760 1497 778Q1502 786 1509.0 796.5Q1516 807 1516 816Q1516 834 1498 834Q1484 834 1478.0 820.0Q1472 806 1466 796Q1455 800 1442 800Q1429 800 1418 796Q1413 804 1406.0 817.0Q1399 830 1387 830Q1379 830 1374.5 825.0Q1370 820 1370 812Q1370 803 1376.0 794.0Q1382 785 1387 778Q1369 762 1363 737Q1358 737 1353.5 737.5Q1349 738 1344 738Q1334 738 1323.0 735.0Q1312 732 1312 719Q1312 707 1322.0 703.5Q1332 700 1343 700Q1349 700 1354.0 700.5Q1359 701 1363 701Q1369 676 1387 660Q1382 652 1375.0 641.5Q1368 631 1368 622Q1368 604 1386 604Q1398 604 1406.0 618.5Q1414 633 1418 642Q1429 638 1442 638Q1455 638 1466 642Q1472 632 1478.0 618.0Q1484 604 1498 604Q1516 604 1516 622Q1516 631 1509.0 641.5Q1502 652 1497 660Q1515 678 1521 701ZM795 1617Q847 1617 893.0 1597.5Q939 1578 973.0 1544.0Q1007 1510 1026.5 1464.0Q1046 1418 1046 1366Q1046 1314 1026.5 1268.0Q1007 1222 973.0 1188.0Q939 1154 893.5 1134.5Q848 1115 796 1115Q744 1115 698.5 1134.5Q653 1154 618.5 1188.0Q584 1222 564.0 1267.5Q544 1313 544 1365Q544 1417 563.5 1463.0Q583 1509 617.0 1543.0Q651 1577 697.0 1597.0Q743 1617 795 1617ZM796 1150Q841 1150 880.0 1167.0Q919 1184 948.5 1213.5Q978 1243 994.5 1282.5Q1011 1322 1011 1367Q1011 1412 994.0 1451.0Q977 1490 947.5 1519.5Q918 1549 878.5 1565.5Q839 1582 794 1582Q749 1582 710.0 1565.0Q671 1548 641.5 1518.5Q612 1489 595.5 1449.5Q579 1410 579 1365Q579 1320 596.0 1281.0Q613 1242 642.5 1212.5Q672 1183 711.5 1166.5Q751 1150 796 1150ZM897 1425Q902 1425 906.0 1425.5Q910 1426 915 1426Q940 1426 957.5 1408.5Q975 1391 975 1366Q975 1337 955.5 1321.5Q936 1306 910 1306Q907 1306 903.5 1306.0Q900 1306 897 1307L899 1304Q907 1293 911.0 1284.5Q915 1276 915 1262Q915 1238 898.0 1220.0Q881 1202 856 1202Q833 1202 818.0 1215.0Q803 1228 795 1248Q787 1228 772.0 1215.0Q757 1202 734 1202Q708 1202 691.5 1220.0Q675 1238 675 1263Q675 1276 679.0 1284.5Q683 1293 690 1303L693 1307Q690 1307 687.0 1306.5Q684 1306 681 1306Q655 1306 635.0 1321.5Q615 1337 615 1366Q615 1391 632.5 1408.5Q650 1426 675 1426Q680 1426 684.0 1425.5Q688 1425 693 1425Q675 1445 675 1469Q675 1494 692.5 1511.5Q710 1529 735 1529Q757 1529 772.5 1516.0Q788 1503 795 1483Q802 1503 817.5 1516.0Q833 1529 855 1529Q880 1529 897.5 1512.0Q915 1495 915 1470Q915 1456 910.0 1446.0Q905 1436 897 1425ZM874 1348Q879 1348 883.5 1347.5Q888 1347 893 1347Q903 1347 914.0 1350.0Q925 1353 925 1366Q925 1378 915.0 1381.5Q905 1385 894 1385Q888 1385 883.0 1384.5Q878 1384 874 1384Q868 1409 850 1425Q855 1433 862.0 1443.5Q869 1454 869 1463Q869 1471 864.5 1476.0Q860 1481 852 1481Q840 1481 832.5 1468.5Q825 1456 820 1446Q820 1445 819.5 1444.5Q819 1444 819 1443Q808 1447 795 1447Q782 1447 771 1443Q766 1452 760.0 1464.5Q754 1477 741 1477Q724 1477 724 1459Q724 1450 729.5 1441.0Q735 1432 740 1425Q722 1409 716 1384Q711 1384 706.5 1384.5Q702 1385 697 1385Q687 1385 676.0 1382.0Q665 1379 665 1366Q665 1354 675.0 1350.5Q685 1347 696 1347Q702 1347 707.0 1347.5Q712 1348 716 1348Q722 1323 740 1307Q735 1299 728.0 1288.5Q721 1278 721 1269Q721 1251 739 1251Q751 1251 759.0 1265.5Q767 1280 771 1289Q782 1285 795 1285Q808 1285 819 1289Q823 1280 831.0 1265.5Q839 1251 851 1251Q869 1251 869 1269Q869 1278 862.0 1288.5Q855 1299 850 1307Q868 1323 874 1348ZM1441 1617Q1493 1617 1539.0 1597.5Q1585 1578 1619.0 1544.0Q1653 1510 1673.0 1464.0Q1693 1418 1693 1366Q1693 1313 1673.5 1267.5Q1654 1222 1620.0 1188.0Q1586 1154 1540.0 1134.5Q1494 1115 1442 1115Q1390 1115 1344.0 1134.5Q1298 1154 1264.0 1188.0Q1230 1222 1210.5 1267.5Q1191 1313 1191 1365Q1191 1417 1210.5 1462.5Q1230 1508 1264.0 1542.5Q1298 1577 1343.5 1597.0Q1389 1617 1441 1617ZM1443 1150Q1488 1150 1527.0 1167.0Q1566 1184 1595.5 1213.5Q1625 1243 1641.5 1282.5Q1658 1322 1658 1367Q1658 1412 1641.0 1451.0Q1624 1490 1594.5 1519.5Q1565 1549 1525.5 1565.5Q1486 1582 1441 1582Q1396 1582 1357.0 1565.0Q1318 1548 1288.5 1518.5Q1259 1489 1242.5 1449.5Q1226 1410 1226 1365Q1226 1320 1243.0 1281.0Q1260 1242 1289.5 1212.5Q1319 1183 1358.5 1166.5Q1398 1150 1443 1150ZM1544 1425Q1549 1425 1553.0 1425.5Q1557 1426 1562 1426Q1587 1426 1604.5 1408.5Q1622 1391 1622 1366Q1622 1337 1602.5 1321.5Q1583 1306 1557 1306Q1554 1306 1550.5 1306.0Q1547 1306 1544 1307L1547 1303Q1554 1293 1558.0 1284.5Q1562 1276 1562 1263Q1562 1237 1545.0 1219.5Q1528 1202 1502 1202Q1479 1202 1464.5 1215.0Q1450 1228 1442 1248Q1434 1228 1419.0 1215.0Q1404 1202 1381 1202Q1356 1202 1339.0 1220.0Q1322 1238 1322 1262Q1322 1286 1340 1307Q1337 1307 1334.0 1306.5Q1331 1306 1328 1306Q1302 1306 1282.0 1321.5Q1262 1337 1262 1366Q1262 1391 1279.5 1408.5Q1297 1426 1322 1426Q1327 1426 1331.0 1425.5Q1335 1425 1340 1425Q1332 1436 1327.0 1446.0Q1322 1456 1322 1470Q1322 1495 1339.5 1512.0Q1357 1529 1382 1529Q1404 1529 1419.5 1516.0Q1435 1503 1442 1483Q1449 1503 1464.0 1516.0Q1479 1529 1501 1529Q1527 1529 1544.5 1512.0Q1562 1495 1562 1469Q1562 1445 1544 1425ZM1521 1348Q1526 1348 1530.5 1347.5Q1535 1347 1540 1347Q1550 1347 1561.0 1350.0Q1572 1353 1572 1366Q1572 1378 1562.0 1381.5Q1552 1385 1541 1385Q1535 1385 1530.0 1384.5Q1525 1384 1521 1384Q1515 1407 1497 1425Q1502 1433 1509.0 1443.5Q1516 1454 1516 1463Q1516 1481 1498 1481Q1484 1481 1478.0 1467.0Q1472 1453 1466 1443Q1455 1447 1442 1447Q1429 1447 1418 1443Q1413 1451 1406.0 1464.0Q1399 1477 1387 1477Q1379 1477 1374.5 1472.0Q1370 1467 1370 1459Q1370 1450 1376.0 1441.0Q1382 1432 1387 1425Q1369 1409 1363 1384Q1358 1384 1353.5 1384.5Q1349 1385 1344 1385Q1334 1385 1323.0 1382.0Q1312 1379 1312 1366Q1312 1354 1322.0 1350.5Q1332 1347 1343 1347Q1349 1347 1354.0 1347.5Q1359 1348 1363 1348Q1369 1323 1387 1307Q1382 1299 1375.0 1288.5Q1368 1278 1368 1269Q1368 1251 1386 1251Q1398 1251 1406.0 1265.5Q1414 1280 1418 1289Q1429 1285 1442 1285Q1455 1285 1466 1289Q1472 1279 1478.0 1265.0Q1484 1251 1498 1251Q1516 1251 1516 1269Q1516 1278 1509.0 1288.5Q1502 1299 1497 1307Q1515 1325 1521 1348ZM795 323Q847 323 893.0 303.5Q939 284 973.0 250.0Q1007 216 1026.5 170.0Q1046 124 1046 72Q1046 20 1026.5 -25.5Q1007 -71 973.0 -105.0Q939 -139 893.5 -159.0Q848 -179 796 -179Q744 -179 698.0 -159.5Q652 -140 618.0 -106.0Q584 -72 564.0 -26.0Q544 20 544 72Q544 124 563.5 170.0Q583 216 617.0 250.0Q651 284 696.5 303.5Q742 323 795 323ZM796 -144Q841 -144 880.0 -127.0Q919 -110 948.5 -80.5Q978 -51 994.5 -11.5Q1011 28 1011 73Q1011 118 994.0 157.0Q977 196 947.5 225.5Q918 255 878.5 271.5Q839 288 794 288Q749 288 710.0 271.0Q671 254 641.5 224.5Q612 195 595.5 155.5Q579 116 579 71Q579 26 596.0 -13.0Q613 -52 642.5 -81.5Q672 -111 711.5 -127.5Q751 -144 796 -144ZM897 131Q900 131 903.0 131.5Q906 132 909 132Q935 132 955.0 116.5Q975 101 975 72Q975 47 957.5 29.5Q940 12 915 12Q910 12 906.0 12.5Q902 13 897 13Q905 2 910.0 -8.0Q915 -18 915 -32Q915 -57 898.0 -74.5Q881 -92 856 -92Q833 -92 817.5 -79.0Q802 -66 795 -45Q788 -66 772.5 -79.0Q757 -92 734 -92Q709 -92 692.0 -74.0Q675 -56 675 -31Q675 -7 693 13Q688 13 684.0 12.5Q680 12 675 12Q650 12 632.5 29.5Q615 47 615 72Q615 97 632.5 114.5Q650 132 675 132Q680 132 684.0 131.5Q688 131 693 131Q685 142 680.0 151.0Q675 160 675 175Q675 200 692.0 218.0Q709 236 734 236Q757 236 772.5 223.0Q788 210 795 189Q802 210 817.5 223.0Q833 236 856 236Q881 236 898.0 218.5Q915 201 915 176Q915 162 911.0 153.5Q907 145 899 134ZM874 54Q879 54 883.5 53.5Q888 53 893 53Q903 53 914.0 56.0Q925 59 925 72Q925 84 915.0 87.5Q905 91 894 91Q888 91 883.0 90.5Q878 90 874 90Q868 115 850 131Q855 139 862.0 149.5Q869 160 869 169Q869 177 864.5 182.0Q860 187 852 187Q840 187 832.5 174.5Q825 162 820 152Q820 151 819.5 150.5Q819 150 819 149Q808 153 795 153Q782 153 771 149Q766 158 760.0 170.5Q754 183 741 183Q724 183 724 165Q724 156 729.5 147.0Q735 138 740 131Q722 115 716 90Q711 90 706.5 90.5Q702 91 697 91Q687 91 676.0 88.0Q665 85 665 72Q665 60 675.0 56.5Q685 53 696 53Q702 53 707.0 53.5Q712 54 716 54Q722 29 740 13Q735 5 728.0 -5.5Q721 -16 721 -25Q721 -43 739 -43Q751 -43 759.0 -28.5Q767 -14 771 -5Q782 -9 795 -9Q808 -9 819 -5Q823 -14 831.0 -28.5Q839 -43 851 -43Q869 -43 869 -25Q869 -16 862.0 -5.5Q855 5 850 13Q868 29 874 54ZM1441 323Q1493 323 1539.0 303.5Q1585 284 1619.0 250.0Q1653 216 1673.0 170.0Q1693 124 1693 72Q1693 19 1673.5 -26.5Q1654 -72 1620.0 -106.0Q1586 -140 1540.0 -159.5Q1494 -179 1442 -179Q1389 -179 1343.5 -159.5Q1298 -140 1264.0 -106.0Q1230 -72 1210.5 -26.5Q1191 19 1191 72Q1191 124 1210.5 169.5Q1230 215 1264.0 249.0Q1298 283 1343.5 303.0Q1389 323 1441 323ZM1443 -144Q1488 -144 1527.0 -127.0Q1566 -110 1595.5 -80.5Q1625 -51 1641.5 -11.5Q1658 28 1658 73Q1658 118 1641.0 157.0Q1624 196 1594.5 225.5Q1565 255 1525.5 271.5Q1486 288 1441 288Q1396 288 1357.0 271.0Q1318 254 1288.5 224.5Q1259 195 1242.5 155.5Q1226 116 1226 71Q1226 26 1243.0 -13.0Q1260 -52 1289.5 -81.5Q1319 -111 1358.5 -127.5Q1398 -144 1443 -144ZM1544 131Q1547 131 1550.0 131.5Q1553 132 1556 132Q1582 132 1602.0 116.5Q1622 101 1622 72Q1622 47 1604.5 29.5Q1587 12 1562 12Q1557 12 1553.0 12.5Q1549 13 1544 13Q1562 -7 1562 -31Q1562 -57 1545.0 -74.5Q1528 -92 1502 -92Q1480 -92 1464.5 -78.5Q1449 -65 1442 -45Q1435 -66 1419.5 -79.0Q1404 -92 1381 -92Q1356 -92 1339.0 -74.5Q1322 -57 1322 -32Q1322 -20 1327.0 -7.5Q1332 5 1340 13Q1335 13 1331.0 12.5Q1327 12 1322 12Q1297 12 1279.5 29.5Q1262 47 1262 72Q1262 97 1279.5 114.5Q1297 132 1322 132Q1327 132 1331.0 131.5Q1335 131 1340 131L1338 134Q1330 145 1326.0 153.5Q1322 162 1322 176Q1322 201 1339.0 218.5Q1356 236 1381 236Q1404 236 1419.5 223.0Q1435 210 1442 189Q1449 209 1464.5 222.5Q1480 236 1502 236Q1528 236 1545.0 218.5Q1562 201 1562 175Q1562 160 1557.0 151.0Q1552 142 1544 131ZM1521 54Q1526 54 1530.5 53.5Q1535 53 1540 53Q1550 53 1561.0 56.0Q1572 59 1572 72Q1572 84 1562.0 87.5Q1552 91 1541 91Q1535 91 1530.0 90.5Q1525 90 1521 90Q1515 113 1497 131Q1502 139 1509.0 149.5Q1516 160 1516 169Q1516 187 1498 187Q1484 187 1478.0 173.0Q1472 159 1466 149Q1455 153 1442 153Q1429 153 1418 149Q1413 157 1406.0 170.0Q1399 183 1387 183Q1379 183 1374.5 178.0Q1370 173 1370 165Q1370 156 1376.0 147.0Q1382 138 1387 131Q1369 115 1363 90Q1358 90 1353.5 90.5Q1349 91 1344 91Q1334 91 1323.0 88.0Q1312 85 1312 72Q1312 60 1322.0 56.5Q1332 53 1343 53Q1349 53 1354.0 53.5Q1359 54 1363 54Q1369 29 1387 13Q1382 5 1375.0 -5.5Q1368 -16 1368 -25Q1368 -43 1386 -43Q1398 -43 1406.0 -28.5Q1414 -14 1418 -5Q1429 -9 1442 -9Q1455 -9 1466 -5Q1472 -15 1478.0 -29.0Q1484 -43 1498 -43Q1516 -43 1516 -25Q1516 -16 1509.0 -5.5Q1502 5 1497 13Q1515 31 1521 54Z" style="fill:#1c1c1c;stroke:none" transform="scale(1,-1) translate(0,-256)" /></svg>