<?xml version="1.0" encoding="utf-8" ?>
<svg baseProfile="full" height="256" version="1.1" width="256" xmlns="http://www.w3.org/2000/svg" xmlns:ev="http://www.w3.org/2001/xml-events" xmlns:xlink="http://www.w3.org/1999/xlink"><defs /><path d="M541 205Q471 322 435.5 452.5Q400 583 400 719Q400 875 446.0 1020.0Q492 1165 576.0 1288.0Q660 1411 778.5 1506.5Q897 1602 1043 1658L1199 1553Q1262 1510 1338 1510H1664Q1681 1510 1686.0 1498.5Q1691 1487 1694.5 1473.5Q1698 1460 1705.5 1449.0Q1713 1438 1736 1438H1944Q1959 1438 1969.5 1427.5Q1980 1417 1980 1402Q1980 1387 1969.5 1376.5Q1959 1366 1944 1366H1831Q1802 1366 1777.0 1355.0Q1752 1344 1733.5 1325.5Q1715 1307 1704.0 1281.5Q1693 1256 1693 1228V1186Q1693 1171 1682.5 1160.5Q1672 1150 1657 1150Q1633 1150 1626.5 1166.0Q1620 1182 1620 1202Q1620 1210 1620.5 1216.5Q1621 1223 1621 1231Q1621 1257 1602.5 1275.5Q1584 1294 1558 1294H1441Q1426 1294 1415.5 1283.5Q1405 1273 1405 1258Q1405 1234 1421.5 1228.0Q1438 1222 1458 1222H1481Q1509 1222 1529.0 1202.5Q1549 1183 1549 1155Q1549 1123 1533.0 1100.5Q1517 1078 1482 1078Q1456 1078 1441.0 1068.0Q1426 1058 1417.5 1042.0Q1409 1026 1406.5 1006.0Q1404 986 1404 965Q1404 948 1405.0 932.0Q1406 916 1406 899Q1406 879 1394.5 873.0Q1383 867 1369.5 863.0Q1356 859 1345.0 853.0Q1334 847 1334 827V689Q1334 672 1321.5 659.5Q1309 647 1292 647Q1272 647 1260.5 663.0Q1249 679 1241.0 703.0Q1233 727 1227.0 755.0Q1221 783 1212.0 807.0Q1203 831 1189.0 847.0Q1175 863 1152 863Q1137 863 1123.5 855.0Q1110 847 1103 833L987 600Q974 575 947 575Q932 575 923.0 581.0Q914 587 909.0 597.0Q904 607 902.5 619.0Q901 631 901 643Q901 654 901.5 665.0Q902 676 902 687Q902 699 896.5 705.5Q891 712 883.0 715.0Q875 718 866.0 720.0Q857 722 849.0 725.5Q841 729 835.5 736.5Q830 744 830 758Q830 770 831.5 787.5Q833 805 831.0 822.0Q829 839 821.0 851.0Q813 863 794 863Q770 863 763.5 847.0Q757 831 757 811Q757 783 753.0 765.0Q749 747 738.5 736.5Q728 726 709.5 722.0Q691 718 663 718Q643 718 633.5 723.5Q624 729 619.5 737.0Q615 745 613.5 754.5Q612 764 609.0 772.0Q606 780 599.5 785.5Q593 791 578 791Q564 791 553.5 780.5Q543 770 543 756V719Q543 689 564.0 668.0Q585 647 615 647Q637 647 651.5 638.0Q666 629 673.5 615.0Q681 601 684.0 583.0Q687 565 687 547Q687 528 681.5 519.0Q676 510 668.0 506.0Q660 502 651.0 501.0Q642 500 634.0 496.5Q626 493 620.5 485.5Q615 478 615 461Q615 409 617.5 378.0Q620 347 615.5 322.5Q611 298 594.5 272.0Q578 246 541 205ZM1550 529V596Q1550 616 1565.0 632.5Q1580 649 1601 649Q1612 649 1621.0 644.5Q1630 640 1637 633L1751 519Q1766 504 1766 483Q1766 456 1747.5 444.0Q1729 432 1705 432Q1695 432 1678.0 438.0Q1661 444 1643.0 452.5Q1625 461 1607.5 469.5Q1590 478 1580 483Q1550 497 1550 529ZM1368 575Q1384 575 1395.0 564.0Q1406 553 1406 537V469Q1406 453 1395.0 442.0Q1384 431 1368 431H1300Q1284 431 1272.5 442.0Q1261 453 1261 469V537Q1261 553 1272.5 564.0Q1284 575 1300 575ZM1118 539Q1118 554 1128.5 564.5Q1139 575 1154 575Q1169 575 1179.5 564.5Q1190 554 1190 539V467Q1190 452 1179.5 441.5Q1169 431 1154 431Q1139 431 1128.5 441.5Q1118 452 1118 467ZM1477 913Q1477 934 1492 949L1606 1063Q1621 1078 1642 1078Q1663 1078 1678.0 1063.0Q1693 1048 1693 1027Q1693 1006 1678 991L1564 877Q1549 862 1528 862Q1507 862 1492.0 877.0Q1477 892 1477 913ZM2002 144Q2023 144 2038.0 129.0Q2053 114 2053 93Q2053 72 2038 57L1923 -57Q1915 -64 1907.0 -68.0Q1899 -72 1888 -72Q1867 -72 1851.5 -57.5Q1836 -43 1836 -21Q1836 -10 1840.5 -1.0Q1845 8 1852 15L1966 129Q1981 144 2002 144ZM1334 235Q1334 259 1348.0 277.5Q1362 296 1384 304Q1397 309 1422.0 318.0Q1447 327 1474.0 336.0Q1501 345 1525.0 352.0Q1549 359 1561 359H1675Q1693 359 1709 351L1796 307Q1815 297 1825.5 279.5Q1836 262 1836 241V160Q1836 147 1830.5 131.0Q1825 115 1817.0 98.5Q1809 82 1800.0 67.0Q1791 52 1785 40Q1774 21 1757.5 10.0Q1741 -1 1719 -1H1651Q1628 -1 1613.0 10.5Q1598 22 1585.0 35.5Q1572 49 1557.0 60.5Q1542 72 1518 72H1408Q1377 72 1355.5 93.5Q1334 115 1334 146Z" style="fill:#00d26a;stroke:none" transform="scale(1,-1) translate(0,-256)" /></svg>