<?xml version="1.0" encoding="utf-8" ?>
<svg baseProfile="full" height="256" version="1.1" width="256" xmlns="http://www.w3.org/2000/svg" xmlns:ev="http://www.w3.org/2001/xml-events" xmlns:xlink="http://www.w3.org/1999/xlink"><defs /><path d="M1046 863Q1016 863 995.5 884.0Q975 905 975 935Q975 958 989 978Q1000 994 1015.5 1008.5Q1031 1023 1046 1035Q1122 1095 1216.0 1122.5Q1310 1150 1406 1150Q1502 1150 1596.0 1122.5Q1690 1095 1766 1035Q1781 1023 1796.5 1008.5Q1812 994 1823 978Q1837 958 1837 935Q1837 906 1816.0 884.5Q1795 863 1766 863Q1731 863 1708 891Q1681 922 1645.5 944.0Q1610 966 1570.0 979.5Q1530 993 1488.0 999.5Q1446 1006 1406 1006Q1366 1006 1324.0 999.5Q1282 993 1242.0 979.5Q1202 966 1166.5 944.0Q1131 922 1104 891Q1092 877 1078.0 870.0Q1064 863 1046 863Z" style="fill:#402a32;stroke:none" transform="scale(1,-1) translate(0,-256)" /></svg>