<?xml version="1.0" encoding="utf-8" ?>
<svg baseProfile="full" height="256" version="1.1" width="256" xmlns="http://www.w3.org/2000/svg" xmlns:ev="http://www.w3.org/2001/xml-events" xmlns:xlink="http://www.w3.org/1999/xlink"><defs /><path d="M1005 735Q1068 735 1123.0 711.5Q1178 688 1219.0 647.0Q1260 606 1283.5 551.0Q1307 496 1307 433Q1307 370 1283.5 315.0Q1260 260 1219.0 219.0Q1178 178 1123.0 154.0Q1068 130 1005 130Q942 130 887.0 154.0Q832 178 791.0 219.0Q750 260 726.5 315.0Q703 370 703 433Q703 496 726.5 551.0Q750 606 791.0 647.0Q832 688 887.0 711.5Q942 735 1005 735ZM1806 741Q1869 741 1924.5 717.0Q1980 693 2021.5 651.5Q2063 610 2087.0 554.5Q2111 499 2111 436Q2111 373 2087.0 317.0Q2063 261 2022.0 219.5Q1981 178 1925.0 154.0Q1869 130 1806 130Q1743 130 1687.5 154.0Q1632 178 1590.5 220.0Q1549 262 1525.0 317.5Q1501 373 1501 436Q1501 499 1525.0 554.5Q1549 610 1590.5 651.5Q1632 693 1687.5 717.0Q1743 741 1806 741Z" style="fill:#ffffff;stroke:none" transform="scale(1,-1) translate(0,-256)" /></svg>