<?xml version="1.0" encoding="utf-8" ?>
<svg baseProfile="full" height="256" version="1.1" width="256" xmlns="http://www.w3.org/2000/svg" xmlns:ev="http://www.w3.org/2001/xml-events" xmlns:xlink="http://www.w3.org/1999/xlink"><defs /><path d="M2189 -214Q2174 -214 2159.5 -208.0Q2145 -202 2134 -191L1415 495Q1377 530 1357.0 578.5Q1337 627 1337 678Q1337 730 1356.5 776.5Q1376 823 1410.5 857.5Q1445 892 1491.0 912.0Q1537 932 1590 932Q1662 932 1723.5 894.5Q1785 857 1817 792L2261 -98Q2270 -115 2270 -133Q2270 -166 2246.0 -190.0Q2222 -214 2189 -214Z" style="fill:#8c5543;stroke:none" transform="scale(1,-1) translate(0,-256)" /></svg>