<?xml version="1.0" encoding="utf-8" ?>
<svg baseProfile="full" height="256" version="1.1" width="256" xmlns="http://www.w3.org/2000/svg" xmlns:ev="http://www.w3.org/2001/xml-events" xmlns:xlink="http://www.w3.org/1999/xlink"><defs /><path d="M1083 575Q1097 575 1107.5 564.0Q1118 553 1118 539V180Q1118 68 1076.5 -29.5Q1035 -127 942 -194Q880 -239 803.5 -263.0Q727 -287 651 -287Q636 -287 625.5 -276.5Q615 -266 615 -251Q615 -237 626.0 -226.0Q637 -215 651 -215Q716 -215 781.5 -194.0Q847 -173 900 -136Q979 -80 1013.0 3.0Q1047 86 1047 180V539Q1047 554 1057.5 564.5Q1068 575 1083 575ZM1370 575Q1355 575 1344.5 564.5Q1334 554 1334 539V180Q1334 71 1378.0 -21.5Q1422 -114 1510 -179Q1536 -198 1572.0 -217.5Q1608 -237 1647.0 -252.5Q1686 -268 1725.5 -277.5Q1765 -287 1798 -287Q1812 -287 1824.5 -278.5Q1837 -270 1837 -254Q1837 -222 1804 -216Q1792 -214 1779.5 -212.5Q1767 -211 1754 -208Q1700 -197 1649.0 -175.5Q1598 -154 1553 -121Q1478 -66 1442.0 11.0Q1406 88 1406 180V539Q1406 554 1395.5 564.5Q1385 575 1370 575ZM1262 467Q1262 482 1251.5 492.5Q1241 503 1226 503Q1211 503 1200.5 492.5Q1190 482 1190 467V-251Q1190 -266 1200.5 -276.5Q1211 -287 1226 -287Q1241 -287 1251.5 -276.5Q1262 -266 1262 -251ZM849 443 760 498Q754 486 735.5 447.5Q717 409 690.5 354.5Q664 300 632.0 234.0Q600 168 567.5 100.5Q535 33 505.0 -30.5Q475 -94 451.0 -144.5Q427 -195 413.0 -226.5Q399 -258 399 -262Q399 -273 406.5 -280.0Q414 -287 424 -287Q438 -287 446 -274Z" style="fill:#402a32;stroke:none" transform="scale(1,-1) translate(0,-256)" /></svg>