<?xml version="1.0" encoding="utf-8" ?>
<svg baseProfile="full" height="256" version="1.1" width="256" xmlns="http://www.w3.org/2000/svg" xmlns:ev="http://www.w3.org/2001/xml-events" xmlns:xlink="http://www.w3.org/1999/xlink"><defs /><path d="M1226 431Q1159 431 1100.5 456.5Q1042 482 998.0 526.0Q954 570 928.5 629.0Q903 688 903 755Q903 822 928.5 880.5Q954 939 998.0 983.0Q1042 1027 1100.5 1052.5Q1159 1078 1226 1078Q1272 1078 1316 1066L1380 1078L1406 1024Q1474 979 1512.0 907.5Q1550 836 1550 755Q1550 688 1524.5 629.0Q1499 570 1455.0 526.0Q1411 482 1352.0 456.5Q1293 431 1226 431ZM831 360Q801 360 775.0 371.0Q749 382 729.5 401.5Q710 421 698.5 447.0Q687 473 687 503Q687 533 698.5 559.0Q710 585 729.5 604.5Q749 624 775.0 635.5Q801 647 831 647Q861 647 887.0 635.5Q913 624 932.5 604.5Q952 585 963.5 559.0Q975 533 975 503Q975 473 963.5 447.0Q952 421 932.5 401.5Q913 382 887.0 371.0Q861 360 831 360Z" style="fill:#7d4533;stroke:none" transform="scale(1,-1) translate(0,-256)" /></svg>