<?xml version="1.0" encoding="utf-8" ?>
<svg baseProfile="full" height="256" version="1.1" width="256" xmlns="http://www.w3.org/2000/svg" xmlns:ev="http://www.w3.org/2001/xml-events" xmlns:xlink="http://www.w3.org/1999/xlink"><defs /><path d="M2258 1726Q2290 1726 2318.5 1714.0Q2347 1702 2368.0 1681.0Q2389 1660 2401.0 1631.5Q2413 1603 2413 1571Q2413 1530 2394.0 1496.0Q2375 1462 2340 1440Q2235 1374 2132.5 1309.0Q2030 1244 1924 1180Q1793 1100 1662.5 1023.0Q1532 946 1400 868Q1392 863 1379 863Q1362 863 1350.5 874.5Q1339 886 1339 903Q1339 921 1351 933Q1457 1036 1561.5 1138.5Q1666 1241 1774 1342Q1868 1430 1963.0 1514.5Q2058 1599 2154 1686Q2175 1706 2202.0 1716.0Q2229 1726 2258 1726ZM1315 1066Q1363 1053 1407 1023L1747 1546Q1765 1573 1765 1608Q1765 1632 1756.0 1653.0Q1747 1674 1731.5 1690.0Q1716 1706 1695.0 1715.0Q1674 1724 1650 1724Q1615 1724 1585.5 1704.0Q1556 1684 1543 1651Z" style="fill:#f4f4f4;stroke:none" transform="scale(1,-1) translate(0,-256)" /></svg>