<?xml version="1.0" encoding="utf-8" ?>
<svg baseProfile="full" height="256" version="1.1" width="256" xmlns="http://www.w3.org/2000/svg" xmlns:ev="http://www.w3.org/2001/xml-events" xmlns:xlink="http://www.w3.org/1999/xlink"><defs /><path d="M938 1725Q957 1725 966 1710L1031 1601Q1038 1590 1042.5 1574.0Q1047 1558 1047 1545Q1047 1523 1038.5 1503.5Q1030 1484 1015.0 1469.0Q1000 1454 980.5 1445.5Q961 1437 939 1437Q916 1437 896.5 1445.5Q877 1454 862.5 1468.5Q848 1483 839.5 1502.5Q831 1522 831 1545Q831 1574 847 1601L911 1710Q916 1718 923.0 1721.5Q930 1725 938 1725ZM1406 1725Q1425 1725 1434 1710L1498 1601Q1514 1574 1514 1545Q1514 1522 1505.5 1502.5Q1497 1483 1482.5 1468.5Q1468 1454 1448.0 1445.5Q1428 1437 1406 1437Q1383 1437 1363.5 1445.5Q1344 1454 1330.0 1469.0Q1316 1484 1307.5 1503.5Q1299 1523 1299 1546Q1299 1575 1315 1601L1379 1710Q1384 1718 1391.0 1721.5Q1398 1725 1406 1725ZM1981 1545Q1981 1522 1972.5 1502.5Q1964 1483 1949.5 1468.5Q1935 1454 1915.0 1445.5Q1895 1437 1873 1437Q1850 1437 1830.5 1445.5Q1811 1454 1797.0 1468.5Q1783 1483 1774.5 1502.5Q1766 1522 1766 1545Q1766 1574 1782 1601L1846 1710Q1851 1718 1858.0 1721.5Q1865 1725 1873 1725Q1892 1725 1901 1710L1965 1601Q1981 1574 1981 1545Z" style="fill:#fcd53f;stroke:none" transform="scale(1,-1) translate(0,-256)" /></svg>