<?xml version="1.0" encoding="utf-8" ?>
<svg baseProfile="full" height="256" version="1.1" width="256" xmlns="http://www.w3.org/2000/svg" xmlns:ev="http://www.w3.org/2001/xml-events" xmlns:xlink="http://www.w3.org/1999/xlink"><defs /><path d="M939 1643Q946 1634 956.5 1622.5Q967 1611 976.5 1598.0Q986 1585 993.0 1571.5Q1000 1558 1000 1545Q1000 1519 982.5 1501.5Q965 1484 939 1484Q913 1484 895.5 1501.5Q878 1519 878 1545Q878 1558 884.5 1571.5Q891 1585 901.0 1598.0Q911 1611 921.0 1622.5Q931 1634 939 1643ZM1406 1643Q1398 1633 1387.5 1621.5Q1377 1610 1367.5 1597.5Q1358 1585 1351.5 1571.5Q1345 1558 1345 1544Q1345 1518 1362.5 1500.5Q1380 1483 1406 1483Q1432 1483 1449.5 1500.5Q1467 1518 1467 1544Q1467 1558 1460.5 1571.5Q1454 1585 1444.5 1597.5Q1435 1610 1424.5 1621.5Q1414 1633 1406 1643ZM1873 1643Q1865 1634 1855.0 1622.0Q1845 1610 1835.0 1597.5Q1825 1585 1818.5 1571.0Q1812 1557 1812 1544Q1812 1518 1829.5 1500.5Q1847 1483 1873 1483Q1899 1483 1916.5 1500.5Q1934 1518 1934 1544Q1934 1558 1927.5 1571.5Q1921 1585 1911.5 1597.5Q1902 1610 1891.5 1621.5Q1881 1633 1873 1643Z" style="fill:#ffb02e;stroke:none" transform="scale(1,-1) translate(0,-256)" /></svg>