<?xml version="1.0" encoding="utf-8" ?>
<svg baseProfile="full" height="256" version="1.1" width="256" xmlns="http://www.w3.org/2000/svg" xmlns:ev="http://www.w3.org/2001/xml-events" xmlns:xlink="http://www.w3.org/1999/xlink"><defs /><path d="M723 1078Q739 1078 749 1068L820 996Q830 986 830 970Q830 956 820.0 945.0Q810 934 795 934Q781 934 770 945L698 1017Q687 1028 687 1042Q687 1057 698.0 1067.5Q709 1078 723 1078ZM1657 862Q1673 862 1683 852L1755 780Q1765 770 1765 755Q1765 740 1755.0 729.0Q1745 718 1729 718Q1715 718 1704 729L1632 801Q1621 812 1621 826Q1621 841 1632.0 851.5Q1643 862 1657 862Z" style="fill:#ff6dc6;stroke:none" transform="scale(1,-1) translate(0,-256)" /></svg>