<?xml version="1.0" encoding="utf-8" ?>
<svg baseProfile="full" height="256" version="1.1" width="256" xmlns="http://www.w3.org/2000/svg" xmlns:ev="http://www.w3.org/2001/xml-events" xmlns:xlink="http://www.w3.org/1999/xlink"><defs /><path d="M2124 1042Q2124 1027 2114 1017L2042 945Q2031 934 2017 934Q2002 934 1991.0 944.5Q1980 955 1980 970Q1980 985 1991 996L2063 1068Q2073 1078 2088 1078Q2103 1078 2113.5 1067.5Q2124 1057 2124 1042ZM1118 826Q1118 811 1108 801L1036 729Q1025 718 1010 718Q995 718 984.5 729.0Q974 740 974 755Q974 769 985 780L1057 852Q1067 862 1082 862Q1097 862 1107.5 851.5Q1118 841 1118 826Z" style="fill:#ff822d;stroke:none" transform="scale(1,-1) translate(0,-256)" /></svg>