<?xml version="1.0" encoding="utf-8" ?>
<svg baseProfile="full" height="256" version="1.1" width="256" xmlns="http://www.w3.org/2000/svg" xmlns:ev="http://www.w3.org/2001/xml-events" xmlns:xlink="http://www.w3.org/1999/xlink"><defs /><path d="M2412 719Q2412 580 2376.0 451.5Q2340 323 2274.5 211.0Q2209 99 2117.5 7.5Q2026 -84 1914.0 -149.5Q1802 -215 1673.5 -251.0Q1545 -287 1406 -287Q1267 -287 1138.5 -251.0Q1010 -215 898.0 -149.5Q786 -84 694.5 7.5Q603 99 537.5 211.0Q472 323 436.0 451.5Q400 580 400 719Q400 858 436.0 986.5Q472 1115 537.5 1227.0Q603 1339 694.5 1430.5Q786 1522 898.0 1587.5Q1010 1653 1138.5 1689.0Q1267 1725 1406 1725Q1545 1725 1673.5 1689.0Q1802 1653 1914.0 1587.5Q2026 1522 2117.5 1430.5Q2209 1339 2274.5 1227.0Q2340 1115 2376.0 986.5Q2412 858 2412 719ZM1406 -215Q1535 -215 1654.5 -181.5Q1774 -148 1877.5 -87.5Q1981 -27 2066.5 58.5Q2152 144 2212.5 247.5Q2273 351 2306.5 470.5Q2340 590 2340 719Q2340 848 2306.5 967.5Q2273 1087 2212.5 1190.5Q2152 1294 2066.5 1379.5Q1981 1465 1877.5 1525.5Q1774 1586 1654.5 1619.5Q1535 1653 1406 1653Q1277 1653 1157.5 1619.5Q1038 1586 934.5 1525.5Q831 1465 745.5 1379.5Q660 1294 599.5 1190.5Q539 1087 505.5 967.5Q472 848 472 719Q472 590 505.5 470.5Q539 351 599.5 247.5Q660 144 745.5 58.5Q831 -27 934.5 -87.5Q1038 -148 1157.5 -181.5Q1277 -215 1406 -215Z" style="fill:#1c5cd7;stroke:none" transform="scale(1,-1) translate(0,-256)" /></svg>