<?xml version="1.0" encoding="utf-8" ?>
<svg baseProfile="full" height="256" version="1.1" width="256" xmlns="http://www.w3.org/2000/svg" xmlns:ev="http://www.w3.org/2001/xml-events" xmlns:xlink="http://www.w3.org/1999/xlink"><defs /><path d="M1283 1645Q1281 1628 1271.5 1612.0Q1262 1596 1246 1588Q1236 1583 1213.5 1570.0Q1191 1557 1162.0 1540.5Q1133 1524 1101.5 1506.0Q1070 1488 1042.0 1473.0Q1014 1458 993.5 1447.5Q973 1437 966 1435L777 1388Q771 1386 764.5 1386.0Q758 1386 752 1386Q861 1492 996.5 1558.5Q1132 1625 1283 1645ZM508 460Q489 523 480.5 588.0Q472 653 472 719Q472 794 483.5 867.5Q495 941 519 1013Q521 999 525.0 974.0Q529 949 533.0 922.0Q537 895 540.0 870.5Q543 846 543 834V467ZM2007 3Q1911 -77 1798.5 -129.5Q1686 -182 1563 -202L1586 -179Q1667 -143 1747.5 -107.0Q1828 -71 1909 -36Q1933 -25 1957.5 -16.0Q1982 -7 2007 3ZM2306 971Q2323 909 2331.5 846.0Q2340 783 2340 719Q2340 634 2325.0 551.0Q2310 468 2280 389Q2263 412 2253.5 439.5Q2244 467 2244 496Q2244 519 2250.5 537.5Q2257 556 2268 575Q2283 600 2292.0 630.0Q2301 660 2305.5 691.5Q2310 723 2311.5 755.0Q2313 787 2313 816Q2313 894 2304 971ZM1895 1515Q1939 1488 1977 1459L2094 1271Q2105 1252 2105 1232Q2105 1203 2084 1182L2021 1118Q2000 1097 1969 1097Q1949 1097 1933 1107L1656 1273Q1640 1283 1631.0 1299.5Q1622 1316 1622 1335V1465Q1622 1495 1643.0 1516.0Q1664 1537 1694 1537Q1712 1537 1738.0 1534.5Q1764 1532 1792.5 1528.5Q1821 1525 1848.5 1521.0Q1876 1517 1895 1515ZM775 938Q775 959 787 977L948 1218Q958 1233 974.5 1241.5Q991 1250 1009 1250Q1012 1250 1015.5 1250.0Q1019 1250 1022 1249L1276 1198Q1301 1193 1317.5 1173.0Q1334 1153 1334 1127V839Q1334 817 1321.5 799.0Q1309 781 1289 773L1026 668Q1012 662 999 662Q963 662 942 691L790 894Q775 913 775 938ZM1193 -136Q1157 -136 1117.0 -130.0Q1077 -124 1038.0 -111.5Q999 -99 963.5 -80.0Q928 -61 903 -36Q862 4 826.0 55.5Q790 107 773 163Q770 172 770 182Q770 201 780.5 216.5Q791 232 808 240L937 305Q953 313 969 313Q989 313 1009 300L1260 133Q1275 123 1284.0 107.0Q1293 91 1293 73Q1293 58 1290.5 40.0Q1288 22 1285.0 3.0Q1282 -16 1278.5 -34.5Q1275 -53 1273 -68Q1268 -97 1245.0 -116.5Q1222 -136 1193 -136ZM1622 273V562Q1622 585 1634.0 603.0Q1646 621 1667 629L1929 734Q1942 739 1955 739Q1972 739 1988.0 731.0Q2004 723 2014 709L2133 542Q2147 523 2147 500Q2147 480 2136 463L1972 188Q1962 172 1945.5 162.5Q1929 153 1910 153Q1904 153 1894 155L1678 203Q1654 208 1638.0 228.0Q1622 248 1622 273Z" style="fill:#3f5fff;stroke:none" transform="scale(1,-1) translate(0,-256)" /></svg>