<?xml version="1.0" encoding="utf-8" ?>
<svg baseProfile="full" height="256" version="1.1" width="256" xmlns="http://www.w3.org/2000/svg" xmlns:ev="http://www.w3.org/2001/xml-events" xmlns:xlink="http://www.w3.org/1999/xlink"><defs /><path d="M1406 1691Q1540 1691 1664.5 1656.5Q1789 1622 1897.0 1558.5Q2005 1495 2093.5 1406.5Q2182 1318 2245.5 1210.0Q2309 1102 2343.5 977.5Q2378 853 2378 719Q2378 585 2343.5 460.5Q2309 336 2245.5 228.0Q2182 120 2093.5 31.5Q2005 -57 1897.0 -120.5Q1789 -184 1664.5 -218.5Q1540 -253 1406 -253Q1272 -253 1147.5 -218.5Q1023 -184 915.0 -120.5Q807 -57 718.5 31.5Q630 120 566.5 228.0Q503 336 468.5 460.5Q434 585 434 719Q434 853 468.5 977.5Q503 1102 566.5 1210.0Q630 1318 718.5 1406.5Q807 1495 915.0 1558.5Q1023 1622 1147.5 1656.5Q1272 1691 1406 1691Z" style="fill:#f4f4f4;stroke:none" transform="scale(1,-1) translate(0,-256)" /></svg>