<?xml version="1.0" encoding="utf-8" ?>
<svg baseProfile="full" height="256" version="1.1" width="256" xmlns="http://www.w3.org/2000/svg" xmlns:ev="http://www.w3.org/2001/xml-events" xmlns:xlink="http://www.w3.org/1999/xlink"><defs /><path d="M992 1512Q1006 1512 1016.0 1503.5Q1026 1495 1028 1481L1064 1230V1225Q1064 1211 1057.0 1203.0Q1050 1195 1039.0 1190.5Q1028 1186 1015.5 1185.0Q1003 1184 993 1184Q979 1184 969.0 1192.5Q959 1201 957 1214L921 1466V1470Q921 1484 928.0 1492.0Q935 1500 946.0 1504.5Q957 1509 969.0 1510.5Q981 1512 992 1512ZM1650 1382Q1661 1382 1668.0 1377.0Q1675 1372 1680.5 1364.5Q1686 1357 1690.0 1347.5Q1694 1338 1698 1330Q1702 1323 1702 1313Q1702 1292 1682 1282L1322 1102Q1312 1098 1306 1098Q1295 1098 1287.5 1103.0Q1280 1108 1275.0 1116.0Q1270 1124 1266.0 1133.0Q1262 1142 1258 1150Q1254 1157 1254 1167Q1254 1188 1274 1198L1633 1378Q1640 1382 1650 1382ZM1963 1187Q1977 1187 1987.5 1177.5Q1998 1168 1999 1154L2035 677V674Q2035 660 2028.0 652.0Q2021 644 2011.0 640.0Q2001 636 1988.5 635.5Q1976 635 1966 635Q1952 635 1940.5 644.0Q1929 653 1927 668L1891 1146V1149Q1891 1164 1898.5 1171.5Q1906 1179 1916.5 1182.5Q1927 1186 1939.5 1186.5Q1952 1187 1963 1187ZM894 1059Q905 1059 912.5 1054.0Q920 1049 925.5 1041.0Q931 1033 935.0 1023.5Q939 1014 943 1006Q945 1002 946.0 998.5Q947 995 947 990Q947 968 927 958L496 743Q489 739 479 739Q460 739 449.0 755.5Q438 772 438 789Q438 804 441.5 820.5Q445 837 460 845L879 1055Q889 1059 894 1059ZM1271 878Q1279 878 1289 873L1721 622Q1729 617 1734.0 608.5Q1739 600 1739 591Q1739 577 1730.5 565.0Q1722 553 1715 542Q1704 524 1685 524Q1676 524 1666 529L1235 780Q1227 785 1222.0 793.5Q1217 802 1217 811Q1217 819 1222 829Q1231 844 1240.5 861.0Q1250 878 1271 878ZM993 756Q1004 756 1016.5 755.5Q1029 755 1039.5 751.0Q1050 747 1057.0 739.5Q1064 732 1064 717V714L1028 283Q1026 269 1015.0 258.5Q1004 248 990 250Q979 251 967.0 251.5Q955 252 945.0 255.5Q935 259 928.0 266.5Q921 274 921 289V292L957 723Q959 737 969.0 746.5Q979 756 993 756ZM2296 627Q2307 627 2314.5 622.0Q2322 617 2327.5 609.5Q2333 602 2337.0 592.5Q2341 583 2345 575Q2348 567 2348 560Q2348 549 2343.0 540.5Q2338 532 2329 527L2113 419Q2106 415 2096 415Q2085 415 2078.0 420.0Q2071 425 2065.5 433.0Q2060 441 2056.5 450.0Q2053 459 2049 467Q2045 474 2045 484Q2045 506 2065 516L2280 623Q2287 627 2296 627ZM520 551Q537 551 548 539L871 180Q880 171 880 157Q880 148 873.5 137.0Q867 126 858.0 117.0Q849 108 838.0 102.0Q827 96 818 96Q801 96 791 108L475 459Q470 465 466.5 476.5Q463 488 463 496Q463 505 469.0 514.5Q475 524 483.5 532.0Q492 540 502.0 545.5Q512 551 520 551ZM1721 340Q1744 340 1754 319Q1759 308 1766.0 296.0Q1773 284 1773 271Q1773 249 1752 239L1285 23Q1277 20 1270 20Q1247 20 1237 41Q1232 52 1225.5 64.0Q1219 76 1219 88Q1219 112 1240 121L1707 337Q1713 340 1721 340ZM1928 254Q1939 254 1951.5 252.5Q1964 251 1974.5 246.5Q1985 242 1992.0 234.0Q1999 226 1999 212V209L1965 -60Q1964 -68 1957.0 -76.0Q1950 -84 1941.0 -91.0Q1932 -98 1922.0 -102.5Q1912 -107 1905 -107Q1888 -107 1871.5 -99.0Q1855 -91 1855 -71Q1855 -69 1855.5 -68.0Q1856 -67 1856 -65L1892 222Q1894 236 1904.0 245.0Q1914 254 1928 254ZM926 13Q935 13 945.5 6.5Q956 0 965.0 -9.0Q974 -18 980.5 -29.0Q987 -40 987 -49Q987 -67 972.0 -80.5Q957 -94 946 -105Q935 -116 921 -116Q912 -116 900.5 -111.0Q889 -106 878.5 -97.5Q868 -89 861.0 -79.0Q854 -69 854 -59Q854 -49 859.0 -40.5Q864 -32 871.5 -24.5Q879 -17 887.0 -10.5Q895 -4 901 2Q912 13 926 13ZM1202 -21Q1208 -21 1213.0 -23.5Q1218 -26 1223 -29Q1310 -89 1401.5 -118.5Q1493 -148 1597 -161Q1630 -166 1630 -200Q1630 -211 1621.5 -220.0Q1613 -229 1602 -232Q1573 -240 1538.0 -244.5Q1503 -249 1473 -249Q1459 -249 1443.5 -244.5Q1428 -240 1415 -236Q1350 -217 1281.0 -188.0Q1212 -159 1158 -115Q1144 -104 1144 -86Q1144 -78 1149.5 -66.5Q1155 -55 1163.5 -45.0Q1172 -35 1182.5 -28.0Q1193 -21 1202 -21Z" style="fill:#bebebe;stroke:none" transform="scale(1,-1) translate(0,-256)" /></svg>