<?xml version="1.0" encoding="utf-8" ?>
<svg baseProfile="full" height="256" version="1.1" width="256" xmlns="http://www.w3.org/2000/svg" xmlns:ev="http://www.w3.org/2001/xml-events" xmlns:xlink="http://www.w3.org/1999/xlink"><defs /><path d="M1424 36Q1424 13 1408.5 -2.5Q1393 -18 1370 -18Q1347 -18 1331.5 -2.5Q1316 13 1316 36Q1316 59 1331.5 74.5Q1347 90 1370 90Q1393 90 1408.5 74.5Q1424 59 1424 36ZM1406 -144Q1406 -173 1384.5 -194.0Q1363 -215 1334 -215Q1305 -215 1283.5 -194.0Q1262 -173 1262 -144Q1262 -114 1283.0 -93.0Q1304 -72 1334 -72Q1364 -72 1385.0 -93.0Q1406 -114 1406 -144ZM1478 -108Q1493 -108 1503.5 -97.5Q1514 -87 1514 -72Q1514 -57 1503.5 -46.5Q1493 -36 1478 -36Q1463 -36 1452.5 -46.5Q1442 -57 1442 -72Q1442 -87 1452.5 -97.5Q1463 -108 1478 -108Z" style="fill:#d3883e;stroke:none" transform="scale(1,-1) translate(0,-256)" /></svg>