<?xml version="1.0" encoding="utf-8" ?>
<svg baseProfile="full" height="256" version="1.1" width="256" xmlns="http://www.w3.org/2000/svg" xmlns:ev="http://www.w3.org/2001/xml-events" xmlns:xlink="http://www.w3.org/1999/xlink"><defs /><path d="M1388 287Q1401 287 1411.0 280.0Q1421 273 1426 262L1652 -209Q1655 -215 1656.0 -221.5Q1657 -228 1657 -234Q1657 -253 1645.5 -270.0Q1634 -287 1614 -287H1162Q1142 -287 1130.5 -270.0Q1119 -253 1119 -234Q1119 -228 1120.0 -221.5Q1121 -215 1124 -209L1350 262Q1355 273 1365.0 280.0Q1375 287 1388 287Z" style="fill:#f9c23c;stroke:none" transform="scale(1,-1) translate(0,-256)" /></svg>