<?xml version="1.0" encoding="utf-8" ?>
<svg baseProfile="full" height="256" version="1.1" width="256" xmlns="http://www.w3.org/2000/svg" xmlns:ev="http://www.w3.org/2001/xml-events" xmlns:xlink="http://www.w3.org/1999/xlink"><defs /><path d="M751 1294Q769 1323 800.5 1344.5Q832 1366 867 1366H1622Q1638 1366 1657.0 1356.0Q1676 1346 1694.5 1332.0Q1713 1318 1729.0 1302.5Q1745 1287 1755 1275Q1750 1281 1743 1281Q1730 1281 1714.5 1259.0Q1699 1237 1683.0 1203.0Q1667 1169 1651.0 1128.0Q1635 1087 1622.0 1048.5Q1609 1010 1599.5 979.0Q1590 948 1586 935L1394 791Q1380 780 1369.0 771.0Q1358 762 1347.5 753.0Q1337 744 1325.0 736.0Q1313 728 1298 719Q1281 710 1267.0 704.0Q1253 698 1239.0 693.0Q1225 688 1210.5 683.0Q1196 678 1178 671L939 575L400 719Z" style="fill:#f3c07b;stroke:none" transform="scale(1,-1) translate(0,-256)" /></svg>