<?xml version="1.0" encoding="utf-8" ?>
<svg baseProfile="full" height="256" version="1.1" width="256" xmlns="http://www.w3.org/2000/svg" xmlns:ev="http://www.w3.org/2001/xml-events" xmlns:xlink="http://www.w3.org/1999/xlink"><defs /><path d="M1011 360Q944 360 885.0 385.5Q826 411 782.0 454.5Q738 498 712.5 557.0Q687 616 687 683Q687 750 712.5 809.0Q738 868 782.0 911.5Q826 955 885.0 980.5Q944 1006 1011 1006Q1078 1006 1136.5 980.5Q1195 955 1239.0 911.0Q1283 867 1308.5 808.5Q1334 750 1334 683Q1334 616 1308.5 557.5Q1283 499 1239.0 455.0Q1195 411 1136.5 385.5Q1078 360 1011 360ZM1801 360Q1734 360 1675.5 385.5Q1617 411 1573.0 455.0Q1529 499 1503.5 557.5Q1478 616 1478 683Q1478 750 1503.5 808.5Q1529 867 1573.0 911.0Q1617 955 1675.5 980.5Q1734 1006 1801 1006Q1868 1006 1927.0 980.5Q1986 955 2030.0 911.5Q2074 868 2099.5 809.0Q2125 750 2125 683Q2125 616 2099.5 557.0Q2074 498 2030.0 454.5Q1986 411 1927.0 385.5Q1868 360 1801 360Z" style="fill:#ffffff;stroke:none" transform="scale(1,-1) translate(0,-256)" /></svg>