<?xml version="1.0" encoding="utf-8" ?>
<svg baseProfile="full" height="256" version="1.1" width="256" xmlns="http://www.w3.org/2000/svg" xmlns:ev="http://www.w3.org/2001/xml-events" xmlns:xlink="http://www.w3.org/1999/xlink"><defs /><path d="M1334 914Q1334 891 1316.5 877.0Q1299 863 1277 863Q1217 863 1163.5 881.5Q1110 900 1067.0 933.0Q1024 966 992.0 1012.5Q960 1059 942 1115Q939 1124 939 1133Q939 1156 955.0 1171.0Q971 1186 994 1186Q1012 1186 1025.0 1176.0Q1038 1166 1044 1149Q1059 1109 1079.5 1075.0Q1100 1041 1136 1015Q1170 992 1206.5 983.0Q1243 974 1283 970Q1307 968 1320.5 953.0Q1334 938 1334 914ZM1478 914Q1478 890 1495.5 876.5Q1513 863 1535 863Q1595 863 1648.5 881.5Q1702 900 1745.0 933.0Q1788 966 1820.0 1012.5Q1852 1059 1870 1115Q1873 1124 1873 1133Q1873 1156 1857.0 1171.0Q1841 1186 1818 1186Q1800 1186 1787.0 1176.0Q1774 1166 1768 1149Q1752 1107 1732.5 1074.0Q1713 1041 1675 1015Q1641 992 1605.0 983.0Q1569 974 1529 970Q1505 968 1491.5 953.0Q1478 938 1478 914ZM1406 144Q1376 144 1343.5 138.0Q1311 132 1280.5 119.5Q1250 107 1224.5 87.5Q1199 68 1183 40Q1161 0 1119 0Q1089 0 1067.5 21.5Q1046 43 1046 72Q1046 88 1054 104Q1075 150 1115.0 184.5Q1155 219 1204.0 242.0Q1253 265 1306.0 276.5Q1359 288 1406 288Q1492 288 1573.0 258.0Q1654 228 1714 165Q1726 152 1738.0 136.0Q1750 120 1758 104Q1765 90 1765 73Q1765 43 1744.0 21.5Q1723 0 1693 0Q1651 0 1629 40Q1613 68 1587.5 87.5Q1562 107 1531.5 119.5Q1501 132 1468.5 138.0Q1436 144 1406 144ZM1262 647Q1262 617 1250.5 591.0Q1239 565 1219.5 545.5Q1200 526 1174.0 514.5Q1148 503 1118 503Q1088 503 1062.0 514.5Q1036 526 1016.5 545.5Q997 565 986.0 591.0Q975 617 975 647Q975 677 986.0 703.0Q997 729 1016.5 748.5Q1036 768 1062.0 779.5Q1088 791 1118 791Q1148 791 1174.0 779.5Q1200 768 1219.5 748.5Q1239 729 1250.5 703.0Q1262 677 1262 647ZM1837 647Q1837 617 1825.5 591.0Q1814 565 1794.5 545.5Q1775 526 1749.0 514.5Q1723 503 1693 503Q1663 503 1637.0 514.5Q1611 526 1591.5 545.5Q1572 565 1561.0 591.0Q1550 617 1550 647Q1550 677 1561.0 703.0Q1572 729 1591.5 748.5Q1611 768 1637.0 779.5Q1663 791 1693 791Q1723 791 1749.0 779.5Q1775 768 1794.5 748.5Q1814 729 1825.5 703.0Q1837 677 1837 647Z" style="fill:#402a32;stroke:none" transform="scale(1,-1) translate(0,-256)" /></svg>