<?xml version="1.0" encoding="utf-8" ?>
<svg baseProfile="full" height="256" version="1.1" width="256" xmlns="http://www.w3.org/2000/svg" xmlns:ev="http://www.w3.org/2001/xml-events" xmlns:xlink="http://www.w3.org/1999/xlink"><defs /><path d="M500 507Q523 499 537.0 479.0Q551 459 551 435Q551 404 529.0 382.0Q507 360 476 360Q445 360 422.5 382.0Q400 404 400 435Q400 459 414.0 479.0Q428 499 451 507Q428 515 414.0 535.0Q400 555 400 579Q400 611 422.0 633.0Q444 655 476 655Q507 655 529.0 632.5Q551 610 551 579Q551 555 537.0 535.0Q523 515 500 507Z" style="fill:#635994;stroke:none" transform="scale(1,-1) translate(0,-256)" /></svg>