<?xml version="1.0" encoding="utf-8" ?>
<svg baseProfile="full" height="256" version="1.1" width="256" xmlns="http://www.w3.org/2000/svg" xmlns:ev="http://www.w3.org/2001/xml-events" xmlns:xlink="http://www.w3.org/1999/xlink"><defs /><path d="M732 -63Q670 -4 621.5 65.5Q573 135 540.0 211.5Q507 288 489.5 370.5Q472 453 472 539Q472 626 489.5 709.5Q507 793 541.0 870.5Q575 948 624.5 1018.0Q674 1088 737 1147Q805 1091 858.5 1023.0Q912 955 948.5 877.5Q985 800 1004.5 716.0Q1024 632 1024 544Q1024 455 1004.5 370.0Q985 285 947.5 207.0Q910 129 855.5 60.5Q801 -8 732 -63Z" style="fill:#8d65c5;stroke:none" transform="scale(1,-1) translate(0,-256)" /></svg>