<?xml version="1.0" encoding="utf-8" ?>
<svg baseProfile="full" height="256" version="1.1" width="256" xmlns="http://www.w3.org/2000/svg" xmlns:ev="http://www.w3.org/2001/xml-events" xmlns:xlink="http://www.w3.org/1999/xlink"><defs /><path d="M1298 -287Q1140 -287 993.5 -229.5Q847 -172 732 -63L737 1147Q852 1253 996.5 1309.5Q1141 1366 1298 1366Q1412 1366 1518.0 1336.5Q1624 1307 1715.5 1253.0Q1807 1199 1882.5 1123.5Q1958 1048 2012.0 956.5Q2066 865 2095.5 759.0Q2125 653 2125 539Q2125 425 2095.5 319.5Q2066 214 2012.0 122.0Q1958 30 1882.5 -45.0Q1807 -120 1715.0 -174.0Q1623 -228 1517.5 -257.5Q1412 -287 1298 -287Z" style="fill:#00a6ed;stroke:none" transform="scale(1,-1) translate(0,-256)" /></svg>