<?xml version="1.0" encoding="utf-8" ?>
<svg baseProfile="full" height="256" version="1.1" width="256" xmlns="http://www.w3.org/2000/svg" xmlns:ev="http://www.w3.org/2001/xml-events" xmlns:xlink="http://www.w3.org/1999/xlink"><defs /><path d="M1763 1438Q1862 1438 1954.0 1412.5Q2046 1387 2125.5 1340.0Q2205 1293 2270.5 1227.5Q2336 1162 2382.5 1082.0Q2429 1002 2454.5 910.5Q2480 819 2480 720Q2480 624 2455.5 534.0Q2431 444 2386.0 364.0Q2341 284 2278.0 218.0Q2215 152 2138.0 104.0Q2061 56 1971.5 29.5Q1882 3 1785 3H873Q761 3 662.0 46.0Q563 89 488.5 163.5Q414 238 371.0 337.0Q328 436 328 548Q328 654 367.0 748.5Q406 843 473.5 915.0Q541 987 632.5 1032.0Q724 1077 830 1083Q855 1122 888.5 1153.5Q922 1185 961.5 1207.0Q1001 1229 1045.5 1241.0Q1090 1253 1137 1253Q1201 1253 1260 1232Q1361 1332 1491.0 1385.0Q1621 1438 1763 1438Z" style="fill:#b4acbc;stroke:none" transform="scale(1,-1) translate(0,-256)" /></svg>