<?xml version="1.0" encoding="utf-8" ?>
<svg baseProfile="full" height="256" version="1.1" width="256" xmlns="http://www.w3.org/2000/svg" xmlns:ev="http://www.w3.org/2001/xml-events" xmlns:xlink="http://www.w3.org/1999/xlink"><defs /><path d="M723 -144Q686 -144 653.0 -130.0Q620 -116 595.5 -91.5Q571 -67 557.0 -34.0Q543 -1 543 36V1042Q543 1079 557.0 1112.0Q571 1145 595.5 1169.5Q620 1194 653.0 1208.0Q686 1222 723 1222Q760 1222 793.0 1208.0Q826 1194 850.5 1169.5Q875 1145 889.0 1112.0Q903 1079 903 1042V36Q903 -1 889.0 -34.0Q875 -67 850.5 -91.5Q826 -116 793.0 -130.0Q760 -144 723 -144Z" style="fill:#321b41;stroke:none" transform="scale(1,-1) translate(0,-256)" /></svg>