<?xml version="1.0" encoding="utf-8" ?>
<svg baseProfile="full" height="256" version="1.1" width="256" xmlns="http://www.w3.org/2000/svg" xmlns:ev="http://www.w3.org/2001/xml-events" xmlns:xlink="http://www.w3.org/1999/xlink"><defs /><path d="M2089 575Q2074 575 2063.5 585.5Q2053 596 2053 611Q2053 626 2063.5 636.5Q2074 647 2089 647H2233Q2248 647 2258.0 636.5Q2268 626 2268 611Q2268 596 2258.0 585.5Q2248 575 2233 575ZM2089 431Q2074 431 2063.5 441.5Q2053 452 2053 467Q2053 482 2063.5 492.5Q2074 503 2089 503H2233Q2248 503 2258.0 492.5Q2268 482 2268 467Q2268 452 2258.0 441.5Q2248 431 2233 431ZM2233 288H2089Q2074 288 2063.5 298.5Q2053 309 2053 324Q2053 339 2063.5 349.5Q2074 360 2089 360H2233Q2248 360 2258.0 349.5Q2268 339 2268 324Q2268 309 2258.0 298.5Q2248 288 2233 288ZM2089 144Q2074 144 2063.5 154.5Q2053 165 2053 180Q2053 195 2063.5 205.5Q2074 216 2089 216H2233Q2248 216 2258.0 205.5Q2268 195 2268 180Q2268 165 2258.0 154.5Q2248 144 2233 144ZM2233 0H2089Q2074 0 2063.5 10.5Q2053 21 2053 36Q2053 51 2063.5 61.5Q2074 72 2089 72H2233Q2248 72 2258.0 61.5Q2268 51 2268 36Q2268 21 2258.0 10.5Q2248 0 2233 0ZM2089 -144Q2074 -144 2063.5 -133.5Q2053 -123 2053 -108Q2053 -93 2063.5 -82.5Q2074 -72 2089 -72H2233Q2248 -72 2258.0 -82.5Q2268 -93 2268 -108Q2268 -123 2258.0 -133.5Q2248 -144 2233 -144Z" style="fill:#635994;stroke:none" transform="scale(1,-1) translate(0,-256)" /></svg>