<?xml version="1.0" encoding="utf-8" ?>
<svg baseProfile="full" height="256" version="1.1" width="256" xmlns="http://www.w3.org/2000/svg" xmlns:ev="http://www.w3.org/2001/xml-events" xmlns:xlink="http://www.w3.org/1999/xlink"><defs /><path d="M1226 431Q1204 431 1184.5 439.5Q1165 448 1150.0 463.0Q1135 478 1126.5 497.5Q1118 517 1118 539Q1118 561 1126.5 580.5Q1135 600 1150.0 615.0Q1165 630 1184.5 638.5Q1204 647 1226 647Q1248 647 1268.0 638.5Q1288 630 1302.5 615.5Q1317 601 1325.5 581.0Q1334 561 1334 539Q1334 517 1325.5 497.5Q1317 478 1302.0 463.0Q1287 448 1267.5 439.5Q1248 431 1226 431ZM1514 431Q1492 431 1472.5 439.5Q1453 448 1438.0 463.0Q1423 478 1414.5 497.5Q1406 517 1406 539Q1406 561 1414.5 581.0Q1423 601 1437.5 615.5Q1452 630 1471.5 638.5Q1491 647 1514 647Q1536 647 1555.5 638.5Q1575 630 1590.0 615.0Q1605 600 1613.5 580.5Q1622 561 1622 539Q1622 517 1613.5 497.5Q1605 478 1590.0 463.0Q1575 448 1555.5 439.5Q1536 431 1514 431ZM1693 539Q1693 517 1701.5 497.5Q1710 478 1725.0 463.0Q1740 448 1759.5 439.5Q1779 431 1801 431Q1823 431 1842.5 439.5Q1862 448 1877.0 463.0Q1892 478 1900.5 497.5Q1909 517 1909 539Q1909 561 1900.5 581.0Q1892 601 1877.5 615.5Q1863 630 1843.0 638.5Q1823 647 1801 647Q1779 647 1759.5 638.5Q1740 630 1725.0 615.0Q1710 600 1701.5 580.5Q1693 561 1693 539ZM1226 144Q1204 144 1184.5 152.5Q1165 161 1150.0 176.0Q1135 191 1126.5 210.5Q1118 230 1118 252Q1118 274 1126.5 293.5Q1135 313 1150.0 328.0Q1165 343 1184.5 351.5Q1204 360 1226 360Q1248 360 1267.5 351.5Q1287 343 1302.0 328.0Q1317 313 1325.5 293.5Q1334 274 1334 252Q1334 229 1325.5 209.5Q1317 190 1302.5 175.5Q1288 161 1268.0 152.5Q1248 144 1226 144ZM1406 252Q1406 229 1414.5 209.5Q1423 190 1437.5 175.5Q1452 161 1471.5 152.5Q1491 144 1514 144Q1536 144 1555.5 152.5Q1575 161 1590.0 176.0Q1605 191 1613.5 210.5Q1622 230 1622 252Q1622 274 1613.5 293.5Q1605 313 1590.0 328.0Q1575 343 1555.5 351.5Q1536 360 1514 360Q1492 360 1472.5 351.5Q1453 343 1438.0 328.0Q1423 313 1414.5 293.5Q1406 274 1406 252ZM1801 144Q1779 144 1759.5 152.5Q1740 161 1725.0 176.0Q1710 191 1701.5 210.5Q1693 230 1693 252Q1693 274 1701.5 293.5Q1710 313 1725.0 328.0Q1740 343 1759.5 351.5Q1779 360 1801 360Q1823 360 1842.5 351.5Q1862 343 1877.0 328.0Q1892 313 1900.5 293.5Q1909 274 1909 252Q1909 229 1900.5 209.5Q1892 190 1877.5 175.5Q1863 161 1843.0 152.5Q1823 144 1801 144ZM1118 -36Q1118 -58 1126.5 -77.5Q1135 -97 1150.0 -112.0Q1165 -127 1184.5 -135.5Q1204 -144 1226 -144Q1248 -144 1267.5 -135.5Q1287 -127 1302.0 -112.0Q1317 -97 1325.5 -77.5Q1334 -58 1334 -36Q1334 -14 1325.5 6.0Q1317 26 1302.5 40.5Q1288 55 1268.0 63.5Q1248 72 1226 72Q1204 72 1184.5 63.5Q1165 55 1150.0 40.0Q1135 25 1126.5 5.5Q1118 -14 1118 -36ZM1514 -144Q1492 -144 1472.5 -135.5Q1453 -127 1438.0 -112.0Q1423 -97 1414.5 -77.5Q1406 -58 1406 -36Q1406 -14 1414.5 6.0Q1423 26 1437.5 40.5Q1452 55 1471.5 63.5Q1491 72 1514 72Q1536 72 1555.5 63.5Q1575 55 1590.0 40.0Q1605 25 1613.5 5.5Q1622 -14 1622 -36Q1622 -58 1613.5 -77.5Q1605 -97 1590.0 -112.0Q1575 -127 1555.5 -135.5Q1536 -144 1514 -144ZM1693 -36Q1693 -58 1701.5 -77.5Q1710 -97 1725.0 -112.0Q1740 -127 1759.5 -135.5Q1779 -144 1801 -144Q1823 -144 1842.5 -135.5Q1862 -127 1877.0 -112.0Q1892 -97 1900.5 -77.5Q1909 -58 1909 -36Q1909 -14 1900.5 6.0Q1892 26 1877.5 40.5Q1863 55 1843.0 63.5Q1823 72 1801 72Q1779 72 1759.5 63.5Q1740 55 1725.0 40.0Q1710 25 1701.5 5.5Q1693 -14 1693 -36Z" style="fill:#9b9b9b;stroke:none" transform="scale(1,-1) translate(0,-256)" /></svg>