<?xml version="1.0" encoding="utf-8" ?>
<svg baseProfile="full" height="256" version="1.1" width="256" xmlns="http://www.w3.org/2000/svg" xmlns:ev="http://www.w3.org/2001/xml-events" xmlns:xlink="http://www.w3.org/1999/xlink"><defs /><path d="M2277 -287H535Q507 -287 482.5 -276.5Q458 -266 439.5 -247.5Q421 -229 410.5 -204.5Q400 -180 400 -152V1015Q400 1043 410.5 1067.5Q421 1092 439.5 1110.5Q458 1129 482.5 1139.5Q507 1150 535 1150H876Q901 1150 921.5 1148.5Q942 1147 961.5 1146.5Q981 1146 1001.5 1146.5Q1022 1147 1047 1150Q1075 1154 1098.5 1159.0Q1122 1164 1143.5 1170.5Q1165 1177 1188.0 1184.0Q1211 1191 1239 1198L1622 1294L2197 1150H2278Q2306 1150 2330.5 1139.5Q2355 1129 2373.0 1110.5Q2391 1092 2401.5 1067.5Q2412 1043 2412 1015V-153Q2412 -181 2401.5 -205.5Q2391 -230 2372.5 -248.0Q2354 -266 2329.5 -276.5Q2305 -287 2277 -287Z" style="fill:#533566;stroke:none" transform="scale(1,-1) translate(0,-256)" /></svg>