<?xml version="1.0" encoding="utf-8" ?>
<svg baseProfile="full" height="256" version="1.1" width="256" xmlns="http://www.w3.org/2000/svg" xmlns:ev="http://www.w3.org/2001/xml-events" xmlns:xlink="http://www.w3.org/1999/xlink"><defs /><path d="M1801 791H1226Q1204 791 1184.5 799.5Q1165 808 1150.0 823.0Q1135 838 1126.5 857.5Q1118 877 1118 899Q1118 921 1126.5 940.5Q1135 960 1150.0 974.5Q1165 989 1184.5 997.5Q1204 1006 1226 1006H1801Q1823 1006 1842.5 997.5Q1862 989 1877.0 975.0Q1892 961 1900.5 941.0Q1909 921 1909 899Q1909 876 1900.5 856.5Q1892 837 1877.5 822.5Q1863 808 1843.0 799.5Q1823 791 1801 791Z" style="fill:#00f397;stroke:none" transform="scale(1,-1) translate(0,-256)" /></svg>