<?xml version="1.0" encoding="utf-8" ?>
<svg baseProfile="full" height="256" version="1.1" width="256" xmlns="http://www.w3.org/2000/svg" xmlns:ev="http://www.w3.org/2001/xml-events" xmlns:xlink="http://www.w3.org/1999/xlink"><defs /><path d="M472 1042Q472 1094 491.5 1140.0Q511 1186 545.0 1220.0Q579 1254 625.0 1274.0Q671 1294 723 1294Q775 1294 821.0 1274.0Q867 1254 901.0 1220.0Q935 1186 955.0 1140.0Q975 1094 975 1042V36Q975 -16 955.0 -62.0Q935 -108 901.0 -142.0Q867 -176 821.0 -195.5Q775 -215 723 -215Q671 -215 625.0 -195.5Q579 -176 545.0 -142.0Q511 -108 491.5 -62.0Q472 -16 472 36ZM2053 899Q2053 921 2061.5 941.0Q2070 961 2085.0 975.0Q2100 989 2119.5 997.5Q2139 1006 2161 1006Q2183 1006 2202.5 997.5Q2222 989 2236.5 974.5Q2251 960 2259.5 940.5Q2268 921 2268 899Q2268 877 2259.5 857.5Q2251 838 2237.0 823.0Q2223 808 2203.0 799.5Q2183 791 2161 791Q2138 791 2118.5 799.5Q2099 808 2084.5 822.5Q2070 837 2061.5 856.5Q2053 876 2053 899Z" style="fill:#636363;stroke:none" transform="scale(1,-1) translate(0,-256)" /></svg>