<?xml version="1.0" encoding="utf-8" ?>
<svg baseProfile="full" height="256" version="1.1" width="256" xmlns="http://www.w3.org/2000/svg" xmlns:ev="http://www.w3.org/2001/xml-events" xmlns:xlink="http://www.w3.org/1999/xlink"><defs /><path d="M1852 1725Q1969 1725 2071.5 1679.0Q2174 1633 2249.5 1554.5Q2325 1476 2368.5 1372.0Q2412 1268 2412 1151Q2412 1032 2368.0 927.0Q2324 822 2247.0 744.0Q2170 666 2066.0 620.5Q1962 575 1842 575Q1732 575 1629 616L1372 359Q1361 348 1347.5 341.5Q1334 335 1319 335Q1305 335 1292.0 338.5Q1279 342 1265 342Q1242 342 1219.5 335.0Q1197 328 1180 313Q1160 296 1152.5 277.0Q1145 258 1141.5 239.0Q1138 220 1135.0 202.5Q1132 185 1122.0 171.5Q1112 158 1091.0 150.0Q1070 142 1030 142Q1009 142 992.5 131.0Q976 120 964.5 103.5Q953 87 947.5 67.5Q942 48 942 30Q942 13 947.0 -1.5Q952 -16 952 -32Q952 -59 933 -80Q902 -114 864.0 -151.0Q826 -188 792 -220Q758 -252 718.0 -269.5Q678 -287 630 -287Q584 -287 542.0 -269.5Q500 -252 468.5 -222.0Q437 -192 418.5 -151.0Q400 -110 400 -63Q400 -15 419.0 30.5Q438 76 472 110L1306 945Q1285 999 1273.5 1049.0Q1262 1099 1262 1156Q1262 1275 1310.5 1379.0Q1359 1483 1440.5 1560.0Q1522 1637 1628.5 1681.0Q1735 1725 1852 1725ZM1934 1355Q1934 1327 1944.0 1302.5Q1954 1278 1972.0 1260.0Q1990 1242 2014.5 1231.5Q2039 1221 2067 1221Q2095 1221 2119.0 1231.5Q2143 1242 2161.0 1260.5Q2179 1279 2189.0 1303.5Q2199 1328 2199 1355Q2199 1383 2188.5 1407.5Q2178 1432 2160.0 1450.0Q2142 1468 2118.0 1478.5Q2094 1489 2066 1489Q2038 1489 2014.0 1478.5Q1990 1468 1972.0 1450.0Q1954 1432 1944.0 1407.5Q1934 1383 1934 1355Z" style="fill:#f9c23c;stroke:none" transform="scale(1,-1) translate(0,-256)" /></svg>