<?xml version="1.0" encoding="utf-8" ?>
<svg baseProfile="full" height="256" version="1.1" width="256" xmlns="http://www.w3.org/2000/svg" xmlns:ev="http://www.w3.org/2001/xml-events" xmlns:xlink="http://www.w3.org/1999/xlink"><defs /><path d="M902 -282Q893 -282 881.5 -282.0Q870 -282 859.5 -279.5Q849 -277 841.5 -271.5Q834 -266 834 -254Q834 -240 845.5 -229.0Q857 -218 873.5 -209.0Q890 -200 907.0 -193.5Q924 -187 935 -183Q971 -170 1008.5 -158.0Q1046 -146 1082.5 -131.0Q1119 -116 1152.5 -97.0Q1186 -78 1215 -51Q1230 -36 1243.0 -14.5Q1256 7 1265.0 31.0Q1274 55 1279.0 79.5Q1284 104 1284 125Q1284 131 1281.5 135.5Q1279 140 1272 141L1277 144H1427Q1443 144 1458.0 137.5Q1473 131 1484.0 120.5Q1495 110 1501.5 95.5Q1508 81 1508 65Q1508 46 1497.5 16.0Q1487 -14 1470.0 -49.0Q1453 -84 1431.5 -121.0Q1410 -158 1387.5 -190.0Q1365 -222 1343.5 -247.0Q1322 -272 1306 -282Z" style="fill:#fcd53f;stroke:none" transform="scale(1,-1) translate(0,-256)" /></svg>