<?xml version="1.0" encoding="utf-8" ?>
<svg baseProfile="full" height="256" version="1.1" width="256" xmlns="http://www.w3.org/2000/svg" xmlns:ev="http://www.w3.org/2001/xml-events" xmlns:xlink="http://www.w3.org/1999/xlink"><defs /><path d="M994 1751Q1003 1751 1014 1748Q1051 1738 1085.5 1720.0Q1120 1702 1146.5 1676.0Q1173 1650 1189.0 1616.5Q1205 1583 1205 1541Q1205 1502 1189.0 1465.5Q1173 1429 1146.0 1401.0Q1119 1373 1083.5 1356.5Q1048 1340 1008 1340Q968 1340 933.5 1351.0Q899 1362 868.0 1375.5Q837 1389 808.0 1400.0Q779 1411 751 1411Q682 1411 651.0 1372.0Q620 1333 620 1268Q620 1241 624.5 1210.5Q629 1180 637.5 1149.0Q646 1118 657.5 1088.5Q669 1059 683 1036Q688 1027 691.0 1018.5Q694 1010 694 999Q694 970 673.0 950.0Q652 930 624 930Q605 930 590.0 939.0Q575 948 565 963Q547 992 531.5 1030.0Q516 1068 504.5 1109.0Q493 1150 487.0 1190.5Q481 1231 481 1265Q481 1309 489.5 1349.0Q498 1389 516.5 1422.5Q535 1456 564.5 1483.0Q594 1510 637 1527Q692 1550 752 1550Q792 1550 827.0 1539.0Q862 1528 893.0 1514.5Q924 1501 952.5 1490.0Q981 1479 1008 1479Q1019 1479 1029.5 1484.5Q1040 1490 1048.0 1499.0Q1056 1508 1061.0 1519.0Q1066 1530 1066 1541Q1066 1560 1055.5 1572.0Q1045 1584 1029.5 1592.0Q1014 1600 995.5 1606.5Q977 1613 961.5 1622.5Q946 1632 935.5 1645.5Q925 1659 925 1682Q925 1710 945.0 1730.5Q965 1751 994 1751ZM1899 1510H2236Q2245 1510 2251.0 1503.5Q2257 1497 2257 1488Q2257 1485 2254.5 1478.0Q2252 1471 2249.0 1463.5Q2246 1456 2243.0 1448.5Q2240 1441 2239 1438Q2227 1406 2206.0 1379.5Q2185 1353 2158.5 1334.0Q2132 1315 2100.0 1304.5Q2068 1294 2034 1294H1899Q1885 1294 1872.5 1286.0Q1860 1278 1854 1264L1754 1032Q1749 1021 1739.0 1013.5Q1729 1006 1717 1006H1577Q1560 1006 1548.0 1019.0Q1536 1032 1536 1049Q1536 1054 1543.5 1075.0Q1551 1096 1563.0 1125.5Q1575 1155 1589.5 1189.0Q1604 1223 1617.0 1254.0Q1630 1285 1640.0 1308.5Q1650 1332 1654 1341Q1669 1378 1694.0 1409.0Q1719 1440 1751.0 1462.5Q1783 1485 1820.5 1497.5Q1858 1510 1899 1510Z" style="fill:#fcd53f;stroke:none" transform="scale(1,-1) translate(0,-256)" /></svg>