<?xml version="1.0" encoding="utf-8" ?>
<svg baseProfile="full" height="256" version="1.1" width="256" xmlns="http://www.w3.org/2000/svg" xmlns:ev="http://www.w3.org/2001/xml-events" xmlns:xlink="http://www.w3.org/1999/xlink"><defs /><path d="M1669 503H1622L1660 1002H2389Q2419 1002 2432.5 981.5Q2446 961 2450.5 933.0Q2455 905 2453.5 875.5Q2452 846 2452 827Q2452 759 2426.5 703.0Q2401 647 2358.0 605.0Q2315 563 2257.0 537.5Q2199 512 2135 506H2364Q2382 506 2399.5 501.0Q2417 496 2430.0 485.5Q2443 475 2451.0 459.5Q2459 444 2459 424V161Q2459 91 2440.0 13.0Q2421 -65 2382.0 -130.5Q2343 -196 2282.5 -239.0Q2222 -282 2138 -282H1669Z" style="fill:#f70a8d;stroke:none" transform="scale(1,-1) translate(0,-256)" /></svg>