<?xml version="1.0" encoding="utf-8" ?>
<svg baseProfile="full" height="256" version="1.1" width="256" xmlns="http://www.w3.org/2000/svg" xmlns:ev="http://www.w3.org/2001/xml-events" xmlns:xlink="http://www.w3.org/1999/xlink"><defs /><path d="M1474 1432Q1504 1432 1527.5 1416.5Q1551 1401 1551 1367Q1551 1337 1540.5 1321.5Q1530 1306 1512.5 1300.0Q1495 1294 1473.0 1294.0Q1451 1294 1429 1294Q1421 1294 1415.0 1286.0Q1409 1278 1404.5 1267.0Q1400 1256 1397.0 1245.0Q1394 1234 1392 1228H2245Q2256 1228 2264.5 1219.5Q2273 1211 2273 1200Q2273 1189 2270.0 1169.5Q2267 1150 2263.0 1128.0Q2259 1106 2254.5 1086.0Q2250 1066 2248 1053Q2242 1021 2224.0 994.0Q2206 967 2180.0 947.5Q2154 928 2123.0 917.0Q2092 906 2061 906H1938Q1953 886 1965.0 868.0Q1977 850 1985.0 831.5Q1993 813 1997.5 792.0Q2002 771 2002 745V186Q2002 63 1973.5 -54.0Q1945 -171 1892 -282H1299L1365 -51Q1384 -34 1393.0 -12.5Q1402 9 1405.5 32.0Q1409 55 1409.5 79.5Q1410 104 1412 127Q1413 134 1408.5 139.0Q1404 144 1397 144H769Q733 144 694.0 156.5Q655 169 623.0 192.5Q591 216 570.0 248.5Q549 281 549 322Q549 341 562.0 349.0Q575 357 592 357H991Q1024 357 1053.0 373.0Q1082 389 1107.5 412.0Q1133 435 1155.0 461.5Q1177 488 1196 509H530Q504 509 481.5 519.0Q459 529 442.0 546.0Q425 563 415.0 585.5Q405 608 405 634V907Q405 943 419.5 975.5Q434 1008 459.0 1032.0Q484 1056 516.5 1070.0Q549 1084 585 1084Q633 1084 663.5 1071.5Q694 1059 715.0 1044.5Q736 1030 752.0 1018.0Q768 1006 787 1007L1006 1014Q1037 1015 1054.5 1029.0Q1072 1043 1087 1068Q1122 1129 1157.5 1190.0Q1193 1251 1229 1312Q1234 1321 1240.0 1330.0Q1246 1339 1251 1349Q1259 1364 1270.5 1379.0Q1282 1394 1296.5 1406.0Q1311 1418 1328.0 1425.0Q1345 1432 1363 1432Z" style="fill:#00d26a;stroke:none" transform="scale(1,-1) translate(0,-256)" /></svg>