<?xml version="1.0" encoding="utf-8" ?>
<svg baseProfile="full" height="256" version="1.1" width="256" xmlns="http://www.w3.org/2000/svg" xmlns:ev="http://www.w3.org/2001/xml-events" xmlns:xlink="http://www.w3.org/1999/xlink"><defs /><path d="M687 899Q687 908 687.5 917.0Q688 926 689 935H977L1142 868L1296 935H1332Q1333 926 1333.5 917.0Q1334 908 1334 899Q1334 832 1308.5 773.0Q1283 714 1239.0 670.0Q1195 626 1136.5 600.5Q1078 575 1011 575Q944 575 885.0 600.5Q826 626 782.0 670.0Q738 714 712.5 773.0Q687 832 687 899ZM1478 899Q1478 908 1478.0 917.0Q1478 926 1480 935H1768Q1768 935 1779.5 931.5Q1791 928 1808.0 922.5Q1825 917 1845.0 910.5Q1865 904 1882.5 898.0Q1900 892 1913.0 888.0Q1926 884 1929 883Q1942 887 1969.5 897.0Q1997 907 2027.0 917.0Q2057 927 2084.0 933.0Q2111 939 2123 935Q2124 926 2124.5 917.0Q2125 908 2125 899Q2125 832 2099.5 773.0Q2074 714 2030.0 670.0Q1986 626 1927.0 600.5Q1868 575 1801 575Q1734 575 1675.5 600.5Q1617 626 1573.0 670.0Q1529 714 1503.5 773.0Q1478 832 1478 899Z" style="fill:#ffffff;stroke:none" transform="scale(1,-1) translate(0,-256)" /></svg>