<?xml version="1.0" encoding="utf-8" ?>
<svg baseProfile="full" height="256" version="1.1" width="256" xmlns="http://www.w3.org/2000/svg" xmlns:ev="http://www.w3.org/2001/xml-events" xmlns:xlink="http://www.w3.org/1999/xlink"><defs /><path d="M1398 1340Q1307 1340 1223.0 1312.5Q1139 1285 1068.0 1235.0Q997 1185 942.5 1114.5Q888 1044 858 959Q824 1051 824 1152Q824 1271 869.0 1375.5Q914 1480 992.0 1557.5Q1070 1635 1174.5 1680.0Q1279 1725 1398 1725Q1517 1725 1621.5 1680.0Q1726 1635 1804.0 1557.5Q1882 1480 1927.0 1375.5Q1972 1271 1972 1152Q1972 1051 1938 959Q1908 1044 1853.5 1114.5Q1799 1185 1728.0 1235.0Q1657 1285 1573.0 1312.5Q1489 1340 1398 1340Z" style="fill:#ffb02e;stroke:none" transform="scale(1,-1) translate(0,-256)" /></svg>