<?xml version="1.0" encoding="utf-8" ?>
<svg baseProfile="full" height="256" version="1.1" width="256" xmlns="http://www.w3.org/2000/svg" xmlns:ev="http://www.w3.org/2001/xml-events" xmlns:xlink="http://www.w3.org/1999/xlink"><defs /><path d="M796 1153Q796 1264 835.5 1353.5Q875 1443 950 1523Q1025 1604 1111.0 1652.5Q1197 1701 1307 1715Q1262 1708 1224.5 1686.0Q1187 1664 1159.5 1632.0Q1132 1600 1116.5 1559.0Q1101 1518 1101 1473Q1101 1423 1120.0 1377.5Q1139 1332 1175 1297L2377 148Q2396 129 2396 102Q2396 77 2381 61L2092 -266Q2073 -287 2045 -287Q2018 -287 2000 -269L949 783Q875 857 835.5 953.0Q796 1049 796 1153Z" style="fill:#f9c23c;stroke:none" transform="scale(1,-1) translate(0,-256)" /></svg>