<?xml version="1.0" encoding="utf-8" ?>
<svg baseProfile="full" height="256" version="1.1" width="256" xmlns="http://www.w3.org/2000/svg" xmlns:ev="http://www.w3.org/2001/xml-events" xmlns:xlink="http://www.w3.org/1999/xlink"><defs /><path d="M2000 1157Q2000 1052 1960.5 956.5Q1921 861 1847 787L796 -265Q778 -283 752 -283Q738 -283 725.5 -278.0Q713 -273 704 -262L415 64Q400 80 400 105Q400 132 419 151L1621 1300Q1657 1335 1676.0 1380.5Q1695 1426 1695 1476Q1695 1521 1679.5 1562.0Q1664 1603 1637.0 1635.5Q1610 1668 1572.0 1689.5Q1534 1711 1489 1719Q1599 1705 1685.0 1656.0Q1771 1607 1846 1527Q1921 1447 1960.5 1357.0Q2000 1267 2000 1157Z" style="fill:#fcd53f;stroke:none" transform="scale(1,-1) translate(0,-256)" /></svg>