<?xml version="1.0" encoding="utf-8" ?>
<svg baseProfile="full" height="256" version="1.1" width="256" xmlns="http://www.w3.org/2000/svg" xmlns:ev="http://www.w3.org/2001/xml-events" xmlns:xlink="http://www.w3.org/1999/xlink"><defs /><path d="M1855 503H2340V431Q2340 299 2288.5 181.5Q2237 64 2148.5 -24.0Q2060 -112 1942.5 -163.5Q1825 -215 1693 -215V-80Q1693 -49 1681.0 -21.5Q1669 6 1649.0 27.0Q1629 48 1601.0 60.0Q1573 72 1542 72H1245Q1114 72 999.5 121.5Q885 171 799.5 256.5Q714 342 664.5 456.5Q615 571 615 702V1042Q615 1068 615.0 1094.0Q615 1120 617 1146Q618 1157 622.5 1174.0Q627 1191 631 1201Q644 1238 668.0 1268.5Q692 1299 723.0 1320.5Q754 1342 791.0 1354.0Q828 1366 867 1366Q927 1366 969.0 1345.0Q1011 1324 1043.5 1290.5Q1076 1257 1102.0 1215.0Q1128 1173 1157 1130V1129Q1178 1098 1210.5 1080.5Q1243 1063 1281 1063Q1310 1063 1336.5 1074.5Q1363 1086 1384 1106L1814 1531H1815Q1865 1580 1915.0 1605.5Q1965 1631 2018.0 1641.5Q2071 1652 2128.5 1652.5Q2186 1653 2251 1653Q2268 1653 2268 1636V1364Q2268 1154 2191.5 965.5Q2115 777 1971 625Z" style="fill:#ffffff;stroke:none" transform="scale(1,-1) translate(0,-256)" /></svg>