<?xml version="1.0" encoding="utf-8" ?>
<svg baseProfile="full" height="256" version="1.1" width="256" xmlns="http://www.w3.org/2000/svg" xmlns:ev="http://www.w3.org/2001/xml-events" xmlns:xlink="http://www.w3.org/1999/xlink"><defs /><path d="M436 1294Q451 1294 461.5 1283.5Q472 1273 472 1258V775Q472 742 486 709Q508 742 529.0 770.0Q550 798 575.0 818.5Q600 839 632.0 851.0Q664 863 707 863H832Q845 863 854.0 854.0Q863 845 863 832Q863 826 856.5 814.0Q850 802 841.5 789.0Q833 776 824.5 764.0Q816 752 812 746Q786 707 756.0 686.5Q726 666 692.5 657.0Q659 648 621.0 647.5Q583 647 540 647Q542 645 544.0 644.5Q546 644 548 642L872 454Q892 474 918.0 485.5Q944 497 972 497Q995 497 1016.5 489.5Q1038 482 1055.5 468.5Q1073 455 1085.5 436.0Q1098 417 1104 395L1105 396Q1108 386 1112.5 371.5Q1117 357 1121.5 341.5Q1126 326 1129.0 312.0Q1132 298 1132 288Q1132 277 1124.5 266.5Q1117 256 1106 253L1008 227Q988 222 972 222Q943 222 918.5 233.0Q894 244 875.0 262.5Q856 281 845.5 306.0Q835 331 835 360Q835 376 838 391L687 478Q687 435 686.5 395.5Q686 356 678.0 320.5Q670 285 649.5 253.5Q629 222 589 196Q583 192 571.0 183.5Q559 175 546.0 166.0Q533 157 520.5 150.5Q508 144 502 144Q489 144 480.5 153.0Q472 162 472 175V301Q472 343 483.0 374.0Q494 405 513.5 430.0Q533 455 560.0 475.5Q587 496 619 518Q577 542 537.5 564.5Q498 587 467.5 615.5Q437 644 418.5 681.5Q400 719 400 775V1258Q400 1273 410.5 1283.5Q421 1294 436 1294Z" style="fill:#44911b;stroke:none" transform="scale(1,-1) translate(0,-256)" /></svg>