<?xml version="1.0" encoding="utf-8" ?>
<svg baseProfile="full" height="256" version="1.1" width="256" xmlns="http://www.w3.org/2000/svg" xmlns:ev="http://www.w3.org/2001/xml-events" xmlns:xlink="http://www.w3.org/1999/xlink"><defs /><path d="M2023 575H2340Q2371 575 2386.0 560.5Q2401 546 2407.0 524.0Q2413 502 2412.5 477.0Q2412 452 2412 431Q2412 333 2386.0 242.0Q2360 151 2313.0 71.0Q2266 -9 2200.0 -75.0Q2134 -141 2054.0 -188.0Q1974 -235 1883.0 -261.0Q1792 -287 1694 -287Q1664 -287 1643.0 -266.0Q1622 -245 1622 -215V-80Q1622 -47 1598.5 -23.5Q1575 0 1542 0H1245Q1148 0 1058.5 25.0Q969 50 891.0 96.0Q813 142 749.0 206.0Q685 270 639.0 348.0Q593 426 568.0 515.5Q543 605 543 702V949L487 1045L545 1151Q552 1212 580.0 1264.5Q608 1317 651.5 1355.5Q695 1394 750.0 1416.0Q805 1438 867 1438Q918 1438 967.0 1421.5Q1016 1405 1058 1375L1086 1432Q1120 1499 1169.5 1553.5Q1219 1608 1280.0 1646.0Q1341 1684 1411.5 1704.5Q1482 1725 1558 1725Q1579 1725 1603.0 1723.5Q1627 1722 1647.0 1714.5Q1667 1707 1680.5 1691.5Q1694 1676 1694 1647V1513L1764 1582Q1835 1651 1923.5 1688.0Q2012 1725 2112 1725H2251Q2288 1725 2314.0 1699.0Q2340 1673 2340 1636V1364Q2340 1254 2319.0 1147.0Q2298 1040 2257.5 939.5Q2217 839 2158.0 746.5Q2099 654 2023 575Z" style="fill:#9b9b9b;stroke:none" transform="scale(1,-1) translate(0,-256)" /></svg>