<?xml version="1.0" encoding="utf-8" ?>
<svg baseProfile="full" height="256" version="1.1" width="256" xmlns="http://www.w3.org/2000/svg" xmlns:ev="http://www.w3.org/2001/xml-events" xmlns:xlink="http://www.w3.org/1999/xlink"><defs /><path d="M1741 1725Q1766 1725 1787 1707L2385 1163Q2408 1142 2408 1111Q2408 1097 2402.5 1083.5Q2397 1070 2386 1060L1788 516Q1768 498 1743 498Q1714 498 1693.5 518.0Q1673 538 1673 567V829Q1673 848 1659.5 861.5Q1646 875 1627 875H485Q450 875 425.0 900.0Q400 925 400 960V1264Q400 1299 425.0 1324.0Q450 1349 485 1349H1626Q1645 1349 1658.5 1362.5Q1672 1376 1672 1395V1656Q1672 1685 1692.0 1705.0Q1712 1725 1741 1725ZM1121 -287Q1074 -287 1033.0 -269.5Q992 -252 961.5 -221.0Q931 -190 913.0 -149.5Q895 -109 895 -62V145Q895 192 912.5 233.0Q930 274 961.0 305.0Q992 336 1033.0 353.5Q1074 371 1121 371Q1167 371 1208.0 353.0Q1249 335 1280.0 304.5Q1311 274 1328.5 232.5Q1346 191 1346 145V-62Q1346 -109 1328.5 -149.5Q1311 -190 1280.0 -221.0Q1249 -252 1208.0 -269.5Q1167 -287 1121 -287ZM1121 228Q1086 228 1062.0 204.0Q1038 180 1038 145V-62Q1038 -96 1062.5 -120.0Q1087 -144 1121 -144Q1155 -144 1179.0 -120.0Q1203 -96 1203 -62V145Q1203 179 1179.0 203.5Q1155 228 1121 228ZM1405 145Q1405 191 1422.5 232.5Q1440 274 1471.0 304.5Q1502 335 1542.5 353.0Q1583 371 1630 371Q1677 371 1718.0 353.5Q1759 336 1790.0 305.0Q1821 274 1838.5 233.0Q1856 192 1856 145V-62Q1856 -109 1838.0 -149.5Q1820 -190 1789.5 -221.0Q1759 -252 1717.5 -269.5Q1676 -287 1630 -287Q1583 -287 1542.5 -269.5Q1502 -252 1471.0 -221.0Q1440 -190 1422.5 -149.5Q1405 -109 1405 -62ZM1548 -62Q1548 -96 1572.0 -120.0Q1596 -144 1630 -144Q1664 -144 1688.5 -120.0Q1713 -96 1713 -62V145Q1713 179 1688.5 203.5Q1664 228 1630 228Q1596 228 1572.0 203.5Q1548 179 1548 145ZM643 -287Q617 -287 576.0 -278.0Q535 -269 496.0 -252.0Q457 -235 429.0 -209.0Q401 -183 401 -150Q401 -121 422.5 -99.5Q444 -78 473 -78Q492 -78 507.0 -88.5Q522 -99 540.5 -111.0Q559 -123 585.0 -133.5Q611 -144 653 -144Q672 -144 687.5 -131.5Q703 -119 703 -99Q703 -75 680.5 -60.5Q658 -46 625.0 -34.0Q592 -22 552.5 -8.5Q513 5 480.0 28.5Q447 52 424.5 88.5Q402 125 402 183Q402 226 418.5 260.5Q435 295 463.0 319.5Q491 344 528.0 357.5Q565 371 606 371Q633 371 674.0 362.0Q715 353 753.5 336.0Q792 319 820.0 293.5Q848 268 848 234Q848 204 827.0 183.0Q806 162 776 162Q756 162 741.5 172.0Q727 182 708.5 194.5Q690 207 663.5 217.0Q637 227 595 227Q575 227 560.5 215.0Q546 203 546 182Q546 158 568.5 144.0Q591 130 624.0 118.0Q657 106 696.5 92.5Q736 79 769.0 55.5Q802 32 824.5 -4.5Q847 -41 847 -98Q847 -141 830.5 -176.0Q814 -211 786.0 -235.5Q758 -260 721.0 -273.5Q684 -287 643 -287ZM2336 -287Q2297 -287 2276 -255L2070 60V-215Q2070 -245 2049.0 -266.0Q2028 -287 1998 -287Q1969 -287 1947.5 -265.5Q1926 -244 1926 -215V300Q1926 329 1947.0 350.5Q1968 372 1998 372Q2036 372 2058 339L2264 25V300Q2264 329 2285.5 350.5Q2307 372 2336 372Q2365 372 2386.5 350.5Q2408 329 2408 300V-215Q2408 -245 2387.0 -266.0Q2366 -287 2336 -287Z" style="fill:#635994;stroke:none" transform="scale(1,-1) translate(0,-256)" /></svg>