<?xml version="1.0" encoding="utf-8" ?>
<svg baseProfile="full" height="256" version="1.1" width="256" xmlns="http://www.w3.org/2000/svg" xmlns:ev="http://www.w3.org/2001/xml-events" xmlns:xlink="http://www.w3.org/1999/xlink"><defs /><path d="M1771 1431Q1799 1431 1819.0 1451.0Q1839 1471 1839 1499V1661Q1839 1696 1862.5 1710.5Q1886 1725 1917 1725Q1943 1725 1962.5 1706.0Q1982 1687 1982 1661L1983 1205Q1983 1188 1980.5 1171.5Q1978 1155 1973 1138L1843 683Q1840 672 1840 661Q1840 642 1847 628L2038 216Q2044 202 2044 185Q2044 174 2038.5 156.0Q2033 138 2023 131L1474 -239Q1446 -258 1416.0 -268.5Q1386 -279 1353 -279Q1321 -279 1289.0 -268.5Q1257 -258 1231 -239L717 129Q708 136 702.5 153.0Q697 170 697 181Q697 190 699.5 199.0Q702 208 706 216L893 628Q900 643 900 662Q900 672 897 683L768 1139Q759 1170 759 1204Q759 1319 759.5 1433.0Q760 1547 760 1662Q760 1697 783.5 1712.0Q807 1727 838 1727Q860 1727 873.5 1718.0Q887 1709 894.0 1694.5Q901 1680 903.0 1662.0Q905 1644 905 1626Q905 1603 903.5 1579.5Q902 1556 902 1533Q902 1515 904.0 1496.5Q906 1478 913.0 1463.5Q920 1449 933.5 1440.0Q947 1431 970 1431Z" style="fill:#f70a8d;stroke:none" transform="scale(1,-1) translate(0,-256)" /></svg>