<?xml version="1.0" encoding="utf-8" ?>
<svg baseProfile="full" height="256" version="1.1" width="256" xmlns="http://www.w3.org/2000/svg" xmlns:ev="http://www.w3.org/2001/xml-events" xmlns:xlink="http://www.w3.org/1999/xlink"><defs /><path d="M1373 1153 1412 1193Q1422 1189 1435.5 1178.0Q1449 1167 1462.5 1154.0Q1476 1141 1488.5 1127.5Q1501 1114 1510 1105Q1501 1103 1491.0 1099.5Q1481 1096 1474 1091Q1473 1091 1473.0 1090.5Q1473 1090 1472 1090Q1461 1103 1451.0 1115.0Q1441 1127 1429.5 1136.0Q1418 1145 1404.5 1149.5Q1391 1154 1373 1153ZM951 731 982 763Q996 733 1013.5 715.0Q1031 697 1055 673Q1042 653 1039 633Q1031 641 1018.5 654.0Q1006 667 992.5 681.0Q979 695 967.5 708.5Q956 722 951 731ZM1683 826Q1692 847 1692 870Q1692 892 1686.0 909.0Q1680 926 1669.5 940.0Q1659 954 1646.0 967.0Q1633 980 1618 995Q1616 982 1610.5 970.0Q1605 958 1596 948Q1622 919 1646.0 891.5Q1670 864 1683 826ZM1147 524Q1175 528 1197 549Q1214 534 1227.5 521.0Q1241 508 1254.5 497.0Q1268 486 1283.5 477.0Q1299 468 1320 460Q1297 451 1273 451Q1250 451 1233.5 457.0Q1217 463 1202.5 473.0Q1188 483 1175.0 496.0Q1162 509 1147 524Z" style="fill:#f1a11e;stroke:none" transform="scale(1,-1) translate(0,-256)" /></svg>