<?xml version="1.0" encoding="utf-8" ?>
<svg baseProfile="full" height="256" version="1.1" width="256" xmlns="http://www.w3.org/2000/svg" xmlns:ev="http://www.w3.org/2001/xml-events" xmlns:xlink="http://www.w3.org/1999/xlink"><defs /><path d="M1476 1033Q1499 1008 1499 975Q1499 957 1492.5 942.5Q1486 928 1475.5 915.5Q1465 903 1452.5 892.0Q1440 881 1428 869Q1404 845 1369 845Q1351 845 1333 853L1293 813Q1301 795 1301 777Q1301 759 1294.5 744.5Q1288 730 1277.5 718.0Q1267 706 1255.0 695.0Q1243 684 1231 672Q1219 660 1203.0 653.0Q1187 646 1170 646Q1154 646 1139.0 652.0Q1124 658 1113 669L1037 618L1005 666L1086 721Q1084 741 1090.0 759.5Q1096 778 1110 792Q1122 804 1133.0 816.0Q1144 828 1156.0 838.5Q1168 849 1182.5 855.5Q1197 862 1215 862Q1233 862 1251 854L1291 894Q1283 912 1283 930Q1283 948 1289.5 962.5Q1296 977 1306.5 989.0Q1317 1001 1329.0 1012.0Q1341 1023 1353 1035Q1378 1060 1413 1060L1423 1059L1478 1139L1525 1106Z" style="fill:#433b6b;stroke:none" transform="scale(1,-1) translate(0,-256)" /></svg>