<?xml version="1.0" encoding="utf-8" ?>
<svg baseProfile="full" height="256" version="1.1" width="256" xmlns="http://www.w3.org/2000/svg" xmlns:ev="http://www.w3.org/2001/xml-events" xmlns:xlink="http://www.w3.org/1999/xlink"><defs /><path d="M400 935Q429 964 466.0 979.0Q503 994 543 994Q577 994 602.0 985.0Q627 976 648.0 963.0Q669 950 687.5 934.5Q706 919 726.5 906.0Q747 893 772.0 884.0Q797 875 831 875Q865 875 890.0 884.0Q915 893 935.5 906.0Q956 919 974.5 934.5Q993 950 1013.5 963.0Q1034 976 1059.0 985.0Q1084 994 1118 994Q1152 994 1177.0 985.0Q1202 976 1223.0 963.0Q1244 950 1262.5 934.5Q1281 919 1301.5 906.0Q1322 893 1347.0 884.0Q1372 875 1406 875Q1440 875 1465.0 884.0Q1490 893 1510.5 906.0Q1531 919 1549.5 934.5Q1568 950 1588.5 963.0Q1609 976 1634.0 985.0Q1659 994 1693 994Q1727 994 1752.0 985.0Q1777 976 1798.0 963.0Q1819 950 1837.5 934.5Q1856 919 1876.5 906.0Q1897 893 1922.0 884.0Q1947 875 1981 875Q2015 875 2040.0 884.0Q2065 893 2085.5 906.0Q2106 919 2124.5 934.5Q2143 950 2163.5 963.0Q2184 976 2209.0 985.0Q2234 994 2268 994Q2309 994 2346.0 979.0Q2383 964 2412 935V291H400Z" style="fill:#26c9fc;stroke:none" transform="scale(1,-1) translate(0,-256)" /></svg>