<?xml version="1.0" encoding="utf-8" ?>
<svg baseProfile="full" height="256" version="1.1" width="256" xmlns="http://www.w3.org/2000/svg" xmlns:ev="http://www.w3.org/2001/xml-events" xmlns:xlink="http://www.w3.org/1999/xlink"><defs /><path d="M969 707Q921 745 893.0 799.5Q865 854 865 917Q865 969 885.0 1016.5Q905 1064 942 1101Q975 1134 1005.0 1166.0Q1035 1198 1068.0 1222.5Q1101 1247 1139.5 1262.5Q1178 1278 1228 1278Q1290 1278 1344.5 1251.0Q1399 1224 1437 1175H1436Q1429 1175 1409.5 1160.0Q1390 1145 1364.0 1122.0Q1338 1099 1308.5 1072.0Q1279 1045 1254.0 1020.5Q1229 996 1210.5 978.0Q1192 960 1187 955Q1141 909 1096.0 862.5Q1051 816 1009 766Q1001 756 988.0 740.5Q975 725 970 713Q970 712 969.0 710.0Q968 708 969 707Z" style="fill:#f92f60;stroke:none" transform="scale(1,-1) translate(0,-256)" /></svg>