<?xml version="1.0" encoding="utf-8" ?>
<svg baseProfile="full" height="256" version="1.1" width="256" xmlns="http://www.w3.org/2000/svg" xmlns:ev="http://www.w3.org/2001/xml-events" xmlns:xlink="http://www.w3.org/1999/xlink"><defs /><path d="M918 900Q918 944 932.0 978.5Q946 1013 969.0 1042.5Q992 1072 1021.0 1099.0Q1050 1126 1079 1155Q1113 1189 1155.5 1207.0Q1198 1225 1246 1225Q1308 1225 1351.0 1200.5Q1394 1176 1433 1131L1650 884Q1673 858 1685.0 820.0Q1697 782 1697 747Q1697 713 1689.5 686.5Q1682 660 1668.0 637.5Q1654 615 1635.0 594.5Q1616 574 1593 551Q1570 528 1549.0 509.0Q1528 490 1505.5 476.0Q1483 462 1456.0 454.5Q1429 447 1395 447Q1362 447 1323.5 458.5Q1285 470 1259 493L1012 710Q968 748 943.0 794.0Q918 840 918 900Z" style="fill:#ffc83d;stroke:none" transform="scale(1,-1) translate(0,-256)" /></svg>