<?xml version="1.0" encoding="utf-8" ?>
<svg baseProfile="full" height="256" version="1.1" width="256" xmlns="http://www.w3.org/2000/svg" xmlns:ev="http://www.w3.org/2001/xml-events" xmlns:xlink="http://www.w3.org/1999/xlink"><defs /><path d="M1229 209Q1229 329 1274.5 435.5Q1320 542 1399.0 622.0Q1478 702 1584.0 748.5Q1690 795 1810 797L1635 1183Q1616 1225 1586.5 1259.0Q1557 1293 1520.0 1316.5Q1483 1340 1440.0 1353.0Q1397 1366 1351 1366Q1242 1366 1133.5 1366.5Q1025 1367 916 1367Q878 1367 854.5 1352.0Q831 1337 813.0 1319.0Q795 1301 779.0 1286.0Q763 1271 741 1271Q722 1271 710.5 1279.5Q699 1288 690 1303H689Q672 1286 649 1286Q626 1286 609.5 1303.0Q593 1320 593 1343Q593 1360 600.5 1372.0Q608 1384 620 1395Q607 1411 607 1431Q607 1454 624 1471L742 1588Q771 1617 808.5 1635.0Q846 1653 888 1653H1385Q1465 1653 1540.5 1630.5Q1616 1608 1680.5 1566.0Q1745 1524 1797.0 1465.0Q1849 1406 1882 1333L2184 670Q2236 628 2277.5 576.0Q2319 524 2348.0 465.0Q2377 406 2392.0 341.0Q2407 276 2407 209H1229Z" style="fill:#fcb100;stroke:none" transform="scale(1,-1) translate(0,-256)" /></svg>