<?xml version="1.0" encoding="utf-8" ?>
<svg baseProfile="full" height="256" version="1.1" width="256" xmlns="http://www.w3.org/2000/svg" xmlns:ev="http://www.w3.org/2001/xml-events" xmlns:xlink="http://www.w3.org/1999/xlink"><defs /><path d="M1462 967Q1462 944 1445 927Q1429 911 1413.0 894.5Q1397 878 1373 878Q1350 878 1333.0 895.0Q1316 912 1316 935Q1316 959 1333 976Q1349 992 1365.0 1008.0Q1381 1024 1405 1024Q1428 1024 1445.0 1007.5Q1462 991 1462 967ZM1267 772Q1267 749 1251 733Q1235 717 1219.0 700.0Q1203 683 1178 683Q1155 683 1138.0 700.0Q1121 717 1121 740Q1121 765 1137.5 781.0Q1154 797 1170 813Q1186 829 1210 829Q1234 829 1250.5 812.5Q1267 796 1267 772Z" style="fill:#00a6ed;stroke:none" transform="scale(1,-1) translate(0,-256)" /></svg>