<?xml version="1.0" encoding="utf-8" ?>
<svg baseProfile="full" height="256" version="1.1" width="256" xmlns="http://www.w3.org/2000/svg" xmlns:ev="http://www.w3.org/2001/xml-events" xmlns:xlink="http://www.w3.org/1999/xlink"><defs /><path d="M1377 704Q1358 704 1350 720Q1347 726 1338.5 740.5Q1330 755 1321.0 771.0Q1312 787 1305.5 801.0Q1299 815 1299 821Q1299 830 1306.0 837.0Q1313 844 1322 844Q1328 844 1342.0 837.5Q1356 831 1372.0 822.5Q1388 814 1402.5 805.5Q1417 797 1423 794Q1439 786 1439 766Q1439 754 1430 745Q1425 740 1419.5 733.0Q1414 726 1407.0 719.5Q1400 713 1392.5 708.5Q1385 704 1377 704Z" style="fill:#ed9200;stroke:none" transform="scale(1,-1) translate(0,-256)" /></svg>