<?xml version="1.0" encoding="utf-8" ?>
<svg baseProfile="full" height="256" version="1.1" width="256" xmlns="http://www.w3.org/2000/svg" xmlns:ev="http://www.w3.org/2001/xml-events" xmlns:xlink="http://www.w3.org/1999/xlink"><defs /><path d="M903 791Q923 791 935.0 783.5Q947 776 960 762Q1000 718 1053.5 688.5Q1107 659 1166.0 642.0Q1225 625 1287.0 618.0Q1349 611 1406 611Q1463 611 1524.5 618.0Q1586 625 1645.5 642.0Q1705 659 1758.5 688.5Q1812 718 1852 762Q1864 776 1876.5 783.5Q1889 791 1908 791Q1938 791 1959.5 770.0Q1981 749 1981 719Q1981 706 1977.5 696.5Q1974 687 1967 676Q1956 660 1937.0 642.5Q1918 625 1903 613Q1852 572 1792.0 544.0Q1732 516 1667.5 499.0Q1603 482 1536.5 474.5Q1470 467 1406 467Q1342 467 1275.5 474.5Q1209 482 1144.5 499.0Q1080 516 1020.0 544.0Q960 572 909 613Q894 625 875.0 642.5Q856 660 845 676Q838 687 834.5 696.5Q831 706 831 719Q831 748 852.5 769.5Q874 791 903 791Z" style="fill:#402a32;stroke:none" transform="scale(1,-1) translate(0,-256)" /></svg>