<?xml version="1.0" encoding="utf-8" ?>
<svg baseProfile="full" height="256" version="1.1" width="256" xmlns="http://www.w3.org/2000/svg" xmlns:ev="http://www.w3.org/2001/xml-events" xmlns:xlink="http://www.w3.org/1999/xlink"><defs /><path d="M1163 250H1594V-53Q1594 -86 1583.5 -105.0Q1573 -124 1555.5 -134.0Q1538 -144 1514.0 -147.0Q1490 -150 1463 -150H1417L1384 -66H1490Q1502 -64 1507.0 -59.5Q1512 -55 1512 -42V169H1163V72Q1193 74 1222.5 77.0Q1252 80 1282 84L1249 121L1320 167Q1353 123 1386.5 81.5Q1420 40 1447 -8L1373 -50Q1365 -33 1356.0 -16.5Q1347 0 1336 15Q1209 -5 1082.0 -16.5Q955 -28 827 -28L797 52Q868 57 938.0 57.5Q1008 58 1079 63V169H753V-145H670V169H603V250H670V285H753V250H1079V306H738V656H1503V306H1163ZM891 728H605V808H891V890H975V808H1106V728H975V672H891ZM1634 808V728H1376V672H1295V728H1134V808H1295V890H1376V808ZM821 443V387H1079V443ZM1163 443V387H1420V443ZM821 576V522H1079V576ZM1163 576V522H1420V576Z" style="fill:#5a93cb;stroke:none" transform="scale(1,-1) translate(0,-256)" /></svg>