<?xml version="1.0" encoding="utf-8" ?>
<svg baseProfile="full" height="256" version="1.1" width="256" xmlns="http://www.w3.org/2000/svg" xmlns:ev="http://www.w3.org/2001/xml-events" xmlns:xlink="http://www.w3.org/1999/xlink"><defs /><path d="M1402 1103Q1430 1146 1466.5 1187.5Q1503 1229 1546.5 1263.5Q1590 1298 1638.0 1323.0Q1686 1348 1737 1359Q1766 1365 1795.5 1367.5Q1825 1370 1854 1370Q1963 1370 2052.5 1330.5Q2142 1291 2205.0 1222.0Q2268 1153 2302.5 1060.5Q2337 968 2337 862Q2337 752 2292.0 639.0Q2247 526 2172.5 415.5Q2098 305 2001.5 201.0Q1905 97 1801.0 5.5Q1697 -86 1593.5 -162.0Q1490 -238 1402 -292Q1336 -252 1260.5 -199.0Q1185 -146 1107.0 -83.0Q1029 -20 951.0 51.5Q873 123 802.0 200.5Q731 278 670.0 360.0Q609 442 563.5 526.0Q518 610 492.5 694.5Q467 779 467 862Q467 968 501.5 1060.5Q536 1153 599.0 1222.0Q662 1291 751.0 1330.5Q840 1370 950 1370Q979 1370 1008.5 1367.5Q1038 1365 1067 1359Q1118 1348 1166.0 1323.0Q1214 1298 1257.5 1263.5Q1301 1229 1337.5 1187.5Q1374 1146 1402 1103Z" style="fill:#f92f60;stroke:none" transform="scale(1,-1) translate(0,-256)" /></svg>