<?xml version="1.0" encoding="utf-8" ?>
<svg baseProfile="full" height="256" version="1.1" width="256" xmlns="http://www.w3.org/2000/svg" xmlns:ev="http://www.w3.org/2001/xml-events" xmlns:xlink="http://www.w3.org/1999/xlink"><defs /><path d="M400 1684Q400 1701 412.0 1713.0Q424 1725 441 1725Q445 1725 470.5 1718.0Q496 1711 533.0 1700.0Q570 1689 612.5 1675.5Q655 1662 693.0 1650.0Q731 1638 760.0 1629.0Q789 1620 799 1617Q812 1613 819.5 1602.5Q827 1592 827 1579Q827 1562 816 1551L574 1310Q562 1298 545 1298Q533 1298 522.5 1305.5Q512 1313 508 1325Q505 1334 496.0 1363.5Q487 1393 475.0 1431.5Q463 1470 449.5 1512.5Q436 1555 425.0 1592.0Q414 1629 407.0 1654.5Q400 1680 400 1684ZM2121 -74 1761 294 1760 68Q1760 38 1771.5 8.5Q1783 -21 1804 -42L2008 -251Q2023 -267 2043.0 -275.0Q2063 -283 2085 -283Q2107 -283 2127.0 -274.5Q2147 -266 2161.0 -251.0Q2175 -236 2183.5 -216.5Q2192 -197 2192 -175Q2192 -141 2172.5 -113.0Q2153 -85 2121 -74ZM1832 364 2200 4Q2212 -28 2239.5 -48.0Q2267 -68 2302 -68Q2324 -68 2343.5 -59.5Q2363 -51 2377.5 -36.0Q2392 -21 2400.5 -1.5Q2409 18 2409 40Q2409 85 2377 117L2168 321Q2147 342 2118.0 353.5Q2089 365 2059 365Z" style="fill:#635994;stroke:none" transform="scale(1,-1) translate(0,-256)" /></svg>