<?xml version="1.0" encoding="utf-8" ?>
<svg baseProfile="full" height="256" version="1.1" width="256" xmlns="http://www.w3.org/2000/svg" xmlns:ev="http://www.w3.org/2001/xml-events" xmlns:xlink="http://www.w3.org/1999/xlink"><defs /><path d="M2085 1725H2371Q2385 1725 2396.0 1714.5Q2407 1704 2407 1690Q2407 1643 2399.0 1595.0Q2391 1547 2384 1501Q2379 1474 2360.5 1456.0Q2342 1438 2313 1438H2058Q2044 1438 2033.0 1448.5Q2022 1459 2022 1473Q2022 1494 2024.5 1523.0Q2027 1552 2031.0 1583.0Q2035 1614 2040.0 1643.0Q2045 1672 2049 1694Q2054 1725 2085 1725ZM2011 1150Q2002 1118 2004.0 1081.5Q2006 1045 2006 1013Q2006 1003 2002.0 994.0Q1998 985 1993.5 977.0Q1989 969 1985.5 962.5Q1982 956 1982 951Q1982 939 1992.5 936.5Q2003 934 2012 934Q2049 934 2088.5 947.5Q2128 961 2160.0 985.0Q2192 1009 2212.5 1043.0Q2233 1077 2233 1118Q2233 1140 2224 1158L2227 1150ZM1074 959Q1074 930 1085.5 903.5Q1097 877 1116.5 857.5Q1136 838 1162.5 826.5Q1189 815 1218 815Q1247 815 1273.5 826.5Q1300 838 1320 858L1472 1010Q1502 1040 1518.5 1080.0Q1535 1120 1535 1162Q1535 1184 1527.5 1214.0Q1520 1244 1505.5 1271.0Q1491 1298 1469.5 1317.0Q1448 1336 1421 1336Q1391 1336 1370 1315L1116 1061Q1096 1041 1085.0 1014.5Q1074 988 1074 959ZM1379 654Q1379 683 1390.0 709.5Q1401 736 1421 756L1675 1010Q1696 1031 1726 1031Q1753 1031 1774.5 1012.0Q1796 993 1810.5 966.0Q1825 939 1832.5 909.0Q1840 879 1840 857Q1840 815 1823.5 775.0Q1807 735 1777 705L1625 553Q1605 533 1578.5 522.0Q1552 511 1523 511Q1493 511 1467.0 522.0Q1441 533 1421.5 552.5Q1402 572 1390.5 598.0Q1379 624 1379 654ZM1684 349Q1684 319 1695.5 293.0Q1707 267 1726.5 247.5Q1746 228 1772.0 217.0Q1798 206 1828 206Q1857 206 1883.5 217.0Q1910 228 1930 248L2082 400Q2112 430 2128.5 470.0Q2145 510 2145 552Q2145 574 2137.5 604.0Q2130 634 2115.5 661.0Q2101 688 2079.5 707.0Q2058 726 2031 726Q2001 726 1980 705L1726 451Q1706 431 1695.0 404.5Q1684 378 1684 349Z" style="fill:#9f70b8;stroke:none" transform="scale(1,-1) translate(0,-256)" /></svg>