<?xml version="1.0" encoding="utf-8" ?>
<svg baseProfile="full" height="256" version="1.1" width="256" xmlns="http://www.w3.org/2000/svg" xmlns:ev="http://www.w3.org/2001/xml-events" xmlns:xlink="http://www.w3.org/1999/xlink"><defs /><path d="M1116 1061Q1146 1091 1186.0 1107.5Q1226 1124 1269 1124Q1314 1124 1353.0 1107.0Q1392 1090 1421.0 1060.5Q1450 1031 1467.0 992.0Q1484 953 1484 908Q1484 866 1467.5 826.0Q1451 786 1421 756Q1449 784 1476.0 813.5Q1503 843 1533.0 867.0Q1563 891 1597.5 906.0Q1632 921 1675 921Q1720 921 1759.0 904.0Q1798 887 1827.5 857.5Q1857 828 1874.0 789.0Q1891 750 1891 705Q1891 662 1876.0 627.5Q1861 593 1837.0 563.0Q1813 533 1784.0 506.0Q1755 479 1727 451Q1757 481 1796.5 497.5Q1836 514 1879 514Q1924 514 1963.0 497.0Q2002 480 2031.0 450.5Q2060 421 2077.0 382.0Q2094 343 2094 298Q2094 256 2077.5 216.0Q2061 176 2031 146L1598 -287H400V344Z" style="fill:#ffc83d;stroke:none" transform="scale(1,-1) translate(0,-256)" /></svg>