<?xml version="1.0" encoding="utf-8" ?>
<svg baseProfile="full" height="256" version="1.1" width="256" xmlns="http://www.w3.org/2000/svg" xmlns:ev="http://www.w3.org/2001/xml-events" xmlns:xlink="http://www.w3.org/1999/xlink"><defs /><path d="M2188 1653Q2188 1648 2183.0 1627.0Q2178 1606 2171.5 1580.5Q2165 1555 2159.0 1532.5Q2153 1510 2151 1503Q2148 1494 2141.0 1488.0Q2134 1482 2124 1482Q2113 1482 2105.5 1490.0Q2098 1498 2098 1509Q2098 1513 2103.0 1535.0Q2108 1557 2114.0 1582.5Q2120 1608 2126.0 1631.0Q2132 1654 2134 1660Q2137 1668 2144.0 1674.0Q2151 1680 2160 1680Q2171 1680 2179.5 1672.0Q2188 1664 2188 1653Z" style="fill:#f3eef8;stroke:none" transform="scale(1,-1) translate(0,-256)" /></svg>