<?xml version="1.0" encoding="utf-8" ?>
<svg baseProfile="full" height="256" version="1.1" width="256" xmlns="http://www.w3.org/2000/svg" xmlns:ev="http://www.w3.org/2001/xml-events" xmlns:xlink="http://www.w3.org/1999/xlink"><defs /><path d="M2100 1165Q2111 1155 2123.0 1144.5Q2135 1134 2135 1118Q2135 1107 2128.5 1100.0Q2122 1093 2113.0 1088.5Q2104 1084 2093.5 1082.0Q2083 1080 2074 1080Q2058 1080 2046 1084L1245 270Q1255 253 1260.5 234.0Q1266 215 1266 195Q1266 137 1224 95L871 -263Q849 -285 820 -285Q791 -285 769 -263L667 -163Q645 -143 645 -112Q645 -82 666 -61L1019 297Q1039 317 1066.0 328.5Q1093 340 1122 340Q1161 340 1195 320L1996 1133Q1991 1148 1991 1162Q1991 1171 1993.0 1181.5Q1995 1192 1999.5 1201.0Q2004 1210 2011.5 1216.0Q2019 1222 2030 1222Q2045 1222 2055.5 1210.5Q2066 1199 2076 1189Q2095 1184 2100 1165Z" style="fill:#f3ad61;stroke:none" transform="scale(1,-1) translate(0,-256)" /></svg>