<?xml version="1.0" encoding="utf-8" ?>
<svg baseProfile="full" height="256" version="1.1" width="256" xmlns="http://www.w3.org/2000/svg" xmlns:ev="http://www.w3.org/2001/xml-events" xmlns:xlink="http://www.w3.org/1999/xlink"><defs /><path d="M2053 1653Q2053 1624 2031.5 1602.5Q2010 1581 1981 1581Q1952 1581 1930.5 1602.5Q1909 1624 1909 1653Q1909 1683 1930.0 1704.0Q1951 1725 1981 1725Q2011 1725 2032.0 1704.0Q2053 1683 2053 1653ZM903 360Q932 360 953.5 381.0Q975 402 975 431Q975 461 954.0 482.0Q933 503 903 503Q873 503 852.0 482.0Q831 461 831 431Q831 402 852.5 381.0Q874 360 903 360ZM2125 -215Q2154 -215 2175.5 -194.0Q2197 -173 2197 -144Q2197 -115 2175.5 -93.5Q2154 -72 2125 -72Q2095 -72 2074.0 -93.0Q2053 -114 2053 -144Q2053 -173 2074.5 -194.0Q2096 -215 2125 -215ZM2148 935Q2095 935 2051.5 915.5Q2008 896 1976.0 862.0Q1944 828 1926.5 783.0Q1909 738 1909 687Q1909 649 1923.5 615.5Q1938 582 1962.5 557.0Q1987 532 2020.5 517.5Q2054 503 2092 503Q2121 503 2146.5 514.0Q2172 525 2191.5 544.0Q2211 563 2222.0 588.5Q2233 614 2233 643V665Q2233 687 2217.0 703.0Q2201 719 2179 719Q2157 719 2146.5 711.0Q2136 703 2131.5 691.0Q2127 679 2126.0 665.0Q2125 651 2122.5 639.0Q2120 627 2113.5 619.0Q2107 611 2092 611Q2055 611 2036.0 636.5Q2017 662 2017 696Q2017 727 2028.5 751.5Q2040 776 2059.5 793.0Q2079 810 2105.0 818.5Q2131 827 2161 827Q2191 827 2217.0 815.5Q2243 804 2262.5 784.5Q2282 765 2293.0 739.0Q2304 713 2304 683V657Q2304 610 2286.5 569.0Q2269 528 2238.0 497.5Q2207 467 2166.0 449.0Q2125 431 2079 431H1622Q1600 431 1584.0 416.0Q1568 401 1568 378Q1568 355 1583.5 339.5Q1599 324 1622 324H2079Q2148 324 2208.5 350.0Q2269 376 2314.5 421.5Q2360 467 2386.0 527.5Q2412 588 2412 657V683Q2412 739 2391.5 785.5Q2371 832 2335.0 865.0Q2299 898 2251.0 916.5Q2203 935 2148 935Z" style="fill:#00a6ed;stroke:none" transform="scale(1,-1) translate(0,-256)" /></svg>