<?xml version="1.0" encoding="utf-8" ?>
<svg baseProfile="full" height="256" version="1.1" width="256" xmlns="http://www.w3.org/2000/svg" xmlns:ev="http://www.w3.org/2001/xml-events" xmlns:xlink="http://www.w3.org/1999/xlink"><defs /><path d="M2304 1456Q2304 1400 2283.0 1351.0Q2262 1302 2225.0 1265.5Q2188 1229 2139.0 1207.5Q2090 1186 2035 1186Q2012 1186 1996.5 1201.5Q1981 1217 1981 1240Q1981 1263 1996.5 1278.5Q2012 1294 2035 1294Q2068 1294 2097.5 1307.0Q2127 1320 2149.0 1342.0Q2171 1364 2184.0 1393.5Q2197 1423 2197 1456Q2197 1478 2212.5 1494.0Q2228 1510 2250 1510Q2272 1510 2288.0 1494.0Q2304 1478 2304 1456ZM1011 90Q1011 34 989.5 -14.5Q968 -63 931.5 -100.0Q895 -137 845.5 -158.0Q796 -179 741 -179Q719 -179 703.0 -164.0Q687 -149 687 -126Q687 -103 702.5 -87.5Q718 -72 741 -72Q774 -72 803.5 -59.0Q833 -46 855.0 -24.0Q877 -2 890.0 27.5Q903 57 903 90Q903 113 918.5 128.5Q934 144 957 144Q980 144 995.5 128.5Q1011 113 1011 90Z" style="fill:#f70a8d;stroke:none" transform="scale(1,-1) translate(0,-256)" /></svg>