<?xml version="1.0" encoding="utf-8" ?>
<svg baseProfile="full" height="256" version="1.1" width="256" xmlns="http://www.w3.org/2000/svg" xmlns:ev="http://www.w3.org/2001/xml-events" xmlns:xlink="http://www.w3.org/1999/xlink"><defs /><path d="M426 996Q399 1023 399 1058Q399 1077 406.0 1094.0Q413 1111 425.5 1123.5Q438 1136 454.5 1143.0Q471 1150 490 1150H832L975 866L832 590ZM1981 590 1873 863 1981 1150H2323Q2342 1150 2358.5 1143.0Q2375 1136 2387.5 1123.5Q2400 1111 2407.0 1094.5Q2414 1078 2414 1059Q2414 1023 2387 996Z" style="fill:#f9c23c;stroke:none" transform="scale(1,-1) translate(0,-256)" /></svg>