<?xml version="1.0" encoding="utf-8" ?>
<svg baseProfile="full" height="256" version="1.1" width="256" xmlns="http://www.w3.org/2000/svg" xmlns:ev="http://www.w3.org/2001/xml-events" xmlns:xlink="http://www.w3.org/1999/xlink"><defs /><path d="M2324 599Q2324 473 2291.0 355.5Q2258 238 2198.5 136.5Q2139 35 2055.5 -48.5Q1972 -132 1870.0 -192.0Q1768 -252 1650.5 -284.5Q1533 -317 1407 -317Q1280 -317 1163.0 -284.0Q1046 -251 944.0 -191.5Q842 -132 758.5 -48.5Q675 35 615.0 137.0Q555 239 522.5 356.0Q490 473 490 600L743 852L990 604L1407 1021L1824 604L2073 853L2325 600Z" style="fill:#d3d3d3;stroke:none" transform="scale(1,-1) translate(0,-256)" /></svg>