<?xml version="1.0" encoding="utf-8" ?>
<svg baseProfile="full" height="256" version="1.1" width="256" xmlns="http://www.w3.org/2000/svg" xmlns:ev="http://www.w3.org/2001/xml-events" xmlns:xlink="http://www.w3.org/1999/xlink"><defs /><path d="M543 683V467Q543 427 517.5 397.5Q492 368 453 361Q430 366 415.0 385.0Q400 404 400 427V723Q400 747 415.0 765.5Q430 784 453 789Q493 783 518.0 753.0Q543 723 543 683ZM1190 0V84Q1190 109 1208.0 126.5Q1226 144 1251 144H1826Q1853 144 1877.0 133.5Q1901 123 1918.5 105.5Q1936 88 1946.5 64.0Q1957 40 1957 13Q1928 7 1897.5 3.5Q1867 0 1837 0Z" style="fill:#fbb8ab;stroke:none" transform="scale(1,-1) translate(0,-256)" /></svg>