<?xml version="1.0" encoding="utf-8" ?>
<svg baseProfile="full" height="256" version="1.1" width="256" xmlns="http://www.w3.org/2000/svg" xmlns:ev="http://www.w3.org/2001/xml-events" xmlns:xlink="http://www.w3.org/1999/xlink"><defs /><path d="M1837 1150Q1962 1150 2074.0 1100.0Q2186 1050 2268 956V1052Q2268 1063 2276.5 1071.5Q2285 1080 2296 1080Q2300 1080 2306 1078Q2354 1059 2383.0 1016.0Q2412 973 2412 922V575Q2412 469 2375.0 371.5Q2338 274 2268 195V-265Q2268 -274 2261.5 -280.5Q2255 -287 2246 -287H2147Q2138 -287 2131.5 -280.5Q2125 -274 2125 -265V-144Q2125 -135 2121.0 -120.5Q2117 -106 2109 -100L1957 13L1619 79L1190 0V-265Q1190 -274 1183.5 -280.5Q1177 -287 1168 -287H1069Q1060 -287 1053.5 -280.5Q1047 -274 1047 -265V-100Q1047 -72 1027 -52L648 327Q615 360 569 360Q543 360 510.0 358.0Q477 356 452 361V789Q478 795 508.5 793.0Q539 791 566 791Q606 791 625 828Q651 879 685.0 923.5Q719 968 762 1006Q755 1016 736.5 1042.0Q718 1068 698.5 1097.5Q679 1127 663.5 1152.0Q648 1177 648 1186Q648 1201 658.5 1211.5Q669 1222 684 1222Q722 1222 759.0 1223.5Q796 1225 830.5 1219.5Q865 1214 895.5 1198.5Q926 1183 951 1149Z" style="fill:#ff8687;stroke:none" transform="scale(1,-1) translate(0,-256)" /></svg>