<?xml version="1.0" encoding="utf-8" ?>
<svg baseProfile="full" height="256" version="1.1" width="256" xmlns="http://www.w3.org/2000/svg" xmlns:ev="http://www.w3.org/2001/xml-events" xmlns:xlink="http://www.w3.org/1999/xlink"><defs /><path d="M1478 72Q1480 62 1485.5 35.0Q1491 8 1498.5 -28.0Q1506 -64 1514.5 -103.5Q1523 -143 1529.5 -177.5Q1536 -212 1540.5 -236.5Q1545 -261 1545 -266Q1545 -275 1538.5 -281.0Q1532 -287 1523 -287H1425Q1417 -287 1410.5 -282.0Q1404 -277 1402 -269L1334 72ZM1761 72H1905L1836 -269Q1834 -277 1828.0 -282.0Q1822 -287 1814 -287H1716Q1706 -287 1699.5 -280.5Q1693 -274 1693 -263Q1693 -259 1697.5 -235.0Q1702 -211 1709.0 -177.0Q1716 -143 1724.5 -103.0Q1733 -63 1740.5 -27.0Q1748 9 1753.5 36.5Q1759 64 1761 72Z" style="fill:#ff5e59;stroke:none" transform="scale(1,-1) translate(0,-256)" /></svg>