<?xml version="1.0" encoding="utf-8" ?>
<svg baseProfile="full" height="256" version="1.1" width="256" xmlns="http://www.w3.org/2000/svg" xmlns:ev="http://www.w3.org/2001/xml-events" xmlns:xlink="http://www.w3.org/1999/xlink"><defs /><path d="M1541 946Q1541 949 1559.0 982.0Q1577 1015 1604.5 1064.0Q1632 1113 1664.5 1170.5Q1697 1228 1727.0 1279.5Q1757 1331 1779.5 1369.0Q1802 1407 1809 1418Q1826 1445 1856 1445Q1872 1445 1886 1436Q1958 1391 2018.0 1329.5Q2078 1268 2124.5 1196.0Q2171 1124 2203.5 1043.5Q2236 963 2253 881Q2258 855 2262.5 829.0Q2267 803 2267 777Q2267 753 2252.5 736.0Q2238 719 2213 719H1683Q1671 719 1665.0 726.5Q1659 734 1656.0 744.5Q1653 755 1652.0 766.0Q1651 777 1649 785Q1643 809 1633.5 827.5Q1624 846 1611.5 862.0Q1599 878 1584.0 892.5Q1569 907 1552 923Q1547 928 1544.0 933.0Q1541 938 1541 946ZM1271 946Q1271 938 1268.0 933.0Q1265 928 1260 923Q1243 907 1228.0 892.5Q1213 878 1200.5 862.0Q1188 846 1178.5 827.5Q1169 809 1163 785Q1161 777 1160.0 766.0Q1159 755 1156.0 744.5Q1153 734 1147.0 726.5Q1141 719 1129 719H599Q574 719 559.5 736.0Q545 753 545 777Q545 803 549.0 829.0Q553 855 558 881Q574 962 606.5 1042.5Q639 1123 686.5 1195.5Q734 1268 794.0 1330.0Q854 1392 926 1436Q939 1445 956 1445Q986 1445 1003 1418Q1010 1407 1032.5 1369.0Q1055 1331 1085.0 1279.5Q1115 1228 1147.5 1170.5Q1180 1113 1207.5 1064.0Q1235 1015 1253.0 982.0Q1271 949 1271 946ZM1550 719Q1550 689 1538.5 663.0Q1527 637 1507.5 617.5Q1488 598 1462.0 586.5Q1436 575 1406 575Q1376 575 1350.0 586.5Q1324 598 1304.5 617.5Q1285 637 1273.5 663.0Q1262 689 1262 719Q1262 749 1273.5 775.0Q1285 801 1304.5 820.5Q1324 840 1350.0 851.5Q1376 863 1406 863Q1436 863 1462.0 851.5Q1488 840 1507.5 820.5Q1527 801 1538.5 775.0Q1550 749 1550 719ZM1521 493Q1536 493 1545 479L1809 20Q1817 6 1817 -8Q1817 -24 1809.0 -36.0Q1801 -48 1787 -55Q1702 -100 1602.0 -122.0Q1502 -144 1406 -144Q1359 -144 1309.5 -138.5Q1260 -133 1210.5 -122.0Q1161 -111 1113.5 -94.5Q1066 -78 1025 -55Q1012 -47 1003.5 -34.5Q995 -22 995 -7Q995 9 1002 20L1267 479Q1276 493 1291 493Q1296 493 1302 490Q1327 479 1353.0 473.0Q1379 467 1406 467Q1433 467 1459.0 473.0Q1485 479 1510 490Q1516 493 1521 493Z" style="fill:#000000;stroke:none" transform="scale(1,-1) translate(0,-256)" /></svg>