<?xml version="1.0" encoding="utf-8" ?>
<svg baseProfile="full" height="256" version="1.1" width="256" xmlns="http://www.w3.org/2000/svg" xmlns:ev="http://www.w3.org/2001/xml-events" xmlns:xlink="http://www.w3.org/1999/xlink"><defs /><path d="M2196 978 2373 593Q2343 494 2294.0 406.5Q2245 319 2180.0 245.5Q2115 172 2035.5 113.0Q1956 54 1866.5 13.0Q1777 -28 1679.0 -50.0Q1581 -72 1478 -72Q1349 -72 1229.5 -38.5Q1110 -5 1006.0 56.0Q902 117 817.0 202.0Q732 287 671.0 391.0Q610 495 576.5 614.5Q543 734 543 863V1044Q543 1155 585.5 1253.0Q628 1351 701.0 1424.0Q774 1497 872.0 1539.0Q970 1581 1081 1581Q1157 1581 1229.5 1560.5Q1302 1540 1364.5 1501.5Q1427 1463 1478.0 1408.0Q1529 1353 1563 1284Q1573 1263 1577.5 1253.0Q1582 1243 1584.5 1234.5Q1587 1226 1590.0 1215.5Q1593 1205 1601 1183Q1608 1164 1618.5 1151.5Q1629 1139 1649 1133Z" style="fill:#fcd53f;stroke:none" transform="scale(1,-1) translate(0,-256)" /></svg>