<?xml version="1.0" encoding="utf-8" ?>
<svg baseProfile="full" height="256" version="1.1" width="256" xmlns="http://www.w3.org/2000/svg" xmlns:ev="http://www.w3.org/2001/xml-events" xmlns:xlink="http://www.w3.org/1999/xlink"><defs /><path d="M2304 719Q2304 595 2272.0 480.5Q2240 366 2181.5 266.0Q2123 166 2041.0 84.0Q1959 2 1859.0 -56.5Q1759 -115 1644.5 -147.0Q1530 -179 1406 -179Q1282 -179 1167.5 -147.0Q1053 -115 953.0 -56.5Q853 2 771.0 84.0Q689 166 630.5 266.0Q572 366 540.0 480.5Q508 595 508 719Q508 843 540.0 957.5Q572 1072 630.5 1172.0Q689 1272 771.0 1354.0Q853 1436 953.0 1494.5Q1053 1553 1167.5 1585.0Q1282 1617 1406 1617Q1530 1617 1644.5 1585.0Q1759 1553 1859.0 1494.5Q1959 1436 2041.0 1354.0Q2123 1272 2181.5 1172.0Q2240 1072 2272.0 957.5Q2304 843 2304 719Z" style="fill:#e6e6e6;stroke:none" transform="scale(1,-1) translate(0,-256)" /></svg>