<?xml version="1.0" encoding="utf-8" ?>
<svg baseProfile="full" height="256" version="1.1" width="256" xmlns="http://www.w3.org/2000/svg" xmlns:ev="http://www.w3.org/2001/xml-events" xmlns:xlink="http://www.w3.org/1999/xlink"><defs /><path d="M2413 1680Q2413 1635 2386.0 1605.0Q2359 1575 2316 1567Q2305 1565 2292.5 1564.5Q2280 1564 2269 1562V1510H544V1562Q516 1563 490.0 1569.5Q464 1576 444.0 1589.5Q424 1603 412.0 1625.0Q400 1647 400 1680Q400 1700 406.5 1712.5Q413 1725 436 1725Q459 1725 481.5 1720.5Q504 1716 527 1713Q635 1699 743 1689Q909 1673 1074.0 1666.0Q1239 1659 1406 1659Q1752 1659 2096 1692Q2166 1699 2235.5 1708.0Q2305 1717 2376 1725H2381Q2401 1725 2407.0 1711.0Q2413 1697 2413 1680ZM1550 1366H1262V1151H1550ZM759 1007H975V791H759ZM687 -287H1047V-204Q1047 -179 1029.0 -161.0Q1011 -143 986 -143H748Q723 -143 705.0 -161.0Q687 -179 687 -204ZM2131 -287H1771V-204Q1771 -179 1789.0 -161.0Q1807 -143 1832 -143H2070Q2095 -143 2113.0 -161.0Q2131 -179 2131 -204ZM1837 1007H2053V791H1837Z" style="fill:#212121;stroke:none" transform="scale(1,-1) translate(0,-256)" /></svg>