<?xml version="1.0" encoding="utf-8" ?>
<svg baseProfile="full" height="256" version="1.1" width="256" xmlns="http://www.w3.org/2000/svg" xmlns:ev="http://www.w3.org/2001/xml-events" xmlns:xlink="http://www.w3.org/1999/xlink"><defs /><path d="M657 1366Q634 1366 613.5 1375.0Q593 1384 577.5 1399.5Q562 1415 553.0 1436.0Q544 1457 544 1480V1510H2269V1480Q2269 1457 2260.0 1436.0Q2251 1415 2235.5 1399.5Q2220 1384 2199.5 1375.0Q2179 1366 2156 1366ZM472 1007Q442 1007 421.0 1028.0Q400 1049 400 1079Q400 1108 421.5 1129.5Q443 1151 472 1151H2341Q2370 1151 2391.0 1129.5Q2412 1108 2412 1079Q2412 1049 2391.5 1028.0Q2371 1007 2341 1007Z" style="fill:#f8312f;stroke:none" transform="scale(1,-1) translate(0,-256)" /></svg>