<?xml version="1.0" encoding="utf-8" ?>
<svg baseProfile="full" height="256" version="1.1" width="256" xmlns="http://www.w3.org/2000/svg" xmlns:ev="http://www.w3.org/2001/xml-events" xmlns:xlink="http://www.w3.org/1999/xlink"><defs /><path d="M964 353Q930 400 912.0 454.5Q894 509 894 566Q894 638 921.0 704.0Q948 770 999 821L1304 1126Q1355 1177 1421.0 1204.0Q1487 1231 1559 1231Q1616 1231 1670.5 1213.0Q1725 1195 1772 1161L2227 1616Q2271 1584 2303 1540L1848 1085Q1882 1038 1900.0 983.5Q1918 929 1918 872Q1918 800 1891.0 734.0Q1864 668 1813 617L1508 312Q1457 261 1391.0 234.0Q1325 207 1253 207Q1196 207 1141.5 225.0Q1087 243 1040 277L585 -178Q540 -147 509 -102L964 353Z" style="fill:#ff6723;stroke:none" transform="scale(1,-1) translate(0,-256)" /></svg>