<?xml version="1.0" encoding="utf-8" ?>
<svg baseProfile="full" height="256" version="1.1" width="256" xmlns="http://www.w3.org/2000/svg" xmlns:ev="http://www.w3.org/2001/xml-events" xmlns:xlink="http://www.w3.org/1999/xlink"><defs /><path d="M1550 1061Q1572 1061 1588 1045L1732 901Q1748 885 1748 863Q1748 840 1732.0 824.5Q1716 809 1693 809Q1671 809 1655 825L1512 968Q1496 984 1496 1006Q1496 1029 1511.5 1045.0Q1527 1061 1550 1061ZM1406 917Q1428 917 1444 901L1588 757Q1604 741 1604 719Q1604 696 1588.5 680.5Q1573 665 1550 665Q1528 665 1512 681L1368 825Q1352 841 1352 863Q1352 886 1367.5 901.5Q1383 917 1406 917ZM1262 773Q1284 773 1300 757L1444 613Q1460 597 1460 575Q1460 552 1444.5 536.5Q1429 521 1406 521Q1384 521 1368 537L1224 681Q1208 697 1208 719Q1208 742 1223.5 757.5Q1239 773 1262 773ZM1118 629Q1141 629 1157 613L1300 470Q1316 454 1316 431Q1316 409 1300.5 393.0Q1285 377 1262 377Q1240 377 1224 393L1080 537Q1064 553 1064 575Q1064 598 1080.0 613.5Q1096 629 1118 629Z" style="fill:#ffdea7;stroke:none" transform="scale(1,-1) translate(0,-256)" /></svg>