<?xml version="1.0" encoding="utf-8" ?>
<svg baseProfile="full" height="256" version="1.1" width="256" xmlns="http://www.w3.org/2000/svg" xmlns:ev="http://www.w3.org/2001/xml-events" xmlns:xlink="http://www.w3.org/1999/xlink"><defs /><path d="M2412 1041Q2412 860 2364.0 691.0Q2316 522 2228.5 374.5Q2141 227 2019.0 105.5Q1897 -16 1749.5 -103.5Q1602 -191 1433.5 -239.0Q1265 -287 1084 -287Q981 -287 875.0 -271.5Q769 -256 672 -222Q519 -168 465 -15Q430 82 415.0 188.5Q400 295 400 398Q400 579 448.0 747.5Q496 916 583.5 1063.5Q671 1211 792.5 1332.5Q914 1454 1061.5 1541.5Q1209 1629 1377.5 1677.0Q1546 1725 1727 1725Q1830 1725 1936.5 1710.0Q2043 1695 2140 1660Q2293 1606 2347 1453Q2382 1356 2397.0 1250.0Q2412 1144 2412 1041Z" style="fill:#f9c23c;stroke:none" transform="scale(1,-1) translate(0,-256)" /></svg>