<?xml version="1.0" encoding="utf-8" ?>
<svg baseProfile="full" height="256" version="1.1" width="256" xmlns="http://www.w3.org/2000/svg" xmlns:ev="http://www.w3.org/2001/xml-events" xmlns:xlink="http://www.w3.org/1999/xlink"><defs /><path d="M1967 1652Q1981 1652 1992.5 1644.5Q2004 1637 2011.5 1625.5Q2019 1614 2023.0 1600.0Q2027 1586 2027 1574Q2027 1457 2027.5 1342.0Q2028 1227 2028 1110Q2028 1007 2013.5 908.0Q1999 809 1967.5 721.5Q1936 634 1886.5 560.0Q1837 486 1766.5 433.0Q1696 380 1603.5 350.0Q1511 320 1394 320Q1286 320 1193.0 349.5Q1100 379 1025.5 434.5Q951 490 895.5 570.5Q840 651 807 753Q796 787 787.5 836.0Q779 885 772.5 937.5Q766 990 762.5 1040.5Q759 1091 759 1128L760 1127V1574Q760 1587 764.0 1601.0Q768 1615 775.5 1626.0Q783 1637 794.5 1644.5Q806 1652 821 1652Q877 1652 928.0 1628.5Q979 1605 1024.5 1566.0Q1070 1527 1109.0 1476.5Q1148 1426 1180.5 1372.0Q1213 1318 1238.0 1264.5Q1263 1211 1281 1166Q1306 1104 1326 1038Q1331 1021 1335.0 1005.0Q1339 989 1345 973Q1351 956 1362.0 942.0Q1373 928 1394 928Q1414 928 1424.5 941.5Q1435 955 1441 972Q1447 988 1451.0 1004.5Q1455 1021 1460 1037Q1479 1103 1505 1166Q1523 1211 1548.0 1264.5Q1573 1318 1605.5 1372.0Q1638 1426 1677.5 1476.5Q1717 1527 1762.5 1566.0Q1808 1605 1859.0 1628.5Q1910 1652 1967 1652Z" style="fill:#ff6dc6;stroke:none" transform="scale(1,-1) translate(0,-256)" /></svg>