<?xml version="1.0" encoding="utf-8" ?>
<svg baseProfile="full" height="256" version="1.1" width="256" xmlns="http://www.w3.org/2000/svg" xmlns:ev="http://www.w3.org/2001/xml-events" xmlns:xlink="http://www.w3.org/1999/xlink"><defs /><path d="M1466 -175Q1479 -126 1507.5 -84.0Q1536 -42 1575.0 -11.0Q1614 20 1661.0 37.5Q1708 55 1760 55L1967 56Q1975 56 1980.0 50.0Q1985 44 1985 36Q1985 14 1980.5 -9.0Q1976 -32 1969 -53Q1951 -110 1917.5 -157.0Q1884 -204 1838.0 -238.0Q1792 -272 1737.5 -291.0Q1683 -310 1623 -310Q1615 -310 1591.5 -310.5Q1568 -311 1541.5 -311.0Q1515 -311 1492.5 -310.5Q1470 -310 1466 -308Q1432 -308 1397.5 -309.0Q1363 -310 1330 -310Q1278 -310 1226.5 -310.0Q1175 -310 1123 -309Q1060 -309 1004.0 -283.5Q948 -258 906.5 -215.0Q865 -172 841.0 -115.0Q817 -58 817 5Q817 11 816.5 19.5Q816 28 817.5 36.5Q819 45 823.0 50.5Q827 56 837 56H985Q1040 56 1092.0 39.5Q1144 23 1188.0 -7.0Q1232 -37 1266.5 -79.5Q1301 -122 1322 -173V420H1466Z" style="fill:#86d72f;stroke:none" transform="scale(1,-1) translate(0,-256)" /></svg>