<?xml version="1.0" encoding="utf-8" ?>
<svg baseProfile="full" height="256" version="1.1" width="256" xmlns="http://www.w3.org/2000/svg" xmlns:ev="http://www.w3.org/2001/xml-events" xmlns:xlink="http://www.w3.org/1999/xlink"><defs /><path d="M1069 500Q1042 500 1023 518L426 1062Q403 1082 403 1112Q403 1143 426 1163L1023 1707Q1044 1725 1069 1725Q1098 1725 1118.0 1705.0Q1138 1685 1138 1656V1395Q1138 1376 1151.5 1362.5Q1165 1349 1184 1349H2324Q2359 1349 2384.0 1324.0Q2409 1299 2409 1264V961Q2409 926 2384.0 901.0Q2359 876 2324 876H1184Q1165 876 1151.5 862.5Q1138 849 1138 830V569Q1138 540 1118.0 520.0Q1098 500 1069 500ZM1166 360Q1195 360 1216.0 344.0Q1237 328 1247 301L1430 -198Q1434 -207 1434 -221Q1434 -249 1415.0 -268.0Q1396 -287 1368 -287Q1348 -287 1330.5 -275.5Q1313 -264 1306 -244L1277 -163Q1275 -164 1258.5 -164.0Q1242 -164 1218.0 -164.5Q1194 -165 1166.0 -165.0Q1138 -165 1113.5 -164.5Q1089 -164 1072.5 -164.0Q1056 -164 1054 -163L1025 -244Q1017 -264 1000.5 -275.5Q984 -287 963 -287Q935 -287 916.0 -268.5Q897 -250 897 -222Q897 -208 901 -199L1085 303Q1095 329 1116.0 344.5Q1137 360 1166 360ZM1228 -31 1166 140 1103 -31ZM847 165Q847 138 840.0 111.5Q833 85 818 62Q854 35 874.5 -6.5Q895 -48 895 -93Q895 -129 880.5 -163.5Q866 -198 841.5 -225.5Q817 -253 783.5 -270.0Q750 -287 713 -287H466Q438 -287 419.0 -268.0Q400 -249 400 -221V294Q400 321 419.5 340.5Q439 360 466 360H653Q693 360 728.5 344.5Q764 329 790.0 302.5Q816 276 831.5 240.5Q847 205 847 165ZM653 227H532V102H653Q679 102 697.5 120.5Q716 139 716 165Q716 191 697.5 209.0Q679 227 653 227ZM532 -29V-154H701Q727 -154 745.0 -136.0Q763 -118 763 -92Q763 -66 745.0 -47.5Q727 -29 701 -29ZM1675 -287Q1625 -287 1582.0 -268.5Q1539 -250 1506.5 -217.5Q1474 -185 1455.5 -142.0Q1437 -99 1437 -49V122Q1437 171 1456.0 214.5Q1475 258 1507.0 290.0Q1539 322 1582.5 341.0Q1626 360 1675 360Q1706 360 1736.5 351.5Q1767 343 1794.0 327.5Q1821 312 1843.5 290.0Q1866 268 1881 241Q1890 226 1890 208Q1890 181 1870.5 161.0Q1851 141 1824 141Q1799 141 1785.5 154.5Q1772 168 1758.5 184.0Q1745 200 1727.0 213.5Q1709 227 1675 227Q1653 227 1634.0 218.5Q1615 210 1600.5 196.0Q1586 182 1577.5 163.0Q1569 144 1569 122V-49Q1569 -71 1577.5 -90.0Q1586 -109 1600.5 -123.5Q1615 -138 1634.0 -146.5Q1653 -155 1675 -155Q1709 -155 1727.0 -141.5Q1745 -128 1758.5 -112.0Q1772 -96 1785.5 -82.5Q1799 -69 1824 -69Q1852 -69 1870.5 -88.5Q1889 -108 1889 -135Q1889 -153 1880 -169Q1865 -196 1843.0 -218.0Q1821 -240 1794.0 -255.5Q1767 -271 1736.5 -279.0Q1706 -287 1675 -287ZM2213 81 2400 -183Q2412 -200 2412 -221Q2412 -248 2392.0 -268.0Q2372 -288 2345 -288Q2329 -288 2314.5 -280.5Q2300 -273 2291 -260L2118 -14L2069 -64V-222Q2069 -249 2049.5 -268.5Q2030 -288 2003 -288Q1975 -288 1955.5 -269.0Q1936 -250 1936 -222V293Q1936 321 1955.5 340.5Q1975 360 2003 360Q2031 360 2050.0 340.0Q2069 320 2069 293V123L2285 340Q2304 359 2332 359Q2359 359 2378.0 339.5Q2397 320 2397 293Q2397 266 2378 247Z" style="fill:#635994;stroke:none" transform="scale(1,-1) translate(0,-256)" /></svg>