<?xml version="1.0" encoding="utf-8" ?>
<svg baseProfile="full" height="256" version="1.1" width="256" xmlns="http://www.w3.org/2000/svg" xmlns:ev="http://www.w3.org/2001/xml-events" xmlns:xlink="http://www.w3.org/1999/xlink"><defs /><path d="M2340 935Q2340 836 2314.5 744.0Q2289 652 2242.0 572.0Q2195 492 2129.5 426.5Q2064 361 1984.5 314.0Q1905 267 1813.0 241.5Q1721 216 1622 216Q1523 216 1431.0 241.5Q1339 267 1259.0 314.0Q1179 361 1113.5 426.5Q1048 492 1001.0 572.0Q954 652 928.5 744.0Q903 836 903 935Q903 1034 928.5 1126.0Q954 1218 1001.0 1297.5Q1048 1377 1113.5 1442.5Q1179 1508 1259.0 1555.0Q1339 1602 1431.0 1627.5Q1523 1653 1622 1653Q1771 1653 1901.5 1596.5Q2032 1540 2129.5 1442.5Q2227 1345 2283.5 1214.5Q2340 1084 2340 935Z" style="fill:#00a6ed;stroke:none" transform="scale(1,-1) translate(0,-256)" /></svg>