<?xml version="1.0" encoding="utf-8" ?>
<svg baseProfile="full" height="256" version="1.1" width="256" xmlns="http://www.w3.org/2000/svg" xmlns:ev="http://www.w3.org/2001/xml-events" xmlns:xlink="http://www.w3.org/1999/xlink"><defs /><path d="M2412 935Q2412 826 2384.0 725.0Q2356 624 2304.5 536.0Q2253 448 2180.5 376.0Q2108 304 2020.5 252.5Q1933 201 1832.0 172.5Q1731 144 1622 144Q1503 144 1389.0 178.5Q1275 213 1177 281Q1183 252 1183 223Q1183 168 1162.5 119.0Q1142 70 1104 31L876 -198Q838 -236 788.5 -256.5Q739 -277 685 -277Q629 -277 580.0 -256.0Q531 -235 494.5 -198.0Q458 -161 436.5 -112.5Q415 -64 415 -8Q415 47 436.0 96.0Q457 145 495 183L723 412Q761 450 810.5 470.0Q860 490 914 490Q943 490 972 484Q903 584 867.0 699.0Q831 814 831 935Q831 1044 859.5 1145.0Q888 1246 939.5 1333.5Q991 1421 1063.0 1493.5Q1135 1566 1223.0 1617.5Q1311 1669 1412.0 1697.0Q1513 1725 1622 1725Q1731 1725 1832.0 1697.0Q1933 1669 2020.5 1617.5Q2108 1566 2180.5 1493.5Q2253 1421 2304.5 1333.5Q2356 1246 2384.0 1145.0Q2412 1044 2412 935ZM2268 935Q2268 1069 2217.5 1186.5Q2167 1304 2079.0 1392.0Q1991 1480 1873.5 1530.5Q1756 1581 1622 1581Q1488 1581 1370.0 1530.5Q1252 1480 1164.5 1392.0Q1077 1304 1026.0 1186.5Q975 1069 975 935Q975 845 998.0 762.5Q1021 680 1063.0 608.0Q1105 536 1164.0 477.0Q1223 418 1295.0 376.0Q1367 334 1449.5 311.0Q1532 288 1622 288Q1756 288 1873.5 339.0Q1991 390 2079.0 477.5Q2167 565 2217.5 683.0Q2268 801 2268 935Z" style="fill:#635994;stroke:none" transform="scale(1,-1) translate(0,-256)" /></svg>