<?xml version="1.0" encoding="utf-8" ?>
<svg baseProfile="full" height="256" version="1.1" width="256" xmlns="http://www.w3.org/2000/svg" xmlns:ev="http://www.w3.org/2001/xml-events" xmlns:xlink="http://www.w3.org/1999/xlink"><defs /><path d="M2031 1226Q2031 1206 2025.0 1187.5Q2019 1169 2007.5 1155.0Q1996 1141 1979.5 1132.5Q1963 1124 1941 1124Q1910 1124 1883.5 1139.5Q1857 1155 1837.5 1179.5Q1818 1204 1806.5 1233.5Q1795 1263 1795 1292Q1795 1312 1800.5 1330.5Q1806 1349 1817.5 1363.5Q1829 1378 1845.5 1386.5Q1862 1395 1884 1395Q1914 1395 1941.0 1379.5Q1968 1364 1988.0 1339.0Q2008 1314 2019.5 1284.0Q2031 1254 2031 1226Z" style="fill:#ffffff;stroke:none" transform="scale(1,-1) translate(0,-256)" /></svg>