<?xml version="1.0" encoding="utf-8" ?>
<svg baseProfile="full" height="256" version="1.1" width="256" xmlns="http://www.w3.org/2000/svg" xmlns:ev="http://www.w3.org/2001/xml-events" xmlns:xlink="http://www.w3.org/1999/xlink"><defs /><path d="M1941 861Q1959 852 1970.0 835.0Q1981 818 1981 798Q1981 768 1960.0 746.5Q1939 725 1909 725Q1893 725 1877 733L1589 876Q1571 885 1560.5 902.5Q1550 920 1550 940Q1550 961 1560.5 978.0Q1571 995 1590 1005L1877 1149Q1891 1156 1909 1156Q1939 1156 1960.0 1135.5Q1981 1115 1981 1085Q1981 1064 1970.0 1046.5Q1959 1029 1941 1020L1783 940ZM902 1156Q919 1156 935 1148L1223 1004Q1262 984 1262 940Q1262 920 1251.0 902.5Q1240 885 1222 876L934 732Q920 725 902 725Q873 725 852.0 745.5Q831 766 831 796Q831 816 841.5 834.0Q852 852 870 861L1029 940L870 1020Q852 1029 842.0 1046.5Q832 1064 832 1084Q832 1113 852.0 1134.5Q872 1156 902 1156ZM1175 523Q1224 523 1256.5 508.0Q1289 493 1313.5 475.5Q1338 458 1358.5 443.0Q1379 428 1405 428Q1431 428 1451.5 443.0Q1472 458 1496.0 475.5Q1520 493 1552.5 508.0Q1585 523 1634 523Q1690 523 1730.5 502.0Q1771 481 1809 443Q1819 433 1833.0 428.5Q1847 424 1861 424Q1882 424 1896.0 432.0Q1910 440 1921.5 449.5Q1933 459 1945.5 467.0Q1958 475 1978 475Q2007 475 2028.0 453.5Q2049 432 2049 403Q2049 374 2028.0 351.0Q2007 328 1977.5 312.0Q1948 296 1915.0 288.0Q1882 280 1858 280Q1807 280 1776.0 295.5Q1745 311 1722.5 329.5Q1700 348 1681.0 363.5Q1662 379 1634 379Q1608 379 1587.5 364.0Q1567 349 1543.0 331.5Q1519 314 1486.5 299.0Q1454 284 1405 284Q1356 284 1323.5 299.0Q1291 314 1266.5 331.5Q1242 349 1221.0 364.0Q1200 379 1175 379Q1150 379 1129.5 364.0Q1109 349 1084.5 331.5Q1060 314 1027.5 299.0Q995 284 946 284Q922 284 890.0 292.0Q858 300 829.0 315.5Q800 331 780.0 353.0Q760 375 760 403Q760 433 781.0 454.0Q802 475 831 475Q850 475 862.0 467.5Q874 460 885.5 451.5Q897 443 910.5 435.5Q924 428 946 428Q972 428 992.5 443.0Q1013 458 1037.0 475.5Q1061 493 1093.5 508.0Q1126 523 1175 523Z" style="fill:#402a32;stroke:none" transform="scale(1,-1) translate(0,-256)" /></svg>