<?xml version="1.0" encoding="utf-8" ?>
<svg baseProfile="full" height="256" version="1.1" width="256" xmlns="http://www.w3.org/2000/svg" xmlns:ev="http://www.w3.org/2001/xml-events" xmlns:xlink="http://www.w3.org/1999/xlink"><defs /><path d="M1155 1034Q1167 990 1167 946V630Q1143 617 1118 617Q1092 617 1069 631L543 953Q543 966 542.5 980.0Q542 994 545.5 1006.0Q549 1018 558.0 1026.0Q567 1034 585 1034ZM1167 280Q1167 269 1158.5 257.0Q1150 245 1138 245H585Q568 245 555.5 256.5Q543 268 543 285V326L1023 620Q1046 606 1068.5 592.0Q1091 578 1118 578Q1145 578 1167 591Z" style="fill:#f3eef8;stroke:none" transform="scale(1,-1) translate(0,-256)" /></svg>