<?xml version="1.0" encoding="utf-8" ?>
<svg baseProfile="full" height="256" version="1.1" width="256" xmlns="http://www.w3.org/2000/svg" xmlns:ev="http://www.w3.org/2001/xml-events" xmlns:xlink="http://www.w3.org/1999/xlink"><defs /><path d="M2052 503H2053V-68Q2053 -113 2036.0 -153.0Q2019 -193 1989.0 -223.0Q1959 -253 1919.0 -270.0Q1879 -287 1834 -287H791Q779 -287 770.5 -278.5Q762 -270 762 -258Q762 -256 762.5 -255.0Q763 -254 763 -252Q775 -203 804.5 -180.0Q834 -157 872.5 -149.0Q911 -141 953.5 -142.5Q996 -144 1035 -144Q991 -88 970.5 -28.0Q950 32 943.0 95.0Q936 158 937.5 223.5Q939 289 939 357L795 360Q773 360 753.5 368.0Q734 376 719.0 390.0Q704 404 695.5 423.0Q687 442 687 465Q687 488 696.0 508.0Q705 528 720.0 543.0Q735 558 755.0 566.5Q775 575 798 575H903L975 791L422 1078L591 1349Q638 1424 711.5 1467.0Q785 1510 875 1510H975V1630Q975 1640 981.5 1646.5Q988 1653 998 1653Q1041 1653 1076.5 1637.5Q1112 1622 1137.5 1595.0Q1163 1568 1177.0 1531.5Q1191 1495 1191 1453Q1191 1408 1202.0 1364.5Q1213 1321 1233 1280Q1251 1243 1268.5 1207.0Q1286 1171 1309.0 1142.5Q1332 1114 1364.5 1096.0Q1397 1078 1445 1078Q1566 1078 1673.5 1033.5Q1781 989 1863.0 911.5Q1945 834 1995.5 729.0Q2046 624 2052 503ZM802 684Q824 684 840.0 668.0Q856 652 856 630Q856 607 840.5 591.5Q825 576 802 576H552Q530 576 514.0 592.0Q498 608 498 630Q498 652 514.0 668.0Q530 684 552 684Z" style="fill:#f3ad61;stroke:none" transform="scale(1,-1) translate(0,-256)" /></svg>