<?xml version="1.0" encoding="utf-8" ?>
<svg baseProfile="full" height="256" version="1.1" width="256" xmlns="http://www.w3.org/2000/svg" xmlns:ev="http://www.w3.org/2001/xml-events" xmlns:xlink="http://www.w3.org/1999/xlink"><defs /><path d="M2175 1278Q2175 1271 2188.0 1262.5Q2201 1254 2217.5 1245.5Q2234 1237 2250.5 1229.5Q2267 1222 2273 1219Q2338 1186 2375.0 1127.0Q2412 1068 2412 995V0Q2412 -60 2389.5 -112.0Q2367 -164 2328.0 -203.0Q2289 -242 2237.0 -264.5Q2185 -287 2125 -287H1803V0H2125V856Q2125 893 2106.5 925.0Q2088 957 2056 976L1921 1057Q1848 1101 1806.5 1174.0Q1765 1247 1765 1332Q1765 1399 1790.5 1457.5Q1816 1516 1859.5 1559.5Q1903 1603 1961.5 1628.0Q2020 1653 2087 1653H2233Q2270 1653 2302.5 1639.0Q2335 1625 2359.5 1600.5Q2384 1576 2398.0 1543.5Q2412 1511 2412 1474Q2412 1437 2398.0 1404.0Q2384 1371 2359.5 1346.5Q2335 1322 2302.5 1308.0Q2270 1294 2233 1294Q2227 1294 2217.5 1295.0Q2208 1296 2198.5 1295.0Q2189 1294 2182.0 1290.5Q2175 1287 2175 1278Z" style="fill:#a56953;stroke:none" transform="scale(1,-1) translate(0,-256)" /></svg>