<?xml version="1.0" encoding="utf-8" ?>
<svg baseProfile="full" height="256" version="1.1" width="256" xmlns="http://www.w3.org/2000/svg" xmlns:ev="http://www.w3.org/2001/xml-events" xmlns:xlink="http://www.w3.org/1999/xlink"><defs /><path d="M1891 0Q1869 0 1853.0 16.0Q1837 32 1837 54V471Q1837 569 1791.5 654.5Q1746 740 1665 795Q1645 809 1625.0 818.0Q1605 827 1584 837Q1550 853 1550 887Q1550 910 1565.5 925.5Q1581 941 1604 941Q1614 941 1623 938Q1695 911 1754.5 863.5Q1814 816 1856.5 754.5Q1899 693 1922.0 621.0Q1945 549 1945 471V54Q1945 32 1929.0 16.0Q1913 0 1891 0Z" style="fill:#a56953;stroke:none" transform="scale(1,-1) translate(0,-256)" /></svg>