<?xml version="1.0" encoding="utf-8" ?>
<svg baseProfile="full" height="256" version="1.1" width="256" xmlns="http://www.w3.org/2000/svg" xmlns:ev="http://www.w3.org/2001/xml-events" xmlns:xlink="http://www.w3.org/1999/xlink"><defs /><path d="M795 1096Q795 1074 779.0 1058.0Q763 1042 741 1042Q719 1042 703.0 1058.0Q687 1074 687 1096Q687 1119 702.5 1134.5Q718 1150 741 1150Q764 1150 779.5 1134.5Q795 1119 795 1096ZM422 1078Q451 1078 470.5 1058.0Q490 1038 490 1009Q490 980 470.0 960.0Q450 940 421 940Q415 940 412 941Q400 977 400 1015Q400 1050 422 1078Z" style="fill:#1c1c1c;stroke:none" transform="scale(1,-1) translate(0,-256)" /></svg>