<?xml version="1.0" encoding="utf-8" ?>
<svg baseProfile="full" height="256" version="1.1" width="256" xmlns="http://www.w3.org/2000/svg" xmlns:ev="http://www.w3.org/2001/xml-events" xmlns:xlink="http://www.w3.org/1999/xlink"><defs /><path d="M779 1294Q804 1294 827.0 1284.0Q850 1274 866.5 1257.5Q883 1241 893.0 1218.0Q903 1195 903 1170V1096Q903 1088 908.0 1083.0Q913 1078 921 1078Q947 1078 970.0 1068.5Q993 1059 1010.0 1042.0Q1027 1025 1037.0 1002.0Q1047 979 1047 953V692L950 594Q941 585 928.0 581.0Q915 577 903 575V791H624Q577 791 536.5 808.5Q496 826 465.5 856.5Q435 887 417.5 927.5Q400 968 400 1015Q400 1050 422 1078H523Q566 1078 590.0 1094.0Q614 1110 629.0 1134.0Q644 1158 653.5 1186.0Q663 1214 677.0 1238.0Q691 1262 714.5 1278.0Q738 1294 779 1294ZM903 357V148Q903 71 921.0 -4.5Q939 -80 984 -144H1262V475Q1226 428 1185.0 404.0Q1144 380 1099.0 369.5Q1054 359 1005.0 358.0Q956 357 903 357Z" style="fill:#ffdea7;stroke:none" transform="scale(1,-1) translate(0,-256)" /></svg>