<?xml version="1.0" encoding="utf-8" ?>
<svg baseProfile="full" height="256" version="1.1" width="256" xmlns="http://www.w3.org/2000/svg" xmlns:ev="http://www.w3.org/2001/xml-events" xmlns:xlink="http://www.w3.org/1999/xlink"><defs /><path d="M1894 -286H1418Q1397 -198 1397 -107Q1397 -5 1421.0 87.0Q1445 179 1480.5 265.5Q1516 352 1558.0 434.0Q1600 516 1635.5 598.5Q1671 681 1695.0 765.5Q1719 850 1719 941Q1719 999 1709.0 1054.5Q1699 1110 1677.0 1160.0Q1655 1210 1620.5 1253.5Q1586 1297 1537 1330Q1518 1344 1494.5 1356.0Q1471 1368 1448 1374Q1439 1372 1427.5 1366.0Q1416 1360 1416 1349Q1416 1338 1422.0 1329.0Q1428 1320 1428 1310Q1428 1299 1415.0 1293.5Q1402 1288 1386.0 1286.0Q1370 1284 1354.5 1284.0Q1339 1284 1335 1284Q1315 1332 1290.0 1379.5Q1265 1427 1236 1469Q1287 1483 1337.5 1491.5Q1388 1500 1440 1500Q1520 1500 1596.5 1477.0Q1673 1454 1740.5 1412.5Q1808 1371 1864.5 1314.0Q1921 1257 1961.5 1188.5Q2002 1120 2024.5 1043.5Q2047 967 2047 887Q2047 821 2030 753Q2015 695 1994.5 639.0Q1974 583 1953 526Q1930 464 1912.0 407.0Q1894 350 1880.5 292.0Q1867 234 1860.0 174.0Q1853 114 1853 48Q1853 -37 1864.0 -120.5Q1875 -204 1894 -286Z" style="fill:#5092ff;stroke:none" transform="scale(1,-1) translate(0,-256)" /></svg>