<?xml version="1.0" encoding="utf-8" ?>
<svg baseProfile="full" height="256" version="1.1" width="256" xmlns="http://www.w3.org/2000/svg" xmlns:ev="http://www.w3.org/2001/xml-events" xmlns:xlink="http://www.w3.org/1999/xlink"><defs /><path d="M2240 751Q2240 719 2236.0 688.5Q2232 658 2224 627Q2207 559 2190.0 492.0Q2173 425 2159.5 357.5Q2146 290 2137.5 221.5Q2129 153 2129 83Q2129 -106 2193 -287H1852Q1835 -205 1828.5 -120.5Q1822 -36 1822 49Q1822 112 1826.0 187.5Q1830 263 1841.0 338.5Q1852 414 1871.5 485.5Q1891 557 1923 613Q1958 674 1969.5 743.0Q1981 812 1981 881Q1981 919 1977.5 962.5Q1974 1006 1967.0 1050.0Q1960 1094 1949.0 1136.0Q1938 1178 1923 1213Q1974 1213 2020.0 1184.0Q2066 1155 2103.5 1112.0Q2141 1069 2168.5 1018.5Q2196 968 2210 926Q2240 842 2240 751Z" style="fill:#c790f1;stroke:none" transform="scale(1,-1) translate(0,-256)" /></svg>