<?xml version="1.0" encoding="utf-8" ?>
<svg baseProfile="full" height="256" version="1.1" width="256" xmlns="http://www.w3.org/2000/svg" xmlns:ev="http://www.w3.org/2001/xml-events" xmlns:xlink="http://www.w3.org/1999/xlink"><defs /><path d="M2405 -123Q2405 -186 2382.0 -219.5Q2359 -253 2321.5 -268.0Q2284 -283 2236.0 -285.0Q2188 -287 2138 -287Q2119 -239 2104.5 -182.0Q2090 -125 2080.5 -66.0Q2071 -7 2066.5 51.0Q2062 109 2062 161Q2062 234 2071.5 305.5Q2081 377 2104 447Q2136 547 2159.0 650.0Q2182 753 2182 859Q2182 882 2180.5 905.0Q2179 928 2174 950H2179Q2240 950 2283.0 923.0Q2326 896 2353.0 852.5Q2380 809 2392.5 755.5Q2405 702 2405 649Z" style="fill:#ff6dc6;stroke:none" transform="scale(1,-1) translate(0,-256)" /></svg>