<?xml version="1.0" encoding="utf-8" ?>
<svg baseProfile="full" height="256" version="1.1" width="256" xmlns="http://www.w3.org/2000/svg" xmlns:ev="http://www.w3.org/2001/xml-events" xmlns:xlink="http://www.w3.org/1999/xlink"><defs /><path d="M1118 1006Q1147 1006 1168.5 985.0Q1190 964 1190 935V863Q1190 833 1169.0 812.0Q1148 791 1118 791Q1089 791 1068.0 812.5Q1047 834 1047 863V935Q1047 964 1068.0 985.0Q1089 1006 1118 1006ZM569 393Q545 393 530 410L609 489Q625 471 625 449Q625 426 608.5 409.5Q592 393 569 393ZM880 236 746 207Q783 221 805.5 254.0Q828 287 828 326Q828 334 827.0 340.5Q826 347 826 355Q826 371 836.5 381.5Q847 392 863 392Q876 392 884.0 385.5Q892 379 896.0 369.5Q900 360 901.0 348.5Q902 337 902 327Q902 280 880 236Z" style="fill:#1c1c1c;stroke:none" transform="scale(1,-1) translate(0,-256)" /></svg>