<?xml version="1.0" encoding="utf-8" ?>
<svg baseProfile="full" height="256" version="1.1" width="256" xmlns="http://www.w3.org/2000/svg" xmlns:ev="http://www.w3.org/2001/xml-events" xmlns:xlink="http://www.w3.org/1999/xlink"><defs /><path d="M1324 335Q1307 329 1291 326L672 191Q649 186 630 186Q597 186 564.0 199.0Q531 212 505.0 234.5Q479 257 463.0 287.0Q447 317 447 352Q447 378 454.5 403.0Q462 428 475.0 450.5Q488 473 503.5 494.0Q519 515 536 534Q566 568 597.0 601.0Q628 634 658 668Q764 785 868.5 899.5Q973 1014 1081 1128Q1132 1182 1183.5 1236.5Q1235 1291 1290 1342Q1318 1368 1348.0 1380.0Q1378 1392 1416 1392Q1472 1392 1524.0 1369.0Q1576 1346 1619 1313Q1728 1312 1817.5 1274.0Q1907 1236 1980.0 1171.0Q2053 1106 2110.0 1018.0Q2167 930 2210.5 830.0Q2254 730 2286.0 621.5Q2318 513 2340.0 406.5Q2362 300 2376.0 200.0Q2390 100 2398 17Q2399 11 2399.0 5.0Q2399 -1 2399 -7Q2399 -61 2379.0 -111.0Q2359 -161 2323.5 -200.0Q2288 -239 2240.0 -262.5Q2192 -286 2137 -286H1036Q1044 -207 1070.5 -122.0Q1097 -37 1136.5 45.0Q1176 127 1224.5 201.5Q1273 276 1324 335Z" style="fill:#efd5ff;stroke:none" transform="scale(1,-1) translate(0,-256)" /></svg>