<?xml version="1.0" encoding="utf-8" ?>
<svg baseProfile="full" height="256" version="1.1" width="256" xmlns="http://www.w3.org/2000/svg" xmlns:ev="http://www.w3.org/2001/xml-events" xmlns:xlink="http://www.w3.org/1999/xlink"><defs /><path d="M1327 339Q1382 385 1437.5 441.5Q1493 498 1537.0 562.5Q1581 627 1608.5 698.5Q1636 770 1636 847Q1636 933 1601.0 1005.0Q1566 1077 1508.0 1131.5Q1450 1186 1376.0 1223.0Q1302 1260 1224 1276Q1251 1297 1281.5 1316.5Q1312 1336 1345.0 1351.0Q1378 1366 1412.5 1375.0Q1447 1384 1482 1384Q1544 1384 1591.5 1356.0Q1639 1328 1674.5 1281.5Q1710 1235 1733.5 1176.0Q1757 1117 1771.5 1055.0Q1786 993 1792.0 933.0Q1798 873 1798 826Q1798 775 1792.5 721.5Q1787 668 1770 620Q1730 577 1676.5 536.0Q1623 495 1563.5 458.5Q1504 422 1443.0 391.5Q1382 361 1327 339Z" style="fill:#bca4eb;stroke:none" transform="scale(1,-1) translate(0,-256)" /></svg>