<?xml version="1.0" encoding="utf-8" ?>
<svg baseProfile="full" height="256" version="1.1" width="256" xmlns="http://www.w3.org/2000/svg" xmlns:ev="http://www.w3.org/2001/xml-events" xmlns:xlink="http://www.w3.org/1999/xlink"><defs /><path d="M1735 1268Q1707 1268 1680.0 1272.5Q1653 1277 1632.0 1289.5Q1611 1302 1598.0 1323.5Q1585 1345 1585 1378Q1585 1400 1593.5 1419.5Q1602 1439 1616.0 1454.0Q1630 1469 1649.5 1477.5Q1669 1486 1692 1486Q1725 1486 1746.5 1473.0Q1768 1460 1780.5 1439.0Q1793 1418 1798.0 1391.0Q1803 1364 1803 1336Q1803 1308 1783.0 1288.0Q1763 1268 1735 1268ZM2194 868Q2194 840 2189.0 813.0Q2184 786 2171.5 765.0Q2159 744 2137.5 731.0Q2116 718 2083 718Q2061 718 2041.5 726.5Q2022 735 2007.5 749.5Q1993 764 1984.5 783.5Q1976 803 1976 825Q1976 859 1989.0 880.5Q2002 902 2023.0 914.5Q2044 927 2071.0 931.5Q2098 936 2126 936Q2154 936 2174.0 916.0Q2194 896 2194 868ZM1157 288Q1185 288 1209.0 277.5Q1233 267 1251.0 248.5Q1269 230 1279.5 205.5Q1290 181 1290 154Q1290 127 1280.5 103.5Q1271 80 1254.0 62.0Q1237 44 1214.0 32.5Q1191 21 1164 20Q1149 19 1133.5 18.0Q1118 17 1102 17Q1067 17 1043.0 42.0Q1019 67 1019 102Q1019 129 1021.5 154.0Q1024 179 1032.0 201.0Q1040 223 1055.5 241.5Q1071 260 1097 273Q1111 280 1126.0 284.0Q1141 288 1157 288ZM1724 823Q1724 812 1723.5 800.0Q1723 788 1722 777Q1719 735 1702.0 699.0Q1685 663 1656.5 637.0Q1628 611 1591.0 596.0Q1554 581 1512 581Q1468 581 1430.0 597.5Q1392 614 1363.5 642.0Q1335 670 1318.5 708.0Q1302 746 1302 790Q1302 832 1317.5 869.0Q1333 906 1359.5 934.5Q1386 963 1422.0 980.0Q1458 997 1500 1000Q1511 1001 1522.0 1001.5Q1533 1002 1544 1002Q1581 1002 1614.0 988.0Q1647 974 1671.5 950.0Q1696 926 1710.0 893.0Q1724 860 1724 823ZM999 1013Q961 1013 927.0 1027.0Q893 1041 867.5 1065.0Q842 1089 826.5 1121.5Q811 1154 808 1192Q807 1202 806.5 1212.0Q806 1222 806 1232Q806 1266 819.0 1296.0Q832 1326 854.0 1348.0Q876 1370 906.0 1383.0Q936 1396 970 1396Q1014 1396 1054.0 1384.0Q1094 1372 1124.0 1347.5Q1154 1323 1171.5 1287.0Q1189 1251 1189 1203Q1189 1164 1174.0 1129.0Q1159 1094 1133.5 1068.5Q1108 1043 1073.0 1028.0Q1038 1013 999 1013ZM2001 193Q2001 164 1990.0 139.0Q1979 114 1960.0 95.0Q1941 76 1915.5 65.0Q1890 54 1862 54Q1824 54 1790.0 64.5Q1756 75 1730.0 95.5Q1704 116 1688.5 147.0Q1673 178 1673 219Q1673 253 1686.0 282.5Q1699 312 1721.0 334.0Q1743 356 1772.5 368.5Q1802 381 1836 381Q1868 381 1897.0 369.5Q1926 358 1948.5 337.5Q1971 317 1984.5 289.0Q1998 261 2000 229Q2001 220 2001.0 211.0Q2001 202 2001 193ZM788 508Q754 508 732.5 521.0Q711 534 699.0 555.0Q687 576 682.5 603.0Q678 630 678 658Q678 686 697.5 705.5Q717 725 745 725Q757 725 769.5 724.5Q782 724 794 723Q815 722 834.0 713.0Q853 704 866.5 689.5Q880 675 888.0 655.5Q896 636 896 615Q896 593 887.5 573.5Q879 554 864.0 539.5Q849 525 829.5 516.5Q810 508 788 508Z" style="fill:#6d4534;stroke:none" transform="scale(1,-1) translate(0,-256)" /></svg>