<?xml version="1.0" encoding="utf-8" ?>
<svg baseProfile="full" height="256" version="1.1" width="256" xmlns="http://www.w3.org/2000/svg" xmlns:ev="http://www.w3.org/2001/xml-events" xmlns:xlink="http://www.w3.org/1999/xlink"><defs /><path d="M1849 1042Q1849 1074 1860.0 1104.0Q1871 1134 1881 1163Q1886 1176 1898 1176Q1907 1176 1912.0 1168.5Q1917 1161 1920.0 1151.0Q1923 1141 1924.0 1130.5Q1925 1120 1927 1114Q1934 1086 1950.0 1063.0Q1966 1040 1982.5 1017.5Q1999 995 2011.5 970.5Q2024 946 2024 915Q2024 894 2016.5 873.0Q2009 852 1997.5 832.5Q1986 813 1971.5 794.5Q1957 776 1944 761Q1937 754 1930 754Q1922 754 1916.5 759.0Q1911 764 1911 772V854Q1911 880 1901.5 903.0Q1892 926 1880.0 948.5Q1868 971 1858.5 993.5Q1849 1016 1849 1042ZM759 647Q759 677 780.0 698.0Q801 719 831 719H1819Q1827 719 1832.0 714.0Q1837 709 1837 701V521Q1837 513 1832.0 508.0Q1827 503 1819 503H831Q801 503 780.0 524.0Q759 545 759 575ZM1909 701Q1909 709 1914.0 714.0Q1919 719 1927 719H1963Q1971 719 1976.0 714.0Q1981 709 1981 701V521Q1981 513 1976.0 508.0Q1971 503 1963 503H1927Q1919 503 1914.0 508.0Q1909 513 1909 521Z" style="fill:#000000;stroke:none" transform="scale(1,-1) translate(0,-256)" /></svg>