<?xml version="1.0" encoding="utf-8" ?>
<svg baseProfile="full" height="256" version="1.1" width="256" xmlns="http://www.w3.org/2000/svg" xmlns:ev="http://www.w3.org/2001/xml-events" xmlns:xlink="http://www.w3.org/1999/xlink"><defs /><path d="M1406 -287Q1267 -287 1138.5 -251.0Q1010 -215 898.0 -149.5Q786 -84 694.5 7.5Q603 99 537.5 211.0Q472 323 436.0 451.5Q400 580 400 719Q400 858 436.0 986.5Q472 1115 537.5 1227.0Q603 1339 694.5 1430.5Q786 1522 898.0 1587.5Q1010 1653 1138.5 1689.0Q1267 1725 1406 1725Q1545 1725 1673.5 1689.0Q1802 1653 1914.0 1587.5Q2026 1522 2117.5 1430.5Q2209 1339 2274.5 1227.0Q2340 1115 2376.0 986.5Q2412 858 2412 719Q2412 580 2376.0 451.5Q2340 323 2274.5 211.0Q2209 99 2117.5 7.5Q2026 -84 1914.0 -149.5Q1802 -215 1673.5 -251.0Q1545 -287 1406 -287ZM776 1197Q698 1094 656.5 971.0Q615 848 615 719Q615 610 643.0 509.0Q671 408 722.5 320.0Q774 232 846.5 159.5Q919 87 1007.0 35.5Q1095 -16 1196.0 -44.0Q1297 -72 1406 -72Q1535 -72 1658.0 -30.5Q1781 11 1884 89ZM2036 241Q2115 344 2156.0 466.0Q2197 588 2197 719Q2197 828 2169.0 929.0Q2141 1030 2089.5 1118.0Q2038 1206 1965.5 1278.5Q1893 1351 1805.0 1402.5Q1717 1454 1616.0 1482.0Q1515 1510 1406 1510Q1275 1510 1153.0 1469.0Q1031 1428 928 1349Z" style="fill:#f8312f;stroke:none" transform="scale(1,-1) translate(0,-256)" /></svg>