<?xml version="1.0" encoding="utf-8" ?>
<svg baseProfile="full" height="256" version="1.1" width="256" xmlns="http://www.w3.org/2000/svg" xmlns:ev="http://www.w3.org/2001/xml-events" xmlns:xlink="http://www.w3.org/1999/xlink"><defs /><path d="M1209 206Q1193 206 1185.0 220.5Q1177 235 1172.5 254.5Q1168 274 1166.0 294.0Q1164 314 1161 325Q1152 360 1135.0 399.5Q1118 439 1096.5 477.0Q1075 515 1049.5 549.5Q1024 584 998 610Q982 626 964.5 640.0Q947 654 931 671Q891 712 859.0 762.5Q827 813 805.0 868.5Q783 924 771.0 982.5Q759 1041 759 1099Q759 1229 808.0 1343.0Q857 1457 941.5 1542.0Q1026 1627 1140.0 1676.0Q1254 1725 1384 1725Q1470 1725 1550.0 1702.5Q1630 1680 1699.5 1639.5Q1769 1599 1826.0 1542.0Q1883 1485 1923.5 1415.5Q1964 1346 1986.5 1266.0Q2009 1186 2009 1100Q2009 1044 1998.5 988.0Q1988 932 1967.5 878.5Q1947 825 1918.0 776.0Q1889 727 1852 686Q1833 665 1811.5 647.0Q1790 629 1770 609Q1744 583 1719.0 548.5Q1694 514 1673.0 476.0Q1652 438 1635.5 399.0Q1619 360 1610 324Q1607 312 1605.0 292.5Q1603 273 1598.5 253.5Q1594 234 1585.5 220.0Q1577 206 1561 206Z" style="fill:#fcd53f;stroke:none" transform="scale(1,-1) translate(0,-256)" /></svg>