<?xml version="1.0" encoding="utf-8" ?>
<svg baseProfile="full" height="256" version="1.1" width="256" xmlns="http://www.w3.org/2000/svg" xmlns:ev="http://www.w3.org/2001/xml-events" xmlns:xlink="http://www.w3.org/1999/xlink"><defs /><path d="M1663 104Q1663 91 1655.0 80.5Q1647 70 1634 68L1149 -17Q1132 -20 1119.5 -8.0Q1107 4 1107 20Q1107 33 1116.0 42.5Q1125 52 1137 54L1621 139Q1623 139 1624.5 139.5Q1626 140 1628 140Q1642 140 1652.5 129.0Q1663 118 1663 104ZM1660 -52Q1660 -65 1651.0 -74.5Q1642 -84 1630 -86L1152 -170Q1150 -170 1148.5 -170.5Q1147 -171 1145 -171Q1131 -171 1120.5 -160.5Q1110 -150 1110 -136Q1110 -123 1118.5 -112.5Q1127 -102 1140 -100L1618 -15Q1635 -12 1647.5 -24.0Q1660 -36 1660 -52Z" style="fill:#d3d3d3;stroke:none" transform="scale(1,-1) translate(0,-256)" /></svg>