<?xml version="1.0" encoding="utf-8" ?>
<svg baseProfile="full" height="256" version="1.1" width="256" xmlns="http://www.w3.org/2000/svg" xmlns:ev="http://www.w3.org/2001/xml-events" xmlns:xlink="http://www.w3.org/1999/xlink"><defs /><path d="M1384 1100Q1341 1100 1302.5 1083.0Q1264 1066 1234.5 1037.5Q1205 1009 1188.0 970.5Q1171 932 1171 889Q1171 837 1192.5 795.5Q1214 754 1252 720Q1254 718 1257.0 716.0Q1260 714 1262 712Q1282 691 1296.5 658.5Q1311 626 1322.0 587.5Q1333 549 1340.0 506.5Q1347 464 1351.5 423.0Q1356 382 1358.0 344.5Q1360 307 1361 279H1408Q1409 324 1413.5 384.5Q1418 445 1428.5 506.0Q1439 567 1458.0 622.0Q1477 677 1507 712Q1509 714 1511.5 716.0Q1514 718 1516 720Q1553 752 1575.0 792.5Q1597 833 1597 884Q1597 929 1580.5 968.0Q1564 1007 1535.5 1036.5Q1507 1066 1468.0 1083.0Q1429 1100 1384 1100ZM1384 1172Q1442 1172 1494.0 1149.5Q1546 1127 1585.0 1089.0Q1624 1051 1647.0 999.0Q1670 947 1670 889Q1670 837 1650.0 784.0Q1630 731 1594 693Q1586 685 1577.5 678.0Q1569 671 1561 663Q1543 645 1530.0 611.5Q1517 578 1508.0 536.0Q1499 494 1493.5 447.0Q1488 400 1485.0 355.0Q1482 310 1481.0 271.0Q1480 232 1480 206H1290Q1290 232 1289.0 271.0Q1288 310 1285.0 355.0Q1282 400 1276.5 447.0Q1271 494 1261.5 536.5Q1252 579 1239.0 612.5Q1226 646 1208 664Q1200 672 1192.0 679.0Q1184 686 1176 694Q1138 733 1119.0 784.5Q1100 836 1100 890Q1100 948 1122.5 999.5Q1145 1051 1184.0 1089.5Q1223 1128 1274.5 1150.0Q1326 1172 1384 1172Z" style="fill:#ffb02e;stroke:none" transform="scale(1,-1) translate(0,-256)" /></svg>