<?xml version="1.0" encoding="utf-8" ?>
<svg baseProfile="full" height="256" version="1.1" width="256" xmlns="http://www.w3.org/2000/svg" xmlns:ev="http://www.w3.org/2001/xml-events" xmlns:xlink="http://www.w3.org/1999/xlink"><defs /><path d="M1630 1042Q1607 1042 1592.0 1057.5Q1577 1073 1577 1096Q1577 1121 1596 1137L1783 1292Q1810 1314 1824.0 1343.5Q1838 1373 1838 1408V1567Q1838 1592 1845.5 1611.5Q1853 1631 1865.5 1647.5Q1878 1664 1893.5 1678.5Q1909 1693 1926 1710Q1941 1725 1964 1725Q1987 1725 2002.5 1709.5Q2018 1694 2018 1671Q2018 1652 2006.5 1638.0Q1995 1624 1981.5 1612.5Q1968 1601 1957.0 1590.0Q1946 1579 1946 1567Q1946 1515 1947.5 1466.0Q1949 1417 1942.5 1372.0Q1936 1327 1915.5 1286.0Q1895 1245 1852 1209L1665 1054Q1650 1042 1630 1042ZM1405 494Q1388 479 1367 479Q1345 479 1329 495L830 994Q811 1013 792.5 1022.5Q774 1032 754.5 1036.5Q735 1041 713.0 1041.5Q691 1042 666 1042Q643 1042 627.5 1057.5Q612 1073 612 1096Q612 1118 622.5 1129.5Q633 1141 648.5 1145.5Q664 1150 682.0 1150.0Q700 1150 715 1150Q826 1150 906 1070L1405 572L1903 1070Q1930 1097 1957.0 1113.0Q1984 1129 2013.0 1137.5Q2042 1146 2074.0 1148.0Q2106 1150 2143 1150Q2165 1150 2181.0 1134.0Q2197 1118 2197 1096Q2197 1073 2181.5 1057.5Q2166 1042 2143 1042Q2118 1042 2096.5 1041.5Q2075 1041 2055.0 1036.5Q2035 1032 2016.5 1022.5Q1998 1013 1979 994L1480 495Q1464 479 1442 479Q1420 479 1405 494ZM1183 1042Q1164 1042 1149 1054L961 1209Q917 1245 897.0 1285.5Q877 1326 870.0 1371.0Q863 1416 865.0 1465.0Q867 1514 867 1566Q867 1578 856.0 1589.0Q845 1600 831.5 1612.0Q818 1624 807.0 1638.5Q796 1653 796 1671Q796 1693 811.5 1709.0Q827 1725 850 1725Q872 1725 888 1709Q905 1692 920.5 1677.0Q936 1662 948.0 1646.0Q960 1630 967.5 1610.5Q975 1591 975 1566V1408Q975 1374 989.5 1343.5Q1004 1313 1030 1291L1218 1137Q1237 1121 1237 1096Q1237 1073 1221.5 1057.5Q1206 1042 1183 1042Z" style="fill:#533566;stroke:none" transform="scale(1,-1) translate(0,-256)" /></svg>