<?xml version="1.0" encoding="utf-8" ?>
<svg baseProfile="full" height="256" version="1.1" width="256" xmlns="http://www.w3.org/2000/svg" xmlns:ev="http://www.w3.org/2001/xml-events" xmlns:xlink="http://www.w3.org/1999/xlink"><defs /><path d="M1077 1509Q1112 1591 1179.5 1644.5Q1247 1698 1335 1717H1336V1683Q1336 1647 1322.0 1615.5Q1308 1584 1284.5 1560.5Q1261 1537 1229.5 1523.0Q1198 1509 1162 1509ZM1479 1683V1717Q1522 1708 1561.0 1689.5Q1600 1671 1633.0 1644.0Q1666 1617 1692.5 1583.0Q1719 1549 1737 1509H1652Q1616 1509 1584.5 1522.5Q1553 1536 1529.5 1560.0Q1506 1584 1492.5 1615.5Q1479 1647 1479 1683Z" style="fill:#f8312f;stroke:none" transform="scale(1,-1) translate(0,-256)" /></svg>