<?xml version="1.0" encoding="utf-8" ?>
<svg baseProfile="full" height="256" version="1.1" width="256" xmlns="http://www.w3.org/2000/svg" xmlns:ev="http://www.w3.org/2001/xml-events" xmlns:xlink="http://www.w3.org/1999/xlink"><defs /><path d="M1056 1436Q1056 1451 1064.0 1473.5Q1072 1496 1078 1510L1334 1717Q1372 1725 1407 1725Q1441 1725 1479 1717L1736 1510Q1739 1503 1742.5 1493.0Q1746 1483 1749.5 1472.5Q1753 1462 1755.0 1452.0Q1757 1442 1757 1435Q1757 1408 1738.5 1388.0Q1720 1368 1694 1366Q1729 1319 1747.0 1263.5Q1765 1208 1765 1150Q1765 1116 1759 1083L1765 1078V835Q1815 752 1840.5 658.5Q1866 565 1866 468Q1866 322 1812.5 193.5Q1759 65 1657 -38Q1607 -89 1542.5 -116.5Q1478 -144 1407 -144Q1335 -144 1271.0 -116.5Q1207 -89 1157 -38Q1055 65 1001.0 193.5Q947 322 947 468Q947 564 972.5 656.5Q998 749 1047 832V1078L1053 1083Q1047 1116 1047 1150Q1047 1208 1065.0 1263.5Q1083 1319 1118 1366Q1092 1369 1074.0 1389.0Q1056 1409 1056 1436Z" style="fill:#6b438b;stroke:none" transform="scale(1,-1) translate(0,-256)" /></svg>