<?xml version="1.0" encoding="utf-8" ?>
<svg baseProfile="full" height="256" version="1.1" width="256" xmlns="http://www.w3.org/2000/svg" xmlns:ev="http://www.w3.org/2001/xml-events" xmlns:xlink="http://www.w3.org/1999/xlink"><defs /><path d="M1052 1090Q1061 1035 1086.0 986.5Q1111 938 1148.5 900.0Q1186 862 1233.5 835.0Q1281 808 1335 797V386Q1335 271 1284.0 169.5Q1233 68 1141 -2Q1099 -34 1058.0 -64.5Q1017 -95 975 -127L939 -108L904 -179Q876 -201 850.0 -221.0Q824 -241 796.5 -256.0Q769 -271 738.0 -279.5Q707 -288 670 -288Q628 -288 589.0 -275.5Q550 -263 516.5 -240.0Q483 -217 457.5 -185.0Q432 -153 417 -114L436 -36L400 -31V-18Q400 106 425.5 226.5Q451 347 500.5 458.0Q550 569 621.5 668.5Q693 768 786 851L904 956L939 935L976 1021ZM1761 1090Q1752 1035 1727.0 986.5Q1702 938 1665.0 900.0Q1628 862 1580.5 835.0Q1533 808 1479 797V386Q1479 270 1529.5 169.0Q1580 68 1673 -2L1839 -127L1873 -108L1909 -179Q1937 -201 1963.0 -220.5Q1989 -240 2016.5 -255.0Q2044 -270 2074.5 -279.0Q2105 -288 2143 -288Q2185 -288 2224.0 -275.5Q2263 -263 2296.5 -240.0Q2330 -217 2355.5 -185.0Q2381 -153 2396 -114L2376 -36L2413 -32Q2413 -29 2413.5 -25.5Q2414 -22 2414 -19Q2414 105 2388.0 225.5Q2362 346 2312.5 457.0Q2263 568 2191.0 668.0Q2119 768 2027 851L1909 957L1873 935L1838 1020Z" style="fill:#aeddff;stroke:none" transform="scale(1,-1) translate(0,-256)" /></svg>