<?xml version="1.0" encoding="utf-8" ?>
<svg baseProfile="full" height="256" version="1.1" width="256" xmlns="http://www.w3.org/2000/svg" xmlns:ev="http://www.w3.org/2001/xml-events" xmlns:xlink="http://www.w3.org/1999/xlink"><defs /><path d="M1406 1258Q1446 1311 1498.5 1355.5Q1551 1400 1611.0 1432.0Q1671 1464 1737.0 1482.0Q1803 1500 1871 1500Q1931 1500 1988.5 1486.5Q2046 1473 2100 1449Q2080 1451 2061.5 1452.0Q2043 1453 2023 1453Q1920 1453 1827.0 1422.5Q1734 1392 1655.0 1337.0Q1576 1282 1512.5 1206.0Q1449 1130 1406 1039ZM1115 1471Q1057 1466 1001.5 1450.5Q946 1435 893 1412Q822 1380 764.0 1336.0Q706 1292 665.0 1235.5Q624 1179 601.5 1110.5Q579 1042 579 962Q579 873 604.5 788.0Q630 703 673.0 625.0Q716 547 773.0 477.5Q830 408 893 350Q1049 208 1211.5 74.5Q1374 -59 1542 -186Q1527 -198 1512.5 -211.0Q1498 -224 1482.0 -234.0Q1466 -244 1448.5 -250.5Q1431 -257 1410 -257Q1385 -257 1367.0 -249.5Q1349 -242 1329 -228Q1303 -210 1273.0 -184.5Q1243 -159 1212.5 -132.0Q1182 -105 1152.5 -78.5Q1123 -52 1099 -30Q993 66 890.0 162.5Q787 259 687 360Q627 421 575.0 493.0Q523 565 485.0 644.5Q447 724 425.0 809.5Q403 895 403 982Q403 1136 476.0 1252.5Q549 1369 687 1438Q747 1467 810.5 1484.0Q874 1501 940 1501Q985 1501 1029.0 1493.0Q1073 1485 1115 1471Z" style="fill:#1345b7;stroke:none" transform="scale(1,-1) translate(0,-256)" /></svg>