<?xml version="1.0" encoding="utf-8" ?>
<svg baseProfile="full" height="256" version="1.1" width="256" xmlns="http://www.w3.org/2000/svg" xmlns:ev="http://www.w3.org/2001/xml-events" xmlns:xlink="http://www.w3.org/1999/xlink"><defs /><path d="M1291 -77Q1279 -77 1270.5 -69.0Q1262 -61 1262 -49V331Q1262 346 1253.5 352.0Q1245 358 1233.0 360.0Q1221 362 1207.5 361.0Q1194 360 1185 360Q1168 360 1155.0 364.5Q1142 369 1142 389Q1142 394 1161.0 427.5Q1180 461 1209.0 508.0Q1238 555 1272.5 610.5Q1307 666 1338.5 715.0Q1370 764 1394.0 801.0Q1418 838 1425 850Q1433 863 1449 863Q1461 863 1469.5 854.5Q1478 846 1478 834V532Q1478 521 1483.0 515.0Q1488 509 1496.0 506.0Q1504 503 1513.5 502.0Q1523 501 1531 501Q1553 501 1574.0 503.5Q1595 506 1617 506Q1625 506 1634.0 505.0Q1643 504 1651.0 501.0Q1659 498 1664.0 491.5Q1669 485 1669 475Q1669 467 1664 459L1315 -65Q1307 -77 1291 -77Z" style="fill:#ff6723;stroke:none" transform="scale(1,-1) translate(0,-256)" /></svg>