<?xml version="1.0" encoding="utf-8" ?>
<svg baseProfile="full" height="256" version="1.1" width="256" xmlns="http://www.w3.org/2000/svg" xmlns:ev="http://www.w3.org/2001/xml-events" xmlns:xlink="http://www.w3.org/1999/xlink"><defs /><path d="M2412 1078Q2412 989 2389.0 906.0Q2366 823 2323.5 751.5Q2281 680 2222.0 621.0Q2163 562 2091.5 519.5Q2020 477 1937.0 454.0Q1854 431 1765 431H867Q772 431 687.0 466.5Q602 502 538.0 563.5Q474 625 437.0 708.5Q400 792 400 888Q400 987 435.5 1074.0Q471 1161 533.0 1226.0Q595 1291 680.5 1328.5Q766 1366 867 1366Q881 1366 896.0 1365.0Q911 1364 925 1362Q940 1395 964.0 1422.5Q988 1450 1018.0 1469.5Q1048 1489 1082.5 1499.5Q1117 1510 1154 1510Q1182 1510 1209.5 1504.0Q1237 1498 1262 1485Q1308 1542 1365.0 1586.5Q1422 1631 1486.5 1662.0Q1551 1693 1621.5 1709.0Q1692 1725 1765 1725Q1854 1725 1937.0 1702.0Q2020 1679 2092.0 1637.0Q2164 1595 2223.0 1536.0Q2282 1477 2324.0 1405.0Q2366 1333 2389.0 1250.0Q2412 1167 2412 1078Z" style="fill:#1345b7;stroke:none" transform="scale(1,-1) translate(0,-256)" /></svg>