<?xml version="1.0" encoding="utf-8" ?>
<svg baseProfile="full" height="256" version="1.1" width="256" xmlns="http://www.w3.org/2000/svg" xmlns:ev="http://www.w3.org/2001/xml-events" xmlns:xlink="http://www.w3.org/1999/xlink"><defs /><path d="M820 255Q820 235 813.5 216.5Q807 198 796 182L630 -45Q613 -69 585.0 -82.5Q557 -96 528 -96Q502 -96 479.5 -86.0Q457 -76 440.0 -59.0Q423 -42 413.0 -19.5Q403 3 403 29Q403 71 427 103L593 330Q610 354 637.0 367.5Q664 381 694 381Q720 381 743.0 371.0Q766 361 783.0 344.0Q800 327 810.0 304.0Q820 281 820 255ZM1179 66Q1179 46 1173.0 27.0Q1167 8 1155 -8L989 -236Q972 -260 945.0 -273.5Q918 -287 888 -287Q862 -287 839.0 -277.0Q816 -267 799.0 -250.0Q782 -233 772.0 -210.0Q762 -187 762 -161Q762 -119 786 -87L952 140Q969 164 997.0 177.5Q1025 191 1054 191Q1080 191 1102.5 181.0Q1125 171 1142.0 154.0Q1159 137 1169.0 114.5Q1179 92 1179 66ZM1686 -96Q1660 -96 1637.0 -86.0Q1614 -76 1597.0 -59.0Q1580 -42 1570.0 -19.5Q1560 3 1560 29Q1560 70 1584 103L1750 330Q1767 354 1795.0 367.5Q1823 381 1852 381Q1878 381 1900.5 371.0Q1923 361 1940.0 344.0Q1957 327 1967.0 304.5Q1977 282 1977 256Q1977 213 1953 182L1787 -45Q1770 -69 1743.0 -82.5Q1716 -96 1686 -96ZM2336 66Q2336 46 2330.0 27.0Q2324 8 2312 -8L2146 -236Q2129 -260 2102.0 -273.5Q2075 -287 2045 -287Q2019 -287 1996.5 -277.0Q1974 -267 1957.0 -250.0Q1940 -233 1930.0 -210.5Q1920 -188 1920 -162Q1920 -120 1944 -87L2110 140Q2127 164 2154.0 177.5Q2181 191 2211 191Q2237 191 2259.5 181.0Q2282 171 2299.0 154.0Q2316 137 2326.0 114.5Q2336 92 2336 66Z" style="fill:#3f5fff;stroke:none" transform="scale(1,-1) translate(0,-256)" /></svg>