<?xml version="1.0" encoding="utf-8" ?>
<svg baseProfile="full" height="256" version="1.1" width="256" xmlns="http://www.w3.org/2000/svg" xmlns:ev="http://www.w3.org/2001/xml-events" xmlns:xlink="http://www.w3.org/1999/xlink"><defs /><path d="M1118 791Q1148 791 1169.0 770.0Q1190 749 1190 719Q1190 670 1205.5 630.5Q1221 591 1249.5 562.5Q1278 534 1318.0 518.5Q1358 503 1406 503Q1454 503 1493.5 518.5Q1533 534 1561.5 562.5Q1590 591 1606.0 630.5Q1622 670 1622 719Q1622 748 1643.0 769.5Q1664 791 1693 791Q1723 791 1744.0 770.0Q1765 749 1765 719Q1765 641 1738.0 575.0Q1711 509 1663.5 461.0Q1616 413 1550.0 386.5Q1484 360 1406 360Q1328 360 1262.0 386.5Q1196 413 1148.5 461.0Q1101 509 1074.0 575.0Q1047 641 1047 719Q1047 748 1068.0 769.5Q1089 791 1118 791Z" style="fill:#402a32;stroke:none" transform="scale(1,-1) translate(0,-256)" /></svg>