<?xml version="1.0" encoding="utf-8" ?>
<svg baseProfile="full" height="256" version="1.1" width="256" xmlns="http://www.w3.org/2000/svg" xmlns:ev="http://www.w3.org/2001/xml-events" xmlns:xlink="http://www.w3.org/1999/xlink"><defs /><path d="M519 1797Q563 1797 609.5 1776.5Q656 1756 687 1725Q716 1754 756.0 1775.5Q796 1797 839 1797Q876 1797 908.0 1780.5Q940 1764 962.5 1737.5Q985 1711 998.0 1677.0Q1011 1643 1011 1608Q1011 1553 990.0 1500.0Q969 1447 939 1402Q921 1375 891.0 1343.0Q861 1311 827.0 1279.0Q793 1247 758.5 1218.5Q724 1190 698 1171Q669 1150 635 1150Q609 1150 587.0 1160.5Q565 1171 548 1189Q522 1215 495.5 1245.0Q469 1275 443.5 1307.0Q418 1339 395.5 1372.0Q373 1405 357 1438Q328 1496 328 1560Q328 1601 340.5 1643.5Q353 1686 377.5 1720.0Q402 1754 437.5 1775.5Q473 1797 519 1797ZM466 35Q466 75 479.5 104.0Q493 133 517.0 152.0Q541 171 573.0 180.0Q605 189 642 189Q662 189 682.5 187.0Q703 185 723 180Q737 215 770.0 234.5Q803 254 839 254Q882 254 914.0 239.0Q946 224 967.0 198.5Q988 173 998.5 138.0Q1009 103 1009 63Q1009 11 993 -36Q984 -64 967.5 -94.5Q951 -125 931.5 -155.5Q912 -186 891.0 -213.5Q870 -241 850 -263Q822 -294 782 -294Q753 -294 727 -277Q709 -265 683.5 -248.5Q658 -232 631.5 -213.5Q605 -195 581.5 -177.0Q558 -159 543 -144Q508 -109 487.0 -62.0Q466 -15 466 35ZM2161 539Q2147 560 2122.5 579.5Q2098 599 2069.5 614.5Q2041 630 2011.5 639.0Q1982 648 1957 648Q1919 648 1889.0 633.5Q1859 619 1837.0 594.0Q1815 569 1803.5 537.0Q1792 505 1792 469Q1792 430 1804.0 393.0Q1816 356 1837 324Q1868 276 1904.5 232.5Q1941 189 1976 146Q2001 116 2026.0 84.5Q2051 53 2078 25Q2101 0 2132 0Q2146 0 2156.5 4.5Q2167 9 2178 18Q2215 49 2261.0 95.5Q2307 142 2350.5 194.0Q2394 246 2430.5 299.0Q2467 352 2484 396Q2499 433 2499 474Q2499 510 2488.5 541.5Q2478 573 2457.5 596.5Q2437 620 2407.5 633.5Q2378 647 2340 647Q2313 647 2285.5 640.5Q2258 634 2233.0 620.5Q2208 607 2189.0 586.5Q2170 566 2161 539Z" style="fill:#f70a8d;stroke:none" transform="scale(1,-1) translate(0,-256)" /></svg>