<?xml version="1.0" encoding="utf-8" ?>
<svg baseProfile="full" height="256" version="1.1" width="256" xmlns="http://www.w3.org/2000/svg" xmlns:ev="http://www.w3.org/2001/xml-events" xmlns:xlink="http://www.w3.org/1999/xlink"><defs /><path d="M746 1415Q765 1415 781.0 1401.0Q797 1387 797 1367V1037Q797 988 776.0 948.0Q755 908 717 879Q704 869 695.5 852.5Q687 836 682.5 817.0Q678 798 676.0 778.5Q674 759 674 743V22Q674 -6 654.5 -25.5Q635 -45 607 -45Q591 -45 576.0 -41.5Q561 -38 549.0 -30.5Q537 -23 530.0 -10.0Q523 3 523 22V743Q523 759 521.5 778.5Q520 798 515.0 817.0Q510 836 501.5 852.5Q493 869 479 879Q441 906 420.5 948.5Q400 991 400 1037V1367Q400 1389 415.5 1402.0Q431 1415 451 1415Q471 1415 484.5 1399.5Q498 1384 498 1364V1173Q498 1163 505.5 1155.5Q513 1148 523 1148Q534 1148 541.0 1155.0Q548 1162 548 1173V1367Q548 1389 563.5 1402.0Q579 1415 600 1415Q620 1415 633.5 1399.5Q647 1384 647 1364V1173Q647 1163 654.5 1155.5Q662 1148 672 1148Q683 1148 690.0 1155.0Q697 1162 697 1173V1367Q697 1387 711.5 1401.0Q726 1415 746 1415ZM2294 1415Q2318 1415 2339.5 1406.0Q2361 1397 2377.0 1381.0Q2393 1365 2402.0 1343.5Q2411 1322 2411 1298V22Q2411 -17 2385.5 -31.5Q2360 -46 2327 -46Q2299 -46 2279.5 -26.0Q2260 -6 2260 22V641Q2199 669 2163.0 725.0Q2127 781 2127 848V1247Q2127 1282 2140.0 1312.5Q2153 1343 2175.5 1366.0Q2198 1389 2228.5 1402.0Q2259 1415 2294 1415Z" style="fill:#998ea4;stroke:none" transform="scale(1,-1) translate(0,-256)" /></svg>