<?xml version="1.0" encoding="utf-8" ?>
<svg baseProfile="full" height="256" version="1.1" width="256" xmlns="http://www.w3.org/2000/svg" xmlns:ev="http://www.w3.org/2001/xml-events" xmlns:xlink="http://www.w3.org/1999/xlink"><defs /><path d="M1442 108Q1323 108 1218.0 153.0Q1113 198 1035.0 276.0Q957 354 912.0 459.0Q867 564 867 683Q867 802 912.0 907.0Q957 1012 1035.0 1090.0Q1113 1168 1218.0 1213.0Q1323 1258 1442 1258Q1561 1258 1665.5 1212.5Q1770 1167 1848.0 1089.0Q1926 1011 1971.5 906.5Q2017 802 2017 683Q2017 564 1971.5 459.5Q1926 355 1848.0 277.0Q1770 199 1665.5 153.5Q1561 108 1442 108Z" style="fill:#e1d8ec;stroke:none" transform="scale(1,-1) translate(0,-256)" /></svg>