<?xml version="1.0" encoding="utf-8" ?>
<svg baseProfile="full" height="256" version="1.1" width="256" xmlns="http://www.w3.org/2000/svg" xmlns:ev="http://www.w3.org/2001/xml-events" xmlns:xlink="http://www.w3.org/1999/xlink"><defs /><path d="M1442 -144Q1328 -144 1222.5 -114.5Q1117 -85 1025.0 -31.0Q933 23 857.5 98.5Q782 174 728.0 266.0Q674 358 644.5 463.5Q615 569 615 683Q615 797 644.5 903.0Q674 1009 728.0 1100.5Q782 1192 857.5 1267.5Q933 1343 1024.5 1397.0Q1116 1451 1222.0 1480.5Q1328 1510 1442 1510Q1556 1510 1661.5 1480.5Q1767 1451 1859.0 1397.0Q1951 1343 2026.0 1267.5Q2101 1192 2155.0 1100.0Q2209 1008 2238.5 902.5Q2268 797 2268 683Q2268 569 2238.5 463.5Q2209 358 2155.0 266.0Q2101 174 2026.0 98.5Q1951 23 1859.0 -31.0Q1767 -85 1661.5 -114.5Q1556 -144 1442 -144Z" style="fill:#cdc4d6;stroke:none" transform="scale(1,-1) translate(0,-256)" /></svg>