<?xml version="1.0" encoding="utf-8" ?>
<svg baseProfile="full" height="256" version="1.1" width="256" xmlns="http://www.w3.org/2000/svg" xmlns:ev="http://www.w3.org/2001/xml-events" xmlns:xlink="http://www.w3.org/1999/xlink"><defs /><path d="M1489 1498Q1537 1484 1577.0 1456.0Q1617 1428 1645.5 1390.0Q1674 1352 1690.0 1306.0Q1706 1260 1706 1210Q1706 1148 1682.5 1093.0Q1659 1038 1618.5 997.5Q1578 957 1523.0 933.5Q1468 910 1406 910Q1344 910 1289.5 933.5Q1235 957 1194.5 998.0Q1154 1039 1130.5 1093.5Q1107 1148 1107 1210Q1107 1262 1124.5 1310.0Q1142 1358 1173.0 1397.0Q1204 1436 1247.0 1463.5Q1290 1491 1341 1502Q1351 1553 1377.5 1594.0Q1404 1635 1441.0 1664.0Q1478 1693 1524.5 1709.0Q1571 1725 1622 1725Q1651 1725 1672.5 1703.5Q1694 1682 1694 1653Q1694 1624 1672.5 1602.5Q1651 1581 1622 1581Q1601 1581 1580.5 1575.5Q1560 1570 1542.0 1559.5Q1524 1549 1510.0 1533.5Q1496 1518 1489 1498Z" style="fill:#c3ef3c;stroke:none" transform="scale(1,-1) translate(0,-256)" /></svg>