<?xml version="1.0" encoding="utf-8" ?>
<svg baseProfile="full" height="256" version="1.1" width="256" xmlns="http://www.w3.org/2000/svg" xmlns:ev="http://www.w3.org/2001/xml-events" xmlns:xlink="http://www.w3.org/1999/xlink"><defs /><path d="M2245 1085Q2245 1059 2227.0 1041.0Q2209 1023 2183 1023Q2157 1023 2139.0 1041.0Q2121 1059 2121 1085Q2121 1111 2139.0 1129.0Q2157 1147 2183 1147Q2209 1147 2227.0 1129.0Q2245 1111 2245 1085ZM2399 935Q2399 906 2378.0 885.5Q2357 865 2328 865Q2299 865 2278.5 885.5Q2258 906 2258 935Q2258 964 2278.5 985.0Q2299 1006 2328 1006Q2357 1006 2378.0 985.0Q2399 964 2399 935ZM1790 -287H610Q701 -258 804.0 -219.5Q907 -181 1013.5 -134.0Q1120 -87 1226.5 -32.5Q1333 22 1431.5 81.5Q1530 141 1616.5 205.5Q1703 270 1769 337Q1810 378 1841.0 420.5Q1872 463 1902 511Q1942 575 1995.0 610.5Q2048 646 2126 646Q2190 646 2242.5 621.5Q2295 597 2332.5 555.0Q2370 513 2391.0 457.5Q2412 402 2412 341Q2412 217 2365 103Q2332 21 2271.0 -50.0Q2210 -121 2132.5 -173.5Q2055 -226 1966.5 -256.5Q1878 -287 1790 -287ZM2112 706Q2149 706 2175.5 732.5Q2202 759 2202 796Q2202 833 2175.5 859.5Q2149 886 2112 886Q2075 886 2048.5 859.5Q2022 833 2022 796Q2022 758 2048.0 732.0Q2074 706 2112 706Z" style="fill:#26c9fc;stroke:none" transform="scale(1,-1) translate(0,-256)" /></svg>