<?xml version="1.0" encoding="utf-8" ?>
<svg baseProfile="full" height="256" version="1.1" width="256" xmlns="http://www.w3.org/2000/svg" xmlns:ev="http://www.w3.org/2001/xml-events" xmlns:xlink="http://www.w3.org/1999/xlink"><defs /><path d="M1160 1489Q1159 1489 1157.5 1488.0Q1156 1487 1154 1487Q1151 1487 1148.0 1490.5Q1145 1494 1145 1497Q1145 1502 1151.5 1506.0Q1158 1510 1166.5 1513.0Q1175 1516 1183.5 1517.5Q1192 1519 1196 1519Q1203 1519 1209.5 1518.0Q1216 1517 1216 1508Q1216 1505 1213.0 1503.0Q1210 1501 1207 1501Q1193 1501 1182.5 1499.5Q1172 1498 1160 1489ZM1326 1519Q1330 1519 1339.0 1517.5Q1348 1516 1357.0 1513.5Q1366 1511 1373.0 1507.0Q1380 1503 1380 1497Q1380 1494 1377.0 1490.5Q1374 1487 1371 1487Q1368 1487 1355.0 1494.0Q1342 1501 1326 1501Q1322 1501 1315.5 1501.0Q1309 1501 1309 1509Q1309 1517 1315.0 1518.0Q1321 1519 1326 1519Z" style="fill:#d37034;stroke:none" transform="scale(1,-1) translate(0,-256)" /></svg>