<?xml version="1.0" encoding="utf-8" ?>
<svg baseProfile="full" height="256" version="1.1" width="256" xmlns="http://www.w3.org/2000/svg" xmlns:ev="http://www.w3.org/2001/xml-events" xmlns:xlink="http://www.w3.org/1999/xlink"><defs /><path d="M1163 1425Q1163 1403 1148.0 1388.0Q1133 1373 1111 1373Q1089 1373 1074.5 1388.5Q1060 1404 1060 1425Q1060 1446 1075.0 1461.5Q1090 1477 1111 1477Q1132 1477 1147.5 1461.5Q1163 1446 1163 1425ZM1465 1425Q1465 1403 1450.0 1388.0Q1435 1373 1413 1373Q1392 1373 1376.5 1388.5Q1361 1404 1361 1425Q1361 1446 1376.5 1461.5Q1392 1477 1413 1477Q1434 1477 1449.5 1461.5Q1465 1446 1465 1425Z" style="fill:#fdbb11;stroke:none" transform="scale(1,-1) translate(0,-256)" /></svg>