<?xml version="1.0" encoding="utf-8" ?>
<svg baseProfile="full" height="256" version="1.1" width="256" xmlns="http://www.w3.org/2000/svg" xmlns:ev="http://www.w3.org/2001/xml-events" xmlns:xlink="http://www.w3.org/1999/xlink"><defs /><path d="M1338 1468Q1345 1468 1352.5 1465.0Q1360 1462 1367.0 1456.5Q1374 1451 1378.0 1444.0Q1382 1437 1381 1430Q1380 1428 1376 1424Q1375 1424 1374.0 1423.5Q1373 1423 1372 1423H1300Q1299 1423 1298.5 1423.5Q1298 1424 1297 1424Q1295 1425 1293 1429V1432Q1293 1447 1308.5 1457.5Q1324 1468 1338 1468ZM1190 1468Q1183 1468 1175.5 1465.0Q1168 1462 1161.0 1456.5Q1154 1451 1150.0 1444.0Q1146 1437 1147 1430Q1148 1428 1152 1424Q1153 1424 1154.0 1423.5Q1155 1423 1156 1423H1228Q1229 1423 1229.5 1423.5Q1230 1424 1231 1424Q1233 1425 1235 1429V1432Q1235 1447 1219.5 1457.5Q1204 1468 1190 1468Z" style="fill:#ffffff;stroke:none" transform="scale(1,-1) translate(0,-256)" /></svg>