<?xml version="1.0" encoding="utf-8" ?>
<svg baseProfile="full" height="256" version="1.1" width="256" xmlns="http://www.w3.org/2000/svg" xmlns:ev="http://www.w3.org/2001/xml-events" xmlns:xlink="http://www.w3.org/1999/xlink"><defs /><path d="M1465 1554Q1465 1544 1462.0 1535.0Q1459 1526 1455.0 1518.0Q1451 1510 1448.0 1501.5Q1445 1493 1445 1484L1446 1356Q1446 1333 1434.5 1318.0Q1423 1303 1403 1295Q1333 1295 1263.0 1293.5Q1193 1292 1123 1292Q1104 1300 1092.5 1317.0Q1081 1334 1081 1354V1484Q1081 1493 1077.5 1500.5Q1074 1508 1070.0 1515.5Q1066 1523 1062.5 1531.0Q1059 1539 1059 1548Q1059 1577 1069.0 1591.0Q1079 1605 1093.5 1613.5Q1108 1622 1124.0 1630.5Q1140 1639 1152 1657Q1163 1673 1179.5 1682.0Q1196 1691 1215 1691Q1228 1691 1239.0 1686.0Q1250 1681 1262 1681Q1275 1681 1285.5 1686.0Q1296 1691 1310 1691Q1330 1691 1345.5 1681.5Q1361 1672 1372 1655Q1382 1639 1398.0 1631.0Q1414 1623 1429.0 1614.5Q1444 1606 1454.5 1592.5Q1465 1579 1465 1554Z" style="fill:#f1a11e;stroke:none" transform="scale(1,-1) translate(0,-256)" /></svg>