<?xml version="1.0" encoding="utf-8" ?>
<svg baseProfile="full" height="256" version="1.1" width="256" xmlns="http://www.w3.org/2000/svg" xmlns:ev="http://www.w3.org/2001/xml-events" xmlns:xlink="http://www.w3.org/1999/xlink"><defs /><path d="M1554 1150Q1541 1150 1525.5 1145.5Q1510 1141 1510 1125Q1510 1116 1513.5 1106.0Q1517 1096 1520 1088Q1534 1047 1550.5 1007.0Q1567 967 1581.5 926.0Q1596 885 1605.5 843.0Q1615 801 1615 756V652Q1615 599 1635.5 543.5Q1656 488 1686.5 434.0Q1717 380 1751.5 329.5Q1786 279 1814 236L1685 191Q1599 267 1530.5 363.5Q1462 460 1417 566Q1409 585 1387 585Q1369 585 1359 570L990 20L983 -55L766 -132L1209 805Q1213 813 1215.5 823.0Q1218 833 1218 841Q1218 849 1215 858Q1195 918 1179.5 979.5Q1164 1041 1164 1104Q1164 1138 1169.5 1172.5Q1175 1207 1190.0 1236.0Q1205 1265 1230.5 1284.5Q1256 1304 1295 1309Q1312 1311 1329.5 1311.5Q1347 1312 1364 1312Q1425 1312 1486.0 1310.0Q1547 1308 1603.5 1299.0Q1660 1290 1710.5 1271.0Q1761 1252 1801.5 1218.0Q1842 1184 1870.5 1132.5Q1899 1081 1911 1006Q1913 996 1914.0 986.0Q1915 976 1915 965Q1915 952 1913.0 939.5Q1911 927 1911 913Q1911 903 1910.5 881.0Q1910 859 1906.0 836.0Q1902 813 1894.5 795.5Q1887 778 1873 778Q1865 778 1859.5 780.5Q1854 783 1848 783Q1843 783 1837.5 782.0Q1832 781 1827 781Q1818 782 1813.0 786.0Q1808 790 1801 790Q1788 790 1784.0 790.5Q1780 791 1778.5 792.0Q1777 793 1774.5 795.5Q1772 798 1762 803Q1757 805 1751.0 805.5Q1745 806 1740.0 808.0Q1735 810 1731.0 814.0Q1727 818 1727 826Q1727 834 1730.5 840.5Q1734 847 1734 853Q1734 855 1729.0 856.0Q1724 857 1722 858Q1716 863 1713 871Q1713 873 1712.5 875.0Q1712 877 1712 878Q1712 894 1721.0 911.5Q1730 929 1748 929Q1755 929 1759 928Q1761 938 1762.0 947.0Q1763 956 1763 966Q1763 1012 1746.5 1047.0Q1730 1082 1701.5 1104.5Q1673 1127 1635.0 1138.5Q1597 1150 1554 1150Z" style="fill:#ff6723;stroke:none" transform="scale(1,-1) translate(0,-256)" /></svg>