<?xml version="1.0" encoding="utf-8" ?>
<svg baseProfile="full" height="256" version="1.1" width="256" xmlns="http://www.w3.org/2000/svg" xmlns:ev="http://www.w3.org/2001/xml-events" xmlns:xlink="http://www.w3.org/1999/xlink"><defs /><path d="M1759 928Q1761 937 1761.5 946.5Q1762 956 1763 965L1915 957Q1913 943 1912.0 913.5Q1911 884 1908.0 854.0Q1905 824 1897.0 801.0Q1889 778 1873 778Q1866 778 1860.0 780.5Q1854 783 1848 783Q1843 783 1837.5 782.0Q1832 781 1827 781Q1822 781 1819.5 782.0Q1817 783 1814.0 784.5Q1811 786 1805.5 787.5Q1800 789 1789 789Q1782 789 1778.5 790.5Q1775 792 1773.0 794.5Q1771 797 1768.5 799.0Q1766 801 1762 803Q1757 805 1751.0 805.5Q1745 806 1740.0 808.0Q1735 810 1731.5 814.0Q1728 818 1728 826Q1728 833 1731.0 840.0Q1734 847 1734 853Q1731 856 1727.5 857.0Q1724 858 1720.5 859.5Q1717 861 1714.5 865.0Q1712 869 1712 878Q1712 899 1724.0 916.0Q1736 933 1759 928ZM705 946Q696 946 679.0 942.0Q662 938 646.0 930.5Q630 923 619.5 912.5Q609 902 614 889Q600 883 593.5 870.0Q587 857 591 842Q586 837 581.5 829.5Q577 822 577 814Q577 805 585.5 795.5Q594 786 604 788Q604 780 611.5 774.0Q619 768 627 768Q639 768 646.5 774.5Q654 781 661.5 789.0Q669 797 679.5 803.5Q690 810 710 810H713Q704 803 695.5 793.0Q687 783 687 771Q687 759 695.0 751.5Q703 744 715 744Q725 744 734.5 749.0Q744 754 752.5 761.5Q761 769 769.0 776.5Q777 784 783 790Q798 790 814.0 790.5Q830 791 844 794Q833 817 827.0 847.5Q821 878 821 904Q821 912 821.5 921.0Q822 930 825 938Q821 938 817.0 937.5Q813 937 809 937Q783 937 757.0 941.5Q731 946 705 946ZM1685 191Q1666 208 1649.0 225.5Q1632 243 1615 261L1755 323Q1770 301 1785.0 279.5Q1800 258 1814 236ZM857 60 766 -132 983 -55 990 20Z" style="fill:#ffc83d;stroke:none" transform="scale(1,-1) translate(0,-256)" /></svg>