<?xml version="1.0" encoding="utf-8" ?>
<svg baseProfile="full" height="256" version="1.1" width="256" xmlns="http://www.w3.org/2000/svg" xmlns:ev="http://www.w3.org/2001/xml-events" xmlns:xlink="http://www.w3.org/1999/xlink"><defs /><path d="M2053 -287H687Q637 -287 591.5 -270.5Q546 -254 508.5 -224.5Q471 -195 444.5 -154.0Q418 -113 407 -64L1284 813Q1308 837 1340.0 850.0Q1372 863 1406 863V252Q1406 229 1414.5 209.5Q1423 190 1437.5 175.5Q1452 161 1471.5 152.5Q1491 144 1514 144Q1534 144 1552.5 144.5Q1571 145 1588.5 143.0Q1606 141 1622.0 134.0Q1638 127 1653 112Z" style="fill:#008463;stroke:none" transform="scale(1,-1) translate(0,-256)" /></svg>