<?xml version="1.0" encoding="utf-8" ?>
<svg baseProfile="full" height="256" version="1.1" width="256" xmlns="http://www.w3.org/2000/svg" xmlns:ev="http://www.w3.org/2001/xml-events" xmlns:xlink="http://www.w3.org/1999/xlink"><defs /><path d="M2017 -287 939 -64 1284 813Q1308 837 1340.0 850.0Q1372 863 1406 863Q1440 863 1472.0 850.0Q1504 837 1528 813L2019 321L2192 472Q2228 503 2275 503Q2296 503 2314.0 496.0Q2332 489 2348.5 478.5Q2365 468 2380.5 455.5Q2396 443 2412 431V0Q2412 -60 2389.5 -112.0Q2367 -164 2328.0 -203.0Q2289 -242 2237.0 -264.5Q2185 -287 2125 -287Q2121 -287 2104.5 -287.0Q2088 -287 2069.0 -287.0Q2050 -287 2034.0 -287.0Q2018 -287 2017 -287Z" style="fill:#007356;stroke:none" transform="scale(1,-1) translate(0,-256)" /></svg>