<?xml version="1.0" encoding="utf-8" ?>
<svg baseProfile="full" height="256" version="1.1" width="256" xmlns="http://www.w3.org/2000/svg" xmlns:ev="http://www.w3.org/2001/xml-events" xmlns:xlink="http://www.w3.org/1999/xlink"><defs /><path d="M1406 1453Q1448 1453 1476.0 1434.0Q1504 1415 1526.0 1392.5Q1548 1370 1569.0 1351.5Q1590 1333 1617 1333Q1646 1333 1674.0 1340.0Q1702 1347 1731 1347Q1757 1347 1781.0 1338.0Q1805 1329 1824.0 1313.5Q1843 1298 1856.0 1276.0Q1869 1254 1874 1228Q1877 1212 1879.0 1192.0Q1881 1172 1885.5 1153.0Q1890 1134 1899.5 1117.5Q1909 1101 1926 1092Q1954 1077 1981.5 1063.0Q2009 1049 2030.5 1031.0Q2052 1013 2065.0 987.5Q2078 962 2078 925Q2078 899 2068.5 875.5Q2059 852 2048.0 831.0Q2037 810 2027.5 791.0Q2018 772 2018 753Q2018 734 2027.5 714.5Q2037 695 2048.0 674.0Q2059 653 2068.5 630.0Q2078 607 2078 581Q2078 543 2065.0 518.0Q2052 493 2030.5 475.0Q2009 457 1981.5 443.0Q1954 429 1926 414Q1909 405 1899.5 388.5Q1890 372 1885.5 353.0Q1881 334 1879.0 314.0Q1877 294 1874 278Q1869 252 1856.0 230.0Q1843 208 1824.0 192.5Q1805 177 1781.0 168.0Q1757 159 1731 159Q1702 159 1674.0 166.0Q1646 173 1617 173Q1590 173 1569.0 154.0Q1548 135 1526.0 112.5Q1504 90 1476.0 71.0Q1448 52 1406 52Q1364 52 1335.5 71.0Q1307 90 1285.0 112.5Q1263 135 1242.5 154.0Q1222 173 1195 173Q1166 173 1137.5 166.0Q1109 159 1080 159Q1054 159 1030.0 168.0Q1006 177 987.0 192.5Q968 208 955.0 230.0Q942 252 938 278Q935 294 933.0 314.0Q931 334 926.5 353.0Q922 372 912.5 388.5Q903 405 886 414Q857 429 830.0 443.0Q803 457 781.0 475.0Q759 493 746.0 518.0Q733 543 733 581Q733 607 742.5 630.0Q752 653 763.0 674.0Q774 695 783.5 714.5Q793 734 793 753Q793 772 783.5 791.0Q774 810 763.0 831.0Q752 852 742.5 875.5Q733 899 733 925Q733 962 746.0 987.5Q759 1013 781.0 1031.0Q803 1049 830.0 1063.0Q857 1077 886 1092Q903 1101 912.5 1117.5Q922 1134 926.5 1153.0Q931 1172 933.0 1192.0Q935 1212 938 1228Q942 1254 955.0 1276.0Q968 1298 987.0 1313.5Q1006 1329 1030.0 1338.0Q1054 1347 1080 1347Q1109 1347 1137.5 1340.0Q1166 1333 1195 1333Q1222 1333 1242.5 1351.5Q1263 1370 1285.0 1392.5Q1307 1415 1335.5 1434.0Q1364 1453 1406 1453Z" style="fill:#ff9f2e;stroke:none" transform="scale(1,-1) translate(0,-256)" /></svg>