<?xml version="1.0" encoding="utf-8" ?>
<svg baseProfile="full" height="256" version="1.1" width="256" xmlns="http://www.w3.org/2000/svg" xmlns:ev="http://www.w3.org/2001/xml-events" xmlns:xlink="http://www.w3.org/1999/xlink"><defs /><path d="M1909 1294Q1939 1294 1960.0 1273.0Q1981 1252 1981 1222Q1981 1191 1966.5 1176.0Q1952 1161 1930.0 1155.0Q1908 1149 1883.0 1149.5Q1858 1150 1837 1150V216Q1837 186 1816.0 165.0Q1795 144 1765 144H1478Q1448 144 1427.0 165.0Q1406 186 1406 216Q1406 246 1427.0 267.0Q1448 288 1478 288H1693V1150H903Q873 1150 852.0 1171.0Q831 1192 831 1222Q831 1252 852.0 1273.0Q873 1294 903 1294ZM1478 1006Q1507 1006 1528.5 985.0Q1550 964 1550 935V503Q1550 474 1528.5 452.5Q1507 431 1478 431H1118Q1118 402 1097.0 381.0Q1076 360 1047 360Q1018 360 996.5 381.0Q975 402 975 431V935Q975 964 996.5 985.0Q1018 1006 1047 1006ZM1118 863V575H1406V863Z" style="fill:#ffffff;stroke:none" transform="scale(1,-1) translate(0,-256)" /></svg>