<?xml version="1.0" encoding="utf-8" ?>
<svg baseProfile="full" height="256" version="1.1" width="256" xmlns="http://www.w3.org/2000/svg" xmlns:ev="http://www.w3.org/2001/xml-events" xmlns:xlink="http://www.w3.org/1999/xlink"><defs /><path d="M502 556Q511 566 524.5 577.0Q538 588 552.5 598.5Q567 609 581.5 618.0Q596 627 608 634Q693 682 791.5 714.5Q890 747 994.0 768.5Q1098 790 1202.0 802.0Q1306 814 1401 820Q1434 822 1467.0 823.0Q1500 824 1533 824Q1619 824 1710.5 815.5Q1802 807 1891.5 786.0Q1981 765 2065.0 729.5Q2149 694 2220 641Q2241 625 2268.0 600.5Q2295 576 2309 553Q2247 509 2168.5 472.0Q2090 435 2005.5 406.0Q1921 377 1836.5 356.0Q1752 335 1679 323Q1610 312 1542.0 306.0Q1474 300 1404 296Q1387 295 1372.0 294.0Q1357 293 1340 293Q1234 293 1123.5 314.5Q1013 336 905.0 372.5Q797 409 694.5 456.5Q592 504 502 556Z" style="fill:#533566;stroke:none" transform="scale(1,-1) translate(0,-256)" /></svg>