<?xml version="1.0" encoding="utf-8" ?>
<svg baseProfile="full" height="256" version="1.1" width="256" xmlns="http://www.w3.org/2000/svg" xmlns:ev="http://www.w3.org/2001/xml-events" xmlns:xlink="http://www.w3.org/1999/xlink"><defs /><path d="M2412 594Q2412 579 2403.0 563.5Q2394 548 2387 534Q2346 453 2288.0 372.0Q2230 291 2158.0 217.5Q2086 144 2002.5 80.5Q1919 17 1829.0 -30.0Q1739 -77 1644.5 -103.5Q1550 -130 1455 -130H1358Q1263 -130 1168.5 -103.5Q1074 -77 984.0 -30.0Q894 17 810.0 80.5Q726 144 653.5 218.0Q581 292 522.5 372.5Q464 453 423 534Q417 545 408.5 563.0Q400 581 400 594Q400 609 408 622L656 1011Q674 1039 690.5 1068.0Q707 1097 729 1122Q800 1204 897.5 1249.0Q995 1294 1104 1294Q1186 1294 1263.5 1268.0Q1341 1242 1406 1192Q1472 1242 1549.0 1268.0Q1626 1294 1708 1294Q1761 1294 1813.5 1282.5Q1866 1271 1914.5 1249.0Q1963 1227 2005.5 1195.0Q2048 1163 2083 1122Q2103 1098 2119.5 1070.5Q2136 1043 2153 1017L2404 622Q2412 609 2412 594ZM540 568Q657 533 760.5 504.5Q864 476 966.0 456.5Q1068 437 1175.0 426.5Q1282 416 1405 416Q1588 416 1766.5 443.0Q1945 470 2121 523L2271 568Q2155 608 2051.5 644.5Q1948 681 1845.5 709.0Q1743 737 1636.0 753.5Q1529 770 1405 770Q1282 770 1175.0 753.5Q1068 737 965.5 709.0Q863 681 759.5 644.5Q656 608 540 568Z" style="fill:#f92f60;stroke:none" transform="scale(1,-1) translate(0,-256)" /></svg>