<?xml version="1.0" encoding="utf-8" ?>
<svg baseProfile="full" height="256" version="1.1" width="256" xmlns="http://www.w3.org/2000/svg" xmlns:ev="http://www.w3.org/2001/xml-events" xmlns:xlink="http://www.w3.org/1999/xlink"><defs /><path d="M1406 610Q1274 610 1144 622Q1128 623 1092.0 627.5Q1056 632 1010.5 640.0Q965 648 916.0 659.5Q867 671 826.5 686.0Q786 701 760.0 720.5Q734 740 734 764Q734 788 760.0 807.0Q786 826 826.5 841.5Q867 857 916.0 868.0Q965 879 1010.5 887.0Q1056 895 1092.0 899.0Q1128 903 1144 905Q1274 917 1406 917Q1475 917 1544.5 914.0Q1614 911 1683 903Q1698 901 1733.0 897.0Q1768 893 1812.0 885.0Q1856 877 1903.0 866.0Q1950 855 1988.5 840.0Q2027 825 2052.0 806.0Q2077 787 2077 764Q2077 740 2052.0 721.0Q2027 702 1988.5 687.0Q1950 672 1903.0 661.0Q1856 650 1812.0 642.0Q1768 634 1733.0 629.5Q1698 625 1683 624Q1614 616 1544.5 613.0Q1475 610 1406 610Z" style="fill:#f4f4f4;stroke:none" transform="scale(1,-1) translate(0,-256)" /></svg>