<?xml version="1.0" encoding="utf-8" ?>
<svg baseProfile="full" height="256" version="1.1" width="256" xmlns="http://www.w3.org/2000/svg" xmlns:ev="http://www.w3.org/2001/xml-events" xmlns:xlink="http://www.w3.org/1999/xlink"><defs /><path d="M1622 1186Q1622 1134 1602.0 1088.0Q1582 1042 1548.0 1008.0Q1514 974 1468.0 954.5Q1422 935 1370 935Q1318 935 1272.0 954.5Q1226 974 1192.0 1008.0Q1158 1042 1138.0 1088.0Q1118 1134 1118 1186Q1118 1238 1138.0 1284.0Q1158 1330 1192.0 1364.0Q1226 1398 1272.0 1418.0Q1318 1438 1370 1438Q1422 1438 1468.0 1418.0Q1514 1398 1548.0 1364.0Q1582 1330 1602.0 1284.0Q1622 1238 1622 1186ZM1298 863Q1261 863 1228.0 849.0Q1195 835 1170.5 810.5Q1146 786 1132.0 753.0Q1118 720 1118 683V324Q1118 287 1132.0 254.0Q1146 221 1170.5 196.5Q1195 172 1228.0 158.0Q1261 144 1298 144H1873Q1910 144 1943.0 158.0Q1976 172 2000.5 196.5Q2025 221 2039.0 254.0Q2053 287 2053 324V683Q2053 720 2039.0 753.0Q2025 786 2000.5 810.5Q1976 835 1943.0 849.0Q1910 863 1873 863ZM762 801V202Q762 179 778.0 163.5Q794 148 817 148Q838 148 854 164L1032 342Q1048 358 1048 380V625Q1048 647 1032 663L854 839Q838 855 816 855Q793 855 777.5 839.5Q762 824 762 801ZM1873 935Q1910 935 1943.0 949.0Q1976 963 2000.5 987.5Q2025 1012 2039.0 1044.5Q2053 1077 2053 1114Q2053 1151 2039.0 1184.0Q2025 1217 2000.5 1241.5Q1976 1266 1943.0 1280.0Q1910 1294 1873 1294Q1836 1294 1803.0 1280.0Q1770 1266 1745.5 1241.5Q1721 1217 1707.0 1184.0Q1693 1151 1693 1114Q1693 1077 1707.0 1044.5Q1721 1012 1745.5 987.5Q1770 963 1803.0 949.0Q1836 935 1873 935Z" style="fill:#ffffff;stroke:none" transform="scale(1,-1) translate(0,-256)" /></svg>