<?xml version="1.0" encoding="utf-8" ?>
<svg baseProfile="full" height="256" version="1.1" width="256" xmlns="http://www.w3.org/2000/svg" xmlns:ev="http://www.w3.org/2001/xml-events" xmlns:xlink="http://www.w3.org/1999/xlink"><defs /><path d="M867 1150Q867 1180 888.0 1201.0Q909 1222 939 1222H1083Q1112 1222 1133.0 1200.5Q1154 1179 1154 1150V1006Q1154 977 1133.0 956.0Q1112 935 1083 935H939Q910 935 888.5 956.0Q867 977 867 1006ZM867 431Q867 461 888.0 482.0Q909 503 939 503H1083Q1112 503 1133.0 481.5Q1154 460 1154 431V288Q1154 259 1133.0 237.5Q1112 216 1083 216H939Q909 216 888.0 237.0Q867 258 867 288ZM1658 863Q1628 863 1607.0 842.0Q1586 821 1586 791V647Q1586 617 1607.0 596.0Q1628 575 1658 575H1801Q1831 575 1852.0 596.0Q1873 617 1873 647V791Q1873 821 1852.0 842.0Q1831 863 1801 863Z" style="fill:#ff822d;stroke:none" transform="scale(1,-1) translate(0,-256)" /></svg>