<?xml version="1.0" encoding="utf-8" ?>
<svg baseProfile="full" height="256" version="1.1" width="256" xmlns="http://www.w3.org/2000/svg" xmlns:ev="http://www.w3.org/2001/xml-events" xmlns:xlink="http://www.w3.org/1999/xlink"><defs /><path d="M1837 1725Q1882 1725 1921.0 1708.0Q1960 1691 1989.5 1662.0Q2019 1633 2036.0 1594.0Q2053 1555 2053 1510V1366H687V1510Q687 1555 704.0 1594.0Q721 1633 750.5 1662.0Q780 1691 819.0 1708.0Q858 1725 903 1725ZM903 -287Q858 -287 819.0 -270.0Q780 -253 750.5 -224.0Q721 -195 704.0 -156.0Q687 -117 687 -72V72H2053V-72Q2053 -117 2036.0 -156.0Q2019 -195 1989.5 -224.0Q1960 -253 1921.0 -270.0Q1882 -287 1837 -287Z" style="fill:#7167a4;stroke:none" transform="scale(1,-1) translate(0,-256)" /></svg>