<?xml version="1.0" encoding="utf-8" ?>
<svg baseProfile="full" height="256" version="1.1" width="256" xmlns="http://www.w3.org/2000/svg" xmlns:ev="http://www.w3.org/2001/xml-events" xmlns:xlink="http://www.w3.org/1999/xlink"><defs /><path d="M1586 1150Q1586 1180 1607.0 1201.0Q1628 1222 1658 1222H1801Q1831 1222 1852.0 1201.0Q1873 1180 1873 1150V1006Q1873 977 1851.5 956.0Q1830 935 1801 935H1658Q1629 935 1607.5 956.0Q1586 977 1586 1006ZM1226 791Q1226 821 1247.0 842.0Q1268 863 1298 863H1442Q1472 863 1493.0 842.0Q1514 821 1514 791V647Q1514 617 1493.0 596.0Q1472 575 1442 575H1298Q1268 575 1247.0 596.0Q1226 617 1226 647ZM1658 503Q1628 503 1607.0 482.0Q1586 461 1586 431V288Q1586 258 1607.0 237.0Q1628 216 1658 216H1801Q1831 216 1852.0 237.0Q1873 258 1873 288V431Q1873 461 1852.0 482.0Q1831 503 1801 503Z" style="fill:#fcd53f;stroke:none" transform="scale(1,-1) translate(0,-256)" /></svg>