<?xml version="1.0" encoding="utf-8" ?>
<svg baseProfile="full" height="256" version="1.1" width="256" xmlns="http://www.w3.org/2000/svg" xmlns:ev="http://www.w3.org/2001/xml-events" xmlns:xlink="http://www.w3.org/1999/xlink"><defs /><path d="M903 1078Q874 1078 852.5 1099.5Q831 1121 831 1150Q831 1180 852.0 1201.0Q873 1222 903 1222Q933 1222 954.0 1201.0Q975 1180 975 1150Q975 1121 953.5 1099.5Q932 1078 903 1078ZM2053 324Q2053 272 2033.0 226.0Q2013 180 1979.0 146.0Q1945 112 1899.0 92.0Q1853 72 1801 72Q1749 72 1703.0 92.0Q1657 112 1623.0 146.0Q1589 180 1569.5 226.0Q1550 272 1550 324Q1550 376 1569.5 422.0Q1589 468 1623.0 502.0Q1657 536 1703.0 555.5Q1749 575 1801 575Q1853 575 1899.0 555.5Q1945 536 1979.0 502.0Q2013 468 2033.0 422.0Q2053 376 2053 324Z" style="fill:#d3d3d3;stroke:none" transform="scale(1,-1) translate(0,-256)" /></svg>