<?xml version="1.0" encoding="utf-8" ?>
<svg baseProfile="full" height="256" version="1.1" width="256" xmlns="http://www.w3.org/2000/svg" xmlns:ev="http://www.w3.org/2001/xml-events" xmlns:xlink="http://www.w3.org/1999/xlink"><defs /><path d="M1033 1366Q1043 1366 1065.0 1356.5Q1087 1347 1111.0 1335.0Q1135 1323 1157.0 1311.0Q1179 1299 1190 1294H975Q975 1306 979.0 1319.0Q983 1332 990.5 1342.5Q998 1353 1008.5 1359.5Q1019 1366 1033 1366ZM1233 1289Q1279 1275 1306.5 1236.5Q1334 1198 1334 1150Q1334 1117 1322.0 1090.5Q1310 1064 1289.0 1045.0Q1268 1026 1240.0 1016.0Q1212 1006 1180 1006H897Q859 1006 827.0 1026.0Q795 1046 777 1078H1179Q1229 1078 1252.0 1108.5Q1275 1139 1275 1185Q1275 1213 1266.5 1242.5Q1258 1272 1233 1289ZM575 180Q575 232 595.0 278.0Q615 324 649.0 358.0Q683 392 729.0 412.0Q775 432 827 432Q879 432 925.0 412.0Q971 392 1005.0 358.0Q1039 324 1058.5 278.0Q1078 232 1078 180Q1078 128 1058.5 82.0Q1039 36 1005.0 2.0Q971 -32 925.0 -52.0Q879 -72 827 -72Q775 -72 729.0 -52.0Q683 -32 649.0 2.0Q615 36 595.0 82.0Q575 128 575 180ZM827 360Q790 360 757.0 346.0Q724 332 699.5 307.5Q675 283 661.0 250.0Q647 217 647 180Q647 143 661.0 110.0Q675 77 699.5 52.5Q724 28 757.0 14.0Q790 0 827 0Q864 0 896.5 14.0Q929 28 953.5 52.5Q978 77 992.0 110.0Q1006 143 1006 180Q1006 217 992.0 250.0Q978 283 953.5 307.5Q929 332 896.5 346.0Q864 360 827 360ZM1187 541Q1189 540 1193.5 536.0Q1198 532 1203.0 527.0Q1208 522 1212.5 517.5Q1217 513 1219 511Q1210 476 1206.0 440.5Q1202 405 1202 370Q1202 239 1243.0 120.0Q1284 1 1361.5 -89.5Q1439 -180 1549.5 -233.5Q1660 -287 1799 -287H1492Q1403 -241 1335.5 -169.0Q1268 -97 1222.0 -10.0Q1176 77 1153.0 174.0Q1130 271 1130 369Q1130 413 1135.0 455.5Q1140 498 1153 540Q1121 564 1082.5 583.5Q1044 603 1002.0 616.5Q960 630 917.5 637.5Q875 645 835 645Q771 645 712.5 625.5Q654 606 603.5 571.5Q553 537 512.0 490.0Q471 443 444 387L510 590Q578 650 661.0 683.5Q744 717 835 717Q914 717 992.5 695.0Q1071 673 1140 635L1187 542Z" style="fill:#636363;stroke:none" transform="scale(1,-1) translate(0,-256)" /></svg>