<?xml version="1.0" encoding="utf-8" ?>
<svg baseProfile="full" height="256" version="1.1" width="256" xmlns="http://www.w3.org/2000/svg" xmlns:ev="http://www.w3.org/2001/xml-events" xmlns:xlink="http://www.w3.org/1999/xlink"><defs /><path d="M950 1006 1187 542 1219 510Q1249 604 1306.5 682.5Q1364 761 1441.0 817.0Q1518 873 1610.0 904.0Q1702 935 1801 935Q1927 935 2038.5 887.0Q2150 839 2233.0 756.0Q2316 673 2364.0 561.5Q2412 450 2412 324Q2412 198 2364.0 86.5Q2316 -25 2233.5 -108.0Q2151 -191 2039.5 -239.0Q1928 -287 1802 -287H874Q776 -287 690.0 -250.0Q604 -213 539.5 -149.0Q475 -85 437.5 1.5Q400 88 400 186Q400 229 408.0 270.5Q416 312 430 352Q434 361 437.0 367.0Q440 373 443 382L776 1412Q788 1449 809.5 1485.0Q831 1521 860.5 1549.0Q890 1577 926.5 1594.5Q963 1612 1005 1612Q1060 1612 1114.0 1599.0Q1168 1586 1216.0 1561.0Q1264 1536 1304.5 1499.0Q1345 1462 1373 1414Q1387 1389 1397.0 1361.5Q1407 1334 1407 1305Q1407 1281 1402.0 1255.0Q1397 1229 1387.5 1204.5Q1378 1180 1363.5 1158.0Q1349 1136 1331 1120Q1326 1096 1313.5 1075.0Q1301 1054 1283.0 1039.0Q1265 1024 1243.0 1015.0Q1221 1006 1196 1006Z" style="fill:#9b9b9b;stroke:none" transform="scale(1,-1) translate(0,-256)" /></svg>