<?xml version="1.0" encoding="utf-8" ?>
<svg baseProfile="full" height="256" version="1.1" width="256" xmlns="http://www.w3.org/2000/svg" xmlns:ev="http://www.w3.org/2001/xml-events" xmlns:xlink="http://www.w3.org/1999/xlink"><defs /><path d="M1765 -287H1047Q1017 -287 990.5 -276.0Q964 -265 944.5 -245.5Q925 -226 914.0 -199.5Q903 -173 903 -143V215L1118 539L903 863Q903 893 914.5 919.0Q926 945 945.5 964.5Q965 984 991.0 995.0Q1017 1006 1047 1006H1765Q1795 1006 1821.0 995.0Q1847 984 1866.5 964.5Q1886 945 1897.5 919.0Q1909 893 1909 863L1693 539L1909 216V-143Q1909 -173 1897.5 -199.0Q1886 -225 1866.5 -244.5Q1847 -264 1821.0 -275.5Q1795 -287 1765 -287Z" style="fill:#ff9f2e;stroke:none" transform="scale(1,-1) translate(0,-256)" /></svg>