<?xml version="1.0" encoding="utf-8" ?>
<svg baseProfile="full" height="256" version="1.1" width="256" xmlns="http://www.w3.org/2000/svg" xmlns:ev="http://www.w3.org/2001/xml-events" xmlns:xlink="http://www.w3.org/1999/xlink"><defs /><path d="M1238 1725Q1267 1725 1286.0 1706.0Q1305 1687 1305 1658V1204Q1305 1138 1276.5 1082.0Q1248 1026 1196 985Q1178 971 1166.5 948.5Q1155 926 1148.0 899.5Q1141 873 1138.5 846.5Q1136 820 1136 798V-195Q1136 -214 1129.0 -231.0Q1122 -248 1109.5 -260.5Q1097 -273 1080.0 -280.0Q1063 -287 1044 -287H1021Q1002 -287 985.0 -280.0Q968 -273 955.5 -260.5Q943 -248 935.5 -231.0Q928 -214 928 -195V797Q928 819 925.0 846.0Q922 873 915.5 899.0Q909 925 897.0 948.0Q885 971 867 985Q815 1027 787.0 1081.5Q759 1136 759 1203V1658Q759 1688 779.5 1706.5Q800 1725 829 1725Q843 1725 855.0 1719.0Q867 1713 875.5 1703.0Q884 1693 889.0 1680.5Q894 1668 894 1655V1392Q894 1378 904.5 1367.0Q915 1356 929 1356Q944 1356 954.5 1366.5Q965 1377 965 1392V1658Q965 1688 985.0 1706.5Q1005 1725 1034 1725Q1062 1725 1081.0 1703.5Q1100 1682 1100 1655V1392Q1100 1378 1110.5 1367.0Q1121 1356 1135 1356Q1149 1356 1159.5 1367.0Q1170 1378 1170 1392V1658Q1170 1686 1190.0 1705.5Q1210 1725 1238 1725ZM1913 1725Q1946 1725 1975.5 1712.5Q2005 1700 2027.0 1678.0Q2049 1656 2061.5 1626.5Q2074 1597 2074 1564V-194Q2074 -213 2066.5 -230.0Q2059 -247 2046.5 -259.5Q2034 -272 2017.0 -279.5Q2000 -287 1981 -287H1958Q1939 -287 1922.0 -279.5Q1905 -272 1892.5 -259.5Q1880 -247 1872.5 -230.0Q1865 -213 1865 -194V659Q1823 678 1789.0 707.5Q1755 737 1731.5 774.5Q1708 812 1695.0 855.0Q1682 898 1682 944V1494Q1682 1542 1700.0 1584.5Q1718 1627 1749.0 1658.0Q1780 1689 1822.5 1707.0Q1865 1725 1913 1725Z" style="fill:#998ea4;stroke:none" transform="scale(1,-1) translate(0,-256)" /></svg>