<?xml version="1.0" encoding="utf-8" ?>
<svg baseProfile="full" height="256" version="1.1" width="256" xmlns="http://www.w3.org/2000/svg" xmlns:ev="http://www.w3.org/2001/xml-events" xmlns:xlink="http://www.w3.org/1999/xlink"><defs /><path d="M940 1257Q1000 1245 1059.5 1229.5Q1119 1214 1179 1200Q1160 1168 1145.0 1132.5Q1130 1097 1111.5 1064.5Q1093 1032 1067.0 1006.5Q1041 981 1000 969Q954 977 909.5 987.0Q865 997 820 1012L819 1027Q819 1063 829.5 1094.0Q840 1125 857.0 1153.0Q874 1181 895.5 1206.5Q917 1232 940 1257ZM1189 948Q1175 876 1164.5 804.5Q1154 733 1148 660Q1217 653 1286.5 650.0Q1356 647 1426 647L1548 1012Q1485 1012 1422.5 999.0Q1360 986 1300 972Q1274 966 1244.5 957.5Q1215 949 1189 948Z" style="fill:#c9c9c9;stroke:none" transform="scale(1,-1) translate(0,-256)" /></svg>