<?xml version="1.0" encoding="utf-8" ?>
<svg baseProfile="full" height="256" version="1.1" width="256" xmlns="http://www.w3.org/2000/svg" xmlns:ev="http://www.w3.org/2001/xml-events" xmlns:xlink="http://www.w3.org/1999/xlink"><defs /><path d="M1533 827Q1533 850 1555 860L1715 929Q1729 935 1735 949L1804 1132Q1812 1155 1837 1155Q1848 1155 1857.5 1149.0Q1867 1143 1871 1132L1940 949Q1946 934 1959 929L2119 860Q2141 850 2141 827Q2141 803 2119 794L1959 725Q1945 719 1940 705L1871 521Q1867 510 1857.5 504.0Q1848 498 1837 498Q1812 498 1804 521L1735 705Q1731 718 1715 725L1555 794Q1533 804 1533 827Z" style="fill:#ffffff;stroke:none" transform="scale(1,-1) translate(0,-256)" /></svg>