<?xml version="1.0" encoding="utf-8" ?>
<svg baseProfile="full" height="256" version="1.1" width="256" xmlns="http://www.w3.org/2000/svg" xmlns:ev="http://www.w3.org/2001/xml-events" xmlns:xlink="http://www.w3.org/1999/xlink"><defs /><path d="M1033 -45Q1004 -16 976.0 13.0Q948 42 919 71Q930 97 940.0 124.0Q950 151 959 178Q1007 170 1055.0 165.0Q1103 160 1152 155Q1158 101 1167.0 49.0Q1176 -3 1184 -57V-60Q1244 -65 1304.5 -67.5Q1365 -70 1426 -71V-215Q1347 -215 1269.0 -209.5Q1191 -204 1113 -193Q1090 -158 1070.0 -121.0Q1050 -84 1033 -45Z" style="fill:#62576e;stroke:none" transform="scale(1,-1) translate(0,-256)" /></svg>