<?xml version="1.0" encoding="utf-8" ?>
<svg baseProfile="full" height="256" version="1.1" width="256" xmlns="http://www.w3.org/2000/svg" xmlns:ev="http://www.w3.org/2001/xml-events" xmlns:xlink="http://www.w3.org/1999/xlink"><defs /><path d="M1613 1671Q1613 1651 1601.5 1630.0Q1590 1609 1573.5 1590.0Q1557 1571 1537.0 1556.0Q1517 1541 1501 1532Q1491 1527 1484.5 1517.5Q1478 1508 1478 1496V1420Q1478 1405 1467.5 1394.5Q1457 1384 1442 1384H1370Q1355 1384 1344.5 1394.5Q1334 1405 1334 1420V1496Q1334 1508 1327.5 1517.5Q1321 1527 1311 1532Q1294 1541 1274.5 1556.0Q1255 1571 1238.5 1590.0Q1222 1609 1210.5 1630.0Q1199 1651 1199 1671Q1199 1696 1219.0 1710.5Q1239 1725 1262 1725H1550Q1573 1725 1593.0 1710.5Q1613 1696 1613 1671Z" style="fill:#321b41;stroke:none" transform="scale(1,-1) translate(0,-256)" /></svg>