<?xml version="1.0" encoding="utf-8" ?>
<svg baseProfile="full" height="256" version="1.1" width="256" xmlns="http://www.w3.org/2000/svg" xmlns:ev="http://www.w3.org/2001/xml-events" xmlns:xlink="http://www.w3.org/1999/xlink"><defs /><path d="M592 794 669 806Q685 789 701.0 772.5Q717 756 731 739Q717 674 711.5 609.0Q706 544 708 478Q688 472 669.5 466.5Q651 461 631 456L564 551V573Q564 688 592 794ZM1139 376Q1211 367 1282.5 363.5Q1354 360 1426 360V145Q1490 145 1553.0 147.5Q1616 150 1680 155Q1674 100 1666.0 46.0Q1658 -8 1647 -62Q1726 -55 1806 -44L1934 63L1878 183Q1840 215 1808.5 251.0Q1777 287 1746 325Q1735 339 1723.5 355.0Q1712 371 1699 384L1517 565Q1504 578 1493.5 589.5Q1483 601 1472.5 611.5Q1462 622 1451.0 632.5Q1440 643 1426 656Q1398 682 1359.0 709.5Q1320 737 1289 761L1148 665Q1143 607 1140.5 549.5Q1138 492 1138 434ZM621 265Q648 194 687.0 129.5Q726 65 776 8Q788 5 800.5 2.0Q813 -1 825 -5Q796 52 775.0 111.5Q754 171 739 233Q722 250 706.0 266.5Q690 283 673 300Q660 292 647.0 283.0Q634 274 621 265Z" style="fill:#b4acbc;stroke:none" transform="scale(1,-1) translate(0,-256)" /></svg>