<?xml version="1.0" encoding="utf-8" ?>
<svg baseProfile="full" height="256" version="1.1" width="256" xmlns="http://www.w3.org/2000/svg" xmlns:ev="http://www.w3.org/2001/xml-events" xmlns:xlink="http://www.w3.org/1999/xlink"><defs /><path d="M923 503Q923 598 935 691Q963 715 992.0 737.5Q1021 760 1050 783Q1074 754 1100.5 725.0Q1127 696 1148 665Q1174 626 1199.0 586.0Q1224 546 1252 508L1139 376Q1085 383 1032.0 391.5Q979 400 926 412Q923 457 923 503ZM1730 -191Q1673 -200 1612 -206Q1623 -168 1632.0 -130.5Q1641 -93 1649 -55Q1672 -36 1694.0 -18.5Q1716 -1 1739 17L1804 -38Q1789 -76 1771.5 -116.5Q1754 -157 1730 -191ZM701 481Q756 458 812.5 442.0Q869 426 926 412Q930 352 937.5 294.0Q945 236 959 178Q902 186 846.0 198.0Q790 210 734 224Q712 252 694.5 283.5Q677 315 660 347Q668 380 676.5 415.5Q685 451 701 481ZM869 -83Q815 -38 770 16Q771 21 774.0 26.5Q777 32 782 32Q793 32 806.0 17.5Q819 3 831.0 -16.0Q843 -35 853.0 -54.5Q863 -74 869 -83Z" style="fill:#998ea4;stroke:none" transform="scale(1,-1) translate(0,-256)" /></svg>