<?xml version="1.0" encoding="utf-8" ?>
<svg baseProfile="full" height="256" version="1.1" width="256" xmlns="http://www.w3.org/2000/svg" xmlns:ev="http://www.w3.org/2001/xml-events" xmlns:xlink="http://www.w3.org/1999/xlink"><defs /><path d="M1561 1380Q1583 1385 1605.0 1390.0Q1627 1395 1648 1403L1645 1404Q1647 1403 1650.0 1402.5Q1653 1402 1655 1401Q1693 1386 1728.0 1364.0Q1763 1342 1798.0 1319.5Q1833 1297 1869.0 1277.5Q1905 1258 1945 1249Q2047 1166 2121 1058Q2113 1041 2103.5 1024.5Q2094 1008 2084 992Q2043 1000 2007 1010Q1952 1123 1871 1216Q1805 1194 1732 1180Q1697 1237 1654.5 1287.5Q1612 1338 1561 1380ZM1174 1400Q1197 1392 1220.5 1387.0Q1244 1382 1267 1377Q1256 1337 1245.5 1296.0Q1235 1255 1235 1213Q1235 1199 1238.0 1184.0Q1241 1169 1249 1157Q1294 1152 1337.5 1151.0Q1381 1150 1426 1150V935Q1318 935 1212.0 942.5Q1106 950 1000 968Q1020 1024 1044.5 1076.5Q1069 1129 1100 1180Q1027 1194 961 1216Q880 1123 825 1010Q796 1020 767.0 1031.5Q738 1043 711 1058Q786 1168 888 1249Q919 1256 956.5 1274.0Q994 1292 1032.5 1314.5Q1071 1337 1107.5 1360.0Q1144 1383 1174 1400ZM1684 660Q1738 665 1791.0 671.5Q1844 678 1898 688Q1903 642 1906.0 596.0Q1909 550 1909 503Q1909 457 1906 412Q1853 400 1800.0 391.5Q1747 383 1693 376Q1693 448 1691.5 518.0Q1690 588 1684 660ZM1906 412Q1962 424 2016.5 440.0Q2071 456 2124 478Q2123 413 2115.0 349.0Q2107 285 2090 222Q2036 208 1982.0 197.0Q1928 186 1873 178Q1887 236 1894.5 294.0Q1902 352 1906 412Z" style="fill:#d3d3d3;stroke:none" transform="scale(1,-1) translate(0,-256)" /></svg>