<?xml version="1.0" encoding="utf-8" ?>
<svg baseProfile="full" height="256" version="1.1" width="256" xmlns="http://www.w3.org/2000/svg" xmlns:ev="http://www.w3.org/2001/xml-events" xmlns:xlink="http://www.w3.org/1999/xlink"><defs /><path d="M725 738Q715 779 709.0 821.0Q703 863 698 905Q727 933 757.5 962.5Q788 992 822 1014Q827 1014 842.5 1018.0Q858 1022 876.0 1028.0Q894 1034 910.5 1039.5Q927 1045 934 1047Q952 1030 969.5 1011.5Q987 993 1002 973Q1013 933 1022.5 892.5Q1032 852 1040 811Q1014 780 987.5 749.5Q961 719 934 688Q881 698 829.0 710.0Q777 722 725 738ZM2056 8Q2105 64 2143.5 128.0Q2182 192 2209 261Q2167 261 2124.5 262.0Q2082 263 2040 264Q2026 204 2016.0 141.5Q2006 79 2006 17Q2006 12 2006.5 6.0Q2007 0 2007 -5Q2019 -1 2031.5 2.0Q2044 5 2056 8Z" style="fill:#9b9b9b;stroke:none" transform="scale(1,-1) translate(0,-256)" /></svg>