<?xml version="1.0" encoding="utf-8" ?>
<svg baseProfile="full" height="256" version="1.1" width="256" xmlns="http://www.w3.org/2000/svg" xmlns:ev="http://www.w3.org/2001/xml-events" xmlns:xlink="http://www.w3.org/1999/xlink"><defs /><path d="M1175 1400 1183 1403ZM1176 1399Q1056 1326 961 1216Q942 1223 923.0 1230.5Q904 1238 886 1247Q950 1299 1022.5 1337.5Q1095 1376 1173 1400ZM1267 1377Q1291 1373 1315.5 1370.5Q1340 1368 1365 1367Q1326 1322 1298.0 1267.0Q1270 1212 1249 1158Q1210 1163 1171.0 1168.0Q1132 1173 1094 1181L1100 1180Q1134 1236 1175.5 1285.5Q1217 1335 1267 1377ZM1426 1366Q1436 1366 1446.0 1366.5Q1456 1367 1466 1368Q1506 1325 1534.5 1268.5Q1563 1212 1583 1158Q1544 1154 1505.0 1152.0Q1466 1150 1426 1150ZM1871 1216Q1823 1271 1767.5 1318.5Q1712 1366 1649 1403Q1730 1380 1805.0 1340.5Q1880 1301 1946 1247Q1928 1238 1909.0 1230.5Q1890 1223 1871 1216ZM2007 1010Q2036 1020 2065.0 1031.5Q2094 1043 2121 1058Q2200 940 2234.0 816.0Q2268 692 2268 551Q2234 528 2198.0 510.5Q2162 493 2124 478Q2125 484 2125.0 490.5Q2125 497 2125 503Q2125 634 2095.5 764.0Q2066 894 2007 1010Z" style="fill:#dadada;stroke:none" transform="scale(1,-1) translate(0,-256)" /></svg>