<?xml version="1.0" encoding="utf-8" ?>
<svg baseProfile="full" height="256" version="1.1" width="256" xmlns="http://www.w3.org/2000/svg" xmlns:ev="http://www.w3.org/2001/xml-events" xmlns:xlink="http://www.w3.org/1999/xlink"><defs /><path d="M1648 1403Q1642 1380 1614.0 1358.0Q1586 1336 1550.5 1318.5Q1515 1301 1479.5 1290.0Q1444 1279 1422 1279Q1398 1279 1358.0 1287.5Q1318 1296 1279.0 1312.0Q1240 1328 1209.5 1350.5Q1179 1373 1173 1400Q1291 1436 1416 1436Q1535 1436 1648 1403ZM591 790Q629 938 715 1063Q733 1066 751.0 1069.5Q769 1073 787 1077L827 1015Q794 949 769.5 879.0Q745 809 731 737Q661 758 591 790ZM934 688Q943 761 959.5 833.0Q976 905 1002 974Q1069 995 1142.0 1005.5Q1215 1016 1285 1024Q1253 932 1219.5 841.0Q1186 750 1148 660Q1094 665 1041.0 671.5Q988 678 934 688ZM2268 556Q2266 478 2251.0 403.0Q2236 328 2207 256Q2178 245 2149.0 237.0Q2120 229 2090 222Q2075 165 2054.0 106.5Q2033 48 2007 -5Q1955 -18 1903.5 -27.5Q1852 -37 1799 -45Q1846 64 1873 178Q1825 170 1777.0 165.0Q1729 160 1680 155Q1685 212 1688.5 269.5Q1692 327 1693 385Q1764 446 1843.0 499.0Q1922 552 2000 603Q2067 591 2133.5 579.0Q2200 567 2268 556ZM564 551Q598 528 634.0 510.5Q670 493 708 478Q709 413 717.0 349.0Q725 285 742 222Q712 229 683.0 237.0Q654 245 625 256Q596 327 581.0 401.0Q566 475 564 551Z" style="fill:#bebebe;stroke:none" transform="scale(1,-1) translate(0,-256)" /></svg>