<?xml version="1.0" encoding="utf-8" ?>
<svg baseProfile="full" height="256" version="1.1" width="256" xmlns="http://www.w3.org/2000/svg" xmlns:ev="http://www.w3.org/2001/xml-events" xmlns:xlink="http://www.w3.org/1999/xlink"><defs /><path d="M1583 1158Q1621 1162 1658.0 1167.0Q1695 1172 1732 1180Q1763 1129 1787.5 1076.5Q1812 1024 1832 969Q1785 960 1738.0 954.5Q1691 949 1643 944Q1658 873 1668.0 802.5Q1678 732 1684 660Q1619 653 1555.0 650.0Q1491 647 1426 647V935Q1480 935 1534.5 937.5Q1589 940 1643 944Q1632 999 1617.0 1052.5Q1602 1106 1583 1158Z" style="fill:#f4f4f4;stroke:none" transform="scale(1,-1) translate(0,-256)" /></svg>