<?xml version="1.0" encoding="utf-8" ?>
<svg baseProfile="full" height="256" version="1.1" width="256" xmlns="http://www.w3.org/2000/svg" xmlns:ev="http://www.w3.org/2001/xml-events" xmlns:xlink="http://www.w3.org/1999/xlink"><defs /><path d="M1729 1597Q1770 1597 1795.0 1581.0Q1820 1565 1839.5 1545.5Q1859 1526 1877.5 1510.0Q1896 1494 1923 1494Q1946 1494 1968.5 1499.0Q1991 1504 2014 1504Q2039 1504 2063.0 1495.0Q2087 1486 2105.5 1470.5Q2124 1455 2137.0 1433.0Q2150 1411 2155 1386L2165 1326Q2168 1310 2178.0 1296.5Q2188 1283 2202 1275Q2228 1261 2251.5 1247.5Q2275 1234 2293.0 1217.0Q2311 1200 2321.5 1176.5Q2332 1153 2332 1119Q2332 1095 2324.5 1075.0Q2317 1055 2307.5 1037.5Q2298 1020 2290.5 1003.5Q2283 987 2283 970Q2283 953 2290.5 937.0Q2298 921 2307.5 903.5Q2317 886 2324.5 866.0Q2332 846 2332 822Q2332 788 2321.5 764.5Q2311 741 2293.0 724.0Q2275 707 2251.5 693.5Q2228 680 2202 666Q2188 658 2178.0 644.5Q2168 631 2165 615L2155 555Q2150 529 2137.0 507.5Q2124 486 2105.5 470.5Q2087 455 2063.0 446.0Q2039 437 2014 437Q1991 437 1968.5 442.0Q1946 447 1923 447Q1896 447 1877.5 430.5Q1859 414 1839.5 394.5Q1820 375 1795.0 359.0Q1770 343 1729 343Q1688 343 1662.5 359.0Q1637 375 1618.0 394.5Q1599 414 1581.0 430.5Q1563 447 1536 447Q1513 447 1490.5 442.0Q1468 437 1445 437Q1419 437 1395.5 446.0Q1372 455 1353.0 470.5Q1334 486 1321.0 507.5Q1308 529 1304 555L1294 615Q1288 650 1256 666Q1230 680 1206.5 693.5Q1183 707 1165.0 724.0Q1147 741 1136.5 764.5Q1126 788 1126 821Q1126 845 1133.5 865.0Q1141 885 1150.5 902.5Q1160 920 1167.5 936.5Q1175 953 1175 970Q1175 988 1167.5 1004.5Q1160 1021 1150.5 1038.5Q1141 1056 1133.5 1076.0Q1126 1096 1126 1120Q1126 1153 1136.5 1176.5Q1147 1200 1165.0 1217.0Q1183 1234 1206.5 1247.5Q1230 1261 1256 1275Q1270 1283 1280.5 1296.0Q1291 1309 1294 1326L1304 1386Q1308 1411 1321.0 1433.0Q1334 1455 1353.0 1470.5Q1372 1486 1395.5 1495.0Q1419 1504 1445 1504Q1468 1504 1490.5 1499.0Q1513 1494 1536 1494Q1563 1494 1581.0 1510.0Q1599 1526 1618.0 1545.5Q1637 1565 1662.5 1581.0Q1688 1597 1729 1597Z" style="fill:#ff9f2e;stroke:none" transform="scale(1,-1) translate(0,-256)" /></svg>