<?xml version="1.0" encoding="utf-8" ?>
<svg baseProfile="full" height="256" version="1.1" width="256" xmlns="http://www.w3.org/2000/svg" xmlns:ev="http://www.w3.org/2001/xml-events" xmlns:xlink="http://www.w3.org/1999/xlink"><defs /><path d="M757 -287Q745 -274 717.0 -258.0Q689 -242 656.5 -226.5Q624 -211 593.0 -198.0Q562 -185 543 -177V1204Q543 1241 569.5 1267.5Q596 1294 633 1294H903V1348Q903 1385 929.5 1411.5Q956 1438 993 1438H1100Q1137 1438 1163.5 1411.5Q1190 1385 1190 1348V-215Q1185 -216 1162.0 -222.0Q1139 -228 1107.0 -236.0Q1075 -244 1039.5 -253.0Q1004 -262 974.0 -269.5Q944 -277 924.0 -282.0Q904 -287 903 -287ZM1550 629Q1550 667 1576.0 693.0Q1602 719 1640 719H2179Q2216 719 2242.0 692.5Q2268 666 2268 629V-177Q2229 -200 2185.0 -220.0Q2141 -240 2094.5 -255.0Q2048 -270 2000.5 -278.5Q1953 -287 1908 -287H1766Q1766 -287 1751.0 -282.0Q1736 -277 1713.0 -269.5Q1690 -262 1663.0 -253.0Q1636 -244 1612.5 -236.0Q1589 -228 1571.5 -222.0Q1554 -216 1550 -215Z" style="fill:#321b41;stroke:none" transform="scale(1,-1) translate(0,-256)" /></svg>