<?xml version="1.0" encoding="utf-8" ?>
<svg baseProfile="full" height="256" version="1.1" width="256" xmlns="http://www.w3.org/2000/svg" xmlns:ev="http://www.w3.org/2001/xml-events" xmlns:xlink="http://www.w3.org/1999/xlink"><defs /><path d="M2197 971Q2197 874 2160.0 789.0Q2123 704 2059.5 640.5Q1996 577 1911.0 540.0Q1826 503 1729 503Q1632 503 1547.0 540.0Q1462 577 1398.5 640.5Q1335 704 1298.5 789.0Q1262 874 1262 971Q1262 1068 1298.5 1153.0Q1335 1238 1398.5 1301.5Q1462 1365 1547.0 1401.5Q1632 1438 1729 1438Q1826 1438 1911.0 1401.5Q1996 1365 2059.5 1301.5Q2123 1238 2160.0 1153.0Q2197 1068 2197 971Z" style="fill:#fcd53f;stroke:none" transform="scale(1,-1) translate(0,-256)" /></svg>