<?xml version="1.0" encoding="utf-8" ?>
<svg baseProfile="full" height="256" version="1.1" width="256" xmlns="http://www.w3.org/2000/svg" xmlns:ev="http://www.w3.org/2001/xml-events" xmlns:xlink="http://www.w3.org/1999/xlink"><defs /><path d="M400 1222H1262Q1292 1222 1313.0 1201.0Q1334 1180 1334 1150V863Q1334 833 1313.0 812.0Q1292 791 1262 791H400ZM400 216V647H687Q717 647 738.0 626.0Q759 605 759 575V288Q759 258 738.0 237.0Q717 216 687 216ZM615 -287Q570 -287 531.0 -270.0Q492 -253 463.0 -224.0Q434 -195 417.0 -156.0Q400 -117 400 -72V72H1262Q1292 72 1313.0 51.0Q1334 30 1334 0V-287ZM2412 -72Q2412 -117 2395.0 -156.0Q2378 -195 2349.0 -224.0Q2320 -253 2281.0 -270.0Q2242 -287 2197 -287H1478V0Q1478 30 1499.0 51.0Q1520 72 1550 72H2412ZM2412 647V216H2125Q2095 216 2074.0 237.0Q2053 258 2053 288V575Q2053 605 2074.0 626.0Q2095 647 2125 647ZM2412 791H1550Q1520 791 1499.0 812.0Q1478 833 1478 863V1150Q1478 1180 1499.0 1201.0Q1520 1222 1550 1222H2412ZM2197 1725Q2242 1725 2281.0 1708.0Q2320 1691 2349.0 1662.0Q2378 1633 2395.0 1594.0Q2412 1555 2412 1510V1366H2125Q2095 1366 2074.0 1387.0Q2053 1408 2053 1438V1725ZM1909 1725V1438Q1909 1408 1888.0 1387.0Q1867 1366 1837 1366H975Q945 1366 924.0 1387.0Q903 1408 903 1438V1725ZM759 1438Q759 1408 738.0 1387.0Q717 1366 687 1366H400V1510Q400 1555 417.0 1594.0Q434 1633 463.0 1662.0Q492 1691 531.0 1708.0Q570 1725 615 1725H759ZM1837 647Q1867 647 1888.0 626.0Q1909 605 1909 575V288Q1909 258 1888.0 237.0Q1867 216 1837 216H975Q945 216 924.0 237.0Q903 258 903 288V575Q903 605 924.0 626.0Q945 647 975 647Z" style="fill:#ff6723;stroke:none" transform="scale(1,-1) translate(0,-256)" /></svg>