<?xml version="1.0" encoding="utf-8" ?>
<svg baseProfile="full" height="256" version="1.1" width="256" xmlns="http://www.w3.org/2000/svg" xmlns:ev="http://www.w3.org/2001/xml-events" xmlns:xlink="http://www.w3.org/1999/xlink"><defs /><path d="M759 1472Q759 1482 763.5 1491.5Q768 1501 775 1509L964 1708Q971 1715 979.5 1720.0Q988 1725 998 1725Q1008 1725 1017.0 1720.5Q1026 1716 1033 1709L1694 1013L1220 647L1127 812Q1120 824 1114.0 833.5Q1108 843 1102.5 852.0Q1097 861 1091.5 871.0Q1086 881 1081 894Q1071 918 1068.0 936.0Q1065 954 1058 979L1011 1150Q1001 1159 979.0 1177.5Q957 1196 933.0 1217.0Q909 1238 888.5 1256.5Q868 1275 862 1283Q859 1286 846.5 1308.0Q834 1330 819.5 1356.5Q805 1383 792.0 1406.5Q779 1430 775 1437Q770 1447 764.5 1453.0Q759 1459 759 1472ZM2160 72Q2147 72 2141.0 77.5Q2135 83 2125 88L1971 174L1837 360L1581 394L1334 533L1700 1006L2396 346Q2403 339 2407.5 330.0Q2412 321 2412 310Q2412 300 2407.5 292.0Q2403 284 2396 277L2197 88Q2189 81 2179.5 76.5Q2170 72 2160 72ZM1113 -148Q1119 -157 1119 -167Q1119 -181 1108 -192L1024 -276Q1013 -287 998 -287Q983 -287 972 -276L411 285Q400 296 400 311Q400 326 411 337L495 421Q506 432 520 432Q530 432 539 426L894 214L895 216L898 211L903 208L901 206Z" style="fill:#f92f60;stroke:none" transform="scale(1,-1) translate(0,-256)" /></svg>