<?xml version="1.0" encoding="utf-8" ?>
<svg baseProfile="full" height="256" version="1.1" width="256" xmlns="http://www.w3.org/2000/svg" xmlns:ev="http://www.w3.org/2001/xml-events" xmlns:xlink="http://www.w3.org/1999/xlink"><defs /><path d="M1765 1298Q1765 1314 1776.0 1326.5Q1787 1339 1803.0 1348.0Q1819 1357 1836.5 1361.5Q1854 1366 1867 1366Q1892 1366 1912.5 1356.5Q1933 1347 1951.0 1332.5Q1969 1318 1984.5 1300.0Q2000 1282 2017 1266Q2053 1230 2053 1180Q2053 1167 2048.5 1149.5Q2044 1132 2035.0 1116.5Q2026 1101 2013.5 1090.0Q2001 1079 1986 1079Q1969 1079 1958 1090L1776 1272Q1765 1283 1765 1298Z" style="fill:#00a6ed;stroke:none" transform="scale(1,-1) translate(0,-256)" /></svg>