<?xml version="1.0" encoding="utf-8" ?>
<svg baseProfile="full" height="256" version="1.1" width="256" xmlns="http://www.w3.org/2000/svg" xmlns:ev="http://www.w3.org/2001/xml-events" xmlns:xlink="http://www.w3.org/1999/xlink"><defs /><path d="M847 72Q810 72 784.5 98.0Q759 124 759 160Q759 189 778 214L1637 1331Q1676 1382 1732.5 1410.0Q1789 1438 1853 1438Q1909 1438 1958.5 1416.5Q2008 1395 2045.0 1358.0Q2082 1321 2103.5 1271.5Q2125 1222 2125 1166Q2125 1102 2097.0 1045.5Q2069 989 2018 950L901 90Q878 72 847 72Z" style="fill:#cdc4d6;stroke:none" transform="scale(1,-1) translate(0,-256)" /></svg>