<?xml version="1.0" encoding="utf-8" ?>
<svg baseProfile="full" height="256" version="1.1" width="256" xmlns="http://www.w3.org/2000/svg" xmlns:ev="http://www.w3.org/2001/xml-events" xmlns:xlink="http://www.w3.org/1999/xlink"><defs /><path d="M1686 797Q1686 739 1664.0 688.0Q1642 637 1604.0 598.5Q1566 560 1515.0 538.0Q1464 516 1406 516Q1348 516 1297.0 538.0Q1246 560 1207.5 598.5Q1169 637 1147.0 688.0Q1125 739 1125 797Q1125 855 1147.0 906.0Q1169 957 1207.5 995.0Q1246 1033 1297.0 1055.0Q1348 1077 1406 1077Q1464 1077 1515.0 1055.0Q1566 1033 1604.0 995.0Q1642 957 1664.0 906.0Q1686 855 1686 797ZM1182 283Q1182 244 1167.0 209.0Q1152 174 1126.5 148.5Q1101 123 1066.0 108.0Q1031 93 992 93Q953 93 918.5 108.0Q884 123 858.5 149.0Q833 175 818.0 209.5Q803 244 803 283Q803 322 818.0 356.5Q833 391 858.5 416.5Q884 442 918.5 457.0Q953 472 992 472Q1031 472 1065.5 457.0Q1100 442 1126.0 416.5Q1152 391 1167.0 356.5Q1182 322 1182 283ZM741 993Q641 844 615 666Q641 640 675.0 627.0Q709 614 746 614Q785 614 820.0 629.0Q855 644 880.5 669.5Q906 695 921.0 730.0Q936 765 936 804Q936 845 920.5 880.0Q905 915 878.5 940.0Q852 965 816.5 979.0Q781 993 741 993ZM2070 993Q2120 919 2151.0 836.5Q2182 754 2196 666Q2170 641 2135.5 627.0Q2101 613 2065 613Q2026 613 1991.0 628.0Q1956 643 1930.5 668.5Q1905 694 1890.0 729.0Q1875 764 1875 803Q1875 844 1890.5 878.5Q1906 913 1932.5 938.5Q1959 964 1994.5 978.5Q2030 993 2070 993ZM1819 93Q1858 93 1893.0 108.0Q1928 123 1953.5 148.5Q1979 174 1994.0 209.0Q2009 244 2009 283Q2009 322 1994.0 356.5Q1979 391 1953.0 416.5Q1927 442 1892.5 457.0Q1858 472 1819 472Q1780 472 1745.5 457.0Q1711 442 1685.0 416.5Q1659 391 1644.0 356.5Q1629 322 1629 283Q1629 244 1644.0 209.0Q1659 174 1684.5 148.5Q1710 123 1745.0 108.0Q1780 93 1819 93ZM1511 -11Q1511 -33 1502.5 -52.0Q1494 -71 1480.0 -85.5Q1466 -100 1447.0 -108.0Q1428 -116 1406 -116Q1384 -116 1365.0 -108.0Q1346 -100 1331.5 -85.5Q1317 -71 1309.0 -52.0Q1301 -33 1301 -11Q1301 11 1309.0 30.0Q1317 49 1331.5 63.0Q1346 77 1365.0 85.5Q1384 94 1406 94Q1428 94 1447.0 85.5Q1466 77 1480.0 63.0Q1494 49 1502.5 30.0Q1511 11 1511 -11Z" style="fill:#212121;stroke:none" transform="scale(1,-1) translate(0,-256)" /></svg>