<?xml version="1.0" encoding="utf-8" ?>
<svg baseProfile="full" height="256" version="1.1" width="256" xmlns="http://www.w3.org/2000/svg" xmlns:ev="http://www.w3.org/2001/xml-events" xmlns:xlink="http://www.w3.org/1999/xlink"><defs /><path d="M1200 1761Q1209 1761 1217.5 1756.0Q1226 1751 1231 1743L1346 1544Q1361 1546 1376.0 1547.0Q1391 1548 1406 1548Q1417 1548 1429.0 1547.5Q1441 1547 1452 1546L1567 1743Q1578 1761 1598 1761Q1612 1761 1623.0 1750.5Q1634 1740 1634 1725Q1634 1720 1627.5 1705.5Q1621 1691 1610.5 1672.0Q1600 1653 1587.0 1631.5Q1574 1610 1562.5 1590.5Q1551 1571 1541.5 1555.5Q1532 1540 1528 1533Q1606 1513 1673.0 1470.5Q1740 1428 1789.5 1368.5Q1839 1309 1869.0 1236.0Q1899 1163 1905 1082L1993 1170Q2017 1194 2017 1227V1371Q2017 1393 2033.0 1409.0Q2049 1425 2071 1425Q2093 1425 2109.0 1409.0Q2125 1393 2125 1371V1227Q2125 1189 2110.0 1154.0Q2095 1119 2069 1093Q2064 1087 2049.0 1072.5Q2034 1058 2015.0 1038.5Q1996 1019 1975.5 998.0Q1955 977 1936.5 959.0Q1918 941 1904.5 928.0Q1891 915 1888 913Q1868 842 1829.0 780.5Q1790 719 1736.5 671.5Q1683 624 1617.0 593.0Q1551 562 1478 552V-246Q1442 -249 1406 -249Q1370 -249 1334 -246V552Q1260 562 1194.5 593.5Q1129 625 1075.0 672.5Q1021 720 982.0 781.5Q943 843 924 914Q920 916 918 918L742 1094Q716 1120 701.5 1155.0Q687 1190 687 1228V1372Q687 1395 702.5 1410.0Q718 1425 741 1425Q768 1425 779.5 1410.5Q791 1396 794.5 1373.5Q798 1351 796.0 1322.5Q794 1294 793.5 1266.0Q793 1238 798.0 1212.5Q803 1187 819 1171L907 1083Q913 1162 942.0 1234.0Q971 1306 1019.0 1364.5Q1067 1423 1131.5 1466.0Q1196 1509 1272 1530Q1266 1540 1248.5 1569.0Q1231 1598 1212.0 1630.0Q1193 1662 1178.5 1689.5Q1164 1717 1164 1725Q1164 1739 1174.5 1750.0Q1185 1761 1200 1761ZM2358 692Q2336 692 2319.5 708.0Q2303 724 2285.0 742.5Q2267 761 2243.0 777.0Q2219 793 2181 793H2056Q2033 793 2017.5 808.5Q2002 824 2002 847Q2002 869 2018.0 885.0Q2034 901 2056 901H2181Q2219 901 2248.0 892.0Q2277 883 2301.5 867.5Q2326 852 2348.5 830.5Q2371 809 2396 784Q2412 768 2412 745Q2412 722 2396.5 707.0Q2381 692 2358 692ZM2214 -247Q2185 -247 2174.0 -230.5Q2163 -214 2160.5 -187.5Q2158 -161 2160.5 -127.0Q2163 -93 2161.5 -57.0Q2160 -21 2149.5 13.5Q2139 48 2112 75L1928 259Q1912 275 1912 297Q1912 319 1927.5 335.0Q1943 351 1966 351Q1988 351 2004 335L2188 151Q2226 112 2247.0 62.0Q2268 12 2268 -43V-193Q2268 -216 2252.5 -231.5Q2237 -247 2214 -247ZM597 -246Q575 -246 559.0 -230.0Q543 -214 543 -192V-41Q543 14 564.5 64.5Q586 115 624 153L808 337Q823 352 846 352Q869 352 884.5 336.5Q900 321 900 298Q900 276 884 260L700 76Q672 48 662.0 13.5Q652 -21 650.0 -57.0Q648 -93 650.5 -127.0Q653 -161 650.5 -187.5Q648 -214 637.0 -230.0Q626 -246 597 -246ZM453 693Q431 693 415.0 709.0Q399 725 399 747Q399 769 415 785Q440 810 462.5 831.5Q485 853 509.5 869.0Q534 885 563.0 893.5Q592 902 630 902H756Q778 902 794.0 886.0Q810 870 810 848Q810 826 794.0 810.0Q778 794 756 794H630Q593 794 569.0 778.0Q545 762 526.5 743.5Q508 725 491.5 709.0Q475 693 453 693Z" style="fill:#212121;stroke:none" transform="scale(1,-1) translate(0,-256)" /></svg>