<?xml version="1.0" encoding="utf-8" ?>
<svg baseProfile="full" height="256" version="1.1" width="256" xmlns="http://www.w3.org/2000/svg" xmlns:ev="http://www.w3.org/2001/xml-events" xmlns:xlink="http://www.w3.org/1999/xlink"><defs /><path d="M1370 -248Q1361 -248 1352.0 -247.5Q1343 -247 1334 -246Q1179 -230 1046.0 -162.5Q913 -95 815.5 11.0Q718 117 662.5 254.5Q607 392 607 550Q607 609 616 668L831 791L741 992Q779 1049 825.0 1097.0Q871 1145 925 1188L926 1189H1370ZM1442 1189H1887V1188Q1941 1146 1987.0 1097.5Q2033 1049 2071 992L1981 791L2196 666Q2200 637 2202.0 608.0Q2204 579 2204 550Q2204 445 2179.0 348.5Q2154 252 2107.5 167.0Q2061 82 1995.5 11.0Q1930 -60 1849.5 -113.5Q1769 -167 1675.0 -201.0Q1581 -235 1478 -246Q1469 -247 1460.0 -247.5Q1451 -248 1442 -248Z" style="fill:#f8312f;stroke:none" transform="scale(1,-1) translate(0,-256)" /></svg>