<?xml version="1.0" encoding="utf-8" ?>
<svg baseProfile="full" height="256" version="1.1" width="256" xmlns="http://www.w3.org/2000/svg" xmlns:ev="http://www.w3.org/2001/xml-events" xmlns:xlink="http://www.w3.org/1999/xlink"><defs /><path d="M1613 1379Q1637 1363 1654.0 1354.0Q1671 1345 1687.0 1340.0Q1703 1335 1721.5 1332.5Q1740 1330 1769 1327L1767 1308Q1750 1303 1731.5 1298.5Q1713 1294 1695 1294Q1689 1294 1674.5 1302.0Q1660 1310 1644.0 1320.5Q1628 1331 1613.5 1341.0Q1599 1351 1593 1356Q1570 1333 1538.0 1323.5Q1506 1314 1474 1308L1472 1325Q1501 1332 1523.5 1339.5Q1546 1347 1564 1374L1520 1400Q1506 1386 1494.0 1376.5Q1482 1367 1469.0 1359.5Q1456 1352 1442.0 1345.5Q1428 1339 1410 1332L1406 1354Q1426 1364 1441.0 1372.5Q1456 1381 1469.0 1390.0Q1482 1399 1495.0 1410.5Q1508 1422 1524 1438L1522 1460L1500 1462V1575L1539 1581L1554 1606L1450 1599L1452 1627L1699 1653L1717 1614L1583 1606L1568 1581L1653 1589L1665 1573L1651 1464L1556 1460L1554 1440Q1576 1442 1597.5 1444.0Q1619 1446 1641 1446Q1643 1440 1647.5 1435.0Q1652 1430 1657 1425ZM1528 1473 1628 1490V1566L1539 1560L1537 1538L1614 1550L1612 1539L1535 1525L1532 1503L1610 1514V1502L1531 1487ZM1614 1423H1543L1591 1392Z" style="fill:#0074ba;stroke:none" transform="scale(1,-1) translate(0,-256)" /></svg>