<?xml version="1.0" encoding="utf-8" ?>
<svg baseProfile="full" height="256" version="1.1" width="256" xmlns="http://www.w3.org/2000/svg" xmlns:ev="http://www.w3.org/2001/xml-events" xmlns:xlink="http://www.w3.org/1999/xlink"><defs /><path d="M975 1438V1366Q975 1344 966.5 1324.5Q958 1305 943.0 1290.0Q928 1275 908.5 1266.5Q889 1258 867 1258H835Q857 1257 876.0 1248.0Q895 1239 909.0 1225.0Q923 1211 931.0 1191.5Q939 1172 939 1150V1114H903Q858 1114 827.5 1143.0Q797 1172 795 1217Q790 1177 759 1150Q744 1163 734.0 1180.0Q724 1197 723 1217Q722 1195 713.0 1176.5Q704 1158 689.5 1144.0Q675 1130 656.0 1122.0Q637 1114 615 1114H579V1150Q579 1171 587.0 1190.5Q595 1210 609.0 1224.5Q623 1239 642.0 1248.0Q661 1257 682 1258H651Q629 1258 609.5 1266.5Q590 1275 575.0 1290.0Q560 1305 551.5 1324.5Q543 1344 543 1366V1438H615Q656 1438 687 1410Q689 1450 709.0 1485.0Q729 1520 759 1546Q789 1520 809.0 1485.0Q829 1450 831 1410Q862 1438 903 1438ZM1262 935V863Q1262 840 1253.5 820.5Q1245 801 1230.5 786.5Q1216 772 1196.0 763.5Q1176 755 1154 755H1122Q1144 754 1163.0 745.0Q1182 736 1196.0 722.0Q1210 708 1218.0 688.5Q1226 669 1226 647V611H1190Q1145 611 1115.0 640.5Q1085 670 1083 714Q1080 674 1047 647Q1031 659 1021.5 676.5Q1012 694 1011 714Q1010 693 1001.0 674.0Q992 655 977.5 641.0Q963 627 943.5 619.0Q924 611 903 611H867V647Q867 669 875.0 688.0Q883 707 897.0 721.5Q911 736 929.5 745.0Q948 754 970 755H939Q916 755 896.5 763.5Q877 772 862.5 786.5Q848 801 839.5 820.5Q831 840 831 863V935H903Q944 935 975 907Q977 948 996.5 982.0Q1016 1016 1047 1042Q1078 1016 1097.0 982.0Q1116 948 1118 907Q1149 935 1190 935ZM1478 360V288Q1478 265 1469.5 245.5Q1461 226 1446.5 211.5Q1432 197 1412.0 188.5Q1392 180 1370 180H1338Q1360 179 1379.0 170.0Q1398 161 1412.0 147.0Q1426 133 1434.0 113.5Q1442 94 1442 72V36H1406Q1361 36 1330.5 65.0Q1300 94 1298 139Q1295 99 1262 72Q1247 85 1237.0 102.0Q1227 119 1226 139Q1225 117 1216.0 98.5Q1207 80 1192.5 66.0Q1178 52 1159.0 44.0Q1140 36 1118 36H1083V72Q1083 93 1091.0 112.5Q1099 132 1112.5 146.5Q1126 161 1145.0 170.0Q1164 179 1185 180H1154Q1131 180 1111.5 188.5Q1092 197 1078.0 212.0Q1064 227 1055.5 246.5Q1047 266 1047 288V360H1118Q1138 360 1157.0 352.5Q1176 345 1191 332Q1193 373 1212.0 407.0Q1231 441 1262 467Q1293 441 1312.5 407.0Q1332 373 1334 332Q1365 360 1406 360ZM1262 539Q1262 554 1272.5 564.5Q1283 575 1298 575Q1313 575 1323.5 564.5Q1334 554 1334 539Q1334 524 1323.5 513.5Q1313 503 1298 503Q1283 503 1272.5 513.5Q1262 524 1262 539ZM903 467Q903 482 913.5 492.5Q924 503 939 503Q954 503 964.5 492.5Q975 482 975 467Q975 453 964.0 442.0Q953 431 939 431Q925 431 914.0 442.0Q903 453 903 467ZM759 1042Q759 1057 769.5 1067.5Q780 1078 795 1078Q810 1078 820.5 1067.5Q831 1057 831 1042Q831 1028 820.0 1017.0Q809 1006 795 1006Q781 1006 770.0 1017.0Q759 1028 759 1042Z" style="fill:#007356;stroke:none" transform="scale(1,-1) translate(0,-256)" /></svg>