<?xml version="1.0" encoding="utf-8" ?>
<svg baseProfile="full" height="256" version="1.1" width="256" xmlns="http://www.w3.org/2000/svg" xmlns:ev="http://www.w3.org/2001/xml-events" xmlns:xlink="http://www.w3.org/1999/xlink"><defs /><path d="M487 1373Q502 1362 521.5 1357.0Q541 1352 560 1352Q585 1352 607.5 1365.5Q630 1379 630 1407Q630 1428 619.0 1440.5Q608 1453 592.0 1462.0Q576 1471 556.5 1478.0Q537 1485 521.0 1495.0Q505 1505 494.0 1521.0Q483 1537 483 1562Q483 1584 491.5 1600.5Q500 1617 514.0 1627.5Q528 1638 547.0 1643.5Q566 1649 586 1649Q605 1649 623.0 1645.0Q641 1641 659 1636L647 1602Q616 1615 586 1615Q564 1615 544.5 1603.5Q525 1592 525 1567Q525 1548 536.0 1536.5Q547 1525 563.0 1517.0Q579 1509 598.5 1501.0Q618 1493 634.0 1482.0Q650 1471 661.0 1454.5Q672 1438 672 1411Q672 1387 663.0 1369.0Q654 1351 638.5 1339.0Q623 1327 602.5 1321.5Q582 1316 560 1316Q539 1316 517.0 1320.0Q495 1324 478 1337Z" style="fill:#0074ba;stroke:none" transform="scale(1,-1) translate(0,-256)" /></svg>