<?xml version="1.0" encoding="utf-8" ?>
<svg baseProfile="full" height="256" version="1.1" width="256" xmlns="http://www.w3.org/2000/svg" xmlns:ev="http://www.w3.org/2001/xml-events" xmlns:xlink="http://www.w3.org/1999/xlink"><defs /><path d="M2340 185Q2340 141 2317.0 106.0Q2294 71 2254 54L1557 -252Q1536 -261 1514 -261Q1491 -261 1471.5 -252.5Q1452 -244 1437.5 -229.0Q1423 -214 1414.5 -194.5Q1406 -175 1406 -153V810Q1406 841 1415.0 871.0Q1424 901 1441.0 926.5Q1458 952 1481.0 972.5Q1504 993 1533 1006L2188 1302Q2211 1312 2232 1312Q2254 1312 2273.5 1303.5Q2293 1295 2308.0 1280.0Q2323 1265 2331.5 1245.5Q2340 1226 2340 1204Z" style="fill:#e1d8ec;stroke:none" transform="scale(1,-1) translate(0,-256)" /></svg>