<?xml version="1.0" encoding="utf-8" ?>
<svg baseProfile="full" height="256" version="1.1" width="256" xmlns="http://www.w3.org/2000/svg" xmlns:ev="http://www.w3.org/2001/xml-events" xmlns:xlink="http://www.w3.org/1999/xlink"><defs /><path d="M472 1205Q472 1227 480.5 1246.5Q489 1266 503.0 1281.0Q517 1296 536.5 1304.5Q556 1313 579 1313Q601 1313 624 1303L1279 1007Q1337 981 1371.5 928.0Q1406 875 1406 811V-152Q1406 -174 1397.5 -193.5Q1389 -213 1374.5 -228.0Q1360 -243 1340.0 -251.5Q1320 -260 1298 -260Q1276 -260 1255 -251L558 55Q519 72 495.5 108.0Q472 144 472 187Z" style="fill:#b4acbc;stroke:none" transform="scale(1,-1) translate(0,-256)" /></svg>