<?xml version="1.0" encoding="utf-8" ?>
<svg baseProfile="full" height="256" version="1.1" width="256" xmlns="http://www.w3.org/2000/svg" xmlns:ev="http://www.w3.org/2001/xml-events" xmlns:xlink="http://www.w3.org/1999/xlink"><defs /><path d="M472 1213Q472 1241 478.5 1269.5Q485 1298 498.5 1323.5Q512 1349 532.0 1369.0Q552 1389 579 1401L1254 1693Q1327 1725 1406 1725Q1483 1725 1558 1693L2240 1401Q2267 1389 2286.0 1368.5Q2305 1348 2317.0 1322.5Q2329 1297 2334.5 1268.5Q2340 1240 2340 1213V276Q2340 231 2332.0 205.0Q2324 179 2307.5 163.0Q2291 147 2266.0 134.5Q2241 122 2207 104L1539 -259Q1526 -266 1509.0 -271.5Q1492 -277 1474.0 -280.5Q1456 -284 1438.5 -286.0Q1421 -288 1406 -288Q1371 -288 1337.5 -280.5Q1304 -273 1272 -259L605 32Q568 48 542.5 74.0Q517 100 501.5 132.0Q486 164 479.0 201.0Q472 238 472 276V1213Z" style="fill:#f3eef8;stroke:none" transform="scale(1,-1) translate(0,-256)" /></svg>