<?xml version="1.0" encoding="utf-8" ?>
<svg baseProfile="full" height="256" version="1.1" width="256" xmlns="http://www.w3.org/2000/svg" xmlns:ev="http://www.w3.org/2001/xml-events" xmlns:xlink="http://www.w3.org/1999/xlink"><defs /><path d="M1406 1330Q1396 1330 1376.5 1331.0Q1357 1332 1333.0 1335.0Q1309 1338 1283.5 1343.5Q1258 1349 1237.5 1357.0Q1217 1365 1203.5 1376.0Q1190 1387 1190 1402Q1190 1417 1203.5 1428.0Q1217 1439 1237.5 1447.0Q1258 1455 1283.5 1460.5Q1309 1466 1333.0 1469.0Q1357 1472 1376.5 1473.0Q1396 1474 1406 1474Q1415 1474 1435.0 1473.0Q1455 1472 1479.0 1469.0Q1503 1466 1528.5 1460.5Q1554 1455 1574.5 1447.0Q1595 1439 1608.5 1428.0Q1622 1417 1622 1402Q1622 1387 1608.5 1376.0Q1595 1365 1574.5 1357.0Q1554 1349 1528.5 1343.5Q1503 1338 1479.0 1335.0Q1455 1332 1435.0 1331.0Q1415 1330 1406 1330Z" style="fill:#f8312f;stroke:none" transform="scale(1,-1) translate(0,-256)" /></svg>