<?xml version="1.0" encoding="utf-8" ?>
<svg baseProfile="full" height="256" version="1.1" width="256" xmlns="http://www.w3.org/2000/svg" xmlns:ev="http://www.w3.org/2001/xml-events" xmlns:xlink="http://www.w3.org/1999/xlink"><defs /><path d="M1262 1366Q1292 1366 1313.0 1345.0Q1334 1324 1334 1294V216Q1334 186 1313.0 165.0Q1292 144 1262 144Q1233 144 1211.5 165.5Q1190 187 1190 216H687Q658 216 636.5 237.5Q615 259 615 288Q615 317 636.5 338.5Q658 360 687 360H1190V1222H687Q658 1222 636.5 1243.5Q615 1265 615 1294Q615 1323 636.5 1344.5Q658 1366 687 1366ZM2125 1366Q2154 1366 2175.5 1344.5Q2197 1323 2197 1294V216Q2197 187 2175.5 165.5Q2154 144 2125 144Q2095 144 2074.0 165.0Q2053 186 2053 216H1550Q1520 216 1499.0 237.0Q1478 258 1478 288Q1478 317 1499.5 338.5Q1521 360 1550 360H2053V1222H1550Q1520 1222 1499.0 1243.0Q1478 1264 1478 1294Q1478 1324 1499.0 1345.0Q1520 1366 1550 1366Z" style="fill:#ffffff;stroke:none" transform="scale(1,-1) translate(0,-256)" /></svg>