<?xml version="1.0" encoding="utf-8" ?>
<svg baseProfile="full" height="256" version="1.1" width="256" xmlns="http://www.w3.org/2000/svg" xmlns:ev="http://www.w3.org/2001/xml-events" xmlns:xlink="http://www.w3.org/1999/xlink"><defs /><path d="M1950 511 2317 608Q2327 611 2338 611Q2368 611 2390.0 589.5Q2412 568 2412 538Q2412 513 2396.5 493.0Q2381 473 2357 466L2133 406L2293 315Q2310 305 2320.0 288.0Q2330 271 2330 252Q2330 223 2308.0 201.5Q2286 180 2257 180Q2239 180 2221 190L2061 281Q2066 262 2076.5 227.5Q2087 193 2097.5 156.0Q2108 119 2116.0 86.5Q2124 54 2124 39Q2124 8 2101.5 -13.5Q2079 -35 2048 -35Q2023 -35 2003.0 -19.5Q1983 -4 1976 20L1878 385L1712 481Q1673 438 1622.0 408.5Q1571 379 1514 367V178L1783 -90Q1805 -112 1805 -142Q1805 -174 1783.5 -195.0Q1762 -216 1730 -216Q1699 -216 1678 -195L1514 -32V-215Q1514 -245 1493.0 -266.0Q1472 -287 1442 -287Q1412 -287 1391.0 -266.0Q1370 -245 1370 -215V-33L1206 -195Q1184 -217 1153 -217Q1123 -217 1101.0 -195.0Q1079 -173 1079 -143Q1079 -112 1101 -90L1370 177V366Q1313 377 1262.0 407.0Q1211 437 1172 480L1006 385L908 20Q901 -4 881.0 -19.5Q861 -35 836 -35Q805 -35 783.0 -12.5Q761 10 761 41Q761 56 769.0 88.0Q777 120 787.5 157.0Q798 194 808.5 228.5Q819 263 824 281L664 189Q647 180 628 180Q599 180 577.0 201.0Q555 222 555 252Q555 271 564.5 287.5Q574 304 591 313L750 405L527 465Q503 472 487.0 491.0Q471 510 471 536Q471 566 493.5 588.5Q516 611 546 611Q555 611 566 608L933 511L1100 606Q1091 633 1085.5 661.5Q1080 690 1080 719Q1080 776 1100 830L933 926L566 828Q555 825 546 825Q515 825 493.0 847.5Q471 870 471 901Q471 926 487.5 946.0Q504 966 527 972L750 1032L591 1124Q574 1134 564.5 1150.5Q555 1167 555 1186Q555 1215 576.5 1236.5Q598 1258 627 1258Q646 1258 663 1249L824 1157Q819 1175 808.5 1209.5Q798 1244 787.5 1280.5Q777 1317 769.0 1349.5Q761 1382 761 1397Q761 1428 783.0 1450.0Q805 1472 836 1472Q861 1472 880.5 1456.0Q900 1440 907 1417L1006 1052L1171 957Q1210 1000 1261.0 1029.5Q1312 1059 1369 1071V1260L1100 1528Q1078 1550 1078 1580Q1078 1610 1100.0 1632.0Q1122 1654 1152 1654Q1183 1654 1205 1632L1369 1470V1653Q1369 1683 1390.0 1704.0Q1411 1725 1441 1725Q1471 1725 1492.0 1704.0Q1513 1683 1513 1653V1470L1677 1632Q1699 1654 1730 1654Q1761 1654 1782.5 1632.5Q1804 1611 1804 1580Q1804 1549 1783 1528L1513 1260V1071Q1570 1060 1620.5 1030.5Q1671 1001 1710 958L1877 1053L1975 1418Q1981 1442 2001.5 1458.0Q2022 1474 2047 1474Q2078 1474 2100.0 1451.5Q2122 1429 2122 1398Q2122 1383 2114.0 1350.5Q2106 1318 2095.5 1281.0Q2085 1244 2075.0 1210.0Q2065 1176 2060 1157L2219 1249Q2235 1258 2255 1258Q2285 1258 2306.5 1237.0Q2328 1216 2328 1186Q2328 1167 2318.5 1150.0Q2309 1133 2292 1124L2133 1033L2356 973Q2380 966 2396.0 947.0Q2412 928 2412 902Q2412 872 2389.5 849.5Q2367 827 2337 827Q2327 827 2317 830L1950 927L1783 832Q1793 805 1798.5 776.5Q1804 748 1804 719Q1804 690 1798.5 661.5Q1793 633 1783 606ZM1658 719Q1658 764 1641.0 803.0Q1624 842 1594.5 871.5Q1565 901 1525.5 918.0Q1486 935 1441 935Q1396 935 1356.5 918.0Q1317 901 1287.5 871.5Q1258 842 1241.0 803.0Q1224 764 1224 719Q1224 674 1241.0 635.0Q1258 596 1287.5 566.5Q1317 537 1356.5 520.0Q1396 503 1441 503Q1486 503 1525.5 520.0Q1565 537 1594.5 566.5Q1624 596 1641.0 635.0Q1658 674 1658 719Z" style="fill:#00a6ed;stroke:none" transform="scale(1,-1) translate(0,-256)" /></svg>