<?xml version="1.0" encoding="utf-8" ?>
<svg baseProfile="full" height="256" version="1.1" width="256" xmlns="http://www.w3.org/2000/svg" xmlns:ev="http://www.w3.org/2001/xml-events" xmlns:xlink="http://www.w3.org/1999/xlink"><defs /><path d="M1520 1611Q1520 1587 1511.0 1566.5Q1502 1546 1486.5 1530.5Q1471 1515 1450.5 1506.0Q1430 1497 1406 1497Q1382 1497 1361.5 1506.0Q1341 1515 1325.5 1530.5Q1310 1546 1301.0 1566.5Q1292 1587 1292 1611Q1292 1635 1301.0 1655.5Q1310 1676 1325.5 1691.5Q1341 1707 1361.5 1716.0Q1382 1725 1406 1725Q1430 1725 1450.5 1716.0Q1471 1707 1486.5 1691.5Q1502 1676 1511.0 1655.5Q1520 1635 1520 1611ZM945 1078Q945 1054 936.0 1033.5Q927 1013 911.5 997.5Q896 982 875.5 973.0Q855 964 831 964Q807 964 786.5 973.0Q766 982 750.5 997.5Q735 1013 726.0 1033.5Q717 1054 717 1078Q717 1102 726.0 1122.5Q735 1143 750.5 1159.0Q766 1175 786.5 1184.0Q807 1193 831 1193Q855 1193 875.5 1184.0Q896 1175 911.5 1159.0Q927 1143 936.0 1122.5Q945 1102 945 1078ZM400 394Q400 409 410.5 420.0Q421 431 436 431H1225Q1240 431 1251.0 420.5Q1262 410 1262 394Q1262 388 1261 385Q1240 313 1198.0 255.0Q1156 197 1099.0 156.5Q1042 116 973.5 94.0Q905 72 831 72Q757 72 688.5 94.0Q620 116 563.0 156.5Q506 197 464.0 255.0Q422 313 401 385Q400 388 400 394ZM1550 394Q1550 409 1560.5 420.0Q1571 431 1586 431H2375Q2390 431 2401.0 420.5Q2412 410 2412 394Q2412 388 2411 385Q2390 313 2348.0 255.0Q2306 197 2249.0 156.5Q2192 116 2123.5 94.0Q2055 72 1981 72Q1907 72 1838.5 94.0Q1770 116 1713.0 156.5Q1656 197 1614.0 255.0Q1572 313 1551 385Q1550 388 1550 394ZM1938 -287Q1954 -287 1965.0 -276.0Q1976 -265 1976 -249Q1976 -236 1964 -222Q1912 -168 1846.0 -127.0Q1780 -86 1706.5 -57.5Q1633 -29 1556.0 -14.5Q1479 0 1406 0Q1332 0 1255.0 -14.5Q1178 -29 1105.0 -57.5Q1032 -86 966.0 -127.0Q900 -168 848 -222Q836 -236 836 -249Q836 -265 847.0 -276.0Q858 -287 874 -287ZM1981 964Q2005 964 2025.5 973.0Q2046 982 2061.5 997.5Q2077 1013 2086.0 1033.5Q2095 1054 2095 1078Q2095 1102 2086.0 1122.5Q2077 1143 2061.5 1159.0Q2046 1175 2025.5 1184.0Q2005 1193 1981 1193Q1957 1193 1936.5 1184.0Q1916 1175 1900.5 1159.0Q1885 1143 1876.0 1122.5Q1867 1102 1867 1078Q1867 1054 1876.0 1033.5Q1885 1013 1900.5 997.5Q1916 982 1936.5 973.0Q1957 964 1981 964Z" style="fill:#f9c23c;stroke:none" transform="scale(1,-1) translate(0,-256)" /></svg>