<?xml version="1.0" encoding="utf-8" ?>
<svg baseProfile="full" height="256" version="1.1" width="256" xmlns="http://www.w3.org/2000/svg" xmlns:ev="http://www.w3.org/2001/xml-events" xmlns:xlink="http://www.w3.org/1999/xlink"><defs /><path d="M1352 1581H1460V-144H1352ZM1223 362Q1237 362 1247.0 373.0Q1257 384 1257 398Q1257 409 1251 418L865 1017Q857 1028 852.0 1035.0Q847 1042 831 1042Q826 1042 814.0 1035.0Q802 1028 799 1023L411 421Q407 415 405.0 410.5Q403 406 403 398Q403 383 413.5 372.5Q424 362 439 362Q457 362 469 379L795 885V374Q795 359 805.5 348.5Q816 338 831 338Q846 338 856.5 348.5Q867 359 867 374V885L1193 379Q1203 362 1223 362ZM2373 362Q2387 362 2397.0 373.0Q2407 384 2407 398Q2407 409 2401 418L2015 1017Q2007 1028 2002.0 1035.0Q1997 1042 1981 1042Q1973 1042 1963.5 1036.0Q1954 1030 1949 1023L1561 421Q1557 415 1555.0 410.5Q1553 406 1553 398Q1553 383 1563.5 372.5Q1574 362 1589 362Q1607 362 1619 379L1945 885V374Q1945 359 1955.5 348.5Q1966 338 1981 338Q1996 338 2006.5 348.5Q2017 359 2017 374V885L2343 379Q2353 362 2373 362Z" style="fill:#d3d3d3;stroke:none" transform="scale(1,-1) translate(0,-256)" /></svg>