<?xml version="1.0" encoding="utf-8" ?>
<svg baseProfile="full" height="256" version="1.1" width="256" xmlns="http://www.w3.org/2000/svg" xmlns:ev="http://www.w3.org/2001/xml-events" xmlns:xlink="http://www.w3.org/1999/xlink"><defs /><path d="M1821 893Q1855 905 1890.0 913.5Q1925 922 1961 922Q1998 922 2033.0 909.5Q2068 897 2095.5 874.5Q2123 852 2139.5 819.5Q2156 787 2156 748Q2156 677 2114.5 631.5Q2073 586 2007 567Q2027 542 2043.5 506.5Q2060 471 2060 439Q2060 402 2046.5 370.5Q2033 339 2009.5 315.5Q1986 292 1954.0 278.5Q1922 265 1886 265Q1850 265 1820.0 276.0Q1790 287 1764.0 306.0Q1738 325 1715.5 349.5Q1693 374 1673 401Q1672 401 1669 398Q1699 358 1722.0 311.5Q1745 265 1745 214Q1745 176 1732.5 143.0Q1720 110 1697.5 86.0Q1675 62 1643.5 48.0Q1612 34 1573 34Q1520 34 1480.5 59.0Q1441 84 1412 127Q1383 82 1343.0 56.5Q1303 31 1249 31Q1210 31 1178.0 45.0Q1146 59 1123.5 84.0Q1101 109 1089.0 141.5Q1077 174 1077 212Q1077 263 1099.5 308.5Q1122 354 1151 393Q1148 396 1147 396Q1129 368 1106.5 342.5Q1084 317 1057.5 297.5Q1031 278 1000.0 266.5Q969 255 933 255Q897 255 865.5 268.5Q834 282 810.5 305.5Q787 329 773.5 361.0Q760 393 760 429Q760 461 775.0 496.0Q790 531 810 556Q744 573 701.0 619.0Q658 665 658 737Q658 776 674.5 808.0Q691 840 718.5 863.0Q746 886 781.0 898.5Q816 911 853 911Q888 911 922.0 903.0Q956 895 989 884L990 889Q950 901 911.5 919.0Q873 937 842.5 963.0Q812 989 793.5 1025.0Q775 1061 775 1108Q775 1142 789.0 1172.5Q803 1203 826.5 1226.0Q850 1249 880.5 1262.5Q911 1276 945 1276Q966 1276 989.0 1272.5Q1012 1269 1032 1261V1272Q1032 1306 1040.5 1342.5Q1049 1379 1073 1405Q1099 1433 1133.5 1451.0Q1168 1469 1206 1469Q1234 1469 1260.0 1459.5Q1286 1450 1308.5 1433.5Q1331 1417 1348.0 1395.0Q1365 1373 1376 1348Q1391 1311 1396.0 1270.0Q1401 1229 1400 1189H1404V1214Q1404 1249 1408.0 1283.0Q1412 1317 1424 1349Q1434 1375 1451.0 1397.5Q1468 1420 1490.5 1437.0Q1513 1454 1539.5 1463.5Q1566 1473 1594 1473Q1636 1473 1669.5 1456.0Q1703 1439 1726.0 1410.5Q1749 1382 1760.0 1345.0Q1771 1308 1770 1268Q1790 1276 1814.5 1280.5Q1839 1285 1861 1285Q1894 1285 1925.0 1271.0Q1956 1257 1979.5 1234.0Q2003 1211 2017.0 1180.5Q2031 1150 2031 1116Q2031 1070 2012.5 1034.5Q1994 999 1964.0 972.5Q1934 946 1896.0 927.5Q1858 909 1819 897Z" style="fill:#ffb02e;stroke:none" transform="scale(1,-1) translate(0,-256)" /></svg>