<?xml version="1.0" encoding="utf-8" ?>
<svg baseProfile="full" height="256" version="1.1" width="256" xmlns="http://www.w3.org/2000/svg" xmlns:ev="http://www.w3.org/2001/xml-events" xmlns:xlink="http://www.w3.org/1999/xlink"><defs /><path d="M1406 635Q1382 635 1360.5 644.0Q1339 653 1323.0 669.0Q1307 685 1298.0 706.5Q1289 728 1289 752Q1289 776 1298.0 797.5Q1307 819 1323.0 835.0Q1339 851 1360.5 860.0Q1382 869 1406 869Q1430 869 1451.5 860.0Q1473 851 1489.0 835.0Q1505 819 1514.0 797.5Q1523 776 1523 752Q1523 728 1514.0 706.5Q1505 685 1489.0 669.0Q1473 653 1451.5 644.0Q1430 635 1406 635Z" style="fill:#f4f4f4;stroke:none" transform="scale(1,-1) translate(0,-256)" /></svg>