<?xml version="1.0" encoding="utf-8" ?>
<svg baseProfile="full" height="256" version="1.1" width="256" xmlns="http://www.w3.org/2000/svg" xmlns:ev="http://www.w3.org/2001/xml-events" xmlns:xlink="http://www.w3.org/1999/xlink"><defs /><path d="M1609 1725Q1694 1725 1762.0 1685.0Q1830 1645 1875 1574Q1910 1520 1953.5 1486.0Q1997 1452 2057 1430Q2105 1412 2144.0 1382.5Q2183 1353 2210.5 1314.0Q2238 1275 2253.5 1228.0Q2269 1181 2269 1130Q2269 1079 2254.5 1035.5Q2240 992 2212 950Q2195 923 2185.5 894.0Q2176 865 2176 833Q2176 802 2173.5 772.0Q2171 742 2171 711Q2171 692 2175.0 670.5Q2179 649 2179 639V289Q2179 245 2166.5 203.5Q2154 162 2130.5 126.5Q2107 91 2073.5 63.0Q2040 35 1999 18H813Q772 35 738.5 63.0Q705 91 681.5 126.5Q658 162 645.5 203.5Q633 245 633 289Q633 426 634.0 561.0Q635 696 635 833Q635 875 620.5 906.0Q606 937 589.0 969.0Q572 1001 557.5 1038.5Q543 1076 543 1131Q543 1182 558.0 1228.5Q573 1275 601.0 1313.5Q629 1352 668.0 1381.5Q707 1411 754 1429Q816 1452 859.5 1487.5Q903 1523 939 1578Q984 1647 1052.5 1686.0Q1121 1725 1204 1725Q1235 1725 1261.0 1718.5Q1287 1712 1310.5 1704.0Q1334 1696 1357.5 1689.5Q1381 1683 1407 1683Q1433 1683 1456.0 1689.5Q1479 1696 1502.5 1704.0Q1526 1712 1551.5 1718.5Q1577 1725 1609 1725Z" style="fill:#e96a3c;stroke:none" transform="scale(1,-1) translate(0,-256)" /></svg>