<?xml version="1.0" encoding="utf-8" ?>
<svg baseProfile="full" height="256" version="1.1" width="256" xmlns="http://www.w3.org/2000/svg" xmlns:ev="http://www.w3.org/2001/xml-events" xmlns:xlink="http://www.w3.org/1999/xlink"><defs /><path d="M1925 152Q1930 152 1944.0 153.0Q1958 154 1972.5 154.0Q1987 154 1998.5 152.0Q2010 150 2010 145Q2010 119 1998.5 95.5Q1987 72 1968.5 54.5Q1950 37 1925.5 26.5Q1901 16 1876 15Q1900 3 1920.0 -19.0Q1940 -41 1959 -60L1961 -65Q1961 -68 1959 -70Q1920 -106 1866 -106Q1835 -106 1811.0 -94.5Q1787 -83 1766 -61L1618 -287H1197L1043 -66Q1001 -108 945 -108Q919 -108 895.5 -99.0Q872 -90 853 -73L851 -68Q851 -65 861.5 -53.5Q872 -42 886.0 -28.5Q900 -15 914.0 -3.0Q928 9 936 13Q910 13 886.0 23.5Q862 34 843.5 52.0Q825 70 813.5 93.5Q802 117 802 143Q802 150 809 150H887Q913 150 934.5 139.5Q956 129 971.0 112.0Q986 95 994.5 72.5Q1003 50 1003 25L1015 23Q1024 51 1048.5 65.0Q1073 79 1101 79L1705 86Q1735 86 1761.0 70.5Q1787 55 1795 24L1809 27Q1809 52 1817.5 74.5Q1826 97 1841.0 114.5Q1856 132 1877.5 142.0Q1899 152 1925 152Z" style="fill:#44911b;stroke:none" transform="scale(1,-1) translate(0,-256)" /></svg>