<?xml version="1.0" encoding="utf-8" ?>
<svg baseProfile="full" height="256" version="1.1" width="256" xmlns="http://www.w3.org/2000/svg" xmlns:ev="http://www.w3.org/2001/xml-events" xmlns:xlink="http://www.w3.org/1999/xlink"><defs /><path d="M934 447Q967 447 987.5 422.5Q1008 398 1006 366Q1019 371 1031 371Q1051 371 1070 360V359Q1084 350 1093.0 335.5Q1102 321 1104 304Q1112 310 1122.0 312.5Q1132 315 1143 315Q1166 315 1185.5 301.0Q1205 287 1212 264Q1232 284 1262 284Q1282 284 1300.0 273.5Q1318 263 1327 245Q1336 259 1351.5 268.0Q1367 277 1384 277Q1394 277 1405 274Q1411 277 1418.0 277.5Q1425 278 1432 278Q1437 278 1440.5 277.5Q1444 277 1448 276Q1459 280 1472 280Q1486 280 1498.5 275.5Q1511 271 1521 261Q1536 286 1566 292V293Q1576 295 1581 295Q1603 295 1620 283Q1625 297 1635.5 306.5Q1646 316 1659 322H1660Q1672 328 1686 328Q1700 328 1714 322Q1720 351 1745.5 367.0Q1771 383 1800 377Q1800 406 1821.5 426.5Q1843 447 1872 447Q1902 447 1923.0 426.0Q1944 405 1944 375Q1944 358 1936.5 343.5Q1929 329 1917.0 319.5Q1905 310 1889.0 305.5Q1873 301 1857 305Q1856 288 1847.5 272.0Q1839 256 1824 247V246Q1805 235 1785 235Q1772 235 1757 240Q1754 223 1742.5 209.5Q1731 196 1715 189H1714Q1699 184 1687 184Q1667 184 1648 195Q1639 175 1621.5 162.5Q1604 150 1581 150Q1553 150 1532 169Q1523 155 1507.0 145.5Q1491 136 1474 136Q1463 136 1453 139Q1447 136 1440.0 135.5Q1433 135 1426 135Q1416 135 1411 137Q1405 135 1399.0 134.0Q1393 133 1386 133Q1366 133 1349.0 143.5Q1332 154 1322 171Q1312 157 1296.0 148.5Q1280 140 1263 140Q1239 140 1219.5 154.5Q1200 169 1193 192Q1172 171 1143 171Q1131 171 1118 176L1117 177Q1098 185 1085.5 201.5Q1073 218 1071 238Q1053 226 1032 226Q1015 226 1001.5 232.5Q988 239 978.0 250.5Q968 262 963.0 276.5Q958 291 960 307Q949 303 935 303Q905 303 883.5 323.5Q862 344 862 375Q862 405 882.5 426.0Q903 447 934 447Z" style="fill:#d3d3d3;stroke:none" transform="scale(1,-1) translate(0,-256)" /></svg>