<?xml version="1.0" encoding="utf-8" ?>
<svg baseProfile="full" height="256" version="1.1" width="256" xmlns="http://www.w3.org/2000/svg" xmlns:ev="http://www.w3.org/2001/xml-events" xmlns:xlink="http://www.w3.org/1999/xlink"><defs /><path d="M1180 1122Q1180 1149 1199.5 1168.5Q1219 1188 1246 1188Q1274 1188 1292.5 1168.5Q1311 1149 1311 1122Q1311 1117 1310.5 1113.5Q1310 1110 1309 1105H1182Q1181 1110 1180.5 1113.5Q1180 1117 1180 1122ZM1632 1122Q1632 1149 1613.0 1168.5Q1594 1188 1567 1188Q1540 1188 1521.0 1168.5Q1502 1149 1502 1122Q1502 1117 1502.0 1113.5Q1502 1110 1504 1105H1630Q1632 1110 1632.0 1113.5Q1632 1117 1632 1122Z" style="fill:#7d4533;stroke:none" transform="scale(1,-1) translate(0,-256)" /></svg>