<?xml version="1.0" encoding="utf-8" ?>
<svg baseProfile="full" height="256" version="1.1" width="256" xmlns="http://www.w3.org/2000/svg" xmlns:ev="http://www.w3.org/2001/xml-events" xmlns:xlink="http://www.w3.org/1999/xlink"><defs /><path d="M1267 55 1072 -25Q1060 3 1048.0 30.5Q1036 58 1025.5 85.5Q1015 113 1008.5 142.0Q1002 171 1002 202Q1002 213 1004.0 235.0Q1006 257 1011.5 278.5Q1017 300 1026.5 316.5Q1036 333 1050 333Q1054 333 1060 331Q1108 312 1139.5 283.0Q1171 254 1193.0 218.0Q1215 182 1232.0 140.5Q1249 99 1267 55ZM1566 48 1761 -32Q1772 -4 1784.5 23.5Q1797 51 1807.0 79.0Q1817 107 1823.5 136.0Q1830 165 1830 196Q1830 206 1828.0 227.5Q1826 249 1821.0 271.0Q1816 293 1807.0 309.0Q1798 325 1784 325Q1779 325 1773 323Q1724 303 1692.5 274.5Q1661 246 1639.5 211.0Q1618 176 1601.5 134.5Q1585 93 1566 48Z" style="fill:#f70a8d;stroke:none" transform="scale(1,-1) translate(0,-256)" /></svg>