<?xml version="1.0" encoding="utf-8" ?>
<svg baseProfile="full" height="256" version="1.1" width="256" xmlns="http://www.w3.org/2000/svg" xmlns:ev="http://www.w3.org/2001/xml-events" xmlns:xlink="http://www.w3.org/1999/xlink"><defs /><path d="M1517 1725Q1563 1725 1601.0 1703.0Q1639 1681 1663 1643Q1698 1588 1762 1565Q1815 1546 1846.5 1503.5Q1878 1461 1878 1404Q1878 1374 1870.0 1353.0Q1862 1332 1852.0 1314.5Q1842 1297 1834.0 1280.0Q1826 1263 1826 1242V942Q1826 892 1797.0 851.0Q1768 810 1721 794L1585 748V1282Q1564 1305 1552.0 1328.5Q1540 1352 1536 1384Q1501 1378 1466.0 1389.5Q1431 1401 1405 1423Q1382 1403 1353.5 1392.5Q1325 1382 1295 1382Q1290 1382 1284.5 1382.5Q1279 1383 1274 1384Q1272 1355 1259.0 1328.5Q1246 1302 1226 1282V748L1090 795Q1042 812 1013.0 852.0Q984 892 984 943V1243Q984 1265 976.0 1282.5Q968 1300 959.0 1317.5Q950 1335 942.0 1355.0Q934 1375 934 1404Q934 1460 965.5 1503.0Q997 1546 1049 1565Q1113 1589 1150 1645Q1175 1683 1212.0 1704.0Q1249 1725 1295 1725Q1310 1725 1324.0 1721.5Q1338 1718 1351.5 1713.5Q1365 1709 1378.5 1705.5Q1392 1702 1406 1702Q1420 1702 1433.0 1705.5Q1446 1709 1459.5 1713.5Q1473 1718 1487.0 1721.5Q1501 1725 1517 1725Z" style="fill:#f1a11e;stroke:none" transform="scale(1,-1) translate(0,-256)" /></svg>