<?xml version="1.0" encoding="utf-8" ?>
<svg baseProfile="full" height="256" version="1.1" width="256" xmlns="http://www.w3.org/2000/svg" xmlns:ev="http://www.w3.org/2001/xml-events" xmlns:xlink="http://www.w3.org/1999/xlink"><defs /><path d="M2197 -287H615V647Q615 744 625.5 844.0Q636 944 661.5 1041.0Q687 1138 728.5 1228.5Q770 1319 832 1397Q841 1409 853.0 1422.5Q865 1436 878.0 1449.5Q891 1463 905.0 1475.0Q919 1487 932 1496L1406 1029L1880 1496Q1893 1487 1907.0 1475.0Q1921 1463 1934.0 1449.5Q1947 1436 1959.0 1422.5Q1971 1409 1980 1397Q2042 1319 2083.5 1228.5Q2125 1138 2150.5 1041.0Q2176 944 2186.5 844.0Q2197 744 2197 647Z" style="fill:#e6e6e6;stroke:none" transform="scale(1,-1) translate(0,-256)" /></svg>