<?xml version="1.0" encoding="utf-8" ?>
<svg baseProfile="full" height="256" version="1.1" width="256" xmlns="http://www.w3.org/2000/svg" xmlns:ev="http://www.w3.org/2001/xml-events" xmlns:xlink="http://www.w3.org/1999/xlink"><defs /><path d="M867 252Q867 267 881.5 271.0Q896 275 907 275Q935 275 962.0 262.5Q989 250 1013.5 230.5Q1038 211 1059.5 188.5Q1081 166 1098 147Q1103 140 1111 140Q1119 140 1121.5 145.5Q1124 151 1124 157Q1124 173 1121.5 189.0Q1119 205 1119 221Q1119 239 1122.0 266.0Q1125 293 1133.0 319.5Q1141 346 1155.0 367.0Q1169 388 1191 394Q1192 394 1193.5 394.5Q1195 395 1196 395Q1203 395 1209.0 390.5Q1215 386 1217 380L1267 262Q1279 233 1288.5 201.5Q1298 170 1298 138Q1298 99 1282.5 67.0Q1267 35 1241.0 11.5Q1215 -12 1181.0 -24.5Q1147 -37 1110 -37Q1074 -37 1045.0 -24.0Q1016 -11 993.0 11.0Q970 33 952.5 61.0Q935 89 922 119Q919 126 910.0 146.0Q901 166 891.5 188.0Q882 210 874.5 228.5Q867 247 867 252ZM1945 245Q1945 240 1937.5 221.5Q1930 203 1920.5 181.0Q1911 159 1902.0 139.0Q1893 119 1890 112Q1877 82 1859.5 54.0Q1842 26 1818.5 4.0Q1795 -18 1766.0 -31.0Q1737 -44 1702 -44Q1664 -44 1630.0 -31.5Q1596 -19 1570.5 4.5Q1545 28 1529.5 60.0Q1514 92 1514 131Q1514 162 1523.0 193.5Q1532 225 1544 254L1595 373Q1597 379 1602.5 383.5Q1608 388 1615 388Q1617 388 1618.0 387.5Q1619 387 1620 387Q1642 380 1656.0 359.5Q1670 339 1678.5 313.0Q1687 287 1690.0 260.0Q1693 233 1693 214Q1693 197 1690.5 179.0Q1688 161 1688 144Q1688 139 1691.5 136.0Q1695 133 1700 133Q1707 133 1714 140Q1731 159 1752.5 181.5Q1774 204 1798.5 223.5Q1823 243 1849.5 255.5Q1876 268 1905 268Q1916 268 1930.5 264.0Q1945 260 1945 245Z" style="fill:#ff6dc6;stroke:none" transform="scale(1,-1) translate(0,-256)" /></svg>