<?xml version="1.0" encoding="utf-8" ?>
<svg baseProfile="full" height="256" version="1.1" width="256" xmlns="http://www.w3.org/2000/svg" xmlns:ev="http://www.w3.org/2001/xml-events" xmlns:xlink="http://www.w3.org/1999/xlink"><defs /><path d="M901 393Q1003 479 1130 526Q1153 534 1176.5 540.0Q1200 546 1223 554Q1239 559 1248.5 569.0Q1258 579 1258 597V810Q1258 840 1269.5 866.5Q1281 893 1300.5 913.5Q1320 934 1346.5 946.0Q1373 958 1403 958Q1434 958 1462.0 946.0Q1490 934 1510.0 914.0Q1530 894 1542.0 866.0Q1554 838 1554 807V597Q1554 579 1564.0 569.0Q1574 559 1589 554Q1612 546 1635.5 540.0Q1659 534 1682 525Q1799 481 1897 404Q1849 355 1789.5 319.5Q1730 284 1664.5 261.0Q1599 238 1530.0 227.0Q1461 216 1394 216Q1329 216 1261.5 226.5Q1194 237 1130.0 258.5Q1066 280 1007.5 313.5Q949 347 901 393Z" style="fill:#fcb100;stroke:none" transform="scale(1,-1) translate(0,-256)" /></svg>