<?xml version="1.0" encoding="utf-8" ?>
<svg baseProfile="full" height="256" version="1.1" width="256" xmlns="http://www.w3.org/2000/svg" xmlns:ev="http://www.w3.org/2001/xml-events" xmlns:xlink="http://www.w3.org/1999/xlink"><defs /><path d="M2197 -287H615V-215Q615 -126 634.5 -40.5Q654 45 691.0 123.0Q728 201 781.5 270.0Q835 339 904 395Q945 341 997.0 298.5Q1049 256 1108.0 227.0Q1167 198 1232.0 182.5Q1297 167 1365 167H1406H1448Q1515 167 1580.0 182.5Q1645 198 1704.5 227.5Q1764 257 1815.5 299.0Q1867 341 1908 395Q1976 339 2030.0 269.5Q2084 200 2121.0 122.0Q2158 44 2177.5 -41.5Q2197 -127 2197 -215Z" style="fill:#f4f4f4;stroke:none" transform="scale(1,-1) translate(0,-256)" /></svg>