<?xml version="1.0" encoding="utf-8" ?>
<svg baseProfile="full" height="256" version="1.1" width="256" xmlns="http://www.w3.org/2000/svg" xmlns:ev="http://www.w3.org/2001/xml-events" xmlns:xlink="http://www.w3.org/1999/xlink"><defs /><path d="M902 1344Q879 1344 864.0 1360.0Q849 1376 849 1398Q849 1409 852.0 1416.0Q855 1423 860 1431Q864 1438 873.5 1448.0Q883 1458 893.5 1467.5Q904 1477 914.0 1485.5Q924 1494 931 1499Q1032 1580 1155.0 1616.5Q1278 1653 1406 1653Q1534 1653 1657.0 1616.5Q1780 1580 1881 1499Q1888 1493 1898.0 1484.5Q1908 1476 1918.0 1466.5Q1928 1457 1937.0 1447.5Q1946 1438 1951 1431Q1957 1422 1960.0 1415.0Q1963 1408 1963 1397Q1963 1375 1947.0 1359.5Q1931 1344 1909 1344Q1895 1344 1886.0 1349.0Q1877 1354 1867 1364Q1773 1460 1656.0 1503.0Q1539 1546 1406 1546Q1273 1546 1155.5 1503.5Q1038 1461 944 1364Q934 1354 925.0 1349.0Q916 1344 902 1344Z" style="fill:#d3d3d3;stroke:none" transform="scale(1,-1) translate(0,-256)" /></svg>