<?xml version="1.0" encoding="utf-8" ?>
<svg baseProfile="full" height="256" version="1.1" width="256" xmlns="http://www.w3.org/2000/svg" xmlns:ev="http://www.w3.org/2001/xml-events" xmlns:xlink="http://www.w3.org/1999/xlink"><defs /><path d="M1118 324Q1118 302 1109.5 282.5Q1101 263 1087.0 248.0Q1073 233 1053.0 224.5Q1033 216 1011 216Q988 216 968.5 224.5Q949 233 934.5 247.5Q920 262 911.5 281.5Q903 301 903 324Q903 346 911.5 366.0Q920 386 935.0 400.0Q950 414 969.5 422.5Q989 431 1011 431Q1033 431 1052.5 422.5Q1072 414 1086.5 399.5Q1101 385 1109.5 365.5Q1118 346 1118 324ZM1909 324Q1909 301 1900.5 281.5Q1892 262 1877.5 247.5Q1863 233 1843.0 224.5Q1823 216 1801 216Q1779 216 1759.5 224.5Q1740 233 1725.0 248.0Q1710 263 1701.5 282.5Q1693 302 1693 324Q1693 346 1701.5 365.5Q1710 385 1725.0 399.5Q1740 414 1759.5 422.5Q1779 431 1801 431Q1823 431 1842.5 422.5Q1862 414 1877.0 400.0Q1892 386 1900.5 366.0Q1909 346 1909 324Z" style="fill:#ffb02e;stroke:none" transform="scale(1,-1) translate(0,-256)" /></svg>