<?xml version="1.0" encoding="utf-8" ?>
<svg baseProfile="full" height="256" version="1.1" width="256" xmlns="http://www.w3.org/2000/svg" xmlns:ev="http://www.w3.org/2001/xml-events" xmlns:xlink="http://www.w3.org/1999/xlink"><defs /><path d="M831 360V288Q831 258 810.0 237.0Q789 216 759 216H615V340Q615 363 620.0 386.0Q625 409 633 431H759Q788 431 809.5 410.0Q831 389 831 360ZM1981 360Q1981 389 2002.5 410.0Q2024 431 2053 431H2179Q2187 409 2192.0 386.0Q2197 363 2197 340V216H2053Q2023 216 2002.0 237.0Q1981 258 1981 288Z" style="fill:#e6e6e6;stroke:none" transform="scale(1,-1) translate(0,-256)" /></svg>