<?xml version="1.0" encoding="utf-8" ?>
<svg baseProfile="full" height="256" version="1.1" width="256" xmlns="http://www.w3.org/2000/svg" xmlns:ev="http://www.w3.org/2001/xml-events" xmlns:xlink="http://www.w3.org/1999/xlink"><defs /><path d="M1658 1150Q1734 1150 1792.5 1111.0Q1851 1072 1886 1006H922Q957 1072 1017.5 1111.0Q1078 1150 1154 1150ZM762 575H2050Q2084 558 2111.0 533.5Q2138 509 2157.0 478.5Q2176 448 2186.5 412.5Q2197 377 2197 340V144H615V340Q615 377 625.5 412.5Q636 448 655.0 478.5Q674 509 701.0 533.5Q728 558 762 575Z" style="fill:#f8312f;stroke:none" transform="scale(1,-1) translate(0,-256)" /></svg>