<?xml version="1.0" encoding="utf-8" ?>
<svg baseProfile="full" height="256" version="1.1" width="256" xmlns="http://www.w3.org/2000/svg" xmlns:ev="http://www.w3.org/2001/xml-events" xmlns:xlink="http://www.w3.org/1999/xlink"><defs /><path d="M1410 671Q1410 651 1392.5 635.0Q1375 619 1350.5 607.5Q1326 596 1300.5 590.0Q1275 584 1259 584Q1245 584 1220.5 589.5Q1196 595 1173.0 605.0Q1150 615 1133.0 629.5Q1116 644 1116 662Q1116 677 1126.5 687.5Q1137 698 1152 698Q1161 698 1170.5 691.5Q1180 685 1192.0 677.0Q1204 669 1220.0 662.5Q1236 656 1258 656Q1282 656 1299.5 664.0Q1317 672 1330.0 681.5Q1343 691 1353.5 699.0Q1364 707 1374 707Q1388 707 1399.0 696.0Q1410 685 1410 671Z" style="fill:#000000;stroke:none" transform="scale(1,-1) translate(0,-256)" /></svg>