<?xml version="1.0" encoding="utf-8" ?>
<svg baseProfile="full" height="256" version="1.1" width="256" xmlns="http://www.w3.org/2000/svg" xmlns:ev="http://www.w3.org/2001/xml-events" xmlns:xlink="http://www.w3.org/1999/xlink"><defs /><path d="M1080 862Q1064 862 1053.0 873.0Q1042 884 1042 900Q1042 917 1056.0 930.5Q1070 944 1092.0 954.5Q1114 965 1141.0 973.0Q1168 981 1194.0 986.0Q1220 991 1242.0 993.5Q1264 996 1277 996Q1288 996 1300.5 995.0Q1313 994 1323.5 990.0Q1334 986 1341.0 978.0Q1348 970 1348 955Q1348 937 1340.0 929.0Q1332 921 1320.0 919.0Q1308 917 1294.0 918.0Q1280 919 1269 919Q1178 919 1103 870Q1092 862 1080 862Z" style="fill:#00a6ed;stroke:none" transform="scale(1,-1) translate(0,-256)" /></svg>