<?xml version="1.0" encoding="utf-8" ?>
<svg baseProfile="full" height="256" version="1.1" width="256" xmlns="http://www.w3.org/2000/svg" xmlns:ev="http://www.w3.org/2001/xml-events" xmlns:xlink="http://www.w3.org/1999/xlink"><defs /><path d="M1183 1725Q1262 1725 1318.5 1710.5Q1375 1696 1410.5 1662.5Q1446 1629 1462.5 1574.0Q1479 1519 1479 1438Q1479 1357 1460.5 1308.0Q1442 1259 1411.5 1231.0Q1381 1203 1340.0 1190.0Q1299 1177 1254.0 1167.5Q1209 1158 1162.5 1147.0Q1116 1136 1074.0 1111.5Q1032 1087 996.5 1044.5Q961 1002 939 929Q927 889 920.0 846.5Q913 804 909.5 761.5Q906 719 904.5 676.0Q903 633 901 591Q896 506 889.5 408.0Q883 310 865.5 212.0Q848 114 817.0 23.5Q786 -67 731.5 -136.0Q677 -205 596.5 -246.5Q516 -288 400 -287V1725Q436 1723 471.5 1723.5Q507 1724 543 1724Q704 1724 863.0 1724.5Q1022 1725 1183 1725Z" style="fill:#00a6ed;stroke:none" transform="scale(1,-1) translate(0,-256)" /></svg>