<?xml version="1.0" encoding="utf-8" ?>
<svg baseProfile="full" height="256" version="1.1" width="256" xmlns="http://www.w3.org/2000/svg" xmlns:ev="http://www.w3.org/2001/xml-events" xmlns:xlink="http://www.w3.org/1999/xlink"><defs /><path d="M2412 877Q2412 832 2393.5 790.5Q2375 749 2342 719L2108 504Q2083 481 2069.5 450.0Q2056 419 2056 386Q2056 372 2059 357L2116 41Q2118 31 2119.0 21.0Q2120 11 2120 1Q2120 -44 2102.5 -83.0Q2085 -122 2055.0 -151.5Q2025 -181 1985.5 -198.0Q1946 -215 1902 -215Q1850 -215 1804 -192L1478 -30Q1446 -14 1406 -14Q1366 -14 1334 -30L1008 -192Q962 -215 910 -215Q866 -215 826.5 -198.0Q787 -181 757.0 -151.5Q727 -122 709.5 -83.0Q692 -44 692 1Q692 11 693.0 21.0Q694 31 696 41L753 357Q756 372 756 386Q756 420 742.0 450.5Q728 481 703 504L470 719Q437 749 418.5 790.5Q400 832 400 877Q400 918 414.0 955.0Q428 992 453.0 1021.0Q478 1050 512.5 1069.0Q547 1088 588 1094L929 1141Q970 1146 1000.5 1168.5Q1031 1191 1050 1227L1212 1536Q1241 1591 1292.5 1622.0Q1344 1653 1406 1653Q1468 1653 1519.5 1622.0Q1571 1591 1600 1536L1762 1227Q1780 1192 1812.0 1169.0Q1844 1146 1883 1141L2224 1094Q2265 1088 2299.5 1069.0Q2334 1050 2359.0 1021.0Q2384 992 2398.0 955.0Q2412 918 2412 877Z" style="fill:#fcd53f;stroke:none" transform="scale(1,-1) translate(0,-256)" /></svg>