<?xml version="1.0" encoding="utf-8" ?>
<svg baseProfile="full" height="256" version="1.1" width="256" xmlns="http://www.w3.org/2000/svg" xmlns:ev="http://www.w3.org/2001/xml-events" xmlns:xlink="http://www.w3.org/1999/xlink"><defs /><path d="M1046 1468Q1036 1409 1005.5 1363.5Q975 1318 931.0 1286.5Q887 1255 833.5 1238.5Q780 1222 723 1222Q708 1222 697.5 1232.5Q687 1243 687 1258Q687 1273 697.5 1283.5Q708 1294 723 1294Q759 1294 798.5 1304.5Q838 1315 870 1332Q917 1358 940.5 1393.5Q964 1429 975 1480Q978 1494 987.5 1501.5Q997 1509 1011 1509Q1026 1509 1036.0 1498.5Q1046 1488 1046 1473ZM1262 791Q1262 761 1250.5 734.5Q1239 708 1219.5 688.5Q1200 669 1174.0 658.0Q1148 647 1118 647Q1088 647 1062.0 658.5Q1036 670 1016.5 689.5Q997 709 986.0 735.0Q975 761 975 791Q975 821 986.0 847.0Q997 873 1016.5 892.5Q1036 912 1062.0 923.5Q1088 935 1118 935Q1148 935 1174.0 923.5Q1200 912 1219.5 892.5Q1239 873 1250.5 847.0Q1262 821 1262 791ZM1837 791Q1837 761 1825.5 734.5Q1814 708 1794.5 688.5Q1775 669 1749.0 658.0Q1723 647 1693 647Q1663 647 1637.0 658.5Q1611 670 1591.5 689.5Q1572 709 1561.0 735.0Q1550 761 1550 791Q1550 821 1561.0 847.0Q1572 873 1591.5 892.5Q1611 912 1637.0 923.5Q1663 935 1693 935Q1723 935 1749.0 923.5Q1775 912 1794.5 892.5Q1814 873 1825.5 847.0Q1837 821 1837 791ZM1766 1473Q1766 1488 1776.0 1498.5Q1786 1509 1801 1509Q1815 1509 1824.5 1501.0Q1834 1493 1837 1480Q1850 1429 1872.0 1394.0Q1894 1359 1942 1332Q1974 1315 2013.5 1304.5Q2053 1294 2089 1294Q2104 1294 2114.5 1283.5Q2125 1273 2125 1258Q2125 1243 2114.5 1232.5Q2104 1222 2089 1222Q2034 1222 1979.5 1238.5Q1925 1255 1880.5 1286.5Q1836 1318 1805.0 1364.0Q1774 1410 1766 1468ZM1406 144Q1376 144 1343.5 138.0Q1311 132 1280.5 119.5Q1250 107 1224.5 87.5Q1199 68 1183 40Q1161 0 1119 0Q1089 0 1067.5 21.5Q1046 43 1046 72Q1046 88 1054 104Q1075 150 1115.0 184.5Q1155 219 1204.0 242.0Q1253 265 1306.0 276.5Q1359 288 1406 288Q1492 288 1573.0 258.0Q1654 228 1714 165Q1726 152 1738.0 136.0Q1750 120 1758 104Q1765 90 1765 73Q1765 43 1744.0 21.5Q1723 0 1693 0Q1651 0 1629 40Q1613 68 1587.5 87.5Q1562 107 1531.5 119.5Q1501 132 1468.5 138.0Q1436 144 1406 144Z" style="fill:#402a32;stroke:none" transform="scale(1,-1) translate(0,-256)" /></svg>