<?xml version="1.0" encoding="utf-8" ?>
<svg baseProfile="full" height="256" version="1.1" width="256" xmlns="http://www.w3.org/2000/svg" xmlns:ev="http://www.w3.org/2001/xml-events" xmlns:xlink="http://www.w3.org/1999/xlink"><defs /><path d="M950 667Q980 645 1020 643Q1023 588 1026.5 538.0Q1030 488 1054 438Q1006 458 978.0 501.0Q950 544 950 595ZM1844 667Q1828 656 1810.5 650.0Q1793 644 1774 643Q1772 613 1771.0 587.5Q1770 562 1767.0 537.5Q1764 513 1758.0 489.0Q1752 465 1740 438Q1788 458 1816.0 501.0Q1844 544 1844 595Z" style="fill:#f1a11e;stroke:none" transform="scale(1,-1) translate(0,-256)" /></svg>