<?xml version="1.0" encoding="utf-8" ?>
<svg baseProfile="full" height="256" version="1.1" width="256" xmlns="http://www.w3.org/2000/svg" xmlns:ev="http://www.w3.org/2001/xml-events" xmlns:xlink="http://www.w3.org/1999/xlink"><defs /><path d="M1397 516Q1415 516 1428.0 518.0Q1441 520 1452.5 523.5Q1464 527 1476.0 531.5Q1488 536 1504 541Q1505 541 1506.5 541.5Q1508 542 1510 542Q1515 542 1518.5 539.0Q1522 536 1522 531Q1522 529 1520 525Q1501 494 1467.0 476.5Q1433 459 1397 459Q1381 459 1362.5 463.5Q1344 468 1327.0 476.5Q1310 485 1295.5 497.5Q1281 510 1274 525Q1274 526 1273.0 528.0Q1272 530 1272 531Q1272 536 1275.5 539.0Q1279 542 1284 542Q1287 542 1289 541Q1340 516 1397 516Z" style="fill:#990839;stroke:none" transform="scale(1,-1) translate(0,-256)" /></svg>