<?xml version="1.0" encoding="utf-8" ?>
<svg baseProfile="full" height="256" version="1.1" width="256" xmlns="http://www.w3.org/2000/svg" xmlns:ev="http://www.w3.org/2001/xml-events" xmlns:xlink="http://www.w3.org/1999/xlink"><defs /><path d="M1147 761Q1147 735 1137.0 712.5Q1127 690 1110.0 673.0Q1093 656 1070.5 646.0Q1048 636 1022 636Q996 636 973.5 646.0Q951 656 934.0 673.0Q917 690 907.5 712.5Q898 735 898 761Q898 786 907.5 809.0Q917 832 934.0 849.0Q951 866 973.5 876.0Q996 886 1022 886Q1048 886 1070.5 876.0Q1093 866 1110.0 849.0Q1127 832 1137.0 809.5Q1147 787 1147 761ZM1896 761Q1896 735 1886.0 712.5Q1876 690 1859.0 673.0Q1842 656 1819.5 646.0Q1797 636 1771 636Q1745 636 1722.5 646.0Q1700 656 1683.0 673.0Q1666 690 1656.0 712.5Q1646 735 1646 761Q1646 787 1656.0 809.5Q1666 832 1683.0 849.0Q1700 866 1722.5 876.0Q1745 886 1771 886Q1797 886 1819.5 876.0Q1842 866 1859.0 849.0Q1876 832 1886.0 809.5Q1896 787 1896 761Z" style="fill:#fdbb11;stroke:none" transform="scale(1,-1) translate(0,-256)" /></svg>