<?xml version="1.0" encoding="utf-8" ?>
<svg baseProfile="full" height="256" version="1.1" width="256" xmlns="http://www.w3.org/2000/svg" xmlns:ev="http://www.w3.org/2001/xml-events" xmlns:xlink="http://www.w3.org/1999/xlink"><defs /><path d="M1896 1083Q1896 1053 1887.5 1028.0Q1879 1003 1863 978Q1854 963 1849.5 949.5Q1845 936 1843.5 922.5Q1842 909 1842.0 894.5Q1842 880 1842 863Q1820 878 1793 884Q1794 904 1795.5 923.5Q1797 943 1797 963Q1797 984 1788.5 1004.0Q1780 1024 1765.5 1039.5Q1751 1055 1731.5 1064.5Q1712 1074 1690 1074H1581Q1523 1074 1478.5 1104.5Q1434 1135 1410 1186Q1403 1201 1391.0 1210.0Q1379 1219 1362 1219H1263Q1209 1219 1162.0 1198.0Q1115 1177 1079.5 1141.5Q1044 1106 1024.0 1058.5Q1004 1011 1004 957V884Q975 879 951 863Q951 880 951.0 894.5Q951 909 949.5 922.5Q948 936 943.5 949.5Q939 963 930 978Q914 1003 906.0 1028.5Q898 1054 898 1083Q898 1142 931.0 1188.0Q964 1234 1019 1255Q1054 1269 1080.0 1289.0Q1106 1309 1127 1341Q1153 1381 1192.5 1403.5Q1232 1426 1280 1426Q1296 1426 1310.5 1422.0Q1325 1418 1339.5 1413.5Q1354 1409 1368.0 1405.5Q1382 1402 1397 1402Q1412 1402 1426.0 1405.5Q1440 1409 1454.0 1413.5Q1468 1418 1482.5 1422.0Q1497 1426 1514 1426Q1563 1426 1602.5 1403.0Q1642 1380 1668 1339Q1706 1279 1773 1255Q1829 1235 1862.5 1189.0Q1896 1143 1896 1083Z" style="fill:#f1a11e;stroke:none" transform="scale(1,-1) translate(0,-256)" /></svg>