<?xml version="1.0" encoding="utf-8" ?>
<svg baseProfile="full" height="256" version="1.1" width="256" xmlns="http://www.w3.org/2000/svg" xmlns:ev="http://www.w3.org/2001/xml-events" xmlns:xlink="http://www.w3.org/1999/xlink"><defs /><path d="M1039 1680Q1063 1688 1089.0 1695.5Q1115 1703 1140 1708L1147 1704Q1141 1702 1123.5 1697.0Q1106 1692 1087.5 1686.5Q1069 1681 1054.0 1676.5Q1039 1672 1039 1672Q1036 1672 1036 1675ZM1183 1529Q1179 1529 1179 1533Q1179 1538 1183 1538L1283 1545Q1290 1545 1300.0 1543.0Q1310 1541 1320.0 1536.5Q1330 1532 1337.0 1525.5Q1344 1519 1344 1510V1509L1340 1508Q1340 1514 1333.0 1519.5Q1326 1525 1316.5 1528.5Q1307 1532 1297.5 1534.0Q1288 1536 1283 1536ZM1183 1600Q1179 1602 1179 1605L1183 1609H1326Q1341 1609 1354.5 1601.0Q1368 1593 1373 1578L1369 1576Q1369 1581 1360.0 1587.0Q1351 1593 1347 1595Q1337 1600 1326 1600ZM1110 1644Q1128 1650 1151.5 1656.0Q1175 1662 1199.5 1666.5Q1224 1671 1248.0 1674.0Q1272 1677 1291 1677Q1299 1677 1308.5 1676.5Q1318 1676 1326 1672V1667Q1321 1668 1315.5 1668.0Q1310 1668 1304 1668Q1270 1668 1236.0 1663.5Q1202 1659 1169 1651Q1159 1649 1149.5 1646.0Q1140 1643 1130 1641Q1125 1639 1121.5 1637.5Q1118 1636 1113 1636Q1108 1636 1108 1639ZM1753 1675Q1753 1672 1750 1672Q1750 1672 1735.0 1676.5Q1720 1681 1701.5 1686.5Q1683 1692 1665.5 1697.0Q1648 1702 1642 1704L1649 1708Q1674 1700 1699.5 1694.0Q1725 1688 1750 1680ZM1506 1536Q1501 1536 1491.5 1534.0Q1482 1532 1472.5 1528.5Q1463 1525 1456.0 1519.5Q1449 1514 1449 1508L1445 1509V1510Q1445 1519 1452.0 1525.5Q1459 1532 1468.5 1536.5Q1478 1541 1488.5 1543.0Q1499 1545 1506 1545L1606 1538Q1610 1538 1610 1533Q1610 1529 1606 1529ZM1463 1600Q1452 1600 1442 1595Q1438 1593 1429.5 1587.0Q1421 1581 1421 1576L1416 1578Q1421 1593 1434.5 1601.0Q1448 1609 1463 1609H1606L1610 1605Q1610 1602 1606 1600ZM1681 1639Q1681 1636 1676 1636Q1671 1636 1667.5 1637.5Q1664 1639 1659 1641Q1649 1643 1639.5 1646.0Q1630 1649 1620 1651Q1587 1659 1553.0 1663.5Q1519 1668 1485 1668Q1479 1668 1473.5 1668.0Q1468 1668 1463 1667L1464 1672Q1472 1676 1481.0 1676.5Q1490 1677 1499 1677Q1518 1677 1541.5 1674.0Q1565 1671 1589.5 1666.5Q1614 1662 1637.5 1656.0Q1661 1650 1679 1644Z" style="fill:#d67d00;stroke:none" transform="scale(1,-1) translate(0,-256)" /></svg>