<?xml version="1.0" encoding="utf-8" ?>
<svg baseProfile="full" height="256" version="1.1" width="256" xmlns="http://www.w3.org/2000/svg" xmlns:ev="http://www.w3.org/2001/xml-events" xmlns:xlink="http://www.w3.org/1999/xlink"><defs /><path d="M2066 1462Q2086 1462 2103.5 1452.5Q2121 1443 2132 1426L2300 1155Q2347 1079 2371.0 996.0Q2395 913 2395 823Q2395 745 2376.5 670.0Q2358 595 2322 526L2067 44Q2059 29 2048.0 10.0Q2037 -9 2027.0 -30.0Q2017 -51 2010.0 -71.0Q2003 -91 2003 -107Q2019 -147 2028.5 -194.5Q2038 -242 2038 -285H755Q755 -242 765.0 -194.5Q775 -147 791 -107Q791 -91 784.5 -71.5Q778 -52 768.0 -31.5Q758 -11 747.5 7.5Q737 26 729 41L471 527Q435 595 416.5 670.0Q398 745 398 822Q398 910 422.0 995.0Q446 1080 493 1155L662 1426Q673 1443 690.0 1452.5Q707 1462 727 1462Q748 1462 767 1451L969 1327Q986 1316 995.5 1299.0Q1005 1282 1005 1262Q1005 1242 994 1223L826 952Q789 892 789 821Q789 762 817 708L1050 267Q1059 248 1078 239Q1151 280 1232.0 300.5Q1313 321 1397 321Q1481 321 1562.0 300.5Q1643 280 1716 239Q1733 248 1743 267L1977 708Q1991 734 1998.0 763.5Q2005 793 2005 822Q2005 892 1968 952L1800 1223Q1789 1242 1789 1262Q1789 1282 1798.5 1299.0Q1808 1316 1825 1327L2027 1451Q2046 1462 2066 1462Z" style="fill:#ff6723;stroke:none" transform="scale(1,-1) translate(0,-256)" /></svg>