<?xml version="1.0" encoding="utf-8" ?>
<svg baseProfile="full" height="256" version="1.1" width="256" xmlns="http://www.w3.org/2000/svg" xmlns:ev="http://www.w3.org/2001/xml-events" xmlns:xlink="http://www.w3.org/1999/xlink"><defs /><path d="M1483 1333Q1549 1333 1607.0 1308.0Q1665 1283 1708.5 1239.5Q1752 1196 1777.0 1138.0Q1802 1080 1802 1014Q1802 1003 1801.0 992.0Q1800 981 1799 970Q1792 858 1786.0 748.0Q1780 638 1772 526Q1770 506 1763.5 484.5Q1757 463 1749 444Q1731 402 1702.0 368.5Q1673 335 1636.5 311.5Q1600 288 1557.5 275.0Q1515 262 1470 262H1324Q1279 262 1236.5 275.0Q1194 288 1157.5 311.5Q1121 335 1092.5 368.5Q1064 402 1046 444Q1038 463 1031.5 484.5Q1025 506 1023 526Q1015 638 1008.5 748.0Q1002 858 994 970Q993 981 992.5 990.5Q992 1000 992 1011Q992 1078 1016.0 1137.0Q1040 1196 1083.0 1239.5Q1126 1283 1184.0 1308.0Q1242 1333 1310 1333H1483Z" style="fill:#ffc83d;stroke:none" transform="scale(1,-1) translate(0,-256)" /></svg>