<?xml version="1.0" encoding="utf-8" ?>
<svg baseProfile="full" height="256" version="1.1" width="256" xmlns="http://www.w3.org/2000/svg" xmlns:ev="http://www.w3.org/2001/xml-events" xmlns:xlink="http://www.w3.org/1999/xlink"><defs /><path d="M1397 107Q1368 107 1342.5 117.0Q1317 127 1297.0 145.0Q1277 163 1265.5 188.0Q1254 213 1254 242V400Q1254 429 1266.0 453.5Q1278 478 1297.5 496.0Q1317 514 1343.0 524.5Q1369 535 1397 535Q1425 535 1451.0 524.5Q1477 514 1496.5 496.0Q1516 478 1527.5 453.5Q1539 429 1539 400V242Q1539 213 1527.5 188.5Q1516 164 1496.5 146.0Q1477 128 1451.0 117.5Q1425 107 1397 107Z" style="fill:#fcb100;stroke:none" transform="scale(1,-1) translate(0,-256)" /></svg>