<?xml version="1.0" encoding="utf-8" ?>
<svg baseProfile="full" height="256" version="1.1" width="256" xmlns="http://www.w3.org/2000/svg" xmlns:ev="http://www.w3.org/2001/xml-events" xmlns:xlink="http://www.w3.org/1999/xlink"><defs /><path d="M2072 1407 1833 1258Q1829 1265 1818.0 1281.0Q1807 1297 1795.5 1315.0Q1784 1333 1775.0 1349.0Q1766 1365 1766 1372Q1766 1384 1777 1391Q1783 1395 1800.5 1406.0Q1818 1417 1840.0 1431.5Q1862 1446 1887.0 1461.5Q1912 1477 1933.5 1490.0Q1955 1503 1971.0 1511.5Q1987 1520 1991 1520Q2002 1520 2009 1509ZM722 1406 961 1258Q965 1265 976.5 1281.0Q988 1297 999.0 1314.5Q1010 1332 1019.0 1348.0Q1028 1364 1028 1371Q1028 1384 1018 1390L816 1515Q808 1519 803 1519Q791 1519 785 1508Z" style="fill:#f95725;stroke:none" transform="scale(1,-1) translate(0,-256)" /></svg>