<?xml version="1.0" encoding="utf-8" ?>
<svg baseProfile="full" height="256" version="1.1" width="256" xmlns="http://www.w3.org/2000/svg" xmlns:ev="http://www.w3.org/2001/xml-events" xmlns:xlink="http://www.w3.org/1999/xlink"><defs /><path d="M1211 869Q1243 869 1270.5 851.5Q1298 834 1311 804Q1313 801 1315.5 793.0Q1318 785 1318 782Q1318 774 1314.0 767.5Q1310 761 1300 761H1127Q1118 761 1111.5 767.5Q1105 774 1105 782Q1105 800 1115.5 816.0Q1126 832 1142.0 843.5Q1158 855 1176.5 862.0Q1195 869 1211 869ZM1582 869Q1564 869 1545.0 862.0Q1526 855 1510.5 842.0Q1495 829 1485.5 812.0Q1476 795 1476 776Q1476 769 1482.5 765.0Q1489 761 1494 761H1666Q1674 761 1681.0 767.0Q1688 773 1688 782Q1688 800 1677.5 816.0Q1667 832 1651.0 843.5Q1635 855 1616.5 862.0Q1598 869 1582 869Z" style="fill:#ffffff;stroke:none" transform="scale(1,-1) translate(0,-256)" /></svg>