<?xml version="1.0" encoding="utf-8" ?>
<svg baseProfile="full" height="256" version="1.1" width="256" xmlns="http://www.w3.org/2000/svg" xmlns:ev="http://www.w3.org/2001/xml-events" xmlns:xlink="http://www.w3.org/1999/xlink"><defs /><path d="M1326 1667Q1352 1667 1372.0 1656.0Q1392 1645 1392 1616Q1392 1604 1386.0 1592.5Q1380 1581 1368 1576Q1375 1562 1375 1550Q1375 1536 1364.5 1522.0Q1354 1508 1340 1508Q1340 1485 1334.0 1472.0Q1328 1459 1317.0 1453.0Q1306 1447 1290.0 1445.5Q1274 1444 1254 1444Q1219 1444 1189.5 1432.5Q1160 1421 1134.0 1406.5Q1108 1392 1083.5 1380.5Q1059 1369 1034 1369Q1014 1369 999.5 1375.0Q985 1381 969 1391L791 1498Q820 1527 856.0 1564.0Q892 1601 933.5 1634.0Q975 1667 1020.0 1689.5Q1065 1712 1112 1712Q1118 1712 1130.0 1710.5Q1142 1709 1147 1704L1275 1712Q1295 1714 1310.5 1701.0Q1326 1688 1326 1667ZM1463 1667Q1463 1687 1478.0 1700.5Q1493 1714 1513 1712L1642 1704Q1647 1709 1659.0 1710.5Q1671 1712 1677 1712Q1724 1712 1769.0 1689.5Q1814 1667 1855.5 1634.0Q1897 1601 1933.0 1564.0Q1969 1527 1998 1498L1820 1391Q1804 1381 1789.5 1375.0Q1775 1369 1755 1369Q1730 1369 1705.5 1380.5Q1681 1392 1655.0 1406.5Q1629 1421 1599.5 1432.5Q1570 1444 1535 1444Q1515 1444 1499.0 1445.5Q1483 1447 1472.0 1453.0Q1461 1459 1455.0 1472.0Q1449 1485 1449 1508Q1435 1508 1424.5 1522.0Q1414 1536 1414 1550Q1414 1562 1421 1576Q1409 1581 1403.0 1592.5Q1397 1604 1397 1616Q1397 1645 1417.0 1656.0Q1437 1667 1463 1667Z" style="fill:#ffc83d;stroke:none" transform="scale(1,-1) translate(0,-256)" /></svg>