<?xml version="1.0" encoding="utf-8" ?>
<svg baseProfile="full" height="256" version="1.1" width="256" xmlns="http://www.w3.org/2000/svg" xmlns:ev="http://www.w3.org/2001/xml-events" xmlns:xlink="http://www.w3.org/1999/xlink"><defs /><path d="M1478 717Q1479 709 1479.0 702.5Q1479 696 1479 688Q1479 607 1447.5 534.5Q1416 462 1350 412Q1285 412 1237.5 435.0Q1190 458 1158.5 497.5Q1127 537 1112.0 589.5Q1097 642 1097 701Q1097 710 1103.5 713.5Q1110 717 1118 717ZM2268 431Q2269 423 2269.0 416.5Q2269 410 2269 402Q2269 321 2237.5 248.5Q2206 176 2140 126Q2075 126 2027.5 149.0Q1980 172 1948.5 211.5Q1917 251 1902.0 303.5Q1887 356 1887 415Q1887 424 1893.5 427.5Q1900 431 1908 431ZM612 425Q677 425 741.5 407.5Q806 390 857 348Q885 324 912.5 292.0Q940 260 961.5 223.0Q983 186 996.0 146.5Q1009 107 1009 69Q958 17 902.0 -10.0Q846 -37 771 -37Q704 -37 646.5 -13.0Q589 11 547.0 53.5Q505 96 481.5 154.0Q458 212 458 279Q458 344 483 408Q513 417 546.5 421.0Q580 425 612 425ZM1273 122Q1303 131 1336.5 135.0Q1370 139 1402 139Q1467 139 1531.5 121.5Q1596 104 1647 62Q1675 38 1702.5 6.0Q1730 -26 1751.5 -63.0Q1773 -100 1786.0 -139.5Q1799 -179 1799 -217Q1748 -269 1692.0 -296.0Q1636 -323 1561 -323Q1494 -323 1436.5 -299.0Q1379 -275 1337.0 -232.5Q1295 -190 1271.5 -132.0Q1248 -74 1248 -7Q1248 58 1273 122Z" style="fill:#5092ff;stroke:none" transform="scale(1,-1) translate(0,-256)" /></svg>