<?xml version="1.0" encoding="utf-8" ?>
<svg baseProfile="full" height="256" version="1.1" width="256" xmlns="http://www.w3.org/2000/svg" xmlns:ev="http://www.w3.org/2001/xml-events" xmlns:xlink="http://www.w3.org/1999/xlink"><defs /><path d="M812 1522Q842 1522 863 1501L964 1399Q985 1378 985 1348Q985 1319 964.0 1298.0Q943 1277 913 1277Q884 1277 863 1298L761 1399Q740 1420 740 1450Q740 1480 761.0 1501.0Q782 1522 812 1522ZM1406 1438Q1436 1438 1457.0 1417.0Q1478 1396 1478 1366H1765Q1765 1395 1786.5 1416.5Q1808 1438 1837 1438Q1867 1438 1888.0 1417.0Q1909 1396 1909 1366H2053Q2083 1366 2104.0 1345.0Q2125 1324 2125 1294Q2125 1264 2104.0 1243.0Q2083 1222 2053 1222H1909V1150H2125Q2154 1150 2175.5 1128.5Q2197 1107 2197 1078Q2197 1049 2175.5 1027.5Q2154 1006 2125 1006H1693V935H2125Q2154 935 2175.5 913.5Q2197 892 2197 863V0Q2197 -29 2175.5 -50.5Q2154 -72 2125 -72H1909Q1880 -72 1858.5 -50.5Q1837 -29 1837 0Q1837 30 1858.0 51.0Q1879 72 1909 72H2053V791H1693V288H1694H1765V431Q1765 460 1786.5 481.5Q1808 503 1837 503Q1867 503 1888.0 482.0Q1909 461 1909 431V216Q1909 186 1888.0 165.0Q1867 144 1837 144H1478Q1478 114 1457.0 93.0Q1436 72 1406 72Q1376 72 1355.0 93.0Q1334 114 1334 144V431Q1334 461 1355.0 482.0Q1376 503 1406 503Q1436 503 1457.0 482.0Q1478 461 1478 431V288H1550V791H1190V0Q1190 -29 1168.5 -50.5Q1147 -72 1118 -72Q1089 -72 1068.0 -50.5Q1047 -29 1047 0V863Q1047 892 1068.0 913.5Q1089 935 1118 935H1550V1006H1118Q1089 1006 1068.0 1027.5Q1047 1049 1047 1078Q1047 1107 1068.0 1128.5Q1089 1150 1118 1150H1334V1222H1190Q1161 1222 1139.5 1243.5Q1118 1265 1118 1294Q1118 1323 1139.5 1344.5Q1161 1366 1190 1366H1334Q1334 1396 1355.0 1417.0Q1376 1438 1406 1438ZM1478 1222V1150H1765V1222ZM588 71Q588 85 595 101L808 557Q817 576 834.5 587.5Q852 599 873 599Q902 599 923.5 577.5Q945 556 945 526Q945 512 938 496L726 40Q717 21 699.0 10.0Q681 -1 661 -1Q631 -1 609.5 20.0Q588 41 588 71ZM761 1166Q791 1166 812 1145L913 1043Q935 1021 935 992Q935 963 913.5 941.5Q892 920 862 920Q833 920 812 941L710 1043Q689 1064 689 1094Q689 1124 710.0 1145.0Q731 1166 761 1166Z" style="fill:#ffffff;stroke:none" transform="scale(1,-1) translate(0,-256)" /></svg>