<?xml version="1.0" encoding="utf-8" ?>
<svg baseProfile="full" height="256" version="1.1" width="256" xmlns="http://www.w3.org/2000/svg" xmlns:ev="http://www.w3.org/2001/xml-events" xmlns:xlink="http://www.w3.org/1999/xlink"><defs /><path d="M1011 827Q977 827 957.0 819.0Q937 811 924.0 799.0Q911 787 903.0 773.0Q895 759 886.0 747.0Q877 735 865.0 727.0Q853 719 832 719Q802 719 780.5 740.0Q759 761 759 791Q759 797 760.0 802.5Q761 808 763 814Q775 852 801.0 881.5Q827 911 861.5 931.0Q896 951 934.5 961.0Q973 971 1011 971Q1048 971 1087.0 961.0Q1126 951 1160.5 931.0Q1195 911 1221.0 881.5Q1247 852 1259 814Q1262 803 1262 792Q1262 761 1241.0 740.0Q1220 719 1189 719Q1168 719 1156.0 727.0Q1144 735 1135.5 747.0Q1127 759 1119.0 773.0Q1111 787 1098.0 799.0Q1085 811 1064.5 819.0Q1044 827 1011 827ZM1801 827Q1768 827 1747.5 819.0Q1727 811 1714.0 799.0Q1701 787 1693.0 773.0Q1685 759 1676.5 747.0Q1668 735 1656.0 727.0Q1644 719 1623 719Q1592 719 1571.0 740.0Q1550 761 1550 792Q1550 803 1553 814Q1565 852 1591.0 881.5Q1617 911 1651.5 931.0Q1686 951 1725.0 961.0Q1764 971 1801 971Q1838 971 1877.0 961.0Q1916 951 1950.5 931.0Q1985 911 2011.0 881.5Q2037 852 2049 814Q2051 808 2052.0 802.5Q2053 797 2053 791Q2053 761 2031.5 740.0Q2010 719 1980 719Q1959 719 1947.0 727.0Q1935 735 1926.0 747.0Q1917 759 1909.0 773.0Q1901 787 1888.0 799.0Q1875 811 1854.5 819.0Q1834 827 1801 827ZM1407 219Q1498 219 1571.0 186.5Q1644 154 1711 94Q1733 73 1762 73Q1791 73 1812.5 94.0Q1834 115 1834 145Q1834 174 1812 196Q1773 236 1726.0 267.0Q1679 298 1626.5 319.5Q1574 341 1518.0 352.0Q1462 363 1407 363Q1351 363 1295.0 352.0Q1239 341 1186.0 319.0Q1133 297 1085.5 265.5Q1038 234 999 193Q978 170 978 142Q978 113 999.5 92.0Q1021 71 1050 71Q1066 71 1078.0 76.5Q1090 82 1101 92Q1168 153 1241.0 186.0Q1314 219 1407 219Z" style="fill:#402a32;stroke:none" transform="scale(1,-1) translate(0,-256)" /></svg>