<?xml version="1.0" encoding="utf-8" ?>
<svg baseProfile="full" height="256" version="1.1" width="256" xmlns="http://www.w3.org/2000/svg" xmlns:ev="http://www.w3.org/2001/xml-events" xmlns:xlink="http://www.w3.org/1999/xlink"><defs /><path d="M759 1581Q727 1581 707.0 1601.0Q687 1621 687 1653Q687 1685 707.0 1705.0Q727 1725 759 1725H2053Q2085 1725 2105.0 1705.0Q2125 1685 2125 1653Q2125 1621 2105.0 1601.0Q2085 1581 2053 1581ZM759 -287Q727 -287 707.0 -267.0Q687 -247 687 -215Q687 -183 707.0 -163.5Q727 -144 759 -144H2053Q2085 -144 2105.0 -163.5Q2125 -183 2125 -215Q2125 -247 2105.0 -267.0Q2085 -287 2053 -287Z" style="fill:#9b9b9b;stroke:none" transform="scale(1,-1) translate(0,-256)" /></svg>