<?xml version="1.0" encoding="utf-8" ?>
<svg baseProfile="full" height="256" version="1.1" width="256" xmlns="http://www.w3.org/2000/svg" xmlns:ev="http://www.w3.org/2001/xml-events" xmlns:xlink="http://www.w3.org/1999/xlink"><defs /><path d="M2053 1409Q2053 1322 2029.0 1241.0Q2005 1160 1961.5 1089.5Q1918 1019 1855.5 961.0Q1793 903 1717 863Q1685 846 1653.0 834.5Q1621 823 1586 812Q1568 807 1559.0 798.5Q1550 790 1550 769V683Q1550 665 1560.0 655.0Q1570 645 1586 640Q1600 635 1613.0 632.0Q1626 629 1640 624Q1692 606 1742 579Q1814 538 1871.5 481.5Q1929 425 1969.5 357.0Q2010 289 2031.5 211.0Q2053 133 2053 51V-144L1622 -191Q1590 -195 1564.5 -199.0Q1539 -203 1514.5 -206.5Q1490 -210 1464.0 -212.5Q1438 -215 1406 -215Q1374 -215 1348.0 -212.5Q1322 -210 1297.5 -206.5Q1273 -203 1247.0 -199.0Q1221 -195 1190 -191L759 -144V51Q759 137 782.5 218.0Q806 299 850.0 369.0Q894 439 956.0 496.0Q1018 553 1095 592Q1127 608 1159.0 619.0Q1191 630 1226 640Q1244 645 1253.0 653.5Q1262 662 1262 683Q1262 700 1263.5 720.5Q1265 741 1263.0 760.5Q1261 780 1253.0 796.0Q1245 812 1226 820Q1213 825 1199.5 828.0Q1186 831 1172 836Q1119 854 1070 881Q998 921 940.5 977.5Q883 1034 842.5 1102.5Q802 1171 780.5 1248.5Q759 1326 759 1409V1589L1190 1608Q1221 1609 1247.0 1610.5Q1273 1612 1298.0 1613.5Q1323 1615 1348.5 1616.0Q1374 1617 1406 1617Q1437 1617 1463.0 1616.0Q1489 1615 1514.0 1613.5Q1539 1612 1564.5 1610.5Q1590 1609 1622 1608L2053 1589Z" style="fill:#83cbff;stroke:none" transform="scale(1,-1) translate(0,-256)" /></svg>