<?xml version="1.0" encoding="utf-8" ?>
<svg baseProfile="full" height="256" version="1.1" width="256" xmlns="http://www.w3.org/2000/svg" xmlns:ev="http://www.w3.org/2001/xml-events" xmlns:xlink="http://www.w3.org/1999/xlink"><defs /><path d="M1478 475Q1478 452 1489.5 440.5Q1501 429 1521 424Q1559 416 1595.0 405.5Q1631 395 1666 379Q1733 349 1790.5 304.5Q1848 260 1890.5 203.0Q1933 146 1957.0 78.5Q1981 11 1981 -64V-144H831V-64Q831 11 855.0 78.5Q879 146 921.5 203.0Q964 260 1021.5 304.5Q1079 349 1146 379Q1182 395 1217.5 404.0Q1253 413 1291 424Q1316 431 1325.0 455.5Q1334 480 1334 503V784Q1334 825 1313.0 848.5Q1292 872 1255 884Q1213 898 1169.5 916.5Q1126 935 1085.5 958.5Q1045 982 1009.0 1012.0Q973 1042 946 1078Q935 1092 929.5 1104.5Q924 1117 924 1135Q924 1153 931.0 1168.5Q938 1184 949.5 1196.0Q961 1208 977.0 1215.0Q993 1222 1011 1222H1801Q1819 1222 1835.0 1215.0Q1851 1208 1862.5 1196.0Q1874 1184 1881.0 1168.5Q1888 1153 1888 1135Q1888 1117 1882.5 1104.5Q1877 1092 1866 1078Q1846 1051 1818.5 1026.0Q1791 1001 1759.5 978.5Q1728 956 1695.0 938.0Q1662 920 1631 908Q1613 900 1594.5 895.0Q1576 890 1557 884Q1524 873 1501.0 846.5Q1478 820 1478 784V475Z" style="fill:#ffb02e;stroke:none" transform="scale(1,-1) translate(0,-256)" /></svg>