<?xml version="1.0" encoding="utf-8" ?>
<svg baseProfile="full" height="256" version="1.1" width="256" xmlns="http://www.w3.org/2000/svg" xmlns:ev="http://www.w3.org/2001/xml-events" xmlns:xlink="http://www.w3.org/1999/xlink"><defs /><path d="M1118 683Q1208 683 1286.5 649.5Q1365 616 1423.5 557.5Q1482 499 1516.0 420.5Q1550 342 1550 252Q1550 162 1516.0 83.5Q1482 5 1423.5 -53.5Q1365 -112 1286.5 -145.5Q1208 -179 1118 -179Q1029 -179 950.5 -145.0Q872 -111 813.5 -52.5Q755 6 721.0 84.5Q687 163 687 252Q687 341 721.0 419.5Q755 498 813.5 556.5Q872 615 950.5 649.0Q1029 683 1118 683ZM1118 180Q1147 180 1169.0 201.0Q1191 222 1191 252Q1191 281 1169.5 302.5Q1148 324 1119 324Q1089 324 1067.5 302.5Q1046 281 1046 251Q1046 222 1067.5 201.0Q1089 180 1118 180Z" style="fill:#007356;stroke:none" transform="scale(1,-1) translate(0,-256)" /></svg>