<?xml version="1.0" encoding="utf-8" ?>
<svg baseProfile="full" height="256" version="1.1" width="256" xmlns="http://www.w3.org/2000/svg" xmlns:ev="http://www.w3.org/2001/xml-events" xmlns:xlink="http://www.w3.org/1999/xlink"><defs /><path d="M1118 1617Q1208 1617 1286.5 1583.5Q1365 1550 1423.5 1491.5Q1482 1433 1516.0 1354.5Q1550 1276 1550 1186Q1550 1096 1516.0 1017.5Q1482 939 1423.5 880.5Q1365 822 1286.5 788.5Q1208 755 1118 755Q1029 755 950.5 789.0Q872 823 813.5 881.5Q755 940 721.0 1018.5Q687 1097 687 1186Q687 1275 721.0 1353.5Q755 1432 813.5 1490.5Q872 1549 950.5 1583.0Q1029 1617 1118 1617ZM1118 1114Q1148 1114 1169.5 1135.5Q1191 1157 1191 1187Q1191 1216 1169.5 1237.0Q1148 1258 1119 1258Q1089 1258 1067.5 1237.0Q1046 1216 1046 1186Q1046 1157 1067.5 1135.5Q1089 1114 1118 1114Z" style="fill:#b4acbc;stroke:none" transform="scale(1,-1) translate(0,-256)" /></svg>