<?xml version="1.0" encoding="utf-8" ?>
<svg baseProfile="full" height="256" version="1.1" width="256" xmlns="http://www.w3.org/2000/svg" xmlns:ev="http://www.w3.org/2001/xml-events" xmlns:xlink="http://www.w3.org/1999/xlink"><defs /><path d="M1542 647Q1499 647 1461.5 663.5Q1424 680 1395.5 708.0Q1367 736 1350.5 774.0Q1334 812 1334 855Q1334 902 1354.5 945.5Q1375 989 1412 1018L1901 1408Q1939 1438 1986 1438Q2014 1438 2039.5 1427.0Q2065 1416 2084.0 1397.5Q2103 1379 2114.0 1353.5Q2125 1328 2125 1299Q2125 1252 2095 1214L1705 725Q1676 688 1633.0 667.5Q1590 647 1542 647Z" style="fill:#50e2ff;stroke:none" transform="scale(1,-1) translate(0,-256)" /></svg>