<?xml version="1.0" encoding="utf-8" ?>
<svg baseProfile="full" height="256" version="1.1" width="256" xmlns="http://www.w3.org/2000/svg" xmlns:ev="http://www.w3.org/2001/xml-events" xmlns:xlink="http://www.w3.org/1999/xlink"><defs /><path d="M2125 575Q2125 456 2094.0 346.0Q2063 236 2007.0 140.0Q1951 44 1872.0 -34.5Q1793 -113 1697.0 -169.0Q1601 -225 1491.0 -256.0Q1381 -287 1262 -287Q1143 -287 1033.0 -256.0Q923 -225 827.0 -169.0Q731 -113 652.5 -34.5Q574 44 518.0 140.0Q462 236 431.0 346.0Q400 456 400 575Q400 694 431.0 804.0Q462 914 518.0 1010.0Q574 1106 652.5 1185.0Q731 1264 827.0 1320.0Q923 1376 1033.0 1407.0Q1143 1438 1262 1438Q1381 1438 1491.5 1407.0Q1602 1376 1698.0 1320.0Q1794 1264 1872.5 1185.5Q1951 1107 2007.0 1011.0Q2063 915 2094.0 804.5Q2125 694 2125 575ZM1909 575Q1909 664 1886.0 747.0Q1863 830 1820.5 901.5Q1778 973 1719.0 1032.0Q1660 1091 1588.5 1133.5Q1517 1176 1434.0 1199.0Q1351 1222 1262 1222Q1173 1222 1090.0 1199.0Q1007 1176 935.5 1133.5Q864 1091 805.0 1032.0Q746 973 703.5 901.5Q661 830 638.0 747.0Q615 664 615 575Q615 486 638.0 403.0Q661 320 703.5 248.5Q746 177 805.0 118.0Q864 59 935.5 16.5Q1007 -26 1090.0 -49.0Q1173 -72 1262 -72Q1351 -72 1434.0 -49.0Q1517 -26 1588.5 16.5Q1660 59 1719.0 118.0Q1778 177 1820.5 248.5Q1863 320 1886.0 403.0Q1909 486 1909 575ZM1262 144Q1173 144 1094.5 178.0Q1016 212 957.5 270.5Q899 329 865.0 407.5Q831 486 831 575Q831 664 865.0 742.5Q899 821 957.5 879.5Q1016 938 1094.5 972.0Q1173 1006 1262 1006Q1351 1006 1429.5 972.0Q1508 938 1566.5 879.5Q1625 821 1659.0 742.5Q1693 664 1693 575Q1693 486 1659.0 407.5Q1625 329 1566.5 270.5Q1508 212 1429.5 178.0Q1351 144 1262 144ZM1478 575Q1478 620 1461.0 659.0Q1444 698 1414.5 727.5Q1385 757 1346.0 774.0Q1307 791 1262 791Q1217 791 1178.0 774.0Q1139 757 1110.0 727.5Q1081 698 1064.0 659.0Q1047 620 1047 575Q1047 530 1064.0 491.0Q1081 452 1110.0 423.0Q1139 394 1178.0 377.0Q1217 360 1262 360Q1307 360 1346.0 377.0Q1385 394 1414.5 423.0Q1444 452 1461.0 491.0Q1478 530 1478 575Z" style="fill:#f8312f;stroke:none" transform="scale(1,-1) translate(0,-256)" /></svg>