<?xml version="1.0" encoding="utf-8" ?>
<svg baseProfile="full" height="256" version="1.1" width="256" xmlns="http://www.w3.org/2000/svg" xmlns:ev="http://www.w3.org/2001/xml-events" xmlns:xlink="http://www.w3.org/1999/xlink"><defs /><path d="M1262 -165Q1160 -165 1065.5 -138.5Q971 -112 889.0 -64.0Q807 -16 739.0 52.0Q671 120 623.0 202.0Q575 284 548.5 378.5Q522 473 522 575Q522 677 548.5 771.5Q575 866 623.0 948.0Q671 1030 739.0 1098.0Q807 1166 889.0 1214.0Q971 1262 1065.5 1288.5Q1160 1315 1262 1315Q1364 1315 1458.5 1288.5Q1553 1262 1635.5 1214.0Q1718 1166 1785.5 1098.5Q1853 1031 1901.0 948.5Q1949 866 1975.5 771.5Q2002 677 2002 575Q2002 473 1975.5 378.5Q1949 284 1901.0 202.0Q1853 120 1785.0 52.0Q1717 -16 1635.0 -64.0Q1553 -112 1458.5 -138.5Q1364 -165 1262 -165Z" style="fill:#f4f4f4;stroke:none" transform="scale(1,-1) translate(0,-256)" /></svg>