<?xml version="1.0" encoding="utf-8" ?>
<svg baseProfile="full" height="256" version="1.1" width="256" xmlns="http://www.w3.org/2000/svg" xmlns:ev="http://www.w3.org/2001/xml-events" xmlns:xlink="http://www.w3.org/1999/xlink"><defs /><path d="M1162 1509Q1173 1509 1185.0 1506.0Q1197 1503 1205 1496L1361 1379Q1380 1365 1404 1365Q1427 1365 1446 1379L1603 1494Q1623 1508 1645 1508Q1660 1508 1674.5 1502.0Q1689 1496 1699 1485L1850 1318Q1861 1305 1874 1300Q1887 1294 1903 1294H2123Q2152 1294 2173.5 1272.5Q2195 1251 2195 1222V1036Q2195 1021 2202.0 1007.5Q2209 994 2220 985L2385 846Q2411 825 2411 791Q2411 757 2385 736L2220 596Q2195 575 2195 542V359Q2195 330 2173.5 308.5Q2152 287 2123 287H1900Q1884 287 1871 281Q1857 275 1846 263L1695 94Q1674 70 1640 70Q1617 70 1586.0 88.0Q1555 106 1523.0 127.5Q1491 149 1460.0 167.0Q1429 185 1405 185Q1396 185 1385.5 181.5Q1375 178 1367 173L1013 -62Q1006 -67 995.0 -70.5Q984 -74 976 -74Q945 -74 923.0 -54.0Q901 -34 901 -2V215Q901 243 880 266Q859 288 826.0 289.0Q793 290 758.0 287.0Q723 284 690.0 285.0Q657 286 635 308Q614 329 614 359V541Q614 556 607 572Q600 585 588 596L423 735Q412 745 405.0 760.0Q398 775 398 790Q398 806 404.5 820.5Q411 835 423 845L588 984Q599 994 606.5 1009.0Q614 1024 614 1039V1221Q614 1251 634.5 1272.0Q655 1293 685 1293L904 1294Q920 1294 934 1300Q941 1303 947.0 1308.0Q953 1313 958 1318L1108 1486Q1129 1509 1162 1509Z" style="fill:#ffffff;stroke:none" transform="scale(1,-1) translate(0,-256)" /></svg>