<?xml version="1.0" encoding="utf-8" ?>
<svg baseProfile="full" height="256" version="1.1" width="256" xmlns="http://www.w3.org/2000/svg" xmlns:ev="http://www.w3.org/2001/xml-events" xmlns:xlink="http://www.w3.org/1999/xlink"><defs /><path d="M973 -146Q943 -146 917.0 -134.5Q891 -123 871.5 -103.5Q852 -84 840.5 -58.0Q829 -32 829 -2V215H685Q626 215 584 257Q564 277 553.0 303.5Q542 330 542 359V541L377 681Q326 724 326 790Q326 857 377 900L542 1039V1222Q542 1252 553.0 1278.0Q564 1304 583.5 1323.5Q603 1343 629.0 1354.0Q655 1365 685 1365H905L1055 1533Q1075 1556 1102.5 1569.0Q1130 1582 1160 1582Q1183 1582 1206.0 1574.5Q1229 1567 1248 1553L1404 1437L1560 1552Q1578 1566 1600.0 1573.0Q1622 1580 1645 1580Q1710 1580 1753 1532L1903 1365H2123Q2153 1365 2179.0 1353.5Q2205 1342 2224.5 1322.5Q2244 1303 2255.5 1277.0Q2267 1251 2267 1221V1039L2432 900Q2483 857 2483 790Q2483 758 2469.5 729.0Q2456 700 2432 680L2267 541V359Q2267 329 2255.5 302.5Q2244 276 2224.5 256.5Q2205 237 2179.0 226.0Q2153 215 2123 215H1900L1749 46Q1706 -2 1641 -2Q1623 -2 1604.0 3.0Q1585 8 1569 17L1407 112L1053 -122Q1017 -146 973 -146Z" style="fill:#9b9b9b;stroke:none" transform="scale(1,-1) translate(0,-256)" /></svg>