<?xml version="1.0" encoding="utf-8" ?>
<svg baseProfile="full" height="256" version="1.1" width="256" xmlns="http://www.w3.org/2000/svg" xmlns:ev="http://www.w3.org/2001/xml-events" xmlns:xlink="http://www.w3.org/1999/xlink"><defs /><path d="M1396 1653Q1408 1653 1417.5 1645.0Q1427 1637 1434.5 1625.5Q1442 1614 1448.0 1601.0Q1454 1588 1460 1579H1459V1571L917 1238L909 1241Q882 1285 882 1334Q882 1381 905.0 1422.0Q928 1463 968 1487Q975 1491 988.5 1500.0Q1002 1509 1016.5 1518.0Q1031 1527 1044.5 1534.0Q1058 1541 1065 1541Q1077 1541 1084.5 1533.5Q1092 1526 1097.0 1516.5Q1102 1507 1106.5 1499.5Q1111 1492 1119 1492Q1126 1492 1147.0 1504.0Q1168 1516 1195.5 1534.0Q1223 1552 1254.0 1572.5Q1285 1593 1313.5 1611.0Q1342 1629 1364.0 1641.0Q1386 1653 1396 1653Z" style="fill:#0074ba;stroke:none" transform="scale(1,-1) translate(0,-256)" /></svg>