<?xml version="1.0" encoding="utf-8" ?>
<svg baseProfile="full" height="256" version="1.1" width="256" xmlns="http://www.w3.org/2000/svg" xmlns:ev="http://www.w3.org/2001/xml-events" xmlns:xlink="http://www.w3.org/1999/xlink"><defs /><path d="M2412 707Q2412 693 2405.5 681.5Q2399 670 2388 663L907 -244Q872 -266 831.5 -277.0Q791 -288 749 -288Q669 -288 600.0 -249.5Q531 -211 489 -143L417 -25Q400 4 400 36Q400 60 409.0 81.5Q418 103 434.0 119.0Q450 135 471.5 144.5Q493 154 517 154Q552 154 576.0 138.5Q600 123 617.0 100.0Q634 77 647.0 50.5Q660 24 674.0 1.0Q688 -22 705.5 -37.5Q723 -53 749 -53Q769 -53 785 -43L2266 863Q2279 871 2292 871Q2306 871 2317.5 864.0Q2329 857 2336 846Q2342 835 2355.0 816.5Q2368 798 2380.5 777.0Q2393 756 2402.5 737.0Q2412 718 2412 707Z" style="fill:#ff6723;stroke:none" transform="scale(1,-1) translate(0,-256)" /></svg>