<?xml version="1.0" encoding="utf-8" ?>
<svg baseProfile="full" height="256" version="1.1" width="256" xmlns="http://www.w3.org/2000/svg" xmlns:ev="http://www.w3.org/2001/xml-events" xmlns:xlink="http://www.w3.org/1999/xlink"><defs /><path d="M1043 995Q1030 995 1026 1004Q1023 1010 1012.5 1025.5Q1002 1041 991.5 1059.0Q981 1077 972.5 1092.0Q964 1107 964 1112Q964 1125 973 1130L1113 1216Q1132 1227 1154 1227Q1186 1227 1208.5 1204.5Q1231 1182 1231 1150Q1231 1130 1221.0 1112.5Q1211 1095 1194 1084Q1186 1079 1163.5 1065.0Q1141 1051 1116.0 1035.0Q1091 1019 1069.5 1007.0Q1048 995 1043 995ZM1906 850 1971 745Q1979 731 1979 715Q1979 699 1972.0 687.5Q1965 676 1954.0 667.0Q1943 658 1930.0 651.0Q1917 644 1905 637L1611 457Q1605 466 1592.0 486.0Q1579 506 1565.5 527.5Q1552 549 1541.5 569.0Q1531 589 1531 598Q1531 617 1548 628ZM995 80Q983 75 972 75Q956 75 945.0 82.0Q934 89 925.5 100.0Q917 111 910.0 124.0Q903 137 896 149L859 209L1078 343Q1088 348 1097 348Q1106 348 1114.0 343.5Q1122 339 1127 331L1202 208Q1197 205 1180.0 195.0Q1163 185 1140.5 171.5Q1118 158 1092.5 142.5Q1067 127 1046.0 114.0Q1025 101 1010.5 91.5Q996 82 995 80ZM984 752Q989 752 1011.0 741.0Q1033 730 1059.0 715.5Q1085 701 1108.0 688.0Q1131 675 1139 671Q1158 661 1168.5 642.5Q1179 624 1179 603Q1179 571 1156.0 548.5Q1133 526 1101 526Q1081 526 1065 535L920 614Q909 619 909 631Q909 635 917.0 651.0Q925 667 935.0 685.0Q945 703 954.5 719.5Q964 736 967 742Q972 752 984 752Z" style="fill:#0074ba;stroke:none" transform="scale(1,-1) translate(0,-256)" /></svg>