<?xml version="1.0" encoding="utf-8" ?>
<svg baseProfile="full" height="256" version="1.1" width="256" xmlns="http://www.w3.org/2000/svg" xmlns:ev="http://www.w3.org/2001/xml-events" xmlns:xlink="http://www.w3.org/1999/xlink"><defs /><path d="M1550 701Q1595 701 1634.0 684.0Q1673 667 1702.0 637.5Q1731 608 1748.0 569.0Q1765 530 1765 485Q1765 440 1748.0 401.0Q1731 362 1702.0 333.0Q1673 304 1634.0 287.0Q1595 270 1550 270Q1505 270 1466.0 287.0Q1427 304 1397.5 333.0Q1368 362 1351.0 401.0Q1334 440 1334 485Q1334 530 1351.0 569.0Q1368 608 1397.5 637.5Q1427 667 1466.0 684.0Q1505 701 1550 701ZM1550 458Q1561 458 1569.0 466.0Q1577 474 1577 485Q1577 496 1569.0 504.0Q1561 512 1550 512Q1539 512 1531.0 504.0Q1523 496 1523 485Q1523 474 1531.0 466.0Q1539 458 1550 458ZM1550 216Q1595 216 1634.0 199.0Q1673 182 1702.0 152.5Q1731 123 1748.0 84.0Q1765 45 1765 0Q1765 -45 1748.0 -84.0Q1731 -123 1702.0 -152.0Q1673 -181 1634.0 -198.0Q1595 -215 1550 -215Q1505 -215 1466.0 -198.0Q1427 -181 1397.5 -152.0Q1368 -123 1351.0 -84.0Q1334 -45 1334 0Q1334 45 1351.0 84.0Q1368 123 1397.5 152.5Q1427 182 1466.0 199.0Q1505 216 1550 216ZM1550 -27Q1561 -27 1569.0 -19.0Q1577 -11 1577 0Q1577 11 1569.0 19.0Q1561 27 1550 27Q1539 27 1531.0 19.0Q1523 11 1523 0Q1523 -11 1531.0 -19.0Q1539 -27 1550 -27ZM687 701Q732 701 771.0 684.0Q810 667 839.5 637.5Q869 608 886.0 569.0Q903 530 903 485Q903 440 886.0 401.0Q869 362 839.5 333.0Q810 304 771.0 287.0Q732 270 687 270Q642 270 603.0 287.0Q564 304 535.0 333.0Q506 362 489.0 401.0Q472 440 472 485Q472 530 489.0 569.0Q506 608 535.0 637.5Q564 667 603.0 684.0Q642 701 687 701ZM687 458Q698 458 706.0 466.0Q714 474 714 485Q714 496 706.0 504.0Q698 512 687 512Q676 512 668.0 504.0Q660 496 660 485Q660 474 668.0 466.0Q676 458 687 458ZM687 216Q732 216 771.0 199.0Q810 182 839.5 152.5Q869 123 886.0 84.0Q903 45 903 0Q903 -45 886.0 -84.0Q869 -123 839.5 -152.0Q810 -181 771.0 -198.0Q732 -215 687 -215Q642 -215 603.0 -198.0Q564 -181 535.0 -152.0Q506 -123 489.0 -84.0Q472 -45 472 0Q472 45 489.0 84.0Q506 123 535.0 152.5Q564 182 603.0 199.0Q642 216 687 216ZM687 -27Q698 -27 706.0 -19.0Q714 -11 714 0Q714 11 706.0 19.0Q698 27 687 27Q676 27 668.0 19.0Q660 11 660 0Q660 -11 668.0 -19.0Q676 -27 687 -27Z" style="fill:#5a93cb;stroke:none" transform="scale(1,-1) translate(0,-256)" /></svg>