<?xml version="1.0" encoding="utf-8" ?>
<svg baseProfile="full" height="256" version="1.1" width="256" xmlns="http://www.w3.org/2000/svg" xmlns:ev="http://www.w3.org/2001/xml-events" xmlns:xlink="http://www.w3.org/1999/xlink"><defs /><path d="M1118 1384Q1155 1384 1188.0 1370.0Q1221 1356 1245.5 1331.5Q1270 1307 1284.0 1274.0Q1298 1241 1298 1204Q1298 1166 1284.0 1133.5Q1270 1101 1245.5 1076.5Q1221 1052 1188.0 1038.0Q1155 1024 1118 1024Q1081 1024 1048.5 1038.0Q1016 1052 991.5 1076.5Q967 1101 953.0 1134.0Q939 1167 939 1204Q939 1241 953.0 1274.0Q967 1307 991.5 1331.5Q1016 1356 1048.5 1370.0Q1081 1384 1118 1384ZM1550 1132Q1587 1132 1619.5 1118.0Q1652 1104 1676.5 1079.5Q1701 1055 1715.0 1022.5Q1729 990 1729 953Q1729 916 1715.0 883.0Q1701 850 1676.5 825.5Q1652 801 1619.5 787.0Q1587 773 1550 773Q1512 773 1479.5 787.0Q1447 801 1422.5 825.5Q1398 850 1384.0 882.5Q1370 915 1370 953Q1370 990 1384.0 1022.5Q1398 1055 1422.5 1079.5Q1447 1104 1480.0 1118.0Q1513 1132 1550 1132ZM687 1617Q724 1617 757.0 1603.0Q790 1589 814.5 1564.5Q839 1540 853.0 1507.5Q867 1475 867 1438Q867 1400 853.0 1367.5Q839 1335 814.5 1310.5Q790 1286 757.0 1272.0Q724 1258 687 1258Q650 1258 617.5 1272.0Q585 1286 560.5 1310.5Q536 1335 522.0 1368.0Q508 1401 508 1438Q508 1475 522.0 1507.5Q536 1540 560.5 1564.5Q585 1589 617.5 1603.0Q650 1617 687 1617ZM1550 180Q1587 180 1619.5 166.0Q1652 152 1676.5 127.5Q1701 103 1715.0 70.0Q1729 37 1729 0Q1729 -37 1715.0 -69.5Q1701 -102 1676.5 -126.5Q1652 -151 1619.5 -165.0Q1587 -179 1550 -179Q1513 -179 1480.0 -165.0Q1447 -151 1422.5 -126.5Q1398 -102 1384.0 -69.5Q1370 -37 1370 0Q1370 37 1384.0 70.0Q1398 103 1422.5 127.5Q1447 152 1479.5 166.0Q1512 180 1550 180ZM1550 665Q1587 665 1619.5 651.0Q1652 637 1676.5 612.5Q1701 588 1715.0 555.0Q1729 522 1729 485Q1729 448 1715.0 415.5Q1701 383 1676.5 358.5Q1652 334 1619.5 320.0Q1587 306 1550 306Q1513 306 1480.0 320.0Q1447 334 1422.5 358.5Q1398 383 1384.0 415.5Q1370 448 1370 485Q1370 522 1384.0 555.0Q1398 588 1422.5 612.5Q1447 637 1479.5 651.0Q1512 665 1550 665ZM687 665Q724 665 757.0 651.0Q790 637 814.5 612.5Q839 588 853.0 555.0Q867 522 867 485Q867 448 853.0 415.5Q839 383 814.5 358.5Q790 334 757.0 320.0Q724 306 687 306Q650 306 617.5 320.0Q585 334 560.5 358.5Q536 383 522.0 415.5Q508 448 508 485Q508 522 522.0 555.0Q536 588 560.5 612.5Q585 637 617.5 651.0Q650 665 687 665ZM687 180Q724 180 757.0 166.0Q790 152 814.5 127.5Q839 103 853.0 70.0Q867 37 867 0Q867 -37 853.0 -69.5Q839 -102 814.5 -126.5Q790 -151 757.0 -165.0Q724 -179 687 -179Q650 -179 617.5 -165.0Q585 -151 560.5 -126.5Q536 -102 522.0 -69.5Q508 -37 508 0Q508 37 522.0 70.0Q536 103 560.5 127.5Q585 152 617.5 166.0Q650 180 687 180ZM687 -144Q717 -144 743.0 -132.5Q769 -121 788.5 -101.5Q808 -82 819.5 -56.0Q831 -30 831 0Q831 30 819.5 56.0Q808 82 788.5 101.5Q769 121 743.0 132.5Q717 144 687 144Q657 144 631.0 132.5Q605 121 585.5 101.5Q566 82 554.5 56.0Q543 30 543 0Q543 -30 554.5 -56.0Q566 -82 585.5 -101.5Q605 -121 631.0 -132.5Q657 -144 687 -144ZM1550 -144Q1580 -144 1606.0 -132.5Q1632 -121 1651.5 -101.5Q1671 -82 1682.0 -56.0Q1693 -30 1693 0Q1693 30 1682.0 56.0Q1671 82 1651.5 101.5Q1632 121 1606.0 132.5Q1580 144 1550 144Q1520 144 1493.5 132.5Q1467 121 1447.5 101.5Q1428 82 1417.0 56.0Q1406 30 1406 0Q1406 -30 1417.5 -56.0Q1429 -82 1448.5 -101.5Q1468 -121 1494.0 -132.5Q1520 -144 1550 -144ZM687 1294Q717 1294 743.0 1305.0Q769 1316 788.5 1335.5Q808 1355 819.5 1381.5Q831 1408 831 1438Q831 1468 819.5 1494.0Q808 1520 788.5 1539.5Q769 1559 743.0 1570.0Q717 1581 687 1581Q657 1581 631.0 1570.0Q605 1559 585.5 1539.5Q566 1520 554.5 1494.0Q543 1468 543 1438Q543 1408 554.5 1382.0Q566 1356 585.5 1336.5Q605 1317 631.0 1305.5Q657 1294 687 1294ZM687 342Q717 342 743.0 353.0Q769 364 788.5 383.5Q808 403 819.5 429.0Q831 455 831 485Q831 515 819.5 541.0Q808 567 788.5 586.5Q769 606 743.0 617.5Q717 629 687 629Q657 629 631.0 617.5Q605 606 585.5 586.5Q566 567 554.5 541.0Q543 515 543 485Q543 455 554.5 429.0Q566 403 585.5 383.5Q605 364 631.0 353.0Q657 342 687 342ZM1118 1060Q1148 1060 1174.0 1071.5Q1200 1083 1219.5 1102.5Q1239 1122 1250.5 1148.0Q1262 1174 1262 1204Q1262 1234 1250.5 1260.0Q1239 1286 1219.5 1305.5Q1200 1325 1174.0 1336.5Q1148 1348 1118 1348Q1088 1348 1062.0 1336.5Q1036 1325 1016.5 1305.5Q997 1286 986.0 1260.0Q975 1234 975 1204Q975 1174 986.0 1148.0Q997 1122 1016.5 1102.5Q1036 1083 1062.0 1071.5Q1088 1060 1118 1060ZM1550 809Q1580 809 1606.0 820.5Q1632 832 1651.5 851.5Q1671 871 1682.0 897.0Q1693 923 1693 953Q1693 983 1682.0 1009.0Q1671 1035 1651.5 1054.5Q1632 1074 1606.0 1085.0Q1580 1096 1550 1096Q1520 1096 1494.0 1085.0Q1468 1074 1448.5 1054.5Q1429 1035 1417.5 1009.0Q1406 983 1406 953Q1406 923 1417.0 896.5Q1428 870 1447.5 850.5Q1467 831 1493.5 820.0Q1520 809 1550 809ZM1550 342Q1580 342 1606.0 353.0Q1632 364 1651.5 383.5Q1671 403 1682.0 429.0Q1693 455 1693 485Q1693 515 1682.0 541.0Q1671 567 1651.5 586.5Q1632 606 1606.0 617.5Q1580 629 1550 629Q1520 629 1493.5 617.5Q1467 606 1447.5 586.5Q1428 567 1417.0 541.0Q1406 515 1406 485Q1406 455 1417.5 429.0Q1429 403 1448.5 383.5Q1468 364 1494.0 353.0Q1520 342 1550 342ZM1611 521Q1629 521 1643.5 513.5Q1658 506 1658 485Q1658 465 1645.0 457.5Q1632 450 1615 450H1611Q1616 444 1619.0 437.5Q1622 431 1622 423Q1622 408 1611.5 397.5Q1601 387 1586 387Q1558 387 1550 415Q1542 404 1536.5 395.5Q1531 387 1514 387Q1500 387 1489.0 398.0Q1478 409 1478 423Q1478 431 1481.0 437.5Q1484 444 1489 450Q1470 450 1456.0 456.0Q1442 462 1442 485Q1442 506 1456.5 513.5Q1471 521 1489 521Q1478 532 1478 548Q1478 562 1489.0 573.0Q1500 584 1514 584Q1531 584 1536.5 575.5Q1542 567 1550 556Q1558 584 1586 584Q1601 584 1611.5 573.5Q1622 563 1622 548Q1622 532 1611 521ZM748 1473Q767 1473 781.0 1467.0Q795 1461 795 1438Q795 1417 780.5 1409.5Q766 1402 748 1402Q759 1391 759 1375Q759 1361 748.0 1350.0Q737 1339 723 1339Q706 1339 700.5 1347.5Q695 1356 687 1367Q683 1355 673.5 1347.0Q664 1339 651 1339Q637 1339 626.0 1350.0Q615 1361 615 1375Q615 1391 626 1402Q608 1402 593.5 1409.5Q579 1417 579 1438Q579 1459 591.5 1466.0Q604 1473 621 1473H626Q621 1479 618.0 1485.5Q615 1492 615 1500Q615 1514 626.0 1525.0Q637 1536 651 1536Q664 1536 673.5 1528.0Q683 1520 687 1508Q695 1519 700.5 1527.5Q706 1536 723 1536Q737 1536 748.0 1525.0Q759 1514 759 1500Q759 1492 756.0 1485.5Q753 1479 748 1473ZM1179 1239Q1185 1241 1190 1241Q1205 1241 1215.5 1230.0Q1226 1219 1226 1204Q1226 1189 1215.0 1178.5Q1204 1168 1189 1168Q1182 1168 1179 1169Q1190 1158 1190 1142Q1190 1128 1179.0 1117.0Q1168 1106 1154 1106Q1139 1106 1131.5 1114.0Q1124 1122 1118 1134Q1115 1122 1105.5 1114.0Q1096 1106 1083 1106Q1069 1106 1057.5 1116.5Q1046 1127 1046 1142Q1046 1150 1049.0 1156.5Q1052 1163 1057 1169Q1054 1168 1047 1168Q1033 1168 1022.0 1179.0Q1011 1190 1011 1204Q1011 1221 1022.0 1230.5Q1033 1240 1048 1240Q1054 1240 1057 1239Q1052 1245 1049.0 1251.5Q1046 1258 1046 1266Q1046 1281 1057.5 1291.5Q1069 1302 1083 1302Q1110 1302 1118 1275Q1126 1287 1131.5 1294.5Q1137 1302 1154 1302Q1169 1302 1179.5 1291.5Q1190 1281 1190 1266Q1190 1250 1179 1239ZM1611 988Q1628 988 1643.0 981.0Q1658 974 1658 953Q1658 932 1643.5 924.5Q1629 917 1611 917Q1616 911 1619.0 904.5Q1622 898 1622 890Q1622 875 1611.5 864.5Q1601 854 1586 854Q1558 854 1550 882Q1542 871 1536.5 862.5Q1531 854 1514 854Q1500 854 1489.0 865.0Q1478 876 1478 890Q1478 898 1481.0 904.5Q1484 911 1489 917Q1471 917 1456.5 924.5Q1442 932 1442 953Q1442 974 1457.0 981.0Q1472 988 1489 988Q1484 994 1481.0 1000.5Q1478 1007 1478 1015Q1478 1029 1489.0 1040.0Q1500 1051 1514 1051Q1531 1051 1536.5 1042.5Q1542 1034 1550 1023Q1558 1051 1586 1051Q1601 1051 1611.5 1040.5Q1622 1030 1622 1015Q1622 1007 1619.0 1000.5Q1616 994 1611 988ZM748 521Q766 521 780.5 513.5Q795 506 795 485Q795 465 782.0 457.5Q769 450 752 450H748Q753 444 756.0 437.5Q759 431 759 423Q759 409 748.0 398.0Q737 387 723 387Q706 387 700.5 395.5Q695 404 687 415Q683 403 673.5 395.0Q664 387 651 387Q637 387 626.0 398.0Q615 409 615 423Q615 431 618.0 437.5Q621 444 626 450Q607 450 593.0 456.0Q579 462 579 485Q579 506 593.5 513.5Q608 521 626 521Q615 532 615 548Q615 562 626.0 573.0Q637 584 651 584Q664 584 673.5 576.0Q683 568 687 556Q695 567 700.5 575.5Q706 584 723 584Q737 584 748.0 573.0Q759 562 759 548Q759 532 748 521ZM748 35Q754 37 759 37Q774 37 784.5 26.0Q795 15 795 0Q795 -23 780.5 -29.0Q766 -35 748 -35Q753 -41 756.0 -47.5Q759 -54 759 -62Q759 -76 748.0 -87.0Q737 -98 723 -98Q708 -98 700.5 -90.0Q693 -82 687 -70Q684 -82 673.5 -90.0Q663 -98 651 -98Q637 -98 626.0 -87.0Q615 -76 615 -62Q615 -54 618.0 -47.5Q621 -41 626 -35Q607 -35 593.0 -29.0Q579 -23 579 0Q579 15 590.0 25.5Q601 36 616 36Q623 36 626 35Q615 49 615 63Q615 77 626.0 87.5Q637 98 651 98Q663 98 673.0 90.0Q683 82 687 71Q695 82 701.0 90.0Q707 98 723 98Q737 98 748.0 87.5Q759 77 759 63Q759 49 748 35ZM1611 35Q1614 36 1621 36Q1635 36 1646.5 25.5Q1658 15 1658 0Q1658 -22 1643.0 -28.5Q1628 -35 1611 -35Q1616 -41 1619.0 -47.5Q1622 -54 1622 -62Q1622 -77 1611.5 -87.5Q1601 -98 1586 -98Q1573 -98 1563.0 -90.0Q1553 -82 1550 -70Q1544 -82 1536.5 -90.0Q1529 -98 1514 -98Q1500 -98 1489.0 -87.0Q1478 -76 1478 -62Q1478 -54 1481.0 -47.5Q1484 -41 1489 -35Q1470 -35 1456.0 -29.0Q1442 -23 1442 0Q1442 15 1453.0 25.5Q1464 36 1479 36Q1486 36 1489 35Q1478 49 1478 63Q1478 77 1489.0 87.5Q1500 98 1514 98Q1530 98 1536.0 90.0Q1542 82 1550 71Q1554 83 1563.5 90.5Q1573 98 1586 98Q1601 98 1611.5 88.0Q1622 78 1622 63Q1622 49 1611 35ZM728 467H736Q745 467 754.5 469.5Q764 472 764 485Q764 499 753.5 501.0Q743 503 732 503H728Q727 506 723 512Q726 518 730.0 523.5Q734 529 734 536Q734 544 729.0 549.0Q724 554 716 554Q705 554 701.0 545.5Q697 537 692 530H682Q678 538 674.0 545.0Q670 552 660 552Q642 552 642 534Q642 528 645.0 522.5Q648 517 651 512Q647 506 646 503H639Q629 503 620.0 500.0Q611 497 611 485Q611 471 621.0 469.0Q631 467 642 467H646Q648 461 651 459Q648 453 644.0 447.5Q640 442 640 435Q640 417 658 417Q669 417 673.0 425.0Q677 433 682 441L687 440L692 441Q697 433 701.0 425.0Q705 417 716 417Q734 417 734 435Q734 442 730.0 447.5Q726 453 723 459Q726 462 728 467ZM728 1420H736Q745 1420 754.5 1422.5Q764 1425 764 1438Q764 1452 753.5 1454.0Q743 1456 732 1456H728Q727 1458 726.0 1460.0Q725 1462 723 1464Q726 1470 730.0 1475.5Q734 1481 734 1488Q734 1496 729.5 1501.0Q725 1506 717 1506Q706 1506 701.5 1498.0Q697 1490 692 1482L687 1483L682 1482Q682 1483 681.0 1484.0Q680 1485 680 1486Q680 1487 679.0 1488.0Q678 1489 678 1490Q678 1495 671.0 1499.5Q664 1504 659 1504Q642 1504 642 1486Q642 1480 645.0 1474.5Q648 1469 651 1464Q647 1460 646 1456H639Q629 1456 620.0 1453.0Q611 1450 611 1438Q611 1424 621.0 1422.0Q631 1420 642 1420H646Q647 1417 651 1411Q648 1406 644.0 1400.5Q640 1395 640 1388Q640 1380 645.0 1374.5Q650 1369 658 1369Q669 1369 673.0 1377.0Q677 1385 682 1393H692Q697 1385 701.0 1377.0Q705 1369 716 1369Q724 1369 729.0 1374.5Q734 1380 734 1388Q734 1395 730.0 1400.5Q726 1406 723 1411Q727 1417 728 1420ZM1591 467H1598Q1608 467 1617.0 470.0Q1626 473 1626 485Q1626 499 1615.0 501.0Q1604 503 1593 503Q1592 503 1590.0 506.5Q1588 510 1586 512Q1589 517 1592.5 523.0Q1596 529 1596 536Q1596 554 1578 554Q1567 554 1563.0 546.0Q1559 538 1555 530H1545Q1541 537 1536.5 544.5Q1532 552 1522 552Q1514 552 1509.0 547.0Q1504 542 1504 534Q1504 528 1507.5 522.5Q1511 517 1514 512Q1510 506 1509 503H1501Q1492 503 1482.5 500.5Q1473 498 1473 485Q1473 471 1483.5 469.0Q1494 467 1505 467H1509Q1511 461 1514 459Q1511 453 1507.0 447.5Q1503 442 1503 435Q1503 417 1521 417Q1532 417 1536.0 425.0Q1540 433 1545 441L1550 440L1555 441Q1560 433 1564.0 425.0Q1568 417 1579 417Q1596 417 1596 435Q1596 442 1592.5 448.0Q1589 454 1586 459Q1588 461 1588.5 463.0Q1589 465 1591 467ZM1160 1186H1167Q1177 1186 1186.0 1189.0Q1195 1192 1195 1204Q1195 1218 1184.0 1220.0Q1173 1222 1162 1222Q1161 1222 1159.0 1225.5Q1157 1229 1155 1231Q1158 1236 1161.5 1242.0Q1165 1248 1165 1255Q1165 1272 1148 1272Q1137 1272 1132.5 1264.5Q1128 1257 1123 1249H1113Q1113 1250 1112.5 1250.5Q1112 1251 1112 1252Q1109 1260 1105.0 1265.0Q1101 1270 1090 1270Q1073 1270 1073 1253Q1073 1247 1076.5 1241.5Q1080 1236 1082 1231L1077 1222H1070Q1060 1222 1051.0 1219.0Q1042 1216 1042 1204Q1042 1190 1052.0 1188.0Q1062 1186 1073 1186H1077L1082 1177Q1079 1172 1075.5 1166.5Q1072 1161 1072 1154Q1072 1136 1089 1136Q1100 1136 1104.0 1143.5Q1108 1151 1113 1159H1123Q1128 1151 1132.5 1143.5Q1137 1136 1148 1136Q1165 1136 1165 1154Q1165 1161 1161.5 1166.5Q1158 1172 1155 1177ZM728 -18H736Q745 -18 754.5 -15.5Q764 -13 764 0Q764 14 753.5 16.0Q743 18 732 18H728Q727 21 723 27Q726 32 730.0 37.5Q734 43 734 50Q734 68 716 68Q706 68 701.5 60.0Q697 52 692 45H682Q682 46 681.5 46.5Q681 47 681 48Q678 56 674.0 61.0Q670 66 659 66Q642 66 642 49Q642 43 645.5 37.5Q649 32 651 27Q647 21 646 18H639Q629 18 620.0 15.0Q611 12 611 0Q611 -14 621.0 -16.0Q631 -18 642 -18H646Q648 -24 651 -26Q648 -32 644.0 -37.5Q640 -43 640 -50Q640 -68 658 -68Q669 -68 673.0 -60.0Q677 -52 682 -44L687 -45L692 -44Q697 -52 701.0 -60.0Q705 -68 716 -68Q734 -68 734 -50Q734 -43 730.0 -37.5Q726 -32 723 -26Q726 -23 728 -18ZM1591 935H1598Q1608 935 1617.0 938.0Q1626 941 1626 953Q1626 967 1615.0 969.0Q1604 971 1593 971Q1592 971 1590.0 974.0Q1588 977 1586 979Q1589 984 1592.5 990.0Q1596 996 1596 1003Q1596 1021 1579 1021Q1568 1021 1564.0 1013.0Q1560 1005 1555 997H1545Q1540 1004 1535.5 1011.5Q1531 1019 1521 1019Q1513 1019 1508.5 1014.0Q1504 1009 1504 1001Q1504 995 1507.5 989.5Q1511 984 1514 979Q1510 975 1509 971H1501Q1492 971 1482.5 968.5Q1473 966 1473 953Q1473 939 1483.5 937.0Q1494 935 1505 935H1509Q1510 932 1514 926Q1511 920 1507.0 914.5Q1503 909 1503 902Q1503 884 1521 884Q1532 884 1536.0 892.0Q1540 900 1545 908H1555Q1560 900 1564.0 892.0Q1568 884 1579 884Q1596 884 1596 902Q1596 909 1592.5 915.0Q1589 921 1586 926ZM1591 -18H1598Q1608 -18 1617.0 -15.0Q1626 -12 1626 0Q1626 14 1615.0 16.0Q1604 18 1593 18Q1592 18 1590.0 21.5Q1588 25 1586 27Q1589 32 1592.5 38.0Q1596 44 1596 51Q1596 68 1579 68Q1568 68 1564.0 60.5Q1560 53 1555 45H1545Q1540 52 1536.0 59.0Q1532 66 1522 66Q1504 66 1504 48Q1504 42 1507.5 37.0Q1511 32 1514 27Q1510 21 1509 18H1501Q1492 18 1482.5 15.5Q1473 13 1473 0Q1473 -14 1483.5 -16.0Q1494 -18 1505 -18H1509Q1511 -24 1514 -26Q1511 -32 1507.0 -37.5Q1503 -43 1503 -50Q1503 -68 1521 -68Q1532 -68 1536.0 -60.0Q1540 -52 1545 -44L1550 -45L1555 -44Q1560 -52 1564.0 -60.0Q1568 -68 1579 -68Q1596 -68 1596 -50Q1596 -43 1592.5 -37.0Q1589 -31 1586 -26Q1588 -24 1588.5 -22.0Q1589 -20 1591 -18Z" style="fill:#1c1c1c;stroke:none" transform="scale(1,-1) translate(0,-256)" /></svg>