<?xml version="1.0" encoding="utf-8" ?>
<svg baseProfile="full" height="256" version="1.1" width="256" xmlns="http://www.w3.org/2000/svg" xmlns:ev="http://www.w3.org/2001/xml-events" xmlns:xlink="http://www.w3.org/1999/xlink"><defs /><path d="M2484 862Q2484 804 2468.0 749.5Q2452 695 2422.5 647.5Q2393 600 2351.5 562.0Q2310 524 2258 498Q2258 411 2227.5 334.5Q2197 258 2142.5 201.0Q2088 144 2013.0 111.0Q1938 78 1850 78Q1751 78 1664 124Q1616 65 1548.0 32.5Q1480 0 1405 0Q1330 0 1262.0 32.5Q1194 65 1146 124Q1059 78 959 78Q911 78 865.0 88.5Q819 99 776 121Q802 87 816.5 47.0Q831 7 831 -36Q831 -88 811.0 -134.0Q791 -180 757.0 -214.0Q723 -248 677.0 -267.5Q631 -287 579 -287Q527 -287 481.0 -267.5Q435 -248 401.0 -214.0Q367 -180 347.5 -134.0Q328 -88 328 -36Q328 16 347.5 62.0Q367 108 401.0 142.0Q435 176 481.0 196.0Q527 216 579 216Q624 216 669 199Q608 261 580.0 336.5Q552 412 552 498Q500 524 458.5 562.5Q417 601 388.0 648.0Q359 695 343.5 749.5Q328 804 328 862Q328 920 343.5 974.5Q359 1029 388.5 1076.0Q418 1123 459.5 1161.5Q501 1200 553 1227Q552 1231 552 1238Q552 1322 584.0 1397.0Q616 1472 671.5 1527.5Q727 1583 801.0 1615.5Q875 1648 960 1648Q1009 1648 1056.0 1636.0Q1103 1624 1146 1601Q1194 1661 1262.0 1693.0Q1330 1725 1406 1725Q1482 1725 1550.0 1692.5Q1618 1660 1666 1601Q1753 1647 1852 1647Q1940 1647 2015.0 1613.5Q2090 1580 2144.5 1523.0Q2199 1466 2229.5 1389.5Q2260 1313 2260 1226Q2312 1200 2353.5 1161.5Q2395 1123 2424.0 1076.0Q2453 1029 2468.5 974.5Q2484 920 2484 862Z" style="fill:#9b9b9b;stroke:none" transform="scale(1,-1) translate(0,-256)" /></svg>