<?xml version="1.0" encoding="utf-8" ?>
<svg baseProfile="full" height="256" version="1.1" width="256" xmlns="http://www.w3.org/2000/svg" xmlns:ev="http://www.w3.org/2001/xml-events" xmlns:xlink="http://www.w3.org/1999/xlink"><defs /><path d="M2412 862Q2412 808 2395.0 757.5Q2378 707 2347.5 665.0Q2317 623 2274.5 591.5Q2232 560 2181 543Q2183 529 2184.5 515.0Q2186 501 2186 487Q2186 418 2159.5 356.5Q2133 295 2087.5 249.0Q2042 203 1981.0 176.0Q1920 149 1850 149Q1793 149 1740.0 169.0Q1687 189 1642 224Q1610 154 1546.0 113.0Q1482 72 1405 72Q1326 72 1264.0 113.0Q1202 154 1167 224Q1123 188 1069.5 168.5Q1016 149 959 149Q889 149 828.0 176.0Q767 203 721.5 249.0Q676 295 649.5 356.5Q623 418 623 487Q623 501 626.0 514.5Q629 528 629 542V543Q578 560 535.5 592.0Q493 624 463.0 666.0Q433 708 416.5 758.0Q400 808 400 862Q400 916 416.5 966.5Q433 1017 463.5 1059.0Q494 1101 536.5 1132.5Q579 1164 630 1182Q628 1196 626.0 1210.0Q624 1224 624 1238Q624 1308 650.5 1369.5Q677 1431 722.5 1477.0Q768 1523 829.0 1549.5Q890 1576 960 1576Q1019 1576 1070.5 1556.5Q1122 1537 1168 1501Q1183 1536 1208.0 1564.0Q1233 1592 1264.5 1612.0Q1296 1632 1332.0 1642.5Q1368 1653 1406 1653Q1444 1653 1480.0 1642.0Q1516 1631 1547.0 1611.5Q1578 1592 1603.0 1563.5Q1628 1535 1644 1501Q1689 1536 1742.0 1555.5Q1795 1575 1852 1575Q1922 1575 1983.0 1548.5Q2044 1522 2089.5 1476.0Q2135 1430 2161.5 1369.0Q2188 1308 2188 1238Q2188 1224 2185.5 1210.5Q2183 1197 2183 1183V1181Q2234 1164 2276.5 1132.0Q2319 1100 2349.0 1058.0Q2379 1016 2395.5 966.0Q2412 916 2412 862ZM759 -36Q759 -73 745.0 -105.5Q731 -138 706.5 -162.5Q682 -187 649.0 -201.0Q616 -215 579 -215Q542 -215 509.5 -201.0Q477 -187 452.5 -162.5Q428 -138 414.0 -105.5Q400 -73 400 -36Q400 1 414.0 34.0Q428 67 452.5 91.5Q477 116 509.5 130.0Q542 144 579 144Q616 144 649.0 130.0Q682 116 706.5 91.5Q731 67 745.0 34.0Q759 1 759 -36Z" style="fill:#ffffff;stroke:none" transform="scale(1,-1) translate(0,-256)" /></svg>