<?xml version="1.0" encoding="utf-8" ?>
<svg baseProfile="full" height="256" version="1.1" width="256" xmlns="http://www.w3.org/2000/svg" xmlns:ev="http://www.w3.org/2001/xml-events" xmlns:xlink="http://www.w3.org/1999/xlink"><defs /><path d="M400 227Q400 248 410.0 268.0Q420 288 436.0 305.0Q452 322 471.0 335.5Q490 349 508 357L543 324Q553 292 568.0 277.0Q583 262 615 252L1514 -36Q1543 -46 1577.0 -49.0Q1611 -52 1642 -52Q1688 -52 1720.5 -38.0Q1753 -24 1777.5 -3.5Q1802 17 1822.0 41.5Q1842 66 1863.0 86.5Q1884 107 1908.5 121.0Q1933 135 1967 135Q1982 135 2006.0 130.0Q2030 125 2059.0 116.0Q2088 107 2119.0 96.5Q2150 86 2178.0 75.0Q2206 64 2230.0 53.5Q2254 43 2268 36Q2315 11 2343.5 -18.0Q2372 -47 2387.0 -82.5Q2402 -118 2407.0 -159.5Q2412 -201 2412 -251Q2412 -266 2401.5 -276.5Q2391 -287 2376 -287H1300Q1271 -287 1254.0 -276.5Q1237 -266 1226.5 -250.0Q1216 -234 1208.5 -215.5Q1201 -197 1190.0 -181.0Q1179 -165 1162.0 -154.5Q1145 -144 1116 -144H400Z" style="fill:#00a6ed;stroke:none" transform="scale(1,-1) translate(0,-256)" /></svg>