<?xml version="1.0" encoding="utf-8" ?>
<svg baseProfile="full" height="256" version="1.1" width="256" xmlns="http://www.w3.org/2000/svg" xmlns:ev="http://www.w3.org/2001/xml-events" xmlns:xlink="http://www.w3.org/1999/xlink"><defs /><path d="M1047 1438H1907Q1937 1438 1958.0 1417.0Q1979 1396 1979 1366V290Q1979 245 1962.0 206.0Q1945 167 1915.5 137.5Q1886 108 1847.0 91.0Q1808 74 1763 74H1626Q1596 74 1575.0 95.0Q1554 116 1554 146Q1554 184 1575.0 199.0Q1596 214 1627.0 217.5Q1658 221 1694.5 218.0Q1731 215 1762.0 218.5Q1793 222 1814.0 237.0Q1835 252 1835 290V566Q1835 575 1826 575H1092Q1085 575 1083 568Q1079 554 1077.0 539.0Q1075 524 1071 510Q1062 471 1050.5 433.0Q1039 395 1024 357Q994 282 950.5 215.5Q907 149 853 89Q829 62 797 62Q767 62 746.0 83.5Q725 105 725 134Q725 158 741 179Q764 209 785.0 235.5Q806 262 824.5 289.0Q843 316 860.0 345.5Q877 375 891 411Q917 477 933.5 552.0Q950 627 959.0 704.5Q968 782 971.5 859.0Q975 936 975 1006V1366Q975 1396 996.0 1417.0Q1017 1438 1047 1438ZM1106 729Q1106 719 1115 719H1826Q1835 719 1835 728V926Q1835 935 1826 935H1127Q1118 935 1118 926Q1116 898 1115.5 870.0Q1115 842 1113 813Q1111 793 1108.5 771.0Q1106 749 1106 729ZM1826 1294H1127Q1118 1294 1118 1285V1087Q1118 1078 1127 1078H1826Q1835 1078 1835 1087V1285Q1835 1294 1826 1294Z" style="fill:#ffffff;stroke:none" transform="scale(1,-1) translate(0,-256)" /></svg>