<?xml version="1.0" encoding="utf-8" ?>
<svg baseProfile="full" height="256" version="1.1" width="256" xmlns="http://www.w3.org/2000/svg" xmlns:ev="http://www.w3.org/2001/xml-events" xmlns:xlink="http://www.w3.org/1999/xlink"><defs /><path d="M1381 1451Q1352 1451 1327.5 1461.5Q1303 1472 1284.0 1491.0Q1265 1510 1254.5 1534.5Q1244 1559 1244 1588Q1244 1616 1254.5 1641.0Q1265 1666 1284.0 1685.0Q1303 1704 1327.5 1714.5Q1352 1725 1381 1725Q1409 1725 1434.0 1714.5Q1459 1704 1478.0 1685.0Q1497 1666 1507.5 1641.0Q1518 1616 1518 1588Q1518 1559 1507.5 1534.5Q1497 1510 1478.0 1491.0Q1459 1472 1434.0 1461.5Q1409 1451 1381 1451ZM1397 136Q1274 136 1166.5 182.5Q1059 229 978.5 309.5Q898 390 851.5 497.5Q805 605 805 728Q805 809 826.0 884.5Q847 960 886.0 1026.0Q925 1092 979.0 1146.0Q1033 1200 1098.5 1238.5Q1164 1277 1239.5 1298.0Q1315 1319 1397 1319Q1519 1319 1626.5 1272.5Q1734 1226 1814.5 1145.5Q1895 1065 1941.5 957.5Q1988 850 1988 728Q1988 646 1967.0 570.5Q1946 495 1907.5 429.5Q1869 364 1815.0 310.0Q1761 256 1695.0 217.0Q1629 178 1553.5 157.0Q1478 136 1397 136ZM1397 1104Q1319 1104 1250.5 1074.5Q1182 1045 1131.0 994.0Q1080 943 1050.5 874.5Q1021 806 1021 728Q1021 650 1050.5 581.5Q1080 513 1131.0 462.0Q1182 411 1250.5 381.5Q1319 352 1397 352Q1475 352 1543.5 381.5Q1612 411 1663.0 462.0Q1714 513 1743.5 581.5Q1773 650 1773 728Q1773 806 1743.5 874.5Q1714 943 1663.0 994.0Q1612 1045 1543.5 1074.5Q1475 1104 1397 1104ZM915 1325Q915 1296 904.5 1271.5Q894 1247 875.0 1228.0Q856 1209 831.0 1198.5Q806 1188 778 1188Q749 1188 724.0 1198.5Q699 1209 680.5 1228.0Q662 1247 651.0 1271.5Q640 1296 640 1325Q640 1353 651.0 1378.0Q662 1403 680.5 1422.0Q699 1441 724.0 1451.5Q749 1462 778 1462Q806 1462 831.0 1451.5Q856 1441 875.0 1422.0Q894 1403 904.5 1378.0Q915 1353 915 1325ZM537 575Q509 575 484.0 586.0Q459 597 440.5 615.5Q422 634 411.0 659.0Q400 684 400 712Q400 740 410.5 765.5Q421 791 440.0 809.5Q459 828 483.5 839.0Q508 850 537 850Q565 850 590.0 839.0Q615 828 634.0 809.5Q653 791 663.5 765.5Q674 740 674 712Q674 684 663.0 659.0Q652 634 633.5 615.5Q615 597 590.0 586.0Q565 575 537 575ZM937 109Q937 80 926.5 55.0Q916 30 897.0 11.5Q878 -7 853.0 -18.0Q828 -29 800 -29Q771 -29 746.5 -18.0Q722 -7 703.0 11.5Q684 30 673.5 55.0Q663 80 663 109Q663 137 673.5 162.0Q684 187 703.0 206.0Q722 225 746.5 235.5Q771 246 800 246Q828 246 853.0 235.5Q878 225 897.0 206.0Q916 187 926.5 162.0Q937 137 937 109ZM1412 -269Q1383 -269 1358.5 -258.0Q1334 -247 1315.0 -228.0Q1296 -209 1285.5 -184.0Q1275 -159 1275 -131Q1275 -103 1286.0 -78.0Q1297 -53 1315.5 -34.5Q1334 -16 1359.0 -5.0Q1384 6 1412 6Q1440 6 1465.0 -4.5Q1490 -15 1509.0 -34.0Q1528 -53 1539.0 -78.0Q1550 -103 1550 -131Q1550 -160 1539.0 -185.0Q1528 -210 1509.5 -228.5Q1491 -247 1465.5 -258.0Q1440 -269 1412 -269ZM2153 131Q2153 102 2142.5 77.5Q2132 53 2113.0 34.0Q2094 15 2069.0 4.5Q2044 -6 2016 -6Q1987 -6 1962.5 4.5Q1938 15 1919.0 34.0Q1900 53 1889.5 77.5Q1879 102 1879 131Q1879 159 1889.5 184.0Q1900 209 1919.0 228.0Q1938 247 1962.5 257.5Q1987 268 2016 268Q2044 268 2069.0 257.5Q2094 247 2113.0 228.0Q2132 209 2142.5 184.0Q2153 159 2153 131ZM2256 607Q2227 607 2202.5 617.5Q2178 628 2159.0 647.0Q2140 666 2129.5 690.5Q2119 715 2119 744Q2119 772 2129.5 797.0Q2140 822 2159.0 841.0Q2178 860 2202.5 870.5Q2227 881 2256 881Q2284 881 2309.5 870.5Q2335 860 2353.5 841.0Q2372 822 2383.0 797.0Q2394 772 2394 744Q2394 715 2383.0 690.5Q2372 666 2353.5 647.0Q2335 628 2309.5 617.5Q2284 607 2256 607ZM2131 1347Q2131 1318 2120.5 1293.5Q2110 1269 2091.0 1250.0Q2072 1231 2047.0 1220.5Q2022 1210 1994 1210Q1965 1210 1940.5 1220.5Q1916 1231 1897.0 1250.0Q1878 1269 1867.5 1293.5Q1857 1318 1857 1347Q1857 1375 1867.5 1400.0Q1878 1425 1897.0 1444.0Q1916 1463 1940.5 1473.5Q1965 1484 1994 1484Q2022 1484 2047.0 1473.5Q2072 1463 2091.0 1444.0Q2110 1425 2120.5 1400.0Q2131 1375 2131 1347Z" style="fill:#ffb02e;stroke:none" transform="scale(1,-1) translate(0,-256)" /></svg>