<?xml version="1.0" encoding="utf-8" ?>
<svg baseProfile="full" height="256" version="1.1" width="256" xmlns="http://www.w3.org/2000/svg" xmlns:ev="http://www.w3.org/2001/xml-events" xmlns:xlink="http://www.w3.org/1999/xlink"><defs /><path d="M1979 1725Q2003 1675 2016.0 1621.5Q2029 1568 2029 1513Q2029 1444 2010.0 1378.5Q1991 1313 1955.5 1256.5Q1920 1200 1869.5 1154.0Q1819 1108 1756 1078Q1707 1179 1707 1289Q1707 1359 1726.0 1424.5Q1745 1490 1780.5 1546.5Q1816 1603 1866.5 1649.0Q1917 1695 1979 1725ZM1391 1218Q1421 1156 1421 1086Q1421 1042 1409.0 1001.0Q1397 960 1375.0 924.5Q1353 889 1321.5 860.0Q1290 831 1251 812L1120 1080Q1105 1111 1097.5 1144.5Q1090 1178 1090 1212Q1090 1256 1102.0 1297.0Q1114 1338 1136.0 1373.5Q1158 1409 1190.0 1438.0Q1222 1467 1261 1486ZM1000 759Q1039 679 1039 589Q1039 533 1023.5 481.0Q1008 429 979.5 383.5Q951 338 911.0 301.0Q871 264 821 240L655 582Q616 661 616 752Q616 807 631.5 859.5Q647 912 675.5 957.5Q704 1003 744.0 1040.0Q784 1077 834 1101ZM2263 757Q2257 699 2230.5 649.5Q2204 600 2163.5 563.5Q2123 527 2070.5 506.0Q2018 485 1960 485Q1952 485 1944.5 485.5Q1937 486 1929 487L1633 518Q1639 575 1665.0 625.0Q1691 675 1731.5 711.5Q1772 748 1824.0 769.0Q1876 790 1934 790Q1942 790 1950.0 789.5Q1958 789 1966 788ZM2025 277Q2017 203 1984.0 139.0Q1951 75 1899.0 28.5Q1847 -18 1780.5 -44.5Q1714 -71 1639 -71Q1628 -71 1618.0 -70.5Q1608 -70 1598 -69L1220 -29Q1227 45 1260.5 108.5Q1294 172 1345.5 218.5Q1397 265 1464.0 291.5Q1531 318 1605 318Q1616 318 1626.0 317.5Q1636 317 1647 316Z" style="fill:#86d72f;stroke:none" transform="scale(1,-1) translate(0,-256)" /></svg>