<?xml version="1.0" encoding="utf-8" ?>
<svg baseProfile="full" height="256" version="1.1" width="256" xmlns="http://www.w3.org/2000/svg" xmlns:ev="http://www.w3.org/2001/xml-events" xmlns:xlink="http://www.w3.org/1999/xlink"><defs /><path d="M929 20Q925 29 913.0 52.0Q901 75 886.0 105.5Q871 136 854.5 169.5Q838 203 824.0 232.5Q810 262 801.0 283.0Q792 304 792 309Q792 327 805.0 340.5Q818 354 836 354Q849 354 859.5 347.0Q870 340 875 329L969 135Q1026 279 1123.5 400.5Q1221 522 1349 609Q1344 618 1332.5 641.0Q1321 664 1306.0 694.0Q1291 724 1275.0 757.0Q1259 790 1245.5 819.0Q1232 848 1223.5 869.0Q1215 890 1215 896Q1215 913 1228.0 926.0Q1241 939 1258 939Q1271 939 1282.0 932.0Q1293 925 1298 914L1420 663Q1522 747 1594.5 852.0Q1667 957 1711 1081L1739 1160Q1749 1189 1779 1189Q1797 1189 1810.0 1176.5Q1823 1164 1823 1145Q1823 1137 1819.5 1124.5Q1816 1112 1811.0 1098.5Q1806 1085 1801.0 1072.5Q1796 1060 1793 1052Q1704 798 1504 619L1713 597Q1733 595 1742.5 581.0Q1752 567 1752 549Q1752 533 1737.5 522.0Q1723 511 1709 511H1704L1406 542Q1404 540 1398 536Q1273 451 1182.5 335.5Q1092 220 1040 78L1309 50Q1329 48 1338.5 34.0Q1348 20 1348 2Q1348 -14 1333.5 -25.0Q1319 -36 1305 -36H1300L1011 -6L914 -287L832 -259Z" style="fill:#44911b;stroke:none" transform="scale(1,-1) translate(0,-256)" /></svg>