<?xml version="1.0" encoding="utf-8" ?>
<svg baseProfile="full" height="256" version="1.1" width="256" xmlns="http://www.w3.org/2000/svg" xmlns:ev="http://www.w3.org/2001/xml-events" xmlns:xlink="http://www.w3.org/1999/xlink"><defs /><path d="M1837 288Q1837 199 1803.0 120.0Q1769 41 1710.5 -17.5Q1652 -76 1573.5 -110.0Q1495 -144 1406 -144Q1317 -144 1238.5 -110.0Q1160 -76 1101.5 -17.5Q1043 41 1009.0 120.0Q975 199 975 288Q975 377 1009.0 455.5Q1043 534 1101.5 592.5Q1160 651 1238.5 685.0Q1317 719 1406 719Q1495 719 1573.5 685.0Q1652 651 1710.5 592.5Q1769 534 1803.0 455.5Q1837 377 1837 288Z" style="fill:#321b41;stroke:none" transform="scale(1,-1) translate(0,-256)" /></svg>