<?xml version="1.0" encoding="utf-8" ?>
<svg baseProfile="full" height="256" version="1.1" width="256" xmlns="http://www.w3.org/2000/svg" xmlns:ev="http://www.w3.org/2001/xml-events" xmlns:xlink="http://www.w3.org/1999/xlink"><defs /><path d="M830 1401H832L999 1174Q1003 1168 1013.0 1160.5Q1023 1153 1034.5 1145.0Q1046 1137 1057.0 1130.0Q1068 1123 1074 1118L1225 1007V1006L1074 895Q1068 890 1057.0 883.0Q1046 876 1034.5 868.0Q1023 860 1013.0 852.5Q1003 845 999 839L832 612H830L663 839Q659 845 649.0 852.5Q639 860 627.5 868.0Q616 876 605.0 883.0Q594 890 588 895L437 1006V1007L588 1118Q594 1123 605.0 1130.0Q616 1137 627.5 1145.0Q639 1153 649.0 1160.5Q659 1168 663 1174Z" style="fill:#fcd53f;stroke:none" transform="scale(1,-1) translate(0,-256)" /></svg>