<?xml version="1.0" encoding="utf-8" ?>
<svg baseProfile="full" height="256" version="1.1" width="256" xmlns="http://www.w3.org/2000/svg" xmlns:ev="http://www.w3.org/2001/xml-events" xmlns:xlink="http://www.w3.org/1999/xlink"><defs /><path d="M1852 -286H1418Q1397 -198 1397 -107Q1397 -5 1421.0 87.0Q1445 179 1480.5 265.0Q1516 351 1558.0 433.5Q1600 516 1635.5 598.0Q1671 680 1695.0 765.0Q1719 850 1719 941Q1719 998 1709.0 1053.5Q1699 1109 1677.5 1159.5Q1656 1210 1621.5 1253.5Q1587 1297 1538 1330Q1519 1343 1495.0 1355.5Q1471 1368 1448 1374Q1439 1372 1428.0 1366.0Q1417 1360 1417 1348Q1417 1337 1422.5 1328.0Q1428 1319 1428 1309Q1428 1299 1415.5 1294.0Q1403 1289 1387.0 1286.5Q1371 1284 1356.0 1284.0Q1341 1284 1335 1284Q1315 1332 1290.0 1379.5Q1265 1427 1236 1469Q1287 1483 1337.5 1491.5Q1388 1500 1440 1500Q1519 1500 1592.0 1479.0Q1665 1458 1729.5 1420.0Q1794 1382 1849.0 1328.5Q1904 1275 1947 1211Q1992 1203 2031.5 1176.0Q2071 1149 2104.0 1111.5Q2137 1074 2162.0 1031.0Q2187 988 2202 949Q2259 941 2297.5 912.5Q2336 884 2360.0 842.5Q2384 801 2394.5 750.5Q2405 700 2405 649V-123Q2405 -177 2389.5 -208.5Q2374 -240 2345.5 -257.0Q2317 -274 2278.0 -279.5Q2239 -285 2193 -286V-287H1852Z" style="fill:#1c1c1c;stroke:none" transform="scale(1,-1) translate(0,-256)" /></svg>