<?xml version="1.0" encoding="utf-8" ?>
<svg baseProfile="full" height="256" version="1.1" width="256" xmlns="http://www.w3.org/2000/svg" xmlns:ev="http://www.w3.org/2001/xml-events" xmlns:xlink="http://www.w3.org/1999/xlink"><defs /><path d="M1894 -286H1793Q1770 -217 1761.0 -140.0Q1752 -63 1752 9Q1752 102 1764.0 179.0Q1776 256 1797.0 328.5Q1818 401 1846.5 474.0Q1875 547 1907 632Q1921 669 1933.5 701.5Q1946 734 1955.5 766.5Q1965 799 1970.5 833.5Q1976 868 1976 909Q1976 965 1964.5 1024.0Q1953 1083 1932.5 1140.5Q1912 1198 1883.0 1251.0Q1854 1304 1819 1348L1831 1346Q1879 1302 1919.0 1249.5Q1959 1197 1987.5 1138.5Q2016 1080 2031.5 1016.5Q2047 953 2047 887Q2047 843 2039.5 800.0Q2032 757 2020.0 715.0Q2008 673 1993.0 631.5Q1978 590 1963 550Q1939 485 1919.0 425.0Q1899 365 1884.0 305.0Q1869 245 1861.0 182.0Q1853 119 1853 48Q1853 -37 1864.0 -120.0Q1875 -203 1894 -286ZM2240 751Q2240 823 2220.5 893.5Q2201 964 2165 1027H2161Q2166 994 2173.0 961.5Q2180 929 2186.5 897.0Q2193 865 2197.5 832.0Q2202 799 2202 765Q2202 689 2176 613Q2152 544 2125.0 466.0Q2098 388 2075.5 307.5Q2053 227 2038.0 147.5Q2023 68 2023 -5Q2023 -37 2028.5 -74.0Q2034 -111 2043.5 -148.5Q2053 -186 2065.0 -221.5Q2077 -257 2090 -287H2193Q2129 -106 2129 83Q2129 221 2157.5 354.5Q2186 488 2222 620Q2240 684 2240 751Z" style="fill:#6d4534;stroke:none" transform="scale(1,-1) translate(0,-256)" /></svg>