<?xml version="1.0" encoding="utf-8" ?>
<svg baseProfile="full" height="256" version="1.1" width="256" xmlns="http://www.w3.org/2000/svg" xmlns:ev="http://www.w3.org/2001/xml-events" xmlns:xlink="http://www.w3.org/1999/xlink"><defs /><path d="M1336 1218Q1294 1218 1267.5 1232.5Q1241 1247 1226.0 1272.0Q1211 1297 1204.5 1329.0Q1198 1361 1196 1397Q1194 1434 1192.0 1471.0Q1190 1508 1190 1546Q1190 1560 1193.5 1573.5Q1197 1587 1217 1587Q1224 1587 1227.5 1585.0Q1231 1583 1236 1579Q1250 1568 1273.0 1549.5Q1296 1531 1322.0 1508.0Q1348 1485 1375.5 1459.0Q1403 1433 1425.5 1408.5Q1448 1384 1463.5 1362.0Q1479 1340 1482 1325Q1483 1320 1483 1311Q1483 1283 1468.0 1265.0Q1453 1247 1431.0 1236.5Q1409 1226 1383.5 1222.0Q1358 1218 1336 1218Z" style="fill:#a56953;stroke:none" transform="scale(1,-1) translate(0,-256)" /></svg>