<?xml version="1.0" encoding="utf-8" ?>
<svg baseProfile="full" height="256" version="1.1" width="256" xmlns="http://www.w3.org/2000/svg" xmlns:ev="http://www.w3.org/2001/xml-events" xmlns:xlink="http://www.w3.org/1999/xlink"><defs /><path d="M1340 1489Q1349 1489 1361.0 1488.0Q1373 1487 1383.5 1483.0Q1394 1479 1401.0 1471.5Q1408 1464 1408 1451Q1408 1438 1401.0 1424.0Q1394 1410 1383.5 1396.5Q1373 1383 1361.5 1371.5Q1350 1360 1342 1351Q1312 1321 1293.5 1289.0Q1275 1257 1261.0 1225.5Q1247 1194 1235.0 1164.0Q1223 1134 1206.0 1107.0Q1189 1080 1163.5 1057.5Q1138 1035 1099 1018Q1068 1005 1032.0 997.5Q996 990 962 990Q905 990 855.5 1015.5Q806 1041 778 1093Q770 1106 765.0 1121.0Q760 1136 760 1151Q760 1178 788 1178Q814 1178 838.5 1169.0Q863 1160 890 1160Q903 1160 915.5 1162.5Q928 1165 940 1170Q954 1176 967.5 1193.0Q981 1210 993.0 1231.0Q1005 1252 1014.5 1272.5Q1024 1293 1032 1306Q1044 1326 1056.5 1345.0Q1069 1364 1083 1382Q1101 1406 1132.5 1425.5Q1164 1445 1200.5 1459.0Q1237 1473 1274.0 1481.0Q1311 1489 1340 1489Z" style="fill:#1c1c1c;stroke:none" transform="scale(1,-1) translate(0,-256)" /></svg>