<?xml version="1.0" encoding="utf-8" ?>
<svg baseProfile="full" height="256" version="1.1" width="256" xmlns="http://www.w3.org/2000/svg" xmlns:ev="http://www.w3.org/2001/xml-events" xmlns:xlink="http://www.w3.org/1999/xlink"><defs /><path d="M1619 1363Q1619 1319 1620.5 1275.5Q1622 1232 1622 1188Q1622 1179 1620.5 1169.5Q1619 1160 1620 1151H1619Q1613 1104 1590.5 1065.0Q1568 1026 1535.0 997.0Q1502 968 1459.5 952.0Q1417 936 1371 936L1083 935Q1069 935 1058.0 946.0Q1047 957 1047 971Q1047 986 1057.5 996.5Q1068 1007 1083 1007H1195Q1157 1042 1137.5 1089.0Q1118 1136 1118 1187Q1118 1239 1138.0 1285.0Q1158 1331 1192.0 1365.0Q1226 1399 1272.0 1419.0Q1318 1439 1370 1439Q1420 1439 1466.0 1420.5Q1512 1402 1548 1367Q1547 1394 1538.0 1417.0Q1529 1440 1518.5 1457.5Q1508 1475 1499.5 1485.5Q1491 1496 1491 1498Q1491 1509 1502 1509L1664 1510Q1669 1510 1672.0 1506.0Q1675 1502 1675 1497Q1675 1495 1666.0 1484.0Q1657 1473 1646.5 1455.5Q1636 1438 1627.5 1414.5Q1619 1391 1619 1363ZM1548 1217Q1548 1222 1544.5 1233.5Q1541 1245 1539 1250Q1519 1303 1473.0 1335.0Q1427 1367 1370 1367Q1333 1367 1300.0 1353.0Q1267 1339 1242.5 1314.5Q1218 1290 1204.0 1257.0Q1190 1224 1190 1187Q1190 1150 1204.5 1117.0Q1219 1084 1243.5 1059.5Q1268 1035 1301.0 1021.0Q1334 1007 1371 1007Q1428 1007 1474.0 1039.5Q1520 1072 1540 1126Q1542 1131 1545.0 1142.5Q1548 1154 1548 1159Z" style="fill:#ff822d;stroke:none" transform="scale(1,-1) translate(0,-256)" /></svg>