<?xml version="1.0" encoding="utf-8" ?>
<svg baseProfile="full" height="256" version="1.1" width="256" xmlns="http://www.w3.org/2000/svg" xmlns:ev="http://www.w3.org/2001/xml-events" xmlns:xlink="http://www.w3.org/1999/xlink"><defs /><path d="M1981 -287H1623Q1623 -287 1607.5 -282.0Q1592 -277 1569.5 -269.5Q1547 -262 1520.0 -253.5Q1493 -245 1469.0 -237.0Q1445 -229 1427.5 -223.0Q1410 -217 1406 -216Q1402 -217 1384.5 -223.0Q1367 -229 1343.5 -237.0Q1320 -245 1293.0 -253.5Q1266 -262 1243.0 -269.5Q1220 -277 1205.0 -282.0Q1190 -287 1190 -287H831V1567Q831 1602 845.5 1622.0Q860 1642 882.5 1652.0Q905 1662 933.5 1664.5Q962 1667 989 1667H1823Q1851 1667 1879.0 1664.5Q1907 1662 1929.5 1652.0Q1952 1642 1966.5 1622.0Q1981 1602 1981 1567Z" style="fill:#d3d3d3;stroke:none" transform="scale(1,-1) translate(0,-256)" /></svg>