<?xml version="1.0" encoding="utf-8" ?>
<svg baseProfile="full" height="256" version="1.1" width="256" xmlns="http://www.w3.org/2000/svg" xmlns:ev="http://www.w3.org/2001/xml-events" xmlns:xlink="http://www.w3.org/1999/xlink"><defs /><path d="M1981 1725Q2010 1725 2031.5 1703.5Q2053 1682 2053 1653Q2053 1624 2031.5 1602.5Q2010 1581 1981 1581H831Q802 1581 780.5 1602.5Q759 1624 759 1653Q759 1683 780.0 1704.0Q801 1725 831 1725ZM903 -287Q903 -276 903.0 -263.0Q903 -250 899.5 -239.5Q896 -229 887.5 -222.0Q879 -215 863 -215H799Q783 -215 774.5 -222.0Q766 -229 762.5 -239.5Q759 -250 759.0 -263.0Q759 -276 759 -287H687V0Q687 30 698.5 56.0Q710 82 729.5 101.5Q749 121 775.0 132.5Q801 144 831 144Q861 144 887.0 132.5Q913 121 932.5 101.5Q952 82 963.5 56.0Q975 30 975 0V-287Z" style="fill:#f8312f;stroke:none" transform="scale(1,-1) translate(0,-256)" /></svg>