<?xml version="1.0" encoding="utf-8" ?>
<svg baseProfile="full" height="256" version="1.1" width="256" xmlns="http://www.w3.org/2000/svg" xmlns:ev="http://www.w3.org/2001/xml-events" xmlns:xlink="http://www.w3.org/1999/xlink"><defs /><path d="M1190 45Q1190 87 1218.5 115.5Q1247 144 1289 144H1523Q1543 144 1561.0 136.0Q1579 128 1592.5 114.5Q1606 101 1614.0 83.0Q1622 65 1622 45V-287H1190ZM795 0Q780 0 769.5 10.5Q759 21 759 36Q759 51 769.5 61.5Q780 72 795 72H867Q882 72 892.5 61.5Q903 51 903 36Q903 21 892.5 10.5Q882 0 867 0Z" style="fill:#1c1c1c;stroke:none" transform="scale(1,-1) translate(0,-256)" /></svg>