<?xml version="1.0" encoding="utf-8" ?>
<svg baseProfile="full" height="256" version="1.1" width="256" xmlns="http://www.w3.org/2000/svg" xmlns:ev="http://www.w3.org/2001/xml-events" xmlns:xlink="http://www.w3.org/1999/xlink"><defs /><path d="M1083 575Q1068 575 1057.5 585.5Q1047 596 1047 611V756Q1047 771 1057.5 781.5Q1068 792 1083 792H1299Q1313 792 1324.0 781.0Q1335 770 1335 756V611Q1335 597 1324.0 586.0Q1313 575 1299 575ZM715 360H587Q569 360 556.0 372.5Q543 385 543 403V747Q543 765 556.0 778.0Q569 791 587 791H715Q733 791 746.0 778.0Q759 765 759 747V403Q759 385 745.5 372.5Q732 360 715 360ZM2097 360Q2079 360 2066.0 372.5Q2053 385 2053 403V747Q2053 765 2066.0 778.0Q2079 791 2097 791H2225Q2243 791 2255.5 778.0Q2268 765 2268 747V403Q2268 386 2255.0 373.0Q2242 360 2225 360ZM1298 288H1082Q1067 288 1056.5 298.5Q1046 309 1046 324V468Q1046 483 1056.5 493.5Q1067 504 1082 504H1298Q1313 504 1323.5 493.5Q1334 483 1334 468V324Q1334 310 1323.0 299.0Q1312 288 1298 288ZM1729 288H1513Q1499 288 1488.0 299.0Q1477 310 1477 324V468Q1477 483 1487.5 493.5Q1498 504 1513 504H1729Q1744 504 1754.5 493.5Q1765 483 1765 468V324Q1765 309 1754.5 298.5Q1744 288 1729 288ZM1514 575Q1499 575 1488.5 585.5Q1478 596 1478 611V756Q1478 770 1489.0 781.0Q1500 792 1514 792H1730Q1745 792 1755.5 781.5Q1766 771 1766 756V611Q1766 597 1755.0 586.0Q1744 575 1730 575Z" style="fill:#83cbff;stroke:none" transform="scale(1,-1) translate(0,-256)" /></svg>