<?xml version="1.0" encoding="utf-8" ?>
<svg baseProfile="full" height="256" version="1.1" width="256" xmlns="http://www.w3.org/2000/svg" xmlns:ev="http://www.w3.org/2001/xml-events" xmlns:xlink="http://www.w3.org/1999/xlink"><defs /><path d="M1476 130Q1440 130 1408.5 143.5Q1377 157 1353.0 181.0Q1329 205 1315.5 236.5Q1302 268 1302 304Q1302 340 1315.5 371.5Q1329 403 1353.0 426.5Q1377 450 1408.5 463.5Q1440 477 1476 477Q1512 477 1543.5 463.5Q1575 450 1599.0 426.5Q1623 403 1636.5 371.5Q1650 340 1650 304Q1650 268 1636.5 236.5Q1623 205 1599.0 181.0Q1575 157 1543.5 143.5Q1512 130 1476 130Z" style="fill:#ffb02e;stroke:none" transform="scale(1,-1) translate(0,-256)" /></svg>