<?xml version="1.0" encoding="utf-8" ?>
<svg baseProfile="full" height="256" version="1.1" width="256" xmlns="http://www.w3.org/2000/svg" xmlns:ev="http://www.w3.org/2001/xml-events" xmlns:xlink="http://www.w3.org/1999/xlink"><defs /><path d="M1770 -153Q1783 -174 1783 -199Q1783 -214 1777.5 -229.5Q1772 -245 1762.0 -257.5Q1752 -270 1738.5 -278.5Q1725 -287 1709 -287Q1683 -287 1669.5 -277.5Q1656 -268 1645.0 -256.5Q1634 -245 1622.0 -235.5Q1610 -226 1588 -226Q1568 -226 1555.5 -235.5Q1543 -245 1532.0 -256.5Q1521 -268 1508.5 -277.5Q1496 -287 1475 -287Q1455 -287 1442.5 -277.5Q1430 -268 1419.0 -256.5Q1408 -245 1395.5 -235.5Q1383 -226 1362 -226Q1342 -226 1329.5 -235.5Q1317 -245 1306.0 -256.5Q1295 -268 1282.5 -277.5Q1270 -287 1249 -287Q1231 -287 1216.5 -280.0Q1202 -273 1191.0 -261.0Q1180 -249 1174.0 -233.5Q1168 -218 1168 -201Q1168 -174 1181 -154L1389 183H1562Z" style="fill:#f8312f;stroke:none" transform="scale(1,-1) translate(0,-256)" /></svg>