<?xml version="1.0" encoding="utf-8" ?>
<svg baseProfile="full" height="256" version="1.1" width="256" xmlns="http://www.w3.org/2000/svg" xmlns:ev="http://www.w3.org/2001/xml-events" xmlns:xlink="http://www.w3.org/1999/xlink"><defs /><path d="M1537 1407Q1507 1396 1478 1396Q1430 1396 1390.0 1421.5Q1350 1447 1329 1490Q1330 1487 1330.0 1483.5Q1330 1480 1330 1477Q1330 1443 1317.0 1413.0Q1304 1383 1281.5 1360.5Q1259 1338 1229.0 1325.0Q1199 1312 1165 1312Q1140 1312 1115.5 1319.5Q1091 1327 1071 1342Q1100 1299 1100 1247Q1100 1209 1086.0 1178.5Q1072 1148 1048.0 1127.0Q1024 1106 991.5 1094.5Q959 1083 923 1083Q966 1063 991.0 1023.0Q1016 983 1016 935Q1016 887 990.5 846.0Q965 805 921 785Q926 786 936 786Q970 786 1000.0 773.0Q1030 760 1052.0 737.5Q1074 715 1087.0 685.0Q1100 655 1100 621Q1100 596 1092.5 571.5Q1085 547 1071 527Q1091 541 1115.5 549.0Q1140 557 1165 557Q1199 557 1229.0 544.0Q1259 531 1281.5 508.5Q1304 486 1317.0 456.0Q1330 426 1330 392Q1330 358 1317.0 328.0Q1304 298 1281.5 275.5Q1259 253 1229.0 240.0Q1199 227 1165 227Q1131 227 1101.0 240.0Q1071 253 1049.0 275.5Q1027 298 1014.0 328.0Q1001 358 1001 392Q1001 417 1008.5 441.5Q1016 466 1030 486Q1010 472 985.5 464.5Q961 457 936 457Q902 457 872.0 470.0Q842 483 819.5 505.0Q797 527 784.0 557.0Q771 587 771 621Q771 669 797.0 710.0Q823 751 867 771Q862 770 852 770Q818 770 788.0 783.0Q758 796 735.5 818.5Q713 841 700.0 871.0Q687 901 687 935Q687 973 701.0 1003.5Q715 1034 739.5 1055.0Q764 1076 796.5 1087.5Q829 1099 865 1099Q822 1119 796.5 1159.0Q771 1199 771 1247Q771 1281 784.0 1311.0Q797 1341 819.5 1363.5Q842 1386 872.0 1399.0Q902 1412 936 1412Q961 1412 985.5 1404.5Q1010 1397 1030 1382Q1001 1425 1001 1477Q1001 1511 1014.0 1540.5Q1027 1570 1049.5 1592.5Q1072 1615 1101.5 1628.0Q1131 1641 1165 1641Q1213 1641 1253.0 1615.5Q1293 1590 1314 1547Q1313 1552 1313 1561Q1313 1595 1326.0 1625.0Q1339 1655 1361.5 1677.0Q1384 1699 1414.0 1712.0Q1444 1725 1478 1725Q1508 1725 1535.0 1714.5Q1562 1704 1584.0 1686.0Q1606 1668 1620.5 1643.0Q1635 1618 1640 1588Q1674 1602 1710 1602Q1746 1602 1777.5 1588.5Q1809 1575 1833.0 1551.0Q1857 1527 1870.5 1495.5Q1884 1464 1884 1428Q1884 1393 1871.0 1361.5Q1858 1330 1835.0 1307.0Q1812 1284 1781.0 1270.0Q1750 1256 1715 1255Q1732 1232 1742.0 1204.5Q1752 1177 1752 1148Q1752 1096 1723 1053Q1757 1050 1786.5 1035.5Q1816 1021 1837.5 997.5Q1859 974 1871.5 943.5Q1884 913 1884 879Q1884 846 1871 812Q1905 830 1946 830Q1982 830 2013.5 816.5Q2045 803 2069.0 779.0Q2093 755 2106.5 723.5Q2120 692 2120 656Q2120 618 2104.0 584.5Q2088 551 2061.5 526.5Q2035 502 2000.0 489.5Q1965 477 1927 483Q1946 446 1946 402Q1946 366 1932.5 334.5Q1919 303 1895.5 279.0Q1872 255 1840.5 241.5Q1809 228 1773 228Q1737 228 1705.5 241.5Q1674 255 1650.0 279.0Q1626 303 1612.5 334.5Q1599 366 1599 402Q1599 439 1615.0 473.0Q1631 507 1657.5 531.5Q1684 556 1719.0 568.5Q1754 581 1792 575Q1773 612 1773 656Q1773 693 1786 723Q1768 715 1749.0 710.0Q1730 705 1710 705Q1674 705 1642.5 718.5Q1611 732 1587.0 756.0Q1563 780 1549.5 811.5Q1536 843 1536 879Q1536 930 1564 975Q1530 977 1500.5 992.0Q1471 1007 1449.5 1030.0Q1428 1053 1416.0 1083.5Q1404 1114 1404 1148Q1404 1183 1417.0 1214.0Q1430 1245 1453.0 1268.5Q1476 1292 1506.5 1306.5Q1537 1321 1572 1322Q1543 1360 1537 1407Z" style="fill:#ffce7c;stroke:none" transform="scale(1,-1) translate(0,-256)" /></svg>