<?xml version="1.0" encoding="utf-8" ?>
<svg baseProfile="full" height="256" version="1.1" width="256" xmlns="http://www.w3.org/2000/svg" xmlns:ev="http://www.w3.org/2001/xml-events" xmlns:xlink="http://www.w3.org/1999/xlink"><defs /><path d="M993 1195Q1021 1153 1034.0 1104.5Q1047 1056 1047 1006Q1047 967 1038.5 926.5Q1030 886 1012.0 849.5Q994 813 967.0 783.0Q940 753 903 735Q905 729 905 725Q905 721 903 721Q892 721 872.5 727.5Q853 734 843 739Q810 754 781.5 778.5Q753 803 732.0 833.5Q711 864 699.0 899.0Q687 934 687 971Q687 1023 707.0 1068.5Q727 1114 761.5 1148.0Q796 1182 841.5 1202.0Q887 1222 939 1222Q969 1222 1001 1214ZM597 120Q633 165 685.0 190.5Q737 216 795 216Q847 216 893.0 196.0Q939 176 973.0 142.0Q1007 108 1027.0 62.0Q1047 16 1047 -36Q1047 -81 1032.0 -122.0Q1017 -163 988 -197Q872 -143 772.5 -63.0Q673 17 597 120Z" style="fill:#321b41;stroke:none" transform="scale(1,-1) translate(0,-256)" /></svg>