<?xml version="1.0" encoding="utf-8" ?>
<svg baseProfile="full" height="256" version="1.1" width="256" xmlns="http://www.w3.org/2000/svg" xmlns:ev="http://www.w3.org/2001/xml-events" xmlns:xlink="http://www.w3.org/1999/xlink"><defs /><path d="M2125 719Q2125 587 2108.5 481.5Q2092 376 2051.5 286.0Q2011 196 1942.5 116.0Q1874 36 1769 -44Q1681 -110 1589.5 -169.0Q1498 -228 1406 -287H1382Q1314 -287 1242.0 -274.5Q1170 -262 1106 -242Q948 -193 818.0 -98.5Q688 -4 595.0 123.0Q502 250 451.0 402.0Q400 554 400 719Q400 884 451.0 1036.5Q502 1189 595.0 1315.5Q688 1442 818.0 1536.5Q948 1631 1106 1680Q1176 1702 1243.5 1711.5Q1311 1721 1383 1725H1406Q1558 1641 1689.5 1543.5Q1821 1446 1917.5 1325.5Q2014 1205 2069.5 1055.5Q2125 906 2125 719Z" style="fill:#533566;stroke:none" transform="scale(1,-1) translate(0,-256)" /></svg>