<?xml version="1.0" encoding="utf-8" ?>
<svg baseProfile="full" height="256" version="1.1" width="256" xmlns="http://www.w3.org/2000/svg" xmlns:ev="http://www.w3.org/2001/xml-events" xmlns:xlink="http://www.w3.org/1999/xlink"><defs /><path d="M1703 1510Q1784 1468 1848.5 1407.0Q1913 1346 1958.5 1271.5Q2004 1197 2028.5 1111.5Q2053 1026 2053 935V503Q2053 412 2028.5 326.5Q2004 241 1958.5 166.5Q1913 92 1848.5 31.0Q1784 -30 1703 -72H1109Q1028 -30 963.5 31.0Q899 92 853.5 166.5Q808 241 783.5 326.5Q759 412 759 503V935Q759 1026 783.5 1111.5Q808 1197 853.5 1271.5Q899 1346 963.5 1407.0Q1028 1468 1109 1510Z" style="fill:#ff822d;stroke:none" transform="scale(1,-1) translate(0,-256)" /></svg>