<?xml version="1.0" encoding="utf-8" ?>
<svg baseProfile="full" height="256" version="1.1" width="256" xmlns="http://www.w3.org/2000/svg" xmlns:ev="http://www.w3.org/2001/xml-events" xmlns:xlink="http://www.w3.org/1999/xlink"><defs /><path d="M1888 1366Q1915 1335 1938.5 1301.5Q1962 1268 1981 1231V1222H831V1231Q868 1304 924 1366ZM2037 1078Q2045 1043 2049.0 1007.0Q2053 971 2053 935H759Q759 971 763.0 1007.0Q767 1043 775 1078ZM2053 647H759V791H2053ZM2053 503Q2053 467 2049.0 431.0Q2045 395 2037 360H775Q767 395 763.0 431.0Q759 467 759 503ZM1981 207Q1962 170 1938.5 136.5Q1915 103 1888 72H924Q868 133 831 207V216H1981Z" style="fill:#ca0b4a;stroke:none" transform="scale(1,-1) translate(0,-256)" /></svg>