<?xml version="1.0" encoding="utf-8" ?>
<svg baseProfile="full" height="256" version="1.1" width="256" xmlns="http://www.w3.org/2000/svg" xmlns:ev="http://www.w3.org/2001/xml-events" xmlns:xlink="http://www.w3.org/1999/xlink"><defs /><path d="M2372 1278Q2393 1257 2393 1227Q2393 1197 2372 1176L1990 795Q1979 784 1965 784Q1950 784 1939.5 795.0Q1929 806 1929 820Q1929 835 1940 846L2321 1227L1965 1583L2016 1634ZM1076 846Q1090 860 1110.5 881.5Q1131 903 1152.5 925.0Q1174 947 1195.0 966.5Q1216 986 1231 996L1683 544Q1673 529 1653.5 508.0Q1634 487 1612.0 465.5Q1590 444 1568.5 423.5Q1547 403 1533 389ZM720 -171Q705 -186 691.5 -198.0Q678 -210 663.5 -219.0Q649 -228 631.5 -233.0Q614 -238 592 -238Q562 -238 536.0 -227.0Q510 -216 490.5 -196.5Q471 -177 460.0 -151.0Q449 -125 449 -95Q449 -73 454.0 -55.5Q459 -38 468.0 -23.5Q477 -9 489.0 4.5Q501 18 516 33Z" style="fill:#f9c23c;stroke:none" transform="scale(1,-1) translate(0,-256)" /></svg>