<?xml version="1.0" encoding="utf-8" ?>
<svg baseProfile="full" height="256" version="1.1" width="256" xmlns="http://www.w3.org/2000/svg" xmlns:ev="http://www.w3.org/2001/xml-events" xmlns:xlink="http://www.w3.org/1999/xlink"><defs /><path d="M2270 1278 1682 543Q1647 546 1619.5 534.5Q1592 523 1572.5 501.5Q1553 480 1543.0 451.0Q1533 422 1534 389Q1506 361 1476 341L720 -170L584 -108L517 33L1028 789Q1032 795 1038.0 803.0Q1044 811 1050.5 819.5Q1057 828 1064.0 835.0Q1071 842 1076 846Q1107 845 1135.5 856.5Q1164 868 1185.0 888.5Q1206 909 1218.5 936.5Q1231 964 1231 996L1965 1583L1974 1574Q2000 1631 2053.0 1664.0Q2106 1697 2168 1697Q2213 1697 2252.5 1680.0Q2292 1663 2321.0 1634.0Q2350 1605 2367.0 1565.5Q2384 1526 2384 1481Q2384 1419 2351.0 1366.0Q2318 1313 2261 1287Z" style="fill:#0074ba;stroke:none" transform="scale(1,-1) translate(0,-256)" /></svg>