<?xml version="1.0" encoding="utf-8" ?>
<svg baseProfile="full" height="256" version="1.1" width="256" xmlns="http://www.w3.org/2000/svg" xmlns:ev="http://www.w3.org/2001/xml-events" xmlns:xlink="http://www.w3.org/1999/xlink"><defs /><path d="M939 1402 979 1343Q1030 1334 1074.5 1309.0Q1119 1284 1152.0 1246.5Q1185 1209 1204.0 1162.0Q1223 1115 1223 1062V950L1163 935L1106 988V1077Q1106 1107 1094.5 1134.0Q1083 1161 1063.5 1182.0Q1044 1203 1018.0 1217.0Q992 1231 963 1237L903 1186L856 1229Q832 1220 811.5 1205.0Q791 1190 776.0 1170.0Q761 1150 752.0 1126.5Q743 1103 743 1077V309Q743 281 764.0 264.5Q785 248 811 248Q837 248 857.5 265.0Q878 282 878 309V825Q878 849 896.0 864.0Q914 879 937 879Q960 879 978.0 864.0Q996 849 996 825V324Q996 286 981.5 252.5Q967 219 941.5 194.0Q916 169 882.5 155.0Q849 141 811 141Q776 141 745 153L744 155V153Q719 162 697.5 177.5Q676 193 660.0 213.0Q644 233 635.0 257.5Q626 282 626 309V1098Q626 1118 632.0 1137.5Q638 1157 647 1175Q715 1314 867 1343L903 1402ZM1105 855 1163 890 1223 831V166Q1223 83 1188.0 14.5Q1153 -54 1095.5 -103.5Q1038 -153 964.0 -180.5Q890 -208 811 -208Q730 -208 655.5 -178.5Q581 -149 524.0 -97.5Q467 -46 433.5 25.5Q400 97 400 181V825Q400 849 418.0 864.0Q436 879 459 879Q482 879 500.0 864.0Q518 849 518 825V166Q518 107 542.5 58.0Q567 9 608.0 -26.5Q649 -62 702.0 -81.5Q755 -101 811 -101Q869 -101 922.5 -79.5Q976 -58 1016.5 -20.0Q1057 18 1081.0 69.5Q1105 121 1105 181Z" style="fill:#bebebe;stroke:none" transform="scale(1,-1) translate(0,-256)" /></svg>