<?xml version="1.0" encoding="utf-8" ?>
<svg baseProfile="full" height="256" version="1.1" width="256" xmlns="http://www.w3.org/2000/svg" xmlns:ev="http://www.w3.org/2001/xml-events" xmlns:xlink="http://www.w3.org/1999/xlink"><defs /><path d="M979 1343Q965 1343 952.5 1346.0Q940 1349 926 1349Q911 1349 896.5 1347.0Q882 1345 867 1343Q882 1409 917.5 1465.5Q953 1522 1003.0 1563.5Q1053 1605 1115.0 1629.0Q1177 1653 1245 1653H1888Q1911 1653 1926.5 1635.5Q1942 1618 1942 1595Q1942 1573 1927.0 1554.5Q1912 1536 1889 1536H1230Q1186 1536 1146.0 1521.0Q1106 1506 1073.5 1480.0Q1041 1454 1016.5 1419.0Q992 1384 979 1343ZM2163 1427Q2183 1427 2201.5 1421.0Q2220 1415 2238 1406Q2322 1365 2367.0 1292.5Q2412 1220 2412 1127Q2412 1068 2390.0 1014.0Q2368 960 2329.5 919.0Q2291 878 2238.5 854.0Q2186 830 2126 830H1230Q1149 830 1081.5 863.5Q1014 897 964.5 952.5Q915 1008 886.5 1080.0Q858 1152 856 1229Q873 1234 890.0 1237.5Q907 1241 924 1241Q942 1241 962 1238Q964 1180 986.0 1127.5Q1008 1075 1045.5 1035.0Q1083 995 1134.0 971.5Q1185 948 1245 948H2142Q2178 948 2208.5 963.5Q2239 979 2261.0 1004.0Q2283 1029 2295.0 1061.5Q2307 1094 2307 1129Q2307 1163 2294.5 1195.5Q2282 1228 2259.5 1253.5Q2237 1279 2206.5 1294.5Q2176 1310 2141 1310H1373Q1345 1310 1328.5 1289.0Q1312 1268 1312 1242Q1312 1216 1329.0 1195.5Q1346 1175 1373 1175H1889Q1912 1175 1927.0 1156.5Q1942 1138 1942 1116Q1942 1093 1927.5 1075.0Q1913 1057 1889 1057H1387Q1348 1057 1315.0 1072.0Q1282 1087 1257.5 1112.5Q1233 1138 1219.0 1172.0Q1205 1206 1205 1244Q1205 1275 1216 1308L1218 1309H1217Q1226 1334 1241.0 1355.5Q1256 1377 1276.5 1393.0Q1297 1409 1321.5 1418.0Q1346 1427 1373 1427Z" style="fill:#9b9b9b;stroke:none" transform="scale(1,-1) translate(0,-256)" /></svg>