<?xml version="1.0" encoding="utf-8" ?>
<svg baseProfile="full" height="256" version="1.1" width="256" xmlns="http://www.w3.org/2000/svg" xmlns:ev="http://www.w3.org/2001/xml-events" xmlns:xlink="http://www.w3.org/1999/xlink"><defs /><path d="M1262 1366 1467 1571Q1477 1581 1493 1581H1677Q1686 1581 1686 1572Q1686 1571 1677.0 1556.0Q1668 1541 1653.5 1519.5Q1639 1498 1622.5 1473.0Q1606 1448 1590.5 1425.5Q1575 1403 1564.0 1386.5Q1553 1370 1550 1366Q1536 1347 1518.5 1329.0Q1501 1311 1486 1294H1693Q1693 1315 1692.5 1340.0Q1692 1365 1698.0 1387.0Q1704 1409 1719.0 1423.5Q1734 1438 1765 1438H2412V1294Q2412 1294 2407.0 1278.0Q2402 1262 2395.5 1242.5Q2389 1223 2383.0 1206.0Q2377 1189 2376 1186Q2384 1160 2395.5 1132.0Q2407 1104 2412 1078Q2412 1077 2412.0 1066.5Q2412 1056 2412.0 1043.5Q2412 1031 2412.0 1020.0Q2412 1009 2412 1006L2341 935L2412 863V503L2259 304L2412 72V-179H687Q661 -179 646.5 -158.0Q632 -137 625.0 -107.5Q618 -78 616.5 -48.0Q615 -18 615 0Q615 20 606.0 41.0Q597 62 579 72L747 359Q759 380 768.5 397.5Q778 415 787.5 432.0Q797 449 807.0 466.0Q817 483 831 503Q870 543 902 575Q915 588 928.0 601.0Q941 614 951.5 624.0Q962 634 968.5 640.5Q975 647 975 647Q977 648 987.0 653.5Q997 659 1011.5 666.5Q1026 674 1043.0 682.5Q1060 691 1075.0 698.5Q1090 706 1102.0 712.0Q1114 718 1118 720V791Q1131 804 1142.5 824.0Q1154 844 1154 863L1202 899Q1200 900 1192.5 905.5Q1185 911 1176.5 917.5Q1168 924 1161.0 929.5Q1154 935 1154 935Q1127 967 1102.5 1005.0Q1078 1043 1054 1078L1084 1150L953 1222L903 1294H1326Z" style="fill:#cdc4d6;stroke:none" transform="scale(1,-1) translate(0,-256)" /></svg>