<?xml version="1.0" encoding="utf-8" ?>
<svg baseProfile="full" height="256" version="1.1" width="256" xmlns="http://www.w3.org/2000/svg" xmlns:ev="http://www.w3.org/2001/xml-events" xmlns:xlink="http://www.w3.org/1999/xlink"><defs /><path d="M2413 -287H400V-72Q445 -72 472.5 -84.5Q500 -97 525.0 -112.0Q550 -127 578.0 -139.5Q606 -152 651 -152Q696 -152 723.5 -139.5Q751 -127 776.0 -112.0Q801 -97 829.0 -84.5Q857 -72 902 -72Q947 -72 975.0 -84.5Q1003 -97 1028.0 -112.0Q1053 -127 1081.0 -139.5Q1109 -152 1154 -152Q1199 -152 1226.5 -139.5Q1254 -127 1279.0 -112.0Q1304 -97 1332.0 -84.5Q1360 -72 1405 -72Q1450 -72 1478.0 -84.5Q1506 -97 1531.0 -112.0Q1556 -127 1584.0 -139.5Q1612 -152 1657 -152Q1702 -152 1730.0 -139.5Q1758 -127 1783.0 -112.0Q1808 -97 1835.5 -84.5Q1863 -72 1908 -72Q1953 -72 1981.5 -84.5Q2010 -97 2035.0 -112.0Q2060 -127 2088.0 -139.5Q2116 -152 2161 -152Q2206 -152 2234.0 -139.5Q2262 -127 2286.5 -112.0Q2311 -97 2339.5 -84.5Q2368 -72 2413 -72Z" style="fill:#5092ff;stroke:none" transform="scale(1,-1) translate(0,-256)" /></svg>