<?xml version="1.0" encoding="utf-8" ?>
<svg baseProfile="full" height="256" version="1.1" width="256" xmlns="http://www.w3.org/2000/svg" xmlns:ev="http://www.w3.org/2001/xml-events" xmlns:xlink="http://www.w3.org/1999/xlink"><defs /><path d="M1771 1258Q1771 1273 1781.5 1283.5Q1792 1294 1807 1294H2412V1078H1807Q1792 1078 1781.5 1088.5Q1771 1099 1771 1114ZM1118 791 974 647H1190Q1219 647 1240.5 668.5Q1262 690 1262 719Q1262 748 1240.5 769.5Q1219 791 1190 791ZM1412 647Q1442 647 1463.0 668.0Q1484 689 1484 719Q1484 749 1463.0 770.0Q1442 791 1412 791Q1382 791 1361.0 770.0Q1340 749 1340 719Q1340 689 1361.0 668.0Q1382 647 1412 647ZM1699 719Q1699 689 1678.0 668.0Q1657 647 1627 647Q1598 647 1577.0 668.5Q1556 690 1556 719Q1556 748 1577.0 769.5Q1598 791 1627 791Q1657 791 1678.0 770.0Q1699 749 1699 719ZM1843 647Q1873 647 1894.0 668.0Q1915 689 1915 719Q1915 749 1894.0 770.0Q1873 791 1843 791Q1813 791 1792.0 770.0Q1771 749 1771 719Q1771 689 1792.0 668.0Q1813 647 1843 647ZM2131 719Q2131 690 2109.5 668.5Q2088 647 2059 647Q2029 647 2008.0 668.0Q1987 689 1987 719Q1987 749 2008.0 770.0Q2029 791 2059 791Q2088 791 2109.5 769.5Q2131 748 2131 719ZM2274 647Q2304 647 2325.0 668.0Q2346 689 2346 719Q2346 749 2325.0 770.0Q2304 791 2274 791Q2245 791 2223.5 769.5Q2202 748 2202 719Q2202 690 2223.5 668.5Q2245 647 2274 647ZM953 1222 1055 1078H1263Q1292 1078 1313.5 1099.5Q1335 1121 1335 1150Q1335 1180 1314.0 1201.0Q1293 1222 1263 1222Z" style="fill:#00a6ed;stroke:none" transform="scale(1,-1) translate(0,-256)" /></svg>