<?xml version="1.0" encoding="utf-8" ?>
<svg baseProfile="full" height="256" version="1.1" width="256" xmlns="http://www.w3.org/2000/svg" xmlns:ev="http://www.w3.org/2001/xml-events" xmlns:xlink="http://www.w3.org/1999/xlink"><defs /><path d="M2412 1006V935L2053 910Q2027 908 2005.5 906.0Q1984 904 1963.0 902.0Q1942 900 1920.5 898.5Q1899 897 1873 897Q1847 897 1825.5 898.5Q1804 900 1783.0 902.0Q1762 904 1740.5 906.0Q1719 908 1693 910L1334 935V971Q1334 985 1345.0 995.5Q1356 1006 1370 1006ZM2412 503V431L1789 408Q1744 406 1706.5 404.0Q1669 402 1633.5 400.0Q1598 398 1561.0 397.0Q1524 396 1478 396Q1436 396 1401.5 397.0Q1367 398 1334.0 400.0Q1301 402 1266.5 404.0Q1232 406 1190 408L615 431V467Q615 482 625.5 492.5Q636 503 651 503Z" style="fill:#433b6b;stroke:none" transform="scale(1,-1) translate(0,-256)" /></svg>