<?xml version="1.0" encoding="utf-8" ?>
<svg baseProfile="full" height="256" version="1.1" width="256" xmlns="http://www.w3.org/2000/svg" xmlns:ev="http://www.w3.org/2001/xml-events" xmlns:xlink="http://www.w3.org/1999/xlink"><defs /><path d="M1015 556Q1015 499 1037.5 450.0Q1060 401 1098.5 365.0Q1137 329 1187.5 308.5Q1238 288 1294 288H1839Q1833 240 1821.0 200.0Q1809 160 1786.0 131.5Q1763 103 1726.5 87.5Q1690 72 1636 72H966Q910 72 859.0 92.5Q808 113 770.0 149.0Q732 185 709.5 234.5Q687 284 687 341V1457Q687 1514 709.5 1563.0Q732 1612 770.5 1648.0Q809 1684 859.5 1704.5Q910 1725 966 1725H1637Q1686 1725 1733.0 1711.0Q1780 1697 1817.5 1669.5Q1855 1642 1880.0 1602.0Q1905 1562 1912 1510L1722 1457Q1718 1458 1701.5 1462.5Q1685 1467 1662.0 1472.5Q1639 1478 1613.0 1485.0Q1587 1492 1565.5 1497.5Q1544 1503 1529.0 1506.5Q1514 1510 1514 1510H1294Q1238 1510 1187.0 1489.5Q1136 1469 1098.0 1433.0Q1060 1397 1037.5 1347.5Q1015 1298 1015 1241V556Z" style="fill:#635994;stroke:none" transform="scale(1,-1) translate(0,-256)" /></svg>