<?xml version="1.0" encoding="utf-8" ?>
<svg baseProfile="full" height="256" version="1.1" width="256" xmlns="http://www.w3.org/2000/svg" xmlns:ev="http://www.w3.org/2001/xml-events" xmlns:xlink="http://www.w3.org/1999/xlink"><defs /><path d="M1832 719H1555Q1525 719 1501.5 739.0Q1478 759 1478 791Q1478 822 1501.5 842.5Q1525 863 1555 863H1832Q1862 863 1885.5 842.5Q1909 822 1909 791Q1909 759 1885.5 739.0Q1862 719 1832 719ZM1412 -261Q1445 -261 1468.5 -237.0Q1492 -213 1492 -180Q1492 -147 1468.5 -123.5Q1445 -100 1412 -100Q1379 -100 1355.0 -123.5Q1331 -147 1331 -180Q1331 -214 1354.5 -237.5Q1378 -261 1412 -261ZM2056 -180Q2056 -214 2032.5 -237.5Q2009 -261 1975 -261Q1942 -261 1918.5 -237.0Q1895 -213 1895 -180Q1895 -147 1918.5 -123.5Q1942 -100 1975 -100Q2008 -100 2032.0 -123.5Q2056 -147 2056 -180Z" style="fill:#d3d3d3;stroke:none" transform="scale(1,-1) translate(0,-256)" /></svg>