<?xml version="1.0" encoding="utf-8" ?>
<svg baseProfile="full" height="256" version="1.1" width="256" xmlns="http://www.w3.org/2000/svg" xmlns:ev="http://www.w3.org/2001/xml-events" xmlns:xlink="http://www.w3.org/1999/xlink"><defs /><path d="M1720 523Q1720 500 1701.0 480.5Q1682 461 1659.0 442.0Q1636 423 1617.0 403.5Q1598 384 1598 360Q1598 340 1605.5 320.5Q1613 301 1622.0 281.0Q1631 261 1638.5 241.0Q1646 221 1646 202Q1646 182 1632.0 167.5Q1618 153 1598 153Q1579 153 1554.0 165.0Q1529 177 1502.0 192.0Q1475 207 1449.0 219.0Q1423 231 1404 231Q1385 231 1359.5 219.0Q1334 207 1307.0 192.0Q1280 177 1255.0 165.0Q1230 153 1211 153Q1191 153 1177.0 168.0Q1163 183 1163 203Q1163 222 1170.5 242.0Q1178 262 1187.0 282.0Q1196 302 1203.5 321.5Q1211 341 1211 360Q1211 383 1192.0 403.0Q1173 423 1150.0 441.5Q1127 460 1108.0 480.0Q1089 500 1089 523Q1089 542 1100.5 555.5Q1112 569 1131 572L1264 592Q1281 594 1293.0 608.5Q1305 623 1314.0 643.0Q1323 663 1331.5 685.5Q1340 708 1349.5 727.0Q1359 746 1372.5 758.5Q1386 771 1405 771Q1424 771 1437.0 758.5Q1450 746 1460.0 727.0Q1470 708 1478.0 685.5Q1486 663 1495.0 643.0Q1504 623 1516.0 608.5Q1528 594 1545 592L1678 572Q1697 569 1708.5 555.5Q1720 542 1720 523Z" style="fill:#6d4534;stroke:none" transform="scale(1,-1) translate(0,-256)" /></svg>