<?xml version="1.0" encoding="utf-8" ?>
<svg baseProfile="full" height="256" version="1.1" width="256" xmlns="http://www.w3.org/2000/svg" xmlns:ev="http://www.w3.org/2001/xml-events" xmlns:xlink="http://www.w3.org/1999/xlink"><defs /><path d="M1459 1057Q1472 1063 1476.5 1074.5Q1481 1086 1485.0 1100.5Q1489 1115 1496.0 1131.5Q1503 1148 1522 1165Q1536 1177 1551.0 1188.0Q1566 1199 1580 1211Q1616 1239 1651.0 1268.0Q1686 1297 1721 1327Q1833 1421 1939.0 1519.5Q2045 1618 2146 1724H2171Q2199 1724 2224.0 1713.5Q2249 1703 2267.5 1684.5Q2286 1666 2296.5 1641.0Q2307 1616 2307 1588Q2307 1569 2302.5 1553.5Q2298 1538 2289 1521Q2221 1393 2119.5 1290.0Q2018 1187 1900 1106Q1855 1074 1809.5 1057.5Q1764 1041 1708 1041H1383V1042L1403 1044L957 1725H1113Q1151 1725 1180.5 1707.5Q1210 1690 1230 1658L1417 1350L1459 1057Z" style="fill:#f8312f;stroke:none" transform="scale(1,-1) translate(0,-256)" /></svg>