<?xml version="1.0" encoding="utf-8" ?>
<svg baseProfile="full" height="256" version="1.1" width="256" xmlns="http://www.w3.org/2000/svg" xmlns:ev="http://www.w3.org/2001/xml-events" xmlns:xlink="http://www.w3.org/1999/xlink"><defs /><path d="M1405 -287Q1303 -287 1210.5 -260.0Q1118 -233 1038.0 -184.5Q958 -136 892.5 -67.5Q827 1 780.5 83.0Q734 165 709.0 258.5Q684 352 684 452Q684 552 709.0 646.0Q734 740 780.5 822.0Q827 904 892.5 972.0Q958 1040 1038.0 1089.0Q1118 1138 1210.5 1165.0Q1303 1192 1405 1192Q1507 1192 1600.0 1165.0Q1693 1138 1773.0 1089.0Q1853 1040 1918.5 972.0Q1984 904 2030.5 822.0Q2077 740 2102.0 646.0Q2127 552 2127 452Q2127 352 2101.5 258.0Q2076 164 2030.0 82.0Q1984 0 1918.5 -68.0Q1853 -136 1772.5 -184.5Q1692 -233 1599.0 -260.0Q1506 -287 1405 -287Z" style="fill:#ffb02e;stroke:none" transform="scale(1,-1) translate(0,-256)" /></svg>