<?xml version="1.0" encoding="utf-8" ?>
<svg baseProfile="full" height="256" version="1.1" width="256" xmlns="http://www.w3.org/2000/svg" xmlns:ev="http://www.w3.org/2001/xml-events" xmlns:xlink="http://www.w3.org/1999/xlink"><defs /><path d="M1721 522Q1721 498 1702.0 478.5Q1683 459 1660.0 440.5Q1637 422 1618.0 402.0Q1599 382 1599 358Q1599 338 1606.5 318.5Q1614 299 1623.0 279.5Q1632 260 1639.5 240.5Q1647 221 1647 202Q1647 182 1632.5 167.5Q1618 153 1598 153Q1579 153 1553.5 165.0Q1528 177 1501.0 191.5Q1474 206 1448.5 218.0Q1423 230 1405 230Q1387 230 1361.5 218.0Q1336 206 1309.0 191.5Q1282 177 1256.5 165.0Q1231 153 1212 153Q1192 153 1177.5 167.5Q1163 182 1163 202Q1163 221 1170.5 241.0Q1178 261 1187.5 280.5Q1197 300 1204.5 319.5Q1212 339 1212 358Q1212 382 1193.0 402.0Q1174 422 1151.0 441.0Q1128 460 1109.0 479.5Q1090 499 1090 523Q1090 541 1101.5 555.0Q1113 569 1131 572L1264 592Q1282 595 1294.5 609.0Q1307 623 1316.0 643.0Q1325 663 1333.0 685.5Q1341 708 1350.5 727.0Q1360 746 1373.0 758.5Q1386 771 1406 771Q1425 771 1438.0 758.5Q1451 746 1460.5 727.0Q1470 708 1478.0 685.5Q1486 663 1495.0 643.0Q1504 623 1516.0 609.0Q1528 595 1546 592L1679 572Q1697 569 1709.0 554.5Q1721 540 1721 522Z" style="fill:#d3883e;stroke:none" transform="scale(1,-1) translate(0,-256)" /></svg>