<?xml version="1.0" encoding="utf-8" ?>
<svg baseProfile="full" height="256" version="1.1" width="256" xmlns="http://www.w3.org/2000/svg" xmlns:ev="http://www.w3.org/2001/xml-events" xmlns:xlink="http://www.w3.org/1999/xlink"><defs /><path d="M1446 1146 1459 1055Q1521 1070 1569.0 1097.5Q1617 1125 1666 1165Q1742 1227 1808.5 1289.5Q1875 1352 1934.0 1420.0Q1993 1488 2045.5 1563.0Q2098 1638 2146 1724H1818ZM1433 1042H1429L1444 1024ZM1404 1044 1383 1042 1368 1024 1384 1048Q1312 1061 1256.5 1090.0Q1201 1119 1146 1165Q1069 1228 1000.5 1290.5Q932 1353 870.5 1420.0Q809 1487 754.5 1562.0Q700 1637 651 1725H967Z" style="fill:#d3d3d3;stroke:none" transform="scale(1,-1) translate(0,-256)" /></svg>