<?xml version="1.0" encoding="utf-8" ?>
<svg baseProfile="full" height="256" version="1.1" width="256" xmlns="http://www.w3.org/2000/svg" xmlns:ev="http://www.w3.org/2001/xml-events" xmlns:xlink="http://www.w3.org/1999/xlink"><defs /><path d="M1103 1042Q1048 1042 1002.5 1059.0Q957 1076 912 1107Q855 1146 799.0 1192.5Q743 1239 692.0 1291.5Q641 1344 597.5 1402.0Q554 1460 522 1522Q514 1539 509.0 1554.0Q504 1569 504 1588Q504 1616 515.0 1641.0Q526 1666 544.5 1684.5Q563 1703 588.0 1713.5Q613 1724 641 1724H666Q715 1636 779.0 1561.0Q843 1486 915.0 1419.0Q987 1352 1064.5 1289.5Q1142 1227 1218 1165Q1251 1138 1283.0 1117.0Q1315 1096 1349.5 1080.5Q1384 1065 1421.0 1055.0Q1458 1045 1501 1042Z" style="fill:#0074ba;stroke:none" transform="scale(1,-1) translate(0,-256)" /></svg>