<?xml version="1.0" encoding="utf-8" ?>
<svg baseProfile="full" height="256" version="1.1" width="256" xmlns="http://www.w3.org/2000/svg" xmlns:ev="http://www.w3.org/2001/xml-events" xmlns:xlink="http://www.w3.org/1999/xlink"><defs /><path d="M1478 1463Q1555 1463 1628.5 1458.0Q1702 1453 1777 1433Q1830 1418 1874.0 1388.0Q1918 1358 1949.5 1317.0Q1981 1276 1998.0 1225.5Q2015 1175 2015 1120Q2015 1069 1999.0 1020.0Q1983 971 1953 929L1766 672H1761Q1726 707 1680.0 725.5Q1634 744 1585 744H1335L1631 1169Q1665 1217 1665 1276Q1665 1315 1650.5 1349.0Q1636 1383 1610.5 1408.5Q1585 1434 1551.0 1448.5Q1517 1463 1478 1463ZM1330 237Q1342 237 1354.0 239.0Q1366 241 1378 241H1586Q1628 241 1667.0 254.0Q1706 267 1739 293Q1781 324 1807 372Q1810 377 1812.0 383.5Q1814 390 1818 395L2183 875Q2212 913 2231.0 957.5Q2250 1002 2250 1052Q2250 1057 2249.0 1066.5Q2248 1076 2246.5 1086.5Q2245 1097 2243.0 1106.5Q2241 1116 2238 1121Q2323 1008 2368.0 875.0Q2413 742 2413 600V597Q2413 523 2384.5 458.0Q2356 393 2307.0 345.0Q2258 297 2192.5 269.0Q2127 241 2054 241H1626L1797 -63Q1807 -81 1823.5 -95.5Q1840 -110 1859.5 -120.0Q1879 -130 1900.0 -135.5Q1921 -141 1941 -141Q1958 -141 1975.5 -137.5Q1993 -134 2010 -129Q1907 -195 1789.5 -228.5Q1672 -262 1550 -262H1340Z" style="fill:#ff822d;stroke:none" transform="scale(1,-1) translate(0,-256)" /></svg>