<?xml version="1.0" encoding="utf-8" ?>
<svg baseProfile="full" height="256" version="1.1" width="256" xmlns="http://www.w3.org/2000/svg" xmlns:ev="http://www.w3.org/2001/xml-events" xmlns:xlink="http://www.w3.org/1999/xlink"><defs /><path d="M1406 703Q1456 703 1505 723Q1511 725 1517.5 729.0Q1524 733 1530 735Q1531 735 1533.0 735.5Q1535 736 1536 736Q1550 736 1550 722Q1550 719 1548 715Q1526 677 1487.5 655.5Q1449 634 1406 634Q1364 634 1324.5 656.0Q1285 678 1265 715Q1263 719 1263 723Q1263 728 1267.0 732.5Q1271 737 1276 737Q1279 737 1283 735Q1313 720 1342.5 711.5Q1372 703 1406 703Z" style="fill:#990839;stroke:none" transform="scale(1,-1) translate(0,-256)" /></svg>