<?xml version="1.0" encoding="utf-8" ?>
<svg baseProfile="full" height="256" version="1.1" width="256" xmlns="http://www.w3.org/2000/svg" xmlns:ev="http://www.w3.org/2001/xml-events" xmlns:xlink="http://www.w3.org/1999/xlink"><defs /><path d="M1149 966Q1149 997 1170.5 1019.0Q1192 1041 1223 1041Q1255 1041 1276.5 1019.5Q1298 998 1298 966Q1298 961 1297.5 956.0Q1297 951 1296 946H1151Q1149 951 1149.0 956.0Q1149 961 1149 966ZM1665 966Q1665 997 1643.0 1019.0Q1621 1041 1590 1041Q1559 1041 1537.5 1019.0Q1516 997 1516 966Q1516 961 1516.0 956.0Q1516 951 1518 946H1663Q1664 951 1664.5 956.0Q1665 961 1665 966Z" style="fill:#7d4533;stroke:none" transform="scale(1,-1) translate(0,-256)" /></svg>