<?xml version="1.0" encoding="utf-8" ?>
<svg baseProfile="full" height="256" version="1.1" width="256" xmlns="http://www.w3.org/2000/svg" xmlns:ev="http://www.w3.org/2001/xml-events" xmlns:xlink="http://www.w3.org/1999/xlink"><defs /><path d="M975 1158Q975 1213 999.0 1261.5Q1023 1310 1062.5 1345.0Q1102 1380 1153.0 1400.5Q1204 1421 1257 1421H1364Q1384 1421 1395.0 1412.0Q1406 1403 1416 1387Q1422 1377 1423.5 1374.0Q1425 1371 1425.5 1369.5Q1426 1368 1427.5 1365.5Q1429 1363 1436 1353Q1465 1314 1509.5 1292.0Q1554 1270 1603 1270Q1632 1270 1662.0 1270.5Q1692 1271 1721 1270Q1746 1270 1767.0 1260.0Q1788 1250 1803.5 1233.0Q1819 1216 1828.0 1194.0Q1837 1172 1837 1148Q1837 1138 1837.0 1127.5Q1837 1117 1836 1107Q1830 1007 1824.0 907.5Q1818 808 1811 708Q1809 690 1803.5 670.0Q1798 650 1791 633Q1772 586 1740.5 549.0Q1709 512 1669.0 485.5Q1629 459 1582.0 445.0Q1535 431 1486 431H1329Q1280 431 1233.5 445.5Q1187 460 1147.0 486.0Q1107 512 1075.5 549.5Q1044 587 1026 633Q1019 650 1013.5 669.5Q1008 689 1006 708L985 1008Q983 1030 981.5 1047.5Q980 1065 978.5 1082.5Q977 1100 976.0 1118.0Q975 1136 975 1158Z" style="fill:#ffc83d;stroke:none" transform="scale(1,-1) translate(0,-256)" /></svg>