<?xml version="1.0" encoding="utf-8" ?>
<svg baseProfile="full" height="256" version="1.1" width="256" xmlns="http://www.w3.org/2000/svg" xmlns:ev="http://www.w3.org/2001/xml-events" xmlns:xlink="http://www.w3.org/1999/xlink"><defs /><path d="M1223 1009Q1241 1009 1253.5 996.5Q1266 984 1266 966Q1266 956 1261 946H1185Q1181 954 1181 966Q1181 984 1193.0 996.5Q1205 1009 1223 1009ZM1590 1009Q1572 1009 1560.0 996.5Q1548 984 1548 966Q1548 953 1553 946H1628Q1633 956 1633 966Q1633 984 1620.5 996.5Q1608 1009 1590 1009Z" style="fill:#000000;stroke:none" transform="scale(1,-1) translate(0,-256)" /></svg>