<?xml version="1.0" encoding="utf-8" ?>
<svg baseProfile="full" height="256" version="1.1" width="256" xmlns="http://www.w3.org/2000/svg" xmlns:ev="http://www.w3.org/2001/xml-events" xmlns:xlink="http://www.w3.org/1999/xlink"><defs /><path d="M1829 1427Q1829 1409 1843.5 1385.5Q1858 1362 1875.5 1336.0Q1893 1310 1907.5 1282.0Q1922 1254 1922 1227Q1922 1212 1916.5 1200.5Q1911 1189 1904.5 1177.0Q1898 1165 1892.5 1150.0Q1887 1135 1887 1114V770Q1887 741 1878.0 714.5Q1869 688 1853.5 665.5Q1838 643 1815.5 626.0Q1793 609 1766 600L1611 547V1159Q1588 1184 1573.5 1213.5Q1559 1243 1555 1277Q1515 1271 1476.0 1283.5Q1437 1296 1406 1322Q1380 1299 1347.0 1287.0Q1314 1275 1279 1275Q1273 1275 1267.5 1275.5Q1262 1276 1256 1277Q1255 1262 1250.0 1245.5Q1245 1229 1237.5 1213.5Q1230 1198 1220.5 1183.5Q1211 1169 1200 1159V548L1045 601Q1018 610 995.5 627.0Q973 644 957.5 666.5Q942 689 933.0 715.5Q924 742 924 771V1115Q924 1139 917.0 1156.0Q910 1173 901.5 1187.5Q893 1202 886.0 1214.5Q879 1227 879 1242Q879 1251 883.0 1262.0Q887 1273 892.5 1283.5Q898 1294 904.0 1304.0Q910 1314 914 1322Q922 1338 930.0 1362.5Q938 1387 947.0 1412.0Q956 1437 968.5 1457.0Q981 1477 998 1484Q1038 1499 1064.5 1520.5Q1091 1542 1114 1577Q1132 1604 1163 1604Q1193 1604 1221.5 1595.0Q1250 1586 1280 1586Q1290 1586 1299.0 1596.5Q1308 1607 1317.0 1619.5Q1326 1632 1334.5 1642.5Q1343 1653 1352 1653Q1361 1653 1375.5 1647.0Q1390 1641 1406 1641Q1421 1641 1436.0 1647.0Q1451 1653 1460 1653Q1469 1653 1477.5 1642.5Q1486 1632 1495.0 1619.5Q1504 1607 1513.5 1596.5Q1523 1586 1533 1586Q1562 1586 1590.5 1594.0Q1619 1602 1648 1602Q1666 1602 1678.0 1595.0Q1690 1588 1700 1573Q1723 1538 1749.5 1519.0Q1776 1500 1814 1484Q1822 1481 1827.5 1476.5Q1833 1472 1833 1462Q1833 1453 1831.0 1444.5Q1829 1436 1829 1427Z" style="fill:#f1a11e;stroke:none" transform="scale(1,-1) translate(0,-256)" /></svg>