<?xml version="1.0" encoding="utf-8" ?>
<svg baseProfile="full" height="256" version="1.1" width="256" xmlns="http://www.w3.org/2000/svg" xmlns:ev="http://www.w3.org/2001/xml-events" xmlns:xlink="http://www.w3.org/1999/xlink"><defs /><path d="M1206 1064Q1241 1064 1270.0 1044.5Q1299 1025 1313 993Q1315 990 1318.0 981.5Q1321 973 1321 969Q1321 960 1317.0 953.0Q1313 946 1302 946H1115Q1106 946 1099.0 953.0Q1092 960 1092 969Q1092 989 1103.0 1006.5Q1114 1024 1131.0 1036.5Q1148 1049 1168.0 1056.5Q1188 1064 1206 1064ZM1608 1064Q1589 1064 1568.5 1056.5Q1548 1049 1531.0 1035.5Q1514 1022 1503.0 1003.5Q1492 985 1492 964Q1492 956 1497.5 951.0Q1503 946 1511 946H1699Q1709 946 1715.0 953.5Q1721 961 1721 970Q1721 989 1710.0 1006.5Q1699 1024 1682.0 1036.5Q1665 1049 1645.5 1056.5Q1626 1064 1608 1064Z" style="fill:#ffffff;stroke:none" transform="scale(1,-1) translate(0,-256)" /></svg>