<?xml version="1.0" encoding="utf-8" ?>
<svg baseProfile="full" height="256" version="1.1" width="256" xmlns="http://www.w3.org/2000/svg" xmlns:ev="http://www.w3.org/2001/xml-events" xmlns:xlink="http://www.w3.org/1999/xlink"><defs /><path d="M1426 1289Q1319 1289 1215.5 1275.5Q1112 1262 1008 1237Q998 1235 993 1235Q970 1235 953.0 1252.0Q936 1269 936 1293Q936 1313 947.5 1328.0Q959 1343 979 1349Q1030 1364 1086.5 1375.0Q1143 1386 1200.5 1392.5Q1258 1399 1315.0 1402.0Q1372 1405 1426 1405Q1480 1405 1537.5 1402.0Q1595 1399 1653.0 1392.0Q1711 1385 1767.5 1374.0Q1824 1363 1876 1348Q1896 1342 1908.0 1327.0Q1920 1312 1920 1290Q1920 1267 1903.0 1250.5Q1886 1234 1863 1234Q1858 1234 1848 1236Q1743 1262 1639.0 1275.5Q1535 1289 1426 1289Z" style="fill:#50e2ff;stroke:none" transform="scale(1,-1) translate(0,-256)" /></svg>