<?xml version="1.0" encoding="utf-8" ?>
<svg baseProfile="full" height="256" version="1.1" width="256" xmlns="http://www.w3.org/2000/svg" xmlns:ev="http://www.w3.org/2001/xml-events" xmlns:xlink="http://www.w3.org/1999/xlink"><defs /><path d="M1141 960Q1141 931 1130.5 906.0Q1120 881 1101.0 862.5Q1082 844 1057.0 833.0Q1032 822 1004 822Q975 822 950.5 833.0Q926 844 907.0 862.5Q888 881 877.5 906.0Q867 931 867 960Q867 988 877.5 1013.5Q888 1039 907.0 1057.5Q926 1076 950.5 1087.0Q975 1098 1004 1098Q1032 1098 1057.0 1087.0Q1082 1076 1101.0 1057.5Q1120 1039 1130.5 1013.5Q1141 988 1141 960ZM1945 960Q1945 931 1934.5 906.0Q1924 881 1905.0 862.5Q1886 844 1861.0 833.0Q1836 822 1808 822Q1779 822 1754.5 833.0Q1730 844 1711.0 862.5Q1692 881 1681.5 906.0Q1671 931 1671 960Q1671 988 1681.5 1013.5Q1692 1039 1711.0 1057.5Q1730 1076 1754.5 1087.0Q1779 1098 1808 1098Q1836 1098 1861.0 1087.0Q1886 1076 1905.0 1057.5Q1924 1039 1934.5 1013.5Q1945 988 1945 960Z" style="fill:#fdbb11;stroke:none" transform="scale(1,-1) translate(0,-256)" /></svg>