<?xml version="1.0" encoding="utf-8" ?>
<svg baseProfile="full" height="256" version="1.1" width="256" xmlns="http://www.w3.org/2000/svg" xmlns:ev="http://www.w3.org/2001/xml-events" xmlns:xlink="http://www.w3.org/1999/xlink"><defs /><path d="M975 1653Q994 1653 1030.0 1645.0Q1066 1637 1101.5 1622.5Q1137 1608 1163.5 1588.5Q1190 1569 1190 1545Q1190 1531 1179.0 1520.0Q1168 1509 1154 1509Q1146 1509 1140.5 1512.0Q1135 1515 1129 1520Q1095 1548 1057.5 1564.5Q1020 1581 975 1581Q940 1581 910.5 1569.5Q881 1558 858.0 1544.5Q835 1531 818.5 1520.0Q802 1509 795 1509Q781 1509 770.0 1520.0Q759 1531 759 1545Q759 1553 762.0 1559.0Q765 1565 770 1571Q786 1590 811.0 1605.0Q836 1620 864.5 1630.5Q893 1641 922.0 1647.0Q951 1653 975 1653ZM1801 1366Q1814 1366 1838.0 1362.5Q1862 1359 1890.0 1353.0Q1918 1347 1947.0 1337.5Q1976 1328 1999.5 1316.0Q2023 1304 2038.0 1289.5Q2053 1275 2053 1258Q2053 1244 2042.0 1233.0Q2031 1222 2017 1222Q2005 1222 1994 1230Q1948 1259 1902.5 1276.5Q1857 1294 1801 1294Q1744 1294 1700.0 1276.5Q1656 1259 1609 1230Q1598 1222 1586 1222Q1571 1222 1560.0 1232.5Q1549 1243 1549 1258Q1549 1266 1553.0 1273.0Q1557 1280 1563 1286Q1582 1305 1612.0 1319.5Q1642 1334 1675.0 1344.5Q1708 1355 1741.5 1360.5Q1775 1366 1801 1366ZM1190 1042Q1190 997 1173.0 958.0Q1156 919 1127.0 890.0Q1098 861 1059.0 844.0Q1020 827 975 827Q930 827 891.0 844.0Q852 861 822.5 890.0Q793 919 776.0 958.0Q759 997 759 1042Q759 1087 776.0 1126.0Q793 1165 822.5 1194.5Q852 1224 891.0 1241.0Q930 1258 975 1258Q1020 1258 1059.0 1241.0Q1098 1224 1127.0 1194.5Q1156 1165 1173.0 1126.0Q1190 1087 1190 1042ZM1981 1042Q1981 997 1964.0 958.0Q1947 919 1917.5 890.0Q1888 861 1849.0 844.0Q1810 827 1765 827Q1720 827 1681.0 844.0Q1642 861 1613.0 890.0Q1584 919 1567.0 958.0Q1550 997 1550 1042Q1550 1087 1567.0 1126.0Q1584 1165 1613.0 1194.5Q1642 1224 1681.0 1241.0Q1720 1258 1765 1258Q1810 1258 1849.0 1241.0Q1888 1224 1917.5 1194.5Q1947 1165 1964.0 1126.0Q1981 1087 1981 1042ZM1376 507Q1338 507 1311.0 495.0Q1284 483 1263.5 469.0Q1243 455 1226.0 443.0Q1209 431 1190 431Q1161 431 1139.5 452.5Q1118 474 1118 503Q1118 519 1123.5 531.0Q1129 543 1140 554Q1162 577 1189.5 595.0Q1217 613 1248.0 625.5Q1279 638 1311.5 644.5Q1344 651 1376 651Q1423 651 1470.5 638.5Q1518 626 1560.0 602.0Q1602 578 1635.5 542.5Q1669 507 1687 462Q1693 447 1693 432Q1693 402 1672.5 381.0Q1652 360 1622 360Q1600 360 1586.0 371.0Q1572 382 1559.5 398.0Q1547 414 1534.0 433.5Q1521 453 1500.5 469.0Q1480 485 1450.5 496.0Q1421 507 1376 507Z" style="fill:#402a32;stroke:none" transform="scale(1,-1) translate(0,-256)" /></svg>