<?xml version="1.0" encoding="utf-8" ?>
<svg baseProfile="full" height="256" version="1.1" width="256" xmlns="http://www.w3.org/2000/svg" xmlns:ev="http://www.w3.org/2001/xml-events" xmlns:xlink="http://www.w3.org/1999/xlink"><defs /><path d="M1154 1222Q1154 1274 1174.0 1320.0Q1194 1366 1228.0 1400.0Q1262 1434 1308.0 1454.0Q1354 1474 1406 1474Q1458 1474 1504.0 1454.0Q1550 1434 1584.0 1400.0Q1618 1366 1638.0 1320.0Q1658 1274 1658 1222V216Q1658 164 1638.0 118.0Q1618 72 1584.0 38.0Q1550 4 1504.0 -16.0Q1458 -36 1406 -36Q1354 -36 1308.0 -16.0Q1262 4 1228.0 38.0Q1194 72 1174.0 118.0Q1154 164 1154 216Z" style="fill:#d3d3d3;stroke:none" transform="scale(1,-1) translate(0,-256)" /></svg>