<?xml version="1.0" encoding="utf-8" ?>
<svg baseProfile="full" height="256" version="1.1" width="256" xmlns="http://www.w3.org/2000/svg" xmlns:ev="http://www.w3.org/2001/xml-events" xmlns:xlink="http://www.w3.org/1999/xlink"><defs /><path d="M1047 1006Q1047 1036 1058.0 1062.0Q1069 1088 1088.5 1107.5Q1108 1127 1134.0 1138.5Q1160 1150 1190 1150H1622Q1652 1150 1678.0 1138.5Q1704 1127 1723.5 1107.5Q1743 1088 1754.0 1062.0Q1765 1036 1765 1006Q1765 976 1754.0 950.0Q1743 924 1723.5 904.5Q1704 885 1678.0 874.0Q1652 863 1622 863H1190Q1160 863 1134.0 874.0Q1108 885 1088.5 904.5Q1069 924 1058.0 950.0Q1047 976 1047 1006Z" style="fill:#00a6ed;stroke:none" transform="scale(1,-1) translate(0,-256)" /></svg>