<?xml version="1.0" encoding="utf-8" ?>
<svg baseProfile="full" height="256" version="1.1" width="256" xmlns="http://www.w3.org/2000/svg" xmlns:ev="http://www.w3.org/2001/xml-events" xmlns:xlink="http://www.w3.org/1999/xlink"><defs /><path d="M1978 1725Q2023 1725 2063.0 1708.0Q2103 1691 2133.0 1661.0Q2163 1631 2180.0 1591.0Q2197 1551 2197 1506V-68Q2197 -113 2180.0 -153.0Q2163 -193 2133.0 -223.0Q2103 -253 2063.0 -270.0Q2023 -287 1978 -287H834Q789 -287 749.0 -270.0Q709 -253 679.0 -223.0Q649 -193 632.0 -153.0Q615 -113 615 -68V1506Q615 1551 632.0 1591.0Q649 1631 679.0 1661.0Q709 1691 749.0 1708.0Q789 1725 834 1725H1978Z" style="fill:#bebebe;stroke:none" transform="scale(1,-1) translate(0,-256)" /></svg>