<?xml version="1.0" encoding="utf-8" ?>
<svg baseProfile="full" height="256" version="1.1" width="256" xmlns="http://www.w3.org/2000/svg" xmlns:ev="http://www.w3.org/2001/xml-events" xmlns:xlink="http://www.w3.org/1999/xlink"><defs /><path d="M759 1348Q759 1371 774.5 1386.5Q790 1402 813 1402H993Q1015 1402 1031.0 1386.0Q1047 1370 1047 1348Q1047 1326 1031.0 1310.0Q1015 1294 993 1294H813Q790 1294 774.5 1309.5Q759 1325 759 1348ZM813 773Q790 773 774.5 757.5Q759 742 759 719Q759 696 774.5 680.5Q790 665 813 665H993Q1015 665 1031.0 681.0Q1047 697 1047 719Q1047 741 1031.0 757.0Q1015 773 993 773ZM1819 773Q1796 773 1780.5 757.5Q1765 742 1765 719Q1765 696 1780.5 680.5Q1796 665 1819 665H1999Q2022 665 2037.5 680.5Q2053 696 2053 719Q2053 742 2037.5 757.5Q2022 773 1999 773ZM1819 1402Q1796 1402 1780.5 1386.5Q1765 1371 1765 1348Q1765 1325 1780.5 1309.5Q1796 1294 1819 1294H1999Q2022 1294 2037.5 1309.5Q2053 1325 2053 1348Q2053 1371 2037.5 1386.5Q2022 1402 1999 1402ZM759 54Q759 77 774.5 92.5Q790 108 813 108H993Q1015 108 1031.0 92.0Q1047 76 1047 54Q1047 32 1031.0 16.0Q1015 0 993 0H813Q790 0 774.5 15.5Q759 31 759 54ZM1819 108Q1796 108 1780.5 92.5Q1765 77 1765 54Q1765 31 1780.5 15.5Q1796 0 1819 0H1999Q2022 0 2037.5 15.5Q2053 31 2053 54Q2053 77 2037.5 92.5Q2022 108 1999 108Z" style="fill:#636363;stroke:none" transform="scale(1,-1) translate(0,-256)" /></svg>