<?xml version="1.0" encoding="utf-8" ?>
<svg baseProfile="full" height="256" version="1.1" width="256" xmlns="http://www.w3.org/2000/svg" xmlns:ev="http://www.w3.org/2001/xml-events" xmlns:xlink="http://www.w3.org/1999/xlink"><defs /><path d="M2313 648Q2313 591 2298.0 536.0Q2283 481 2255.5 432.5Q2228 384 2188.0 343.0Q2148 302 2099 273L2252 160Q2266 150 2273.5 134.5Q2281 119 2281 102Q2281 73 2259.5 51.5Q2238 30 2209 30Q2185 30 2166 44L1977 183L1788 44Q1769 30 1746 30Q1717 30 1695.5 51.5Q1674 73 1674 102Q1674 119 1681.5 134.5Q1689 150 1703 160L1856 273Q1806 302 1766.5 343.0Q1727 384 1699.5 432.5Q1672 481 1657.0 536.0Q1642 591 1642 648V815V1174Q1642 1204 1630.5 1230.0Q1619 1256 1599.5 1275.5Q1580 1295 1554.0 1306.5Q1528 1318 1498 1318Q1468 1318 1442.0 1306.5Q1416 1295 1396.5 1275.5Q1377 1256 1365.5 1230.0Q1354 1204 1354 1174V311Q1354 282 1332.5 261.0Q1311 240 1282 240Q1253 240 1231.5 261.0Q1210 282 1210 311V1174Q1210 1204 1199.0 1230.0Q1188 1256 1168.5 1275.5Q1149 1295 1123.0 1306.5Q1097 1318 1067 1318Q1037 1318 1011.0 1306.5Q985 1295 965.5 1275.5Q946 1256 934.5 1230.0Q923 1204 923 1174V958V311Q923 282 901.5 261.0Q880 240 851 240Q822 240 800.5 261.0Q779 282 779 311V958V1174Q779 1204 767.5 1230.0Q756 1256 736.5 1275.5Q717 1295 691.0 1306.5Q665 1318 635 1318Q606 1318 585.0 1339.5Q564 1361 564 1390Q564 1419 585.0 1440.0Q606 1461 635 1461Q697 1461 753.5 1435.5Q810 1410 851 1364Q893 1410 949.0 1435.5Q1005 1461 1067 1461Q1128 1461 1184.5 1435.5Q1241 1410 1282 1364Q1324 1410 1380.0 1435.5Q1436 1461 1498 1461Q1561 1461 1614.0 1437.5Q1667 1414 1705.0 1373.5Q1743 1333 1764.0 1278.5Q1785 1224 1785 1162Q1827 1192 1876.5 1207.5Q1926 1223 1977 1223Q2046 1223 2107.5 1196.5Q2169 1170 2214.5 1124.5Q2260 1079 2286.5 1017.5Q2313 956 2313 887ZM2169 887Q2169 927 2154.0 962.0Q2139 997 2113.0 1023.0Q2087 1049 2052.0 1064.0Q2017 1079 1977 1079Q1938 1079 1903.0 1064.0Q1868 1049 1841.5 1022.5Q1815 996 1800.0 961.0Q1785 926 1785 887V648Q1785 596 1799.0 555.0Q1813 514 1838.5 481.0Q1864 448 1899.5 420.5Q1935 393 1977 369Q2020 393 2055.0 420.0Q2090 447 2115.5 480.0Q2141 513 2155.0 554.5Q2169 596 2169 648Z" style="fill:#ffffff;stroke:none" transform="scale(1,-1) translate(0,-256)" /></svg>