<?xml version="1.0" encoding="utf-8" ?>
<svg baseProfile="full" height="256" version="1.1" width="256" xmlns="http://www.w3.org/2000/svg" xmlns:ev="http://www.w3.org/2001/xml-events" xmlns:xlink="http://www.w3.org/1999/xlink"><defs /><path d="M825 1278Q825 1295 834.0 1307.0Q843 1319 856.0 1324.5Q869 1330 884.0 1328.0Q899 1326 911 1314L1039 1186Q1044 1181 1050.5 1180.5Q1057 1180 1063 1184Q1135 1238 1222.0 1268.0Q1309 1298 1406 1298Q1511 1298 1604.5 1263.0Q1698 1228 1773.0 1165.5Q1848 1103 1899.0 1018.5Q1950 934 1970 835Q1973 819 1962.5 807.0Q1952 795 1936 795H1788Q1774 795 1764.5 803.0Q1755 811 1751 823Q1735 879 1702.0 926.5Q1669 974 1624.0 1008.5Q1579 1043 1523.0 1062.5Q1467 1082 1406 1082Q1355 1082 1309.0 1069.0Q1263 1056 1222 1032Q1215 1027 1214.0 1019.0Q1213 1011 1219 1005L1354 870Q1366 858 1368.0 843.5Q1370 829 1364.5 815.5Q1359 802 1347.0 793.5Q1335 785 1318 785L877 787Q857 787 842.0 801.5Q827 816 827 837ZM1887 124 1760 251Q1755 256 1748.5 256.5Q1742 257 1737 253Q1666 203 1582.5 175.5Q1499 148 1406 148Q1301 148 1207.5 183.0Q1114 218 1039.0 280.5Q964 343 912.5 427.5Q861 512 842 611Q839 627 849.0 639.0Q859 651 876 651H1024Q1037 651 1047.0 643.0Q1057 635 1061 623Q1077 567 1110.0 519.5Q1143 472 1188.0 437.5Q1233 403 1288.5 383.5Q1344 364 1406 364Q1452 364 1494.0 374.5Q1536 385 1574 405Q1582 410 1583.0 418.5Q1584 427 1578 433L1443 568Q1431 580 1429.0 594.5Q1427 609 1432.5 622.0Q1438 635 1450.0 644.0Q1462 653 1479 653L1920 651Q1941 651 1955.5 636.5Q1970 622 1970 601L1973 160Q1973 143 1964.0 131.0Q1955 119 1942.0 113.5Q1929 108 1914.0 110.0Q1899 112 1887 124Z" style="fill:#ffffff;stroke:none" transform="scale(1,-1) translate(0,-256)" /></svg>