<?xml version="1.0" encoding="utf-8" ?>
<svg baseProfile="full" height="256" version="1.1" width="256" xmlns="http://www.w3.org/2000/svg" xmlns:ev="http://www.w3.org/2001/xml-events" xmlns:xlink="http://www.w3.org/1999/xlink"><defs /><path d="M1047 791Q1047 820 1068.0 841.5Q1089 863 1118 863Q1147 863 1168.5 841.5Q1190 820 1190 791V719Q1190 689 1169.0 668.0Q1148 647 1118 647Q1089 647 1068.0 668.5Q1047 690 1047 719ZM1622 791Q1622 820 1643.0 841.5Q1664 863 1693 863Q1722 863 1743.5 841.5Q1765 820 1765 791V719Q1765 689 1744.0 668.0Q1723 647 1693 647Q1664 647 1643.0 668.5Q1622 690 1622 719Z" style="fill:#1c1c1c;stroke:none" transform="scale(1,-1) translate(0,-256)" /></svg>