<?xml version="1.0" encoding="utf-8" ?>
<svg baseProfile="full" height="256" version="1.1" width="256" xmlns="http://www.w3.org/2000/svg" xmlns:ev="http://www.w3.org/2001/xml-events" xmlns:xlink="http://www.w3.org/1999/xlink"><defs /><path d="M472 647Q472 766 503.0 876.0Q534 986 590.0 1082.0Q646 1178 724.5 1257.0Q803 1336 899.0 1392.0Q995 1448 1105.0 1479.0Q1215 1510 1334 1510H1478Q1597 1510 1707.0 1479.0Q1817 1448 1913.0 1392.0Q2009 1336 2087.5 1257.0Q2166 1178 2222.0 1082.0Q2278 986 2309.0 876.0Q2340 766 2340 647V575Q2340 456 2309.0 346.0Q2278 236 2222.0 140.0Q2166 44 2087.5 -34.5Q2009 -113 1913.0 -169.0Q1817 -225 1707.0 -256.0Q1597 -287 1478 -287H1334Q1215 -287 1105.0 -256.0Q995 -225 899.0 -169.0Q803 -113 724.5 -34.5Q646 44 590.0 140.0Q534 236 503.0 346.0Q472 456 472 575Z" style="fill:#ff8687;stroke:none" transform="scale(1,-1) translate(0,-256)" /></svg>