<?xml version="1.0" encoding="utf-8" ?>
<svg baseProfile="full" height="256" version="1.1" width="256" xmlns="http://www.w3.org/2000/svg" xmlns:ev="http://www.w3.org/2001/xml-events" xmlns:xlink="http://www.w3.org/1999/xlink"><defs /><path d="M1334 288Q1334 258 1313.0 237.0Q1292 216 1262 216Q1233 216 1211.5 237.5Q1190 259 1190 288Q1190 317 1211.5 338.5Q1233 360 1262 360Q1291 360 1312.5 338.5Q1334 317 1334 288ZM1622 288Q1622 259 1600.5 237.5Q1579 216 1550 216Q1520 216 1499.0 237.0Q1478 258 1478 288Q1478 317 1499.5 338.5Q1521 360 1550 360Q1579 360 1600.5 338.5Q1622 317 1622 288Z" style="fill:#f92f60;stroke:none" transform="scale(1,-1) translate(0,-256)" /></svg>