<?xml version="1.0" encoding="utf-8" ?>
<svg baseProfile="full" height="256" version="1.1" width="256" xmlns="http://www.w3.org/2000/svg" xmlns:ev="http://www.w3.org/2001/xml-events" xmlns:xlink="http://www.w3.org/1999/xlink"><defs /><path d="M1406 1040Q1425 1070 1450.5 1098.5Q1476 1127 1506.0 1151.5Q1536 1176 1570.0 1193.5Q1604 1211 1639 1218Q1659 1222 1680.0 1223.5Q1701 1225 1721 1225Q1797 1225 1859.0 1197.5Q1921 1170 1965.0 1122.5Q2009 1075 2033.0 1011.0Q2057 947 2057 873Q2057 797 2026.0 718.0Q1995 639 1943.0 562.0Q1891 485 1823.5 412.0Q1756 339 1684.0 275.0Q1612 211 1539.5 158.0Q1467 105 1406 68Q1345 105 1273.0 158.0Q1201 211 1128.5 275.0Q1056 339 988.5 411.5Q921 484 869.0 561.0Q817 638 786.0 716.5Q755 795 755 872Q755 946 779.0 1010.5Q803 1075 847.0 1122.5Q891 1170 953.0 1197.5Q1015 1225 1092 1225Q1112 1225 1132.5 1223.5Q1153 1222 1173 1218Q1208 1211 1242.0 1193.5Q1276 1176 1306.0 1151.5Q1336 1127 1361.5 1098.5Q1387 1070 1406 1040Z" style="fill:#f4f4f4;stroke:none" transform="scale(1,-1) translate(0,-256)" /></svg>