<?xml version="1.0" encoding="utf-8" ?>
<svg baseProfile="full" height="256" version="1.1" width="256" xmlns="http://www.w3.org/2000/svg" xmlns:ev="http://www.w3.org/2001/xml-events" xmlns:xlink="http://www.w3.org/1999/xlink"><defs /><path d="M1992 1213Q2039 1213 2081.5 1194.5Q2124 1176 2155.5 1144.5Q2187 1113 2205.5 1071.0Q2224 1029 2224 982V239Q2224 191 2206.0 149.5Q2188 108 2156.5 76.5Q2125 45 2083.0 27.0Q2041 9 1993 9H1752Q1737 9 1726.5 3.0Q1716 -3 1707 -14Q1696 -28 1685.5 -41.0Q1675 -54 1662 -67Q1613 -115 1550.5 -140.0Q1488 -165 1420 -165Q1351 -165 1287.5 -139.0Q1224 -113 1175 -65Q1162 -53 1152.5 -40.0Q1143 -27 1132 -14Q1123 -3 1112.5 3.0Q1102 9 1087 9H846Q798 9 756.0 27.0Q714 45 682.5 76.5Q651 108 633.0 149.5Q615 191 615 239V982Q615 1030 633.0 1072.0Q651 1114 682.5 1145.5Q714 1177 756.0 1195.0Q798 1213 846 1213H1992Z" style="fill:#e6e6e6;stroke:none" transform="scale(1,-1) translate(0,-256)" /></svg>