<?xml version="1.0" encoding="utf-8" ?>
<svg baseProfile="full" height="256" version="1.1" width="256" xmlns="http://www.w3.org/2000/svg" xmlns:ev="http://www.w3.org/2001/xml-events" xmlns:xlink="http://www.w3.org/1999/xlink"><defs /><path d="M1860 1029Q1897 1029 1929.5 1015.0Q1962 1001 1986.0 977.0Q2010 953 2024.0 921.0Q2038 889 2038 852V362Q2038 325 2024.0 293.0Q2010 261 1985.5 237.0Q1961 213 1928.5 199.0Q1896 185 1860 185H1639Q1618 185 1605.0 173.0Q1592 161 1585 142Q1565 85 1524.0 49.0Q1483 13 1419 13Q1354 13 1313.5 49.0Q1273 85 1253 142Q1246 161 1233.0 173.0Q1220 185 1199 185H978Q942 185 909.5 199.0Q877 213 852.5 237.0Q828 261 814.0 293.0Q800 325 800 362V852Q800 889 814.0 921.0Q828 953 852.5 977.0Q877 1001 909.5 1015.0Q942 1029 978 1029H1860Z" style="fill:#00a6ed;stroke:none" transform="scale(1,-1) translate(0,-256)" /></svg>