<?xml version="1.0" encoding="utf-8" ?>
<svg baseProfile="full" height="256" version="1.1" width="256" xmlns="http://www.w3.org/2000/svg" xmlns:ev="http://www.w3.org/2001/xml-events" xmlns:xlink="http://www.w3.org/1999/xlink"><defs /><path d="M1759 1037Q1759 1018 1746 1003L1458 686Q1443 669 1420 669Q1397 669 1382 686L1093 1003Q1079 1019 1079 1037Q1079 1060 1089.5 1071.0Q1100 1082 1116.0 1085.5Q1132 1089 1150.0 1088.5Q1168 1088 1184.0 1088.5Q1200 1089 1210.5 1092.5Q1221 1096 1221 1109V1620Q1221 1634 1231.0 1643.5Q1241 1653 1255 1653H1584Q1598 1653 1607.5 1643.5Q1617 1634 1617 1620V1109Q1617 1096 1627.5 1092.5Q1638 1089 1654.0 1088.5Q1670 1088 1688.0 1088.5Q1706 1089 1722.0 1085.5Q1738 1082 1748.5 1071.0Q1759 1060 1759 1037Z" style="fill:#f92f60;stroke:none" transform="scale(1,-1) translate(0,-256)" /></svg>