<?xml version="1.0" encoding="utf-8" ?>
<svg baseProfile="full" height="256" version="1.1" width="256" xmlns="http://www.w3.org/2000/svg" xmlns:ev="http://www.w3.org/2001/xml-events" xmlns:xlink="http://www.w3.org/1999/xlink"><defs /><path d="M2035 1402Q2009 1402 1986.0 1412.0Q1963 1422 1946.0 1439.0Q1929 1456 1919.0 1479.0Q1909 1502 1909 1528Q1909 1554 1919.0 1577.0Q1929 1600 1946.0 1617.0Q1963 1634 1986.0 1643.5Q2009 1653 2035 1653Q2061 1653 2084.0 1643.0Q2107 1633 2124.0 1616.0Q2141 1599 2151.0 1576.5Q2161 1554 2161 1528Q2161 1502 2151.0 1479.0Q2141 1456 2124.0 1439.0Q2107 1422 2084.0 1412.0Q2061 1402 2035 1402Z" style="fill:#86d72f;stroke:none" transform="scale(1,-1) translate(0,-256)" /></svg>