<?xml version="1.0" encoding="utf-8" ?>
<svg baseProfile="full" height="256" version="1.1" width="256" xmlns="http://www.w3.org/2000/svg" xmlns:ev="http://www.w3.org/2001/xml-events" xmlns:xlink="http://www.w3.org/1999/xlink"><defs /><path d="M1137 1005Q1137 1017 1153.0 1026.5Q1169 1036 1189.5 1042.5Q1210 1049 1230.0 1052.0Q1250 1055 1259 1055Q1272 1055 1286.5 1052.5Q1301 1050 1301 1033Q1301 1025 1295.5 1019.5Q1290 1014 1282 1014Q1259 1014 1240.5 1012.5Q1222 1011 1199 1003Q1191 1000 1177.5 992.0Q1164 984 1158 984Q1149 984 1143.0 990.0Q1137 996 1137 1005ZM1685 1004Q1685 996 1679.0 990.0Q1673 984 1665 984Q1662 984 1652.5 989.0Q1643 994 1628.5 999.5Q1614 1005 1596.5 1010.0Q1579 1015 1561 1015Q1555 1015 1548.5 1014.5Q1542 1014 1536.0 1015.0Q1530 1016 1526.0 1020.0Q1522 1024 1522 1033Q1522 1050 1536.0 1052.5Q1550 1055 1563 1055Q1572 1055 1592.0 1052.0Q1612 1049 1633.0 1042.5Q1654 1036 1669.5 1026.5Q1685 1017 1685 1004Z" style="fill:#d37034;stroke:none" transform="scale(1,-1) translate(0,-256)" /></svg>