<?xml version="1.0" encoding="utf-8" ?>
<svg baseProfile="full" height="256" version="1.1" width="256" xmlns="http://www.w3.org/2000/svg" xmlns:ev="http://www.w3.org/2001/xml-events" xmlns:xlink="http://www.w3.org/1999/xlink"><defs /><path d="M1891 1133Q1891 1104 1882.5 1079.5Q1874 1055 1859 1031Q1841 1002 1840.0 976.5Q1839 951 1839 918Q1833 921 1821.5 913.0Q1810 905 1796.5 894.5Q1783 884 1770.0 875.0Q1757 866 1750 867Q1753 939 1724.0 991.0Q1695 1043 1646.0 1077.0Q1597 1111 1535.0 1127.0Q1473 1143 1411 1143Q1349 1143 1285.0 1126.5Q1221 1110 1169.0 1076.5Q1117 1043 1084.0 991.0Q1051 939 1051 867Q1044 866 1034.0 874.0Q1024 882 1013.5 891.5Q1003 901 993.0 909.5Q983 918 976 918Q973 918 972 917Q972 934 972.5 948.0Q973 962 971.5 975.5Q970 989 965.5 1002.5Q961 1016 952 1031Q937 1056 929.0 1081.5Q921 1107 921 1136V1150H1039V1304Q1068 1315 1088.5 1332.0Q1109 1349 1125.5 1368.0Q1142 1387 1156.5 1405.5Q1171 1424 1189.5 1439.5Q1208 1455 1232.5 1464.5Q1257 1474 1292 1474Q1307 1474 1321.5 1470.0Q1336 1466 1349.5 1461.5Q1363 1457 1377.0 1453.5Q1391 1450 1406 1450Q1421 1450 1435.0 1453.5Q1449 1457 1462.5 1461.5Q1476 1466 1490.5 1470.0Q1505 1474 1520 1474Q1556 1474 1580.5 1464.5Q1605 1455 1623.0 1440.0Q1641 1425 1655.0 1406.0Q1669 1387 1685.0 1368.0Q1701 1349 1721.5 1332.5Q1742 1316 1772 1305V1150H1890Q1891 1145 1891.0 1141.5Q1891 1138 1891 1133ZM1768 736Q1807 738 1837 760V689Q1837 638 1809.5 596.0Q1782 554 1735 534Q1758 584 1761.5 633.0Q1765 682 1768 736ZM1044 731Q1047 677 1050.5 628.0Q1054 579 1077 529Q1029 548 1002.0 590.5Q975 633 975 684V755Q1005 733 1044 731Z" style="fill:#f1a11e;stroke:none" transform="scale(1,-1) translate(0,-256)" /></svg>