<?xml version="1.0" encoding="utf-8" ?>
<svg baseProfile="full" height="256" version="1.1" width="256" xmlns="http://www.w3.org/2000/svg" xmlns:ev="http://www.w3.org/2001/xml-events" xmlns:xlink="http://www.w3.org/1999/xlink"><defs /><path d="M1406 1653Q1503 1653 1582.5 1614.5Q1662 1576 1718.5 1511.5Q1775 1447 1806.0 1362.5Q1837 1278 1837 1186Q1853 1186 1875.0 1187.0Q1897 1188 1916.5 1184.5Q1936 1181 1949.5 1169.0Q1963 1157 1963 1132Q1963 1109 1947.5 1093.5Q1932 1078 1909 1078H903Q880 1078 864.5 1093.5Q849 1109 849 1132Q849 1157 862.5 1169.0Q876 1181 895.5 1184.5Q915 1188 936.5 1187.0Q958 1186 975 1186V1201Q975 1291 1007.5 1373.0Q1040 1455 1098.0 1517.5Q1156 1580 1234.5 1616.5Q1313 1653 1406 1653Z" style="fill:#321b41;stroke:none" transform="scale(1,-1) translate(0,-256)" /></svg>