<?xml version="1.0" encoding="utf-8" ?>
<svg baseProfile="full" height="256" version="1.1" width="256" xmlns="http://www.w3.org/2000/svg" xmlns:ev="http://www.w3.org/2001/xml-events" xmlns:xlink="http://www.w3.org/1999/xlink"><defs /><path d="M1406 144Q1406 162 1423 173L1534 240Q1548 248 1563 248Q1588 248 1605.0 230.0Q1622 212 1622 188V100Q1622 76 1605.5 57.5Q1589 39 1564 39Q1556 39 1548.5 41.5Q1541 44 1534 48L1423 114Q1406 123 1406 144Q1406 124 1389 114L1278 48Q1271 44 1263.5 41.5Q1256 39 1248 39Q1223 39 1206.5 57.5Q1190 76 1190 100V188Q1190 212 1207.0 230.0Q1224 248 1249 248Q1264 248 1278 240L1389 173Q1406 163 1406 144Z" style="fill:#f70a8d;stroke:none" transform="scale(1,-1) translate(0,-256)" /></svg>