<?xml version="1.0" encoding="utf-8" ?>
<svg baseProfile="full" height="256" version="1.1" width="256" xmlns="http://www.w3.org/2000/svg" xmlns:ev="http://www.w3.org/2001/xml-events" xmlns:xlink="http://www.w3.org/1999/xlink"><defs /><path d="M1710 1115Q1738 1102 1755.0 1075.0Q1772 1048 1772 1017Q1772 1002 1771.0 986.0Q1770 970 1769 955L1787 953Q1783 869 1779.5 786.5Q1776 704 1771 620Q1770 603 1764.5 584.0Q1759 565 1753 549Q1736 507 1708.5 472.0Q1681 437 1645.0 412.0Q1609 387 1566.5 373.5Q1524 360 1478 360H1335Q1289 360 1246.5 373.5Q1204 387 1168.0 412.0Q1132 437 1104.0 472.0Q1076 507 1059 549Q1053 566 1048.0 584.5Q1043 603 1041 620L1020 950L1024 951Q1024 974 1024.0 994.5Q1024 1015 1025.5 1034.5Q1027 1054 1032.0 1073.5Q1037 1093 1046 1115Z" style="fill:#ffc83d;stroke:none" transform="scale(1,-1) translate(0,-256)" /></svg>