<?xml version="1.0" encoding="utf-8" ?>
<svg baseProfile="full" height="256" version="1.1" width="256" xmlns="http://www.w3.org/2000/svg" xmlns:ev="http://www.w3.org/2001/xml-events" xmlns:xlink="http://www.w3.org/1999/xlink"><defs /><path d="M1183 849Q1183 877 1202.5 896.0Q1222 915 1250 915Q1278 915 1296.5 896.0Q1315 877 1315 849Q1315 844 1314.5 840.5Q1314 837 1313 832H1186Q1183 839 1183 849ZM1639 849Q1639 877 1620.0 896.0Q1601 915 1573 915Q1544 915 1526.0 896.0Q1508 877 1508 849Q1508 844 1508.0 840.5Q1508 837 1510 832H1637Q1638 837 1638.5 840.5Q1639 844 1639 849Z" style="fill:#7d4533;stroke:none" transform="scale(1,-1) translate(0,-256)" /></svg>