<?xml version="1.0" encoding="utf-8" ?>
<svg baseProfile="full" height="256" version="1.1" width="256" xmlns="http://www.w3.org/2000/svg" xmlns:ev="http://www.w3.org/2001/xml-events" xmlns:xlink="http://www.w3.org/1999/xlink"><defs /><path d="M1176 835Q1176 810 1166.5 788.0Q1157 766 1141.0 749.5Q1125 733 1103.0 723.5Q1081 714 1056 714Q1031 714 1009.0 723.5Q987 733 970.5 749.5Q954 766 944.5 788.0Q935 810 935 835Q935 860 944.5 882.0Q954 904 970.5 920.0Q987 936 1009.0 945.5Q1031 955 1056 955Q1081 955 1102.5 945.5Q1124 936 1140.5 919.5Q1157 903 1166.5 881.5Q1176 860 1176 835ZM1886 835Q1886 810 1876.5 788.0Q1867 766 1850.5 749.5Q1834 733 1812.0 723.5Q1790 714 1765 714Q1740 714 1718.0 723.5Q1696 733 1679.5 749.5Q1663 766 1653.5 788.0Q1644 810 1644 835Q1644 860 1653.5 882.0Q1663 904 1679.5 920.0Q1696 936 1718.0 945.5Q1740 955 1765 955Q1790 955 1812.0 945.5Q1834 936 1850.5 920.0Q1867 904 1876.5 882.0Q1886 860 1886 835Z" style="fill:#fdbb11;stroke:none" transform="scale(1,-1) translate(0,-256)" /></svg>