<?xml version="1.0" encoding="utf-8" ?>
<svg baseProfile="full" height="256" version="1.1" width="256" xmlns="http://www.w3.org/2000/svg" xmlns:ev="http://www.w3.org/2001/xml-events" xmlns:xlink="http://www.w3.org/1999/xlink"><defs /><path d="M2179 683Q2153 683 2130.0 693.0Q2107 703 2090.0 720.0Q2073 737 2063.0 760.0Q2053 783 2053 809Q2053 835 2063.0 858.0Q2073 881 2090.0 898.0Q2107 915 2130.0 925.0Q2153 935 2179 935Q2205 935 2227.5 925.0Q2250 915 2267.0 898.0Q2284 881 2294.0 858.0Q2304 835 2304 809Q2304 783 2294.5 760.0Q2285 737 2268.0 720.0Q2251 703 2228.0 693.0Q2205 683 2179 683Z" style="fill:#ffc83d;stroke:none" transform="scale(1,-1) translate(0,-256)" /></svg>