<?xml version="1.0" encoding="utf-8" ?>
<svg baseProfile="full" height="256" version="1.1" width="256" xmlns="http://www.w3.org/2000/svg" xmlns:ev="http://www.w3.org/2001/xml-events" xmlns:xlink="http://www.w3.org/1999/xlink"><defs /><path d="M1460 -18Q1460 -41 1444.5 -56.5Q1429 -72 1406 -72Q1383 -72 1367.5 -56.5Q1352 -41 1352 -18Q1352 5 1367.5 20.5Q1383 36 1406 36Q1429 36 1444.5 20.5Q1460 5 1460 -18ZM1460 -162Q1460 -185 1444.0 -200.0Q1428 -215 1406 -215Q1384 -215 1368.0 -200.0Q1352 -185 1352 -162Q1352 -139 1367.5 -123.5Q1383 -108 1406 -108Q1429 -108 1444.5 -123.5Q1460 -139 1460 -162Z" style="fill:#f3eef8;stroke:none" transform="scale(1,-1) translate(0,-256)" /></svg>