<?xml version="1.0" encoding="utf-8" ?>
<svg baseProfile="full" height="256" version="1.1" width="256" xmlns="http://www.w3.org/2000/svg" xmlns:ev="http://www.w3.org/2001/xml-events" xmlns:xlink="http://www.w3.org/1999/xlink"><defs /><path d="M547 647Q570 647 586 629L664 537Q665 536 665 535Q665 532 664 531L660 529Q658 529 646.5 542.5Q635 556 621.0 572.5Q607 589 594.5 604.5Q582 620 579 623Q566 638 547 638Q536 638 525.5 632.5Q515 627 510 617Q519 609 535.5 590.5Q552 572 569.0 551.5Q586 531 602.5 511.0Q619 491 628 480V477Q628 474 627 473L621 474Q610 486 593.5 505.0Q577 524 559.5 543.5Q542 563 526.5 581.5Q511 600 503 612H502L501 614Q489 623 474 623Q456 623 443.5 611.0Q431 599 431 581Q431 573 434 566Q448 570 462.5 565.5Q477 561 486 550L581 438V437Q581 434 580 432H579Q576 432 561.5 447.5Q547 463 530.0 483.0Q513 503 498.0 521.0Q483 539 479 544Q466 559 447 559Q429 559 416.5 546.5Q404 534 404 516Q404 499 413.5 489.5Q423 480 434 469Q447 479 464 479Q489 479 504 461L551 404Q552 403 552 402Q552 397 547 397Q542 397 534.5 408.5Q527 420 516.5 433.5Q506 447 493.5 458.5Q481 470 465 470Q454 470 448.5 466.0Q443 462 435 459L430 460Q417 473 406.0 485.0Q395 497 395 516Q395 531 403.0 543.5Q411 556 425 563Q422 570 422 580Q422 602 437.0 617.0Q452 632 474 632Q489 632 503 623Q521 647 547 647Z" style="fill:#d67d00;stroke:none" transform="scale(1,-1) translate(0,-256)" /></svg>