<?xml version="1.0" encoding="utf-8" ?>
<svg baseProfile="full" height="256" version="1.1" width="256" xmlns="http://www.w3.org/2000/svg" xmlns:ev="http://www.w3.org/2001/xml-events" xmlns:xlink="http://www.w3.org/1999/xlink"><defs /><path d="M1344 704Q1344 714 1348.5 732.5Q1353 751 1359.5 772.0Q1366 793 1372.0 812.0Q1378 831 1381 842Q1383 851 1390.0 857.0Q1397 863 1407 863Q1417 863 1424.0 857.0Q1431 851 1433 842Q1436 831 1442.0 812.0Q1448 793 1454.5 772.5Q1461 752 1465.5 733.5Q1470 715 1470 705Q1470 689 1460.0 677.0Q1450 665 1433 665H1381Q1365 665 1354.5 677.0Q1344 689 1344 704Z" style="fill:#ed9200;stroke:none" transform="scale(1,-1) translate(0,-256)" /></svg>