<?xml version="1.0" encoding="utf-8" ?>
<svg baseProfile="full" height="256" version="1.1" width="256" xmlns="http://www.w3.org/2000/svg" xmlns:ev="http://www.w3.org/2001/xml-events" xmlns:xlink="http://www.w3.org/1999/xlink"><defs /><path d="M1250 887Q1265 887 1276.5 875.5Q1288 864 1288 849Q1288 840 1283 832H1216Q1211 840 1211 849Q1211 865 1222.5 876.0Q1234 887 1250 887ZM1574 887Q1558 887 1547.0 876.0Q1536 865 1536 849Q1536 838 1541 832H1608Q1612 842 1612 849Q1612 865 1601.0 876.0Q1590 887 1574 887Z" style="fill:#000000;stroke:none" transform="scale(1,-1) translate(0,-256)" /></svg>