<?xml version="1.0" encoding="utf-8" ?>
<svg baseProfile="full" height="256" version="1.1" width="256" xmlns="http://www.w3.org/2000/svg" xmlns:ev="http://www.w3.org/2001/xml-events" xmlns:xlink="http://www.w3.org/1999/xlink"><defs /><path d="M1234 935Q1265 935 1291.0 918.5Q1317 902 1329 873Q1331 870 1333.5 862.5Q1336 855 1336 852Q1336 844 1332.0 838.0Q1328 832 1319 832H1154Q1146 832 1139.5 838.0Q1133 844 1133 852Q1133 869 1143.0 884.0Q1153 899 1168.0 910.5Q1183 922 1201.0 928.5Q1219 935 1234 935ZM1588 935Q1570 935 1552.0 928.0Q1534 921 1519.5 909.0Q1505 897 1496.0 881.0Q1487 865 1487 846Q1487 840 1493.0 836.0Q1499 832 1504 832H1669Q1677 832 1683.5 838.0Q1690 844 1690 852Q1690 869 1680.0 884.0Q1670 899 1654.5 910.5Q1639 922 1621.0 928.5Q1603 935 1588 935Z" style="fill:#ffffff;stroke:none" transform="scale(1,-1) translate(0,-256)" /></svg>