<?xml version="1.0" encoding="utf-8" ?>
<svg baseProfile="full" height="256" version="1.1" width="256" xmlns="http://www.w3.org/2000/svg" xmlns:ev="http://www.w3.org/2001/xml-events" xmlns:xlink="http://www.w3.org/1999/xlink"><defs /><path d="M1268 1039V837H1583V24H1492V123H721V24H631V837H916V1039H544V1127H1669V1039ZM721 212H1492V747H1268V488Q1268 480 1269.5 473.5Q1271 467 1282 467H1464V379H1273Q1229 379 1203.0 407.5Q1177 436 1177 479V747H1003Q1003 678 994.0 616.5Q985 555 964.0 500.0Q943 445 907.5 394.5Q872 344 819 298L745 361Q798 400 830.5 441.5Q863 483 881.0 530.5Q899 578 906.0 631.5Q913 685 914 747H721ZM1177 837V1039H1006V837Z" style="fill:#007356;stroke:none" transform="scale(1,-1) translate(0,-256)" /></svg>