<?xml version="1.0" encoding="utf-8" ?>
<svg baseProfile="full" height="256" version="1.1" width="256" xmlns="http://www.w3.org/2000/svg" xmlns:ev="http://www.w3.org/2001/xml-events" xmlns:xlink="http://www.w3.org/1999/xlink"><defs /><path d="M554 1369 484 1645H521Q535 1587 550.0 1530.0Q565 1473 572 1413H576Q586 1473 603.0 1530.0Q620 1587 635 1645H672Q686 1587 701.0 1530.0Q716 1473 723 1413Q731 1436 735.0 1459.0Q739 1482 745 1505L782 1645H819L742 1369H705Q690 1428 674.5 1486.5Q659 1545 651 1605Q647 1582 640.5 1559.0Q634 1536 628 1513L591 1369Z" style="fill:#0074ba;stroke:none" transform="scale(1,-1) translate(0,-256)" /></svg>