<?xml version="1.0" encoding="utf-8" ?>
<svg baseProfile="full" height="256" version="1.1" width="256" xmlns="http://www.w3.org/2000/svg" xmlns:ev="http://www.w3.org/2001/xml-events" xmlns:xlink="http://www.w3.org/1999/xlink"><defs /><path d="M1190 611Q1190 605 1189 602Q1175 542 1134.0 506.5Q1093 471 1031 471Q1017 471 995.5 475.0Q974 479 953.0 487.5Q932 496 917.0 509.0Q902 522 902 539Q902 554 913.0 564.5Q924 575 938 575Q946 575 954.5 570.0Q963 565 973.5 559.0Q984 553 997.5 548.0Q1011 543 1030 543Q1056 543 1071.5 550.5Q1087 558 1096.0 570.0Q1105 582 1110.0 595.0Q1115 608 1120.0 620.0Q1125 632 1132.5 639.5Q1140 647 1154 647Q1169 647 1179.5 636.5Q1190 626 1190 611ZM1406 108Q1351 108 1302.0 84.0Q1253 60 1220 16Q1207 0 1190 0Q1175 0 1164.5 11.0Q1154 22 1154 37Q1154 47 1160 56Q1175 81 1199.0 102.0Q1223 123 1252.0 138.5Q1281 154 1312.0 164.5Q1343 175 1370 178V360Q1370 374 1381.0 385.0Q1392 396 1406 396Q1420 396 1431.0 385.0Q1442 374 1442 360V178Q1469 175 1500.0 164.5Q1531 154 1559.5 138.5Q1588 123 1612.0 102.0Q1636 81 1651 56Q1657 47 1657 36Q1657 21 1647.0 10.5Q1637 0 1622 0Q1605 0 1592 16Q1558 59 1509.5 83.5Q1461 108 1406 108ZM1622 611Q1622 626 1632.5 636.5Q1643 647 1658 647Q1672 647 1679.5 639.5Q1687 632 1692.0 620.0Q1697 608 1702.0 595.0Q1707 582 1716.0 570.0Q1725 558 1740.5 550.5Q1756 543 1782 543Q1801 543 1814.5 548.0Q1828 553 1838.5 559.0Q1849 565 1857.0 570.0Q1865 575 1873 575Q1888 575 1898.5 564.5Q1909 554 1909 539Q1909 522 1894.0 509.0Q1879 496 1858.5 487.5Q1838 479 1816.0 475.0Q1794 471 1781 471Q1719 471 1678.0 506.5Q1637 542 1623 602Q1622 605 1622 611Z" style="fill:#402a32;stroke:none" transform="scale(1,-1) translate(0,-256)" /></svg>