<?xml version="1.0" encoding="utf-8" ?>
<svg baseProfile="full" height="256" version="1.1" width="256" xmlns="http://www.w3.org/2000/svg" xmlns:ev="http://www.w3.org/2001/xml-events" xmlns:xlink="http://www.w3.org/1999/xlink"><defs /><path d="M1046 575Q1065 575 1078.5 567.5Q1092 560 1104 546Q1130 516 1166.0 494.0Q1202 472 1242.5 458.0Q1283 444 1325.0 437.5Q1367 431 1406 431Q1445 431 1487.0 437.5Q1529 444 1569.5 458.0Q1610 472 1646.0 494.0Q1682 516 1708 546Q1720 560 1733.5 567.5Q1747 575 1766 575Q1795 575 1816.0 553.5Q1837 532 1837 503Q1837 480 1823 460Q1812 444 1796.5 429.5Q1781 415 1766 403Q1690 343 1596.0 315.5Q1502 288 1406 288Q1310 288 1216.0 315.5Q1122 343 1046 403Q1031 415 1015.5 429.5Q1000 444 989 460Q975 480 975 503Q975 532 995.5 553.5Q1016 575 1046 575Z" style="fill:#402a32;stroke:none" transform="scale(1,-1) translate(0,-256)" /></svg>