<?xml version="1.0" encoding="utf-8" ?>
<svg baseProfile="full" height="256" version="1.1" width="256" xmlns="http://www.w3.org/2000/svg" xmlns:ev="http://www.w3.org/2001/xml-events" xmlns:xlink="http://www.w3.org/1999/xlink"><defs /><path d="M1972 -72Q1946 -72 1927.5 -53.0Q1909 -34 1909 -8V1446Q1909 1472 1927.5 1491.0Q1946 1510 1972 1510H2134Q2160 1510 2178.5 1491.0Q2197 1472 2197 1446V-9Q2197 -35 2178.0 -53.5Q2159 -72 2133 -72ZM1702 -72H1540Q1514 -72 1496.0 -53.0Q1478 -34 1478 -8V1159Q1478 1185 1496.5 1203.5Q1515 1222 1541 1222H1703Q1729 1222 1747.0 1203.5Q1765 1185 1765 1159V-9Q1765 -35 1746.5 -53.5Q1728 -72 1702 -72ZM1110 -72Q1084 -72 1065.5 -53.0Q1047 -34 1047 -8V799Q1047 825 1065.5 844.0Q1084 863 1110 863H1272Q1298 863 1316.5 844.0Q1335 825 1335 799V-9Q1335 -35 1316.0 -53.5Q1297 -72 1271 -72ZM679 -72Q652 -72 633.5 -53.5Q615 -35 615 -8V369Q615 395 634.0 413.0Q653 431 679 431H840Q866 431 884.5 412.5Q903 394 903 368V-9Q903 -35 884.5 -53.5Q866 -72 840 -72Z" style="fill:#ffffff;stroke:none" transform="scale(1,-1) translate(0,-256)" /></svg>