<?xml version="1.0" encoding="utf-8" ?>
<svg baseProfile="full" height="256" version="1.1" width="256" xmlns="http://www.w3.org/2000/svg" xmlns:ev="http://www.w3.org/2001/xml-events" xmlns:xlink="http://www.w3.org/1999/xlink"><defs /><path d="M1084 1581Q1084 1543 1071.0 1519.5Q1058 1496 1032 1470Q1003 1441 972.5 1414.5Q942 1388 915 1357Q860 1294 817.5 1222.0Q775 1150 746.0 1071.5Q717 993 702.0 910.5Q687 828 687 745Q687 646 712.5 554.0Q738 462 785.0 382.0Q832 302 897.5 236.5Q963 171 1043.0 124.0Q1123 77 1215.0 51.5Q1307 26 1406 26Q1505 26 1597.0 51.5Q1689 77 1769.0 124.0Q1849 171 1914.5 236.5Q1980 302 2027.0 382.0Q2074 462 2099.5 554.0Q2125 646 2125 745Q2125 849 2085.5 940.5Q2046 1032 1977.5 1100.5Q1909 1169 1817.5 1208.5Q1726 1248 1622 1248Q1518 1248 1426.0 1208.5Q1334 1169 1265.5 1100.5Q1197 1032 1157.5 940.5Q1118 849 1118 745Q1118 685 1140.5 632.5Q1163 580 1202.0 541.0Q1241 502 1293.5 479.5Q1346 457 1406 457Q1466 457 1518.0 479.5Q1570 502 1609.0 541.0Q1648 580 1670.5 632.5Q1693 685 1693 745Q1693 774 1672.5 795.5Q1652 817 1622 817Q1592 817 1571.0 796.0Q1550 775 1550 745Q1550 715 1538.5 689.0Q1527 663 1507.5 643.5Q1488 624 1462.0 612.5Q1436 601 1406 601Q1376 601 1350.0 612.5Q1324 624 1304.5 643.5Q1285 663 1273.5 689.0Q1262 715 1262 745Q1262 820 1290.5 885.0Q1319 950 1367.5 999.0Q1416 1048 1481.5 1076.0Q1547 1104 1622 1104Q1696 1104 1761.5 1075.5Q1827 1047 1875.5 998.5Q1924 950 1952.5 884.5Q1981 819 1981 745Q1981 626 1936.0 521.0Q1891 416 1813.0 338.0Q1735 260 1630.0 215.0Q1525 170 1406 170Q1287 170 1182.0 215.0Q1077 260 999.0 338.0Q921 416 876.0 521.0Q831 626 831 745Q831 854 859.5 955.0Q888 1056 939.5 1143.5Q991 1231 1063.0 1303.5Q1135 1376 1223.0 1427.5Q1311 1479 1412.0 1507.0Q1513 1535 1622 1535Q1731 1535 1832.0 1507.0Q1933 1479 2020.5 1427.5Q2108 1376 2180.5 1303.5Q2253 1231 2304.5 1143.5Q2356 1056 2384.0 955.0Q2412 854 2412 745Q2412 606 2376.0 477.5Q2340 349 2274.5 237.0Q2209 125 2117.5 33.5Q2026 -58 1914.0 -123.5Q1802 -189 1673.5 -225.0Q1545 -261 1406 -261Q1267 -261 1138.5 -225.0Q1010 -189 898.0 -123.5Q786 -58 694.5 33.5Q603 125 537.5 237.0Q472 349 436.0 477.5Q400 606 400 745Q400 970 477.5 1176.0Q555 1382 703 1551Q724 1574 751.0 1604.0Q778 1634 809.0 1661.0Q840 1688 874.0 1706.5Q908 1725 941 1725Q971 1725 997.0 1713.5Q1023 1702 1042.5 1682.5Q1062 1663 1073.0 1637.0Q1084 1611 1084 1581Z" style="fill:#1345b7;stroke:none" transform="scale(1,-1) translate(0,-256)" /></svg>