<?xml version="1.0" encoding="utf-8" ?>
<svg baseProfile="full" height="256" version="1.1" width="256" xmlns="http://www.w3.org/2000/svg" xmlns:ev="http://www.w3.org/2001/xml-events" xmlns:xlink="http://www.w3.org/1999/xlink"><defs /><path d="M1403 927Q1416 927 1427.0 920.5Q1438 914 1447.5 904.5Q1457 895 1464.5 884.0Q1472 873 1478 863Q1512 805 1549.5 739.5Q1587 674 1619.0 604.0Q1651 534 1672.0 463.0Q1693 392 1693 324Q1693 261 1670.5 213.5Q1648 166 1609.0 134.5Q1570 103 1518.0 87.5Q1466 72 1406 72Q1346 72 1293.5 87.5Q1241 103 1202.0 134.5Q1163 166 1140.5 213.5Q1118 261 1118 324Q1118 391 1139.0 462.5Q1160 534 1192.0 604.0Q1224 674 1262.0 740.5Q1300 807 1334 863Q1340 872 1346.5 883.5Q1353 895 1361.0 904.5Q1369 914 1379.5 920.5Q1390 927 1403 927Z" style="fill:#f3eef8;stroke:none" transform="scale(1,-1) translate(0,-256)" /></svg>