<?xml version="1.0" encoding="utf-8" ?>
<svg baseProfile="full" height="256" version="1.1" width="256" xmlns="http://www.w3.org/2000/svg" xmlns:ev="http://www.w3.org/2001/xml-events" xmlns:xlink="http://www.w3.org/1999/xlink"><defs /><path d="M759 791Q759 910 804.5 1014.5Q850 1119 928.0 1197.0Q1006 1275 1110.5 1320.5Q1215 1366 1334 1366H1478Q1597 1366 1701.5 1320.5Q1806 1275 1884.0 1197.0Q1962 1119 2007.5 1014.5Q2053 910 2053 791V0Q2053 -60 2030.5 -112.0Q2008 -164 1969.0 -203.0Q1930 -242 1877.5 -264.5Q1825 -287 1765 -287H1047Q987 -287 934.5 -264.5Q882 -242 843.0 -203.0Q804 -164 781.5 -112.0Q759 -60 759 0Z" style="fill:#fbb8ab;stroke:none" transform="scale(1,-1) translate(0,-256)" /></svg>