<?xml version="1.0" encoding="utf-8" ?>
<svg baseProfile="full" height="256" version="1.1" width="256" xmlns="http://www.w3.org/2000/svg" xmlns:ev="http://www.w3.org/2001/xml-events" xmlns:xlink="http://www.w3.org/1999/xlink"><defs /><path d="M2305 719Q2305 595 2273.0 480.0Q2241 365 2182.5 265.5Q2124 166 2041.5 83.5Q1959 1 1859.5 -57.5Q1760 -116 1645.0 -148.0Q1530 -180 1406 -180Q1282 -180 1167.0 -148.0Q1052 -116 952.0 -57.5Q852 1 770.0 83.0Q688 165 629.5 265.0Q571 365 539.0 480.0Q507 595 507 719Q507 843 539.0 958.0Q571 1073 629.5 1172.5Q688 1272 770.5 1354.5Q853 1437 952.5 1495.5Q1052 1554 1167.0 1586.0Q1282 1618 1406 1618Q1530 1618 1645.0 1586.0Q1760 1554 1859.5 1495.5Q1959 1437 2041.5 1354.5Q2124 1272 2182.5 1172.5Q2241 1073 2273.0 958.0Q2305 843 2305 719Z" style="fill:#e6e6e6;stroke:none" transform="scale(1,-1) translate(0,-256)" /></svg>