<?xml version="1.0" encoding="utf-8" ?>
<svg baseProfile="full" height="256" version="1.1" width="256" xmlns="http://www.w3.org/2000/svg" xmlns:ev="http://www.w3.org/2001/xml-events" xmlns:xlink="http://www.w3.org/1999/xlink"><defs /><path d="M2412 97V-215H2197V-95Q2197 -84 2191.5 -74.0Q2186 -64 2178 -58L1812 204Q1795 216 1773 216H1262V83Q1262 46 1250.5 18.5Q1239 -9 1225.5 -29.0Q1212 -49 1201.0 -64.0Q1190 -79 1190 -91V-215H975V216Q940 223 908.0 241.0Q876 259 849.0 284.5Q822 310 802.5 341.5Q783 373 774 408L646 911Q644 922 635.0 928.5Q626 935 615 935L566 894L520 935Q495 935 473.5 943.0Q452 951 435.5 965.5Q419 980 409.5 1000.5Q400 1021 400 1047Q400 1061 405.5 1075.5Q411 1090 422 1101L641 1320Q663 1342 692.5 1354.0Q722 1366 753 1366H935Q986 1366 1029.5 1339.0Q1073 1312 1096 1267L1225 1009Q1242 974 1275.0 954.5Q1308 935 1346 935H2089Q2111 935 2118.5 950.5Q2126 966 2127.0 989.0Q2128 1012 2125.0 1039.5Q2122 1067 2122.5 1090.0Q2123 1113 2130.5 1128.5Q2138 1144 2159 1144Q2163 1144 2171 1142Q2215 1128 2241.5 1090.0Q2268 1052 2268 1006V315Q2268 287 2290.5 264.0Q2313 241 2340.0 216.5Q2367 192 2389.5 164.0Q2412 136 2412 97Z" style="fill:#f3ad61;stroke:none" transform="scale(1,-1) translate(0,-256)" /></svg>