<?xml version="1.0" encoding="utf-8" ?>
<svg baseProfile="full" height="256" version="1.1" width="256" xmlns="http://www.w3.org/2000/svg" xmlns:ev="http://www.w3.org/2001/xml-events" xmlns:xlink="http://www.w3.org/1999/xlink"><defs /><path d="M1406 1452Q1406 1441 1398.5 1434.0Q1391 1427 1380 1427Q1375 1427 1361.5 1434.5Q1348 1442 1327.5 1450.5Q1307 1459 1281.0 1466.5Q1255 1474 1226 1474Q1140 1474 1075.0 1427.0Q1010 1380 984 1298Q976 1274 958.0 1258.0Q940 1242 914 1242Q885 1242 863.0 1263.0Q841 1284 841 1313Q841 1324 844 1333Q859 1385 888.5 1430.0Q918 1475 958.5 1508.5Q999 1542 1049.0 1561.5Q1099 1581 1154 1581Q1187 1581 1222.0 1573.5Q1257 1566 1289.5 1552.0Q1322 1538 1350.5 1517.0Q1379 1496 1400 1469Q1406 1461 1406 1452ZM520 880V935H615V791H609Q572 791 546.0 817.0Q520 843 520 880Z" style="fill:#9b9b9b;stroke:none" transform="scale(1,-1) translate(0,-256)" /></svg>