<?xml version="1.0" encoding="utf-8" ?>
<svg baseProfile="full" height="256" version="1.1" width="256" xmlns="http://www.w3.org/2000/svg" xmlns:ev="http://www.w3.org/2001/xml-events" xmlns:xlink="http://www.w3.org/1999/xlink"><defs /><path d="M687 1137Q687 1152 697.5 1162.5Q708 1173 723 1173Q738 1173 748.5 1162.5Q759 1152 759 1137V1083Q759 1068 748.5 1057.5Q738 1047 723 1047Q708 1047 697.5 1057.5Q687 1068 687 1083ZM476 1006H407Q404 1016 402.0 1026.0Q400 1036 400 1047Q400 1064 407 1078H473Q489 1078 499.0 1067.5Q509 1057 509 1041Q509 1027 499.5 1016.5Q490 1006 476 1006Z" style="fill:#1c1c1c;stroke:none" transform="scale(1,-1) translate(0,-256)" /></svg>