<?xml version="1.0" encoding="utf-8" ?>
<svg baseProfile="full" height="256" version="1.1" width="256" xmlns="http://www.w3.org/2000/svg" xmlns:ev="http://www.w3.org/2001/xml-events" xmlns:xlink="http://www.w3.org/1999/xlink"><defs /><path d="M1120 -215H903V358L1190 360L1191 83Q1191 42 1176.0 6.5Q1161 -29 1133 -59Q1126 -67 1123.0 -73.5Q1120 -80 1120 -91ZM1693 288V-56Q1693 -63 1691.5 -72.0Q1690 -81 1686 -86L1594 -215H1835L1959 -102Q1964 -97 1968.5 -88.5Q1973 -80 1976.0 -70.5Q1979 -61 1980.5 -51.0Q1982 -41 1982 -34V288Z" style="fill:#d3883e;stroke:none" transform="scale(1,-1) translate(0,-256)" /></svg>