<?xml version="1.0" encoding="utf-8" ?>
<svg baseProfile="full" height="256" version="1.1" width="256" xmlns="http://www.w3.org/2000/svg" xmlns:ev="http://www.w3.org/2001/xml-events" xmlns:xlink="http://www.w3.org/1999/xlink"><defs /><path d="M1838 1113Q1838 1099 1827.5 1088.0Q1817 1077 1803 1077Q1788 1077 1777.5 1087.5Q1767 1098 1767 1113Q1767 1127 1778.0 1138.0Q1789 1149 1803 1149Q1817 1149 1827.5 1138.0Q1838 1127 1838 1113ZM1407 358Q1407 284 1378.5 218.5Q1350 153 1301.5 104.0Q1253 55 1187.5 27.0Q1122 -1 1048 -1Q973 -1 907.5 27.0Q842 55 793.5 104.0Q745 153 716.5 218.0Q688 283 688 358Q688 433 716.5 498.0Q745 563 794.0 612.0Q843 661 908.5 689.0Q974 717 1048 717Q1122 717 1187.5 688.5Q1253 660 1301.5 611.5Q1350 563 1378.5 497.5Q1407 432 1407 358ZM1371 933Q1386 933 1396.5 943.5Q1407 954 1407 969Q1407 984 1396.5 994.5Q1386 1005 1371 1005Q1356 1005 1345.5 994.5Q1335 984 1335 969Q1335 954 1345.5 943.5Q1356 933 1371 933ZM1551 466Q1551 451 1540.5 440.5Q1530 430 1515 430Q1500 430 1489.5 440.5Q1479 451 1479 466Q1479 481 1489.5 491.5Q1500 502 1515 502Q1530 502 1540.5 491.5Q1551 481 1551 466ZM1156 789Q1170 789 1181.0 800.0Q1192 811 1192 825Q1192 839 1181.0 850.0Q1170 861 1156 861Q1141 861 1130.5 850.5Q1120 840 1120 825Q1120 810 1130.5 799.5Q1141 789 1156 789ZM1478 717Q1478 688 1457.0 667.0Q1436 646 1407 646Q1378 646 1357.0 667.0Q1336 688 1336 717Q1336 746 1357.0 767.0Q1378 788 1407 788Q1436 788 1457.0 767.0Q1478 746 1478 717ZM1623 951Q1646 951 1661.5 966.5Q1677 982 1677 1005Q1677 1028 1661.5 1043.5Q1646 1059 1623 1059Q1600 1059 1584.5 1043.5Q1569 1028 1569 1005Q1569 982 1584.5 966.5Q1600 951 1623 951ZM1677 789Q1677 766 1661.5 750.5Q1646 735 1623 735Q1600 735 1584.5 750.5Q1569 766 1569 789Q1569 812 1584.5 827.5Q1600 843 1623 843Q1646 843 1661.5 827.5Q1677 812 1677 789Z" style="fill:#f8312f;stroke:none" transform="scale(1,-1) translate(0,-256)" /></svg>