<?xml version="1.0" encoding="utf-8" ?>
<svg baseProfile="full" height="256" version="1.1" width="256" xmlns="http://www.w3.org/2000/svg" xmlns:ev="http://www.w3.org/2001/xml-events" xmlns:xlink="http://www.w3.org/1999/xlink"><defs /><path d="M2279 1644Q2284 1648 2290.5 1650.5Q2297 1653 2304 1653Q2320 1653 2331.5 1641.0Q2343 1629 2343 1613Q2343 1598 2334 1588L2089 1272Q2103 1272 2123.0 1273.5Q2143 1275 2161.5 1272.5Q2180 1270 2193.0 1260.0Q2206 1250 2206 1228Q2206 1211 2194 1199L1911 916H2011Q2029 916 2041.5 903.5Q2054 891 2054 873Q2054 856 2041 843L1708 510H1808Q1826 510 1838.0 497.0Q1850 484 1850 466Q1850 448 1838 436L1402 1Q1330 -71 1239.0 -109.0Q1148 -147 1046 -147Q942 -147 850.5 -107.5Q759 -68 690.5 0.5Q622 69 582.5 160.5Q543 252 543 356Q543 458 581.0 549.0Q619 640 691 712L1125 1147Q1138 1160 1156 1160Q1174 1160 1186.5 1147.5Q1199 1135 1199 1117V1017L1532 1351Q1544 1363 1562 1363Q1580 1363 1593.0 1350.5Q1606 1338 1606 1320V1220L1889 1504Q1902 1517 1919 1517Q1941 1517 1950.5 1503.5Q1960 1490 1962.5 1471.5Q1965 1453 1963.5 1432.5Q1962 1412 1962 1399Z" style="fill:#d3d3d3;stroke:none" transform="scale(1,-1) translate(0,-256)" /></svg>