<?xml version="1.0" encoding="utf-8" ?>
<svg baseProfile="full" height="256" version="1.1" width="256" xmlns="http://www.w3.org/2000/svg" xmlns:ev="http://www.w3.org/2001/xml-events" xmlns:xlink="http://www.w3.org/1999/xlink"><defs /><path d="M1648 1366Q1677 1366 1698.0 1344.5Q1719 1323 1719 1294V1150Q1719 1121 1698.0 1099.5Q1677 1078 1648 1078H1216Q1166 1078 1126.5 1056.0Q1087 1034 1059.0 998.0Q1031 962 1016.0 917.0Q1001 872 1001 827Q1001 782 1016.0 737.0Q1031 692 1059.0 656.0Q1087 620 1126.5 597.5Q1166 575 1216 575H1701Q1709 575 1714.0 580.0Q1719 585 1719 593V755Q1719 778 1735.0 793.5Q1751 809 1774 809Q1797 809 1813 791L2117 462Q2131 446 2131 425Q2131 405 2117 389L1813 60Q1797 42 1774 42Q1751 42 1735.0 58.0Q1719 74 1719 97V270Q1719 278 1714.0 283.0Q1709 288 1701 288H1216Q1106 288 1013.5 332.5Q921 377 854.5 451.5Q788 526 750.5 623.5Q713 721 713 827Q713 932 750.5 1029.5Q788 1127 855.0 1202.0Q922 1277 1014.0 1321.5Q1106 1366 1216 1366Z" style="fill:#ffffff;stroke:none" transform="scale(1,-1) translate(0,-256)" /></svg>