<?xml version="1.0" encoding="utf-8" ?>
<svg baseProfile="full" height="256" version="1.1" width="256" xmlns="http://www.w3.org/2000/svg" xmlns:ev="http://www.w3.org/2001/xml-events" xmlns:xlink="http://www.w3.org/1999/xlink"><defs /><path d="M1234 1503Q1213 1503 1198.0 1496.5Q1183 1490 1181 1490Q1177 1490 1174.5 1493.0Q1172 1496 1172 1499Q1172 1505 1178.5 1509.0Q1185 1513 1194.0 1516.0Q1203 1519 1211.5 1520.0Q1220 1521 1225 1521Q1230 1521 1236.5 1520.5Q1243 1520 1243 1512Q1243 1503 1234 1503ZM1355 1521Q1360 1521 1369.0 1520.0Q1378 1519 1386.5 1516.0Q1395 1513 1401.5 1508.5Q1408 1504 1408 1498Q1408 1490 1399 1490Q1396 1490 1383.5 1497.0Q1371 1504 1356 1504Q1351 1504 1344.0 1503.5Q1337 1503 1337 1511Q1337 1519 1343.0 1520.0Q1349 1521 1355 1521Z" style="fill:#d37034;stroke:none" transform="scale(1,-1) translate(0,-256)" /></svg>