<?xml version="1.0" encoding="utf-8" ?>
<svg baseProfile="full" height="256" version="1.1" width="256" xmlns="http://www.w3.org/2000/svg" xmlns:ev="http://www.w3.org/2001/xml-events" xmlns:xlink="http://www.w3.org/1999/xlink"><defs /><path d="M1209 1079Q1209 1112 1212.5 1140.5Q1216 1169 1231 1198Q1249 1180 1268.0 1169.5Q1287 1159 1313 1159Q1341 1159 1359.0 1170.0Q1377 1181 1390.0 1199.0Q1403 1217 1412.0 1238.5Q1421 1260 1430 1281Q1434 1285 1438 1285H1504Q1508 1285 1511.0 1281.5Q1514 1278 1512 1274Q1506 1258 1496.5 1237.0Q1487 1216 1478.0 1193.0Q1469 1170 1462.5 1146.5Q1456 1123 1456 1104Q1456 1076 1476.0 1054.5Q1496 1033 1525 1033Q1536 1033 1547.0 1038.0Q1558 1043 1569 1043Q1581 1043 1586 1030Q1591 1017 1603.0 985.5Q1615 954 1630.0 914.0Q1645 874 1661.5 830.5Q1678 787 1691.5 749.5Q1705 712 1713.5 686.0Q1722 660 1722 655Q1722 645 1716.0 637.5Q1710 630 1700 628Q1652 620 1605.0 615.5Q1558 611 1510 611Q1459 611 1408.5 615.5Q1358 620 1308 631Q1292 635 1287 649Q1276 689 1264.0 729.0Q1252 769 1241 809Q1233 838 1227.0 872.5Q1221 907 1217.0 943.0Q1213 979 1211.0 1014.0Q1209 1049 1209 1079ZM2118 376 2119 377Q2130 379 2139.0 383.5Q2148 388 2161 388Q2175 388 2188.0 384.0Q2201 380 2214 375Q2248 364 2269.0 342.5Q2290 321 2304.0 300.0Q2318 279 2328.5 263.0Q2339 247 2353 247Q2364 247 2381.0 253.0Q2398 259 2409 262Q2418 264 2423.0 272.0Q2428 280 2428 289Q2428 293 2418.0 318.5Q2408 344 2393.5 381.5Q2379 419 2361.0 462.5Q2343 506 2327.0 544.5Q2311 583 2298.5 612.5Q2286 642 2283 651Q2280 659 2270.0 660.5Q2260 662 2253 662Q2248 662 2240.5 661.0Q2233 660 2228 658L2057 561Q2044 553 2036.0 544.0Q2028 535 2028 518Q2028 504 2036.5 492.0Q2045 480 2061 480Q2066 480 2072 482H2073Q2077 484 2080 484Q2090 484 2093.5 473.0Q2097 462 2097.5 447.0Q2098 432 2096.5 417.5Q2095 403 2095 396Q2095 387 2097.5 381.0Q2100 375 2111 375Q2116 375 2118 376ZM998 4Q994 -11 979.5 -23.0Q965 -35 946.0 -43.0Q927 -51 907.5 -55.0Q888 -59 875 -59Q857 -59 839.0 -53.5Q821 -48 804.5 -42.0Q788 -36 773.5 -30.5Q759 -25 750 -25Q737 -25 730 -34Q726 -39 719.5 -46.0Q713 -53 707.0 -60.5Q701 -68 696.5 -76.0Q692 -84 692 -91Q692 -107 704 -114L1029 -314Q1033 -316 1036 -316Q1045 -316 1059.0 -306.0Q1073 -296 1077 -287L1159 -107Q1162 -101 1164.0 -95.5Q1166 -90 1166 -83Q1166 -67 1155.0 -52.5Q1144 -38 1127 -38Q1119 -38 1112.0 -41.5Q1105 -45 1100 -52V-53Q1095 -61 1085 -61Q1077 -61 1068.0 -49.5Q1059 -38 1050.0 -24.0Q1041 -10 1032.0 1.5Q1023 13 1015 13Q1009 13 1006.0 10.5Q1003 8 998 4Z" style="fill:#ff6723;stroke:none" transform="scale(1,-1) translate(0,-256)" /></svg>