<?xml version="1.0" encoding="utf-8" ?>
<svg baseProfile="full" height="256" version="1.1" width="256" xmlns="http://www.w3.org/2000/svg" xmlns:ev="http://www.w3.org/2001/xml-events" xmlns:xlink="http://www.w3.org/1999/xlink"><defs /><path d="M1326 1656Q1353 1656 1376.5 1646.0Q1400 1636 1417.5 1618.5Q1435 1601 1445.0 1577.5Q1455 1554 1455 1527Q1455 1478 1450.5 1428.0Q1446 1378 1443 1329Q1441 1306 1430.0 1286.5Q1419 1267 1402.0 1253.0Q1385 1239 1364.0 1230.5Q1343 1222 1321 1222H1261Q1240 1222 1218.5 1230.5Q1197 1239 1180.0 1253.5Q1163 1268 1151.5 1287.5Q1140 1307 1139 1329Q1136 1378 1131.5 1427.5Q1127 1477 1127 1525Q1127 1552 1137.0 1576.0Q1147 1600 1164.0 1618.0Q1181 1636 1205.0 1646.0Q1229 1656 1256 1656H1326Z" style="fill:#ffc83d;stroke:none" transform="scale(1,-1) translate(0,-256)" /></svg>