<?xml version="1.0" encoding="utf-8" ?>
<svg baseProfile="full" height="256" version="1.1" width="256" xmlns="http://www.w3.org/2000/svg" xmlns:ev="http://www.w3.org/2001/xml-events" xmlns:xlink="http://www.w3.org/1999/xlink"><defs /><path d="M1029 -287Q1018 -287 1009.5 -283.0Q1001 -279 992 -274L709 -100Q701 -95 701 -85Q701 -73 709.0 -66.5Q717 -60 728.0 -57.0Q739 -54 751.5 -53.0Q764 -52 772 -52Q811 -52 850.0 -62.5Q889 -73 923 -73Q956 -73 978.5 -49.0Q1001 -25 1011 4L1086 231Q1097 266 1116.0 297.5Q1135 329 1159 356L1282 491Q1302 514 1313.5 542.5Q1325 571 1325 601Q1325 612 1324.0 622.0Q1323 632 1322 643Q1369 636 1413.5 629.5Q1458 623 1506 623Q1557 623 1606.5 630.0Q1656 637 1706 643Q1707 628 1708.0 613.0Q1709 598 1709 583Q1709 572 1708.0 562.0Q1707 552 1705 542L1801 434Q1811 422 1826 422Q1834 422 1865.0 437.5Q1896 453 1938.0 476.5Q1980 500 2027.5 527.5Q2075 555 2118.5 578.5Q2162 602 2195.0 617.5Q2228 633 2241 633Q2261 633 2272.0 621.5Q2283 610 2290 593L2410 291Q2411 289 2411 285Q2411 274 2402.5 270.0Q2394 266 2385 266Q2357 266 2332.5 288.5Q2308 311 2284.0 338.0Q2260 365 2236.0 387.5Q2212 410 2186 410Q2174 410 2156.5 406.0Q2139 402 2128 396L1801 222Q1787 215 1773.5 211.0Q1760 207 1745 207Q1711 207 1682.0 224.5Q1653 242 1629.0 268.0Q1605 294 1584.5 323.5Q1564 353 1548 377V378L1315 230Q1265 198 1243 142Q1217 76 1190.5 10.0Q1164 -56 1136 -122Q1122 -155 1108.0 -190.5Q1094 -226 1075 -257Q1067 -270 1056.0 -278.5Q1045 -287 1029 -287Z" style="fill:#fcb100;stroke:none" transform="scale(1,-1) translate(0,-256)" /></svg>