<?xml version="1.0" encoding="utf-8" ?>
<svg baseProfile="full" height="256" version="1.1" width="256" xmlns="http://www.w3.org/2000/svg" xmlns:ev="http://www.w3.org/2001/xml-events" xmlns:xlink="http://www.w3.org/1999/xlink"><defs /><path d="M1215 1470Q1229 1470 1243.5 1459.0Q1258 1448 1258 1433Q1258 1425 1251 1425H1180Q1177 1427 1174.0 1428.0Q1171 1429 1171 1434Q1171 1450 1186.0 1460.0Q1201 1470 1215 1470ZM1366 1470Q1352 1470 1337.5 1459.0Q1323 1448 1323 1433Q1323 1425 1330 1425H1401Q1404 1427 1407.0 1428.0Q1410 1429 1410 1434Q1410 1450 1395.0 1460.0Q1380 1470 1366 1470Z" style="fill:#ffffff;stroke:none" transform="scale(1,-1) translate(0,-256)" /></svg>