<?xml version="1.0" encoding="utf-8" ?>
<svg baseProfile="full" height="256" version="1.1" width="256" xmlns="http://www.w3.org/2000/svg" xmlns:ev="http://www.w3.org/2001/xml-events" xmlns:xlink="http://www.w3.org/1999/xlink"><defs /><path d="M1328 643Q1374 635 1419.5 626.5Q1465 618 1512 618Q1562 618 1610 627Q1630 630 1652.5 635.5Q1675 641 1695 641Q1701 641 1704.5 632.0Q1708 623 1710.0 611.5Q1712 600 1712.5 589.0Q1713 578 1713 574Q1713 546 1705.0 518.0Q1697 490 1683.0 465.5Q1669 441 1649.5 420.0Q1630 399 1606 384L1373 240Q1365 235 1355 235Q1345 235 1328.5 246.0Q1312 257 1293.5 274.0Q1275 291 1255.5 312.0Q1236 333 1220.5 353.5Q1205 374 1195.0 391.5Q1185 409 1185 420Q1185 434 1194 443Q1213 462 1230.0 478.5Q1247 495 1261.0 512.0Q1275 529 1286.0 548.5Q1297 568 1306 595Q1307 598 1309.0 606.0Q1311 614 1314.0 622.5Q1317 631 1320.5 637.5Q1324 644 1328 643Z" style="fill:#9b9b9b;stroke:none" transform="scale(1,-1) translate(0,-256)" /></svg>