<?xml version="1.0" encoding="utf-8" ?>
<svg baseProfile="full" height="256" version="1.1" width="256" xmlns="http://www.w3.org/2000/svg" xmlns:ev="http://www.w3.org/2001/xml-events" xmlns:xlink="http://www.w3.org/1999/xlink"><defs /><path d="M1218 1168 1240 917 1111 795Q1052 739 968 733L872 726Q860 725 849.5 716.0Q839 707 829.5 696.0Q820 685 810.0 676.0Q800 667 789 667Q770 667 767.0 679.0Q764 691 764 705Q764 716 756.5 719.0Q749 722 740 722Q733 722 720.5 715.5Q708 709 694.0 701.5Q680 694 666.5 688.0Q653 682 644 682Q631 682 623.5 691.0Q616 700 616 712Q616 720 620.5 726.5Q625 733 632.0 738.5Q639 744 646.0 748.0Q653 752 659 756Q694 780 731.5 796.5Q769 813 808.0 825.0Q847 837 887.5 847.0Q928 857 969 868Q1009 879 1033 912Z" style="fill:#ffc83d;stroke:none" transform="scale(1,-1) translate(0,-256)" /></svg>