<?xml version="1.0" encoding="utf-8" ?>
<svg baseProfile="full" height="256" version="1.1" width="256" xmlns="http://www.w3.org/2000/svg" xmlns:ev="http://www.w3.org/2001/xml-events" xmlns:xlink="http://www.w3.org/1999/xlink"><defs /><path d="M723 288Q686 288 653.0 302.0Q620 316 595.5 340.5Q571 365 557.0 397.5Q543 430 543 467Q543 504 557.0 537.0Q571 570 595.5 594.5Q620 619 653.0 633.0Q686 647 723 647Q760 647 793.0 633.0Q826 619 850.5 594.5Q875 570 889.0 537.0Q903 504 903 467Q903 430 889.0 397.5Q875 365 850.5 340.5Q826 316 793.0 302.0Q760 288 723 288Z" style="fill:#ff6723;stroke:none" transform="scale(1,-1) translate(0,-256)" /></svg>