<?xml version="1.0" encoding="utf-8" ?>
<svg baseProfile="full" height="256" version="1.1" width="256" xmlns="http://www.w3.org/2000/svg" xmlns:ev="http://www.w3.org/2001/xml-events" xmlns:xlink="http://www.w3.org/1999/xlink"><defs /><path d="M1427 1284Q1535 1284 1641.5 1258.0Q1748 1232 1845 1184Q1864 1174 1883.5 1165.0Q1903 1156 1918.5 1144.0Q1934 1132 1944.5 1115.0Q1955 1098 1955 1073Q1957 992 1959.0 912.5Q1961 833 1961 752Q1961 725 1942.0 706.0Q1923 687 1896 687Q1879 687 1863.5 689.5Q1848 692 1835.0 699.0Q1822 706 1814.5 718.5Q1807 731 1807 752V776Q1807 787 1810.5 794.5Q1814 802 1818.5 808.0Q1823 814 1826.5 820.5Q1830 827 1830 837Q1830 882 1824.5 930.0Q1819 978 1815 1024Q1813 1045 1793 1052Q1745 1070 1697.0 1078.0Q1649 1086 1598 1086Q1587 1086 1575.5 1083.5Q1564 1081 1564 1065Q1564 1062 1570.5 1043.0Q1577 1024 1587.5 997.0Q1598 970 1610.0 938.5Q1622 907 1633.0 878.5Q1644 850 1652.0 828.0Q1660 806 1663 799Q1676 761 1685.5 721.5Q1695 682 1706 644L1526 575L1323 644Q1306 688 1289.0 731.0Q1272 774 1257.5 816.5Q1243 859 1231.5 903.0Q1220 947 1213 994Q1209 1016 1205.5 1038.0Q1202 1060 1202 1082Q1202 1115 1211.0 1148.5Q1220 1182 1238.0 1210.0Q1256 1238 1283.0 1257.0Q1310 1276 1346 1280Q1366 1282 1386.5 1283.0Q1407 1284 1427 1284Z" style="fill:#fcb100;stroke:none" transform="scale(1,-1) translate(0,-256)" /></svg>