<?xml version="1.0" encoding="utf-8" ?>
<svg baseProfile="full" height="256" version="1.1" width="256" xmlns="http://www.w3.org/2000/svg" xmlns:ev="http://www.w3.org/2001/xml-events" xmlns:xlink="http://www.w3.org/1999/xlink"><defs /><path d="M1193 1433Q1193 1445 1201.0 1453.0Q1209 1461 1221 1461Q1232 1461 1240.5 1453.0Q1249 1445 1249 1434Q1249 1428 1248 1425H1194Q1193 1428 1193 1433ZM1388 1433Q1388 1445 1380.0 1453.0Q1372 1461 1360 1461Q1349 1461 1340.0 1453.0Q1331 1445 1331 1433Q1331 1429 1333 1425H1387Q1388 1428 1388 1433Z" style="fill:#7d4533;stroke:none" transform="scale(1,-1) translate(0,-256)" /></svg>