<?xml version="1.0" encoding="utf-8" ?>
<svg baseProfile="full" height="256" version="1.1" width="256" xmlns="http://www.w3.org/2000/svg" xmlns:ev="http://www.w3.org/2001/xml-events" xmlns:xlink="http://www.w3.org/1999/xlink"><defs /><path d="M1094 1617H1502Q1514 1617 1514 1604V1559Q1514 1546 1502 1546H1094Q1089 1546 1086.0 1550.0Q1083 1554 1083 1559V1604Q1083 1609 1086.0 1613.0Q1089 1617 1094 1617ZM1817 988Q1826 988 1847.0 989.0Q1868 990 1891.0 991.0Q1914 992 1934.5 993.5Q1955 995 1962 996Q1967 996 1967 1002V1070Q1967 1098 1956.0 1117.0Q1945 1136 1927.0 1150.0Q1909 1164 1887.0 1174.0Q1865 1184 1844 1195Q1842 1197 1838.5 1198.0Q1835 1199 1833 1201H1830Q1826 1201 1825 1198Q1823 1193 1813.5 1171.0Q1804 1149 1794.0 1124.5Q1784 1100 1776.0 1079.5Q1768 1059 1768 1057Q1768 1054 1774.0 1052.0Q1780 1050 1787.5 1046.0Q1795 1042 1801.5 1035.5Q1808 1029 1809 1017Q1809 1015 1809.0 1010.0Q1809 1005 1810.0 1000.0Q1811 995 1812.5 991.5Q1814 988 1817 988ZM2098 381Q2096 385 2095.5 396.5Q2095 408 2095.5 421.5Q2096 435 2096.5 447.5Q2097 460 2097 466Q2097 473 2092.0 478.5Q2087 484 2080 484Q2077 484 2073 482H2072Q2066 480 2061 480Q2043 480 2034.0 496.5Q2025 513 2030 529L1943 481L2013 335ZM1161 -63Q1175 -30 1188.0 3.0Q1201 36 1214 69L1057 142L1014 13Q1023 13 1032.0 1.5Q1041 -10 1050.0 -24.0Q1059 -38 1067.5 -49.5Q1076 -61 1085 -61Q1095 -61 1100 -53V-52Q1105 -45 1112.0 -41.5Q1119 -38 1127 -38Q1139 -38 1147.5 -45.5Q1156 -53 1161 -63ZM709 -60 1077 -287Q1070 -298 1063.5 -308.0Q1057 -318 1043 -318Q1034 -318 1029 -314L704 -114Q692 -107 692 -91Q692 -81 697.5 -74.5Q703 -68 709 -60ZM2392 257Q2406 261 2417.5 266.0Q2429 271 2429 288Q2429 292 2419.5 318.0Q2410 344 2395.0 381.5Q2380 419 2362.0 462.0Q2344 505 2328.0 544.0Q2312 583 2300.0 612.5Q2288 642 2284 651Q2277 668 2258 668Q2250 668 2242.5 664.5Q2235 661 2228 658Z" style="fill:#d3d3d3;stroke:none" transform="scale(1,-1) translate(0,-256)" /></svg>