<?xml version="1.0" encoding="utf-8" ?>
<svg baseProfile="full" height="256" version="1.1" width="256" xmlns="http://www.w3.org/2000/svg" xmlns:ev="http://www.w3.org/2001/xml-events" xmlns:xlink="http://www.w3.org/1999/xlink"><defs /><path d="M2197 143H2196Q2196 113 2184.5 87.0Q2173 61 2153.5 41.5Q2134 22 2108.0 10.5Q2082 -1 2052 -1H759Q729 -1 703.0 10.5Q677 22 657.5 41.5Q638 61 626.5 87.0Q615 113 615 143V430Q615 465 632.5 492.0Q650 519 681 535Q683 536 695.5 542.5Q708 549 721.5 556.0Q735 563 746.5 569.0Q758 575 759 575L1406 719L2053 575Q2053 575 2064.5 569.0Q2076 563 2090.0 556.0Q2104 549 2116.5 542.5Q2129 536 2131 535Q2161 519 2179.0 492.0Q2197 465 2197 430Z" style="fill:#636363;stroke:none" transform="scale(1,-1) translate(0,-256)" /></svg>