<?xml version="1.0" encoding="utf-8" ?>
<svg baseProfile="full" height="256" version="1.1" width="256" xmlns="http://www.w3.org/2000/svg" xmlns:ev="http://www.w3.org/2001/xml-events" xmlns:xlink="http://www.w3.org/1999/xlink"><defs /><path d="M1047 288Q1047 259 1025.5 237.5Q1004 216 975 216Q945 216 924.0 237.0Q903 258 903 288Q903 317 924.5 338.5Q946 360 975 360Q1004 360 1025.5 338.5Q1047 317 1047 288ZM1909 288Q1909 258 1888.0 237.0Q1867 216 1837 216Q1807 216 1786.0 237.0Q1765 258 1765 288Q1765 317 1786.5 338.5Q1808 360 1837 360Q1866 360 1887.5 338.5Q1909 317 1909 288Z" style="fill:#f92f60;stroke:none" transform="scale(1,-1) translate(0,-256)" /></svg>