<?xml version="1.0" encoding="utf-8" ?>
<svg baseProfile="full" height="256" version="1.1" width="256" xmlns="http://www.w3.org/2000/svg" xmlns:ev="http://www.w3.org/2001/xml-events" xmlns:xlink="http://www.w3.org/1999/xlink"><defs /><path d="M1044 431Q1011 431 989.5 444.5Q968 458 953.0 479.0Q938 500 926.5 525.5Q915 551 903 575H1909Q1897 551 1885.5 525.5Q1874 500 1858.5 479.0Q1843 458 1821.5 444.5Q1800 431 1768 431ZM1622 360Q1651 360 1672.0 338.5Q1693 317 1693 288Q1693 259 1671.5 237.5Q1650 216 1621 216H1190Q1161 216 1139.5 237.5Q1118 259 1118 288Q1118 317 1139.5 338.5Q1161 360 1190 360Z" style="fill:#d3d3d3;stroke:none" transform="scale(1,-1) translate(0,-256)" /></svg>