<?xml version="1.0" encoding="utf-8" ?>
<svg baseProfile="full" height="256" version="1.1" width="256" xmlns="http://www.w3.org/2000/svg" xmlns:ev="http://www.w3.org/2001/xml-events" xmlns:xlink="http://www.w3.org/1999/xlink"><defs /><path d="M1009 503H749Q723 503 705.0 521.0Q687 539 687 565V657Q687 683 705.0 701.0Q723 719 749 719H841Q875 719 906.0 705.5Q937 692 959.5 669.5Q982 647 995.5 616.0Q1009 585 1009 551ZM1803 503H2062Q2088 503 2106.5 521.0Q2125 539 2125 565V657Q2125 683 2107.0 701.0Q2089 719 2063 719H1971Q1936 719 1905.5 705.5Q1875 692 1852.5 669.5Q1830 647 1816.5 616.0Q1803 585 1803 551Z" style="fill:#d3d3d3;stroke:none" transform="scale(1,-1) translate(0,-256)" /></svg>