<?xml version="1.0" encoding="utf-8" ?>
<svg baseProfile="full" height="256" version="1.1" width="256" xmlns="http://www.w3.org/2000/svg" xmlns:ev="http://www.w3.org/2001/xml-events" xmlns:xlink="http://www.w3.org/1999/xlink"><defs /><path d="M1118 1438H1190V1366H1837Q1866 1366 1887.5 1344.5Q1909 1323 1909 1294Q1909 1264 1888.0 1243.0Q1867 1222 1837 1222H1190V1150H1118V1222H543Q514 1222 493.0 1243.5Q472 1265 472 1294Q472 1323 493.0 1344.5Q514 1366 543 1366H1118ZM1262 165 1313 216 1709 -179 1658 -231ZM831 168H759V-239H831Z" style="fill:#b4acbc;stroke:none" transform="scale(1,-1) translate(0,-256)" /></svg>