<?xml version="1.0" encoding="utf-8" ?>
<svg baseProfile="full" height="256" version="1.1" width="256" xmlns="http://www.w3.org/2000/svg" xmlns:ev="http://www.w3.org/2001/xml-events" xmlns:xlink="http://www.w3.org/1999/xlink"><defs /><path d="M2273 1366Q2301 1366 2320.5 1346.0Q2340 1326 2340 1298V971Q2340 949 2331.5 929.5Q2323 910 2308.5 895.0Q2294 880 2274.5 871.5Q2255 863 2233 863H1909L1689 643Q1691 626 1692.0 609.0Q1693 592 1693 575Q1693 470 1653.5 378.5Q1614 287 1545.5 219.0Q1477 151 1385.0 111.5Q1293 72 1188 72H900Q806 72 721.5 104.5Q637 137 570.0 194.5Q503 252 458.0 331.0Q413 410 400 503L730 712L759 1057Q828 1078 900 1078H1957L2225 1346Q2245 1366 2273 1366Z" style="fill:#ff822d;stroke:none" transform="scale(1,-1) translate(0,-256)" /></svg>