<?xml version="1.0" encoding="utf-8" ?>
<svg baseProfile="full" height="256" version="1.1" width="256" xmlns="http://www.w3.org/2000/svg" xmlns:ev="http://www.w3.org/2001/xml-events" xmlns:xlink="http://www.w3.org/1999/xlink"><defs /><path d="M2273 1366Q2301 1366 2320.5 1346.0Q2340 1326 2340 1298V971Q2340 949 2331.5 929.5Q2323 910 2309.0 895.0Q2295 880 2275.0 871.5Q2255 863 2233 863H1909L1550 503V863H1011Q988 863 968.5 871.5Q949 880 934.5 894.5Q920 909 911.5 928.5Q903 948 903 971Q903 993 911.5 1013.0Q920 1033 935.0 1047.0Q950 1061 969.5 1069.5Q989 1078 1011 1078H1957L2225 1346Q2245 1366 2273 1366Z" style="fill:#ffb02e;stroke:none" transform="scale(1,-1) translate(0,-256)" /></svg>