<?xml version="1.0" encoding="utf-8" ?>
<svg baseProfile="full" height="256" version="1.1" width="256" xmlns="http://www.w3.org/2000/svg" xmlns:ev="http://www.w3.org/2001/xml-events" xmlns:xlink="http://www.w3.org/1999/xlink"><defs /><path d="M1646 1697Q1657 1697 1667.5 1694.0Q1678 1691 1687 1684L1807 1598Q1837 1577 1837 1540Q1837 1517 1823 1498L1198 656Q1177 627 1145.0 611.5Q1113 596 1078 596Q1048 596 1022.0 607.0Q996 618 976.0 637.5Q956 657 944.5 683.0Q933 709 933 739Q933 786 961 825L1586 1667Q1608 1697 1646 1697Z" style="fill:#636363;stroke:none" transform="scale(1,-1) translate(0,-256)" /></svg>