<?xml version="1.0" encoding="utf-8" ?>
<svg baseProfile="full" height="256" version="1.1" width="256" xmlns="http://www.w3.org/2000/svg" xmlns:ev="http://www.w3.org/2001/xml-events" xmlns:xlink="http://www.w3.org/1999/xlink"><defs /><path d="M1497 1613Q1500 1613 1508.5 1612.5Q1517 1612 1526.0 1611.0Q1535 1610 1542.5 1608.5Q1550 1607 1553 1605L1790 1436Q1798 1430 1805.0 1414.5Q1812 1399 1816.5 1381.0Q1821 1363 1823.5 1345.5Q1826 1328 1826 1318Q1826 1284 1818.0 1257.0Q1810 1230 1797.0 1206.0Q1784 1182 1766.5 1159.0Q1749 1136 1730 1110Q1839 1072 1925.5 1002.5Q2012 933 2072.0 842.0Q2132 751 2164.0 643.5Q2196 536 2196 422Q2196 273 2145.5 149.0Q2095 25 2005.5 -67.0Q1916 -159 1793.0 -215.5Q1670 -272 1525 -287L1514 -288Q1491 -288 1471.5 -278.5Q1452 -269 1437.5 -253.5Q1423 -238 1414.5 -217.5Q1406 -197 1406 -174Q1406 -129 1433.0 -98.0Q1460 -67 1505 -61Q1559 -54 1609.5 -41.5Q1660 -29 1706.5 -9.0Q1753 11 1794.5 41.5Q1836 72 1872 116Q1926 182 1952.0 260.5Q1978 339 1978 424Q1978 514 1950.5 596.0Q1923 678 1872.0 743.0Q1821 808 1748.5 853.0Q1676 898 1585 915L1573 899H1478L1489 786Q1444 723 1381.5 687.5Q1319 652 1240 652Q1180 652 1127.0 674.5Q1074 697 1034.0 736.0Q994 775 970.5 827.5Q947 880 947 940Q947 996 965.5 1040.0Q984 1084 1018 1128L1118 1150L1102 1242L1305 1516Q1338 1561 1390.0 1587.0Q1442 1613 1497 1613Z" style="fill:#bebebe;stroke:none" transform="scale(1,-1) translate(0,-256)" /></svg>