<?xml version="1.0" encoding="utf-8" ?>
<svg baseProfile="full" height="256" version="1.1" width="256" xmlns="http://www.w3.org/2000/svg" xmlns:ev="http://www.w3.org/2001/xml-events" xmlns:xlink="http://www.w3.org/1999/xlink"><defs /><path d="M1190 1653H1622Q1652 1653 1678.0 1642.0Q1704 1631 1723.5 1611.5Q1743 1592 1754.0 1566.0Q1765 1540 1765 1510Q1765 1480 1754.0 1454.0Q1743 1428 1723.5 1408.5Q1704 1389 1678.0 1377.5Q1652 1366 1622 1366H1478V1203Q1511 1183 1530.5 1149.5Q1550 1116 1550 1078H1262Q1262 1116 1281.5 1149.5Q1301 1183 1334 1203V1366H1190Q1160 1366 1134.0 1377.5Q1108 1389 1088.5 1408.5Q1069 1428 1058.0 1454.0Q1047 1480 1047 1510Q1047 1540 1058.0 1566.0Q1069 1592 1088.5 1611.5Q1108 1631 1134.0 1642.0Q1160 1653 1190 1653Z" style="fill:#9b9b9b;stroke:none" transform="scale(1,-1) translate(0,-256)" /></svg>