<?xml version="1.0" encoding="utf-8" ?>
<svg baseProfile="full" height="256" version="1.1" width="256" xmlns="http://www.w3.org/2000/svg" xmlns:ev="http://www.w3.org/2001/xml-events" xmlns:xlink="http://www.w3.org/1999/xlink"><defs /><path d="M400 1581H2412V1510H400ZM2412 879V-158Q2412 -184 2403.0 -207.0Q2394 -230 2378.0 -248.0Q2362 -266 2339.5 -276.5Q2317 -287 2291 -287H777Q754 -287 730.0 -282.5Q706 -278 685 -271Q626 -254 576.5 -221.0Q527 -188 490.0 -143.0Q453 -98 430.0 -43.5Q407 11 401 72Q400 81 400.0 90.0Q400 99 400 108V144L687 360V647L400 863V877Q400 904 410.5 927.5Q421 951 438.5 968.5Q456 986 479.5 996.0Q503 1006 530 1006H1047Q1047 1018 1047.5 1030.5Q1048 1043 1051.5 1053.5Q1055 1064 1063.5 1071.0Q1072 1078 1089 1078H1723Q1739 1078 1748.0 1071.0Q1757 1064 1760.5 1053.5Q1764 1043 1764.5 1030.5Q1765 1018 1765 1006H2284Q2310 1006 2333.5 996.0Q2357 986 2374.5 969.0Q2392 952 2402.0 929.0Q2412 906 2412 879ZM2412 1366H400V1294H2412Z" style="fill:#d3d3d3;stroke:none" transform="scale(1,-1) translate(0,-256)" /></svg>