<?xml version="1.0" encoding="utf-8" ?>
<svg baseProfile="full" height="256" version="1.1" width="256" xmlns="http://www.w3.org/2000/svg" xmlns:ev="http://www.w3.org/2001/xml-events" xmlns:xlink="http://www.w3.org/1999/xlink"><defs /><path d="M400 863H1039Q1071 863 1094.5 839.5Q1118 816 1118 784V223Q1118 190 1095.0 167.0Q1072 144 1039 144H400ZM1614 863Q1646 863 1669.5 839.5Q1693 816 1693 784V367Q1693 334 1670.0 311.0Q1647 288 1614 288H1341Q1308 288 1285.0 311.0Q1262 334 1262 367V784Q1262 816 1285.5 839.5Q1309 863 1341 863ZM1916 863H2189Q2221 863 2244.5 839.5Q2268 816 2268 784V367Q2268 334 2245.0 311.0Q2222 288 2189 288H1916Q1883 288 1860.0 311.0Q1837 334 1837 367V784Q1837 816 1860.5 839.5Q1884 863 1916 863Z" style="fill:#00a6ed;stroke:none" transform="scale(1,-1) translate(0,-256)" /></svg>