<?xml version="1.0" encoding="utf-8" ?>
<svg baseProfile="full" height="256" version="1.1" width="256" xmlns="http://www.w3.org/2000/svg" xmlns:ev="http://www.w3.org/2001/xml-events" xmlns:xlink="http://www.w3.org/1999/xlink"><defs /><path d="M688 1707Q688 1715 693.5 1720.0Q699 1725 706 1725Q709 1725 733.5 1708.5Q758 1692 796.0 1664.5Q834 1637 882.5 1601.5Q931 1566 982.0 1528.5Q1033 1491 1083.0 1453.5Q1133 1416 1174.5 1385.0Q1216 1354 1245.5 1332.5Q1275 1311 1284 1304Q1290 1300 1295 1300Q1304 1300 1309 1307L1522 1575Q1527 1582 1536 1582Q1552 1582 1554 1566L1584 1243Q1585 1236 1589.5 1231.0Q1594 1226 1601 1226L1606 1227Q1615 1229 1644.0 1236.5Q1673 1244 1714.5 1254.0Q1756 1264 1806.0 1276.5Q1856 1289 1907.5 1301.5Q1959 1314 2007.5 1326.0Q2056 1338 2094.0 1347.0Q2132 1356 2156.0 1361.5Q2180 1367 2183 1367Q2191 1367 2196.0 1361.5Q2201 1356 2201 1349Q2201 1342 2196 1337L1842 951Q1837 946 1837 938Q1837 928 1846 923L2374 603Q2382 598 2382 588Q2382 572 2366 570L1751 506Q1744 505 1739.5 499.5Q1735 494 1735 487Q1735 476 1742.5 451.0Q1750 426 1761.5 393.0Q1773 360 1786.5 324.0Q1800 288 1811.5 255.0Q1823 222 1830.5 197.0Q1838 172 1838 161Q1838 154 1832.5 149.0Q1827 144 1820 144Q1812 144 1789.0 160.0Q1766 176 1735.5 200.0Q1705 224 1670.5 252.0Q1636 280 1605.5 304.0Q1575 328 1552.0 344.0Q1529 360 1521 360Q1510 360 1505 349L1248 -277Q1243 -288 1232 -288Q1226 -288 1221.0 -284.0Q1216 -280 1214 -274L1050 489Q1046 503 1032 503H1029Q1017 500 973.5 489.5Q930 479 871.5 464.5Q813 450 747.0 434.0Q681 418 625.0 405.0Q569 392 531.0 383.0Q493 374 489 374Q482 374 477.5 379.5Q473 385 473 392Q473 400 478 405L847 771Q853 777 853 784Q853 796 841 801L556 914Q545 919 545 931Q545 945 558 948L919 1038Q933 1041 933 1055Q933 1057 923.5 1083.5Q914 1110 898.0 1153.0Q882 1196 861.0 1250.5Q840 1305 818.0 1363.0Q796 1421 774.5 1477.5Q753 1534 735.0 1580.5Q717 1627 705.0 1659.5Q693 1692 689 1701Q688 1703 688 1707Z" style="fill:#f8312f;stroke:none" transform="scale(1,-1) translate(0,-256)" /></svg>