<?xml version="1.0" encoding="utf-8" ?>
<svg baseProfile="full" height="256" version="1.1" width="256" xmlns="http://www.w3.org/2000/svg" xmlns:ev="http://www.w3.org/2001/xml-events" xmlns:xlink="http://www.w3.org/1999/xlink"><defs /><path d="M1047 675Q1047 686 1062.0 701.0Q1077 716 1095.0 731.5Q1113 747 1128.0 761.5Q1143 776 1143 788Q1143 801 1122.0 813.5Q1101 826 1075.5 838.5Q1050 851 1029.0 863.5Q1008 876 1008 889Q1008 905 1023 907L1170 931Q1176 932 1180.5 937.0Q1185 942 1185 948Q1185 964 1174.5 995.0Q1164 1026 1152.0 1060.5Q1140 1095 1129.5 1126.0Q1119 1157 1119 1173Q1119 1181 1124.5 1186.0Q1130 1191 1138 1191Q1146 1191 1160.5 1180.5Q1175 1170 1193.5 1155.0Q1212 1140 1232.0 1121.5Q1252 1103 1270.5 1088.0Q1289 1073 1304.5 1062.5Q1320 1052 1328 1052Q1339 1052 1344 1061L1430 1218Q1435 1228 1446 1228Q1454 1228 1458.5 1223.0Q1463 1218 1464 1211L1477 1019Q1479 1002 1495 1002Q1522 1003 1549.0 1004.0Q1576 1005 1602 1005Q1610 1005 1615.0 1000.0Q1620 995 1620 987Q1620 975 1609.0 960.0Q1598 945 1585.0 929.0Q1572 913 1561.0 898.0Q1550 883 1550 872Q1550 859 1561 854L1900 718Q1909 714 1909 705Q1909 691 1895 691Q1854 691 1813.5 695.0Q1773 699 1731.5 704.0Q1690 709 1649.0 713.0Q1608 717 1568 717Q1556 717 1552.0 706.5Q1548 696 1548 680Q1548 664 1550.0 646.0Q1552 628 1552 612Q1552 596 1548.0 585.5Q1544 575 1532 575Q1521 575 1508.5 586.0Q1496 597 1482.5 610.5Q1469 624 1456.0 635.5Q1443 647 1432 647Q1420 647 1415 635L1322 372Q1317 359 1305 359Q1290 359 1286 375L1236 669Q1234 683 1220 683Q1201 683 1181.5 679.0Q1162 675 1142.5 670.0Q1123 665 1103.5 661.0Q1084 657 1065 657Q1057 657 1052.0 662.0Q1047 667 1047 675Z" style="fill:#fcd53f;stroke:none" transform="scale(1,-1) translate(0,-256)" /></svg>