<?xml version="1.0" encoding="utf-8" ?>
<svg baseProfile="full" height="256" version="1.1" width="256" xmlns="http://www.w3.org/2000/svg" xmlns:ev="http://www.w3.org/2001/xml-events" xmlns:xlink="http://www.w3.org/1999/xlink"><defs /><path d="M687 803Q687 851 692.0 879.0Q697 907 710.0 927.5Q723 948 744.5 968.5Q766 989 798 1022Q810 1034 826.0 1041.5Q842 1049 859 1049H941Q967 1049 982.5 1060.0Q998 1071 1011.5 1084.5Q1025 1098 1041.0 1109.5Q1057 1121 1083 1121H1157Q1170 1121 1181.0 1114.0Q1192 1107 1192 1093Q1192 1066 1198.0 1056.0Q1204 1046 1234 1046Q1243 1046 1252.5 1047.0Q1262 1048 1271 1050Q1282 1060 1296.0 1072.0Q1310 1084 1326.0 1095.0Q1342 1106 1358.5 1113.5Q1375 1121 1390 1121Q1409 1121 1430.0 1115.0Q1451 1109 1469.5 1101.5Q1488 1094 1502.5 1088.0Q1517 1082 1523 1082Q1535 1082 1544.0 1091.0Q1553 1100 1553 1112Q1553 1146 1529.0 1170.0Q1505 1194 1471 1194H1444Q1421 1194 1415.0 1209.0Q1409 1224 1409 1243Q1409 1258 1409.5 1269.5Q1410 1281 1407.5 1288.0Q1405 1295 1396.5 1298.5Q1388 1302 1370 1302Q1341 1302 1326.0 1285.0Q1311 1268 1299.5 1248.0Q1288 1228 1275.5 1211.0Q1263 1194 1238 1194Q1207 1194 1188.0 1205.0Q1169 1216 1152.5 1229.5Q1136 1243 1118.0 1254.5Q1100 1266 1070 1266H1001Q983 1266 978.5 1249.0Q974 1232 971.0 1212.0Q968 1192 960.5 1175.0Q953 1158 929 1158H911Q898 1158 885.5 1159.5Q873 1161 863.0 1165.5Q853 1170 846.5 1179.0Q840 1188 840 1204V1290Q840 1314 851.5 1322.5Q863 1331 876.5 1335.0Q890 1339 901.5 1343.5Q913 1348 913 1363Q913 1378 914.0 1392.5Q915 1407 920.0 1419.0Q925 1431 935.5 1438.5Q946 1446 965 1446Q981 1446 996.5 1440.5Q1012 1435 1026.5 1428.0Q1041 1421 1056.0 1415.5Q1071 1410 1088 1410Q1110 1410 1131.5 1409.5Q1153 1409 1174 1409Q1211 1409 1231.5 1417.0Q1252 1425 1261.5 1441.0Q1271 1457 1272.5 1482.0Q1274 1507 1274 1541Q1274 1549 1273.5 1559.0Q1273 1569 1270.0 1577.5Q1267 1586 1260.5 1591.5Q1254 1597 1243 1597Q1236 1597 1233 1596Q1216 1580 1204.0 1564.5Q1192 1549 1192 1525Q1192 1510 1185.0 1494.5Q1178 1479 1160 1479Q1137 1479 1128.5 1487.0Q1120 1495 1120 1518Q1120 1535 1119.5 1551.5Q1119 1568 1119 1585Q1119 1600 1122.5 1614.0Q1126 1628 1140 1636Q1171 1652 1191.5 1662.5Q1212 1673 1226.0 1680.5Q1240 1688 1251.5 1692.0Q1263 1696 1276.5 1697.5Q1290 1699 1309.5 1699.5Q1329 1700 1359 1700Q1382 1700 1398.0 1694.5Q1414 1689 1427.5 1679.0Q1441 1669 1453.0 1656.0Q1465 1643 1481 1627H1554L1626 1701Q1759 1671 1877.0 1608.0Q1995 1545 2091.5 1455.0Q2188 1365 2259.5 1251.5Q2331 1138 2370 1008L2220 782Q2210 767 2197.0 764.0Q2184 761 2167 761Q2155 761 2144.5 765.0Q2134 769 2134 784V822Q2134 850 2124.5 889.5Q2115 929 2097.0 964.0Q2079 999 2052.0 1024.0Q2025 1049 1990 1049H1879Q1862 1049 1850.0 1036.5Q1838 1024 1838 1007Q1838 994 1845.5 986.0Q1853 978 1861.5 970.5Q1870 963 1877.5 952.5Q1885 942 1885 925Q1885 909 1876.5 894.5Q1868 880 1854 873L1771 832Q1748 832 1734.0 834.0Q1720 836 1712.0 843.0Q1704 850 1701.0 864.0Q1698 878 1698 901Q1698 912 1698.5 925.0Q1699 938 1696.0 949.5Q1693 961 1685.5 968.5Q1678 976 1663 976Q1612 976 1585.5 951.5Q1559 927 1559 876V840Q1559 810 1580.5 786.0Q1602 762 1633.0 744.0Q1664 726 1697.5 714.5Q1731 703 1755 697Q1764 695 1770.0 690.0Q1776 685 1776 674V657Q1776 643 1774.5 629.0Q1773 615 1765 603L1628 398Q1616 398 1604.0 397.0Q1592 396 1582.0 392.0Q1572 388 1566.0 379.0Q1560 370 1560 355L1555 181L1433 59Q1422 48 1408.5 42.0Q1395 36 1379 36H1343Q1311 36 1288.5 59.0Q1266 82 1266 114V275Q1266 310 1251.5 318.0Q1237 326 1205 326Q1185 326 1171.0 339.5Q1157 353 1157 373V497Q1157 522 1147.5 544.0Q1138 566 1122.0 582.5Q1106 599 1084.0 608.5Q1062 618 1037 618H831Q806 618 780.5 638.5Q755 659 734.0 688.0Q713 717 700.0 748.5Q687 780 687 803ZM1803 360Q1819 360 1830.5 348.5Q1842 337 1842 321V245Q1842 229 1830.5 218.0Q1819 207 1803 207Q1788 207 1776.5 218.5Q1765 230 1765 245V321Q1765 336 1776.0 348.0Q1787 360 1803 360Z" style="fill:#00d26a;stroke:none" transform="scale(1,-1) translate(0,-256)" /></svg>