<?xml version="1.0" encoding="utf-8" ?>
<svg baseProfile="full" height="256" version="1.1" width="256" xmlns="http://www.w3.org/2000/svg" xmlns:ev="http://www.w3.org/2001/xml-events" xmlns:xlink="http://www.w3.org/1999/xlink"><defs /><path d="M902 1294Q919 1294 935 1286L1222 1143Q1241 1134 1251.5 1116.5Q1262 1099 1262 1078Q1262 1057 1251.5 1040.5Q1241 1024 1222 1014L935 870Q921 863 903 863Q873 863 852.0 884.0Q831 905 831 935Q831 955 842.0 972.5Q853 990 871 999L1030 1078L871 1158Q853 1167 842.0 1184.5Q831 1202 831 1222Q831 1251 852.0 1272.5Q873 1294 902 1294ZM1909 1294Q1938 1294 1959.5 1272.5Q1981 1251 1981 1222Q1981 1202 1970.0 1184.5Q1959 1167 1941 1158L1782 1078L1941 999Q1959 990 1970.0 972.5Q1981 955 1981 935Q1981 905 1960.0 884.0Q1939 863 1909 863Q1891 863 1877 870L1589 1014Q1571 1023 1560.5 1040.5Q1550 1058 1550 1078Q1550 1098 1560.5 1116.0Q1571 1134 1589 1143L1877 1286Q1893 1294 1909 1294Z" style="fill:#402a32;stroke:none" transform="scale(1,-1) translate(0,-256)" /></svg>