<?xml version="1.0" encoding="utf-8" ?>
<svg baseProfile="full" height="256" version="1.1" width="256" xmlns="http://www.w3.org/2000/svg" xmlns:ev="http://www.w3.org/2001/xml-events" xmlns:xlink="http://www.w3.org/1999/xlink"><defs /><path d="M1171 538Q1171 500 1145.0 474.0Q1119 448 1081 448Q1064 448 1047.0 454.5Q1030 461 1017 474L696 796L759 988L1145 602Q1158 589 1164.5 572.0Q1171 555 1171 538ZM847 83Q847 121 873.5 147.0Q900 173 937 173Q975 173 1001 147L1222 -75L1030 -137L874 19Q847 46 847 83ZM1398 569Q1398 606 1424.0 632.5Q1450 659 1487 659Q1525 659 1552 632L1942 242Q1915 205 1880.5 175.5Q1846 146 1806 123L1424 505Q1398 531 1398 569Z" style="fill:#ff6723;stroke:none" transform="scale(1,-1) translate(0,-256)" /></svg>