<?xml version="1.0" encoding="utf-8" ?>
<svg baseProfile="full" height="256" version="1.1" width="256" xmlns="http://www.w3.org/2000/svg" xmlns:ev="http://www.w3.org/2001/xml-events" xmlns:xlink="http://www.w3.org/1999/xlink"><defs /><path d="M2037 522Q2037 447 2014.5 378.5Q1992 310 1950.5 253.0Q1909 196 1851.0 153.0Q1793 110 1722 87L590 -279Q566 -287 544 -287Q515 -287 488.5 -275.5Q462 -264 442.5 -244.5Q423 -225 411.5 -198.5Q400 -172 400 -143Q400 -118 407 -97L774 1035Q797 1106 840.0 1164.5Q883 1223 940.0 1264.5Q997 1306 1065.5 1328.5Q1134 1351 1209 1351Q1300 1351 1383.0 1316.5Q1466 1282 1530 1217L1903 843Q1968 778 2002.5 695.5Q2037 613 2037 522Z" style="fill:#ff822d;stroke:none" transform="scale(1,-1) translate(0,-256)" /></svg>