<?xml version="1.0" encoding="utf-8" ?>
<svg baseProfile="full" height="256" version="1.1" width="256" xmlns="http://www.w3.org/2000/svg" xmlns:ev="http://www.w3.org/2001/xml-events" xmlns:xlink="http://www.w3.org/1999/xlink"><defs /><path d="M2333 1268V1267Q2362 1232 2378.0 1188.0Q2394 1144 2394 1097Q2394 1042 2373.0 993.0Q2352 944 2315.5 907.5Q2279 871 2230.0 849.5Q2181 828 2126 828Q2074 828 2028.0 846.5Q1982 865 1946.0 898.0Q1910 931 1887.0 975.5Q1864 1020 1859 1071L1729 941L1628 1043L1753 1168Q1703 1175 1660.5 1198.5Q1618 1222 1587.0 1257.0Q1556 1292 1538.5 1337.0Q1521 1382 1521 1433Q1521 1489 1542.0 1538.0Q1563 1587 1599.0 1623.0Q1635 1659 1684.0 1680.0Q1733 1701 1789 1701Q1834 1701 1876.0 1686.5Q1918 1672 1953 1645Q1990 1683 2039.5 1704.0Q2089 1725 2143 1725Q2198 1725 2247.0 1704.0Q2296 1683 2333.0 1647.0Q2370 1611 2391.0 1562.0Q2412 1513 2412 1458Q2412 1404 2391.5 1355.0Q2371 1306 2333 1268Z" style="fill:#00d26a;stroke:none" transform="scale(1,-1) translate(0,-256)" /></svg>