<?xml version="1.0" encoding="utf-8" ?>
<svg baseProfile="full" height="256" version="1.1" width="256" xmlns="http://www.w3.org/2000/svg" xmlns:ev="http://www.w3.org/2001/xml-events" xmlns:xlink="http://www.w3.org/1999/xlink"><defs /><path d="M1406 1797Q1555 1797 1692.5 1758.5Q1830 1720 1950.0 1650.0Q2070 1580 2168.5 1481.5Q2267 1383 2337.0 1263.0Q2407 1143 2445.5 1005.5Q2484 868 2484 719Q2484 589 2453.0 491.0Q2422 393 2359.5 324.5Q2297 256 2202.5 215.0Q2108 174 1981 158V-144Q1981 -188 1964.0 -227.5Q1947 -267 1917.5 -296.0Q1888 -325 1848.5 -342.0Q1809 -359 1765 -359Q1711 -359 1663.0 -333.5Q1615 -308 1586 -263Q1556 -308 1508.0 -333.5Q1460 -359 1406 -359Q1352 -359 1304.0 -333.5Q1256 -308 1226 -263Q1197 -308 1149.0 -333.5Q1101 -359 1047 -359Q1003 -359 963.5 -342.0Q924 -325 894.5 -296.0Q865 -267 848.0 -227.5Q831 -188 831 -144V157Q704 173 609.5 214.5Q515 256 452.5 324.5Q390 393 359.0 491.0Q328 589 328 719Q328 868 366.5 1005.5Q405 1143 475.0 1263.0Q545 1383 643.5 1481.5Q742 1580 862.0 1650.0Q982 1720 1119.5 1758.5Q1257 1797 1406 1797Z" style="fill:#9b9b9b;stroke:none" transform="scale(1,-1) translate(0,-256)" /></svg>