<?xml version="1.0" encoding="utf-8" ?>
<svg baseProfile="full" height="256" version="1.1" width="256" xmlns="http://www.w3.org/2000/svg" xmlns:ev="http://www.w3.org/2001/xml-events" xmlns:xlink="http://www.w3.org/1999/xlink"><defs /><path d="M1047 1473Q1047 1471 1046.5 1469.5Q1046 1468 1046 1466Q1035 1407 1004.5 1362.0Q974 1317 930.5 1285.5Q887 1254 833.5 1238.0Q780 1222 723 1222Q708 1222 697.5 1232.5Q687 1243 687 1258Q687 1273 697.5 1283.5Q708 1294 723 1294Q762 1294 800.0 1303.0Q838 1312 872 1332Q917 1358 939.5 1395.5Q962 1433 976 1481Q980 1494 988.5 1502.0Q997 1510 1011 1510Q1025 1510 1036.0 1499.0Q1047 1488 1047 1473ZM1765 1473Q1765 1471 1765.5 1469.5Q1766 1468 1766 1466Q1776 1407 1807.0 1361.5Q1838 1316 1881.5 1285.0Q1925 1254 1978.5 1238.0Q2032 1222 2089 1222Q2104 1222 2114.5 1232.5Q2125 1243 2125 1258Q2125 1273 2114.5 1283.5Q2104 1294 2089 1294Q2050 1294 2012.0 1303.0Q1974 1312 1940 1332Q1895 1358 1872.0 1395.0Q1849 1432 1836 1481Q1832 1494 1823.5 1502.0Q1815 1510 1801 1510Q1786 1510 1775.5 1499.0Q1765 1488 1765 1473ZM1262 863Q1262 833 1250.5 806.5Q1239 780 1219.5 760.5Q1200 741 1174.0 730.0Q1148 719 1118 719Q1088 719 1062.0 730.5Q1036 742 1016.5 761.5Q997 781 986.0 807.0Q975 833 975 863Q975 893 986.0 919.0Q997 945 1016.5 964.5Q1036 984 1062.0 995.0Q1088 1006 1118 1006Q1148 1006 1174.0 995.0Q1200 984 1219.5 964.5Q1239 945 1250.5 919.0Q1262 893 1262 863ZM1837 863Q1837 833 1825.5 806.5Q1814 780 1794.5 760.5Q1775 741 1749.0 730.0Q1723 719 1693 719Q1663 719 1637.0 730.5Q1611 742 1591.5 761.5Q1572 781 1561.0 807.0Q1550 833 1550 863Q1550 893 1561.0 919.0Q1572 945 1591.5 964.5Q1611 984 1637.0 995.0Q1663 1006 1693 1006Q1723 1006 1749.0 995.0Q1775 984 1794.5 964.5Q1814 945 1825.5 919.0Q1837 893 1837 863Z" style="fill:#402a32;stroke:none" transform="scale(1,-1) translate(0,-256)" /></svg>