<?xml version="1.0" encoding="utf-8" ?>
<svg baseProfile="full" height="256" version="1.1" width="256" xmlns="http://www.w3.org/2000/svg" xmlns:ev="http://www.w3.org/2001/xml-events" xmlns:xlink="http://www.w3.org/1999/xlink"><defs /><path d="M1118 503H1693Q1749 503 1797.5 476.5Q1846 450 1876 403Q1868 380 1859.5 359.0Q1851 338 1838.5 322.5Q1826 307 1806.5 297.5Q1787 288 1759 288H1052Q1024 288 1005.0 297.5Q986 307 973.0 322.5Q960 338 951.5 359.0Q943 380 936 403Q965 450 1014.0 476.5Q1063 503 1118 503ZM1693 72H1118Q1090 72 1064.5 78.0Q1039 84 1019.0 98.0Q999 112 987.0 133.5Q975 155 975 187Q975 198 983.0 207.0Q991 216 1003 216H1808Q1820 216 1828.5 207.5Q1837 199 1837 187Q1837 155 1825.0 133.5Q1813 112 1793.0 98.0Q1773 84 1747.0 78.0Q1721 72 1693 72Z" style="fill:#ffffff;stroke:none" transform="scale(1,-1) translate(0,-256)" /></svg>