<?xml version="1.0" encoding="utf-8" ?>
<svg baseProfile="full" height="256" version="1.1" width="256" xmlns="http://www.w3.org/2000/svg" xmlns:ev="http://www.w3.org/2001/xml-events" xmlns:xlink="http://www.w3.org/1999/xlink"><defs /><path d="M2412 719Q2412 622 2397.5 526.0Q2383 430 2352.5 339.0Q2322 248 2274.5 164.0Q2227 80 2161 8Q2161 -3 2161.5 -18.0Q2162 -33 2162.0 -51.0Q2162 -69 2162.5 -88.0Q2163 -107 2163 -124Q2163 -141 2162.5 -155.5Q2162 -170 2161 -179Q2161 -181 2155.5 -196.5Q2150 -212 2143.5 -231.0Q2137 -250 2131.5 -266.5Q2126 -283 2125 -287H2017L1929 -170Q1808 -233 1675.0 -260.0Q1542 -287 1406 -287Q1350 -287 1295.5 -283.0Q1241 -279 1186 -269L1118 -359L1011 -395L903 -287V-180Q862 -160 824 -136L795 -179L687 -215L615 -108V49Q558 120 517.5 200.0Q477 280 451.0 365.5Q425 451 412.5 540.0Q400 629 400 719Q400 949 470.5 1135.0Q541 1321 672.0 1452.0Q803 1583 989.0 1654.0Q1175 1725 1406 1725Q1637 1725 1823.0 1654.0Q2009 1583 2140.0 1452.0Q2271 1321 2341.5 1135.0Q2412 949 2412 719Z" style="fill:#5092ff;stroke:none" transform="scale(1,-1) translate(0,-256)" /></svg>