<?xml version="1.0" encoding="utf-8" ?>
<svg baseProfile="full" height="256" version="1.1" width="256" xmlns="http://www.w3.org/2000/svg" xmlns:ev="http://www.w3.org/2001/xml-events" xmlns:xlink="http://www.w3.org/1999/xlink"><defs /><path d="M2364 431Q2388 380 2400.0 326.0Q2412 272 2412 216Q2412 112 2372.5 20.0Q2333 -72 2264.5 -140.0Q2196 -208 2104.5 -247.5Q2013 -287 1909 -287H903Q799 -287 707.0 -247.5Q615 -208 547.0 -140.0Q479 -72 439.5 20.0Q400 112 400 216Q400 272 412.0 326.0Q424 380 448 431L543 503H2197L2364 431Z" style="fill:#b4acbc;stroke:none" transform="scale(1,-1) translate(0,-256)" /></svg>