<?xml version="1.0" encoding="utf-8" ?>
<svg baseProfile="full" height="256" version="1.1" width="256" xmlns="http://www.w3.org/2000/svg" xmlns:ev="http://www.w3.org/2001/xml-events" xmlns:xlink="http://www.w3.org/1999/xlink"><defs /><path d="M1765 1006Q1795 1006 1821.0 995.0Q1847 984 1866.5 964.5Q1886 945 1897.5 919.0Q1909 893 1909 863V719Q1982 719 2050.5 698.5Q2119 678 2178.0 640.5Q2237 603 2284.5 550.0Q2332 497 2364 431H448Q479 497 527.0 550.0Q575 603 634.0 640.5Q693 678 761.5 698.5Q830 719 903 719V863Q903 893 914.5 919.0Q926 945 945.5 964.5Q965 984 991.0 995.0Q1017 1006 1047 1006Z" style="fill:#f8312f;stroke:none" transform="scale(1,-1) translate(0,-256)" /></svg>