<?xml version="1.0" encoding="utf-8" ?>
<svg baseProfile="full" height="256" version="1.1" width="256" xmlns="http://www.w3.org/2000/svg" xmlns:ev="http://www.w3.org/2001/xml-events" xmlns:xlink="http://www.w3.org/1999/xlink"><defs /><path d="M1298 935H1083V1150Q1083 1199 1103.5 1244.5Q1124 1290 1159.0 1325.0Q1194 1360 1239.0 1381.0Q1284 1402 1334 1402H1765Q1787 1402 1806.5 1393.5Q1826 1385 1841.0 1370.0Q1856 1355 1864.5 1335.5Q1873 1316 1873 1294Q1873 1271 1864.5 1251.5Q1856 1232 1841.5 1217.5Q1827 1203 1807.0 1194.5Q1787 1186 1765 1186H1334Q1324 1186 1311.0 1173.0Q1298 1160 1298 1150Z" style="fill:#ca0b4a;stroke:none" transform="scale(1,-1) translate(0,-256)" /></svg>