<?xml version="1.0" encoding="utf-8" ?>
<svg baseProfile="full" height="256" version="1.1" width="256" xmlns="http://www.w3.org/2000/svg" xmlns:ev="http://www.w3.org/2001/xml-events" xmlns:xlink="http://www.w3.org/1999/xlink"><defs /><path d="M397 858Q397 880 405.5 899.5Q414 919 429.0 934.0Q444 949 463.5 957.5Q483 966 505 966Q546 966 587.5 947.5Q629 929 668.0 901.0Q707 873 742.0 841.5Q777 810 805 783Q835 755 871.0 739.5Q907 724 949 724Q994 724 1032.0 742.5Q1070 761 1096 797Q1153 875 1232.0 918.0Q1311 961 1409 961Q1506 961 1584.0 919.0Q1662 877 1719 799Q1745 764 1782.5 745.5Q1820 727 1865 727Q1907 727 1943.5 743.0Q1980 759 2010 788Q2038 815 2072.0 846.0Q2106 877 2144.0 903.5Q2182 930 2222.5 948.0Q2263 966 2304 966Q2326 966 2346.0 957.5Q2366 949 2380.5 934.5Q2395 920 2403.5 900.0Q2412 880 2412 858Q2412 811 2382.5 783.5Q2353 756 2309 751Q2307 751 2304 748Q2294 744 2285.0 738.5Q2276 733 2268 727Q2239 707 2213.5 683.5Q2188 660 2162 635Q2101 576 2023.0 544.0Q1945 512 1860 512Q1760 512 1680.5 554.0Q1601 596 1542 676Q1517 709 1483.5 727.5Q1450 746 1408 746Q1366 746 1332.0 727.5Q1298 709 1273 675Q1214 594 1133.5 551.5Q1053 509 952 509Q868 509 791.0 540.0Q714 571 654 629Q640 642 621.5 659.5Q603 677 583.0 694.0Q563 711 542.5 725.5Q522 740 505 748Q502 751 500 751Q457 756 427.0 784.0Q397 812 397 858Z" style="fill:#635994;stroke:none" transform="scale(1,-1) translate(0,-256)" /></svg>