<?xml version="1.0" encoding="utf-8" ?>
<svg baseProfile="full" height="256" version="1.1" width="256" xmlns="http://www.w3.org/2000/svg" xmlns:ev="http://www.w3.org/2001/xml-events" xmlns:xlink="http://www.w3.org/1999/xlink"><defs /><path d="M1282 657Q1308 683 1345 683Q1383 683 1409.0 657.0Q1435 631 1435 593Q1435 556 1409 530L1332 453Q1343 460 1355.5 464.0Q1368 468 1381 468Q1418 468 1444.5 441.5Q1471 415 1471 378Q1471 345 1454.5 326.5Q1438 308 1415 288Q1434 288 1450.5 281.0Q1467 274 1479.5 261.5Q1492 249 1499.5 232.5Q1507 216 1507 197Q1507 160 1481 134L1291 -56Q1247 -100 1197.5 -143.0Q1148 -186 1092.5 -220.0Q1037 -254 976.5 -275.5Q916 -297 851 -297Q783 -297 727.0 -271.5Q671 -246 630.0 -202.5Q589 -159 566.5 -100.5Q544 -42 544 24Q544 70 555.0 114.5Q566 159 591 198Q610 229 622.5 272.5Q635 316 642.0 363.0Q649 410 653.0 456.0Q657 502 660 539Q663 576 688.5 602.5Q714 629 752 629Q790 629 816.0 603.0Q842 577 842 539V469L1066 693Q1092 719 1129 719Q1167 719 1193.5 692.5Q1220 666 1220 629Q1220 601 1205 580Z" style="fill:#ff822d;stroke:none" transform="scale(1,-1) translate(0,-256)" /></svg>