<?xml version="1.0" encoding="utf-8" ?>
<svg baseProfile="full" height="256" version="1.1" width="256" xmlns="http://www.w3.org/2000/svg" xmlns:ev="http://www.w3.org/2001/xml-events" xmlns:xlink="http://www.w3.org/1999/xlink"><defs /><path d="M2125 251V1402Q2125 1417 2135.5 1427.5Q2146 1438 2161 1438H2197V216H2161Q2147 216 2136.0 226.5Q2125 237 2125 251ZM1059 1078H873V1092Q873 1122 866.5 1152.0Q860 1182 852.5 1211.0Q845 1240 839.0 1267.0Q833 1294 833 1317Q833 1330 834.5 1342.0Q836 1354 841 1366H1622Q1652 1366 1678.0 1354.5Q1704 1343 1723.5 1323.5Q1743 1304 1754.0 1278.0Q1765 1252 1765 1222Q1765 1192 1754.0 1166.0Q1743 1140 1723.5 1120.5Q1704 1101 1678.0 1089.5Q1652 1078 1622 1078H1267Q1255 1105 1229.5 1122.0Q1204 1139 1174 1139Q1157 1139 1141.5 1133.0Q1126 1127 1112.0 1118.0Q1098 1109 1085.0 1098.5Q1072 1088 1059 1078ZM1262 72H543Q541 77 533.0 99.5Q525 122 516.5 147.5Q508 173 501.0 193.5Q494 214 495 216H1262Q1292 216 1313.0 195.0Q1334 174 1334 144Q1334 114 1313.0 93.0Q1292 72 1262 72Z" style="fill:#636363;stroke:none" transform="scale(1,-1) translate(0,-256)" /></svg>