<?xml version="1.0" encoding="utf-8" ?>
<svg baseProfile="full" height="256" version="1.1" width="256" xmlns="http://www.w3.org/2000/svg" xmlns:ev="http://www.w3.org/2001/xml-events" xmlns:xlink="http://www.w3.org/1999/xlink"><defs /><path d="M2125 0Q2125 -60 2102.5 -112.0Q2080 -164 2041.0 -203.0Q2002 -242 1949.5 -264.5Q1897 -287 1837 -287H1154Q1191 -106 1251.5 54.0Q1312 214 1396.5 358.0Q1481 502 1589.0 634.0Q1697 766 1829 892Q1840 903 1851.0 913.5Q1862 924 1873 935Q1932 994 1994.5 1044.5Q2057 1095 2125 1143V1402Q2125 1417 2135.5 1427.5Q2146 1438 2161 1438H2233Q2255 1438 2274.5 1429.5Q2294 1421 2308.5 1406.0Q2323 1391 2331.5 1371.5Q2340 1352 2340 1330V324Q2340 302 2331.5 282.5Q2323 263 2309.0 248.0Q2295 233 2275.0 224.5Q2255 216 2233 216Q2221 216 2203.0 214.5Q2185 213 2167.5 215.5Q2150 218 2137.5 225.5Q2125 233 2125 251ZM961 431H507Q500 431 490.5 432.5Q481 434 472.5 437.5Q464 441 458.0 446.5Q452 452 452 461Q452 471 457.5 479.0Q463 487 471.5 492.0Q480 497 490.0 500.0Q500 503 508 503H965Q988 503 1006.0 515.5Q1024 528 1032 549L1210 1004Q1215 1017 1226.5 1028.0Q1238 1039 1253 1039Q1272 1039 1272 1019Q1272 1015 1260.0 980.0Q1248 945 1230.0 894.0Q1212 843 1190.0 783.5Q1168 724 1148.5 671.0Q1129 618 1114.0 578.0Q1099 538 1095 526Q1080 484 1043.0 457.5Q1006 431 961 431Z" style="fill:#9b9b9b;stroke:none" transform="scale(1,-1) translate(0,-256)" /></svg>