<?xml version="1.0" encoding="utf-8" ?>
<svg baseProfile="full" height="256" version="1.1" width="256" xmlns="http://www.w3.org/2000/svg" xmlns:ev="http://www.w3.org/2001/xml-events" xmlns:xlink="http://www.w3.org/1999/xlink"><defs /><path d="M543 72 615 145 495 211Q495 231 497.0 245.0Q499 259 504.0 270.0Q509 281 518.5 291.5Q528 302 543 315Q573 341 598.0 368.5Q623 396 644 431H508Q485 431 465.5 439.5Q446 448 431.5 462.5Q417 477 408.5 497.0Q400 517 400 540Q400 595 444 626L837 915Q852 954 861.5 995.5Q871 1037 873 1079L976 1221L841 1366Q853 1401 881 1427L1110 1633Q1160 1678 1222.5 1701.5Q1285 1725 1351 1725H1837Q1896 1725 1948.5 1702.5Q2001 1680 2040.0 1641.0Q2079 1602 2102.0 1549.5Q2125 1497 2125 1438V1398L2269 1223L1156 -287H759Q714 -287 675.0 -270.0Q636 -253 606.5 -224.0Q577 -195 560.0 -156.0Q543 -117 543 -72Z" style="fill:#d3d3d3;stroke:none" transform="scale(1,-1) translate(0,-256)" /></svg>