<?xml version="1.0" encoding="utf-8" ?>
<svg baseProfile="full" height="256" version="1.1" width="256" xmlns="http://www.w3.org/2000/svg" xmlns:ev="http://www.w3.org/2001/xml-events" xmlns:xlink="http://www.w3.org/1999/xlink"><defs /><path d="M1135 972Q1135 965 1130.0 958.5Q1125 952 1118.0 947.5Q1111 943 1102.5 940.0Q1094 937 1088 937Q1083 937 1074.0 938.5Q1065 940 1065 948Q1065 957 1075 957Q1079 957 1082.0 956.0Q1085 955 1089 955Q1099 955 1104.5 959.0Q1110 963 1113.0 968.0Q1116 973 1118.5 977.0Q1121 981 1125 981Q1135 981 1135 972Z" style="fill:#990839;stroke:none" transform="scale(1,-1) translate(0,-256)" /></svg>