<?xml version="1.0" encoding="utf-8" ?>
<svg baseProfile="full" height="256" version="1.1" width="256" xmlns="http://www.w3.org/2000/svg" xmlns:ev="http://www.w3.org/2001/xml-events" xmlns:xlink="http://www.w3.org/1999/xlink"><defs /><path d="M844 963Q844 950 849.0 936.0Q854 922 865 914Q861 912 860.0 906.5Q859 901 859 897Q859 875 875.5 856.0Q892 837 912.0 819.5Q932 802 948.5 786.0Q965 770 965 754Q965 746 959.0 734.0Q953 722 944.0 711.5Q935 701 925.0 693.5Q915 686 907 686Q893 686 881.5 696.5Q870 707 870 722Q870 730 873.0 736.5Q876 743 881 749Q875 741 863.0 738.5Q851 736 842 736Q822 736 799.5 744.0Q777 752 755.5 763.5Q734 775 714.0 789.0Q694 803 679 815Q653 835 635.5 862.5Q618 890 618 924Q618 947 625.5 968.0Q633 989 645.5 1008.0Q658 1027 674.5 1043.5Q691 1060 708 1073Q724 1086 734.0 1099.0Q744 1112 751.5 1126.5Q759 1141 766.5 1155.5Q774 1170 786 1186Q796 1199 810.0 1207.0Q824 1215 841 1215Q855 1215 869.5 1208.5Q884 1202 895.5 1191.0Q907 1180 914.5 1166.0Q922 1152 922 1138Q922 1113 910.0 1092.0Q898 1071 883.0 1051.0Q868 1031 856.0 1009.5Q844 988 844 963Z" style="fill:#f1a11e;stroke:none" transform="scale(1,-1) translate(0,-256)" /></svg>