<?xml version="1.0" encoding="utf-8" ?>
<svg baseProfile="full" height="256" version="1.1" width="256" xmlns="http://www.w3.org/2000/svg" xmlns:ev="http://www.w3.org/2001/xml-events" xmlns:xlink="http://www.w3.org/1999/xlink"><defs /><path d="M1000 748Q967 748 935.0 764.0Q903 780 873 792Q848 802 823.5 811.5Q799 821 775 831Q763 836 753.5 849.0Q744 862 737.5 878.0Q731 894 727.0 910.5Q723 927 723 938Q723 984 751 1021Q768 1043 784.0 1064.5Q800 1086 818.0 1103.5Q836 1121 858.5 1131.5Q881 1142 912 1142Q958 1142 995 1114Q997 1112 1004.0 1107.0Q1011 1102 1018.5 1096.0Q1026 1090 1032.0 1085.5Q1038 1081 1039 1080Q1049 1078 1063.5 1078.0Q1078 1078 1091.5 1075.5Q1105 1073 1114.0 1066.5Q1123 1060 1123 1045Q1123 1032 1115 1021Q1127 1011 1140.5 999.0Q1154 987 1165.5 973.0Q1177 959 1184.0 943.5Q1191 928 1191 911Q1191 881 1171.5 851.5Q1152 822 1123.5 799.0Q1095 776 1061.5 762.0Q1028 748 1000 748Z" style="fill:#ffc83d;stroke:none" transform="scale(1,-1) translate(0,-256)" /></svg>