<?xml version="1.0" encoding="utf-8" ?>
<svg baseProfile="full" height="256" version="1.1" width="256" xmlns="http://www.w3.org/2000/svg" xmlns:ev="http://www.w3.org/2001/xml-events" xmlns:xlink="http://www.w3.org/1999/xlink"><defs /><path d="M982 993Q977 993 966.5 995.5Q956 998 956 1005Q956 1012 963 1012Q965 1012 970.0 1009.5Q975 1007 981 1007Q993 1007 1002.5 1016.0Q1012 1025 1012 1038Q1012 1046 1008.5 1051.0Q1005 1056 1005 1059Q1006 1061 1007.5 1064.0Q1009 1067 1012 1067L1018 1064Q1026 1051 1026 1038Q1026 1019 1013.0 1006.0Q1000 993 982 993Z" style="fill:#d37034;stroke:none" transform="scale(1,-1) translate(0,-256)" /></svg>