<?xml version="1.0" encoding="utf-8" ?>
<svg baseProfile="full" height="256" version="1.1" width="256" xmlns="http://www.w3.org/2000/svg" xmlns:ev="http://www.w3.org/2001/xml-events" xmlns:xlink="http://www.w3.org/1999/xlink"><defs /><path d="M759 827Q759 796 749.5 764.0Q740 732 722.0 706.0Q704 680 677.0 663.5Q650 647 615 647Q580 647 553.5 663.5Q527 680 509.0 706.5Q491 733 481.5 765.0Q472 797 472 827Q472 857 481.5 889.0Q491 921 509.0 947.0Q527 973 553.5 989.5Q580 1006 615 1006Q649 1006 676.0 989.5Q703 973 721.5 947.0Q740 921 749.5 889.5Q759 858 759 827ZM2340 827Q2340 797 2330.5 765.0Q2321 733 2303.0 706.5Q2285 680 2258.0 663.5Q2231 647 2197 647Q2162 647 2135.0 663.5Q2108 680 2090.0 706.0Q2072 732 2062.5 764.0Q2053 796 2053 827Q2053 858 2062.5 889.5Q2072 921 2090.5 947.0Q2109 973 2135.5 989.5Q2162 1006 2197 1006Q2231 1006 2258.0 989.5Q2285 973 2303.0 947.0Q2321 921 2330.5 889.0Q2340 857 2340 827Z" style="fill:#ff6723;stroke:none" transform="scale(1,-1) translate(0,-256)" /></svg>