<?xml version="1.0" encoding="utf-8" ?>
<svg baseProfile="full" height="256" version="1.1" width="256" xmlns="http://www.w3.org/2000/svg" xmlns:ev="http://www.w3.org/2001/xml-events" xmlns:xlink="http://www.w3.org/1999/xlink"><defs /><path d="M472 493Q469 526 489.0 551.0Q509 576 543 576Q570 576 591 557L861 321L867 324Q867 358 862.5 391.0Q858 424 858 458Q858 493 878.0 520.5Q898 548 936 548Q958 548 976.0 532.0Q994 516 1008.0 490.0Q1022 464 1033.0 432.5Q1044 401 1052.0 370.0Q1060 339 1065.0 312.5Q1070 286 1073 270Q1080 234 1093.5 207.5Q1107 181 1120.5 154.0Q1134 127 1144.5 95.5Q1155 64 1155 20Q1155 -39 1133.5 -93.0Q1112 -147 1074.0 -188.5Q1036 -230 984.5 -254.5Q933 -279 872 -279Q821 -279 775.0 -260.5Q729 -242 687 -215Q615 -167 544.5 -118.5Q474 -70 405 -19Q389 -8 380.5 9.5Q372 27 372 46Q372 80 395.5 103.5Q419 127 452 127Q465 127 475.0 123.0Q485 119 496 114L354 232Q342 243 335.0 257.0Q328 271 328 287Q328 318 349.0 339.0Q370 360 400 360L410 359Q391 375 377.5 390.0Q364 405 364 432Q364 461 385.5 482.0Q407 503 436 503Q456 503 472 493ZM2340 493Q2356 503 2376 503Q2405 503 2426.5 482.0Q2448 461 2448 432Q2448 405 2434.5 390.0Q2421 375 2402 359L2412 360Q2442 360 2463.0 339.0Q2484 318 2484 287Q2484 255 2458 232L2316 114Q2327 119 2337.0 123.0Q2347 127 2360 127Q2393 127 2416.5 103.5Q2440 80 2440 46Q2440 27 2431.5 9.5Q2423 -8 2407 -19Q2338 -70 2267.5 -118.5Q2197 -167 2125 -215Q2083 -242 2037.0 -260.5Q1991 -279 1940 -279Q1879 -279 1827.5 -254.5Q1776 -230 1738.0 -188.5Q1700 -147 1678.5 -93.0Q1657 -39 1657 20Q1657 64 1667.0 95.0Q1677 126 1690.5 153.0Q1704 180 1718.0 207.0Q1732 234 1739 270Q1742 286 1747.5 312.5Q1753 339 1760.5 370.0Q1768 401 1779.0 432.5Q1790 464 1804.0 490.0Q1818 516 1836.0 532.0Q1854 548 1876 548Q1914 548 1934.0 520.5Q1954 493 1954 458Q1954 424 1949.5 391.0Q1945 358 1945 324L1951 321L2221 557Q2242 576 2269 576Q2303 576 2323.0 551.0Q2343 526 2340 493Z" style="fill:#ff822d;stroke:none" transform="scale(1,-1) translate(0,-256)" /></svg>