<?xml version="1.0" encoding="utf-8" ?>
<svg baseProfile="full" height="256" version="1.1" width="256" xmlns="http://www.w3.org/2000/svg" xmlns:ev="http://www.w3.org/2001/xml-events" xmlns:xlink="http://www.w3.org/1999/xlink"><defs /><path d="M1190 1366Q1190 1395 1211.5 1416.5Q1233 1438 1262 1438H1837Q1867 1438 1888.0 1417.0Q1909 1396 1909 1366V935Q1909 905 1888.0 884.0Q1867 863 1837 863H1262Q1233 863 1211.5 884.5Q1190 906 1190 935ZM1756 1078H1343Q1334 1078 1334 1069V1015Q1334 1006 1343 1006H1756Q1765 1006 1765 1015V1069Q1765 1078 1756 1078ZM1334 1231Q1334 1222 1343 1222H1756Q1765 1222 1765 1231V1285Q1765 1294 1756 1294H1343Q1334 1294 1334 1285ZM717 1036Q717 1066 738 1087L992 1341Q1013 1362 1043 1362Q1072 1362 1093.5 1341.0Q1115 1320 1115 1290Q1115 1276 1109.5 1262.5Q1104 1249 1094 1239L840 985Q819 964 789 964Q759 964 738.0 985.0Q717 1006 717 1036ZM893 703Q892 703 890.0 702.0Q888 701 887 701Q876 690 866.0 678.0Q856 666 844.0 656.0Q832 646 818.5 639.0Q805 632 789 632Q759 632 738.0 653.0Q717 674 717 704Q717 734 738 755L992 1009Q1013 1030 1043 1030Q1073 1030 1094.0 1009.0Q1115 988 1115 958Q1115 942 1108.5 928.5Q1102 915 1092.0 904.0Q1082 893 1070.5 882.5Q1059 872 1049 862Q1048 861 1047.5 829.0Q1047 797 1047.0 745.0Q1047 693 1046.5 626.0Q1046 559 1046.0 488.0Q1046 417 1046.5 347.0Q1047 277 1047.0 220.0Q1047 163 1047.0 123.0Q1047 83 1047 72Q1047 43 1025.5 21.5Q1004 0 975 0Q945 0 924.0 21.0Q903 42 903 72V694Q903 703 893 703ZM1333 362Q1304 362 1283.0 341.0Q1262 320 1262 290Q1262 261 1283 240L1384 138Q1405 117 1435 117Q1465 117 1486.0 138.0Q1507 159 1507 189Q1507 219 1486 240L1384 341Q1363 362 1333 362ZM1190 791Q1161 791 1139.5 769.5Q1118 748 1118 719Q1118 690 1139.5 668.5Q1161 647 1190 647H1684Q1690 647 1692.0 638.5Q1694 630 1694.5 619.5Q1695 609 1694.0 598.5Q1693 588 1693 584Q1693 575 1684 575H1190Q1161 575 1139.5 553.5Q1118 532 1118 503Q1118 474 1139.5 452.5Q1161 431 1190 431H1684Q1693 431 1693 422V153Q1693 147 1683.5 145.0Q1674 143 1662.0 142.5Q1650 142 1638.0 143.0Q1626 144 1622 144Q1592 144 1571.0 123.0Q1550 102 1550 72Q1550 42 1571.0 21.0Q1592 0 1622 0H1765Q1795 0 1816.0 21.0Q1837 42 1837 72V422Q1837 431 1846 431H1981Q2010 431 2031.5 452.5Q2053 474 2053 503Q2053 533 2032.0 554.0Q2011 575 1981 575H1846Q1837 575 1837 584V638Q1837 647 1846 647H1981Q2011 647 2032.0 668.0Q2053 689 2053 719Q2053 749 2032.0 770.0Q2011 791 1981 791Z" style="fill:#ffffff;stroke:none" transform="scale(1,-1) translate(0,-256)" /></svg>