<?xml version="1.0" encoding="utf-8" ?>
<svg baseProfile="full" height="256" version="1.1" width="256" xmlns="http://www.w3.org/2000/svg" xmlns:ev="http://www.w3.org/2001/xml-events" xmlns:xlink="http://www.w3.org/1999/xlink"><defs /><path d="M1889 1384Q1922 1355 1940.0 1315.5Q1958 1276 1958 1232Q1958 1191 1942.0 1155.0Q1926 1119 1899.0 1092.0Q1872 1065 1836.0 1049.0Q1800 1033 1759 1033Q1723 1033 1689.5 1046.0Q1656 1059 1629 1082ZM1163 977Q1139 923 1090.0 891.0Q1041 859 981 859Q940 859 903.5 874.5Q867 890 840.0 917.0Q813 944 797.5 980.0Q782 1016 782 1057Q782 1099 799 1139Z" style="fill:#ca0b4a;stroke:none" transform="scale(1,-1) translate(0,-256)" /></svg>