<?xml version="1.0" encoding="utf-8" ?>
<svg baseProfile="full" height="256" version="1.1" width="256" xmlns="http://www.w3.org/2000/svg" xmlns:ev="http://www.w3.org/2001/xml-events" xmlns:xlink="http://www.w3.org/1999/xlink"><defs /><path d="M1599 -253H1210Q1098 -253 994.5 -224.0Q891 -195 801.0 -142.0Q711 -89 637.0 -14.5Q563 60 510.5 150.0Q458 240 429.0 343.5Q400 447 400 559V937H2410V559Q2410 447 2381.0 343.5Q2352 240 2299.5 149.5Q2247 59 2172.5 -15.0Q2098 -89 2008.0 -142.0Q1918 -195 1814.5 -224.0Q1711 -253 1599 -253Z" style="fill:#b4acbc;stroke:none" transform="scale(1,-1) translate(0,-256)" /></svg>