<?xml version="1.0" encoding="utf-8" ?>
<svg baseProfile="full" height="256" version="1.1" width="256" xmlns="http://www.w3.org/2000/svg" xmlns:ev="http://www.w3.org/2001/xml-events" xmlns:xlink="http://www.w3.org/1999/xlink"><defs /><path d="M2216 772Q2191 715 2152.0 669.0Q2113 623 2063.0 590.0Q2013 557 1955.0 539.5Q1897 522 1835 522H975Q910 522 849.5 541.5Q789 561 738.0 596.5Q687 632 647.5 682.0Q608 732 585 793Q659 881 761.0 929.0Q863 977 978 977Q1053 977 1116.5 958.5Q1180 940 1244 905Q1279 885 1315.5 874.5Q1352 864 1393 864Q1435 864 1471.5 874.5Q1508 885 1543 905Q1607 940 1670.5 958.5Q1734 977 1808 977Q1868 977 1925.5 963.0Q1983 949 2035.5 922.5Q2088 896 2134.0 858.0Q2180 820 2216 772Z" style="fill:#86d72f;stroke:none" transform="scale(1,-1) translate(0,-256)" /></svg>