<?xml version="1.0" encoding="utf-8" ?>
<svg baseProfile="full" height="256" version="1.1" width="256" xmlns="http://www.w3.org/2000/svg" xmlns:ev="http://www.w3.org/2001/xml-events" xmlns:xlink="http://www.w3.org/1999/xlink"><defs /><path d="M1835 1512Q1954 1512 2059.0 1467.0Q2164 1422 2242.0 1344.0Q2320 1266 2365.0 1161.0Q2410 1056 2410 937Q2410 818 2364.5 713.5Q2319 609 2241.0 531.0Q2163 453 2058.5 407.5Q1954 362 1835 362H975Q856 362 751.5 407.5Q647 453 569.0 531.0Q491 609 445.5 713.5Q400 818 400 937Q400 1056 445.0 1161.0Q490 1266 568.0 1344.0Q646 1422 751.0 1467.0Q856 1512 975 1512H1835Z" style="fill:#e1d8ec;stroke:none" transform="scale(1,-1) translate(0,-256)" /></svg>