<?xml version="1.0" encoding="utf-8" ?>
<svg baseProfile="full" height="256" version="1.1" width="256" xmlns="http://www.w3.org/2000/svg" xmlns:ev="http://www.w3.org/2001/xml-events" xmlns:xlink="http://www.w3.org/1999/xlink"><defs /><path d="M980 686Q903 686 835.5 715.0Q768 744 718.0 794.5Q668 845 638.5 913.0Q609 981 609 1058Q609 1075 610.5 1097.5Q612 1120 618.0 1140.5Q624 1161 637.0 1175.0Q650 1189 673 1189Q682 1189 699.5 1182.5Q717 1176 736.5 1167.5Q756 1159 773.5 1150.0Q791 1141 801 1137L949 984L1160 979L1266 932Q1281 925 1289.5 911.0Q1298 897 1298 881Q1298 863 1289 850Q1266 812 1231.0 781.5Q1196 751 1155.0 730.0Q1114 709 1068.5 697.5Q1023 686 980 686Z" style="fill:#f92f60;stroke:none" transform="scale(1,-1) translate(0,-256)" /></svg>