<?xml version="1.0" encoding="utf-8" ?>
<svg baseProfile="full" height="256" version="1.1" width="256" xmlns="http://www.w3.org/2000/svg" xmlns:ev="http://www.w3.org/2001/xml-events" xmlns:xlink="http://www.w3.org/1999/xlink"><defs /><path d="M2286 1029Q2286 928 2247.5 838.5Q2209 749 2142.5 682.0Q2076 615 1987.0 576.5Q1898 538 1796 538H1017Q915 538 826.0 576.5Q737 615 670.0 682.0Q603 749 564.5 838.0Q526 927 526 1029Q526 1100 552.0 1161.0Q578 1222 623.0 1267.5Q668 1313 728.5 1341.5Q789 1370 858 1377Q903 1381 940.5 1391.5Q978 1402 1011.0 1419.0Q1044 1436 1073.5 1461.0Q1103 1486 1132 1521Q1186 1584 1254.0 1618.5Q1322 1653 1406 1653Q1490 1653 1558.0 1618.5Q1626 1584 1680 1521Q1709 1486 1738.5 1461.0Q1768 1436 1801.0 1419.0Q1834 1402 1871.5 1391.5Q1909 1381 1954 1377Q2023 1370 2083.5 1341.5Q2144 1313 2189.0 1267.5Q2234 1222 2260.0 1161.0Q2286 1100 2286 1029Z" style="fill:#44911b;stroke:none" transform="scale(1,-1) translate(0,-256)" /></svg>