<?xml version="1.0" encoding="utf-8" ?>
<svg baseProfile="full" height="256" version="1.1" width="256" xmlns="http://www.w3.org/2000/svg" xmlns:ev="http://www.w3.org/2001/xml-events" xmlns:xlink="http://www.w3.org/1999/xlink"><defs /><path d="M1036 1512Q1036 1542 1046.0 1563.0Q1056 1584 1073.0 1599.5Q1090 1615 1112.0 1627.5Q1134 1640 1157 1653Q1186 1670 1220 1670Q1262 1670 1290.0 1649.0Q1318 1628 1336 1592L1414 1436Q1419 1427 1421.0 1414.5Q1423 1402 1423 1391Q1423 1345 1398.5 1319.5Q1374 1294 1338 1273Q1316 1260 1297.5 1251.5Q1279 1243 1253 1243Q1228 1243 1200.5 1255.0Q1173 1267 1159 1289L1062 1434Q1050 1452 1043.0 1471.0Q1036 1490 1036 1512Z" style="fill:#ffc83d;stroke:none" transform="scale(1,-1) translate(0,-256)" /></svg>