<?xml version="1.0" encoding="utf-8" ?>
<svg baseProfile="full" height="256" version="1.1" width="256" xmlns="http://www.w3.org/2000/svg" xmlns:ev="http://www.w3.org/2001/xml-events" xmlns:xlink="http://www.w3.org/1999/xlink"><defs /><path d="M1727 1535Q1738 1516 1744.0 1494.0Q1750 1472 1750 1450Q1750 1409 1738.5 1371.0Q1727 1333 1707 1298Q1678 1249 1639.5 1214.5Q1601 1180 1555.0 1156.0Q1509 1132 1458.0 1118.0Q1407 1104 1353 1095Q1350 1094 1343 1094Q1314 1094 1292.5 1114.5Q1271 1135 1271 1164Q1271 1190 1288.5 1211.5Q1306 1233 1332 1237Q1366 1243 1401.5 1251.5Q1437 1260 1470.0 1274.0Q1503 1288 1531.0 1309.5Q1559 1331 1579 1363Q1587 1377 1595.5 1398.5Q1604 1420 1604 1437Q1604 1449 1600.0 1457.5Q1596 1466 1591.5 1473.5Q1587 1481 1583.5 1488.0Q1580 1495 1580 1502Q1580 1512 1586.0 1519.5Q1592 1527 1603 1527Q1607 1527 1613 1525Q1615 1533 1621.0 1539.0Q1627 1545 1636 1545Q1640 1545 1646 1543Q1648 1552 1654.0 1558.0Q1660 1564 1669 1564Q1677 1564 1684 1559Q1686 1567 1692.5 1571.5Q1699 1576 1707 1576Q1717 1576 1725.5 1566.5Q1734 1557 1734 1548Q1734 1539 1727 1535Z" style="fill:#ffc83d;stroke:none" transform="scale(1,-1) translate(0,-256)" /></svg>