<?xml version="1.0" encoding="utf-8" ?>
<svg baseProfile="full" height="256" version="1.1" width="256" xmlns="http://www.w3.org/2000/svg" xmlns:ev="http://www.w3.org/2001/xml-events" xmlns:xlink="http://www.w3.org/1999/xlink"><defs /><path d="M1310 1543Q1310 1535 1306.5 1534.5Q1303 1534 1298 1534Q1281 1534 1268.0 1526.5Q1255 1519 1252 1519Q1244 1519 1244 1527L1247 1533Q1260 1543 1273.0 1546.5Q1286 1550 1302 1550Q1310 1550 1310 1543ZM1166 1473Q1166 1471 1161.0 1467.5Q1156 1464 1149.0 1459.0Q1142 1454 1136.0 1448.0Q1130 1442 1127 1434Q1125 1428 1121 1428Q1112 1428 1112 1437Q1112 1443 1117.0 1450.5Q1122 1458 1129.0 1464.5Q1136 1471 1143.5 1475.5Q1151 1480 1157 1480Q1160 1480 1163.0 1478.5Q1166 1477 1166 1473Z" style="fill:#d37034;stroke:none" transform="scale(1,-1) translate(0,-256)" /></svg>