<?xml version="1.0" encoding="utf-8" ?>
<svg baseProfile="full" height="256" version="1.1" width="256" xmlns="http://www.w3.org/2000/svg" xmlns:ev="http://www.w3.org/2001/xml-events" xmlns:xlink="http://www.w3.org/1999/xlink"><defs /><path d="M1218 1703Q1241 1703 1260.5 1694.5Q1280 1686 1295.0 1672.0Q1310 1658 1321.0 1639.5Q1332 1621 1340 1601L1338 1600Q1328 1603 1312.5 1601.5Q1297 1600 1280.5 1597.0Q1264 1594 1248.5 1590.0Q1233 1586 1223 1582Q1192 1570 1167.5 1556.0Q1143 1542 1122.0 1524.0Q1101 1506 1083.5 1483.5Q1066 1461 1049 1433Q1032 1455 1019.5 1481.5Q1007 1508 1007 1537Q1007 1560 1016.5 1579.0Q1026 1598 1041.0 1613.0Q1056 1628 1074.0 1640.0Q1092 1652 1110 1663Q1137 1679 1161.5 1691.0Q1186 1703 1218 1703Z" style="fill:#ff6723;stroke:none" transform="scale(1,-1) translate(0,-256)" /></svg>