<?xml version="1.0" encoding="utf-8" ?>
<svg baseProfile="full" height="256" version="1.1" width="256" xmlns="http://www.w3.org/2000/svg" xmlns:ev="http://www.w3.org/2001/xml-events" xmlns:xlink="http://www.w3.org/1999/xlink"><defs /><path d="M1417 1513Q1417 1492 1402.5 1477.0Q1388 1462 1367 1462Q1346 1462 1331.5 1477.0Q1317 1492 1317 1513Q1317 1533 1332.0 1548.0Q1347 1563 1367 1563Q1387 1563 1402.0 1548.0Q1417 1533 1417 1513ZM1162 1365Q1162 1344 1147.5 1329.5Q1133 1315 1112 1315Q1091 1315 1076.5 1329.5Q1062 1344 1062 1365Q1062 1386 1076.5 1401.0Q1091 1416 1112 1416Q1133 1416 1147.5 1401.0Q1162 1386 1162 1365Z" style="fill:#fdbb11;stroke:none" transform="scale(1,-1) translate(0,-256)" /></svg>