<?xml version="1.0" encoding="utf-8" ?>
<svg baseProfile="full" height="256" version="1.1" width="256" xmlns="http://www.w3.org/2000/svg" xmlns:ev="http://www.w3.org/2001/xml-events" xmlns:xlink="http://www.w3.org/1999/xlink"><defs /><path d="M1335 1505Q1335 1504 1336.0 1502.0Q1337 1500 1337 1499Q1337 1495 1327.0 1488.0Q1317 1481 1305.0 1474.0Q1293 1467 1282.0 1461.5Q1271 1456 1270 1456Q1265 1456 1263.0 1463.5Q1261 1471 1261 1476Q1261 1493 1273.5 1505.5Q1286 1518 1303 1518Q1320 1518 1335 1505ZM1134 1402Q1134 1420 1146.5 1432.5Q1159 1445 1176 1445Q1180 1445 1186.0 1443.5Q1192 1442 1197.5 1439.5Q1203 1437 1207.0 1433.5Q1211 1430 1211 1426Q1211 1422 1201.0 1415.0Q1191 1408 1179.0 1401.0Q1167 1394 1156.0 1389.0Q1145 1384 1144 1384Q1137 1384 1135.5 1390.5Q1134 1397 1134 1402Z" style="fill:#ffffff;stroke:none" transform="scale(1,-1) translate(0,-256)" /></svg>