<?xml version="1.0" encoding="utf-8" ?>
<svg baseProfile="full" height="256" version="1.1" width="256" xmlns="http://www.w3.org/2000/svg" xmlns:ev="http://www.w3.org/2001/xml-events" xmlns:xlink="http://www.w3.org/1999/xlink"><defs /><path d="M1244 749H1670L1652 -215H1504Q1504 -201 1502.5 -160.5Q1501 -120 1499.5 -63.5Q1498 -7 1496.0 61.0Q1494 129 1492.0 197.5Q1490 266 1488.0 331.0Q1486 396 1484.0 446.5Q1482 497 1480.0 528.5Q1478 560 1477 562Q1475 567 1470.5 571.0Q1466 575 1460 575Q1448 575 1444.0 562.0Q1440 549 1440 540L1429 162Q1428 132 1412.5 108.0Q1397 84 1377 64H1376L1138 -145Q1127 -133 1111.5 -120.5Q1096 -108 1079.0 -96.0Q1062 -84 1045.0 -72.0Q1028 -60 1015 -49L1236 186Q1239 190 1241.0 197.5Q1243 205 1243.5 213.0Q1244 221 1244.0 229.0Q1244 237 1244 241Z" style="fill:#9b9b9b;stroke:none" transform="scale(1,-1) translate(0,-256)" /></svg>