<?xml version="1.0" encoding="utf-8" ?>
<svg baseProfile="full" height="256" version="1.1" width="256" xmlns="http://www.w3.org/2000/svg" xmlns:ev="http://www.w3.org/2001/xml-events" xmlns:xlink="http://www.w3.org/1999/xlink"><defs /><path d="M1049 1433Q1060 1472 1084.0 1504.0Q1108 1536 1140.5 1559.0Q1173 1582 1211.0 1595.0Q1249 1608 1289 1608Q1302 1608 1314.5 1606.0Q1327 1604 1340 1602Q1339 1585 1333.5 1572.0Q1328 1559 1308 1557Q1276 1555 1248.5 1548.0Q1221 1541 1192 1524Q1163 1507 1143.5 1487.0Q1124 1467 1105 1439Q1095 1424 1078 1424Q1070 1424 1063.0 1427.0Q1056 1430 1049 1433Z" style="fill:#ff9c38;stroke:none" transform="scale(1,-1) translate(0,-256)" /></svg>