<?xml version="1.0" encoding="utf-8" ?>
<svg baseProfile="full" height="256" version="1.1" width="256" xmlns="http://www.w3.org/2000/svg" xmlns:ev="http://www.w3.org/2001/xml-events" xmlns:xlink="http://www.w3.org/1999/xlink"><defs /><path d="M1789 1508 837 947Q818 936 818 913Q818 896 825.5 875.0Q833 854 842.5 832.0Q852 810 859.5 788.5Q867 767 867 748Q867 719 846.5 699.0Q826 679 798 679Q775 679 756.5 692.0Q738 705 731 726Q726 740 719.0 759.5Q712 779 704.5 800.0Q697 821 692.0 841.5Q687 862 687 877Q687 904 695.0 921.5Q703 939 717.0 952.5Q731 966 749.0 976.5Q767 987 787 999L1777 1583Z" style="fill:#9b9b9b;stroke:none" transform="scale(1,-1) translate(0,-256)" /></svg>