<?xml version="1.0" encoding="utf-8" ?>
<svg baseProfile="full" height="256" version="1.1" width="256" xmlns="http://www.w3.org/2000/svg" xmlns:ev="http://www.w3.org/2001/xml-events" xmlns:xlink="http://www.w3.org/1999/xlink"><defs /><path d="M1138 -219Q1144 -223 1153.5 -228.0Q1163 -233 1172.0 -239.5Q1181 -246 1188.0 -253.5Q1195 -261 1195 -269Q1195 -278 1188.5 -285.5Q1182 -293 1172 -293H1031Q1014 -293 1002.0 -281.0Q990 -269 990 -252V-118Q990 -78 1015 -50L1138 -145ZM1501 -181H1654L1790 -256Q1795 -258 1797.0 -263.0Q1799 -268 1799 -273Q1799 -281 1793.0 -287.0Q1787 -293 1779 -293L1506 -292Z" style="fill:#321b41;stroke:none" transform="scale(1,-1) translate(0,-256)" /></svg>