<?xml version="1.0" encoding="utf-8" ?>
<svg baseProfile="full" height="256" version="1.1" width="256" xmlns="http://www.w3.org/2000/svg" xmlns:ev="http://www.w3.org/2001/xml-events" xmlns:xlink="http://www.w3.org/1999/xlink"><defs /><path d="M1671 750 1458 678 1244 750V953Q1244 979 1235.0 1000.0Q1226 1021 1215.5 1042.0Q1205 1063 1196.0 1087.5Q1187 1112 1187 1145Q1187 1178 1199.0 1213.0Q1211 1248 1232.0 1277.5Q1253 1307 1283.0 1326.0Q1313 1345 1349 1345Q1383 1345 1418.0 1329.0Q1453 1313 1485.0 1288.5Q1517 1264 1543.5 1234.0Q1570 1204 1587 1177Q1611 1139 1627.0 1084.5Q1643 1030 1653.0 971.0Q1663 912 1667.0 853.5Q1671 795 1671 750Z" style="fill:#ff6723;stroke:none" transform="scale(1,-1) translate(0,-256)" /></svg>