<?xml version="1.0" encoding="utf-8" ?>
<svg baseProfile="full" height="256" version="1.1" width="256" xmlns="http://www.w3.org/2000/svg" xmlns:ev="http://www.w3.org/2001/xml-events" xmlns:xlink="http://www.w3.org/1999/xlink"><defs /><path d="M1566 1083Q1537 1083 1516.0 1104.5Q1495 1126 1495 1155Q1495 1177 1506.0 1194.0Q1517 1211 1537 1220Q1577 1239 1610.5 1262.5Q1644 1286 1668.5 1316.0Q1693 1346 1706.5 1383.5Q1720 1421 1720 1468Q1720 1476 1720.0 1483.5Q1720 1491 1718 1499V1498L1854 1552Q1857 1530 1859.0 1508.5Q1861 1487 1861 1465Q1861 1398 1842.0 1341.0Q1823 1284 1788.0 1237.0Q1753 1190 1704.0 1153.5Q1655 1117 1595 1090Q1579 1083 1566 1083Z" style="fill:#d67d00;stroke:none" transform="scale(1,-1) translate(0,-256)" /></svg>