<?xml version="1.0" encoding="utf-8" ?>
<svg baseProfile="full" height="256" version="1.1" width="256" xmlns="http://www.w3.org/2000/svg" xmlns:ev="http://www.w3.org/2001/xml-events" xmlns:xlink="http://www.w3.org/1999/xlink"><defs /><path d="M1277 1566 1339 1602 1376 1538 1385 1541Q1390 1532 1398.5 1518.5Q1407 1505 1415.0 1491.0Q1423 1477 1429.0 1462.0Q1435 1447 1435 1435Q1435 1421 1429.5 1409.0Q1424 1397 1415.5 1386.5Q1407 1376 1397.5 1366.0Q1388 1356 1380 1346L1282 1515L1303 1521ZM1048 1434 1111 1470 1137 1423Q1141 1428 1144.5 1431.5Q1148 1435 1152 1439L1249 1270Q1232 1267 1214.0 1262.5Q1196 1258 1178 1258Q1162 1258 1145.0 1267.0Q1128 1276 1120 1290L1078 1364Q1080 1366 1081.5 1367.5Q1083 1369 1085 1371Z" style="fill:#f1a11e;stroke:none" transform="scale(1,-1) translate(0,-256)" /></svg>