<?xml version="1.0" encoding="utf-8" ?>
<svg baseProfile="full" height="256" version="1.1" width="256" xmlns="http://www.w3.org/2000/svg" xmlns:ev="http://www.w3.org/2001/xml-events" xmlns:xlink="http://www.w3.org/1999/xlink"><defs /><path d="M400 1150Q400 1180 411.0 1206.0Q422 1232 441.5 1251.5Q461 1271 487.0 1282.5Q513 1294 543 1294H2268Q2298 1294 2324.0 1282.5Q2350 1271 2369.5 1251.5Q2389 1232 2400.5 1206.0Q2412 1180 2412 1150V144Q2412 114 2400.5 88.0Q2389 62 2369.5 42.5Q2350 23 2324.0 11.5Q2298 0 2268 0H543Q513 0 487.0 11.5Q461 23 441.5 42.5Q422 62 411.0 88.0Q400 114 400 144Z" style="fill:#83cbff;stroke:none" transform="scale(1,-1) translate(0,-256)" /></svg>