<?xml version="1.0" encoding="utf-8" ?>
<svg baseProfile="full" height="256" version="1.1" width="256" xmlns="http://www.w3.org/2000/svg" xmlns:ev="http://www.w3.org/2001/xml-events" xmlns:xlink="http://www.w3.org/1999/xlink"><defs /><path d="M1149 850Q1149 903 1169.5 950.0Q1190 997 1225.0 1032.0Q1260 1067 1307.0 1087.5Q1354 1108 1407 1108Q1460 1108 1507.0 1087.5Q1554 1067 1589.0 1032.0Q1624 997 1644.5 950.0Q1665 903 1665 850V589Q1665 536 1644.5 489.0Q1624 442 1589.0 407.0Q1554 372 1507.0 351.5Q1460 331 1407 331Q1354 331 1307.0 351.5Q1260 372 1225.0 407.0Q1190 442 1169.5 489.0Q1149 536 1149 589ZM1407 964Q1383 964 1362.5 955.0Q1342 946 1326.5 930.5Q1311 915 1302.0 894.5Q1293 874 1293 850V589Q1293 565 1302.0 544.5Q1311 524 1326.5 508.5Q1342 493 1362.5 484.0Q1383 475 1407 475Q1431 475 1451.5 484.0Q1472 493 1488.0 508.5Q1504 524 1513.0 544.5Q1522 565 1522 589V850Q1522 874 1513.0 894.5Q1504 915 1488.0 930.5Q1472 946 1451.5 955.0Q1431 964 1407 964ZM833 1099Q859 1099 901.5 1087.0Q944 1075 984.5 1054.5Q1025 1034 1054.0 1006.0Q1083 978 1083 946Q1083 916 1062.0 895.0Q1041 874 1011 874Q991 874 972.0 886.5Q953 899 932.0 914.5Q911 930 887.0 942.5Q863 955 833 955Q819 955 803.0 949.5Q787 944 773.0 934.5Q759 925 750.0 912.0Q741 899 741 883Q741 853 766.0 835.0Q791 817 829.0 802.5Q867 788 910.5 772.0Q954 756 992.0 730.5Q1030 705 1055.0 666.0Q1080 627 1080 565Q1080 518 1062.0 477.0Q1044 436 1013.5 406.0Q983 376 941.5 358.5Q900 341 853 341Q823 341 790.5 348.5Q758 356 726.5 369.5Q695 383 666.5 400.5Q638 418 616 438Q603 449 595.5 463.0Q588 477 588 494Q588 524 609.0 545.0Q630 566 660 566Q678 566 698.5 553.5Q719 541 743.0 525.5Q767 510 794.0 497.5Q821 485 853 485Q888 485 912.5 507.5Q937 530 937 565Q937 583 927.5 596.0Q918 609 904.0 618.5Q890 628 873.5 634.5Q857 641 843 645Q799 658 755.0 676.5Q711 695 676.0 723.0Q641 751 619.0 789.5Q597 828 597 882Q597 928 617.0 968.0Q637 1008 670.0 1037.0Q703 1066 745.5 1082.5Q788 1099 833 1099ZM1976 1099Q1930 1099 1887.5 1082.5Q1845 1066 1812.5 1036.5Q1780 1007 1760.5 966.5Q1741 926 1741 879Q1741 826 1763.0 788.0Q1785 750 1820.5 722.5Q1856 695 1899.5 676.5Q1943 658 1986 645Q2000 640 2016.5 634.0Q2033 628 2047.0 618.0Q2061 608 2070.5 595.0Q2080 582 2080 564Q2080 529 2054.5 507.0Q2029 485 1996 485Q1964 485 1937.0 497.5Q1910 510 1886.5 525.5Q1863 541 1842.5 553.5Q1822 566 1803 566Q1773 566 1752.0 545.0Q1731 524 1731 494Q1731 477 1738.5 463.0Q1746 449 1759 438Q1781 418 1809.5 400.5Q1838 383 1869.5 369.5Q1901 356 1933.5 348.5Q1966 341 1996 341Q2042 341 2083.5 358.5Q2125 376 2156.5 406.0Q2188 436 2206.0 477.0Q2224 518 2224 565Q2224 626 2199.0 665.0Q2174 704 2136.0 729.5Q2098 755 2054.0 771.5Q2010 788 1972.0 803.0Q1934 818 1909.0 836.0Q1884 854 1884 883Q1884 899 1893.0 912.0Q1902 925 1916.0 934.5Q1930 944 1946.0 949.5Q1962 955 1976 955Q2006 955 2030.0 942.5Q2054 930 2075.5 914.5Q2097 899 2116.0 886.5Q2135 874 2154 874Q2184 874 2205.0 895.0Q2226 916 2226 946Q2226 978 2197.0 1006.0Q2168 1034 2127.5 1054.5Q2087 1075 2044.5 1087.0Q2002 1099 1976 1099Z" style="fill:#ffffff;stroke:none" transform="scale(1,-1) translate(0,-256)" /></svg>