<?xml version="1.0" encoding="utf-8" ?>
<svg baseProfile="full" height="256" version="1.1" width="256" xmlns="http://www.w3.org/2000/svg" xmlns:ev="http://www.w3.org/2001/xml-events" xmlns:xlink="http://www.w3.org/1999/xlink"><defs /><path d="M1334 863H2125V156Q2159 166 2195.5 182.0Q2232 198 2267.5 218.0Q2303 238 2335.5 261.0Q2368 284 2394 310V285Q2394 282 2390.0 272.0Q2386 262 2381.0 250.5Q2376 239 2371.5 229.0Q2367 219 2365 215Q2339 165 2301.0 125.5Q2263 86 2216.5 58.5Q2170 31 2117.0 16.0Q2064 1 2008 1H1826Q1817 37 1795 72H1334Z" style="fill:#d67d00;stroke:none" transform="scale(1,-1) translate(0,-256)" /></svg>