<?xml version="1.0" encoding="utf-8" ?>
<svg baseProfile="full" height="256" version="1.1" width="256" xmlns="http://www.w3.org/2000/svg" xmlns:ev="http://www.w3.org/2001/xml-events" xmlns:xlink="http://www.w3.org/1999/xlink"><defs /><path d="M1801 1693Q1801 1706 1810.5 1715.5Q1820 1725 1833 1725H1985Q1999 1725 2008.0 1716.0Q2017 1707 2017 1693V1473Q2017 1452 2008.5 1432.0Q2000 1412 1985.5 1397.0Q1971 1382 1952.0 1373.0Q1933 1364 1911 1364Q1888 1364 1868.0 1372.5Q1848 1381 1833.0 1396.0Q1818 1411 1809.5 1431.0Q1801 1451 1801 1474ZM903 863Q880 863 860.5 871.5Q841 880 826.5 894.5Q812 909 803.5 928.5Q795 948 795 971V1474Q795 1496 803.5 1516.0Q812 1536 827.0 1550.0Q842 1564 861.5 1572.5Q881 1581 903 1581Q925 1581 944.5 1572.5Q964 1564 979.0 1549.5Q994 1535 1002.5 1515.5Q1011 1496 1011 1474V971Q1011 949 1002.5 929.5Q994 910 979.0 895.0Q964 880 944.5 871.5Q925 863 903 863ZM903 -144Q881 -144 861.5 -135.5Q842 -127 827.0 -112.0Q812 -97 803.5 -77.5Q795 -58 795 -36V467Q795 489 803.5 509.0Q812 529 826.5 543.5Q841 558 860.5 566.5Q880 575 903 575Q925 575 944.5 566.5Q964 558 979.0 543.0Q994 528 1002.5 508.5Q1011 489 1011 467V-36Q1011 -58 1002.5 -77.5Q994 -97 979.0 -112.0Q964 -127 944.5 -135.5Q925 -144 903 -144ZM1801 971Q1801 993 1809.5 1013.0Q1818 1033 1833.0 1047.0Q1848 1061 1867.5 1069.5Q1887 1078 1909 1078Q1931 1078 1950.5 1069.5Q1970 1061 1985.0 1047.0Q2000 1033 2008.5 1013.0Q2017 993 2017 971V467Q2017 444 2008.5 424.5Q2000 405 1985.0 391.0Q1970 377 1950.5 368.5Q1931 360 1909 360Q1887 360 1867.5 368.5Q1848 377 1833.0 391.0Q1818 405 1809.5 424.5Q1801 444 1801 467ZM2017 -38V-256Q2017 -269 2008.0 -279.0Q1999 -289 1985 -289H1834Q1820 -289 1810.5 -279.5Q1801 -270 1801 -256V-36Q1801 -14 1809.5 5.5Q1818 25 1832.0 40.0Q1846 55 1865.5 63.5Q1885 72 1907 72Q1930 72 1950.0 63.5Q1970 55 1985.0 40.0Q2000 25 2008.5 5.0Q2017 -15 2017 -38Z" style="fill:#bebebe;stroke:none" transform="scale(1,-1) translate(0,-256)" /></svg>