<?xml version="1.0" encoding="utf-8" ?>
<svg baseProfile="full" height="256" version="1.1" width="256" xmlns="http://www.w3.org/2000/svg" xmlns:ev="http://www.w3.org/2001/xml-events" xmlns:xlink="http://www.w3.org/1999/xlink"><defs /><path d="M1208 1179Q1170 1179 1148.0 1190.5Q1126 1202 1114.5 1221.5Q1103 1241 1099.0 1268.0Q1095 1295 1095 1327Q1082 1327 1071.0 1336.0Q1060 1345 1060 1359Q1060 1363 1064.5 1371.5Q1069 1380 1075.0 1389.5Q1081 1399 1087.0 1407.5Q1093 1416 1096 1421L1097 1476Q1098 1503 1108.5 1527.0Q1119 1551 1137.0 1568.5Q1155 1586 1179.5 1596.0Q1204 1606 1231 1606Q1253 1606 1274.5 1605.5Q1296 1605 1318 1604Q1346 1603 1369.5 1592.5Q1393 1582 1410.5 1564.0Q1428 1546 1438.0 1521.5Q1448 1497 1448 1470Q1448 1469 1443.5 1454.5Q1439 1440 1433.5 1422.5Q1428 1405 1423.0 1389.5Q1418 1374 1417 1371Q1410 1348 1404.5 1324.0Q1399 1300 1392 1277Q1385 1252 1364.0 1233.5Q1343 1215 1316.0 1203.0Q1289 1191 1260.0 1185.0Q1231 1179 1208 1179Z" style="fill:#ffc83d;stroke:none" transform="scale(1,-1) translate(0,-256)" /></svg>