<?xml version="1.0" encoding="utf-8" ?>
<svg baseProfile="full" height="256" version="1.1" width="256" xmlns="http://www.w3.org/2000/svg" xmlns:ev="http://www.w3.org/2001/xml-events" xmlns:xlink="http://www.w3.org/1999/xlink"><defs /><path d="M1999 218Q2004 220 2020.0 226.0Q2036 232 2053.5 239.0Q2071 246 2086.0 251.0Q2101 256 2104 256Q2118 256 2123 243Q2126 235 2135.0 211.0Q2144 187 2156.0 155.5Q2168 124 2181.5 88.5Q2195 53 2206.0 23.0Q2217 -7 2224.0 -28.5Q2231 -50 2231 -54Q2231 -65 2222.5 -73.5Q2214 -82 2203 -82Q2192 -82 2187 -77L1992 85ZM1047 -220Q1047 -228 1041.0 -234.0Q1035 -240 1027 -240L716 -241Q704 -241 695.5 -233.0Q687 -225 687 -213Q687 -197 699 -190L896 -72L1046 -115Z" style="fill:#533566;stroke:none" transform="scale(1,-1) translate(0,-256)" /></svg>