<?xml version="1.0" encoding="utf-8" ?>
<svg baseProfile="full" height="256" version="1.1" width="256" xmlns="http://www.w3.org/2000/svg" xmlns:ev="http://www.w3.org/2001/xml-events" xmlns:xlink="http://www.w3.org/1999/xlink"><defs /><path d="M1203 1483Q1206 1480 1206 1475Q1206 1465 1197 1465L1191 1468H1190L1188 1470Q1172 1475 1164.0 1477.5Q1156 1480 1139 1480Q1130 1480 1130 1490Q1130 1498 1136.5 1499.0Q1143 1500 1148 1500Q1166 1500 1185 1492Q1188 1490 1191.5 1489.0Q1195 1488 1198 1486Q1199 1486 1200.5 1484.5Q1202 1483 1203 1483Z" style="fill:#d37034;stroke:none" transform="scale(1,-1) translate(0,-256)" /></svg>