<?xml version="1.0" encoding="utf-8" ?>
<svg baseProfile="full" height="256" version="1.1" width="256" xmlns="http://www.w3.org/2000/svg" xmlns:ev="http://www.w3.org/2001/xml-events" xmlns:xlink="http://www.w3.org/1999/xlink"><defs /><path d="M1873 1438Q1843 1438 1817.0 1449.0Q1791 1460 1771.5 1479.5Q1752 1499 1740.5 1525.0Q1729 1551 1729 1581Q1729 1611 1740.5 1637.0Q1752 1663 1771.5 1682.5Q1791 1702 1817.0 1713.5Q1843 1725 1873 1725Q1903 1725 1929.0 1713.5Q1955 1702 1974.5 1682.5Q1994 1663 2005.5 1637.0Q2017 1611 2017 1581Q2017 1551 2005.5 1525.0Q1994 1499 1974.5 1479.5Q1955 1460 1929.0 1449.0Q1903 1438 1873 1438Z" style="fill:#cdc4d6;stroke:none" transform="scale(1,-1) translate(0,-256)" /></svg>