<?xml version="1.0" encoding="utf-8" ?>
<svg baseProfile="full" height="256" version="1.1" width="256" xmlns="http://www.w3.org/2000/svg" xmlns:ev="http://www.w3.org/2001/xml-events" xmlns:xlink="http://www.w3.org/1999/xlink"><defs /><path d="M1556 1013Q1554 998 1551.5 981.0Q1549 964 1543.0 949.0Q1537 934 1526.0 924.5Q1515 915 1495 915Q1467 915 1431.0 933.0Q1395 951 1358.0 976.5Q1321 1002 1288.5 1029.5Q1256 1057 1236 1077Q1244 1115 1271.0 1146.5Q1298 1178 1333 1192Q1354 1200 1373.5 1202.5Q1393 1205 1415 1208L1640 1241Q1642 1225 1646.0 1201.5Q1650 1178 1653.5 1153.0Q1657 1128 1659.5 1105.5Q1662 1083 1662 1068Q1662 1050 1650.0 1040.0Q1638 1030 1621.5 1024.5Q1605 1019 1586.5 1017.0Q1568 1015 1556 1013Z" style="fill:#ff8101;stroke:none" transform="scale(1,-1) translate(0,-256)" /></svg>