<?xml version="1.0" encoding="utf-8" ?>
<svg baseProfile="full" height="256" version="1.1" width="256" xmlns="http://www.w3.org/2000/svg" xmlns:ev="http://www.w3.org/2001/xml-events" xmlns:xlink="http://www.w3.org/1999/xlink"><defs /><path d="M1987 1346 1829 1399Q1832 1423 1840.5 1447.5Q1849 1472 1857 1495L2020 1436ZM1519 968Q1521 971 1524.5 973.0Q1528 975 1531 975Q1536 975 1540.5 972.0Q1545 969 1548 965Q1547 913 1554.5 857.0Q1562 801 1577 752Q1579 746 1583.5 737.5Q1588 729 1593.0 720.5Q1598 712 1601.5 704.0Q1605 696 1605 691Q1605 682 1601 677L1215 598Q1195 649 1185.0 702.0Q1175 755 1175 809Q1175 836 1180.0 878.5Q1185 921 1194.5 966.0Q1204 1011 1218.0 1051.0Q1232 1091 1250 1112ZM726 886 826 1027Q846 1016 866.0 1005.0Q886 994 906 983L809 842Q788 851 767.0 863.0Q746 875 726 886ZM1167 315Q1153 309 1135.5 301.5Q1118 294 1100.0 286.0Q1082 278 1067.0 267.5Q1052 257 1044 245H874Q866 267 861.0 292.5Q856 318 856 341Q856 363 859.5 378.5Q863 394 871.0 406.0Q879 418 892.0 427.5Q905 437 924 447L1044 511ZM1690 264V87Q1671 85 1652.0 84.0Q1633 83 1614 83Q1567 83 1540.0 91.5Q1513 100 1497.0 118.5Q1481 137 1471.5 165.5Q1462 194 1451 235L1650 304L1658 268Z" style="fill:#ff6723;stroke:none" transform="scale(1,-1) translate(0,-256)" /></svg>