<?xml version="1.0" encoding="utf-8" ?>
<svg baseProfile="full" height="256" version="1.1" width="256" xmlns="http://www.w3.org/2000/svg" xmlns:ev="http://www.w3.org/2001/xml-events" xmlns:xlink="http://www.w3.org/1999/xlink"><defs /><path d="M687 575Q687 597 695.5 617.0Q704 637 718.5 651.5Q733 666 752.5 674.5Q772 683 795 683Q817 683 837.0 674.5Q857 666 871.5 651.5Q886 637 894.5 617.0Q903 597 903 575Q903 597 911.5 617.0Q920 637 934.5 651.5Q949 666 968.5 674.5Q988 683 1011 683Q1033 683 1052.5 674.5Q1072 666 1086.5 651.0Q1101 636 1109.5 616.5Q1118 597 1118 575Q1118 597 1126.5 616.5Q1135 636 1150.0 651.0Q1165 666 1184.5 674.5Q1204 683 1226 683Q1248 683 1268.0 674.5Q1288 666 1302.5 651.5Q1317 637 1325.5 617.0Q1334 597 1334 575Q1334 597 1342.5 617.0Q1351 637 1365.5 651.5Q1380 666 1399.5 674.5Q1419 683 1442 683Q1464 683 1483.5 674.5Q1503 666 1518.0 651.0Q1533 636 1541.5 616.5Q1550 597 1550 575V503Q1550 481 1541.5 461.5Q1533 442 1518.0 427.5Q1503 413 1483.5 404.5Q1464 396 1442 396Q1420 396 1400.5 404.5Q1381 413 1366.0 427.0Q1351 441 1342.5 460.5Q1334 480 1334 503Q1334 480 1325.5 460.5Q1317 441 1302.0 427.0Q1287 413 1267.5 404.5Q1248 396 1226 396Q1204 396 1184.5 404.5Q1165 413 1150.0 427.5Q1135 442 1126.5 461.5Q1118 481 1118 503Q1118 481 1109.5 461.5Q1101 442 1086.5 427.5Q1072 413 1052.5 404.5Q1033 396 1011 396Q989 396 969.5 404.5Q950 413 935.0 427.0Q920 441 911.5 460.5Q903 480 903 503Q903 480 894.5 460.5Q886 441 871.0 427.0Q856 413 836.5 404.5Q817 396 795 396Q773 396 753.5 404.5Q734 413 719.0 427.0Q704 441 695.5 460.5Q687 480 687 503ZM2017 683Q1994 683 1974.5 674.5Q1955 666 1940.5 651.5Q1926 637 1917.5 617.0Q1909 597 1909 575V503Q1909 480 1917.5 460.5Q1926 441 1941.0 427.0Q1956 413 1975.5 404.5Q1995 396 2017 396Q2039 396 2058.5 404.5Q2078 413 2093.0 427.5Q2108 442 2116.5 461.5Q2125 481 2125 503V575Q2125 597 2116.5 616.5Q2108 636 2093.0 651.0Q2078 666 2058.5 674.5Q2039 683 2017 683Z" style="fill:#fcd53f;stroke:none" transform="scale(1,-1) translate(0,-256)" /></svg>