<?xml version="1.0" encoding="utf-8" ?>
<svg baseProfile="full" height="256" version="1.1" width="256" xmlns="http://www.w3.org/2000/svg" xmlns:ev="http://www.w3.org/2001/xml-events" xmlns:xlink="http://www.w3.org/1999/xlink"><defs /><path d="M1981 1725Q2070 1725 2148.5 1691.0Q2227 1657 2285.5 1598.5Q2344 1540 2378.0 1461.5Q2412 1383 2412 1294V144Q2412 55 2378.0 -23.5Q2344 -102 2285.5 -160.5Q2227 -219 2148.5 -253.0Q2070 -287 1981 -287H831Q742 -287 663.5 -253.0Q585 -219 526.5 -160.5Q468 -102 434.0 -23.5Q400 55 400 144V1294Q400 1383 434.0 1461.5Q468 1540 526.5 1598.5Q585 1657 663.5 1691.0Q742 1725 831 1725ZM831 1581Q771 1581 718.5 1558.5Q666 1536 627.0 1497.0Q588 1458 565.5 1406.0Q543 1354 543 1294V144Q543 84 565.5 31.5Q588 -21 627.0 -60.0Q666 -99 718.5 -121.5Q771 -144 831 -144H1981Q2041 -144 2093.0 -121.5Q2145 -99 2184.0 -60.0Q2223 -21 2245.5 31.5Q2268 84 2268 144V1294Q2268 1354 2245.5 1406.0Q2223 1458 2184.0 1497.0Q2145 1536 2093.0 1558.5Q2041 1581 1981 1581Z" style="fill:#ff6723;stroke:none" transform="scale(1,-1) translate(0,-256)" /></svg>