<?xml version="1.0" encoding="utf-8" ?>
<svg baseProfile="full" height="256" version="1.1" width="256" xmlns="http://www.w3.org/2000/svg" xmlns:ev="http://www.w3.org/2001/xml-events" xmlns:xlink="http://www.w3.org/1999/xlink"><defs /><path d="M687 216Q687 238 695.5 257.5Q704 277 719.0 292.0Q734 307 753.5 315.5Q773 324 795 324Q817 324 836.5 315.5Q856 307 871.0 292.0Q886 277 894.5 257.5Q903 238 903 216Q903 238 911.5 257.5Q920 277 935.0 292.0Q950 307 969.5 315.5Q989 324 1011 324Q1033 324 1052.5 315.5Q1072 307 1086.5 292.0Q1101 277 1109.5 257.5Q1118 238 1118 216Q1118 238 1126.5 257.5Q1135 277 1150.0 292.0Q1165 307 1184.5 315.5Q1204 324 1226 324Q1248 324 1267.5 315.5Q1287 307 1302.0 292.0Q1317 277 1325.5 257.5Q1334 238 1334 216Q1334 238 1342.5 257.5Q1351 277 1366.0 292.0Q1381 307 1400.5 315.5Q1420 324 1442 324Q1464 324 1483.5 315.5Q1503 307 1518.0 292.0Q1533 277 1541.5 257.5Q1550 238 1550 216V144Q1550 122 1541.5 102.5Q1533 83 1518.0 68.0Q1503 53 1483.5 44.5Q1464 36 1442 36Q1419 36 1399.5 44.5Q1380 53 1365.5 67.5Q1351 82 1342.5 101.5Q1334 121 1334 144Q1334 121 1325.5 101.5Q1317 82 1302.5 67.5Q1288 53 1268.0 44.5Q1248 36 1226 36Q1204 36 1184.5 44.5Q1165 53 1150.0 68.0Q1135 83 1126.5 102.5Q1118 122 1118 144Q1118 122 1109.5 102.5Q1101 83 1086.5 68.0Q1072 53 1052.5 44.5Q1033 36 1011 36Q988 36 968.5 44.5Q949 53 934.5 67.5Q920 82 911.5 101.5Q903 121 903 144Q903 121 894.5 101.5Q886 82 871.5 67.5Q857 53 837.0 44.5Q817 36 795 36Q772 36 752.5 44.5Q733 53 718.5 67.5Q704 82 695.5 101.5Q687 121 687 144ZM2017 324Q1995 324 1975.5 315.5Q1956 307 1941.0 292.0Q1926 277 1917.5 257.5Q1909 238 1909 216V144Q1909 121 1917.5 101.5Q1926 82 1940.5 67.5Q1955 53 1974.5 44.5Q1994 36 2017 36Q2039 36 2058.5 44.5Q2078 53 2093.0 68.0Q2108 83 2116.5 102.5Q2125 122 2125 144V216Q2125 238 2116.5 257.5Q2108 277 2093.0 292.0Q2078 307 2058.5 315.5Q2039 324 2017 324Z" style="fill:#00d26a;stroke:none" transform="scale(1,-1) translate(0,-256)" /></svg>