<?xml version="1.0" encoding="utf-8" ?>
<svg baseProfile="full" height="256" version="1.1" width="256" xmlns="http://www.w3.org/2000/svg" xmlns:ev="http://www.w3.org/2001/xml-events" xmlns:xlink="http://www.w3.org/1999/xlink"><defs /><path d="M687 1294Q687 1316 695.5 1335.5Q704 1355 719.0 1370.0Q734 1385 753.5 1393.5Q773 1402 795 1402Q817 1402 836.5 1393.5Q856 1385 871.0 1370.0Q886 1355 894.5 1335.5Q903 1316 903 1294Q903 1316 911.5 1335.5Q920 1355 935.0 1370.0Q950 1385 969.5 1393.5Q989 1402 1011 1402Q1033 1402 1052.5 1393.5Q1072 1385 1086.5 1370.0Q1101 1355 1109.5 1335.5Q1118 1316 1118 1294Q1118 1316 1126.5 1335.5Q1135 1355 1150.0 1370.0Q1165 1385 1184.5 1393.5Q1204 1402 1226 1402Q1248 1402 1267.5 1393.5Q1287 1385 1302.0 1370.0Q1317 1355 1325.5 1335.5Q1334 1316 1334 1294Q1334 1316 1342.5 1335.5Q1351 1355 1366.0 1370.0Q1381 1385 1400.5 1393.5Q1420 1402 1442 1402Q1464 1402 1483.5 1393.5Q1503 1385 1518.0 1370.0Q1533 1355 1541.5 1335.5Q1550 1316 1550 1294V1222Q1550 1200 1541.5 1180.5Q1533 1161 1518.0 1146.0Q1503 1131 1483.5 1122.5Q1464 1114 1442 1114Q1420 1114 1400.5 1122.5Q1381 1131 1366.0 1146.0Q1351 1161 1342.5 1180.5Q1334 1200 1334 1222Q1334 1200 1325.5 1180.5Q1317 1161 1302.0 1146.0Q1287 1131 1267.5 1122.5Q1248 1114 1226 1114Q1204 1114 1184.5 1122.5Q1165 1131 1150.0 1146.0Q1135 1161 1126.5 1180.5Q1118 1200 1118 1222Q1118 1200 1109.5 1180.5Q1101 1161 1086.5 1146.0Q1072 1131 1052.5 1122.5Q1033 1114 1011 1114Q989 1114 969.5 1122.5Q950 1131 935.0 1146.0Q920 1161 911.5 1180.5Q903 1200 903 1222Q903 1200 894.5 1180.5Q886 1161 871.0 1146.0Q856 1131 836.5 1122.5Q817 1114 795 1114Q773 1114 753.5 1122.5Q734 1131 719.0 1146.0Q704 1161 695.5 1180.5Q687 1200 687 1222ZM2017 1402Q1995 1402 1975.5 1393.5Q1956 1385 1941.0 1370.0Q1926 1355 1917.5 1335.5Q1909 1316 1909 1294V1222Q1909 1200 1917.5 1180.5Q1926 1161 1941.0 1146.0Q1956 1131 1975.5 1122.5Q1995 1114 2017 1114Q2039 1114 2058.5 1122.5Q2078 1131 2093.0 1146.0Q2108 1161 2116.5 1180.5Q2125 1200 2125 1222V1294Q2125 1316 2116.5 1335.5Q2108 1355 2093.0 1370.0Q2078 1385 2058.5 1393.5Q2039 1402 2017 1402Z" style="fill:#f70a8d;stroke:none" transform="scale(1,-1) translate(0,-256)" /></svg>