<?xml version="1.0" encoding="utf-8" ?>
<svg baseProfile="full" height="256" version="1.1" width="256" xmlns="http://www.w3.org/2000/svg" xmlns:ev="http://www.w3.org/2001/xml-events" xmlns:xlink="http://www.w3.org/1999/xlink"><defs /><path d="M2089 1797Q2126 1797 2158.5 1783.0Q2191 1769 2215.5 1744.5Q2240 1720 2254.0 1687.0Q2268 1654 2268 1617V-179Q2268 -216 2254.0 -249.0Q2240 -282 2215.5 -306.5Q2191 -331 2158.5 -345.0Q2126 -359 2089 -359H723Q686 -359 653.0 -345.0Q620 -331 595.5 -306.5Q571 -282 557.0 -249.0Q543 -216 543 -179V1617Q543 1654 557.0 1687.0Q571 1720 595.5 1744.5Q620 1769 653.0 1783.0Q686 1797 723 1797Z" style="fill:#b4acbc;stroke:none" transform="scale(1,-1) translate(0,-256)" /></svg>