<?xml version="1.0" encoding="utf-8" ?>
<svg baseProfile="full" height="256" version="1.1" width="256" xmlns="http://www.w3.org/2000/svg" xmlns:ev="http://www.w3.org/2001/xml-events" xmlns:xlink="http://www.w3.org/1999/xlink"><defs /><path d="M936 865Q939 856 939 845Q939 807 913.0 781.0Q887 755 849 755Q811 755 785.0 781.0Q759 807 759 845Q759 882 785.5 908.5Q812 935 849 935Q855 935 861.0 934.0Q867 933 873 931Q906 962 935.0 988.5Q964 1015 994.5 1035.0Q1025 1055 1060.5 1066.5Q1096 1078 1143 1078Q1192 1078 1239.5 1062.0Q1287 1046 1324.0 1016.5Q1361 987 1383.5 944.5Q1406 902 1406 849V719L1118 647V843Q1118 874 1096.0 894.5Q1074 915 1044 915Q1030 915 1015.5 909.5Q1001 904 987.0 896.5Q973 889 960.0 880.5Q947 872 936 865Z" style="fill:#f8312f;stroke:none" transform="scale(1,-1) translate(0,-256)" /></svg>