<?xml version="1.0" encoding="utf-8" ?>
<svg baseProfile="full" height="256" version="1.1" width="256" xmlns="http://www.w3.org/2000/svg" xmlns:ev="http://www.w3.org/2001/xml-events" xmlns:xlink="http://www.w3.org/1999/xlink"><defs /><path d="M1821 353Q1837 339 1837 318Q1837 299 1820.0 282.5Q1803 266 1784 266H1622V122Q1622 101 1604.0 86.5Q1586 72 1566 72Q1554 72 1545.0 76.0Q1536 80 1527 87L1406 180L1284 87Q1275 80 1267.0 76.0Q1259 72 1247 72Q1227 72 1209.0 85.0Q1191 98 1191 120L1190 266H1030Q1010 266 992.5 278.0Q975 290 975 313Q975 332 990 347L1188 530Q1187 531 1188.0 532.0Q1189 533 1190 532L1313 646L1404 455L1492 647L1617 535L1619 536V533Z" style="fill:#8d65c5;stroke:none" transform="scale(1,-1) translate(0,-256)" /></svg>