<?xml version="1.0" encoding="utf-8" ?>
<svg baseProfile="full" height="256" version="1.1" width="256" xmlns="http://www.w3.org/2000/svg" xmlns:ev="http://www.w3.org/2001/xml-events" xmlns:xlink="http://www.w3.org/1999/xlink"><defs /><path d="M1406 0Q1307 0 1215.0 25.5Q1123 51 1043.0 98.0Q963 145 897.5 210.5Q832 276 785.0 356.0Q738 436 712.5 528.0Q687 620 687 719Q687 818 712.5 910.0Q738 1002 785.0 1082.0Q832 1162 897.5 1227.5Q963 1293 1043.0 1340.0Q1123 1387 1215.0 1412.5Q1307 1438 1406 1438Q1505 1438 1597.0 1412.5Q1689 1387 1769.0 1340.0Q1849 1293 1914.5 1227.5Q1980 1162 2027.0 1082.0Q2074 1002 2099.5 910.0Q2125 818 2125 719Q2125 620 2099.5 528.0Q2074 436 2027.0 356.0Q1980 276 1914.5 210.5Q1849 145 1769.0 98.0Q1689 51 1597.0 25.5Q1505 0 1406 0ZM1070 252Q1129 210 1195.5 184.0Q1262 158 1334 148V516ZM1334 1290Q1226 1276 1134.0 1226.0Q1042 1176 974.5 1099.5Q907 1023 869.0 925.5Q831 828 831 719Q831 617 865.0 522.5Q899 428 965 350L1334 719ZM1847 350Q1913 428 1947.0 522.5Q1981 617 1981 719Q1981 827 1943.0 924.5Q1905 1022 1837.5 1098.5Q1770 1175 1678.0 1225.5Q1586 1276 1478 1290V719ZM1478 516V148Q1550 158 1616.5 184.0Q1683 210 1742 252Z" style="fill:#ffffff;stroke:none" transform="scale(1,-1) translate(0,-256)" /></svg>