<?xml version="1.0" encoding="utf-8" ?>
<svg baseProfile="full" height="256" version="1.1" width="256" xmlns="http://www.w3.org/2000/svg" xmlns:ev="http://www.w3.org/2001/xml-events" xmlns:xlink="http://www.w3.org/1999/xlink"><defs /><path d="M1424 1611Q1501 1569 1583.5 1511.5Q1666 1454 1743.0 1387.0Q1820 1320 1887.0 1246.5Q1954 1173 2000 1098Q2035 1040 2071.0 972.0Q2107 904 2142.0 830.0Q2177 756 2209.5 678.5Q2242 601 2270.5 524.5Q2299 448 2322.5 374.0Q2346 300 2362 234Q2379 166 2395.5 95.5Q2412 25 2412 -45Q2412 -106 2390.0 -151.5Q2368 -197 2330.5 -227.5Q2293 -258 2243.0 -273.0Q2193 -288 2136 -288Q2088 -288 2041.5 -280.5Q1995 -273 1949 -262Q1887 -248 1809.0 -224.5Q1731 -201 1645.5 -171.5Q1560 -142 1472.0 -107.5Q1384 -73 1302.5 -36.5Q1221 0 1150.0 37.5Q1079 75 1029 111Q983 143 930.5 187.5Q878 232 824.0 284.0Q770 336 717.0 393.0Q664 450 618.0 508.5Q572 567 534.5 623.5Q497 680 474 732Q470 741 470 753Q470 788 504.0 839.0Q538 890 595.5 950.5Q653 1011 728.0 1077.0Q803 1143 884.5 1209.5Q966 1276 1049.0 1339.0Q1132 1402 1204.5 1455.5Q1277 1509 1335.0 1549.5Q1393 1590 1424 1611Z" style="fill:#f92f60;stroke:none" transform="scale(1,-1) translate(0,-256)" /></svg>