<?xml version="1.0" encoding="utf-8" ?>
<svg baseProfile="full" height="256" version="1.1" width="256" xmlns="http://www.w3.org/2000/svg" xmlns:ev="http://www.w3.org/2001/xml-events" xmlns:xlink="http://www.w3.org/1999/xlink"><defs /><path d="M2300 440Q2291 344 2245.5 260.0Q2200 176 2140 104Q2136 99 2133.5 94.5Q2131 90 2131 84Q2131 71 2140.0 62.0Q2149 53 2162 53Q2175 53 2195.5 75.5Q2216 98 2236.5 127.5Q2257 157 2273.5 185.5Q2290 214 2296 226Q2309 250 2319.0 275.0Q2329 300 2337 326Q2329 355 2319.5 383.0Q2310 411 2300 440ZM1222 1Q1291 10 1371.0 33.5Q1451 57 1526.0 95.0Q1601 133 1663.0 185.0Q1725 237 1760 302Q1764 310 1764 316Q1764 329 1754.5 337.5Q1745 346 1733 346Q1724 346 1718.0 342.0Q1712 338 1707 331Q1699 320 1693.0 309.5Q1687 299 1679 289Q1640 240 1587.5 203.0Q1535 166 1479 139Q1395 98 1304.5 77.0Q1214 56 1121 53Q1146 39 1171.0 26.0Q1196 13 1222 1ZM1923 1206Q1958 1163 1987 1120Q1987 1076 1983.0 1023.5Q1979 971 1968.5 919.0Q1958 867 1940.5 819.5Q1923 772 1896 736Q1886 723 1871 723Q1859 723 1849.5 731.5Q1840 740 1840 753Q1840 758 1842.0 762.0Q1844 766 1846 770Q1895 849 1910.5 938.5Q1926 1028 1926 1120Q1926 1162 1923 1206Z" style="fill:#ca0b4a;stroke:none" transform="scale(1,-1) translate(0,-256)" /></svg>