<?xml version="1.0" encoding="utf-8" ?>
<svg baseProfile="full" height="256" version="1.1" width="256" xmlns="http://www.w3.org/2000/svg" xmlns:ev="http://www.w3.org/2001/xml-events" xmlns:xlink="http://www.w3.org/1999/xlink"><defs /><path d="M1066 377Q1000 377 937.0 392.0Q874 407 815.5 434.0Q757 461 703.0 497.5Q649 534 601 577Q578 597 555.0 619.0Q532 641 513 664Q484 700 463.0 752.5Q442 805 428.0 862.0Q414 919 407.0 976.0Q400 1033 400 1078Q400 1154 414.0 1226.0Q428 1298 457.5 1363.0Q487 1428 532.5 1484.5Q578 1541 641 1587Q730 1652 832.0 1688.5Q934 1725 1045 1725Q1170 1725 1289.5 1679.5Q1409 1634 1507 1559Q1562 1517 1605.0 1455.5Q1648 1394 1678.0 1323.5Q1708 1253 1723.5 1178.5Q1739 1104 1739 1037Q1739 891 1678.5 771.5Q1618 652 1507 558Q1460 519 1408.5 485.5Q1357 452 1301.5 428.0Q1246 404 1187.0 390.5Q1128 377 1066 377Z" style="fill:#ff822d;stroke:none" transform="scale(1,-1) translate(0,-256)" /></svg>