<?xml version="1.0" encoding="utf-8" ?>
<svg baseProfile="full" height="256" version="1.1" width="256" xmlns="http://www.w3.org/2000/svg" xmlns:ev="http://www.w3.org/2001/xml-events" xmlns:xlink="http://www.w3.org/1999/xlink"><defs /><path d="M1178 1114 1344 1402Q1354 1419 1370.0 1428.5Q1386 1438 1406 1438Q1426 1438 1442.0 1428.5Q1458 1419 1468 1402L1634 1114H1966Q1995 1114 2016.5 1092.5Q2038 1071 2038 1042Q2038 1024 2028 1006L1862 719L2028 431Q2038 413 2038 396Q2038 366 2016.5 345.0Q1995 324 1966 324H1634L1468 36Q1458 19 1442.0 9.5Q1426 0 1406 0Q1386 0 1370.0 9.5Q1354 19 1344 36L1178 324H846Q816 324 795.0 345.0Q774 366 774 396Q774 414 783 431L949 719L783 1006Q774 1022 774 1042Q774 1072 795.0 1093.0Q816 1114 846 1114ZM1302 1114H1510L1406 1294ZM1012 827 1115 1006H908ZM1074 719 1240 431H1572L1738 719L1572 1006H1240ZM1012 611 908 431H1115ZM1302 324 1406 144 1510 324ZM1696 431H1904L1800 611ZM1800 827 1904 1006H1696Z" style="fill:#ffffff;stroke:none" transform="scale(1,-1) translate(0,-256)" /></svg>