<?xml version="1.0" encoding="utf-8" ?>
<svg baseProfile="full" height="256" version="1.1" width="256" xmlns="http://www.w3.org/2000/svg" xmlns:ev="http://www.w3.org/2001/xml-events" xmlns:xlink="http://www.w3.org/1999/xlink"><defs /><path d="M1442 -72Q1338 -72 1241.5 -45.0Q1145 -18 1061.0 31.0Q977 80 908.0 149.0Q839 218 790.0 302.0Q741 386 714.0 482.5Q687 579 687 683Q687 787 714.0 883.5Q741 980 790.0 1064.0Q839 1148 908.0 1217.0Q977 1286 1061.0 1335.0Q1145 1384 1241.5 1411.0Q1338 1438 1442 1438Q1546 1438 1642.5 1411.0Q1739 1384 1823.0 1335.0Q1907 1286 1976.0 1217.0Q2045 1148 2094.0 1064.0Q2143 980 2170.0 883.5Q2197 787 2197 683Q2197 579 2170.0 482.5Q2143 386 2094.0 302.0Q2045 218 1976.0 149.0Q1907 80 1823.0 31.0Q1739 -18 1642.5 -45.0Q1546 -72 1442 -72Z" style="fill:#f8312f;stroke:none" transform="scale(1,-1) translate(0,-256)" /></svg>