<?xml version="1.0" encoding="utf-8" ?>
<svg baseProfile="full" height="256" version="1.1" width="256" xmlns="http://www.w3.org/2000/svg" xmlns:ev="http://www.w3.org/2001/xml-events" xmlns:xlink="http://www.w3.org/1999/xlink"><defs /><path d="M2073 -27Q2098 -49 2111.5 -78.0Q2125 -107 2125 -140Q2125 -169 2115.0 -196.0Q2105 -223 2086.5 -243.0Q2068 -263 2042.5 -275.0Q2017 -287 1987 -287H824Q794 -287 768.5 -275.0Q743 -263 725.0 -242.5Q707 -222 697.0 -195.5Q687 -169 687 -140Q687 -108 700.0 -78.0Q713 -48 738 -27L924 134Q993 99 1053.5 74.0Q1114 49 1174.0 32.5Q1234 16 1299.0 8.0Q1364 0 1442 0Q1508 0 1569.0 6.5Q1630 13 1688.5 25.5Q1747 38 1805.0 57.0Q1863 76 1924 102Z" style="fill:#d3d3d3;stroke:none" transform="scale(1,-1) translate(0,-256)" /></svg>