<?xml version="1.0" encoding="utf-8" ?>
<svg baseProfile="full" height="256" version="1.1" width="256" xmlns="http://www.w3.org/2000/svg" xmlns:ev="http://www.w3.org/2001/xml-events" xmlns:xlink="http://www.w3.org/1999/xlink"><defs /><path d="M543 1331Q543 1409 571.5 1480.5Q600 1552 650.0 1606.5Q700 1661 769.0 1693.5Q838 1726 918 1726Q983 1726 1049.5 1701.0Q1116 1676 1163 1630Q1190 1603 1190 1567Q1190 1547 1181.5 1528.5Q1173 1510 1156 1499L681 1164Q661 1150 638 1150Q606 1150 587.5 1169.5Q569 1189 559.0 1217.0Q549 1245 546.0 1276.5Q543 1308 543 1331ZM2341 1331Q2341 1410 2312.5 1481.5Q2284 1553 2233.5 1607.5Q2183 1662 2114.5 1694.0Q2046 1726 1965 1726Q1900 1726 1833.5 1701.0Q1767 1676 1720 1630Q1693 1603 1693 1568Q1693 1548 1702.0 1529.5Q1711 1511 1728 1499L2202 1164Q2222 1150 2246 1150Q2277 1150 2296.0 1169.5Q2315 1189 2325.0 1217.0Q2335 1245 2338.0 1276.5Q2341 1308 2341 1331Z" style="fill:#f9c23c;stroke:none" transform="scale(1,-1) translate(0,-256)" /></svg>