<?xml version="1.0" encoding="utf-8" ?>
<svg baseProfile="full" height="256" version="1.1" width="256" xmlns="http://www.w3.org/2000/svg" xmlns:ev="http://www.w3.org/2001/xml-events" xmlns:xlink="http://www.w3.org/1999/xlink"><defs /><path d="M2197 1510Q2168 1510 2146.5 1531.0Q2125 1552 2125 1581Q2125 1611 2146.0 1632.0Q2167 1653 2197 1653H2340Q2370 1653 2391.0 1632.0Q2412 1611 2412 1581Q2412 1552 2390.5 1531.0Q2369 1510 2340 1510ZM651 -287Q629 -287 609.5 -278.5Q590 -270 575.0 -255.0Q560 -240 551.5 -220.5Q543 -201 543 -179Q543 -157 551.5 -137.5Q560 -118 575.0 -103.5Q590 -89 609.5 -80.5Q629 -72 651 -72Q673 -72 692.5 -80.5Q712 -89 727.0 -103.0Q742 -117 750.5 -137.0Q759 -157 759 -179Q759 -202 750.5 -221.5Q742 -241 727.5 -255.5Q713 -270 693.0 -278.5Q673 -287 651 -287ZM1945 -287Q1922 -287 1902.5 -278.5Q1883 -270 1868.5 -255.5Q1854 -241 1845.5 -221.5Q1837 -202 1837 -179Q1837 -157 1845.5 -137.0Q1854 -117 1869.0 -103.0Q1884 -89 1903.5 -80.5Q1923 -72 1945 -72Q1967 -72 1986.5 -80.5Q2006 -89 2021.0 -103.0Q2036 -117 2044.5 -137.0Q2053 -157 2053 -179Q2053 -202 2044.5 -221.5Q2036 -241 2021.5 -255.5Q2007 -270 1987.0 -278.5Q1967 -287 1945 -287Z" style="fill:#0084ce;stroke:none" transform="scale(1,-1) translate(0,-256)" /></svg>