<?xml version="1.0" encoding="utf-8" ?>
<svg baseProfile="full" height="256" version="1.1" width="256" xmlns="http://www.w3.org/2000/svg" xmlns:ev="http://www.w3.org/2001/xml-events" xmlns:xlink="http://www.w3.org/1999/xlink"><defs /><path d="M771 305Q711 310 652.5 331.0Q594 352 547.5 388.5Q501 425 471.0 476.0Q441 527 437 593Q427 747 418.0 898.5Q409 1050 400 1204Q397 1251 415.5 1293.5Q434 1336 466.5 1368.0Q499 1400 541.5 1419.0Q584 1438 630 1438H2223L2034 710Q2046 701 2046 684Q2046 670 2038.5 660.0Q2031 650 2017 648Q2016 647 2017 647H2018Q2089 647 2148.5 617.5Q2208 588 2250.5 539.5Q2293 491 2316.5 427.5Q2340 364 2340 296Q2340 226 2316.5 159.5Q2293 93 2250.5 41.5Q2208 -10 2147.0 -41.0Q2086 -72 2011 -72H471Q441 -72 420.5 -49.0Q400 -26 400 3Q400 34 421.0 53.0Q442 72 472 72H2008Q2050 72 2085.0 91.0Q2120 110 2144.5 140.5Q2169 171 2183.0 210.0Q2197 249 2197 288Q2197 327 2185.0 365.0Q2173 403 2150.0 434.0Q2127 465 2094.0 484.0Q2061 503 2018 503H1980L1905 216ZM1881 1006H1693V719H1810ZM1898 1078Q1901 1091 1906.0 1107.5Q1911 1124 1915.5 1140.5Q1920 1157 1923.0 1173.5Q1926 1190 1926 1203Q1926 1222 1918.5 1238.5Q1911 1255 1898.5 1267.0Q1886 1279 1869.5 1286.0Q1853 1293 1834 1293H1693V1078ZM1307 1294V1078H1622V1294ZM904 1294V1078H1235V1294ZM630 1295Q594 1295 568.5 1269.5Q543 1244 543 1208Q543 1176 546.0 1143.0Q549 1110 551 1078H832V1294ZM574 719H832V1006H556ZM581 602Q585 555 610.5 525.5Q636 496 672.5 478.5Q709 461 751.5 453.5Q794 446 832 444V647H578ZM1235 412V647H904V438ZM1622 381V647H1307V406ZM1693 388Q1732 407 1743 450L1792 647H1693ZM1307 719H1622V1006H1307ZM904 719H1235V1006H904Z" style="fill:#9b9b9b;stroke:none" transform="scale(1,-1) translate(0,-256)" /></svg>