<?xml version="1.0" encoding="utf-8" ?>
<svg baseProfile="full" height="256" version="1.1" width="256" xmlns="http://www.w3.org/2000/svg" xmlns:ev="http://www.w3.org/2001/xml-events" xmlns:xlink="http://www.w3.org/1999/xlink"><defs /><path d="M2194 1049 1736 1507 1787 1557 2245 1100ZM1142 400Q1087 400 1087 455Q1087 504 1124.0 574.0Q1161 644 1221.0 720.0Q1281 796 1356.0 871.0Q1431 946 1507.0 1006.0Q1583 1066 1652.5 1103.0Q1722 1140 1771 1140Q1827 1140 1827 1084Q1827 1035 1790.0 965.5Q1753 896 1693.0 820.0Q1633 744 1558.0 669.0Q1483 594 1407.0 534.0Q1331 474 1261.0 437.0Q1191 400 1142 400ZM720 490 1177 33 1127 -18 669 439Z" style="fill:#321b41;stroke:none" transform="scale(1,-1) translate(0,-256)" /></svg>