<?xml version="1.0" encoding="utf-8" ?>
<svg baseProfile="full" height="256" version="1.1" width="256" xmlns="http://www.w3.org/2000/svg" xmlns:ev="http://www.w3.org/2001/xml-events" xmlns:xlink="http://www.w3.org/1999/xlink"><defs /><path d="M1965 1705Q1995 1705 2016 1684L2372 1329Q2393 1308 2393 1278Q2393 1248 2372 1227L2295 1151L2016 1329L1838 1608L1914 1684Q1935 1705 1965 1705ZM618 388 942 217 1076 -69Q1061 -84 1045.5 -101.0Q1030 -118 1009 -125L554 -276Q537 -282 520 -282Q497 -282 476.5 -272.5Q456 -263 440.0 -247.0Q424 -231 414.5 -210.5Q405 -190 405 -167Q405 -150 411 -133L562 322Q569 342 586.5 358.0Q604 374 618 388Z" style="fill:#00d26a;stroke:none" transform="scale(1,-1) translate(0,-256)" /></svg>