<?xml version="1.0" encoding="utf-8" ?>
<svg baseProfile="full" height="256" version="1.1" width="256" xmlns="http://www.w3.org/2000/svg" xmlns:ev="http://www.w3.org/2001/xml-events" xmlns:xlink="http://www.w3.org/1999/xlink"><defs /><path d="M2245 1100 2075 1234Q2063 1244 2052.0 1251.5Q2041 1259 2031.0 1266.0Q2021 1273 2011.0 1281.5Q2001 1290 1990 1301L1855 1472L1787 1557L1838 1608L2295 1151ZM1177 33 1089 102 914 239Q903 250 895.0 260.0Q887 270 880.0 279.5Q873 289 866.0 300.0Q859 311 849 323L720 490L1736 1507L1821 1438L1990 1301Q2012 1278 2025.0 1260.0Q2038 1242 2058 1217L2194 1049ZM1076 -69 618 388 669 439 832 306Q856 286 874.0 273.5Q892 261 914 239L1056 68L1127 -18Z" style="fill:#c3ef3c;stroke:none" transform="scale(1,-1) translate(0,-256)" /></svg>