<?xml version="1.0" encoding="utf-8" ?>
<svg baseProfile="full" height="256" version="1.1" width="256" xmlns="http://www.w3.org/2000/svg" xmlns:ev="http://www.w3.org/2001/xml-events" xmlns:xlink="http://www.w3.org/1999/xlink"><defs /><path d="M616 -218Q571 -218 532.0 -201.0Q493 -184 463.5 -154.5Q434 -125 417.0 -86.0Q400 -47 400 -2V430Q400 460 411.0 486.0Q422 512 441.5 531.5Q461 551 487.0 562.0Q513 573 543 573H2268Q2298 573 2324.0 562.0Q2350 551 2369.5 531.5Q2389 512 2400.5 486.0Q2412 460 2412 430V-2Q2412 -47 2395.0 -86.0Q2378 -125 2348.5 -154.5Q2319 -184 2280.0 -201.0Q2241 -218 2196 -218H616Z" style="fill:#ffb02e;stroke:none" transform="scale(1,-1) translate(0,-256)" /></svg>