<?xml version="1.0" encoding="utf-8" ?>
<svg baseProfile="full" height="256" version="1.1" width="256" xmlns="http://www.w3.org/2000/svg" xmlns:ev="http://www.w3.org/2001/xml-events" xmlns:xlink="http://www.w3.org/1999/xlink"><defs /><path d="M1072 900Q1115 943 1171.5 993.5Q1228 1044 1293.5 1094.5Q1359 1145 1430.0 1191.5Q1501 1238 1573.0 1274.0Q1645 1310 1716.0 1331.5Q1787 1353 1852 1353Q1941 1353 1988.5 1305.0Q2036 1257 2036 1168Q2036 1103 2014.5 1032.5Q1993 962 1957.0 889.5Q1921 817 1874.5 746.0Q1828 675 1777.5 610.0Q1727 545 1676.5 488.5Q1626 432 1583 389Z" style="fill:#f8312f;stroke:none" transform="scale(1,-1) translate(0,-256)" /></svg>