<?xml version="1.0" encoding="utf-8" ?>
<svg baseProfile="full" height="256" version="1.1" width="256" xmlns="http://www.w3.org/2000/svg" xmlns:ev="http://www.w3.org/2001/xml-events" xmlns:xlink="http://www.w3.org/1999/xlink"><defs /><path d="M1996 32Q1971 32 1949.5 41.0Q1928 50 1909.5 64.5Q1891 79 1874.0 96.5Q1857 114 1841 131L1619 935L816 1156Q799 1172 781.5 1189.0Q764 1206 750.0 1224.5Q736 1243 727.0 1264.5Q718 1286 718 1312Q718 1338 727.0 1356.0Q736 1374 755 1391Q772 1407 794.5 1421.0Q817 1435 837 1447Q946 1513 1069.5 1547.5Q1193 1582 1321 1582Q1451 1582 1572.0 1548.0Q1693 1514 1798.0 1452.5Q1903 1391 1989.5 1304.5Q2076 1218 2138.0 1112.5Q2200 1007 2234.0 886.0Q2268 765 2268 635Q2268 507 2233.5 384.0Q2199 261 2133 152Q2121 132 2107.0 109.5Q2093 87 2077 70Q2060 51 2041.5 41.5Q2023 32 1996 32Z" style="fill:#f8312f;stroke:none" transform="scale(1,-1) translate(0,-256)" /></svg>