<?xml version="1.0" encoding="utf-8" ?>
<svg baseProfile="full" height="256" version="1.1" width="256" xmlns="http://www.w3.org/2000/svg" xmlns:ev="http://www.w3.org/2001/xml-events" xmlns:xlink="http://www.w3.org/1999/xlink"><defs /><path d="M2125 326Q2125 259 2103.0 205.5Q2081 152 2043.5 111.0Q2006 70 1955.5 41.5Q1905 13 1848.5 -5.0Q1792 -23 1732.0 -31.5Q1672 -40 1616 -40Q1507 -40 1400.0 -17.5Q1293 5 1191 47Q1131 71 1065.0 107.0Q999 143 936.0 188.5Q873 234 816.0 288.5Q759 343 716.5 404.5Q674 466 648.5 534.0Q623 602 623 675Q623 743 645.0 796.5Q667 850 705.0 890.5Q743 931 793.5 960.0Q844 989 900.5 1007.0Q957 1025 1017.0 1033.5Q1077 1042 1133 1042Q1242 1042 1349.5 1019.0Q1457 996 1557 955Q1617 931 1683.0 895.0Q1749 859 1812.0 813.5Q1875 768 1932.0 713.5Q1989 659 2031.5 597.0Q2074 535 2099.5 467.0Q2125 399 2125 326Z" style="fill:#00a6ed;stroke:none" transform="scale(1,-1) translate(0,-256)" /></svg>