<?xml version="1.0" encoding="utf-8" ?>
<svg baseProfile="full" height="256" version="1.1" width="256" xmlns="http://www.w3.org/2000/svg" xmlns:ev="http://www.w3.org/2001/xml-events" xmlns:xlink="http://www.w3.org/1999/xlink"><defs /><path d="M2170 210Q2170 123 2143.5 52.5Q2117 -18 2070.5 -73.5Q2024 -129 1962.0 -169.5Q1900 -210 1828.5 -236.0Q1757 -262 1680.0 -275.0Q1603 -288 1528 -288Q1416 -288 1305.5 -265.0Q1195 -242 1091 -200Q1019 -171 945.0 -129.0Q871 -87 802.0 -34.0Q733 19 673.0 82.0Q613 145 568.5 217.0Q524 289 498.0 368.0Q472 447 472 532Q472 619 498.5 689.5Q525 760 571.0 815.5Q617 871 679.0 911.5Q741 952 812.0 978.0Q883 1004 960.0 1017.0Q1037 1030 1112 1030Q1225 1030 1335.5 1007.0Q1446 984 1551 942Q1623 913 1697.5 871.0Q1772 829 1840.5 776.0Q1909 723 1969.0 660.0Q2029 597 2074.0 525.5Q2119 454 2144.5 374.5Q2170 295 2170 210Z" style="fill:#0074ba;stroke:none" transform="scale(1,-1) translate(0,-256)" /></svg>