<?xml version="1.0" encoding="utf-8" ?>
<svg baseProfile="full" height="256" version="1.1" width="256" xmlns="http://www.w3.org/2000/svg" xmlns:ev="http://www.w3.org/2001/xml-events" xmlns:xlink="http://www.w3.org/1999/xlink"><defs /><path d="M400 360H465Q497 360 520.0 336.5Q543 313 543 281V222Q543 190 520.0 167.0Q497 144 465 144H400ZM795 -144Q773 -144 753.5 -135.5Q734 -127 719.0 -112.0Q704 -97 695.5 -77.5Q687 -58 687 -36Q687 -14 695.5 6.0Q704 26 718.5 40.5Q733 55 752.5 63.5Q772 72 795 72Q817 72 837.0 63.5Q857 55 871.5 40.5Q886 26 894.5 6.0Q903 -14 903 -36Q903 -58 894.5 -77.5Q886 -97 871.0 -112.0Q856 -127 836.5 -135.5Q817 -144 795 -144ZM1945 -144Q1923 -144 1903.5 -135.5Q1884 -127 1869.0 -112.0Q1854 -97 1845.5 -77.5Q1837 -58 1837 -36Q1837 -14 1845.5 6.0Q1854 26 1868.5 40.5Q1883 55 1902.5 63.5Q1922 72 1945 72Q1967 72 1987.0 63.5Q2007 55 2021.5 40.5Q2036 26 2044.5 6.0Q2053 -14 2053 -36Q2053 -58 2044.5 -77.5Q2036 -97 2021.0 -112.0Q2006 -127 1986.5 -135.5Q1967 -144 1945 -144Z" style="fill:#e6e6e6;stroke:none" transform="scale(1,-1) translate(0,-256)" /></svg>