<?xml version="1.0" encoding="utf-8" ?>
<svg baseProfile="full" height="256" version="1.1" width="256" xmlns="http://www.w3.org/2000/svg" xmlns:ev="http://www.w3.org/2001/xml-events" xmlns:xlink="http://www.w3.org/1999/xlink"><defs /><path d="M1479 503V647H2343Q2373 647 2394.0 626.0Q2415 605 2415 575Q2415 546 2393.5 524.5Q2372 503 2343 503ZM795 -287Q743 -287 697.0 -267.5Q651 -248 617.0 -214.0Q583 -180 563.0 -134.0Q543 -88 543 -36Q543 16 563.0 62.0Q583 108 617.0 142.0Q651 176 697.0 196.0Q743 216 795 216Q847 216 893.0 196.0Q939 176 973.0 142.0Q1007 108 1027.0 62.0Q1047 16 1047 -36Q1047 -88 1027.0 -134.0Q1007 -180 973.0 -214.0Q939 -248 893.0 -267.5Q847 -287 795 -287ZM1945 -287Q1893 -287 1847.0 -267.5Q1801 -248 1767.0 -214.0Q1733 -180 1713.0 -134.0Q1693 -88 1693 -36Q1693 16 1713.0 62.0Q1733 108 1767.0 142.0Q1801 176 1847.0 196.0Q1893 216 1945 216Q1997 216 2043.0 196.0Q2089 176 2123.0 142.0Q2157 108 2177.0 62.0Q2197 16 2197 -36Q2197 -88 2177.0 -134.0Q2157 -180 2123.0 -214.0Q2089 -248 2043.0 -267.5Q1997 -287 1945 -287Z" style="fill:#321b41;stroke:none" transform="scale(1,-1) translate(0,-256)" /></svg>