<?xml version="1.0" encoding="utf-8" ?>
<svg baseProfile="full" height="256" version="1.1" width="256" xmlns="http://www.w3.org/2000/svg" xmlns:ev="http://www.w3.org/2001/xml-events" xmlns:xlink="http://www.w3.org/1999/xlink"><defs /><path d="M1383 935Q1383 948 1394 959L1710 1269Q1716 1275 1722.5 1276.5Q1729 1278 1737 1278Q1741 1278 1752.0 1275.0Q1763 1272 1775.0 1268.5Q1787 1265 1797.5 1261.0Q1808 1257 1813 1255Q1869 1231 1914.0 1190.5Q1959 1150 1990.5 1098.5Q2022 1047 2038.5 988.0Q2055 929 2055 869Q2055 857 2046 846L1747 534Q1742 529 1736.5 526.0Q1731 523 1724 523Q1699 523 1691 549Q1668 623 1645.5 673.5Q1623 724 1591.5 763.0Q1560 802 1515.0 834.0Q1470 866 1403 904Q1394 909 1388.5 916.5Q1383 924 1383 935Z" style="fill:#9b9b9b;stroke:none" transform="scale(1,-1) translate(0,-256)" /></svg>