<?xml version="1.0" encoding="utf-8" ?>
<svg baseProfile="full" height="256" version="1.1" width="256" xmlns="http://www.w3.org/2000/svg" xmlns:ev="http://www.w3.org/2001/xml-events" xmlns:xlink="http://www.w3.org/1999/xlink"><defs /><path d="M2023 1584Q2032 1584 2036 1582Q2091 1559 2139.5 1525.0Q2188 1491 2227.5 1447.5Q2267 1404 2296.5 1353.0Q2326 1302 2343 1245Q2349 1224 2355.0 1200.5Q2361 1177 2361 1155Q2361 1141 2353.0 1128.0Q2345 1115 2329 1115Q2311 1115 2301.5 1127.0Q2292 1139 2287.5 1156.0Q2283 1173 2280.5 1191.5Q2278 1210 2274 1224Q2250 1302 2200.0 1368.5Q2150 1435 2080 1479Q2063 1490 2044.5 1497.5Q2026 1505 2009 1515Q1999 1520 1993.0 1529.0Q1987 1538 1987 1549Q1987 1563 1998.0 1573.5Q2009 1584 2023 1584ZM1903 1459Q1905 1459 1907.0 1458.5Q1909 1458 1911 1458Q1921 1452 1934.0 1448.0Q1947 1444 1958 1439Q2016 1413 2061 1373Q2097 1341 2128.5 1298.5Q2160 1256 2184.0 1207.5Q2208 1159 2221.5 1107.5Q2235 1056 2235 1007Q2235 991 2222.5 982.5Q2210 974 2196 974Q2182 974 2174.0 984.0Q2166 994 2164 1006Q2155 1054 2145.0 1096.5Q2135 1139 2119.0 1177.0Q2103 1215 2078.0 1250.5Q2053 1286 2014 1319Q1987 1343 1956.5 1358.5Q1926 1374 1893 1388Q1881 1393 1873.5 1401.0Q1866 1409 1866 1423Q1866 1438 1877.0 1448.5Q1888 1459 1903 1459ZM1284 827Q1288 827 1296 825L1287 800L1296 825Q1307 820 1317.5 814.5Q1328 809 1339 803Q1394 770 1438.5 723.0Q1483 676 1515.0 620.5Q1547 565 1567.0 503.0Q1587 441 1595 378V373Q1595 359 1584.5 348.5Q1574 338 1560 338Q1546 338 1536.5 346.0Q1527 354 1524 368Q1519 392 1514.5 415.5Q1510 439 1503 462Q1474 560 1419.5 635.5Q1365 711 1272 757Q1268 755 1263.5 759.0Q1259 763 1255.5 769.0Q1252 775 1250.0 781.5Q1248 788 1248 791Q1248 805 1259.0 816.0Q1270 827 1284 827Z" style="fill:#9b9b9b;stroke:none" transform="scale(1,-1) translate(0,-256)" /></svg>