<?xml version="1.0" encoding="utf-8" ?>
<svg baseProfile="full" height="256" version="1.1" width="256" xmlns="http://www.w3.org/2000/svg" xmlns:ev="http://www.w3.org/2001/xml-events" xmlns:xlink="http://www.w3.org/1999/xlink"><defs /><path d="M790 -301Q771 -301 749.0 -295.0Q727 -289 705.0 -279.5Q683 -270 662.5 -259.0Q642 -248 626 -238Q705 -266 786 -266Q845 -266 896.0 -247.0Q947 -228 984.5 -193.5Q1022 -159 1043.5 -109.5Q1065 -60 1065 0Q1065 72 1030.5 140.5Q996 209 940.5 262.0Q885 315 815.0 347.0Q745 379 674 379Q628 379 588.5 360.5Q549 342 520.5 310.5Q492 279 476.0 238.0Q460 197 460 152Q460 94 484.5 34.5Q509 -25 551.0 -73.0Q593 -121 648.0 -151.5Q703 -182 764 -182Q804 -182 840.0 -165.5Q876 -149 902.0 -121.5Q928 -94 943.5 -57.5Q959 -21 959 19Q959 72 934.0 118.0Q909 164 869.5 197.5Q830 231 780.0 250.5Q730 270 680 270Q632 270 602.0 249.5Q572 229 561 181Q582 205 611.0 217.0Q640 229 672 229Q712 229 752.5 213.0Q793 197 825.5 169.5Q858 142 878.0 105.0Q898 68 898 25Q898 -38 868.5 -72.5Q839 -107 773 -107Q723 -107 677.5 -86.0Q632 -65 597.0 -30.0Q562 5 541.5 51.0Q521 97 521 147Q521 219 564.0 262.5Q607 306 679 306Q737 306 793.5 284.0Q850 262 895.0 223.0Q940 184 967.5 131.5Q995 79 995 18Q995 -29 976.5 -72.0Q958 -115 926.5 -147.0Q895 -179 853.0 -198.0Q811 -217 763 -217Q695 -217 634.0 -184.0Q573 -151 526.0 -98.5Q479 -46 451.5 19.0Q424 84 424 149Q424 202 442.5 250.0Q461 298 494.0 335.0Q527 372 573.0 393.5Q619 415 674 415Q753 415 829.5 380.0Q906 345 966.5 286.5Q1027 228 1064.0 153.0Q1101 78 1101 -2Q1101 -69 1077.0 -124.0Q1053 -179 1011.0 -218.5Q969 -258 912.5 -279.5Q856 -301 790 -301ZM565 100Q565 93 566 90Q575 56 595.5 26.5Q616 -3 644.0 -24.5Q672 -46 705.5 -58.5Q739 -71 774 -71Q825 -71 843.5 -46.5Q862 -22 862 26Q862 61 844.5 91.5Q827 122 799.0 144.5Q771 167 737.5 180.0Q704 193 671 193Q651 193 632.0 186.5Q613 180 598.0 168.0Q583 156 574.0 138.5Q565 121 565 100Z" style="fill:#b4acbc;stroke:none" transform="scale(1,-1) translate(0,-256)" /></svg>