<?xml version="1.0" encoding="utf-8" ?>
<svg baseProfile="full" height="256" version="1.1" width="256" xmlns="http://www.w3.org/2000/svg" xmlns:ev="http://www.w3.org/2001/xml-events" xmlns:xlink="http://www.w3.org/1999/xlink"><defs /><path d="M594 209Q611 220 631.0 224.5Q651 229 671 229Q712 229 752.5 213.5Q793 198 825.5 170.5Q858 143 878.0 105.5Q898 68 898 25Q898 -29 875.5 -64.0Q853 -99 795 -106Q797 -96 798.0 -87.0Q799 -78 799 -68Q799 -23 781.0 18.5Q763 60 734.0 96.0Q705 132 668.0 161.0Q631 190 594 209Z" style="fill:#b4acbc;stroke:none" transform="scale(1,-1) translate(0,-256)" /></svg>