<?xml version="1.0" encoding="utf-8" ?>
<svg baseProfile="full" height="256" version="1.1" width="256" xmlns="http://www.w3.org/2000/svg" xmlns:ev="http://www.w3.org/2001/xml-events" xmlns:xlink="http://www.w3.org/1999/xlink"><defs /><path d="M1152 18Q1152 89 1134.0 157.0Q1116 225 1087 289Q1070 326 1052.0 355.0Q1034 384 1014.0 410.0Q994 436 970.0 460.5Q946 485 917 512Q907 521 901.5 529.5Q896 538 896 552Q896 569 907 580L1962 1666Q1987 1692 2020.5 1706.5Q2054 1721 2090 1721Q2128 1721 2158.0 1706.5Q2188 1692 2214 1665Q2252 1627 2288.0 1576.5Q2324 1526 2352.5 1470.0Q2381 1414 2398.0 1355.5Q2415 1297 2415 1242Q2415 1199 2405.5 1157.5Q2396 1116 2376 1078Q2360 1046 2324.5 1001.0Q2289 956 2240.5 902.5Q2192 849 2134.0 789.0Q2076 729 2014.5 668.5Q1953 608 1891.5 548.5Q1830 489 1774.0 436.5Q1718 384 1671.0 340.0Q1624 296 1593 266Q1460 140 1329.0 15.5Q1198 -109 1069 -238Q1114 -185 1133.0 -117.5Q1152 -50 1152 18Z" style="fill:#f3eef8;stroke:none" transform="scale(1,-1) translate(0,-256)" /></svg>