<?xml version="1.0" encoding="utf-8" ?>
<svg baseProfile="full" height="256" version="1.1" width="256" xmlns="http://www.w3.org/2000/svg" xmlns:ev="http://www.w3.org/2001/xml-events" xmlns:xlink="http://www.w3.org/1999/xlink"><defs /><path d="M1151 -15Q1151 49 1132.5 109.5Q1114 170 1082.5 226.5Q1051 283 1010.5 333.5Q970 384 927 428Q902 453 875.0 475.5Q848 498 823 524Q810 538 803.0 550.0Q796 562 796 582Q796 612 817 633L1878 1694Q1899 1715 1927 1715Q1938 1715 1951 1710Q1999 1692 2052.0 1665.5Q2105 1639 2154.0 1604.5Q2203 1570 2243.0 1528.0Q2283 1486 2304 1438Q2307 1430 2307 1421Q2307 1388 2278.5 1328.0Q2250 1268 2200.0 1189.0Q2150 1110 2082.0 1015.0Q2014 920 1936.0 817.5Q1858 715 1773.0 608.5Q1688 502 1603.5 399.0Q1519 296 1438.5 200.5Q1358 105 1289.5 24.5Q1221 -56 1167.5 -118.0Q1114 -180 1083 -215Q1119 -174 1135.0 -121.5Q1151 -69 1151 -15Z" style="fill:#b4acbc;stroke:none" transform="scale(1,-1) translate(0,-256)" /></svg>