<?xml version="1.0" encoding="utf-8" ?>
<svg baseProfile="full" height="256" version="1.1" width="256" xmlns="http://www.w3.org/2000/svg" xmlns:ev="http://www.w3.org/2001/xml-events" xmlns:xlink="http://www.w3.org/1999/xlink"><defs /><path d="M687 211Q721 211 754.0 198.0Q787 185 813.5 162.5Q840 140 856.5 109.5Q873 79 873 43V16Q873 -6 870.5 -23.5Q868 -41 860.5 -53.5Q853 -66 837.5 -72.5Q822 -79 797 -79Q746 -79 693 -65Q666 -58 643.0 -38.5Q620 -19 602.0 7.0Q584 33 570.5 61.5Q557 90 549 115Q566 135 578.5 152.5Q591 170 605.0 183.0Q619 196 638.0 203.5Q657 211 687 211Z" style="fill:#b4acbc;stroke:none" transform="scale(1,-1) translate(0,-256)" /></svg>