<?xml version="1.0" encoding="utf-8" ?>
<svg baseProfile="full" height="256" version="1.1" width="256" xmlns="http://www.w3.org/2000/svg" xmlns:ev="http://www.w3.org/2001/xml-events" xmlns:xlink="http://www.w3.org/1999/xlink"><defs /><path d="M615 575Q615 592 625.5 600.5Q636 609 651 611L819 635Q844 639 861.0 643.0Q878 647 903 647Q928 647 945.0 643.0Q962 639 987 635L1154 611Q1179 609 1196.0 610.0Q1213 611 1238 611H1406V360L1167 336Q1132 332 1107.0 328.0Q1082 324 1047 324Q1027 324 1011.5 325.0Q996 326 981.0 328.0Q966 330 950.0 332.0Q934 334 915 336L651 360Q636 362 625.5 370.5Q615 379 615 396Z" style="fill:#e1d8ec;stroke:none" transform="scale(1,-1) translate(0,-256)" /></svg>