<?xml version="1.0" encoding="utf-8" ?>
<svg baseProfile="full" height="256" version="1.1" width="256" xmlns="http://www.w3.org/2000/svg" xmlns:ev="http://www.w3.org/2001/xml-events" xmlns:xlink="http://www.w3.org/1999/xlink"><defs /><path d="M867 1150Q867 1172 875.5 1192.0Q884 1212 898.5 1226.5Q913 1241 932.5 1249.5Q952 1258 975 1258H1837Q1859 1258 1879.0 1249.5Q1899 1241 1913.5 1226.5Q1928 1212 1936.5 1192.0Q1945 1172 1945 1150V288Q1945 265 1936.5 245.5Q1928 226 1913.5 211.5Q1899 197 1879.0 188.5Q1859 180 1837 180H975Q952 180 932.5 188.5Q913 197 898.5 211.5Q884 226 875.5 245.5Q867 265 867 288Z" style="fill:#ffffff;stroke:none" transform="scale(1,-1) translate(0,-256)" /></svg>