<?xml version="1.0" encoding="utf-8" ?>
<svg baseProfile="full" height="256" version="1.1" width="256" xmlns="http://www.w3.org/2000/svg" xmlns:ev="http://www.w3.org/2001/xml-events" xmlns:xlink="http://www.w3.org/1999/xlink"><defs /><path d="M1401 1581Q1519 1581 1629.0 1550.5Q1739 1520 1834.0 1464.0Q1929 1408 2007.5 1329.5Q2086 1251 2142.0 1156.0Q2198 1061 2228.5 951.0Q2259 841 2259 723Q2259 605 2228.5 495.5Q2198 386 2142.0 290.5Q2086 195 2007.5 116.5Q1929 38 1833.5 -18.0Q1738 -74 1628.5 -104.5Q1519 -135 1401 -135Q1283 -135 1173.5 -104.5Q1064 -74 968.5 -18.0Q873 38 794.5 116.5Q716 195 660.0 290.5Q604 386 573.5 495.5Q543 605 543 723Q543 841 573.5 950.5Q604 1060 660.0 1155.5Q716 1251 794.5 1329.5Q873 1408 968.5 1464.0Q1064 1520 1173.5 1550.5Q1283 1581 1401 1581Z" style="fill:#ffffff;stroke:none" transform="scale(1,-1) translate(0,-256)" /></svg>