<?xml version="1.0" encoding="utf-8" ?>
<svg baseProfile="full" height="256" version="1.1" width="256" xmlns="http://www.w3.org/2000/svg" xmlns:ev="http://www.w3.org/2001/xml-events" xmlns:xlink="http://www.w3.org/1999/xlink"><defs /><path d="M1738 1188Q1748 1190 1765.0 1194.5Q1782 1199 1800.0 1203.5Q1818 1208 1833.5 1211.5Q1849 1215 1857 1215Q1887 1215 1908.0 1194.0Q1929 1173 1929 1143Q1929 1114 1907.5 1093.0Q1886 1072 1857 1072Q1850 1072 1833.5 1075.5Q1817 1079 1798.0 1084.0Q1779 1089 1761.5 1093.5Q1744 1098 1734 1100Q1718 1077 1696 1067V1006H1944Q1958 1006 1969.0 995.5Q1980 985 1980 971V827Q1980 812 1969.5 801.5Q1959 791 1944 791H1280Q1272 791 1267.0 786.0Q1262 781 1262 773V609Q1262 595 1251.0 584.5Q1240 574 1226 574H1083Q1069 574 1058.0 584.5Q1047 595 1047 609V726Q1047 782 1071.0 832.5Q1095 883 1135.0 921.5Q1175 960 1227.0 983.0Q1279 1006 1334 1006H1624V1065Q1596 1075 1580 1102Q1568 1100 1549.0 1095.0Q1530 1090 1510.0 1085.0Q1490 1080 1472.5 1076.0Q1455 1072 1446 1072Q1417 1072 1395.5 1093.0Q1374 1114 1374 1143Q1374 1172 1395.5 1193.5Q1417 1215 1446 1215Q1455 1215 1472.0 1211.5Q1489 1208 1508.5 1203.0Q1528 1198 1546.5 1193.0Q1565 1188 1576 1186Q1587 1209 1609.5 1223.5Q1632 1238 1658 1238Q1684 1238 1705.5 1224.5Q1727 1211 1738 1188ZM975 499H1332Q1343 499 1351.0 491.5Q1359 484 1359 473Q1359 468 1355.0 445.5Q1351 423 1345.5 391.5Q1340 360 1332.5 324.5Q1325 289 1318.5 257.5Q1312 226 1307.0 202.5Q1302 179 1300 173Q1297 164 1290.5 158.0Q1284 152 1273 152H1038Q1027 152 1021.0 158.0Q1015 164 1011 173Q1009 177 1004.0 199.5Q999 222 992.0 254.0Q985 286 977.0 322.5Q969 359 962.5 390.5Q956 422 952.0 444.5Q948 467 948 470Q948 481 955.5 490.0Q963 499 975 499ZM1038 304 1059 206H1251L1270 301Q1259 306 1248.5 310.5Q1238 315 1226 315Q1206 315 1188.5 306.0Q1171 297 1151 297Q1131 297 1112.0 306.0Q1093 315 1073 315Q1063 315 1054.5 312.0Q1046 309 1038 304ZM1027 358Q1038 363 1049.5 366.0Q1061 369 1073 369Q1093 369 1111.5 360.5Q1130 352 1150 352Q1170 352 1188.0 360.5Q1206 369 1226 369Q1240 369 1253.5 364.5Q1267 360 1281 355L1299 445H1008Z" style="fill:#000000;stroke:none" transform="scale(1,-1) translate(0,-256)" /></svg>