<?xml version="1.0" encoding="utf-8" ?>
<svg baseProfile="full" height="256" version="1.1" width="256" xmlns="http://www.w3.org/2000/svg" xmlns:ev="http://www.w3.org/2001/xml-events" xmlns:xlink="http://www.w3.org/1999/xlink"><defs /><path d="M723 1078Q708 1078 697.5 1089.0Q687 1100 687 1115Q687 1118 687.5 1120.5Q688 1123 689 1126Q705 1177 737.0 1221.0Q769 1265 812.0 1297.5Q855 1330 906.0 1348.0Q957 1366 1011 1366Q1025 1366 1036.0 1355.0Q1047 1344 1047 1330Q1047 1316 1036.0 1305.0Q1025 1294 1011 1294Q960 1294 916.5 1276.0Q873 1258 836 1223Q808 1197 789.5 1167.5Q771 1138 757 1103Q747 1078 723 1078ZM1011 1006Q1047 1006 1067.0 995.5Q1087 985 1098.5 969.0Q1110 953 1115.5 934.5Q1121 916 1129.0 900.0Q1137 884 1150.5 873.5Q1164 863 1190 863Q1220 863 1241.0 884.0Q1262 905 1262 934Q1262 943 1261 947Q1253 994 1230.5 1031.5Q1208 1069 1175.0 1095.5Q1142 1122 1100.0 1136.0Q1058 1150 1011 1150Q963 1150 921.0 1136.5Q879 1123 846.0 1097.0Q813 1071 791.0 1033.5Q769 996 760 948Q759 945 759.0 941.5Q759 938 759 935Q759 905 780.0 884.0Q801 863 831 863Q857 863 870.5 873.5Q884 884 891.5 900.0Q899 916 905.0 934.5Q911 953 922.5 969.0Q934 985 954.0 995.5Q974 1006 1011 1006ZM1801 1006Q1837 1006 1857.0 995.5Q1877 985 1888.5 969.0Q1900 953 1906.0 934.5Q1912 916 1920.0 900.0Q1928 884 1941.0 873.5Q1954 863 1980 863Q2010 863 2031.5 884.0Q2053 905 2053 935Q2053 943 2052 947Q2044 994 2021.5 1031.5Q1999 1069 1965.5 1095.5Q1932 1122 1890.0 1136.0Q1848 1150 1801 1150Q1753 1150 1711.5 1136.5Q1670 1123 1637.0 1097.0Q1604 1071 1582.0 1033.5Q1560 996 1551 948Q1550 943 1550 934Q1550 904 1571.5 883.5Q1593 863 1622 863Q1648 863 1661.5 873.5Q1675 884 1682.5 900.0Q1690 916 1696.0 934.5Q1702 953 1713.0 969.0Q1724 985 1744.5 995.5Q1765 1006 1801 1006ZM1765 1330Q1765 1345 1775.5 1355.5Q1786 1366 1801 1366Q1854 1366 1905.0 1347.5Q1956 1329 1999.5 1297.0Q2043 1265 2075.0 1221.0Q2107 1177 2123 1126Q2124 1123 2124.5 1120.5Q2125 1118 2125 1115Q2125 1100 2114.5 1089.0Q2104 1078 2089 1078Q2065 1078 2055 1103Q2041 1138 2022.5 1167.5Q2004 1197 1976 1223Q1939 1258 1895.5 1276.0Q1852 1294 1801 1294Q1786 1294 1775.5 1304.5Q1765 1315 1765 1330Z" style="fill:#402a32;stroke:none" transform="scale(1,-1) translate(0,-256)" /></svg>