<?xml version="1.0" encoding="utf-8" ?>
<svg baseProfile="full" height="256" version="1.1" width="256" xmlns="http://www.w3.org/2000/svg" xmlns:ev="http://www.w3.org/2001/xml-events" xmlns:xlink="http://www.w3.org/1999/xlink"><defs /><path d="M1406 719H1410Q1465 719 1519.0 702.5Q1573 686 1621.5 657.5Q1670 629 1711.0 590.0Q1752 551 1781 505Q1793 486 1799.0 467.5Q1805 449 1805 427Q1805 404 1798.5 384.5Q1792 365 1780 346Q1751 301 1709.5 263.5Q1668 226 1619.0 199.0Q1570 172 1516.5 157.0Q1463 142 1410 142H1406H1402Q1349 142 1295.5 157.0Q1242 172 1193.0 199.0Q1144 226 1102.5 263.5Q1061 301 1032 346Q1020 365 1013.5 384.5Q1007 404 1007 427Q1007 449 1013.0 467.5Q1019 486 1031 505Q1060 551 1101.0 590.5Q1142 630 1190.5 658.5Q1239 687 1293.0 703.0Q1347 719 1402 719ZM1407 193Q1456 193 1499.0 212.0Q1542 231 1574.5 263.0Q1607 295 1625.5 338.5Q1644 382 1644 431Q1644 480 1625.5 523.5Q1607 567 1574.5 599.0Q1542 631 1499.0 650.0Q1456 669 1407 669Q1358 669 1314.5 650.0Q1271 631 1239.0 599.0Q1207 567 1188.0 523.5Q1169 480 1169 431Q1169 382 1188.0 338.5Q1207 295 1239.0 263.0Q1271 231 1314.5 212.0Q1358 193 1407 193Z" style="fill:#ffffff;stroke:none" transform="scale(1,-1) translate(0,-256)" /></svg>