<?xml version="1.0" encoding="utf-8" ?>
<svg baseProfile="full" height="256" version="1.1" width="256" xmlns="http://www.w3.org/2000/svg" xmlns:ev="http://www.w3.org/2001/xml-events" xmlns:xlink="http://www.w3.org/1999/xlink"><defs /><path d="M1909 1005Q1951 1005 1998.0 996.5Q2045 988 2091.0 972.5Q2137 957 2178.5 934.0Q2220 911 2251 881Q2266 867 2274.0 853.5Q2282 840 2282 819Q2282 793 2270.5 774.5Q2259 756 2241.5 739.0Q2224 722 2203.5 703.0Q2183 684 2165.5 658.0Q2148 632 2136.5 594.5Q2125 557 2125 503V431Q2125 332 2099.5 240.0Q2074 148 2027.0 68.5Q1980 -11 1914.5 -76.5Q1849 -142 1769.0 -189.0Q1689 -236 1597.0 -261.5Q1505 -287 1406 -287Q1307 -287 1215.0 -261.5Q1123 -236 1043.0 -189.0Q963 -142 897.5 -76.5Q832 -11 785.0 68.5Q738 148 712.5 240.0Q687 332 687 431V503Q687 557 675.5 594.0Q664 631 646.5 657.5Q629 684 608.5 702.5Q588 721 570.5 738.0Q553 755 541.5 774.0Q530 793 530 820Q530 840 538.0 853.5Q546 867 560 881Q591 910 633.0 933.0Q675 956 721.0 972.0Q767 988 814.5 996.5Q862 1005 903 1005V1366Q903 1411 920.0 1450.0Q937 1489 966.0 1518.0Q995 1547 1034.0 1564.0Q1073 1581 1118 1581Q1160 1581 1198 1566Q1207 1601 1227.0 1630.5Q1247 1660 1275.0 1681.0Q1303 1702 1336.5 1713.5Q1370 1725 1406 1725Q1442 1725 1475.5 1713.5Q1509 1702 1537.0 1681.0Q1565 1660 1585.0 1630.5Q1605 1601 1614 1566Q1651 1581 1693 1581Q1738 1581 1777.0 1564.0Q1816 1547 1845.5 1518.0Q1875 1489 1892.0 1450.0Q1909 1411 1909 1366V1005Z" style="fill:#00a6ed;stroke:none" transform="scale(1,-1) translate(0,-256)" /></svg>