<?xml version="1.0" encoding="utf-8" ?>
<svg baseProfile="full" height="256" version="1.1" width="256" xmlns="http://www.w3.org/2000/svg" xmlns:ev="http://www.w3.org/2001/xml-events" xmlns:xlink="http://www.w3.org/1999/xlink"><defs /><path d="M883 -287Q858 -287 839.0 -270.5Q820 -254 816 -229L544 1649Q544 1651 543.5 1653.5Q543 1656 543 1659Q543 1687 563.5 1706.0Q584 1725 612 1725H2200Q2228 1725 2248.5 1706.0Q2269 1687 2269 1659Q2269 1656 2268.5 1653.5Q2268 1651 2268 1649L1996 -229Q1992 -255 1973.5 -271.0Q1955 -287 1929 -287H883Z" style="fill:#aeddff;stroke:none" transform="scale(1,-1) translate(0,-256)" /></svg>