<?xml version="1.0" encoding="utf-8" ?>
<svg baseProfile="full" height="256" version="1.1" width="256" xmlns="http://www.w3.org/2000/svg" xmlns:ev="http://www.w3.org/2001/xml-events" xmlns:xlink="http://www.w3.org/1999/xlink"><defs /><path d="M1190 1150Q1190 1179 1211.5 1200.5Q1233 1222 1262 1222H1406Q1436 1222 1457.0 1201.0Q1478 1180 1478 1150V1006Q1478 977 1456.5 956.0Q1435 935 1406 935H1262Q1233 935 1211.5 956.0Q1190 977 1190 1006ZM1190 431Q1190 460 1211.5 481.5Q1233 503 1262 503H1406Q1436 503 1457.0 482.0Q1478 461 1478 431V288Q1478 258 1457.0 237.0Q1436 216 1406 216H1262Q1233 216 1211.5 237.5Q1190 259 1190 288ZM1981 863Q1951 863 1930.0 842.0Q1909 821 1909 791V647Q1909 617 1930.0 596.0Q1951 575 1981 575H2125Q2154 575 2175.5 596.5Q2197 618 2197 647V791Q2197 820 2175.5 841.5Q2154 863 2125 863Z" style="fill:#ff822d;stroke:none" transform="scale(1,-1) translate(0,-256)" /></svg>