<?xml version="1.0" encoding="utf-8" ?>
<svg baseProfile="full" height="256" version="1.1" width="256" xmlns="http://www.w3.org/2000/svg" xmlns:ev="http://www.w3.org/2001/xml-events" xmlns:xlink="http://www.w3.org/1999/xlink"><defs /><path d="M1550 1150Q1550 1180 1571.0 1201.0Q1592 1222 1622 1222H1765Q1795 1222 1816.0 1201.0Q1837 1180 1837 1150V1006Q1837 977 1815.5 956.0Q1794 935 1765 935H1622Q1593 935 1571.5 956.0Q1550 977 1550 1006ZM1190 791Q1190 820 1211.5 841.5Q1233 863 1262 863H1406Q1436 863 1457.0 842.0Q1478 821 1478 791V647Q1478 617 1457.0 596.0Q1436 575 1406 575H1262Q1233 575 1211.5 596.5Q1190 618 1190 647ZM1622 503Q1592 503 1571.0 482.0Q1550 461 1550 431V288Q1550 258 1571.0 237.0Q1592 216 1622 216H1765Q1795 216 1816.0 237.0Q1837 258 1837 288V431Q1837 461 1816.0 482.0Q1795 503 1765 503Z" style="fill:#00a6ed;stroke:none" transform="scale(1,-1) translate(0,-256)" /></svg>