<?xml version="1.0" encoding="utf-8" ?>
<svg baseProfile="full" height="256" version="1.1" width="256" xmlns="http://www.w3.org/2000/svg" xmlns:ev="http://www.w3.org/2001/xml-events" xmlns:xlink="http://www.w3.org/1999/xlink"><defs /><path d="M2161 1725Q2206 1725 2245.0 1708.0Q2284 1691 2313.0 1662.0Q2342 1633 2359.0 1594.0Q2376 1555 2376 1510V1366H1011V1510Q1011 1555 1028.0 1594.0Q1045 1633 1074.0 1662.0Q1103 1691 1142.0 1708.0Q1181 1725 1226 1725ZM1226 -287Q1181 -287 1142.0 -270.0Q1103 -253 1074.0 -224.0Q1045 -195 1028.0 -156.0Q1011 -117 1011 -72V72H2376V-72Q2376 -117 2359.0 -156.0Q2342 -195 2313.0 -224.0Q2284 -253 2245.0 -270.0Q2206 -287 2161 -287Z" style="fill:#7167a4;stroke:none" transform="scale(1,-1) translate(0,-256)" /></svg>