<?xml version="1.0" encoding="utf-8" ?>
<svg baseProfile="full" height="256" version="1.1" width="256" xmlns="http://www.w3.org/2000/svg" xmlns:ev="http://www.w3.org/2001/xml-events" xmlns:xlink="http://www.w3.org/1999/xlink"><defs /><path d="M1909 1150Q1909 1180 1930.0 1201.0Q1951 1222 1981 1222H2125Q2154 1222 2175.5 1200.5Q2197 1179 2197 1150V1006Q2197 977 2175.5 956.0Q2154 935 2125 935H1981Q1952 935 1930.5 956.0Q1909 977 1909 1006ZM1550 791Q1550 821 1571.0 842.0Q1592 863 1622 863H1765Q1795 863 1816.0 842.0Q1837 821 1837 791V647Q1837 617 1816.0 596.0Q1795 575 1765 575H1622Q1592 575 1571.0 596.0Q1550 617 1550 647ZM1981 503Q1951 503 1930.0 482.0Q1909 461 1909 431V288Q1909 258 1930.0 237.0Q1951 216 1981 216H2125Q2154 216 2175.5 237.5Q2197 259 2197 288V431Q2197 460 2175.5 481.5Q2154 503 2125 503Z" style="fill:#fcd53f;stroke:none" transform="scale(1,-1) translate(0,-256)" /></svg>