<?xml version="1.0" encoding="utf-8" ?>
<svg baseProfile="full" height="256" version="1.1" width="256" xmlns="http://www.w3.org/2000/svg" xmlns:ev="http://www.w3.org/2001/xml-events" xmlns:xlink="http://www.w3.org/1999/xlink"><defs /><path d="M903 1653H975Q1004 1653 1025.5 1631.5Q1047 1610 1047 1581V1479Q1047 1462 1035.0 1450.0Q1023 1438 1006 1438H903Q873 1438 852.0 1459.0Q831 1480 831 1510V1581Q831 1611 852.0 1632.0Q873 1653 903 1653ZM1118 -218H1190Q1219 -218 1240.5 -196.5Q1262 -175 1262 -146V-74Q1262 -44 1241.0 -23.0Q1220 -2 1190 -2H1016Q999 -2 987.0 -14.0Q975 -26 975 -43V-75Q975 -105 986.0 -131.0Q997 -157 1016.5 -176.5Q1036 -196 1062.0 -207.0Q1088 -218 1118 -218ZM1550 -74V-146Q1550 -175 1571.5 -196.5Q1593 -218 1622 -218H1696Q1725 -218 1751.0 -207.0Q1777 -196 1796.0 -176.5Q1815 -157 1826.0 -131.0Q1837 -105 1837 -76V-43Q1837 -26 1825.0 -14.0Q1813 -2 1796 -2H1622Q1592 -2 1571.0 -23.0Q1550 -44 1550 -74ZM1981 1510V1581Q1981 1611 1960.0 1632.0Q1939 1653 1909 1653H1837Q1808 1653 1786.5 1631.5Q1765 1610 1765 1581V1479Q1765 1462 1777.0 1450.0Q1789 1438 1806 1438H1909Q1939 1438 1960.0 1459.0Q1981 1480 1981 1510ZM2340 1148Q2370 1148 2391.0 1127.0Q2412 1106 2412 1076V789Q2412 759 2391.0 738.0Q2370 717 2340 717H2309Q2292 717 2280.0 705.0Q2268 693 2268 676V643Q2268 614 2257.0 588.0Q2246 562 2227.0 542.5Q2208 523 2182.5 512.0Q2157 501 2127 501Q2115 501 2102.0 501.0Q2089 501 2078.0 497.0Q2067 493 2060.0 484.5Q2053 476 2053 460V141Q2053 111 2042.0 85.0Q2031 59 2011.5 39.5Q1992 20 1966.0 9.0Q1940 -2 1910 -2H1878Q1861 -2 1849.0 10.0Q1837 22 1837 39V245Q1837 262 1825.0 274.0Q1813 286 1796 286H1016Q999 286 987.0 274.0Q975 262 975 245V39Q975 23 968.0 14.5Q961 6 950.5 2.5Q940 -1 927.0 -1.5Q914 -2 903 -2Q873 -2 847.0 9.5Q821 21 801.5 40.5Q782 60 770.5 86.0Q759 112 759 142V460Q759 477 747.0 489.0Q735 501 718 501H687Q657 501 631.0 512.5Q605 524 585.5 543.5Q566 563 554.5 589.0Q543 615 543 645V676Q543 692 536.0 700.5Q529 709 518.5 712.5Q508 716 495.5 716.5Q483 717 472 717Q442 717 421.0 738.0Q400 759 400 789V1076Q400 1108 421.5 1128.0Q443 1148 474 1148Q503 1148 524.5 1126.5Q546 1105 546 1076V973Q546 956 558.0 944.0Q570 932 587 932L716 933Q733 933 744.5 943.5Q756 954 759 970Q779 1076 843.0 1137.5Q907 1199 1013 1218Q1028 1221 1037.5 1231.5Q1047 1242 1047 1258V1397Q1047 1412 1053.0 1420.0Q1059 1428 1068.0 1432.0Q1077 1436 1088.0 1437.0Q1099 1438 1110 1438Q1141 1438 1169.0 1426.0Q1197 1414 1217.5 1393.0Q1238 1372 1250.0 1344.0Q1262 1316 1262 1285V1261Q1262 1244 1274.0 1232.0Q1286 1220 1303 1220H1509Q1526 1220 1538.0 1232.0Q1550 1244 1550 1261V1289Q1550 1319 1561.5 1346.5Q1573 1374 1593.0 1394.0Q1613 1414 1640.0 1426.0Q1667 1438 1698 1438H1724Q1741 1438 1753.0 1426.0Q1765 1414 1765 1397V1258Q1765 1242 1774.5 1231.5Q1784 1221 1799 1218Q2012 1180 2051 969Q2054 952 2065.5 942.0Q2077 932 2094 932H2227Q2244 932 2256.0 944.0Q2268 956 2268 973V1076Q2268 1105 2289.5 1126.5Q2311 1148 2340 1148Z" style="fill:#635994;stroke:none" transform="scale(1,-1) translate(0,-256)" /></svg>