<?xml version="1.0" encoding="utf-8" ?>
<svg baseProfile="full" height="256" version="1.1" width="256" xmlns="http://www.w3.org/2000/svg" xmlns:ev="http://www.w3.org/2001/xml-events" xmlns:xlink="http://www.w3.org/1999/xlink"><defs /><path d="M975 861Q975 891 995.5 913.0Q1016 935 1047 935Q1077 935 1097.5 912.5Q1118 890 1118 861V720Q1118 690 1097.5 668.5Q1077 647 1047 647Q1017 647 996.0 668.5Q975 690 975 720ZM1693 861Q1693 891 1713.5 913.0Q1734 935 1765 935Q1796 935 1816.5 913.0Q1837 891 1837 861V720Q1837 690 1816.0 668.5Q1795 647 1765 647Q1735 647 1714.0 668.5Q1693 690 1693 720Z" style="fill:#402a32;stroke:none" transform="scale(1,-1) translate(0,-256)" /></svg>