<?xml version="1.0" encoding="utf-8" ?>
<svg baseProfile="full" height="256" version="1.1" width="256" xmlns="http://www.w3.org/2000/svg" xmlns:ev="http://www.w3.org/2001/xml-events" xmlns:xlink="http://www.w3.org/1999/xlink"><defs /><path d="M2340 1653Q2340 1635 2333 1621L2187 1330Q2200 1333 2221.0 1339.0Q2242 1345 2264.5 1351.0Q2287 1357 2307.5 1361.5Q2328 1366 2340 1366Q2369 1366 2390.5 1344.5Q2412 1323 2412 1293Q2412 1269 2396.5 1249.5Q2381 1230 2358 1224L2070 1152Q2060 1150 2053 1150Q2024 1150 2002.5 1171.0Q1981 1192 1981 1221Q1981 1238 1989 1254L2134 1546Q2121 1543 2099.5 1537.0Q2078 1531 2055.5 1525.0Q2033 1519 2012.5 1514.5Q1992 1510 1980 1510Q1951 1510 1930.0 1531.0Q1909 1552 1909 1581Q1909 1607 1924.0 1626.0Q1939 1645 1964 1651L2251 1723Q2256 1724 2259.5 1724.5Q2263 1725 2268 1725Q2298 1725 2319.0 1704.0Q2340 1683 2340 1653ZM1622 1402Q1622 1417 1632.5 1427.5Q1643 1438 1658 1438H1873Q1888 1438 1898.5 1427.0Q1909 1416 1909 1401Q1909 1388 1902 1380L1729 1150H1873Q1888 1150 1898.5 1139.5Q1909 1129 1909 1114Q1909 1099 1898.5 1088.5Q1888 1078 1873 1078H1658Q1644 1078 1633.0 1088.0Q1622 1098 1622 1113Q1622 1119 1623.5 1125.0Q1625 1131 1629 1136L1801 1366H1658Q1643 1366 1632.5 1376.5Q1622 1387 1622 1402ZM1298 1294Q1284 1294 1273.0 1283.5Q1262 1273 1262 1258Q1262 1247 1269.0 1237.5Q1276 1228 1287 1224L1426 1177L1244 1074Q1226 1063 1226 1041Q1226 1030 1233.5 1020.5Q1241 1011 1251 1008Q1258 1005 1276.5 999.0Q1295 993 1318.5 984.5Q1342 976 1368.0 967.0Q1394 958 1416.5 951.0Q1439 944 1455.5 939.0Q1472 934 1477 934Q1492 934 1503.0 944.5Q1514 955 1514 970Q1514 981 1507.0 991.0Q1500 1001 1489 1005L1350 1051L1532 1155Q1541 1160 1545.5 1169.0Q1550 1178 1550 1188Q1550 1199 1543.0 1207.5Q1536 1216 1525 1220Q1514 1224 1479.5 1236.0Q1445 1248 1407.0 1261.0Q1369 1274 1337.0 1284.0Q1305 1294 1298 1294Z" style="fill:#00a6ed;stroke:none" transform="scale(1,-1) translate(0,-256)" /></svg>