<?xml version="1.0" encoding="utf-8" ?>
<svg baseProfile="full" height="256" version="1.1" width="256" xmlns="http://www.w3.org/2000/svg" xmlns:ev="http://www.w3.org/2001/xml-events" xmlns:xlink="http://www.w3.org/1999/xlink"><defs /><path d="M759 719Q775 719 787.0 713.5Q799 708 810 698Q825 684 845.5 674.5Q866 665 888.0 659.0Q910 653 932.5 650.0Q955 647 975 647Q994 647 1016.5 650.0Q1039 653 1061.5 659.0Q1084 665 1104.5 674.5Q1125 684 1140 698Q1151 708 1163.0 713.5Q1175 719 1190 719Q1220 719 1241.0 697.5Q1262 676 1262 647Q1262 619 1241 596Q1218 572 1185.5 554.5Q1153 537 1116.5 525.5Q1080 514 1043.0 508.5Q1006 503 975 503Q943 503 906.0 508.5Q869 514 832.5 525.5Q796 537 763.0 554.5Q730 572 708 596Q687 619 687 647Q687 677 708.0 698.0Q729 719 759 719ZM1621 719Q1637 719 1649.0 713.5Q1661 708 1672 698Q1687 684 1707.5 674.5Q1728 665 1750.5 659.0Q1773 653 1795.5 650.0Q1818 647 1837 647Q1856 647 1879.0 650.0Q1902 653 1924.0 659.0Q1946 665 1966.5 674.5Q1987 684 2002 698Q2013 708 2025.0 713.5Q2037 719 2053 719Q2083 719 2104.0 698.0Q2125 677 2125 647Q2125 619 2104 596Q2081 572 2048.5 554.5Q2016 537 1979.5 525.5Q1943 514 1905.5 508.5Q1868 503 1837 503Q1806 503 1769.0 508.5Q1732 514 1695.5 525.5Q1659 537 1626.0 554.5Q1593 572 1571 596Q1550 619 1550 647Q1550 676 1571.0 697.5Q1592 719 1621 719Z" style="fill:#402a32;stroke:none" transform="scale(1,-1) translate(0,-256)" /></svg>