<?xml version="1.0" encoding="utf-8" ?>
<svg baseProfile="full" height="256" version="1.1" width="256" xmlns="http://www.w3.org/2000/svg" xmlns:ev="http://www.w3.org/2001/xml-events" xmlns:xlink="http://www.w3.org/1999/xlink"><defs /><path d="M400 961Q400 1030 426.0 1090.5Q452 1151 497.0 1196.5Q542 1242 602.5 1268.0Q663 1294 732 1294H2201Q2412 1294 2412 1085V571Q2412 499 2377.0 465.5Q2342 432 2271 432H2141Q2123 432 2118 413Q2109 379 2101.0 347.5Q2093 316 2078 284Q2048 219 2001.0 166.5Q1954 114 1896.0 77.5Q1838 41 1771.0 21.0Q1704 1 1632 1Q1601 1 1572.0 -11.0Q1543 -23 1521 -45L1343 -223Q1313 -253 1273.0 -269.5Q1233 -286 1190 -286Q1146 -286 1106.5 -269.0Q1067 -252 1038.0 -223.0Q1009 -194 992.0 -155.0Q975 -116 975 -71Q975 -34 987 1H985Q995 38 1014.0 66.0Q1033 94 1056.0 117.0Q1079 140 1105.0 160.5Q1131 181 1155.5 202.0Q1180 223 1202.0 247.0Q1224 271 1240 302H1239Q1256 324 1283.5 362.0Q1311 400 1337.5 442.0Q1364 484 1383.5 524.0Q1403 564 1403 591Q1403 614 1386.5 630.0Q1370 646 1347 646H985Q951 712 903.5 760.0Q856 808 783 828Q772 831 757.0 834.5Q742 838 730 838Q711 838 711 819Q711 813 716 806Q735 783 755.0 757.5Q775 732 791.0 704.5Q807 677 818.5 647.5Q830 618 833 587Q832 583 832.0 575.5Q832 568 832 564Q832 551 833.5 537.0Q835 523 840.5 510.5Q846 498 855.0 488.5Q864 479 879 475Q902 469 926.5 466.5Q951 464 977.0 462.0Q1003 460 1029.5 456.5Q1056 453 1082 445Q1111 436 1133.5 421.5Q1156 407 1174.0 387.5Q1192 368 1206.5 344.5Q1221 321 1233 294Q1199 255 1154.0 224.5Q1109 194 1058.0 173.0Q1007 152 953.5 141.0Q900 130 849 130Q793 130 734.0 143.5Q675 157 618.0 181.0Q561 205 509.5 238.0Q458 271 418 310V285Q400 343 400 405V961Z" style="fill:#ffc83d;stroke:none" transform="scale(1,-1) translate(0,-256)" /></svg>