<?xml version="1.0" encoding="utf-8" ?>
<svg baseProfile="full" height="256" version="1.1" width="256" xmlns="http://www.w3.org/2000/svg" xmlns:ev="http://www.w3.org/2001/xml-events" xmlns:xlink="http://www.w3.org/1999/xlink"><defs /><path d="M1478 72H1017Q995 38 985 1H804Q748 1 695.5 15.5Q643 30 597.0 57.5Q551 85 513.0 124.0Q475 163 449 212Q447 216 441.5 226.5Q436 237 431.0 249.0Q426 261 422.0 271.5Q418 282 418 285V310Q443 284 475.5 261.0Q508 238 543.5 218.0Q579 198 616.0 182.0Q653 166 687 156V863H1478Z" style="fill:#d67d00;stroke:none" transform="scale(1,-1) translate(0,-256)" /></svg>