<?xml version="1.0" encoding="utf-8" ?>
<svg baseProfile="full" height="256" version="1.1" width="256" xmlns="http://www.w3.org/2000/svg" xmlns:ev="http://www.w3.org/2001/xml-events" xmlns:xlink="http://www.w3.org/1999/xlink"><defs /><path d="M2412 659Q2412 560 2373.5 473.5Q2335 387 2269.0 322.5Q2203 258 2115.0 221.0Q2027 184 1929 184Q1826 184 1743.0 221.0Q1660 258 1584 326Q1578 332 1570 332Q1562 332 1556.5 326.5Q1551 321 1551 313V223Q1551 165 1573.0 115.0Q1595 65 1632.5 28.0Q1670 -9 1720.5 -30.5Q1771 -52 1828 -54Q1853 -55 1875.5 -63.0Q1898 -71 1915.5 -86.0Q1933 -101 1943.0 -122.0Q1953 -143 1953 -170Q1953 -195 1943.5 -216.5Q1934 -238 1918.0 -253.5Q1902 -269 1880.5 -278.0Q1859 -287 1834 -287H976Q951 -287 929.0 -278.0Q907 -269 891.0 -253.0Q875 -237 866.0 -215.5Q857 -194 857 -169Q857 -143 867.5 -122.5Q878 -102 895.5 -87.0Q913 -72 935.5 -63.5Q958 -55 982 -54Q1039 -52 1089.5 -30.5Q1140 -9 1177.5 28.0Q1215 65 1237.0 114.5Q1259 164 1259 223V313Q1259 321 1253.5 326.5Q1248 332 1240 332Q1232 332 1226 326Q1150 259 1069.5 222.5Q989 186 886 186Q787 186 698.5 222.5Q610 259 544.0 323.0Q478 387 439.0 473.5Q400 560 400 660Q400 760 438.5 846.5Q477 933 543.0 997.0Q609 1061 696.5 1098.0Q784 1135 883 1135Q900 1135 913.5 1146.5Q927 1158 927 1177Q927 1195 924.5 1213.5Q922 1232 922 1251Q922 1317 939.5 1378.0Q957 1439 989.0 1491.5Q1021 1544 1065.5 1587.0Q1110 1630 1163.5 1661.0Q1217 1692 1278.5 1708.5Q1340 1725 1406 1725Q1505 1725 1593.0 1688.0Q1681 1651 1747.0 1586.5Q1813 1522 1851.5 1435.5Q1890 1349 1890 1249Q1890 1230 1887.0 1212.0Q1884 1194 1884 1176Q1884 1157 1897.5 1145.5Q1911 1134 1929 1134Q2028 1134 2115.5 1097.0Q2203 1060 2269.0 996.0Q2335 932 2373.5 845.5Q2412 759 2412 659Z" style="fill:#635994;stroke:none" transform="scale(1,-1) translate(0,-256)" /></svg>