<?xml version="1.0" encoding="utf-8" ?>
<svg baseProfile="full" height="256" version="1.1" width="256" xmlns="http://www.w3.org/2000/svg" xmlns:ev="http://www.w3.org/2001/xml-events" xmlns:xlink="http://www.w3.org/1999/xlink"><defs /><path d="M472 647Q510 733 546.5 818.0Q583 903 621 988Q667 1090 742.5 1173.5Q818 1257 912.5 1315.5Q1007 1374 1115.0 1406.0Q1223 1438 1334 1438H1478Q1589 1438 1697.0 1406.0Q1805 1374 1899.5 1315.5Q1994 1257 2069.5 1173.5Q2145 1090 2191 988Q2229 903 2265.5 818.0Q2302 733 2340 647V503Q2309 441 2280.5 379.0Q2252 317 2228 252Q2211 207 2192.5 165.5Q2174 124 2148 83Q2094 -4 2020.5 -72.5Q1947 -141 1860.5 -188.5Q1774 -236 1677.0 -261.5Q1580 -287 1478 -287H1334Q1233 -287 1136.5 -262.0Q1040 -237 954.5 -190.0Q869 -143 796.0 -75.5Q723 -8 668 77Q642 117 623.0 157.5Q604 198 587 243Q561 310 532.5 374.5Q504 439 472 503Z" style="fill:#7d4533;stroke:none" transform="scale(1,-1) translate(0,-256)" /></svg>