<?xml version="1.0" encoding="utf-8" ?>
<svg baseProfile="full" height="256" version="1.1" width="256" xmlns="http://www.w3.org/2000/svg" xmlns:ev="http://www.w3.org/2001/xml-events" xmlns:xlink="http://www.w3.org/1999/xlink"><defs /><path d="M759 866Q759 933 784.5 991.5Q810 1050 853.5 1093.5Q897 1137 955.5 1162.5Q1014 1188 1081 1188H1731Q1801 1188 1860.0 1162.0Q1919 1136 1962.0 1091.0Q2005 1046 2029.0 985.5Q2053 925 2053 856Q2053 772 2013.0 700.0Q1973 628 1903 583Q1909 544 1909 503Q1909 399 1869.5 307.0Q1830 215 1761.5 147.0Q1693 79 1601.5 39.5Q1510 0 1406 0Q1302 0 1210.0 39.5Q1118 79 1050.0 147.0Q982 215 942.5 307.0Q903 399 903 503Q903 544 909 583Q834 631 796.5 704.5Q759 778 759 866ZM543 647Q543 738 563.5 825.5Q584 913 623 994Q558 977 503.5 940.0Q449 903 410.0 852.5Q371 802 349.5 740.0Q328 678 328 611Q328 549 347.0 491.0Q366 433 400.0 384.0Q434 335 482.0 297.5Q530 260 589 239Q566 302 554.5 368.5Q543 435 543 503ZM2268 503Q2268 435 2257.0 368.5Q2246 302 2223 239Q2281 260 2329.5 297.5Q2378 335 2412.0 384.0Q2446 433 2465.0 491.0Q2484 549 2484 611Q2484 678 2462.5 740.0Q2441 802 2402.0 852.5Q2363 903 2308.5 940.0Q2254 977 2189 994Q2228 913 2248.0 825.5Q2268 738 2268 647Z" style="fill:#e39d89;stroke:none" transform="scale(1,-1) translate(0,-256)" /></svg>