<?xml version="1.0" encoding="utf-8" ?>
<svg baseProfile="full" height="256" version="1.1" width="256" xmlns="http://www.w3.org/2000/svg" xmlns:ev="http://www.w3.org/2001/xml-events" xmlns:xlink="http://www.w3.org/1999/xlink"><defs /><path d="M1190 360Q1190 405 1207.0 444.0Q1224 483 1253.5 512.0Q1283 541 1322.0 558.0Q1361 575 1406 575Q1451 575 1490.0 558.0Q1529 541 1558.5 512.0Q1588 483 1605.0 444.0Q1622 405 1622 360V144Q1622 99 1605.0 60.0Q1588 21 1558.5 -8.5Q1529 -38 1490.0 -55.0Q1451 -72 1406 -72Q1361 -72 1322.0 -55.0Q1283 -38 1253.5 -8.5Q1224 21 1207.0 60.0Q1190 99 1190 144Z" style="fill:#bb1d80;stroke:none" transform="scale(1,-1) translate(0,-256)" /></svg>