<?xml version="1.0" encoding="utf-8" ?>
<svg baseProfile="full" height="256" version="1.1" width="256" xmlns="http://www.w3.org/2000/svg" xmlns:ev="http://www.w3.org/2001/xml-events" xmlns:xlink="http://www.w3.org/1999/xlink"><defs /><path d="M687 1114Q687 1129 697.5 1139.5Q708 1150 723 1150Q771 1150 816.5 1163.0Q862 1176 899 1208Q931 1236 947.0 1268.0Q963 1300 976 1339Q980 1351 989.0 1358.5Q998 1366 1011 1366Q1025 1366 1036.0 1355.0Q1047 1344 1047 1330Q1047 1326 1045 1320Q1013 1201 929.5 1139.5Q846 1078 723 1078Q708 1078 697.5 1088.5Q687 1099 687 1114ZM2125 1114Q2125 1099 2114.5 1088.5Q2104 1078 2089 1078Q1966 1078 1882.5 1139.5Q1799 1201 1767 1320Q1765 1326 1765 1330Q1765 1344 1776.0 1355.0Q1787 1366 1801 1366Q1814 1366 1823.0 1358.5Q1832 1351 1836 1339Q1849 1300 1865.0 1268.0Q1881 1236 1913 1208Q1950 1176 1995.5 1163.0Q2041 1150 2089 1150Q2104 1150 2114.5 1139.5Q2125 1129 2125 1114ZM1406 216Q1363 216 1318.0 205.0Q1273 194 1241 165Q1230 155 1218.0 149.5Q1206 144 1190 144Q1161 144 1139.5 165.5Q1118 187 1118 216Q1118 245 1140 267Q1164 292 1196.0 309.5Q1228 327 1263.5 338.5Q1299 350 1335.5 355.0Q1372 360 1406 360Q1439 360 1476.0 354.5Q1513 349 1548.5 338.0Q1584 327 1616.0 309.5Q1648 292 1672 267Q1693 244 1693 216Q1693 187 1672.0 165.5Q1651 144 1621 144Q1606 144 1594.0 149.5Q1582 155 1571 165Q1539 194 1493.5 205.0Q1448 216 1406 216ZM903 935Q919 935 935 927L1222 783Q1241 774 1251.5 757.0Q1262 740 1262 719Q1262 698 1251.5 681.0Q1241 664 1222 655L935 511Q919 503 903 503Q873 503 852.0 524.5Q831 546 831 576Q831 620 871 639L1030 719L871 798Q853 807 842.0 824.5Q831 842 831 862Q831 892 852.0 913.5Q873 935 903 935ZM1909 935Q1939 935 1960.0 913.5Q1981 892 1981 862Q1981 842 1970.0 824.5Q1959 807 1941 798L1782 719L1941 639Q1981 620 1981 576Q1981 546 1960.0 524.5Q1939 503 1909 503Q1893 503 1877 511L1589 655Q1571 664 1560.5 681.5Q1550 699 1550 719Q1550 739 1560.5 756.5Q1571 774 1589 783L1877 927Q1893 935 1909 935Z" style="fill:#402a32;stroke:none" transform="scale(1,-1) translate(0,-256)" /></svg>