<?xml version="1.0" encoding="utf-8" ?>
<svg baseProfile="full" height="256" version="1.1" width="256" xmlns="http://www.w3.org/2000/svg" xmlns:ev="http://www.w3.org/2001/xml-events" xmlns:xlink="http://www.w3.org/1999/xlink"><defs /><path d="M539 224Q539 195 519.0 175.0Q499 155 470 155Q441 155 421.0 175.0Q401 195 401 224Q401 253 421.0 273.0Q441 293 470 293Q499 293 519.0 273.0Q539 253 539 224ZM867 234Q867 211 851.5 195.5Q836 180 813 180Q790 180 774.5 195.5Q759 211 759 234Q759 257 774.5 272.5Q790 288 813 288Q836 288 851.5 272.5Q867 257 867 234Z" style="fill:#1c1c1c;stroke:none" transform="scale(1,-1) translate(0,-256)" /></svg>