<?xml version="1.0" encoding="utf-8" ?>
<svg baseProfile="full" height="256" version="1.1" width="256" xmlns="http://www.w3.org/2000/svg" xmlns:ev="http://www.w3.org/2001/xml-events" xmlns:xlink="http://www.w3.org/1999/xlink"><defs /><path d="M1696 1154Q1823 1154 1935.5 1105.5Q2048 1057 2131.5 974.0Q2215 891 2263.5 778.5Q2312 666 2312 539Q2312 515 2310.5 496.0Q2309 477 2306.5 459.0Q2304 441 2301.5 422.0Q2299 403 2297 379L2267 60Q2266 44 2266.0 31.0Q2266 18 2266.0 6.0Q2266 -6 2266.5 -19.0Q2267 -32 2267 -48V-263Q2267 -273 2260.0 -280.0Q2253 -287 2243 -287H2076Q2066 -287 2059.0 -280.0Q2052 -273 2052 -263V-91Q2052 -83 2046.0 -77.0Q2040 -71 2032 -71H1192L1101 -273Q1094 -287 1079 -287H892Q882 -287 875.0 -280.5Q868 -274 868 -264Q868 -261 873.5 -247.0Q879 -233 887.5 -213.5Q896 -194 906.5 -171.5Q917 -149 926.5 -128.5Q936 -108 943.0 -92.5Q950 -77 953 -71H748Q698 -71 650.5 -62.0Q603 -53 561.0 -32.5Q519 -12 485.0 20.5Q451 53 428 100Q415 128 407.5 158.0Q400 188 400 219Q400 239 408.0 257.0Q416 275 435 284L628 378Q653 390 665.5 408.5Q678 427 682.5 449.0Q687 471 686.5 495.0Q686 519 686 542Q686 606 718.5 662.0Q751 718 807 749L1385 1070Q1459 1112 1535.0 1133.0Q1611 1154 1696 1154Z" style="fill:#f3ad61;stroke:none" transform="scale(1,-1) translate(0,-256)" /></svg>