<?xml version="1.0" encoding="utf-8" ?>
<svg baseProfile="full" height="256" version="1.1" width="256" xmlns="http://www.w3.org/2000/svg" xmlns:ev="http://www.w3.org/2001/xml-events" xmlns:xlink="http://www.w3.org/1999/xlink"><defs /><path d="M1264 49H1479Q1481 40 1486.5 15.0Q1492 -10 1499.5 -43.5Q1507 -77 1515.0 -114.5Q1523 -152 1530.0 -184.0Q1537 -216 1541.5 -238.5Q1546 -261 1546 -265Q1546 -274 1539.5 -280.5Q1533 -287 1524 -287H1354Q1346 -287 1340.0 -282.5Q1334 -278 1332 -270ZM1977 49H1761Q1759 40 1753.5 15.0Q1748 -10 1740.5 -43.5Q1733 -77 1725.0 -114.0Q1717 -151 1710.5 -183.0Q1704 -215 1699.5 -237.5Q1695 -260 1695 -264Q1695 -273 1701.5 -280.0Q1708 -287 1717 -287H1887Q1906 -287 1909 -269Z" style="fill:#d3883e;stroke:none" transform="scale(1,-1) translate(0,-256)" /></svg>