<?xml version="1.0" encoding="utf-8" ?>
<svg baseProfile="full" height="256" version="1.1" width="256" xmlns="http://www.w3.org/2000/svg" xmlns:ev="http://www.w3.org/2001/xml-events" xmlns:xlink="http://www.w3.org/1999/xlink"><defs /><path d="M2410 456Q2410 439 2403.0 421.5Q2396 404 2387.0 386.0Q2378 368 2371.0 350.0Q2364 332 2364 313Q2364 296 2370.0 281.0Q2376 266 2382.5 252.5Q2389 239 2395.0 226.0Q2401 213 2401 199Q2401 173 2378 156L2268 72H1693Q1612 72 1536.5 94.0Q1461 116 1395.5 157.0Q1330 198 1278.5 257.0Q1227 316 1194 391Q1220 394 1242.0 408.5Q1264 423 1280.5 444.5Q1297 466 1306.0 491.5Q1315 517 1315 541Q1315 572 1303.0 600.0Q1291 628 1270.0 649.0Q1249 670 1221.5 682.0Q1194 694 1163 694Q1106 694 1068.0 662.0Q1030 630 1014 578Q1009 561 995.5 551.0Q982 541 965 541H686V714Q686 738 703.5 754.5Q721 771 744 771Q790 771 815.5 774.5Q841 778 857.0 790.0Q873 802 885.0 826.0Q897 850 916 891Q924 909 938.5 915.5Q953 922 970.5 923.5Q988 925 1007.5 924.0Q1027 923 1046.0 926.5Q1065 930 1082.5 941.0Q1100 952 1113 977L1149 1046Q1167 1078 1200 1078H1328Q1364 1078 1389.5 1101.0Q1415 1124 1436.5 1152.0Q1458 1180 1479.5 1203.0Q1501 1226 1529 1226Q1548 1226 1568.0 1221.0Q1588 1216 1608.0 1210.5Q1628 1205 1648.0 1200.0Q1668 1195 1688 1195Q1711 1195 1735.5 1205.5Q1760 1216 1784.0 1229.0Q1808 1242 1830.5 1252.5Q1853 1263 1873 1263Q1901 1263 1922.0 1238.5Q1943 1214 1964.0 1184.0Q1985 1154 2011.0 1129.5Q2037 1105 2075 1105H2209Q2232 1105 2249.0 1088.0Q2266 1071 2266 1048V928Q2266 905 2277.0 885.0Q2288 865 2307 851L2382 797Q2405 780 2405 751Q2405 733 2396.5 712.5Q2388 692 2378.0 671.0Q2368 650 2359.5 628.5Q2351 607 2351 586Q2351 562 2360.0 545.5Q2369 529 2380.5 515.0Q2392 501 2401.0 487.5Q2410 474 2410 456Z" style="fill:#6d4534;stroke:none" transform="scale(1,-1) translate(0,-256)" /></svg>