<?xml version="1.0" encoding="utf-8" ?>
<svg baseProfile="full" height="256" version="1.1" width="256" xmlns="http://www.w3.org/2000/svg" xmlns:ev="http://www.w3.org/2001/xml-events" xmlns:xlink="http://www.w3.org/1999/xlink"><defs /><path d="M1658 898Q1643 898 1632.5 908.0Q1622 918 1622 933V1027Q1622 1042 1632.5 1052.5Q1643 1063 1658 1063Q1673 1063 1683.0 1052.5Q1693 1042 1693 1027V933Q1693 919 1682.5 908.5Q1672 898 1658 898ZM2041 611Q2041 626 2051.5 636.5Q2062 647 2077 647H2171Q2186 647 2196.5 636.5Q2207 626 2207 611Q2207 596 2196.5 585.5Q2186 575 2171 575H2077Q2063 575 2052.0 586.0Q2041 597 2041 611ZM1939 791Q1954 791 1965 802L2031 867Q2042 878 2042 893Q2042 907 2031.0 918.0Q2020 929 2006 929Q1991 929 1980 918L1914 853Q1903 842 1903 827Q1903 813 1914.0 802.0Q1925 791 1939 791Z" style="fill:#f3ad61;stroke:none" transform="scale(1,-1) translate(0,-256)" /></svg>