<?xml version="1.0" encoding="utf-8" ?>
<svg baseProfile="full" height="256" version="1.1" width="256" xmlns="http://www.w3.org/2000/svg" xmlns:ev="http://www.w3.org/2001/xml-events" xmlns:xlink="http://www.w3.org/1999/xlink"><defs /><path d="M1869 502Q1869 389 1822.0 284.5Q1775 180 1696.0 90.0Q1617 0 1514.0 -73.0Q1411 -146 1299.0 -196.0Q1187 -246 1073.0 -269.5Q959 -293 859.0 -284.5Q759 -276 680.0 -232.5Q601 -189 559 -104Q517 -19 518.5 63.0Q520 145 555.0 215.5Q590 286 651.5 341.0Q713 396 791 427Q926 480 1028.0 579.5Q1130 679 1189 814L1869 502Z" style="fill:#fcd53f;stroke:none" transform="scale(1,-1) translate(0,-256)" /></svg>