<?xml version="1.0" encoding="utf-8" ?>
<svg baseProfile="full" height="256" version="1.1" width="256" xmlns="http://www.w3.org/2000/svg" xmlns:ev="http://www.w3.org/2001/xml-events" xmlns:xlink="http://www.w3.org/1999/xlink"><defs /><path d="M400 -31Q400 9 427.5 36.5Q455 64 495 64H566Q585 64 602.5 56.5Q620 49 633.0 36.5Q646 24 653.5 6.5Q661 -11 661 -31Q661 -51 653.5 -68.0Q646 -85 633.0 -98.0Q620 -111 602.5 -118.5Q585 -126 566 -126H495Q475 -126 457.5 -118.5Q440 -111 427.5 -98.0Q415 -85 407.5 -68.0Q400 -51 400 -31Z" style="fill:#f3ad61;stroke:none" transform="scale(1,-1) translate(0,-256)" /></svg>