<?xml version="1.0" encoding="utf-8" ?>
<svg baseProfile="full" height="256" version="1.1" width="256" xmlns="http://www.w3.org/2000/svg" xmlns:ev="http://www.w3.org/2001/xml-events" xmlns:xlink="http://www.w3.org/1999/xlink"><defs /><path d="M1567 684Q1588 677 1598.5 657.5Q1609 638 1602 617Q1566 505 1509.5 413.5Q1453 322 1380.5 249.0Q1308 176 1223.5 121.5Q1139 67 1047.5 29.5Q956 -8 861.0 -28.5Q766 -49 673 -54Q651 -55 634.5 -40.5Q618 -26 617 -3Q615 20 630.0 36.0Q645 52 668 54Q795 60 923.5 99.0Q1052 138 1164.0 211.5Q1276 285 1364.0 394.0Q1452 503 1499 649Q1506 671 1526.0 681.0Q1546 691 1567 684Z" style="fill:#f9c23c;stroke:none" transform="scale(1,-1) translate(0,-256)" /></svg>