<?xml version="1.0" encoding="utf-8" ?>
<svg baseProfile="full" height="256" version="1.1" width="256" xmlns="http://www.w3.org/2000/svg" xmlns:ev="http://www.w3.org/2001/xml-events" xmlns:xlink="http://www.w3.org/1999/xlink"><defs /><path d="M1456 1723Q1522 1733 1581.5 1700.5Q1641 1668 1692.0 1605.5Q1743 1543 1784.0 1456.0Q1825 1369 1854.5 1269.0Q1884 1169 1901.5 1062.5Q1919 956 1921.5 854.5Q1924 753 1911.5 662.0Q1899 571 1869 502Q1829 410 1774.5 341.0Q1720 272 1654.0 218.5Q1588 165 1512.0 124.0Q1436 83 1353.0 48.0Q1270 13 1181.5 -19.5Q1093 -52 1002 -88Q943 -111 879 -111Q844 -111 815.0 -119.0Q786 -127 760.5 -135.5Q735 -144 714.0 -150.5Q693 -157 675.0 -154.0Q657 -151 641.5 -135.0Q626 -119 613 -84Q587 -16 590.0 54.0Q593 124 620.0 186.0Q647 248 696.0 297.0Q745 346 811 372Q883 400 939.5 441.5Q996 483 1041.0 535.5Q1086 588 1120.5 652.0Q1155 716 1184 790Q1204 840 1218.0 881.5Q1232 923 1241.0 960.5Q1250 998 1255.5 1034.0Q1261 1070 1264.0 1109.0Q1267 1148 1267.5 1192.5Q1268 1237 1268 1292Q1268 1336 1268.0 1383.0Q1268 1430 1272.5 1475.5Q1277 1521 1287.0 1562.5Q1297 1604 1318.0 1637.5Q1339 1671 1372.5 1693.5Q1406 1716 1456 1723Z" style="fill:#feefc2;stroke:none" transform="scale(1,-1) translate(0,-256)" /></svg>