<?xml version="1.0" encoding="utf-8" ?>
<svg baseProfile="full" height="256" version="1.1" width="256" xmlns="http://www.w3.org/2000/svg" xmlns:ev="http://www.w3.org/2001/xml-events" xmlns:xlink="http://www.w3.org/1999/xlink"><defs /><path d="M1678 575Q1659 575 1645.5 585.5Q1632 596 1626.0 611.0Q1620 626 1622.5 643.5Q1625 661 1638 675L1795 839Q1841 887 1898.5 911.0Q1956 935 2016.5 935.0Q2077 935 2135.0 911.0Q2193 887 2239 839L2396 675Q2409 661 2411.5 643.5Q2414 626 2408.0 611.0Q2402 596 2388.5 585.5Q2375 575 2356 575ZM600 575Q581 575 567.5 585.5Q554 596 548.0 611.0Q542 626 544.5 643.5Q547 661 560 675L717 839Q763 887 820.5 911.0Q878 935 938.5 935.0Q999 935 1057.0 911.0Q1115 887 1161 839L1318 675Q1331 661 1333.5 643.5Q1336 626 1330.0 611.0Q1324 596 1310.5 585.5Q1297 575 1278 575Z" style="fill:#f9c23c;stroke:none" transform="scale(1,-1) translate(0,-256)" /></svg>