<?xml version="1.0" encoding="utf-8" ?>
<svg baseProfile="full" height="256" version="1.1" width="256" xmlns="http://www.w3.org/2000/svg" xmlns:ev="http://www.w3.org/2001/xml-events" xmlns:xlink="http://www.w3.org/1999/xlink"><defs /><path d="M993 1006Q1030 1006 1056.5 980.0Q1083 954 1083 917V737Q1083 700 1056.5 673.5Q1030 647 993 647Q955 647 929.0 673.0Q903 699 903 737V917Q903 954 929.5 980.0Q956 1006 993 1006ZM1819 1006Q1856 1006 1882.5 980.0Q1909 954 1909 917V737Q1909 699 1883.0 673.0Q1857 647 1819 647Q1782 647 1755.5 673.5Q1729 700 1729 737V917Q1729 954 1755.5 980.0Q1782 1006 1819 1006Z" style="fill:#00a6ed;stroke:none" transform="scale(1,-1) translate(0,-256)" /></svg>