<?xml version="1.0" encoding="utf-8" ?>
<svg baseProfile="full" height="256" version="1.1" width="256" xmlns="http://www.w3.org/2000/svg" xmlns:ev="http://www.w3.org/2001/xml-events" xmlns:xlink="http://www.w3.org/1999/xlink"><defs /><path d="M921 539Q858 539 802.0 563.0Q746 587 704.5 628.5Q663 670 639.0 726.0Q615 782 615 845Q615 908 639.0 963.5Q663 1019 705.0 1060.5Q747 1102 802.5 1126.0Q858 1150 921 1150H1891Q1954 1150 2009.5 1126.0Q2065 1102 2107.0 1060.5Q2149 1019 2173.0 963.5Q2197 908 2197 845Q2197 782 2173.0 726.5Q2149 671 2107.0 629.0Q2065 587 2009.5 563.0Q1954 539 1891 539ZM1224 0Q1202 0 1182.5 8.5Q1163 17 1149.0 32.0Q1135 47 1126.5 66.5Q1118 86 1118 108Q1118 130 1126.5 149.5Q1135 169 1149.0 184.0Q1163 199 1182.5 207.5Q1202 216 1224 216H1588Q1610 216 1629.0 207.5Q1648 199 1662.5 184.0Q1677 169 1685.0 149.5Q1693 130 1693 108Q1693 86 1685.0 66.5Q1677 47 1662.5 32.0Q1648 17 1629.0 8.5Q1610 0 1588 0Z" style="fill:#212121;stroke:none" transform="scale(1,-1) translate(0,-256)" /></svg>