<?xml version="1.0" encoding="utf-8" ?>
<svg baseProfile="full" height="256" version="1.1" width="256" xmlns="http://www.w3.org/2000/svg" xmlns:ev="http://www.w3.org/2001/xml-events" xmlns:xlink="http://www.w3.org/1999/xlink"><defs /><path d="M1841 -287H971Q882 -287 804.5 -253.5Q727 -220 668.5 -162.0Q610 -104 576.5 -26.5Q543 51 543 140V1004Q543 1094 577.0 1173.0Q611 1252 670.0 1311.0Q729 1370 808.0 1404.0Q887 1438 977 1438H1836Q1926 1438 2004.5 1404.0Q2083 1370 2141.5 1311.0Q2200 1252 2234.0 1173.0Q2268 1094 2268 1004V140Q2268 51 2234.5 -26.5Q2201 -104 2143.0 -162.0Q2085 -220 2007.0 -253.5Q1929 -287 1841 -287Z" style="fill:#cdc4d6;stroke:none" transform="scale(1,-1) translate(0,-256)" /></svg>