<?xml version="1.0" encoding="utf-8" ?>
<svg baseProfile="full" height="256" version="1.1" width="256" xmlns="http://www.w3.org/2000/svg" xmlns:ev="http://www.w3.org/2001/xml-events" xmlns:xlink="http://www.w3.org/1999/xlink"><defs /><path d="M755 180Q755 156 746.0 135.5Q737 115 721.5 99.5Q706 84 685.5 75.0Q665 66 641 66Q617 66 596.5 75.0Q576 84 561.0 99.5Q546 115 537.0 135.5Q528 156 528 180Q528 204 537.0 224.5Q546 245 561.0 260.0Q576 275 596.5 284.0Q617 293 641 293Q665 293 685.5 284.0Q706 275 721.5 260.0Q737 245 746.0 224.5Q755 204 755 180ZM2283 180Q2283 156 2274.0 135.5Q2265 115 2249.5 99.5Q2234 84 2213.5 75.0Q2193 66 2169 66Q2146 66 2125.5 75.0Q2105 84 2089.5 99.5Q2074 115 2065.0 136.0Q2056 157 2056 180Q2056 203 2065.0 223.5Q2074 244 2089.5 259.5Q2105 275 2125.5 284.0Q2146 293 2169 293Q2193 293 2213.5 284.0Q2234 275 2249.5 260.0Q2265 245 2274.0 224.5Q2283 204 2283 180Z" style="fill:#00a6ed;stroke:none" transform="scale(1,-1) translate(0,-256)" /></svg>