<?xml version="1.0" encoding="utf-8" ?>
<svg baseProfile="full" height="256" version="1.1" width="256" xmlns="http://www.w3.org/2000/svg" xmlns:ev="http://www.w3.org/2001/xml-events" xmlns:xlink="http://www.w3.org/1999/xlink"><defs /><path d="M1047 180Q1047 158 1038.5 138.5Q1030 119 1015.0 104.0Q1000 89 980.5 80.5Q961 72 939 72Q916 72 896.5 80.5Q877 89 862.5 103.5Q848 118 839.5 137.5Q831 157 831 180Q831 202 839.5 221.5Q848 241 863.0 256.0Q878 271 897.5 279.5Q917 288 939 288Q961 288 980.5 279.5Q1000 271 1015.0 256.0Q1030 241 1038.5 221.5Q1047 202 1047 180ZM1981 180Q1981 157 1972.5 137.5Q1964 118 1949.5 103.5Q1935 89 1915.0 80.5Q1895 72 1873 72Q1851 72 1831.5 80.5Q1812 89 1797.0 104.0Q1782 119 1773.5 138.5Q1765 158 1765 180Q1765 202 1773.5 221.5Q1782 241 1797.0 256.0Q1812 271 1831.5 279.5Q1851 288 1873 288Q1895 288 1914.5 279.5Q1934 271 1949.0 256.0Q1964 241 1972.5 221.5Q1981 202 1981 180Z" style="fill:#f8312f;stroke:none" transform="scale(1,-1) translate(0,-256)" /></svg>