<?xml version="1.0" encoding="utf-8" ?>
<svg baseProfile="full" height="256" version="1.1" width="256" xmlns="http://www.w3.org/2000/svg" xmlns:ev="http://www.w3.org/2001/xml-events" xmlns:xlink="http://www.w3.org/1999/xlink"><defs /><path d="M2411 928Q2411 908 2403.0 890.0Q2395 872 2381.5 858.5Q2368 845 2350.0 837.0Q2332 829 2312 829Q2310 829 2307.0 829.5Q2304 830 2302 830Q2312 810 2312 790Q2312 783 2310 773L2123 -159Q2112 -209 2073.0 -241.5Q2034 -274 1982 -274H828Q803 -274 779.5 -265.5Q756 -257 737.0 -241.5Q718 -226 705.0 -205.0Q692 -184 687 -159L500 773Q498 783 498 789Q498 810 509 830Q490 824 470.5 831.0Q451 838 435.5 852.5Q420 867 410.0 887.0Q400 907 400 928Q400 970 428.5 998.5Q457 1027 499 1027Q541 1027 569.5 998.5Q598 970 598 928Q598 899 582 873Q608 873 628 860L911 677Q921 670 933.0 667.0Q945 664 957 664Q977 664 994.5 673.0Q1012 682 1024 698L1338 1124Q1340 1127 1342.0 1129.5Q1344 1132 1346 1134Q1316 1151 1299.0 1179.5Q1282 1208 1282 1242Q1282 1267 1291.5 1290.0Q1301 1313 1318.0 1329.5Q1335 1346 1357.0 1356.0Q1379 1366 1405 1366Q1430 1366 1453.0 1356.0Q1476 1346 1492.5 1329.5Q1509 1313 1519.0 1290.0Q1529 1267 1529 1242Q1529 1208 1511.5 1179.5Q1494 1151 1465 1134Q1467 1132 1469.0 1129.5Q1471 1127 1473 1124L1787 698Q1799 682 1816.5 673.0Q1834 664 1854 664Q1866 664 1878.0 667.0Q1890 670 1900 677L2182 860Q2202 873 2229 873Q2221 885 2216.5 899.0Q2212 913 2212 928Q2212 970 2241.0 998.5Q2270 1027 2312 1027Q2332 1027 2350.0 1019.0Q2368 1011 2381.5 997.5Q2395 984 2403.0 966.0Q2411 948 2411 928Z" style="fill:#ffb02e;stroke:none" transform="scale(1,-1) translate(0,-256)" /></svg>