<?xml version="1.0" encoding="utf-8" ?>
<svg baseProfile="full" height="256" version="1.1" width="256" xmlns="http://www.w3.org/2000/svg" xmlns:ev="http://www.w3.org/2001/xml-events" xmlns:xlink="http://www.w3.org/1999/xlink"><defs /><path d="M1440 -207Q1370 -207 1307.0 -187.5Q1244 -168 1188.0 -134.0Q1132 -100 1083.5 -53.0Q1035 -6 996 49Q950 113 916.0 186.0Q882 259 860.0 336.5Q838 414 827.5 494.0Q817 574 817 652Q817 748 833.5 846.5Q850 945 883.5 1038.5Q917 1132 969.5 1216.0Q1022 1300 1094 1367L1139 1319Q1072 1257 1023.5 1178.5Q975 1100 944.0 1013.0Q913 926 898.0 833.5Q883 741 883 652Q883 579 894.5 499.5Q906 420 929.5 341.5Q953 263 989.0 189.0Q1025 115 1074.0 53.0Q1123 -9 1186.0 -55.0Q1249 -101 1326 -124Q1296 -79 1273.5 -19.0Q1251 41 1234.5 110.0Q1218 179 1207.0 252.5Q1196 326 1189.5 397.5Q1183 469 1180.0 534.5Q1177 600 1177 653Q1177 731 1181.5 819.5Q1186 908 1197.5 997.0Q1209 1086 1228.0 1171.5Q1247 1257 1276 1331L1330 1311Q1303 1240 1285.0 1156.5Q1267 1073 1256.0 986.0Q1245 899 1240.5 813.5Q1236 728 1236 653Q1236 582 1238.5 509.0Q1241 436 1248.5 362.5Q1256 289 1269.0 217.0Q1282 145 1303 77Q1310 55 1321.0 22.0Q1332 -11 1347.0 -44.0Q1362 -77 1381.5 -104.0Q1401 -131 1425 -141H1440H1456Q1480 -131 1499.5 -104.0Q1519 -77 1534.5 -44.0Q1550 -11 1561.0 22.0Q1572 55 1578 77Q1598 144 1611.0 216.5Q1624 289 1631.5 362.5Q1639 436 1642.0 509.5Q1645 583 1645 653Q1645 728 1640.5 813.5Q1636 899 1625.0 986.0Q1614 1073 1596.0 1156.5Q1578 1240 1551 1311L1605 1331Q1634 1257 1653.0 1171.5Q1672 1086 1683.5 997.0Q1695 908 1699.5 820.0Q1704 732 1704 653Q1704 601 1701.0 535.5Q1698 470 1691.5 398.0Q1685 326 1674.0 252.5Q1663 179 1646.5 110.0Q1630 41 1607.0 -19.5Q1584 -80 1555 -124Q1632 -101 1695.0 -54.5Q1758 -8 1807.0 54.0Q1856 116 1892.0 190.0Q1928 264 1951.0 342.5Q1974 421 1985.5 500.0Q1997 579 1997 652Q1997 741 1982.5 833.0Q1968 925 1937.0 1012.5Q1906 1100 1857.5 1178.5Q1809 1257 1742 1319L1787 1367Q1859 1300 1911.5 1216.0Q1964 1132 1997.5 1038.5Q2031 945 2047.5 846.5Q2064 748 2064 652Q2064 574 2053.5 494.0Q2043 414 2021.0 336.5Q1999 259 1965.0 186.0Q1931 113 1885 49Q1845 -6 1797.0 -52.5Q1749 -99 1692.5 -133.5Q1636 -168 1573.0 -187.5Q1510 -207 1440 -207Z" style="fill:#e19747;stroke:none" transform="scale(1,-1) translate(0,-256)" /></svg>