<?xml version="1.0" encoding="utf-8" ?>
<svg baseProfile="full" height="256" version="1.1" width="256" xmlns="http://www.w3.org/2000/svg" xmlns:ev="http://www.w3.org/2001/xml-events" xmlns:xlink="http://www.w3.org/1999/xlink"><defs /><path d="M957 1038Q957 1192 1039.0 1278.5Q1121 1365 1275 1365Q1293 1365 1316.0 1365.0Q1339 1365 1361.0 1360.5Q1383 1356 1401.0 1346.0Q1419 1336 1428 1317Q1434 1304 1439.0 1294.0Q1444 1284 1453 1273Q1475 1249 1508.5 1236.5Q1542 1224 1580.0 1218.5Q1618 1213 1656.0 1213.0Q1694 1213 1724 1213Q1753 1213 1777.0 1202.0Q1801 1191 1818.5 1172.0Q1836 1153 1845.5 1128.0Q1855 1103 1855 1075V1071Q1852 997 1848.0 924.0Q1844 851 1840 777Q1838 732 1836.0 688.0Q1834 644 1829 600Q1824 558 1805.5 513.0Q1787 468 1757.5 428.5Q1728 389 1691.0 358.0Q1654 327 1614 314Q1599 309 1573.0 306.0Q1547 303 1519.0 301.5Q1491 300 1464.5 299.5Q1438 299 1421 299Q1367 299 1311.0 301.0Q1255 303 1202 314Q1157 323 1119.0 353.0Q1081 383 1051.5 423.5Q1022 464 1003.5 510.5Q985 557 981 600Q974 665 971.5 730.5Q969 796 965 861Q963 906 960.0 949.5Q957 993 957 1038Z" style="fill:#37c9cd;stroke:none" transform="scale(1,-1) translate(0,-256)" /></svg>