<?xml version="1.0" encoding="utf-8" ?>
<svg baseProfile="full" height="256" version="1.1" width="256" xmlns="http://www.w3.org/2000/svg" xmlns:ev="http://www.w3.org/2001/xml-events" xmlns:xlink="http://www.w3.org/1999/xlink"><defs /><path d="M1024 203V9Q1024 -5 1026.0 -18.0Q1028 -31 1033.5 -41.5Q1039 -52 1049.5 -58.5Q1060 -65 1077 -65Q1100 -65 1124.0 -59.0Q1148 -53 1174 -53Q1193 -53 1212.0 -56.5Q1231 -60 1246.0 -69.0Q1261 -78 1270.5 -93.0Q1280 -108 1280 -131Q1280 -156 1266.5 -168.5Q1253 -181 1233.5 -185.5Q1214 -190 1192.0 -190.0Q1170 -190 1153 -190Q1123 -190 1101.5 -203.0Q1080 -216 1059 -235Q1049 -244 1033.5 -252.5Q1018 -261 1000.0 -267.0Q982 -273 964.0 -277.0Q946 -281 933 -281H687Q650 -281 625.0 -263.5Q600 -246 580.5 -220.5Q561 -195 544.5 -166.5Q528 -138 508 -115Q496 -101 483.0 -88.5Q470 -76 456 -64L488 87L563 31L584 43L614 246L705 117L725 130L805 310L850 208Q852 203 857.0 199.0Q862 195 867 195Q876 195 879.5 207.0Q883 219 884.0 234.0Q885 249 884.5 263.5Q884 278 884 284ZM1786 203V9Q1786 -5 1784.0 -18.0Q1782 -31 1776.5 -41.5Q1771 -52 1760.5 -58.5Q1750 -65 1733 -65Q1710 -65 1686.0 -59.0Q1662 -53 1637 -53Q1618 -53 1599.0 -56.5Q1580 -60 1564.5 -68.5Q1549 -77 1539.5 -92.0Q1530 -107 1530 -130Q1530 -156 1543.5 -168.5Q1557 -181 1576.5 -185.5Q1596 -190 1618.0 -190.0Q1640 -190 1658 -190Q1687 -190 1709.0 -203.0Q1731 -216 1752 -235Q1762 -244 1777.5 -252.5Q1793 -261 1811.0 -267.0Q1829 -273 1846.5 -277.0Q1864 -281 1878 -281H2123Q2161 -281 2186.0 -263.5Q2211 -246 2230.5 -220.5Q2250 -195 2266.0 -166.5Q2282 -138 2302 -115Q2314 -101 2327.5 -88.5Q2341 -76 2355 -64L2323 87L2248 31L2227 43L2196 246L2105 117L2085 130L2005 310Q2002 303 1995.0 284.5Q1988 266 1979.0 246.0Q1970 226 1960.5 210.5Q1951 195 1944 195Q1935 195 1931.5 207.0Q1928 219 1927.0 234.0Q1926 249 1926.5 263.5Q1927 278 1927 284Z" style="fill:#00a6ed;stroke:none" transform="scale(1,-1) translate(0,-256)" /></svg>