<?xml version="1.0" encoding="utf-8" ?>
<svg baseProfile="full" height="256" version="1.1" width="256" xmlns="http://www.w3.org/2000/svg" xmlns:ev="http://www.w3.org/2001/xml-events" xmlns:xlink="http://www.w3.org/1999/xlink"><defs /><path d="M1248 1579Q1273 1579 1297.0 1575.5Q1321 1572 1346 1572Q1367 1572 1394.5 1574.5Q1422 1577 1442 1585Q1457 1625 1480.5 1651.5Q1504 1678 1534.0 1693.5Q1564 1709 1599.5 1715.0Q1635 1721 1675 1721Q1687 1721 1706.0 1719.5Q1725 1718 1742.5 1712.5Q1760 1707 1773.0 1696.5Q1786 1686 1786 1668Q1786 1655 1772.0 1641.0Q1758 1627 1739.0 1612.0Q1720 1597 1702.0 1580.0Q1684 1563 1675 1544Q1689 1533 1704.5 1522.0Q1720 1511 1737 1503Q1742 1500 1756.5 1498.5Q1771 1497 1787.5 1496.5Q1804 1496 1819.0 1495.5Q1834 1495 1841 1494Q1867 1491 1897.0 1478.5Q1927 1466 1955.5 1447.5Q1984 1429 2007.5 1406.0Q2031 1383 2044 1361Q2048 1355 2050.5 1349.0Q2053 1343 2053 1335Q2053 1318 2042.5 1309.0Q2032 1300 2017.0 1295.5Q2002 1291 1985.5 1290.0Q1969 1289 1957 1289Q1965 1274 1967.0 1255.5Q1969 1237 1969 1221Q1969 1186 1961.0 1159.0Q1953 1132 1943.5 1108.0Q1934 1084 1925.0 1060.0Q1916 1036 1915 1008Q1910 924 1911.5 841.0Q1913 758 1910 674Q1908 623 1885.0 575.0Q1862 527 1819 498Q1815 495 1804.5 489.0Q1794 483 1790 482Q1779 480 1761.0 479.0Q1743 478 1723.0 477.5Q1703 477 1684.5 477.0Q1666 477 1653 477Q1479 471 1307 471Q1280 471 1244.0 470.5Q1208 470 1171.5 470.5Q1135 471 1100.0 473.5Q1065 476 1039 482Q1009 489 985.0 505.5Q961 522 944.0 544.5Q927 567 917.0 595.0Q907 623 905 652Q904 671 903.0 706.5Q902 742 901.0 785.0Q900 828 899.0 874.5Q898 921 896.0 962.0Q894 1003 891.0 1034.0Q888 1065 884 1077Q882 1082 877.5 1092.5Q873 1103 865 1103Q860 1103 854.5 1098.0Q849 1093 841.5 1087.0Q834 1081 825.0 1076.0Q816 1071 805 1071Q790 1071 781.0 1081.0Q772 1091 767.5 1105.0Q763 1119 761.5 1134.0Q760 1149 760 1160Q760 1209 769.0 1253.0Q778 1297 799.0 1333.0Q820 1369 854.5 1394.0Q889 1419 941 1430Q963 1434 978.0 1436.0Q993 1438 1006.5 1441.5Q1020 1445 1033.5 1453.0Q1047 1461 1065 1478Q1083 1496 1104.0 1514.0Q1125 1532 1147.5 1546.5Q1170 1561 1195.5 1570.0Q1221 1579 1248 1579Z" style="fill:#533566;stroke:none" transform="scale(1,-1) translate(0,-256)" /></svg>