<?xml version="1.0" encoding="utf-8" ?>
<svg baseProfile="full" height="256" version="1.1" width="256" xmlns="http://www.w3.org/2000/svg" xmlns:ev="http://www.w3.org/2001/xml-events" xmlns:xlink="http://www.w3.org/1999/xlink"><defs /><path d="M1217 748Q1189 748 1164.5 758.5Q1140 769 1122.0 787.5Q1104 806 1093.5 830.5Q1083 855 1083 883Q1083 911 1093.5 935.5Q1104 960 1122.0 978.5Q1140 997 1164.5 1007.5Q1189 1018 1217 1018Q1245 1018 1269.5 1007.5Q1294 997 1312.5 978.5Q1331 960 1341.5 935.5Q1352 911 1352 883Q1352 855 1341.5 830.5Q1331 806 1312.5 787.5Q1294 769 1269.5 758.5Q1245 748 1217 748ZM1613 737Q1585 737 1560.5 747.5Q1536 758 1517.5 776.5Q1499 795 1488.5 819.5Q1478 844 1478 872Q1478 900 1488.5 924.5Q1499 949 1517.5 967.0Q1536 985 1560.5 995.5Q1585 1006 1613 1006Q1641 1006 1665.5 995.5Q1690 985 1708.0 967.0Q1726 949 1736.5 924.5Q1747 900 1747 872Q1747 844 1736.5 819.5Q1726 795 1708.0 776.5Q1690 758 1665.5 747.5Q1641 737 1613 737Z" style="fill:#321b41;stroke:none" transform="scale(1,-1) translate(0,-256)" /></svg>