<?xml version="1.0" encoding="utf-8" ?>
<svg baseProfile="full" height="256" version="1.1" width="256" xmlns="http://www.w3.org/2000/svg" xmlns:ev="http://www.w3.org/2001/xml-events" xmlns:xlink="http://www.w3.org/1999/xlink"><defs /><path d="M1234 777Q1210 777 1188.5 786.5Q1167 796 1151.5 811.5Q1136 827 1126.5 848.5Q1117 870 1117 894Q1117 918 1126.5 939.5Q1136 961 1151.5 976.5Q1167 992 1188.5 1001.5Q1210 1011 1234 1011Q1258 1011 1279.5 1002.0Q1301 993 1317.0 977.0Q1333 961 1342.0 939.5Q1351 918 1351 894Q1351 870 1341.5 848.5Q1332 827 1316.5 811.5Q1301 796 1279.5 786.5Q1258 777 1234 777ZM1595 777Q1571 777 1549.5 786.5Q1528 796 1512.5 811.5Q1497 827 1487.5 848.5Q1478 870 1478 894Q1478 918 1487.0 939.5Q1496 961 1512.0 977.0Q1528 993 1549.5 1002.0Q1571 1011 1595 1011Q1619 1011 1640.5 1001.5Q1662 992 1677.5 976.5Q1693 961 1702.0 939.5Q1711 918 1711 894Q1711 870 1702.0 848.5Q1693 827 1677.0 811.5Q1661 796 1640.0 786.5Q1619 777 1595 777Z" style="fill:#ffce7c;stroke:none" transform="scale(1,-1) translate(0,-256)" /></svg>