<?xml version="1.0" encoding="utf-8" ?>
<svg baseProfile="full" height="256" version="1.1" width="256" xmlns="http://www.w3.org/2000/svg" xmlns:ev="http://www.w3.org/2001/xml-events" xmlns:xlink="http://www.w3.org/1999/xlink"><defs /><path d="M1320 714Q1320 724 1326.5 748.5Q1333 773 1341.5 800.5Q1350 828 1358.0 853.5Q1366 879 1370 891Q1378 917 1406 917Q1418 917 1428.0 910.0Q1438 903 1442 891Q1446 879 1454.5 853.5Q1463 828 1471.5 800.5Q1480 773 1486.5 748.5Q1493 724 1493 714Q1493 694 1478.5 678.0Q1464 662 1443 662H1370Q1349 662 1334.5 677.5Q1320 693 1320 714Z" style="fill:#00a6ed;stroke:none" transform="scale(1,-1) translate(0,-256)" /></svg>