<?xml version="1.0" encoding="utf-8" ?>
<svg baseProfile="full" height="256" version="1.1" width="256" xmlns="http://www.w3.org/2000/svg" xmlns:ev="http://www.w3.org/2001/xml-events" xmlns:xlink="http://www.w3.org/1999/xlink"><defs /><path d="M975 707Q945 707 919.0 718.0Q893 729 873.5 748.5Q854 768 842.5 794.0Q831 820 831 850Q831 880 842.0 906.0Q853 932 872.5 951.5Q892 971 918.5 982.5Q945 994 975 994Q1005 994 1031.0 982.5Q1057 971 1076.5 951.5Q1096 932 1107.0 906.0Q1118 880 1118 850Q1118 820 1107.0 794.0Q1096 768 1076.5 748.5Q1057 729 1031.0 718.0Q1005 707 975 707ZM1837 707Q1807 707 1781.0 718.0Q1755 729 1735.5 748.5Q1716 768 1704.5 794.0Q1693 820 1693 850Q1693 880 1704.5 906.0Q1716 932 1735.5 951.5Q1755 971 1781.0 982.5Q1807 994 1837 994Q1867 994 1893.0 982.5Q1919 971 1938.5 951.5Q1958 932 1969.5 906.0Q1981 880 1981 850Q1981 820 1969.5 794.0Q1958 768 1938.5 748.5Q1919 729 1893.0 718.0Q1867 707 1837 707Z" style="fill:#00d1ed;stroke:none" transform="scale(1,-1) translate(0,-256)" /></svg>