<?xml version="1.0" encoding="utf-8" ?>
<svg baseProfile="full" height="256" version="1.1" width="256" xmlns="http://www.w3.org/2000/svg" xmlns:ev="http://www.w3.org/2001/xml-events" xmlns:xlink="http://www.w3.org/1999/xlink"><defs /><path d="M1709 1068Q1704 1068 1693.0 1073.5Q1682 1079 1665.5 1085.5Q1649 1092 1628.5 1097.5Q1608 1103 1586 1103Q1579 1103 1573.0 1102.5Q1567 1102 1560 1102Q1550 1102 1543.5 1109.0Q1537 1116 1537 1126Q1537 1136 1542.0 1141.0Q1547 1146 1554.5 1148.0Q1562 1150 1570.5 1150.0Q1579 1150 1586 1150Q1620 1150 1657.5 1140.0Q1695 1130 1723 1110H1724Q1733 1101 1733 1091Q1733 1080 1726.5 1074.0Q1720 1068 1709 1068ZM1103 1068Q1107 1068 1118.0 1073.5Q1129 1079 1145.5 1085.5Q1162 1092 1182.5 1097.5Q1203 1103 1225 1103Q1232 1103 1238.0 1102.5Q1244 1102 1251 1102Q1261 1102 1267.5 1109.0Q1274 1116 1274 1126Q1274 1135 1269.0 1140.0Q1264 1145 1256.5 1147.5Q1249 1150 1240.5 1150.0Q1232 1150 1226 1150Q1192 1150 1154.0 1140.0Q1116 1130 1088 1110H1087Q1078 1101 1078 1091Q1078 1079 1085.0 1073.5Q1092 1068 1103 1068Z" style="fill:#321b41;stroke:none" transform="scale(1,-1) translate(0,-256)" /></svg>