<?xml version="1.0" encoding="utf-8" ?>
<svg baseProfile="full" height="256" version="1.1" width="256" xmlns="http://www.w3.org/2000/svg" xmlns:ev="http://www.w3.org/2001/xml-events" xmlns:xlink="http://www.w3.org/1999/xlink"><defs /><path d="M1229 854Q1210 854 1197.0 867.0Q1184 880 1184 899Q1184 918 1197.0 931.0Q1210 944 1229 944Q1248 944 1260.5 930.5Q1273 917 1273 899Q1273 881 1260.5 867.5Q1248 854 1229 854ZM1583 854Q1564 854 1551.0 867.0Q1538 880 1538 899Q1538 918 1551.0 931.0Q1564 944 1583 944Q1602 944 1614.5 930.5Q1627 917 1627 899Q1627 881 1614.5 867.5Q1602 854 1583 854Z" style="fill:#990838;stroke:none" transform="scale(1,-1) translate(0,-256)" /></svg>