<?xml version="1.0" encoding="utf-8" ?>
<svg baseProfile="full" height="256" version="1.1" width="256" xmlns="http://www.w3.org/2000/svg" xmlns:ev="http://www.w3.org/2001/xml-events" xmlns:xlink="http://www.w3.org/1999/xlink"><defs /><path d="M1660 719H1152Q1130 719 1111.0 727.5Q1092 736 1077.5 750.5Q1063 765 1055.0 784.0Q1047 803 1047 825V1117Q1047 1139 1055.0 1158.0Q1063 1177 1077.5 1191.5Q1092 1206 1111.0 1214.5Q1130 1223 1152 1223H1660Q1682 1223 1701.0 1214.5Q1720 1206 1734.5 1191.5Q1749 1177 1757.5 1158.0Q1766 1139 1766 1117V825Q1766 803 1757.5 784.0Q1749 765 1734.5 750.5Q1720 736 1701.0 727.5Q1682 719 1660 719Z" style="fill:#00d1ed;stroke:none" transform="scale(1,-1) translate(0,-256)" /></svg>