<?xml version="1.0" encoding="utf-8" ?>
<svg baseProfile="full" height="256" version="1.1" width="256" xmlns="http://www.w3.org/2000/svg" xmlns:ev="http://www.w3.org/2001/xml-events" xmlns:xlink="http://www.w3.org/1999/xlink"><defs /><path d="M1847 261Q1885 201 1925.0 142.5Q1965 84 2002 24Q2010 12 2015.0 -1.5Q2020 -15 2020 -30Q2020 -48 2013.0 -60.0Q2006 -72 1994.0 -79.0Q1982 -86 1967.5 -89.0Q1953 -92 1938 -92H869Q855 -92 841.0 -88.5Q827 -85 816.0 -78.0Q805 -71 798.0 -59.5Q791 -48 791 -32Q791 -17 797.5 -5.0Q804 7 811 19Q847 82 887.0 141.5Q927 201 966 261ZM1778 143Q1772 156 1764.0 169.0Q1756 182 1746.5 192.5Q1737 203 1724.0 209.5Q1711 216 1694 216H1118Q1100 216 1087.5 209.5Q1075 203 1065.0 192.5Q1055 182 1047.5 169.0Q1040 156 1032 143ZM1874 0Q1867 12 1859.5 24.5Q1852 37 1842.5 47.5Q1833 58 1821.5 65.0Q1810 72 1794 72H1036Q1019 72 1005.0 65.5Q991 59 979.0 48.5Q967 38 957.5 25.5Q948 13 939 0Z" style="fill:#d3d3d3;stroke:none" transform="scale(1,-1) translate(0,-256)" /></svg>