<?xml version="1.0" encoding="utf-8" ?>
<svg baseProfile="full" height="256" version="1.1" width="256" xmlns="http://www.w3.org/2000/svg" xmlns:ev="http://www.w3.org/2001/xml-events" xmlns:xlink="http://www.w3.org/1999/xlink"><defs /><path d="M1693 288V-72H1729V-144H1442V-72H1478V288H1442V360H1729V288ZM1693 1581V1222H1729V1150H1442V1222H1478V1581H1442V1653H1729V1581ZM1693 935V575H1729V503H1442V575H1478V935H1442V1006H1729V935ZM1622 -72V72H1550V-72ZM1622 288H1550V144H1622ZM1622 1222V1366H1550V1222ZM1622 935H1550V791H1622ZM1622 575V719H1550V575ZM1622 1581H1550V1438H1622Z" style="fill:#b4acbc;stroke:none" transform="scale(1,-1) translate(0,-256)" /></svg>