<?xml version="1.0" encoding="utf-8" ?>
<svg baseProfile="full" height="256" version="1.1" width="256" xmlns="http://www.w3.org/2000/svg" xmlns:ev="http://www.w3.org/2001/xml-events" xmlns:xlink="http://www.w3.org/1999/xlink"><defs /><path d="M2332 1070Q2363 1070 2390.5 1058.5Q2418 1047 2439.0 1026.5Q2460 1006 2472.0 978.5Q2484 951 2484 920V618Q2484 608 2478.5 593.0Q2473 578 2465.5 562.5Q2458 547 2450.0 532.5Q2442 518 2437 509Q2464 488 2464 454Q2464 447 2462 437Q2424 286 2344.5 161.0Q2265 36 2152.5 -53.0Q2040 -142 1900.5 -191.5Q1761 -241 1604 -241H1085Q969 -241 866.0 -197.5Q763 -154 685.5 -78.5Q608 -3 563.0 99.0Q518 201 518 318Q518 348 521.0 378.0Q524 408 531 437L697 1200Q691 1186 684.0 1172.0Q677 1158 668.0 1147.5Q659 1137 646.0 1130.5Q633 1124 615 1124Q600 1124 583.5 1123.0Q567 1122 550.5 1123.0Q534 1124 519.0 1129.0Q504 1134 493 1145L349 1289Q328 1310 328 1341Q328 1430 360.0 1508.0Q392 1586 448.0 1644.5Q504 1703 581.0 1737.0Q658 1771 748 1771Q833 1771 909.0 1738.5Q985 1706 1041.0 1650.0Q1097 1594 1130.0 1518.5Q1163 1443 1163 1358Q1163 1315 1154 1273L1044 769Q1121 834 1213.0 871.5Q1305 909 1406 909H1909Q2001 909 2079.0 936.5Q2157 964 2225 1026Q2248 1047 2274.0 1058.5Q2300 1070 2332 1070Z" style="fill:#9b9b9b;stroke:none" transform="scale(1,-1) translate(0,-256)" /></svg>