<?xml version="1.0" encoding="utf-8" ?>
<svg baseProfile="full" height="256" version="1.1" width="256" xmlns="http://www.w3.org/2000/svg" xmlns:ev="http://www.w3.org/2001/xml-events" xmlns:xlink="http://www.w3.org/1999/xlink"><defs /><path d="M1711 118Q1811 118 1907.0 140.5Q2003 163 2091.0 205.5Q2179 248 2255.5 310.5Q2332 373 2392 453Q2361 315 2286.5 200.5Q2212 86 2107.5 3.5Q2003 -79 1874.0 -124.5Q1745 -170 1604 -170H1085Q984 -170 894.0 -132.0Q804 -94 736.5 -28.0Q669 38 629.5 127.0Q590 216 590 318Q590 369 601 422L689 826L802 1348Q803 1352 803 1359Q803 1382 786.5 1398.5Q770 1415 747 1415Q730 1415 719.5 1408.5Q709 1402 702.0 1391.0Q695 1380 691.0 1366.5Q687 1353 684 1340L543 1268L400 1340Q400 1414 426.0 1479.5Q452 1545 498.0 1593.5Q544 1642 607.5 1670.5Q671 1699 747 1699Q817 1699 880.0 1672.5Q943 1646 989.5 1600.0Q1036 1554 1063.5 1492.0Q1091 1430 1091 1359Q1091 1325 1083 1288L938 618V614Q938 604 944.5 598.0Q951 592 960 592Q969 592 975 598L1037 663Q1112 741 1204.0 789.0Q1296 837 1406 837H1909Q1994 837 2076.0 860.0Q2158 883 2227 933Q2240 943 2251.5 953.5Q2263 964 2276 975Q2290 986 2302.0 992.5Q2314 999 2332 999Q2365 999 2388.5 976.0Q2412 953 2412 920V621Q2364 520 2290.0 440.0Q2216 360 2124.5 304.0Q2033 248 1927.5 218.0Q1822 188 1711 188H1370Q1356 188 1345.0 177.5Q1334 167 1334 153Q1334 138 1344.5 128.0Q1355 118 1370 118H1711Z" style="fill:#ffffff;stroke:none" transform="scale(1,-1) translate(0,-256)" /></svg>