<?xml version="1.0" encoding="utf-8" ?>
<svg baseProfile="full" height="256" version="1.1" width="256" xmlns="http://www.w3.org/2000/svg" xmlns:ev="http://www.w3.org/2001/xml-events" xmlns:xlink="http://www.w3.org/1999/xlink"><defs /><path d="M1477 1203Q1608 1203 1726.5 1194.5Q1845 1186 1947.0 1149.5Q2049 1113 2133.0 1038.0Q2217 963 2279 830Q2298 788 2312.0 747.5Q2326 707 2340 664Q2352 627 2365.0 590.0Q2378 553 2388.5 515.5Q2399 478 2405.5 439.5Q2412 401 2412 361Q2412 211 2370.5 104.5Q2329 -2 2256.5 -74.0Q2184 -146 2086.5 -188.5Q1989 -231 1877.0 -252.5Q1765 -274 1644.5 -280.5Q1524 -287 1406 -287Q1288 -287 1167.5 -280.5Q1047 -274 935.5 -252.5Q824 -231 726.0 -188.5Q628 -146 555.5 -74.5Q483 -3 441.5 103.5Q400 210 400 360Q400 401 406.5 439.5Q413 478 423.5 515.0Q434 552 447.0 589.0Q460 626 472 664Q486 707 500.0 747.5Q514 788 533 830Q595 963 679.5 1038.0Q764 1113 866.0 1149.5Q968 1186 1086.0 1194.5Q1204 1203 1335 1203H1406Z" style="fill:#f70a8d;stroke:none" transform="scale(1,-1) translate(0,-256)" /></svg>