<?xml version="1.0" encoding="utf-8" ?>
<svg baseProfile="full" height="256" version="1.1" width="256" xmlns="http://www.w3.org/2000/svg" xmlns:ev="http://www.w3.org/2001/xml-events" xmlns:xlink="http://www.w3.org/1999/xlink"><defs /><path d="M1310 1233Q1289 1233 1270.5 1241.0Q1252 1249 1238.5 1263.0Q1225 1277 1217.0 1295.5Q1209 1314 1209 1335Q1209 1356 1217.0 1374.5Q1225 1393 1238.5 1407.5Q1252 1422 1270.5 1430.0Q1289 1438 1310 1438Q1331 1438 1349.5 1430.0Q1368 1422 1382.0 1407.5Q1396 1393 1404.0 1374.5Q1412 1356 1412 1335Q1412 1314 1404.0 1295.5Q1396 1277 1382.0 1263.0Q1368 1249 1349.5 1241.0Q1331 1233 1310 1233Z" style="fill:#ffb02e;stroke:none" transform="scale(1,-1) translate(0,-256)" /></svg>