<?xml version="1.0" encoding="utf-8" ?>
<svg baseProfile="full" height="256" version="1.1" width="256" xmlns="http://www.w3.org/2000/svg" xmlns:ev="http://www.w3.org/2001/xml-events" xmlns:xlink="http://www.w3.org/1999/xlink"><defs /><path d="M1780 1236Q1859 1236 1931.5 1215.5Q2004 1195 2067.0 1157.5Q2130 1120 2181.5 1067.5Q2233 1015 2269.5 951.5Q2306 888 2326.0 815.0Q2346 742 2346 664Q2301 664 2272.0 689.5Q2243 715 2232 757Q2223 789 2214.0 818.5Q2205 848 2190 877Q2160 935 2116.5 981.5Q2073 1028 2020.0 1061.0Q1967 1094 1906.0 1112.0Q1845 1130 1780 1130H1044Q979 1130 918.0 1112.0Q857 1094 803.5 1061.0Q750 1028 706.5 981.5Q663 935 634 877Q618 848 609.5 818.5Q601 789 592 757Q581 715 551.5 689.5Q522 664 477 664Q477 781 521.5 885.0Q566 989 642.5 1067.0Q719 1145 822.5 1190.5Q926 1236 1044 1236H1489Q1455 1244 1433.0 1272.0Q1411 1300 1411 1335Q1411 1356 1419.0 1374.5Q1427 1393 1440.5 1407.5Q1454 1422 1472.5 1430.0Q1491 1438 1512 1438Q1533 1438 1551.5 1430.0Q1570 1422 1584.0 1407.5Q1598 1393 1606.0 1374.5Q1614 1356 1614 1335Q1614 1300 1592.0 1272.0Q1570 1244 1535 1236Z" style="fill:#f9c23c;stroke:none" transform="scale(1,-1) translate(0,-256)" /></svg>