<?xml version="1.0" encoding="utf-8" ?>
<svg baseProfile="full" height="256" version="1.1" width="256" xmlns="http://www.w3.org/2000/svg" xmlns:ev="http://www.w3.org/2001/xml-events" xmlns:xlink="http://www.w3.org/1999/xlink"><defs /><path d="M719 648H725Q723 683 720.5 718.5Q718 754 715 789Q714 802 712.5 814.0Q711 826 711 839Q711 868 719.5 888.0Q728 908 740.5 923.5Q753 939 768.0 952.0Q783 965 795.5 981.5Q808 998 816.5 1019.5Q825 1041 825 1073V1187Q825 1217 840.0 1233.5Q855 1250 882 1258Q932 1273 1000.0 1284.0Q1068 1295 1140.5 1301.5Q1213 1308 1282.0 1311.0Q1351 1314 1403 1314Q1515 1314 1625.5 1305.0Q1736 1296 1845 1275Q1864 1271 1884.5 1267.5Q1905 1264 1923 1258Q1947 1250 1964.0 1232.0Q1981 1214 1981 1187V1073Q1981 1046 1991.0 1020.0Q2001 994 2018 973Q2022 969 2024.5 967.0Q2027 965 2030 960Q2035 953 2037.5 945.5Q2040 938 2045 931Q2048 926 2051.0 923.5Q2054 921 2058 916Q2088 878 2088 832Q2088 820 2086.5 808.5Q2085 797 2083 785Q2080 749 2077.5 713.0Q2075 677 2073 641H2076Q2067 508 2058.0 377.5Q2049 247 2040 114Q2034 30 1998.0 -43.0Q1962 -116 1904.5 -170.0Q1847 -224 1772.0 -254.5Q1697 -285 1613 -285H1187Q1101 -285 1026.0 -255.0Q951 -225 894.0 -171.5Q837 -118 802.0 -45.0Q767 28 760 114Q749 248 739.5 381.0Q730 514 719 648Z" style="fill:#ffc83d;stroke:none" transform="scale(1,-1) translate(0,-256)" /></svg>