<?xml version="1.0" encoding="utf-8" ?>
<svg baseProfile="full" height="256" version="1.1" width="256" xmlns="http://www.w3.org/2000/svg" xmlns:ev="http://www.w3.org/2001/xml-events" xmlns:xlink="http://www.w3.org/1999/xlink"><defs /><path d="M1604 1698Q1661 1698 1705.0 1682.0Q1749 1666 1787.0 1639.5Q1825 1613 1859.0 1578.5Q1893 1544 1931 1506Q1945 1492 1957.0 1481.5Q1969 1471 1981.0 1462.0Q1993 1453 2006.5 1445.0Q2020 1437 2038 1428L2095 1399Q2161 1365 2198.0 1303.5Q2235 1242 2235 1167Q2235 1144 2230 1116L2152 712Q2146 680 2126.5 660.5Q2107 641 2073 641Q1734 641 1399.0 644.5Q1064 648 725 648Q692 648 669.0 667.5Q646 687 640 719L561 1123Q559 1131 559.0 1140.0Q559 1149 559 1157Q559 1195 569.0 1231.0Q579 1267 597.5 1298.5Q616 1330 643.0 1355.5Q670 1381 704 1399Q722 1408 745.0 1420.5Q768 1433 790.5 1446.5Q813 1460 833.5 1475.5Q854 1491 868 1506Q900 1540 932.0 1573.5Q964 1607 996 1641Q1012 1657 1033.0 1670.0Q1054 1683 1078.0 1692.0Q1102 1701 1126.5 1705.5Q1151 1710 1174 1710Q1207 1710 1233.0 1702.0Q1259 1694 1289 1683Q1312 1675 1343.0 1671.0Q1374 1667 1399 1667Q1426 1667 1452.0 1672.0Q1478 1677 1503.0 1682.5Q1528 1688 1553.0 1693.0Q1578 1698 1604 1698Z" style="fill:#ed9200;stroke:none" transform="scale(1,-1) translate(0,-256)" /></svg>