<?xml version="1.0" encoding="utf-8" ?>
<svg baseProfile="full" height="256" version="1.1" width="256" xmlns="http://www.w3.org/2000/svg" xmlns:ev="http://www.w3.org/2001/xml-events" xmlns:xlink="http://www.w3.org/1999/xlink"><defs /><path d="M2083 780 2073 641Q2098 641 2113.0 650.5Q2128 660 2137.0 675.0Q2146 690 2150.5 709.0Q2155 728 2159 748Q2203 718 2227.5 671.0Q2252 624 2252 571Q2252 527 2235.5 488.0Q2219 449 2190.0 420.0Q2161 391 2122.0 374.0Q2083 357 2039 357Q1994 357 1955.0 373.5Q1916 390 1887.0 419.0Q1858 448 1841.5 487.0Q1825 526 1825 571Q1825 615 1842.0 654.0Q1859 693 1888.0 722.0Q1917 751 1956.0 768.0Q1995 785 2039 785Q2060 785 2083 780ZM634 747Q638 727 643.5 709.0Q649 691 659.0 677.5Q669 664 685.0 656.0Q701 648 725 648Q723 681 720.5 714.5Q718 748 716 781Q726 783 735.5 784.0Q745 785 755 785Q799 785 838.0 768.0Q877 751 906.0 722.0Q935 693 952.0 654.0Q969 615 969 571Q969 527 952.0 488.0Q935 449 906.0 420.0Q877 391 838.0 374.0Q799 357 755 357Q711 357 672.0 374.0Q633 391 604.0 420.0Q575 449 558.0 488.0Q541 527 541 571Q541 624 565.5 671.0Q590 718 634 747Z" style="fill:#fdbb11;stroke:none" transform="scale(1,-1) translate(0,-256)" /></svg>