<?xml version="1.0" encoding="utf-8" ?>
<svg baseProfile="full" height="256" version="1.1" width="256" xmlns="http://www.w3.org/2000/svg" xmlns:ev="http://www.w3.org/2001/xml-events" xmlns:xlink="http://www.w3.org/1999/xlink"><defs /><path d="M2295 719Q2295 596 2263.0 482.5Q2231 369 2173.5 270.5Q2116 172 2034.5 90.5Q1953 9 1854.5 -48.5Q1756 -106 1642.5 -138.0Q1529 -170 1406 -170Q1283 -170 1169.5 -138.0Q1056 -106 957.5 -48.5Q859 9 777.5 90.5Q696 172 638.5 270.5Q581 369 549.0 482.5Q517 596 517 719Q517 842 549.0 955.5Q581 1069 638.5 1167.5Q696 1266 777.5 1347.5Q859 1429 957.5 1486.5Q1056 1544 1169.5 1576.0Q1283 1608 1406 1608Q1529 1608 1642.5 1576.0Q1756 1544 1854.5 1486.5Q1953 1429 2034.5 1347.5Q2116 1266 2173.5 1167.5Q2231 1069 2263.0 955.5Q2295 842 2295 719Z" style="fill:#e6e6e6;stroke:none" transform="scale(1,-1) translate(0,-256)" /></svg>