<?xml version="1.0" encoding="utf-8" ?>
<svg baseProfile="full" height="256" version="1.1" width="256" xmlns="http://www.w3.org/2000/svg" xmlns:ev="http://www.w3.org/2001/xml-events" xmlns:xlink="http://www.w3.org/1999/xlink"><defs /><path d="M1406 1581Q1514 1581 1610.5 1544.0Q1707 1507 1784.0 1442.0Q1861 1377 1913.5 1287.5Q1966 1198 1987 1093L2112 454Q2126 384 2156.0 329.0Q2186 274 2240 227Q2288 184 2314.0 132.5Q2340 81 2340 15Q2340 -6 2341.5 -33.0Q2343 -60 2338.0 -85.0Q2333 -110 2318.5 -127.0Q2304 -144 2272 -144H540Q511 -144 491.5 -123.5Q472 -103 472 -74V15Q472 81 498.0 132.5Q524 184 572 227Q626 274 656.0 329.5Q686 385 700 454Q731 615 761.5 773.5Q792 932 824 1093Q844 1198 897.0 1287.0Q950 1376 1027.5 1441.5Q1105 1507 1201.5 1544.0Q1298 1581 1406 1581Z" style="fill:#f9c23c;stroke:none" transform="scale(1,-1) translate(0,-256)" /></svg>