<?xml version="1.0" encoding="utf-8" ?>
<svg baseProfile="full" height="256" version="1.1" width="256" xmlns="http://www.w3.org/2000/svg" xmlns:ev="http://www.w3.org/2001/xml-events" xmlns:xlink="http://www.w3.org/1999/xlink"><defs /><path d="M1569 933 1729 899 1821 828 1789 750Q1760 756 1726.5 767.5Q1693 779 1659.0 793.0Q1625 807 1593.0 823.0Q1561 839 1536 854ZM1495 754Q1509 750 1526.0 746.0Q1543 742 1560.0 738.0Q1577 734 1593.0 729.0Q1609 724 1622 719Q1651 708 1685.5 687.0Q1720 666 1748 651L1640 387L1514 396L1387 491ZM1319 325 1239 130Q1224 93 1191.0 70.5Q1158 48 1118 48Q1091 48 1067.0 58.5Q1043 69 1025.5 87.0Q1008 105 997.5 128.5Q987 152 987 179Q987 205 995.5 229.0Q1004 253 1014.5 277.0Q1025 301 1034.0 326.0Q1043 351 1043 378Q1043 415 1029.0 448.0Q1015 481 990.5 505.5Q966 530 933.5 544.0Q901 558 864 558Q811 558 777.0 537.0Q743 516 720.0 483.0Q697 450 681.0 408.5Q665 367 649 326Q615 243 615 156Q615 64 650.0 -17.5Q685 -99 746.0 -160.0Q807 -221 888.5 -256.0Q970 -291 1062 -291Q1130 -291 1193.5 -271.0Q1257 -251 1310.5 -215.0Q1364 -179 1406.5 -127.5Q1449 -76 1475 -13L1572 221L1452 311Z" style="fill:#e39d89;stroke:none" transform="scale(1,-1) translate(0,-256)" /></svg>