<?xml version="1.0" encoding="utf-8" ?>
<svg baseProfile="full" height="256" version="1.1" width="256" xmlns="http://www.w3.org/2000/svg" xmlns:ev="http://www.w3.org/2001/xml-events" xmlns:xlink="http://www.w3.org/1999/xlink"><defs /><path d="M1981 -287Q1936 -287 1897.0 -270.0Q1858 -253 1828.5 -224.0Q1799 -195 1782.0 -156.0Q1765 -117 1765 -72Q1765 -27 1782.0 12.0Q1799 51 1828.5 80.5Q1858 110 1897.0 127.0Q1936 144 1981 144Q2026 144 2065.0 127.0Q2104 110 2133.5 80.5Q2163 51 2180.0 12.0Q2197 -27 2197 -72Q2197 -117 2180.0 -156.0Q2163 -195 2133.5 -224.0Q2104 -253 2065.0 -270.0Q2026 -287 1981 -287Z" style="fill:#d3d3d3;stroke:none" transform="scale(1,-1) translate(0,-256)" /></svg>