<?xml version="1.0" encoding="utf-8" ?>
<svg baseProfile="full" height="256" version="1.1" width="256" xmlns="http://www.w3.org/2000/svg" xmlns:ev="http://www.w3.org/2001/xml-events" xmlns:xlink="http://www.w3.org/1999/xlink"><defs /><path d="M1047 1330Q1047 1316 1036.0 1305.0Q1025 1294 1011 1294Q960 1294 916.5 1276.0Q873 1258 836 1223Q808 1197 789.5 1167.5Q771 1138 757 1103Q747 1078 723 1078Q708 1078 697.5 1089.0Q687 1100 687 1115Q687 1118 687.5 1120.5Q688 1123 689 1126Q705 1177 737.0 1221.0Q769 1265 812.0 1297.5Q855 1330 906.0 1348.0Q957 1366 1011 1366Q1025 1366 1036.0 1355.0Q1047 1344 1047 1330ZM1765 1330Q1765 1345 1775.5 1355.5Q1786 1366 1801 1366Q1854 1366 1905.0 1347.5Q1956 1329 1999.5 1297.0Q2043 1265 2075.0 1221.0Q2107 1177 2123 1126Q2124 1123 2124.5 1120.5Q2125 1118 2125 1115Q2125 1100 2114.5 1089.0Q2104 1078 2089 1078Q2065 1078 2055 1103Q2041 1138 2022.5 1167.5Q2004 1197 1976 1223Q1939 1258 1895.5 1276.0Q1852 1294 1801 1294Q1786 1294 1775.5 1304.5Q1765 1315 1765 1330ZM759 719Q775 719 787.0 713.5Q799 708 810 698Q825 684 845.5 674.5Q866 665 888.0 659.0Q910 653 932.5 650.0Q955 647 975 647Q994 647 1016.5 650.0Q1039 653 1061.5 659.0Q1084 665 1104.5 674.5Q1125 684 1140 698Q1151 708 1163.0 713.5Q1175 719 1190 719Q1220 719 1241.0 697.5Q1262 676 1262 647Q1262 619 1241 596Q1218 572 1185.5 554.5Q1153 537 1116.5 525.5Q1080 514 1043.0 508.5Q1006 503 975 503Q943 503 906.0 508.5Q869 514 832.5 525.5Q796 537 763.0 554.5Q730 572 708 596Q687 619 687 647Q687 677 708.0 698.0Q729 719 759 719ZM1621 719Q1637 719 1649.0 713.5Q1661 708 1672 698Q1687 684 1707.5 674.5Q1728 665 1750.5 659.0Q1773 653 1795.5 650.0Q1818 647 1837 647Q1856 647 1879.0 650.0Q1902 653 1924.0 659.0Q1946 665 1966.5 674.5Q1987 684 2002 698Q2013 708 2025.0 713.5Q2037 719 2053 719Q2083 719 2104.0 698.0Q2125 677 2125 647Q2125 619 2104 596Q2081 572 2048.5 554.5Q2016 537 1979.5 525.5Q1943 514 1905.5 508.5Q1868 503 1837 503Q1806 503 1769.0 508.5Q1732 514 1695.5 525.5Q1659 537 1626.0 554.5Q1593 572 1571 596Q1550 619 1550 647Q1550 676 1571.0 697.5Q1592 719 1621 719ZM1047 216Q1065 216 1079.0 208.5Q1093 201 1104 187Q1130 156 1166.0 134.5Q1202 113 1242.5 99.0Q1283 85 1325.0 78.5Q1367 72 1406 72Q1445 72 1487.0 78.5Q1529 85 1569.5 99.0Q1610 113 1646.0 134.5Q1682 156 1708 187Q1719 201 1733.0 208.5Q1747 216 1765 216Q1794 216 1815.5 194.5Q1837 173 1837 144Q1837 121 1823 101Q1812 85 1796.5 70.5Q1781 56 1766 44Q1690 -16 1596.5 -44.0Q1503 -72 1406 -72Q1309 -72 1215.5 -44.0Q1122 -16 1046 44Q1031 56 1015.5 70.5Q1000 85 989 101Q975 121 975 144Q975 174 996.0 195.0Q1017 216 1047 216Z" style="fill:#402a32;stroke:none" transform="scale(1,-1) translate(0,-256)" /></svg>