<?xml version="1.0" encoding="utf-8" ?>
<svg baseProfile="full" height="256" version="1.1" width="256" xmlns="http://www.w3.org/2000/svg" xmlns:ev="http://www.w3.org/2001/xml-events" xmlns:xlink="http://www.w3.org/1999/xlink"><defs /><path d="M831 575 736 746Q744 752 747.0 760.0Q750 768 758 774Q765 779 773.5 784.0Q782 789 789 795Q824 821 840.5 850.0Q857 879 871 919Q878 939 892.5 957.5Q907 976 926.0 990.5Q945 1005 966.5 1014.0Q988 1023 1010 1023Q1031 1023 1052.0 1014.0Q1073 1005 1091.0 990.5Q1109 976 1122.5 957.0Q1136 938 1143 919Q1175 828 1240.0 780.5Q1305 733 1403 733Q1500 733 1565.0 780.5Q1630 828 1662 919Q1669 939 1683.0 957.5Q1697 976 1715.5 990.5Q1734 1005 1755.5 1014.0Q1777 1023 1799 1023Q1820 1023 1841.0 1014.0Q1862 1005 1880.0 990.5Q1898 976 1911.5 957.0Q1925 938 1932 919Q1947 878 1967.0 849.5Q1987 821 2022 795Q2030 789 2038.5 784.0Q2047 779 2054 774Q2062 768 2065.0 760.0Q2068 752 2076 746L1981 575L1941 558H871Z" style="fill:#ffdea7;stroke:none" transform="scale(1,-1) translate(0,-256)" /></svg>