<?xml version="1.0" encoding="utf-8" ?>
<svg baseProfile="full" height="256" version="1.1" width="256" xmlns="http://www.w3.org/2000/svg" xmlns:ev="http://www.w3.org/2001/xml-events" xmlns:xlink="http://www.w3.org/1999/xlink"><defs /><path d="M1083 1366Q1097 1366 1107.5 1355.0Q1118 1344 1118 1330Q1118 1275 1099.5 1229.0Q1081 1183 1047.5 1149.5Q1014 1116 968.0 1097.0Q922 1078 867 1078Q852 1078 841.5 1088.5Q831 1099 831 1114Q831 1129 841.5 1139.5Q852 1150 867 1150Q901 1150 933.0 1161.0Q965 1172 991 1195Q1020 1221 1033.5 1256.5Q1047 1292 1047 1330Q1047 1345 1057.5 1355.5Q1068 1366 1083 1366ZM1658 1366Q1643 1366 1632.5 1355.5Q1622 1345 1622 1330Q1622 1275 1640.5 1229.0Q1659 1183 1692.5 1149.5Q1726 1116 1772.0 1097.0Q1818 1078 1873 1078Q1888 1078 1898.5 1088.5Q1909 1099 1909 1114Q1909 1129 1898.5 1139.5Q1888 1150 1873 1150Q1839 1150 1807.0 1161.0Q1775 1172 1749 1195Q1720 1221 1706.5 1256.5Q1693 1292 1693 1330Q1693 1344 1682.5 1355.0Q1672 1366 1658 1366ZM1334 360Q1438 360 1537.5 322.5Q1637 285 1709 207Q1721 194 1734.0 187.0Q1747 180 1765 180Q1795 180 1816.0 201.0Q1837 222 1837 252Q1837 266 1833.0 276.0Q1829 286 1821 297Q1808 315 1789.0 332.0Q1770 349 1753 363Q1664 433 1555.5 468.0Q1447 503 1334 503Q1221 503 1113.0 467.5Q1005 432 915 363Q898 349 879.0 332.0Q860 315 847 297Q839 286 835.0 276.0Q831 266 831 252Q831 222 852.0 201.0Q873 180 903 180Q921 180 934.0 187.0Q947 194 959 207Q1031 284 1130.5 322.0Q1230 360 1334 360Z" style="fill:#402a32;stroke:none" transform="scale(1,-1) translate(0,-256)" /></svg>