<?xml version="1.0" encoding="utf-8" ?>
<svg baseProfile="full" height="256" version="1.1" width="256" xmlns="http://www.w3.org/2000/svg" xmlns:ev="http://www.w3.org/2001/xml-events" xmlns:xlink="http://www.w3.org/1999/xlink"><defs /><path d="M759 360Q729 360 703.0 371.0Q677 382 657.5 401.5Q638 421 626.5 447.0Q615 473 615 503Q615 533 626.5 559.0Q638 585 657.5 604.5Q677 624 703.0 635.5Q729 647 759 647Q789 647 815.0 635.5Q841 624 860.5 604.5Q880 585 891.5 559.0Q903 533 903 503Q903 473 891.5 447.0Q880 421 860.5 401.5Q841 382 815.0 371.0Q789 360 759 360Z" style="fill:#f8312f;stroke:none" transform="scale(1,-1) translate(0,-256)" /></svg>