<?xml version="1.0" encoding="utf-8" ?>
<svg baseProfile="full" height="256" version="1.1" width="256" xmlns="http://www.w3.org/2000/svg" xmlns:ev="http://www.w3.org/2001/xml-events" xmlns:xlink="http://www.w3.org/1999/xlink"><defs /><path d="M1370 -287Q1147 -287 967.5 -218.5Q788 -150 662.0 -24.0Q536 102 468.0 281.5Q400 461 400 683Q400 905 468.0 1084.5Q536 1264 662.0 1390.0Q788 1516 967.5 1584.5Q1147 1653 1370 1653Q1593 1653 1772.5 1584.5Q1952 1516 2078.0 1390.0Q2204 1264 2272.0 1084.5Q2340 905 2340 683Q2340 461 2272.0 281.5Q2204 102 2078.0 -24.0Q1952 -150 1772.5 -218.5Q1593 -287 1370 -287Z" style="fill:#ffb02e;stroke:none" transform="scale(1,-1) translate(0,-256)" /></svg>