<?xml version="1.0" encoding="utf-8" ?>
<svg baseProfile="full" height="256" version="1.1" width="256" xmlns="http://www.w3.org/2000/svg" xmlns:ev="http://www.w3.org/2001/xml-events" xmlns:xlink="http://www.w3.org/1999/xlink"><defs /><path d="M1226 899Q1226 862 1212.0 829.0Q1198 796 1173.5 771.5Q1149 747 1116.5 733.0Q1084 719 1047 719Q1009 719 976.5 733.0Q944 747 919.5 771.5Q895 796 881.0 828.5Q867 861 867 899Q867 936 881.0 968.5Q895 1001 919.5 1025.5Q944 1050 977.0 1064.0Q1010 1078 1047 1078Q1084 1078 1116.5 1064.0Q1149 1050 1173.5 1025.5Q1198 1001 1212.0 968.5Q1226 936 1226 899ZM1801 899Q1801 862 1787.0 829.0Q1773 796 1748.5 771.5Q1724 747 1691.5 733.0Q1659 719 1622 719Q1584 719 1551.5 733.0Q1519 747 1494.5 771.5Q1470 796 1456.0 828.5Q1442 861 1442 899Q1442 936 1456.0 968.5Q1470 1001 1494.5 1025.5Q1519 1050 1552.0 1064.0Q1585 1078 1622 1078Q1659 1078 1691.5 1064.0Q1724 1050 1748.5 1025.5Q1773 1001 1787.0 968.5Q1801 936 1801 899Z" style="fill:#402a32;stroke:none" transform="scale(1,-1) translate(0,-256)" /></svg>