<?xml version="1.0" encoding="utf-8" ?>
<svg baseProfile="full" height="256" version="1.1" width="256" xmlns="http://www.w3.org/2000/svg" xmlns:ev="http://www.w3.org/2001/xml-events" xmlns:xlink="http://www.w3.org/1999/xlink"><defs /><path d="M1262 899Q1262 847 1242.5 801.0Q1223 755 1189.0 721.0Q1155 687 1109.0 667.0Q1063 647 1011 647Q959 647 913.0 667.0Q867 687 833.0 721.0Q799 755 779.0 801.0Q759 847 759 899Q759 951 779.0 997.0Q799 1043 833.0 1077.0Q867 1111 913.0 1130.5Q959 1150 1011 1150Q1063 1150 1109.0 1130.5Q1155 1111 1189.0 1077.0Q1223 1043 1242.5 997.0Q1262 951 1262 899ZM1909 899Q1909 847 1889.0 801.5Q1869 756 1835.0 721.5Q1801 687 1755.5 667.0Q1710 647 1658 647Q1606 647 1560.0 667.0Q1514 687 1480.0 721.0Q1446 755 1426.0 801.0Q1406 847 1406 899Q1406 951 1426.0 997.0Q1446 1043 1480.0 1077.0Q1514 1111 1560.0 1130.5Q1606 1150 1658 1150Q1710 1150 1755.5 1130.0Q1801 1110 1835.0 1076.0Q1869 1042 1889.0 996.5Q1909 951 1909 899Z" style="fill:#ffffff;stroke:none" transform="scale(1,-1) translate(0,-256)" /></svg>