<?xml version="1.0" encoding="utf-8" ?>
<svg baseProfile="full" height="256" version="1.1" width="256" xmlns="http://www.w3.org/2000/svg" xmlns:ev="http://www.w3.org/2001/xml-events" xmlns:xlink="http://www.w3.org/1999/xlink"><defs /><path d="M2147 809Q2162 820 2176.5 830.0Q2191 840 2207 849Q2211 843 2221.5 830.5Q2232 818 2242.0 804.5Q2252 791 2260.0 777.5Q2268 764 2268 755Q2268 740 2257.5 729.5Q2247 719 2232 719Q2215 719 2204 733ZM2016 717 1958 675 2006 608Q2018 593 2035 593Q2049 593 2060.0 603.5Q2071 614 2071 629Q2071 638 2064.0 650.5Q2057 663 2048.0 675.5Q2039 688 2029.5 699.5Q2020 711 2016 717ZM1754 532 1809 463Q1820 449 1837 449Q1852 449 1862.5 459.5Q1873 470 1873 485Q1873 494 1865.5 507.0Q1858 520 1848.0 532.5Q1838 545 1828.0 556.0Q1818 567 1813 573Z" style="fill:#212121;stroke:none" transform="scale(1,-1) translate(0,-256)" /></svg>