<?xml version="1.0" encoding="utf-8" ?>
<svg baseProfile="full" height="256" version="1.1" width="256" xmlns="http://www.w3.org/2000/svg" xmlns:ev="http://www.w3.org/2001/xml-events" xmlns:xlink="http://www.w3.org/1999/xlink"><defs /><path d="M2412 719Q2412 684 2396.0 653.0Q2380 622 2351 602L1765 188V216Q1765 246 1754.0 272.0Q1743 298 1723.5 317.5Q1704 337 1678.0 348.5Q1652 360 1622 360H1533Q1549 387 1575 405L2186 836Q2224 863 2269 863Q2299 863 2325.0 851.5Q2351 840 2370.5 820.5Q2390 801 2401.0 775.0Q2412 749 2412 719Z" style="fill:#d3d3d3;stroke:none" transform="scale(1,-1) translate(0,-256)" /></svg>