<?xml version="1.0" encoding="utf-8" ?>
<svg baseProfile="full" height="256" version="1.1" width="256" xmlns="http://www.w3.org/2000/svg" xmlns:ev="http://www.w3.org/2001/xml-events" xmlns:xlink="http://www.w3.org/1999/xlink"><defs /><path d="M1042 1205Q1042 1197 1038.0 1192.0Q1034 1187 1026 1187Q1023 1187 1019 1189Q963 1221 933.0 1273.5Q903 1326 903 1391Q903 1431 923.0 1466.5Q943 1502 964 1534Q985 1567 1004.5 1600.5Q1024 1634 1035 1672Q1038 1682 1039.5 1692.0Q1041 1702 1044 1712Q1047 1725 1060 1725Q1067 1725 1072 1719Q1083 1706 1091.5 1687.5Q1100 1669 1105.5 1649.0Q1111 1629 1114.0 1608.5Q1117 1588 1117 1572Q1117 1526 1104.0 1490.5Q1091 1455 1076.0 1422.5Q1061 1390 1048.0 1357.0Q1035 1324 1035 1284Q1035 1264 1038.5 1244.5Q1042 1225 1042 1205ZM1437 1205Q1437 1198 1433.5 1192.5Q1430 1187 1422 1187Q1418 1187 1414 1189Q1358 1220 1328.0 1274.0Q1298 1328 1298 1391Q1298 1430 1318.0 1466.0Q1338 1502 1359 1534Q1381 1567 1400.0 1600.5Q1419 1634 1430 1672Q1433 1682 1434.5 1692.0Q1436 1702 1439 1712Q1442 1725 1455 1725Q1462 1725 1467 1719Q1478 1706 1486.5 1688.0Q1495 1670 1501.0 1650.0Q1507 1630 1510.0 1610.0Q1513 1590 1513 1573Q1513 1528 1500.0 1492.0Q1487 1456 1471.5 1423.0Q1456 1390 1443.0 1356.5Q1430 1323 1430 1282Q1430 1262 1433.5 1243.0Q1437 1224 1437 1205ZM1817 1187Q1813 1187 1809 1189Q1753 1220 1723.0 1274.0Q1693 1328 1693 1391Q1693 1431 1713.5 1466.5Q1734 1502 1755 1534Q1776 1566 1795.0 1600.0Q1814 1634 1825 1672Q1828 1682 1829.5 1692.0Q1831 1702 1834 1712Q1837 1725 1850 1725Q1857 1725 1862 1719Q1873 1706 1881.5 1688.0Q1890 1670 1896.0 1650.0Q1902 1630 1905.0 1610.0Q1908 1590 1908 1573Q1908 1525 1895.0 1489.5Q1882 1454 1866.5 1422.0Q1851 1390 1838.0 1357.0Q1825 1324 1825 1282Q1825 1262 1828.5 1243.0Q1832 1224 1832 1205Q1832 1198 1828.5 1192.5Q1825 1187 1817 1187Z" style="fill:#d3d3d3;stroke:none" transform="scale(1,-1) translate(0,-256)" /></svg>