<?xml version="1.0" encoding="utf-8" ?>
<svg baseProfile="full" height="256" version="1.1" width="256" xmlns="http://www.w3.org/2000/svg" xmlns:ev="http://www.w3.org/2001/xml-events" xmlns:xlink="http://www.w3.org/1999/xlink"><defs /><path d="M921 755Q887 755 857.5 767.5Q828 780 806.0 802.0Q784 824 771.5 853.5Q759 883 759 917Q759 951 772.0 980.0Q785 1009 807.0 1031.0Q829 1053 858.5 1065.5Q888 1078 921 1078Q954 1078 983.5 1065.5Q1013 1053 1035.0 1031.0Q1057 1009 1070.0 979.5Q1083 950 1083 917Q1083 884 1070.0 854.5Q1057 825 1035.0 803.0Q1013 781 983.5 768.0Q954 755 921 755ZM1891 755Q1858 755 1828.5 768.0Q1799 781 1777.0 803.0Q1755 825 1742.0 854.5Q1729 884 1729 917Q1729 950 1742.0 979.5Q1755 1009 1777.0 1031.0Q1799 1053 1828.5 1065.5Q1858 1078 1891 1078Q1924 1078 1953.5 1065.5Q1983 1053 2005.0 1031.0Q2027 1009 2040.0 979.5Q2053 950 2053 917Q2053 884 2040.0 854.5Q2027 825 2005.0 803.0Q1983 781 1953.5 768.0Q1924 755 1891 755Z" style="fill:#f8312f;stroke:none" transform="scale(1,-1) translate(0,-256)" /></svg>