<?xml version="1.0" encoding="utf-8" ?>
<svg baseProfile="full" height="256" version="1.1" width="256" xmlns="http://www.w3.org/2000/svg" xmlns:ev="http://www.w3.org/2001/xml-events" xmlns:xlink="http://www.w3.org/1999/xlink"><defs /><path d="M939 611Q944 600 959.5 571.0Q975 542 991.5 509.5Q1008 477 1021.0 449.0Q1034 421 1034 413Q1034 390 1012 380L787 280Q773 274 758 274Q738 274 720.0 285.0Q702 296 693 315L432 867Q425 881 425 898Q425 919 436.5 937.5Q448 956 468 964L616 1027Q638 1037 638 1060Q638 1062 637.5 1063.5Q637 1065 637 1067L851 609Q861 588 884 588Q897 588 912.5 597.0Q928 606 939 611Z" style="fill:#cdc4d6;stroke:none" transform="scale(1,-1) translate(0,-256)" /></svg>