<?xml version="1.0" encoding="utf-8" ?>
<svg baseProfile="full" height="256" version="1.1" width="256" xmlns="http://www.w3.org/2000/svg" xmlns:ev="http://www.w3.org/2001/xml-events" xmlns:xlink="http://www.w3.org/1999/xlink"><defs /><path d="M1873 611Q1884 606 1899.5 597.0Q1915 588 1928 588Q1951 588 1961 609L2174 1067V1062Q2174 1051 2179.5 1041.5Q2185 1032 2196 1027L2344 964Q2364 956 2375.5 937.5Q2387 919 2387 898Q2387 881 2380 867L2119 315Q2110 296 2092.0 285.0Q2074 274 2054 274Q2038 274 2025 280L1800 380Q1778 390 1778 413Q1778 421 1791.0 449.0Q1804 477 1820.5 509.5Q1837 542 1852.5 571.0Q1868 600 1873 611Z" style="fill:#f3eef8;stroke:none" transform="scale(1,-1) translate(0,-256)" /></svg>