<?xml version="1.0" encoding="utf-8" ?>
<svg baseProfile="full" height="256" version="1.1" width="256" xmlns="http://www.w3.org/2000/svg" xmlns:ev="http://www.w3.org/2001/xml-events" xmlns:xlink="http://www.w3.org/1999/xlink"><defs /><path d="M1370 811 939 611 825 448 634 1076Q629 1094 618.0 1111.5Q607 1129 596.5 1147.5Q586 1166 578.0 1184.5Q570 1203 570 1222Q570 1244 581.5 1261.5Q593 1279 613 1288L1075 1491ZM1737 1491 2199 1288Q2219 1279 2230.5 1261.5Q2242 1244 2242 1222Q2242 1202 2233.0 1182.0Q2224 1162 2212.5 1142.5Q2201 1123 2190.0 1104.0Q2179 1085 2174 1067L2002 399L1873 611L1442 811Z" style="fill:#e1d8ec;stroke:none" transform="scale(1,-1) translate(0,-256)" /></svg>