<?xml version="1.0" encoding="utf-8" ?>
<svg baseProfile="full" height="256" version="1.1" width="256" xmlns="http://www.w3.org/2000/svg" xmlns:ev="http://www.w3.org/2001/xml-events" xmlns:xlink="http://www.w3.org/1999/xlink"><defs /><path d="M975 1546Q975 1560 985.5 1570.5Q996 1581 1011 1581Q1034 1581 1044 1560Q1047 1552 1053.0 1540.5Q1059 1529 1064.5 1517.0Q1070 1505 1074.0 1493.5Q1078 1482 1078 1474Q1078 1459 1067.0 1448.5Q1056 1438 1042 1438Q1019 1438 1009 1460Q1006 1468 1000.0 1479.0Q994 1490 988.5 1502.0Q983 1514 979.0 1525.5Q975 1537 975 1546ZM1300 799Q1300 813 1310.5 823.5Q1321 834 1335 834Q1358 834 1368 812L1406 726L1443 812Q1453 834 1476 834Q1490 834 1501.0 823.5Q1512 813 1512 798Q1512 790 1503.0 767.0Q1494 744 1482.5 718.5Q1471 693 1460.0 669.5Q1449 646 1445 636Q1450 623 1467.0 585.5Q1484 548 1507.5 494.5Q1531 441 1559.0 377.0Q1587 313 1616.0 247.5Q1645 182 1671.5 120.0Q1698 58 1719.0 8.5Q1740 -41 1752.5 -72.5Q1765 -104 1765 -108Q1765 -122 1755.0 -133.0Q1745 -144 1730 -144Q1719 -144 1710.0 -138.0Q1701 -132 1696 -122L1406 546L1115 -122Q1105 -144 1081 -144Q1066 -144 1056.0 -133.0Q1046 -122 1046 -107Q1046 -103 1058.5 -71.5Q1071 -40 1092.0 9.0Q1113 58 1140.0 120.0Q1167 182 1195.5 248.0Q1224 314 1252.5 378.0Q1281 442 1304.5 495.0Q1328 548 1345.0 586.0Q1362 624 1367 636Q1362 646 1351.0 669.5Q1340 693 1329.0 719.0Q1318 745 1309.0 767.5Q1300 790 1300 799ZM1837 1545Q1837 1559 1826.0 1570.0Q1815 1581 1800 1581Q1790 1581 1781.0 1575.5Q1772 1570 1768 1560Q1765 1552 1759.0 1540.5Q1753 1529 1747.5 1517.0Q1742 1505 1738.0 1493.5Q1734 1482 1734 1473Q1734 1459 1744.5 1448.5Q1755 1438 1769 1438Q1792 1438 1802 1460Q1805 1467 1811.0 1478.5Q1817 1490 1823.0 1502.0Q1829 1514 1833.0 1525.5Q1837 1537 1837 1545Z" style="fill:#9b9b9b;stroke:none" transform="scale(1,-1) translate(0,-256)" /></svg>