<?xml version="1.0" encoding="utf-8" ?>
<svg baseProfile="full" height="256" version="1.1" width="256" xmlns="http://www.w3.org/2000/svg" xmlns:ev="http://www.w3.org/2001/xml-events" xmlns:xlink="http://www.w3.org/1999/xlink"><defs /><path d="M2197 0V-72H759Q729 -72 708.0 -93.0Q687 -114 687 -144Q687 -173 708.5 -194.0Q730 -215 759 -215H2190Q2179 -247 2151.0 -267.0Q2123 -287 2089 -287H723Q701 -287 681.5 -278.5Q662 -270 647.0 -255.0Q632 -240 623.5 -220.5Q615 -201 615 -179V-108Q615 -86 623.5 -66.5Q632 -47 647.0 -32.0Q662 -17 681.5 -8.5Q701 0 723 0Z" style="fill:#990838;stroke:none" transform="scale(1,-1) translate(0,-256)" /></svg>