<?xml version="1.0" encoding="utf-8" ?>
<svg baseProfile="full" height="256" version="1.1" width="256" xmlns="http://www.w3.org/2000/svg" xmlns:ev="http://www.w3.org/2001/xml-events" xmlns:xlink="http://www.w3.org/1999/xlink"><defs /><path d="M2053 924Q2023 924 2002.0 945.0Q1981 966 1981 996Q1981 1026 2002 1047L2156 1201Q2177 1222 2207 1222Q2237 1222 2258.0 1201.0Q2279 1180 2279 1150Q2279 1120 2258 1099L2104 945Q2083 924 2053 924ZM2125 791H2268Q2298 791 2319.0 812.0Q2340 833 2340 863Q2340 892 2318.5 913.5Q2297 935 2268 935H2125Q2096 935 2074.5 913.5Q2053 892 2053 863Q2053 833 2074.0 812.0Q2095 791 2125 791Z" style="fill:#ca0b4a;stroke:none" transform="scale(1,-1) translate(0,-256)" /></svg>