<?xml version="1.0" encoding="utf-8" ?>
<svg baseProfile="full" height="256" version="1.1" width="256" xmlns="http://www.w3.org/2000/svg" xmlns:ev="http://www.w3.org/2001/xml-events" xmlns:xlink="http://www.w3.org/1999/xlink"><defs /><path d="M2125 1330Q2125 1308 2116.5 1288.5Q2108 1269 2093.0 1254.0Q2078 1239 2058.5 1230.5Q2039 1222 2017 1222Q1980 1222 1947.0 1208.0Q1914 1194 1889.5 1169.5Q1865 1145 1851.0 1112.0Q1837 1079 1837 1042V935Q1837 890 1820.0 851.0Q1803 812 1773.5 782.5Q1744 753 1705.0 736.0Q1666 719 1621 719Q1574 719 1535.0 738.0Q1496 757 1467.0 788.5Q1438 820 1422.0 861.0Q1406 902 1406 947V1006Q1406 1095 1439.5 1174.0Q1473 1253 1531.5 1311.5Q1590 1370 1668.5 1404.0Q1747 1438 1837 1438H2017Q2039 1438 2058.5 1429.5Q2078 1421 2093.0 1406.0Q2108 1391 2116.5 1371.5Q2125 1352 2125 1330Z" style="fill:#00a6ed;stroke:none" transform="scale(1,-1) translate(0,-256)" /></svg>