<?xml version="1.0" encoding="utf-8" ?>
<svg baseProfile="full" height="256" version="1.1" width="256" xmlns="http://www.w3.org/2000/svg" xmlns:ev="http://www.w3.org/2001/xml-events" xmlns:xlink="http://www.w3.org/1999/xlink"><defs /><path d="M795 1581Q832 1581 865.0 1567.0Q898 1553 922.5 1528.5Q947 1504 961.0 1471.5Q975 1439 975 1402V1042L831 935L493 1243Q482 1252 477.0 1266.0Q472 1280 472 1294Q472 1323 493.0 1344.5Q514 1366 543 1366Q569 1366 584.0 1353.0Q599 1340 615 1323V1402Q615 1439 629.0 1471.5Q643 1504 667.5 1528.5Q692 1553 725.0 1567.0Q758 1581 795 1581Z" style="fill:#00a6ed;stroke:none" transform="scale(1,-1) translate(0,-256)" /></svg>