<?xml version="1.0" encoding="utf-8" ?>
<svg baseProfile="full" height="256" version="1.1" width="256" xmlns="http://www.w3.org/2000/svg" xmlns:ev="http://www.w3.org/2001/xml-events" xmlns:xlink="http://www.w3.org/1999/xlink"><defs /><path d="M2197 108Q2197 11 2160.0 -74.0Q2123 -159 2059.5 -222.5Q1996 -286 1911.0 -322.5Q1826 -359 1729 -359Q1653 -359 1581.5 -335.5Q1510 -312 1450 -266Q1436 -255 1424.0 -244.0Q1412 -233 1399 -222L779 295Q704 358 662.0 447.0Q620 536 620 635Q620 728 624.0 820.5Q628 913 630 1006H1047V1222H1752Q1844 1222 1925.0 1187.0Q2006 1152 2066.5 1091.5Q2127 1031 2162.0 950.0Q2197 869 2197 777Z" style="fill:#f70a8d;stroke:none" transform="scale(1,-1) translate(0,-256)" /></svg>