<?xml version="1.0" encoding="utf-8" ?>
<svg baseProfile="full" height="256" version="1.1" width="256" xmlns="http://www.w3.org/2000/svg" xmlns:ev="http://www.w3.org/2001/xml-events" xmlns:xlink="http://www.w3.org/1999/xlink"><defs /><path d="M1190 1366V674Q1190 607 1164.0 549.5Q1138 492 1094.0 450.0Q1050 408 991.5 384.0Q933 360 867 360Q801 360 742.5 384.0Q684 408 639.5 450.0Q595 492 569.0 549.5Q543 607 543 674V775Q543 858 565.5 934.5Q588 1011 628.0 1076.5Q668 1142 724.0 1195.5Q780 1249 847.5 1287.0Q915 1325 992.0 1345.5Q1069 1366 1151 1366Z" style="fill:#ff6dc6;stroke:none" transform="scale(1,-1) translate(0,-256)" /></svg>