<?xml version="1.0" encoding="utf-8" ?>
<svg baseProfile="full" height="256" version="1.1" width="256" xmlns="http://www.w3.org/2000/svg" xmlns:ev="http://www.w3.org/2001/xml-events" xmlns:xlink="http://www.w3.org/1999/xlink"><defs /><path d="M1995 117Q1965 117 1944.0 138.0Q1923 159 1923 189V786Q1923 840 1893.0 878.5Q1863 917 1815 936Q1794 944 1779.5 959.5Q1765 975 1765 999Q1765 1031 1780.0 1055.0Q1795 1079 1831 1079Q1840 1079 1849 1076Q1897 1062 1937.0 1034.0Q1977 1006 2005.5 967.5Q2034 929 2050.0 883.0Q2066 837 2066 787V189Q2066 160 2045.0 138.5Q2024 117 1995 117Z" style="fill:#ff6dc6;stroke:none" transform="scale(1,-1) translate(0,-256)" /></svg>