<?xml version="1.0" encoding="utf-8" ?>
<svg baseProfile="full" height="256" version="1.1" width="256" xmlns="http://www.w3.org/2000/svg" xmlns:ev="http://www.w3.org/2001/xml-events" xmlns:xlink="http://www.w3.org/1999/xlink"><defs /><path d="M1705 1521Q1705 1494 1728 1473Q1777 1429 1807.0 1377.5Q1837 1326 1837 1258Q1837 1177 1795.5 1116.5Q1754 1056 1690.5 1015.5Q1627 975 1551.0 955.0Q1475 935 1406 935Q1337 935 1261.0 955.0Q1185 975 1121.5 1015.5Q1058 1056 1016.5 1116.5Q975 1177 975 1258Q975 1328 1009.5 1385.5Q1044 1443 1099 1485Q1091 1497 1078.0 1513.5Q1065 1530 1052.5 1548.0Q1040 1566 1031.0 1584.0Q1022 1602 1022 1617Q1022 1646 1042.5 1667.5Q1063 1689 1093 1689Q1123 1689 1141.0 1669.0Q1159 1649 1174.0 1624.5Q1189 1600 1204.5 1580.0Q1220 1560 1246 1560Q1268 1560 1279.0 1569.0Q1290 1578 1295.0 1591.5Q1300 1605 1300.5 1621.5Q1301 1638 1301 1653Q1301 1682 1321.5 1703.5Q1342 1725 1371 1725Q1406 1725 1423.5 1701.0Q1441 1677 1441 1645Q1441 1614 1465.0 1592.5Q1489 1571 1519 1571Q1548 1571 1562.0 1584.0Q1576 1597 1586.5 1612.0Q1597 1627 1609.5 1640.0Q1622 1653 1649 1653Q1678 1653 1698.5 1631.5Q1719 1610 1719 1581Q1719 1564 1712.0 1551.0Q1705 1538 1705 1521Z" style="fill:#ca0b4a;stroke:none" transform="scale(1,-1) translate(0,-256)" /></svg>