<?xml version="1.0" encoding="utf-8" ?>
<svg baseProfile="full" height="256" version="1.1" width="256" xmlns="http://www.w3.org/2000/svg" xmlns:ev="http://www.w3.org/2001/xml-events" xmlns:xlink="http://www.w3.org/1999/xlink"><defs /><path d="M2197 935 1574 432Q1535 400 1497.5 367.0Q1460 334 1422.0 301.0Q1384 268 1344.5 237.5Q1305 207 1262 180Q1230 160 1196.0 145.5Q1162 131 1127.5 118.0Q1093 105 1058.0 93.0Q1023 81 989 67L443 -160Q421 -125 410.5 -83.5Q400 -42 400 0V1288Q400 1319 411.5 1346.0Q423 1373 443.5 1393.5Q464 1414 491.0 1426.0Q518 1438 549 1438H1029Q1072 1438 1113.0 1421.5Q1154 1405 1184 1374L1360 1194Q1381 1173 1409.0 1161.5Q1437 1150 1466 1150H2053Q2084 1150 2110.0 1139.0Q2136 1128 2155.5 1108.5Q2175 1089 2186.0 1063.0Q2197 1037 2197 1006Z" style="fill:#ffb02e;stroke:none" transform="scale(1,-1) translate(0,-256)" /></svg>