<?xml version="1.0" encoding="utf-8" ?>
<svg baseProfile="full" height="256" version="1.1" width="256" xmlns="http://www.w3.org/2000/svg" xmlns:ev="http://www.w3.org/2001/xml-events" xmlns:xlink="http://www.w3.org/1999/xlink"><defs /><path d="M2262 935Q2293 935 2320.0 923.0Q2347 911 2367.5 890.5Q2388 870 2400.0 843.0Q2412 816 2412 785Q2412 761 2405 740L2120 -183Q2106 -230 2068.0 -258.5Q2030 -287 1981 -287Q1651 -287 1325.5 -287.5Q1000 -288 670 -288Q595 -288 531.5 -249.0Q468 -210 433 -144Q441 -148 446 -148Q456 -148 464.0 -143.0Q472 -138 478 -130Q481 -126 494.5 -89.5Q508 -53 528.5 4.0Q549 61 574.0 133.5Q599 206 625.5 283.5Q652 361 678.0 437.5Q704 514 726.5 579.0Q749 644 765.5 691.5Q782 739 789 759Q804 798 828.5 830.5Q853 863 885.5 886.5Q918 910 957.0 922.5Q996 935 1038 935H2262Z" style="fill:#fcd53f;stroke:none" transform="scale(1,-1) translate(0,-256)" /></svg>