<?xml version="1.0" encoding="utf-8" ?>
<svg baseProfile="full" height="256" version="1.1" width="256" xmlns="http://www.w3.org/2000/svg" xmlns:ev="http://www.w3.org/2001/xml-events" xmlns:xlink="http://www.w3.org/1999/xlink"><defs /><path d="M1272 1438Q1272 1415 1256.5 1399.5Q1241 1384 1218 1384Q1196 1384 1180.0 1400.0Q1164 1416 1164 1438V1725Q1164 1747 1180.0 1763.0Q1196 1779 1218 1779Q1241 1779 1256.5 1763.5Q1272 1748 1272 1725ZM619 1588Q641 1588 657 1572L881 1349Q897 1333 897 1310Q897 1287 881.0 1271.5Q865 1256 842 1256Q820 1256 804 1272L581 1496Q565 1512 565 1534Q565 1557 580.5 1572.5Q596 1588 619 1588ZM346 925Q346 948 362.0 963.0Q378 978 400 978H679Q701 978 717.0 963.0Q733 948 733 925Q733 902 717.5 886.5Q702 871 679 871H400Q377 871 361.5 886.5Q346 902 346 925ZM1501 1314Q1501 1264 1465.5 1195.0Q1430 1126 1372.5 1052.0Q1315 978 1242.5 905.5Q1170 833 1096.0 775.5Q1022 718 953.0 682.5Q884 647 834 647Q769 647 769 712Q769 762 804.5 831.0Q840 900 897.5 974.0Q955 1048 1027.5 1120.5Q1100 1193 1174.0 1250.5Q1248 1308 1317.0 1343.5Q1386 1379 1436 1379Q1501 1379 1501 1314Z" style="fill:#f9c23c;stroke:none" transform="scale(1,-1) translate(0,-256)" /></svg>