<?xml version="1.0" encoding="utf-8" ?>
<svg baseProfile="full" height="256" version="1.1" width="256" xmlns="http://www.w3.org/2000/svg" xmlns:ev="http://www.w3.org/2001/xml-events" xmlns:xlink="http://www.w3.org/1999/xlink"><defs /><path d="M1742 813 2275 280Q2316 239 2338.0 185.5Q2360 132 2360 74Q2360 12 2336.5 -42.5Q2313 -97 2272.5 -137.5Q2232 -178 2178.0 -201.5Q2124 -225 2062 -225Q2003 -225 1950.5 -203.0Q1898 -181 1856 -139L1313 403Q1286 400 1260 400Q1162 400 1071.5 437.0Q981 474 912 544L1177 971L1604 1236Q1673 1167 1710.5 1077.0Q1748 987 1748 889Q1748 850 1742 813Z" style="fill:#b4acbc;stroke:none" transform="scale(1,-1) translate(0,-256)" /></svg>