<?xml version="1.0" encoding="utf-8" ?>
<svg baseProfile="full" height="256" version="1.1" width="256" xmlns="http://www.w3.org/2000/svg" xmlns:ev="http://www.w3.org/2001/xml-events" xmlns:xlink="http://www.w3.org/1999/xlink"><defs /><path d="M543 899Q543 913 554.0 924.0Q565 935 579 935H651Q665 935 676.0 924.0Q687 913 687 899V863Q687 848 676.5 837.5Q666 827 651 827H579Q565 827 554.0 838.0Q543 849 543 863ZM543 611Q543 625 554.0 636.0Q565 647 579 647H651Q666 647 676.5 636.5Q687 626 687 611V539Q687 524 676.5 513.5Q666 503 651 503H579Q565 503 554.0 514.0Q543 525 543 539ZM723 431Q709 431 698.0 420.5Q687 410 687 396V324Q687 309 697.5 298.5Q708 288 723 288H795Q810 288 820.5 298.5Q831 309 831 324V396Q831 410 820.0 420.5Q809 431 795 431ZM795 216Q780 216 769.5 205.5Q759 195 759 180V108Q759 93 769.5 82.5Q780 72 795 72H867Q882 72 892.5 82.5Q903 93 903 108V180Q903 195 892.5 205.5Q882 216 867 216ZM1945 216Q1930 216 1919.5 205.5Q1909 195 1909 180V108Q1909 93 1919.5 82.5Q1930 72 1945 72H2017Q2032 72 2042.5 82.5Q2053 93 2053 108V180Q2053 195 2042.5 205.5Q2032 216 2017 216ZM975 180Q975 195 985.5 205.5Q996 216 1011 216H1801Q1816 216 1826.5 205.5Q1837 195 1837 180V108Q1837 93 1826.5 82.5Q1816 72 1801 72H1011Q996 72 985.5 82.5Q975 93 975 108ZM903 396Q903 410 914.0 420.5Q925 431 939 431H1011Q1025 431 1036.0 420.5Q1047 410 1047 396V324Q1047 310 1036.0 299.0Q1025 288 1011 288H939Q924 288 913.5 298.5Q903 309 903 324ZM1154 431Q1140 431 1129.0 420.5Q1118 410 1118 396V324Q1118 310 1129.0 299.0Q1140 288 1154 288H1226Q1241 288 1251.5 298.5Q1262 309 1262 324V396Q1262 410 1251.0 420.5Q1240 431 1226 431ZM1334 396Q1334 410 1345.0 420.5Q1356 431 1370 431H1442Q1456 431 1467.0 420.5Q1478 410 1478 396V324Q1478 309 1467.5 298.5Q1457 288 1442 288H1370Q1355 288 1344.5 298.5Q1334 309 1334 324ZM1586 431Q1572 431 1561.0 420.5Q1550 410 1550 396V324Q1550 309 1560.5 298.5Q1571 288 1586 288H1658Q1672 288 1682.5 299.0Q1693 310 1693 324V396Q1693 410 1682.5 420.5Q1672 431 1658 431ZM1765 396Q1765 410 1776.0 420.5Q1787 431 1801 431H1873Q1887 431 1898.0 420.5Q1909 410 1909 396V324Q1909 309 1898.5 298.5Q1888 288 1873 288H1801Q1786 288 1775.5 298.5Q1765 309 1765 324ZM2017 431Q2003 431 1992.0 420.5Q1981 410 1981 396V324Q1981 309 1991.5 298.5Q2002 288 2017 288H2089Q2104 288 2114.5 298.5Q2125 309 2125 324V396Q2125 410 2114.0 420.5Q2103 431 2089 431ZM795 647Q780 647 769.5 636.5Q759 626 759 611V539Q759 524 769.5 513.5Q780 503 795 503H867Q882 503 892.5 513.5Q903 524 903 539V611Q903 626 892.5 636.5Q882 647 867 647ZM975 611Q975 626 985.5 636.5Q996 647 1011 647H1083Q1097 647 1107.5 636.0Q1118 625 1118 611V539Q1118 525 1107.5 514.0Q1097 503 1083 503H1011Q996 503 985.5 513.5Q975 524 975 539ZM1226 647Q1211 647 1200.5 636.5Q1190 626 1190 611V539Q1190 524 1200.5 513.5Q1211 503 1226 503H1298Q1313 503 1323.5 513.5Q1334 524 1334 539V611Q1334 626 1323.5 636.5Q1313 647 1298 647ZM1406 611Q1406 626 1416.5 636.5Q1427 647 1442 647H1514Q1529 647 1539.5 636.5Q1550 626 1550 611V539Q1550 524 1539.5 513.5Q1529 503 1514 503H1442Q1427 503 1416.5 513.5Q1406 524 1406 539ZM1658 647Q1643 647 1632.5 636.5Q1622 626 1622 611V539Q1622 524 1632.5 513.5Q1643 503 1658 503H1729Q1744 503 1754.5 513.5Q1765 524 1765 539V611Q1765 626 1754.5 636.5Q1744 647 1729 647ZM1837 611Q1837 626 1847.5 636.5Q1858 647 1873 647H1945Q1960 647 1970.5 636.5Q1981 626 1981 611V539Q1981 524 1970.5 513.5Q1960 503 1945 503H1873Q1858 503 1847.5 513.5Q1837 524 1837 539ZM2089 647Q2074 647 2063.5 636.5Q2053 626 2053 611V539Q2053 524 2063.5 513.5Q2074 503 2089 503H2161Q2175 503 2186.0 514.0Q2197 525 2197 539V611Q2197 625 2186.0 636.0Q2175 647 2161 647ZM1011 935Q997 935 986.0 924.0Q975 913 975 899V863Q975 848 985.5 837.5Q996 827 1011 827H1083Q1097 827 1107.5 838.0Q1118 849 1118 863V899Q1118 913 1107.5 924.0Q1097 935 1083 935ZM1190 899Q1190 913 1201.0 924.0Q1212 935 1226 935H1298Q1312 935 1323.0 924.0Q1334 913 1334 899V863Q1334 848 1323.5 837.5Q1313 827 1298 827H1226Q1211 827 1200.5 837.5Q1190 848 1190 863ZM1442 935Q1428 935 1417.0 924.0Q1406 913 1406 899V863Q1406 848 1416.5 837.5Q1427 827 1442 827H1514Q1529 827 1539.5 837.5Q1550 848 1550 863V899Q1550 913 1539.0 924.0Q1528 935 1514 935ZM1622 899Q1622 913 1633.0 924.0Q1644 935 1658 935H1729Q1743 935 1754.0 924.0Q1765 913 1765 899V863Q1765 848 1754.5 837.5Q1744 827 1729 827H1658Q1643 827 1632.5 837.5Q1622 848 1622 863ZM1873 935Q1859 935 1848.0 924.0Q1837 913 1837 899V863Q1837 848 1847.5 837.5Q1858 827 1873 827H1945Q1960 827 1970.5 837.5Q1981 848 1981 863V899Q1981 913 1970.0 924.0Q1959 935 1945 935ZM2053 899Q2053 913 2064.0 924.0Q2075 935 2089 935H2161Q2175 935 2186.0 924.0Q2197 913 2197 899V863Q2197 849 2186.0 838.0Q2175 827 2161 827H2089Q2074 827 2063.5 837.5Q2053 848 2053 863ZM400 -72V72Q400 27 417.0 -12.0Q434 -51 463.0 -80.5Q492 -110 531.0 -127.0Q570 -144 615 -144H2197Q2242 -144 2281.0 -127.0Q2320 -110 2349.0 -80.5Q2378 -51 2395.0 -12.0Q2412 27 2412 72V-72Q2412 -117 2395.0 -156.0Q2378 -195 2349.0 -224.0Q2320 -253 2281.0 -270.0Q2242 -287 2197 -287H615Q570 -287 531.0 -270.0Q492 -253 463.0 -224.0Q434 -195 417.0 -156.0Q400 -117 400 -72Z" style="fill:#998ea4;stroke:none" transform="scale(1,-1) translate(0,-256)" /></svg>