<?xml version="1.0" encoding="utf-8" ?>
<svg baseProfile="full" height="256" version="1.1" width="256" xmlns="http://www.w3.org/2000/svg" xmlns:ev="http://www.w3.org/2001/xml-events" xmlns:xlink="http://www.w3.org/1999/xlink"><defs /><path d="M2376 1114Q2376 1023 2348.5 938.0Q2321 853 2270.5 782.0Q2220 711 2149.5 656.5Q2079 602 1993 572Q2057 608 2108.0 658.5Q2159 709 2194.5 769.5Q2230 830 2249.0 899.5Q2268 969 2268 1042Q2268 1154 2225.5 1252.0Q2183 1350 2110.0 1423.0Q2037 1496 1939.0 1538.5Q1841 1581 1729 1581Q1656 1581 1586.5 1562.0Q1517 1543 1456.5 1507.5Q1396 1472 1345.5 1421.0Q1295 1370 1259 1306Q1289 1392 1343.5 1462.5Q1398 1533 1469.0 1583.5Q1540 1634 1625.0 1661.5Q1710 1689 1801 1689Q1920 1689 2025.0 1644.0Q2130 1599 2208.0 1521.0Q2286 1443 2331.0 1338.0Q2376 1233 2376 1114ZM1679 128Q1679 68 1659.0 12.5Q1639 -43 1601 -89Q1622 -29 1622 36Q1622 118 1591.0 190.0Q1560 262 1506.0 315.5Q1452 369 1380.0 400.0Q1308 431 1226 431Q1206 431 1186.0 429.5Q1166 428 1146 423Q1188 449 1234.5 461.5Q1281 474 1329 474Q1401 474 1464.5 447.0Q1528 420 1576.0 373.5Q1624 327 1651.5 263.5Q1679 200 1679 128Z" style="fill:#aeddff;stroke:none" transform="scale(1,-1) translate(0,-256)" /></svg>