<?xml version="1.0" encoding="utf-8" ?>
<svg baseProfile="full" height="256" version="1.1" width="256" xmlns="http://www.w3.org/2000/svg" xmlns:ev="http://www.w3.org/2001/xml-events" xmlns:xlink="http://www.w3.org/1999/xlink"><defs /><path d="M2051 1081Q2052 1089 2052.5 1097.5Q2053 1106 2053 1114Q2053 1166 2033.0 1211.5Q2013 1257 1978.5 1291.5Q1944 1326 1898.5 1346.0Q1853 1366 1801 1366Q1793 1366 1784.5 1365.5Q1776 1365 1768 1364Q1771 1396 1785 1427Q1835 1449 1887 1449Q1939 1449 1985.0 1429.0Q2031 1409 2065.0 1375.0Q2099 1341 2119.0 1295.0Q2139 1249 2139 1197Q2139 1145 2120 1100Q2103 1093 2086.0 1088.0Q2069 1083 2051 1081ZM890 804Q883 801 876.5 798.5Q870 796 863 794Q867 809 867 827Q867 857 855.5 883.0Q844 909 824.5 928.5Q805 948 779.0 959.5Q753 971 723 971Q715 971 707.0 970.0Q699 969 691 967Q693 974 694.5 981.0Q696 988 700 994Q728 1006 759 1006Q789 1006 815.0 995.0Q841 984 860.5 964.5Q880 945 891.5 919.0Q903 893 903 863Q903 835 890 804ZM1410 72Q1403 105 1385.5 133.5Q1368 162 1343.0 182.5Q1318 203 1286.5 214.5Q1255 226 1221 226Q1213 226 1206.0 226.0Q1199 226 1191 224Q1191 229 1190.5 234.0Q1190 239 1190 244Q1190 253 1191.0 262.0Q1192 271 1194 280Q1211 291 1230.5 296.0Q1250 301 1270 301Q1307 301 1342.5 288.0Q1378 275 1405.5 251.5Q1433 228 1449.5 195.5Q1466 163 1466 124Q1466 116 1466.0 109.5Q1466 103 1464 96Q1438 81 1410 72Z" style="fill:#ebcaff;stroke:none" transform="scale(1,-1) translate(0,-256)" /></svg>