<?xml version="1.0" encoding="utf-8" ?>
<svg baseProfile="full" height="256" version="1.1" width="256" xmlns="http://www.w3.org/2000/svg" xmlns:ev="http://www.w3.org/2001/xml-events" xmlns:xlink="http://www.w3.org/1999/xlink"><defs /><path d="M2411 1078Q2411 1037 2399.5 987.0Q2388 937 2368.5 887.5Q2349 838 2323.0 793.5Q2297 749 2268 720Q2256 708 2241.0 697.0Q2226 686 2212 675Q2175 648 2135.5 623.0Q2096 598 2053.0 579.5Q2010 561 1965.0 550.0Q1920 539 1873 539Q1864 539 1855.5 544.5Q1847 550 1838.5 557.5Q1830 565 1820.5 571.0Q1811 577 1801 579Q1916 592 2014.5 645.5Q2113 699 2185.5 780.5Q2258 862 2299.0 966.0Q2340 1070 2340 1186Q2340 1237 2332.0 1287.0Q2324 1337 2307 1385Q2338 1367 2358.5 1329.0Q2379 1291 2390.5 1246.5Q2402 1202 2406.5 1156.5Q2411 1111 2411 1078ZM992 970Q1001 944 1006.0 917.0Q1011 890 1011 863Q1011 801 989.0 745.5Q967 690 928.5 647.0Q890 604 837.0 576.0Q784 548 723 541Q733 541 739.5 534.5Q746 528 756 528Q814 528 867.0 548.5Q920 569 959.5 606.0Q999 643 1022.5 693.5Q1046 744 1046 804Q1046 823 1043.0 846.0Q1040 869 1034.0 892.5Q1028 916 1017.5 936.5Q1007 957 992 970ZM1632 284Q1663 237 1678.0 192.5Q1693 148 1693 90Q1693 61 1685.5 27.0Q1678 -7 1665.0 -40.0Q1652 -73 1634.0 -102.5Q1616 -132 1595 -153Q1571 -177 1539.5 -197.5Q1508 -218 1472.5 -233.0Q1437 -248 1400.0 -256.5Q1363 -265 1330 -265Q1320 -265 1313.5 -258.0Q1307 -251 1298 -250Q1374 -243 1440.0 -209.5Q1506 -176 1554.5 -123.0Q1603 -70 1630.5 -1.5Q1658 67 1658 144Q1658 215 1632 284Z" style="fill:#fcd53f;stroke:none" transform="scale(1,-1) translate(0,-256)" /></svg>