<?xml version="1.0" encoding="utf-8" ?>
<svg baseProfile="full" height="256" version="1.1" width="256" xmlns="http://www.w3.org/2000/svg" xmlns:ev="http://www.w3.org/2001/xml-events" xmlns:xlink="http://www.w3.org/1999/xlink"><defs /><path d="M1956 1521Q2008 1521 2054.0 1501.0Q2100 1481 2134.0 1447.0Q2168 1413 2188.0 1367.0Q2208 1321 2208 1269Q2208 1254 2205.0 1233.5Q2202 1213 2196.0 1192.5Q2190 1172 2181.5 1153.5Q2173 1135 2162 1124Q2159 1121 2152.0 1117.0Q2145 1113 2136.5 1108.5Q2128 1104 2120.0 1100.5Q2112 1097 2108 1095Q2125 1140 2125 1186Q2125 1238 2105.0 1284.0Q2085 1330 2051.0 1364.0Q2017 1398 1971.0 1418.0Q1925 1438 1873 1438Q1827 1438 1782 1421Q1784 1425 1787.5 1433.0Q1791 1441 1795.5 1449.5Q1800 1458 1804.0 1465.0Q1808 1472 1811 1475Q1822 1486 1840.5 1494.5Q1859 1503 1879.5 1509.0Q1900 1515 1920.5 1518.0Q1941 1521 1956 1521ZM890 804Q903 835 903 863Q903 893 891.5 919.0Q880 945 860.5 964.5Q841 984 815.0 995.0Q789 1006 759 1006Q728 1006 700 994L713 1017Q731 1030 751.0 1039.5Q771 1049 794 1049Q864 1049 905.5 1011.0Q947 973 947 901Q947 888 943.0 873.0Q939 858 931.5 844.5Q924 831 913.5 820.0Q903 809 890 804ZM1459 93Q1459 134 1444.5 170.0Q1430 206 1404.0 233.0Q1378 260 1343.0 275.5Q1308 291 1266 291Q1229 291 1193 277Q1207 335 1239.0 358.0Q1271 381 1330 381Q1364 381 1398.5 370.0Q1433 359 1459 336Q1472 324 1484.0 306.5Q1496 289 1505.0 269.0Q1514 249 1519.0 228.5Q1524 208 1524 190Q1524 157 1505.0 133.5Q1486 110 1459 93Z" style="fill:#efd5ff;stroke:none" transform="scale(1,-1) translate(0,-256)" /></svg>