<?xml version="1.0" encoding="utf-8" ?>
<svg baseProfile="full" height="256" version="1.1" width="256" xmlns="http://www.w3.org/2000/svg" xmlns:ev="http://www.w3.org/2001/xml-events" xmlns:xlink="http://www.w3.org/1999/xlink"><defs /><path d="M2411 1078Q2404 1199 2353.5 1304.0Q2303 1409 2220.5 1486.5Q2138 1564 2030.0 1608.5Q1922 1653 1801 1653Q1780 1653 1759.0 1651.5Q1738 1650 1717 1648Q1795 1668 1873 1668Q1914 1668 1960.5 1661.0Q2007 1654 2053.5 1640.5Q2100 1627 2142.5 1607.0Q2185 1587 2217 1561Q2233 1548 2247.5 1531.5Q2262 1515 2275 1499Q2342 1417 2377.0 1318.5Q2412 1220 2412 1114Q2412 1105 2412.0 1096.0Q2412 1087 2411 1078ZM1047 827Q1047 822 1046.5 818.0Q1046 814 1046 809Q1043 870 1018.0 924.5Q993 979 952.0 1020.0Q911 1061 856.5 1086.0Q802 1111 741 1114Q746 1114 749.5 1117.0Q753 1120 758 1120Q822 1120 875.0 1098.0Q928 1076 966.5 1037.0Q1005 998 1026.0 944.5Q1047 891 1047 827ZM1693 90Q1690 166 1659.0 233.5Q1628 301 1577.5 351.5Q1527 402 1459.5 433.0Q1392 464 1316 467Q1322 468 1329.0 474.0Q1336 480 1343 480Q1376 480 1411.0 471.5Q1446 463 1479.0 448.0Q1512 433 1542.0 413.0Q1572 393 1595 369Q1619 344 1637.0 313.0Q1655 282 1667.5 247.5Q1680 213 1686.5 177.5Q1693 142 1693 108ZM1334 -251Q1406 -251 1473.5 -226.0Q1541 -201 1595 -153Q1538 -217 1460.5 -252.0Q1383 -287 1298 -287Q1265 -287 1227.0 -280.0Q1189 -273 1152.5 -259.5Q1116 -246 1083.0 -226.0Q1050 -206 1028 -181Q984 -131 958.5 -66.5Q933 -2 933 64Q933 105 939 144Q939 62 970.0 -10.0Q1001 -82 1054.5 -135.5Q1108 -189 1180.0 -220.0Q1252 -251 1334 -251ZM759 539Q817 539 871.0 559.0Q925 579 969 617Q923 563 859.0 533.0Q795 503 723 503Q694 503 660.0 510.5Q626 518 593.0 531.5Q560 545 531.5 564.5Q503 584 485 608Q469 629 458.0 656.5Q447 684 440.0 714.0Q433 744 429.5 773.5Q426 803 426 829Q426 834 430.0 846.5Q434 859 436 863Q436 796 461.5 737.0Q487 678 530.5 634.0Q574 590 633.0 564.5Q692 539 759 539ZM1801 503Q1711 503 1626.0 528.5Q1541 554 1466 604Q1452 614 1435.5 625.0Q1419 636 1407 648Q1394 661 1382.5 677.0Q1371 693 1360 707Q1333 743 1308.5 782.5Q1284 822 1265.5 864.0Q1247 906 1236.5 950.5Q1226 995 1226 1042Q1226 1051 1231.5 1059.5Q1237 1068 1244.5 1076.5Q1252 1085 1258.0 1094.0Q1264 1103 1266 1114Q1279 999 1332.5 900.5Q1386 802 1467.5 729.5Q1549 657 1653.0 616.0Q1757 575 1873 575Q1982 575 2083.0 612.5Q2184 650 2268 720Q2180 616 2058.5 559.5Q1937 503 1801 503Z" style="fill:#ff6dc6;stroke:none" transform="scale(1,-1) translate(0,-256)" /></svg>