<?xml version="1.0" encoding="utf-8" ?>
<svg baseProfile="full" height="256" version="1.1" width="256" xmlns="http://www.w3.org/2000/svg" xmlns:ev="http://www.w3.org/2001/xml-events" xmlns:xlink="http://www.w3.org/1999/xlink"><defs /><path d="M1801 575Q1690 575 1591.5 617.5Q1493 660 1420.0 733.0Q1347 806 1304.5 904.5Q1262 1003 1262 1114Q1262 1225 1304.5 1323.5Q1347 1422 1420.0 1495.0Q1493 1568 1591.5 1610.5Q1690 1653 1801 1653Q1913 1653 2011.0 1610.5Q2109 1568 2182.0 1495.0Q2255 1422 2297.5 1324.0Q2340 1226 2340 1114Q2340 1003 2297.5 904.5Q2255 806 2182.0 733.0Q2109 660 2010.5 617.5Q1912 575 1801 575ZM1029 836Q1029 774 1005.5 720.0Q982 666 942.0 626.0Q902 586 847.5 562.5Q793 539 732 539Q670 539 616.5 562.5Q563 586 522.5 626.0Q482 666 459.0 720.0Q436 774 436 836Q436 897 459.5 951.0Q483 1005 523.0 1045.0Q563 1085 617.0 1108.5Q671 1132 732 1132Q793 1132 847.0 1108.5Q901 1085 941.5 1045.0Q982 1005 1005.5 951.0Q1029 897 1029 836ZM1665 108Q1665 32 1636.0 -35.0Q1607 -102 1557.0 -151.5Q1507 -201 1440.5 -229.5Q1374 -258 1298 -258Q1222 -258 1155.5 -229.0Q1089 -200 1039.5 -150.5Q990 -101 961.0 -34.5Q932 32 932 108Q932 184 961.0 250.5Q990 317 1039.5 366.5Q1089 416 1155.5 445.0Q1222 474 1298 474Q1374 474 1440.5 445.5Q1507 417 1557.0 367.5Q1607 318 1636.0 251.0Q1665 184 1665 108Z" style="fill:#e0aef8;stroke:none" transform="scale(1,-1) translate(0,-256)" /></svg>