<?xml version="1.0" encoding="utf-8" ?>
<svg baseProfile="full" height="256" version="1.1" width="256" xmlns="http://www.w3.org/2000/svg" xmlns:ev="http://www.w3.org/2001/xml-events" xmlns:xlink="http://www.w3.org/1999/xlink"><defs /><path d="M2340 1114Q2340 1021 2309.5 936.0Q2279 851 2224.5 781.5Q2170 712 2094.5 662.5Q2019 613 1929 591Q2022 657 2073.5 757.0Q2125 857 2125 971Q2125 1068 2088.5 1153.0Q2052 1238 1988.5 1301.5Q1925 1365 1840.0 1401.5Q1755 1438 1658 1438Q1544 1438 1444.0 1386.5Q1344 1335 1278 1242Q1300 1332 1349.5 1407.5Q1399 1483 1468.5 1537.5Q1538 1592 1623.0 1622.5Q1708 1653 1801 1653Q1913 1653 2011.0 1610.5Q2109 1568 2182.0 1495.0Q2255 1422 2297.5 1324.0Q2340 1226 2340 1114ZM1658 108Q1658 27 1623.5 -45.5Q1589 -118 1526 -169Q1550 -106 1550 -36Q1550 46 1519.0 118.0Q1488 190 1434.0 244.0Q1380 298 1308.0 329.0Q1236 360 1154 360Q1085 360 1021 336Q1072 399 1144.5 433.0Q1217 467 1298 467Q1372 467 1437.5 439.0Q1503 411 1552.0 362.0Q1601 313 1629.5 248.0Q1658 183 1658 108Z" style="fill:#c4bbf9;stroke:none" transform="scale(1,-1) translate(0,-256)" /></svg>