<?xml version="1.0" encoding="utf-8" ?>
<svg baseProfile="full" height="256" version="1.1" width="256" xmlns="http://www.w3.org/2000/svg" xmlns:ev="http://www.w3.org/2001/xml-events" xmlns:xlink="http://www.w3.org/1999/xlink"><defs /><path d="M1873 1653Q1747 1653 1635.5 1605.0Q1524 1557 1441.0 1474.0Q1358 1391 1310.0 1279.5Q1262 1168 1262 1042Q1262 933 1299.5 832.0Q1337 731 1407 648Q1303 736 1246.5 857.0Q1190 978 1190 1114Q1190 1240 1238.0 1351.5Q1286 1463 1369.0 1546.0Q1452 1629 1563.5 1677.0Q1675 1725 1801 1725Q1937 1725 2058.5 1668.5Q2180 1612 2268 1509Q2184 1579 2083.0 1616.0Q1982 1653 1873 1653ZM969 1037Q925 1075 870.5 1094.5Q816 1114 759 1114Q692 1114 633.5 1088.5Q575 1063 531.0 1019.0Q487 975 461.5 916.5Q436 858 436 791Q436 734 455.5 679.5Q475 625 513 581Q459 627 429.5 691.5Q400 756 400 827Q400 894 425.5 952.5Q451 1011 495.0 1055.0Q539 1099 597.5 1124.5Q656 1150 723 1150Q794 1150 858.5 1120.5Q923 1091 969 1037ZM1595 369Q1541 417 1473.5 442.0Q1406 467 1334 467Q1252 467 1180.0 436.0Q1108 405 1054.5 351.5Q1001 298 970.0 226.0Q939 154 939 72Q939 0 964.0 -67.5Q989 -135 1037 -189Q973 -132 938.0 -54.5Q903 23 903 108Q903 190 934.0 262.0Q965 334 1018.5 387.5Q1072 441 1144.0 472.0Q1216 503 1298 503Q1383 503 1460.5 468.0Q1538 433 1595 369Z" style="fill:#26c9fc;stroke:none" transform="scale(1,-1) translate(0,-256)" /></svg>