<?xml version="1.0" encoding="utf-8" ?>
<svg baseProfile="full" height="256" version="1.1" width="256" xmlns="http://www.w3.org/2000/svg" xmlns:ev="http://www.w3.org/2001/xml-events" xmlns:xlink="http://www.w3.org/1999/xlink"><defs /><path d="M1344 1693 1384 1675 1400 1606H1406Q1437 1606 1459.0 1584.5Q1481 1563 1481 1532Q1481 1512 1470.5 1494.0Q1460 1476 1443 1466L1163 1304Q1174 1308 1187 1308Q1219 1308 1241.5 1286.0Q1264 1264 1264 1232Q1264 1214 1255.0 1195.0Q1246 1176 1229 1167L1055 1071Q994 1037 937.0 1018.0Q880 999 810 999H601L815 1347Q800 1373 785.0 1399.5Q770 1426 756 1453Q847 1506 936.0 1558.0Q1025 1610 1115 1664L1311 1675Q1319 1680 1327.5 1684.5Q1336 1689 1344 1693Z" style="fill:#ff822d;stroke:none" transform="scale(1,-1) translate(0,-256)" /></svg>