<?xml version="1.0" encoding="utf-8" ?>
<svg baseProfile="full" height="256" version="1.1" width="256" xmlns="http://www.w3.org/2000/svg" xmlns:ev="http://www.w3.org/2001/xml-events" xmlns:xlink="http://www.w3.org/1999/xlink"><defs /><path d="M1448 822Q1448 784 1433.5 750.0Q1419 716 1394.0 691.0Q1369 666 1335.0 651.5Q1301 637 1263 637Q1225 637 1191.0 651.5Q1157 666 1132.0 691.0Q1107 716 1092.5 750.0Q1078 784 1078 822Q1078 860 1092.5 893.5Q1107 927 1132.0 952.0Q1157 977 1191.0 991.5Q1225 1006 1263 1006Q1301 1006 1335.0 991.5Q1369 977 1394.0 952.0Q1419 927 1433.5 893.5Q1448 860 1448 822ZM2064 822Q2064 784 2049.5 750.0Q2035 716 2010.0 691.0Q1985 666 1951.0 651.5Q1917 637 1879 637Q1841 637 1807.0 651.5Q1773 666 1748.0 691.0Q1723 716 1708.5 750.0Q1694 784 1694 822Q1694 860 1708.5 893.5Q1723 927 1748.0 952.0Q1773 977 1807.0 991.5Q1841 1006 1879 1006Q1917 1006 1951.0 991.5Q1985 977 2010.0 952.0Q2035 927 2049.5 893.5Q2064 860 2064 822ZM1284 441Q1262 441 1245.5 425.0Q1229 409 1229 387Q1229 377 1232.0 370.0Q1235 363 1240 355Q1263 319 1300.5 290.5Q1338 262 1382.0 242.0Q1426 222 1472.5 211.0Q1519 200 1560 200Q1603 200 1651.0 211.0Q1699 222 1745.0 242.0Q1791 262 1831.5 290.0Q1872 318 1900 351Q1914 368 1914 387Q1914 410 1899.0 425.5Q1884 441 1861 441Q1848 441 1839.0 436.0Q1830 431 1821 423Q1769 372 1701.5 340.0Q1634 308 1560 308Q1491 308 1431.5 337.5Q1372 367 1327 419Q1318 430 1308.0 435.5Q1298 441 1284 441Z" style="fill:#402a32;stroke:none" transform="scale(1,-1) translate(0,-256)" /></svg>