<?xml version="1.0" encoding="utf-8" ?>
<svg baseProfile="full" height="256" version="1.1" width="256" xmlns="http://www.w3.org/2000/svg" xmlns:ev="http://www.w3.org/2001/xml-events" xmlns:xlink="http://www.w3.org/1999/xlink"><defs /><path d="M1030 1667Q1061 1667 1083 1645L1203 1715Q1219 1725 1240 1725Q1263 1725 1284.0 1711.5Q1305 1698 1311 1675Q1326 1683 1339.0 1689.5Q1352 1696 1369 1696Q1400 1696 1422.0 1674.5Q1444 1653 1444 1622Q1444 1602 1433.5 1584.0Q1423 1566 1406 1556L929 1281Q934 1297 937.0 1313.5Q940 1330 942 1347L1297 1552Q1323 1567 1338.0 1593.5Q1353 1620 1353 1649Q1353 1672 1344 1693Q1336 1689 1327.5 1684.5Q1319 1680 1311 1675Q1316 1662 1316 1649Q1316 1629 1305.5 1611.5Q1295 1594 1278 1584L943 1391V1413L1085 1495Q1111 1510 1126.5 1536.5Q1142 1563 1142 1593Q1142 1612 1135.5 1631.0Q1129 1650 1115 1664L1083 1645Q1105 1623 1105 1593Q1105 1573 1094.5 1555.0Q1084 1537 1067 1527L902 1432Q902 1317 849.5 1220.0Q797 1123 698 1060L601 999Q558 999 521.0 1015.0Q484 1031 457.0 1059.0Q430 1087 415.0 1124.5Q400 1162 400 1205Q400 1262 429.0 1311.0Q458 1360 509 1387L678 1477V1476L992 1657Q1009 1667 1030 1667Z" style="fill:#ffb02e;stroke:none" transform="scale(1,-1) translate(0,-256)" /></svg>