<?xml version="1.0" encoding="utf-8" ?>
<svg baseProfile="full" height="256" version="1.1" width="256" xmlns="http://www.w3.org/2000/svg" xmlns:ev="http://www.w3.org/2001/xml-events" xmlns:xlink="http://www.w3.org/1999/xlink"><defs /><path d="M1571 -287Q1373 -287 1214.0 -226.5Q1055 -166 942.5 -53.5Q830 59 769.5 218.5Q709 378 709 575Q709 772 769.5 931.5Q830 1091 942.0 1203.5Q1054 1316 1213.5 1377.0Q1373 1438 1571 1438Q1769 1438 1928.5 1377.0Q2088 1316 2200.5 1203.5Q2313 1091 2373.5 931.5Q2434 772 2434 575Q2434 378 2373.5 218.5Q2313 59 2200.5 -53.5Q2088 -166 1928.5 -226.5Q1769 -287 1571 -287Z" style="fill:#ffb02e;stroke:none" transform="scale(1,-1) translate(0,-256)" /></svg>