<?xml version="1.0" encoding="utf-8" ?>
<svg baseProfile="full" height="256" version="1.1" width="256" xmlns="http://www.w3.org/2000/svg" xmlns:ev="http://www.w3.org/2001/xml-events" xmlns:xlink="http://www.w3.org/1999/xlink"><defs /><path d="M1227 561Q1173 561 1126.0 581.5Q1079 602 1044.0 637.0Q1009 672 988.5 719.0Q968 766 968 820Q968 874 988.5 921.0Q1009 968 1044.0 1003.5Q1079 1039 1126.0 1059.5Q1173 1080 1227 1080Q1281 1080 1328.0 1059.5Q1375 1039 1410.0 1003.5Q1445 968 1465.5 921.0Q1486 874 1486 820Q1486 766 1465.5 719.0Q1445 672 1410.0 637.0Q1375 602 1328.0 581.5Q1281 561 1227 561ZM1914 557Q1860 557 1812.5 577.5Q1765 598 1729.5 633.5Q1694 669 1673.5 716.5Q1653 764 1653 818Q1653 872 1673.5 919.5Q1694 967 1729.5 1003.0Q1765 1039 1812.5 1059.5Q1860 1080 1914 1080Q1968 1080 2015.5 1059.5Q2063 1039 2099.0 1003.0Q2135 967 2155.5 919.5Q2176 872 2176 818Q2176 764 2155.5 716.5Q2135 669 2099.0 633.5Q2063 598 2015.5 577.5Q1968 557 1914 557Z" style="fill:#ffffff;stroke:none" transform="scale(1,-1) translate(0,-256)" /></svg>