<?xml version="1.0" encoding="utf-8" ?>
<svg baseProfile="full" height="256" version="1.1" width="256" xmlns="http://www.w3.org/2000/svg" xmlns:ev="http://www.w3.org/2001/xml-events" xmlns:xlink="http://www.w3.org/1999/xlink"><defs /><path d="M2060 1373 2279 1155Q2292 1169 2306.0 1177.5Q2320 1186 2340 1186Q2370 1186 2391.0 1165.0Q2412 1144 2412 1114Q2412 1086 2391 1063Q2353 1022 2307.5 988.5Q2262 955 2212.0 930.0Q2162 905 2107.5 891.5Q2053 878 1997 878Q1922 878 1857.0 895.5Q1792 913 1731.0 936.0Q1670 959 1609.0 982.5Q1548 1006 1482 1017L1593 906L1542 855L1378 1019Q1336 1011 1299.5 991.5Q1263 972 1231 944L1431 744L1381 694L1181 893Q1158 867 1140.0 838.0Q1122 809 1111 777L1288 601L1237 550L1097 689Q1096 641 1110.5 587.5Q1125 534 1139 488Q1100 505 1058.0 518.0Q1016 531 974 541Q965 576 959.0 613.0Q953 650 953 687Q953 747 971.0 806.0Q989 865 1021.0 918.5Q1053 972 1097.5 1017.0Q1142 1062 1194.0 1095.5Q1246 1129 1304.5 1147.5Q1363 1166 1424 1166Q1499 1166 1570.5 1143.5Q1642 1121 1712.0 1094.0Q1782 1067 1852.0 1044.5Q1922 1022 1994 1022Q2001 1022 2008.0 1021.5Q2015 1021 2022 1023L1866 1179L1917 1230L2105 1041Q2137 1052 2167.0 1069.0Q2197 1086 2224 1107L2009 1322ZM1212 223Q1214 203 1215.5 183.5Q1217 164 1217 144Q1217 84 1203.0 28.0Q1189 -28 1163.5 -79.5Q1138 -131 1103.0 -178.0Q1068 -225 1026 -266Q1003 -287 975 -287Q945 -287 924.0 -266.0Q903 -245 903 -216Q903 -200 910.0 -187.0Q917 -174 926.5 -162.0Q936 -150 947.5 -138.5Q959 -127 968 -116L770 83L820 133L1012 -58Q1027 -34 1039.0 -8.5Q1051 17 1059 45L895 208L946 259L1073 132V146Q1073 185 1066.5 223.5Q1060 262 1049 300L1118 324Z" style="fill:#46a4fb;stroke:none" transform="scale(1,-1) translate(0,-256)" /></svg>