<?xml version="1.0" encoding="utf-8" ?>
<svg baseProfile="full" height="256" version="1.1" width="256" xmlns="http://www.w3.org/2000/svg" xmlns:ev="http://www.w3.org/2001/xml-events" xmlns:xlink="http://www.w3.org/1999/xlink"><defs /><path d="M1873 1653Q1873 1633 1864.5 1619.0Q1856 1605 1842 1592L2060 1373V1327L2009 1322L1795 1537Q1774 1510 1757.0 1480.0Q1740 1450 1729 1417L1917 1230V1175L1866 1179L1715 1330V1326Q1715 1257 1736.5 1190.5Q1758 1124 1786 1062Q1791 1052 1795.5 1043.0Q1800 1034 1800 1023Q1800 1013 1796.5 1001.0Q1793 989 1788.0 977.0Q1783 965 1777.0 954.0Q1771 943 1765 935L1879 791Q1885 758 1885 724Q1885 665 1866.5 608.5Q1848 552 1815.5 502.0Q1783 452 1738.5 409.5Q1694 367 1642.0 336.5Q1590 306 1533.0 289.0Q1476 272 1418 272Q1360 272 1304.0 285.0Q1248 298 1193 316L1118 288L1027 375Q977 392 926.5 404.0Q876 416 823 416Q815 416 807.0 415.5Q799 415 791 415L946 259L939 208H895L707 397Q681 388 656.0 375.0Q631 362 608 346L820 133V90L770 83L552 301Q543 293 534.0 284.0Q525 275 516.0 268.0Q507 261 496.0 256.5Q485 252 471 252Q442 252 421.0 273.0Q400 294 400 323Q400 351 421 374Q503 459 605.0 509.5Q707 560 826 560Q864 560 901.0 554.5Q938 549 975 540L1047 575L1138 488Q1195 469 1251.0 448.5Q1307 428 1367 419L1237 550V601H1288L1469 419Q1504 425 1536.0 440.5Q1568 456 1597 478L1381 694L1376 744H1431L1650 526Q1678 555 1700.0 589.5Q1722 624 1733 664L1542 855V906H1593L1738 761Q1735 786 1728.5 810.5Q1722 835 1714 858L1738 979L1654 1005Q1620 1084 1595.5 1162.0Q1571 1240 1571 1327Q1571 1381 1584.5 1433.0Q1598 1485 1622.0 1533.0Q1646 1581 1679.0 1624.5Q1712 1668 1750 1704Q1773 1725 1801 1725Q1831 1725 1852.0 1704.0Q1873 1683 1873 1653Z" style="fill:#f8312f;stroke:none" transform="scale(1,-1) translate(0,-256)" /></svg>