<?xml version="1.0" encoding="utf-8" ?>
<svg baseProfile="full" height="256" version="1.1" width="256" xmlns="http://www.w3.org/2000/svg" xmlns:ev="http://www.w3.org/2001/xml-events" xmlns:xlink="http://www.w3.org/1999/xlink"><defs /><path d="M1046 1164Q1046 1196 1057.0 1231.0Q1068 1266 1083 1294Q1112 1349 1154.5 1389.0Q1197 1429 1248.5 1455.0Q1300 1481 1358.5 1494.0Q1417 1507 1477 1507Q1552 1507 1614.0 1478.5Q1676 1450 1726.0 1403.0Q1776 1356 1812.5 1295.0Q1849 1234 1873 1170Q1887 1132 1897.5 1089.0Q1908 1046 1908 1006Q1908 974 1888.5 954.0Q1869 934 1837 934Q1805 934 1785.0 954.0Q1765 974 1765 1006Q1765 1066 1740.5 1130.0Q1716 1194 1673.5 1246.0Q1631 1298 1574.0 1331.5Q1517 1365 1453 1365Q1414 1365 1368.5 1355.5Q1323 1346 1279.5 1327.5Q1236 1309 1199.0 1282.5Q1162 1256 1140 1222Q1132 1211 1125.0 1194.0Q1118 1177 1118 1163V997Q1210 911 1300.5 826.0Q1391 741 1483 655L1623 525Q1637 512 1651.0 500.0Q1665 488 1678 474Q1689 463 1689 452Q1689 436 1672 436Q1668 436 1644.5 449.5Q1621 463 1585.0 485.5Q1549 508 1503.5 537.5Q1458 567 1410.0 598.5Q1362 630 1314.5 661.5Q1267 693 1227.5 719.5Q1188 746 1159.0 765.0Q1130 784 1118 792V576H1150Q1228 576 1299.5 549.0Q1371 522 1424 461Q1434 449 1434 436Q1434 421 1423.5 410.5Q1413 400 1398 400Q1383 400 1372 411Q1345 436 1321.0 453.5Q1297 471 1272.5 482.5Q1248 494 1219.0 499.0Q1190 504 1152 504H1118V57Q1118 49 1121.0 45.0Q1124 41 1131 37Q1136 36 1142.0 36.0Q1148 36 1153 36Q1203 36 1238.0 57.5Q1273 79 1299.0 111.5Q1325 144 1344.0 181.5Q1363 219 1381.0 251.5Q1399 284 1418.0 305.5Q1437 327 1463 327Q1490 327 1507.5 318.5Q1525 310 1535.5 295.0Q1546 280 1550.0 259.5Q1554 239 1554 215Q1554 201 1552.5 186.0Q1551 171 1549 156Q1541 105 1514.0 63.0Q1487 21 1447.0 -9.0Q1407 -39 1358.5 -55.5Q1310 -72 1260 -72Q1231 -72 1194.0 -66.0Q1157 -60 1124.0 -45.0Q1091 -30 1068.5 -5.5Q1046 19 1046 57Z" style="fill:#d67d00;stroke:none" transform="scale(1,-1) translate(0,-256)" /></svg>