<?xml version="1.0" encoding="utf-8" ?>
<svg baseProfile="full" height="256" version="1.1" width="256" xmlns="http://www.w3.org/2000/svg" xmlns:ev="http://www.w3.org/2001/xml-events" xmlns:xlink="http://www.w3.org/1999/xlink"><defs /><path d="M768 205V1072Q768 1166 792.0 1251.0Q816 1336 860.0 1408.5Q904 1481 965.0 1539.0Q1026 1597 1101.0 1638.0Q1176 1679 1261.5 1701.0Q1347 1723 1440 1723Q1551 1723 1649.0 1695.0Q1747 1667 1828.5 1613.0Q1910 1559 1973.0 1479.5Q2036 1400 2077 1297Q2098 1245 2111.5 1187.0Q2125 1129 2125 1072Q2125 980 2106.0 906.5Q2087 833 2055.5 766.5Q2024 700 1984.0 635.0Q1944 570 1902 495Q1853 407 1805.0 321.0Q1757 235 1709 147Q1665 68 1618.5 -10.0Q1572 -88 1513.0 -150.5Q1454 -213 1377.0 -251.5Q1300 -290 1195 -290Q1097 -290 1018.0 -246.5Q939 -203 883.5 -133.0Q828 -63 798.0 25.5Q768 114 768 205Z" style="fill:#ffc83d;stroke:none" transform="scale(1,-1) translate(0,-256)" /></svg>