<?xml version="1.0" encoding="utf-8" ?>
<svg baseProfile="full" height="256" version="1.1" width="256" xmlns="http://www.w3.org/2000/svg" xmlns:ev="http://www.w3.org/2001/xml-events" xmlns:xlink="http://www.w3.org/1999/xlink"><defs /><path d="M2125 1294Q2126 1294 2146.0 1289.0Q2166 1284 2196.0 1276.5Q2226 1269 2261.5 1260.0Q2297 1251 2329.0 1243.0Q2361 1235 2384.0 1229.0Q2407 1223 2412 1222V-72H887Q861 -72 842.5 -56.5Q824 -41 817 -17Q805 27 794.0 73.0Q783 119 783 165Q783 259 829 340Q832 346 843.0 365.0Q854 384 867.5 409.5Q881 435 896.5 463.0Q912 491 925.5 515.0Q939 539 949.0 555.5Q959 572 961 575Q976 593 989.0 606.0Q1002 619 1015.5 631.0Q1029 643 1043.0 655.0Q1057 667 1073 683L1298 899Q1306 907 1311.0 916.5Q1316 926 1323 934Q1340 954 1359.0 972.0Q1378 990 1399 1006Q1438 1037 1493.0 1070.0Q1548 1103 1612.0 1135.0Q1676 1167 1745.5 1196.0Q1815 1225 1882.5 1246.5Q1950 1268 2012.5 1281.0Q2075 1294 2125 1294Z" style="fill:#f4f4f4;stroke:none" transform="scale(1,-1) translate(0,-256)" /></svg>