<?xml version="1.0" encoding="utf-8" ?>
<svg baseProfile="full" height="256" version="1.1" width="256" xmlns="http://www.w3.org/2000/svg" xmlns:ev="http://www.w3.org/2001/xml-events" xmlns:xlink="http://www.w3.org/1999/xlink"><defs /><path d="M961 575Q962 578 969.0 589.5Q976 601 984.5 616.5Q993 632 1003.0 650.0Q1013 668 1021.5 683.5Q1030 699 1036.0 709.0Q1042 719 1042 719Q1055 732 1066.5 742.5Q1078 753 1089.0 762.0Q1100 771 1112.5 781.0Q1125 791 1139 803L1334 971Q1343 978 1349.0 1003.0Q1355 1028 1358.5 1057.5Q1362 1087 1364.0 1113.5Q1366 1140 1366 1152Q1366 1169 1365.0 1187.0Q1364 1205 1362 1222Q1440 1291 1538.5 1328.5Q1637 1366 1742 1366H2412V1222H2101Q2011 1222 1931.5 1179.5Q1852 1137 1802 1062L1585 735Q1534 660 1455.0 617.5Q1376 575 1285 575H961Z" style="fill:#46a4fb;stroke:none" transform="scale(1,-1) translate(0,-256)" /></svg>