<?xml version="1.0" encoding="utf-8" ?>
<svg baseProfile="full" height="256" version="1.1" width="256" xmlns="http://www.w3.org/2000/svg" xmlns:ev="http://www.w3.org/2001/xml-events" xmlns:xlink="http://www.w3.org/1999/xlink"><defs /><path d="M1894 1538Q1910 1538 1920 1528Q1948 1502 1969.5 1469.0Q1991 1436 2005.5 1399.5Q2020 1363 2027.5 1324.0Q2035 1285 2035 1248Q2035 1169 2005.5 1096.5Q1976 1024 1920 968Q1912 960 1898.0 944.5Q1884 929 1868.5 913.5Q1853 898 1837.5 886.5Q1822 875 1812 875Q1798 875 1787.0 886.0Q1776 897 1776 911Q1776 923 1790.0 938.5Q1804 954 1825.0 974.5Q1846 995 1870.0 1021.0Q1894 1047 1915.0 1080.5Q1936 1114 1950.0 1155.5Q1964 1197 1964 1248Q1964 1318 1939.5 1372.0Q1915 1426 1869 1477Q1858 1488 1858 1502Q1858 1517 1869.0 1527.5Q1880 1538 1894 1538Z" style="fill:#212121;stroke:none" transform="scale(1,-1) translate(0,-256)" /></svg>