<?xml version="1.0" encoding="utf-8" ?>
<svg baseProfile="full" height="256" version="1.1" width="256" xmlns="http://www.w3.org/2000/svg" xmlns:ev="http://www.w3.org/2001/xml-events" xmlns:xlink="http://www.w3.org/1999/xlink"><defs /><path d="M1611 1149Q1640 1149 1667.5 1138.0Q1695 1127 1716 1106L2009 812Q2030 791 2041.0 763.5Q2052 736 2052 707Q2052 678 2041.0 650.5Q2030 623 2009 602L1163 -244Q1142 -265 1114.5 -276.5Q1087 -288 1057 -288Q996 -288 952 -244L659 49Q638 70 626.5 97.5Q615 125 615 154Q615 183 626.5 210.5Q638 238 659 259L1505 1106Q1526 1127 1554.0 1138.0Q1582 1149 1611 1149Z" style="fill:#f8312f;stroke:none" transform="scale(1,-1) translate(0,-256)" /></svg>