<?xml version="1.0" encoding="utf-8" ?>
<svg baseProfile="full" height="256" version="1.1" width="256" xmlns="http://www.w3.org/2000/svg" xmlns:ev="http://www.w3.org/2001/xml-events" xmlns:xlink="http://www.w3.org/1999/xlink"><defs /><path d="M1442 -287Q1328 -287 1222.0 -257.5Q1116 -228 1024.5 -174.0Q933 -120 857.5 -45.0Q782 30 728.0 122.0Q674 214 644.5 319.5Q615 425 615 539Q615 653 644.5 759.0Q674 865 728.0 956.5Q782 1048 857.5 1123.5Q933 1199 1024.5 1253.0Q1116 1307 1222.0 1336.5Q1328 1366 1442 1366Q1556 1366 1661.5 1336.5Q1767 1307 1859.0 1253.0Q1951 1199 2026.0 1123.5Q2101 1048 2155.0 956.5Q2209 865 2238.5 759.0Q2268 653 2268 539Q2268 425 2238.5 319.5Q2209 214 2155.0 122.0Q2101 30 2026.0 -45.0Q1951 -120 1859.0 -174.0Q1767 -228 1661.5 -257.5Q1556 -287 1442 -287Z" style="fill:#ff822d;stroke:none" transform="scale(1,-1) translate(0,-256)" /></svg>