<?xml version="1.0" encoding="utf-8" ?>
<svg baseProfile="full" height="256" version="1.1" width="256" xmlns="http://www.w3.org/2000/svg" xmlns:ev="http://www.w3.org/2001/xml-events" xmlns:xlink="http://www.w3.org/1999/xlink"><defs /><path d="M1887 760Q1901 752 1908.5 737.5Q1916 723 1916 707Q1916 681 1898.0 663.0Q1880 645 1854 645Q1841 645 1822.0 654.0Q1803 663 1782.5 675.5Q1762 688 1743.5 701.0Q1725 714 1713 721Q1717 707 1724.5 681.5Q1732 656 1741.5 625.5Q1751 595 1760.5 561.5Q1770 528 1778.5 498.5Q1787 469 1792.0 446.5Q1797 424 1797 415Q1797 389 1778.5 371.0Q1760 353 1734 353Q1714 353 1697.0 365.5Q1680 378 1675 398L1624 576L1574 398Q1568 378 1551.5 365.5Q1535 353 1514 353Q1488 353 1470.0 371.0Q1452 389 1452 415Q1452 425 1457.5 447.5Q1463 470 1471.0 500.0Q1479 530 1489.0 564.0Q1499 598 1508.5 629.5Q1518 661 1525.5 686.5Q1533 712 1537 726Q1525 719 1503.0 707.0Q1481 695 1458.0 682.5Q1435 670 1415.0 657.5Q1395 645 1387 638L1380 636Q1375 636 1372.0 634.5Q1369 633 1364 633Q1353 633 1338.0 638.0Q1323 643 1306.5 650.0Q1290 657 1274.5 664.0Q1259 671 1248 676Q1252 665 1260.0 643.5Q1268 622 1277.5 595.5Q1287 569 1297.0 540.5Q1307 512 1315.0 487.0Q1323 462 1328.5 442.5Q1334 423 1334 415Q1334 389 1316.0 370.5Q1298 352 1272 352Q1252 352 1235.5 364.0Q1219 376 1213 395L1162 544L1111 395Q1105 376 1088.5 364.0Q1072 352 1052 352Q1026 352 1008.0 371.0Q990 390 990 416Q990 428 999.5 459.0Q1009 490 1022.0 525.5Q1035 561 1047.5 594.0Q1060 627 1065 643Q1054 636 1041.0 627.0Q1028 618 1014.0 609.5Q1000 601 985.5 595.0Q971 589 958 589Q933 589 914.5 607.5Q896 626 896 651Q896 668 904.5 681.0Q913 694 927 703L1084 801Q1053 821 1036.0 853.0Q1019 885 1019 922Q1019 952 1030.5 978.0Q1042 1004 1061.5 1023.5Q1081 1043 1107.0 1054.5Q1133 1066 1163 1066Q1193 1066 1219.0 1054.5Q1245 1043 1264.5 1023.5Q1284 1004 1295.5 978.0Q1307 952 1307 922Q1307 889 1292.5 858.5Q1278 828 1252 808L1361 765L1545 873Q1515 893 1498.0 925.5Q1481 958 1481 994Q1481 1024 1492.5 1050.0Q1504 1076 1524.0 1095.5Q1544 1115 1570.0 1126.5Q1596 1138 1626 1138Q1656 1138 1682.0 1126.5Q1708 1115 1727.5 1095.5Q1747 1076 1758.5 1050.0Q1770 1024 1770 994Q1770 958 1752.5 925.5Q1735 893 1705 873Z" style="fill:#000000;stroke:none" transform="scale(1,-1) translate(0,-256)" /></svg>