<?xml version="1.0" encoding="utf-8" ?>
<svg baseProfile="full" height="256" version="1.1" width="256" xmlns="http://www.w3.org/2000/svg" xmlns:ev="http://www.w3.org/2001/xml-events" xmlns:xlink="http://www.w3.org/1999/xlink"><defs /><path d="M1413 1424H823V1495H1093Q1073 1556 1039 1612L1108 1640Q1125 1605 1141.0 1569.0Q1157 1533 1168 1495H1413ZM805 1066Q874 1140 924.5 1215.5Q975 1291 1015 1384L1082 1356Q1067 1316 1042.0 1269.5Q1017 1223 987.0 1176.5Q957 1130 924.5 1088.5Q892 1047 861 1018ZM1428 1065 1368 1015Q1327 1097 1276.0 1168.0Q1225 1239 1170 1311L1148 1339L1205 1388Q1264 1313 1318.0 1236.0Q1372 1159 1420 1077Z" style="fill:#007356;stroke:none" transform="scale(1,-1) translate(0,-256)" /></svg>