<?xml version="1.0" encoding="utf-8" ?>
<svg baseProfile="full" height="256" version="1.1" width="256" xmlns="http://www.w3.org/2000/svg" xmlns:ev="http://www.w3.org/2001/xml-events" xmlns:xlink="http://www.w3.org/1999/xlink"><defs /><path d="M1945 216Q1960 216 1970.5 205.5Q1981 195 1981 180Q1981 165 1970.5 154.5Q1960 144 1945 144H867Q852 144 841.5 154.5Q831 165 831 180Q831 195 841.5 205.5Q852 216 867 216ZM1658 0Q1672 0 1682.5 -11.0Q1693 -22 1693 -36Q1693 -50 1682.5 -61.0Q1672 -72 1658 -72H1154Q1140 -72 1129.0 -61.0Q1118 -50 1118 -36Q1118 -22 1129.0 -11.0Q1140 0 1154 0Z" style="fill:#ffffff;stroke:none" transform="scale(1,-1) translate(0,-256)" /></svg>