<?xml version="1.0" encoding="utf-8" ?>
<svg baseProfile="full" height="256" version="1.1" width="256" xmlns="http://www.w3.org/2000/svg" xmlns:ev="http://www.w3.org/2001/xml-events" xmlns:xlink="http://www.w3.org/1999/xlink"><defs /><path d="M687 -287Q627 -287 575.0 -264.5Q523 -242 484.0 -203.0Q445 -164 422.5 -112.0Q400 -60 400 0V396Q428 414 451.0 422.5Q474 431 508 431Q546 431 570.0 420.0Q594 409 615.5 395.5Q637 382 661.0 371.0Q685 360 723 360Q761 360 785.0 371.0Q809 382 830.5 395.5Q852 409 876.0 420.0Q900 431 939 431Q974 431 1004.5 420.0Q1035 409 1065.0 395.5Q1095 382 1125.0 371.0Q1155 360 1190 360Q1228 360 1252.0 371.0Q1276 382 1297.5 395.5Q1319 409 1343.0 420.0Q1367 431 1406 431Q1445 431 1469.0 420.0Q1493 409 1514.5 395.5Q1536 382 1560.0 371.0Q1584 360 1622 360Q1656 360 1686.5 371.0Q1717 382 1747.0 395.5Q1777 409 1807.5 420.0Q1838 431 1873 431Q1912 431 1936.0 420.0Q1960 409 1981.5 395.5Q2003 382 2027.0 371.0Q2051 360 2089 360Q2127 360 2151.0 371.0Q2175 382 2196.5 395.5Q2218 409 2242.0 420.0Q2266 431 2304 431Q2338 431 2361.0 422.5Q2384 414 2412 396V0Q2412 -60 2389.5 -112.0Q2367 -164 2328.0 -203.0Q2289 -242 2237.0 -264.5Q2185 -287 2125 -287Z" style="fill:#46a4fb;stroke:none" transform="scale(1,-1) translate(0,-256)" /></svg>