<?xml version="1.0" encoding="utf-8" ?>
<svg baseProfile="full" height="256" version="1.1" width="256" xmlns="http://www.w3.org/2000/svg" xmlns:ev="http://www.w3.org/2001/xml-events" xmlns:xlink="http://www.w3.org/1999/xlink"><defs /><path d="M1262 1006Q1262 961 1245.0 922.0Q1228 883 1199.0 854.0Q1170 825 1131.0 808.0Q1092 791 1047 791Q1002 791 963.0 808.0Q924 825 894.5 854.0Q865 883 848.0 922.0Q831 961 831 1006Q831 1051 848.0 1090.5Q865 1130 894.0 1159.0Q923 1188 962.5 1205.0Q1002 1222 1047 1222Q1092 1222 1131.0 1205.0Q1170 1188 1199.0 1158.5Q1228 1129 1245.0 1090.0Q1262 1051 1262 1006ZM1981 1006Q1981 961 1964.0 922.0Q1947 883 1917.5 854.0Q1888 825 1849.0 808.0Q1810 791 1765 791Q1720 791 1681.0 808.0Q1642 825 1613.0 854.0Q1584 883 1567.0 922.0Q1550 961 1550 1006Q1550 1051 1567.0 1090.0Q1584 1129 1613.0 1158.5Q1642 1188 1681.0 1205.0Q1720 1222 1765 1222Q1810 1222 1849.0 1205.0Q1888 1188 1917.5 1158.5Q1947 1129 1964.0 1090.0Q1981 1051 1981 1006ZM1477 431Q1535 431 1583.5 415.5Q1632 400 1682 371Q1692 366 1701.0 362.5Q1710 359 1721 359Q1750 359 1771.5 381.0Q1793 403 1793 432Q1793 456 1775.0 476.5Q1757 497 1728.5 513.0Q1700 529 1664.5 540.5Q1629 552 1593.5 559.5Q1558 567 1527.0 571.0Q1496 575 1477 575Q1410 575 1345.0 558.0Q1280 541 1222.0 509.0Q1164 477 1114.5 431.5Q1065 386 1030 329Q1019 312 1019 291Q1019 262 1040.0 240.5Q1061 219 1091 219Q1128 219 1152 252Q1211 337 1291.5 384.0Q1372 431 1477 431Z" style="fill:#402a32;stroke:none" transform="scale(1,-1) translate(0,-256)" /></svg>