<?xml version="1.0" encoding="utf-8" ?>
<svg baseProfile="full" height="256" version="1.1" width="256" xmlns="http://www.w3.org/2000/svg" xmlns:ev="http://www.w3.org/2001/xml-events" xmlns:xlink="http://www.w3.org/1999/xlink"><defs /><path d="M1295 -287Q1231 -287 1172.0 -262.0Q1113 -237 1067 -192L496 371Q449 417 424.5 476.5Q400 536 400 602V980Q400 1021 427.5 1049.5Q455 1078 497 1078H2314Q2356 1078 2384.0 1050.0Q2412 1022 2412 980V595Q2412 532 2386.5 473.0Q2361 414 2316 369L1745 -194Q1700 -239 1640.0 -263.0Q1580 -287 1517 -287H1295Z" style="fill:#00a6ed;stroke:none" transform="scale(1,-1) translate(0,-256)" /></svg>