<?xml version="1.0" encoding="utf-8" ?>
<svg baseProfile="full" height="256" version="1.1" width="256" xmlns="http://www.w3.org/2000/svg" xmlns:ev="http://www.w3.org/2001/xml-events" xmlns:xlink="http://www.w3.org/1999/xlink"><defs /><path d="M1693 1222 1837 1438H2197V1222H2412V791L2029 743Q2001 740 1978.0 735.5Q1955 731 1933.0 727.5Q1911 724 1888.0 721.5Q1865 719 1837 719Q1809 719 1786.0 721.5Q1763 724 1741.0 727.5Q1719 731 1696.0 735.5Q1673 740 1645 743L1262 791L1375 1190Q1379 1204 1390.0 1213.0Q1401 1222 1416 1222ZM2412 719V216L1478 0L543 216Q538 229 526.0 264.0Q514 299 498.0 344.5Q482 390 464.5 440.0Q447 490 432.5 533.5Q418 577 408.5 608.0Q399 639 399 647Q399 677 421.0 698.0Q443 719 473 719Z" style="fill:#cdc4d6;stroke:none" transform="scale(1,-1) translate(0,-256)" /></svg>