<?xml version="1.0" encoding="utf-8" ?>
<svg baseProfile="full" height="256" version="1.1" width="256" xmlns="http://www.w3.org/2000/svg" xmlns:ev="http://www.w3.org/2001/xml-events" xmlns:xlink="http://www.w3.org/1999/xlink"><defs /><path d="M2412 -287H400V-120Q445 -120 472.5 -132.5Q500 -145 525.0 -160.0Q550 -175 578.0 -187.5Q606 -200 651 -200Q696 -200 723.5 -187.5Q751 -175 776.0 -160.0Q801 -145 829.0 -132.5Q857 -120 902 -120Q947 -120 975.0 -132.5Q1003 -145 1028.0 -160.0Q1053 -175 1081.0 -187.5Q1109 -200 1154 -200Q1199 -200 1226.5 -187.5Q1254 -175 1279.0 -160.0Q1304 -145 1332.0 -132.5Q1360 -120 1405 -120Q1450 -120 1478.0 -132.5Q1506 -145 1531.0 -160.0Q1556 -175 1584.0 -187.5Q1612 -200 1657 -200Q1702 -200 1730.0 -187.5Q1758 -175 1783.0 -160.0Q1808 -145 1835.5 -132.5Q1863 -120 1908 -120Q1953 -120 1981.5 -132.5Q2010 -145 2035.0 -160.0Q2060 -175 2088.0 -187.5Q2116 -200 2161 -200Q2206 -200 2234.0 -187.5Q2262 -175 2287.0 -160.0Q2312 -145 2340.0 -132.5Q2368 -120 2413 -120Z" style="fill:#00a6ed;stroke:none" transform="scale(1,-1) translate(0,-256)" /></svg>