<?xml version="1.0" encoding="utf-8" ?>
<svg baseProfile="full" height="256" version="1.1" width="256" xmlns="http://www.w3.org/2000/svg" xmlns:ev="http://www.w3.org/2001/xml-events" xmlns:xlink="http://www.w3.org/1999/xlink"><defs /><path d="M1719 -321Q1665 -321 1617.0 -300.5Q1569 -280 1533.0 -244.0Q1497 -208 1476.5 -160.0Q1456 -112 1456 -58Q1456 -6 1476.0 42.5Q1496 91 1533 128L1997 592Q2034 629 2082.5 649.0Q2131 669 2183 669Q2237 669 2285.0 648.0Q2333 627 2369.0 591.0Q2405 555 2425.5 507.0Q2446 459 2446 405Q2446 353 2426.0 304.5Q2406 256 2369 219L1905 -244Q1867 -282 1819.5 -301.5Q1772 -321 1719 -321Z" style="fill:#ffdea7;stroke:none" transform="scale(1,-1) translate(0,-256)" /></svg>