<?xml version="1.0" encoding="utf-8" ?>
<svg baseProfile="full" height="256" version="1.1" width="256" xmlns="http://www.w3.org/2000/svg" xmlns:ev="http://www.w3.org/2001/xml-events" xmlns:xlink="http://www.w3.org/1999/xlink"><defs /><path d="M395 1837Q416 1837 436.0 1829.0Q456 1821 471 1806L2268 13Q2283 -2 2291.0 -22.0Q2299 -42 2299 -63Q2299 -85 2290.5 -104.5Q2282 -124 2267.5 -139.0Q2253 -154 2233.5 -162.5Q2214 -171 2192 -171Q2148 -171 2116 -139L319 1653Q287 1685 287 1729Q287 1751 295.5 1771.0Q304 1791 318.5 1805.5Q333 1820 352.5 1828.5Q372 1837 395 1837Z" style="fill:#d3883e;stroke:none" transform="scale(1,-1) translate(0,-256)" /></svg>