<?xml version="1.0" encoding="utf-8" ?>
<svg baseProfile="full" height="256" version="1.1" width="256" xmlns="http://www.w3.org/2000/svg" xmlns:ev="http://www.w3.org/2001/xml-events" xmlns:xlink="http://www.w3.org/1999/xlink"><defs /><path d="M934 595Q896 595 860.5 607.0Q825 619 796.5 641.0Q768 663 747.0 693.5Q726 724 716 761L580 1269Q572 1299 572 1327Q572 1373 590.0 1414.0Q608 1455 639.0 1486.0Q670 1517 711.0 1535.0Q752 1553 798 1553Q826 1553 856 1545L1364 1409Q1401 1399 1431.5 1378.0Q1462 1357 1484.0 1328.0Q1506 1299 1518.0 1263.5Q1530 1228 1530 1190Q1530 1145 1513.0 1104.5Q1496 1064 1464 1032L1093 661Q1061 629 1020.0 612.0Q979 595 934 595Z" style="fill:#635994;stroke:none" transform="scale(1,-1) translate(0,-256)" /></svg>