<?xml version="1.0" encoding="utf-8" ?>
<svg baseProfile="full" height="256" version="1.1" width="256" xmlns="http://www.w3.org/2000/svg" xmlns:ev="http://www.w3.org/2001/xml-events" xmlns:xlink="http://www.w3.org/1999/xlink"><defs /><path d="M2096 140Q2117 140 2137.0 132.0Q2157 124 2172 109L2416 -135Q2448 -167 2448 -211Q2448 -233 2439.5 -252.5Q2431 -272 2416.0 -287.0Q2401 -302 2381.5 -310.5Q2362 -319 2340 -319Q2296 -319 2264 -287L2020 -44Q2005 -29 1996.5 -9.0Q1988 11 1988 32Q1988 54 1996.5 74.0Q2005 94 2019.5 108.5Q2034 123 2053.5 131.5Q2073 140 2096 140Z" style="fill:#d3883e;stroke:none" transform="scale(1,-1) translate(0,-256)" /></svg>