<?xml version="1.0" encoding="utf-8" ?>
<svg baseProfile="full" height="256" version="1.1" width="256" xmlns="http://www.w3.org/2000/svg" xmlns:ev="http://www.w3.org/2001/xml-events" xmlns:xlink="http://www.w3.org/1999/xlink"><defs /><path d="M808 993Q793 993 782.5 1003.5Q772 1014 772 1029Q772 1081 791.5 1126.5Q811 1172 845.0 1206.0Q879 1240 924.5 1259.5Q970 1279 1022 1279Q1037 1279 1047.5 1268.5Q1058 1258 1058 1243Q1058 1228 1047.5 1217.5Q1037 1207 1022 1207Q985 1207 952.5 1193.0Q920 1179 896.0 1155.0Q872 1131 858.0 1098.5Q844 1066 844 1029Q844 1014 833.5 1003.5Q823 993 808 993ZM1078 610Q1090 610 1098.5 606.0Q1107 602 1116 594Q1150 566 1181.0 544.5Q1212 523 1244.5 508.0Q1277 493 1313.5 485.0Q1350 477 1396 477Q1442 477 1479.0 485.0Q1516 493 1548.5 508.0Q1581 523 1611.5 544.5Q1642 566 1677 594Q1686 602 1694.5 606.0Q1703 610 1715 610Q1738 610 1753.5 594.0Q1769 578 1769 555Q1769 535 1753 517Q1723 482 1680.5 454.5Q1638 427 1590.0 408.0Q1542 389 1491.5 379.0Q1441 369 1396 369Q1351 369 1300.5 379.0Q1250 389 1202.0 408.0Q1154 427 1111.5 454.5Q1069 482 1039 517Q1023 535 1023 555Q1023 578 1039.0 594.0Q1055 610 1078 610ZM1768 1279Q1753 1279 1742.5 1268.5Q1732 1258 1732 1243Q1732 1228 1742.5 1217.5Q1753 1207 1768 1207Q1805 1207 1837.5 1193.0Q1870 1179 1894.5 1155.0Q1919 1131 1933.0 1098.5Q1947 1066 1947 1029Q1947 1015 1957.5 1004.0Q1968 993 1982 993Q1997 993 2007.5 1003.5Q2018 1014 2018 1029Q2018 1081 1998.5 1126.5Q1979 1172 1945.0 1206.0Q1911 1240 1865.5 1259.5Q1820 1279 1768 1279ZM1088 957Q1052 957 1034.0 942.0Q1016 927 1004.5 909.0Q993 891 981.5 876.0Q970 861 946 861Q924 861 908.0 877.0Q892 893 892 915Q892 920 893.0 924.5Q894 929 896 934Q907 964 926.5 988.0Q946 1012 971.5 1029.0Q997 1046 1027.0 1055.5Q1057 1065 1088 1065Q1122 1065 1153.0 1055.0Q1184 1045 1210.0 1026.0Q1236 1007 1255.0 981.0Q1274 955 1285 923Q1288 914 1288 906Q1288 884 1271.5 868.0Q1255 852 1233 852Q1216 852 1206.0 860.0Q1196 868 1188.0 879.5Q1180 891 1173.0 904.5Q1166 918 1155.5 929.5Q1145 941 1129.0 949.0Q1113 957 1088 957ZM1708 957Q1733 957 1749.0 949.0Q1765 941 1775.5 929.5Q1786 918 1793.0 904.5Q1800 891 1807.5 879.5Q1815 868 1825.5 860.0Q1836 852 1853 852Q1876 852 1891.5 867.5Q1907 883 1907 906Q1907 914 1904 923Q1893 955 1874.0 981.0Q1855 1007 1829.0 1026.0Q1803 1045 1772.0 1055.0Q1741 1065 1708 1065Q1677 1065 1647.0 1055.5Q1617 1046 1591.0 1029.0Q1565 1012 1545.0 988.0Q1525 964 1515 934Q1512 925 1512 915Q1512 892 1527.5 876.5Q1543 861 1566 861Q1590 861 1601.5 876.0Q1613 891 1624.5 909.0Q1636 927 1654.0 942.0Q1672 957 1708 957Z" style="fill:#321b41;stroke:none" transform="scale(1,-1) translate(0,-256)" /></svg>