<?xml version="1.0" encoding="utf-8" ?>
<svg baseProfile="full" height="256" version="1.1" width="256" xmlns="http://www.w3.org/2000/svg" xmlns:ev="http://www.w3.org/2001/xml-events" xmlns:xlink="http://www.w3.org/1999/xlink"><defs /><path d="M1395 1725Q1446 1725 1478.5 1711.0Q1511 1697 1533.5 1676.0Q1556 1655 1572.0 1630.5Q1588 1606 1605.5 1585.0Q1623 1564 1645.0 1550.0Q1667 1536 1701 1536Q1726 1536 1747.5 1546.0Q1769 1556 1791.0 1567.5Q1813 1579 1838.0 1589.0Q1863 1599 1896 1599Q1936 1599 1972.5 1583.0Q2009 1567 2036.0 1540.0Q2063 1513 2079.0 1477.0Q2095 1441 2095 1401Q2095 1376 2089.0 1352.0Q2083 1328 2083 1303Q2083 1255 2113.0 1222.5Q2143 1190 2190 1184Q2201 1182 2211.5 1181.5Q2222 1181 2233 1179Q2271 1174 2303.0 1156.5Q2335 1139 2358.5 1112.5Q2382 1086 2395.5 1052.0Q2409 1018 2409 980Q2409 944 2399.5 918.0Q2390 892 2376.0 872.5Q2362 853 2345.5 836.5Q2329 820 2315.0 803.5Q2301 787 2291.5 767.5Q2282 748 2282 722Q2282 695 2292.0 675.0Q2302 655 2317.0 638.5Q2332 622 2349.5 605.5Q2367 589 2382.0 569.0Q2397 549 2407.0 522.5Q2417 496 2417 459Q2417 420 2404.5 387.0Q2392 354 2369.5 328.0Q2347 302 2315.5 285.0Q2284 268 2247 261L2205 254Q2160 246 2130.5 214.5Q2101 183 2101 135Q2101 107 2109.0 81.0Q2117 55 2117 27Q2117 -14 2101.0 -50.0Q2085 -86 2058.0 -113.0Q2031 -140 1995.0 -155.5Q1959 -171 1918 -171Q1886 -171 1862.0 -162.0Q1838 -153 1817.0 -142.0Q1796 -131 1775.5 -122.0Q1755 -113 1731 -113Q1693 -113 1665.5 -132.5Q1638 -152 1621 -184Q1589 -244 1540.5 -278.0Q1492 -312 1421 -312Q1370 -312 1337.0 -298.0Q1304 -284 1281.5 -263.0Q1259 -242 1243.0 -218.0Q1227 -194 1210.0 -173.0Q1193 -152 1171.5 -138.0Q1150 -124 1116 -124Q1091 -124 1070.0 -133.5Q1049 -143 1027.0 -155.0Q1005 -167 980.0 -176.5Q955 -186 922 -186Q881 -186 844.5 -170.5Q808 -155 781.0 -128.0Q754 -101 738.0 -65.0Q722 -29 722 12Q722 37 728.5 60.5Q735 84 735 109Q735 157 704.0 190.5Q673 224 627 230Q616 232 606.0 232.5Q596 233 585 235Q547 240 514.5 257.0Q482 274 458.5 300.5Q435 327 421.5 361.0Q408 395 408 434Q408 470 417.5 495.5Q427 521 441.0 541.0Q455 561 471.5 577.0Q488 593 502.0 609.5Q516 626 525.5 645.5Q535 665 535 691Q535 718 525.0 738.0Q515 758 500.0 774.5Q485 791 467.5 807.5Q450 824 435.0 844.0Q420 864 410.0 891.0Q400 918 400 955Q400 992 413.0 1025.5Q426 1059 448.5 1085.5Q471 1112 502.0 1129.5Q533 1147 570 1153Q581 1155 591.5 1156.0Q602 1157 613 1159Q657 1166 686.5 1199.5Q716 1233 716 1278Q716 1306 708.5 1332.5Q701 1359 701 1387Q701 1427 716.5 1463.0Q732 1499 759.0 1526.0Q786 1553 822.0 1568.5Q858 1584 899 1584Q930 1584 954.5 1575.0Q979 1566 1000.0 1555.0Q1021 1544 1041.5 1535.0Q1062 1526 1086 1526Q1124 1526 1151.0 1545.5Q1178 1565 1195 1597Q1227 1657 1276.0 1691.0Q1325 1725 1395 1725Z" style="fill:#ff822d;stroke:none" transform="scale(1,-1) translate(0,-256)" /></svg>