<?xml version="1.0" encoding="utf-8" ?>
<svg baseProfile="full" height="256" version="1.1" width="256" xmlns="http://www.w3.org/2000/svg" xmlns:ev="http://www.w3.org/2001/xml-events" xmlns:xlink="http://www.w3.org/1999/xlink"><defs /><path d="M1405 -84Q1296 -84 1195.0 -55.5Q1094 -27 1006.5 24.5Q919 76 846.5 148.0Q774 220 722.5 308.0Q671 396 643.0 497.0Q615 598 615 707Q615 816 643.0 917.0Q671 1018 722.5 1106.0Q774 1194 846.5 1266.0Q919 1338 1006.5 1389.5Q1094 1441 1195.0 1469.5Q1296 1498 1405 1498Q1514 1498 1615.0 1470.0Q1716 1442 1804.0 1390.5Q1892 1339 1964.5 1266.5Q2037 1194 2088.5 1106.0Q2140 1018 2168.0 917.0Q2196 816 2196 707Q2196 598 2168.0 497.0Q2140 396 2088.5 308.0Q2037 220 1964.5 147.5Q1892 75 1804.0 23.5Q1716 -28 1615.0 -56.0Q1514 -84 1405 -84Z" style="fill:#fcd53f;stroke:none" transform="scale(1,-1) translate(0,-256)" /></svg>