<?xml version="1.0" encoding="utf-8" ?>
<svg baseProfile="full" height="256" version="1.1" width="256" xmlns="http://www.w3.org/2000/svg" xmlns:ev="http://www.w3.org/2001/xml-events" xmlns:xlink="http://www.w3.org/1999/xlink"><defs /><path d="M903 1114Q903 1129 913.5 1139.5Q924 1150 939 1150H1298Q1313 1150 1323.5 1139.5Q1334 1129 1334 1114Q1334 1099 1323.5 1088.5Q1313 1078 1298 1078H1043Q1037 1066 1025.0 1062.0Q1013 1058 1002.0 1048.0Q991 1038 982.5 1014.5Q974 991 974 940Q974 926 963.0 915.0Q952 904 938 904Q924 904 913.0 915.0Q902 926 902 940Q902 972 909.0 1011.0Q916 1050 934 1078H903ZM1514 1078Q1499 1078 1488.5 1067.5Q1478 1057 1478 1042Q1478 1028 1489.0 1017.0Q1500 1006 1514 1006H1598L1578 960H1081Q1068 960 1057.5 952.0Q1047 944 1045 931L1019 791Q965 791 918.0 772.0Q871 753 835.5 719.5Q800 686 779.5 640.0Q759 594 759 539Q759 487 779.0 441.0Q799 395 833.0 361.0Q867 327 913.0 307.5Q959 288 1011 288Q1063 288 1109.0 307.5Q1155 327 1189.0 361.0Q1223 395 1242.5 441.0Q1262 487 1262 539Q1262 579 1249.5 617.0Q1237 655 1214.5 686.5Q1192 718 1160.5 741.5Q1129 765 1090 778L1111 888H1547Q1544 880 1536.5 863.5Q1529 847 1519.5 826.0Q1510 805 1500.5 782.0Q1491 759 1482.5 739.5Q1474 720 1469.0 705.0Q1464 690 1464 686Q1464 672 1475.0 661.0Q1486 650 1500 650Q1523 650 1533 672L1601 830L1646 737Q1601 701 1575.5 649.0Q1550 597 1550 539Q1550 487 1569.5 441.0Q1589 395 1623.0 361.0Q1657 327 1703.0 307.5Q1749 288 1801 288Q1853 288 1899.0 307.5Q1945 327 1979.0 361.0Q2013 395 2033.0 441.0Q2053 487 2053 539Q2053 591 2033.0 637.0Q2013 683 1979.0 717.0Q1945 751 1899.0 771.0Q1853 791 1801 791Q1751 791 1708 773L1638 917L1676 1006Q1684 1006 1692.0 1005.5Q1700 1005 1708 1005Q1718 1005 1728.0 1006.0Q1738 1007 1746.0 1011.0Q1754 1015 1759.5 1022.5Q1765 1030 1765 1042Q1765 1057 1754.5 1067.5Q1744 1078 1729 1078ZM1011 360Q974 360 941.0 374.0Q908 388 883.5 412.5Q859 437 845.0 469.5Q831 502 831 539Q831 575 844.5 607.5Q858 640 881.5 664.5Q905 689 937.0 703.5Q969 718 1006 719Q1003 698 997.0 674.5Q991 651 986.0 627.0Q981 603 977.0 579.5Q973 556 973 536Q973 522 983.5 511.5Q994 501 1008 501Q1022 501 1032.0 508.5Q1042 516 1044 530L1077 706Q1102 696 1123.0 679.0Q1144 662 1159.0 640.0Q1174 618 1182.0 592.0Q1190 566 1190 539Q1190 502 1176.0 469.5Q1162 437 1137.5 412.5Q1113 388 1080.5 374.0Q1048 360 1011 360ZM1679 671 1726 573Q1713 573 1700.5 574.0Q1688 575 1675 575Q1662 575 1648.0 573.5Q1634 572 1623 564Q1628 595 1642.0 622.5Q1656 650 1679 671ZM1624 508Q1632 501 1646 501H1784Q1798 501 1809.0 511.5Q1820 522 1820 536Q1820 543 1809.5 567.0Q1799 591 1785.0 619.0Q1771 647 1758.0 672.5Q1745 698 1740 708Q1770 719 1801 719Q1838 719 1871.0 705.0Q1904 691 1928.5 666.5Q1953 642 1967.0 609.0Q1981 576 1981 539Q1981 502 1967.0 469.5Q1953 437 1928.5 412.5Q1904 388 1871.0 374.0Q1838 360 1801 360Q1769 360 1739.5 371.0Q1710 382 1686.0 402.0Q1662 422 1646.0 449.0Q1630 476 1624 508Z" style="fill:#000000;stroke:none" transform="scale(1,-1) translate(0,-256)" /></svg>