<?xml version="1.0" encoding="utf-8" ?>
<svg baseProfile="full" height="256" version="1.1" width="256" xmlns="http://www.w3.org/2000/svg" xmlns:ev="http://www.w3.org/2001/xml-events" xmlns:xlink="http://www.w3.org/1999/xlink"><defs /><path d="M2411 278Q2411 247 2401.5 218.0Q2392 189 2374.5 165.0Q2357 141 2332.5 122.5Q2308 104 2279 94Q2309 84 2333.0 65.5Q2357 47 2374.5 23.0Q2392 -1 2401.5 -30.0Q2411 -59 2411 -90V-287Q2370 -287 2335.0 -271.5Q2300 -256 2273.5 -230.0Q2247 -204 2232.0 -168.5Q2217 -133 2217 -92Q2217 -76 2206.0 -65.0Q2195 -54 2179 -54Q2137 -54 2103.5 -61.0Q2070 -68 2039.5 -81.5Q2009 -95 1980.0 -114.0Q1951 -133 1918 -156Q1840 -212 1750.0 -241.0Q1660 -270 1563 -270Q1509 -270 1464.5 -262.0Q1420 -254 1378.0 -240.0Q1336 -226 1294.0 -207.5Q1252 -189 1204 -167V344Q1252 366 1294.0 384.5Q1336 403 1377.5 416.5Q1419 430 1463.5 438.0Q1508 446 1562 446Q1659 446 1749.0 417.0Q1839 388 1918 332Q1951 309 1980.0 290.5Q2009 272 2039.5 258.5Q2070 245 2103.5 237.5Q2137 230 2179 230Q2195 230 2206.0 241.0Q2217 252 2217 268Q2217 311 2230.5 348.5Q2244 386 2269.5 414.5Q2295 443 2330.5 459.5Q2366 476 2411 476V278Z" style="fill:#f8312f;stroke:none" transform="scale(1,-1) translate(0,-256)" /></svg>