<?xml version="1.0" encoding="utf-8" ?>
<svg baseProfile="full" height="256" version="1.1" width="256" xmlns="http://www.w3.org/2000/svg" xmlns:ev="http://www.w3.org/2001/xml-events" xmlns:xlink="http://www.w3.org/1999/xlink"><defs /><path d="M1208 723Q1208 701 1192.5 686.5Q1177 672 1156 672Q1135 672 1119.5 686.5Q1104 701 1104 723V1225Q1104 1246 1119.5 1261.5Q1135 1277 1156 1277Q1178 1277 1193.0 1262.0Q1208 1247 1208 1225ZM1665 1231Q1665 1205 1658.5 1189.5Q1652 1174 1643.5 1161.5Q1635 1149 1628.5 1135.5Q1622 1122 1622 1100Q1622 1079 1628.5 1065.0Q1635 1051 1643.5 1038.0Q1652 1025 1658.5 1009.0Q1665 993 1665 968Q1665 942 1658.5 926.5Q1652 911 1643.5 898.0Q1635 885 1628.5 871.5Q1622 858 1622 837Q1622 816 1628.5 802.0Q1635 788 1643.5 775.0Q1652 762 1658.5 746.0Q1665 730 1665 705Q1665 697 1660.0 692.0Q1655 687 1647 687Q1639 687 1634.0 692.0Q1629 697 1629 705Q1629 725 1622.5 739.0Q1616 753 1607.5 766.5Q1599 780 1592.5 796.0Q1586 812 1586 837Q1586 862 1592.5 878.5Q1599 895 1607.5 908.0Q1616 921 1622.5 934.5Q1629 948 1629 968Q1629 988 1622.5 1001.5Q1616 1015 1607.5 1028.5Q1599 1042 1592.5 1058.0Q1586 1074 1586 1100Q1586 1125 1592.5 1141.5Q1599 1158 1607.5 1171.5Q1616 1185 1622.5 1198.0Q1629 1211 1629 1231Q1629 1239 1634.0 1244.0Q1639 1249 1647 1249Q1655 1249 1660.0 1244.0Q1665 1239 1665 1231ZM1816 1173Q1816 1153 1811.0 1141.0Q1806 1129 1800.0 1119.0Q1794 1109 1789.0 1099.0Q1784 1089 1784 1074Q1784 1059 1789.0 1049.0Q1794 1039 1800.0 1029.0Q1806 1019 1811.0 1006.5Q1816 994 1816 974Q1816 954 1811.0 941.5Q1806 929 1800.0 919.5Q1794 910 1789.0 899.5Q1784 889 1784 874Q1784 859 1789.0 849.0Q1794 839 1800.0 829.0Q1806 819 1811.0 806.5Q1816 794 1816 774Q1816 766 1811.0 761.0Q1806 756 1798 756Q1790 756 1785.0 761.0Q1780 766 1780 774Q1780 790 1775.0 800.0Q1770 810 1764.0 820.0Q1758 830 1753.0 842.0Q1748 854 1748 874Q1748 895 1753.0 907.0Q1758 919 1764.0 929.0Q1770 939 1775.0 949.0Q1780 959 1780 974Q1780 990 1775.0 1000.0Q1770 1010 1764.0 1020.0Q1758 1030 1753.0 1042.0Q1748 1054 1748 1074Q1748 1091 1752.5 1105.0Q1757 1119 1767 1133V1134Q1773 1141 1775.0 1151.0Q1777 1161 1779.5 1170.0Q1782 1179 1785.5 1185.0Q1789 1191 1798 1191Q1806 1191 1811.0 1186.0Q1816 1181 1816 1173ZM1934 1136Q1942 1136 1946.5 1130.5Q1951 1125 1951 1118Q1951 1104 1948.0 1094.0Q1945 1084 1937 1072H1936Q1932 1065 1930.0 1060.0Q1928 1055 1928 1047Q1928 1037 1931.5 1030.0Q1935 1023 1939.5 1015.5Q1944 1008 1947.5 999.0Q1951 990 1951 976Q1951 964 1948.0 952.0Q1945 940 1937 930H1936Q1928 917 1928 904Q1928 896 1930.0 891.0Q1932 886 1937 879V878Q1951 856 1951 833Q1951 826 1946.5 820.5Q1942 815 1934 815Q1926 815 1922.5 819.5Q1919 824 1916.5 831.0Q1914 838 1912.0 845.5Q1910 853 1907 858V859Q1892 880 1892 904Q1892 919 1895.5 928.0Q1899 937 1903.5 944.5Q1908 952 1912.0 959.0Q1916 966 1916 976Q1916 985 1912.0 992.0Q1908 999 1903.5 1006.5Q1899 1014 1895.5 1023.5Q1892 1033 1892 1047Q1892 1061 1895.5 1070.5Q1899 1080 1903.5 1087.5Q1908 1095 1912.0 1102.0Q1916 1109 1916 1118Q1916 1126 1921.0 1131.0Q1926 1136 1934 1136Z" style="fill:#0074ba;stroke:none" transform="scale(1,-1) translate(0,-256)" /></svg>