<?xml version="1.0" encoding="utf-8" ?>
<svg baseProfile="full" height="256" version="1.1" width="256" xmlns="http://www.w3.org/2000/svg" xmlns:ev="http://www.w3.org/2001/xml-events" xmlns:xlink="http://www.w3.org/1999/xlink"><defs /><path d="M2411 1162Q2411 1131 2401.5 1102.0Q2392 1073 2374.5 1048.5Q2357 1024 2332.5 1005.0Q2308 986 2279 976Q2309 966 2333.0 947.5Q2357 929 2374.5 905.0Q2392 881 2401.5 852.0Q2411 823 2411 792V595Q2370 595 2334.5 610.5Q2299 626 2273.0 652.5Q2247 679 2232.0 715.0Q2217 751 2217 792Q2217 808 2206.0 819.0Q2195 830 2179 830Q2137 830 2103.5 823.0Q2070 816 2039.5 802.5Q2009 789 1980.0 770.0Q1951 751 1918 728Q1840 673 1749.5 644.0Q1659 615 1563 615Q1509 615 1464.0 623.0Q1419 631 1377.5 644.5Q1336 658 1294.0 676.5Q1252 695 1204 717V1228Q1252 1250 1294.0 1268.5Q1336 1287 1377.5 1300.5Q1419 1314 1463.5 1322.0Q1508 1330 1562 1330Q1660 1330 1748.5 1301.0Q1837 1272 1918 1216Q1951 1193 1980.0 1174.5Q2009 1156 2039.5 1142.5Q2070 1129 2103.5 1121.5Q2137 1114 2179 1114Q2194 1114 2205.5 1125.5Q2217 1137 2217 1152Q2217 1195 2230.5 1232.5Q2244 1270 2269.5 1298.5Q2295 1327 2330.5 1343.5Q2366 1360 2411 1360V1162Z" style="fill:#00a6ed;stroke:none" transform="scale(1,-1) translate(0,-256)" /></svg>