<?xml version="1.0" encoding="utf-8" ?>
<svg baseProfile="full" height="256" version="1.1" width="256" xmlns="http://www.w3.org/2000/svg" xmlns:ev="http://www.w3.org/2001/xml-events" xmlns:xlink="http://www.w3.org/1999/xlink"><defs /><path d="M1389 1183Q1389 1173 1383.0 1165.0Q1377 1157 1368 1152L977 975L1368 798Q1377 793 1383.0 785.0Q1389 777 1389 767Q1389 752 1378.0 741.0Q1367 730 1353 730Q1347 730 1313.5 744.0Q1280 758 1232.5 779.0Q1185 800 1129.5 825.5Q1074 851 1024.0 874.0Q974 897 936.5 914.0Q899 931 887 937H607Q593 937 582.0 948.0Q571 959 571 973Q571 988 581.5 998.5Q592 1009 607 1009H877Q889 1014 927.5 1032.0Q966 1050 1017.0 1073.5Q1068 1097 1125.0 1123.0Q1182 1149 1231.0 1171.0Q1280 1193 1314.0 1207.0Q1348 1221 1353 1221Q1368 1221 1378.5 1209.5Q1389 1198 1389 1183ZM569 109Q569 124 579.5 134.5Q590 145 605 145H881Q893 150 931.0 167.5Q969 185 1019.5 208.5Q1070 232 1126.5 258.0Q1183 284 1231.5 305.5Q1280 327 1313.5 341.0Q1347 355 1352 355Q1366 355 1376.5 344.0Q1387 333 1387 318Q1387 296 1366 286L976 109L1366 -68Q1387 -78 1387 -100Q1387 -115 1376.5 -125.5Q1366 -136 1351 -136Q1345 -136 1311.5 -122.0Q1278 -108 1230.0 -86.5Q1182 -65 1126.0 -39.5Q1070 -14 1019.5 9.5Q969 33 931.0 51.0Q893 69 881 74H605Q591 74 580.0 84.5Q569 95 569 109Z" style="fill:#533566;stroke:none" transform="scale(1,-1) translate(0,-256)" /></svg>