<?xml version="1.0" encoding="utf-8" ?>
<svg baseProfile="full" height="256" version="1.1" width="256" xmlns="http://www.w3.org/2000/svg" xmlns:ev="http://www.w3.org/2001/xml-events" xmlns:xlink="http://www.w3.org/1999/xlink"><defs /><path d="M686 -251Q686 -266 675.5 -276.5Q665 -287 650 -287H579Q564 -287 553.0 -276.5Q542 -266 542 -251V1308Q510 1320 484.0 1340.0Q458 1360 439.0 1386.5Q420 1413 410.0 1444.5Q400 1476 400 1510Q400 1555 417.0 1594.0Q434 1633 463.0 1662.0Q492 1691 531.0 1708.0Q570 1725 615 1725Q659 1725 698.0 1708.0Q737 1691 766.5 1661.5Q796 1632 813.0 1593.0Q830 1554 830 1510Q830 1476 819.5 1444.5Q809 1413 790.0 1386.0Q771 1359 744.5 1339.0Q718 1319 686 1307Z" style="fill:#f9c23c;stroke:none" transform="scale(1,-1) translate(0,-256)" /></svg>