<?xml version="1.0" encoding="utf-8" ?>
<svg baseProfile="full" height="256" version="1.1" width="256" xmlns="http://www.w3.org/2000/svg" xmlns:ev="http://www.w3.org/2001/xml-events" xmlns:xlink="http://www.w3.org/1999/xlink"><defs /><path d="M1324 637Q1334 625 1334 611V-36Q1334 -51 1323.5 -61.5Q1313 -72 1298 -72H723Q702 -72 682.0 -64.0Q662 -56 647 -40L831 431ZM1514 -72Q1499 -72 1488.5 -61.5Q1478 -51 1478 -36V611Q1478 626 1488.5 636.5Q1499 647 1514 647H2161Q2175 647 2186.0 636.0Q2197 625 2197 611V36Q2197 14 2188.5 -5.5Q2180 -25 2165.0 -40.0Q2150 -55 2130.5 -63.5Q2111 -72 2089 -72ZM2197 827Q2197 813 2186.0 802.0Q2175 791 2161 791H1514Q1500 791 1488 801L1622 1294L2165 1478Q2197 1446 2197 1402Z" style="fill:#83cbff;stroke:none" transform="scale(1,-1) translate(0,-256)" /></svg>