<?xml version="1.0" encoding="utf-8" ?>
<svg baseProfile="full" height="256" version="1.1" width="256" xmlns="http://www.w3.org/2000/svg" xmlns:ev="http://www.w3.org/2001/xml-events" xmlns:xlink="http://www.w3.org/1999/xlink"><defs /><path d="M615 1402Q615 1424 623.5 1443.5Q632 1463 647.0 1478.0Q662 1493 681.5 1501.5Q701 1510 723 1510H1298Q1312 1510 1323.0 1499.0Q1334 1488 1334 1474V827Q1334 812 1323.5 801.5Q1313 791 1298 791H651Q636 791 625.5 801.5Q615 812 615 827ZM615 611Q615 626 625.5 636.5Q636 647 651 647H1298Q1312 647 1324 637L647 -40Q631 -25 623.0 -5.0Q615 15 615 36ZM2165 1478Q2150 1493 2130.5 1501.5Q2111 1510 2089 1510H1514Q1500 1510 1489.0 1499.0Q1478 1488 1478 1474V827Q1478 813 1488 801Z" style="fill:#00a6ed;stroke:none" transform="scale(1,-1) translate(0,-256)" /></svg>