<?xml version="1.0" encoding="utf-8" ?>
<svg baseProfile="full" height="256" version="1.1" width="256" xmlns="http://www.w3.org/2000/svg" xmlns:ev="http://www.w3.org/2001/xml-events" xmlns:xlink="http://www.w3.org/1999/xlink"><defs /><path d="M1119 1221Q1119 1162 1141.5 1110.0Q1164 1058 1203.0 1019.0Q1242 980 1294.5 957.5Q1347 935 1406 935Q1465 935 1517.5 957.5Q1570 980 1609.0 1019.0Q1648 1058 1670.5 1110.0Q1693 1162 1693 1221H1766Q1766 1147 1737.5 1081.5Q1709 1016 1660.0 967.5Q1611 919 1545.5 891.0Q1480 863 1406 863Q1332 863 1266.5 891.0Q1201 919 1152.0 967.5Q1103 1016 1074.5 1081.5Q1046 1147 1046 1221Z" style="fill:#00d26a;stroke:none" transform="scale(1,-1) translate(0,-256)" /></svg>