<?xml version="1.0" encoding="utf-8" ?>
<svg baseProfile="full" height="256" version="1.1" width="256" xmlns="http://www.w3.org/2000/svg" xmlns:ev="http://www.w3.org/2001/xml-events" xmlns:xlink="http://www.w3.org/1999/xlink"><defs /><path d="M1913 1221Q1945 1221 1975.0 1213.5Q2005 1206 2032 1190L2390 983Q2400 978 2406.0 968.0Q2412 958 2412 947Q2412 941 2398.5 914.0Q2385 887 2364.0 849.5Q2343 812 2317.5 769.0Q2292 726 2269.0 686.5Q2246 647 2228.0 617.5Q2210 588 2204 577Q2193 556 2168 556Q2158 556 2132.0 569.5Q2106 583 2076.0 600.0Q2046 617 2019.0 634.0Q1992 651 1981 657V-233Q1981 -256 1965.5 -271.5Q1950 -287 1927 -287H885Q862 -287 846.5 -271.5Q831 -256 831 -233V658Q820 652 793.0 635.0Q766 618 735.5 600.5Q705 583 678.5 569.5Q652 556 643 556Q619 556 606 577Q600 588 582.0 617.5Q564 647 541.5 686.0Q519 725 494.0 768.0Q469 811 448.0 848.0Q427 885 413.5 912.0Q400 939 400 945Q400 970 421 983Q469 1013 519.0 1046.0Q569 1079 620.0 1110.5Q671 1142 723.5 1169.0Q776 1196 831 1212Q864 1221 898 1221H1913Z" style="fill:#86d72f;stroke:none" transform="scale(1,-1) translate(0,-256)" /></svg>