<?xml version="1.0" encoding="utf-8" ?>
<svg baseProfile="full" height="256" version="1.1" width="256" xmlns="http://www.w3.org/2000/svg" xmlns:ev="http://www.w3.org/2001/xml-events" xmlns:xlink="http://www.w3.org/1999/xlink"><defs /><path d="M1047 719Q1047 681 1025.0 654.0Q1003 627 970.0 609.5Q937 592 899.5 583.5Q862 575 831 575Q800 575 762.5 583.5Q725 592 692.0 609.5Q659 627 637.0 654.0Q615 681 615 719Q615 757 637.0 784.0Q659 811 692.0 828.5Q725 846 762.5 854.5Q800 863 831 863Q862 863 899.5 854.5Q937 846 970.0 828.5Q1003 811 1025.0 784.0Q1047 757 1047 719ZM2197 719Q2197 681 2175.0 654.0Q2153 627 2120.0 609.5Q2087 592 2049.5 583.5Q2012 575 1981 575Q1950 575 1912.5 583.5Q1875 592 1842.0 609.5Q1809 627 1787.0 654.0Q1765 681 1765 719Q1765 757 1787.0 784.0Q1809 811 1842.0 828.5Q1875 846 1912.5 854.5Q1950 863 1981 863Q2012 863 2049.5 854.5Q2087 846 2120.0 828.5Q2153 811 2175.0 784.0Q2197 757 2197 719Z" style="fill:#f8312f;stroke:none" transform="scale(1,-1) translate(0,-256)" /></svg>