<?xml version="1.0" encoding="utf-8" ?>
<svg baseProfile="full" height="256" version="1.1" width="256" xmlns="http://www.w3.org/2000/svg" xmlns:ev="http://www.w3.org/2001/xml-events" xmlns:xlink="http://www.w3.org/1999/xlink"><defs /><path d="M974 575Q993 575 1006.5 567.5Q1020 560 1032 546Q1066 507 1110.0 478.5Q1154 450 1202.5 432.0Q1251 414 1303.0 405.0Q1355 396 1406 396Q1457 396 1508.5 405.0Q1560 414 1609.0 432.0Q1658 450 1701.5 478.5Q1745 507 1780 546Q1792 560 1805.5 567.5Q1819 575 1838 575Q1867 575 1888.0 553.5Q1909 532 1909 503Q1909 490 1905.5 480.5Q1902 471 1895 460Q1884 443 1867.0 427.5Q1850 412 1835 399Q1745 324 1633.5 288.0Q1522 252 1406 252Q1290 252 1178.5 288.0Q1067 324 977 399Q962 412 945.0 427.5Q928 443 917 460Q910 471 906.5 480.5Q903 490 903 503Q903 532 924.0 553.5Q945 575 974 575Z" style="fill:#402a32;stroke:none" transform="scale(1,-1) translate(0,-256)" /></svg>