<?xml version="1.0" encoding="utf-8" ?>
<svg baseProfile="full" height="256" version="1.1" width="256" xmlns="http://www.w3.org/2000/svg" xmlns:ev="http://www.w3.org/2001/xml-events" xmlns:xlink="http://www.w3.org/1999/xlink"><defs /><path d="M1262 791Q1262 761 1250.5 734.5Q1239 708 1219.5 688.5Q1200 669 1174.0 658.0Q1148 647 1118 647Q1088 647 1062.0 658.5Q1036 670 1016.5 689.5Q997 709 986.0 735.0Q975 761 975 791Q975 821 986.0 847.0Q997 873 1016.5 892.5Q1036 912 1062.0 923.5Q1088 935 1118 935Q1148 935 1174.0 923.5Q1200 912 1219.5 892.5Q1239 873 1250.5 847.0Q1262 821 1262 791ZM1550 791Q1550 761 1561.0 735.0Q1572 709 1591.5 689.5Q1611 670 1637.0 658.5Q1663 647 1693 647Q1723 647 1749.0 658.0Q1775 669 1794.5 688.5Q1814 708 1825.5 734.5Q1837 761 1837 791Q1837 821 1825.5 847.0Q1814 873 1794.5 892.5Q1775 912 1749.0 923.5Q1723 935 1693 935Q1663 935 1637.0 923.5Q1611 912 1591.5 892.5Q1572 873 1561.0 847.0Q1550 821 1550 791Z" style="fill:#402a32;stroke:none" transform="scale(1,-1) translate(0,-256)" /></svg>