<?xml version="1.0" encoding="utf-8" ?>
<svg baseProfile="full" height="256" version="1.1" width="256" xmlns="http://www.w3.org/2000/svg" xmlns:ev="http://www.w3.org/2001/xml-events" xmlns:xlink="http://www.w3.org/1999/xlink"><defs /><path d="M1414 647Q1433 647 1450.5 640.0Q1468 633 1481.0 620.5Q1494 608 1501.5 591.0Q1509 574 1509 555Q1509 527 1496 507Q1521 527 1544.0 544.5Q1567 562 1601 562Q1621 562 1639.0 554.5Q1657 547 1671.0 534.0Q1685 521 1693.0 503.5Q1701 486 1701 466Q1701 437 1688.0 418.5Q1675 400 1654 383Q1687 377 1710.5 350.0Q1734 323 1734 289Q1734 269 1728.0 254.5Q1722 240 1712.0 228.0Q1702 216 1689.0 206.0Q1676 196 1662 185Q1695 177 1717.0 152.0Q1739 127 1739 92Q1739 69 1728.5 49.0Q1718 29 1699 15L1319 -256Q1293 -275 1268.0 -289.5Q1243 -304 1217.0 -314.0Q1191 -324 1162.5 -329.0Q1134 -334 1101 -334Q1031 -334 968.5 -307.5Q906 -281 859.5 -235.5Q813 -190 786.0 -128.5Q759 -67 759 4Q759 49 769.5 85.0Q780 121 799 162Q800 164 800.5 167.0Q801 170 802 172Q819 213 839.0 254.0Q859 295 873 337Q890 388 903.5 441.0Q917 494 931 545Q940 577 967.5 596.5Q995 616 1028 616Q1047 616 1065.0 608.5Q1083 601 1096.5 588.0Q1110 575 1118.0 557.5Q1126 540 1126 520Q1126 496 1117.0 470.0Q1108 444 1101 421L1353 625Q1380 647 1414 647Z" style="fill:#ff822d;stroke:none" transform="scale(1,-1) translate(0,-256)" /></svg>