<?xml version="1.0" encoding="utf-8" ?>
<svg baseProfile="full" height="256" version="1.1" width="256" xmlns="http://www.w3.org/2000/svg" xmlns:ev="http://www.w3.org/2001/xml-events" xmlns:xlink="http://www.w3.org/1999/xlink"><defs /><path d="M1989 1438Q2030 1438 2068.0 1423.0Q2106 1408 2134.5 1382.0Q2163 1356 2180.0 1319.5Q2197 1283 2197 1241V-91Q2197 -133 2180.0 -169.0Q2163 -205 2134.0 -231.5Q2105 -258 2067.5 -272.5Q2030 -287 1989 -287H823Q782 -287 744.5 -272.5Q707 -258 678.0 -231.5Q649 -205 632.0 -169.0Q615 -133 615 -91V1241Q615 1283 632.0 1319.5Q649 1356 677.5 1382.0Q706 1408 744.0 1423.0Q782 1438 823 1438Z" style="fill:#aeddff;stroke:none" transform="scale(1,-1) translate(0,-256)" /></svg>