<?xml version="1.0" encoding="utf-8" ?>
<svg baseProfile="full" height="256" version="1.1" width="256" xmlns="http://www.w3.org/2000/svg" xmlns:ev="http://www.w3.org/2001/xml-events" xmlns:xlink="http://www.w3.org/1999/xlink"><defs /><path d="M831 1617Q831 1639 839.5 1659.0Q848 1679 862.5 1693.5Q877 1708 896.5 1716.5Q916 1725 939 1725H1873Q1895 1725 1915.0 1716.5Q1935 1708 1949.5 1693.5Q1964 1679 1972.5 1659.0Q1981 1639 1981 1617Q1981 1594 1972.5 1574.5Q1964 1555 1949.0 1541.0Q1934 1527 1914.5 1518.5Q1895 1510 1873 1510H939Q917 1510 897.5 1518.5Q878 1527 863.0 1541.0Q848 1555 839.5 1574.5Q831 1594 831 1617Z" style="fill:#bebebe;stroke:none" transform="scale(1,-1) translate(0,-256)" /></svg>