<?xml version="1.0" encoding="utf-8" ?>
<svg baseProfile="full" height="256" version="1.1" width="256" xmlns="http://www.w3.org/2000/svg" xmlns:ev="http://www.w3.org/2001/xml-events" xmlns:xlink="http://www.w3.org/1999/xlink"><defs /><path d="M615 431Q615 460 636.5 481.5Q658 503 687 503H903L1406 302L1909 503H2125Q2156 503 2171.0 488.5Q2186 474 2192.0 452.0Q2198 430 2197.5 405.5Q2197 381 2197 360Q2197 271 2174.0 188.0Q2151 105 2108.5 33.5Q2066 -38 2007.0 -97.0Q1948 -156 1876.5 -198.5Q1805 -241 1722.0 -264.0Q1639 -287 1550 -287H1262Q1173 -287 1090.0 -264.0Q1007 -241 935.5 -198.5Q864 -156 805.0 -97.0Q746 -38 703.5 33.5Q661 105 638.0 188.0Q615 271 615 360Z" style="fill:#ca0b4a;stroke:none" transform="scale(1,-1) translate(0,-256)" /></svg>