<?xml version="1.0" encoding="utf-8" ?>
<svg baseProfile="full" height="256" version="1.1" width="256" xmlns="http://www.w3.org/2000/svg" xmlns:ev="http://www.w3.org/2001/xml-events" xmlns:xlink="http://www.w3.org/1999/xlink"><defs /><path d="M759 431Q759 493 769.5 543.5Q780 594 799.5 640.0Q819 686 845.0 731.0Q871 776 903 827Q925 863 945.0 913.0Q965 963 979.5 1017.5Q994 1072 1002.5 1125.5Q1011 1179 1011 1222Q1011 1320 1030.0 1411.0Q1049 1502 1094.5 1571.5Q1140 1641 1216.0 1683.0Q1292 1725 1406 1725Q1520 1725 1596.0 1683.0Q1672 1641 1717.5 1571.5Q1763 1502 1782.0 1411.0Q1801 1320 1801 1222Q1801 1179 1809.5 1125.5Q1818 1072 1832.5 1017.5Q1847 963 1866.5 913.0Q1886 863 1909 827Q1940 776 1966.5 731.0Q1993 686 2012.5 640.0Q2032 594 2042.5 543.5Q2053 493 2053 431H759Z" style="fill:#f70a8d;stroke:none" transform="scale(1,-1) translate(0,-256)" /></svg>