<?xml version="1.0" encoding="utf-8" ?>
<svg baseProfile="full" height="256" version="1.1" width="256" xmlns="http://www.w3.org/2000/svg" xmlns:ev="http://www.w3.org/2001/xml-events" xmlns:xlink="http://www.w3.org/1999/xlink"><defs /><path d="M1693 1294Q1693 1234 1670.5 1181.5Q1648 1129 1609.0 1090.0Q1570 1051 1518.0 1028.5Q1466 1006 1406 1006Q1346 1006 1293.5 1028.5Q1241 1051 1202.0 1090.0Q1163 1129 1140.5 1181.5Q1118 1234 1118 1294Q1118 1354 1140.5 1406.0Q1163 1458 1202.0 1497.0Q1241 1536 1293.5 1558.5Q1346 1581 1406 1581Q1466 1581 1518.0 1558.5Q1570 1536 1609.0 1497.0Q1648 1458 1670.5 1406.0Q1693 1354 1693 1294Z" style="fill:#f3c07b;stroke:none" transform="scale(1,-1) translate(0,-256)" /></svg>