<?xml version="1.0" encoding="utf-8" ?>
<svg baseProfile="full" height="256" version="1.1" width="256" xmlns="http://www.w3.org/2000/svg" xmlns:ev="http://www.w3.org/2001/xml-events" xmlns:xlink="http://www.w3.org/1999/xlink"><defs /><path d="M1527 1006Q1554 1006 1578.0 996.0Q1602 986 1619.5 968.0Q1637 950 1647.5 926.5Q1658 903 1658 876Q1658 870 1653.5 866.5Q1649 863 1644 863H1550Q1513 863 1489.0 876.5Q1465 890 1449.0 905.5Q1433 921 1423.0 934.5Q1413 948 1406 948Q1398 948 1388.5 934.5Q1379 921 1363.0 905.5Q1347 890 1322.5 876.5Q1298 863 1262 863H1167Q1154 863 1154 876Q1154 903 1164.5 926.5Q1175 950 1192.5 968.0Q1210 986 1234.0 996.0Q1258 1006 1285 1006Z" style="fill:#ca0b4a;stroke:none" transform="scale(1,-1) translate(0,-256)" /></svg>