<?xml version="1.0" encoding="utf-8" ?>
<svg baseProfile="full" height="256" version="1.1" width="256" xmlns="http://www.w3.org/2000/svg" xmlns:ev="http://www.w3.org/2001/xml-events" xmlns:xlink="http://www.w3.org/1999/xlink"><defs /><path d="M1406 1581Q1406 1521 1383.0 1469.0Q1360 1417 1321.0 1378.0Q1282 1339 1229.5 1316.5Q1177 1294 1118 1294Q1118 1354 1140.5 1406.0Q1163 1458 1202.0 1497.0Q1241 1536 1293.5 1558.5Q1346 1581 1406 1581ZM1693 1294Q1634 1294 1581.5 1316.5Q1529 1339 1490.0 1378.0Q1451 1417 1428.5 1469.5Q1406 1522 1406 1581Q1466 1581 1518.0 1558.5Q1570 1536 1609.0 1497.0Q1648 1458 1670.5 1406.0Q1693 1354 1693 1294Z" style="fill:#a56953;stroke:none" transform="scale(1,-1) translate(0,-256)" /></svg>