<?xml version="1.0" encoding="utf-8" ?>
<svg baseProfile="full" height="256" version="1.1" width="256" xmlns="http://www.w3.org/2000/svg" xmlns:ev="http://www.w3.org/2001/xml-events" xmlns:xlink="http://www.w3.org/1999/xlink"><defs /><path d="M1154 1581Q1176 1581 1186 1563Q1192 1553 1208.0 1527.0Q1224 1501 1241.0 1472.0Q1258 1443 1271.0 1418.0Q1284 1393 1284 1384Q1284 1370 1273.5 1359.0Q1263 1348 1248 1348H1061Q1046 1348 1035.5 1358.5Q1025 1369 1025 1384Q1025 1393 1038.0 1418.0Q1051 1443 1068.0 1472.0Q1085 1501 1101.0 1527.0Q1117 1553 1123 1563Q1128 1571 1136.5 1576.0Q1145 1581 1154 1581ZM1657 1348Q1648 1348 1639.5 1353.0Q1631 1358 1626 1366Q1620 1376 1604.0 1402.0Q1588 1428 1571.0 1457.5Q1554 1487 1541.0 1512.0Q1528 1537 1528 1546Q1528 1561 1539.0 1571.0Q1550 1581 1564 1581H1751Q1765 1581 1776.0 1571.0Q1787 1561 1787 1546Q1787 1537 1774.0 1512.0Q1761 1487 1744.0 1457.5Q1727 1428 1711.0 1402.0Q1695 1376 1689 1366Q1679 1348 1657 1348ZM1118 1042Q1118 1020 1109.5 1000.5Q1101 981 1086.5 966.5Q1072 952 1052.5 943.5Q1033 935 1011 935Q989 935 969.5 943.5Q950 952 935.0 966.0Q920 980 911.5 999.5Q903 1019 903 1042Q903 1064 911.5 1084.0Q920 1104 934.5 1118.5Q949 1133 968.5 1141.5Q988 1150 1011 1150Q1033 1150 1053.0 1141.5Q1073 1133 1087.0 1118.0Q1101 1103 1109.5 1083.5Q1118 1064 1118 1042ZM1160 879Q1181 879 1199.5 871.0Q1218 863 1232.0 849.0Q1246 835 1254.0 816.5Q1262 798 1262 777V541Q1262 524 1250.0 509.0Q1238 494 1219 494Q1199 494 1185.0 507.0Q1171 520 1171 540V764Q1171 773 1164.0 780.0Q1157 787 1148 787Q1138 787 1131.5 780.5Q1125 774 1125 764V190Q1125 170 1111.0 157.0Q1097 144 1077 144Q1058 144 1046.0 159.0Q1034 174 1034 191V511Q1034 520 1027.0 526.5Q1020 533 1011 533Q1002 533 995.0 526.5Q988 520 988 511V190Q988 170 974.0 157.0Q960 144 940 144Q921 144 908.5 158.5Q896 173 896 191V764Q896 774 889.5 780.5Q883 787 873 787Q864 787 857.5 780.0Q851 773 851 764V540Q851 520 837.0 507.0Q823 494 803 494Q784 494 771.5 508.5Q759 523 759 541V777Q759 798 767.0 816.5Q775 835 789.0 849.0Q803 863 821.5 871.0Q840 879 861 879ZM1406 1150Q1436 1150 1457.0 1129.0Q1478 1108 1478 1078V144Q1478 114 1457.0 93.0Q1436 72 1406 72Q1376 72 1355.0 93.0Q1334 114 1334 144V1078Q1334 1108 1355.0 1129.0Q1376 1150 1406 1150ZM1909 1042Q1909 1019 1900.5 999.5Q1892 980 1877.0 966.0Q1862 952 1842.5 943.5Q1823 935 1801 935Q1779 935 1759.5 943.5Q1740 952 1725.0 966.5Q1710 981 1701.5 1000.5Q1693 1020 1693 1042Q1693 1064 1701.5 1083.5Q1710 1103 1725.0 1118.0Q1740 1133 1759.5 1141.5Q1779 1150 1801 1150Q1823 1150 1843.0 1141.5Q1863 1133 1877.5 1118.5Q1892 1104 1900.5 1084.0Q1909 1064 1909 1042ZM1676 823 1627 608Q1624 595 1615.0 587.0Q1606 579 1592 579Q1574 579 1561.5 592.5Q1549 606 1549 623Q1549 630 1552.5 648.5Q1556 667 1561.0 691.0Q1566 715 1572.5 742.5Q1579 770 1585.0 795.5Q1591 821 1596.0 841.0Q1601 861 1603 871L1605 870Q1612 892 1630.5 905.5Q1649 919 1672 919H1930Q1953 919 1971.5 905.5Q1990 892 1998 870L1999 871Q2002 857 2011.0 820.5Q2020 784 2029.5 743.0Q2039 702 2046.5 667.5Q2054 633 2054 624Q2054 607 2041.0 593.0Q2028 579 2010 579Q1997 579 1987.5 587.0Q1978 595 1975 608L1927 823H1882Q1885 810 1892.0 781.5Q1899 753 1908.0 717.5Q1917 682 1926.5 643.5Q1936 605 1944.0 570.5Q1952 536 1957.0 510.5Q1962 485 1962 476Q1962 458 1950.5 449.0Q1939 440 1922 440V192Q1922 175 1910.5 163.5Q1899 152 1882 152Q1865 152 1853.0 163.5Q1841 175 1841 192V440H1761V192Q1761 175 1749.5 163.5Q1738 152 1721 152Q1704 152 1692.5 163.5Q1681 175 1681 192V440Q1661 440 1648.5 454.0Q1636 468 1641 488L1721 823ZM615 1150Q615 1180 626.5 1206.0Q638 1232 657.5 1251.5Q677 1271 703.0 1282.5Q729 1294 759 1294H2053Q2083 1294 2109.0 1282.5Q2135 1271 2154.5 1251.5Q2174 1232 2185.5 1206.0Q2197 1180 2197 1150V72Q2197 42 2185.5 16.0Q2174 -10 2154.5 -29.5Q2135 -49 2109.0 -60.5Q2083 -72 2053 -72H759Q729 -72 703.0 -60.5Q677 -49 657.5 -29.5Q638 -10 626.5 16.0Q615 42 615 72ZM759 1222Q729 1222 708.0 1201.0Q687 1180 687 1150V72Q687 42 708.0 21.0Q729 0 759 0H2053Q2083 0 2104.0 21.0Q2125 42 2125 72V1150Q2125 1180 2104.0 1201.0Q2083 1222 2053 1222Z" style="fill:#ffffff;stroke:none" transform="scale(1,-1) translate(0,-256)" /></svg>