<?xml version="1.0" encoding="utf-8" ?>
<svg baseProfile="full" height="256" version="1.1" width="256" xmlns="http://www.w3.org/2000/svg" xmlns:ev="http://www.w3.org/2001/xml-events" xmlns:xlink="http://www.w3.org/1999/xlink"><defs /><path d="M780 -230Q746 -230 718.0 -219.5Q690 -209 666.0 -191.5Q642 -174 620.5 -151.5Q599 -129 579 -106Q557 -82 541.5 -48.5Q526 -15 526 18Q526 41 535.0 62.5Q544 84 561 100L954 460Q977 481 1002.0 492.0Q1027 503 1059 503Q1089 503 1116.5 492.0Q1144 481 1165 460Q1183 442 1198.5 426.5Q1214 411 1226.0 394.0Q1238 377 1245.0 357.0Q1252 337 1252 310Q1252 278 1241.0 253.0Q1230 228 1209 204L859 -199Q845 -215 822.5 -222.5Q800 -230 780 -230Z" style="fill:#fbb8ab;stroke:none" transform="scale(1,-1) translate(0,-256)" /></svg>