<?xml version="1.0" encoding="utf-8" ?>
<svg baseProfile="full" height="256" version="1.1" width="256" xmlns="http://www.w3.org/2000/svg" xmlns:ev="http://www.w3.org/2001/xml-events" xmlns:xlink="http://www.w3.org/1999/xlink"><defs /><path d="M1345 1218Q1298 1218 1256.5 1236.0Q1215 1254 1184.5 1284.5Q1154 1315 1136.0 1356.5Q1118 1398 1118 1445Q1118 1492 1136.0 1533.5Q1154 1575 1184.5 1605.5Q1215 1636 1256.5 1654.0Q1298 1672 1345 1672Q1392 1672 1433.5 1654.0Q1475 1636 1505.5 1605.5Q1536 1575 1554.0 1533.5Q1572 1492 1572 1445Q1572 1398 1554.0 1356.5Q1536 1315 1505.5 1284.5Q1475 1254 1433.5 1236.0Q1392 1218 1345 1218Z" style="fill:#e6e6e6;stroke:none" transform="scale(1,-1) translate(0,-256)" /></svg>