<?xml version="1.0" encoding="utf-8" ?>
<svg baseProfile="full" height="256" version="1.1" width="256" xmlns="http://www.w3.org/2000/svg" xmlns:ev="http://www.w3.org/2001/xml-events" xmlns:xlink="http://www.w3.org/1999/xlink"><defs /><path d="M1598 82Q1541 82 1487.5 98.0Q1434 114 1385.5 140.5Q1337 167 1292.5 202.0Q1248 237 1208 276Q1181 302 1155.5 330.0Q1130 358 1104 384Q1081 407 1057.5 429.0Q1034 451 1011 474Q974 512 942.0 553.5Q910 595 886.0 640.5Q862 686 848.5 736.0Q835 786 835 841Q835 901 851.0 958.0Q867 1015 894.5 1067.0Q922 1119 959.0 1166.5Q996 1214 1037 1255Q1134 1352 1259.0 1403.5Q1384 1455 1521 1455Q1615 1455 1702.5 1431.0Q1790 1407 1865.5 1363.0Q1941 1319 2003.0 1257.0Q2065 1195 2109.0 1120.0Q2153 1045 2177.0 957.5Q2201 870 2201 776Q2201 622 2138.5 484.0Q2076 346 1961 244Q1923 211 1881.0 181.5Q1839 152 1793.5 130.0Q1748 108 1698.5 95.0Q1649 82 1598 82Z" style="fill:#e39d89;stroke:none" transform="scale(1,-1) translate(0,-256)" /></svg>