<?xml version="1.0" encoding="utf-8" ?>
<svg baseProfile="full" height="256" version="1.1" width="256" xmlns="http://www.w3.org/2000/svg" xmlns:ev="http://www.w3.org/2001/xml-events" xmlns:xlink="http://www.w3.org/1999/xlink"><defs /><path d="M609 113Q653 113 699.5 88.0Q746 63 784.0 24.5Q822 -14 846.0 -61.0Q870 -108 870 -152Q870 -193 844.0 -211.5Q818 -230 780 -230Q746 -230 718.0 -219.5Q690 -209 666.0 -191.5Q642 -174 621.0 -151.5Q600 -129 579 -106Q558 -82 542.5 -48.0Q527 -14 527 18Q527 56 547.0 84.5Q567 113 609 113Z" style="fill:#e39d89;stroke:none" transform="scale(1,-1) translate(0,-256)" /></svg>