<?xml version="1.0" encoding="utf-8" ?>
<svg baseProfile="full" height="256" version="1.1" width="256" xmlns="http://www.w3.org/2000/svg" xmlns:ev="http://www.w3.org/2001/xml-events" xmlns:xlink="http://www.w3.org/1999/xlink"><defs /><path d="M2122 682Q2122 549 2075.5 431.0Q2029 313 1941 213L1563 -216Q1533 -250 1491.0 -268.5Q1449 -287 1404 -287Q1359 -287 1317.5 -268.5Q1276 -250 1246 -216L868 213Q780 313 733.5 431.0Q687 549 687 682Q687 782 712.5 874.0Q738 966 784.5 1046.0Q831 1126 896.0 1191.5Q961 1257 1040.5 1304.0Q1120 1351 1212.0 1376.5Q1304 1402 1404 1402Q1504 1402 1596.0 1376.5Q1688 1351 1768.0 1304.0Q1848 1257 1913.0 1191.5Q1978 1126 2024.5 1046.0Q2071 966 2096.5 874.0Q2122 782 2122 682Z" style="fill:#f8312f;stroke:none" transform="scale(1,-1) translate(0,-256)" /></svg>