<?xml version="1.0" encoding="utf-8" ?>
<svg baseProfile="full" height="256" version="1.1" width="256" xmlns="http://www.w3.org/2000/svg" xmlns:ev="http://www.w3.org/2001/xml-events" xmlns:xlink="http://www.w3.org/1999/xlink"><defs /><path d="M694 1150Q633 1150 579.5 1173.0Q526 1196 486.0 1236.0Q446 1276 423.0 1329.5Q400 1383 400 1444V1537Q400 1555 413.0 1568.0Q426 1581 444 1581H680Q731 1581 778.0 1564.0Q825 1547 863.0 1517.0Q901 1487 928.0 1445.5Q955 1404 967 1354Q995 1359 1018 1359Q1056 1359 1092.0 1347.5Q1128 1336 1160 1315Q1218 1277 1263.5 1226.0Q1309 1175 1340.5 1115.5Q1372 1056 1389.0 989.5Q1406 923 1406 854V530L759 419V1112Q759 1122 760.0 1131.0Q761 1140 763 1150ZM1837 1151Q1763 1155 1696.0 1185.0Q1629 1215 1577 1267L1406 1438H1716Q1793 1438 1861 1405Q1879 1445 1906.5 1477.5Q1934 1510 1969.5 1533.0Q2005 1556 2046.0 1568.5Q2087 1581 2131 1581H2367Q2385 1581 2398.5 1568.5Q2412 1556 2412 1537V1444Q2412 1383 2389.0 1329.5Q2366 1276 2326.0 1236.0Q2286 1196 2232.5 1173.0Q2179 1150 2118 1150H1837Z" style="fill:#636363;stroke:none" transform="scale(1,-1) translate(0,-256)" /></svg>