<?xml version="1.0" encoding="utf-8" ?>
<svg baseProfile="full" height="256" version="1.1" width="256" xmlns="http://www.w3.org/2000/svg" xmlns:ev="http://www.w3.org/2001/xml-events" xmlns:xlink="http://www.w3.org/1999/xlink"><defs /><path d="M1233 1563Q1233 1515 1248.0 1470.5Q1263 1426 1291.0 1390.0Q1319 1354 1357.0 1327.5Q1395 1301 1442 1288Q1488 1301 1526.5 1328.0Q1565 1355 1592.5 1391.0Q1620 1427 1635.5 1471.0Q1651 1515 1651 1563Q1651 1596 1643.5 1626.0Q1636 1656 1623 1686Q1621 1690 1621 1698Q1621 1709 1628.5 1717.0Q1636 1725 1647 1725Q1652 1725 1661.0 1721.5Q1670 1718 1679.0 1713.5Q1688 1709 1696.0 1704.0Q1704 1699 1709 1696Q1769 1656 1803.0 1591.5Q1837 1527 1837 1455Q1837 1396 1814.5 1344.0Q1792 1292 1753.0 1253.0Q1714 1214 1662.0 1191.5Q1610 1169 1550 1169Q1493 1169 1442 1190Q1391 1169 1334 1169Q1275 1169 1222.5 1191.5Q1170 1214 1131.0 1253.0Q1092 1292 1069.5 1344.0Q1047 1396 1047 1455Q1047 1527 1081.0 1591.5Q1115 1656 1175 1696Q1179 1699 1187.5 1704.0Q1196 1709 1205.0 1713.5Q1214 1718 1223.0 1721.5Q1232 1725 1237 1725Q1248 1725 1255.5 1717.0Q1263 1709 1263 1698Q1263 1690 1261 1686Q1248 1656 1240.5 1626.0Q1233 1596 1233 1563Z" style="fill:#ffdea7;stroke:none" transform="scale(1,-1) translate(0,-256)" /></svg>