<?xml version="1.0" encoding="utf-8" ?>
<svg baseProfile="full" height="256" version="1.1" width="256" xmlns="http://www.w3.org/2000/svg" xmlns:ev="http://www.w3.org/2001/xml-events" xmlns:xlink="http://www.w3.org/1999/xlink"><defs /><path d="M1047 863Q1047 892 1068.0 913.5Q1089 935 1118 935Q1147 935 1168.5 913.5Q1190 892 1190 863V791Q1190 761 1169.0 740.0Q1148 719 1118 719Q1089 719 1068.0 740.5Q1047 762 1047 791ZM1693 719Q1664 719 1643.0 740.5Q1622 762 1622 791V863Q1622 892 1643.0 913.5Q1664 935 1693 935Q1722 935 1743.5 913.5Q1765 892 1765 863V791Q1765 761 1744.0 740.0Q1723 719 1693 719Z" style="fill:#212121;stroke:none" transform="scale(1,-1) translate(0,-256)" /></svg>