<?xml version="1.0" encoding="utf-8" ?>
<svg baseProfile="full" height="256" version="1.1" width="256" xmlns="http://www.w3.org/2000/svg" xmlns:ev="http://www.w3.org/2001/xml-events" xmlns:xlink="http://www.w3.org/1999/xlink"><defs /><path d="M1190 288Q1161 288 1139.5 309.5Q1118 331 1118 360Q1118 389 1139.5 410.0Q1161 431 1190 431Q1219 431 1240.5 410.0Q1262 389 1262 360Q1262 330 1241.0 309.0Q1220 288 1190 288ZM1715 -144Q1657 -212 1576.5 -249.5Q1496 -287 1406 -287Q1316 -287 1235.5 -249.5Q1155 -212 1097 -144ZM1693 360Q1693 331 1672.0 309.5Q1651 288 1622 288Q1592 288 1571.0 309.0Q1550 330 1550 360Q1550 389 1571.5 410.0Q1593 431 1622 431Q1651 431 1672.0 410.0Q1693 389 1693 360Z" style="fill:#ff8687;stroke:none" transform="scale(1,-1) translate(0,-256)" /></svg>