<?xml version="1.0" encoding="utf-8" ?>
<svg baseProfile="full" height="256" version="1.1" width="256" xmlns="http://www.w3.org/2000/svg" xmlns:ev="http://www.w3.org/2001/xml-events" xmlns:xlink="http://www.w3.org/1999/xlink"><defs /><path d="M1633 1366Q1661 1355 1681.5 1348.5Q1702 1342 1729 1330Q1745 1323 1758.0 1316.5Q1771 1310 1783.0 1303.0Q1795 1296 1807.5 1289.0Q1820 1282 1835 1274L2047 1163Q2053 1133 2053 1101V254H903V1337Q903 1350 914.0 1363.5Q925 1377 940.0 1389.0Q955 1401 971.0 1410.5Q987 1420 998 1423Q1046 1438 1096 1438H1442Z" style="fill:#d3d3d3;stroke:none" transform="scale(1,-1) translate(0,-256)" /></svg>