<?xml version="1.0" encoding="utf-8" ?>
<svg baseProfile="full" height="256" version="1.1" width="256" xmlns="http://www.w3.org/2000/svg" xmlns:ev="http://www.w3.org/2001/xml-events" xmlns:xlink="http://www.w3.org/1999/xlink"><defs /><path d="M681 1474Q712 1474 740.5 1464.5Q769 1455 792.5 1437.5Q816 1420 833.0 1395.5Q850 1371 859 1341Q821 1302 798 1258H694Q650 1258 615.5 1274.0Q581 1290 557.0 1317.5Q533 1345 520.5 1381.5Q508 1418 508 1459Q508 1465 512.5 1469.5Q517 1474 523 1474ZM2131 1474Q2100 1474 2071.5 1464.5Q2043 1455 2019.5 1437.5Q1996 1420 1979.0 1395.5Q1962 1371 1953 1341Q1971 1323 1986.5 1302.0Q2002 1281 2014 1258H2118Q2161 1258 2195.5 1274.0Q2230 1290 2254.0 1317.5Q2278 1345 2291.0 1381.5Q2304 1418 2304 1459Q2304 1465 2299.5 1469.5Q2295 1474 2289 1474ZM2125 253Q2125 171 2094.0 98.5Q2063 26 2009.0 -28.0Q1955 -82 1883.0 -113.0Q1811 -144 1729 -144H1707L1405 -212L1105 -144H1083Q1001 -144 929.0 -113.0Q857 -82 803.0 -28.0Q749 26 718.0 98.5Q687 171 687 253Q687 334 718.5 405.5Q750 477 804.0 531.0Q858 585 930.0 616.0Q1002 647 1083 647H1728Q1810 647 1882.0 616.0Q1954 585 2008.0 531.5Q2062 478 2093.5 406.5Q2125 335 2125 253Z" style="fill:#fbb8ab;stroke:none" transform="scale(1,-1) translate(0,-256)" /></svg>