<?xml version="1.0" encoding="utf-8" ?>
<svg baseProfile="full" height="256" version="1.1" width="256" xmlns="http://www.w3.org/2000/svg" xmlns:ev="http://www.w3.org/2001/xml-events" xmlns:xlink="http://www.w3.org/1999/xlink"><defs /><path d="M1193 570Q1193 621 1211.0 663.0Q1229 705 1260.0 737.5Q1291 770 1332.5 791.5Q1374 813 1421 823Q1461 832 1496.0 850.0Q1531 868 1557.5 895.5Q1584 923 1599.0 958.5Q1614 994 1614 1038V1127Q1614 1176 1594.0 1217.5Q1574 1259 1541.0 1289.0Q1508 1319 1464.5 1336.0Q1421 1353 1374 1353Q1328 1353 1286.0 1336.5Q1244 1320 1211.5 1290.5Q1179 1261 1159.5 1221.0Q1140 1181 1140 1134Q1140 1097 1125.0 1066.0Q1110 1035 1084.5 1012.5Q1059 990 1026.0 977.5Q993 965 957 965Q921 965 888.0 977.5Q855 990 829.0 1012.5Q803 1035 787.5 1066.0Q772 1097 772 1135Q772 1257 822.0 1359.5Q872 1462 956.0 1536.0Q1040 1610 1148.5 1651.5Q1257 1693 1374 1693Q1492 1693 1601.5 1651.0Q1711 1609 1795.5 1533.5Q1880 1458 1930.5 1354.5Q1981 1251 1981 1128V1038Q1981 964 1961.0 895.5Q1941 827 1904.5 767.0Q1868 707 1817.0 656.5Q1766 606 1704 569Q1672 549 1640.0 536.5Q1608 524 1573 510Q1568 508 1564.0 503.0Q1560 498 1560 492V370Q1560 333 1545.0 301.5Q1530 270 1504.5 247.5Q1479 225 1446.0 212.5Q1413 200 1377 200Q1341 200 1308.0 212.5Q1275 225 1249.5 247.5Q1224 270 1208.5 301.0Q1193 332 1193 369ZM1370 -287Q1333 -287 1300.0 -273.0Q1267 -259 1242.5 -234.5Q1218 -210 1204.0 -177.5Q1190 -145 1190 -108Q1190 -71 1204.0 -38.0Q1218 -5 1242.5 19.5Q1267 44 1300.0 58.0Q1333 72 1370 72Q1407 72 1440.0 58.0Q1473 44 1497.5 19.5Q1522 -5 1536.0 -38.0Q1550 -71 1550 -108Q1550 -145 1536.0 -177.5Q1522 -210 1497.5 -234.5Q1473 -259 1440.0 -273.0Q1407 -287 1370 -287Z" style="fill:#b4acbc;stroke:none" transform="scale(1,-1) translate(0,-256)" /></svg>