<?xml version="1.0" encoding="utf-8" ?>
<svg baseProfile="full" height="256" version="1.1" width="256" xmlns="http://www.w3.org/2000/svg" xmlns:ev="http://www.w3.org/2001/xml-events" xmlns:xlink="http://www.w3.org/1999/xlink"><defs /><path d="M618 700Q582 700 547.0 710.5Q512 721 482.5 741.0Q453 761 431.5 789.5Q410 818 402 855Q424 835 460.0 822.5Q496 810 536.5 803.0Q577 796 616.0 793.5Q655 791 683 791H1285Q1269 777 1239.5 765.0Q1210 753 1174.0 743.0Q1138 733 1098.0 725.0Q1058 717 1020.5 711.5Q983 706 951.0 703.0Q919 700 899 700ZM925 369Q916 369 902.5 377.5Q889 386 875.5 397.5Q862 409 850.5 421.0Q839 433 835 440H1154Q1169 440 1179.5 429.5Q1190 419 1190 404Q1190 390 1179.0 379.5Q1168 369 1154 369ZM1240 47H983Q959 58 935.5 78.0Q912 98 897 119H1240Q1255 119 1265.5 108.5Q1276 98 1276 83Q1276 68 1265.5 57.5Q1255 47 1240 47Z" style="fill:#d67d00;stroke:none" transform="scale(1,-1) translate(0,-256)" /></svg>