<?xml version="1.0" encoding="utf-8" ?>
<svg baseProfile="full" height="256" version="1.1" width="256" xmlns="http://www.w3.org/2000/svg" xmlns:ev="http://www.w3.org/2001/xml-events" xmlns:xlink="http://www.w3.org/1999/xlink"><defs /><path d="M1385 1560Q1460 1560 1516 1510Q1529 1499 1544.0 1479.0Q1559 1459 1574.0 1436.5Q1589 1414 1603.0 1392.5Q1617 1371 1628 1356Q1667 1303 1707.5 1258.0Q1748 1213 1793.5 1175.0Q1839 1137 1890.5 1105.0Q1942 1073 2003 1047Q2045 1029 2083.5 1007.0Q2122 985 2157 956Q2214 910 2261.0 849.5Q2308 789 2341.0 720.0Q2374 651 2392.5 576.5Q2411 502 2411 429Q2411 302 2378.0 204.0Q2345 106 2287.0 32.0Q2229 -42 2149.0 -94.5Q2069 -147 1975.5 -182.5Q1882 -218 1779.0 -238.5Q1676 -259 1570.5 -269.5Q1465 -280 1361.0 -283.0Q1257 -286 1162 -286Q1128 -286 1089.5 -271.0Q1051 -256 1018.5 -230.5Q986 -205 964.5 -171.0Q943 -137 943 -100Q943 -84 945.0 -64.0Q947 -44 951.5 -23.5Q956 -3 964.0 15.5Q972 34 983 47Q959 57 938.5 74.5Q918 92 902.0 113.5Q886 135 877.0 160.0Q868 185 868 211Q868 228 871.0 251.0Q874 274 880.5 296.5Q887 319 898.0 338.5Q909 358 925 369Q898 377 876.5 393.5Q855 410 840.0 432.5Q825 455 816.5 481.5Q808 508 808 535Q808 558 813.5 583.5Q819 609 830.5 632.0Q842 655 859.5 673.0Q877 691 901 700H618Q580 700 541.0 713.0Q502 726 470.5 749.5Q439 773 419.0 807.0Q399 841 399 883Q399 928 417.5 964.0Q436 1000 466.5 1024.5Q497 1049 536.5 1062.5Q576 1076 618 1076H1353Q1335 1104 1308.0 1144.5Q1281 1185 1256.0 1228.5Q1231 1272 1213.0 1314.5Q1195 1357 1195 1390Q1195 1426 1212.0 1457.5Q1229 1489 1256.0 1511.5Q1283 1534 1317.0 1547.0Q1351 1560 1385 1560Z" style="fill:#ffc83d;stroke:none" transform="scale(1,-1) translate(0,-256)" /></svg>