<?xml version="1.0" encoding="utf-8" ?>
<svg baseProfile="full" height="256" version="1.1" width="256" xmlns="http://www.w3.org/2000/svg" xmlns:ev="http://www.w3.org/2001/xml-events" xmlns:xlink="http://www.w3.org/1999/xlink"><defs /><path d="M1298 948Q1298 925 1282.5 909.5Q1267 894 1244 894Q1221 894 1205.5 909.5Q1190 925 1190 948Q1190 971 1206.0 986.0Q1222 1001 1244 1001Q1266 1001 1282.0 986.0Q1298 971 1298 948ZM1622 948Q1622 926 1606.0 910.0Q1590 894 1568 894Q1545 894 1529.5 909.5Q1514 925 1514 948Q1514 971 1530.0 986.0Q1546 1001 1568 1001Q1590 1001 1606.0 985.5Q1622 970 1622 948Z" style="fill:#fdbb11;stroke:none" transform="scale(1,-1) translate(0,-256)" /></svg>