<?xml version="1.0" encoding="utf-8" ?>
<svg baseProfile="full" height="256" version="1.1" width="256" xmlns="http://www.w3.org/2000/svg" xmlns:ev="http://www.w3.org/2001/xml-events" xmlns:xlink="http://www.w3.org/1999/xlink"><defs /><path d="M1913 431Q1909 408 1904.5 379.5Q1900 351 1894.5 321.0Q1889 291 1884.0 263.5Q1879 236 1873 215Q1873 215 1868.0 205.0Q1863 195 1856.5 183.0Q1850 171 1844.0 160.5Q1838 150 1837 148Q1778 113 1730.0 85.5Q1682 58 1634.0 39.0Q1586 20 1532.0 10.0Q1478 0 1407 0Q1336 0 1282.0 8.0Q1228 16 1179.5 33.0Q1131 50 1083.0 75.5Q1035 101 975 137L935 204L903 431L1127 288H1688L1913 431Z" style="fill:#9b9b9b;stroke:none" transform="scale(1,-1) translate(0,-256)" /></svg>