<?xml version="1.0" encoding="utf-8" ?>
<svg baseProfile="full" height="256" version="1.1" width="256" xmlns="http://www.w3.org/2000/svg" xmlns:ev="http://www.w3.org/2001/xml-events" xmlns:xlink="http://www.w3.org/1999/xlink"><defs /><path d="M1444 1202Q1474 1202 1499.5 1190.5Q1525 1179 1544.0 1159.5Q1563 1140 1574.0 1114.0Q1585 1088 1585 1058Q1585 1005 1580.5 947.5Q1576 890 1572 836Q1570 811 1558.0 789.0Q1546 767 1527.5 751.0Q1509 735 1485.5 726.0Q1462 717 1438 717H1373Q1349 717 1326.0 726.5Q1303 736 1284.5 752.0Q1266 768 1254.0 789.5Q1242 811 1240 836Q1236 890 1231.0 945.5Q1226 1001 1226 1055Q1226 1085 1236.5 1112.0Q1247 1139 1266.0 1159.0Q1285 1179 1311.0 1190.5Q1337 1202 1368 1202H1444Z" style="fill:#ffc83d;stroke:none" transform="scale(1,-1) translate(0,-256)" /></svg>