<?xml version="1.0" encoding="utf-8" ?>
<svg baseProfile="full" height="256" version="1.1" width="256" xmlns="http://www.w3.org/2000/svg" xmlns:ev="http://www.w3.org/2001/xml-events" xmlns:xlink="http://www.w3.org/1999/xlink"><defs /><path d="M1783 915Q1770 888 1754.5 849.5Q1739 811 1725.5 770.0Q1712 729 1702.5 689.5Q1693 650 1693 622V288H1118V622Q1118 650 1109.0 689.5Q1100 729 1086.5 770.0Q1073 811 1057.5 849.5Q1042 888 1029 915L1230 1021L1263 863L1261 858Q1327 901 1406 901Q1445 901 1482.5 889.5Q1520 878 1553 858L1550 863L1586 1021L1783 915Z" style="fill:#ff6723;stroke:none" transform="scale(1,-1) translate(0,-256)" /></svg>