<?xml version="1.0" encoding="utf-8" ?>
<svg baseProfile="full" height="256" version="1.1" width="256" xmlns="http://www.w3.org/2000/svg" xmlns:ev="http://www.w3.org/2001/xml-events" xmlns:xlink="http://www.w3.org/1999/xlink"><defs /><path d="M1405 814Q1419 814 1435.0 820.5Q1451 827 1455 827Q1457 827 1458.5 825.0Q1460 823 1460 821Q1460 814 1453.5 808.0Q1447 802 1438.5 797.0Q1430 792 1421.0 789.0Q1412 786 1406 786Q1400 786 1391.0 789.0Q1382 792 1373.5 797.0Q1365 802 1358.5 808.5Q1352 815 1352 821Q1352 823 1353.5 825.0Q1355 827 1357 827Q1360 827 1375.5 820.5Q1391 814 1405 814Z" style="fill:#990839;stroke:none" transform="scale(1,-1) translate(0,-256)" /></svg>