<?xml version="1.0" encoding="utf-8" ?>
<svg baseProfile="full" height="256" version="1.1" width="256" xmlns="http://www.w3.org/2000/svg" xmlns:ev="http://www.w3.org/2001/xml-events" xmlns:xlink="http://www.w3.org/1999/xlink"><defs /><path d="M1332 935Q1339 935 1344.0 930.0Q1349 925 1349 918Q1349 912 1347 910H1317Q1315 914 1315 918Q1315 925 1320.0 930.0Q1325 935 1332 935ZM1481 935Q1474 935 1468.5 930.5Q1463 926 1463 918Q1463 913 1466 910H1496Q1498 914 1498 918Q1498 925 1493.0 930.0Q1488 935 1481 935Z" style="fill:#000000;stroke:none" transform="scale(1,-1) translate(0,-256)" /></svg>