<?xml version="1.0" encoding="utf-8" ?>
<svg baseProfile="full" height="256" version="1.1" width="256" xmlns="http://www.w3.org/2000/svg" xmlns:ev="http://www.w3.org/2001/xml-events" xmlns:xlink="http://www.w3.org/1999/xlink"><defs /><path d="M1020 1330Q1009 1330 1001.0 1338.0Q993 1346 993 1357Q993 1368 1001.0 1376.0Q1009 1384 1020 1384Q1031 1384 1039.0 1376.0Q1047 1368 1047 1357Q1047 1346 1039.0 1338.0Q1031 1330 1020 1330ZM1792 1330Q1803 1330 1811.0 1338.0Q1819 1346 1819 1357Q1819 1368 1811.0 1376.0Q1803 1384 1792 1384Q1781 1384 1773.0 1376.0Q1765 1368 1765 1357Q1765 1346 1773.0 1338.0Q1781 1330 1792 1330Z" style="fill:#fdbb11;stroke:none" transform="scale(1,-1) translate(0,-256)" /></svg>