<?xml version="1.0" encoding="utf-8" ?>
<svg baseProfile="full" height="256" version="1.1" width="256" xmlns="http://www.w3.org/2000/svg" xmlns:ev="http://www.w3.org/2001/xml-events" xmlns:xlink="http://www.w3.org/1999/xlink"><defs /><path d="M1373 859Q1373 862 1375.5 871.0Q1378 880 1381.5 890.5Q1385 901 1388.5 911.0Q1392 921 1393 925Q1396 935 1406 935Q1416 935 1419 925Q1420 921 1423.5 911.0Q1427 901 1430.5 890.0Q1434 879 1436.5 870.0Q1439 861 1439 858Q1439 850 1433.5 844.5Q1428 839 1420 839H1392Q1384 839 1378.5 845.0Q1373 851 1373 859Z" style="fill:#ed9200;stroke:none" transform="scale(1,-1) translate(0,-256)" /></svg>