<?xml version="1.0" encoding="utf-8" ?>
<svg baseProfile="full" height="256" version="1.1" width="256" xmlns="http://www.w3.org/2000/svg" xmlns:ev="http://www.w3.org/2001/xml-events" xmlns:xlink="http://www.w3.org/1999/xlink"><defs /><path d="M1289 1005Q1284 1005 1279.0 1005.0Q1274 1005 1274 1013Q1274 1022 1280.0 1023.0Q1286 1024 1292 1024Q1297 1024 1307.5 1022.0Q1318 1020 1328.0 1017.0Q1338 1014 1345.5 1009.5Q1353 1005 1353 999Q1353 995 1350.0 991.5Q1347 988 1343 988Q1342 988 1336.5 990.5Q1331 993 1323.5 996.5Q1316 1000 1307.0 1002.5Q1298 1005 1289 1005ZM1540 1013Q1540 1003 1531 1003Q1526 1003 1521.5 1003.5Q1517 1004 1512 1004Q1501 1003 1486.5 996.5Q1472 990 1470 990Q1460 990 1460 1000Q1460 1006 1467.0 1010.0Q1474 1014 1483.5 1017.0Q1493 1020 1502.5 1021.5Q1512 1023 1517 1023H1531L1532 1022Q1540 1020 1540 1013Z" style="fill:#d37034;stroke:none" transform="scale(1,-1) translate(0,-256)" /></svg>