<?xml version="1.0" encoding="utf-8" ?>
<svg baseProfile="full" height="256" version="1.1" width="256" xmlns="http://www.w3.org/2000/svg" xmlns:ev="http://www.w3.org/2001/xml-events" xmlns:xlink="http://www.w3.org/1999/xlink"><defs /><path d="M680 1725Q711 1725 735.0 1710.5Q759 1696 759 1661V1143Q759 1116 740.0 1097.0Q721 1078 694 1078Q662 1078 638.5 1092.5Q615 1107 615 1143V1251Q615 1225 596.5 1205.5Q578 1186 551 1186Q519 1186 495.5 1200.5Q472 1215 472 1251V1553Q472 1579 491.0 1598.0Q510 1617 536 1617Q567 1617 591.0 1603.0Q615 1589 615 1553V1661Q615 1688 634.5 1706.5Q654 1725 680 1725ZM2118 1725Q2149 1725 2173.0 1710.5Q2197 1696 2197 1661V1553Q2197 1579 2216.0 1598.0Q2235 1617 2261 1617Q2292 1617 2316.0 1603.0Q2340 1589 2340 1553V1251Q2340 1225 2321.5 1205.5Q2303 1186 2276 1186Q2244 1186 2220.5 1200.5Q2197 1215 2197 1251V1143Q2197 1116 2178.0 1097.0Q2159 1078 2132 1078Q2100 1078 2076.5 1092.5Q2053 1107 2053 1143V1661Q2053 1688 2072.5 1706.5Q2092 1725 2118 1725Z" style="fill:#533566;stroke:none" transform="scale(1,-1) translate(0,-256)" /></svg>