<?xml version="1.0" encoding="utf-8" ?>
<svg baseProfile="full" height="256" version="1.1" width="256" xmlns="http://www.w3.org/2000/svg" xmlns:ev="http://www.w3.org/2001/xml-events" xmlns:xlink="http://www.w3.org/1999/xlink"><defs /><path d="M868 216Q853 216 842.0 227.0Q831 238 831 253V360Q831 390 842.5 416.0Q854 442 873.5 461.5Q893 481 919.0 492.0Q945 503 975 503Q1005 503 1031.0 492.0Q1057 481 1076.5 461.5Q1096 442 1107.0 416.0Q1118 390 1118 360V253Q1118 238 1107.0 227.0Q1096 216 1081 216ZM1701 216Q1683 216 1670.5 228.5Q1658 241 1658 259V360Q1658 390 1669.0 416.0Q1680 442 1699.5 461.5Q1719 481 1745.0 492.0Q1771 503 1801 503Q1831 503 1857.0 492.0Q1883 481 1902.5 461.5Q1922 442 1933.5 416.0Q1945 390 1945 360V259Q1945 240 1933.0 228.0Q1921 216 1902 216Z" style="fill:#533566;stroke:none" transform="scale(1,-1) translate(0,-256)" /></svg>