<?xml version="1.0" encoding="utf-8" ?>
<svg baseProfile="full" height="256" version="1.1" width="256" xmlns="http://www.w3.org/2000/svg" xmlns:ev="http://www.w3.org/2001/xml-events" xmlns:xlink="http://www.w3.org/1999/xlink"><defs /><path d="M762 -287Q759 -275 759 -262Q759 -253 761.5 -244.0Q764 -235 772 -230Q807 -208 842.0 -187.5Q877 -167 910 -144L1047 -108V-287ZM1766 -287 1765 -108 1901 -144Q1912 -156 1930.0 -168.0Q1948 -180 1967.5 -191.0Q1987 -202 2006.0 -212.0Q2025 -222 2039 -230Q2047 -235 2050.0 -243.0Q2053 -251 2053 -260Q2053 -267 2052.0 -273.5Q2051 -280 2049 -287Z" style="fill:#533566;stroke:none" transform="scale(1,-1) translate(0,-256)" /></svg>