<?xml version="1.0" encoding="utf-8" ?>
<svg baseProfile="full" height="256" version="1.1" width="256" xmlns="http://www.w3.org/2000/svg" xmlns:ev="http://www.w3.org/2001/xml-events" xmlns:xlink="http://www.w3.org/1999/xlink"><defs /><path d="M1298 800 1142 719 821 1365Q818 1371 815.5 1377.5Q813 1384 813 1392Q813 1401 819.0 1408.5Q825 1416 834.0 1421.5Q843 1427 853.0 1430.5Q863 1434 870 1436Q866 1434 866 1430Q866 1421 878.5 1413.0Q891 1405 907.5 1398.5Q924 1392 940.0 1388.0Q956 1384 963 1384Q974 1384 982.5 1388.5Q991 1393 991 1406Q991 1414 988.5 1422.0Q986 1430 982 1438ZM1514 800 1670 719 1991 1365Q1994 1371 1996.5 1377.5Q1999 1384 1999 1392Q1999 1401 1993.0 1408.5Q1987 1416 1978.0 1421.5Q1969 1427 1959.0 1430.5Q1949 1434 1942 1436Q1946 1434 1946 1430Q1946 1422 1933.5 1413.5Q1921 1405 1904.5 1398.5Q1888 1392 1872.0 1388.0Q1856 1384 1849 1384Q1838 1384 1829.0 1388.5Q1820 1393 1820 1406Q1820 1414 1823.0 1422.0Q1826 1430 1830 1438Z" style="fill:#ffc83d;stroke:none" transform="scale(1,-1) translate(0,-256)" /></svg>