<?xml version="1.0" encoding="utf-8" ?>
<svg baseProfile="full" height="256" version="1.1" width="256" xmlns="http://www.w3.org/2000/svg" xmlns:ev="http://www.w3.org/2001/xml-events" xmlns:xlink="http://www.w3.org/1999/xlink"><defs /><path d="M1326 956Q1342 956 1356.5 944.5Q1371 933 1371 916Q1371 913 1368.0 911.5Q1365 910 1363 910H1289Q1286 910 1283.0 912.5Q1280 915 1280 918Q1280 935 1296.0 945.5Q1312 956 1326 956ZM1487 956Q1471 956 1456.5 944.5Q1442 933 1442 916Q1442 910 1449 910H1524Q1532 910 1532 918Q1532 935 1516.5 945.5Q1501 956 1487 956Z" style="fill:#ffffff;stroke:none" transform="scale(1,-1) translate(0,-256)" /></svg>