<?xml version="1.0" encoding="utf-8" ?>
<svg baseProfile="full" height="256" version="1.1" width="256" xmlns="http://www.w3.org/2000/svg" xmlns:ev="http://www.w3.org/2001/xml-events" xmlns:xlink="http://www.w3.org/1999/xlink"><defs /><path d="M1456 1222Q1479 1222 1495.5 1211.5Q1512 1201 1523 1182Q1535 1163 1551.5 1153.5Q1568 1144 1583.5 1134.5Q1599 1125 1610.0 1109.5Q1621 1094 1621 1063Q1621 1041 1611.5 1025.5Q1602 1010 1600 991Q1595 994 1590.0 996.5Q1585 999 1579 1000Q1579 1025 1572.0 1037.5Q1565 1050 1552.5 1055.0Q1540 1060 1523.0 1060.5Q1506 1061 1486 1061Q1462 1061 1447.5 1071.5Q1433 1082 1423.5 1094.0Q1414 1106 1407.0 1116.5Q1400 1127 1391 1127H1348Q1322 1127 1301.0 1116.5Q1280 1106 1266.0 1088.5Q1252 1071 1244.5 1048.0Q1237 1025 1237 1001Q1230 1000 1224.0 997.5Q1218 995 1213 992Q1212 1002 1208.0 1009.5Q1204 1017 1200.0 1025.0Q1196 1033 1193.0 1042.0Q1190 1051 1190 1065Q1190 1095 1200.5 1110.0Q1211 1125 1226.5 1135.0Q1242 1145 1259.0 1154.0Q1276 1163 1288 1183Q1299 1200 1316.0 1211.0Q1333 1222 1354 1222Q1368 1222 1380.0 1216.5Q1392 1211 1405 1211Q1419 1211 1430.5 1216.5Q1442 1222 1456 1222Z" style="fill:#f1a11e;stroke:none" transform="scale(1,-1) translate(0,-256)" /></svg>