<?xml version="1.0" encoding="utf-8" ?>
<svg baseProfile="full" height="256" version="1.1" width="256" xmlns="http://www.w3.org/2000/svg" xmlns:ev="http://www.w3.org/2001/xml-events" xmlns:xlink="http://www.w3.org/1999/xlink"><defs /><path d="M1303 918Q1303 930 1312.0 938.5Q1321 947 1333 947Q1344 947 1353.5 938.5Q1363 930 1363 918Q1363 914 1361 910H1304Q1303 913 1303 918ZM1510 918Q1510 930 1501.0 938.5Q1492 947 1480 947Q1469 947 1459.5 938.5Q1450 930 1450 918Q1450 913 1451 910H1509Q1510 913 1510 918Z" style="fill:#7d4533;stroke:none" transform="scale(1,-1) translate(0,-256)" /></svg>