<?xml version="1.0" encoding="utf-8" ?>
<svg baseProfile="full" height="256" version="1.1" width="256" xmlns="http://www.w3.org/2000/svg" xmlns:ev="http://www.w3.org/2001/xml-events" xmlns:xlink="http://www.w3.org/1999/xlink"><defs /><path d="M1047 575Q1047 604 1068.0 625.5Q1089 647 1118 647Q1148 647 1169.0 626.0Q1190 605 1190 575V503Q1190 474 1168.5 452.5Q1147 431 1118 431Q1089 431 1068.0 452.5Q1047 474 1047 503ZM1550 575Q1550 605 1571.0 626.0Q1592 647 1622 647Q1651 647 1672.0 625.5Q1693 604 1693 575V503Q1693 474 1672.0 452.5Q1651 431 1622 431Q1593 431 1571.5 452.5Q1550 474 1550 503ZM1376 27Q1406 -19 1454.5 -45.5Q1503 -72 1558 -72Q1573 -72 1583.5 -61.5Q1594 -51 1594 -36Q1594 -21 1583.5 -10.5Q1573 0 1558 0Q1528 0 1501.0 11.5Q1474 23 1454.0 43.0Q1434 63 1422.5 90.0Q1411 117 1411 147Q1411 156 1407 163Q1414 167 1420 173L1501 254Q1519 272 1519 297Q1519 323 1501.0 341.5Q1483 360 1457 360H1295Q1269 360 1250.0 342.0Q1231 324 1231 298Q1231 273 1250 254Q1273 231 1295.0 206.5Q1317 182 1343 163Q1341 159 1340.0 155.5Q1339 152 1339 147Q1339 117 1327.5 90.0Q1316 63 1296.0 43.0Q1276 23 1249.0 11.5Q1222 0 1192 0Q1177 0 1167.0 -10.5Q1157 -21 1157 -36Q1157 -51 1167.0 -61.5Q1177 -72 1192 -72Q1248 -72 1296.5 -45.5Q1345 -19 1376 27Z" style="fill:#212121;stroke:none" transform="scale(1,-1) translate(0,-256)" /></svg>