<?xml version="1.0" encoding="utf-8" ?>
<svg baseProfile="full" height="256" version="1.1" width="256" xmlns="http://www.w3.org/2000/svg" xmlns:ev="http://www.w3.org/2001/xml-events" xmlns:xlink="http://www.w3.org/1999/xlink"><defs /><path d="M1178 1267Q1048 1230 942.0 1149.0Q836 1068 764 953V1121Q764 1186 778.0 1250.0Q792 1314 818.0 1373.5Q844 1433 882.5 1486.5Q921 1540 970 1583Q973 1586 979 1586Q985 1586 988 1583Q1059 1522 1107.5 1440.0Q1156 1358 1178 1267ZM1986 1120V954Q1915 1069 1808.0 1149.5Q1701 1230 1571 1267Q1594 1357 1642.0 1439.0Q1690 1521 1760 1582Q1763 1585 1769 1585Q1775 1585 1778 1582Q1828 1539 1866.5 1486.0Q1905 1433 1931.5 1373.5Q1958 1314 1972.0 1249.5Q1986 1185 1986 1120Z" style="fill:#ff6723;stroke:none" transform="scale(1,-1) translate(0,-256)" /></svg>