<?xml version="1.0" encoding="utf-8" ?>
<svg baseProfile="full" height="256" version="1.1" width="256" xmlns="http://www.w3.org/2000/svg" xmlns:ev="http://www.w3.org/2001/xml-events" xmlns:xlink="http://www.w3.org/1999/xlink"><defs /><path d="M2321 360Q2264 213 2168.5 93.5Q2073 -26 1949.0 -110.5Q1825 -195 1678.5 -241.0Q1532 -287 1375 -287Q1217 -287 1071.0 -241.0Q925 -195 801.0 -110.5Q677 -26 581.5 93.5Q486 213 430 360H895Q973 360 1035.5 344.0Q1098 328 1153.5 300.5Q1209 273 1262.5 235.5Q1316 198 1376 155Q1436 198 1489.5 235.5Q1543 273 1598.5 300.5Q1654 328 1716.5 344.0Q1779 360 1857 360H2321Z" style="fill:#ffdea7;stroke:none" transform="scale(1,-1) translate(0,-256)" /></svg>