<?xml version="1.0" encoding="utf-8" ?>
<svg baseProfile="full" height="256" version="1.1" width="256" xmlns="http://www.w3.org/2000/svg" xmlns:ev="http://www.w3.org/2001/xml-events" xmlns:xlink="http://www.w3.org/1999/xlink"><defs /><path d="M2197 691 2196 692Q2228 638 2248 575H2181Q2152 575 2131.0 588.0Q2110 601 2093 623Q2034 702 1956.5 746.5Q1879 791 1778 791Q1701 791 1633.5 762.5Q1566 734 1511 680Q1460 630 1401.0 602.5Q1342 575 1269 575Q1221 575 1181.0 587.0Q1141 599 1099 621Q1110 636 1114.0 652.5Q1118 669 1118 687Q1138 678 1159.0 673.0Q1180 668 1203 668Q1236 668 1263.5 678.0Q1291 688 1316.0 704.0Q1341 720 1363.0 741.0Q1385 762 1406 784Q1440 820 1482.0 848.0Q1524 876 1570.0 895.5Q1616 915 1665.5 925.0Q1715 935 1765 935Q1821 935 1874.5 923.0Q1928 911 1978 887V888H1976Q1968 930 1946.5 964.5Q1925 999 1894.5 1024.5Q1864 1050 1825.0 1064.0Q1786 1078 1744 1078H1190Q1133 1078 1082.0 1102.5Q1031 1127 992.0 1167.0Q953 1207 929.5 1259.0Q906 1311 903 1366Q972 1297 1062.0 1260.0Q1152 1223 1249 1223H1806Q1887 1223 1958.0 1192.5Q2029 1162 2082.5 1108.5Q2136 1055 2166.5 984.0Q2197 913 2197 832ZM908 716Q915 736 928.5 752.0Q942 768 960 778Q922 791 879 791Q814 791 769.0 769.0Q724 747 689.5 711.5Q655 676 626.0 630.0Q597 584 566 536Q554 518 540.0 507.0Q526 496 510.5 491.0Q495 486 477.0 484.5Q459 483 439 483Q414 483 407.0 467.0Q400 451 400 431H505Q559 431 596.5 450.0Q634 469 662.0 498.5Q690 528 713.5 563.0Q737 598 763.5 629.5Q790 661 824.0 685.0Q858 709 908 716Z" style="fill:#d3d3d3;stroke:none" transform="scale(1,-1) translate(0,-256)" /></svg>