<?xml version="1.0" encoding="utf-8" ?>
<svg baseProfile="full" height="256" version="1.1" width="256" xmlns="http://www.w3.org/2000/svg" xmlns:ev="http://www.w3.org/2001/xml-events" xmlns:xlink="http://www.w3.org/1999/xlink"><defs /><path d="M1011 625Q987 625 969.5 642.0Q952 659 952 683Q952 707 969.5 724.0Q987 741 1011 741Q1035 741 1052.0 724.0Q1069 707 1069 683Q1069 659 1052.0 642.0Q1035 625 1011 625ZM443 399Q425 399 412.5 411.5Q400 424 400 442Q400 460 412.5 472.5Q425 485 443 485Q461 485 473.5 472.5Q486 460 486 442Q486 424 473.5 411.5Q461 399 443 399ZM759 521Q759 536 769.5 546.5Q780 557 795 557Q810 557 820.5 546.5Q831 536 831 521V478Q831 464 820.0 453.0Q809 442 795 442Q780 442 769.5 452.5Q759 463 759 478Z" style="fill:#1c1c1c;stroke:none" transform="scale(1,-1) translate(0,-256)" /></svg>