<?xml version="1.0" encoding="utf-8" ?>
<svg baseProfile="full" height="256" version="1.1" width="256" xmlns="http://www.w3.org/2000/svg" xmlns:ev="http://www.w3.org/2001/xml-events" xmlns:xlink="http://www.w3.org/1999/xlink"><defs /><path d="M1802 1725Q1926 1725 2037.0 1677.0Q2148 1629 2231.5 1546.5Q2315 1464 2364.0 1354.0Q2413 1244 2413 1119Q2413 984 2359.5 864.5Q2306 745 2205 655Q2223 627 2235.0 601.0Q2247 575 2254.5 548.5Q2262 522 2265.0 493.0Q2268 464 2268 431V-243Q2268 -261 2255.0 -274.0Q2242 -287 2224 -287H2051Q2040 -287 2029.5 -282.0Q2019 -277 2013 -267L1870 -42Q1857 -22 1837.0 -11.0Q1817 0 1794 0H1208Q1189 0 1170.5 -8.0Q1152 -16 1139 -31L943 -264Q933 -275 919.0 -281.0Q905 -287 891 -287H732Q723 -287 716.0 -281.0Q709 -275 709 -265Q709 -250 728.0 -215.5Q747 -181 770.0 -140.0Q793 -99 812.0 -59.5Q831 -20 831 6Q831 33 817 55L704 232Q688 257 670.0 269.0Q652 281 631.0 285.5Q610 290 586.5 289.0Q563 288 536 288Q499 288 473.0 299.5Q447 311 431.0 332.0Q415 353 407.5 381.5Q400 410 400 444Q400 458 408.0 463.5Q416 469 429.5 470.0Q443 471 460.0 471.0Q477 471 495.5 475.5Q514 480 532.5 491.0Q551 502 566 525Q597 573 626.0 618.5Q655 664 689.5 699.5Q724 735 769.0 757.0Q814 779 879 779Q911 779 948 771Q977 791 1011 791Q1034 791 1053.5 782.0Q1073 773 1087.5 758.0Q1102 743 1110.0 722.5Q1118 702 1118 680Q1138 671 1159.5 665.5Q1181 660 1203 660Q1234 660 1262.0 670.0Q1290 680 1315.5 696.0Q1341 712 1363.5 733.0Q1386 754 1406 776L1349 697L1350 692Q1387 740 1434.0 776.0Q1481 812 1534.5 836.5Q1588 861 1646.5 873.0Q1705 885 1765 885Q1820 885 1874.5 876.0Q1929 867 1981 847Q1980 895 1961.5 939.5Q1943 984 1911.0 1019.0Q1879 1054 1836.0 1075.0Q1793 1096 1744 1096Q1715 1096 1683.0 1094.5Q1651 1093 1622 1096L1048 1152L903 1364Q903 1378 905.0 1391.0Q907 1404 913.0 1414.5Q919 1425 930.0 1431.5Q941 1438 958 1438Q1089 1438 1207.5 1479.5Q1326 1521 1430 1599Q1512 1661 1605.5 1693.0Q1699 1725 1802 1725Z" style="fill:#636363;stroke:none" transform="scale(1,-1) translate(0,-256)" /></svg>