<?xml version="1.0" encoding="utf-8" ?>
<svg baseProfile="full" height="256" version="1.1" width="256" xmlns="http://www.w3.org/2000/svg" xmlns:ev="http://www.w3.org/2001/xml-events" xmlns:xlink="http://www.w3.org/1999/xlink"><defs /><path d="M1406 1406Q1420 1406 1434.0 1400.5Q1448 1395 1458 1384L1911 913Q1931 891 1931 863Q1931 833 1910.0 812.0Q1889 791 1859 791H1475L1911 338Q1931 318 1931 288Q1931 258 1910.0 237.0Q1889 216 1859 216H952Q922 216 901.5 237.0Q881 258 881 288Q881 318 901 338L1337 791H952Q922 791 901.5 812.0Q881 833 881 863Q881 891 901 913L1354 1384Q1376 1406 1406 1406Z" style="fill:#ffffff;stroke:none" transform="scale(1,-1) translate(0,-256)" /></svg>