<?xml version="1.0" encoding="utf-8" ?>
<svg baseProfile="full" height="256" version="1.1" width="256" xmlns="http://www.w3.org/2000/svg" xmlns:ev="http://www.w3.org/2001/xml-events" xmlns:xlink="http://www.w3.org/1999/xlink"><defs /><path d="M1435 1294Q1550 1294 1659.5 1258.0Q1769 1222 1862.5 1157.5Q1956 1093 2029.0 1003.5Q2102 914 2144 807Q2165 754 2176.5 701.5Q2188 649 2194 592V584Q2194 550 2170.0 526.5Q2146 503 2113 503H1026Q941 503 866.0 535.5Q791 568 735.5 623.5Q680 679 647.5 754.0Q615 829 615 914Q615 995 644.5 1067.0Q674 1139 730 1197L1029 1510H975L939 1617L975 1725H1067Q1107 1725 1143.0 1709.5Q1179 1694 1205.0 1668.0Q1231 1642 1246.5 1606.0Q1262 1570 1262 1530Q1262 1492 1247.0 1455.0Q1232 1418 1205 1391L847 1033Q831 1017 831 995Q831 972 846.5 956.5Q862 941 885 941Q907 941 923 957L1138 1171Q1198 1231 1273.5 1262.5Q1349 1294 1435 1294Z" style="fill:#ff6dc6;stroke:none" transform="scale(1,-1) translate(0,-256)" /></svg>