<?xml version="1.0" encoding="utf-8" ?>
<svg baseProfile="full" height="256" version="1.1" width="256" xmlns="http://www.w3.org/2000/svg" xmlns:ev="http://www.w3.org/2001/xml-events" xmlns:xlink="http://www.w3.org/1999/xlink"><defs /><path d="M2036 668Q2036 647 2023.5 632.5Q2011 618 1989 618H1489Q1430 618 1379.0 640.0Q1328 662 1290.0 700.0Q1252 738 1230.0 789.0Q1208 840 1208 899Q1208 957 1230.0 1008.0Q1252 1059 1290.5 1097.5Q1329 1136 1380.0 1158.0Q1431 1180 1489 1180Q1577 1180 1658.0 1153.5Q1739 1127 1806.5 1078.5Q1874 1030 1925.5 961.5Q1977 893 2006 810Q2017 778 2026.5 740.0Q2036 702 2036 668Z" style="fill:#ffb2ff;stroke:none" transform="scale(1,-1) translate(0,-256)" /></svg>