<?xml version="1.0" encoding="utf-8" ?>
<svg baseProfile="full" height="256" version="1.1" width="256" xmlns="http://www.w3.org/2000/svg" xmlns:ev="http://www.w3.org/2001/xml-events" xmlns:xlink="http://www.w3.org/1999/xlink"><defs /><path d="M903 1725 939 1617 903 1510Q886 1510 869.0 1511.0Q852 1512 835.0 1511.0Q818 1510 801.5 1506.0Q785 1502 770 1492Q765 1489 757.5 1483.5Q750 1478 742.0 1473.0Q734 1468 726.0 1464.0Q718 1460 713 1460Q702 1460 694.5 1467.0Q687 1474 687 1485V1568Q687 1601 699.5 1629.5Q712 1658 733.5 1679.0Q755 1700 783.5 1712.5Q812 1725 845 1725Z" style="fill:#636363;stroke:none" transform="scale(1,-1) translate(0,-256)" /></svg>