<?xml version="1.0" encoding="utf-8" ?>
<svg baseProfile="full" height="256" version="1.1" width="256" xmlns="http://www.w3.org/2000/svg" xmlns:ev="http://www.w3.org/2001/xml-events" xmlns:xlink="http://www.w3.org/1999/xlink"><defs /><path d="M1746 1707Q1851 1707 1943.0 1667.0Q2035 1627 2103.0 1558.5Q2171 1490 2210.5 1398.0Q2250 1306 2250 1202Q2250 1136 2233.0 1071.5Q2216 1007 2183 950Q2160 910 2137.5 871.0Q2115 832 2092 792Q2058 733 2010.5 686.5Q1963 640 1906.0 607.5Q1849 575 1785.0 557.5Q1721 540 1653 540Q1549 540 1457.0 580.0Q1365 620 1297.0 688.5Q1229 757 1189.5 849.0Q1150 941 1150 1045Q1150 1179 1217 1296Q1240 1336 1262.5 1375.5Q1285 1415 1308 1455Q1342 1513 1389.0 1560.0Q1436 1607 1493.0 1639.5Q1550 1672 1614.0 1689.5Q1678 1707 1746 1707ZM1257 1045Q1257 963 1288.0 890.5Q1319 818 1373.0 764.0Q1427 710 1499.0 678.5Q1571 647 1653 647Q1707 647 1757.5 661.0Q1808 675 1852.5 700.5Q1897 726 1934.0 763.0Q1971 800 1998 846L2089 1004Q2115 1049 2128.5 1099.5Q2142 1150 2142 1203Q2142 1285 2111.0 1357.5Q2080 1430 2026.0 1484.0Q1972 1538 1900.0 1569.0Q1828 1600 1746 1600Q1692 1600 1642.0 1586.0Q1592 1572 1547.5 1546.5Q1503 1521 1466.0 1484.0Q1429 1447 1402 1401Q1379 1361 1356.0 1322.0Q1333 1283 1310 1243Q1284 1198 1270.5 1147.5Q1257 1097 1257 1045Z" style="fill:#f8312f;stroke:none" transform="scale(1,-1) translate(0,-256)" /></svg>