<?xml version="1.0" encoding="utf-8" ?>
<svg baseProfile="full" height="256" version="1.1" width="256" xmlns="http://www.w3.org/2000/svg" xmlns:ev="http://www.w3.org/2001/xml-events" xmlns:xlink="http://www.w3.org/1999/xlink"><defs /><path d="M1551 605Q1603 593 1658 593L1681 564L1461 396Q1403 351 1355.0 296.0Q1307 241 1270 178L1209 73L1034 174L1095 280Q1133 346 1155.0 412.5Q1177 479 1187 554L1223 828L1262 823Q1287 777 1324 737L1292 492V487Q1292 471 1303.0 459.0Q1314 447 1331 447Q1345 447 1356 455Z" style="fill:#ca0b4a;stroke:none" transform="scale(1,-1) translate(0,-256)" /></svg>