<?xml version="1.0" encoding="utf-8" ?>
<svg baseProfile="full" height="256" version="1.1" width="256" xmlns="http://www.w3.org/2000/svg" xmlns:ev="http://www.w3.org/2001/xml-events" xmlns:xlink="http://www.w3.org/1999/xlink"><defs /><path d="M1047 719Q1047 674 1030.0 635.0Q1013 596 983.5 566.5Q954 537 915.0 520.0Q876 503 831 503Q786 503 747.0 520.0Q708 537 678.5 566.5Q649 596 632.0 635.0Q615 674 615 719Q615 764 632.0 803.0Q649 842 678.5 871.5Q708 901 747.0 918.0Q786 935 831 935Q876 935 915.0 918.0Q954 901 983.5 871.5Q1013 842 1030.0 803.0Q1047 764 1047 719Z" style="fill:#c3ef3c;stroke:none" transform="scale(1,-1) translate(0,-256)" /></svg>