<?xml version="1.0" encoding="utf-8" ?>
<svg baseProfile="full" height="256" version="1.1" width="256" xmlns="http://www.w3.org/2000/svg" xmlns:ev="http://www.w3.org/2001/xml-events" xmlns:xlink="http://www.w3.org/1999/xlink"><defs /><path d="M1046 737Q1046 732 1046.5 728.0Q1047 724 1047 719Q1047 714 1046.5 710.0Q1046 706 1046 701H1041Q992 701 950.5 719.0Q909 737 878.5 768.0Q848 799 830.5 841.5Q813 884 813 932V934Q818 934 822.0 934.5Q826 935 831 935Q836 935 840.0 934.5Q844 934 849 934Q849 894 863.0 858.0Q877 822 902.0 795.0Q927 768 961.5 752.5Q996 737 1037 737ZM848 504Q843 504 839.5 503.5Q836 503 831 503Q826 503 822.0 503.5Q818 504 813 504Q813 546 798.5 582.0Q784 618 758.5 644.5Q733 671 698.0 686.0Q663 701 621 701H616Q616 706 615.5 710.0Q615 714 615 719Q615 724 615.5 728.0Q616 732 616 737H621Q667 737 705.0 722.5Q743 708 771.5 682.0Q800 656 819.0 620.0Q838 584 845 540Q847 532 848.0 523.0Q849 514 849 506H848Z" style="fill:#d3d3d3;stroke:none" transform="scale(1,-1) translate(0,-256)" /></svg>