<?xml version="1.0" encoding="utf-8" ?>
<svg baseProfile="full" height="256" version="1.1" width="256" xmlns="http://www.w3.org/2000/svg" xmlns:ev="http://www.w3.org/2001/xml-events" xmlns:xlink="http://www.w3.org/1999/xlink"><defs /><path d="M1913 1493 2012 1496Q2025 1485 2036.0 1473.0Q2047 1461 2057 1448L1939 1444L1999 1331L2120 1335Q2124 1323 2127.5 1311.0Q2131 1299 2133 1286L2025 1282L2084 1170L2141 1172Q2140 1160 2138.5 1147.5Q2137 1135 2134 1123L2110 1122L2127 1093Q2118 1063 2104 1031L2056 1120L1929 1116L1989 1003L2091 1006Q2090 1005 2085.5 998.0Q2081 991 2076.5 982.5Q2072 974 2067.5 966.0Q2063 958 2062 956L2015 954L2037 913L2007 862L1959 952L1832 948L1892 835L1994 839Q1986 825 1977.0 812.5Q1968 800 1957 788L1917 787L1931 760Q1913 742 1892 727L1862 784L1734 780L1792 672Q1767 663 1743 657L1679 779L1552 774L1618 649Q1602 651 1586.5 653.0Q1571 655 1556 659L1497 772L1369 768Q1358 779 1348.0 791.0Q1338 803 1329 816L1471 821L1411 934L1274 929Q1271 941 1268.0 953.5Q1265 966 1263 978L1385 982L1325 1094L1260 1092Q1263 1118 1269 1142L1300 1143L1281 1179Q1291 1207 1307 1236L1355 1145L1482 1150L1422 1262L1320 1259L1349 1309L1397 1311L1374 1354Q1382 1366 1389.0 1379.5Q1396 1393 1404 1404L1452 1313L1579 1318L1520 1430L1418 1426Q1427 1440 1437.5 1453.0Q1448 1466 1459 1477L1494 1479L1482 1499Q1501 1517 1522 1530L1548 1480L1675 1485L1625 1580Q1647 1588 1674 1593L1731 1487L1858 1492L1803 1595Q1820 1593 1835.5 1589.5Q1851 1586 1867 1581ZM1574 1431 1634 1319 1761 1323 1701 1436ZM1660 1270 1719 1158 1847 1162 1787 1275ZM1750 995 1691 1107 1563 1103 1623 991ZM1477 1264 1537 1151 1664 1155 1604 1268ZM1380 1096 1440 984 1567 989 1507 1101ZM1526 822 1653 828 1594 940 1466 935ZM1836 833 1776 945 1649 941 1709 829ZM1932 1001 1872 1114 1745 1110 1805 997ZM2029 1169 1969 1280 1842 1276 1902 1164ZM1944 1330 1884 1442 1757 1438 1816 1326Z" style="fill:#bebebe;stroke:none" transform="scale(1,-1) translate(0,-256)" /></svg>