<?xml version="1.0" encoding="utf-8" ?>
<svg baseProfile="full" height="256" version="1.1" width="256" xmlns="http://www.w3.org/2000/svg" xmlns:ev="http://www.w3.org/2001/xml-events" xmlns:xlink="http://www.w3.org/1999/xlink"><defs /><path d="M1259 431H1402L1537 -40Q1541 -53 1541 -72Q1541 -80 1540.0 -87.5Q1539 -95 1537 -103L1486 -274Q1483 -287 1469 -287H1363Q1355 -287 1350.0 -282.0Q1345 -277 1345 -269Q1345 -254 1354.0 -227.0Q1363 -200 1373.5 -170.5Q1384 -141 1393.0 -114.0Q1402 -87 1402 -72Q1402 -69 1392.5 -33.0Q1383 3 1368.0 55.0Q1353 107 1335.5 168.0Q1318 229 1302.0 284.0Q1286 339 1274.0 379.5Q1262 420 1259 431ZM1642 -287H1748Q1762 -287 1765 -274L1943 349H1799Q1796 340 1787.0 309.0Q1778 278 1765.5 233.5Q1753 189 1737.5 135.0Q1722 81 1706.0 26.0Q1690 -29 1675.0 -81.5Q1660 -134 1648.5 -175.0Q1637 -216 1630.0 -241.5Q1623 -267 1623 -269Q1623 -277 1628.5 -282.0Q1634 -287 1642 -287Z" style="fill:#6d4534;stroke:none" transform="scale(1,-1) translate(0,-256)" /></svg>