<?xml version="1.0" encoding="utf-8" ?>
<svg baseProfile="full" height="256" version="1.1" width="256" xmlns="http://www.w3.org/2000/svg" xmlns:ev="http://www.w3.org/2001/xml-events" xmlns:xlink="http://www.w3.org/1999/xlink"><defs /><path d="M759 1234Q759 1249 769.5 1259.5Q780 1270 795 1270Q810 1270 820.5 1259.5Q831 1249 831 1234V1188Q831 1173 820.5 1162.5Q810 1152 795 1152Q780 1152 769.5 1162.5Q759 1173 759 1188ZM2268 72Q2268 102 2279.5 128.0Q2291 154 2310.5 173.5Q2330 193 2356.0 204.5Q2382 216 2412 216V-72Q2382 -72 2356.0 -60.5Q2330 -49 2310.5 -29.5Q2291 -10 2279.5 16.0Q2268 42 2268 72Z" style="fill:#1c1c1c;stroke:none" transform="scale(1,-1) translate(0,-256)" /></svg>