<?xml version="1.0" encoding="utf-8" ?>
<svg baseProfile="full" height="256" version="1.1" width="256" xmlns="http://www.w3.org/2000/svg" xmlns:ev="http://www.w3.org/2001/xml-events" xmlns:xlink="http://www.w3.org/1999/xlink"><defs /><path d="M636 1630Q645 1630 651 1621Q683 1573 726.5 1541.5Q770 1510 831 1510H975Q1004 1510 1025.5 1488.5Q1047 1467 1047 1438Q1047 1409 1025.5 1387.5Q1004 1366 975 1366H835Q790 1366 750.0 1383.0Q710 1400 680.0 1429.5Q650 1459 632.5 1498.5Q615 1538 615 1583Q615 1589 615.0 1597.0Q615 1605 617.0 1612.5Q619 1620 623.5 1625.0Q628 1630 636 1630Z" style="fill:#f9c23c;stroke:none" transform="scale(1,-1) translate(0,-256)" /></svg>