<?xml version="1.0" encoding="utf-8" ?>
<svg baseProfile="full" height="256" version="1.1" width="256" xmlns="http://www.w3.org/2000/svg" xmlns:ev="http://www.w3.org/2001/xml-events" xmlns:xlink="http://www.w3.org/1999/xlink"><defs /><path d="M2053 1470Q2053 1455 2046.0 1441.5Q2039 1428 2026 1420L1880 1324Q1858 1310 1832.5 1302.0Q1807 1294 1781 1294H1032Q1006 1294 979.0 1301.5Q952 1309 930 1324L786 1420Q773 1428 766.0 1441.5Q759 1455 759 1470Q759 1496 777.0 1513.0Q795 1530 820 1530Q831 1530 844.5 1523.5Q858 1517 874.5 1509.5Q891 1502 910.5 1495.5Q930 1489 953 1489Q1001 1489 1033.0 1506.5Q1065 1524 1087.5 1550.0Q1110 1576 1125.5 1607.0Q1141 1638 1156.5 1664.0Q1172 1690 1191.5 1707.5Q1211 1725 1241 1725H1577Q1607 1725 1626.0 1707.5Q1645 1690 1659.5 1664.0Q1674 1638 1688.5 1607.0Q1703 1576 1724.5 1550.0Q1746 1524 1777.5 1506.5Q1809 1489 1859 1489Q1882 1489 1901.0 1495.5Q1920 1502 1936.5 1509.5Q1953 1517 1967.0 1523.5Q1981 1530 1993 1530Q2018 1530 2035.5 1512.5Q2053 1495 2053 1470ZM2304 894Q2304 863 2278 845L2133 749Q2111 735 2085.0 727.0Q2059 719 2033 719H779Q753 719 727.0 727.0Q701 735 679 749L534 845Q508 863 508 894Q508 920 525.0 937.5Q542 955 568 955Q580 955 593.5 948.5Q607 942 623.5 934.5Q640 927 659.5 920.5Q679 914 702 914Q745 914 771.5 928.5Q798 943 820.0 960.0Q842 977 865.5 991.5Q889 1006 926 1006H1887Q1923 1006 1946.5 991.5Q1970 977 1992.0 960.0Q2014 943 2041.0 928.5Q2068 914 2111 914Q2134 914 2153.5 920.5Q2173 927 2189.0 934.5Q2205 942 2218.5 948.5Q2232 955 2244 955Q2270 955 2287.0 937.5Q2304 920 2304 894ZM2412 319Q2412 288 2386 270L2242 174Q2220 160 2194.0 152.0Q2168 144 2142 144H670Q644 144 618.0 152.0Q592 160 570 174L426 270Q400 288 400 319Q400 345 417.0 362.5Q434 380 460 380Q472 380 485.5 373.5Q499 367 515.5 359.5Q532 352 551.0 345.5Q570 339 593 339Q636 339 662.5 353.5Q689 368 711.0 385.0Q733 402 756.0 416.5Q779 431 816 431H1997Q2033 431 2056.0 416.5Q2079 402 2101.0 385.0Q2123 368 2150.0 353.5Q2177 339 2220 339Q2243 339 2262.0 345.5Q2281 352 2297.0 359.5Q2313 367 2327.0 373.5Q2341 380 2353 380Q2378 380 2395.0 362.0Q2412 344 2412 319Z" style="fill:#f8312f;stroke:none" transform="scale(1,-1) translate(0,-256)" /></svg>