<?xml version="1.0" encoding="utf-8" ?>
<svg baseProfile="full" height="256" version="1.1" width="256" xmlns="http://www.w3.org/2000/svg" xmlns:ev="http://www.w3.org/2001/xml-events" xmlns:xlink="http://www.w3.org/1999/xlink"><defs /><path d="M1231 1078H1149Q1136 1078 1127.0 1087.0Q1118 1096 1118 1109V1191Q1118 1204 1127.0 1213.0Q1136 1222 1149 1222H1231Q1244 1222 1253.0 1213.0Q1262 1204 1262 1191V1106Q1262 1094 1252.0 1086.0Q1242 1078 1231 1078ZM1016 503H934Q921 503 912.0 512.0Q903 521 903 534V616Q903 629 912.0 638.0Q921 647 934 647H1016Q1029 647 1038.0 638.0Q1047 629 1047 616V534Q1047 521 1038.0 512.0Q1029 503 1016 503ZM814 -144H993Q1016 -144 1031.5 -128.5Q1047 -113 1047 -90V18Q1047 41 1031.5 56.5Q1016 72 993 72H814Q791 72 775.5 56.5Q760 41 760 18V-90Q760 -112 776.0 -128.0Q792 -144 814 -144ZM1190 -287H1622V-1Q1622 29 1600.5 50.5Q1579 72 1549 72H1263Q1233 72 1211.5 50.5Q1190 29 1190 -1ZM1365 503H1447Q1458 503 1468.0 511.0Q1478 519 1478 531V616Q1478 629 1469.0 638.0Q1460 647 1447 647H1365Q1352 647 1343.0 638.0Q1334 629 1334 616V534Q1334 521 1343.0 512.0Q1352 503 1365 503ZM1581 1078H1663Q1674 1078 1683.5 1086.0Q1693 1094 1693 1106V1191Q1693 1204 1684.5 1213.0Q1676 1222 1663 1222H1581Q1568 1222 1559.0 1213.0Q1550 1204 1550 1191V1109Q1550 1096 1559.0 1087.0Q1568 1078 1581 1078ZM1878 503H1796Q1783 503 1774.0 512.0Q1765 521 1765 534V616Q1765 629 1774.0 638.0Q1783 647 1796 647H1878Q1891 647 1900.0 638.0Q1909 629 1909 616V531Q1909 519 1899.0 511.0Q1889 503 1878 503ZM1820 -144H2000Q2022 -144 2038.0 -128.0Q2054 -112 2054 -90V18Q2054 40 2038.0 56.0Q2022 72 2000 72H1820Q1797 72 1781.5 56.5Q1766 41 1766 18V-90Q1766 -112 1782.0 -128.0Q1798 -144 1820 -144Z" style="fill:#321b41;stroke:none" transform="scale(1,-1) translate(0,-256)" /></svg>