<?xml version="1.0" encoding="utf-8" ?>
<svg baseProfile="full" height="256" version="1.1" width="256" xmlns="http://www.w3.org/2000/svg" xmlns:ev="http://www.w3.org/2001/xml-events" xmlns:xlink="http://www.w3.org/1999/xlink"><defs /><path d="M2115 -287H697Q681 -287 666.0 -281.0Q651 -275 640.0 -265.0Q629 -255 622.0 -241.0Q615 -227 615 -210V-5Q615 11 622.0 25.5Q629 40 640.0 50.0Q651 60 666.0 66.0Q681 72 697 72H2115Q2131 72 2146.0 66.0Q2161 60 2172.0 50.0Q2183 40 2190.0 25.5Q2197 11 2197 -5V-210Q2197 -227 2190.0 -241.0Q2183 -255 2172.0 -265.0Q2161 -275 2146.0 -281.0Q2131 -287 2115 -287Z" style="fill:#d3d3d3;stroke:none" transform="scale(1,-1) translate(0,-256)" /></svg>