<?xml version="1.0" encoding="utf-8" ?>
<svg baseProfile="full" height="256" version="1.1" width="256" xmlns="http://www.w3.org/2000/svg" xmlns:ev="http://www.w3.org/2001/xml-events" xmlns:xlink="http://www.w3.org/1999/xlink"><defs /><path d="M1739 834Q1739 811 1732.0 790.0Q1725 769 1712.0 753.5Q1699 738 1679.5 728.5Q1660 719 1636 719Q1604 719 1576.0 734.5Q1548 750 1527.0 774.5Q1506 799 1494.0 830.0Q1482 861 1482 891Q1482 914 1489.0 935.0Q1496 956 1509.0 971.5Q1522 987 1541.5 996.5Q1561 1006 1585 1006Q1618 1006 1646.0 990.5Q1674 975 1694.5 950.5Q1715 926 1727.0 895.5Q1739 865 1739 834Z" style="fill:#f4f4f4;stroke:none" transform="scale(1,-1) translate(0,-256)" /></svg>