<?xml version="1.0" encoding="utf-8" ?>
<svg baseProfile="full" height="256" version="1.1" width="256" xmlns="http://www.w3.org/2000/svg" xmlns:ev="http://www.w3.org/2001/xml-events" xmlns:xlink="http://www.w3.org/1999/xlink"><defs /><path d="M1334 1653Q1334 1683 1355.0 1704.0Q1376 1725 1406 1725Q1436 1725 1457.0 1704.0Q1478 1683 1478 1653V1366Q1478 1336 1457.0 1315.0Q1436 1294 1406 1294Q1376 1294 1355.0 1315.0Q1334 1336 1334 1366ZM2050 1510Q2081 1510 2103.0 1488.0Q2125 1466 2125 1435Q2125 1405 2103 1383L1892 1172Q1870 1150 1839 1150Q1809 1150 1787.0 1172.0Q1765 1194 1765 1224Q1765 1255 1787 1277L1998 1488Q2020 1510 2050 1510ZM761 1510Q792 1510 814 1488L1025 1277Q1047 1255 1047 1224Q1047 1194 1025.0 1172.0Q1003 1150 972 1150Q942 1150 920 1172L709 1383Q687 1405 687 1435Q687 1466 709.0 1488.0Q731 1510 761 1510Z" style="fill:#fcd53f;stroke:none" transform="scale(1,-1) translate(0,-256)" /></svg>