<?xml version="1.0" encoding="utf-8" ?>
<svg baseProfile="full" height="256" version="1.1" width="256" xmlns="http://www.w3.org/2000/svg" xmlns:ev="http://www.w3.org/2001/xml-events" xmlns:xlink="http://www.w3.org/1999/xlink"><defs /><path d="M1011 719Q1011 801 1042.0 873.0Q1073 945 1126.5 998.5Q1180 1052 1252.0 1083.0Q1324 1114 1406 1114Q1488 1114 1560.0 1083.0Q1632 1052 1685.5 998.5Q1739 945 1770.0 873.0Q1801 801 1801 719Q1801 637 1770.0 565.0Q1739 493 1685.5 439.5Q1632 386 1560.0 355.0Q1488 324 1406 324Q1324 324 1252.0 355.0Q1180 386 1126.5 439.5Q1073 493 1042.0 565.0Q1011 637 1011 719ZM1765 719Q1765 793 1736.5 858.5Q1708 924 1659.5 972.5Q1611 1021 1545.5 1049.5Q1480 1078 1406 1078Q1332 1078 1266.5 1049.5Q1201 1021 1152.0 972.5Q1103 924 1075.0 858.5Q1047 793 1047 719Q1047 644 1075.0 579.0Q1103 514 1152.0 465.0Q1201 416 1266.0 388.0Q1331 360 1406 360Q1480 360 1545.5 388.0Q1611 416 1659.5 465.0Q1708 514 1736.5 579.5Q1765 645 1765 719Z" style="fill:#cdc4d6;stroke:none" transform="scale(1,-1) translate(0,-256)" /></svg>