<?xml version="1.0" encoding="utf-8" ?>
<svg baseProfile="full" height="256" version="1.1" width="256" xmlns="http://www.w3.org/2000/svg" xmlns:ev="http://www.w3.org/2001/xml-events" xmlns:xlink="http://www.w3.org/1999/xlink"><defs /><path d="M1981 719Q1981 600 1936.0 495.0Q1891 390 1813.0 312.0Q1735 234 1630.0 189.0Q1525 144 1406 144Q1287 144 1182.0 189.0Q1077 234 999.0 312.0Q921 390 876.0 495.0Q831 600 831 719Q831 838 876.0 943.0Q921 1048 999.0 1126.0Q1077 1204 1182.0 1249.0Q1287 1294 1406 1294Q1525 1294 1630.0 1249.0Q1735 1204 1813.0 1126.0Q1891 1048 1936.0 943.0Q1981 838 1981 719ZM1729 719Q1729 786 1703.5 845.0Q1678 904 1634.5 947.5Q1591 991 1532.0 1016.5Q1473 1042 1406 1042Q1339 1042 1280.0 1016.5Q1221 991 1177.5 947.5Q1134 904 1108.5 845.0Q1083 786 1083 719Q1083 652 1108.5 593.0Q1134 534 1177.5 490.5Q1221 447 1280.0 421.5Q1339 396 1406 396Q1473 396 1532.0 421.5Q1591 447 1634.5 490.5Q1678 534 1703.5 593.0Q1729 652 1729 719Z" style="fill:#998ea4;stroke:none" transform="scale(1,-1) translate(0,-256)" /></svg>