<?xml version="1.0" encoding="utf-8" ?>
<svg baseProfile="full" height="256" version="1.1" width="256" xmlns="http://www.w3.org/2000/svg" xmlns:ev="http://www.w3.org/2001/xml-events" xmlns:xlink="http://www.w3.org/1999/xlink"><defs /><path d="M1262 718Q1262 701 1255 687Q1234 643 1199.5 610.0Q1165 577 1122.5 554.5Q1080 532 1032.5 521.0Q985 510 938 510Q877 510 814.5 530.5Q752 551 708 596Q687 619 687 647Q687 677 708.0 698.0Q729 719 759 719Q778 719 793.0 708.5Q808 698 826.5 686.0Q845 674 871.0 663.5Q897 653 939 653Q995 653 1046.5 676.5Q1098 700 1126 751Q1136 769 1152.0 780.0Q1168 791 1190 791Q1219 791 1240.5 769.5Q1262 748 1262 718ZM1550 718Q1550 701 1557 687Q1578 643 1612.5 610.0Q1647 577 1689.5 554.5Q1732 532 1779.5 521.0Q1827 510 1874 510Q1935 510 1997.5 530.5Q2060 551 2104 596Q2125 619 2125 647Q2125 677 2104.0 698.0Q2083 719 2053 719Q2034 719 2019.0 708.5Q2004 698 1985.5 686.0Q1967 674 1941.0 663.5Q1915 653 1873 653Q1817 653 1765.5 676.5Q1714 700 1686 751Q1676 770 1659.5 780.5Q1643 791 1622 791Q1592 791 1571.0 769.5Q1550 748 1550 718ZM1407 219Q1498 219 1571.0 186.5Q1644 154 1711 94Q1733 73 1762 73Q1791 73 1812.5 94.0Q1834 115 1834 145Q1834 174 1812 196Q1773 236 1726.0 267.0Q1679 298 1626.5 319.5Q1574 341 1518.0 352.0Q1462 363 1407 363Q1351 363 1295.0 352.0Q1239 341 1186.0 319.0Q1133 297 1085.5 265.5Q1038 234 999 193Q978 170 978 142Q978 113 999.5 92.0Q1021 71 1050 71Q1066 71 1078.0 76.5Q1090 82 1101 92Q1168 153 1241.0 186.0Q1314 219 1407 219Z" style="fill:#402a32;stroke:none" transform="scale(1,-1) translate(0,-256)" /></svg>