<?xml version="1.0" encoding="utf-8" ?>
<svg baseProfile="full" height="256" version="1.1" width="256" xmlns="http://www.w3.org/2000/svg" xmlns:ev="http://www.w3.org/2001/xml-events" xmlns:xlink="http://www.w3.org/1999/xlink"><defs /><path d="M1604 287Q1590 287 1579.0 296.0Q1568 305 1565 319Q1561 336 1555.0 355.5Q1549 375 1549 392Q1549 406 1558.0 417.0Q1567 428 1581 431L2135 549Q2138 550 2143 550Q2157 550 2168.0 541.5Q2179 533 2182 519Q2186 502 2191.5 482.0Q2197 462 2197 445Q2197 431 2188.0 420.5Q2179 410 2165 407L1611 288Q1609 287 1604 287ZM759 252Q759 267 769.5 277.5Q780 288 795 288H1370Q1385 288 1395.5 277.5Q1406 267 1406 252V180Q1406 165 1395.5 154.5Q1385 144 1370 144H795Q780 144 769.5 154.5Q759 165 759 180ZM795 72 1370 71Q1385 71 1395.5 61.0Q1406 51 1406 36Q1406 21 1395.5 10.5Q1385 0 1370 0L795 1Q781 1 770.0 11.5Q759 22 759 36Q759 51 769.5 61.5Q780 72 795 72Z" style="fill:#7d4533;stroke:none" transform="scale(1,-1) translate(0,-256)" /></svg>