<?xml version="1.0" encoding="utf-8" ?>
<svg baseProfile="full" height="256" version="1.1" width="256" xmlns="http://www.w3.org/2000/svg" xmlns:ev="http://www.w3.org/2001/xml-events" xmlns:xlink="http://www.w3.org/1999/xlink"><defs /><path d="M831 393Q831 445 850.5 491.5Q870 538 904.5 572.5Q939 607 984.5 627.0Q1030 647 1083 647Q1136 647 1182.0 627.0Q1228 607 1261.5 572.5Q1295 538 1314.5 491.5Q1334 445 1334 393V-187Q1334 -199 1326.0 -207.0Q1318 -215 1306 -215H859Q847 -215 839.0 -207.0Q831 -199 831 -187ZM1693 467Q1693 504 1707.0 537.0Q1721 570 1745.5 594.5Q1770 619 1803.0 633.0Q1836 647 1873 647Q1910 647 1943.0 633.0Q1976 619 2000.5 594.5Q2025 570 2039.0 537.0Q2053 504 2053 467V216H1693Z" style="fill:#212121;stroke:none" transform="scale(1,-1) translate(0,-256)" /></svg>