<?xml version="1.0" encoding="utf-8" ?>
<svg baseProfile="full" height="256" version="1.1" width="256" xmlns="http://www.w3.org/2000/svg" xmlns:ev="http://www.w3.org/2001/xml-events" xmlns:xlink="http://www.w3.org/1999/xlink"><defs /><path d="M2411 789Q2411 760 2390.0 739.5Q2369 719 2340 719Q2315 719 2297 734L1440 1421L1020 1085Q1008 1076 993 1076Q985 1076 977.0 1078.5Q969 1081 961 1081Q951 1081 946 1076L796 957Q782 946 782 928Q782 914 781.5 904.5Q781 895 768 884L584 737Q566 722 541 722Q512 722 492.0 742.0Q472 762 472 791Q472 825 497 845L1385 1556Q1399 1567 1409.0 1574.5Q1419 1582 1439 1582Q1454 1582 1465.5 1576.0Q1477 1570 1489 1561L1733 1365Q1744 1356 1744 1341Q1744 1331 1743.0 1320.5Q1742 1310 1752 1302L1862 1213Q1867 1209 1877 1209Q1884 1209 1890.5 1211.0Q1897 1213 1904 1213Q1924 1213 1938 1201L2385 842Q2411 821 2411 789Z" style="fill:#f8312f;stroke:none" transform="scale(1,-1) translate(0,-256)" /></svg>