<?xml version="1.0" encoding="utf-8" ?>
<svg baseProfile="full" height="256" version="1.1" width="256" xmlns="http://www.w3.org/2000/svg" xmlns:ev="http://www.w3.org/2001/xml-events" xmlns:xlink="http://www.w3.org/1999/xlink"><defs /><path d="M1756 523H1972V109Q1972 89 1966.0 73.5Q1960 58 1950 41L1777 -261Q1770 -273 1753.0 -280.0Q1736 -287 1723 -287H1649Q1640 -287 1633.5 -280.5Q1627 -274 1627 -265Q1627 -263 1635.0 -240.0Q1643 -217 1656.0 -183.5Q1669 -150 1683.5 -111.0Q1698 -72 1712.0 -37.0Q1726 -2 1736.0 24.5Q1746 51 1749 58Q1752 66 1754.0 72.5Q1756 79 1756 88ZM1484 -287Q1492 -287 1496.5 -281.5Q1501 -276 1501 -268Q1501 -265 1494.5 -239.0Q1488 -213 1477.0 -171.5Q1466 -130 1451.5 -77.0Q1437 -24 1422.0 31.5Q1407 87 1392.0 141.5Q1377 196 1365.0 241.0Q1353 286 1344.5 317.5Q1336 349 1333 359H1119L1180 104Q1189 68 1206.5 45.0Q1224 22 1242.5 6.0Q1261 -10 1276.0 -21.0Q1291 -32 1294 -45L1356 -271Q1358 -280 1367.0 -283.5Q1376 -287 1384 -287Z" style="fill:#b4acbc;stroke:none" transform="scale(1,-1) translate(0,-256)" /></svg>