<?xml version="1.0" encoding="utf-8" ?>
<svg baseProfile="full" height="256" version="1.1" width="256" xmlns="http://www.w3.org/2000/svg" xmlns:ev="http://www.w3.org/2001/xml-events" xmlns:xlink="http://www.w3.org/1999/xlink"><defs /><path d="M2165 651Q2197 592 2197 524V327Q2197 316 2202.0 301.0Q2207 286 2216 279Q2239 262 2261.5 244.5Q2284 227 2307 210Q2323 198 2331.5 174.5Q2340 151 2340 132V-264Q2340 -274 2333.5 -280.5Q2327 -287 2317 -287H2219Q2210 -287 2203.5 -280.0Q2197 -273 2197 -264V-54Q2197 -44 2191.5 -33.5Q2186 -23 2178 -18L1893 157Q1849 184 1821.5 228.0Q1794 272 1794 324Q1749 273 1686.5 244.5Q1624 216 1555 216H1190V49Q1190 11 1179.0 -16.0Q1168 -43 1154.5 -63.0Q1141 -83 1130.0 -97.5Q1119 -112 1119 -124V-265Q1119 -274 1112.0 -280.5Q1105 -287 1096 -287H997Q988 -287 981.5 -280.5Q975 -274 975 -265V240Q926 259 886.5 291.5Q847 324 818.5 365.5Q790 407 774.5 455.5Q759 504 759 557V952Q759 981 760.0 1004.5Q761 1028 761.5 1051.0Q762 1074 762.0 1097.5Q762 1121 759 1150Q759 1153 753.5 1172.5Q748 1192 740.0 1220.0Q732 1248 722.5 1280.0Q713 1312 704.5 1341.0Q696 1370 689.5 1392.0Q683 1414 681 1421Q697 1431 721.5 1446.0Q746 1461 772.5 1475.0Q799 1489 825.0 1499.5Q851 1510 872 1510Q870 1515 865.0 1531.0Q860 1547 853.0 1568.0Q846 1589 838.0 1612.5Q830 1636 823.5 1656.5Q817 1677 812.5 1691.0Q808 1705 808 1707Q808 1715 813.5 1720.0Q819 1725 827 1725Q852 1725 875.5 1717.0Q899 1709 919.5 1694.5Q940 1680 955.0 1660.5Q970 1641 978 1617L1227 863Q1232 848 1244.5 834.5Q1257 821 1273.5 811.5Q1290 802 1307.5 796.5Q1325 791 1340 791H1927Q1961 791 1994.0 782.5Q2027 774 2057 758Q2053 773 2053 791Q2053 821 2064.5 847.0Q2076 873 2095.5 892.5Q2115 912 2141.0 923.5Q2167 935 2197 935Q2227 935 2253.0 923.5Q2279 912 2298.5 892.5Q2318 873 2329.0 847.0Q2340 821 2340 791Q2340 761 2329.0 735.0Q2318 709 2298.5 689.5Q2279 670 2253.0 658.5Q2227 647 2197 647Q2178 647 2165 651Z" style="fill:#cdc4d6;stroke:none" transform="scale(1,-1) translate(0,-256)" /></svg>