<?xml version="1.0" encoding="utf-8" ?>
<svg baseProfile="full" height="256" version="1.1" width="256" xmlns="http://www.w3.org/2000/svg" xmlns:ev="http://www.w3.org/2001/xml-events" xmlns:xlink="http://www.w3.org/1999/xlink"><defs /><path d="M1384 -287Q1376 -287 1367.0 -283.5Q1358 -280 1356 -271L1321 -144H1469Q1472 -154 1477.0 -171.5Q1482 -189 1487.5 -207.5Q1493 -226 1497.0 -242.5Q1501 -259 1501 -268Q1501 -275 1497.0 -281.0Q1493 -287 1485 -287ZM1649 -287Q1640 -287 1633.5 -280.5Q1627 -274 1627 -265Q1627 -261 1633.0 -243.5Q1639 -226 1647.0 -206.0Q1655 -186 1662.0 -168.0Q1669 -150 1672 -144H1844L1777 -261Q1770 -273 1753.5 -280.0Q1737 -287 1724 -287Z" style="fill:#f3ad61;stroke:none" transform="scale(1,-1) translate(0,-256)" /></svg>