<?xml version="1.0" encoding="utf-8" ?>
<svg baseProfile="full" height="256" version="1.1" width="256" xmlns="http://www.w3.org/2000/svg" xmlns:ev="http://www.w3.org/2001/xml-events" xmlns:xlink="http://www.w3.org/1999/xlink"><defs /><path d="M748 1438Q776 1438 802.0 1427.0Q828 1416 847.0 1396.5Q866 1377 877.5 1351.5Q889 1326 889 1298V1226Q889 1195 867.0 1172.5Q845 1150 814 1150H563Q544 1150 527.5 1157.0Q511 1164 498.5 1176.5Q486 1189 479.0 1205.5Q472 1222 472 1241Q472 1265 483.5 1286.0Q495 1307 516 1320L674 1417Q707 1438 748 1438Z" style="fill:#f3ad61;stroke:none" transform="scale(1,-1) translate(0,-256)" /></svg>