<?xml version="1.0" encoding="utf-8" ?>
<svg baseProfile="full" height="256" version="1.1" width="256" xmlns="http://www.w3.org/2000/svg" xmlns:ev="http://www.w3.org/2001/xml-events" xmlns:xlink="http://www.w3.org/1999/xlink"><defs /><path d="M1102 519 969 334Q959 320 952.0 308.5Q945 297 937.5 286.0Q930 275 922.0 264.0Q914 253 902 241Q890 229 879.0 220.5Q868 212 857.0 205.0Q846 198 834.0 190.5Q822 183 808 173L621 37Q598 20 579.0 9.5Q560 -1 529 -1Q502 -1 478.5 9.0Q455 19 437.0 37.0Q419 55 409.0 78.5Q399 102 399 129Q399 155 409.0 178.5Q419 202 437 220L652 434Q668 450 683.0 457.0Q698 464 720 467ZM1201 416 1016 280Q1002 270 990.5 262.5Q979 255 968.5 248.0Q958 241 947.0 232.5Q936 224 924 212Q912 200 903.5 189.0Q895 178 887.5 167.0Q880 156 873.0 144.0Q866 132 856 119L719 -66Q702 -89 691.5 -108.0Q681 -127 681 -158Q681 -185 691.0 -208.5Q701 -232 719.0 -249.5Q737 -267 760.5 -277.0Q784 -287 811 -287Q837 -287 860.5 -277.0Q884 -267 902 -249L1117 -35Q1145 -7 1150 33Z" style="fill:#635994;stroke:none" transform="scale(1,-1) translate(0,-256)" /></svg>