<?xml version="1.0" encoding="utf-8" ?>
<svg baseProfile="full" height="256" version="1.1" width="256" xmlns="http://www.w3.org/2000/svg" xmlns:ev="http://www.w3.org/2001/xml-events" xmlns:xlink="http://www.w3.org/1999/xlink"><defs /><path d="M1520 1410Q1425 1437 1325 1437Q1283 1437 1242.0 1432.0Q1201 1427 1159 1418Q1108 1406 1055 1406Q983 1406 914.5 1429.0Q846 1452 789 1495L668 1410L590 1296Q689 1213 808.5 1169.5Q928 1126 1056 1126Q1099 1126 1140.0 1131.0Q1181 1136 1223 1145Q1249 1150 1274.0 1153.5Q1299 1157 1325 1157Q1355 1157 1385.0 1153.0Q1415 1149 1444 1141L1554 1256L1518 1410ZM538 1345Q502 1386 502 1439Q502 1468 513.0 1493.0Q524 1518 543.0 1537.0Q562 1556 587.5 1566.5Q613 1577 642 1577Q695 1577 735 1542L649 1418ZM2077 890 1905 922 1815 794Q1842 720 1842 642Q1842 589 1830 537Q1821 495 1816.0 454.0Q1811 413 1811 371Q1811 244 1853.5 125.5Q1896 7 1977 -90L2103 -13L2176 109Q2134 166 2112.5 232.5Q2091 299 2091 370Q2091 396 2094.5 421.5Q2098 447 2103 473Q2112 515 2117.0 556.0Q2122 597 2122 640Q2122 770 2077 890ZM2223 54Q2212 46 2195.5 34.0Q2179 22 2161.0 9.5Q2143 -3 2127.0 -15.5Q2111 -28 2103 -36Q2096 -43 2085.5 -57.5Q2075 -72 2063.5 -88.0Q2052 -104 2042.0 -119.0Q2032 -134 2025 -143Q2066 -184 2124 -184Q2153 -184 2178.5 -173.0Q2204 -162 2222.5 -142.5Q2241 -123 2252.0 -98.0Q2263 -73 2263 -44Q2263 -16 2252.5 9.0Q2242 34 2223 54Z" style="fill:#7d4533;stroke:none" transform="scale(1,-1) translate(0,-256)" /></svg>