<?xml version="1.0" encoding="utf-8" ?>
<svg baseProfile="full" height="256" version="1.1" width="256" xmlns="http://www.w3.org/2000/svg" xmlns:ev="http://www.w3.org/2001/xml-events" xmlns:xlink="http://www.w3.org/1999/xlink"><defs /><path d="M1816 1550Q1816 1561 1823.0 1570.0Q1830 1579 1841 1582Q1850 1584 1877.5 1591.5Q1905 1599 1943.5 1609.5Q1982 1620 2028.0 1633.0Q2074 1646 2121.5 1658.5Q2169 1671 2213.5 1683.0Q2258 1695 2293.5 1704.5Q2329 1714 2352.0 1719.5Q2375 1725 2378 1725Q2392 1725 2401.5 1715.0Q2411 1705 2411 1691Q2411 1688 2405.5 1665.0Q2400 1642 2390.5 1606.5Q2381 1571 2369.0 1526.5Q2357 1482 2344.5 1435.0Q2332 1388 2319.0 1342.0Q2306 1296 2295.5 1257.5Q2285 1219 2277.5 1191.5Q2270 1164 2268 1155Q2261 1130 2236 1130Q2223 1130 2213 1140L1826 1527Q1816 1537 1816 1550ZM553 1274Q539 1274 528.0 1285.0Q517 1296 517 1310Q517 1325 528 1336L746 1554Q756 1564 771 1564Q786 1564 796.5 1553.5Q807 1543 807 1528Q807 1513 797 1503L579 1285Q568 1274 553 1274ZM596 1292Q613 1277 631.0 1264.0Q649 1251 669 1239L689 105Q671 88 653.5 69.5Q636 51 618 34ZM1923 -16Q1935 -36 1948.5 -54.0Q1962 -72 1976 -89L720 -66Q738 -53 757.0 -32.0Q776 -11 792 5ZM2209 126Q2224 126 2234.5 115.5Q2245 105 2245 90Q2245 75 2235 65L2017 -152Q2006 -163 1991 -163Q1977 -163 1966.0 -152.0Q1955 -141 1955 -127Q1955 -112 1966 -101L2184 116Q2194 126 2209 126Z" style="fill:#d3d3d3;stroke:none" transform="scale(1,-1) translate(0,-256)" /></svg>