<?xml version="1.0" encoding="utf-8" ?>
<svg baseProfile="full" height="256" version="1.1" width="256" xmlns="http://www.w3.org/2000/svg" xmlns:ev="http://www.w3.org/2001/xml-events" xmlns:xlink="http://www.w3.org/1999/xlink"><defs /><path d="M1400 1313Q1378 1313 1358.5 1321.5Q1339 1330 1324.0 1345.0Q1309 1360 1300.5 1379.5Q1292 1399 1292 1421V1617Q1292 1639 1300.5 1658.5Q1309 1678 1324.0 1693.0Q1339 1708 1358.5 1716.5Q1378 1725 1400 1725Q1422 1725 1441.5 1716.5Q1461 1708 1476.0 1693.0Q1491 1678 1499.5 1658.5Q1508 1639 1508 1617V1421Q1508 1399 1499.5 1379.5Q1491 1360 1476.0 1345.0Q1461 1330 1441.5 1321.5Q1422 1313 1400 1313ZM1400 196Q1290 196 1193.5 237.5Q1097 279 1025.0 351.0Q953 423 911.5 519.0Q870 615 870 725Q870 798 889.0 865.5Q908 933 942.5 992.0Q977 1051 1025.5 1099.5Q1074 1148 1133.0 1182.5Q1192 1217 1259.5 1236.0Q1327 1255 1400 1255Q1510 1255 1606.5 1213.5Q1703 1172 1775.0 1100.0Q1847 1028 1888.5 931.5Q1930 835 1930 725Q1930 652 1911.0 584.5Q1892 517 1857.5 458.0Q1823 399 1774.5 351.0Q1726 303 1667.0 268.5Q1608 234 1540.5 215.0Q1473 196 1400 196ZM1400 1039Q1335 1039 1278.0 1014.5Q1221 990 1178.0 947.0Q1135 904 1110.5 847.0Q1086 790 1086 725Q1086 660 1110.5 603.0Q1135 546 1178.0 503.0Q1221 460 1278.0 435.5Q1335 411 1400 411Q1465 411 1522.0 435.5Q1579 460 1622.0 503.0Q1665 546 1689.5 603.0Q1714 660 1714 725Q1714 790 1689.5 847.0Q1665 904 1622.0 947.0Q1579 990 1522.0 1014.5Q1465 1039 1400 1039ZM908 1109Q930 1109 949.5 1117.5Q969 1126 983.5 1141.0Q998 1156 1006.5 1175.5Q1015 1195 1015 1217Q1015 1238 1007.0 1258.0Q999 1278 984 1293L845 1432Q830 1447 810.0 1455.0Q790 1463 769 1463Q747 1463 727.5 1454.5Q708 1446 693.0 1431.5Q678 1417 669.5 1397.5Q661 1378 661 1356Q661 1312 693 1280L832 1141Q847 1126 867.0 1117.5Q887 1109 908 1109ZM812 725Q812 703 803.5 683.5Q795 664 780.0 649.0Q765 634 745.5 625.5Q726 617 704 617H508Q486 617 466.5 625.5Q447 634 432.0 649.0Q417 664 408.5 683.5Q400 703 400 725Q400 747 408.5 766.5Q417 786 432.0 801.0Q447 816 466.5 824.5Q486 833 508 833H704Q726 833 745.5 824.5Q765 816 780.0 801.0Q795 786 803.5 766.5Q812 747 812 725ZM1015 232Q1015 254 1006.5 273.5Q998 293 984.0 308.0Q970 323 950.0 331.5Q930 340 908 340Q887 340 867.0 332.0Q847 324 832 309L693 170Q678 155 669.5 135.0Q661 115 661 93Q661 70 669.5 50.5Q678 31 692.5 17.0Q707 3 726.5 -5.5Q746 -14 769 -14Q790 -14 810.0 -6.0Q830 2 845 17L984 156Q999 171 1007.0 191.0Q1015 211 1015 232ZM1400 137Q1422 137 1442.0 128.5Q1462 120 1476.5 105.5Q1491 91 1499.5 71.0Q1508 51 1508 29V-167Q1508 -189 1499.5 -208.5Q1491 -228 1476.0 -243.0Q1461 -258 1441.5 -266.5Q1422 -275 1400 -275Q1378 -275 1358.5 -266.5Q1339 -258 1324.0 -243.0Q1309 -228 1300.5 -208.5Q1292 -189 1292 -167V29Q1292 51 1300.5 70.5Q1309 90 1324.0 105.0Q1339 120 1358.5 128.5Q1378 137 1400 137ZM1892 340Q1870 340 1850.5 331.5Q1831 323 1816.0 309.0Q1801 295 1792.5 275.0Q1784 255 1784 233Q1784 212 1792.5 191.5Q1801 171 1816 156L1955 17Q1970 2 1990.0 -6.0Q2010 -14 2031 -14Q2053 -14 2072.5 -5.5Q2092 3 2106.5 17.5Q2121 32 2129.5 51.5Q2138 71 2138 93Q2138 139 2107 170L1969 309Q1954 324 1933.5 332.0Q1913 340 1892 340ZM1988 725Q1988 747 1996.5 766.5Q2005 786 2020.0 801.0Q2035 816 2054.5 824.5Q2074 833 2096 833H2292Q2314 833 2333.5 824.5Q2353 816 2368.0 801.0Q2383 786 2391.5 766.5Q2400 747 2400 725Q2400 703 2391.5 683.5Q2383 664 2368.0 649.0Q2353 634 2333.5 625.5Q2314 617 2292 617H2096Q2074 617 2054.5 625.5Q2035 634 2020.0 649.0Q2005 664 1996.5 683.5Q1988 703 1988 725ZM1785 1217Q1785 1195 1793.5 1175.5Q1802 1156 1816.0 1141.0Q1830 1126 1849.5 1117.5Q1869 1109 1892 1109Q1913 1109 1933.5 1117.5Q1954 1126 1969 1141L2107 1280Q2122 1295 2130.0 1315.0Q2138 1335 2138 1356Q2138 1378 2129.5 1397.5Q2121 1417 2106.5 1431.5Q2092 1446 2072.5 1454.5Q2053 1463 2031 1463Q2010 1463 1990.0 1455.0Q1970 1447 1955 1432L1816 1293Q1801 1278 1793.0 1258.0Q1785 1238 1785 1217Z" style="fill:#ffb02e;stroke:none" transform="scale(1,-1) translate(0,-256)" /></svg>