<?xml version="1.0" encoding="utf-8" ?>
<svg baseProfile="full" height="256" version="1.1" width="256" xmlns="http://www.w3.org/2000/svg" xmlns:ev="http://www.w3.org/2001/xml-events" xmlns:xlink="http://www.w3.org/1999/xlink"><defs /><path d="M1190 1006H1226V935H1190V503H1226V431H1190V-72H1118V431H1083V503H1118V935H1083V1006H1118V1510H1190ZM759 647Q759 707 781.5 759.5Q804 812 843.0 851.0Q882 890 934.5 912.5Q987 935 1047 935Q1047 875 1024.5 822.5Q1002 770 963.0 731.0Q924 692 871.5 669.5Q819 647 759 647ZM831 1222Q876 1222 915.0 1205.0Q954 1188 983.5 1158.5Q1013 1129 1030.0 1090.0Q1047 1051 1047 1006Q1002 1006 963.0 1023.0Q924 1040 894.5 1069.5Q865 1099 848.0 1138.0Q831 1177 831 1222ZM1262 431Q1307 431 1346.0 414.0Q1385 397 1414.5 368.0Q1444 339 1461.0 300.0Q1478 261 1478 216Q1433 216 1394.0 233.0Q1355 250 1325.5 279.0Q1296 308 1279.0 347.0Q1262 386 1262 431ZM1406 647Q1406 617 1394.5 591.0Q1383 565 1363.5 545.5Q1344 526 1318.0 514.5Q1292 503 1262 503Q1262 533 1273.0 559.0Q1284 585 1303.5 604.5Q1323 624 1349.5 635.5Q1376 647 1406 647Z" style="fill:#b4acbc;stroke:none" transform="scale(1,-1) translate(0,-256)" /></svg>