<?xml version="1.0" encoding="utf-8" ?>
<svg baseProfile="full" height="256" version="1.1" width="256" xmlns="http://www.w3.org/2000/svg" xmlns:ev="http://www.w3.org/2001/xml-events" xmlns:xlink="http://www.w3.org/1999/xlink"><defs /><path d="M723 1006Q708 1006 697.5 1017.0Q687 1028 687 1043Q687 1046 687.5 1048.5Q688 1051 689 1054Q705 1105 737.0 1149.0Q769 1193 812.0 1225.5Q855 1258 906.0 1276.0Q957 1294 1011 1294Q1025 1294 1036.0 1283.0Q1047 1272 1047 1258Q1047 1244 1036.0 1233.0Q1025 1222 1011 1222Q960 1222 916.5 1204.0Q873 1186 836 1151Q808 1125 789.5 1095.5Q771 1066 757 1031Q747 1006 723 1006ZM2089 1006Q2104 1006 2114.5 1017.0Q2125 1028 2125 1043Q2125 1046 2124.5 1048.5Q2124 1051 2123 1054Q2107 1105 2075.0 1149.0Q2043 1193 1999.5 1225.0Q1956 1257 1905.0 1275.5Q1854 1294 1801 1294Q1786 1294 1775.5 1283.5Q1765 1273 1765 1258Q1765 1243 1775.5 1232.5Q1786 1222 1801 1222Q1852 1222 1895.5 1204.0Q1939 1186 1976 1151Q2004 1125 2022.5 1095.5Q2041 1066 2055 1031Q2065 1006 2089 1006ZM1406 144Q1436 144 1468.5 138.0Q1501 132 1531.5 119.5Q1562 107 1587.5 87.5Q1613 68 1629 40Q1651 0 1693 0Q1723 0 1744.0 21.5Q1765 43 1765 73Q1765 90 1758 104Q1750 120 1738.0 136.0Q1726 152 1714 165Q1654 228 1573.0 258.0Q1492 288 1406 288Q1359 288 1306.0 276.5Q1253 265 1204.0 242.0Q1155 219 1115.0 184.5Q1075 150 1054 104Q1046 88 1046 72Q1046 43 1067.5 21.5Q1089 0 1119 0Q1161 0 1183 40Q1199 68 1224.5 87.5Q1250 107 1280.5 119.5Q1311 132 1343.5 138.0Q1376 144 1406 144Z" style="fill:#402a32;stroke:none" transform="scale(1,-1) translate(0,-256)" /></svg>