<?xml version="1.0" encoding="utf-8" ?>
<svg baseProfile="full" height="256" version="1.1" width="256" xmlns="http://www.w3.org/2000/svg" xmlns:ev="http://www.w3.org/2001/xml-events" xmlns:xlink="http://www.w3.org/1999/xlink"><defs /><path d="M975 773Q975 778 975.0 782.0Q975 786 976 791H1297Q1298 786 1298.0 782.0Q1298 778 1298 773Q1298 739 1285.5 709.5Q1273 680 1251.0 658.0Q1229 636 1199.5 623.5Q1170 611 1136 611Q1103 611 1073.5 624.0Q1044 637 1022.0 659.0Q1000 681 987.5 710.5Q975 740 975 773ZM1765 773Q1765 778 1765.5 782.0Q1766 786 1766 791H2088Q2088 786 2088.5 782.0Q2089 778 2089 773Q2089 740 2076.0 710.5Q2063 681 2041.0 659.0Q2019 637 1989.5 624.0Q1960 611 1927 611Q1894 611 1864.5 624.0Q1835 637 1813.0 659.0Q1791 681 1778.0 710.5Q1765 740 1765 773Z" style="fill:#402a32;stroke:none" transform="scale(1,-1) translate(0,-256)" /></svg>