<?xml version="1.0" encoding="utf-8" ?>
<svg baseProfile="full" height="256" version="1.1" width="256" xmlns="http://www.w3.org/2000/svg" xmlns:ev="http://www.w3.org/2001/xml-events" xmlns:xlink="http://www.w3.org/1999/xlink"><defs /><path d="M574 1114H1950Q1971 1114 1990.0 1106.0Q2009 1098 2023.0 1084.5Q2037 1071 2045.0 1052.0Q2053 1033 2053 1012V426Q2053 405 2045.0 386.0Q2037 367 2023.0 353.5Q2009 340 1990.0 332.0Q1971 324 1950 324H574Q531 324 501.5 353.5Q472 383 472 426V1012Q472 1055 501.5 1084.5Q531 1114 574 1114ZM687 104Q687 121 699.0 132.5Q711 144 728 144H1796Q1813 144 1825.0 132.5Q1837 121 1837 104V49Q1837 8 1821.5 -27.0Q1806 -62 1779.0 -88.0Q1752 -114 1716.0 -129.0Q1680 -144 1640 -144H884Q844 -144 808.0 -129.0Q772 -114 745.0 -88.0Q718 -62 702.5 -27.0Q687 8 687 49Z" style="fill:#433b6b;stroke:none" transform="scale(1,-1) translate(0,-256)" /></svg>