<?xml version="1.0" encoding="utf-8" ?>
<svg baseProfile="full" height="256" version="1.1" width="256" xmlns="http://www.w3.org/2000/svg" xmlns:ev="http://www.w3.org/2001/xml-events" xmlns:xlink="http://www.w3.org/1999/xlink"><defs /><path d="M2125 1006 2216 759 2155 588Q2147 563 2138.0 546.0Q2129 529 2125 503Q2123 489 2122.5 477.5Q2122 466 2122.5 455.0Q2123 444 2124.0 432.5Q2125 421 2125 407V216L1264 58L400 216V1222L976 1279Q1018 1283 1052.5 1288.0Q1087 1293 1120.0 1297.0Q1153 1301 1187.5 1304.0Q1222 1307 1264 1307Q1306 1307 1340.5 1304.0Q1375 1301 1407.5 1297.0Q1440 1293 1474.5 1288.0Q1509 1283 1551 1279L2125 1222Z" style="fill:#e1d8ec;stroke:none" transform="scale(1,-1) translate(0,-256)" /></svg>