<?xml version="1.0" encoding="utf-8" ?>
<svg baseProfile="full" height="256" version="1.1" width="256" xmlns="http://www.w3.org/2000/svg" xmlns:ev="http://www.w3.org/2001/xml-events" xmlns:xlink="http://www.w3.org/1999/xlink"><defs /><path d="M849 1042Q849 1004 823.0 978.5Q797 953 759 953Q721 953 695.0 978.5Q669 1004 669 1042ZM1352 1042Q1352 1004 1326.0 978.5Q1300 953 1262 953Q1225 953 1198.5 979.0Q1172 1005 1172 1042ZM1675 1042H1855Q1855 1004 1829.0 978.5Q1803 953 1765 953Q1728 953 1701.5 979.0Q1675 1005 1675 1042Z" style="fill:#00a6ed;stroke:none" transform="scale(1,-1) translate(0,-256)" /></svg>