<?xml version="1.0" encoding="utf-8" ?>
<svg baseProfile="full" height="256" version="1.1" width="256" xmlns="http://www.w3.org/2000/svg" xmlns:ev="http://www.w3.org/2001/xml-events" xmlns:xlink="http://www.w3.org/1999/xlink"><defs /><path d="M669 396Q669 433 695.5 459.0Q722 485 759 485Q796 485 822.5 459.0Q849 433 849 396ZM1172 396Q1172 433 1198.5 459.0Q1225 485 1262 485Q1299 485 1325.5 459.0Q1352 433 1352 396ZM1855 396H1675Q1675 433 1701.5 459.0Q1728 485 1765 485Q1802 485 1828.5 459.0Q1855 433 1855 396Z" style="fill:#f9c23c;stroke:none" transform="scale(1,-1) translate(0,-256)" /></svg>