<?xml version="1.0" encoding="utf-8" ?>
<svg baseProfile="full" height="256" version="1.1" width="256" xmlns="http://www.w3.org/2000/svg" xmlns:ev="http://www.w3.org/2001/xml-events" xmlns:xlink="http://www.w3.org/1999/xlink"><defs /><path d="M2412 1402Q2412 1379 2403.5 1359.5Q2395 1340 2380.5 1325.5Q2366 1311 2346.0 1302.5Q2326 1294 2304 1294Q2281 1294 2261.5 1302.5Q2242 1311 2228.0 1326.0Q2214 1341 2205.5 1360.5Q2197 1380 2197 1402Q2197 1424 2205.5 1443.5Q2214 1463 2228.5 1478.0Q2243 1493 2262.5 1501.5Q2282 1510 2304 1510Q2326 1510 2345.5 1501.5Q2365 1493 2380.0 1478.0Q2395 1463 2403.5 1443.5Q2412 1424 2412 1402ZM680 861Q662 861 648.5 848.5Q635 836 635 817V784Q635 770 645.0 760.0Q655 750 669 750Q689 750 696.0 763.0Q703 776 703 793H811Q805 782 790.5 755.5Q776 729 760.0 700.0Q744 671 732.0 645.5Q720 620 720 612Q720 598 730.5 587.5Q741 577 755 577Q775 577 785 595Q789 603 799.0 621.5Q809 640 822.0 664.0Q835 688 849.0 714.5Q863 741 874.5 764.0Q886 787 893.5 804.0Q901 821 901 826Q901 840 891.0 850.5Q881 861 867 861ZM1138 817Q1138 836 1151.5 848.5Q1165 861 1183 861H1370Q1384 861 1394.0 850.5Q1404 840 1404 826Q1404 821 1396.5 804.0Q1389 787 1377.5 764.0Q1366 741 1352.0 714.5Q1338 688 1325.0 664.0Q1312 640 1302.0 621.5Q1292 603 1288 595Q1278 577 1258 577Q1244 577 1234.0 587.0Q1224 597 1224 611Q1224 619 1236.0 644.5Q1248 670 1263.5 699.5Q1279 729 1294.0 755.5Q1309 782 1314 793H1206Q1206 776 1199.0 763.0Q1192 750 1172 750Q1158 750 1148.0 760.0Q1138 770 1138 784ZM1686 861Q1668 861 1654.5 848.5Q1641 836 1641 817V784Q1641 770 1651.0 760.0Q1661 750 1675 750Q1695 750 1702.5 763.0Q1710 776 1710 793H1817Q1812 782 1797.0 755.5Q1782 729 1766.5 699.5Q1751 670 1739.0 644.5Q1727 619 1727 611Q1727 597 1737.0 587.0Q1747 577 1761 577Q1781 577 1791 595Q1795 603 1805.0 621.5Q1815 640 1828.0 664.0Q1841 688 1855.0 714.5Q1869 741 1880.5 764.0Q1892 787 1899.5 804.0Q1907 821 1907 826Q1907 840 1897.0 850.5Q1887 861 1873 861Z" style="fill:#f8312f;stroke:none" transform="scale(1,-1) translate(0,-256)" /></svg>