<?xml version="1.0" encoding="utf-8" ?>
<svg baseProfile="full" height="256" version="1.1" width="256" xmlns="http://www.w3.org/2000/svg" xmlns:ev="http://www.w3.org/2001/xml-events" xmlns:xlink="http://www.w3.org/1999/xlink"><defs /><path d="M1940 1510Q1975 1510 2008.5 1498.0Q2042 1486 2068.0 1463.5Q2094 1441 2109.5 1410.0Q2125 1379 2125 1342V1222H400V1342Q400 1379 415.5 1410.0Q431 1441 457.0 1463.5Q483 1486 516.5 1498.0Q550 1510 585 1510ZM2304 1366Q2318 1366 2329.0 1355.5Q2340 1345 2340 1331V935Q2351 935 2364.0 934.5Q2377 934 2387.5 930.0Q2398 926 2405.0 917.5Q2412 909 2412 893V616Q2412 598 2397.5 586.5Q2383 575 2366 575H2197Q2197 569 2198.0 557.0Q2199 545 2198.5 533.0Q2198 521 2193.5 512.0Q2189 503 2178 503H2125V1006H2178Q2189 1006 2193.5 997.0Q2198 988 2198.5 976.5Q2199 965 2198.0 953.0Q2197 941 2197 935H2268V1331Q2268 1345 2279.0 1355.5Q2290 1366 2304 1366ZM2017 -287H508Q485 -287 465.5 -278.0Q446 -269 431.5 -254.0Q417 -239 408.5 -219.0Q400 -199 400 -176V216H2125V-176Q2125 -198 2116.5 -218.0Q2108 -238 2093.5 -253.5Q2079 -269 2059.0 -278.0Q2039 -287 2017 -287Z" style="fill:#d3d3d3;stroke:none" transform="scale(1,-1) translate(0,-256)" /></svg>