<?xml version="1.0" encoding="utf-8" ?>
<svg baseProfile="full" height="256" version="1.1" width="256" xmlns="http://www.w3.org/2000/svg" xmlns:ev="http://www.w3.org/2001/xml-events" xmlns:xlink="http://www.w3.org/1999/xlink"><defs /><path d="M1302 1582Q1362 1582 1407.0 1552.0Q1452 1522 1479 1469Q1493 1440 1518.5 1423.5Q1544 1407 1577 1407Q1599 1407 1617.0 1415.5Q1635 1424 1654.0 1433.5Q1673 1443 1694.5 1451.5Q1716 1460 1746 1460Q1782 1460 1814.5 1446.0Q1847 1432 1871.0 1408.0Q1895 1384 1909.0 1351.5Q1923 1319 1923 1283Q1923 1259 1917.0 1236.0Q1911 1213 1911 1190Q1911 1149 1937.5 1119.0Q1964 1089 2004 1084L2042 1079Q2076 1074 2104.0 1058.5Q2132 1043 2152.5 1019.0Q2173 995 2184.5 965.0Q2196 935 2196 901Q2196 868 2187.5 844.5Q2179 821 2165.5 803.5Q2152 786 2137.0 772.0Q2122 758 2108.5 743.0Q2095 728 2086.5 710.5Q2078 693 2078 668Q2078 644 2086.5 626.5Q2095 609 2108.0 594.0Q2121 579 2136.5 564.5Q2152 550 2165.0 532.5Q2178 515 2186.5 491.5Q2195 468 2195 436Q2195 401 2183.5 371.0Q2172 341 2151.0 317.5Q2130 294 2101.5 278.5Q2073 263 2039 259L2001 254Q1960 248 1933.0 218.0Q1906 188 1906 146Q1906 123 1912.0 101.0Q1918 79 1918 56Q1918 20 1904.0 -12.0Q1890 -44 1865.5 -68.0Q1841 -92 1809.0 -106.0Q1777 -120 1741 -120Q1710 -120 1688.0 -111.5Q1666 -103 1647.0 -93.0Q1628 -83 1610.0 -74.5Q1592 -66 1569 -66Q1537 -66 1512.0 -82.0Q1487 -98 1472 -127Q1445 -179 1400.0 -208.5Q1355 -238 1295 -238Q1235 -238 1189.5 -208.5Q1144 -179 1117 -126Q1103 -97 1077.5 -80.5Q1052 -64 1019 -64Q996 -64 978.5 -72.5Q961 -81 942.0 -90.5Q923 -100 901.5 -108.5Q880 -117 850 -117Q814 -117 781.5 -103.0Q749 -89 725.0 -65.0Q701 -41 687.0 -8.5Q673 24 673 60Q673 84 679.0 107.0Q685 130 685 153Q685 194 658.5 224.0Q632 254 592 259L554 264Q521 268 492.5 284.0Q464 300 443.5 324.0Q423 348 411.5 378.0Q400 408 400 442Q400 475 408.5 498.5Q417 522 430.5 539.5Q444 557 459.0 571.0Q474 585 487.5 600.0Q501 615 509.5 632.5Q518 650 518 675Q518 699 509.5 716.5Q501 734 488.0 749.0Q475 764 459.5 778.5Q444 793 431.0 810.5Q418 828 409.5 851.0Q401 874 401 907Q401 942 412.5 972.0Q424 1002 445.0 1025.0Q466 1048 494.5 1063.5Q523 1079 557 1084L595 1090Q637 1097 663.5 1125.5Q690 1154 690 1197Q690 1220 684.0 1242.0Q678 1264 678 1287Q678 1323 692.0 1355.0Q706 1387 730.5 1411.0Q755 1435 787.0 1449.0Q819 1463 855 1463Q886 1463 908.0 1454.5Q930 1446 949.0 1436.0Q968 1426 986.0 1417.5Q1004 1409 1027 1409Q1059 1409 1084.0 1425.0Q1109 1441 1124 1470Q1151 1522 1196.5 1552.0Q1242 1582 1302 1582Z" style="fill:#ff822d;stroke:none" transform="scale(1,-1) translate(0,-256)" /></svg>