<?xml version="1.0" encoding="utf-8" ?>
<svg baseProfile="full" height="256" version="1.1" width="256" xmlns="http://www.w3.org/2000/svg" xmlns:ev="http://www.w3.org/2001/xml-events" xmlns:xlink="http://www.w3.org/1999/xlink"><defs /><path d="M1295 -34Q1198 -34 1108.0 -8.5Q1018 17 939.5 63.0Q861 109 796.5 173.5Q732 238 686.0 316.5Q640 395 615.0 485.0Q590 575 590 672Q590 769 615.0 859.0Q640 949 686.0 1027.5Q732 1106 796.5 1170.5Q861 1235 939.5 1281.0Q1018 1327 1108.0 1352.5Q1198 1378 1295 1378Q1392 1378 1482.5 1353.0Q1573 1328 1651.5 1282.0Q1730 1236 1794.5 1171.5Q1859 1107 1905.0 1028.5Q1951 950 1976.0 859.5Q2001 769 2001 672Q2001 575 1976.0 484.5Q1951 394 1905.0 315.5Q1859 237 1794.5 172.5Q1730 108 1651.5 62.0Q1573 16 1482.5 -9.0Q1392 -34 1295 -34Z" style="fill:#f9c23c;stroke:none" transform="scale(1,-1) translate(0,-256)" /></svg>