<?xml version="1.0" encoding="utf-8" ?>
<svg baseProfile="full" height="256" version="1.1" width="256" xmlns="http://www.w3.org/2000/svg" xmlns:ev="http://www.w3.org/2001/xml-events" xmlns:xlink="http://www.w3.org/1999/xlink"><defs /><path d="M2233 324Q2233 257 2207.5 198.0Q2182 139 2138.0 95.0Q2094 51 2035.0 25.5Q1976 0 1909 0Q1842 0 1783.0 25.5Q1724 51 1680.5 95.0Q1637 139 1611.5 198.0Q1586 257 1586 324Q1586 391 1611.5 449.5Q1637 508 1681.0 552.0Q1725 596 1783.5 621.5Q1842 647 1909 647Q1976 647 2035.0 621.5Q2094 596 2138.0 552.0Q2182 508 2207.5 449.5Q2233 391 2233 324Z" style="fill:#d3d3d3;stroke:none" transform="scale(1,-1) translate(0,-256)" /></svg>