<?xml version="1.0" encoding="utf-8" ?>
<svg baseProfile="full" height="256" version="1.1" width="256" xmlns="http://www.w3.org/2000/svg" xmlns:ev="http://www.w3.org/2001/xml-events" xmlns:xlink="http://www.w3.org/1999/xlink"><defs /><path d="M1906 848H975V923Q975 955 987.0 983.5Q999 1012 1020.0 1033.0Q1041 1054 1069.5 1066.0Q1098 1078 1130 1078H1906ZM1047 -215Q1084 -215 1116.5 -201.0Q1149 -187 1173.5 -162.5Q1198 -138 1212.0 -105.5Q1226 -73 1226 -36Q1226 1 1212.0 34.0Q1198 67 1173.5 91.5Q1149 116 1116.5 130.0Q1084 144 1047 144Q1010 144 977.0 130.0Q944 116 919.5 91.5Q895 67 881.0 34.0Q867 1 867 -36Q867 -73 881.0 -105.5Q895 -138 919.5 -162.5Q944 -187 977.0 -201.0Q1010 -215 1047 -215ZM543 432Q529 432 516.0 426.0Q503 420 493.0 410.0Q483 400 477.5 387.0Q472 374 472 359Q472 330 493 309L636 165Q657 144 687 144Q717 144 738.0 165.0Q759 186 759 216Q759 246 738 267L594 410Q583 420 570.5 426.0Q558 432 543 432Z" style="fill:#1c1c1c;stroke:none" transform="scale(1,-1) translate(0,-256)" /></svg>