<?xml version="1.0" encoding="utf-8" ?>
<svg baseProfile="full" height="256" version="1.1" width="256" xmlns="http://www.w3.org/2000/svg" xmlns:ev="http://www.w3.org/2001/xml-events" xmlns:xlink="http://www.w3.org/1999/xlink"><defs /><path d="M1908 719Q1990 719 2062.0 688.0Q2134 657 2188.0 603.5Q2242 550 2273.0 478.0Q2304 406 2304 324Q2304 242 2273.0 170.0Q2242 98 2188.0 44.0Q2134 -10 2062.0 -41.0Q1990 -72 1908 -72Q1826 -72 1754.0 -41.0Q1682 -10 1628.5 44.0Q1575 98 1544.0 170.0Q1513 242 1513 324Q1513 405 1544.0 477.0Q1575 549 1629.0 603.0Q1683 657 1755.0 688.0Q1827 719 1908 719Z" style="fill:#9b9b9b;stroke:none" transform="scale(1,-1) translate(0,-256)" /></svg>