<?xml version="1.0" encoding="utf-8" ?>
<svg baseProfile="full" height="256" version="1.1" width="256" xmlns="http://www.w3.org/2000/svg" xmlns:ev="http://www.w3.org/2001/xml-events" xmlns:xlink="http://www.w3.org/1999/xlink"><defs /><path d="M1908 216Q1885 216 1865.5 224.5Q1846 233 1832.0 248.0Q1818 263 1809.5 282.5Q1801 302 1801 324Q1801 346 1809.5 365.5Q1818 385 1832.5 399.5Q1847 414 1866.5 422.5Q1886 431 1908 431Q1930 431 1949.5 422.5Q1969 414 1984.0 400.0Q1999 386 2007.5 366.0Q2016 346 2016 324Q2016 301 2007.5 281.5Q1999 262 1984.5 247.5Q1970 233 1950.0 224.5Q1930 216 1908 216Z" style="fill:#212121;stroke:none" transform="scale(1,-1) translate(0,-256)" /></svg>