<?xml version="1.0" encoding="utf-8" ?>
<svg baseProfile="full" height="256" version="1.1" width="256" xmlns="http://www.w3.org/2000/svg" xmlns:ev="http://www.w3.org/2001/xml-events" xmlns:xlink="http://www.w3.org/1999/xlink"><defs /><path d="M2125 1725Q2125 1715 2122 1705L2028 1376Q2021 1352 2014.0 1332.5Q2007 1313 2000.0 1294.5Q1993 1276 1988.0 1256.5Q1983 1237 1981 1212Q1976 1164 1975.5 1124.0Q1975 1084 1976.5 1046.0Q1978 1008 1979.5 968.0Q1981 928 1981 880V216Q1981 186 1960.0 165.0Q1939 144 1909 144H1262Q1233 144 1211.5 165.5Q1190 187 1190 216Q1190 244 1185.0 270.5Q1180 297 1167.5 317.0Q1155 337 1133.0 349.0Q1111 361 1078 361Q1070 361 1062.5 360.0Q1055 359 1047 359Q1018 359 996.5 380.0Q975 401 975 431V863Q975 894 989.5 909.0Q1004 924 1025.5 930.0Q1047 936 1072.0 935.5Q1097 935 1118 935V1066Q1118 1113 1136.0 1154.5Q1154 1196 1185.0 1227.0Q1216 1258 1257.5 1276.0Q1299 1294 1346 1294H1855L1984 1745Q1991 1768 2010.0 1782.5Q2029 1797 2053 1797Q2082 1797 2103.5 1776.0Q2125 1755 2125 1725ZM1346 1150Q1311 1150 1286.5 1125.5Q1262 1101 1262 1066V935H1837V1150ZM1118 502Q1206 489 1259.5 431.5Q1313 374 1328 288H1837V791H1118Z" style="fill:#f92f60;stroke:none" transform="scale(1,-1) translate(0,-256)" /></svg>