<?xml version="1.0" encoding="utf-8" ?>
<svg baseProfile="full" height="256" version="1.1" width="256" xmlns="http://www.w3.org/2000/svg" xmlns:ev="http://www.w3.org/2001/xml-events" xmlns:xlink="http://www.w3.org/1999/xlink"><defs /><path d="M1406 1006Q1368 1006 1331.5 997.0Q1295 988 1263 969L996 1437Q982 1462 982 1490Q982 1521 997.0 1542.5Q1012 1564 1039 1578Q1078 1597 1124.0 1611.5Q1170 1626 1218.0 1635.0Q1266 1644 1314.5 1648.5Q1363 1653 1406 1653Q1481 1653 1559.5 1640.0Q1638 1627 1713.5 1601.5Q1789 1576 1859.0 1538.0Q1929 1500 1986 1451Q2003 1436 2012.5 1418.0Q2022 1400 2022 1377Q2022 1356 2013.0 1336.5Q2004 1317 1990 1303L1609 922Q1569 962 1516.0 984.0Q1463 1006 1406 1006ZM1830 -52Q1830 -24 1816 1L1549 469Q1517 450 1480.5 440.5Q1444 431 1406 431Q1349 431 1296.0 453.5Q1243 476 1203 516L821 134Q807 120 798.5 100.5Q790 81 790 61Q790 38 799.5 20.0Q809 2 826 -13Q883 -63 952.5 -100.5Q1022 -138 1098.0 -163.5Q1174 -189 1252.5 -202.0Q1331 -215 1406 -215Q1449 -215 1497.5 -210.5Q1546 -206 1594.0 -197.0Q1642 -188 1688.0 -174.0Q1734 -160 1773 -140Q1800 -126 1815.0 -105.0Q1830 -84 1830 -52Z" style="fill:#fcd53f;stroke:none" transform="scale(1,-1) translate(0,-256)" /></svg>