<?xml version="1.0" encoding="utf-8" ?>
<svg baseProfile="full" height="256" version="1.1" width="256" xmlns="http://www.w3.org/2000/svg" xmlns:ev="http://www.w3.org/2001/xml-events" xmlns:xlink="http://www.w3.org/1999/xlink"><defs /><path d="M1406 360Q1331 360 1266.0 388.0Q1201 416 1152.0 465.0Q1103 514 1075.0 579.0Q1047 644 1047 719Q1047 793 1075.0 858.5Q1103 924 1152.0 972.5Q1201 1021 1266.5 1049.5Q1332 1078 1406 1078Q1480 1078 1545.5 1049.5Q1611 1021 1659.5 972.5Q1708 924 1736.5 858.5Q1765 793 1765 719Q1765 645 1736.5 579.5Q1708 514 1659.5 465.0Q1611 416 1545.5 388.0Q1480 360 1406 360ZM1406 503Q1451 503 1490.0 520.0Q1529 537 1558.5 566.5Q1588 596 1605.0 635.0Q1622 674 1622 719Q1622 764 1605.0 803.0Q1588 842 1558.5 871.5Q1529 901 1490.0 918.0Q1451 935 1406 935Q1361 935 1322.0 918.0Q1283 901 1253.5 871.5Q1224 842 1207.0 803.0Q1190 764 1190 719Q1190 674 1207.0 635.0Q1224 596 1253.5 566.5Q1283 537 1322.0 520.0Q1361 503 1406 503Z" style="fill:#ff822d;stroke:none" transform="scale(1,-1) translate(0,-256)" /></svg>