<?xml version="1.0" encoding="utf-8" ?>
<svg baseProfile="full" height="256" version="1.1" width="256" xmlns="http://www.w3.org/2000/svg" xmlns:ev="http://www.w3.org/2001/xml-events" xmlns:xlink="http://www.w3.org/1999/xlink"><defs /><path d="M831 439Q831 409 852.0 388.0Q873 367 903 367H2268Q2298 367 2319.0 388.0Q2340 409 2340 439V324Q2340 302 2331.5 282.5Q2323 263 2309.0 248.0Q2295 233 2275.0 224.5Q2255 216 2233 216H939Q916 216 896.5 224.5Q877 233 862.5 247.5Q848 262 839.5 281.5Q831 301 831 324V439Z" style="fill:#e39d89;stroke:none" transform="scale(1,-1) translate(0,-256)" /></svg>