<?xml version="1.0" encoding="utf-8" ?>
<svg baseProfile="full" height="256" version="1.1" width="256" xmlns="http://www.w3.org/2000/svg" xmlns:ev="http://www.w3.org/2001/xml-events" xmlns:xlink="http://www.w3.org/1999/xlink"><defs /><path d="M1544 1142Q1522 1142 1503.0 1150.0Q1484 1158 1469.5 1172.5Q1455 1187 1447.0 1206.0Q1439 1225 1439 1247Q1439 1269 1447.0 1288.0Q1455 1307 1469.5 1321.0Q1484 1335 1503.0 1343.5Q1522 1352 1544 1352Q1566 1352 1585.0 1343.5Q1604 1335 1618.0 1321.0Q1632 1307 1640.5 1288.0Q1649 1269 1649 1247Q1649 1225 1640.5 1206.0Q1632 1187 1618.0 1172.5Q1604 1158 1585.0 1150.0Q1566 1142 1544 1142ZM1692 1085Q1709 1085 1725.0 1075.5Q1741 1066 1749 1050Q1755 1038 1769.5 1008.5Q1784 979 1803.0 941.0Q1822 903 1842.5 860.5Q1863 818 1880.0 781.5Q1897 745 1908.0 718.0Q1919 691 1919 683Q1919 657 1900.5 638.5Q1882 620 1856 620Q1838 620 1823.0 630.0Q1808 640 1800 656L1725 810V585Q1725 472 1725.5 360.0Q1726 248 1726 135Q1726 109 1707.5 90.5Q1689 72 1663 72Q1637 72 1618.5 90.5Q1600 109 1600 135V524H1529V135Q1529 109 1511.0 90.5Q1493 72 1467 72Q1441 72 1422.5 90.5Q1404 109 1404 135V566Q1404 654 1405.0 742.0Q1406 830 1406 918Q1396 909 1380.0 893.0Q1364 877 1346.5 861.0Q1329 845 1312.0 832.0Q1295 819 1284 815L1075 741Q1070 739 1064.5 738.0Q1059 737 1054 737Q1028 737 1010.0 755.0Q992 773 992 799Q992 819 1003.0 835.5Q1014 852 1033 859L1230 929L1385 1069Q1403 1085 1427 1085ZM975 683Q975 668 964.5 657.5Q954 647 939 647Q924 647 913.5 657.5Q903 668 903 683Q903 698 913.5 708.5Q924 719 939 719Q954 719 964.5 708.5Q975 698 975 683ZM1083 288Q1068 288 1057.5 298.5Q1047 309 1047 324Q1047 338 1058.0 349.0Q1069 360 1083 360Q1097 360 1107.5 349.0Q1118 338 1118 324Q1118 310 1107.5 299.0Q1097 288 1083 288ZM1047 566Q1047 575 1056 575H1109Q1118 575 1118 566V512Q1118 503 1109 503H1056Q1047 503 1047 512ZM892 465Q892 469 898.0 476.5Q904 484 912.0 492.0Q920 500 927.5 506.0Q935 512 939 512Q942 512 949.5 505.5Q957 499 965.5 491.0Q974 483 980.0 475.5Q986 468 986 465Q986 462 979.5 454.5Q973 447 964.5 439.0Q956 431 948.5 424.5Q941 418 939 418Q935 418 928.5 423.5Q922 429 915.5 435.5Q909 442 903.0 449.0Q897 456 894 459Q894 460 893.0 462.0Q892 464 892 465Z" style="fill:#000000;stroke:none" transform="scale(1,-1) translate(0,-256)" /></svg>