<?xml version="1.0" encoding="utf-8" ?>
<svg baseProfile="full" height="256" version="1.1" width="256" xmlns="http://www.w3.org/2000/svg" xmlns:ev="http://www.w3.org/2001/xml-events" xmlns:xlink="http://www.w3.org/1999/xlink"><defs /><path d="M889 555Q911 555 926.0 540.0Q941 525 941 503V286Q941 182 980.0 91.5Q1019 1 1087.0 -67.0Q1155 -135 1245.5 -174.0Q1336 -213 1440 -213Q1543 -213 1634.0 -173.5Q1725 -134 1792.5 -66.5Q1860 1 1899.0 92.0Q1938 183 1938 286V503Q1938 524 1953.5 539.5Q1969 555 1990 555Q2012 555 2027.0 540.0Q2042 525 2042 503V286Q2042 161 1994.5 51.5Q1947 -58 1865.5 -140.0Q1784 -222 1674.0 -269.5Q1564 -317 1440 -317Q1357 -317 1280.0 -295.5Q1203 -274 1136.0 -234.5Q1069 -195 1014.0 -140.0Q959 -85 919.5 -18.0Q880 49 858.5 126.0Q837 203 837 286V503Q837 524 852.5 539.5Q868 555 889 555Z" style="fill:#9b9b9b;stroke:none" transform="scale(1,-1) translate(0,-256)" /></svg>