<?xml version="1.0" encoding="utf-8" ?>
<svg baseProfile="full" height="256" version="1.1" width="256" xmlns="http://www.w3.org/2000/svg" xmlns:ev="http://www.w3.org/2001/xml-events" xmlns:xlink="http://www.w3.org/1999/xlink"><defs /><path d="M1599 1193Q1617 1193 1633.0 1186.0Q1649 1179 1661.0 1166.5Q1673 1154 1680.0 1138.0Q1687 1122 1687 1104Q1687 1086 1680.0 1070.0Q1673 1054 1661.0 1042.0Q1649 1030 1633.0 1023.0Q1617 1016 1599 1016H1529V946Q1529 909 1503.0 883.5Q1477 858 1440 858Q1422 858 1406.0 865.0Q1390 872 1378.0 884.0Q1366 896 1359.0 912.0Q1352 928 1352 946V1016H1282Q1245 1016 1219.5 1041.5Q1194 1067 1194 1104Q1194 1141 1219.5 1167.0Q1245 1193 1282 1193H1352V1262Q1352 1280 1359.0 1296.0Q1366 1312 1378.0 1324.5Q1390 1337 1406.0 1344.0Q1422 1351 1440 1351Q1477 1351 1503.0 1325.0Q1529 1299 1529 1262V1193Z" style="fill:#ffffff;stroke:none" transform="scale(1,-1) translate(0,-256)" /></svg>