<?xml version="1.0" encoding="utf-8" ?>
<svg baseProfile="full" height="256" version="1.1" width="256" xmlns="http://www.w3.org/2000/svg" xmlns:ev="http://www.w3.org/2001/xml-events" xmlns:xlink="http://www.w3.org/1999/xlink"><defs /><path d="M2185 715Q2216 715 2243.5 703.0Q2271 691 2291.5 670.5Q2312 650 2323.5 622.5Q2335 595 2335 564Q2335 533 2323.0 506.0Q2311 479 2290.5 458.5Q2270 438 2243.0 426.0Q2216 414 2185 414H694Q663 414 635.5 426.0Q608 438 587.5 458.0Q567 478 555.0 505.5Q543 533 543 564Q543 595 555.0 622.5Q567 650 587.5 670.5Q608 691 635.5 703.0Q663 715 694 715H2185Z" style="fill:#f8312f;stroke:none" transform="scale(1,-1) translate(0,-256)" /></svg>