<?xml version="1.0" encoding="utf-8" ?>
<svg baseProfile="full" height="256" version="1.1" width="256" xmlns="http://www.w3.org/2000/svg" xmlns:ev="http://www.w3.org/2001/xml-events" xmlns:xlink="http://www.w3.org/1999/xlink"><defs /><path d="M980 557Q980 497 957.0 444.0Q934 391 895.0 351.5Q856 312 803.0 289.0Q750 266 690 266Q630 266 577.0 289.0Q524 312 485.0 351.5Q446 391 423.0 444.0Q400 497 400 557V811Q400 829 413.0 842.0Q426 855 444 855Q457 855 465.5 849.0Q474 843 480.5 834.0Q487 825 492.0 814.5Q497 804 502 795Q543 711 543 618V557Q543 526 554.5 499.5Q566 473 586.0 453.0Q606 433 632.5 421.5Q659 410 690 410Q720 410 747.0 421.5Q774 433 794.0 453.0Q814 473 825.5 500.0Q837 527 837 557Z" style="fill:#ffdea7;stroke:none" transform="scale(1,-1) translate(0,-256)" /></svg>