<?xml version="1.0" encoding="utf-8" ?>
<svg baseProfile="full" height="256" version="1.1" width="256" xmlns="http://www.w3.org/2000/svg" xmlns:ev="http://www.w3.org/2001/xml-events" xmlns:xlink="http://www.w3.org/1999/xlink"><defs /><path d="M1406 216H1765V-220Q1765 -248 1745.5 -267.5Q1726 -287 1698 -287H1474Q1446 -287 1426.0 -267.5Q1406 -248 1406 -220ZM1837 216H2340V-220Q2340 -248 2320.5 -267.5Q2301 -287 2273 -287H2049Q2021 -287 2001.0 -267.5Q1981 -248 1981 -220V24Q1981 62 1970.5 91.0Q1960 120 1941.0 142.5Q1922 165 1895.5 183.0Q1869 201 1837 216Z" style="fill:#6d4534;stroke:none" transform="scale(1,-1) translate(0,-256)" /></svg>