<?xml version="1.0" encoding="utf-8" ?>
<svg baseProfile="full" height="256" version="1.1" width="256" xmlns="http://www.w3.org/2000/svg" xmlns:ev="http://www.w3.org/2001/xml-events" xmlns:xlink="http://www.w3.org/1999/xlink"><defs /><path d="M1272 1366Q1326 1366 1376.5 1344.5Q1427 1323 1465.5 1286.5Q1504 1250 1527.0 1200.5Q1550 1151 1550 1096Q1550 1018 1516.0 946.5Q1482 875 1422 826L1233 672Q1222 663 1212.0 658.5Q1202 654 1188 654Q1159 654 1138.5 674.0Q1118 694 1118 723V1316Q1118 1336 1133.0 1351.0Q1148 1366 1168 1366ZM838 557H980Q988 557 995.0 563.0Q1002 569 1002 578V654Q1002 673 994.5 690.0Q987 707 974.5 719.5Q962 732 945.0 739.0Q928 746 909 746Q890 746 873.0 739.0Q856 732 843.5 719.5Q831 707 824.0 690.0Q817 673 817 654V578Q817 569 823.0 563.0Q829 557 838 557Z" style="fill:#6d4534;stroke:none" transform="scale(1,-1) translate(0,-256)" /></svg>