<?xml version="1.0" encoding="utf-8" ?>
<svg baseProfile="full" height="256" version="1.1" width="256" xmlns="http://www.w3.org/2000/svg" xmlns:ev="http://www.w3.org/2001/xml-events" xmlns:xlink="http://www.w3.org/1999/xlink"><defs /><path d="M1327 1719Q1307 1697 1294.0 1661.0Q1281 1625 1274.0 1584.5Q1267 1544 1264.5 1505.0Q1262 1466 1262 1438V913Q1262 896 1255.5 878.5Q1249 861 1239.0 845.0Q1229 829 1216.0 815.5Q1203 802 1190 792Q1190 901 1191.5 1010.0Q1193 1119 1193 1228Q1193 1307 1192.0 1385.5Q1191 1464 1191 1543Q1191 1607 1228.5 1654.5Q1266 1702 1327 1719ZM904 682V834Q904 853 909.0 875.5Q914 898 923.0 919.5Q932 941 945.5 959.0Q959 977 976 988V682Q976 667 965.5 656.5Q955 646 940 646Q925 646 914.5 656.5Q904 667 904 682ZM1549 1038Q1563 1049 1583.0 1057.0Q1603 1065 1620 1068V914Q1620 900 1609.5 889.0Q1599 878 1585 878Q1571 878 1560.0 889.0Q1549 900 1549 914ZM1836 897V928L1837 927Q1848 945 1868.0 959.0Q1888 973 1908 979V897Q1908 882 1897.5 871.5Q1887 861 1872 861Q1857 861 1846.5 871.5Q1836 882 1836 897Z" style="fill:#d67d00;stroke:none" transform="scale(1,-1) translate(0,-256)" /></svg>