<?xml version="1.0" encoding="utf-8" ?>
<svg baseProfile="full" height="256" version="1.1" width="256" xmlns="http://www.w3.org/2000/svg" xmlns:ev="http://www.w3.org/2001/xml-events" xmlns:xlink="http://www.w3.org/1999/xlink"><defs /><path d="M1406 1689Q1470 1689 1530.0 1672.5Q1590 1656 1643.0 1625.5Q1696 1595 1740.5 1550.5Q1785 1506 1817 1451L2305 605Q2340 545 2358.0 478.5Q2376 412 2376 343Q2376 235 2335.0 139.5Q2294 44 2222.5 -26.5Q2151 -97 2056.0 -138.0Q1961 -179 1853 -179H958Q850 -179 755.0 -138.0Q660 -97 589.0 -26.0Q518 45 477.0 140.5Q436 236 436 344Q436 413 453.5 479.0Q471 545 506 605L995 1451Q1027 1507 1071.0 1551.0Q1115 1595 1168.0 1626.0Q1221 1657 1281.0 1673.0Q1341 1689 1406 1689Z" style="fill:#9b9b9b;stroke:none" transform="scale(1,-1) translate(0,-256)" /></svg>