<?xml version="1.0" encoding="utf-8" ?>
<svg baseProfile="full" height="256" version="1.1" width="256" xmlns="http://www.w3.org/2000/svg" xmlns:ev="http://www.w3.org/2001/xml-events" xmlns:xlink="http://www.w3.org/1999/xlink"><defs /><path d="M507 343Q507 403 523.0 460.0Q539 517 569 569L1057 1416Q1084 1463 1121.5 1500.5Q1159 1538 1204.0 1564.0Q1249 1590 1300.5 1603.5Q1352 1617 1406 1617Q1460 1617 1511.0 1603.0Q1562 1589 1607.5 1563.0Q1653 1537 1690.5 1500.0Q1728 1463 1755 1416L2243 569Q2272 517 2288.0 460.0Q2304 403 2304 343Q2304 250 2268.5 168.0Q2233 86 2171.5 24.5Q2110 -37 2028.0 -72.5Q1946 -108 1853 -108H958Q865 -108 783.0 -72.5Q701 -37 639.5 24.0Q578 85 542.5 167.5Q507 250 507 343Z" style="fill:#f4f4f4;stroke:none" transform="scale(1,-1) translate(0,-256)" /></svg>