<?xml version="1.0" encoding="utf-8" ?>
<svg baseProfile="full" height="256" version="1.1" width="256" xmlns="http://www.w3.org/2000/svg" xmlns:ev="http://www.w3.org/2001/xml-events" xmlns:xlink="http://www.w3.org/1999/xlink"><defs /><path d="M867 1258Q834 1258 813.5 1250.0Q793 1242 780.0 1230.0Q767 1218 758.5 1204.0Q750 1190 741.5 1178.0Q733 1166 720.5 1158.0Q708 1150 687 1150Q658 1150 636.5 1171.0Q615 1192 615 1222Q615 1228 616.0 1233.5Q617 1239 619 1245Q631 1283 657.0 1312.5Q683 1342 717.5 1362.0Q752 1382 790.5 1392.0Q829 1402 867 1402Q904 1402 943.0 1392.0Q982 1382 1016.5 1362.0Q1051 1342 1077.0 1312.5Q1103 1283 1115 1245Q1118 1234 1118 1223Q1118 1193 1097.0 1171.5Q1076 1150 1046 1150Q1025 1150 1012.5 1158.0Q1000 1166 991.5 1178.0Q983 1190 974.5 1204.0Q966 1218 953.5 1230.0Q941 1242 920.5 1250.0Q900 1258 867 1258ZM1945 1258Q1912 1258 1891.5 1250.0Q1871 1242 1858.5 1230.0Q1846 1218 1837.5 1204.0Q1829 1190 1820.5 1178.0Q1812 1166 1799.5 1158.0Q1787 1150 1766 1150Q1736 1150 1715.0 1171.5Q1694 1193 1694 1223Q1694 1234 1697 1245Q1709 1283 1735.0 1312.5Q1761 1342 1795.5 1362.0Q1830 1382 1869.0 1392.0Q1908 1402 1945 1402Q1982 1402 2021.0 1392.0Q2060 1382 2094.5 1362.0Q2129 1342 2155.0 1312.5Q2181 1283 2193 1245Q2196 1234 2196 1223Q2196 1193 2175.0 1171.5Q2154 1150 2124 1150Q2103 1150 2091.0 1158.0Q2079 1166 2070.0 1178.0Q2061 1190 2053.0 1204.0Q2045 1218 2032.0 1230.0Q2019 1242 1998.5 1250.0Q1978 1258 1945 1258Z" style="fill:#402a32;stroke:none" transform="scale(1,-1) translate(0,-256)" /></svg>