<?xml version="1.0" encoding="utf-8" ?>
<svg baseProfile="full" height="256" version="1.1" width="256" xmlns="http://www.w3.org/2000/svg" xmlns:ev="http://www.w3.org/2001/xml-events" xmlns:xlink="http://www.w3.org/1999/xlink"><defs /><path d="M1407 1502Q1436 1502 1457.0 1481.0Q1478 1460 1478 1431Q1478 1425 1477.0 1419.0Q1476 1413 1474 1408L1418 1239L1587 1295Q1593 1297 1598.5 1298.0Q1604 1299 1610 1299Q1640 1299 1660.5 1277.5Q1681 1256 1681 1226Q1681 1203 1667.5 1185.0Q1654 1167 1632 1159L1327 1057Q1316 1054 1304 1054Q1275 1054 1254.0 1075.0Q1233 1096 1233 1125Q1233 1137 1236 1148L1338 1453Q1346 1476 1364.5 1489.0Q1383 1502 1407 1502ZM623 718Q623 689 644.0 668.0Q665 647 694 647Q700 647 706.0 648.0Q712 649 717 651L886 707L830 538Q828 532 827.0 526.5Q826 521 826 515Q826 486 847.0 465.0Q868 444 897 444Q920 444 939.0 457.5Q958 471 966 493L1068 798Q1071 808 1071 820Q1071 849 1050.0 870.5Q1029 892 999 892Q987 892 977 889L672 787Q649 779 636.0 760.5Q623 742 623 718Z" style="fill:#402a32;stroke:none" transform="scale(1,-1) translate(0,-256)" /></svg>