<?xml version="1.0" encoding="utf-8" ?>
<svg baseProfile="full" height="256" version="1.1" width="256" xmlns="http://www.w3.org/2000/svg" xmlns:ev="http://www.w3.org/2001/xml-events" xmlns:xlink="http://www.w3.org/1999/xlink"><defs /><path d="M1423 58Q1361 58 1296.0 73.5Q1231 89 1168.0 116.0Q1105 143 1048.5 180.5Q992 218 949 262L1863 1176Q1907 1132 1944.5 1076.0Q1982 1020 2009.0 957.0Q2036 894 2051.5 828.5Q2067 763 2067 702Q2067 622 2041.5 543.5Q2016 465 1971.0 393.5Q1926 322 1864.5 260.5Q1803 199 1731.5 154.0Q1660 109 1581.5 83.5Q1503 58 1423 58Z" style="fill:#bb1d80;stroke:none" transform="scale(1,-1) translate(0,-256)" /></svg>