<?xml version="1.0" encoding="utf-8" ?>
<svg baseProfile="full" height="256" version="1.1" width="256" xmlns="http://www.w3.org/2000/svg" xmlns:ev="http://www.w3.org/2001/xml-events" xmlns:xlink="http://www.w3.org/1999/xlink"><defs /><path d="M1050 262V-81Q1050 -113 1038.0 -140.5Q1026 -168 1005.0 -188.5Q984 -209 956.0 -221.0Q928 -233 897 -233Q866 -233 838.5 -221.0Q811 -209 790.0 -188.0Q769 -167 757.0 -139.5Q745 -112 745 -81V262Q745 293 757.0 321.0Q769 349 790.0 369.5Q811 390 838.5 402.0Q866 414 898 414Q929 414 957.0 402.0Q985 390 1005.5 369.5Q1026 349 1038.0 321.0Q1050 293 1050 262Z" style="fill:#3f5fff;stroke:none" transform="scale(1,-1) translate(0,-256)" /></svg>