<?xml version="1.0" encoding="utf-8" ?>
<svg baseProfile="full" height="256" version="1.1" width="256" xmlns="http://www.w3.org/2000/svg" xmlns:ev="http://www.w3.org/2001/xml-events" xmlns:xlink="http://www.w3.org/1999/xlink"><defs /><path d="M2443 714Q2443 611 2419.0 514.5Q2395 418 2351.5 329.0Q2308 240 2248.5 159.5Q2189 79 2117 7Q2045 -65 1964.5 -124.5Q1884 -184 1795.5 -227.0Q1707 -270 1610.0 -294.0Q1513 -318 1410 -318Q1279 -318 1151.5 -277.0Q1024 -236 908.0 -164.0Q792 -92 693.0 6.5Q594 105 522.0 220.5Q450 336 409.0 464.0Q368 592 368 723Q368 826 392.0 922.5Q416 1019 459.5 1108.0Q503 1197 562.5 1277.5Q622 1358 694 1430Q766 1502 846.5 1561.5Q927 1621 1016.0 1664.5Q1105 1708 1201.5 1732.0Q1298 1756 1401 1756Q1531 1756 1659.0 1715.0Q1787 1674 1903.0 1602.0Q2019 1530 2118.0 1431.0Q2217 1332 2289.0 1216.0Q2361 1100 2402.0 972.0Q2443 844 2443 714Z" style="fill:#ffb02e;stroke:none" transform="scale(1,-1) translate(0,-256)" /></svg>