<?xml version="1.0" encoding="utf-8" ?>
<svg baseProfile="full" height="256" version="1.1" width="256" xmlns="http://www.w3.org/2000/svg" xmlns:ev="http://www.w3.org/2001/xml-events" xmlns:xlink="http://www.w3.org/1999/xlink"><defs /><path d="M1126 1485Q1112 1491 1102.5 1504.0Q1093 1517 1093 1533Q1093 1555 1108.0 1570.0Q1123 1585 1145 1585Q1167 1585 1182.0 1570.0Q1197 1555 1197 1533Q1197 1520 1191.0 1509.0Q1185 1498 1175 1490L1293 1329L1047 1301ZM1681 1485 1760 1301 1514 1329 1632 1490Q1622 1498 1616.0 1509.0Q1610 1520 1610 1533Q1610 1555 1625.0 1570.0Q1640 1585 1662 1585Q1684 1585 1699.0 1570.0Q1714 1555 1714 1533Q1714 1517 1704.5 1504.0Q1695 1491 1681 1485Z" style="fill:#f9c23c;stroke:none" transform="scale(1,-1) translate(0,-256)" /></svg>