<?xml version="1.0" encoding="utf-8" ?>
<svg baseProfile="full" height="256" version="1.1" width="256" xmlns="http://www.w3.org/2000/svg" xmlns:ev="http://www.w3.org/2001/xml-events" xmlns:xlink="http://www.w3.org/1999/xlink"><defs /><path d="M1239 866Q1255 866 1266.5 854.5Q1278 843 1278 827Q1278 818 1273 808H1204Q1200 816 1200 827Q1200 843 1211.5 854.5Q1223 866 1239 866ZM1573 866Q1557 866 1545.5 854.5Q1534 843 1534 827Q1534 818 1539 808H1608Q1613 818 1613 827Q1613 843 1601.0 854.5Q1589 866 1573 866Z" style="fill:#000000;stroke:none" transform="scale(1,-1) translate(0,-256)" /></svg>