<?xml version="1.0" encoding="utf-8" ?>
<svg baseProfile="full" height="256" version="1.1" width="256" xmlns="http://www.w3.org/2000/svg" xmlns:ev="http://www.w3.org/2001/xml-events" xmlns:xlink="http://www.w3.org/1999/xlink"><defs /><path d="M1801 1014Q1795 915 1789.5 817.0Q1784 719 1777 620Q1775 602 1768.0 577.5Q1761 553 1753 536Q1735 496 1706.0 463.5Q1677 431 1641.5 408.0Q1606 385 1564.5 372.5Q1523 360 1479 360H1334Q1281 360 1229.0 380.0Q1177 400 1135.5 434.5Q1094 469 1067.0 516.5Q1040 564 1036 620Q1029 719 1023.0 817.0Q1017 915 1011 1014Z" style="fill:#ffc83d;stroke:none" transform="scale(1,-1) translate(0,-256)" /></svg>