<?xml version="1.0" encoding="utf-8" ?>
<svg baseProfile="full" height="256" version="1.1" width="256" xmlns="http://www.w3.org/2000/svg" xmlns:ev="http://www.w3.org/2001/xml-events" xmlns:xlink="http://www.w3.org/1999/xlink"><defs /><path d="M1190 809Q1190 783 1180.5 760.0Q1171 737 1154.0 720.0Q1137 703 1114.0 693.0Q1091 683 1065 683Q1039 683 1016.0 693.0Q993 703 976.0 720.0Q959 737 949.0 760.0Q939 783 939 809Q939 835 949.0 858.0Q959 881 976.0 898.0Q993 915 1016.0 925.0Q1039 935 1065 935Q1091 935 1113.5 925.0Q1136 915 1153.0 898.0Q1170 881 1180.0 858.0Q1190 835 1190 809ZM1873 809Q1873 783 1863.0 760.0Q1853 737 1836.0 720.0Q1819 703 1796.0 693.0Q1773 683 1747 683Q1721 683 1698.0 693.0Q1675 703 1658.0 720.0Q1641 737 1631.5 760.0Q1622 783 1622 809Q1622 835 1632.0 858.0Q1642 881 1659.0 898.0Q1676 915 1698.5 925.0Q1721 935 1747 935Q1773 935 1796.0 925.0Q1819 915 1836.0 898.0Q1853 881 1863.0 858.0Q1873 835 1873 809Z" style="fill:#fdbb11;stroke:none" transform="scale(1,-1) translate(0,-256)" /></svg>