<?xml version="1.0" encoding="utf-8" ?>
<svg baseProfile="full" height="256" version="1.1" width="256" xmlns="http://www.w3.org/2000/svg" xmlns:ev="http://www.w3.org/2001/xml-events" xmlns:xlink="http://www.w3.org/1999/xlink"><defs /><path d="M1226 1186Q1226 1163 1210.5 1147.5Q1195 1132 1172 1132Q1150 1132 1134.0 1148.0Q1118 1164 1118 1186Q1118 1208 1134.0 1224.0Q1150 1240 1172 1240Q1195 1240 1210.5 1224.5Q1226 1209 1226 1186ZM1693 1186Q1693 1164 1678.0 1148.0Q1663 1132 1640 1132Q1617 1132 1601.5 1147.5Q1586 1163 1586 1186Q1586 1209 1601.5 1224.5Q1617 1240 1640 1240Q1663 1240 1678.0 1224.0Q1693 1208 1693 1186Z" style="fill:#f92f60;stroke:none" transform="scale(1,-1) translate(0,-256)" /></svg>