<?xml version="1.0" encoding="utf-8" ?>
<svg baseProfile="full" height="256" version="1.1" width="256" xmlns="http://www.w3.org/2000/svg" xmlns:ev="http://www.w3.org/2001/xml-events" xmlns:xlink="http://www.w3.org/1999/xlink"><defs /><path d="M1171 827Q1171 856 1190.5 876.0Q1210 896 1239 896Q1268 896 1287.5 875.5Q1307 855 1307 826Q1307 821 1307.0 817.0Q1307 813 1306 808H1174Q1171 817 1171 827ZM1642 827Q1642 856 1622.0 876.0Q1602 896 1573 896Q1545 896 1524.5 875.5Q1504 855 1504 827Q1504 817 1507 808H1639Q1642 817 1642 827Z" style="fill:#7d4533;stroke:none" transform="scale(1,-1) translate(0,-256)" /></svg>