<?xml version="1.0" encoding="utf-8" ?>
<svg baseProfile="full" height="256" version="1.1" width="256" xmlns="http://www.w3.org/2000/svg" xmlns:ev="http://www.w3.org/2001/xml-events" xmlns:xlink="http://www.w3.org/1999/xlink"><defs /><path d="M759 378Q759 401 775.0 416.0Q791 431 813 431H1999Q2021 431 2037.0 416.0Q2053 401 2053 378V306Q2053 283 2037.5 267.5Q2022 252 1999 252H1675Q1666 252 1657.0 255.0Q1648 258 1641 264Q1600 207 1538.0 175.5Q1476 144 1406 144Q1336 144 1274.0 175.5Q1212 207 1171 264Q1156 252 1136 252H813Q790 252 774.5 267.5Q759 283 759 306ZM1550 36Q1550 21 1539.5 10.5Q1529 0 1514 0Q1499 0 1488.5 10.5Q1478 21 1478 36Q1478 51 1488.5 61.5Q1499 72 1514 72Q1529 72 1539.5 61.5Q1550 51 1550 36ZM1550 -179Q1550 -194 1539.5 -204.5Q1529 -215 1514 -215Q1499 -215 1488.5 -204.5Q1478 -194 1478 -179Q1478 -165 1489.0 -154.5Q1500 -144 1514 -144Q1528 -144 1539.0 -154.5Q1550 -165 1550 -179Z" style="fill:#fff478;stroke:none" transform="scale(1,-1) translate(0,-256)" /></svg>