<?xml version="1.0" encoding="utf-8" ?>
<svg baseProfile="full" height="256" version="1.1" width="256" xmlns="http://www.w3.org/2000/svg" xmlns:ev="http://www.w3.org/2001/xml-events" xmlns:xlink="http://www.w3.org/1999/xlink"><defs /><path d="M2412 1176Q2412 1067 2371.5 967.0Q2331 867 2254 790L1980 515Q1968 503 1950 503Q1932 503 1920 515L1670 766Q1633 803 1613.0 852.0Q1593 901 1593 953Q1593 1008 1614.5 1057.5Q1636 1107 1672.5 1144.0Q1709 1181 1758.0 1202.5Q1807 1224 1862 1224Q1919 1224 1963.0 1204.0Q2007 1184 2049 1147Q2056 1140 2065 1140Q2082 1140 2085.5 1150.5Q2089 1161 2089 1175Q2089 1220 2072.0 1262.0Q2055 1304 2023 1336V1337Q1991 1368 1951.0 1384.5Q1911 1401 1866 1401Q1820 1401 1777.5 1383.0Q1735 1365 1703 1333L1528 1158Q1503 1133 1470.5 1119.0Q1438 1105 1402 1105Q1367 1105 1340.5 1116.5Q1314 1128 1290.5 1146.0Q1267 1164 1246.0 1186.5Q1225 1209 1202 1232Q1196 1238 1193.0 1246.0Q1190 1254 1190 1262Q1190 1280 1202 1292L1471 1561Q1550 1640 1651.5 1682.5Q1753 1725 1866 1725Q1980 1725 2079.5 1682.0Q2179 1639 2253.0 1564.5Q2327 1490 2369.5 1390.0Q2412 1290 2412 1176ZM1553 141Q1559 186 1559 231Q1559 343 1523 448L1405 333Q1415 284 1415 229Q1415 176 1404.0 122.5Q1393 69 1371.5 18.5Q1350 -32 1318.5 -76.5Q1287 -121 1247 -156Q1251 -153 1255.0 -150.0Q1259 -147 1262 -144Z" style="fill:#b4acbc;stroke:none" transform="scale(1,-1) translate(0,-256)" /></svg>