<?xml version="1.0" encoding="utf-8" ?>
<svg baseProfile="full" height="256" version="1.1" width="256" xmlns="http://www.w3.org/2000/svg" xmlns:ev="http://www.w3.org/2001/xml-events" xmlns:xlink="http://www.w3.org/1999/xlink"><defs /><path d="M1023 732Q1096 714 1159.5 677.0Q1223 640 1272.5 588.5Q1322 537 1356.0 472.0Q1390 407 1405 333L1839 757Q1856 774 1880.0 782.5Q1904 791 1927 791Q1952 791 1974.5 782.5Q1997 774 2014.5 758.0Q2032 742 2042.5 720.5Q2053 699 2053 674Q2053 650 2043.0 629.5Q2033 609 2016 592L1262 -144Q1192 -213 1098.5 -250.0Q1005 -287 908 -287Q801 -287 708.0 -246.0Q615 -205 546.5 -134.5Q478 -64 438.5 29.5Q399 123 399 229Q399 332 437.5 426.5Q476 521 548 594L1273 1330Q1290 1347 1312.0 1356.5Q1334 1366 1358 1366Q1383 1366 1405.0 1356.0Q1427 1346 1443.0 1329.5Q1459 1313 1468.5 1290.5Q1478 1268 1478 1243Q1478 1219 1469.0 1196.5Q1460 1174 1443 1157ZM639 228Q639 172 660.0 123.0Q681 74 717.5 36.5Q754 -1 803.0 -22.5Q852 -44 908 -44Q964 -44 1013.0 -22.5Q1062 -1 1098.0 36.5Q1134 74 1155.0 123.0Q1176 172 1176 228Q1176 283 1155.0 333.0Q1134 383 1098.0 420.0Q1062 457 1013.0 479.0Q964 501 908 501Q852 501 803.0 479.5Q754 458 717.5 420.5Q681 383 660.0 333.5Q639 284 639 228Z" style="fill:#cdc4d6;stroke:none" transform="scale(1,-1) translate(0,-256)" /></svg>