<?xml version="1.0" encoding="utf-8" ?>
<svg baseProfile="full" height="256" version="1.1" width="256" xmlns="http://www.w3.org/2000/svg" xmlns:ev="http://www.w3.org/2001/xml-events" xmlns:xlink="http://www.w3.org/1999/xlink"><defs /><path d="M948 254Q952 252 955.0 249.5Q958 247 961 245Q995 222 1042.0 205.0Q1089 188 1139.5 176.0Q1190 164 1240.5 157.5Q1291 151 1332 148V-191Q1332 -206 1328.0 -222.0Q1324 -238 1315.5 -251.5Q1307 -265 1294.0 -274.0Q1281 -283 1263 -283H1015Q1000 -283 987.5 -275.5Q975 -268 975 -251Q975 -237 984 -228Q991 -221 1010.5 -202.0Q1030 -183 1055.5 -157.5Q1081 -132 1109.0 -104.0Q1137 -76 1160.5 -51.5Q1184 -27 1199.0 -9.0Q1214 9 1214 14Q1214 19 1210.0 21.0Q1206 23 1202 24Q1182 29 1164.0 34.5Q1146 40 1128 49Q1099 63 1070.5 85.0Q1042 107 1018.0 134.0Q994 161 975.5 191.5Q957 222 948 254ZM717 790Q717 742 716.0 694.5Q715 647 720 599Q705 592 692.5 576.0Q680 560 666.5 544.0Q653 528 637.0 515.5Q621 503 599 503Q578 503 562.0 517.5Q546 532 546 553V731Q546 757 561.5 773.5Q577 790 603 790ZM902 730Q902 756 921.5 772.5Q941 789 966 789H1138Q1157 789 1174.0 779.5Q1191 770 1191 748Q1191 731 1177 714Q1159 693 1135.5 667.5Q1112 642 1086.5 616.5Q1061 591 1036.0 567.0Q1011 543 990 524Q980 516 971.0 511.0Q962 506 948 506Q934 506 918.0 514.5Q902 523 902 539Z" style="fill:#008463;stroke:none" transform="scale(1,-1) translate(0,-256)" /></svg>