<?xml version="1.0" encoding="utf-8" ?>
<svg baseProfile="full" height="256" version="1.1" width="256" xmlns="http://www.w3.org/2000/svg" xmlns:ev="http://www.w3.org/2001/xml-events" xmlns:xlink="http://www.w3.org/1999/xlink"><defs /><path d="M1074 1579Q1130 1579 1177.5 1559.5Q1225 1540 1259.5 1505.5Q1294 1471 1313.0 1423.0Q1332 1375 1332 1319V939Q1332 932 1339 932Q1382 929 1421.0 924.5Q1460 920 1501 906Q1553 888 1598.0 855.5Q1643 823 1677.5 780.0Q1712 737 1734.0 686.0Q1756 635 1761 580Q1786 577 1814 577Q1916 577 1999.0 611.0Q2082 645 2140.0 706.5Q2198 768 2229.5 853.5Q2261 939 2261 1041Q2261 1056 2259.5 1071.0Q2258 1086 2258 1100Q2258 1107 2260.0 1113.0Q2262 1119 2270 1119Q2279 1119 2289.0 1110.0Q2299 1101 2308.0 1089.0Q2317 1077 2324.5 1064.5Q2332 1052 2337 1045Q2355 1019 2368.0 980.0Q2381 941 2389.0 898.5Q2397 856 2400.5 814.5Q2404 773 2404 742Q2404 594 2356.5 484.0Q2309 374 2224.0 300.5Q2139 227 2020.5 188.5Q1902 150 1761 144V-224Q1750 -250 1726.0 -266.5Q1702 -283 1673 -283H1440Q1429 -283 1417.0 -272.0Q1405 -261 1405 -249Q1405 -238 1422.5 -216.5Q1440 -195 1466.5 -168.5Q1493 -142 1523.5 -113.0Q1554 -84 1580.5 -59.5Q1607 -35 1624.5 -17.0Q1642 1 1642 7Q1642 12 1638.0 13.5Q1634 15 1631 17Q1604 28 1576.0 40.0Q1548 52 1522.5 67.0Q1497 82 1474.5 101.5Q1452 121 1437 148Q1425 147 1413.0 146.5Q1401 146 1388 146Q1373 146 1358.5 146.5Q1344 147 1329 148Q1309 125 1275.5 111.5Q1242 98 1211 98Q1197 98 1182.5 100.5Q1168 103 1154 108Q1114 121 1089.5 137.0Q1065 153 1045.5 170.5Q1026 188 1007.5 206.5Q989 225 961 245Q914 277 873.0 315.0Q832 353 800.5 397.0Q769 441 748.0 491.5Q727 542 720 600L615 683L717 789V1031Q717 1065 704.0 1072.0Q691 1079 661 1080Q647 1081 633.0 1080.5Q619 1080 605 1080H494Q470 1080 452.5 1093.0Q435 1106 423.5 1125.5Q412 1145 407.0 1168.0Q402 1191 402 1211Q402 1228 401.5 1244.0Q401 1260 401 1277Q401 1332 410.0 1378.0Q419 1424 441.5 1460.0Q464 1496 501.5 1523.0Q539 1550 595 1567Q614 1573 651.5 1575.5Q689 1578 730.0 1579.0Q771 1580 810.0 1579.5Q849 1579 873 1579Z" style="fill:#00d26a;stroke:none" transform="scale(1,-1) translate(0,-256)" /></svg>