<?xml version="1.0" encoding="utf-8" ?>
<svg baseProfile="full" height="256" version="1.1" width="256" xmlns="http://www.w3.org/2000/svg" xmlns:ev="http://www.w3.org/2001/xml-events" xmlns:xlink="http://www.w3.org/1999/xlink"><defs /><path d="M2213 636Q2213 623 2225 621L2392 589Q2404 587 2404 575Q2404 566 2396 561L1926 253Q1915 245 1915 232Q1915 222 1919 217Q1922 212 1934.0 195.5Q1946 179 1961.5 157.0Q1977 135 1994.5 110.5Q2012 86 2026.5 65.0Q2041 44 2050.5 29.0Q2060 14 2060 12Q2060 7 2056.5 3.5Q2053 0 2048 0Q2047 0 2022.5 9.0Q1998 18 1957.5 32.5Q1917 47 1865.5 66.0Q1814 85 1759.5 104.5Q1705 124 1651.5 144.0Q1598 164 1554.5 180.0Q1511 196 1480.5 207.0Q1450 218 1442 221Q1424 228 1401 228Q1379 228 1361 221Q1353 218 1322.5 207.0Q1292 196 1248.5 180.0Q1205 164 1151.5 144.0Q1098 124 1043.5 104.5Q989 85 937.5 66.0Q886 47 845.5 32.5Q805 18 780.5 9.0Q756 0 755 0Q743 0 743 13Q743 15 752.5 29.5Q762 44 776.5 65.0Q791 86 808.5 110.5Q826 135 841.5 157.0Q857 179 868.5 195.5Q880 212 884 217Q888 222 888 232Q888 245 877 253L407 561Q400 566 400 574Q400 587 412 589L578 620Q591 622 591 635Q591 642 579.0 662.5Q567 683 549.5 710.0Q532 737 511.0 767.0Q490 797 472.5 824.0Q455 851 443.0 871.5Q431 892 431 900Q431 906 435.5 910.5Q440 915 446 915Q482 915 519.0 911.0Q556 907 593.0 901.5Q630 896 667.0 892.0Q704 888 740 888Q746 888 751.0 892.0Q756 896 756 903Q756 918 748.5 941.0Q741 964 732.0 988.5Q723 1013 715.5 1036.0Q708 1059 708 1074Q708 1080 713.0 1084.0Q718 1088 723 1088Q730 1088 757.0 1073.0Q784 1058 820.0 1035.5Q856 1013 897.0 986.5Q938 960 974.0 937.5Q1010 915 1036.5 900.0Q1063 885 1070 885Q1075 885 1079.5 889.0Q1084 893 1084 899V902L967 1572V1574Q967 1581 972.0 1585.0Q977 1589 983 1589Q990 1589 1010.0 1578.0Q1030 1567 1056.5 1550.5Q1083 1534 1112.5 1515.0Q1142 1496 1168.5 1479.5Q1195 1463 1215.0 1452.0Q1235 1441 1242 1441Q1252 1441 1255 1449L1388 1717Q1391 1725 1401 1725Q1412 1725 1415 1717L1549 1449Q1554 1441 1562 1441Q1569 1441 1589.0 1452.0Q1609 1463 1634.5 1479.5Q1660 1496 1688.5 1515.0Q1717 1534 1742.5 1550.5Q1768 1567 1787.5 1578.0Q1807 1589 1814 1589Q1828 1589 1828 1575V1573L1736 902V901Q1736 895 1740.5 890.5Q1745 886 1751 886Q1758 886 1783.0 901.0Q1808 916 1842.5 938.5Q1877 961 1915.5 987.0Q1954 1013 1988.5 1035.5Q2023 1058 2048.0 1073.0Q2073 1088 2080 1088Q2086 1088 2090.5 1083.5Q2095 1079 2095 1073Q2095 1058 2087.5 1035.5Q2080 1013 2071.0 989.0Q2062 965 2054.5 942.0Q2047 919 2047 904Q2047 898 2052.0 893.5Q2057 889 2063 889H2064L2357 916Q2363 917 2368.0 912.0Q2373 907 2373 901Q2373 894 2361.0 873.5Q2349 853 2331.5 826.0Q2314 799 2293.0 768.5Q2272 738 2254.5 710.5Q2237 683 2225.0 663.0Q2213 643 2213 636Z" style="fill:#f8312f;stroke:none" transform="scale(1,-1) translate(0,-256)" /></svg>