<?xml version="1.0" encoding="utf-8" ?>
<svg baseProfile="full" height="256" version="1.1" width="256" xmlns="http://www.w3.org/2000/svg" xmlns:ev="http://www.w3.org/2001/xml-events" xmlns:xlink="http://www.w3.org/1999/xlink"><defs /><path d="M1402 1059Q1432 1059 1453.0 1038.0Q1474 1017 1474 987V403L1865 604Q1881 612 1898 612Q1928 612 1949.0 591.0Q1970 570 1970 541Q1970 521 1959.5 503.5Q1949 486 1931 477L1474 242V-213Q1474 -243 1453.0 -264.0Q1432 -285 1402 -285Q1372 -285 1351.0 -264.0Q1330 -243 1330 -213V242L873 477Q855 486 844.5 503.5Q834 521 834 541Q834 570 855.0 591.0Q876 612 906 612Q923 612 939 604L1330 403V987Q1330 1017 1351.0 1038.0Q1372 1059 1402 1059Z" style="fill:#ca0b4a;stroke:none" transform="scale(1,-1) translate(0,-256)" /></svg>