<?xml version="1.0" encoding="utf-8" ?>
<svg baseProfile="full" height="256" version="1.1" width="256" xmlns="http://www.w3.org/2000/svg" xmlns:ev="http://www.w3.org/2001/xml-events" xmlns:xlink="http://www.w3.org/1999/xlink"><defs /><path d="M2310 719Q2310 594 2277.5 478.5Q2245 363 2186.5 262.5Q2128 162 2045.5 79.5Q1963 -3 1862.5 -61.5Q1762 -120 1646.5 -152.5Q1531 -185 1406 -185Q1281 -185 1165.5 -152.5Q1050 -120 949.5 -61.5Q849 -3 766.5 79.5Q684 162 625.5 262.5Q567 363 534.5 478.5Q502 594 502 719Q502 844 534.5 959.5Q567 1075 625.5 1175.5Q684 1276 766.5 1358.5Q849 1441 949.5 1499.5Q1050 1558 1165.5 1590.5Q1281 1623 1406 1623Q1531 1623 1646.5 1590.5Q1762 1558 1862.5 1499.5Q1963 1441 2045.5 1358.5Q2128 1276 2186.5 1175.5Q2245 1075 2277.5 959.5Q2310 844 2310 719Z" style="fill:#e6e6e6;stroke:none" transform="scale(1,-1) translate(0,-256)" /></svg>