<?xml version="1.0" encoding="utf-8" ?>
<svg baseProfile="full" height="256" version="1.1" width="256" xmlns="http://www.w3.org/2000/svg" xmlns:ev="http://www.w3.org/2001/xml-events" xmlns:xlink="http://www.w3.org/1999/xlink"><defs /><path d="M977 936Q977 1025 1010.5 1103.5Q1044 1182 1102.5 1240.5Q1161 1299 1239.5 1332.5Q1318 1366 1407 1366Q1496 1366 1574.5 1332.0Q1653 1298 1711.0 1239.5Q1769 1181 1802.5 1103.0Q1836 1025 1836 936V502Q1836 413 1802.5 335.0Q1769 257 1711.0 198.5Q1653 140 1574.5 106.0Q1496 72 1407 72Q1318 72 1239.5 105.5Q1161 139 1102.5 197.5Q1044 256 1010.5 334.5Q977 413 977 502ZM1407 1150Q1363 1150 1324.0 1133.0Q1285 1116 1256.0 1087.0Q1227 1058 1210.0 1019.0Q1193 980 1193 936V502Q1193 457 1209.5 418.0Q1226 379 1255.0 350.0Q1284 321 1323.0 304.5Q1362 288 1407 288Q1451 288 1490.0 305.0Q1529 322 1558.0 351.0Q1587 380 1603.5 419.0Q1620 458 1620 502V936Q1620 980 1603.5 1019.0Q1587 1058 1558.0 1087.0Q1529 1116 1490.0 1133.0Q1451 1150 1407 1150Z" style="fill:#ffffff;stroke:none" transform="scale(1,-1) translate(0,-256)" /></svg>