<?xml version="1.0" encoding="utf-8" ?>
<svg baseProfile="full" height="256" version="1.1" width="256" xmlns="http://www.w3.org/2000/svg" xmlns:ev="http://www.w3.org/2001/xml-events" xmlns:xlink="http://www.w3.org/1999/xlink"><defs /><path d="M1409 -287Q1307 -287 1214.5 -260.0Q1122 -233 1041.5 -184.5Q961 -136 895.5 -68.0Q830 0 784.0 82.0Q738 164 712.5 258.0Q687 352 687 452Q687 552 712.0 646.0Q737 740 783.5 822.0Q830 904 895.5 972.0Q961 1040 1041.0 1089.0Q1121 1138 1214.0 1165.0Q1307 1192 1409 1192Q1510 1192 1603.0 1165.0Q1696 1138 1776.0 1089.0Q1856 1040 1921.5 972.0Q1987 904 2033.5 822.0Q2080 740 2105.0 646.0Q2130 552 2130 452Q2130 352 2105.0 258.5Q2080 165 2033.5 83.0Q1987 1 1921.5 -67.5Q1856 -136 1776.0 -184.5Q1696 -233 1603.0 -260.0Q1510 -287 1409 -287Z" style="fill:#ffb02e;stroke:none" transform="scale(1,-1) translate(0,-256)" /></svg>