<?xml version="1.0" encoding="utf-8" ?>
<svg baseProfile="full" height="256" version="1.1" width="256" xmlns="http://www.w3.org/2000/svg" xmlns:ev="http://www.w3.org/2001/xml-events" xmlns:xlink="http://www.w3.org/1999/xlink"><defs /><path d="M1410 -198Q1320 -198 1238.5 -174.5Q1157 -151 1086.5 -108.0Q1016 -65 958.5 -5.5Q901 54 860.0 126.5Q819 199 797.0 281.5Q775 364 775 452Q775 540 797.0 622.5Q819 705 860.0 777.0Q901 849 958.5 909.0Q1016 969 1086.5 1012.0Q1157 1055 1238.5 1078.5Q1320 1102 1410 1102Q1499 1102 1581.0 1078.5Q1663 1055 1733.5 1012.0Q1804 969 1861.5 909.5Q1919 850 1959.5 777.5Q2000 705 2022.0 622.5Q2044 540 2044 452Q2044 364 2022.0 281.5Q2000 199 1959.5 126.5Q1919 54 1861.5 -5.5Q1804 -65 1733.5 -108.0Q1663 -151 1581.5 -174.5Q1500 -198 1410 -198ZM1409 1014Q1293 1014 1192.5 969.0Q1092 924 1018.5 847.5Q945 771 903.0 668.5Q861 566 861 452Q861 338 903.0 235.5Q945 133 1019.0 56.5Q1093 -20 1193.0 -65.0Q1293 -110 1409 -110Q1525 -110 1625.0 -65.0Q1725 -20 1798.5 57.0Q1872 134 1914.0 236.0Q1956 338 1956 452Q1956 566 1914.0 668.5Q1872 771 1798.5 847.5Q1725 924 1625.0 969.0Q1525 1014 1409 1014Z" style="fill:#fcd53f;stroke:none" transform="scale(1,-1) translate(0,-256)" /></svg>