<?xml version="1.0" encoding="utf-8" ?>
<svg baseProfile="full" height="256" version="1.1" width="256" xmlns="http://www.w3.org/2000/svg" xmlns:ev="http://www.w3.org/2001/xml-events" xmlns:xlink="http://www.w3.org/1999/xlink"><defs /><path d="M1443 1653Q1453 1653 1466.0 1653.5Q1479 1654 1489.5 1651.0Q1500 1648 1507.5 1640.5Q1515 1633 1515 1617Q1515 1601 1507.5 1593.5Q1500 1586 1489.5 1583.0Q1479 1580 1466.0 1580.5Q1453 1581 1443 1581V1432Q1459 1425 1472 1417L1895 1115Q1921 1097 1921 1066Q1921 1041 1903.5 1023.5Q1886 1006 1861 1006Q1842 1006 1826 1017L1463 1277Q1438 1294 1408 1294Q1378 1294 1353 1277L990 1017Q974 1006 955 1006Q931 1006 912.5 1023.5Q894 1041 894 1066Q894 1080 901.0 1093.5Q908 1107 919 1115L1343 1417Q1357 1426 1371 1432V1581Q1360 1581 1348.0 1580.5Q1336 1580 1325.0 1583.0Q1314 1586 1307.0 1593.5Q1300 1601 1300 1617Q1300 1633 1307.0 1640.5Q1314 1648 1324.5 1651.0Q1335 1654 1347.5 1653.5Q1360 1653 1371 1653Q1371 1663 1370.5 1676.0Q1370 1689 1373.0 1699.5Q1376 1710 1383.5 1717.5Q1391 1725 1407 1725Q1423 1725 1430.5 1717.5Q1438 1710 1441.0 1699.5Q1444 1689 1443.5 1676.0Q1443 1663 1443 1653ZM2414 -287H400V-239Q400 -199 428.0 -171.0Q456 -143 496 -143H2318Q2358 -143 2386.0 -171.0Q2414 -199 2414 -239ZM402 209H401V201Q401 177 418.0 160.5Q435 144 459 144Q476 144 490 153L1290 658Q1315 674 1345.5 687.5Q1376 701 1406 701Q1435 701 1468.5 687.5Q1502 674 1527 658L2326 160Q2339 151 2356 151Q2380 151 2397.0 168.0Q2414 185 2414 209Q2414 224 2407.0 237.0Q2400 250 2387 258L1508 808Q1461 836 1409 836Q1354 836 1310 808L429 258Q416 250 409.0 237.0Q402 224 402 209Z" style="fill:#8c5543;stroke:none" transform="scale(1,-1) translate(0,-256)" /></svg>