<?xml version="1.0" encoding="utf-8" ?>
<svg baseProfile="full" height="256" version="1.1" width="256" xmlns="http://www.w3.org/2000/svg" xmlns:ev="http://www.w3.org/2001/xml-events" xmlns:xlink="http://www.w3.org/1999/xlink"><defs /><path d="M1295 719Q1283 719 1273.5 727.5Q1264 736 1264 749V935Q1264 965 1275.5 991.0Q1287 1017 1306.5 1036.5Q1326 1056 1352.0 1067.0Q1378 1078 1408 1078Q1438 1078 1464.0 1067.0Q1490 1056 1509.5 1036.5Q1529 1017 1540.5 991.0Q1552 965 1552 935V749Q1552 737 1543.0 728.0Q1534 719 1522 719ZM1121 103Q1121 126 1112.0 146.5Q1103 167 1087.5 182.5Q1072 198 1051.5 207.0Q1031 216 1008 216Q984 216 963.5 207.0Q943 198 928.0 183.0Q913 168 904.0 147.5Q895 127 895 103V-144H1120V103ZM1808 216Q1831 216 1851.5 207.0Q1872 198 1887.5 182.5Q1903 167 1912.0 146.0Q1921 125 1921 102V-144H1694V102Q1694 126 1703.0 146.5Q1712 167 1727.5 182.5Q1743 198 1763.5 207.0Q1784 216 1808 216Z" style="fill:#00a6ed;stroke:none" transform="scale(1,-1) translate(0,-256)" /></svg>