<?xml version="1.0" encoding="utf-8" ?>
<svg baseProfile="full" height="256" version="1.1" width="256" xmlns="http://www.w3.org/2000/svg" xmlns:ev="http://www.w3.org/2001/xml-events" xmlns:xlink="http://www.w3.org/1999/xlink"><defs /><path d="M1710 1216Q1727 1216 1727 1200Q1727 1188 1715 1181Q1692 1167 1670.5 1154.5Q1649 1142 1629 1125Q1584 1088 1550.0 1041.5Q1516 995 1492.5 942.5Q1469 890 1457.5 833.5Q1446 777 1446 719Q1446 661 1457.5 604.5Q1469 548 1492.5 495.5Q1516 443 1550.0 396.5Q1584 350 1629 313Q1649 296 1670.5 283.5Q1692 271 1715 257Q1727 250 1727 238Q1727 222 1710 222Q1703 222 1689.5 225.5Q1676 229 1662.0 233.5Q1648 238 1634.5 243.5Q1621 249 1614 252Q1547 283 1495.0 332.5Q1443 382 1407.0 444.0Q1371 506 1352.5 576.5Q1334 647 1334 719Q1334 791 1352.5 861.5Q1371 932 1407.0 994.0Q1443 1056 1495.0 1105.5Q1547 1155 1614 1186Q1621 1189 1634.5 1194.5Q1648 1200 1662.0 1204.5Q1676 1209 1689.5 1212.5Q1703 1216 1710 1216Z" style="fill:#ffffff;stroke:none" transform="scale(1,-1) translate(0,-256)" /></svg>