<?xml version="1.0" encoding="utf-8" ?>
<svg baseProfile="full" height="256" version="1.1" width="256" xmlns="http://www.w3.org/2000/svg" xmlns:ev="http://www.w3.org/2001/xml-events" xmlns:xlink="http://www.w3.org/1999/xlink"><defs /><path d="M1190 719Q1190 808 1213.0 891.0Q1236 974 1278.5 1045.5Q1321 1117 1380.0 1176.0Q1439 1235 1510.5 1277.5Q1582 1320 1665.0 1343.0Q1748 1366 1837 1366Q1841 1366 1861.0 1359.0Q1881 1352 1903.5 1343.5Q1926 1335 1946.0 1327.5Q1966 1320 1971 1318Q2074 1274 2150.0 1217.5Q2226 1161 2275.5 1088.0Q2325 1015 2349.0 923.5Q2373 832 2373 719Q2373 604 2350.5 513.5Q2328 423 2280.0 351.5Q2232 280 2157.0 224.5Q2082 169 1977 124Q1972 122 1951.5 113.5Q1931 105 1907.0 96.0Q1883 87 1862.0 79.5Q1841 72 1837 72Q1748 72 1665.0 95.0Q1582 118 1510.5 160.5Q1439 203 1380.0 262.0Q1321 321 1278.5 392.5Q1236 464 1213.0 547.0Q1190 630 1190 719Z" style="fill:#e6e6e6;stroke:none" transform="scale(1,-1) translate(0,-256)" /></svg>