<?xml version="1.0" encoding="utf-8" ?>
<svg baseProfile="full" height="256" version="1.1" width="256" xmlns="http://www.w3.org/2000/svg" xmlns:ev="http://www.w3.org/2001/xml-events" xmlns:xlink="http://www.w3.org/1999/xlink"><defs /><path d="M1479 1633Q1456 1478 1436.5 1325.5Q1417 1173 1398 1018L1373 815Q1371 792 1366.5 767.0Q1362 742 1362 719Q1362 695 1367.0 669.0Q1372 643 1375 619L1399 427L1479 -195Q1488 -197 1488 -206Q1488 -215 1478 -215Q1374 -215 1282.0 -175.5Q1190 -136 1122.0 -68.0Q1054 0 1014.5 92.0Q975 184 975 288Q975 374 931.0 445.5Q887 517 818 565Q878 557 938.0 544.0Q998 531 1055 511Q1062 509 1068.0 506.0Q1074 503 1082 503Q1097 503 1108.0 514.0Q1119 525 1119 539Q1119 559 1105.5 566.5Q1092 574 1077 579Q1004 603 936.0 617.0Q868 631 800.5 637.5Q733 644 664.5 645.5Q596 647 522 647H472Q442 647 421.0 668.0Q400 689 400 719Q400 749 421.0 770.0Q442 791 472 791H522Q595 791 664.0 792.5Q733 794 800.5 800.5Q868 807 936.5 820.5Q1005 834 1077 859Q1092 864 1105.5 871.5Q1119 879 1119 899Q1119 913 1108.0 924.0Q1097 935 1082 935Q1075 935 1068.5 932.0Q1062 929 1055 927Q998 907 938.0 894.0Q878 881 818 873Q887 921 931.0 992.5Q975 1064 975 1150Q975 1254 1014.5 1345.5Q1054 1437 1122.0 1505.5Q1190 1574 1282.0 1613.5Q1374 1653 1478 1653Q1488 1653 1488 1644Q1488 1635 1479 1633Z" style="fill:#bebebe;stroke:none" transform="scale(1,-1) translate(0,-256)" /></svg>