<?xml version="1.0" encoding="utf-8" ?>
<svg baseProfile="full" height="256" version="1.1" width="256" xmlns="http://www.w3.org/2000/svg" xmlns:ev="http://www.w3.org/2001/xml-events" xmlns:xlink="http://www.w3.org/1999/xlink"><defs /><path d="M1981 1150Q1981 1084 1964.0 1021.0Q1947 958 1915.5 902.5Q1884 847 1839.0 800.0Q1794 753 1737 719Q1794 685 1839.0 638.0Q1884 591 1915.5 535.5Q1947 480 1964.0 417.0Q1981 354 1981 288Q1981 184 1941.5 92.0Q1902 0 1833.5 -68.0Q1765 -136 1673.5 -175.5Q1582 -215 1478 -215Q1488 -215 1488 -206Q1488 -199 1479 -195Q1448 -184 1419.0 -172.0Q1390 -160 1362 -143Q1305 -109 1259.5 -62.0Q1214 -15 1182.5 40.5Q1151 96 1134.5 159.0Q1118 222 1118 288Q1118 402 1167.0 504.0Q1216 606 1304 678V760Q1216 832 1167.0 934.0Q1118 1036 1118 1150Q1118 1216 1134.5 1279.0Q1151 1342 1182.5 1397.5Q1214 1453 1259.5 1500.0Q1305 1547 1362 1581Q1390 1598 1419.0 1610.0Q1448 1622 1479 1633Q1488 1637 1488 1644Q1488 1653 1478 1653Q1582 1653 1673.5 1613.5Q1765 1574 1833.5 1505.5Q1902 1437 1941.5 1345.5Q1981 1254 1981 1150Z" style="fill:#dadada;stroke:none" transform="scale(1,-1) translate(0,-256)" /></svg>