<?xml version="1.0" encoding="utf-8" ?>
<svg baseProfile="full" height="256" version="1.1" width="256" xmlns="http://www.w3.org/2000/svg" xmlns:ev="http://www.w3.org/2001/xml-events" xmlns:xlink="http://www.w3.org/1999/xlink"><defs /><path d="M1983 1581Q1954 1581 1932.5 1602.5Q1911 1624 1911 1653Q1911 1683 1932.0 1704.0Q1953 1725 1983 1725Q2013 1725 2034.0 1704.0Q2055 1683 2055 1653Q2055 1624 2033.5 1602.5Q2012 1581 1983 1581ZM2414 1510Q2414 1480 2402.5 1453.5Q2391 1427 2371.5 1407.5Q2352 1388 2326.0 1377.0Q2300 1366 2270 1366Q2240 1366 2214.0 1377.5Q2188 1389 2168.5 1408.5Q2149 1428 2138.0 1454.0Q2127 1480 2127 1510Q2127 1540 2138.0 1566.0Q2149 1592 2168.5 1611.5Q2188 1631 2214.0 1642.0Q2240 1653 2270 1653Q2300 1653 2326.0 1642.0Q2352 1631 2371.5 1611.5Q2391 1592 2402.5 1566.0Q2414 1540 2414 1510ZM2127 -179Q2127 -201 2118.5 -220.5Q2110 -240 2095.0 -255.0Q2080 -270 2060.5 -278.5Q2041 -287 2019 -287Q1996 -287 1976.5 -278.5Q1957 -270 1942.5 -255.5Q1928 -241 1919.5 -221.5Q1911 -202 1911 -179Q1911 -157 1919.5 -137.0Q1928 -117 1943.0 -103.0Q1958 -89 1977.5 -80.5Q1997 -72 2019 -72Q2041 -72 2060.5 -80.5Q2080 -89 2095.0 -103.5Q2110 -118 2118.5 -137.5Q2127 -157 2127 -179ZM1824 85Q1824 94 1835 100Q1869 114 1900.0 126.5Q1931 139 1962 158Q2035 203 2092.0 264.5Q2149 326 2188.0 398.5Q2227 471 2247.5 552.5Q2268 634 2268 719Q2268 804 2247.5 885.5Q2227 967 2188.0 1039.5Q2149 1112 2092.0 1173.5Q2035 1235 1962 1280Q1931 1299 1900.0 1311.5Q1869 1324 1835 1338Q1824 1343 1824 1353Q1824 1366 1837 1366Q1926 1366 2009.0 1343.0Q2092 1320 2163.5 1277.5Q2235 1235 2294.0 1176.0Q2353 1117 2395.5 1045.5Q2438 974 2461.0 891.0Q2484 808 2484 719Q2484 630 2461.0 547.0Q2438 464 2395.5 392.5Q2353 321 2294.0 262.0Q2235 203 2163.5 160.5Q2092 118 2009.0 95.0Q1926 72 1837 72Q1824 72 1824 85Z" style="fill:#bebebe;stroke:none" transform="scale(1,-1) translate(0,-256)" /></svg>