<?xml version="1.0" encoding="utf-8" ?>
<svg baseProfile="full" height="256" version="1.1" width="256" xmlns="http://www.w3.org/2000/svg" xmlns:ev="http://www.w3.org/2001/xml-events" xmlns:xlink="http://www.w3.org/1999/xlink"><defs /><path d="M328 719Q328 749 339.5 775.0Q351 801 370.5 820.5Q390 840 416.0 851.5Q442 863 472 863Q513 863 561.0 870.0Q609 877 657.0 892.5Q705 908 749.0 931.0Q793 954 827.5 986.0Q862 1018 882.5 1058.5Q903 1099 903 1150Q903 1254 942.5 1345.5Q982 1437 1050.0 1505.5Q1118 1574 1210.0 1613.5Q1302 1653 1406 1653Q1416 1653 1416 1644Q1416 1637 1407 1633Q1377 1622 1349.0 1611.0Q1321 1600 1294 1584Q1236 1550 1190.5 1503.0Q1145 1456 1113.0 1399.5Q1081 1343 1064.0 1280.0Q1047 1217 1047 1150L1290 719Q1229 610 1168.5 503.0Q1108 396 1047 288Q1047 221 1064.0 158.0Q1081 95 1113.0 38.5Q1145 -18 1190.5 -65.0Q1236 -112 1294 -146Q1321 -162 1349.0 -173.0Q1377 -184 1407 -195Q1416 -199 1416 -206Q1416 -215 1406 -215Q1302 -215 1210.0 -175.5Q1118 -136 1050.0 -68.0Q982 0 942.5 92.0Q903 184 903 288Q903 339 882.5 379.5Q862 420 827.5 452.0Q793 484 748.5 507.0Q704 530 656.0 545.5Q608 561 560.5 568.0Q513 575 472 575Q442 575 416.0 586.5Q390 598 370.5 617.5Q351 637 339.5 663.0Q328 689 328 719Z" style="fill:#ffffff;stroke:none" transform="scale(1,-1) translate(0,-256)" /></svg>