<?xml version="1.0" encoding="utf-8" ?>
<svg baseProfile="full" height="256" version="1.1" width="256" xmlns="http://www.w3.org/2000/svg" xmlns:ev="http://www.w3.org/2001/xml-events" xmlns:xlink="http://www.w3.org/1999/xlink"><defs /><path d="M400 935Q400 1044 428.0 1145.0Q456 1246 507.5 1333.5Q559 1421 631.5 1493.5Q704 1566 791.5 1617.5Q879 1669 980.0 1697.0Q1081 1725 1190 1725Q1299 1725 1400.0 1697.0Q1501 1669 1589.0 1617.5Q1677 1566 1749.0 1493.5Q1821 1421 1872.5 1333.5Q1924 1246 1952.5 1145.0Q1981 1044 1981 935Q1981 814 1945.0 699.0Q1909 584 1840 484Q1868 490 1898 490Q1952 490 2001.5 470.0Q2051 450 2089 412L2317 183Q2355 145 2375.5 95.5Q2396 46 2396 -8Q2396 -64 2374.5 -112.5Q2353 -161 2316.5 -198.0Q2280 -235 2230.5 -256.0Q2181 -277 2126 -277Q2072 -277 2023.0 -256.5Q1974 -236 1936 -198L1707 31Q1669 69 1648.5 118.5Q1628 168 1628 222Q1628 237 1630.0 252.0Q1632 267 1635 281Q1536 213 1422.5 178.5Q1309 144 1190 144Q1081 144 980.0 172.5Q879 201 791.5 252.5Q704 304 631.5 376.0Q559 448 507.5 536.0Q456 624 428.0 725.0Q400 826 400 935ZM1837 935Q1837 1069 1786.0 1186.5Q1735 1304 1647.5 1392.0Q1560 1480 1442.0 1530.5Q1324 1581 1190 1581Q1056 1581 938.0 1530.5Q820 1480 732.5 1392.0Q645 1304 594.0 1186.5Q543 1069 543 935Q543 846 566.0 763.0Q589 680 631.5 608.5Q674 537 733.0 478.0Q792 419 863.5 376.5Q935 334 1018.0 311.0Q1101 288 1190 288Q1279 288 1362.0 311.0Q1445 334 1517.0 376.0Q1589 418 1648.0 477.0Q1707 536 1749.0 608.0Q1791 680 1814.0 762.5Q1837 845 1837 935Z" style="fill:#635994;stroke:none" transform="scale(1,-1) translate(0,-256)" /></svg>