<?xml version="1.0" encoding="utf-8" ?>
<svg baseProfile="full" height="256" version="1.1" width="256" xmlns="http://www.w3.org/2000/svg" xmlns:ev="http://www.w3.org/2001/xml-events" xmlns:xlink="http://www.w3.org/1999/xlink"><defs /><path d="M1599 1226Q1599 1206 1593.0 1187.5Q1587 1169 1576.0 1155.0Q1565 1141 1548.0 1132.5Q1531 1124 1510 1124Q1479 1124 1452.5 1139.5Q1426 1155 1406.0 1179.5Q1386 1204 1374.5 1233.5Q1363 1263 1363 1292Q1363 1312 1368.5 1330.5Q1374 1349 1385.5 1363.5Q1397 1378 1413.5 1386.5Q1430 1395 1452 1395Q1483 1395 1509.5 1379.5Q1536 1364 1556.0 1339.5Q1576 1315 1587.5 1285.0Q1599 1255 1599 1226Z" style="fill:#ffffff;stroke:none" transform="scale(1,-1) translate(0,-256)" /></svg>