<?xml version="1.0" encoding="utf-8" ?>
<svg baseProfile="full" height="256" version="1.1" width="256" xmlns="http://www.w3.org/2000/svg" xmlns:ev="http://www.w3.org/2001/xml-events" xmlns:xlink="http://www.w3.org/1999/xlink"><defs /><path d="M472 935Q472 1084 528.5 1214.5Q585 1345 682.5 1442.5Q780 1540 910.5 1596.5Q1041 1653 1190 1653Q1289 1653 1381.0 1627.5Q1473 1602 1553.0 1555.0Q1633 1508 1698.5 1442.5Q1764 1377 1811.0 1297.5Q1858 1218 1883.5 1126.0Q1909 1034 1909 935Q1909 836 1883.5 744.0Q1858 652 1811.0 572.0Q1764 492 1698.5 426.5Q1633 361 1553.0 314.0Q1473 267 1381.0 241.5Q1289 216 1190 216Q1091 216 999.0 241.5Q907 267 827.5 314.0Q748 361 682.5 426.5Q617 492 570.0 572.0Q523 652 497.5 744.0Q472 836 472 935Z" style="fill:#00a6ed;stroke:none" transform="scale(1,-1) translate(0,-256)" /></svg>