<?xml version="1.0" encoding="utf-8" ?>
<svg baseProfile="full" height="256" version="1.1" width="256" xmlns="http://www.w3.org/2000/svg" xmlns:ev="http://www.w3.org/2001/xml-events" xmlns:xlink="http://www.w3.org/1999/xlink"><defs /><path d="M1406 -295Q1314 -295 1223.0 -285.5Q1132 -276 1042 -255Q988 -243 925.0 -222.5Q862 -202 798.5 -172.5Q735 -143 676.0 -105.0Q617 -67 571.5 -19.5Q526 28 498.5 85.0Q471 142 471 209Q471 274 497.0 329.5Q523 385 566.5 432.0Q610 479 666.5 516.5Q723 554 784.0 583.5Q845 613 906.0 633.5Q967 654 1020 667Q1115 690 1211.5 701.0Q1308 712 1406 712Q1504 712 1600.5 701.0Q1697 690 1792 667Q1844 654 1905.5 633.5Q1967 613 2028.0 583.5Q2089 554 2145.5 516.5Q2202 479 2245.5 432.0Q2289 385 2315.0 329.5Q2341 274 2341 209Q2341 142 2313.5 85.0Q2286 28 2240.5 -19.5Q2195 -67 2136.0 -105.0Q2077 -143 2013.5 -172.5Q1950 -202 1887.0 -222.5Q1824 -243 1770 -255Q1680 -276 1589.0 -285.5Q1498 -295 1406 -295Z" style="fill:#321b41;stroke:none" transform="scale(1,-1) translate(0,-256)" /></svg>