<?xml version="1.0" encoding="utf-8" ?>
<svg baseProfile="full" height="256" version="1.1" width="256" xmlns="http://www.w3.org/2000/svg" xmlns:ev="http://www.w3.org/2001/xml-events" xmlns:xlink="http://www.w3.org/1999/xlink"><defs /><path d="M1406 -292Q1300 -292 1196.5 -280.0Q1093 -268 990 -242Q930 -227 863.0 -202.5Q796 -178 730.5 -144.0Q665 -110 605.0 -67.0Q545 -24 499.5 29.0Q454 82 427.0 145.0Q400 208 400 281Q400 356 428.5 421.0Q457 486 504.5 540.5Q552 595 614.5 639.5Q677 684 745.0 718.5Q813 753 882.5 777.5Q952 802 1014 817Q1111 841 1208.5 852.0Q1306 863 1406 863Q1506 863 1603.5 852.0Q1701 841 1798 817Q1860 802 1929.5 777.5Q1999 753 2067.0 718.5Q2135 684 2197.5 639.5Q2260 595 2307.5 540.5Q2355 486 2383.5 421.0Q2412 356 2412 281Q2412 208 2385.0 145.0Q2358 82 2312.5 29.0Q2267 -24 2207.0 -67.0Q2147 -110 2081.5 -144.0Q2016 -178 1949.0 -202.5Q1882 -227 1822 -242Q1719 -268 1615.5 -280.0Q1512 -292 1406 -292Z" style="fill:#d3d3d3;stroke:none" transform="scale(1,-1) translate(0,-256)" /></svg>