<?xml version="1.0" encoding="utf-8" ?>
<svg baseProfile="full" height="256" version="1.1" width="256" xmlns="http://www.w3.org/2000/svg" xmlns:ev="http://www.w3.org/2001/xml-events" xmlns:xlink="http://www.w3.org/1999/xlink"><defs /><path d="M1269 384Q1269 404 1284.0 419.0Q1299 434 1319 434Q1340 434 1354.0 419.0Q1368 404 1368 384Q1368 404 1383.0 419.0Q1398 434 1418 434Q1439 434 1453.0 419.0Q1467 404 1467 384Q1467 405 1481.5 419.5Q1496 434 1517 434Q1538 434 1552.0 419.0Q1566 404 1566 384V179Q1566 159 1551.5 144.5Q1537 130 1517 130Q1497 130 1482.0 144.0Q1467 158 1467 179Q1467 159 1452.5 144.5Q1438 130 1418 130Q1398 130 1383.0 144.5Q1368 159 1368 179Q1368 159 1353.5 144.5Q1339 130 1319 130Q1299 130 1284.0 144.5Q1269 159 1269 179ZM1371 36Q1371 22 1363.5 9.0Q1356 -4 1343 -11Q1359 -21 1364 -38L1404 -173Q1406 -179 1407.0 -185.5Q1408 -192 1408 -198Q1408 -235 1382.0 -261.0Q1356 -287 1319 -287Q1282 -287 1255.5 -261.5Q1229 -236 1229 -198Q1229 -185 1234.5 -163.5Q1240 -142 1247.5 -118.5Q1255 -95 1262.5 -73.5Q1270 -52 1274 -38Q1277 -29 1281.5 -22.5Q1286 -16 1294 -11Q1281 -4 1273.5 9.0Q1266 22 1266 36Q1266 58 1281.5 73.5Q1297 89 1319 89Q1341 89 1356.0 73.5Q1371 58 1371 36ZM1541 -11Q1554 -4 1561.5 9.0Q1569 22 1569 36Q1569 58 1554.0 73.5Q1539 89 1517 89Q1495 89 1479.5 73.5Q1464 58 1464 36Q1464 22 1471.5 9.0Q1479 -4 1492 -11Q1478 -21 1472 -38L1431 -173Q1429 -179 1428.0 -185.5Q1427 -192 1427 -198Q1427 -236 1453.5 -261.5Q1480 -287 1517 -287Q1554 -287 1580.0 -261.0Q1606 -235 1606 -198Q1606 -192 1605.0 -185.5Q1604 -179 1602 -173L1562 -38Q1557 -21 1541 -11Z" style="fill:#f8312f;stroke:none" transform="scale(1,-1) translate(0,-256)" /></svg>