<?xml version="1.0" encoding="utf-8" ?>
<svg baseProfile="full" height="256" version="1.1" width="256" xmlns="http://www.w3.org/2000/svg" xmlns:ev="http://www.w3.org/2001/xml-events" xmlns:xlink="http://www.w3.org/1999/xlink"><defs /><path d="M2213 1725Q2236 1725 2252.0 1709.0Q2268 1693 2268 1670Q2268 1646 2248 1629Q2223 1609 2198.5 1588.5Q2174 1568 2149 1547Q2132 1533 2115.0 1511.0Q2098 1489 2082.0 1464.0Q2066 1439 2052.5 1414.0Q2039 1389 2029 1370Q2012 1335 2003.0 1300.0Q1994 1265 1994 1227V758Q1994 637 1948.0 530.5Q1902 424 1822.5 344.5Q1743 265 1636.5 219.0Q1530 173 1409 173Q1328 173 1253.5 194.0Q1179 215 1114.0 253.0Q1049 291 995.5 344.5Q942 398 903.5 463.0Q865 528 844.0 602.5Q823 677 823 758Q823 879 869.0 986.0Q915 1093 994.5 1172.5Q1074 1252 1181.0 1298.0Q1288 1344 1409 1344Q1521 1344 1623.5 1303.0Q1726 1262 1807 1187Q1807 1214 1806.0 1236.5Q1805 1259 1801.5 1280.5Q1798 1302 1791.0 1323.5Q1784 1345 1772 1370Q1762 1389 1748.0 1414.5Q1734 1440 1717.5 1465.0Q1701 1490 1683.5 1512.0Q1666 1534 1649 1548Q1625 1568 1600.5 1587.5Q1576 1607 1552 1627Q1543 1635 1537.5 1646.0Q1532 1657 1532 1669Q1532 1692 1548.0 1708.0Q1564 1724 1587 1724ZM1409 360Q1491 360 1563.5 391.5Q1636 423 1690.0 477.0Q1744 531 1775.5 603.5Q1807 676 1807 758Q1807 840 1776.0 913.0Q1745 986 1691.0 1040.0Q1637 1094 1564.5 1125.5Q1492 1157 1409 1157Q1326 1157 1253.5 1125.5Q1181 1094 1127.0 1040.0Q1073 986 1041.5 913.0Q1010 840 1010 758Q1010 675 1041.5 602.5Q1073 530 1127.5 476.0Q1182 422 1254.5 391.0Q1327 360 1409 360Z" style="fill:#fcd53f;stroke:none" transform="scale(1,-1) translate(0,-256)" /></svg>