<?xml version="1.0" encoding="utf-8" ?>
<svg baseProfile="full" height="256" version="1.1" width="256" xmlns="http://www.w3.org/2000/svg" xmlns:ev="http://www.w3.org/2001/xml-events" xmlns:xlink="http://www.w3.org/1999/xlink"><defs /><path d="M1111 1311Q1111 1287 1091 1269Q1068 1249 1046.5 1228.5Q1025 1208 1005 1185Q982 1160 964.0 1131.5Q946 1103 931 1073Q924 1059 916.0 1047.0Q908 1035 897 1024Q868 995 830.0 979.0Q792 963 751 963Q713 963 678.5 976.0Q644 989 616 1014Q588 1040 576.0 1066.0Q564 1092 555 1127L554 1129Q546 1219 531.5 1307.5Q517 1396 506 1486L505 1493Q505 1515 521.0 1530.0Q537 1545 559 1545Q581 1545 593.0 1533.0Q605 1521 610.5 1503.0Q616 1485 618.0 1465.0Q620 1445 622 1429L625 1426Q629 1426 629 1429Q627 1465 623.5 1502.5Q620 1540 620 1576Q620 1596 635.5 1611.5Q651 1627 671 1627Q691 1627 708.5 1613.5Q726 1600 727 1578L730 1449H733Q736 1481 739.0 1512.0Q742 1543 744 1575Q745 1589 745.0 1605.0Q745 1621 748 1634Q753 1653 766.5 1664.5Q780 1676 800 1676Q822 1676 838.0 1661.0Q854 1646 854 1624Q854 1617 853 1614Q850 1594 847.5 1568.5Q845 1543 843.5 1516.5Q842 1490 840.5 1464.0Q839 1438 838 1417L841 1413Q846 1414 847.5 1425.0Q849 1436 850 1441Q851 1449 853.5 1470.0Q856 1491 858.5 1513.0Q861 1535 863.5 1553.5Q866 1572 867 1576Q873 1593 887.0 1603.5Q901 1614 919 1614Q944 1614 957.5 1597.0Q971 1580 971 1557V1549Q966 1505 960.5 1461.5Q955 1418 950 1374Q948 1357 945.5 1339.5Q943 1322 943 1305Q943 1298 950 1298Q955 1298 965.5 1309.0Q976 1320 989.5 1333.5Q1003 1347 1019.5 1358.0Q1036 1369 1053 1369Q1077 1369 1094.0 1352.5Q1111 1336 1111 1311Z" style="fill:#ffc83d;stroke:none" transform="scale(1,-1) translate(0,-256)" /></svg>