<?xml version="1.0" encoding="utf-8" ?>
<svg baseProfile="full" height="256" version="1.1" width="256" xmlns="http://www.w3.org/2000/svg" xmlns:ev="http://www.w3.org/2001/xml-events" xmlns:xlink="http://www.w3.org/1999/xlink"><defs /><path d="M1575 742Q1575 752 1580.5 774.0Q1586 796 1593.5 820.5Q1601 845 1608.5 868.0Q1616 891 1619 903Q1622 914 1630.0 920.5Q1638 927 1649 927Q1660 927 1668.5 920.5Q1677 914 1680 903Q1683 891 1690.5 868.0Q1698 845 1705.5 820.5Q1713 796 1718.5 774.0Q1724 752 1724 742Q1724 724 1712.0 709.5Q1700 695 1681 695H1619Q1600 695 1587.5 709.0Q1575 723 1575 742Z" style="fill:#ed9200;stroke:none" transform="scale(1,-1) translate(0,-256)" /></svg>