<?xml version="1.0" encoding="utf-8" ?>
<svg baseProfile="full" height="256" version="1.1" width="256" xmlns="http://www.w3.org/2000/svg" xmlns:ev="http://www.w3.org/2001/xml-events" xmlns:xlink="http://www.w3.org/1999/xlink"><defs /><path d="M1511 1084Q1511 1075 1504.5 1068.5Q1498 1062 1489 1062Q1463 1062 1440.0 1055.0Q1417 1048 1399.0 1040.0Q1381 1032 1369.5 1025.0Q1358 1018 1356 1018Q1348 1018 1341.5 1024.5Q1335 1031 1335 1040Q1335 1056 1354.5 1068.5Q1374 1081 1399.5 1089.0Q1425 1097 1451.0 1101.0Q1477 1105 1489 1105Q1498 1105 1504.5 1099.0Q1511 1093 1511 1084ZM1766 1084Q1766 1093 1772.5 1099.0Q1779 1105 1788 1105Q1800 1105 1826.0 1101.0Q1852 1097 1878.0 1089.0Q1904 1081 1923.5 1068.5Q1943 1056 1943 1040Q1943 1032 1936.0 1025.0Q1929 1018 1921 1018Q1919 1018 1907.5 1025.0Q1896 1032 1878.0 1040.0Q1860 1048 1837.0 1055.0Q1814 1062 1788 1062Q1779 1062 1772.5 1068.5Q1766 1075 1766 1084Z" style="fill:#d37034;stroke:none" transform="scale(1,-1) translate(0,-256)" /></svg>