<?xml version="1.0" encoding="utf-8" ?>
<svg baseProfile="full" height="256" version="1.1" width="256" xmlns="http://www.w3.org/2000/svg" xmlns:ev="http://www.w3.org/2001/xml-events" xmlns:xlink="http://www.w3.org/1999/xlink"><defs /><path d="M1465 915Q1465 907 1459.0 901.0Q1453 895 1445 895Q1437 895 1431.0 901.0Q1425 907 1425 915Q1425 923 1431.0 929.0Q1437 935 1445 935Q1453 935 1459.0 929.0Q1465 923 1465 915ZM1826 915Q1826 907 1832.0 901.0Q1838 895 1846 895Q1854 895 1860.0 901.0Q1866 907 1866 915Q1866 923 1860.0 929.0Q1854 935 1846 935Q1838 935 1832.0 929.0Q1826 923 1826 915Z" style="fill:#ffffff;stroke:none" transform="scale(1,-1) translate(0,-256)" /></svg>