<?xml version="1.0" encoding="utf-8" ?>
<svg baseProfile="full" height="256" version="1.1" width="256" xmlns="http://www.w3.org/2000/svg" xmlns:ev="http://www.w3.org/2001/xml-events" xmlns:xlink="http://www.w3.org/1999/xlink"><defs /><path d="M1646 574Q1680 574 1705.5 582.0Q1731 590 1761 601Q1762 601 1763.5 601.5Q1765 602 1766 602Q1772 602 1776.0 597.0Q1780 592 1780 587Q1780 582 1777 579Q1752 546 1720.0 526.5Q1688 507 1646 507Q1601 507 1571.5 529.5Q1542 552 1516 585Q1513 588 1513 593Q1513 606 1525 606Q1527 606 1539.0 601.0Q1551 596 1568.5 590.0Q1586 584 1606.5 579.0Q1627 574 1646 574Z" style="fill:#990839;stroke:none" transform="scale(1,-1) translate(0,-256)" /></svg>