<?xml version="1.0" encoding="utf-8" ?>
<svg baseProfile="full" height="256" version="1.1" width="256" xmlns="http://www.w3.org/2000/svg" xmlns:ev="http://www.w3.org/2001/xml-events" xmlns:xlink="http://www.w3.org/1999/xlink"><defs /><path d="M1417 874Q1417 895 1432.0 909.0Q1447 923 1467 923Q1487 923 1502.0 908.5Q1517 894 1517 874Q1517 867 1513 857H1420Q1417 864 1417 874ZM1874 873Q1874 864 1871 855H1778Q1775 864 1775 873Q1775 893 1789.0 908.0Q1803 923 1824 923Q1845 923 1859.5 908.5Q1874 894 1874 873Z" style="fill:#000000;stroke:none" transform="scale(1,-1) translate(0,-256)" /></svg>