<?xml version="1.0" encoding="utf-8" ?>
<svg baseProfile="full" height="256" version="1.1" width="256" xmlns="http://www.w3.org/2000/svg" xmlns:ev="http://www.w3.org/2001/xml-events" xmlns:xlink="http://www.w3.org/1999/xlink"><defs /><path d="M1776 1587Q1830 1587 1874.5 1561.0Q1919 1535 1948 1490Q1966 1462 1985.0 1445.5Q2004 1429 2024.0 1418.0Q2044 1407 2063.5 1399.0Q2083 1391 2102.0 1380.5Q2121 1370 2138.5 1353.5Q2156 1337 2172 1309Q2199 1262 2199 1210Q2199 1176 2190.0 1151.5Q2181 1127 2169.5 1106.0Q2158 1085 2149.0 1065.0Q2140 1045 2140 1019V890V671Q2140 617 2110.5 571.0Q2081 525 2031 503Q1839 503 1649.5 501.0Q1460 499 1268 499Q1216 521 1184.5 567.0Q1153 613 1153 670V1022Q1153 1047 1144.0 1066.5Q1135 1086 1123.5 1106.0Q1112 1126 1103.0 1150.5Q1094 1175 1094 1209Q1094 1275 1130.5 1325.5Q1167 1376 1228 1399Q1303 1427 1347 1493Q1376 1538 1419.0 1562.5Q1462 1587 1516 1587Q1534 1587 1550.0 1583.0Q1566 1579 1581.5 1573.5Q1597 1568 1613.0 1564.0Q1629 1560 1646 1560Q1663 1560 1679.0 1564.0Q1695 1568 1710.5 1573.5Q1726 1579 1742.0 1583.0Q1758 1587 1776 1587Z" style="fill:#f1a11e;stroke:none" transform="scale(1,-1) translate(0,-256)" /></svg>