<?xml version="1.0" encoding="utf-8" ?>
<svg baseProfile="full" height="256" version="1.1" width="256" xmlns="http://www.w3.org/2000/svg" xmlns:ev="http://www.w3.org/2001/xml-events" xmlns:xlink="http://www.w3.org/1999/xlink"><defs /><path d="M1361 855Q1348 855 1337.0 863.0Q1326 871 1326 885Q1326 890 1328 896Q1342 931 1374.5 953.0Q1407 975 1445 975Q1483 975 1515.5 953.0Q1548 931 1562 896Q1564 890 1564 885Q1564 871 1553.0 863.0Q1542 855 1529 855ZM1762 855Q1749 855 1738.0 863.0Q1727 871 1727 885Q1727 890 1729 896Q1743 931 1775.5 953.0Q1808 975 1846 975Q1884 975 1917.0 953.0Q1950 931 1964 896Q1966 890 1966 886Q1966 872 1955.0 863.5Q1944 855 1931 855Z" style="fill:#ffffff;stroke:none" transform="scale(1,-1) translate(0,-256)" /></svg>