<?xml version="1.0" encoding="utf-8" ?>
<svg baseProfile="full" height="256" version="1.1" width="256" xmlns="http://www.w3.org/2000/svg" xmlns:ev="http://www.w3.org/2001/xml-events" xmlns:xlink="http://www.w3.org/1999/xlink"><defs /><path d="M1646 143Q1613 143 1581.0 154.0Q1549 165 1524.0 185.5Q1499 206 1483.5 235.0Q1468 264 1468 300V485Q1468 521 1483.5 550.0Q1499 579 1524.0 599.5Q1549 620 1581.0 631.0Q1613 642 1646 642Q1679 642 1711.5 631.0Q1744 620 1769.0 599.5Q1794 579 1809.5 550.0Q1825 521 1825 485V300Q1825 264 1809.5 235.0Q1794 206 1769.0 185.5Q1744 165 1711.5 154.0Q1679 143 1646 143Z" style="fill:#fcb100;stroke:none" transform="scale(1,-1) translate(0,-256)" /></svg>