<?xml version="1.0" encoding="utf-8" ?>
<svg baseProfile="full" height="256" version="1.1" width="256" xmlns="http://www.w3.org/2000/svg" xmlns:ev="http://www.w3.org/2001/xml-events" xmlns:xlink="http://www.w3.org/1999/xlink"><defs /><path d="M1385 875Q1385 908 1408.5 931.5Q1432 955 1465 955Q1498 955 1521.0 931.5Q1544 908 1544 875Q1544 870 1544.0 866.5Q1544 863 1543 858Q1537 855 1529 855H1388Q1385 865 1385 875ZM1906 875Q1906 870 1905.5 865.0Q1905 860 1904 855H1762Q1755 855 1749 858Q1747 862 1747.0 866.0Q1747 870 1747 875Q1747 908 1770.0 931.5Q1793 955 1826 955Q1859 955 1882.5 931.5Q1906 908 1906 875Z" style="fill:#7d4533;stroke:none" transform="scale(1,-1) translate(0,-256)" /></svg>