<?xml version="1.0" encoding="utf-8" ?>
<svg baseProfile="full" height="256" version="1.1" width="256" xmlns="http://www.w3.org/2000/svg" xmlns:ev="http://www.w3.org/2001/xml-events" xmlns:xlink="http://www.w3.org/1999/xlink"><defs /><path d="M2324 -285H1040V-35Q1040 -4 1011 9L791 107Q765 118 742.0 131.0Q719 144 696 161Q661 188 632.5 224.5Q604 261 583.5 302.5Q563 344 552.0 388.5Q541 433 541 478V855Q541 883 560.0 905.0Q579 927 608 927H902Q931 927 950.0 905.0Q969 883 969 855V571Q969 535 986.0 504.0Q1003 473 1040 464L1325 393Q1346 388 1363.0 382.5Q1380 377 1396.0 372.5Q1412 368 1429.5 364.0Q1447 360 1468 357Q1483 355 1496.0 354.5Q1509 354 1521.0 354.5Q1533 355 1546.0 356.0Q1559 357 1575 357H1789Q1837 357 1886.0 338.5Q1935 320 1976 296Q2054 252 2118.0 189.5Q2182 127 2227.5 51.5Q2273 -24 2298.5 -109.5Q2324 -195 2324 -285Z" style="fill:#ff6723;stroke:none" transform="scale(1,-1) translate(0,-256)" /></svg>