<?xml version="1.0" encoding="utf-8" ?>
<svg baseProfile="full" height="256" version="1.1" width="256" xmlns="http://www.w3.org/2000/svg" xmlns:ev="http://www.w3.org/2001/xml-events" xmlns:xlink="http://www.w3.org/1999/xlink"><defs /><path d="M1397 856Q1397 826 1386.0 800.0Q1375 774 1355.5 754.5Q1336 735 1310.0 724.0Q1284 713 1254 713Q1224 713 1198.5 724.0Q1173 735 1153.5 754.5Q1134 774 1123.0 800.0Q1112 826 1112 856Q1112 886 1123.0 911.5Q1134 937 1153.5 956.5Q1173 976 1198.5 987.0Q1224 998 1254 998Q1284 998 1310.0 987.0Q1336 976 1355.5 956.5Q1375 937 1386.0 911.5Q1397 886 1397 856ZM2181 856Q2181 827 2170.0 801.0Q2159 775 2139.5 755.5Q2120 736 2094.5 724.5Q2069 713 2039 713Q2009 713 1983.0 724.0Q1957 735 1937.5 754.5Q1918 774 1907.0 800.0Q1896 826 1896 856Q1896 886 1907.0 911.5Q1918 937 1937.5 956.5Q1957 976 1983.0 987.0Q2009 998 2039 998Q2068 998 2094.0 987.0Q2120 976 2139.5 956.5Q2159 937 2170.0 911.0Q2181 885 2181 856Z" style="fill:#fdbb11;stroke:none" transform="scale(1,-1) translate(0,-256)" /></svg>