<?xml version="1.0" encoding="utf-8" ?>
<svg baseProfile="full" height="256" version="1.1" width="256" xmlns="http://www.w3.org/2000/svg" xmlns:ev="http://www.w3.org/2001/xml-events" xmlns:xlink="http://www.w3.org/1999/xlink"><defs /><path d="M1139 401 1192 503H1305Q1312 503 1316.5 498.0Q1321 493 1321 486Q1321 451 1305.0 420.0Q1289 389 1263.5 364.5Q1238 340 1205.0 324.5Q1172 309 1139 306ZM1087 407 1010 306Q979 308 951.0 319.5Q923 331 899.5 349.5Q876 368 859.0 393.0Q842 418 833 448Q831 456 831 460Q831 478 844.0 490.5Q857 503 875 503H1061ZM1781 405 1842 503H1923Q1940 503 1953.0 490.5Q1966 478 1966 460Q1966 455 1964 447Q1955 418 1938.0 393.0Q1921 368 1898.0 349.5Q1875 331 1847.0 319.5Q1819 308 1789 306ZM1728 405 1661 306Q1628 308 1595.0 323.5Q1562 339 1536.0 363.0Q1510 387 1494.0 419.0Q1478 451 1478 486Q1478 503 1494 503H1712Z" style="fill:#00d1ed;stroke:none" transform="scale(1,-1) translate(0,-256)" /></svg>