<?xml version="1.0" encoding="utf-8" ?>
<svg baseProfile="full" height="256" version="1.1" width="256" xmlns="http://www.w3.org/2000/svg" xmlns:ev="http://www.w3.org/2001/xml-events" xmlns:xlink="http://www.w3.org/1999/xlink"><defs /><path d="M2252 1102Q2252 1084 2255.5 1067.5Q2259 1051 2265 1034Q2276 1004 2281.5 972.0Q2287 940 2287 908Q2287 872 2279 834L2215 515Q2201 444 2158.0 388.5Q2115 333 2049 301L2067 712V717Q2067 747 2051.0 771.5Q2035 796 2008 808L1598 989Q1547 1012 1506.5 1050.0Q1466 1088 1441 1139Q1435 1151 1430.5 1163.5Q1426 1176 1421 1188Q1416 1199 1406 1199Q1400 1199 1397.0 1196.0Q1394 1193 1392 1188Q1378 1153 1362.0 1123.0Q1346 1093 1325.0 1068.5Q1304 1044 1277.0 1023.5Q1250 1003 1214 987L804 806Q778 794 761.5 769.0Q745 744 745 715V710L762 298Q697 329 653.5 385.5Q610 442 596 512L533 832Q525 870 525 906Q525 938 530.5 970.0Q536 1002 547 1032Q553 1049 556.5 1065.5Q560 1082 560 1099Q560 1112 558.0 1124.5Q556 1137 556 1150Q556 1190 571.0 1225.5Q586 1261 612.0 1288.0Q638 1315 673.0 1330.5Q708 1346 749 1346Q773 1346 781 1369Q805 1432 849.5 1471.0Q894 1510 966 1510Q979 1510 990.5 1507.5Q1002 1505 1015 1505Q1032 1505 1048.5 1517.0Q1065 1529 1086.0 1543.5Q1107 1558 1135.5 1570.0Q1164 1582 1204 1582Q1248 1582 1277.0 1568.5Q1306 1555 1327.0 1538.5Q1348 1522 1366.0 1508.5Q1384 1495 1406 1495Q1428 1495 1446.0 1509.0Q1464 1523 1486.0 1539.5Q1508 1556 1537.0 1570.0Q1566 1584 1610 1584Q1650 1584 1678.5 1572.0Q1707 1560 1728.0 1546.0Q1749 1532 1765.0 1520.0Q1781 1508 1798 1508Q1810 1508 1822.0 1510.0Q1834 1512 1847 1512Q1916 1512 1963.0 1473.5Q2010 1435 2032 1372Q2040 1349 2063 1349Q2103 1349 2138.5 1333.5Q2174 1318 2200.0 1291.0Q2226 1264 2241.0 1228.0Q2256 1192 2256 1152Q2256 1139 2254.0 1127.0Q2252 1115 2252 1102Z" style="fill:#e6e6e6;stroke:none" transform="scale(1,-1) translate(0,-256)" /></svg>