<?xml version="1.0" encoding="utf-8" ?>
<svg baseProfile="full" height="256" version="1.1" width="256" xmlns="http://www.w3.org/2000/svg" xmlns:ev="http://www.w3.org/2001/xml-events" xmlns:xlink="http://www.w3.org/1999/xlink"><defs /><path d="M759 288Q714 288 675.0 305.0Q636 322 606.5 351.0Q577 380 560.0 419.0Q543 458 543 503Q543 548 560.0 587.0Q577 626 606.5 655.5Q636 685 675.0 702.0Q714 719 759 719Q804 719 843.0 702.0Q882 685 911.5 655.5Q941 626 958.0 587.0Q975 548 975 503Q975 458 958.0 419.0Q941 380 911.5 351.0Q882 322 843.0 305.0Q804 288 759 288ZM2053 288Q2008 288 1969.0 305.0Q1930 322 1900.5 351.0Q1871 380 1854.0 419.0Q1837 458 1837 503Q1837 548 1854.0 587.0Q1871 626 1900.5 655.5Q1930 685 1969.0 702.0Q2008 719 2053 719Q2098 719 2137.0 702.0Q2176 685 2205.0 655.5Q2234 626 2251.0 587.0Q2268 548 2268 503Q2268 458 2251.0 419.0Q2234 380 2205.0 351.0Q2176 322 2137.0 305.0Q2098 288 2053 288Z" style="fill:#fdbb11;stroke:none" transform="scale(1,-1) translate(0,-256)" /></svg>