<?xml version="1.0" encoding="utf-8" ?>
<svg baseProfile="full" height="256" version="1.1" width="256" xmlns="http://www.w3.org/2000/svg" xmlns:ev="http://www.w3.org/2001/xml-events" xmlns:xlink="http://www.w3.org/1999/xlink"><defs /><path d="M1016 517Q1016 542 1025.5 563.5Q1035 585 1051.5 601.0Q1068 617 1089.5 626.5Q1111 636 1136 636Q1160 636 1181.5 626.5Q1203 617 1219.0 601.0Q1235 585 1244.5 563.0Q1254 541 1254 517Q1254 498 1250 485H1021Q1016 502 1016 517ZM1851 517Q1851 542 1841.5 563.5Q1832 585 1816.0 601.0Q1800 617 1778.5 626.5Q1757 636 1732 636Q1707 636 1685.5 626.5Q1664 617 1647.5 601.0Q1631 585 1621.5 563.5Q1612 542 1612 517Q1612 502 1617 485H1847Q1849 493 1850.0 501.0Q1851 509 1851 517Z" style="fill:#7d4533;stroke:none" transform="scale(1,-1) translate(0,-256)" /></svg>