<?xml version="1.0" encoding="utf-8" ?>
<svg baseProfile="full" height="256" version="1.1" width="256" xmlns="http://www.w3.org/2000/svg" xmlns:ev="http://www.w3.org/2001/xml-events" xmlns:xlink="http://www.w3.org/1999/xlink"><defs /><path d="M1116 564Q1116 555 1110.0 548.5Q1104 542 1095 542Q1086 542 1079.5 548.5Q1073 555 1073 564Q1073 573 1079.5 579.0Q1086 585 1095 585Q1104 585 1110.0 579.0Q1116 573 1116 564ZM1713 564Q1713 555 1706.5 548.5Q1700 542 1691 542Q1682 542 1676.0 548.5Q1670 555 1670 564Q1670 573 1676.0 579.0Q1682 585 1691 585Q1700 585 1706.5 579.0Q1713 573 1713 564Z" style="fill:#ffffff;stroke:none" transform="scale(1,-1) translate(0,-256)" /></svg>