<?xml version="1.0" encoding="utf-8" ?>
<svg baseProfile="full" height="256" version="1.1" width="256" xmlns="http://www.w3.org/2000/svg" xmlns:ev="http://www.w3.org/2001/xml-events" xmlns:xlink="http://www.w3.org/1999/xlink"><defs /><path d="M1085 684Q1113 684 1138.0 675.0Q1163 666 1185.5 651.0Q1208 636 1226.5 616.0Q1245 596 1259 574Q1192 555 1125.5 535.5Q1059 516 993 493Q982 502 968.0 513.5Q954 525 941.0 537.5Q928 550 919.0 564.0Q910 578 910 593Q910 618 930.0 635.0Q950 652 978.0 663.0Q1006 674 1036.0 679.0Q1066 684 1085 684ZM1783 684Q1727 684 1682.0 651.5Q1637 619 1608 574Q1675 555 1742.0 535.5Q1809 516 1875 493Q1885 502 1899.0 513.0Q1913 524 1926.0 537.0Q1939 550 1948.0 563.5Q1957 577 1957 592Q1957 617 1937.0 634.5Q1917 652 1889.0 663.0Q1861 674 1831.5 679.0Q1802 684 1783 684Z" style="fill:#000000;stroke:none" transform="scale(1,-1) translate(0,-256)" /></svg>