<?xml version="1.0" encoding="utf-8" ?>
<svg baseProfile="full" height="256" version="1.1" width="256" xmlns="http://www.w3.org/2000/svg" xmlns:ev="http://www.w3.org/2001/xml-events" xmlns:xlink="http://www.w3.org/1999/xlink"><defs /><path d="M1280 467Q1281 491 1292.0 511.0Q1303 531 1320.5 545.5Q1338 560 1360.5 567.5Q1383 575 1406 575Q1429 575 1451.5 567.5Q1474 560 1491.5 545.5Q1509 531 1520.0 511.0Q1531 491 1532 467H1493Q1492 483 1484.0 496.5Q1476 510 1464.0 520.0Q1452 530 1437.0 535.0Q1422 540 1406 540Q1390 540 1375.0 535.0Q1360 530 1348.0 520.0Q1336 510 1328.0 496.5Q1320 483 1319 467ZM2078 449H1909V503H2078Q2088 503 2096.5 496.0Q2105 489 2105 478Q2105 466 2097.5 457.5Q2090 449 2078 449ZM903 449H750Q737 449 730.0 457.5Q723 466 723 478Q723 489 731.5 496.0Q740 503 750 503H903Z" style="fill:#f4f4f4;stroke:none" transform="scale(1,-1) translate(0,-256)" /></svg>