<?xml version="1.0" encoding="utf-8" ?>
<svg baseProfile="full" height="256" version="1.1" width="256" xmlns="http://www.w3.org/2000/svg" xmlns:ev="http://www.w3.org/2001/xml-events" xmlns:xlink="http://www.w3.org/1999/xlink"><defs /><path d="M1135 585Q1163 585 1183.0 565.0Q1203 545 1203 517Q1203 501 1195 485H1075Q1067 501 1067 517Q1067 545 1087.0 565.0Q1107 585 1135 585ZM1732 585Q1703 585 1683.0 565.5Q1663 546 1663 517Q1663 501 1671 485H1792Q1800 501 1800 517Q1800 545 1780.0 565.0Q1760 585 1732 585Z" style="fill:#000000;stroke:none" transform="scale(1,-1) translate(0,-256)" /></svg>