<?xml version="1.0" encoding="utf-8" ?>
<svg baseProfile="full" height="256" version="1.1" width="256" xmlns="http://www.w3.org/2000/svg" xmlns:ev="http://www.w3.org/2001/xml-events" xmlns:xlink="http://www.w3.org/1999/xlink"><defs /><path d="M1907 767Q1907 752 1896.0 741.0Q1885 730 1870 730Q1859 730 1847.5 739.0Q1836 748 1818.5 759.0Q1801 770 1775.5 779.0Q1750 788 1711 788Q1694 788 1678.0 786.0Q1662 784 1645 784Q1630 784 1618.5 794.5Q1607 805 1607 821Q1607 838 1618.5 847.0Q1630 856 1646.5 859.5Q1663 863 1680.5 863.0Q1698 863 1710 863Q1766 863 1809.0 848.0Q1852 833 1894 795Q1907 782 1907 767ZM903 768Q903 752 913.5 741.0Q924 730 939 730Q944 730 954.5 734.5Q965 739 976.0 745.0Q987 751 998.0 757.0Q1009 763 1016 766Q1042 776 1068.5 781.5Q1095 787 1123 787Q1134 787 1144.0 785.5Q1154 784 1164 784Q1180 784 1191.5 794.0Q1203 804 1203 821Q1203 836 1195.0 844.5Q1187 853 1175.0 856.5Q1163 860 1149.5 860.5Q1136 861 1125 861Q1055 861 989 835Q979 831 964.0 824.5Q949 818 935.5 809.5Q922 801 912.5 790.5Q903 780 903 768Z" style="fill:#9b9b9b;stroke:none" transform="scale(1,-1) translate(0,-256)" /></svg>