<?xml version="1.0" encoding="utf-8" ?>
<svg baseProfile="full" height="256" version="1.1" width="256" xmlns="http://www.w3.org/2000/svg" xmlns:ev="http://www.w3.org/2001/xml-events" xmlns:xlink="http://www.w3.org/1999/xlink"><defs /><path d="M1232 1294H1580Q1682 1294 1774.5 1256.5Q1867 1219 1936.5 1153.0Q2006 1087 2047.0 997.0Q2088 907 2088 803V782Q2083 671 2079.0 561.0Q2075 451 2070 340Q2064 202 2011.0 87.0Q1958 -28 1869.0 -111.5Q1780 -195 1661.5 -241.0Q1543 -287 1406 -287Q1269 -287 1150.5 -241.0Q1032 -195 943.0 -111.5Q854 -28 801.0 87.0Q748 202 742 340L724 781V802Q724 906 765.0 996.0Q806 1086 875.5 1152.0Q945 1218 1037.5 1255.5Q1130 1293 1232 1293Z" style="fill:#ffc83d;stroke:none" transform="scale(1,-1) translate(0,-256)" /></svg>