<?xml version="1.0" encoding="utf-8" ?>
<svg baseProfile="full" height="256" version="1.1" width="256" xmlns="http://www.w3.org/2000/svg" xmlns:ev="http://www.w3.org/2001/xml-events" xmlns:xlink="http://www.w3.org/1999/xlink"><defs /><path d="M1190 -268Q1190 -276 1185.0 -281.5Q1180 -287 1172 -287H1132Q1126 -287 1121.0 -283.0Q1116 -279 1114 -273L1016 62Q995 134 985.0 209.5Q975 285 975 360V504H1190ZM1550 360V432H2053V137Q2053 105 2042.5 76.0Q2032 47 2012 22L1780 -269Q1766 -287 1742 -287H1655Q1648 -287 1643.0 -282.5Q1638 -278 1638 -270Q1638 -267 1649.0 -251.0Q1660 -235 1677.0 -212.0Q1694 -189 1714.0 -162.5Q1734 -136 1752.5 -112.0Q1771 -88 1785.0 -70.0Q1799 -52 1803 -46Q1820 -24 1828.5 3.5Q1837 31 1837 58Q1837 99 1818.5 135.0Q1800 171 1768 196Z" style="fill:#9b9b9b;stroke:none" transform="scale(1,-1) translate(0,-256)" /></svg>