<?xml version="1.0" encoding="utf-8" ?>
<svg baseProfile="full" height="256" version="1.1" width="256" xmlns="http://www.w3.org/2000/svg" xmlns:ev="http://www.w3.org/2001/xml-events" xmlns:xlink="http://www.w3.org/1999/xlink"><defs /><path d="M1190 1007H2053Q2128 1007 2193.0 978.5Q2258 950 2307.0 901.0Q2356 852 2384.0 786.5Q2412 721 2412 647V137Q2412 73 2372 22L2139 -269Q2130 -280 2114.5 -284.0Q2099 -288 2081.0 -289.0Q2063 -290 2045.0 -288.5Q2027 -287 2014 -287Q1998 -287 1998 -271Q1998 -268 2009.0 -252.0Q2020 -236 2037.0 -212.5Q2054 -189 2074.0 -162.5Q2094 -136 2112.5 -112.0Q2131 -88 2145.0 -70.0Q2159 -52 2163 -46Q2180 -23 2189.0 3.5Q2198 30 2198 58Q2198 99 2179.5 135.0Q2161 171 2129 196L1948 332Q1930 346 1908.0 353.0Q1886 360 1863 360H1335V-268Q1335 -278 1328.0 -282.0Q1321 -286 1311.5 -287.0Q1302 -288 1292.0 -287.5Q1282 -287 1276 -287Q1262 -287 1259 -273L1161 62Q1140 135 1129.0 209.5Q1118 284 1118 360Q1044 360 978.5 388.0Q913 416 864.0 465.0Q815 514 787.0 579.5Q759 645 759 719V1296L562 1216L472 1258L457 1357Q514 1420 572.5 1480.5Q631 1541 687 1605V1703Q687 1713 694.0 1719.0Q701 1725 710 1725Q715 1725 732.5 1714.5Q750 1704 769.5 1690.5Q789 1677 807.0 1664.0Q825 1651 832 1647Q910 1634 975.5 1595.5Q1041 1557 1088.5 1500.0Q1136 1443 1163.0 1372.0Q1190 1301 1190 1222Z" style="fill:#d3d3d3;stroke:none" transform="scale(1,-1) translate(0,-256)" /></svg>