<?xml version="1.0" encoding="utf-8" ?>
<svg baseProfile="full" height="256" version="1.1" width="256" xmlns="http://www.w3.org/2000/svg" xmlns:ev="http://www.w3.org/2001/xml-events" xmlns:xlink="http://www.w3.org/1999/xlink"><defs /><path d="M839 1706Q883 1706 927.5 1695.5Q972 1685 1014.5 1666.5Q1057 1648 1095.5 1623.0Q1134 1598 1167 1569Q1248 1497 1291.5 1399.0Q1335 1301 1335 1194V978H942Q950 1029 956.0 1078.5Q962 1128 967 1179Q969 1202 972.5 1224.0Q976 1246 976 1269Q976 1286 968.5 1302.5Q961 1319 949.0 1332.5Q937 1346 921.0 1354.5Q905 1363 887 1363Q870 1363 854.5 1357.5Q839 1352 826 1341L797 1369L768 1365L572 1554Q561 1565 561 1580Q561 1596 574 1609Q599 1632 631.0 1650.0Q663 1668 698.0 1680.5Q733 1693 769.5 1699.5Q806 1706 839 1706ZM2253 1008Q2253 1045 2238.5 1083.5Q2224 1122 2202.5 1159.5Q2181 1197 2155.5 1231.0Q2130 1265 2109 1292Q2089 1318 2078.5 1346.5Q2068 1375 2068 1407Q2068 1435 2076.0 1461.0Q2084 1487 2098 1510Q2122 1489 2161.5 1453.0Q2201 1417 2242.0 1378.0Q2283 1339 2317.5 1302.5Q2352 1266 2367 1242Q2387 1210 2397.5 1172.0Q2408 1134 2408 1096Q2408 1036 2383.5 984.5Q2359 933 2318 890L2250 935Q2250 953 2251.5 971.0Q2253 989 2253 1008Z" style="fill:#636363;stroke:none" transform="scale(1,-1) translate(0,-256)" /></svg>