<?xml version="1.0" encoding="utf-8" ?>
<svg baseProfile="full" height="256" version="1.1" width="256" xmlns="http://www.w3.org/2000/svg" xmlns:ev="http://www.w3.org/2001/xml-events" xmlns:xlink="http://www.w3.org/1999/xlink"><defs /><path d="M1397 202Q1457 202 1507.5 215.0Q1558 228 1612 254Q1616 257 1623 257Q1633 257 1639.5 249.5Q1646 242 1646 232Q1646 226 1643 220Q1624 189 1597.0 164.0Q1570 139 1537.5 122.0Q1505 105 1469.0 95.5Q1433 86 1397 86Q1361 86 1325.0 95.0Q1289 104 1256.5 121.5Q1224 139 1197.0 163.5Q1170 188 1151 220Q1147 228 1147 233Q1147 243 1154.0 250.0Q1161 257 1171 257Q1177 257 1182 254Q1235 228 1286.5 215.0Q1338 202 1397 202Z" style="fill:#990839;stroke:none" transform="scale(1,-1) translate(0,-256)" /></svg>