<?xml version="1.0" encoding="utf-8" ?>
<svg baseProfile="full" height="256" version="1.1" width="256" xmlns="http://www.w3.org/2000/svg" xmlns:ev="http://www.w3.org/2001/xml-events" xmlns:xlink="http://www.w3.org/1999/xlink"><defs /><path d="M2119 819 2110 570Q2143 570 2158.5 589.5Q2174 609 2180.0 637.0Q2186 665 2185.5 695.5Q2185 726 2186 747Q2187 761 2187.5 773.5Q2188 786 2188 800Q2251 772 2288.0 714.5Q2325 657 2325 588Q2325 540 2306.5 498.0Q2288 456 2256.5 424.5Q2225 393 2183.0 375.0Q2141 357 2093 357Q2045 357 2003.0 375.0Q1961 393 1929.5 424.5Q1898 456 1880.0 498.0Q1862 540 1862 588Q1862 636 1880.0 678.0Q1898 720 1929.5 751.5Q1961 783 2003.0 801.5Q2045 820 2093 820Q2100 820 2106.0 820.0Q2112 820 2119 819ZM614 803Q613 762 613.0 722.5Q613 683 613 642Q613 613 634.5 592.0Q656 571 684 571V820H702Q750 820 792.0 801.5Q834 783 865.5 751.5Q897 720 915.0 678.0Q933 636 933 588Q933 540 915.0 498.0Q897 456 865.5 424.5Q834 393 792.0 375.0Q750 357 702 357Q654 357 611.5 375.0Q569 393 537.5 424.5Q506 456 488.0 498.0Q470 540 470 588Q470 659 509.0 717.5Q548 776 614 803Z" style="fill:#fdbb11;stroke:none" transform="scale(1,-1) translate(0,-256)" /></svg>