<?xml version="1.0" encoding="utf-8" ?>
<svg baseProfile="full" height="256" version="1.1" width="256" xmlns="http://www.w3.org/2000/svg" xmlns:ev="http://www.w3.org/2001/xml-events" xmlns:xlink="http://www.w3.org/1999/xlink"><defs /><path d="M1056 834Q998 834 941 816Q933 814 929 814Q915 814 904.0 824.0Q893 834 893 848Q893 868 913.5 879.5Q934 891 961.0 897.0Q988 903 1015.0 904.5Q1042 906 1056 906Q1067 906 1081.5 906.0Q1096 906 1109.5 903.0Q1123 900 1132.0 892.0Q1141 884 1141 868Q1141 854 1130.5 843.0Q1120 832 1106 832Q1093 832 1081.0 833.0Q1069 834 1056 834ZM1699 906Q1712 906 1739.0 904.5Q1766 903 1793.0 897.0Q1820 891 1840.5 879.5Q1861 868 1861 849Q1861 835 1850.5 824.5Q1840 814 1825 814Q1821 814 1813 816Q1756 834 1698 834Q1686 834 1673.5 833.0Q1661 832 1649 832Q1635 832 1624.5 843.0Q1614 854 1614 868Q1614 884 1623.0 892.0Q1632 900 1645.5 903.0Q1659 906 1673.5 906.0Q1688 906 1699 906Z" style="fill:#d37034;stroke:none" transform="scale(1,-1) translate(0,-256)" /></svg>