<?xml version="1.0" encoding="utf-8" ?>
<svg baseProfile="full" height="256" version="1.1" width="256" xmlns="http://www.w3.org/2000/svg" xmlns:ev="http://www.w3.org/2001/xml-events" xmlns:xlink="http://www.w3.org/1999/xlink"><defs /><path d="M1055 747Q1095 747 1130.5 733.5Q1166 720 1194.5 696.5Q1223 673 1243.0 640.5Q1263 608 1271 569Q1272 567 1272 562Q1272 547 1260.5 536.5Q1249 526 1235 526H883Q865 526 852.0 538.5Q839 551 839 569Q839 577 840 580Q849 617 869.5 647.5Q890 678 918.5 700.0Q947 722 982.0 734.5Q1017 747 1055 747ZM1741 747Q1701 747 1665.0 734.0Q1629 721 1600.5 697.0Q1572 673 1552.0 640.5Q1532 608 1524 569Q1523 567 1523 562Q1523 547 1534.5 536.5Q1546 526 1560 526H1912Q1930 526 1943.0 538.5Q1956 551 1956 569Q1956 577 1955 580Q1946 616 1925.5 647.0Q1905 678 1876.5 700.0Q1848 722 1813.5 734.5Q1779 747 1741 747Z" style="fill:#ffffff;stroke:none" transform="scale(1,-1) translate(0,-256)" /></svg>