<?xml version="1.0" encoding="utf-8" ?>
<svg baseProfile="full" height="256" version="1.1" width="256" xmlns="http://www.w3.org/2000/svg" xmlns:ev="http://www.w3.org/2001/xml-events" xmlns:xlink="http://www.w3.org/1999/xlink"><defs /><path d="M759 1581V1725Q789 1725 815.0 1713.5Q841 1702 860.5 1682.5Q880 1663 891.5 1637.0Q903 1611 903 1581V1528Q938 1497 958.5 1454.0Q979 1411 979 1363Q979 1322 964.0 1284.0Q949 1246 922 1216H923Q848 1156 776.5 1093.5Q705 1031 632 969L428 1172L565 1458Q578 1486 598.5 1508.5Q619 1531 644.5 1547.0Q670 1563 699.0 1572.0Q728 1581 759 1581Z" style="fill:#ffce7c;stroke:none" transform="scale(1,-1) translate(0,-256)" /></svg>