<?xml version="1.0" encoding="utf-8" ?>
<svg baseProfile="full" height="256" version="1.1" width="256" xmlns="http://www.w3.org/2000/svg" xmlns:ev="http://www.w3.org/2001/xml-events" xmlns:xlink="http://www.w3.org/1999/xlink"><defs /><path d="M1118 1078H1715Q1800 1078 1874.5 1046.0Q1949 1014 2004.5 958.5Q2060 903 2092.5 828.5Q2125 754 2125 669V431H2122H2124V358Q2150 355 2172.5 342.5Q2195 330 2211.5 311.0Q2228 292 2237.5 268.0Q2247 244 2247 218Q2247 188 2235 161L2093 -158Q2082 -184 2057.0 -200.0Q2032 -216 2003 -216Q1982 -216 1964.0 -208.5Q1946 -201 1933.0 -187.5Q1920 -174 1912.5 -156.0Q1905 -138 1905 -117Q1905 -101 1918.5 -65.0Q1932 -29 1950.0 11.0Q1968 51 1985.5 88.0Q2003 125 2011 143H1885Q1845 143 1810.0 158.0Q1775 173 1749.0 199.5Q1723 226 1708.0 261.0Q1693 296 1693 336V431H639Q647 413 664.5 376.0Q682 339 700.0 299.0Q718 259 731.5 223.0Q745 187 745 171Q745 129 716.5 100.5Q688 72 646 72Q617 72 592.5 88.0Q568 104 557 130L416 449Q404 476 404 506Q404 535 415.0 560.5Q426 586 444.5 605.0Q463 624 488.5 635.0Q514 646 543 646H736Q687 738 687 840V1439L962 1448Z" style="fill:#f3ad61;stroke:none" transform="scale(1,-1) translate(0,-256)" /></svg>