<?xml version="1.0" encoding="utf-8" ?>
<svg baseProfile="full" height="256" version="1.1" width="256" xmlns="http://www.w3.org/2000/svg" xmlns:ev="http://www.w3.org/2001/xml-events" xmlns:xlink="http://www.w3.org/1999/xlink"><defs /><path d="M683 1078Q683 1062 677.5 1048.0Q672 1034 664.0 1020.5Q656 1007 647.0 994.5Q638 982 631 969Q593 937 541 937Q512 937 486.0 948.0Q460 959 441.0 978.0Q422 997 411.0 1023.0Q400 1049 400 1078Q400 1093 402.5 1105.0Q405 1117 408.5 1127.5Q412 1138 417.0 1148.5Q422 1159 428 1172Q440 1174 454.0 1182.0Q468 1190 482.5 1198.5Q497 1207 512.0 1213.5Q527 1220 541 1220Q570 1220 596.0 1209.0Q622 1198 641.5 1178.5Q661 1159 672.0 1133.0Q683 1107 683 1078Z" style="fill:#d3883e;stroke:none" transform="scale(1,-1) translate(0,-256)" /></svg>