<?xml version="1.0" encoding="utf-8" ?>
<svg baseProfile="full" height="256" version="1.1" width="256" xmlns="http://www.w3.org/2000/svg" xmlns:ev="http://www.w3.org/2001/xml-events" xmlns:xlink="http://www.w3.org/1999/xlink"><defs /><path d="M975 431 1083 503 1190 431 929 -158Q918 -184 893.0 -200.0Q868 -216 839 -216Q819 -216 801.0 -208.0Q783 -200 769.5 -186.5Q756 -173 748.0 -155.0Q740 -137 740 -117Q740 -97 749 -77ZM1981 143H1944L1811 -158Q1800 -184 1775.0 -200.0Q1750 -216 1721 -216Q1679 -216 1651.0 -188.0Q1623 -160 1623 -118Q1623 -96 1632 -75L1729 144Q1691 147 1658.5 163.0Q1626 179 1602.0 205.0Q1578 231 1564.0 264.5Q1550 298 1550 336V431L1765 503L1981 431Z" style="fill:#d3883e;stroke:none" transform="scale(1,-1) translate(0,-256)" /></svg>