<?xml version="1.0" encoding="utf-8" ?>
<svg baseProfile="full" height="256" version="1.1" width="256" xmlns="http://www.w3.org/2000/svg" xmlns:ev="http://www.w3.org/2001/xml-events" xmlns:xlink="http://www.w3.org/1999/xlink"><defs /><path d="M972 1406Q982 1406 988 1400L1159 1229Q1166 1222 1166 1212Q1166 1201 1155.5 1193.5Q1145 1186 1130.5 1181.0Q1116 1176 1101.0 1173.5Q1086 1171 1077 1171Q1047 1171 1020.0 1182.5Q993 1194 973.0 1213.5Q953 1233 941.0 1259.5Q929 1286 929 1316Q929 1325 931.5 1340.0Q934 1355 939.0 1369.5Q944 1384 952.5 1395.0Q961 1406 972 1406Z" style="fill:#f3ad61;stroke:none" transform="scale(1,-1) translate(0,-256)" /></svg>