<?xml version="1.0" encoding="utf-8" ?>
<svg baseProfile="full" height="256" version="1.1" width="256" xmlns="http://www.w3.org/2000/svg" xmlns:ev="http://www.w3.org/2001/xml-events" xmlns:xlink="http://www.w3.org/1999/xlink"><defs /><path d="M1695 332 1928 330V-16Q1928 -36 1924.0 -55.5Q1920 -75 1904 -89L1718 -259Q1705 -271 1692.0 -279.5Q1679 -288 1660 -288H1579Q1569 -288 1562.0 -281.0Q1555 -274 1555 -264Q1555 -260 1563.5 -246.0Q1572 -232 1585.5 -212.5Q1599 -193 1615.0 -170.5Q1631 -148 1645.5 -128.0Q1660 -108 1671.5 -92.5Q1683 -77 1687 -71Q1691 -66 1693.0 -55.5Q1695 -45 1695 -39ZM1135 -287Q1124 -287 1117.5 -280.5Q1111 -274 1111 -263V255H1335V112Q1335 68 1318.5 29.5Q1302 -9 1272 -41Q1264 -49 1263.0 -56.5Q1262 -64 1262 -75V-263Q1262 -274 1252.5 -280.5Q1243 -287 1233 -287Z" style="fill:#d3883e;stroke:none" transform="scale(1,-1) translate(0,-256)" /></svg>