<?xml version="1.0" encoding="utf-8" ?>
<svg baseProfile="full" height="256" version="1.1" width="256" xmlns="http://www.w3.org/2000/svg" xmlns:ev="http://www.w3.org/2001/xml-events" xmlns:xlink="http://www.w3.org/1999/xlink"><defs /><path d="M903 1438Q878 1411 864.5 1376.0Q851 1341 851 1304V1119Q851 1096 842.0 1075.5Q833 1055 817.5 1039.5Q802 1024 781.0 1015.0Q760 1006 737 1006H528Q501 1006 478.0 1016.0Q455 1026 437.5 1043.5Q420 1061 410.0 1084.0Q400 1107 400 1134Q400 1169 425 1194L656 1424Q670 1438 689 1438H903Z" style="fill:#f3ad61;stroke:none" transform="scale(1,-1) translate(0,-256)" /></svg>