<?xml version="1.0" encoding="utf-8" ?>
<svg baseProfile="full" height="256" version="1.1" width="256" xmlns="http://www.w3.org/2000/svg" xmlns:ev="http://www.w3.org/2001/xml-events" xmlns:xlink="http://www.w3.org/1999/xlink"><defs /><path d="M1071 -287Q1060 -287 1053.5 -280.5Q1047 -274 1047 -263V255H1271V112Q1271 71 1258.5 41.0Q1246 11 1230.5 -11.5Q1215 -34 1202.5 -49.0Q1190 -64 1190 -75V-263Q1190 -273 1185.0 -280.0Q1180 -287 1169 -287ZM2042 99 2197 252 2412 99V-264Q2412 -274 2405.0 -281.0Q2398 -288 2388 -288H2291Q2280 -288 2274.0 -281.0Q2268 -274 2268 -264V-81Q2268 -70 2262.0 -59.0Q2256 -48 2246 -41Z" style="fill:#f3ad61;stroke:none" transform="scale(1,-1) translate(0,-256)" /></svg>