<?xml version="1.0" encoding="utf-8" ?>
<svg baseProfile="full" height="256" version="1.1" width="256" xmlns="http://www.w3.org/2000/svg" xmlns:ev="http://www.w3.org/2001/xml-events" xmlns:xlink="http://www.w3.org/1999/xlink"><defs /><path d="M1215 1725Q1279 1725 1336.0 1700.5Q1393 1676 1435.0 1634.0Q1477 1592 1501.5 1535.0Q1526 1478 1526 1414Q1526 1409 1526.0 1403.0Q1526 1397 1525 1392Q1588 1409 1649.5 1423.0Q1711 1437 1777 1437Q1865 1437 1946.5 1413.0Q2028 1389 2099.0 1345.5Q2170 1302 2227.5 1241.5Q2285 1181 2326.0 1108.5Q2367 1036 2389.5 953.5Q2412 871 2412 784V439Q2412 399 2407.0 359.0Q2402 319 2385.5 286.5Q2369 254 2339.0 234.0Q2309 214 2259 214H1853Q1778 214 1728.5 251.0Q1679 288 1656 359Q1599 359 1554.0 358.0Q1509 357 1469.5 358.0Q1430 359 1394.0 362.5Q1358 366 1321.0 374.5Q1284 383 1243.0 398.5Q1202 414 1153 438L1133 360L1011 324L899 360L957 585Q873 675 829 791H554Q522 791 494.0 803.0Q466 815 445.0 836.0Q424 857 412.0 885.0Q400 913 400 945Q400 983 417.0 1015.5Q434 1048 465 1070L905 1379Q904 1388 903.5 1396.5Q903 1405 903 1414Q903 1478 927.5 1535.0Q952 1592 994.5 1634.0Q1037 1676 1093.5 1700.5Q1150 1725 1215 1725Z" style="fill:#636363;stroke:none" transform="scale(1,-1) translate(0,-256)" /></svg>