<?xml version="1.0" encoding="utf-8" ?>
<svg baseProfile="full" height="256" version="1.1" width="256" xmlns="http://www.w3.org/2000/svg" xmlns:ev="http://www.w3.org/2001/xml-events" xmlns:xlink="http://www.w3.org/1999/xlink"><defs /><path d="M1448 1414Q1448 1366 1429.5 1323.0Q1411 1280 1379.5 1248.5Q1348 1217 1305.0 1198.5Q1262 1180 1214 1180Q1166 1180 1123.0 1198.5Q1080 1217 1048.5 1248.5Q1017 1280 998.5 1323.0Q980 1366 980 1414Q980 1462 998.5 1505.0Q1017 1548 1048.5 1579.5Q1080 1611 1123.0 1629.5Q1166 1648 1214 1648Q1262 1648 1305.0 1629.5Q1348 1611 1379.5 1579.5Q1411 1548 1429.5 1505.0Q1448 1462 1448 1414ZM2199 215Q2244 217 2282.5 235.5Q2321 254 2350.0 284.5Q2379 315 2395.5 354.5Q2412 394 2412 439V385Q2412 305 2381.5 235.0Q2351 165 2298.5 112.5Q2246 60 2176.0 29.5Q2106 -1 2026 -1H1621Q1591 -1 1570.5 -21.5Q1550 -42 1550 -72Q1550 -101 1571.0 -122.0Q1592 -143 1621 -143L1910 -144Q1939 -144 1960.5 -165.0Q1982 -186 1982 -215Q1982 -245 1960.5 -266.0Q1939 -287 1909 -287H1620Q1576 -287 1537.0 -270.0Q1498 -253 1469.0 -224.0Q1440 -195 1423.0 -155.5Q1406 -116 1406 -72Q1406 -27 1423.0 12.0Q1440 51 1469.0 80.0Q1498 109 1537.0 126.0Q1576 143 1621 143H2026Q2075 143 2119.5 161.5Q2164 180 2199 215ZM1674 360Q1709 300 1767.5 261.5Q1826 223 1896 216H1486Q1455 216 1430.5 236.0Q1406 256 1406 288Q1406 320 1430.5 340.0Q1455 360 1486 360ZM899 360Q897 353 892.5 335.0Q888 317 882.5 297.0Q877 277 873.0 259.5Q869 242 869 238Q869 229 875.5 222.5Q882 216 891 216H1047Q1073 216 1088.0 230.0Q1103 244 1109 269L1132 360Z" style="fill:#ff8687;stroke:none" transform="scale(1,-1) translate(0,-256)" /></svg>