<?xml version="1.0" encoding="utf-8" ?>
<svg baseProfile="full" height="256" version="1.1" width="256" xmlns="http://www.w3.org/2000/svg" xmlns:ev="http://www.w3.org/2001/xml-events" xmlns:xlink="http://www.w3.org/1999/xlink"><defs /><path d="M998 1104Q933 1104 876.5 1128.5Q820 1153 778.0 1195.0Q736 1237 711.5 1293.5Q687 1350 687 1415Q687 1479 711.5 1535.5Q736 1592 778.5 1634.0Q821 1676 877.5 1700.5Q934 1725 998 1725Q1062 1725 1118.5 1700.5Q1175 1676 1217.0 1634.0Q1259 1592 1283.5 1535.5Q1308 1479 1308 1415Q1308 1351 1283.5 1294.5Q1259 1238 1217.0 1195.5Q1175 1153 1118.5 1128.5Q1062 1104 998 1104Z" style="fill:#212121;stroke:none" transform="scale(1,-1) translate(0,-256)" /></svg>