<?xml version="1.0" encoding="utf-8" ?>
<svg baseProfile="full" height="256" version="1.1" width="256" xmlns="http://www.w3.org/2000/svg" xmlns:ev="http://www.w3.org/2001/xml-events" xmlns:xlink="http://www.w3.org/1999/xlink"><defs /><path d="M400 1272Q400 1321 418.5 1364.5Q437 1408 469.5 1440.0Q502 1472 545.0 1491.0Q588 1510 637 1510Q658 1510 672.5 1495.0Q687 1480 687 1459V1150H543Q543 1143 543.5 1133.0Q544 1123 542.5 1114.0Q541 1105 536.0 1099.0Q531 1093 520 1093Q513 1093 509 1096Q458 1120 429.0 1168.0Q400 1216 400 1272Z" style="fill:#ffb02e;stroke:none" transform="scale(1,-1) translate(0,-256)" /></svg>