<?xml version="1.0" encoding="utf-8" ?>
<svg baseProfile="full" height="256" version="1.1" width="256" xmlns="http://www.w3.org/2000/svg" xmlns:ev="http://www.w3.org/2001/xml-events" xmlns:xlink="http://www.w3.org/1999/xlink"><defs /><path d="M702 1510Q735 1510 758.0 1520.0Q781 1530 800.5 1545.5Q820 1561 838.5 1579.0Q857 1597 880.5 1612.5Q904 1628 934.0 1638.0Q964 1648 1008 1648Q1060 1648 1105.0 1628.0Q1150 1608 1183.5 1574.0Q1217 1540 1236.5 1494.0Q1256 1448 1256 1397Q1256 1346 1236.0 1301.0Q1216 1256 1182.5 1222.5Q1149 1189 1104.0 1169.5Q1059 1150 1008 1150H687L637 1510ZM1694 408Q1694 393 1705.5 388.5Q1717 384 1735.0 384.0Q1753 384 1773.0 386.0Q1793 388 1811.0 387.0Q1829 386 1840.5 379.0Q1852 372 1852 354V349Q1846 310 1826.5 277.5Q1807 245 1778.5 221.5Q1750 198 1714.5 184.5Q1679 171 1640 171Q1577 171 1521.0 195.0Q1465 219 1423.5 260.0Q1382 301 1358.0 357.0Q1334 413 1334 476V581Q1334 624 1352.0 662.0Q1370 700 1400.0 728.5Q1430 757 1469.0 773.5Q1508 790 1550 790Q1596 790 1635.0 773.0Q1674 756 1703.0 727.0Q1732 698 1748.5 658.5Q1765 619 1765 573Q1765 536 1754.0 507.0Q1743 478 1729.5 457.0Q1716 436 1705.0 424.0Q1694 412 1694 408Z" style="fill:#d3d3d3;stroke:none" transform="scale(1,-1) translate(0,-256)" /></svg>