<?xml version="1.0" encoding="utf-8" ?>
<svg baseProfile="full" height="256" version="1.1" width="256" xmlns="http://www.w3.org/2000/svg" xmlns:ev="http://www.w3.org/2001/xml-events" xmlns:xlink="http://www.w3.org/1999/xlink"><defs /><path d="M767 1410Q767 1475 791.5 1532.5Q816 1590 858.5 1632.5Q901 1675 958.0 1700.0Q1015 1725 1080 1725Q1145 1725 1202.5 1700.5Q1260 1676 1303.5 1633.5Q1347 1591 1372.0 1533.5Q1397 1476 1397 1411Q1397 1325 1351 1247Q1347 1240 1333.5 1218.0Q1320 1196 1302.0 1166.5Q1284 1137 1264.5 1104.5Q1245 1072 1228.5 1044.0Q1212 1016 1201.5 996.5Q1191 977 1191 973Q1191 964 1198.0 957.0Q1205 950 1214 950Q1217 950 1223 952Q1303 982 1383.5 998.0Q1464 1014 1550 1014Q1693 1014 1825.5 966.5Q1958 919 2071 833Q2094 880 2137.5 907.5Q2181 935 2233 935Q2270 935 2302.5 921.0Q2335 907 2359.5 882.5Q2384 858 2398.0 825.0Q2412 792 2412 755Q2412 700 2399.5 650.5Q2387 601 2364 551Q2353 529 2346.5 511.5Q2340 494 2340 468V382Q2340 373 2333.5 366.0Q2327 359 2317 359Q2310 359 2294.5 367.5Q2279 376 2272 380Q2237 399 2217.0 430.5Q2197 462 2197 502V409Q2197 339 2170.5 277.5Q2144 216 2098.0 170.5Q2052 125 1990.5 98.5Q1929 72 1859 72H1837V-4Q1837 -32 1817.5 -52.0Q1798 -72 1770 -72H1617Q1587 -72 1573.0 -57.0Q1559 -42 1553.5 -19.5Q1548 3 1549.0 27.5Q1550 52 1550 72H1274Q1167 72 1073.5 112.5Q980 153 910.0 223.0Q840 293 799.5 386.5Q759 480 759 587Q759 656 777.0 723.0Q795 790 829 850L1021 1186L1067 1195V1200H847Q809 1243 788.0 1297.5Q767 1352 767 1410Z" style="fill:#9b9b9b;stroke:none" transform="scale(1,-1) translate(0,-256)" /></svg>