<?xml version="1.0" encoding="utf-8" ?>
<svg baseProfile="full" height="256" version="1.1" width="256" xmlns="http://www.w3.org/2000/svg" xmlns:ev="http://www.w3.org/2001/xml-events" xmlns:xlink="http://www.w3.org/1999/xlink"><defs /><path d="M2412 758Q2412 707 2392.5 662.0Q2373 617 2339.0 583.5Q2305 550 2260.0 530.5Q2215 511 2164 511Q2113 511 2068.0 530.5Q2023 550 1989.0 583.5Q1955 617 1935.5 662.0Q1916 707 1916 758Q1916 809 1935.5 854.5Q1955 900 1988.5 933.5Q2022 967 2067.5 986.5Q2113 1006 2164 1006Q2215 1006 2260.5 986.5Q2306 967 2339.5 933.5Q2373 900 2392.5 854.5Q2412 809 2412 758ZM1330 -72H1482Q1510 -72 1530.0 -52.0Q1550 -32 1550 -4V216H1262V-4Q1262 -32 1282.0 -52.0Q1302 -72 1330 -72Z" style="fill:#636363;stroke:none" transform="scale(1,-1) translate(0,-256)" /></svg>