<?xml version="1.0" encoding="utf-8" ?>
<svg baseProfile="full" height="256" version="1.1" width="256" xmlns="http://www.w3.org/2000/svg" xmlns:ev="http://www.w3.org/2001/xml-events" xmlns:xlink="http://www.w3.org/1999/xlink"><defs /><path d="M1126 890Q1133 890 1138.5 887.5Q1144 885 1149 881Q1189 849 1221.0 808.5Q1253 768 1274.5 721.5Q1296 675 1307.5 624.5Q1319 574 1319 523Q1319 470 1307.0 416.5Q1295 363 1273.0 312.5Q1251 262 1220.0 216.5Q1189 171 1152 134Q1140 122 1126 122Q1112 122 1101.0 133.0Q1090 144 1090 158Q1090 171 1100 183Q1133 222 1160.0 259.5Q1187 297 1206.5 337.5Q1226 378 1236.5 423.0Q1247 468 1247 521Q1247 592 1222.5 657.5Q1198 723 1152 777Q1141 791 1128.5 802.5Q1116 814 1103 826Q1097 832 1093.5 838.5Q1090 845 1090 854Q1090 868 1101.0 879.0Q1112 890 1126 890Z" style="fill:#0074ba;stroke:none" transform="scale(1,-1) translate(0,-256)" /></svg>