<?xml version="1.0" encoding="utf-8" ?>
<svg baseProfile="full" height="256" version="1.1" width="256" xmlns="http://www.w3.org/2000/svg" xmlns:ev="http://www.w3.org/2001/xml-events" xmlns:xlink="http://www.w3.org/1999/xlink"><defs /><path d="M1159 1101Q1160 1164 1176.5 1225.5Q1193 1287 1226.5 1336.5Q1260 1386 1311.5 1416.5Q1363 1447 1435 1447H1813Q1825 1447 1833.0 1441.5Q1841 1436 1845.5 1427.5Q1850 1419 1852.0 1408.5Q1854 1398 1854 1388Q1854 1383 1854.0 1379.5Q1854 1376 1853 1371Q1845 1305 1820.0 1255.0Q1795 1205 1755.0 1170.0Q1715 1135 1661.0 1115.5Q1607 1096 1542 1091Q1641 1073 1727.0 1025.5Q1813 978 1880.0 908.5Q1947 839 1990.0 751.0Q2033 663 2047 563V863Q2047 906 2077.0 948.0Q2107 990 2150.5 1024.0Q2194 1058 2244.0 1079.0Q2294 1100 2333 1100Q2364 1100 2382.5 1085.0Q2401 1070 2401 1038V714Q2401 681 2376.5 640.0Q2352 599 2315.5 563.5Q2279 528 2238.0 504.0Q2197 480 2164 479Q2197 478 2238.0 453.5Q2279 429 2315.5 393.5Q2352 358 2376.5 317.0Q2401 276 2401 243V-81Q2401 -113 2382.5 -128.0Q2364 -143 2333 -143Q2307 -143 2275.5 -133.5Q2244 -124 2212.0 -107.0Q2180 -90 2150.5 -67.0Q2121 -44 2098.0 -18.0Q2075 8 2061.0 36.5Q2047 65 2047 94V395Q2031 278 1976.5 179.5Q1922 81 1839.0 9.0Q1756 -63 1650.5 -103.5Q1545 -144 1428 -144Q1467 -156 1492.0 -188.0Q1517 -220 1517 -262Q1517 -273 1513.0 -280.0Q1509 -287 1498 -287H1339Q1309 -287 1287.5 -274.5Q1266 -262 1252.0 -241.5Q1238 -221 1230.5 -195.5Q1223 -170 1222 -144H1094Q983 -144 881.5 -106.5Q780 -69 698.5 -1.5Q617 66 560.5 158.0Q504 250 483 360Q450 360 425.0 379.5Q400 399 400 435Q400 460 414.0 479.5Q428 499 451 507Q428 515 414.0 535.0Q400 555 400 579Q400 611 422.0 633.0Q444 655 476 655Q487 655 496 652Q525 752 583.0 834.5Q641 917 720.0 976.0Q799 1035 894.5 1068.0Q990 1101 1094 1101H1159Z" style="fill:#00a6ed;stroke:none" transform="scale(1,-1) translate(0,-256)" /></svg>