<?xml version="1.0" encoding="utf-8" ?>
<svg baseProfile="full" height="256" version="1.1" width="256" xmlns="http://www.w3.org/2000/svg" xmlns:ev="http://www.w3.org/2001/xml-events" xmlns:xlink="http://www.w3.org/1999/xlink"><defs /><path d="M1435 1704Q1419 1685 1414.0 1660.0Q1409 1635 1409 1611Q1409 1577 1417 1540L1514 1114Q1506 1127 1488.0 1155.0Q1470 1183 1451.0 1214.0Q1432 1245 1415.5 1272.0Q1399 1299 1395 1310Q1391 1319 1383.5 1347.0Q1376 1375 1368.5 1407.5Q1361 1440 1354.0 1469.5Q1347 1499 1344 1512Q1339 1534 1339 1553Q1339 1601 1365.0 1642.5Q1391 1684 1435 1704ZM920 1652Q912 1639 908.5 1625.0Q905 1611 905 1596Q905 1564 916.0 1534.5Q927 1505 944 1479Q985 1414 1022.5 1348.0Q1060 1282 1101 1217Q1117 1191 1133.5 1164.0Q1150 1137 1169 1114Q1188 1090 1213.0 1073.5Q1238 1057 1265.5 1045.5Q1293 1034 1322.0 1026.0Q1351 1018 1380 1012Q1324 1012 1268.0 1010.0Q1212 1008 1158 992L890 1430Q878 1450 872.5 1473.0Q867 1496 867 1519Q867 1556 880.5 1591.0Q894 1626 920 1652ZM1736 1361Q1736 1392 1741.0 1424.0Q1746 1456 1758.5 1484.5Q1771 1513 1792.0 1536.0Q1813 1559 1845 1571Q1823 1543 1816.5 1507.5Q1810 1472 1808 1438L1795 1114Q1793 1123 1787.5 1143.0Q1782 1163 1775.5 1188.5Q1769 1214 1762.0 1241.5Q1755 1269 1749.0 1293.5Q1743 1318 1739.5 1336.5Q1736 1355 1736 1361Z" style="fill:#d67d00;stroke:none" transform="scale(1,-1) translate(0,-256)" /></svg>