<?xml version="1.0" encoding="utf-8" ?>
<svg baseProfile="full" height="256" version="1.1" width="256" xmlns="http://www.w3.org/2000/svg" xmlns:ev="http://www.w3.org/2001/xml-events" xmlns:xlink="http://www.w3.org/1999/xlink"><defs /><path d="M2072 1418Q2072 1188 2070.5 960.5Q2069 733 2069 503Q2069 391 2041.5 283.5Q2014 176 1960.0 81.5Q1906 -13 1826.5 -89.0Q1747 -165 1644 -214Q1581 -243 1513.5 -259.5Q1446 -276 1377 -276Q1274 -276 1174.5 -247.0Q1075 -218 990.0 -162.5Q905 -107 841.0 -27.0Q777 53 746 155Q742 167 740.5 180.0Q739 193 739 206Q739 240 751.5 272.0Q764 304 786.5 328.0Q809 352 839.5 366.5Q870 381 905 381Q959 381 1005.0 355.0Q1051 329 1074 279Q1091 241 1119.5 208.0Q1148 175 1183.5 151.0Q1219 127 1260.0 113.5Q1301 100 1344 100Q1401 100 1450.5 123.5Q1500 147 1536.5 186.0Q1573 225 1594.5 276.0Q1616 327 1616 383Q1616 438 1593.5 487.0Q1571 536 1533.5 572.5Q1496 609 1446.5 630.5Q1397 652 1342 652Q1277 652 1233.0 632.0Q1189 612 1157.5 582.0Q1126 552 1102.0 516.5Q1078 481 1052.5 451.0Q1027 421 994.0 401.0Q961 381 913 381Q877 381 845.5 397.0Q814 413 790.5 438.5Q767 464 753.0 497.0Q739 530 739 565Q739 590 747 616Q769 684 811.5 743.0Q854 802 909.0 850.0Q964 898 1028.0 934.0Q1092 970 1158 992L890 1430Q878 1450 872.5 1472.5Q867 1495 867 1518Q867 1557 880.0 1590.5Q893 1624 917.0 1648.5Q941 1673 974.0 1687.0Q1007 1701 1047 1701Q1094 1701 1132.0 1681.0Q1170 1661 1195 1621L1399 1294L1344 1512Q1339 1534 1339 1553Q1339 1587 1352.0 1617.0Q1365 1647 1387.0 1669.5Q1409 1692 1439.0 1705.0Q1469 1718 1503 1718Q1529 1718 1554.5 1709.5Q1580 1701 1601.5 1685.0Q1623 1669 1639.5 1647.5Q1656 1626 1663 1601L1736 1338Q1734 1382 1741.0 1425.5Q1748 1469 1768.0 1503.5Q1788 1538 1822.0 1559.5Q1856 1581 1908 1581Q1942 1581 1971.5 1568.5Q2001 1556 2023.5 1534.0Q2046 1512 2059.0 1482.0Q2072 1452 2072 1418Z" style="fill:#ffc83d;stroke:none" transform="scale(1,-1) translate(0,-256)" /></svg>