<?xml version="1.0" encoding="utf-8" ?>
<svg baseProfile="full" height="256" version="1.1" width="256" xmlns="http://www.w3.org/2000/svg" xmlns:ev="http://www.w3.org/2001/xml-events" xmlns:xlink="http://www.w3.org/1999/xlink"><defs /><path d="M1729 1671Q1729 1663 1727.0 1654.0Q1725 1645 1720.5 1636.5Q1716 1628 1709.0 1622.5Q1702 1617 1693 1617Q1684 1617 1677.5 1623.0Q1671 1629 1666.5 1637.0Q1662 1645 1660.0 1654.5Q1658 1664 1658 1671Q1658 1678 1660.0 1687.5Q1662 1697 1666.0 1705.5Q1670 1714 1677.0 1719.5Q1684 1725 1693 1725Q1702 1725 1709.0 1719.5Q1716 1714 1720.5 1706.0Q1725 1698 1727.0 1688.5Q1729 1679 1729 1671Z" style="fill:#990838;stroke:none" transform="scale(1,-1) translate(0,-256)" /></svg>