<?xml version="1.0" encoding="utf-8" ?>
<svg baseProfile="full" height="256" version="1.1" width="256" xmlns="http://www.w3.org/2000/svg" xmlns:ev="http://www.w3.org/2001/xml-events" xmlns:xlink="http://www.w3.org/1999/xlink"><defs /><path d="M1047 1222 1083 1294V1295Q1102 1332 1124.0 1349.0Q1146 1366 1190 1366H1622Q1657 1366 1678.5 1353.5Q1700 1341 1715.0 1320.5Q1730 1300 1741.0 1274.5Q1752 1249 1765 1222V1150H1047ZM873 575Q877 579 914.0 598.0Q951 617 1006.0 643.5Q1061 670 1125.5 701.0Q1190 732 1248.0 759.5Q1306 787 1349.0 807.5Q1392 828 1405 834L1922 585Q1927 583 1930.5 580.0Q1934 577 1939 575L1873 -215Q1871 -243 1850.5 -265.0Q1830 -287 1801 -287H1011Q982 -287 961.5 -265.0Q941 -243 939 -215Z" style="fill:#cdc4d6;stroke:none" transform="scale(1,-1) translate(0,-256)" /></svg>