<?xml version="1.0" encoding="utf-8" ?>
<svg baseProfile="full" height="256" version="1.1" width="256" xmlns="http://www.w3.org/2000/svg" xmlns:ev="http://www.w3.org/2001/xml-events" xmlns:xlink="http://www.w3.org/1999/xlink"><defs /><path d="M685 1354 869 1506 1195 1205 1442 1438 1622 1269V1490Q1622 1498 1627.5 1504.0Q1633 1510 1641 1510H1744Q1752 1510 1757.5 1504.0Q1763 1498 1763 1490V1349L1952 1506L2339 1144V611H2053V144H831V611H472V1179L543 1238V1490Q543 1498 549.0 1504.0Q555 1510 563 1510H666Q674 1510 679.5 1504.0Q685 1498 685 1490Z" style="fill:#f3c07b;stroke:none" transform="scale(1,-1) translate(0,-256)" /></svg>