<?xml version="1.0" encoding="utf-8" ?>
<svg baseProfile="full" height="256" version="1.1" width="256" xmlns="http://www.w3.org/2000/svg" xmlns:ev="http://www.w3.org/2001/xml-events" xmlns:xlink="http://www.w3.org/1999/xlink"><defs /><path d="M460 504Q431 519 415.5 546.0Q400 573 400 605Q400 629 409.0 649.5Q418 670 433.5 685.5Q449 701 469.5 710.0Q490 719 514 719Q547 719 574.5 701.0Q602 683 617 654Q622 645 633.5 639.5Q645 634 657.0 626.0Q669 618 678.0 604.5Q687 591 687 566Q687 547 678.0 530.5Q669 514 653 503H460ZM2352 504V503H2159Q2139 516 2132.0 533.0Q2125 550 2125 573Q2125 594 2134.0 606.0Q2143 618 2155.0 625.5Q2167 633 2178.5 639.0Q2190 645 2195 654Q2210 683 2237.5 701.0Q2265 719 2298 719Q2322 719 2342.5 710.0Q2363 701 2378.5 685.5Q2394 670 2403.0 649.5Q2412 629 2412 605Q2412 573 2396.0 546.0Q2380 519 2352 504ZM1825 72Q1798 89 1781.5 117.0Q1765 145 1765 177Q1765 185 1767 189V193Q1771 229 1787.5 248.5Q1804 268 1824.0 279.5Q1844 291 1862.5 299.5Q1881 308 1890 323Q1919 375 1964.0 403.0Q2009 431 2070 431Q2110 431 2146.0 416.5Q2182 402 2209.0 376.5Q2236 351 2252.0 316.5Q2268 282 2268 241Q2268 186 2240.0 141.5Q2212 97 2163 72ZM649 72Q601 96 572.0 141.5Q543 187 543 241Q543 281 559.0 316.0Q575 351 602.5 376.5Q630 402 666.0 416.5Q702 431 742 431Q803 431 848.0 403.0Q893 375 922 323Q928 312 936.0 306.0Q944 300 956 296Q971 291 987.5 280.5Q1004 270 1017.5 255.5Q1031 241 1039.0 224.0Q1047 207 1045 189Q1047 185 1047 177Q1047 145 1030.5 117.0Q1014 89 987 72Z" style="fill:#00d26a;stroke:none" transform="scale(1,-1) translate(0,-256)" /></svg>