<?xml version="1.0" encoding="utf-8" ?>
<svg baseProfile="full" height="256" version="1.1" width="256" xmlns="http://www.w3.org/2000/svg" xmlns:ev="http://www.w3.org/2001/xml-events" xmlns:xlink="http://www.w3.org/1999/xlink"><defs /><path d="M861 1478 437 1062Q424 1049 406 1049Q389 1049 376.5 1061.5Q364 1074 364 1092Q364 1110 376 1122L829 1568Q836 1574 843.5 1578.0Q851 1582 860 1582Q878 1582 891 1569L1164 1299L1395 1526V1527Q1414 1546 1441 1546Q1468 1546 1487 1527L1682 1335L1919 1568V1569Q1932 1582 1950 1582Q1967 1582 1980 1569L2433 1123Q2445 1111 2445 1093Q2445 1075 2432.5 1063.0Q2420 1051 2402 1051Q2384 1051 2372 1063L1950 1478L1743 1274L2165 858Q2184 839 2184 814Q2184 788 2164.0 769.0Q2144 750 2118 750Q2092 750 2073 769L1441 1392L806 767Q787 748 760 748Q734 748 715.0 766.5Q696 785 696 812Q696 838 715 857L1103 1239Z" style="fill:#f8312f;stroke:none" transform="scale(1,-1) translate(0,-256)" /></svg>