<?xml version="1.0" encoding="utf-8" ?>
<svg baseProfile="full" height="256" version="1.1" width="256" xmlns="http://www.w3.org/2000/svg" xmlns:ev="http://www.w3.org/2001/xml-events" xmlns:xlink="http://www.w3.org/1999/xlink"><defs /><path d="M2233 1581Q2270 1581 2302.5 1567.0Q2335 1553 2359.5 1528.5Q2384 1504 2398.0 1471.5Q2412 1439 2412 1402V1258Q2412 1221 2398.0 1188.0Q2384 1155 2359.5 1130.5Q2335 1106 2302.5 1092.0Q2270 1078 2233 1078Q2196 1078 2163.0 1092.0Q2130 1106 2105.5 1130.5Q2081 1155 2067.0 1188.0Q2053 1221 2053 1258V1402Q2053 1439 2067.0 1471.5Q2081 1504 2105.5 1528.5Q2130 1553 2163.0 1567.0Q2196 1581 2233 1581ZM651 431Q688 431 721.0 417.0Q754 403 778.5 378.5Q803 354 817.0 321.5Q831 289 831 252V108Q831 71 817.0 38.0Q803 5 778.5 -19.5Q754 -44 721.0 -58.0Q688 -72 651 -72Q614 -72 581.5 -58.0Q549 -44 524.5 -19.5Q500 5 486.0 38.0Q472 71 472 108V252Q472 289 486.0 321.5Q500 354 524.5 378.5Q549 403 581.5 417.0Q614 431 651 431Z" style="fill:#3f5fff;stroke:none" transform="scale(1,-1) translate(0,-256)" /></svg>