<?xml version="1.0" encoding="utf-8" ?>
<svg baseProfile="full" height="256" version="1.1" width="256" xmlns="http://www.w3.org/2000/svg" xmlns:ev="http://www.w3.org/2001/xml-events" xmlns:xlink="http://www.w3.org/1999/xlink"><defs /><path d="M1190 1258Q1190 1203 1171.5 1157.0Q1153 1111 1119.5 1077.5Q1086 1044 1040.0 1025.0Q994 1006 939 1006Q925 1006 914.0 1017.0Q903 1028 903 1042Q903 1057 913.5 1067.5Q924 1078 939 1078Q973 1078 1005.0 1089.0Q1037 1100 1063 1123Q1092 1149 1105.0 1184.5Q1118 1220 1118 1258Q1118 1272 1129.0 1283.0Q1140 1294 1154 1294Q1169 1294 1179.5 1283.5Q1190 1273 1190 1258ZM1622 1258Q1622 1273 1632.5 1283.5Q1643 1294 1658 1294Q1672 1294 1682.5 1283.0Q1693 1272 1693 1258Q1693 1220 1706.5 1184.5Q1720 1149 1749 1123Q1775 1100 1807.0 1089.0Q1839 1078 1873 1078Q1888 1078 1898.5 1067.5Q1909 1057 1909 1042Q1909 1028 1898.0 1017.0Q1887 1006 1873 1006Q1818 1006 1772.0 1025.0Q1726 1044 1692.5 1077.5Q1659 1111 1640.5 1157.0Q1622 1203 1622 1258ZM1118 575Q1088 575 1062.0 586.5Q1036 598 1016.5 617.5Q997 637 986.0 663.0Q975 689 975 719Q975 749 986.0 775.0Q997 801 1016.5 820.5Q1036 840 1062.0 851.5Q1088 863 1118 863Q1148 863 1174.0 851.5Q1200 840 1219.5 820.5Q1239 801 1250.5 775.0Q1262 749 1262 719Q1262 689 1250.5 663.0Q1239 637 1219.5 617.5Q1200 598 1174.0 586.5Q1148 575 1118 575ZM1693 575Q1663 575 1637.0 586.5Q1611 598 1591.5 617.5Q1572 637 1561.0 663.0Q1550 689 1550 719Q1550 749 1561.0 775.0Q1572 801 1591.5 820.5Q1611 840 1637.0 851.5Q1663 863 1693 863Q1723 863 1749.0 851.5Q1775 840 1794.5 820.5Q1814 801 1825.5 775.0Q1837 749 1837 719Q1837 689 1825.5 663.0Q1814 637 1794.5 617.5Q1775 598 1749.0 586.5Q1723 575 1693 575ZM1478 360Q1523 360 1562.0 343.0Q1601 326 1630.0 296.5Q1659 267 1676.0 228.0Q1693 189 1693 144Q1693 99 1676.0 60.0Q1659 21 1630.0 -8.5Q1601 -38 1562.0 -55.0Q1523 -72 1478 -72H1334Q1289 -72 1250.0 -55.0Q1211 -38 1181.5 -8.5Q1152 21 1135.0 60.0Q1118 99 1118 144Q1118 189 1135.0 228.0Q1152 267 1181.5 296.5Q1211 326 1250.0 343.0Q1289 360 1334 360Z" style="fill:#402a32;stroke:none" transform="scale(1,-1) translate(0,-256)" /></svg>