<?xml version="1.0" encoding="utf-8" ?>
<svg baseProfile="full" height="256" version="1.1" width="256" xmlns="http://www.w3.org/2000/svg" xmlns:ev="http://www.w3.org/2001/xml-events" xmlns:xlink="http://www.w3.org/1999/xlink"><defs /><path d="M975 1510Q975 1539 996.5 1560.0Q1018 1581 1047 1581H1765Q1794 1581 1815.5 1560.0Q1837 1539 1837 1510V1006Q1837 977 1815.5 956.0Q1794 935 1765 935H1047Q1018 935 996.5 956.0Q975 977 975 1006ZM975 647Q975 677 996.0 698.0Q1017 719 1047 719H1765Q1795 719 1816.0 698.0Q1837 677 1837 647V431Q1837 402 1815.5 381.0Q1794 360 1765 360H1047Q1018 360 996.5 381.0Q975 402 975 431ZM1047 216Q1017 216 996.0 195.0Q975 174 975 144V-72Q975 -101 996.5 -122.5Q1018 -144 1047 -144H1765Q1794 -144 1815.5 -122.5Q1837 -101 1837 -72V144Q1837 174 1816.0 195.0Q1795 216 1765 216Z" style="fill:#d3883e;stroke:none" transform="scale(1,-1) translate(0,-256)" /></svg>