<?xml version="1.0" encoding="utf-8" ?>
<svg baseProfile="full" height="256" version="1.1" width="256" xmlns="http://www.w3.org/2000/svg" xmlns:ev="http://www.w3.org/2001/xml-events" xmlns:xlink="http://www.w3.org/1999/xlink"><defs /><path d="M1313 1559Q1382 1559 1440.5 1539.5Q1499 1520 1546.5 1484.5Q1594 1449 1630.5 1399.0Q1667 1349 1693 1287Q1713 1239 1736.5 1200.0Q1760 1161 1788.5 1129.0Q1817 1097 1852.5 1069.0Q1888 1041 1933 1014Q2017 963 2084.5 898.5Q2152 834 2199.0 757.0Q2246 680 2271.5 590.5Q2297 501 2297 401Q2297 306 2272.5 218.0Q2248 130 2203.0 53.5Q2158 -23 2095.0 -85.5Q2032 -148 1955.5 -193.0Q1879 -238 1791.0 -262.5Q1703 -287 1608 -287Q1512 -287 1423.5 -262.0Q1335 -237 1258.0 -192.0Q1181 -147 1118.5 -83.5Q1056 -20 1011.0 57.5Q966 135 941.5 223.5Q917 312 917 408Q917 468 927.5 523.0Q938 578 955 635Q968 678 976.0 720.0Q984 762 984 807Q984 858 974.5 904.0Q965 950 948 998Q934 1040 924.0 1078.0Q914 1116 914 1161Q914 1243 945.5 1315.5Q977 1388 1031.0 1442.0Q1085 1496 1157.5 1527.5Q1230 1559 1313 1559Z" style="fill:#c3ef3c;stroke:none" transform="scale(1,-1) translate(0,-256)" /></svg>