<?xml version="1.0" encoding="utf-8" ?>
<svg baseProfile="full" height="256" version="1.1" width="256" xmlns="http://www.w3.org/2000/svg" xmlns:ev="http://www.w3.org/2001/xml-events" xmlns:xlink="http://www.w3.org/1999/xlink"><defs /><path d="M1574 296Q1574 293 1572.0 285.5Q1570 278 1567.0 269.5Q1564 261 1561.5 253.5Q1559 246 1558 242Q1556 234 1547 234Q1537 234 1535 242Q1534 245 1531.5 253.0Q1529 261 1526.0 269.5Q1523 278 1521.0 285.5Q1519 293 1519 295Q1519 302 1524.0 306.5Q1529 311 1535 311H1558Q1565 311 1569.5 306.5Q1574 302 1574 296Z" style="fill:#ed9200;stroke:none" transform="scale(1,-1) translate(0,-256)" /></svg>