<?xml version="1.0" encoding="utf-8" ?>
<svg baseProfile="full" height="256" version="1.1" width="256" xmlns="http://www.w3.org/2000/svg" xmlns:ev="http://www.w3.org/2001/xml-events" xmlns:xlink="http://www.w3.org/1999/xlink"><defs /><path d="M1331 859Q1138 859 947.0 859.5Q756 860 563 861Q555 861 549.0 867.5Q543 874 543 882Q543 886 547.0 893.0Q551 900 556.5 907.5Q562 915 567.0 921.5Q572 928 575 932Q587 948 600.5 957.0Q614 966 629.0 970.5Q644 975 660.5 976.5Q677 978 695 981L1406 1078Q1427 1081 1448.0 1084.5Q1469 1088 1489 1092Q1511 1095 1534.5 1098.5Q1558 1102 1580.5 1107.5Q1603 1113 1624.0 1122.5Q1645 1132 1662 1148L2180 1624Q2190 1634 2209.0 1651.0Q2228 1668 2249.5 1684.5Q2271 1701 2291.5 1713.0Q2312 1725 2326 1725H2376Q2384 1725 2389.0 1720.0Q2394 1715 2394 1707Q2394 1702 2390 1696L1769 859Z" style="fill:#ffc83d;stroke:none" transform="scale(1,-1) translate(0,-256)" /></svg>