<?xml version="1.0" encoding="utf-8" ?>
<svg baseProfile="full" height="256" version="1.1" width="256" xmlns="http://www.w3.org/2000/svg" xmlns:ev="http://www.w3.org/2001/xml-events" xmlns:xlink="http://www.w3.org/1999/xlink"><defs /><path d="M1476 209Q1463 209 1449.5 218.5Q1436 228 1436 242Q1436 250 1444 250H1510Q1517 250 1517 245Q1517 230 1503.5 219.5Q1490 209 1476 209ZM1618 209Q1604 209 1590.5 219.5Q1577 230 1577 245Q1577 250 1584 250H1650Q1658 250 1658 242Q1658 228 1644.0 218.5Q1630 209 1618 209Z" style="fill:#ffffff;stroke:none" transform="scale(1,-1) translate(0,-256)" /></svg>