<?xml version="1.0" encoding="utf-8" ?>
<svg baseProfile="full" height="256" version="1.1" width="256" xmlns="http://www.w3.org/2000/svg" xmlns:ev="http://www.w3.org/2001/xml-events" xmlns:xlink="http://www.w3.org/1999/xlink"><defs /><path d="M1454 250Q1454 230 1440.0 215.5Q1426 201 1406 201Q1386 201 1372.0 215.5Q1358 230 1358 250Q1358 270 1372.0 284.0Q1386 298 1406 298Q1426 298 1440.0 284.0Q1454 270 1454 250ZM1737 250Q1737 230 1723.0 215.5Q1709 201 1689 201Q1669 201 1655.0 215.5Q1641 230 1641 250Q1641 270 1655.0 284.0Q1669 298 1689 298Q1709 298 1723.0 284.0Q1737 270 1737 250Z" style="fill:#fdbb11;stroke:none" transform="scale(1,-1) translate(0,-256)" /></svg>