<?xml version="1.0" encoding="utf-8" ?>
<svg baseProfile="full" height="256" version="1.1" width="256" xmlns="http://www.w3.org/2000/svg" xmlns:ev="http://www.w3.org/2001/xml-events" xmlns:xlink="http://www.w3.org/1999/xlink"><defs /><path d="M1468 402Q1468 406 1476.0 422.5Q1484 439 1494.5 458.0Q1505 477 1515.0 493.5Q1525 510 1529 514Q1535 522 1546 522Q1555 522 1567.0 506.5Q1579 491 1590.5 471.0Q1602 451 1611.5 431.0Q1621 411 1625 402Q1625 375 1611.5 368.5Q1598 362 1575 362H1515Q1492 362 1480.0 369.0Q1468 376 1468 402Z" style="fill:#fcb100;stroke:none" transform="scale(1,-1) translate(0,-256)" /></svg>