<?xml version="1.0" encoding="utf-8" ?>
<svg baseProfile="full" height="256" version="1.1" width="256" xmlns="http://www.w3.org/2000/svg" xmlns:ev="http://www.w3.org/2001/xml-events" xmlns:xlink="http://www.w3.org/1999/xlink"><defs /><path d="M1514 37Q1489 37 1467.5 46.5Q1446 56 1429.5 72.0Q1413 88 1403.5 109.5Q1394 131 1394 156Q1394 202 1398.5 248.5Q1403 295 1406 341Q1407 362 1417.5 380.0Q1428 398 1444.0 411.5Q1460 425 1480.0 432.5Q1500 440 1520 440H1574Q1594 440 1614.0 432.5Q1634 425 1650.0 411.5Q1666 398 1676.0 380.0Q1686 362 1688 341Q1691 295 1695.0 249.0Q1699 203 1699 157Q1699 132 1689.5 110.0Q1680 88 1664.0 72.0Q1648 56 1626.0 46.5Q1604 37 1579 37H1514Z" style="fill:#ffc83d;stroke:none" transform="scale(1,-1) translate(0,-256)" /></svg>