<?xml version="1.0" encoding="utf-8" ?>
<svg baseProfile="full" height="256" version="1.1" width="256" xmlns="http://www.w3.org/2000/svg" xmlns:ev="http://www.w3.org/2001/xml-events" xmlns:xlink="http://www.w3.org/1999/xlink"><defs /><path d="M1691 298Q1689 318 1687.5 337.0Q1686 356 1678 375Q1695 367 1706.0 351.0Q1717 335 1717 316V289Q1703 298 1691 298ZM1503 1Q1464 1 1444 34Q1434 50 1419.5 57.5Q1405 65 1391.0 73.0Q1377 81 1367.0 93.5Q1357 106 1357 130Q1357 142 1360.5 150.5Q1364 159 1368.0 167.0Q1372 175 1375.5 184.5Q1379 194 1379 210Q1381 208 1388.5 204.5Q1396 201 1398 202Q1398 191 1398.0 179.0Q1398 167 1402.0 157.0Q1406 147 1414.5 140.5Q1423 134 1438 134Q1456 134 1471.5 134.0Q1487 134 1500.0 130.5Q1513 127 1524.0 118.0Q1535 109 1544 91Q1551 79 1562 79H1599Q1641 79 1669.5 107.5Q1698 136 1698 178Q1698 184 1697.5 190.0Q1697 196 1696 202Q1700 201 1707.5 205.0Q1715 209 1718 211Q1718 195 1721.0 185.5Q1724 176 1728.0 168.0Q1732 160 1735.0 151.5Q1738 143 1738 131Q1738 106 1728.5 94.0Q1719 82 1705.0 73.5Q1691 65 1676.0 57.0Q1661 49 1651 33Q1630 1 1593 1Q1581 1 1570.5 6.0Q1560 11 1548 11Q1536 11 1525.5 6.0Q1515 1 1503 1ZM1415 373Q1406 355 1405.0 336.5Q1404 318 1403 298Q1390 297 1378 288V316Q1378 334 1388.0 349.5Q1398 365 1415 373Z" style="fill:#f1a11e;stroke:none" transform="scale(1,-1) translate(0,-256)" /></svg>