<?xml version="1.0" encoding="utf-8" ?>
<svg baseProfile="full" height="256" version="1.1" width="256" xmlns="http://www.w3.org/2000/svg" xmlns:ev="http://www.w3.org/2001/xml-events" xmlns:xlink="http://www.w3.org/1999/xlink"><defs /><path d="M1376 593Q1376 492 1338.0 404.0Q1300 316 1234.0 250.0Q1168 184 1079.5 146.0Q991 108 891 108Q790 108 702.0 146.0Q614 184 548.0 250.0Q482 316 444.0 404.0Q406 492 406 593Q406 693 444.0 781.5Q482 870 548.0 936.0Q614 1002 702.0 1040.0Q790 1078 891 1078Q991 1078 1079.5 1040.0Q1168 1002 1234.0 936.0Q1300 870 1338.0 781.5Q1376 693 1376 593Z" style="fill:#6d4534;stroke:none" transform="scale(1,-1) translate(0,-256)" /></svg>