<?xml version="1.0" encoding="utf-8" ?>
<svg baseProfile="full" height="256" version="1.1" width="256" xmlns="http://www.w3.org/2000/svg" xmlns:ev="http://www.w3.org/2001/xml-events" xmlns:xlink="http://www.w3.org/1999/xlink"><defs /><path d="M2341 602Q2341 501 2303.0 413.0Q2265 325 2199.0 259.0Q2133 193 2044.5 155.0Q1956 117 1856 117Q1755 117 1667.0 155.0Q1579 193 1513.0 259.0Q1447 325 1409.0 413.0Q1371 501 1371 602Q1371 702 1409.0 790.5Q1447 879 1513.0 945.0Q1579 1011 1667.0 1049.0Q1755 1087 1856 1087Q1956 1087 2044.5 1049.0Q2133 1011 2199.0 945.0Q2265 879 2303.0 790.5Q2341 702 2341 602Z" style="fill:#ff8687;stroke:none" transform="scale(1,-1) translate(0,-256)" /></svg>