<?xml version="1.0" encoding="utf-8" ?>
<svg baseProfile="full" height="256" version="1.1" width="256" xmlns="http://www.w3.org/2000/svg" xmlns:ev="http://www.w3.org/2001/xml-events" xmlns:xlink="http://www.w3.org/1999/xlink"><defs /><path d="M452 357H2284Q2306 357 2322.0 342.0Q2338 327 2338 304Q2338 294 2334.5 286.5Q2331 279 2326 271Q2311 249 2286.5 219.0Q2262 189 2235.0 158.5Q2208 128 2181.5 100.5Q2155 73 2135 55Q2084 11 2026.5 -26.0Q1969 -63 1912 -98Q1882 -117 1855.5 -142.0Q1829 -167 1811 -198Q1788 -237 1757.0 -260.5Q1726 -284 1678 -284H1057Q1009 -284 978.5 -260.0Q948 -236 924 -198Q904 -166 880.0 -142.0Q856 -118 824 -98Q767 -62 709.5 -25.5Q652 11 601 55Q580 73 553.5 100.5Q527 128 500.5 158.5Q474 189 450.0 219.0Q426 249 410 271Q405 279 401.5 286.5Q398 294 398 304Q398 327 414.0 342.0Q430 357 452 357Z" style="fill:#00a6ed;stroke:none" transform="scale(1,-1) translate(0,-256)" /></svg>