<?xml version="1.0" encoding="utf-8" ?>
<svg baseProfile="full" height="256" version="1.1" width="256" xmlns="http://www.w3.org/2000/svg" xmlns:ev="http://www.w3.org/2001/xml-events" xmlns:xlink="http://www.w3.org/1999/xlink"><defs /><path d="M2194 1588Q2194 1566 2181 1550L1803 1069L2311 1351Q2325 1359 2342 1359Q2368 1359 2386.5 1341.0Q2405 1323 2405 1297Q2405 1280 2396.0 1264.5Q2387 1249 2372 1241L1794 920Q1780 912 1763 912Q1738 912 1723.0 926.5Q1708 941 1701 964Q1687 961 1673.0 964.5Q1659 968 1648.5 977.0Q1638 986 1631.5 998.5Q1625 1011 1625 1025Q1625 1047 1639 1064L2082 1628Q2101 1652 2131 1652Q2157 1652 2175.5 1633.0Q2194 1614 2194 1588Z" style="fill:#e19747;stroke:none" transform="scale(1,-1) translate(0,-256)" /></svg>