<?xml version="1.0" encoding="utf-8" ?>
<svg baseProfile="full" height="256" version="1.1" width="256" xmlns="http://www.w3.org/2000/svg" xmlns:ev="http://www.w3.org/2001/xml-events" xmlns:xlink="http://www.w3.org/1999/xlink"><defs /><path d="M1343 650H1359Q1385 650 1393.5 658.0Q1402 666 1402 692Q1402 710 1391.0 714.5Q1380 719 1366.5 721.0Q1353 723 1342.0 727.5Q1331 732 1331 750V835Q1331 855 1344.5 859.5Q1358 864 1374 864Q1392 864 1396.5 875.0Q1401 886 1402.5 899.5Q1404 913 1408.0 924.0Q1412 935 1431 935Q1448 935 1464.5 934.0Q1481 933 1498 933Q1508 933 1527.0 934.0Q1546 935 1554 942L1680 1055Q1687 1061 1689.0 1076.5Q1691 1092 1697.0 1108.5Q1703 1125 1717.0 1138.0Q1731 1151 1761 1151H1790Q1812 1151 1820.0 1139.5Q1828 1128 1831.5 1114.5Q1835 1101 1840.0 1090.0Q1845 1079 1862 1079H1947Q1966 1079 1970.0 1090.0Q1974 1101 1975.5 1114.5Q1977 1128 1982.0 1139.0Q1987 1150 2008 1150Q2031 1150 2051.0 1141.0Q2071 1132 2086.0 1117.0Q2101 1102 2110.0 1082.0Q2119 1062 2119 1039V899Q2119 884 2108.5 873.5Q2098 863 2083 863Q2060 863 2055.0 874.0Q2050 885 2048.5 898.5Q2047 912 2040.0 923.5Q2033 935 2005 935Q1994 935 1985.0 927.0Q1976 919 1976 907V821Q1976 805 1985.0 800.0Q1994 795 2004.5 792.0Q2015 789 2024.0 784.5Q2033 780 2033 764Q2033 760 2024.0 735.5Q2015 711 2004.0 682.5Q1993 654 1982.0 628.0Q1971 602 1968 595Q1960 577 1941 577H1861Q1840 577 1837.0 588.0Q1834 599 1833.0 612.5Q1832 626 1825.0 637.5Q1818 649 1790 649Q1776 649 1770.5 643.5Q1765 638 1763.5 630.0Q1762 622 1762.0 613.0Q1762 604 1758.5 596.0Q1755 588 1746.5 582.5Q1738 577 1719 577Q1698 577 1695.0 588.0Q1692 599 1691.0 612.5Q1690 626 1683.0 637.5Q1676 649 1647 649Q1635 649 1629.0 643.5Q1623 638 1620.5 629.5Q1618 621 1618.5 611.0Q1619 601 1619 592Q1619 580 1610.5 559.0Q1602 538 1591.0 515.5Q1580 493 1568.0 472.0Q1556 451 1550 439Q1548 436 1548.0 425.5Q1548 415 1548.0 403.0Q1548 391 1548.5 380.0Q1549 369 1549 364Q1549 333 1543.0 305.5Q1537 278 1514 255Q1502 243 1495.5 235.5Q1489 228 1482.5 224.0Q1476 220 1466.5 218.5Q1457 217 1440 217Q1426 217 1415.0 223.0Q1404 229 1404 246V403Q1404 416 1398.0 422.0Q1392 428 1383.0 430.0Q1374 432 1363.5 432.0Q1353 432 1344 432Q1334 432 1323 441Q1301 461 1280.5 484.5Q1260 508 1260 540Q1260 557 1268.0 573.5Q1276 590 1288.0 604.5Q1300 619 1314.5 630.5Q1329 642 1343 650ZM1008 145Q994 145 984.0 154.5Q974 164 974 178V277Q974 290 961.0 301.0Q948 312 940 320Q922 338 914.0 358.5Q906 379 903.0 401.5Q900 424 901.0 447.0Q902 470 902 493Q902 503 896 509L806 599Q795 609 775.0 622.5Q755 636 735.5 651.0Q716 666 701.0 681.5Q686 697 686 713V883Q686 891 690.5 898.0Q695 905 700.5 911.0Q706 917 710.5 921.5Q715 926 716 931Q713 934 707 934Q686 934 666.5 916.5Q647 899 629.5 878.0Q612 857 596.0 839.5Q580 822 565 822Q551 822 547.0 832.0Q543 842 543 853Q543 860 554.0 872.5Q565 885 578.5 903.0Q592 921 603.0 945.0Q614 969 614 1001V1028Q614 1045 620.0 1055.0Q626 1065 636.5 1070.0Q647 1075 660.0 1076.5Q673 1078 687 1078H708Q724 1078 733.0 1072.5Q742 1067 746.5 1059.0Q751 1051 753.5 1042.0Q756 1033 759.5 1025.0Q763 1017 769.0 1011.5Q775 1006 787 1006Q816 1006 836.0 1016.5Q856 1027 873.0 1043.0Q890 1059 906.0 1077.5Q922 1096 942.0 1112.0Q962 1128 988.0 1138.5Q1014 1149 1052 1149H1167Q1186 1149 1203.0 1141.5Q1220 1134 1232.5 1121.5Q1245 1109 1252.5 1092.0Q1260 1075 1260 1056Q1260 1035 1254.5 1019.5Q1249 1004 1240.0 991.0Q1231 978 1219.5 966.0Q1208 954 1195 940Q1188 932 1188.0 918.5Q1188 905 1186.5 892.5Q1185 880 1178.5 871.0Q1172 862 1152 862Q1139 862 1131.5 868.0Q1124 874 1120.0 883.5Q1116 893 1115.0 904.0Q1114 915 1114 925Q1114 948 1116.0 970.0Q1118 992 1118 1015Q1118 1025 1117.0 1036.0Q1116 1047 1112.0 1056.5Q1108 1066 1100.5 1072.0Q1093 1078 1080 1078Q1059 1078 1053.0 1066.5Q1047 1055 1045.0 1041.5Q1043 1028 1040.0 1017.0Q1037 1006 1022 1006Q1010 1006 998.5 1006.5Q987 1007 975 1007Q962 1007 955.5 1003.5Q949 1000 947.0 993.5Q945 987 945.0 978.0Q945 969 945 958Q945 943 938.0 940.0Q931 937 923.0 935.5Q915 934 908.0 927.5Q901 921 901 899Q901 884 911.5 873.5Q922 863 937 863Q957 863 963.5 874.0Q970 885 973.5 898.5Q977 912 982.5 923.5Q988 935 1008 935Q1028 935 1034.5 925.5Q1041 916 1042.5 903.5Q1044 891 1044.0 877.5Q1044 864 1051 856Q1056 851 1065.5 842.5Q1075 834 1084.0 825.0Q1093 816 1100.0 807.0Q1107 798 1107 791Q1107 784 1100 775Q1079 751 1053.5 735.0Q1028 719 995 719Q980 719 977.0 707.5Q974 696 972.0 682.5Q970 669 964.0 658.0Q958 647 937 647Q915 647 909.0 658.0Q903 669 901.5 682.5Q900 696 897.0 707.5Q894 719 878 719H851Q836 719 832.0 707.0Q828 695 828 683Q828 675 828.5 661.0Q829 647 835 641L966 510Q973 503 982 503Q1014 503 1035.0 499.5Q1056 496 1073.5 489.5Q1091 483 1110.0 472.5Q1129 462 1156 448Q1188 431 1188 396Q1188 379 1181.0 368.0Q1174 357 1162.5 348.5Q1151 340 1137.5 334.0Q1124 328 1112 322Q1083 307 1069.5 288.0Q1056 269 1050.5 249.5Q1045 230 1045.0 211.0Q1045 192 1042.5 177.5Q1040 163 1033.0 154.0Q1026 145 1008 145ZM1835 467Q1835 447 1844.0 427.0Q1853 407 1868.0 391.0Q1883 375 1902.0 365.0Q1921 355 1941 355Q1969 355 1974.0 366.0Q1979 377 1979 400Q1979 417 1987.0 423.0Q1995 429 2012 429Q2034 429 2040.5 416.5Q2047 404 2051.0 389.5Q2055 375 2064.0 362.5Q2073 350 2101 350Q2110 350 2116.5 357.0Q2123 364 2123 373V433Q2123 462 2101.5 483.5Q2080 505 2051 505H1989Q1978 505 1971.5 498.0Q1965 491 1959.0 483.0Q1953 475 1946.0 468.0Q1939 461 1929 461Q1915 461 1912.0 468.0Q1909 475 1907.5 483.0Q1906 491 1900.0 498.0Q1894 505 1873 505Q1848 505 1841.5 499.0Q1835 493 1835 467ZM1943 144Q1928 144 1917.5 154.5Q1907 165 1907 180V228Q1907 253 1924.5 270.5Q1942 288 1967 288H2082Q2099 288 2111.0 276.5Q2123 265 2123 248V180Q2123 165 2112.5 154.5Q2102 144 2087 144Z" style="fill:#00d26a;stroke:none" transform="scale(1,-1) translate(0,-256)" /></svg>