<?xml version="1.0" encoding="utf-8" ?>
<svg baseProfile="full" height="256" version="1.1" width="256" xmlns="http://www.w3.org/2000/svg" xmlns:ev="http://www.w3.org/2001/xml-events" xmlns:xlink="http://www.w3.org/1999/xlink"><defs /><path d="M901 1366 950 911Q956 854 965.5 797.5Q975 741 975 683Q975 625 965.5 568.5Q956 512 950 455L901 0Q888 -4 859.0 -13.5Q830 -23 793.5 -34.5Q757 -46 718.0 -58.0Q679 -70 644.5 -80.5Q610 -91 585.0 -97.5Q560 -104 553 -104Q533 -104 518.0 -89.0Q503 -74 503 -54V1222Q503 1239 513.5 1252.0Q524 1265 540 1270ZM1402 1222 1907 1364 1956 910Q1962 853 1971.5 797.0Q1981 741 1981 683Q1981 625 1971.5 569.0Q1962 513 1956 456L1907 1L1402 -143L1357 312Q1351 369 1342.5 425.0Q1334 481 1334 539Q1334 597 1342.5 653.5Q1351 710 1357 767Z" style="fill:#00a6ed;stroke:none" transform="scale(1,-1) translate(0,-256)" /></svg>