<?xml version="1.0" encoding="utf-8" ?>
<svg baseProfile="full" height="256" version="1.1" width="256" xmlns="http://www.w3.org/2000/svg" xmlns:ev="http://www.w3.org/2001/xml-events" xmlns:xlink="http://www.w3.org/1999/xlink"><defs /><path d="M2268 1407Q2268 1294 2225.5 1195.5Q2183 1097 2109.5 1023.0Q2036 949 1937.0 906.5Q1838 864 1726 864H1353Q1327 864 1309.5 881.5Q1292 899 1292 925V956Q1292 1068 1334.5 1168.5Q1377 1269 1450.5 1345.0Q1524 1421 1622.5 1465.5Q1721 1510 1834 1510H2219L2268 1547ZM615 512V718L687 647H1254Q1364 647 1466.5 618.5Q1569 590 1658.0 537.5Q1747 485 1820.0 412.0Q1893 339 1945.5 250.0Q1998 161 2026.5 58.5Q2055 -44 2055 -154V-199Q2055 -236 2028.5 -262.5Q2002 -289 1965 -289H1416Q1305 -289 1203.0 -260.5Q1101 -232 1012.0 -179.5Q923 -127 850.0 -54.0Q777 19 724.5 108.0Q672 197 643.5 299.5Q615 402 615 512Z" style="fill:#00d26a;stroke:none" transform="scale(1,-1) translate(0,-256)" /></svg>