<?xml version="1.0" encoding="utf-8" ?>
<svg baseProfile="full" height="256" version="1.1" width="256" xmlns="http://www.w3.org/2000/svg" xmlns:ev="http://www.w3.org/2001/xml-events" xmlns:xlink="http://www.w3.org/1999/xlink"><defs /><path d="M1581 1049Q1566 1049 1554.5 1059.5Q1543 1070 1543 1086Q1543 1106 1563 1118L2143 1435Q2167 1448 2181.0 1472.0Q2195 1496 2195 1523V1687Q2195 1702 2206.0 1713.0Q2217 1724 2232 1724Q2247 1724 2257.5 1713.0Q2268 1702 2268 1687V1522Q2268 1475 2244.5 1434.0Q2221 1393 2179 1370L1598 1053Q1591 1049 1581 1049ZM1629 -15Q1652 -15 1667.5 1.0Q1683 17 1683 40Q1683 54 1675.5 66.5Q1668 79 1655 86L799 554Q764 573 743.5 608.0Q723 643 723 682V925Q723 948 707.5 963.5Q692 979 669 979Q647 979 631.0 963.0Q615 947 615 925V682Q615 611 650.5 552.0Q686 493 748 459L1604 -8Q1618 -15 1629 -15Z" style="fill:#008463;stroke:none" transform="scale(1,-1) translate(0,-256)" /></svg>