<?xml version="1.0" encoding="utf-8" ?>
<svg baseProfile="full" height="256" version="1.1" width="256" xmlns="http://www.w3.org/2000/svg" xmlns:ev="http://www.w3.org/2001/xml-events" xmlns:xlink="http://www.w3.org/1999/xlink"><defs /><path d="M576 1400Q562 1400 551.0 1411.0Q540 1422 540 1436Q540 1451 551 1462Q612 1526 686.5 1575.0Q761 1624 843.0 1657.5Q925 1691 1012.5 1708.0Q1100 1725 1187 1725Q1218 1725 1251.5 1723.0Q1285 1721 1319.0 1716.5Q1353 1712 1386.0 1704.5Q1419 1697 1448 1686Q1459 1681 1466.5 1673.5Q1474 1666 1474 1653Q1474 1639 1463.5 1627.5Q1453 1616 1439 1616Q1436 1616 1433.5 1616.5Q1431 1617 1428 1618Q1368 1635 1308.5 1644.0Q1249 1653 1187 1653Q1054 1653 929.5 1612.5Q805 1572 698 1493Q672 1473 649.0 1452.0Q626 1431 602 1410Q590 1400 576 1400ZM436 684Q421 684 410.5 694.5Q400 705 400 720Q400 828 428.0 929.0Q456 1030 507.5 1117.5Q559 1205 631.0 1277.0Q703 1349 790.5 1400.5Q878 1452 978.5 1480.0Q1079 1508 1187 1508Q1202 1508 1212.5 1497.5Q1223 1487 1223 1472Q1223 1457 1212.5 1446.5Q1202 1436 1187 1436Q1088 1436 997.0 1410.5Q906 1385 826.5 1338.0Q747 1291 681.5 1225.5Q616 1160 569.5 1080.5Q523 1001 497.5 909.5Q472 818 472 720Q472 705 461.5 694.5Q451 684 436 684ZM1859 684Q1859 669 1869.5 659.0Q1880 649 1895 649Q2002 649 2096.0 689.5Q2190 730 2260.5 800.0Q2331 870 2371.5 964.5Q2412 1059 2412 1166Q2412 1180 2401.0 1191.0Q2390 1202 2376 1202Q2361 1202 2350.5 1191.5Q2340 1181 2340 1166Q2340 1112 2327.0 1060.0Q2314 1008 2289.5 961.0Q2265 914 2230.0 873.0Q2195 832 2151 801Q2095 761 2029.5 740.5Q1964 720 1895 720Q1880 720 1869.5 709.5Q1859 699 1859 684Z" style="fill:#d3d3d3;stroke:none" transform="scale(1,-1) translate(0,-256)" /></svg>