<?xml version="1.0" encoding="utf-8" ?>
<svg baseProfile="full" height="256" version="1.1" width="256" xmlns="http://www.w3.org/2000/svg" xmlns:ev="http://www.w3.org/2001/xml-events" xmlns:xlink="http://www.w3.org/1999/xlink"><defs /><path d="M1597 1072Q1610 1072 1618.5 1063.5Q1627 1055 1627 1042V492Q1648 484 1661 468L2165 899Q2172 906 2184 906Q2197 906 2205.5 897.5Q2214 889 2214 877Q2214 862 2204 854L1682 407Q1681 373 1656.0 349.0Q1631 325 1597 325Q1579 325 1563.5 332.0Q1548 339 1537.0 351.0Q1526 363 1519.5 378.5Q1513 394 1513 412Q1513 438 1528.0 460.5Q1543 483 1568 492V693H1245V492Q1271 482 1285.5 460.0Q1300 438 1300 410Q1300 375 1275.0 350.0Q1250 325 1215 325Q1198 325 1181.0 333.5Q1164 342 1151.0 355.5Q1138 369 1132.0 386.5Q1126 404 1131 422L625 854Q615 862 615 877Q615 889 623.5 897.5Q632 906 645 906Q657 906 664 899L1159 476Q1170 486 1186 492V1042Q1186 1054 1194.5 1063.0Q1203 1072 1215 1072Q1228 1072 1236.5 1063.5Q1245 1055 1245 1042V752H1568V1042Q1568 1054 1576.5 1063.0Q1585 1072 1597 1072ZM1623 412Q1623 423 1615.5 430.5Q1608 438 1597 438Q1585 438 1578.5 429.5Q1572 421 1572 410Q1572 399 1579.0 391.5Q1586 384 1597 384Q1609 384 1616.0 392.5Q1623 401 1623 412Z" style="fill:#d3d3d3;stroke:none" transform="scale(1,-1) translate(0,-256)" /></svg>