<?xml version="1.0" encoding="utf-8" ?>
<svg baseProfile="full" height="256" version="1.1" width="256" xmlns="http://www.w3.org/2000/svg" xmlns:ev="http://www.w3.org/2001/xml-events" xmlns:xlink="http://www.w3.org/1999/xlink"><defs /><path d="M1427 408Q1437 408 1445.0 401.0Q1453 394 1453 383Q1453 371 1446.0 362.0Q1439 353 1426 353H1409Q1402 353 1397.5 358.0Q1393 363 1392 369Q1389 374 1383 374Q1378 374 1376.5 370.5Q1375 367 1373.0 363.5Q1371 360 1367.5 356.5Q1364 353 1357 353Q1346 353 1337.5 361.5Q1329 370 1329 381Q1329 392 1337.5 400.0Q1346 408 1357 408H1427Z" style="fill:#26eafc;stroke:none" transform="scale(1,-1) translate(0,-256)" /></svg>