<?xml version="1.0" encoding="utf-8" ?>
<svg baseProfile="full" height="256" version="1.1" width="256" xmlns="http://www.w3.org/2000/svg" xmlns:ev="http://www.w3.org/2001/xml-events" xmlns:xlink="http://www.w3.org/1999/xlink"><defs /><path d="M1357 415H1427Q1441 415 1450.0 406.0Q1459 397 1459 383Q1459 369 1450.0 358.0Q1441 347 1426 347H1409Q1401 347 1394.5 352.5Q1388 358 1386 366L1383 368Q1381 366 1379.5 363.0Q1378 360 1375.5 356.0Q1373 352 1369.0 349.5Q1365 347 1357 347Q1343 347 1333.0 357.0Q1323 367 1323 381Q1323 395 1333.0 405.0Q1343 415 1357 415ZM1336 381Q1336 372 1342.0 366.0Q1348 360 1357 360Q1363 360 1365.0 363.5Q1367 367 1369.0 370.5Q1371 374 1373.5 377.5Q1376 381 1383 381Q1390 381 1393.0 377.5Q1396 374 1397.5 370.5Q1399 367 1401.5 363.5Q1404 360 1409 360H1426Q1437 360 1441.5 367.5Q1446 375 1446 384Q1446 392 1440.5 397.0Q1435 402 1427 402H1357Q1349 402 1342.5 395.5Q1336 389 1336 381Z" style="fill:#d3d3d3;stroke:none" transform="scale(1,-1) translate(0,-256)" /></svg>