<?xml version="1.0" encoding="utf-8" ?>
<svg baseProfile="full" height="256" version="1.1" width="256" xmlns="http://www.w3.org/2000/svg" xmlns:ev="http://www.w3.org/2001/xml-events" xmlns:xlink="http://www.w3.org/1999/xlink"><defs /><path d="M1270 -12Q1273 -16 1283.0 -32.5Q1293 -49 1304.0 -67.5Q1315 -86 1323.5 -101.0Q1332 -116 1332 -118Q1332 -124 1328 -125L1237 -153H1235Q1228 -153 1224 -145Q1224 -138 1229.0 -131.5Q1234 -125 1240.0 -119.0Q1246 -113 1251.0 -107.0Q1256 -101 1256 -95Q1256 -94 1251.5 -85.5Q1247 -77 1241.5 -67.5Q1236 -58 1230.5 -49.5Q1225 -41 1224 -38ZM1436 -144 1472 -94 1552 -170Q1557 -175 1557 -182Q1557 -199 1553.0 -219.5Q1549 -240 1546 -257Q1544 -268 1533 -268Q1526 -268 1521.5 -260.5Q1517 -253 1513.5 -243.0Q1510 -233 1507.5 -223.5Q1505 -214 1504 -210Q1502 -204 1493.0 -194.5Q1484 -185 1473.0 -175.5Q1462 -166 1451.5 -157.5Q1441 -149 1436 -144Z" style="fill:#635994;stroke:none" transform="scale(1,-1) translate(0,-256)" /></svg>