<?xml version="1.0" encoding="utf-8" ?>
<svg baseProfile="full" height="256" version="1.1" width="256" xmlns="http://www.w3.org/2000/svg" xmlns:ev="http://www.w3.org/2001/xml-events" xmlns:xlink="http://www.w3.org/1999/xlink"><defs /><path d="M1390 486H1441Q1464 486 1480.5 469.0Q1497 452 1497 429V372Q1497 330 1473.0 310.0Q1449 290 1409 290Q1384 290 1366.0 308.0Q1348 326 1348 351V397H1393V407Q1378 407 1367.5 405.5Q1357 404 1349.5 405.0Q1342 406 1338.5 411.0Q1335 416 1335 430Q1335 453 1351.0 469.5Q1367 486 1390 486Z" style="fill:#00a6ed;stroke:none" transform="scale(1,-1) translate(0,-256)" /></svg>