<?xml version="1.0" encoding="utf-8" ?>
<svg baseProfile="full" height="256" version="1.1" width="256" xmlns="http://www.w3.org/2000/svg" xmlns:ev="http://www.w3.org/2001/xml-events" xmlns:xlink="http://www.w3.org/1999/xlink"><defs /><path d="M1579 420H1643V348Q1643 312 1618.0 286.5Q1593 261 1557 261H1510Q1510 249 1510.5 223.5Q1511 198 1511.5 171.0Q1512 144 1511.0 120.5Q1510 97 1507 88Q1503 77 1493.5 58.5Q1484 40 1474.0 20.5Q1464 1 1456.5 -16.0Q1449 -33 1449 -40Q1449 -53 1458.5 -64.5Q1468 -76 1479.5 -87.0Q1491 -98 1500.5 -110.0Q1510 -122 1510 -136Q1510 -153 1498.0 -164.5Q1486 -176 1469 -176Q1461 -176 1452.5 -172.5Q1444 -169 1439 -163Q1426 -148 1413.5 -135.0Q1401 -122 1391.0 -107.5Q1381 -93 1375.0 -77.0Q1369 -61 1369 -40Q1369 -11 1382.0 14.0Q1395 39 1407 64H1253Q1256 57 1263.0 43.5Q1270 30 1277.0 15.5Q1284 1 1289.5 -12.5Q1295 -26 1295 -34Q1295 -51 1283.5 -62.0Q1272 -73 1255 -73Q1245 -73 1234.5 -67.5Q1224 -62 1219 -52L1182 28Q1177 37 1174.5 45.5Q1172 54 1172 65Q1172 100 1188.5 116.5Q1205 133 1230.0 139.0Q1255 145 1283.5 144.5Q1312 144 1335 144V263H1283Q1265 263 1249.5 270.0Q1234 277 1222.5 288.5Q1211 300 1204.0 315.5Q1197 331 1197 349V421H1261V349Q1261 340 1267.5 333.5Q1274 327 1283 327H1557Q1566 327 1572.5 333.5Q1579 340 1579 349V421Z" style="fill:#ff6723;stroke:none" transform="scale(1,-1) translate(0,-256)" /></svg>