<?xml version="1.0" encoding="utf-8" ?>
<svg baseProfile="full" height="256" version="1.1" width="256" xmlns="http://www.w3.org/2000/svg" xmlns:ev="http://www.w3.org/2001/xml-events" xmlns:xlink="http://www.w3.org/1999/xlink"><defs /><path d="M634 1408Q644 1428 659.0 1448.0Q674 1468 692.0 1486.5Q710 1505 729.5 1520.5Q749 1536 768 1548L1077 980Q1005 959 938.0 930.0Q871 901 805 864Q773 846 740.0 837.0Q707 828 670 828Q598 828 535.5 864.0Q473 900 437 962Q414 1001 407.0 1040.5Q400 1080 400 1125Q400 1177 417.5 1224.0Q435 1271 466.0 1308.5Q497 1346 540.0 1372.0Q583 1398 634 1408ZM2142 828Q2106 828 2073.0 837.5Q2040 847 2008 864Q1951 896 1892.5 922.5Q1834 949 1771 969L2157 1443L2179 1409Q2230 1398 2273.0 1372.0Q2316 1346 2347.0 1308.5Q2378 1271 2395.5 1223.5Q2413 1176 2413 1124Q2413 1079 2405.5 1040.5Q2398 1002 2375 962Q2339 899 2276.5 863.5Q2214 828 2142 828Z" style="fill:#f9c23c;stroke:none" transform="scale(1,-1) translate(0,-256)" /></svg>