<?xml version="1.0" encoding="utf-8" ?>
<svg baseProfile="full" height="256" version="1.1" width="256" xmlns="http://www.w3.org/2000/svg" xmlns:ev="http://www.w3.org/2001/xml-events" xmlns:xlink="http://www.w3.org/1999/xlink"><defs /><path d="M1873 863Q1836 863 1803.0 877.0Q1770 891 1745.5 915.5Q1721 940 1707.0 972.5Q1693 1005 1693 1042Q1693 1079 1707.0 1112.0Q1721 1145 1745.5 1169.5Q1770 1194 1803.0 1208.0Q1836 1222 1873 1222Q1910 1222 1943.0 1208.0Q1976 1194 2000.5 1169.5Q2025 1145 2039.0 1112.0Q2053 1079 2053 1042Q2053 1005 2039.0 972.5Q2025 940 2000.5 915.5Q1976 891 1943.0 877.0Q1910 863 1873 863ZM2044 -59Q2013 -24 1997.0 19.0Q1981 62 1981 108Q1981 160 2001.0 206.0Q2021 252 2055.0 286.0Q2089 320 2135.0 340.0Q2181 360 2233 360Q2260 360 2286.0 354.0Q2312 348 2337 337Q2289 222 2215.0 121.0Q2141 20 2044 -59Z" style="fill:#6b438b;stroke:none" transform="scale(1,-1) translate(0,-256)" /></svg>