<?xml version="1.0" encoding="utf-8" ?>
<svg baseProfile="full" height="256" version="1.1" width="256" xmlns="http://www.w3.org/2000/svg" xmlns:ev="http://www.w3.org/2001/xml-events" xmlns:xlink="http://www.w3.org/1999/xlink"><defs /><path d="M2412 719Q2412 563 2366.0 417.5Q2320 272 2235.0 148.5Q2150 25 2031.0 -70.0Q1912 -165 1766 -221Q1743 -230 1710.0 -240.5Q1677 -251 1641.5 -260.5Q1606 -270 1572.0 -276.0Q1538 -282 1514 -282Q1499 -282 1485.5 -271.5Q1472 -261 1459.0 -248.5Q1446 -236 1433.0 -225.5Q1420 -215 1406 -215Q1261 -215 1146.0 -182.5Q1031 -150 943.5 -90.0Q856 -30 793.5 54.5Q731 139 691.5 243.0Q652 347 633.5 467.5Q615 588 615 719Q615 922 658.5 1082.0Q702 1242 797.0 1353.0Q892 1464 1042.5 1522.5Q1193 1581 1406 1581Q1418 1581 1430.0 1603.0Q1442 1625 1454.0 1651.0Q1466 1677 1478.5 1699.0Q1491 1721 1504 1721Q1529 1721 1563.0 1715.0Q1597 1709 1632.0 1700.5Q1667 1692 1700.5 1681.5Q1734 1671 1758 1662Q1905 1607 2026.0 1512.0Q2147 1417 2232.5 1293.0Q2318 1169 2365.0 1022.5Q2412 876 2412 719Z" style="fill:#8d65c5;stroke:none" transform="scale(1,-1) translate(0,-256)" /></svg>