<?xml version="1.0" encoding="utf-8" ?>
<svg baseProfile="full" height="256" version="1.1" width="256" xmlns="http://www.w3.org/2000/svg" xmlns:ev="http://www.w3.org/2001/xml-events" xmlns:xlink="http://www.w3.org/1999/xlink"><defs /><path d="M1478 1474Q1478 1451 1469.5 1431.5Q1461 1412 1446.5 1397.5Q1432 1383 1412.0 1374.5Q1392 1366 1370 1366Q1347 1366 1327.5 1374.5Q1308 1383 1293.5 1397.5Q1279 1412 1270.5 1431.5Q1262 1451 1262 1474Q1262 1496 1270.5 1516.0Q1279 1536 1294.0 1550.0Q1309 1564 1328.5 1572.5Q1348 1581 1370 1581Q1392 1581 1411.5 1572.5Q1431 1564 1446.0 1550.0Q1461 1536 1469.5 1516.0Q1478 1496 1478 1474ZM1622 324Q1622 287 1608.0 254.0Q1594 221 1569.5 196.5Q1545 172 1512.0 158.0Q1479 144 1442 144Q1405 144 1372.0 158.0Q1339 172 1314.5 196.5Q1290 221 1276.0 254.0Q1262 287 1262 324Q1262 361 1276.0 393.5Q1290 426 1314.5 450.5Q1339 475 1372.0 489.0Q1405 503 1442 503Q1479 503 1512.0 489.0Q1545 475 1569.5 450.5Q1594 426 1608.0 393.5Q1622 361 1622 324ZM1190 971Q1190 1023 1170.0 1068.5Q1150 1114 1116.0 1148.0Q1082 1182 1036.5 1202.0Q991 1222 939 1222Q887 1222 841.5 1202.0Q796 1182 761.5 1148.0Q727 1114 707.0 1068.5Q687 1023 687 971Q687 919 707.0 873.0Q727 827 761.0 793.0Q795 759 841.0 739.0Q887 719 939 719Q991 719 1037.0 739.0Q1083 759 1117.0 793.0Q1151 827 1170.5 873.0Q1190 919 1190 971ZM1880 1222H1873Q1836 1222 1803.0 1208.0Q1770 1194 1745.5 1169.5Q1721 1145 1707.0 1112.0Q1693 1079 1693 1042Q1693 1005 1707.0 972.5Q1721 940 1745.5 915.5Q1770 891 1803.0 877.0Q1836 863 1873 863Q1896 863 1917.5 868.5Q1939 874 1959 884Q1903 911 1870.0 963.5Q1837 1016 1837 1078Q1837 1115 1849.0 1149.0Q1861 1183 1884 1212ZM597 120Q673 17 772.5 -63.0Q872 -143 988 -197Q1017 -163 1032.0 -122.0Q1047 -81 1047 -36Q1047 16 1027.0 62.0Q1007 108 973.0 142.0Q939 176 893.0 196.0Q847 216 795 216Q737 216 685.0 190.5Q633 165 597 120Z" style="fill:#f9c23c;stroke:none" transform="scale(1,-1) translate(0,-256)" /></svg>