<?xml version="1.0" encoding="utf-8" ?>
<svg baseProfile="full" height="256" version="1.1" width="256" xmlns="http://www.w3.org/2000/svg" xmlns:ev="http://www.w3.org/2001/xml-events" xmlns:xlink="http://www.w3.org/1999/xlink"><defs /><path d="M865 791Q892 791 915.5 779.5Q939 768 956.0 749.5Q973 731 983.0 706.5Q993 682 993 656Q993 643 991.5 631.0Q990 619 989 606Q1006 601 1016.5 587.0Q1027 573 1027 556Q1027 536 1014.0 521.0Q1001 506 981 504Q980 480 977.0 458.0Q974 436 965.5 417.0Q957 398 942.5 383.0Q928 368 903 358Q969 345 1024.5 308.0Q1080 271 1118 217Q1118 185 1099.0 164.5Q1080 144 1048 144H612Q587 144 567.5 160.5Q548 177 543 200Q581 259 637.5 300.0Q694 341 763 356Q737 365 721.5 380.5Q706 396 697.0 415.0Q688 434 684.0 457.0Q680 480 679 504Q659 506 646.0 521.0Q633 536 633 556Q633 573 643.5 587.0Q654 601 671 606Q670 619 668.5 631.5Q667 644 667 658Q667 685 676.5 709.5Q686 734 703.0 752.0Q720 770 743.5 780.5Q767 791 795 791ZM1370 -72Q1354 -72 1344.0 -62.0Q1334 -52 1334 -36Q1334 -19 1343.5 -9.5Q1353 0 1370 0H2089Q2105 0 2115.0 -10.0Q2125 -20 2125 -36Q2125 -50 2114.0 -61.0Q2103 -72 2089 -72Z" style="fill:#321b41;stroke:none" transform="scale(1,-1) translate(0,-256)" /></svg>