<?xml version="1.0" encoding="utf-8" ?>
<svg baseProfile="full" height="256" version="1.1" width="256" xmlns="http://www.w3.org/2000/svg" xmlns:ev="http://www.w3.org/2001/xml-events" xmlns:xlink="http://www.w3.org/1999/xlink"><defs /><path d="M1048 216H614Q605 216 597.0 211.0Q589 206 581.5 199.5Q574 193 567.5 188.0Q561 183 556 183Q548 183 545.5 196.5Q543 210 543 216V791Q543 820 563.5 841.5Q584 863 614 863H1048Q1077 863 1097.5 841.5Q1118 820 1118 791V216Q1118 211 1117.0 200.0Q1116 189 1108 189Q1104 189 1098.0 193.0Q1092 197 1084.0 202.5Q1076 208 1067.0 212.0Q1058 216 1048 216Z" style="fill:#ffffff;stroke:none" transform="scale(1,-1) translate(0,-256)" /></svg>