<?xml version="1.0" encoding="utf-8" ?>
<svg baseProfile="full" height="256" version="1.1" width="256" xmlns="http://www.w3.org/2000/svg" xmlns:ev="http://www.w3.org/2001/xml-events" xmlns:xlink="http://www.w3.org/1999/xlink"><defs /><path d="M2254 -287H558Q526 -287 497.0 -274.5Q468 -262 446.5 -240.5Q425 -219 412.5 -190.0Q400 -161 400 -129V848Q400 880 412.5 909.0Q425 938 446.5 959.5Q468 981 497.0 993.5Q526 1006 558 1006H2247Q2280 1006 2310.0 994.0Q2340 982 2362.5 961.0Q2385 940 2398.5 911.0Q2412 882 2412 848V-122Q2412 -155 2400.0 -185.0Q2388 -215 2367.0 -237.5Q2346 -260 2317.0 -273.5Q2288 -287 2254 -287Z" style="fill:#26c9fc;stroke:none" transform="scale(1,-1) translate(0,-256)" /></svg>