<?xml version="1.0" encoding="utf-8" ?>
<svg baseProfile="full" height="256" version="1.1" width="256" xmlns="http://www.w3.org/2000/svg" xmlns:ev="http://www.w3.org/2001/xml-events" xmlns:xlink="http://www.w3.org/1999/xlink"><defs /><path d="M2161 791Q2175 791 2186.0 780.0Q2197 769 2197 755Q2197 741 2186.0 730.0Q2175 719 2161 719H1298Q1283 719 1272.5 729.5Q1262 740 1262 755Q1262 770 1272.5 780.5Q1283 791 1298 791ZM1262 539Q1262 554 1272.5 564.5Q1283 575 1298 575H2161Q2175 575 2186.0 564.0Q2197 553 2197 539Q2197 525 2186.0 514.0Q2175 503 2161 503H1298Q1283 503 1272.5 513.5Q1262 524 1262 539ZM1262 324Q1262 338 1273.0 349.0Q1284 360 1298 360H2161Q2175 360 2186.0 349.0Q2197 338 2197 324Q2197 310 2186.0 299.0Q2175 288 2161 288H1298Q1283 288 1272.5 298.5Q1262 309 1262 324Z" style="fill:#0074ba;stroke:none" transform="scale(1,-1) translate(0,-256)" /></svg>