<?xml version="1.0" encoding="utf-8" ?>
<svg baseProfile="full" height="256" version="1.1" width="256" xmlns="http://www.w3.org/2000/svg" xmlns:ev="http://www.w3.org/2001/xml-events" xmlns:xlink="http://www.w3.org/1999/xlink"><defs /><path d="M841 159Q752 248 692.5 354.0Q633 460 603.5 574.5Q574 689 574.0 807.5Q574 926 603.5 1040.5Q633 1155 692.5 1261.0Q752 1367 841 1456L1032 1647H1039L1123 1563Q1055 1495 1021.5 1410.5Q988 1326 980.0 1234.0Q972 1142 984.5 1048.0Q997 954 1020 866Q1075 659 1190 443Q1388 346 1580 306Q1662 289 1750.0 282.5Q1838 276 1925.0 289.0Q2012 302 2093.5 338.5Q2175 375 2243 443L2328 357V352L2138 160Q2049 71 1943.0 11.5Q1837 -48 1722.5 -77.5Q1608 -107 1489.5 -107.0Q1371 -107 1256.5 -77.5Q1142 -48 1036.0 11.0Q930 70 841 159Z" style="fill:#fff3d7;stroke:none" transform="scale(1,-1) translate(0,-256)" /></svg>