<?xml version="1.0" encoding="utf-8" ?>
<svg baseProfile="full" height="256" version="1.1" width="256" xmlns="http://www.w3.org/2000/svg" xmlns:ev="http://www.w3.org/2001/xml-events" xmlns:xlink="http://www.w3.org/1999/xlink"><defs /><path d="M1259 1096Q1259 1063 1236.0 1040.0Q1213 1017 1180 1017Q1148 1017 1125.0 1040.0Q1102 1063 1102 1096Q1102 1128 1125.0 1151.0Q1148 1174 1180 1174Q1213 1174 1236.0 1151.0Q1259 1128 1259 1096ZM1084 618Q1116 618 1139.0 641.0Q1162 664 1162 697Q1162 729 1139.0 752.0Q1116 775 1084 775Q1052 775 1029.0 752.0Q1006 729 1006 697Q1006 664 1029.0 641.0Q1052 618 1084 618ZM1377 325Q1409 325 1432.5 348.0Q1456 371 1456 403Q1456 436 1432.5 459.0Q1409 482 1377 482Q1345 482 1322.0 459.0Q1299 436 1299 403Q1299 371 1322.0 348.0Q1345 325 1377 325ZM1474 723Q1507 723 1530.0 746.0Q1553 769 1553 802Q1553 834 1530.0 857.0Q1507 880 1474 880Q1442 880 1419.0 857.0Q1396 834 1396 802Q1396 769 1419.0 746.0Q1442 723 1474 723ZM1854 500Q1854 467 1831.0 444.0Q1808 421 1775 421Q1743 421 1720.0 444.0Q1697 467 1697 500Q1697 532 1720.0 555.0Q1743 578 1775 578Q1808 578 1831.0 555.0Q1854 532 1854 500Z" style="fill:#1c1c1c;stroke:none" transform="scale(1,-1) translate(0,-256)" /></svg>