<?xml version="1.0" encoding="utf-8" ?>
<svg baseProfile="full" height="256" version="1.1" width="256" xmlns="http://www.w3.org/2000/svg" xmlns:ev="http://www.w3.org/2001/xml-events" xmlns:xlink="http://www.w3.org/1999/xlink"><defs /><path d="M2370 316Q2388 298 2397.5 274.5Q2407 251 2407.0 227.0Q2407 203 2398.0 180.0Q2389 157 2371 138L2271 39Q2164 -68 2037.5 -139.5Q1911 -211 1774.5 -246.5Q1638 -282 1496.5 -282.0Q1355 -282 1218.5 -246.5Q1082 -211 955.0 -139.5Q828 -68 721 39Q614 146 542.5 272.5Q471 399 435.5 536.0Q400 673 400.0 814.0Q400 955 435.5 1092.0Q471 1229 542.5 1355.5Q614 1482 721 1589L820 1689Q838 1707 861.0 1716.0Q884 1725 908.0 1725.0Q932 1725 955.5 1716.0Q979 1707 997 1689L1039 1647Q962 1570 921.5 1474.0Q881 1378 866.5 1273.0Q852 1168 859.5 1059.5Q867 951 886 849Q931 610 1039 357Q1292 249 1530 204Q1632 185 1740.5 178.0Q1849 171 1954.0 185.0Q2059 199 2155.0 239.5Q2251 280 2328 357L2370 316Z" style="fill:#008463;stroke:none" transform="scale(1,-1) translate(0,-256)" /></svg>