<?xml version="1.0" encoding="utf-8" ?>
<svg baseProfile="full" height="256" version="1.1" width="256" xmlns="http://www.w3.org/2000/svg" xmlns:ev="http://www.w3.org/2001/xml-events" xmlns:xlink="http://www.w3.org/1999/xlink"><defs /><path d="M791 258Q779 258 769.5 263.5Q760 269 751.0 277.5Q742 286 734.5 295.0Q727 304 720 311Q714 317 710.0 325.0Q706 333 706 342Q706 360 719.5 373.0Q733 386 750 386Q768 386 781 373Q788 366 797.5 358.0Q807 350 815.0 341.0Q823 332 829.0 322.0Q835 312 835 301Q835 282 822.0 270.0Q809 258 791 258ZM1157 258Q1139 258 1125.5 271.0Q1112 284 1112 301Q1112 310 1116.0 318.0Q1120 326 1126 332Q1132 338 1140.0 347.5Q1148 357 1157.0 365.5Q1166 374 1176.0 380.0Q1186 386 1197 386Q1215 386 1228.0 373.0Q1241 360 1241 342Q1241 324 1228 311Q1221 304 1213.0 295.0Q1205 286 1196.5 277.5Q1188 269 1178.0 263.5Q1168 258 1157 258Z" style="fill:#a56953;stroke:none" transform="scale(1,-1) translate(0,-256)" /></svg>