<?xml version="1.0" encoding="utf-8" ?>
<svg baseProfile="full" height="256" version="1.1" width="256" xmlns="http://www.w3.org/2000/svg" xmlns:ev="http://www.w3.org/2001/xml-events" xmlns:xlink="http://www.w3.org/1999/xlink"><defs /><path d="M1113 1006Q1141 1006 1160.0 986.5Q1179 967 1179 939V934Q1181 935 1209.5 935.0Q1238 935 1283.0 935.5Q1328 936 1386.0 936.0Q1444 936 1505.0 936.0Q1566 936 1626.0 935.5Q1686 935 1735.0 935.0Q1784 935 1818.5 935.0Q1853 935 1863 935Q1942 935 2013.5 922.5Q2085 910 2147.5 880.5Q2210 851 2262.0 803.0Q2314 755 2354 683Q2382 632 2397.5 572.0Q2413 512 2413 454V186Q2413 121 2412.5 57.5Q2412 -6 2412 -71Q2412 -86 2401.5 -96.5Q2391 -107 2376 -107Q2358 -107 2350.0 -95.5Q2342 -84 2339.5 -68.0Q2337 -52 2338.5 -35.0Q2340 -18 2340 -7Q2325 -25 2306.5 -40.0Q2288 -55 2268 -67V-251Q2268 -266 2258.0 -276.5Q2248 -287 2233 -287H1895Q1881 -287 1870.5 -276.0Q1860 -265 1860 -251Q1860 -245 1867.0 -230.0Q1874 -215 1882.5 -195.5Q1891 -176 1898.5 -153.0Q1906 -130 1908 -107L1693 0L1478 -108V-251Q1478 -266 1467.5 -276.5Q1457 -287 1442 -287H1098Q1083 -287 1073.0 -276.5Q1063 -266 1063 -251Q1063 -242 1071.5 -226.5Q1080 -211 1090.5 -190.0Q1101 -169 1109.5 -141.5Q1118 -114 1118 -81V-41H704Q641 -41 585.5 -17.0Q530 7 489.0 48.0Q448 89 424.0 144.5Q400 200 400 263Q400 319 419.5 370.0Q439 421 474.0 461.5Q509 502 556.5 528.5Q604 555 660 563V715Q660 739 669.0 759.5Q678 780 693.5 795.0Q709 810 729.5 818.5Q750 827 773 827H818Q813 837 805.0 852.0Q797 867 789.0 882.5Q781 898 775.5 913.5Q770 929 770 940Q770 968 789.5 987.0Q809 1006 837 1006Q864 1006 883.5 986.5Q903 967 903 940V827H965Q1001 871 1047 897Q1047 915 1048.0 934.5Q1049 954 1055.0 970.0Q1061 986 1074.5 996.0Q1088 1006 1113 1006Z" style="fill:#9b9b9b;stroke:none" transform="scale(1,-1) translate(0,-256)" /></svg>