<?xml version="1.0" encoding="utf-8" ?>
<svg baseProfile="full" height="256" version="1.1" width="256" xmlns="http://www.w3.org/2000/svg" xmlns:ev="http://www.w3.org/2001/xml-events" xmlns:xlink="http://www.w3.org/1999/xlink"><defs /><path d="M831 585Q831 600 841.5 610.0Q852 620 867 620Q882 620 892.5 610.0Q903 600 903 585V539Q903 524 892.5 513.5Q882 503 867 503Q852 503 841.5 513.5Q831 524 831 539ZM1047 585Q1047 600 1057.5 610.0Q1068 620 1083 620Q1098 620 1108.0 610.0Q1118 600 1118 585V539Q1118 524 1108.0 513.5Q1098 503 1083 503Q1068 503 1057.5 513.5Q1047 524 1047 539Z" style="fill:#1c1c1c;stroke:none" transform="scale(1,-1) translate(0,-256)" /></svg>