<?xml version="1.0" encoding="utf-8" ?>
<svg baseProfile="full" height="256" version="1.1" width="256" xmlns="http://www.w3.org/2000/svg" xmlns:ev="http://www.w3.org/2001/xml-events" xmlns:xlink="http://www.w3.org/1999/xlink"><defs /><path d="M831 288H1190L983 -264Q975 -287 950 -287H667Q652 -287 641.5 -276.0Q631 -265 631 -250Q631 -245 644.5 -207.0Q658 -169 678.5 -113.5Q699 -58 723.5 7.0Q748 72 770.5 130.0Q793 188 809.5 231.5Q826 275 831 288ZM1622 288H1981L1774 -264Q1770 -275 1760.5 -281.0Q1751 -287 1740 -287H1458Q1443 -287 1432.5 -276.5Q1422 -266 1422 -251Q1422 -247 1430.0 -224.5Q1438 -202 1451.0 -166.0Q1464 -130 1480.5 -85.5Q1497 -41 1515.0 6.5Q1533 54 1550.5 100.0Q1568 146 1582.5 185.0Q1597 224 1607.5 251.0Q1618 278 1622 288Z" style="fill:#636363;stroke:none" transform="scale(1,-1) translate(0,-256)" /></svg>