<?xml version="1.0" encoding="utf-8" ?>
<svg baseProfile="full" height="256" version="1.1" width="256" xmlns="http://www.w3.org/2000/svg" xmlns:ev="http://www.w3.org/2001/xml-events" xmlns:xlink="http://www.w3.org/1999/xlink"><defs /><path d="M1863 935Q1941 935 2012.5 922.5Q2084 910 2147.0 880.5Q2210 851 2262.5 802.5Q2315 754 2354 683Q2383 631 2398.0 572.5Q2413 514 2413 454V186Q2413 125 2390.0 71.5Q2367 18 2327.0 -22.0Q2287 -62 2233.5 -85.0Q2180 -108 2119 -108H1302Q1270 -61 1223.5 -26.0Q1177 9 1123.5 33.5Q1070 58 1013.0 75.0Q956 92 903 103V649Q903 708 925.5 760.0Q948 812 986.5 851.0Q1025 890 1077.0 912.5Q1129 935 1188 935H1863Z" style="fill:#636363;stroke:none" transform="scale(1,-1) translate(0,-256)" /></svg>