<?xml version="1.0" encoding="utf-8" ?>
<svg baseProfile="full" height="256" version="1.1" width="256" xmlns="http://www.w3.org/2000/svg" xmlns:ev="http://www.w3.org/2001/xml-events" xmlns:xlink="http://www.w3.org/1999/xlink"><defs /><path d="M1279 -210Q1110 -192 985.5 -128.0Q861 -64 778.5 38.0Q696 140 655.5 277.5Q615 415 615 580V1510Q649 1510 678.0 1497.0Q707 1484 729.0 1462.0Q751 1440 763.5 1410.5Q776 1381 776 1348V1029Q776 1020 783.0 1013.0Q790 1006 799 1006Q808 1006 814.5 1013.0Q821 1020 821 1029V1348Q821 1381 834.0 1410.5Q847 1440 869.0 1462.0Q891 1484 920.5 1497.0Q950 1510 983 1510V573Q983 528 996.0 490.5Q1009 453 1033.5 425.5Q1058 398 1094.0 382.5Q1130 367 1177 367Q1215 367 1254 381L1499 96L1254 -208Z" style="fill:#ff6723;stroke:none" transform="scale(1,-1) translate(0,-256)" /></svg>