<?xml version="1.0" encoding="utf-8" ?>
<svg baseProfile="full" height="256" version="1.1" width="256" xmlns="http://www.w3.org/2000/svg" xmlns:ev="http://www.w3.org/2001/xml-events" xmlns:xlink="http://www.w3.org/1999/xlink"><defs /><path d="M1592 1725Q1717 1725 1827.0 1677.5Q1937 1630 2019.0 1548.0Q2101 1466 2148.5 1356.0Q2196 1246 2196 1121V571Q2196 462 2167.5 361.0Q2139 260 2087.5 172.0Q2036 84 1963.5 12.0Q1891 -60 1803.0 -111.5Q1715 -163 1614.0 -191.0Q1513 -219 1404 -219Q1366 -219 1328.5 -216.5Q1291 -214 1254 -209V380Q1314 403 1344.5 451.0Q1375 499 1375 562Q1375 598 1373.0 627.0Q1371 656 1362.0 680.5Q1353 705 1335.0 727.5Q1317 750 1285 773Q1272 782 1266.0 786.0Q1260 790 1255.5 793.0Q1251 796 1245.5 800.5Q1240 805 1228 816Q1159 877 1121.0 960.5Q1083 1044 1083 1137V1216Q1083 1321 1123.0 1414.0Q1163 1507 1232.0 1576.0Q1301 1645 1394.0 1685.0Q1487 1725 1592 1725Z" style="fill:#ffb02e;stroke:none" transform="scale(1,-1) translate(0,-256)" /></svg>