<?xml version="1.0" encoding="utf-8" ?>
<svg baseProfile="full" height="256" version="1.1" width="256" xmlns="http://www.w3.org/2000/svg" xmlns:ev="http://www.w3.org/2001/xml-events" xmlns:xlink="http://www.w3.org/1999/xlink"><defs /><path d="M1852 1366Q1863 1366 1871 1358L2115 1135Q2125 1127 2125 1114Q2125 1101 2115 1093L1871 869Q1864 862 1853 862Q1833 862 1828.0 877.0Q1823 892 1823 908Q1823 922 1824.0 935.5Q1825 949 1825 963Q1825 978 1820.5 993.0Q1816 1008 1797 1008L1088 1010Q1049 1010 1015.0 995.0Q981 980 955.5 954.0Q930 928 915.0 893.5Q900 859 900 821V619Q900 611 894.0 606.5Q888 602 880.0 599.0Q872 596 863.5 594.5Q855 593 849 591Q811 578 783.0 557.5Q755 537 723 514Q716 509 709 509Q701 509 694.0 514.0Q687 519 687 528V822Q687 905 718.5 977.5Q750 1050 805.0 1104.0Q860 1158 932.5 1189.0Q1005 1220 1088 1220H1797Q1816 1220 1820.0 1235.0Q1824 1250 1824 1264Q1824 1278 1823.0 1291.5Q1822 1305 1822 1319Q1822 1335 1827.0 1350.5Q1832 1366 1852 1366ZM1723 429Q1762 429 1796.5 443.5Q1831 458 1856.5 483.5Q1882 509 1897.0 543.5Q1912 578 1912 617V694Q1912 704 1920 712L2081 860Q2090 867 2099 867Q2110 867 2117.5 859.0Q2125 851 2125 840V616Q2125 533 2093.0 460.5Q2061 388 2006.5 334.0Q1952 280 1879.0 249.0Q1806 218 1724 218H1318Q1309 218 1304.0 224.5Q1299 231 1299 239V254Q1299 284 1297.5 300.5Q1296 317 1293.0 331.0Q1290 345 1284.5 360.5Q1279 376 1272 403Q1271 405 1271 410Q1271 418 1276.0 424.0Q1281 430 1289 430ZM1190 270Q1190 222 1171.5 179.0Q1153 136 1121.5 104.5Q1090 73 1047.5 54.5Q1005 36 957 36Q909 36 866.0 54.5Q823 73 791.5 104.5Q760 136 741.5 179.0Q723 222 723 270Q723 318 741.5 360.5Q760 403 791.5 434.5Q823 466 866.0 484.5Q909 503 957 503Q1005 503 1047.5 484.5Q1090 466 1121.5 434.5Q1153 403 1171.5 360.5Q1190 318 1190 270ZM882 396Q882 375 895.5 367.5Q909 360 927 360V164Q927 149 937.5 138.5Q948 128 963 128Q977 128 987.5 139.0Q998 150 998 164V396Q998 410 987.5 421.0Q977 432 963 432H917Q903 432 892.5 421.0Q882 410 882 396Z" style="fill:#ffffff;stroke:none" transform="scale(1,-1) translate(0,-256)" /></svg>