<?xml version="1.0" encoding="utf-8" ?>
<svg baseProfile="full" height="256" version="1.1" width="256" xmlns="http://www.w3.org/2000/svg" xmlns:ev="http://www.w3.org/2001/xml-events" xmlns:xlink="http://www.w3.org/1999/xlink"><defs /><path d="M1478 1725Q1508 1725 1529.0 1704.0Q1550 1683 1550 1653Q1550 1624 1528.5 1603.0Q1507 1582 1478 1582H1334Q1305 1582 1283.5 1603.0Q1262 1624 1262 1653Q1262 1683 1283.0 1704.0Q1304 1725 1334 1725ZM1693 1294Q1722 1294 1743.5 1273.0Q1765 1252 1765 1223V1078Q1765 1049 1743.5 1027.5Q1722 1006 1693 1006H1118Q1089 1006 1067.5 1027.5Q1046 1049 1046 1078V1223Q1046 1252 1067.5 1273.0Q1089 1294 1118 1294Z" style="fill:#212121;stroke:none" transform="scale(1,-1) translate(0,-256)" /></svg>