<?xml version="1.0" encoding="utf-8" ?>
<svg baseProfile="full" height="256" version="1.1" width="256" xmlns="http://www.w3.org/2000/svg" xmlns:ev="http://www.w3.org/2001/xml-events" xmlns:xlink="http://www.w3.org/1999/xlink"><defs /><path d="M1838 -288Q1808 -288 1782.0 -277.0Q1756 -266 1736.0 -246.5Q1716 -227 1704.5 -200.5Q1693 -174 1693 -144Q1693 -114 1704.5 -87.5Q1716 -61 1735.5 -41.5Q1755 -22 1781.5 -10.5Q1808 1 1838 1Q1868 1 1894.0 -10.5Q1920 -22 1939.5 -42.0Q1959 -62 1970.5 -88.0Q1982 -114 1982 -144Q1982 -174 1970.5 -200.0Q1959 -226 1939.5 -245.5Q1920 -265 1894.0 -276.5Q1868 -288 1838 -288ZM975 -287Q945 -287 919.0 -276.0Q893 -265 873.5 -245.5Q854 -226 842.5 -200.0Q831 -174 831 -144Q831 -114 842.0 -88.0Q853 -62 872.5 -42.5Q892 -23 918.5 -11.5Q945 0 975 0Q1005 0 1031.0 -11.5Q1057 -23 1076.5 -42.5Q1096 -62 1107.0 -88.0Q1118 -114 1118 -144Q1118 -174 1107.0 -200.0Q1096 -226 1076.5 -245.5Q1057 -265 1031.0 -276.0Q1005 -287 975 -287Z" style="fill:#321b41;stroke:none" transform="scale(1,-1) translate(0,-256)" /></svg>