<?xml version="1.0" encoding="utf-8" ?>
<svg baseProfile="full" height="256" version="1.1" width="256" xmlns="http://www.w3.org/2000/svg" xmlns:ev="http://www.w3.org/2001/xml-events" xmlns:xlink="http://www.w3.org/1999/xlink"><defs /><path d="M616 665Q616 688 631.5 703.5Q647 719 670 719H849Q872 719 887.5 703.5Q903 688 903 665V485Q903 463 887.0 447.0Q871 431 849 431H670Q648 431 632.0 447.0Q616 463 616 485ZM1262 665Q1262 688 1277.5 703.5Q1293 719 1316 719H1495Q1518 719 1533.5 703.5Q1549 688 1549 665V485Q1549 463 1533.0 447.0Q1517 431 1495 431H1316Q1294 431 1278.0 447.0Q1262 463 1262 485ZM1963 719Q1940 719 1924.5 703.5Q1909 688 1909 665V485Q1909 463 1925.0 447.0Q1941 431 1963 431H2142Q2164 431 2180.0 447.0Q2196 463 2196 485V665Q2196 688 2180.5 703.5Q2165 719 2142 719Z" style="fill:#5092ff;stroke:none" transform="scale(1,-1) translate(0,-256)" /></svg>