<?xml version="1.0" encoding="utf-8" ?>
<svg baseProfile="full" height="256" version="1.1" width="256" xmlns="http://www.w3.org/2000/svg" xmlns:ev="http://www.w3.org/2001/xml-events" xmlns:xlink="http://www.w3.org/1999/xlink"><defs /><path d="M1301 1679H1513Q1524 1679 1533 1673L1844 1466Q1860 1455 1860 1437Q1860 1415 1841 1405L1474 1210Q1467 1206 1457 1206H1359Q1349 1206 1343 1209L963 1404Q953 1409 948.5 1418.0Q944 1427 944 1438Q944 1447 948.5 1454.5Q953 1462 960 1467L1281 1673Q1290 1679 1301 1679ZM1311 1607 1051 1440 1368 1277H1448L1754 1440L1502 1607Z" style="fill:#636363;stroke:none" transform="scale(1,-1) translate(0,-256)" /></svg>