<?xml version="1.0" encoding="utf-8" ?>
<svg baseProfile="full" height="256" version="1.1" width="256" xmlns="http://www.w3.org/2000/svg" xmlns:ev="http://www.w3.org/2001/xml-events" xmlns:xlink="http://www.w3.org/1999/xlink"><defs /><path d="M1691 1186Q1728 1186 1761.0 1172.0Q1794 1158 1818.5 1133.5Q1843 1109 1857.0 1076.0Q1871 1043 1871 1006V431Q1871 394 1857.0 361.5Q1843 329 1818.5 304.5Q1794 280 1761.0 266.0Q1728 252 1691 252H1116Q1079 252 1046.5 266.0Q1014 280 989.5 304.5Q965 329 951.0 361.5Q937 394 937 431V1006Q937 1043 951.0 1076.0Q965 1109 989.5 1133.5Q1014 1158 1046.5 1172.0Q1079 1186 1116 1186Z" style="fill:#9b9b9b;stroke:none" transform="scale(1,-1) translate(0,-256)" /></svg>