<?xml version="1.0" encoding="utf-8" ?>
<svg baseProfile="full" height="256" version="1.1" width="256" xmlns="http://www.w3.org/2000/svg" xmlns:ev="http://www.w3.org/2001/xml-events" xmlns:xlink="http://www.w3.org/1999/xlink"><defs /><path d="M1009 1006Q1009 1028 1017.5 1047.5Q1026 1067 1040.0 1082.0Q1054 1097 1073.5 1105.5Q1093 1114 1116 1114H1691Q1713 1114 1733.0 1105.5Q1753 1097 1767.5 1082.5Q1782 1068 1790.5 1048.0Q1799 1028 1799 1006V431Q1799 408 1790.5 388.5Q1782 369 1767.0 355.0Q1752 341 1732.5 332.5Q1713 324 1691 324H1116Q1094 324 1074.5 332.5Q1055 341 1040.5 355.5Q1026 370 1017.5 389.5Q1009 409 1009 431Z" style="fill:#ffffff;stroke:none" transform="scale(1,-1) translate(0,-256)" /></svg>