<?xml version="1.0" encoding="utf-8" ?>
<svg baseProfile="full" height="256" version="1.1" width="256" xmlns="http://www.w3.org/2000/svg" xmlns:ev="http://www.w3.org/2001/xml-events" xmlns:xlink="http://www.w3.org/1999/xlink"><defs /><path d="M1478 1366Q1508 1366 1529.0 1345.0Q1550 1324 1550 1294V593Q1550 585 1555.0 580.0Q1560 575 1568 575H1788Q1818 575 1839.0 554.0Q1860 533 1860 503Q1860 472 1838 452L1456 84Q1436 64 1406 64Q1376 64 1356 84L974 452Q952 472 952 503Q952 533 973.0 554.0Q994 575 1024 575H1244Q1252 575 1257.0 580.0Q1262 585 1262 593V1294Q1262 1324 1283.0 1345.0Q1304 1366 1334 1366Z" style="fill:#ffffff;stroke:none" transform="scale(1,-1) translate(0,-256)" /></svg>