<?xml version="1.0" encoding="utf-8" ?>
<svg baseProfile="full" height="256" version="1.1" width="256" xmlns="http://www.w3.org/2000/svg" xmlns:ev="http://www.w3.org/2001/xml-events" xmlns:xlink="http://www.w3.org/1999/xlink"><defs /><path d="M1406 1438Q1436 1438 1457.0 1417.0Q1478 1396 1478 1366V1006H1837Q1866 1006 1887.5 985.0Q1909 964 1909 935Q1909 905 1888.0 884.0Q1867 863 1837 863H1478V72Q1478 42 1457.0 21.0Q1436 0 1406 0Q1376 0 1355.0 21.0Q1334 42 1334 72V863H975Q945 863 924.0 884.0Q903 905 903 935Q903 964 924.5 985.0Q946 1006 975 1006H1334V1366Q1334 1396 1355.0 1417.0Q1376 1438 1406 1438Z" style="fill:#ffffff;stroke:none" transform="scale(1,-1) translate(0,-256)" /></svg>