<?xml version="1.0" encoding="utf-8" ?>
<svg baseProfile="full" height="256" version="1.1" width="256" xmlns="http://www.w3.org/2000/svg" xmlns:ev="http://www.w3.org/2001/xml-events" xmlns:xlink="http://www.w3.org/1999/xlink"><defs /><path d="M1389 999Q1385 997 1375.5 996.5Q1366 996 1355.5 996.0Q1345 996 1334.5 996.5Q1324 997 1319 997Q1262 997 1211.5 1019.0Q1161 1041 1123.5 1078.5Q1086 1116 1064.0 1167.0Q1042 1218 1042 1275V1689Q1042 1705 1053.0 1715.0Q1064 1725 1079 1725H1141Q1182 1725 1220.5 1713.0Q1259 1701 1292.0 1679.5Q1325 1658 1351.0 1627.0Q1377 1596 1394 1558Q1411 1595 1437.0 1625.5Q1463 1656 1496.0 1677.5Q1529 1699 1567.5 1710.5Q1606 1722 1647 1722Q1659 1722 1675.5 1723.5Q1692 1725 1707.5 1722.5Q1723 1720 1734.0 1712.0Q1745 1704 1745 1686V1272Q1745 1215 1723.0 1164.0Q1701 1113 1663.5 1075.5Q1626 1038 1575.5 1016.0Q1525 994 1468 994Q1461 994 1450.0 993.5Q1439 993 1427.0 993.0Q1415 993 1405.0 994.5Q1395 996 1389 999Z" style="fill:#ca0b4a;stroke:none" transform="scale(1,-1) translate(0,-256)" /></svg>