<?xml version="1.0" encoding="utf-8" ?>
<svg baseProfile="full" height="256" version="1.1" width="256" xmlns="http://www.w3.org/2000/svg" xmlns:ev="http://www.w3.org/2001/xml-events" xmlns:xlink="http://www.w3.org/1999/xlink"><defs /><path d="M1047 1546Q1100 1546 1152.0 1528.0Q1204 1510 1251.0 1480.0Q1298 1450 1338.0 1411.0Q1378 1372 1406 1330Q1434 1372 1474.0 1411.0Q1514 1450 1561.0 1480.0Q1608 1510 1660.0 1528.0Q1712 1546 1765 1546H1845Q1871 1546 1890.5 1528.5Q1910 1511 1910 1484Q1910 1471 1903 1455Q1889 1426 1877.0 1398.0Q1865 1370 1856.0 1342.0Q1847 1314 1842.0 1284.5Q1837 1255 1837 1222Q1837 1176 1846.0 1141.0Q1855 1106 1870 1064Q1880 1037 1887.0 1013.5Q1894 990 1899.0 966.0Q1904 942 1906.5 917.0Q1909 892 1909 863Q1909 787 1890.0 731.0Q1871 675 1836.5 635.0Q1802 595 1755.0 569.0Q1708 543 1652.5 528.5Q1597 514 1534.0 508.5Q1471 503 1406 503Q1341 503 1278.0 508.5Q1215 514 1159.5 528.5Q1104 543 1057.0 569.0Q1010 595 975.5 635.0Q941 675 922.0 731.0Q903 787 903 863Q903 910 914.0 954.5Q925 999 938.5 1042.5Q952 1086 963.5 1130.5Q975 1175 975 1222Q975 1282 959.0 1335.0Q943 1388 920 1442Q913 1457 913 1475Q913 1505 926.0 1520.0Q939 1535 959.0 1540.5Q979 1546 1002.5 1546.0Q1026 1546 1047 1546Z" style="fill:#f8312f;stroke:none" transform="scale(1,-1) translate(0,-256)" /></svg>