<?xml version="1.0" encoding="utf-8" ?>
<svg baseProfile="full" height="256" version="1.1" width="256" xmlns="http://www.w3.org/2000/svg" xmlns:ev="http://www.w3.org/2001/xml-events" xmlns:xlink="http://www.w3.org/1999/xlink"><defs /><path d="M1152 1276Q1146 1276 1141.0 1272.0Q1136 1268 1136 1261V1105H1675V1261Q1675 1267 1670.5 1271.5Q1666 1276 1660 1276ZM1660 1438Q1697 1438 1729.0 1424.0Q1761 1410 1785.0 1386.0Q1809 1362 1823.0 1330.0Q1837 1298 1837 1261V943H975V1261Q975 1298 989.0 1330.0Q1003 1362 1027.0 1386.0Q1051 1410 1083.0 1424.0Q1115 1438 1152 1438Z" style="fill:#321b41;stroke:none" transform="scale(1,-1) translate(0,-256)" /></svg>