<?xml version="1.0" encoding="utf-8" ?>
<svg baseProfile="full" height="256" version="1.1" width="256" xmlns="http://www.w3.org/2000/svg" xmlns:ev="http://www.w3.org/2001/xml-events" xmlns:xlink="http://www.w3.org/1999/xlink"><defs /><path d="M2300 -287H512Q489 -287 468.5 -278.0Q448 -269 433.0 -253.5Q418 -238 409.0 -217.5Q400 -197 400 -174V575L471 608L400 647V926Q400 972 417.5 1013.0Q435 1054 465.5 1084.5Q496 1115 536.5 1132.5Q577 1150 624 1150H2187Q2233 1150 2274.0 1132.5Q2315 1115 2345.5 1084.5Q2376 1054 2393.5 1013.0Q2411 972 2411 926V646L2358 610L2411 575V-175Q2411 -198 2402.5 -218.5Q2394 -239 2379.0 -254.0Q2364 -269 2343.5 -278.0Q2323 -287 2300 -287Z" style="fill:#f8312f;stroke:none" transform="scale(1,-1) translate(0,-256)" /></svg>