<?xml version="1.0" encoding="utf-8" ?>
<svg baseProfile="full" height="256" version="1.1" width="256" xmlns="http://www.w3.org/2000/svg" xmlns:ev="http://www.w3.org/2001/xml-events" xmlns:xlink="http://www.w3.org/1999/xlink"><defs /><path d="M759 670Q759 689 772.0 702.0Q785 715 804 715H1001Q1020 715 1033.0 702.0Q1046 689 1046 670V573Q1046 543 1035.0 517.0Q1024 491 1004.5 471.5Q985 452 959.0 440.5Q933 429 903 429Q873 429 847.0 440.5Q821 452 801.5 471.5Q782 491 770.5 517.0Q759 543 759 573ZM1765 670Q1765 689 1778.0 702.0Q1791 715 1810 715H2008Q2027 715 2039.5 702.0Q2052 689 2052 670V573Q2052 543 2041.0 517.0Q2030 491 2010.5 471.5Q1991 452 1965.0 440.5Q1939 429 1909 429Q1879 429 1853.0 440.5Q1827 452 1807.5 471.5Q1788 491 1776.5 517.0Q1765 543 1765 573ZM2089 212Q2104 212 2114.5 201.5Q2125 191 2125 176Q2125 161 2114.5 150.5Q2104 140 2089 140H723Q708 140 697.5 150.5Q687 161 687 176Q687 191 697.5 201.5Q708 212 723 212ZM723 -3H2089Q2103 -3 2114.0 -14.0Q2125 -25 2125 -39Q2125 -54 2114.5 -64.5Q2104 -75 2089 -75H723Q708 -75 697.5 -64.5Q687 -54 687 -39Q687 -24 697.5 -13.5Q708 -3 723 -3Z" style="fill:#d3d3d3;stroke:none" transform="scale(1,-1) translate(0,-256)" /></svg>