<?xml version="1.0" encoding="utf-8" ?>
<svg baseProfile="full" height="256" version="1.1" width="256" xmlns="http://www.w3.org/2000/svg" xmlns:ev="http://www.w3.org/2001/xml-events" xmlns:xlink="http://www.w3.org/1999/xlink"><defs /><path d="M1190 1581 1193 1587H1615L1622 1581Q1615 1536 1606.5 1492.5Q1598 1449 1589 1405Q1582 1371 1575.0 1337.0Q1568 1303 1568 1268Q1568 1231 1580.0 1209.0Q1592 1187 1622 1166L1629 1161Q1681 1126 1727.5 1092.5Q1774 1059 1812.5 1019.5Q1851 980 1880.0 931.0Q1909 882 1927 818L1925 814L1935 766L1938 764L1944 710L1942 707V659L1945 656Q1944 624 1940.0 592.5Q1936 561 1925 530L1922 528L1902 480L1904 476Q1881 426 1854.5 379.0Q1828 332 1800 285Q1743 188 1689.0 90.5Q1635 -7 1586 -108L1580 -112H1231L1226 -108Q1177 -7 1123.0 90.5Q1069 188 1012 285Q984 332 957.5 379.0Q931 426 908 476L909 480L890 528L887 530Q876 561 872.0 592.5Q868 624 867 656L870 659V706L868 710L873 764L876 766L887 815L885 818Q903 882 932.0 931.0Q961 980 999.5 1019.5Q1038 1059 1084.5 1092.5Q1131 1126 1183 1161L1190 1166Q1220 1187 1232.0 1209.0Q1244 1231 1244 1268Q1244 1303 1237.0 1337.0Q1230 1371 1223 1405Q1214 1449 1205.5 1492.5Q1197 1536 1190 1581Z" style="fill:#b97028;stroke:none" transform="scale(1,-1) translate(0,-256)" /></svg>