<?xml version="1.0" encoding="utf-8" ?>
<svg baseProfile="full" height="256" version="1.1" width="256" xmlns="http://www.w3.org/2000/svg" xmlns:ev="http://www.w3.org/2001/xml-events" xmlns:xlink="http://www.w3.org/1999/xlink"><defs /><path d="M1640 1725Q1669 1725 1690.0 1703.5Q1711 1682 1711 1653Q1711 1624 1690.0 1602.5Q1669 1581 1640 1581H1172Q1143 1581 1121.5 1602.5Q1100 1624 1100 1653Q1100 1682 1121.5 1703.5Q1143 1725 1172 1725ZM1226 -108H1586Q1591 -116 1605.0 -135.0Q1619 -154 1634.0 -176.5Q1649 -199 1660.5 -220.5Q1672 -242 1672 -254Q1672 -264 1667.0 -270.5Q1662 -277 1654.5 -280.5Q1647 -284 1638.5 -285.5Q1630 -287 1622 -287H1190Q1182 -287 1173.0 -285.5Q1164 -284 1156.5 -280.5Q1149 -277 1144.0 -270.5Q1139 -264 1139 -254Q1139 -242 1151.0 -220.5Q1163 -199 1178.0 -176.5Q1193 -154 1207.0 -135.0Q1221 -116 1226 -108Z" style="fill:#8c5543;stroke:none" transform="scale(1,-1) translate(0,-256)" /></svg>