<?xml version="1.0" encoding="utf-8" ?>
<svg baseProfile="full" height="256" version="1.1" width="256" xmlns="http://www.w3.org/2000/svg" xmlns:ev="http://www.w3.org/2001/xml-events" xmlns:xlink="http://www.w3.org/1999/xlink"><defs /><path d="M989 1380Q962 1380 935.0 1368.0Q908 1356 887.0 1336.0Q866 1316 853.0 1290.0Q840 1264 840 1236Q840 1205 854.5 1177.0Q869 1149 890.0 1122.5Q911 1096 936.5 1072.5Q962 1049 983.0 1028.5Q1004 1008 1018.5 991.0Q1033 974 1033 960Q1033 941 1020.0 927.5Q1007 914 988 914Q970 914 957 927Q925 957 888.5 991.0Q852 1025 821.5 1063.0Q791 1101 770.5 1144.0Q750 1187 750 1236Q750 1283 770.0 1325.0Q790 1367 823.0 1399.0Q856 1431 899.0 1450.0Q942 1469 988 1469Q1059 1469 1114.5 1438.0Q1170 1407 1218 1358L1309 1265Q1322 1252 1322 1234Q1322 1215 1309.0 1202.0Q1296 1189 1277 1189Q1261 1189 1244.0 1203.0Q1227 1217 1207.5 1238.5Q1188 1260 1165.0 1284.5Q1142 1309 1115.0 1330.5Q1088 1352 1057.0 1366.0Q1026 1380 989 1380ZM1823 1380Q1786 1380 1754.5 1366.0Q1723 1352 1696.0 1330.5Q1669 1309 1646.0 1284.5Q1623 1260 1603.5 1238.5Q1584 1217 1566.5 1203.0Q1549 1189 1534 1189Q1516 1189 1502.5 1202.5Q1489 1216 1489 1234Q1489 1252 1502 1265L1593 1358Q1641 1406 1697.0 1437.5Q1753 1469 1823 1469Q1869 1469 1912.0 1450.0Q1955 1431 1988.5 1399.0Q2022 1367 2042.0 1324.5Q2062 1282 2062 1236Q2062 1188 2041.5 1144.5Q2021 1101 1990.0 1063.0Q1959 1025 1922.5 991.0Q1886 957 1855 927Q1840 914 1823 914Q1804 914 1791.5 927.0Q1779 940 1779 959Q1779 973 1793.5 990.5Q1808 1008 1829.0 1028.5Q1850 1049 1875.5 1072.5Q1901 1096 1922.0 1122.0Q1943 1148 1957.5 1176.5Q1972 1205 1972 1235Q1972 1263 1959.5 1289.5Q1947 1316 1926.0 1336.0Q1905 1356 1878.0 1368.0Q1851 1380 1823 1380Z" style="fill:#7d4533;stroke:none" transform="scale(1,-1) translate(0,-256)" /></svg>