<?xml version="1.0" encoding="utf-8" ?>
<svg baseProfile="full" height="256" version="1.1" width="256" xmlns="http://www.w3.org/2000/svg" xmlns:ev="http://www.w3.org/2001/xml-events" xmlns:xlink="http://www.w3.org/1999/xlink"><defs /><path d="M831 899Q831 884 820.5 873.5Q810 863 795 863Q780 863 769.5 873.5Q759 884 759 899Q759 913 770.0 924.0Q781 935 795 935Q809 935 820.0 924.0Q831 913 831 899ZM687 827Q687 812 676.5 801.5Q666 791 651 791Q636 791 625.5 801.5Q615 812 615 827Q615 842 625.5 852.5Q636 863 651 863Q666 863 676.5 852.5Q687 842 687 827ZM795 647Q810 647 820.5 657.5Q831 668 831 683Q831 698 820.5 708.5Q810 719 795 719Q780 719 769.5 708.5Q759 698 759 683Q759 668 769.5 657.5Q780 647 795 647ZM687 611Q687 596 676.5 585.5Q666 575 651 575Q636 575 625.5 585.5Q615 596 615 611Q615 626 625.5 636.5Q636 647 651 647Q666 647 676.5 636.5Q687 626 687 611ZM939 719Q954 719 964.5 729.5Q975 740 975 755Q975 770 964.5 780.5Q954 791 939 791Q924 791 913.5 780.5Q903 770 903 755Q903 740 913.5 729.5Q924 719 939 719ZM1118 827Q1118 813 1107.5 802.0Q1097 791 1083 791Q1068 791 1057.5 801.5Q1047 812 1047 827Q1047 842 1057.5 852.5Q1068 863 1083 863Q1097 863 1107.5 852.0Q1118 841 1118 827ZM1226 575Q1241 575 1251.5 585.5Q1262 596 1262 611Q1262 626 1251.5 636.5Q1241 647 1226 647Q1211 647 1200.5 636.5Q1190 626 1190 611Q1190 596 1200.5 585.5Q1211 575 1226 575ZM1118 539Q1118 525 1107.5 514.0Q1097 503 1083 503Q1068 503 1057.5 513.5Q1047 524 1047 539Q1047 554 1057.5 564.5Q1068 575 1083 575Q1097 575 1107.5 564.0Q1118 553 1118 539ZM939 431Q953 431 964.0 442.0Q975 453 975 467Q975 482 964.5 492.5Q954 503 939 503Q924 503 913.5 492.5Q903 482 903 467Q903 453 914.0 442.0Q925 431 939 431ZM831 396Q831 381 820.5 370.5Q810 360 795 360Q780 360 769.5 370.5Q759 381 759 396Q759 410 770.0 420.5Q781 431 795 431Q809 431 820.0 420.5Q831 410 831 396ZM651 288Q666 288 676.5 298.5Q687 309 687 324Q687 338 676.0 349.0Q665 360 651 360Q637 360 626.0 349.0Q615 338 615 324Q615 309 625.5 298.5Q636 288 651 288ZM975 180Q975 165 964.5 154.5Q954 144 939 144Q924 144 913.5 154.5Q903 165 903 180Q903 195 913.5 205.5Q924 216 939 216Q954 216 964.5 205.5Q975 195 975 180ZM1083 216Q1097 216 1107.5 227.0Q1118 238 1118 252Q1118 266 1107.5 277.0Q1097 288 1083 288Q1068 288 1057.5 277.5Q1047 267 1047 252Q1047 237 1057.5 226.5Q1068 216 1083 216ZM1262 324Q1262 309 1251.5 298.5Q1241 288 1226 288Q1211 288 1200.5 298.5Q1190 309 1190 324Q1190 338 1201.0 349.0Q1212 360 1226 360Q1240 360 1251.0 349.0Q1262 338 1262 324ZM1226 72Q1241 72 1251.5 82.5Q1262 93 1262 108Q1262 123 1251.5 133.5Q1241 144 1226 144Q1211 144 1200.5 133.5Q1190 123 1190 108Q1190 93 1200.5 82.5Q1211 72 1226 72Z" style="fill:#e19747;stroke:none" transform="scale(1,-1) translate(0,-256)" /></svg>