<?xml version="1.0" encoding="utf-8" ?>
<svg baseProfile="full" height="256" version="1.1" width="256" xmlns="http://www.w3.org/2000/svg" xmlns:ev="http://www.w3.org/2001/xml-events" xmlns:xlink="http://www.w3.org/1999/xlink"><defs /><path d="M472 899Q439 946 419.5 990.0Q400 1034 400 1093V1194Q400 1224 411.0 1250.0Q422 1276 441.5 1295.5Q461 1315 487.0 1326.5Q513 1338 543 1338Q570 1338 594 1329L1316 1058Q1369 1038 1412.0 1004.0Q1455 970 1486.0 925.5Q1517 881 1533.5 828.5Q1550 776 1550 720Q1550 656 1531.0 606.0Q1512 556 1478 503V-148Q1478 -178 1467.0 -204.0Q1456 -230 1436.5 -249.5Q1417 -269 1391.0 -280.5Q1365 -292 1335 -292Q1306 -292 1282 -282L608 -18Q577 -6 552.0 14.5Q527 35 509.0 61.5Q491 88 481.5 119.0Q472 150 472 183V899Z" style="fill:#ffdea7;stroke:none" transform="scale(1,-1) translate(0,-256)" /></svg>