<?xml version="1.0" encoding="utf-8" ?>
<svg baseProfile="full" height="256" version="1.1" width="256" xmlns="http://www.w3.org/2000/svg" xmlns:ev="http://www.w3.org/2001/xml-events" xmlns:xlink="http://www.w3.org/1999/xlink"><defs /><path d="M1406 1222Q1406 1252 1427.0 1273.0Q1448 1294 1478 1294Q1507 1294 1528.5 1272.5Q1550 1251 1550 1222V1150H1406ZM2268 247Q2268 270 2276.0 290.5Q2284 311 2298.0 326.5Q2312 342 2332.0 351.0Q2352 360 2376 360H2412V144H2380Q2359 144 2339.0 152.0Q2319 160 2303.5 174.0Q2288 188 2278.0 206.5Q2268 225 2268 247Z" style="fill:#f92f60;stroke:none" transform="scale(1,-1) translate(0,-256)" /></svg>