<?xml version="1.0" encoding="utf-8" ?>
<svg baseProfile="full" height="256" version="1.1" width="256" xmlns="http://www.w3.org/2000/svg" xmlns:ev="http://www.w3.org/2001/xml-events" xmlns:xlink="http://www.w3.org/1999/xlink"><defs /><path d="M1822 1078Q1861 1078 1895.5 1056.5Q1930 1035 1948 1000Q1956 985 1965.0 968.0Q1974 951 1980 935Q1986 919 1995.0 887.5Q2004 856 2013.5 822.5Q2023 789 2032.5 760.0Q2042 731 2048 719Q2059 696 2071.0 682.0Q2083 668 2097 647L2196 503H2271Q2300 503 2325.5 492.0Q2351 481 2370.5 462.0Q2390 443 2401.0 417.5Q2412 392 2412 363Q2412 363 2408.0 346.5Q2404 330 2399.0 310.5Q2394 291 2389.5 273.5Q2385 256 2384 253Q2391 227 2399.5 198.5Q2408 170 2412 144Q2414 127 2413.0 106.5Q2412 86 2412 69Q2412 40 2401.0 14.5Q2390 -11 2370.5 -30.5Q2351 -50 2325.5 -61.0Q2300 -72 2271 -72H2230Q2233 -54 2233 -36Q2233 24 2210.5 76.5Q2188 129 2149.0 168.0Q2110 207 2057.5 229.5Q2005 252 1945 252Q1882 252 1825.5 225.5Q1769 199 1729.0 154.0Q1689 109 1669.5 50.5Q1650 -8 1660 -72H1152Q1154 -63 1154.0 -54.0Q1154 -45 1154 -36Q1154 24 1131.5 76.5Q1109 129 1070.0 168.0Q1031 207 979.0 229.5Q927 252 867 252Q807 252 754.5 229.5Q702 207 663.0 168.0Q624 129 601.5 76.5Q579 24 579 -36Q579 -54 582 -72H541Q512 -72 486.5 -61.0Q461 -50 441.5 -30.5Q422 -11 411.0 14.5Q400 40 400 69V144L495 251L400 359Q400 389 410.5 415.0Q421 441 440.0 460.5Q459 480 485.0 491.5Q511 503 541 503H759L917 712Q931 768 944.5 824.5Q958 881 975 935Q980 950 990.0 968.0Q1000 986 1008 1000Q1027 1036 1060.0 1057.0Q1093 1078 1134 1078Z" style="fill:#636363;stroke:none" transform="scale(1,-1) translate(0,-256)" /></svg>