<?xml version="1.0" encoding="utf-8" ?>
<svg baseProfile="full" height="256" version="1.1" width="256" xmlns="http://www.w3.org/2000/svg" xmlns:ev="http://www.w3.org/2001/xml-events" xmlns:xlink="http://www.w3.org/1999/xlink"><defs /><path d="M1047 1473Q1047 1468 1046 1466Q1032 1406 1002.5 1360.5Q973 1315 930.5 1284.5Q888 1254 835.0 1238.0Q782 1222 723 1222Q708 1222 697.5 1232.5Q687 1243 687 1258Q687 1273 697.5 1283.5Q708 1294 723 1294Q762 1294 800.0 1303.0Q838 1312 872 1332Q917 1358 939.5 1395.5Q962 1433 976 1481Q980 1494 988.5 1502.0Q997 1510 1011 1510Q1025 1510 1036.0 1499.0Q1047 1488 1047 1473ZM1765 1473Q1765 1488 1775.5 1499.0Q1786 1510 1801 1510Q1815 1510 1823.5 1502.0Q1832 1494 1836 1481Q1849 1432 1872.0 1395.0Q1895 1358 1940 1332Q1974 1312 2012.0 1303.0Q2050 1294 2089 1294Q2104 1294 2114.5 1283.5Q2125 1273 2125 1258Q2125 1243 2114.5 1232.5Q2104 1222 2089 1222Q2030 1222 1977.0 1238.0Q1924 1254 1881.5 1284.5Q1839 1315 1809.0 1360.5Q1779 1406 1766 1466Q1765 1468 1765 1473ZM1255 359Q1328 362 1406 362Q1482 362 1557 359Q1567 411 1593.0 451.0Q1619 491 1656.0 518.5Q1693 546 1739.5 560.5Q1786 575 1837 575Q1867 575 1888.0 554.0Q1909 533 1909 503Q1909 474 1887.5 452.5Q1866 431 1837 431Q1768 431 1730.5 394.0Q1693 357 1693 288Q1693 219 1730.5 181.5Q1768 144 1837 144Q1867 144 1888.0 123.0Q1909 102 1909 72Q1909 42 1888.0 21.0Q1867 0 1837 0Q1786 0 1739.5 14.5Q1693 29 1656.0 56.5Q1619 84 1593.0 124.5Q1567 165 1557 216H1255Q1245 165 1219.0 124.5Q1193 84 1156.0 56.5Q1119 29 1072.5 14.5Q1026 0 975 0Q945 0 924.0 21.0Q903 42 903 72Q903 102 924.0 123.0Q945 144 975 144Q1044 144 1081.0 181.5Q1118 219 1118 288Q1118 357 1081.0 394.0Q1044 431 975 431Q946 431 924.5 452.5Q903 474 903 503Q903 533 924.0 554.0Q945 575 975 575Q1026 575 1072.5 560.5Q1119 546 1156.0 518.5Q1193 491 1219.0 451.0Q1245 411 1255 359ZM1262 791Q1262 761 1250.5 734.5Q1239 708 1219.5 688.5Q1200 669 1174.0 658.0Q1148 647 1118 647Q1088 647 1062.0 658.5Q1036 670 1016.5 689.5Q997 709 986.0 735.0Q975 761 975 791Q975 821 986.0 847.0Q997 873 1016.5 892.5Q1036 912 1062.0 923.5Q1088 935 1118 935Q1148 935 1174.0 923.5Q1200 912 1219.5 892.5Q1239 873 1250.5 847.0Q1262 821 1262 791ZM1837 791Q1837 761 1825.5 734.5Q1814 708 1794.5 688.5Q1775 669 1749.0 658.0Q1723 647 1693 647Q1663 647 1637.0 658.5Q1611 670 1591.5 689.5Q1572 709 1561.0 735.0Q1550 761 1550 791Q1550 821 1561.0 847.0Q1572 873 1591.5 892.5Q1611 912 1637.0 923.5Q1663 935 1693 935Q1723 935 1749.0 923.5Q1775 912 1794.5 892.5Q1814 873 1825.5 847.0Q1837 821 1837 791Z" style="fill:#402a32;stroke:none" transform="scale(1,-1) translate(0,-256)" /></svg>