<?xml version="1.0" encoding="utf-8" ?>
<svg baseProfile="full" height="256" version="1.1" width="256" xmlns="http://www.w3.org/2000/svg" xmlns:ev="http://www.w3.org/2001/xml-events" xmlns:xlink="http://www.w3.org/1999/xlink"><defs /><path d="M1349 521H1406V1653H1478V521H1535L1678 685Q1759 779 1802.5 892.5Q1846 1006 1846 1130V1721H1918V1130Q1918 992 1870.5 867.0Q1823 742 1732 638L1630 521H1783Q1806 521 1821.5 505.5Q1837 490 1837 467Q1837 445 1821.0 429.0Q1805 413 1783 413H1100Q1078 413 1062.5 429.0Q1047 445 1047 467Q1047 489 1062.0 505.0Q1077 521 1100 521H1254L1152 638Q1061 742 1013.5 867.0Q966 992 966 1130V1721H1038V1130Q1038 1008 1081.0 892.5Q1124 777 1205 685Z" style="fill:#433b6b;stroke:none" transform="scale(1,-1) translate(0,-256)" /></svg>