<?xml version="1.0" encoding="utf-8" ?>
<svg baseProfile="full" height="256" version="1.1" width="256" xmlns="http://www.w3.org/2000/svg" xmlns:ev="http://www.w3.org/2001/xml-events" xmlns:xlink="http://www.w3.org/1999/xlink"><defs /><path d="M759 1115V1581L1214 1629Q1271 1635 1327.5 1644.0Q1384 1653 1442 1653Q1500 1653 1556.5 1644.0Q1613 1635 1670 1629L2125 1581V1115Q2125 1038 2108.0 964.0Q2091 890 2058.5 823.0Q2026 756 1979.0 696.5Q1932 637 1872 589L1765 503L1958 -202Q1961 -211 1961 -220Q1961 -248 1941.0 -267.5Q1921 -287 1893 -287H991Q963 -287 943.5 -267.5Q924 -248 924 -220Q924 -215 924.0 -211.0Q924 -207 926 -202L1118 503L1012 589Q891 687 825.0 823.0Q759 959 759 1115Z" style="fill:#e19747;stroke:none" transform="scale(1,-1) translate(0,-256)" /></svg>