<?xml version="1.0" encoding="utf-8" ?>
<svg baseProfile="full" height="256" version="1.1" width="256" xmlns="http://www.w3.org/2000/svg" xmlns:ev="http://www.w3.org/2001/xml-events" xmlns:xlink="http://www.w3.org/1999/xlink"><defs /><path d="M2227 293Q2227 216 2206.5 146.0Q2186 76 2148.0 16.0Q2110 -44 2055.5 -93.0Q2001 -142 1934 -177Q1874 -208 1805.5 -229.0Q1737 -250 1666.0 -263.0Q1595 -276 1523.5 -281.5Q1452 -287 1385 -287Q1319 -287 1247.0 -281.5Q1175 -276 1104.0 -263.0Q1033 -250 964.5 -229.0Q896 -208 836 -177Q768 -142 714.0 -93.0Q660 -44 622.0 16.5Q584 77 563.5 146.5Q543 216 543 293Q543 318 545.5 342.0Q548 366 552 391Q569 491 601.5 584.5Q634 678 683.5 761.0Q733 844 801.0 915.0Q869 986 957 1040L873 1495Q870 1513 870 1531Q870 1571 885.5 1606.5Q901 1642 927.5 1668.0Q954 1694 989.5 1709.5Q1025 1725 1065 1725Q1105 1725 1141.0 1709.5Q1177 1694 1203.0 1668.0Q1229 1642 1244.5 1606.0Q1260 1570 1260 1530V1149Q1315 1158 1371 1158Q1416 1158 1459.0 1154.5Q1502 1151 1547 1142V1530Q1547 1570 1562.5 1606.0Q1578 1642 1604.0 1668.0Q1630 1694 1665.5 1709.5Q1701 1725 1742 1725Q1782 1725 1818.0 1709.5Q1854 1694 1880.0 1667.5Q1906 1641 1921.5 1605.0Q1937 1569 1937 1529Q1937 1511 1934 1495L1846 1020Q1927 966 1990.0 896.5Q2053 827 2099.0 746.0Q2145 665 2175.0 575.0Q2205 485 2220 391Q2224 367 2226.5 343.5Q2229 320 2229 296Z" style="fill:#cdc4d6;stroke:none" transform="scale(1,-1) translate(0,-256)" /></svg>