<?xml version="1.0" encoding="utf-8" ?>
<svg baseProfile="full" height="256" version="1.1" width="256" xmlns="http://www.w3.org/2000/svg" xmlns:ev="http://www.w3.org/2001/xml-events" xmlns:xlink="http://www.w3.org/1999/xlink"><defs /><path d="M1103 1055Q1086 1055 1072.5 1066.0Q1059 1077 1056 1094L978 1515Q977 1520 977 1530Q977 1566 1002.5 1591.5Q1028 1617 1064 1617Q1082 1617 1098.0 1610.0Q1114 1603 1126.0 1590.5Q1138 1578 1145.0 1562.0Q1152 1546 1152 1528V1103Q1152 1083 1137.5 1069.0Q1123 1055 1103 1055ZM1654 1528Q1654 1546 1661.0 1562.0Q1668 1578 1680.0 1590.5Q1692 1603 1708.0 1610.0Q1724 1617 1742 1617Q1778 1617 1803.5 1591.5Q1829 1566 1829 1530Q1829 1526 1829.0 1522.0Q1829 1518 1828 1514L1750 1094Q1747 1077 1733.5 1066.0Q1720 1055 1703 1055Q1683 1055 1668.5 1069.0Q1654 1083 1654 1103Z" style="fill:#ff8687;stroke:none" transform="scale(1,-1) translate(0,-256)" /></svg>