<?xml version="1.0" encoding="utf-8" ?>
<svg baseProfile="full" height="256" version="1.1" width="256" xmlns="http://www.w3.org/2000/svg" xmlns:ev="http://www.w3.org/2001/xml-events" xmlns:xlink="http://www.w3.org/1999/xlink"><defs /><path d="M939 360Q953 360 964.0 349.0Q975 338 975 324Q975 309 964.5 298.5Q954 288 939 288H436Q421 288 410.5 298.5Q400 309 400 324Q400 338 411.0 349.0Q422 360 436 360ZM975 179Q975 168 967.5 158.0Q960 148 949 145Q936 141 894.5 129.0Q853 117 797.5 101.0Q742 85 680.5 67.0Q619 49 566.5 34.0Q514 19 477.0 9.5Q440 0 435 0Q421 0 410.5 10.5Q400 21 400 35Q400 47 407.5 57.5Q415 68 426 71Q438 75 480.0 87.0Q522 99 577.0 115.0Q632 131 694.0 149.0Q756 167 809.0 181.5Q862 196 898.5 206.0Q935 216 940 216Q954 216 964.5 205.0Q975 194 975 179ZM1837 324Q1837 338 1848.0 349.0Q1859 360 1873 360H2376Q2390 360 2401.0 349.0Q2412 338 2412 324Q2412 309 2401.5 298.5Q2391 288 2376 288H1873Q1858 288 1847.5 298.5Q1837 309 1837 324ZM1872 216Q1876 216 1898.0 210.5Q1920 205 1954.0 195.5Q1988 186 2030.5 174.0Q2073 162 2118.0 149.0Q2163 136 2207.0 123.0Q2251 110 2287.5 99.5Q2324 89 2350.5 81.5Q2377 74 2386 71Q2397 68 2404.5 57.5Q2412 47 2412 35Q2412 21 2401.5 10.5Q2391 0 2377 0Q2372 0 2335.5 10.0Q2299 20 2246.0 34.5Q2193 49 2131.0 67.0Q2069 85 2014.0 101.0Q1959 117 1917.0 129.0Q1875 141 1863 145Q1852 148 1844.5 158.0Q1837 168 1837 179Q1837 194 1847.5 205.0Q1858 216 1872 216Z" style="fill:#b4acbc;stroke:none" transform="scale(1,-1) translate(0,-256)" /></svg>