<?xml version="1.0" encoding="utf-8" ?>
<svg baseProfile="full" height="256" version="1.1" width="256" xmlns="http://www.w3.org/2000/svg" xmlns:ev="http://www.w3.org/2001/xml-events" xmlns:xlink="http://www.w3.org/1999/xlink"><defs /><path d="M1047 577Q1047 606 1068.0 627.5Q1089 649 1118 649Q1148 649 1169.0 628.0Q1190 607 1190 577V506Q1190 476 1169.0 455.0Q1148 434 1118 434Q1089 434 1068.0 455.5Q1047 477 1047 506ZM1622 577Q1622 606 1643.0 627.5Q1664 649 1693 649Q1723 649 1744.0 628.0Q1765 607 1765 577V506Q1765 476 1744.0 455.0Q1723 434 1693 434Q1664 434 1643.0 455.5Q1622 477 1622 506ZM1153 214Q1168 214 1178.5 203.5Q1189 193 1189 178Q1189 141 1215.0 115.0Q1241 89 1278 89Q1315 89 1341.0 115.0Q1367 141 1367 178Q1367 194 1378.0 204.0Q1389 214 1404 214Q1419 214 1429.5 203.5Q1440 193 1440 178Q1440 141 1466.0 115.0Q1492 89 1529 89Q1566 89 1592.0 115.0Q1618 141 1618 178Q1618 193 1628.5 203.5Q1639 214 1654 214Q1669 214 1679.5 203.5Q1690 193 1690 178Q1690 145 1677.0 115.5Q1664 86 1642.5 64.5Q1621 43 1591.5 30.0Q1562 17 1529 17Q1492 17 1459.0 33.0Q1426 49 1403 78Q1380 49 1347.5 33.0Q1315 17 1278 17Q1245 17 1215.5 30.0Q1186 43 1164.5 64.5Q1143 86 1130.0 115.5Q1117 145 1117 178Q1117 193 1127.5 203.5Q1138 214 1153 214Z" style="fill:#1c1c1c;stroke:none" transform="scale(1,-1) translate(0,-256)" /></svg>