<?xml version="1.0" encoding="utf-8" ?>
<svg baseProfile="full" height="256" version="1.1" width="256" xmlns="http://www.w3.org/2000/svg" xmlns:ev="http://www.w3.org/2001/xml-events" xmlns:xlink="http://www.w3.org/1999/xlink"><defs /><path d="M831 -36Q846 -36 856.5 -46.5Q867 -57 867 -72Q867 -87 856.5 -97.5Q846 -108 831 -108H579Q565 -108 554.0 -97.0Q543 -86 543 -72Q543 -58 554.0 -47.0Q565 -36 579 -36ZM1298 -36Q1313 -36 1323.5 -46.5Q1334 -57 1334 -72Q1334 -87 1323.5 -97.5Q1313 -108 1298 -108H1047Q1032 -108 1021.5 -97.5Q1011 -87 1011 -72Q1011 -57 1021.5 -46.5Q1032 -36 1047 -36ZM1478 -72Q1478 -57 1488.5 -46.5Q1499 -36 1514 -36H1765Q1780 -36 1790.5 -46.5Q1801 -57 1801 -72Q1801 -87 1790.5 -97.5Q1780 -108 1765 -108H1514Q1499 -108 1488.5 -97.5Q1478 -87 1478 -72ZM2233 -36Q2247 -36 2257.5 -47.0Q2268 -58 2268 -72Q2268 -86 2257.5 -97.0Q2247 -108 2233 -108H1981Q1966 -108 1955.5 -97.5Q1945 -87 1945 -72Q1945 -57 1955.5 -46.5Q1966 -36 1981 -36Z" style="fill:#9b9b9b;stroke:none" transform="scale(1,-1) translate(0,-256)" /></svg>