<?xml version="1.0" encoding="utf-8" ?>
<svg baseProfile="full" height="256" version="1.1" width="256" xmlns="http://www.w3.org/2000/svg" xmlns:ev="http://www.w3.org/2001/xml-events" xmlns:xlink="http://www.w3.org/1999/xlink"><defs /><path d="M2412 459Q2412 431 2410.5 402.5Q2409 374 2403.0 347.0Q2397 320 2385.0 295.0Q2373 270 2352 249L1875 -228Q1856 -247 1830.5 -258.5Q1805 -270 1777.0 -276.5Q1749 -283 1720.5 -285.0Q1692 -287 1667 -287Q1609 -287 1557.5 -267.5Q1506 -248 1464 -206L1008 255Q988 275 988 303Q988 311 1000.5 344.0Q1013 377 1032.0 422.5Q1051 468 1074.5 520.5Q1098 573 1119.0 620.5Q1140 668 1156.5 704.5Q1173 741 1179 755Q1207 818 1256.0 867.0Q1305 916 1368 944L1791 1129Q1804 1135 1819 1135Q1848 1135 1868 1115L2332 653Q2371 614 2391.5 564.0Q2412 514 2412 459Z" style="fill:#fcd53f;stroke:none" transform="scale(1,-1) translate(0,-256)" /></svg>