<?xml version="1.0" encoding="utf-8" ?>
<svg baseProfile="full" height="256" version="1.1" width="256" xmlns="http://www.w3.org/2000/svg" xmlns:ev="http://www.w3.org/2001/xml-events" xmlns:xlink="http://www.w3.org/1999/xlink"><defs /><path d="M606 868Q587 904 587 944Q587 977 600.0 1006.5Q613 1036 635.0 1058.0Q657 1080 687.0 1093.0Q717 1106 750 1106Q761 1106 772.0 1103.0Q783 1100 793 1100Q802 1100 806.0 1103.0Q810 1106 810 1116Q810 1127 807.0 1138.5Q804 1150 804 1161Q804 1194 817.0 1223.5Q830 1253 852.0 1275.0Q874 1297 903.5 1309.5Q933 1322 966 1322Q979 1322 991.5 1319.0Q1004 1316 1016 1316Q1019 1316 1022.5 1319.5Q1026 1323 1026 1326Q1026 1339 1023.0 1351.0Q1020 1363 1020 1377Q1020 1410 1033.0 1439.5Q1046 1469 1068.0 1490.5Q1090 1512 1119.5 1525.0Q1149 1538 1182 1538Q1222 1538 1258 1519Q1302 1449 1302 1366Q1302 1309 1280.5 1256.5Q1259 1204 1218 1163L963 908Q922 867 869.5 845.5Q817 824 760 824Q719 824 680.0 835.0Q641 846 606 868Z" style="fill:#a56953;stroke:none" transform="scale(1,-1) translate(0,-256)" /></svg>