<?xml version="1.0" encoding="utf-8" ?>
<svg baseProfile="full" height="256" version="1.1" width="256" xmlns="http://www.w3.org/2000/svg" xmlns:ev="http://www.w3.org/2001/xml-events" xmlns:xlink="http://www.w3.org/1999/xlink"><defs /><path d="M1910 647Q1939 647 1960.5 625.5Q1982 604 1982 575Q1982 546 1960.5 524.5Q1939 503 1910 503H1622V215Q1622 186 1600.5 164.5Q1579 143 1550 143Q1520 143 1499.0 164.0Q1478 185 1478 215V403L1168 93Q1147 72 1117 72Q1088 72 1067.0 93.0Q1046 114 1046 143Q1046 173 1067 194L1932 1059Q1953 1080 1982 1080Q2012 1080 2033.0 1058.5Q2054 1037 2054 1008Q2054 978 2033 957L1722 647Z" style="fill:#ffdea7;stroke:none" transform="scale(1,-1) translate(0,-256)" /></svg>