<?xml version="1.0" encoding="utf-8" ?>
<svg baseProfile="full" height="256" version="1.1" width="256" xmlns="http://www.w3.org/2000/svg" xmlns:ev="http://www.w3.org/2001/xml-events" xmlns:xlink="http://www.w3.org/1999/xlink"><defs /><path d="M1011 845 799 633Q776 610 742 610Q709 610 686 633L423 896Q400 919 400 952Q400 986 423 1009L635 1221ZM1801 55 1589 -157Q1566 -180 1532 -180Q1499 -180 1476 -157L1213 106Q1190 129 1190 162Q1190 196 1213 219L1425 431ZM1415 1105Q1415 1095 1409 1086L1112 658Q1102 643 1084 643Q1070 643 1060.0 653.0Q1050 663 1050 677Q1050 688 1056 697L1353 1124Q1363 1139 1381 1139Q1395 1139 1405.0 1129.0Q1415 1119 1415 1105ZM1537 983Q1537 972 1531 963L1234 536Q1224 521 1206 521Q1192 521 1182.0 531.0Q1172 541 1172 555Q1172 565 1178 574L1475 1002Q1485 1017 1504 1017Q1518 1017 1527.5 1007.0Q1537 997 1537 983ZM1327 399Q1313 399 1303.5 409.0Q1294 419 1294 433Q1294 444 1300 453L1597 881Q1607 896 1625 896Q1639 896 1649.0 886.0Q1659 876 1659 862Q1659 851 1653 842L1356 414Q1346 399 1327 399ZM2196 324Q2196 314 2190 305L1893 -123Q1883 -138 1864 -138Q1850 -138 1840.5 -128.0Q1831 -118 1831 -104Q1831 -93 1837 -84L2134 344Q2144 359 2162 359Q2177 359 2186.5 348.5Q2196 338 2196 324ZM1986 -260Q1972 -260 1962.5 -250.0Q1953 -240 1953 -226Q1953 -215 1959 -206L2256 222Q2266 237 2284 237Q2298 237 2308.0 227.0Q2318 217 2318 203Q2318 192 2312 183L2015 -245Q2005 -260 1986 -260Z" style="fill:#998ea4;stroke:none" transform="scale(1,-1) translate(0,-256)" /></svg>