<?xml version="1.0" encoding="utf-8" ?>
<svg baseProfile="full" height="256" version="1.1" width="256" xmlns="http://www.w3.org/2000/svg" xmlns:ev="http://www.w3.org/2001/xml-events" xmlns:xlink="http://www.w3.org/1999/xlink"><defs /><path d="M939 791Q959 791 971 771Q984 748 999.5 729.0Q1015 710 1035 693Q1061 672 1091.0 659.5Q1121 647 1154 647Q1169 647 1179.5 636.5Q1190 626 1190 611Q1190 596 1179.5 585.5Q1169 575 1154 575Q1136 575 1118 578Q1118 569 1118.5 558.5Q1119 548 1119 537Q1119 518 1116.5 499.0Q1114 480 1106.5 465.0Q1099 450 1085.0 440.5Q1071 431 1047 431Q1018 431 996.5 452.5Q975 474 975 503V575Q975 608 999 630Q989 637 973.0 653.0Q957 669 941.5 687.5Q926 706 914.5 724.5Q903 743 903 755Q903 770 914.0 780.5Q925 791 939 791ZM1693 578Q1675 575 1658 575Q1643 575 1632.5 585.5Q1622 596 1622 611Q1622 626 1632.5 636.5Q1643 647 1658 647Q1691 647 1721.0 659.5Q1751 672 1777 693Q1797 710 1812.5 729.0Q1828 748 1841 771Q1853 791 1873 791Q1887 791 1898.0 780.5Q1909 770 1909 755Q1909 743 1897.5 724.0Q1886 705 1870.0 686.0Q1854 667 1838.0 651.0Q1822 635 1812 630Q1837 608 1837 575V503Q1837 474 1815.5 452.5Q1794 431 1765 431Q1741 431 1726.5 440.5Q1712 450 1704.5 465.0Q1697 480 1694.5 499.0Q1692 518 1692 537Q1692 548 1692.5 558.5Q1693 569 1693 578ZM1873 288Q1888 288 1898.5 277.5Q1909 267 1909 252Q1909 186 1883.5 127.0Q1858 68 1814.0 24.0Q1770 -20 1711.5 -46.0Q1653 -72 1586 -72Q1571 -72 1560.5 -61.5Q1550 -51 1550 -36Q1550 -21 1560.5 -10.5Q1571 0 1586 0Q1629 0 1671.5 17.5Q1714 35 1747 61Q1792 97 1814.5 145.5Q1837 194 1837 252Q1837 267 1847.5 277.5Q1858 288 1873 288Z" style="fill:#402a32;stroke:none" transform="scale(1,-1) translate(0,-256)" /></svg>