<?xml version="1.0" encoding="utf-8" ?>
<svg baseProfile="full" height="256" version="1.1" width="256" xmlns="http://www.w3.org/2000/svg" xmlns:ev="http://www.w3.org/2001/xml-events" xmlns:xlink="http://www.w3.org/1999/xlink"><defs /><path d="M1406 505Q1409 547 1439.5 575.5Q1470 604 1512 604Q1534 604 1553.0 595.5Q1572 587 1586.5 572.5Q1601 558 1609.0 539.0Q1617 520 1617 498Q1617 494 1616.5 487.0Q1616 480 1616.5 473.5Q1617 467 1620.0 462.0Q1623 457 1629 457Q1631 457 1649.0 473.5Q1667 490 1692.5 515.0Q1718 540 1747.5 570.0Q1777 600 1804.0 627.0Q1831 654 1850.5 674.0Q1870 694 1876 700Q1904 728 1943 728Q1982 728 2009.0 701.0Q2036 674 2036 635Q2036 598 2009 569L2100 661Q2114 675 2131.5 681.5Q2149 688 2168 688Q2187 688 2204.0 681.0Q2221 674 2233.5 661.5Q2246 649 2253.0 632.0Q2260 615 2260 596Q2260 559 2233 530Q2246 543 2263.0 550.5Q2280 558 2299 558Q2318 558 2335.0 550.5Q2352 543 2364.5 530.5Q2377 518 2384.0 501.0Q2391 484 2391 465Q2391 446 2384.5 428.5Q2378 411 2364 397L2254 287Q2267 300 2284.0 307.5Q2301 315 2320 315Q2339 315 2356.0 307.5Q2373 300 2385.5 287.0Q2398 274 2405.0 257.5Q2412 241 2412 222Q2412 182 2384 154L2050 -180Q1996 -234 1927.5 -262.0Q1859 -290 1784 -290Q1709 -290 1641.5 -261.5Q1574 -233 1523.0 -184.0Q1472 -135 1440.5 -68.5Q1409 -2 1406 73Q1403 -2 1372.0 -68.0Q1341 -134 1289.5 -183.5Q1238 -233 1170.5 -261.5Q1103 -290 1028 -290Q953 -290 884.5 -261.5Q816 -233 762 -180L427 154Q413 168 406.5 185.5Q400 203 400 222Q400 241 407.0 258.0Q414 275 426.5 287.5Q439 300 455.5 307.5Q472 315 492 315Q511 315 528.0 307.5Q545 300 558 287L448 397Q434 411 427.5 428.5Q421 446 421 465Q421 484 428.0 501.0Q435 518 447.5 530.5Q460 543 476.5 550.5Q493 558 513 558Q532 558 549.0 550.5Q566 543 579 530Q566 544 558.5 561.0Q551 578 551 596Q551 615 558.5 632.0Q566 649 578.5 661.5Q591 674 608.0 681.0Q625 688 644 688Q663 688 680.5 681.5Q698 675 712 661L803 569Q776 598 776 635Q776 674 803.0 701.0Q830 728 869 728Q908 728 936 700Q941 694 961.0 674.0Q981 654 1008.0 627.0Q1035 600 1065.0 570.0Q1095 540 1120.5 515.0Q1146 490 1164.0 473.5Q1182 457 1184 457Q1190 457 1192.5 462.0Q1195 467 1195.5 473.5Q1196 480 1195.5 487.0Q1195 494 1195 498Q1195 520 1203.5 539.0Q1212 558 1226.5 572.5Q1241 587 1260.0 595.5Q1279 604 1301 604Q1322 604 1340.5 596.5Q1359 589 1373.0 575.5Q1387 562 1396.0 544.0Q1405 526 1406 505Z" style="fill:#ffc83d;stroke:none" transform="scale(1,-1) translate(0,-256)" /></svg>