<?xml version="1.0" encoding="utf-8" ?>
<svg baseProfile="full" height="256" version="1.1" width="256" xmlns="http://www.w3.org/2000/svg" xmlns:ev="http://www.w3.org/2001/xml-events" xmlns:xlink="http://www.w3.org/1999/xlink"><defs /><path d="M777 634Q777 639 777.0 642.5Q777 646 778 651L1026 403Q1031 398 1031 390Q1031 382 1025.0 375.5Q1019 369 1011 369Q1004 369 998 375L803 569Q790 582 783.5 599.0Q777 616 777 634ZM577 532 579 530Q566 543 559.5 560.0Q553 577 553 595Q553 605 554 610L894 270Q899 265 899 257Q899 249 893.0 243.0Q887 237 879 237Q871 237 866 242ZM748 106Q756 106 762.0 112.0Q768 118 768 126Q768 133 762 139L422 479Q421 475 421.0 471.0Q421 467 421 463Q421 448 427.0 430.0Q433 412 444 401L735 111Q740 106 748 106ZM2035 634Q2035 639 2035.0 642.5Q2035 646 2034 651L1786 403Q1781 398 1781 390Q1781 382 1787.0 375.5Q1793 369 1801 369Q1808 369 1814 375L2009 569Q2022 582 2028.5 599.0Q2035 616 2035 634ZM2233 530 2235 532 1946 242Q1941 237 1933 237Q1925 237 1919.0 242.5Q1913 248 1913 257Q1913 265 1918 270L2258 610Q2259 605 2259 595Q2259 577 2252.5 560.0Q2246 543 2233 530ZM2064 106Q2072 106 2077 111L2368 401Q2379 412 2385.0 430.0Q2391 448 2391 463Q2391 467 2391.0 471.0Q2391 475 2390 479L2050 139Q2044 133 2044 126Q2044 118 2050.0 112.0Q2056 106 2064 106ZM1478 88Q1478 16 1504.5 -49.5Q1531 -115 1577.0 -165.5Q1623 -216 1685.5 -248.5Q1748 -281 1820 -288Q1811 -289 1802.0 -289.5Q1793 -290 1784 -290Q1706 -290 1637.5 -260.0Q1569 -230 1517.5 -178.5Q1466 -127 1436.0 -58.5Q1406 10 1406 88V498Q1406 520 1414.5 539.0Q1423 558 1437.5 572.5Q1452 587 1471.0 595.5Q1490 604 1512 604Q1521 604 1530.0 602.0Q1539 600 1548 597Q1516 586 1497.0 558.5Q1478 531 1478 498Z" style="fill:#d67d00;stroke:none" transform="scale(1,-1) translate(0,-256)" /></svg>