<?xml version="1.0" encoding="utf-8" ?>
<svg baseProfile="full" height="256" version="1.1" width="256" xmlns="http://www.w3.org/2000/svg" xmlns:ev="http://www.w3.org/2001/xml-events" xmlns:xlink="http://www.w3.org/1999/xlink"><defs /><path d="M1334 1006Q1320 1006 1309.0 1017.0Q1298 1028 1298 1042Q1298 1057 1308.5 1067.5Q1319 1078 1334 1078H1550Q1565 1078 1575.5 1067.5Q1586 1057 1586 1042Q1586 1028 1575.0 1017.0Q1564 1006 1550 1006ZM1334 863Q1320 863 1309.0 874.0Q1298 885 1298 899Q1298 913 1309.0 924.0Q1320 935 1334 935H1550Q1564 935 1575.0 924.0Q1586 913 1586 899Q1586 885 1575.0 874.0Q1564 863 1550 863Z" style="fill:#c790f1;stroke:none" transform="scale(1,-1) translate(0,-256)" /></svg>