<?xml version="1.0" encoding="utf-8" ?>
<svg baseProfile="full" height="256" version="1.1" width="256" xmlns="http://www.w3.org/2000/svg" xmlns:ev="http://www.w3.org/2001/xml-events" xmlns:xlink="http://www.w3.org/1999/xlink"><defs /><path d="M1051 1155Q1017 1165 996.0 1194.0Q975 1223 975 1258Q975 1280 983.5 1300.0Q992 1320 1006.5 1334.5Q1021 1349 1040.5 1357.5Q1060 1366 1083 1366H1801Q1823 1366 1843.0 1357.5Q1863 1349 1877.5 1334.5Q1892 1320 1900.5 1300.0Q1909 1280 1909 1258Q1909 1224 1889.5 1196.5Q1870 1169 1838 1157V915Q1838 859 1823.0 806.5Q1808 754 1779.5 708.5Q1751 663 1711.0 625.5Q1671 588 1622 563V282Q1622 251 1600.5 233.5Q1579 216 1550 216V-287H1334V216Q1305 216 1283.5 233.5Q1262 251 1262 282V566Q1214 591 1175.0 628.5Q1136 666 1108.5 711.5Q1081 757 1066.0 808.5Q1051 860 1051 915Z" style="fill:#533566;stroke:none" transform="scale(1,-1) translate(0,-256)" /></svg>