<?xml version="1.0" encoding="utf-8" ?>
<svg baseProfile="full" height="256" version="1.1" width="256" xmlns="http://www.w3.org/2000/svg" xmlns:ev="http://www.w3.org/2001/xml-events" xmlns:xlink="http://www.w3.org/1999/xlink"><defs /><path d="M1190 1659Q1190 1688 1212.5 1706.5Q1235 1725 1262 1725Q1290 1725 1312.0 1706.5Q1334 1688 1334 1659V1360Q1334 1331 1312.0 1312.5Q1290 1294 1262 1294Q1235 1294 1212.5 1312.5Q1190 1331 1190 1360ZM1550 1659Q1550 1688 1572.0 1706.5Q1594 1725 1622 1725Q1650 1725 1671.5 1706.5Q1693 1688 1693 1659V1360Q1693 1331 1671.5 1312.5Q1650 1294 1622 1294Q1594 1294 1572.0 1312.5Q1550 1331 1550 1360Z" style="fill:#f3ad61;stroke:none" transform="scale(1,-1) translate(0,-256)" /></svg>