<?xml version="1.0" encoding="utf-8" ?>
<svg baseProfile="full" height="256" version="1.1" width="256" xmlns="http://www.w3.org/2000/svg" xmlns:ev="http://www.w3.org/2001/xml-events" xmlns:xlink="http://www.w3.org/1999/xlink"><defs /><path d="M400 525Q400 565 415.5 600.5Q431 636 457.0 662.0Q483 688 518.5 703.5Q554 719 594 719H1215Q1272 719 1316.5 700.5Q1361 682 1406 648Q1518 563 1641.5 514.0Q1765 465 1901 434Q1939 426 1976.5 420.0Q2014 414 2052 406Q2131 388 2197.0 349.0Q2263 310 2311.0 253.0Q2359 196 2385.5 124.5Q2412 53 2412 -29V-231H1278Q1278 -189 1262.0 -152.0Q1246 -115 1218.5 -87.5Q1191 -60 1154.0 -44.0Q1117 -28 1075 -28Q1058 -28 1041.0 -27.0Q1024 -26 1007 -26Q999 -26 991.0 -26.5Q983 -27 975 -28L400 -108V525Z" style="fill:#a56953;stroke:none" transform="scale(1,-1) translate(0,-256)" /></svg>