<?xml version="1.0" encoding="utf-8" ?>
<svg baseProfile="full" height="256" version="1.1" width="256" xmlns="http://www.w3.org/2000/svg" xmlns:ev="http://www.w3.org/2001/xml-events" xmlns:xlink="http://www.w3.org/1999/xlink"><defs /><path d="M1485 624Q1485 604 1470 589L1353 471Q1339 457 1317 457Q1297 457 1282.5 471.5Q1268 486 1268 506Q1268 527 1282 541L1400 659Q1415 674 1435 674Q1455 674 1470.0 659.0Q1485 644 1485 624ZM1699 510Q1699 489 1685 475L1567 358Q1552 343 1532 343Q1512 343 1497.0 358.0Q1482 373 1482 393Q1482 413 1497 428L1615 546Q1629 560 1650 560Q1671 560 1685.0 545.5Q1699 531 1699 510ZM400 -29H973V-231H400Z" style="fill:#6d4534;stroke:none" transform="scale(1,-1) translate(0,-256)" /></svg>