<?xml version="1.0" encoding="utf-8" ?>
<svg baseProfile="full" height="256" version="1.1" width="256" xmlns="http://www.w3.org/2000/svg" xmlns:ev="http://www.w3.org/2001/xml-events" xmlns:xlink="http://www.w3.org/1999/xlink"><defs /><path d="M2232 1266Q2247 1266 2253.5 1253.5Q2260 1241 2266 1230Q2270 1222 2278.0 1218.0Q2286 1214 2293.5 1210.5Q2301 1207 2306.5 1201.5Q2312 1196 2312 1186Q2312 1172 2299.5 1165.0Q2287 1158 2276 1153Q2268 1149 2264.0 1141.0Q2260 1133 2256.5 1125.5Q2253 1118 2247.5 1112.5Q2242 1107 2232 1107Q2218 1107 2211.0 1119.5Q2204 1132 2199 1143Q2195 1150 2187.0 1154.5Q2179 1159 2171.5 1162.5Q2164 1166 2158.5 1171.5Q2153 1177 2153 1187Q2153 1201 2165.5 1208.0Q2178 1215 2189 1220Q2196 1224 2200.0 1232.0Q2204 1240 2208.0 1247.5Q2212 1255 2217.0 1260.5Q2222 1266 2232 1266ZM659 1187Q659 1172 646.5 1165.5Q634 1159 623 1153Q616 1149 612.0 1141.5Q608 1134 604.0 1126.5Q600 1119 594.5 1113.5Q589 1108 579 1108Q569 1108 564.0 1113.5Q559 1119 555.0 1126.5Q551 1134 547.0 1141.5Q543 1149 536 1153Q525 1159 512.5 1165.5Q500 1172 500 1186Q500 1201 512.5 1207.5Q525 1214 536 1220Q543 1224 547.0 1231.5Q551 1239 555.0 1246.5Q559 1254 564.0 1260.0Q569 1266 579 1266Q589 1266 594.5 1260.5Q600 1255 604.0 1247.5Q608 1240 612.0 1232.0Q616 1224 623 1220Q634 1215 646.5 1208.0Q659 1201 659 1187ZM803 970Q803 956 790.5 949.0Q778 942 767 936Q760 932 756.0 924.5Q752 917 748.0 910.0Q744 903 738.5 897.5Q733 892 723 892Q713 892 708.0 897.5Q703 903 699.0 910.0Q695 917 691.5 924.5Q688 932 681 936Q670 942 657.0 949.0Q644 956 644 970Q644 986 657.0 992.0Q670 998 681 1004Q688 1007 691.5 1015.0Q695 1023 698.5 1030.5Q702 1038 707.5 1044.0Q713 1050 723 1050Q733 1050 738.5 1044.0Q744 1038 748.0 1030.5Q752 1023 756.0 1015.5Q760 1008 767 1004Q778 998 790.5 991.5Q803 985 803 970ZM579 833Q569 833 563.5 827.0Q558 821 554.5 813.5Q551 806 547.0 798.5Q543 791 536 787Q525 781 512.5 774.5Q500 768 500 753Q500 739 512.5 732.5Q525 726 536 720Q543 716 547.0 708.5Q551 701 555.0 693.5Q559 686 564.0 680.5Q569 675 580 675Q595 675 601.0 687.5Q607 700 613 711Q617 718 624.5 722.0Q632 726 639.5 729.5Q647 733 653.0 738.5Q659 744 659 754Q659 764 652.5 770.0Q646 776 638.0 780.0Q630 784 622.5 787.5Q615 791 612 797Q607 808 601.0 820.5Q595 833 579 833ZM803 539Q803 525 790.5 518.5Q778 512 767 506Q760 502 756.0 494.5Q752 487 748.5 479.5Q745 472 739.5 466.0Q734 460 724 460Q714 460 708.0 466.0Q702 472 698.0 479.5Q694 487 690.5 495.0Q687 503 681 506Q670 512 657.5 518.0Q645 524 645 539Q645 549 650.5 554.5Q656 560 663.5 564.0Q671 568 678.5 571.5Q686 575 690 582Q696 593 703.0 606.0Q710 619 724 619Q738 619 745.0 605.5Q752 592 757 582Q761 575 768.5 571.5Q776 568 783.5 564.0Q791 560 797.0 554.5Q803 549 803 539ZM2009 971Q2009 956 2021.5 949.5Q2034 943 2045 937Q2052 933 2056.0 925.5Q2060 918 2064.0 910.5Q2068 903 2073.0 897.0Q2078 891 2088 891Q2103 891 2109.5 903.5Q2116 916 2121 927Q2124 934 2132.0 938.0Q2140 942 2148.0 945.5Q2156 949 2162.0 954.5Q2168 960 2168 970Q2168 985 2155.5 991.5Q2143 998 2132 1004Q2125 1008 2121.0 1016.0Q2117 1024 2113.0 1031.5Q2109 1039 2103.5 1044.5Q2098 1050 2088 1050Q2078 1050 2073.0 1044.0Q2068 1038 2064.0 1030.5Q2060 1023 2056.0 1015.5Q2052 1008 2045 1004Q2034 999 2021.5 992.0Q2009 985 2009 971ZM2232 833Q2247 833 2253.5 820.5Q2260 808 2266 797Q2270 790 2278.0 786.0Q2286 782 2293.5 778.0Q2301 774 2306.5 768.5Q2312 763 2312 753Q2312 739 2299.5 732.5Q2287 726 2276 720Q2268 716 2264.0 708.5Q2260 701 2256.5 693.5Q2253 686 2247.5 680.5Q2242 675 2232 675Q2218 675 2211.5 687.5Q2205 700 2199 711Q2195 718 2187.5 722.0Q2180 726 2172.5 729.5Q2165 733 2159.5 738.5Q2154 744 2154 754Q2154 768 2166.5 775.0Q2179 782 2190 787Q2196 790 2200.0 798.0Q2204 806 2207.5 813.5Q2211 821 2216.5 827.0Q2222 833 2232 833ZM2010 539Q2010 529 2015.5 524.0Q2021 519 2028.5 515.0Q2036 511 2043.5 507.5Q2051 504 2055 497Q2061 486 2067.5 473.0Q2074 460 2088 460Q2103 460 2109.5 473.0Q2116 486 2122 497Q2125 503 2133.0 507.0Q2141 511 2148.5 514.5Q2156 518 2162.0 523.5Q2168 529 2168 539Q2168 549 2162.0 554.5Q2156 560 2148.5 564.0Q2141 568 2133.0 572.0Q2125 576 2122 582Q2117 593 2110.0 606.0Q2103 619 2089 619Q2074 619 2067.5 606.0Q2061 593 2055 582Q2051 575 2043.5 571.0Q2036 567 2028.5 563.5Q2021 560 2015.5 554.5Q2010 549 2010 539ZM1657 400Q1643 400 1636.0 387.0Q1629 374 1624 363Q1620 355 1612.5 351.0Q1605 347 1597.5 343.5Q1590 340 1584.5 334.5Q1579 329 1579 319Q1579 305 1591.5 298.5Q1604 292 1615 286Q1622 282 1626.0 274.5Q1630 267 1633.5 259.5Q1637 252 1642.5 246.5Q1648 241 1658 241Q1672 241 1679.0 253.5Q1686 266 1691 277Q1694 283 1701.5 287.0Q1709 291 1716.5 295.0Q1724 299 1730.0 304.5Q1736 310 1736 320Q1736 334 1723.5 341.0Q1711 348 1700 353Q1694 356 1690.0 364.0Q1686 372 1682.0 380.0Q1678 388 1672.5 394.0Q1667 400 1657 400ZM1485 81Q1485 71 1479.5 66.0Q1474 61 1466.5 57.0Q1459 53 1451.0 49.0Q1443 45 1439 38Q1433 27 1426.5 14.5Q1420 2 1405 2Q1395 2 1389.5 8.0Q1384 14 1380.0 22.0Q1376 30 1372.5 37.5Q1369 45 1363 48Q1352 54 1339.5 60.0Q1327 66 1327 81Q1327 97 1339.0 102.5Q1351 108 1363 114Q1369 117 1373.0 124.5Q1377 132 1380.5 140.5Q1384 149 1389.5 155.0Q1395 161 1405 161Q1415 161 1421.0 155.0Q1427 149 1431.0 140.5Q1435 132 1438.5 124.5Q1442 117 1448 114Q1459 109 1472.0 103.0Q1485 97 1485 81ZM1155 403Q1140 403 1133.5 390.0Q1127 377 1121 366Q1117 359 1109.5 355.5Q1102 352 1094.5 348.0Q1087 344 1081.0 338.5Q1075 333 1075 323Q1075 313 1081.0 307.5Q1087 302 1094.5 298.5Q1102 295 1110.0 291.0Q1118 287 1121 281Q1127 270 1133.5 257.5Q1140 245 1154 245Q1169 245 1175.5 257.5Q1182 270 1187 281Q1190 287 1197.5 290.5Q1205 294 1213.0 298.0Q1221 302 1227.0 308.0Q1233 314 1233 324Q1233 338 1220.5 345.0Q1208 352 1197 357Q1190 361 1186.0 368.5Q1182 376 1178.5 383.5Q1175 391 1170.0 397.0Q1165 403 1155 403ZM1737 -109Q1737 -119 1731.0 -124.5Q1725 -130 1717.0 -134.0Q1709 -138 1701.5 -141.5Q1694 -145 1691 -151Q1686 -162 1679.5 -174.5Q1673 -187 1658 -187Q1648 -187 1643.0 -181.5Q1638 -176 1634.0 -168.5Q1630 -161 1626.0 -153.5Q1622 -146 1615 -142Q1604 -136 1591.5 -129.5Q1579 -123 1579 -109Q1579 -99 1585.0 -93.0Q1591 -87 1599.0 -83.0Q1607 -79 1614.5 -75.5Q1622 -72 1625 -66Q1630 -55 1637.0 -42.0Q1644 -29 1658 -29Q1668 -29 1673.0 -34.5Q1678 -40 1681.5 -47.5Q1685 -55 1689.0 -63.0Q1693 -71 1701 -75Q1712 -81 1724.5 -87.5Q1737 -94 1737 -109ZM1155 -29Q1140 -29 1133.5 -42.0Q1127 -55 1121 -66Q1117 -73 1109.0 -77.0Q1101 -81 1093.5 -85.0Q1086 -89 1080.5 -94.5Q1075 -100 1075 -110Q1075 -120 1081.0 -125.5Q1087 -131 1095.0 -135.0Q1103 -139 1110.5 -142.5Q1118 -146 1121 -151Q1127 -162 1133.0 -174.5Q1139 -187 1154 -187Q1170 -187 1176.0 -174.5Q1182 -162 1187 -151Q1190 -145 1197.5 -141.5Q1205 -138 1213.0 -134.0Q1221 -130 1227.0 -124.5Q1233 -119 1233 -109Q1233 -94 1220.5 -87.5Q1208 -81 1197 -75Q1189 -71 1185.5 -63.0Q1182 -55 1178.5 -47.5Q1175 -40 1170.0 -34.5Q1165 -29 1155 -29Z" style="fill:#ff6dc6;stroke:none" transform="scale(1,-1) translate(0,-256)" /></svg>