<?xml version="1.0" encoding="utf-8" ?>
<svg baseProfile="full" height="256" version="1.1" width="256" xmlns="http://www.w3.org/2000/svg" xmlns:ev="http://www.w3.org/2001/xml-events" xmlns:xlink="http://www.w3.org/1999/xlink"><defs /><path d="M1550 1510H1765Q1838 1510 1905.5 1492.5Q1973 1475 2037 1441L2341 1280Q2353 1274 2365.5 1267.5Q2378 1261 2388.5 1253.0Q2399 1245 2406.0 1234.0Q2413 1223 2413 1208V818Q2413 714 2373.5 622.5Q2334 531 2266.0 462.5Q2198 394 2106.5 354.0Q2015 314 1911 314V-302H904V575H1909V960H904V316Q799 316 707.5 355.5Q616 395 547.5 463.5Q479 532 439.5 623.5Q400 715 400 820V1216Q400 1231 407.0 1242.0Q414 1253 424.5 1261.0Q435 1269 448.0 1275.0Q461 1281 472 1287L767 1439Q904 1510 1057 1510H1262L1405 1271Z" style="fill:#00a6ed;stroke:none" transform="scale(1,-1) translate(0,-256)" /></svg>