<?xml version="1.0" encoding="utf-8" ?>
<svg baseProfile="full" height="256" version="1.1" width="256" xmlns="http://www.w3.org/2000/svg" xmlns:ev="http://www.w3.org/2001/xml-events" xmlns:xlink="http://www.w3.org/1999/xlink"><defs /><path d="M904 316Q886 316 867.0 316.5Q848 317 831 321V1078Q831 1095 841.0 1105.5Q851 1116 868 1116Q885 1116 894.5 1105.0Q904 1094 904 1078ZM1909 316V1078Q1909 1094 1918.5 1105.0Q1928 1116 1945 1116Q1962 1116 1971.5 1105.0Q1981 1094 1981 1078V321Q1964 317 1945.0 316.5Q1926 316 1909 316Z" style="fill:#0074ba;stroke:none" transform="scale(1,-1) translate(0,-256)" /></svg>