<?xml version="1.0" encoding="utf-8" ?>
<svg baseProfile="full" height="256" version="1.1" width="256" xmlns="http://www.w3.org/2000/svg" xmlns:ev="http://www.w3.org/2001/xml-events" xmlns:xlink="http://www.w3.org/1999/xlink"><defs /><path d="M1797 -215H1015Q887 -215 774.5 -165.5Q662 -116 579.0 -31.0Q496 54 448.0 167.0Q400 280 400 408Q400 453 406.0 497.5Q412 542 425 585Q449 669 473.0 751.5Q497 834 522 918Q551 1017 608.0 1099.0Q665 1181 742.5 1240.5Q820 1300 914.0 1333.0Q1008 1366 1112 1366H1704Q1809 1366 1904.0 1332.5Q1999 1299 2076.5 1238.5Q2154 1178 2210.5 1094.0Q2267 1010 2296 910Q2319 826 2342.5 744.0Q2366 662 2389 578Q2413 494 2413 407Q2413 279 2365.0 166.0Q2317 53 2233.5 -31.5Q2150 -116 2037.5 -165.5Q1925 -215 1797 -215Z" style="fill:#ff8257;stroke:none" transform="scale(1,-1) translate(0,-256)" /></svg>