<?xml version="1.0" encoding="utf-8" ?>
<svg baseProfile="full" height="256" version="1.1" width="256" xmlns="http://www.w3.org/2000/svg" xmlns:ev="http://www.w3.org/2001/xml-events" xmlns:xlink="http://www.w3.org/1999/xlink"><defs /><path d="M1759 1452Q1758 1447 1762.0 1442.5Q1766 1438 1771 1438Q1777 1438 1788.0 1444.0Q1799 1450 1810.5 1457.0Q1822 1464 1833.0 1470.0Q1844 1476 1850 1476Q1852 1476 1858.0 1473.0Q1864 1470 1871.5 1466.5Q1879 1463 1885.5 1459.5Q1892 1456 1894 1455L1904 1446Q1939 1411 1958.0 1365.5Q1977 1320 1977 1271Q1977 1221 1958.0 1176.5Q1939 1132 1904 1097L1670 863Q1686 846 1700.0 831.5Q1714 817 1724.0 800.5Q1734 784 1739.5 764.5Q1745 745 1745 720Q1745 687 1732.5 658.0Q1720 629 1698.5 607.0Q1677 585 1647.5 572.5Q1618 560 1585 560Q1553 560 1523.5 572.0Q1494 584 1471 607L1373 706L1273 606Q1251 584 1222.0 572.0Q1193 560 1161 560Q1128 560 1099.5 572.5Q1071 585 1050.0 606.0Q1029 627 1016.5 655.5Q1004 684 1004 717Q1004 762 1022.5 791.0Q1041 820 1071 850Q1070 851 1070.0 851.5Q1070 852 1069 853L827 1095Q792 1130 773.5 1175.0Q755 1220 755 1269Q755 1320 774.5 1364.5Q794 1409 827.0 1443.0Q860 1477 905.0 1496.5Q950 1516 1001 1516Q1050 1516 1095.5 1497.0Q1141 1478 1176 1443L1364 1255L1556 1446Q1591 1481 1636.0 1499.5Q1681 1518 1731 1518Q1750 1518 1770 1515Z" style="fill:#75e0fc;stroke:none" transform="scale(1,-1) translate(0,-256)" /></svg>