<?xml version="1.0" encoding="utf-8" ?>
<svg baseProfile="full" height="256" version="1.1" width="256" xmlns="http://www.w3.org/2000/svg" xmlns:ev="http://www.w3.org/2001/xml-events" xmlns:xlink="http://www.w3.org/1999/xlink"><defs /><path d="M1256 1304Q1256 1311 1260.5 1316.5Q1265 1322 1271.5 1326.5Q1278 1331 1285.0 1333.5Q1292 1336 1298 1336Q1312 1336 1326.0 1326.0Q1340 1316 1340 1300Q1340 1294 1333 1294H1265Q1256 1294 1256 1304ZM1445 1336Q1433 1336 1418.0 1326.5Q1403 1317 1403 1303Q1403 1300 1404.5 1297.0Q1406 1294 1410 1294H1479Q1487 1294 1487 1302Q1487 1316 1473.0 1326.0Q1459 1336 1445 1336Z" style="fill:#ffffff;stroke:none" transform="scale(1,-1) translate(0,-256)" /></svg>