<?xml version="1.0" encoding="utf-8" ?>
<svg baseProfile="full" height="256" version="1.1" width="256" xmlns="http://www.w3.org/2000/svg" xmlns:ev="http://www.w3.org/2001/xml-events" xmlns:xlink="http://www.w3.org/1999/xlink"><defs /><path d="M1893 1245Q1904 1245 1911.0 1237.5Q1918 1230 1917 1219L1911 1144Q1906 1081 1905.5 1017.0Q1905 953 1903 890Q1901 856 1878.0 832.5Q1855 809 1820 809Q1803 809 1788 815Q1783 817 1766.0 824.0Q1749 831 1726.0 840.5Q1703 850 1677.0 861.0Q1651 872 1629.0 880.5Q1607 889 1592.0 895.0Q1577 901 1575 901Q1573 901 1572.0 897.0Q1571 893 1571.0 888.0Q1571 883 1571.0 878.0Q1571 873 1571 871Q1571 820 1571.0 769.5Q1571 719 1578 669Q1583 631 1594.0 587.0Q1605 543 1617.5 499.0Q1630 455 1643.5 412.5Q1657 370 1667 334Q1671 321 1671 304Q1671 272 1655 247L1429 -115Q1424 -124 1414 -124Q1403 -124 1398 -113Q1395 -107 1387.5 -90.5Q1380 -74 1371.5 -55.5Q1363 -37 1356.5 -21.0Q1350 -5 1350 -2Q1350 2 1360.5 25.5Q1371 49 1386.5 82.5Q1402 116 1420.0 154.0Q1438 192 1453.5 226.5Q1469 261 1479.5 287.0Q1490 313 1490 322Q1490 327 1484.0 343.5Q1478 360 1469.5 382.5Q1461 405 1450.0 430.5Q1439 456 1429.5 479.5Q1420 503 1412.0 521.0Q1404 539 1401 547Q1396 558 1385 558Q1368 558 1366 541L1310 -216Q1309 -221 1306.0 -226.5Q1303 -232 1298 -234Q1293 -237 1277.5 -244.5Q1262 -252 1244.5 -260.0Q1227 -268 1212.5 -274.5Q1198 -281 1195 -281Q1187 -281 1182.0 -276.0Q1177 -271 1177 -263L1176 834Q1176 836 1176.0 843.5Q1176 851 1171 851Q1166 851 1163.5 848.0Q1161 845 1158 842Q1132 817 1101.5 795.5Q1071 774 1039 758Q1004 741 966.5 734.0Q929 727 891 727Q860 727 830.5 730.0Q801 733 772 741Q765 733 754.0 728.5Q743 724 733 724Q724 724 715 727Q709 719 701.0 713.0Q693 707 682 707Q668 707 659.5 719.0Q651 731 651 744Q651 761 658.5 777.0Q666 793 677 805Q708 841 741.5 852.5Q775 864 810.0 866.0Q845 868 882.5 868.0Q920 868 960 881Q1004 895 1037.5 923.5Q1071 952 1098.5 982.5Q1126 1013 1149.0 1039.0Q1172 1065 1195 1075Q1222 1086 1251.0 1089.5Q1280 1093 1309 1093H1440Q1479 1093 1507.5 1085.5Q1536 1078 1571 1063L1765 983Q1768 995 1772.5 1015.5Q1777 1036 1781.5 1057.5Q1786 1079 1789.0 1098.5Q1792 1118 1792 1129Q1792 1142 1788.0 1150.0Q1784 1158 1778.5 1164.5Q1773 1171 1769.0 1178.5Q1765 1186 1765 1197V1254Q1765 1267 1774.0 1275.5Q1783 1284 1796 1284Q1811 1284 1817.5 1276.0Q1824 1268 1826.0 1256.0Q1828 1244 1827.5 1230.0Q1827 1216 1827.5 1204.0Q1828 1192 1832.5 1184.0Q1837 1176 1848 1176Q1864 1176 1866.5 1187.0Q1869 1198 1869.5 1210.5Q1870 1223 1873.0 1234.0Q1876 1245 1893 1245Z" style="fill:#fdbb11;stroke:none" transform="scale(1,-1) translate(0,-256)" /></svg>