<?xml version="1.0" encoding="utf-8" ?>
<svg baseProfile="full" height="256" version="1.1" width="256" xmlns="http://www.w3.org/2000/svg" xmlns:ev="http://www.w3.org/2001/xml-events" xmlns:xlink="http://www.w3.org/1999/xlink"><defs /><path d="M1991 1600Q1991 1593 1981.5 1584.0Q1972 1575 1960.0 1565.5Q1948 1556 1938.5 1547.0Q1929 1538 1929 1531Q1929 1511 1935.5 1490.5Q1942 1470 1942 1450Q1942 1445 1938.5 1441.5Q1935 1438 1930 1438Q1924 1438 1913.0 1444.0Q1902 1450 1890.0 1457.0Q1878 1464 1867.0 1470.0Q1856 1476 1850 1476Q1843 1476 1832.5 1470.0Q1822 1464 1810.5 1457.0Q1799 1450 1788.5 1444.0Q1778 1438 1771 1438Q1766 1438 1762.5 1441.5Q1759 1445 1759 1450Q1759 1470 1765.5 1490.0Q1772 1510 1772 1530Q1772 1538 1762.5 1547.0Q1753 1556 1741.0 1565.5Q1729 1575 1719.5 1583.5Q1710 1592 1710 1600Q1710 1610 1721 1612L1796 1623Q1804 1624 1810.0 1637.0Q1816 1650 1822.0 1665.5Q1828 1681 1834.5 1693.5Q1841 1706 1850 1706Q1859 1706 1865.5 1693.5Q1872 1681 1878.0 1665.5Q1884 1650 1890.0 1637.0Q1896 1624 1904 1623L1980 1612Q1991 1610 1991 1600Z" style="fill:#ffc83d;stroke:none" transform="scale(1,-1) translate(0,-256)" /></svg>