<?xml version="1.0" encoding="utf-8" ?>
<svg baseProfile="full" height="256" version="1.1" width="256" xmlns="http://www.w3.org/2000/svg" xmlns:ev="http://www.w3.org/2001/xml-events" xmlns:xlink="http://www.w3.org/1999/xlink"><defs /><path d="M1277 1301Q1277 1312 1285.0 1320.0Q1293 1328 1304 1328Q1314 1328 1322.5 1321.5Q1331 1315 1331 1304Q1331 1297 1330 1294H1278Q1278 1296 1277.5 1297.5Q1277 1299 1277 1301ZM1466 1301Q1466 1312 1458.0 1320.0Q1450 1328 1439 1328Q1429 1328 1420.5 1321.5Q1412 1315 1412 1304Q1412 1297 1413 1294H1465Q1465 1296 1465.5 1297.5Q1466 1299 1466 1301Z" style="fill:#7d4533;stroke:none" transform="scale(1,-1) translate(0,-256)" /></svg>