<?xml version="1.0" encoding="utf-8" ?>
<svg baseProfile="full" height="256" version="1.1" width="256" xmlns="http://www.w3.org/2000/svg" xmlns:ev="http://www.w3.org/2001/xml-events" xmlns:xlink="http://www.w3.org/1999/xlink"><defs /><path d="M1267 1294Q1267 1273 1252.0 1258.5Q1237 1244 1216 1244Q1196 1244 1181.0 1259.0Q1166 1274 1166 1294Q1166 1314 1181.0 1329.0Q1196 1344 1216 1344Q1237 1344 1252.0 1329.5Q1267 1315 1267 1294ZM1575 1294Q1575 1274 1560.0 1259.0Q1545 1244 1525 1244Q1504 1244 1489.0 1258.5Q1474 1273 1474 1294Q1474 1315 1489.0 1329.5Q1504 1344 1525 1344Q1545 1344 1560.0 1329.0Q1575 1314 1575 1294Z" style="fill:#fcb100;stroke:none" transform="scale(1,-1) translate(0,-256)" /></svg>