<?xml version="1.0" encoding="utf-8" ?>
<svg baseProfile="full" height="256" version="1.1" width="256" xmlns="http://www.w3.org/2000/svg" xmlns:ev="http://www.w3.org/2001/xml-events" xmlns:xlink="http://www.w3.org/1999/xlink"><defs /><path d="M1372 1197Q1386 1197 1400.0 1202.5Q1414 1208 1419 1208Q1424 1208 1424 1203Q1424 1197 1417.5 1191.5Q1411 1186 1402.5 1182.0Q1394 1178 1385.5 1175.5Q1377 1173 1372 1173Q1367 1173 1358.5 1175.5Q1350 1178 1341.5 1182.0Q1333 1186 1326.5 1191.5Q1320 1197 1320 1203Q1320 1208 1325 1208Q1330 1208 1344.0 1202.5Q1358 1197 1372 1197Z" style="fill:#990839;stroke:none" transform="scale(1,-1) translate(0,-256)" /></svg>