<?xml version="1.0" encoding="utf-8" ?>
<svg baseProfile="full" height="256" version="1.1" width="256" xmlns="http://www.w3.org/2000/svg" xmlns:ev="http://www.w3.org/2001/xml-events" xmlns:xlink="http://www.w3.org/1999/xlink"><defs /><path d="M1170 1430Q1170 1452 1177.0 1464.5Q1184 1477 1195.0 1485.0Q1206 1493 1219.0 1499.5Q1232 1506 1243 1517Q1253 1527 1262.5 1536.0Q1272 1545 1282.0 1551.5Q1292 1558 1304.0 1561.5Q1316 1565 1332 1565Q1342 1565 1351.5 1563.0Q1361 1561 1372 1561Q1382 1561 1391.5 1563.0Q1401 1565 1411 1565Q1437 1565 1454.5 1554.0Q1472 1543 1489 1525Q1501 1512 1516.5 1505.0Q1532 1498 1545.0 1490.0Q1558 1482 1567.0 1468.5Q1576 1455 1576 1428Q1576 1405 1565.5 1386.5Q1555 1368 1555 1345V1235Q1555 1204 1533.0 1182.0Q1511 1160 1480 1160H1264Q1232 1160 1211.5 1181.5Q1191 1203 1190 1234L1188 1349Q1188 1371 1179.0 1390.0Q1170 1409 1170 1430Z" style="fill:#f1a11e;stroke:none" transform="scale(1,-1) translate(0,-256)" /></svg>