<?xml version="1.0" encoding="utf-8" ?>
<svg baseProfile="full" height="256" version="1.1" width="256" xmlns="http://www.w3.org/2000/svg" xmlns:ev="http://www.w3.org/2001/xml-events" xmlns:xlink="http://www.w3.org/1999/xlink"><defs /><path d="M1534 1379Q1534 1333 1531.0 1288.0Q1528 1243 1525 1197Q1523 1174 1511.5 1155.0Q1500 1136 1483.0 1122.5Q1466 1109 1444.5 1101.0Q1423 1093 1402 1093H1342Q1321 1093 1299.5 1101.0Q1278 1109 1260.5 1122.5Q1243 1136 1231.5 1155.0Q1220 1174 1219 1197Q1216 1237 1213.5 1276.0Q1211 1315 1208 1355Q1208 1360 1209.0 1366.5Q1210 1373 1211 1378Q1216 1423 1242.5 1453.0Q1269 1483 1317 1483H1357Q1365 1483 1369.0 1479.0Q1373 1475 1377 1469Q1388 1449 1399.5 1440.0Q1411 1431 1424.5 1427.5Q1438 1424 1454.0 1424.0Q1470 1424 1490 1424Q1508 1424 1521.0 1410.5Q1534 1397 1534 1379Z" style="fill:#ffc83d;stroke:none" transform="scale(1,-1) translate(0,-256)" /></svg>