<?xml version="1.0" encoding="utf-8" ?>
<svg baseProfile="full" height="256" version="1.1" width="256" xmlns="http://www.w3.org/2000/svg" xmlns:ev="http://www.w3.org/2001/xml-events" xmlns:xlink="http://www.w3.org/1999/xlink"><defs /><path d="M1315 -143 1310 -216Q1310 -229 1298 -234Q1292 -237 1277.0 -244.5Q1262 -252 1245.0 -260.0Q1228 -268 1213.5 -274.5Q1199 -281 1195 -281Q1187 -281 1182.0 -276.0Q1177 -271 1177 -263V-157ZM1474 -44 1429 -115Q1424 -124 1414 -124Q1403 -124 1398 -113Q1395 -107 1387.5 -90.5Q1380 -74 1371.5 -55.5Q1363 -37 1356.5 -21.5Q1350 -6 1350 -2Q1350 1 1355.5 14.0Q1361 27 1368.0 42.0Q1375 57 1381.5 71.0Q1388 85 1390 89Z" style="fill:#635994;stroke:none" transform="scale(1,-1) translate(0,-256)" /></svg>