<?xml version="1.0" encoding="utf-8" ?>
<svg baseProfile="full" height="256" version="1.1" width="256" xmlns="http://www.w3.org/2000/svg" xmlns:ev="http://www.w3.org/2001/xml-events" xmlns:xlink="http://www.w3.org/1999/xlink"><defs /><path d="M1444 1093Q1475 1092 1501.5 1087.0Q1528 1082 1557 1070Q1569 1052 1569 1030Q1570 990 1570.5 950.5Q1571 911 1571 871Q1571 833 1572.5 795.0Q1574 757 1573 719H1176Q1176 751 1175.5 784.0Q1175 817 1175 849V1025Q1175 1039 1180.0 1052.0Q1185 1065 1195 1075Q1220 1086 1246.5 1089.0Q1273 1092 1300 1093L1347 1004Q1355 989 1372 989Q1390 989 1398 1005Z" style="fill:#ff6723;stroke:none" transform="scale(1,-1) translate(0,-256)" /></svg>