<?xml version="1.0" encoding="utf-8" ?>
<svg baseProfile="full" height="256" version="1.1" width="256" xmlns="http://www.w3.org/2000/svg" xmlns:ev="http://www.w3.org/2001/xml-events" xmlns:xlink="http://www.w3.org/1999/xlink"><defs /><path d="M1478 503Q1478 533 1499.0 554.0Q1520 575 1550 575H1729Q1781 575 1827.0 555.5Q1873 536 1907.0 502.0Q1941 468 1961.0 422.0Q1981 376 1981 324Q1981 272 1961.0 226.0Q1941 180 1907.0 146.0Q1873 112 1827.0 92.0Q1781 72 1729 72Q1677 72 1631.0 92.0Q1585 112 1551.0 146.0Q1517 180 1497.5 226.0Q1478 272 1478 324Z" style="fill:#5092ff;stroke:none" transform="scale(1,-1) translate(0,-256)" /></svg>