<?xml version="1.0" encoding="utf-8" ?>
<svg baseProfile="full" height="256" version="1.1" width="256" xmlns="http://www.w3.org/2000/svg" xmlns:ev="http://www.w3.org/2001/xml-events" xmlns:xlink="http://www.w3.org/1999/xlink"><defs /><path d="M723 1078Q708 1078 697.5 1089.0Q687 1100 687 1115Q687 1118 687.5 1120.5Q688 1123 689 1126Q705 1177 737.0 1221.0Q769 1265 812.0 1297.5Q855 1330 906.0 1348.0Q957 1366 1011 1366Q1025 1366 1036.0 1355.0Q1047 1344 1047 1330Q1047 1316 1036.0 1305.0Q1025 1294 1011 1294Q960 1294 916.5 1276.0Q873 1258 836 1223Q808 1197 789.5 1167.5Q771 1138 757 1103Q747 1078 723 1078ZM2089 1078Q2104 1078 2114.5 1089.0Q2125 1100 2125 1115Q2125 1118 2124.5 1120.5Q2124 1123 2123 1126Q2107 1177 2075.0 1221.0Q2043 1265 1999.5 1297.0Q1956 1329 1905.0 1347.5Q1854 1366 1801 1366Q1786 1366 1775.5 1355.5Q1765 1345 1765 1330Q1765 1315 1775.5 1304.5Q1786 1294 1801 1294Q1852 1294 1895.5 1276.0Q1939 1258 1976 1223Q2004 1197 2022.5 1167.5Q2041 1138 2055 1103Q2065 1078 2089 1078ZM759 863Q787 863 810 842Q825 828 845.5 818.5Q866 809 888.0 803.0Q910 797 932.5 794.0Q955 791 975 791Q994 791 1017.0 794.0Q1040 797 1062.0 803.0Q1084 809 1104.5 818.5Q1125 828 1140 842Q1151 852 1163.0 857.5Q1175 863 1190 863Q1220 863 1241.0 841.5Q1262 820 1262 791Q1262 763 1241 740Q1218 716 1185.5 698.5Q1153 681 1117.0 669.5Q1081 658 1043.5 652.5Q1006 647 975 647Q943 647 906.0 652.5Q869 658 832.5 669.5Q796 681 763.0 698.5Q730 716 708 740Q687 763 687 791Q687 821 708.0 842.0Q729 863 759 863ZM1621 863Q1637 863 1649.0 857.5Q1661 852 1672 842Q1687 828 1707.5 818.5Q1728 809 1750.0 803.0Q1772 797 1794.5 794.0Q1817 791 1837 791Q1856 791 1879.0 794.0Q1902 797 1924.0 803.0Q1946 809 1966.5 818.5Q1987 828 2002 842Q2024 863 2053 863Q2083 863 2104.0 842.0Q2125 821 2125 791Q2125 763 2104 740Q2081 716 2048.5 698.5Q2016 681 1979.5 669.5Q1943 658 1905.5 652.5Q1868 647 1837 647Q1805 647 1768.0 652.5Q1731 658 1695.0 669.5Q1659 681 1626.0 698.5Q1593 716 1571 740Q1550 763 1550 791Q1550 820 1571.0 841.5Q1592 863 1621 863Z" style="fill:#402a32;stroke:none" transform="scale(1,-1) translate(0,-256)" /></svg>