<?xml version="1.0" encoding="utf-8" ?>
<svg baseProfile="full" height="256" version="1.1" width="256" xmlns="http://www.w3.org/2000/svg" xmlns:ev="http://www.w3.org/2001/xml-events" xmlns:xlink="http://www.w3.org/1999/xlink"><defs /><path d="M474 685Q474 846 517.5 995.0Q561 1144 646 1280Q660 1303 676.0 1328.5Q692 1354 710 1374Q729 1396 751 1415Q771 1433 796.5 1449.0Q822 1465 845 1479Q982 1564 1131.0 1607.5Q1280 1651 1441 1651Q1512 1651 1591.5 1641.0Q1671 1631 1750.5 1611.5Q1830 1592 1905.0 1563.0Q1980 1534 2042 1497L1980 902Q1952 916 1921.5 921.0Q1891 926 1860 926Q1777 926 1696.0 900.0Q1615 874 1541.5 828.0Q1468 782 1405.5 719.5Q1343 657 1297.5 583.5Q1252 510 1226.0 429.0Q1200 348 1200 265Q1200 234 1205.0 203.5Q1210 173 1224 145L629 83Q591 145 562.5 220.0Q534 295 514.0 375.0Q494 455 484.0 534.5Q474 614 474 685Z" style="fill:#feefc2;stroke:none" transform="scale(1,-1) translate(0,-256)" /></svg>