<?xml version="1.0" encoding="utf-8" ?>
<svg baseProfile="full" height="256" version="1.1" width="256" xmlns="http://www.w3.org/2000/svg" xmlns:ev="http://www.w3.org/2001/xml-events" xmlns:xlink="http://www.w3.org/1999/xlink"><defs /><path d="M1493 1725Q1548 1725 1598.0 1719.0Q1648 1713 1696.0 1702.0Q1744 1691 1792.0 1675.0Q1840 1659 1891 1640Q1910 1632 1921.0 1615.0Q1932 1598 1932 1578V1573L1893 923Q1891 898 1873.5 882.5Q1856 867 1832.0 858.0Q1808 849 1781.0 846.0Q1754 843 1735 843Q1721 843 1704.5 844.0Q1688 845 1671.5 849.0Q1655 853 1641.5 861.0Q1628 869 1620 883L1213 1599Q1204 1614 1204 1632Q1204 1656 1219.0 1673.5Q1234 1691 1257 1696Q1317 1709 1374.5 1717.0Q1432 1725 1493 1725ZM449 1112Q449 1125 451.5 1137.5Q454 1150 459 1162Q492 1247 542.5 1324.5Q593 1402 658.0 1467.0Q723 1532 800.0 1582.5Q877 1633 963 1666Q975 1671 987.5 1673.5Q1000 1676 1013 1676Q1049 1676 1081.0 1658.0Q1113 1640 1132 1609L1589 860Q1609 826 1609 787Q1609 750 1580.5 703.0Q1552 656 1510.5 614.5Q1469 573 1422.0 544.5Q1375 516 1338 516Q1299 516 1265 536L516 993Q485 1012 467.0 1044.0Q449 1076 449 1112ZM551 192Q530 190 511.5 202.0Q493 214 485 234Q465 284 449.5 332.0Q434 380 423.0 428.5Q412 477 406.0 527.5Q400 578 400 632Q400 693 408.5 750.5Q417 808 428 868Q433 891 451.5 905.5Q470 920 493 920Q513 920 526 912L1241 505Q1255 497 1263.0 483.0Q1271 469 1275.5 452.5Q1280 436 1281.0 419.0Q1282 402 1282 388Q1282 368 1279.0 342.0Q1276 316 1267.0 292.0Q1258 268 1242.0 250.5Q1226 233 1201 232Z" style="fill:#f3ad61;stroke:none" transform="scale(1,-1) translate(0,-256)" /></svg>