<?xml version="1.0" encoding="utf-8" ?>
<svg baseProfile="full" height="256" version="1.1" width="256" xmlns="http://www.w3.org/2000/svg" xmlns:ev="http://www.w3.org/2001/xml-events" xmlns:xlink="http://www.w3.org/1999/xlink"><defs /><path d="M828 -287Q843 -32 861 223Q915 272 976.5 311.0Q1038 350 1105.5 377.0Q1173 404 1244.5 418.5Q1316 433 1389 433Q1534 433 1668.0 380.5Q1802 328 1908 229L1933 28Q1936 -1 1940.5 -22.0Q1945 -43 1945 -72Q1945 -78 1940.0 -108.5Q1935 -139 1928.5 -175.5Q1922 -212 1916.0 -244.5Q1910 -277 1908 -287Z" style="fill:#f92f60;stroke:none" transform="scale(1,-1) translate(0,-256)" /></svg>