<?xml version="1.0" encoding="utf-8" ?>
<svg baseProfile="full" height="256" version="1.1" width="256" xmlns="http://www.w3.org/2000/svg" xmlns:ev="http://www.w3.org/2001/xml-events" xmlns:xlink="http://www.w3.org/1999/xlink"><defs /><path d="M1234 883Q1250 883 1267.5 876.0Q1285 869 1299.5 857.5Q1314 846 1323.5 830.5Q1333 815 1333 798Q1333 791 1328.0 786.5Q1323 782 1316 782H1156Q1148 782 1142.0 788.0Q1136 794 1136 802Q1136 818 1145.5 833.0Q1155 848 1170.0 859.0Q1185 870 1202.0 876.5Q1219 883 1234 883ZM1578 883Q1563 883 1545.5 876.5Q1528 870 1513.5 859.0Q1499 848 1489.0 833.0Q1479 818 1479 802Q1479 794 1483.0 788.0Q1487 782 1496 782H1656Q1664 782 1670.0 788.0Q1676 794 1676 802Q1676 818 1666.5 833.0Q1657 848 1642.0 859.0Q1627 870 1610.0 876.5Q1593 883 1578 883Z" style="fill:#ffffff;stroke:none" transform="scale(1,-1) translate(0,-256)" /></svg>