<?xml version="1.0" encoding="utf-8" ?>
<svg baseProfile="full" height="256" version="1.1" width="256" xmlns="http://www.w3.org/2000/svg" xmlns:ev="http://www.w3.org/2001/xml-events" xmlns:xlink="http://www.w3.org/1999/xlink"><defs /><path d="M975 695Q1004 674 1040 672Q1041 644 1042.0 620.0Q1043 596 1046.0 573.0Q1049 550 1055.0 527.0Q1061 504 1072 479Q1027 497 1001.0 537.5Q975 578 975 626ZM1837 695Q1808 674 1772 672Q1770 644 1769.5 620.0Q1769 596 1766.0 573.0Q1763 550 1757.0 527.0Q1751 504 1740 479Q1785 497 1811.0 537.5Q1837 578 1837 626Z" style="fill:#f1a11e;stroke:none" transform="scale(1,-1) translate(0,-256)" /></svg>