<?xml version="1.0" encoding="utf-8" ?>
<svg baseProfile="full" height="256" version="1.1" width="256" xmlns="http://www.w3.org/2000/svg" xmlns:ev="http://www.w3.org/2001/xml-events" xmlns:xlink="http://www.w3.org/1999/xlink"><defs /><path d="M1334 672Q1334 682 1339.5 702.5Q1345 723 1352.0 745.5Q1359 768 1366.5 789.5Q1374 811 1377 822Q1384 844 1406 844Q1428 844 1435 822Q1438 811 1445.5 790.0Q1453 769 1460.0 746.0Q1467 723 1472.5 703.0Q1478 683 1478 673Q1478 656 1466.0 642.5Q1454 629 1436 629H1376Q1358 629 1346.0 642.0Q1334 655 1334 672Z" style="fill:#ed9200;stroke:none" transform="scale(1,-1) translate(0,-256)" /></svg>