<?xml version="1.0" encoding="utf-8" ?>
<svg baseProfile="full" height="256" version="1.1" width="256" xmlns="http://www.w3.org/2000/svg" xmlns:ev="http://www.w3.org/2001/xml-events" xmlns:xlink="http://www.w3.org/1999/xlink"><defs /><path d="M1039 1044Q1046 931 1052.5 819.0Q1059 707 1067 594Q1070 544 1094.0 500.0Q1118 456 1155.0 423.0Q1192 390 1239.0 371.0Q1286 352 1335 352H1478Q1527 352 1573.5 371.0Q1620 390 1657.0 423.0Q1694 456 1718.0 500.0Q1742 544 1745 594Q1753 707 1759.5 819.0Q1766 931 1773 1044L1830 1041Q1823 927 1816.5 814.5Q1810 702 1802 588Q1800 570 1793.5 545.5Q1787 521 1780 504Q1762 457 1731.5 419.0Q1701 381 1661.5 353.0Q1622 325 1575.5 310.0Q1529 295 1478 295H1335Q1285 295 1238.5 310.0Q1192 325 1152.5 353.0Q1113 381 1082.0 419.0Q1051 457 1033 504Q1025 521 1019.0 545.5Q1013 570 1011 588Q1003 702 996.5 814.5Q990 927 982 1041ZM1406 180Q1426 180 1442 184V-287H1370V184Q1386 180 1406 180Z" style="fill:#d3d3d3;stroke:none" transform="scale(1,-1) translate(0,-256)" /></svg>