<?xml version="1.0" encoding="utf-8" ?>
<svg baseProfile="full" height="256" version="1.1" width="256" xmlns="http://www.w3.org/2000/svg" xmlns:ev="http://www.w3.org/2001/xml-events" xmlns:xlink="http://www.w3.org/1999/xlink"><defs /><path d="M1891 1204Q1891 1184 1882.5 1168.5Q1874 1153 1874 1133Q1874 1114 1882.5 1098.5Q1891 1083 1891 1063Q1891 1043 1882.5 1027.5Q1874 1012 1874 993Q1874 973 1882.5 958.0Q1891 943 1891 923Q1891 891 1869.0 868.0Q1847 845 1815 845H997Q965 845 943.0 868.0Q921 891 921 923Q921 943 929.5 958.0Q938 973 938 993Q938 1012 929.5 1027.5Q921 1043 921 1063Q921 1083 929.5 1098.5Q938 1114 938 1133Q938 1153 929.5 1168.5Q921 1184 921 1204Q921 1224 929.5 1239.0Q938 1254 938 1274Q938 1293 929.5 1308.5Q921 1324 921 1344Q921 1365 930.5 1381.5Q940 1398 940 1418Q940 1434 934.0 1448.0Q928 1462 928 1478Q928 1507 940.0 1521.5Q952 1536 967.0 1546.5Q982 1557 995.5 1568.0Q1009 1579 1013 1602Q1018 1632 1040.5 1648.0Q1063 1664 1092 1664Q1114 1664 1127.0 1672.0Q1140 1680 1150.5 1689.0Q1161 1698 1173.0 1706.0Q1185 1714 1206 1714Q1222 1714 1235.0 1707.5Q1248 1701 1264 1701Q1275 1701 1284.5 1704.5Q1294 1708 1303.5 1712.5Q1313 1717 1322.5 1721.0Q1332 1725 1343 1725Q1360 1725 1374.5 1718.0Q1389 1711 1406 1711Q1423 1711 1437.0 1718.0Q1451 1725 1468 1725Q1479 1725 1489.0 1721.5Q1499 1718 1508.5 1713.5Q1518 1709 1527.5 1705.5Q1537 1702 1548 1702Q1564 1702 1577.0 1708.0Q1590 1714 1606 1714Q1627 1714 1639.5 1706.5Q1652 1699 1662.5 1689.5Q1673 1680 1684.0 1672.5Q1695 1665 1714 1665Q1740 1665 1755.0 1658.5Q1770 1652 1778.5 1642.0Q1787 1632 1791.5 1619.5Q1796 1607 1801.5 1594.5Q1807 1582 1815.0 1570.5Q1823 1559 1839 1551Q1859 1541 1871.0 1522.0Q1883 1503 1883 1480Q1883 1463 1877.0 1449.0Q1871 1435 1871 1419Q1871 1398 1881.0 1381.5Q1891 1365 1891 1344Q1891 1324 1882.5 1308.5Q1874 1293 1874 1274Q1874 1254 1882.5 1239.0Q1891 1224 1891 1204Z" style="fill:#321b41;stroke:none" transform="scale(1,-1) translate(0,-256)" /></svg>