<?xml version="1.0" encoding="utf-8" ?>
<svg baseProfile="full" height="256" version="1.1" width="256" xmlns="http://www.w3.org/2000/svg" xmlns:ev="http://www.w3.org/2001/xml-events" xmlns:xlink="http://www.w3.org/1999/xlink"><defs /><path d="M1185 799Q1185 826 1203.5 844.5Q1222 863 1249 863Q1276 863 1294.0 844.5Q1312 826 1312 799Q1312 794 1312.0 790.0Q1312 786 1310 781H1187Q1185 786 1185.0 790.0Q1185 794 1185 799ZM1627 799Q1627 826 1608.5 844.5Q1590 863 1563 863Q1536 863 1517.5 844.5Q1499 826 1499 799Q1499 790 1502 781H1625Q1626 786 1626.5 790.0Q1627 794 1627 799Z" style="fill:#7d4533;stroke:none" transform="scale(1,-1) translate(0,-256)" /></svg>