<?xml version="1.0" encoding="utf-8" ?>
<svg baseProfile="full" height="256" version="1.1" width="256" xmlns="http://www.w3.org/2000/svg" xmlns:ev="http://www.w3.org/2001/xml-events" xmlns:xlink="http://www.w3.org/1999/xlink"><defs /><path d="M1190 777Q1190 751 1180.0 728.0Q1170 705 1153.0 688.0Q1136 671 1113.5 661.0Q1091 651 1065 651Q1039 651 1016.0 661.0Q993 671 976.0 688.0Q959 705 949.0 728.0Q939 751 939 777Q939 803 949.0 826.0Q959 849 976.0 866.0Q993 883 1016.0 893.0Q1039 903 1065 903Q1091 903 1114.0 893.0Q1137 883 1154.0 866.0Q1171 849 1180.5 826.0Q1190 803 1190 777ZM1873 777Q1873 751 1863.0 728.0Q1853 705 1836.0 688.0Q1819 671 1796.0 661.0Q1773 651 1747 651Q1721 651 1698.5 661.0Q1676 671 1659.0 688.0Q1642 705 1632.0 728.0Q1622 751 1622 777Q1622 803 1631.5 826.0Q1641 849 1658.0 866.0Q1675 883 1698.0 893.0Q1721 903 1747 903Q1773 903 1796.0 893.0Q1819 883 1836.0 866.0Q1853 849 1863.0 826.0Q1873 803 1873 777Z" style="fill:#fdbb11;stroke:none" transform="scale(1,-1) translate(0,-256)" /></svg>