<?xml version="1.0" encoding="utf-8" ?>
<svg baseProfile="full" height="256" version="1.1" width="256" xmlns="http://www.w3.org/2000/svg" xmlns:ev="http://www.w3.org/2001/xml-events" xmlns:xlink="http://www.w3.org/1999/xlink"><defs /><path d="M975 252Q975 237 964.5 226.5Q954 216 939 216Q924 216 913.5 226.5Q903 237 903 252Q903 267 913.5 277.5Q924 288 939 288Q954 288 964.5 277.5Q975 267 975 252ZM1550 36Q1550 21 1539.5 10.5Q1529 0 1514 0Q1499 0 1488.5 10.5Q1478 21 1478 36Q1478 51 1488.5 61.5Q1499 72 1514 72Q1529 72 1539.5 61.5Q1550 51 1550 36ZM1873 216Q1888 216 1898.5 226.5Q1909 237 1909 252Q1909 267 1898.5 277.5Q1888 288 1873 288Q1858 288 1847.5 277.5Q1837 267 1837 252Q1837 237 1847.5 226.5Q1858 216 1873 216ZM1550 -179Q1550 -194 1539.5 -204.5Q1529 -215 1514 -215Q1499 -215 1488.5 -204.5Q1478 -194 1478 -179Q1478 -165 1489.0 -154.5Q1500 -144 1514 -144Q1528 -144 1539.0 -154.5Q1550 -165 1550 -179Z" style="fill:#ffc83d;stroke:none" transform="scale(1,-1) translate(0,-256)" /></svg>