<?xml version="1.0" encoding="utf-8" ?>
<svg baseProfile="full" height="256" version="1.1" width="256" xmlns="http://www.w3.org/2000/svg" xmlns:ev="http://www.w3.org/2001/xml-events" xmlns:xlink="http://www.w3.org/1999/xlink"><defs /><path d="M1238 825Q1238 820 1235.0 816.5Q1232 813 1227 813Q1222 813 1218.5 816.5Q1215 820 1215 825Q1215 830 1218.5 833.0Q1222 836 1227 836Q1238 836 1238 825ZM1554 825Q1554 820 1551.0 816.5Q1548 813 1543 813Q1538 813 1535.0 816.5Q1532 820 1532 825Q1532 836 1543 836Q1554 836 1554 825Z" style="fill:#ffffff;stroke:none" transform="scale(1,-1) translate(0,-256)" /></svg>