<?xml version="1.0" encoding="utf-8" ?>
<svg baseProfile="full" height="256" version="1.1" width="256" xmlns="http://www.w3.org/2000/svg" xmlns:ev="http://www.w3.org/2001/xml-events" xmlns:xlink="http://www.w3.org/1999/xlink"><defs /><path d="M954 183Q946 183 931.5 193.5Q917 204 902.5 217.5Q888 231 877.5 245.0Q867 259 867 267Q867 279 878 288Q931 333 994.5 367.0Q1058 401 1126.5 424.0Q1195 447 1266.5 458.5Q1338 470 1407 470Q1474 470 1545.5 458.5Q1617 447 1686.0 424.5Q1755 402 1818.5 368.5Q1882 335 1934 290Q1945 281 1945 268Q1945 261 1934.5 247.0Q1924 233 1910.0 219.5Q1896 206 1881.5 195.5Q1867 185 1859 185Q1847 185 1839 192Q1798 221 1758.0 245.0Q1718 269 1671 288Q1654 248 1627.0 215.0Q1600 182 1565.5 158.0Q1531 134 1490.5 121.0Q1450 108 1406 108Q1362 108 1322.0 121.0Q1282 134 1247.5 157.5Q1213 181 1186.0 213.5Q1159 246 1142 286Q1094 267 1055.5 243.0Q1017 219 975 190Q964 183 954 183Z" style="fill:#321b41;stroke:none" transform="scale(1,-1) translate(0,-256)" /></svg>