<?xml version="1.0" encoding="utf-8" ?>
<svg baseProfile="full" height="256" version="1.1" width="256" xmlns="http://www.w3.org/2000/svg" xmlns:ev="http://www.w3.org/2001/xml-events" xmlns:xlink="http://www.w3.org/1999/xlink"><defs /><path d="M1490 1316Q1551 1316 1607.5 1294.0Q1664 1272 1707.0 1233.0Q1750 1194 1775.5 1140.0Q1801 1086 1801 1023Q1801 1012 1800.0 1002.5Q1799 993 1798 982Q1791 879 1785.0 777.0Q1779 675 1771 572Q1769 555 1762.5 533.5Q1756 512 1749 496Q1731 457 1702.0 425.5Q1673 394 1637.5 372.5Q1602 351 1561.0 339.5Q1520 328 1477 328H1335Q1292 328 1251.0 339.5Q1210 351 1174.5 372.5Q1139 394 1110.0 425.5Q1081 457 1063 496Q1056 512 1049.5 533.5Q1043 555 1041 572Q1033 675 1026.5 777.0Q1020 879 1013 982Q1012 992 1011.5 1001.0Q1011 1010 1011 1020Q1011 1085 1036.0 1139.5Q1061 1194 1103.5 1233.0Q1146 1272 1202.5 1294.0Q1259 1316 1322 1316H1490Z" style="fill:#ffc83d;stroke:none" transform="scale(1,-1) translate(0,-256)" /></svg>