<?xml version="1.0" encoding="utf-8" ?>
<svg baseProfile="full" height="256" version="1.1" width="256" xmlns="http://www.w3.org/2000/svg" xmlns:ev="http://www.w3.org/2001/xml-events" xmlns:xlink="http://www.w3.org/1999/xlink"><defs /><path d="M1406 566Q1425 566 1438.5 568.0Q1452 570 1463.0 573.5Q1474 577 1486.0 582.5Q1498 588 1514 594Q1515 594 1517.0 595.0Q1519 596 1520 596Q1525 596 1528.5 592.0Q1532 588 1532 583Q1532 580 1530 576Q1511 544 1477.5 524.5Q1444 505 1406 505Q1390 505 1371.0 510.5Q1352 516 1334.5 525.5Q1317 535 1303.0 548.0Q1289 561 1282 576Q1282 577 1281.0 579.0Q1280 581 1280 582Q1280 595 1293 595Q1297 595 1298 594Q1324 580 1350.0 573.0Q1376 566 1406 566Z" style="fill:#990839;stroke:none" transform="scale(1,-1) translate(0,-256)" /></svg>