<?xml version="1.0" encoding="utf-8" ?>
<svg baseProfile="full" height="256" version="1.1" width="256" xmlns="http://www.w3.org/2000/svg" xmlns:ev="http://www.w3.org/2001/xml-events" xmlns:xlink="http://www.w3.org/1999/xlink"><defs /><path d="M2057 187Q2064 170 2068.0 151.5Q2072 133 2072 114Q2072 56 2040.5 9.5Q2009 -37 1955 -59L1603 -204Q1567 -218 1531 -218Q1473 -218 1426.0 -186.5Q1379 -155 1357 -101L1274 101L1398 151L1481 -51Q1488 -67 1501.0 -76.0Q1514 -85 1531 -85Q1543 -85 1552 -81V-80L1905 64Q1920 70 1929.0 83.5Q1938 97 1938 114Q1938 124 1926.5 155.0Q1915 186 1900.0 222.5Q1885 259 1871.0 292.0Q1857 325 1852 338L1975 388ZM831 180 954 -56Q956 -59 959.5 -63.0Q963 -67 965 -70Q986 -100 986 -136Q986 -160 976.5 -181.0Q967 -202 951.5 -218.0Q936 -234 914.5 -243.0Q893 -252 869 -252Q845 -252 823.0 -242.0Q801 -232 784 -215L431 159Q400 192 400 239Q400 263 409.0 284.0Q418 305 433.5 321.0Q449 337 470.5 346.0Q492 355 516 355Q535 355 553.5 349.0Q572 343 587 331Q591 329 594.5 325.0Q598 321 601 319Z" style="fill:#ffb02e;stroke:none" transform="scale(1,-1) translate(0,-256)" /></svg>