<?xml version="1.0" encoding="utf-8" ?>
<svg baseProfile="full" height="256" version="1.1" width="256" xmlns="http://www.w3.org/2000/svg" xmlns:ev="http://www.w3.org/2001/xml-events" xmlns:xlink="http://www.w3.org/1999/xlink"><defs /><path d="M1118 960Q1118 984 1131 1008L1324 1352Q1336 1374 1357.5 1387.0Q1379 1400 1404 1400Q1430 1400 1451.0 1387.0Q1472 1374 1484 1352L1677 1008Q1690 984 1690 960Q1690 940 1683.0 922.5Q1676 905 1663.0 892.0Q1650 879 1633.0 871.0Q1616 863 1596 863H1556Q1610 863 1660.5 844.5Q1711 826 1750.5 792.0Q1790 758 1813.5 711.0Q1837 664 1837 607Q1837 581 1826.5 561.5Q1816 542 1798.5 529.0Q1781 516 1759.0 509.5Q1737 503 1713 503Q1786 503 1848.5 474.0Q1911 445 1956.5 396.0Q2002 347 2027.5 282.0Q2053 217 2053 146Q2053 102 2037.5 62.5Q2022 23 1994.0 -7.0Q1966 -37 1928.5 -54.5Q1891 -72 1846 -72H966Q921 -72 883.5 -54.5Q846 -37 818.0 -7.0Q790 23 774.5 62.5Q759 102 759 146Q759 217 784.5 282.0Q810 347 855.5 396.0Q901 445 963.5 474.0Q1026 503 1099 503Q1075 503 1053.0 509.5Q1031 516 1013.5 529.0Q996 542 985.5 561.5Q975 581 975 607Q975 664 998.5 711.0Q1022 758 1061.5 792.0Q1101 826 1151.5 844.5Q1202 863 1256 863H1212Q1192 863 1175.0 871.0Q1158 879 1145.0 892.0Q1132 905 1125.0 922.5Q1118 940 1118 960Z" style="fill:#44911b;stroke:none" transform="scale(1,-1) translate(0,-256)" /></svg>