<?xml version="1.0" encoding="utf-8" ?>
<svg baseProfile="full" height="256" version="1.1" width="256" xmlns="http://www.w3.org/2000/svg" xmlns:ev="http://www.w3.org/2001/xml-events" xmlns:xlink="http://www.w3.org/1999/xlink"><defs /><path d="M1555 1608Q1555 1595 1546.5 1586.0Q1538 1577 1527.5 1568.5Q1517 1560 1508.5 1550.5Q1500 1541 1500 1528Q1500 1513 1504.5 1498.5Q1509 1484 1509 1469Q1509 1456 1500.0 1446.5Q1491 1437 1478 1437Q1468 1437 1459.0 1442.0Q1450 1447 1441.0 1453.0Q1432 1459 1423.0 1464.0Q1414 1469 1404 1469Q1395 1469 1386.0 1464.0Q1377 1459 1368.0 1453.0Q1359 1447 1350.0 1442.0Q1341 1437 1331 1437Q1318 1437 1309.0 1446.5Q1300 1456 1300 1469Q1300 1484 1304.5 1498.5Q1309 1513 1309 1528Q1309 1541 1300.5 1550.5Q1292 1560 1281.5 1568.5Q1271 1577 1262.5 1586.0Q1254 1595 1254 1608Q1254 1623 1262.5 1630.0Q1271 1637 1283.0 1640.0Q1295 1643 1308.5 1643.5Q1322 1644 1331 1646Q1346 1648 1353.0 1660.5Q1360 1673 1366.0 1687.5Q1372 1702 1380.0 1713.5Q1388 1725 1404 1725Q1420 1725 1428.0 1714.0Q1436 1703 1442.0 1689.0Q1448 1675 1455.5 1662.5Q1463 1650 1478 1647Q1487 1645 1500.5 1644.5Q1514 1644 1526.0 1640.5Q1538 1637 1546.5 1629.5Q1555 1622 1555 1608Z" style="fill:#f9c23c;stroke:none" transform="scale(1,-1) translate(0,-256)" /></svg>