<?xml version="1.0" encoding="utf-8" ?>
<svg baseProfile="full" height="256" version="1.1" width="256" xmlns="http://www.w3.org/2000/svg" xmlns:ev="http://www.w3.org/2001/xml-events" xmlns:xlink="http://www.w3.org/1999/xlink"><defs /><path d="M1620 553Q1601 553 1584.0 560.5Q1567 568 1554.5 580.5Q1542 593 1535.0 610.0Q1528 627 1528 646Q1528 665 1535.0 682.0Q1542 699 1554.5 711.5Q1567 724 1584.0 731.5Q1601 739 1620 739Q1639 739 1656.0 731.5Q1673 724 1685.5 711.5Q1698 699 1705.5 682.0Q1713 665 1713 646Q1713 627 1705.5 610.0Q1698 593 1685.5 580.5Q1673 568 1656.0 560.5Q1639 553 1620 553ZM1045 44Q1026 44 1009.0 51.5Q992 59 979.5 71.5Q967 84 959.5 101.0Q952 118 952 137Q952 156 959.5 173.0Q967 190 979.5 202.5Q992 215 1009.0 222.5Q1026 230 1045 230Q1064 230 1081.0 222.5Q1098 215 1110.5 202.5Q1123 190 1130.5 173.0Q1138 156 1138 137Q1138 118 1130.5 101.0Q1123 84 1110.5 71.5Q1098 59 1081.0 51.5Q1064 44 1045 44ZM1930 142Q1930 123 1922.5 106.0Q1915 89 1902.5 76.5Q1890 64 1873.0 56.5Q1856 49 1837 49Q1818 49 1801.0 56.5Q1784 64 1771.5 76.5Q1759 89 1751.5 106.0Q1744 123 1744 142Q1744 161 1751.5 178.0Q1759 195 1771.5 207.5Q1784 220 1801.0 227.5Q1818 235 1837 235Q1856 235 1873.0 227.5Q1890 220 1902.5 207.5Q1915 195 1922.5 178.0Q1930 161 1930 142Z" style="fill:#f8312f;stroke:none" transform="scale(1,-1) translate(0,-256)" /></svg>