<?xml version="1.0" encoding="utf-8" ?>
<svg baseProfile="full" height="256" version="1.1" width="256" xmlns="http://www.w3.org/2000/svg" xmlns:ev="http://www.w3.org/2001/xml-events" xmlns:xlink="http://www.w3.org/1999/xlink"><defs /><path d="M1633 -286H1179Q1156 -286 1137.0 -270.0Q1118 -254 1118 -230Q1118 -219 1123.0 -196.5Q1128 -174 1134.5 -149.0Q1141 -124 1147.5 -100.5Q1154 -77 1157 -64L1177 -48Q1182 -47 1194.5 -43.5Q1207 -40 1224.0 -35.5Q1241 -31 1260.5 -26.0Q1280 -21 1300 -16Q1346 -4 1401 11L1644 -48L1655 -64Q1658 -77 1664.5 -100.5Q1671 -124 1677.0 -148.5Q1683 -173 1688.0 -195.5Q1693 -218 1693 -229Q1693 -254 1675.0 -270.0Q1657 -286 1633 -286Z" style="fill:#6d4534;stroke:none" transform="scale(1,-1) translate(0,-256)" /></svg>