<?xml version="1.0" encoding="utf-8" ?>
<svg baseProfile="full" height="256" version="1.1" width="256" xmlns="http://www.w3.org/2000/svg" xmlns:ev="http://www.w3.org/2001/xml-events" xmlns:xlink="http://www.w3.org/1999/xlink"><defs /><path d="M1642 242Q1554 188 1455.5 160.0Q1357 132 1254 132Q1152 132 1057.5 158.5Q963 185 881.0 233.0Q799 281 731.0 348.5Q663 416 615.0 498.0Q567 580 540.5 674.5Q514 769 514 871Q514 973 540.5 1067.5Q567 1162 615.0 1244.5Q663 1327 730.5 1394.5Q798 1462 880.5 1510.0Q963 1558 1057.5 1584.5Q1152 1611 1254 1611Q1356 1611 1450.5 1584.5Q1545 1558 1627.0 1510.0Q1709 1462 1776.5 1394.0Q1844 1326 1892.0 1244.0Q1940 1162 1966.5 1067.5Q1993 973 1993 871Q1993 768 1965.0 670.0Q1937 572 1883 484L2316 153Q2362 118 2387.5 66.5Q2413 15 2413 -43Q2413 -94 2394.0 -138.5Q2375 -183 2341.5 -216.0Q2308 -249 2263.5 -268.0Q2219 -287 2168 -287Q2111 -287 2059.0 -261.5Q2007 -236 1972 -190ZM2051 -33Q2051 -55 2059.5 -74.5Q2068 -94 2082.5 -108.5Q2097 -123 2116.5 -131.5Q2136 -140 2158 -140Q2180 -140 2199.5 -131.5Q2219 -123 2233.5 -108.5Q2248 -94 2256.5 -74.5Q2265 -55 2265 -33Q2265 -11 2256.5 8.5Q2248 28 2234.0 42.5Q2220 57 2200.0 65.5Q2180 74 2158 74Q2136 74 2116.5 65.5Q2097 57 2082.5 42.5Q2068 28 2059.5 8.5Q2051 -11 2051 -33Z" style="fill:#433b6b;stroke:none" transform="scale(1,-1) translate(0,-256)" /></svg>