<?xml version="1.0" encoding="utf-8" ?>
<svg baseProfile="full" height="256" version="1.1" width="256" xmlns="http://www.w3.org/2000/svg" xmlns:ev="http://www.w3.org/2001/xml-events" xmlns:xlink="http://www.w3.org/1999/xlink"><defs /><path d="M1218 1243Q1296 1243 1365.0 1212.0Q1434 1181 1486 1124Q1522 1085 1571 1066Q1619 1049 1647.0 1009.0Q1675 969 1675 918Q1675 869 1658.0 841.0Q1641 813 1618.5 795.5Q1596 778 1575.0 765.0Q1554 752 1545 734V733Q1539 719 1539 704Q1539 690 1543.5 676.5Q1548 663 1548 649Q1548 605 1518.0 575.5Q1488 546 1444 546Q1409 546 1377.5 545.0Q1346 544 1312 535Q1289 529 1265.5 525.5Q1242 522 1218 522Q1143 522 1077.5 550.5Q1012 579 963.0 628.0Q914 677 885.5 742.5Q857 808 857 883Q857 912 862.0 938.5Q867 965 867 994Q867 1013 863.5 1031.0Q860 1049 860 1068Q860 1101 881.5 1127.0Q903 1153 935 1160Q976 1169 1008.0 1183.0Q1040 1197 1070.5 1210.5Q1101 1224 1136.0 1233.5Q1171 1243 1218 1243Z" style="fill:#ffffff;stroke:none" transform="scale(1,-1) translate(0,-256)" /></svg>