<?xml version="1.0" encoding="utf-8" ?>
<svg baseProfile="full" height="256" version="1.1" width="256" xmlns="http://www.w3.org/2000/svg" xmlns:ev="http://www.w3.org/2001/xml-events" xmlns:xlink="http://www.w3.org/1999/xlink"><defs /><path d="M2107 871Q2107 753 2076.5 644.0Q2046 535 1990.5 440.0Q1935 345 1857.0 267.0Q1779 189 1684.5 133.5Q1590 78 1481.0 47.5Q1372 17 1254 17Q1136 17 1027.0 47.5Q918 78 823.0 133.5Q728 189 650.0 267.0Q572 345 516.5 440.0Q461 535 430.5 644.0Q400 753 400 871Q400 989 430.5 1098.0Q461 1207 516.5 1302.0Q572 1397 650.0 1475.0Q728 1553 823.0 1608.5Q918 1664 1027.0 1694.5Q1136 1725 1254 1725Q1372 1725 1481.0 1694.5Q1590 1664 1684.5 1608.5Q1779 1553 1857.0 1475.0Q1935 1397 1990.5 1302.0Q2046 1207 2076.5 1098.0Q2107 989 2107 871ZM1900 871Q1900 1005 1849.5 1123.0Q1799 1241 1711.0 1328.5Q1623 1416 1505.5 1467.0Q1388 1518 1254 1518Q1164 1518 1081.5 1495.0Q999 1472 927.0 1430.0Q855 1388 796.0 1329.0Q737 1270 695.0 1198.0Q653 1126 630.0 1043.0Q607 960 607 871Q607 782 630.0 699.0Q653 616 695.5 544.5Q738 473 797.0 414.0Q856 355 927.5 312.5Q999 270 1082.0 247.0Q1165 224 1254 224Q1388 224 1505.5 275.0Q1623 326 1711.0 413.5Q1799 501 1849.5 619.0Q1900 737 1900 871Z" style="fill:#635994;stroke:none" transform="scale(1,-1) translate(0,-256)" /></svg>