<?xml version="1.0" encoding="utf-8" ?>
<svg baseProfile="full" height="256" version="1.1" width="256" xmlns="http://www.w3.org/2000/svg" xmlns:ev="http://www.w3.org/2001/xml-events" xmlns:xlink="http://www.w3.org/1999/xlink"><defs /><path d="M1161 706Q1123 706 1090.0 720.0Q1057 734 1032.0 759.0Q1007 784 993.0 817.0Q979 850 979 888Q979 925 993.5 958.5Q1008 992 1032.5 1016.5Q1057 1041 1090.0 1055.5Q1123 1070 1161 1070Q1198 1070 1231.5 1055.5Q1265 1041 1289.5 1016.5Q1314 992 1328.5 958.5Q1343 925 1343 888Q1343 850 1328.5 817.0Q1314 784 1289.5 759.5Q1265 735 1231.5 720.5Q1198 706 1161 706Z" style="fill:#f9c23c;stroke:none" transform="scale(1,-1) translate(0,-256)" /></svg>