<?xml version="1.0" encoding="utf-8" ?>
<svg baseProfile="full" height="256" version="1.1" width="256" xmlns="http://www.w3.org/2000/svg" xmlns:ev="http://www.w3.org/2001/xml-events" xmlns:xlink="http://www.w3.org/1999/xlink"><defs /><path d="M1858 1201Q1897 1199 1943.0 1192.0Q1989 1185 2025 1169Q2063 1152 2101.0 1129.0Q2139 1106 2174 1085Q2224 1056 2275.5 1025.5Q2327 995 2373 960Q2391 946 2401.5 928.5Q2412 911 2412 888V882Q2406 791 2374.5 709.0Q2343 627 2288.0 565.5Q2233 504 2156.0 467.5Q2079 431 1982 431V-195Q1982 -218 1968 -235Q1955 -251 1933 -257Q1913 -263 1891.0 -266.5Q1869 -270 1848 -275Q1738 -295 1627.0 -306.0Q1516 -317 1404 -317Q1345 -317 1277.0 -313.5Q1209 -310 1139.5 -302.5Q1070 -295 1003.5 -284.0Q937 -273 880 -257Q869 -254 860.0 -249.0Q851 -244 844 -235Q831 -217 831 -196V431Q734 431 656.0 467.0Q578 503 521.5 565.0Q465 627 432.5 708.5Q400 790 394 882V888Q394 911 404.5 928.5Q415 946 433 960Q477 992 525.5 1020.5Q574 1049 621 1077Q662 1100 703.5 1125.0Q745 1150 787 1169Q821 1184 860.5 1192.0Q900 1200 937 1202L1030 1165L1049 1133Q1109 1032 1207.5 980.5Q1306 929 1422 929Q1549 929 1643.0 987.0Q1737 1045 1788 1161Z" style="fill:#ff6dc6;stroke:none" transform="scale(1,-1) translate(0,-256)" /></svg>