<?xml version="1.0" encoding="utf-8" ?>
<svg baseProfile="full" height="256" version="1.1" width="256" xmlns="http://www.w3.org/2000/svg" xmlns:ev="http://www.w3.org/2001/xml-events" xmlns:xlink="http://www.w3.org/1999/xlink"><defs /><path d="M2074 -285H719Q697 -285 677.5 -276.5Q658 -268 643.5 -253.5Q629 -239 620.5 -219.5Q612 -200 612 -178V131Q612 192 635.5 246.5Q659 301 699.5 341.0Q740 381 794.0 404.5Q848 428 910 428H1884Q1945 428 1999.5 404.5Q2054 381 2094.0 341.0Q2134 301 2157.5 246.5Q2181 192 2181 131V-178Q2181 -200 2172.5 -219.5Q2164 -239 2149.5 -253.5Q2135 -268 2115.5 -276.5Q2096 -285 2074 -285Z" style="fill:#f24827;stroke:none" transform="scale(1,-1) translate(0,-256)" /></svg>