<?xml version="1.0" encoding="utf-8" ?>
<svg baseProfile="full" height="256" version="1.1" width="256" xmlns="http://www.w3.org/2000/svg" xmlns:ev="http://www.w3.org/2001/xml-events" xmlns:xlink="http://www.w3.org/1999/xlink"><defs /><path d="M1309 799Q1309 809 1315.5 833.0Q1322 857 1330.5 884.0Q1339 911 1347.5 935.5Q1356 960 1360 972Q1364 984 1373.5 991.0Q1383 998 1395 998Q1422 998 1430 972Q1434 960 1442.5 935.5Q1451 911 1459.5 884.0Q1468 857 1474.5 833.0Q1481 809 1481 799Q1481 779 1466.5 764.0Q1452 749 1431 749H1359Q1339 749 1324.0 764.0Q1309 779 1309 799Z" style="fill:#ed9200;stroke:none" transform="scale(1,-1) translate(0,-256)" /></svg>