<?xml version="1.0" encoding="utf-8" ?>
<svg baseProfile="full" height="256" version="1.1" width="256" xmlns="http://www.w3.org/2000/svg" xmlns:ev="http://www.w3.org/2001/xml-events" xmlns:xlink="http://www.w3.org/1999/xlink"><defs /><path d="M2113 611Q2126 614 2150.5 621.0Q2175 628 2201.5 635.0Q2228 642 2251.5 647.5Q2275 653 2286 653Q2311 653 2329.0 635.5Q2347 618 2347 592Q2347 576 2339.0 561.5Q2331 547 2317 539L2098 412ZM696 412 477 540Q463 548 454.5 561.5Q446 575 446 592Q446 618 464.0 635.5Q482 653 507 653Q518 653 541.5 647.5Q565 642 591.5 635.0Q618 628 642.5 621.0Q667 614 680 611Z" style="fill:#fdbb11;stroke:none" transform="scale(1,-1) translate(0,-256)" /></svg>