<?xml version="1.0" encoding="utf-8" ?>
<svg baseProfile="full" height="256" version="1.1" width="256" xmlns="http://www.w3.org/2000/svg" xmlns:ev="http://www.w3.org/2001/xml-events" xmlns:xlink="http://www.w3.org/1999/xlink"><defs /><path d="M2324 -34Q2324 -86 2304.0 -131.5Q2284 -177 2250.0 -211.0Q2216 -245 2170.5 -265.0Q2125 -285 2073 -285Q2015 -285 1966 -261L868 251Q849 260 837.5 278.0Q826 296 826 317Q826 325 836.0 351.5Q846 378 862.0 413.5Q878 449 897.0 489.0Q916 529 933.5 565.5Q951 602 965.0 631.0Q979 660 985 672Q994 691 1011.0 702.0Q1028 713 1049 713Q1066 713 1080 706L2179 194Q2245 163 2284.5 101.5Q2324 40 2324 -34Z" style="fill:#ff6723;stroke:none" transform="scale(1,-1) translate(0,-256)" /></svg>