<?xml version="1.0" encoding="utf-8" ?>
<svg baseProfile="full" height="256" version="1.1" width="256" xmlns="http://www.w3.org/2000/svg" xmlns:ev="http://www.w3.org/2001/xml-events" xmlns:xlink="http://www.w3.org/1999/xlink"><defs /><path d="M1183 981Q1183 973 1178.0 968.0Q1173 963 1165 963Q1157 963 1152.0 968.0Q1147 973 1147 981Q1147 989 1152.5 993.5Q1158 998 1165 998Q1172 998 1177.5 993.5Q1183 989 1183 981ZM1575 981Q1575 973 1570.0 968.0Q1565 963 1557 963Q1549 963 1544.0 968.0Q1539 973 1539 981Q1539 989 1544.5 993.5Q1550 998 1557 998Q1564 998 1569.5 993.5Q1575 989 1575 981Z" style="fill:#ffffff;stroke:none" transform="scale(1,-1) translate(0,-256)" /></svg>