<?xml version="1.0" encoding="utf-8" ?>
<svg baseProfile="full" height="256" version="1.1" width="256" xmlns="http://www.w3.org/2000/svg" xmlns:ev="http://www.w3.org/2001/xml-events" xmlns:xlink="http://www.w3.org/1999/xlink"><defs /><path d="M1539 1712Q1599 1712 1646.5 1684.5Q1694 1657 1726 1607Q1750 1569 1781.0 1546.0Q1812 1523 1854 1508Q1887 1496 1914.5 1475.5Q1942 1455 1961.5 1428.0Q1981 1401 1992.0 1368.5Q2003 1336 2003 1301Q2003 1263 1992.5 1237.0Q1982 1211 1970.0 1189.5Q1958 1168 1947.5 1146.0Q1937 1124 1937 1095V713Q1937 648 1900.5 596.5Q1864 545 1802 524L1628 464V1146Q1600 1170 1584.5 1205.0Q1569 1240 1564 1276Q1519 1271 1475.0 1284.5Q1431 1298 1396 1327Q1367 1301 1330.0 1288.0Q1293 1275 1254 1275Q1247 1275 1241.0 1275.0Q1235 1275 1228 1276Q1224 1239 1207.5 1205.5Q1191 1172 1165 1146V464L990 524Q960 534 935.0 553.0Q910 572 892.5 597.0Q875 622 865.0 651.5Q855 681 855 713V1095Q855 1123 845.0 1145.0Q835 1167 823.0 1189.5Q811 1212 801.0 1238.0Q791 1264 791 1302Q791 1337 801.5 1369.0Q812 1401 831.5 1428.0Q851 1455 878.0 1475.0Q905 1495 938 1507Q982 1522 1012.5 1547.0Q1043 1572 1069 1610Q1101 1658 1148.5 1685.0Q1196 1712 1254 1712Q1275 1712 1293.0 1707.5Q1311 1703 1328.0 1697.0Q1345 1691 1362.0 1686.5Q1379 1682 1397 1682Q1415 1682 1432.0 1686.5Q1449 1691 1466.0 1697.0Q1483 1703 1501.0 1707.5Q1519 1712 1539 1712Z" style="fill:#f1a11e;stroke:none" transform="scale(1,-1) translate(0,-256)" /></svg>