<?xml version="1.0" encoding="utf-8" ?>
<svg baseProfile="full" height="256" version="1.1" width="256" xmlns="http://www.w3.org/2000/svg" xmlns:ev="http://www.w3.org/2001/xml-events" xmlns:xlink="http://www.w3.org/1999/xlink"><defs /><path d="M906 1124Q906 1194 932.5 1255.5Q959 1317 1005.0 1363.0Q1051 1409 1113.0 1435.5Q1175 1462 1245 1462H1361Q1380 1462 1391.0 1452.5Q1402 1443 1410 1428Q1412 1426 1412.5 1423.0Q1413 1420 1414 1418Q1440 1357 1492.5 1320.5Q1545 1284 1613 1284H1775Q1797 1284 1816.0 1276.0Q1835 1268 1849.5 1254.0Q1864 1240 1872.5 1221.0Q1881 1202 1882 1180Q1884 1151 1885.5 1122.0Q1887 1093 1886 1064Q1938 1049 1970.5 1006.0Q2003 963 2003 909Q2003 879 1992.5 852.5Q1982 826 1963.5 804.5Q1945 783 1920.0 769.0Q1895 755 1866 751Q1864 722 1862.0 694.0Q1860 666 1858 637Q1856 616 1850.0 594.5Q1844 573 1836 553Q1815 500 1779.0 457.0Q1743 414 1697.5 384.0Q1652 354 1598.5 337.5Q1545 321 1488 321H1307Q1250 321 1196.5 337.5Q1143 354 1097.0 384.0Q1051 414 1015.0 457.0Q979 500 958 553Q950 573 944.0 595.0Q938 617 936 637Q934 666 932.5 693.5Q931 721 929 750Q899 754 874.0 768.0Q849 782 830.5 803.5Q812 825 801.5 852.0Q791 879 791 909Q791 963 823.0 1006.5Q855 1050 908 1064Q906 1072 906.0 1092.5Q906 1113 906 1124Z" style="fill:#ffc83d;stroke:none" transform="scale(1,-1) translate(0,-256)" /></svg>