<?xml version="1.0" encoding="utf-8" ?>
<svg baseProfile="full" height="256" version="1.1" width="256" xmlns="http://www.w3.org/2000/svg" xmlns:ev="http://www.w3.org/2001/xml-events" xmlns:xlink="http://www.w3.org/1999/xlink"><defs /><path d="M470 -33Q470 3 480.5 37.5Q491 72 509.5 102.0Q528 132 555.0 156.0Q582 180 615 195L1713 706Q1727 713 1744 713Q1764 713 1782.0 702.0Q1800 691 1809 672L1960 347Q1967 333 1967 316Q1967 295 1956.0 277.5Q1945 260 1926 251L827 -261Q777 -285 721 -285Q669 -285 623.0 -265.0Q577 -245 543.0 -211.0Q509 -177 489.5 -131.0Q470 -85 470 -33Z" style="fill:#ff8101;stroke:none" transform="scale(1,-1) translate(0,-256)" /></svg>