<?xml version="1.0" encoding="utf-8" ?>
<svg baseProfile="full" height="256" version="1.1" width="256" xmlns="http://www.w3.org/2000/svg" xmlns:ev="http://www.w3.org/2001/xml-events" xmlns:xlink="http://www.w3.org/1999/xlink"><defs /><path d="M898 708 747 385 695 412Q657 431 636.5 457.0Q616 483 604.5 512.0Q593 541 588.0 571.0Q583 601 577.0 629.0Q571 657 561.0 682.0Q551 707 530 725L422 817Q399 837 399 868Q399 895 418.0 915.0Q437 935 465 935Q473 935 481.0 932.5Q489 930 497 926ZM1896 708 2047 385 2098 412Q2136 432 2157.0 458.5Q2178 485 2189.5 513.5Q2201 542 2206.5 572.0Q2212 602 2217.5 630.0Q2223 658 2233.0 682.5Q2243 707 2264 725L2372 817Q2395 837 2395 868Q2395 895 2376.0 915.0Q2357 935 2329 935Q2321 935 2313.0 932.5Q2305 930 2297 926Z" style="fill:#ffc83d;stroke:none" transform="scale(1,-1) translate(0,-256)" /></svg>