<?xml version="1.0" encoding="utf-8" ?>
<svg baseProfile="full" height="256" version="1.1" width="256" xmlns="http://www.w3.org/2000/svg" xmlns:ev="http://www.w3.org/2001/xml-events" xmlns:xlink="http://www.w3.org/1999/xlink"><defs /><path d="M2053 1581Q2098 1581 2137.0 1564.0Q2176 1547 2205.0 1518.0Q2234 1489 2251.0 1450.0Q2268 1411 2268 1366V72Q2268 27 2251.0 -12.0Q2234 -51 2205.0 -80.5Q2176 -110 2137.0 -127.0Q2098 -144 2053 -144H759Q714 -144 675.0 -127.0Q636 -110 606.5 -80.5Q577 -51 560.0 -12.0Q543 27 543 72V1366Q543 1411 560.0 1450.0Q577 1489 606.5 1518.0Q636 1547 675.0 1564.0Q714 1581 759 1581Z" style="fill:#636363;stroke:none" transform="scale(1,-1) translate(0,-256)" /></svg>