<?xml version="1.0" encoding="utf-8" ?>
<svg baseProfile="full" height="256" version="1.1" width="256" xmlns="http://www.w3.org/2000/svg" xmlns:ev="http://www.w3.org/2001/xml-events" xmlns:xlink="http://www.w3.org/1999/xlink"><defs /><path d="M401 778Q421 784 441.5 787.5Q462 791 482 791Q536 791 584.0 770.5Q632 750 667.5 714.0Q703 678 723.5 630.0Q744 582 744 528Q744 478 726.0 432.5Q708 387 676.5 352.0Q645 317 601.5 294.5Q558 272 508 267Q454 373 427.0 488.0Q400 603 400 721Q400 735 400.0 749.5Q400 764 401 778ZM2136 29Q2044 -68 1930.5 -137.5Q1817 -207 1689 -245Q1673 -216 1664.5 -183.5Q1656 -151 1656 -118Q1656 -64 1677.0 -16.5Q1698 31 1733.5 67.0Q1769 103 1817.0 123.5Q1865 144 1919 144Q1984 144 2041.5 113.0Q2099 82 2136 29ZM2409 641Q2401 550 2378.0 463.0Q2355 376 2317 294Q2287 301 2262.0 317.5Q2237 334 2219.0 357.5Q2201 381 2191.0 409.0Q2181 437 2181 468Q2181 505 2195.0 537.5Q2209 570 2233.5 594.5Q2258 619 2291.0 633.0Q2324 647 2361 647Q2385 647 2409 641ZM1369 1294Q1332 1294 1299.5 1308.0Q1267 1322 1242.5 1346.5Q1218 1371 1204.0 1403.5Q1190 1436 1190 1473Q1190 1510 1204.0 1543.0Q1218 1576 1242.5 1600.5Q1267 1625 1299.5 1639.0Q1332 1653 1369 1653Q1406 1653 1439.0 1639.0Q1472 1625 1496.5 1600.5Q1521 1576 1535.0 1543.0Q1549 1510 1549 1473Q1549 1436 1535.0 1403.5Q1521 1371 1496.5 1346.5Q1472 1322 1439.0 1308.0Q1406 1294 1369 1294ZM1392 102Q1392 73 1381.0 48.5Q1370 24 1351.5 6.5Q1333 -11 1307.5 -20.5Q1282 -30 1254 -30Q1218 -30 1183.5 -15.5Q1149 -1 1122.5 24.0Q1096 49 1080.0 82.5Q1064 116 1064 153Q1064 183 1074.5 207.5Q1085 232 1104.0 249.5Q1123 267 1148.0 276.5Q1173 286 1202 286Q1238 286 1272.5 271.0Q1307 256 1333.5 230.5Q1360 205 1376.0 172.0Q1392 139 1392 102Z" style="fill:#f9c23c;stroke:none" transform="scale(1,-1) translate(0,-256)" /></svg>