<?xml version="1.0" encoding="utf-8" ?>
<svg baseProfile="full" height="256" version="1.1" width="256" xmlns="http://www.w3.org/2000/svg" xmlns:ev="http://www.w3.org/2001/xml-events" xmlns:xlink="http://www.w3.org/1999/xlink"><defs /><path d="M809 1077Q794 1077 783.5 1087.5Q773 1098 773 1113Q773 1165 792.5 1210.5Q812 1256 846.0 1290.0Q880 1324 925.5 1343.5Q971 1363 1023 1363Q1038 1363 1048.5 1352.5Q1059 1342 1059 1327Q1059 1312 1048.5 1301.5Q1038 1291 1023 1291Q986 1291 953.5 1277.0Q921 1263 897.0 1239.0Q873 1215 859.0 1182.5Q845 1150 845 1113Q845 1098 834.5 1087.5Q824 1077 809 1077ZM1733 1327Q1733 1342 1743.5 1352.5Q1754 1363 1769 1363Q1821 1363 1866.5 1343.5Q1912 1324 1946.0 1290.0Q1980 1256 1999.5 1210.5Q2019 1165 2019 1113Q2019 1098 2008.5 1087.5Q1998 1077 1983 1077Q1968 1077 1957.5 1087.5Q1947 1098 1947 1113Q1947 1150 1933.0 1182.5Q1919 1215 1895.0 1239.0Q1871 1263 1838.5 1277.0Q1806 1291 1769 1291Q1754 1291 1743.5 1301.5Q1733 1312 1733 1327ZM1089 1041Q1114 1041 1130.5 1033.0Q1147 1025 1157.5 1013.5Q1168 1002 1175.0 988.5Q1182 975 1189.5 963.5Q1197 952 1207.0 944.0Q1217 936 1234 936Q1256 936 1272.0 952.0Q1288 968 1288 990Q1288 998 1285 1007Q1274 1038 1254.5 1064.0Q1235 1090 1209.5 1109.0Q1184 1128 1153.0 1138.5Q1122 1149 1089 1149Q1059 1149 1028.5 1139.5Q998 1130 972.0 1112.5Q946 1095 926.0 1071.0Q906 1047 896 1018Q893 1009 893 999Q893 976 908.5 960.0Q924 944 947 944Q971 944 982.5 959.0Q994 974 1006.0 992.5Q1018 1011 1035.5 1026.0Q1053 1041 1089 1041ZM1709 1041Q1673 1041 1655.0 1026.0Q1637 1011 1625.0 992.5Q1613 974 1601.5 959.0Q1590 944 1566 944Q1544 944 1528.0 960.5Q1512 977 1512 999Q1512 1004 1513.0 1008.5Q1514 1013 1516 1018Q1527 1048 1547.0 1072.0Q1567 1096 1592.5 1113.0Q1618 1130 1648.0 1139.5Q1678 1149 1709 1149Q1742 1149 1773.0 1138.5Q1804 1128 1830.0 1109.5Q1856 1091 1875.0 1064.5Q1894 1038 1905 1007Q1908 998 1908 990Q1908 967 1892.0 951.5Q1876 936 1853 936Q1837 936 1827.0 944.0Q1817 952 1809.0 963.5Q1801 975 1794.0 988.5Q1787 1002 1776.5 1013.5Q1766 1025 1750.0 1033.0Q1734 1041 1709 1041ZM1078 693Q1055 693 1039.5 677.5Q1024 662 1024 639Q1024 619 1040 601Q1070 566 1112.5 538.5Q1155 511 1203.0 492.0Q1251 473 1301.5 463.0Q1352 453 1397 453Q1442 453 1492.5 463.0Q1543 473 1591.0 492.0Q1639 511 1681.5 538.5Q1724 566 1754 601Q1770 619 1770 639Q1770 662 1754.5 677.5Q1739 693 1716 693Q1704 693 1695.5 689.0Q1687 685 1678 677Q1644 650 1613.0 628.5Q1582 607 1549.0 592.0Q1516 577 1479.0 569.0Q1442 561 1397 561Q1352 561 1315.0 569.0Q1278 577 1245.0 592.0Q1212 607 1181.0 628.5Q1150 650 1116 677Q1107 685 1098.5 689.0Q1090 693 1078 693Z" style="fill:#321b41;stroke:none" transform="scale(1,-1) translate(0,-256)" /></svg>