<?xml version="1.0" encoding="utf-8" ?>
<svg baseProfile="full" height="256" version="1.1" width="256" xmlns="http://www.w3.org/2000/svg" xmlns:ev="http://www.w3.org/2001/xml-events" xmlns:xlink="http://www.w3.org/1999/xlink"><defs /><path d="M2412 721Q2412 582 2376.0 453.5Q2340 325 2274.5 213.5Q2209 102 2117.0 10.0Q2025 -82 1913.5 -147.5Q1802 -213 1673.5 -249.0Q1545 -285 1406 -285Q1267 -285 1138.5 -249.0Q1010 -213 898.5 -147.5Q787 -82 695.0 10.0Q603 102 537.5 213.5Q472 325 436.0 453.5Q400 582 400 721Q400 860 436.0 988.5Q472 1117 537.5 1229.0Q603 1341 694.5 1433.0Q786 1525 898.0 1590.5Q1010 1656 1138.5 1692.0Q1267 1728 1406 1728Q1545 1728 1673.5 1692.0Q1802 1656 1914.0 1590.5Q2026 1525 2117.5 1433.0Q2209 1341 2274.5 1229.0Q2340 1117 2376.0 988.5Q2412 860 2412 721Z" style="fill:#fcd53f;stroke:none" transform="scale(1,-1) translate(0,-256)" /></svg>