<?xml version="1.0" encoding="utf-8" ?>
<svg baseProfile="full" height="256" version="1.1" width="256" xmlns="http://www.w3.org/2000/svg" xmlns:ev="http://www.w3.org/2001/xml-events" xmlns:xlink="http://www.w3.org/1999/xlink"><defs /><path d="M1363 959H949Q865 959 790.5 991.0Q716 1023 661.0 1078.0Q606 1133 574.0 1207.5Q542 1282 542 1366H956Q1040 1366 1114.5 1334.0Q1189 1302 1244.0 1247.0Q1299 1192 1331.0 1117.5Q1363 1043 1363 959ZM2266 1366H1852Q1768 1366 1693.5 1334.0Q1619 1302 1564.0 1247.0Q1509 1192 1477.0 1117.5Q1445 1043 1445 959H1859Q1943 959 2017.5 991.0Q2092 1023 2147.0 1078.0Q2202 1133 2234.0 1207.5Q2266 1282 2266 1366Z" style="fill:#00d26a;stroke:none" transform="scale(1,-1) translate(0,-256)" /></svg>