<?xml version="1.0" encoding="utf-8" ?>
<svg baseProfile="full" height="256" version="1.1" width="256" xmlns="http://www.w3.org/2000/svg" xmlns:ev="http://www.w3.org/2001/xml-events" xmlns:xlink="http://www.w3.org/1999/xlink"><defs /><path d="M1691 1151Q1790 1151 1882.0 1125.5Q1974 1100 2054.0 1053.0Q2134 1006 2199.5 940.5Q2265 875 2311.5 795.0Q2358 715 2383.5 623.0Q2409 531 2409 432Q2409 333 2383.5 241.0Q2358 149 2311.0 69.0Q2264 -11 2198.5 -76.5Q2133 -142 2053.5 -189.0Q1974 -236 1882.0 -261.5Q1790 -287 1691 -287H1118Q1019 -287 927.5 -261.5Q836 -236 756.0 -189.0Q676 -142 610.5 -76.5Q545 -11 498.0 69.0Q451 149 425.5 241.0Q400 333 400 432Q400 531 425.5 623.0Q451 715 498.0 795.0Q545 875 610.5 940.5Q676 1006 755.5 1053.0Q835 1100 927.0 1125.5Q1019 1151 1118 1151H1691Z" style="fill:#f8312f;stroke:none" transform="scale(1,-1) translate(0,-256)" /></svg>