<?xml version="1.0" encoding="utf-8" ?>
<svg baseProfile="full" height="256" version="1.1" width="256" xmlns="http://www.w3.org/2000/svg" xmlns:ev="http://www.w3.org/2001/xml-events" xmlns:xlink="http://www.w3.org/1999/xlink"><defs /><path d="M1366 1374Q1366 1391 1377.5 1402.0Q1389 1413 1406 1413Q1422 1413 1433.5 1401.5Q1445 1390 1445 1374V40Q1445 23 1434.0 11.5Q1423 0 1406 0Q1389 0 1377.5 11.5Q1366 23 1366 40ZM1882 1097Q1849 1097 1820.5 1109.5Q1792 1122 1770.5 1143.5Q1749 1165 1736.5 1193.5Q1724 1222 1724 1255Q1724 1288 1736.5 1316.5Q1749 1345 1770.5 1366.5Q1792 1388 1820.5 1400.5Q1849 1413 1882 1413Q1915 1413 1943.5 1400.5Q1972 1388 1994.0 1367.0Q2016 1346 2028.5 1317.0Q2041 1288 2041 1255Q2041 1222 2028.5 1193.0Q2016 1164 1994.0 1143.0Q1972 1122 1943.5 1109.5Q1915 1097 1882 1097ZM2076 1039Q2094 1039 2113.0 1033.0Q2132 1027 2148.5 1015.5Q2165 1004 2177.5 988.5Q2190 973 2195 955L2265 697Q2267 692 2268.0 686.5Q2269 681 2269 675Q2269 648 2251.0 630.0Q2233 612 2206 612Q2185 612 2169.5 623.5Q2154 635 2146 654Q2141 667 2138.0 682.0Q2135 697 2131 710Q2119 755 2108.0 798.5Q2097 842 2083 886Q2080 895 2072.5 902.0Q2065 909 2054 909Q2041 909 2032.0 900.0Q2023 891 2023 878Q2023 873 2024 870Q2027 859 2036.5 824.5Q2046 790 2059.0 744.0Q2072 698 2085.5 647.0Q2099 596 2111.0 552.0Q2123 508 2130.5 477.5Q2138 447 2138 443Q2138 419 2123.0 412.0Q2108 405 2090.0 404.5Q2072 404 2057.0 404.5Q2042 405 2042 396V89Q2042 61 2022.5 43.0Q2003 25 1976 25Q1950 25 1933.0 45.5Q1916 66 1916 90V373Q1916 386 1906.5 395.0Q1897 404 1884 404Q1871 404 1861.5 395.0Q1852 386 1852 373V89Q1852 61 1832.5 43.0Q1813 25 1786 25Q1760 25 1743.0 45.5Q1726 66 1726 90V396Q1726 403 1718 403Q1706 403 1691.5 402.5Q1677 402 1664.5 404.5Q1652 407 1643.0 415.5Q1634 424 1634 442Q1634 447 1641.5 477.0Q1649 507 1661.0 551.0Q1673 595 1686.5 646.5Q1700 698 1713.0 744.0Q1726 790 1735.5 824.5Q1745 859 1748 870Q1749 872 1749 878Q1749 890 1740.5 899.5Q1732 909 1719 909Q1708 909 1700.0 902.5Q1692 896 1689 886Q1675 844 1664.5 800.5Q1654 757 1642 714Q1638 700 1634.5 684.0Q1631 668 1626 654Q1618 635 1602.0 623.5Q1586 612 1566 612Q1539 612 1521.0 630.5Q1503 649 1503 675Q1503 681 1504.0 686.5Q1505 692 1507 697L1577 955Q1582 974 1594.5 989.5Q1607 1005 1623.5 1016.0Q1640 1027 1659.0 1033.0Q1678 1039 1696 1039ZM1121 1039Q1149 1039 1175.0 1028.0Q1201 1017 1221.0 997.5Q1241 978 1252.5 952.5Q1264 927 1264 898V640Q1264 616 1246.5 595.5Q1229 575 1203 575Q1176 575 1156.5 592.5Q1137 610 1137 638V859Q1137 872 1128.0 881.5Q1119 891 1106 891Q1093 891 1083.5 881.5Q1074 872 1074 859V89Q1074 61 1054.5 43.0Q1035 25 1008 25Q982 25 964.5 45.0Q947 65 947 90V505Q947 518 938.0 527.5Q929 537 916 537Q903 537 893.5 527.5Q884 518 884 505V88Q884 64 866.5 44.5Q849 25 824 25Q796 25 777.0 42.5Q758 60 758 89V859Q758 872 748.5 881.5Q739 891 726 891Q713 891 703.5 881.5Q694 872 694 859V638Q694 610 674.5 592.5Q655 575 628 575Q602 575 585.0 595.5Q568 616 568 640V898Q568 927 579.0 953.0Q590 979 609.0 998.0Q628 1017 654.0 1028.0Q680 1039 709 1039ZM1070 1255Q1070 1222 1057.5 1193.0Q1045 1164 1023.0 1143.0Q1001 1122 972.5 1109.5Q944 1097 911 1097Q878 1097 849.5 1109.5Q821 1122 799.5 1143.5Q778 1165 765.5 1193.5Q753 1222 753 1255Q753 1288 765.5 1316.5Q778 1345 799.5 1366.5Q821 1388 849.5 1400.5Q878 1413 911 1413Q944 1413 972.5 1400.5Q1001 1388 1023.0 1367.0Q1045 1346 1057.5 1317.0Q1070 1288 1070 1255Z" style="fill:#ffffff;stroke:none" transform="scale(1,-1) translate(0,-256)" /></svg>