<?xml version="1.0" encoding="utf-8" ?>
<svg baseProfile="full" height="256" version="1.1" width="256" xmlns="http://www.w3.org/2000/svg" xmlns:ev="http://www.w3.org/2001/xml-events" xmlns:xlink="http://www.w3.org/1999/xlink"><defs /><path d="M543 1078Q543 1107 564.5 1128.5Q586 1150 615 1150H2053Q2083 1150 2104.0 1129.0Q2125 1108 2125 1078Q2125 1049 2103.5 1027.5Q2082 1006 2053 1006H615Q586 1006 564.5 1027.5Q543 1049 543 1078ZM543 827Q543 841 554.0 852.0Q565 863 579 863H2089Q2104 863 2114.5 852.5Q2125 842 2125 827Q2125 812 2114.5 801.5Q2104 791 2089 791H579Q565 791 554.0 802.0Q543 813 543 827ZM1658 647Q1643 647 1632.5 636.5Q1622 626 1622 611Q1622 596 1632.5 585.5Q1643 575 1658 575H2089Q2104 575 2114.5 585.5Q2125 596 2125 611Q2125 626 2114.5 636.5Q2104 647 2089 647ZM1622 396Q1622 410 1633.0 420.5Q1644 431 1658 431H2089Q2103 431 2114.0 420.5Q2125 410 2125 396Q2125 381 2114.5 370.5Q2104 360 2089 360H1658Q1643 360 1632.5 370.5Q1622 381 1622 396ZM1658 216Q1643 216 1632.5 205.5Q1622 195 1622 180Q1622 165 1632.5 154.5Q1643 144 1658 144H2089Q2104 144 2114.5 154.5Q2125 165 2125 180Q2125 195 2114.5 205.5Q2104 216 2089 216ZM1622 -36Q1622 -21 1632.5 -10.5Q1643 0 1658 0H2089Q2104 0 2114.5 -10.5Q2125 -21 2125 -36Q2125 -51 2114.5 -61.5Q2104 -72 2089 -72H1658Q1643 -72 1632.5 -61.5Q1622 -51 1622 -36ZM687 647Q657 647 631.0 635.5Q605 624 585.5 604.5Q566 585 554.5 559.0Q543 533 543 503V72Q543 42 554.5 16.0Q566 -10 585.5 -29.5Q605 -49 631.0 -60.5Q657 -72 687 -72H1334Q1364 -72 1390.0 -60.5Q1416 -49 1435.5 -29.5Q1455 -10 1466.5 16.0Q1478 42 1478 72V503Q1478 533 1466.5 559.0Q1455 585 1435.5 604.5Q1416 624 1390.0 635.5Q1364 647 1334 647Z" style="fill:#998ea4;stroke:none" transform="scale(1,-1) translate(0,-256)" /></svg>