<?xml version="1.0" encoding="utf-8" ?>
<svg baseProfile="full" height="256" version="1.1" width="256" xmlns="http://www.w3.org/2000/svg" xmlns:ev="http://www.w3.org/2001/xml-events" xmlns:xlink="http://www.w3.org/1999/xlink"><defs /><path d="M2125 1294Q2155 1294 2181.0 1282.5Q2207 1271 2226.5 1251.5Q2246 1232 2257.0 1206.0Q2268 1180 2268 1150V-179Q2268 -201 2276.5 -220.5Q2285 -240 2300.0 -255.0Q2315 -270 2334.5 -278.5Q2354 -287 2376 -287H543Q513 -287 487.0 -276.0Q461 -265 441.5 -245.5Q422 -226 411.0 -200.0Q400 -174 400 -144V1150Q400 1180 411.0 1206.0Q422 1232 441.5 1251.5Q461 1271 487.0 1282.5Q513 1294 543 1294H2125Z" style="fill:#f3eef8;stroke:none" transform="scale(1,-1) translate(0,-256)" /></svg>