<?xml version="1.0" encoding="utf-8" ?>
<svg baseProfile="full" height="256" version="1.1" width="256" xmlns="http://www.w3.org/2000/svg" xmlns:ev="http://www.w3.org/2001/xml-events" xmlns:xlink="http://www.w3.org/1999/xlink"><defs /><path d="M543 1366Q543 1396 554.5 1422.0Q566 1448 585.5 1467.5Q605 1487 631.0 1498.5Q657 1510 687 1510H2340Q2370 1510 2396.0 1498.5Q2422 1487 2441.5 1467.5Q2461 1448 2472.5 1422.0Q2484 1396 2484 1366V-215Q2484 -245 2472.5 -271.5Q2461 -298 2441.5 -317.5Q2422 -337 2396.0 -348.0Q2370 -359 2340 -359H543Q498 -359 459.0 -342.0Q420 -325 391.0 -296.0Q362 -267 345.0 -228.0Q328 -189 328 -144V1150Q328 1195 345.0 1234.0Q362 1273 391.0 1302.5Q420 1332 459.0 1349.0Q498 1366 543 1366Z" style="fill:#b4acbc;stroke:none" transform="scale(1,-1) translate(0,-256)" /></svg>