<?xml version="1.0" encoding="utf-8" ?>
<svg baseProfile="full" height="256" version="1.1" width="256" xmlns="http://www.w3.org/2000/svg" xmlns:ev="http://www.w3.org/2001/xml-events" xmlns:xlink="http://www.w3.org/1999/xlink"><defs /><path d="M1406 1078Q1346 1078 1293.5 1100.5Q1241 1123 1202.0 1162.0Q1163 1201 1140.5 1253.5Q1118 1306 1118 1366Q1118 1426 1140.5 1478.0Q1163 1530 1202.0 1569.0Q1241 1608 1293.5 1630.5Q1346 1653 1406 1653Q1466 1653 1518.0 1630.5Q1570 1608 1609.0 1569.0Q1648 1530 1670.5 1478.0Q1693 1426 1693 1366Q1693 1306 1670.5 1253.5Q1648 1201 1609.0 1162.0Q1570 1123 1518.0 1100.5Q1466 1078 1406 1078ZM400 683Q400 728 417.5 768.0Q435 808 465.0 838.0Q495 868 535.0 885.5Q575 903 620 903H2190Q2235 903 2275.0 885.5Q2315 868 2345.0 838.0Q2375 808 2392.5 768.0Q2410 728 2410 683Q2410 638 2392.5 598.0Q2375 558 2345.0 528.0Q2315 498 2275.0 480.5Q2235 463 2190 463H620Q574 463 534.0 480.0Q494 497 464.0 527.0Q434 557 417.0 597.0Q400 637 400 683ZM1693 0Q1693 -60 1670.5 -112.0Q1648 -164 1609.0 -203.0Q1570 -242 1518.0 -264.5Q1466 -287 1406 -287Q1346 -287 1293.5 -264.5Q1241 -242 1202.0 -203.0Q1163 -164 1140.5 -112.0Q1118 -60 1118 0Q1118 60 1140.5 112.5Q1163 165 1202.0 204.0Q1241 243 1293.5 265.5Q1346 288 1406 288Q1466 288 1518.0 265.5Q1570 243 1609.0 204.0Q1648 165 1670.5 112.5Q1693 60 1693 0Z" style="fill:#635994;stroke:none" transform="scale(1,-1) translate(0,-256)" /></svg>