<?xml version="1.0" encoding="utf-8" ?>
<svg baseProfile="full" height="256" version="1.1" width="256" xmlns="http://www.w3.org/2000/svg" xmlns:ev="http://www.w3.org/2001/xml-events" xmlns:xlink="http://www.w3.org/1999/xlink"><defs /><path d="M795 877Q795 892 806 903L899 996Q909 1006 924 1006Q939 1006 949.5 995.5Q960 985 960 970Q960 955 950 945L856 852Q845 841 831 841Q817 841 806.0 852.0Q795 863 795 877ZM615 899Q615 884 625.5 873.5Q636 863 651 863Q666 863 676.5 873.5Q687 884 687 899V935Q687 950 676.5 960.5Q666 971 651 971Q636 971 625.5 960.5Q615 950 615 935ZM2256 647H2125V503H2268V575Q2268 612 2256 647ZM2125 360H2268V216H2125ZM2277 109V-62Q2292 -67 2308.0 -69.5Q2324 -72 2340 -72Q2369 -72 2390.5 -50.5Q2412 -29 2412 0Q2412 30 2391.0 51.0Q2370 72 2340 72Q2320 72 2303.5 82.0Q2287 92 2277 109ZM1334 791V575Q1334 546 1312.5 524.5Q1291 503 1262 503Q1233 503 1211.5 524.5Q1190 546 1190 575V863Q1214 839 1227.0 824.5Q1240 810 1253.0 802.5Q1266 795 1283.5 793.0Q1301 791 1334 791ZM1478 791V575Q1478 546 1499.5 524.5Q1521 503 1550 503Q1579 503 1600.5 524.5Q1622 546 1622 575V791ZM1765 575V791H1909V575Q1909 546 1887.5 524.5Q1866 503 1837 503Q1808 503 1786.5 524.5Q1765 546 1765 575ZM451 935Q429 935 414.5 919.5Q400 904 400 883V791L521 935ZM1662 144H1945Q1960 144 1970.5 133.5Q1981 123 1981 108Q1981 93 1970.5 82.5Q1960 72 1945 72H1734ZM975 108Q975 123 964.5 133.5Q954 144 939 144H830V72H939Q954 72 964.5 82.5Q975 93 975 108ZM939 1Q954 1 964.5 -9.5Q975 -20 975 -35Q975 -50 964.5 -60.5Q954 -71 939 -71H830V1ZM1981 -35Q1981 -20 1970.5 -9.5Q1960 1 1945 1H1805L1834 -29L1823 -72H1945Q1961 -72 1971.0 -61.0Q1981 -50 1981 -35ZM915 818Q915 804 926.0 793.0Q937 782 951 782Q965 782 976 793Q982 798 989.5 804.5Q997 811 1003.5 818.5Q1010 826 1015.0 834.0Q1020 842 1020 851Q1020 865 1009.0 876.0Q998 887 984 887Q975 887 967.0 882.0Q959 877 951.5 870.5Q944 864 937.5 856.5Q931 849 926 844Q915 833 915 818Z" style="fill:#212121;stroke:none" transform="scale(1,-1) translate(0,-256)" /></svg>