<?xml version="1.0" encoding="utf-8" ?>
<svg baseProfile="full" height="256" version="1.1" width="256" xmlns="http://www.w3.org/2000/svg" xmlns:ev="http://www.w3.org/2001/xml-events" xmlns:xlink="http://www.w3.org/1999/xlink"><defs /><path d="M830 171Q767 202 736.5 246.5Q706 291 695.0 344.0Q684 397 685.5 456.0Q687 515 687 575H597Q556 575 520.5 590.5Q485 606 458.0 633.0Q431 660 415.5 695.5Q400 731 400 772V883Q400 904 414.5 919.5Q429 935 451 935H543Q554 912 565.0 887.0Q576 862 591.0 840.5Q606 819 627.0 805.0Q648 791 679 791H844Q873 791 893.5 770.5Q914 750 914 721Q914 700 901.0 680.0Q888 660 872.0 637.5Q856 615 843.0 588.0Q830 561 830 527ZM1046 288H1519Q1549 288 1575.0 276.5Q1601 265 1620.5 245.5Q1640 226 1651.5 200.0Q1663 174 1663 144H1046Z" style="fill:#ffdea7;stroke:none" transform="scale(1,-1) translate(0,-256)" /></svg>