<?xml version="1.0" encoding="utf-8" ?>
<svg baseProfile="full" height="256" version="1.1" width="256" xmlns="http://www.w3.org/2000/svg" xmlns:ev="http://www.w3.org/2001/xml-events" xmlns:xlink="http://www.w3.org/1999/xlink"><defs /><path d="M1984 791Q2013 791 2038.5 780.0Q2064 769 2083.5 749.5Q2103 730 2114.0 704.5Q2125 679 2125 650V232Q2125 187 2118.0 145.0Q2111 103 2097 61L1990 -263Q1986 -274 1976.5 -280.5Q1967 -287 1956 -287H1724Q1714 -287 1707.0 -280.5Q1700 -274 1700 -264Q1700 -250 1706.0 -232.0Q1712 -214 1715 -200Q1723 -166 1747.5 -155.0Q1772 -144 1803 -144L1823 -72L1873 -36Q1858 -28 1838.5 -19.5Q1819 -11 1806 0Q1787 14 1769.0 34.5Q1751 55 1734 72L1729 108L1662 144H1045V-265Q1045 -274 1038.5 -280.5Q1032 -287 1023 -287H789Q775 -287 768.5 -279.0Q762 -271 760.0 -260.0Q758 -249 758.5 -236.0Q759 -223 759 -214Q759 -185 780.0 -164.5Q801 -144 830 -144V-72L867 -36L830 0V171Q797 187 782.0 218.5Q767 250 761.5 286.5Q756 323 757.5 361.5Q759 400 759 430V650L506 736L543 935Q575 973 606.5 1011.5Q638 1050 670 1088Q704 1127 742.5 1138.5Q781 1150 830 1150V1186Q830 1208 838.5 1228.0Q847 1248 861.5 1262.5Q876 1277 895.5 1285.5Q915 1294 938 1294Q960 1294 980.0 1285.5Q1000 1277 1014.5 1262.5Q1029 1248 1037.5 1228.0Q1046 1208 1046 1186V1045Q1046 1027 1053.0 1009.5Q1060 992 1073 979Q1102 950 1133.0 921.5Q1164 893 1190 862Q1210 839 1227.5 810.0Q1245 781 1262 755L1334 791H1478L1550 755L1622 791H1765L1837 755L1909 791Z" style="fill:#ff822d;stroke:none" transform="scale(1,-1) translate(0,-256)" /></svg>