<?xml version="1.0" encoding="utf-8" ?>
<svg baseProfile="full" height="256" version="1.1" width="256" xmlns="http://www.w3.org/2000/svg" xmlns:ev="http://www.w3.org/2001/xml-events" xmlns:xlink="http://www.w3.org/1999/xlink"><defs /><path d="M1660 973Q1609 1024 1543.5 1051.0Q1478 1078 1406 1078Q1359 1078 1314.0 1066.0Q1269 1054 1228 1031L996 1437Q982 1462 982 1490Q982 1520 997.0 1542.5Q1012 1565 1039 1578Q1122 1617 1218.5 1635.0Q1315 1653 1406 1653Q1482 1653 1560.0 1640.0Q1638 1627 1713.0 1601.5Q1788 1576 1857.5 1538.0Q1927 1500 1986 1451Q2022 1421 2022 1377Q2022 1335 1990 1303ZM1152 465Q1203 414 1268.5 387.0Q1334 360 1406 360Q1453 360 1498.0 372.0Q1543 384 1584 407L1816 1Q1830 -24 1830 -52Q1830 -83 1815.0 -105.0Q1800 -127 1773 -140Q1732 -160 1686.5 -174.0Q1641 -188 1593.5 -197.0Q1546 -206 1498.5 -210.5Q1451 -215 1406 -215Q1329 -215 1251.0 -202.0Q1173 -189 1098.0 -163.5Q1023 -138 954.0 -100.5Q885 -63 826 -13Q790 17 790 61Q790 81 798.5 100.5Q807 120 821 134Z" style="fill:#f3eef8;stroke:none" transform="scale(1,-1) translate(0,-256)" /></svg>