<?xml version="1.0" encoding="utf-8" ?>
<svg baseProfile="full" height="256" version="1.1" width="256" xmlns="http://www.w3.org/2000/svg" xmlns:ev="http://www.w3.org/2001/xml-events" xmlns:xlink="http://www.w3.org/1999/xlink"><defs /><path d="M1406 -287Q1267 -287 1138.5 -251.0Q1010 -215 898.0 -149.5Q786 -84 694.5 7.5Q603 99 537.5 211.0Q472 323 436.0 451.5Q400 580 400 719Q400 858 436.0 986.5Q472 1115 537.5 1227.0Q603 1339 694.5 1430.5Q786 1522 898.0 1587.5Q1010 1653 1138.5 1689.0Q1267 1725 1406 1725Q1545 1725 1673.5 1689.0Q1802 1653 1914.0 1587.5Q2026 1522 2117.5 1430.5Q2209 1339 2274.5 1227.0Q2340 1115 2376.0 986.5Q2412 858 2412 719Q2412 580 2376.0 451.5Q2340 323 2274.5 211.0Q2209 99 2117.5 7.5Q2026 -84 1914.0 -149.5Q1802 -215 1673.5 -251.0Q1545 -287 1406 -287ZM1406 431Q1466 431 1518.0 453.5Q1570 476 1609.0 515.0Q1648 554 1670.5 606.5Q1693 659 1693 719Q1693 779 1670.5 831.0Q1648 883 1609.0 922.0Q1570 961 1518.0 983.5Q1466 1006 1406 1006Q1346 1006 1293.5 983.5Q1241 961 1202.0 922.0Q1163 883 1140.5 831.0Q1118 779 1118 719Q1118 659 1140.5 606.5Q1163 554 1202.0 515.0Q1241 476 1293.5 453.5Q1346 431 1406 431Z" style="fill:#b4acbc;stroke:none" transform="scale(1,-1) translate(0,-256)" /></svg>