<?xml version="1.0" encoding="utf-8" ?>
<svg baseProfile="full" height="256" version="1.1" width="256" xmlns="http://www.w3.org/2000/svg" xmlns:ev="http://www.w3.org/2001/xml-events" xmlns:xlink="http://www.w3.org/1999/xlink"><defs /><path d="M400 1150H620Q646 1150 666.5 1132.5Q687 1115 687 1088V1006H400ZM725 647H697Q663 647 639.0 670.5Q615 694 615 728V853Q615 887 639.0 911.0Q663 935 697 935H725Q739 935 749.0 924.5Q759 914 759 900V682Q759 668 749.0 657.5Q739 647 725 647ZM1121 -36Q1121 -88 1101.0 -134.0Q1081 -180 1047.0 -214.0Q1013 -248 967.0 -267.5Q921 -287 869 -287Q817 -287 771.0 -267.5Q725 -248 691.0 -214.0Q657 -180 637.0 -134.0Q617 -88 617 -36Q617 16 637.0 62.0Q657 108 691.0 142.0Q725 176 771.0 196.0Q817 216 869 216Q921 216 967.0 196.0Q1013 176 1047.0 142.0Q1081 108 1101.0 62.0Q1121 16 1121 -36ZM1946 -287Q1998 -287 2044.0 -267.5Q2090 -248 2124.0 -214.0Q2158 -180 2177.5 -134.0Q2197 -88 2197 -36Q2197 16 2177.5 62.0Q2158 108 2124.0 142.0Q2090 176 2044.0 196.0Q1998 216 1946 216Q1894 216 1848.0 196.0Q1802 176 1768.0 142.0Q1734 108 1714.0 62.0Q1694 16 1694 -36Q1694 -88 1714.0 -134.0Q1734 -180 1768.0 -214.0Q1802 -248 1848.0 -267.5Q1894 -287 1946 -287Z" style="fill:#212121;stroke:none" transform="scale(1,-1) translate(0,-256)" /></svg>