<?xml version="1.0" encoding="utf-8" ?>
<svg baseProfile="full" height="256" version="1.1" width="256" xmlns="http://www.w3.org/2000/svg" xmlns:ev="http://www.w3.org/2001/xml-events" xmlns:xlink="http://www.w3.org/1999/xlink"><defs /><path d="M2412 1155V431L1741 336Q1692 329 1652.0 320.5Q1612 312 1574.0 305.0Q1536 298 1495.5 293.0Q1455 288 1406 288Q1356 288 1316.0 293.0Q1276 298 1237.5 305.0Q1199 312 1159.5 320.5Q1120 329 1071 336L400 431V1155Q400 1183 411.0 1208.5Q422 1234 441.0 1253.0Q460 1272 485.0 1283.0Q510 1294 539 1294H2273Q2301 1294 2326.5 1283.0Q2352 1272 2371.0 1253.0Q2390 1234 2401.0 1208.5Q2412 1183 2412 1155Z" style="fill:#bebebe;stroke:none" transform="scale(1,-1) translate(0,-256)" /></svg>