<?xml version="1.0" encoding="utf-8" ?>
<svg baseProfile="full" height="256" version="1.1" width="256" xmlns="http://www.w3.org/2000/svg" xmlns:ev="http://www.w3.org/2001/xml-events" xmlns:xlink="http://www.w3.org/1999/xlink"><defs /><path d="M1402 1725Q1540 1725 1668.0 1689.5Q1796 1654 1907.5 1588.5Q2019 1523 2110.5 1431.5Q2202 1340 2267.5 1229.0Q2333 1118 2369.0 989.5Q2405 861 2405 723Q2405 585 2369.0 457.0Q2333 329 2267.5 217.5Q2202 106 2110.5 14.5Q2019 -77 1907.5 -142.5Q1796 -208 1668.0 -244.0Q1540 -280 1402 -280Q1264 -280 1136.0 -244.0Q1008 -208 897.0 -142.5Q786 -77 694.0 14.5Q602 106 537.0 217.5Q472 329 436.0 457.0Q400 585 400 723Q400 861 436.0 989.0Q472 1117 537.0 1228.0Q602 1339 694.0 1431.0Q786 1523 897.0 1588.0Q1008 1653 1136.0 1689.0Q1264 1725 1402 1725ZM2189 723Q2189 831 2161.0 931.5Q2133 1032 2081.5 1119.5Q2030 1207 1958.0 1278.5Q1886 1350 1798.5 1401.0Q1711 1452 1610.5 1480.0Q1510 1508 1402 1508Q1274 1508 1153.0 1467.5Q1032 1427 930 1349V1348L2029 250Q2107 352 2148.0 473.5Q2189 595 2189 723ZM616 723Q616 615 644.0 514.5Q672 414 723.5 326.5Q775 239 846.5 167.0Q918 95 1005.5 43.5Q1093 -8 1193.5 -36.0Q1294 -64 1402 -64Q1530 -64 1651.5 -22.0Q1773 20 1876 96V97L777 1196H776Q698 1093 657.0 972.0Q616 851 616 723Z" style="fill:#f8312f;stroke:none" transform="scale(1,-1) translate(0,-256)" /></svg>