<?xml version="1.0" encoding="utf-8" ?>
<svg baseProfile="full" height="256" version="1.1" width="256" xmlns="http://www.w3.org/2000/svg" xmlns:ev="http://www.w3.org/2001/xml-events" xmlns:xlink="http://www.w3.org/1999/xlink"><defs /><path d="M1703 1418Q1731 1418 1755.0 1407.5Q1779 1397 1797.0 1379.0Q1815 1361 1825.0 1336.5Q1835 1312 1835 1284Q1835 1254 1823.0 1226.0Q1811 1198 1791 1176Q1798 1177 1805.0 1177.5Q1812 1178 1819 1178Q1856 1178 1888.5 1164.0Q1921 1150 1945.0 1125.5Q1969 1101 1982.5 1068.5Q1996 1036 1996 999Q1996 970 1986.5 942.0Q1977 914 1959 891Q1995 882 2025.5 862.0Q2056 842 2078.0 814.0Q2100 786 2112.5 751.5Q2125 717 2125 680Q2125 638 2109.5 600.0Q2094 562 2067.5 533.0Q2041 504 2004.5 485.5Q1968 467 1926 463L1297 408Q1287 398 1285.0 384.5Q1283 371 1283 357Q1283 327 1261.5 305.5Q1240 284 1210 284Q1175 284 1155.5 307.5Q1136 331 1136 363Q1136 371 1134.5 379.5Q1133 388 1126 393Q1072 388 1015.0 381.5Q958 375 905 375Q860 375 820.5 392.0Q781 409 751.0 438.5Q721 468 704.0 507.5Q687 547 687 592Q687 631 700.5 667.0Q714 703 738.0 731.5Q762 760 795.0 779.5Q828 799 867 806Q843 831 830.5 862.5Q818 894 818 929Q818 964 830.5 994.5Q843 1025 865.0 1048.5Q887 1072 917.0 1087.0Q947 1102 981 1105L1012 1108Q986 1131 977.0 1158.5Q968 1186 968 1219Q968 1267 994.0 1305.0Q1020 1343 1065 1358Q1091 1367 1132.0 1383.5Q1173 1400 1215.5 1418.5Q1258 1437 1296.0 1456.5Q1334 1476 1354 1491Q1371 1504 1380.5 1521.0Q1390 1538 1395.5 1556.0Q1401 1574 1406.0 1592.0Q1411 1610 1419.5 1623.5Q1428 1637 1442.5 1645.5Q1457 1654 1482 1654Q1516 1654 1532.5 1635.0Q1549 1616 1554.5 1588.0Q1560 1560 1558.5 1527.5Q1557 1495 1556.5 1467.5Q1556 1440 1560.0 1422.0Q1564 1404 1581 1406Q1611 1409 1642.0 1413.5Q1673 1418 1703 1418Z" style="fill:#ffdea7;stroke:none" transform="scale(1,-1) translate(0,-256)" /></svg>