<?xml version="1.0" encoding="utf-8" ?>
<svg baseProfile="full" height="256" version="1.1" width="256" xmlns="http://www.w3.org/2000/svg" xmlns:ev="http://www.w3.org/2001/xml-events" xmlns:xlink="http://www.w3.org/1999/xlink"><defs /><path d="M1700 223 1814 107 1803 25 1649 179 1486 16 1649 -147 1801 5 1787 -101 1696 -193 1765 -263Q1759 -280 1744.5 -290.5Q1730 -301 1712 -302L1649 -240L1587 -302H1494L1603 -193L1440 -30L1277 -193L1385 -302H1292L1229 -240L1167 -302Q1147 -302 1131.5 -294.5Q1116 -287 1106 -269L1183 -193L1080 -90L1056 100L1179 223H1280L1440 63L1599 223ZM1230 -146 1393 17 1230 180 1068 17Z" style="fill:#e19747;stroke:none" transform="scale(1,-1) translate(0,-256)" /></svg>