<?xml version="1.0" encoding="utf-8" ?>
<svg baseProfile="full" height="256" version="1.1" width="256" xmlns="http://www.w3.org/2000/svg" xmlns:ev="http://www.w3.org/2001/xml-events" xmlns:xlink="http://www.w3.org/1999/xlink"><defs /><path d="M1456 362Q1456 404 1462.5 447.5Q1469 491 1484.0 531.0Q1499 571 1524.0 606.0Q1549 641 1586 665L2252 305Q2332 262 2374.5 187.5Q2417 113 2417 22Q2417 -42 2393.0 -98.5Q2369 -155 2327.0 -197.0Q2285 -239 2228.5 -263.0Q2172 -287 2108 -287Q2056 -287 2012 -267Q1980 -253 1948.5 -235.0Q1917 -217 1886 -200Q1829 -168 1772.0 -137.0Q1715 -106 1658 -72Q1606 -41 1568.0 9.0Q1530 59 1505.0 118.5Q1480 178 1468.0 241.0Q1456 304 1456 362Z" style="fill:#8c5543;stroke:none" transform="scale(1,-1) translate(0,-256)" /></svg>