<?xml version="1.0" encoding="utf-8" ?>
<svg baseProfile="full" height="256" version="1.1" width="256" xmlns="http://www.w3.org/2000/svg" xmlns:ev="http://www.w3.org/2001/xml-events" xmlns:xlink="http://www.w3.org/1999/xlink"><defs /><path d="M1603 656Q1620 685 1648.5 702.0Q1677 719 1711 719Q1737 719 1760.0 709.0Q1783 699 1800.0 682.0Q1817 665 1827.0 642.0Q1837 619 1837 593V503H1586V575Q1572 552 1558.0 521.0Q1544 490 1532.0 457.0Q1520 424 1510.0 391.5Q1500 359 1493 334L1586 288L1622 0L1167 242Q1140 256 1123.5 283.5Q1107 311 1107 342Q1107 378 1127.5 407.5Q1148 437 1181 450H1180Q1154 464 1139.0 489.5Q1124 515 1124 544Q1124 566 1132.5 585.0Q1141 604 1155.5 618.5Q1170 633 1189.5 641.5Q1209 650 1231 650Q1260 650 1285.0 636.5Q1310 623 1334 611Q1314 622 1301.5 641.0Q1289 660 1289 683Q1289 716 1313.0 740.0Q1337 764 1370 764Q1389 764 1406 755L1603 656Z" style="fill:#fbb8ab;stroke:none" transform="scale(1,-1) translate(0,-256)" /></svg>