<?xml version="1.0" encoding="utf-8" ?>
<svg baseProfile="full" height="256" version="1.1" width="256" xmlns="http://www.w3.org/2000/svg" xmlns:ev="http://www.w3.org/2001/xml-events" xmlns:xlink="http://www.w3.org/1999/xlink"><defs /><path d="M723 431Q641 431 569.0 462.0Q497 493 443.5 547.0Q390 601 359.0 673.0Q328 745 328 827Q328 909 359.0 981.0Q390 1053 443.5 1106.5Q497 1160 569.0 1191.0Q641 1222 723 1222Q805 1222 877.0 1191.0Q949 1160 1002.5 1106.5Q1056 1053 1087.0 981.0Q1118 909 1118 827Q1118 745 1087.0 673.0Q1056 601 1002.5 547.0Q949 493 877.0 462.0Q805 431 723 431ZM2089 431Q2007 431 1935.0 462.0Q1863 493 1809.0 547.0Q1755 601 1724.0 673.0Q1693 745 1693 827Q1693 909 1724.0 981.0Q1755 1053 1809.0 1106.5Q1863 1160 1935.0 1191.0Q2007 1222 2089 1222Q2171 1222 2243.0 1191.0Q2315 1160 2368.5 1106.5Q2422 1053 2453.0 981.0Q2484 909 2484 827Q2484 745 2453.0 673.0Q2422 601 2368.5 547.0Q2315 493 2243.0 462.0Q2171 431 2089 431Z" style="fill:#e39d89;stroke:none" transform="scale(1,-1) translate(0,-256)" /></svg>