<?xml version="1.0" encoding="utf-8" ?>
<svg baseProfile="full" height="256" version="1.1" width="256" xmlns="http://www.w3.org/2000/svg" xmlns:ev="http://www.w3.org/2001/xml-events" xmlns:xlink="http://www.w3.org/1999/xlink"><defs /><path d="M1203 656 1400 755Q1416 764 1436 764Q1469 764 1492.5 740.0Q1516 716 1516 683Q1516 660 1504.0 641.0Q1492 622 1472 611Q1496 623 1521.0 636.5Q1546 650 1574 650Q1596 650 1615.5 641.5Q1635 633 1649.5 618.5Q1664 604 1672.5 585.0Q1681 566 1681 544Q1681 515 1666.5 489.5Q1652 464 1626 450H1624Q1657 437 1678.0 408.0Q1699 379 1699 344Q1699 312 1682.5 284.5Q1666 257 1638 242L1184 0L1220 288L1312 334Q1305 359 1295.0 391.5Q1285 424 1273.0 457.5Q1261 491 1247.5 522.0Q1234 553 1220 575V503H968V593Q968 619 978.0 642.0Q988 665 1005.0 682.0Q1022 699 1045.0 709.0Q1068 719 1094 719Q1128 719 1157.0 702.0Q1186 685 1203 656Z" style="fill:#fbb8ab;stroke:none" transform="scale(1,-1) translate(0,-256)" /></svg>