<?xml version="1.0" encoding="utf-8" ?>
<svg baseProfile="full" height="256" version="1.1" width="256" xmlns="http://www.w3.org/2000/svg" xmlns:ev="http://www.w3.org/2001/xml-events" xmlns:xlink="http://www.w3.org/1999/xlink"><defs /><path d="M1333 322Q1333 268 1322.5 210.5Q1312 153 1289.5 100.0Q1267 47 1232.0 2.0Q1197 -43 1148 -72Q1091 -106 1034.0 -137.0Q977 -168 919 -200Q888 -217 856.5 -235.0Q825 -253 793 -267Q747 -287 697 -287Q633 -287 577.0 -262.5Q521 -238 479.0 -196.0Q437 -154 412.5 -98.0Q388 -42 388 22Q388 112 431.0 187.0Q474 262 554 305L1190 647Q1229 621 1256.5 583.5Q1284 546 1301.0 503.0Q1318 460 1325.5 413.5Q1333 367 1333 322Z" style="fill:#8c5543;stroke:none" transform="scale(1,-1) translate(0,-256)" /></svg>