<?xml version="1.0" encoding="utf-8" ?>
<svg baseProfile="full" height="256" version="1.1" width="256" xmlns="http://www.w3.org/2000/svg" xmlns:ev="http://www.w3.org/2001/xml-events" xmlns:xlink="http://www.w3.org/1999/xlink"><defs /><path d="M1731 1404Q1798 1404 1856.5 1378.5Q1915 1353 1958.5 1309.5Q2002 1266 2027.5 1207.5Q2053 1149 2053 1082Q2053 994 2015.5 920.5Q1978 847 1903 799Q1909 760 1909 719Q1909 615 1869.5 523.0Q1830 431 1761.5 363.0Q1693 295 1601.5 255.5Q1510 216 1406 216Q1302 216 1210.0 255.5Q1118 295 1050.0 363.0Q982 431 942.5 523.0Q903 615 903 719Q903 760 909 799Q839 844 799.0 916.0Q759 988 759 1072Q759 1141 783.0 1201.5Q807 1262 850.0 1307.0Q893 1352 952.0 1378.0Q1011 1404 1081 1404Z" style="fill:#e39d89;stroke:none" transform="scale(1,-1) translate(0,-256)" /></svg>