<?xml version="1.0" encoding="utf-8" ?>
<svg baseProfile="full" height="256" version="1.1" width="256" xmlns="http://www.w3.org/2000/svg" xmlns:ev="http://www.w3.org/2001/xml-events" xmlns:xlink="http://www.w3.org/1999/xlink"><defs /><path d="M892 858Q896 858 922.5 848.5Q949 839 989.5 823.0Q1030 807 1081.0 786.5Q1132 766 1186.5 744.0Q1241 722 1295.0 700.0Q1349 678 1394.5 658.5Q1440 639 1474.0 625.0Q1508 611 1522 604Q1548 604 1582.5 605.5Q1617 607 1648.0 601.0Q1679 595 1700.5 576.5Q1722 558 1722 517Q1722 494 1712 477H1711Q1809 387 1871.5 270.5Q1934 154 1954 22L1968 -72H2305Q2327 -72 2347.0 -80.5Q2367 -89 2381.0 -104.0Q2395 -119 2403.5 -138.5Q2412 -158 2412 -180Q2412 -202 2403.5 -221.5Q2395 -241 2380.5 -255.5Q2366 -270 2346.5 -278.5Q2327 -287 2305 -287H1370Q1348 -287 1328.5 -278.5Q1309 -270 1294.0 -256.0Q1279 -242 1270.5 -222.5Q1262 -203 1262 -180Q1262 -158 1270.5 -138.0Q1279 -118 1293.5 -103.5Q1308 -89 1327.5 -80.5Q1347 -72 1370 -72H1859L1847 6Q1833 93 1798.5 172.0Q1764 251 1712.0 318.0Q1660 385 1591.5 437.0Q1523 489 1441 522L871 754Q856 760 847.0 774.0Q838 788 838 804Q838 827 853.5 842.5Q869 858 892 858ZM1742 25Q1742 14 1735.0 7.0Q1728 0 1717 0Q1714 0 1696.0 5.0Q1678 10 1656.5 17.0Q1635 24 1616.0 30.0Q1597 36 1591 38Q1562 47 1543.5 69.5Q1525 92 1525 124Q1525 143 1532.5 159.5Q1540 176 1552.5 188.5Q1565 201 1582.0 208.5Q1599 216 1618 216Q1650 216 1673.0 197.5Q1696 179 1705 149Q1707 143 1713.0 124.0Q1719 105 1725.5 84.5Q1732 64 1737.0 46.5Q1742 29 1742 25ZM2037 0Q2027 0 2019.5 7.5Q2012 15 2012 25Q2012 29 2017.0 46.5Q2022 64 2028.5 85.0Q2035 106 2041.0 124.5Q2047 143 2049 149Q2058 179 2081.5 197.5Q2105 216 2137 216Q2175 216 2202.5 189.5Q2230 163 2230 125Q2230 93 2211.5 70.0Q2193 47 2163 38Q2157 36 2138.0 30.0Q2119 24 2098.0 17.0Q2077 10 2059.0 5.0Q2041 0 2037 0Z" style="fill:#26c9fc;stroke:none" transform="scale(1,-1) translate(0,-256)" /></svg>