<?xml version="1.0" encoding="utf-8" ?>
<svg baseProfile="full" height="256" version="1.1" width="256" xmlns="http://www.w3.org/2000/svg" xmlns:ev="http://www.w3.org/2001/xml-events" xmlns:xlink="http://www.w3.org/1999/xlink"><defs /><path d="M1269 -143Q1280 -175 1308.0 -194.5Q1336 -214 1370 -214H2305Q2339 -214 2367.0 -194.5Q2395 -175 2406 -143Q2412 -161 2412 -180Q2412 -202 2403.5 -221.5Q2395 -241 2380.5 -255.5Q2366 -270 2346.5 -278.5Q2327 -287 2305 -287H1370Q1348 -287 1328.5 -278.5Q1309 -270 1294.0 -256.0Q1279 -242 1270.5 -222.5Q1262 -203 1262 -180Q1262 -160 1269 -143Z" style="fill:#00a6ed;stroke:none" transform="scale(1,-1) translate(0,-256)" /></svg>