<?xml version="1.0" encoding="utf-8" ?>
<svg baseProfile="full" height="256" version="1.1" width="256" xmlns="http://www.w3.org/2000/svg" xmlns:ev="http://www.w3.org/2001/xml-events" xmlns:xlink="http://www.w3.org/1999/xlink"><defs /><path d="M399 905Q399 909 405.5 936.5Q412 964 423.5 1006.5Q435 1049 449.0 1102.5Q463 1156 478.5 1212.0Q494 1268 509.0 1323.0Q524 1378 536.5 1424.0Q549 1470 558.0 1503.0Q567 1536 570 1547Q574 1561 584.5 1569.5Q595 1578 609 1578H615L1791 1438Q1807 1436 1817.5 1424.0Q1828 1412 1828 1396Q1828 1391 1818.0 1350.5Q1808 1310 1791.0 1246.0Q1774 1182 1752.0 1101.0Q1730 1020 1707.0 934.0Q1684 848 1661.5 764.5Q1639 681 1620.0 611.5Q1601 542 1587.5 493.0Q1574 444 1570 428Q1566 414 1554.5 405.5Q1543 397 1529 397Q1525 397 1494.5 409.0Q1464 421 1414.0 442.0Q1364 463 1297.5 491.0Q1231 519 1156.5 551.0Q1082 583 1002.5 617.5Q923 652 846.5 685.0Q770 718 699.5 748.5Q629 779 572.5 803.5Q516 828 477.5 844.5Q439 861 425 867Q414 872 406.5 882.5Q399 893 399 905Z" style="fill:#aeddff;stroke:none" transform="scale(1,-1) translate(0,-256)" /></svg>