<?xml version="1.0" encoding="utf-8" ?>
<svg baseProfile="full" height="256" version="1.1" width="256" xmlns="http://www.w3.org/2000/svg" xmlns:ev="http://www.w3.org/2001/xml-events" xmlns:xlink="http://www.w3.org/1999/xlink"><defs /><path d="M1047 935Q1002 935 963.0 952.0Q924 969 894.5 998.0Q865 1027 848.0 1066.0Q831 1105 831 1150Q831 1195 848.0 1234.0Q865 1273 894.5 1302.5Q924 1332 963.0 1349.0Q1002 1366 1047 1366Q1092 1366 1131.0 1349.0Q1170 1332 1199.0 1302.5Q1228 1273 1245.0 1234.0Q1262 1195 1262 1150Q1262 1105 1245.0 1066.0Q1228 1027 1199.0 998.0Q1170 969 1131.0 952.0Q1092 935 1047 935ZM1622 791Q1577 791 1538.0 808.0Q1499 825 1469.5 854.0Q1440 883 1423.0 922.0Q1406 961 1406 1006Q1406 1051 1423.0 1090.5Q1440 1130 1469.0 1159.0Q1498 1188 1537.5 1205.0Q1577 1222 1622 1222Q1667 1222 1706.0 1205.0Q1745 1188 1774.0 1158.5Q1803 1129 1820.0 1090.0Q1837 1051 1837 1006Q1837 961 1820.0 922.0Q1803 883 1774.0 854.0Q1745 825 1706.0 808.0Q1667 791 1622 791Z" style="fill:#e6e6e6;stroke:none" transform="scale(1,-1) translate(0,-256)" /></svg>