<?xml version="1.0" encoding="utf-8" ?>
<svg baseProfile="full" height="256" version="1.1" width="256" xmlns="http://www.w3.org/2000/svg" xmlns:ev="http://www.w3.org/2001/xml-events" xmlns:xlink="http://www.w3.org/1999/xlink"><defs /><path d="M1439 1726Q1452 1726 1464.5 1724.0Q1477 1722 1489 1720Q1607 1695 1673.5 1619.0Q1740 1543 1740 1420Q1740 1374 1731.5 1329.5Q1723 1285 1709 1241Q1665 1105 1641.0 961.5Q1617 818 1617 675Q1617 636 1621.0 597.0Q1625 558 1630.0 519.0Q1635 480 1639.0 441.5Q1643 403 1643 364Q1643 323 1634.5 286.0Q1626 249 1607.0 221.5Q1588 194 1556.0 178.0Q1524 162 1478 162Q1421 162 1380.5 187.5Q1340 213 1311.5 255.0Q1283 297 1266.0 350.0Q1249 403 1239.5 458.5Q1230 514 1227.0 567.0Q1224 620 1224 661Q1224 679 1223.5 701.5Q1223 724 1227.5 744.0Q1232 764 1244.5 777.5Q1257 791 1283 791Q1306 791 1320.0 773.0Q1334 755 1334 734Q1334 715 1333.0 696.0Q1332 677 1332 657Q1332 634 1333.5 596.5Q1335 559 1340.5 516.0Q1346 473 1355.5 429.0Q1365 385 1381.5 350.0Q1398 315 1421.5 292.5Q1445 270 1478 270Q1499 270 1511.0 278.5Q1523 287 1528.0 300.5Q1533 314 1534.0 330.5Q1535 347 1535 364Q1535 403 1531.0 441.0Q1527 479 1522.0 518.0Q1517 557 1513.0 596.0Q1509 635 1509 676Q1509 748 1515.5 825.0Q1522 902 1535.0 979.0Q1548 1056 1565.5 1131.0Q1583 1206 1606 1275Q1617 1310 1624.5 1346.0Q1632 1382 1632 1419Q1632 1504 1590.0 1550.5Q1548 1597 1467 1615Q1453 1618 1441 1618Q1400 1618 1365.0 1594.5Q1330 1571 1300.5 1536.5Q1271 1502 1249.0 1462.5Q1227 1423 1212 1392Q1177 1316 1152.5 1232.5Q1128 1149 1112.5 1062.5Q1097 976 1090.0 889.0Q1083 802 1083 719Q1083 639 1090.5 554.5Q1098 470 1114.5 386.0Q1131 302 1156.5 221.0Q1182 140 1217 68Q1239 23 1269.0 -21.5Q1299 -66 1336.5 -101.0Q1374 -136 1420.0 -158.0Q1466 -180 1521 -180Q1588 -180 1633.5 -153.5Q1679 -127 1707.5 -84.0Q1736 -41 1748.5 14.0Q1761 69 1761 127Q1761 184 1749 240Q1738 295 1729.5 349.0Q1721 403 1721 460Q1721 502 1726.5 544.0Q1732 586 1745 627Q1764 687 1802.5 746.5Q1841 806 1889 847Q1898 855 1906.5 859.0Q1915 863 1927 863Q1950 863 1965.5 847.5Q1981 832 1981 809Q1981 797 1977.0 788.5Q1973 780 1965 771Q1945 748 1928.0 729.0Q1911 710 1896.5 690.5Q1882 671 1869.5 648.0Q1857 625 1848 595Q1837 562 1833.0 528.0Q1829 494 1829 460Q1829 417 1835.0 375.5Q1841 334 1848.5 292.5Q1856 251 1862.5 209.5Q1869 168 1869 126Q1869 45 1848.5 -30.0Q1828 -105 1785.0 -162.0Q1742 -219 1677.0 -253.5Q1612 -288 1522 -288Q1450 -288 1389.5 -262.0Q1329 -236 1279.0 -193.5Q1229 -151 1189.5 -95.5Q1150 -40 1121 20Q1082 98 1054.5 184.5Q1027 271 1009.5 361.0Q992 451 983.5 541.5Q975 632 975 719Q975 807 982.5 900.5Q990 994 1007.0 1086.0Q1024 1178 1050.0 1267.5Q1076 1357 1114 1438Q1136 1486 1167.5 1537.0Q1199 1588 1239.5 1630.0Q1280 1672 1330.0 1699.0Q1380 1726 1439 1726Z" style="fill:#9b9b9b;stroke:none" transform="scale(1,-1) translate(0,-256)" /></svg>