<?xml version="1.0" encoding="utf-8" ?>
<svg baseProfile="full" height="256" version="1.1" width="256" xmlns="http://www.w3.org/2000/svg" xmlns:ev="http://www.w3.org/2001/xml-events" xmlns:xlink="http://www.w3.org/1999/xlink"><defs /><path d="M1277 503Q1232 437 1162.5 400.0Q1093 363 1013 363Q982 363 952 369Q945 371 935.5 374.0Q926 377 919 377Q914 377 910.0 375.5Q906 374 906 367Q906 334 882.5 311.0Q859 288 826 288Q793 288 770.0 311.0Q747 334 747 367V431Q747 461 768.0 482.0Q789 503 819 503ZM1532 503Q1577 437 1646.5 400.0Q1716 363 1796 363Q1827 363 1857 369Q1864 371 1873.5 374.0Q1883 377 1890 377Q1895 377 1899.0 375.5Q1903 374 1903 367Q1903 334 1926.5 311.0Q1950 288 1983 288Q2016 288 2039.0 311.0Q2062 334 2062 367V431Q2062 461 2041.0 482.0Q2020 503 1990 503Z" style="fill:#3f5fff;stroke:none" transform="scale(1,-1) translate(0,-256)" /></svg>