<?xml version="1.0" encoding="utf-8" ?>
<svg baseProfile="full" height="256" version="1.1" width="256" xmlns="http://www.w3.org/2000/svg" xmlns:ev="http://www.w3.org/2001/xml-events" xmlns:xlink="http://www.w3.org/1999/xlink"><defs /><path d="M1407 -287Q1176 -287 990.0 -216.0Q804 -145 672.5 -14.0Q541 117 470.5 303.5Q400 490 400 720Q400 950 470.5 1136.5Q541 1323 672.0 1454.5Q803 1586 989.5 1657.0Q1176 1728 1407 1728Q1638 1728 1824.5 1657.0Q2011 1586 2142.5 1454.5Q2274 1323 2344.5 1137.0Q2415 951 2415 720Q2415 490 2344.0 303.5Q2273 117 2142.0 -14.0Q2011 -145 1824.5 -216.0Q1638 -287 1407 -287Z" style="fill:#ffb02e;stroke:none" transform="scale(1,-1) translate(0,-256)" /></svg>