<?xml version="1.0" encoding="utf-8" ?>
<svg baseProfile="full" height="256" version="1.1" width="256" xmlns="http://www.w3.org/2000/svg" xmlns:ev="http://www.w3.org/2001/xml-events" xmlns:xlink="http://www.w3.org/1999/xlink"><defs /><path d="M1331 676Q1331 613 1307.0 557.5Q1283 502 1242.0 461.0Q1201 420 1145.5 396.0Q1090 372 1027 372Q964 372 909.0 396.0Q854 420 813.0 461.5Q772 503 748.0 558.0Q724 613 724 676Q724 739 748.0 794.0Q772 849 813.0 890.5Q854 932 909.0 956.0Q964 980 1027 980Q1090 980 1145.5 956.0Q1201 932 1242.0 891.0Q1283 850 1307.0 794.5Q1331 739 1331 676ZM1478 676Q1478 613 1502.0 557.5Q1526 502 1567.0 461.0Q1608 420 1663.5 396.0Q1719 372 1782 372Q1845 372 1900.0 396.0Q1955 420 1996.5 461.5Q2038 503 2062.0 558.0Q2086 613 2086 676Q2086 739 2062.0 794.0Q2038 849 1996.5 890.5Q1955 932 1900.0 956.0Q1845 980 1782 980Q1719 980 1663.5 956.0Q1608 932 1567.0 891.0Q1526 850 1502.0 794.5Q1478 739 1478 676Z" style="fill:#ffffff;stroke:none" transform="scale(1,-1) translate(0,-256)" /></svg>