<?xml version="1.0" encoding="utf-8" ?>
<svg baseProfile="full" height="256" version="1.1" width="256" xmlns="http://www.w3.org/2000/svg" xmlns:ev="http://www.w3.org/2001/xml-events" xmlns:xlink="http://www.w3.org/1999/xlink"><defs /><path d="M1251 1609H1284V1358Q1279 1360 1275.5 1360.0Q1272 1360 1267 1360Q1249 1360 1229.5 1357.5Q1210 1355 1192 1353V1550Q1192 1575 1209.0 1592.0Q1226 1609 1251 1609ZM1248 5Q1238 3 1228.0 2.0Q1218 1 1208 1Q1185 1 1168.0 16.0Q1151 31 1149 54L1015 1273V1280Q1015 1300 1022.5 1312.0Q1030 1324 1042.5 1330.0Q1055 1336 1070.5 1338.5Q1086 1341 1101 1343Q1138 1006 1174.0 674.0Q1210 342 1248 5ZM793 1400Q778 1398 763.0 1394.5Q748 1391 736.5 1384.5Q725 1378 717.5 1366.0Q710 1354 710 1335Q710 1333 710.5 1330.5Q711 1328 711 1326L913 116Q917 95 934.5 80.0Q952 65 973 65Q984 65 994.0 67.5Q1004 70 1015 72ZM1648 107Q1647 102 1646.5 97.0Q1646 92 1646 87Q1646 67 1653.5 55.5Q1661 44 1673.5 37.5Q1686 31 1701.5 28.5Q1717 26 1732 24L1906 1359Q1896 1361 1886.0 1362.5Q1876 1364 1865 1364Q1852 1364 1843 1360L1686 155Q1684 138 1673.5 125.5Q1663 113 1648 107ZM1634 1460Q1623 1462 1613.0 1463.5Q1603 1465 1592 1465Q1569 1465 1552.5 1450.5Q1536 1436 1533 1413L1374 196V189Q1374 169 1381.5 157.0Q1389 145 1401.0 138.5Q1413 132 1428.5 129.5Q1444 127 1459 125Z" style="fill:#ffb02e;stroke:none" transform="scale(1,-1) translate(0,-256)" /></svg>