<?xml version="1.0" encoding="utf-8" ?>
<svg baseProfile="full" height="256" version="1.1" width="256" xmlns="http://www.w3.org/2000/svg" xmlns:ev="http://www.w3.org/2001/xml-events" xmlns:xlink="http://www.w3.org/1999/xlink"><defs /><path d="M1993 357H809L472 983Q472 1085 498.5 1180.0Q525 1275 573.5 1357.5Q622 1440 689.5 1507.5Q757 1575 839.5 1623.5Q922 1672 1016.5 1698.5Q1111 1725 1214 1725H1589Q1691 1725 1786.0 1698.5Q1881 1672 1963.5 1623.5Q2046 1575 2113.5 1507.5Q2181 1440 2229.5 1357.5Q2278 1275 2304.5 1180.0Q2331 1085 2331 983Z" style="fill:#ca0b4a;stroke:none" transform="scale(1,-1) translate(0,-256)" /></svg>