<?xml version="1.0" encoding="utf-8" ?>
<svg baseProfile="full" height="256" version="1.1" width="256" xmlns="http://www.w3.org/2000/svg" xmlns:ev="http://www.w3.org/2001/xml-events" xmlns:xlink="http://www.w3.org/1999/xlink"><defs /><path d="M2331 983 2070 -164Q2057 -222 2012.0 -258.0Q1967 -294 1907 -294H896Q836 -294 791.0 -258.0Q746 -222 733 -164L472 983H797Q838 983 863.5 958.0Q889 933 898 896Q907 861 915.5 829.0Q924 797 940 764Q972 697 1020.5 643.5Q1069 590 1129.0 552.5Q1189 515 1258.5 494.5Q1328 474 1402 474Q1476 474 1545.0 494.5Q1614 515 1674.0 552.5Q1734 590 1782.5 644.0Q1831 698 1863 764Q1879 797 1887.5 829.0Q1896 861 1905 896Q1914 933 1939.5 958.0Q1965 983 2006 983Z" style="fill:#f8312f;stroke:none" transform="scale(1,-1) translate(0,-256)" /></svg>