<?xml version="1.0" encoding="utf-8" ?>
<svg baseProfile="full" height="256" version="1.1" width="256" xmlns="http://www.w3.org/2000/svg" xmlns:ev="http://www.w3.org/2001/xml-events" xmlns:xlink="http://www.w3.org/1999/xlink"><defs /><path d="M1444 1609Q1469 1609 1486.5 1592.0Q1504 1575 1504 1550V858L1574 1409L1635 1460L1793 1439Q1815 1436 1830.0 1419.5Q1845 1403 1845 1381Q1845 1364 1841.5 1346.0Q1838 1328 1836 1311L1906 1360L2064 1339Q2087 1336 2101.5 1319.0Q2116 1302 2116 1279V1272L1957 56Q1954 33 1938.0 18.0Q1922 3 1899 3Q1884 3 1862.0 5.5Q1840 8 1816.5 11.5Q1793 15 1770.5 19.0Q1748 23 1732 25L1759 719L1686 155Q1683 133 1666.0 118.0Q1649 103 1627 103Q1612 103 1589.5 105.5Q1567 108 1542.5 112.0Q1518 116 1495.0 120.0Q1472 124 1456 126Q1458 115 1459.0 104.0Q1460 93 1460 82Q1460 59 1445.0 41.5Q1430 24 1407 22L1202 2L1190 105Q1182 100 1158.0 95.0Q1134 90 1106.0 85.5Q1078 81 1052.0 77.5Q1026 74 1015 72L757 1330L794 1400Q809 1403 832.0 1407.5Q855 1412 879.5 1416.5Q904 1421 926.5 1424.0Q949 1427 962 1427Q983 1427 999.5 1412.5Q1016 1398 1020 1377L1104 874L1060 1267L1101 1343L1246 1359L1240 1534L1284 1609H1444Z" style="fill:#fcd53f;stroke:none" transform="scale(1,-1) translate(0,-256)" /></svg>