<?xml version="1.0" encoding="utf-8" ?>
<svg baseProfile="full" height="256" version="1.1" width="256" xmlns="http://www.w3.org/2000/svg" xmlns:ev="http://www.w3.org/2001/xml-events" xmlns:xlink="http://www.w3.org/1999/xlink"><defs /><path d="M817 1437Q836 1437 853.5 1429.5Q871 1422 884.0 1409.5Q897 1397 904.5 1379.5Q912 1362 912 1343Q912 1323 904.5 1306.0Q897 1289 884.0 1276.0Q871 1263 853.5 1255.5Q836 1248 817 1248Q797 1248 780.0 1255.5Q763 1263 750.0 1276.0Q737 1289 729.5 1306.0Q722 1323 722 1343Q722 1362 729.5 1379.5Q737 1397 750.0 1409.5Q763 1422 780.0 1429.5Q797 1437 817 1437Z" style="fill:#d3d3d3;stroke:none" transform="scale(1,-1) translate(0,-256)" /></svg>