<?xml version="1.0" encoding="utf-8" ?>
<svg baseProfile="full" height="256" version="1.1" width="256" xmlns="http://www.w3.org/2000/svg" xmlns:ev="http://www.w3.org/2001/xml-events" xmlns:xlink="http://www.w3.org/1999/xlink"><defs /><path d="M965 713Q964 711 960.5 699.0Q957 687 953.0 673.5Q949 660 945.5 649.0Q942 638 942 638V-1H644Q630 -1 616.5 1.5Q603 4 592.5 10.5Q582 17 576.0 28.0Q570 39 570 56Q570 70 574.0 84.0Q578 98 583 112Q594 143 606.5 173.0Q619 203 631 234Q673 342 715.5 448.5Q758 555 800 663Q821 717 841.5 771.0Q862 825 885 877Q889 885 892.5 893.5Q896 902 901 910Q897 903 897 894Q897 885 906.0 859.0Q915 833 927.0 804.0Q939 775 950.0 749.0Q961 723 965 713Z" style="fill:#ffb02e;stroke:none" transform="scale(1,-1) translate(0,-256)" /></svg>