<?xml version="1.0" encoding="utf-8" ?>
<svg baseProfile="full" height="256" version="1.1" width="256" xmlns="http://www.w3.org/2000/svg" xmlns:ev="http://www.w3.org/2001/xml-events" xmlns:xlink="http://www.w3.org/1999/xlink"><defs /><path d="M2196 -287H616Q571 -287 532.0 -270.0Q493 -253 463.5 -223.5Q434 -194 417.0 -155.0Q400 -116 400 -71V503Q400 533 411.0 559.0Q422 585 441.5 604.5Q461 624 487.0 635.5Q513 647 543 647H2268Q2298 647 2324.0 635.5Q2350 624 2369.5 604.5Q2389 585 2400.5 559.0Q2412 533 2412 503V-71Q2412 -115 2395.0 -154.5Q2378 -194 2348.5 -223.5Q2319 -253 2279.5 -270.0Q2240 -287 2196 -287Z" style="fill:#608842;stroke:none" transform="scale(1,-1) translate(0,-256)" /></svg>