<?xml version="1.0" encoding="utf-8" ?>
<svg baseProfile="full" height="256" version="1.1" width="256" xmlns="http://www.w3.org/2000/svg" xmlns:ev="http://www.w3.org/2001/xml-events" xmlns:xlink="http://www.w3.org/1999/xlink"><defs /><path d="M570 56Q570 71 574.0 84.5Q578 98 583 112Q595 146 609.0 179.5Q623 213 636 247L737 501Q773 593 809.5 689.5Q846 786 885 877Q890 888 894.5 898.5Q899 909 905.0 917.5Q911 926 920.5 931.0Q930 936 944 936H1834Q1886 797 1940.0 660.5Q1994 524 2049 387Q2076 316 2105.5 246.5Q2135 177 2160 105Q2164 93 2167.0 81.5Q2170 70 2170 57Q2170 29 2154.0 14.0Q2138 -1 2110 -1H644Q630 -1 616.5 1.5Q603 4 592.5 10.5Q582 17 576.0 28.0Q570 39 570 56Z" style="fill:#f9c23c;stroke:none" transform="scale(1,-1) translate(0,-256)" /></svg>