<?xml version="1.0" encoding="utf-8" ?>
<svg baseProfile="full" height="256" version="1.1" width="256" xmlns="http://www.w3.org/2000/svg" xmlns:ev="http://www.w3.org/2001/xml-events" xmlns:xlink="http://www.w3.org/1999/xlink"><defs /><path d="M1544 719Q1620 719 1649 647Q1663 612 1676.0 576.5Q1689 541 1701 506Q1706 491 1706 479Q1706 453 1687.5 442.0Q1669 431 1646 431H1524Q1479 431 1455.0 447.5Q1431 464 1415 506Q1411 516 1403.0 539.0Q1395 562 1386.5 587.5Q1378 613 1372.0 635.5Q1366 658 1366 668Q1366 697 1386.5 708.0Q1407 719 1433 719Z" style="fill:#ff822d;stroke:none" transform="scale(1,-1) translate(0,-256)" /></svg>