<?xml version="1.0" encoding="utf-8" ?>
<svg baseProfile="full" height="256" version="1.1" width="256" xmlns="http://www.w3.org/2000/svg" xmlns:ev="http://www.w3.org/2001/xml-events" xmlns:xlink="http://www.w3.org/1999/xlink"><defs /><path d="M1942 1724Q1976 1724 2007.5 1714.0Q2039 1704 2065.5 1685.5Q2092 1667 2112.5 1641.0Q2133 1615 2145 1584Q2151 1567 2153.5 1552.5Q2156 1538 2158 1521Q2160 1511 2164.0 1502.5Q2168 1494 2178 1490Q2192 1484 2205.5 1480.0Q2219 1476 2233 1468Q2284 1439 2314.0 1389.0Q2344 1339 2344 1280Q2344 1276 2343.5 1267.5Q2343 1259 2342.0 1249.5Q2341 1240 2339.0 1231.5Q2337 1223 2335 1220V1219Q2330 1207 2330 1195Q2330 1182 2339 1172Q2357 1152 2371.5 1134.5Q2386 1117 2396.0 1098.0Q2406 1079 2411.0 1057.0Q2416 1035 2416 1006Q2416 962 2399.5 922.5Q2383 883 2354.0 853.5Q2325 824 2286.0 807.0Q2247 790 2202 790H1690Q1646 790 1607.5 807.5Q1569 825 1540.0 855.0Q1511 885 1494.5 924.0Q1478 963 1478 1006Q1478 1049 1490.5 1079.0Q1503 1109 1518.5 1130.5Q1534 1152 1546.5 1165.5Q1559 1179 1559 1189Q1559 1197 1557 1200V1202Q1550 1221 1546.0 1240.5Q1542 1260 1542 1280Q1542 1340 1573.0 1391.0Q1604 1442 1658 1470Q1672 1478 1686.5 1481.5Q1701 1485 1715 1491Q1721 1494 1723.0 1500.0Q1725 1506 1726 1512Q1728 1529 1730.0 1544.5Q1732 1560 1737 1577Q1748 1610 1768.5 1637.0Q1789 1664 1816.0 1683.5Q1843 1703 1875.0 1713.5Q1907 1724 1942 1724Z" style="fill:#96c34a;stroke:none" transform="scale(1,-1) translate(0,-256)" /></svg>