<?xml version="1.0" encoding="utf-8" ?>
<svg baseProfile="full" height="256" version="1.1" width="256" xmlns="http://www.w3.org/2000/svg" xmlns:ev="http://www.w3.org/2001/xml-events" xmlns:xlink="http://www.w3.org/1999/xlink"><defs /><path d="M939 1006H1873Q1887 1006 1898.0 995.5Q1909 985 1909 971Q1909 956 1898.5 945.5Q1888 935 1873 935H939Q924 935 913.5 945.5Q903 956 903 971Q903 985 914.0 995.5Q925 1006 939 1006ZM939 791Q924 791 913.5 780.5Q903 770 903 755Q903 740 913.5 729.5Q924 719 939 719H1873Q1888 719 1898.5 729.5Q1909 740 1909 755Q1909 770 1898.5 780.5Q1888 791 1873 791ZM903 539Q903 554 913.5 564.5Q924 575 939 575H1873Q1888 575 1898.5 564.5Q1909 554 1909 539Q1909 524 1898.5 513.5Q1888 503 1873 503H939Q924 503 913.5 513.5Q903 524 903 539ZM939 360Q925 360 914.0 349.0Q903 338 903 324Q903 309 913.5 298.5Q924 288 939 288H1514Q1529 288 1539.5 298.5Q1550 309 1550 324Q1550 338 1539.0 349.0Q1528 360 1514 360Z" style="fill:#998ea4;stroke:none" transform="scale(1,-1) translate(0,-256)" /></svg>