<?xml version="1.0" encoding="utf-8" ?>
<svg baseProfile="full" height="256" version="1.1" width="256" xmlns="http://www.w3.org/2000/svg" xmlns:ev="http://www.w3.org/2001/xml-events" xmlns:xlink="http://www.w3.org/1999/xlink"><defs /><path d="M1011 503Q944 503 885.0 528.5Q826 554 782.0 598.0Q738 642 712.5 701.0Q687 760 687 827Q687 894 712.5 952.5Q738 1011 782.0 1055.0Q826 1099 885.0 1124.5Q944 1150 1011 1150Q1078 1150 1136.5 1124.5Q1195 1099 1239.0 1055.0Q1283 1011 1308.5 952.5Q1334 894 1334 827Q1334 760 1308.5 701.0Q1283 642 1239.0 598.0Q1195 554 1136.5 528.5Q1078 503 1011 503ZM1801 503Q1734 503 1675.5 528.5Q1617 554 1573.0 598.0Q1529 642 1503.5 701.0Q1478 760 1478 827Q1478 894 1503.5 952.5Q1529 1011 1573.0 1055.0Q1617 1099 1675.5 1124.5Q1734 1150 1801 1150Q1868 1150 1927.0 1124.5Q1986 1099 2030.0 1055.0Q2074 1011 2099.5 952.5Q2125 894 2125 827Q2125 760 2099.5 701.0Q2074 642 2030.0 598.0Q1986 554 1927.0 528.5Q1868 503 1801 503Z" style="fill:#ffffff;stroke:none" transform="scale(1,-1) translate(0,-256)" /></svg>