<?xml version="1.0" encoding="utf-8" ?>
<svg baseProfile="full" height="256" version="1.1" width="256" xmlns="http://www.w3.org/2000/svg" xmlns:ev="http://www.w3.org/2001/xml-events" xmlns:xlink="http://www.w3.org/1999/xlink"><defs /><path d="M1190 144Q1190 189 1207.0 228.0Q1224 267 1253.5 296.5Q1283 326 1322.0 343.0Q1361 360 1406 360Q1451 360 1490.0 343.0Q1529 326 1558.5 296.5Q1588 267 1605.0 228.0Q1622 189 1622 144Q1622 99 1605.0 60.0Q1588 21 1558.5 -8.5Q1529 -38 1490.0 -55.0Q1451 -72 1406 -72Q1361 -72 1322.0 -55.0Q1283 -38 1253.5 -8.5Q1224 21 1207.0 60.0Q1190 99 1190 144Z" style="fill:#bb1d80;stroke:none" transform="scale(1,-1) translate(0,-256)" /></svg>