<?xml version="1.0" encoding="utf-8" ?>
<svg baseProfile="full" height="256" version="1.1" width="256" xmlns="http://www.w3.org/2000/svg" xmlns:ev="http://www.w3.org/2001/xml-events" xmlns:xlink="http://www.w3.org/1999/xlink"><defs /><path d="M1046 499V425Q1046 391 1044.5 348.0Q1043 305 1033.5 265.5Q1024 226 1003.5 194.5Q983 163 946 152Q937 149 920.5 147.5Q904 146 884.5 145.5Q865 145 843.0 144.5Q821 144 802 144H750Q735 144 720.5 144.5Q706 145 691 147L670 235Q726 234 780.5 232.5Q835 231 891 231Q916 231 929.5 248.0Q943 265 949.5 289.0Q956 313 957.0 338.5Q958 364 958 381V413H692L720 692H960V797H726V844Q700 832 673.0 821.0Q646 810 618 801L566 878Q619 895 670.0 915.0Q721 935 769 963Q746 983 719.0 1000.0Q692 1017 665 1033L659 1036L708 1103Q744 1081 778.5 1058.0Q813 1035 845 1008Q882 1033 917.5 1060.0Q953 1087 983 1120H692V1206H1105V1128L1102 1125Q1035 1049 964.0 990.5Q893 932 804 883H1046V608H801L788 499ZM1069 645Q1104 667 1126.5 692.0Q1149 717 1162.5 746.5Q1176 776 1181.0 809.5Q1186 843 1186 883H1449Q1396 913 1351.5 948.5Q1307 984 1268.5 1024.5Q1230 1065 1197.0 1111.0Q1164 1157 1134 1210L1215 1244Q1233 1214 1251.5 1185.0Q1270 1156 1293 1130Q1321 1153 1343.5 1179.5Q1366 1206 1392 1231L1471 1195Q1417 1124 1351 1066Q1365 1051 1381.0 1036.5Q1397 1022 1414 1010Q1449 1036 1482.5 1063.5Q1516 1091 1543 1125L1615 1078Q1586 1046 1555.5 1016.5Q1525 987 1491 961Q1533 936 1577.5 917.0Q1622 898 1667 881L1626 804Q1588 815 1552.0 830.5Q1516 846 1481 865V709Q1481 703 1485.5 701.5Q1490 700 1495 700H1620V614H1474Q1447 614 1431.0 624.0Q1415 634 1406.5 650.0Q1398 666 1395.0 686.5Q1392 707 1392 729Q1392 747 1393.0 764.5Q1394 782 1394 797H1267Q1264 766 1255.0 735.0Q1246 704 1230.0 675.5Q1214 647 1192.0 623.5Q1170 600 1142 585ZM1444 350Q1501 318 1554.5 279.5Q1608 241 1659 199L1599 133Q1545 175 1491.0 215.0Q1437 255 1380 291Q1317 242 1249.0 204.5Q1181 167 1109 135L1045 204Q1116 227 1180.5 261.5Q1245 296 1305 340L1108 457L1137 491H1097V579H1572Q1554 516 1521.0 457.5Q1488 399 1444 350ZM1220 491Q1298 447 1373 398Q1413 440 1442 491Z" style="fill:#b4acbc;stroke:none" transform="scale(1,-1) translate(0,-256)" /></svg>