<?xml version="1.0" encoding="utf-8" ?>
<svg baseProfile="full" height="256" version="1.1" width="256" xmlns="http://www.w3.org/2000/svg" xmlns:ev="http://www.w3.org/2001/xml-events" xmlns:xlink="http://www.w3.org/1999/xlink"><defs /><path d="M1730 1654Q1744 1654 1755.0 1643.0Q1766 1632 1766 1618Q1766 1603 1755 1592Q1749 1586 1740.0 1575.5Q1731 1565 1721.0 1555.0Q1711 1545 1700.0 1537.5Q1689 1530 1679 1530Q1664 1530 1653.0 1540.5Q1642 1551 1642 1566Q1642 1576 1649.5 1587.0Q1657 1598 1667.0 1608.5Q1677 1619 1687.5 1628.0Q1698 1637 1704 1643Q1715 1654 1730 1654ZM1083 1150H1011Q996 1150 985.5 1160.5Q975 1171 975 1186Q975 1201 985.5 1211.5Q996 1222 1011 1222H1083Q1098 1222 1108.0 1211.5Q1118 1201 1118 1186Q1118 1171 1108.0 1160.5Q1098 1150 1083 1150ZM1169 1566Q1169 1551 1159.0 1540.0Q1149 1529 1133 1529Q1119 1529 1108 1540L1057 1592Q1046 1603 1046 1617Q1046 1632 1057.0 1642.5Q1068 1653 1082 1653Q1092 1653 1103.5 1645.5Q1115 1638 1125.0 1628.5Q1135 1619 1144.0 1608.5Q1153 1598 1159 1592Q1169 1582 1169 1566ZM2269 683Q2269 668 2258.0 657.0Q2247 646 2233 646Q2218 646 2207 657Q2201 663 2190.5 672.0Q2180 681 2170.0 691.0Q2160 701 2152.5 712.0Q2145 723 2145 734Q2145 748 2156.0 759.0Q2167 770 2181 770Q2196 770 2207 759Q2212 754 2222.5 745.0Q2233 736 2243.5 725.5Q2254 715 2261.5 704.0Q2269 693 2269 683ZM558 1099Q573 1099 584.0 1110.0Q595 1121 595 1135Q595 1150 584 1161Q578 1167 569.0 1177.5Q560 1188 550.0 1197.5Q540 1207 529.0 1214.5Q518 1222 508 1222Q493 1222 482.0 1212.0Q471 1202 471 1186Q471 1176 478.5 1165.0Q486 1154 496.0 1144.0Q506 1134 516.5 1125.0Q527 1116 533 1110Q544 1099 558 1099ZM1980 1402Q1980 1417 1990.5 1427.5Q2001 1438 2016 1438Q2032 1438 2042 1428Q2048 1422 2058.5 1413.0Q2069 1404 2078.5 1394.0Q2088 1384 2095.5 1372.5Q2103 1361 2103 1351Q2103 1337 2092.5 1326.0Q2082 1315 2067 1315Q2053 1315 2042 1326Q2036 1332 2025.5 1341.0Q2015 1350 2005.0 1360.0Q1995 1370 1987.5 1381.0Q1980 1392 1980 1402ZM666 230Q666 246 655.5 256.0Q645 266 630 266Q620 266 609.0 258.5Q598 251 588.0 241.5Q578 232 569.0 221.5Q560 211 554 205Q543 194 543 179Q543 165 554.0 154.0Q565 143 579 143Q589 143 600.5 150.5Q612 158 622.0 168.0Q632 178 641.0 188.5Q650 199 656 205Q666 215 666 230ZM867 863Q882 863 892.5 852.5Q903 842 903 827Q903 817 895.5 806.0Q888 795 878.5 785.0Q869 775 858.5 766.0Q848 757 842 751Q831 740 816 740Q802 740 791.0 751.0Q780 762 780 776Q780 791 791 802Q797 808 806.0 818.5Q815 829 825.0 838.5Q835 848 846.0 855.5Q857 863 867 863ZM1801 144H1729Q1714 144 1703.5 133.5Q1693 123 1693 108Q1693 93 1703.5 82.5Q1714 72 1729 72H1801Q1816 72 1826.5 82.5Q1837 93 1837 108Q1837 123 1826.5 133.5Q1816 144 1801 144ZM1083 -72H1011Q996 -72 985.5 -61.5Q975 -51 975 -36Q975 -21 985.5 -10.5Q996 0 1011 0H1083Q1098 0 1108.0 -10.5Q1118 -21 1118 -36Q1118 -51 1108.0 -61.5Q1098 -72 1083 -72ZM1550 1078H1658Q1673 1078 1683.0 1067.5Q1693 1057 1693 1042Q1693 1027 1683.0 1016.5Q1673 1006 1658 1006H1550ZM1262 575V679L1183 759Q1172 770 1157 770Q1143 770 1132.0 759.0Q1121 748 1121 734Q1121 719 1132 708ZM1551 279 1681 412Q1692 423 1692 437Q1692 452 1681.0 462.5Q1670 473 1656 473Q1640 473 1630 463L1551 383Z" style="fill:#c3ef3c;stroke:none" transform="scale(1,-1) translate(0,-256)" /></svg>