<?xml version="1.0" encoding="utf-8" ?>
<svg baseProfile="full" height="256" version="1.1" width="256" xmlns="http://www.w3.org/2000/svg" xmlns:ev="http://www.w3.org/2001/xml-events" xmlns:xlink="http://www.w3.org/1999/xlink"><defs /><path d="M795 1344Q795 1353 802.0 1359.5Q809 1366 818 1366Q821 1366 833.5 1360.5Q846 1355 864.0 1347.0Q882 1339 902.5 1329.0Q923 1319 942.0 1310.0Q961 1301 975.0 1293.5Q989 1286 994 1284Q998 1283 998 1276Q998 1269 994 1268Q986 1264 959.5 1251.0Q933 1238 903.0 1223.5Q873 1209 847.5 1197.5Q822 1186 818 1186Q808 1186 801.5 1192.5Q795 1199 795 1208ZM1945 1344Q1945 1353 1952.0 1359.5Q1959 1366 1968 1366Q1971 1366 1983.5 1360.5Q1996 1355 2014.0 1347.0Q2032 1339 2052.5 1329.0Q2073 1319 2092.0 1310.0Q2111 1301 2125.0 1293.5Q2139 1286 2144 1284Q2148 1283 2148 1276Q2148 1269 2144 1268Q2136 1264 2109.5 1251.0Q2083 1238 2053.0 1223.5Q2023 1209 1997.5 1197.5Q1972 1186 1968 1186Q1958 1186 1951.5 1192.5Q1945 1199 1945 1208Z" style="fill:#26c9fc;stroke:none" transform="scale(1,-1) translate(0,-256)" /></svg>