<?xml version="1.0" encoding="utf-8" ?>
<svg baseProfile="full" height="256" version="1.1" width="256" xmlns="http://www.w3.org/2000/svg" xmlns:ev="http://www.w3.org/2001/xml-events" xmlns:xlink="http://www.w3.org/1999/xlink"><defs /><path d="M1618 1366Q1631 1366 1644.0 1365.5Q1657 1365 1668.0 1361.5Q1679 1358 1686.0 1349.0Q1693 1340 1693 1322V1048Q1693 1030 1687.0 1021.0Q1681 1012 1671.0 1009.0Q1661 1006 1648.0 1006.0Q1635 1006 1622 1006Q1662 1006 1677.5 992.0Q1693 978 1693 935V144H1118V935Q1118 978 1134.0 992.0Q1150 1006 1190 1006Q1176 1006 1163.5 1005.5Q1151 1005 1140.5 1008.5Q1130 1012 1124.0 1021.0Q1118 1030 1118 1048V1322Q1118 1340 1131.0 1353.0Q1144 1366 1162 1366H1194Q1211 1366 1219.5 1359.5Q1228 1353 1232.0 1343.0Q1236 1333 1238.0 1322.0Q1240 1311 1244.0 1301.0Q1248 1291 1256.5 1284.5Q1265 1278 1282 1278Q1294 1278 1305.5 1279.0Q1317 1280 1326.0 1284.5Q1335 1289 1340.5 1298.0Q1346 1307 1346 1322Q1347 1341 1358.5 1353.5Q1370 1366 1390 1366H1422Q1439 1366 1447.0 1359.5Q1455 1353 1459.5 1343.0Q1464 1333 1466.0 1322.0Q1468 1311 1472.0 1301.0Q1476 1291 1484.5 1284.5Q1493 1278 1510 1278Q1534 1278 1553.0 1285.0Q1572 1292 1574 1322Q1575 1341 1586.5 1353.5Q1598 1366 1618 1366Z" style="fill:#998ea4;stroke:none" transform="scale(1,-1) translate(0,-256)" /></svg>