<?xml version="1.0" encoding="utf-8" ?>
<svg baseProfile="full" height="256" version="1.1" width="256" xmlns="http://www.w3.org/2000/svg" xmlns:ev="http://www.w3.org/2001/xml-events" xmlns:xlink="http://www.w3.org/1999/xlink"><defs /><path d="M2412 489Q2412 294 2411.5 101.0Q2411 -92 2411 -287H1619L1404 -165L1189 -287H400V532Q400 549 408.5 558.0Q417 567 429.0 570.5Q441 574 455.0 574.5Q469 575 481 575Q499 575 512.5 563.0Q526 551 526 532Q526 517 532.0 508.5Q538 500 547.5 495.5Q557 491 569.0 490.0Q581 489 592 489Q609 489 618.0 495.5Q627 502 631.5 511.5Q636 521 638.0 532.0Q640 543 644.5 552.5Q649 562 657.5 568.5Q666 575 683 575H716Q734 575 747.5 563.0Q761 551 761 532Q761 517 767.0 508.0Q773 499 783.0 495.0Q793 491 805.0 490.0Q817 489 828 489Q853 489 861.0 502.5Q869 516 873.0 532.0Q877 548 885.0 561.5Q893 575 919 575H952Q970 575 983.5 563.0Q997 551 997 532Q997 517 1003.5 508.5Q1010 500 1020.0 495.5Q1030 491 1042.0 490.0Q1054 489 1065 489Q1090 489 1098.0 502.5Q1106 516 1110.0 532.0Q1114 548 1122.0 561.5Q1130 575 1156 575H1189Q1207 575 1220.5 563.0Q1234 551 1234 532Q1234 517 1240.0 508.5Q1246 500 1255.5 495.5Q1265 491 1277.0 490.0Q1289 489 1300 489Q1325 489 1333.0 502.5Q1341 516 1345.0 532.0Q1349 548 1357.0 561.5Q1365 575 1391 575H1426Q1444 575 1458.0 563.0Q1472 551 1472 532Q1472 517 1478.0 508.5Q1484 500 1493.5 495.5Q1503 491 1515.0 490.0Q1527 489 1538 489Q1555 489 1563.5 495.5Q1572 502 1576.5 511.5Q1581 521 1583.0 532.0Q1585 543 1589.5 552.5Q1594 562 1602.5 568.5Q1611 575 1628 575H1661Q1679 575 1693.0 563.0Q1707 551 1707 532Q1707 517 1713.0 508.5Q1719 500 1728.5 495.5Q1738 491 1750.0 490.0Q1762 489 1773 489Q1790 489 1798.5 495.5Q1807 502 1811.5 511.5Q1816 521 1818.0 532.0Q1820 543 1824.5 552.5Q1829 562 1837.5 568.5Q1846 575 1863 575H1896Q1916 575 1924.5 568.5Q1933 562 1936.0 552.5Q1939 543 1940.5 532.0Q1942 521 1948.0 511.5Q1954 502 1967.5 495.5Q1981 489 2008 489Q2025 489 2034.0 495.5Q2043 502 2047.5 511.5Q2052 521 2054.0 532.0Q2056 543 2060.5 552.5Q2065 562 2073.5 568.5Q2082 575 2099 575H2132Q2150 575 2163.5 563.0Q2177 551 2177 532Q2177 517 2183.0 508.5Q2189 500 2198.5 495.5Q2208 491 2220.0 490.0Q2232 489 2243 489Q2260 489 2269.0 495.5Q2278 502 2282.5 511.5Q2287 521 2289.0 532.0Q2291 543 2295.5 552.5Q2300 562 2308.5 568.5Q2317 575 2334 575H2367Q2386 575 2395.5 566.5Q2405 558 2409.0 545.0Q2413 532 2412.5 517.0Q2412 502 2412 489Z" style="fill:#b4acbc;stroke:none" transform="scale(1,-1) translate(0,-256)" /></svg>