<?xml version="1.0" encoding="utf-8" ?>
<svg baseProfile="full" height="256" version="1.1" width="256" xmlns="http://www.w3.org/2000/svg" xmlns:ev="http://www.w3.org/2001/xml-events" xmlns:xlink="http://www.w3.org/1999/xlink"><defs /><path d="M1602 1277H1213Q1201 1277 1192.5 1285.5Q1184 1294 1184 1306Q1184 1311 1197.0 1339.5Q1210 1368 1230.5 1409.5Q1251 1451 1275.0 1499.0Q1299 1547 1321.0 1590.5Q1343 1634 1360.0 1666.5Q1377 1699 1382 1709Q1390 1725 1407 1725Q1425 1725 1433 1709Q1438 1699 1455.0 1666.5Q1472 1634 1494.0 1590.5Q1516 1547 1540.0 1499.0Q1564 1451 1584.5 1409.5Q1605 1368 1618.0 1339.5Q1631 1311 1631 1306Q1631 1294 1622.5 1285.5Q1614 1277 1602 1277ZM1143 431H518Q501 431 486.5 441.0Q472 451 472 469Q472 473 484.5 501.0Q497 529 517.5 572.5Q538 616 564.5 671.0Q591 726 619.5 784.0Q648 842 676.0 899.0Q704 956 727.5 1003.5Q751 1051 767.5 1084.5Q784 1118 789 1129Q794 1140 807.0 1145.0Q820 1150 831 1150Q842 1150 855.0 1145.0Q868 1140 873 1129Q878 1118 894.5 1084.5Q911 1051 934.5 1003.5Q958 956 986.0 899.0Q1014 842 1042.5 784.0Q1071 726 1097.5 671.0Q1124 616 1144.5 572.5Q1165 529 1177.5 501.0Q1190 473 1190 469Q1190 451 1175.0 441.0Q1160 431 1143 431ZM1668 431H2293Q2310 431 2325.0 441.0Q2340 451 2340 469Q2340 473 2327.5 501.0Q2315 529 2294.5 572.5Q2274 616 2247.5 671.0Q2221 726 2192.5 784.0Q2164 842 2136.0 899.0Q2108 956 2084.5 1003.5Q2061 1051 2044.5 1084.5Q2028 1118 2023 1129Q2018 1140 2005.0 1145.0Q1992 1150 1981 1150Q1970 1150 1957.0 1145.0Q1944 1140 1939 1129Q1934 1118 1917.5 1084.5Q1901 1051 1877.5 1003.5Q1854 956 1826.0 899.0Q1798 842 1769.5 784.0Q1741 726 1714.5 671.0Q1688 616 1667.5 572.5Q1647 529 1634.5 501.0Q1622 473 1622 469Q1622 451 1636.5 441.0Q1651 431 1668 431Z" style="fill:#f8312f;stroke:none" transform="scale(1,-1) translate(0,-256)" /></svg>