<?xml version="1.0" encoding="utf-8" ?>
<svg baseProfile="full" height="256" version="1.1" width="256" xmlns="http://www.w3.org/2000/svg" xmlns:ev="http://www.w3.org/2001/xml-events" xmlns:xlink="http://www.w3.org/1999/xlink"><defs /><path d="M1880 1222Q1941 1222 1994.0 1204.5Q2047 1187 2089.5 1154.5Q2132 1122 2162.5 1075.5Q2193 1029 2209 970Q2220 927 2233.5 885.0Q2247 843 2259 800Q2283 712 2310.0 608.5Q2337 505 2359.5 398.0Q2382 291 2397.0 186.5Q2412 82 2412 -8Q2412 -36 2410.0 -66.0Q2408 -96 2400 -123Q2392 -150 2375.5 -174.0Q2359 -198 2338.0 -217.5Q2317 -237 2292.0 -253.0Q2267 -269 2242 -279Q2233 -283 2223.5 -284.0Q2214 -285 2205 -285Q2188 -285 2168.5 -280.0Q2149 -275 2135 -264L1774 41Q1756 56 1730.5 64.0Q1705 72 1682 72H1129Q1102 72 1080.5 64.0Q1059 56 1037 41Q1011 23 987.0 0.5Q963 -22 939 -42L759 -194Q740 -211 719.5 -230.5Q699 -250 678 -264Q661 -275 647.0 -281.0Q633 -287 611 -287Q592 -287 571 -279Q522 -259 489.0 -232.5Q456 -206 436.5 -172.5Q417 -139 408.5 -97.0Q400 -55 400 -4Q400 72 409.5 147.5Q419 223 433 298Q456 426 486.0 551.0Q516 676 551 801Q563 844 576.0 886.0Q589 928 600 970Q616 1028 646.5 1074.5Q677 1121 719.5 1154.0Q762 1187 815.0 1204.5Q868 1222 929 1222H1880Z" style="fill:#533566;stroke:none" transform="scale(1,-1) translate(0,-256)" /></svg>