<?xml version="1.0" encoding="utf-8" ?>
<svg baseProfile="full" height="256" version="1.1" width="256" xmlns="http://www.w3.org/2000/svg" xmlns:ev="http://www.w3.org/2001/xml-events" xmlns:xlink="http://www.w3.org/1999/xlink"><defs /><path d="M575 806Q575 844 583.0 884.0Q591 924 602 960Q630 1046 676.5 1109.0Q723 1172 786.0 1213.0Q849 1254 926.0 1274.0Q1003 1294 1092 1294L1231 1142ZM2206 806 1550 1142 1688 1294Q1777 1294 1854.5 1274.0Q1932 1254 1995.0 1213.0Q2058 1172 2104.5 1109.0Q2151 1046 2179 960Q2190 924 2198.0 884.0Q2206 844 2206 806Z" style="fill:#000000;stroke:none" transform="scale(1,-1) translate(0,-256)" /></svg>