<?xml version="1.0" encoding="utf-8" ?>
<svg baseProfile="full" height="256" version="1.1" width="256" xmlns="http://www.w3.org/2000/svg" xmlns:ev="http://www.w3.org/2001/xml-events" xmlns:xlink="http://www.w3.org/1999/xlink"><defs /><path d="M951 644Q919 644 891.0 656.5Q863 669 842.0 690.0Q821 711 809.0 739.0Q797 767 797 799Q797 831 809.0 859.0Q821 887 842.0 908.0Q863 929 891.0 941.0Q919 953 951 953Q983 953 1011.0 941.0Q1039 929 1060.0 908.0Q1081 887 1093.5 859.0Q1106 831 1106 799Q1106 767 1094.0 738.5Q1082 710 1061.0 689.0Q1040 668 1011.5 656.0Q983 644 951 644ZM1670 226Q1638 226 1610.0 238.0Q1582 250 1561.0 271.0Q1540 292 1527.5 320.0Q1515 348 1515 380Q1515 412 1527.5 440.0Q1540 468 1561.0 489.0Q1582 510 1610.0 522.5Q1638 535 1670 535Q1702 535 1730.0 522.5Q1758 510 1779.0 489.0Q1800 468 1812.5 440.0Q1825 412 1825 380Q1825 348 1812.5 320.0Q1800 292 1779.0 271.0Q1758 250 1730.0 238.0Q1702 226 1670 226ZM1355 385Q1355 369 1348.0 360.5Q1341 352 1330.5 348.5Q1320 345 1307.0 344.5Q1294 344 1283 344Q1264 344 1255.5 335.5Q1247 327 1244.0 314.5Q1241 302 1241.0 287.5Q1241 273 1238.0 260.5Q1235 248 1227.0 239.5Q1219 231 1200 231Q1184 231 1175.5 238.0Q1167 245 1163.0 256.0Q1159 267 1158.5 279.5Q1158 292 1158 304Q1158 323 1149.5 331.0Q1141 339 1128.5 342.0Q1116 345 1101.0 345.0Q1086 345 1073.5 348.0Q1061 351 1052.5 359.0Q1044 367 1044 386Q1044 402 1051.0 410.5Q1058 419 1069.0 423.0Q1080 427 1093.0 427.5Q1106 428 1117 428Q1136 428 1144.5 436.5Q1153 445 1156.0 457.5Q1159 470 1159.0 485.0Q1159 500 1162.0 512.5Q1165 525 1173.0 533.5Q1181 542 1200 542Q1216 542 1224.5 535.0Q1233 528 1237.0 517.0Q1241 506 1241.5 493.5Q1242 481 1242 469Q1242 450 1250.5 441.5Q1259 433 1271.5 430.0Q1284 427 1298.5 427.0Q1313 427 1325.5 424.0Q1338 421 1346.5 412.5Q1355 404 1355 385Z" style="fill:#a4aeeb;stroke:none" transform="scale(1,-1) translate(0,-256)" /></svg>