<?xml version="1.0" encoding="utf-8" ?>
<svg baseProfile="full" height="256" version="1.1" width="256" xmlns="http://www.w3.org/2000/svg" xmlns:ev="http://www.w3.org/2001/xml-events" xmlns:xlink="http://www.w3.org/1999/xlink"><defs /><path d="M1262 431H1406L1541 -39Q1545 -52 1545 -71Q1545 -79 1544.0 -86.5Q1543 -94 1541 -102L1491 -274Q1487 -287 1474 -287H1367Q1360 -287 1354.5 -282.0Q1349 -277 1349 -269Q1349 -254 1358.0 -227.0Q1367 -200 1377.5 -171.0Q1388 -142 1397.0 -114.5Q1406 -87 1406 -72Q1406 -69 1396.0 -33.0Q1386 3 1371.5 55.0Q1357 107 1339.0 168.0Q1321 229 1305.0 284.0Q1289 339 1277.0 379.5Q1265 420 1262 431ZM1714 -287H1821Q1835 -287 1838 -274L1978 216H1834Q1831 206 1820.0 167.0Q1809 128 1793.5 74.5Q1778 21 1761.0 -38.5Q1744 -98 1729.5 -148.5Q1715 -199 1705.5 -233.5Q1696 -268 1696 -270Q1696 -278 1701.0 -282.5Q1706 -287 1714 -287Z" style="fill:#9b9b9b;stroke:none" transform="scale(1,-1) translate(0,-256)" /></svg>