<?xml version="1.0" encoding="utf-8" ?>
<svg baseProfile="full" height="256" version="1.1" width="256" xmlns="http://www.w3.org/2000/svg" xmlns:ev="http://www.w3.org/2001/xml-events" xmlns:xlink="http://www.w3.org/1999/xlink"><defs /><path d="M843 1324 615 1294 402 1382 444 1703Q446 1720 459.0 1731.5Q472 1743 490 1743H495Q535 1738 572.5 1722.5Q610 1707 642.0 1683.0Q674 1659 699.5 1627.5Q725 1596 741 1559ZM1541 1233 1298 1186 1100 1290 1005 1473Q998 1487 994.0 1502.0Q990 1517 990 1532Q990 1558 1000.0 1581.5Q1010 1605 1027.0 1622.5Q1044 1640 1067.5 1650.0Q1091 1660 1117 1660Q1178 1660 1217 1615Z" style="fill:#0084ce;stroke:none" transform="scale(1,-1) translate(0,-256)" /></svg>