<?xml version="1.0" encoding="utf-8" ?>
<svg baseProfile="full" height="256" version="1.1" width="256" xmlns="http://www.w3.org/2000/svg" xmlns:ev="http://www.w3.org/2001/xml-events" xmlns:xlink="http://www.w3.org/1999/xlink"><defs /><path d="M1789 841Q1789 824 1781.0 809.0Q1773 794 1759 784L1043 286Q1010 262 969 262Q942 262 919.0 272.5Q896 283 878.5 301.0Q861 319 851.0 342.5Q841 366 841 392Q841 416 850.0 438.5Q859 461 875 478L1286 927Q1299 941 1316.5 949.5Q1334 958 1354 958Q1362 958 1366 957L1728 910Q1754 906 1771.5 886.5Q1789 867 1789 841Z" style="fill:#0084ce;stroke:none" transform="scale(1,-1) translate(0,-256)" /></svg>