<?xml version="1.0" encoding="utf-8" ?>
<svg baseProfile="full" height="256" version="1.1" width="256" xmlns="http://www.w3.org/2000/svg" xmlns:ev="http://www.w3.org/2001/xml-events" xmlns:xlink="http://www.w3.org/1999/xlink"><defs /><path d="M2211 1145Q2258 1139 2298.0 1116.5Q2338 1094 2366.5 1060.0Q2395 1026 2411.0 983.0Q2427 940 2427 893Q2427 840 2407.5 792.5Q2388 745 2354.5 709.0Q2321 673 2274.5 651.5Q2228 630 2174 630Q2166 630 2159.0 630.5Q2152 631 2144 632L775 811Q692 822 621.0 861.0Q550 900 498.5 959.0Q447 1018 417.5 1093.0Q388 1168 388 1252Q388 1285 392.5 1317.5Q397 1350 402 1382Z" style="fill:#cdc4d6;stroke:none" transform="scale(1,-1) translate(0,-256)" /></svg>