<?xml version="1.0" encoding="utf-8" ?>
<svg baseProfile="full" height="256" version="1.1" width="256" xmlns="http://www.w3.org/2000/svg" xmlns:ev="http://www.w3.org/2001/xml-events" xmlns:xlink="http://www.w3.org/1999/xlink"><defs /><path d="M1550 863 1239 432Q1216 400 1199.0 373.0Q1182 346 1165.5 320.0Q1149 294 1129.5 268.5Q1110 243 1083 216Q1056 189 1030.5 169.5Q1005 150 979.0 133.5Q953 117 925.5 100.0Q898 83 867 60L436 -251Q422 -237 417.5 -219.0Q413 -201 413 -182Q413 -141 428.0 -90.5Q443 -40 468.5 14.5Q494 69 526.5 124.5Q559 180 593.5 230.5Q628 281 662.5 323.0Q697 365 725 394L1372 1041Z" style="fill:#d3d3d3;stroke:none" transform="scale(1,-1) translate(0,-256)" /></svg>