<?xml version="1.0" encoding="utf-8" ?>
<svg baseProfile="full" height="256" version="1.1" width="256" xmlns="http://www.w3.org/2000/svg" xmlns:ev="http://www.w3.org/2001/xml-events" xmlns:xlink="http://www.w3.org/1999/xlink"><defs /><path d="M1244 1006Q1218 1006 1195.0 1016.0Q1172 1026 1155.0 1043.0Q1138 1060 1128.0 1083.0Q1118 1106 1118 1132Q1118 1158 1128.0 1181.0Q1138 1204 1155.0 1221.0Q1172 1238 1195.0 1248.0Q1218 1258 1244 1258Q1270 1258 1293.0 1248.0Q1316 1238 1333.0 1221.0Q1350 1204 1360.0 1181.0Q1370 1158 1370 1132Q1370 1106 1360.0 1083.0Q1350 1060 1333.0 1043.0Q1316 1026 1293.0 1016.0Q1270 1006 1244 1006ZM1819 431Q1793 431 1770.0 441.0Q1747 451 1730.0 468.0Q1713 485 1703.0 508.0Q1693 531 1693 557Q1693 583 1703.0 606.0Q1713 629 1730.0 646.0Q1747 663 1770.0 673.0Q1793 683 1819 683Q1845 683 1868.0 673.0Q1891 663 1908.0 646.0Q1925 629 1935.0 606.0Q1945 583 1945 557Q1945 531 1935.0 508.0Q1925 485 1908.0 468.0Q1891 451 1868.0 441.0Q1845 431 1819 431Z" style="fill:#f70a8d;stroke:none" transform="scale(1,-1) translate(0,-256)" /></svg>