<?xml version="1.0" encoding="utf-8" ?>
<svg baseProfile="full" height="256" version="1.1" width="256" xmlns="http://www.w3.org/2000/svg" xmlns:ev="http://www.w3.org/2001/xml-events" xmlns:xlink="http://www.w3.org/1999/xlink"><defs /><path d="M2412 1528Q2412 1490 2398.0 1455.5Q2384 1421 2360.0 1394.5Q2336 1368 2303.0 1351.0Q2270 1334 2232 1331L2018 1545Q2021 1583 2038.0 1616.0Q2055 1649 2081.5 1673.0Q2108 1697 2142.5 1711.0Q2177 1725 2215 1725Q2256 1725 2292.0 1709.5Q2328 1694 2354.5 1667.5Q2381 1641 2396.5 1605.0Q2412 1569 2412 1528ZM1442 1132Q1442 1121 1441.0 1111.5Q1440 1102 1438 1091L1778 751Q1789 753 1798.5 754.0Q1808 755 1819 755Q1860 755 1896.0 739.5Q1932 724 1959.0 697.0Q1986 670 2001.5 634.0Q2017 598 2017 557Q2017 516 2001.5 480.0Q1986 444 1959.0 417.5Q1932 391 1896.0 375.5Q1860 360 1819 360Q1778 360 1742.0 375.5Q1706 391 1679.5 417.5Q1653 444 1637.5 480.0Q1622 516 1622 557Q1622 568 1623.0 578.0Q1624 588 1626 598L1285 939Q1275 937 1265.0 936.0Q1255 935 1244 935Q1203 935 1167.0 950.5Q1131 966 1104.5 992.5Q1078 1019 1062.5 1055.0Q1047 1091 1047 1132Q1047 1173 1062.5 1209.0Q1078 1245 1104.5 1272.0Q1131 1299 1167.0 1314.5Q1203 1330 1244 1330Q1285 1330 1321.0 1314.5Q1357 1299 1384.0 1272.0Q1411 1245 1426.5 1209.0Q1442 1173 1442 1132Z" style="fill:#f9c23c;stroke:none" transform="scale(1,-1) translate(0,-256)" /></svg>