<?xml version="1.0" encoding="utf-8" ?>
<svg baseProfile="full" height="256" version="1.1" width="256" xmlns="http://www.w3.org/2000/svg" xmlns:ev="http://www.w3.org/2001/xml-events" xmlns:xlink="http://www.w3.org/1999/xlink"><defs /><path d="M1693 755Q1642 755 1596.0 775.0Q1550 795 1516.0 829.0Q1482 863 1462.0 909.0Q1442 955 1442 1006Q1442 1057 1461.5 1102.5Q1481 1148 1516 1184L1803 1472Q1838 1508 1884.5 1528.0Q1931 1548 1982 1548Q1991 1548 2000.0 1546.5Q2009 1545 2018 1545L2197 1546L2232 1331Q2235 1313 2235 1294Q2235 1243 2214.5 1197.0Q2194 1151 2159 1116L1871 829Q1835 794 1789.5 774.5Q1744 755 1693 755Z" style="fill:#7d4533;stroke:none" transform="scale(1,-1) translate(0,-256)" /></svg>