<?xml version="1.0" encoding="utf-8" ?>
<svg baseProfile="full" height="256" version="1.1" width="256" xmlns="http://www.w3.org/2000/svg" xmlns:ev="http://www.w3.org/2001/xml-events" xmlns:xlink="http://www.w3.org/1999/xlink"><defs /><path d="M1732 1046Q1759 1046 1782.5 1036.0Q1806 1026 1824.0 1008.0Q1842 990 1852.0 966.5Q1862 943 1862 916V418Q1862 397 1854.0 378.5Q1846 360 1832.0 345.5Q1818 331 1799.5 322.5Q1781 314 1760 314Q1715 314 1684.5 344.5Q1654 375 1654 420V754Q1654 768 1644.5 777.5Q1635 787 1621 787Q1610 787 1603.0 782.5Q1596 778 1592.5 770.5Q1589 763 1588.0 754.0Q1587 745 1587 736Q1587 728 1587.5 720.0Q1588 712 1588 704Q1588 683 1580.0 664.0Q1572 645 1558.5 631.0Q1545 617 1526.0 608.5Q1507 600 1486 600Q1464 600 1444.5 608.5Q1425 617 1411.0 631.5Q1397 646 1388.5 665.5Q1380 685 1380 707V762Q1380 772 1372.5 779.5Q1365 787 1355 787H1144Q1130 787 1120.5 777.5Q1111 768 1111 754V585Q1111 540 1080.5 509.5Q1050 479 1005 479Q984 479 965.0 487.5Q946 496 932.5 510.0Q919 524 911.0 543.0Q903 562 903 583V916Q903 943 913.0 966.5Q923 990 941.0 1008.0Q959 1026 982.5 1036.0Q1006 1046 1033 1046H1732Z" style="fill:#ffce7c;stroke:none" transform="scale(1,-1) translate(0,-256)" /></svg>