<?xml version="1.0" encoding="utf-8" ?>
<svg baseProfile="full" height="256" version="1.1" width="256" xmlns="http://www.w3.org/2000/svg" xmlns:ev="http://www.w3.org/2001/xml-events" xmlns:xlink="http://www.w3.org/1999/xlink"><defs /><path d="M1667 -287H1098Q1077 -287 1058.5 -279.0Q1040 -271 1026.5 -257.5Q1013 -244 1005.0 -225.5Q997 -207 997 -186V757Q997 778 1005.0 796.5Q1013 815 1026.5 829.0Q1040 843 1058.5 851.0Q1077 859 1098 859H1667Q1688 859 1706.5 851.0Q1725 843 1738.5 829.0Q1752 815 1760.0 796.5Q1768 778 1768 757V-186Q1768 -207 1760.0 -225.5Q1752 -244 1738.5 -257.5Q1725 -271 1706.5 -279.0Q1688 -287 1667 -287Z" style="fill:#ffdea7;stroke:none" transform="scale(1,-1) translate(0,-256)" /></svg>