<?xml version="1.0" encoding="utf-8" ?>
<svg baseProfile="full" height="256" version="1.1" width="256" xmlns="http://www.w3.org/2000/svg" xmlns:ev="http://www.w3.org/2001/xml-events" xmlns:xlink="http://www.w3.org/1999/xlink"><defs /><path d="M1382 1220Q1357 1220 1335.5 1229.5Q1314 1239 1298.0 1255.0Q1282 1271 1272.5 1292.5Q1263 1314 1263 1339Q1263 1364 1272.5 1385.5Q1282 1407 1298.0 1423.5Q1314 1440 1335.5 1449.5Q1357 1459 1382 1459Q1407 1459 1428.5 1449.5Q1450 1440 1466.5 1423.5Q1483 1407 1492.5 1385.5Q1502 1364 1502 1339Q1502 1314 1492.5 1292.5Q1483 1271 1466.5 1255.0Q1450 1239 1428.5 1229.5Q1407 1220 1382 1220Z" style="fill:#fcd53f;stroke:none" transform="scale(1,-1) translate(0,-256)" /></svg>