<?xml version="1.0" encoding="utf-8" ?>
<svg baseProfile="full" height="256" version="1.1" width="256" xmlns="http://www.w3.org/2000/svg" xmlns:ev="http://www.w3.org/2001/xml-events" xmlns:xlink="http://www.w3.org/1999/xlink"><defs /><path d="M1382 1725Q1399 1725 1413.0 1717.0Q1427 1709 1435 1695L1568 1469Q1584 1443 1592.5 1413.5Q1601 1384 1601 1353Q1601 1306 1583.5 1266.0Q1566 1226 1536.0 1197.0Q1506 1168 1465.5 1151.0Q1425 1134 1379 1134Q1334 1134 1295.0 1152.0Q1256 1170 1226.5 1200.5Q1197 1231 1180.5 1271.0Q1164 1311 1164 1355Q1164 1385 1172.5 1413.5Q1181 1442 1196 1468L1329 1695Q1337 1709 1351.5 1717.0Q1366 1725 1382 1725Z" style="fill:#ffb02e;stroke:none" transform="scale(1,-1) translate(0,-256)" /></svg>