<?xml version="1.0" encoding="utf-8" ?>
<svg baseProfile="full" height="256" version="1.1" width="256" xmlns="http://www.w3.org/2000/svg" xmlns:ev="http://www.w3.org/2001/xml-events" xmlns:xlink="http://www.w3.org/1999/xlink"><defs /><path d="M834 794Q834 817 849.5 832.5Q865 848 888 848Q910 848 926 832L1063 694Q1068 689 1077 689Q1089 689 1097 698Q1097 698 1119.5 720.0Q1142 742 1178.0 778.0Q1214 814 1260.5 860.5Q1307 907 1356.5 956.5Q1406 1006 1454.5 1054.0Q1503 1102 1542.5 1142.0Q1582 1182 1609.5 1209.5Q1637 1237 1644 1244Q1665 1265 1694 1265Q1724 1265 1745 1244L1859 1130Q1881 1108 1881 1079Q1881 1065 1875.0 1052.5Q1869 1040 1859 1029L1314 483Q1304 473 1304 461Q1304 454 1323.5 432.5Q1343 411 1368.0 386.5Q1393 362 1416.0 340.0Q1439 318 1447 311Q1463 295 1463 273Q1463 251 1447.5 234.5Q1432 218 1409 218L885 216Q862 216 846.5 231.5Q831 247 831 270Z" style="fill:#ffffff;stroke:none" transform="scale(1,-1) translate(0,-256)" /></svg>