<?xml version="1.0" encoding="utf-8" ?>
<svg baseProfile="full" height="256" version="1.1" width="256" xmlns="http://www.w3.org/2000/svg" xmlns:ev="http://www.w3.org/2001/xml-events" xmlns:xlink="http://www.w3.org/1999/xlink"><defs /><path d="M400 1438Q400 1497 422.5 1549.5Q445 1602 484.0 1641.0Q523 1680 575.5 1702.5Q628 1725 687 1725H2125Q2184 1725 2236.5 1702.5Q2289 1680 2328.0 1641.0Q2367 1602 2389.5 1549.5Q2412 1497 2412 1438V0Q2412 -78 2373.5 -144.0Q2335 -210 2268 -249Q2221 -233 2174.5 -217.0Q2128 -201 2077 -201Q2044 -201 2013.0 -209.0Q1982 -217 1952.5 -229.5Q1923 -242 1894.0 -257.0Q1865 -272 1837 -287H1622L1406 -179L1190 -287H975Q946 -272 917.5 -257.0Q889 -242 859.5 -229.5Q830 -217 799.0 -209.0Q768 -201 735 -201Q684 -201 637.0 -217.0Q590 -233 543 -249Q477 -210 438.5 -143.5Q400 -77 400 0Z" style="fill:#e1d8ec;stroke:none" transform="scale(1,-1) translate(0,-256)" /></svg>