<?xml version="1.0" encoding="utf-8" ?>
<svg baseProfile="full" height="256" version="1.1" width="256" xmlns="http://www.w3.org/2000/svg" xmlns:ev="http://www.w3.org/2001/xml-events" xmlns:xlink="http://www.w3.org/1999/xlink"><defs /><path d="M1200 1397H1325L1416 1180Q1418 1175 1419.0 1171.0Q1420 1167 1420 1162Q1420 1150 1415.0 1138.5Q1410 1127 1402 1118L1120 788H1093Q1084 788 1078.0 794.0Q1072 800 1072 809Q1072 815 1080.5 857.0Q1089 899 1102.0 959.5Q1115 1020 1131.0 1090.5Q1147 1161 1161.0 1224.5Q1175 1288 1186.0 1335.5Q1197 1383 1200 1397Z" style="fill:#cdc4d6;stroke:none" transform="scale(1,-1) translate(0,-256)" /></svg>