<?xml version="1.0" encoding="utf-8" ?>
<svg baseProfile="full" height="256" version="1.1" width="256" xmlns="http://www.w3.org/2000/svg" xmlns:ev="http://www.w3.org/2001/xml-events" xmlns:xlink="http://www.w3.org/1999/xlink"><defs /><path d="M1925 1725Q1962 1725 1994.5 1711.0Q2027 1697 2051.0 1673.0Q2075 1649 2089.0 1616.5Q2103 1584 2103 1547V344Q2103 307 2089.0 275.0Q2075 243 2051.0 219.0Q2027 195 1994.5 181.0Q1962 167 1925 167H937Q900 167 867.5 181.0Q835 195 811.0 219.0Q787 243 773.0 275.0Q759 307 759 344V1547Q759 1584 773.0 1616.5Q787 1649 811.0 1673.0Q835 1697 867.5 1711.0Q900 1725 937 1725H1925Z" style="fill:#f92f60;stroke:none" transform="scale(1,-1) translate(0,-256)" /></svg>