<?xml version="1.0" encoding="utf-8" ?>
<svg baseProfile="full" height="256" version="1.1" width="256" xmlns="http://www.w3.org/2000/svg" xmlns:ev="http://www.w3.org/2001/xml-events" xmlns:xlink="http://www.w3.org/1999/xlink"><defs /><path d="M1564 1397H1689L1562 814Q1560 803 1553.5 797.5Q1547 792 1539.0 790.0Q1531 788 1521.5 788.0Q1512 788 1503 788L1377 1089Q1391 1105 1405.5 1122.0Q1420 1139 1420 1162Q1420 1174 1414.5 1186.0Q1409 1198 1404 1209ZM1174 1397H1299L1390 1180Q1394 1172 1394 1161Q1394 1149 1389.0 1138.0Q1384 1127 1376 1118L1094 788H1067Q1058 788 1052.0 794.0Q1046 800 1046 809Q1046 815 1054.5 857.0Q1063 899 1076.0 959.5Q1089 1020 1105.0 1090.5Q1121 1161 1135.0 1224.5Q1149 1288 1160.0 1335.5Q1171 1383 1174 1397Z" style="fill:#f3eef8;stroke:none" transform="scale(1,-1) translate(0,-256)" /></svg>