<?xml version="1.0" encoding="utf-8" ?>
<svg baseProfile="full" height="256" version="1.1" width="256" xmlns="http://www.w3.org/2000/svg" xmlns:ev="http://www.w3.org/2001/xml-events" xmlns:xlink="http://www.w3.org/1999/xlink"><defs /><path d="M1191 1431 1360 1600Q1410 1550 1433.0 1496.0Q1456 1442 1465 1373Q1465 1371 1466 1371Q1473 1307 1502.5 1279.0Q1532 1251 1595 1243Q1664 1234 1718.0 1211.0Q1772 1188 1822 1138Q1872 1088 1896.0 1033.0Q1920 978 1928 909Q1930 894 1931.5 882.5Q1933 871 1937.0 860.5Q1941 850 1947.5 840.0Q1954 830 1965 819Q1987 797 2007.0 791.0Q2027 785 2056 781Q2125 773 2179.5 749.5Q2234 726 2284 675L2115 507Q2093 529 2073.0 534.5Q2053 540 2024 544Q1954 553 1900.5 576.0Q1847 599 1796 650Q1745 701 1722.0 754.0Q1699 807 1691 877Q1690 877 1690 877V878Q1687 908 1681.0 927.5Q1675 947 1653 969Q1637 985 1616.5 992.5Q1596 1000 1571.5 1004.5Q1547 1009 1519.5 1014.0Q1492 1019 1462.0 1029.5Q1432 1040 1400.0 1059.0Q1368 1078 1334 1112Q1284 1162 1260.0 1217.0Q1236 1272 1228 1341Q1224 1370 1218.5 1389.5Q1213 1409 1191 1431ZM527 764 696 933Q722 907 740.0 881.5Q758 856 770.0 828.0Q782 800 789.0 769.5Q796 739 801 704Q803 689 804.5 677.0Q806 665 810.0 655.0Q814 645 820.5 635.0Q827 625 839 614Q850 603 860.0 596.0Q870 589 880.5 585.5Q891 582 903.5 580.0Q916 578 931 576Q1073 558 1159.5 472.0Q1246 386 1263 244Q1264 244 1264 242Q1266 227 1267.5 215.5Q1269 204 1273.0 193.5Q1277 183 1283.5 173.0Q1290 163 1301 152Q1312 141 1322.0 134.0Q1332 127 1342.5 123.5Q1353 120 1365.0 118.0Q1377 116 1392 114Q1462 105 1515.5 82.0Q1569 59 1620 8L1451 -160Q1434 -144 1413.5 -136.5Q1393 -129 1369.0 -124.5Q1345 -120 1317.5 -115.0Q1290 -110 1260.0 -99.5Q1230 -89 1198.0 -70.0Q1166 -51 1132 -17Q1083 32 1058.5 87.0Q1034 142 1026 211Q1023 240 1017.0 260.0Q1011 280 989 302Q973 318 952.5 325.5Q932 333 907.5 337.5Q883 342 855.5 347.0Q828 352 797.5 362.5Q767 373 735.0 392.5Q703 412 670 445Q644 471 626.0 497.0Q608 523 596.0 550.5Q584 578 576.5 608.0Q569 638 564 674Q560 703 554.5 722.5Q549 742 527 764Z" style="fill:#ffdea7;stroke:none" transform="scale(1,-1) translate(0,-256)" /></svg>