<?xml version="1.0" encoding="utf-8" ?>
<svg baseProfile="full" height="256" version="1.1" width="256" xmlns="http://www.w3.org/2000/svg" xmlns:ev="http://www.w3.org/2001/xml-events" xmlns:xlink="http://www.w3.org/1999/xlink"><defs /><path d="M1406 10Q1408 43 1418.5 75.0Q1429 107 1448 135L1668 465Q1686 492 1686 525Q1686 537 1683 549L1499 1366H1851Q1898 1366 1940.0 1352.5Q1982 1339 2017.5 1314.0Q2053 1289 2080.5 1254.5Q2108 1220 2125 1177Q2130 1163 2149.0 1118.5Q2168 1074 2192.5 1013.5Q2217 953 2244.5 886.5Q2272 820 2295.0 762.5Q2318 705 2333.0 665.5Q2348 626 2348 621Q2348 602 2334.5 589.0Q2321 576 2302 576Q2290 576 2277.5 579.5Q2265 583 2254.0 586.5Q2243 590 2235.5 593.5Q2228 597 2226 597Q2218 597 2218 590Q2218 588 2221.5 580.5Q2225 573 2229.0 561.5Q2233 550 2236.5 536.5Q2240 523 2240 510Q2240 464 2214 426L1937 31Q1915 0 1895.0 -32.0Q1875 -64 1859 -98Q1849 -120 1831.5 -132.0Q1814 -144 1790 -144Q1772 -144 1759.0 -136.5Q1746 -129 1736.5 -120.5Q1727 -112 1721.5 -104.5Q1716 -97 1714 -97Q1711 -97 1705.5 -104.5Q1700 -112 1691.0 -120.5Q1682 -129 1668.5 -136.5Q1655 -144 1637 -144Q1619 -144 1605.5 -136.5Q1592 -129 1583.0 -120.5Q1574 -112 1568.5 -104.5Q1563 -97 1560 -97Q1557 -97 1551.5 -104.5Q1546 -112 1537.0 -120.5Q1528 -129 1515.0 -136.5Q1502 -144 1483 -144Q1453 -144 1430.5 -122.5Q1408 -101 1406 -71Q1404 -101 1381.5 -122.5Q1359 -144 1329 -144Q1311 -144 1297.5 -136.5Q1284 -129 1275.0 -120.5Q1266 -112 1260.5 -104.5Q1255 -97 1252 -97Q1249 -97 1243.5 -104.5Q1238 -112 1229.0 -120.5Q1220 -129 1206.5 -136.5Q1193 -144 1175 -144Q1157 -144 1143.5 -136.5Q1130 -129 1121.0 -120.5Q1112 -112 1106.5 -104.5Q1101 -97 1098 -97Q1095 -97 1089.5 -104.5Q1084 -112 1075.0 -120.5Q1066 -129 1052.5 -136.5Q1039 -144 1021 -144Q998 -144 980.0 -131.5Q962 -119 952 -99Q935 -65 916.0 -33.5Q897 -2 875 30L598 426Q572 463 572 509Q572 522 575.5 535.5Q579 549 583.0 560.5Q587 572 590.5 580.0Q594 588 594 590Q594 597 587 597Q585 597 577.5 593.5Q570 590 559.0 586.0Q548 582 535.0 578.5Q522 575 510 575Q491 575 477.5 588.0Q464 601 464 620Q464 624 472.5 648.0Q481 672 495.5 708.5Q510 745 528.5 791.0Q547 837 567.0 886.0Q587 935 606.5 982.5Q626 1030 642.5 1070.0Q659 1110 671.0 1138.5Q683 1167 687 1177Q722 1263 795.0 1314.5Q868 1366 962 1366H1313L1129 549Q1127 544 1127.0 538.0Q1127 532 1127 527Q1127 492 1145 465L1365 135Q1384 107 1394.0 75.0Q1404 43 1406 10Z" style="fill:#ff822d;stroke:none" transform="scale(1,-1) translate(0,-256)" /></svg>