<?xml version="1.0" encoding="utf-8" ?>
<svg baseProfile="full" height="256" version="1.1" width="256" xmlns="http://www.w3.org/2000/svg" xmlns:ev="http://www.w3.org/2001/xml-events" xmlns:xlink="http://www.w3.org/1999/xlink"><defs /><path d="M1178 1075Q1149 1084 1125.0 1101.0Q1101 1118 1083.5 1141.5Q1066 1165 1056.5 1193.5Q1047 1222 1047 1252Q1047 1291 1061.5 1324.5Q1076 1358 1100.5 1383.5Q1125 1409 1158.5 1423.5Q1192 1438 1231 1438H1580Q1618 1438 1652.0 1423.5Q1686 1409 1711.0 1384.0Q1736 1359 1750.5 1325.0Q1765 1291 1765 1253Q1765 1223 1755.5 1194.5Q1746 1166 1728.5 1142.5Q1711 1119 1687.0 1101.5Q1663 1084 1634 1075Q1646 1051 1651.5 1024.5Q1657 998 1657 971Q1657 919 1637.5 873.0Q1618 827 1584.0 793.0Q1550 759 1504.0 739.5Q1458 720 1406 720Q1354 720 1308.0 739.5Q1262 759 1228.0 793.0Q1194 827 1174.5 873.0Q1155 919 1155 971Q1155 1026 1178 1075Z" style="fill:#636363;stroke:none" transform="scale(1,-1) translate(0,-256)" /></svg>