<?xml version="1.0" encoding="utf-8" ?>
<svg baseProfile="full" height="256" version="1.1" width="256" xmlns="http://www.w3.org/2000/svg" xmlns:ev="http://www.w3.org/2001/xml-events" xmlns:xlink="http://www.w3.org/1999/xlink"><defs /><path d="M1274 743H1537Q1562 743 1584.0 733.5Q1606 724 1622.5 708.0Q1639 692 1648.5 670.0Q1658 648 1658 623Q1658 598 1648.5 576.0Q1639 554 1622.5 538.0Q1606 522 1584.0 512.5Q1562 503 1537 503H1274Q1249 503 1227.5 512.5Q1206 522 1189.5 538.5Q1173 555 1163.5 576.5Q1154 598 1154 623Q1154 648 1163.5 669.5Q1173 691 1189.5 707.5Q1206 724 1227.5 733.5Q1249 743 1274 743ZM770 2H472Q442 2 421.0 -20.0Q400 -42 400 -71Q400 -101 421.0 -122.0Q442 -143 472 -144Q472 -166 472.0 -191.0Q472 -216 478.5 -237.5Q485 -259 501.0 -273.0Q517 -287 549 -287H770Q800 -287 826.0 -276.0Q852 -265 871.5 -245.5Q891 -226 902.5 -199.5Q914 -173 914 -143Q914 -113 902.5 -86.5Q891 -60 871.5 -40.5Q852 -21 826.0 -9.5Q800 2 770 2ZM2340 2H2042Q2012 2 1985.5 -9.5Q1959 -21 1939.5 -40.5Q1920 -60 1909.0 -86.5Q1898 -113 1898 -143Q1898 -173 1909.0 -199.5Q1920 -226 1939.5 -245.5Q1959 -265 1985.5 -276.0Q2012 -287 2042 -287H2263Q2295 -287 2311.0 -273.0Q2327 -259 2333.5 -237.5Q2340 -216 2340.0 -191.0Q2340 -166 2340 -144Q2370 -143 2391.0 -122.0Q2412 -101 2412 -71Q2412 -42 2391.0 -20.0Q2370 2 2340 2ZM1033 -287Q1063 -287 1089 -266Q1093 -278 1104.0 -283.0Q1115 -288 1128.0 -289.0Q1141 -290 1154.5 -288.5Q1168 -287 1177 -287Q1209 -287 1233 -266Q1236 -278 1247.0 -283.0Q1258 -288 1271.5 -288.5Q1285 -289 1298.5 -288.0Q1312 -287 1320 -287Q1338 -287 1353.5 -280.5Q1369 -274 1380.5 -262.5Q1392 -251 1399.0 -235.5Q1406 -220 1406 -202Q1406 -220 1413.0 -235.5Q1420 -251 1431.5 -262.5Q1443 -274 1458.5 -280.5Q1474 -287 1492 -287H1552Q1562 -287 1569.5 -281.0Q1577 -275 1579 -266Q1605 -287 1634.5 -287.0Q1664 -287 1696 -287Q1706 -287 1713.5 -281.0Q1721 -275 1723 -266Q1748 -287 1778.5 -287.0Q1809 -287 1839 -287Q1850 -287 1859.0 -279.0Q1868 -271 1868 -259V-71H945V-259Q945 -274 955.5 -280.5Q966 -287 980.5 -288.5Q995 -290 1009.5 -288.5Q1024 -287 1033 -287Z" style="fill:#636363;stroke:none" transform="scale(1,-1) translate(0,-256)" /></svg>