<?xml version="1.0" encoding="utf-8" ?>
<svg baseProfile="full" height="256" version="1.1" width="256" xmlns="http://www.w3.org/2000/svg" xmlns:ev="http://www.w3.org/2001/xml-events" xmlns:xlink="http://www.w3.org/1999/xlink"><defs /><path d="M1481 1581H1608Q1670 1581 1725.0 1557.5Q1780 1534 1821.0 1493.0Q1862 1452 1885.5 1397.0Q1909 1342 1909 1280Q1909 1225 1890.0 1175.5Q1871 1126 1838.0 1086.0Q1805 1046 1759.0 1019.0Q1713 992 1659 983V710Q1659 675 1634.5 650.5Q1610 626 1575 626Q1540 626 1515.5 650.5Q1491 675 1491 710Q1491 675 1466.5 650.5Q1442 626 1407 626Q1372 626 1347.5 650.5Q1323 675 1323 710Q1323 675 1298.0 650.5Q1273 626 1238 626Q1203 626 1178.5 650.5Q1154 675 1154 710H1156V983Q1102 992 1055.5 1018.5Q1009 1045 975.0 1085.0Q941 1125 922.0 1175.0Q903 1225 903 1280Q903 1342 926.5 1397.0Q950 1452 991.0 1493.0Q1032 1534 1087.0 1557.5Q1142 1581 1204 1581H1330Q1322 1589 1315.5 1597.0Q1309 1605 1309 1617Q1309 1632 1319.5 1642.5Q1330 1653 1345 1653Q1354 1653 1362.5 1648.0Q1371 1643 1379.0 1636.0Q1387 1629 1393.5 1621.5Q1400 1614 1406 1608Q1417 1620 1432.5 1636.5Q1448 1653 1465 1653Q1480 1653 1491.0 1642.5Q1502 1632 1502 1617Q1502 1606 1495.5 1597.5Q1489 1589 1481 1581Z" style="fill:#ff6723;stroke:none" transform="scale(1,-1) translate(0,-256)" /></svg>