<?xml version="1.0" encoding="utf-8" ?>
<svg baseProfile="full" height="256" version="1.1" width="256" xmlns="http://www.w3.org/2000/svg" xmlns:ev="http://www.w3.org/2001/xml-events" xmlns:xlink="http://www.w3.org/1999/xlink"><defs /><path d="M413 178Q399 212 399 247Q399 285 413.5 318.5Q428 352 453.5 377.0Q479 402 512.5 416.5Q546 431 584 431H887L1112 -131Q1120 -153 1120 -174Q1120 -198 1111.0 -218.5Q1102 -239 1086.5 -254.0Q1071 -269 1050.5 -278.0Q1030 -287 1006 -287H600ZM2212 -287H1825Q1799 -287 1775.5 -277.0Q1752 -267 1735.0 -250.0Q1718 -233 1708.0 -209.5Q1698 -186 1698 -160Q1698 -136 1707 -113L1925 431H2227Q2265 431 2299.0 416.5Q2333 402 2358.0 377.0Q2383 352 2397.5 318.0Q2412 284 2412 246Q2412 210 2399 178Z" style="fill:#ff6723;stroke:none" transform="scale(1,-1) translate(0,-256)" /></svg>