<?xml version="1.0" encoding="utf-8" ?>
<svg baseProfile="full" height="256" version="1.1" width="256" xmlns="http://www.w3.org/2000/svg" xmlns:ev="http://www.w3.org/2001/xml-events" xmlns:xlink="http://www.w3.org/1999/xlink"><defs /><path d="M1118 288Q999 288 894.5 333.5Q790 379 712.0 457.0Q634 535 588.5 639.5Q543 744 543 863Q543 982 588.5 1086.5Q634 1191 712.0 1269.0Q790 1347 894.5 1392.5Q999 1438 1118 1438Q1237 1438 1341.5 1392.5Q1446 1347 1524.0 1269.0Q1602 1191 1647.5 1086.5Q1693 982 1693 863Q1693 744 1648.0 639.0Q1603 534 1525.0 456.0Q1447 378 1342.0 333.0Q1237 288 1118 288Z" style="fill:#f9c23c;stroke:none" transform="scale(1,-1) translate(0,-256)" /></svg>