<?xml version="1.0" encoding="utf-8" ?>
<svg baseProfile="full" height="256" version="1.1" width="256" xmlns="http://www.w3.org/2000/svg" xmlns:ev="http://www.w3.org/2001/xml-events" xmlns:xlink="http://www.w3.org/1999/xlink"><defs /><path d="M1122 1582Q1159 1582 1182.5 1572.0Q1206 1562 1222.0 1546.5Q1238 1531 1249.5 1513.0Q1261 1495 1273.0 1479.5Q1285 1464 1300.5 1454.0Q1316 1444 1341 1444Q1359 1444 1373.5 1450.5Q1388 1457 1403.0 1464.5Q1418 1472 1435.5 1478.5Q1453 1485 1477 1485Q1505 1485 1531.0 1474.0Q1557 1463 1576.5 1444.5Q1596 1426 1607.5 1400.5Q1619 1375 1619 1346Q1619 1327 1614.0 1309.5Q1609 1292 1609 1273Q1609 1248 1618.0 1232.0Q1627 1216 1641.5 1206.5Q1656 1197 1675.0 1192.0Q1694 1187 1714 1184Q1740 1180 1762.5 1168.0Q1785 1156 1801.5 1137.5Q1818 1119 1827.5 1095.0Q1837 1071 1837 1044Q1837 1005 1822.0 982.0Q1807 959 1789.5 941.5Q1772 924 1757.0 906.0Q1742 888 1742 860Q1742 831 1756.5 813.5Q1771 796 1789.0 778.5Q1807 761 1821.5 738.5Q1836 716 1836 677Q1836 622 1800.5 583.5Q1765 545 1711 537Q1691 534 1672.0 529.0Q1653 524 1638.0 514.0Q1623 504 1614.0 488.0Q1605 472 1605 447Q1605 430 1609.5 412.5Q1614 395 1614 377Q1614 348 1602.5 322.5Q1591 297 1571.5 278.0Q1552 259 1526.5 248.0Q1501 237 1472 237Q1448 237 1430.5 243.5Q1413 250 1398.0 258.5Q1383 267 1368.5 273.5Q1354 280 1336 280Q1311 280 1295.5 270.0Q1280 260 1267.5 245.0Q1255 230 1243.5 212.0Q1232 194 1215.5 179.0Q1199 164 1175.5 154.0Q1152 144 1116 144Q1079 144 1055.5 154.0Q1032 164 1015.5 179.5Q999 195 987.5 213.0Q976 231 964.0 246.5Q952 262 936.0 272.0Q920 282 896 282Q879 282 864.5 275.5Q850 269 834.5 261.0Q819 253 801.5 246.5Q784 240 761 240Q732 240 706.0 251.0Q680 262 660.5 280.5Q641 299 629.5 324.5Q618 350 618 379Q618 398 623.0 416.5Q628 435 628 454Q628 478 619.0 493.5Q610 509 595.0 519.0Q580 529 561.0 533.5Q542 538 523 541Q496 545 473.5 557.0Q451 569 434.5 587.5Q418 606 409.0 630.0Q400 654 400 681Q400 720 414.5 743.0Q429 766 447.0 783.5Q465 801 479.5 818.5Q494 836 494 865Q494 894 479.5 911.5Q465 929 447.5 946.5Q430 964 415.5 987.0Q401 1010 401 1049Q401 1104 436.5 1142.5Q472 1181 526 1189Q546 1192 565.0 1196.5Q584 1201 598.5 1211.0Q613 1221 622.0 1236.5Q631 1252 631 1277Q631 1295 626.5 1313.0Q622 1331 622 1349Q622 1378 633.5 1403.5Q645 1429 664.5 1447.5Q684 1466 709.5 1477.0Q735 1488 764 1488Q788 1488 806.0 1481.5Q824 1475 839.5 1466.5Q855 1458 869.5 1451.5Q884 1445 902 1445Q926 1445 941.5 1455.0Q957 1465 969.5 1480.5Q982 1496 993.5 1513.5Q1005 1531 1021.5 1546.5Q1038 1562 1061.5 1572.0Q1085 1582 1122 1582Z" style="fill:#ff822d;stroke:none" transform="scale(1,-1) translate(0,-256)" /></svg>