<?xml version="1.0" encoding="utf-8" ?>
<svg baseProfile="full" height="256" version="1.1" width="256" xmlns="http://www.w3.org/2000/svg" xmlns:ev="http://www.w3.org/2001/xml-events" xmlns:xlink="http://www.w3.org/1999/xlink"><defs /><path d="M1766 1006Q1855 1006 1937.5 983.0Q2020 960 2091.5 918.0Q2163 876 2222.5 816.5Q2282 757 2324.0 685.5Q2366 614 2389.0 531.5Q2412 449 2412 360Q2412 274 2390.0 192.5Q2368 111 2328.0 39.0Q2288 -33 2231.0 -93.0Q2174 -153 2105.0 -196.0Q2036 -239 1955.5 -263.0Q1875 -287 1787 -287H874Q776 -287 690.0 -249.5Q604 -212 539.5 -147.5Q475 -83 437.5 3.0Q400 89 400 187Q400 283 436.5 368.0Q473 453 536.0 516.5Q599 580 684.0 616.5Q769 653 865 653Q870 653 873 652Q891 691 918.0 722.5Q945 754 979.5 776.0Q1014 798 1054.0 810.0Q1094 822 1137 822Q1175 822 1211.0 813.0Q1247 804 1279 785Q1373 891 1498.0 948.5Q1623 1006 1766 1006Z" style="fill:#f3eef8;stroke:none" transform="scale(1,-1) translate(0,-256)" /></svg>