<?xml version="1.0" encoding="utf-8" ?>
<svg baseProfile="full" height="256" version="1.1" width="256" xmlns="http://www.w3.org/2000/svg" xmlns:ev="http://www.w3.org/2001/xml-events" xmlns:xlink="http://www.w3.org/1999/xlink"><defs /><path d="M1765 1078Q1864 1078 1956.0 1052.5Q2048 1027 2128.0 980.5Q2208 934 2273.5 868.5Q2339 803 2386.0 723.0Q2433 643 2458.5 551.0Q2484 459 2484 360Q2484 264 2459.5 173.0Q2435 82 2390.0 2.5Q2345 -77 2282.0 -143.5Q2219 -210 2141.5 -258.0Q2064 -306 1974.5 -332.5Q1885 -359 1787 -359H874Q762 -359 663.0 -315.5Q564 -272 489.5 -198.0Q415 -124 371.5 -24.5Q328 75 328 187Q328 269 352.0 345.5Q376 422 420.0 487.5Q464 553 526.0 603.5Q588 654 664 685Q712 705 761 714Q778 718 795.5 718.0Q813 718 830 723Q866 734 904.0 747.0Q942 760 977 774Q1002 784 1006.0 786.5Q1010 789 1009.0 790.5Q1008 792 1012.0 794.5Q1016 797 1042 806Q1060 812 1067.0 814.0Q1074 816 1076.5 815.5Q1079 815 1078.5 814.0Q1078 813 1080.0 812.5Q1082 812 1089.5 813.5Q1097 815 1115 821Q1152 832 1188.5 845.5Q1225 859 1262 872Q1363 972 1493.0 1025.0Q1623 1078 1765 1078Z" style="fill:#b4acbc;stroke:none" transform="scale(1,-1) translate(0,-256)" /></svg>