<?xml version="1.0" encoding="utf-8" ?>
<svg baseProfile="full" height="256" version="1.1" width="256" xmlns="http://www.w3.org/2000/svg" xmlns:ev="http://www.w3.org/2001/xml-events" xmlns:xlink="http://www.w3.org/1999/xlink"><defs /><path d="M1405 1510Q1509 1510 1600.5 1470.5Q1692 1431 1760.5 1362.5Q1829 1294 1868.5 1202.0Q1908 1110 1908 1006Q1908 993 1912.0 983.5Q1916 974 1923 963Q1954 917 1978.0 872.0Q2002 827 2018.5 779.5Q2035 732 2043.5 681.5Q2052 631 2052 575Q2052 486 2029.0 403.0Q2006 320 1963.5 248.5Q1921 177 1862.0 118.0Q1803 59 1731.5 16.5Q1660 -26 1577.0 -49.0Q1494 -72 1405 -72Q1316 -72 1233.0 -49.0Q1150 -26 1078.5 16.5Q1007 59 948.0 118.0Q889 177 846.5 248.5Q804 320 781.0 403.0Q758 486 758 575Q758 660 779.5 741.0Q801 822 843 895Q854 913 865.5 929.5Q877 946 888 963Q902 983 902 1006Q902 1109 941.5 1201.0Q981 1293 1049.5 1361.5Q1118 1430 1209.5 1470.0Q1301 1510 1405 1510Z" style="fill:#fcd53f;stroke:none" transform="scale(1,-1) translate(0,-256)" /></svg>