<?xml version="1.0" encoding="utf-8" ?>
<svg baseProfile="full" height="256" version="1.1" width="256" xmlns="http://www.w3.org/2000/svg" xmlns:ev="http://www.w3.org/2001/xml-events" xmlns:xlink="http://www.w3.org/1999/xlink"><defs /><path d="M1080 825Q1080 726 1042.5 639.0Q1005 552 939.5 487.5Q874 423 787.0 386.0Q700 349 601 349Q578 349 544.0 351.5Q510 354 478.0 364.0Q446 374 423.5 392.0Q401 410 401 442Q401 472 422 493L1007 1078Q1043 1021 1061.5 956.5Q1080 892 1080 825ZM1731 824Q1731 891 1749.5 956.0Q1768 1021 1804 1078L2389 493Q2411 471 2411 442Q2411 417 2398.0 400.5Q2385 384 2363 375Q2328 361 2287.5 354.5Q2247 348 2210 348Q2111 348 2024.0 385.0Q1937 422 1872.0 486.5Q1807 551 1769.0 638.0Q1731 725 1731 824Z" style="fill:#f9c23c;stroke:none" transform="scale(1,-1) translate(0,-256)" /></svg>