<?xml version="1.0" encoding="utf-8" ?>
<svg baseProfile="full" height="256" version="1.1" width="256" xmlns="http://www.w3.org/2000/svg" xmlns:ev="http://www.w3.org/2001/xml-events" xmlns:xlink="http://www.w3.org/1999/xlink"><defs /><path d="M1280 -179H1532L1530 252H1638L1640 -179Q1670 -179 1701.5 -178.5Q1733 -178 1760.0 -184.5Q1787 -191 1807.5 -209.5Q1828 -228 1836 -266L1837 -270Q1837 -278 1831.5 -282.5Q1826 -287 1819 -287H992Q985 -287 979.5 -282.5Q974 -278 974 -271V-266Q977 -247 987.0 -231.0Q997 -215 1011.5 -203.5Q1026 -192 1044.0 -185.5Q1062 -179 1080 -179H1172L1171 252H1279Z" style="fill:#ff822d;stroke:none" transform="scale(1,-1) translate(0,-256)" /></svg>