<?xml version="1.0" encoding="utf-8" ?>
<svg baseProfile="full" height="256" version="1.1" width="256" xmlns="http://www.w3.org/2000/svg" xmlns:ev="http://www.w3.org/2001/xml-events" xmlns:xlink="http://www.w3.org/1999/xlink"><defs /><path d="M1190 1114Q1190 1099 1179.5 1088.5Q1169 1078 1154 1078Q1140 1078 1129.0 1089.0Q1118 1100 1118 1114Q1118 1128 1129.0 1139.0Q1140 1150 1154 1150Q1169 1150 1179.5 1139.5Q1190 1129 1190 1114ZM1693 1114Q1693 1100 1682.5 1089.0Q1672 1078 1658 1078Q1643 1078 1632.5 1088.5Q1622 1099 1622 1114Q1622 1129 1632.5 1139.5Q1643 1150 1658 1150Q1672 1150 1682.5 1139.0Q1693 1128 1693 1114Z" style="fill:#212121;stroke:none" transform="scale(1,-1) translate(0,-256)" /></svg>