<?xml version="1.0" encoding="utf-8" ?>
<svg baseProfile="full" height="256" version="1.1" width="256" xmlns="http://www.w3.org/2000/svg" xmlns:ev="http://www.w3.org/2001/xml-events" xmlns:xlink="http://www.w3.org/1999/xlink"><defs /><path d="M1406 1725Q1467 1725 1521.0 1700.0Q1575 1675 1614 1628L2313 793Q2361 736 2386.5 668.0Q2412 600 2412 525Q2412 436 2378.5 358.5Q2345 281 2287.5 223.0Q2230 165 2152.0 132.0Q2074 99 1986 99Q1923 99 1864.0 116.5Q1805 134 1754.5 166.0Q1704 198 1663.5 244.5Q1623 291 1597 348L1551 449V221Q1551 162 1572.5 113.0Q1594 64 1630.5 27.5Q1667 -9 1717.0 -30.5Q1767 -52 1824 -55Q1849 -56 1871.5 -64.0Q1894 -72 1910.5 -87.0Q1927 -102 1937.0 -123.0Q1947 -144 1947 -171Q1947 -195 1937.5 -216.5Q1928 -238 1912.0 -253.5Q1896 -269 1874.5 -278.0Q1853 -287 1829 -287H983Q959 -287 937.5 -278.0Q916 -269 900.5 -253.0Q885 -237 875.5 -216.0Q866 -195 866 -171Q866 -144 876.0 -122.5Q886 -101 902.5 -86.5Q919 -72 941.5 -64.0Q964 -56 989 -55Q1046 -52 1095.5 -30.5Q1145 -9 1182.0 27.5Q1219 64 1240.5 113.5Q1262 163 1262 221V449Q1239 397 1216 348Q1190 291 1149.0 245.0Q1108 199 1057.5 166.5Q1007 134 948.0 116.5Q889 99 827 99Q738 99 660.5 132.0Q583 165 525.0 223.0Q467 281 433.5 358.5Q400 436 400 525Q400 600 425.5 668.0Q451 736 499 793L1197 1628Q1236 1675 1290.5 1700.0Q1345 1725 1406 1725Z" style="fill:#635994;stroke:none" transform="scale(1,-1) translate(0,-256)" /></svg>