<?xml version="1.0" encoding="utf-8" ?>
<svg baseProfile="full" height="256" version="1.1" width="256" xmlns="http://www.w3.org/2000/svg" xmlns:ev="http://www.w3.org/2001/xml-events" xmlns:xlink="http://www.w3.org/1999/xlink"><defs /><path d="M1198 1090Q1262 1045 1298.0 975.0Q1334 905 1334 827Q1334 760 1308.5 701.0Q1283 642 1239.0 598.0Q1195 554 1136.5 528.5Q1078 503 1011 503Q944 503 885.0 528.5Q826 554 782.0 598.0Q738 642 712.5 701.0Q687 760 687 827Q687 886 708.5 940.5Q730 995 768 1040Q851 1006 939 1006Q1010 1006 1075.5 1027.0Q1141 1048 1198 1090ZM2044 1040Q2082 995 2103.5 940.5Q2125 886 2125 827Q2125 760 2099.5 701.0Q2074 642 2030.0 598.0Q1986 554 1927.0 528.5Q1868 503 1801 503Q1734 503 1675.5 528.5Q1617 554 1573.0 598.0Q1529 642 1503.5 701.0Q1478 760 1478 827Q1478 905 1514.0 975.0Q1550 1045 1614 1090Q1671 1048 1736.5 1027.0Q1802 1006 1873 1006Q1961 1006 2044 1040Z" style="fill:#ffffff;stroke:none" transform="scale(1,-1) translate(0,-256)" /></svg>