<?xml version="1.0" encoding="utf-8" ?>
<svg baseProfile="full" height="256" version="1.1" width="256" xmlns="http://www.w3.org/2000/svg" xmlns:ev="http://www.w3.org/2001/xml-events" xmlns:xlink="http://www.w3.org/1999/xlink"><defs /><path d="M687 1258Q687 1273 697.5 1283.5Q708 1294 723 1294Q770 1294 816.5 1306.5Q863 1319 899 1351Q931 1379 947.0 1412.0Q963 1445 976 1483Q980 1494 988.5 1502.0Q997 1510 1010 1510Q1024 1510 1035.5 1499.5Q1047 1489 1047 1474Q1047 1470 1045 1464Q1013 1344 930.5 1283.0Q848 1222 723 1222Q708 1222 697.5 1232.5Q687 1243 687 1258ZM2125 1258Q2125 1243 2114.5 1232.5Q2104 1222 2089 1222Q1964 1222 1881.5 1283.0Q1799 1344 1767 1464Q1765 1470 1765 1474Q1765 1489 1776.5 1499.5Q1788 1510 1802 1510Q1815 1510 1823.5 1502.0Q1832 1494 1836 1483Q1849 1445 1865.0 1412.0Q1881 1379 1913 1351Q1949 1319 1995.0 1306.5Q2041 1294 2089 1294Q2104 1294 2114.5 1283.5Q2125 1273 2125 1258Z" style="fill:#402a32;stroke:none" transform="scale(1,-1) translate(0,-256)" /></svg>