<?xml version="1.0" encoding="utf-8" ?>
<svg baseProfile="full" height="256" version="1.1" width="256" xmlns="http://www.w3.org/2000/svg" xmlns:ev="http://www.w3.org/2001/xml-events" xmlns:xlink="http://www.w3.org/1999/xlink"><defs /><path d="M328 539Q328 576 342.0 609.0Q356 642 380.5 666.5Q405 691 438.0 705.0Q471 719 508 719Q545 719 577.5 705.0Q610 691 634.5 666.5Q659 642 673.0 609.0Q687 576 687 539V252Q687 215 673.0 182.0Q659 149 634.5 124.5Q610 100 577.5 86.0Q545 72 508 72Q471 72 438.0 86.0Q405 100 380.5 124.5Q356 149 342.0 182.0Q328 215 328 252Z" style="fill:#3f5fff;stroke:none" transform="scale(1,-1) translate(0,-256)" /></svg>