<?xml version="1.0" encoding="utf-8" ?>
<svg baseProfile="full" height="256" version="1.1" width="256" xmlns="http://www.w3.org/2000/svg" xmlns:ev="http://www.w3.org/2001/xml-events" xmlns:xlink="http://www.w3.org/1999/xlink"><defs /><path d="M1818 1205Q1818 1192 1809.0 1187.5Q1800 1183 1786.0 1182.5Q1772 1182 1756.5 1184.0Q1741 1186 1727.0 1185.5Q1713 1185 1704.0 1181.0Q1695 1177 1695 1164Q1695 1153 1708.5 1140.0Q1722 1127 1738.5 1113.5Q1755 1100 1769.0 1087.0Q1783 1074 1783 1063Q1783 1055 1776 1048L1421 704L1066 1048Q1059 1055 1059 1063Q1059 1074 1072.5 1087.0Q1086 1100 1102.5 1113.0Q1119 1126 1132.5 1139.0Q1146 1152 1146 1163Q1146 1175 1137.0 1179.5Q1128 1184 1114.5 1184.5Q1101 1185 1085.0 1183.5Q1069 1182 1055.5 1182.5Q1042 1183 1033.0 1187.5Q1024 1192 1024 1204Q1024 1208 1029.0 1228.5Q1034 1249 1040.5 1273.5Q1047 1298 1052.5 1320.0Q1058 1342 1060 1349Q1070 1388 1103.0 1413.0Q1136 1438 1176 1438L1420 838L1665 1438Q1707 1438 1738.0 1413.0Q1769 1388 1780 1349Q1781 1343 1787.5 1321.0Q1794 1299 1800.5 1274.0Q1807 1249 1812.5 1228.5Q1818 1208 1818 1205ZM903 144H1262V155Q1262 183 1239.0 199.5Q1216 216 1190 216H975Q962 216 949.5 212.0Q937 208 926.5 200.0Q916 192 909.5 180.5Q903 169 903 155ZM1909 144H1550V155Q1550 183 1572.5 199.5Q1595 216 1621 216H1837Q1863 216 1886.0 199.5Q1909 183 1909 155ZM1648 399H1811Q1832 399 1849.5 407.0Q1867 415 1880.5 429.0Q1894 443 1901.5 461.5Q1909 480 1909 500V719H1550V500Q1550 480 1557.5 461.5Q1565 443 1578.5 429.0Q1592 415 1609.5 407.0Q1627 399 1648 399Z" style="fill:#d3d3d3;stroke:none" transform="scale(1,-1) translate(0,-256)" /></svg>