<?xml version="1.0" encoding="utf-8" ?>
<svg baseProfile="full" height="256" version="1.1" width="256" xmlns="http://www.w3.org/2000/svg" xmlns:ev="http://www.w3.org/2001/xml-events" xmlns:xlink="http://www.w3.org/1999/xlink"><defs /><path d="M1757 1510Q1797 1510 1837.5 1499.0Q1878 1488 1914.0 1467.5Q1950 1447 1979.0 1417.5Q2008 1388 2027 1352L2496 449Q2514 414 2514 375Q2514 330 2491.0 292.0Q2468 254 2428 233L2264 148Q2229 130 2190 130Q2148 130 2112.0 150.5Q2076 171 2054 207V-200Q2054 -233 2041.0 -262.0Q2028 -291 2006.5 -312.5Q1985 -334 1956.0 -346.5Q1927 -359 1894 -359H920Q887 -359 858.0 -346.5Q829 -334 807.0 -313.0Q785 -292 772.5 -263.0Q760 -234 760 -201V172Q738 152 710.0 141.0Q682 130 653 130Q613 130 579 148H578L414 233Q374 254 351.0 292.0Q328 330 328 375Q328 414 346 449L799 1320Q807 1336 814.5 1351.0Q822 1366 833 1381Q876 1441 942.5 1475.5Q1009 1510 1084 1510Z" style="fill:#9b9b9b;stroke:none" transform="scale(1,-1) translate(0,-256)" /></svg>