<?xml version="1.0" encoding="utf-8" ?>
<svg baseProfile="full" height="256" version="1.1" width="256" xmlns="http://www.w3.org/2000/svg" xmlns:ev="http://www.w3.org/2001/xml-events" xmlns:xlink="http://www.w3.org/1999/xlink"><defs /><path d="M2442 375Q2442 350 2429.5 329.0Q2417 308 2395 297L2231 212Q2212 202 2190 202Q2166 202 2144.5 214.5Q2123 227 2112 249L1982 492V-200Q1982 -236 1956.0 -261.5Q1930 -287 1894 -287H920Q884 -287 858.0 -262.5Q832 -238 832 -201V441L730 249Q719 227 698.5 214.5Q678 202 653 202Q631 202 612 212L447 297Q425 308 412.5 329.5Q400 351 400 375Q400 397 410 416L864 1290Q871 1302 876.5 1314.0Q882 1326 890 1337Q923 1385 974.5 1411.5Q1026 1438 1084 1438H1757Q1788 1438 1818.5 1429.5Q1849 1421 1876.5 1405.5Q1904 1390 1926.5 1368.0Q1949 1346 1964 1318L2432 416Q2442 397 2442 375Z" style="fill:#ffffff;stroke:none" transform="scale(1,-1) translate(0,-256)" /></svg>