<?xml version="1.0" encoding="utf-8" ?>
<svg baseProfile="full" height="256" version="1.1" width="256" xmlns="http://www.w3.org/2000/svg" xmlns:ev="http://www.w3.org/2001/xml-events" xmlns:xlink="http://www.w3.org/1999/xlink"><defs /><path d="M1011 935Q967 935 942.0 923.5Q917 912 900.0 898.5Q883 885 868.5 874.0Q854 863 831 863Q802 863 780.5 884.0Q759 905 759 934Q759 962 780 985Q829 1036 885.5 1057.0Q942 1078 1011 1078Q1080 1078 1136.5 1057.0Q1193 1036 1241 985Q1262 962 1262 934Q1262 905 1241.0 884.0Q1220 863 1190 863Q1168 863 1153.5 874.0Q1139 885 1122.0 898.5Q1105 912 1079.5 923.5Q1054 935 1011 935ZM1801 935Q1757 935 1732.0 923.5Q1707 912 1690.0 898.5Q1673 885 1658.0 874.0Q1643 863 1621 863Q1592 863 1571.0 884.0Q1550 905 1550 934Q1550 962 1571 985Q1619 1036 1675.5 1057.0Q1732 1078 1801 1078Q1870 1078 1926.5 1057.0Q1983 1036 2032 985Q2053 962 2053 934Q2053 905 2031.5 884.0Q2010 863 1981 863Q1958 863 1944.0 874.0Q1930 885 1913.0 898.5Q1896 912 1870.5 923.5Q1845 935 1801 935Z" style="fill:#402a32;stroke:none" transform="scale(1,-1) translate(0,-256)" /></svg>