<?xml version="1.0" encoding="utf-8" ?>
<svg baseProfile="full" height="256" version="1.1" width="256" xmlns="http://www.w3.org/2000/svg" xmlns:ev="http://www.w3.org/2001/xml-events" xmlns:xlink="http://www.w3.org/1999/xlink"><defs /><path d="M998 1725Q1055 1725 1113.5 1707.5Q1172 1690 1216 1652Q1330 1555 1441.0 1456.5Q1552 1358 1665 1260L1859 1091Q1879 1074 1900.5 1056.5Q1922 1039 1941 1020Q1975 986 1989.5 945.5Q2004 905 2004 858Q2004 820 1996.0 783.5Q1988 747 1976 712Q1920 551 1870.5 388.5Q1821 226 1777 61Q1775 55 1774.0 49.0Q1773 43 1773 36Q1773 14 1783.5 -4.5Q1794 -23 1810.0 -38.5Q1826 -54 1845.5 -66.5Q1865 -79 1882 -88Q1905 -101 1925.5 -110.0Q1946 -119 1966.0 -125.5Q1986 -132 2007.5 -136.5Q2029 -141 2055 -145Q2082 -149 2101.0 -167.5Q2120 -186 2120 -215Q2120 -247 2101.0 -266.5Q2082 -286 2050 -286H1620Q1594 -286 1571.0 -281.0Q1548 -276 1531.0 -264.0Q1514 -252 1504.0 -232.5Q1494 -213 1494 -184Q1494 -165 1499.0 -146.5Q1504 -128 1510.5 -109.5Q1517 -91 1522.0 -72.5Q1527 -54 1527 -34Q1527 15 1519.5 62.5Q1512 110 1503.5 158.0Q1495 206 1487.5 253.5Q1480 301 1480 350Q1480 372 1481.0 393.0Q1482 414 1485 435Q1490 467 1497.5 497.0Q1505 527 1518 556Q1530 584 1546 608Q1550 616 1559.0 628.5Q1568 641 1577.0 655.0Q1586 669 1593.0 682.0Q1600 695 1600 704Q1600 714 1595.0 720.0Q1590 726 1583 732Q1569 744 1550.5 753.5Q1532 763 1516 771Q1474 793 1433.5 814.5Q1393 836 1351 857Q1220 925 1089.5 992.5Q959 1060 833 1137Q800 1157 772.5 1186.5Q745 1216 726.0 1251.0Q707 1286 696.5 1324.5Q686 1363 686 1402Q686 1446 698.0 1488.0Q710 1530 730 1568Q772 1646 841.0 1685.5Q910 1725 998 1725Z" style="fill:#ffc83d;stroke:none" transform="scale(1,-1) translate(0,-256)" /></svg>