<?xml version="1.0" encoding="utf-8" ?>
<svg baseProfile="full" height="256" version="1.1" width="256" xmlns="http://www.w3.org/2000/svg" xmlns:ev="http://www.w3.org/2001/xml-events" xmlns:xlink="http://www.w3.org/1999/xlink"><defs /><path d="M1658 -286Q1629 -286 1600.0 -284.5Q1571 -283 1547.5 -273.0Q1524 -263 1509.0 -242.5Q1494 -222 1494 -184Q1494 -165 1499.0 -146.5Q1504 -128 1510.5 -109.5Q1517 -91 1522.0 -72.5Q1527 -54 1527 -34Q1527 15 1519.5 62.5Q1512 110 1503.5 157.5Q1495 205 1487.5 252.5Q1480 300 1480 349Q1480 371 1481.0 392.5Q1482 414 1485 435Q1493 497 1514.5 546.5Q1536 596 1571 647Q1579 658 1589.5 674.0Q1600 690 1600 704Q1600 714 1595.0 720.0Q1590 726 1583 732Q1577 738 1559.5 748.0Q1542 758 1518.5 771.0Q1495 784 1469.0 797.5Q1443 811 1418.5 823.0Q1394 835 1374.5 845.0Q1355 855 1346 860Q1216 927 1087.0 994.5Q958 1062 833 1137Q800 1157 772.5 1186.5Q745 1216 726.0 1251.0Q707 1286 696.5 1324.5Q686 1363 686 1402Q686 1446 698.0 1488.0Q710 1530 730 1568Q736 1579 745.5 1594.0Q755 1609 766.5 1623.5Q778 1638 790.5 1650.0Q803 1662 814 1668Q824 1673 833.5 1676.5Q843 1680 853 1685Q840 1659 834.5 1629.0Q829 1599 829 1570Q829 1512 847.0 1460.5Q865 1409 896.0 1364.0Q927 1319 968.5 1281.0Q1010 1243 1056 1213Q1197 1120 1345.0 1040.0Q1493 960 1642 881Q1661 871 1679.5 855.0Q1698 839 1712.0 819.5Q1726 800 1734.5 778.0Q1743 756 1743 734Q1743 692 1717.5 654.0Q1692 616 1661.0 574.5Q1630 533 1604.5 485.5Q1579 438 1579 378Q1579 339 1585.0 300.5Q1591 262 1598.0 223.5Q1605 185 1611.0 146.5Q1617 108 1617 69Q1617 47 1612.5 31.5Q1608 16 1602.5 3.0Q1597 -10 1592.5 -21.0Q1588 -32 1588 -44Q1588 -66 1604.0 -80.0Q1620 -94 1640 -99Q1633 -115 1619.5 -124.5Q1606 -134 1592.0 -143.0Q1578 -152 1567.5 -163.0Q1557 -174 1557 -193Q1557 -211 1567.0 -226.5Q1577 -242 1592.0 -253.5Q1607 -265 1625.0 -273.5Q1643 -282 1658 -286Z" style="fill:#d67d00;stroke:none" transform="scale(1,-1) translate(0,-256)" /></svg>