<?xml version="1.0" encoding="utf-8" ?>
<svg baseProfile="full" height="256" version="1.1" width="256" xmlns="http://www.w3.org/2000/svg" xmlns:ev="http://www.w3.org/2001/xml-events" xmlns:xlink="http://www.w3.org/1999/xlink"><defs /><path d="M1284 1366Q1299 1366 1309.5 1355.5Q1320 1345 1320 1330Q1320 1315 1309.5 1304.5Q1299 1294 1284 1294H1014Q999 1294 988.5 1304.5Q978 1315 978 1330Q978 1345 988.5 1355.5Q999 1366 1014 1366ZM1284 1150Q1299 1150 1309.5 1139.5Q1320 1129 1320 1114Q1320 1099 1309.5 1088.5Q1299 1078 1284 1078H1014Q999 1078 988.5 1088.5Q978 1099 978 1114Q978 1129 988.5 1139.5Q999 1150 1014 1150Z" style="fill:#636363;stroke:none" transform="scale(1,-1) translate(0,-256)" /></svg>