<?xml version="1.0" encoding="utf-8" ?>
<svg baseProfile="full" height="256" version="1.1" width="256" xmlns="http://www.w3.org/2000/svg" xmlns:ev="http://www.w3.org/2001/xml-events" xmlns:xlink="http://www.w3.org/1999/xlink"><defs /><path d="M2107 413Q2107 344 2107.0 276.5Q2107 209 2108 140Q2108 124 2097.0 113.0Q2086 102 2070 102H1338Q1318 102 1310.0 113.0Q1302 124 1300.5 140.0Q1299 156 1300.5 175.0Q1302 194 1300.0 210.0Q1298 226 1290.0 237.0Q1282 248 1262 248H1035Q1015 248 1007.5 237.0Q1000 226 998.5 210.0Q997 194 998.0 175.0Q999 156 997.5 140.0Q996 124 988.0 113.0Q980 102 960 102H618Q602 102 591.0 113.0Q580 124 580 140V610H824Q864 610 891.0 596.0Q918 582 936.0 561.0Q954 540 966.0 515.0Q978 490 988.0 469.0Q998 448 1008.5 434.0Q1019 420 1035 420L2107 413Z" style="fill:#635994;stroke:none" transform="scale(1,-1) translate(0,-256)" /></svg>