<?xml version="1.0" encoding="utf-8" ?>
<svg baseProfile="full" height="256" version="1.1" width="256" xmlns="http://www.w3.org/2000/svg" xmlns:ev="http://www.w3.org/2001/xml-events" xmlns:xlink="http://www.w3.org/1999/xlink"><defs /><path d="M1730 -285H910Q805 -285 712.5 -247.5Q620 -210 551.5 -144.0Q483 -78 443.5 12.5Q404 103 404 210Q404 250 415.0 311.5Q426 373 445.0 447.5Q464 522 489.5 606.5Q515 691 543.0 777.5Q571 864 600.5 949.0Q630 1034 658.0 1110.0Q686 1186 710.0 1249.5Q734 1313 752 1357Q773 1408 794.5 1455.5Q816 1503 846.5 1539.5Q877 1576 920.5 1598.0Q964 1620 1029 1620Q1094 1620 1163.5 1596.5Q1233 1573 1290.0 1530.0Q1347 1487 1384.0 1427.5Q1421 1368 1421 1296Q1421 1275 1416.0 1252.0Q1411 1229 1401.0 1208.0Q1391 1187 1375.5 1170.0Q1360 1153 1339 1145Q1339 1122 1330.0 1097.5Q1321 1073 1305.0 1053.5Q1289 1034 1267.5 1021.5Q1246 1009 1221 1009H952L1111 691Q1132 648 1152.5 604.5Q1173 561 1197 520Q1200 515 1204.0 509.5Q1208 504 1215 504Q1221 504 1227.0 509.5Q1233 515 1235 520Q1249 554 1263.0 585.0Q1277 616 1297 647Q1336 707 1391.5 759.5Q1447 812 1512.5 851.0Q1578 890 1650.0 912.5Q1722 935 1795 935Q1866 935 1940.0 914.5Q2014 894 2082.5 857.0Q2151 820 2211.0 768.5Q2271 717 2315.5 655.0Q2360 593 2386.0 522.0Q2412 451 2412 376Q2412 225 2361.0 103.0Q2310 -19 2219.5 -105.5Q2129 -192 2003.5 -238.5Q1878 -285 1730 -285Z" style="fill:#ffc83d;stroke:none" transform="scale(1,-1) translate(0,-256)" /></svg>