<?xml version="1.0" encoding="utf-8" ?>
<svg baseProfile="full" height="256" version="1.1" width="256" xmlns="http://www.w3.org/2000/svg" xmlns:ev="http://www.w3.org/2001/xml-events" xmlns:xlink="http://www.w3.org/1999/xlink"><defs /><path d="M993 1406Q999 1407 1004.5 1407.5Q1010 1408 1016 1408Q1043 1408 1075.0 1397.5Q1107 1387 1137.5 1370.0Q1168 1353 1194.0 1331.5Q1220 1310 1236 1288H1086ZM1340 1145H1339Q1339 1122 1330.0 1097.5Q1321 1073 1305.0 1053.5Q1289 1034 1267.5 1021.5Q1246 1009 1221 1009H963L1030 853Q983 857 940.0 876.0Q897 895 861.5 925.5Q826 956 799.5 995.5Q773 1035 759 1079H818L820 1078H1202Q1234 1078 1259.0 1098.5Q1284 1119 1284 1153Q1284 1171 1278.0 1188.5Q1272 1206 1263 1222Q1276 1222 1288.5 1214.0Q1301 1206 1311.5 1194.5Q1322 1183 1329.5 1169.5Q1337 1156 1340 1145ZM1255 570Q1289 556 1309 525L1522 174Q1527 164 1527 155Q1527 141 1517.0 130.0Q1507 119 1492 119Q1472 119 1461 137L1248 487Q1238 503 1219 505Q1225 506 1230.5 514.5Q1236 523 1240.5 533.0Q1245 543 1248.5 553.5Q1252 564 1255 570ZM1173 567Q1175 562 1179.5 552.5Q1184 543 1190.0 532.5Q1196 522 1202.0 514.0Q1208 506 1213 505Q1194 502 1186 488L978 150Q967 133 948 133Q933 133 922.5 143.5Q912 154 912 169Q912 179 917 187L1125 525Q1141 553 1173 567Z" style="fill:#d67d00;stroke:none" transform="scale(1,-1) translate(0,-256)" /></svg>