<?xml version="1.0" encoding="utf-8" ?>
<svg baseProfile="full" height="256" version="1.1" width="256" xmlns="http://www.w3.org/2000/svg" xmlns:ev="http://www.w3.org/2001/xml-events" xmlns:xlink="http://www.w3.org/1999/xlink"><defs /><path d="M1406 208Q1441 173 1489.5 158.5Q1538 144 1586 144Q1634 144 1681.5 158.5Q1729 173 1764 207Q1752 137 1722.0 79.0Q1692 21 1646.0 -20.5Q1600 -62 1539.5 -85.0Q1479 -108 1406 -108Q1333 -108 1272.5 -85.0Q1212 -62 1166.0 -20.5Q1120 21 1090.0 79.0Q1060 137 1048 207Q1083 173 1130.5 158.5Q1178 144 1226 144Q1274 144 1322.5 158.5Q1371 173 1406 208Z" style="fill:#bb1d80;stroke:none" transform="scale(1,-1) translate(0,-256)" /></svg>