<?xml version="1.0" encoding="utf-8" ?>
<svg baseProfile="full" height="256" version="1.1" width="256" xmlns="http://www.w3.org/2000/svg" xmlns:ev="http://www.w3.org/2001/xml-events" xmlns:xlink="http://www.w3.org/1999/xlink"><defs /><path d="M1118 539Q1093 539 1079.5 531.0Q1066 523 1059.5 511.0Q1053 499 1050.5 485.0Q1048 471 1044.5 459.0Q1041 447 1034.0 439.0Q1027 431 1011 431Q997 431 986.0 442.0Q975 453 975 467Q975 498 985.5 524.5Q996 551 1015.0 570.0Q1034 589 1060.5 600.0Q1087 611 1118 611Q1149 611 1175.5 600.5Q1202 590 1221.5 570.5Q1241 551 1251.5 524.5Q1262 498 1262 467Q1262 453 1251.0 442.0Q1240 431 1226 431Q1210 431 1203.0 439.0Q1196 447 1192.5 459.0Q1189 471 1187.0 485.0Q1185 499 1178.0 511.0Q1171 523 1157.5 531.0Q1144 539 1118 539ZM1693 539Q1668 539 1654.5 531.0Q1641 523 1634.5 511.0Q1628 499 1625.5 485.0Q1623 471 1619.5 459.0Q1616 447 1609.0 439.0Q1602 431 1586 431Q1572 431 1561.0 442.0Q1550 453 1550 467Q1550 498 1560.5 524.5Q1571 551 1590.0 570.0Q1609 589 1635.5 600.0Q1662 611 1693 611Q1724 611 1750.5 600.5Q1777 590 1796.5 570.5Q1816 551 1826.5 524.5Q1837 498 1837 467Q1837 453 1826.0 442.0Q1815 431 1801 431Q1785 431 1778.0 439.0Q1771 447 1767.5 459.0Q1764 471 1762.0 485.0Q1760 499 1753.0 511.0Q1746 523 1732.5 531.0Q1719 539 1693 539Z" style="fill:#402a32;stroke:none" transform="scale(1,-1) translate(0,-256)" /></svg>