<?xml version="1.0" encoding="utf-8" ?>
<svg baseProfile="full" height="256" version="1.1" width="256" xmlns="http://www.w3.org/2000/svg" xmlns:ev="http://www.w3.org/2001/xml-events" xmlns:xlink="http://www.w3.org/1999/xlink"><defs /><path d="M1239 917Q1255 917 1266.5 905.5Q1278 894 1278 878Q1278 869 1273 859H1204Q1200 867 1200 878Q1200 894 1211.5 905.5Q1223 917 1239 917ZM1573 917Q1557 917 1545.5 905.5Q1534 894 1534 878Q1534 869 1539 859H1608Q1613 869 1613 878Q1613 894 1601.0 905.5Q1589 917 1573 917Z" style="fill:#000000;stroke:none" transform="scale(1,-1) translate(0,-256)" /></svg>