<?xml version="1.0" encoding="utf-8" ?>
<svg baseProfile="full" height="256" version="1.1" width="256" xmlns="http://www.w3.org/2000/svg" xmlns:ev="http://www.w3.org/2001/xml-events" xmlns:xlink="http://www.w3.org/1999/xlink"><defs /><path d="M1171 878Q1171 907 1190.5 927.0Q1210 947 1239 947Q1268 947 1287.5 926.5Q1307 906 1307 877Q1307 872 1307.0 868.0Q1307 864 1306 859H1174Q1171 868 1171 878ZM1642 878Q1642 907 1622.0 927.0Q1602 947 1573 947Q1545 947 1524.5 926.5Q1504 906 1504 878Q1504 868 1507 859H1639Q1642 868 1642 878Z" style="fill:#7d4533;stroke:none" transform="scale(1,-1) translate(0,-256)" /></svg>