<?xml version="1.0" encoding="utf-8" ?>
<svg baseProfile="full" height="256" version="1.1" width="256" xmlns="http://www.w3.org/2000/svg" xmlns:ev="http://www.w3.org/2001/xml-events" xmlns:xlink="http://www.w3.org/1999/xlink"><defs /><path d="M1246 1653H1567Q1626 1653 1675.5 1629.0Q1725 1605 1761.0 1564.5Q1797 1524 1817.0 1471.5Q1837 1419 1837 1362V1168Q1858 1168 1877.5 1163.0Q1897 1158 1912.0 1147.5Q1927 1137 1936.0 1120.0Q1945 1103 1945 1079Q1945 1042 1918.5 1016.0Q1892 990 1855 990H957Q920 990 893.5 1016.0Q867 1042 867 1079Q867 1103 876.0 1120.0Q885 1137 900.0 1147.5Q915 1158 934.5 1163.0Q954 1168 975 1168V1362Q975 1419 995.0 1471.5Q1015 1524 1051.0 1564.5Q1087 1605 1137.0 1629.0Q1187 1653 1246 1653ZM975 346Q1009 367 1044.5 384.5Q1080 402 1118 416V-287H975ZM1693 416Q1731 402 1767.0 384.5Q1803 367 1837 346V-287H1693Z" style="fill:#fff478;stroke:none" transform="scale(1,-1) translate(0,-256)" /></svg>