<?xml version="1.0" encoding="utf-8" ?>
<svg baseProfile="full" height="256" version="1.1" width="256" xmlns="http://www.w3.org/2000/svg" xmlns:ev="http://www.w3.org/2001/xml-events" xmlns:xlink="http://www.w3.org/1999/xlink"><defs /><path d="M1406 627Q1438 627 1462.0 635.5Q1486 644 1515 655Q1516 655 1517.5 656.0Q1519 657 1520 657Q1525 657 1528.5 653.0Q1532 649 1532 644Q1532 641 1530 637Q1511 605 1477.0 586.0Q1443 567 1406 567Q1371 567 1335.5 586.0Q1300 605 1282 637Q1280 641 1280 644Q1280 649 1283.5 653.0Q1287 657 1292 657Q1294 657 1298 655Q1324 641 1350.0 634.0Q1376 627 1406 627Z" style="fill:#990839;stroke:none" transform="scale(1,-1) translate(0,-256)" /></svg>