<?xml version="1.0" encoding="utf-8" ?>
<svg baseProfile="full" height="256" version="1.1" width="256" xmlns="http://www.w3.org/2000/svg" xmlns:ev="http://www.w3.org/2001/xml-events" xmlns:xlink="http://www.w3.org/1999/xlink"><defs /><path d="M1244 -287H1118L1056 66L1118 416Q1179 438 1244 452ZM1568 452Q1632 438 1693 416L1759 66L1693 -287H1568ZM849 251Q909 306 975 346L1041 32L975 -287H849ZM1837 346Q1903 306 1963 251V-287H1837L1813 -91Q1809 -63 1805.0 -42.5Q1801 -22 1801 7Q1801 40 1805.0 63.5Q1809 87 1813 120Z" style="fill:#ff6723;stroke:none" transform="scale(1,-1) translate(0,-256)" /></svg>