<?xml version="1.0" encoding="utf-8" ?>
<svg baseProfile="full" height="256" version="1.1" width="256" xmlns="http://www.w3.org/2000/svg" xmlns:ev="http://www.w3.org/2001/xml-events" xmlns:xlink="http://www.w3.org/1999/xlink"><defs /><path d="M1489 1438Q1555 1438 1612.0 1412.0Q1669 1386 1711.0 1342.0Q1753 1298 1777.0 1239.5Q1801 1181 1801 1116Q1801 1105 1800.0 1094.5Q1799 1084 1798 1073Q1791 961 1785.0 849.0Q1779 737 1772 625Q1770 605 1764.0 583.0Q1758 561 1750 543Q1732 502 1704.0 468.5Q1676 435 1641.0 411.0Q1606 387 1564.5 373.5Q1523 360 1478 360H1335Q1287 360 1243.5 375.0Q1200 390 1163.5 416.5Q1127 443 1099.0 480.0Q1071 517 1056 562Q1051 575 1046.5 593.0Q1042 611 1041 625Q1033 737 1026.5 849.0Q1020 961 1013 1073Q1012 1084 1011.5 1093.5Q1011 1103 1011 1114Q1011 1180 1034.0 1239.0Q1057 1298 1098.0 1342.5Q1139 1387 1196.0 1412.5Q1253 1438 1321 1438H1489Z" style="fill:#ffc83d;stroke:none" transform="scale(1,-1) translate(0,-256)" /></svg>