<?xml version="1.0" encoding="utf-8" ?>
<svg baseProfile="full" height="256" version="1.1" width="256" xmlns="http://www.w3.org/2000/svg" xmlns:ev="http://www.w3.org/2001/xml-events" xmlns:xlink="http://www.w3.org/1999/xlink"><defs /><path d="M1334 759Q1334 768 1339.5 786.5Q1345 805 1352.0 826.0Q1359 847 1366.5 866.5Q1374 886 1377 896Q1383 916 1406 916Q1416 916 1424.0 911.0Q1432 906 1435 896Q1438 887 1445.0 867.0Q1452 847 1459.5 825.5Q1467 804 1472.5 785.0Q1478 766 1478 759Q1478 742 1465.5 730.5Q1453 719 1436 719H1376Q1359 719 1346.5 730.5Q1334 742 1334 759Z" style="fill:#ed9200;stroke:none" transform="scale(1,-1) translate(0,-256)" /></svg>