<?xml version="1.0" encoding="utf-8" ?>
<svg baseProfile="full" height="256" version="1.1" width="256" xmlns="http://www.w3.org/2000/svg" xmlns:ev="http://www.w3.org/2001/xml-events" xmlns:xlink="http://www.w3.org/1999/xlink"><defs /><path d="M1223 968Q1239 968 1257.5 961.0Q1276 954 1292.0 942.0Q1308 930 1318.0 914.0Q1328 898 1328 880Q1328 872 1324.0 865.5Q1320 859 1310 859H1140Q1131 859 1124.5 865.5Q1118 872 1118 881Q1118 899 1128.5 915.0Q1139 931 1154.5 942.5Q1170 954 1188.5 961.0Q1207 968 1223 968ZM1589 968Q1557 968 1530.5 949.5Q1504 931 1491 902Q1489 899 1486.5 891.0Q1484 883 1484 880Q1484 872 1488.0 865.5Q1492 859 1502 859H1672Q1681 859 1687.5 865.5Q1694 872 1694 881Q1694 899 1683.5 915.0Q1673 931 1657.5 942.5Q1642 954 1623.5 961.0Q1605 968 1589 968Z" style="fill:#ffffff;stroke:none" transform="scale(1,-1) translate(0,-256)" /></svg>