<?xml version="1.0" encoding="utf-8" ?>
<svg baseProfile="full" height="256" version="1.1" width="256" xmlns="http://www.w3.org/2000/svg" xmlns:ev="http://www.w3.org/2001/xml-events" xmlns:xlink="http://www.w3.org/1999/xlink"><defs /><path d="M1837 1222Q1807 1222 1786.0 1243.0Q1765 1264 1765 1294Q1765 1324 1786.0 1345.0Q1807 1366 1837 1366Q1867 1366 1888.0 1345.0Q1909 1324 1909 1294Q1909 1264 1888.0 1243.0Q1867 1222 1837 1222ZM1334 935Q1334 980 1317.0 1019.0Q1300 1058 1270.5 1087.0Q1241 1116 1202.0 1133.0Q1163 1150 1118 1150Q1073 1150 1034.0 1133.0Q995 1116 966.0 1087.0Q937 1058 920.0 1019.0Q903 980 903 935Q903 905 882.0 884.0Q861 863 831 863Q801 863 780.0 884.0Q759 905 759 935Q759 1009 787.0 1074.5Q815 1140 864.0 1188.5Q913 1237 978.5 1265.5Q1044 1294 1118 1294Q1192 1294 1257.5 1266.0Q1323 1238 1372.0 1189.0Q1421 1140 1449.5 1075.0Q1478 1010 1478 935Q1478 850 1440.0 774.0Q1402 698 1334 647Q1355 631 1375 612L1700 730Q1742 745 1788.5 753.0Q1835 761 1880 761Q1951 761 2014.0 739.5Q2077 718 2124.0 677.0Q2171 636 2198.5 577.0Q2226 518 2226 443Q2226 368 2201.5 305.5Q2177 243 2133.0 198.0Q2089 153 2027.0 128.0Q1965 103 1889 103Q1863 103 1837.5 106.0Q1812 109 1786 114H1785L1783 115L1635 153Q1611 159 1596.0 179.0Q1581 199 1581 223Q1581 252 1602.5 273.0Q1624 294 1653 294Q1658 294 1662.0 294.0Q1666 294 1671 292Q1724 278 1778.0 262.0Q1832 246 1888 246Q1981 246 2031.5 298.0Q2082 350 2082 443Q2082 488 2065.5 520.5Q2049 553 2021.0 574.5Q1993 596 1956.0 606.5Q1919 617 1879 617Q1847 617 1812.5 611.5Q1778 606 1748 595L1454 488Q1465 457 1471.5 425.0Q1478 393 1478 360Q1478 285 1449.5 219.5Q1421 154 1372.5 105.5Q1324 57 1258.5 28.5Q1193 0 1118 0Q1033 0 962.0 35.5Q891 71 837 136L618 400Q601 420 601 446Q601 475 622.0 496.0Q643 517 672 517Q689 517 702.5 510.0Q716 503 727 491L957 216Q986 181 1029.5 162.5Q1073 144 1118 144Q1163 144 1202.5 161.0Q1242 178 1271.0 207.0Q1300 236 1317.0 275.5Q1334 315 1334 360Q1334 405 1317.0 444.0Q1300 483 1270.5 512.0Q1241 541 1202.0 558.0Q1163 575 1118 575Q1089 575 1068.0 596.5Q1047 618 1047 647Q1047 670 1058.5 687.5Q1070 705 1091 713Q1098 715 1104.0 717.0Q1110 719 1118 719Q1163 719 1202.5 736.0Q1242 753 1271.0 782.0Q1300 811 1317.0 850.5Q1334 890 1334 935ZM1664 1220Q1681 1220 1697.5 1211.5Q1714 1203 1724 1188Q1744 1159 1764.0 1135.0Q1784 1111 1807.5 1094.0Q1831 1077 1860.0 1067.5Q1889 1058 1927 1058Q1952 1058 1975.5 1064.0Q1999 1070 2023 1070Q2052 1070 2074.0 1049.0Q2096 1028 2096 998Q2096 972 2085.0 957.0Q2074 942 2057.0 934.5Q2040 927 2019.0 924.0Q1998 921 1978 918Q1965 916 1952.5 915.0Q1940 914 1927 914Q1836 914 1759.0 955.5Q1682 997 1630 1071Q1617 1089 1605.0 1107.0Q1593 1125 1593 1148Q1593 1177 1614.0 1198.5Q1635 1220 1664 1220Z" style="fill:#ffffff;stroke:none" transform="scale(1,-1) translate(0,-256)" /></svg>