<?xml version="1.0" encoding="utf-8" ?>
<svg baseProfile="full" height="256" version="1.1" width="256" xmlns="http://www.w3.org/2000/svg" xmlns:ev="http://www.w3.org/2001/xml-events" xmlns:xlink="http://www.w3.org/1999/xlink"><defs /><path d="M903 756Q883 756 867.0 769.5Q851 783 838.5 804.5Q826 826 816.5 852.5Q807 879 801.0 905.5Q795 932 792.0 956.0Q789 980 789 995Q789 1073 818.5 1142.0Q848 1211 899.5 1262.5Q951 1314 1020.0 1343.5Q1089 1373 1167 1373Q1182 1373 1205.5 1370.0Q1229 1367 1254.5 1361.5Q1280 1356 1306.0 1347.0Q1332 1338 1353.5 1325.5Q1375 1313 1389.5 1298.0Q1404 1283 1406 1264Q1408 1281 1422.0 1295.5Q1436 1310 1456.5 1321.5Q1477 1333 1502.5 1341.5Q1528 1350 1552.5 1355.5Q1577 1361 1599.0 1363.5Q1621 1366 1636 1366Q1712 1366 1779.5 1337.5Q1847 1309 1896.5 1259.5Q1946 1210 1975.0 1143.0Q2004 1076 2004 1000Q2004 977 1997.5 938.0Q1991 899 1977.5 861.0Q1964 823 1943.0 795.0Q1922 767 1893 767Q1869 767 1851 785Q1743 893 1636.5 999.0Q1530 1105 1422 1213Q1414 1221 1410.5 1231.0Q1407 1241 1405 1251Q1404 1231 1388 1215L947 774Q929 756 903 756Z" style="fill:#608842;stroke:none" transform="scale(1,-1) translate(0,-256)" /></svg>