<?xml version="1.0" encoding="utf-8" ?>
<svg baseProfile="full" height="256" version="1.1" width="256" xmlns="http://www.w3.org/2000/svg" xmlns:ev="http://www.w3.org/2001/xml-events" xmlns:xlink="http://www.w3.org/1999/xlink"><defs /><path d="M1442 1079Q1442 1049 1431.0 1023.0Q1420 997 1400.5 977.5Q1381 958 1355.0 947.0Q1329 936 1299 936Q1269 936 1243.0 947.0Q1217 958 1197.5 977.5Q1178 997 1167.0 1023.0Q1156 1049 1156 1079Q1156 1109 1167.0 1135.0Q1178 1161 1197.5 1180.5Q1217 1200 1243.0 1211.0Q1269 1222 1299 1222Q1329 1222 1355.0 1211.0Q1381 1200 1400.5 1180.5Q1420 1161 1431.0 1135.0Q1442 1109 1442 1079ZM1729 935Q1729 905 1717.5 879.0Q1706 853 1686.5 833.5Q1667 814 1641.0 802.5Q1615 791 1585 791Q1555 791 1529.0 802.5Q1503 814 1483.5 833.5Q1464 853 1452.5 879.0Q1441 905 1441 935Q1441 965 1452.5 991.0Q1464 1017 1483.5 1036.5Q1503 1056 1529.0 1067.0Q1555 1078 1585 1078Q1615 1078 1641.0 1067.0Q1667 1056 1686.5 1036.5Q1706 1017 1717.5 991.0Q1729 965 1729 935Z" style="fill:#d3883e;stroke:none" transform="scale(1,-1) translate(0,-256)" /></svg>