<?xml version="1.0" encoding="utf-8" ?>
<svg baseProfile="full" height="256" version="1.1" width="256" xmlns="http://www.w3.org/2000/svg" xmlns:ev="http://www.w3.org/2001/xml-events" xmlns:xlink="http://www.w3.org/1999/xlink"><defs /><path d="M2414 -151Q2414 -177 2394.0 -196.0Q2374 -215 2348 -215H477Q445 -215 422.5 -192.5Q400 -170 400 -138Q400 -110 415.5 -90.5Q431 -71 457 -63Q485 -54 509.5 -43.0Q534 -32 558.0 -22.5Q582 -13 607.5 -6.5Q633 0 665 0Q704 0 733.0 -11.5Q762 -23 789.0 -36.5Q816 -50 845.0 -61.0Q874 -72 913 -72Q952 -72 981.0 -61.0Q1010 -50 1036.5 -36.5Q1063 -23 1092.0 -11.5Q1121 0 1160 0Q1199 0 1228.0 -11.5Q1257 -23 1284.0 -36.5Q1311 -50 1340.0 -61.0Q1369 -72 1408 -72Q1447 -72 1476.0 -61.0Q1505 -50 1532.0 -36.5Q1559 -23 1588.0 -11.5Q1617 0 1656 0Q1695 0 1724.0 -11.5Q1753 -23 1780.0 -36.5Q1807 -50 1836.0 -61.0Q1865 -72 1904 -72Q1943 -72 1972.0 -61.0Q2001 -50 2027.5 -36.5Q2054 -23 2083.0 -11.5Q2112 0 2151 0Q2177 0 2199.5 -5.5Q2222 -11 2244.0 -17.5Q2266 -24 2289.5 -30.5Q2313 -37 2340 -40Q2354 -42 2367.0 -48.5Q2380 -55 2390.5 -65.5Q2401 -76 2407.5 -89.0Q2414 -102 2414 -117Z" style="fill:#00a6ed;stroke:none" transform="scale(1,-1) translate(0,-256)" /></svg>