<?xml version="1.0" encoding="utf-8" ?>
<svg baseProfile="full" height="256" version="1.1" width="256" xmlns="http://www.w3.org/2000/svg" xmlns:ev="http://www.w3.org/2001/xml-events" xmlns:xlink="http://www.w3.org/1999/xlink"><defs /><path d="M1449 1726Q1418 1724 1397.5 1705.0Q1377 1686 1364.0 1659.5Q1351 1633 1344.5 1603.0Q1338 1573 1335 1549L1269 1009Q1267 996 1257.0 987.0Q1247 978 1234 978Q1217 978 1206.0 989.5Q1195 1001 1197 1018Q1214 1151 1232.0 1282.5Q1250 1414 1267 1547Q1272 1583 1286.5 1615.5Q1301 1648 1324.0 1673.0Q1347 1698 1378.5 1712.0Q1410 1726 1449 1726ZM835 1390Q835 1420 845.0 1447.5Q855 1475 872.5 1497.5Q890 1520 914.0 1536.5Q938 1553 967 1560L968 1558Q946 1553 933.0 1531.5Q920 1510 913.5 1483.0Q907 1456 905.0 1428.0Q903 1400 903 1382Q903 1341 906.5 1290.5Q910 1240 915.0 1188.0Q920 1136 927.0 1085.5Q934 1035 941 994Q945 973 951.0 950.0Q957 927 957 906Q957 892 946.0 881.0Q935 870 921 870Q906 870 898.0 878.0Q890 886 886 899Q882 911 878.5 927.5Q875 944 872.0 961.5Q869 979 866.5 996.0Q864 1013 863 1027Q852 1116 846.0 1205.0Q840 1294 835 1384ZM1858 1545Q1887 1545 1910 1535H1912L1911 1534Q1899 1538 1884 1538Q1858 1538 1837.0 1523.0Q1816 1508 1799.5 1486.0Q1783 1464 1770.5 1439.0Q1758 1414 1751 1393L1581 939Q1577 928 1568.0 922.0Q1559 916 1548 916Q1533 916 1522.5 926.5Q1512 937 1512 951Q1512 954 1522.5 985.0Q1533 1016 1550.0 1061.5Q1567 1107 1587.0 1161.0Q1607 1215 1626.5 1265.5Q1646 1316 1661.5 1357.0Q1677 1398 1684 1416Q1694 1441 1712.0 1464.5Q1730 1488 1753.0 1506.0Q1776 1524 1803.0 1534.5Q1830 1545 1858 1545ZM908 620Q894 620 881.5 629.0Q869 638 869 653Q869 687 903 692Q926 696 960.5 698.0Q995 700 1032.0 701.0Q1069 702 1104.0 702.0Q1139 702 1163 702Q1214 702 1281.5 699.5Q1349 697 1418.0 688.0Q1487 679 1550.5 663.0Q1614 647 1657 620Q1675 609 1675 588Q1675 574 1667.0 565.5Q1659 557 1646 553Q1589 537 1535.5 520.0Q1482 503 1428 478Q1335 435 1252.0 376.5Q1169 318 1100 242Q1085 225 1071.5 207.0Q1058 189 1044 172Q1038 165 1031.5 161.0Q1025 157 1015 157Q1000 157 989.5 167.5Q979 178 979 193Q979 203 986 214Q1032 281 1093.5 339.5Q1155 398 1225.5 446.0Q1296 494 1372.5 531.0Q1449 568 1526 594Q1441 618 1352.0 624.5Q1263 631 1175 631Q1083 631 992 625Q971 624 950.0 622.0Q929 620 908 620Z" style="fill:#d67d00;stroke:none" transform="scale(1,-1) translate(0,-256)" /></svg>