<?xml version="1.0" encoding="utf-8" ?>
<svg baseProfile="full" height="256" version="1.1" width="256" xmlns="http://www.w3.org/2000/svg" xmlns:ev="http://www.w3.org/2001/xml-events" xmlns:xlink="http://www.w3.org/1999/xlink"><defs /><path d="M1375 1365Q1389 1365 1403.0 1370.5Q1417 1376 1423 1376Q1428 1376 1428 1371Q1428 1365 1421.5 1359.5Q1415 1354 1406.5 1350.0Q1398 1346 1389.0 1343.5Q1380 1341 1375 1341Q1370 1341 1361.0 1343.5Q1352 1346 1343.5 1350.0Q1335 1354 1328.5 1359.5Q1322 1365 1322 1371Q1322 1376 1327 1376Q1335 1376 1348.0 1370.5Q1361 1365 1375 1365Z" style="fill:#990839;stroke:none" transform="scale(1,-1) translate(0,-256)" /></svg>