<?xml version="1.0" encoding="utf-8" ?>
<svg baseProfile="full" height="256" version="1.1" width="256" xmlns="http://www.w3.org/2000/svg" xmlns:ev="http://www.w3.org/2001/xml-events" xmlns:xlink="http://www.w3.org/1999/xlink"><defs /><path d="M1278 1466Q1278 1478 1286.5 1486.5Q1295 1495 1307 1495Q1319 1495 1327.0 1486.0Q1335 1477 1335 1466Q1335 1465 1334.0 1462.5Q1333 1460 1333 1459H1279Q1279 1460 1278.5 1460.5Q1278 1461 1278 1462ZM1472 1466Q1472 1478 1464.0 1486.0Q1456 1494 1444 1494Q1433 1494 1424.5 1485.5Q1416 1477 1416 1466Q1416 1464 1416.5 1462.5Q1417 1461 1417 1459H1471Q1471 1460 1471.5 1460.5Q1472 1461 1472 1462Z" style="fill:#7d4533;stroke:none" transform="scale(1,-1) translate(0,-256)" /></svg>