<?xml version="1.0" encoding="utf-8" ?>
<svg baseProfile="full" height="256" version="1.1" width="256" xmlns="http://www.w3.org/2000/svg" xmlns:ev="http://www.w3.org/2001/xml-events" xmlns:xlink="http://www.w3.org/1999/xlink"><defs /><path d="M1259 1223Q1263 1180 1266.5 1137.5Q1270 1095 1273 1052Q1254 1037 1240.0 1011.0Q1226 985 1216.0 953.0Q1206 921 1199.5 885.5Q1193 850 1189.0 816.0Q1185 782 1183.5 752.0Q1182 722 1182 701Q1182 665 1184.0 629.0Q1186 593 1189 557Q1191 540 1193.5 523.0Q1196 506 1196 489Q1196 482 1189.0 479.5Q1182 477 1177 477Q1165 477 1160.0 485.0Q1155 493 1152.0 502.5Q1149 512 1146.5 520.0Q1144 528 1136 528Q1127 528 1124.0 520.5Q1121 513 1121 505Q1121 486 1128.0 467.0Q1135 448 1135 428Q1135 406 1112 406Q1096 406 1085.0 428.5Q1074 451 1067.0 485.5Q1060 520 1056.0 562.0Q1052 604 1050.0 643.0Q1048 682 1047.5 713.0Q1047 744 1047 757Q1047 802 1050.0 858.0Q1053 914 1063.5 970.0Q1074 1026 1095.5 1076.0Q1117 1126 1153 1160Q1170 1177 1190.0 1187.5Q1210 1198 1232 1209Q1239 1212 1245.5 1215.5Q1252 1219 1259 1223ZM1491 1223Q1488 1180 1485.0 1137.5Q1482 1095 1478 1052Q1505 1029 1522.5 984.0Q1540 939 1550.0 887.0Q1560 835 1564.0 785.5Q1568 736 1568 705Q1568 668 1566.0 631.0Q1564 594 1560 557Q1558 540 1556.0 523.0Q1554 506 1554 489Q1554 482 1561.0 479.5Q1568 477 1573 477Q1585 477 1590.0 485.0Q1595 493 1598.0 502.5Q1601 512 1603.5 520.0Q1606 528 1614 528Q1623 528 1626.0 520.5Q1629 513 1629 505Q1629 486 1622.0 466.5Q1615 447 1615 428Q1615 406 1638 406Q1654 406 1665.0 428.5Q1676 451 1683.0 486.0Q1690 521 1694.0 563.5Q1698 606 1700.0 645.0Q1702 684 1702.5 715.0Q1703 746 1703 759Q1703 804 1700.0 860.0Q1697 916 1686.5 971.5Q1676 1027 1654.5 1076.5Q1633 1126 1597 1160Q1580 1177 1560.0 1187.5Q1540 1198 1518 1209Q1511 1212 1504.5 1215.5Q1498 1219 1491 1223Z" style="fill:#ffc83d;stroke:none" transform="scale(1,-1) translate(0,-256)" /></svg>