<?xml version="1.0" encoding="utf-8" ?>
<svg baseProfile="full" height="256" version="1.1" width="256" xmlns="http://www.w3.org/2000/svg" xmlns:ev="http://www.w3.org/2001/xml-events" xmlns:xlink="http://www.w3.org/1999/xlink"><defs /><path d="M1276 1461Q1276 1439 1261.0 1424.0Q1246 1409 1224 1409Q1203 1409 1187.5 1424.5Q1172 1440 1172 1461Q1172 1482 1187.5 1497.0Q1203 1512 1224 1512Q1245 1512 1260.5 1497.5Q1276 1483 1276 1461ZM1578 1461Q1578 1439 1563.0 1424.0Q1548 1409 1526 1409Q1504 1409 1489.0 1424.0Q1474 1439 1474 1461Q1474 1483 1489.5 1497.5Q1505 1512 1526 1512Q1547 1512 1562.5 1497.5Q1578 1483 1578 1461Z" style="fill:#fdbb11;stroke:none" transform="scale(1,-1) translate(0,-256)" /></svg>