<?xml version="1.0" encoding="utf-8" ?>
<svg baseProfile="full" height="256" version="1.1" width="256" xmlns="http://www.w3.org/2000/svg" xmlns:ev="http://www.w3.org/2001/xml-events" xmlns:xlink="http://www.w3.org/1999/xlink"><defs /><path d="M1413 -289V-177L1480 -150L1553 -177Q1551 -179 1551 -181Q1551 -193 1563.0 -204.0Q1575 -215 1590.0 -225.5Q1605 -236 1617.0 -247.5Q1629 -259 1629 -273Q1629 -279 1627 -289ZM1339 -289V-177L1268 -152L1195 -177V-178Q1195 -193 1183.0 -204.0Q1171 -215 1157.0 -225.5Q1143 -236 1131.0 -247.5Q1119 -259 1119 -273Q1119 -279 1121 -289Z" style="fill:#321b41;stroke:none" transform="scale(1,-1) translate(0,-256)" /></svg>