<?xml version="1.0" encoding="utf-8" ?>
<svg baseProfile="full" height="256" version="1.1" width="256" xmlns="http://www.w3.org/2000/svg" xmlns:ev="http://www.w3.org/2001/xml-events" xmlns:xlink="http://www.w3.org/1999/xlink"><defs /><path d="M1131 442Q1124 442 1115.5 448.5Q1107 455 1100.0 463.5Q1093 472 1088.0 481.0Q1083 490 1083 496Q1083 506 1089.5 513.0Q1096 520 1106 520Q1113 520 1121.5 513.5Q1130 507 1137.5 498.5Q1145 490 1150.0 480.5Q1155 471 1155 465Q1155 455 1148.0 448.5Q1141 442 1131 442ZM1619 442Q1609 442 1602.0 448.5Q1595 455 1595 466Q1595 472 1600.0 481.0Q1605 490 1612.5 498.5Q1620 507 1628.5 513.5Q1637 520 1644 520Q1654 520 1660.5 513.0Q1667 506 1667 496Q1667 490 1662.0 481.0Q1657 472 1650.0 463.5Q1643 455 1634.5 448.5Q1626 442 1619 442Z" style="fill:#d67d00;stroke:none" transform="scale(1,-1) translate(0,-256)" /></svg>