<?xml version="1.0" encoding="utf-8" ?>
<svg baseProfile="full" height="256" version="1.1" width="256" xmlns="http://www.w3.org/2000/svg" xmlns:ev="http://www.w3.org/2001/xml-events" xmlns:xlink="http://www.w3.org/1999/xlink"><defs /><path d="M1422 1725Q1463 1725 1485 1690Q1495 1674 1511.0 1665.5Q1527 1657 1542.0 1648.5Q1557 1640 1567.5 1627.0Q1578 1614 1578 1588Q1578 1574 1574.5 1566.0Q1571 1558 1566.5 1549.5Q1562 1541 1558.5 1530.5Q1555 1520 1555 1502Q1546 1511 1535 1511Q1536 1523 1535.5 1535.5Q1535 1548 1531.5 1559.0Q1528 1570 1519.0 1577.0Q1510 1584 1494 1584Q1476 1584 1459.5 1584.0Q1443 1584 1428.0 1587.5Q1413 1591 1401.0 1600.5Q1389 1610 1380 1629Q1373 1642 1361 1642H1320Q1298 1642 1279.0 1633.5Q1260 1625 1245.5 1611.0Q1231 1597 1223.0 1578.0Q1215 1559 1215 1537V1511Q1203 1509 1194 1502Q1194 1520 1190.5 1530.0Q1187 1540 1183.0 1548.5Q1179 1557 1175.5 1565.0Q1172 1573 1172 1587Q1172 1613 1182.5 1626.0Q1193 1639 1207.5 1648.0Q1222 1657 1238.0 1665.5Q1254 1674 1265 1691Q1276 1707 1292.0 1716.0Q1308 1725 1328 1725Q1341 1725 1352.0 1720.0Q1363 1715 1375 1715Q1387 1715 1398.0 1720.0Q1409 1725 1422 1725Z" style="fill:#f1a11e;stroke:none" transform="scale(1,-1) translate(0,-256)" /></svg>