<?xml version="1.0" encoding="utf-8" ?>
<svg baseProfile="full" height="256" version="1.1" width="256" xmlns="http://www.w3.org/2000/svg" xmlns:ev="http://www.w3.org/2001/xml-events" xmlns:xlink="http://www.w3.org/1999/xlink"><defs /><path d="M1259 1530V1535Q1265 1545 1281.5 1549.5Q1298 1554 1309 1554Q1319 1554 1324 1552Q1326 1551 1328 1547V1544Q1324 1537 1320 1537Q1309 1537 1303.0 1536.0Q1297 1535 1292.0 1533.5Q1287 1532 1281.5 1529.5Q1276 1527 1267 1524L1262 1526ZM1483 1524Q1472 1528 1464.0 1532.5Q1456 1537 1443 1537Q1436 1537 1432 1536L1426 1538Q1423 1541 1423 1544Q1423 1548 1424 1550Q1428 1553 1432.5 1553.5Q1437 1554 1441 1554Q1466 1554 1489 1539L1492 1534Q1492 1531 1490 1527Q1487 1524 1483 1524Z" style="fill:#d37034;stroke:none" transform="scale(1,-1) translate(0,-256)" /></svg>