<?xml version="1.0" encoding="utf-8" ?>
<svg baseProfile="full" height="256" version="1.1" width="256" xmlns="http://www.w3.org/2000/svg" xmlns:ev="http://www.w3.org/2001/xml-events" xmlns:xlink="http://www.w3.org/1999/xlink"><defs /><path d="M1346 1411Q1346 1414 1348.5 1422.5Q1351 1431 1354.0 1440.0Q1357 1449 1360.0 1457.0Q1363 1465 1364 1469Q1368 1478 1375 1478Q1383 1478 1387 1469Q1388 1466 1391.0 1457.5Q1394 1449 1397.0 1439.5Q1400 1430 1402.5 1422.0Q1405 1414 1405 1411Q1405 1404 1400.0 1399.5Q1395 1395 1388 1395H1364Q1357 1395 1351.5 1399.5Q1346 1404 1346 1411Z" style="fill:#ed9200;stroke:none" transform="scale(1,-1) translate(0,-256)" /></svg>