<?xml version="1.0" encoding="utf-8" ?>
<svg baseProfile="full" height="256" version="1.1" width="256" xmlns="http://www.w3.org/2000/svg" xmlns:ev="http://www.w3.org/2001/xml-events" xmlns:xlink="http://www.w3.org/1999/xlink"><defs /><path d="M855 958Q855 1072 898.0 1172.5Q941 1273 1016.0 1348.0Q1091 1423 1191.5 1466.5Q1292 1510 1406 1510Q1520 1510 1620.5 1466.5Q1721 1423 1795.5 1348.0Q1870 1273 1913.5 1172.5Q1957 1072 1957 958Q1957 854 1920.5 761.0Q1884 668 1820.0 595.0Q1756 522 1668.5 473.5Q1581 425 1478 412V309H1645Q1675 309 1696.0 288.0Q1717 267 1717 237Q1717 207 1695.5 186.5Q1674 166 1645 166H1478V0Q1478 -30 1457.0 -51.0Q1436 -72 1406 -72Q1376 -72 1355.0 -51.0Q1334 -30 1334 0V166H1167Q1138 166 1116.5 186.5Q1095 207 1095 237Q1095 267 1116.0 288.0Q1137 309 1167 309H1334V412Q1231 425 1143.5 473.5Q1056 522 992.0 595.0Q928 668 891.5 761.0Q855 854 855 958ZM1406 1366Q1322 1366 1247.5 1334.0Q1173 1302 1117.5 1246.5Q1062 1191 1030.0 1116.5Q998 1042 998 958Q998 874 1030.0 799.5Q1062 725 1117.5 670.0Q1173 615 1247.5 583.0Q1322 551 1406 551Q1490 551 1564.5 583.0Q1639 615 1694.0 670.0Q1749 725 1781.0 799.5Q1813 874 1813 958Q1813 1042 1781.0 1116.5Q1749 1191 1694.0 1246.5Q1639 1302 1564.5 1334.0Q1490 1366 1406 1366Z" style="fill:#ffffff;stroke:none" transform="scale(1,-1) translate(0,-256)" /></svg>