<?xml version="1.0" encoding="utf-8" ?>
<svg baseProfile="full" height="256" version="1.1" width="256" xmlns="http://www.w3.org/2000/svg" xmlns:ev="http://www.w3.org/2001/xml-events" xmlns:xlink="http://www.w3.org/1999/xlink"><defs /><path d="M903 649Q903 679 924.0 700.0Q945 721 975 721Q1004 721 1025.5 699.5Q1047 678 1047 649V577Q1047 548 1025.5 527.0Q1004 506 975 506Q946 506 924.5 527.0Q903 548 903 577ZM1765 649Q1765 679 1786.0 700.0Q1807 721 1837 721Q1867 721 1888.0 700.0Q1909 679 1909 649V577Q1909 548 1887.5 527.0Q1866 506 1837 506Q1808 506 1786.5 527.0Q1765 548 1765 577ZM1406 719Q1346 719 1293.5 696.5Q1241 674 1202.0 635.0Q1163 596 1140.5 543.5Q1118 491 1118 431V288Q1118 228 1140.5 175.5Q1163 123 1202.0 84.0Q1241 45 1293.5 22.5Q1346 0 1406 0Q1466 0 1518.0 22.5Q1570 45 1609.0 84.0Q1648 123 1670.5 175.5Q1693 228 1693 288V431Q1693 491 1670.5 543.5Q1648 596 1609.0 635.0Q1570 674 1518.0 696.5Q1466 719 1406 719Z" style="fill:#1c1c1c;stroke:none" transform="scale(1,-1) translate(0,-256)" /></svg>