<?xml version="1.0" encoding="utf-8" ?>
<svg baseProfile="full" height="256" version="1.1" width="256" xmlns="http://www.w3.org/2000/svg" xmlns:ev="http://www.w3.org/2001/xml-events" xmlns:xlink="http://www.w3.org/1999/xlink"><defs /><path d="M695 858Q623 909 583.0 985.5Q543 1062 543 1150Q543 1224 571.5 1289.5Q600 1355 649.0 1404.0Q698 1453 763.5 1481.5Q829 1510 903 1510Q959 1510 1012.5 1492.5Q1066 1475 1111 1443Q993 1386 905.5 1290.0Q818 1194 772 1073L771 1075ZM2118 858Q2189 909 2228.5 985.5Q2268 1062 2268 1150Q2268 1224 2239.5 1289.5Q2211 1355 2162.5 1404.0Q2114 1453 2048.5 1481.5Q1983 1510 1909 1510Q1853 1510 1799.5 1492.5Q1746 1475 1701 1443Q1819 1386 1907.0 1290.5Q1995 1195 2041 1073L2042 1075Z" style="fill:#636363;stroke:none" transform="scale(1,-1) translate(0,-256)" /></svg>