<?xml version="1.0" encoding="utf-8" ?>
<svg baseProfile="full" height="256" version="1.1" width="256" xmlns="http://www.w3.org/2000/svg" xmlns:ev="http://www.w3.org/2001/xml-events" xmlns:xlink="http://www.w3.org/1999/xlink"><defs /><path d="M1477 462Q1463 462 1452.0 473.0Q1441 484 1441 498Q1441 508 1448 519L1805 1023Q1812 1032 1818.0 1036.5Q1824 1041 1836 1041Q1847 1041 1854.0 1036.5Q1861 1032 1867 1023L2224 519Q2230 510 2230 498Q2230 483 2219.5 472.5Q2209 462 2194 462Q2177 462 2165 477L1836 943L1507 477Q1496 462 1477 462Z" style="fill:#212121;stroke:none" transform="scale(1,-1) translate(0,-256)" /></svg>