<?xml version="1.0" encoding="utf-8" ?>
<svg baseProfile="full" height="256" version="1.1" width="256" xmlns="http://www.w3.org/2000/svg" xmlns:ev="http://www.w3.org/2001/xml-events" xmlns:xlink="http://www.w3.org/1999/xlink"><defs /><path d="M615 1653H2197Q2226 1653 2247.0 1631.5Q2268 1610 2268 1581Q2268 1552 2247.0 1531.0Q2226 1510 2197 1510H1262V0H1316Q1354 0 1380.0 -26.0Q1406 -52 1406 -90V-144H615V-90Q615 -53 641.5 -26.5Q668 0 705 0H759V1510H615Q586 1510 564.5 1531.0Q543 1552 543 1581Q543 1610 564.5 1631.5Q586 1653 615 1653ZM831 1208 1146 1366H831ZM1190 0V158L875 0ZM831 58 1146 216H831ZM1190 1308 875 1150H1190ZM831 921 1146 1078H831ZM1190 1020 875 863H1190ZM831 633 1146 791H831ZM1190 733 875 575H1190ZM831 346 1146 503H831ZM1190 445 875 288H1190Z" style="fill:#ffb02e;stroke:none" transform="scale(1,-1) translate(0,-256)" /></svg>