<?xml version="1.0" encoding="utf-8" ?>
<svg baseProfile="full" height="256" version="1.1" width="256" xmlns="http://www.w3.org/2000/svg" xmlns:ev="http://www.w3.org/2001/xml-events" xmlns:xlink="http://www.w3.org/1999/xlink"><defs /><path d="M1406 -144Q1406 -174 1394.5 -200.0Q1383 -226 1363.5 -245.5Q1344 -265 1318.0 -276.0Q1292 -287 1262 -287Q1232 -287 1206.0 -276.0Q1180 -265 1160.5 -245.5Q1141 -226 1129.5 -200.0Q1118 -174 1118 -144Q1118 -114 1129.5 -88.0Q1141 -62 1160.5 -42.5Q1180 -23 1206.0 -11.5Q1232 0 1262 0Q1292 0 1318.0 -11.5Q1344 -23 1363.5 -42.5Q1383 -62 1394.5 -88.0Q1406 -114 1406 -144ZM1837 -144Q1837 -174 1825.5 -200.0Q1814 -226 1794.5 -245.5Q1775 -265 1749.0 -276.0Q1723 -287 1693 -287Q1663 -287 1637.0 -276.0Q1611 -265 1591.5 -245.5Q1572 -226 1561.0 -200.0Q1550 -174 1550 -144Q1550 -114 1561.0 -88.0Q1572 -62 1591.5 -42.5Q1611 -23 1637.0 -11.5Q1663 0 1693 0Q1723 0 1749.0 -11.5Q1775 -23 1794.5 -42.5Q1814 -62 1825.5 -88.0Q1837 -114 1837 -144ZM2412 -144H2268Q2268 -174 2279.5 -200.0Q2291 -226 2310.5 -245.5Q2330 -265 2356.0 -276.0Q2382 -287 2412 -287Z" style="fill:#636363;stroke:none" transform="scale(1,-1) translate(0,-256)" /></svg>