<?xml version="1.0" encoding="utf-8" ?>
<svg baseProfile="full" height="256" version="1.1" width="256" xmlns="http://www.w3.org/2000/svg" xmlns:ev="http://www.w3.org/2001/xml-events" xmlns:xlink="http://www.w3.org/1999/xlink"><defs /><path d="M2412 1198Q2412 1172 2393 1155L1880 688Q1862 672 1841 672Q1816 672 1798.0 689.5Q1780 707 1780 732V936Q1780 961 1763.0 978.0Q1746 995 1721 995H1090Q1066 995 1048.5 977.5Q1031 960 1031 936V732Q1031 707 1014.0 689.5Q997 672 972 672Q950 672 932 688L419 1155Q399 1173 399 1199Q399 1225 419 1243L932 1710Q948 1725 971 1725Q996 1725 1013.5 1708.0Q1031 1691 1031 1666V1460Q1031 1436 1048.5 1418.5Q1066 1401 1090 1401H1721Q1745 1401 1762.5 1418.5Q1780 1436 1780 1460V1665Q1780 1690 1797.5 1707.5Q1815 1725 1840 1725Q1862 1725 1880 1709L2393 1242Q2412 1225 2412 1198ZM1880 -37Q1880 -66 1901.0 -87.5Q1922 -109 1951 -109Q1981 -109 2002.0 -88.0Q2023 -67 2023 -37V309Q2023 338 2001.5 359.5Q1980 381 1951 381Q1922 381 1901.0 359.5Q1880 338 1880 309ZM1727 -288Q1709 -288 1693.0 -279.0Q1677 -270 1667 -255L1455 67V-216Q1455 -245 1433.5 -266.5Q1412 -288 1383 -288Q1354 -288 1332.5 -266.5Q1311 -245 1311 -216V308Q1311 337 1332.0 358.5Q1353 380 1383 380Q1400 380 1416.5 371.5Q1433 363 1443 348L1655 25V308Q1655 338 1676.0 359.0Q1697 380 1727 380Q1756 380 1777.0 358.5Q1798 337 1798 308V-216Q1798 -245 1777.0 -266.5Q1756 -288 1727 -288ZM1017 -288Q970 -288 928.5 -270.0Q887 -252 856.0 -221.0Q825 -190 807.0 -148.0Q789 -106 789 -59V152Q789 199 807.0 240.5Q825 282 856.0 313.0Q887 344 928.5 362.0Q970 380 1017 380Q1064 380 1105.5 362.0Q1147 344 1178.5 313.0Q1210 282 1228.0 240.5Q1246 199 1246 152V-59Q1246 -106 1228.0 -148.0Q1210 -190 1179.0 -221.0Q1148 -252 1106.0 -270.0Q1064 -288 1017 -288ZM1017 236Q982 236 957.0 211.5Q932 187 932 152V-59Q932 -94 957.0 -119.0Q982 -144 1017 -144Q1052 -144 1077.0 -119.0Q1102 -94 1102 -59V152Q1102 187 1077.0 211.5Q1052 236 1017 236ZM1951 -288Q1978 -288 1997.5 -268.5Q2017 -249 2017 -222Q2017 -195 1997.5 -176.0Q1978 -157 1951 -157Q1924 -157 1905.0 -176.0Q1886 -195 1886 -222Q1886 -249 1905.0 -268.5Q1924 -288 1951 -288Z" style="fill:#635994;stroke:none" transform="scale(1,-1) translate(0,-256)" /></svg>