<?xml version="1.0" encoding="utf-8" ?>
<svg baseProfile="full" height="256" version="1.1" width="256" xmlns="http://www.w3.org/2000/svg" xmlns:ev="http://www.w3.org/2001/xml-events" xmlns:xlink="http://www.w3.org/1999/xlink"><defs /><path d="M1334 1057Q1334 1034 1316.0 1020.5Q1298 1007 1277 1007Q1217 1007 1163.5 1025.0Q1110 1043 1067.0 1076.0Q1024 1109 992.0 1155.5Q960 1202 942 1259Q939 1268 939 1277Q939 1299 955.0 1314.5Q971 1330 993 1330Q1011 1330 1024.5 1319.5Q1038 1309 1044 1293Q1059 1253 1079.5 1218.0Q1100 1183 1136 1158Q1169 1135 1206.5 1126.0Q1244 1117 1283 1114Q1307 1112 1320.5 1096.5Q1334 1081 1334 1057ZM1478 1057Q1478 1081 1491.5 1096.5Q1505 1112 1529 1114Q1568 1117 1605.0 1126.0Q1642 1135 1675 1158Q1712 1184 1732.0 1218.0Q1752 1252 1768 1293Q1774 1309 1787.5 1319.5Q1801 1330 1819 1330Q1841 1330 1857.0 1314.5Q1873 1299 1873 1277Q1873 1268 1870 1259Q1852 1202 1820.0 1155.5Q1788 1109 1745.0 1076.0Q1702 1043 1648.5 1025.0Q1595 1007 1535 1007Q1513 1007 1495.5 1020.5Q1478 1034 1478 1057ZM1262 791Q1262 761 1250.5 734.5Q1239 708 1219.5 688.5Q1200 669 1174.0 658.0Q1148 647 1118 647Q1088 647 1062.0 658.5Q1036 670 1016.5 689.5Q997 709 986.0 735.0Q975 761 975 791Q975 821 986.0 847.0Q997 873 1016.5 892.5Q1036 912 1062.0 923.5Q1088 935 1118 935Q1148 935 1174.0 923.5Q1200 912 1219.5 892.5Q1239 873 1250.5 847.0Q1262 821 1262 791ZM1837 791Q1837 761 1825.5 734.5Q1814 708 1794.5 688.5Q1775 669 1749.0 658.0Q1723 647 1693 647Q1663 647 1637.0 658.5Q1611 670 1591.5 689.5Q1572 709 1561.0 735.0Q1550 761 1550 791Q1550 821 1561.0 847.0Q1572 873 1591.5 892.5Q1611 912 1637.0 923.5Q1663 935 1693 935Q1723 935 1749.0 923.5Q1775 912 1794.5 892.5Q1814 873 1825.5 847.0Q1837 821 1837 791Z" style="fill:#402a32;stroke:none" transform="scale(1,-1) translate(0,-256)" /></svg>