<?xml version="1.0" encoding="utf-8" ?>
<svg baseProfile="full" height="256" version="1.1" width="256" xmlns="http://www.w3.org/2000/svg" xmlns:ev="http://www.w3.org/2001/xml-events" xmlns:xlink="http://www.w3.org/1999/xlink"><defs /><path d="M759 324Q759 346 767.5 366.0Q776 386 791.0 400.0Q806 414 825.5 422.5Q845 431 867 431H1945Q1967 431 1986.5 422.5Q2006 414 2021.0 400.0Q2036 386 2044.5 366.0Q2053 346 2053 324V-108Q2053 -131 2044.5 -150.5Q2036 -170 2021.0 -184.0Q2006 -198 1986.5 -206.5Q1967 -215 1945 -215H867Q845 -215 825.5 -206.5Q806 -198 791.0 -184.0Q776 -170 767.5 -150.5Q759 -131 759 -108Z" style="fill:#533566;stroke:none" transform="scale(1,-1) translate(0,-256)" /></svg>