<?xml version="1.0" encoding="utf-8" ?>
<svg baseProfile="full" height="256" version="1.1" width="256" xmlns="http://www.w3.org/2000/svg" xmlns:ev="http://www.w3.org/2001/xml-events" xmlns:xlink="http://www.w3.org/1999/xlink"><defs /><path d="M1154 252Q1154 243 1150.0 233.5Q1146 224 1143 216H1246Q1250 225 1253.5 237.5Q1257 250 1262.5 261.0Q1268 272 1276.0 279.5Q1284 287 1298 287Q1313 287 1323.5 276.5Q1334 266 1334 251Q1334 242 1330.0 233.0Q1326 224 1323 216Q1341 216 1355.5 209.0Q1370 202 1370 180Q1370 164 1362.5 156.5Q1355 149 1343.5 146.0Q1332 143 1319.0 143.5Q1306 144 1296 144L1269 72Q1279 72 1290.5 72.0Q1302 72 1311.5 69.0Q1321 66 1327.5 58.5Q1334 51 1334 36Q1334 12 1316.5 5.5Q1299 -1 1279 -1Q1268 -1 1259.0 -0.5Q1250 0 1242 0Q1239 -9 1235.5 -21.5Q1232 -34 1226.5 -45.0Q1221 -56 1212.5 -63.5Q1204 -71 1191 -71Q1176 -71 1165.5 -60.5Q1155 -50 1155 -36Q1155 -27 1158.5 -17.5Q1162 -8 1165 0H1062Q1059 -9 1055.5 -21.0Q1052 -33 1046.5 -44.5Q1041 -56 1032.5 -63.5Q1024 -71 1011 -71Q996 -71 985.5 -61.0Q975 -51 975 -36Q975 -27 979.0 -17.5Q983 -8 986 0Q968 0 953.5 7.0Q939 14 939 36Q939 52 946.5 59.5Q954 67 965.5 70.0Q977 73 989.5 72.5Q1002 72 1013 72L1040 144Q1030 144 1018.5 144.0Q1007 144 997.5 147.0Q988 150 981.5 157.5Q975 165 975 180Q975 204 992.5 210.5Q1010 217 1030 217Q1041 217 1050.0 216.5Q1059 216 1067 216Q1070 225 1073.5 237.0Q1077 249 1082.5 260.5Q1088 272 1096.5 279.5Q1105 287 1118 287Q1133 287 1143.5 277.0Q1154 267 1154 252ZM1219 144H1116L1089 72H1192ZM1621 252Q1621 246 1614.0 224.5Q1607 203 1596.0 172.5Q1585 142 1571.5 107.5Q1558 73 1546.0 41.5Q1534 10 1524.0 -14.5Q1514 -39 1511 -48Q1503 -71 1478 -71Q1464 -71 1453.0 -60.5Q1442 -50 1442 -35Q1442 -30 1449.0 -8.5Q1456 13 1467.0 43.5Q1478 74 1491.5 108.5Q1505 143 1517.0 174.5Q1529 206 1538.5 230.5Q1548 255 1552 264Q1556 275 1565.0 281.0Q1574 287 1585 287Q1600 287 1610.5 276.5Q1621 266 1621 252ZM1622 -72Q1607 -72 1596.5 -61.5Q1586 -51 1586 -36Q1586 -21 1596.5 -10.5Q1607 0 1622 0Q1636 0 1647.0 -11.0Q1658 -22 1658 -36Q1658 -50 1647.0 -61.0Q1636 -72 1622 -72ZM1837 108Q1837 93 1826.5 82.5Q1816 72 1801 72Q1786 72 1775.5 82.5Q1765 93 1765 108V252Q1765 267 1775.5 277.5Q1786 288 1801 288Q1816 288 1826.5 277.5Q1837 267 1837 252ZM1442 216Q1427 216 1416.5 226.5Q1406 237 1406 252Q1406 267 1416.5 277.5Q1427 288 1442 288Q1457 288 1467.5 277.5Q1478 267 1478 252Q1478 237 1467.5 226.5Q1457 216 1442 216ZM1837 -36Q1837 -51 1826.5 -61.5Q1816 -72 1801 -72Q1786 -72 1775.5 -61.5Q1765 -51 1765 -36Q1765 -21 1775.5 -10.5Q1786 0 1801 0Q1816 0 1826.5 -10.5Q1837 -21 1837 -36Z" style="fill:#ffffff;stroke:none" transform="scale(1,-1) translate(0,-256)" /></svg>