<?xml version="1.0" encoding="utf-8" ?>
<svg baseProfile="full" height="256" version="1.1" width="256" xmlns="http://www.w3.org/2000/svg" xmlns:ev="http://www.w3.org/2001/xml-events" xmlns:xlink="http://www.w3.org/1999/xlink"><defs /><path d="M896 731Q896 698 873.0 674.5Q850 651 816 651Q783 651 760 674L759 675L758 674Q735 651 701 651Q685 651 670.5 657.5Q656 664 645.0 674.5Q634 685 627.5 699.5Q621 714 621 731Q621 764 645 788Q657 800 669.5 814.0Q682 828 695.5 840.0Q709 852 724.5 860.0Q740 868 759 868Q778 868 794.0 860.5Q810 853 823.5 841.0Q837 829 849.0 815.0Q861 801 873 788Q896 765 896 731ZM1210 518H1540Q1491 465 1469.0 393.5Q1447 322 1447 252V35H1111Q1048 35 990.0 54.0Q932 73 883.5 108.0Q835 143 798.5 192.0Q762 241 742 301H842Q881 301 918.0 313.0Q955 325 986.5 346.5Q1018 368 1042.0 398.0Q1066 428 1080 464Q1084 474 1084.5 484.0Q1085 494 1084 504Q1087 505 1106.0 507.5Q1125 510 1147.5 512.0Q1170 514 1188.5 516.0Q1207 518 1210 518Z" style="fill:#f3ad61;stroke:none" transform="scale(1,-1) translate(0,-256)" /></svg>