<?xml version="1.0" encoding="utf-8" ?>
<svg baseProfile="full" height="256" version="1.1" width="256" xmlns="http://www.w3.org/2000/svg" xmlns:ev="http://www.w3.org/2001/xml-events" xmlns:xlink="http://www.w3.org/1999/xlink"><defs /><path d="M1029 679Q1065 679 1097.0 665.0Q1129 651 1153.0 627.0Q1177 603 1191.0 571.0Q1205 539 1205 503V432Q1205 400 1183.0 378.5Q1161 357 1129 357H1058Q1045 357 1033.0 359.0Q1021 361 1009 364Q1021 374 1034.5 389.5Q1048 405 1059.0 422.0Q1070 439 1077.5 457.5Q1085 476 1085 492Q1085 525 1061.5 549.0Q1038 573 1005 573Q977 573 962.5 562.0Q948 551 938.5 536.0Q929 521 919.5 504.5Q910 488 892 476Q883 503 883 532V603Q883 635 904.5 657.0Q926 679 958 679H1029Z" style="fill:#d3d3d3;stroke:none" transform="scale(1,-1) translate(0,-256)" /></svg>