<?xml version="1.0" encoding="utf-8" ?>
<svg baseProfile="full" height="256" version="1.1" width="256" xmlns="http://www.w3.org/2000/svg" xmlns:ev="http://www.w3.org/2001/xml-events" xmlns:xlink="http://www.w3.org/1999/xlink"><defs /><path d="M1766 1581Q1855 1581 1937.5 1558.0Q2020 1535 2091.5 1493.0Q2163 1451 2222.5 1391.5Q2282 1332 2324.0 1260.5Q2366 1189 2389.0 1106.5Q2412 1024 2412 935Q2412 849 2390.0 767.5Q2368 686 2328.0 614.0Q2288 542 2231.0 482.0Q2174 422 2105.0 379.0Q2036 336 1955.5 312.0Q1875 288 1787 288H874Q776 288 690.0 325.5Q604 363 539.5 427.5Q475 492 437.5 578.0Q400 664 400 762Q400 857 437.5 943.5Q475 1030 539.5 1094.5Q604 1159 690.5 1195.5Q777 1232 874 1227Q892 1266 919.5 1297.0Q947 1328 981.5 1350.5Q1016 1373 1056.0 1385.0Q1096 1397 1139 1397Q1214 1397 1279 1361Q1285 1368 1291.0 1374.5Q1297 1381 1304 1387Q1398 1481 1515.0 1531.0Q1632 1581 1766 1581Z" style="fill:#f3eef8;stroke:none" transform="scale(1,-1) translate(0,-256)" /></svg>