<?xml version="1.0" encoding="utf-8" ?>
<svg baseProfile="full" height="256" version="1.1" width="256" xmlns="http://www.w3.org/2000/svg" xmlns:ev="http://www.w3.org/2001/xml-events" xmlns:xlink="http://www.w3.org/1999/xlink"><defs /><path d="M1765 1653Q1864 1653 1956.0 1627.5Q2048 1602 2128.0 1555.5Q2208 1509 2273.5 1443.5Q2339 1378 2386.0 1298.0Q2433 1218 2458.5 1126.0Q2484 1034 2484 935Q2484 839 2459.5 748.5Q2435 658 2390.0 578.0Q2345 498 2282.0 431.5Q2219 365 2141.5 317.0Q2064 269 1974.5 242.5Q1885 216 1787 216H874Q762 216 663.0 259.5Q564 303 489.5 377.0Q415 451 371.5 550.5Q328 650 328 762Q328 868 367.0 962.5Q406 1057 473.5 1129.5Q541 1202 633.0 1247.0Q725 1292 831 1298Q856 1338 889.5 1370.0Q923 1402 963.0 1424.0Q1003 1446 1047.5 1457.5Q1092 1469 1139 1469Q1201 1469 1262 1447Q1363 1547 1493.0 1600.0Q1623 1653 1765 1653Z" style="fill:#b4acbc;stroke:none" transform="scale(1,-1) translate(0,-256)" /></svg>