<?xml version="1.0" encoding="utf-8" ?>
<svg baseProfile="full" height="256" version="1.1" width="256" xmlns="http://www.w3.org/2000/svg" xmlns:ev="http://www.w3.org/2001/xml-events" xmlns:xlink="http://www.w3.org/1999/xlink"><defs /><path d="M939 1726Q979 1726 999.5 1710.0Q1020 1694 1034.0 1675.0Q1048 1656 1062.0 1640.0Q1076 1624 1103 1624Q1117 1624 1128.5 1629.0Q1140 1634 1152.0 1640.5Q1164 1647 1177.5 1652.0Q1191 1657 1209 1657Q1231 1657 1250.5 1648.5Q1270 1640 1284.5 1626.0Q1299 1612 1307.5 1593.0Q1316 1574 1316 1552Q1316 1538 1313.0 1524.5Q1310 1511 1310 1497Q1310 1478 1317.0 1466.0Q1324 1454 1335.0 1446.5Q1346 1439 1361.0 1435.5Q1376 1432 1391 1430Q1433 1425 1459.5 1394.5Q1486 1364 1486 1322Q1486 1293 1475.5 1275.5Q1465 1258 1452.0 1245.0Q1439 1232 1428.5 1218.5Q1418 1205 1418 1183Q1418 1160 1429.5 1146.5Q1441 1133 1454.5 1119.5Q1468 1106 1479.5 1088.5Q1491 1071 1491 1041Q1491 999 1465.5 970.0Q1440 941 1399 934Q1384 931 1370.0 927.0Q1356 923 1345.0 915.5Q1334 908 1327.5 896.0Q1321 884 1321 866Q1321 851 1324.5 836.5Q1328 822 1328 807Q1328 785 1319.5 765.5Q1311 746 1296.5 731.5Q1282 717 1262.5 708.5Q1243 700 1221 700Q1203 700 1190.0 705.0Q1177 710 1166.0 715.5Q1155 721 1144.0 726.0Q1133 731 1120 731Q1101 731 1089.0 723.0Q1077 715 1067.5 703.0Q1058 691 1049.5 677.0Q1041 663 1028.5 651.0Q1016 639 998.0 631.0Q980 623 952 623Q925 623 907.5 630.5Q890 638 877.5 649.5Q865 661 856.5 674.0Q848 687 838.5 698.5Q829 710 817.0 717.5Q805 725 787 725Q773 725 762.0 720.0Q751 715 739.0 708.5Q727 702 713.5 697.0Q700 692 682 692Q660 692 640.5 700.5Q621 709 606.0 723.5Q591 738 582.5 757.0Q574 776 574 798Q574 812 577.5 824.5Q581 837 581 851Q581 870 574.0 882.5Q567 895 556.0 902.5Q545 910 530.5 913.5Q516 917 500 919Q458 924 431.0 954.0Q404 984 404 1026Q404 1055 415.0 1072.5Q426 1090 438.5 1103.5Q451 1117 462.0 1131.0Q473 1145 473 1166Q473 1188 461.5 1202.0Q450 1216 436.5 1229.5Q423 1243 411.5 1261.0Q400 1279 400 1309Q400 1351 425.5 1379.5Q451 1408 491 1415Q506 1418 520.0 1422.0Q534 1426 545.5 1433.5Q557 1441 563.5 1453.0Q570 1465 570 1483Q570 1498 566.5 1512.5Q563 1527 563 1541Q563 1563 571.5 1582.5Q580 1602 594.5 1617.0Q609 1632 628.5 1640.5Q648 1649 670 1649Q688 1649 701.0 1644.0Q714 1639 725.0 1633.5Q736 1628 747.0 1623.0Q758 1618 771 1618Q799 1618 813.5 1635.0Q828 1652 841.5 1672.0Q855 1692 876.0 1709.0Q897 1726 939 1726Z" style="fill:#ff822d;stroke:none" transform="scale(1,-1) translate(0,-256)" /></svg>