<?xml version="1.0" encoding="utf-8" ?>
<svg baseProfile="full" height="256" version="1.1" width="256" xmlns="http://www.w3.org/2000/svg" xmlns:ev="http://www.w3.org/2001/xml-events" xmlns:xlink="http://www.w3.org/1999/xlink"><defs /><path d="M944 748Q855 748 777.5 781.5Q700 815 642.0 873.0Q584 931 550.5 1008.5Q517 1086 517 1175Q517 1263 550.5 1341.0Q584 1419 642.0 1477.0Q700 1535 777.5 1568.5Q855 1602 944 1602Q1032 1602 1110.0 1568.5Q1188 1535 1246.0 1477.0Q1304 1419 1337.5 1341.0Q1371 1263 1371 1175Q1371 1086 1337.5 1008.5Q1304 931 1246.0 873.0Q1188 815 1110.0 781.5Q1032 748 944 748Z" style="fill:#f9c23c;stroke:none" transform="scale(1,-1) translate(0,-256)" /></svg>