<?xml version="1.0" encoding="utf-8" ?>
<svg baseProfile="full" height="256" version="1.1" width="256" xmlns="http://www.w3.org/2000/svg" xmlns:ev="http://www.w3.org/2001/xml-events" xmlns:xlink="http://www.w3.org/1999/xlink"><defs /><path d="M957 65Q957 24 933 -9L767 -236Q750 -260 723.0 -273.5Q696 -287 666 -287Q640 -287 617.5 -277.0Q595 -267 578.0 -250.0Q561 -233 551.0 -210.5Q541 -188 541 -162Q541 -142 547.0 -123.0Q553 -104 565 -88L731 139Q749 163 776.0 177.0Q803 191 833 191Q859 191 881.5 181.0Q904 171 921.0 154.0Q938 137 947.5 114.0Q957 91 957 65ZM1139 -287Q1113 -287 1090.5 -277.0Q1068 -267 1051.0 -250.0Q1034 -233 1024.0 -210.5Q1014 -188 1014 -162Q1014 -142 1020.0 -123.0Q1026 -104 1038 -88L1204 139Q1222 163 1249.0 177.0Q1276 191 1306 191Q1332 191 1354.5 181.0Q1377 171 1394.0 154.0Q1411 137 1420.5 114.0Q1430 91 1430 65Q1430 22 1406 -9L1240 -236Q1223 -260 1196.0 -273.5Q1169 -287 1139 -287ZM1611 -287Q1585 -287 1562.5 -277.0Q1540 -267 1523.0 -250.0Q1506 -233 1496.0 -210.5Q1486 -188 1486 -162Q1486 -142 1492.0 -123.0Q1498 -104 1510 -88L1676 139Q1694 163 1721.0 177.0Q1748 191 1778 191Q1804 191 1826.5 181.0Q1849 171 1866.0 154.0Q1883 137 1893.0 114.0Q1903 91 1903 65Q1903 45 1896.5 26.0Q1890 7 1879 -9L1713 -236Q1695 -260 1668.0 -273.5Q1641 -287 1611 -287Z" style="fill:#3f5fff;stroke:none" transform="scale(1,-1) translate(0,-256)" /></svg>