<?xml version="1.0" encoding="utf-8" ?>
<svg baseProfile="full" height="256" version="1.1" width="256" xmlns="http://www.w3.org/2000/svg" xmlns:ev="http://www.w3.org/2001/xml-events" xmlns:xlink="http://www.w3.org/1999/xlink"><defs /><path d="M2259 -287H552Q520 -287 492.5 -275.0Q465 -263 444.5 -242.5Q424 -222 412.0 -194.5Q400 -167 400 -135V927Q400 958 412.0 986.0Q424 1014 445.0 1034.0Q466 1054 493.5 1066.0Q521 1078 552 1078H2259Q2290 1078 2318.0 1066.0Q2346 1054 2367.0 1034.0Q2388 1014 2400.0 986.0Q2412 958 2412 927V-135Q2412 -167 2400.0 -194.5Q2388 -222 2367.0 -242.5Q2346 -263 2318.0 -275.0Q2290 -287 2259 -287Z" style="fill:#fcd53f;stroke:none" transform="scale(1,-1) translate(0,-256)" /></svg>