<?xml version="1.0" encoding="utf-8" ?>
<svg baseProfile="full" height="256" version="1.1" width="256" xmlns="http://www.w3.org/2000/svg" xmlns:ev="http://www.w3.org/2001/xml-events" xmlns:xlink="http://www.w3.org/1999/xlink"><defs /><path d="M579 696Q579 713 584.0 732.5Q589 752 597 768Q608 787 618.5 790.5Q629 794 649 794H858Q867 794 877.0 792.0Q887 790 887 778Q887 771 884.5 764.5Q882 758 880 751Q868 721 849.5 690.0Q831 659 806.0 634.0Q781 609 750.0 593.0Q719 577 684 577Q660 577 640.5 587.0Q621 597 607.5 614.0Q594 631 586.5 652.0Q579 673 579 696Z" style="fill:#e1d8ec;stroke:none" transform="scale(1,-1) translate(0,-256)" /></svg>