<?xml version="1.0" encoding="utf-8" ?>
<svg baseProfile="full" height="256" version="1.1" width="256" xmlns="http://www.w3.org/2000/svg" xmlns:ev="http://www.w3.org/2001/xml-events" xmlns:xlink="http://www.w3.org/1999/xlink"><defs /><path d="M916 793H1204Q1228 793 1228 770Q1228 762 1226.0 754.0Q1224 746 1222 738Q1213 703 1193.5 673.5Q1174 644 1146.5 622.5Q1119 601 1085.5 589.0Q1052 577 1016 577Q986 577 958.5 586.5Q931 596 910.5 613.5Q890 631 878.0 656.0Q866 681 866 713Q866 725 868.0 739.0Q870 753 876.0 765.0Q882 777 891.5 785.0Q901 793 916 793Z" style="fill:#e5336d;stroke:none" transform="scale(1,-1) translate(0,-256)" /></svg>