<?xml version="1.0" encoding="utf-8" ?>
<svg baseProfile="full" height="256" version="1.1" width="256" xmlns="http://www.w3.org/2000/svg" xmlns:ev="http://www.w3.org/2001/xml-events" xmlns:xlink="http://www.w3.org/1999/xlink"><defs /><path d="M1425 1714H1428Q1437 1714 1457.0 1709.0Q1477 1704 1502.0 1696.0Q1527 1688 1554.5 1678.5Q1582 1669 1607.0 1659.5Q1632 1650 1651.0 1641.5Q1670 1633 1679 1628Q1692 1621 1692 1610Q1692 1602 1688.0 1598.5Q1684 1595 1679 1591Q1673 1587 1654.0 1580.0Q1635 1573 1609.0 1564.0Q1583 1555 1553.5 1546.0Q1524 1537 1497.5 1529.5Q1471 1522 1451.5 1517.0Q1432 1512 1425 1512Q1426 1563 1425.5 1613.0Q1425 1663 1425 1714ZM1900 793Q1915 793 1924.5 785.0Q1934 777 1940.0 765.0Q1946 753 1948.0 739.0Q1950 725 1950 713Q1950 681 1938.0 656.0Q1926 631 1906.0 613.5Q1886 596 1858.5 586.5Q1831 577 1801 577Q1763 577 1725.5 592.5Q1688 608 1658.0 634.0Q1628 660 1609.5 695.5Q1591 731 1591 771Q1591 793 1615 793Z" style="fill:#f8312f;stroke:none" transform="scale(1,-1) translate(0,-256)" /></svg>