<?xml version="1.0" encoding="utf-8" ?>
<svg baseProfile="full" height="256" version="1.1" width="256" xmlns="http://www.w3.org/2000/svg" xmlns:ev="http://www.w3.org/2001/xml-events" xmlns:xlink="http://www.w3.org/1999/xlink"><defs /><path d="M1047 774H2166Q2179 774 2187.5 768.0Q2196 762 2201.0 753.0Q2206 744 2208.5 733.0Q2211 722 2213 712Q2237 580 2256.0 447.5Q2275 315 2291 181Q2299 110 2308.5 40.0Q2318 -30 2326 -101Q2330 -132 2335.0 -164.5Q2340 -197 2340 -229Q2340 -287 2279 -287H2022Q2022 -287 1997.0 -278.5Q1972 -270 1931.5 -256.5Q1891 -243 1839.0 -225.5Q1787 -208 1731.5 -189.0Q1676 -170 1622.0 -151.5Q1568 -133 1524.0 -118.0Q1480 -103 1449.5 -93.0Q1419 -83 1412 -80L1047 -143Z" style="fill:#ff5e59;stroke:none" transform="scale(1,-1) translate(0,-256)" /></svg>