<?xml version="1.0" encoding="utf-8" ?>
<svg baseProfile="full" height="256" version="1.1" width="256" xmlns="http://www.w3.org/2000/svg" xmlns:ev="http://www.w3.org/2001/xml-events" xmlns:xlink="http://www.w3.org/1999/xlink"><defs /><path d="M2235 695Q2235 672 2228.0 651.0Q2221 630 2207.5 613.5Q2194 597 2174.5 587.0Q2155 577 2131 577Q2096 577 2065.5 593.0Q2035 609 2010.0 634.5Q1985 660 1966.0 690.5Q1947 721 1936 751Q1934 758 1931.5 764.5Q1929 771 1929 779Q1929 790 1939.0 792.0Q1949 794 1957 794H2166Q2186 794 2196.0 790.5Q2206 787 2217 768Q2226 752 2230.5 732.5Q2235 713 2235 695Z" style="fill:#e1d8ec;stroke:none" transform="scale(1,-1) translate(0,-256)" /></svg>