<?xml version="1.0" encoding="utf-8" ?>
<svg baseProfile="full" height="256" version="1.1" width="256" xmlns="http://www.w3.org/2000/svg" xmlns:ev="http://www.w3.org/2001/xml-events" xmlns:xlink="http://www.w3.org/1999/xlink"><defs /><path d="M895 786Q896 797 904.0 806.0Q912 815 919 822Q930 833 942.5 842.5Q955 852 966 862Q990 883 1014.0 904.0Q1038 925 1061 947Q1146 1028 1224.0 1114.0Q1302 1200 1369 1296H1396Q1391 1278 1378.0 1234.5Q1365 1191 1348.5 1136.5Q1332 1082 1313.0 1022.0Q1294 962 1277.0 910.5Q1260 859 1246.0 822.0Q1232 785 1226 777Q1222 772 1213.5 769.5Q1205 767 1195.5 766.0Q1186 765 1177.0 765.0Q1168 765 1163 765Q1134 765 1104.0 766.0Q1074 767 1045 767Q1016 767 986.0 767.5Q956 768 927 773Q925 773 920.0 774.0Q915 775 909.0 776.5Q903 778 898.5 780.5Q894 783 895 786Z" style="fill:#f837a2;stroke:none" transform="scale(1,-1) translate(0,-256)" /></svg>