<?xml version="1.0" encoding="utf-8" ?>
<svg baseProfile="full" height="256" version="1.1" width="256" xmlns="http://www.w3.org/2000/svg" xmlns:ev="http://www.w3.org/2001/xml-events" xmlns:xlink="http://www.w3.org/1999/xlink"><defs /><path d="M1334 1355Q1334 1374 1339.0 1385.0Q1344 1396 1349.5 1404.5Q1355 1413 1360.0 1422.5Q1365 1432 1365 1448V1670Q1365 1691 1374.5 1705.5Q1384 1720 1407 1720Q1430 1720 1439.0 1705.5Q1448 1691 1448 1670V1448Q1448 1434 1452.5 1423.5Q1457 1413 1462.5 1403.5Q1468 1394 1472.5 1382.5Q1477 1371 1477 1355Q1477 1346 1477.5 1335.0Q1478 1324 1476.0 1314.5Q1474 1305 1468.0 1298.5Q1462 1292 1448 1292H1358Q1346 1292 1340.0 1300.0Q1334 1308 1334 1319Z" style="fill:#ffb02e;stroke:none" transform="scale(1,-1) translate(0,-256)" /></svg>