<?xml version="1.0" encoding="utf-8" ?>
<svg baseProfile="full" height="256" version="1.1" width="256" xmlns="http://www.w3.org/2000/svg" xmlns:ev="http://www.w3.org/2001/xml-events" xmlns:xlink="http://www.w3.org/1999/xlink"><defs /><path d="M728 935Q780 935 826.0 915.0Q872 895 906.0 861.0Q940 827 959.5 781.0Q979 735 979 683V324Q979 272 959.5 226.0Q940 180 906.0 146.0Q872 112 826.0 92.0Q780 72 728 72Q676 72 630.0 92.0Q584 112 550.0 146.0Q516 180 496.0 226.0Q476 272 476 324V683Q476 735 496.0 781.0Q516 827 550.0 861.0Q584 895 630.0 915.0Q676 935 728 935ZM1658 935Q1710 935 1755.5 915.0Q1801 895 1835.0 860.5Q1869 826 1889.0 780.5Q1909 735 1909 683V324Q1909 272 1889.0 226.5Q1869 181 1835.0 146.5Q1801 112 1755.5 92.0Q1710 72 1658 72Q1606 72 1560.0 92.0Q1514 112 1480.0 146.0Q1446 180 1426.0 226.0Q1406 272 1406 324V683Q1406 735 1426.0 781.0Q1446 827 1480.0 861.0Q1514 895 1560.0 915.0Q1606 935 1658 935Z" style="fill:#321b41;stroke:none" transform="scale(1,-1) translate(0,-256)" /></svg>