<?xml version="1.0" encoding="utf-8" ?>
<svg baseProfile="full" height="256" version="1.1" width="256" xmlns="http://www.w3.org/2000/svg" xmlns:ev="http://www.w3.org/2001/xml-events" xmlns:xlink="http://www.w3.org/1999/xlink"><defs /><path d="M903 701Q903 677 888.5 661.0Q874 645 849 645Q832 645 816.0 653.0Q800 661 788.0 673.5Q776 686 769.0 702.0Q762 718 762 735Q762 759 777.0 775.5Q792 792 817 792Q834 792 849.5 784.0Q865 776 877.0 763.5Q889 751 896.0 734.5Q903 718 903 701ZM1838 702Q1838 678 1823.0 661.5Q1808 645 1783 645Q1766 645 1750.0 653.0Q1734 661 1722.0 673.5Q1710 686 1703.0 702.0Q1696 718 1696 735Q1696 759 1711.0 775.5Q1726 792 1751 792Q1768 792 1784.0 784.0Q1800 776 1812.0 763.5Q1824 751 1831.0 734.5Q1838 718 1838 702Z" style="fill:#f4f4f4;stroke:none" transform="scale(1,-1) translate(0,-256)" /></svg>