<?xml version="1.0" encoding="utf-8" ?>
<svg baseProfile="full" height="256" version="1.1" width="256" xmlns="http://www.w3.org/2000/svg" xmlns:ev="http://www.w3.org/2001/xml-events" xmlns:xlink="http://www.w3.org/1999/xlink"><defs /><path d="M939 1294Q1011 1294 1079.5 1275.5Q1148 1257 1208.5 1222.0Q1269 1187 1319.5 1137.0Q1370 1087 1406 1024Q1442 1087 1492.5 1137.0Q1543 1187 1603.5 1222.0Q1664 1257 1732.5 1275.5Q1801 1294 1873 1294Q1985 1294 2083.0 1251.5Q2181 1209 2254.0 1136.0Q2327 1063 2369.5 965.0Q2412 867 2412 755V252Q2412 140 2369.5 42.0Q2327 -56 2254.0 -129.0Q2181 -202 2083.0 -244.5Q1985 -287 1873 -287Q1801 -287 1732.5 -268.5Q1664 -250 1603.5 -215.0Q1543 -180 1492.5 -130.0Q1442 -80 1406 -17Q1370 -80 1319.5 -130.0Q1269 -180 1208.5 -215.0Q1148 -250 1079.5 -268.5Q1011 -287 939 -287Q827 -287 729.0 -244.5Q631 -202 558.0 -129.0Q485 -56 442.5 42.0Q400 140 400 252V755Q400 867 442.5 965.0Q485 1063 558.0 1136.0Q631 1209 729.0 1251.5Q827 1294 939 1294Z" style="fill:#ffffff;stroke:none" transform="scale(1,-1) translate(0,-256)" /></svg>