<?xml version="1.0" encoding="utf-8" ?>
<svg baseProfile="full" height="256" version="1.1" width="256" xmlns="http://www.w3.org/2000/svg" xmlns:ev="http://www.w3.org/2001/xml-events" xmlns:xlink="http://www.w3.org/1999/xlink"><defs /><path d="M2412 360 2268 36 1549 -36Q1496 -41 1453.5 -47.5Q1411 -54 1370.0 -59.5Q1329 -65 1286.0 -68.5Q1243 -72 1190 -72H578Q540 -72 507.5 -57.5Q475 -43 451.0 -17.5Q427 8 413.5 41.0Q400 74 400 112Q400 152 416.0 187.0Q432 222 461 248Q468 255 494.0 278.0Q520 301 555.5 332.5Q591 364 630.0 399.5Q669 435 703.0 465.0Q737 495 760.0 515.0Q783 535 786 537Q814 553 839.0 563.5Q864 574 888.0 583.0Q912 592 937.5 601.0Q963 610 993 622L1406 791Q1417 796 1422.0 803.0Q1427 810 1436 818Q1487 863 1537.0 907.0Q1587 951 1638 995Q1707 1054 1778.0 1106.5Q1849 1159 1924 1210Q1947 1224 1975.0 1245.5Q2003 1267 2026 1278Q2027 1278 2034.5 1280.5Q2042 1283 2051.5 1285.5Q2061 1288 2068.5 1290.5Q2076 1293 2077 1293Q2160 1316 2243.5 1334.0Q2327 1352 2412 1366Z" style="fill:#0074ba;stroke:none" transform="scale(1,-1) translate(0,-256)" /></svg>