<?xml version="1.0" encoding="utf-8" ?>
<svg baseProfile="full" height="256" version="1.1" width="256" xmlns="http://www.w3.org/2000/svg" xmlns:ev="http://www.w3.org/2001/xml-events" xmlns:xlink="http://www.w3.org/1999/xlink"><defs /><path d="M2125 -287H1909L1801 -215L1693 -287H1622Q1621 -287 1606.5 -282.0Q1592 -277 1570.0 -270.0Q1548 -263 1521.5 -254.0Q1495 -245 1471.5 -237.0Q1448 -229 1430.0 -223.0Q1412 -217 1406 -215Q1398 -218 1380.0 -224.0Q1362 -230 1339.5 -238.0Q1317 -246 1293.0 -254.5Q1269 -263 1247.5 -270.0Q1226 -277 1210.5 -282.0Q1195 -287 1190 -287Q1172 -288 1154.0 -287.5Q1136 -287 1118 -287L1011 -215L903 -287H687V1075Q687 1105 698.5 1132.0Q710 1159 730.0 1179.0Q750 1199 777.0 1210.5Q804 1222 834 1222H1978Q2008 1222 2035.0 1210.5Q2062 1199 2082.0 1179.0Q2102 1159 2113.5 1132.0Q2125 1105 2125 1075Z" style="fill:#f3ad61;stroke:none" transform="scale(1,-1) translate(0,-256)" /></svg>