<?xml version="1.0" encoding="utf-8" ?>
<svg baseProfile="full" height="256" version="1.1" width="256" xmlns="http://www.w3.org/2000/svg" xmlns:ev="http://www.w3.org/2001/xml-events" xmlns:xlink="http://www.w3.org/1999/xlink"><defs /><path d="M400 683Q400 720 414.0 753.0Q428 786 452.5 810.5Q477 835 509.5 849.0Q542 863 579 863Q616 863 649.0 849.0Q682 835 706.5 810.5Q731 786 745.0 753.0Q759 720 759 683V-108H400ZM2054 683Q2054 720 2068.0 753.0Q2082 786 2106.5 810.5Q2131 835 2164.0 849.0Q2197 863 2234 863Q2271 863 2304.0 849.0Q2337 835 2361.5 810.5Q2386 786 2400.0 753.0Q2414 720 2414 683V-108H2054Z" style="fill:#ffdea7;stroke:none" transform="scale(1,-1) translate(0,-256)" /></svg>