<?xml version="1.0" encoding="utf-8" ?>
<svg baseProfile="full" height="256" version="1.1" width="256" xmlns="http://www.w3.org/2000/svg" xmlns:ev="http://www.w3.org/2001/xml-events" xmlns:xlink="http://www.w3.org/1999/xlink"><defs /><path d="M1190 -72Q1190 -27 1207.0 12.0Q1224 51 1253.5 80.5Q1283 110 1322.0 127.0Q1361 144 1406 144Q1451 144 1490.0 127.0Q1529 110 1558.5 80.5Q1588 51 1605.0 12.0Q1622 -27 1622 -72V-287H1190ZM903 -287V-108Q903 -86 911.5 -66.0Q920 -46 934.5 -31.5Q949 -17 968.5 -8.5Q988 0 1011 0Q1033 0 1053.0 -8.5Q1073 -17 1087.0 -32.0Q1101 -47 1109.5 -66.5Q1118 -86 1118 -108V-287ZM1693 -287V-108Q1693 -86 1701.5 -66.5Q1710 -47 1725.0 -32.0Q1740 -17 1759.5 -8.5Q1779 0 1801 0Q1823 0 1843.0 -8.5Q1863 -17 1877.5 -31.5Q1892 -46 1900.5 -66.0Q1909 -86 1909 -108V-287ZM400 -72H759V-287H400ZM2412 -287H2053V-72H2412Z" style="fill:#212121;stroke:none" transform="scale(1,-1) translate(0,-256)" /></svg>