<?xml version="1.0" encoding="utf-8" ?>
<svg baseProfile="full" height="256" version="1.1" width="256" xmlns="http://www.w3.org/2000/svg" xmlns:ev="http://www.w3.org/2001/xml-events" xmlns:xlink="http://www.w3.org/1999/xlink"><defs /><path d="M1047 1222Q1047 1251 1068.0 1272.5Q1089 1294 1118 1294H1693Q1723 1294 1744.0 1273.0Q1765 1252 1765 1222V216Q1765 186 1744.0 165.0Q1723 144 1693 144H1118Q1089 144 1068.0 165.5Q1047 187 1047 216ZM1190 1186Q1190 1171 1200.5 1160.5Q1211 1150 1226 1150H1586Q1600 1150 1611.0 1161.0Q1622 1172 1622 1186Q1622 1200 1611.0 1211.0Q1600 1222 1586 1222H1226Q1211 1222 1200.5 1211.5Q1190 1201 1190 1186ZM1136 1078Q1128 1078 1123.0 1073.0Q1118 1068 1118 1060V306Q1118 298 1123.0 293.0Q1128 288 1136 288H1675Q1683 288 1688.0 293.0Q1693 298 1693 306V1060Q1693 1068 1688.0 1073.0Q1683 1078 1675 1078Z" style="fill:#000000;stroke:none" transform="scale(1,-1) translate(0,-256)" /></svg>