<?xml version="1.0" encoding="utf-8" ?>
<svg baseProfile="full" height="256" version="1.1" width="256" xmlns="http://www.w3.org/2000/svg" xmlns:ev="http://www.w3.org/2001/xml-events" xmlns:xlink="http://www.w3.org/1999/xlink"><defs /><path d="M1262 1258Q1262 1243 1251.5 1232.5Q1241 1222 1226 1222Q1211 1222 1200.5 1232.5Q1190 1243 1190 1258Q1190 1273 1200.5 1283.5Q1211 1294 1226 1294Q1241 1294 1251.5 1283.5Q1262 1273 1262 1258ZM1622 1258Q1622 1244 1611.0 1233.0Q1600 1222 1586 1222Q1571 1222 1560.5 1232.5Q1550 1243 1550 1258Q1550 1273 1560.5 1283.5Q1571 1294 1586 1294Q1600 1294 1611.0 1283.0Q1622 1272 1622 1258ZM1370 1150H1442Q1453 1150 1464.5 1142.0Q1476 1134 1476 1122Q1476 1115 1468.0 1104.0Q1460 1093 1448.5 1082.5Q1437 1072 1425.0 1064.5Q1413 1057 1406 1057Q1398 1057 1386.5 1064.5Q1375 1072 1363.5 1082.5Q1352 1093 1344.0 1104.0Q1336 1115 1336 1122Q1336 1134 1347.5 1142.0Q1359 1150 1370 1150Z" style="fill:#000000;stroke:none" transform="scale(1,-1) translate(0,-256)" /></svg>