<?xml version="1.0" encoding="utf-8" ?>
<svg baseProfile="full" height="256" version="1.1" width="256" xmlns="http://www.w3.org/2000/svg" xmlns:ev="http://www.w3.org/2001/xml-events" xmlns:xlink="http://www.w3.org/1999/xlink"><defs /><path d="M1981 1139Q1981 1055 1958.0 990.5Q1935 926 1895.0 879.0Q1855 832 1800.0 800.0Q1745 768 1681.0 749.0Q1617 730 1547.0 722.0Q1477 714 1406 714Q1335 714 1265.0 722.0Q1195 730 1131.0 749.0Q1067 768 1012.0 800.0Q957 832 917.0 879.0Q877 926 854.0 990.5Q831 1055 831 1139Q831 1212 854.0 1280.5Q877 1349 917.0 1409.5Q957 1470 1012.0 1520.5Q1067 1571 1131.0 1607.5Q1195 1644 1265.0 1664.0Q1335 1684 1406 1684Q1477 1684 1547.0 1664.0Q1617 1644 1681.0 1607.5Q1745 1571 1800.0 1520.5Q1855 1470 1895.0 1409.5Q1935 1349 1958.0 1280.5Q1981 1212 1981 1139Z" style="fill:#ff822d;stroke:none" transform="scale(1,-1) translate(0,-256)" /></svg>