<?xml version="1.0" encoding="utf-8" ?>
<svg baseProfile="full" height="256" version="1.1" width="256" xmlns="http://www.w3.org/2000/svg" xmlns:ev="http://www.w3.org/2001/xml-events" xmlns:xlink="http://www.w3.org/1999/xlink"><defs /><path d="M948 300Q999 300 1037.0 285.0Q1075 270 1105.5 244.0Q1136 218 1161.5 184.0Q1187 150 1214 112Q1238 77 1251.0 40.5Q1264 4 1264 -38Q1264 -90 1244.5 -136.0Q1225 -182 1191.0 -216.0Q1157 -250 1111.0 -270.0Q1065 -290 1013 -290Q963 -290 925.0 -274.5Q887 -259 856.0 -233.0Q825 -207 799.0 -173.0Q773 -139 746 -102Q722 -68 709.0 -31.0Q696 6 696 48Q696 100 716.0 146.0Q736 192 770.0 226.0Q804 260 850.0 280.0Q896 300 948 300ZM1865 300Q1814 300 1776.0 284.5Q1738 269 1707.0 243.5Q1676 218 1650.5 183.5Q1625 149 1598 112Q1574 78 1561.0 41.5Q1548 5 1548 -37Q1548 -89 1568.0 -135.0Q1588 -181 1622.0 -215.5Q1656 -250 1702.0 -270.0Q1748 -290 1800 -290Q1851 -290 1888.5 -274.5Q1926 -259 1957.0 -233.5Q1988 -208 2013.5 -174.0Q2039 -140 2066 -102Q2090 -68 2103.0 -31.0Q2116 6 2116 48Q2116 100 2096.0 145.5Q2076 191 2042.0 225.5Q2008 260 1962.5 280.0Q1917 300 1865 300Z" style="fill:#d3883e;stroke:none" transform="scale(1,-1) translate(0,-256)" /></svg>