<?xml version="1.0" encoding="utf-8" ?>
<svg baseProfile="full" height="256" version="1.1" width="256" xmlns="http://www.w3.org/2000/svg" xmlns:ev="http://www.w3.org/2001/xml-events" xmlns:xlink="http://www.w3.org/1999/xlink"><defs /><path d="M1827 1494Q1753 1570 1656 1619Q1687 1648 1729 1648Q1751 1648 1771.0 1639.5Q1791 1631 1805.5 1616.5Q1820 1602 1828.5 1582.0Q1837 1562 1837 1540Q1837 1517 1827 1494ZM1156 1619Q1059 1570 985 1494Q975 1514 975 1540Q975 1562 983.5 1582.0Q992 1602 1006.5 1616.5Q1021 1631 1040.5 1639.5Q1060 1648 1083 1648Q1125 1648 1156 1619ZM1658 1042Q1658 996 1634.5 957.0Q1611 918 1574.0 889.0Q1537 860 1492.5 843.5Q1448 827 1406 827Q1364 827 1319.5 843.5Q1275 860 1238.0 889.0Q1201 918 1177.5 957.0Q1154 996 1154 1042Q1154 1088 1179.0 1122.0Q1204 1156 1241.5 1178.0Q1279 1200 1323.0 1211.0Q1367 1222 1406 1222Q1445 1222 1489.0 1211.0Q1533 1200 1570.5 1178.0Q1608 1156 1633.0 1122.0Q1658 1088 1658 1042ZM1765 280Q1733 266 1708.5 246.0Q1684 226 1663 199Q1642 172 1621.5 145.5Q1601 119 1585.0 90.5Q1569 62 1559.0 31.0Q1549 0 1549 -36V-47Q1515 -61 1479.0 -69.0Q1443 -77 1406 -77Q1333 -77 1264 -48V-39Q1264 5 1251.5 41.0Q1239 77 1214 112Q1196 137 1179.0 161.5Q1162 186 1142.5 208.0Q1123 230 1100.0 248.5Q1077 267 1047 280V283Q1047 357 1075.0 422.5Q1103 488 1152.0 536.5Q1201 585 1266.5 613.5Q1332 642 1406 642Q1481 642 1546.5 613.5Q1612 585 1660.5 536.0Q1709 487 1737.0 421.0Q1765 355 1765 280ZM950 191Q983 191 1009.0 177.5Q1035 164 1056.5 143.0Q1078 122 1095.5 96.5Q1113 71 1130 47Q1158 7 1158 -39Q1158 -69 1147.0 -95.0Q1136 -121 1116.5 -140.5Q1097 -160 1071.0 -171.5Q1045 -183 1015 -183Q982 -183 956.0 -169.5Q930 -156 908.5 -135.0Q887 -114 869.5 -88.5Q852 -63 835 -39Q807 1 807 47Q807 77 818.0 103.0Q829 129 848.5 148.5Q868 168 894.0 179.5Q920 191 950 191ZM1863 191Q1893 191 1919.0 179.5Q1945 168 1964.5 148.5Q1984 129 1995.0 103.0Q2006 77 2006 47Q2006 1 1978 -39Q1961 -63 1943.0 -88.5Q1925 -114 1904.0 -135.0Q1883 -156 1857.0 -169.5Q1831 -183 1798 -183Q1768 -183 1742.0 -171.5Q1716 -160 1696.5 -140.5Q1677 -121 1665.5 -95.0Q1654 -69 1654 -39Q1654 -16 1661.5 6.0Q1669 28 1683 47Q1700 71 1717.5 96.5Q1735 122 1756.5 143.0Q1778 164 1804.0 177.5Q1830 191 1863 191Z" style="fill:#ffdea7;stroke:none" transform="scale(1,-1) translate(0,-256)" /></svg>