<?xml version="1.0" encoding="utf-8" ?>
<svg baseProfile="full" height="256" version="1.1" width="256" xmlns="http://www.w3.org/2000/svg" xmlns:ev="http://www.w3.org/2001/xml-events" xmlns:xlink="http://www.w3.org/1999/xlink"><defs /><path d="M1782 790Q1877 708 1929.0 594.5Q1981 481 1981 355Q1981 236 1936.0 131.0Q1891 26 1813.0 -52.0Q1735 -130 1630.0 -175.0Q1525 -220 1406 -220Q1287 -220 1182.0 -175.0Q1077 -130 999.0 -52.0Q921 26 876.0 131.0Q831 236 831 355Q831 481 883.0 594.5Q935 708 1030 790Q926 844 878.5 934.0Q831 1024 831 1139Q831 1212 854.0 1280.5Q877 1349 917.0 1409.5Q957 1470 1012.0 1520.5Q1067 1571 1131.0 1607.5Q1195 1644 1265.0 1664.0Q1335 1684 1406 1684Q1477 1684 1547.0 1664.0Q1617 1644 1681.0 1607.5Q1745 1571 1800.0 1520.5Q1855 1470 1895.0 1409.5Q1935 1349 1958.0 1280.5Q1981 1212 1981 1139Q1981 1024 1933.5 934.0Q1886 844 1782 790Z" style="fill:#e19747;stroke:none" transform="scale(1,-1) translate(0,-256)" /></svg>