<?xml version="1.0" encoding="utf-8" ?>
<svg baseProfile="full" height="256" version="1.1" width="256" xmlns="http://www.w3.org/2000/svg" xmlns:ev="http://www.w3.org/2001/xml-events" xmlns:xlink="http://www.w3.org/1999/xlink"><defs /><path d="M551 1725Q580 1725 601.5 1716.5Q623 1708 640.0 1695.5Q657 1683 670.5 1668.0Q684 1653 697.0 1640.5Q710 1628 724.0 1619.5Q738 1611 756 1611Q775 1611 798.0 1619.0Q821 1627 845.0 1636.0Q869 1645 893.0 1653.0Q917 1661 940 1661Q965 1661 985.0 1653.5Q1005 1646 1021.5 1634.0Q1038 1622 1053.0 1606.0Q1068 1590 1085 1574V1567L933 1368Q922 1353 913.5 1340.5Q905 1328 897.0 1316.0Q889 1304 879.5 1292.5Q870 1281 857 1268Q831 1242 808.5 1228.0Q786 1214 757 1192L556 1040H551Q534 1057 518.5 1072.0Q503 1087 491.0 1103.5Q479 1120 471.5 1139.5Q464 1159 464 1185Q464 1208 472.0 1232.0Q480 1256 489.0 1280.0Q498 1304 506.0 1326.5Q514 1349 514 1369Q514 1387 505.5 1401.0Q497 1415 484.5 1428.0Q472 1441 457.0 1454.5Q442 1468 429.5 1485.0Q417 1502 408.5 1523.5Q400 1545 400 1574Q400 1605 412.0 1633.0Q424 1661 444.0 1681.0Q464 1701 491.5 1713.0Q519 1725 551 1725Z" style="fill:#fcd53f;stroke:none" transform="scale(1,-1) translate(0,-256)" /></svg>