<?xml version="1.0" encoding="utf-8" ?>
<svg baseProfile="full" height="256" version="1.1" width="256" xmlns="http://www.w3.org/2000/svg" xmlns:ev="http://www.w3.org/2001/xml-events" xmlns:xlink="http://www.w3.org/1999/xlink"><defs /><path d="M1432 1582Q1493 1582 1549.0 1558.5Q1605 1535 1648 1492L2312 829Q2361 780 2387.5 718.0Q2414 656 2414 586Q2414 518 2388.0 456.0Q2362 394 2314 346L1780 -188Q1732 -236 1670.0 -262.0Q1608 -288 1539 -288Q1471 -288 1409.0 -262.0Q1347 -236 1299 -188L631 480Q589 522 566.0 577.5Q543 633 543 693Q543 747 559.0 790.5Q575 834 606 878Q608 881 608 887Q608 897 605.5 906.0Q603 915 603 925Q603 931 606 934L1193 1521Q1194 1522 1196.5 1522.5Q1199 1523 1201 1523Q1211 1523 1220.0 1519.5Q1229 1516 1239 1516Q1242 1516 1246 1518Q1290 1549 1334.0 1565.5Q1378 1582 1432 1582Z" style="fill:#fbb8ab;stroke:none" transform="scale(1,-1) translate(0,-256)" /></svg>