<?xml version="1.0" encoding="utf-8" ?>
<svg baseProfile="full" height="256" version="1.1" width="256" xmlns="http://www.w3.org/2000/svg" xmlns:ev="http://www.w3.org/2001/xml-events" xmlns:xlink="http://www.w3.org/1999/xlink"><defs /><path d="M898 400Q898 423 910.0 444.0Q922 465 942 477L1894 1045Q1906 1052 1917 1052Q1936 1052 1949 1039L2235 749Q2303 681 2303 585Q2303 539 2285.0 496.0Q2267 453 2235 421L1701 -113Q1669 -145 1626.0 -163.0Q1583 -181 1537 -181Q1492 -181 1449.0 -163.0Q1406 -145 1374 -113L924 337Q898 363 898 400Z" style="fill:#f4f4f4;stroke:none" transform="scale(1,-1) translate(0,-256)" /></svg>