<?xml version="1.0" encoding="utf-8" ?>
<svg baseProfile="full" height="256" version="1.1" width="256" xmlns="http://www.w3.org/2000/svg" xmlns:ev="http://www.w3.org/2001/xml-events" xmlns:xlink="http://www.w3.org/1999/xlink"><defs /><path d="M527 987Q527 1001 532.0 1014.0Q537 1027 547 1037L1088 1578Q1108 1598 1137 1598Q1166 1598 1187 1577L1246 1518Q1238 1512 1231.5 1506.5Q1225 1501 1218 1494L631 907Q624 900 618.0 893.0Q612 886 606 878L547 937Q527 957 527 987ZM949 664Q949 686 965 702L1092 829Q1108 845 1130 845Q1153 845 1168.5 829.5Q1184 814 1184 791Q1184 769 1168 753L1041 626Q1025 610 1003 610Q980 610 964.5 625.5Q949 641 949 664ZM1190 422Q1190 444 1206 460L1333 587Q1349 603 1372 603Q1395 603 1410.0 587.5Q1425 572 1425 549Q1425 539 1421.5 529.0Q1418 519 1410 511L1282 384Q1266 368 1244 368Q1221 368 1205.5 383.5Q1190 399 1190 422ZM1432 181Q1432 203 1448 219L1575 347Q1590 362 1613 362Q1636 362 1651.5 346.5Q1667 331 1667 308Q1667 286 1651 270L1524 143Q1508 127 1486 127Q1463 127 1447.5 143.0Q1432 159 1432 181Z" style="fill:#e39d89;stroke:none" transform="scale(1,-1) translate(0,-256)" /></svg>