<?xml version="1.0" encoding="utf-8" ?>
<svg baseProfile="full" height="256" version="1.1" width="256" xmlns="http://www.w3.org/2000/svg" xmlns:ev="http://www.w3.org/2001/xml-events" xmlns:xlink="http://www.w3.org/1999/xlink"><defs /><path d="M544 1270Q544 1310 572.0 1338.0Q600 1366 640 1366H728Q819 1366 903.5 1333.0Q988 1300 1054 1239Q1135 1286 1224.0 1310.0Q1313 1334 1406 1334Q1499 1334 1588.0 1310.0Q1677 1286 1758 1239Q1825 1300 1909.0 1333.0Q1993 1366 2084 1366H2172Q2192 1366 2209.5 1358.5Q2227 1351 2240.5 1338.0Q2254 1325 2261.5 1307.5Q2269 1290 2269 1270V1181Q2269 1089 2234.5 1003.0Q2200 917 2137 850L2362 581Q2413 521 2413 442Q2413 400 2392.0 348.5Q2371 297 2340.0 246.0Q2309 195 2274.0 149.0Q2239 103 2211 72H601Q574 103 539.0 149.0Q504 195 473.0 246.0Q442 297 421.0 348.5Q400 400 400 441Q400 479 413.0 515.0Q426 551 450 580L676 849Q613 916 578.5 1002.0Q544 1088 544 1181Z" style="fill:#9b9b9b;stroke:none" transform="scale(1,-1) translate(0,-256)" /></svg>