<?xml version="1.0" encoding="utf-8" ?>
<svg baseProfile="full" height="256" version="1.1" width="256" xmlns="http://www.w3.org/2000/svg" xmlns:ev="http://www.w3.org/2001/xml-events" xmlns:xlink="http://www.w3.org/1999/xlink"><defs /><path d="M1118 575Q1148 575 1169.0 554.0Q1190 533 1190 503V431Q1190 402 1168.5 381.0Q1147 360 1118 360Q1089 360 1068.0 381.0Q1047 402 1047 431V503Q1047 532 1068.0 553.5Q1089 575 1118 575ZM1693 575Q1723 575 1744.0 554.0Q1765 533 1765 503V431Q1765 402 1743.5 381.0Q1722 360 1693 360Q1664 360 1643.0 381.0Q1622 402 1622 431V503Q1622 532 1643.0 553.5Q1664 575 1693 575ZM1514 -121Q1483 -121 1455.0 -108.0Q1427 -95 1406 -72Q1386 -95 1357.5 -108.0Q1329 -121 1298 -121Q1268 -121 1242.0 -109.5Q1216 -98 1196.5 -78.5Q1177 -59 1166.0 -33.0Q1155 -7 1155 23Q1155 38 1165.0 48.5Q1175 59 1190 59Q1205 59 1215.5 48.5Q1226 38 1226 23Q1226 -6 1247.5 -27.5Q1269 -49 1298 -49Q1327 -49 1348.5 -27.5Q1370 -6 1370 23Q1370 38 1380.5 48.5Q1391 59 1406 59Q1421 59 1431.5 48.5Q1442 38 1442 23Q1442 -6 1463.5 -27.5Q1485 -49 1514 -49Q1543 -49 1564.5 -27.5Q1586 -6 1586 23Q1586 38 1596.5 48.5Q1607 59 1622 59Q1637 59 1647.5 48.5Q1658 38 1658 23Q1658 -7 1646.5 -33.0Q1635 -59 1615.5 -78.5Q1596 -98 1570.0 -109.5Q1544 -121 1514 -121ZM1247 260Q1247 289 1267.0 310.0Q1287 331 1316 331H1496Q1525 331 1545.5 310.5Q1566 290 1566 261Q1566 233 1545 212L1455 121Q1435 101 1406 101Q1377 101 1357 121L1267 212Q1247 232 1247 260Z" style="fill:#212121;stroke:none" transform="scale(1,-1) translate(0,-256)" /></svg>