<?xml version="1.0" encoding="utf-8" ?>
<svg baseProfile="full" height="256" version="1.1" width="256" xmlns="http://www.w3.org/2000/svg" xmlns:ev="http://www.w3.org/2001/xml-events" xmlns:xlink="http://www.w3.org/1999/xlink"><defs /><path d="M1097 755Q1153 755 1202.5 733.5Q1252 712 1288.5 674.5Q1325 637 1346.5 587.5Q1368 538 1368 482V331H1446V482Q1446 536 1467.0 585.5Q1488 635 1524.0 672.5Q1560 710 1608.0 732.5Q1656 755 1711 755Q1839 755 1923 659L2109 445Q2163 382 2192.0 304.5Q2221 227 2221 145Q2221 128 2219.5 110.5Q2218 93 2216 76Q2138 -11 2045.5 -79.0Q1953 -147 1850.0 -193.0Q1747 -239 1635.0 -263.0Q1523 -287 1406 -287Q1290 -287 1178.0 -263.0Q1066 -239 963.0 -192.5Q860 -146 767.5 -78.5Q675 -11 598 76Q592 110 592 147Q592 230 621.5 306.0Q651 382 705 445L891 659Q931 705 983.5 730.0Q1036 755 1097 755Z" style="fill:#d3d3d3;stroke:none" transform="scale(1,-1) translate(0,-256)" /></svg>