<?xml version="1.0" encoding="utf-8" ?>
<svg baseProfile="full" height="256" version="1.1" width="256" xmlns="http://www.w3.org/2000/svg" xmlns:ev="http://www.w3.org/2001/xml-events" xmlns:xlink="http://www.w3.org/1999/xlink"><defs /><path d="M2062 938Q2012 998 1963.0 1058.0Q1914 1118 1855 1170Q1904 1208 1962.5 1228.5Q2021 1249 2084 1249H2128Q2139 1249 2146.0 1242.5Q2153 1236 2153 1225V1180Q2153 1114 2129.5 1051.5Q2106 989 2062 938ZM957 1170Q898 1119 849.0 1058.5Q800 998 751 939Q706 989 682.5 1051.5Q659 1114 659 1181V1226Q659 1236 666.5 1243.0Q674 1250 684 1250H728Q791 1250 849.5 1229.0Q908 1208 957 1170Z" style="fill:#636363;stroke:none" transform="scale(1,-1) translate(0,-256)" /></svg>