<?xml version="1.0" encoding="utf-8" ?>
<svg baseProfile="full" height="256" version="1.1" width="256" xmlns="http://www.w3.org/2000/svg" xmlns:ev="http://www.w3.org/2001/xml-events" xmlns:xlink="http://www.w3.org/1999/xlink"><defs /><path d="M1442 1222Q1457 1222 1467.5 1211.5Q1478 1201 1478 1186V1078H1586Q1600 1078 1611.0 1067.0Q1622 1056 1622 1042V971Q1622 957 1611.0 946.0Q1600 935 1586 935H1478V827Q1478 812 1467.5 801.5Q1457 791 1442 791H1370Q1355 791 1344.5 801.5Q1334 812 1334 827V935H1226Q1211 935 1200.5 945.5Q1190 956 1190 971V1042Q1190 1057 1200.5 1067.5Q1211 1078 1226 1078H1334V1186Q1334 1201 1344.5 1211.5Q1355 1222 1370 1222ZM1190 180Q1190 195 1200.5 205.5Q1211 216 1226 216H1586Q1600 216 1611.0 205.0Q1622 194 1622 180V108Q1622 94 1611.0 83.0Q1600 72 1586 72H1226Q1211 72 1200.5 82.5Q1190 93 1190 108Z" style="fill:#ffffff;stroke:none" transform="scale(1,-1) translate(0,-256)" /></svg>