<?xml version="1.0" encoding="utf-8" ?>
<svg baseProfile="full" height="256" version="1.1" width="256" xmlns="http://www.w3.org/2000/svg" xmlns:ev="http://www.w3.org/2001/xml-events" xmlns:xlink="http://www.w3.org/1999/xlink"><defs /><path d="M2190 1098Q2190 1055 2177.0 1005.0Q2164 955 2140.5 905.0Q2117 855 2084.5 808.5Q2052 762 2013.0 726.5Q1974 691 1929.5 670.0Q1885 649 1838 649Q1800 649 1773.0 664.5Q1746 680 1729.0 705.5Q1712 731 1704.5 763.5Q1697 796 1697 829Q1697 872 1710.0 922.5Q1723 973 1746.5 1023.0Q1770 1073 1802.5 1119.0Q1835 1165 1874.0 1200.5Q1913 1236 1957.0 1257.0Q2001 1278 2048 1278Q2086 1278 2113.0 1262.0Q2140 1246 2157.0 1220.5Q2174 1195 2182.0 1163.0Q2190 1131 2190 1098Z" style="fill:#a56953;stroke:none" transform="scale(1,-1) translate(0,-256)" /></svg>