<?xml version="1.0" encoding="utf-8" ?>
<svg baseProfile="full" height="256" version="1.1" width="256" xmlns="http://www.w3.org/2000/svg" xmlns:ev="http://www.w3.org/2001/xml-events" xmlns:xlink="http://www.w3.org/1999/xlink"><defs /><path d="M941 1501Q1008 1501 1074.0 1483.0Q1140 1465 1200.5 1432.5Q1261 1400 1313.5 1355.5Q1366 1311 1406 1258Q1446 1312 1498.5 1356.5Q1551 1401 1611.0 1433.0Q1671 1465 1737.0 1483.0Q1803 1501 1871 1501Q1937 1501 2001.0 1484.0Q2065 1467 2125 1438Q2263 1369 2336.0 1252.5Q2409 1136 2409 982Q2409 895 2387.0 809.5Q2365 724 2327.0 644.5Q2289 565 2237.0 493.0Q2185 421 2125 360Q2029 262 1931.5 167.5Q1834 73 1733 -21Q1706 -46 1675.0 -74.0Q1644 -102 1612.0 -130.0Q1580 -158 1548.0 -184.0Q1516 -210 1486 -231Q1467 -244 1450.0 -250.5Q1433 -257 1410 -257Q1385 -257 1367.0 -249.5Q1349 -242 1329 -228Q1302 -208 1270.5 -182.0Q1239 -156 1207.0 -127.5Q1175 -99 1144.5 -71.0Q1114 -43 1088 -20Q985 73 884.5 167.0Q784 261 687 360Q627 421 575.0 493.0Q523 565 485.0 644.5Q447 724 425.0 809.5Q403 895 403 982Q403 1137 476.0 1253.0Q549 1369 687 1438Q747 1467 810.5 1484.0Q874 1501 941 1501Z" style="fill:#6d4534;stroke:none" transform="scale(1,-1) translate(0,-256)" /></svg>