<?xml version="1.0" encoding="utf-8" ?>
<svg baseProfile="full" height="256" version="1.1" width="256" xmlns="http://www.w3.org/2000/svg" xmlns:ev="http://www.w3.org/2001/xml-events" xmlns:xlink="http://www.w3.org/1999/xlink"><defs /><path d="M2196 -159Q2196 -185 2186.0 -208.5Q2176 -232 2158.5 -249.5Q2141 -267 2118.0 -277.0Q2095 -287 2069 -287H748L759 -26L592 26L901 404Q987 509 1091.5 576.5Q1196 644 1330 671L1586 510Q1605 498 1620.5 488.5Q1636 479 1650.5 470.0Q1665 461 1680.5 451.0Q1696 441 1714 429Q1738 413 1756.5 399.0Q1775 385 1793.0 371.5Q1811 358 1830.0 344.0Q1849 330 1872 313L2188 81Q2197 22 2196.5 -38.5Q2196 -99 2196 -159Z" style="fill:#8b62bf;stroke:none" transform="scale(1,-1) translate(0,-256)" /></svg>