<?xml version="1.0" encoding="utf-8" ?>
<svg baseProfile="full" height="256" version="1.1" width="256" xmlns="http://www.w3.org/2000/svg" xmlns:ev="http://www.w3.org/2001/xml-events" xmlns:xlink="http://www.w3.org/1999/xlink"><defs /><path d="M1910 1148Q1910 1122 1900.0 1099.0Q1890 1076 1873.0 1059.0Q1856 1042 1833.0 1032.0Q1810 1022 1784 1022Q1758 1022 1735.0 1032.0Q1712 1042 1695.0 1059.0Q1678 1076 1668.0 1099.5Q1658 1123 1658 1149Q1658 1175 1668.0 1197.5Q1678 1220 1695.0 1237.0Q1712 1254 1735.0 1264.0Q1758 1274 1784 1274Q1810 1274 1833.0 1264.0Q1856 1254 1873.0 1237.0Q1890 1220 1900.0 1197.0Q1910 1174 1910 1148ZM1246 1020Q1246 994 1236.0 971.5Q1226 949 1209.0 932.0Q1192 915 1169.0 905.0Q1146 895 1120 895Q1094 895 1071.0 905.0Q1048 915 1031.0 932.0Q1014 949 1004.0 972.0Q994 995 994 1021Q994 1047 1004.0 1070.0Q1014 1093 1031.0 1110.0Q1048 1127 1071.5 1137.0Q1095 1147 1121 1147Q1147 1147 1169.5 1137.0Q1192 1127 1209.0 1109.5Q1226 1092 1236.0 1069.0Q1246 1046 1246 1020Z" style="fill:#fdbb11;stroke:none" transform="scale(1,-1) translate(0,-256)" /></svg>