<?xml version="1.0" encoding="utf-8" ?>
<svg baseProfile="full" height="256" version="1.1" width="256" xmlns="http://www.w3.org/2000/svg" xmlns:ev="http://www.w3.org/2001/xml-events" xmlns:xlink="http://www.w3.org/1999/xlink"><defs /><path d="M2084 -50Q2084 -81 2072.0 -108.5Q2060 -136 2039.5 -157.0Q2019 -178 1991.5 -190.0Q1964 -202 1933 -202Q1897 -202 1862 -183H1859Q1799 -145 1737.0 -112.5Q1675 -80 1614 -45Q1594 -34 1594 -9Q1594 8 1605.5 19.5Q1617 31 1634 31Q1642 31 1652.5 26.0Q1663 21 1673.5 15.0Q1684 9 1692.0 4.0Q1700 -1 1703 -1Q1707 -1 1707 1Q1707 8 1689.5 17.0Q1672 26 1651.0 37.5Q1630 49 1612.5 64.0Q1595 79 1595 99Q1595 117 1606.5 128.5Q1618 140 1635 140Q1645 140 1659.5 132.0Q1674 124 1689.0 113.5Q1704 103 1718.0 92.0Q1732 81 1740 75L1742 77Q1717 100 1690.5 124.0Q1664 148 1642 174Q1632 187 1632 200Q1632 217 1644.0 229.5Q1656 242 1673 242Q1691 242 1703 228Q1729 202 1754.5 176.0Q1780 150 1808 126H1812V131Q1805 141 1789.5 155.5Q1774 170 1758.5 186.0Q1743 202 1731.5 218.5Q1720 235 1720 248Q1720 265 1732.5 277.0Q1745 289 1761 289Q1780 289 1793 273Q1800 265 1819.5 243.0Q1839 221 1861.5 197.5Q1884 174 1903.5 155.5Q1923 137 1929 137Q1934 137 1934 143Q1934 158 1930.0 173.5Q1926 189 1926 205Q1926 225 1939.0 238.5Q1952 252 1972 252Q1990 252 2001.5 239.5Q2013 227 2015 210Q2017 187 2020.5 164.0Q2024 141 2029 118Q2033 97 2042.5 75.5Q2052 54 2061.0 32.5Q2070 11 2077.0 -10.0Q2084 -31 2084 -50ZM1693 -217Q1693 -246 1672.0 -266.5Q1651 -287 1622 -287H1257Q1230 -287 1210.0 -266.0Q1190 -245 1190 -218Q1190 -189 1211 -168L1362 -20Q1372 -10 1385.0 -5.0Q1398 0 1412 0Q1441 0 1462.5 -20.5Q1484 -41 1484 -70Q1484 -87 1477.5 -98.5Q1471 -110 1463.5 -118.5Q1456 -127 1450.0 -132.0Q1444 -137 1444 -141Q1444 -147 1451 -147H1622Q1651 -147 1672.0 -167.5Q1693 -188 1693 -217Z" style="fill:#ffc83d;stroke:none" transform="scale(1,-1) translate(0,-256)" /></svg>