<?xml version="1.0" encoding="utf-8" ?>
<svg baseProfile="full" height="256" version="1.1" width="256" xmlns="http://www.w3.org/2000/svg" xmlns:ev="http://www.w3.org/2001/xml-events" xmlns:xlink="http://www.w3.org/1999/xlink"><defs /><path d="M1456 811Q1500 811 1533.0 824.0Q1566 837 1602 860Q1604 861 1605.5 862.0Q1607 863 1609 863Q1622 863 1622 850Q1622 847 1621 846Q1604 804 1566.0 779.5Q1528 755 1483 755Q1469 755 1453.5 758.5Q1438 762 1423.0 768.0Q1408 774 1395.0 783.0Q1382 792 1373 803Q1372 805 1371.0 807.0Q1370 809 1370 811Q1370 816 1373.5 819.5Q1377 823 1382 823Q1392 823 1414.0 817.0Q1436 811 1456 811Z" style="fill:#990839;stroke:none" transform="scale(1,-1) translate(0,-256)" /></svg>