<?xml version="1.0" encoding="utf-8" ?>
<svg baseProfile="full" height="256" version="1.1" width="256" xmlns="http://www.w3.org/2000/svg" xmlns:ev="http://www.w3.org/2001/xml-events" xmlns:xlink="http://www.w3.org/1999/xlink"><defs /><path d="M1411 1316Q1434 1316 1462 1321L1700 1364Q1704 1365 1711 1365Q1751 1365 1774.5 1336.5Q1798 1308 1803 1271Q1811 1214 1818.5 1157.0Q1826 1100 1834 1043Q1836 1029 1837.0 1016.0Q1838 1003 1838 989Q1838 909 1808.0 841.5Q1778 774 1726.5 724.5Q1675 675 1606.0 647.5Q1537 620 1459 620Q1392 620 1333.0 641.5Q1274 663 1227.0 701.5Q1180 740 1147.0 794.0Q1114 848 1100 913L1049 1150Q1047 1156 1047.0 1163.0Q1047 1170 1047 1176Q1047 1216 1062.0 1236.0Q1077 1256 1097.0 1273.0Q1117 1290 1137.0 1312.5Q1157 1335 1168 1379Q1170 1389 1173.5 1399.5Q1177 1410 1191 1410Q1199 1410 1205 1404Q1250 1362 1299.0 1339.0Q1348 1316 1411 1316Z" style="fill:#ffc83d;stroke:none" transform="scale(1,-1) translate(0,-256)" /></svg>