<?xml version="1.0" encoding="utf-8" ?>
<svg baseProfile="full" height="256" version="1.1" width="256" xmlns="http://www.w3.org/2000/svg" xmlns:ev="http://www.w3.org/2001/xml-events" xmlns:xlink="http://www.w3.org/1999/xlink"><defs /><path d="M698 74Q704 74 710.5 73.5Q717 73 723 72L1152 -4Q1176 -8 1196.0 -20.0Q1216 -32 1230.5 -49.5Q1245 -67 1253.5 -89.0Q1262 -111 1262 -135V-287H723Q686 -287 653.0 -273.0Q620 -259 595.5 -234.5Q571 -210 557.0 -177.0Q543 -144 543 -107Q543 -74 553.5 -41.5Q564 -9 584.5 16.5Q605 42 633.5 58.0Q662 74 698 74Z" style="fill:#a17fd5;stroke:none" transform="scale(1,-1) translate(0,-256)" /></svg>