<?xml version="1.0" encoding="utf-8" ?>
<svg baseProfile="full" height="256" version="1.1" width="256" xmlns="http://www.w3.org/2000/svg" xmlns:ev="http://www.w3.org/2001/xml-events" xmlns:xlink="http://www.w3.org/1999/xlink"><defs /><path d="M1847 528Q1803 486 1779.0 430.0Q1755 374 1755 314Q1755 250 1780.0 195.0Q1805 140 1847.0 99.0Q1889 58 1945.5 34.5Q2002 11 2065 11Q2105 11 2147 22Q2061 -68 1934 -68Q1884 -68 1838 -53Q1831 -97 1814.5 -131.5Q1798 -166 1774.0 -193.5Q1750 -221 1718.5 -243.5Q1687 -266 1650 -287H1108Q1103 -279 1100.5 -271.0Q1098 -263 1093 -255Q1073 -218 1062.5 -182.0Q1052 -146 1052 -104Q1052 -26 1081.0 27.5Q1110 81 1157.0 121.0Q1204 161 1263.0 192.0Q1322 223 1381 256Q1416 276 1455.5 286.5Q1495 297 1536 297Q1558 297 1580.0 293.5Q1602 290 1624 284Q1639 377 1698.0 440.5Q1757 504 1847 528Z" style="fill:#00d26a;stroke:none" transform="scale(1,-1) translate(0,-256)" /></svg>