<?xml version="1.0" encoding="utf-8" ?>
<svg baseProfile="full" height="256" version="1.1" width="256" xmlns="http://www.w3.org/2000/svg" xmlns:ev="http://www.w3.org/2001/xml-events" xmlns:xlink="http://www.w3.org/1999/xlink"><defs /><path d="M1680 1256Q1665 1260 1649.5 1262.5Q1634 1265 1618 1265Q1600 1265 1581.0 1259.0Q1562 1253 1552 1253Q1544 1253 1538.0 1259.5Q1532 1266 1532 1274Q1532 1285 1542.5 1291.5Q1553 1298 1567.0 1301.0Q1581 1304 1595.5 1305.0Q1610 1306 1618 1306Q1625 1306 1640.0 1305.5Q1655 1305 1670.5 1302.0Q1686 1299 1697.5 1292.5Q1709 1286 1709 1275Q1709 1266 1702.0 1260.0Q1695 1254 1686 1254Q1685 1254 1684.0 1254.5Q1683 1255 1681 1255ZM1157 1159Q1148 1159 1142.0 1165.0Q1136 1171 1136 1180Q1136 1190 1144 1196H1145Q1173 1220 1211.5 1233.5Q1250 1247 1286 1247Q1294 1247 1300.5 1240.5Q1307 1234 1307 1226Q1307 1218 1300.5 1211.5Q1294 1205 1286 1205Q1261 1205 1239.5 1198.0Q1218 1191 1201.5 1182.0Q1185 1173 1173.5 1166.0Q1162 1159 1157 1159Z" style="fill:#d37034;stroke:none" transform="scale(1,-1) translate(0,-256)" /></svg>