<?xml version="1.0" encoding="utf-8" ?>
<svg baseProfile="full" height="256" version="1.1" width="256" xmlns="http://www.w3.org/2000/svg" xmlns:ev="http://www.w3.org/2001/xml-events" xmlns:xlink="http://www.w3.org/1999/xlink"><defs /><path d="M1695 1134Q1703 1134 1709.0 1128.5Q1715 1123 1715 1115Q1715 1110 1712 1106Q1697 1078 1669.5 1063.5Q1642 1049 1610 1049Q1602 1049 1589.0 1051.5Q1576 1054 1563.0 1059.5Q1550 1065 1541.0 1072.5Q1532 1080 1532 1090Q1532 1098 1537.0 1103.5Q1542 1109 1550 1109Q1556 1109 1561.0 1105.5Q1566 1102 1573.0 1098.0Q1580 1094 1589.0 1090.5Q1598 1087 1611 1087Q1631 1087 1644.0 1094.5Q1657 1102 1666.0 1110.5Q1675 1119 1681.0 1126.5Q1687 1134 1695 1134ZM1333 1076Q1341 1076 1347.0 1070.0Q1353 1064 1353 1056Q1353 1050 1351 1047Q1336 1020 1307.5 1005.0Q1279 990 1249 990Q1241 990 1227.5 992.5Q1214 995 1201.5 1000.5Q1189 1006 1179.5 1013.5Q1170 1021 1170 1031Q1170 1039 1175.5 1044.5Q1181 1050 1189 1050Q1194 1050 1199.5 1046.5Q1205 1043 1212.0 1039.5Q1219 1036 1228.0 1032.5Q1237 1029 1250 1029Q1269 1029 1282.5 1036.5Q1296 1044 1305.0 1052.5Q1314 1061 1320.5 1068.5Q1327 1076 1333 1076Z" style="fill:#d37034;stroke:none" transform="scale(1,-1) translate(0,-256)" /></svg>