<?xml version="1.0" encoding="utf-8" ?>
<svg baseProfile="full" height="256" version="1.1" width="256" xmlns="http://www.w3.org/2000/svg" xmlns:ev="http://www.w3.org/2001/xml-events" xmlns:xlink="http://www.w3.org/1999/xlink"><defs /><path d="M1927 -72Q1864 -72 1808.0 -48.0Q1752 -24 1711.0 17.5Q1670 59 1646.0 115.0Q1622 171 1622 234Q1622 297 1646.0 352.5Q1670 408 1711.5 449.5Q1753 491 1808.5 515.0Q1864 539 1927 539Q1990 539 2045.5 515.0Q2101 491 2143.0 449.5Q2185 408 2209.0 352.5Q2233 297 2233 234Q2233 171 2209.0 115.0Q2185 59 2143.5 17.5Q2102 -24 2046.0 -48.0Q1990 -72 1927 -72Z" style="fill:#00f397;stroke:none" transform="scale(1,-1) translate(0,-256)" /></svg>