<?xml version="1.0" encoding="utf-8" ?>
<svg baseProfile="full" height="256" version="1.1" width="256" xmlns="http://www.w3.org/2000/svg" xmlns:ev="http://www.w3.org/2001/xml-events" xmlns:xlink="http://www.w3.org/1999/xlink"><defs /><path d="M1227 1005H1794Q1816 1005 1836.0 997.0Q1856 989 1871.0 974.5Q1886 960 1894.5 940.5Q1903 921 1903 899Q1903 876 1894.5 856.5Q1886 837 1871.0 823.0Q1856 809 1836.0 800.5Q1816 792 1794 792H1227Q1205 792 1185.0 800.5Q1165 809 1150.0 823.0Q1135 837 1126.5 856.5Q1118 876 1118 899Q1118 921 1126.5 940.5Q1135 960 1150.0 974.5Q1165 989 1185.0 997.0Q1205 1005 1227 1005ZM1107 178H1658Q1680 178 1699.5 169.5Q1719 161 1733.5 146.5Q1748 132 1756.5 113.0Q1765 94 1765 72Q1765 50 1756.5 30.5Q1748 11 1733.5 -3.0Q1719 -17 1699.5 -25.5Q1680 -34 1658 -34H1107Q1062 -34 1031.5 -3.5Q1001 27 1001 72Q1001 117 1031.5 147.5Q1062 178 1107 178Z" style="fill:#86d72f;stroke:none" transform="scale(1,-1) translate(0,-256)" /></svg>