<?xml version="1.0" encoding="utf-8" ?>
<svg baseProfile="full" height="256" version="1.1" width="256" xmlns="http://www.w3.org/2000/svg" xmlns:ev="http://www.w3.org/2001/xml-events" xmlns:xlink="http://www.w3.org/1999/xlink"><defs /><path d="M2125 549Q2125 534 2114.5 523.5Q2104 513 2089 513Q2074 513 2063.5 523.5Q2053 534 2053 549V1157Q2053 1172 2063.5 1182.5Q2074 1193 2089 1193Q2104 1193 2114.5 1182.5Q2125 1172 2125 1157ZM759 17Q759 2 748.5 -8.5Q738 -19 723 -19Q708 -19 697.5 -8.5Q687 2 687 17V626Q687 640 698.0 650.5Q709 661 723 661Q737 661 748.0 650.5Q759 640 759 626Z" style="fill:#635994;stroke:none" transform="scale(1,-1) translate(0,-256)" /></svg>