<?xml version="1.0" encoding="utf-8" ?>
<svg baseProfile="full" height="256" version="1.1" width="256" xmlns="http://www.w3.org/2000/svg" xmlns:ev="http://www.w3.org/2001/xml-events" xmlns:xlink="http://www.w3.org/1999/xlink"><defs /><path d="M1878 506Q1849 506 1827.5 527.0Q1806 548 1806 577Q1806 606 1827.5 626.5Q1849 647 1878 647H2309Q2338 647 2359.5 626.5Q2381 606 2381 577Q2381 548 2359.5 527.0Q2338 506 2309 506ZM507 216Q477 216 456.0 237.0Q435 258 435 288Q435 317 456.5 338.5Q478 360 507 360H937Q966 360 987.5 338.5Q1009 317 1009 288Q1009 258 988.0 237.0Q967 216 937 216Z" style="fill:#f9c23c;stroke:none" transform="scale(1,-1) translate(0,-256)" /></svg>