<?xml version="1.0" encoding="utf-8" ?>
<svg baseProfile="full" height="256" version="1.1" width="256" xmlns="http://www.w3.org/2000/svg" xmlns:ev="http://www.w3.org/2001/xml-events" xmlns:xlink="http://www.w3.org/1999/xlink"><defs /><path d="M2411 1399Q2411 1339 2390.5 1281.0Q2370 1223 2332.5 1178.0Q2295 1133 2242.0 1105.5Q2189 1078 2125 1078V1079H1813L1577 -263Q1575 -274 1567.0 -281.0Q1559 -288 1548 -288H1076Q1063 -288 1055.0 -279.5Q1047 -271 1047 -258V-253L1186 539H687V538Q622 538 569.0 565.5Q516 593 478.5 638.0Q441 683 420.5 741.0Q400 799 400 860V1188Q464 1188 517.0 1160.5Q570 1133 608.0 1088.0Q646 1043 666.5 985.0Q687 927 687 866V611H1198L1352 1485Q1354 1496 1362.5 1503.0Q1371 1510 1382 1510H1853Q1865 1510 1873.5 1501.0Q1882 1492 1882 1480V1475L1826 1151H2125V1405Q2125 1465 2145.5 1522.5Q2166 1580 2203.5 1625.0Q2241 1670 2294.0 1697.5Q2347 1725 2411 1725V1399Z" style="fill:#44911b;stroke:none" transform="scale(1,-1) translate(0,-256)" /></svg>