<?xml version="1.0" encoding="utf-8" ?>
<svg baseProfile="full" height="256" version="1.1" width="256" xmlns="http://www.w3.org/2000/svg" xmlns:ev="http://www.w3.org/2001/xml-events" xmlns:xlink="http://www.w3.org/1999/xlink"><defs /><path d="M1188 1441Q1193 1441 1197.5 1438.0Q1202 1435 1204 1430Q1206 1424 1213.5 1405.0Q1221 1386 1230.5 1361.0Q1240 1336 1250.5 1308.5Q1261 1281 1270.0 1257.0Q1279 1233 1284.5 1216.5Q1290 1200 1290 1197Q1290 1189 1285.0 1184.5Q1280 1180 1273 1180Q1260 1180 1257 1191Q1255 1197 1247.5 1216.0Q1240 1235 1230.5 1260.0Q1221 1285 1210.0 1312.5Q1199 1340 1190.5 1364.0Q1182 1388 1176.0 1404.5Q1170 1421 1170 1424Q1170 1432 1175.0 1436.5Q1180 1441 1188 1441Z" style="fill:#433b6b;stroke:none" transform="scale(1,-1) translate(0,-256)" /></svg>