<?xml version="1.0" encoding="utf-8" ?>
<svg baseProfile="full" height="256" version="1.1" width="256" xmlns="http://www.w3.org/2000/svg" xmlns:ev="http://www.w3.org/2001/xml-events" xmlns:xlink="http://www.w3.org/1999/xlink"><defs /><path d="M822 916Q836 916 846.0 906.0Q856 896 856 882Q856 848 880.0 824.0Q904 800 938 800Q952 800 962.0 790.0Q972 780 972 766Q972 752 962.0 742.5Q952 733 938 733Q907 733 880.0 744.5Q853 756 832.5 776.5Q812 797 800.5 824.0Q789 851 789 882Q789 896 798.5 906.0Q808 916 822 916Z" style="fill:#433b6b;stroke:none" transform="scale(1,-1) translate(0,-256)" /></svg>