<?xml version="1.0" encoding="utf-8" ?>
<svg baseProfile="full" height="256" version="1.1" width="256" xmlns="http://www.w3.org/2000/svg" xmlns:ev="http://www.w3.org/2001/xml-events" xmlns:xlink="http://www.w3.org/1999/xlink"><defs /><path d="M1830 996Q1839 965 1849.5 933.0Q1860 901 1860 868Q1860 818 1837.5 787.5Q1815 757 1776 730L1494 536L1497 140L1397 186L1341 528Q1340 535 1339.5 541.0Q1339 547 1339 554Q1339 570 1343.0 590.0Q1347 610 1354.5 629.5Q1362 649 1372.5 666.0Q1383 683 1396 693Q1451 734 1505.0 775.5Q1559 817 1615 856Q1668 893 1722.0 927.0Q1776 961 1830 996Z" style="fill:#ffc83d;stroke:none" transform="scale(1,-1) translate(0,-256)" /></svg>