<?xml version="1.0" encoding="utf-8" ?>
<svg baseProfile="full" height="256" version="1.1" width="256" xmlns="http://www.w3.org/2000/svg" xmlns:ev="http://www.w3.org/2001/xml-events" xmlns:xlink="http://www.w3.org/1999/xlink"><defs /><path d="M1810 1231V1453Q1826 1455 1842.0 1456.5Q1858 1458 1874 1458H1882V1242Q1863 1242 1845.0 1240.0Q1827 1238 1810 1231ZM692 1308 743 1359 895 1207 845 1156ZM2273 1150H2041Q2062 1118 2068 1078H2285Q2284 1096 2281.0 1114.0Q2278 1132 2273 1150ZM2126 710 1938 819Q1949 833 1960.5 847.0Q1972 861 1984 875L2176 764Q2163 751 2150.0 737.5Q2137 724 2126 710ZM1808 561 2017 505Q2012 488 2008.0 470.0Q2004 452 2000 435L1791 491Q1795 509 1799.0 526.5Q1803 544 1808 561ZM2004 216H1785Q1787 198 1790.5 180.0Q1794 162 1798 144H2023Q2017 162 2012.0 179.5Q2007 197 2004 216ZM2143 -62 1990 -215Q1978 -201 1966.5 -187.5Q1955 -174 1944 -160L2098 -6Q2109 -20 2120.0 -34.5Q2131 -49 2143 -62ZM688 935H472Q473 953 475.0 971.0Q477 989 482 1006H708Q691 972 688 935ZM1065 819Q1053 807 1040.5 793.0Q1028 779 1014 769L1166 616Q1179 629 1191.5 641.0Q1204 653 1217 666ZM1242 997 1293 1048 1445 895 1395 845ZM876 720Q840 721 804 737V512Q822 509 840.0 507.0Q858 505 876 505ZM1521 1276 1471 1225 1623 1072 1674 1123Z" style="fill:#e39d89;stroke:none" transform="scale(1,-1) translate(0,-256)" /></svg>