<?xml version="1.0" encoding="utf-8" ?>
<svg baseProfile="full" height="256" version="1.1" width="256" xmlns="http://www.w3.org/2000/svg" xmlns:ev="http://www.w3.org/2001/xml-events" xmlns:xlink="http://www.w3.org/1999/xlink"><defs /><path d="M2106 -287Q2086 -287 2069.5 -281.0Q2053 -275 2039.5 -264.5Q2026 -254 2013.5 -240.5Q2001 -227 1989 -213L1990 -215L2049 -109L2143 -62L2137 -55Q2150 -71 2163.5 -83.5Q2177 -96 2188.0 -110.0Q2199 -124 2206.5 -140.5Q2214 -157 2214 -180Q2214 -203 2205.5 -222.5Q2197 -242 2182.5 -256.0Q2168 -270 2148.0 -278.5Q2128 -287 2106 -287ZM1944 -160Q1839 -23 1798 144L1911 169L2024 144Q2038 102 2057.0 63.0Q2076 24 2102 -11L2098 -6L2042 -98ZM1784 216Q1780 245 1778.0 274.5Q1776 304 1776 333Q1776 413 1791 491L1911 486L2000 435H2001Q1996 409 1994.5 384.5Q1993 360 1993 334Q1993 304 1995.5 274.5Q1998 245 2004 216L1911 182ZM1808 561Q1828 631 1861.0 696.0Q1894 761 1938 819L2052 778L2126 710H2127Q2089 665 2062.0 613.0Q2035 561 2018 504L2017 505L1911 512ZM1984 875Q2003 894 2019.5 912.5Q2036 931 2047.0 950.5Q2058 970 2064.5 993.0Q2071 1016 2071 1045Q2071 1061 2068 1078L2176 1107L2286 1078Q2287 1070 2287.0 1061.5Q2287 1053 2287 1045Q2287 967 2258.5 894.0Q2230 821 2176 763V764L2061 796ZM2274 1150 2176 1123 2040 1150Q2013 1192 1972.5 1215.5Q1932 1239 1882 1241L1852 1331L1882 1458Q1952 1457 2015.0 1433.5Q2078 1410 2129.5 1369.5Q2181 1329 2218.5 1273.0Q2256 1217 2274 1150ZM1837 1331 1810 1231Q1788 1223 1770.0 1211.0Q1752 1199 1736.0 1185.0Q1720 1171 1705.0 1155.0Q1690 1139 1674 1123L1583 1184L1521 1276V1275Q1555 1310 1586.0 1339.0Q1617 1368 1650.0 1390.5Q1683 1413 1721.5 1429.0Q1760 1445 1810 1453ZM1445 895 1356 951 1293 1048 1471 1225 1573 1170 1623 1072ZM1217 666 1117 727 1065 819 1242 997 1343 942 1395 845ZM1166 616Q1109 562 1036.0 533.5Q963 505 884 505H876L838 626L876 720Q914 718 949.5 730.5Q985 743 1014 769L1117 715ZM804 512Q732 527 671.0 564.0Q610 601 565.5 655.0Q521 709 496.5 776.0Q472 843 472 917V935L592 961L688 935Q682 870 714.0 817.0Q746 764 804 737L828 626ZM481 1006Q493 1058 513.5 1098.0Q534 1138 561.0 1172.5Q588 1207 621.5 1239.5Q655 1272 692 1309V1308L799 1248L844 1156Q830 1142 810.0 1123.5Q790 1105 770.5 1085.5Q751 1066 734.0 1045.5Q717 1025 708 1006L592 966ZM867 1484Q872 1489 874.0 1507.5Q876 1526 876.0 1547.5Q876 1569 875.0 1588.5Q874 1608 874 1617Q874 1639 882.5 1658.5Q891 1678 906.0 1693.0Q921 1708 940.5 1716.5Q960 1725 982 1725Q1004 1725 1023.5 1716.5Q1043 1708 1058.0 1693.0Q1073 1678 1081.5 1658.5Q1090 1639 1090 1617V1502Q1090 1402 1019 1331L895 1207L804 1261L743 1359H742Z" style="fill:#ff8687;stroke:none" transform="scale(1,-1) translate(0,-256)" /></svg>