<?xml version="1.0" encoding="utf-8" ?>
<svg baseProfile="full" height="256" version="1.1" width="256" xmlns="http://www.w3.org/2000/svg" xmlns:ev="http://www.w3.org/2001/xml-events" xmlns:xlink="http://www.w3.org/1999/xlink"><defs /><path d="M1452 1366Q1515 1364 1575 1351Q1504 1316 1437.5 1274.5Q1371 1233 1308 1186Q1322 1155 1338.5 1124.5Q1355 1094 1372 1065Q1463 1130 1559.5 1182.5Q1656 1235 1759 1277Q1778 1266 1795.0 1253.5Q1812 1241 1829 1227Q1717 1184 1612.0 1129.0Q1507 1074 1410 1004Q1430 974 1452.0 945.5Q1474 917 1497 889Q1546 926 1598.5 960.5Q1651 995 1707.5 1023.5Q1764 1052 1823.0 1072.5Q1882 1093 1943 1104Q1954 1088 1964.0 1071.5Q1974 1055 1984 1038Q1924 1030 1866.0 1011.0Q1808 992 1752.5 965.0Q1697 938 1645.0 905.0Q1593 872 1546 835Q1599 779 1662 730Q1747 790 1840.5 833.0Q1934 876 2037 892Q2046 858 2049 821Q1960 808 1878.5 771.5Q1797 735 1723 685Q1752 665 1782.5 647.0Q1813 629 1845 612Q1893 636 1943.5 653.0Q1994 670 2048 678Q2046 658 2042.5 639.5Q2039 621 2034 602Q1979 591 1931 572Q1951 563 1972.0 555.5Q1993 548 2014 541V540L2045 528Q2091 510 2128.0 481.0Q2165 452 2191.0 414.0Q2217 376 2231.0 331.0Q2245 286 2245 237Q2245 151 2200 77Q2179 43 2150.0 15.5Q2121 -12 2086.5 -31.5Q2052 -51 2013.5 -61.5Q1975 -72 1935 -72H1334Q1304 -72 1283.0 -93.0Q1262 -114 1262 -144Q1262 -173 1283.5 -194.0Q1305 -215 1334 -215H1622Q1636 -215 1647.0 -226.0Q1658 -237 1658 -251Q1658 -265 1647.0 -276.0Q1636 -287 1622 -287H1334Q1304 -287 1278.0 -276.0Q1252 -265 1232.5 -245.5Q1213 -226 1201.5 -200.0Q1190 -174 1190 -144Q1190 -114 1201.5 -88.0Q1213 -62 1232.5 -42.5Q1252 -23 1278.0 -11.5Q1304 0 1334 0H1935Q1984 0 2027.0 19.0Q2070 38 2102.5 70.5Q2135 103 2154.0 146.0Q2173 189 2173 238Q2173 275 2162.0 309.5Q2151 344 2130.5 373.0Q2110 402 2081.5 424.5Q2053 447 2019 461Q1956 486 1894.0 510.5Q1832 535 1772 569Q1664 630 1573.5 709.5Q1483 789 1409.5 883.5Q1336 978 1279.0 1084.5Q1222 1191 1181 1307Q1112 1275 1056 1229Q1112 1078 1193.5 943.0Q1275 808 1381.0 695.5Q1487 583 1617.5 495.5Q1748 408 1901 352Q1875 322 1845 296Q1694 356 1565.0 444.5Q1436 533 1329.5 645.5Q1223 758 1140.5 892.0Q1058 1026 1000 1176Q971 1145 946.0 1111.0Q921 1077 901 1039Q964 904 1045.0 779.5Q1126 655 1225.5 547.0Q1325 439 1444.0 351.0Q1563 263 1701 202Q1678 191 1655.5 182.5Q1633 174 1609 167Q1591 176 1573.0 185.5Q1555 195 1538 206Q1532 192 1527.0 178.0Q1522 164 1518 149Q1499 147 1480.5 145.5Q1462 144 1443 144Q1448 170 1456.5 195.0Q1465 220 1476 244Q1449 261 1423.0 279.5Q1397 298 1371 318Q1350 280 1331.5 241.0Q1313 202 1304 160Q1287 164 1269.5 169.0Q1252 174 1235 180Q1247 229 1268.0 274.5Q1289 320 1315 363Q1286 387 1258.0 412.5Q1230 438 1203 465Q1171 414 1144.0 360.5Q1117 307 1100 249Q1083 260 1068.0 271.5Q1053 283 1039 296Q1060 356 1089.0 411.5Q1118 467 1153 519Q1127 548 1102.5 577.5Q1078 607 1054 638Q1019 584 989.5 527.0Q960 470 938 409Q925 428 913.5 448.0Q902 468 892 488Q915 545 944.5 597.0Q974 649 1009 700Q988 729 969.0 759.5Q950 790 932 822Q880 754 835 680Q833 699 832.0 717.5Q831 736 831 755Q831 784 834 814Q848 834 862.5 854.0Q877 874 892 894Q884 908 877.0 922.5Q870 937 863 951Q886 1018 923.5 1078.0Q961 1138 1010.5 1187.5Q1060 1237 1120.0 1274.5Q1180 1312 1248 1334Q1254 1314 1261.0 1295.5Q1268 1277 1276 1258Q1319 1287 1362.5 1314.5Q1406 1342 1452 1366Z" style="fill:#0074ba;stroke:none" transform="scale(1,-1) translate(0,-256)" /></svg>