<?xml version="1.0" encoding="utf-8" ?>
<svg baseProfile="full" height="256" version="1.1" width="256" xmlns="http://www.w3.org/2000/svg" xmlns:ev="http://www.w3.org/2001/xml-events" xmlns:xlink="http://www.w3.org/1999/xlink"><defs /><path d="M903 1589Q903 1615 921.5 1634.0Q940 1653 966 1653Q985 1653 999.5 1642.5Q1014 1632 1022 1615L1332 906Q1334 902 1334 893Q1334 881 1326.0 872.0Q1318 863 1305 863Q1288 863 1280 878L911 1557Q903 1573 903 1589ZM543 1297Q543 1323 561.0 1344.5Q579 1366 607 1366Q629 1366 646 1352L1250 848Q1262 837 1262 822Q1262 810 1254.0 800.5Q1246 791 1233 791Q1225 791 1217 796L573 1239Q543 1260 543 1297Z" style="fill:#f3c07b;stroke:none" transform="scale(1,-1) translate(0,-256)" /></svg>