<?xml version="1.0" encoding="utf-8" ?>
<svg baseProfile="full" height="256" version="1.1" width="256" xmlns="http://www.w3.org/2000/svg" xmlns:ev="http://www.w3.org/2001/xml-events" xmlns:xlink="http://www.w3.org/1999/xlink"><defs /><path d="M2053 755Q2053 629 2005.0 517.5Q1957 406 1874.0 323.0Q1791 240 1679.5 192.0Q1568 144 1442 144Q1315 144 1204.0 192.0Q1093 240 1010.0 323.0Q927 406 879.0 517.0Q831 628 831 755Q831 881 879.0 992.5Q927 1104 1010.0 1187.0Q1093 1270 1204.5 1318.0Q1316 1366 1442 1366Q1568 1366 1679.5 1318.0Q1791 1270 1874.0 1187.0Q1957 1104 2005.0 992.5Q2053 881 2053 755Z" style="fill:#00a6ed;stroke:none" transform="scale(1,-1) translate(0,-256)" /></svg>