<?xml version="1.0" encoding="utf-8" ?>
<svg baseProfile="full" height="256" version="1.1" width="256" xmlns="http://www.w3.org/2000/svg" xmlns:ev="http://www.w3.org/2001/xml-events" xmlns:xlink="http://www.w3.org/1999/xlink"><defs /><path d="M789 1217Q815 1217 838.0 1203.5Q861 1190 874 1167L1121 728Q1124 723 1129 723Q1138 723 1138 732V1119Q1138 1139 1145.5 1157.0Q1153 1175 1166.5 1188.5Q1180 1202 1198.0 1210.0Q1216 1218 1236 1218Q1256 1218 1274.0 1210.0Q1292 1202 1305.5 1188.5Q1319 1175 1327.0 1157.0Q1335 1139 1335 1119V319Q1335 299 1327.0 281.0Q1319 263 1305.5 249.5Q1292 236 1274.0 228.5Q1256 221 1236 221Q1210 221 1186.5 234.5Q1163 248 1150 271L904 710Q901 715 896 715Q887 715 887 706V319Q887 299 879.0 281.0Q871 263 857.5 249.5Q844 236 826.0 228.0Q808 220 788 220Q768 220 750.0 228.0Q732 236 718.5 249.5Q705 263 697.0 281.0Q689 299 689 319V1119Q689 1161 718.5 1189.0Q748 1217 789 1217ZM1796 1218Q1896 1218 1978.0 1168.0Q2060 1118 2109 1031Q2117 1017 2122.0 1003.5Q2127 990 2127 973Q2127 953 2119.0 935.0Q2111 917 2097.5 903.5Q2084 890 2066.0 882.0Q2048 874 2028 874Q2001 874 1983.5 885.0Q1966 896 1952.5 912.0Q1939 928 1927.0 947.0Q1915 966 1898.0 982.0Q1881 998 1857.0 1009.0Q1833 1020 1796 1020Q1763 1020 1734.0 1007.5Q1705 995 1683.5 973.5Q1662 952 1649.5 923.0Q1637 894 1637 861V578Q1637 545 1649.5 516.0Q1662 487 1684.0 465.0Q1706 443 1735.0 430.5Q1764 418 1797 418H1836Q1875 418 1902.0 445.0Q1929 472 1929 511V565Q1929 569 1924.5 571.5Q1920 574 1914.5 575.0Q1909 576 1904.0 576.0Q1899 576 1897 576Q1888 576 1879.5 575.0Q1871 574 1862 574Q1842 574 1824.0 582.0Q1806 590 1792.5 603.5Q1779 617 1771.0 635.0Q1763 653 1763 673Q1763 693 1771.0 711.0Q1779 729 1792.5 742.5Q1806 756 1824.0 764.0Q1842 772 1862 772H2028Q2048 772 2066.0 764.0Q2084 756 2097.5 742.5Q2111 729 2119.0 711.0Q2127 693 2127 673V511Q2127 451 2104.0 398.0Q2081 345 2041.5 305.5Q2002 266 1949.0 243.0Q1896 220 1836 220H1797Q1723 220 1658.0 248.0Q1593 276 1544.5 325.0Q1496 374 1468.0 439.0Q1440 504 1440 578V861Q1440 935 1468.0 1000.0Q1496 1065 1544.0 1113.5Q1592 1162 1657.0 1190.0Q1722 1218 1796 1218Z" style="fill:#ffffff;stroke:none" transform="scale(1,-1) translate(0,-256)" /></svg>