<?xml version="1.0" encoding="utf-8" ?>
<svg baseProfile="full" height="256" version="1.1" width="256" xmlns="http://www.w3.org/2000/svg" xmlns:ev="http://www.w3.org/2001/xml-events" xmlns:xlink="http://www.w3.org/1999/xlink"><defs /><path d="M2064 1347Q2100 1347 2130.5 1330.5Q2161 1314 2182.5 1287.5Q2204 1261 2216.5 1227.5Q2229 1194 2229 1160V1151Q2216 932 2203.5 715.5Q2191 499 2177 280Q2172 200 2145.5 126.5Q2119 53 2075.0 -10.0Q2031 -73 1972.5 -124.0Q1914 -175 1846.0 -211.0Q1778 -247 1702.0 -266.5Q1626 -286 1547 -286Q1467 -286 1390.0 -263.0Q1313 -240 1245.0 -199.0Q1177 -158 1119.5 -101.5Q1062 -45 1020 23Q997 60 980.5 98.0Q964 136 950 178Q938 215 913.5 260.0Q889 305 858.0 353.5Q827 402 791.5 452.5Q756 503 721.0 551.0Q686 599 654.5 642.5Q623 686 600 721Q573 763 573 812Q573 848 585.0 881.5Q597 915 619.0 940.0Q641 965 672.0 980.0Q703 995 741 995Q781 995 815.0 979.5Q849 964 877.5 939.0Q906 914 930.0 883.0Q954 852 974 821L948 1364Q948 1369 947.5 1374.5Q947 1380 947 1386Q947 1421 959.5 1454.5Q972 1488 994.0 1514.0Q1016 1540 1047.0 1556.0Q1078 1572 1115 1572Q1157 1572 1198.5 1552.0Q1240 1532 1263 1496Q1260 1542 1268.5 1584.0Q1277 1626 1299.5 1658.0Q1322 1690 1358.5 1708.5Q1395 1727 1446 1727Q1471 1727 1496.5 1717.0Q1522 1707 1544.0 1690.0Q1566 1673 1581.5 1650.5Q1597 1628 1602 1603Q1608 1573 1610.5 1542.0Q1613 1511 1614 1481Q1620 1505 1639.0 1521.0Q1658 1537 1682.0 1546.5Q1706 1556 1731.5 1560.5Q1757 1565 1778 1565Q1806 1565 1832.0 1553.5Q1858 1542 1878.5 1522.5Q1899 1503 1911.5 1477.0Q1924 1451 1924 1423V1285Q1936 1300 1952.0 1311.5Q1968 1323 1987.0 1331.0Q2006 1339 2026.0 1343.0Q2046 1347 2064 1347Z" style="fill:#ffc83d;stroke:none" transform="scale(1,-1) translate(0,-256)" /></svg>