<?xml version="1.0" encoding="utf-8" ?>
<svg baseProfile="full" height="256" version="1.1" width="256" xmlns="http://www.w3.org/2000/svg" xmlns:ev="http://www.w3.org/2001/xml-events" xmlns:xlink="http://www.w3.org/1999/xlink"><defs /><path d="M1332 1570Q1332 1589 1333.0 1610.5Q1334 1632 1339.5 1652.5Q1345 1673 1355.5 1690.5Q1366 1708 1384 1719Q1347 1708 1322.5 1684.5Q1298 1661 1284.0 1631.0Q1270 1601 1265.0 1566.0Q1260 1531 1263 1496L1261 1498L1284 949Q1285 934 1295.5 924.0Q1306 914 1321 914Q1336 914 1346.0 926.0Q1356 938 1355 952L1333 1508Q1332 1523 1332.0 1538.5Q1332 1554 1332 1570ZM1418 1725H1412L1418 1726ZM1614 1483Q1612 1473 1611.5 1463.5Q1611 1454 1610 1443L1590 989Q1589 975 1599.5 963.0Q1610 951 1624 951Q1638 951 1649.5 961.0Q1661 971 1662 986L1682 1441Q1683 1457 1686.0 1475.5Q1689 1494 1696.0 1511.0Q1703 1528 1714.5 1541.5Q1726 1555 1743 1563Q1726 1561 1705.5 1555.0Q1685 1549 1666.5 1539.0Q1648 1529 1633.5 1514.5Q1619 1500 1614 1481ZM1928 1289Q1920 1262 1916.0 1234.5Q1912 1207 1911 1179L1899 883Q1898 869 1908.5 857.5Q1919 846 1933 846Q1948 846 1959.0 855.0Q1970 864 1971 880L1983 1176Q1984 1191 1987.5 1219.5Q1991 1248 1999.5 1276.0Q2008 1304 2022.5 1325.0Q2037 1346 2060 1346V1347Q2023 1346 1988.5 1331.0Q1954 1316 1928 1289ZM1015 679Q994 679 983 697Q940 767 902.5 838.5Q865 910 820 979Q844 967 865.5 949.5Q887 932 906.5 910.5Q926 889 943.0 866.0Q960 843 974 821L948 1364Q948 1369 947.5 1375.0Q947 1381 947 1386Q947 1446 979.0 1495.0Q1011 1544 1069 1564Q1052 1554 1041.5 1535.5Q1031 1517 1025.5 1495.5Q1020 1474 1018.0 1452.0Q1016 1430 1016 1412Q1016 1404 1016.5 1397.5Q1017 1391 1017 1383L1051 716Q1052 700 1041.5 689.5Q1031 679 1015 679Z" style="fill:#d67d00;stroke:none" transform="scale(1,-1) translate(0,-256)" /></svg>