<?xml version="1.0" encoding="utf-8" ?>
<svg baseProfile="full" height="256" version="1.1" width="256" xmlns="http://www.w3.org/2000/svg" xmlns:ev="http://www.w3.org/2001/xml-events" xmlns:xlink="http://www.w3.org/1999/xlink"><defs /><path d="M990 1066Q1011 1129 1057.5 1157.0Q1104 1185 1168 1185Q1203 1185 1236.0 1172.5Q1269 1160 1295 1136L1271 1539V1547Q1271 1583 1287.0 1614.5Q1303 1646 1329.0 1669.5Q1355 1693 1388.0 1706.0Q1421 1719 1456 1719Q1533 1719 1581.5 1673.5Q1630 1628 1640 1552Q1648 1488 1651.5 1423.0Q1655 1358 1659 1293Q1664 1224 1668.5 1156.5Q1673 1089 1675 1020Q1675 1012 1676.0 1001.5Q1677 991 1689 991Q1694 991 1698.0 994.5Q1702 998 1704 1002L1846 1423Q1855 1449 1872.5 1471.5Q1890 1494 1912.5 1510.0Q1935 1526 1961.5 1535.0Q1988 1544 2015 1544Q2058 1544 2093.5 1530.5Q2129 1517 2153.5 1492.0Q2178 1467 2191.5 1432.0Q2205 1397 2205 1355Q2205 1308 2190 1263L2062 885Q2048 845 2043.5 805.5Q2039 766 2039 724Q2039 643 2045.0 561.5Q2051 480 2060 401Q2063 377 2063 354Q2063 290 2049.0 227.5Q2035 165 2009 106Q1964 4 1893.5 -69.0Q1823 -142 1735.0 -189.5Q1647 -237 1545.5 -259.0Q1444 -281 1337 -281Q1204 -281 1097.5 -240.0Q991 -199 912.5 -125.0Q834 -51 783.5 53.5Q733 158 712 285Q698 372 691.5 460.0Q685 548 685 636Q685 656 686.5 675.5Q688 695 687 715Q685 763 685.0 811.5Q685 860 685 908Q685 953 698.0 990.0Q711 1027 736.0 1053.5Q761 1080 797.0 1094.5Q833 1109 878 1109Q909 1109 938.0 1098.0Q967 1087 990 1066Z" style="fill:#ffc83d;stroke:none" transform="scale(1,-1) translate(0,-256)" /></svg>