<?xml version="1.0" encoding="utf-8" ?>
<svg baseProfile="full" height="256" version="1.1" width="256" xmlns="http://www.w3.org/2000/svg" xmlns:ev="http://www.w3.org/2001/xml-events" xmlns:xlink="http://www.w3.org/1999/xlink"><defs /><path d="M1382 934Q1383 923 1377.0 913.5Q1371 904 1361 899Q1361 932 1360.5 963.5Q1360 995 1354.0 1024.5Q1348 1054 1335.0 1081.5Q1322 1109 1297 1134Q1294 1179 1290.5 1224.0Q1287 1269 1284 1314Q1280 1371 1275.5 1430.5Q1271 1490 1271 1547Q1271 1578 1284.0 1606.5Q1297 1635 1318.0 1658.0Q1339 1681 1366.5 1696.5Q1394 1712 1424 1717V1709Q1395 1708 1378.5 1693.5Q1362 1679 1354.0 1657.5Q1346 1636 1344.0 1610.5Q1342 1585 1342 1563Q1342 1545 1342.0 1526.5Q1342 1508 1344 1490ZM878 571Q900 571 921.0 574.5Q942 578 962 588Q940 624 928.0 667.5Q916 711 916 753Q916 770 916.0 798.5Q916 827 916.5 861.5Q917 896 918.0 932.5Q919 969 921.0 1002.5Q923 1036 925.5 1062.0Q928 1088 932 1101Q968 1089 996 1060Q991 1020 991.5 979.0Q992 938 991 898Q990 862 989.0 825.5Q988 789 988 753Q988 689 1019 633L1020 634Q1046 599 1085.0 580.5Q1124 562 1168 562Q1202 562 1231.5 573.0Q1261 584 1285.0 603.5Q1309 623 1326.0 649.5Q1343 676 1352 708Q1349 666 1340.0 617.0Q1331 568 1310.0 527.0Q1289 486 1254.5 458.5Q1220 431 1167 431Q1143 431 1120.0 435.5Q1097 440 1076.5 449.5Q1056 459 1039.0 475.0Q1022 491 1012 514Q983 469 949.5 450.0Q916 431 861 431Q809 431 776.5 459.0Q744 487 725.5 528.0Q707 569 699.5 617.0Q692 665 689 705Q696 671 714.5 646.0Q733 621 758.5 604.5Q784 588 814.5 579.5Q845 571 878 571ZM1592 437Q1640 419 1689 413Q1765 402 1824.0 363.5Q1883 325 1919 257Q1927 241 1935.0 220.5Q1943 200 1943 182Q1943 147 1922.5 126.5Q1902 106 1867 106Q1835 106 1817.5 123.5Q1800 141 1792 170Q1783 206 1766.5 238.0Q1750 270 1727.0 296.5Q1704 323 1673.5 341.0Q1643 359 1605 367Q1552 355 1506.0 328.0Q1460 301 1418 268Q1377 236 1339.5 201.0Q1302 166 1266 131Q1251 117 1236.5 101.5Q1222 86 1207 73Q1195 63 1182 63Q1167 63 1156.0 74.0Q1145 85 1145 99Q1145 114 1156 125Q1174 145 1202.0 172.5Q1230 200 1261.0 228.5Q1292 257 1322.0 282.5Q1352 308 1374 325Q1398 343 1422.5 360.0Q1447 377 1473 392Q1450 404 1434.0 423.5Q1418 443 1407.0 466.0Q1396 489 1391.0 514.5Q1386 540 1386 564Q1386 599 1400.0 631.0Q1414 663 1438.5 687.5Q1463 712 1495.0 726.0Q1527 740 1563 738Q1544 725 1526.0 709.0Q1508 693 1494.0 674.0Q1480 655 1471.5 633.5Q1463 612 1463 588Q1463 561 1474.0 537.5Q1485 514 1503.0 495.0Q1521 476 1544.0 461.5Q1567 447 1590 438H1592ZM1701 998Q1704 1001 1704 1002L1846 1423Q1855 1449 1872.5 1471.5Q1890 1494 1912.5 1510.0Q1935 1526 1961.5 1535.0Q1988 1544 2015 1544Q2022 1544 2029.0 1543.5Q2036 1543 2044 1542Q2008 1541 1980.5 1511.5Q1953 1482 1932.0 1441.5Q1911 1401 1896.5 1357.5Q1882 1314 1873 1286L1768 970Q1764 959 1754.5 952.5Q1745 946 1734 946Q1720 946 1709.0 956.5Q1698 967 1698 982Q1698 986 1699.0 990.0Q1700 994 1701 998Z" style="fill:#d67d00;stroke:none" transform="scale(1,-1) translate(0,-256)" /></svg>