<?xml version="1.0" encoding="utf-8" ?>
<svg baseProfile="full" height="256" version="1.1" width="256" xmlns="http://www.w3.org/2000/svg" xmlns:ev="http://www.w3.org/2001/xml-events" xmlns:xlink="http://www.w3.org/1999/xlink"><defs /><path d="M1898 305 2020 20 1964 -4 1842 281 1762 248 1883 -38 1827 -62 1706 224 1625 190 1747 -97 1691 -121 1569 166 1489 131 1611 -154 1555 -178 1433 108 1353 74 1474 -212 1418 -236 1296 50 1216 16 1338 -271 1281 -294 1160 -8 1054 -53 1030 3 1980 407 2004 351 1898 305Z" style="fill:#8c42b2;stroke:none" transform="scale(1,-1) translate(0,-256)" /></svg>