<?xml version="1.0" encoding="utf-8" ?>
<svg baseProfile="full" height="256" version="1.1" width="256" xmlns="http://www.w3.org/2000/svg" xmlns:ev="http://www.w3.org/2001/xml-events" xmlns:xlink="http://www.w3.org/1999/xlink"><defs /><path d="M2082 1231Q2106 1231 2127.0 1221.5Q2148 1212 2163.5 1196.5Q2179 1181 2188.0 1159.5Q2197 1138 2197 1114Q2197 1087 2186 1062Q2166 1017 2142.0 963.0Q2118 909 2096.5 852.5Q2075 796 2059.0 740.0Q2043 684 2039 635Q2038 621 2037.0 608.0Q2036 595 2034 581L2152 248Q2162 221 2162 189Q2162 132 2129.5 86.0Q2097 40 2043 21L1404 -203Q1377 -213 1344 -213Q1287 -213 1242.0 -181.0Q1197 -149 1178 -95L1024 341H1023Q976 472 932.0 603.0Q888 734 838 865Q808 943 773.5 1020.0Q739 1097 706 1175Q697 1196 697 1220Q697 1243 706.0 1263.5Q715 1284 730.0 1299.5Q745 1315 765.5 1324.0Q786 1333 810 1333Q845 1333 872.5 1314.5Q900 1296 914 1264L1052 940L1084 951L903 1427Q896 1445 896 1467Q896 1489 905.0 1509.5Q914 1530 929.0 1546.0Q944 1562 964.0 1571.0Q984 1580 1007 1580Q1044 1580 1074.0 1558.0Q1104 1536 1117 1502L1299 1023L1321 1031L1156 1579Q1151 1596 1151 1611Q1151 1635 1160.0 1655.5Q1169 1676 1184.5 1691.5Q1200 1707 1220.5 1716.0Q1241 1725 1265 1725Q1303 1725 1333.5 1701.0Q1364 1677 1375 1640L1535 1105L1564 1115L1451 1536Q1447 1548 1447 1565Q1447 1588 1456.0 1608.5Q1465 1629 1480.5 1644.5Q1496 1660 1516.5 1669.0Q1537 1678 1560 1678Q1599 1678 1630.0 1653.0Q1661 1628 1671 1590L1798 1118Q1799 1114 1799.0 1109.5Q1799 1105 1800 1101L1849 908L1980 1169Q1994 1198 2022.5 1214.5Q2051 1231 2082 1231Z" style="fill:#6b438b;stroke:none" transform="scale(1,-1) translate(0,-256)" /></svg>