<?xml version="1.0" encoding="utf-8" ?>
<svg baseProfile="full" height="256" version="1.1" width="256" xmlns="http://www.w3.org/2000/svg" xmlns:ev="http://www.w3.org/2001/xml-events" xmlns:xlink="http://www.w3.org/1999/xlink"><defs /><path d="M1934 1205Q1958 1205 1979.0 1195.5Q2000 1186 2015.5 1170.5Q2031 1155 2039.5 1133.5Q2048 1112 2048 1088Q2048 1066 2040 1044Q2024 999 2003.0 943.0Q1982 887 1963.5 828.5Q1945 770 1932.5 712.5Q1920 655 1920 608Q1920 594 1920.0 580.5Q1920 567 1919 553L2058 228Q2072 194 2072 159Q2072 105 2042.5 60.5Q2013 16 1964 -5L1340 -270Q1306 -284 1271 -284Q1217 -284 1172.5 -255.0Q1128 -226 1107 -176L926 249H924Q869 377 816.0 505.0Q763 633 706 760Q671 837 632.5 912.0Q594 987 556 1062Q544 1086 544 1113Q544 1137 553.0 1157.5Q562 1178 577.5 1193.0Q593 1208 613.5 1217.0Q634 1226 657 1226Q689 1226 716.5 1209.5Q744 1193 758 1164L916 849L947 862L737 1325Q727 1346 727 1372Q727 1395 736.0 1415.5Q745 1436 760.0 1451.5Q775 1467 795.5 1476.0Q816 1485 839 1485Q874 1485 903.0 1465.5Q932 1446 946 1414L1156 949L1177 958L978 1495Q971 1512 971 1533Q971 1556 980.0 1576.5Q989 1597 1004.0 1613.0Q1019 1629 1039.5 1638.0Q1060 1647 1083 1647Q1120 1647 1150.0 1625.5Q1180 1604 1193 1569L1387 1045L1416 1057L1276 1470Q1270 1486 1270 1506Q1270 1529 1279.0 1549.5Q1288 1570 1303.0 1585.5Q1318 1601 1338.5 1610.0Q1359 1619 1382 1619Q1420 1619 1450.5 1595.5Q1481 1572 1493 1537L1649 1075Q1666 1024 1681.0 972.0Q1696 920 1713 868L1828 1136Q1842 1167 1871.0 1186.0Q1900 1205 1934 1205Z" style="fill:#b859d3;stroke:none" transform="scale(1,-1) translate(0,-256)" /></svg>