<?xml version="1.0" encoding="utf-8" ?>
<svg baseProfile="full" height="256" version="1.1" width="256" xmlns="http://www.w3.org/2000/svg" xmlns:ev="http://www.w3.org/2001/xml-events" xmlns:xlink="http://www.w3.org/1999/xlink"><defs /><path d="M1909 431Q1909 327 1869.5 235.0Q1830 143 1761.5 75.0Q1693 7 1601.5 -32.5Q1510 -72 1406 -72Q1302 -72 1210.0 -32.5Q1118 7 1050.0 75.0Q982 143 942.5 235.0Q903 327 903 431H1192Q1192 431 1207.0 426.0Q1222 421 1244.5 413.5Q1267 406 1293.5 397.5Q1320 389 1344.0 381.0Q1368 373 1385.0 367.0Q1402 361 1406 360Q1410 361 1427.0 367.0Q1444 373 1468.0 381.0Q1492 389 1518.5 397.5Q1545 406 1567.5 413.5Q1590 421 1605.0 426.0Q1620 431 1620 431Z" style="fill:#bb1d80;stroke:none" transform="scale(1,-1) translate(0,-256)" /></svg>