<?xml version="1.0" encoding="utf-8" ?>
<svg baseProfile="full" height="256" version="1.1" width="256" xmlns="http://www.w3.org/2000/svg" xmlns:ev="http://www.w3.org/2001/xml-events" xmlns:xlink="http://www.w3.org/1999/xlink"><defs /><path d="M1298 899Q1298 825 1270.0 759.5Q1242 694 1193.0 645.0Q1144 596 1079.0 567.5Q1014 539 939 539Q864 539 798.5 567.5Q733 596 684.5 644.5Q636 693 607.5 758.5Q579 824 579 899Q579 974 607.5 1039.0Q636 1104 685.0 1153.0Q734 1202 799.5 1230.0Q865 1258 939 1258Q1013 1258 1078.5 1229.5Q1144 1201 1192.5 1152.5Q1241 1104 1269.5 1038.5Q1298 973 1298 899ZM2233 899Q2233 824 2204.5 758.5Q2176 693 2127.5 644.5Q2079 596 2013.5 567.5Q1948 539 1873 539Q1798 539 1733.0 567.5Q1668 596 1619.0 645.0Q1570 694 1542.0 759.5Q1514 825 1514 899Q1514 973 1542.0 1038.5Q1570 1104 1619.0 1152.5Q1668 1201 1733.5 1229.5Q1799 1258 1873 1258Q1947 1258 2012.5 1230.0Q2078 1202 2127.0 1153.0Q2176 1104 2204.5 1039.0Q2233 974 2233 899Z" style="fill:#ffffff;stroke:none" transform="scale(1,-1) translate(0,-256)" /></svg>