<?xml version="1.0" encoding="utf-8" ?>
<svg baseProfile="full" height="256" version="1.1" width="256" xmlns="http://www.w3.org/2000/svg" xmlns:ev="http://www.w3.org/2001/xml-events" xmlns:xlink="http://www.w3.org/1999/xlink"><defs /><path d="M1162 1379 1052 1220 893 1330 1003 1489ZM820 1225 978 1115 868 957 710 1067 820 1225ZM795 851 685 693 527 803 637 961ZM2059 755 2217 645 2107 487 1949 597 2059 755ZM1876 492 2034 382 1924 223 1766 333 1876 492ZM1851 118 1741 -40 1582 70 1692 228Z" style="fill:#bca4eb;stroke:none" transform="scale(1,-1) translate(0,-256)" /></svg>