<?xml version="1.0" encoding="utf-8" ?>
<svg baseProfile="full" height="256" version="1.1" width="256" xmlns="http://www.w3.org/2000/svg" xmlns:ev="http://www.w3.org/2001/xml-events" xmlns:xlink="http://www.w3.org/1999/xlink"><defs /><path d="M1835 923Q1818 923 1805 932L1416 1202Q1393 1218 1393 1244Q1393 1259 1403 1274L1453 1347Q1469 1369 1496 1369Q1511 1369 1525 1360L1914 1090Q1937 1074 1937 1047Q1937 1032 1927 1017L1877 945Q1861 923 1835 923ZM823 -164Q803 -164 785.5 -156.5Q768 -149 754.5 -135.5Q741 -122 733.5 -104.5Q726 -87 726 -67Q726 -47 733.5 -29.5Q741 -12 754.5 1.0Q768 14 785.5 21.5Q803 29 823 29Q864 29 891.5 1.0Q919 -27 919 -67Q919 -87 911.5 -104.5Q904 -122 891.0 -135.5Q878 -149 860.5 -156.5Q843 -164 823 -164ZM725 313Q725 345 750.5 369.0Q776 393 812.0 408.5Q848 424 886.5 431.5Q925 439 951 439Q1017 439 1075.5 413.5Q1134 388 1177.5 344.5Q1221 301 1246.5 242.5Q1272 184 1272 118Q1272 97 1269.0 71.0Q1266 45 1257.0 22.5Q1248 0 1231.0 -15.0Q1214 -30 1186 -30Q1163 -30 1144 -17L757 252Q725 274 725 313ZM1432 342Q1417 342 1402 352L1013 622Q990 638 990 664Q990 679 1000 694L1270 1083Q1286 1105 1312 1105Q1328 1105 1342 1096L1731 826Q1753 810 1753 783Q1753 767 1744 754L1474 365Q1458 342 1432 342Z" style="fill:#b4acbc;stroke:none" transform="scale(1,-1) translate(0,-256)" /></svg>