<?xml version="1.0" encoding="utf-8" ?>
<svg baseProfile="full" height="256" version="1.1" width="256" xmlns="http://www.w3.org/2000/svg" xmlns:ev="http://www.w3.org/2001/xml-events" xmlns:xlink="http://www.w3.org/1999/xlink"><defs /><path d="M987 1643Q1006 1643 1022 1632L1289 1447Q1315 1429 1315 1395Q1315 1376 1304 1359L753 565Q744 552 730.0 545.0Q716 538 701 538Q681 538 665 549L399 735Q372 754 372 787Q372 806 383 822L935 1616Q944 1629 958.0 1636.0Q972 1643 987 1643ZM1757 -194Q1738 -194 1721 -183L1455 2Q1428 21 1428 54Q1428 73 1439 90L1990 883Q1999 896 2013.0 903.0Q2027 910 2042 910Q2062 910 2078 899L2344 714Q2357 705 2364.0 691.0Q2371 677 2371 662Q2371 643 2360 626L1808 -168Q1790 -194 1757 -194Z" style="fill:#635994;stroke:none" transform="scale(1,-1) translate(0,-256)" /></svg>