<?xml version="1.0" encoding="utf-8" ?>
<svg baseProfile="full" height="256" version="1.1" width="256" xmlns="http://www.w3.org/2000/svg" xmlns:ev="http://www.w3.org/2001/xml-events" xmlns:xlink="http://www.w3.org/1999/xlink"><defs /><path d="M1047 1402Q1047 1388 1036.0 1377.0Q1025 1366 1011 1366Q910 1366 836 1295Q809 1269 790.0 1239.5Q771 1210 757 1175Q747 1150 723 1150Q708 1150 697.5 1161.0Q687 1172 687 1187Q687 1190 687.5 1192.5Q688 1195 689 1198Q705 1249 737.5 1293.0Q770 1337 812.5 1369.5Q855 1402 906.0 1420.0Q957 1438 1011 1438Q1025 1438 1036.0 1427.0Q1047 1416 1047 1402ZM1801 1294Q1852 1294 1904.5 1275.5Q1957 1257 2002.0 1224.0Q2047 1191 2079.5 1146.5Q2112 1102 2124 1051Q2125 1049 2125 1043Q2125 1027 2114.0 1017.0Q2103 1007 2088 1007Q2074 1007 2066.0 1014.5Q2058 1022 2054 1034Q2040 1082 2015.0 1114.5Q1990 1147 1948 1174Q1916 1194 1877.5 1208.0Q1839 1222 1801 1222Q1786 1222 1775.5 1232.5Q1765 1243 1765 1258Q1765 1273 1775.5 1283.5Q1786 1294 1801 1294ZM1262 791Q1262 750 1247.0 712.0Q1232 674 1205 644Q1158 662 1109.5 672.5Q1061 683 1011 683Q942 683 873 663Q853 691 842.0 723.5Q831 756 831 791Q831 836 848.0 875.0Q865 914 894.5 943.0Q924 972 963.0 989.0Q1002 1006 1047 1006Q1092 1006 1131.0 989.0Q1170 972 1199.0 943.0Q1228 914 1245.0 875.0Q1262 836 1262 791ZM1765 863Q1742 863 1719.5 857.5Q1697 852 1677.0 841.0Q1657 830 1641.5 813.0Q1626 796 1619 773Q1611 749 1593.5 734.0Q1576 719 1550 719Q1521 719 1499.5 740.0Q1478 761 1478 790Q1478 795 1478.5 799.0Q1479 803 1480 808Q1492 856 1520.5 893.0Q1549 930 1588.0 955.0Q1627 980 1672.5 993.0Q1718 1006 1765 1006Q1811 1006 1857.0 993.0Q1903 980 1942.5 954.5Q1982 929 2010.5 892.5Q2039 856 2051 808Q2053 798 2053 791Q2053 762 2031.5 740.5Q2010 719 1980 719Q1954 719 1936.5 734.0Q1919 749 1911 773Q1903 797 1888.0 814.0Q1873 831 1853.5 842.0Q1834 853 1811.0 858.0Q1788 863 1765 863ZM1406 216Q1457 216 1509.0 225.0Q1561 234 1610.0 252.5Q1659 271 1702.0 299.5Q1745 328 1780 367Q1792 381 1805.0 388.5Q1818 396 1837 396Q1866 396 1887.5 374.0Q1909 352 1909 323Q1909 310 1905.5 301.0Q1902 292 1895 281Q1884 264 1867.5 248.5Q1851 233 1835 219Q1745 144 1633.5 108.0Q1522 72 1406 72Q1310 72 1216.0 100.0Q1122 128 1046 188Q1032 199 1016.0 214.0Q1000 229 989 245Q982 256 978.5 265.0Q975 274 975 287Q975 317 996.0 338.5Q1017 360 1047 360Q1066 360 1079.0 352.5Q1092 345 1104 331Q1131 300 1166.5 278.0Q1202 256 1242.0 242.5Q1282 229 1324.0 222.5Q1366 216 1406 216Z" style="fill:#402a32;stroke:none" transform="scale(1,-1) translate(0,-256)" /></svg>