<?xml version="1.0" encoding="utf-8" ?>
<svg baseProfile="full" height="256" version="1.1" width="256" xmlns="http://www.w3.org/2000/svg" xmlns:ev="http://www.w3.org/2001/xml-events" xmlns:xlink="http://www.w3.org/1999/xlink"><defs /><path d="M2094 1654Q2116 1654 2136.5 1645.5Q2157 1637 2173 1622L2297 1501Q2314 1485 2322.5 1464.5Q2331 1444 2331 1421Q2331 1394 2318.5 1369.0Q2306 1344 2283 1328L2135 1226Q2129 1221 2121.5 1219.5Q2114 1218 2106 1218Q2084 1218 2070 1232L1910 1389Q1894 1405 1894 1425Q1894 1440 1903 1454L2001 1604Q2016 1627 2041.0 1640.5Q2066 1654 2094 1654Z" style="fill:#8c5543;stroke:none" transform="scale(1,-1) translate(0,-256)" /></svg>