<?xml version="1.0" encoding="utf-8" ?>
<svg baseProfile="full" height="256" version="1.1" width="256" xmlns="http://www.w3.org/2000/svg" xmlns:ev="http://www.w3.org/2001/xml-events" xmlns:xlink="http://www.w3.org/1999/xlink"><defs /><path d="M1116 206Q1116 181 1099.0 164.0Q1082 147 1057 147Q1032 147 1015 164L848 330Q831 347 831 372Q831 397 848.0 414.0Q865 431 890 431Q915 431 932 414L1099 248Q1116 231 1116 206ZM903 54Q903 40 891 31L674 -138Q666 -144 655 -144Q643 -144 635 -136L552 -53Q543 -44 543 -31Q543 -22 549 -14L718 204Q726 215 742 215Q754 215 762 207L894 75Q903 66 903 54Z" style="fill:#cdc4d6;stroke:none" transform="scale(1,-1) translate(0,-256)" /></svg>