<?xml version="1.0" encoding="utf-8" ?>
<svg baseProfile="full" height="256" version="1.1" width="256" xmlns="http://www.w3.org/2000/svg" xmlns:ev="http://www.w3.org/2001/xml-events" xmlns:xlink="http://www.w3.org/1999/xlink"><defs /><path d="M1047 -144Q943 -144 851.0 -104.5Q759 -65 690.5 3.5Q622 72 582.5 164.0Q543 256 543 360Q543 464 583.0 555.5Q623 647 691.5 715.5Q760 784 851.5 823.5Q943 863 1047 863Q1151 863 1242.5 823.5Q1334 784 1402.5 715.5Q1471 647 1510.5 555.5Q1550 464 1550 360Q1550 256 1510.5 164.5Q1471 73 1402.5 4.5Q1334 -64 1242.5 -104.0Q1151 -144 1047 -144Z" style="fill:#f3eef8;stroke:none" transform="scale(1,-1) translate(0,-256)" /></svg>