<?xml version="1.0" encoding="utf-8" ?>
<svg baseProfile="full" height="256" version="1.1" width="256" xmlns="http://www.w3.org/2000/svg" xmlns:ev="http://www.w3.org/2001/xml-events" xmlns:xlink="http://www.w3.org/1999/xlink"><defs /><path d="M1499 361Q1499 455 1463.5 537.0Q1428 619 1367.0 680.0Q1306 741 1224.0 776.5Q1142 812 1048 812Q955 812 872.5 776.5Q790 741 729.0 680.0Q668 619 632.5 536.5Q597 454 597 361Q597 268 632.5 185.5Q668 103 729.0 42.0Q790 -19 872.5 -54.5Q955 -90 1048 -90Q1141 -90 1223.5 -54.5Q1306 -19 1367.0 42.0Q1428 103 1463.5 185.5Q1499 268 1499 361ZM1049 931Q1167 931 1270.5 886.0Q1374 841 1451.5 764.0Q1529 687 1574.0 583.5Q1619 480 1619 362Q1619 244 1574.0 140.0Q1529 36 1452.0 -41.5Q1375 -119 1271.0 -164.0Q1167 -209 1049 -209Q970 -209 897.5 -188.5Q825 -168 761.5 -131.0Q698 -94 646.0 -42.0Q594 10 557.0 73.5Q520 137 499.5 209.5Q479 282 479 361Q479 440 499.5 512.5Q520 585 557.0 648.5Q594 712 646.0 764.0Q698 816 761.5 853.0Q825 890 897.5 910.5Q970 931 1049 931Z" style="fill:#8c5543;stroke:none" transform="scale(1,-1) translate(0,-256)" /></svg>