<?xml version="1.0" encoding="utf-8" ?>
<svg baseProfile="full" height="256" version="1.1" width="256" xmlns="http://www.w3.org/2000/svg" xmlns:ev="http://www.w3.org/2001/xml-events" xmlns:xlink="http://www.w3.org/1999/xlink"><defs /><path d="M2053 1643Q2053 1619 2036.0 1602.0Q2019 1585 1995 1585Q1971 1585 1954.5 1602.5Q1938 1620 1938 1643Q1938 1666 1955.0 1683.0Q1972 1700 1995 1700Q2019 1700 2036.0 1683.5Q2053 1667 2053 1643ZM1962 1519Q1962 1495 1945.5 1478.0Q1929 1461 1905 1461Q1881 1461 1864.0 1478.0Q1847 1495 1847 1519Q1847 1543 1864.5 1559.5Q1882 1576 1905 1576Q1928 1576 1945.0 1559.0Q1962 1542 1962 1519ZM2321 1261Q2344 1261 2361.0 1278.0Q2378 1295 2378 1318Q2378 1341 2361.5 1358.5Q2345 1376 2321 1376Q2297 1376 2280.0 1359.0Q2263 1342 2263 1318Q2263 1294 2280.5 1277.5Q2298 1261 2321 1261ZM2254 1228Q2254 1204 2237.0 1187.0Q2220 1170 2196 1170Q2172 1170 2155.5 1187.5Q2139 1205 2139 1228Q2139 1251 2156.0 1268.0Q2173 1285 2196 1285Q2220 1285 2237.0 1268.5Q2254 1252 2254 1228Z" style="fill:#d3d3d3;stroke:none" transform="scale(1,-1) translate(0,-256)" /></svg>