<?xml version="1.0" encoding="utf-8" ?>
<svg baseProfile="full" height="256" version="1.1" width="256" xmlns="http://www.w3.org/2000/svg" xmlns:ev="http://www.w3.org/2001/xml-events" xmlns:xlink="http://www.w3.org/1999/xlink"><defs /><path d="M683 -287H461Q435 -287 417.5 -269.5Q400 -252 400 -226Q400 -220 402 -210L895 1660Q903 1689 926.5 1707.0Q950 1725 979 1725H1201Q1227 1725 1244.5 1707.5Q1262 1690 1262 1664Q1262 1658 1260 1648L767 -222Q759 -251 736.0 -269.0Q713 -287 683 -287ZM1833 -287H1611Q1585 -287 1567.5 -269.5Q1550 -252 1550 -226Q1550 -206 1557.0 -184.5Q1564 -163 1569 -144L1505 -33L1626 72L1702 360L1637 470L1758 574L1835 864L1770 973L1891 1077L1968 1369L1902 1478L2024 1581Q2030 1604 2035.5 1629.5Q2041 1655 2051.5 1676.0Q2062 1697 2080.0 1711.0Q2098 1725 2129 1725H2351Q2377 1725 2394.5 1707.0Q2412 1689 2412 1664Q2412 1659 2411.5 1655.5Q2411 1652 2410 1648L1918 -222Q1910 -251 1886.0 -269.0Q1862 -287 1833 -287Z" style="fill:#7d4533;stroke:none" transform="scale(1,-1) translate(0,-256)" /></svg>