<?xml version="1.0" encoding="utf-8" ?>
<svg baseProfile="full" height="256" version="1.1" width="256" xmlns="http://www.w3.org/2000/svg" xmlns:ev="http://www.w3.org/2001/xml-events" xmlns:xlink="http://www.w3.org/1999/xlink"><defs /><path d="M1626 72 1569 -144H655Q638 -144 626.5 -132.0Q615 -120 615 -103Q615 -93 620.0 -74.0Q625 -55 632.0 -33.5Q639 -12 646.0 8.0Q653 28 656 39Q661 54 672.5 63.0Q684 72 700 72ZM1759 575 1702 360H765Q748 360 735.5 371.5Q723 383 723 400Q723 408 728.5 427.5Q734 447 741.5 469.0Q749 491 756.5 511.5Q764 532 767 542Q772 557 784.5 566.0Q797 575 813 575ZM1017 1366Q1000 1366 987.5 1377.5Q975 1389 975 1406Q975 1415 980.5 1434.5Q986 1454 993.0 1475.5Q1000 1497 1007.0 1517.5Q1014 1538 1017 1548Q1022 1564 1035.0 1572.5Q1048 1581 1064 1581H2024L1967 1366ZM1834 863H873Q856 863 843.5 874.5Q831 886 831 903Q831 911 836.5 930.5Q842 950 849.5 972.5Q857 995 864.0 1015.0Q871 1035 874 1045Q879 1060 892.0 1069.0Q905 1078 921 1078H1891Z" style="fill:#a56953;stroke:none" transform="scale(1,-1) translate(0,-256)" /></svg>