<?xml version="1.0" encoding="utf-8" ?>
<svg baseProfile="full" height="256" version="1.1" width="256" xmlns="http://www.w3.org/2000/svg" xmlns:ev="http://www.w3.org/2001/xml-events" xmlns:xlink="http://www.w3.org/1999/xlink"><defs /><path d="M1190 1546Q1190 1583 1204.0 1615.5Q1218 1648 1242.5 1672.5Q1267 1697 1300.0 1711.0Q1333 1725 1370 1725Q1407 1725 1440.0 1711.0Q1473 1697 1497.5 1672.5Q1522 1648 1536.0 1615.5Q1550 1583 1550 1546V395Q1550 358 1536.0 325.5Q1522 293 1497.5 268.5Q1473 244 1440.0 230.0Q1407 216 1370 216Q1333 216 1300.0 230.0Q1267 244 1242.5 268.5Q1218 293 1204.0 325.5Q1190 358 1190 395ZM1190 -108Q1190 -71 1204.0 -38.0Q1218 -5 1242.5 19.5Q1267 44 1300.0 58.0Q1333 72 1370 72Q1407 72 1440.0 58.0Q1473 44 1497.5 19.5Q1522 -5 1536.0 -38.0Q1550 -71 1550 -108Q1550 -145 1535.5 -177.5Q1521 -210 1496.5 -234.5Q1472 -259 1439.5 -273.0Q1407 -287 1370 -287Q1333 -287 1300.5 -273.0Q1268 -259 1243.5 -234.5Q1219 -210 1204.5 -177.5Q1190 -145 1190 -108Z" style="fill:#f8312f;stroke:none" transform="scale(1,-1) translate(0,-256)" /></svg>