<?xml version="1.0" encoding="utf-8" ?>
<svg baseProfile="full" height="256" version="1.1" width="256" xmlns="http://www.w3.org/2000/svg" xmlns:ev="http://www.w3.org/2001/xml-events" xmlns:xlink="http://www.w3.org/1999/xlink"><defs /><path d="M759 1442Q759 1410 772.0 1394.0Q785 1378 805.0 1372.0Q825 1366 849.0 1366.0Q873 1366 896 1366L824 648L1232 151Q1263 113 1306.0 92.5Q1349 72 1398 72H2125Q2154 72 2175.5 50.5Q2197 29 2197 0Q2197 -29 2175.5 -50.5Q2154 -72 2125 -72H1398Q1318 -72 1244.5 -37.0Q1171 -2 1120 60L804 446L759 -7Q756 -34 735.5 -52.5Q715 -71 687 -71Q658 -71 637.0 -50.0Q616 -29 616 0V7Z" style="fill:#26c9fc;stroke:none" transform="scale(1,-1) translate(0,-256)" /></svg>