<?xml version="1.0" encoding="utf-8" ?>
<svg baseProfile="full" height="256" version="1.1" width="256" xmlns="http://www.w3.org/2000/svg" xmlns:ev="http://www.w3.org/2001/xml-events" xmlns:xlink="http://www.w3.org/1999/xlink"><defs /><path d="M1864 1724Q1819 1724 1783.0 1699.0Q1747 1674 1732 1632L1563 1167Q1551 1133 1538.0 1106.0Q1525 1079 1513.5 1052.5Q1502 1026 1493.0 998.0Q1484 970 1479 934Q1471 879 1470.5 833.5Q1470 788 1471.5 744.5Q1473 701 1476.0 655.0Q1479 609 1479 554V-207Q1461 -192 1447.5 -171.5Q1434 -151 1425.0 -127.5Q1416 -104 1411.0 -80.0Q1406 -56 1406 -33Q1406 -56 1401.5 -80.5Q1397 -105 1388.0 -128.0Q1379 -151 1365.5 -172.0Q1352 -193 1334 -208V553Q1334 609 1337.0 655.0Q1340 701 1341.5 744.5Q1343 788 1342.0 833.5Q1341 879 1334 934Q1329 970 1320.0 998.0Q1311 1026 1299.5 1052.5Q1288 1079 1275.0 1106.0Q1262 1133 1250 1167L1082 1632Q1065 1679 1023.5 1701.5Q982 1724 934 1724Z" style="fill:#ca0b4a;stroke:none" transform="scale(1,-1) translate(0,-256)" /></svg>