<?xml version="1.0" encoding="utf-8" ?>
<svg baseProfile="full" height="256" version="1.1" width="256" xmlns="http://www.w3.org/2000/svg" xmlns:ev="http://www.w3.org/2001/xml-events" xmlns:xlink="http://www.w3.org/1999/xlink"><defs /><path d="M2413 872V-92Q2413 -133 2397.5 -168.5Q2382 -204 2355.5 -230.0Q2329 -256 2293.0 -271.5Q2257 -287 2217 -287H1668Q1614 -287 1566.5 -267.0Q1519 -247 1483.5 -211.5Q1448 -176 1427.5 -129.0Q1407 -82 1407 -28Q1407 -82 1386.5 -129.0Q1366 -176 1330.5 -211.0Q1295 -246 1248.0 -266.5Q1201 -287 1147 -287H596Q555 -287 519.5 -271.5Q484 -256 457.5 -230.0Q431 -204 415.5 -168.5Q400 -133 400 -92V858Q400 926 423.0 985.0Q446 1044 486 1098Q556 1193 605.0 1295.5Q654 1398 679 1514Q684 1535 687.0 1556.5Q690 1578 694 1599Q704 1653 740.0 1688.5Q776 1724 833 1724H1996Q2024 1724 2047.5 1714.0Q2071 1704 2088.5 1687.0Q2106 1670 2117.0 1647.0Q2128 1624 2133 1598Q2145 1525 2161.0 1462.5Q2177 1400 2200.0 1341.5Q2223 1283 2254.5 1226.0Q2286 1169 2330 1109Q2368 1055 2390.5 996.5Q2413 938 2413 872Z" style="fill:#ff6723;stroke:none" transform="scale(1,-1) translate(0,-256)" /></svg>