<?xml version="1.0" encoding="utf-8" ?>
<svg baseProfile="full" height="256" version="1.1" width="256" xmlns="http://www.w3.org/2000/svg" xmlns:ev="http://www.w3.org/2001/xml-events" xmlns:xlink="http://www.w3.org/1999/xlink"><defs /><path d="M615 901Q615 995 641.0 1083.5Q667 1172 715.5 1248.5Q764 1325 832.5 1386.0Q901 1447 987 1486Q1008 1496 1029.0 1505.5Q1050 1515 1071 1524Q1134 1552 1199.0 1566.5Q1264 1581 1333 1581Q1416 1581 1493.0 1560.5Q1570 1540 1638.0 1502.0Q1706 1464 1764.0 1408.5Q1822 1353 1867 1284Q1971 1124 2043.0 958.5Q2115 793 2157 607Q2171 544 2184.0 482.0Q2197 420 2197 355Q2197 223 2147.5 106.5Q2098 -10 2012.5 -98.0Q1927 -186 1811.5 -237.0Q1696 -288 1563 -288Q1421 -288 1295.5 -228.5Q1170 -169 1079 -60Q1062 -40 1046.5 -21.5Q1031 -3 1015 17Q887 171 791.0 348.5Q695 526 641 720Q615 812 615 901Z" style="fill:#ffb02e;stroke:none" transform="scale(1,-1) translate(0,-256)" /></svg>