<?xml version="1.0" encoding="utf-8" ?>
<svg baseProfile="full" height="256" version="1.1" width="256" xmlns="http://www.w3.org/2000/svg" xmlns:ev="http://www.w3.org/2001/xml-events" xmlns:xlink="http://www.w3.org/1999/xlink"><defs /><path d="M1046 1264Q1076 1264 1097 1243L1643 698Q1653 688 1664 688Q1671 688 1688.0 703.0Q1705 718 1724.5 737.5Q1744 757 1761.5 775.5Q1779 794 1785 800Q1807 822 1836 822Q1866 822 1887.0 801.0Q1908 780 1908 750L1910 287Q1910 257 1889.0 236.0Q1868 215 1838 215L1375 217Q1345 217 1324.0 238.0Q1303 259 1303 289Q1303 318 1325 340Q1331 346 1349.5 363.5Q1368 381 1387.5 400.5Q1407 420 1422.0 437.0Q1437 454 1437 461Q1437 472 1427 482L882 1028Q861 1049 861 1078Q861 1108 882 1129L996 1243Q1017 1264 1046 1264Z" style="fill:#ffffff;stroke:none" transform="scale(1,-1) translate(0,-256)" /></svg>