<?xml version="1.0" encoding="utf-8" ?>
<svg baseProfile="full" height="256" version="1.1" width="256" xmlns="http://www.w3.org/2000/svg" xmlns:ev="http://www.w3.org/2001/xml-events" xmlns:xlink="http://www.w3.org/1999/xlink"><defs /><path d="M1679 159H1694Q1697 145 1703.0 120.0Q1709 95 1715.0 67.5Q1721 40 1725.5 16.0Q1730 -8 1730 -20Q1730 -40 1715.0 -55.5Q1700 -71 1679 -71Q1663 -71 1638.5 -66.0Q1614 -61 1588.5 -54.0Q1563 -47 1539.0 -39.0Q1515 -31 1499 -25Q1385 19 1291.5 94.5Q1198 170 1131.5 267.0Q1065 364 1029.0 478.0Q993 592 993 715Q993 743 994.5 771.0Q996 799 1001 826Q1020 695 1079.5 581.0Q1139 467 1228.5 379.0Q1318 291 1433.0 233.5Q1548 176 1679 158Z" style="fill:#00a6ed;stroke:none" transform="scale(1,-1) translate(0,-256)" /></svg>