<?xml version="1.0" encoding="utf-8" ?>
<svg baseProfile="full" height="256" version="1.1" width="256" xmlns="http://www.w3.org/2000/svg" xmlns:ev="http://www.w3.org/2001/xml-events" xmlns:xlink="http://www.w3.org/1999/xlink"><defs /><path d="M1070 1248Q1035 1248 1005.0 1261.0Q975 1274 952.0 1297.0Q929 1320 916.0 1350.0Q903 1380 903 1415Q903 1449 916.0 1479.5Q929 1510 952.0 1532.5Q975 1555 1005.0 1568.0Q1035 1581 1070 1581Q1104 1581 1134.5 1568.0Q1165 1555 1187.5 1532.5Q1210 1510 1223.0 1479.5Q1236 1449 1236 1415Q1236 1380 1223.0 1350.0Q1210 1320 1187.5 1297.0Q1165 1274 1134.5 1261.0Q1104 1248 1070 1248Z" style="fill:#e6e6e6;stroke:none" transform="scale(1,-1) translate(0,-256)" /></svg>