<?xml version="1.0" encoding="utf-8" ?>
<svg baseProfile="full" height="256" version="1.1" width="256" xmlns="http://www.w3.org/2000/svg" xmlns:ev="http://www.w3.org/2001/xml-events" xmlns:xlink="http://www.w3.org/1999/xlink"><defs /><path d="M891 1327 689 1235Q670 1226 666.0 1211.5Q662 1197 661.0 1183.0Q660 1169 656.5 1159.0Q653 1149 636 1149Q628 1149 623 1153Q588 1176 569.0 1214.0Q550 1252 550 1293Q550 1328 563.5 1359.0Q577 1390 600.0 1413.5Q623 1437 654.0 1451.0Q685 1465 720 1465Q751 1465 779.5 1455.0Q808 1445 831.0 1426.5Q854 1408 869.5 1382.5Q885 1357 891 1327ZM1001 825Q1011 874 1037.0 915.5Q1063 957 1099.5 987.0Q1136 1017 1182.0 1034.0Q1228 1051 1279 1051Q1329 1051 1375.0 1034.0Q1421 1017 1458.5 987.0Q1496 957 1522.0 915.5Q1548 874 1558 825L1694 159H1679V158Q1558 174 1466.5 196.0Q1375 218 1305.5 252.0Q1236 286 1187.0 334.5Q1138 383 1102.5 452.0Q1067 521 1043.0 613.0Q1019 705 1001 825ZM1367 -71V-179H1169Q1147 -179 1131.5 -195.0Q1116 -211 1116 -233Q1116 -256 1131.0 -271.5Q1146 -287 1169 -287H1565Q1587 -287 1603.0 -271.0Q1619 -255 1619 -233Q1619 -211 1603.0 -195.0Q1587 -179 1565 -179H1475V-71Z" style="fill:#ffb02e;stroke:none" transform="scale(1,-1) translate(0,-256)" /></svg>