<?xml version="1.0" encoding="utf-8" ?>
<svg baseProfile="full" height="256" version="1.1" width="256" xmlns="http://www.w3.org/2000/svg" xmlns:ev="http://www.w3.org/2001/xml-events" xmlns:xlink="http://www.w3.org/1999/xlink"><defs /><path d="M1067 1725Q1136 1725 1197.0 1702.0Q1258 1679 1307.0 1638.5Q1356 1598 1389.0 1542.0Q1422 1486 1436 1419L1559 817L1375 458L1665 301L1666 297V303L2216 356Q2236 358 2250.5 344.0Q2265 330 2265 310V153Q2265 106 2247.5 65.5Q2230 25 2199.5 -5.5Q2169 -36 2128.0 -53.5Q2087 -71 2041 -71H1684H1474L1421 -119L1368 -71Q1330 -71 1292.5 -72.0Q1255 -73 1218 -69L1155 -103L1115 -54Q991 -27 886.5 37.5Q782 102 705.5 194.5Q629 287 586.0 402.0Q543 517 543 644Q543 768 581.5 872.0Q620 976 692 1076Q708 1098 716.0 1120.0Q724 1142 724 1170Q724 1197 715 1224Q705 1256 699.5 1287.0Q694 1318 694 1352Q694 1430 723.0 1498.0Q752 1566 802.5 1616.5Q853 1667 921.0 1696.0Q989 1725 1067 1725Z" style="fill:#f70a8d;stroke:none" transform="scale(1,-1) translate(0,-256)" /></svg>