<?xml version="1.0" encoding="utf-8" ?>
<svg baseProfile="full" height="256" version="1.1" width="256" xmlns="http://www.w3.org/2000/svg" xmlns:ev="http://www.w3.org/2001/xml-events" xmlns:xlink="http://www.w3.org/1999/xlink"><defs /><path d="M1520 1653 1562 1642 1557 1605 1637 1615V1592L1551 1582L1547 1555L1623 1563V1552L1543 1536L1536 1515L1675 1536L1692 1502L1589 1491Q1627 1459 1670.5 1435.5Q1714 1412 1765 1412V1394Q1748 1387 1730.0 1382.5Q1712 1378 1694 1378Q1686 1378 1668.0 1392.5Q1650 1407 1630.5 1425.5Q1611 1444 1593.5 1462.0Q1576 1480 1570 1488L1523 1483L1501 1452L1606 1447V1298L1583 1294V1332L1505 1328V1302L1480 1306V1422Q1459 1402 1435.5 1384.5Q1412 1367 1385 1355L1379 1378Q1399 1388 1414.5 1398.5Q1430 1409 1443.0 1421.5Q1456 1434 1467.5 1448.5Q1479 1463 1492 1481L1419 1471L1423 1498L1505 1511L1513 1532L1469 1523L1473 1550L1517 1552L1520 1577L1469 1569V1594L1520 1601ZM1505 1422V1391L1570 1399V1380L1505 1372V1344H1583V1422Z" style="fill:#0074ba;stroke:none" transform="scale(1,-1) translate(0,-256)" /></svg>