<?xml version="1.0" encoding="utf-8" ?>
<svg baseProfile="full" height="256" version="1.1" width="256" xmlns="http://www.w3.org/2000/svg" xmlns:ev="http://www.w3.org/2001/xml-events" xmlns:xlink="http://www.w3.org/1999/xlink"><defs /><path d="M1514 252Q1514 237 1503.5 226.5Q1493 216 1478 216Q1467 216 1457.5 222.5Q1448 229 1444 240L1340 552L1083 724V431H1011V772L703 977Q687 987 687 1007Q687 1021 698.0 1031.5Q709 1042 723 1042Q729 1042 745.5 1033.0Q762 1024 784.0 1010.0Q806 996 831.0 979.5Q856 963 879.0 947.0Q902 931 919.5 918.5Q937 906 945 901L1218 969L1235 900L1026 848L1390 605Q1399 599 1404 587Q1407 578 1417.0 551.0Q1427 524 1439.0 488.0Q1451 452 1464.5 412.5Q1478 373 1489.0 339.0Q1500 305 1507.0 280.5Q1514 256 1514 252Z" style="fill:#0074ba;stroke:none" transform="scale(1,-1) translate(0,-256)" /></svg>