<?xml version="1.0" encoding="utf-8" ?>
<svg baseProfile="full" height="256" version="1.1" width="256" xmlns="http://www.w3.org/2000/svg" xmlns:ev="http://www.w3.org/2001/xml-events" xmlns:xlink="http://www.w3.org/1999/xlink"><defs /><path d="M1011 935Q1011 920 1000.5 909.5Q990 899 975 899Q960 899 949.5 909.5Q939 920 939 935Q939 949 950.0 960.0Q961 971 975 971Q989 971 1000.0 960.0Q1011 949 1011 935ZM1298 431Q1298 417 1287.0 406.5Q1276 396 1262 396Q1248 396 1237.0 406.5Q1226 417 1226 431Q1226 446 1236.5 456.5Q1247 467 1262 467Q1277 467 1287.5 456.5Q1298 446 1298 431ZM1586 431Q1586 417 1575.0 406.5Q1564 396 1550 396Q1536 396 1525.0 406.5Q1514 417 1514 431Q1514 446 1524.5 456.5Q1535 467 1550 467Q1565 467 1575.5 456.5Q1586 446 1586 431ZM1548 345Q1578 345 1600.0 323.5Q1622 302 1622 272Q1622 254 1613.5 238.0Q1605 222 1591 211Q1595 202 1595 188Q1595 158 1573.0 136.5Q1551 115 1521 115Q1498 115 1478 129Q1458 115 1435 115Q1403 115 1382.0 136.0Q1361 157 1361 189Q1361 200 1364 211Q1350 222 1342.0 238.0Q1334 254 1334 271Q1334 301 1356.0 323.0Q1378 345 1408 345Q1415 368 1435.0 382.0Q1455 396 1478 396Q1502 396 1521.0 382.0Q1540 368 1548 345ZM1081 560Q1111 560 1133.0 538.5Q1155 517 1155 487Q1155 469 1146.5 453.5Q1138 438 1124 427Q1128 418 1128 404Q1128 374 1106.0 352.0Q1084 330 1054 330Q1031 330 1011 345Q991 330 968 330Q937 330 915.5 352.0Q894 374 894 405Q894 416 897 427Q867 448 867 485Q867 516 888.5 538.0Q910 560 941 560Q948 583 967.5 597.0Q987 611 1011 611Q1035 611 1054.0 597.0Q1073 583 1081 560ZM1332 1063Q1363 1063 1384.5 1041.5Q1406 1020 1406 989Q1406 972 1398.0 956.0Q1390 940 1376 930Q1379 919 1379 908Q1379 878 1357.5 855.5Q1336 833 1305 833Q1282 833 1262 848Q1242 833 1219 833Q1204 833 1191.0 839.0Q1178 845 1167.5 855.5Q1157 866 1151.0 879.0Q1145 892 1145 907Q1145 921 1149 930Q1135 941 1126.5 956.5Q1118 972 1118 990Q1118 1020 1140.0 1041.5Q1162 1063 1192 1063Q1200 1086 1219.0 1100.0Q1238 1114 1262 1114Q1286 1114 1305.5 1100.0Q1325 1086 1332 1063ZM1440 704Q1470 704 1492.0 682.0Q1514 660 1514 630Q1514 613 1505.5 597.0Q1497 581 1483 571Q1487 562 1487 548Q1487 517 1465.5 495.5Q1444 474 1413 474Q1390 474 1370 488Q1350 474 1327 474Q1296 474 1274.5 495.5Q1253 517 1253 548Q1253 562 1257 571Q1243 582 1234.5 597.5Q1226 613 1226 631Q1226 661 1248.0 682.5Q1270 704 1300 704Q1308 727 1327.0 741.0Q1346 755 1370 755Q1394 755 1413.0 741.0Q1432 727 1440 704Z" style="fill:#007356;stroke:none" transform="scale(1,-1) translate(0,-256)" /></svg>