<?xml version="1.0" encoding="utf-8" ?>
<svg baseProfile="full" height="256" version="1.1" width="256" xmlns="http://www.w3.org/2000/svg" xmlns:ev="http://www.w3.org/2001/xml-events" xmlns:xlink="http://www.w3.org/1999/xlink"><defs /><path d="M684 -102Q684 -88 689.5 -75.5Q695 -63 703 -52Q758 36 820.0 118.0Q882 200 938 288H1670Q1727 204 1783.5 121.0Q1840 38 1894 -48Q1902 -60 1907.5 -73.0Q1913 -86 1913 -100Q1913 -118 1906.0 -130.0Q1899 -142 1887.0 -149.5Q1875 -157 1860.5 -160.0Q1846 -163 1831 -163H761Q747 -163 733.5 -159.5Q720 -156 709.0 -149.0Q698 -142 691.0 -130.5Q684 -119 684 -102ZM1670 72Q1664 85 1656.0 98.0Q1648 111 1638.5 121.5Q1629 132 1616.0 138.5Q1603 145 1587 145H1011Q994 145 981.0 138.5Q968 132 957.5 121.5Q947 111 939.0 98.0Q931 85 925 72ZM1766 -71Q1759 -60 1751.5 -47.0Q1744 -34 1735.0 -23.5Q1726 -13 1714.5 -6.0Q1703 1 1687 1H928Q908 1 894.5 -6.0Q881 -13 870.0 -23.5Q859 -34 850.0 -46.5Q841 -59 831 -71Z" style="fill:#321b41;stroke:none" transform="scale(1,-1) translate(0,-256)" /></svg>