<?xml version="1.0" encoding="utf-8" ?>
<svg baseProfile="full" height="256" version="1.1" width="256" xmlns="http://www.w3.org/2000/svg" xmlns:ev="http://www.w3.org/2001/xml-events" xmlns:xlink="http://www.w3.org/1999/xlink"><defs /><path d="M1765 1262V1222H831V1262Q831 1298 845.0 1330.0Q859 1362 883.0 1386.0Q907 1410 939.0 1424.0Q971 1438 1007 1438H1589Q1625 1438 1657.0 1424.0Q1689 1410 1713.0 1386.0Q1737 1362 1751.0 1330.0Q1765 1298 1765 1262ZM2233 360Q2217 360 2207.0 370.0Q2197 380 2197 396V935H2268V396Q2268 381 2258.0 370.5Q2248 360 2233 360ZM831 719V536Q831 500 845.0 468.0Q859 436 883.0 412.0Q907 388 939.0 374.0Q971 360 1007 360H1589Q1625 360 1657.0 374.0Q1689 388 1713.0 412.0Q1737 436 1751.0 468.0Q1765 500 1765 536V719Z" style="fill:#636363;stroke:none" transform="scale(1,-1) translate(0,-256)" /></svg>