<?xml version="1.0" encoding="utf-8" ?>
<svg baseProfile="full" height="256" version="1.1" width="256" xmlns="http://www.w3.org/2000/svg" xmlns:ev="http://www.w3.org/2001/xml-events" xmlns:xlink="http://www.w3.org/1999/xlink"><defs /><path d="M1765 1262V679Q1765 643 1751.0 611.0Q1737 579 1713.0 555.0Q1689 531 1657.0 517.0Q1625 503 1589 503H1007Q971 503 939.0 517.0Q907 531 883.0 555.0Q859 579 845.0 611.0Q831 643 831 679V1262Q831 1298 845.0 1330.0Q859 1362 883.0 1386.0Q907 1410 939.0 1424.0Q971 1438 1007 1438H1589Q1625 1438 1657.0 1424.0Q1689 1410 1713.0 1386.0Q1737 1362 1751.0 1330.0Q1765 1298 1765 1262Z" style="fill:#26eafc;stroke:none" transform="scale(1,-1) translate(0,-256)" /></svg>