<?xml version="1.0" encoding="utf-8" ?>
<svg baseProfile="full" height="256" version="1.1" width="256" xmlns="http://www.w3.org/2000/svg" xmlns:ev="http://www.w3.org/2001/xml-events" xmlns:xlink="http://www.w3.org/1999/xlink"><defs /><path d="M2412 1005Q2412 976 2391.5 955.5Q2371 935 2342 935H2123Q2094 935 2073.5 955.5Q2053 976 2053 1005V1224Q2053 1253 2073.5 1273.5Q2094 1294 2123 1294H2342Q2371 1294 2391.5 1273.5Q2412 1253 2412 1224ZM1909 504Q1909 444 1886.0 391.5Q1863 339 1823.0 300.0Q1783 261 1730.0 238.5Q1677 216 1617 216H980Q920 216 866.5 238.0Q813 260 773.5 299.0Q734 338 710.5 390.5Q687 443 687 504V719H1909Z" style="fill:#00a6ed;stroke:none" transform="scale(1,-1) translate(0,-256)" /></svg>