<?xml version="1.0" encoding="utf-8" ?>
<svg baseProfile="full" height="256" version="1.1" width="256" xmlns="http://www.w3.org/2000/svg" xmlns:ev="http://www.w3.org/2001/xml-events" xmlns:xlink="http://www.w3.org/1999/xlink"><defs /><path d="M1695 1653Q1725 1653 1745.0 1631.5Q1765 1610 1765 1581Q1795 1581 1821.0 1571.0Q1847 1561 1866.5 1543.0Q1886 1525 1897.5 1499.5Q1909 1474 1909 1444V719Q1909 659 1886.0 606.5Q1863 554 1823.0 515.0Q1783 476 1730.0 453.5Q1677 431 1617 431H980Q920 431 866.5 453.0Q813 475 773.5 514.0Q734 553 710.5 605.5Q687 658 687 719V1444Q687 1474 698.5 1499.5Q710 1525 729.5 1543.0Q749 1561 775.0 1571.0Q801 1581 831 1581Q831 1610 851.5 1631.5Q872 1653 901 1653Z" style="fill:#d3d3d3;stroke:none" transform="scale(1,-1) translate(0,-256)" /></svg>