<?xml version="1.0" encoding="utf-8" ?>
<svg baseProfile="full" height="256" version="1.1" width="256" xmlns="http://www.w3.org/2000/svg" xmlns:ev="http://www.w3.org/2001/xml-events" xmlns:xlink="http://www.w3.org/1999/xlink"><defs /><path d="M1225 555Q1235 555 1255.5 547.5Q1276 540 1298.5 530.5Q1321 521 1341.5 511.0Q1362 501 1373 497Q1390 489 1400.5 474.0Q1411 459 1411 440Q1411 414 1393.0 395.5Q1375 377 1349 377Q1337 377 1316.5 385.5Q1296 394 1273.5 405.5Q1251 417 1231.0 428.5Q1211 440 1200 445Q1185 453 1176.0 466.5Q1167 480 1167 497Q1167 521 1184.0 538.0Q1201 555 1225 555Z" style="fill:#3f5fff;stroke:none" transform="scale(1,-1) translate(0,-256)" /></svg>