<?xml version="1.0" encoding="utf-8" ?>
<svg baseProfile="full" height="256" version="1.1" width="256" xmlns="http://www.w3.org/2000/svg" xmlns:ev="http://www.w3.org/2001/xml-events" xmlns:xlink="http://www.w3.org/1999/xlink"><defs /><path d="M1258 503Q1273 521 1298 521Q1321 521 1336.5 505.5Q1352 490 1352 468Q1352 448 1339 432H1338Q1336 427 1331.5 421.5Q1327 416 1324 411Q1313 394 1303.0 375.5Q1293 357 1285 338Q1254 266 1240.0 190.0Q1226 114 1226 36Q1226 -55 1200.0 -120.0Q1174 -185 1125.5 -226.5Q1077 -268 1008.0 -287.5Q939 -307 853 -307Q837 -307 817.5 -307.0Q798 -307 781.0 -302.5Q764 -298 752.5 -286.0Q741 -274 741 -251Q741 -229 757.0 -213.0Q773 -197 795 -197Q847 -197 896.5 -197.0Q946 -197 996 -178Q1032 -165 1056.0 -143.0Q1080 -121 1093.5 -93.5Q1107 -66 1112.5 -33.0Q1118 0 1118 36Q1118 125 1134.5 212.5Q1151 300 1186 381Q1191 393 1199.5 410.0Q1208 427 1217.5 445.0Q1227 463 1237.5 478.5Q1248 494 1257 502Q1256 503 1256.5 503.5Q1257 504 1258 503Z" style="fill:#3f5fff;stroke:none" transform="scale(1,-1) translate(0,-256)" /></svg>