<?xml version="1.0" encoding="utf-8" ?>
<svg baseProfile="full" height="256" version="1.1" width="256" xmlns="http://www.w3.org/2000/svg" xmlns:ev="http://www.w3.org/2001/xml-events" xmlns:xlink="http://www.w3.org/1999/xlink"><defs /><path d="M615 393Q651 413 687 422V180Q687 165 676.5 154.5Q666 144 651 144Q636 144 625.5 154.5Q615 165 615 180ZM831 422Q870 413 903 393V180Q903 165 892.5 154.5Q882 144 867 144Q852 144 841.5 154.5Q831 165 831 180ZM1909 393Q1942 413 1981 422V180Q1981 165 1970.5 154.5Q1960 144 1945 144Q1930 144 1919.5 154.5Q1909 165 1909 180ZM2125 422Q2161 413 2197 393V180Q2197 166 2186.0 155.0Q2175 144 2161 144Q2146 144 2135.5 154.5Q2125 165 2125 180Z" style="fill:#ff6723;stroke:none" transform="scale(1,-1) translate(0,-256)" /></svg>