<?xml version="1.0" encoding="utf-8" ?>
<svg baseProfile="full" height="256" version="1.1" width="256" xmlns="http://www.w3.org/2000/svg" xmlns:ev="http://www.w3.org/2001/xml-events" xmlns:xlink="http://www.w3.org/1999/xlink"><defs /><path d="M759 431Q819 431 871.5 408.5Q924 386 963.0 347.0Q1002 308 1024.5 256.0Q1047 204 1047 144V-287H472V144Q472 204 494.5 256.0Q517 308 556.0 347.0Q595 386 647.0 408.5Q699 431 759 431ZM2053 431Q2113 431 2165.0 408.5Q2217 386 2256.0 347.0Q2295 308 2317.5 256.0Q2340 204 2340 144V-287H1765V144Q1765 204 1787.5 256.0Q1810 308 1849.0 347.0Q1888 386 1940.5 408.5Q1993 431 2053 431Z" style="fill:#ffb02e;stroke:none" transform="scale(1,-1) translate(0,-256)" /></svg>