<?xml version="1.0" encoding="utf-8" ?>
<svg baseProfile="full" height="256" version="1.1" width="256" xmlns="http://www.w3.org/2000/svg" xmlns:ev="http://www.w3.org/2001/xml-events" xmlns:xlink="http://www.w3.org/1999/xlink"><defs /><path d="M1083 503Q1031 503 985.0 523.0Q939 543 905.0 577.0Q871 611 851.0 657.0Q831 703 831 755Q831 807 851.0 853.0Q871 899 905.0 933.0Q939 967 985.0 986.5Q1031 1006 1083 1006Q1135 1006 1180.5 986.0Q1226 966 1260.0 932.0Q1294 898 1314.0 852.5Q1334 807 1334 755Q1334 703 1314.0 657.5Q1294 612 1260.0 577.5Q1226 543 1180.5 523.0Q1135 503 1083 503ZM1729 503Q1677 503 1631.0 523.0Q1585 543 1551.0 577.0Q1517 611 1497.5 657.0Q1478 703 1478 755Q1478 807 1497.5 853.0Q1517 899 1551.0 933.0Q1585 967 1631.0 986.5Q1677 1006 1729 1006Q1781 1006 1827.0 986.5Q1873 967 1907.0 933.0Q1941 899 1961.0 853.0Q1981 807 1981 755Q1981 703 1961.0 657.0Q1941 611 1907.0 577.0Q1873 543 1827.0 523.0Q1781 503 1729 503Z" style="fill:#ffffff;stroke:none" transform="scale(1,-1) translate(0,-256)" /></svg>