<?xml version="1.0" encoding="utf-8" ?>
<svg baseProfile="full" height="256" version="1.1" width="256" xmlns="http://www.w3.org/2000/svg" xmlns:ev="http://www.w3.org/2001/xml-events" xmlns:xlink="http://www.w3.org/1999/xlink"><defs /><path d="M543 1407Q543 1452 574.0 1480.5Q605 1509 649 1509Q691 1509 723 1479L1058 1150H1763L2090 1479Q2120 1509 2163 1509Q2207 1509 2237.5 1480.0Q2268 1451 2268 1407V12Q2268 -46 2246.5 -100.0Q2225 -154 2187.5 -195.5Q2150 -237 2098.5 -262.0Q2047 -287 1987 -287H825Q765 -287 713.5 -263.5Q662 -240 624.0 -200.0Q586 -160 564.5 -107.5Q543 -55 543 4Z" style="fill:#ffb02e;stroke:none" transform="scale(1,-1) translate(0,-256)" /></svg>