<?xml version="1.0" encoding="utf-8" ?>
<svg baseProfile="full" height="256" version="1.1" width="256" xmlns="http://www.w3.org/2000/svg" xmlns:ev="http://www.w3.org/2001/xml-events" xmlns:xlink="http://www.w3.org/1999/xlink"><defs /><path d="M1262 144Q1262 174 1273.5 200.0Q1285 226 1304.5 245.5Q1324 265 1350.0 276.5Q1376 288 1406 288Q1436 288 1462.0 276.5Q1488 265 1507.5 245.5Q1527 226 1538.5 200.0Q1550 174 1550 144V72Q1550 42 1538.5 16.0Q1527 -10 1507.5 -29.5Q1488 -49 1462.0 -60.5Q1436 -72 1406 -72Q1376 -72 1350.0 -60.5Q1324 -49 1304.5 -29.5Q1285 -10 1273.5 16.0Q1262 42 1262 72Z" style="fill:#bb1d80;stroke:none" transform="scale(1,-1) translate(0,-256)" /></svg>