<?xml version="1.0" encoding="utf-8" ?>
<svg baseProfile="full" height="256" version="1.1" width="256" xmlns="http://www.w3.org/2000/svg" xmlns:ev="http://www.w3.org/2001/xml-events" xmlns:xlink="http://www.w3.org/1999/xlink"><defs /><path d="M1836 431Q1805 297 1739.5 176.0Q1674 55 1569 -36Q1514 -84 1438.5 -129.0Q1363 -174 1279.0 -209.0Q1195 -244 1109.0 -265.5Q1023 -287 947 -287Q933 -287 912.5 -288.5Q892 -290 872.0 -287.0Q852 -284 838.0 -274.5Q824 -265 824 -242Q824 -233 827 -225Q812 -221 803.0 -208.5Q794 -196 794 -181Q794 -159 811 -145Q795 -141 785.5 -129.0Q776 -117 776 -100Q776 -80 790.0 -66.5Q804 -53 824 -53H914Q902 -41 890.5 -28.5Q879 -16 879 2Q879 22 892.5 35.0Q906 48 926 48Q944 48 956.0 37.0Q968 26 980.0 13.5Q992 1 1005.5 -10.0Q1019 -21 1039 -21Q1043 -21 1046.0 -20.5Q1049 -20 1053 -19Q1147 4 1230.0 41.0Q1313 78 1380.5 133.0Q1448 188 1498.0 261.5Q1548 335 1577 431Z" style="fill:#ffc83d;stroke:none" transform="scale(1,-1) translate(0,-256)" /></svg>