<?xml version="1.0" encoding="utf-8" ?>
<svg baseProfile="full" height="256" version="1.1" width="256" xmlns="http://www.w3.org/2000/svg" xmlns:ev="http://www.w3.org/2001/xml-events" xmlns:xlink="http://www.w3.org/1999/xlink"><defs /><path d="M1457 1348Q1457 1342 1452.5 1337.5Q1448 1333 1442 1333Q1424 1333 1407.5 1328.0Q1391 1323 1377.5 1317.0Q1364 1311 1355.0 1306.0Q1346 1301 1345 1301Q1339 1301 1334.0 1305.5Q1329 1310 1329 1317Q1329 1329 1343.5 1337.5Q1358 1346 1377.0 1352.0Q1396 1358 1414.5 1361.0Q1433 1364 1442 1364Q1449 1364 1453.0 1359.0Q1457 1354 1457 1348ZM1642 1348Q1642 1364 1658 1364Q1667 1364 1685.5 1361.0Q1704 1358 1722.5 1352.0Q1741 1346 1755.5 1337.5Q1770 1329 1770 1317Q1770 1301 1754 1301Q1752 1301 1744.0 1306.0Q1736 1311 1722.5 1317.0Q1709 1323 1692.5 1328.0Q1676 1333 1658 1333Q1652 1333 1647.0 1337.0Q1642 1341 1642 1348Z" style="fill:#d37034;stroke:none" transform="scale(1,-1) translate(0,-256)" /></svg>