<?xml version="1.0" encoding="utf-8" ?>
<svg baseProfile="full" height="256" version="1.1" width="256" xmlns="http://www.w3.org/2000/svg" xmlns:ev="http://www.w3.org/2001/xml-events" xmlns:xlink="http://www.w3.org/1999/xlink"><defs /><path d="M1728 746Q1755 746 1778.0 736.5Q1801 727 1817.5 710.0Q1834 693 1843.5 670.0Q1853 647 1854 621Q1854 613 1854.5 604.5Q1855 596 1855 588Q1855 548 1850.0 508.5Q1845 469 1836 430H1574Q1587 473 1594.0 518.0Q1601 563 1601 608Q1601 636 1609.5 661.5Q1618 687 1634.0 705.5Q1650 724 1673.5 735.0Q1697 746 1728 746Z" style="fill:#f24827;stroke:none" transform="scale(1,-1) translate(0,-256)" /></svg>