<?xml version="1.0" encoding="utf-8" ?>
<svg baseProfile="full" height="256" version="1.1" width="256" xmlns="http://www.w3.org/2000/svg" xmlns:ev="http://www.w3.org/2001/xml-events" xmlns:xlink="http://www.w3.org/1999/xlink"><defs /><path d="M1402 1225Q1396 1225 1391.5 1229.0Q1387 1233 1387 1239Q1387 1245 1391.5 1249.5Q1396 1254 1402 1254Q1408 1254 1412.0 1249.5Q1416 1245 1416 1239Q1416 1225 1402 1225ZM1693 1225Q1687 1225 1682.5 1229.0Q1678 1233 1678 1239Q1678 1245 1682.5 1249.5Q1687 1254 1693 1254Q1699 1254 1703.0 1249.5Q1707 1245 1707 1239Q1707 1225 1693 1225Z" style="fill:#ffffff;stroke:none" transform="scale(1,-1) translate(0,-256)" /></svg>