<?xml version="1.0" encoding="utf-8" ?>
<svg baseProfile="full" height="256" version="1.1" width="256" xmlns="http://www.w3.org/2000/svg" xmlns:ev="http://www.w3.org/2001/xml-events" xmlns:xlink="http://www.w3.org/1999/xlink"><defs /><path d="M1493 1109Q1493 1118 1497.0 1134.0Q1501 1150 1506.0 1167.0Q1511 1184 1516.5 1200.0Q1522 1216 1525 1226Q1527 1234 1533.0 1239.0Q1539 1244 1547 1244Q1555 1244 1561.0 1239.0Q1567 1234 1569 1226Q1572 1216 1577.5 1200.0Q1583 1184 1588.0 1167.0Q1593 1150 1597.0 1134.5Q1601 1119 1601 1110Q1601 1097 1592.5 1086.0Q1584 1075 1570 1075H1525Q1511 1075 1502.0 1085.5Q1493 1096 1493 1109Z" style="fill:#ed9200;stroke:none" transform="scale(1,-1) translate(0,-256)" /></svg>