<?xml version="1.0" encoding="utf-8" ?>
<svg baseProfile="full" height="256" version="1.1" width="256" xmlns="http://www.w3.org/2000/svg" xmlns:ev="http://www.w3.org/2001/xml-events" xmlns:xlink="http://www.w3.org/1999/xlink"><defs /><path d="M1546 1004Q1559 1004 1574.0 1007.5Q1589 1011 1601.5 1014.5Q1614 1018 1622.5 1021.5Q1631 1025 1633 1025Q1637 1025 1640.0 1021.0Q1643 1017 1643 1013Q1643 1012 1641 1008Q1623 985 1600.0 970.0Q1577 955 1546 955Q1533 955 1519.0 959.5Q1505 964 1492.0 972.0Q1479 980 1468.5 990.0Q1458 1000 1452 1012Q1451 1014 1451.0 1015.0Q1451 1016 1450 1018Q1450 1021 1452.0 1024.0Q1454 1027 1458 1027Q1460 1027 1469.0 1023.5Q1478 1020 1491.0 1015.5Q1504 1011 1518.5 1007.5Q1533 1004 1546 1004Z" style="fill:#990839;stroke:none" transform="scale(1,-1) translate(0,-256)" /></svg>