<?xml version="1.0" encoding="utf-8" ?>
<svg baseProfile="full" height="256" version="1.1" width="256" xmlns="http://www.w3.org/2000/svg" xmlns:ev="http://www.w3.org/2001/xml-events" xmlns:xlink="http://www.w3.org/1999/xlink"><defs /><path d="M1358 1210Q1358 1234 1375.0 1251.0Q1392 1268 1416 1268Q1440 1268 1457.0 1251.0Q1474 1234 1474 1210Q1474 1207 1473.5 1203.5Q1473 1200 1473 1197Q1470 1196 1463 1196H1360Q1359 1200 1358.5 1203.0Q1358 1206 1358 1210ZM1736 1210Q1736 1200 1734 1196H1632Q1625 1196 1622 1197Q1621 1200 1621.0 1203.5Q1621 1207 1621 1210Q1621 1233 1637.5 1250.5Q1654 1268 1678 1268Q1702 1268 1719.0 1251.0Q1736 1234 1736 1210Z" style="fill:#7d4533;stroke:none" transform="scale(1,-1) translate(0,-256)" /></svg>