<?xml version="1.0" encoding="utf-8" ?>
<svg baseProfile="full" height="256" version="1.1" width="256" xmlns="http://www.w3.org/2000/svg" xmlns:ev="http://www.w3.org/2001/xml-events" xmlns:xlink="http://www.w3.org/1999/xlink"><defs /><path d="M1382 1209Q1382 1224 1392.5 1234.5Q1403 1245 1418 1245Q1433 1245 1443.5 1234.5Q1454 1224 1454 1209Q1454 1203 1451 1197H1384Q1382 1201 1382 1209ZM1713 1209Q1713 1204 1711 1196H1643Q1641 1204 1641 1209Q1641 1224 1651.5 1234.5Q1662 1245 1677 1245Q1692 1245 1702.5 1234.5Q1713 1224 1713 1209Z" style="fill:#000000;stroke:none" transform="scale(1,-1) translate(0,-256)" /></svg>