<?xml version="1.0" encoding="utf-8" ?>
<svg baseProfile="full" height="256" version="1.1" width="256" xmlns="http://www.w3.org/2000/svg" xmlns:ev="http://www.w3.org/2001/xml-events" xmlns:xlink="http://www.w3.org/1999/xlink"><defs /><path d="M1341 1196Q1332 1196 1323.5 1201.5Q1315 1207 1315 1217Q1315 1231 1324.0 1243.0Q1333 1255 1346.5 1263.5Q1360 1272 1375.0 1277.0Q1390 1282 1402 1282Q1414 1282 1428.5 1277.0Q1443 1272 1456.5 1263.5Q1470 1255 1479.0 1243.0Q1488 1231 1488 1218Q1488 1207 1480.0 1201.5Q1472 1196 1463 1196ZM1632 1196Q1623 1196 1615.0 1201.5Q1607 1207 1607 1218Q1607 1231 1616.0 1243.0Q1625 1255 1638.5 1263.5Q1652 1272 1666.5 1277.0Q1681 1282 1693 1282Q1705 1282 1719.5 1277.0Q1734 1272 1747.5 1263.5Q1761 1255 1770.0 1243.0Q1779 1231 1779 1218Q1779 1207 1771.0 1201.5Q1763 1196 1754 1196Z" style="fill:#ffffff;stroke:none" transform="scale(1,-1) translate(0,-256)" /></svg>