<?xml version="1.0" encoding="utf-8" ?>
<svg baseProfile="full" height="256" version="1.1" width="256" xmlns="http://www.w3.org/2000/svg" xmlns:ev="http://www.w3.org/2001/xml-events" xmlns:xlink="http://www.w3.org/1999/xlink"><defs /><path d="M1180 551Q1180 612 1200.5 675.5Q1221 739 1257.5 793.5Q1294 848 1344.5 889.5Q1395 931 1456 949Q1467 952 1478.5 954.0Q1490 956 1502 956Q1534 956 1562.5 945.5Q1591 935 1620 922Q1642 912 1663.5 907.0Q1685 902 1708 897Q1774 882 1814.5 834.5Q1855 787 1855 718V-162Q1855 -188 1846.0 -210.5Q1837 -233 1820.5 -250.0Q1804 -267 1782.0 -277.0Q1760 -287 1734 -287H1180V-286H1003Q958 -286 919.0 -269.0Q880 -252 850.5 -223.0Q821 -194 804.0 -155.0Q787 -116 787 -71V16Q787 101 817.0 177.0Q847 253 899.5 313.0Q952 373 1024.0 412.0Q1096 451 1180 462Z" style="fill:#ff6723;stroke:none" transform="scale(1,-1) translate(0,-256)" /></svg>