<?xml version="1.0" encoding="utf-8" ?>
<svg baseProfile="full" height="256" version="1.1" width="256" xmlns="http://www.w3.org/2000/svg" xmlns:ev="http://www.w3.org/2001/xml-events" xmlns:xlink="http://www.w3.org/1999/xlink"><defs /><path d="M1637 1725Q1675 1725 1705.5 1707.0Q1736 1689 1756 1657Q1771 1633 1791.0 1618.0Q1811 1603 1837 1593Q1880 1577 1905.5 1541.0Q1931 1505 1931 1459Q1931 1435 1924.5 1418.5Q1918 1402 1910.5 1387.5Q1903 1373 1896.5 1359.0Q1890 1345 1890 1327V1291Q1889 1292 1886 1289Q1882 1284 1879.0 1274.5Q1876 1265 1874 1258Q1867 1235 1862.0 1211.0Q1857 1187 1852 1163Q1829 1176 1800.0 1184.5Q1771 1193 1740.5 1197.0Q1710 1201 1679.5 1202.5Q1649 1204 1623 1204Q1528 1204 1432.0 1193.0Q1336 1182 1243 1163Q1237 1192 1230.0 1223.5Q1223 1255 1210 1282Q1210 1283 1208.0 1287.0Q1206 1291 1204 1291H1202Q1202 1317 1201.0 1336.5Q1200 1356 1186 1379Q1174 1399 1167.5 1418.0Q1161 1437 1161 1460Q1161 1507 1186.5 1542.0Q1212 1577 1255 1593Q1307 1612 1338 1659Q1359 1690 1388.5 1707.5Q1418 1725 1456 1725Q1481 1725 1502.0 1715.5Q1523 1706 1546 1706Q1570 1706 1591.0 1715.5Q1612 1725 1637 1725ZM1255 1121Q1258 1079 1261.0 1040.0Q1264 1001 1281 963Q1244 978 1222.5 1011.0Q1201 1044 1201 1084V1140Q1226 1123 1255 1121ZM1837 1121Q1866 1123 1891 1140V1084Q1891 1044 1869.5 1011.0Q1848 978 1811 963Q1820 983 1825.0 1002.0Q1830 1021 1832.0 1039.5Q1834 1058 1835.0 1078.0Q1836 1098 1837 1121Z" style="fill:#f1a11e;stroke:none" transform="scale(1,-1) translate(0,-256)" /></svg>