<?xml version="1.0" encoding="utf-8" ?>
<svg baseProfile="full" height="256" version="1.1" width="256" xmlns="http://www.w3.org/2000/svg" xmlns:ev="http://www.w3.org/2001/xml-events" xmlns:xlink="http://www.w3.org/1999/xlink"><defs /><path d="M1154 935Q1168 935 1179.0 924.0Q1190 913 1190 899V827Q1190 812 1179.5 801.5Q1169 791 1154 791Q1154 835 1153.5 857.5Q1153 880 1144.0 889.0Q1135 898 1113.0 898.5Q1091 899 1047 899Q1047 913 1058.0 924.0Q1069 935 1083 935ZM579 431Q593 431 604.0 420.5Q615 410 615 396V324Q615 309 604.5 298.5Q594 288 579 288Q579 331 578.5 353.5Q578 376 569.0 385.5Q560 395 538.0 395.5Q516 396 472 396Q472 410 483.0 420.5Q494 431 508 431ZM1047 611Q1047 626 1057.5 636.5Q1068 647 1083 647H1154Q1169 647 1179.5 636.5Q1190 626 1190 611V539Q1190 524 1179.5 513.5Q1169 503 1154 503Q1154 547 1153.5 569.5Q1153 592 1144.0 601.0Q1135 610 1113.0 610.5Q1091 611 1047 611ZM1154 72Q1169 72 1179.5 61.5Q1190 51 1190 36V-36Q1190 -51 1179.5 -61.5Q1169 -72 1154 -72Q1154 -28 1153.5 -5.5Q1153 17 1144.0 26.0Q1135 35 1113.0 35.5Q1091 36 1047 36Q1047 51 1057.5 61.5Q1068 72 1083 72ZM1334 611Q1334 626 1344.5 636.5Q1355 647 1370 647H1442Q1457 647 1467.5 636.5Q1478 626 1478 611V539Q1478 524 1467.5 513.5Q1457 503 1442 503Q1442 547 1441.5 569.5Q1441 592 1432.0 601.0Q1423 610 1400.5 610.5Q1378 611 1334 611ZM1442 360Q1456 360 1467.0 349.0Q1478 338 1478 324V252Q1478 237 1467.5 226.5Q1457 216 1442 216Q1442 260 1441.5 282.5Q1441 305 1432.0 314.0Q1423 323 1400.5 323.5Q1378 324 1334 324Q1334 338 1345.0 349.0Q1356 360 1370 360ZM2412 360V324H1991Q2001 341 2017.5 350.5Q2034 360 2053 360ZM2412 72V36H1991Q2000 53 2016.5 62.5Q2033 72 2053 72Z" style="fill:#fcd53f;stroke:none" transform="scale(1,-1) translate(0,-256)" /></svg>