<?xml version="1.0" encoding="utf-8" ?>
<svg baseProfile="full" height="256" version="1.1" width="256" xmlns="http://www.w3.org/2000/svg" xmlns:ev="http://www.w3.org/2001/xml-events" xmlns:xlink="http://www.w3.org/1999/xlink"><defs /><path d="M2268 431Q2271 419 2278.5 386.0Q2286 353 2296.5 306.5Q2307 260 2319.5 205.0Q2332 150 2345.0 93.5Q2358 37 2370.0 -16.0Q2382 -69 2391.5 -111.5Q2401 -154 2406.5 -182.0Q2412 -210 2412 -215Q2412 -228 2405.0 -235.5Q2398 -243 2388.0 -246.5Q2378 -250 2366.5 -251.0Q2355 -252 2346 -252H466Q457 -252 445.5 -251.0Q434 -250 424.0 -246.5Q414 -243 407.0 -235.5Q400 -228 400 -215Q400 -210 401 -208L543 431L1118 479Q1160 482 1194.5 486.5Q1229 491 1262.0 494.5Q1295 498 1329.5 500.5Q1364 503 1406 503Q1448 503 1482.5 500.5Q1517 498 1549.5 494.5Q1582 491 1616.5 486.5Q1651 482 1693 479L2268 431Z" style="fill:#d3d3d3;stroke:none" transform="scale(1,-1) translate(0,-256)" /></svg>