<?xml version="1.0" encoding="utf-8" ?>
<svg baseProfile="full" height="256" version="1.1" width="256" xmlns="http://www.w3.org/2000/svg" xmlns:ev="http://www.w3.org/2001/xml-events" xmlns:xlink="http://www.w3.org/1999/xlink"><defs /><path d="M2268 101Q2268 90 2260.0 81.5Q2252 73 2241 73H571Q560 73 552.0 81.5Q544 90 544 101Q544 105 547.5 122.0Q551 139 556.0 163.0Q561 187 567.5 215.0Q574 243 580.0 268.0Q586 293 590.0 312.5Q594 332 596 339Q601 360 623 360H2189Q2211 360 2216 339Q2217 332 2221.5 312.5Q2226 293 2232.0 268.0Q2238 243 2244.5 215.0Q2251 187 2256.0 163.0Q2261 139 2264.5 122.0Q2268 105 2268 101ZM844 108 851 162H750L741 108ZM984 108 988 162H887L881 108ZM1116 108 1118 162H1024L1020 108ZM1249 108 1251 162H1154L1152 108ZM1388 108V162H1287L1285 108ZM1527 108 1525 162H1424V108ZM1660 108 1658 162H1561L1563 108ZM1792 108 1788 162H1694L1696 108ZM1931 108 1925 162H1824L1828 108ZM2071 108 2062 162H1961L1968 108ZM2197 108 2188 162H2098L2107 108ZM2173 252H2083L2092 198H2182ZM2161 324H2071L2077 288H2167ZM1941 324 1945 288H2041L2035 324ZM1810 324 1813 288H1909L1904 324ZM1687 324 1689 288H1777L1774 324ZM1554 324 1556 288H1653L1651 324ZM1424 324V288H1520L1518 324ZM1294 324 1292 288H1388V324ZM1161 324 1159 288H1256L1258 324ZM1038 324 1035 288H1123L1125 324ZM907 324 903 288H999L1002 324ZM777 324 771 288H867L871 324ZM651 324 645 288H735L741 324ZM630 198H720L729 252H639ZM615 108H705L714 162H624ZM2056 198 2047 252H1950L1956 198ZM1920 198 1913 252H1816L1821 198ZM1785 198 1780 252H1690L1692 198ZM1656 198 1654 252H1557L1559 198ZM1523 198 1521 252H1424V198ZM765 252 756 198H856L862 252ZM898 252 892 198H991L996 252ZM1032 252 1027 198H1119L1122 252ZM1158 252 1155 198H1252L1255 252ZM1291 252 1288 198H1388V252ZM2347 -215Q2365 -215 2380.5 -206.0Q2396 -197 2404 -180Q2407 -191 2409.5 -201.0Q2412 -211 2412 -222Q2412 -249 2393.0 -268.0Q2374 -287 2347 -287H465Q438 -287 419.0 -268.0Q400 -249 400 -222Q400 -212 403.0 -201.5Q406 -191 408 -181Q416 -197 432.0 -206.0Q448 -215 465 -215ZM1034 -143H1778Q1786 -143 1791.0 -138.0Q1796 -133 1796 -125Q1796 -122 1792.0 -106.0Q1788 -90 1783.0 -71.0Q1778 -52 1773.5 -35.0Q1769 -18 1768 -13Q1764 1 1751 1H1061Q1047 1 1044 -13Q1043 -18 1038.5 -35.0Q1034 -52 1029.0 -71.0Q1024 -90 1020.0 -106.0Q1016 -122 1016 -125Q1016 -133 1021.0 -138.0Q1026 -143 1034 -143Z" style="fill:#9b9b9b;stroke:none" transform="scale(1,-1) translate(0,-256)" /></svg>