<?xml version="1.0" encoding="utf-8" ?>
<svg baseProfile="full" height="256" version="1.1" width="256" xmlns="http://www.w3.org/2000/svg" xmlns:ev="http://www.w3.org/2001/xml-events" xmlns:xlink="http://www.w3.org/1999/xlink"><defs /><path d="M1412 1409Q1412 1425 1423 1436L1479 1492Q1490 1503 1506 1503Q1521 1503 1532.0 1492.0Q1543 1481 1543 1466Q1543 1450 1532 1439L1476 1383Q1465 1372 1450 1372Q1434 1372 1423.0 1383.0Q1412 1394 1412 1409ZM2009 1013Q1993 1013 1982 1024L1926 1080Q1915 1091 1915 1106Q1915 1123 1926.0 1133.0Q1937 1143 1953 1143Q1970 1143 1980 1133L2036 1077Q2047 1066 2047 1050Q2047 1035 2036.0 1024.0Q2025 1013 2009 1013ZM837 1187Q837 1203 848 1214L904 1270Q915 1281 931 1281Q946 1281 957.0 1270.0Q968 1259 968 1243Q968 1228 957 1217L901 1161Q890 1150 875 1150Q859 1150 848.0 1160.5Q837 1171 837 1187ZM1268 188Q1268 203 1279 214L1336 270Q1347 281 1362 281Q1378 281 1388.5 270.5Q1399 260 1399 244Q1399 227 1389 217L1333 161Q1322 150 1306 150Q1290 150 1279.0 161.0Q1268 172 1268 188ZM1793 366Q1778 366 1767 377L1711 433Q1700 444 1700 459Q1700 475 1711.0 485.5Q1722 496 1737 496Q1754 496 1764 486L1820 430Q1831 419 1831 403Q1831 388 1820.0 377.0Q1809 366 1793 366ZM1003 575Q987 575 976 586L920 642Q909 653 909 668Q909 684 920.0 695.0Q931 706 946 706Q962 706 973 695L1029 639Q1040 628 1040 613Q1040 597 1029.5 586.0Q1019 575 1003 575Z" style="fill:#ff6dc6;stroke:none" transform="scale(1,-1) translate(0,-256)" /></svg>