<?xml version="1.0" encoding="utf-8" ?>
<svg baseProfile="full" height="256" version="1.1" width="256" xmlns="http://www.w3.org/2000/svg" xmlns:ev="http://www.w3.org/2001/xml-events" xmlns:xlink="http://www.w3.org/1999/xlink"><defs /><path d="M1406 1725Q1525 1725 1635.0 1694.0Q1745 1663 1841.0 1607.0Q1937 1551 2015.5 1472.5Q2094 1394 2150.0 1298.0Q2206 1202 2237.0 1092.0Q2268 982 2268 863Q2268 744 2237.0 634.0Q2206 524 2150.0 428.0Q2094 332 2015.5 253.0Q1937 174 1841.0 118.0Q1745 62 1635.0 31.0Q1525 0 1406 0Q1287 0 1176.5 31.0Q1066 62 970.0 118.0Q874 174 795.5 252.5Q717 331 661.0 427.0Q605 523 574.0 633.5Q543 744 543 863Q543 982 574.0 1092.0Q605 1202 661.0 1298.0Q717 1394 796.0 1472.5Q875 1551 971.0 1607.0Q1067 1663 1177.0 1694.0Q1287 1725 1406 1725ZM1729 863Q1729 923 1706.5 975.0Q1684 1027 1645.0 1066.0Q1606 1105 1554.0 1127.5Q1502 1150 1442 1150H1370Q1310 1150 1258.0 1127.5Q1206 1105 1167.0 1066.0Q1128 1027 1105.5 975.0Q1083 923 1083 863Q1083 803 1105.5 750.5Q1128 698 1167.0 659.0Q1206 620 1258.0 597.5Q1310 575 1370 575H1442Q1502 575 1554.0 597.5Q1606 620 1645.0 659.0Q1684 698 1706.5 750.5Q1729 803 1729 863Z" style="fill:#6d4534;stroke:none" transform="scale(1,-1) translate(0,-256)" /></svg>