<?xml version="1.0" encoding="utf-8" ?>
<svg baseProfile="full" height="256" version="1.1" width="256" xmlns="http://www.w3.org/2000/svg" xmlns:ev="http://www.w3.org/2001/xml-events" xmlns:xlink="http://www.w3.org/1999/xlink"><defs /><path d="M2268 863V575Q2268 456 2237.0 346.0Q2206 236 2150.0 140.0Q2094 44 2015.5 -34.5Q1937 -113 1841.0 -169.0Q1745 -225 1635.0 -256.0Q1525 -287 1406 -287Q1287 -287 1177.0 -256.0Q1067 -225 971.0 -169.0Q875 -113 796.0 -34.5Q717 44 661.0 140.0Q605 236 574.0 346.0Q543 456 543 575V863H592Q638 992 719.5 1098.0Q801 1204 908.0 1279.5Q1015 1355 1142.0 1396.5Q1269 1438 1406 1438Q1543 1438 1670.0 1396.5Q1797 1355 1904.0 1279.5Q2011 1204 2092.5 1098.0Q2174 992 2220 863ZM1729 601Q1729 661 1706.5 713.5Q1684 766 1645.0 805.0Q1606 844 1554.0 866.5Q1502 889 1442 889H1370Q1310 889 1258.0 866.5Q1206 844 1167.0 805.0Q1128 766 1105.5 713.5Q1083 661 1083 601Q1083 541 1105.5 489.0Q1128 437 1167.0 398.0Q1206 359 1258.0 336.5Q1310 314 1370 314H1442Q1502 314 1554.0 336.5Q1606 359 1645.0 398.0Q1684 437 1706.5 489.0Q1729 541 1729 601Z" style="fill:#f3ad61;stroke:none" transform="scale(1,-1) translate(0,-256)" /></svg>