<?xml version="1.0" encoding="utf-8" ?>
<svg baseProfile="full" height="256" version="1.1" width="256" xmlns="http://www.w3.org/2000/svg" xmlns:ev="http://www.w3.org/2001/xml-events" xmlns:xlink="http://www.w3.org/1999/xlink"><defs /><path d="M1153 1300Q1137 1300 1126 1311L1070 1367Q1059 1378 1059 1394Q1059 1409 1070.0 1420.0Q1081 1431 1096 1431Q1112 1431 1123 1420L1179 1364Q1190 1353 1190 1337Q1190 1321 1179.5 1310.5Q1169 1300 1153 1300ZM693 834Q693 819 704.0 808.0Q715 797 731 797Q747 797 758 808L814 864Q824 874 824 891Q824 907 813.5 917.5Q803 928 787 928Q772 928 761 917L704 861Q693 850 693 834ZM1915 691Q1915 707 1926 718L1982 774Q1992 784 2009 784Q2026 784 2036.0 774.0Q2046 764 2046 747Q2046 730 2036 720L1980 664Q1969 653 1953 653Q1937 653 1926.0 664.0Q1915 675 1915 691ZM1074 294Q1059 294 1048 305L992 361Q981 372 981 387Q981 403 992.0 414.0Q1003 425 1018 425Q1034 425 1045 414L1101 358Q1112 347 1112 331Q1112 316 1101.0 305.0Q1090 294 1074 294ZM1772 1266Q1772 1251 1783.0 1239.5Q1794 1228 1809 1228Q1825 1228 1836 1239L1892 1295Q1902 1305 1902 1322Q1902 1338 1892.0 1348.5Q1882 1359 1865 1359Q1849 1359 1839 1349L1783 1293Q1772 1282 1772 1266Z" style="fill:#00a6ed;stroke:none" transform="scale(1,-1) translate(0,-256)" /></svg>