<?xml version="1.0" encoding="utf-8" ?>
<svg baseProfile="full" height="256" version="1.1" width="256" xmlns="http://www.w3.org/2000/svg" xmlns:ev="http://www.w3.org/2001/xml-events" xmlns:xlink="http://www.w3.org/1999/xlink"><defs /><path d="M400 1078H680Q712 1078 735.5 1054.5Q759 1031 759 999V654Q759 621 736.0 598.0Q713 575 680 575H400ZM982 1078H1255Q1287 1078 1310.5 1055.0Q1334 1032 1334 1000V725Q1334 693 1310.5 670.0Q1287 647 1255 647H982Q950 647 926.5 670.0Q903 693 903 725V1000Q903 1032 926.5 1055.0Q950 1078 982 1078ZM1830 1078H1557Q1525 1078 1501.5 1055.0Q1478 1032 1478 1000V725Q1478 693 1501.5 670.0Q1525 647 1557 647H1830Q1862 647 1885.5 670.0Q1909 693 1909 725V1000Q1909 1032 1885.5 1055.0Q1862 1078 1830 1078ZM2132 1078H2412V575H2132Q2099 575 2076.0 598.0Q2053 621 2053 654V999Q2053 1032 2076.0 1055.0Q2099 1078 2132 1078Z" style="fill:#00a6ed;stroke:none" transform="scale(1,-1) translate(0,-256)" /></svg>