<?xml version="1.0" encoding="utf-8" ?>
<svg baseProfile="full" height="256" version="1.1" width="256" xmlns="http://www.w3.org/2000/svg" xmlns:ev="http://www.w3.org/2001/xml-events" xmlns:xlink="http://www.w3.org/1999/xlink"><defs /><path d="M688 35Q673 35 662.5 45.5Q652 56 652 71Q652 86 662.5 96.5Q673 107 688 107H1047Q1062 107 1072.5 96.5Q1083 86 1083 71Q1083 56 1072.5 45.5Q1062 35 1047 35ZM1729 35Q1714 35 1703.5 45.5Q1693 56 1693 71Q1693 86 1703.5 96.5Q1714 107 1729 107H2089Q2104 107 2114.5 96.5Q2125 86 2125 71Q2125 56 2114.5 45.5Q2104 35 2089 35Z" style="fill:#9b9b9b;stroke:none" transform="scale(1,-1) translate(0,-256)" /></svg>