<?xml version="1.0" encoding="utf-8" ?>
<svg baseProfile="full" height="256" version="1.1" width="256" xmlns="http://www.w3.org/2000/svg" xmlns:ev="http://www.w3.org/2001/xml-events" xmlns:xlink="http://www.w3.org/1999/xlink"><defs /><path d="M1497 1523Q1514 1523 1530 1515L1709 1418Q1726 1408 1736.5 1391.5Q1747 1375 1747 1355Q1747 1326 1726.0 1304.5Q1705 1283 1675 1283Q1656 1283 1641 1292L1462 1388Q1445 1397 1434.5 1414.5Q1424 1432 1424 1452Q1424 1482 1445.5 1502.5Q1467 1523 1497 1523ZM1893 1454Q1922 1454 1943.5 1432.5Q1965 1411 1965 1382Q1965 1131 1895.0 893.5Q1825 656 1688 446Q1688 444 1687.5 443.5Q1687 443 1687 441V145Q1687 136 1695.5 133.0Q1704 130 1715.5 129.5Q1727 129 1738.0 130.0Q1749 131 1755 131Q1783 131 1808.0 141.5Q1833 152 1852.0 171.0Q1871 190 1881.5 214.5Q1892 239 1892 268Q1892 298 1913.0 319.0Q1934 340 1964 340Q1993 340 2014.5 318.5Q2036 297 2036 268Q2036 210 2014.0 159.0Q1992 108 1953.5 69.5Q1915 31 1864.0 9.0Q1813 -13 1755 -13H1701Q1668 -13 1639.5 -0.5Q1611 12 1589.5 33.5Q1568 55 1555.5 83.5Q1543 112 1543 145Q1543 151 1544.0 166.5Q1545 182 1545.0 198.5Q1545 215 1543.0 228.0Q1541 241 1536 241L1531 239L1390 80Q1380 69 1365.5 62.5Q1351 56 1336 56Q1306 56 1285.0 77.0Q1264 98 1264 128Q1264 155 1283 176Q1350 252 1417.0 326.5Q1484 401 1542 485Q1543 486 1543.0 513.5Q1543 541 1543.5 585.0Q1544 629 1544.0 685.5Q1544 742 1544.0 802.0Q1544 862 1543.5 920.5Q1543 979 1543.0 1027.0Q1543 1075 1543.0 1108.5Q1543 1142 1543 1151Q1543 1181 1564.0 1202.0Q1585 1223 1615 1223Q1645 1223 1666.0 1202.0Q1687 1181 1687 1151V787Q1687 778 1695 778Q1700 778 1704 784Q1734 851 1756.0 925.5Q1778 1000 1792.5 1077.0Q1807 1154 1814.0 1231.5Q1821 1309 1821 1382Q1821 1411 1842.5 1432.5Q1864 1454 1893 1454ZM1478 894Q1478 759 1441.5 625.0Q1405 491 1326 379Q1304 347 1267 347Q1237 347 1216.0 368.5Q1195 390 1195 419Q1195 431 1198.0 440.0Q1201 449 1207 459Q1240 515 1264.0 565.5Q1288 616 1303.5 667.0Q1319 718 1326.5 773.0Q1334 828 1334 894Q1334 924 1355.0 945.0Q1376 966 1406 966Q1436 966 1457.0 945.0Q1478 924 1478 894ZM1976 855Q2012 855 2034 825L2174 629Q2187 612 2187 588Q2187 558 2166.0 537.0Q2145 516 2115 516Q2078 516 2057 546L1917 742Q1904 759 1904 783Q1904 813 1925.0 834.0Q1946 855 1976 855ZM1226 1330Q1226 1306 1213.5 1290.5Q1201 1275 1183.0 1265.5Q1165 1256 1143.0 1251.0Q1121 1246 1103.0 1242.0Q1085 1238 1072.5 1233.5Q1060 1229 1060 1222V975Q1060 966 1069 966H1198Q1227 966 1248.0 944.5Q1269 923 1269 894Q1269 865 1248.0 843.5Q1227 822 1198 822Q1194 822 1183.5 823.0Q1173 824 1162.5 823.5Q1152 823 1144.0 821.0Q1136 819 1136 813Q1137 802 1154.5 783.0Q1172 764 1192.5 741.0Q1213 718 1230.0 693.0Q1247 668 1247 644Q1247 614 1226.0 593.0Q1205 572 1175 572Q1152 572 1135.0 585.5Q1118 599 1106.0 615.0Q1094 631 1085.0 644.5Q1076 658 1069 658Q1060 658 1060 648V58Q1060 29 1038.5 8.0Q1017 -13 988 -13Q959 -13 937.5 8.0Q916 29 916 58V471Q916 480 907 480Q902 480 899 475Q866 425 835.5 377.5Q805 330 762 287Q740 265 710 265Q681 265 659.5 286.5Q638 308 638 337Q638 364 659 387Q724 456 770.5 538.5Q817 621 853 708Q854 711 860.5 727.0Q867 743 874.0 761.5Q881 780 886.5 795.0Q892 810 892 811Q892 822 883 822H779Q750 822 728.5 843.5Q707 865 707 894Q707 924 728.0 945.0Q749 966 779 966H907Q916 966 916 975V1176Q916 1178 914.5 1181.0Q913 1184 911 1184Q897 1184 883.5 1180.0Q870 1176 856.5 1170.5Q843 1165 829.0 1161.0Q815 1157 801 1157Q771 1157 750.0 1178.5Q729 1200 729 1229Q729 1253 743.5 1272.0Q758 1291 781 1298L1134 1400Q1143 1403 1154 1403Q1184 1403 1205.0 1381.5Q1226 1360 1226 1330Z" style="fill:#f4f4f4;stroke:none" transform="scale(1,-1) translate(0,-256)" /></svg>