<?xml version="1.0" encoding="utf-8" ?>
<svg baseProfile="full" height="256" version="1.1" width="256" xmlns="http://www.w3.org/2000/svg" xmlns:ev="http://www.w3.org/2001/xml-events" xmlns:xlink="http://www.w3.org/1999/xlink"><defs /><path d="M1038 1006Q1095 1006 1146.0 984.0Q1197 962 1235.0 924.5Q1273 887 1295.0 836.0Q1317 785 1317 728Q1317 670 1295.0 619.5Q1273 569 1235.0 531.0Q1197 493 1146.5 471.0Q1096 449 1038 449Q980 449 929.5 471.0Q879 493 841.0 531.0Q803 569 781.0 619.5Q759 670 759 728Q759 785 781.0 836.0Q803 887 841.0 924.5Q879 962 930.0 984.0Q981 1006 1038 1006ZM1757 1006Q1814 1006 1865.0 984.0Q1916 962 1954.0 924.5Q1992 887 2014.0 836.0Q2036 785 2036 728Q2036 670 2014.0 619.5Q1992 569 1954.0 531.0Q1916 493 1865.5 471.0Q1815 449 1757 449Q1699 449 1648.5 471.0Q1598 493 1560.0 531.0Q1522 569 1500.0 619.5Q1478 670 1478 728Q1478 785 1500.0 836.0Q1522 887 1560.0 924.5Q1598 962 1649.0 984.0Q1700 1006 1757 1006Z" style="fill:#402a32;stroke:none" transform="scale(1,-1) translate(0,-256)" /></svg>