<?xml version="1.0" encoding="utf-8" ?>
<svg baseProfile="full" height="256" version="1.1" width="256" xmlns="http://www.w3.org/2000/svg" xmlns:ev="http://www.w3.org/2001/xml-events" xmlns:xlink="http://www.w3.org/1999/xlink"><defs /><path d="M1011 1366Q1025 1366 1036.0 1355.0Q1047 1344 1047 1330Q1047 1326 1045 1320Q1013 1201 929.5 1139.5Q846 1078 723 1078Q708 1078 697.5 1088.5Q687 1099 687 1114Q687 1129 697.5 1139.5Q708 1150 723 1150Q771 1150 816.5 1163.0Q862 1176 899 1208Q931 1236 947.0 1268.0Q963 1300 976 1339Q980 1351 989.0 1358.5Q998 1366 1011 1366ZM1327 40H1326Q1318 22 1300.5 11.0Q1283 0 1263 0Q1233 0 1211.5 21.5Q1190 43 1190 72Q1190 88 1198 104Q1212 132 1235.0 153.0Q1258 174 1286.0 188.0Q1314 202 1345.0 209.0Q1376 216 1406 216Q1436 216 1467.0 209.0Q1498 202 1526.0 188.0Q1554 174 1577.0 153.0Q1600 132 1614 104Q1622 88 1622 72Q1622 43 1600.5 21.5Q1579 0 1549 0Q1523 0 1511.0 11.0Q1499 22 1487.0 35.5Q1475 49 1458.0 60.5Q1441 72 1406 72Q1386 72 1362.0 64.5Q1338 57 1327 40ZM2125 1114Q2125 1099 2114.5 1088.5Q2104 1078 2089 1078Q1966 1078 1882.5 1139.5Q1799 1201 1767 1320Q1765 1326 1765 1330Q1765 1344 1776.0 1355.0Q1787 1366 1801 1366Q1814 1366 1823.0 1358.5Q1832 1351 1836 1339Q1849 1300 1865.0 1268.0Q1881 1236 1913 1208Q1950 1176 1995.5 1163.0Q2041 1150 2089 1150Q2104 1150 2114.5 1139.5Q2125 1129 2125 1114Z" style="fill:#402a32;stroke:none" transform="scale(1,-1) translate(0,-256)" /></svg>