<?xml version="1.0" encoding="utf-8" ?>
<svg baseProfile="full" height="256" version="1.1" width="256" xmlns="http://www.w3.org/2000/svg" xmlns:ev="http://www.w3.org/2001/xml-events" xmlns:xlink="http://www.w3.org/1999/xlink"><defs /><path d="M1334 683Q1334 616 1308.5 557.5Q1283 499 1239.0 455.0Q1195 411 1136.5 385.5Q1078 360 1011 360Q944 360 885.0 385.5Q826 411 782.0 454.5Q738 498 712.5 557.0Q687 616 687 683Q687 750 712.5 809.0Q738 868 782.0 911.5Q826 955 885.0 980.5Q944 1006 1011 1006Q1078 1006 1136.5 980.5Q1195 955 1239.0 911.0Q1283 867 1308.5 808.5Q1334 750 1334 683ZM2122 684Q2122 618 2096.5 559.0Q2071 500 2027.5 456.5Q1984 413 1925.0 387.5Q1866 362 1800 362Q1734 362 1675.0 387.5Q1616 413 1572.5 456.5Q1529 500 1503.5 559.0Q1478 618 1478 684Q1478 751 1503.5 809.5Q1529 868 1572.5 911.5Q1616 955 1674.5 980.5Q1733 1006 1800 1006Q1867 1006 1925.5 980.5Q1984 955 2027.5 911.5Q2071 868 2096.5 809.5Q2122 751 2122 684Z" style="fill:#ffffff;stroke:none" transform="scale(1,-1) translate(0,-256)" /></svg>