<?xml version="1.0" encoding="utf-8" ?>
<svg baseProfile="full" height="256" version="1.1" width="256" xmlns="http://www.w3.org/2000/svg" xmlns:ev="http://www.w3.org/2001/xml-events" xmlns:xlink="http://www.w3.org/1999/xlink"><defs /><path d="M1836 1316Q1836 1286 1824.5 1260.0Q1813 1234 1793.5 1214.5Q1774 1195 1748.0 1184.0Q1722 1173 1692 1173Q1662 1173 1636.0 1184.0Q1610 1195 1590.5 1214.5Q1571 1234 1559.5 1260.0Q1548 1286 1548 1316Q1548 1346 1559.5 1372.0Q1571 1398 1590.5 1417.5Q1610 1437 1636.5 1448.5Q1663 1460 1693 1460Q1723 1460 1749.0 1448.5Q1775 1437 1794.5 1417.5Q1814 1398 1825.0 1372.0Q1836 1346 1836 1316ZM1059 885Q1059 856 1047.5 829.5Q1036 803 1016.5 783.5Q997 764 971.0 752.5Q945 741 915 741Q885 741 859.0 752.5Q833 764 813.5 783.5Q794 803 782.5 829.0Q771 855 771 885Q771 915 782.0 941.0Q793 967 812.5 986.5Q832 1006 858.5 1017.5Q885 1029 915 1029Q944 1029 970.5 1017.5Q997 1006 1016.5 986.5Q1036 967 1047.5 941.0Q1059 915 1059 885Z" style="fill:#402a32;stroke:none" transform="scale(1,-1) translate(0,-256)" /></svg>