<?xml version="1.0" encoding="utf-8" ?>
<svg baseProfile="full" height="256" version="1.1" width="256" xmlns="http://www.w3.org/2000/svg" xmlns:ev="http://www.w3.org/2001/xml-events" xmlns:xlink="http://www.w3.org/1999/xlink"><defs /><path d="M1245 998Q1245 931 1219.5 872.5Q1194 814 1150.0 770.0Q1106 726 1047.0 700.5Q988 675 921 675Q855 675 796.0 700.5Q737 726 693.0 770.0Q649 814 623.5 872.5Q598 931 598 998Q598 1065 623.5 1124.0Q649 1183 693.0 1227.0Q737 1271 796.0 1296.5Q855 1322 922 1322Q989 1322 1048.0 1296.5Q1107 1271 1150.5 1227.0Q1194 1183 1219.5 1124.0Q1245 1065 1245 998ZM2009 1203Q2009 1136 1983.5 1077.0Q1958 1018 1914.0 974.5Q1870 931 1811.0 905.5Q1752 880 1685 880Q1618 880 1559.0 905.5Q1500 931 1456.5 975.0Q1413 1019 1387.5 1077.5Q1362 1136 1362 1203Q1362 1270 1387.5 1329.0Q1413 1388 1457.0 1432.0Q1501 1476 1559.5 1501.5Q1618 1527 1685 1527Q1752 1527 1811.0 1501.5Q1870 1476 1914.0 1432.0Q1958 1388 1983.5 1329.0Q2009 1270 2009 1203Z" style="fill:#ffffff;stroke:none" transform="scale(1,-1) translate(0,-256)" /></svg>