<?xml version="1.0" encoding="utf-8" ?>
<svg baseProfile="full" height="256" version="1.1" width="256" xmlns="http://www.w3.org/2000/svg" xmlns:ev="http://www.w3.org/2001/xml-events" xmlns:xlink="http://www.w3.org/1999/xlink"><defs /><path d="M1011 503Q944 503 885.0 528.5Q826 554 782.0 598.0Q738 642 712.5 701.0Q687 760 687 827Q687 881 704.0 930.0Q721 979 751.5 1020.0Q782 1061 824.5 1091.5Q867 1122 918 1137L1047 1053L1188 1097Q1257 1052 1295.5 980.5Q1334 909 1334 827Q1334 760 1308.5 701.0Q1283 642 1239.0 598.0Q1195 554 1136.5 528.5Q1078 503 1011 503ZM1801 503Q1734 503 1675.5 528.5Q1617 554 1573.0 598.0Q1529 642 1503.5 701.0Q1478 760 1478 827Q1478 909 1517.0 981.0Q1556 1053 1625 1098L1770 1040L1894 1137Q1945 1122 1987.5 1091.5Q2030 1061 2060.5 1020.0Q2091 979 2108.0 930.0Q2125 881 2125 827Q2125 760 2099.5 701.0Q2074 642 2030.0 598.0Q1986 554 1927.0 528.5Q1868 503 1801 503Z" style="fill:#ffffff;stroke:none" transform="scale(1,-1) translate(0,-256)" /></svg>