<?xml version="1.0" encoding="utf-8" ?>
<svg baseProfile="full" height="256" version="1.1" width="256" xmlns="http://www.w3.org/2000/svg" xmlns:ev="http://www.w3.org/2001/xml-events" xmlns:xlink="http://www.w3.org/1999/xlink"><defs /><path d="M1190 1078Q1190 1048 1179.0 1022.0Q1168 996 1148.5 976.5Q1129 957 1103.0 946.0Q1077 935 1047 935Q1017 935 991.0 946.0Q965 957 945.5 976.5Q926 996 914.5 1022.0Q903 1048 903 1078Q903 1109 915 1136Q963 1150 1011 1150Q1059 1150 1104.0 1136.0Q1149 1122 1189 1096Q1190 1091 1190.0 1087.0Q1190 1083 1190 1078ZM1909 1078Q1909 1048 1897.5 1022.0Q1886 996 1866.5 976.5Q1847 957 1821.0 946.0Q1795 935 1765 935Q1735 935 1709.0 946.0Q1683 957 1663.5 976.5Q1644 996 1633.0 1022.0Q1622 1048 1622 1078Q1622 1083 1622.0 1087.0Q1622 1091 1623 1096Q1663 1122 1708.0 1136.0Q1753 1150 1801 1150Q1849 1150 1897 1136Q1909 1109 1909 1078Z" style="fill:#402a32;stroke:none" transform="scale(1,-1) translate(0,-256)" /></svg>