<?xml version="1.0" encoding="utf-8" ?>
<svg baseProfile="full" height="256" version="1.1" width="256" xmlns="http://www.w3.org/2000/svg" xmlns:ev="http://www.w3.org/2001/xml-events" xmlns:xlink="http://www.w3.org/1999/xlink"><defs /><path d="M502 506Q502 525 511.0 541.0Q520 557 536 566L1332 1026Q1349 1036 1367.5 1040.5Q1386 1045 1406 1045Q1425 1045 1443.5 1040.5Q1462 1036 1479 1026L2275 566Q2291 557 2300.0 541.0Q2309 525 2309 506Q2309 488 2300.0 472.0Q2291 456 2275 447L1479 -13Q1445 -33 1405 -33Q1366 -33 1332 -13L536 447Q520 456 511.0 472.0Q502 488 502 506Z" style="fill:#feefc2;stroke:none" transform="scale(1,-1) translate(0,-256)" /></svg>