<?xml version="1.0" encoding="utf-8" ?>
<svg baseProfile="full" height="256" version="1.1" width="256" xmlns="http://www.w3.org/2000/svg" xmlns:ev="http://www.w3.org/2001/xml-events" xmlns:xlink="http://www.w3.org/1999/xlink"><defs /><path d="M503 1114Q503 1133 512.0 1149.0Q521 1165 537 1174L1332 1633Q1367 1653 1407 1653Q1426 1653 1444.5 1648.5Q1463 1644 1480 1634L2276 1174Q2292 1165 2301.0 1149.0Q2310 1133 2310 1114Q2310 1096 2301.0 1080.0Q2292 1064 2276 1055L1480 595Q1446 575 1406 575Q1367 575 1333 595L537 1055Q521 1064 512.0 1080.0Q503 1096 503 1114Z" style="fill:#feefc2;stroke:none" transform="scale(1,-1) translate(0,-256)" /></svg>