<?xml version="1.0" encoding="utf-8" ?>
<svg baseProfile="full" height="256" version="1.1" width="256" xmlns="http://www.w3.org/2000/svg" xmlns:ev="http://www.w3.org/2001/xml-events" xmlns:xlink="http://www.w3.org/1999/xlink"><defs /><path d="M625 490Q625 580 660.0 655.0Q695 730 755.0 784.0Q815 838 893.5 868.0Q972 898 1059 898Q1107 898 1156.0 887.5Q1205 877 1250.5 856.5Q1296 836 1336.0 806.5Q1376 777 1406 738Q1436 777 1476.0 806.5Q1516 836 1561.5 856.5Q1607 877 1656.0 887.5Q1705 898 1753 898Q1840 898 1918.5 868.0Q1997 838 2056.5 784.0Q2116 730 2151.0 655.0Q2186 580 2186 490Q2186 400 2151.0 325.0Q2116 250 2057.0 196.0Q1998 142 1919.0 112.0Q1840 82 1753 82Q1703 82 1654.5 92.5Q1606 103 1561.5 123.0Q1517 143 1477.0 172.5Q1437 202 1406 241Q1374 202 1334.5 172.5Q1295 143 1250.5 123.0Q1206 103 1157.0 92.5Q1108 82 1059 82Q972 82 893.0 112.0Q814 142 754.5 196.0Q695 250 660.0 325.0Q625 400 625 490Z" style="fill:#f8312f;stroke:none" transform="scale(1,-1) translate(0,-256)" /></svg>