<?xml version="1.0" encoding="utf-8" ?>
<svg baseProfile="full" height="256" version="1.1" width="256" xmlns="http://www.w3.org/2000/svg" xmlns:ev="http://www.w3.org/2001/xml-events" xmlns:xlink="http://www.w3.org/1999/xlink"><defs /><path d="M2411 575 1836 527Q1794 524 1759.5 519.5Q1725 515 1692.5 511.5Q1660 508 1625.5 505.5Q1591 503 1549 503Q1507 503 1472.5 505.5Q1438 508 1405.5 511.5Q1373 515 1338.5 519.5Q1304 524 1262 527L687 575Q693 582 711.5 604.0Q730 626 751.0 650.5Q772 675 790.0 695.5Q808 716 812 719Q837 739 856.5 750.5Q876 762 902 779L1083 899Q1094 926 1111.5 958.5Q1129 991 1145.5 1024.0Q1162 1057 1174.5 1089.5Q1187 1122 1187 1150Q1284 1253 1413.0 1309.5Q1542 1366 1683 1366H2411Z" style="fill:#d3d3d3;stroke:none" transform="scale(1,-1) translate(0,-256)" /></svg>