<?xml version="1.0" encoding="utf-8" ?>
<svg baseProfile="full" height="256" version="1.1" width="256" xmlns="http://www.w3.org/2000/svg" xmlns:ev="http://www.w3.org/2001/xml-events" xmlns:xlink="http://www.w3.org/1999/xlink"><defs /><path d="M2125 1006Q2095 1006 2069.0 1017.5Q2043 1029 2023.5 1048.5Q2004 1068 1992.5 1094.0Q1981 1120 1981 1150Q1981 1180 1992.0 1206.0Q2003 1232 2022.5 1251.5Q2042 1271 2068.5 1282.5Q2095 1294 2125 1294Q2155 1294 2181.0 1282.5Q2207 1271 2226.5 1251.5Q2246 1232 2257.0 1206.0Q2268 1180 2268 1150Q2268 1120 2257.0 1094.0Q2246 1068 2226.5 1048.5Q2207 1029 2181.0 1017.5Q2155 1006 2125 1006Z" style="fill:#f4f4f4;stroke:none" transform="scale(1,-1) translate(0,-256)" /></svg>