<?xml version="1.0" encoding="utf-8" ?>
<svg baseProfile="full" height="256" version="1.1" width="256" xmlns="http://www.w3.org/2000/svg" xmlns:ev="http://www.w3.org/2001/xml-events" xmlns:xlink="http://www.w3.org/1999/xlink"><defs /><path d="M651 792Q576 792 521.5 756.0Q467 720 429 658Q424 649 416 649Q400 649 400 665Q400 801 437.0 927.5Q474 1054 540.5 1164.0Q607 1274 699.5 1364.0Q792 1454 903.5 1518.0Q1015 1582 1142.0 1617.5Q1269 1653 1404 1653Q1539 1653 1666.0 1617.5Q1793 1582 1904.5 1518.0Q2016 1454 2108.5 1363.5Q2201 1273 2267.5 1163.5Q2334 1054 2370.5 927.5Q2407 801 2407 664Q2407 657 2402.0 653.0Q2397 649 2391 649Q2383 649 2378 657Q2339 720 2286.5 756.0Q2234 792 2156 792Q2102 792 2054.5 770.5Q2007 749 1971 709Q1963 699 1956.0 689.0Q1949 679 1941 668Q1934 659 1926.5 654.0Q1919 649 1908 649Q1894 649 1886.0 653.0Q1878 657 1870 668Q1862 679 1855.5 689.0Q1849 699 1840 709Q1805 749 1757.0 770.5Q1709 792 1655 792Q1581 792 1530.5 759.0Q1480 726 1439 668Q1432 659 1425.0 654.0Q1418 649 1406 649Q1392 649 1384.5 653.0Q1377 657 1369 668Q1328 726 1277.5 759.0Q1227 792 1153 792Q1079 792 1028.5 759.0Q978 726 937 668Q930 659 923.0 654.0Q916 649 904 649Q890 649 882.5 653.0Q875 657 867 668Q826 726 776.0 759.0Q726 792 651 792Z" style="fill:#8d65c5;stroke:none" transform="scale(1,-1) translate(0,-256)" /></svg>