<?xml version="1.0" encoding="utf-8" ?>
<svg baseProfile="full" height="256" version="1.1" width="256" xmlns="http://www.w3.org/2000/svg" xmlns:ev="http://www.w3.org/2001/xml-events" xmlns:xlink="http://www.w3.org/1999/xlink"><defs /><path d="M400 910Q400 927 407.5 943.5Q415 960 426.5 974.5Q438 989 451.0 1002.0Q464 1015 476 1026L1193 1689Q1200 1695 1210.0 1699.0Q1220 1703 1231.0 1705.0Q1242 1707 1252.5 1708.0Q1263 1709 1272 1709Q1323 1709 1374.0 1697.0Q1425 1685 1475 1673L2268 1487Q2298 1480 2324.0 1459.5Q2350 1439 2369.5 1412.0Q2389 1385 2400.5 1353.5Q2412 1322 2412 1292V356Q2412 329 2402.5 307.0Q2393 285 2376.5 268.0Q2360 251 2338.5 239.0Q2317 227 2292 221H2287Q2268 221 2268 244V625Q2268 644 2256.0 657.5Q2244 671 2224 671Q2217 671 2214 670L543 186Q523 180 501 180Q492 180 474.5 182.5Q457 185 439.5 191.0Q422 197 409.0 206.0Q396 215 396 227V383Q396 387 395.5 394.5Q395 402 395.5 409.5Q396 417 399.0 422.5Q402 428 409 428Q422 428 443.0 417.5Q464 407 486 407Q516 407 549.0 413.5Q582 420 611 428Q699 451 785.0 478.5Q871 506 958 532L1632 735L2033 855L2168 896Q2185 901 2204.5 906.0Q2224 911 2241 918Q2262 926 2265.0 941.0Q2268 956 2268 976V1292Q2268 1309 2262.5 1321.5Q2257 1334 2237 1334Q2229 1334 2217.5 1332.0Q2206 1330 2198 1328L543 853Q531 849 517.5 848.0Q504 847 492 847Q477 847 460.5 850.0Q444 853 430.5 860.0Q417 867 408.5 879.5Q400 892 400 910Z" style="fill:#ffdea7;stroke:none" transform="scale(1,-1) translate(0,-256)" /></svg>