<?xml version="1.0" encoding="utf-8" ?>
<svg baseProfile="full" height="256" version="1.1" width="256" xmlns="http://www.w3.org/2000/svg" xmlns:ev="http://www.w3.org/2001/xml-events" xmlns:xlink="http://www.w3.org/1999/xlink"><defs /><path d="M1450 1645Q1430 1645 1409.0 1651.5Q1388 1658 1374 1672L1288 1761Q1286 1763 1286 1766Q1286 1773 1293.5 1778.0Q1301 1783 1311.5 1786.0Q1322 1789 1331.5 1790.5Q1341 1792 1346 1792Q1366 1792 1386.5 1785.0Q1407 1778 1423 1767Q1441 1755 1468.0 1726.5Q1495 1698 1521.0 1664.0Q1547 1630 1565.5 1596.0Q1584 1562 1584 1539Q1584 1534 1581.5 1521.5Q1579 1509 1574.0 1496.5Q1569 1484 1562.5 1474.0Q1556 1464 1549 1464Q1543 1464 1539 1470L1473 1555Q1458 1574 1452.0 1597.5Q1446 1621 1450 1645Z" style="fill:#86d72f;stroke:none" transform="scale(1,-1) translate(0,-256)" /></svg>