<?xml version="1.0" encoding="utf-8" ?>
<svg baseProfile="full" height="256" version="1.1" width="256" xmlns="http://www.w3.org/2000/svg" xmlns:ev="http://www.w3.org/2001/xml-events" xmlns:xlink="http://www.w3.org/1999/xlink"><defs /><path d="M1406 -72Q1481 -72 1546.0 -43.5Q1611 -15 1660.0 34.0Q1709 83 1737.0 148.5Q1765 214 1765 288Q1765 362 1736.5 427.5Q1708 493 1659.5 541.5Q1611 590 1545.5 618.5Q1480 647 1406 647Q1332 647 1266.5 618.5Q1201 590 1152.0 541.5Q1103 493 1075.0 427.5Q1047 362 1047 288Q1047 213 1075.0 147.5Q1103 82 1152.0 33.5Q1201 -15 1266.0 -43.5Q1331 -72 1406 -72ZM1406 -215Q1302 -215 1210.0 -175.5Q1118 -136 1050.0 -68.0Q982 0 942.5 92.0Q903 184 903 288Q903 392 942.5 483.5Q982 575 1050.0 643.5Q1118 712 1210.0 751.5Q1302 791 1406 791Q1510 791 1601.5 751.5Q1693 712 1761.5 643.5Q1830 575 1869.5 483.5Q1909 392 1909 288Q1909 184 1869.5 92.0Q1830 0 1761.5 -68.0Q1693 -136 1601.5 -175.5Q1510 -215 1406 -215Z" style="fill:#9b9b9b;stroke:none" transform="scale(1,-1) translate(0,-256)" /></svg>