<?xml version="1.0" encoding="utf-8" ?>
<svg baseProfile="full" height="256" version="1.1" width="256" xmlns="http://www.w3.org/2000/svg" xmlns:ev="http://www.w3.org/2001/xml-events" xmlns:xlink="http://www.w3.org/1999/xlink"><defs /><path d="M400 863Q400 893 411.0 919.0Q422 945 441.5 964.5Q461 984 487.0 995.0Q513 1006 543 1006H2268Q2298 1006 2324.0 995.0Q2350 984 2369.5 964.5Q2389 945 2400.5 919.0Q2412 893 2412 863V683L2268 288L2412 -108V-144Q2412 -174 2400.5 -200.0Q2389 -226 2369.5 -245.5Q2350 -265 2324.0 -276.0Q2298 -287 2268 -287H543Q513 -287 487.0 -276.0Q461 -265 441.5 -245.5Q422 -226 411.0 -200.0Q400 -174 400 -144V-108L508 288Q488 365 467.0 441.0Q446 517 425 593Q424 596 420.0 610.0Q416 624 411.5 639.5Q407 655 403.5 668.5Q400 682 400 683Z" style="fill:#bebebe;stroke:none" transform="scale(1,-1) translate(0,-256)" /></svg>