<?xml version="1.0" encoding="utf-8" ?>
<svg baseProfile="full" height="256" version="1.1" width="256" xmlns="http://www.w3.org/2000/svg" xmlns:ev="http://www.w3.org/2001/xml-events" xmlns:xlink="http://www.w3.org/1999/xlink"><defs /><path d="M831 1653Q831 1683 852.0 1704.0Q873 1725 903 1725H1406Q1436 1725 1457.0 1704.0Q1478 1683 1478 1653V1150Q1478 1121 1456.5 1099.5Q1435 1078 1406 1078H903Q874 1078 852.5 1099.5Q831 1121 831 1150ZM1047 306Q1047 328 1062.5 344.0Q1078 360 1100 360H2071Q2093 360 2109.0 344.0Q2125 328 2125 306Q2125 283 2109.5 267.5Q2094 252 2071 252H1100Q1077 252 1062.0 268.0Q1047 284 1047 306ZM1100 180Q1077 180 1062.0 164.0Q1047 148 1047 126Q1047 104 1062.0 88.0Q1077 72 1100 72H2071Q2094 72 2109.5 87.5Q2125 103 2125 126Q2125 149 2109.5 164.5Q2094 180 2071 180Z" style="fill:#f3eef8;stroke:none" transform="scale(1,-1) translate(0,-256)" /></svg>