<?xml version="1.0" encoding="utf-8" ?>
<svg baseProfile="full" height="256" version="1.1" width="256" xmlns="http://www.w3.org/2000/svg" xmlns:ev="http://www.w3.org/2001/xml-events" xmlns:xlink="http://www.w3.org/1999/xlink"><defs /><path d="M1154 1617Q1185 1617 1200.0 1602.5Q1215 1588 1221.0 1566.5Q1227 1545 1226.5 1520.0Q1226 1495 1226 1474Q1247 1474 1272.0 1474.5Q1297 1475 1319.0 1469.0Q1341 1463 1355.5 1448.0Q1370 1433 1370 1402Q1370 1371 1355.5 1356.0Q1341 1341 1319.0 1335.0Q1297 1329 1272.0 1329.5Q1247 1330 1226 1330Q1226 1309 1226.5 1284.0Q1227 1259 1221.0 1237.0Q1215 1215 1200.0 1200.5Q1185 1186 1154 1186Q1123 1186 1108.0 1201.0Q1093 1216 1087.5 1237.5Q1082 1259 1082.5 1284.0Q1083 1309 1083 1330Q1062 1330 1037.0 1329.5Q1012 1329 990.0 1335.0Q968 1341 953.5 1356.0Q939 1371 939 1402Q939 1433 953.5 1448.0Q968 1463 990.0 1469.0Q1012 1475 1037.0 1474.5Q1062 1474 1083 1474Q1083 1495 1082.5 1519.5Q1082 1544 1087.5 1566.0Q1093 1588 1108.0 1602.5Q1123 1617 1154 1617Z" style="fill:#f8312f;stroke:none" transform="scale(1,-1) translate(0,-256)" /></svg>