<?xml version="1.0" encoding="utf-8" ?>
<svg baseProfile="full" height="256" version="1.1" width="256" xmlns="http://www.w3.org/2000/svg" xmlns:ev="http://www.w3.org/2001/xml-events" xmlns:xlink="http://www.w3.org/1999/xlink"><defs /><path d="M1406 1653Q1356 1653 1317.5 1633.5Q1279 1614 1245.0 1584.5Q1211 1555 1180.0 1521.0Q1149 1487 1116 1458Q1099 1444 1073.0 1427.0Q1047 1410 1018.5 1394.5Q990 1379 962.0 1366.5Q934 1354 913 1348L892 1416Q911 1422 935.5 1433.0Q960 1444 984.5 1457.5Q1009 1471 1031.0 1485.0Q1053 1499 1069 1513Q1084 1526 1097.5 1540.5Q1111 1555 1125 1569Q1155 1599 1185.5 1627.5Q1216 1656 1250.0 1677.5Q1284 1699 1322.5 1712.0Q1361 1725 1406 1725Q1468 1725 1513.5 1704.5Q1559 1684 1596.5 1652.5Q1634 1621 1668.5 1584.0Q1703 1547 1743 1513Q1759 1499 1781.5 1485.0Q1804 1471 1828.0 1458.0Q1852 1445 1876.0 1434.0Q1900 1423 1920 1416L1898 1348Q1876 1354 1848.5 1366.5Q1821 1379 1793.0 1394.5Q1765 1410 1739.5 1426.5Q1714 1443 1696 1458Q1662 1486 1631.5 1520.5Q1601 1555 1567.5 1584.0Q1534 1613 1495.0 1633.0Q1456 1653 1406 1653ZM1406 -216Q1455 -216 1494.0 -196.5Q1533 -177 1567.0 -147.5Q1601 -118 1632.0 -84.5Q1663 -51 1696 -22Q1715 -6 1740.0 10.5Q1765 27 1792.5 42.0Q1820 57 1847.0 69.0Q1874 81 1898 90L1920 21Q1901 16 1881.0 6.5Q1861 -3 1844 -12Q1818 -26 1792.0 -41.5Q1766 -57 1743 -77Q1703 -112 1668.0 -149.5Q1633 -187 1595.0 -217.5Q1557 -248 1511.5 -268.0Q1466 -288 1406 -288Q1363 -288 1324.0 -275.5Q1285 -263 1250.0 -241.5Q1215 -220 1183.5 -192.0Q1152 -164 1125 -133Q1112 -119 1098.0 -104.5Q1084 -90 1069 -77Q1046 -57 1020.0 -41.5Q994 -26 968 -12Q951 -3 931.0 6.5Q911 16 892 21L914 90Q937 82 964.5 69.5Q992 57 1019.5 42.0Q1047 27 1072.5 10.5Q1098 -6 1116 -22Q1149 -51 1180.0 -85.0Q1211 -119 1244.5 -148.0Q1278 -177 1317.0 -196.5Q1356 -216 1406 -216ZM543 719Q543 650 562.0 598.0Q581 546 611.0 501.5Q641 457 678.5 414.5Q716 372 754 322Q760 314 768.0 303.0Q776 292 784.0 280.0Q792 268 798.5 256.0Q805 244 808 235L740 213Q731 231 719.0 247.5Q707 264 696 280Q668 319 640.5 351.5Q613 384 588.0 414.5Q563 445 542.0 475.5Q521 506 505.5 542.0Q490 578 481.0 621.0Q472 664 472 719Q472 774 481.0 817.5Q490 861 506.0 897.0Q522 933 543.0 964.0Q564 995 589.0 1025.5Q614 1056 641.0 1089.0Q668 1122 695 1162Q699 1168 705.5 1178.0Q712 1188 719.0 1198.5Q726 1209 731.5 1218.5Q737 1228 739 1235L807 1212Q804 1203 797.5 1190.5Q791 1178 783.0 1165.5Q775 1153 767.5 1141.5Q760 1130 754 1121Q718 1067 680.5 1025.0Q643 983 612.5 939.0Q582 895 562.5 843.5Q543 792 543 719ZM2271 719Q2271 791 2251.5 843.0Q2232 895 2201.0 939.0Q2170 983 2132.0 1025.5Q2094 1068 2058 1121Q2052 1129 2044.5 1141.0Q2037 1153 2029.0 1165.5Q2021 1178 2014.5 1190.5Q2008 1203 2005 1212L2073 1235Q2079 1216 2093.0 1197.0Q2107 1178 2118 1162Q2145 1123 2172.0 1090.0Q2199 1057 2224.0 1025.5Q2249 994 2271.0 962.0Q2293 930 2309.0 894.0Q2325 858 2334.0 815.0Q2343 772 2343 719Q2343 638 2323.5 580.5Q2304 523 2272.0 475.5Q2240 428 2199.0 383.0Q2158 338 2116 280Q2105 264 2092.5 247.5Q2080 231 2072 213L2004 235Q2007 244 2013.5 256.0Q2020 268 2028.0 280.0Q2036 292 2044.5 303.5Q2053 315 2059 323Q2097 373 2135.0 415.0Q2173 457 2203.0 501.5Q2233 546 2252.0 598.0Q2271 650 2271 719Z" style="fill:#a7a8b7;stroke:none" transform="scale(1,-1) translate(0,-256)" /></svg>