<?xml version="1.0" encoding="utf-8" ?>
<svg baseProfile="full" height="256" version="1.1" width="256" xmlns="http://www.w3.org/2000/svg" xmlns:ev="http://www.w3.org/2001/xml-events" xmlns:xlink="http://www.w3.org/1999/xlink"><defs /><path d="M725 1276Q725 1306 746 1327L844 1425Q865 1446 895 1446Q925 1446 946 1425L1233 1138Q1166 1110 1111.0 1062.5Q1056 1015 1018 953L746 1225Q725 1246 725 1276ZM2086 165Q2086 135 2065 114L1967 16Q1946 -5 1916 -5Q1886 -5 1865 16L1578 303Q1645 331 1700.0 378.5Q1755 426 1793 488L2065 216Q2086 195 2086 165ZM2086 1276Q2086 1246 2065 1225L1793 953Q1755 1015 1700.0 1062.5Q1645 1110 1578 1138L1865 1425Q1886 1446 1916 1446Q1946 1446 1967 1425L2065 1327Q2086 1306 2086 1276ZM725 165Q725 135 746 114L844 16Q865 -5 895 -5Q925 -5 946 16L1233 303Q1166 331 1111.0 378.5Q1056 426 1018 488L746 216Q725 195 725 165Z" style="fill:#ffffff;stroke:none" transform="scale(1,-1) translate(0,-256)" /></svg>