<?xml version="1.0" encoding="utf-8" ?>
<svg baseProfile="full" height="256" version="1.1" width="256" xmlns="http://www.w3.org/2000/svg" xmlns:ev="http://www.w3.org/2001/xml-events" xmlns:xlink="http://www.w3.org/1999/xlink"><defs /><path d="M1420 526Q1382 526 1348.5 540.5Q1315 555 1290.0 580.0Q1265 605 1250.5 638.5Q1236 672 1236 710Q1236 748 1250.5 781.5Q1265 815 1290.0 840.0Q1315 865 1348.5 879.5Q1382 894 1420 894Q1458 894 1491.5 879.5Q1525 865 1550.0 840.0Q1575 815 1589.5 781.5Q1604 748 1604 710Q1604 672 1589.5 638.5Q1575 605 1550.0 580.0Q1525 555 1491.5 540.5Q1458 526 1420 526Z" style="fill:#212121;stroke:none" transform="scale(1,-1) translate(0,-256)" /></svg>