<?xml version="1.0" encoding="utf-8" ?>
<svg baseProfile="full" height="256" version="1.1" width="256" xmlns="http://www.w3.org/2000/svg" xmlns:ev="http://www.w3.org/2001/xml-events" xmlns:xlink="http://www.w3.org/1999/xlink"><defs /><path d="M1420 342Q1344 342 1277.0 371.0Q1210 400 1160.0 450.0Q1110 500 1081.0 567.0Q1052 634 1052 710Q1052 786 1081.0 853.0Q1110 920 1160.0 970.0Q1210 1020 1277.0 1049.0Q1344 1078 1420 1078Q1496 1078 1563.5 1049.0Q1631 1020 1680.5 970.5Q1730 921 1759.0 853.5Q1788 786 1788 710Q1788 634 1759.0 567.0Q1730 500 1680.0 450.0Q1630 400 1563.0 371.0Q1496 342 1420 342Z" style="fill:#26c9fc;stroke:none" transform="scale(1,-1) translate(0,-256)" /></svg>