<?xml version="1.0" encoding="utf-8" ?>
<svg baseProfile="full" height="256" version="1.1" width="256" xmlns="http://www.w3.org/2000/svg" xmlns:ev="http://www.w3.org/2001/xml-events" xmlns:xlink="http://www.w3.org/1999/xlink"><defs /><path d="M1407 -359Q1324 -359 1265.0 -330.0Q1206 -301 1165.0 -251.5Q1124 -202 1100.0 -137.0Q1076 -72 1064 1Q1057 41 1055.0 81.0Q1053 121 1048 162Q1047 167 1047.0 171.0Q1047 175 1047 180Q1047 215 1063.5 236.5Q1080 258 1108 275Q1129 288 1169.5 296.0Q1210 304 1254.5 308.0Q1299 312 1340.5 313.5Q1382 315 1407 315Q1431 315 1473.0 313.5Q1515 312 1560.0 308.0Q1605 304 1645.0 296.0Q1685 288 1706 275Q1734 258 1750.5 236.0Q1767 214 1767 180Q1767 175 1767.0 171.0Q1767 167 1766 162Q1761 121 1759.0 81.0Q1757 41 1750 1Q1738 -72 1714.0 -137.0Q1690 -202 1649.0 -251.5Q1608 -301 1548.5 -330.0Q1489 -359 1407 -359Z" style="fill:#00d26a;stroke:none" transform="scale(1,-1) translate(0,-256)" /></svg>