<?xml version="1.0" encoding="utf-8" ?>
<svg baseProfile="full" height="256" version="1.1" width="256" xmlns="http://www.w3.org/2000/svg" xmlns:ev="http://www.w3.org/2001/xml-events" xmlns:xlink="http://www.w3.org/1999/xlink"><defs /><path d="M1029 1438Q1047 1438 1058.0 1431.0Q1069 1424 1075.0 1412.5Q1081 1401 1082.5 1387.0Q1084 1373 1084 1359Q1084 1350 1083.5 1342.0Q1083 1334 1083 1326Q1120 1319 1147.0 1301.0Q1174 1283 1191.5 1257.0Q1209 1231 1217.5 1199.0Q1226 1167 1226 1132Q1226 1109 1210.5 1093.5Q1195 1078 1172 1078Q1150 1078 1134.0 1094.0Q1118 1110 1118 1132Q1118 1162 1111.5 1180.0Q1105 1198 1091.5 1207.0Q1078 1216 1058.0 1219.0Q1038 1222 1011 1222Q971 1222 955.0 1196.0Q939 1170 939 1135Q939 1107 952.0 1092.0Q965 1077 984.5 1070.0Q1004 1063 1026.5 1060.5Q1049 1058 1069 1056Q1107 1051 1136.5 1034.0Q1166 1017 1186.0 991.5Q1206 966 1216.0 933.0Q1226 900 1226 863Q1226 831 1215.5 802.0Q1205 773 1186.0 749.5Q1167 726 1140.5 709.5Q1114 693 1083 687Q1083 679 1083.5 671.0Q1084 663 1084 654Q1084 640 1082.5 625.5Q1081 611 1075.0 600.0Q1069 589 1058.0 582.0Q1047 575 1029 575Q1011 575 1000.0 582.0Q989 589 983.0 600.0Q977 611 975.5 625.5Q974 640 974 654Q974 663 974.5 671.0Q975 679 975 687Q938 694 911.0 712.0Q884 730 866.0 756.0Q848 782 839.5 814.0Q831 846 831 881Q831 903 847.0 919.0Q863 935 885 935Q907 935 923.0 919.0Q939 903 939 881Q939 851 946.0 833.0Q953 815 966.5 805.5Q980 796 1000.0 793.5Q1020 791 1047 791Q1085 791 1101.5 817.0Q1118 843 1118 877Q1118 905 1105.5 920.5Q1093 936 1073.5 943.0Q1054 950 1031.0 952.0Q1008 954 988 957Q950 962 920.5 979.0Q891 996 871.0 1021.5Q851 1047 841.0 1080.0Q831 1113 831 1150Q831 1182 841.5 1211.0Q852 1240 871.5 1263.5Q891 1287 917.0 1303.5Q943 1320 975 1326Q975 1334 974.5 1342.0Q974 1350 974 1359Q974 1373 975.5 1387.0Q977 1401 983.0 1412.5Q989 1424 1000.0 1431.0Q1011 1438 1029 1438ZM1783 1438Q1801 1438 1812.0 1431.0Q1823 1424 1829.0 1412.5Q1835 1401 1836.5 1387.0Q1838 1373 1838 1359Q1838 1350 1837.5 1342.0Q1837 1334 1837 1326Q1874 1319 1901.0 1301.0Q1928 1283 1946.0 1257.0Q1964 1231 1972.5 1199.0Q1981 1167 1981 1132Q1981 1109 1965.5 1093.5Q1950 1078 1927 1078Q1904 1078 1888.5 1093.5Q1873 1109 1873 1132Q1873 1162 1866.0 1180.0Q1859 1198 1845.5 1207.5Q1832 1217 1812.0 1219.5Q1792 1222 1765 1222Q1726 1222 1709.5 1195.5Q1693 1169 1693 1135Q1693 1107 1706.0 1092.0Q1719 1077 1738.5 1069.5Q1758 1062 1781.0 1060.0Q1804 1058 1824 1056Q1862 1051 1891.0 1034.0Q1920 1017 1940.0 991.0Q1960 965 1970.5 932.0Q1981 899 1981 863Q1981 831 1970.5 802.0Q1960 773 1940.5 749.5Q1921 726 1894.5 709.5Q1868 693 1837 687Q1837 679 1837.5 671.0Q1838 663 1838 654Q1838 640 1836.5 625.5Q1835 611 1829.0 600.0Q1823 589 1812.0 582.0Q1801 575 1783 575Q1765 575 1754.0 582.0Q1743 589 1737.0 600.0Q1731 611 1729.5 625.5Q1728 640 1728 654Q1728 663 1728.5 671.0Q1729 679 1729 687Q1692 694 1665.0 712.0Q1638 730 1620.5 756.0Q1603 782 1594.5 814.0Q1586 846 1586 881Q1586 903 1602.0 919.0Q1618 935 1640 935Q1662 935 1677.5 919.0Q1693 903 1693 881Q1693 851 1700.0 833.0Q1707 815 1720.5 806.0Q1734 797 1754.0 794.0Q1774 791 1801 791Q1840 791 1856.5 816.5Q1873 842 1873 877Q1873 905 1860.5 920.5Q1848 936 1828.5 943.0Q1809 950 1786.0 952.0Q1763 954 1743 957Q1705 962 1675.5 979.0Q1646 996 1626.0 1021.5Q1606 1047 1596.0 1080.0Q1586 1113 1586 1150Q1586 1182 1596.5 1211.0Q1607 1240 1626.0 1263.5Q1645 1287 1671.0 1303.5Q1697 1320 1729 1326Q1729 1334 1728.5 1342.0Q1728 1350 1728 1359Q1728 1373 1729.5 1387.0Q1731 1401 1737.0 1412.5Q1743 1424 1754.0 1431.0Q1765 1438 1783 1438ZM1442 216Q1442 231 1431.5 241.5Q1421 252 1406 252Q1390 252 1382.5 244.0Q1375 236 1372.0 224.5Q1369 213 1369.5 199.5Q1370 186 1370 175Q1338 165 1318.0 138.0Q1298 111 1298 77Q1298 35 1320.5 13.0Q1343 -9 1370.0 -22.0Q1397 -35 1419.5 -46.0Q1442 -57 1442 -77Q1442 -93 1431.0 -100.5Q1420 -108 1406 -108Q1386 -108 1379.5 -97.0Q1373 -86 1370.0 -72.5Q1367 -59 1360.5 -47.5Q1354 -36 1334 -36Q1319 -36 1308.5 -46.5Q1298 -57 1298 -72Q1298 -107 1318.0 -135.0Q1338 -163 1370 -174Q1370 -185 1369.5 -198.5Q1369 -212 1372.0 -223.5Q1375 -235 1382.5 -243.0Q1390 -251 1406 -251Q1422 -251 1429.5 -243.0Q1437 -235 1440.0 -223.5Q1443 -212 1442.5 -199.0Q1442 -186 1442 -175Q1474 -165 1494.0 -137.5Q1514 -110 1514 -77Q1514 -49 1503.5 -30.5Q1493 -12 1477.0 1.0Q1461 14 1442.0 22.5Q1423 31 1407.0 39.0Q1391 47 1380.5 55.5Q1370 64 1370 77Q1370 93 1381.0 100.5Q1392 108 1406 108Q1426 108 1432.5 96.5Q1439 85 1442.0 71.5Q1445 58 1451.5 47.0Q1458 36 1478 36Q1493 36 1503.5 46.5Q1514 57 1514 72Q1514 107 1493.5 135.0Q1473 163 1441 174Q1442 176 1442.0 182.0Q1442 188 1442.0 194.5Q1442 201 1442.0 207.0Q1442 213 1442 216Z" style="fill:#402a32;stroke:none" transform="scale(1,-1) translate(0,-256)" /></svg>