<?xml version="1.0" encoding="utf-8" ?>
<svg baseProfile="full" height="256" version="1.1" width="256" xmlns="http://www.w3.org/2000/svg" xmlns:ev="http://www.w3.org/2001/xml-events" xmlns:xlink="http://www.w3.org/1999/xlink"><defs /><path d="M2197 1438Q2197 1433 2193 1433L2188 1437Q2176 1485 2149.0 1524.5Q2122 1564 2085.0 1592.5Q2048 1621 2003.0 1637.0Q1958 1653 1909 1653Q1872 1653 1839.0 1644.5Q1806 1636 1774 1620Q1746 1606 1720 1606Q1679 1606 1646 1633Q1592 1678 1534.5 1701.5Q1477 1725 1406 1725Q1335 1725 1277.5 1701.5Q1220 1678 1166 1633Q1134 1606 1092 1606Q1066 1606 1038 1620Q1006 1636 973.0 1644.5Q940 1653 903 1653Q852 1653 807.5 1637.0Q763 1621 727.0 1592.5Q691 1564 665.0 1524.5Q639 1485 624 1437Q622 1433 619 1433Q615 1433 615 1438Q615 1497 638.0 1549.5Q661 1602 700.0 1641.0Q739 1680 791.5 1702.5Q844 1725 903 1725Q941 1725 973.0 1716.5Q1005 1708 1038 1691Q1066 1678 1092 1678Q1133 1678 1166 1705Q1220 1750 1277.5 1773.5Q1335 1797 1406 1797Q1477 1797 1534.5 1773.5Q1592 1750 1646 1705Q1679 1678 1720 1678Q1746 1678 1774 1691Q1807 1708 1839.0 1716.5Q1871 1725 1909 1725Q1968 1725 2020.5 1702.5Q2073 1680 2112.0 1641.0Q2151 1602 2174.0 1549.5Q2197 1497 2197 1438Z" style="fill:#e6e6e6;stroke:none" transform="scale(1,-1) translate(0,-256)" /></svg>