<?xml version="1.0" encoding="utf-8" ?>
<svg baseProfile="full" height="256" version="1.1" width="256" xmlns="http://www.w3.org/2000/svg" xmlns:ev="http://www.w3.org/2001/xml-events" xmlns:xlink="http://www.w3.org/1999/xlink"><defs /><path d="M1260 364Q1260 334 1248.5 307.5Q1237 281 1217.5 261.5Q1198 242 1172.0 231.0Q1146 220 1116 220Q1086 220 1060.0 231.5Q1034 243 1014.5 262.5Q995 282 984.0 308.0Q973 334 973 364Q973 394 984.0 420.0Q995 446 1014.5 465.5Q1034 485 1060.0 496.5Q1086 508 1116 508Q1146 508 1172.0 496.5Q1198 485 1217.5 465.5Q1237 446 1248.5 420.0Q1260 394 1260 364ZM1835 364Q1835 334 1823.5 307.5Q1812 281 1792.5 261.5Q1773 242 1747.0 231.0Q1721 220 1691 220Q1661 220 1635.0 231.5Q1609 243 1589.5 262.5Q1570 282 1559.0 308.0Q1548 334 1548 364Q1548 394 1559.0 420.0Q1570 446 1589.5 465.5Q1609 485 1635.0 496.5Q1661 508 1691 508Q1721 508 1747.0 496.5Q1773 485 1792.5 465.5Q1812 446 1823.5 420.0Q1835 394 1835 364Z" style="fill:#402a32;stroke:none" transform="scale(1,-1) translate(0,-256)" /></svg>