<?xml version="1.0" encoding="utf-8" ?>
<svg baseProfile="full" height="256" version="1.1" width="256" xmlns="http://www.w3.org/2000/svg" xmlns:ev="http://www.w3.org/2001/xml-events" xmlns:xlink="http://www.w3.org/1999/xlink"><defs /><path d="M759 1546Q759 1523 750.5 1503.5Q742 1484 727.5 1469.5Q713 1455 693.0 1446.5Q673 1438 651 1438Q629 1438 609.5 1446.5Q590 1455 575.0 1470.0Q560 1485 551.5 1504.5Q543 1524 543 1546Q543 1568 551.5 1587.5Q560 1607 575.0 1621.5Q590 1636 609.5 1644.5Q629 1653 651 1653Q673 1653 692.5 1644.5Q712 1636 727.0 1622.0Q742 1608 750.5 1588.0Q759 1568 759 1546ZM2008 1383Q2050 1383 2078.5 1411.5Q2107 1440 2107 1482Q2107 1524 2078.5 1552.5Q2050 1581 2008 1581Q1966 1581 1937.5 1552.5Q1909 1524 1909 1482Q1909 1440 1937.5 1411.5Q1966 1383 2008 1383ZM615 1222Q615 1192 594.0 1171.0Q573 1150 543 1150Q514 1150 493.0 1171.5Q472 1193 472 1222Q472 1251 493.0 1272.5Q514 1294 543 1294Q573 1294 594.0 1273.0Q615 1252 615 1222ZM2268 1150Q2268 1121 2247.0 1099.5Q2226 1078 2197 1078Q2168 1078 2146.5 1099.5Q2125 1121 2125 1150Q2125 1180 2146.0 1201.0Q2167 1222 2197 1222Q2226 1222 2247.0 1200.5Q2268 1179 2268 1150Z" style="fill:#ffb02e;stroke:none" transform="scale(1,-1) translate(0,-256)" /></svg>