<?xml version="1.0" encoding="utf-8" ?>
<svg baseProfile="full" height="256" version="1.1" width="256" xmlns="http://www.w3.org/2000/svg" xmlns:ev="http://www.w3.org/2001/xml-events" xmlns:xlink="http://www.w3.org/1999/xlink"><defs /><path d="M1406 996Q1383 996 1362.0 986.5Q1341 977 1316.0 965.5Q1291 954 1261.0 944.5Q1231 935 1190 935Q1131 935 1078.5 957.5Q1026 980 987.0 1019.0Q948 1058 925.5 1110.5Q903 1163 903 1222Q903 1283 926.5 1330.0Q950 1377 989.5 1408.0Q1029 1439 1081.0 1455.0Q1133 1471 1190 1471Q1231 1471 1261.0 1461.5Q1291 1452 1315.5 1440.0Q1340 1428 1361.5 1418.5Q1383 1409 1406 1409Q1429 1409 1450.5 1418.5Q1472 1428 1496.5 1440.0Q1521 1452 1551.0 1461.5Q1581 1471 1622 1471Q1679 1471 1731.0 1455.0Q1783 1439 1822.5 1408.0Q1862 1377 1885.5 1330.0Q1909 1283 1909 1222Q1909 1163 1886.5 1110.5Q1864 1058 1825.0 1019.0Q1786 980 1733.5 957.5Q1681 935 1622 935Q1581 935 1551.0 944.5Q1521 954 1496.0 965.5Q1471 977 1450.0 986.5Q1429 996 1406 996Z" style="fill:#c9c9c9;stroke:none" transform="scale(1,-1) translate(0,-256)" /></svg>