<?xml version="1.0" encoding="utf-8" ?>
<svg baseProfile="full" height="256" version="1.1" width="256" xmlns="http://www.w3.org/2000/svg" xmlns:ev="http://www.w3.org/2001/xml-events" xmlns:xlink="http://www.w3.org/1999/xlink"><defs /><path d="M2123 937Q2123 908 2085.5 886.5Q2048 865 1989.5 849.0Q1931 833 1861.5 823.0Q1792 813 1728.0 807.0Q1664 801 1614.5 798.0Q1565 795 1547 795L1409 855L1260 796Q1247 796 1215.5 798.0Q1184 800 1141.5 803.0Q1099 806 1048.5 811.5Q998 817 948.0 824.5Q898 832 851.0 842.5Q804 853 768.0 867.0Q732 881 710.5 898.5Q689 916 689 937Q689 962 716.5 981.0Q744 1000 790.0 1015.0Q836 1030 895.0 1040.5Q954 1051 1018.0 1058.0Q1082 1065 1145.0 1069.5Q1208 1074 1261.0 1076.5Q1314 1079 1353.0 1079.5Q1392 1080 1407 1080Q1422 1080 1460.5 1079.5Q1499 1079 1552.5 1076.5Q1606 1074 1669.0 1069.5Q1732 1065 1795.0 1058.0Q1858 1051 1917.5 1040.5Q1977 1030 2022.5 1015.0Q2068 1000 2095.5 981.0Q2123 962 2123 937Z" style="fill:#ff6723;stroke:none" transform="scale(1,-1) translate(0,-256)" /></svg>