<?xml version="1.0" encoding="utf-8" ?>
<svg baseProfile="full" height="256" version="1.1" width="256" xmlns="http://www.w3.org/2000/svg" xmlns:ev="http://www.w3.org/2001/xml-events" xmlns:xlink="http://www.w3.org/1999/xlink"><defs /><path d="M1909 1222Q1909 1218 1905 1218Q1902 1218 1900 1222Q1894 1240 1888.0 1256.5Q1882 1273 1873 1290Q1854 1324 1827.0 1351.5Q1800 1379 1767.5 1398.0Q1735 1417 1698.0 1427.5Q1661 1438 1622 1438Q1581 1438 1551.0 1428.5Q1521 1419 1496.5 1407.0Q1472 1395 1450.5 1385.5Q1429 1376 1406 1376Q1383 1376 1361.5 1385.5Q1340 1395 1315.5 1407.0Q1291 1419 1261.0 1428.5Q1231 1438 1190 1438Q1137 1438 1093.0 1422.0Q1049 1406 1014.0 1377.5Q979 1349 953.0 1309.5Q927 1270 912 1222Q910 1218 907 1218L903 1222Q903 1281 925.5 1333.5Q948 1386 987.0 1425.0Q1026 1464 1078.5 1487.0Q1131 1510 1190 1510Q1231 1510 1261.0 1500.5Q1291 1491 1315.5 1479.0Q1340 1467 1361.5 1457.5Q1383 1448 1406 1448Q1429 1448 1450.5 1457.5Q1472 1467 1496.5 1479.0Q1521 1491 1551.0 1500.5Q1581 1510 1622 1510Q1681 1510 1733.5 1487.0Q1786 1464 1825.0 1425.0Q1864 1386 1886.5 1333.5Q1909 1281 1909 1222Z" style="fill:#ffffff;stroke:none" transform="scale(1,-1) translate(0,-256)" /></svg>