<?xml version="1.0" encoding="utf-8" ?>
<svg baseProfile="full" height="256" version="1.1" width="256" xmlns="http://www.w3.org/2000/svg" xmlns:ev="http://www.w3.org/2001/xml-events" xmlns:xlink="http://www.w3.org/1999/xlink"><defs /><path d="M1945 1016Q1960 1016 1970.5 1005.5Q1981 995 1981 980Q1981 965 1970.5 954.5Q1960 944 1945 944H1005Q990 944 979.5 954.5Q969 965 969 980Q969 995 979.5 1005.5Q990 1016 1005 1016ZM973 767Q973 782 983.5 792.5Q994 803 1009 803H1945Q1960 803 1970.5 792.5Q1981 782 1981 767Q1981 752 1970.5 741.5Q1960 731 1945 731H1009Q994 731 983.5 741.5Q973 752 973 767ZM1945 586Q1960 586 1970.5 575.5Q1981 565 1981 550Q1981 535 1970.5 524.5Q1960 514 1945 514H1009Q994 514 983.5 524.5Q973 535 973 550Q973 565 983.5 575.5Q994 586 1009 586ZM1583 372Q1598 372 1608.5 361.5Q1619 351 1619 336Q1619 321 1608.5 310.5Q1598 300 1583 300H1011Q997 300 986.0 311.0Q975 322 975 336Q975 350 986.0 361.0Q997 372 1011 372Z" style="fill:#d3883e;stroke:none" transform="scale(1,-1) translate(0,-256)" /></svg>