<?xml version="1.0" encoding="utf-8" ?>
<svg baseProfile="full" height="256" version="1.1" width="256" xmlns="http://www.w3.org/2000/svg" xmlns:ev="http://www.w3.org/2001/xml-events" xmlns:xlink="http://www.w3.org/1999/xlink"><defs /><path d="M1037 -287Q1062 -283 1088.0 -272.5Q1114 -262 1137.0 -246.5Q1160 -231 1179.0 -211.0Q1198 -191 1210 -168Q1218 -153 1223.0 -138.0Q1228 -123 1233 -107Q1240 -87 1255.5 -78.5Q1271 -70 1291 -70H2350Q2360 -70 2370.5 -73.0Q2381 -76 2390.0 -81.5Q2399 -87 2404.5 -95.5Q2410 -104 2410 -115Q2410 -120 2409 -123Q2395 -180 2362.5 -212.5Q2330 -245 2287.0 -261.5Q2244 -278 2194.0 -282.5Q2144 -287 2095 -287Z" style="fill:#e19747;stroke:none" transform="scale(1,-1) translate(0,-256)" /></svg>