<?xml version="1.0" encoding="utf-8" ?>
<svg baseProfile="full" height="256" version="1.1" width="256" xmlns="http://www.w3.org/2000/svg" xmlns:ev="http://www.w3.org/2001/xml-events" xmlns:xlink="http://www.w3.org/1999/xlink"><defs /><path d="M1663 718Q1663 671 1681.0 629.5Q1699 588 1730.0 557.5Q1761 527 1802.5 509.0Q1844 491 1891 491Q1907 491 1922.5 495.0Q1938 499 1952.5 504.0Q1967 509 1981.0 513.0Q1995 517 2009 517Q2038 517 2058.5 496.5Q2079 476 2079 447Q2079 417 2058.0 398.5Q2037 380 2007.0 369.5Q1977 359 1945.0 355.5Q1913 352 1891 352Q1815 352 1748.0 381.0Q1681 410 1631.5 460.0Q1582 510 1553.0 577.0Q1524 644 1524 720Q1524 796 1553.0 863.0Q1582 930 1632.5 979.5Q1683 1029 1750.0 1057.5Q1817 1086 1893 1086Q1915 1086 1947.0 1082.5Q1979 1079 2008.5 1068.5Q2038 1058 2059.0 1040.0Q2080 1022 2080 992Q2080 963 2059.0 942.5Q2038 922 2009 922Q1995 922 1980.5 925.5Q1966 929 1951.5 933.5Q1937 938 1922.0 942.0Q1907 946 1891 946Q1844 946 1802.5 928.0Q1761 910 1730.0 879.0Q1699 848 1681.0 806.5Q1663 765 1663 718ZM1408 1075Q1437 1075 1457.0 1055.0Q1477 1035 1477 1006Q1477 1001 1477.0 997.0Q1477 993 1475 988L1323 420Q1315 393 1297.5 377.5Q1280 362 1251 362Q1225 362 1208.0 379.5Q1191 397 1185 420L1100 737L1015 420Q1007 391 990.0 376.5Q973 362 943 362Q917 362 900.5 379.5Q884 397 878 420L726 988Q724 993 724.0 997.0Q724 1001 724 1006Q724 1035 744.0 1055.0Q764 1075 793 1075Q816 1075 835.0 1061.0Q854 1047 860 1024L947 702L1033 1024Q1037 1038 1046.0 1050.0Q1055 1062 1069 1068H1070Q1078 1073 1086.5 1074.5Q1095 1076 1104 1076Q1109 1076 1117.5 1073.5Q1126 1071 1131 1068H1132Q1146 1062 1155.0 1050.0Q1164 1038 1168 1024L1254 702L1341 1024Q1347 1047 1366.0 1061.0Q1385 1075 1408 1075Z" style="fill:#ffffff;stroke:none" transform="scale(1,-1) translate(0,-256)" /></svg>