<?xml version="1.0" encoding="utf-8" ?>
<svg baseProfile="full" height="256" version="1.1" width="256" xmlns="http://www.w3.org/2000/svg" xmlns:ev="http://www.w3.org/2001/xml-events" xmlns:xlink="http://www.w3.org/1999/xlink"><defs /><path d="M1546 378Q1575 378 1595.5 358.0Q1616 338 1616 309Q1616 272 1584 251L1383 119Q1254 33 1185 -104L1115 -242Q1103 -266 1080.0 -280.0Q1057 -294 1030 -294Q1007 -294 988 -284L789 -183Q765 -171 751.0 -148.5Q737 -126 737 -99Q737 -76 747 -57L817 82Q878 204 878 340Q878 411 870.5 480.5Q863 550 863 620Q863 649 885.0 668.0Q907 687 935 687Q962 687 981.0 667.5Q1000 648 1002 622L1027 196L1181 502Q1190 520 1207.0 530.0Q1224 540 1244 540Q1273 540 1293.0 520.0Q1313 500 1313 471Q1313 454 1305 438L1152 134L1508 367Q1525 378 1546 378Z" style="fill:#00d26a;stroke:none" transform="scale(1,-1) translate(0,-256)" /></svg>