<?xml version="1.0" encoding="utf-8" ?>
<svg baseProfile="full" height="256" version="1.1" width="256" xmlns="http://www.w3.org/2000/svg" xmlns:ev="http://www.w3.org/2001/xml-events" xmlns:xlink="http://www.w3.org/1999/xlink"><defs /><path d="M1478 1438Q1478 1467 1499.5 1488.5Q1521 1510 1550 1510H1837Q1866 1510 1887.5 1488.5Q1909 1467 1909 1438Q1909 1407 1894.5 1392.0Q1880 1377 1858.0 1371.0Q1836 1365 1811.0 1365.5Q1786 1366 1765 1366V1294H2053Q2083 1294 2104.0 1273.0Q2125 1252 2125 1222V1078Q2125 1049 2103.5 1027.5Q2082 1006 2053 1006H1478V1004Q1446 998 1420.0 981.5Q1394 965 1374.5 941.5Q1355 918 1344.5 889.0Q1334 860 1334 828Q1334 813 1323.5 802.5Q1313 792 1298 792H1083Q1068 792 1057.5 802.5Q1047 813 1047 828Q1047 903 1070.0 973.0Q1093 1043 1135.0 1101.5Q1177 1160 1235.5 1204.0Q1294 1248 1366 1272Q1392 1280 1421.5 1286.5Q1451 1293 1478 1294Q1514 1295 1550.0 1294.5Q1586 1294 1622 1294V1366Q1601 1366 1576.0 1365.5Q1551 1365 1529.0 1371.0Q1507 1377 1492.5 1392.0Q1478 1407 1478 1438ZM1027 0H1351Q1374 0 1393.0 14.0Q1412 28 1419 51Q1423 63 1432.5 94.0Q1442 125 1455.5 168.5Q1469 212 1485.0 263.5Q1501 315 1517.0 367.5Q1533 420 1548.0 470.0Q1563 520 1574.5 560.0Q1586 600 1593.0 626.5Q1600 653 1600 658Q1600 684 1582.5 701.5Q1565 719 1539 719Q1519 719 1503.0 707.5Q1487 696 1481 677L1412 455Q1409 444 1399.0 437.0Q1389 430 1378 430H1001Q989 430 979.5 437.5Q970 445 966 456L900 675Q894 695 877.5 707.0Q861 719 841 719Q815 719 797.0 701.0Q779 683 779 658Q779 651 791.0 607.5Q803 564 821.0 502.0Q839 440 861.0 367.5Q883 295 903.0 230.0Q923 165 938.0 116.0Q953 67 958 51Q965 29 984.5 14.5Q1004 0 1027 0Z" style="fill:#ffffff;stroke:none" transform="scale(1,-1) translate(0,-256)" /></svg>