<?xml version="1.0" encoding="utf-8" ?>
<svg baseProfile="full" height="256" version="1.1" width="256" xmlns="http://www.w3.org/2000/svg" xmlns:ev="http://www.w3.org/2001/xml-events" xmlns:xlink="http://www.w3.org/1999/xlink"><defs /><path d="M769 701Q769 731 789 751L1157 1133Q1177 1155 1208 1155Q1238 1155 1259.0 1134.0Q1280 1113 1280 1083V863Q1280 855 1285.0 850.0Q1290 845 1298 845H1999Q2029 845 2050.0 824.0Q2071 803 2071 773V629Q2071 599 2050.0 578.0Q2029 557 1999 557H1298Q1290 557 1285.0 552.0Q1280 547 1280 539V319Q1280 289 1259.0 268.0Q1238 247 1208 247Q1177 247 1157 269L789 651Q769 671 769 701Z" style="fill:#ffffff;stroke:none" transform="scale(1,-1) translate(0,-256)" /></svg>