<?xml version="1.0" encoding="utf-8" ?>
<svg baseProfile="full" height="256" version="1.1" width="256" xmlns="http://www.w3.org/2000/svg" xmlns:ev="http://www.w3.org/2001/xml-events" xmlns:xlink="http://www.w3.org/1999/xlink"><defs /><path d="M757 1397Q725 1416 706.0 1447.5Q687 1479 687 1517Q687 1545 698.0 1570.0Q709 1595 727.5 1614.0Q746 1633 771.0 1643.5Q796 1654 825 1654Q833 1654 840.5 1653.0Q848 1652 856 1650L1721 1447L1350 1061ZM2340 187Q2342 179 2343.0 172.0Q2344 165 2344 157Q2344 128 2333.0 103.5Q2322 79 2303.5 60.5Q2285 42 2260.0 31.5Q2235 21 2207 21Q2168 21 2136.5 40.5Q2105 60 2086 94L1766 685L2156 1055ZM897 287Q929 287 952.0 264.5Q975 242 975 210Q975 178 951 154L748 -49Q737 -60 722.5 -65.5Q708 -71 693 -71Q677 -71 663.0 -65.0Q649 -59 638.5 -48.5Q628 -38 622.0 -23.5Q616 -9 616 7Q616 39 639 62L842 265Q864 287 897 287Z" style="fill:#0084ce;stroke:none" transform="scale(1,-1) translate(0,-256)" /></svg>