<?xml version="1.0" encoding="utf-8" ?>
<svg baseProfile="full" height="256" version="1.1" width="256" xmlns="http://www.w3.org/2000/svg" xmlns:ev="http://www.w3.org/2001/xml-events" xmlns:xlink="http://www.w3.org/1999/xlink"><defs /><path d="M1271 -206Q1273 -216 1273 -222Q1273 -246 1255.5 -266.5Q1238 -287 1213 -287Q1193 -287 1177.5 -275.5Q1162 -264 1149 -251L434 474Q421 487 410.5 504.0Q400 521 400 541Q400 565 419.5 581.0Q439 597 462 597Q469 597 499.0 590.5Q529 584 570.5 573.5Q612 563 660.0 550.5Q708 538 751.5 526.5Q795 515 828.5 506.0Q862 497 875 494Q924 578 979.5 650.5Q1035 723 1094.5 791.0Q1154 859 1218.0 925.0Q1282 991 1350 1061L1425 1321L1719 1445L1901 1634Q1943 1678 1999.0 1701.5Q2055 1725 2116 1725Q2177 1725 2231.0 1701.5Q2285 1678 2325.5 1637.5Q2366 1597 2389.0 1542.5Q2412 1488 2412 1427Q2412 1365 2388.0 1308.5Q2364 1252 2319 1210Q2314 1205 2300.5 1193.0Q2287 1181 2269.5 1164.5Q2252 1148 2232.5 1130.0Q2213 1112 2196.5 1096.0Q2180 1080 2168.0 1068.5Q2156 1057 2154 1054Q2146 1043 2140.0 1033.0Q2134 1023 2129.5 1013.0Q2125 1003 2120.0 992.0Q2115 981 2108 969L2015 798Q2008 795 1988.0 786.0Q1968 777 1941.5 765.5Q1915 754 1885.5 740.5Q1856 727 1830.5 715.5Q1805 704 1787.5 696.0Q1770 688 1767 686Q1740 667 1724.5 649.0Q1709 631 1685 608L1521 452Q1442 377 1355.0 312.5Q1268 248 1174 193Z" style="fill:#cdc4d6;stroke:none" transform="scale(1,-1) translate(0,-256)" /></svg>