<?xml version="1.0" encoding="utf-8" ?>
<svg baseProfile="full" height="256" version="1.1" width="256" xmlns="http://www.w3.org/2000/svg" xmlns:ev="http://www.w3.org/2001/xml-events" xmlns:xlink="http://www.w3.org/1999/xlink"><defs /><path d="M1264 1554 1340 1630Q1363 1653 1397 1653Q1431 1653 1454.5 1629.5Q1478 1606 1478 1572Q1478 1536 1450 1510L1334 1474ZM2267 531 2197 611 2228 713Q2243 719 2259 719Q2293 719 2316.5 695.5Q2340 672 2340 638Q2340 620 2333.0 605.5Q2326 591 2315.0 578.0Q2304 565 2291.5 554.0Q2279 543 2267 531Z" style="fill:#9b9b9b;stroke:none" transform="scale(1,-1) translate(0,-256)" /></svg>