<?xml version="1.0" encoding="utf-8" ?>
<svg baseProfile="full" height="256" version="1.1" width="256" xmlns="http://www.w3.org/2000/svg" xmlns:ev="http://www.w3.org/2001/xml-events" xmlns:xlink="http://www.w3.org/1999/xlink"><defs /><path d="M1406 1Q1297 1 1196.0 29.0Q1095 57 1007.0 108.5Q919 160 847.0 232.5Q775 305 723.5 392.5Q672 480 643.5 581.0Q615 682 615 791Q615 900 643.0 1001.0Q671 1102 722.5 1190.0Q774 1278 846.5 1350.5Q919 1423 1007.0 1474.5Q1095 1526 1196.0 1554.0Q1297 1582 1406 1582Q1515 1582 1616.0 1554.0Q1717 1526 1805.0 1474.5Q1893 1423 1965.5 1350.5Q2038 1278 2089.5 1190.0Q2141 1102 2169.0 1001.0Q2197 900 2197 791Q2197 682 2168.5 581.0Q2140 480 2088.5 392.5Q2037 305 1965.0 232.5Q1893 160 1805.0 108.5Q1717 57 1616.0 29.0Q1515 1 1406 1Z" style="fill:#636363;stroke:none" transform="scale(1,-1) translate(0,-256)" /></svg>