<?xml version="1.0" encoding="utf-8" ?>
<svg baseProfile="full" height="256" version="1.1" width="256" xmlns="http://www.w3.org/2000/svg" xmlns:ev="http://www.w3.org/2001/xml-events" xmlns:xlink="http://www.w3.org/1999/xlink"><defs /><path d="M2053 791Q2053 702 2030.0 619.0Q2007 536 1964.5 464.5Q1922 393 1863.0 334.0Q1804 275 1732.5 232.5Q1661 190 1578.0 167.0Q1495 144 1406 144Q1317 144 1234.0 167.0Q1151 190 1079.5 232.5Q1008 275 949.0 334.0Q890 393 847.5 464.5Q805 536 782.0 619.0Q759 702 759 791Q759 880 782.0 963.0Q805 1046 847.5 1117.5Q890 1189 949.0 1248.0Q1008 1307 1079.5 1349.5Q1151 1392 1234.0 1415.0Q1317 1438 1406 1438Q1495 1438 1578.0 1415.0Q1661 1392 1732.5 1349.5Q1804 1307 1863.0 1248.0Q1922 1189 1964.5 1117.5Q2007 1046 2030.0 963.0Q2053 880 2053 791ZM1122 1147Q1122 1176 1101.0 1197.0Q1080 1218 1051 1218Q1021 1218 999.5 1197.0Q978 1176 978 1146Q978 1117 999.5 1096.0Q1021 1075 1050 1075Q1080 1075 1101.0 1096.0Q1122 1117 1122 1147ZM1834 1146Q1834 1175 1812.5 1196.5Q1791 1218 1762 1218Q1732 1218 1711.0 1197.0Q1690 1176 1690 1146Q1690 1117 1711.5 1095.5Q1733 1074 1762 1074Q1791 1074 1812.5 1095.5Q1834 1117 1834 1146ZM1478 288Q1478 318 1457.0 339.0Q1436 360 1406 360Q1376 360 1355.0 339.0Q1334 318 1334 288Q1334 258 1355.0 237.0Q1376 216 1406 216Q1436 216 1457.0 237.0Q1478 258 1478 288ZM1050 364Q1079 364 1100.5 385.0Q1122 406 1122 435Q1122 465 1101.0 486.0Q1080 507 1050 507Q1020 507 999.0 486.0Q978 465 978 435Q978 406 999.5 385.0Q1021 364 1050 364ZM1981 791Q1981 821 1960.0 842.0Q1939 863 1909 863Q1879 863 1858.0 842.0Q1837 821 1837 791Q1837 762 1858.5 740.5Q1880 719 1909 719Q1938 719 1959.5 740.5Q1981 762 1981 791ZM974 791Q974 821 953.0 842.0Q932 863 902 863Q873 863 851.5 841.5Q830 820 830 791Q830 762 851.5 740.5Q873 719 902 719Q932 719 953.0 740.0Q974 761 974 791ZM1833 436Q1833 465 1811.5 486.0Q1790 507 1761 507Q1731 507 1710.0 486.0Q1689 465 1689 435Q1689 406 1710.5 384.5Q1732 363 1761 363Q1791 363 1812.0 384.5Q1833 406 1833 436Z" style="fill:#d3d3d3;stroke:none" transform="scale(1,-1) translate(0,-256)" /></svg>