<?xml version="1.0" encoding="utf-8" ?>
<svg baseProfile="full" height="256" version="1.1" width="256" xmlns="http://www.w3.org/2000/svg" xmlns:ev="http://www.w3.org/2001/xml-events" xmlns:xlink="http://www.w3.org/1999/xlink"><defs /><path d="M472 764Q472 893 504.5 1015.0Q537 1137 597.0 1243.5Q657 1350 741.5 1438.5Q826 1527 930.0 1591.0Q1034 1655 1154.0 1690.0Q1274 1725 1406 1725Q1535 1725 1654.5 1691.5Q1774 1658 1877.5 1597.5Q1981 1537 2066.5 1451.5Q2152 1366 2212.5 1262.5Q2273 1159 2306.5 1039.5Q2340 920 2340 791V-63Q2340 -110 2322.5 -150.5Q2305 -191 2274.5 -221.5Q2244 -252 2203.0 -269.5Q2162 -287 2116 -287H696Q649 -287 608.5 -269.5Q568 -252 537.5 -221.5Q507 -191 489.5 -150.5Q472 -110 472 -63V764Z" style="fill:#00a6ed;stroke:none" transform="scale(1,-1) translate(0,-256)" /></svg>