<?xml version="1.0" encoding="utf-8" ?>
<svg baseProfile="full" height="256" version="1.1" width="256" xmlns="http://www.w3.org/2000/svg" xmlns:ev="http://www.w3.org/2001/xml-events" xmlns:xlink="http://www.w3.org/1999/xlink"><defs /><path d="M472 72H400V261Q400 311 417 360H472Q501 360 522.0 338.5Q543 317 543 288V144Q543 115 522.0 93.5Q501 72 472 72ZM2376 288Q2354 288 2334.5 279.5Q2315 271 2300.0 256.0Q2285 241 2276.5 221.5Q2268 202 2268 180Q2268 158 2276.5 138.5Q2285 119 2300.0 104.0Q2315 89 2334.5 80.5Q2354 72 2376 72H2412V288Z" style="fill:#ff822d;stroke:none" transform="scale(1,-1) translate(0,-256)" /></svg>