<?xml version="1.0" encoding="utf-8" ?>
<svg baseProfile="full" height="256" version="1.1" width="256" xmlns="http://www.w3.org/2000/svg" xmlns:ev="http://www.w3.org/2001/xml-events" xmlns:xlink="http://www.w3.org/1999/xlink"><defs /><path d="M1837 1006Q1868 1006 1883.0 991.5Q1898 977 1904.0 955.5Q1910 934 1909.5 909.0Q1909 884 1909 863Q1930 863 1955.0 863.5Q1980 864 2002.0 858.0Q2024 852 2038.5 837.0Q2053 822 2053 791Q2053 760 2038.5 745.0Q2024 730 2002.0 724.0Q1980 718 1955.0 718.5Q1930 719 1909 719Q1909 698 1909.5 673.0Q1910 648 1904.0 626.0Q1898 604 1883.0 589.5Q1868 575 1837 575Q1806 575 1791.0 589.5Q1776 604 1770.0 626.0Q1764 648 1764.5 673.0Q1765 698 1765 719Q1744 719 1719.0 718.5Q1694 718 1672.5 724.0Q1651 730 1636.5 745.0Q1622 760 1622 791Q1622 822 1636.5 837.0Q1651 852 1672.5 858.0Q1694 864 1719.0 863.5Q1744 863 1765 863Q1765 884 1764.5 909.0Q1764 934 1770.0 955.5Q1776 977 1791.0 991.5Q1806 1006 1837 1006Z" style="fill:#f4f4f4;stroke:none" transform="scale(1,-1) translate(0,-256)" /></svg>