<?xml version="1.0" encoding="utf-8" ?>
<svg baseProfile="full" height="256" version="1.1" width="256" xmlns="http://www.w3.org/2000/svg" xmlns:ev="http://www.w3.org/2001/xml-events" xmlns:xlink="http://www.w3.org/1999/xlink"><defs /><path d="M1262 1006Q1279 989 1288.0 952.5Q1297 916 1300.5 874.5Q1304 833 1304.5 793.5Q1305 754 1305 732Q1305 530 1295.0 330.0Q1285 130 1285 -72H543Q513 -72 487.0 -60.5Q461 -49 441.5 -29.5Q422 -10 411.0 16.0Q400 42 400 72V261Q400 309 415.5 354.0Q431 399 460 437L860 951Q880 977 910.0 991.5Q940 1006 973 1006H1262Z" style="fill:#e6e6e6;stroke:none" transform="scale(1,-1) translate(0,-256)" /></svg>