<?xml version="1.0" encoding="utf-8" ?>
<svg baseProfile="full" height="256" version="1.1" width="256" xmlns="http://www.w3.org/2000/svg" xmlns:ev="http://www.w3.org/2001/xml-events" xmlns:xlink="http://www.w3.org/1999/xlink"><defs /><path d="M2212 -289H936Q914 -289 881.5 -280.0Q849 -271 818.5 -255.0Q788 -239 766.0 -217.0Q744 -195 744 -169V666L1275 757Q1314 764 1345.5 772.0Q1377 780 1407.5 787.0Q1438 794 1470.0 798.5Q1502 803 1541 803Q1580 803 1611.5 798.5Q1643 794 1673.0 787.0Q1703 780 1734.5 772.0Q1766 764 1805 757L2332 666V-169Q2332 -194 2322.5 -215.5Q2313 -237 2296.5 -253.5Q2280 -270 2258.5 -279.5Q2237 -289 2212 -289Z" style="fill:#6b438b;stroke:none" transform="scale(1,-1) translate(0,-256)" /></svg>