<?xml version="1.0" encoding="utf-8" ?>
<svg baseProfile="full" height="256" version="1.1" width="256" xmlns="http://www.w3.org/2000/svg" xmlns:ev="http://www.w3.org/2001/xml-events" xmlns:xlink="http://www.w3.org/1999/xlink"><defs /><path d="M2172 1429 1905 1645 2208 1725 2279 1457 2172 1429ZM813 1068 703 1167 743 1336 849 1365 1116 1149 813 1068ZM1582 1559 1173 1451 1439 1234 1849 1343 1582 1559ZM2332 666V943H2221L2019 666H2332ZM1129 943 927 666H744V943H1129ZM1887 943H1463L1261 666H1685L1887 943Z" style="fill:#635994;stroke:none" transform="scale(1,-1) translate(0,-256)" /></svg>