<?xml version="1.0" encoding="utf-8" ?>
<svg baseProfile="full" height="256" version="1.1" width="256" xmlns="http://www.w3.org/2000/svg" xmlns:ev="http://www.w3.org/2001/xml-events" xmlns:xlink="http://www.w3.org/1999/xlink"><defs /><path d="M1116 1149 954 1222 849 1365Q855 1366 881.0 1373.0Q907 1380 943.0 1390.0Q979 1400 1019.5 1410.5Q1060 1421 1094.0 1430.0Q1128 1439 1150.5 1445.0Q1173 1451 1174 1451Q1240 1451 1305.5 1449.5Q1371 1448 1437 1446L1581 1559L1905 1645L2093 1566L2172 1429L2064 1400L1847 1343Q1834 1341 1823.5 1341.0Q1813 1341 1803.0 1341.5Q1793 1342 1782.0 1342.5Q1771 1343 1758 1343H1579L1441 1235ZM2019 666 2196 808 2221 943H1885Q1885 943 1865.5 936.0Q1846 929 1817.0 919.0Q1788 909 1754.0 897.0Q1720 885 1689.5 874.0Q1659 863 1637.0 855.0Q1615 847 1610 846L1464 943H1129L947 808L927 666H1266Q1266 666 1285.5 671.5Q1305 677 1334.0 686.0Q1363 695 1397.5 705.0Q1432 715 1462.5 724.5Q1493 734 1515.0 740.5Q1537 747 1542 748L1682 666Z" style="fill:#a4aeeb;stroke:none" transform="scale(1,-1) translate(0,-256)" /></svg>