<?xml version="1.0" encoding="utf-8" ?>
<svg baseProfile="full" height="256" version="1.1" width="256" xmlns="http://www.w3.org/2000/svg" xmlns:ev="http://www.w3.org/2001/xml-events" xmlns:xlink="http://www.w3.org/1999/xlink"><defs /><path d="M1515 950Q1496 950 1482.0 964.0Q1468 978 1468 997Q1468 1017 1482.0 1031.0Q1496 1045 1515 1045Q1535 1045 1548.5 1031.0Q1562 1017 1562 997Q1562 977 1548.5 963.5Q1535 950 1515 950ZM1607 372Q1587 372 1573.0 386.0Q1559 400 1559 420Q1559 440 1573.0 453.5Q1587 467 1607 467Q1626 467 1640.0 453.0Q1654 439 1654 420Q1654 400 1640.5 386.0Q1627 372 1607 372ZM1039 575Q1019 575 1005.0 589.0Q991 603 991 623Q991 643 1005.0 656.5Q1019 670 1039 670Q1059 670 1072.5 656.5Q1086 643 1086 623Q1086 603 1072.5 589.0Q1059 575 1039 575Z" style="fill:#f8312f;stroke:none" transform="scale(1,-1) translate(0,-256)" /></svg>