<?xml version="1.0" encoding="utf-8" ?>
<svg baseProfile="full" height="256" version="1.1" width="256" xmlns="http://www.w3.org/2000/svg" xmlns:ev="http://www.w3.org/2001/xml-events" xmlns:xlink="http://www.w3.org/1999/xlink"><defs /><path d="M1406 224Q1374 224 1343.0 217.0Q1312 210 1280 210Q1270 210 1260.5 211.0Q1251 212 1242 215Q1223 221 1206.5 233.5Q1190 246 1175.0 261.0Q1160 276 1145.0 291.0Q1130 306 1114 318Q1098 330 1079.0 339.0Q1060 348 1041.5 358.0Q1023 368 1006.0 379.5Q989 391 977 407Q965 423 959.5 442.5Q954 462 950.0 483.0Q946 504 943.0 525.0Q940 546 934 565Q928 584 918.0 602.5Q908 621 898.5 640.0Q889 659 882.5 678.5Q876 698 876 719Q876 740 882.5 759.5Q889 779 898.5 798.0Q908 817 918.0 835.0Q928 853 934 873Q940 892 943.0 913.0Q946 934 949.5 955.0Q953 976 959.0 995.5Q965 1015 977 1031Q989 1047 1006.0 1058.5Q1023 1070 1041.5 1080.0Q1060 1090 1079.0 1099.0Q1098 1108 1114 1120Q1130 1131 1145.0 1146.5Q1160 1162 1175.0 1177.0Q1190 1192 1206.5 1204.5Q1223 1217 1242 1223Q1251 1226 1260.5 1227.0Q1270 1228 1279 1228Q1311 1228 1342.5 1221.0Q1374 1214 1406 1214Q1438 1214 1469.0 1221.0Q1500 1228 1532 1228Q1542 1228 1551.5 1227.0Q1561 1226 1570 1223Q1589 1217 1605.5 1204.5Q1622 1192 1637.0 1177.0Q1652 1162 1667.0 1147.0Q1682 1132 1698 1120Q1714 1108 1733.0 1099.0Q1752 1090 1770.5 1080.0Q1789 1070 1806.0 1058.5Q1823 1047 1835 1031Q1847 1015 1852.5 995.5Q1858 976 1862.0 955.0Q1866 934 1869.0 913.0Q1872 892 1878 873Q1884 854 1894.0 835.5Q1904 817 1913.5 798.0Q1923 779 1929.5 759.5Q1936 740 1936 719Q1936 698 1929.5 678.5Q1923 659 1913.5 640.0Q1904 621 1894.0 602.5Q1884 584 1878 565Q1872 546 1869.0 525.0Q1866 504 1862.5 483.0Q1859 462 1853.0 442.5Q1847 423 1835 407Q1823 391 1806.0 379.5Q1789 368 1770.5 358.0Q1752 348 1733.0 339.0Q1714 330 1698 318Q1682 306 1667.0 291.0Q1652 276 1637.0 261.0Q1622 246 1605.5 233.5Q1589 221 1570 215Q1561 212 1551.5 211.0Q1542 210 1532 210Q1500 210 1469.0 217.0Q1438 224 1406 224Z" style="fill:#fcd53f;stroke:none" transform="scale(1,-1) translate(0,-256)" /></svg>