<?xml version="1.0" encoding="utf-8" ?>
<svg baseProfile="full" height="256" version="1.1" width="256" xmlns="http://www.w3.org/2000/svg" xmlns:ev="http://www.w3.org/2001/xml-events" xmlns:xlink="http://www.w3.org/1999/xlink"><defs /><path d="M1406 -95Q1294 -95 1190.0 -66.0Q1086 -37 995.5 16.0Q905 69 830.5 143.5Q756 218 703.0 308.5Q650 399 621.0 503.0Q592 607 592 719Q592 831 621.0 935.0Q650 1039 703.0 1129.5Q756 1220 830.5 1294.0Q905 1368 995.5 1421.0Q1086 1474 1190.0 1503.0Q1294 1532 1406 1532Q1518 1532 1622.0 1503.0Q1726 1474 1816.5 1421.0Q1907 1368 1981.0 1294.0Q2055 1220 2108.0 1129.5Q2161 1039 2190.0 935.0Q2219 831 2219 719Q2219 607 2190.0 503.0Q2161 399 2108.0 308.5Q2055 218 1981.0 143.5Q1907 69 1816.5 16.0Q1726 -37 1622.0 -66.0Q1518 -95 1406 -95ZM2022 719Q2022 846 1973.5 958.0Q1925 1070 1841.0 1154.0Q1757 1238 1645.0 1286.5Q1533 1335 1406 1335Q1321 1335 1242.5 1313.0Q1164 1291 1095.5 1251.0Q1027 1211 970.5 1154.5Q914 1098 874.0 1029.5Q834 961 812.0 882.5Q790 804 790 719Q790 591 838.5 479.0Q887 367 970.5 283.5Q1054 200 1166.0 151.5Q1278 103 1406 103Q1491 103 1569.5 125.0Q1648 147 1716.5 187.0Q1785 227 1841.5 283.5Q1898 340 1938.0 408.5Q1978 477 2000.0 555.5Q2022 634 2022 719Z" style="fill:#635994;stroke:none" transform="scale(1,-1) translate(0,-256)" /></svg>