<?xml version="1.0" encoding="utf-8" ?>
<svg baseProfile="full" height="256" version="1.1" width="256" xmlns="http://www.w3.org/2000/svg" xmlns:ev="http://www.w3.org/2001/xml-events" xmlns:xlink="http://www.w3.org/1999/xlink"><defs /><path d="M1122 1386Q1259 1444 1406 1444Q1556 1444 1688.0 1387.0Q1820 1330 1918.5 1231.5Q2017 1133 2074.0 1001.0Q2131 869 2131 719Q2131 572 2073 435Q2111 397 2148.0 360.5Q2185 324 2222 286Q2287 221 2287 130Q2287 39 2222 -26Q2193 -55 2163.5 -85.0Q2134 -115 2105 -144Q2074 -175 2033.5 -191.5Q1993 -208 1949 -208Q1905 -208 1864.0 -191.5Q1823 -175 1792 -144Q1749 -101 1707.0 -58.5Q1665 -16 1622 27Q1569 10 1515.5 2.5Q1462 -5 1407 -5Q1307 -5 1214.0 21.0Q1121 47 1040.5 94.0Q960 141 894.0 207.0Q828 273 781.0 353.5Q734 434 708.0 527.0Q682 620 682 720Q682 775 689.5 828.5Q697 882 714 935Q671 978 628.5 1020.0Q586 1062 543 1105Q512 1136 495.5 1177.0Q479 1218 479 1262Q479 1306 495.5 1346.5Q512 1387 543 1418Q572 1447 602.0 1476.5Q632 1506 661 1535Q726 1600 817 1600Q908 1600 973 1535Q1011 1498 1047.5 1461.0Q1084 1424 1122 1386ZM867 1428Q846 1449 817 1449Q788 1449 767 1428L650 1311Q629 1290 629 1262Q629 1233 650 1212L779 1083Q817 1149 870.0 1207.0Q923 1265 986 1309ZM1996 299Q1952 236 1894.0 183.0Q1836 130 1770 92L1899 -37Q1920 -58 1948 -58Q1977 -58 1998 -37L2115 80Q2136 101 2136 130Q2136 159 2115 180Z" style="fill:#533566;stroke:none" transform="scale(1,-1) translate(0,-256)" /></svg>