<?xml version="1.0" encoding="utf-8" ?>
<svg baseProfile="full" height="256" version="1.1" width="256" xmlns="http://www.w3.org/2000/svg" xmlns:ev="http://www.w3.org/2001/xml-events" xmlns:xlink="http://www.w3.org/1999/xlink"><defs /><path d="M1355 973Q1355 958 1345.5 946.5Q1336 935 1322 930Q1310 926 1284.5 917.5Q1259 909 1231.0 900.5Q1203 892 1179.0 885.5Q1155 879 1145 879Q1126 879 1113.0 892.5Q1100 906 1100 925Q1100 939 1109.0 950.5Q1118 962 1132 967Q1144 971 1169.5 979.5Q1195 988 1223.0 997.0Q1251 1006 1275.5 1012.5Q1300 1019 1309 1019Q1328 1019 1341.5 1005.5Q1355 992 1355 973ZM1686 786Q1686 773 1682.5 749.5Q1679 726 1674.5 699.5Q1670 673 1665.0 648.5Q1660 624 1658 609Q1656 592 1643.0 581.0Q1630 570 1613 570Q1594 570 1581.0 583.0Q1568 596 1568 615Q1568 628 1571.5 652.0Q1575 676 1579.5 702.5Q1584 729 1589.0 753.5Q1594 778 1596 793Q1598 810 1611.0 820.5Q1624 831 1641 831Q1660 831 1673.0 818.0Q1686 805 1686 786ZM1368 384Q1387 384 1400.0 397.5Q1413 411 1413 430Q1413 449 1400 462L1277 583Q1264 596 1245 596Q1227 596 1213.5 583.0Q1200 570 1200 551Q1200 531 1214 519L1336 398Q1343 392 1351.0 388.0Q1359 384 1368 384Z" style="fill:#44911b;stroke:none" transform="scale(1,-1) translate(0,-256)" /></svg>