<?xml version="1.0" encoding="utf-8" ?>
<svg baseProfile="full" height="256" version="1.1" width="256" xmlns="http://www.w3.org/2000/svg" xmlns:ev="http://www.w3.org/2001/xml-events" xmlns:xlink="http://www.w3.org/1999/xlink"><defs /><path d="M2296 719Q2296 596 2264.0 482.0Q2232 368 2174.5 269.5Q2117 171 2035.5 89.5Q1954 8 1855.5 -49.5Q1757 -107 1643.0 -139.0Q1529 -171 1406 -171Q1283 -171 1169.0 -139.0Q1055 -107 956.5 -49.5Q858 8 776.5 89.5Q695 171 637.5 269.5Q580 368 548.0 482.0Q516 596 516 719Q516 842 548.0 956.0Q580 1070 637.5 1168.5Q695 1267 776.5 1348.5Q858 1430 956.5 1487.5Q1055 1545 1169.0 1577.0Q1283 1609 1406 1609Q1529 1609 1643.0 1577.0Q1757 1545 1855.5 1487.5Q1954 1430 2035.5 1348.5Q2117 1267 2174.5 1168.5Q2232 1070 2264.0 956.0Q2296 842 2296 719Z" style="fill:#e6e6e6;stroke:none" transform="scale(1,-1) translate(0,-256)" /></svg>