<?xml version="1.0" encoding="utf-8" ?>
<svg baseProfile="full" height="256" version="1.1" width="256" xmlns="http://www.w3.org/2000/svg" xmlns:ev="http://www.w3.org/2001/xml-events" xmlns:xlink="http://www.w3.org/1999/xlink"><defs /><path d="M1184 387Q1184 381 1179.0 377.0Q1174 373 1169 373Q1164 373 1159.5 377.5Q1155 382 1155 387Q1155 393 1159.0 397.5Q1163 402 1169 402Q1175 402 1179.5 397.5Q1184 393 1184 387ZM1585 387Q1585 382 1580.5 377.5Q1576 373 1571 373Q1566 373 1561.5 377.5Q1557 382 1557 387Q1557 393 1561.0 397.5Q1565 402 1571 402Q1577 402 1581.0 397.5Q1585 393 1585 387Z" style="fill:#ffffff;stroke:none" transform="scale(1,-1) translate(0,-256)" /></svg>