<?xml version="1.0" encoding="utf-8" ?>
<svg baseProfile="full" height="256" version="1.1" width="256" xmlns="http://www.w3.org/2000/svg" xmlns:ev="http://www.w3.org/2001/xml-events" xmlns:xlink="http://www.w3.org/1999/xlink"><defs /><path d="M1084 521Q1073 521 1065.5 528.5Q1058 536 1058 547Q1058 563 1077.5 574.5Q1097 586 1123.0 594.0Q1149 602 1173.5 606.0Q1198 610 1209 610Q1216 610 1225.0 609.5Q1234 609 1242.0 606.5Q1250 604 1255.5 598.5Q1261 593 1261 583Q1261 572 1254.0 565.0Q1247 558 1236 558Q1230 558 1223.5 558.5Q1217 559 1210 559Q1186 559 1165.0 553.0Q1144 547 1127.5 540.0Q1111 533 1100.0 527.0Q1089 521 1084 521ZM1710 521Q1705 521 1694.0 527.0Q1683 533 1666.5 540.0Q1650 547 1629.0 553.0Q1608 559 1584 559Q1576 559 1567.5 558.5Q1559 558 1551.0 559.5Q1543 561 1538.0 566.0Q1533 571 1533 583Q1533 593 1538.5 599.0Q1544 605 1552.0 607.0Q1560 609 1569.0 609.5Q1578 610 1585 610Q1595 610 1620.0 606.0Q1645 602 1670.5 594.0Q1696 586 1715.5 574.0Q1735 562 1735 546Q1735 536 1728.0 528.5Q1721 521 1710 521Z" style="fill:#d37034;stroke:none" transform="scale(1,-1) translate(0,-256)" /></svg>