<?xml version="1.0" encoding="utf-8" ?>
<svg baseProfile="full" height="256" version="1.1" width="256" xmlns="http://www.w3.org/2000/svg" xmlns:ev="http://www.w3.org/2001/xml-events" xmlns:xlink="http://www.w3.org/1999/xlink"><defs /><path d="M1015 -35Q1040 -35 1064 -46L1329 -172Q1344 -179 1352.5 -194.0Q1361 -209 1361 -225Q1361 -248 1345.5 -266.5Q1330 -285 1306 -285H898V-159Q898 -135 906.5 -112.5Q915 -90 931.0 -72.5Q947 -55 968.0 -45.0Q989 -35 1015 -35ZM1779 -35Q1804 -35 1825.5 -45.0Q1847 -55 1863.0 -72.5Q1879 -90 1887.5 -112.5Q1896 -135 1896 -159V-285H1487Q1463 -285 1447.5 -266.5Q1432 -248 1432 -225Q1432 -209 1441.5 -194.0Q1451 -179 1465 -172L1729 -46Q1753 -35 1779 -35Z" style="fill:#ffc83d;stroke:none" transform="scale(1,-1) translate(0,-256)" /></svg>