<?xml version="1.0" encoding="utf-8" ?>
<svg baseProfile="full" height="256" version="1.1" width="256" xmlns="http://www.w3.org/2000/svg" xmlns:ev="http://www.w3.org/2001/xml-events" xmlns:xlink="http://www.w3.org/1999/xlink"><defs /><path d="M626 143Q647 143 666.5 139.0Q686 135 706 129L1038 29Q1069 20 1095.5 4.5Q1122 -11 1141.5 -32.5Q1161 -54 1172.0 -82.0Q1183 -110 1183 -144Q1183 -158 1165.0 -172.0Q1147 -186 1119.5 -199.0Q1092 -212 1058.0 -223.5Q1024 -235 992.5 -246.0Q961 -257 935.5 -267.0Q910 -277 898 -285H625Q580 -285 539.5 -269.0Q499 -253 467.5 -224.5Q436 -196 417.5 -156.5Q399 -117 399 -71Q399 -25 417.5 14.5Q436 54 467.5 82.5Q499 111 540.0 127.0Q581 143 626 143ZM2168 143Q2213 143 2254.0 127.0Q2295 111 2326.5 82.5Q2358 54 2376.5 14.5Q2395 -25 2395 -71Q2395 -117 2376.5 -156.5Q2358 -196 2326.5 -224.5Q2295 -253 2254.0 -269.0Q2213 -285 2168 -285H1896Q1884 -277 1858.5 -267.0Q1833 -257 1801.5 -246.0Q1770 -235 1736.0 -223.5Q1702 -212 1674.5 -199.0Q1647 -186 1629.0 -172.0Q1611 -158 1611 -144Q1611 -110 1622.0 -82.0Q1633 -54 1652.5 -32.5Q1672 -11 1698.0 4.5Q1724 20 1755 29L2088 129Q2108 135 2127.5 139.0Q2147 143 2168 143Z" style="fill:#ff8101;stroke:none" transform="scale(1,-1) translate(0,-256)" /></svg>