<?xml version="1.0" encoding="utf-8" ?>
<svg baseProfile="full" height="256" version="1.1" width="256" xmlns="http://www.w3.org/2000/svg" xmlns:ev="http://www.w3.org/2001/xml-events" xmlns:xlink="http://www.w3.org/1999/xlink"><defs /><path d="M1535 1355Q1593 1355 1639.5 1327.5Q1686 1300 1717 1252Q1740 1215 1770.0 1192.0Q1800 1169 1841 1155Q1873 1143 1899.5 1123.0Q1926 1103 1945.0 1076.0Q1964 1049 1974.5 1017.0Q1985 985 1985 951Q1985 915 1975.0 889.5Q1965 864 1953.0 842.5Q1941 821 1931.0 800.0Q1921 779 1921 751V658Q1921 638 1920.5 616.5Q1920 595 1913.5 577.0Q1907 559 1892.5 547.5Q1878 536 1850 536Q1850 550 1850.5 562.5Q1851 575 1851 589Q1851 613 1837.5 625.5Q1824 638 1804.5 643.0Q1785 648 1763.5 648.0Q1742 648 1726 648H1614Q1547 648 1493.5 683.5Q1440 719 1412 779Q1405 794 1392.0 805.5Q1379 817 1361 817H1239Q1179 817 1125.5 802.5Q1072 788 1032.0 757.0Q992 726 968.5 679.0Q945 632 945 566V567L948 535Q918 535 894.5 556.5Q871 578 871 609V750Q871 777 861.5 799.0Q852 821 840.0 843.0Q828 865 818.5 890.5Q809 916 809 952Q809 1023 848.5 1077.0Q888 1131 953 1155Q995 1171 1025.0 1194.0Q1055 1217 1079 1255Q1109 1302 1155.5 1328.5Q1202 1355 1259 1355Q1279 1355 1296.5 1350.5Q1314 1346 1330.0 1341.0Q1346 1336 1362.0 1331.5Q1378 1327 1396 1327Q1414 1327 1430.5 1331.5Q1447 1336 1463.5 1341.0Q1480 1346 1497.5 1350.5Q1515 1355 1535 1355Z" style="fill:#f1a11e;stroke:none" transform="scale(1,-1) translate(0,-256)" /></svg>