<?xml version="1.0" encoding="utf-8" ?>
<svg baseProfile="full" height="256" version="1.1" width="256" xmlns="http://www.w3.org/2000/svg" xmlns:ev="http://www.w3.org/2001/xml-events" xmlns:xlink="http://www.w3.org/1999/xlink"><defs /><path d="M1297 1247H1498Q1575 1247 1642.5 1217.5Q1710 1188 1760.5 1137.5Q1811 1087 1840.5 1019.5Q1870 952 1870 875Q1870 862 1869.0 850.0Q1868 838 1867 825L1825 307Q1823 283 1812.5 253.5Q1802 224 1791 203Q1762 147 1719.5 108.0Q1677 69 1626.0 45.0Q1575 21 1517.0 10.5Q1459 0 1399 0Q1338 0 1280.0 11.0Q1222 22 1171.0 46.0Q1120 70 1077.5 108.5Q1035 147 1005 203Q1000 213 994.0 226.0Q988 239 982.5 253.0Q977 267 973.5 281.0Q970 295 969 307L928 825Q927 836 926.5 847.5Q926 859 926 871Q926 949 954.5 1017.5Q983 1086 1032.5 1137.0Q1082 1188 1150.0 1217.5Q1218 1247 1297 1247Z" style="fill:#ffc83d;stroke:none" transform="scale(1,-1) translate(0,-256)" /></svg>