<?xml version="1.0" encoding="utf-8" ?>
<svg baseProfile="full" height="256" version="1.1" width="256" xmlns="http://www.w3.org/2000/svg" xmlns:ev="http://www.w3.org/2001/xml-events" xmlns:xlink="http://www.w3.org/1999/xlink"><defs /><path d="M1094 588Q1094 558 1082.5 532.5Q1071 507 1051.5 487.5Q1032 468 1006.0 457.0Q980 446 951 446Q922 446 896.0 457.0Q870 468 850.5 487.5Q831 507 820.0 533.0Q809 559 809 588Q809 618 820.0 644.0Q831 670 850.5 689.5Q870 709 895.5 720.0Q921 731 951 731Q981 731 1007.0 720.0Q1033 709 1052.5 689.5Q1072 670 1083.0 644.0Q1094 618 1094 588ZM1985 588Q1985 558 1973.5 532.5Q1962 507 1942.5 487.5Q1923 468 1897.0 457.0Q1871 446 1842 446Q1813 446 1787.0 457.0Q1761 468 1741.5 487.5Q1722 507 1711.0 533.0Q1700 559 1700 588Q1700 617 1711.0 643.0Q1722 669 1741.5 688.5Q1761 708 1786.5 719.5Q1812 731 1842 731Q1872 731 1898.0 720.0Q1924 709 1943.5 689.5Q1963 670 1974.0 644.0Q1985 618 1985 588Z" style="fill:#fdbb11;stroke:none" transform="scale(1,-1) translate(0,-256)" /></svg>