<?xml version="1.0" encoding="utf-8" ?>
<svg baseProfile="full" height="256" version="1.1" width="256" xmlns="http://www.w3.org/2000/svg" xmlns:ev="http://www.w3.org/2001/xml-events" xmlns:xlink="http://www.w3.org/1999/xlink"><defs /><path d="M1197 402Q1217 402 1230.5 388.5Q1244 375 1244 355Q1244 346 1239 334H1156Q1151 346 1151 355Q1151 374 1164.0 388.0Q1177 402 1197 402ZM1596 402Q1576 402 1562.5 388.5Q1549 375 1549 355Q1549 350 1550.5 344.5Q1552 339 1554 334H1637Q1642 346 1642 355Q1642 374 1629.0 388.0Q1616 402 1596 402Z" style="fill:#000000;stroke:none" transform="scale(1,-1) translate(0,-256)" /></svg>