<?xml version="1.0" encoding="utf-8" ?>
<svg baseProfile="full" height="256" version="1.1" width="256" xmlns="http://www.w3.org/2000/svg" xmlns:ev="http://www.w3.org/2001/xml-events" xmlns:xlink="http://www.w3.org/1999/xlink"><defs /><path d="M1314 195Q1314 205 1320.0 227.5Q1326 250 1334.5 276.0Q1343 302 1351.0 326.0Q1359 350 1363 362Q1371 387 1397 387Q1408 387 1417.5 380.0Q1427 373 1431 362Q1435 350 1443.0 326.5Q1451 303 1459.0 277.0Q1467 251 1473.5 228.0Q1480 205 1480 195Q1480 175 1466.0 161.0Q1452 147 1432 147H1362Q1342 147 1328.0 161.0Q1314 175 1314 195Z" style="fill:#ed9200;stroke:none" transform="scale(1,-1) translate(0,-256)" /></svg>