<?xml version="1.0" encoding="utf-8" ?>
<svg baseProfile="full" height="256" version="1.1" width="256" xmlns="http://www.w3.org/2000/svg" xmlns:ev="http://www.w3.org/2001/xml-events" xmlns:xlink="http://www.w3.org/1999/xlink"><defs /><path d="M1116 355Q1116 389 1139.5 413.0Q1163 437 1197 437Q1231 437 1254.5 413.0Q1278 389 1278 355Q1278 350 1278.0 344.5Q1278 339 1276 334H1119Q1116 344 1116 355ZM1678 355Q1678 389 1654.0 413.0Q1630 437 1596 437Q1562 437 1538.5 413.0Q1515 389 1515 355Q1515 344 1518 334H1675Q1676 339 1677.0 344.5Q1678 350 1678 355Z" style="fill:#7d4533;stroke:none" transform="scale(1,-1) translate(0,-256)" /></svg>