<?xml version="1.0" encoding="utf-8" ?>
<svg baseProfile="full" height="256" version="1.1" width="256" xmlns="http://www.w3.org/2000/svg" xmlns:ev="http://www.w3.org/2001/xml-events" xmlns:xlink="http://www.w3.org/1999/xlink"><defs /><path d="M1047 503Q1047 465 1024.5 438.0Q1002 411 969.0 393.5Q936 376 898.5 368.0Q861 360 831 360Q801 360 763.5 368.0Q726 376 693.0 393.5Q660 411 637.5 438.0Q615 465 615 503Q615 541 637.0 568.5Q659 596 692.0 613.5Q725 631 762.5 639.0Q800 647 831 647Q862 647 899.5 639.0Q937 631 970.0 613.5Q1003 596 1025.0 568.5Q1047 541 1047 503ZM2197 503Q2197 465 2174.5 438.0Q2152 411 2119.0 393.5Q2086 376 2048.5 368.0Q2011 360 1981 360Q1951 360 1913.5 368.0Q1876 376 1843.0 393.5Q1810 411 1787.5 438.0Q1765 465 1765 503Q1765 541 1787.0 568.5Q1809 596 1842.0 613.5Q1875 631 1912.5 639.0Q1950 647 1981 647Q2012 647 2049.5 639.0Q2087 631 2120.0 613.5Q2153 596 2175.0 568.5Q2197 541 2197 503Z" style="fill:#ff6723;stroke:none" transform="scale(1,-1) translate(0,-256)" /></svg>