<?xml version="1.0" encoding="utf-8" ?>
<svg baseProfile="full" height="256" version="1.1" width="256" xmlns="http://www.w3.org/2000/svg" xmlns:ev="http://www.w3.org/2001/xml-events" xmlns:xlink="http://www.w3.org/1999/xlink"><defs /><path d="M723 1150Q708 1150 697.5 1161.0Q687 1172 687 1187Q687 1190 687.5 1192.5Q688 1195 689 1198Q705 1249 737.5 1293.0Q770 1337 812.5 1369.5Q855 1402 906.0 1420.0Q957 1438 1011 1438Q1025 1438 1036.0 1427.0Q1047 1416 1047 1402Q1047 1388 1036.0 1377.0Q1025 1366 1011 1366Q910 1366 836 1295Q809 1269 790.0 1239.5Q771 1210 757 1175Q747 1150 723 1150ZM2089 1150Q2104 1150 2114.5 1161.0Q2125 1172 2125 1187Q2125 1190 2124.5 1192.5Q2124 1195 2123 1198Q2107 1249 2075.0 1293.0Q2043 1337 1999.5 1369.0Q1956 1401 1905.0 1419.5Q1854 1438 1801 1438Q1786 1438 1775.5 1427.5Q1765 1417 1765 1402Q1765 1387 1775.5 1376.5Q1786 1366 1801 1366Q1852 1366 1896.0 1348.0Q1940 1330 1976 1295Q2003 1269 2022.0 1239.5Q2041 1210 2055 1175Q2065 1150 2089 1150ZM830 791Q801 791 780.0 812.5Q759 834 759 863Q759 866 759.0 869.5Q759 873 760 876Q769 924 791.0 961.5Q813 999 846.0 1025.0Q879 1051 921.0 1064.5Q963 1078 1011 1078Q1058 1078 1100.0 1064.0Q1142 1050 1175.0 1024.0Q1208 998 1230.5 960.5Q1253 923 1261 875Q1262 871 1262 862Q1262 833 1241.0 812.0Q1220 791 1190 791Q1164 791 1151.0 801.5Q1138 812 1130.0 828.0Q1122 844 1115.5 863.0Q1109 882 1098.0 898.0Q1087 914 1067.0 924.5Q1047 935 1011 935Q975 935 954.5 924.5Q934 914 923.0 898.0Q912 882 906.0 863.0Q900 844 892.0 828.0Q884 812 870.0 801.5Q856 791 830 791ZM1621 791Q1592 791 1571.0 812.0Q1550 833 1550 862Q1550 871 1551 876Q1560 924 1582.0 961.5Q1604 999 1637.0 1025.0Q1670 1051 1711.5 1064.5Q1753 1078 1801 1078Q1848 1078 1890.0 1064.0Q1932 1050 1965.5 1024.0Q1999 998 2021.5 960.5Q2044 923 2052 875Q2053 871 2053 863Q2053 833 2031.5 812.0Q2010 791 1980 791Q1954 791 1940.5 801.5Q1927 812 1919.5 828.0Q1912 844 1906.0 863.0Q1900 882 1889.0 898.0Q1878 914 1857.5 924.5Q1837 935 1801 935Q1765 935 1745.0 924.5Q1725 914 1714.0 898.0Q1703 882 1697.0 863.0Q1691 844 1683.0 828.0Q1675 812 1661.5 801.5Q1648 791 1621 791Z" style="fill:#402a32;stroke:none" transform="scale(1,-1) translate(0,-256)" /></svg>