<?xml version="1.0" encoding="utf-8" ?>
<svg baseProfile="full" height="256" version="1.1" width="256" xmlns="http://www.w3.org/2000/svg" xmlns:ev="http://www.w3.org/2001/xml-events" xmlns:xlink="http://www.w3.org/1999/xlink"><defs /><path d="M2118 776Q2189 723 2228.5 645.5Q2268 568 2268 480Q2268 403 2239.0 335.5Q2210 268 2159.5 218.0Q2109 168 2041.5 138.5Q1974 109 1898 109H986Q909 109 841.5 138.5Q774 168 724.0 218.0Q674 268 644.5 335.5Q615 403 615 480Q615 568 655.0 645.5Q695 723 766 776Q723 862 723 958Q723 1036 750.5 1105.5Q778 1175 826.0 1229.0Q874 1283 940.0 1318.5Q1006 1354 1083 1363Q1083 1438 1111.0 1504.0Q1139 1570 1187.5 1619.0Q1236 1668 1301.5 1696.5Q1367 1725 1442 1725Q1517 1725 1582.5 1696.5Q1648 1668 1696.5 1619.0Q1745 1570 1773.0 1504.0Q1801 1438 1801 1363Q1878 1354 1944.0 1318.5Q2010 1283 2058.0 1228.5Q2106 1174 2133.5 1104.5Q2161 1035 2161 958Q2161 862 2118 776Z" style="fill:#44911b;stroke:none" transform="scale(1,-1) translate(0,-256)" /></svg>