<?xml version="1.0" encoding="utf-8" ?>
<svg baseProfile="full" height="256" version="1.1" width="256" xmlns="http://www.w3.org/2000/svg" xmlns:ev="http://www.w3.org/2001/xml-events" xmlns:xlink="http://www.w3.org/1999/xlink"><defs /><path d="M1442 1366Q1501 1366 1553.5 1343.5Q1606 1321 1645.0 1282.0Q1684 1243 1706.5 1190.5Q1729 1138 1729 1079Q1729 1019 1706.5 966.5Q1684 914 1645.5 875.0Q1607 836 1554.5 813.5Q1502 791 1442 791Q1383 791 1330.5 813.5Q1278 836 1239.0 875.0Q1200 914 1177.0 966.5Q1154 1019 1154 1078Q1154 1137 1177.0 1189.5Q1200 1242 1239.0 1281.0Q1278 1320 1330.5 1343.0Q1383 1366 1442 1366ZM1442 1033Q1460 1033 1473.5 1046.5Q1487 1060 1487 1078Q1487 1097 1474.0 1110.0Q1461 1123 1442 1123Q1423 1123 1410.0 1110.0Q1397 1097 1397 1078Q1397 1060 1410.5 1046.5Q1424 1033 1442 1033ZM795 719Q854 719 906.5 696.5Q959 674 998.0 635.0Q1037 596 1059.5 543.5Q1082 491 1082 432Q1082 372 1059.5 319.5Q1037 267 998.0 228.0Q959 189 907.0 166.5Q855 144 795 144Q736 144 683.5 166.5Q631 189 592.0 228.0Q553 267 530.5 319.5Q508 372 508 431Q508 491 530.5 543.5Q553 596 592.0 635.0Q631 674 683.0 696.5Q735 719 795 719ZM795 387Q813 387 826.5 399.5Q840 412 840 431Q840 450 827.0 463.0Q814 476 795 476Q776 476 763.0 463.0Q750 450 750 431Q750 412 763.5 399.5Q777 387 795 387Z" style="fill:#b4acbc;stroke:none" transform="scale(1,-1) translate(0,-256)" /></svg>