<?xml version="1.0" encoding="utf-8" ?>
<svg baseProfile="full" height="256" version="1.1" width="256" xmlns="http://www.w3.org/2000/svg" xmlns:ev="http://www.w3.org/2001/xml-events" xmlns:xlink="http://www.w3.org/1999/xlink"><defs /><path d="M795 1366Q854 1366 906.5 1343.5Q959 1321 998.0 1282.0Q1037 1243 1059.5 1190.5Q1082 1138 1082 1079Q1082 1019 1059.5 966.5Q1037 914 998.5 875.0Q960 836 907.5 813.5Q855 791 795 791Q736 791 683.5 813.5Q631 836 592.0 875.0Q553 914 530.5 966.5Q508 1019 508 1078Q508 1138 530.5 1190.5Q553 1243 592.0 1282.0Q631 1321 683.0 1343.5Q735 1366 795 1366ZM795 1033Q814 1033 827.0 1046.0Q840 1059 840 1078Q840 1097 827.0 1110.0Q814 1123 795 1123Q776 1123 763.0 1110.0Q750 1097 750 1078Q750 1059 763.0 1046.0Q776 1033 795 1033ZM1442 719Q1501 719 1553.5 696.5Q1606 674 1645.0 635.0Q1684 596 1706.5 543.5Q1729 491 1729 432Q1729 372 1706.5 319.5Q1684 267 1645.5 228.0Q1607 189 1554.5 166.5Q1502 144 1442 144Q1383 144 1330.5 166.5Q1278 189 1239.0 228.0Q1200 267 1177.5 319.5Q1155 372 1155 431Q1155 491 1177.5 543.5Q1200 596 1239.0 635.0Q1278 674 1330.0 696.5Q1382 719 1442 719ZM1442 387Q1460 387 1473.5 399.5Q1487 412 1487 431Q1487 450 1474.0 463.0Q1461 476 1442 476Q1423 476 1410.0 463.0Q1397 450 1397 431Q1397 412 1410.5 399.5Q1424 387 1442 387Z" style="fill:#007356;stroke:none" transform="scale(1,-1) translate(0,-256)" /></svg>