<?xml version="1.0" encoding="utf-8" ?>
<svg baseProfile="full" height="256" version="1.1" width="256" xmlns="http://www.w3.org/2000/svg" xmlns:ev="http://www.w3.org/2001/xml-events" xmlns:xlink="http://www.w3.org/1999/xlink"><defs /><path d="M795 1330Q847 1330 892.5 1310.0Q938 1290 972.0 1256.0Q1006 1222 1026.0 1176.5Q1046 1131 1046 1079Q1046 1027 1026.5 981.5Q1007 936 973.0 901.5Q939 867 893.5 847.0Q848 827 796 827Q744 827 698.0 846.5Q652 866 618.0 900.0Q584 934 564.0 980.0Q544 1026 544 1078Q544 1130 563.5 1176.0Q583 1222 617.0 1256.0Q651 1290 697.0 1310.0Q743 1330 795 1330ZM795 863Q840 863 879.0 880.0Q918 897 947.5 926.5Q977 956 994.0 995.0Q1011 1034 1011 1079Q1011 1124 994.0 1163.0Q977 1202 947.5 1231.5Q918 1261 878.5 1277.5Q839 1294 794 1294Q750 1294 710.5 1277.0Q671 1260 642.0 1230.5Q613 1201 596.0 1161.5Q579 1122 579 1078Q579 1033 596.0 994.0Q613 955 642.5 926.0Q672 897 711.0 880.0Q750 863 795 863ZM897 1137Q900 1137 903.0 1137.5Q906 1138 909 1138Q935 1138 955.0 1122.5Q975 1107 975 1078Q975 1048 956.0 1033.5Q937 1019 911 1019Q902 1019 897 1020Q905 1009 910.0 998.5Q915 988 915 974Q915 949 897.5 932.0Q880 915 855 915Q834 915 818.0 928.0Q802 941 795 961Q788 941 772.0 928.0Q756 915 735 915Q710 915 692.5 932.5Q675 950 675 975Q675 989 681.0 999.0Q687 1009 693 1020Q688 1019 678 1019Q651 1019 633.0 1034.5Q615 1050 615 1078Q615 1107 634.5 1122.5Q654 1138 680 1138Q683 1138 686.5 1138.0Q690 1138 693 1137L690 1141Q683 1151 679.0 1159.5Q675 1168 675 1181Q675 1207 692.0 1224.5Q709 1242 735 1242Q758 1242 772.5 1229.0Q787 1216 795 1196Q803 1216 817.5 1229.0Q832 1242 855 1242Q880 1242 897.5 1224.5Q915 1207 915 1182Q915 1168 911.0 1159.5Q907 1151 899 1140ZM874 1060Q879 1060 883.5 1059.5Q888 1059 893 1059Q903 1059 914.0 1062.0Q925 1065 925 1078Q925 1090 915.0 1093.5Q905 1097 894 1097Q888 1097 883.0 1096.5Q878 1096 874 1096Q868 1122 850 1138Q854 1145 861.5 1156.0Q869 1167 869 1175Q869 1193 851 1193Q844 1193 839.5 1189.0Q835 1185 831.5 1179.0Q828 1173 825.0 1166.5Q822 1160 819 1156Q807 1159 795 1159Q783 1159 771 1156Q766 1165 760.0 1177.0Q754 1189 741 1189Q724 1189 724 1172Q724 1164 730.0 1154.5Q736 1145 740 1138Q722 1122 716 1096Q711 1096 706.5 1096.5Q702 1097 697 1097Q687 1097 676.0 1094.0Q665 1091 665 1078Q665 1066 675.0 1062.5Q685 1059 696 1059Q702 1059 707.0 1059.5Q712 1060 716 1060Q722 1035 740 1019Q735 1011 728.0 1000.5Q721 990 721 981Q721 963 739 963Q751 963 759.0 977.5Q767 992 771 1001Q782 997 795 997Q808 997 819 1001Q823 992 831.0 977.5Q839 963 851 963Q869 963 869 981Q869 990 862.0 1000.5Q855 1011 850 1019Q868 1035 874 1060ZM1442 683Q1494 683 1539.5 663.0Q1585 643 1619.0 609.0Q1653 575 1673.0 529.5Q1693 484 1693 432Q1693 380 1673.0 334.0Q1653 288 1619.0 254.0Q1585 220 1539.0 200.0Q1493 180 1441 180Q1389 180 1343.5 200.0Q1298 220 1264.0 254.0Q1230 288 1210.5 333.5Q1191 379 1191 431Q1191 483 1210.5 529.0Q1230 575 1264.0 609.0Q1298 643 1344.0 663.0Q1390 683 1442 683ZM1443 216Q1488 216 1527.0 233.0Q1566 250 1595.0 279.5Q1624 309 1641.0 348.0Q1658 387 1658 432Q1658 477 1641.0 516.0Q1624 555 1594.5 584.5Q1565 614 1525.5 630.5Q1486 647 1441 647Q1396 647 1357.0 630.0Q1318 613 1289.0 583.5Q1260 554 1243.0 515.0Q1226 476 1226 431Q1226 386 1243.0 347.0Q1260 308 1289.5 278.5Q1319 249 1358.5 232.5Q1398 216 1443 216ZM1544 490Q1549 491 1558 491Q1585 491 1603.5 475.0Q1622 459 1622 431Q1622 402 1602.5 387.0Q1583 372 1557 372Q1549 372 1544 373L1546 370Q1554 359 1558.0 350.5Q1562 342 1562 328Q1562 303 1544.5 285.5Q1527 268 1502 268Q1480 268 1464.5 281.0Q1449 294 1442 314Q1435 294 1419.0 281.0Q1403 268 1382 268Q1357 268 1339.5 285.5Q1322 303 1322 328Q1322 343 1327.0 352.0Q1332 361 1340 373Q1336 372 1328 372Q1301 372 1281.5 387.0Q1262 402 1262 431Q1262 460 1281.5 475.5Q1301 491 1327 491Q1330 491 1333.5 491.0Q1337 491 1340 490Q1332 502 1327.0 511.0Q1322 520 1322 535Q1322 560 1339.5 577.5Q1357 595 1382 595Q1405 595 1419.5 582.0Q1434 569 1442 549Q1450 569 1464.5 582.0Q1479 595 1502 595Q1527 595 1544.5 577.5Q1562 560 1562 535Q1562 521 1558.0 512.5Q1554 504 1546 493ZM1521 413Q1526 413 1530.5 412.5Q1535 412 1540 412Q1550 412 1561.0 415.0Q1572 418 1572 431Q1572 443 1562.0 446.5Q1552 450 1541 450Q1535 450 1530.0 449.5Q1525 449 1521 449Q1515 475 1497 491Q1501 498 1508.5 509.0Q1516 520 1516 528Q1516 536 1511.0 541.0Q1506 546 1498 546Q1491 546 1486.5 542.0Q1482 538 1478.5 532.0Q1475 526 1472.0 519.5Q1469 513 1466 509Q1454 512 1442 512Q1430 512 1418 509Q1413 518 1407.0 530.0Q1401 542 1388 542Q1380 542 1375.0 537.0Q1370 532 1370 524Q1370 517 1376.5 507.0Q1383 497 1387 491Q1369 475 1363 449Q1358 449 1353.5 449.5Q1349 450 1344 450Q1334 450 1323.0 447.0Q1312 444 1312 431Q1312 419 1322.0 415.5Q1332 412 1343 412Q1349 412 1354.0 412.5Q1359 413 1363 413Q1369 388 1387 372Q1383 365 1375.5 354.0Q1368 343 1368 335Q1368 327 1373.0 321.5Q1378 316 1386 316Q1398 316 1406.0 330.5Q1414 345 1418 354Q1430 351 1442 351Q1454 351 1466 354Q1472 344 1478.0 330.0Q1484 316 1498 316Q1506 316 1511.0 321.5Q1516 327 1516 335Q1516 343 1508.5 354.0Q1501 365 1497 372Q1515 388 1521 413ZM1441 1330Q1493 1330 1539.0 1310.5Q1585 1291 1619.0 1257.0Q1653 1223 1673.0 1177.0Q1693 1131 1693 1079Q1693 1027 1673.0 981.0Q1653 935 1619.0 901.0Q1585 867 1539.0 847.0Q1493 827 1441 827Q1389 827 1343.5 847.0Q1298 867 1264.0 901.0Q1230 935 1210.5 980.5Q1191 1026 1191 1078Q1191 1130 1210.5 1175.5Q1230 1221 1264.0 1255.5Q1298 1290 1343.5 1310.0Q1389 1330 1441 1330ZM1442 863Q1487 863 1526.0 880.0Q1565 897 1594.5 926.5Q1624 956 1641.0 995.0Q1658 1034 1658 1079Q1658 1124 1641.0 1163.0Q1624 1202 1594.5 1231.5Q1565 1261 1525.5 1277.5Q1486 1294 1441 1294Q1396 1294 1357.0 1277.0Q1318 1260 1289.0 1230.5Q1260 1201 1243.0 1162.0Q1226 1123 1226 1078Q1226 1034 1243.0 994.5Q1260 955 1289.5 926.0Q1319 897 1358.5 880.0Q1398 863 1442 863ZM1544 1137Q1547 1137 1550.0 1137.5Q1553 1138 1556 1138Q1582 1138 1602.0 1122.5Q1622 1107 1622 1078Q1622 1048 1603.0 1033.5Q1584 1019 1558 1019Q1549 1019 1544 1020L1546 1017Q1554 1006 1558.0 997.5Q1562 989 1562 975Q1562 950 1544.5 932.5Q1527 915 1502 915Q1480 915 1464.5 928.0Q1449 941 1442 961Q1435 941 1419.0 928.0Q1403 915 1382 915Q1357 915 1339.5 932.5Q1322 950 1322 975Q1322 999 1340 1020Q1335 1019 1325 1019Q1298 1019 1280.0 1034.5Q1262 1050 1262 1078Q1262 1107 1281.5 1122.5Q1301 1138 1327 1138Q1330 1138 1333.5 1138.0Q1337 1138 1340 1137L1338 1140Q1330 1151 1326.0 1159.5Q1322 1168 1322 1182Q1322 1207 1339.5 1224.5Q1357 1242 1382 1242Q1405 1242 1419.5 1229.0Q1434 1216 1442 1196Q1450 1216 1464.5 1229.0Q1479 1242 1502 1242Q1528 1242 1545.0 1224.5Q1562 1207 1562 1181Q1562 1168 1558.0 1159.5Q1554 1151 1547 1141ZM1521 1060Q1526 1060 1530.5 1059.5Q1535 1059 1540 1059Q1550 1059 1561.0 1062.0Q1572 1065 1572 1078Q1572 1090 1562.0 1093.5Q1552 1097 1541 1097Q1535 1097 1530.0 1096.5Q1525 1096 1521 1096Q1515 1120 1497 1138Q1501 1145 1508.5 1156.0Q1516 1167 1516 1175Q1516 1183 1511.0 1188.0Q1506 1193 1498 1193Q1491 1193 1486.5 1189.0Q1482 1185 1478.5 1179.0Q1475 1173 1472.0 1166.5Q1469 1160 1466 1156Q1454 1159 1442 1159Q1430 1159 1418 1156Q1413 1164 1406.5 1176.5Q1400 1189 1388 1189Q1370 1189 1370 1171Q1370 1164 1376.5 1154.0Q1383 1144 1387 1138Q1369 1122 1363 1096Q1358 1096 1353.5 1096.5Q1349 1097 1344 1097Q1334 1097 1323.0 1094.0Q1312 1091 1312 1078Q1312 1066 1322.0 1062.5Q1332 1059 1343 1059Q1349 1059 1354.0 1059.5Q1359 1060 1363 1060Q1369 1035 1387 1019Q1383 1012 1375.5 1001.0Q1368 990 1368 982Q1368 974 1373.0 968.5Q1378 963 1386 963Q1398 963 1406.0 977.5Q1414 992 1418 1001Q1430 998 1442 998Q1454 998 1466 1001Q1472 991 1478.0 977.0Q1484 963 1498 963Q1506 963 1511.0 968.5Q1516 974 1516 982Q1516 990 1508.5 1001.0Q1501 1012 1497 1019Q1515 1037 1521 1060ZM795 683Q847 683 893.0 663.5Q939 644 973.0 610.0Q1007 576 1026.5 530.0Q1046 484 1046 432Q1046 380 1026.5 334.0Q1007 288 973.0 254.0Q939 220 893.0 200.0Q847 180 795 180Q743 180 697.0 199.5Q651 219 617.0 253.0Q583 287 563.5 333.0Q544 379 544 431Q544 483 563.5 529.0Q583 575 617.0 609.0Q651 643 697.0 663.0Q743 683 795 683ZM796 216Q841 216 880.0 233.0Q919 250 948.0 279.5Q977 309 994.0 348.0Q1011 387 1011 432Q1011 477 994.0 516.0Q977 555 947.5 584.5Q918 614 878.5 630.5Q839 647 794 647Q749 647 710.0 630.0Q671 613 642.0 583.5Q613 554 596.0 515.0Q579 476 579 431Q579 386 596.0 347.0Q613 308 642.5 278.5Q672 249 711.5 232.5Q751 216 796 216ZM897 490Q901 491 909 491Q936 491 955.5 476.0Q975 461 975 432Q975 403 955.5 387.5Q936 372 910 372Q907 372 903.5 372.0Q900 372 897 373L899 370Q907 359 911.0 350.5Q915 342 915 328Q915 303 897.5 285.5Q880 268 855 268Q832 268 817.5 281.0Q803 294 795 314Q787 294 772.5 281.0Q758 268 735 268Q710 268 692.5 285.5Q675 303 675 328Q675 343 680.0 352.0Q685 361 693 373Q689 372 681 372Q654 372 634.5 387.0Q615 402 615 431Q615 460 634.5 475.5Q654 491 680 491Q683 491 686.5 491.0Q690 491 693 490Q685 502 680.0 511.0Q675 520 675 535Q675 560 692.5 577.5Q710 595 735 595Q758 595 772.5 582.0Q787 569 795 549Q803 569 817.5 582.0Q832 595 855 595Q880 595 897.5 577.5Q915 560 915 535Q915 521 911.0 512.5Q907 504 899 493ZM874 414Q879 414 884.5 413.5Q890 413 895 413Q905 413 915.0 416.0Q925 419 925 431Q925 443 915.0 446.5Q905 450 894 450Q888 450 883.0 449.5Q878 449 874 449Q868 475 850 491Q854 498 861.5 509.0Q869 520 869 528Q869 546 851 546Q839 546 831.5 532.0Q824 518 819 509Q807 512 795 512Q783 512 771 509Q769 518 761.0 530.5Q753 543 742 543Q723 543 723 524Q723 515 729.5 507.0Q736 499 740 491Q722 475 716 449Q711 449 706.5 449.5Q702 450 697 450Q687 450 676.0 447.0Q665 444 665 431Q665 420 674.0 416.5Q683 413 694 413Q700 413 705.5 413.5Q711 414 716 414Q722 388 740 372Q736 365 728.5 354.0Q721 343 721 335Q721 327 726.0 321.5Q731 316 739 316Q751 316 759.0 330.5Q767 345 771 354Q783 351 795 351Q807 351 819 354Q823 345 831.0 330.5Q839 316 851 316Q859 316 864.0 321.5Q869 327 869 335Q869 343 861.5 354.0Q854 365 850 372Q868 388 874 414Z" style="fill:#1c1c1c;stroke:none" transform="scale(1,-1) translate(0,-256)" /></svg>