<?xml version="1.0" encoding="utf-8" ?>
<svg baseProfile="full" height="256" version="1.1" width="256" xmlns="http://www.w3.org/2000/svg" xmlns:ev="http://www.w3.org/2001/xml-events" xmlns:xlink="http://www.w3.org/1999/xlink"><defs /><path d="M723 -144Q701 -144 681.5 -135.5Q662 -127 647.0 -112.0Q632 -97 623.5 -77.5Q615 -58 615 -36Q615 -14 623.5 5.5Q632 25 647.0 40.0Q662 55 681.5 63.5Q701 72 723 72Q745 72 765.0 63.5Q785 55 799.5 40.5Q814 26 822.5 6.0Q831 -14 831 -36Q831 -58 822.5 -77.5Q814 -97 799.0 -112.0Q784 -127 764.5 -135.5Q745 -144 723 -144ZM2089 -144Q2067 -144 2047.5 -135.5Q2028 -127 2013.0 -112.0Q1998 -97 1989.5 -77.5Q1981 -58 1981 -36Q1981 -14 1989.5 6.0Q1998 26 2012.5 40.5Q2027 55 2046.5 63.5Q2066 72 2089 72Q2111 72 2130.5 63.5Q2150 55 2165.0 40.0Q2180 25 2188.5 5.5Q2197 -14 2197 -36Q2197 -58 2188.5 -77.5Q2180 -97 2165.0 -112.0Q2150 -127 2130.5 -135.5Q2111 -144 2089 -144Z" style="fill:#f3eef8;stroke:none" transform="scale(1,-1) translate(0,-256)" /></svg>