<?xml version="1.0" encoding="utf-8" ?>
<svg baseProfile="full" height="256" version="1.1" width="256" xmlns="http://www.w3.org/2000/svg" xmlns:ev="http://www.w3.org/2001/xml-events" xmlns:xlink="http://www.w3.org/1999/xlink"><defs /><path d="M723 -287Q671 -287 625.0 -267.5Q579 -248 545.0 -214.0Q511 -180 491.5 -134.0Q472 -88 472 -36Q472 16 491.5 62.0Q511 108 545.0 142.0Q579 176 625.0 196.0Q671 216 723 216Q775 216 821.0 196.0Q867 176 901.0 142.0Q935 108 955.0 62.0Q975 16 975 -36Q975 -88 955.0 -134.0Q935 -180 901.0 -214.0Q867 -248 821.0 -267.5Q775 -287 723 -287ZM2089 -287Q2037 -287 1991.0 -267.5Q1945 -248 1911.0 -214.0Q1877 -180 1857.0 -134.0Q1837 -88 1837 -36Q1837 16 1857.0 62.0Q1877 108 1911.0 142.0Q1945 176 1991.0 196.0Q2037 216 2089 216Q2141 216 2187.0 196.0Q2233 176 2267.0 142.0Q2301 108 2320.5 62.0Q2340 16 2340 -36Q2340 -88 2320.5 -134.0Q2301 -180 2267.0 -214.0Q2233 -248 2187.0 -267.5Q2141 -287 2089 -287Z" style="fill:#433b6b;stroke:none" transform="scale(1,-1) translate(0,-256)" /></svg>