<?xml version="1.0" encoding="utf-8" ?>
<svg baseProfile="full" height="256" version="1.1" width="256" xmlns="http://www.w3.org/2000/svg" xmlns:ev="http://www.w3.org/2001/xml-events" xmlns:xlink="http://www.w3.org/1999/xlink"><defs /><path d="M2167 431Q2218 431 2262.5 411.5Q2307 392 2340.0 359.0Q2373 326 2392.5 281.5Q2412 237 2412 186V0Q2412 -30 2391.0 -51.0Q2370 -72 2340 -72H1873Q1821 -72 1775.0 -52.0Q1729 -32 1695.0 2.0Q1661 36 1641.5 82.0Q1622 128 1622 180Q1622 232 1641.5 278.0Q1661 324 1695.0 358.0Q1729 392 1775.0 411.5Q1821 431 1873 431ZM723 360Q790 360 849.0 334.0Q908 308 952.0 263.5Q996 219 1021.5 159.5Q1047 100 1047 33Q1047 19 1037.5 9.5Q1028 0 1014 0H432Q418 0 409.0 9.5Q400 19 400 33Q400 100 425.5 159.5Q451 219 494.5 263.5Q538 308 597.0 334.0Q656 360 723 360Z" style="fill:#ca0b4a;stroke:none" transform="scale(1,-1) translate(0,-256)" /></svg>