<?xml version="1.0" encoding="utf-8" ?>
<svg baseProfile="full" height="256" version="1.1" width="256" xmlns="http://www.w3.org/2000/svg" xmlns:ev="http://www.w3.org/2001/xml-events" xmlns:xlink="http://www.w3.org/1999/xlink"><defs /><path d="M975 961Q926 961 887 930Q880 924 861.0 909.0Q842 894 817.5 874.5Q793 855 766.0 833.5Q739 812 715.0 794.5Q691 777 673.0 765.5Q655 754 650 754Q639 754 630.0 761.5Q621 769 621 780Q621 811 624.5 843.0Q628 875 632.5 907.0Q637 939 640.5 970.5Q644 1002 644 1034Q644 1076 626.0 1104.5Q608 1133 580.5 1153.0Q553 1173 521.5 1187.5Q490 1202 462.5 1216.5Q435 1231 417.0 1247.0Q399 1263 399 1286Q399 1303 408.5 1316.5Q418 1330 433 1336L615 1409Q654 1424 674.0 1453.5Q694 1483 704.0 1518.5Q714 1554 718.0 1590.5Q722 1627 728.0 1657.0Q734 1687 746.5 1706.0Q759 1725 787 1725Q807 1725 824.0 1709.5Q841 1694 857.0 1671.0Q873 1648 890.5 1620.5Q908 1593 929.0 1570.0Q950 1547 977.5 1531.5Q1005 1516 1041 1516Q1074 1516 1108.0 1519.5Q1142 1523 1175.5 1527.5Q1209 1532 1243.0 1536.0Q1277 1540 1311 1540Q1322 1540 1329.5 1531.0Q1337 1522 1337 1511Q1337 1503 1318.5 1476.5Q1300 1450 1277.0 1419.0Q1254 1388 1232.0 1360.5Q1210 1333 1203 1323Q1174 1285 1174 1236Q1174 1207 1184 1183Q1187 1177 1195.5 1156.0Q1204 1135 1215.5 1106.5Q1227 1078 1239.5 1046.5Q1252 1015 1262.5 988.0Q1273 961 1280.0 942.5Q1287 924 1287 922Q1287 916 1282.5 910.5Q1278 905 1271 905H1266L1003 958Q989 961 975 961ZM1837 961Q1822 961 1809 958L1546 905H1541Q1534 905 1529.5 910.5Q1525 916 1525 922Q1525 924 1532.0 942.5Q1539 961 1549.5 988.0Q1560 1015 1572.5 1046.5Q1585 1078 1596.5 1106.5Q1608 1135 1616.5 1156.0Q1625 1177 1628 1183Q1638 1207 1638 1236Q1638 1285 1609 1323Q1604 1329 1592.5 1344.0Q1581 1359 1566.0 1378.5Q1551 1398 1535.0 1419.0Q1519 1440 1505.5 1459.0Q1492 1478 1483.5 1492.0Q1475 1506 1475 1512Q1475 1522 1482.5 1531.0Q1490 1540 1501 1540Q1535 1540 1569.0 1536.0Q1603 1532 1636.5 1527.5Q1670 1523 1704.0 1519.5Q1738 1516 1771 1516Q1807 1516 1834.0 1531.5Q1861 1547 1882.5 1570.0Q1904 1593 1921.0 1620.5Q1938 1648 1954.5 1671.0Q1971 1694 1987.5 1709.5Q2004 1725 2025 1725Q2052 1725 2065.0 1706.0Q2078 1687 2084.0 1657.0Q2090 1627 2093.5 1590.5Q2097 1554 2107.0 1519.0Q2117 1484 2137.5 1454.5Q2158 1425 2197 1409L2379 1336Q2394 1330 2403.5 1316.5Q2413 1303 2413 1286Q2413 1263 2395.0 1247.0Q2377 1231 2349.5 1217.0Q2322 1203 2290.5 1188.5Q2259 1174 2231.5 1153.5Q2204 1133 2186.0 1104.5Q2168 1076 2168 1034Q2168 1002 2171.5 970.5Q2175 939 2179.5 907.0Q2184 875 2187.5 843.0Q2191 811 2191 780Q2191 769 2182.0 761.5Q2173 754 2162 754Q2156 754 2138.5 765.5Q2121 777 2097.0 794.5Q2073 812 2046.0 833.5Q2019 855 1994.5 874.5Q1970 894 1951.0 909.0Q1932 924 1925 930Q1886 961 1837 961Z" style="fill:#bb1d80;stroke:none" transform="scale(1,-1) translate(0,-256)" /></svg>