<?xml version="1.0" encoding="utf-8" ?>
<svg baseProfile="full" height="256" version="1.1" width="256" xmlns="http://www.w3.org/2000/svg" xmlns:ev="http://www.w3.org/2001/xml-events" xmlns:xlink="http://www.w3.org/1999/xlink"><defs /><path d="M1010 1367Q1027 1369 1044.0 1370.0Q1061 1371 1078 1371Q1097 1371 1116.0 1370.0Q1135 1369 1154 1367V1294Q1154 1265 1132.5 1243.5Q1111 1222 1082 1222Q1052 1222 1031.0 1243.0Q1010 1264 1010 1294ZM2411 1150H2337Q2308 1150 2286.5 1171.5Q2265 1193 2265 1222Q2265 1252 2286.0 1273.0Q2307 1294 2337 1294H2410ZM2411 863H2337Q2307 863 2286.0 884.0Q2265 905 2265 935Q2265 964 2286.5 985.0Q2308 1006 2337 1006H2411ZM2337 558Q2307 558 2286.0 579.0Q2265 600 2265 630Q2265 659 2286.5 680.5Q2308 702 2337 702H2412V650Q2412 627 2410.0 604.0Q2408 581 2404 558ZM851 1214Q851 1184 829.5 1162.5Q808 1141 779 1141Q758 1141 743.5 1151.0Q729 1161 717.5 1175.5Q706 1190 697.5 1207.5Q689 1225 680 1240Q709 1261 740.0 1279.5Q771 1298 804 1313Q810 1302 818.5 1290.0Q827 1278 834.0 1265.5Q841 1253 846.0 1240.0Q851 1227 851 1214ZM531 1090Q546 1081 563.5 1072.5Q581 1064 595.5 1053.0Q610 1042 620.0 1027.0Q630 1012 630 991Q630 962 608.0 941.0Q586 920 557 920Q531 920 505.5 936.5Q480 953 459 965Q490 1032 531 1090ZM476 761Q505 761 526.5 739.5Q548 718 548 689Q548 659 527.0 638.0Q506 617 476 617H402Q402 635 401.0 653.5Q400 672 400 690Q400 708 401.0 725.5Q402 743 404 761Z" style="fill:#fcd53f;stroke:none" transform="scale(1,-1) translate(0,-256)" /></svg>