<?xml version="1.0" encoding="utf-8" ?>
<svg baseProfile="full" height="256" version="1.1" width="256" xmlns="http://www.w3.org/2000/svg" xmlns:ev="http://www.w3.org/2001/xml-events" xmlns:xlink="http://www.w3.org/1999/xlink"><defs /><path d="M1505 1436Q1553 1419 1588.5 1390.0Q1624 1361 1647.5 1323.5Q1671 1286 1682.5 1241.0Q1694 1196 1694 1147H1120V1167Q1120 1212 1133.5 1253.5Q1147 1295 1171.5 1330.5Q1196 1366 1230.5 1393.0Q1265 1420 1307 1436Q1301 1446 1284.5 1472.5Q1268 1499 1251.0 1528.5Q1234 1558 1220.5 1583.5Q1207 1609 1207 1617Q1207 1632 1218.0 1642.5Q1229 1653 1243 1653Q1264 1653 1274 1635L1379 1452H1381Q1394 1452 1406.0 1453.5Q1418 1455 1431 1453L1540 1636Q1550 1653 1571 1653Q1585 1653 1596.0 1642.5Q1607 1632 1607 1617Q1607 1609 1593.5 1583.5Q1580 1558 1562.0 1528.5Q1544 1499 1527.5 1472.5Q1511 1446 1505 1436ZM1005 829Q1028 829 1043.5 844.5Q1059 860 1059 883Q1059 908 1040 924L852 1078Q826 1099 811.5 1130.0Q797 1161 797 1195V1353Q797 1378 789.5 1397.0Q782 1416 770.0 1432.5Q758 1449 742.0 1463.5Q726 1478 710 1495Q694 1511 671 1511Q648 1511 633.0 1495.5Q618 1480 618 1457Q618 1438 629.0 1424.0Q640 1410 653.5 1398.0Q667 1386 678.0 1375.5Q689 1365 689 1352Q689 1299 687.0 1250.5Q685 1202 692.0 1157.5Q699 1113 719.5 1072.0Q740 1031 784 995L971 841Q978 835 987.0 832.0Q996 829 1005 829ZM1810 829Q1787 829 1771.5 844.0Q1756 859 1756 882Q1756 894 1761.5 905.0Q1767 916 1776 924L1963 1078Q1989 1100 2003.5 1129.5Q2018 1159 2018 1193V1352Q2018 1407 2057 1446Q2066 1455 2075.0 1466.0Q2084 1477 2094.5 1487.0Q2105 1497 2117.0 1503.5Q2129 1510 2143 1510Q2166 1510 2181.5 1494.5Q2197 1479 2197 1456Q2197 1437 2186.0 1423.0Q2175 1409 2161.5 1397.0Q2148 1385 2137.0 1374.5Q2126 1364 2126 1352Q2126 1299 2127.5 1250.5Q2129 1202 2122.5 1157.0Q2116 1112 2095.5 1071.0Q2075 1030 2031 994L1844 840Q1838 835 1828.0 832.0Q1818 829 1810 829ZM600 -285Q577 -285 561.5 -269.5Q546 -254 546 -231V-12Q546 31 562.0 71.0Q578 111 609 142L776 309Q792 325 814 325Q837 325 852.5 309.5Q868 294 868 271Q868 248 853 233L685 66Q653 34 653 -12V-231Q653 -254 638.0 -269.5Q623 -285 600 -285ZM2269 -231Q2269 -253 2253.0 -269.0Q2237 -285 2215 -285Q2192 -285 2176.5 -269.5Q2161 -254 2161 -231V-12Q2161 34 2129 66L1962 233Q1946 249 1946 271Q1946 294 1961.5 309.5Q1977 325 2000 325Q2022 325 2038 309L2205 142Q2236 111 2252.5 71.0Q2269 31 2269 -12ZM2358 618Q2341 618 2327.5 628.5Q2314 639 2302.5 654.5Q2291 670 2279.0 688.0Q2267 706 2253.0 721.5Q2239 737 2221.0 747.5Q2203 758 2179 758H1917Q1895 758 1879.0 774.0Q1863 790 1863 812Q1863 834 1879.0 850.0Q1895 866 1917 866H2179Q2222 866 2253.0 852.5Q2284 839 2308.5 816.5Q2333 794 2355.0 765.0Q2377 736 2401 705Q2412 691 2412 672Q2412 649 2396.5 633.5Q2381 618 2358 618ZM454 618Q480 618 498.0 640.0Q516 662 534.0 688.0Q552 714 575.0 736.0Q598 758 633 758H895Q918 758 933.5 773.5Q949 789 949 812Q949 834 933.0 850.0Q917 866 895 866H633Q590 866 559.0 852.5Q528 839 503.0 816.5Q478 794 456.5 765.0Q435 736 411 705Q400 691 400 672Q400 649 415.5 633.5Q431 618 454 618Z" style="fill:#14a085;stroke:none" transform="scale(1,-1) translate(0,-256)" /></svg>