<?xml version="1.0" encoding="utf-8" ?>
<svg baseProfile="full" height="256" version="1.1" width="256" xmlns="http://www.w3.org/2000/svg" xmlns:ev="http://www.w3.org/2001/xml-events" xmlns:xlink="http://www.w3.org/1999/xlink"><defs /><path d="M976 1150Q976 1183 988.5 1212.0Q1001 1241 1022.5 1262.5Q1044 1284 1073.0 1296.5Q1102 1309 1135 1309H1678Q1711 1309 1740.0 1296.5Q1769 1284 1790.5 1262.5Q1812 1241 1824.5 1212.0Q1837 1183 1837 1150V1078H976ZM1246 1007Q1284 1007 1309.5 981.5Q1335 956 1335 918V-218Q1335 -246 1315.5 -265.5Q1296 -285 1268 -285L1260 -284Q1122 -267 1004.5 -205.5Q887 -144 800.5 -48.5Q714 47 665.5 170.0Q617 293 617 434V603Q617 687 649.0 760.5Q681 834 736.0 888.5Q791 943 864.5 975.0Q938 1007 1022 1007ZM1792 1007Q1876 1007 1949.5 975.5Q2023 944 2078.0 889.0Q2133 834 2165.0 760.5Q2197 687 2197 603V434Q2197 293 2148.5 170.0Q2100 47 2013.5 -48.5Q1927 -144 1809.5 -205.5Q1692 -267 1554 -284L1546 -285Q1518 -285 1498.5 -265.5Q1479 -246 1479 -218V918Q1479 955 1505.5 981.0Q1532 1007 1569 1007Z" style="fill:#00d26a;stroke:none" transform="scale(1,-1) translate(0,-256)" /></svg>