<?xml version="1.0" encoding="utf-8" ?>
<svg baseProfile="full" height="256" version="1.1" width="256" xmlns="http://www.w3.org/2000/svg" xmlns:ev="http://www.w3.org/2001/xml-events" xmlns:xlink="http://www.w3.org/1999/xlink"><defs /><path d="M1765 541Q1765 512 1743.5 491.0Q1722 470 1693 470Q1664 470 1643.0 491.0Q1622 512 1622 541V759Q1622 788 1643.0 809.0Q1664 830 1693 830Q1722 830 1743.5 809.0Q1765 788 1765 759ZM2053 433Q2053 404 2031.5 382.5Q2010 361 1981 361Q1951 361 1930.0 382.0Q1909 403 1909 433V650Q1909 679 1930.5 700.5Q1952 722 1981 722Q2010 722 2031.5 700.5Q2053 679 2053 650ZM830 722Q859 722 880.5 700.5Q902 679 902 650V433Q902 404 880.5 382.5Q859 361 830 361Q800 361 779.0 382.0Q758 403 758 433V650Q758 680 779.0 701.0Q800 722 830 722ZM1195 541Q1195 512 1173.5 491.0Q1152 470 1123 470Q1094 470 1072.5 491.0Q1051 512 1051 541V759Q1051 788 1072.5 809.0Q1094 830 1123 830Q1152 830 1173.5 809.0Q1195 788 1195 759Z" style="fill:#f9c23c;stroke:none" transform="scale(1,-1) translate(0,-256)" /></svg>