<?xml version="1.0" encoding="utf-8" ?>
<svg baseProfile="full" height="256" version="1.1" width="256" xmlns="http://www.w3.org/2000/svg" xmlns:ev="http://www.w3.org/2001/xml-events" xmlns:xlink="http://www.w3.org/1999/xlink"><defs /><path d="M2413 -297H400V-130Q445 -130 472.5 -142.5Q500 -155 525.0 -170.0Q550 -185 578.0 -197.5Q606 -210 651 -210Q696 -210 723.5 -197.5Q751 -185 776.0 -170.0Q801 -155 829.0 -142.5Q857 -130 902 -130Q947 -130 975.0 -142.5Q1003 -155 1028.0 -170.0Q1053 -185 1081.0 -197.5Q1109 -210 1154 -210Q1199 -210 1226.5 -197.5Q1254 -185 1279.0 -170.0Q1304 -155 1332.0 -142.5Q1360 -130 1405 -130Q1450 -130 1478.0 -142.5Q1506 -155 1531.0 -170.0Q1556 -185 1584.0 -197.5Q1612 -210 1657 -210Q1702 -210 1730.0 -197.5Q1758 -185 1783.0 -170.0Q1808 -155 1835.5 -142.5Q1863 -130 1908 -130Q1953 -130 1981.5 -142.5Q2010 -155 2035.0 -170.0Q2060 -185 2088.0 -197.5Q2116 -210 2161 -210Q2206 -210 2234.0 -197.5Q2262 -185 2286.5 -170.0Q2311 -155 2339.5 -142.5Q2368 -130 2413 -130Z" style="fill:#00a6ed;stroke:none" transform="scale(1,-1) translate(0,-256)" /></svg>