<?xml version="1.0" encoding="utf-8" ?>
<svg baseProfile="full" height="256" version="1.1" width="256" xmlns="http://www.w3.org/2000/svg" xmlns:ev="http://www.w3.org/2001/xml-events" xmlns:xlink="http://www.w3.org/1999/xlink"><defs /><path d="M2367 1510Q2386 1510 2399.0 1496.5Q2412 1483 2412 1464V1150H2053L2145 1385Q2156 1413 2174.5 1436.0Q2193 1459 2217.0 1475.5Q2241 1492 2269.5 1501.0Q2298 1510 2328 1510ZM2412 216V144H863Q849 144 840.0 155.0Q831 166 831 180Q831 194 840.0 205.0Q849 216 863 216ZM2412 -287H1193Q1122 -287 1052.5 -272.5Q983 -258 918.0 -230.5Q853 -203 794.5 -163.0Q736 -123 687 -72H2412Z" style="fill:#533566;stroke:none" transform="scale(1,-1) translate(0,-256)" /></svg>