<?xml version="1.0" encoding="utf-8" ?>
<svg baseProfile="full" height="256" version="1.1" width="256" xmlns="http://www.w3.org/2000/svg" xmlns:ev="http://www.w3.org/2001/xml-events" xmlns:xlink="http://www.w3.org/1999/xlink"><defs /><path d="M1118 935 1318 1133Q1326 1141 1336.5 1145.5Q1347 1150 1358 1150Q1387 1150 1418.0 1148.5Q1449 1147 1478 1150L1645 1174Q1670 1178 1687.0 1182.0Q1704 1186 1729 1186Q1754 1186 1771.0 1182.0Q1788 1178 1813 1174L1981 1150Q1998 1148 2017.0 1149.0Q2036 1150 2053 1150Q2098 1150 2143.0 1153.5Q2188 1157 2233 1157Q2278 1157 2322.5 1154.5Q2367 1152 2412 1150V935L1981 887Q1949 884 1923.5 879.5Q1898 875 1873.5 871.5Q1849 868 1823.0 865.5Q1797 863 1765 863Q1733 863 1707.0 865.5Q1681 868 1656.5 871.5Q1632 875 1606.0 879.5Q1580 884 1549 887Z" style="fill:#cdc4d6;stroke:none" transform="scale(1,-1) translate(0,-256)" /></svg>