<?xml version="1.0" encoding="utf-8" ?>
<svg baseProfile="full" height="256" version="1.1" width="256" xmlns="http://www.w3.org/2000/svg" xmlns:ev="http://www.w3.org/2001/xml-events" xmlns:xlink="http://www.w3.org/1999/xlink"><defs /><path d="M1190 1006 1262 1078H2413V1006ZM999 575Q989 575 982.0 568.0Q975 561 975 551V456Q975 445 981.5 438.0Q988 431 999 431H1023Q1034 431 1040.5 438.0Q1047 445 1047 456V551Q1047 561 1040.0 568.0Q1033 575 1023 575ZM1118 551Q1118 561 1125.5 568.0Q1133 575 1143 575H1167Q1177 575 1184.0 568.0Q1191 561 1191 551V456Q1191 446 1184.0 438.5Q1177 431 1167 431H1143Q1132 431 1125.0 438.0Q1118 445 1118 456ZM1287 575Q1277 575 1270.0 568.0Q1263 561 1263 551V456Q1263 446 1270.0 438.5Q1277 431 1287 431H1311Q1322 431 1329.0 438.0Q1336 445 1336 456V551Q1336 561 1328.5 568.0Q1321 575 1311 575ZM1406 551Q1406 561 1413.0 568.0Q1420 575 1430 575H1454Q1464 575 1471.5 568.0Q1479 561 1479 551V456Q1479 445 1472.0 438.0Q1465 431 1454 431H1430Q1420 431 1413.0 438.5Q1406 446 1406 456ZM1790 575Q1780 575 1772.5 568.0Q1765 561 1765 551V456Q1765 445 1772.0 438.0Q1779 431 1790 431H1813Q1824 431 1831.0 438.0Q1838 445 1838 456V551Q1838 561 1830.5 568.0Q1823 575 1813 575ZM1909 551Q1909 561 1916.5 568.0Q1924 575 1934 575H1957Q1967 575 1974.5 568.0Q1982 561 1982 551V456Q1982 445 1975.0 438.0Q1968 431 1957 431H1934Q1923 431 1916.0 438.0Q1909 445 1909 456ZM2077 575Q2067 575 2060.0 568.0Q2053 561 2053 551V456Q2053 446 2060.0 438.5Q2067 431 2077 431H2101Q2112 431 2118.5 438.0Q2125 445 2125 456V551Q2125 561 2118.0 568.0Q2111 575 2101 575ZM2221 575Q2211 575 2204.0 568.0Q2197 561 2197 551V456Q2197 445 2203.5 438.0Q2210 431 2221 431H2245Q2255 431 2262.0 438.5Q2269 446 2269 456V551Q2269 561 2262.0 568.0Q2255 575 2245 575ZM976 863 903 791H2412V863ZM723 503Q708 503 697.5 513.5Q687 524 687 539Q687 554 697.5 564.5Q708 575 723 575Q738 575 748.5 564.5Q759 554 759 539Q759 524 748.5 513.5Q738 503 723 503Z" style="fill:#00a6ed;stroke:none" transform="scale(1,-1) translate(0,-256)" /></svg>