<?xml version="1.0" encoding="utf-8" ?>
<svg baseProfile="full" height="256" version="1.1" width="256" xmlns="http://www.w3.org/2000/svg" xmlns:ev="http://www.w3.org/2001/xml-events" xmlns:xlink="http://www.w3.org/1999/xlink"><defs /><path d="M1479 1164Q1479 1188 1495.5 1205.0Q1512 1222 1536 1222H1924Q1948 1222 1964.5 1204.5Q1981 1187 1981 1164V1150H1479ZM1100 935H2412V719L1933 671Q1898 668 1869.0 663.5Q1840 659 1813.0 655.5Q1786 652 1757.0 649.5Q1728 647 1693 647Q1651 647 1616.5 649.5Q1582 652 1549.5 655.5Q1517 659 1482.5 663.5Q1448 668 1406 671L831 719L1016 901Q1032 917 1054.5 926.0Q1077 935 1100 935Z" style="fill:#e1d8ec;stroke:none" transform="scale(1,-1) translate(0,-256)" /></svg>