<?xml version="1.0" encoding="utf-8" ?>
<svg baseProfile="full" height="256" version="1.1" width="256" xmlns="http://www.w3.org/2000/svg" xmlns:ev="http://www.w3.org/2001/xml-events" xmlns:xlink="http://www.w3.org/1999/xlink"><defs /><path d="M1925 1266Q1943 1227 1956.5 1187.0Q1970 1147 1981 1105Q1975 1088 1958.5 1074.5Q1942 1061 1925 1058Q1917 1043 1900.5 1028.0Q1884 1013 1865 1013Q1858 995 1839.5 984.0Q1821 973 1802 973Q1794 957 1777.5 944.5Q1761 932 1742 932Q1736 932 1733 933Q1723 919 1708.5 908.5Q1694 898 1676 898Q1669 898 1665 899Q1656 885 1641.5 875.5Q1627 866 1610 866Q1605 866 1595 868Q1592 862 1586.0 856.0Q1580 850 1572.0 845.5Q1564 841 1555.5 838.0Q1547 835 1540 835Q1530 835 1523 839Q1514 825 1500.5 816.5Q1487 808 1470 808Q1457 808 1449 812L1442 803Q1451 789 1451 773Q1451 757 1442 745Q1452 736 1458.0 723.5Q1464 711 1464 697Q1464 689 1462.5 681.5Q1461 674 1456 668Q1474 650 1474 625Q1474 609 1466 595Q1475 587 1481.0 576.0Q1487 565 1487 553Q1487 542 1483.5 533.0Q1480 524 1475 515Q1485 507 1491.0 495.5Q1497 484 1497 471Q1497 460 1492.5 448.5Q1488 437 1479 430Q1487 422 1492.0 411.5Q1497 401 1497 390Q1497 377 1490.5 365.5Q1484 354 1474 346Q1487 328 1487 307Q1487 293 1480.0 280.0Q1473 267 1459 261Q1463 253 1465.5 245.5Q1468 238 1468 230Q1468 214 1458.5 199.0Q1449 184 1432 180Q1434 173 1436.0 166.0Q1438 159 1438 151Q1438 131 1425.0 119.0Q1412 107 1394 103Q1399 74 1385.5 53.0Q1372 32 1340 32Q1342 9 1331.0 -10.0Q1320 -29 1294 -29Q1285 -29 1276 -26Q1275 -47 1263.0 -63.0Q1251 -79 1228 -79Q1216 -79 1202 -72Q1198 -90 1184.5 -102.5Q1171 -115 1152 -115Q1144 -115 1135.5 -112.0Q1127 -109 1122 -103Q1114 -116 1102.5 -126.5Q1091 -137 1075 -137Q1053 -137 1038 -117Q1030 -128 1018.0 -136.5Q1006 -145 992 -145Q978 -145 967.0 -137.0Q956 -129 951 -117Q933 -135 911 -135Q895 -135 881.5 -126.0Q868 -117 863 -102Q855 -105 846.5 -107.5Q838 -110 830 -110Q810 -110 797.0 -98.0Q784 -86 779 -68Q770 -70 759.0 -69.5Q748 -69 738.0 -66.0Q728 -63 720.5 -56.0Q713 -49 711 -38Q704 -28 692.0 -11.5Q680 5 666.5 21.5Q653 38 639.5 51.5Q626 65 616 70Q589 83 589 113Q589 123 591 128Q577 139 567.5 155.0Q558 171 558 189Q558 202 563 215Q552 225 547.0 239.0Q542 253 542 267Q542 275 544.0 287.5Q546 300 554 305Q544 327 544 346Q544 358 548.0 371.0Q552 384 560 393Q556 404 556 418Q556 425 558.0 434.0Q560 443 563.5 451.5Q567 460 572.5 467.0Q578 474 585 477Q583 500 593.0 522.0Q603 544 623 555Q625 578 638.5 598.0Q652 618 675 624Q680 649 696.0 665.0Q712 681 738 685Q746 711 764.5 723.0Q783 735 809 735Q817 754 835.0 764.5Q853 775 873 775Q876 775 879.5 775.0Q883 775 886 774Q895 789 908.5 798.5Q922 808 940 808Q953 808 962 804Q970 815 984.5 823.5Q999 832 1013 832Q1024 832 1032 827Q1041 839 1055.0 849.0Q1069 859 1085 859Q1094 859 1106 854Q1114 868 1126.0 876.0Q1138 884 1155 884Q1169 884 1181 878Q1188 892 1201.5 899.5Q1215 907 1230 907Q1241 907 1253 902Q1257 917 1272.0 926.0Q1287 935 1301 935Q1314 935 1326 929Q1330 943 1344.0 951.0Q1358 959 1372 959Q1384 959 1398 952Q1400 966 1413.0 975.0Q1426 984 1440 984Q1454 984 1465 976Q1467 992 1480.0 1002.0Q1493 1012 1509 1012Q1524 1012 1534 1002Q1533 1009 1537.0 1016.5Q1541 1024 1547.0 1029.5Q1553 1035 1560.5 1038.5Q1568 1042 1575 1042Q1581 1042 1587.0 1039.5Q1593 1037 1598 1033Q1600 1049 1612.0 1060.0Q1624 1071 1640 1071Q1650 1071 1662 1066Q1664 1083 1676.5 1094.5Q1689 1106 1706 1106Q1710 1106 1713.0 1105.5Q1716 1105 1720 1104Q1719 1121 1730.0 1132.0Q1741 1143 1758 1143Q1766 1143 1774 1140Q1772 1157 1784.5 1169.0Q1797 1181 1814 1181Q1822 1181 1826 1180Q1828 1203 1841.0 1213.0Q1854 1223 1876 1223Q1875 1241 1887.5 1253.5Q1900 1266 1918 1266ZM1278 737Q1270 735 1263.0 734.0Q1256 733 1248 733Q1243 733 1238.0 733.5Q1233 734 1229 737Q1221 724 1210.0 715.5Q1199 707 1183 707Q1167 707 1156 714Q1149 700 1137.5 690.5Q1126 681 1109 681Q1094 681 1084 688Q1077 675 1066.0 666.0Q1055 657 1040 657Q1025 657 1014 664Q1007 650 995.0 640.0Q983 630 967 630Q955 630 948 635Q943 621 932.5 611.5Q922 602 907 602Q896 602 888 606Q888 588 875.0 577.0Q862 566 845 566Q839 566 836 567Q835 548 823.5 535.0Q812 522 792 522Q794 505 785.0 489.5Q776 474 757 474Q761 457 754.5 441.0Q748 425 729 420Q736 412 736 400Q736 389 730.5 378.0Q725 367 714 363Q725 352 725 337Q725 317 708 305Q715 299 720.0 291.0Q725 283 725 274Q725 257 714 246Q733 236 733 217L808 107Q812 104 819.5 99.0Q827 94 834.0 88.0Q841 82 846.0 75.5Q851 69 851 63Q866 65 882.0 60.0Q898 55 906 40Q912 41 920.0 41.5Q928 42 936.5 41.0Q945 40 952.0 37.0Q959 34 963 29Q981 37 999 37Q1015 37 1023 28Q1032 34 1042.5 38.5Q1053 43 1064 43Q1073 43 1082 40Q1091 49 1102.5 55.5Q1114 62 1127 62Q1133 62 1136 61Q1146 75 1157.0 82.0Q1168 89 1185 89Q1190 103 1201.5 115.5Q1213 128 1228 130Q1230 145 1238.5 159.5Q1247 174 1264 176Q1260 192 1268.5 210.0Q1277 228 1294 231Q1290 240 1290 254Q1290 266 1295.0 278.0Q1300 290 1312 296Q1306 308 1306 322Q1306 347 1326 361Q1320 369 1317.5 378.0Q1315 387 1315 396Q1315 416 1328 429Q1321 436 1316.5 445.0Q1312 454 1312 465Q1312 474 1316.0 482.5Q1320 491 1326 497Q1318 505 1312.0 515.0Q1306 525 1306 537Q1306 554 1318 569Q1307 576 1300.0 587.5Q1293 599 1293 612Q1293 634 1309 648Q1296 654 1288.0 665.0Q1280 676 1280 690Q1280 698 1283.0 706.5Q1286 715 1294 720Q1289 722 1284.5 726.5Q1280 731 1278 737Z" style="fill:#00a6ed;stroke:none" transform="scale(1,-1) translate(0,-256)" /></svg>