<?xml version="1.0" encoding="utf-8" ?>
<svg baseProfile="full" height="256" version="1.1" width="256" xmlns="http://www.w3.org/2000/svg" xmlns:ev="http://www.w3.org/2001/xml-events" xmlns:xlink="http://www.w3.org/1999/xlink"><defs /><path d="M1925 1266Q1925 1279 1929.0 1292.5Q1933 1306 1950 1306Q1965 1306 1981.0 1292.0Q1997 1278 2009.5 1258.0Q2022 1238 2030.5 1217.0Q2039 1196 2039 1183Q2039 1169 2034.0 1154.5Q2029 1140 2019.5 1129.0Q2010 1118 1997.0 1111.0Q1984 1104 1969 1104Q1951 1104 1942.0 1124.5Q1933 1145 1929.0 1172.0Q1925 1199 1925.0 1226.0Q1925 1253 1925 1266Z" style="fill:#00a6ed;stroke:none" transform="scale(1,-1) translate(0,-256)" /></svg>