<?xml version="1.0" encoding="utf-8" ?>
<svg baseProfile="full" height="256" version="1.1" width="256" xmlns="http://www.w3.org/2000/svg" xmlns:ev="http://www.w3.org/2001/xml-events" xmlns:xlink="http://www.w3.org/1999/xlink"><defs /><path d="M1920 1291V1292Q1904 1292 1887.0 1299.0Q1870 1306 1865 1323Q1884 1335 1898.5 1351.5Q1913 1368 1928.5 1382.5Q1944 1397 1962.0 1407.0Q1980 1417 2007 1417Q2038 1417 2053.5 1400.0Q2069 1383 2073 1354H2077Q2075 1354 2072.0 1354.5Q2069 1355 2067 1355Q2051 1355 2030.5 1349.0Q2010 1343 1990.0 1334.0Q1970 1325 1951.5 1313.5Q1933 1302 1921 1292Z" style="fill:#1345b7;stroke:none" transform="scale(1,-1) translate(0,-256)" /></svg>