<?xml version="1.0" encoding="utf-8" ?>
<svg baseProfile="full" height="256" version="1.1" width="256" xmlns="http://www.w3.org/2000/svg" xmlns:ev="http://www.w3.org/2001/xml-events" xmlns:xlink="http://www.w3.org/1999/xlink"><defs /><path d="M1623 1411Q1623 1431 1631.5 1454.0Q1640 1477 1657 1490V1491Q1665 1502 1678.5 1507.5Q1692 1513 1706 1513Q1727 1513 1745 1500L1746 1501L1745 1500Q1725 1482 1713.5 1464.5Q1702 1447 1696.0 1428.0Q1690 1409 1688.5 1387.5Q1687 1366 1686 1341Q1678 1332 1668.5 1326.0Q1659 1320 1647 1320Q1636 1320 1627 1323Q1627 1345 1625.0 1367.0Q1623 1389 1623 1411ZM1575 1296Q1568 1322 1559.5 1348.0Q1551 1374 1551 1401Q1551 1421 1557.5 1437.0Q1564 1453 1572 1472L1568 1465Q1564 1466 1556 1466Q1536 1466 1516.0 1456.0Q1496 1446 1490 1424V1423Q1485 1415 1483.5 1405.0Q1482 1395 1482 1385Q1482 1367 1487.5 1350.5Q1493 1334 1500.0 1319.0Q1507 1304 1514.5 1288.5Q1522 1273 1526 1256V1257Q1564 1261 1575 1296ZM1419 1370 1418 1363Q1406 1363 1394.5 1357.0Q1383 1351 1374.5 1341.5Q1366 1332 1362.0 1320.0Q1358 1308 1362 1296H1361Q1361 1270 1372.5 1252.0Q1384 1234 1399.5 1218.5Q1415 1203 1430.5 1188.0Q1446 1173 1453 1154L1455 1152L1454 1156Q1468 1161 1476.0 1171.5Q1484 1182 1484 1197Q1484 1210 1473.5 1226.0Q1463 1242 1450.5 1261.0Q1438 1280 1427.5 1301.0Q1417 1322 1417 1346Q1417 1352 1418.0 1358.0Q1419 1364 1419 1370ZM1432 1099Q1416 1111 1398.0 1123.5Q1380 1136 1363.5 1150.5Q1347 1165 1333.5 1181.5Q1320 1198 1314 1218Q1299 1209 1288.5 1194.0Q1278 1179 1278 1161Q1278 1148 1285 1132V1131Q1298 1108 1317.5 1095.0Q1337 1082 1357.0 1072.5Q1377 1063 1395.0 1053.5Q1413 1044 1423 1029L1421 1032Q1440 1046 1440 1069Q1440 1085 1432 1099ZM1426 962Q1413 969 1389.5 978.5Q1366 988 1341.0 998.5Q1316 1009 1296.0 1020.5Q1276 1032 1271 1044Q1261 1037 1256.0 1026.0Q1251 1015 1251 1003Q1251 991 1255.5 980.5Q1260 970 1267 960H1266H1267Q1279 949 1300.0 939.0Q1321 929 1344.5 920.0Q1368 911 1391.0 903.0Q1414 895 1430 889Q1428 907 1427.0 925.5Q1426 944 1426 962ZM1438 813Q1424 817 1410.5 820.5Q1397 824 1383 824Q1377 824 1368.0 821.5Q1359 819 1351.5 815.0Q1344 811 1338.5 804.5Q1333 798 1333 791Q1333 785 1347.5 779.5Q1362 774 1381.0 768.5Q1400 763 1418.0 757.0Q1436 751 1444 744L1442 745Q1451 757 1451 774Q1451 793 1438 808ZM1271 1045V1044ZM1808 1340Q1794 1334 1780 1334Q1761 1334 1748 1346Q1753 1368 1761.5 1394.5Q1770 1421 1784.0 1443.5Q1798 1466 1818.0 1481.5Q1838 1497 1867 1497Q1886 1497 1900.5 1488.0Q1915 1479 1925 1463V1462Q1898 1453 1881.0 1441.0Q1864 1429 1852.5 1414.0Q1841 1399 1831.0 1380.5Q1821 1362 1808 1340ZM1960 1253Q1979 1253 1997.0 1257.0Q2015 1261 2033.0 1266.0Q2051 1271 2069.0 1275.0Q2087 1279 2106 1279Q2116 1279 2127.0 1276.5Q2138 1274 2147.5 1268.5Q2157 1263 2163.5 1254.5Q2170 1246 2170 1234Q2170 1225 2165.5 1216.5Q2161 1208 2156 1200L2160 1198Q2152 1200 2143.5 1201.5Q2135 1203 2126 1203Q2106 1203 2086.0 1201.5Q2066 1200 2046 1200Q2012 1200 1991.5 1209.0Q1971 1218 1960 1253ZM2015 1141Q2015 1144 2015.0 1147.5Q2015 1151 2016 1154Q2030 1143 2049.5 1137.5Q2069 1132 2090.0 1129.5Q2111 1127 2131.5 1125.0Q2152 1123 2168.0 1117.5Q2184 1112 2194.0 1102.0Q2204 1092 2204 1073Q2204 1060 2196.0 1049.5Q2188 1039 2176 1034H2177H2176Q2159 1037 2143.0 1042.5Q2127 1048 2111 1053L2091 1059Q2062 1068 2038.5 1087.5Q2015 1107 2015 1141ZM2019 987Q2016 996 2016 1006Q2016 1017 2019.0 1026.5Q2022 1036 2029 1044H2030Q2043 1015 2068.5 999.5Q2094 984 2119.0 972.5Q2144 961 2163.0 950.0Q2182 939 2182 918Q2182 900 2169.5 885.5Q2157 871 2137 876L2139 874Q2135 878 2130.0 880.5Q2125 883 2120 886Q2106 894 2090.5 904.5Q2075 915 2061.0 928.0Q2047 941 2036.0 955.5Q2025 970 2020 986ZM1974 885Q1974 899 1980.5 913.0Q1987 927 2000 934Q2005 905 2021.5 884.0Q2038 863 2055.5 846.5Q2073 830 2087.0 815.0Q2101 800 2101 782Q2101 762 2090.0 750.0Q2079 738 2059 738Q2056 738 2053.0 738.5Q2050 739 2047 739Q2040 760 2028.0 774.5Q2016 789 2004.0 804.0Q1992 819 1983.0 837.5Q1974 856 1974 885ZM1936 840Q1934 835 1934.0 831.5Q1934 828 1934 823Q1934 801 1942.0 782.0Q1950 763 1959.0 745.0Q1968 727 1976.0 710.0Q1984 693 1984 675Q1984 656 1970.0 643.0Q1956 630 1937 630Q1926 630 1916 633Q1916 650 1911.5 666.0Q1907 682 1902.0 698.0Q1897 714 1892.5 729.5Q1888 745 1888 762Q1888 773 1890.0 786.5Q1892 800 1897.5 812.0Q1903 824 1912.0 832.0Q1921 840 1936 840ZM1828 762Q1835 762 1839 761Q1832 747 1832 729Q1832 699 1840.0 670.0Q1848 641 1848 611Q1848 605 1846 595V594L1845 595Q1842 578 1828.0 566.0Q1814 554 1797 554Q1785 554 1772 559L1771 556Q1773 567 1775.5 578.0Q1778 589 1778 600Q1778 623 1773.0 644.5Q1768 666 1768 689Q1768 701 1772.5 714.0Q1777 727 1784.5 737.5Q1792 748 1803.0 755.0Q1814 762 1828 762ZM1694 702Q1703 702 1712 699V698Q1704 687 1703.0 672.5Q1702 658 1702 645Q1702 625 1704.5 606.0Q1707 587 1707 567Q1707 547 1697 531V530Q1688 519 1675.5 509.0Q1663 499 1647 499Q1640 499 1633.5 501.0Q1627 503 1620 505L1618 502Q1628 515 1632.5 529.0Q1637 543 1637.5 557.0Q1638 571 1637.0 586.0Q1636 601 1636 617Q1636 631 1638.5 646.0Q1641 661 1647.5 673.5Q1654 686 1665.0 694.0Q1676 702 1694 702ZM1550 656Q1565 656 1575 649H1576Q1568 632 1567.0 612.0Q1566 592 1565.5 570.5Q1565 549 1561.0 527.0Q1557 505 1544 484L1545 483H1544Q1539 471 1527.0 464.0Q1515 457 1502 457Q1492 457 1482 460Q1482 461 1481.5 461.5Q1481 462 1481 463Q1481 471 1483.0 479.5Q1485 488 1487 496Q1491 513 1491.5 540.5Q1492 568 1495.5 593.5Q1499 619 1511.0 637.5Q1523 656 1550 656Z" style="fill:#1345b7;stroke:none" transform="scale(1,-1) translate(0,-256)" /></svg>