<?xml version="1.0" encoding="utf-8" ?>
<svg baseProfile="full" height="256" version="1.1" width="256" xmlns="http://www.w3.org/2000/svg" xmlns:ev="http://www.w3.org/2001/xml-events" xmlns:xlink="http://www.w3.org/1999/xlink"><defs /><path d="M1135 505Q1138 521 1150.0 533.5Q1162 546 1179 546Q1194 546 1208 538Q1214 553 1226.0 563.5Q1238 574 1255 574Q1270 574 1282 565Q1280 558 1280.0 551.5Q1280 545 1280 538Q1280 521 1281.0 505.0Q1282 489 1282 472Q1282 453 1278.0 434.5Q1274 416 1264.0 401.5Q1254 387 1238.5 378.0Q1223 369 1201 371Q1191 357 1175.5 348.0Q1160 339 1143 341Q1133 324 1118.5 313.5Q1104 303 1084 305Q1081 297 1075.0 289.0Q1069 281 1061.5 274.5Q1054 268 1045.0 264.5Q1036 261 1027 262Q1020 245 1005.0 232.5Q990 220 971 218Q962 199 950.0 186.0Q938 173 915 173Q913 153 897.5 139.0Q882 125 863 121Q858 101 845.0 86.0Q832 71 810 69Q810 60 806.0 50.0Q802 40 796.0 31.5Q790 23 781.0 18.0Q772 13 762 15Q759 -5 746.5 -22.5Q734 -40 712 -43Q709 -64 698.0 -79.0Q687 -94 665 -98Q665 -108 662.0 -118.5Q659 -129 653.0 -138.0Q647 -147 638.0 -152.5Q629 -158 618 -158Q618 -167 615.0 -178.5Q612 -190 606.0 -199.5Q600 -209 591.0 -214.5Q582 -220 570 -218Q570 -234 562.5 -247.5Q555 -261 543.5 -270.0Q532 -279 517.5 -282.0Q503 -285 490 -279Q482 -282 475 -282Q458 -282 444.5 -272.0Q431 -262 422.0 -247.0Q413 -232 408.0 -214.5Q403 -197 403 -182Q403 -161 416.0 -146.0Q429 -131 451 -131Q450 -127 450 -120Q450 -99 464.5 -84.0Q479 -69 499 -66Q499 -43 509.5 -25.0Q520 -7 547 -7Q547 18 559.5 35.0Q572 52 598 54Q598 79 608.5 96.5Q619 114 648 111Q648 113 647.5 115.5Q647 118 647 120Q647 145 661.5 159.0Q676 173 701 173Q702 197 716.0 215.0Q730 233 757 227Q757 251 773.0 269.0Q789 287 815 280Q816 305 831.5 321.5Q847 338 873 332Q874 359 892.0 372.5Q910 386 936 380Q938 400 947.5 414.5Q957 429 979 429Q991 429 999 425Q999 444 1009.5 458.5Q1020 473 1040 473Q1051 473 1064 468Q1068 485 1078.5 498.5Q1089 512 1109 512Q1121 512 1135 505Z" style="fill:#00a6ed;stroke:none" transform="scale(1,-1) translate(0,-256)" /></svg>