<?xml version="1.0" encoding="utf-8" ?>
<svg baseProfile="full" height="256" version="1.1" width="256" xmlns="http://www.w3.org/2000/svg" xmlns:ev="http://www.w3.org/2001/xml-events" xmlns:xlink="http://www.w3.org/1999/xlink"><defs /><path d="M1988 1151Q1988 1119 1973.5 1091.5Q1959 1064 1925 1058Q1930 1069 1932.0 1085.0Q1934 1101 1934 1114Q1934 1148 1921.0 1177.5Q1908 1207 1876 1224Q1876 1241 1888.0 1253.5Q1900 1266 1917 1266Q1933 1266 1946.0 1253.0Q1959 1240 1968.5 1221.5Q1978 1203 1983.0 1183.5Q1988 1164 1988 1151ZM1865 1013Q1858 995 1839.5 984.0Q1821 973 1802 973Q1810 983 1812.5 1004.5Q1815 1026 1815 1039Q1815 1067 1806.0 1095.0Q1797 1123 1774 1141Q1774 1158 1785.0 1169.5Q1796 1181 1814 1181Q1829 1181 1840.5 1168.5Q1852 1156 1860.5 1139.0Q1869 1122 1873.5 1103.5Q1878 1085 1878 1073Q1878 1058 1874.5 1042.5Q1871 1027 1866 1013ZM1733 933Q1723 919 1708.0 908.5Q1693 898 1675 898Q1668 898 1665 899Q1676 915 1679.5 934.5Q1683 954 1683 973Q1683 997 1677.5 1020.5Q1672 1044 1662 1066V1067V1066Q1664 1083 1676.5 1094.5Q1689 1106 1706 1106Q1710 1106 1713.0 1105.5Q1716 1105 1720 1104Q1736 1086 1742.5 1059.5Q1749 1033 1749 1010Q1749 969 1734 933ZM1595 868Q1592 874 1582.5 895.0Q1573 916 1562.0 939.5Q1551 963 1542.5 983.0Q1534 1003 1534 1006Q1534 1020 1548.0 1031.0Q1562 1042 1575 1042Q1587 1042 1597 1034Q1605 1013 1609.0 990.5Q1613 968 1613 945Q1613 925 1609.5 905.0Q1606 885 1595 868ZM1397 952H1398Q1400 966 1413.0 975.0Q1426 984 1440 984Q1454 984 1465 976Q1465 956 1466.5 936.0Q1468 916 1468 896Q1468 876 1465.0 855.5Q1462 835 1453.5 819.0Q1445 803 1429.5 793.0Q1414 783 1389 783Q1381 783 1377 784Q1385 796 1388.5 812.0Q1392 828 1393.0 844.5Q1394 861 1393.5 877.5Q1393 894 1393 908Q1393 919 1393.5 930.0Q1394 941 1397 952ZM1301 935Q1314 935 1325 929Q1320 915 1319.5 895.0Q1319 875 1318.0 853.0Q1317 831 1315.0 809.5Q1313 788 1306.0 771.0Q1299 754 1285.0 743.5Q1271 733 1248 733Q1243 733 1238.5 733.5Q1234 734 1229 737Q1236 749 1238.5 768.5Q1241 788 1241.5 810.0Q1242 832 1243.5 854.5Q1245 877 1250.5 894.5Q1256 912 1267.5 923.5Q1279 935 1301 935ZM1155 884Q1169 884 1181 878Q1174 868 1170.5 854.5Q1167 841 1166.0 826.5Q1165 812 1165.5 798.0Q1166 784 1166 772Q1166 759 1165.0 741.5Q1164 724 1157 713L1156 714Q1149 700 1137.5 690.0Q1126 680 1109 680Q1097 680 1085 687V688Q1085 703 1088.0 718.0Q1091 733 1091 749Q1091 766 1091.5 789.0Q1092 812 1098.0 833.0Q1104 854 1117.0 869.0Q1130 884 1155 884ZM961 804H962Q970 816 984.0 824.0Q998 832 1012 832Q1021 832 1031 827Q1022 814 1018.0 797.5Q1014 781 1014 766Q1014 749 1016.5 731.0Q1019 713 1019 696Q1019 677 1015 664H1014Q1007 650 995.0 640.0Q983 630 967 630Q955 630 948 635Q948 657 944.5 678.5Q941 700 941 722Q941 743 945.5 764.5Q950 786 961 804ZM808 735H809Q817 753 834.5 764.0Q852 775 872 775Q875 775 878.5 775.0Q882 775 885 774Q874 761 869.5 743.0Q865 725 865 708Q865 685 873.0 656.0Q881 627 888 605V606Q888 589 875.5 577.5Q863 566 846 566Q840 566 837 567Q829 576 822.0 590.0Q815 604 810.0 619.5Q805 635 801.5 650.0Q798 665 798 677Q798 709 808 735ZM737 685Q731 664 731 641Q731 605 747.0 574.5Q763 544 792 522Q793 519 793 514Q793 499 783.0 486.5Q773 474 757 474L756 475Q737 480 722.0 495.0Q707 510 696.5 529.0Q686 548 680.0 569.0Q674 590 674 608Q674 638 690.5 659.0Q707 680 737 685ZM584 476Q588 500 592.5 520.5Q597 541 622 555H623Q623 505 652.0 467.5Q681 430 729 419H730Q736 410 736 400Q736 389 730.5 378.5Q725 368 714 363Q690 363 669.0 372.5Q648 382 631.0 398.0Q614 414 602.0 434.5Q590 455 584 476ZM553 304 554 305Q544 327 544 346Q544 373 559 393V392Q568 371 583.5 353.0Q599 335 619.5 323.0Q640 311 663.0 305.5Q686 300 709 304Q716 298 720.5 290.0Q725 282 725 273Q725 257 714 246Q691 243 668 243Q628 243 602.0 258.0Q576 273 553 304ZM591 128Q577 139 567.5 155.0Q558 171 558 190Q558 205 563 215Q582 195 607.0 186.5Q632 178 658 178Q672 178 685.0 179.5Q698 181 711 186Q719 183 727.0 176.5Q735 170 735 161Q735 150 724.0 141.5Q713 133 698.5 127.0Q684 121 669.0 118.0Q654 115 646 115Q620 115 592 128H590ZM862 -103Q854 -106 846.0 -108.0Q838 -110 830 -110Q810 -110 797.0 -98.0Q784 -86 779 -68Q803 -62 819.0 -46.0Q835 -30 848.5 -12.5Q862 5 875.0 20.0Q888 35 906 40V41Q911 42 921 42Q931 42 943.5 39.5Q956 37 963 29L965 30Q942 16 932.0 0.5Q922 -15 912 -39Q903 -60 889.5 -73.0Q876 -86 862 -103ZM992 -145Q979 -145 967.5 -137.5Q956 -130 951 -118Q963 -104 970.5 -82.5Q978 -61 984.5 -39.5Q991 -18 999.5 0.5Q1008 19 1022 28H1023Q1033 34 1043.5 38.5Q1054 43 1065 43Q1070 43 1073.5 42.5Q1077 42 1082 41Q1070 30 1064.5 12.0Q1059 -6 1056.0 -26.5Q1053 -47 1050.5 -68.5Q1048 -90 1042.0 -107.0Q1036 -124 1024.5 -134.5Q1013 -145 992 -145ZM1152 -115Q1144 -115 1135.5 -112.0Q1127 -109 1122 -103V-102Q1122 -93 1125.0 -85.0Q1128 -77 1128 -68Q1128 -51 1125.0 -33.0Q1122 -15 1122 2Q1122 30 1135 61H1136Q1145 74 1156.5 81.5Q1168 89 1184 89Q1181 75 1181 62Q1181 46 1184.5 31.0Q1188 16 1192.0 1.0Q1196 -14 1199.5 -29.0Q1203 -44 1203 -60Q1203 -82 1189.0 -98.5Q1175 -115 1152 -115ZM1340 24Q1340 3 1328.0 -13.5Q1316 -30 1293 -30Q1284 -30 1277 -27Q1277 -7 1269.0 11.5Q1261 30 1252.0 48.0Q1243 66 1235.0 83.5Q1227 101 1227 121Q1227 138 1236.0 156.0Q1245 174 1264 176V173Q1264 162 1276.0 144.0Q1288 126 1302.0 105.0Q1316 84 1328.0 63.0Q1340 42 1340 24ZM1437 152Q1437 132 1425.0 119.5Q1413 107 1394 103Q1389 122 1372.5 140.0Q1356 158 1337.5 175.5Q1319 193 1304.5 212.0Q1290 231 1290 254Q1290 266 1295.0 278.0Q1300 290 1312 296L1311 297L1312 296L1313 295Q1321 285 1327.0 277.5Q1333 270 1339.0 264.0Q1345 258 1352.0 252.5Q1359 247 1371 240Q1410 217 1432 180V179Q1434 172 1435.5 166.0Q1437 160 1437 152ZM1488 307Q1488 293 1480.5 280.5Q1473 268 1460 262Q1440 285 1421.0 298.0Q1402 311 1375 323Q1369 326 1361.5 329.5Q1354 333 1346.5 337.5Q1339 342 1333.0 348.0Q1327 354 1325 360L1326 361Q1320 369 1317.5 378.0Q1315 387 1315 396Q1315 416 1328 429L1327 430L1329 429Q1343 410 1369.5 400.0Q1396 390 1422.5 379.5Q1449 369 1468.5 353.0Q1488 337 1488 307ZM1497 471Q1497 460 1492.5 448.5Q1488 437 1479 430Q1463 445 1434.0 454.5Q1405 464 1376.5 474.5Q1348 485 1327.0 499.0Q1306 513 1306 538Q1306 555 1317 569Q1336 561 1355.0 556.5Q1374 552 1394 548Q1418 543 1435.5 533.0Q1453 523 1475 515Q1485 504 1491.0 495.5Q1497 487 1497 471ZM1456 669V668Q1474 650 1474 625Q1474 609 1466 595Q1448 607 1428.5 613.5Q1409 620 1388.5 624.5Q1368 629 1348.0 634.0Q1328 639 1309 648L1308 649Q1296 654 1288.0 664.5Q1280 675 1280 689Q1280 700 1284.0 706.0Q1288 712 1295 720Q1318 711 1337.5 709.5Q1357 708 1376.0 705.5Q1395 703 1414.0 696.0Q1433 689 1456 669ZM852 63Q839 61 826.5 53.5Q814 46 802.0 36.5Q790 27 778.5 17.0Q767 7 756 0L738 60L826 94Q831 89 841.0 80.5Q851 72 851 65V63ZM1595 868Q1590 854 1571.5 844.5Q1553 835 1539 835Q1531 835 1524 838Q1534 857 1538.0 878.0Q1542 899 1542 920Q1542 941 1539.0 961.5Q1536 982 1534 1002Z" style="fill:#1345b7;stroke:none" transform="scale(1,-1) translate(0,-256)" /></svg>