<?xml version="1.0" encoding="utf-8" ?>
<svg baseProfile="full" height="256" version="1.1" width="256" xmlns="http://www.w3.org/2000/svg" xmlns:ev="http://www.w3.org/2001/xml-events" xmlns:xlink="http://www.w3.org/1999/xlink"><defs /><path d="M2065 1396Q2061 1403 2061 1411Q2061 1431 2074.5 1445.0Q2088 1459 2108 1459Q2124 1452 2138.5 1438.5Q2153 1425 2163.0 1408.5Q2173 1392 2179.0 1373.5Q2185 1355 2185 1337Q2185 1318 2181 1305H2180Q2171 1288 2160.0 1272.5Q2149 1257 2133 1246L2051 1384ZM2273 1418H2272Q2269 1377 2228 1361Q2229 1366 2229.5 1371.0Q2230 1376 2230 1381Q2230 1423 2209.0 1457.0Q2188 1491 2153 1513Q2151 1521 2151 1526Q2151 1548 2163.5 1558.0Q2176 1568 2196 1568Q2215 1551 2229.5 1535.5Q2244 1520 2254.0 1503.0Q2264 1486 2268.5 1465.5Q2273 1445 2273 1418ZM2320 1480Q2320 1517 2306.5 1539.5Q2293 1562 2277.5 1578.5Q2262 1595 2248.5 1608.0Q2235 1621 2235 1639Q2235 1657 2248.5 1671.0Q2262 1685 2280 1686Q2280 1672 2293.0 1657.0Q2306 1642 2321.5 1625.5Q2337 1609 2350.0 1590.5Q2363 1572 2363 1551Q2363 1527 2353.5 1507.5Q2344 1488 2320 1480Z" style="fill:#1345b7;stroke:none" transform="scale(1,-1) translate(0,-256)" /></svg>