<?xml version="1.0" encoding="utf-8" ?>
<svg baseProfile="full" height="256" version="1.1" width="256" xmlns="http://www.w3.org/2000/svg" xmlns:ev="http://www.w3.org/2001/xml-events" xmlns:xlink="http://www.w3.org/1999/xlink"><defs /><path d="M2179 1581Q2196 1581 2211.5 1572.5Q2227 1564 2236 1549L2379 1306Q2396 1277 2405.5 1246.0Q2415 1215 2415 1182Q2415 1132 2396.0 1089.0Q2377 1046 2345.0 1014.5Q2313 983 2269.0 965.0Q2225 947 2176 947Q2129 947 2087.0 965.5Q2045 984 2013.5 1016.0Q1982 1048 1963.0 1089.5Q1944 1131 1944 1178Q1944 1190 1946.0 1205.0Q1948 1220 1951.0 1235.0Q1954 1250 1958.5 1264.5Q1963 1279 1968 1289Q1970 1292 1971.0 1294.0Q1972 1296 1974 1298Q1976 1300 1977.0 1301.5Q1978 1303 1980 1305L2123 1549Q2142 1581 2179 1581Z" style="fill:#f8312f;stroke:none" transform="scale(1,-1) translate(0,-256)" /></svg>