<?xml version="1.0" encoding="utf-8" ?>
<svg baseProfile="full" height="256" version="1.1" width="256" xmlns="http://www.w3.org/2000/svg" xmlns:ev="http://www.w3.org/2001/xml-events" xmlns:xlink="http://www.w3.org/1999/xlink"><defs /><path d="M1118 1510Q1227 1510 1318.5 1481.0Q1410 1452 1503 1398L2344 913Q2377 894 2395.5 861.5Q2414 829 2414 791Q2414 753 2394.5 720.0Q2375 687 2343 668L1492 177Q1402 125 1312.0 98.5Q1222 72 1118 72Q969 72 838.5 128.5Q708 185 610.5 283.0Q513 381 456.5 511.5Q400 642 400 791Q400 890 425.5 982.0Q451 1074 498.0 1153.5Q545 1233 610.5 1299.0Q676 1365 756.0 1411.5Q836 1458 927.5 1484.0Q1019 1510 1118 1510Z" style="fill:#ff822d;stroke:none" transform="scale(1,-1) translate(0,-256)" /></svg>