<?xml version="1.0" encoding="utf-8" ?>
<svg baseProfile="full" height="256" version="1.1" width="256" xmlns="http://www.w3.org/2000/svg" xmlns:ev="http://www.w3.org/2001/xml-events" xmlns:xlink="http://www.w3.org/1999/xlink"><defs /><path d="M1196 1411Q1196 1427 1206.0 1438.0Q1216 1449 1232 1449Q1246 1449 1257.0 1438.5Q1268 1428 1268 1414Q1268 1398 1258.0 1387.5Q1248 1377 1232 1377Q1217 1377 1206.5 1386.5Q1196 1396 1196 1411ZM744 1333Q744 1347 755.0 1358.0Q766 1369 780 1369Q794 1369 804.5 1358.0Q815 1347 815 1333Q815 1319 804.5 1308.0Q794 1297 780 1297Q765 1297 754.5 1307.5Q744 1318 744 1333ZM1618 1208Q1618 1223 1628.5 1233.5Q1639 1244 1654 1244Q1668 1244 1679.0 1233.0Q1690 1222 1690 1208Q1690 1194 1679.0 1183.0Q1668 1172 1654 1172Q1639 1172 1628.5 1182.5Q1618 1193 1618 1208ZM2026 972Q2026 986 2037.0 997.0Q2048 1008 2062 1008Q2076 1008 2087.0 997.0Q2098 986 2098 972Q2098 957 2087.5 946.5Q2077 936 2062 936Q2048 936 2037.0 947.0Q2026 958 2026 972ZM464 967Q464 981 474.5 992.5Q485 1004 500 1004Q515 1004 525.5 993.0Q536 982 536 967Q536 953 525.0 942.5Q514 932 500 932Q485 932 474.5 942.0Q464 952 464 967ZM2118 662Q2118 676 2129.0 687.0Q2140 698 2154 698Q2168 698 2179.0 687.0Q2190 676 2190 662Q2190 648 2179.0 637.0Q2168 626 2154 626Q2140 626 2129.0 637.0Q2118 648 2118 662ZM505 509Q505 524 515.0 535.0Q525 546 541 546Q555 546 566.0 535.0Q577 524 577 510Q577 495 566.5 484.5Q556 474 541 474Q527 474 516.0 484.5Q505 495 505 509ZM1711 427Q1711 442 1721.5 452.5Q1732 463 1747 463Q1761 463 1772.0 452.0Q1783 441 1783 427Q1783 413 1772.0 402.0Q1761 391 1747 391Q1733 391 1722.0 402.0Q1711 413 1711 427ZM843 199Q843 214 853.0 225.0Q863 236 879 236Q895 236 905.0 225.5Q915 215 915 199Q915 185 904.0 174.0Q893 163 879 163Q865 163 854.0 174.0Q843 185 843 199ZM1301 199Q1301 214 1312.0 224.5Q1323 235 1338 235Q1352 235 1362.5 224.0Q1373 213 1373 199Q1373 184 1362.5 173.5Q1352 163 1337 163Q1322 163 1311.5 173.5Q1301 184 1301 199Z" style="fill:#00d26a;stroke:none" transform="scale(1,-1) translate(0,-256)" /></svg>