<?xml version="1.0" encoding="utf-8" ?>
<svg baseProfile="full" height="256" version="1.1" width="256" xmlns="http://www.w3.org/2000/svg" xmlns:ev="http://www.w3.org/2001/xml-events" xmlns:xlink="http://www.w3.org/1999/xlink"><defs /><path d="M1118 252Q1007 252 908.5 294.5Q810 337 737.0 410.0Q664 483 621.5 581.5Q579 680 579 791Q579 902 621.5 1000.0Q664 1098 737.5 1171.5Q811 1245 909.0 1287.5Q1007 1330 1118 1330Q1162 1330 1200.0 1324.0Q1238 1318 1273.0 1307.0Q1308 1296 1342.5 1279.5Q1377 1263 1415 1241L2147 820Q2163 810 2163 791Q2163 773 2147 763L1402 333Q1333 293 1265.5 272.5Q1198 252 1118 252Z" style="fill:#ffb02e;stroke:none" transform="scale(1,-1) translate(0,-256)" /></svg>