<?xml version="1.0" encoding="utf-8" ?>
<svg baseProfile="full" height="256" version="1.1" width="256" xmlns="http://www.w3.org/2000/svg" xmlns:ev="http://www.w3.org/2001/xml-events" xmlns:xlink="http://www.w3.org/1999/xlink"><defs /><path d="M1702 20Q1589 -94 1452.0 -154.5Q1315 -215 1154 -215Q1030 -215 915.0 -176.0Q800 -137 704.0 -66.0Q608 5 537.0 104.0Q466 203 431 322Q418 367 409.0 412.5Q400 458 400 505V791H443Q483 904 554.0 996.5Q625 1089 718.5 1155.0Q812 1221 923.0 1257.5Q1034 1294 1154 1294Q1290 1294 1414.0 1248.0Q1538 1202 1637.0 1119.5Q1736 1037 1804.0 924.0Q1872 811 1897 677H2358Z" style="fill:#7d4533;stroke:none" transform="scale(1,-1) translate(0,-256)" /></svg>