<?xml version="1.0" encoding="utf-8" ?>
<svg baseProfile="full" height="256" version="1.1" width="256" xmlns="http://www.w3.org/2000/svg" xmlns:ev="http://www.w3.org/2001/xml-events" xmlns:xlink="http://www.w3.org/1999/xlink"><defs /><path d="M2168 1051Q2187 1051 2200.0 1038.0Q2213 1025 2213 1006Q2213 952 2192.5 904.5Q2172 857 2136.5 822.0Q2101 787 2053.5 766.5Q2006 746 1952 746H1837Q1818 746 1805.0 759.0Q1792 772 1792 791Q1792 810 1805.0 823.0Q1818 836 1837 836H1952Q1987 836 2018.0 849.5Q2049 863 2072.5 886.0Q2096 909 2109.5 940.0Q2123 971 2123 1006Q2123 1025 2136.0 1038.0Q2149 1051 2168 1051Z" style="fill:#321b41;stroke:none" transform="scale(1,-1) translate(0,-256)" /></svg>