<?xml version="1.0" encoding="utf-8" ?>
<svg baseProfile="full" height="256" version="1.1" width="256" xmlns="http://www.w3.org/2000/svg" xmlns:ev="http://www.w3.org/2001/xml-events" xmlns:xlink="http://www.w3.org/1999/xlink"><defs /><path d="M1093 431Q1018 431 952.5 459.5Q887 488 838.5 536.5Q790 585 761.5 650.5Q733 716 733 791Q733 866 761.5 931.0Q790 996 839.0 1045.0Q888 1094 953.5 1122.0Q1019 1150 1093 1150Q1167 1150 1232.5 1121.5Q1298 1093 1346.5 1044.5Q1395 996 1423.5 930.5Q1452 865 1452 791Q1452 717 1424.0 651.5Q1396 586 1347.0 537.0Q1298 488 1233.0 459.5Q1168 431 1093 431Z" style="fill:#fff478;stroke:none" transform="scale(1,-1) translate(0,-256)" /></svg>