<?xml version="1.0" encoding="utf-8" ?>
<svg baseProfile="full" height="256" version="1.1" width="256" xmlns="http://www.w3.org/2000/svg" xmlns:ev="http://www.w3.org/2001/xml-events" xmlns:xlink="http://www.w3.org/1999/xlink"><defs /><path d="M963 1414Q963 1428 973.0 1439.5Q983 1451 997 1451Q1011 1451 1022.5 1441.0Q1034 1431 1034 1416Q1034 1401 1023.5 1390.0Q1013 1379 998 1379Q984 1379 973.5 1389.5Q963 1400 963 1414ZM1413 1325Q1413 1339 1423.5 1350.5Q1434 1362 1449 1362Q1463 1362 1474.5 1351.0Q1486 1340 1486 1326Q1486 1311 1475.0 1300.5Q1464 1290 1449 1290Q1434 1290 1423.5 1300.0Q1413 1310 1413 1325ZM570 1177Q570 1191 581.0 1201.5Q592 1212 606 1212Q621 1212 631.0 1202.0Q641 1192 641 1177Q641 1162 630.5 1151.0Q620 1140 605 1140Q591 1140 580.5 1151.5Q570 1163 570 1177ZM1822 1090Q1822 1104 1833.0 1115.0Q1844 1126 1858 1126Q1872 1126 1883.0 1115.0Q1894 1104 1894 1090Q1894 1076 1883.0 1065.0Q1872 1054 1858 1054Q1844 1054 1833.0 1065.0Q1822 1076 1822 1090ZM2220 842Q2220 856 2231.0 867.0Q2242 878 2256 878Q2271 878 2281.5 867.0Q2292 856 2292 841Q2292 827 2281.0 816.0Q2270 805 2256 805Q2241 805 2230.5 816.0Q2220 827 2220 842ZM441 736Q441 750 452.5 760.5Q464 771 478 771Q493 771 503.0 759.5Q513 748 513 734Q513 719 502.0 709.5Q491 700 477 700Q462 700 451.5 710.5Q441 721 441 736ZM1915 545Q1915 559 1926.0 570.0Q1937 581 1951 581Q1965 581 1976.0 570.0Q1987 559 1987 545Q1987 530 1976.5 519.5Q1966 509 1951 509Q1937 509 1926.0 520.0Q1915 531 1915 545ZM644 324Q644 339 655.5 349.5Q667 360 681 360Q695 360 706.0 349.0Q717 338 717 324Q717 309 706.5 298.5Q696 288 681 288Q665 288 654.5 298.0Q644 308 644 324ZM1507 310Q1507 325 1517.5 335.5Q1528 346 1543 346Q1558 346 1568.5 335.5Q1579 325 1579 310Q1579 295 1568.5 284.5Q1558 274 1543 274Q1529 274 1518.0 285.0Q1507 296 1507 310ZM1109 193Q1124 193 1134.5 182.5Q1145 172 1145 157Q1145 142 1134.5 131.5Q1124 121 1109 121Q1094 121 1083.5 131.5Q1073 142 1073 157Q1073 172 1083.5 182.5Q1094 193 1109 193Z" style="fill:#fcd53f;stroke:none" transform="scale(1,-1) translate(0,-256)" /></svg>