<?xml version="1.0" encoding="utf-8" ?>
<svg baseProfile="full" height="256" version="1.1" width="256" xmlns="http://www.w3.org/2000/svg" xmlns:ev="http://www.w3.org/2001/xml-events" xmlns:xlink="http://www.w3.org/1999/xlink"><defs /><path d="M2179 1039Q2153 1039 2129.5 1049.0Q2106 1059 2088.5 1076.5Q2071 1094 2061.0 1117.5Q2051 1141 2051 1167Q2051 1193 2061.0 1216.5Q2071 1240 2088.5 1257.5Q2106 1275 2129.5 1285.0Q2153 1295 2179 1295Q2205 1295 2228.5 1285.0Q2252 1275 2269.5 1257.5Q2287 1240 2297.0 1216.5Q2307 1193 2307 1167Q2307 1140 2297.0 1117.0Q2287 1094 2269.5 1076.5Q2252 1059 2229.0 1049.0Q2206 1039 2179 1039Z" style="fill:#fcd53f;stroke:none" transform="scale(1,-1) translate(0,-256)" /></svg>