<?xml version="1.0" encoding="utf-8" ?>
<svg baseProfile="full" height="256" version="1.1" width="256" xmlns="http://www.w3.org/2000/svg" xmlns:ev="http://www.w3.org/2001/xml-events" xmlns:xlink="http://www.w3.org/1999/xlink"><defs /><path d="M941 1466Q941 1506 958.0 1532.5Q975 1559 1001.0 1578.0Q1027 1597 1059.0 1611.0Q1091 1625 1121 1640Q1149 1654 1181 1654Q1221 1654 1253.0 1633.0Q1285 1612 1303 1577Q1306 1572 1311.5 1562.0Q1317 1552 1322.5 1541.0Q1328 1530 1332.0 1520.0Q1336 1510 1336 1505Q1336 1497 1331.5 1490.0Q1327 1483 1320 1479Q1312 1475 1287.0 1462.5Q1262 1450 1229.0 1433.5Q1196 1417 1159.0 1399.0Q1122 1381 1090.0 1366.0Q1058 1351 1036.0 1341.0Q1014 1331 1010 1331Q999 1331 990.5 1340.0Q982 1349 975.0 1361.0Q968 1373 963.5 1386.0Q959 1399 955 1407Q941 1437 941 1466Z" style="fill:#00a6ed;stroke:none" transform="scale(1,-1) translate(0,-256)" /></svg>