<?xml version="1.0" encoding="utf-8" ?>
<svg baseProfile="full" height="256" version="1.1" width="256" xmlns="http://www.w3.org/2000/svg" xmlns:ev="http://www.w3.org/2001/xml-events" xmlns:xlink="http://www.w3.org/1999/xlink"><defs /><path d="M994 1399Q994 1430 1005.0 1450.5Q1016 1471 1033.5 1486.0Q1051 1501 1073.5 1513.0Q1096 1525 1119 1538Q1148 1554 1177 1554Q1189 1554 1205.0 1549.5Q1221 1545 1236.5 1537.0Q1252 1529 1264.0 1518.0Q1276 1507 1279 1495Q1285 1472 1290.0 1450.5Q1295 1429 1301 1406Q1307 1383 1315.5 1357.0Q1324 1331 1324 1307Q1324 1281 1310.0 1253.0Q1296 1225 1274.0 1201.5Q1252 1178 1224.5 1162.5Q1197 1147 1171 1147Q1154 1147 1140.5 1154.0Q1127 1161 1116.0 1172.0Q1105 1183 1095.5 1196.5Q1086 1210 1078 1223Q1076 1225 1071 1225Q1068 1225 1064.0 1223.0Q1060 1221 1055 1221Q1045 1221 1038.5 1228.5Q1032 1236 1032 1246Q1032 1256 1033.0 1265.0Q1034 1274 1034 1284Q1034 1297 1027.5 1309.0Q1021 1321 1013.5 1334.0Q1006 1347 1000.0 1362.5Q994 1378 994 1399Z" style="fill:#ffc83d;stroke:none" transform="scale(1,-1) translate(0,-256)" /></svg>