<?xml version="1.0" encoding="utf-8" ?>
<svg baseProfile="full" height="256" version="1.1" width="256" xmlns="http://www.w3.org/2000/svg" xmlns:ev="http://www.w3.org/2001/xml-events" xmlns:xlink="http://www.w3.org/1999/xlink"><defs /><path d="M1430 1241Q1460 1241 1481.5 1219.5Q1503 1198 1503 1167Q1503 1158 1501.0 1150.0Q1499 1142 1495 1134Q1474 1088 1439.0 1043.0Q1404 998 1361.5 958.5Q1319 919 1272.0 887.0Q1225 855 1180 836Q1129 814 1069.0 800.5Q1009 787 953 779Q942 777 931.0 775.5Q920 774 916 762Q913 752 909.0 742.0Q905 732 891 732Q880 732 867.0 738.0Q854 744 843.0 753.5Q832 763 824.0 775.0Q816 787 816 798Q816 808 822.0 822.5Q828 837 837.0 851.5Q846 866 856.0 878.5Q866 891 874 898Q885 907 901.5 915.5Q918 924 932 927Q980 936 1029.0 944.5Q1078 953 1123 973Q1202 1008 1260.5 1067.5Q1319 1127 1363 1200Q1374 1219 1390.5 1230.0Q1407 1241 1430 1241Z" style="fill:#ffc83d;stroke:none" transform="scale(1,-1) translate(0,-256)" /></svg>