<?xml version="1.0" encoding="utf-8" ?>
<svg baseProfile="full" height="256" version="1.1" width="256" xmlns="http://www.w3.org/2000/svg" xmlns:ev="http://www.w3.org/2001/xml-events" xmlns:xlink="http://www.w3.org/1999/xlink"><defs /><path d="M1473 1291Q1507 1291 1543.5 1275.0Q1580 1259 1616.0 1232.5Q1652 1206 1686.0 1172.5Q1720 1139 1750.0 1104.0Q1780 1069 1803.0 1036.0Q1826 1003 1841 977Q1833 972 1811.0 959.0Q1789 946 1760.5 929.5Q1732 913 1700.0 895.0Q1668 877 1640.5 862.0Q1613 847 1593.0 837.5Q1573 828 1568 828Q1557 828 1548.0 834.0Q1539 840 1534 850Q1526 866 1512.5 890.0Q1499 914 1483.0 939.0Q1467 964 1450.5 986.0Q1434 1008 1420 1019Q1402 1032 1385.5 1048.5Q1369 1065 1356.0 1083.5Q1343 1102 1335.0 1123.0Q1327 1144 1327 1168Q1327 1193 1341.5 1215.0Q1356 1237 1377.5 1254.0Q1399 1271 1424.5 1281.0Q1450 1291 1473 1291Z" style="fill:#ff6723;stroke:none" transform="scale(1,-1) translate(0,-256)" /></svg>