<?xml version="1.0" encoding="utf-8" ?>
<svg baseProfile="full" height="256" version="1.1" width="256" xmlns="http://www.w3.org/2000/svg" xmlns:ev="http://www.w3.org/2001/xml-events" xmlns:xlink="http://www.w3.org/1999/xlink"><defs /><path d="M1835 1579Q1883 1579 1925.0 1556.5Q1967 1534 1994 1494L2100 1335Q2092 1339 2073.0 1349.5Q2054 1360 2033.0 1370.5Q2012 1381 1994.0 1389.0Q1976 1397 1969 1397Q1951 1397 1936.0 1378.5Q1921 1360 1906.5 1338.5Q1892 1317 1875.5 1298.5Q1859 1280 1838 1280Q1816 1280 1800.0 1298.5Q1784 1317 1769.5 1338.5Q1755 1360 1740.5 1378.5Q1726 1397 1707 1397Q1700 1397 1679.5 1388.0Q1659 1379 1635.5 1367.0Q1612 1355 1590.5 1343.5Q1569 1332 1560 1328L1677 1496Q1704 1535 1745.5 1557.0Q1787 1579 1835 1579Z" style="fill:#d3d3d3;stroke:none" transform="scale(1,-1) translate(0,-256)" /></svg>