<?xml version="1.0" encoding="utf-8" ?>
<svg baseProfile="full" height="256" version="1.1" width="256" xmlns="http://www.w3.org/2000/svg" xmlns:ev="http://www.w3.org/2001/xml-events" xmlns:xlink="http://www.w3.org/1999/xlink"><defs /><path d="M1076 627Q1076 619 1070.0 602.0Q1064 585 1056.0 566.5Q1048 548 1040.5 531.0Q1033 514 1029 505L1518 140L1626 635Q1629 648 1639.5 656.0Q1650 664 1663 664Q1682 664 1694 647L2042 103Q2048 94 2048 84Q2048 69 2037.0 57.5Q2026 46 2010 46Q1991 46 1979 63L1680 532L1578 68Q1575 55 1565.5 47.0Q1556 39 1542 39Q1537 39 1531.0 40.5Q1525 42 1520 46L1001 434L850 62Q840 39 815 39Q800 39 789.5 50.0Q779 61 779 76Q779 82 794.0 122.0Q809 162 832.5 220.0Q856 278 883.5 346.0Q911 414 936.0 475.0Q961 536 979.5 581.5Q998 627 1004 641Q1014 664 1039 664Q1054 664 1065.0 653.0Q1076 642 1076 627Z" style="fill:#f8312f;stroke:none" transform="scale(1,-1) translate(0,-256)" /></svg>