<?xml version="1.0" encoding="utf-8" ?>
<svg baseProfile="full" height="256" version="1.1" width="256" xmlns="http://www.w3.org/2000/svg" xmlns:ev="http://www.w3.org/2001/xml-events" xmlns:xlink="http://www.w3.org/1999/xlink"><defs /><path d="M1071 1448Q1071 1462 1085 1469Q1091 1472 1105.5 1479.5Q1120 1487 1135.5 1495.5Q1151 1504 1165.0 1510.0Q1179 1516 1185 1516Q1195 1516 1202.0 1508.5Q1209 1501 1209 1492Q1209 1478 1195 1471Q1189 1468 1174.5 1460.5Q1160 1453 1144.0 1444.5Q1128 1436 1114.5 1430.0Q1101 1424 1095 1424Q1085 1424 1078.0 1431.5Q1071 1439 1071 1448Z" style="fill:#007acf;stroke:none" transform="scale(1,-1) translate(0,-256)" /></svg>