<?xml version="1.0" encoding="utf-8" ?>
<svg baseProfile="full" height="256" version="1.1" width="256" xmlns="http://www.w3.org/2000/svg" xmlns:ev="http://www.w3.org/2001/xml-events" xmlns:xlink="http://www.w3.org/1999/xlink"><defs /><path d="M1946 -134Q1970 -119 1997.5 -111.5Q2025 -104 2054 -104Q2111 -104 2160 -133L2412 -287H400L649 -134Q673 -120 701.0 -112.5Q729 -105 756 -105Q788 -105 814.0 -114.5Q840 -124 864.5 -135.0Q889 -146 915.0 -155.5Q941 -165 973 -165Q1004 -165 1030.0 -155.5Q1056 -146 1081.0 -134.5Q1106 -123 1132.0 -113.5Q1158 -104 1189 -104Q1218 -104 1245.5 -111.5Q1273 -119 1297 -134H1298Q1322 -149 1349.5 -156.5Q1377 -164 1405 -164Q1436 -164 1462.0 -154.5Q1488 -145 1513.0 -133.5Q1538 -122 1564.0 -112.5Q1590 -103 1621 -103Q1651 -103 1677.5 -112.5Q1704 -122 1729.0 -133.5Q1754 -145 1780.5 -154.5Q1807 -164 1837 -164Q1866 -164 1893.0 -156.0Q1920 -148 1944 -134H1946Z" style="fill:#a56953;stroke:none" transform="scale(1,-1) translate(0,-256)" /></svg>