<?xml version="1.0" encoding="utf-8" ?>
<svg baseProfile="full" height="256" version="1.1" width="256" xmlns="http://www.w3.org/2000/svg" xmlns:ev="http://www.w3.org/2001/xml-events" xmlns:xlink="http://www.w3.org/1999/xlink"><defs /><path d="M2412 -284H400V507Q435 542 470.0 577.5Q505 613 540 648Q573 681 617.5 699.5Q662 718 709 718Q749 718 785.0 705.0Q821 692 853 669L1017 545L1560 1328Q1561 1329 1566.0 1333.0Q1571 1337 1577.0 1341.5Q1583 1346 1588.5 1349.5Q1594 1353 1596 1355Q1650 1390 1714.0 1409.5Q1778 1429 1843 1429Q1906 1429 1964.0 1410.0Q2022 1391 2073 1355Q2074 1355 2078.0 1352.0Q2082 1349 2087.0 1345.5Q2092 1342 2096.0 1339.0Q2100 1336 2100 1335L2412 866Z" style="fill:#00d26a;stroke:none" transform="scale(1,-1) translate(0,-256)" /></svg>