<?xml version="1.0" encoding="utf-8" ?>
<svg baseProfile="full" height="256" version="1.1" width="256" xmlns="http://www.w3.org/2000/svg" xmlns:ev="http://www.w3.org/2001/xml-events" xmlns:xlink="http://www.w3.org/1999/xlink"><defs /><path d="M1118 54Q1118 -9 1094.0 -65.0Q1070 -121 1029.0 -162.0Q988 -203 932.0 -227.0Q876 -251 813 -251Q750 -251 694.0 -227.0Q638 -203 597.0 -162.0Q556 -121 532.0 -65.0Q508 -9 508 54Q508 117 532.0 173.0Q556 229 597.0 270.5Q638 312 694.0 336.0Q750 360 813 360Q876 360 932.0 336.0Q988 312 1029.0 270.5Q1070 229 1094.0 173.0Q1118 117 1118 54ZM1011 54Q1011 95 995.5 131.0Q980 167 953.0 194.0Q926 221 890.0 236.5Q854 252 813 252Q772 252 736.0 236.5Q700 221 673.0 194.0Q646 167 630.5 131.0Q615 95 615 54Q615 13 630.5 -23.0Q646 -59 673.0 -86.0Q700 -113 736.0 -128.5Q772 -144 813 -144Q854 -144 890.0 -128.5Q926 -113 953.0 -86.0Q980 -59 995.5 -23.0Q1011 13 1011 54ZM2276 54Q2276 -9 2252.0 -65.0Q2228 -121 2186.5 -162.0Q2145 -203 2089.0 -227.0Q2033 -251 1970 -251Q1907 -251 1851.0 -227.0Q1795 -203 1754.0 -162.0Q1713 -121 1689.0 -65.0Q1665 -9 1665 54Q1665 117 1689.0 173.0Q1713 229 1754.0 270.5Q1795 312 1851.0 336.0Q1907 360 1970 360Q2033 360 2089.0 336.0Q2145 312 2186.5 270.5Q2228 229 2252.0 173.0Q2276 117 2276 54ZM2168 54Q2168 95 2152.5 131.0Q2137 167 2110.0 194.0Q2083 221 2047.0 236.5Q2011 252 1970 252Q1929 252 1893.0 236.5Q1857 221 1830.5 194.0Q1804 167 1788.5 131.0Q1773 95 1773 54Q1773 13 1788.5 -23.0Q1804 -59 1830.5 -86.0Q1857 -113 1893.0 -128.5Q1929 -144 1970 -144Q2011 -144 2047.0 -128.5Q2083 -113 2110.0 -86.0Q2137 -59 2152.5 -23.0Q2168 13 2168 54Z" style="fill:#f3eef8;stroke:none" transform="scale(1,-1) translate(0,-256)" /></svg>