<?xml version="1.0" encoding="utf-8" ?>
<svg baseProfile="full" height="256" version="1.1" width="256" xmlns="http://www.w3.org/2000/svg" xmlns:ev="http://www.w3.org/2001/xml-events" xmlns:xlink="http://www.w3.org/1999/xlink"><defs /><path d="M690 1240Q672 1240 655.5 1246.0Q639 1252 639 1275Q639 1287 640.5 1300.0Q642 1313 644 1325Q630 1352 621.0 1374.0Q612 1396 612 1428Q612 1464 625.5 1495.0Q639 1526 662.5 1549.5Q686 1573 717.0 1586.5Q748 1600 784 1600Q821 1600 848.0 1589.0Q875 1578 895.0 1559.0Q915 1540 930.5 1514.0Q946 1488 960 1458Q981 1414 981 1365Q981 1307 951.5 1256.0Q922 1205 871 1177Q853 1167 837.5 1160.5Q822 1154 801 1154Q778 1154 761.5 1161.0Q745 1168 732.5 1179.5Q720 1191 710.0 1206.5Q700 1222 690 1240ZM878 770Q895 770 914.5 762.5Q934 755 948 745L1016 586Q1006 581 987.0 570.5Q968 560 946.5 550.0Q925 540 904.0 532.5Q883 525 870 525Q850 525 833.5 541.5Q817 558 805.5 581.5Q794 605 787.5 629.5Q781 654 781 670Q781 690 789.5 702.0Q798 714 820 713Q826 722 831.0 732.0Q836 742 842.0 750.5Q848 759 856.5 764.5Q865 770 878 770Z" style="fill:#ffc83d;stroke:none" transform="scale(1,-1) translate(0,-256)" /></svg>