<?xml version="1.0" encoding="utf-8" ?>
<svg baseProfile="full" height="256" version="1.1" width="256" xmlns="http://www.w3.org/2000/svg" xmlns:ev="http://www.w3.org/2001/xml-events" xmlns:xlink="http://www.w3.org/1999/xlink"><defs /><path d="M2017 1102Q2017 1091 2011.0 1082.0Q2005 1073 1995 1069Q1981 1063 1941.5 1046.0Q1902 1029 1843.5 1004.5Q1785 980 1712.5 949.0Q1640 918 1561.0 884.5Q1482 851 1400.0 816.0Q1318 781 1241.0 748.5Q1164 716 1095.5 687.5Q1027 659 975.0 638.0Q923 617 891.5 604.5Q860 592 857 592Q843 592 832.0 602.5Q821 613 821 628Q821 639 827.0 648.0Q833 657 843 661Q860 668 917.0 692.5Q974 717 1056.0 752.0Q1138 787 1237.5 829.0Q1337 871 1438.5 914.0Q1540 957 1636.0 997.5Q1732 1038 1807.5 1069.0Q1883 1100 1930.0 1119.0Q1977 1138 1981 1138Q1995 1138 2006.0 1127.5Q2017 1117 2017 1102Z" style="fill:#00a6ed;stroke:none" transform="scale(1,-1) translate(0,-256)" /></svg>