<?xml version="1.0" encoding="utf-8" ?>
<svg baseProfile="full" height="256" version="1.1" width="256" xmlns="http://www.w3.org/2000/svg" xmlns:ev="http://www.w3.org/2001/xml-events" xmlns:xlink="http://www.w3.org/1999/xlink"><defs /><path d="M944 1388Q960 1388 974.5 1382.0Q989 1376 1002.5 1367.0Q1016 1358 1028.0 1347.5Q1040 1337 1052 1328Q1105 1367 1170 1367Q1202 1367 1226.0 1358.0Q1250 1349 1278 1335V1336L1626 1081Q1665 1052 1687.5 1009.5Q1710 967 1710 919Q1710 878 1694.0 842.0Q1678 806 1651.0 779.0Q1624 752 1588.0 736.5Q1552 721 1512 721Q1477 721 1448.0 731.5Q1419 742 1392 762L1056 1008Q1017 1037 994.5 1078.5Q972 1120 972 1170L973 1185L896 1242Q863 1266 863 1307Q863 1340 886.5 1364.0Q910 1388 944 1388Z" style="fill:#f8312f;stroke:none" transform="scale(1,-1) translate(0,-256)" /></svg>