<?xml version="1.0" encoding="utf-8" ?>
<svg baseProfile="full" height="256" version="1.1" width="256" xmlns="http://www.w3.org/2000/svg" xmlns:ev="http://www.w3.org/2001/xml-events" xmlns:xlink="http://www.w3.org/1999/xlink"><defs /><path d="M1326 854Q1316 884 1316 919V928L1644 1066Q1676 1034 1694.0 998.5Q1712 963 1712 916Q1712 877 1697.0 841.0Q1682 805 1654 777Q1635 758 1616.5 749.0Q1598 740 1575 729L1352 629L1504 297Q1514 274 1514 252Q1514 230 1505.5 210.5Q1497 191 1482.0 176.0Q1467 161 1447.5 152.5Q1428 144 1406 144Q1375 144 1348.0 161.0Q1321 178 1308 207L1110 638Q1100 661 1100 683Q1100 715 1117.5 741.5Q1135 768 1164 781Z" style="fill:#9b9b9b;stroke:none" transform="scale(1,-1) translate(0,-256)" /></svg>