<?xml version="1.0" encoding="utf-8" ?>
<svg baseProfile="full" height="256" version="1.1" width="256" xmlns="http://www.w3.org/2000/svg" xmlns:ev="http://www.w3.org/2001/xml-events" xmlns:xlink="http://www.w3.org/1999/xlink"><defs /><path d="M1884 1195Q1891 1195 1896.5 1190.5Q1902 1186 1904 1180Q1906 1174 1912.5 1158.5Q1919 1143 1928.0 1122.5Q1937 1102 1946.0 1079.0Q1955 1056 1963.0 1036.5Q1971 1017 1976.0 1003.0Q1981 989 1981 986Q1981 969 1967.5 965.0Q1954 961 1940 961Q1914 961 1892.0 971.5Q1870 982 1854.0 999.0Q1838 1016 1828.5 1039.0Q1819 1062 1819 1087Q1819 1117 1833.5 1145.5Q1848 1174 1873 1191Q1879 1195 1884 1195ZM1189 395 1448 460Q1445 467 1442.0 476.5Q1439 486 1435.0 493.5Q1431 501 1424.5 506.5Q1418 512 1408 512Q1396 512 1383.5 506.0Q1371 500 1358.0 493.0Q1345 486 1333.0 480.0Q1321 474 1309 474Q1301 474 1297.0 478.0Q1293 482 1289.5 486.5Q1286 491 1281.5 495.0Q1277 499 1268 499Q1260 499 1252.5 496.0Q1245 493 1237 491Q1214 484 1199.0 464.5Q1184 445 1184 421Q1184 408 1189 395ZM1247 259Q1240 259 1233.5 265.5Q1227 272 1222.5 280.0Q1218 288 1215.0 296.5Q1212 305 1212 309Q1212 321 1222 326Q1229 329 1238.5 335.0Q1248 341 1258.5 346.5Q1269 352 1279.0 356.0Q1289 360 1298 360Q1313 360 1323.5 349.0Q1334 338 1334 323Q1334 301 1314 291Q1309 289 1299.5 283.5Q1290 278 1279.5 272.5Q1269 267 1260.0 263.0Q1251 259 1247 259ZM1156 134Q1156 138 1160.5 146.0Q1165 154 1171.0 161.5Q1177 169 1184.0 175.0Q1191 181 1196 181Q1202 181 1210.0 175.0Q1218 169 1226.0 161.0Q1234 153 1241.0 145.0Q1248 137 1252 133Q1262 123 1262 108Q1262 93 1251.5 82.5Q1241 72 1226 72Q1212 72 1201 83Q1198 86 1190.5 92.5Q1183 99 1175.5 106.5Q1168 114 1162.0 121.5Q1156 129 1156 134ZM1557 189 1429 135Q1407 125 1407 101Q1407 87 1414.0 73.0Q1421 59 1426 47L1560 104Q1577 111 1577 130Q1577 144 1569.5 160.5Q1562 177 1557 189ZM1227 45Q1219 45 1203.5 39.5Q1188 34 1171.5 26.5Q1155 19 1139.5 11.5Q1124 4 1116 1Q1119 -8 1123.0 -19.0Q1127 -30 1132.5 -39.5Q1138 -49 1146.0 -55.0Q1154 -61 1166 -61Q1174 -61 1189.0 -55.5Q1204 -50 1220.5 -42.5Q1237 -35 1252.0 -28.0Q1267 -21 1276 -17Q1272 -8 1268.5 3.0Q1265 14 1260.0 23.0Q1255 32 1247.0 38.5Q1239 45 1227 45Z" style="fill:#0074ba;stroke:none" transform="scale(1,-1) translate(0,-256)" /></svg>