<?xml version="1.0" encoding="utf-8" ?>
<svg baseProfile="full" height="256" version="1.1" width="256" xmlns="http://www.w3.org/2000/svg" xmlns:ev="http://www.w3.org/2001/xml-events" xmlns:xlink="http://www.w3.org/1999/xlink"><defs /><path d="M1011 1474Q1011 1464 1009.0 1455.0Q1007 1446 1004 1437L1011 1438Q1025 1438 1035.5 1427.0Q1046 1416 1046 1401Q1046 1392 1039.5 1381.5Q1033 1371 1023.0 1362.5Q1013 1354 1002.5 1348.0Q992 1342 983 1342Q971 1342 960.0 1348.5Q949 1355 943 1366Q917 1411 882.5 1443.5Q848 1476 797 1494Q804 1532 834.5 1556.5Q865 1581 903 1581Q925 1581 944.5 1572.5Q964 1564 979.0 1549.5Q994 1535 1002.5 1515.5Q1011 1496 1011 1474Z" style="fill:#f1a11e;stroke:none" transform="scale(1,-1) translate(0,-256)" /></svg>