<?xml version="1.0" encoding="utf-8" ?>
<svg baseProfile="full" height="256" version="1.1" width="256" xmlns="http://www.w3.org/2000/svg" xmlns:ev="http://www.w3.org/2001/xml-events" xmlns:xlink="http://www.w3.org/1999/xlink"><defs /><path d="M634 1325Q641 1328 647.0 1330.5Q653 1333 661 1333Q670 1333 678.0 1329.0Q686 1325 693.5 1320.0Q701 1315 707.5 1311.0Q714 1307 719 1307Q722 1307 726 1309Q738 1314 751.5 1319.0Q765 1324 776.5 1331.0Q788 1338 795.0 1348.5Q802 1359 802 1376Q802 1398 786.5 1413.5Q771 1429 750 1429Q740 1429 720.5 1422.0Q701 1415 680.0 1405.5Q659 1396 640.0 1387.0Q621 1378 611 1374Q606 1390 604 1410Q615 1415 634.0 1424.0Q653 1433 674.0 1442.0Q695 1451 715.5 1457.5Q736 1464 750 1464Q787 1464 812.5 1438.5Q838 1413 838 1376Q838 1348 823.5 1327.0Q809 1306 784 1295Q769 1288 754.5 1281.0Q740 1274 723 1274Q713 1274 701.0 1278.0Q689 1282 677.5 1288.0Q666 1294 656.0 1300.5Q646 1307 640 1313Z" style="fill:#9b9b9b;stroke:none" transform="scale(1,-1) translate(0,-256)" /></svg>