<?xml version="1.0" encoding="utf-8" ?>
<svg baseProfile="full" height="256" version="1.1" width="256" xmlns="http://www.w3.org/2000/svg" xmlns:ev="http://www.w3.org/2001/xml-events" xmlns:xlink="http://www.w3.org/1999/xlink"><defs /><path d="M885 665Q885 692 900.0 714.5Q915 737 940 748L1181 849Q1192 854 1192 866Q1192 868 1184.0 888.5Q1176 909 1163.5 938.5Q1151 968 1136.0 1002.5Q1121 1037 1108.0 1068.0Q1095 1099 1085.0 1122.0Q1075 1145 1072 1151Q1064 1169 1064 1187Q1064 1224 1090.5 1250.0Q1117 1276 1154 1276Q1180 1276 1203.0 1261.5Q1226 1247 1237 1222L1356 944Q1372 904 1372 866Q1372 806 1339.5 756.5Q1307 707 1251 684L1010 582Q995 575 975 575Q937 575 911.0 601.0Q885 627 885 665Z" style="fill:#ff822d;stroke:none" transform="scale(1,-1) translate(0,-256)" /></svg>