<?xml version="1.0" encoding="utf-8" ?>
<svg baseProfile="full" height="256" version="1.1" width="256" xmlns="http://www.w3.org/2000/svg" xmlns:ev="http://www.w3.org/2001/xml-events" xmlns:xlink="http://www.w3.org/1999/xlink"><defs /><path d="M1190 1581Q1190 1595 1189.0 1608.5Q1188 1622 1188 1636Q1188 1650 1189.5 1665.5Q1191 1681 1196.5 1694.5Q1202 1708 1212.5 1716.5Q1223 1725 1241 1725H1571Q1596 1725 1607.0 1708.5Q1618 1692 1621.5 1669.0Q1625 1646 1623.5 1621.5Q1622 1597 1622 1581H1854Q1880 1581 1903.0 1571.0Q1926 1561 1943.5 1543.5Q1961 1526 1971.0 1503.0Q1981 1480 1981 1454V-160Q1981 -186 1971.0 -209.5Q1961 -233 1943.5 -250.0Q1926 -267 1903.0 -277.0Q1880 -287 1854 -287H958Q932 -287 908.5 -277.0Q885 -267 868.0 -250.0Q851 -233 841.0 -209.5Q831 -186 831 -160V1454Q831 1480 841.0 1503.0Q851 1526 868.0 1543.5Q885 1561 908.5 1571.0Q932 1581 958 1581Z" style="fill:#9b9b9b;stroke:none" transform="scale(1,-1) translate(0,-256)" /></svg>