<?xml version="1.0" encoding="utf-8" ?>
<svg baseProfile="full" height="256" version="1.1" width="256" xmlns="http://www.w3.org/2000/svg" xmlns:ev="http://www.w3.org/2001/xml-events" xmlns:xlink="http://www.w3.org/1999/xlink"><defs /><path d="M1334 971Q1321 971 1302.5 970.0Q1284 969 1267.0 971.5Q1250 974 1238.0 982.5Q1226 991 1226 1011V1073Q1226 1087 1232.0 1095.5Q1238 1104 1247.5 1108.5Q1257 1113 1268.5 1114.5Q1280 1116 1291 1116Q1302 1116 1312.5 1115.0Q1323 1114 1334 1114Q1334 1127 1333.0 1145.5Q1332 1164 1334.5 1181.0Q1337 1198 1346.0 1210.0Q1355 1222 1375 1222H1436Q1450 1222 1459.0 1216.0Q1468 1210 1472.5 1201.0Q1477 1192 1478.5 1180.5Q1480 1169 1480 1157Q1480 1146 1479.0 1135.5Q1478 1125 1478 1114Q1491 1114 1509.5 1115.5Q1528 1117 1544.5 1114.5Q1561 1112 1573.0 1103.0Q1585 1094 1585 1073V1012Q1585 998 1579.5 989.5Q1574 981 1565.0 976.5Q1556 972 1545.0 970.5Q1534 969 1523 969Q1512 969 1500.5 970.0Q1489 971 1478 971Q1478 958 1479.5 939.5Q1481 921 1478.5 904.0Q1476 887 1467.0 875.0Q1458 863 1437 863H1375Q1361 863 1352.5 869.0Q1344 875 1339.5 884.5Q1335 894 1333.5 905.5Q1332 917 1332 928Q1332 939 1333.0 949.5Q1334 960 1334 971ZM1545 72H1267Q1250 72 1238.0 84.0Q1226 96 1226 113V174Q1226 191 1238.0 203.5Q1250 216 1267 216H1544Q1561 216 1573.0 204.0Q1585 192 1585 175V114Q1585 97 1573.5 84.5Q1562 72 1545 72Z" style="fill:#ffffff;stroke:none" transform="scale(1,-1) translate(0,-256)" /></svg>