<?xml version="1.0" encoding="utf-8" ?>
<svg baseProfile="full" height="256" version="1.1" width="256" xmlns="http://www.w3.org/2000/svg" xmlns:ev="http://www.w3.org/2001/xml-events" xmlns:xlink="http://www.w3.org/1999/xlink"><defs /><path d="M1118 935Q1118 964 1139.5 985.0Q1161 1006 1190 1006Q1219 1006 1240.5 985.0Q1262 964 1262 935V863Q1262 833 1241.0 812.0Q1220 791 1190 791Q1161 791 1139.5 812.5Q1118 834 1118 863ZM1550 935Q1550 964 1571.5 985.0Q1593 1006 1622 1006Q1651 1006 1672.0 985.0Q1693 964 1693 935V863Q1693 834 1672.0 812.5Q1651 791 1622 791Q1592 791 1571.0 812.0Q1550 833 1550 863ZM1488 647H1322Q1309 647 1298.0 641.0Q1287 635 1279.0 625.5Q1271 616 1266.5 604.5Q1262 593 1262 581Q1262 562 1278.0 538.5Q1294 515 1317.0 494.0Q1340 473 1365.0 459.0Q1390 445 1408 445Q1427 445 1451.5 459.5Q1476 474 1498.0 495.0Q1520 516 1535.0 540.0Q1550 564 1550 583Q1550 607 1531.0 627.0Q1512 647 1488 647ZM1405 430Q1379 430 1374.5 413.0Q1370 396 1370 377Q1370 335 1353.5 293.5Q1337 252 1308.0 219.0Q1279 186 1240.0 165.5Q1201 145 1157 145Q1142 145 1131.5 134.5Q1121 124 1121 109Q1121 94 1131.5 83.5Q1142 73 1157 73Q1196 73 1233.0 85.5Q1270 98 1302.5 119.5Q1335 141 1361.5 170.5Q1388 200 1406 234Q1423 200 1449.5 170.5Q1476 141 1508.5 119.5Q1541 98 1578.0 85.5Q1615 73 1654 73Q1669 73 1679.5 83.5Q1690 94 1690 109Q1690 124 1679.5 134.5Q1669 145 1654 145Q1608 145 1570.0 165.0Q1532 185 1504.0 218.0Q1476 251 1459.5 292.5Q1443 334 1442 377Q1441 397 1436.0 413.5Q1431 430 1405 430Z" style="fill:#212121;stroke:none" transform="scale(1,-1) translate(0,-256)" /></svg>