<?xml version="1.0" encoding="utf-8" ?>
<svg baseProfile="full" height="256" version="1.1" width="256" xmlns="http://www.w3.org/2000/svg" xmlns:ev="http://www.w3.org/2001/xml-events" xmlns:xlink="http://www.w3.org/1999/xlink"><defs /><path d="M543 1222Q543 1282 565.5 1334.5Q588 1387 627.0 1426.0Q666 1465 718.5 1487.5Q771 1510 831 1510H1981Q2041 1510 2093.0 1487.5Q2145 1465 2184.0 1426.0Q2223 1387 2245.5 1334.5Q2268 1282 2268 1222V216Q2268 156 2245.5 103.5Q2223 51 2184.0 12.0Q2145 -27 2093.0 -49.5Q2041 -72 1981 -72H831Q771 -72 718.5 -49.5Q666 -27 627.0 12.0Q588 51 565.5 103.5Q543 156 543 216Z" style="fill:#f3c07b;stroke:none" transform="scale(1,-1) translate(0,-256)" /></svg>