<?xml version="1.0" encoding="utf-8" ?>
<svg baseProfile="full" height="256" version="1.1" width="256" xmlns="http://www.w3.org/2000/svg" xmlns:ev="http://www.w3.org/2001/xml-events" xmlns:xlink="http://www.w3.org/1999/xlink"><defs /><path d="M1985 299Q1985 245 1964.5 190.5Q1944 136 1917 91Q1878 25 1823.5 -33.5Q1769 -92 1703.5 -135.5Q1638 -179 1563.5 -204.0Q1489 -229 1410 -229Q1343 -229 1273.5 -209.5Q1204 -190 1140.0 -155.0Q1076 -120 1019.5 -71.0Q963 -22 921.0 36.5Q879 95 855.0 161.5Q831 228 831 299Q831 380 855.0 443.0Q879 506 920.5 552.5Q962 599 1018.5 631.5Q1075 664 1139.0 683.5Q1203 703 1272.5 712.0Q1342 721 1410 721Q1477 721 1546.0 712.0Q1615 703 1679.0 682.5Q1743 662 1798.5 629.5Q1854 597 1895.5 550.0Q1937 503 1961.0 441.0Q1985 379 1985 299Z" style="fill:#ffdea7;stroke:none" transform="scale(1,-1) translate(0,-256)" /></svg>