<?xml version="1.0" encoding="utf-8" ?>
<svg baseProfile="full" height="256" version="1.1" width="256" xmlns="http://www.w3.org/2000/svg" xmlns:ev="http://www.w3.org/2001/xml-events" xmlns:xlink="http://www.w3.org/1999/xlink"><defs /><path d="M501 655Q482 655 465.5 662.0Q449 669 437.0 681.0Q425 693 418.0 709.5Q411 726 411 745V1251Q411 1318 436.5 1377.0Q462 1436 506.0 1480.0Q550 1524 608.5 1549.5Q667 1575 734 1575H1025Q1063 1575 1089.5 1548.5Q1116 1522 1116 1484Q1116 1456 1099 1433L574 693Q547 655 501 655ZM2308 655Q2346 655 2372.5 681.0Q2399 707 2399 745V1251Q2399 1318 2373.5 1377.0Q2348 1436 2304.0 1480.0Q2260 1524 2201.0 1549.5Q2142 1575 2075 1575H1784Q1746 1575 1720.0 1548.5Q1694 1522 1694 1485Q1694 1456 1711 1433L2236 693Q2263 655 2308 655Z" style="fill:#6d4534;stroke:none" transform="scale(1,-1) translate(0,-256)" /></svg>