<?xml version="1.0" encoding="utf-8" ?>
<svg baseProfile="full" height="256" version="1.1" width="256" xmlns="http://www.w3.org/2000/svg" xmlns:ev="http://www.w3.org/2001/xml-events" xmlns:xlink="http://www.w3.org/1999/xlink"><defs /><path d="M1622 1725Q1682 1725 1734.5 1703.0Q1787 1681 1826.0 1642.0Q1865 1603 1887.0 1550.5Q1909 1498 1909 1438V863Q1909 833 1888.0 812.0Q1867 791 1837 791Q1807 791 1786.0 812.0Q1765 833 1765 863V1438Q1765 1549 1712.0 1601.0Q1659 1653 1550 1653H1262Q1153 1653 1100.0 1601.0Q1047 1549 1047 1438V1006H903V1438Q903 1498 925.0 1550.5Q947 1603 986.0 1642.0Q1025 1681 1077.5 1703.0Q1130 1725 1190 1725Z" style="fill:#e19747;stroke:none" transform="scale(1,-1) translate(0,-256)" /></svg>