<?xml version="1.0" encoding="utf-8" ?>
<svg baseProfile="full" height="256" version="1.1" width="256" xmlns="http://www.w3.org/2000/svg" xmlns:ev="http://www.w3.org/2001/xml-events" xmlns:xlink="http://www.w3.org/1999/xlink"><defs /><path d="M712 719 769 662 825 719H1017L1073 662L1130 719H1322L1378 662L1435 719H1627L1683 662L1740 719H1932L1988 662L2045 719H2237L2293 662L2305 674L2262 529L2192 459L2229 421L2206 343L2141 408L2039 307L2141 205L2175 239L2131 94L2039 2L2089 -48L2066 -124L2065 -125L1988 -49L1887 -151L1982 -247Q1967 -258 1949.5 -266.5Q1932 -275 1914 -280L1836 -202L1750 -287H1616L1531 -202L1445 -287H1312L1226 -202L1140 -287H1007L921 -202L858 -264Q842 -256 827.5 -245.5Q813 -235 800 -221L870 -151L769 -49L734 -84L711 -6L718 2L704 15L640 229L718 307L616 408L593 385L530 596L616 510L718 611L616 713L523 620L499 698L520 719ZM769 357 870 459 769 561 667 459ZM921 205 1023 307 921 408 819 307ZM1073 357 1175 459 1073 561 972 459ZM1073 52 1175 154 1073 256 972 154ZM1226 408 1124 307 1226 205 1328 307ZM1226 -100 1328 2 1226 103 1124 2ZM1378 52 1480 154 1378 256 1277 154ZM1378 -253 1480 -151 1378 -49 1277 -151ZM1785 -151 1683 -49 1582 -151 1683 -253ZM1531 -100 1633 2 1531 103 1429 2ZM1937 2 1836 103 1734 2 1836 -100ZM2090 154 1988 256 1887 154 1988 52ZM1937 307 1836 408 1734 307 1836 205ZM1988 561 1887 459 1988 357 2090 459ZM1836 713 1734 611 1836 510 1937 611ZM1429 611 1531 510 1633 611 1531 713ZM1582 459 1683 357 1785 459 1683 561ZM1277 459 1378 357 1480 459 1378 561ZM1429 307 1531 205 1633 307 1531 408ZM1785 154 1683 256 1582 154 1683 52ZM2141 713 2039 611 2141 510 2242 611ZM972 -151 1073 -253 1175 -151 1073 -49ZM1226 713 1124 611 1226 510 1328 611ZM921 103 819 2 921 -100 1023 2ZM769 256 667 154 769 52 870 154ZM1023 611 921 713 819 611 921 510Z" style="fill:#d3883e;stroke:none" transform="scale(1,-1) translate(0,-256)" /></svg>