<?xml version="1.0" encoding="utf-8" ?>
<svg baseProfile="full" height="256" version="1.1" width="256" xmlns="http://www.w3.org/2000/svg" xmlns:ev="http://www.w3.org/2001/xml-events" xmlns:xlink="http://www.w3.org/1999/xlink"><defs /><path d="M1798 853Q1888 772 1937.0 661.5Q1986 551 1986 430Q1986 310 1939.5 205.5Q1893 101 1813.5 23.5Q1734 -54 1628.5 -98.5Q1523 -143 1404 -143Q1285 -143 1179.0 -98.5Q1073 -54 993.5 23.5Q914 101 868.0 205.5Q822 310 822 430Q822 490 834.5 548.5Q847 607 871.0 661.0Q895 715 930.0 763.5Q965 812 1010 852Q973 912 958.0 980.0Q943 1048 943 1117Q943 1174 961.0 1229.0Q979 1284 1010.0 1333.5Q1041 1383 1083.0 1424.5Q1125 1466 1172 1495Q1204 1515 1240.0 1528.5Q1276 1542 1314 1542Q1330 1542 1337.0 1525.5Q1344 1509 1351.5 1489.0Q1359 1469 1370.5 1452.5Q1382 1436 1406 1436Q1430 1436 1441.0 1452.5Q1452 1469 1458.5 1489.0Q1465 1509 1472.0 1525.5Q1479 1542 1496 1542Q1534 1542 1570.0 1528.0Q1606 1514 1638 1494Q1684 1465 1725.0 1423.5Q1766 1382 1797.0 1332.5Q1828 1283 1846.0 1228.0Q1864 1173 1864 1117Q1864 1048 1849.5 980.0Q1835 912 1798 853Z" style="fill:#ffffff;stroke:none" transform="scale(1,-1) translate(0,-256)" /></svg>