<?xml version="1.0" encoding="utf-8" ?>
<svg baseProfile="full" height="256" version="1.1" width="256" xmlns="http://www.w3.org/2000/svg" xmlns:ev="http://www.w3.org/2001/xml-events" xmlns:xlink="http://www.w3.org/1999/xlink"><defs /><path d="M1190 933Q1190 978 1207.0 1017.5Q1224 1057 1253.0 1086.5Q1282 1116 1321.5 1133.0Q1361 1150 1406 1150Q1451 1150 1490.5 1133.0Q1530 1116 1559.5 1086.5Q1589 1057 1606.0 1017.5Q1623 978 1623 933ZM716 -258Q716 -221 722.5 -181.0Q729 -141 741.0 -101.5Q753 -62 769.0 -24.5Q785 13 803 45Q853 -32 918.5 -93.5Q984 -155 1061.5 -199.0Q1139 -243 1226.0 -266.5Q1313 -290 1405 -290Q1496 -290 1582.5 -266.0Q1669 -242 1746.0 -198.5Q1823 -155 1888.5 -93.0Q1954 -31 2004 44Q2022 12 2037.5 -25.5Q2053 -63 2065.0 -102.0Q2077 -141 2083.5 -181.0Q2090 -221 2090 -258Q2090 -272 2081.0 -281.5Q2072 -291 2058 -291H748Q734 -291 725.0 -281.5Q716 -272 716 -258Z" style="fill:#ff822d;stroke:none" transform="scale(1,-1) translate(0,-256)" /></svg>