<?xml version="1.0" encoding="utf-8" ?>
<svg baseProfile="full" height="256" version="1.1" width="256" xmlns="http://www.w3.org/2000/svg" xmlns:ev="http://www.w3.org/2001/xml-events" xmlns:xlink="http://www.w3.org/1999/xlink"><defs /><path d="M1262 1330Q1262 1345 1272.5 1355.5Q1283 1366 1298 1366Q1313 1366 1323.5 1355.5Q1334 1345 1334 1330V1280Q1334 1265 1323.5 1254.5Q1313 1244 1298 1244Q1283 1244 1272.5 1254.5Q1262 1265 1262 1280ZM1478 1330Q1478 1345 1488.5 1355.5Q1499 1366 1514 1366Q1529 1366 1539.5 1355.5Q1550 1345 1550 1330V1280Q1550 1265 1539.5 1254.5Q1529 1244 1514 1244Q1499 1244 1488.5 1254.5Q1478 1265 1478 1280Z" style="fill:#1c1c1c;stroke:none" transform="scale(1,-1) translate(0,-256)" /></svg>