<?xml version="1.0" encoding="utf-8" ?>
<svg baseProfile="full" height="256" version="1.1" width="256" xmlns="http://www.w3.org/2000/svg" xmlns:ev="http://www.w3.org/2001/xml-events" xmlns:xlink="http://www.w3.org/1999/xlink"><defs /><path d="M1412 1700Q1484 1700 1552.5 1680.5Q1621 1661 1683.5 1625.5Q1746 1590 1799.5 1540.5Q1853 1491 1894.0 1432.5Q1935 1374 1962.0 1307.5Q1989 1241 1998 1171Q2003 1129 2012.5 1089.0Q2022 1049 2031 1008L2034 1004Q2065 967 2104.5 916.0Q2144 865 2185.0 805.5Q2226 746 2265.5 682.0Q2305 618 2335.5 554.5Q2366 491 2384.5 432.5Q2403 374 2403 326Q2403 278 2380.0 245.5Q2357 213 2306 213Q2282 213 2256.0 219.5Q2230 226 2204.0 235.5Q2178 245 2153.5 257.0Q2129 269 2108 280Q2078 152 2003 42L1981 -215Q1900 -230 1818.5 -243.0Q1737 -256 1654 -267Q1592 -275 1529.0 -282.5Q1466 -290 1403 -290H1394Q1330 -288 1258.0 -280.5Q1186 -273 1112.5 -262.0Q1039 -251 967.0 -238.5Q895 -226 831 -215L805 42Q769 96 742.5 156.0Q716 216 701 279Q681 268 656.5 256.5Q632 245 606.5 235.0Q581 225 555.0 219.0Q529 213 506 213Q480 213 461.5 222.0Q443 231 431.5 246.5Q420 262 414.5 282.5Q409 303 409 326Q409 372 427.0 429.5Q445 487 475.0 549.5Q505 612 543.0 676.5Q581 741 621.0 800.0Q661 859 699.5 909.0Q738 959 769 994Q778 1039 788.0 1082.5Q798 1126 806 1171Q827 1281 881.0 1377.5Q935 1474 1014.5 1545.5Q1094 1617 1195.0 1658.5Q1296 1700 1412 1700Z" style="fill:#533566;stroke:none" transform="scale(1,-1) translate(0,-256)" /></svg>