<?xml version="1.0" encoding="utf-8" ?>
<svg baseProfile="full" height="256" version="1.1" width="256" xmlns="http://www.w3.org/2000/svg" xmlns:ev="http://www.w3.org/2001/xml-events" xmlns:xlink="http://www.w3.org/1999/xlink"><defs /><path d="M1054 523V360H818Q817 360 793.0 366.5Q769 373 733.0 383.5Q697 394 654.0 406.0Q611 418 573.0 428.5Q535 439 507.5 446.5Q480 454 474 456Q472 461 471.0 466.5Q470 472 470 478Q470 496 479.5 516.5Q489 537 496 554Q542 666 634.0 737.0Q726 808 845 826H852Q877 826 888.5 812.5Q900 799 903.5 780.0Q907 761 906.0 739.5Q905 718 905 702Q905 689 916.0 680.0Q927 671 943.5 662.0Q960 653 979.5 643.0Q999 633 1015.5 617.5Q1032 602 1043.0 579.5Q1054 557 1054 523Z" style="fill:#f9c23c;stroke:none" transform="scale(1,-1) translate(0,-256)" /></svg>