<?xml version="1.0" encoding="utf-8" ?>
<svg baseProfile="full" height="256" version="1.1" width="256" xmlns="http://www.w3.org/2000/svg" xmlns:ev="http://www.w3.org/2001/xml-events" xmlns:xlink="http://www.w3.org/1999/xlink"><defs /><path d="M1314 1263Q1441 1263 1557.0 1214.5Q1673 1166 1762 1076Q1861 1076 1952.5 1050.5Q2044 1025 2124.0 978.5Q2204 932 2269.5 866.5Q2335 801 2382.0 721.5Q2429 642 2454.5 550.0Q2480 458 2480 359Q2480 263 2455.5 172.5Q2431 82 2386.5 2.5Q2342 -77 2279.0 -143.5Q2216 -210 2138.5 -258.0Q2061 -306 1971.5 -332.5Q1882 -359 1785 -359H873Q761 -359 662.0 -316.0Q563 -273 488.5 -198.5Q414 -124 371.0 -25.0Q328 74 328 186Q328 272 354.0 351.5Q380 431 427.0 497.5Q474 564 540.5 614.5Q607 665 688 693Q699 814 752.5 918.5Q806 1023 890.5 1099.5Q975 1176 1083.5 1219.5Q1192 1263 1314 1263Z" style="fill:#b4acbc;stroke:none" transform="scale(1,-1) translate(0,-256)" /></svg>