<?xml version="1.0" encoding="utf-8" ?>
<svg baseProfile="full" height="256" version="1.1" width="256" xmlns="http://www.w3.org/2000/svg" xmlns:ev="http://www.w3.org/2001/xml-events" xmlns:xlink="http://www.w3.org/1999/xlink"><defs /><path d="M1731 1003Q1823 1008 1909.0 987.5Q1995 967 2070.5 926.0Q2146 885 2208.0 826.0Q2270 767 2314.5 694.0Q2359 621 2383.5 536.0Q2408 451 2408 359Q2408 230 2360.0 113.0Q2312 -4 2228.0 -93.0Q2144 -182 2030.0 -234.5Q1916 -287 1785 -287H873Q776 -287 690.0 -249.5Q604 -212 539.5 -147.5Q475 -83 437.5 3.0Q400 89 400 186Q400 267 426.0 340.5Q452 414 499.5 474.0Q547 534 612.5 577.0Q678 620 757 638Q758 753 802.0 853.5Q846 954 921.5 1029.0Q997 1104 1098.0 1147.5Q1199 1191 1314 1191Q1435 1191 1543.0 1142.0Q1651 1093 1731 1003Z" style="fill:#f3eef8;stroke:none" transform="scale(1,-1) translate(0,-256)" /></svg>