<?xml version="1.0" encoding="utf-8" ?>
<svg baseProfile="full" height="256" version="1.1" width="256" xmlns="http://www.w3.org/2000/svg" xmlns:ev="http://www.w3.org/2001/xml-events" xmlns:xlink="http://www.w3.org/1999/xlink"><defs /><path d="M939 1581Q980 1581 1000.5 1564.5Q1021 1548 1034.5 1528.5Q1048 1509 1062.0 1493.0Q1076 1477 1103 1477Q1116 1477 1127.0 1482.0Q1138 1487 1149.5 1493.0Q1161 1499 1173.5 1504.0Q1186 1509 1204 1509Q1226 1509 1245.5 1500.5Q1265 1492 1280.0 1477.5Q1295 1463 1303.5 1443.5Q1312 1424 1312 1402Q1312 1388 1308.0 1375.0Q1304 1362 1304 1348Q1304 1329 1310.5 1317.0Q1317 1305 1328.0 1298.0Q1339 1291 1353.5 1287.0Q1368 1283 1383 1281Q1423 1276 1449.0 1245.5Q1475 1215 1475 1174Q1475 1144 1464.0 1126.5Q1453 1109 1440.0 1096.0Q1427 1083 1416.0 1069.5Q1405 1056 1405 1034Q1405 1012 1416.0 999.0Q1427 986 1440.0 973.0Q1453 960 1464.0 943.0Q1475 926 1475 896Q1475 854 1449.0 824.0Q1423 794 1382 789Q1367 787 1352.5 783.0Q1338 779 1326.5 772.0Q1315 765 1308.5 753.0Q1302 741 1302 722Q1302 708 1305.5 695.0Q1309 682 1309 668Q1309 647 1300.5 627.5Q1292 608 1277.5 593.5Q1263 579 1244.0 570.5Q1225 562 1203 562Q1186 562 1172.5 567.0Q1159 572 1147.0 578.0Q1135 584 1124.0 589.0Q1113 594 1100 594Q1073 594 1059.0 578.0Q1045 562 1031.5 542.5Q1018 523 997.0 507.0Q976 491 936 491Q909 491 891.5 498.5Q874 506 861.5 518.0Q849 530 840.5 543.0Q832 556 822.5 568.0Q813 580 801.0 587.5Q789 595 771 595Q758 595 747.5 590.0Q737 585 725.5 579.5Q714 574 701.5 569.0Q689 564 671 564Q649 564 629.5 572.5Q610 581 595.5 595.5Q581 610 572.5 629.0Q564 648 564 670Q564 684 567.5 697.5Q571 711 571 725Q571 744 564.5 756.0Q558 768 547.0 775.0Q536 782 521.5 786.0Q507 790 492 792Q452 797 426.0 827.0Q400 857 400 898Q400 928 411.0 945.0Q422 962 435.0 975.5Q448 989 459.0 1002.5Q470 1016 470 1038Q470 1060 459.0 1073.0Q448 1086 435.5 1099.5Q423 1113 412.0 1130.0Q401 1147 401 1177Q401 1197 408.0 1215.5Q415 1234 427.5 1248.5Q440 1263 457.0 1272.5Q474 1282 494 1284Q509 1285 523.5 1288.5Q538 1292 549.0 1299.5Q560 1307 566.5 1319.0Q573 1331 573 1350Q573 1364 569.5 1377.0Q566 1390 566 1404Q566 1426 574.5 1445.0Q583 1464 597.5 1478.5Q612 1493 631.5 1501.5Q651 1510 673 1510Q691 1510 704.0 1505.0Q717 1500 728.5 1494.0Q740 1488 750.5 1483.0Q761 1478 774 1478Q792 1478 804.0 1485.5Q816 1493 825.5 1504.5Q835 1516 843.5 1529.5Q852 1543 864.5 1554.5Q877 1566 894.5 1573.5Q912 1581 939 1581Z" style="fill:#ff822d;stroke:none" transform="scale(1,-1) translate(0,-256)" /></svg>