<?xml version="1.0" encoding="utf-8" ?>
<svg baseProfile="full" height="256" version="1.1" width="256" xmlns="http://www.w3.org/2000/svg" xmlns:ev="http://www.w3.org/2001/xml-events" xmlns:xlink="http://www.w3.org/1999/xlink"><defs /><path d="M1753 1325Q1736 1325 1724.0 1315.5Q1712 1306 1701.0 1295.0Q1690 1284 1676.5 1274.5Q1663 1265 1642 1265Q1612 1265 1590.5 1286.5Q1569 1308 1569 1338Q1569 1366 1589.0 1390.5Q1609 1415 1638.0 1432.5Q1667 1450 1699.5 1460.0Q1732 1470 1756 1470Q1798 1470 1834.5 1453.5Q1871 1437 1898.0 1408.5Q1925 1380 1940.5 1342.5Q1956 1305 1956 1264Q1956 1219 1939.5 1180.5Q1923 1142 1897.0 1108.5Q1871 1075 1840.0 1044.0Q1809 1013 1781 983Q1769 970 1757.0 957.5Q1745 945 1732 932V931H1902Q1932 931 1953.0 910.0Q1974 889 1974 859Q1974 829 1953.0 807.5Q1932 786 1902 786H1610Q1591 786 1574.0 793.5Q1557 801 1544.5 813.5Q1532 826 1524.5 843.0Q1517 860 1517 879Q1517 897 1524.0 912.0Q1531 927 1542 941Q1596 1007 1657.5 1066.5Q1719 1126 1776 1189Q1790 1205 1800.5 1223.0Q1811 1241 1811 1263Q1811 1288 1795.0 1306.5Q1779 1325 1753 1325ZM1127 859Q1127 829 1105.5 807.5Q1084 786 1054 786Q1024 786 1003.0 807.5Q982 829 982 859V1216H981Q968 1202 954.0 1194.5Q940 1187 921 1187Q891 1187 870.5 1209.0Q850 1231 850 1260Q850 1274 855.0 1287.0Q860 1300 870 1310L1002 1448Q1012 1459 1026.0 1464.5Q1040 1470 1054 1470Q1084 1470 1105.5 1449.0Q1127 1428 1127 1398ZM1034 505Q1009 505 997.0 493.0Q985 481 974.5 466.5Q964 452 950.5 440.0Q937 428 910 428Q880 428 859.0 449.5Q838 471 838 501Q838 509 840.0 516.5Q842 524 845 532Q856 559 876.5 580.5Q897 602 922.5 618.0Q948 634 976.5 642.5Q1005 651 1034 651Q1077 651 1115.5 634.5Q1154 618 1182.5 589.5Q1211 561 1227.5 522.5Q1244 484 1244 441Q1244 405 1232.0 371.0Q1220 337 1197 309V308Q1220 280 1232.0 246.0Q1244 212 1244 176Q1244 132 1227.5 94.0Q1211 56 1182.5 27.5Q1154 -1 1115.5 -17.5Q1077 -34 1034 -34Q1001 -34 969.0 -23.5Q937 -13 910.0 6.5Q883 26 863.0 53.0Q843 80 834 112Q831 122 831 134Q831 164 852.5 185.5Q874 207 904 207Q924 207 936.5 200.0Q949 193 957.0 182.0Q965 171 971.0 159.0Q977 147 985.0 136.0Q993 125 1004.0 118.0Q1015 111 1034 111Q1061 111 1080.0 130.0Q1099 149 1099 176Q1099 196 1091.0 208.0Q1083 220 1071.5 227.5Q1060 235 1046.5 240.5Q1033 246 1021.5 253.5Q1010 261 1002.0 273.5Q994 286 994 308Q994 331 1002.0 344.0Q1010 357 1021.5 365.0Q1033 373 1046.5 378.0Q1060 383 1071.5 390.0Q1083 397 1091.0 408.5Q1099 420 1099 441Q1099 468 1080.0 486.5Q1061 505 1034 505ZM1731 574Q1731 558 1724.0 527.0Q1717 496 1707.5 461.5Q1698 427 1688.5 394.0Q1679 361 1675 342H1754V350Q1754 370 1755.5 389.5Q1757 409 1764.5 425.0Q1772 441 1786.0 450.5Q1800 460 1826 460Q1856 460 1877.5 439.0Q1899 418 1899 388V340Q1924 335 1940.5 315.0Q1957 295 1957 269Q1957 243 1940.5 223.0Q1924 203 1899 198V40Q1899 10 1877.5 -11.5Q1856 -33 1826 -33Q1796 -33 1775.0 -11.5Q1754 10 1754 40V197H1582Q1553 197 1531.5 218.0Q1510 239 1510 268Q1510 273 1510.0 277.5Q1510 282 1512 287L1588 592Q1594 617 1613.5 632.0Q1633 647 1659 647Q1689 647 1710.0 625.5Q1731 604 1731 574Z" style="fill:#ffffff;stroke:none" transform="scale(1,-1) translate(0,-256)" /></svg>