<?xml version="1.0" encoding="utf-8" ?>
<svg baseProfile="full" height="256" version="1.1" width="256" xmlns="http://www.w3.org/2000/svg" xmlns:ev="http://www.w3.org/2001/xml-events" xmlns:xlink="http://www.w3.org/1999/xlink"><defs /><path d="M667 97Q655 97 644.0 92.0Q633 87 622.0 81.5Q611 76 600.0 71.0Q589 66 578 66Q563 66 552.0 77.0Q541 88 541 102Q541 110 548.0 128.0Q555 146 564.0 165.5Q573 185 582.0 202.5Q591 220 595 229Q608 241 629.0 260.0Q650 279 671.5 299.0Q693 319 712.5 337.5Q732 356 743 368Q751 377 763.0 395.0Q775 413 787.5 433.0Q800 453 811.5 472.0Q823 491 831 503V360L910 280L793 8Q783 -14 760 -14Q745 -14 737.0 -6.0Q729 2 723.5 14.5Q718 27 714.0 41.5Q710 56 704.5 68.5Q699 81 690.5 89.0Q682 97 667 97ZM1283 97Q1260 97 1251.0 79.5Q1242 62 1235.5 41.5Q1229 21 1220.5 3.5Q1212 -14 1190 -14Q1166 -14 1156 8L1039 281Q1051 337 1071.0 394.5Q1091 452 1118 503L1184 369L1355 227Q1359 218 1368.0 201.0Q1377 184 1386.0 165.0Q1395 146 1401.5 128.5Q1408 111 1408 103Q1408 89 1397.5 77.5Q1387 66 1372 66Q1361 66 1350.0 71.0Q1339 76 1327.5 81.5Q1316 87 1305.0 92.0Q1294 97 1283 97Z" style="fill:#ffb02e;stroke:none" transform="scale(1,-1) translate(0,-256)" /></svg>