<?xml version="1.0" encoding="utf-8" ?>
<svg baseProfile="full" height="256" version="1.1" width="256" xmlns="http://www.w3.org/2000/svg" xmlns:ev="http://www.w3.org/2001/xml-events" xmlns:xlink="http://www.w3.org/1999/xlink"><defs /><path d="M545 306Q519 306 496.0 315.5Q473 325 455.5 342.0Q438 359 428.0 382.0Q418 405 418 431Q418 457 428.0 480.0Q438 503 455.0 520.0Q472 537 495.5 547.0Q519 557 545 557Q578 557 613.5 546.0Q649 535 683.0 517.0Q717 499 747.5 476.5Q778 454 801 431Q778 408 747.5 385.5Q717 363 683.0 345.5Q649 328 613.5 317.0Q578 306 545 306ZM1404 306Q1371 306 1335.5 317.0Q1300 328 1266.5 345.5Q1233 363 1202.5 385.5Q1172 408 1149 431Q1172 454 1202.5 476.5Q1233 499 1266.5 517.0Q1300 535 1335.5 546.0Q1371 557 1404 557Q1430 557 1453.5 547.5Q1477 538 1494.5 521.0Q1512 504 1522.0 481.0Q1532 458 1532 431Q1532 405 1521.5 382.0Q1511 359 1493.5 342.0Q1476 325 1453.0 315.5Q1430 306 1404 306Z" style="fill:#ff6723;stroke:none" transform="scale(1,-1) translate(0,-256)" /></svg>