<?xml version="1.0" encoding="utf-8" ?>
<svg baseProfile="full" height="256" version="1.1" width="256" xmlns="http://www.w3.org/2000/svg" xmlns:ev="http://www.w3.org/2001/xml-events" xmlns:xlink="http://www.w3.org/1999/xlink"><defs /><path d="M543 935Q580 935 620.0 922.0Q660 909 698.0 888.5Q736 868 770.5 842.5Q805 817 831 791V431Q802 405 768.5 379.5Q735 354 698.5 333.5Q662 313 622.5 300.5Q583 288 543 288Q513 288 487.0 299.0Q461 310 441.5 329.5Q422 349 411.0 375.0Q400 401 400 431V791Q400 821 411.0 847.0Q422 873 441.5 892.5Q461 912 487.0 923.5Q513 935 543 935ZM777 431Q756 450 728.0 469.5Q700 489 668.5 504.5Q637 520 604.5 529.5Q572 539 543 539Q520 539 500.5 530.5Q481 522 467.0 507.0Q453 492 444.5 472.5Q436 453 436 431Q436 409 444.5 389.5Q453 370 467.5 355.5Q482 341 501.5 332.5Q521 324 543 324Q573 324 605.0 333.5Q637 343 668.0 358.0Q699 373 726.5 392.0Q754 411 777 431ZM1406 935Q1369 935 1329.0 922.0Q1289 909 1250.5 888.5Q1212 868 1178.0 842.5Q1144 817 1118 791V431Q1147 405 1180.5 379.5Q1214 354 1250.5 333.5Q1287 313 1326.5 300.5Q1366 288 1406 288Q1436 288 1462.0 299.0Q1488 310 1507.5 329.5Q1527 349 1538.5 375.0Q1550 401 1550 431V791Q1550 821 1538.5 847.0Q1527 873 1507.5 892.5Q1488 912 1462.0 923.5Q1436 935 1406 935ZM1172 431Q1194 450 1222.0 469.5Q1250 489 1281.0 504.5Q1312 520 1344.0 529.5Q1376 539 1406 539Q1428 539 1447.5 530.5Q1467 522 1482.0 507.0Q1497 492 1505.5 472.5Q1514 453 1514 431Q1514 409 1505.5 389.5Q1497 370 1482.0 355.5Q1467 341 1447.5 332.5Q1428 324 1406 324Q1374 324 1342.5 333.5Q1311 343 1281.0 358.0Q1251 373 1223.5 392.0Q1196 411 1172 431Z" style="fill:#fcd53f;stroke:none" transform="scale(1,-1) translate(0,-256)" /></svg>