<?xml version="1.0" encoding="utf-8" ?>
<svg baseProfile="full" height="256" version="1.1" width="256" xmlns="http://www.w3.org/2000/svg" xmlns:ev="http://www.w3.org/2001/xml-events" xmlns:xlink="http://www.w3.org/1999/xlink"><defs /><path d="M826 778Q828 785 829.0 791.5Q830 798 832 805Q837 830 857.0 846.5Q877 863 903 863H1047Q1073 863 1092.5 847.0Q1112 831 1117 805Q1119 798 1120.0 791.5Q1121 785 1124 778L1190 611L1124 444Q1120 433 1117 418Q1111 392 1092.5 376.0Q1074 360 1047 360H903Q876 360 857.0 376.0Q838 392 832 418Q830 425 829.0 431.0Q828 437 826 444L759 611ZM1550 791H2332Q2318 694 2277.5 603.5Q2237 513 2184 431H1550Z" style="fill:#ffb02e;stroke:none" transform="scale(1,-1) translate(0,-256)" /></svg>