<?xml version="1.0" encoding="utf-8" ?>
<svg baseProfile="full" height="256" version="1.1" width="256" xmlns="http://www.w3.org/2000/svg" xmlns:ev="http://www.w3.org/2001/xml-events" xmlns:xlink="http://www.w3.org/1999/xlink"><defs /><path d="M1024 815Q1041 871 1082.5 902.5Q1124 934 1183 934Q1215 934 1242.5 921.5Q1270 909 1290.5 888.0Q1311 867 1322.5 839.0Q1334 811 1334 780Q1334 736 1317.0 688.0Q1300 640 1274.0 593.0Q1248 546 1216.5 504.0Q1185 462 1156 431Q1124 438 1082.0 451.5Q1040 465 996.0 483.5Q952 502 909.5 526.0Q867 550 833.5 579.5Q800 609 779.5 643.5Q759 678 759 718Q759 749 772.0 775.0Q785 801 806.5 819.0Q828 837 856.0 847.0Q884 857 914 857Q941 857 971.5 844.5Q1002 832 1024 815ZM1788 815Q1810 832 1840.5 844.5Q1871 857 1898 857Q1928 857 1956.0 847.0Q1984 837 2005.5 819.0Q2027 801 2040.0 775.5Q2053 750 2053 718Q2053 678 2032.5 643.5Q2012 609 1978.5 580.0Q1945 551 1902.5 526.5Q1860 502 1816.0 483.5Q1772 465 1730.0 451.5Q1688 438 1656 431Q1627 462 1595.5 504.0Q1564 546 1538.0 593.0Q1512 640 1495.0 688.0Q1478 736 1478 780Q1478 811 1489.5 839.0Q1501 867 1521.5 888.0Q1542 909 1569.5 921.5Q1597 934 1629 934Q1688 934 1729.5 902.5Q1771 871 1788 815Z" style="fill:#ca0b4a;stroke:none" transform="scale(1,-1) translate(0,-256)" /></svg>