<?xml version="1.0" encoding="utf-8" ?>
<svg baseProfile="full" height="256" version="1.1" width="256" xmlns="http://www.w3.org/2000/svg" xmlns:ev="http://www.w3.org/2001/xml-events" xmlns:xlink="http://www.w3.org/1999/xlink"><defs /><path d="M1478 429Q1478 455 1478.5 480.0Q1479 505 1479 531Q1479 547 1488.0 561.5Q1497 576 1515 576Q1533 576 1541.0 561.5Q1549 547 1549 531V-118Q1549 -147 1552.0 -171.5Q1555 -196 1564.0 -216.5Q1573 -237 1590.0 -254.0Q1607 -271 1634 -284Q1604 -278 1576.0 -259.5Q1548 -241 1526.5 -215.0Q1505 -189 1491.5 -158.5Q1478 -128 1478 -97ZM902 206Q880 222 860.0 246.5Q840 271 830 297V539Q830 554 840.5 564.5Q851 575 866 575Q881 575 891.5 564.5Q902 554 902 539ZM1208 149Q1185 164 1165.0 189.0Q1145 214 1137 240L1136 238V395Q1136 409 1147.0 420.0Q1158 431 1172 431Q1187 431 1197.5 420.5Q1208 410 1208 395Z" style="fill:#d67d00;stroke:none" transform="scale(1,-1) translate(0,-256)" /></svg>