<?xml version="1.0" encoding="utf-8" ?>
<svg baseProfile="full" height="256" version="1.1" width="256" xmlns="http://www.w3.org/2000/svg" xmlns:ev="http://www.w3.org/2001/xml-events" xmlns:xlink="http://www.w3.org/1999/xlink"><defs /><path d="M2338 702Q2338 666 2324.0 631.0Q2310 596 2285.5 568.5Q2261 541 2228.0 524.5Q2195 508 2157 508Q2118 508 2074.5 525.5Q2031 543 1988.5 567.5Q1946 592 1906.0 620.0Q1866 648 1835 669V-68Q1835 -108 1824.5 -147.0Q1814 -186 1792.5 -217.0Q1771 -248 1738.0 -267.5Q1705 -287 1660 -287Q1618 -287 1584.0 -267.0Q1550 -247 1526.0 -215.5Q1502 -184 1489.0 -145.0Q1476 -106 1476 -68V217Q1465 193 1446.0 175.5Q1427 158 1403.0 146.5Q1379 135 1353.0 129.0Q1327 123 1303 123Q1276 123 1250.0 131.5Q1224 140 1201.5 155.0Q1179 170 1162.0 191.5Q1145 213 1137 240Q1129 222 1111.0 210.5Q1093 199 1071.5 192.0Q1050 185 1027.5 182.0Q1005 179 989 179Q962 179 937.5 188.5Q913 198 892.0 214.0Q871 230 855.0 251.5Q839 273 830 297Q818 285 800.0 277.0Q782 269 762.0 263.5Q742 258 722.0 256.0Q702 254 686 254Q649 254 611.0 276.0Q573 298 542.0 331.5Q511 365 491.5 405.0Q472 445 472 481Q472 576 475.5 680.5Q479 785 490.5 890.5Q502 996 523.5 1099.0Q545 1202 581.5 1294.5Q618 1387 671.5 1466.0Q725 1545 800.0 1603.0Q875 1661 973.0 1693.5Q1071 1726 1198 1726Q1271 1726 1345.0 1707.5Q1419 1689 1488.0 1656.0Q1557 1623 1617.5 1576.0Q1678 1529 1724 1472Q1753 1437 1775.0 1398.5Q1797 1360 1815 1318Q1842 1257 1874.0 1205.5Q1906 1154 1945.0 1109.0Q1984 1064 2030.0 1023.5Q2076 983 2130 945Q2145 934 2167.5 920.0Q2190 906 2213.0 891.0Q2236 876 2256.0 861.0Q2276 846 2288 833Q2338 777 2338 702Z" style="fill:#ffc83d;stroke:none" transform="scale(1,-1) translate(0,-256)" /></svg>