<?xml version="1.0" encoding="utf-8" ?>
<svg baseProfile="full" height="256" version="1.1" width="256" xmlns="http://www.w3.org/2000/svg" xmlns:ev="http://www.w3.org/2001/xml-events" xmlns:xlink="http://www.w3.org/1999/xlink"><defs /><path d="M1262 37Q1262 25 1254.5 15.0Q1247 5 1236 2Q1227 -1 1200.5 -8.5Q1174 -16 1137.5 -26.5Q1101 -37 1057.0 -50.0Q1013 -63 968.0 -76.0Q923 -89 880.5 -101.5Q838 -114 804.0 -123.5Q770 -133 748.0 -138.5Q726 -144 722 -144Q707 -144 697.0 -132.5Q687 -121 687 -107Q687 -95 694.5 -85.5Q702 -76 713 -73Q725 -70 766.5 -57.5Q808 -45 863.5 -29.0Q919 -13 980.5 5.0Q1042 23 1095.0 37.5Q1148 52 1184.0 62.0Q1220 72 1225 72Q1240 72 1251.0 61.5Q1262 51 1262 37Z" style="fill:#9b9b9b;stroke:none" transform="scale(1,-1) translate(0,-256)" /></svg>