<?xml version="1.0" encoding="utf-8" ?>
<svg baseProfile="full" height="256" version="1.1" width="256" xmlns="http://www.w3.org/2000/svg" xmlns:ev="http://www.w3.org/2001/xml-events" xmlns:xlink="http://www.w3.org/1999/xlink"><defs /><path d="M2125 1724H2268Q2281 1724 2294.5 1718.0Q2308 1712 2318.5 1702.5Q2329 1693 2335.5 1680.0Q2342 1667 2340 1653L2207 603Q2202 559 2171.0 531.0Q2140 503 2095 503H1269Q1237 503 1213.5 526.5Q1190 550 1190 582V711Q1190 727 1196.5 741.5Q1203 756 1213.5 767.0Q1224 778 1238.5 784.5Q1253 791 1269 791H1909V935Q1909 965 1912.0 1007.0Q1915 1049 1921.0 1096.0Q1927 1143 1936.0 1192.5Q1945 1242 1957.0 1288.0Q1969 1334 1984.0 1373.0Q1999 1412 2017 1438Q1998 1461 1989.5 1488.5Q1981 1516 1981 1546Q1981 1579 1989.5 1611.0Q1998 1643 2016.0 1668.5Q2034 1694 2061.0 1709.5Q2088 1725 2125 1725Z" style="fill:#5092ff;stroke:none" transform="scale(1,-1) translate(0,-256)" /></svg>