<?xml version="1.0" encoding="utf-8" ?>
<svg baseProfile="full" height="256" version="1.1" width="256" xmlns="http://www.w3.org/2000/svg" xmlns:ev="http://www.w3.org/2001/xml-events" xmlns:xlink="http://www.w3.org/1999/xlink"><defs /><path d="M723 -287Q686 -287 653.0 -273.0Q620 -259 595.5 -234.5Q571 -210 557.0 -177.5Q543 -145 543 -108Q543 -71 557.0 -38.0Q571 -5 595.5 19.5Q620 44 653.0 58.0Q686 72 723 72Q760 72 793.0 58.0Q826 44 850.5 19.5Q875 -5 889.0 -38.0Q903 -71 903 -108Q903 -145 889.0 -177.5Q875 -210 850.5 -234.5Q826 -259 793.0 -273.0Q760 -287 723 -287Z" style="fill:#533566;stroke:none" transform="scale(1,-1) translate(0,-256)" /></svg>