<?xml version="1.0" encoding="utf-8" ?>
<svg baseProfile="full" height="256" version="1.1" width="256" xmlns="http://www.w3.org/2000/svg" xmlns:ev="http://www.w3.org/2001/xml-events" xmlns:xlink="http://www.w3.org/1999/xlink"><defs /><path d="M1448 431H2178Q2215 431 2241.5 404.5Q2268 378 2268 341V18Q2268 -19 2241.5 -45.5Q2215 -72 2178 -72H2100Q2069 -138 2007.5 -176.5Q1946 -215 1873 -215Q1800 -215 1738.5 -176.5Q1677 -138 1646 -72H1448H1141Q1097 -72 1072.0 -42.0Q1047 -12 1047 30Q1047 113 1078.5 186.0Q1110 259 1164.5 313.5Q1219 368 1292.0 399.5Q1365 431 1448 431Z" style="fill:#321b41;stroke:none" transform="scale(1,-1) translate(0,-256)" /></svg>