<?xml version="1.0" encoding="utf-8" ?>
<svg baseProfile="full" height="256" version="1.1" width="256" xmlns="http://www.w3.org/2000/svg" xmlns:ev="http://www.w3.org/2001/xml-events" xmlns:xlink="http://www.w3.org/1999/xlink"><defs /><path d="M1722 1107Q1742 1107 1756.5 1098.5Q1771 1090 1782 1075L2001 783Q2007 775 2010.0 764.0Q2013 753 2013 743Q2013 714 1992.0 692.5Q1971 671 1941 671Q1921 671 1906.5 679.5Q1892 688 1881 703L1662 995Q1656 1003 1653.0 1014.0Q1650 1025 1650 1035Q1650 1064 1671.0 1085.5Q1692 1107 1722 1107ZM1550 360H1406V575H1550ZM2125 360H1982V575H2125Z" style="fill:#9b9b9b;stroke:none" transform="scale(1,-1) translate(0,-256)" /></svg>