<?xml version="1.0" encoding="utf-8" ?>
<svg baseProfile="full" height="256" version="1.1" width="256" xmlns="http://www.w3.org/2000/svg" xmlns:ev="http://www.w3.org/2001/xml-events" xmlns:xlink="http://www.w3.org/1999/xlink"><defs /><path d="M1873 -287Q1806 -287 1747.5 -261.5Q1689 -236 1645.0 -192.0Q1601 -148 1575.5 -89.5Q1550 -31 1550 36Q1550 103 1575.5 162.0Q1601 221 1645.0 265.0Q1689 309 1747.5 334.5Q1806 360 1873 360Q1940 360 1999.0 334.5Q2058 309 2102.0 265.0Q2146 221 2171.5 162.0Q2197 103 2197 36Q2197 -31 2171.5 -89.5Q2146 -148 2102.0 -192.0Q2058 -236 1999.0 -261.5Q1940 -287 1873 -287ZM1873 -144Q1910 -144 1943.0 -130.0Q1976 -116 2000.5 -91.5Q2025 -67 2039.0 -34.0Q2053 -1 2053 36Q2053 73 2039.0 106.0Q2025 139 2000.5 163.5Q1976 188 1943.0 202.0Q1910 216 1873 216Q1836 216 1803.0 202.0Q1770 188 1745.5 163.5Q1721 139 1707.0 106.0Q1693 73 1693 36Q1693 -1 1707.0 -34.0Q1721 -67 1745.5 -91.5Q1770 -116 1803.0 -130.0Q1836 -144 1873 -144ZM831 -108Q831 -131 822.5 -150.5Q814 -170 799.0 -184.0Q784 -198 764.5 -206.5Q745 -215 723 -215Q701 -215 681.5 -206.5Q662 -198 647.0 -183.5Q632 -169 623.5 -149.5Q615 -130 615 -108Q615 -86 623.5 -66.5Q632 -47 647.0 -32.0Q662 -17 681.5 -8.5Q701 0 723 0Q745 0 765.0 -8.5Q785 -17 799.5 -31.5Q814 -46 822.5 -66.0Q831 -86 831 -108Z" style="fill:#d3d3d3;stroke:none" transform="scale(1,-1) translate(0,-256)" /></svg>