<?xml version="1.0" encoding="utf-8" ?>
<svg baseProfile="full" height="256" version="1.1" width="256" xmlns="http://www.w3.org/2000/svg" xmlns:ev="http://www.w3.org/2001/xml-events" xmlns:xlink="http://www.w3.org/1999/xlink"><defs /><path d="M1406 1438Q1436 1438 1457.0 1417.0Q1478 1396 1478 1366V892L1813 1227Q1834 1248 1863 1248Q1893 1248 1914.0 1227.0Q1935 1206 1935 1176Q1935 1147 1914 1126L1579 791H2053Q2083 791 2104.0 770.0Q2125 749 2125 719Q2125 689 2104.0 668.0Q2083 647 2053 647H1579L1914 312Q1935 291 1935 261Q1935 232 1913.5 211.0Q1892 190 1863 190Q1834 190 1813 211L1478 545V72Q1478 42 1457.0 21.0Q1436 0 1406 0Q1376 0 1355.0 21.0Q1334 42 1334 72V545L999 211Q978 190 948 190Q919 190 898.0 211.0Q877 232 877 261Q877 291 898 312L1232 647H759Q729 647 708.0 668.0Q687 689 687 719Q687 749 708.0 770.0Q729 791 759 791H1232L898 1126Q877 1147 877 1176Q877 1205 898.0 1226.5Q919 1248 948 1248Q978 1248 999 1227L1334 892V1366Q1334 1396 1355.0 1417.0Q1376 1438 1406 1438Z" style="fill:#ffffff;stroke:none" transform="scale(1,-1) translate(0,-256)" /></svg>