<?xml version="1.0" encoding="utf-8" ?>
<svg baseProfile="full" height="256" version="1.1" width="256" xmlns="http://www.w3.org/2000/svg" xmlns:ev="http://www.w3.org/2001/xml-events" xmlns:xlink="http://www.w3.org/1999/xlink"><defs /><path d="M2100 1124Q2140 1124 2176.0 1109.5Q2212 1095 2240.0 1070.0Q2268 1045 2286.5 1011.0Q2305 977 2309 937L2380 266Q2142 210 1901.5 175.5Q1661 141 1416 141Q1168 141 922.0 177.0Q676 213 434 266L504 937Q508 977 526.5 1011.0Q545 1045 573.0 1070.0Q601 1095 637.0 1109.5Q673 1124 713 1124H2100Z" style="fill:#f3ad61;stroke:none" transform="scale(1,-1) translate(0,-256)" /></svg>