<?xml version="1.0" encoding="utf-8" ?>
<svg baseProfile="full" height="256" version="1.1" width="256" xmlns="http://www.w3.org/2000/svg" xmlns:ev="http://www.w3.org/2001/xml-events" xmlns:xlink="http://www.w3.org/1999/xlink"><defs /><path d="M2375 306 2411 -41Q2412 -46 2412.0 -52.0Q2412 -58 2412 -63Q2412 -106 2395.5 -144.5Q2379 -183 2350.5 -211.5Q2322 -240 2284.0 -256.5Q2246 -273 2203 -273H609Q566 -273 528.0 -256.5Q490 -240 461.5 -211.5Q433 -183 416.5 -144.5Q400 -106 400 -63Q400 -58 400.0 -52.0Q400 -46 401 -41L438 306Z" style="fill:#6d4534;stroke:none" transform="scale(1,-1) translate(0,-256)" /></svg>