<?xml version="1.0" encoding="utf-8" ?>
<svg baseProfile="full" height="256" version="1.1" width="256" xmlns="http://www.w3.org/2000/svg" xmlns:ev="http://www.w3.org/2001/xml-events" xmlns:xlink="http://www.w3.org/1999/xlink"><defs /><path d="M400 1255Q400 1287 412.0 1315.5Q424 1344 447 1367L756 1676Q779 1699 808.0 1711.0Q837 1723 869 1723Q919 1723 958 1696L950 1642L1008 1650L1128 1529V1480H1178L1303 1354L1295 1296L1353 1305L1474 1184L1465 1126L1521 1136L1647 1010L1639 952L1696 962L1815 843L1809 789L1863 795L1990 667L1985 613L2039 618L2160 498L2154 445L2207 451L2338 319V271H2383Q2412 230 2412 179Q2412 147 2399.5 118.5Q2387 90 2365 68L2056 -241Q2033 -264 2004.0 -276.0Q1975 -288 1943 -288Q1911 -288 1882.5 -276.5Q1854 -265 1831 -242L447 1142Q424 1165 412.0 1194.0Q400 1223 400 1255Z" style="fill:#bebebe;stroke:none" transform="scale(1,-1) translate(0,-256)" /></svg>