<?xml version="1.0" encoding="utf-8" ?>
<svg baseProfile="full" height="256" version="1.1" width="256" xmlns="http://www.w3.org/2000/svg" xmlns:ev="http://www.w3.org/2001/xml-events" xmlns:xlink="http://www.w3.org/1999/xlink"><defs /><path d="M2335 322Q2348 309 2361.5 297.5Q2375 286 2384 270L2247 133Q2236 122 2222 122Q2207 122 2196.0 132.5Q2185 143 2185 158Q2185 173 2196 184ZM2157 501 2208 450 2123 363Q2112 352 2098 352Q2084 352 2073.0 363.0Q2062 374 2062 388Q2062 403 2072 413ZM1989 669 2040 618 1901 479Q1890 468 1875 468Q1861 468 1850.0 479.0Q1839 490 1839 504Q1839 519 1850 530ZM1813 844 1864 793 1780 706Q1769 695 1754 695Q1739 695 1728.5 705.5Q1718 716 1718 731Q1718 744 1728 756ZM1645 1012 1696 962 1557 823Q1546 812 1532 812Q1517 812 1506.0 822.5Q1495 833 1495 848Q1495 863 1506 874ZM1471 1186 1522 1136 1437 1049Q1426 1038 1411 1038Q1397 1038 1386.0 1048.5Q1375 1059 1375 1073Q1375 1088 1386 1099ZM1302 1355 1353 1304 1214 1166Q1203 1155 1189 1155Q1175 1155 1164.0 1166.0Q1153 1177 1153 1191Q1153 1206 1164 1217ZM1128 1530 1179 1479 1094 1392Q1083 1381 1068 1381Q1054 1381 1043.0 1392.0Q1032 1403 1032 1417Q1032 1432 1043 1443ZM1010 1648 871 1509Q860 1498 845 1498Q831 1498 820.0 1509.0Q809 1520 809 1534Q809 1549 820 1560L957 1697Q971 1686 984.0 1673.5Q997 1661 1010 1648Z" style="fill:#8d65c5;stroke:none" transform="scale(1,-1) translate(0,-256)" /></svg>