<?xml version="1.0" encoding="utf-8" ?>
<svg baseProfile="full" height="256" version="1.1" width="256" xmlns="http://www.w3.org/2000/svg" xmlns:ev="http://www.w3.org/2001/xml-events" xmlns:xlink="http://www.w3.org/1999/xlink"><defs /><path d="M1909 298Q1909 188 1865.0 94.0Q1821 0 1746.5 -68.5Q1672 -137 1574.5 -176.0Q1477 -215 1370 -215Q1257 -215 1158.5 -172.5Q1060 -130 987.0 -56.5Q914 17 872.5 116.0Q831 215 831 328Q831 430 864.0 529.0Q897 628 951.5 718.5Q1006 809 1076.0 889.5Q1146 970 1219 1035Q1254 1067 1291.0 1096.0Q1328 1125 1368 1150Q1413 1121 1454.5 1088.0Q1496 1055 1536 1019Q1613 949 1681.0 868.0Q1749 787 1799.5 696.0Q1850 605 1879.5 505.0Q1909 405 1909 298Z" style="fill:#ffb02e;stroke:none" transform="scale(1,-1) translate(0,-256)" /></svg>