<?xml version="1.0" encoding="utf-8" ?>
<svg baseProfile="full" height="256" version="1.1" width="256" xmlns="http://www.w3.org/2000/svg" xmlns:ev="http://www.w3.org/2001/xml-events" xmlns:xlink="http://www.w3.org/1999/xlink"><defs /><path d="M2125 479Q2125 374 2098.5 276.5Q2072 179 2023.0 94.0Q1974 9 1905.5 -61.0Q1837 -131 1753.0 -181.5Q1669 -232 1572.0 -259.5Q1475 -287 1369 -287Q1259 -287 1160.5 -257.0Q1062 -227 978.5 -173.0Q895 -119 827.5 -44.0Q760 31 713.0 120.0Q666 209 640.5 310.0Q615 411 615 517Q615 608 632.0 697.5Q649 787 679.5 873.5Q710 960 751.5 1042.5Q793 1125 841 1200Q861 1231 882.5 1262.0Q904 1293 927 1322Q928 1323 929.0 1323.5Q930 1324 931 1325Q940 1324 947.0 1297.5Q954 1271 961.5 1236.5Q969 1202 977.5 1169.0Q986 1136 998 1123L1002 1125Q1026 1155 1044.5 1188.5Q1063 1222 1083 1255Q1128 1332 1172.5 1408.5Q1217 1485 1262 1563Q1282 1597 1300.0 1632.5Q1318 1668 1341 1700Q1349 1712 1359.5 1718.5Q1370 1725 1385 1725Q1396 1725 1416.5 1713.0Q1437 1701 1461.0 1682.0Q1485 1663 1511.0 1640.0Q1537 1617 1560.5 1594.5Q1584 1572 1602.5 1553.5Q1621 1535 1631 1526Q1736 1420 1826.5 1300.5Q1917 1181 1983.0 1049.5Q2049 918 2087.0 775.0Q2125 632 2125 479Z" style="fill:#ff6723;stroke:none" transform="scale(1,-1) translate(0,-256)" /></svg>