<?xml version="1.0" encoding="utf-8" ?>
<svg baseProfile="full" height="256" version="1.1" width="256" xmlns="http://www.w3.org/2000/svg" xmlns:ev="http://www.w3.org/2001/xml-events" xmlns:xlink="http://www.w3.org/1999/xlink"><defs /><path d="M1406 1725Q1510 1725 1601.5 1685.5Q1693 1646 1761.5 1577.5Q1830 1509 1869.5 1417.5Q1909 1326 1909 1222V575Q1909 517 1890.5 462.0Q1872 407 1837 360V144H903V306Q852 341 812.0 387.0Q772 433 744.5 486.0Q717 539 702.0 598.0Q687 657 687 719V1222Q687 1326 726.5 1417.5Q766 1509 834.0 1577.5Q902 1646 994.0 1685.5Q1086 1725 1190 1725Z" style="fill:#f8312f;stroke:none" transform="scale(1,-1) translate(0,-256)" /></svg>